<?xml version="1.0" encoding="UTF-8"?>
<svg xmlns="http://www.w3.org/2000/svg" width="1000" height="520" viewBox="0 0 1000 520" font-family="ui-sans-serif, system-ui, sans-serif">
  <rect width="1000" height="520" fill="#ffffff"/>
  <text x="78" y="28" font-size="18" font-weight="700" fill="#111827">Zone Recovery — SUIUSDC best setting (equity / PnL)</text>
  <text x="78" y="48" font-size="12.5" fill="#6b7280">lev 10 · ratio 3 · gap 35% · maxSteps 4 · maxDD 60% · random · vip 9  ·  10 series, 100.0% win · vol $4875757 ($157283/day) · fees $412.49</text>
  <text x="78" y="68" font-size="12.5" font-weight="600" fill="#1d4ed8">USDC · BNB −10% · taker 0.0085%</text>
  <text x="934" y="28" text-anchor="end" font-size="18" font-weight="700" fill="#16a34a">+94343 USDT  (+943.43%)</text>
  <line x1="78" y1="468.0" x2="934" y2="468.0" stroke="#e5e7eb" stroke-width="1"/><text x="68" y="472.0" text-anchor="end" font-size="12" fill="#6b7280">0.00</text><line x1="78" y1="392.0" x2="934" y2="392.0" stroke="#e5e7eb" stroke-width="1"/><text x="68" y="396.0" text-anchor="end" font-size="12" fill="#6b7280">24850</text><line x1="78" y1="316.0" x2="934" y2="316.0" stroke="#e5e7eb" stroke-width="1"/><text x="68" y="320.0" text-anchor="end" font-size="12" fill="#6b7280">49700</text><line x1="78" y1="240.0" x2="934" y2="240.0" stroke="#e5e7eb" stroke-width="1"/><text x="68" y="244.0" text-anchor="end" font-size="12" fill="#6b7280">74549</text><line x1="78" y1="164.0" x2="934" y2="164.0" stroke="#e5e7eb" stroke-width="1"/><text x="68" y="168.0" text-anchor="end" font-size="12" fill="#6b7280">99399</text><line x1="78" y1="88.0" x2="934" y2="88.0" stroke="#e5e7eb" stroke-width="1"/><text x="68" y="92.0" text-anchor="end" font-size="12" fill="#6b7280">124249</text>
  <line x1="78" y1="437.4" x2="934" y2="437.4" stroke="#9ca3af" stroke-width="1.5" stroke-dasharray="6 4"/><text x="934" y="431.4" text-anchor="end" font-size="11" fill="#6b7280">start 10000</text>
  <polyline points="78.0,319.2 79.1,317.4 79.9,318.0 80.8,318.3 81.8,318.5 82.9,321.9 83.9,320.7 85.2,319.9 87.0,319.7 88.4,317.5 89.1,316.7 90.5,317.7 91.8,316.3 93.0,318.2 94.2,315.5 95.1,314.0 95.8,313.4 96.2,309.9 96.3,311.5 96.6,311.1 97.0,309.3 97.6,309.3 98.0,305.4 98.2,304.7 98.3,305.2 98.7,306.0 99.2,306.1 99.9,306.9 100.7,305.8 101.1,304.1 101.8,304.9 102.7,303.4 103.6,301.8 104.3,299.9 104.6,297.2 105.1,297.0 105.6,296.3 106.0,299.5 106.5,299.5 107.2,298.0 108.0,299.4 108.6,297.2 109.1,296.3 109.3,294.1 109.4,290.8 109.7,291.1 109.9,287.9 110.0,287.9 110.2,287.7 110.5,291.0 110.9,290.3 111.6,291.3 112.3,291.5 113.0,290.6 113.5,288.9 114.3,291.8 115.0,290.0 115.6,291.0 116.2,287.7 116.4,287.0 116.9,284.9 116.9,280.3 117.1,281.7 117.3,278.7 117.5,279.6 117.8,281.9 118.3,281.4 118.8,283.3 119.2,286.3 119.9,285.3 120.2,279.9 120.4,280.1 120.9,279.8 121.4,279.5 121.8,278.8 122.1,284.1 122.2,283.0 122.4,284.8 122.5,282.1 122.5,280.8 122.6,279.2 122.7,274.3 122.7,276.4 122.9,274.7 123.0,277.3 123.2,280.3 123.4,279.8 123.6,273.5 123.8,272.5 124.0,276.5 124.2,274.9 124.3,271.2 124.4,270.6 124.6,269.6 124.7,264.1 124.8,265.6 124.9,267.3 125.0,263.7 125.1,264.3 125.3,262.3 125.5,261.6 125.7,264.9 125.9,264.7 126.2,263.8 126.4,263.8 126.8,260.2 127.1,262.8 127.3,267.3 127.6,266.2 127.9,262.3 128.3,259.1 128.5,258.8 128.9,254.1 129.0,251.5 129.3,251.4 129.6,251.9 129.8,251.1 130.2,249.6 130.4,246.7 130.7,246.9 130.8,241.9 130.9,245.3 131.0,243.7 131.2,245.8 131.5,246.8 132.0,248.5 132.4,249.6 132.8,250.8 133.3,250.1 133.7,246.4 134.0,244.7 134.1,238.3 134.4,241.7 134.7,239.4 135.0,237.3 135.1,231.6 135.2,232.5 135.4,231.0 135.5,233.6 135.7,237.1 135.9,238.6 136.2,235.5 136.5,232.8 136.8,231.8 137.2,234.0 137.5,229.4 137.9,229.5 138.3,230.0 138.6,231.0 138.9,231.2 139.4,231.6 139.9,234.8 140.2,231.2 140.4,225.5 140.7,230.1 141.0,233.6 141.1,236.7 141.5,237.9 141.6,241.2 141.7,247.9 141.8,245.5 141.9,247.4 142.1,243.5 142.5,245.8 142.7,245.1 143.0,245.2 143.2,242.9 143.6,244.0 144.1,243.3 144.3,238.9 144.6,237.4 144.8,239.5 145.3,239.8 146.0,241.8 146.7,242.7 147.3,243.1 147.9,243.7 148.2,242.4 148.5,238.4 149.0,234.9 149.4,237.4 149.9,232.9 150.2,233.3 150.7,234.8 151.1,236.2 151.7,237.5 152.0,234.0 152.4,233.4 153.0,237.1 154.0,235.5 154.6,234.7 155.5,236.0 156.4,241.3 156.9,238.7 157.7,239.8 158.2,238.8 159.1,237.3 159.3,236.4 160.0,233.3 160.8,232.7 160.9,225.1 161.0,225.9 161.0,227.5 161.1,226.4 161.2,228.7 161.5,229.8 161.6,231.2 161.9,228.8 162.1,228.5 162.4,229.0 162.8,230.2 163.2,228.8 163.6,224.7 164.0,228.2 164.3,223.5 164.5,220.3 164.6,218.5 164.8,221.0 164.9,220.9 165.1,219.6 165.3,220.2 165.6,221.4 166.0,219.5 166.4,219.2 166.9,223.2 167.5,223.9 168.0,220.6 168.3,223.0 168.6,226.1 168.9,226.5 169.4,224.8 169.9,222.4 170.2,227.4 170.5,225.2 170.9,224.1 171.4,225.3 171.7,223.0 172.0,220.4 172.4,219.5 172.7,219.2 173.1,217.9 173.5,219.5 173.7,221.6 174.1,221.7 174.6,221.5 175.0,220.6 175.2,219.8 175.5,223.6 175.9,224.8 176.2,226.7 176.7,224.1 177.3,223.7 177.7,224.1 178.1,222.3 178.6,221.9 179.0,223.5 179.3,218.5 179.6,221.1 180.1,219.4 180.7,216.6 181.0,214.7 181.3,209.9 181.4,205.9 181.5,206.8 181.6,210.0 181.9,214.4 182.2,215.3 182.4,215.3 182.8,218.7 182.9,221.3 183.0,220.8 183.3,220.0 183.9,219.2 184.3,216.0 184.6,211.7 185.0,216.2 185.3,214.8 185.7,218.4 186.2,219.4 186.6,218.6 187.4,215.0 187.4,220.9 187.5,221.8 187.6,226.4 187.7,223.4 187.9,225.0 188.2,225.2 188.5,223.2 188.5,222.7 188.7,221.5 189.0,224.1 189.2,221.3 189.4,217.1 189.5,218.6 189.7,216.9 189.8,213.5 189.9,214.7 190.2,215.2 190.3,210.1 190.5,209.5 190.6,211.2 190.8,215.0 191.0,216.6 191.2,218.5 191.5,219.6 191.7,219.8 192.1,220.1 192.4,222.2 192.9,219.9 193.4,223.5 193.6,228.5 193.7,228.6 194.0,227.8 194.3,228.4 194.8,225.9 195.2,227.9 195.5,229.3 195.9,232.3 196.1,230.6 196.5,227.8 197.1,226.4 197.7,226.5 198.1,222.0 198.7,225.6 199.0,227.6 199.5,226.5 200.0,227.2 200.5,224.8 200.7,227.7 201.4,227.3 201.9,227.3 202.6,226.8 203.2,227.7 203.7,226.0 204.2,229.2 204.5,229.0 204.7,231.7 205.0,229.9 205.2,231.5 205.3,231.7 205.4,227.4 205.5,225.5 205.6,223.6 205.8,225.6 206.0,227.3 206.2,227.5 206.4,222.9 206.6,219.5 206.7,217.7 206.9,217.3 207.1,219.5 207.3,219.4 207.4,219.0 207.6,217.2 207.8,218.4 208.1,216.2 208.4,218.2 208.6,219.8 208.9,214.2 209.1,211.8 209.2,211.9 209.4,209.5 209.6,209.0 209.7,203.2 209.8,200.1 209.9,200.4 210.0,198.0 210.1,196.0 210.2,193.9 210.2,192.1 210.4,197.0 210.5,194.7 210.7,193.7 210.8,192.4 210.9,187.9 211.0,182.5 211.0,183.7 211.1,186.0 211.2,184.9 211.3,180.6 211.4,177.5 211.5,176.3 211.5,170.8 211.6,165.4 211.6,165.7 211.6,166.0 211.7,169.8 211.7,164.0 211.8,162.8 211.8,162.7 211.9,163.8 212.0,158.2 212.0,157.8 212.0,149.7 212.1,151.4 212.1,154.7 212.1,157.1 212.2,156.1 212.2,154.8 212.3,155.1 212.4,159.5 212.5,161.7 212.6,157.7 212.7,154.4 212.8,158.6 212.9,158.3 213.1,156.9 213.2,157.8 213.4,154.1 213.5,154.4 213.7,156.8 213.8,160.6 214.0,154.2 214.2,155.0 214.4,149.2 214.5,145.0 214.6,141.9 214.7,144.6 214.7,151.0 214.9,149.0 215.1,148.9 215.2,147.4 215.4,152.1 215.6,153.2 215.8,154.8 216.1,155.5 216.2,149.3 216.3,148.0 216.3,148.3 216.4,147.6 216.5,142.2 216.5,142.2 216.6,138.0 216.7,140.6 216.7,140.0 216.8,142.2 216.8,142.2 216.9,143.0 216.9,141.8 217.0,140.0 217.1,140.9 217.1,133.8 217.2,133.4 217.2,127.9 217.3,127.8 217.3,132.7 217.4,136.5 217.5,136.9 217.6,134.5 217.8,133.0 217.9,133.4 218.0,135.6 218.1,136.0 218.2,141.8 218.4,140.9 218.5,137.8 218.6,139.6 218.8,141.7 218.9,139.0 219.1,142.4 219.3,143.6 219.4,140.7 219.7,138.8 219.9,139.6 220.2,140.3 220.4,143.8 220.6,143.9 220.8,142.1 221.1,139.1 221.3,142.8 221.6,140.5 221.9,139.1 222.0,139.2 222.2,137.1 222.4,134.3 222.5,132.0 222.6,130.1 222.7,132.7 222.9,129.5 223.0,130.4 223.1,130.7 223.3,133.9 223.5,134.3 223.7,131.4 223.8,128.3 223.9,128.9 224.0,130.0 224.2,131.5 224.4,132.5 224.6,134.2 224.7,137.2 224.8,135.2 224.9,140.5 225.0,136.7 225.1,140.0 225.2,137.7 225.3,131.4 225.4,129.4 225.5,130.0 225.6,130.0 225.7,127.2 225.8,131.1 225.9,131.9 226.0,130.8 226.1,131.3 226.3,130.8 226.4,134.7 226.5,130.8 226.7,134.8 226.9,133.9 227.1,138.0 227.3,138.4 227.5,139.4 227.7,137.7 227.9,136.1 228.1,135.7 228.4,134.5 228.6,133.2 228.8,134.6 229.0,134.4 229.2,134.7 229.5,131.8 229.7,130.3 229.8,129.7 230.0,127.4 230.0,118.5 230.0,120.8 230.0,125.4 230.1,130.3 230.2,131.4 230.4,130.5 230.5,128.4 230.6,128.7 230.8,128.9 231.0,131.6 231.2,130.1 231.4,128.8 231.6,128.7 231.7,124.8 231.8,126.1 232.0,128.4 232.2,124.8 232.3,121.7 232.4,122.6 232.4,122.8 232.5,122.4 232.6,122.2 232.7,124.5 232.7,128.0 232.8,133.8 232.8,131.0 232.9,132.7 233.0,131.9 233.1,131.7 233.1,136.5 233.2,135.5 233.2,135.2 233.3,134.5 233.4,134.1 233.5,134.3 233.7,130.9 233.8,128.5 233.9,129.3 234.0,133.6 234.1,136.9 234.2,139.5 234.3,135.7 234.4,138.6 234.5,136.8 234.6,144.0 234.6,149.2 234.7,143.3 234.8,143.5 234.9,149.9 234.9,150.8 235.0,153.9 235.0,157.8 235.0,158.9 235.1,158.5 235.1,159.9 235.1,158.3 235.2,159.5 235.3,162.2 235.3,166.5 235.3,167.4 235.4,167.6 235.4,169.9 235.4,167.1 235.5,166.2 235.5,169.7 235.5,166.7 235.6,168.6 235.6,172.0 235.7,173.0 235.7,172.9 235.8,169.1 235.9,170.1 236.0,173.7 236.1,171.2 236.2,170.5 236.3,166.4 236.4,171.2 236.5,170.8 236.5,176.6 236.6,178.6 236.6,176.4 236.6,181.4 236.7,181.7 236.7,182.5 236.8,183.3 236.8,180.4 236.9,176.6 237.0,172.5 237.1,172.4 237.3,172.5 237.4,170.5 237.5,173.9 237.7,172.0 237.9,172.9 238.1,171.9 238.3,172.1 238.6,169.3 238.8,171.8 239.1,169.9 239.2,167.2 239.4,167.5 239.7,169.3 239.9,167.7 240.1,169.5 240.3,169.4 240.5,167.8 240.5,162.6 240.6,162.9 240.7,164.2 240.8,163.4 240.9,160.0 241.1,161.6 241.2,163.5 241.5,159.2 241.7,163.1 242.0,162.1 242.4,160.4 242.7,157.2 242.9,156.9 243.2,155.5 243.4,153.8 243.7,154.6 243.8,157.6 244.1,158.1 244.3,157.7 244.5,160.9 244.8,164.3 245.0,161.3 245.2,167.4 245.4,167.0 245.6,168.7 245.8,169.8 246.0,170.1 246.3,167.3 246.6,168.9 246.9,164.6 247.3,163.2 247.6,161.3 248.1,164.4 248.6,164.6 249.1,164.7 249.7,164.7 250.2,163.6 250.6,165.9 251.0,165.1 251.6,164.5 252.1,162.8 252.6,158.8 252.9,158.9 252.9,150.5 252.9,147.6 252.9,152.1 252.9,145.7 252.9,143.6 252.9,144.3 252.9,138.1 252.9,136.8 252.9,133.4 252.9,134.9 253.0,138.3 253.0,138.2 253.1,142.2 253.1,134.4 253.2,143.2 253.3,145.9 253.4,144.8 253.5,139.7 253.6,139.8 253.7,139.1 253.9,134.6 254.0,138.6 254.1,139.5 254.2,143.0 254.4,144.8 254.5,146.0 254.6,147.9 254.7,151.4 254.8,152.2 254.9,152.7 255.0,149.5 255.1,146.8 255.2,144.2 255.3,147.2 255.4,148.8 255.6,150.3 255.8,149.1 256.0,148.4 256.2,149.3 256.3,148.9 256.6,147.5 256.8,146.2 256.9,143.0 257.0,150.9 257.2,150.6 257.4,152.9 257.6,156.2 257.8,154.0 258.2,157.0 258.5,155.9 258.8,159.5 258.9,162.3 259.1,159.4 259.3,159.7 259.6,160.5 259.8,166.6 260.0,165.9 260.1,168.0 260.3,167.0 260.4,166.4 260.4,165.2 260.5,163.4 260.6,163.1 260.6,163.1 260.7,162.9 260.9,159.3 261.0,166.9 261.1,166.1 261.2,166.3 261.3,171.0 261.4,169.9 261.5,169.9 261.6,172.7 261.7,172.5 261.8,171.5 262.0,172.2 262.2,167.2 262.4,166.4 262.6,167.6 262.8,171.0 262.9,171.7 263.1,172.5 263.4,172.2 263.6,169.4 263.9,168.4 264.2,173.7 264.5,172.7 264.9,173.3 265.0,169.8 265.3,170.5 265.6,173.1 265.8,177.3 265.9,178.5 266.0,179.2 266.1,178.0 266.3,176.1 266.6,174.7 267.0,179.7 267.2,181.3 267.4,180.0 267.7,180.8 267.9,184.5 268.0,185.9 268.1,184.1 268.3,184.3 268.5,184.1 268.9,185.0 269.1,185.0 269.5,183.7 269.8,182.4 270.2,185.0 270.4,182.0 270.6,180.6 270.9,182.7 271.3,182.2 271.7,185.1 272.2,181.5 272.5,180.3 272.9,177.1 273.3,177.3 273.7,178.1 274.0,179.0 274.2,184.6 274.5,187.2 274.8,184.3 275.4,185.4 275.6,192.8 275.7,190.6 275.9,189.6 276.2,189.2 276.5,184.9 276.8,186.6 277.3,183.7 277.8,186.0 278.3,189.6 278.5,192.1 278.6,191.3 278.9,190.0 279.2,192.4 279.3,198.2 279.4,197.0 279.5,194.8 279.6,192.7 279.9,190.2 280.1,189.4 280.3,186.6 280.5,182.7 280.7,182.8 280.9,178.6 281.0,180.7 281.2,184.5 281.5,186.2 281.7,187.5 281.9,188.7 282.2,191.3 282.4,193.4 282.7,193.3 282.8,198.5 282.9,196.9 283.2,192.2 283.4,189.6 283.7,189.2 283.9,187.7 284.2,193.9 284.4,195.6 284.5,192.8 284.8,194.5 285.2,195.1 285.3,197.6 285.5,198.1 285.8,201.5 286.0,201.8 286.1,206.6 286.2,203.4 286.5,200.5 286.8,198.8 286.9,202.9 287.2,202.0 287.5,202.4 287.7,199.8 287.9,201.7 288.0,200.5 288.1,197.6 288.2,199.7 288.3,198.6 288.4,196.1 288.4,190.1 288.5,189.5 288.5,187.4 288.6,190.8 288.7,189.8 288.7,188.8 288.8,186.1 288.8,187.8 288.9,186.7 289.0,186.0 289.1,182.9 289.2,184.9 289.3,179.4 289.4,179.8 289.6,179.3 289.7,175.8 289.7,173.7 289.8,178.1 289.9,181.2 290.0,182.1 290.1,184.8 290.3,182.5 290.4,185.1 290.5,178.7 290.6,177.8 290.8,178.6 290.9,174.5 291.1,173.9 291.1,173.1 291.3,177.3 291.5,177.1 291.6,175.1 291.9,171.6 292.1,171.9 292.2,172.7 292.4,175.6 292.7,176.4 292.8,180.3 293.1,179.4 293.3,176.6 293.6,176.8 294.0,177.5 294.4,181.1 294.5,185.5 294.7,185.6 295.0,184.0 295.3,183.5 295.6,180.8 296.0,179.6 296.2,176.0 296.6,175.1 296.9,173.2 297.2,176.1 297.4,180.6 297.8,179.3 298.4,181.5 298.9,183.3 299.3,179.9 300.0,180.7 300.5,185.0 300.6,177.3 300.7,185.5 300.8,190.0 301.0,187.8 301.3,184.2 301.5,182.3 301.8,185.1 302.3,187.7 302.7,185.2 303.1,184.4 303.4,182.0 303.7,184.4 304.1,183.0 304.6,186.0 305.0,184.8 305.5,185.6 306.1,185.8 306.6,185.2 307.0,183.9 307.5,184.9 307.9,187.1 308.1,187.1 308.2,190.2 308.4,188.3 308.7,189.7 308.9,192.3 309.0,196.7 309.1,198.1 309.3,195.6 309.3,191.2 309.5,190.0 309.7,188.7 310.0,191.0 310.5,193.1 311.0,193.9 311.6,192.2 312.0,192.1 312.5,189.6 312.9,192.3 313.4,193.0 313.9,191.1 314.2,185.8 314.4,183.8 314.4,183.8 314.5,185.3 314.7,183.9 314.9,184.0 315.2,190.0 315.4,188.0 315.6,186.0 315.7,190.1 315.8,185.7 315.9,191.5 316.0,194.3 316.1,190.8 316.2,192.5 316.3,192.4 316.3,192.1 316.5,189.2 316.6,187.6 316.6,181.8 316.7,178.8 316.7,174.3 316.8,179.1 316.8,176.9 316.9,178.3 316.9,179.1 317.0,181.8 317.1,179.7 317.2,184.9 317.3,183.3 317.4,178.4 317.5,177.1 317.6,174.9 317.7,174.3 317.8,175.5 317.9,177.2 318.1,177.8 318.2,174.2 318.3,175.0 318.5,175.6 318.6,175.0 318.8,181.9 318.9,181.3 319.1,182.9 319.4,176.4 319.7,175.9 319.9,182.7 320.1,185.1 320.2,189.2 320.4,186.0 320.6,184.4 320.9,186.2 321.2,192.8 321.4,192.4 321.7,189.4 321.9,190.2 322.2,188.9 322.6,186.4 323.0,190.5 323.3,188.1 323.6,184.1 324.0,186.0 324.5,183.8 324.9,182.5 325.5,181.5 326.2,184.8 326.9,186.2 327.7,187.7 328.5,185.5 328.9,185.3 329.6,189.1 330.1,192.9 330.9,192.4 331.5,193.5 332.3,192.1 333.3,189.9 334.0,193.1 334.9,186.6 335.5,188.4 336.0,188.3 336.6,187.6 336.9,182.9 337.3,180.8 337.4,179.5 337.6,177.6 337.8,176.8 338.0,175.3 338.4,176.4 338.8,174.0 339.2,176.9 339.5,178.2 340.2,180.9 340.6,178.9 341.1,180.3 341.8,181.0 342.3,178.9 342.7,183.1 343.0,184.4 343.5,185.3 343.7,187.6 344.0,183.9 344.7,184.2 345.3,186.7 345.7,187.4 346.3,186.9 347.2,190.1 347.8,188.4 348.8,188.0 350.0,187.9 351.2,189.6 352.0,192.7 352.5,190.5 353.0,195.1 353.7,192.0 354.5,191.3 355.6,190.5 356.9,188.2 357.8,188.7 358.8,188.4 359.7,184.9 360.4,184.7 361.0,184.1 361.7,186.6 362.6,185.1 363.5,183.6 364.2,183.5 364.9,182.3 365.6,185.9 366.6,185.2 367.8,185.3 368.5,182.2 369.0,180.4 369.6,182.7 370.4,181.8 371.1,181.6 371.5,180.9 371.8,184.3 372.2,187.5 372.4,191.3 372.7,188.2 373.1,186.9 373.2,184.1 373.5,187.8 374.0,185.7 374.7,186.7 375.2,186.4 375.9,183.4 376.4,182.1 377.0,184.3 377.3,189.7 377.5,192.3 377.7,191.5 378.1,189.4 378.5,192.4 379.2,190.7 379.5,192.7 379.7,193.6 380.2,192.8 380.7,197.9 380.8,194.6 380.9,192.1 381.2,193.6 381.4,193.1 381.8,191.8 382.0,193.6 382.2,190.1 382.4,190.7 382.5,195.6 382.7,198.0 382.9,194.2 382.9,191.0 383.0,188.2 383.2,188.9 383.4,186.1 383.6,189.4 383.9,187.1 384.2,183.1 384.4,179.4 384.5,181.5 384.9,179.2 385.0,175.7 385.2,177.4 385.5,172.3 385.7,174.6 385.9,179.5 386.3,180.9 386.6,182.1 387.0,180.2 387.5,176.8 388.0,175.8 388.7,178.9 389.1,182.5 389.7,184.8 390.2,184.6 390.5,191.1 390.7,192.0 391.1,191.2 391.4,188.3 391.6,194.3 391.8,195.0 392.0,194.2 392.1,193.1 392.4,193.3 392.8,193.9 393.3,195.2 393.8,195.8 394.3,198.2 394.8,195.8 395.2,194.8 395.8,192.8 396.4,195.0 396.9,197.3 397.3,196.8 397.7,198.8 398.0,199.1 398.2,203.5 398.3,205.3 398.4,203.5 398.5,199.7 398.5,198.6 398.6,194.9 398.8,195.8 398.9,193.4 399.0,194.7 399.2,193.9 399.4,190.3 399.5,187.9 399.6,188.4 399.8,188.8 399.9,188.5 400.0,188.3 400.2,187.8 400.3,185.7 400.5,186.6 400.7,183.3 400.8,183.3 401.0,184.2 401.3,185.8 401.5,187.9 401.8,191.4 401.9,195.3 402.1,194.3 402.3,192.1 402.7,188.8 403.0,188.6 403.2,191.8 403.6,191.0 404.0,189.0 404.5,190.6 405.0,188.6 405.4,192.6 405.9,193.9 406.2,194.9 406.5,197.7 406.9,201.1 407.1,198.8 407.4,199.0 407.9,197.9 408.5,201.7 409.3,201.4 409.7,200.2 410.1,199.5 410.7,198.7 411.2,203.5 411.8,200.1 412.7,201.2 413.2,200.3 414.0,200.6 414.4,198.7 415.1,195.0 415.3,191.0 415.5,186.8 415.7,188.5 416.0,190.2 416.3,189.4 416.6,191.2 417.1,191.2 417.5,191.4 418.3,191.5 419.0,189.3 419.6,188.4 420.1,188.6 420.3,188.2 420.5,191.7 420.7,186.9 421.0,188.4 421.7,192.1 422.4,190.5 423.1,190.2 423.7,191.9 424.3,190.8 424.9,187.1 424.9,187.8 425.0,188.1 425.1,186.8 425.3,187.3 425.5,189.6 425.8,187.4 426.0,182.9 426.1,179.5 426.2,178.8 426.3,179.7 426.4,180.6 426.5,182.7 426.7,186.6 426.8,186.9 427.0,189.7 427.1,188.3 427.3,182.7 427.5,183.0 427.6,182.1 427.7,175.9 427.8,174.4 427.9,174.2 428.0,175.6 428.1,177.8 428.3,175.8 428.4,173.6 428.6,175.6 428.8,173.7 429.1,177.3 429.3,181.1 429.5,181.1 429.8,182.1 430.1,180.7 430.3,180.5 430.6,180.8 431.0,178.4 431.4,180.2 431.8,175.9 432.0,176.3 432.2,174.0 432.5,172.1 432.5,170.1 432.7,172.4 432.9,175.3 433.1,178.5 433.3,176.2 433.5,174.9 433.8,175.9 434.3,174.7 434.8,171.8 434.9,163.9 434.9,155.9 434.9,155.7 434.9,145.6 434.9,150.6 434.9,155.6 434.9,162.4 435.0,157.7 435.0,151.3 435.1,155.1 435.2,154.8 435.3,155.0 435.4,154.8 435.6,152.6 435.7,155.2 435.9,152.9 436.0,154.4 436.2,156.7 436.4,160.7 436.6,164.7 436.8,163.5 437.0,160.7 437.1,159.8 437.2,159.1 437.3,160.4 437.6,160.5 437.8,159.8 438.0,161.0 438.3,161.6 438.7,163.3 438.9,167.2 439.2,166.9 439.5,163.7 439.7,163.9 440.2,164.5 440.3,168.9 440.8,164.6 441.2,163.0 441.6,161.5 441.9,165.1 442.4,167.7 442.8,170.1 443.1,171.4 443.4,173.2 443.7,173.6 444.1,177.5 444.5,178.7 444.7,175.3 445.0,174.0 445.5,173.8 446.0,173.7 446.6,172.2 447.3,176.0 447.8,175.6 448.3,174.4 448.9,177.2 449.1,176.0 449.4,176.7 449.8,178.8 450.0,183.5 450.3,180.9 450.8,182.2 451.1,178.1 451.6,178.4 452.2,180.4 452.6,180.6 453.0,183.7 453.3,179.0 453.4,178.4 453.6,178.6 453.7,176.9 453.8,174.7 454.0,175.5 454.0,171.9 454.1,170.1 454.2,176.0 454.3,176.9 454.3,177.9 454.5,173.6 454.6,172.8 454.7,172.4 454.8,175.2 455.0,174.5 455.1,177.2 455.3,175.9 455.5,171.5 455.6,168.2 455.8,166.3 455.9,165.2 455.9,159.1 456.0,155.2 456.0,155.6 456.1,160.0 456.1,161.2 456.2,157.3 456.2,153.6 456.3,150.0 456.3,145.7 456.3,148.2 456.4,151.5 456.4,149.8 456.5,155.6 456.5,156.9 456.6,155.3 456.7,158.2 456.8,156.3 456.9,157.5 456.9,162.7 457.0,165.5 457.1,166.0 457.2,168.5 457.2,172.7 457.3,171.8 457.5,169.9 457.6,175.6 457.7,172.1 457.9,171.9 458.0,177.2 458.2,171.1 458.3,176.6 458.4,180.8 458.5,180.6 458.6,179.7 458.8,175.9 458.9,177.3 459.1,178.5 459.2,174.7 459.4,174.4 459.4,170.7 459.5,175.4 459.8,171.8 460.0,174.7 460.1,173.4 460.2,169.1 460.3,170.5 460.5,175.2 460.7,173.4 460.8,173.0 461.0,173.6 461.2,172.2 461.5,173.2 461.8,172.1 462.2,176.3 462.4,174.1 462.7,172.2 463.0,172.5 463.4,174.5 463.6,169.3 464.0,169.6 464.3,169.9 464.7,172.4 465.0,174.7 465.3,174.9 465.5,176.4 465.8,170.2 466.2,175.8 466.5,175.7 466.7,179.9 467.0,181.1 467.2,183.1 467.4,180.0 467.6,186.6 467.7,184.5 467.9,186.0 468.2,186.1 468.4,190.5 468.6,194.6 468.7,192.1 468.8,193.9 469.1,194.2 469.4,190.6 469.7,189.1 470.0,189.1 470.4,186.3 470.9,187.5 471.3,187.6 471.8,186.9 472.2,189.4 472.6,189.8 473.1,186.1 473.4,183.3 473.8,185.3 474.1,184.0 474.5,184.9 475.1,185.3 475.6,183.5 475.7,179.9 475.9,177.5 476.2,176.8 476.5,176.4 476.9,177.0 477.3,172.0 477.5,172.2 477.8,173.2 478.2,176.4 478.6,173.8 478.7,178.4 478.8,183.7 478.9,182.7 479.0,185.3 479.2,182.8 479.4,181.5 479.8,182.1 480.1,180.1 480.3,181.7 480.6,179.6 480.9,178.8 481.1,181.1 481.3,182.2 481.4,182.5 481.4,185.4 481.5,185.6 481.6,187.3 481.7,182.7 481.8,181.9 481.9,183.7 482.1,182.4 482.2,184.6 482.3,187.9 482.4,190.2 482.6,188.7 482.7,191.2 482.7,195.5 482.8,196.5 482.9,196.6 483.0,188.4 483.0,192.0 483.1,192.9 483.3,189.8 483.5,190.8 483.7,194.5 483.8,188.0 484.0,187.7 484.3,189.4 484.5,189.8 484.7,188.7 484.9,186.0 485.1,186.1 485.2,190.8 485.4,191.3 485.5,197.0 485.8,195.8 486.0,197.1 486.1,197.6 486.3,199.1 486.5,202.3 486.7,197.6 486.9,198.3 487.0,200.8 487.2,200.0 487.4,196.4 487.6,193.9 487.7,192.5 487.9,195.5 488.1,195.6 488.3,194.0 488.6,196.4 488.8,194.5 489.3,193.8 489.9,194.9 490.3,195.1 490.7,193.9 491.4,193.3 492.1,193.7 492.7,195.3 493.4,194.0 493.9,196.5 494.5,193.9 494.9,196.7 495.3,194.0 495.9,190.4 496.4,193.4 496.9,197.6 497.4,196.0 497.7,198.0 498.0,198.3 498.5,195.6 498.9,192.3 499.2,193.5 499.9,191.8 500.7,192.2 501.2,194.6 501.9,193.0 502.4,192.0 503.1,191.6 503.9,194.9 504.7,195.6 505.4,194.9 506.0,194.5 506.9,195.6 507.7,196.0 508.1,198.1 508.8,197.7 508.9,195.2 509.0,195.1 509.2,196.5 509.4,197.1 509.6,196.6 509.8,196.7 509.9,202.5 509.9,210.7 509.9,211.6 509.9,209.6 509.9,208.9 510.0,210.8 510.1,213.9 510.1,215.2 510.2,213.8 510.2,214.4 510.3,213.6 510.4,216.8 510.5,215.7 510.6,213.6 510.6,213.7 510.7,211.0 510.9,208.9 511.0,205.6 511.2,206.4 511.4,205.2 511.6,203.7 511.9,206.1 512.1,208.1 512.4,206.5 512.7,206.6 513.0,202.9 513.3,201.5 513.6,202.6 514.1,203.1 514.5,204.9 514.8,200.1 515.3,201.0 515.6,201.2 515.8,198.1 516.0,196.9 516.2,194.5 516.4,192.6 516.7,193.4 517.3,192.4 517.7,192.9 518.0,193.9 518.7,192.9 519.3,190.7 520.0,193.3 520.9,194.4 521.7,193.4 522.7,194.7 523.8,194.7 524.8,192.8 525.6,190.6 526.4,187.6 527.3,190.4 528.0,191.4 529.0,190.8 529.8,187.6 530.4,187.8 531.1,187.3 532.0,189.0 532.8,191.4 533.9,188.7 534.8,187.7 535.1,185.4 535.5,187.1 536.2,187.0 536.7,185.2 537.2,185.2 537.7,187.4 538.1,185.2 538.7,186.8 539.1,188.0 539.4,190.7 539.9,190.5 540.6,191.2 541.8,190.4 543.0,190.9 544.1,192.7 545.0,192.8 545.8,195.5 546.4,194.2 547.5,193.7 548.1,192.0 548.7,196.1 548.9,195.5 549.6,197.5 550.2,196.4 550.9,196.3 551.8,194.1 552.8,194.9 554.0,194.5 555.4,195.4 556.5,196.3 557.7,196.5 558.7,196.4 559.6,198.1 560.9,197.8 562.3,197.9 563.1,199.6 563.6,198.5 564.1,196.4 564.7,199.4 565.1,197.6 565.9,198.3 566.3,195.9 567.0,198.4 567.5,197.3 568.2,196.4 568.7,191.7 569.1,190.1 569.7,193.4 570.4,197.8 571.2,194.8 572.2,194.4 573.1,192.3 573.9,196.7 574.1,200.9 574.3,201.3 574.3,207.0 574.4,206.3 574.5,210.9 574.5,210.4 574.7,211.0 574.8,215.1 574.8,216.3 574.8,219.7 574.9,218.8 575.0,221.1 575.0,223.2 575.0,231.3 575.0,241.4 575.1,245.6 575.1,250.7 575.1,262.1 575.1,270.9 575.1,279.0 575.1,270.7 575.1,258.9 575.1,252.3 575.1,248.2 575.1,249.1 575.1,247.0 575.2,249.7 575.2,252.1 575.2,250.9 575.2,250.3 575.2,251.0 575.2,252.9 575.3,253.8 575.3,253.5 575.3,254.9 575.3,257.2 575.4,256.9 575.4,250.9 575.4,251.7 575.4,256.5 575.5,257.0 575.5,251.2 575.5,255.7 575.6,255.3 575.6,254.1 575.6,259.3 575.6,261.3 575.7,259.6 575.7,263.6 575.7,263.7 575.7,260.8 575.8,261.9 575.8,261.9 575.8,259.7 575.9,256.4 575.9,258.8 576.0,255.9 576.0,257.5 576.1,258.5 576.2,259.7 576.3,256.6 576.3,256.4 576.4,253.8 576.6,255.2 576.6,258.1 576.7,261.1 576.7,260.1 576.8,258.2 576.9,255.5 576.9,257.1 577.0,262.9 577.0,263.3 577.1,263.2 577.2,264.0 577.4,263.1 577.5,261.1 577.7,260.1 577.9,259.2 578.2,258.1 578.5,259.3 578.9,257.4 579.3,258.7 579.7,257.6 580.0,257.7 580.5,259.2 580.9,260.7 581.2,263.2 581.4,263.0 581.7,264.7 582.0,267.6 582.3,266.4 582.6,264.9 582.9,267.7 583.4,267.7 583.8,265.9 584.2,266.7 584.5,267.9 584.7,264.5 584.9,263.5 585.1,262.8 585.3,261.1 585.6,263.3 585.9,264.2 586.4,263.9 586.9,265.4 587.5,266.4 588.1,266.7 588.4,264.9 588.9,269.1 588.9,270.5 589.2,269.9 589.5,269.0 590.0,269.2 590.4,269.9 590.8,268.7 591.2,270.8 591.4,272.4 591.7,270.5 592.0,271.1 592.4,268.9 592.6,271.8 593.0,270.7 593.4,269.6 593.7,267.9 594.0,263.1 594.1,264.7 594.3,264.4 594.5,260.2 594.6,260.9 594.8,261.0 595.2,261.5 595.5,263.5 595.9,264.3 596.3,263.5 596.7,263.3 597.2,260.6 597.7,261.3 598.3,260.4 598.7,262.7 599.2,261.4 599.6,263.1 600.3,264.4 600.6,267.9 600.9,265.4 601.5,267.4 601.6,267.5 601.8,267.1 602.1,264.5 602.4,264.8 602.7,264.1 603.2,269.2 603.5,267.3 603.8,268.8 604.0,267.5 604.2,264.1 604.6,267.3 605.1,270.2 605.5,270.5 605.8,266.1 606.3,267.8 606.8,269.3 607.1,267.3 607.7,268.0 608.3,269.0 608.5,268.0 608.6,269.6 608.9,270.2 609.1,270.8 609.3,270.8 609.6,268.8 609.9,271.2 609.9,273.0 610.1,267.5 610.2,269.9 610.4,270.0 610.6,271.1 611.0,271.1 611.3,272.6 611.6,276.5 611.8,275.2 612.0,275.7 612.1,278.3 612.3,276.3 612.5,277.5 612.5,280.2 612.7,280.6 612.8,279.6 613.0,276.7 613.3,278.0 613.6,279.6 613.9,279.4 614.3,279.1 614.6,279.6 615.1,280.9 615.5,279.5 616.1,281.3 616.3,282.2 616.8,282.0 617.1,281.9 617.6,282.6 617.8,285.7 618.1,285.7 618.4,283.0 618.7,286.3 619.1,285.3 619.3,285.1 619.4,282.1 619.5,277.4 619.6,277.6 619.6,277.8 619.7,279.2 619.8,276.8 619.9,278.4 620.0,279.9 620.0,278.3 620.1,283.1 620.1,279.9 620.2,280.6 620.3,283.1 620.4,280.7 620.5,283.0 620.6,284.0 620.7,285.2 620.9,285.3 621.0,282.4 621.2,282.4 621.3,279.8 621.5,281.8 621.7,285.4 621.9,287.1 621.9,291.3 622.1,287.4 622.3,287.4 622.5,285.9 622.8,286.6 622.9,287.6 623.1,290.4 623.3,287.9 623.5,287.4 623.8,290.0 624.1,289.1 624.4,290.2 624.6,286.1 625.0,288.8 625.3,289.9 625.7,288.3 626.0,288.6 626.3,286.5 626.7,285.8 627.1,288.5 627.6,290.5 628.1,289.9 628.6,294.3 628.6,301.1 628.6,300.9 628.7,296.8 628.8,294.3 628.9,293.7 629.2,296.0 629.4,296.1 629.6,296.1 629.8,296.6 630.1,297.7 630.4,295.2 630.6,296.0 630.8,294.9 631.0,290.1 631.2,289.3 631.2,284.9 631.3,286.6 631.6,285.7 631.8,286.1 632.1,285.2 632.5,287.7 632.8,284.0 633.3,286.8 633.7,285.2 634.4,285.8 634.9,284.9 635.8,284.9 636.4,283.4 636.8,281.8 637.0,282.3 637.7,283.1 638.4,284.5 638.9,284.2 639.4,285.7 639.7,286.3 640.2,288.4 640.5,289.4 641.0,287.9 641.3,288.1 641.8,288.0 642.4,287.9 643.1,290.8 643.7,291.1 644.0,295.4 644.1,297.8 644.3,298.9 644.4,301.2 644.5,301.6 644.6,300.2 644.8,299.5 645.1,298.0 645.3,293.7 645.7,293.3 645.9,294.3 646.1,297.5 646.4,297.0 646.5,295.2 646.5,290.6 646.6,287.1 646.6,284.9 646.7,284.8 646.8,287.0 646.9,286.5 647.0,283.6 647.1,282.7 647.1,283.7 647.2,283.9 647.3,283.2 647.4,283.3 647.5,282.4 647.7,282.4 647.8,282.0 647.8,279.5 647.9,277.5 648.0,280.7 648.1,284.1 648.3,283.0 648.5,283.5 648.7,283.1 648.9,286.1 649.1,291.0 649.2,288.9 649.4,294.1 649.4,297.1 649.5,299.2 649.5,301.6 649.6,296.5 649.7,298.8 649.8,304.1 649.8,301.7 649.9,300.8 650.0,301.6 650.1,304.2 650.1,306.0 650.2,303.5 650.2,304.0 650.4,303.3 650.4,304.9 650.5,303.5 650.6,302.3 650.7,303.8 650.8,303.9 650.9,301.5 651.1,301.8 651.2,299.1 651.3,297.9 651.5,299.6 651.6,298.5 651.7,297.5 651.9,296.6 652.0,295.5 652.2,293.4 652.3,295.1 652.6,294.7 652.7,288.5 652.7,284.5 652.7,285.6 652.7,283.4 652.8,282.0 652.8,280.2 652.9,278.4 652.9,277.6 653.0,275.5 653.1,275.7 653.1,277.7 653.2,273.4 653.3,276.0 653.4,276.0 653.5,277.8 653.6,278.2 653.6,280.7 653.7,282.4 653.8,283.8 653.9,282.3 654.1,281.4 654.3,277.0 654.4,275.9 654.6,274.9 654.8,274.1 655.1,277.4 655.5,276.5 655.9,276.3 656.3,279.6 656.9,281.3 657.3,281.5 657.6,284.3 657.8,284.3 658.0,282.5 658.5,280.3 659.0,276.9 659.4,276.4 660.0,277.5 660.5,276.1 661.1,277.2 661.6,277.5 662.0,281.5 662.8,280.2 663.7,279.0 664.5,280.1 665.1,280.2 665.7,278.4 666.3,280.6 667.0,280.9 667.6,280.7 668.2,277.5 668.8,278.5 669.5,276.7 670.1,278.6 670.9,280.5 671.4,279.8 672.1,279.9 673.0,281.3 673.5,281.7 673.7,283.7 674.0,284.6 674.3,284.6 674.6,286.1 674.7,289.3 674.8,287.5 674.9,291.0 675.1,289.8 675.2,289.7 675.4,287.8 675.6,291.9 675.7,293.0 675.8,290.7 676.0,286.3 676.2,288.7 676.5,288.2 676.7,286.5 677.0,287.1 677.3,285.7 677.6,284.2 678.0,287.9 678.4,285.0 678.7,285.9 679.1,284.6 679.5,285.5 680.0,287.3 680.5,283.7 681.0,285.4 681.6,287.9 682.2,287.2 682.9,290.2 683.5,288.1 684.3,289.4 684.9,290.0 685.7,289.3 686.2,289.9 686.8,288.9 687.3,286.9 687.8,285.7 688.4,287.4 689.3,284.5 690.4,284.6 691.0,284.4 691.9,286.3 692.6,285.6 693.0,287.2 693.5,287.7 694.1,287.9 694.9,287.2 695.4,291.3 695.9,290.4 696.5,291.0 697.0,290.2 697.7,290.4 698.3,289.1 699.3,289.3 700.1,291.2 701.1,291.1 701.8,292.3 702.2,293.2 702.3,296.5 702.4,299.5 702.4,298.4 702.6,298.2 702.7,295.9 702.9,294.5 703.1,297.8 703.2,292.2 703.4,293.1 703.6,290.0 703.7,286.1 703.9,287.5 704.0,285.0 704.2,286.3 704.4,289.2 704.6,284.5 704.7,282.8 704.9,281.7 705.1,285.7 705.4,284.3 705.6,279.2 705.6,278.8 705.7,276.1 705.9,279.6 706.2,283.3 706.4,281.4 706.8,281.3 707.0,281.3 707.4,285.2 707.7,288.8 707.9,287.9 708.0,289.6 708.3,290.3 708.7,289.5 709.1,291.8 709.2,295.0 709.5,294.4 709.7,291.8 710.4,291.8 711.0,291.1 711.9,290.5 712.9,291.0 713.9,292.3 715.0,294.0 716.1,291.5 717.1,288.7 718.0,290.1 719.4,290.6 720.9,290.9 722.1,291.5 723.7,291.4 725.8,291.7 726.7,291.7 728.3,290.9 729.2,293.1 729.7,292.8 730.9,290.9 731.7,292.9 732.3,295.0 733.4,292.5 735.4,293.9 736.7,293.0 738.7,293.0 739.8,291.7 741.1,292.1 742.2,291.3 743.0,292.0 744.2,291.8 744.8,296.3 745.6,296.5 746.9,295.5 747.9,294.5 748.5,295.0 749.2,298.7 750.1,296.6 750.7,299.6 751.1,299.1 752.0,296.6 752.7,296.2 753.3,295.2 754.2,296.5 754.9,298.1 755.5,297.4 756.3,298.6 757.0,299.0 757.3,300.0 757.7,301.5 758.3,299.2 758.9,301.4 759.2,304.3 759.2,306.7 759.2,307.5 759.2,308.0 759.2,314.8 759.3,313.2 759.3,312.7 759.4,314.3 759.4,314.3 759.4,315.9 759.5,315.2 759.6,315.5 759.7,314.2 759.8,314.3 759.9,312.6 760.2,310.8 760.4,312.9 760.6,313.7 760.9,315.0 761.2,312.2 761.6,314.0 761.7,315.1 761.8,314.9 762.0,318.1 762.1,318.8 762.2,318.9 762.3,318.5 762.5,318.2 762.7,318.8 762.9,322.8 763.0,322.8 763.1,327.2 763.1,326.0 763.2,325.7 763.3,325.7 763.4,324.8 763.6,327.6 763.6,328.5 763.7,328.5 763.8,325.8 763.9,326.1 764.0,325.9 764.2,325.8 764.4,328.7 764.7,328.5 764.8,326.2 764.9,324.9 765.1,324.6 765.4,324.4 765.7,324.0 766.0,323.1 766.4,325.2 766.8,324.5 767.2,323.5 767.3,322.4 767.6,321.4 767.8,321.9 768.2,320.2 768.5,320.0 768.7,317.9 769.1,318.4 769.4,316.1 769.6,309.6 769.7,308.7 769.9,308.5 770.1,309.2 770.4,309.3 770.7,310.0 771.0,309.0 771.4,308.4 771.9,307.5 772.3,310.2 772.8,311.9 773.2,308.9 773.4,305.1 773.9,306.4 774.6,305.7 775.5,306.6 776.2,304.8 776.8,305.6 777.4,305.2 778.0,303.9 778.1,302.3 778.7,306.4 779.2,308.5 779.8,310.8 780.5,308.7 781.6,308.6 782.4,307.0 783.4,308.6 783.9,305.9 784.5,307.0 784.8,308.7 785.1,309.4 785.1,302.6 785.2,302.5 785.3,304.0 785.4,305.1 785.6,302.9 785.8,301.4 785.8,301.3 785.9,299.4 786.1,304.5 786.3,306.2 786.4,309.0 786.6,308.0 786.8,306.9 786.9,307.0 787.2,306.5 787.3,303.9 787.4,305.3 787.7,305.5 787.8,302.6 788.1,304.9 788.3,306.9 788.5,309.1 788.8,307.0 789.1,305.9 789.5,304.8 789.7,302.0 790.0,304.1 790.2,302.6 790.6,304.8 791.2,305.0 791.9,306.4 792.3,308.2 793.1,305.5 793.3,301.6 793.7,302.8 794.6,304.5 795.3,305.4 796.2,307.5 797.5,306.4 798.0,302.8 798.6,304.4 799.5,303.6 800.4,305.6 801.0,304.8 802.0,308.4 803.3,308.3 804.1,308.7 805.2,306.9 806.0,307.7 806.9,309.3 807.8,307.9 808.9,307.3 810.1,307.4 811.2,308.4 812.0,310.5 812.4,308.7 812.8,311.9 812.9,312.0 813.1,312.9 813.4,310.8 813.6,311.6 813.9,310.4 814.2,307.2 814.4,305.3 814.5,302.2 814.6,300.9 814.8,302.0 814.9,301.2 815.2,300.4 815.5,301.6 815.7,306.8 815.8,309.1 816.0,309.7 816.2,309.1 816.4,312.0 816.7,311.0 816.9,310.9 817.3,309.5 817.6,309.1 817.8,305.4 818.0,307.6 818.4,309.7 818.8,309.0 819.2,307.1 819.3,302.8 819.5,302.7 819.8,305.4 819.9,301.7 820.2,302.7 820.4,304.0 820.7,306.7 821.0,308.1 821.4,308.0 821.9,307.7 822.5,308.6 823.0,306.2 823.5,307.4 824.0,307.7 824.4,311.1 824.8,308.3 825.1,309.2 825.6,310.3 826.2,309.2 826.6,309.6 827.3,310.0 828.0,310.0 828.6,312.7 829.1,311.9 829.8,312.3 830.5,310.2 831.0,307.3 831.5,308.6 832.1,311.2 832.7,311.6 833.3,311.9 834.0,313.6 834.6,312.4 834.9,309.0 835.3,309.4 836.0,310.9 836.8,312.0 837.2,308.6 837.4,306.0 837.6,308.5 837.9,309.2 838.4,311.0 838.8,310.1 839.2,310.2 839.6,310.6 840.1,314.1 840.3,312.5 840.4,314.4 840.6,316.7 840.8,315.5 840.9,316.1 841.1,319.4 841.1,320.9 841.3,319.6 841.5,317.2 841.8,318.4 842.1,320.7 842.5,317.6 842.8,319.6 843.2,317.7 843.7,319.9 844.0,318.0 844.1,315.1 844.3,318.1 844.7,316.3 845.2,317.9 845.5,317.6 845.5,315.5 845.8,317.8 846.0,317.7 846.1,317.7 846.3,316.5 846.6,315.8 846.9,315.2 847.1,314.6 847.3,317.3 847.7,318.3 847.8,322.6 847.9,318.5 848.0,319.2 848.3,320.0 848.7,317.8 849.2,321.0 849.7,316.7 850.2,317.4 850.6,317.6 851.1,318.8 851.4,318.8 851.7,320.9 852.1,323.2 852.3,322.7 852.6,322.6 852.8,326.6 853.0,324.6 853.3,324.7 853.6,325.1 854.0,324.0 854.1,331.4 854.1,334.2 854.1,332.9 854.2,331.3 854.3,332.2 854.4,333.5 854.5,333.6 854.7,331.7 854.9,329.8 855.2,332.1 855.7,331.7 856.1,333.7 856.4,332.7 857.0,331.8 857.7,331.9 858.6,332.3 859.3,330.6 860.3,330.1 860.7,332.5 861.1,330.4 862.0,330.7 863.0,332.4 863.9,334.5 864.3,335.3 864.7,337.3 865.4,335.7 865.9,337.1 866.5,334.4 867.2,333.9 867.8,333.7 867.9,335.6 868.1,336.8 868.2,336.9 868.3,341.3 868.3,340.6 868.4,345.1 868.4,347.9 868.5,346.5 868.5,349.7 868.5,348.7 868.6,351.0 868.6,352.3 868.6,353.2 868.7,356.9 868.7,360.7 868.7,355.9 868.7,357.4 868.7,356.9 868.8,357.4 868.8,355.7 868.8,352.7 868.9,353.7 868.9,352.5 869.0,353.2 869.1,355.6 869.2,356.8 869.2,359.4 869.3,361.1 869.3,358.0 869.4,358.2 869.5,356.4 869.5,354.7 869.6,356.3 869.7,355.8 869.8,353.5 869.9,352.3 870.1,352.7 870.2,353.6 870.3,354.0 870.4,351.5 870.6,349.5 870.7,346.8 870.8,344.3 871.0,343.9 871.1,341.5 871.3,345.3 871.5,348.4 871.7,350.4 871.9,348.9 872.0,348.3 872.2,354.1 872.3,353.9 872.5,355.2 872.6,352.3 872.8,354.3 872.9,357.5 873.0,357.0 873.1,356.4 873.3,356.5 873.4,356.5 873.6,352.7 873.7,352.1 874.0,351.4 874.3,353.8 874.7,352.3 875.0,352.9 875.2,350.3 875.4,348.9 875.6,348.1 875.9,348.0 876.3,347.7 877.0,347.7 877.9,349.7 878.6,347.3 879.0,344.9 879.4,345.7 879.8,344.8 880.3,342.6 880.5,343.0 880.7,348.2 880.7,347.0 880.7,349.8 880.7,351.7 880.8,367.5 880.8,361.3 880.8,358.0 880.8,355.8 880.8,356.6 880.8,355.3 880.9,356.0 880.9,355.2 881.0,351.9 881.1,353.4 881.2,357.5 881.3,358.7 881.4,359.9 881.4,359.7 881.5,362.0 881.5,362.8 881.6,365.3 881.7,364.4 881.7,362.3 881.8,358.2 882.0,357.8 882.2,359.3 882.4,357.3 882.5,355.6 882.8,355.6 883.1,358.0 883.4,358.4 883.7,356.5 883.9,353.1 884.1,354.9 884.6,354.5 885.0,354.7 885.6,354.5 886.1,358.6 886.3,360.9 886.5,363.4 886.7,362.8 886.9,361.3 887.0,356.0 887.2,353.5 887.5,358.0 888.0,355.9 888.3,356.0 888.6,357.3 888.9,358.2 889.2,357.2 889.6,357.3 889.9,357.7 890.1,361.1 890.4,360.1 890.7,358.4 891.1,360.6 891.6,358.6 892.2,358.7 892.5,354.1 892.7,354.7 893.1,358.4 893.6,358.0 894.0,358.6 894.3,361.1 894.4,359.3 894.5,359.7 894.7,360.7 895.0,358.5 895.3,358.6 895.5,358.5 895.5,358.2 895.6,359.3 895.7,357.5 895.8,355.2 895.8,357.2 896.0,359.0 896.1,358.4 896.2,356.4 896.4,358.8 896.5,362.6 896.6,365.2 896.6,368.2 896.7,362.7 896.8,359.4 896.8,359.7 897.0,360.7 897.2,360.8 897.3,359.6 897.5,359.5 897.7,361.1 897.8,358.1 897.9,354.7 898.0,355.9 898.2,357.6 898.4,359.6 898.6,360.6 898.8,358.1 898.9,356.4 899.1,357.8 899.4,359.0 899.6,359.2 899.8,365.1 899.9,368.8 899.9,371.0 899.9,374.9 900.0,370.1 900.1,367.3 900.1,367.9 900.2,366.4 900.3,360.2 900.4,359.0 900.4,357.1 900.5,358.1 900.5,354.7 900.6,353.1 900.7,353.1 900.8,352.3 900.9,353.2 901.1,351.6 901.2,354.4 901.4,354.6 901.6,355.9 901.8,354.7 901.9,358.9 902.1,356.8 902.2,359.5 902.3,360.1 902.4,359.1 902.5,363.8 902.6,362.8 902.7,362.0 902.9,363.2 903.0,363.4 903.2,362.4 903.3,360.1 903.6,362.6 903.9,361.9 904.2,363.0 904.6,364.8 905.3,362.6 905.8,364.4 906.4,362.5 906.9,362.5 907.6,362.6 908.3,364.7 909.0,365.4 909.5,363.3 910.2,367.5 910.8,368.6 911.7,367.0 912.5,368.3 913.0,369.1 913.7,370.3 913.9,373.6 914.4,371.1 915.0,371.9 915.2,375.1 915.6,373.2 915.9,377.0 916.0,377.3 916.2,378.7 916.3,381.1 916.4,382.6 916.4,381.6 916.5,381.8 916.6,379.7 916.8,379.0 917.2,380.3 917.4,377.8 918.0,380.6 918.5,378.4 919.1,378.0 919.8,377.7 920.4,378.1 920.8,378.2 921.2,379.8 921.6,379.7 922.0,380.5 922.2,381.2 922.5,381.4 922.7,384.0 922.8,384.4 922.9,387.6 922.9,390.6 923.0,393.0 923.0,395.7 923.0,397.3 923.0,397.5 923.0,397.6 923.1,398.8 923.1,399.5 923.1,400.1 923.1,397.9 923.2,399.5 923.2,402.6 923.2,403.6 923.2,402.7 923.3,402.7 923.3,403.4 923.4,400.6 923.4,400.6 923.5,397.7 923.7,395.5 923.7,394.1 923.8,392.2 924.0,394.1 924.1,395.6 924.3,392.1 924.5,393.7 924.7,396.5 924.9,397.4 925.0,400.0 925.1,398.0 925.1,396.7 925.2,392.2 925.2,390.8 925.2,389.8 925.3,392.5 925.4,394.3 925.6,395.0 925.7,398.2 925.8,396.8 925.8,398.9 925.9,402.3 926.0,399.9 926.1,399.8 926.1,403.4 926.1,404.8 926.2,410.0 926.2,410.6 926.2,419.8 926.2,422.8 926.2,416.9 926.2,413.6 926.2,411.1 926.2,411.4 926.2,410.1 926.3,410.3 926.3,410.0 926.3,411.5 926.4,413.6 926.4,412.7 926.4,413.2 926.5,414.0 926.5,412.8 926.6,413.7 926.6,416.8 926.6,417.2 926.6,412.1 926.7,413.2 926.8,413.3 926.8,414.3 926.8,415.4 926.9,417.1 926.9,416.1 927.0,414.3 927.1,414.3 927.2,414.8 927.3,413.8 927.4,415.8 927.5,416.9 927.5,415.6 927.6,416.2 927.8,419.0 927.8,422.1 927.9,423.1 927.9,424.8 927.9,423.2 927.9,430.5 927.9,438.6 927.9,431.2 928.0,426.7 928.0,424.7 928.0,420.1 928.0,417.9 928.0,418.8 928.0,417.4 928.1,417.4 928.1,418.1 928.1,417.4 928.2,420.0 928.2,416.1 928.3,415.9 928.3,416.2 928.4,414.6 928.4,414.3 928.4,411.5 928.5,412.3 928.6,409.8 928.6,413.1 928.7,414.7 928.8,413.6 928.9,416.2 929.0,418.1 929.1,418.3 929.2,416.5 929.3,416.3 929.4,416.3 929.6,416.6 929.8,417.9 929.8,414.7 930.0,419.7 930.1,421.2 930.3,417.0 930.5,417.4 930.6,413.8 930.7,415.5 930.9,415.7 931.0,415.2 931.2,412.5 931.3,409.2 931.4,410.1 931.6,409.9 931.8,409.7 932.0,411.8 932.4,411.8 932.9,411.1 933.2,409.9 933.3,405.1 933.3,401.3 933.4,402.4 933.5,400.4 933.7,402.9 933.9,402.0 934.0,401.8" fill="none" stroke="#d97706" stroke-width="1.2" stroke-linejoin="round" opacity="0.6"/><text x="942" y="472.0" text-anchor="start" font-size="11" fill="#d97706">0.95</text><text x="942" y="396.0" text-anchor="start" font-size="11" fill="#d97706">1.18</text><text x="942" y="320.0" text-anchor="start" font-size="11" fill="#d97706">1.41</text><text x="942" y="244.0" text-anchor="start" font-size="11" fill="#d97706">1.64</text><text x="942" y="168.0" text-anchor="start" font-size="11" fill="#d97706">1.87</text><text x="942" y="92.0" text-anchor="start" font-size="11" fill="#d97706">2.10</text><text x="942" y="80.0" text-anchor="start" font-size="11" font-weight="600" fill="#d97706">price</text>
  <polygon points="124.3,468.0 124.3,437.4 124.3,428.9 164.5,418.1 210.0,422.7 216.6,404.3 230.0,410.2 233.1,418.1 286.1,386.7 434.9,364.2 438.9,373.9 456.3,386.7 457.1,403.9 575.0,335.7 621.9,299.0 653.0,314.7 675.6,335.7 868.4,252.3 922.9,192.5 927.9,116.1 928.0,148.9 928.0,468.0" fill="#16a34a" fill-opacity="0.08"/>
  <polyline points="124.3,437.4 124.3,428.9 164.5,418.1 210.0,422.7 216.6,404.3 230.0,410.2 233.1,418.1 286.1,386.7 434.9,364.2 438.9,373.9 456.3,386.7 457.1,403.9 575.0,335.7 621.9,299.0 653.0,314.7 675.6,335.7 868.4,252.3 922.9,192.5 927.9,116.1 928.0,148.9" fill="none" stroke="#16a34a" stroke-width="2" stroke-linejoin="round"/>
  <line x1="88" y1="102" x2="110" y2="102" stroke="#16a34a" stroke-width="2.5"/><text x="116" y="106" font-size="11.5" fill="#374151">equity</text><line x1="88" y1="118" x2="110" y2="118" stroke="#d97706" stroke-width="2.5" opacity="0.8"/><text x="116" y="122" font-size="11.5" fill="#374151">price</text>
  <text x="78" y="502" text-anchor="start" font-size="12" fill="#6b7280">2026-01-01</text><text x="934" y="502" text-anchor="end" font-size="12" fill="#6b7280">2026-01-31</text>
</svg>
