<svg xmlns="http://www.w3.org/2000/svg" width="1000" height="520" font-family="ui-sans-serif, system-ui, sans-serif" viewBox="0 0 1000 520"><rect width="1000" height="520" fill="#fff"/><text x="78" y="28" fill="#111827" font-size="18" font-weight="700">Zone Recovery — 1000SHIBUSDC best setting (equity / PnL)</text><text x="78" y="48" fill="#6b7280" font-size="12.5">lev 20 · ratio 4 · gap 35% · maxSteps 4 · maxDD 60% · random · vip 9 · 19 series, 84.2% win · vol $29190095 ($29191147/day) · fees $2469</text><text x="78" y="68" fill="#1d4ed8" font-size="12.5" font-weight="600">USDC · BNB −10% · taker 0.0085%</text><text x="934" y="28" fill="#16a34a" font-size="18" font-weight="700" text-anchor="end">+187727 USDT (+1877.27%)</text><line x1="78" x2="934" y1="468" y2="468" stroke="#e5e7eb" stroke-width="1"/><text x="68" y="472" fill="#6b7280" font-size="12" text-anchor="end">0.00</text><line x1="78" x2="934" y1="392" y2="392" stroke="#e5e7eb" stroke-width="1"/><text x="68" y="396" fill="#6b7280" font-size="12" text-anchor="end">44814</text><line x1="78" x2="934" y1="316" y2="316" stroke="#e5e7eb" stroke-width="1"/><text x="68" y="320" fill="#6b7280" font-size="12" text-anchor="end">89628</text><line x1="78" x2="934" y1="240" y2="240" stroke="#e5e7eb" stroke-width="1"/><text x="68" y="244" fill="#6b7280" font-size="12" text-anchor="end">134442</text><line x1="78" x2="934" y1="164" y2="164" stroke="#e5e7eb" stroke-width="1"/><text x="68" y="168" fill="#6b7280" font-size="12" text-anchor="end">179256</text><line x1="78" x2="934" y1="88" y2="88" stroke="#e5e7eb" stroke-width="1"/><text x="68" y="92" fill="#6b7280" font-size="12" text-anchor="end">224069</text><line x1="78" x2="934" y1="451" y2="451" stroke="#9ca3af" stroke-dasharray="6 4" stroke-width="1.5"/><text x="934" y="445" fill="#6b7280" font-size="11" text-anchor="end">start 10000</text><polyline fill="none" stroke="#d97706" stroke-linejoin="round" stroke-width="1.2" points="78 121.6 79 121.2 80.3 120.5 81.7 121.3 82.6 121.9 83.7 121.1 84.8 121.8 86.4 121.9 87.4 121.5 88.8 121 90.9 121.1 92.7 121.4 94.1 121 96 120.3 97.1 121.4 98.3 121.4 100.1 121.7 101.9 120.2 103.6 121.2 105.9 122.2 106 123.2 106.5 123.7 108.1 123.6 109.6 122.8 110.7 122.3 111.7 124 112 123.7 112.7 122.8 114.2 122.4 115.5 121.4 116.8 120.6 117.3 121.2 117.9 121.7 118 122.5 118.5 123 120.2 122.8 122.2 122.5 123.6 122.6 125.4 122.7 126.6 123.3 127.3 123.3 128.7 122.8 130.3 123.3 131.2 122.7 132.2 122.8 133.2 123.3 134.4 122.8 135.1 123.8 136.8 124.1 138.1 124.3 139.2 124 141.2 124.1 142.8 124.3 144.2 124.4 145.4 123.6 146.5 123.9 147.2 124 148.5 123.5 149.6 123.7 150.9 124.4 151.8 124.9 153.1 126 154 126.6 154.2 126.6 155.1 126 156.2 125.7 156.9 125.6 158.3 125.2 159.5 124.4 160.9 123.6 161.8 123.3 163 123.1 163.9 123.9 164.9 124.1 167 124.3 167.7 124 168.6 125.3 169.2 125.7 171.1 125.8 172.6 125.5 174 124.9 175.2 125.4 177.1 126 178.8 125.5 179.6 125.1 180.7 126.1 181.7 126.6 182.7 125.8 185 125.8 186.3 127 187.8 127.8 188.6 127.2 190.2 128.1 191.6 128.2 192.5 127.6 194.1 126.3 195.2 126.9 196.7 125.7 197.4 124.3 198.3 123.6 199.3 123.6 199.9 122.8 200.5 122 200.9 121.7 201.5 121.1 202.1 120.5 202.9 119.1 203.3 118.2 203.5 118.5 203.8 118.5 204.1 117.6 204.4 117.9 204.8 117.7 205.2 117.9 205.6 117.6 206 117 206.4 117.3 207 117.4 207.7 117.2 208.3 117.9 208.8 117.3 209.2 117.5 210 117.3 210.6 117 210.7 116.5 211.2 116.5 212 115.7 212.6 115.4 213 115.1 213.8 115.4 214.8 115 215.5 116.3 215.6 115.4 215.9 116 216.4 115.5 216.5 115.2 217 115.7 217.3 116.8 217.9 117.5 218.2 117.9 218.5 117.9 218.9 118.3 219.2 117.3 219.6 116.8 220.2 117.2 220.8 116.7 221.2 116.3 221.6 115.8 222.1 116.7 222.5 116.6 222.8 116.3 223.6 116.3 224.1 115.3 224.7 115.3 225.5 114.4 226.2 114.6 226.8 115.6 227.3 116 228 115.7 228.7 116 229.2 115.4 230 115.7 230.8 116.2 231.2 116.2 232.2 117.2 232.9 117.2 233.8 117.2 234.3 116.6 235.3 117.1 236.3 118.1 237.1 118.1 238.5 118.1 239.6 117 240.1 117 240.5 118.3 241.2 118.5 242 119.2 243 119.3 244 119.8 244.7 119.2 246.3 119.1 246.9 119.4 248.1 119.5 248.6 119.5 249.7 119.7 251 119.7 252.7 118.8 254.3 119.2 256.1 118.8 257.1 118.9 258.3 119.8 258.8 120.7 259.2 121.1 259.6 122.1 260.4 122.6 260.8 121.3 261.2 120.9 262.3 121.5 263.2 121.7 264.7 121.4 265.7 120.9 266.4 121.2 266.9 120.8 268 121.2 269.3 120.6 270.3 119.7 271.1 119.8 271.6 118.9 272.4 119.1 273.5 119.8 274.7 120.4 275.4 120.2 276 121.5 276.7 121.1 277.9 121.4 278.7 121.2 279.7 120.9 280.8 119.5 281.8 119 283.1 118.3 283.7 117.5 284.3 117 285.2 116.5 286 116.3 286.5 116.1 287.3 116.6 288.1 116.2 288.8 115.6 289.6 115.8 291.2 115.9 292.1 115.5 292.8 115.3 293.5 115.1 293.9 115.3 294.5 115.4 295.6 115 296.8 115 297.6 115.4 298.6 116.2 299.4 116.3 300.5 116 301.4 115.3 302.2 116.5 303.2 116.4 304.4 117.1 305.6 117.4 306.7 117.6 308.7 117.2 309.8 118.3 310.6 118.1 311.3 118.5 312.4 118.2 313.1 118.1 313.8 119.3 314.2 118.9 314.5 120.1 314.9 120.5 315.8 120.2 316.7 119.7 317.7 119.5 318.6 120.4 319.2 119.7 319.7 119.3 320.7 120.5 321.6 121.4 322.1 121.9 322.1 123.1 322.1 123 322.4 123.4 322.7 123.7 323.1 123.1 323.7 123.3 324.3 122.8 325.6 122.6 326.9 122.2 327.9 122.4 328.5 123.1 329 123.3 330.2 123 331 123.5 331.9 123.9 332.7 124.8 333.3 124.1 334 123.3 334.7 123.1 335.4 123.1 336.2 122.8 337.2 124.2 337.7 124.5 338.5 125.1 339.1 124.7 339.8 123.9 340.5 122.6 341.3 124.1 342.2 124.5 342.9 124.5 343.5 124.2 344.3 123.3 345.5 122.8 346.2 123 346.9 124.1 347.5 124.3 348.2 124.7 348.7 123.7 349.4 123.6 350.1 122.8 351.1 123.6 352.3 122.9 353.3 122.8 354.6 123.3 355.1 124.3 355.9 124.6 356.8 124 357.5 124.6 358.4 125.2 359.1 124.4 360.2 124.9 361.3 124.9 362.2 125.7 363.1 126.8 363.9 126.3 364.4 125.6 364.9 124.7 365.7 125.4 366.1 126.7 366.7 127.2 366.9 126.1 367.7 126 368.6 125.3 369.9 124.7 370.8 125 372.4 123.9 373.3 122.9 374.5 123.1 375.9 123.6 377 124.7 379 125 380.6 124.4 382 124.3 382.7 125.6 383.9 126.5 384.5 126.2 385.5 126.8 386.4 126.4 387.2 126 388.2 126.9 389.1 126.9 389.8 126.3 391 125.8 391.8 125.5 392.9 125.7 394 124.6 395.2 124.6 395.9 124.3 396.7 123.6 397.5 122.5 398.9 122.4 399.6 122.7 400 123.9 400.3 123.7 401 124 401.5 123.6 402.2 124.4 402.8 123.4 403.4 124 404.7 124.6 405.8 124.3 406.8 123.5 407.8 123.9 409.4 124.3 411.2 124.8 413.5 123.8 414.8 122.6 416 120.9 416.8 121.2 417.5 121.5 418.3 121.2 419.2 121.2 419.9 121.5 421.6 121.7 423.2 122.7 424.9 122 426.2 121.8 427.1 122.6 428.5 124.1 429.1 125.1 429.8 124.8 430.4 125.3 431.4 125.4 432.4 125.6 433.1 125.3 434.5 125.8 435.6 124.6 436.4 124.4 437.2 124.3 438.7 124.2 440.7 123.8 442.5 124 444.7 124 446.1 122.9 447.3 123.4 448.4 124.1 449.8 123.9 451.8 123.8 452.7 124.4 453.5 123.8 454.1 124.5 455.1 123.9 456.2 124.7 457.7 124 458.6 124.7 460.4 124 461.8 123.4 463 124 464 123 464.9 121.8 465.9 121.6 467.4 122.1 468.5 121.2 470.5 121.2 471.8 121.2 473 120.7 474 120.5 474.9 121 476 120.2 476.9 120.8 477.8 122 479.5 121.4 481.2 121.8 482.7 122 484 122.4 485.1 122.1 486.3 122.3 488.2 121.7 489.4 121 490.6 121 491.8 120.8 493.5 121.1 495.4 121 496.6 121.5 498.2 121.8 500.3 121.1 502 119.9 503.8 119.7 505.7 120.1 506.4 120.5 507.6 120.4 508.9 119.5 509.8 119.7 510.6 119.9 511.9 119.6 512.9 121 513.9 121.5 515.2 122 516.1 121.8 517.9 121.2 519.7 121.7 521.2 121 522.8 121.1 524.1 121.6 525 121.7 525.4 121.1 526.2 120.8 527.6 120.5 529.1 121.8 530.1 121.2 531 121.4 532.4 121 534 121.2 535.2 121 537 119.9 538.7 119.9 540.7 119.3 542.5 118.9 543 119.1 544.1 118.3 545 119.2 546.1 118.6 547.2 118.2 548.1 119.2 549.1 119.2 550.4 119.4 551.3 119.7 551.9 119.4 553.2 118.4 553.9 117.8 555.3 118.9 556.4 118.8 557.4 117.3 558.8 117.3 559.6 117.4 560 117.3 560.1 117.9 560.4 117.8 560.8 117.8 561 118.4 561.5 118.6 562.1 117.3 562.5 116.5 562.9 117 563.3 118.2 563.6 117.5 564 117 564.5 115.8 564.8 115.7 565.1 115.4 565.5 115.5 565.8 116.1 566.3 116.2 566.7 116.2 567.1 115.7 567.4 116 567.9 116.3 568.4 116.3 568.7 117.3 569.1 116.8 569.5 116.9 569.9 117.5 570 118.3 570.4 117.7 570.9 118.4 571.4 119.4 571.7 119.5 572.2 120 572.6 120.7 573.1 119.7 573.7 120.4 574.2 120.8 574.7 120.8 575.8 120 576.7 118.9 577.4 118.1 577.6 117.8 578 117.6 578.1 119 578.4 119.8 578.8 118.3 579.4 118.3 579.8 117.4 580.4 117.6 581 117.9 581.2 118.1 581.6 117.2 582.1 116.9 582.9 117.9 583.7 118.3 584.3 118.1 585.1 118.2 585.8 119.1 586.3 118.9 586.8 119 587.2 119.5 587.6 120.7 587.7 120.7 588.1 121.2 588.2 120.4 588.7 120.6 589.1 120.7 589.4 121.1 589.7 120.2 590.1 119.7 590.5 120.6 591 121 591.3 121.8 591.7 121.5 592.2 121.7 592.5 121.1 593.3 121 594.1 121.5 595 122.4 595.5 121.6 596 120.7 596.5 121.5 597.1 121.3 597.6 121 598 120.4 598.7 120.5 599.1 121.7 599.7 121.1 600.7 121.5 601.7 121.6 602.5 122.6 603.2 121.8 604.3 122.1 605 122.7 605.7 122.2 606.6 121.4 607.2 120.6 607.9 120.4 608.8 121.4 609.9 121.8 610.5 121.6 611.8 122.2 611.8 124 611.8 125.2 611.8 126 611.9 125.5 612 127.2 612 127.2 612.1 127 612.1 127.5 612.2 129.6 612.2 129.7 612.3 131.3 612.4 129.9 612.4 130.7 612.5 129.5 612.5 128.5 612.6 129.5 612.6 129.8 612.7 129.7 612.7 129.2 612.9 129.5 613 129.2 613.1 130.2 613.1 129.7 613.2 129.1 613.3 129.8 613.3 130.3 613.4 130.7 613.5 129.6 613.6 129.8 613.6 131.7 613.7 131.4 613.7 130.7 613.8 131.9 613.8 132.6 613.9 131.8 613.9 132.4 614 132 614.1 132.2 614.2 132.9 614.2 133.6 614.4 134 614.4 134.7 614.5 134.7 614.6 134.6 614.6 133.5 614.7 133 614.9 134 614.9 133 615 131.6 615 131.7 615 132.5 615.1 132.7 615.2 133.4 615.4 133.3 615.4 134.3 615.5 134.3 615.6 135 615.6 135.9 615.7 135.4 615.8 135 615.9 134.4 615.9 133.5 616 134.2 616.1 134 616.2 134.7 616.2 134.1 616.3 134.3 616.3 135 616.4 134.5 616.5 134.3 616.6 132.3 616.6 132.6 616.7 132.4 616.8 133.6 616.8 133.7 616.9 133.8 617 133 617.1 132 617.1 132.2 617.2 132.7 617.3 132.5 617.4 132.9 617.5 132.1 617.6 132 617.7 131.3 617.8 131 617.9 131 618 131.3 618 131 618.1 131.7 618.2 131.9 618.3 132.8 618.4 132.6 618.5 132.1 618.6 132 618.7 132.9 618.8 132.9 618.9 132.9 619 132.7 619.1 131.5 619.2 131.3 619.3 130.1 619.4 130.2 619.5 130.4 619.6 129.4 619.7 129.7 619.8 129.9 619.9 130.1 620.1 129.9 620.3 130.7 620.4 130.5 620.6 131 620.8 130.7 620.9 131 621 130.7 621.2 130.3 621.4 130.3 621.6 130.6 621.8 131.2 622 131 622.2 130.7 622.3 130.6 622.5 130.4 622.6 130.4 622.8 131.4 622.9 131.6 623 131.9 623.2 132.4 623.3 133 623.4 133.3 623.5 133.7 623.6 134.7 623.7 134.9 623.7 133.5 623.8 134.6 624 134.9 624.1 135 624.3 134.6 624.4 134.7 624.5 135.7 624.9 135.3 625 136.3 625.1 135.7 625.1 135 625.2 135.6 625.3 136.3 625.4 136.6 625.5 135.7 625.6 136.8 625.7 137.5 625.8 136.9 625.9 137.8 626 139.2 626 139.4 626.1 139.8 626.1 139.4 626.2 139.3 626.2 140.1 626.3 139.9 626.4 138.7 626.5 138.5 626.7 137.6 626.8 138.1 626.8 138.5 626.9 139.1 627 139.4 627.1 139.4 627.1 140.2 627.2 140.5 627.2 140.7 627.3 140.5 627.4 141.3 627.4 141.1 627.5 140.9 627.6 140.2 627.7 141.6 627.8 142.2 627.9 142.1 628 142.1 628.1 143.4 628.1 143 628.3 142.9 628.4 142.6 628.5 141.6 628.5 140.1 628.6 141.1 628.7 142.1 629 142.2 629.1 142.6 629.2 142.5 629.4 141 629.6 139.5 629.7 139.9 629.9 140.5 630 141 630.2 141 630.3 142.1 630.7 142.8 630.9 143.5 630.9 144.8 631 144 631 144.5 631.1 145.7 631.2 146.2 631.3 146.9 631.3 147.9 631.4 149 631.4 148 631.5 147.8 631.5 147.5 631.5 146.9 631.6 147.4 631.7 149.2 631.7 151 631.7 152.4 631.8 153.2 631.8 150.9 631.8 151.2 631.9 153 631.9 155.2 632 154.9 632 156.2 632 154.9 632 152.4 632.1 152.4 632.1 151.8 632.1 151.1 632.2 150.6 632.2 151.3 632.3 151.4 632.4 151.4 632.5 151.2 632.6 153.4 632.7 152.6 632.7 152.7 632.8 152.7 632.8 151.3 632.9 152.4 633 151.1 633.1 151.9 633.2 152 633.3 152.3 633.4 154 633.4 154.6 633.4 155.8 633.5 155.3 633.5 154 633.6 154.6 633.7 156.5 633.7 156.5 633.8 156.2 633.8 154.4 633.9 153.2 633.9 153.4 634 153.2 634.1 152.5 634.2 152 634.2 151.3 634.3 152.7 634.5 152.9 634.5 153.1 634.5 152.3 634.6 151.4 634.7 152.7 634.8 152.7 634.9 151.7 634.9 151.3 635 151.4 635.1 151.4 635.2 150.3 635.3 150.2 635.4 149.8 635.6 149.1 635.7 149.2 635.7 149.3 635.9 148.8 636 150 636.1 149.8 636.2 150.7 636.4 150.2 636.5 148.9 636.6 149.1 636.8 150.4 636.9 150.2 637 151.2 637.1 152.1 637.2 151.8 637.3 152.7 637.4 152.6 637.5 152 637.6 151.2 637.7 150.9 637.9 150 638.1 149.8 638.3 150.3 638.4 149.2 638.5 148.8 638.7 148.1 638.8 147.6 639 147.8 639.3 146.6 639.5 146 639.6 146.2 639.8 145.3 640 145.9 640.1 146.3 640.4 147.2 640.5 145.7 640.7 145.4 640.8 146.4 641.1 147.1 641.4 146.8 641.7 147 641.8 146.9 642 147 642.3 147.2 642.4 147 642.8 146.9 643 147.2 643.3 146.8 643.4 147.2 643.6 145.9 643.9 147.1 644 147 644.2 147.4 644.3 146.6 644.7 146.7 645 146.9 645.3 147.1 645.4 146.8 645.8 147.4 646 147.6 646.2 148 646.4 148.9 646.7 149.3 646.8 149 647.2 148.7 647.6 148.7 647.9 147.6 648.3 148.2 648.7 148.7 648.9 149.3 649 149.4 649.2 149.7 649.5 149.7 649.6 149.3 649.8 150.1 650 149.7 650.2 150.2 650.3 150.3 650.6 150.6 650.8 149.5 651 149.4 651.3 151 651.5 150.3 651.6 149.5 651.8 148.8 652 147.9 652.2 147.2 652.5 147 652.9 146.9 653.2 146.7 653.4 146.7 653.7 145.6 654.1 145 654.4 145.2 654.7 145.4 654.9 145.7 655.4 147 655.7 146.6 655.9 146 656.3 146.8 656.7 147.5 657.1 147.4 657.6 147.3 657.8 146.9 658 147.8 658.3 147.4 658.5 148.4 658.8 148.5 659 148.5 659.6 148.7 660.1 148.5 660.3 147.3 660.9 147.2 661.2 147.6 661.6 146.8 662 146.6 662.5 145.4 663 144.5 663.6 144.5 664 144.7 664.5 145.1 665 144.6 665.5 144.6 666.1 145.1 666.4 146 666.6 145.9 667 146 667.3 146.6 667.5 146.3 667.9 145.1 668.4 144.5 668.7 143.6 668.9 143.7 669.3 143.9 669.6 144.2 669.9 144.2 670.2 143.8 670.8 143.1 671.1 142.9 672.1 143.4 672.7 143.3 673.1 144 673.7 144.5 674.8 144.6 675.5 146.2 675.9 146.2 676.5 146 677 145.2 677.8 147.1 678.6 147.5 679.1 147.5 679.7 147.3 680.6 147.2 681 147.9 681.3 147.7 681.8 147.9 682.4 146.9 683.2 148.2 684 148.7 684.6 148.1 685.1 147.9 685.6 148.1 686.2 149.2 686.4 149.8 686.9 149.4 687.3 150.4 687.5 150.5 687.7 150.3 688 150 688.5 149.1 688.9 149.7 689.3 149.7 690.1 149.6 690.7 149.8 691.2 149.9 691.4 148.7 692 148.1 692.6 149.7 693 150.3 693.3 149.5 693.5 149.6 694.1 149 694.6 148.4 695.1 148.7 695.6 148.8 696.1 148.5 696.9 150.6 698 148.2 698.6 146.6 699.3 148.3 700.1 148.4 700.7 148.3 702.1 147.7 702.9 147.6 703.6 147.6 704.6 148 705.2 148.1 705.9 149.4 706.3 149.8 706.8 150.9 707.3 151.1 707.8 151.8 708.2 151.8 708.7 153 709.2 151.8 709.9 151.6 711 151.9 711.4 152.9 711.7 154.5 711.9 154.8 712.1 154.6 712.3 153.9 712.8 154 713.1 152.7 713.5 152.6 714 153.1 714.3 153.7 714.8 153.7 715.4 153.2 716.1 153.2 716.7 152.4 717.3 152.4 717.7 152.3 718.4 153 718.8 153 719.6 152.6 720.4 153.4 720.7 154.1 721 153.7 721.3 153.2 721.6 152.5 722.1 153.2 722.8 153 723.3 152.9 723.6 154 723.9 153.4 724 152.8 724.3 153.5 724.5 154.1 724.8 153 725.2 153.2 725.8 153.8 726.2 153.2 726.5 152.6 727 152.7 728 153.4 728.5 153.3 729 152.7 729.7 152.3 730.2 152 730.9 153 731.7 153.6 732.4 152.1 732.8 151.9 733.8 151.2 734.6 151.6 735.8 151.3 736.5 151.6 737.3 152.4 738.3 153 738.8 153.2 739.5 153.2 739.9 152.9 740.5 153.6 741.2 154 742.2 154.3 743.1 153.7 743.9 153.9 744.2 154 744.8 153.4 745.3 153.4 746.1 152.6 747 153 747.3 152.6 747.8 153.6 748.5 154.4 748.9 155.3 749.2 155 749.6 155 749.9 154.5 750.5 154.9 751 154.2 751.8 155.5 752.5 155.5 753.2 155.6 754 155.5 755 156.5 755.7 157 756.2 155.8 756.5 155.8 757.2 155.7 758.1 155.9 758.9 157.1 759.1 156.5 759.5 157.1 759.8 156.5 760.3 156.9 760.8 158.1 761 158.4 761.2 158 761.6 158.4 761.8 158.8 762.1 158.6 762.4 157.6 762.7 159.1 762.8 160 763 160.1 763.1 159.9 763.4 158.8 764 159.3 764.4 159.9 764.7 159.5 765 160.1 765.2 158.8 765.4 158.8 765.5 159.3 765.8 159.2 766.2 159.1 766.5 159 766.8 159.4 767.3 159.2 767.6 158.4 767.8 158.9 767.9 160.1 768.1 160.4 768.2 159.7 768.4 159.8 768.6 160.9 768.7 161.6 768.8 161.1 768.9 161.3 769 161.9 769.3 160.5 769.4 160.7 769.5 162 769.8 161.9 770.1 161.3 770.6 161 770.8 160 770.9 158.8 771.1 159.5 771.4 158.7 771.6 159.6 771.9 160.4 772.1 160.6 772.1 159.7 772.4 160.3 772.6 161.4 772.8 162.9 772.9 164.1 772.9 164.8 772.9 163.4 773 164 773.3 165.2 773.3 166.2 773.4 166.4 773.4 166.1 773.5 168.4 773.5 168.8 773.6 167.5 773.6 167.4 773.7 166.6 773.8 165.5 774 164.7 774.1 163.7 774.3 164 774.5 164 774.6 163.6 774.8 164.6 775 164.2 775.1 163.9 775.3 165.1 775.4 166.1 775.5 166.7 775.7 167 775.9 166.7 776 165.9 776.2 166.3 776.4 165.3 776.7 166.1 777 165.7 777.2 164.3 777.6 164 777.8 164.2 778.1 163.4 778.6 162.5 778.8 163.3 779.1 164.4 779.5 163.7 779.8 163 780.1 164.5 780.4 163.2 780.6 162 780.7 162 781 162.4 781.5 161 782 160.8 782.4 159.7 782.7 159.2 782.8 158.6 783.1 159.7 783.3 160.4 783.8 160.2 784.1 159.5 784.5 158.9 784.9 158.5 785.2 159.2 785.5 159.4 785.7 160.4 786.1 161 786.4 160.8 786.7 161.3 787.2 161.7 787.6 161.1 788 162.4 788.3 162 788.6 162.6 789 162 789.5 161.4 789.8 161.2 790 161.1 790.3 161.7 790.8 161.3 791.2 162 791.6 161.8 792.1 163 792.3 162.6 792.7 163 793 162.4 793.3 162.3 794 160.9 794.3 160.3 795 160.6 795.4 159.7 796.1 161.3 796.9 162.1 797.9 161.7 799 160.7 799.4 160.8 800.1 160.1 800.5 160.5 801.3 159.7 802.2 160.8 803.3 161.4 803.9 160.3 804.5 160 805.3 158.4 805.4 158.7 806 158.5 806.8 158.2 807.6 157.6 808.4 156.9 809.2 157.2 810.2 158.5 810.7 158.6 811.1 158.1 811.4 158.7 812 158.1 812.5 158.2 813.4 157.8 814.1 157.3 814.8 157.1 815.6 157.8 816.8 157.8 817.6 157.1 817.8 157.5 818.5 157.6 819.4 158.1 819.9 157.8 820.8 157.7 821.2 159.2 821.2 160.3 821.2 161.1 821.3 162 821.3 162.6 821.3 161.4 821.4 163.2 821.6 163.5 821.7 162.2 821.8 161.7 821.9 162.3 822 163.3 822 164.3 822.3 163.6 822.4 165 822.5 164.9 822.6 166.6 822.6 166.4 822.7 167 822.8 168.7 822.8 169.2 822.9 169.4 822.9 169.8 823 169 823 168.4 823 168 823.1 167.9 823.1 167 823.2 166.8 823.2 168.4 823.3 169.9 823.4 170.8 823.4 171.9 823.4 173.7 823.5 174.4 823.5 176.1 823.5 174.4 823.5 173.8 823.6 173.8 823.6 171.9 823.6 173 823.6 173.8 823.6 173.6 823.7 174 823.7 175.5 823.7 176.4 823.8 176.1 823.8 173.6 823.8 175.5 823.9 173.8 824 175.4 824 173.6 824.1 172.4 824.1 173.4 824.1 173.3 824.2 172 824.2 173.7 824.2 174.5 824.3 175.3 824.3 174.8 824.3 174.1 824.4 173.2 824.4 174.2 824.5 173.8 824.6 174.9 824.6 176.7 824.6 178.2 824.7 179.1 824.7 179 824.7 178.9 824.7 178.5 824.7 179.7 824.8 180.1 824.8 180.8 824.8 182.8 824.9 184.2 824.9 186.2 824.9 185.3 824.9 188 824.9 187.9 825 187.1 825 185.8 825 184.5 825.1 183.5 825.1 184 825.2 182.6 825.3 182.9 825.3 184.5 825.3 183.7 825.3 185.2 825.3 183.6 825.4 182.1 825.4 182.7 825.4 181.3 825.5 181.7 825.5 182.4 825.5 183.6 825.6 185.2 825.6 182.8 825.7 183.6 825.8 184.3 825.9 182.3 825.9 182.7 825.9 182.6 825.9 183.7 826 182.6 826 183 826 183.5 826.1 185.5 826.1 185.3 826.1 183.7 826.2 183.3 826.2 182.6 826.2 182.7 826.3 184.1 826.4 185.1 826.4 186.7 826.4 188.5 826.5 187.2 826.5 186.9 826.5 186.8 826.5 186.5 826.6 187 826.6 186.9 826.6 187.4 826.6 188.4 826.6 188.4 826.7 188.9 826.7 189.8 826.7 189.9 826.7 190.8 826.7 192.3 826.8 193.6 826.8 193 826.8 195.2 826.9 196.9 826.9 200.6 826.9 205.5 826.9 202.3 827 201.8 827 199.6 827 199 827 197.2 827.1 197.5 827.1 197 827.1 197.8 827.1 198 827.1 197.4 827.1 198.7 827.2 199.6 827.2 198.8 827.2 197.3 827.2 196.8 827.3 196.5 827.3 194.5 827.3 194 827.3 194.6 827.4 193.6 827.4 194.1 827.4 197.3 827.5 195.9 827.5 198.8 827.5 199.8 827.6 203.2 827.6 202.4 827.6 202 827.6 200.5 827.7 199.9 827.7 200.7 827.7 202.1 827.7 200.9 827.7 199.9 827.7 200.2 827.8 200.7 827.8 199.1 827.8 198.4 827.8 197.1 827.8 196.1 827.9 196.2 827.9 195.7 827.9 195.3 827.9 195.1 827.9 193.8 828 193.9 828 193.3 828.1 192.2 828.1 192 828.2 190.9 828.2 192.4 828.3 193 828.3 192.7 828.3 192.4 828.3 192 828.3 191.9 828.4 190.7 828.4 191.2 828.4 190.6 828.5 190.1 828.5 190.3 828.5 191.1 828.6 192.2 828.6 192.6 828.6 191.1 828.7 190.4 828.7 190.1 828.7 189.8 828.8 190.9 828.8 190.9 828.8 190.4 828.9 190.4 828.9 190 828.9 189.1 828.9 189.1 829 188.4 829 187.7 829 188.1 829.1 187.3 829.1 188.5 829.2 189.5 829.2 188.5 829.2 189.4 829.3 190.2 829.3 189.9 829.4 191.1 829.4 191.3 829.4 191 829.4 191.4 829.5 191.3 829.5 190.6 829.5 189.4 829.6 189.8 829.6 190 829.7 191 829.7 190.6 829.7 190.6 829.8 189.4 829.8 189.5 829.9 189 829.9 188 830 188.2 830 187.2 830 187.6 830.1 188 830.1 187.9 830.1 188.4 830.2 189.3 830.2 188.9 830.2 189.4 830.3 189.5 830.3 188.3 830.3 189 830.4 188.7 830.4 189 830.5 189.8 830.5 190.1 830.6 188.6 830.6 188.5 830.6 188.9 830.7 188.7 830.7 188.5 830.7 187.5 830.8 187 830.8 188.1 830.9 187.7 830.9 188.7 831 187.9 831 187.6 831.1 188.1 831.1 188.2 831.2 187.8 831.2 187.6 831.3 186.9 831.3 186.9 831.3 186.2 831.4 186.3 831.5 186.1 831.5 186.4 831.5 187.2 831.6 187.8 831.7 187.2 831.7 187.5 831.8 187.3 831.8 189.5 831.8 187.8 831.9 187.5 831.9 188 831.9 187.5 832 188.2 832 188 832.1 188.5 832.1 188.5 832.2 188.1 832.2 188.8 832.3 189 832.3 189 832.4 188 832.4 188.1 832.4 187.4 832.5 187.7 832.5 188.4 832.6 187.1 832.6 187.2 832.7 186.4 832.7 186.6 832.8 185.6 832.9 185.9 832.9 186.5 833 185.9 833.1 186 833.1 186.6 833.2 187.2 833.2 187.5 833.3 187.6 833.4 188.4 833.4 189 833.5 188.8 833.6 189.4 833.6 188.2 833.7 189 833.7 189.9 833.8 190.5 833.8 189.8 833.9 191.7 833.9 191.4 834 190.6 834 191.8 834.1 192.4 834.2 193.4 834.2 192.2 834.2 194.4 834.2 194.1 834.2 193.5 834.3 193.3 834.3 191.9 834.3 192.8 834.3 193 834.4 194 834.4 193.8 834.4 194.8 834.5 196.5 834.5 196 834.5 196.8 834.6 199.6 834.6 198.1 834.6 200.1 834.7 200.4 834.7 202.2 834.8 205.1 834.8 207.3 834.8 208.8 834.8 209.7 834.9 212.2 834.9 212.3 834.9 215.9 834.9 219.7 835 221.3 835 222.2 835 226.3 835 230.6 835.1 232.5 835.1 231.5 835.1 230.6 835.1 229.1 835.1 226.8 835.1 225.9 835.2 224.5 835.2 223.2 835.2 223.9 835.2 230 835.2 223.6 835.3 222 835.4 223.2 835.4 222.9 835.4 221.4 835.4 221 835.4 221.4 835.4 222.5 835.4 221.3 835.4 222.1 835.5 224.5 835.5 226.5 835.5 229.7 835.5 234.9 835.6 235.9 835.6 238.1 835.6 243.1 835.7 245.3 835.7 250 835.7 250.7 835.7 250.8 835.7 257 835.8 244.8 835.8 239.1 835.8 239.1 835.8 236.8 835.9 235.8 835.9 236.6 835.9 233.2 836 233.8 836 235.4 836 236.7 836 234.9 836.1 235.6 836.1 235.4 836.1 235.4 836.1 233.4 836.2 234.1 836.2 233.2 836.2 231.8 836.2 229.3 836.2 233.8 836.3 235.4 836.3 238.6 836.3 243 836.3 248.3 836.4 244.9 836.4 240.6 836.4 236 836.5 243.6 836.5 239.2 836.5 245.3 836.5 249.3 836.6 249.3 836.6 254.4 836.6 257.1 836.6 261 836.6 263 836.6 264.9 836.7 266.8 836.7 266.4 836.7 266 836.7 268.9 836.7 273.5 836.7 273.9 836.7 275.7 836.7 276.4 836.8 269.2 836.8 270.6 836.8 270.3 836.8 270.1 836.8 272.9 836.8 268.8 836.8 272.3 836.9 273.4 836.9 274.5 836.9 278.6 836.9 284.5 836.9 285 837 288.3 837 290.1 837 279.6 837.1 291.8 837.1 298.6 837.1 299.3 837.2 300.7 837.2 299.1 837.2 303.4 837.2 297.1 837.2 291.6 837.3 291.5 837.3 293.7 837.3 298.2 837.4 298.8 837.4 302.9 837.4 306.3 837.4 309.8 837.4 303.8 837.4 311.6 837.5 315.3 837.5 313.5 837.5 314.1 837.5 312 837.6 313.5 837.6 317.3 837.6 325.4 837.7 315.6 837.7 316 837.8 315.5 837.8 319.9 837.8 325.2 837.8 329.2 837.8 332.8 837.8 336.3 837.8 341.2 837.8 342.1 837.9 342.5 837.9 340.9 837.9 344.7 837.9 346.3 837.9 349.2 838 349.1 838 350.3 838 344.1 838.1 347 838.1 346.1 838.1 352.7 838.2 359.1 838.2 364.3 838.2 356.3 838.2 367.6 838.3 372.5 838.3 375 838.3 372.7 838.4 375.7 838.4 376.1 838.4 381.3 838.4 388.5 838.4 387.7 838.5 386.1 838.5 387.6 838.5 387.5 838.5 398.1 838.5 381.2 838.6 385 838.6 391.7 838.6 373.7 838.7 377.1 838.7 389.7 838.8 384.1 838.8 394.6 838.9 392.3 838.9 397.7 839 394.1 839 400.1 839.1 404.1 839.1 406.2 839.1 404.9 839.2 411.1 839.2 412.6 839.2 416.6 839.3 423.2 839.4 417.3 839.5 425.7 839.5 428.9 839.5 428.7 839.5 431 839.6 433.1 839.6 435.2 839.6 437.1 839.7 435.9 839.7 439.4 839.8 441.2 839.8 437.7 839.8 436.8 839.9 434.7 839.9 434.8 840 432.4 840 430.8 840.1 427.5 840.1 426.4 840.1 426.3 840.1 425.5 840.2 426.7 840.2 424.3 840.2 427.6 840.3 426.1 840.3 421.9 840.3 424.7 840.3 423.9 840.4 422.5 840.4 423.1 840.5 422.1 840.5 421.1 840.6 421.4 840.6 420.4 840.7 421.2 840.7 419.1 840.8 419.2 840.8 417.6 840.9 419.4 841 420.1 841 420.1 841.1 421.8 841.1 425 841.1 422.6 841.2 425.6 841.3 426.5 841.3 439.6 841.3 440.4 841.3 435.6 841.3 432.3 841.3 429.6 841.3 414.8 841.4 403.5 841.4 399.1 841.4 403.8 841.4 406.5 841.4 412.1 841.4 412.6 841.4 412.4 841.5 414.1 841.5 411 841.6 412 841.6 413.2 841.7 416.2 841.7 408.7 841.7 417.3 841.8 410.6 841.8 406.5 841.8 401.1 841.8 403.5 841.9 404.6 842 401.1 842 407.5 842 422.2 842 426.2 842 430.1 842 428.6 842.1 431.6 842.1 432 842.2 428.8 842.2 426.2 842.3 429 842.4 422.5 842.4 429.3 842.4 422.4 842.5 419.8 842.5 427.3 842.5 415.8 842.6 418.3 842.6 420 842.6 416.6 842.6 419.8 842.7 415.3 842.7 417.4 842.7 416.8 842.7 414 842.8 413.9 842.8 414.3 842.8 409.7 842.9 412 842.9 407.8 843 407.1 843.1 406 843.1 404.7 843.2 404.1 843.3 403 843.3 402.4 843.3 399.4 843.4 398.9 843.4 393.5 843.5 393.5 843.5 393.2 843.6 392.5 843.7 391.5 843.7 390 843.8 389.7 843.8 389 843.8 385.9 843.9 387 844 387.6 844 385.7 844.1 385.3 844.1 384.4 844.2 388.1 844.2 387.6 844.3 391.7 844.3 391.1 844.4 388 844.6 385.7 844.7 385 844.8 380.8 844.9 380.4 845 381.5 845.1 379.2 845.2 379.3 845.3 377.9 845.4 377.5 845.5 377.4 845.5 376.4 845.6 376.7 845.7 377.7 845.7 380.2 845.9 377 846 376.6 846.1 373.7 846.3 371.1 846.5 369.9 846.6 369.4 846.8 369.4 846.9 369.3 847 368.8 847.1 369.3 847.1 366.7 847.2 364.3 847.2 366.4 847.3 359.8 847.3 352.2 847.3 351.4 847.3 362.1 847.4 359 847.5 358.8 847.5 358.9 847.6 362.1 847.6 361.9 847.6 361.4 847.6 362.1 847.6 362.5 847.7 360.1 847.8 358 847.8 359.7 847.9 358.3 847.9 355.1 848 356.3 848 341.8 848 338.8 848.1 338.8 848.1 338.6 848.1 341.1 848.2 343.6 848.2 345 848.3 345.6 848.4 345.1 848.4 345.7 848.5 346.6 848.6 348.6 848.6 349.1 848.6 349.5 848.7 349.2 848.8 348 848.8 349.1 848.9 351.1 848.9 351.9 848.9 352.4 848.9 353.3 849 349.9 849.1 349.8 849.1 351 849.1 347.3 849.1 348.6 849.2 349.4 849.2 350.1 849.3 348.5 849.3 347.1 849.4 347.9 849.5 346.9 849.5 346.6 849.6 348.2 849.6 350.2 849.7 348.2 849.7 349.5 849.9 351.1 849.9 353 850.1 351.4 850.2 354.1 850.3 353.5 850.4 350.9 850.5 350.9 850.5 347.8 850.7 347.3 850.8 346.9 850.8 344.6 850.8 347.3 851 342.4 851 340.5 851 336.7 851.1 338.2 851.1 341.7 851.2 338.8 851.3 337.9 851.4 339.3 851.4 339.3 851.4 336.3 851.4 339.3 851.5 336.6 851.6 336.3 851.7 333.9 851.8 338.1 851.8 335.8 851.9 336.2 851.9 342.4 852 333.4 852 331.5 852 329.6 852.1 330.4 852.1 326.9 852.2 326.6 852.3 326.3 852.4 326.3 852.5 329.6 852.5 327.2 852.6 325.1 852.7 325 852.7 321.6 852.7 324.4 852.8 324.8 852.8 319.2 852.9 320 852.9 324.6 853.1 321.2 853.2 317 853.2 316.1 853.3 317.9 853.3 317.2 853.4 317 853.4 312.8 853.4 311.2 853.4 312.9 853.5 314.1 853.5 313.5 853.6 305.6 853.8 311.2 853.8 307.7 853.8 307.7 853.8 308.5 853.9 308.4 853.9 307.9 854 308.4 854 306.1 854.1 308.4 854.1 301.8 854.2 308.3 854.3 303.2 854.4 306 854.4 298 854.4 298.8 854.4 304.2 854.5 301.2 854.5 301.3 854.6 301.6 854.7 300.6 854.7 295.6 854.8 299 854.9 295.7 855 293.1 855 293.8 855 293.7 855.1 291.9 855.1 293.2 855.1 293.8 855.2 294.2 855.3 296.1 855.3 297.1 855.4 291.9 855.4 268.4 855.5 299.5 855.6 293.7 855.6 287.5 855.6 297 855.7 294 855.7 296.7 855.8 295 855.8 297.3 856 299 856.1 300.8 856.1 305 856.1 304.5 856.1 310.2 856.2 298.4 856.2 301.1 856.2 298.1 856.2 297.6 856.2 296.2 856.3 298.4 856.3 297.9 856.4 297.6 856.4 296.3 856.5 296 856.5 300.2 856.6 301.3 856.7 300.6 856.8 299.9 856.8 299.4 856.9 298.9 857 300.1 857 298.6 857 287.6 857.1 297.4 857.2 295 857.2 297 857.3 301 857.4 298.5 857.4 296.7 857.4 294.9 857.5 293.8 857.6 293.7 857.6 290.2 857.7 292.8 857.9 292.4 857.9 290.3 857.9 290.4 858 288 858.1 288.1 858.1 276.2 858.1 281.8 858.2 288 858.2 288.4 858.3 291.1 858.5 293.7 858.6 290.8 858.6 290 858.7 291.1 858.7 292 858.8 292 858.8 291.6 858.9 293.1 858.9 289.2 859 294 859 292.7 859.1 292.7 859.1 294.4 859.2 294.1 859.2 293.6 859.2 293.1 859.3 293 859.3 292.4 859.3 292.9 859.4 293.7 859.4 295.2 859.4 295.4 859.4 295.2 859.5 292.6 859.5 291.2 859.5 296 859.6 296 859.7 294.8 859.7 293 859.8 293.3 859.8 293.2 859.8 293.6 859.8 291.5 859.8 290.7 859.9 289.6 859.9 289.2 859.9 287.4 859.9 287.1 860 286.6 860 287.4 860 287.7 860.1 287.1 860.1 287.7 860.1 290.9 860.2 289.7 860.2 289.9 860.3 288.9 860.3 287.1 860.3 287.1 860.3 288.3 860.4 286.2 860.4 288.9 860.4 284.7 860.4 283.9 860.4 282.9 860.5 282.1 860.5 281.9 860.5 283.1 860.5 284.9 860.5 285.6 860.5 283.5 860.6 283.9 860.6 285 860.6 286.1 860.6 287 860.7 285.6 860.7 287.7 860.8 290.9 860.9 294.2 860.9 285.1 860.9 284.4 861 284.5 861 286 861 286.9 861 288.2 861.1 287.7 861.1 287.8 861.1 287 861.2 287.4 861.2 289 861.3 285.3 861.3 283.8 861.4 282.4 861.4 279.8 861.5 280.2 861.5 273.9 861.5 275.7 861.6 273.4 861.6 274.1 861.6 275.7 861.7 275.3 861.7 273.5 861.8 272.1 861.9 273.8 861.9 276.8 861.9 282.5 862.1 288.2 862.1 285.1 862.1 285.5 862.1 282.8 862.2 284.4 862.3 285.3 862.3 286.3 862.4 283.8 862.4 281.6 862.5 283.2 862.6 284.1 862.6 280.3 862.7 285.7 862.7 284.2 862.7 282.3 862.7 281.1 862.8 282.4 862.8 280.9 862.8 282.4 862.9 284.1 862.9 283.9 862.9 285.5 863 282.8 863 285.3 863 287 863 289.4 863.1 291.9 863.2 293.5 863.2 291.8 863.3 289.2 863.3 289.9 863.4 289.1 863.4 290.6 863.5 292.1 863.5 292.1 863.6 293.5 863.6 292.8 863.7 293.4 863.8 298.3 863.9 297.8 863.9 295.3 863.9 294.4 863.9 293 863.9 295.9 863.9 296.5 864 297.9 864 297.9 864 296.9 864.1 298 864.2 295.3 864.2 293.5 864.2 296 864.3 291.8 864.4 289.6 864.5 291.2 864.5 290.8 864.6 292.9 864.6 294 864.6 294.8 864.7 293.2 864.8 293.9 864.8 295.4 864.9 297 865.1 297 865.1 297.6 865.1 299.9 865.1 298.6 865.1 299.5 865.1 299 865.2 298.9 865.2 298.7 865.2 299.9 865.2 300.2 865.3 300.1 865.3 299.6 865.3 299.3 865.3 300.2 865.3 300.8 865.4 301.9 865.4 302.7 865.5 301.8 865.6 302.1 865.7 302 865.7 304.3 865.7 307.3 865.7 304.1 865.7 300.9 865.7 301.1 865.8 301.9 865.8 304.5 865.8 305.2 865.9 305.9 865.9 305 865.9 305 865.9 305.9 866 306.4 866 309.3 866.1 314.5 866.2 320.9 866.2 323 866.2 329.7 866.3 327.6 866.3 326.6 866.3 324.7 866.3 325.3 866.3 322 866.3 318.7 866.3 318.5 866.4 315.4 866.4 313.3 866.4 311.9 866.5 311.7 866.5 310.4 866.6 309.1 866.6 310.2 866.8 306.9 866.9 307.9 866.9 308.7 866.9 311.5 867 307.3 867 308 867 309 867.1 306.4 867.1 304.7 867.2 302.1 867.3 302.4 867.4 303.5 867.5 303.1 867.5 302.3 867.5 302.2 867.5 304.4 867.6 303.9 867.6 303.9 867.7 303.8 867.7 303.2 867.8 301.1 867.9 301.8 868 296.9 868 292.2 868 299.5 868.1 296.9 868.1 296.3 868.1 296.6 868.2 298.4 868.2 296.8 868.2 297.9 868.3 295.8 868.3 295.1 868.4 294.9 868.5 295 868.6 294.9 868.7 296.5 868.7 297.1 868.8 298.4 868.8 298.1 868.9 296.4 869 296.8 869.2 293.8 869.3 294.2 869.4 297.6 869.5 297.2 869.5 297.9 869.6 296 869.8 295.7 869.9 293.7 870 294.7 870 296.7 870.1 297.1 870.2 297.9 870.3 295.1 870.3 309.3 870.3 304.7 870.3 300.2 870.5 298.4 870.6 297.8 870.7 293.7 870.9 294.4 871 295.7 871.1 295.6 871.2 296.3 871.3 294.8 871.5 296.7 871.7 294.6 871.8 292.9 871.9 295.5 872 293.5 872 296.3 872.1 295.9 872.2 294.7 872.4 294.2 872.5 295.7 872.6 290.4 872.8 293.4 872.9 292.6 873.1 292.4 873.2 295.6 873.3 293.5 873.4 291.2 873.5 294 873.6 295.7 873.7 292.1 873.9 293.2 874 293.5 874 293.6 874.1 294.8 874.2 296.7 874.3 298 874.4 302.8 874.6 296.3 874.7 296.2 874.9 295.7 875 296.9 875.1 297.7 875.2 298.1 875.2 298.7 875.3 299.2 875.4 297.8 875.6 300.1 875.7 299.5 875.8 300.1 876 299.2 876.1 299 876.3 299 876.4 298.2 876.5 298.7 876.6 299 876.7 302.4 876.7 304.4 876.8 303.7 877 301.9 877.1 304.4 877.2 303.2 877.3 303.4 877.3 300.3 877.4 301.5 877.5 303 877.6 304.5 877.7 303.7 877.8 304.7 877.8 304.5 878 306.9 878 304.7 878.1 306.8 878.3 302.9 878.3 306.7 878.3 302.5 878.5 302.6 878.6 304.7 878.7 307.7 878.8 305.1 878.9 307.5 879 306.6 879.1 309.1 879.1 308.9 879.2 308.3 879.3 308.7 879.4 308.5 879.4 307.2 879.5 306.3 879.6 305.8 879.8 306.3 879.9 306.1 880 306.8 880.1 305.1 880.2 304.4 880.3 303.1 880.4 305.2 880.5 304.5 880.7 304.6 880.8 306.6 881 306.7 881.2 305.6 881.3 303.7 881.4 305.3 881.5 303.7 881.8 303.1 881.9 302.9 882.1 300.6 882.2 303.7 882.3 303 882.5 301.8 882.6 301.6 882.7 303.2 882.8 304.8 882.9 304.2 883 295.3 883 300.2 883.2 299.7 883.3 300 883.4 300.6 883.6 299.7 883.7 300.3 884 296.9 884.1 299 884.2 296.4 884.4 295.5 884.5 295.1 884.6 293.5 884.7 294.9 884.8 290 884.9 292 885.2 292.2 885.3 294.3 885.3 289.2 885.5 289.7 885.5 288.4 885.6 288.4 885.7 286.7 885.8 288.8 885.9 287.4 885.9 287.6 886 288.1 886 288.1 886 288.4 886.1 285.8 886.1 285.4 886.2 285 886.3 286.7 886.3 287.7 886.4 284.7 886.5 284.8 886.6 285.8 886.7 284.7 886.8 283.9 886.9 284 887 283.4 887.1 283.6 887.2 284.6 887.2 285.1 887.3 284.8 887.4 282 887.5 282.2 887.7 280.1 887.7 282.4 887.9 281.5 888.1 281.3 888.3 279.7 888.4 281 888.5 280.3 888.7 278.9 888.8 279.3 888.9 278.3 889 278.6 889.2 279 889.4 280.5 889.6 276.6 889.8 276 890 276.5 890.1 276.3 890.2 278.9 890.3 279.2 890.5 277.6 890.7 275.4 891 272.3 891.3 271 891.5 269.3 891.8 270 892.1 269.9 892.4 271.8 892.5 270 892.7 272.6 893 274.5 893.1 275.7 893.2 276.3 893.2 275.8 893.3 276.3 893.3 275.8 893.5 275 893.6 273.3 893.8 273.6 893.8 273.8 894 271.8 894.1 272 894.2 272.9 894.4 274.1 894.6 275.4 894.8 277 895 276.1 895.1 274.3 895.2 274.6 895.4 274.5 895.5 275 895.6 274.8 895.8 276.5 895.9 275.8 896 275.7 896.2 275 896.3 275.5 896.5 276.4 896.6 279.5 896.7 279 896.8 277.1 896.9 275.8 897.1 274.1 897.3 273 897.4 272.8 897.5 272 897.8 273.6 898 273.7 898.1 273.8 898.2 273 898.4 273.5 898.5 274.1 898.7 273.5 898.9 272.6 899 271.7 899.2 272.1 899.4 274.1 899.5 274.5 899.6 274.4 899.8 274.6 899.9 273.9 900 273.4 900.2 273.4 900.3 272.6 900.5 273.8 900.6 273.4 900.8 274.5 901.1 274.2 901.3 274.2 901.4 274.4 901.5 274.8 901.7 273.1 902 271.5 902.1 273.2 902.2 272.8 902.5 272.1 902.6 272.3 902.9 271.2 903.2 270.7 903.3 270.4 903.4 270.3 903.7 269.3 903.9 271 904.2 272.5 904.5 271.8 904.7 271.5 904.9 272.3 905 271 905.3 272.7 905.5 270.7 905.6 272.3 905.7 270.7 906 272.4 906 273.2 906.1 271.3 906.3 270.9 906.3 269.9 906.4 269.2 906.5 269 906.6 268.7 906.6 269.6 906.8 269.2 906.9 268.3 907 267.3 907.3 267 907.5 266.4 907.6 265.7 907.6 264.8 907.7 264.7 907.7 264.3 907.7 264.4 907.8 264.2 907.8 264.9 907.8 264.5 907.9 263.9 908.1 262.8 908.6 261.8 908.8 261.8 909.2 261.2 909.5 260.9 909.7 260 909.8 259.6 909.9 260 910 259.6 910.2 256.1 910.4 256.1 910.5 256.8 910.8 256.5 911 257.2 911.1 257.3 911.5 255.2 911.5 255.5 911.6 252.8 911.6 253.1 911.8 251 912 248.6 912.3 248.9 912.5 250.3 912.7 248.7 912.8 248.3 912.9 246.7 913 248.6 913.2 249 913.3 248.1 913.3 247.8 913.3 248.3 913.4 248.5 913.5 249 913.7 247.8 913.8 247.5 913.9 246.5 914 246.2 914.1 247.5 914.2 246.5 914.4 246.7 914.4 245.4 914.5 245.1 914.6 243.6 914.7 243.1 914.7 243.3 914.7 244.7 914.8 245.5 914.9 244.2 915 245.2 915.2 245.6 915.3 245.2 915.4 244.6 915.5 241.9 915.6 241.7 915.7 242.7 915.8 242.8 915.9 243.5 916 243.7 916.2 244.4 916.3 243.6 916.4 241.3 916.4 241.8 916.4 241.9 916.4 242 916.6 243.8 916.7 243 916.7 242.5 916.8 242.9 917 243.9 917.1 245 917.3 245.7 917.4 243.9 917.5 243.7 917.5 243.3 917.6 243.5 917.8 244.8 917.9 246.1 918 247.7 918 247.6 918.1 247.3 918.4 248.4 918.7 246.1 918.9 243.6 919.1 245.7 919.2 243.9 919.4 243.6 919.5 242.5 919.7 242.5 919.8 242.5 920 242.8 920.1 242.9 920.2 242.8 920.4 242.2 920.5 241.7 920.9 241.4 921.1 243.1 921.5 241.3 921.7 242.3 921.8 242.7 922.2 241.9 922.3 242 922.4 242.1 922.5 241.5 922.8 242 922.9 242.5 923 242.7 923.2 240.4 923.3 240.8 923.4 241.9 923.6 240.9 923.7 240.1 923.8 238.7 924 239.7 924.3 241 924.4 239.4 924.6 239.4 924.8 238.3 925.1 237.3 925.2 237.5 925.4 239.7 925.5 239.2 925.7 239.1 925.8 240.3 926 240.6 926.2 242.6 926.2 242.3 926.4 243.9 926.5 244.6 926.5 245 926.7 245.7 926.9 246.3 927 249.7 927.1 247.6 927.1 247.4 927.2 247.6 927.5 246.8 927.6 247 927.7 249.5 927.8 251.7 928.1 251.8 928.2 253.9 928.2 251.2 928.3 250.6 928.4 252.3 928.7 252 928.8 254.8 928.9 253.9 929.2 253.6 929.4 254 929.4 256.1 929.6 256.6 929.8 255.2 929.9 255.6 930.1 255.7 930.4 256.7 930.6 256.5 931 256.4 931.2 256.5 931.4 260.2 931.5 259.9 931.7 259.1 931.8 259.9 932 260.2 932.2 259.7 932.4 261.8 932.7 259 933 258.3 933.2 257.4 933.5 257 933.7 257.6 934 258.2 934 257.7" opacity=".6"/><text x="942" y="472" fill="#d97706" font-size="11" text-anchor="start">0.01</text><text x="942" y="396" fill="#d97706" font-size="11" text-anchor="start">0.01</text><text x="942" y="320" fill="#d97706" font-size="11" text-anchor="start">0.01</text><text x="942" y="244" fill="#d97706" font-size="11" text-anchor="start">0.01</text><text x="942" y="168" fill="#d97706" font-size="11" text-anchor="start">0.01</text><text x="942" y="92" fill="#d97706" font-size="11" text-anchor="start">0.01</text><text x="942" y="80" fill="#d97706" font-size="11" font-weight="600" text-anchor="start">price</text><polygon fill="#16a34a" fill-opacity=".08" points="614.4 468 614.4 451 614.4 452.8 824.9 444 826.8 446.5 835.6 434.1 836.2 437.7 836.3 442.1 836.9 420.1 837.5 400.2 837.8 407.3 838.2 372.1 838.3 381.5 838.6 393.2 838.7 407.9 838.9 335.5 838.9 344.6 839.1 355.9 839.1 370 839.1 387.7 839.1 396.1 839.1 406.7 839.7 354.6 839.9 363.6 841.3 374.9 841.3 389.1 841.4 319.2 841.4 328.3 841.4 339.6 841.8 353.7 841.8 371.4 842.1 335.6 842.8 298.6 843.8 261.6 847.3 224.6 852.6 187.5 853.2 196.6 855.4 151.9 856.1 116.1 856.2 125.2 865.7 136.5 865.7 150.6 866.1 168.3 867.2 177.4 907.4 132.7 907.4 468"/><polyline fill="none" stroke="#16a34a" stroke-linejoin="round" stroke-width="2" points="614.4 451 614.4 452.8 824.9 444 826.8 446.5 835.6 434.1 836.2 437.7 836.3 442.1 836.9 420.1 837.5 400.2 837.8 407.3 838.2 372.1 838.3 381.5 838.6 393.2 838.7 407.9 838.9 335.5 838.9 344.6 839.1 355.9 839.1 370 839.1 387.7 839.1 396.1 839.1 406.7 839.7 354.6 839.9 363.6 841.3 374.9 841.3 389.1 841.4 319.2 841.4 328.3 841.4 339.6 841.8 353.7 841.8 371.4 842.1 335.6 842.8 298.6 843.8 261.6 847.3 224.6 852.6 187.5 853.2 196.6 855.4 151.9 856.1 116.1 856.2 125.2 865.7 136.5 865.7 150.6 866.1 168.3 867.2 177.4 907.4 132.7"/><line x1="88" x2="110" y1="102" y2="102" stroke="#16a34a" stroke-width="2.5"/><text x="116" y="106" fill="#374151" font-size="11.5">equity</text><line x1="88" x2="110" y1="118" y2="118" stroke="#d97706" stroke-width="2.5" opacity=".8"/><text x="116" y="122" fill="#374151" font-size="11.5">price</text><text x="78" y="502" fill="#6b7280" font-size="12" text-anchor="start">2025-10-10</text><text x="934" y="502" fill="#6b7280" font-size="12" text-anchor="end">2025-10-10</text></svg>