<svg xmlns="http://www.w3.org/2000/svg" width="1100" height="560" font-family="ui-sans-serif, system-ui, sans-serif" viewBox="0 0 1100 560"><rect width="1100" height="560" fill="#fff"/><text x="80" y="28" fill="#111827" font-size="18" font-weight="700">Zone Recovery — 1000SHIBUSDC fee-tier comparison (best setting)</text><text x="80" y="48" fill="#6b7280" font-size="12.5">lev 20 · ratio 4 · gap 35% · maxSteps 4 · maxDD 60% · random · equity per fee tier vip 0..9</text><text x="80" y="68" fill="#1d4ed8" font-size="12.5" font-weight="600">USDC margin · BNB −10%</text><line x1="80" x2="932" y1="508" y2="508" stroke="#e5e7eb" stroke-width="1"/><text x="70" y="512" fill="#6b7280" font-size="12" text-anchor="end">0.00</text><line x1="80" x2="932" y1="424" y2="424" stroke="#e5e7eb" stroke-width="1"/><text x="70" y="428" fill="#6b7280" font-size="12" text-anchor="end">44814</text><line x1="80" x2="932" y1="340" y2="340" stroke="#e5e7eb" stroke-width="1"/><text x="70" y="344" fill="#6b7280" font-size="12" text-anchor="end">89628</text><line x1="80" x2="932" y1="256" y2="256" stroke="#e5e7eb" stroke-width="1"/><text x="70" y="260" fill="#6b7280" font-size="12" text-anchor="end">134442</text><line x1="80" x2="932" y1="172" y2="172" stroke="#e5e7eb" stroke-width="1"/><text x="70" y="176" fill="#6b7280" font-size="12" text-anchor="end">179256</text><line x1="80" x2="932" y1="88" y2="88" stroke="#e5e7eb" stroke-width="1"/><text x="70" y="92" fill="#6b7280" font-size="12" text-anchor="end">224069</text><line x1="80" x2="932" y1="489.3" y2="489.3" stroke="#9ca3af" stroke-dasharray="6 4" stroke-width="1.5"/><polyline fill="none" stroke="#2563eb" stroke-linejoin="round" stroke-width="1.8" points="80 489.3 80 491.3 692 481.6 697.7 484.5 723.3 470.9 725 474.9 725.3 479.9 727.1 456.1 728.7 434.6 729.7 442.6 730.8 404.8 731.2 415.5 732.1 428.8 732.1 445.5 732.8 366.1 732.9 376.5 733.4 389.3 733.5 405.5 733.5 425.6 733.5 434.5 733.6 445.7 735.3 392.6 735.8 403 739.8 415.9 739.9 432 740 355.4 740.1 365.8 740.1 378.6 741.3 394.8 741.3 414.9 742.2 376.5 744.2 336 747.2 295.4 757.2 254.8 772.8 214.2 774.3 224.5 780.8 175.5 782.8 136.3 783 146.6 810.7 159.5 810.7 175.6 811.8 195.8 815.1 206.1 932 157.1" opacity=".9"/><polyline fill="none" stroke="#dc2626" stroke-linejoin="round" stroke-width="1.8" points="80 489.3 80 491.3 692 481.6 697.7 484.5 723.3 470.9 725 474.9 725.3 479.9 727.1 456.1 728.7 434.6 729.7 442.6 730.8 404.8 731.2 415.5 732.1 428.8 732.1 445.5 732.8 366.1 732.9 376.5 733.4 389.3 733.5 405.5 733.5 425.6 733.5 434.5 733.6 445.7 735.3 392.6 735.8 403 739.8 415.9 739.9 432 740 355.4 740.1 365.8 740.1 378.6 741.3 394.8 741.3 414.9 742.2 376.5 744.2 336 747.2 295.4 757.2 254.8 772.8 214.2 774.3 224.5 780.8 175.5 782.8 136.3 783 146.6 810.7 159.5 810.7 175.6 811.8 195.8 815.1 206.1 932 157.1" opacity=".9"/><polyline fill="none" stroke="#16a34a" stroke-linejoin="round" stroke-width="1.8" points="80 489.3 80 491.3 692 481.6 697.7 484.4 723.3 470.8 725 474.8 725.3 479.8 727.1 455.8 728.7 434.2 729.7 442.2 730.8 404.1 731.2 414.7 732.1 427.9 732.1 444.5 732.8 365 732.9 375.2 733.4 388 733.5 404 733.5 423.9 733.5 433 733.6 444.3 735.3 390 735.8 400.3 739.8 413.1 739.9 429.1 740 352.4 740.1 362.6 740.1 375.4 741.3 391.4 741.3 411.4 742.2 372.1 744.2 331.4 747.2 290.7 757.2 250 772.8 209.4 774.3 219.6 780.8 170.5 782.8 131.2 783 141.4 810.7 154.2 810.7 170.2 811.8 190.2 815.1 200.4 932 151.3" opacity=".9"/><polyline fill="none" stroke="#d97706" stroke-linejoin="round" stroke-width="1.8" points="80 489.3 80 491.3 692 481.6 697.7 484.4 723.3 470.7 725 474.7 725.3 479.7 727.1 455.6 728.7 433.9 729.7 441.8 730.8 403.5 731.2 414 732.1 427.2 732.1 443.6 732.8 364 732.9 374.2 733.4 386.9 733.5 402.8 733.5 422.6 733.5 431.7 733.6 443.1 735.3 388 735.8 398.1 739.8 410.8 739.9 426.7 740 349.9 740.1 360.1 740.1 372.8 741.3 388.6 741.3 408.5 742.2 369.1 744.2 328.4 747.2 287.6 757.2 246.9 772.8 206.2 774.3 216.3 780.8 167.1 782.8 127.8 783 138 810.7 150.7 810.7 166.5 811.8 186.4 815.1 196.6 932 147.4" opacity=".9"/><polyline fill="none" stroke="#7c3aed" stroke-linejoin="round" stroke-width="1.8" points="80 489.3 80 491.2 692 481.5 697.7 484.3 723.3 470.6 725 474.6 725.3 479.5 727.1 455.3 728.7 433.4 729.7 441.3 730.8 402.7 731.2 413.1 732.1 426.2 732.1 442.5 732.8 362.6 732.9 372.7 733.4 385.3 733.5 401 733.5 420.7 733.5 430 733.6 441.5 735.3 385 735.8 395 739.8 407.6 739.9 423.4 740 346.4 740.1 356.4 740.1 369 741.3 384.8 741.3 404.4 742.2 365 744.2 324.1 747.2 283.3 757.2 242.4 772.8 201.6 774.3 211.7 780.8 162.4 782.8 122.9 783 133 810.7 145.6 810.7 161.3 811.8 181 815.1 191.1 932 141.8" opacity=".9"/><polyline fill="none" stroke="#0891b2" stroke-linejoin="round" stroke-width="1.8" points="80 489.3 80 491.2 692 481.5 697.7 484.3 723.3 470.6 725 474.5 725.3 479.5 727.1 455.2 728.7 433.4 729.7 441.2 730.8 402.5 731.2 413 732.1 426 732.1 442.2 732.8 362.4 732.9 372.5 733.4 385 733.5 400.7 733.5 420.4 733.5 429.6 733.6 441.2 735.3 384.4 735.8 394.5 739.8 407.1 739.9 422.8 740 345.7 740.1 355.8 740.1 368.4 741.3 384.1 741.3 403.7 742.2 364.2 744.2 323.4 747.2 282.5 757.2 241.7 772.8 200.8 774.3 210.8 780.8 161.5 782.8 122.1 783 132.1 810.7 144.7 810.7 160.4 811.8 180 815.1 190.1 932 140.8" opacity=".9"/><polyline fill="none" stroke="#db2777" stroke-linejoin="round" stroke-width="1.8" points="80 489.3 80 491.2 692 481.5 697.7 484.3 723.3 470.6 725 474.5 725.3 479.5 727.1 455.2 728.7 433.3 729.7 441.2 730.8 402.4 731.2 412.8 732.1 425.8 732.1 442.1 732.8 362.2 732.9 372.3 733.4 384.8 733.5 400.5 733.5 420.2 733.5 429.4 733.6 441 735.3 384.1 735.8 394.1 739.8 406.7 739.9 422.4 740 345.3 740.1 355.3 740.1 367.9 741.3 383.6 741.3 403.2 742.2 363.7 744.2 322.9 747.2 282 757.2 241.1 772.8 200.2 774.3 210.3 780.8 161 782.8 121.5 783 131.5 810.7 144.1 810.7 159.8 811.8 179.4 815.1 189.4 932 140.1" opacity=".9"/><polyline fill="none" stroke="#65a30d" stroke-linejoin="round" stroke-width="1.8" points="80 489.3 80 491.2 692 481.5 697.7 484.3 723.3 470.6 725 474.5 725.3 479.4 727.1 455.1 728.7 433.2 729.7 441.1 730.8 402.3 731.2 412.7 732.1 425.7 732.1 441.9 732.8 362 732.9 372 733.4 384.5 733.5 400.2 733.5 419.8 733.5 429.1 733.6 440.7 735.3 383.5 735.8 393.6 739.8 406.1 739.9 421.8 740 344.6 740.1 354.7 740.1 367.2 741.3 382.9 741.3 402.5 742.2 363 744.2 322.1 747.2 281.2 757.2 240.3 772.8 199.4 774.3 209.4 780.8 160.1 782.8 120.6 783 130.6 810.7 143.1 810.7 158.8 811.8 178.4 815.1 188.4 932 139.1" opacity=".9"/><polyline fill="none" stroke="#475569" stroke-linejoin="round" stroke-width="1.8" points="80 489.3 80 491.2 692 481.5 697.7 484.3 723.3 470.5 725 474.5 725.3 479.4 727.1 455.1 728.7 433.2 729.7 441 730.8 402.2 731.2 412.6 732.1 425.5 732.1 441.7 732.8 361.8 732.9 371.8 733.4 384.4 733.5 400 733.5 419.6 733.5 428.9 733.6 440.5 735.3 383.2 735.8 393.2 739.8 405.7 739.9 421.3 740 344.2 740.1 354.2 740.1 366.7 741.3 382.4 741.3 402 742.2 362.5 744.2 321.5 747.2 280.6 757.2 239.7 772.8 198.8 774.3 208.8 780.8 159.5 782.8 120 783 130 810.7 142.5 810.7 158.2 811.8 177.7 815.1 187.7 932 138.4" opacity=".9"/><polyline fill="none" stroke="#ea580c" stroke-linejoin="round" stroke-width="1.8" points="80 489.3 80 491.2 692 481.5 697.7 484.3 723.3 470.5 725 474.5 725.3 479.4 727.1 455.1 728.7 433.1 729.7 440.9 730.8 402 731.2 412.4 732.1 425.3 732.1 441.5 732.8 361.6 732.9 371.6 733.4 384.1 733.5 399.7 733.5 419.2 733.5 428.6 733.6 440.2 735.3 382.6 735.8 392.6 739.8 405.1 739.9 420.8 740 343.6 740.1 353.6 740.1 366.1 741.3 381.7 741.3 401.2 742.2 361.7 744.2 320.8 747.2 279.9 757.2 238.9 772.8 198 774.3 208 780.8 158.6 782.8 119.1 783 129.1 810.7 141.6 810.7 157.2 811.8 176.8 815.1 186.8 932 137.4" opacity=".9"/><line x1="950" x2="972" y1="94" y2="94" stroke="#ea580c" stroke-width="3"/><text x="980" y="98" fill="#374151" font-size="12.5">vip 9 197727</text><line x1="950" x2="972" y1="116" y2="116" stroke="#475569" stroke-width="3"/><text x="980" y="120" fill="#374151" font-size="12.5">vip 8 197198</text><line x1="950" x2="972" y1="138" y2="138" stroke="#65a30d" stroke-width="3"/><text x="980" y="142" fill="#374151" font-size="12.5">vip 7 196834</text><line x1="950" x2="972" y1="160" y2="160" stroke="#db2777" stroke-width="3"/><text x="980" y="164" fill="#374151" font-size="12.5">vip 6 196272</text><line x1="950" x2="972" y1="182" y2="182" stroke="#0891b2" stroke-width="3"/><text x="980" y="186" fill="#374151" font-size="12.5">vip 5 195909</text><line x1="950" x2="972" y1="204" y2="204" stroke="#7c3aed" stroke-width="3"/><text x="980" y="208" fill="#374151" font-size="12.5">vip 4 195380</text><line x1="950" x2="972" y1="226" y2="226" stroke="#d97706" stroke-width="3"/><text x="980" y="230" fill="#374151" font-size="12.5">vip 3 192382</text><line x1="950" x2="972" y1="248" y2="248" stroke="#16a34a" stroke-width="3"/><text x="980" y="252" fill="#374151" font-size="12.5">vip 2 190281</text><line x1="950" x2="972" y1="270" y2="270" stroke="#2563eb" stroke-width="3"/><text x="980" y="274" fill="#374151" font-size="12.5">vip 0 187205</text><line x1="950" x2="972" y1="292" y2="292" stroke="#dc2626" stroke-width="3"/><text x="980" y="296" fill="#374151" font-size="12.5">vip 1 187205</text><text x="80" y="542" fill="#6b7280" font-size="12" text-anchor="start">2025-10-10</text><text x="932" y="542" fill="#6b7280" font-size="12" text-anchor="end">2025-10-10</text></svg>