<?xml version="1.0" encoding="UTF-8"?>
<svg xmlns="http://www.w3.org/2000/svg" width="1100" height="560" viewBox="0 0 1100 560" font-family="ui-sans-serif, system-ui, sans-serif">
  <rect width="1100" height="560" fill="#ffffff"/>
  <text x="80" y="28" font-size="18" font-weight="700" fill="#111827">Zone Recovery — 1000SHIBUSDC fee-tier comparison (best setting)</text>
  <text x="80" y="48" font-size="12.5" fill="#6b7280">lev 20 · ratio 4 · gap 35% · maxSteps 4 · maxDD 60% · random  ·  equity per fee tier vip 0..9</text>
  <text x="80" y="68" font-size="12.5" font-weight="600" fill="#1d4ed8">USDC margin · BNB −10%</text>
  <line x1="80" y1="508.0" x2="932" y2="508.0" stroke="#e5e7eb" stroke-width="1"/><text x="70" y="512.0" text-anchor="end" font-size="12" fill="#6b7280">0.00</text><line x1="80" y1="424.0" x2="932" y2="424.0" stroke="#e5e7eb" stroke-width="1"/><text x="70" y="428.0" text-anchor="end" font-size="12" fill="#6b7280">44814</text><line x1="80" y1="340.0" x2="932" y2="340.0" stroke="#e5e7eb" stroke-width="1"/><text x="70" y="344.0" text-anchor="end" font-size="12" fill="#6b7280">89628</text><line x1="80" y1="256.0" x2="932" y2="256.0" stroke="#e5e7eb" stroke-width="1"/><text x="70" y="260.0" text-anchor="end" font-size="12" fill="#6b7280">134442</text><line x1="80" y1="172.0" x2="932" y2="172.0" stroke="#e5e7eb" stroke-width="1"/><text x="70" y="176.0" text-anchor="end" font-size="12" fill="#6b7280">179256</text><line x1="80" y1="88.0" x2="932" y2="88.0" stroke="#e5e7eb" stroke-width="1"/><text x="70" y="92.0" text-anchor="end" font-size="12" fill="#6b7280">224069</text>
  <line x1="80" y1="489.3" x2="932" y2="489.3" stroke="#9ca3af" stroke-width="1.5" stroke-dasharray="6 4"/>
  <polyline points="80.0,489.3 80.0,491.3 692.0,481.6 697.7,484.5 723.3,470.9 725.0,474.9 725.3,479.9 727.1,456.1 728.7,434.6 729.7,442.6 730.8,404.8 731.2,415.5 732.1,428.8 732.1,445.5 732.8,366.1 732.9,376.5 733.4,389.3 733.5,405.5 733.5,425.6 733.5,434.5 733.6,445.7 735.3,392.6 735.8,403.0 739.8,415.9 739.9,432.0 740.0,355.4 740.1,365.8 740.1,378.6 741.3,394.8 741.3,414.9 742.2,376.5 744.2,336.0 747.2,295.4 757.2,254.8 772.8,214.2 774.3,224.5 780.8,175.5 782.8,136.3 783.0,146.6 810.7,159.5 810.7,175.6 811.8,195.8 815.1,206.1 932.0,157.1" fill="none" stroke="#2563eb" stroke-width="1.8" stroke-linejoin="round" opacity="0.9"/>
  <polyline points="80.0,489.3 80.0,491.3 692.0,481.6 697.7,484.5 723.3,470.9 725.0,474.9 725.3,479.9 727.1,456.1 728.7,434.6 729.7,442.6 730.8,404.8 731.2,415.5 732.1,428.8 732.1,445.5 732.8,366.1 732.9,376.5 733.4,389.3 733.5,405.5 733.5,425.6 733.5,434.5 733.6,445.7 735.3,392.6 735.8,403.0 739.8,415.9 739.9,432.0 740.0,355.4 740.1,365.8 740.1,378.6 741.3,394.8 741.3,414.9 742.2,376.5 744.2,336.0 747.2,295.4 757.2,254.8 772.8,214.2 774.3,224.5 780.8,175.5 782.8,136.3 783.0,146.6 810.7,159.5 810.7,175.6 811.8,195.8 815.1,206.1 932.0,157.1" fill="none" stroke="#dc2626" stroke-width="1.8" stroke-linejoin="round" opacity="0.9"/>
  <polyline points="80.0,489.3 80.0,491.3 692.0,481.6 697.7,484.4 723.3,470.8 725.0,474.8 725.3,479.8 727.1,455.8 728.7,434.2 729.7,442.2 730.8,404.1 731.2,414.7 732.1,427.9 732.1,444.5 732.8,365.0 732.9,375.2 733.4,388.0 733.5,404.0 733.5,423.9 733.5,433.0 733.6,444.3 735.3,390.0 735.8,400.3 739.8,413.1 739.9,429.1 740.0,352.4 740.1,362.6 740.1,375.4 741.3,391.4 741.3,411.4 742.2,372.1 744.2,331.4 747.2,290.7 757.2,250.0 772.8,209.4 774.3,219.6 780.8,170.5 782.8,131.2 783.0,141.4 810.7,154.2 810.7,170.2 811.8,190.2 815.1,200.4 932.0,151.3" fill="none" stroke="#16a34a" stroke-width="1.8" stroke-linejoin="round" opacity="0.9"/>
  <polyline points="80.0,489.3 80.0,491.3 692.0,481.6 697.7,484.4 723.3,470.7 725.0,474.7 725.3,479.7 727.1,455.6 728.7,433.9 729.7,441.8 730.8,403.5 731.2,414.0 732.1,427.2 732.1,443.6 732.8,364.0 732.9,374.2 733.4,386.9 733.5,402.8 733.5,422.6 733.5,431.7 733.6,443.1 735.3,388.0 735.8,398.1 739.8,410.8 739.9,426.7 740.0,349.9 740.1,360.1 740.1,372.8 741.3,388.6 741.3,408.5 742.2,369.1 744.2,328.4 747.2,287.6 757.2,246.9 772.8,206.2 774.3,216.3 780.8,167.1 782.8,127.8 783.0,138.0 810.7,150.7 810.7,166.5 811.8,186.4 815.1,196.6 932.0,147.4" fill="none" stroke="#d97706" stroke-width="1.8" stroke-linejoin="round" opacity="0.9"/>
  <polyline points="80.0,489.3 80.0,491.2 692.0,481.5 697.7,484.3 723.3,470.6 725.0,474.6 725.3,479.5 727.1,455.3 728.7,433.4 729.7,441.3 730.8,402.7 731.2,413.1 732.1,426.2 732.1,442.5 732.8,362.6 732.9,372.7 733.4,385.3 733.5,401.0 733.5,420.7 733.5,430.0 733.6,441.5 735.3,385.0 735.8,395.0 739.8,407.6 739.9,423.4 740.0,346.4 740.1,356.4 740.1,369.0 741.3,384.8 741.3,404.4 742.2,365.0 744.2,324.1 747.2,283.3 757.2,242.4 772.8,201.6 774.3,211.7 780.8,162.4 782.8,122.9 783.0,133.0 810.7,145.6 810.7,161.3 811.8,181.0 815.1,191.1 932.0,141.8" fill="none" stroke="#7c3aed" stroke-width="1.8" stroke-linejoin="round" opacity="0.9"/>
  <polyline points="80.0,489.3 80.0,491.2 692.0,481.5 697.7,484.3 723.3,470.6 725.0,474.5 725.3,479.5 727.1,455.2 728.7,433.4 729.7,441.2 730.8,402.5 731.2,413.0 732.1,426.0 732.1,442.2 732.8,362.4 732.9,372.5 733.4,385.0 733.5,400.7 733.5,420.4 733.5,429.6 733.6,441.2 735.3,384.4 735.8,394.5 739.8,407.1 739.9,422.8 740.0,345.7 740.1,355.8 740.1,368.4 741.3,384.1 741.3,403.7 742.2,364.2 744.2,323.4 747.2,282.5 757.2,241.7 772.8,200.8 774.3,210.8 780.8,161.5 782.8,122.1 783.0,132.1 810.7,144.7 810.7,160.4 811.8,180.0 815.1,190.1 932.0,140.8" fill="none" stroke="#0891b2" stroke-width="1.8" stroke-linejoin="round" opacity="0.9"/>
  <polyline points="80.0,489.3 80.0,491.2 692.0,481.5 697.7,484.3 723.3,470.6 725.0,474.5 725.3,479.5 727.1,455.2 728.7,433.3 729.7,441.2 730.8,402.4 731.2,412.8 732.1,425.8 732.1,442.1 732.8,362.2 732.9,372.3 733.4,384.8 733.5,400.5 733.5,420.2 733.5,429.4 733.6,441.0 735.3,384.1 735.8,394.1 739.8,406.7 739.9,422.4 740.0,345.3 740.1,355.3 740.1,367.9 741.3,383.6 741.3,403.2 742.2,363.7 744.2,322.9 747.2,282.0 757.2,241.1 772.8,200.2 774.3,210.3 780.8,161.0 782.8,121.5 783.0,131.5 810.7,144.1 810.7,159.8 811.8,179.4 815.1,189.4 932.0,140.1" fill="none" stroke="#db2777" stroke-width="1.8" stroke-linejoin="round" opacity="0.9"/>
  <polyline points="80.0,489.3 80.0,491.2 692.0,481.5 697.7,484.3 723.3,470.6 725.0,474.5 725.3,479.4 727.1,455.1 728.7,433.2 729.7,441.1 730.8,402.3 731.2,412.7 732.1,425.7 732.1,441.9 732.8,362.0 732.9,372.0 733.4,384.5 733.5,400.2 733.5,419.8 733.5,429.1 733.6,440.7 735.3,383.5 735.8,393.6 739.8,406.1 739.9,421.8 740.0,344.6 740.1,354.7 740.1,367.2 741.3,382.9 741.3,402.5 742.2,363.0 744.2,322.1 747.2,281.2 757.2,240.3 772.8,199.4 774.3,209.4 780.8,160.1 782.8,120.6 783.0,130.6 810.7,143.1 810.7,158.8 811.8,178.4 815.1,188.4 932.0,139.1" fill="none" stroke="#65a30d" stroke-width="1.8" stroke-linejoin="round" opacity="0.9"/>
  <polyline points="80.0,489.3 80.0,491.2 692.0,481.5 697.7,484.3 723.3,470.5 725.0,474.5 725.3,479.4 727.1,455.1 728.7,433.2 729.7,441.0 730.8,402.2 731.2,412.6 732.1,425.5 732.1,441.7 732.8,361.8 732.9,371.8 733.4,384.4 733.5,400.0 733.5,419.6 733.5,428.9 733.6,440.5 735.3,383.2 735.8,393.2 739.8,405.7 739.9,421.3 740.0,344.2 740.1,354.2 740.1,366.7 741.3,382.4 741.3,402.0 742.2,362.5 744.2,321.5 747.2,280.6 757.2,239.7 772.8,198.8 774.3,208.8 780.8,159.5 782.8,120.0 783.0,130.0 810.7,142.5 810.7,158.2 811.8,177.7 815.1,187.7 932.0,138.4" fill="none" stroke="#475569" stroke-width="1.8" stroke-linejoin="round" opacity="0.9"/>
  <polyline points="80.0,489.3 80.0,491.2 692.0,481.5 697.7,484.3 723.3,470.5 725.0,474.5 725.3,479.4 727.1,455.1 728.7,433.1 729.7,440.9 730.8,402.0 731.2,412.4 732.1,425.3 732.1,441.5 732.8,361.6 732.9,371.6 733.4,384.1 733.5,399.7 733.5,419.2 733.5,428.6 733.6,440.2 735.3,382.6 735.8,392.6 739.8,405.1 739.9,420.8 740.0,343.6 740.1,353.6 740.1,366.1 741.3,381.7 741.3,401.2 742.2,361.7 744.2,320.8 747.2,279.9 757.2,238.9 772.8,198.0 774.3,208.0 780.8,158.6 782.8,119.1 783.0,129.1 810.7,141.6 810.7,157.2 811.8,176.8 815.1,186.8 932.0,137.4" fill="none" stroke="#ea580c" stroke-width="1.8" stroke-linejoin="round" opacity="0.9"/>
  <line x1="950" y1="94" x2="972" y2="94" stroke="#ea580c" stroke-width="3"/><text x="980" y="98" font-size="12.5" fill="#374151">vip 9  197727</text>
  <line x1="950" y1="116" x2="972" y2="116" stroke="#475569" stroke-width="3"/><text x="980" y="120" font-size="12.5" fill="#374151">vip 8  197198</text>
  <line x1="950" y1="138" x2="972" y2="138" stroke="#65a30d" stroke-width="3"/><text x="980" y="142" font-size="12.5" fill="#374151">vip 7  196834</text>
  <line x1="950" y1="160" x2="972" y2="160" stroke="#db2777" stroke-width="3"/><text x="980" y="164" font-size="12.5" fill="#374151">vip 6  196272</text>
  <line x1="950" y1="182" x2="972" y2="182" stroke="#0891b2" stroke-width="3"/><text x="980" y="186" font-size="12.5" fill="#374151">vip 5  195909</text>
  <line x1="950" y1="204" x2="972" y2="204" stroke="#7c3aed" stroke-width="3"/><text x="980" y="208" font-size="12.5" fill="#374151">vip 4  195380</text>
  <line x1="950" y1="226" x2="972" y2="226" stroke="#d97706" stroke-width="3"/><text x="980" y="230" font-size="12.5" fill="#374151">vip 3  192382</text>
  <line x1="950" y1="248" x2="972" y2="248" stroke="#16a34a" stroke-width="3"/><text x="980" y="252" font-size="12.5" fill="#374151">vip 2  190281</text>
  <line x1="950" y1="270" x2="972" y2="270" stroke="#2563eb" stroke-width="3"/><text x="980" y="274" font-size="12.5" fill="#374151">vip 0  187205</text>
  <line x1="950" y1="292" x2="972" y2="292" stroke="#dc2626" stroke-width="3"/><text x="980" y="296" font-size="12.5" fill="#374151">vip 1  187205</text>
  <text x="80" y="542" text-anchor="start" font-size="12" fill="#6b7280">2025-10-10</text><text x="932" y="542" text-anchor="end" font-size="12" fill="#6b7280">2025-10-10</text>
</svg>
