<?xml version="1.0" encoding="UTF-8"?>
<svg xmlns="http://www.w3.org/2000/svg" width="1000" height="520" viewBox="0 0 1000 520" font-family="ui-sans-serif, system-ui, sans-serif">
  <rect width="1000" height="520" fill="#ffffff"/>
  <text x="78" y="28" font-size="18" font-weight="700" fill="#111827">Zone Recovery — best setting (equity / PnL)</text>
  <text x="78" y="48" font-size="12.5" fill="#6b7280">lev 50 · ratio 3 · gap 40% · maxSteps 5 · maxDD 50% · random · vip 9  ·  23 series, 95.7% win, fees 3383.23 USDT</text>
  <text x="968" y="28" text-anchor="end" font-size="18" font-weight="700" fill="#16a34a">+61399 USDT  (+613.99%)</text>
  <line x1="78" y1="468.0" x2="968" y2="468.0" stroke="#e5e7eb" stroke-width="1"/><text x="68" y="472.0" text-anchor="end" font-size="12" fill="#6b7280">0.00</text><line x1="78" y1="387.2" x2="968" y2="387.2" stroke="#e5e7eb" stroke-width="1"/><text x="68" y="391.2" text-anchor="end" font-size="12" fill="#6b7280">23480</text><line x1="78" y1="306.4" x2="968" y2="306.4" stroke="#e5e7eb" stroke-width="1"/><text x="68" y="310.4" text-anchor="end" font-size="12" fill="#6b7280">46961</text><line x1="78" y1="225.6" x2="968" y2="225.6" stroke="#e5e7eb" stroke-width="1"/><text x="68" y="229.6" text-anchor="end" font-size="12" fill="#6b7280">70441</text><line x1="78" y1="144.8" x2="968" y2="144.8" stroke="#e5e7eb" stroke-width="1"/><text x="68" y="148.8" text-anchor="end" font-size="12" fill="#6b7280">93922</text><line x1="78" y1="64.0" x2="968" y2="64.0" stroke="#e5e7eb" stroke-width="1"/><text x="68" y="68.0" text-anchor="end" font-size="12" fill="#6b7280">117402</text>
  <line x1="78" y1="433.6" x2="968" y2="433.6" stroke="#9ca3af" stroke-width="1.5" stroke-dasharray="6 4"/><text x="968" y="427.6" text-anchor="end" font-size="11" fill="#6b7280">start 10000</text>
  <polygon points="78,468.0 78.0,433.6 78.0,428.3 83.3,430.4 83.9,433.2 84.6,436.9 85.0,441.9 155.9,422.5 157.3,424.9 208.6,428.1 212.1,432.4 228.2,438.1 255.4,415.9 256.3,418.7 264.7,422.4 265.7,427.3 288.0,433.8 288.7,442.5 409.5,438.6 415.4,440.1 416.1,442.2 425.6,434.1 425.6,435.9 435.6,438.3 445.9,441.5 453.3,429.1 478.1,423.1 478.2,425.5 482.6,428.6 579.0,416.3 617.2,408.3 637.6,399.1 637.6,402.8 640.2,407.6 660.8,414.1 664.0,422.8 721.9,389.1 724.2,393.3 780.6,377.0 783.9,381.9 798.7,388.3 811.0,396.8 813.6,408.3 866.0,363.9 870.1,369.4 873.5,376.7 874.8,386.5 900.1,348.4 900.9,329.9 913.5,308.6 913.6,284.0 913.6,293.7 930.0,255.8 930.2,267.0 935.1,282.0 952.4,302.0 960.1,224.3 962.8,237.2 963.3,187.0 965.1,201.9 965.2,144.0 965.3,93.9 965.3,113.7 965.3,140.1 967.5,175.4 968.0,222.3 968.0,468.0" fill="#16a34a" fill-opacity="0.08"/>
  <polyline points="78.0,433.6 78.0,428.3 83.3,430.4 83.9,433.2 84.6,436.9 85.0,441.9 155.9,422.5 157.3,424.9 208.6,428.1 212.1,432.4 228.2,438.1 255.4,415.9 256.3,418.7 264.7,422.4 265.7,427.3 288.0,433.8 288.7,442.5 409.5,438.6 415.4,440.1 416.1,442.2 425.6,434.1 425.6,435.9 435.6,438.3 445.9,441.5 453.3,429.1 478.1,423.1 478.2,425.5 482.6,428.6 579.0,416.3 617.2,408.3 637.6,399.1 637.6,402.8 640.2,407.6 660.8,414.1 664.0,422.8 721.9,389.1 724.2,393.3 780.6,377.0 783.9,381.9 798.7,388.3 811.0,396.8 813.6,408.3 866.0,363.9 870.1,369.4 873.5,376.7 874.8,386.5 900.1,348.4 900.9,329.9 913.5,308.6 913.6,284.0 913.6,293.7 930.0,255.8 930.2,267.0 935.1,282.0 952.4,302.0 960.1,224.3 962.8,237.2 963.3,187.0 965.1,201.9 965.2,144.0 965.3,93.9 965.3,113.7 965.3,140.1 967.5,175.4 968.0,222.3" fill="none" stroke="#16a34a" stroke-width="2" stroke-linejoin="round"/>
  <text x="78" y="502" text-anchor="start" font-size="12" fill="#6b7280">2026-01-02</text><text x="968" y="502" text-anchor="end" font-size="12" fill="#6b7280">2026-01-31</text>
</svg>
