<?xml version="1.0" encoding="UTF-8"?>
<svg xmlns="http://www.w3.org/2000/svg" width="1100" height="560" viewBox="0 0 1100 560" font-family="ui-sans-serif, system-ui, sans-serif">
  <rect width="1100" height="560" fill="#ffffff"/>
  <text x="80" y="28" font-size="18" font-weight="700" fill="#111827">Zone Recovery — fee-tier comparison (best setting)</text>
  <text x="80" y="48" font-size="12.5" fill="#6b7280">lev 50 · ratio 3 · gap 40% · maxSteps 5 · maxDD 50% · random  ·  equity per fee tier vip 0..9</text>
  <line x1="80" y1="508.0" x2="932" y2="508.0" stroke="#e5e7eb" stroke-width="1"/><text x="70" y="512.0" text-anchor="end" font-size="12" fill="#6b7280">0.00</text><line x1="80" y1="419.2" x2="932" y2="419.2" stroke="#e5e7eb" stroke-width="1"/><text x="70" y="423.2" text-anchor="end" font-size="12" fill="#6b7280">23480</text><line x1="80" y1="330.4" x2="932" y2="330.4" stroke="#e5e7eb" stroke-width="1"/><text x="70" y="334.4" text-anchor="end" font-size="12" fill="#6b7280">46961</text><line x1="80" y1="241.6" x2="932" y2="241.6" stroke="#e5e7eb" stroke-width="1"/><text x="70" y="245.6" text-anchor="end" font-size="12" fill="#6b7280">70441</text><line x1="80" y1="152.8" x2="932" y2="152.8" stroke="#e5e7eb" stroke-width="1"/><text x="70" y="156.8" text-anchor="end" font-size="12" fill="#6b7280">93922</text><line x1="80" y1="64.0" x2="932" y2="64.0" stroke="#e5e7eb" stroke-width="1"/><text x="70" y="68.0" text-anchor="end" font-size="12" fill="#6b7280">117402</text>
  <line x1="80" y1="470.2" x2="932" y2="470.2" stroke="#9ca3af" stroke-width="1.5" stroke-dasharray="6 4"/>
  <polyline points="80.0,470.2 80.0,464.5 85.0,466.9 85.6,470.2 86.3,474.6 86.7,480.4 154.6,459.7 155.9,462.4 205.0,466.0 208.4,470.9 223.8,477.4 249.9,454.3 250.6,457.4 258.8,461.4 259.7,466.8 281.0,474.0 281.7,483.6 397.3,479.9 402.9,481.5 403.6,483.6 412.8,476.1 412.8,477.9 422.3,480.3 432.2,483.5 439.3,472.1 463.0,466.7 463.1,469.0 467.3,472.1 559.6,461.0 596.1,453.9 615.7,445.8 615.7,449.3 618.2,454.0 637.9,460.2 640.9,468.6 696.4,438.9 698.6,442.8 752.6,428.9 755.8,433.3 769.9,439.3 781.7,447.3 784.2,457.9 834.4,420.1 838.3,425.1 841.5,431.7 842.8,440.5 867.0,409.1 867.8,394.2 879.9,377.0 879.9,357.2 879.9,365.7 895.6,335.4 895.8,345.1 900.6,358.2 917.1,375.5 924.4,313.7 927.0,324.7 927.5,285.6 929.2,298.1 929.4,253.4 929.4,215.0 929.4,231.5 929.4,253.6 931.6,283.0 932.0,322.3" fill="none" stroke="#2563eb" stroke-width="1.8" stroke-linejoin="round" opacity="0.9"/>
  <polyline points="80.0,470.2 80.0,464.5 85.0,466.9 85.6,470.2 86.3,474.6 86.7,480.4 154.6,459.7 155.9,462.4 205.0,466.0 208.4,470.9 223.8,477.4 249.9,454.3 250.6,457.4 258.8,461.4 259.7,466.8 281.0,474.0 281.7,483.6 397.3,479.9 402.9,481.5 403.6,483.6 412.8,476.1 412.8,477.9 422.3,480.3 432.2,483.5 439.3,472.1 463.0,466.7 463.1,469.0 467.3,472.1 559.6,461.0 596.1,453.9 615.7,445.8 615.7,449.3 618.2,454.0 637.9,460.2 640.9,468.6 696.4,438.9 698.6,442.8 752.6,428.9 755.8,433.3 769.9,439.3 781.7,447.3 784.2,457.9 834.4,420.1 838.3,425.1 841.5,431.7 842.8,440.5 867.0,409.1 867.8,394.2 879.9,377.0 879.9,357.2 879.9,365.7 895.6,335.4 895.8,345.1 900.6,358.2 917.1,375.5 924.4,313.7 927.0,324.7 927.5,285.6 929.2,298.1 929.4,253.4 929.4,215.0 929.4,231.5 929.4,253.6 931.6,283.0 932.0,322.3" fill="none" stroke="#dc2626" stroke-width="1.8" stroke-linejoin="round" opacity="0.9"/>
  <polyline points="80.0,470.2 80.0,464.4 85.0,466.9 85.6,470.1 86.3,474.4 86.7,480.1 154.6,459.2 155.9,461.9 205.0,465.6 208.4,470.4 223.8,476.8 249.9,453.4 250.6,456.4 258.8,460.5 259.7,465.9 281.0,473.1 281.7,482.7 397.3,478.8 402.9,480.5 403.6,482.6 412.8,474.7 412.8,476.6 422.3,479.1 432.2,482.3 439.3,470.4 463.0,464.7 463.1,467.1 467.3,470.3 559.6,458.6 596.1,451.1 615.7,442.4 615.7,446.1 618.2,450.9 637.9,457.4 640.9,466.1 696.4,434.6 698.6,438.7 752.6,423.8 755.8,428.5 769.9,434.7 781.7,443.0 784.2,454.1 834.4,413.8 838.3,419.0 841.5,426.0 842.8,435.3 867.0,401.3 867.8,385.1 879.9,366.5 879.9,345.0 879.9,354.1 895.6,321.1 895.8,331.5 900.6,345.3 917.1,363.8 924.4,296.5 927.0,308.2 927.5,265.4 929.2,278.9 929.4,229.7 929.4,187.5 929.4,205.3 929.4,229.1 931.6,260.7 932.0,302.9" fill="none" stroke="#16a34a" stroke-width="1.8" stroke-linejoin="round" opacity="0.9"/>
  <polyline points="80.0,470.2 80.0,464.4 85.0,466.8 85.6,470.0 86.3,474.2 86.7,479.9 154.6,458.9 155.9,461.6 205.0,465.2 208.4,470.0 223.8,476.3 249.9,452.7 250.6,455.7 258.8,459.7 259.7,465.1 281.0,472.3 281.7,481.9 397.3,478.0 402.9,479.6 403.6,481.8 412.8,473.6 412.8,475.5 422.3,478.0 432.2,481.4 439.3,469.0 463.0,463.0 463.1,465.5 467.3,468.8 559.6,456.6 596.1,448.7 615.7,439.7 615.7,443.4 618.2,448.4 637.9,455.1 640.9,464.0 696.4,431.0 698.6,435.2 752.6,419.6 755.8,424.4 769.9,430.9 781.7,439.5 784.2,451.0 834.4,408.4 838.3,413.8 841.5,421.1 842.8,430.8 867.0,394.8 867.8,377.5 879.9,357.6 879.9,334.6 879.9,344.1 895.6,308.9 895.8,319.8 900.6,334.4 917.1,353.8 924.4,281.7 927.0,294.1 927.5,248.1 929.2,262.3 929.4,209.4 929.4,163.9 929.4,182.7 929.4,207.9 931.6,241.4 932.0,286.2" fill="none" stroke="#d97706" stroke-width="1.8" stroke-linejoin="round" opacity="0.9"/>
  <polyline points="80.0,470.2 80.0,464.4 85.0,466.7 85.6,469.8 86.3,474.0 86.7,479.6 154.6,458.4 155.9,461.1 205.0,464.6 208.4,469.4 223.8,475.7 249.9,451.6 250.6,454.6 258.8,458.7 259.7,464.1 281.0,471.3 281.7,480.8 397.3,476.7 402.9,478.4 403.6,480.6 412.8,472.1 412.8,474.0 422.3,476.6 432.2,480.0 439.3,466.9 463.0,460.6 463.1,463.2 467.3,466.6 559.6,453.6 596.1,445.2 615.7,435.6 615.7,439.5 618.2,444.7 637.9,451.6 640.9,460.8 696.4,425.7 698.6,430.1 752.6,413.2 755.8,418.3 769.9,425.1 781.7,434.2 784.2,446.3 834.4,400.3 838.3,406.1 841.5,413.8 842.8,424.1 867.0,384.8 867.8,365.9 879.9,344.1 879.9,318.9 879.9,329.1 895.6,290.3 895.8,302.0 900.6,317.6 917.1,338.4 924.4,259.1 927.0,272.5 927.5,221.5 929.2,236.9 929.4,178.2 929.4,127.6 929.4,148.0 929.4,175.3 931.6,211.7 932.0,260.2" fill="none" stroke="#7c3aed" stroke-width="1.8" stroke-linejoin="round" opacity="0.9"/>
  <polyline points="80.0,470.2 80.0,464.4 85.0,466.7 85.6,469.8 86.3,474.0 86.7,479.5 154.6,458.3 155.9,461.0 205.0,464.5 208.4,469.3 223.8,475.6 249.9,451.4 250.6,454.4 258.8,458.5 259.7,463.9 281.0,471.1 281.7,480.7 397.3,476.5 402.9,478.1 403.6,480.4 412.8,471.8 412.8,473.7 422.3,476.3 432.2,479.8 439.3,466.5 463.0,460.2 463.1,462.7 467.3,466.2 559.6,453.1 596.1,444.6 615.7,434.9 615.7,438.8 618.2,444.0 637.9,451.0 640.9,460.3 696.4,424.7 698.6,429.2 752.6,412.1 755.8,417.2 769.9,424.1 781.7,433.2 784.2,445.4 834.4,398.8 838.3,404.6 841.5,412.4 842.8,422.8 867.0,383.0 867.8,363.8 879.9,341.6 879.9,316.0 879.9,326.3 895.6,286.9 895.8,298.8 900.6,314.5 917.1,335.6 924.4,255.0 927.0,268.5 927.5,216.6 929.2,232.2 929.4,172.5 929.4,120.8 929.4,141.6 929.4,169.3 931.6,206.1 932.0,255.3" fill="none" stroke="#0891b2" stroke-width="1.8" stroke-linejoin="round" opacity="0.9"/>
  <polyline points="80.0,470.2 80.0,464.4 85.0,466.7 85.6,469.8 86.3,474.0 86.7,479.5 154.6,458.2 155.9,460.9 205.0,464.5 208.4,469.2 223.8,475.5 249.9,451.3 250.6,454.3 258.8,458.4 259.7,463.7 281.0,470.9 281.7,480.5 397.3,476.3 402.9,478.0 403.6,480.2 412.8,471.6 412.8,473.5 422.3,476.1 432.2,479.6 439.3,466.3 463.0,459.9 463.1,462.4 467.3,465.9 559.6,452.7 596.1,444.2 615.7,434.4 615.7,438.3 618.2,443.5 637.9,450.5 640.9,459.9 696.4,424.0 698.6,428.5 752.6,411.3 755.8,416.5 769.9,423.4 781.7,432.5 784.2,444.8 834.4,397.8 838.3,403.6 841.5,411.5 842.8,422.0 867.0,381.7 867.8,362.3 879.9,339.9 879.9,314.0 879.9,324.3 895.6,284.5 895.8,296.5 900.6,312.4 917.1,333.6 924.4,252.1 927.0,265.8 927.5,213.2 929.2,229.0 929.4,168.4 929.4,116.2 929.4,137.1 929.4,165.0 931.6,202.3 932.0,251.9" fill="none" stroke="#db2777" stroke-width="1.8" stroke-linejoin="round" opacity="0.9"/>
  <polyline points="80.0,470.2 80.0,464.4 85.0,466.7 85.6,469.8 86.3,473.9 86.7,479.4 154.6,458.2 155.9,460.8 205.0,464.4 208.4,469.1 223.8,475.4 249.9,451.1 250.6,454.1 258.8,458.2 259.7,463.5 281.0,470.7 281.7,480.3 397.3,476.1 402.9,477.8 403.6,480.0 412.8,471.3 412.8,473.2 422.3,475.8 432.2,479.3 439.3,465.9 463.0,459.4 463.1,462.0 467.3,465.4 559.6,452.1 596.1,443.5 615.7,433.6 615.7,437.5 618.2,442.8 637.9,449.9 640.9,459.3 696.4,423.0 698.6,427.5 752.6,410.0 755.8,415.3 769.9,422.2 781.7,431.5 784.2,443.9 834.4,396.1 838.3,402.1 841.5,410.0 842.8,420.6 867.0,379.8 867.8,360.0 879.9,337.2 879.9,310.8 879.9,321.3 895.6,280.8 895.8,292.9 900.6,309.0 917.1,330.6 924.4,247.5 927.0,261.4 927.5,207.8 929.2,223.8 929.4,162.1 929.4,108.8 929.4,130.1 929.4,158.4 931.6,196.2 932.0,246.6" fill="none" stroke="#65a30d" stroke-width="1.8" stroke-linejoin="round" opacity="0.9"/>
  <polyline points="80.0,470.2 80.0,464.3 85.0,466.7 85.6,469.8 86.3,473.9 86.7,479.4 154.6,458.1 155.9,460.7 205.0,464.3 208.4,469.0 223.8,475.3 249.9,451.0 250.6,454.0 258.8,458.0 259.7,463.4 281.0,470.6 281.7,480.2 397.3,475.9 402.9,477.6 403.6,479.9 412.8,471.1 412.8,473.0 422.3,475.6 432.2,479.1 439.3,465.6 463.0,459.1 463.1,461.7 467.3,465.2 559.6,451.7 596.1,443.1 615.7,433.0 615.7,437.0 618.2,442.3 637.9,449.4 640.9,458.9 696.4,422.3 698.6,426.9 752.6,409.2 755.8,414.5 769.9,421.5 781.7,430.8 784.2,443.2 834.4,395.1 838.3,401.1 841.5,409.1 842.8,419.8 867.0,378.5 867.8,358.5 879.9,335.4 879.9,308.8 879.9,319.4 895.6,278.4 895.8,290.6 900.6,306.8 917.1,328.5 924.4,244.5 927.0,258.5 927.5,204.3 929.2,220.5 929.4,158.0 929.4,104.0 929.4,125.5 929.4,154.1 931.6,192.2 932.0,243.1" fill="none" stroke="#475569" stroke-width="1.8" stroke-linejoin="round" opacity="0.9"/>
  <polyline points="80.0,470.2 80.0,464.3 85.0,466.7 85.6,469.7 86.3,473.8 86.7,479.3 154.6,458.0 155.9,460.7 205.0,464.2 208.4,468.9 223.8,475.2 249.9,450.8 250.6,453.8 258.8,457.8 259.7,463.2 281.0,470.4 281.7,480.0 397.3,475.7 402.9,477.4 403.6,479.7 412.8,470.8 412.8,472.7 422.3,475.4 432.2,478.9 439.3,465.3 463.0,458.6 463.1,461.3 467.3,464.7 559.6,451.2 596.1,442.4 615.7,432.3 615.7,436.3 618.2,441.6 637.9,448.8 640.9,458.3 696.4,421.3 698.6,425.9 752.6,408.0 755.8,413.3 769.9,420.4 781.7,429.8 784.2,442.3 834.4,393.5 838.3,399.6 841.5,407.7 842.8,418.5 867.0,376.6 867.8,356.2 879.9,332.8 879.9,305.7 879.9,316.4 895.6,274.8 895.8,287.1 900.6,303.6 917.1,325.6 924.4,240.2 927.0,254.3 927.5,199.2 929.2,215.5 929.4,151.9 929.4,96.9 929.4,118.7 929.4,147.7 931.6,186.4 932.0,238.0" fill="none" stroke="#ea580c" stroke-width="1.8" stroke-linejoin="round" opacity="0.9"/>
  <line x1="950" y1="70" x2="972" y2="70" stroke="#ea580c" stroke-width="3"/><text x="980" y="74" font-size="12.5" fill="#374151">vip 9  71399</text>
  <line x1="950" y1="92" x2="972" y2="92" stroke="#475569" stroke-width="3"/><text x="980" y="96" font-size="12.5" fill="#374151">vip 8  70036</text>
  <line x1="950" y1="114" x2="972" y2="114" stroke="#65a30d" stroke-width="3"/><text x="980" y="118" font-size="12.5" fill="#374151">vip 7  69113</text>
  <line x1="950" y1="136" x2="972" y2="136" stroke="#db2777" stroke-width="3"/><text x="980" y="140" font-size="12.5" fill="#374151">vip 6  67709</text>
  <line x1="950" y1="158" x2="972" y2="158" stroke="#0891b2" stroke-width="3"/><text x="980" y="162" font-size="12.5" fill="#374151">vip 5  66814</text>
  <line x1="950" y1="180" x2="972" y2="180" stroke="#7c3aed" stroke-width="3"/><text x="980" y="184" font-size="12.5" fill="#374151">vip 4  65531</text>
  <line x1="950" y1="202" x2="972" y2="202" stroke="#d97706" stroke-width="3"/><text x="980" y="206" font-size="12.5" fill="#374151">vip 3  58655</text>
  <line x1="950" y1="224" x2="972" y2="224" stroke="#16a34a" stroke-width="3"/><text x="980" y="228" font-size="12.5" fill="#374151">vip 2  54221</text>
  <line x1="950" y1="246" x2="972" y2="246" stroke="#2563eb" stroke-width="3"/><text x="980" y="250" font-size="12.5" fill="#374151">vip 0  49108</text>
  <line x1="950" y1="268" x2="972" y2="268" stroke="#dc2626" stroke-width="3"/><text x="980" y="272" font-size="12.5" fill="#374151">vip 1  49108</text>
  <text x="80" y="542" text-anchor="start" font-size="12" fill="#6b7280">2026-01-02</text><text x="932" y="542" text-anchor="end" font-size="12" fill="#6b7280">2026-01-31</text>
</svg>
