<?xml version="1.0" encoding="UTF-8"?>
<svg xmlns="http://www.w3.org/2000/svg" width="1100" height="560" viewBox="0 0 1100 560" font-family="ui-sans-serif, system-ui, sans-serif">
  <rect width="1100" height="560" fill="#ffffff"/>
  <text x="80" y="28" font-size="18" font-weight="700" fill="#111827">Zone Recovery — AVAXUSDT fee-tier comparison (best setting)</text>
  <text x="80" y="48" font-size="12.5" fill="#6b7280">lev 20 · ratio 4 · gap 35% · maxSteps 4 · maxDD 60% · random  ·  equity per fee tier vip 0..9</text>
  <text x="80" y="68" font-size="12.5" font-weight="600" fill="#1d4ed8">USDT margin · BNB −10%</text>
  <line x1="80" y1="508.0" x2="932" y2="508.0" stroke="#e5e7eb" stroke-width="1"/><text x="70" y="512.0" text-anchor="end" font-size="12" fill="#6b7280">0.00</text><line x1="80" y1="424.0" x2="932" y2="424.0" stroke="#e5e7eb" stroke-width="1"/><text x="70" y="428.0" text-anchor="end" font-size="12" fill="#6b7280">114825</text><line x1="80" y1="340.0" x2="932" y2="340.0" stroke="#e5e7eb" stroke-width="1"/><text x="70" y="344.0" text-anchor="end" font-size="12" fill="#6b7280">229650</text><line x1="80" y1="256.0" x2="932" y2="256.0" stroke="#e5e7eb" stroke-width="1"/><text x="70" y="260.0" text-anchor="end" font-size="12" fill="#6b7280">344475</text><line x1="80" y1="172.0" x2="932" y2="172.0" stroke="#e5e7eb" stroke-width="1"/><text x="70" y="176.0" text-anchor="end" font-size="12" fill="#6b7280">459300</text><line x1="80" y1="88.0" x2="932" y2="88.0" stroke="#e5e7eb" stroke-width="1"/><text x="70" y="92.0" text-anchor="end" font-size="12" fill="#6b7280">574125</text>
  <line x1="80" y1="500.7" x2="932" y2="500.7" stroke="#9ca3af" stroke-width="1.5" stroke-dasharray="6 4"/>
  <polyline points="80.0,500.7 80.0,501.5 676.1,497.7 676.6,498.8 704.8,493.6 705.6,495.1 705.7,497.1 709.4,487.9 711.2,479.6 711.6,482.7 712.6,486.6 712.6,491.4 712.6,497.5 712.6,498.6 713.1,493.2 713.7,487.2 714.0,478.6 714.0,481.8 714.0,485.9 714.3,467.0 714.3,471.5 714.3,477.1 714.8,450.7 714.8,457.0 714.9,464.8 715.4,428.1 715.4,436.8 715.6,395.7 715.6,403.9 715.6,414.0 715.6,426.7 715.6,442.6 715.6,449.7 715.7,458.7 715.7,469.8 715.7,483.8 715.8,473.9 715.8,459.9 715.8,465.1 715.8,471.7 715.8,480.0 715.8,490.2 715.8,492.2 715.8,494.6 715.8,497.7 715.8,501.5 715.8,502.2 715.8,503.1 715.8,504.2 715.8,505.6 715.8,504.6 715.8,505.0 715.8,505.4 715.8,506.0 716.0,503.3 716.3,503.8 716.7,501.4 716.7,502.1 716.9,498.7 717.0,499.7 717.0,501.0 717.0,502.6 717.7,495.1 718.5,489.8 718.5,491.8 718.9,482.4 719.0,485.2 719.1,472.1 719.1,476.0 719.1,480.9 719.3,457.9 719.4,437.3 719.4,445.0 719.6,408.7 719.7,417.9 719.7,429.4 719.9,375.6 719.9,385.4 720.1,339.4 720.1,350.1 720.1,363.5 720.1,380.1 720.1,401.0 720.1,411.7 720.2,361.5 720.6,319.4 726.1,278.7 726.2,289.9 726.4,303.9 726.8,321.5 726.8,343.4 726.8,354.6 727.4,368.6 732.3,302.8 739.1,260.7 752.2,218.5 756.7,176.4 757.3,187.6 757.4,201.6 768.8,219.2 768.9,241.1 782.6,252.3 782.8,266.3 783.6,283.8 792.2,201.5 793.2,212.3 793.4,225.9 794.5,242.8 827.8,264.0 932.0,221.9" fill="none" stroke="#2563eb" stroke-width="1.8" stroke-linejoin="round" opacity="0.9"/>
  <polyline points="80.0,500.7 80.0,501.5 676.1,497.7 676.6,498.8 704.8,493.6 705.6,495.1 705.7,497.1 709.4,487.9 711.2,479.6 711.6,482.7 712.6,486.6 712.6,491.4 712.6,497.5 712.6,498.6 713.1,493.2 713.7,487.2 714.0,478.6 714.0,481.8 714.0,485.9 714.3,467.0 714.3,471.5 714.3,477.1 714.8,450.7 714.8,457.0 714.9,464.8 715.4,428.1 715.4,436.8 715.6,395.7 715.6,403.9 715.6,414.0 715.6,426.7 715.6,442.6 715.6,449.7 715.7,458.7 715.7,469.8 715.7,483.8 715.8,473.9 715.8,459.9 715.8,465.1 715.8,471.7 715.8,480.0 715.8,490.2 715.8,492.2 715.8,494.6 715.8,497.7 715.8,501.5 715.8,502.2 715.8,503.1 715.8,504.2 715.8,505.6 715.8,504.6 715.8,505.0 715.8,505.4 715.8,506.0 716.0,503.3 716.3,503.8 716.7,501.4 716.7,502.1 716.9,498.7 717.0,499.7 717.0,501.0 717.0,502.6 717.7,495.1 718.5,489.8 718.5,491.8 718.9,482.4 719.0,485.2 719.1,472.1 719.1,476.0 719.1,480.9 719.3,457.9 719.4,437.3 719.4,445.0 719.6,408.7 719.7,417.9 719.7,429.4 719.9,375.6 719.9,385.4 720.1,339.4 720.1,350.1 720.1,363.5 720.1,380.1 720.1,401.0 720.1,411.7 720.2,361.5 720.6,319.4 726.1,278.7 726.2,289.9 726.4,303.9 726.8,321.5 726.8,343.4 726.8,354.6 727.4,368.6 732.3,302.8 739.1,260.7 752.2,218.5 756.7,176.4 757.3,187.6 757.4,201.6 768.8,219.2 768.9,241.1 782.6,252.3 782.8,266.3 783.6,283.8 792.2,201.5 793.2,212.3 793.4,225.9 794.5,242.8 827.8,264.0 932.0,221.9" fill="none" stroke="#dc2626" stroke-width="1.8" stroke-linejoin="round" opacity="0.9"/>
  <polyline points="80.0,500.7 80.0,501.5 676.1,497.7 676.6,498.8 704.8,493.5 705.6,495.1 705.7,497.1 709.4,487.7 711.2,479.4 711.6,482.5 712.6,486.3 712.6,491.2 712.6,497.2 712.6,498.4 713.1,492.9 713.7,486.6 714.0,477.8 714.0,481.1 714.0,485.2 714.3,465.8 714.3,470.3 714.3,476.1 714.8,448.9 714.8,455.3 714.9,463.3 715.4,425.2 715.4,434.0 715.6,392.1 715.6,400.1 715.6,410.1 715.6,422.7 715.6,438.4 715.6,446.0 715.7,455.4 715.7,467.2 715.7,481.9 715.8,471.1 715.8,455.9 715.8,461.6 715.8,468.6 715.8,477.4 715.8,488.5 715.8,490.6 715.8,493.2 715.8,496.5 715.8,500.7 715.8,501.5 715.8,502.5 715.8,503.7 715.8,505.3 715.8,504.1 715.8,504.5 715.8,505.1 715.8,505.7 716.0,502.6 716.3,503.2 716.7,500.4 716.7,501.2 716.9,497.3 717.0,498.5 717.0,499.9 717.0,501.7 717.7,493.1 718.5,487.0 718.5,489.3 718.9,478.4 719.0,481.6 719.1,466.4 719.1,470.9 719.1,476.6 719.3,449.8 719.4,425.8 719.4,434.2 719.6,394.6 719.7,403.6 719.7,415.0 719.9,361.1 719.9,370.8 720.1,324.7 720.1,335.2 720.1,348.5 720.1,365.0 720.1,385.7 720.1,396.3 720.2,345.9 720.6,303.7 726.1,262.9 726.2,274.0 726.4,287.9 726.8,305.2 726.8,326.9 726.8,338.0 727.4,351.9 732.3,285.9 739.1,243.7 752.2,201.4 756.7,159.2 757.3,170.3 757.4,184.2 768.8,201.6 768.9,223.3 782.6,234.4 782.8,248.2 783.6,265.6 792.2,183.0 793.2,193.8 793.4,207.2 794.5,224.0 827.8,244.9 932.0,202.7" fill="none" stroke="#16a34a" stroke-width="1.8" stroke-linejoin="round" opacity="0.9"/>
  <polyline points="80.0,500.7 80.0,501.5 676.1,497.7 676.6,498.8 704.8,493.5 705.6,495.0 705.7,497.0 709.4,487.6 711.2,479.2 711.6,482.3 712.6,486.2 712.6,491.0 712.6,497.0 712.6,498.2 713.1,492.6 713.7,486.2 714.0,477.2 714.0,480.5 714.0,484.6 714.3,464.8 714.3,469.4 714.3,475.2 714.8,447.3 714.8,453.9 714.9,462.0 715.4,422.9 715.4,431.6 715.6,389.6 715.6,397.5 715.6,407.5 715.6,420.0 715.6,435.6 715.6,443.4 715.7,453.1 715.7,465.2 715.7,480.4 715.8,469.1 715.8,453.0 715.8,458.9 715.8,466.3 715.8,475.5 715.8,487.1 715.8,489.3 715.8,492.2 715.8,495.7 715.8,500.1 715.8,500.9 715.8,502.0 715.8,503.3 715.8,505.0 715.8,503.7 715.8,504.2 715.8,504.8 715.8,505.5 716.0,502.0 716.3,502.7 716.7,499.6 716.7,500.5 716.9,496.2 717.0,497.4 717.0,499.0 717.0,501.0 717.7,491.5 718.5,484.7 718.5,487.2 718.9,475.1 719.0,478.7 719.1,461.7 719.1,466.7 719.1,472.9 719.3,443.0 719.4,416.2 719.4,424.5 719.6,384.8 719.7,393.8 719.7,405.1 719.9,351.0 719.9,360.7 720.1,314.4 720.1,324.9 720.1,338.1 720.1,354.5 720.1,375.0 720.1,385.5 720.2,335.1 720.6,292.7 726.1,251.8 726.2,262.8 726.4,276.6 726.8,293.8 726.8,315.4 726.8,326.4 727.4,340.2 732.3,274.0 739.1,231.7 752.2,189.4 756.7,147.0 757.3,158.0 757.4,171.8 768.8,189.0 768.9,210.6 782.6,221.6 782.8,235.4 783.6,252.6 792.2,169.9 793.2,180.5 793.4,193.8 794.5,210.5 827.8,231.3 932.0,188.9" fill="none" stroke="#d97706" stroke-width="1.8" stroke-linejoin="round" opacity="0.9"/>
  <polyline points="80.0,500.7 80.0,501.5 676.1,497.7 676.6,498.8 704.8,493.5 705.6,495.0 705.7,497.0 709.4,487.6 711.2,479.2 711.6,482.3 712.6,486.1 712.6,491.0 712.6,497.0 712.6,498.2 713.1,492.5 713.7,486.1 714.0,477.0 714.0,480.4 714.0,484.5 714.3,464.5 714.3,469.2 714.3,475.0 714.8,446.9 714.8,453.5 714.9,461.7 715.4,422.3 715.4,431.0 715.6,388.9 715.6,396.9 715.6,406.8 715.6,419.3 715.6,434.8 715.6,442.7 715.7,452.5 715.7,464.8 715.7,480.1 715.8,468.6 715.8,452.3 715.8,458.2 715.8,465.7 715.8,475.1 715.8,486.7 715.8,489.0 715.8,491.9 715.8,495.4 715.8,499.9 715.8,500.8 715.8,501.9 715.8,503.2 715.8,504.9 715.8,503.6 715.8,504.1 715.8,504.7 715.8,505.4 716.0,501.9 716.3,502.5 716.7,499.4 716.7,500.3 716.9,495.9 717.0,497.2 717.0,498.8 717.0,500.8 717.7,491.0 718.5,484.0 718.5,486.6 718.9,474.2 719.0,477.9 719.1,460.4 719.1,465.5 719.1,471.9 719.3,441.2 719.4,413.7 719.4,421.9 719.6,382.2 719.7,391.2 719.7,402.4 719.9,348.4 719.9,358.0 720.1,311.7 720.1,322.2 720.1,335.3 720.1,351.7 720.1,372.1 720.1,382.6 720.2,332.2 720.6,289.8 726.1,248.9 726.2,259.9 726.4,273.7 726.8,290.8 726.8,312.3 726.8,323.3 727.4,337.1 732.3,270.9 739.1,228.5 752.2,186.2 756.7,143.8 757.3,154.8 757.4,168.6 768.8,185.8 768.9,207.3 782.6,218.3 782.8,232.0 783.6,249.2 792.2,166.4 793.2,177.0 793.4,190.3 794.5,206.9 827.8,227.7 932.0,185.3" fill="none" stroke="#7c3aed" stroke-width="1.8" stroke-linejoin="round" opacity="0.9"/>
  <polyline points="80.0,500.7 80.0,501.5 676.1,497.7 676.6,498.8 704.8,493.5 705.6,495.0 705.7,497.0 709.4,487.6 711.2,479.1 711.6,482.2 712.6,486.1 712.6,490.9 712.6,496.9 712.6,498.1 713.1,492.4 713.7,485.9 714.0,476.8 714.0,480.1 714.0,484.3 714.3,464.1 714.3,468.8 714.3,474.7 714.8,446.4 714.8,453.0 714.9,461.2 715.4,421.4 715.4,430.1 715.6,388.0 715.6,395.9 715.6,405.8 715.6,418.2 715.6,433.8 715.6,441.7 715.7,451.6 715.7,464.0 715.7,479.5 715.8,467.8 715.8,451.1 715.8,457.2 715.8,464.8 715.8,474.3 715.8,486.2 715.8,488.5 715.8,491.5 715.8,495.1 715.8,499.6 715.8,500.5 715.8,501.7 715.8,503.1 715.8,504.8 715.8,503.5 715.8,504.0 715.8,504.6 715.8,505.3 716.0,501.7 716.3,502.3 716.7,499.1 716.7,500.0 716.9,495.4 717.0,496.8 717.0,498.4 717.0,500.5 717.7,490.4 718.5,483.1 718.5,485.8 718.9,472.9 719.0,476.7 719.1,458.5 719.1,463.8 719.1,470.4 719.3,438.5 719.4,409.7 719.4,418.0 719.6,378.2 719.7,387.2 719.7,398.4 719.9,344.3 719.9,353.9 720.1,307.6 720.1,318.0 720.1,331.1 720.1,347.4 720.1,367.8 720.1,378.3 720.2,327.8 720.6,285.4 726.1,244.4 726.2,255.4 726.4,269.1 726.8,286.2 726.8,307.7 726.8,318.6 727.4,332.3 732.3,266.1 739.1,223.7 752.2,181.3 756.7,138.9 757.3,149.9 757.4,163.6 768.8,180.7 768.9,202.2 782.6,213.1 782.8,226.8 783.6,244.0 792.2,161.1 793.2,171.7 793.4,185.0 794.5,201.5 827.8,222.2 932.0,179.8" fill="none" stroke="#0891b2" stroke-width="1.8" stroke-linejoin="round" opacity="0.9"/>
  <polyline points="80.0,500.7 80.0,501.5 676.1,497.7 676.6,498.8 704.8,493.4 705.6,495.0 705.7,496.9 709.4,487.5 711.2,479.1 711.6,482.2 712.6,486.0 712.6,490.8 712.6,496.9 712.6,498.1 713.1,492.3 713.7,485.8 714.0,476.6 714.0,480.0 714.0,484.2 714.3,463.9 714.3,468.6 714.3,474.5 714.8,446.0 714.8,452.6 714.9,460.9 715.4,420.8 715.4,429.5 715.6,387.3 715.6,395.3 715.6,405.2 715.6,417.5 715.6,433.0 715.6,441.0 715.7,450.9 715.7,463.3 715.7,478.8 715.8,466.7 715.8,449.7 715.8,455.9 715.8,463.7 715.8,473.4 715.8,485.6 715.8,488.0 715.8,491.0 715.8,494.7 715.8,499.4 715.8,500.3 715.8,501.5 715.8,502.9 715.8,504.7 715.8,503.3 715.8,503.8 715.8,504.4 715.8,505.2 716.0,501.4 716.3,502.1 716.7,498.7 716.7,499.7 716.9,494.9 717.0,496.3 717.0,498.1 717.0,500.3 717.7,489.7 718.5,482.1 718.5,484.9 718.9,471.5 719.0,475.4 719.1,456.6 719.1,462.1 719.1,468.9 719.3,435.7 719.4,406.0 719.4,414.2 719.6,374.5 719.7,383.4 719.7,394.6 719.9,340.5 719.9,350.0 720.1,303.7 720.1,314.1 720.1,327.2 720.1,343.4 720.1,363.8 720.1,374.2 720.2,323.7 720.6,281.3 726.1,240.3 726.2,251.3 726.4,265.0 726.8,282.1 726.8,303.4 726.8,314.4 727.4,328.1 732.3,261.8 739.1,219.4 752.2,177.0 756.7,134.6 757.3,145.5 757.4,159.2 768.8,176.3 768.9,197.7 782.6,208.6 782.8,222.3 783.6,239.4 792.2,156.5 793.2,167.1 793.4,180.3 794.5,196.8 827.8,217.5 932.0,175.1" fill="none" stroke="#db2777" stroke-width="1.8" stroke-linejoin="round" opacity="0.9"/>
  <polyline points="80.0,500.7 80.0,501.5 676.1,497.7 676.6,498.8 704.8,493.4 705.6,495.0 705.7,496.9 709.4,487.5 711.2,479.0 711.6,482.1 712.6,486.0 712.6,490.8 712.6,496.8 712.6,498.0 713.1,492.2 713.7,485.6 714.0,476.4 714.0,479.8 714.0,484.0 714.3,463.5 714.3,468.2 714.3,474.2 714.8,445.4 714.8,452.0 714.9,460.4 715.4,419.9 715.4,428.5 715.6,386.4 715.6,394.3 715.6,404.1 715.6,416.5 715.6,431.9 715.6,439.8 715.7,449.7 715.7,462.1 715.7,477.6 715.8,465.0 715.8,447.2 715.8,453.6 715.8,461.7 715.8,471.9 715.8,484.5 715.8,487.0 715.8,490.1 715.8,494.0 715.8,498.9 715.8,499.9 715.8,501.1 715.8,502.6 715.8,504.5 715.8,503.0 715.8,503.6 715.8,504.2 715.8,505.1 716.0,501.0 716.3,501.8 716.7,498.2 716.7,499.2 716.9,494.1 717.0,495.6 717.0,497.5 717.0,499.8 717.7,488.6 718.5,480.5 718.5,483.4 718.9,469.2 719.0,473.4 719.1,453.3 719.1,459.1 719.1,466.4 719.3,431.0 719.4,401.3 719.4,409.5 719.6,369.7 719.7,378.6 719.7,389.8 719.9,335.6 719.9,345.1 720.1,298.8 720.1,309.2 720.1,322.2 720.1,338.4 720.1,358.7 720.1,369.1 720.2,318.6 720.6,276.1 726.1,235.1 726.2,246.0 726.4,259.7 726.8,276.7 726.8,298.0 726.8,308.9 727.4,322.6 732.3,256.3 739.1,213.8 752.2,171.4 756.7,128.9 757.3,139.8 757.4,153.5 768.8,170.5 768.9,191.8 782.6,202.8 782.8,216.4 783.6,233.5 792.2,150.5 793.2,161.0 793.4,174.2 794.5,190.7 827.8,211.3 932.0,168.8" fill="none" stroke="#65a30d" stroke-width="1.8" stroke-linejoin="round" opacity="0.9"/>
  <polyline points="80.0,500.7 80.0,501.5 676.1,497.7 676.6,498.8 704.8,493.4 705.6,495.0 705.7,496.9 709.4,487.5 711.2,479.0 711.6,482.1 712.6,485.9 712.6,490.7 712.6,496.7 712.6,497.9 713.1,492.1 713.7,485.5 714.0,476.2 714.0,479.6 714.0,483.8 714.3,463.3 714.3,468.0 714.3,473.9 714.8,445.0 714.8,451.7 714.9,460.0 715.4,419.3 715.4,427.9 715.6,385.7 715.6,393.6 715.6,403.5 715.6,415.8 715.6,431.2 715.6,439.1 715.7,449.0 715.7,461.3 715.7,476.7 715.8,463.8 715.8,445.5 715.8,452.1 715.8,460.4 715.8,470.8 715.8,483.8 715.8,486.4 715.8,489.6 715.8,493.6 715.8,498.6 715.8,499.6 715.8,500.9 715.8,502.4 715.8,504.4 715.8,502.9 715.8,503.4 715.8,504.1 715.8,504.9 716.0,500.8 716.3,501.5 716.7,497.8 716.7,498.9 716.9,493.6 717.0,495.1 717.0,497.0 717.0,499.4 717.7,487.8 718.5,479.4 718.5,482.5 718.9,467.7 719.0,471.9 719.1,451.1 719.1,457.1 719.1,464.7 719.3,427.8 719.4,398.1 719.4,406.3 719.6,366.5 719.7,375.3 719.7,386.5 719.9,332.3 719.9,341.8 720.1,295.4 720.1,305.8 720.1,318.8 720.1,335.0 720.1,355.2 720.1,365.6 720.2,315.0 720.6,272.5 726.1,231.5 726.2,242.4 726.4,256.0 726.8,273.0 726.8,294.3 726.8,305.2 727.4,318.8 732.3,252.5 739.1,210.0 752.2,167.5 756.7,125.1 757.3,135.9 757.4,149.6 768.8,166.6 768.9,187.9 782.6,198.7 782.8,212.4 783.6,229.4 792.2,146.4 793.2,156.9 793.4,170.1 794.5,186.5 827.8,207.1 932.0,164.6" fill="none" stroke="#475569" stroke-width="1.8" stroke-linejoin="round" opacity="0.9"/>
  <polyline points="80.0,500.7 80.0,501.5 676.1,497.7 676.6,498.8 704.8,493.4 705.6,495.0 705.7,496.9 709.4,487.4 711.2,478.9 711.6,482.0 712.6,485.8 712.6,490.7 712.6,496.7 712.6,497.9 713.1,492.0 713.7,485.4 714.0,476.0 714.0,479.4 714.0,483.6 714.3,462.9 714.3,467.6 714.3,473.6 714.8,444.4 714.8,451.1 714.9,459.5 715.4,418.3 715.4,427.0 715.6,384.7 715.6,392.6 715.6,402.4 715.6,414.7 715.6,430.1 715.6,438.0 715.7,447.8 715.7,460.1 715.7,475.5 715.8,462.0 715.8,443.0 715.8,449.9 715.8,458.5 715.8,469.2 715.8,482.7 715.8,485.4 715.8,488.7 715.8,492.9 715.8,498.1 715.8,499.2 715.8,500.5 715.8,502.1 715.8,504.2 715.8,502.6 715.8,503.1 715.8,503.9 715.8,504.8 716.0,500.4 716.3,501.2 716.7,497.2 716.7,498.4 716.9,492.8 717.0,494.4 717.0,496.4 717.0,498.9 717.7,486.6 718.5,477.7 718.5,480.9 718.9,465.2 719.0,469.8 719.1,447.6 719.1,454.0 719.1,462.0 719.3,422.9 719.4,393.1 719.4,401.3 719.6,361.4 719.7,370.3 719.7,381.4 719.9,327.1 719.9,336.6 720.1,290.2 720.1,300.5 720.1,313.5 720.1,329.6 720.1,349.8 720.1,360.2 720.2,309.5 720.6,267.0 726.1,226.0 726.2,236.9 726.4,250.4 726.8,267.4 726.8,288.6 726.8,299.5 727.4,313.0 732.3,246.6 739.1,204.1 752.2,161.6 756.7,119.1 757.3,130.0 757.4,143.5 768.8,160.5 768.9,181.7 782.6,192.6 782.8,206.2 783.6,223.1 792.2,140.1 793.2,150.6 793.4,163.7 794.5,180.1 827.8,200.6 932.0,158.0" fill="none" stroke="#ea580c" stroke-width="1.8" stroke-linejoin="round" opacity="0.9"/>
  <line x1="950" y1="94" x2="972" y2="94" stroke="#ea580c" stroke-width="3"/><text x="980" y="98" font-size="12.5" fill="#374151">vip 9  478374</text>
  <line x1="950" y1="116" x2="972" y2="116" stroke="#475569" stroke-width="3"/><text x="980" y="120" font-size="12.5" fill="#374151">vip 8  469437</text>
  <line x1="950" y1="138" x2="972" y2="138" stroke="#65a30d" stroke-width="3"/><text x="980" y="142" font-size="12.5" fill="#374151">vip 7  463617</text>
  <line x1="950" y1="160" x2="972" y2="160" stroke="#db2777" stroke-width="3"/><text x="980" y="164" font-size="12.5" fill="#374151">vip 6  455087</text>
  <line x1="950" y1="182" x2="972" y2="182" stroke="#0891b2" stroke-width="3"/><text x="980" y="186" font-size="12.5" fill="#374151">vip 5  448580</text>
  <line x1="950" y1="204" x2="972" y2="204" stroke="#7c3aed" stroke-width="3"/><text x="980" y="208" font-size="12.5" fill="#374151">vip 4  441071</text>
  <line x1="950" y1="226" x2="972" y2="226" stroke="#d97706" stroke-width="3"/><text x="980" y="230" font-size="12.5" fill="#374151">vip 3  436170</text>
  <line x1="950" y1="248" x2="972" y2="248" stroke="#16a34a" stroke-width="3"/><text x="980" y="252" font-size="12.5" fill="#374151">vip 2  417365</text>
  <line x1="950" y1="270" x2="972" y2="270" stroke="#2563eb" stroke-width="3"/><text x="980" y="274" font-size="12.5" fill="#374151">vip 0  391152</text>
  <line x1="950" y1="292" x2="972" y2="292" stroke="#dc2626" stroke-width="3"/><text x="980" y="296" font-size="12.5" fill="#374151">vip 1  391152</text>
  <text x="80" y="542" text-anchor="start" font-size="12" fill="#6b7280">2025-10-10</text><text x="932" y="542" text-anchor="end" font-size="12" fill="#6b7280">2025-10-10</text>
</svg>
