<?xml version="1.0" encoding="UTF-8"?>
<svg xmlns="http://www.w3.org/2000/svg" width="1000" height="520" viewBox="0 0 1000 520" font-family="ui-sans-serif, system-ui, sans-serif">
  <rect width="1000" height="520" fill="#ffffff"/>
  <text x="78" y="28" font-size="18" font-weight="700" fill="#111827">Zone Recovery — BNBUSDT best setting (equity / PnL)</text>
  <text x="78" y="48" font-size="12.5" fill="#6b7280">lev 5 · ratio 4 · gap 20% · maxSteps 4 · maxDD 20% · random · vip 9  ·  8 series, 87.5% win · vol $703290000 ($22686786/day) · fees $107603</text>
  <text x="78" y="68" font-size="12.5" font-weight="600" fill="#1d4ed8">USDT · BNB −10% · taker 0.0153%</text>
  <text x="934" y="28" text-anchor="end" font-size="18" font-weight="700" fill="#16a34a">+12005474 USDT  (+12.01%)</text>
  <line x1="78" y1="468.0" x2="934" y2="468.0" stroke="#e5e7eb" stroke-width="1"/><text x="68" y="472.0" text-anchor="end" font-size="12" fill="#6b7280">0.00</text><line x1="78" y1="392.0" x2="934" y2="392.0" stroke="#e5e7eb" stroke-width="1"/><text x="68" y="396.0" text-anchor="end" font-size="12" fill="#6b7280">24482536</text><line x1="78" y1="316.0" x2="934" y2="316.0" stroke="#e5e7eb" stroke-width="1"/><text x="68" y="320.0" text-anchor="end" font-size="12" fill="#6b7280">48965073</text><line x1="78" y1="240.0" x2="934" y2="240.0" stroke="#e5e7eb" stroke-width="1"/><text x="68" y="244.0" text-anchor="end" font-size="12" fill="#6b7280">73447609</text><line x1="78" y1="164.0" x2="934" y2="164.0" stroke="#e5e7eb" stroke-width="1"/><text x="68" y="168.0" text-anchor="end" font-size="12" fill="#6b7280">97930146</text><line x1="78" y1="88.0" x2="934" y2="88.0" stroke="#e5e7eb" stroke-width="1"/><text x="68" y="92.0" text-anchor="end" font-size="12" fill="#6b7280">122412682</text>
  <line x1="78" y1="157.6" x2="934" y2="157.6" stroke="#9ca3af" stroke-width="1.5" stroke-dasharray="6 4"/><text x="934" y="151.6" text-anchor="end" font-size="11" fill="#6b7280">start 100000000</text>
  <polyline points="78.0,331.7 78.7,329.2 79.4,327.7 80.2,328.1 81.4,330.8 82.1,333.0 82.9,331.8 83.8,330.7 84.8,329.9 85.8,331.5 86.9,329.9 87.8,326.9 88.1,323.4 88.2,320.3 88.4,320.4 88.7,319.1 89.2,317.6 89.6,317.4 90.1,320.5 90.9,319.3 91.6,323.9 92.2,325.0 92.8,325.0 93.5,322.7 94.0,324.3 94.5,320.8 95.0,322.9 95.6,325.3 96.3,325.6 96.9,324.9 97.6,324.3 98.3,324.2 99.1,324.4 100.2,324.5 101.1,325.0 102.2,324.0 103.6,323.6 104.7,323.5 105.6,321.3 106.0,317.8 106.4,322.6 107.2,321.8 107.8,315.7 108.1,317.2 108.6,316.2 109.2,315.7 109.9,316.7 110.7,318.0 111.4,318.5 112.3,317.0 113.1,315.2 113.4,314.5 114.1,313.7 115.0,314.2 115.9,316.6 116.8,312.6 117.7,314.3 118.1,310.2 118.6,309.5 119.2,307.5 119.7,306.4 120.1,304.7 120.2,299.8 120.6,300.2 120.9,304.7 121.3,304.4 121.7,304.0 122.1,306.1 122.6,308.6 122.9,309.7 123.1,308.3 123.5,305.9 123.9,305.5 124.3,300.2 124.6,300.0 125.0,301.1 125.5,300.2 126.1,301.6 126.6,297.8 127.1,295.9 127.7,294.9 128.1,295.0 128.5,292.6 129.0,290.9 129.3,287.5 129.6,286.6 130.0,285.0 130.4,287.6 131.0,289.1 131.5,286.4 131.9,282.7 132.1,278.2 132.3,280.2 132.7,281.8 133.2,282.9 133.5,285.3 134.1,285.6 134.6,283.2 135.0,279.8 135.4,283.6 135.9,280.7 136.3,281.3 136.8,277.9 136.9,272.7 137.1,272.6 137.4,273.3 137.7,272.1 138.0,270.9 138.4,271.6 138.6,277.7 138.8,279.1 139.3,279.7 139.7,279.1 140.2,281.4 140.7,278.3 141.2,281.3 141.6,283.3 142.1,284.9 142.6,284.2 143.0,283.3 143.4,279.6 143.8,274.2 144.1,272.8 144.2,270.3 144.6,271.8 145.1,272.1 145.7,272.5 146.3,274.8 147.1,272.4 147.6,271.2 148.1,272.7 148.6,269.8 148.7,263.4 148.7,259.4 148.8,258.9 148.8,249.6 148.8,255.5 148.9,259.0 149.0,258.7 149.1,259.2 149.3,255.8 149.4,259.3 149.5,261.0 149.7,264.6 149.8,259.6 150.0,257.8 150.2,255.0 150.4,252.4 150.7,252.8 150.9,250.7 151.1,248.2 151.2,249.1 151.4,250.2 151.5,242.8 151.6,243.1 151.6,237.9 151.7,237.4 151.8,241.8 151.9,244.0 152.1,246.0 152.3,244.1 152.4,242.6 152.6,244.2 152.8,245.6 152.8,254.8 152.8,251.5 152.8,253.5 152.9,256.5 152.9,254.0 153.0,250.2 153.1,251.4 153.3,254.5 153.5,251.0 153.8,251.2 153.9,255.5 154.1,252.8 154.4,246.7 154.6,245.6 154.8,240.2 154.9,233.1 154.9,234.3 155.0,234.6 155.2,238.4 155.4,235.5 155.6,235.3 156.0,235.7 156.3,237.3 156.7,235.3 157.1,235.9 157.4,231.0 157.4,229.2 157.7,230.1 158.2,232.5 158.6,230.4 159.0,228.6 159.5,226.2 159.6,223.1 159.7,229.9 160.0,231.9 160.4,228.3 160.7,223.7 161.0,225.8 161.4,228.5 161.7,230.0 162.1,229.9 162.4,234.3 162.7,235.9 163.1,235.8 163.4,234.2 163.7,236.6 164.1,232.2 164.3,231.4 164.7,233.0 165.2,235.6 165.7,234.6 166.3,234.0 166.7,231.2 167.0,228.4 167.4,231.8 167.9,234.4 168.4,232.2 169.1,233.3 169.8,235.9 170.3,237.0 170.7,239.2 170.9,242.7 171.2,244.5 171.5,241.9 172.1,244.2 172.4,246.3 172.9,244.0 173.3,248.1 173.8,249.5 174.2,248.8 174.6,246.0 175.1,247.2 175.6,250.7 175.9,247.2 176.4,248.4 176.9,248.7 177.4,246.6 177.8,245.6 178.1,248.0 178.5,249.5 178.8,253.0 179.1,249.9 179.5,252.1 179.8,254.1 180.1,251.9 180.6,250.1 181.0,243.3 181.3,248.3 181.9,250.2 182.7,250.6 183.8,249.2 184.6,248.7 185.5,243.9 186.5,245.8 187.5,249.8 188.5,247.0 189.2,247.3 189.8,248.3 190.6,246.8 191.2,243.1 191.4,238.8 191.6,243.2 191.9,238.6 192.2,237.8 192.6,236.1 193.1,239.6 193.4,235.4 193.7,231.8 194.0,228.8 194.1,227.5 194.3,224.4 194.5,227.8 194.8,231.1 195.2,231.0 195.7,232.6 196.1,235.7 196.6,236.7 196.9,232.4 197.3,232.3 197.7,230.2 198.2,232.0 198.8,234.6 199.3,235.5 199.4,241.9 199.7,241.4 200.0,240.9 200.2,244.6 200.5,241.9 201.0,240.6 201.5,241.6 202.1,238.3 202.6,239.5 203.0,237.0 203.6,237.1 204.1,239.4 204.6,239.4 205.2,241.9 205.7,240.0 206.5,242.1 207.1,241.3 207.7,240.8 208.0,237.0 208.5,239.4 209.1,239.8 209.6,242.6 210.4,242.7 210.8,244.3 211.4,247.5 211.9,245.2 212.6,242.7 213.4,241.7 214.2,240.2 215.1,240.9 215.8,238.1 216.3,238.8 216.5,235.9 216.8,238.5 217.2,237.6 217.6,231.6 217.8,227.9 218.0,230.9 218.4,230.5 218.9,232.7 219.3,228.1 219.7,228.4 220.3,229.6 220.7,228.3 221.3,228.8 221.8,227.6 222.2,228.1 222.3,221.0 222.4,222.1 222.6,224.6 223.0,223.6 223.2,219.4 223.2,216.9 223.3,216.7 223.5,212.8 223.5,209.1 223.6,208.4 223.7,205.1 223.7,204.4 223.8,206.4 224.0,210.7 224.1,212.1 224.3,213.0 224.6,210.3 224.8,212.2 225.0,217.0 225.2,219.4 225.4,217.1 225.6,215.5 225.9,211.6 226.2,211.2 226.6,211.4 226.8,207.8 227.1,208.8 227.5,206.6 227.8,208.2 228.2,205.8 228.6,207.7 228.9,205.8 229.3,206.6 229.7,206.5 229.9,200.3 230.0,199.9 230.2,198.3 230.3,196.1 230.5,197.1 230.7,196.7 231.1,194.9 231.3,200.9 231.6,199.0 231.8,200.9 231.9,201.2 232.2,200.9 232.4,201.8 232.6,207.3 232.7,208.6 232.9,209.5 233.2,210.2 233.4,206.5 233.7,206.4 234.1,207.4 234.4,204.0 234.7,207.7 235.1,203.6 235.5,204.0 236.0,206.1 236.3,207.3 236.6,205.4 237.2,206.2 237.8,206.2 238.3,204.6 238.8,202.6 239.3,203.9 239.9,203.0 240.6,204.2 241.2,201.5 242.0,202.9 242.6,202.7 243.0,206.6 243.7,204.2 244.2,202.5 244.7,204.6 245.2,206.7 245.3,213.6 245.5,211.1 246.0,208.5 246.5,207.0 247.0,204.4 247.4,201.3 247.9,201.6 248.6,204.9 249.0,201.2 249.1,196.9 249.2,192.1 249.4,191.5 249.6,192.0 249.8,192.1 249.9,188.3 250.0,186.6 250.2,180.7 250.3,185.4 250.4,180.9 250.6,186.1 250.8,185.9 251.1,189.2 251.2,187.4 251.4,192.3 251.6,193.7 251.8,192.6 252.1,189.9 252.3,184.0 252.6,187.6 253.0,187.5 253.1,186.1 253.3,190.6 253.4,196.0 253.6,191.9 253.7,184.4 253.8,184.7 253.9,177.0 253.9,177.2 254.1,178.4 254.3,177.2 254.4,175.9 254.5,175.3 254.6,171.1 254.7,173.5 254.9,174.6 255.1,172.5 255.2,168.3 255.3,173.6 255.4,172.3 255.7,168.9 255.8,165.8 255.8,162.5 255.9,161.3 256.1,163.5 256.2,163.4 256.4,161.6 256.6,163.8 256.7,158.5 256.8,159.6 257.0,158.8 257.2,159.0 257.3,152.4 257.3,152.0 257.3,153.9 257.4,148.2 257.4,149.6 257.5,150.7 257.6,151.8 257.6,151.3 257.7,144.2 257.7,136.0 257.7,128.0 257.7,131.5 257.7,132.4 257.7,133.7 257.7,133.0 257.7,136.0 257.8,133.8 257.8,142.9 257.8,142.4 257.9,142.6 257.9,145.2 258.1,144.5 258.1,154.6 258.1,153.8 258.2,153.4 258.2,150.0 258.3,151.4 258.4,149.9 258.6,146.5 258.7,145.8 258.8,143.5 258.9,143.3 259.0,141.0 259.2,143.3 259.3,148.3 259.3,150.1 259.4,153.3 259.5,156.1 259.5,158.2 259.6,152.3 259.7,151.6 259.8,147.6 259.9,150.4 260.0,152.3 260.0,154.6 260.1,157.8 260.1,155.1 260.2,151.1 260.3,152.1 260.4,150.7 260.5,158.2 260.6,162.6 260.7,157.4 260.8,157.1 260.9,161.0 261.0,156.0 261.1,161.8 261.1,168.1 261.1,165.3 261.2,162.3 261.2,168.5 261.2,167.5 261.3,169.3 261.3,171.1 261.4,174.0 261.4,171.8 261.5,173.8 261.6,170.6 261.7,175.9 261.7,172.4 261.8,177.2 261.9,177.8 262.0,173.7 262.1,169.5 262.2,168.9 262.2,168.5 262.3,171.9 262.4,172.6 262.5,178.0 262.6,173.9 262.8,168.7 262.8,162.3 262.9,161.6 263.0,159.2 263.1,160.1 263.2,167.6 263.3,167.0 263.5,171.5 263.6,169.1 263.9,169.1 264.1,165.3 264.3,167.0 264.5,168.5 264.7,167.7 264.8,174.3 265.1,173.1 265.4,171.3 265.6,166.7 265.8,163.7 265.9,160.8 266.2,161.5 266.4,161.6 266.7,159.9 266.8,155.0 267.1,155.8 267.3,150.6 267.5,153.3 267.7,151.0 267.9,149.3 268.1,146.9 268.3,142.7 268.5,142.8 268.7,148.4 268.9,152.3 269.1,148.9 269.3,146.7 269.6,150.4 269.8,153.2 270.2,154.2 270.4,155.6 270.7,152.8 271.0,149.6 271.2,152.9 271.4,152.8 271.6,145.2 271.7,144.1 271.9,146.7 272.1,143.9 272.1,139.7 272.2,145.3 272.3,147.3 272.5,152.6 272.6,150.5 272.8,150.1 273.0,154.0 273.2,151.9 273.4,152.2 273.7,153.0 273.7,161.4 273.8,164.5 273.8,167.2 274.0,166.6 274.1,163.0 274.4,164.6 274.5,167.9 274.8,165.4 275.0,165.9 275.2,170.2 275.3,171.2 275.5,174.1 275.7,172.3 275.9,175.2 276.1,177.7 276.2,171.8 276.3,168.4 276.6,167.6 276.8,169.5 277.2,168.6 277.4,173.1 277.7,171.9 277.9,170.8 278.2,167.7 278.4,166.7 278.6,163.1 278.8,164.3 279.0,159.7 279.2,153.7 279.3,155.4 279.5,155.6 279.7,158.4 280.0,155.4 280.2,154.0 280.5,153.5 280.6,150.2 280.9,152.8 281.1,148.6 281.2,146.1 281.3,142.7 281.5,146.0 281.7,143.8 281.9,148.7 282.1,153.1 282.2,154.0 282.5,152.0 282.8,149.7 283.0,148.0 283.3,145.6 283.5,149.5 283.8,151.3 284.1,151.8 284.4,153.2 284.7,150.4 285.1,150.6 285.4,148.7 285.7,154.5 286.0,153.5 286.3,156.1 286.5,158.5 286.7,158.4 287.0,156.7 287.1,161.9 287.3,155.4 287.4,148.2 287.5,147.1 287.7,152.8 287.9,156.8 288.1,156.8 288.4,155.9 288.5,159.6 288.8,157.7 288.9,168.4 289.0,155.8 289.2,162.9 289.4,164.3 289.7,163.3 290.0,160.4 290.3,163.5 290.7,158.5 291.0,156.5 291.3,154.6 291.4,151.8 291.7,153.5 292.0,149.7 292.3,147.5 292.5,146.2 292.7,146.3 293.1,146.7 293.4,149.3 293.8,147.3 294.4,147.7 294.8,144.1 295.2,151.0 295.6,152.3 296.4,153.2 296.8,152.8 297.5,156.7 297.9,161.1 298.4,157.9 298.9,154.0 299.4,155.2 299.8,155.1 300.0,149.9 300.3,153.4 300.5,155.9 301.0,155.0 301.4,158.7 301.6,165.6 301.7,169.4 301.7,170.6 301.9,172.9 302.0,175.2 302.1,175.9 302.2,179.0 302.3,181.1 302.3,181.2 302.5,177.1 302.6,176.4 302.9,176.4 303.1,174.1 303.5,171.4 303.8,170.9 304.0,165.9 304.3,172.1 304.7,172.5 305.1,174.5 305.3,166.8 305.5,158.9 305.6,161.1 305.9,157.6 306.0,156.8 306.2,159.5 306.4,154.2 306.5,149.3 306.7,149.5 306.9,154.5 307.1,150.9 307.4,148.5 307.6,150.8 307.7,154.1 307.9,153.0 308.1,153.6 308.3,159.4 308.5,161.2 308.6,164.4 308.7,163.2 308.9,162.8 309.0,163.7 309.2,169.0 309.3,166.6 309.5,168.7 309.6,174.6 309.8,171.5 310.1,171.9 310.3,168.7 310.6,169.8 310.8,176.4 311.0,173.5 311.3,170.1 311.6,168.5 311.9,168.8 312.2,171.0 312.5,168.4 312.9,168.3 313.2,165.7 313.5,168.0 313.7,168.3 314.0,173.4 314.1,178.1 314.3,177.5 314.5,176.5 314.7,179.2 314.8,178.1 315.0,182.1 315.0,189.8 315.1,188.2 315.2,185.7 315.3,183.2 315.5,190.8 315.6,190.9 315.6,196.6 315.7,199.1 315.7,197.1 315.8,195.1 315.9,195.5 316.1,194.6 316.2,190.0 316.4,192.1 316.6,195.4 316.8,196.1 317.0,198.2 317.3,195.2 317.5,195.2 317.7,200.6 317.9,201.8 318.1,198.5 318.4,199.2 318.5,198.7 318.7,194.4 318.9,192.9 319.2,193.5 319.6,191.9 319.9,190.8 320.4,193.2 320.8,192.2 321.5,193.4 322.1,192.7 322.9,190.4 323.5,184.9 324.3,184.2 325.0,184.7 325.5,184.5 326.0,186.0 326.7,184.3 327.1,176.8 327.4,180.9 328.0,183.0 328.5,187.2 328.9,189.5 329.3,187.0 329.9,189.0 330.5,185.1 330.8,180.3 331.1,182.7 331.4,176.1 331.7,174.9 331.9,176.3 332.3,178.2 332.7,178.6 333.1,174.4 333.6,173.1 334.0,174.7 334.4,175.5 334.8,176.9 335.2,179.0 335.7,179.9 336.1,176.5 336.8,178.2 337.2,184.2 337.7,186.8 338.1,187.8 338.8,189.3 339.3,183.4 339.4,174.7 339.6,180.4 340.0,177.2 340.5,175.8 340.9,178.2 341.4,175.5 342.0,176.4 342.2,182.9 342.4,184.7 342.6,187.4 342.9,185.4 343.2,188.7 343.7,188.3 343.8,193.9 343.8,196.2 343.9,196.2 344.0,197.1 344.2,202.3 344.2,201.9 344.3,205.0 344.4,206.3 344.4,214.0 344.4,209.4 344.5,210.8 344.5,207.7 344.6,206.8 344.7,204.4 344.8,207.0 345.0,206.9 345.2,204.4 345.4,201.6 345.5,199.2 345.7,192.6 345.9,204.4 346.0,203.0 346.3,198.9 346.5,203.7 346.8,201.6 347.1,201.4 347.5,200.4 347.9,198.5 348.3,204.2 348.6,204.9 348.8,202.6 348.9,207.5 349.1,209.3 349.3,202.8 349.5,198.9 349.5,191.7 349.5,196.1 349.6,194.5 349.7,197.0 349.9,199.4 350.3,198.5 350.5,204.4 350.6,210.4 350.6,217.9 350.7,210.7 350.7,218.3 350.7,217.3 350.8,224.3 350.8,224.9 350.9,223.8 350.9,232.9 350.9,244.2 350.9,267.1 350.9,263.5 351.0,265.5 351.0,288.5 351.0,273.5 351.0,278.4 351.0,285.5 351.0,317.9 351.0,320.9 351.0,330.6 351.0,333.3 351.0,347.2 351.0,362.3 351.0,389.4 351.1,406.9 351.1,441.6 351.1,406.8 351.1,368.7 351.1,372.6 351.1,342.9 351.1,326.0 351.1,314.4 351.1,313.7 351.1,309.4 351.2,284.6 351.2,309.5 351.2,314.3 351.2,321.5 351.2,342.0 351.2,337.2 351.2,331.2 351.2,338.2 351.3,344.2 351.3,327.4 351.3,314.8 351.3,301.8 351.3,305.8 351.3,309.8 351.4,309.9 351.4,297.0 351.4,298.7 351.4,311.0 351.4,306.4 351.4,301.4 351.5,295.8 351.5,276.5 351.5,288.0 351.5,291.1 351.5,289.2 351.5,278.4 351.6,265.0 351.6,264.6 351.6,267.8 351.6,273.6 351.6,272.9 351.7,266.2 351.7,275.8 351.7,275.4 351.7,268.4 351.8,265.7 351.8,262.7 351.8,272.9 351.8,280.1 351.9,291.3 351.9,288.7 351.9,290.0 351.9,294.9 352.0,288.7 352.0,292.9 352.0,282.8 352.1,276.5 352.1,279.6 352.1,275.7 352.2,278.9 352.2,289.8 352.3,287.9 352.3,294.0 352.3,294.5 352.4,296.8 352.4,293.3 352.5,286.9 352.5,286.3 352.6,287.6 352.6,277.2 352.6,275.8 352.7,276.6 352.7,271.2 352.7,261.3 352.8,253.9 352.8,258.6 352.8,260.9 352.9,266.1 352.9,269.0 353.0,273.7 353.0,275.4 353.1,279.6 353.2,276.0 353.2,275.3 353.3,275.2 353.4,274.1 353.4,273.8 353.5,266.7 353.5,263.0 353.6,268.3 353.6,263.5 353.7,262.7 353.8,259.5 353.8,255.3 353.9,259.7 353.9,263.5 354.0,265.8 354.0,273.4 354.1,274.8 354.2,275.6 354.2,269.8 354.3,268.8 354.4,273.9 354.5,283.8 354.5,284.6 354.6,274.9 354.7,272.2 354.8,275.3 354.9,270.2 355.0,264.1 355.1,261.4 355.3,265.2 355.4,270.9 355.5,270.8 355.6,274.5 355.7,279.7 355.8,280.9 355.9,281.3 356.0,279.1 356.1,284.5 356.2,286.7 356.3,288.3 356.3,288.1 356.4,285.2 356.5,278.8 356.6,279.3 356.7,274.8 356.8,270.7 356.9,264.1 357.0,267.5 357.1,265.1 357.1,263.8 357.3,259.5 357.3,258.3 357.4,255.5 357.6,254.3 357.7,257.3 357.7,260.8 357.8,263.6 357.9,262.5 358.0,262.2 358.1,260.1 358.2,258.8 358.3,260.0 358.4,259.4 358.5,261.6 358.6,261.1 358.8,260.4 358.9,256.8 359.0,256.7 359.2,255.3 359.3,257.6 359.4,258.8 359.6,257.2 359.7,257.2 359.9,257.4 360.1,257.2 360.3,260.3 360.4,266.4 360.5,270.6 360.6,269.1 360.7,271.9 360.9,270.3 361.0,272.3 361.2,276.2 361.3,272.7 361.5,272.2 361.7,270.8 362.0,276.8 362.2,280.6 362.3,282.6 362.5,282.8 362.6,282.6 362.8,281.7 363.0,282.9 363.2,283.6 363.4,280.5 363.6,282.6 363.7,274.2 363.9,274.3 364.1,276.7 364.3,269.8 364.5,268.0 364.6,259.9 364.8,261.7 365.0,260.9 365.2,262.7 365.5,264.1 365.8,262.4 366.1,255.7 366.2,255.8 366.4,258.2 366.8,258.4 367.1,261.3 367.3,257.8 367.7,259.3 368.1,262.5 368.5,260.5 368.8,262.5 369.1,263.0 369.4,262.8 369.7,263.2 369.8,265.2 370.0,258.8 370.3,258.3 370.6,256.1 370.8,258.1 371.2,258.6 371.5,254.4 371.6,249.5 371.7,245.4 371.8,247.2 372.0,246.4 372.2,250.0 372.4,248.8 372.7,255.1 372.9,249.1 373.2,251.5 373.5,250.1 373.7,245.1 373.9,240.8 374.1,240.6 374.3,233.8 374.3,230.3 374.4,233.6 374.6,234.6 374.8,230.5 375.1,230.3 375.4,233.3 375.8,235.2 376.1,234.7 376.3,239.7 376.4,242.4 376.5,241.4 376.7,248.4 376.8,250.4 377.0,250.3 377.1,253.7 377.2,257.3 377.4,253.5 377.6,261.0 377.7,261.1 377.9,263.4 378.1,260.7 378.2,265.5 378.4,270.0 378.5,272.4 378.6,267.4 378.7,264.9 378.8,258.8 379.0,254.9 379.3,254.8 379.6,255.0 379.8,258.1 380.0,255.0 380.2,254.8 380.4,250.0 380.6,251.4 380.9,253.1 381.1,252.1 381.4,254.9 381.8,256.2 382.0,258.0 382.3,264.3 382.5,264.1 382.8,268.3 383.0,269.3 383.2,267.3 383.4,270.6 383.6,270.6 383.7,265.7 383.9,269.0 384.1,270.4 384.4,269.0 384.6,265.2 384.9,269.6 385.1,270.2 385.3,266.3 385.5,266.7 385.7,262.1 385.9,261.1 386.2,264.5 386.5,262.3 386.8,258.7 387.1,261.2 387.5,259.3 387.9,257.3 388.2,254.5 388.5,250.0 388.7,250.5 389.0,249.2 389.2,247.6 389.6,247.6 389.9,242.2 390.1,241.9 390.3,237.2 390.5,240.2 390.7,244.1 391.0,243.3 391.3,245.2 391.5,239.6 391.7,235.9 391.8,230.1 391.8,233.4 391.9,231.9 392.1,234.5 392.3,237.2 392.5,232.1 392.7,228.9 392.9,227.7 393.0,221.6 393.1,222.7 393.2,215.8 393.2,209.3 393.2,208.6 393.3,205.2 393.3,210.3 393.4,207.2 393.5,209.6 393.6,210.1 393.7,210.3 393.9,209.2 394.1,207.2 394.2,202.2 394.3,204.8 394.4,208.1 394.6,206.0 394.8,206.5 395.0,204.0 395.2,206.5 395.4,202.5 395.6,199.4 395.7,195.5 395.8,193.5 395.9,193.6 396.0,188.8 396.0,184.0 396.1,185.3 396.2,188.6 396.4,189.0 396.5,195.2 396.6,193.4 396.8,197.2 396.9,195.7 397.0,191.8 397.1,198.2 397.3,199.0 397.4,200.0 397.5,198.8 397.7,205.0 397.8,204.1 398.0,198.3 398.1,194.5 398.2,196.7 398.5,192.2 398.6,197.2 398.7,189.4 398.8,184.3 398.8,184.6 398.9,179.8 398.9,176.2 399.0,176.8 399.0,182.4 399.0,181.2 399.1,178.4 399.2,178.1 399.2,181.0 399.3,177.2 399.4,179.7 399.5,177.3 399.6,174.5 399.7,178.5 399.7,176.8 399.9,174.8 399.9,165.1 400.0,161.4 400.0,161.9 400.1,155.2 400.2,157.4 400.2,151.2 400.3,158.0 400.3,160.0 400.4,165.1 400.5,165.6 400.6,166.3 400.6,170.0 400.7,168.5 400.8,166.8 401.0,165.6 401.0,157.5 401.1,163.9 401.1,162.0 401.3,160.7 401.4,158.7 401.6,160.8 401.8,160.2 401.9,163.2 402.1,161.8 402.3,162.9 402.5,159.1 402.7,159.1 403.0,158.5 403.2,164.9 403.4,164.2 403.6,158.7 403.9,159.7 404.3,160.8 404.7,159.9 405.0,161.4 405.4,158.6 405.6,155.4 405.7,147.0 405.8,149.0 405.9,158.7 406.0,154.3 406.2,157.3 406.4,162.2 406.6,170.0 406.9,166.2 407.1,160.1 407.2,164.0 407.4,164.3 407.6,168.2 407.8,169.4 408.0,167.8 408.1,166.8 408.3,166.0 408.5,165.0 408.7,160.9 408.9,159.1 409.2,159.3 409.4,158.6 409.5,151.0 409.6,151.8 409.7,148.1 409.9,148.1 410.0,154.4 410.1,155.0 410.3,152.7 410.4,147.5 410.5,151.6 410.7,154.0 410.8,157.6 411.0,154.3 411.2,152.9 411.4,156.2 411.7,155.3 411.9,156.6 412.1,160.2 412.3,162.9 412.5,159.1 412.8,156.7 413.1,151.0 413.3,154.2 413.5,155.3 413.8,159.3 414.0,159.9 414.2,164.2 414.4,167.9 414.6,164.8 414.9,168.2 415.2,164.0 415.4,160.7 415.7,160.1 416.0,163.9 416.3,158.3 416.4,152.8 416.5,150.4 416.6,148.1 416.7,147.8 416.8,147.2 416.8,139.8 416.9,137.3 416.9,135.8 416.9,137.1 417.0,134.7 417.0,138.1 417.1,143.6 417.1,151.1 417.1,148.3 417.2,148.4 417.2,146.9 417.4,146.8 417.4,141.7 417.5,140.0 417.5,138.8 417.6,136.1 417.7,137.5 417.8,137.0 417.9,134.6 418.0,129.5 418.0,132.0 418.1,130.0 418.2,127.6 418.3,134.3 418.3,135.2 418.4,133.2 418.5,133.3 418.6,132.8 418.7,126.1 418.8,124.3 418.9,125.8 419.0,127.3 419.1,128.6 419.3,122.0 419.3,117.6 419.4,118.4 419.4,119.1 419.5,119.8 419.7,117.7 419.8,121.1 419.9,125.9 419.9,128.1 420.0,131.9 420.1,128.5 420.2,128.3 420.3,126.2 420.4,123.4 420.5,124.0 420.6,122.7 420.7,126.2 420.8,129.7 420.9,131.0 420.9,127.4 420.9,133.6 421.0,135.9 421.0,139.5 421.0,134.5 421.0,136.0 421.1,141.4 421.1,137.3 421.1,139.7 421.2,144.1 421.2,144.2 421.3,144.8 421.3,141.3 421.4,144.5 421.4,145.7 421.5,149.9 421.5,151.5 421.6,151.3 421.7,150.4 421.8,147.1 421.9,149.8 422.0,152.3 422.1,154.2 422.1,156.6 422.1,159.2 422.2,155.1 422.3,154.9 422.4,162.3 422.5,161.4 422.5,164.7 422.6,167.2 422.6,172.3 422.6,165.4 422.7,164.3 422.8,163.2 422.9,161.1 423.0,164.7 423.1,161.8 423.2,164.4 423.4,161.0 423.5,161.8 423.6,160.6 423.8,158.0 423.9,158.6 424.0,161.1 424.2,165.2 424.3,168.5 424.4,166.8 424.5,167.6 424.6,166.2 424.8,171.6 424.9,168.1 424.9,159.2 425.0,156.4 425.0,161.7 425.0,166.5 425.1,164.7 425.2,165.0 425.3,167.7 425.4,161.8 425.5,160.5 425.6,163.7 425.7,165.4 425.9,169.4 425.9,173.6 426.0,178.6 426.0,183.7 426.1,186.5 426.1,183.7 426.2,176.6 426.3,177.2 426.4,180.4 426.5,184.5 426.6,185.5 426.7,179.6 426.8,179.0 426.9,178.0 427.0,178.5 427.2,173.5 427.4,172.7 427.6,172.2 427.7,173.4 427.9,169.0 428.0,169.2 428.1,172.0 428.3,169.6 428.4,169.7 428.6,175.7 428.8,171.1 429.0,168.6 429.2,174.0 429.4,173.4 429.6,173.8 429.9,177.3 430.1,168.3 430.2,171.7 430.4,175.0 430.6,171.9 430.9,175.4 431.1,181.3 431.3,176.7 431.6,176.5 431.9,175.3 432.1,172.2 432.4,174.6 432.8,172.2 433.3,168.0 433.6,171.8 434.0,169.1 434.7,166.0 434.9,161.8 435.1,163.6 435.4,164.9 435.9,164.7 436.3,161.3 436.6,163.3 437.1,160.5 437.3,157.1 437.5,153.7 437.6,148.7 437.8,152.6 438.0,157.2 438.2,159.6 438.4,160.3 438.6,163.0 438.9,166.2 439.2,166.8 439.5,167.6 439.7,167.0 440.0,164.5 440.3,167.3 440.5,173.0 440.7,172.3 440.9,175.2 441.2,172.2 441.5,170.8 441.8,172.2 442.1,173.4 442.4,178.0 442.6,182.2 442.6,190.5 442.7,191.5 442.7,191.2 442.7,195.9 442.8,200.0 442.8,194.4 443.0,189.7 443.1,190.7 443.3,191.5 443.4,194.0 443.6,197.4 443.7,196.2 443.9,194.4 444.1,195.8 444.2,200.1 444.3,206.7 444.3,214.0 444.3,212.4 444.4,213.6 444.5,212.7 444.5,219.7 444.5,221.4 444.6,216.0 444.7,218.7 444.8,225.0 444.8,227.6 444.8,222.2 444.9,216.6 445.0,216.9 445.1,211.6 445.2,215.2 445.3,212.1 445.4,211.5 445.6,210.3 445.7,213.2 445.8,219.7 445.9,221.7 446.0,220.4 446.1,223.9 446.2,223.6 446.3,219.7 446.5,217.9 446.6,219.5 446.7,216.1 446.9,216.2 447.1,216.7 447.3,218.6 447.5,217.1 447.7,217.7 447.9,212.6 448.0,214.1 448.2,216.8 448.4,219.6 448.6,222.1 448.7,222.3 448.8,227.3 448.9,224.9 449.0,226.8 449.1,232.4 449.1,234.4 449.2,237.3 449.2,233.9 449.3,230.7 449.4,234.6 449.5,228.0 449.6,224.8 449.8,223.2 449.9,223.9 450.0,225.9 450.2,226.2 450.3,227.0 450.4,230.3 450.5,235.1 450.6,235.1 450.8,235.1 450.9,238.4 451.0,234.4 451.2,239.9 451.3,243.7 451.4,241.9 451.5,240.8 451.7,245.4 451.7,250.1 451.8,244.8 451.9,247.2 452.1,243.2 452.2,247.8 452.3,248.0 452.4,242.6 452.5,243.8 452.6,240.2 452.7,245.4 452.7,242.6 452.8,235.3 452.9,231.9 452.9,227.6 452.9,226.9 452.9,231.7 453.0,229.7 453.1,230.7 453.2,226.5 453.3,227.8 453.4,224.3 453.4,220.4 453.5,222.8 453.6,223.4 453.7,231.6 453.8,229.7 454.0,223.7 454.1,227.9 454.3,229.2 454.4,233.4 454.6,230.6 454.7,226.6 454.9,227.8 455.0,222.4 455.1,217.5 455.2,214.5 455.3,210.3 455.4,211.3 455.4,212.5 455.5,209.0 455.6,203.7 455.7,202.6 455.7,198.5 455.8,196.5 455.8,191.4 455.8,198.2 455.8,199.1 455.9,205.8 455.9,203.2 456.0,204.9 456.1,207.4 456.2,210.0 456.3,204.4 456.5,206.1 456.5,211.7 456.6,221.0 456.6,214.1 456.7,207.7 456.8,205.8 456.8,206.7 457.0,205.0 457.2,209.6 457.3,209.5 457.5,208.4 457.8,207.6 458.0,203.1 458.2,204.3 458.4,206.5 458.6,209.4 458.9,210.2 459.2,206.7 459.5,207.2 459.6,217.7 459.6,215.8 459.7,220.3 459.8,215.8 460.0,213.7 460.2,214.2 460.5,210.3 460.9,208.3 461.4,210.2 461.8,206.9 462.5,207.3 463.0,209.3 463.3,212.0 463.8,208.1 464.3,207.5 464.7,211.6 465.1,217.2 465.3,216.9 465.7,212.0 466.0,215.8 466.4,218.2 466.8,215.3 467.1,212.3 467.3,207.7 467.5,207.0 467.9,205.4 468.2,211.3 468.5,211.5 468.9,215.3 469.2,215.7 469.6,212.6 470.1,213.5 470.4,210.7 470.7,215.4 470.9,222.6 471.0,224.8 471.2,222.5 471.6,222.2 471.8,225.7 472.0,231.2 472.2,231.0 472.4,225.1 472.7,224.0 473.0,225.7 473.3,228.7 473.7,224.4 474.0,222.5 474.1,218.4 474.2,213.6 474.4,211.9 474.5,211.9 474.7,214.7 475.0,219.1 475.2,220.4 475.4,223.8 475.7,222.9 476.0,224.8 476.4,224.3 476.8,228.5 477.1,228.8 477.4,226.8 477.7,228.6 478.1,227.2 478.5,225.3 478.8,226.2 479.0,227.8 479.3,229.2 479.6,233.3 479.7,236.2 480.0,232.7 480.2,229.4 480.4,232.8 480.5,235.7 480.7,232.9 480.9,227.4 481.0,227.0 481.3,230.3 481.6,235.0 481.7,236.7 481.9,237.2 482.1,235.1 482.3,234.8 482.5,237.9 482.7,233.8 482.9,236.2 483.1,242.6 483.3,241.1 483.5,233.7 483.9,232.8 483.9,229.4 484.0,228.0 484.1,230.2 484.3,231.9 484.4,239.2 484.6,239.2 484.8,243.3 485.0,238.9 485.4,240.0 485.7,238.2 486.2,237.4 486.7,237.1 487.3,237.9 487.9,237.3 488.2,242.8 488.4,240.5 488.8,244.0 489.1,247.2 489.4,240.7 490.0,245.2 490.4,241.5 491.0,245.8 491.5,241.9 492.0,239.2 492.5,240.9 492.8,237.4 493.1,237.9 493.5,232.7 493.7,228.7 494.0,229.7 494.4,228.0 494.7,224.6 494.9,223.3 495.2,222.3 495.5,223.3 495.9,224.8 496.2,226.8 496.5,225.1 497.1,223.6 497.6,229.4 497.8,227.2 498.1,230.5 498.6,231.7 498.9,226.0 499.2,228.4 499.6,225.5 499.9,224.5 500.2,225.0 500.6,228.4 501.0,229.0 501.4,227.9 501.7,229.2 502.2,227.2 502.7,224.8 503.0,223.0 503.2,229.8 503.3,235.1 503.4,232.3 503.4,225.1 503.5,226.1 503.7,229.7 503.8,230.4 504.0,226.3 504.2,228.7 504.5,230.2 504.9,230.0 505.3,233.6 505.7,231.9 506.1,226.8 506.5,230.0 506.9,227.9 507.3,226.9 507.6,227.4 507.9,223.7 508.1,228.6 508.3,231.8 508.6,233.7 508.7,238.0 508.8,236.8 509.1,230.7 509.2,232.0 509.5,235.3 509.8,234.9 510.0,241.0 510.2,240.0 510.3,245.7 510.4,251.2 510.5,255.2 510.5,255.7 510.6,257.0 510.6,259.6 510.7,262.2 510.8,257.3 510.9,252.5 510.9,254.7 511.0,258.2 511.1,256.7 511.2,254.6 511.3,257.0 511.4,251.8 511.6,250.0 511.7,246.6 511.8,248.9 512.0,247.9 512.2,247.8 512.5,248.6 512.8,247.4 513.1,252.7 513.3,253.0 513.5,250.1 513.8,248.0 514.0,248.0 514.3,248.6 514.5,249.5 514.8,253.2 515.0,252.7 515.2,249.8 515.5,250.0 515.8,251.3 516.1,251.0 516.4,249.3 516.7,245.1 517.1,241.5 517.7,241.0 518.3,244.5 518.9,245.9 519.3,248.8 519.7,252.1 520.0,250.7 520.4,246.6 520.8,249.1 521.1,244.9 521.5,245.9 522.1,250.7 522.5,252.2 522.9,251.2 523.3,247.2 523.8,247.9 524.3,249.7 524.8,249.7 525.5,251.0 526.0,254.4 526.4,256.0 526.5,260.9 526.9,258.4 527.2,262.7 527.3,267.7 527.4,269.8 527.5,269.8 527.6,272.8 527.6,274.9 527.7,276.3 527.8,276.9 527.9,281.3 528.0,281.8 528.0,287.0 528.1,287.0 528.1,287.7 528.2,285.6 528.3,285.4 528.4,291.7 528.5,295.8 528.5,295.3 528.6,295.6 528.7,295.8 528.8,292.5 528.9,297.4 529.0,299.2 529.0,302.9 529.1,306.4 529.1,309.8 529.1,312.4 529.1,309.4 529.1,313.3 529.2,310.3 529.2,310.4 529.2,318.5 529.3,320.9 529.3,322.9 529.3,320.8 529.4,317.2 529.4,312.8 529.5,310.7 529.5,311.4 529.6,308.1 529.7,308.3 529.8,308.6 529.9,311.8 530.0,313.6 530.1,310.9 530.3,308.8 530.4,307.4 530.6,310.7 530.7,309.1 530.9,305.3 531.0,305.9 531.1,310.5 531.3,313.8 531.5,312.6 531.6,314.6 531.8,318.5 531.8,319.1 532.0,316.5 532.1,315.0 532.3,311.8 532.4,311.8 532.6,310.4 532.7,305.3 532.8,300.8 532.8,295.4 532.9,298.2 533.0,291.9 533.0,293.3 533.1,292.2 533.2,295.4 533.4,293.6 533.5,293.3 533.7,294.6 533.8,297.8 534.0,296.5 534.2,300.3 534.3,297.6 534.6,297.2 534.9,298.4 535.1,300.2 535.3,297.7 535.4,293.6 535.5,295.0 535.6,300.4 535.7,299.2 535.8,292.8 536.0,295.7 536.1,300.8 536.3,300.6 536.5,303.6 536.6,306.0 536.7,303.6 536.8,299.8 537.0,304.7 537.2,300.7 537.4,303.2 537.6,301.7 537.8,305.0 537.9,297.8 538.1,296.3 538.3,289.6 538.3,285.8 538.4,286.7 538.5,285.5 538.7,284.7 538.8,287.5 538.9,292.6 539.1,292.4 539.3,296.6 539.5,294.4 539.8,294.9 540.1,293.8 540.4,293.9 540.7,290.8 541.0,289.2 541.4,292.9 541.8,294.2 542.3,296.5 542.6,298.7 543.1,294.5 543.6,290.9 544.1,287.6 544.5,284.1 545.2,284.5 545.8,292.0 546.5,293.6 547.3,294.7 547.8,292.3 548.3,289.0 548.8,288.1 549.2,284.1 549.7,285.3 550.1,285.1 550.5,284.3 551.0,286.9 551.5,282.9 552.1,285.6 552.7,285.4 553.3,287.0 554.0,288.5 554.5,282.2 554.9,277.9 555.1,280.0 555.4,273.3 555.5,269.3 555.6,262.9 555.7,263.7 555.8,264.8 555.9,268.0 556.1,267.5 556.3,262.4 556.5,261.2 556.6,267.2 556.8,263.9 557.0,265.0 557.3,265.1 557.6,269.3 557.8,274.2 558.1,275.3 558.4,271.8 558.8,273.4 559.2,273.3 559.6,270.1 560.0,273.9 560.3,274.9 560.7,279.2 561.1,276.0 561.5,277.4 561.9,279.0 562.4,279.1 562.7,282.0 563.1,283.7 563.3,285.6 563.7,287.0 563.9,285.0 564.3,280.5 564.6,281.7 565.1,282.6 565.5,282.5 566.0,283.7 566.4,287.1 566.7,285.2 567.2,284.1 567.6,281.5 568.2,280.8 569.0,280.6 569.8,278.3 570.4,276.8 571.1,276.1 571.8,281.3 572.1,281.6 573.2,281.3 574.0,283.0 575.1,282.0 575.7,285.8 576.1,289.4 576.6,287.0 577.4,287.9 578.2,288.1 578.9,284.3 579.5,281.8 580.0,285.3 580.9,282.5 581.4,281.8 582.1,282.2 582.8,286.5 583.5,285.9 584.3,286.0 584.6,284.6 584.8,288.2 585.1,291.2 585.4,291.8 585.6,294.7 585.8,293.4 586.2,290.5 586.3,284.5 586.4,281.7 586.5,281.0 586.6,283.8 586.9,281.6 587.1,275.4 587.3,279.4 587.6,278.8 587.8,273.6 588.0,272.1 588.3,275.4 588.7,278.2 589.1,280.3 589.4,280.8 589.9,279.6 590.4,281.8 590.8,276.5 591.1,272.2 591.2,271.1 591.3,271.7 591.6,267.0 591.7,268.1 592.0,268.5 592.3,265.9 592.6,267.2 593.0,266.3 593.4,266.6 593.9,265.2 594.3,262.6 594.6,264.2 594.8,261.2 595.1,260.6 595.6,265.2 596.1,264.8 596.8,263.6 597.3,267.4 598.1,268.0 599.2,266.1 600.3,268.9 601.1,265.6 602.0,270.4 602.7,273.3 603.0,277.1 603.2,280.8 603.4,281.1 603.8,278.3 604.1,276.7 604.6,277.8 605.1,278.0 605.5,275.3 605.8,270.9 606.4,272.4 606.9,268.9 607.1,263.1 607.2,260.2 607.4,260.0 607.7,262.9 608.0,263.7 608.5,263.7 608.9,261.5 609.4,259.5 609.7,258.6 609.9,252.5 610.1,256.7 610.5,257.6 610.8,261.1 611.2,259.0 611.6,261.4 611.9,264.5 612.4,265.8 612.7,263.2 613.2,266.2 613.6,266.1 614.1,264.7 614.5,261.5 614.9,264.6 615.2,269.8 615.5,270.9 615.9,270.4 616.4,268.8 616.9,268.5 617.4,268.8 617.9,271.9 618.2,270.4 618.5,270.6 618.8,271.0 619.0,273.4 619.2,275.7 619.5,274.6 620.0,273.3 620.3,272.2 620.6,270.7 620.9,268.6 621.1,279.1 621.1,279.3 621.2,277.8 621.4,279.0 621.6,280.8 621.8,282.1 622.0,283.3 622.2,281.2 622.5,282.2 622.9,283.8 623.2,280.8 623.8,281.1 624.4,278.6 625.2,279.7 625.7,278.1 626.4,278.5 627.3,277.9 628.1,281.7 628.9,278.2 629.9,277.4 630.6,278.7 631.3,278.5 632.1,279.5 632.6,283.5 632.8,287.3 633.1,289.9 633.4,288.1 633.9,288.2 634.5,286.7 634.9,292.3 635.0,293.4 635.2,293.9 635.5,295.5 635.7,297.5 635.9,300.1 636.2,297.8 636.6,295.3 637.0,296.0 637.5,295.1 637.9,293.2 638.4,295.9 638.9,292.7 639.5,294.8 640.1,297.2 640.6,295.1 641.3,296.9 642.1,296.6 642.7,292.6 643.2,292.6 643.8,290.1 644.5,288.3 644.8,288.6 645.3,290.5 645.6,292.0 646.0,290.7 646.3,295.5 646.5,289.9 646.7,285.7 646.8,283.3 647.0,285.6 647.3,283.2 647.5,278.1 647.6,278.1 647.7,275.5 647.8,278.0 648.0,273.3 648.1,274.8 648.3,273.4 648.5,270.3 648.7,270.1 648.8,275.2 649.1,273.0 649.3,274.0 649.6,275.9 649.8,281.2 649.8,282.5 650.0,280.4 650.2,285.2 650.3,287.2 650.5,283.7 650.7,280.9 651.2,282.8 651.6,283.4 652.1,281.5 652.8,282.3 653.4,284.1 653.7,288.0 654.2,286.8 654.8,292.1 655.1,291.2 655.9,290.7 656.2,296.6 656.4,297.3 656.8,296.7 657.2,296.2 657.4,303.0 657.6,304.1 657.9,303.3 658.2,300.8 658.6,304.3 658.8,300.2 659.2,299.2 659.7,301.0 660.1,297.3 660.8,297.0 661.5,296.9 662.1,297.5 662.9,294.4 663.8,295.4 664.4,298.1 665.2,297.3 666.0,297.1 666.7,294.8 667.5,297.3 668.5,297.8 669.2,301.5 669.7,298.8 670.5,299.6 670.7,300.3 670.9,296.5 671.2,295.0 671.7,296.1 672.1,297.3 672.5,294.9 672.8,291.1 673.2,290.6 673.5,292.6 673.7,292.1 674.0,288.1 674.2,292.2 674.4,297.8 674.6,297.5 674.8,293.8 675.0,291.3 675.2,289.2 675.4,290.3 675.7,292.0 675.9,290.2 676.3,288.9 676.7,292.8 676.9,294.3 677.2,291.3 677.7,293.0 678.3,296.1 678.8,296.6 679.3,295.8 679.8,295.3 680.5,293.9 681.0,296.6 681.7,296.9 682.1,301.6 682.3,301.9 682.7,304.0 683.3,299.2 683.9,300.6 684.4,299.7 684.8,293.8 685.5,294.6 686.1,292.5 686.7,288.0 687.2,288.8 687.8,287.9 688.7,288.2 689.3,284.8 689.9,285.5 690.8,285.3 691.4,286.1 692.2,281.3 692.6,277.7 692.7,272.6 692.9,273.8 693.3,272.3 693.6,273.7 694.0,276.0 694.4,272.7 694.7,272.1 694.9,267.3 695.0,265.2 695.2,266.9 695.5,269.2 695.8,269.0 696.0,272.5 696.3,274.2 696.7,274.2 696.9,278.5 697.0,277.1 697.2,277.7 697.4,277.9 697.7,276.9 698.1,278.6 698.6,279.2 699.0,281.0 699.4,283.8 699.7,282.1 700.2,283.0 700.7,283.8 701.1,282.2 701.3,284.1 701.7,284.4 701.8,289.7 701.9,288.7 702.2,286.2 702.6,286.1 702.9,279.9 702.9,271.3 702.9,273.0 702.9,265.6 702.9,264.3 702.9,258.5 703.0,256.2 703.0,260.5 703.0,263.4 703.0,260.1 703.0,257.7 703.0,259.3 703.0,253.8 703.0,254.4 703.1,252.6 703.1,258.2 703.1,261.7 703.1,264.6 703.2,265.2 703.2,258.1 703.2,258.8 703.3,255.8 703.3,254.1 703.3,256.3 703.4,250.5 703.4,245.9 703.4,242.7 703.4,249.3 703.5,250.4 703.5,252.4 703.6,254.5 703.6,254.1 703.7,255.1 703.9,259.6 704.0,256.6 704.1,262.3 704.3,262.3 704.5,259.7 704.6,258.9 704.9,256.1 705.1,258.8 705.2,263.2 705.4,261.6 705.7,262.7 705.9,257.8 706.2,258.9 706.5,263.6 706.8,263.9 707.2,268.8 707.3,272.5 707.5,272.0 708.0,268.8 708.5,268.4 709.0,268.1 709.6,270.6 710.0,268.3 710.9,268.0 711.5,266.4 712.3,265.0 712.8,261.8 713.2,259.3 713.6,257.2 714.0,255.5 714.4,255.2 714.8,261.0 715.3,259.2 716.0,261.6 716.5,256.6 717.0,255.4 717.6,258.4 718.2,254.7 718.4,256.1 718.7,252.6 719.1,254.9 719.7,254.9 720.3,256.8 720.9,255.3 721.5,257.4 722.0,260.9 722.3,263.5 722.7,262.9 723.2,261.1 723.7,259.1 724.3,258.2 724.7,261.1 725.3,262.4 726.0,262.2 726.6,262.2 727.2,262.6 727.5,256.2 727.6,258.6 727.8,261.5 728.3,261.5 728.8,263.4 728.9,267.1 729.1,265.4 729.4,268.9 729.7,273.1 729.9,271.9 730.2,273.3 730.5,272.3 730.8,271.3 731.2,274.9 731.6,277.9 731.8,277.8 732.3,278.5 732.9,277.1 733.5,275.5 734.3,273.3 735.1,270.8 735.9,271.9 736.9,271.9 738.2,271.7 739.3,272.4 740.8,273.0 741.5,275.4 742.3,274.6 743.2,273.1 744.3,269.4 745.0,267.5 745.8,267.0 746.6,269.7 747.6,267.3 748.6,268.9 749.5,269.2 750.4,269.3 751.5,268.0 752.5,271.6 753.6,269.3 754.8,268.2 755.8,268.2 757.0,269.9 758.1,271.3 758.6,272.5 759.6,271.7 760.8,269.6 762.3,269.1 763.7,267.8 765.4,268.7 767.0,266.4 768.3,267.9 769.2,265.5 770.0,264.0 770.9,266.9 771.9,265.4 773.0,267.5 774.4,267.3 775.8,264.9 777.3,265.2 778.4,262.6 779.2,260.2 779.4,262.0 780.0,265.0 781.0,262.6 781.7,259.0 781.9,258.8 782.2,256.9 782.7,257.3 783.2,254.9 783.7,257.0 784.2,255.3 784.7,258.1 785.3,258.2 785.9,258.9 786.9,258.8 787.8,261.5 788.8,261.9 790.1,259.6 791.7,263.0 793.2,260.9 793.7,253.4 793.9,255.1 794.3,255.3 794.8,252.8 795.3,254.0 795.9,255.0 796.3,252.1 796.8,251.9 797.3,254.9 797.7,249.8 798.0,247.0 798.4,243.9 798.5,243.3 798.9,243.9 799.4,244.9 799.9,244.0 800.5,246.6 800.8,251.2 801.1,249.4 801.7,251.5 802.1,247.4 802.7,247.2 803.3,247.9 803.8,246.1 804.2,244.2 804.5,241.8 804.8,245.2 805.1,243.5 805.6,245.7 806.0,243.1 806.4,246.0 806.7,244.8 807.1,242.9 807.6,245.4 808.2,247.1 808.8,242.9 809.3,242.8 809.4,237.4 809.7,235.8 809.7,228.4 809.9,230.9 810.1,233.0 810.4,236.0 810.8,236.6 811.2,235.4 811.6,237.4 811.7,244.7 811.7,250.5 811.7,248.0 811.8,246.8 812.0,246.2 812.2,250.4 812.4,250.7 812.6,252.0 812.9,254.2 813.1,259.6 813.3,252.6 813.6,253.3 813.9,253.8 814.3,252.3 814.6,249.4 814.9,249.3 815.3,251.6 815.8,249.3 816.5,248.3 817.1,250.3 817.9,251.2 818.6,251.1 819.2,251.9 820.2,251.6 820.7,256.0 821.5,251.7 822.1,256.4 822.7,256.4 823.3,253.3 824.0,252.9 824.7,254.4 825.4,251.7 826.1,253.7 826.6,255.4 827.0,257.3 827.4,256.7 828.1,256.5 828.7,254.9 829.5,254.4 829.8,257.0 830.1,261.1 830.3,262.2 830.5,263.1 831.0,262.0 831.6,259.7 832.1,257.7 832.9,258.7 833.5,255.9 834.3,257.1 835.1,255.5 836.1,256.4 837.0,256.6 837.7,257.0 838.5,254.0 838.9,252.1 839.2,253.2 839.6,251.4 840.0,251.2 840.4,253.1 840.5,261.2 840.8,255.8 841.2,255.5 841.6,258.3 842.2,255.5 842.6,253.6 843.1,250.5 843.8,250.4 844.4,251.7 845.1,253.3 845.8,256.3 846.1,257.0 846.4,260.4 846.7,264.5 846.9,266.3 847.0,269.0 847.2,273.8 847.2,278.7 847.2,283.8 847.2,281.0 847.4,277.4 847.5,279.4 847.5,288.2 847.6,290.5 847.6,284.2 847.8,282.5 848.0,283.2 848.3,281.1 848.9,278.8 849.2,279.0 849.8,275.6 850.3,275.4 851.0,275.5 851.5,274.3 852.1,276.6 852.7,277.6 853.2,274.6 853.8,275.8 854.7,276.4 855.6,275.2 856.5,272.1 857.3,271.6 858.1,272.1 858.8,268.9 859.1,266.5 859.6,267.5 860.1,269.5 860.5,268.1 860.9,268.2 861.3,269.8 861.8,270.6 862.3,269.9 862.7,270.2 862.9,269.8 863.3,267.5 863.7,270.4 864.3,267.8 864.8,269.4 865.7,270.1 866.5,267.9 867.0,270.1 867.3,273.0 867.7,274.1 868.2,271.6 868.7,273.4 869.1,275.7 869.3,278.9 869.7,278.9 869.9,278.7 870.2,276.7 870.8,276.4 871.4,273.2 871.9,272.1 872.0,274.6 872.2,271.3 872.6,272.9 872.6,278.2 872.6,282.7 872.7,287.6 872.8,279.9 872.9,274.4 873.0,272.9 873.2,272.3 873.5,271.6 873.8,275.9 874.2,271.7 874.7,268.1 875.4,267.6 876.5,267.8 877.4,268.9 878.3,272.9 878.9,273.5 879.5,270.6 880.1,266.6 881.0,267.6 881.7,268.0 882.8,267.3 883.6,271.4 883.8,274.0 883.9,282.2 884.0,283.8 884.1,276.7 884.3,275.4 884.6,277.2 885.1,276.2 885.5,269.6 885.9,271.3 886.6,268.2 887.2,266.9 888.0,267.0 888.8,268.7 889.6,272.4 890.3,272.5 890.6,267.7 890.7,261.1 890.8,263.1 891.1,265.2 891.5,265.7 891.9,268.5 892.4,270.4 892.9,271.5 893.1,275.9 893.3,275.1 893.4,280.2 893.6,280.4 893.9,276.3 894.2,279.2 894.4,283.2 894.5,286.8 894.6,283.4 894.8,286.9 894.9,288.0 895.1,285.9 895.3,287.1 895.6,287.1 895.8,286.4 896.1,286.9 896.3,289.0 896.6,287.8 896.9,290.1 897.1,291.8 897.3,288.7 897.7,290.2 898.1,290.5 898.5,292.3 898.8,295.3 898.9,298.4 899.2,297.7 899.4,294.9 900.0,297.2 900.4,297.3 900.8,298.3 901.2,298.1 901.5,301.3 901.8,301.7 901.8,305.8 901.9,306.7 901.9,308.2 902.0,311.6 902.1,305.3 902.3,303.9 902.5,302.1 902.8,300.1 903.2,298.1 903.8,297.7 904.5,297.8 905.1,296.5 905.7,295.2 906.2,290.9 906.7,290.1 907.3,290.3 907.7,285.9 908.1,285.5 908.6,286.1 909.0,290.1 909.5,290.6 909.9,290.5 910.6,287.4 911.1,284.6 911.4,281.6 911.8,279.8 912.2,279.4 912.7,281.9 913.3,278.0 913.5,281.8 914.1,281.2 914.7,281.0 915.3,280.7 915.7,278.9 916.0,276.5 916.3,277.3 916.7,276.1 916.9,281.6 917.1,280.7 917.3,283.6 917.6,282.5 917.9,283.5 918.3,284.6 918.7,283.5 919.0,286.7 919.1,289.9 919.1,286.0 919.2,287.0 919.2,284.4 919.4,287.8 919.6,288.2 920.0,285.8 920.2,284.4 920.4,282.1 920.8,284.9 921.1,289.0 921.5,289.7 921.9,288.7 922.3,288.7 922.6,286.9 923.0,288.3 923.5,287.4 923.8,283.7 924.3,286.7 924.9,285.8 925.6,288.5 925.9,293.7 926.3,291.8 926.7,291.8 927.4,290.9 928.0,288.6 928.7,286.2 929.3,283.2 930.2,285.4 931.4,285.6 932.8,284.5 934.0,284.5" fill="none" stroke="#d97706" stroke-width="1.2" stroke-linejoin="round" opacity="0.6"/><text x="942" y="472.0" text-anchor="start" font-size="11" fill="#d97706">779.52</text><text x="942" y="396.0" text-anchor="start" font-size="11" fill="#d97706">907.35</text><text x="942" y="320.0" text-anchor="start" font-size="11" fill="#d97706">1035</text><text x="942" y="244.0" text-anchor="start" font-size="11" fill="#d97706">1163</text><text x="942" y="168.0" text-anchor="start" font-size="11" fill="#d97706">1291</text><text x="942" y="92.0" text-anchor="start" font-size="11" fill="#d97706">1419</text><text x="942" y="80.0" text-anchor="start" font-size="11" font-weight="600" fill="#d97706">price</text>
  <polygon points="154.9,468.0 154.9,157.6 154.9,149.6 257.7,141.7 350.9,134.4 351.0,127.1 351.0,129.1 351.1,131.6 351.4,119.2 351.4,121.2 351.5,123.7 351.5,126.8 351.6,130.7 371.6,132.6 378.4,134.9 389.8,137.8 416.8,123.5 527.3,116.1 809.4,118.0 846.8,120.3 846.8,468.0" fill="#16a34a" fill-opacity="0.08"/>
  <polyline points="154.9,157.6 154.9,149.6 257.7,141.7 350.9,134.4 351.0,127.1 351.0,129.1 351.1,131.6 351.4,119.2 351.4,121.2 351.5,123.7 351.5,126.8 351.6,130.7 371.6,132.6 378.4,134.9 389.8,137.8 416.8,123.5 527.3,116.1 809.4,118.0 846.8,120.3" fill="none" stroke="#16a34a" stroke-width="2" stroke-linejoin="round"/>
  <line x1="88" y1="102" x2="110" y2="102" stroke="#16a34a" stroke-width="2.5"/><text x="116" y="106" font-size="11.5" fill="#374151">equity</text><line x1="88" y1="118" x2="110" y2="118" stroke="#d97706" stroke-width="2.5" opacity="0.8"/><text x="116" y="122" font-size="11.5" fill="#374151">price</text>
  <text x="78" y="502" text-anchor="start" font-size="12" fill="#6b7280">2025-10-01</text><text x="934" y="502" text-anchor="end" font-size="12" fill="#6b7280">2025-10-31</text>
</svg>
