<?xml version="1.0" encoding="UTF-8"?>
<svg xmlns="http://www.w3.org/2000/svg" width="1100" height="560" viewBox="0 0 1100 560" font-family="ui-sans-serif, system-ui, sans-serif">
  <rect width="1100" height="560" fill="#ffffff"/>
  <text x="80" y="28" font-size="18" font-weight="700" fill="#111827">Zone Recovery — BNBUSDT fee-tier comparison (best setting)</text>
  <text x="80" y="48" font-size="12.5" fill="#6b7280">lev 5 · ratio 4 · gap 20% · maxSteps 4 · maxDD 20% · random  ·  equity per fee tier vip 0..9</text>
  <text x="80" y="68" font-size="12.5" font-weight="600" fill="#1d4ed8">USDT margin · BNB −10%</text>
  <line x1="80" y1="508.0" x2="932" y2="508.0" stroke="#e5e7eb" stroke-width="1"/><text x="70" y="512.0" text-anchor="end" font-size="12" fill="#6b7280">0.00</text><line x1="80" y1="424.0" x2="932" y2="424.0" stroke="#e5e7eb" stroke-width="1"/><text x="70" y="428.0" text-anchor="end" font-size="12" fill="#6b7280">24482536</text><line x1="80" y1="340.0" x2="932" y2="340.0" stroke="#e5e7eb" stroke-width="1"/><text x="70" y="344.0" text-anchor="end" font-size="12" fill="#6b7280">48965073</text><line x1="80" y1="256.0" x2="932" y2="256.0" stroke="#e5e7eb" stroke-width="1"/><text x="70" y="260.0" text-anchor="end" font-size="12" fill="#6b7280">73447609</text><line x1="80" y1="172.0" x2="932" y2="172.0" stroke="#e5e7eb" stroke-width="1"/><text x="70" y="176.0" text-anchor="end" font-size="12" fill="#6b7280">97930146</text><line x1="80" y1="88.0" x2="932" y2="88.0" stroke="#e5e7eb" stroke-width="1"/><text x="70" y="92.0" text-anchor="end" font-size="12" fill="#6b7280">122412682</text>
  <line x1="80" y1="164.9" x2="932" y2="164.9" stroke="#9ca3af" stroke-width="1.5" stroke-dasharray="6 4"/>
  <polyline points="80.0,164.9 80.0,156.2 206.6,147.4 321.4,139.4 321.5,131.3 321.6,133.6 321.6,136.4 322.1,122.7 322.1,125.0 322.1,127.8 322.1,131.3 322.2,135.7 346.9,137.7 355.2,140.3 369.3,143.6 402.6,127.8 538.6,119.8 885.9,121.8 932.0,124.4" fill="none" stroke="#2563eb" stroke-width="1.8" stroke-linejoin="round" opacity="0.9"/>
  <polyline points="80.0,164.9 80.0,156.2 206.6,147.4 321.4,139.4 321.5,131.3 321.6,133.6 321.6,136.4 322.1,122.7 322.1,125.0 322.1,127.8 322.1,131.3 322.2,135.7 346.9,137.7 355.2,140.3 369.3,143.6 402.6,127.8 538.6,119.8 885.9,121.8 932.0,124.4" fill="none" stroke="#dc2626" stroke-width="1.8" stroke-linejoin="round" opacity="0.9"/>
  <polyline points="80.0,164.9 80.0,156.2 206.6,147.4 321.4,139.3 321.5,131.3 321.6,133.5 321.6,136.3 322.1,122.6 322.1,124.9 322.1,127.7 322.1,131.2 322.2,135.5 346.9,137.6 355.2,140.2 369.3,143.4 402.6,127.6 538.6,119.6 885.9,121.6 932.0,124.2" fill="none" stroke="#16a34a" stroke-width="1.8" stroke-linejoin="round" opacity="0.9"/>
  <polyline points="80.0,164.9 80.0,156.1 206.6,147.4 321.4,139.3 321.5,131.2 321.6,133.5 321.6,136.2 322.1,122.6 322.1,124.8 322.1,127.6 322.1,131.1 322.2,135.4 346.9,137.5 355.2,140.0 369.3,143.3 402.6,127.5 538.6,119.4 885.9,121.5 932.0,124.0" fill="none" stroke="#d97706" stroke-width="1.8" stroke-linejoin="round" opacity="0.9"/>
  <polyline points="80.0,164.9 80.0,156.1 206.6,147.4 321.4,139.3 321.5,131.2 321.6,133.5 321.6,136.2 322.1,122.6 322.1,124.8 322.1,127.6 322.1,131.0 322.2,135.4 346.9,137.4 355.2,140.0 369.3,143.2 402.6,127.4 538.6,119.4 885.9,121.4 932.0,124.0" fill="none" stroke="#7c3aed" stroke-width="1.8" stroke-linejoin="round" opacity="0.9"/>
  <polyline points="80.0,164.9 80.0,156.1 206.6,147.4 321.4,139.3 321.5,131.2 321.6,133.4 321.6,136.2 322.1,122.5 322.1,124.8 322.1,127.5 322.1,131.0 322.2,135.4 346.9,137.4 355.2,140.0 369.3,143.2 402.6,127.4 538.6,119.3 885.9,121.4 932.0,123.9" fill="none" stroke="#0891b2" stroke-width="1.8" stroke-linejoin="round" opacity="0.9"/>
  <polyline points="80.0,164.9 80.0,156.1 206.6,147.4 321.4,139.3 321.5,131.2 321.6,133.4 321.6,136.2 322.1,122.5 322.1,124.7 322.1,127.5 322.1,131.0 322.2,135.3 346.9,137.4 355.2,139.9 369.3,143.1 402.6,127.4 538.6,119.3 885.9,121.3 932.0,123.9" fill="none" stroke="#db2777" stroke-width="1.8" stroke-linejoin="round" opacity="0.9"/>
  <polyline points="80.0,164.9 80.0,156.1 206.6,147.4 321.4,139.3 321.5,131.2 321.6,133.4 321.6,136.2 322.1,122.5 322.1,124.7 322.1,127.5 322.1,131.0 322.2,135.3 346.9,137.3 355.2,139.9 369.3,143.1 402.6,127.3 538.6,119.2 885.9,121.3 932.0,123.8" fill="none" stroke="#65a30d" stroke-width="1.8" stroke-linejoin="round" opacity="0.9"/>
  <polyline points="80.0,164.9 80.0,156.1 206.6,147.4 321.4,139.3 321.5,131.2 321.6,133.4 321.6,136.2 322.1,122.5 322.1,124.7 322.1,127.5 322.1,130.9 322.2,135.3 346.9,137.3 355.2,139.9 369.3,143.1 402.6,127.3 538.6,119.2 885.9,121.2 932.0,123.8" fill="none" stroke="#475569" stroke-width="1.8" stroke-linejoin="round" opacity="0.9"/>
  <polyline points="80.0,164.9 80.0,156.1 206.6,147.4 321.4,139.3 321.5,131.2 321.6,133.4 321.6,136.2 322.1,122.5 322.1,124.7 322.1,127.4 322.1,130.9 322.2,135.2 346.9,137.3 355.2,139.8 369.3,143.0 402.6,127.2 538.6,119.1 885.9,121.2 932.0,123.7" fill="none" stroke="#ea580c" stroke-width="1.8" stroke-linejoin="round" opacity="0.9"/>
  <line x1="950" y1="94" x2="972" y2="94" stroke="#ea580c" stroke-width="3"/><text x="980" y="98" font-size="12.5" fill="#374151">vip 9  112005474</text>
  <line x1="950" y1="116" x2="972" y2="116" stroke="#475569" stroke-width="3"/><text x="980" y="120" font-size="12.5" fill="#374151">vip 8  111986485</text>
  <line x1="950" y1="138" x2="972" y2="138" stroke="#65a30d" stroke-width="3"/><text x="980" y="142" font-size="12.5" fill="#374151">vip 7  111973826</text>
  <line x1="950" y1="160" x2="972" y2="160" stroke="#db2777" stroke-width="3"/><text x="980" y="164" font-size="12.5" fill="#374151">vip 6  111954837</text>
  <line x1="950" y1="182" x2="972" y2="182" stroke="#0891b2" stroke-width="3"/><text x="980" y="186" font-size="12.5" fill="#374151">vip 5  111942177</text>
  <line x1="950" y1="204" x2="972" y2="204" stroke="#7c3aed" stroke-width="3"/><text x="980" y="208" font-size="12.5" fill="#374151">vip 4  111923189</text>
  <line x1="950" y1="226" x2="972" y2="226" stroke="#d97706" stroke-width="3"/><text x="980" y="230" font-size="12.5" fill="#374151">vip 3  111910529</text>
  <line x1="950" y1="248" x2="972" y2="248" stroke="#16a34a" stroke-width="3"/><text x="980" y="252" font-size="12.5" fill="#374151">vip 2  111859893</text>
  <line x1="950" y1="270" x2="972" y2="270" stroke="#2563eb" stroke-width="3"/><text x="980" y="274" font-size="12.5" fill="#374151">vip 0  111796596</text>
  <line x1="950" y1="292" x2="972" y2="292" stroke="#dc2626" stroke-width="3"/><text x="980" y="296" font-size="12.5" fill="#374151">vip 1  111796596</text>
  <text x="80" y="542" text-anchor="start" font-size="12" fill="#6b7280">2025-10-03</text><text x="932" y="542" text-anchor="end" font-size="12" fill="#6b7280">2025-10-28</text>
</svg>
