<?xml version="1.0" encoding="UTF-8"?>
<svg xmlns="http://www.w3.org/2000/svg" width="1000" height="520" viewBox="0 0 1000 520" font-family="ui-sans-serif, system-ui, sans-serif">
  <rect width="1000" height="520" fill="#ffffff"/>
  <text x="78" y="28" font-size="18" font-weight="700" fill="#111827">Zone Recovery — ETHUSDC best setting (equity / PnL)</text>
  <text x="78" y="48" font-size="12.5" fill="#6b7280">lev 20 · ratio 3 · gap 35% · maxSteps 4 · maxDD 60% · random · vip 9  ·  6 series, 100.0% win · vol $3837815 ($3837826/day) · fees $324.68</text>
  <text x="78" y="68" font-size="12.5" font-weight="600" fill="#1d4ed8">USDC · BNB −10% · taker 0.0085%</text>
  <text x="934" y="28" text-anchor="end" font-size="18" font-weight="700" fill="#16a34a">+29038 USDT  (+290.38%)</text>
  <line x1="78" y1="468.0" x2="934" y2="468.0" stroke="#e5e7eb" stroke-width="1"/><text x="68" y="472.0" text-anchor="end" font-size="12" fill="#6b7280">0.00</text><line x1="78" y1="392.0" x2="934" y2="392.0" stroke="#e5e7eb" stroke-width="1"/><text x="68" y="396.0" text-anchor="end" font-size="12" fill="#6b7280">9302</text><line x1="78" y1="316.0" x2="934" y2="316.0" stroke="#e5e7eb" stroke-width="1"/><text x="68" y="320.0" text-anchor="end" font-size="12" fill="#6b7280">18603</text><line x1="78" y1="240.0" x2="934" y2="240.0" stroke="#e5e7eb" stroke-width="1"/><text x="68" y="244.0" text-anchor="end" font-size="12" fill="#6b7280">27905</text><line x1="78" y1="164.0" x2="934" y2="164.0" stroke="#e5e7eb" stroke-width="1"/><text x="68" y="168.0" text-anchor="end" font-size="12" fill="#6b7280">37207</text><line x1="78" y1="88.0" x2="934" y2="88.0" stroke="#e5e7eb" stroke-width="1"/><text x="68" y="92.0" text-anchor="end" font-size="12" fill="#6b7280">46509</text>
  <line x1="78" y1="386.3" x2="934" y2="386.3" stroke="#9ca3af" stroke-width="1.5" stroke-dasharray="6 4"/><text x="934" y="380.3" text-anchor="end" font-size="11" fill="#6b7280">start 10000</text>
  <polyline points="78.0,122.5 78.9,122.6 80.4,121.9 81.7,122.6 82.7,124.2 84.5,122.6 86.8,123.1 88.2,121.0 88.8,119.7 90.6,120.3 93.2,120.3 94.4,118.8 95.5,117.3 97.1,119.5 98.5,119.0 100.6,119.6 102.4,118.4 104.4,119.5 107.2,120.7 109.7,119.2 112.2,119.0 114.3,118.6 115.7,116.5 116.8,115.7 118.0,116.8 119.7,116.9 122.0,116.6 124.5,117.1 125.7,115.5 128.1,116.2 129.0,114.5 131.2,114.5 133.2,116.2 135.4,117.8 137.5,118.9 138.3,120.6 139.8,120.3 141.5,120.7 143.7,120.4 144.9,118.3 145.7,120.1 147.2,120.8 148.9,120.9 150.0,121.7 151.0,122.9 152.1,123.3 152.9,124.0 153.8,124.6 154.6,124.6 155.5,123.1 157.1,123.9 158.8,122.6 160.1,121.4 161.3,119.1 162.6,119.0 164.9,119.6 167.2,119.4 168.2,121.1 169.0,122.7 170.6,123.1 172.4,123.0 174.4,121.1 176.0,121.9 177.6,124.0 178.9,124.1 180.1,124.6 180.9,126.6 181.2,126.8 181.6,128.0 182.5,125.3 184.1,125.3 185.9,126.1 187.1,128.2 187.8,129.2 188.5,127.4 189.9,128.2 191.5,128.3 192.9,127.7 194.1,126.0 195.2,127.0 196.9,125.3 197.9,123.5 198.6,123.6 199.9,122.8 200.8,122.6 201.7,122.5 202.4,119.9 203.1,118.7 203.3,116.9 203.7,117.3 204.1,115.2 204.4,116.3 205.0,116.1 205.6,117.1 206.3,115.3 207.1,116.7 207.9,116.6 208.7,117.7 209.5,118.4 210.4,117.8 211.6,117.4 212.4,115.9 213.6,116.0 214.6,116.9 215.3,118.9 215.8,120.5 216.1,122.7 216.3,124.4 216.8,125.3 217.2,126.0 217.8,127.6 218.0,130.2 218.2,129.9 218.5,130.2 218.9,129.5 219.6,127.4 220.1,127.7 220.7,130.0 221.2,128.4 221.8,128.9 222.5,129.4 223.4,128.7 224.1,127.3 225.0,126.6 225.5,125.0 226.3,126.1 227.3,126.9 228.3,126.5 229.1,126.0 230.2,126.6 231.0,127.7 232.0,128.7 232.7,128.7 233.4,127.9 234.3,126.7 235.4,127.3 236.0,129.7 237.4,128.8 238.7,128.5 239.7,127.1 240.5,128.7 241.1,130.2 242.0,130.7 242.5,131.9 243.1,132.0 243.9,133.8 244.6,132.8 245.9,132.3 247.1,131.4 248.4,130.5 249.9,131.0 251.5,130.3 253.4,129.9 255.1,130.3 257.1,130.7 258.6,132.3 259.0,134.1 259.5,135.5 260.3,135.7 260.9,133.0 262.3,133.7 264.2,133.3 265.5,132.2 267.0,132.0 268.8,131.6 270.0,130.2 270.3,127.8 270.8,127.5 271.3,125.3 271.9,125.7 272.5,126.5 273.2,126.4 274.3,127.1 275.1,128.6 275.9,129.8 277.0,129.9 278.3,129.4 280.0,128.8 281.2,126.5 283.2,125.6 284.3,124.4 285.5,123.7 286.7,123.6 288.1,123.6 289.1,122.4 290.4,122.9 292.4,122.1 293.3,122.0 294.2,121.5 295.1,120.4 296.3,120.9 297.4,122.0 298.5,123.5 299.6,123.8 301.1,122.3 302.2,122.7 303.7,123.4 304.3,125.4 305.0,126.6 306.3,126.5 308.4,126.4 309.4,128.3 310.5,128.3 311.4,128.9 312.7,126.9 313.4,128.0 314.0,130.2 314.5,131.0 314.9,130.9 315.6,131.7 316.5,129.1 317.6,128.4 318.8,129.0 319.7,127.5 320.7,130.5 321.2,132.8 321.5,134.6 321.7,135.9 322.0,135.1 322.4,137.0 322.8,136.4 323.3,137.5 324.1,136.9 325.1,136.5 326.4,135.8 327.8,136.4 328.4,137.1 329.0,138.2 330.3,137.7 331.3,138.4 332.1,139.6 333.0,139.6 333.9,136.8 335.0,136.5 336.0,135.8 337.2,137.6 337.8,138.2 339.0,137.7 340.0,135.3 340.9,136.4 341.8,137.2 342.9,138.0 343.8,135.8 345.1,134.6 345.7,136.2 346.7,137.3 347.9,137.7 349.1,136.7 349.9,135.3 351.2,135.1 352.3,133.9 354.3,134.6 355.1,136.5 355.2,137.6 356.2,137.4 357.5,137.8 358.8,137.7 360.1,136.7 361.4,136.0 362.8,138.0 363.8,137.1 364.7,135.2 365.7,136.2 366.5,138.2 366.8,139.1 367.5,137.0 368.4,138.0 369.6,137.4 370.6,137.3 372.3,136.9 373.0,134.4 374.3,134.6 375.4,135.0 377.2,134.8 379.5,133.6 381.4,133.5 382.6,133.9 384.0,135.5 385.4,135.0 387.2,134.3 388.9,136.3 390.1,134.5 391.5,133.5 393.1,132.9 394.3,131.2 396.5,130.9 397.7,129.7 398.4,130.1 399.5,130.7 399.8,131.5 400.5,132.7 402.0,133.2 403.3,132.4 405.9,132.5 408.0,132.0 410.3,132.6 411.3,133.7 413.5,132.6 415.2,130.0 416.3,128.5 417.5,129.6 419.0,129.3 420.1,129.2 423.1,130.4 425.0,130.6 427.2,130.9 428.0,133.6 428.6,135.5 428.9,138.4 429.2,137.3 430.0,136.8 431.2,137.1 432.1,136.1 433.2,137.9 434.7,138.1 435.8,136.5 437.1,136.9 438.7,135.6 441.0,135.6 442.8,137.0 444.7,136.0 446.0,133.6 448.0,135.0 449.9,136.2 452.8,136.8 454.3,136.5 456.1,137.4 458.1,135.8 461.1,134.3 463.7,134.4 464.5,130.9 465.1,130.4 466.2,130.9 467.8,131.0 469.7,131.6 471.4,130.0 473.2,130.5 474.3,130.9 475.6,130.8 476.9,130.3 478.4,132.2 480.5,132.5 482.4,133.9 483.5,135.2 485.2,134.9 487.3,134.3 489.4,132.8 490.9,133.3 493.2,131.9 495.6,132.9 498.1,131.7 500.8,131.7 501.7,129.8 503.8,129.6 506.0,130.8 507.8,130.7 509.0,129.2 510.0,130.5 511.3,128.6 511.8,129.6 512.9,131.6 513.7,131.9 515.1,133.2 516.5,132.6 518.7,131.1 520.5,129.9 522.3,130.7 524.3,130.4 525.7,129.7 527.1,129.8 528.6,130.7 529.6,131.1 530.5,131.4 532.0,131.8 533.7,132.0 535.9,131.5 537.2,129.9 540.0,129.3 541.9,128.0 542.3,127.5 543.0,127.1 543.7,126.0 544.4,125.1 545.1,126.8 546.4,125.9 547.4,128.0 548.3,128.3 549.5,127.4 551.2,127.6 551.8,128.0 552.7,127.7 553.4,124.8 553.7,123.3 554.5,123.9 555.8,125.0 556.9,123.8 557.8,123.9 558.9,124.6 559.6,124.0 559.9,124.3 560.2,124.0 560.5,122.6 560.9,124.1 561.2,124.3 561.7,123.8 562.1,121.7 562.5,120.5 562.8,121.1 563.2,122.0 563.5,121.9 563.9,122.2 564.3,119.2 564.5,118.1 564.9,117.9 565.1,116.7 565.4,116.4 565.6,117.5 565.9,118.4 566.2,118.8 566.6,118.4 567.0,118.2 567.4,120.0 567.7,121.1 568.1,121.2 568.6,121.0 568.8,122.5 569.1,121.5 569.5,121.1 570.0,123.5 570.2,119.8 570.5,122.6 571.1,123.8 571.3,125.8 571.5,126.1 571.9,125.9 572.2,126.4 572.4,128.0 572.7,126.8 573.1,125.9 573.6,127.8 573.9,130.1 574.1,129.6 574.5,129.0 575.0,128.2 575.7,127.8 576.3,127.7 576.8,126.0 577.4,125.6 577.9,124.9 578.2,128.3 578.4,128.8 578.7,126.8 579.0,124.2 579.3,123.4 579.7,123.6 580.0,122.8 580.5,122.8 581.0,123.6 581.4,123.3 581.9,121.1 582.3,122.5 583.0,123.8 583.5,124.1 583.9,125.4 584.5,124.6 585.2,125.2 585.5,128.0 585.9,128.4 586.4,127.0 587.0,130.1 587.4,130.2 587.6,132.6 587.8,133.5 588.0,134.5 588.2,133.2 588.7,135.0 589.2,133.8 589.6,133.6 590.2,132.7 590.6,134.2 591.0,134.8 591.3,137.2 591.7,137.3 592.3,137.8 592.6,136.5 592.9,135.7 593.5,134.3 594.1,136.0 594.7,137.5 595.4,136.4 595.7,133.7 596.1,134.3 596.6,134.6 597.1,134.2 597.6,133.1 598.0,131.6 598.7,132.9 599.2,135.1 599.7,132.6 600.6,133.3 601.4,134.3 602.1,134.9 602.8,136.4 603.1,134.5 604.1,135.2 604.7,135.3 605.0,137.3 605.6,136.8 606.4,135.5 607.2,135.0 607.8,134.9 608.5,136.0 609.4,135.2 610.4,135.6 611.3,136.9 611.7,138.7 611.8,141.9 611.8,145.3 611.8,145.9 611.9,142.9 611.9,144.2 612.0,146.6 612.0,149.5 612.0,146.6 612.1,147.1 612.1,148.0 612.1,147.2 612.2,147.7 612.2,150.7 612.3,150.5 612.3,150.7 612.4,150.7 612.5,150.5 612.5,149.5 612.6,151.5 612.7,150.9 612.7,148.8 612.8,148.7 612.9,150.5 613.0,152.4 613.1,151.1 613.2,150.9 613.3,151.4 613.4,153.2 613.5,151.2 613.6,153.1 613.6,155.2 613.7,154.0 613.8,155.9 613.8,156.8 613.8,155.4 613.9,156.0 614.0,157.1 614.2,156.1 614.2,156.2 614.3,158.2 614.4,159.3 614.5,159.0 614.6,159.9 614.6,156.1 614.7,156.4 614.8,157.2 614.9,156.4 615.0,155.6 615.1,156.5 615.3,156.7 615.4,157.2 615.5,159.0 615.6,161.3 615.6,163.4 615.7,161.5 615.8,162.1 615.9,159.2 616.0,159.9 616.2,159.4 616.3,161.8 616.4,159.8 616.6,157.4 616.7,157.8 616.8,160.3 616.9,158.2 617.0,155.0 617.1,154.3 617.2,155.5 617.3,156.5 617.5,155.9 617.7,155.9 617.8,154.3 617.9,154.7 618.1,155.7 618.3,157.0 618.4,156.7 618.6,156.8 618.7,159.0 619.0,158.6 619.1,156.4 619.2,155.3 619.4,155.5 619.6,153.3 619.8,153.6 620.0,153.8 620.2,155.5 620.4,155.5 620.8,156.1 621.0,155.3 621.2,154.9 621.4,155.2 621.6,157.3 621.8,158.6 622.1,158.4 622.2,157.5 622.4,156.4 622.6,159.0 622.9,158.5 623.1,160.6 623.2,161.6 623.3,162.4 623.5,163.6 623.5,165.7 623.6,166.4 623.6,165.7 623.7,164.3 623.9,165.8 624.0,167.4 624.1,168.3 624.3,166.7 624.4,167.1 624.5,169.4 624.7,169.0 624.9,168.2 625.0,170.2 625.0,169.2 625.2,169.2 625.3,172.4 625.5,171.2 625.6,173.4 625.6,174.5 625.7,175.5 625.8,174.1 625.9,176.8 626.0,179.9 626.0,177.6 626.1,177.3 626.1,177.9 626.2,180.6 626.2,180.3 626.3,182.5 626.3,179.0 626.4,178.7 626.4,175.8 626.5,176.1 626.7,176.2 626.7,177.0 626.8,178.9 626.9,178.9 627.1,179.2 627.1,182.5 627.2,181.0 627.3,179.7 627.4,182.8 627.4,181.8 627.5,180.3 627.7,182.3 627.8,184.0 627.8,183.8 627.9,184.0 628.0,185.0 628.0,186.6 628.1,187.8 628.2,187.4 628.2,188.0 628.3,187.0 628.4,184.3 628.5,182.4 628.5,184.2 628.6,184.3 628.7,186.8 628.8,186.1 628.9,186.6 629.1,186.1 629.2,186.6 629.3,184.0 629.4,182.6 629.5,180.1 629.6,178.7 629.7,180.8 629.8,183.4 630.0,183.6 630.1,184.9 630.3,187.1 630.4,186.9 630.5,187.5 630.7,190.3 630.8,190.4 630.9,192.1 630.9,194.0 631.0,191.6 631.1,194.4 631.1,196.4 631.1,198.0 631.2,198.9 631.2,198.1 631.3,201.4 631.3,203.7 631.3,202.6 631.4,203.4 631.4,200.9 631.5,199.8 631.5,200.8 631.6,202.5 631.6,205.9 631.7,209.1 631.7,213.1 631.8,211.6 631.8,209.4 631.8,210.1 631.9,214.7 631.9,216.7 631.9,217.3 632.0,214.6 632.0,210.5 632.1,207.7 632.1,203.4 632.1,204.1 632.2,201.6 632.2,202.5 632.2,203.7 632.3,205.2 632.3,203.2 632.4,206.0 632.5,204.3 632.5,205.0 632.6,207.1 632.6,208.0 632.7,205.7 632.8,204.3 632.8,203.6 632.9,205.3 633.0,203.5 633.1,204.9 633.2,203.6 633.3,206.2 633.3,209.3 633.4,211.4 633.4,214.5 633.5,214.6 633.5,211.2 633.6,214.3 633.6,214.6 633.6,217.9 633.7,217.8 633.7,215.1 633.8,214.7 633.8,210.0 633.9,210.1 633.9,211.2 634.0,208.6 634.1,206.9 634.1,208.2 634.2,205.7 634.3,206.8 634.4,208.4 634.4,209.0 634.5,210.1 634.6,207.6 634.6,209.2 634.7,209.4 634.8,208.7 634.9,206.8 635.0,208.9 635.1,208.5 635.2,208.7 635.3,207.1 635.5,205.8 635.6,204.5 635.7,205.9 635.8,203.3 635.9,201.8 636.0,205.4 636.1,204.6 636.2,205.8 636.3,204.8 636.4,203.3 636.6,203.6 636.7,206.2 636.8,206.9 636.9,208.4 637.0,210.2 637.1,210.7 637.2,212.2 637.3,214.0 637.4,214.8 637.5,213.0 637.6,212.1 637.7,208.7 637.8,206.7 638.0,205.1 638.1,206.4 638.2,207.4 638.4,205.7 638.5,206.2 638.6,203.8 638.8,202.8 638.9,202.6 639.1,201.5 639.3,200.4 639.4,199.3 639.6,198.3 639.8,196.5 639.9,200.1 640.1,200.7 640.2,203.0 640.4,203.8 640.5,201.2 640.7,200.5 640.9,201.6 641.1,204.8 641.3,204.1 641.5,204.1 641.7,204.6 641.8,203.9 642.0,203.4 642.2,203.8 642.3,204.6 642.6,204.4 642.8,204.2 643.0,205.0 643.1,206.6 643.3,204.6 643.4,206.3 643.6,203.0 643.9,205.0 644.0,205.7 644.2,207.3 644.3,206.9 644.6,207.5 644.7,208.5 644.9,208.5 645.1,207.9 645.3,207.1 645.5,206.1 645.8,209.3 645.9,208.9 646.1,208.7 646.3,209.1 646.5,211.7 646.8,209.3 646.9,210.1 647.2,210.8 647.4,210.8 647.6,210.9 647.9,208.8 648.1,207.5 648.4,210.3 648.7,210.9 648.9,211.0 649.0,212.7 649.3,212.5 649.5,209.6 649.8,211.5 650.0,212.0 650.3,212.3 650.6,212.2 650.7,213.1 650.8,210.7 651.1,211.3 651.3,211.0 651.6,210.5 651.7,209.7 651.9,206.9 652.1,206.2 652.3,206.2 652.4,204.3 652.6,203.4 652.8,202.6 653.1,204.1 653.3,203.7 653.5,203.8 653.8,201.4 654.1,200.5 654.3,201.1 654.6,202.4 654.9,202.8 655.1,204.4 655.4,205.3 655.7,203.1 656.0,204.3 656.3,205.6 656.6,206.2 656.9,205.1 657.3,206.1 657.8,205.8 658.0,206.8 658.3,207.2 658.5,208.3 658.8,208.8 658.9,209.4 659.2,209.7 659.6,210.4 659.9,209.9 660.1,208.0 660.4,207.9 660.7,208.3 661.0,208.5 661.3,210.1 661.5,207.6 661.8,206.6 662.1,206.2 662.4,204.9 662.6,203.2 662.9,202.6 663.2,202.9 663.4,201.9 663.7,203.9 664.0,202.3 664.3,202.2 664.5,202.5 664.8,201.5 665.0,203.0 665.4,201.1 665.6,201.4 665.9,201.6 666.2,202.9 666.4,204.8 666.6,204.2 666.9,204.0 667.1,205.5 667.3,206.1 667.5,204.0 667.8,203.2 668.0,202.3 668.3,201.6 668.5,199.9 668.6,199.2 668.8,200.2 669.0,199.9 669.2,201.4 669.5,199.9 669.7,201.4 669.9,199.8 670.1,200.2 670.3,198.4 670.5,198.4 670.8,198.6 671.1,198.3 671.4,198.9 671.6,199.4 672.0,199.7 672.5,199.4 672.9,201.6 673.1,203.1 673.5,203.2 673.9,202.8 674.3,203.6 674.6,205.3 675.0,206.4 675.4,206.1 675.7,206.6 676.1,207.0 676.5,207.7 676.8,204.2 677.2,205.6 677.7,207.7 678.2,208.1 678.6,208.1 678.8,208.5 679.1,207.7 679.5,207.6 680.1,205.9 680.7,208.2 681.1,207.2 681.3,210.0 681.6,206.9 682.0,207.2 682.4,206.0 683.0,207.0 683.6,206.5 684.1,207.8 684.5,208.0 684.8,207.1 685.3,207.6 685.9,206.7 686.3,208.4 686.7,207.4 687.1,209.9 687.4,211.1 687.6,210.8 687.9,209.8 688.5,207.6 688.9,209.3 689.2,209.3 689.7,208.0 690.3,209.3 690.7,210.7 691.1,210.7 691.3,209.4 691.6,206.8 692.0,207.0 692.4,209.8 692.7,212.4 693.1,212.3 693.3,211.5 693.5,211.2 693.8,210.5 694.3,208.8 694.6,207.6 695.0,208.4 695.5,207.2 696.1,208.8 696.4,211.8 696.7,212.6 696.9,213.9 697.3,211.5 697.6,211.2 698.0,209.0 698.5,207.6 699.0,209.5 699.5,209.3 700.1,209.7 700.7,209.9 701.1,208.0 701.8,209.3 702.2,208.4 702.7,209.5 703.1,209.1 703.5,209.0 704.0,208.5 704.5,208.9 705.0,208.4 705.5,209.5 706.1,210.2 706.7,209.8 707.2,211.6 707.6,211.8 708.1,211.5 708.6,212.1 709.1,210.6 709.7,211.5 710.3,212.5 710.9,211.7 711.4,211.7 711.8,212.5 712.0,214.9 712.0,216.6 712.1,215.1 712.3,213.8 712.6,213.4 713.0,211.7 713.2,209.0 713.5,209.9 714.1,210.5 714.5,211.7 715.0,210.7 715.5,212.3 715.9,212.3 716.5,211.5 717.0,212.7 717.4,210.3 718.0,212.2 718.4,212.3 718.9,213.2 720.0,212.1 720.4,214.3 720.7,215.6 721.1,215.4 721.4,213.8 721.8,212.4 722.2,213.0 722.9,212.7 723.4,212.5 723.9,210.9 724.3,212.6 724.5,215.2 724.9,212.5 725.5,214.3 726.0,214.4 726.3,215.6 726.7,215.7 727.1,214.8 727.8,215.7 728.0,218.3 728.2,218.3 728.5,215.9 729.0,215.9 729.6,214.3 729.9,213.2 730.3,213.1 730.8,215.7 731.1,216.4 731.7,216.1 732.2,214.8 732.6,212.4 733.1,214.5 733.7,212.0 734.4,212.6 735.1,211.1 735.8,210.4 736.7,211.8 737.5,213.4 737.9,213.7 738.5,213.8 739.1,215.4 739.5,214.5 740.1,212.5 740.7,215.2 741.3,215.5 742.0,216.3 742.5,216.5 742.9,215.5 743.4,216.2 743.8,217.4 743.9,221.2 744.0,221.6 744.0,221.0 744.2,220.4 744.4,218.3 744.5,218.4 744.9,218.0 745.4,218.3 745.7,217.6 746.3,217.3 746.8,218.3 747.1,215.6 747.5,217.3 748.0,216.8 748.6,219.5 748.8,222.0 749.1,222.7 749.1,224.5 749.2,223.6 749.3,222.5 749.6,222.1 749.8,221.5 750.1,221.7 750.5,222.1 750.9,221.3 751.3,221.9 751.8,223.6 752.0,223.7 752.5,223.5 752.8,221.9 753.4,221.6 753.9,222.3 754.5,222.1 755.2,223.4 755.6,225.2 755.8,223.9 756.0,222.9 756.4,223.9 756.6,223.5 757.0,222.6 757.4,222.7 757.8,223.1 758.4,224.1 758.9,225.4 758.9,227.1 759.0,226.9 759.2,226.8 759.4,227.9 759.6,227.0 759.9,224.6 760.1,226.4 760.6,227.7 760.8,229.8 760.8,230.6 761.0,231.4 761.1,229.0 761.3,230.1 761.5,231.7 761.7,232.6 761.7,233.0 761.8,235.5 761.9,233.1 762.0,233.7 762.2,231.7 762.4,230.3 762.5,230.9 762.7,233.5 762.8,233.7 763.0,234.5 763.2,232.1 763.3,231.1 763.6,230.0 764.0,230.3 764.3,232.7 764.6,233.6 764.8,234.4 764.9,235.8 765.0,235.0 765.2,233.4 765.5,234.2 765.7,234.6 765.9,233.1 766.3,232.2 766.6,233.9 767.1,233.7 767.6,233.4 767.8,235.0 767.9,237.3 767.9,237.1 768.1,238.5 768.2,238.7 768.3,238.1 768.5,239.4 768.6,240.7 768.7,243.4 768.7,241.5 768.8,241.2 768.8,240.6 768.9,242.7 769.0,243.6 769.1,242.7 769.2,240.3 769.4,240.7 769.5,243.5 769.8,242.4 770.0,240.6 770.3,240.3 770.6,237.5 770.7,236.7 770.9,233.6 771.1,235.5 771.3,233.6 771.6,236.0 771.9,237.6 772.2,239.0 772.4,239.9 772.5,243.2 772.6,244.7 772.8,246.2 772.8,247.8 772.9,248.2 772.9,246.9 773.1,246.6 773.2,249.5 773.3,252.0 773.3,253.2 773.4,250.9 773.5,255.4 773.5,258.2 773.6,252.9 773.6,251.6 773.7,250.3 773.8,250.6 773.9,248.9 773.9,247.6 774.1,245.7 774.2,246.0 774.3,248.9 774.5,246.4 774.7,249.9 774.8,251.8 775.0,248.9 775.2,250.4 775.4,252.9 775.5,255.4 775.6,257.2 775.6,255.9 775.8,255.6 776.0,253.5 776.2,254.1 776.4,251.9 776.6,253.6 776.7,250.7 777.0,249.3 777.1,248.0 777.4,249.7 777.7,247.5 777.9,247.2 778.2,246.1 778.5,244.0 778.7,242.8 778.9,245.0 779.2,245.4 779.5,246.0 779.8,245.1 780.1,246.1 780.4,243.7 780.5,240.6 780.7,239.4 780.9,240.3 781.2,238.5 781.5,237.2 781.8,237.3 782.0,235.6 782.2,234.1 782.4,233.3 782.7,232.6 782.9,231.9 783.1,235.3 783.2,237.1 783.6,235.6 784.0,233.1 784.3,231.7 784.6,233.1 784.9,231.3 785.3,231.2 785.6,232.7 785.7,234.9 785.9,235.8 786.2,235.4 786.5,236.6 786.9,235.5 787.2,237.3 787.6,235.8 787.8,238.2 788.0,240.0 788.3,239.8 788.6,239.9 789.0,239.2 789.4,240.3 789.8,239.7 790.1,239.3 790.3,242.3 790.7,243.0 790.9,244.3 791.1,244.4 791.4,243.7 791.6,242.7 792.0,242.9 792.3,240.3 792.6,241.7 792.9,240.2 793.2,240.9 793.6,239.4 794.0,237.7 794.3,236.8 794.6,238.8 795.0,237.2 795.6,237.3 796.3,238.6 796.7,242.4 797.1,242.2 797.6,241.7 798.1,240.9 798.8,240.8 799.3,240.4 799.7,241.1 800.4,242.0 801.0,239.5 801.7,240.5 802.3,243.3 802.9,242.6 803.8,240.9 804.3,240.2 805.0,239.0 805.4,237.4 805.9,236.9 806.4,238.6 807.3,236.4 807.9,235.1 808.6,235.9 809.3,236.0 810.0,237.9 810.6,239.0 811.3,239.8 811.8,237.7 812.5,238.7 813.3,238.4 814.1,237.6 814.9,237.9 815.6,238.2 816.6,238.8 817.3,237.9 817.6,236.9 818.2,236.8 819.0,238.8 819.3,239.4 819.7,238.5 820.3,239.5 821.1,238.7 821.1,243.2 821.2,246.1 821.2,248.4 821.3,245.9 821.3,247.7 821.4,249.4 821.4,250.5 821.5,248.9 821.5,250.7 821.6,248.2 821.7,247.4 821.8,245.8 821.9,248.3 822.0,249.0 822.1,251.6 822.2,248.6 822.3,249.3 822.4,251.1 822.4,254.0 822.5,254.7 822.6,257.5 822.6,261.7 822.6,261.7 822.6,256.8 822.7,258.6 822.7,262.3 822.8,265.9 822.8,268.4 822.8,272.4 822.8,273.2 822.8,276.5 822.8,271.6 822.9,275.9 822.9,273.2 822.9,269.3 823.0,266.9 823.0,267.6 823.0,265.9 823.1,266.1 823.1,263.1 823.1,263.7 823.2,266.1 823.3,266.9 823.3,269.7 823.3,273.2 823.4,277.3 823.4,279.8 823.5,277.3 823.5,274.6 823.6,274.3 823.7,276.7 823.7,280.0 823.8,278.8 823.8,275.7 823.8,274.3 823.8,270.6 823.9,270.5 824.0,270.7 824.0,268.0 824.0,266.2 824.1,266.1 824.1,265.2 824.2,269.6 824.3,271.7 824.3,269.2 824.4,268.1 824.5,266.8 824.6,268.9 824.7,270.6 824.7,273.0 824.8,276.0 824.9,282.2 825.0,281.4 825.1,277.2 825.1,278.7 825.2,275.5 825.2,271.1 825.2,271.1 825.3,272.2 825.4,270.2 825.4,270.3 825.5,275.5 825.6,274.3 825.6,275.1 825.7,273.4 825.8,271.0 825.9,269.6 826.0,271.0 826.1,273.8 826.1,270.8 826.2,269.7 826.3,273.2 826.4,276.4 826.5,276.1 826.5,276.2 826.6,279.4 826.7,282.5 826.7,287.0 826.8,289.7 826.9,292.7 826.9,287.9 827.0,288.1 827.1,286.5 827.2,285.1 827.2,279.4 827.3,280.5 827.4,280.2 827.4,286.0 827.5,283.9 827.5,283.1 827.5,289.5 827.6,287.7 827.7,286.0 827.8,282.1 827.8,282.8 827.9,279.9 828.0,278.0 828.1,275.6 828.1,276.9 828.2,277.1 828.3,280.2 828.4,276.8 828.5,274.5 828.5,278.5 828.6,280.7 828.6,276.6 828.7,277.2 828.8,277.5 828.9,274.9 829.0,273.6 829.2,274.0 829.3,274.2 829.4,277.1 829.5,276.9 829.6,275.0 829.7,276.1 829.8,274.7 829.9,271.4 830.0,270.9 830.1,272.8 830.2,273.8 830.3,272.6 830.4,274.8 830.6,273.1 830.7,271.9 830.9,276.2 831.0,275.7 831.2,275.6 831.3,273.1 831.4,272.7 831.6,275.6 831.7,275.3 831.8,276.7 831.9,276.3 832.1,278.5 832.2,278.1 832.4,276.9 832.5,276.6 832.7,274.5 832.8,272.8 833.0,275.4 833.1,277.2 833.3,279.8 833.4,281.6 833.6,281.0 833.7,282.9 833.8,284.9 833.8,287.4 833.9,289.1 833.9,287.1 834.0,287.1 834.1,289.1 834.2,289.1 834.2,293.2 834.3,289.0 834.3,290.0 834.3,293.0 834.4,295.3 834.4,298.4 834.4,301.4 834.5,303.7 834.5,304.7 834.5,305.1 834.5,312.0 834.6,310.8 834.6,305.7 834.6,309.2 834.7,303.9 834.7,308.9 834.7,315.2 834.8,320.0 834.9,324.2 834.9,331.1 835.0,330.4 835.0,341.2 835.0,348.4 835.0,360.4 835.1,339.1 835.1,333.6 835.1,344.6 835.2,326.8 835.2,324.8 835.2,324.0 835.3,327.3 835.4,325.5 835.4,325.3 835.5,331.7 835.5,340.8 835.6,342.1 835.6,351.5 835.7,359.2 835.7,363.1 835.7,352.4 835.8,354.3 835.8,347.4 835.8,341.8 835.8,340.0 835.9,338.7 835.9,331.8 836.0,333.7 836.0,332.7 836.0,325.4 836.1,320.1 836.1,313.6 836.1,329.2 836.1,317.3 836.1,317.3 836.2,317.5 836.2,319.5 836.2,320.4 836.3,324.9 836.3,330.5 836.3,337.7 836.4,329.6 836.4,326.6 836.4,329.6 836.4,327.9 836.5,327.5 836.5,330.3 836.6,337.9 836.6,346.2 836.6,352.7 836.7,361.1 836.7,351.3 836.7,351.3 836.7,349.0 836.8,335.1 836.8,339.7 836.9,339.5 836.9,357.1 836.9,358.3 837.0,355.1 837.0,360.7 837.0,369.9 837.0,372.3 837.0,376.6 837.1,375.9 837.1,383.8 837.1,390.5 837.2,391.4 837.2,374.3 837.3,379.4 837.3,382.3 837.4,392.2 837.4,393.7 837.4,400.6 837.5,391.8 837.5,377.5 837.5,370.5 837.5,367.6 837.5,384.5 837.6,383.6 837.6,380.4 837.6,360.7 837.6,360.2 837.7,360.7 837.7,367.0 837.8,373.4 837.8,382.6 837.8,393.7 837.9,384.9 837.9,377.1 837.9,387.2 837.9,387.9 838.0,375.4 838.0,377.3 838.0,373.3 838.1,373.4 838.1,375.3 838.1,383.6 838.1,390.6 838.2,386.7 838.2,383.6 838.2,382.4 838.3,391.3 838.3,396.4 838.3,398.6 838.3,394.6 838.4,402.3 838.4,408.5 838.4,413.5 838.4,416.5 838.5,421.0 838.5,415.0 838.5,411.6 838.5,408.0 838.6,418.1 838.6,424.3 838.6,418.9 838.7,413.8 838.7,425.3 838.7,430.0 838.7,412.6 838.8,416.1 838.8,419.7 838.8,403.5 838.9,397.6 838.9,415.7 838.9,415.3 838.9,425.0 839.0,419.2 839.0,430.4 839.0,433.7 839.0,435.8 839.1,430.0 839.1,440.3 839.1,437.5 839.2,440.8 839.2,429.7 839.2,423.9 839.3,426.4 839.3,417.1 839.3,402.6 839.3,401.3 839.4,405.7 839.4,405.7 839.4,417.3 839.5,405.9 839.5,400.3 839.5,399.6 839.5,402.3 839.6,389.4 839.6,376.5 839.6,392.4 839.6,375.1 839.6,370.7 839.6,386.5 839.6,382.1 839.7,376.6 839.7,384.9 839.7,388.6 839.7,375.0 839.8,368.8 839.8,371.3 839.8,376.5 839.8,371.5 839.9,378.1 839.9,372.2 840.0,366.6 840.0,347.2 840.0,340.9 840.0,348.7 840.1,353.3 840.1,344.4 840.1,366.4 840.1,357.7 840.2,357.1 840.2,345.4 840.2,341.0 840.2,352.9 840.3,366.1 840.3,355.6 840.3,354.3 840.3,360.9 840.4,362.1 840.4,365.8 840.4,356.9 840.4,368.0 840.5,382.3 840.5,375.1 840.5,390.0 840.6,368.3 840.6,358.5 840.7,354.7 840.7,354.1 840.7,370.9 840.7,360.6 840.8,348.9 840.8,353.8 840.8,343.6 840.9,348.1 840.9,347.9 841.0,352.4 841.0,353.2 841.1,386.5 841.1,367.1 841.1,373.2 841.2,368.5 841.2,360.9 841.3,366.3 841.3,365.0 841.4,370.3 841.4,365.2 841.5,362.8 841.5,379.1 841.5,369.1 841.6,377.4 841.6,371.5 841.6,365.1 841.7,371.3 841.7,368.9 841.8,372.5 841.8,363.9 841.9,355.4 841.9,352.8 842.0,362.8 842.0,365.3 842.0,368.7 842.1,362.3 842.1,371.8 842.2,370.8 842.2,373.6 842.2,376.3 842.2,376.5 842.2,364.2 842.3,373.7 842.3,367.9 842.4,377.3 842.4,372.1 842.4,378.5 842.5,369.7 842.5,371.1 842.5,381.8 842.6,378.7 842.6,386.9 842.6,374.4 842.6,382.9 842.7,383.7 842.7,383.4 842.8,389.1 842.8,392.0 842.8,390.3 842.9,385.1 842.9,383.9 843.0,384.6 843.0,389.7 843.1,384.7 843.1,383.5 843.2,380.8 843.2,377.4 843.3,380.7 843.3,385.8 843.4,391.5 843.4,397.3 843.5,399.4 843.5,396.2 843.6,389.7 843.6,389.2 843.6,391.0 843.7,388.7 843.7,388.2 843.8,388.2 843.8,388.8 843.9,384.1 843.9,383.5 844.0,377.8 844.0,371.1 844.1,374.4 844.2,374.2 844.2,371.5 844.3,361.8 844.3,381.8 844.4,375.0 844.5,369.5 844.6,375.3 844.6,376.0 844.7,374.9 844.7,375.3 844.8,378.9 844.8,378.6 844.9,376.0 844.9,368.1 844.9,373.5 845.0,374.0 845.0,372.3 845.1,370.7 845.1,372.5 845.2,369.4 845.2,373.5 845.3,372.1 845.3,366.6 845.4,363.7 845.4,358.7 845.4,357.7 845.4,356.4 845.5,352.8 845.5,354.8 845.6,353.4 845.6,359.2 845.6,365.1 845.7,358.8 845.7,357.9 845.8,359.6 845.8,358.7 845.8,354.0 845.8,357.0 845.8,356.7 845.9,359.4 845.9,365.5 845.9,366.3 845.9,361.6 845.9,360.4 845.9,369.7 845.9,359.6 846.0,356.6 846.0,365.0 846.0,363.8 846.0,353.7 846.1,348.1 846.1,349.4 846.1,351.4 846.1,349.7 846.2,342.4 846.2,340.2 846.3,336.7 846.3,339.4 846.3,334.7 846.3,321.0 846.3,328.9 846.3,333.9 846.3,335.6 846.3,326.8 846.3,334.2 846.4,330.0 846.4,333.3 846.4,329.8 846.4,332.1 846.4,329.7 846.5,329.8 846.5,330.5 846.5,325.4 846.5,336.3 846.6,336.3 846.6,337.6 846.6,336.2 846.6,341.9 846.7,337.0 846.7,333.9 846.8,335.2 846.8,336.3 846.8,338.2 846.9,338.9 846.9,339.5 846.9,337.3 847.0,337.9 847.0,338.2 847.1,336.2 847.1,333.2 847.1,342.8 847.1,334.3 847.1,332.5 847.2,332.2 847.2,334.4 847.2,322.5 847.2,322.6 847.3,319.7 847.3,319.5 847.3,319.7 847.3,326.4 847.4,328.0 847.4,322.6 847.4,321.1 847.5,326.3 847.5,328.1 847.6,330.9 847.6,324.7 847.7,328.6 847.7,330.1 847.8,332.6 847.8,324.6 847.8,329.7 847.8,326.5 847.9,329.7 847.9,327.2 847.9,326.8 848.0,327.2 848.0,326.0 848.1,325.5 848.1,326.5 848.2,320.6 848.2,324.0 848.2,319.3 848.3,318.3 848.3,318.6 848.3,314.8 848.4,319.9 848.4,319.5 848.4,317.5 848.5,321.6 848.5,324.8 848.5,322.0 848.6,326.3 848.6,322.1 848.7,321.9 848.7,318.1 848.8,319.4 848.8,327.8 848.8,332.3 848.9,333.8 848.9,330.4 849.0,331.0 849.0,330.8 849.0,336.6 849.1,334.4 849.1,334.2 849.2,339.6 849.2,346.0 849.2,342.5 849.3,341.2 849.3,332.8 849.3,337.9 849.4,338.2 849.4,336.4 849.5,336.3 849.5,336.6 849.5,339.2 849.6,335.9 849.6,332.5 849.6,333.3 849.7,331.7 849.8,338.2 849.8,338.5 849.8,334.1 849.9,332.6 849.9,334.6 849.9,334.9 849.9,333.0 850.0,339.6 850.1,341.2 850.1,339.0 850.1,339.5 850.2,345.0 850.2,342.1 850.2,335.6 850.3,339.2 850.3,342.3 850.3,337.1 850.4,339.7 850.4,338.2 850.4,334.4 850.5,336.4 850.5,337.6 850.6,336.2 850.7,343.5 850.7,343.2 850.7,342.6 850.8,340.4 850.8,341.1 850.8,341.5 850.9,339.4 851.0,341.0 851.0,339.1 851.1,340.6 851.1,338.7 851.2,338.3 851.3,337.8 851.3,337.6 851.4,337.5 851.5,336.0 851.5,330.3 851.6,333.6 851.7,330.2 851.7,329.0 851.8,330.2 851.9,330.1 852.0,330.2 852.1,330.9 852.2,329.9 852.2,330.1 852.3,329.0 852.3,334.3 852.3,333.0 852.3,334.1 852.4,331.4 852.4,336.4 852.5,334.7 852.5,330.0 852.5,331.8 852.6,335.8 852.6,333.4 852.7,337.3 852.7,332.9 852.8,336.5 852.8,332.5 852.8,330.1 852.8,313.8 852.8,333.7 852.9,325.6 852.9,328.4 852.9,333.7 852.9,329.3 852.9,334.8 852.9,328.7 852.9,341.0 852.9,337.0 852.9,342.5 852.9,333.3 852.9,334.2 852.9,337.6 852.9,335.1 852.9,329.5 853.0,332.2 853.0,317.4 853.0,328.2 853.0,327.5 853.0,327.4 853.0,326.5 853.0,329.3 853.1,347.8 853.1,313.0 853.1,331.8 853.1,333.9 853.1,336.0 853.1,324.4 853.1,331.1 853.1,326.9 853.1,328.6 853.1,322.1 853.1,321.3 853.1,322.8 853.1,319.5 853.2,320.6 853.2,316.7 853.2,322.6 853.2,319.7 853.2,320.4 853.2,320.1 853.2,314.4 853.2,317.2 853.3,317.8 853.3,317.7 853.3,311.2 853.3,322.0 853.3,301.3 853.3,295.5 853.3,316.0 853.4,303.5 853.4,301.4 853.4,301.8 853.4,294.4 853.4,304.4 853.4,303.5 853.4,295.7 853.4,306.9 853.4,305.8 853.5,311.8 853.5,301.7 853.5,305.3 853.5,303.4 853.5,303.1 853.5,306.7 853.6,301.2 853.7,302.4 853.7,303.1 853.8,305.1 853.8,301.1 853.9,304.0 853.9,300.5 853.9,299.0 854.0,302.6 854.0,307.1 854.1,300.2 854.1,298.3 854.1,299.3 854.2,299.7 854.2,300.9 854.3,295.7 854.3,293.5 854.4,294.9 854.4,294.4 854.5,295.1 854.5,293.6 854.6,291.4 854.6,294.4 854.6,299.1 854.6,293.3 854.7,291.9 854.7,290.5 854.7,287.3 854.8,283.5 854.8,277.6 854.9,281.3 854.9,284.9 854.9,288.7 855.0,286.2 855.0,287.9 855.0,291.5 855.1,294.4 855.2,297.0 855.2,296.8 855.3,296.7 855.3,294.1 855.4,299.7 855.4,303.5 855.4,301.2 855.5,302.6 855.5,303.1 855.6,302.8 855.6,303.3 855.6,303.1 855.7,303.4 855.7,306.0 855.8,308.5 855.8,307.0 855.9,308.9 856.0,307.4 856.0,306.7 856.1,304.7 856.1,305.4 856.1,305.9 856.1,308.3 856.2,309.6 856.2,305.8 856.2,304.9 856.3,305.2 856.3,301.0 856.3,303.3 856.4,302.4 856.4,300.1 856.4,298.6 856.5,299.8 856.5,299.0 856.5,294.5 856.6,300.1 856.7,298.8 856.7,298.3 856.8,297.4 856.8,295.6 856.9,298.4 856.9,299.7 857.0,295.3 857.0,302.1 857.1,298.2 857.1,299.5 857.1,302.3 857.2,303.5 857.2,299.5 857.2,298.3 857.2,294.8 857.3,295.8 857.3,294.6 857.3,294.6 857.4,292.0 857.5,291.9 857.5,290.0 857.6,285.9 857.6,292.0 857.6,286.2 857.6,284.9 857.6,288.1 857.6,295.4 857.7,285.9 857.7,276.4 857.7,263.9 857.7,275.4 857.7,277.2 857.7,274.6 857.7,271.9 857.7,263.7 857.8,270.5 857.8,268.7 857.8,269.3 857.8,268.0 857.8,268.5 857.8,266.8 857.8,267.7 857.8,275.4 857.8,280.1 857.8,277.2 857.8,272.5 857.9,270.5 857.9,277.8 857.9,274.1 857.9,279.4 857.9,274.7 857.9,273.4 857.9,270.6 857.9,260.4 857.9,268.7 858.0,265.5 858.0,270.8 858.0,264.1 858.0,266.9 858.0,267.1 858.1,271.2 858.1,268.1 858.1,270.1 858.1,264.5 858.2,268.8 858.2,281.1 858.2,270.8 858.2,270.9 858.2,269.5 858.2,269.3 858.2,272.9 858.2,275.3 858.2,275.7 858.3,271.6 858.3,273.5 858.3,272.2 858.3,274.7 858.3,274.9 858.4,270.9 858.4,270.3 858.5,271.1 858.5,268.5 858.5,270.4 858.6,273.7 858.6,276.5 858.6,265.7 858.6,277.4 858.6,276.0 858.7,274.9 858.7,270.3 858.7,272.8 858.8,272.4 858.8,270.8 858.9,274.1 858.9,273.1 858.9,270.8 858.9,272.9 859.0,272.8 859.0,276.4 859.0,276.1 859.1,273.6 859.1,275.8 859.2,273.1 859.2,274.0 859.3,275.1 859.3,276.3 859.4,274.7 859.4,274.5 859.4,274.7 859.4,276.8 859.4,273.4 859.4,277.6 859.5,279.1 859.5,282.9 859.6,281.6 859.6,280.0 859.6,280.4 859.7,282.9 859.7,276.3 859.7,277.7 859.7,273.3 859.7,276.0 859.7,280.7 859.7,276.2 859.8,278.5 859.8,286.7 859.8,280.8 859.9,276.9 859.9,277.8 860.0,281.7 860.0,277.1 860.0,274.7 860.1,272.6 860.1,275.7 860.1,276.8 860.2,276.5 860.2,274.4 860.2,275.8 860.3,276.9 860.3,275.1 860.4,273.9 860.4,277.9 860.4,272.6 860.4,269.2 860.4,270.9 860.5,268.1 860.5,267.7 860.5,267.0 860.6,265.7 860.6,256.7 860.6,261.1 860.6,268.4 860.6,265.8 860.6,260.9 860.6,262.7 860.7,262.3 860.7,264.1 860.7,267.4 860.7,267.5 860.8,267.4 860.8,262.6 860.8,258.0 860.8,263.2 860.8,261.3 860.8,266.8 860.8,264.7 860.8,265.5 860.8,258.1 860.8,269.1 860.8,268.6 860.8,261.3 860.8,267.3 860.8,271.6 860.8,260.4 860.8,258.6 860.8,258.8 860.8,256.4 860.8,259.7 860.8,261.4 860.8,261.6 860.8,257.7 860.9,258.6 860.9,253.4 860.9,254.8 860.9,260.4 861.0,265.7 861.1,262.8 861.1,263.1 861.2,259.8 861.3,261.0 861.3,261.4 861.4,262.8 861.5,260.6 861.6,262.3 861.6,262.5 861.7,263.8 861.8,268.7 861.8,264.5 861.8,261.8 861.9,263.9 862.0,262.6 862.1,263.7 862.3,264.5 862.4,260.7 862.4,261.1 862.5,262.8 862.6,263.2 862.7,261.0 862.7,258.7 862.8,261.1 862.9,259.6 863.0,261.0 863.1,261.9 863.2,263.1 863.3,262.4 863.4,263.9 863.4,264.0 863.5,262.8 863.6,264.1 863.7,266.2 863.8,263.3 863.8,268.3 863.9,270.3 863.9,275.6 863.9,280.7 863.9,272.5 864.0,271.5 864.1,271.2 864.2,273.7 864.2,279.4 864.2,282.3 864.2,277.6 864.3,271.4 864.3,273.3 864.3,273.5 864.4,276.4 864.5,276.1 864.6,274.6 864.7,274.9 864.7,275.7 864.8,278.1 864.9,280.1 864.9,282.1 865.0,278.5 865.0,280.7 865.1,283.5 865.2,285.6 865.2,285.9 865.3,280.9 865.3,279.1 865.3,278.4 865.3,283.9 865.3,283.9 865.4,282.2 865.4,281.8 865.5,285.9 865.6,283.0 865.6,283.5 865.7,285.2 865.7,286.6 865.8,286.8 865.8,288.0 865.9,288.6 866.0,289.2 866.0,293.6 866.0,292.8 866.1,292.6 866.1,291.0 866.1,289.2 866.1,286.6 866.2,296.5 866.2,294.5 866.2,294.8 866.3,285.8 866.3,280.2 866.3,276.5 866.3,282.8 866.4,286.7 866.4,283.4 866.4,289.9 866.4,286.8 866.5,290.1 866.5,289.2 866.5,288.5 866.5,287.6 866.6,289.6 866.6,293.1 866.7,288.6 866.7,289.2 866.8,285.1 866.8,288.8 866.8,292.1 866.9,291.2 866.9,293.4 866.9,290.1 867.0,291.5 867.0,288.3 867.1,294.0 867.1,289.0 867.1,289.8 867.2,288.3 867.3,288.7 867.3,288.3 867.4,289.9 867.4,287.2 867.4,285.0 867.4,282.8 867.5,286.6 867.5,286.2 867.6,286.7 867.6,287.6 867.6,285.1 867.7,282.3 867.8,279.7 867.9,279.5 867.9,274.9 867.9,271.5 867.9,275.7 868.0,277.6 868.1,276.7 868.1,278.5 868.2,280.3 868.3,278.7 868.3,273.8 868.3,275.2 868.4,276.9 868.4,277.9 868.5,274.6 868.6,277.4 868.7,279.0 868.8,281.0 868.9,280.7 868.9,278.0 869.0,277.7 869.1,275.3 869.2,276.1 869.2,272.5 869.3,274.7 869.3,274.4 869.4,274.9 869.4,278.1 869.4,276.9 869.5,279.5 869.5,276.3 869.6,275.4 869.7,275.4 869.8,274.8 869.9,268.9 869.9,272.1 870.0,272.5 870.0,272.1 870.1,273.8 870.2,272.8 870.3,274.1 870.3,276.3 870.4,276.7 870.5,276.9 870.5,278.5 870.7,277.7 870.7,274.5 870.8,277.6 870.9,277.2 871.0,279.4 871.1,276.2 871.2,276.4 871.3,274.8 871.4,277.2 871.5,275.9 871.7,272.5 871.7,274.1 871.8,273.6 871.9,272.7 872.0,271.5 872.1,271.7 872.2,267.9 872.3,270.7 872.4,271.1 872.5,271.0 872.6,269.0 872.8,271.6 872.9,270.3 873.0,270.5 873.1,272.6 873.2,275.1 873.3,275.0 873.4,272.1 873.5,276.2 873.6,272.7 873.7,274.9 873.8,277.1 873.9,277.9 874.0,283.2 874.0,276.4 874.1,277.5 874.2,281.2 874.3,280.3 874.4,281.9 874.5,278.8 874.6,276.0 874.6,272.4 874.7,278.4 874.7,274.9 874.8,275.5 874.9,273.8 875.0,272.2 875.1,276.1 875.2,276.2 875.3,274.7 875.4,274.1 875.5,277.4 875.7,276.9 875.8,276.1 875.9,279.3 876.0,279.8 876.1,277.7 876.2,279.9 876.3,283.0 876.4,281.9 876.5,281.0 876.6,282.6 876.6,287.0 876.7,289.8 876.7,287.7 876.9,287.4 876.9,287.7 877.0,287.2 877.1,290.3 877.2,288.8 877.3,284.8 877.3,284.6 877.5,285.0 877.6,287.1 877.6,283.2 877.7,287.4 877.8,287.5 877.9,289.0 878.0,289.0 878.1,285.3 878.2,286.4 878.2,284.4 878.3,281.9 878.4,283.0 878.5,281.9 878.6,286.7 878.7,285.7 878.8,283.8 878.8,280.4 878.9,284.1 879.0,283.2 879.2,283.5 879.3,285.9 879.3,287.1 879.4,285.6 879.5,284.1 879.7,282.2 879.8,282.8 879.9,283.1 880.0,282.9 880.1,279.8 880.2,279.3 880.3,279.1 880.4,281.4 880.5,282.8 880.6,282.7 880.7,284.1 880.8,284.5 881.0,280.9 881.1,282.7 881.2,281.4 881.3,278.7 881.4,275.9 881.6,274.3 881.7,278.2 881.8,281.4 881.9,278.1 881.9,275.7 882.0,276.4 882.1,278.7 882.2,276.9 882.3,274.3 882.5,275.5 882.5,277.4 882.6,278.0 882.8,281.1 882.9,282.1 883.0,282.7 883.1,280.8 883.2,279.7 883.3,280.6 883.4,276.4 883.5,276.7 883.6,276.4 883.7,275.3 883.8,273.3 884.0,274.6 884.1,274.1 884.2,274.9 884.3,274.6 884.4,275.4 884.5,272.6 884.6,275.1 884.7,275.3 884.8,276.8 884.8,273.8 884.9,278.0 885.1,277.2 885.2,279.4 885.4,280.0 885.5,279.7 885.6,280.0 885.8,279.8 885.9,280.7 886.0,280.8 886.1,275.6 886.2,279.3 886.4,277.2 886.5,277.1 886.6,277.4 886.7,278.5 886.9,277.4 887.0,280.6 887.2,279.4 887.3,279.8 887.5,280.3 887.6,282.8 887.8,282.6 887.9,282.5 888.0,282.5 888.1,280.5 888.3,280.1 888.3,280.3 888.4,278.9 888.6,278.6 888.7,279.2 888.9,277.8 889.0,279.3 889.2,278.9 889.3,277.8 889.5,278.1 889.6,277.5 889.7,278.4 889.9,278.4 890.0,274.4 890.2,275.9 890.3,275.2 890.5,272.9 890.7,275.0 890.9,276.2 891.0,274.7 891.2,274.0 891.3,273.5 891.4,271.4 891.5,274.1 891.6,271.2 891.7,271.9 891.9,271.9 892.0,271.7 892.1,275.4 892.3,275.6 892.4,275.9 892.6,274.3 892.8,277.3 892.9,279.8 893.1,281.9 893.2,280.8 893.4,282.2 893.6,282.5 893.8,281.5 893.9,281.4 894.0,282.3 894.1,282.2 894.3,282.3 894.4,283.9 894.7,284.6 894.8,283.5 895.0,283.2 895.2,283.5 895.3,283.8 895.5,284.8 895.7,287.0 895.7,290.5 895.9,287.0 896.0,288.2 896.2,287.0 896.4,286.1 896.6,288.5 896.8,287.7 897.0,286.8 897.1,287.9 897.3,287.6 897.4,288.6 897.6,291.0 897.7,290.9 897.8,288.1 897.8,288.0 898.0,288.0 898.1,284.7 898.4,285.1 898.5,286.1 898.7,285.6 898.9,284.9 899.1,284.0 899.2,282.5 899.3,284.7 899.6,283.2 899.8,283.9 900.0,284.5 900.2,283.5 900.4,281.4 900.4,278.7 900.5,280.8 900.7,282.1 900.8,280.5 901.0,282.2 901.2,284.3 901.4,285.5 901.5,287.6 901.8,288.6 901.9,290.4 901.9,289.1 902.0,289.6 902.1,293.0 902.1,294.0 902.2,294.0 902.4,292.2 902.5,290.1 902.7,289.7 902.9,289.8 903.0,287.5 903.2,287.9 903.4,287.2 903.7,288.6 903.9,291.2 904.1,291.6 904.4,290.4 904.6,292.3 904.7,295.1 904.8,297.9 904.8,300.6 904.9,299.6 905.0,300.4 905.2,302.0 905.2,304.4 905.3,303.4 905.5,304.4 905.6,302.6 905.7,302.5 905.9,299.6 906.1,297.7 906.2,299.9 906.4,299.1 906.5,298.9 906.7,298.2 906.9,296.5 907.2,297.0 907.4,298.1 907.6,298.5 907.8,296.4 907.9,296.0 908.1,293.7 908.2,292.6 908.3,290.0 908.5,290.5 908.7,292.7 908.8,293.1 909.0,292.3 909.1,290.2 909.3,290.0 909.4,289.2 909.6,290.0 909.8,291.0 909.9,291.8 910.2,290.7 910.3,291.8 910.4,293.9 910.6,290.0 910.8,292.7 910.9,293.3 911.1,294.0 911.3,292.6 911.5,293.0 911.7,294.1 911.9,293.7 912.1,290.5 912.3,289.8 912.5,290.3 912.8,289.4 913.1,292.3 913.3,290.7 913.6,290.1 913.8,289.3 914.0,288.5 914.3,286.6 914.4,284.8 914.4,279.5 914.5,280.2 914.5,280.0 914.7,281.8 914.7,284.0 914.8,285.7 915.0,282.7 915.1,282.8 915.3,282.1 915.6,282.3 915.9,281.9 916.1,284.5 916.3,283.5 916.5,282.6 916.7,281.7 916.9,282.7 917.2,282.3 917.4,280.5 917.7,280.6 917.9,282.0 918.2,281.6 918.6,280.6 918.8,280.0 919.0,277.7 919.2,279.4 919.4,278.5 919.7,277.5 919.9,278.2 920.2,279.0 920.3,276.7 920.4,274.8 920.6,275.3 920.9,275.5 921.2,275.8 921.5,274.8 921.8,273.8 922.0,271.0 922.1,271.8 922.3,271.2 922.5,269.7 922.7,270.0 922.8,271.8 923.1,271.7 923.3,270.0 923.5,270.4 923.8,271.9 924.0,273.7 924.1,275.9 924.4,272.1 924.7,273.2 925.2,274.2 925.4,275.2 925.8,274.8 926.1,278.6 926.3,279.0 926.3,280.1 926.4,279.8 926.6,282.2 926.7,283.1 927.0,282.9 927.1,283.0 927.2,285.3 927.2,286.8 927.4,286.7 927.6,286.3 927.7,287.8 927.9,290.1 928.1,290.3 928.3,288.5 928.6,288.7 928.8,289.9 928.9,290.0 929.1,290.1 929.3,291.4 929.4,295.1 929.6,293.2 929.8,292.1 930.0,292.6 930.3,294.0 930.6,293.0 930.9,295.8 931.1,293.5 931.2,293.8 931.3,298.6 931.3,303.9 931.4,301.7 931.5,299.0 931.6,298.4 931.8,297.9 932.0,295.6 932.2,295.5 932.4,298.6 932.6,297.4 932.9,295.7 933.1,296.1 933.2,296.4 933.4,296.8 933.6,297.1 933.9,297.1 934.0,297.5" fill="none" stroke="#d97706" stroke-width="1.2" stroke-linejoin="round" opacity="0.6"/><text x="942" y="472.0" text-anchor="start" font-size="11" fill="#d97706">3305</text><text x="942" y="396.0" text-anchor="start" font-size="11" fill="#d97706">3539</text><text x="942" y="320.0" text-anchor="start" font-size="11" fill="#d97706">3773</text><text x="942" y="244.0" text-anchor="start" font-size="11" fill="#d97706">4007</text><text x="942" y="168.0" text-anchor="start" font-size="11" fill="#d97706">4242</text><text x="942" y="92.0" text-anchor="start" font-size="11" fill="#d97706">4476</text><text x="942" y="80.0" text-anchor="start" font-size="11" font-weight="600" fill="#d97706">price</text>
  <polygon points="611.8,468.0 611.8,386.3 611.8,393.9 743.9,363.8 772.7,373.5 834.7,335.0 837.0,298.2 837.6,314.1 837.8,335.3 839.1,251.7 839.6,191.8 843.4,217.6 843.9,252.0 846.3,116.1 853.3,149.0 853.3,468.0" fill="#16a34a" fill-opacity="0.08"/>
  <polyline points="611.8,386.3 611.8,393.9 743.9,363.8 772.7,373.5 834.7,335.0 837.0,298.2 837.6,314.1 837.8,335.3 839.1,251.7 839.6,191.8 843.4,217.6 843.9,252.0 846.3,116.1 853.3,149.0" fill="none" stroke="#16a34a" stroke-width="2" stroke-linejoin="round"/>
  <line x1="88" y1="102" x2="110" y2="102" stroke="#16a34a" stroke-width="2.5"/><text x="116" y="106" font-size="11.5" fill="#374151">equity</text><line x1="88" y1="118" x2="110" y2="118" stroke="#d97706" stroke-width="2.5" opacity="0.8"/><text x="116" y="122" font-size="11.5" fill="#374151">price</text>
  <text x="78" y="502" text-anchor="start" font-size="12" fill="#6b7280">2025-10-10</text><text x="934" y="502" text-anchor="end" font-size="12" fill="#6b7280">2025-10-10</text>
</svg>
