<svg xmlns="http://www.w3.org/2000/svg" width="1100" height="560" font-family="ui-sans-serif, system-ui, sans-serif" viewBox="0 0 1100 560"><rect width="1100" height="560" fill="#fff"/><text x="80" y="28" fill="#111827" font-size="18" font-weight="700">Zone Recovery — ETHUSDC fee-tier comparison (best setting)</text><text x="80" y="48" fill="#6b7280" font-size="12.5">lev 20 · ratio 3 · gap 35% · maxSteps 4 · maxDD 60% · random · equity per fee tier vip 0..9</text><text x="80" y="68" fill="#1d4ed8" font-size="12.5" font-weight="600">USDC margin · BNB −10%</text><line x1="80" x2="932" y1="508" y2="508" stroke="#e5e7eb" stroke-width="1"/><text x="70" y="512" fill="#6b7280" font-size="12" text-anchor="end">0.00</text><line x1="80" x2="932" y1="424" y2="424" stroke="#e5e7eb" stroke-width="1"/><text x="70" y="428" fill="#6b7280" font-size="12" text-anchor="end">9302</text><line x1="80" x2="932" y1="340" y2="340" stroke="#e5e7eb" stroke-width="1"/><text x="70" y="344" fill="#6b7280" font-size="12" text-anchor="end">18603</text><line x1="80" x2="932" y1="256" y2="256" stroke="#e5e7eb" stroke-width="1"/><text x="70" y="260" fill="#6b7280" font-size="12" text-anchor="end">27905</text><line x1="80" x2="932" y1="172" y2="172" stroke="#e5e7eb" stroke-width="1"/><text x="70" y="176" fill="#6b7280" font-size="12" text-anchor="end">37207</text><line x1="80" x2="932" y1="88" y2="88" stroke="#e5e7eb" stroke-width="1"/><text x="70" y="92" fill="#6b7280" font-size="12" text-anchor="end">46509</text><line x1="80" x2="932" y1="417.7" y2="417.7" stroke="#9ca3af" stroke-dasharray="6 4" stroke-width="1.5"/><polyline fill="none" stroke="#2563eb" stroke-linejoin="round" stroke-width="1.8" points="80 417.7 80 426.4 546.1 393.4 647.4 404.4 866.4 362.6 874.5 322.7 876.6 340.6 877.1 364.4 881.7 274.1 883.4 210.1 897.1 238.8 898.7 277.1 907.2 132.1 932 168.3" opacity=".9"/><polyline fill="none" stroke="#dc2626" stroke-linejoin="round" stroke-width="1.8" points="80 417.7 80 426.4 546.1 393.4 647.4 404.4 866.4 362.6 874.5 322.7 876.6 340.6 877.1 364.4 881.7 274.1 883.4 210.1 897.1 238.8 898.7 277.1 907.2 132.1 932 168.3" opacity=".9"/><polyline fill="none" stroke="#16a34a" stroke-linejoin="round" stroke-width="1.8" points="80 417.7 80 426.3 546.1 393.2 647.4 404.2 866.4 362.2 874.5 322.1 876.6 339.9 877.1 363.6 881.7 272.8 883.4 208.2 897.1 236.8 898.7 275.1 907.2 128.7 932 165" opacity=".9"/><polyline fill="none" stroke="#d97706" stroke-linejoin="round" stroke-width="1.8" points="80 417.7 80 426.3 546.1 393.1 647.4 404 866.4 361.8 874.5 321.6 876.6 339.3 877.1 362.9 881.7 271.7 883.4 206.7 897.1 235.3 898.7 273.4 907.2 126 932 162.3" opacity=".9"/><polyline fill="none" stroke="#7c3aed" stroke-linejoin="round" stroke-width="1.8" points="80 417.7 80 426.2 546.1 392.9 647.4 403.8 866.4 361.4 874.5 320.9 876.6 338.5 877.1 362 881.7 270.1 883.4 204.5 897.1 233 898.7 271.1 907.2 122.1 932 158.5" opacity=".9"/><polyline fill="none" stroke="#0891b2" stroke-linejoin="round" stroke-width="1.8" points="80 417.7 80 426.2 546.1 392.9 647.4 403.7 866.4 361.3 874.5 320.8 876.6 338.4 877.1 361.8 881.7 269.9 883.4 204.1 897.1 232.6 898.7 270.7 907.2 121.5 932 157.8" opacity=".9"/><polyline fill="none" stroke="#db2777" stroke-linejoin="round" stroke-width="1.8" points="80 417.7 80 426.2 546.1 392.9 647.4 403.7 866.4 361.3 874.5 320.7 876.6 338.3 877.1 361.7 881.7 269.7 883.4 203.8 897.1 232.4 898.7 270.4 907.2 121 932 157.3" opacity=".9"/><polyline fill="none" stroke="#65a30d" stroke-linejoin="round" stroke-width="1.8" points="80 417.7 80 426.2 546.1 392.9 647.4 403.6 866.4 361.2 874.5 320.6 876.6 338.1 877.1 361.6 881.7 269.4 883.4 203.4 897.1 231.9 898.7 270 907.2 120.3 932 156.6" opacity=".9"/><polyline fill="none" stroke="#475569" stroke-linejoin="round" stroke-width="1.8" points="80 417.7 80 426.1 546.1 392.8 647.4 403.6 866.4 361.1 874.5 320.5 876.6 338 877.1 361.4 881.7 269.2 883.4 203.1 897.1 231.7 898.7 269.7 907.2 119.8 932 156.1" opacity=".9"/><polyline fill="none" stroke="#ea580c" stroke-linejoin="round" stroke-width="1.8" points="80 417.7 80 426.1 546.1 392.8 647.4 403.6 866.4 361 874.5 320.4 876.6 337.9 877.1 361.3 881.7 268.9 883.4 202.8 897.1 231.3 898.7 269.3 907.2 119.1 932 155.5" opacity=".9"/><line x1="950" x2="972" y1="94" y2="94" stroke="#ea580c" stroke-width="3"/><text x="980" y="98" fill="#374151" font-size="12.5">vip 9 39038</text><line x1="950" x2="972" y1="116" y2="116" stroke="#475569" stroke-width="3"/><text x="980" y="120" fill="#374151" font-size="12.5">vip 8 38963</text><line x1="950" x2="972" y1="138" y2="138" stroke="#65a30d" stroke-width="3"/><text x="980" y="142" fill="#374151" font-size="12.5">vip 7 38911</text><line x1="950" x2="972" y1="160" y2="160" stroke="#db2777" stroke-width="3"/><text x="980" y="164" fill="#374151" font-size="12.5">vip 6 38831</text><line x1="950" x2="972" y1="182" y2="182" stroke="#0891b2" stroke-width="3"/><text x="980" y="186" fill="#374151" font-size="12.5">vip 5 38779</text><line x1="950" x2="972" y1="204" y2="204" stroke="#7c3aed" stroke-width="3"/><text x="980" y="208" fill="#374151" font-size="12.5">vip 4 38705</text><line x1="950" x2="972" y1="226" y2="226" stroke="#d97706" stroke-width="3"/><text x="980" y="230" fill="#374151" font-size="12.5">vip 3 38280</text><line x1="950" x2="972" y1="248" y2="248" stroke="#16a34a" stroke-width="3"/><text x="980" y="252" fill="#374151" font-size="12.5">vip 2 37984</text><line x1="950" x2="972" y1="270" y2="270" stroke="#2563eb" stroke-width="3"/><text x="980" y="274" fill="#374151" font-size="12.5">vip 0 37617</text><line x1="950" x2="972" y1="292" y2="292" stroke="#dc2626" stroke-width="3"/><text x="980" y="296" fill="#374151" font-size="12.5">vip 1 37617</text><text x="80" y="542" fill="#6b7280" font-size="12" text-anchor="start">2025-10-10</text><text x="932" y="542" fill="#6b7280" font-size="12" text-anchor="end">2025-10-10</text></svg>