<?xml version="1.0" encoding="UTF-8"?>
<svg xmlns="http://www.w3.org/2000/svg" width="1100" height="560" viewBox="0 0 1100 560" font-family="ui-sans-serif, system-ui, sans-serif">
  <rect width="1100" height="560" fill="#ffffff"/>
  <text x="80" y="28" font-size="18" font-weight="700" fill="#111827">Zone Recovery — ETHUSDC fee-tier comparison (best setting)</text>
  <text x="80" y="48" font-size="12.5" fill="#6b7280">lev 20 · ratio 3 · gap 35% · maxSteps 4 · maxDD 60% · random  ·  equity per fee tier vip 0..9</text>
  <text x="80" y="68" font-size="12.5" font-weight="600" fill="#1d4ed8">USDC margin · BNB −10%</text>
  <line x1="80" y1="508.0" x2="932" y2="508.0" stroke="#e5e7eb" stroke-width="1"/><text x="70" y="512.0" text-anchor="end" font-size="12" fill="#6b7280">0.00</text><line x1="80" y1="424.0" x2="932" y2="424.0" stroke="#e5e7eb" stroke-width="1"/><text x="70" y="428.0" text-anchor="end" font-size="12" fill="#6b7280">9302</text><line x1="80" y1="340.0" x2="932" y2="340.0" stroke="#e5e7eb" stroke-width="1"/><text x="70" y="344.0" text-anchor="end" font-size="12" fill="#6b7280">18603</text><line x1="80" y1="256.0" x2="932" y2="256.0" stroke="#e5e7eb" stroke-width="1"/><text x="70" y="260.0" text-anchor="end" font-size="12" fill="#6b7280">27905</text><line x1="80" y1="172.0" x2="932" y2="172.0" stroke="#e5e7eb" stroke-width="1"/><text x="70" y="176.0" text-anchor="end" font-size="12" fill="#6b7280">37207</text><line x1="80" y1="88.0" x2="932" y2="88.0" stroke="#e5e7eb" stroke-width="1"/><text x="70" y="92.0" text-anchor="end" font-size="12" fill="#6b7280">46509</text>
  <line x1="80" y1="417.7" x2="932" y2="417.7" stroke="#9ca3af" stroke-width="1.5" stroke-dasharray="6 4"/>
  <polyline points="80.0,417.7 80.0,426.4 546.1,393.4 647.4,404.4 866.4,362.6 874.5,322.7 876.6,340.6 877.1,364.4 881.7,274.1 883.4,210.1 897.1,238.8 898.7,277.1 907.2,132.1 932.0,168.3" fill="none" stroke="#2563eb" stroke-width="1.8" stroke-linejoin="round" opacity="0.9"/>
  <polyline points="80.0,417.7 80.0,426.4 546.1,393.4 647.4,404.4 866.4,362.6 874.5,322.7 876.6,340.6 877.1,364.4 881.7,274.1 883.4,210.1 897.1,238.8 898.7,277.1 907.2,132.1 932.0,168.3" fill="none" stroke="#dc2626" stroke-width="1.8" stroke-linejoin="round" opacity="0.9"/>
  <polyline points="80.0,417.7 80.0,426.3 546.1,393.2 647.4,404.2 866.4,362.2 874.5,322.1 876.6,339.9 877.1,363.6 881.7,272.8 883.4,208.2 897.1,236.8 898.7,275.1 907.2,128.7 932.0,165.0" fill="none" stroke="#16a34a" stroke-width="1.8" stroke-linejoin="round" opacity="0.9"/>
  <polyline points="80.0,417.7 80.0,426.3 546.1,393.1 647.4,404.0 866.4,361.8 874.5,321.6 876.6,339.3 877.1,362.9 881.7,271.7 883.4,206.7 897.1,235.3 898.7,273.4 907.2,126.0 932.0,162.3" fill="none" stroke="#d97706" stroke-width="1.8" stroke-linejoin="round" opacity="0.9"/>
  <polyline points="80.0,417.7 80.0,426.2 546.1,392.9 647.4,403.8 866.4,361.4 874.5,320.9 876.6,338.5 877.1,362.0 881.7,270.1 883.4,204.5 897.1,233.0 898.7,271.1 907.2,122.1 932.0,158.5" fill="none" stroke="#7c3aed" stroke-width="1.8" stroke-linejoin="round" opacity="0.9"/>
  <polyline points="80.0,417.7 80.0,426.2 546.1,392.9 647.4,403.7 866.4,361.3 874.5,320.8 876.6,338.4 877.1,361.8 881.7,269.9 883.4,204.1 897.1,232.6 898.7,270.7 907.2,121.5 932.0,157.8" fill="none" stroke="#0891b2" stroke-width="1.8" stroke-linejoin="round" opacity="0.9"/>
  <polyline points="80.0,417.7 80.0,426.2 546.1,392.9 647.4,403.7 866.4,361.3 874.5,320.7 876.6,338.3 877.1,361.7 881.7,269.7 883.4,203.8 897.1,232.4 898.7,270.4 907.2,121.0 932.0,157.3" fill="none" stroke="#db2777" stroke-width="1.8" stroke-linejoin="round" opacity="0.9"/>
  <polyline points="80.0,417.7 80.0,426.2 546.1,392.9 647.4,403.6 866.4,361.2 874.5,320.6 876.6,338.1 877.1,361.6 881.7,269.4 883.4,203.4 897.1,231.9 898.7,270.0 907.2,120.3 932.0,156.6" fill="none" stroke="#65a30d" stroke-width="1.8" stroke-linejoin="round" opacity="0.9"/>
  <polyline points="80.0,417.7 80.0,426.1 546.1,392.8 647.4,403.6 866.4,361.1 874.5,320.5 876.6,338.0 877.1,361.4 881.7,269.2 883.4,203.1 897.1,231.7 898.7,269.7 907.2,119.8 932.0,156.1" fill="none" stroke="#475569" stroke-width="1.8" stroke-linejoin="round" opacity="0.9"/>
  <polyline points="80.0,417.7 80.0,426.1 546.1,392.8 647.4,403.6 866.4,361.0 874.5,320.4 876.6,337.9 877.1,361.3 881.7,268.9 883.4,202.8 897.1,231.3 898.7,269.3 907.2,119.1 932.0,155.5" fill="none" stroke="#ea580c" stroke-width="1.8" stroke-linejoin="round" opacity="0.9"/>
  <line x1="950" y1="94" x2="972" y2="94" stroke="#ea580c" stroke-width="3"/><text x="980" y="98" font-size="12.5" fill="#374151">vip 9  39038</text>
  <line x1="950" y1="116" x2="972" y2="116" stroke="#475569" stroke-width="3"/><text x="980" y="120" font-size="12.5" fill="#374151">vip 8  38963</text>
  <line x1="950" y1="138" x2="972" y2="138" stroke="#65a30d" stroke-width="3"/><text x="980" y="142" font-size="12.5" fill="#374151">vip 7  38911</text>
  <line x1="950" y1="160" x2="972" y2="160" stroke="#db2777" stroke-width="3"/><text x="980" y="164" font-size="12.5" fill="#374151">vip 6  38831</text>
  <line x1="950" y1="182" x2="972" y2="182" stroke="#0891b2" stroke-width="3"/><text x="980" y="186" font-size="12.5" fill="#374151">vip 5  38779</text>
  <line x1="950" y1="204" x2="972" y2="204" stroke="#7c3aed" stroke-width="3"/><text x="980" y="208" font-size="12.5" fill="#374151">vip 4  38705</text>
  <line x1="950" y1="226" x2="972" y2="226" stroke="#d97706" stroke-width="3"/><text x="980" y="230" font-size="12.5" fill="#374151">vip 3  38280</text>
  <line x1="950" y1="248" x2="972" y2="248" stroke="#16a34a" stroke-width="3"/><text x="980" y="252" font-size="12.5" fill="#374151">vip 2  37984</text>
  <line x1="950" y1="270" x2="972" y2="270" stroke="#2563eb" stroke-width="3"/><text x="980" y="274" font-size="12.5" fill="#374151">vip 0  37617</text>
  <line x1="950" y1="292" x2="972" y2="292" stroke="#dc2626" stroke-width="3"/><text x="980" y="296" font-size="12.5" fill="#374151">vip 1  37617</text>
  <text x="80" y="542" text-anchor="start" font-size="12" fill="#6b7280">2025-10-10</text><text x="932" y="542" text-anchor="end" font-size="12" fill="#6b7280">2025-10-10</text>
</svg>
