<?xml version="1.0" encoding="UTF-8"?>
<svg xmlns="http://www.w3.org/2000/svg" width="1000" height="520" viewBox="0 0 1000 520" font-family="ui-sans-serif, system-ui, sans-serif">
  <rect width="1000" height="520" fill="#ffffff"/>
  <text x="78" y="28" font-size="18" font-weight="700" fill="#111827">Zone Recovery — ETHFIUSDC best setting (equity / PnL)</text>
  <text x="78" y="48" font-size="12.5" fill="#6b7280">lev 20 · ratio 4 · gap 20% · maxSteps 4 · maxDD 20% · random · vip 9  ·  938 series, 80.8% win · vol $139411690 ($139411855/day) · fees $11794</text>
  <text x="78" y="68" font-size="12.5" font-weight="600" fill="#1d4ed8">USDC · BNB −10% · taker 0.0085%</text>
  <text x="934" y="28" text-anchor="end" font-size="18" font-weight="700" fill="#16a34a">+498767 USDT  (+4987.67%)</text>
  <line x1="78" y1="468.0" x2="934" y2="468.0" stroke="#e5e7eb" stroke-width="1"/><text x="68" y="472.0" text-anchor="end" font-size="12" fill="#6b7280">0.00</text><line x1="78" y1="392.0" x2="934" y2="392.0" stroke="#e5e7eb" stroke-width="1"/><text x="68" y="396.0" text-anchor="end" font-size="12" fill="#6b7280">122057</text><line x1="78" y1="316.0" x2="934" y2="316.0" stroke="#e5e7eb" stroke-width="1"/><text x="68" y="320.0" text-anchor="end" font-size="12" fill="#6b7280">244115</text><line x1="78" y1="240.0" x2="934" y2="240.0" stroke="#e5e7eb" stroke-width="1"/><text x="68" y="244.0" text-anchor="end" font-size="12" fill="#6b7280">366172</text><line x1="78" y1="164.0" x2="934" y2="164.0" stroke="#e5e7eb" stroke-width="1"/><text x="68" y="168.0" text-anchor="end" font-size="12" fill="#6b7280">488229</text><line x1="78" y1="88.0" x2="934" y2="88.0" stroke="#e5e7eb" stroke-width="1"/><text x="68" y="92.0" text-anchor="end" font-size="12" fill="#6b7280">610286</text>
  <line x1="78" y1="461.8" x2="934" y2="461.8" stroke="#9ca3af" stroke-width="1.5" stroke-dasharray="6 4"/><text x="934" y="455.8" text-anchor="end" font-size="11" fill="#6b7280">start 10000</text>
  <polyline points="78.0,118.0 78.4,117.0 78.6,117.1 78.9,117.2 79.8,117.1 80.7,117.7 81.7,118.2 82.3,118.3 83.1,118.2 84.2,118.3 85.6,118.7 87.0,118.8 87.8,118.2 88.8,118.1 89.7,118.2 91.0,118.5 91.8,118.7 92.7,118.4 93.9,118.6 94.9,118.1 96.0,118.2 97.1,119.1 97.7,118.6 98.7,118.9 100.2,119.0 101.2,118.6 102.4,119.0 103.3,118.8 104.5,118.8 106.0,119.8 107.3,120.2 108.5,119.5 109.8,119.3 111.0,119.2 113.5,119.1 114.3,118.6 115.1,117.9 116.0,117.3 116.8,116.9 117.4,116.8 118.0,116.9 118.7,116.8 119.7,116.6 120.7,116.3 121.5,116.9 122.6,117.1 123.3,117.5 124.3,117.4 125.1,117.0 125.9,117.2 126.8,117.6 127.9,117.1 128.7,116.5 129.5,116.0 130.4,115.4 131.0,115.2 131.9,115.4 132.2,116.1 132.7,117.0 133.5,117.2 134.6,117.4 135.4,117.6 136.4,118.0 137.4,117.5 138.4,118.4 139.3,118.4 140.5,118.8 141.9,119.2 143.1,119.6 144.1,120.1 144.8,119.2 145.6,119.7 146.4,119.4 147.2,119.6 148.2,119.6 149.2,119.3 150.3,119.1 150.8,119.5 151.6,119.6 152.5,120.2 153.4,120.5 154.4,120.6 154.8,120.8 155.4,120.4 156.3,120.1 157.2,120.4 157.9,119.4 158.8,119.1 159.5,118.7 160.3,118.6 161.0,118.6 161.9,119.4 162.4,119.7 163.3,119.7 164.0,119.9 165.0,120.6 165.7,120.4 167.0,120.4 167.7,120.8 168.6,121.2 169.3,121.4 170.2,121.6 171.2,121.4 172.4,121.2 174.3,120.6 175.3,120.9 175.6,121.6 175.9,121.2 176.5,121.6 177.3,121.9 178.2,121.5 179.2,121.2 180.0,121.2 180.8,121.4 181.3,121.5 181.9,120.6 184.1,121.1 186.1,120.8 187.4,121.2 188.4,121.1 189.2,121.2 190.1,121.4 191.0,121.2 191.9,121.0 193.1,120.4 193.8,119.6 194.7,120.3 195.4,119.5 196.5,119.2 197.4,118.7 198.1,118.1 198.8,118.4 199.5,118.5 200.0,118.4 200.5,119.1 201.2,119.5 201.6,118.7 202.2,117.8 203.0,117.1 203.3,116.8 203.5,116.1 203.7,116.3 204.1,115.3 204.4,115.0 204.7,115.9 205.0,115.3 205.3,115.7 205.5,114.9 205.9,114.8 206.3,115.1 206.5,114.2 207.0,114.7 207.6,115.5 208.0,116.1 208.6,116.1 209.0,116.8 209.2,116.1 209.7,115.6 210.3,116.5 211.3,116.7 211.9,116.2 212.3,116.1 212.8,116.3 213.5,115.4 214.1,116.3 215.0,116.7 215.6,117.7 216.0,118.1 216.5,118.7 217.1,118.7 217.7,119.3 218.0,119.8 218.5,119.5 218.9,119.5 219.5,119.5 220.5,120.2 221.0,120.2 221.3,119.5 221.9,119.7 222.5,119.2 222.6,119.1 222.7,118.9 223.4,119.3 223.9,118.6 224.6,118.5 225.3,118.0 226.2,118.2 226.7,118.9 227.6,119.6 228.5,119.6 229.0,119.3 229.9,119.3 230.8,119.8 231.6,120.0 232.7,120.5 233.5,120.0 234.1,119.5 234.8,119.3 235.8,120.0 236.9,119.8 237.4,119.2 238.3,119.4 239.3,118.8 240.1,118.2 240.8,118.7 241.5,119.3 242.4,120.4 243.3,120.0 244.4,119.8 245.7,120.1 246.7,119.5 247.9,119.4 249.0,119.5 250.3,120.0 251.5,119.5 253.0,119.7 254.3,119.9 255.9,119.7 256.6,119.1 257.0,119.0 258.1,119.7 259.2,120.2 259.7,120.0 260.4,120.0 261.2,119.7 262.4,119.5 263.3,119.2 264.2,119.1 265.2,118.9 265.7,118.3 266.5,118.3 267.8,117.9 268.8,118.0 269.5,118.2 270.2,117.7 270.8,117.4 271.4,117.0 271.9,117.1 272.7,117.3 273.4,117.5 273.9,117.5 274.5,118.2 275.2,118.3 275.8,118.8 276.4,118.8 277.7,119.0 278.7,118.8 279.3,118.5 280.7,118.0 281.6,117.8 282.6,118.2 283.4,117.9 284.1,117.5 284.9,117.3 285.5,117.0 286.3,116.6 286.8,116.4 287.3,116.6 288.1,116.3 288.7,115.9 289.1,115.4 289.7,115.4 290.2,115.7 291.0,116.0 291.6,116.3 292.2,116.5 292.7,116.5 293.2,116.7 293.7,116.1 294.2,116.2 295.1,116.0 295.8,116.2 296.1,116.6 296.3,116.8 297.0,117.0 297.5,117.0 298.1,117.4 298.6,117.7 298.8,117.6 299.1,117.3 299.3,117.1 299.6,117.3 300.1,117.7 300.9,117.8 301.3,117.6 301.9,118.0 302.4,118.2 303.2,118.4 303.9,118.8 304.7,118.7 305.5,118.6 306.4,118.6 307.7,118.8 308.8,118.5 309.8,118.9 310.6,118.7 311.2,119.1 311.9,119.5 312.6,118.9 313.2,119.3 313.8,119.3 314.2,119.4 314.8,119.9 315.3,119.9 315.8,119.4 316.7,119.2 317.6,118.7 318.7,119.2 319.4,119.5 319.9,119.5 320.7,119.7 321.5,119.9 321.8,120.0 322.3,120.2 322.4,120.9 322.6,121.0 322.9,120.6 323.3,120.9 323.8,120.7 324.1,120.4 324.9,120.4 325.5,120.4 325.9,120.3 326.6,120.4 327.5,120.3 328.1,120.4 328.4,120.8 328.8,120.9 329.1,121.1 329.6,121.1 330.3,121.2 330.6,121.4 330.9,121.6 331.2,121.5 331.5,121.7 331.6,122.3 331.7,122.8 331.7,123.2 331.7,123.4 331.7,124.6 331.7,123.7 331.7,123.4 331.8,123.6 331.9,123.6 332.1,124.2 332.1,124.7 332.2,124.4 332.5,124.7 332.6,124.5 332.9,125.0 333.1,124.7 333.5,124.3 333.8,124.2 334.2,123.5 334.6,123.4 335.0,122.9 335.5,122.8 336.1,122.8 336.7,123.3 337.2,123.4 337.6,123.8 338.0,124.2 338.5,124.7 339.0,124.5 339.5,124.2 340.2,124.0 340.7,122.9 341.0,123.1 341.6,123.7 342.2,124.0 342.7,124.1 343.1,124.6 343.6,123.5 344.2,122.9 345.0,122.7 345.5,122.8 345.9,123.2 346.3,123.3 346.9,124.3 347.5,124.2 347.9,124.5 348.5,124.2 349.0,124.1 349.5,123.5 350.1,123.4 351.0,123.9 351.9,123.3 352.5,123.8 353.5,123.5 354.4,123.2 354.8,124.0 355.2,124.8 355.6,124.8 356.0,125.5 356.5,125.8 356.9,125.7 357.4,126.1 357.9,125.7 358.4,126.7 358.8,125.8 359.5,125.4 360.4,125.6 361.2,125.7 362.0,125.9 362.8,125.9 363.7,125.6 364.4,124.8 365.0,124.0 365.7,124.9 366.4,124.7 366.9,124.9 367.5,123.9 367.8,124.6 368.2,123.8 368.9,124.1 369.6,124.0 370.4,123.8 371.3,123.8 372.3,124.0 373.3,123.2 374.0,122.4 374.7,123.2 375.6,124.1 376.3,124.5 377.4,124.8 378.7,123.7 379.7,124.0 381.1,124.5 382.0,124.1 382.7,124.9 383.2,125.4 383.7,125.6 384.3,125.8 385.3,125.8 385.8,126.0 386.5,125.3 387.5,125.5 388.2,125.7 389.0,125.9 389.6,125.9 390.4,125.2 391.0,125.0 391.8,125.0 392.9,125.4 393.9,124.7 394.5,124.4 395.3,124.6 396.1,124.3 397.0,123.7 397.4,123.5 398.0,123.7 398.9,123.6 399.4,123.6 399.7,124.4 400.0,124.5 400.2,124.6 400.8,125.1 401.5,125.3 402.3,125.1 403.0,125.1 404.0,125.1 405.1,125.1 406.0,124.8 406.7,124.7 407.9,125.1 409.0,125.5 410.3,125.5 411.9,125.9 413.5,125.5 414.5,124.7 415.5,123.5 416.3,123.3 417.1,123.4 417.8,123.2 418.5,123.5 419.1,123.7 420.1,124.4 421.2,124.5 422.5,125.0 423.7,125.5 424.6,125.0 426.0,124.6 426.8,125.1 427.6,125.1 428.5,125.9 429.0,126.4 429.3,126.2 429.9,125.8 430.6,126.0 431.4,125.8 432.2,125.5 433.1,126.3 433.8,126.4 435.0,126.5 435.7,125.6 436.2,125.3 436.7,125.5 437.7,125.5 438.9,125.1 440.3,124.7 442.3,124.5 443.4,124.4 444.3,123.9 445.0,124.0 446.0,123.4 447.0,124.2 448.0,124.4 448.8,124.9 450.2,125.0 451.5,125.0 452.7,125.3 453.8,125.2 454.9,125.1 456.3,125.6 457.2,125.1 458.4,125.3 459.6,125.5 460.6,124.5 461.6,123.8 462.7,123.7 463.7,123.9 464.3,123.6 465.0,123.3 465.5,123.7 466.2,123.6 467.1,124.0 468.0,123.8 468.9,123.8 469.9,124.0 470.8,124.3 471.6,124.6 472.5,124.5 473.4,123.8 474.0,124.2 474.7,124.8 475.4,124.2 476.1,124.4 476.8,124.7 477.4,125.5 478.3,125.6 479.9,125.7 481.0,126.0 482.0,126.2 483.0,126.2 484.2,126.8 484.2,127.1 484.8,127.2 485.4,127.7 485.9,128.1 486.3,127.9 486.9,127.6 488.0,127.8 488.2,127.2 488.5,127.3 488.9,127.4 489.5,126.8 490.1,126.4 490.6,127.1 491.4,127.2 492.1,126.9 492.5,126.7 493.1,126.6 493.6,127.1 494.2,127.3 494.9,126.8 495.4,127.3 496.4,127.2 497.2,127.1 498.3,127.2 499.4,126.7 500.3,126.7 501.4,126.0 502.2,125.8 503.8,125.6 504.8,126.2 505.8,126.5 506.1,127.0 506.9,126.6 507.6,126.9 507.9,126.2 508.8,125.2 509.5,124.9 510.5,125.6 511.7,125.1 512.1,126.4 512.9,127.1 513.8,127.2 514.9,127.4 516.0,127.3 517.2,126.9 518.6,127.1 520.0,127.1 520.2,125.7 520.6,125.7 520.8,126.8 520.9,126.4 521.4,126.3 522.1,125.9 522.8,125.8 523.9,125.9 524.6,126.4 525.1,126.1 526.5,125.5 527.9,125.9 529.1,126.9 530.0,126.6 531.1,126.7 532.6,125.8 533.8,125.8 535.4,126.2 536.4,126.3 537.1,125.7 538.6,125.7 540.5,125.2 542.0,124.9 542.3,125.0 543.1,124.9 543.9,124.2 544.5,123.6 544.9,124.4 545.7,123.7 546.4,123.6 547.2,124.0 547.8,125.0 548.6,125.5 550.0,125.5 551.1,124.8 551.8,125.5 552.4,124.4 553.1,123.8 553.4,123.4 553.8,123.0 554.3,123.3 554.9,124.0 555.7,123.9 556.5,123.7 557.3,123.5 557.8,123.2 558.7,123.5 559.5,123.4 559.8,123.5 560.1,124.3 560.4,123.8 560.7,123.8 561.0,124.3 561.5,124.7 562.0,123.5 562.3,122.9 562.7,122.4 562.9,123.4 563.2,123.7 563.5,124.5 563.6,123.7 564.0,123.8 564.4,123.0 564.7,122.4 564.9,121.9 565.1,122.5 565.2,122.1 565.5,122.2 565.6,122.6 566.0,123.0 566.3,122.9 566.5,123.2 566.8,122.7 567.1,122.7 567.4,123.0 567.8,123.4 568.4,123.4 568.7,124.1 568.9,124.6 569.1,124.2 569.7,124.8 570.1,124.7 570.3,124.7 570.7,125.0 571.3,126.1 571.5,126.5 571.8,126.3 572.1,126.4 572.5,127.3 573.0,126.6 573.6,127.1 573.9,127.3 574.2,127.9 574.7,127.8 575.4,127.7 576.5,127.0 577.0,126.5 577.5,126.0 578.0,126.2 578.3,127.6 578.7,126.8 579.4,126.6 579.9,126.0 580.4,125.8 580.9,126.3 581.7,126.2 582.4,126.6 583.1,127.0 583.7,127.4 584.5,127.6 585.1,128.2 585.3,128.7 585.7,129.0 586.0,129.3 586.3,130.2 586.4,129.5 586.7,129.7 587.0,130.1 587.2,130.1 587.5,130.8 587.9,131.3 588.0,131.3 588.1,131.5 588.2,131.5 588.5,131.7 588.7,132.2 588.8,132.1 589.1,131.8 589.2,131.2 589.4,131.7 589.6,131.1 589.9,130.9 590.2,130.8 590.5,130.9 590.8,130.9 591.0,131.6 591.5,131.7 591.8,132.0 592.2,131.7 592.6,132.3 592.9,132.7 593.4,132.3 593.7,131.7 594.3,131.9 594.7,132.9 594.7,133.2 595.3,133.3 595.5,132.8 595.7,131.9 595.9,131.7 596.2,131.7 596.5,131.7 596.7,131.5 597.3,131.8 597.9,131.4 598.7,131.5 599.2,132.3 599.8,131.3 600.7,131.6 601.3,131.5 601.8,131.8 602.3,132.2 602.8,132.8 603.1,132.4 603.4,132.2 604.0,132.0 604.4,132.0 604.7,132.6 605.1,132.4 605.4,132.6 605.6,132.0 605.9,131.5 606.5,131.5 607.2,131.2 607.6,130.6 608.1,130.9 608.7,131.1 609.2,131.2 609.8,131.2 610.3,130.5 610.8,130.5 611.7,130.9 611.8,132.2 611.8,133.7 611.8,134.2 611.9,132.9 612.0,133.3 612.0,134.0 612.0,133.5 612.1,133.5 612.2,134.7 612.3,135.8 612.3,136.2 612.4,135.2 612.4,135.2 612.5,134.2 612.5,134.5 612.6,135.0 612.7,135.5 612.7,134.2 612.8,134.8 612.9,134.9 613.0,135.2 613.0,135.1 613.1,134.9 613.1,135.0 613.2,134.2 613.3,135.4 613.4,135.6 613.4,135.5 613.5,135.3 613.6,136.4 613.6,137.2 613.7,135.9 613.8,136.0 613.8,136.4 613.9,136.9 614.0,136.8 614.1,136.4 614.2,137.9 614.2,136.7 614.2,137.3 614.3,136.8 614.4,137.8 614.4,138.2 614.5,138.5 614.5,139.2 614.6,138.4 614.6,138.3 614.6,137.5 614.7,137.8 614.8,138.1 614.8,137.6 614.9,137.6 614.9,137.6 615.0,136.4 615.0,136.6 615.0,136.6 615.2,137.4 615.2,137.2 615.3,137.9 615.4,136.7 615.4,137.3 615.4,137.7 615.5,138.1 615.6,139.2 615.7,138.7 615.8,138.5 615.8,137.6 615.9,137.1 616.1,137.5 616.2,137.8 616.3,138.3 616.4,137.3 616.5,137.2 616.6,136.2 616.6,136.8 616.7,137.6 616.8,137.3 617.0,136.7 617.0,135.7 617.1,135.0 617.1,136.0 617.2,136.5 617.3,136.3 617.4,136.5 617.5,136.0 617.6,136.0 617.7,135.2 617.9,135.5 618.0,135.1 618.1,135.2 618.2,135.8 618.4,136.6 618.4,135.9 618.5,135.5 618.6,136.4 618.8,136.2 618.9,136.2 619.0,135.8 619.1,135.4 619.2,134.9 619.4,135.0 619.5,134.6 619.7,134.7 619.8,135.1 620.0,135.0 620.2,135.3 620.3,135.6 620.4,135.6 620.8,135.6 621.0,135.0 621.1,134.9 621.3,134.3 621.5,134.7 621.7,135.0 622.0,134.7 622.2,134.2 622.3,134.2 622.4,133.6 622.6,133.7 622.7,134.4 622.9,134.2 623.1,134.8 623.2,135.1 623.3,135.5 623.5,135.5 623.5,136.4 623.6,136.4 623.7,135.6 623.7,135.6 623.8,136.0 624.0,136.2 624.2,135.9 624.3,135.3 624.4,135.3 624.6,135.8 624.9,135.5 625.0,135.9 625.0,135.9 625.1,135.4 625.2,135.7 625.3,136.4 625.5,135.5 625.6,136.3 625.7,136.9 625.8,136.5 625.9,137.2 626.0,137.8 626.0,138.0 626.1,137.4 626.1,137.1 626.2,137.3 626.3,137.4 626.3,137.4 626.3,136.8 626.4,136.5 626.6,136.6 626.7,136.1 626.8,135.8 626.9,136.7 627.0,136.8 627.1,137.5 627.2,137.9 627.3,136.8 627.4,137.5 627.4,137.0 627.5,137.0 627.6,137.9 627.7,138.6 627.8,139.3 627.8,140.0 627.9,138.4 627.9,138.2 628.0,138.6 628.1,139.2 628.1,139.0 628.3,139.4 628.4,139.4 628.4,138.4 628.4,138.5 628.5,137.6 628.6,138.0 628.7,138.8 628.8,138.7 628.9,138.1 628.9,139.3 628.9,139.6 629.0,140.3 629.0,141.3 629.0,141.2 629.1,140.2 629.1,140.3 629.2,140.6 629.2,141.2 629.2,140.9 629.3,140.1 629.4,139.4 629.5,138.7 629.6,138.8 629.7,139.3 629.9,139.8 629.9,139.6 630.0,139.9 630.1,140.0 630.2,140.6 630.3,141.0 630.4,140.8 630.6,140.6 630.7,140.9 630.7,141.3 630.9,141.9 631.0,141.5 631.0,142.2 631.0,143.2 631.1,143.4 631.1,143.4 631.2,143.9 631.3,144.7 631.3,146.2 631.3,146.0 631.3,146.1 631.4,146.3 631.4,145.9 631.4,145.8 631.5,145.4 631.5,144.6 631.6,145.0 631.7,146.8 631.7,148.0 631.8,147.2 631.8,147.2 631.8,147.7 631.9,149.6 631.9,150.1 631.9,150.2 631.9,150.7 632.0,150.9 632.0,151.5 632.0,150.1 632.0,148.4 632.1,147.6 632.1,146.6 632.1,146.3 632.2,146.5 632.3,146.6 632.3,147.0 632.4,146.6 632.5,146.6 632.5,147.2 632.6,147.7 632.6,147.5 632.7,147.5 632.8,147.1 633.0,146.1 633.2,146.9 633.2,145.8 633.3,145.9 633.3,146.8 633.4,147.6 633.5,148.4 633.5,147.1 633.6,147.8 633.7,149.4 633.7,150.2 633.7,150.4 633.7,149.5 633.8,149.8 633.8,149.2 633.8,148.2 633.8,146.9 633.9,147.1 634.0,147.6 634.1,146.5 634.1,147.4 634.2,146.4 634.3,146.6 634.4,146.9 634.4,147.1 634.5,147.7 634.5,147.3 634.6,146.4 634.7,147.5 634.8,147.5 634.9,147.0 635.0,146.3 635.1,146.9 635.1,146.5 635.2,146.0 635.2,146.3 635.3,145.5 635.4,145.1 635.5,144.4 635.5,144.0 635.5,144.2 635.6,144.0 635.6,144.8 635.7,144.5 635.8,143.6 636.0,144.3 636.1,144.3 636.3,143.8 636.4,143.1 636.5,142.7 636.7,143.6 636.8,144.0 636.9,143.4 637.0,144.1 637.2,144.2 637.3,144.6 637.4,144.7 637.5,144.6 637.6,143.9 637.7,143.4 637.8,142.8 637.9,142.2 638.0,141.5 638.0,141.8 638.1,141.9 638.1,142.5 638.2,142.4 638.3,142.3 638.4,141.5 638.5,141.3 638.8,141.2 639.0,140.7 639.4,140.2 639.7,139.6 639.8,139.8 639.8,140.0 639.9,140.8 640.2,141.1 640.4,141.3 640.5,140.6 640.8,141.6 640.9,141.3 641.1,142.2 641.2,142.7 641.5,142.5 641.7,142.5 641.8,142.7 641.9,142.8 642.1,142.7 642.3,143.5 642.6,143.1 642.8,143.0 643.0,143.6 643.2,143.0 643.3,142.5 643.5,142.9 643.9,143.2 644.0,143.3 644.1,143.3 644.3,143.1 644.6,143.4 644.8,143.7 645.1,143.4 645.3,143.7 645.5,143.5 645.8,144.0 646.0,144.1 646.2,143.7 646.5,144.0 646.6,143.2 646.7,141.9 646.7,141.8 646.7,140.8 646.8,141.5 646.8,141.8 647.0,141.8 647.2,141.8 647.6,141.8 647.8,141.0 648.3,141.2 648.7,140.9 648.9,140.8 649.0,141.0 649.3,141.0 649.5,141.1 649.7,141.7 650.0,142.3 650.2,142.3 650.5,143.3 650.7,143.0 650.9,142.2 651.1,143.0 651.3,142.7 651.6,142.9 651.7,142.5 652.1,141.5 652.3,142.0 652.5,141.7 652.7,141.2 652.9,142.2 653.1,141.8 653.3,142.2 653.4,141.8 653.6,141.7 654.0,141.5 654.2,141.6 654.6,141.9 654.8,142.3 655.0,142.8 655.4,143.4 655.7,143.4 655.9,143.2 656.4,144.4 656.6,144.4 657.1,143.7 657.5,144.5 657.8,144.5 657.9,145.0 658.3,145.0 658.4,145.4 658.8,145.4 659.1,145.4 659.6,145.7 659.9,145.3 660.1,145.0 660.3,144.6 660.6,144.9 660.9,145.1 661.2,145.3 661.4,146.0 661.6,145.3 662.0,145.1 662.4,144.9 662.5,144.6 662.7,144.0 663.0,143.9 663.3,143.9 663.6,143.7 663.9,143.8 664.5,144.5 664.9,144.8 665.4,145.0 666.0,145.3 666.5,146.2 666.7,145.7 667.0,145.2 667.2,145.1 667.6,145.5 667.9,145.1 668.3,145.4 668.6,144.9 669.1,145.6 669.7,145.8 670.1,145.1 670.3,144.3 670.5,144.1 671.2,144.5 672.0,144.7 672.6,144.0 673.2,145.0 673.7,145.3 674.0,144.8 674.5,145.7 675.0,145.6 675.3,145.8 675.6,145.9 675.8,145.8 676.2,145.5 676.5,145.3 676.9,144.8 677.8,146.2 678.5,146.8 678.9,146.9 679.3,146.9 680.1,146.9 680.8,147.5 681.0,147.1 681.3,147.5 681.7,147.3 682.0,146.9 682.4,147.1 683.1,147.8 683.7,147.8 684.1,147.5 684.5,147.1 684.9,147.2 685.3,147.3 685.7,147.4 686.1,146.9 686.6,146.4 686.9,146.7 687.3,147.1 687.5,147.8 687.8,147.9 688.4,146.7 688.9,147.5 689.7,146.8 690.2,146.5 690.5,146.6 690.9,146.7 691.1,147.1 691.1,146.4 691.3,146.3 691.5,145.9 691.8,145.7 692.1,146.1 692.4,146.6 692.6,147.2 692.7,147.4 692.8,147.6 693.0,148.2 693.2,148.4 693.3,148.1 693.4,147.8 693.5,148.6 693.5,149.7 693.5,149.2 693.5,148.9 693.6,148.8 693.7,148.5 693.9,148.8 694.3,148.8 694.6,148.5 695.0,148.7 695.6,148.6 696.1,148.5 696.5,149.3 696.8,149.5 697.1,149.7 697.3,149.5 697.6,149.4 698.1,148.5 698.6,148.5 699.1,149.6 699.5,149.7 699.9,149.6 700.4,150.0 700.6,149.7 700.9,149.7 701.1,149.3 701.6,149.0 702.1,148.9 702.4,148.7 702.7,148.9 703.1,148.4 703.7,149.1 704.1,148.8 704.6,149.2 705.1,149.0 705.4,149.4 705.8,149.8 706.1,150.1 706.5,150.1 706.8,150.8 706.8,151.3 707.0,151.0 707.3,151.2 707.8,151.7 707.8,152.1 708.0,152.2 708.3,152.4 708.4,152.7 708.6,153.1 708.6,153.0 708.7,152.5 708.8,152.9 709.2,151.9 709.5,152.1 709.7,152.2 710.0,152.2 710.4,152.8 710.7,152.0 711.0,152.0 711.2,152.2 711.4,152.8 711.6,153.2 711.7,154.1 711.8,153.8 712.0,154.5 712.0,155.1 712.2,154.3 712.3,153.7 712.5,153.3 712.8,152.9 713.1,152.3 713.4,151.8 713.5,152.0 713.8,153.0 714.2,152.2 714.2,152.0 714.3,151.7 714.6,151.6 714.9,151.3 715.1,150.7 715.1,150.8 715.3,150.8 715.4,150.3 715.5,150.6 715.5,151.7 715.5,152.0 715.6,151.7 715.8,151.4 715.9,150.8 716.2,151.0 716.4,150.6 716.7,150.6 717.0,150.3 717.2,150.4 717.3,149.8 717.5,149.4 717.9,150.0 718.2,149.9 718.4,150.1 718.6,150.2 718.8,149.8 719.3,149.4 719.6,149.4 719.7,148.9 720.1,148.7 720.3,148.8 720.5,149.0 720.7,148.7 720.7,149.2 720.9,148.8 721.0,148.8 721.2,148.4 721.4,148.4 721.6,148.4 721.8,148.8 722.1,149.1 722.4,148.6 722.8,148.8 723.1,148.5 723.5,148.2 723.9,147.8 724.1,148.5 724.3,149.2 724.5,149.8 724.9,149.8 725.7,149.9 726.1,148.9 726.6,148.5 727.2,148.7 727.8,149.6 728.5,149.9 729.0,149.9 729.3,150.1 729.8,150.0 730.4,150.1 730.8,150.7 731.1,150.7 731.6,150.8 732.0,150.3 732.2,151.2 732.2,152.9 732.2,151.7 732.4,151.0 732.6,150.5 732.9,151.1 733.2,150.9 733.7,150.2 734.1,150.3 734.9,149.9 735.7,150.2 736.6,150.3 737.5,150.8 737.9,150.5 738.2,150.0 738.9,150.3 739.4,150.5 739.9,150.2 740.9,150.6 741.6,150.6 742.2,151.0 742.7,150.9 743.4,150.8 743.7,151.2 744.0,151.5 744.3,151.0 744.5,150.5 744.8,150.6 745.4,150.8 746.1,150.1 746.7,150.3 747.2,149.7 747.9,150.0 748.6,150.9 749.1,151.4 749.2,151.8 749.2,152.8 749.2,152.4 749.4,151.6 749.4,152.2 749.6,152.3 749.9,152.0 750.9,151.6 751.8,152.2 752.4,152.2 752.9,152.0 753.7,151.8 754.4,150.9 754.9,151.3 755.3,151.9 755.8,151.4 756.2,151.3 756.6,151.3 757.2,151.4 757.5,151.5 758.0,151.5 758.5,151.9 758.9,153.1 759.3,152.4 759.6,152.6 759.9,152.3 760.5,152.8 760.9,152.9 761.1,152.9 761.2,152.5 761.4,153.0 761.6,152.9 761.8,153.2 762.1,153.0 762.3,152.8 762.7,153.4 762.9,153.2 763.1,153.6 763.4,152.7 763.8,152.3 764.5,152.4 764.7,153.2 765.0,153.0 765.2,152.4 765.4,152.6 765.8,152.7 766.5,152.6 767.2,152.9 767.6,152.7 767.8,152.9 768.0,153.2 768.1,153.5 768.2,153.1 768.5,153.4 768.7,154.0 768.7,153.9 768.8,153.9 768.8,153.6 769.0,154.2 769.0,154.0 769.2,153.3 769.5,153.6 769.8,154.1 770.1,153.3 770.6,152.7 770.8,152.7 771.0,151.9 771.3,151.4 771.5,152.0 771.8,152.4 772.0,153.4 772.5,154.2 772.8,154.8 772.8,155.5 772.9,155.8 772.9,155.2 773.1,155.5 773.2,155.9 773.2,156.1 773.3,156.9 773.4,156.7 773.4,156.9 773.4,157.5 773.5,158.7 773.6,157.4 773.6,157.4 773.6,156.6 773.7,156.0 773.8,155.8 773.9,154.8 774.0,154.4 774.1,154.3 774.4,154.9 774.7,154.7 774.9,154.6 775.1,154.3 775.3,155.0 775.4,155.7 775.5,155.9 775.6,156.4 775.7,156.5 776.0,155.7 776.1,155.6 776.5,155.3 776.8,155.0 777.1,154.5 777.6,154.5 777.9,154.4 778.3,154.2 778.6,153.6 778.8,154.3 779.1,154.8 779.4,155.3 779.5,155.3 779.7,155.0 779.9,155.3 780.1,155.2 780.2,154.9 780.5,154.2 780.7,154.1 780.8,154.2 781.0,154.5 781.5,154.3 781.8,154.1 782.0,153.7 782.2,152.9 782.5,152.9 782.7,152.2 783.0,152.0 783.1,152.6 783.3,153.6 783.7,154.1 784.0,153.1 784.4,152.9 784.9,152.7 785.3,152.8 785.5,153.0 785.7,154.0 786.0,154.3 786.5,154.5 786.8,154.9 787.3,154.7 787.6,154.1 788.0,155.2 788.4,155.2 788.5,155.0 788.9,154.5 789.3,154.5 789.7,153.9 790.0,154.1 790.4,155.0 790.7,154.6 791.0,155.2 791.4,154.9 791.6,154.9 792.0,155.2 792.2,154.8 792.6,155.5 792.8,155.6 793.1,155.0 793.3,154.6 793.7,154.3 793.9,154.0 794.3,153.4 794.4,154.2 794.6,154.3 795.2,153.6 795.6,153.5 796.0,154.4 796.7,155.2 797.1,155.6 797.4,155.2 798.0,154.9 798.7,154.6 799.2,154.5 799.6,154.5 800.2,154.5 800.5,154.4 801.4,154.1 802.2,155.2 802.6,155.2 803.4,155.4 803.9,154.7 805.1,153.9 805.7,153.8 806.5,153.9 807.1,153.1 807.8,153.1 808.4,152.7 808.7,153.1 809.2,153.4 809.6,153.4 810.3,153.8 811.0,154.4 811.4,154.0 812.2,153.9 813.0,154.0 814.0,153.8 814.9,153.4 815.6,153.7 817.1,154.1 817.6,154.3 817.8,154.1 818.2,154.0 819.3,154.7 819.6,153.9 820.7,154.1 821.1,154.9 821.2,155.7 821.2,156.2 821.3,156.5 821.3,155.7 821.3,156.1 821.4,156.4 821.5,156.6 821.7,156.2 821.7,155.9 821.8,155.8 821.8,155.6 821.9,156.4 822.0,156.5 822.1,156.8 822.2,156.8 822.2,156.3 822.3,156.4 822.3,156.3 822.4,157.5 822.5,157.0 822.5,157.4 822.6,158.2 822.6,158.4 822.6,157.8 822.7,157.9 822.7,158.4 822.7,159.4 822.8,159.7 822.8,160.0 822.8,160.2 822.8,160.4 822.9,159.9 822.9,159.7 822.9,159.7 823.0,159.0 823.0,158.9 823.0,158.2 823.1,158.0 823.2,158.1 823.3,158.5 823.3,159.3 823.4,160.0 823.4,160.4 823.4,160.9 823.4,162.6 823.4,162.2 823.5,161.6 823.5,161.9 823.6,160.3 823.6,161.0 823.6,161.6 823.6,161.2 823.7,162.4 823.7,162.4 823.8,161.6 823.8,162.6 823.8,162.3 823.8,161.5 823.9,161.4 824.0,162.2 824.0,161.8 824.0,160.8 824.1,160.1 824.1,161.0 824.1,160.3 824.2,160.4 824.2,161.7 824.3,161.8 824.3,161.3 824.4,161.3 824.5,160.8 824.6,162.7 824.6,163.6 824.6,163.9 824.7,165.4 824.7,164.2 824.7,164.8 824.8,165.9 824.9,167.8 824.9,168.2 824.9,169.3 824.9,169.5 825.0,170.6 825.0,167.9 825.0,166.8 825.0,166.5 825.1,165.8 825.1,167.5 825.1,167.2 825.2,166.9 825.2,164.8 825.2,165.5 825.3,166.0 825.3,166.8 825.3,165.7 825.4,165.7 825.4,165.2 825.5,165.3 825.5,167.2 825.5,167.6 825.6,166.0 825.6,166.4 825.6,166.4 825.7,166.7 825.7,167.5 825.8,166.6 825.8,165.7 825.9,166.9 825.9,166.7 826.0,167.6 826.1,168.4 826.1,167.4 826.1,166.5 826.2,166.7 826.3,167.6 826.4,168.4 826.4,169.0 826.4,168.6 826.5,168.6 826.5,168.2 826.6,168.8 826.6,169.5 826.7,170.6 826.7,171.5 826.7,172.1 826.8,172.7 826.8,175.2 826.8,178.0 826.9,180.1 826.9,179.2 826.9,177.2 826.9,177.0 827.0,176.3 827.0,175.9 827.0,175.0 827.1,176.6 827.1,175.9 827.1,175.8 827.1,176.7 827.2,177.0 827.2,175.5 827.2,175.4 827.3,175.1 827.3,175.4 827.4,175.9 827.4,176.7 827.4,177.3 827.4,177.0 827.4,175.8 827.5,177.5 827.5,178.1 827.5,179.0 827.5,180.1 827.5,181.9 827.6,179.7 827.6,179.8 827.6,179.2 827.7,180.0 827.7,179.7 827.7,179.8 827.7,179.1 827.8,178.3 827.8,177.3 827.9,176.9 828.0,176.2 828.1,175.0 828.1,175.5 828.2,174.9 828.2,175.9 828.3,175.6 828.3,174.5 828.4,174.0 828.5,173.5 828.5,174.0 828.5,174.9 828.6,174.0 828.6,173.3 828.6,172.6 828.7,172.7 828.7,173.2 828.8,173.2 828.8,173.4 828.9,173.1 829.0,172.3 829.0,171.9 829.1,172.9 829.2,173.0 829.2,173.0 829.3,173.4 829.3,174.0 829.4,173.6 829.5,173.5 829.5,172.9 829.6,172.5 829.7,173.1 829.9,172.3 830.0,171.6 830.1,171.9 830.1,172.7 830.2,173.0 830.3,172.9 830.5,173.2 830.6,173.3 830.7,173.4 830.8,173.5 830.9,174.2 831.0,173.8 831.1,174.2 831.2,174.4 831.3,173.9 831.4,172.9 831.5,172.4 831.5,173.2 831.7,173.0 831.8,173.8 831.8,174.7 831.8,174.0 831.8,173.5 831.9,173.1 832.0,174.0 832.0,173.6 832.1,173.7 832.2,174.6 832.3,174.7 832.4,174.0 832.4,173.6 832.5,173.5 832.7,172.7 832.7,172.0 832.8,171.7 832.9,172.2 833.0,171.7 833.1,171.8 833.1,172.2 833.2,172.8 833.4,173.8 833.5,173.8 833.6,173.4 833.7,174.1 833.8,173.8 833.9,174.7 834.0,174.0 834.0,174.8 834.1,175.5 834.1,175.6 834.2,175.3 834.2,175.9 834.2,175.3 834.3,174.6 834.3,175.6 834.4,176.0 834.4,175.8 834.4,176.8 834.4,177.7 834.5,176.9 834.5,180.2 834.6,181.1 834.6,179.4 834.6,179.3 834.6,180.4 834.7,182.6 834.7,183.0 834.8,184.5 834.8,186.2 834.8,188.4 834.8,188.3 834.9,191.7 834.9,190.4 834.9,192.0 834.9,192.8 835.0,194.1 835.0,195.8 835.0,197.8 835.0,199.6 835.1,201.1 835.1,204.1 835.1,201.0 835.1,200.7 835.2,198.4 835.2,198.1 835.3,195.5 835.3,199.5 835.3,195.5 835.4,193.6 835.4,194.8 835.4,195.1 835.5,198.3 835.5,201.1 835.5,204.5 835.5,206.5 835.5,209.6 835.6,207.3 835.6,210.4 835.6,208.8 835.6,208.8 835.6,212.2 835.7,216.7 835.7,220.2 835.7,214.4 835.8,216.2 835.8,212.6 835.8,211.3 835.9,209.1 835.9,207.2 836.0,210.2 836.0,210.3 836.0,207.7 836.1,207.4 836.1,208.7 836.1,208.3 836.2,207.4 836.3,210.2 836.3,214.1 836.3,217.8 836.4,214.5 836.4,214.8 836.5,215.9 836.5,219.4 836.5,220.3 836.5,223.8 836.6,227.4 836.6,231.5 836.6,232.8 836.7,237.4 836.7,239.3 836.7,239.9 836.7,238.4 836.8,237.9 836.8,238.6 836.8,234.1 836.9,236.2 836.9,242.6 836.9,246.8 837.0,243.2 837.1,250.8 837.1,254.5 837.2,256.2 837.2,254.2 837.3,252.7 837.3,254.9 837.3,258.6 837.4,263.1 837.4,267.0 837.4,271.8 837.4,270.1 837.5,271.9 837.5,269.9 837.5,265.2 837.5,265.5 837.6,265.9 837.7,264.9 837.8,268.9 837.8,274.8 837.8,279.3 837.8,281.2 837.9,284.8 837.9,283.1 837.9,289.8 838.0,296.3 838.1,308.5 838.2,307.8 838.2,319.2 838.3,328.6 838.3,336.6 838.4,353.5 838.5,365.1 838.5,377.8 838.5,382.0 838.6,396.2 838.7,411.6 838.7,420.6 838.8,427.5 838.9,427.4 839.0,428.8 839.1,437.5 839.1,435.2 839.2,439.9 839.2,431.6 839.3,430.2 839.5,427.7 839.7,428.9 839.8,416.1 839.9,414.7 840.0,417.1 840.1,405.2 840.2,401.4 840.4,396.4 840.5,396.3 840.6,399.9 840.8,388.3 840.9,381.2 841.0,388.7 841.2,393.8 841.3,382.0 841.4,380.8 841.5,374.6 841.6,372.2 841.7,380.1 841.9,368.8 841.9,359.0 842.1,365.8 842.2,349.6 842.3,355.1 842.5,352.9 842.7,357.9 842.8,364.2 843.1,347.1 843.2,355.2 843.3,347.9 843.6,348.6 843.7,343.1 843.8,335.8 844.0,334.3 844.2,347.3 844.3,343.6 844.4,349.7 844.6,340.1 844.8,345.4 845.0,339.0 845.2,342.1 845.3,340.2 845.5,330.3 845.6,337.0 845.7,330.8 845.9,325.4 846.1,329.0 846.3,334.4 846.5,331.8 846.6,325.4 846.7,318.6 846.8,315.1 846.9,322.8 847.0,321.4 847.1,314.3 847.2,308.1 847.4,297.0 847.6,310.2 847.7,313.3 847.9,310.3 848.1,318.0 848.2,321.6 848.4,318.9 848.6,312.9 848.7,314.3 848.9,314.5 849.0,297.9 849.1,315.5 849.3,320.3 849.4,317.6 849.4,317.7 849.5,326.3 849.6,316.7 849.6,311.9 849.7,306.4 849.7,319.7 849.8,321.6 849.9,313.3 849.9,314.0 849.9,308.2 850.1,316.1 850.1,313.5 850.2,311.6 850.2,312.9 850.3,313.6 850.3,317.1 850.4,323.3 850.5,321.0 850.6,321.5 850.6,318.4 850.7,319.0 850.8,319.1 850.8,315.9 850.9,314.2 851.1,308.2 851.3,308.7 851.4,305.1 851.5,308.1 851.7,305.2 851.8,311.5 851.9,300.6 852.0,290.9 852.1,296.4 852.1,292.5 852.2,295.1 852.3,288.5 852.5,295.3 852.6,290.5 852.7,283.5 852.8,295.4 852.9,285.6 853.0,293.0 853.1,277.9 853.2,290.9 853.3,294.9 853.4,284.0 853.5,281.3 853.6,270.7 853.7,291.9 853.9,277.3 854.0,284.2 854.1,261.7 854.2,280.7 854.3,260.6 854.4,265.3 854.5,268.4 854.7,266.7 854.8,265.0 854.8,255.2 854.9,252.9 854.9,253.2 855.0,248.4 855.0,248.3 855.1,259.5 855.1,255.0 855.2,275.7 855.2,254.2 855.3,261.7 855.3,257.5 855.4,261.7 855.5,261.7 855.6,266.5 855.7,267.5 855.7,273.3 855.8,248.0 855.8,278.4 856.0,279.1 856.1,284.4 856.2,261.6 856.3,273.3 856.4,280.3 856.4,271.6 856.5,261.6 856.7,275.2 856.8,264.9 856.8,261.7 856.8,244.5 856.9,272.8 857.0,261.7 857.1,270.2 857.2,260.9 857.3,262.1 857.4,270.4 857.5,271.2 857.6,278.0 857.8,272.8 857.9,263.9 858.0,262.6 858.0,270.7 858.1,269.6 858.2,270.4 858.4,268.4 858.5,269.0 858.5,261.7 858.6,257.0 858.6,260.9 858.7,269.2 858.7,256.1 858.8,253.2 859.0,254.9 859.1,260.2 859.1,256.3 859.2,261.3 859.3,255.2 859.3,258.3 859.4,263.4 859.5,260.7 859.6,265.0 859.7,268.3 859.8,266.1 859.9,261.6 859.9,264.4 860.0,262.9 860.1,263.6 860.2,261.6 860.2,265.1 860.2,259.9 860.3,265.1 860.3,260.0 860.4,257.4 860.4,255.3 860.5,259.0 860.6,258.2 860.7,257.5 860.8,259.5 860.8,257.0 860.9,259.1 860.9,260.0 861.0,257.0 861.0,260.1 861.1,259.4 861.1,258.1 861.2,258.9 861.2,258.3 861.3,260.8 861.3,259.7 861.4,261.9 861.5,259.7 861.5,255.2 861.6,253.3 861.6,255.1 861.7,262.6 861.7,258.6 861.8,259.2 861.8,257.0 861.9,260.5 861.9,258.4 862.0,255.7 862.1,261.8 862.1,255.6 862.2,256.9 862.3,257.2 862.3,255.4 862.4,254.6 862.4,253.7 862.5,255.5 862.5,258.3 862.6,259.7 862.7,257.8 862.7,256.5 862.8,255.5 862.9,253.8 863.0,254.1 863.0,257.5 863.1,256.4 863.1,258.2 863.2,258.1 863.3,255.4 863.4,256.3 863.5,257.4 863.6,260.0 863.6,256.8 863.7,262.7 863.8,261.5 863.8,261.4 863.9,259.2 864.0,260.9 864.1,261.6 864.2,260.1 864.2,263.2 864.3,260.7 864.3,260.0 864.4,259.8 864.5,258.5 864.5,254.8 864.6,255.2 864.7,257.4 864.8,258.4 864.8,258.8 864.8,260.2 864.9,261.3 864.9,261.7 864.9,259.0 864.9,256.2 865.0,257.3 865.1,260.2 865.1,258.3 865.1,259.6 865.1,260.1 865.2,259.4 865.2,260.8 865.2,260.8 865.2,261.8 865.3,261.3 865.3,262.6 865.4,264.6 865.4,263.9 865.4,261.3 865.4,261.7 865.5,269.1 865.5,259.7 865.6,268.4 865.6,265.4 865.6,264.1 865.7,262.2 865.7,261.5 865.8,260.7 865.8,260.4 865.8,267.6 865.9,265.7 865.9,263.8 866.0,270.2 866.0,276.4 866.1,273.2 866.2,288.3 866.2,279.2 866.3,284.5 866.3,281.5 866.4,279.8 866.4,278.5 866.5,276.2 866.6,277.1 866.6,275.8 866.6,276.8 866.7,278.6 866.7,278.2 866.8,276.1 866.9,278.6 866.9,276.8 867.0,279.7 867.1,278.0 867.1,275.8 867.2,274.2 867.3,270.8 867.3,272.5 867.4,272.6 867.4,272.2 867.5,272.2 867.5,270.5 867.6,272.0 867.6,270.8 867.7,270.5 867.7,271.1 867.7,270.2 867.8,269.2 867.8,269.1 867.9,268.5 867.9,266.7 868.0,268.9 868.0,268.8 868.1,267.8 868.1,267.3 868.2,267.8 868.2,268.6 868.3,267.5 868.4,269.4 868.4,268.7 868.5,267.9 868.5,268.2 868.5,267.0 868.6,265.5 868.6,265.9 868.6,268.9 868.7,267.7 868.7,267.8 868.7,268.4 868.8,268.1 868.9,267.8 868.9,267.1 869.0,267.3 869.1,266.3 869.2,268.9 869.2,266.7 869.3,268.2 869.4,268.4 869.4,271.5 869.5,272.0 869.7,280.2 869.8,273.4 869.8,276.9 869.8,275.6 869.9,274.5 870.0,273.4 870.0,275.9 870.1,276.2 870.1,276.0 870.2,275.5 870.3,273.1 870.3,275.4 870.4,275.5 870.4,275.6 870.5,275.6 870.5,276.0 870.6,276.4 870.6,276.1 870.7,275.4 870.8,274.3 870.8,273.0 870.9,273.5 870.9,273.8 871.0,274.6 871.0,275.1 871.1,274.8 871.2,275.4 871.2,276.8 871.3,275.3 871.3,276.0 871.4,274.2 871.4,276.0 871.5,278.4 871.6,277.0 871.6,275.6 871.7,277.3 871.8,274.9 871.8,276.5 871.9,275.9 872.0,274.7 872.0,275.3 872.0,275.1 872.1,275.3 872.1,274.7 872.2,273.9 872.3,272.3 872.3,273.9 872.4,274.1 872.5,274.1 872.5,274.5 872.7,272.4 872.8,273.3 872.8,272.8 872.9,272.0 872.9,272.4 872.9,272.1 873.0,271.8 873.0,271.1 873.1,271.3 873.1,271.4 873.2,270.9 873.2,271.4 873.3,269.7 873.3,270.4 873.4,269.1 873.5,270.4 873.5,270.1 873.6,270.7 873.7,271.5 873.8,271.1 873.8,272.2 873.9,272.2 874.0,271.3 874.0,271.5 874.0,272.1 874.1,272.5 874.2,273.9 874.2,274.3 874.3,274.3 874.3,274.8 874.4,273.8 874.4,273.3 874.5,273.3 874.5,272.2 874.6,270.3 874.6,271.1 874.7,270.5 874.8,271.8 875.0,271.4 875.0,271.0 875.1,269.8 875.2,270.4 875.2,270.5 875.3,270.6 875.4,271.3 875.5,271.0 875.6,272.1 875.7,271.3 875.8,271.6 875.8,270.7 875.9,271.4 875.9,270.4 876.0,271.2 876.1,274.6 876.1,272.2 876.2,272.2 876.3,271.1 876.4,270.2 876.4,270.4 876.5,272.8 876.6,272.9 876.7,273.8 876.7,274.4 876.8,273.7 876.9,273.3 876.9,273.0 877.0,273.0 877.1,273.7 877.5,269.4 877.6,271.0 877.7,270.6 877.9,271.1 878.1,271.5 878.2,269.8 878.3,268.7 878.4,268.5 878.6,271.1 878.7,271.1 878.8,269.5 878.9,271.8 879.0,272.4 879.1,272.0 879.1,272.5 879.1,272.7 879.2,272.8 879.3,271.4 879.3,270.8 879.4,270.4 879.4,269.8 879.5,269.9 879.6,270.0 879.7,267.7 879.7,267.7 879.8,267.3 880.0,267.7 880.1,267.2 880.3,266.7 880.5,265.5 880.6,265.3 880.7,265.6 880.8,264.2 880.9,262.8 881.1,261.8 881.2,260.4 881.4,258.9 881.5,259.0 881.7,260.6 881.8,261.7 882.1,260.3 882.3,261.3 882.4,257.8 882.6,259.0 882.9,259.8 883.0,256.7 883.1,254.3 883.3,256.1 883.5,256.4 883.8,257.1 883.9,256.8 884.1,257.3 884.2,256.4 884.3,258.0 884.4,257.9 884.6,256.0 884.7,256.8 885.0,258.5 885.3,257.5 885.4,256.2 885.6,255.3 885.8,256.9 885.9,255.8 886.0,254.7 886.1,255.6 886.2,255.4 886.3,256.5 886.5,256.9 886.7,256.4 886.9,255.8 887.1,254.6 887.7,253.2 888.0,253.0 888.3,252.2 888.5,252.6 888.9,253.9 889.3,255.1 889.5,255.1 889.9,255.1 890.1,254.2 890.5,250.9 890.7,251.4 891.1,252.0 891.3,250.4 891.5,246.2 891.8,246.3 891.9,245.5 892.1,245.5 892.4,246.2 892.8,246.1 893.0,247.3 893.1,246.8 893.2,247.3 893.3,247.0 893.4,245.5 893.6,246.8 893.7,245.2 893.8,246.0 894.0,245.1 894.1,246.6 894.3,245.0 894.4,246.0 894.6,246.2 894.7,247.8 894.8,247.4 895.0,246.6 895.2,247.6 895.4,248.5 895.4,248.6 895.5,246.7 895.7,247.6 895.9,246.4 896.0,246.7 896.2,247.6 896.4,246.9 896.6,247.9 896.7,247.4 896.8,246.7 896.9,245.2 897.0,244.2 897.1,242.7 897.1,242.7 897.2,245.5 897.2,243.7 897.3,244.0 897.4,243.5 897.6,243.0 897.7,241.9 897.8,241.7 898.1,240.1 898.3,240.1 898.5,240.7 898.7,239.7 899.0,239.2 899.2,240.8 899.5,240.7 899.7,241.8 899.9,241.7 900.2,241.0 900.5,241.4 900.8,240.0 901.0,240.3 901.3,239.4 901.5,238.8 901.6,241.0 901.9,240.9 902.0,241.1 902.3,240.9 902.5,241.3 902.8,240.4 903.1,240.5 903.3,241.1 903.7,240.2 903.9,240.4 904.0,236.2 904.0,229.5 904.0,233.2 904.2,235.6 904.3,235.1 904.5,236.0 904.8,238.3 904.9,240.7 905.1,240.0 905.4,241.1 905.5,241.7 905.7,241.8 905.8,241.7 906.1,241.3 906.5,239.5 906.8,237.9 907.0,237.5 907.3,236.2 907.4,237.6 907.6,235.5 907.8,234.1 907.9,234.9 908.0,234.1 908.1,233.8 908.3,236.1 908.5,234.0 908.6,233.2 908.6,233.8 908.7,231.7 908.9,229.9 909.0,230.4 909.1,229.7 909.3,227.2 909.3,225.7 909.4,222.3 909.4,226.7 909.6,223.3 909.6,225.9 909.7,223.4 909.8,225.6 909.9,223.6 910.0,227.1 910.2,227.8 910.4,226.1 910.5,224.0 910.7,224.6 910.8,223.6 911.0,225.6 911.1,224.3 911.3,224.1 911.4,223.3 911.5,224.0 911.5,223.1 911.5,221.2 911.6,221.8 911.6,221.6 911.7,222.0 911.7,220.6 911.8,223.3 911.8,220.7 911.9,223.8 912.0,221.4 912.1,220.2 912.2,217.1 912.2,219.3 912.3,221.9 912.4,218.7 912.5,222.1 912.6,217.8 912.7,216.8 912.8,217.0 912.8,221.0 912.9,219.2 913.0,220.9 913.1,219.4 913.2,218.3 913.4,220.5 913.5,218.8 913.7,218.8 913.7,223.1 913.8,230.5 913.9,228.9 914.0,225.8 914.1,226.4 914.2,221.2 914.3,218.5 914.4,225.1 914.6,225.8 914.7,224.1 914.9,223.8 915.0,225.8 915.1,224.8 915.3,225.3 915.4,224.7 915.5,224.4 915.6,222.2 915.7,223.8 915.9,222.2 915.9,222.7 916.1,224.2 916.2,222.7 916.3,222.4 916.4,220.7 916.5,219.5 916.5,219.2 916.6,217.7 916.6,217.0 916.7,221.3 916.8,221.6 916.9,217.8 917.0,219.3 917.1,217.9 917.3,217.2 917.4,218.1 917.5,218.2 917.7,219.1 917.8,219.5 918.0,221.6 918.1,221.4 918.1,218.7 918.2,216.7 918.3,217.2 918.4,219.2 918.6,216.6 918.7,217.7 918.8,218.9 919.0,216.6 919.1,217.7 919.2,216.6 919.4,218.2 919.6,219.4 919.6,221.3 919.8,219.2 920.0,216.8 920.2,216.6 920.4,215.3 920.5,214.0 920.6,215.0 920.7,216.1 920.8,218.5 920.9,225.0 920.9,229.8 920.9,237.3 920.9,234.5 921.0,229.5 921.0,230.5 921.0,231.0 921.0,227.6 921.1,227.5 921.2,222.3 921.4,221.8 921.6,220.7 921.6,220.3 921.8,220.2 921.8,219.8 922.0,220.2 922.1,220.9 922.2,219.4 922.4,219.8 922.6,219.8 922.7,218.7 922.9,217.7 922.9,214.0 923.0,216.4 923.1,214.4 923.2,215.0 923.3,215.3 923.4,216.3 923.5,215.0 923.6,216.2 923.7,214.5 923.8,214.1 924.0,215.0 924.1,218.0 924.1,217.1 924.1,217.7 924.1,225.3 924.2,232.4 924.2,229.8 924.2,227.1 924.2,225.8 924.2,231.3 924.3,221.2 924.3,217.7 924.4,221.9 924.5,218.9 924.5,219.4 924.7,218.2 925.0,219.2 925.1,220.0 925.1,218.0 925.2,219.0 925.2,222.9 925.3,223.3 925.4,220.1 925.4,224.2 925.5,224.6 925.5,223.9 925.6,222.2 925.7,221.0 925.9,221.1 925.9,221.0 926.1,221.7 926.2,223.1 926.3,220.1 926.4,221.6 926.5,222.3 926.6,223.3 926.9,222.3 927.0,223.2 927.0,223.6 927.0,228.8 927.1,226.6 927.1,228.2 927.2,231.3 927.2,233.3 927.3,229.2 927.3,226.7 927.3,232.7 927.4,227.7 927.5,226.4 927.6,225.9 927.7,227.0 927.7,226.4 927.8,228.9 927.9,226.3 928.1,225.3 928.2,225.8 928.2,227.4 928.3,226.3 928.3,231.7 928.3,227.7 928.4,226.2 928.5,231.1 928.5,231.4 928.6,227.6 928.7,227.7 928.7,232.2 928.8,232.6 928.8,228.9 928.9,229.1 929.0,230.3 929.1,228.5 929.2,228.5 929.3,229.3 929.3,229.9 929.4,232.4 929.4,229.6 929.5,234.1 929.5,233.8 929.5,234.5 929.6,233.6 929.6,236.6 929.7,238.6 929.7,236.1 929.8,234.5 929.9,231.2 929.9,230.2 930.0,231.5 930.1,231.0 930.1,230.4 930.2,229.3 930.3,233.0 930.3,231.1 930.5,229.1 930.6,228.6 930.7,228.6 930.8,229.0 930.9,227.9 931.0,225.8 931.1,225.4 931.1,225.4 931.2,225.6 931.2,225.7 931.3,227.0 931.5,226.0 931.6,223.8 931.6,226.1 931.7,224.2 931.7,223.8 931.7,220.8 931.7,222.3 931.8,222.4 931.8,224.6 931.9,224.9 932.0,223.3 932.2,222.9 932.3,226.6 932.6,224.9 932.8,222.9 932.9,225.3 933.0,225.5 933.0,225.4 933.2,226.6 933.2,224.8 933.3,226.6 933.4,226.0 933.4,225.3 933.5,226.5 933.5,225.2 933.5,225.6 933.6,225.2 933.6,225.1 933.7,225.4 933.8,228.5 933.9,227.3 934.0,227.0" fill="none" stroke="#d97706" stroke-width="1.2" stroke-linejoin="round" opacity="0.6"/><text x="942" y="472.0" text-anchor="start" font-size="11" fill="#d97706">0.14</text><text x="942" y="396.0" text-anchor="start" font-size="11" fill="#d97706">0.46</text><text x="942" y="320.0" text-anchor="start" font-size="11" fill="#d97706">0.78</text><text x="942" y="244.0" text-anchor="start" font-size="11" fill="#d97706">1.11</text><text x="942" y="168.0" text-anchor="start" font-size="11" fill="#d97706">1.43</text><text x="942" y="92.0" text-anchor="start" font-size="11" fill="#d97706">1.75</text><text x="942" y="80.0" text-anchor="start" font-size="11" font-weight="600" fill="#d97706">price</text>
  <polygon points="169.5,468.0 169.5,461.8 169.5,461.9 198.2,462.1 331.3,462.4 613.6,461.1 629.0,461.3 772.8,460.5 782.8,460.7 788.4,460.9 824.9,459.9 825.2,460.0 826.4,460.2 826.9,459.3 834.8,459.4 835.0,458.6 835.1,458.8 835.2,459.0 835.5,459.3 835.7,458.0 835.8,458.2 836.3,458.4 836.5,457.4 836.7,456.7 836.8,456.9 836.9,457.1 836.9,456.1 836.9,456.3 837.1,456.5 837.2,455.5 837.2,455.7 837.3,455.9 837.4,454.9 837.4,455.0 837.4,455.3 837.4,455.5 837.5,455.8 837.8,456.0 837.8,455.2 837.8,455.4 837.9,454.6 837.9,453.9 837.9,453.3 837.9,453.4 837.9,453.6 837.9,453.9 837.9,454.2 838.0,454.4 838.0,454.6 838.0,454.8 838.0,455.1 838.0,455.3 838.0,455.5 838.0,454.5 838.1,454.7 838.1,454.9 838.1,455.1 838.1,455.5 838.1,455.6 838.1,454.8 838.1,455.0 838.1,455.2 838.1,455.4 838.1,455.8 838.1,455.9 838.2,456.1 838.2,456.4 838.2,455.1 838.2,455.3 838.3,454.5 838.3,454.7 838.3,454.9 838.3,455.1 838.3,453.9 838.3,454.0 838.3,453.2 838.3,452.6 838.3,452.8 838.4,452.0 838.4,452.1 838.4,451.3 838.4,451.5 838.4,451.7 838.4,451.9 838.4,452.3 838.4,452.4 838.4,452.6 838.4,452.9 838.4,451.6 838.4,451.8 838.5,452.0 838.5,451.0 838.5,451.2 838.5,450.4 838.5,450.5 838.5,450.7 838.5,449.8 838.5,449.9 838.5,449.1 838.6,449.3 838.6,449.5 838.6,448.5 838.6,448.7 838.6,447.9 838.6,448.0 838.6,447.2 838.6,446.6 838.6,446.7 838.6,446.9 838.6,447.2 838.6,447.5 838.6,447.7 838.6,446.9 838.6,447.0 838.7,446.2 838.7,446.4 838.7,445.6 838.7,445.0 838.7,445.1 838.7,445.3 838.7,445.6 838.7,445.9 838.7,445.3 838.7,444.7 838.7,444.8 838.8,444.0 838.8,444.2 838.8,444.4 838.8,444.6 838.8,444.9 838.8,444.3 838.8,444.5 838.8,444.7 838.8,443.7 838.8,443.9 838.8,444.1 838.8,444.3 838.8,444.6 838.8,444.8 838.8,444.0 838.8,443.4 838.8,443.5 838.8,442.7 838.9,442.1 838.9,442.2 838.9,441.4 838.9,441.6 838.9,440.8 838.9,440.2 838.9,440.3 838.9,440.5 838.9,440.8 838.9,441.1 838.9,441.3 838.9,441.5 838.9,441.7 838.9,442.0 838.9,442.2 838.9,441.4 838.9,441.6 838.9,441.8 838.9,442.0 838.9,442.3 839.0,442.5 839.0,442.7 839.0,441.7 839.0,441.9 839.0,441.1 839.0,440.5 839.0,439.8 839.0,440.0 839.0,440.2 839.0,440.5 839.0,440.8 839.0,440.1 839.0,439.5 839.0,439.7 839.0,438.9 839.0,439.0 839.0,439.2 839.1,439.5 839.1,439.8 839.1,439.2 839.1,439.3 839.1,438.6 839.1,437.9 839.1,437.3 839.1,436.7 839.1,436.8 839.1,437.0 839.1,437.3 839.1,436.0 839.1,436.2 839.1,435.4 839.1,435.6 839.1,435.8 839.1,434.8 839.1,435.0 839.1,434.2 839.1,433.5 839.1,433.7 839.1,432.9 839.1,433.1 839.1,433.3 839.1,432.3 839.1,431.6 839.1,431.8 839.1,431.0 839.1,431.2 839.1,431.4 839.1,430.4 839.1,430.6 839.1,430.8 839.1,431.0 839.1,429.8 839.2,429.9 839.2,430.1 839.2,430.4 839.2,430.7 839.2,430.9 839.2,430.1 839.2,429.4 839.2,429.6 839.2,428.8 839.2,428.2 839.2,427.5 839.2,426.9 839.2,427.1 839.2,427.3 839.2,426.3 839.2,426.4 839.2,425.6 839.2,425.8 839.2,425.0 839.2,424.4 839.2,424.5 839.2,423.7 839.3,423.9 839.3,424.1 839.3,424.4 839.3,424.7 839.3,424.0 839.3,423.4 839.3,422.8 839.3,422.9 839.4,422.2 839.4,422.3 839.4,421.5 839.4,421.7 839.4,420.9 839.4,420.3 839.5,420.4 839.5,419.6 839.7,419.0 839.7,419.1 839.7,418.4 839.7,418.5 839.8,418.7 839.8,419.0 839.8,419.3 839.8,419.5 839.8,419.7 839.8,419.9 839.8,418.7 839.8,418.0 839.8,417.4 839.9,417.6 839.9,417.8 839.9,418.0 839.9,418.3 839.9,418.5 839.9,418.7 839.9,419.0 839.9,419.3 839.9,419.4 839.9,418.6 839.9,418.8 839.9,419.0 839.9,418.0 839.9,417.4 839.9,416.8 840.0,416.1 840.0,415.5 840.0,414.8 840.0,415.0 840.0,415.2 840.0,414.2 840.0,413.6 840.0,412.9 840.0,412.3 840.0,411.7 840.0,411.0 840.0,411.2 840.0,410.4 840.0,409.8 840.0,409.1 840.0,409.3 840.0,408.5 840.1,407.9 840.1,408.0 840.1,408.2 840.1,408.5 840.1,408.8 840.1,409.0 840.1,408.2 840.1,407.5 840.2,406.9 840.2,406.3 840.2,406.4 840.2,406.6 840.2,406.9 840.2,407.2 840.2,407.4 840.3,407.6 840.3,406.6 840.3,405.9 840.3,406.1 840.3,406.3 840.3,405.3 840.3,405.5 840.3,404.7 840.3,404.8 840.3,404.0 840.3,404.2 840.3,404.4 840.3,403.4 840.3,403.6 840.3,402.8 840.4,402.9 840.4,402.1 840.4,402.3 840.4,401.5 840.4,401.7 840.4,400.9 840.4,401.0 840.4,401.2 840.4,400.2 840.4,399.6 840.4,399.8 840.4,399.0 840.4,399.1 840.4,398.3 840.4,398.5 840.4,397.7 840.4,397.1 840.5,396.4 840.5,395.8 840.5,395.2 840.5,395.3 840.5,394.5 840.5,394.7 840.5,393.9 840.5,394.0 840.5,394.2 840.5,394.5 840.5,393.3 840.5,392.6 840.5,392.8 840.5,392.0 840.5,391.4 840.6,390.7 840.6,390.9 840.6,391.1 840.6,391.3 840.6,391.7 840.6,391.8 840.6,391.0 840.6,391.2 840.6,390.4 840.6,390.6 840.6,389.8 840.6,389.9 840.6,389.2 840.6,388.5 840.6,387.9 840.6,387.3 840.7,387.4 840.7,386.6 840.7,386.0 840.7,385.3 840.8,384.7 840.8,384.9 840.9,385.1 840.9,385.3 840.9,385.6 840.9,385.8 840.9,385.0 840.9,384.4 840.9,384.5 840.9,383.8 840.9,383.9 840.9,383.1 840.9,383.3 840.9,382.5 840.9,382.7 841.0,381.9 841.0,381.2 841.0,381.4 841.0,380.6 841.0,380.7 841.0,379.9 841.0,379.3 841.0,378.7 841.0,378.0 841.1,378.2 841.1,378.4 841.1,377.4 841.1,376.8 841.1,376.9 841.1,377.1 841.1,377.4 841.1,377.7 841.1,377.1 841.1,377.2 841.1,376.5 841.1,376.6 841.1,375.8 841.1,375.2 841.1,374.5 841.1,373.9 841.1,374.1 841.1,373.3 841.1,372.6 841.2,372.0 841.2,371.4 841.2,371.5 841.2,371.7 841.2,372.0 841.2,372.3 841.3,372.4 841.3,372.6 841.3,372.9 841.3,373.2 841.3,372.6 841.3,372.8 841.3,372.0 841.3,372.1 841.3,372.3 841.3,371.3 841.3,371.5 841.3,371.7 841.5,372.0 841.5,372.3 841.5,372.5 841.5,372.7 841.5,372.9 841.5,373.2 841.5,373.4 841.5,372.6 841.5,372.8 841.5,373.0 841.5,372.0 841.5,372.1 841.5,371.4 841.5,371.5 841.5,370.7 841.5,370.9 841.5,371.1 841.6,371.3 841.6,370.1 841.6,370.3 841.6,369.5 841.6,368.8 841.6,369.0 841.6,369.2 841.6,368.2 841.6,368.4 841.6,368.6 841.6,367.6 841.6,367.8 841.6,368.0 841.6,367.0 841.7,367.1 841.7,367.3 841.7,366.3 841.7,366.5 841.7,365.7 841.7,365.9 841.7,365.1 841.7,365.2 841.7,364.4 841.7,364.6 841.7,363.8 841.7,363.2 841.7,363.4 841.7,362.6 841.7,361.9 841.7,361.3 841.7,360.7 841.7,360.0 841.7,360.2 841.7,359.4 841.8,359.5 841.8,358.8 841.8,358.9 841.8,358.1 841.8,358.3 841.8,358.5 841.8,357.5 841.8,357.7 841.9,357.9 841.9,356.9 841.9,356.2 841.9,356.4 841.9,355.6 841.9,355.8 841.9,356.0 842.0,356.2 842.0,356.5 842.0,355.9 842.1,356.0 842.1,356.2 842.1,355.3 842.1,355.4 842.1,354.6 842.1,354.0 842.1,353.4 842.2,352.7 842.2,352.1 842.2,352.3 842.2,351.5 842.2,350.8 842.2,350.2 842.2,349.5 842.2,348.9 842.3,348.3 842.3,348.4 842.3,347.6 842.3,347.8 842.3,348.0 842.3,348.3 842.3,348.6 842.3,347.9 842.4,348.1 842.4,347.3 842.5,346.6 842.5,346.0 842.5,346.2 842.5,345.4 842.5,345.5 842.5,344.7 842.5,344.1 842.5,344.3 842.5,344.5 842.5,343.5 842.5,342.8 842.5,343.0 842.5,342.2 842.6,341.6 842.6,341.7 842.6,341.9 842.6,340.9 842.6,341.1 842.6,341.3 842.6,340.3 842.6,340.5 842.6,339.7 842.6,339.8 842.6,339.1 842.6,339.2 842.6,338.4 842.6,338.6 842.6,338.8 842.6,339.1 842.7,339.4 842.8,339.5 842.8,338.7 842.8,338.1 842.8,338.3 842.8,337.5 842.8,337.6 842.8,337.9 842.8,338.1 842.8,338.4 842.8,338.6 842.8,338.8 842.8,337.8 842.9,337.2 842.9,337.3 842.9,337.5 842.9,337.8 842.9,338.1 842.9,338.3 843.0,338.5 843.0,338.7 843.0,339.1 843.0,338.4 843.0,338.6 843.0,338.8 843.1,339.0 843.1,337.8 843.1,338.0 843.1,337.2 843.1,337.3 843.1,336.5 843.1,335.9 843.1,336.1 843.1,336.3 843.2,335.3 843.2,334.6 843.2,334.0 843.2,333.4 843.2,333.5 843.2,333.7 843.2,334.0 843.2,334.3 843.2,334.5 843.2,334.7 843.2,334.9 843.3,335.3 843.3,334.6 843.3,334.8 843.3,335.0 843.3,334.0 843.3,334.2 843.3,334.4 843.3,334.6 843.3,335.0 843.3,335.1 843.3,335.3 843.3,335.6 843.6,334.3 843.6,333.7 843.6,333.1 843.6,332.4 843.6,331.8 843.7,331.2 843.8,331.3 843.8,331.5 843.9,331.8 843.9,332.1 843.9,332.3 844.0,331.5 844.0,330.8 844.0,330.2 844.0,329.6 844.0,328.9 844.1,329.1 844.1,329.3 844.1,328.3 844.1,328.5 844.1,328.7 844.1,327.7 844.1,327.8 844.1,327.0 844.1,326.4 844.1,326.5 844.1,326.7 844.1,327.0 844.1,325.7 844.1,325.9 844.1,325.1 844.1,325.3 844.1,324.5 844.1,323.9 844.1,324.0 844.1,323.2 844.2,323.4 844.2,322.6 844.2,322.8 844.2,323.0 844.2,323.2 844.2,322.0 844.2,322.1 844.2,321.4 844.2,320.7 844.2,320.9 844.2,320.1 844.2,320.2 844.2,319.4 844.3,318.8 844.3,319.0 844.3,319.2 844.3,319.4 844.3,319.8 844.3,319.1 844.3,318.5 844.3,318.6 844.3,318.8 844.3,319.1 844.4,319.4 844.4,318.8 844.4,318.9 844.4,318.1 844.4,318.3 844.4,317.5 844.4,317.7 844.4,317.9 844.4,318.1 844.4,316.9 844.4,317.0 844.4,316.3 844.4,315.6 844.4,315.8 844.4,315.0 844.5,315.1 844.5,314.3 844.5,313.7 844.5,313.9 844.5,313.1 844.5,312.5 844.5,311.8 844.5,312.0 844.5,312.2 844.5,311.2 844.6,311.4 844.6,311.6 844.6,311.8 844.6,312.1 844.6,312.3 844.6,312.5 844.6,311.5 844.7,311.6 844.7,310.8 844.7,311.0 844.7,311.2 844.7,310.2 844.7,310.4 844.7,309.6 844.7,309.7 844.7,309.9 844.7,309.0 844.7,308.3 844.7,307.7 844.7,307.1 844.8,307.2 844.8,306.4 844.8,305.8 844.8,305.1 844.8,304.5 844.8,303.9 844.8,304.0 844.8,304.2 844.8,304.5 844.9,303.2 844.9,303.4 844.9,303.6 844.9,302.6 844.9,302.8 844.9,302.0 844.9,302.2 844.9,302.4 844.9,301.4 844.9,301.5 844.9,300.7 844.9,300.9 844.9,301.1 844.9,300.1 845.0,299.5 845.0,298.8 845.0,299.0 845.0,298.2 845.0,298.3 845.0,298.5 845.0,297.6 845.0,296.9 845.0,296.3 845.1,296.4 845.1,296.7 845.1,295.7 845.1,295.8 845.1,295.0 845.1,294.4 845.1,294.5 845.1,293.7 845.1,293.9 845.1,294.1 845.1,294.4 845.1,293.1 845.1,293.3 845.2,293.5 845.2,292.5 845.2,291.8 845.2,292.0 845.2,291.2 845.2,290.6 845.2,290.7 845.2,290.9 845.2,291.2 845.2,291.5 845.2,291.7 845.2,290.9 845.2,290.3 845.2,289.6 845.3,289.8 845.3,289.0 845.3,288.4 845.3,287.7 845.3,287.1 845.3,287.2 845.3,286.5 845.3,285.8 845.3,286.0 845.3,285.2 845.3,284.6 845.3,283.9 845.4,284.1 845.4,284.3 845.4,284.6 845.4,283.3 845.4,283.5 845.4,283.7 845.4,283.9 845.4,282.7 845.4,282.8 845.4,282.1 845.4,281.4 845.4,280.8 845.5,280.2 845.5,280.3 845.5,279.5 845.5,278.9 845.5,278.2 845.5,278.4 845.5,277.6 845.5,277.0 845.5,277.1 845.5,276.4 845.5,276.5 845.6,275.7 845.6,275.9 845.6,276.1 845.6,276.3 845.6,275.1 845.6,275.3 845.6,275.5 845.6,275.7 845.7,274.5 845.7,273.8 845.7,274.0 845.7,274.2 845.7,273.2 845.7,273.4 845.7,272.6 845.7,272.7 845.7,273.0 845.7,273.2 845.7,272.0 845.7,271.3 845.8,271.5 845.8,270.7 845.8,270.1 845.8,269.4 845.8,268.8 845.8,269.0 845.8,268.2 845.8,268.3 845.8,267.5 845.8,267.7 845.8,266.9 845.9,267.1 845.9,267.3 845.9,267.5 845.9,267.8 845.9,268.0 845.9,268.2 845.9,268.5 845.9,268.8 845.9,268.2 846.0,268.3 846.0,268.5 846.0,268.8 846.0,269.1 846.0,268.4 846.0,268.6 846.2,268.8 846.2,267.8 846.2,267.2 846.2,267.3 846.2,267.5 846.2,267.8 846.2,268.1 846.2,268.3 846.2,268.5 846.3,267.5 846.3,266.9 846.3,267.0 846.4,267.2 846.4,267.5 846.4,267.8 846.4,267.9 846.4,268.2 846.4,268.4 846.4,267.2 846.4,267.3 846.5,267.5 846.5,267.8 846.5,268.1 846.5,267.5 846.5,266.8 846.5,267.0 846.5,266.2 846.5,265.5 846.5,264.9 846.5,264.3 846.6,263.6 846.6,263.8 846.6,263.0 846.6,263.2 846.6,263.4 846.6,263.6 846.6,262.4 846.6,262.5 846.6,262.7 846.6,263.0 846.6,261.7 846.6,261.9 846.7,261.1 846.7,261.3 846.7,260.5 846.7,260.6 846.7,259.8 846.7,259.2 846.7,259.4 846.7,258.6 846.7,257.9 846.7,258.1 846.7,257.3 846.7,257.5 846.7,256.7 846.7,256.8 846.7,256.0 846.7,256.2 846.7,255.4 846.7,255.6 846.7,254.8 846.7,254.9 846.8,254.1 846.8,254.3 846.8,253.5 846.8,252.9 846.8,253.0 846.8,253.2 846.8,252.3 846.8,252.4 846.8,251.6 846.8,251.8 846.8,252.0 846.8,252.2 846.8,252.6 846.8,252.7 846.8,251.9 846.8,252.1 846.8,252.3 846.8,251.3 846.8,250.7 846.8,250.8 846.8,250.0 846.9,249.4 846.9,249.6 846.9,248.8 846.9,248.1 846.9,247.5 846.9,246.9 846.9,246.3 846.9,245.6 847.0,245.8 847.0,245.0 847.0,245.1 847.0,244.3 847.0,244.5 847.0,243.7 847.0,243.9 847.0,243.1 847.0,242.4 847.0,242.6 847.0,241.8 847.0,242.0 847.0,242.2 847.1,242.4 847.1,241.2 847.1,241.3 847.1,240.5 847.1,240.7 847.1,239.9 847.1,240.1 847.1,239.3 847.1,239.4 847.1,238.6 847.1,238.8 847.1,238.0 847.1,237.4 847.1,237.5 847.2,237.7 847.2,238.0 847.2,236.8 847.2,236.9 847.2,236.1 847.2,235.5 847.2,235.7 847.2,234.9 847.2,234.2 847.2,234.4 847.3,234.6 847.3,234.9 847.3,235.2 847.3,235.3 847.3,235.5 847.3,234.5 847.3,234.7 847.3,234.9 847.3,233.9 847.4,233.3 847.4,233.4 847.4,233.6 847.4,233.9 847.4,234.2 847.4,233.6 847.4,233.8 847.4,234.0 847.4,233.0 847.4,232.3 847.5,232.5 847.5,231.7 847.5,231.1 847.5,231.2 847.5,231.4 847.5,231.7 847.6,232.0 847.6,231.4 847.6,231.5 847.6,230.8 847.6,230.9 847.6,230.1 847.6,230.3 847.6,230.5 847.6,230.8 847.6,231.1 847.6,231.2 847.6,230.4 847.6,230.6 847.6,229.8 847.6,230.0 847.6,229.2 847.6,229.3 847.6,228.5 847.6,228.7 847.6,228.9 847.6,229.2 847.7,229.5 847.7,229.7 847.7,229.9 847.7,230.1 847.7,230.4 847.7,229.8 847.7,230.0 847.7,229.2 847.7,228.6 847.7,228.7 847.7,228.9 847.8,229.2 847.8,229.5 847.8,229.6 847.8,229.8 847.8,228.8 847.8,228.2 847.8,228.4 847.8,227.6 847.8,227.7 847.8,226.9 847.8,226.3 847.8,225.7 847.8,225.8 847.8,225.0 847.8,224.4 847.8,223.7 847.8,223.1 847.8,222.5 847.9,222.6 847.9,221.9 847.9,222.0 847.9,222.2 847.9,221.2 847.9,221.4 847.9,220.6 847.9,220.0 847.9,219.3 847.9,218.7 847.9,218.9 847.9,218.1 847.9,218.2 847.9,217.4 847.9,216.8 847.9,217.0 847.9,216.2 848.0,216.3 848.0,216.5 848.0,215.5 848.0,215.7 848.0,214.9 848.0,215.1 848.0,214.3 848.0,213.6 848.0,213.8 848.0,214.0 848.0,213.0 848.0,213.2 848.1,212.4 848.1,211.7 848.1,211.9 848.1,211.1 848.1,211.3 848.1,211.5 848.1,211.7 848.1,212.0 848.1,212.2 848.1,211.4 848.1,210.8 848.1,210.9 848.2,211.1 848.2,210.1 848.2,210.3 848.2,210.5 848.2,209.5 848.2,209.7 848.2,208.9 848.2,209.0 848.2,208.2 848.2,208.4 848.2,207.6 848.2,207.0 848.2,206.4 848.2,205.7 848.3,205.1 848.3,205.3 848.3,204.5 848.3,203.8 848.3,204.0 848.3,203.2 848.3,203.3 848.3,202.6 848.3,202.7 848.3,201.9 848.3,202.1 848.4,202.3 848.4,201.3 848.4,201.5 848.4,200.7 848.4,200.8 848.4,200.0 848.4,200.2 848.4,199.4 848.4,199.6 848.4,198.8 848.4,198.1 848.4,198.3 848.4,197.5 848.5,197.7 848.5,197.9 848.5,196.9 848.5,197.0 848.5,197.2 848.5,197.5 848.5,196.2 848.6,196.4 848.6,195.6 848.6,195.0 848.6,195.1 848.6,194.3 848.6,193.7 848.7,193.1 848.7,192.4 848.7,192.6 848.7,192.8 848.7,191.8 848.7,192.0 848.7,191.2 848.7,191.3 848.7,191.5 848.7,191.8 848.7,192.1 848.7,192.3 848.7,191.5 848.7,191.6 848.7,190.8 848.8,191.0 848.8,191.2 848.8,191.5 848.8,191.8 848.8,191.2 848.9,191.3 848.9,191.5 848.9,190.5 848.9,190.7 848.9,190.9 848.9,189.9 848.9,190.1 848.9,189.2 848.9,188.6 848.9,188.8 848.9,189.0 848.9,189.2 848.9,189.5 849.0,189.7 849.0,189.9 849.0,190.1 849.0,190.5 849.0,189.8 849.0,189.2 849.0,189.3 849.0,188.5 849.0,187.9 849.0,188.1 849.0,188.3 849.1,188.5 849.1,188.8 849.1,189.0 849.1,189.2 849.1,189.4 849.1,188.2 849.1,188.4 849.1,188.6 849.1,188.8 849.3,187.6 849.3,187.8 849.3,188.0 849.3,188.2 849.4,188.5 849.4,188.7 849.4,188.9 849.4,189.1 849.4,189.5 849.5,189.6 849.5,189.8 849.5,190.1 849.5,190.4 849.5,190.6 849.5,190.8 849.5,191.0 849.5,191.3 849.5,191.5 849.5,191.7 849.6,192.0 849.6,192.3 849.6,192.4 849.6,192.6 849.6,192.9 849.6,193.2 849.6,193.4 849.6,193.6 849.6,192.6 849.6,192.7 849.6,191.9 849.6,192.1 849.6,192.3 849.6,192.5 849.6,192.9 849.6,193.0 849.6,192.2 849.7,192.4 849.7,191.6 849.7,191.8 849.7,191.0 849.7,191.1 849.7,190.3 849.7,189.7 849.7,189.9 849.7,190.1 849.7,189.1 849.7,188.4 849.7,187.8 849.7,188.0 849.7,188.2 849.7,188.4 849.8,187.2 849.8,187.4 849.8,186.6 849.8,185.9 849.8,186.1 849.8,186.3 849.8,186.5 849.8,186.9 849.8,187.0 849.9,186.2 849.9,186.4 849.9,185.6 849.9,185.8 849.9,185.0 849.9,185.1 849.9,184.3 849.9,184.5 849.9,184.7 849.9,183.7 849.9,183.9 850.0,183.1 850.0,183.2 850.1,182.4 850.1,182.6 850.1,182.8 850.1,181.8 850.1,182.0 850.1,181.2 850.1,181.3 850.1,180.5 850.1,180.7 850.1,180.9 850.1,179.9 850.1,179.3 850.1,178.6 850.2,178.0 850.2,177.4 850.2,177.5 850.2,177.7 850.2,176.7 850.2,176.9 850.2,176.1 850.2,175.5 850.2,174.8 850.3,174.2 850.3,173.6 850.3,173.7 850.3,173.9 850.3,174.2 850.4,172.9 850.4,173.1 850.4,173.3 850.4,172.3 850.4,171.7 850.4,171.8 850.4,172.0 850.4,171.0 850.5,171.2 850.7,171.4 850.7,171.7 850.7,172.0 850.7,172.2 850.7,171.4 850.8,171.5 850.9,170.7 850.9,170.9 850.9,171.1 850.9,171.3 851.2,171.7 851.2,171.8 851.2,172.0 851.3,171.0 851.3,171.2 851.3,171.4 851.3,171.6 851.3,172.0 851.5,171.3 851.5,171.5 851.5,171.7 851.6,172.0 851.6,172.3 851.7,172.4 851.7,172.6 851.7,172.9 851.7,173.2 851.7,173.4 851.7,173.6 851.8,173.8 851.8,174.1 851.8,174.3 851.8,174.5 851.8,174.8 851.8,175.1 851.8,175.3 851.8,175.5 851.8,175.7 851.8,176.0 851.8,175.4 851.8,175.5 851.9,174.7 851.9,174.1 852.0,173.5 852.0,173.6 852.0,172.9 852.0,172.2 852.0,172.4 852.0,172.6 852.0,172.8 852.0,173.2 852.0,173.3 852.1,173.5 852.1,173.8 852.1,174.1 852.2,173.4 852.2,173.6 852.2,173.8 852.2,174.0 852.2,174.4 852.2,174.5 852.2,174.7 852.2,175.0 852.3,175.3 852.3,175.4 852.3,174.7 852.4,174.0 852.5,173.4 852.5,173.6 852.6,173.8 852.6,174.0 852.6,174.3 852.7,173.7 852.7,173.8 852.7,174.0 852.7,174.3 852.7,173.1 852.7,172.4 852.7,172.6 852.7,171.8 852.7,172.0 852.7,171.2 852.7,171.3 852.7,171.5 852.7,171.8 852.7,172.1 852.7,172.3 852.7,172.5 852.7,172.7 852.8,173.0 852.8,173.2 852.8,173.4 852.8,173.7 852.8,174.0 852.8,173.3 852.8,173.5 852.9,172.7 852.9,172.9 852.9,173.1 852.9,173.3 852.9,173.7 852.9,173.8 852.9,174.0 852.9,174.3 852.9,173.0 852.9,172.4 852.9,172.6 852.9,171.8 852.9,172.0 853.0,172.2 853.0,171.2 853.0,171.3 853.0,171.5 853.0,171.8 853.0,172.1 853.0,172.3 853.0,172.5 853.0,172.7 853.1,173.0 853.1,173.2 853.1,173.4 853.1,173.6 853.1,172.4 853.1,172.6 853.1,172.8 853.1,173.0 853.1,173.4 853.1,173.5 853.1,172.7 853.1,172.9 853.1,173.1 853.1,173.3 853.1,173.7 853.2,173.8 853.2,173.0 853.2,173.2 853.2,172.4 853.2,172.6 853.2,172.8 853.3,173.0 853.3,173.3 853.3,173.5 853.4,173.7 853.4,172.7 853.4,172.1 853.5,171.4 853.5,170.8 853.5,171.0 853.5,170.2 853.5,169.5 853.5,168.9 853.6,169.1 853.6,168.3 853.6,168.4 853.6,167.6 853.6,167.8 853.6,167.0 853.6,166.4 853.6,166.5 853.6,166.7 853.6,167.0 853.6,167.3 853.6,167.5 853.6,166.7 853.7,166.0 853.7,166.2 853.7,166.4 853.7,165.4 853.7,165.6 853.7,164.8 853.7,165.0 853.7,164.2 853.8,163.5 853.8,163.7 853.8,163.9 853.8,162.9 853.8,162.2 853.8,162.4 853.8,162.6 853.8,161.6 853.8,161.8 853.9,161.0 853.9,161.1 853.9,160.4 853.9,160.5 853.9,160.7 853.9,159.7 853.9,159.1 853.9,159.3 853.9,159.5 853.9,158.5 853.9,158.6 853.9,158.8 853.9,159.1 854.0,157.9 854.0,158.0 854.0,158.2 854.0,158.5 854.0,158.8 854.0,159.0 854.0,159.2 854.0,159.4 854.1,158.2 854.1,158.4 854.1,158.6 854.1,158.8 854.2,157.6 854.2,157.7 854.2,157.9 854.2,158.2 854.2,158.5 854.2,158.7 854.2,158.9 854.2,159.1 854.2,157.9 854.2,157.3 854.2,157.4 854.3,157.6 854.3,157.9 854.3,158.2 854.3,157.6 854.3,157.7 854.3,157.9 854.3,158.2 854.3,158.5 854.3,157.9 854.3,158.0 854.3,158.2 854.4,158.5 854.4,158.8 854.4,159.0 854.4,159.2 854.4,159.4 854.4,159.8 854.5,159.1 854.5,158.5 854.7,157.9 854.7,157.2 854.7,157.4 854.7,157.6 854.7,157.8 854.8,156.6 854.8,156.8 854.8,157.0 854.8,157.2 854.8,157.5 854.9,156.9 854.9,157.1 855.0,156.3 855.0,155.6 855.0,155.8 855.0,156.0 855.0,155.0 855.0,155.2 855.0,155.4 855.0,155.6 855.0,155.9 855.0,155.3 855.0,154.7 855.0,154.8 855.1,155.0 855.1,155.3 855.1,155.6 855.1,155.7 855.1,155.9 855.1,156.2 855.1,156.5 855.1,156.7 855.1,156.9 855.1,157.1 855.1,155.9 855.2,156.0 855.2,155.3 855.2,154.6 855.2,154.8 855.2,155.0 855.3,154.0 855.3,154.2 855.3,154.4 855.3,153.4 855.3,153.5 855.3,153.7 855.3,154.0 855.3,154.3 855.3,154.5 855.3,154.7 855.3,154.9 855.3,155.2 855.3,155.4 855.3,155.6 855.3,155.8 855.3,154.6 855.3,154.8 855.3,154.0 855.4,153.3 855.4,152.7 855.4,152.1 855.4,151.4 855.4,150.8 855.5,151.0 855.5,150.2 855.5,149.5 855.5,148.9 855.5,149.0 855.5,148.2 855.6,147.6 855.6,147.8 855.6,148.0 855.6,148.2 855.6,148.5 855.6,148.7 855.6,147.9 855.6,148.1 855.6,148.3 855.6,148.5 855.7,148.8 855.7,149.0 855.7,149.2 855.7,149.5 855.7,149.8 855.7,149.9 855.7,149.1 855.7,149.3 855.7,149.5 855.7,149.8 855.7,150.1 855.7,150.2 855.7,149.4 855.8,149.6 855.8,149.8 855.8,150.1 855.8,150.4 855.8,150.6 855.8,149.8 855.8,149.9 855.8,150.1 855.8,149.1 855.8,148.5 855.8,148.6 855.8,147.9 855.8,148.0 855.8,147.2 855.8,146.6 855.9,145.9 856.0,146.1 856.0,145.3 856.0,145.5 856.0,144.7 856.0,144.8 856.0,145.0 856.0,144.0 856.0,144.2 856.0,144.4 856.1,143.4 856.1,143.6 856.1,143.8 856.1,144.1 856.1,144.4 856.1,144.5 856.1,144.7 856.2,143.7 856.2,143.1 856.2,142.5 856.2,142.6 856.2,142.8 856.2,143.1 856.2,143.4 856.2,142.8 856.2,142.9 856.2,143.1 856.2,143.4 856.3,143.7 856.3,143.1 856.3,143.2 856.3,143.4 856.4,142.4 856.4,141.8 856.4,141.2 856.4,140.5 856.4,139.9 856.4,140.0 856.4,140.2 856.4,139.3 856.4,138.6 856.4,138.0 856.4,137.4 856.4,137.5 856.4,136.7 856.4,136.9 856.4,136.1 856.4,136.3 856.4,135.5 856.4,135.6 856.4,135.8 856.4,136.1 856.5,134.8 856.5,134.2 856.5,133.6 856.5,133.7 856.5,133.9 856.5,132.9 856.5,132.3 856.5,132.5 856.5,132.7 856.5,131.7 856.5,131.0 856.5,131.2 856.6,130.4 856.6,130.6 856.6,130.8 856.7,131.0 856.7,129.8 856.7,130.0 856.7,130.2 856.7,129.2 856.7,128.5 856.7,128.7 856.7,127.9 856.7,128.1 856.7,127.3 856.7,127.4 856.7,127.6 856.7,127.9 856.7,128.2 856.7,128.4 856.7,128.6 856.7,128.8 856.7,129.1 856.8,129.3 856.8,128.5 856.8,128.7 856.8,128.9 856.8,127.9 856.8,128.0 856.8,128.2 856.8,127.2 856.8,126.6 856.8,126.0 856.8,126.1 856.8,126.3 856.8,125.3 856.8,124.7 856.8,124.1 856.8,124.2 856.8,124.4 856.8,124.7 856.8,123.5 856.9,123.6 856.9,122.8 856.9,123.0 856.9,123.2 856.9,122.2 856.9,122.4 856.9,122.6 856.9,122.8 856.9,123.1 856.9,123.3 856.9,123.5 856.9,123.8 856.9,124.1 857.0,124.2 857.0,124.5 857.0,123.5 857.0,123.6 857.0,123.8 857.0,122.8 857.0,122.2 857.0,121.6 857.0,121.7 857.0,121.9 857.0,122.2 857.2,122.5 857.2,122.6 857.2,122.8 857.2,123.1 857.2,121.9 857.2,122.0 857.2,122.2 857.2,122.5 857.2,122.8 857.2,122.2 857.2,121.5 857.3,121.7 857.3,121.9 857.3,122.1 857.3,122.5 857.3,121.8 857.4,122.0 857.4,122.2 857.4,122.4 857.4,121.2 857.4,121.3 857.4,120.5 857.4,120.7 857.4,119.9 857.4,120.1 857.4,120.3 857.4,119.3 857.4,118.7 857.4,118.8 857.4,118.0 857.4,118.2 857.5,118.4 857.5,118.7 857.5,117.4 857.5,117.6 857.5,116.8 857.6,116.1 857.6,116.3 857.6,116.5 857.6,116.8 857.6,117.1 857.7,117.3 857.7,117.5 857.7,117.7 857.7,118.0 857.7,117.4 857.7,117.6 857.7,117.8 857.8,116.8 857.8,116.9 857.8,117.1 857.9,117.4 857.9,117.7 857.9,117.8 857.9,118.0 857.9,118.3 857.9,118.6 857.9,118.8 857.9,118.0 857.9,118.1 857.9,117.3 857.9,116.7 857.9,116.9 857.9,117.1 858.0,117.3 858.0,117.6 858.0,117.8 858.0,118.0 858.0,118.3 858.0,118.6 858.0,117.9 858.0,118.1 858.0,118.3 858.0,118.6 858.1,118.9 858.1,119.0 858.1,119.2 858.1,119.5 858.5,119.8 858.5,120.0 858.5,120.2 858.6,120.4 858.6,120.7 858.6,120.9 858.6,121.1 858.6,121.4 858.6,120.1 858.6,120.3 858.6,120.5 858.6,120.8 858.6,121.1 858.7,120.4 858.7,120.6 858.7,120.8 858.7,121.1 858.7,119.8 858.8,120.0 858.8,120.2 858.8,120.4 859.0,120.8 859.1,120.9 859.1,121.1 859.1,121.4 859.1,121.7 859.1,121.9 859.1,122.1 859.2,122.3 859.2,122.6 859.3,122.8 859.4,122.0 859.4,122.2 859.6,122.4 859.6,122.6 859.6,122.9 859.6,123.1 859.6,123.3 859.7,123.5 859.9,122.3 859.9,122.5 860.3,122.7 860.3,122.9 860.3,123.3 861.5,123.4 861.5,123.6 861.5,123.9 861.5,124.2 861.5,124.3 861.6,124.5 861.6,124.8 861.6,125.1 861.6,125.3 861.6,125.5 861.6,125.7 861.8,126.1 861.8,126.2 861.9,126.4 862.1,126.7 862.3,127.0 862.3,127.1 862.3,127.3 862.6,127.6 862.6,127.9 862.7,128.1 862.7,128.3 862.7,128.5 862.7,128.8 862.7,129.0 863.0,129.2 863.0,129.5 863.0,129.8 863.0,129.9 863.0,130.1 863.0,130.4 863.0,130.7 863.1,130.9 863.3,131.1 863.4,131.3 864.5,131.6 864.8,131.8 864.9,132.0 864.9,132.3 865.0,132.6 865.4,132.0 865.4,131.3 865.5,130.7 865.5,130.8 865.5,131.1 865.5,131.3 865.5,131.6 865.6,131.8 865.6,132.0 865.6,132.2 865.6,132.6 865.7,132.7 865.8,132.9 865.8,133.2 865.9,133.5 866.0,133.6 866.0,133.8 866.0,134.1 866.0,132.9 866.0,133.0 866.0,133.2 866.1,132.2 866.1,132.4 866.1,132.6 866.1,132.9 866.2,133.2 866.2,133.3 866.2,133.5 866.2,133.8 866.2,134.1 866.2,134.3 866.2,134.5 866.2,134.7 866.2,135.0 866.2,135.2 866.2,135.4 866.4,134.4 866.8,134.6 866.8,134.8 866.8,135.0 866.8,135.4 867.2,135.5 867.3,134.7 867.3,134.9 867.4,135.1 867.4,135.4 867.8,135.7 869.3,135.8 869.3,136.0 869.4,136.3 869.4,136.6 869.4,136.8 869.4,137.0 869.4,137.2 869.7,136.0 869.7,136.1 869.7,136.3 869.7,136.6 869.7,136.9 869.7,137.1 869.7,137.3 869.8,137.5 869.8,137.9 870.1,138.0 870.1,138.2 873.4,137.2 873.6,137.4 876.0,137.6 876.1,137.8 877.6,138.2 879.7,138.3 880.0,138.5 880.2,138.8 882.4,137.6 882.8,137.7 882.9,137.9 884.3,138.2 884.4,138.5 886.0,138.7 886.6,138.9 887.1,139.1 892.0,137.9 897.1,138.0 897.2,138.2 897.5,138.5 904.0,137.3 904.0,137.4 908.7,137.6 911.5,136.6 911.7,136.8 911.7,137.0 911.7,137.3 911.8,137.6 912.2,137.7 912.2,137.9 912.5,138.2 912.6,138.5 912.6,138.7 912.6,138.9 912.7,139.1 912.7,139.4 912.8,139.6 912.8,139.8 913.1,140.1 913.1,140.4 913.1,140.5 913.1,140.7 913.7,141.0 913.7,141.3 913.8,140.7 914.2,140.0 914.3,140.2 916.5,140.4 916.5,140.7 916.5,141.0 916.5,141.2 916.5,141.4 916.5,141.6 916.5,141.9 916.6,142.1 916.6,142.3 916.6,142.6 916.6,142.9 920.5,143.0 920.8,143.2 920.9,142.3 921.0,142.4 921.0,142.6 921.2,142.9 922.9,141.6 924.1,141.8 924.1,142.0 924.1,142.3 924.1,141.0 924.2,141.2 924.2,141.4 924.2,141.6 924.2,142.0 924.2,142.1 924.2,142.3 924.2,142.6 924.2,142.9 924.2,143.0 924.3,143.2 924.3,142.2 927.1,141.6 927.1,141.8 927.1,142.0 927.1,142.2 927.2,142.5 927.2,142.7 927.2,142.9 927.2,143.2 927.2,143.5 927.3,143.7 927.3,143.9 928.3,144.1 928.3,144.4 928.3,144.6 928.3,144.8 928.4,145.0 928.4,145.4 928.4,145.5 928.4,145.7 928.4,146.0 928.4,146.3 928.5,146.4 928.5,146.6 928.5,146.9 928.5,147.2 928.5,147.4 928.5,147.6 928.6,147.8 928.6,148.1 928.6,148.3 928.6,148.5 928.6,148.7 928.6,149.1 928.6,149.2 928.7,149.4 928.7,149.7 928.7,150.0 928.8,150.1 928.8,150.4 929.5,150.6 929.6,150.9 930.1,151.1 930.2,151.3 930.3,151.5 930.4,151.9 931.7,151.2 931.7,468.0" fill="#16a34a" fill-opacity="0.08"/>
  <polyline points="169.5,461.8 169.5,461.9 198.2,462.1 331.3,462.4 613.6,461.1 629.0,461.3 772.8,460.5 782.8,460.7 788.4,460.9 824.9,459.9 825.2,460.0 826.4,460.2 826.9,459.3 834.8,459.4 835.0,458.6 835.1,458.8 835.2,459.0 835.5,459.3 835.7,458.0 835.8,458.2 836.3,458.4 836.5,457.4 836.7,456.7 836.8,456.9 836.9,457.1 836.9,456.1 836.9,456.3 837.1,456.5 837.2,455.5 837.2,455.7 837.3,455.9 837.4,454.9 837.4,455.0 837.4,455.3 837.4,455.5 837.5,455.8 837.8,456.0 837.8,455.2 837.8,455.4 837.9,454.6 837.9,453.9 837.9,453.3 837.9,453.4 837.9,453.6 837.9,453.9 837.9,454.2 838.0,454.4 838.0,454.6 838.0,454.8 838.0,455.1 838.0,455.3 838.0,455.5 838.0,454.5 838.1,454.7 838.1,454.9 838.1,455.1 838.1,455.5 838.1,455.6 838.1,454.8 838.1,455.0 838.1,455.2 838.1,455.4 838.1,455.8 838.1,455.9 838.2,456.1 838.2,456.4 838.2,455.1 838.2,455.3 838.3,454.5 838.3,454.7 838.3,454.9 838.3,455.1 838.3,453.9 838.3,454.0 838.3,453.2 838.3,452.6 838.3,452.8 838.4,452.0 838.4,452.1 838.4,451.3 838.4,451.5 838.4,451.7 838.4,451.9 838.4,452.3 838.4,452.4 838.4,452.6 838.4,452.9 838.4,451.6 838.4,451.8 838.5,452.0 838.5,451.0 838.5,451.2 838.5,450.4 838.5,450.5 838.5,450.7 838.5,449.8 838.5,449.9 838.5,449.1 838.6,449.3 838.6,449.5 838.6,448.5 838.6,448.7 838.6,447.9 838.6,448.0 838.6,447.2 838.6,446.6 838.6,446.7 838.6,446.9 838.6,447.2 838.6,447.5 838.6,447.7 838.6,446.9 838.6,447.0 838.7,446.2 838.7,446.4 838.7,445.6 838.7,445.0 838.7,445.1 838.7,445.3 838.7,445.6 838.7,445.9 838.7,445.3 838.7,444.7 838.7,444.8 838.8,444.0 838.8,444.2 838.8,444.4 838.8,444.6 838.8,444.9 838.8,444.3 838.8,444.5 838.8,444.7 838.8,443.7 838.8,443.9 838.8,444.1 838.8,444.3 838.8,444.6 838.8,444.8 838.8,444.0 838.8,443.4 838.8,443.5 838.8,442.7 838.9,442.1 838.9,442.2 838.9,441.4 838.9,441.6 838.9,440.8 838.9,440.2 838.9,440.3 838.9,440.5 838.9,440.8 838.9,441.1 838.9,441.3 838.9,441.5 838.9,441.7 838.9,442.0 838.9,442.2 838.9,441.4 838.9,441.6 838.9,441.8 838.9,442.0 838.9,442.3 839.0,442.5 839.0,442.7 839.0,441.7 839.0,441.9 839.0,441.1 839.0,440.5 839.0,439.8 839.0,440.0 839.0,440.2 839.0,440.5 839.0,440.8 839.0,440.1 839.0,439.5 839.0,439.7 839.0,438.9 839.0,439.0 839.0,439.2 839.1,439.5 839.1,439.8 839.1,439.2 839.1,439.3 839.1,438.6 839.1,437.9 839.1,437.3 839.1,436.7 839.1,436.8 839.1,437.0 839.1,437.3 839.1,436.0 839.1,436.2 839.1,435.4 839.1,435.6 839.1,435.8 839.1,434.8 839.1,435.0 839.1,434.2 839.1,433.5 839.1,433.7 839.1,432.9 839.1,433.1 839.1,433.3 839.1,432.3 839.1,431.6 839.1,431.8 839.1,431.0 839.1,431.2 839.1,431.4 839.1,430.4 839.1,430.6 839.1,430.8 839.1,431.0 839.1,429.8 839.2,429.9 839.2,430.1 839.2,430.4 839.2,430.7 839.2,430.9 839.2,430.1 839.2,429.4 839.2,429.6 839.2,428.8 839.2,428.2 839.2,427.5 839.2,426.9 839.2,427.1 839.2,427.3 839.2,426.3 839.2,426.4 839.2,425.6 839.2,425.8 839.2,425.0 839.2,424.4 839.2,424.5 839.2,423.7 839.3,423.9 839.3,424.1 839.3,424.4 839.3,424.7 839.3,424.0 839.3,423.4 839.3,422.8 839.3,422.9 839.4,422.2 839.4,422.3 839.4,421.5 839.4,421.7 839.4,420.9 839.4,420.3 839.5,420.4 839.5,419.6 839.7,419.0 839.7,419.1 839.7,418.4 839.7,418.5 839.8,418.7 839.8,419.0 839.8,419.3 839.8,419.5 839.8,419.7 839.8,419.9 839.8,418.7 839.8,418.0 839.8,417.4 839.9,417.6 839.9,417.8 839.9,418.0 839.9,418.3 839.9,418.5 839.9,418.7 839.9,419.0 839.9,419.3 839.9,419.4 839.9,418.6 839.9,418.8 839.9,419.0 839.9,418.0 839.9,417.4 839.9,416.8 840.0,416.1 840.0,415.5 840.0,414.8 840.0,415.0 840.0,415.2 840.0,414.2 840.0,413.6 840.0,412.9 840.0,412.3 840.0,411.7 840.0,411.0 840.0,411.2 840.0,410.4 840.0,409.8 840.0,409.1 840.0,409.3 840.0,408.5 840.1,407.9 840.1,408.0 840.1,408.2 840.1,408.5 840.1,408.8 840.1,409.0 840.1,408.2 840.1,407.5 840.2,406.9 840.2,406.3 840.2,406.4 840.2,406.6 840.2,406.9 840.2,407.2 840.2,407.4 840.3,407.6 840.3,406.6 840.3,405.9 840.3,406.1 840.3,406.3 840.3,405.3 840.3,405.5 840.3,404.7 840.3,404.8 840.3,404.0 840.3,404.2 840.3,404.4 840.3,403.4 840.3,403.6 840.3,402.8 840.4,402.9 840.4,402.1 840.4,402.3 840.4,401.5 840.4,401.7 840.4,400.9 840.4,401.0 840.4,401.2 840.4,400.2 840.4,399.6 840.4,399.8 840.4,399.0 840.4,399.1 840.4,398.3 840.4,398.5 840.4,397.7 840.4,397.1 840.5,396.4 840.5,395.8 840.5,395.2 840.5,395.3 840.5,394.5 840.5,394.7 840.5,393.9 840.5,394.0 840.5,394.2 840.5,394.5 840.5,393.3 840.5,392.6 840.5,392.8 840.5,392.0 840.5,391.4 840.6,390.7 840.6,390.9 840.6,391.1 840.6,391.3 840.6,391.7 840.6,391.8 840.6,391.0 840.6,391.2 840.6,390.4 840.6,390.6 840.6,389.8 840.6,389.9 840.6,389.2 840.6,388.5 840.6,387.9 840.6,387.3 840.7,387.4 840.7,386.6 840.7,386.0 840.7,385.3 840.8,384.7 840.8,384.9 840.9,385.1 840.9,385.3 840.9,385.6 840.9,385.8 840.9,385.0 840.9,384.4 840.9,384.5 840.9,383.8 840.9,383.9 840.9,383.1 840.9,383.3 840.9,382.5 840.9,382.7 841.0,381.9 841.0,381.2 841.0,381.4 841.0,380.6 841.0,380.7 841.0,379.9 841.0,379.3 841.0,378.7 841.0,378.0 841.1,378.2 841.1,378.4 841.1,377.4 841.1,376.8 841.1,376.9 841.1,377.1 841.1,377.4 841.1,377.7 841.1,377.1 841.1,377.2 841.1,376.5 841.1,376.6 841.1,375.8 841.1,375.2 841.1,374.5 841.1,373.9 841.1,374.1 841.1,373.3 841.1,372.6 841.2,372.0 841.2,371.4 841.2,371.5 841.2,371.7 841.2,372.0 841.2,372.3 841.3,372.4 841.3,372.6 841.3,372.9 841.3,373.2 841.3,372.6 841.3,372.8 841.3,372.0 841.3,372.1 841.3,372.3 841.3,371.3 841.3,371.5 841.3,371.7 841.5,372.0 841.5,372.3 841.5,372.5 841.5,372.7 841.5,372.9 841.5,373.2 841.5,373.4 841.5,372.6 841.5,372.8 841.5,373.0 841.5,372.0 841.5,372.1 841.5,371.4 841.5,371.5 841.5,370.7 841.5,370.9 841.5,371.1 841.6,371.3 841.6,370.1 841.6,370.3 841.6,369.5 841.6,368.8 841.6,369.0 841.6,369.2 841.6,368.2 841.6,368.4 841.6,368.6 841.6,367.6 841.6,367.8 841.6,368.0 841.6,367.0 841.7,367.1 841.7,367.3 841.7,366.3 841.7,366.5 841.7,365.7 841.7,365.9 841.7,365.1 841.7,365.2 841.7,364.4 841.7,364.6 841.7,363.8 841.7,363.2 841.7,363.4 841.7,362.6 841.7,361.9 841.7,361.3 841.7,360.7 841.7,360.0 841.7,360.2 841.7,359.4 841.8,359.5 841.8,358.8 841.8,358.9 841.8,358.1 841.8,358.3 841.8,358.5 841.8,357.5 841.8,357.7 841.9,357.9 841.9,356.9 841.9,356.2 841.9,356.4 841.9,355.6 841.9,355.8 841.9,356.0 842.0,356.2 842.0,356.5 842.0,355.9 842.1,356.0 842.1,356.2 842.1,355.3 842.1,355.4 842.1,354.6 842.1,354.0 842.1,353.4 842.2,352.7 842.2,352.1 842.2,352.3 842.2,351.5 842.2,350.8 842.2,350.2 842.2,349.5 842.2,348.9 842.3,348.3 842.3,348.4 842.3,347.6 842.3,347.8 842.3,348.0 842.3,348.3 842.3,348.6 842.3,347.9 842.4,348.1 842.4,347.3 842.5,346.6 842.5,346.0 842.5,346.2 842.5,345.4 842.5,345.5 842.5,344.7 842.5,344.1 842.5,344.3 842.5,344.5 842.5,343.5 842.5,342.8 842.5,343.0 842.5,342.2 842.6,341.6 842.6,341.7 842.6,341.9 842.6,340.9 842.6,341.1 842.6,341.3 842.6,340.3 842.6,340.5 842.6,339.7 842.6,339.8 842.6,339.1 842.6,339.2 842.6,338.4 842.6,338.6 842.6,338.8 842.6,339.1 842.7,339.4 842.8,339.5 842.8,338.7 842.8,338.1 842.8,338.3 842.8,337.5 842.8,337.6 842.8,337.9 842.8,338.1 842.8,338.4 842.8,338.6 842.8,338.8 842.8,337.8 842.9,337.2 842.9,337.3 842.9,337.5 842.9,337.8 842.9,338.1 842.9,338.3 843.0,338.5 843.0,338.7 843.0,339.1 843.0,338.4 843.0,338.6 843.0,338.8 843.1,339.0 843.1,337.8 843.1,338.0 843.1,337.2 843.1,337.3 843.1,336.5 843.1,335.9 843.1,336.1 843.1,336.3 843.2,335.3 843.2,334.6 843.2,334.0 843.2,333.4 843.2,333.5 843.2,333.7 843.2,334.0 843.2,334.3 843.2,334.5 843.2,334.7 843.2,334.9 843.3,335.3 843.3,334.6 843.3,334.8 843.3,335.0 843.3,334.0 843.3,334.2 843.3,334.4 843.3,334.6 843.3,335.0 843.3,335.1 843.3,335.3 843.3,335.6 843.6,334.3 843.6,333.7 843.6,333.1 843.6,332.4 843.6,331.8 843.7,331.2 843.8,331.3 843.8,331.5 843.9,331.8 843.9,332.1 843.9,332.3 844.0,331.5 844.0,330.8 844.0,330.2 844.0,329.6 844.0,328.9 844.1,329.1 844.1,329.3 844.1,328.3 844.1,328.5 844.1,328.7 844.1,327.7 844.1,327.8 844.1,327.0 844.1,326.4 844.1,326.5 844.1,326.7 844.1,327.0 844.1,325.7 844.1,325.9 844.1,325.1 844.1,325.3 844.1,324.5 844.1,323.9 844.1,324.0 844.1,323.2 844.2,323.4 844.2,322.6 844.2,322.8 844.2,323.0 844.2,323.2 844.2,322.0 844.2,322.1 844.2,321.4 844.2,320.7 844.2,320.9 844.2,320.1 844.2,320.2 844.2,319.4 844.3,318.8 844.3,319.0 844.3,319.2 844.3,319.4 844.3,319.8 844.3,319.1 844.3,318.5 844.3,318.6 844.3,318.8 844.3,319.1 844.4,319.4 844.4,318.8 844.4,318.9 844.4,318.1 844.4,318.3 844.4,317.5 844.4,317.7 844.4,317.9 844.4,318.1 844.4,316.9 844.4,317.0 844.4,316.3 844.4,315.6 844.4,315.8 844.4,315.0 844.5,315.1 844.5,314.3 844.5,313.7 844.5,313.9 844.5,313.1 844.5,312.5 844.5,311.8 844.5,312.0 844.5,312.2 844.5,311.2 844.6,311.4 844.6,311.6 844.6,311.8 844.6,312.1 844.6,312.3 844.6,312.5 844.6,311.5 844.7,311.6 844.7,310.8 844.7,311.0 844.7,311.2 844.7,310.2 844.7,310.4 844.7,309.6 844.7,309.7 844.7,309.9 844.7,309.0 844.7,308.3 844.7,307.7 844.7,307.1 844.8,307.2 844.8,306.4 844.8,305.8 844.8,305.1 844.8,304.5 844.8,303.9 844.8,304.0 844.8,304.2 844.8,304.5 844.9,303.2 844.9,303.4 844.9,303.6 844.9,302.6 844.9,302.8 844.9,302.0 844.9,302.2 844.9,302.4 844.9,301.4 844.9,301.5 844.9,300.7 844.9,300.9 844.9,301.1 844.9,300.1 845.0,299.5 845.0,298.8 845.0,299.0 845.0,298.2 845.0,298.3 845.0,298.5 845.0,297.6 845.0,296.9 845.0,296.3 845.1,296.4 845.1,296.7 845.1,295.7 845.1,295.8 845.1,295.0 845.1,294.4 845.1,294.5 845.1,293.7 845.1,293.9 845.1,294.1 845.1,294.4 845.1,293.1 845.1,293.3 845.2,293.5 845.2,292.5 845.2,291.8 845.2,292.0 845.2,291.2 845.2,290.6 845.2,290.7 845.2,290.9 845.2,291.2 845.2,291.5 845.2,291.7 845.2,290.9 845.2,290.3 845.2,289.6 845.3,289.8 845.3,289.0 845.3,288.4 845.3,287.7 845.3,287.1 845.3,287.2 845.3,286.5 845.3,285.8 845.3,286.0 845.3,285.2 845.3,284.6 845.3,283.9 845.4,284.1 845.4,284.3 845.4,284.6 845.4,283.3 845.4,283.5 845.4,283.7 845.4,283.9 845.4,282.7 845.4,282.8 845.4,282.1 845.4,281.4 845.4,280.8 845.5,280.2 845.5,280.3 845.5,279.5 845.5,278.9 845.5,278.2 845.5,278.4 845.5,277.6 845.5,277.0 845.5,277.1 845.5,276.4 845.5,276.5 845.6,275.7 845.6,275.9 845.6,276.1 845.6,276.3 845.6,275.1 845.6,275.3 845.6,275.5 845.6,275.7 845.7,274.5 845.7,273.8 845.7,274.0 845.7,274.2 845.7,273.2 845.7,273.4 845.7,272.6 845.7,272.7 845.7,273.0 845.7,273.2 845.7,272.0 845.7,271.3 845.8,271.5 845.8,270.7 845.8,270.1 845.8,269.4 845.8,268.8 845.8,269.0 845.8,268.2 845.8,268.3 845.8,267.5 845.8,267.7 845.8,266.9 845.9,267.1 845.9,267.3 845.9,267.5 845.9,267.8 845.9,268.0 845.9,268.2 845.9,268.5 845.9,268.8 845.9,268.2 846.0,268.3 846.0,268.5 846.0,268.8 846.0,269.1 846.0,268.4 846.0,268.6 846.2,268.8 846.2,267.8 846.2,267.2 846.2,267.3 846.2,267.5 846.2,267.8 846.2,268.1 846.2,268.3 846.2,268.5 846.3,267.5 846.3,266.9 846.3,267.0 846.4,267.2 846.4,267.5 846.4,267.8 846.4,267.9 846.4,268.2 846.4,268.4 846.4,267.2 846.4,267.3 846.5,267.5 846.5,267.8 846.5,268.1 846.5,267.5 846.5,266.8 846.5,267.0 846.5,266.2 846.5,265.5 846.5,264.9 846.5,264.3 846.6,263.6 846.6,263.8 846.6,263.0 846.6,263.2 846.6,263.4 846.6,263.6 846.6,262.4 846.6,262.5 846.6,262.7 846.6,263.0 846.6,261.7 846.6,261.9 846.7,261.1 846.7,261.3 846.7,260.5 846.7,260.6 846.7,259.8 846.7,259.2 846.7,259.4 846.7,258.6 846.7,257.9 846.7,258.1 846.7,257.3 846.7,257.5 846.7,256.7 846.7,256.8 846.7,256.0 846.7,256.2 846.7,255.4 846.7,255.6 846.7,254.8 846.7,254.9 846.8,254.1 846.8,254.3 846.8,253.5 846.8,252.9 846.8,253.0 846.8,253.2 846.8,252.3 846.8,252.4 846.8,251.6 846.8,251.8 846.8,252.0 846.8,252.2 846.8,252.6 846.8,252.7 846.8,251.9 846.8,252.1 846.8,252.3 846.8,251.3 846.8,250.7 846.8,250.8 846.8,250.0 846.9,249.4 846.9,249.6 846.9,248.8 846.9,248.1 846.9,247.5 846.9,246.9 846.9,246.3 846.9,245.6 847.0,245.8 847.0,245.0 847.0,245.1 847.0,244.3 847.0,244.5 847.0,243.7 847.0,243.9 847.0,243.1 847.0,242.4 847.0,242.6 847.0,241.8 847.0,242.0 847.0,242.2 847.1,242.4 847.1,241.2 847.1,241.3 847.1,240.5 847.1,240.7 847.1,239.9 847.1,240.1 847.1,239.3 847.1,239.4 847.1,238.6 847.1,238.8 847.1,238.0 847.1,237.4 847.1,237.5 847.2,237.7 847.2,238.0 847.2,236.8 847.2,236.9 847.2,236.1 847.2,235.5 847.2,235.7 847.2,234.9 847.2,234.2 847.2,234.4 847.3,234.6 847.3,234.9 847.3,235.2 847.3,235.3 847.3,235.5 847.3,234.5 847.3,234.7 847.3,234.9 847.3,233.9 847.4,233.3 847.4,233.4 847.4,233.6 847.4,233.9 847.4,234.2 847.4,233.6 847.4,233.8 847.4,234.0 847.4,233.0 847.4,232.3 847.5,232.5 847.5,231.7 847.5,231.1 847.5,231.2 847.5,231.4 847.5,231.7 847.6,232.0 847.6,231.4 847.6,231.5 847.6,230.8 847.6,230.9 847.6,230.1 847.6,230.3 847.6,230.5 847.6,230.8 847.6,231.1 847.6,231.2 847.6,230.4 847.6,230.6 847.6,229.8 847.6,230.0 847.6,229.2 847.6,229.3 847.6,228.5 847.6,228.7 847.6,228.9 847.6,229.2 847.7,229.5 847.7,229.7 847.7,229.9 847.7,230.1 847.7,230.4 847.7,229.8 847.7,230.0 847.7,229.2 847.7,228.6 847.7,228.7 847.7,228.9 847.8,229.2 847.8,229.5 847.8,229.6 847.8,229.8 847.8,228.8 847.8,228.2 847.8,228.4 847.8,227.6 847.8,227.7 847.8,226.9 847.8,226.3 847.8,225.7 847.8,225.8 847.8,225.0 847.8,224.4 847.8,223.7 847.8,223.1 847.8,222.5 847.9,222.6 847.9,221.9 847.9,222.0 847.9,222.2 847.9,221.2 847.9,221.4 847.9,220.6 847.9,220.0 847.9,219.3 847.9,218.7 847.9,218.9 847.9,218.1 847.9,218.2 847.9,217.4 847.9,216.8 847.9,217.0 847.9,216.2 848.0,216.3 848.0,216.5 848.0,215.5 848.0,215.7 848.0,214.9 848.0,215.1 848.0,214.3 848.0,213.6 848.0,213.8 848.0,214.0 848.0,213.0 848.0,213.2 848.1,212.4 848.1,211.7 848.1,211.9 848.1,211.1 848.1,211.3 848.1,211.5 848.1,211.7 848.1,212.0 848.1,212.2 848.1,211.4 848.1,210.8 848.1,210.9 848.2,211.1 848.2,210.1 848.2,210.3 848.2,210.5 848.2,209.5 848.2,209.7 848.2,208.9 848.2,209.0 848.2,208.2 848.2,208.4 848.2,207.6 848.2,207.0 848.2,206.4 848.2,205.7 848.3,205.1 848.3,205.3 848.3,204.5 848.3,203.8 848.3,204.0 848.3,203.2 848.3,203.3 848.3,202.6 848.3,202.7 848.3,201.9 848.3,202.1 848.4,202.3 848.4,201.3 848.4,201.5 848.4,200.7 848.4,200.8 848.4,200.0 848.4,200.2 848.4,199.4 848.4,199.6 848.4,198.8 848.4,198.1 848.4,198.3 848.4,197.5 848.5,197.7 848.5,197.9 848.5,196.9 848.5,197.0 848.5,197.2 848.5,197.5 848.5,196.2 848.6,196.4 848.6,195.6 848.6,195.0 848.6,195.1 848.6,194.3 848.6,193.7 848.7,193.1 848.7,192.4 848.7,192.6 848.7,192.8 848.7,191.8 848.7,192.0 848.7,191.2 848.7,191.3 848.7,191.5 848.7,191.8 848.7,192.1 848.7,192.3 848.7,191.5 848.7,191.6 848.7,190.8 848.8,191.0 848.8,191.2 848.8,191.5 848.8,191.8 848.8,191.2 848.9,191.3 848.9,191.5 848.9,190.5 848.9,190.7 848.9,190.9 848.9,189.9 848.9,190.1 848.9,189.2 848.9,188.6 848.9,188.8 848.9,189.0 848.9,189.2 848.9,189.5 849.0,189.7 849.0,189.9 849.0,190.1 849.0,190.5 849.0,189.8 849.0,189.2 849.0,189.3 849.0,188.5 849.0,187.9 849.0,188.1 849.0,188.3 849.1,188.5 849.1,188.8 849.1,189.0 849.1,189.2 849.1,189.4 849.1,188.2 849.1,188.4 849.1,188.6 849.1,188.8 849.3,187.6 849.3,187.8 849.3,188.0 849.3,188.2 849.4,188.5 849.4,188.7 849.4,188.9 849.4,189.1 849.4,189.5 849.5,189.6 849.5,189.8 849.5,190.1 849.5,190.4 849.5,190.6 849.5,190.8 849.5,191.0 849.5,191.3 849.5,191.5 849.5,191.7 849.6,192.0 849.6,192.3 849.6,192.4 849.6,192.6 849.6,192.9 849.6,193.2 849.6,193.4 849.6,193.6 849.6,192.6 849.6,192.7 849.6,191.9 849.6,192.1 849.6,192.3 849.6,192.5 849.6,192.9 849.6,193.0 849.6,192.2 849.7,192.4 849.7,191.6 849.7,191.8 849.7,191.0 849.7,191.1 849.7,190.3 849.7,189.7 849.7,189.9 849.7,190.1 849.7,189.1 849.7,188.4 849.7,187.8 849.7,188.0 849.7,188.2 849.7,188.4 849.8,187.2 849.8,187.4 849.8,186.6 849.8,185.9 849.8,186.1 849.8,186.3 849.8,186.5 849.8,186.9 849.8,187.0 849.9,186.2 849.9,186.4 849.9,185.6 849.9,185.8 849.9,185.0 849.9,185.1 849.9,184.3 849.9,184.5 849.9,184.7 849.9,183.7 849.9,183.9 850.0,183.1 850.0,183.2 850.1,182.4 850.1,182.6 850.1,182.8 850.1,181.8 850.1,182.0 850.1,181.2 850.1,181.3 850.1,180.5 850.1,180.7 850.1,180.9 850.1,179.9 850.1,179.3 850.1,178.6 850.2,178.0 850.2,177.4 850.2,177.5 850.2,177.7 850.2,176.7 850.2,176.9 850.2,176.1 850.2,175.5 850.2,174.8 850.3,174.2 850.3,173.6 850.3,173.7 850.3,173.9 850.3,174.2 850.4,172.9 850.4,173.1 850.4,173.3 850.4,172.3 850.4,171.7 850.4,171.8 850.4,172.0 850.4,171.0 850.5,171.2 850.7,171.4 850.7,171.7 850.7,172.0 850.7,172.2 850.7,171.4 850.8,171.5 850.9,170.7 850.9,170.9 850.9,171.1 850.9,171.3 851.2,171.7 851.2,171.8 851.2,172.0 851.3,171.0 851.3,171.2 851.3,171.4 851.3,171.6 851.3,172.0 851.5,171.3 851.5,171.5 851.5,171.7 851.6,172.0 851.6,172.3 851.7,172.4 851.7,172.6 851.7,172.9 851.7,173.2 851.7,173.4 851.7,173.6 851.8,173.8 851.8,174.1 851.8,174.3 851.8,174.5 851.8,174.8 851.8,175.1 851.8,175.3 851.8,175.5 851.8,175.7 851.8,176.0 851.8,175.4 851.8,175.5 851.9,174.7 851.9,174.1 852.0,173.5 852.0,173.6 852.0,172.9 852.0,172.2 852.0,172.4 852.0,172.6 852.0,172.8 852.0,173.2 852.0,173.3 852.1,173.5 852.1,173.8 852.1,174.1 852.2,173.4 852.2,173.6 852.2,173.8 852.2,174.0 852.2,174.4 852.2,174.5 852.2,174.7 852.2,175.0 852.3,175.3 852.3,175.4 852.3,174.7 852.4,174.0 852.5,173.4 852.5,173.6 852.6,173.8 852.6,174.0 852.6,174.3 852.7,173.7 852.7,173.8 852.7,174.0 852.7,174.3 852.7,173.1 852.7,172.4 852.7,172.6 852.7,171.8 852.7,172.0 852.7,171.2 852.7,171.3 852.7,171.5 852.7,171.8 852.7,172.1 852.7,172.3 852.7,172.5 852.7,172.7 852.8,173.0 852.8,173.2 852.8,173.4 852.8,173.7 852.8,174.0 852.8,173.3 852.8,173.5 852.9,172.7 852.9,172.9 852.9,173.1 852.9,173.3 852.9,173.7 852.9,173.8 852.9,174.0 852.9,174.3 852.9,173.0 852.9,172.4 852.9,172.6 852.9,171.8 852.9,172.0 853.0,172.2 853.0,171.2 853.0,171.3 853.0,171.5 853.0,171.8 853.0,172.1 853.0,172.3 853.0,172.5 853.0,172.7 853.1,173.0 853.1,173.2 853.1,173.4 853.1,173.6 853.1,172.4 853.1,172.6 853.1,172.8 853.1,173.0 853.1,173.4 853.1,173.5 853.1,172.7 853.1,172.9 853.1,173.1 853.1,173.3 853.1,173.7 853.2,173.8 853.2,173.0 853.2,173.2 853.2,172.4 853.2,172.6 853.2,172.8 853.3,173.0 853.3,173.3 853.3,173.5 853.4,173.7 853.4,172.7 853.4,172.1 853.5,171.4 853.5,170.8 853.5,171.0 853.5,170.2 853.5,169.5 853.5,168.9 853.6,169.1 853.6,168.3 853.6,168.4 853.6,167.6 853.6,167.8 853.6,167.0 853.6,166.4 853.6,166.5 853.6,166.7 853.6,167.0 853.6,167.3 853.6,167.5 853.6,166.7 853.7,166.0 853.7,166.2 853.7,166.4 853.7,165.4 853.7,165.6 853.7,164.8 853.7,165.0 853.7,164.2 853.8,163.5 853.8,163.7 853.8,163.9 853.8,162.9 853.8,162.2 853.8,162.4 853.8,162.6 853.8,161.6 853.8,161.8 853.9,161.0 853.9,161.1 853.9,160.4 853.9,160.5 853.9,160.7 853.9,159.7 853.9,159.1 853.9,159.3 853.9,159.5 853.9,158.5 853.9,158.6 853.9,158.8 853.9,159.1 854.0,157.9 854.0,158.0 854.0,158.2 854.0,158.5 854.0,158.8 854.0,159.0 854.0,159.2 854.0,159.4 854.1,158.2 854.1,158.4 854.1,158.6 854.1,158.8 854.2,157.6 854.2,157.7 854.2,157.9 854.2,158.2 854.2,158.5 854.2,158.7 854.2,158.9 854.2,159.1 854.2,157.9 854.2,157.3 854.2,157.4 854.3,157.6 854.3,157.9 854.3,158.2 854.3,157.6 854.3,157.7 854.3,157.9 854.3,158.2 854.3,158.5 854.3,157.9 854.3,158.0 854.3,158.2 854.4,158.5 854.4,158.8 854.4,159.0 854.4,159.2 854.4,159.4 854.4,159.8 854.5,159.1 854.5,158.5 854.7,157.9 854.7,157.2 854.7,157.4 854.7,157.6 854.7,157.8 854.8,156.6 854.8,156.8 854.8,157.0 854.8,157.2 854.8,157.5 854.9,156.9 854.9,157.1 855.0,156.3 855.0,155.6 855.0,155.8 855.0,156.0 855.0,155.0 855.0,155.2 855.0,155.4 855.0,155.6 855.0,155.9 855.0,155.3 855.0,154.7 855.0,154.8 855.1,155.0 855.1,155.3 855.1,155.6 855.1,155.7 855.1,155.9 855.1,156.2 855.1,156.5 855.1,156.7 855.1,156.9 855.1,157.1 855.1,155.9 855.2,156.0 855.2,155.3 855.2,154.6 855.2,154.8 855.2,155.0 855.3,154.0 855.3,154.2 855.3,154.4 855.3,153.4 855.3,153.5 855.3,153.7 855.3,154.0 855.3,154.3 855.3,154.5 855.3,154.7 855.3,154.9 855.3,155.2 855.3,155.4 855.3,155.6 855.3,155.8 855.3,154.6 855.3,154.8 855.3,154.0 855.4,153.3 855.4,152.7 855.4,152.1 855.4,151.4 855.4,150.8 855.5,151.0 855.5,150.2 855.5,149.5 855.5,148.9 855.5,149.0 855.5,148.2 855.6,147.6 855.6,147.8 855.6,148.0 855.6,148.2 855.6,148.5 855.6,148.7 855.6,147.9 855.6,148.1 855.6,148.3 855.6,148.5 855.7,148.8 855.7,149.0 855.7,149.2 855.7,149.5 855.7,149.8 855.7,149.9 855.7,149.1 855.7,149.3 855.7,149.5 855.7,149.8 855.7,150.1 855.7,150.2 855.7,149.4 855.8,149.6 855.8,149.8 855.8,150.1 855.8,150.4 855.8,150.6 855.8,149.8 855.8,149.9 855.8,150.1 855.8,149.1 855.8,148.5 855.8,148.6 855.8,147.9 855.8,148.0 855.8,147.2 855.8,146.6 855.9,145.9 856.0,146.1 856.0,145.3 856.0,145.5 856.0,144.7 856.0,144.8 856.0,145.0 856.0,144.0 856.0,144.2 856.0,144.4 856.1,143.4 856.1,143.6 856.1,143.8 856.1,144.1 856.1,144.4 856.1,144.5 856.1,144.7 856.2,143.7 856.2,143.1 856.2,142.5 856.2,142.6 856.2,142.8 856.2,143.1 856.2,143.4 856.2,142.8 856.2,142.9 856.2,143.1 856.2,143.4 856.3,143.7 856.3,143.1 856.3,143.2 856.3,143.4 856.4,142.4 856.4,141.8 856.4,141.2 856.4,140.5 856.4,139.9 856.4,140.0 856.4,140.2 856.4,139.3 856.4,138.6 856.4,138.0 856.4,137.4 856.4,137.5 856.4,136.7 856.4,136.9 856.4,136.1 856.4,136.3 856.4,135.5 856.4,135.6 856.4,135.8 856.4,136.1 856.5,134.8 856.5,134.2 856.5,133.6 856.5,133.7 856.5,133.9 856.5,132.9 856.5,132.3 856.5,132.5 856.5,132.7 856.5,131.7 856.5,131.0 856.5,131.2 856.6,130.4 856.6,130.6 856.6,130.8 856.7,131.0 856.7,129.8 856.7,130.0 856.7,130.2 856.7,129.2 856.7,128.5 856.7,128.7 856.7,127.9 856.7,128.1 856.7,127.3 856.7,127.4 856.7,127.6 856.7,127.9 856.7,128.2 856.7,128.4 856.7,128.6 856.7,128.8 856.7,129.1 856.8,129.3 856.8,128.5 856.8,128.7 856.8,128.9 856.8,127.9 856.8,128.0 856.8,128.2 856.8,127.2 856.8,126.6 856.8,126.0 856.8,126.1 856.8,126.3 856.8,125.3 856.8,124.7 856.8,124.1 856.8,124.2 856.8,124.4 856.8,124.7 856.8,123.5 856.9,123.6 856.9,122.8 856.9,123.0 856.9,123.2 856.9,122.2 856.9,122.4 856.9,122.6 856.9,122.8 856.9,123.1 856.9,123.3 856.9,123.5 856.9,123.8 856.9,124.1 857.0,124.2 857.0,124.5 857.0,123.5 857.0,123.6 857.0,123.8 857.0,122.8 857.0,122.2 857.0,121.6 857.0,121.7 857.0,121.9 857.0,122.2 857.2,122.5 857.2,122.6 857.2,122.8 857.2,123.1 857.2,121.9 857.2,122.0 857.2,122.2 857.2,122.5 857.2,122.8 857.2,122.2 857.2,121.5 857.3,121.7 857.3,121.9 857.3,122.1 857.3,122.5 857.3,121.8 857.4,122.0 857.4,122.2 857.4,122.4 857.4,121.2 857.4,121.3 857.4,120.5 857.4,120.7 857.4,119.9 857.4,120.1 857.4,120.3 857.4,119.3 857.4,118.7 857.4,118.8 857.4,118.0 857.4,118.2 857.5,118.4 857.5,118.7 857.5,117.4 857.5,117.6 857.5,116.8 857.6,116.1 857.6,116.3 857.6,116.5 857.6,116.8 857.6,117.1 857.7,117.3 857.7,117.5 857.7,117.7 857.7,118.0 857.7,117.4 857.7,117.6 857.7,117.8 857.8,116.8 857.8,116.9 857.8,117.1 857.9,117.4 857.9,117.7 857.9,117.8 857.9,118.0 857.9,118.3 857.9,118.6 857.9,118.8 857.9,118.0 857.9,118.1 857.9,117.3 857.9,116.7 857.9,116.9 857.9,117.1 858.0,117.3 858.0,117.6 858.0,117.8 858.0,118.0 858.0,118.3 858.0,118.6 858.0,117.9 858.0,118.1 858.0,118.3 858.0,118.6 858.1,118.9 858.1,119.0 858.1,119.2 858.1,119.5 858.5,119.8 858.5,120.0 858.5,120.2 858.6,120.4 858.6,120.7 858.6,120.9 858.6,121.1 858.6,121.4 858.6,120.1 858.6,120.3 858.6,120.5 858.6,120.8 858.6,121.1 858.7,120.4 858.7,120.6 858.7,120.8 858.7,121.1 858.7,119.8 858.8,120.0 858.8,120.2 858.8,120.4 859.0,120.8 859.1,120.9 859.1,121.1 859.1,121.4 859.1,121.7 859.1,121.9 859.1,122.1 859.2,122.3 859.2,122.6 859.3,122.8 859.4,122.0 859.4,122.2 859.6,122.4 859.6,122.6 859.6,122.9 859.6,123.1 859.6,123.3 859.7,123.5 859.9,122.3 859.9,122.5 860.3,122.7 860.3,122.9 860.3,123.3 861.5,123.4 861.5,123.6 861.5,123.9 861.5,124.2 861.5,124.3 861.6,124.5 861.6,124.8 861.6,125.1 861.6,125.3 861.6,125.5 861.6,125.7 861.8,126.1 861.8,126.2 861.9,126.4 862.1,126.7 862.3,127.0 862.3,127.1 862.3,127.3 862.6,127.6 862.6,127.9 862.7,128.1 862.7,128.3 862.7,128.5 862.7,128.8 862.7,129.0 863.0,129.2 863.0,129.5 863.0,129.8 863.0,129.9 863.0,130.1 863.0,130.4 863.0,130.7 863.1,130.9 863.3,131.1 863.4,131.3 864.5,131.6 864.8,131.8 864.9,132.0 864.9,132.3 865.0,132.6 865.4,132.0 865.4,131.3 865.5,130.7 865.5,130.8 865.5,131.1 865.5,131.3 865.5,131.6 865.6,131.8 865.6,132.0 865.6,132.2 865.6,132.6 865.7,132.7 865.8,132.9 865.8,133.2 865.9,133.5 866.0,133.6 866.0,133.8 866.0,134.1 866.0,132.9 866.0,133.0 866.0,133.2 866.1,132.2 866.1,132.4 866.1,132.6 866.1,132.9 866.2,133.2 866.2,133.3 866.2,133.5 866.2,133.8 866.2,134.1 866.2,134.3 866.2,134.5 866.2,134.7 866.2,135.0 866.2,135.2 866.2,135.4 866.4,134.4 866.8,134.6 866.8,134.8 866.8,135.0 866.8,135.4 867.2,135.5 867.3,134.7 867.3,134.9 867.4,135.1 867.4,135.4 867.8,135.7 869.3,135.8 869.3,136.0 869.4,136.3 869.4,136.6 869.4,136.8 869.4,137.0 869.4,137.2 869.7,136.0 869.7,136.1 869.7,136.3 869.7,136.6 869.7,136.9 869.7,137.1 869.7,137.3 869.8,137.5 869.8,137.9 870.1,138.0 870.1,138.2 873.4,137.2 873.6,137.4 876.0,137.6 876.1,137.8 877.6,138.2 879.7,138.3 880.0,138.5 880.2,138.8 882.4,137.6 882.8,137.7 882.9,137.9 884.3,138.2 884.4,138.5 886.0,138.7 886.6,138.9 887.1,139.1 892.0,137.9 897.1,138.0 897.2,138.2 897.5,138.5 904.0,137.3 904.0,137.4 908.7,137.6 911.5,136.6 911.7,136.8 911.7,137.0 911.7,137.3 911.8,137.6 912.2,137.7 912.2,137.9 912.5,138.2 912.6,138.5 912.6,138.7 912.6,138.9 912.7,139.1 912.7,139.4 912.8,139.6 912.8,139.8 913.1,140.1 913.1,140.4 913.1,140.5 913.1,140.7 913.7,141.0 913.7,141.3 913.8,140.7 914.2,140.0 914.3,140.2 916.5,140.4 916.5,140.7 916.5,141.0 916.5,141.2 916.5,141.4 916.5,141.6 916.5,141.9 916.6,142.1 916.6,142.3 916.6,142.6 916.6,142.9 920.5,143.0 920.8,143.2 920.9,142.3 921.0,142.4 921.0,142.6 921.2,142.9 922.9,141.6 924.1,141.8 924.1,142.0 924.1,142.3 924.1,141.0 924.2,141.2 924.2,141.4 924.2,141.6 924.2,142.0 924.2,142.1 924.2,142.3 924.2,142.6 924.2,142.9 924.2,143.0 924.3,143.2 924.3,142.2 927.1,141.6 927.1,141.8 927.1,142.0 927.1,142.2 927.2,142.5 927.2,142.7 927.2,142.9 927.2,143.2 927.2,143.5 927.3,143.7 927.3,143.9 928.3,144.1 928.3,144.4 928.3,144.6 928.3,144.8 928.4,145.0 928.4,145.4 928.4,145.5 928.4,145.7 928.4,146.0 928.4,146.3 928.5,146.4 928.5,146.6 928.5,146.9 928.5,147.2 928.5,147.4 928.5,147.6 928.6,147.8 928.6,148.1 928.6,148.3 928.6,148.5 928.6,148.7 928.6,149.1 928.6,149.2 928.7,149.4 928.7,149.7 928.7,150.0 928.8,150.1 928.8,150.4 929.5,150.6 929.6,150.9 930.1,151.1 930.2,151.3 930.3,151.5 930.4,151.9 931.7,151.2" fill="none" stroke="#16a34a" stroke-width="2" stroke-linejoin="round"/>
  <line x1="88" y1="102" x2="110" y2="102" stroke="#16a34a" stroke-width="2.5"/><text x="116" y="106" font-size="11.5" fill="#374151">equity</text><line x1="88" y1="118" x2="110" y2="118" stroke="#d97706" stroke-width="2.5" opacity="0.8"/><text x="116" y="122" font-size="11.5" fill="#374151">price</text>
  <text x="78" y="502" text-anchor="start" font-size="12" fill="#6b7280">2025-10-10</text><text x="934" y="502" text-anchor="end" font-size="12" fill="#6b7280">2025-10-10</text>
</svg>
