<svg xmlns="http://www.w3.org/2000/svg" width="1000" height="520" font-family="ui-sans-serif, system-ui, sans-serif" viewBox="0 0 1000 520"><rect width="1000" height="520" fill="#fff"/><text x="78" y="28" fill="#111827" font-size="18" font-weight="700">Zone Recovery — PHBUSDT best setting (equity / PnL)</text><text x="78" y="48" fill="#6b7280" font-size="12.5">lev 2 · ratio 2 · gap 20% · maxSteps 4 · maxDD 20% · random · vip 9 · 1 series, 100.0% win · vol $707819 ($25279/day) · fees $108.30</text><text x="78" y="68" fill="#1d4ed8" font-size="12.5" font-weight="600">USDT · BNB −10% · taker 0.0153%</text><text x="934" y="28" fill="#16a34a" font-size="18" font-weight="700" text-anchor="end">+32814 USDT (+0.03%)</text><line x1="78" x2="934" y1="468" y2="468" stroke="#e5e7eb" stroke-width="1"/><text x="68" y="472" fill="#6b7280" font-size="12" text-anchor="end">0.00</text><line x1="78" x2="934" y1="392" y2="392" stroke="#e5e7eb" stroke-width="1"/><text x="68" y="396" fill="#6b7280" font-size="12" text-anchor="end">21607088</text><line x1="78" x2="934" y1="316" y2="316" stroke="#e5e7eb" stroke-width="1"/><text x="68" y="320" fill="#6b7280" font-size="12" text-anchor="end">43214175</text><line x1="78" x2="934" y1="240" y2="240" stroke="#e5e7eb" stroke-width="1"/><text x="68" y="244" fill="#6b7280" font-size="12" text-anchor="end">64821263</text><line x1="78" x2="934" y1="164" y2="164" stroke="#e5e7eb" stroke-width="1"/><text x="68" y="168" fill="#6b7280" font-size="12" text-anchor="end">86428351</text><line x1="78" x2="934" y1="88" y2="88" stroke="#e5e7eb" stroke-width="1"/><text x="68" y="92" fill="#6b7280" font-size="12" text-anchor="end">108035439</text><line x1="78" x2="934" y1="116.3" y2="116.3" stroke="#9ca3af" stroke-dasharray="6 4" stroke-width="1.5"/><text x="934" y="110.3" fill="#6b7280" font-size="11" text-anchor="end">start 100000000</text><polyline fill="none" stroke="#d97706" stroke-linejoin="round" stroke-width="1.2" points="78 158 78.1 154.6 78.2 150.7 78.4 148.7 78.6 150.2 78.8 153.6 79.1 151.6 79.3 150.2 79.5 155.6 79.7 157.1 80 151.6 80.3 151.2 80.5 146.7 80.7 145.2 80.9 143.3 81.2 145.7 81.5 139.8 81.7 139.3 81.9 140.3 82.1 139.3 82.3 138.8 82.6 142.8 83 136.9 83.3 134.9 83.6 133.9 83.9 131.9 84.2 128.5 84.5 129 84.7 125.5 84.9 119.1 85.2 123.6 85.4 123.1 85.7 118.6 85.9 117.7 86.3 118.6 86.6 122.1 86.9 122.1 87.1 124.6 87.2 125.5 87.6 124.6 87.8 120.1 88.1 116.7 88.3 122.1 88.4 122.1 88.4 121.1 88.5 118.6 88.5 122.6 88.7 120.1 89 116.2 89.3 119.6 89.7 121.6 90 124.1 90.4 124.1 90.6 131.9 90.8 128.5 91 127.5 91.3 133.4 91.5 140.8 91.7 145.7 91.9 150.7 92.1 147.2 92.3 147.2 92.7 147.7 92.9 142.8 93.2 146.7 93.6 147.2 93.9 151.2 94.2 146.2 94.6 149.7 94.8 142.8 95 141.3 95.3 137.4 95.7 140.8 95.9 143.8 96.2 148.2 96.4 152.6 96.6 157.1 96.8 147.7 96.9 139.3 97.1 146.7 97.3 153.6 97.5 158.5 97.6 162 97.6 162.5 97.7 166.4 97.8 164.5 97.9 171.8 98 168.9 98.2 162.5 98.3 160 98.5 168.9 98.6 164.9 98.7 162.5 98.9 175.8 98.9 170.9 99 171.3 99.1 173.8 99.3 177.8 99.4 179.7 99.6 175.8 99.7 171.3 99.9 170.4 100.1 176.8 100.3 179.2 100.5 178.7 100.8 174.8 101 166.4 101 158 101.1 156.1 101.3 154.6 101.4 156.1 101.6 159 101.9 165.9 102.1 168.4 102.3 165.9 102.6 169.9 102.8 164 103 164.9 103.2 171.8 103.5 171.3 103.6 178.2 103.7 176.8 103.9 178.7 104.1 184.2 104.3 171.8 104.5 175.8 104.8 174.8 105 179.2 105.1 178.7 105.5 182.7 105.7 181.2 105.8 183.2 105.9 185.1 106.1 185.1 106.2 183.7 106.4 175.8 106.6 183.2 106.9 175.8 107.1 178.2 107.4 185.6 107.4 196 107.5 201.9 107.6 192 107.7 193 107.7 197 107.8 185.1 108 185.6 108.1 177.8 108.3 180.7 108.4 185.6 108.6 193 108.7 191.5 108.8 182.7 109 180.2 109.1 174.3 109.3 175.8 109.4 172.3 109.7 174.8 109.9 177.3 110 184.2 110.2 191.1 110.3 171.8 110.5 167.4 110.7 170.9 110.9 176.8 111.2 174.8 111.4 182.2 111.5 181.2 111.8 179.7 112.1 179.2 112.3 183.2 112.5 188.6 112.7 190.6 112.8 194 112.9 209.8 113 203.9 113.1 209.8 113.2 211.3 113.3 210.8 113.4 195 113.5 186.1 113.5 180.2 113.6 178.2 113.7 186.6 113.9 195.5 114.1 187.1 114.3 176.8 114.4 173.3 114.6 180.2 114.8 185.1 115.1 190.1 115.3 198.4 115.5 191.1 115.6 198 115.8 198.4 116 191.1 116.2 193 116.4 195.5 116.6 189.1 116.8 195.5 117 205.3 117.1 201.9 117.1 173.8 117.2 178.2 117.4 185.6 117.5 183.7 117.7 179.2 117.9 187.6 118.1 185.6 118.3 184.2 118.5 180.2 118.7 184.7 118.9 182.7 119.1 178.7 119.3 179.7 119.6 175.3 119.8 172.8 120.1 180.7 120.2 179.2 120.3 180.2 120.4 180.2 120.5 173.3 120.6 172.8 120.7 168.9 120.7 167.4 120.8 164.9 120.9 170.9 121 167.9 121.1 164.5 121.2 167.9 121.3 165.4 121.4 162 121.5 160 121.7 160 121.8 160.5 122 160.5 122.2 163.5 122.5 164 122.7 163.5 122.9 164.5 123.1 160 123.4 161 123.6 162 123.8 164 124 161.5 124.2 159 124.3 159.5 124.4 158 124.7 157.6 124.9 157.6 125.2 151.6 125.3 158 125.5 160 125.8 157.1 126.1 156.1 126.4 152.6 126.6 155.6 126.8 158 127 153.1 127.1 148.2 127.2 144.7 127.3 142.8 127.5 148.2 127.7 149.7 127.8 153.6 128 150.2 128.2 141.8 128.3 140.3 128.5 132.9 128.7 138.3 128.9 139.3 129.2 137.9 129.3 133.9 129.4 133.9 129.6 134.4 129.8 139.3 130.1 137.9 130.3 136.4 130.5 135.4 130.7 135.9 131 138.3 131.3 141.8 131.6 143.3 131.9 146.2 132.2 141.8 132.5 142.3 132.8 140.3 133.2 144.3 133.5 146.7 133.9 149.2 134.1 152.1 134.4 152.1 134.7 152.6 134.9 155.6 135.2 156.1 135.4 151.2 135.8 153.1 136.1 156.1 136.5 155.1 136.7 157.6 137.1 159 137.5 157.1 137.8 157.1 138.1 156.1 138.5 163.5 138.9 162.5 139.1 165.9 139.3 169.9 139.6 164.9 140 165.9 140.4 163 140.6 163.5 140.9 169.4 141.1 168.9 141.3 168.9 141.6 167.4 141.9 169.4 142.1 172.8 142.4 178.7 142.7 178.7 142.8 179.2 143 181.2 143.1 178.7 143.3 180.2 143.5 182.7 143.7 174.3 144 171.8 144.2 166.4 144.4 169.9 144.7 168.4 145 167.9 145.3 162 145.6 164 145.9 165.9 146.1 164 146.5 160 146.7 164.9 146.9 170.9 147.1 173.3 147.4 168.4 147.6 163.5 148 161.5 148.3 162.5 148.8 163 149.1 161 149.4 162 149.6 164 150 160.5 150.3 156.6 150.6 162.5 150.9 167.9 151 168.9 151.3 172.3 151.6 165.9 152 164.5 152.3 165.9 152.7 169.9 153 172.3 153.3 172.8 153.6 174.8 153.9 169.4 154.3 169.9 154.6 168.4 155 166.9 155.2 158.5 155.5 157.6 155.8 161.5 156.1 162.5 156.5 163 156.9 160.5 157.3 160.5 157.6 162 157.8 166.9 158 167.9 158.1 174.8 158.3 181.2 158.4 170.4 158.6 173.3 158.8 173.3 158.9 160 159 159 159.2 164.9 159.3 153.1 159.5 153.6 159.6 158.5 159.8 165.4 159.9 169.4 160.1 172.8 160.2 177.3 160.4 172.8 160.6 172.8 160.9 171.8 161.1 178.7 161.3 177.8 161.6 180.7 161.8 190.6 161.9 187.1 162 187.6 162.2 181.7 162.3 186.1 162.5 193.5 162.6 194 162.7 199.9 162.8 196 163 200.9 163.1 205.3 163.3 202.9 163.4 206.8 163.5 196 163.6 181.2 163.7 178.2 163.8 174.8 163.9 177.3 164.1 164.9 164.2 166.9 164.4 169.9 164.6 171.3 164.8 181.2 165 172.3 165.2 166.9 165.3 151.6 165.3 149.7 165.4 148.7 165.4 145.7 165.5 144.3 165.6 148.7 165.8 147.2 165.9 146.2 166.1 143.8 166.2 146.7 166.4 147.7 166.5 151.6 166.5 151.2 166.8 154.1 167.2 157.6 167.5 161.5 167.7 163.5 168.1 164 168.2 172.3 168.5 170.9 168.6 175.3 168.9 175.3 169.2 177.3 169.4 179.7 169.6 181.7 169.9 181.2 170.1 178.7 170.4 173.3 170.8 169.9 171 167.4 171.2 162.5 171.5 162 171.8 162 172.2 164.9 172.5 165.4 173 168.9 173.3 169.9 173.7 167.9 174.1 163.5 174.5 157.6 174.8 161.5 175.3 161 175.8 163 176.4 162 177.1 162.5 177.5 163.5 177.9 167.4 178.3 163.5 178.8 167.4 179.1 163.5 179.3 162 179.6 161 180 163 180.2 163 180.6 164 181 159.5 181.4 163.5 182 168.9 182.6 166.9 183.1 166.4 183.6 169.4 183.9 181.2 184.1 179.2 184.5 174.3 184.8 173.3 185.2 172.3 185.7 175.8 186.3 176.8 186.7 179.7 187 182.7 187.3 190.6 187.5 190.6 187.7 187.1 188 186.6 188.2 190.6 188.3 183.7 188.5 190.1 188.7 194.5 188.9 200.4 189 198.9 189.1 188.6 189.3 193.5 189.4 194 189.6 209.8 189.7 198.4 189.8 202.4 190 199.4 190.2 197 190.4 194.5 190.5 203.9 190.7 202.9 190.8 210.3 191 208.3 191.2 206.3 191.3 201.4 191.5 203.9 191.6 207.3 191.8 204.8 192 212.7 192.1 206.3 192.2 212.7 192.4 210.3 192.5 208.3 192.7 207.3 192.8 203.4 192.9 208.8 193.1 209.8 193.2 217.2 193.3 202.9 193.4 204.4 193.5 198.4 193.6 191.5 193.8 197 194 196 194.2 197 194.4 200.4 194.7 196 194.9 188.6 195.1 185.6 195.2 182.7 195.4 183.2 195.5 183.2 195.7 184.2 196 186.6 196.3 186.1 196.6 183.7 196.9 187.6 197.3 189.1 197.5 193.5 197.7 190.1 197.9 201.9 198.1 194.5 198.3 180.7 198.5 187.1 198.7 191.5 198.9 193.5 199 199.4 199 197.5 199.2 197 199.4 191.5 199.7 185.6 199.9 186.6 200.2 191.1 200.5 195 200.7 190.6 201 195.5 201.2 192 201.6 192.5 201.8 185.1 202 199.4 202.2 184.2 202.4 183.2 202.5 191.1 202.7 195 203 197.5 203.2 198.4 203.4 195 203.7 190.6 203.9 199.9 204.1 198 204.3 198 204.5 200.4 204.8 199.4 205.1 202.4 205.4 203.4 205.6 198.9 205.8 202.9 206 205.3 206.1 207.3 206.4 201.9 206.7 205.3 206.9 208.3 207.1 209.8 207.3 208.3 207.4 202.9 207.7 204.8 207.9 208.3 208.1 215.2 208.3 213.7 208.5 213.2 208.8 210.8 208.9 217.7 209.2 212.7 209.3 207.3 209.6 209.3 209.8 202.9 210 206.3 210.3 208.8 210.5 208.3 210.7 205.3 210.9 203.4 211.1 201.4 211.3 198 211.5 198 211.8 199.9 211.9 193.5 212.1 195 212.3 196.5 212.5 194.5 212.7 197 213 197.5 213.3 202.4 213.6 200.4 213.9 207.8 214.1 210.8 214.2 222.1 214.3 216.2 214.6 220.6 214.7 222.6 214.8 228.5 214.9 231.4 215 231.9 215.1 225 215.3 222.1 215.5 224.1 215.7 222.1 215.9 228 216 228.5 216.2 227 216.4 230 216.5 231.9 216.7 234.9 216.9 232.9 217 230.5 217.3 231.9 217.5 234.4 217.7 234.4 218 232.9 218.1 227 218.4 232.9 218.6 229.5 218.8 221.6 219 216.2 219.2 219.6 219.3 228.5 219.5 232.4 219.6 240.8 219.6 240.8 219.7 254.1 219.7 252.1 219.8 247.2 219.9 258.5 219.9 271.3 219.9 266.9 220 265.4 220 274.3 220.1 271.8 220.1 276.3 220.2 274.8 220.2 276.8 220.2 266.9 220.3 264.9 220.3 260.5 220.4 264.9 220.5 252.6 220.5 250.7 220.6 261 220.7 262.5 220.8 267.4 220.9 266.9 221 268.9 221 263.5 221.2 264.5 221.2 255.1 221.3 256.1 221.5 258.5 221.7 267.9 221.8 253.1 221.9 260.5 222 264.5 222.1 269.4 222.2 272.8 222.3 277.8 222.4 284.2 222.4 281.7 222.5 268.9 222.6 266.9 222.6 280.7 222.7 274.8 222.9 275.3 223 278.2 223.1 279.7 223.2 282.2 223.3 280.7 223.3 281.7 223.5 281.7 223.6 289.1 223.7 292.5 223.7 286.6 223.9 287.1 224 289.1 224.1 289.1 224.3 287.6 224.4 279.7 224.6 285.6 224.7 287.1 224.8 288.6 224.8 292.5 225 292.5 225.2 290.6 225.3 287.6 225.6 291.1 225.7 292.5 225.9 293 226.1 301.4 226.1 311.3 226.2 309.3 226.2 320.6 226.3 319.6 226.3 328 226.3 315.2 226.4 319.1 226.5 318.6 226.5 314.7 226.5 324.1 226.6 312.2 226.6 307.3 226.7 309.8 226.7 310.3 226.8 318.6 226.9 324.1 227 318.6 227.1 310.8 227.1 304.8 227.2 303.4 227.3 311.3 227.4 316.7 227.5 313.7 227.6 313.2 227.7 307.8 228 310.8 228.2 318.1 228.3 315.2 228.4 312.7 228.5 306.3 228.7 324.1 228.8 321.6 228.9 317.2 229 309.3 229.2 310.3 229.3 311.3 229.5 309.3 229.7 296 229.8 294 230 302.4 230.2 302.4 230.4 312.7 230.6 310.3 230.8 317.7 230.9 330 231 333.4 231 339.3 231.1 341.3 231.1 342.8 231.1 363.5 231.2 379.2 231.2 381.2 231.2 388.6 231.2 377.8 231.2 381.7 231.2 362.5 231.2 360 231.3 376.3 231.3 377.3 231.3 386.1 231.3 386.1 231.3 371.3 231.3 373.3 231.4 366.4 231.4 367.9 231.4 369.4 231.4 369.4 231.5 363.5 231.5 361.5 231.5 356.6 231.5 348.2 231.6 350.2 231.6 341.3 231.6 336.9 231.6 334.4 231.7 328.5 231.7 319.6 231.7 322.6 231.8 321.6 231.8 321.6 231.8 315.7 231.9 321.1 231.9 328 231.9 319.6 232 321.1 232 318.6 232.1 322.1 232.1 322.1 232.2 322.6 232.2 327.5 232.2 323.1 232.3 324.1 232.3 325.5 232.3 317.7 232.4 317.2 232.4 318.1 232.4 319.1 232.5 319.1 232.5 315.7 232.6 317.7 232.6 321.1 232.6 320.6 232.7 321.6 232.7 321.1 232.8 319.6 232.8 316.7 232.8 318.1 232.9 316.7 232.9 316.2 233 317.2 233 318.1 233.1 316.2 233.1 312.7 233.2 309.3 233.2 310.8 233.3 310.3 233.3 309.3 233.3 307.3 233.4 308.8 233.4 306.8 233.5 301.4 233.5 304.4 233.5 304.8 233.6 303.9 233.6 307.3 233.7 312.2 233.7 314.2 233.8 313.7 233.8 312.2 233.9 319.6 233.9 323.6 234 322.6 234 320.1 234.1 320.1 234.1 317.7 234.1 315.2 234.2 313.7 234.2 314.7 234.3 316.7 234.3 315.7 234.4 319.6 234.4 321.1 234.5 321.1 234.6 323.1 234.6 323.6 234.7 321.6 234.7 319.1 234.7 317.7 234.8 315.2 234.8 319.1 234.9 319.1 234.9 324.1 235 323.1 235 321.1 235.1 316.7 235.4 310.8 235.5 312.7 235.8 314.7 236 311.3 236.1 316.2 236.3 312.7 236.5 305.3 236.7 305.8 237 307.3 237.2 305.8 237.3 302.9 237.5 302.4 237.6 301.4 237.8 298.9 238 296 238.2 297 238.4 290.1 238.5 288.1 238.6 287.1 238.8 289.6 239 293 239.3 297.5 239.5 301.9 239.7 300.9 239.9 304.4 240 307.3 240.3 303.9 240.5 294 240.6 294 240.8 296 241.1 297.5 241.2 295 241.4 300.4 241.5 298.4 241.7 303.9 242 303.9 242.2 299.9 242.5 302.4 242.6 301.9 242.8 294.5 243 288.6 243.1 287.1 243.3 286.1 243.4 281.2 243.6 283.2 243.8 285.1 244 281.2 244.3 280.7 244.4 279.2 244.6 277.8 244.9 276.3 245.1 275.8 245.3 277.3 245.6 272.8 245.9 273.8 246.2 274.8 246.5 274.3 246.7 276.8 246.9 275.3 247.1 276.3 247.5 275.3 247.7 271.3 247.8 267.9 248 264.9 248.3 262.5 248.5 261 248.7 261.5 248.8 263.5 249 264 249.2 270.4 249.4 266.4 249.5 256.1 249.6 254.1 249.7 250.2 249.7 253.6 249.8 253.1 250 255.6 250.1 258.5 250.3 258.5 250.5 251.6 250.7 255.1 250.8 252.1 250.9 246.2 251.1 242.3 251.1 240.3 251.3 241.3 251.5 239.3 251.6 242.8 251.8 239.8 251.9 234.9 252.1 236.9 252.2 236.4 252.4 233.9 252.6 234.9 252.7 230.5 252.9 228 253.1 224.6 253.3 222.1 253.4 222.6 253.6 227 253.8 232.4 254 243.3 254.2 240.3 254.3 246.2 254.5 238.8 254.6 238.3 254.8 236.4 255.1 238.8 255.4 243.8 255.6 242.8 255.8 240.8 256 240.3 256.4 236.9 256.7 246.2 257 244.7 257.2 242.3 257.6 244.3 257.9 244.3 258.3 244.7 258.9 243.3 259.2 241.8 259.5 236.4 259.9 236.4 260.2 235.9 260.5 238.3 260.8 239.8 261.2 237.4 261.5 239.3 261.8 240.8 262.1 247.2 262.2 247.2 262.4 247.2 262.7 250.2 262.8 249.2 262.9 248.2 263.1 249.7 263.5 246.2 263.8 245.7 264.2 247.2 264.8 240.8 265.1 237.9 265.5 234.9 266 235.4 266.5 236.9 266.7 236.4 267 231 267.2 233.9 267.5 238.3 267.9 235.9 268.4 236.4 268.8 240.8 269.4 242.3 269.5 241.3 270.1 246.2 270.3 255.6 270.5 259.5 270.6 261.5 270.7 273.8 270.8 264.9 271.1 264 271.3 259.5 271.7 266.4 272 267.9 272.4 262.5 272.7 260.5 273.2 257.6 273.5 262 273.8 266.4 274.3 266.9 274.6 264 275.2 264.9 275.6 261.5 276.2 261.5 276.6 261 276.9 251.2 277.1 243.8 277.3 242.8 277.5 235.9 277.6 238.8 277.9 244.7 278.1 242.3 278.5 242.8 278.9 245.7 279.3 244.7 279.7 245.7 280.1 255.1 280.5 256.1 280.8 251.2 281.2 241.3 281.5 243.3 281.9 243.3 281.9 233.4 282 236.4 282.1 237.9 282.1 236.4 282.2 229.5 282.3 239.3 282.5 238.3 282.9 236.9 283.3 239.3 283.7 236.4 284.2 237.4 284.7 236.9 285 231 285.3 227 285.7 230 286.1 228.5 286.5 228.5 286.9 230 287.4 233.4 287.9 231 288.2 234.4 288.6 233.4 289 229 289.4 234.9 289.8 238.8 290.3 239.8 290.7 235.4 291 242.3 291.3 242.3 291.8 240.3 292.2 240.8 292.7 245.2 293.3 245.7 293.7 242.8 294.3 246.7 294.9 246.2 295.3 251.2 295.9 248.2 296.3 252.1 297 256.6 297.5 256.1 298.2 255.6 298.8 254.1 299.3 259.5 299.9 259.5 300.4 259.5 300.9 259.5 301.4 264.5 301.6 259.5 301.8 261 302.3 255.6 302.7 256.6 303 251.2 303.3 254.6 303.6 250.2 303.9 248.7 304.5 257.1 304.9 254.6 305.5 262 305.9 258.5 306.3 255.6 306.6 252.1 306.8 245.2 307.2 246.7 307.6 249.7 308.1 250.7 308.6 248.7 309.1 248.7 309.4 250.2 310 250.7 310.5 248.7 311 248.7 311.5 253.1 311.9 259 312.3 259.5 312.6 258.5 313.1 263 313.3 269.4 313.4 272.8 313.5 279.2 313.7 272.3 313.8 268.9 314.2 267.9 314.8 266.9 315.1 262.5 315.6 260 316.1 261.5 316.4 262 316.9 260.5 317.5 258.5 317.8 258.5 318 259.5 318.5 259.5 319 262 319.5 267.4 319.9 269.9 320.4 265.9 320.9 269.4 321.3 266.9 321.5 254.1 321.7 264 322 275.8 322.2 272.8 322.5 268.4 322.8 266.9 323.1 267.4 323.7 269.4 324 267.9 324.4 260 324.8 269.4 325 263 325.4 268.9 325.9 265.9 326.2 263 326.5 261.5 326.8 260.5 327.2 255.6 327.6 254.6 327.9 258 328.2 255.1 328.9 258 329.5 259.5 330.2 261 330.6 266.9 331 265.4 331.6 261 332.1 262.5 332.5 266.9 333 265.4 333.4 275.3 333.5 279.2 333.7 274.8 334 275.3 334.3 276.8 334.7 275.8 335.1 280.2 335.2 281.7 335.4 281.7 335.8 286.1 336 293.5 336.1 293 336.4 294 336.6 289.6 336.9 288.6 337.2 286.1 337.8 288.6 338.1 283.7 338.6 285.1 339.2 285.6 339.7 283.2 340.2 286.6 340.6 291.5 341 286.6 341.3 272.8 341.5 279.2 341.7 274.8 342 275.3 342.4 281.7 342.7 273.8 343 272.8 343.4 275.8 343.9 272.3 344 267.9 344.3 265.9 344.4 265.9 344.5 269.9 344.7 270.9 345 258.5 345.2 257.1 345.5 258.5 345.8 262 346.2 266.9 346.6 262.5 347 264.5 347.5 260 348 257.1 348.4 263 349.1 261 349.5 264.9 349.9 266.9 350.3 272.3 350.6 264.9 351 261.5 351.4 260.5 351.9 264 352.3 264.9 352.9 268.4 353.2 267.9 353.6 270.4 354.3 271.3 354.8 270.4 355.4 264 355.9 270.4 356.4 268.9 357 270.4 357.2 277.8 357.4 279.2 357.6 287.6 357.8 281.2 358.1 280.7 358.5 277.3 358.9 275.3 359.5 271.8 359.9 274.8 360.3 278.7 360.7 284.2 361 282.7 361.3 290.6 361.6 285.1 361.8 298.4 362.1 292.5 362.3 290.1 362.7 289.6 363.3 291.1 363.7 291.1 364 289.1 364.5 289.1 364.7 286.6 365 288.1 365.4 289.6 365.8 289.6 366.3 290.6 366.9 294 367.1 292 367.6 289.6 368.1 293.5 368.4 294.5 368.7 294.5 369.1 294 369.4 298.4 369.8 295 370 297 370.4 295 371 298 371.3 295.5 371.7 297.5 371.9 301.4 372.2 298.9 372.4 296.5 372.7 291.1 373 292.5 373.4 295 373.7 297 373.9 294 374.3 294.5 374.8 295 375.2 293.5 375.5 292 375.8 290.6 376.2 292.5 376.5 300.4 376.8 302.9 376.9 302.9 377.2 304.8 377.5 302.9 377.8 302.9 378.1 298.4 378.6 300.4 379 299.9 379.6 296 379.9 299.4 380.2 296.5 380.4 295.5 380.7 298.9 381 295.5 381.3 294.5 381.6 290.1 382 288.6 382.3 290.6 382.6 288.6 383.1 289.6 383.7 289.1 384.2 288.1 384.9 289.1 385.4 289.1 386 290.1 386.5 288.6 387.1 285.6 387.6 291.5 388 298.9 388.3 291.5 388.8 293 389.4 295 389.7 302.4 390.1 299.9 390.4 297 391 303.9 391.5 302.4 391.7 308.3 391.9 304.4 392.4 310.3 392.7 311.7 392.9 312.7 393.3 313.7 393.7 311.3 394.1 317.7 394.3 315.2 395 314.2 395.5 313.7 396.2 314.7 396.7 316.2 397.1 316.7 397.4 320.6 397.8 317.2 397.9 318.6 398 318.1 398.5 315.2 399.2 312.2 399.8 310.8 400.3 310.3 400.7 310.8 401 309.3 401.5 306.3 401.6 296 401.8 290.6 401.9 286.1 402 292 402.3 299.9 402.5 309.8 402.7 307.8 402.7 307.8 402.8 312.2 403 315.2 403.2 317.7 403.5 313.7 404 309.8 404.4 300.9 404.8 304.4 405.2 313.2 405.3 312.7 405.3 312.7 405.6 312.2 405.9 301.9 406.2 297 406.5 298 406.9 304.4 407.2 295 407.6 293.5 407.8 291.1 408 292 408.3 291.1 408.6 297 409.1 297 409.5 297 409.9 303.9 410.4 293.5 410.8 297 411.2 290.6 411.6 287.6 412 284.7 412.4 286.1 412.7 288.1 413 295 413.2 294 413.6 298 414 292.5 414.3 292.5 414.7 289.1 415 289.6 415.5 286.1 415.9 282.2 416.3 279.2 416.6 281.2 417 281.2 417.5 282.7 418 282.2 418.4 280.7 418.9 278.7 419.4 277.8 419.7 277.8 420.1 276.8 420.6 277.3 421.1 281.2 421.5 272.8 422.1 273.3 422.4 267.9 422.7 264.9 423 266.4 423.3 268.9 423.7 268.4 424.1 264.9 424.4 262 424.7 260.5 425 264.5 425.2 265.9 425.5 267.4 425.9 265.4 426.1 265.9 426.5 260.5 426.9 262.5 427.2 263 427.6 264.9 428.1 261 428.3 256.6 428.6 262 429 257.1 429.5 259.5 429.7 265.4 430.2 267.4 430.4 268.4 430.8 268.4 431.1 272.3 431.4 278.7 431.7 271.3 432 270.9 432.3 275.3 432.6 275.3 433 274.8 433.3 274.3 433.6 279.7 433.9 275.8 434.3 285.6 434.5 285.1 434.8 285.1 434.9 291.1 435.1 295.5 435.3 296.5 435.5 289.1 435.8 296 436.1 295.5 436.4 290.6 436.7 284.7 437.1 291.1 437.3 290.1 437.7 293.5 438 290.6 438.4 288.6 438.8 289.1 439.1 281.2 439.4 279.7 439.7 284.2 440 288.1 440.3 287.1 440.7 286.1 441 288.1 441.3 286.6 441.8 285.1 442.3 285.6 442.8 278.7 443.1 274.3 443.3 268.9 443.6 269.4 444 269.9 444.4 270.9 444.9 267.9 444.9 265.9 445.2 272.8 445.6 281.7 445.9 281.7 446.4 277.3 446.9 275.3 447.5 278.2 448.2 279.7 448.9 282.2 449.4 281.2 450 282.7 450.5 284.7 450.8 285.1 451.3 288.1 451.6 288.6 452.1 290.1 452.7 289.1 453.1 293.5 453.4 293 453.8 288.1 454.2 284.2 454.7 287.6 455.2 281.2 455.6 281.2 456.1 281.2 456.4 284.7 456.7 286.1 457.1 286.6 457.6 286.1 457.9 283.7 458.3 282.7 458.6 279.2 458.9 279.7 459.4 282.2 459.6 281.7 460.1 280.7 460.6 284.7 461.1 286.1 461.7 284.2 462 274.8 462.2 278.2 462.6 278.2 463 283.7 463.4 276.3 463.7 273.3 463.9 276.8 464.2 271.3 464.4 269.9 464.6 264.9 464.8 266.9 465.2 272.8 465.4 268.4 465.6 265.9 465.9 262.5 466 259.5 466.3 253.6 466.5 251.2 466.7 248.2 466.8 255.1 466.9 251.2 467.2 252.6 467.5 254.1 467.7 251.6 467.9 254.1 468.2 252.1 468.7 250.2 469.1 249.7 469.5 249.7 469.8 249.7 470.4 250.7 471 248.2 471.5 250.7 471.8 241.3 472.1 242.8 472.5 245.7 472.9 241.8 473.3 241.8 473.7 245.2 474.2 241.3 474.8 241.3 475.3 239.8 475.5 242.8 476.1 238.3 476.5 235.4 476.8 234.4 477.2 236.4 477.5 235.4 478 236.4 478.4 232.4 478.9 234.4 479.5 236.4 479.9 233.4 480.5 235.4 481 237.4 481.5 235.4 482 233.9 482.4 232.4 483.1 239.3 483.5 238.8 484.1 237.9 484.6 236.4 484.9 234.9 485.3 235.4 485.7 234.4 486.1 235.4 486.6 232.4 487 230 487.5 231 487.9 232.4 488.2 229.5 488.5 231.9 489 234.9 489.7 233.9 490 227.5 490.3 230.5 490.9 230 491.4 230 491.8 232.9 492.2 235.9 492.5 243.3 492.9 244.3 493.4 240.3 494 237.9 494.6 230.5 495.1 230.5 495.5 228.5 495.8 224.1 496.1 222.1 496.5 226.5 496.8 220.6 497.1 215.2 497.2 214.2 497.5 212.2 497.9 216.7 498.2 218.1 498.8 212.7 499.3 210.3 499.8 212.7 500.2 210.8 500.7 207.8 501 209.3 501.4 215.7 502.1 213.7 502.6 209.8 503 216.7 503.5 213.7 504 212.2 504.4 205.8 504.6 203.9 504.9 208.8 505.2 211.3 505.5 211.3 506 210.3 506.3 214.7 506.7 216.2 507.2 214.7 507.8 216.2 508.1 215.7 508.6 210.8 508.9 211.3 509.3 221.1 509.8 216.7 510.4 217.7 510.6 229 510.9 220.6 511.3 212.7 511.7 220.6 512.3 219.1 512.8 214.2 513.2 214.7 513.7 212.7 514.1 215.2 514.7 217.2 515.1 212.7 515.5 215.7 515.8 210.8 516.2 210.3 516.5 214.7 516.9 226.5 517.1 225 517.5 223.1 517.8 218.6 518.3 226 518.8 225.5 519.1 229.5 519.4 230.5 519.7 230 520.1 230.5 520.5 231.4 521.2 231.4 521.6 237.4 522 234.9 522.3 238.3 522.4 245.7 522.5 253.1 522.6 251.6 522.8 250.2 523.1 249.7 523.3 258 523.5 258.5 523.7 261 523.9 259 524.2 258.5 524.5 254.1 524.9 249.7 525.3 247.2 525.8 251.2 526.3 251.2 526.7 252.1 527.1 253.1 527.4 253.6 527.9 251.6 528.3 252.1 528.6 250.7 528.7 259.5 529 257.6 529.4 252.6 529.7 260 530 258 530.4 258.5 530.7 253.1 531 257.1 531.4 257.1 531.8 256.6 532.3 254.6 532.8 253.6 533.1 252.6 533.6 251.2 534.2 252.1 534.6 246.2 535 244.3 535.4 252.6 535.9 250.2 536.3 246.7 536.7 244.3 537.1 247.2 537.7 246.2 538.2 245.7 538.7 251.6 539.1 249.2 539.4 245.7 539.8 246.2 540.1 246.2 540.4 244.7 540.8 247.2 541.2 247.7 541.6 245.2 542 241.8 542.5 243.3 543 242.3 543.6 251.2 544.1 252.6 544.6 250.7 545 245.2 545.5 250.7 546.1 247.7 546.5 251.2 547.1 249.7 547.5 249.7 548.1 249.7 548.5 249.7 549 247.7 549.4 249.2 550.1 250.7 550.8 253.1 551 259 551.6 250.2 552 245.7 552.4 249.2 552.7 236.4 553 232.4 553.2 229.5 553.5 231.4 553.7 245.7 554 243.3 554.3 244.7 554.6 239.3 555 243.3 555.4 237.4 555.8 233.9 556.2 238.3 556.4 250.7 556.8 245.7 557.2 236.9 557.6 240.8 558 242.8 558.3 239.3 558.7 242.8 559.1 236.4 559.5 235.4 559.9 234.4 560.2 228 560.4 235.9 560.8 235.4 561.2 233.4 561.5 224.1 561.5 222.6 561.7 213.7 561.7 206.8 561.7 200.9 561.7 198.4 561.7 194 561.7 200.4 561.8 197 561.8 198 561.8 209.3 561.8 225 561.8 228 561.8 230 561.9 231 561.9 231.4 562 231 562.1 235.9 562.2 241.8 562.2 243.8 562.4 238.8 562.6 233.4 562.9 233.9 563.1 231.9 563.4 231 563.7 226.5 564 224.6 564.4 221.1 564.6 216.7 564.8 217.7 565 224.6 565.3 228 565.6 229 565.9 226.5 566.1 221.6 566.3 224.6 566.7 225.5 567.1 228 567.4 231.4 567.6 231 568 230.5 568.4 233.9 568.6 231.4 569.1 232.9 569.6 234.9 569.9 234.9 570.3 233.4 570.8 232.4 571.3 234.9 572 236.4 572.5 238.3 572.9 236.4 573.3 238.3 573.7 238.8 574.2 244.7 574.5 242.3 574.8 239.8 575.1 239.3 575.6 237.9 576.1 240.3 576.7 241.3 577.1 239.3 577.5 242.3 577.9 242.8 578.4 245.2 578.9 246.7 579.2 250.7 579.5 252.1 579.8 249.7 580.2 249.2 580.6 252.6 581 250.7 581.3 250.7 581.7 243.8 582.1 246.7 582.4 244.7 582.7 244.3 583.2 238.8 583.7 247.7 584.1 242.8 584.6 244.7 585 242.3 585.5 241.8 585.9 247.2 586 253.6 586.3 252.1 586.5 244.7 586.9 249.2 587.3 246.2 587.6 241.8 587.8 236.9 588.2 243.8 588.5 241.3 588.8 245.2 589.2 246.7 589.6 248.2 589.9 252.1 590.3 249.7 590.7 242.3 591.1 241.8 591.5 240.8 591.7 241.3 592.2 245.7 592.7 246.7 593.2 249.7 593.6 249.2 594.1 250.2 594.8 250.7 595.2 249.2 595.6 248.7 596.2 250.2 596.4 254.6 596.8 252.1 597.2 253.1 597.7 253.1 598.2 251.6 598.7 257.6 599.1 259.5 599.6 261.5 600 261.5 600.4 258 600.9 256.6 601.3 256.1 601.7 255.6 602.3 254.1 602.9 253.1 603.4 253.1 604.2 255.1 604.7 255.1 605.3 256.1 605.6 254.1 606.1 253.1 606.7 254.6 607.4 252.6 607.9 252.1 608.4 253.6 608.9 254.1 609.4 258 609.8 259.5 610.3 256.1 610.8 254.6 611.3 255.6 611.8 259.5 612 262 612.5 261 613 265.9 613.3 265.4 613.6 270.4 613.8 273.3 614.1 270.4 614.4 278.2 614.7 275.3 615 277.8 615.3 284.2 615.5 280.2 615.8 280.7 616.1 284.2 616.4 282.2 616.6 284.2 616.9 278.7 617.2 278.2 617.6 277.8 617.8 268.9 618.1 273.3 618.4 279.2 618.8 274.8 619.3 274.8 619.7 272.8 620.3 276.8 620.7 277.3 621.1 282.2 621.3 286.1 621.6 289.6 621.7 289.6 621.9 285.1 622 289.1 622.3 297.5 622.5 298.4 622.7 302.4 622.7 301.9 622.9 300.9 623.2 305.3 623.3 298.9 623.5 303.4 623.9 301.4 624.2 300.9 624.5 304.8 624.7 303.4 624.9 303.9 625.1 302.9 625.4 305.8 625.7 305.3 626 305.3 626.5 301.9 626.9 301.9 627.3 300.9 627.8 299.4 628.4 296.5 628.7 298.4 628.8 298.9 628.8 300.4 628.9 302.4 628.9 302.4 629 302.4 629.1 300.9 629.1 300.4 629.4 301.9 629.7 298.4 630.2 298.4 630.8 296 631.1 294.5 631.6 294.5 632.2 293 632.7 293 633.2 297.5 633.6 293.5 634.1 290.6 634.7 292.5 634.9 291.1 635.4 295.5 636 291.1 636.6 291.1 637.2 293.5 637.7 296.5 638.2 298 638.6 300.4 639 306.3 639.3 309.3 639.6 306.3 639.9 305.8 640.3 301.9 640.9 304.4 641.3 305.8 641.9 304.8 642.5 305.8 642.9 306.3 643.6 308.8 644.1 307.8 644.3 307.8 644.8 312.2 645 319.6 645.3 317.7 645.6 317.7 645.7 327.5 645.9 327.5 646 324.1 646.1 323.6 646.4 321.1 646.8 323.1 647.1 318.6 647.4 316.7 647.6 316.2 648 319.1 648.4 316.2 648.8 323.1 649.1 317.2 649.5 317.7 650 318.6 650.3 309.8 650.6 312.7 650.9 311.7 651.2 314.7 651.5 310.8 651.8 309.3 652.2 306.8 652.5 307.8 652.9 308.8 653.4 307.8 653.9 302.4 654.2 303.4 654.7 304.8 655.1 302.9 655.6 302.9 656.3 305.3 656.8 311.3 657.4 311.3 657.8 307.8 658.6 304.4 659 306.3 659.4 303.4 659.8 300.9 660.2 300.4 660.6 299.4 661.2 297 661.6 296 662.1 294.5 662.4 291.1 662.8 293.5 663.2 291.1 663.6 289.1 664 291.1 664.2 285.1 664.4 292 664.6 283.2 664.9 284.2 665.3 286.1 665.6 288.6 666 282.2 666.4 280.7 666.7 285.6 667 287.1 667.3 287.1 667.5 288.1 667.8 288.6 667.9 289.6 668.1 288.1 668.4 294.5 668.6 298.4 668.8 301.4 669 301.4 669.2 300.4 669.5 300.9 669.8 296.5 670.2 295.5 670.6 296 671 293 671.3 293 671.7 291.1 671.9 295 672.2 293.5 672.7 297.5 673 301.4 673.4 304.8 673.7 305.3 674 306.3 674.3 306.8 674.6 306.3 675 308.8 675.3 308.3 675.6 309.8 676 313.7 676.2 320.1 676.4 317.7 676.6 315.7 677 313.2 677.3 310.3 677.5 309.8 677.7 309.3 678 302.9 678 300.4 678.2 301.4 678.4 303.4 678.6 298.4 678.9 305.8 679 298.4 679.1 299.9 679.1 298 679.3 294.5 679.5 291.5 679.7 294 680 294.5 680.5 291.5 680.7 296.5 681 303.9 681.2 301.4 681.6 290.6 681.8 287.6 681.8 289.1 681.9 287.1 681.9 287.6 682 290.1 682.1 288.1 682.3 289.6 682.5 286.1 682.7 289.6 683 292 683.3 293.5 683.7 294.5 684.3 294 684.8 295 685.6 293.5 686.3 293.5 687.1 295.5 687.7 293 688.2 292.5 688.8 297 689.4 294.5 689.7 290.1 690.2 292.5 690.5 291.1 690.9 291.5 691.4 291.5 691.9 290.6 692.4 288.6 693 287.6 693.4 291.5 693.8 292 694.3 295 694.7 295 695.1 296.5 695.5 298 695.9 294.5 696.6 294.5 697.3 296 697.9 299.4 698.4 299.4 699 297 699.4 293 700 298 700.3 296.5 700.9 293.5 701.3 293.5 701.8 288.1 702.3 290.1 702.8 289.1 703.1 286.6 703.5 290.6 704 289.1 704.5 291.5 705 290.6 705.7 295.5 706.1 293.5 706.4 294.5 707 295.5 707.4 292.5 707.7 291.1 708.2 296 708.5 297 708.9 299.4 709.3 300.4 709.8 298.9 710 305.8 710.3 307.3 710.6 305.3 711.1 307.3 711.6 306.3 712.1 305.8 712.6 305.8 713.2 304.8 713.7 306.3 714.4 308.3 715.1 308.8 715.6 306.8 716 307.8 716.4 312.2 717 309.8 717.5 309.3 718.1 310.8 718.5 309.8 719.1 314.2 719.7 313.7 720.1 316.2 720.4 320.6 720.6 323.1 720.9 324.6 721 325.5 721.4 321.6 721.7 321.6 722.3 322.1 722.6 323.6 723.1 324.6 723.5 328 723.9 327.5 724.2 333.4 724.7 330.5 725.3 328 725.3 328 725.4 328 725.5 328 725.6 328.5 725.6 328 725.7 328 725.8 327 725.8 324.6 725.9 324.1 725.9 325 726.2 329 726.5 329.5 727.2 331 727.5 332.9 728 334.9 728.7 331.4 729.3 330.5 730 327.5 730.3 328 730.9 332.9 731.6 333.4 732 334.4 732.6 331 732.9 328 733.2 326 733.6 325 734 321.6 734.3 325 734.6 320.6 735.1 321.1 735.4 325 735.8 329.5 736.2 329.5 736.6 330.5 736.9 330.5 737.2 332.4 737.5 335.9 737.8 334.9 738.1 333.4 738.5 333.9 738.9 337.4 739.3 337.9 739.6 335.9 740 332.4 740.5 334.9 740.8 336.4 741.2 335.9 741.7 334.4 742.2 332.4 742.8 334.9 743.3 333.9 743.8 334.4 744.4 338.3 744.9 336.9 745.3 334.9 745.7 333.4 746.2 332.9 746.8 337.9 747.3 338.3 747.8 336.9 748.3 340.3 748.6 336.9 749 335.4 749.4 336.4 749.9 339.3 750.4 341.3 750.9 340.8 751.2 344.7 751.5 351.6 751.8 348.7 751.9 359.5 751.9 366.4 752 356.6 752 367.9 752.1 364 752.2 371.8 752.3 372.8 752.4 380.2 752.4 375.3 752.6 376.3 752.7 368.9 752.8 374.3 752.9 373.3 753.1 372.8 753.2 376.3 753.4 372.8 753.7 372.3 754 369.4 754.5 365.9 754.8 366.9 755.2 368.9 755.7 364 756 367.4 756.4 368.9 757 366.4 757.4 356.6 757.8 357.6 758.3 362.5 758.5 352.1 758.9 354.6 759.3 353.1 759.6 353.1 760.2 353.1 760.5 353.1 760.5 350.7 760.6 351.2 760.8 353.1 761.1 353.6 761.5 354.6 761.9 354.6 762.3 355.1 762.5 358 762.7 348.7 763 347.7 763.3 346.2 763.5 349.2 763.8 349.2 764.1 349.7 764.6 348.7 765 347.2 765.4 347.2 765.9 349.2 766.2 353.6 766.3 347.2 766.4 351.2 766.8 342.8 767.1 347.2 767.5 349.2 768 352.6 768.3 353.1 768.7 354.6 769.1 356.6 769.3 358.5 769.5 356.1 769.7 354.1 769.9 361 770.2 363.5 770.5 363.5 770.9 363 771.1 367.4 771.4 364.5 771.7 365.4 772 371.3 772.2 374.3 772.5 373.3 772.7 378.2 772.9 383.2 773 386.1 773.1 381.2 773.2 378.7 773.2 378.2 773.3 379.2 773.4 379.2 773.4 378.7 773.5 376.3 773.5 376.8 773.6 373.3 773.9 374.8 774.3 371.3 774.8 375.3 775.1 376.8 775.5 378.2 776 377.3 776.3 378.2 776.6 379.7 776.9 378.2 777.4 373.3 777.8 372.3 778.3 372.3 778.7 369.4 779 364.9 779.4 368.4 779.8 368.4 780.1 363 780.5 363.5 780.9 365.9 781.2 363 781.8 363 782.3 360 782.7 365.9 782.8 366.9 783.1 359.5 783.3 358.5 783.7 364.5 784 364.5 784.4 364 784.7 366.9 785 373.3 785.3 370.4 785.7 369.9 786 371.8 786.4 368.9 786.6 375.3 786.8 369.9 787.2 369.9 787.6 370.4 787.9 371.3 788.1 376.8 788.4 376.8 788.9 377.3 789.4 377.8 789.9 380.2 790.2 381.2 790.7 379.7 791.1 383.2 791.4 383.2 791.7 382.7 792.1 378.7 792.6 380.2 793.1 383.7 793.4 380.2 793.9 379.7 794.3 379.2 794.8 383.2 795.3 383.7 795.6 387.1 796 388.6 796 388.6 796.1 387.6 796.2 388.1 796.2 386.6 796.3 387.1 796.4 387.1 796.4 387.1 796.5 386.6 796.6 386.1 797 384.2 797.5 389.6 798 388.1 798.3 391.1 798.5 390.1 798.8 388.6 799.1 393.5 799.4 393 799.7 397.5 799.8 395.5 800 387.1 800.2 386.6 800.5 384.2 800.8 378.7 801.2 381.7 801.6 378.7 801.9 378.7 802.2 382.2 802.4 382.7 802.8 381.2 803.1 382.2 803.6 384.2 804.2 382.7 804.5 383.2 805.1 382.7 805.6 384.2 806.1 381.2 806.7 378.7 807.2 374.3 807.5 372.3 808 375.3 808.5 377.8 809 378.2 809.5 371.8 810 376.3 810.3 379.7 810.8 378.7 811.1 376.8 811.7 380.2 812.2 381.7 812.8 379.2 813.2 371.8 813.2 365.4 813.3 358 813.4 360.5 813.5 357.6 813.6 359 813.8 360 814.1 362 814.3 364.5 814.6 361.5 814.9 363.5 815.5 364.5 815.7 367.9 816.1 372.3 816.3 372.3 816.7 375.8 817 376.8 817.3 376.8 817.7 372.8 818.1 374.3 818.6 377.3 818.9 379.7 819.3 375.3 819.7 372.8 820.2 371.3 820.7 374.3 821.3 372.3 821.8 367.9 822.3 368.4 822.8 365.4 823.2 364.5 823.5 360 823.9 359 824.5 359 824.7 361.5 825.1 364 825.5 362.5 825.9 365.4 826.2 364.5 826.5 364 827.1 363.5 827.4 366.4 827.7 357.6 828 360 828.3 357.1 828.7 358 829 354.1 829.3 348.7 829.4 350.2 829.6 349.7 829.9 346.7 830.2 346.2 830.3 349.7 830.5 345.2 830.7 341.8 830.8 342.8 831 346.2 831.2 341.8 831.5 344.3 831.6 340.3 831.8 336.4 832 338.8 832.2 337.4 832.5 338.3 832.6 333.4 832.9 334.4 833.1 330 833.3 331 833.5 331 833.7 325 833.9 328.5 834.2 328 834.5 328 834.9 328 835.1 328 835.4 323.6 835.7 323.6 836 326 836.3 329 836.4 328 836.5 328.5 836.9 331 837.2 326.5 837.4 331 837.7 330.5 837.9 325.5 838.2 325.5 838.5 327 838.8 328 839.2 327.5 839.3 323.6 839.5 323.1 839.8 319.1 840.2 323.1 840.6 330.5 840.8 334.4 841 330.5 841.3 330 841.5 337.4 841.8 342.8 842 348.2 842.2 343.8 842.4 345.7 842.7 342.8 843.1 348.7 843.3 350.7 843.6 349.2 843.9 347.7 844.3 348.7 844.6 352.6 844.9 360 845.1 361 845.4 359.5 845.7 359 846.1 355.1 846.4 358.5 846.9 358 847.5 361 847.8 363.5 848.2 358.5 848.5 358 848.9 367.4 849.1 367.9 849.5 366.9 849.9 366.4 850.1 364.9 850.5 366.4 850.9 371.8 851.2 371.8 851.5 370.9 851.9 374.3 852.3 375.8 852.6 374.8 852.9 374.3 853.1 372.8 853.4 371.3 853.7 376.3 853.9 373.3 854.1 367.9 854.4 367.9 854.9 368.4 855.1 369.4 855.5 371.8 855.9 371.3 856.3 374.8 856.6 373.8 856.9 377.3 857.3 375.3 857.6 374.8 858 373.3 858.3 369.9 858.6 368.9 858.9 370.4 859.2 372.3 859.6 372.8 860 375.3 860.2 378.2 860.5 378.7 860.8 383.7 860.9 381.2 861.1 386.6 861.3 384.7 861.4 383.2 861.6 382.2 861.9 388.1 862.1 385.6 862.3 381.7 862.7 381.7 862.9 387.1 863.1 387.6 863.3 385.6 863.5 391.1 863.7 395.5 863.8 399.4 863.9 401.9 864 399.9 864.2 397 864.4 397 864.7 396.5 865 399.9 865.3 397 865.4 398 865.5 399.9 865.9 399.4 866.1 394 866.4 392 866.6 383.7 866.7 382.2 867 383.7 867.3 382.2 867.7 382.7 867.9 383.2 868.2 383.2 868.5 388.1 868.9 389.1 869.3 389.6 869.7 387.1 870.2 387.1 870.6 386.1 871 387.6 871.3 381.7 871.6 382.7 872 382.2 872.4 382.7 872.9 381.7 873.1 382.2 873.5 383.2 873.8 385.1 874.1 384.2 874.3 385.1 874.6 387.1 874.8 385.6 875.1 383.2 875.4 381.7 875.6 379.7 875.9 377.3 876.1 372.8 876.4 373.3 876.7 372.8 876.8 371.8 877.2 368.9 877.5 365.9 877.7 361 877.9 355.1 878 357.1 878.1 351.2 878.2 349.7 878.4 351.2 878.4 354.6 878.6 355.1 878.8 355.1 879.1 351.2 879.3 348.2 879.4 348.7 879.7 350.2 880 350.2 880.3 349.7 880.5 351.2 880.7 351.6 881.1 353.1 881.4 348.7 881.8 349.7 882 351.2 882.3 356.6 882.5 355.1 882.8 355.6 882.9 356.6 883.2 355.1 883.5 358 883.8 362 884.1 359 884.3 358 884.6 356.6 884.9 358.5 885.2 359 885.5 364.5 885.7 363.5 885.9 370.4 886 367.9 886.2 369.9 886.4 365.9 886.6 364.5 886.8 368.4 887.1 365.9 887.3 367.9 887.6 368.9 887.8 375.3 887.9 375.3 888.1 372.3 888.3 374.3 888.5 376.3 888.8 375.8 889.1 378.2 889.4 379.2 889.6 377.3 890 378.7 890.1 384.7 890.2 388.6 890.4 382.7 890.8 382.2 891.1 384.2 891.4 384.7 891.6 384.2 891.8 387.1 892 387.1 892.2 387.1 892.4 389.6 892.6 388.1 893 387.6 893.3 388.1 893.5 388.6 893.9 385.1 894.1 389.1 894.4 389.1 894.6 392 894.8 392.5 895 391.1 895.3 386.6 895.7 379.7 895.9 379.7 896.2 374.8 896.4 379.2 896.5 378.7 896.9 379.2 897.3 386.6 897.6 383.2 898.1 387.1 898.5 385.1 899 384.2 899.6 384.2 900 382.2 900.5 382.7 901 382.2 901.3 384.2 901.4 387.1 901.5 386.6 901.7 389.6 902.1 383.2 902.5 381.7 903 379.2 903.5 379.7 904.1 376.8 904.6 374.8 904.8 372.3 905.2 376.8 905.6 376.3 906 374.8 906.4 371.3 906.7 372.3 907.1 378.2 907.5 375.8 908 377.8 908.4 377.8 908.7 381.2 909.2 381.7 909.4 383.2 909.9 382.2 910.3 383.7 910.7 387.1 911.1 388.6 911.4 393 911.5 405.3 911.5 401.9 911.5 396 911.7 403.4 911.7 405.8 911.8 412.7 911.8 411.3 911.9 416.2 911.9 416.7 912 414.7 912.1 419.1 912.1 428 912.2 426.5 912.3 431 912.3 428 912.4 426 912.4 423.6 912.5 424.1 912.6 422.6 912.7 420.6 912.8 426.5 913 425.5 913.2 416.7 913.3 414.2 913.5 419.1 913.7 427 913.8 427 914 429 914.1 429.5 914.3 431.4 914.5 429.5 914.7 432.9 914.9 431.4 915.1 433.4 915.3 430.5 915.5 431 915.8 436.9 916 436.9 916.2 438.8 916.4 439.3 916.5 440.8 916.6 437.9 916.6 438.3 916.8 436.9 917 432.9 917.4 436.9 917.6 435.9 918 433.4 918.2 432.4 918.7 436.4 918.9 437.4 919.2 434.4 919.6 433.4 920 433.4 920.4 435.4 920.9 438.8 921 426 921.1 426 921.3 421.6 921.4 428 921.6 424.6 922 424.6 922.2 423.6 922.4 430.5 922.6 430.5 922.9 432.9 923.2 428 923.7 428.5 924.1 426.5 924.5 427 924.9 427 925.3 425.5 925.7 425 926.1 425.5 926.4 422.6 926.8 421.1 927.1 417.7 927.4 410.8 927.5 404.8 927.7 408.3 928 408.3 928.3 407.3 928.4 400.4 928.5 400.4 928.7 398 929 397.5 929.2 394.5 929.3 390.1 929.5 388.6 929.7 389.6 929.9 384.2 930.1 384.2 930.3 388.1 930.5 388.6 930.6 391.5 930.9 389.1 931.1 385.6 931.3 385.6 931.6 381.2 931.8 380.7 932 378.7 932.2 374.3 932.4 375.3 932.6 374.8 932.7 373.3 932.9 372.3 933.1 375.3 933.3 373.3 933.5 368.9 933.6 362.5 933.8 360.5 933.9 356.6 934 356.6" opacity=".6"/><text x="942" y="472" fill="#d97706" font-size="11" text-anchor="start">0.12</text><text x="942" y="396" fill="#d97706" font-size="11" text-anchor="start">0.14</text><text x="942" y="320" fill="#d97706" font-size="11" text-anchor="start">0.15</text><text x="942" y="244" fill="#d97706" font-size="11" text-anchor="start">0.17</text><text x="942" y="168" fill="#d97706" font-size="11" text-anchor="start">0.18</text><text x="942" y="92" fill="#d97706" font-size="11" text-anchor="start">0.20</text><text x="942" y="80" fill="#d97706" font-size="11" font-weight="600" text-anchor="start">price</text><polygon fill="#16a34a" fill-opacity=".08" points="219.6 468 219.6 116.3 219.6 116.3 912.2 116.1 912.2 468"/><polyline fill="none" stroke="#16a34a" stroke-linejoin="round" stroke-width="2" points="219.6 116.3 219.6 116.3 912.2 116.1"/><line x1="88" x2="110" y1="102" y2="102" stroke="#16a34a" stroke-width="2.5"/><text x="116" y="106" fill="#374151" font-size="11.5">equity</text><line x1="88" x2="110" y1="118" y2="118" stroke="#d97706" stroke-width="2.5" opacity=".8"/><text x="116" y="122" fill="#374151" font-size="11.5">price</text><text x="78" y="502" fill="#6b7280" font-size="12" text-anchor="start">2026-02-01</text><text x="934" y="502" fill="#6b7280" font-size="12" text-anchor="end">2026-02-28</text></svg>