<svg xmlns="http://www.w3.org/2000/svg" width="1000" height="520" font-family="ui-sans-serif, system-ui, sans-serif" viewBox="0 0 1000 520"><rect width="1000" height="520" fill="#fff"/><text x="78" y="28" fill="#111827" font-size="18" font-weight="700">Zone Recovery — PNUTUSDC best setting (equity / PnL)</text><text x="78" y="48" fill="#6b7280" font-size="12.5">lev 10 · ratio 3 · gap 20% · maxSteps 4 · maxDD 60% · random · vip 9 · 35 series, 80.0% win · vol $12758368 ($411561/day) · fees $1079</text><text x="78" y="68" fill="#1d4ed8" font-size="12.5" font-weight="600">USDC · BNB −10% · taker 0.0085%</text><text x="934" y="28" fill="#16a34a" font-size="18" font-weight="700" text-anchor="end">+38183 USDT (+381.83%)</text><line x1="78" x2="934" y1="468" y2="468" stroke="#e5e7eb" stroke-width="1"/><text x="68" y="472" fill="#6b7280" font-size="12" text-anchor="end">0.00</text><line x1="78" x2="934" y1="392" y2="392" stroke="#e5e7eb" stroke-width="1"/><text x="68" y="396" fill="#6b7280" font-size="12" text-anchor="end">11219</text><line x1="78" x2="934" y1="316" y2="316" stroke="#e5e7eb" stroke-width="1"/><text x="68" y="320" fill="#6b7280" font-size="12" text-anchor="end">22437</text><line x1="78" x2="934" y1="240" y2="240" stroke="#e5e7eb" stroke-width="1"/><text x="68" y="244" fill="#6b7280" font-size="12" text-anchor="end">33656</text><line x1="78" x2="934" y1="164" y2="164" stroke="#e5e7eb" stroke-width="1"/><text x="68" y="168" fill="#6b7280" font-size="12" text-anchor="end">44874</text><line x1="78" x2="934" y1="88" y2="88" stroke="#e5e7eb" stroke-width="1"/><text x="68" y="92" fill="#6b7280" font-size="12" text-anchor="end">56093</text><line x1="78" x2="934" y1="400.3" y2="400.3" stroke="#9ca3af" stroke-dasharray="6 4" stroke-width="1.5"/><text x="934" y="394.3" fill="#6b7280" font-size="11" text-anchor="end">start 10000</text><polyline fill="none" stroke="#d97706" stroke-linejoin="round" stroke-width="1.2" points="78 336.7 79.5 334.7 82.3 335.8 83.8 332.6 84.1 331.7 85.2 326.5 86 330.8 87 330.7 88.4 324.9 89.3 323.3 90 328.4 91.5 326 92.3 327.9 93.5 325.9 94.8 325.3 96.1 318.7 96.6 320.4 97.4 319.1 97.8 311.6 98 307.3 98.2 306.1 98.5 309.7 98.8 309.2 99.6 311.2 100.7 310.3 101.7 311.6 102.5 308.9 103.5 306.7 104.4 300.5 104.6 293.7 104.9 292.8 105.3 291.5 105.6 292.5 105.9 284.8 106 294.5 106.3 297.1 106.9 298.1 107.4 297.9 108.1 295 108.5 296.1 109.2 295 109.5 287.8 109.7 277.8 109.9 282.5 110.2 276.1 110.3 275.7 110.6 275.9 110.8 277.2 111.1 267.6 111.2 269.7 111.4 267 111.5 262.4 111.7 265.4 111.8 263.4 112 262.1 112.1 259.9 112.2 263.6 112.2 254.2 112.4 258.3 112.5 246 112.5 247.1 112.6 243.8 112.7 245.4 112.8 247.3 112.9 249.1 112.9 253.5 113 264.6 113.1 269.1 113.2 265.9 113.3 267.3 113.4 268.8 113.6 269.1 113.8 266.7 114 267 114.2 282.4 114.2 279.2 114.3 285.7 114.4 284 114.5 289.4 114.6 286.9 114.8 287.9 114.9 295.4 115 291 115.3 290.9 115.8 290.3 116.2 285.5 116.6 286.6 116.8 280 117 276.7 117.2 274.8 117.6 276.3 118.1 273.3 118.3 272.6 118.7 273 119.1 276.3 119.3 275.3 119.8 276.5 120.1 266.6 120.2 259.2 120.3 260.5 120.4 265.7 120.6 267.1 120.9 267.9 121.1 267.2 121.6 271.4 122.1 277.2 122.2 275.2 122.4 282.7 122.5 279.7 122.7 275.1 122.9 275.1 123.2 275 123.6 269.7 124.1 269.4 124.4 268.1 124.7 265.2 125 263.7 125.1 263.3 125.2 256.8 125.4 261.8 125.7 258.5 126 261.6 126.2 265.1 126.6 264.2 127 265.2 127.4 266.7 127.8 262.2 128.4 263.7 128.9 264 129.7 264.8 130.3 261.1 130.8 256.9 131 253.6 131.4 257.3 131.9 247.4 132.2 251.3 132.5 249.3 133.1 252.9 133.6 253.2 133.9 251.7 134.3 256.1 134.7 253.9 135 255.9 135.5 254.9 135.8 255.8 136 252.9 136.4 249.5 136.9 250.7 137.3 251.7 137.6 249.9 137.8 247.8 138.1 251.1 138.7 251.2 139.1 246.9 139.6 248.3 139.8 250.7 140.3 250 140.7 251.3 140.9 257.7 141 263.5 141 265 141.1 267.3 141.4 263.1 141.6 266.9 141.7 272 141.8 273 141.9 274.6 142 272.6 142.3 274.5 142.6 276 142.9 276.3 143.1 272.4 143.2 268.1 143.4 269.5 143.6 270.8 144 271.1 144.2 267.1 144.3 266.6 144.6 268.3 144.8 270 145 271.5 145.3 271.8 145.9 270.9 146.2 269.3 146.6 270.6 147 269.1 147.5 268.1 147.9 266.4 148.3 266 148.7 265.9 149.3 264.3 149.7 262.9 150.1 263.8 150.6 263.1 150.9 263.4 151.3 261.3 151.6 261.9 151.7 253.9 151.7 251.6 151.8 249 151.8 250.2 151.9 248.7 151.9 251.9 152 244.3 152.1 244.7 152.2 238.1 152.2 241.5 152.4 249.5 152.6 248.2 152.7 252.9 152.8 252.9 153 253.9 153.3 252.6 153.5 251.6 153.8 253.9 154 256.2 154.2 258.3 154.4 255.8 155 257.1 155.4 256.7 156.1 257.1 156.5 260.4 157 257.7 157.7 257.3 158 253.8 158.6 255.2 159.2 250.7 159.4 248.3 159.9 246.3 160.2 246.4 160.8 249.3 161 245 161 239 161.2 245.1 161.3 247.7 161.6 246.3 161.8 246.3 162 243.9 162.3 245.4 162.6 248.6 163.1 246.9 163.4 243.7 163.5 240.5 163.7 239 163.9 241.4 164.1 244.1 164.3 242.7 164.4 238.8 164.5 233.4 164.7 234.6 164.9 233.6 165 234 165 230.4 165 232.2 165.2 233.4 165.4 234.3 165.5 236.3 165.8 236.1 166 234.4 166.1 235 166.3 238.3 166.6 238.2 166.8 234.7 167.3 239.4 167.7 230.5 167.9 230.5 168.2 227.3 168.3 228.5 168.6 232.5 168.9 233.6 169.2 232.9 169.4 237.9 169.6 234.6 169.7 229.2 169.8 227.7 170.1 231.6 170.2 235.7 170.5 230 170.6 230.7 170.8 226.2 171 222.8 171.2 226.6 171.2 223 171.5 223.3 171.6 217 171.7 223.2 172 220.1 172.2 222.9 172.7 221.8 172.8 227.9 172.9 225.9 173.1 229.5 173.3 227.2 173.5 231.5 173.7 231.2 173.9 228.1 174.1 223.5 174.3 222.8 174.4 220.2 174.6 223.8 174.7 220.1 174.9 221 175.1 215.9 175.3 213.3 175.4 219.9 175.7 224.5 175.9 223.8 176.1 222.8 176.2 228.6 176.3 227.7 176.5 224.1 176.7 217.2 176.8 219.3 177 215.6 177 216.4 177.2 214.2 177.3 215.7 177.4 215.3 177.5 218.3 177.6 216.1 177.8 214.2 177.9 210.8 178 209 178.1 205.9 178.2 200.3 178.3 195.8 178.3 195.3 178.4 193.6 178.4 185.6 178.5 182.8 178.5 176.3 178.5 173.3 178.5 189.5 178.5 193.9 178.5 194.7 178.6 195 178.6 209.9 178.6 205.5 178.6 207 178.6 197.7 178.6 193.4 178.7 198.7 178.7 202.7 178.8 203.6 178.9 207 179 209.9 179.2 204.2 179.3 189.2 179.3 189.2 179.4 184.2 179.5 176.9 179.6 172.3 179.6 167.6 179.7 158.3 179.7 162.9 179.7 148.4 179.7 154.9 179.7 154.4 179.8 155.9 179.8 159.5 179.8 150.8 179.9 150 179.9 143.6 179.9 138.7 179.9 129.2 179.9 128.1 180 129.4 180 125.1 180 124 180 133.3 180 142.3 180.1 143.2 180.1 146.3 180.1 141.3 180.1 138.6 180.2 138.6 180.2 141.2 180.2 139.7 180.3 135.8 180.3 133.1 180.4 127.1 180.4 127.6 180.4 126.6 180.4 132.7 180.5 134.9 180.5 138.9 180.5 145.4 180.5 157.4 180.5 155.1 180.6 152 180.6 149.2 180.7 149.7 180.7 149.1 180.8 147.9 180.9 151.9 181 153.2 181 154 181.1 150.1 181.2 150.8 181.4 150.2 181.5 151.5 181.6 152.9 181.7 154.3 181.9 152 182 156.9 182.1 160.7 182.2 168.3 182.2 165.8 182.3 168.3 182.4 165.3 182.5 171.5 182.6 171.3 182.7 171.4 182.8 178.8 182.9 178.1 182.9 182.3 183 177.8 183.2 175.4 183.3 171.3 183.5 173 183.8 173 183.9 163.5 184.2 163.1 184.4 161.2 184.6 159.3 184.8 164.4 185.1 163.8 185.3 161.4 185.5 165.7 185.8 172.3 186 173.4 186.2 167 186.4 169.8 186.8 168 187 174.8 187.3 166.2 187.5 163.2 187.7 162.6 187.9 165.1 188 165.9 188.3 171.5 188.5 167.7 188.5 161.1 188.5 163.1 188.6 176.3 188.7 178.5 188.8 186.5 188.8 181.8 189 183.3 189.2 181 189.4 179.7 189.6 180.5 189.7 175.7 189.9 177 190.1 177.6 190.2 173.7 190.3 171.5 190.4 171.5 190.5 169.1 190.6 170.4 190.8 170.6 190.9 170.8 191 172.8 191.1 176.1 191.2 183.5 191.4 183.7 191.5 183.5 191.6 178.5 191.8 176.8 191.9 176.3 192.1 180 192.2 183.5 192.4 186.5 192.5 186.8 192.6 187.5 192.8 186.3 193 187.8 193.2 190.3 193.4 187.6 193.6 191 193.6 191.5 193.7 201.8 193.7 199.7 193.8 197.1 193.9 194.7 194 194.2 194.2 192.9 194.3 196.5 194.5 194.3 194.7 192.8 194.8 191.8 195 190.2 195.1 192.8 195.2 195.5 195.3 196.2 195.4 194.5 195.6 191.2 195.8 191.3 195.9 198.2 196 196.8 196.2 195.2 196.4 192.2 196.6 192.9 196.7 196.9 197 192 197.1 188.4 197.2 182.2 197.2 181.8 197.2 182.3 197.3 183.7 197.5 185.2 197.7 191.3 197.8 191.1 197.9 192.5 198 192.2 198.1 192.2 198.3 194.9 198.5 199.1 198.8 197 198.8 201.8 198.9 207.7 198.9 208.9 198.9 207.5 199 206.3 199 207.2 199.1 206.4 199.2 205.5 199.4 206.7 199.7 204.5 199.9 205.2 200.1 204.7 200.3 205 200.5 206 200.7 208.2 200.7 208.7 201 206.7 201.2 206.6 201.4 206 201.6 202.8 201.8 205 202 201.3 202.3 201.4 202.6 201.8 202.9 202.3 203.1 201.6 203.2 203.1 203.4 202.6 203.6 203 203.8 206.7 204.1 205.7 204.2 205.9 204.4 205.2 204.6 204.8 204.8 205.7 204.9 204.2 205.2 204.3 205.2 203.9 205.3 207.7 205.3 203.1 205.4 199.5 205.5 203.6 205.6 204 205.7 201.6 205.8 203.7 205.9 205.7 206 202.2 206.2 203.4 206.4 199.5 206.5 194.1 206.6 195.2 206.7 195.9 206.9 195.8 207.1 193.5 207.2 189.6 207.3 189.8 207.3 192.6 207.4 187.9 207.4 185.7 207.5 183.8 207.6 185.4 207.6 182 207.7 180 207.8 181.6 207.9 184.5 208.1 183.8 208.2 183.2 208.3 183.9 208.4 186.6 208.5 188.4 208.6 186.5 208.8 189.3 208.9 185 209 182.1 209.1 180 209.1 181.2 209.2 183.3 209.5 181.7 209.6 182.9 209.8 181.2 210.1 180.6 210.2 178.8 210.4 176.1 210.5 175.2 210.7 178 210.9 178.2 211.1 180.9 211.3 180.5 211.5 180 211.6 178.1 211.8 176.1 211.9 174 212 169.6 212.1 177.5 212.3 179 212.5 179.6 212.6 179.3 212.9 178.5 213.1 179 213.4 180.3 213.7 179.8 214 176.1 214.4 178.5 214.8 180.4 215.2 180.2 215.5 182.1 216 183.4 216.2 184.9 216.4 187.8 216.6 186.5 216.8 191.1 217 189.8 217.1 185.3 217.3 179.4 217.5 179.6 217.6 175.8 217.8 173 218 175.8 218.2 176.7 218.3 179.4 218.4 180 218.6 181.6 218.8 180.4 219 181.7 219.3 183.6 219.6 183 219.7 175.1 219.8 175.5 220 175.7 220.1 173.3 220.2 167.9 220.3 166.7 220.4 168 220.5 169.4 220.7 170 220.8 173.9 221.1 174.1 221.3 174.6 221.5 176.9 221.8 177.9 222 180.7 222.1 181 222.4 186.2 222.6 187.8 222.8 189.2 223 189 223.2 189.2 223.3 194.4 223.5 193.1 223.7 190.1 223.8 186.6 223.9 187.2 224.1 189.3 224.4 190.1 224.6 192.5 224.7 194 224.9 195.8 225.1 197.6 225.3 195 225.4 190.1 225.6 191.9 225.8 193.3 226.2 195 226.4 194.6 226.7 192.3 227.1 192.6 227.5 189.4 227.7 189.4 227.9 184.6 228 184.8 228.2 183 228.4 184.1 228.7 183.7 228.9 176.6 229 173.3 229.1 172.5 229.3 171.8 229.4 169.7 229.5 170 229.7 169.1 229.8 174 230.1 176.9 230.2 172.9 230.5 169.4 230.5 161.4 230.6 157.5 230.6 156 230.7 155 230.7 151.5 230.8 145.2 230.8 151.4 230.9 146.1 230.9 143.4 231 139.1 231 138.9 231 138.2 231 128.5 231.1 133.5 231.1 138.8 231.1 140.5 231.1 136.4 231.1 128.4 231.2 121.8 231.2 120.1 231.2 116.8 231.2 128.3 231.2 129.7 231.2 132.3 231.3 135.9 231.3 132.7 231.3 128.5 231.4 124.7 231.4 128.7 231.5 125.5 231.5 131.3 231.6 135 231.6 134.2 231.6 139.1 231.7 144.7 231.7 141.3 231.8 137.9 231.9 135.9 232 140.5 232 142.1 232.1 137.1 232.2 144 232.2 150.1 232.2 158.7 232.2 158.1 232.3 156.2 232.4 151.7 232.4 158.1 232.5 160.1 232.5 158.7 232.6 156.8 232.7 154.8 232.8 156.9 232.8 160.5 232.9 161.6 232.9 158.6 233 164.1 233.1 162.9 233.1 167.1 233.2 168.2 233.3 168 233.4 161.4 233.5 164.8 233.6 165.7 233.7 164.3 233.8 161.3 233.9 158.6 234 162.9 234.1 169.5 234.1 172.8 234.1 174.8 234.2 172.5 234.3 174.5 234.3 178.3 234.4 180.2 234.4 181.7 234.5 181 234.5 181.7 234.5 182.4 234.6 182.6 234.6 183.2 234.6 191.7 234.6 192 234.7 188.1 234.8 186.6 234.9 191 235 194.3 235 194 235.1 196.1 235.1 193.3 235.1 196.9 235.2 199.7 235.3 200.7 235.4 200.4 235.5 197.3 235.5 196.4 235.7 198 235.8 194.6 235.9 194.3 236.1 195.2 236.3 193.7 236.5 198.4 236.5 204 236.6 201.5 236.7 207.8 236.8 209.3 236.8 206.3 236.9 204 237 201.2 237.1 201.2 237.3 200 237.4 199.4 237.7 196.6 237.8 194.3 237.9 195.9 238.2 195.6 238.5 196.8 238.7 199.5 239 197.4 239.2 194.9 239.5 194.4 239.7 192.2 239.9 191.1 240.1 190.9 240.3 192.3 240.5 191 240.6 180.8 240.7 184.6 240.9 182.5 241 184.1 241.3 184.6 241.5 185.9 241.8 188.1 242.4 187.5 242.9 186.3 243.3 184.2 243.7 186.5 244 188.4 244.1 190.5 244.4 192.2 244.6 197.4 244.9 198.2 245.1 201 245.2 205.6 245.4 202.1 245.5 205.4 245.8 207 246 207.9 246.1 205.6 246.3 207.1 246.6 205.5 246.9 201.5 247.1 201.1 247.5 199.5 247.9 201.8 248.4 197.5 248.9 198.4 249.3 200.5 249.9 198.8 250.3 194.9 250.6 199.4 250.8 198.5 250.8 200.4 251.1 196.8 251.5 197.6 251.8 198.3 252 197.5 252.3 194.7 252.5 189.6 252.6 188.3 252.8 187.1 252.9 186 253 184.6 253 178.8 253.1 180.8 253.2 182.6 253.3 186.2 253.5 185.7 253.6 188.9 253.8 191.6 253.9 188.9 254.1 191.5 254.3 192.6 254.4 196.6 254.6 197.5 254.7 200 254.8 199 254.9 201.7 255.1 198.7 255.3 197.5 255.5 199.1 255.8 198.4 256 198.5 256.3 200.3 256.6 199.4 256.9 199.8 257.3 199.4 257.6 201.6 257.9 201.9 258.1 205 258.3 204.2 258.8 205.2 259 206.4 259.2 203.9 259.6 207 259.8 211.6 259.8 216 259.9 214.2 260.1 215.2 260.3 215 260.4 215.6 260.5 211.1 260.5 209.5 260.6 206.4 260.8 207 261 207.3 261 213.7 261.1 212.8 261.3 212.4 261.3 215.4 261.5 213.3 261.6 216.5 261.7 216.2 261.9 213.9 262.2 213.3 262.4 211.7 262.7 211.1 262.8 214.4 263 210.2 263.3 210.5 263.5 209.6 263.9 208.3 264.2 211.9 264.6 212.4 264.9 213.5 265 209.1 265.3 212.5 265.6 212 265.8 215.4 265.9 214.1 266.1 214.6 266.3 211.1 266.7 212.1 267 214.8 267.3 216.5 267.5 215.1 267.8 214.7 268 215.1 268.2 214.7 268.7 215 269 215.3 269.4 212.5 270 215.6 270.3 216.3 270.6 212.5 270.8 214.6 271.3 212.7 271.6 213.3 271.8 215.6 272.1 210.7 272.3 205.8 272.6 207.3 272.9 207.2 273.2 207.2 273.6 207.7 273.9 207.9 274.1 210.5 274.3 213.4 274.5 214.1 274.8 213.4 275.1 213.9 275.5 215.7 275.6 223.5 275.7 217.8 276 218.1 276.2 219.9 276.4 215.1 276.6 216.9 276.9 218.9 277.2 216 277.5 218.1 277.9 217.2 278.1 220.5 278.3 223.5 278.4 223.8 278.5 226.1 278.6 226.1 278.7 226.1 278.8 224.1 279 223.2 279.2 225.1 279.3 228.2 279.4 229.9 279.4 232.5 279.4 232.7 279.5 230.1 279.7 229.2 279.8 225.8 280 223.9 280.1 226.2 280.2 225.2 280.4 224.3 280.5 223.9 280.8 224.1 281 222.6 281.2 225.7 281.4 227.2 281.6 228.8 281.7 229.4 281.8 229.3 281.9 229 282 234.6 282.1 234 282.3 235.1 282.5 235.8 282.6 233.9 282.8 238.2 282.8 239.4 282.9 240 283 238.5 283.2 239.2 283.3 236.6 283.4 236 283.8 235.8 283.9 234.6 284.1 239.6 284.3 241.8 284.4 242.4 284.5 240.3 284.7 241.8 284.9 238.4 285.1 236.3 285.2 240.1 285.3 240.7 285.5 240 285.7 238.6 286 240.9 286.2 240.9 286.5 240 286.8 239.1 287 242.9 287.2 244.6 287.3 245.1 287.4 244.8 287.6 244.1 287.8 247.2 288 247.2 288 247 288.1 245.1 288.2 246.7 288.2 248.1 288.3 242.3 288.4 241.9 288.5 240.6 288.7 241.6 288.7 239 288.8 237.7 288.9 235 289 234.5 289.1 231 289.2 229.8 289.3 231.7 289.4 231.3 289.6 229.8 289.7 226.5 289.8 228.5 289.9 229.4 290 230.1 290.2 229.8 290.4 229.1 290.5 231 290.6 228 290.8 230.5 290.9 227.2 291 226.4 291.1 228.2 291.3 228.5 291.5 230.2 291.7 231.4 291.9 229.1 292.1 229.4 292.3 231.3 292.6 230 292.9 231.9 293.2 231.3 293.4 231.6 293.7 234.4 293.9 232.5 294.3 237.3 294.5 238.2 294.8 238.9 295 236.3 295.3 236.7 295.7 233.5 296 233.5 296.4 230.4 296.8 228.3 297.3 232.9 297.8 232.1 298.4 232.8 299 230.9 299.4 231.7 300 230.9 300.5 232.3 300.6 226.3 300.7 230.9 300.8 238 300.9 235.7 301.2 233.6 301.4 229.2 301.9 232.1 302.4 234.1 302.8 228 303.2 228.2 303.5 225.3 303.6 225.9 304 225.9 304.6 227.6 305 227.6 305.6 226.1 306.1 225.3 306.6 227.2 307 228.9 307.6 229.2 308.1 228.5 308.3 231.2 308.6 228.6 308.9 232.7 309 236 309.1 237.9 309.2 237.9 309.3 231.3 309.5 229.8 309.8 230 310.1 229.7 310.5 232.9 310.9 233.4 311.4 231.3 312 230.2 312.5 231.2 313 236 313.4 234.6 313.8 236 314.1 230.1 314.3 229.8 314.4 227.1 314.5 232.4 314.6 230.2 315 230.4 315.2 236.6 315.4 235.5 315.6 236.4 315.7 239 315.8 235.2 315.9 239.1 316 239.8 316.1 237.5 316.2 240.1 316.3 239.9 316.4 238.3 316.5 237.5 316.6 237 316.7 231.6 316.7 226.4 316.8 226.5 316.9 226.9 317 230.6 317.1 232.2 317.2 234.3 317.3 229.5 317.4 225 317.6 225.7 317.6 221.4 317.7 219.6 317.8 225.6 318 226.6 318.2 225.3 318.3 222.2 318.5 222.2 318.6 223.7 318.8 229.2 318.9 228.6 319.1 229.7 319.3 230.2 319.5 226.2 319.7 226.8 319.9 232.1 320.1 234.4 320.2 238.3 320.3 233.1 320.6 232.9 320.9 235.4 321.1 239.8 321.2 238.5 321.4 239 321.7 237.6 321.9 239.7 322.1 237.9 322.3 237.4 322.6 235.2 323 236.8 323.2 236.4 323.6 235.3 323.8 235.5 324.3 234.3 324.6 235.1 325.4 231.8 325.9 233 326.5 233.1 327.1 234.3 327.7 236.2 328.4 235.2 329 237.6 329.6 241.8 330.1 242.1 330.6 240.6 331.1 239.2 331.4 241.9 331.9 242.2 332.4 242.3 332.9 244.4 333.5 244.5 333.8 247.7 334.3 244 334.8 242.9 335.2 242.1 335.7 242.3 336.1 241.5 336.8 241 337.4 241.2 337.9 240.1 338.7 241.9 339.4 241.1 340.1 239.6 340.5 237 341.1 236.8 341.6 236 342.3 236.8 342.8 238.7 343.1 240 343.8 241.4 344.4 242.5 345.2 243.5 345.8 242.8 346.5 239.7 347.2 244.3 347.6 244.7 348.3 241.8 349 239.8 349.6 239.6 350.7 240.8 351.4 243.5 352.1 245 352.8 248 353.1 247.2 353.9 245.9 354.6 245.9 355.6 245.8 356.5 243.9 357.2 242.3 358.1 243 359 243.8 359.5 244.1 360.5 243.9 361.4 245.5 362.1 241.5 362.7 241.2 363.4 241.1 364.2 240.2 364.5 239.1 364.9 237 365.5 237.8 366 237.4 366.6 239.5 367.1 239.3 367.7 239.7 368.4 237.5 368.8 235.4 369.2 238.1 369.6 238.8 370.3 239.4 371 239.7 371.3 235.8 371.6 237.2 372 239.9 372.3 243.8 372.3 247.4 372.6 244 373 243.7 373.1 237.3 373.3 237 373.7 240.2 374.3 240.9 374.7 240.7 375.3 242.3 375.9 239.9 376.4 239.3 377 242.3 377.3 247.8 377.4 247.9 377.6 248.4 377.9 248 378.3 247.9 378.5 251.1 378.9 248.6 379.3 246.6 379.6 253.5 379.8 254.5 380.6 252.6 380.8 254.6 380.9 249 381.2 252.5 381.5 251 381.8 248.8 382.1 247.2 382.3 246.1 382.5 248 382.6 251.4 382.8 252.8 382.9 246.7 382.9 244.8 383 240 383.1 240.8 383.2 241.6 383.3 240 383.4 238.9 383.5 239.6 383.7 242 383.9 238.6 384.1 238.5 384.1 234.6 384.3 235.4 384.3 230.9 384.5 235.4 384.7 235.3 384.9 233.1 385.1 231.3 385.2 232.7 385.4 233.2 385.6 232.2 385.7 229.1 385.9 230.1 386.1 233.2 386.4 234.9 386.6 233.7 387 232.8 387.4 231.8 387.7 232.4 387.9 231 388.1 232 388.6 232.7 388.9 231.3 389.3 236.1 389.6 236.8 390.1 235.8 390.5 240.9 390.7 242.4 390.8 243.9 391 242.3 391.2 242.7 391.4 243.5 391.6 246.9 391.7 250.8 391.8 252.6 391.9 253.6 392 251 392.1 249 392.3 248.7 392.6 247.2 392.9 248.5 393.1 248.7 393.4 248.1 393.6 249.2 393.9 249.7 394.3 251.9 394.6 251.6 395 250.7 395.5 248.5 395.9 249.2 396.4 252 396.7 252.8 397 255.7 397.2 256.5 397.5 255.9 397.6 259.2 397.8 258.6 398.1 256.9 398.2 258.6 398.3 261.7 398.4 258.9 398.5 256.7 398.5 254 398.6 249.4 398.7 252.6 398.9 251.4 399.1 252.2 399.2 252.7 399.4 249.4 399.5 248.4 399.7 247.5 399.8 246.6 400 246.8 400.2 245.2 400.3 247.2 400.4 245.3 400.6 246.9 400.7 241.7 400.7 241.9 400.8 245 401 244.7 401.2 244.5 401.4 244.7 401.7 245.6 401.9 250.5 402 255.6 402 252.5 402.3 251.9 402.6 250.8 402.8 250 403.1 251.2 403.4 253.6 403.7 254.5 404 251.4 404.3 252.8 404.8 251 405 249.2 405.3 252.5 405.6 255.6 406 257.3 406.2 257.1 406.6 258.6 406.9 262 407.2 257.8 407.6 259.2 408.4 262.1 408.8 259.4 409.1 260.6 409.4 260.8 409.6 259 409.9 259.5 410.5 258.2 411 256.5 411.4 260.4 411.8 256.2 412.3 256.6 412.7 258.9 413.1 260 413.4 257.6 413.8 257.4 414.2 255.1 414.6 256.4 415.1 253.2 415.4 250.4 415.5 247.5 415.7 249.3 416.1 251.2 416.5 250.8 416.9 249.6 417.3 246.2 417.7 248.7 418.2 249.6 418.6 247.5 419.1 248.1 419.5 246.7 419.9 247.3 420.2 245.6 420.5 247 420.8 246.8 421.2 245.7 421.6 247.7 422.1 248.7 422.5 247.4 422.8 244.2 423.2 245 423.8 243.8 424.2 242.4 424.6 243.2 424.9 236.3 424.9 240 425 238 425.1 238.4 425.2 238.5 425.5 238.8 425.6 239.4 425.8 237.6 426 234.8 426.1 233.3 426.2 230.1 426.3 232.3 426.4 233.5 426.6 237.4 426.7 240.6 426.9 239.4 427 244.1 427.2 241.1 427.3 233.4 427.5 234.9 427.6 235.9 427.8 230.6 427.8 226.8 428 232.2 428.1 231.8 428.2 230 428.4 227.9 428.5 228.8 428.8 226.5 428.9 227.4 429.2 229.4 429.4 224.7 429.5 227.9 429.7 228.2 429.9 226.5 430.1 226.8 430.3 225.1 430.5 224.7 430.7 226.2 430.9 228.6 431.1 229.3 431.5 229.2 431.8 226.2 432 225.2 432.3 222 432.4 220.4 432.5 219.3 432.7 220.8 432.9 222.7 433.1 225.5 433.3 225.5 433.6 223.6 433.9 222 434.2 221.4 434.5 221.7 434.8 216 434.8 210.6 434.9 198.8 434.9 196.1 434.9 204.4 435 203.3 435 199.1 435.1 196.5 435.3 199.7 435.5 199.2 435.7 196.1 435.9 194.3 436 195.8 436.1 196.2 436.2 198 436.4 201.6 436.5 204.8 436.6 206.6 436.8 206.6 437 203.3 437 202.5 437.2 203.4 437.3 206.6 437.4 205.2 437.6 207.3 437.8 204.9 438.1 203.5 438.2 200.7 438.4 200.3 438.6 201.2 438.9 204.3 439.1 204.3 439.3 206.7 439.5 203.3 439.7 202.1 439.8 203.9 440 203.9 440.2 206.7 440.4 204.4 440.6 207.2 440.8 204.6 441 203.7 441.2 201.3 441.5 201 441.6 199.5 441.7 204.3 441.9 205.4 442.2 204.2 442.4 205.1 442.7 205.5 443 206.3 443.2 210.7 443.4 208.7 443.6 208.1 443.8 207.7 444 209.6 444.2 210.2 444.4 211.4 444.6 213 444.9 209.1 445.1 206 445.4 207.4 445.7 209.6 446 206.6 446.3 206.5 446.7 205.8 447 208.1 447.4 207.9 447.8 205.7 448.2 204.2 448.5 203.1 448.9 204.2 449 208.5 449.2 209.3 449.5 207.8 449.8 210.9 449.9 212.7 450 215.2 450.2 212.3 450.4 211.7 450.7 212.5 450.8 211.9 451.2 210.6 451.5 212.6 451.8 212.7 452.1 215.9 452.3 214.5 452.6 215.9 452.8 217.2 452.9 220.5 453 221 453.2 215.7 453.4 212 453.5 214.3 453.6 214.8 453.7 215.1 453.8 214.6 453.8 211.3 453.9 212.6 454 208.4 454 208.3 454.1 205.8 454.2 209.7 454.3 212.3 454.4 209.7 454.5 206.8 454.7 206.9 454.8 210.4 455 212.9 455.2 209 455.4 207.5 455.6 205.4 455.7 201.6 455.8 202.8 455.9 204.5 456 202.1 456 205.5 456.1 202.5 456.3 203.1 456.4 206.4 456.6 206.3 456.8 206.5 456.9 207.5 457.1 209.9 457.2 215.3 457.4 212.3 457.5 215.9 457.7 217.7 457.9 217.4 458 218.2 458.2 218 458.3 224.4 458.4 225.3 458.6 227.9 458.7 223.5 458.7 221.7 458.8 222.5 458.9 221.9 459.1 221.7 459.2 217.1 459.4 216.2 459.4 215.8 459.7 214.3 459.8 217 460 214.9 460.1 213.9 460.3 214.7 460.6 215.2 460.8 214.7 461 216.2 461.2 216.2 461.5 217.8 461.9 216 462.2 220.4 462.4 218.4 462.8 219.6 463 224.3 463.4 224.2 463.7 220.6 463.9 221.1 464.2 221.9 464.6 221.9 464.8 222.2 465 222.2 465.1 222.8 465.4 221.7 465.5 224.2 465.6 227.2 465.8 222.5 466 226.1 466.2 228.1 466.4 229.5 466.5 227.1 466.7 231 466.9 229.5 467.1 232.5 467.4 231.7 467.6 233.8 467.7 232.6 467.9 235.4 468 236.1 468.2 236.1 468.4 239.3 468.5 241.1 468.7 243.8 468.8 244.9 468.9 245.4 469 245.6 469.2 245.3 469.4 243 469.6 242.6 469.7 240.9 469.8 240.2 470.1 240.9 470.4 240 470.5 238.5 470.9 239.3 471.2 237.9 471.6 238.8 471.9 238 472.3 240.4 472.7 239.1 473.1 235.6 473.4 233.3 473.7 234 474 236 474.4 236.6 474.7 235.2 475.2 236.9 475.7 233.6 475.8 231.6 476.1 231.6 476.6 231.8 476.9 235.1 477.4 235.1 477.9 237.9 478.5 236.3 478.9 236.3 479.4 234.2 479.8 233.6 480.2 233.5 480.5 231.3 480.9 230.9 481.1 232.7 481.3 236 481.4 237.6 481.5 239 481.5 238.5 481.6 241.6 481.7 236.8 481.9 238 482.1 239.4 482.2 242.1 482.3 246 482.5 245.6 482.6 249.2 482.7 251 482.7 255.2 482.8 255 482.9 256.6 483 248.3 483.1 252.6 483.3 251.8 483.4 250.7 483.5 252.8 483.7 252.5 483.9 247.8 484.1 247.5 484.3 248.3 484.4 248.4 484.6 248.6 484.8 244.8 485 244.2 485.2 250.4 485.4 250.7 485.5 254.4 485.7 255.4 485.9 253.7 486.1 258.8 486.2 256.9 486.4 256 486.5 257.9 486.7 257 486.9 258.3 487.1 257.6 487.3 259.1 487.5 255.7 487.7 253.8 487.9 252.6 488.1 254.4 488.3 255.1 488.6 256.7 488.9 255.5 489.3 254.3 489.9 253.2 490.3 251.9 490.8 251.6 491.4 251.8 492 253 492.5 251.6 493 251.1 493.6 251.9 494 249.6 494.5 249 494.8 252.6 495.1 249.1 495.6 248.6 496 250.4 496.4 251.8 496.8 251.8 497.3 251.9 497.5 254.6 497.7 255.7 498 254.9 498.3 253.4 498.7 250.7 498.9 248.6 499.3 250.8 499.6 249.6 500.1 248.4 500.5 246.2 500.9 247.4 501.2 248 501.6 246.5 501.8 246.4 502.1 245.4 502.4 242.6 502.7 242.8 503 243.6 503.6 242.4 504.1 245.6 504.7 245.1 505.2 246.2 505.7 245.5 506.2 245.3 506.8 247.1 507.3 250 507.7 250.1 508 251.6 508.4 250.5 508.8 251.1 509 248.3 509.1 248.3 509.3 248 509.5 251.3 509.7 246.8 509.8 249 509.9 255.9 509.9 254.5 510 256.6 510.1 259 510.1 260.8 510.2 258.9 510.2 261.1 510.4 264.6 510.4 264.4 510.5 262.2 510.7 260.2 510.8 257.7 511 254.3 511.1 254.1 511.3 252.9 511.5 253.7 511.7 256.1 512.1 256.6 512.3 256.6 512.6 252.3 512.9 250.5 513 250.2 513.3 249.8 513.6 250.5 513.9 252 514.2 253.8 514.5 254.8 514.7 250.6 515.3 254.4 515.6 250.8 515.8 247.7 516.2 245.1 516.4 243.6 516.5 240.6 516.7 239.4 516.7 236.4 516.9 237.7 517.1 239.6 517.4 239.7 517.7 240.6 518.1 240.8 518.5 239.7 518.9 237 519.1 235.2 519.5 236.2 519.8 236 520.2 239.2 520.7 237.6 521.1 239.6 521.6 240.5 522.4 242.3 522.9 243.3 523.7 241.3 524.5 242.5 525.5 240 526.1 239.4 526.8 241.5 527.5 241.2 528.2 242.3 529 240 529.6 239.6 530.3 239.6 531 241 531.5 243.5 531.9 241.9 532.6 243.8 532.9 243.7 533.6 245.4 534.1 242.6 534.6 241.7 535 243.6 535.3 243.5 535.8 243.9 536.3 244.3 536.9 239.7 537.4 238.2 537.8 238.4 538.2 238.2 538.6 239.8 538.8 243 539.1 245.3 539.5 245 540 244.2 540.6 246.8 541 245.7 541.5 245.6 542 243.9 542.6 244.4 543.2 243.2 544.2 246 545 246.5 545.7 249.3 546.2 250.8 547.1 250 547.7 247 548.1 244.8 548.7 249.3 548.8 254 549.2 252 549.7 251.7 550.3 251.6 550.7 252.6 551.5 251.3 552.2 254.8 552.8 254.7 553.5 253.4 554.5 252.6 555.7 256.7 556.5 253.2 557.4 252.7 558.2 253.2 559 254.2 559.6 252.5 560.3 252.2 561 251.8 561.7 252.5 562.5 254.4 563 255.1 563.5 255.8 563.8 251.4 564.3 253.7 564.7 256.8 564.9 256.4 565.4 254 566.1 252.8 566.7 253.2 567.4 254.6 568 254.4 568.7 251.1 568.9 246.9 569.4 246.7 570.1 250.8 570.6 253.1 571.1 248.1 571.9 248.9 573 249.2 574 253.2 574.2 257.2 574.3 263.5 574.4 261 574.5 269.8 574.5 264.3 574.6 268 574.6 268.8 574.7 270.3 574.8 275 574.8 280.2 574.8 280.3 574.9 279.1 575 285 575.1 302.5 575.1 326.8 575.1 326.7 575.1 309.3 575.1 303 575.2 303.6 575.2 304.4 575.2 307.4 575.3 311.5 575.3 312.3 575.4 310 575.4 315.4 575.5 312.7 575.6 315.7 575.6 311.6 575.7 310 575.7 313.1 575.8 310.3 575.9 308.9 576 309.7 576.1 310.3 576.2 314 576.4 308.4 576.6 307 576.7 308.9 576.8 307.7 576.9 305.3 577 307.4 577.2 309.1 577.3 306.7 577.4 304.1 577.6 304.9 577.8 304.1 578.1 303.8 578.3 303.7 578.5 303.4 578.9 302.8 579.2 301.4 579.6 302.4 579.9 302 580.3 302.9 580.7 304.4 581.1 307.5 581.4 306.1 581.5 305.8 581.7 306.6 582 307.9 582.4 305.6 582.8 306.2 583.1 305.8 583.5 304.7 584 304.5 584.5 304.7 584.8 303.2 585.2 302.4 585.6 305.3 586 303.5 586.7 305 587.3 305.7 587.5 305.8 588.1 305.3 588.4 304.8 588.6 302 588.9 303.5 589 305.2 589.4 306.6 589.8 307.2 590.2 304.9 590.6 306.9 591.1 307 591.4 304.6 591.8 302.2 592.3 301.5 592.8 303.7 593.2 304.6 593.8 303.9 594.1 302.6 594.4 301.6 594.7 299.3 595 297.7 595.4 300.1 595.9 298.9 596.5 293.8 596.9 294.2 597.3 289.6 597.8 289.2 598.3 292.1 598.7 293.2 599.2 292.6 599.5 295.5 600.2 296.1 600.6 298.7 601 300.1 601.5 299.8 602 298 602.3 295.9 602.8 297.4 603.2 298.3 603.8 299.3 604.1 298.1 604.5 296.3 604.9 297.8 605.4 300.7 605.8 298.6 606.2 299.5 606.7 301.2 607 299.7 607.5 302.9 608.1 301 608.4 300.7 608.6 300.9 609 300.7 609.2 298.5 609.4 294.5 609.7 298.7 610 302.3 610.3 303.2 610.6 302.4 611.1 303.4 611.7 306.2 612.1 308.3 612.3 307.7 612.6 311.5 612.9 311.9 613.2 310.8 613.7 312.7 614.4 309.5 615.1 312.7 615.8 313.4 616.5 315.4 616.9 314.4 617.2 316.1 617.3 314.5 617.8 318.6 618.3 318.6 618.7 321 619.2 317.8 619.5 307.7 619.7 312.1 620 316.2 620.2 315.5 620.5 317.9 620.9 316.9 621.4 314.1 621.8 320.6 622.1 322.3 622.7 321.2 623.2 324.1 623.7 323.8 624.2 326.2 624.8 326.3 625.4 326 626 321.1 626.8 321.8 627.7 325.2 628.5 326.9 628.7 330 629.2 329.9 629.7 328.9 630.2 329.5 630.6 327 631 323 631.4 318.7 631.9 318.1 632.6 315.8 633.2 316.2 634 316.5 634.9 317.3 635.6 315.9 636.2 316.1 637 314 638.1 313.8 639 314 639.8 311.9 640.8 315.1 641.9 312.7 642.9 316.4 643.7 316.4 644.2 322.5 644.4 325 644.7 325.9 645.3 320.6 645.9 322.2 646.4 324.5 646.6 315.8 646.8 312.1 647 307.8 647.2 310.6 647.5 309 647.7 308 648.1 309 648.5 305.8 648.9 305.8 649.2 308.8 649.5 316.1 649.6 317.1 649.8 321.8 649.9 317.8 650.1 324.4 650.4 324.2 650.7 322.6 651 323.9 651.5 324.1 651.9 318.4 652.4 319 652.7 310.9 652.7 309.7 652.9 304.7 653 299.5 653.1 301.5 653.3 298.6 653.5 302 653.6 303.9 653.9 307 654.3 301.8 654.6 300.4 655 300 655.4 301.9 655.6 301.1 656 304 656.5 305.2 656.9 305.7 657.5 309.2 657.8 310.4 658.2 308.9 658.7 305.9 659.4 303.8 660.2 303.2 660.6 302.2 661.5 301.6 662 307.4 663 306.5 663.8 305.9 664.6 306.8 665.2 309.7 665.6 308.6 666.2 308.5 666.6 309.4 667.1 310.6 667.4 311 667.8 311.8 668.3 308.9 668.8 309.1 669.6 308.3 670 309.1 670.6 310.3 671 312.5 671.5 311.9 672 313.4 672.7 314.4 673.4 313 673.5 314.2 673.8 315.7 674 318.4 674.5 319.7 674.7 321.1 674.8 318.5 674.9 323.6 675 322.8 675.2 321.5 675.3 322.7 675.4 321.1 675.6 323.6 675.7 324.5 675.8 323 676 318.9 676.2 320.5 676.4 317.5 676.6 318.5 676.9 316.8 677.2 314.2 677.4 315.7 677.6 316.1 677.9 316.5 678.4 314.5 678.8 315.7 679.3 315.4 679.8 319.6 680.3 316.8 680.9 316.7 681.5 318.9 682.1 320.1 682.6 317.8 683.3 320.2 684 321.1 684.7 320.3 685.5 320.9 686.2 319.7 686.8 315.9 687.3 314 688 313.1 688.4 313.6 689.2 312.4 689.8 310.1 690.5 310.4 691.1 308 691.7 307.2 692.1 306.7 692.6 304.3 693 306.5 693.6 307.4 694.3 307 695.1 305.9 695.6 309.4 696.2 309.3 696.8 309.5 697.5 309.9 698.2 310.6 699.2 308.4 700.4 309.8 701.2 311.8 701.7 310.8 702.2 314.8 702.3 316.1 702.4 317.5 702.5 322.3 702.6 319 702.8 317.6 703 319.6 703.2 315.1 703.4 316.4 703.6 314.8 703.8 312.3 704 310.3 704.3 312.3 704.6 310.7 704.8 306.8 705 309.4 705.4 309 705.6 304 705.7 303.4 705.8 301.6 706 304.4 706.3 306.1 706.6 304.3 706.9 304.7 707.4 307.6 707.7 311.2 707.8 310.6 708 314.5 708.2 312.4 708.5 314 708.8 312.1 709.1 315.8 709.3 316.9 709.5 318.1 709.7 315.1 710.3 315.6 710.8 314.3 711.5 313.1 712.2 313.6 712.9 314.6 713.4 313.3 714 314 714.8 315 715.4 313.4 715.8 309 716.3 312 716.8 309.7 717.3 308.8 717.9 309.2 718.5 311.5 719.2 311.3 720 310.6 720.9 309.8 721.9 310.3 722.7 309.1 724 310 725.3 307.1 726 304.7 726.4 299.8 726.6 294.6 726.7 297.7 726.8 298.5 726.9 301.9 727.2 302.9 727.6 303.4 728.2 304.8 728.6 306.5 729 304 729.3 305.8 729.7 306.3 730.2 301.4 730.7 301.6 731.1 306.7 731.3 305.7 731.5 305.9 731.8 309.1 732.1 309.5 732.5 307.4 733 308.1 733.6 307.7 733.9 309.2 734.5 308.3 735.5 310.3 736.2 310.1 737 309.1 737.8 308 738.4 309.3 738.8 306.6 739.7 304.6 740.1 302.9 740.9 304 741.3 305.3 741.8 302.6 742.3 305.5 742.8 306.4 743.4 305 744 307.2 744.6 311 744.8 311.7 745.2 312.4 745.6 312.2 746.1 311.4 747 311.9 747.7 311.2 748.4 311 749.1 313.7 750 311.2 750.5 310.3 750.7 314.2 751.1 313.1 751.7 312.1 752.2 312.3 752.8 310.8 753.3 313.1 753.8 314 754.5 314.9 754.9 318.1 755.2 317.1 755.8 315.4 756.5 316.2 757.2 318.1 757.5 319.1 757.9 319.1 758.4 318.5 758.9 321.7 759.2 322.4 759.2 322.8 759.3 326.5 759.4 329.3 759.5 328.2 759.6 330.7 759.8 330.4 760.1 330.4 760.4 329.4 760.6 330.2 760.9 329.4 761.2 329.1 761.7 333.3 761.8 332.3 761.9 334.5 762.1 335.7 762.3 338 762.5 335.5 762.8 335.8 763 340.8 763 339.6 763.1 343 763.2 343.5 763.3 341.5 763.5 344.1 763.6 347.2 763.8 345 764 344.7 764.3 347.3 764.6 346.5 764.9 344.4 765.1 342.9 765.5 341.6 766 341.9 766.4 344.8 766.9 344.3 767.3 342.1 767.6 340.7 768 341.8 768.4 339.9 768.7 336.5 769.2 340 769.5 334.6 769.8 328.9 770 329.6 770.3 326.7 770.7 327.4 771.3 327.1 772.1 328.7 772.8 332.5 773.5 326 774.4 329.1 775.4 328 776.2 326.6 776.8 325.7 777.6 325.3 778 323.8 778.8 326.5 779.4 327.3 780.4 323.9 781.6 323.9 782.5 320.6 783.5 322.4 784.4 319.6 784.8 323.2 785.1 322.3 785.1 317.7 785.2 317.8 785.5 319.1 785.8 311.6 786 311.9 786.2 315.6 786.4 319.7 786.5 321.2 786.8 316.8 787.1 319.3 787.4 315 787.7 313.4 788.2 317.2 788.5 319.6 789 313.6 789.3 311.1 789.6 305.3 789.7 307.9 790 309 790.2 304.3 790.6 307.5 791.1 307.5 791.6 308.8 792.1 310.4 792.5 314.3 793 313.8 793.3 310.3 793.4 309.5 793.9 308.6 794.5 312.4 795.4 311.6 796.3 313.6 797 312.4 797.7 310.9 798.2 312.1 798.6 311.7 799.2 311.5 799.8 312.3 800.5 314.5 801.1 313.4 802 315.8 802.5 315.2 803.6 318.6 804.2 318.1 804.8 316.7 805.5 317.9 806.3 318.8 807 319 808 319.2 808.9 320.6 809.6 320.5 810.7 324.5 811.6 322.7 812.3 322.3 812.7 322.3 813 326.2 813.3 323.3 813.8 326.5 814.2 320.9 814.5 316.6 814.6 313.1 814.8 314.9 815.1 312 815.4 314.2 815.7 319 815.9 323.8 816.1 319.8 816.3 324 816.5 325.9 816.7 321.2 817 322.3 817.3 323 817.7 318.5 818 318.5 818.5 318.7 818.9 316 819.3 313 819.5 310 819.8 310.7 820.1 309.2 820.4 311.4 820.9 313.3 821.3 313.3 822 313 822.8 311.5 823.5 310.6 824.2 313.1 824.8 309.5 825.3 312.2 826.1 311.6 826.9 311.9 827.5 312.5 828.3 314.8 828.9 315.2 829.5 313.2 830.5 311.2 831.1 309.9 831.7 308.6 832.5 310.3 833.3 312 834.1 310.8 834.7 306.5 835 307 835.4 307.9 836 310 836.7 308.8 837.1 309.5 837.4 307.3 837.8 309.6 838.3 310.8 838.8 310 839.2 310.2 839.8 311.4 840.1 313.8 840.5 313 840.8 312.2 841.1 317.3 841.3 316.3 841.5 315.6 842.1 319.1 842.4 318.5 842.7 317.3 843.1 317.5 843.7 318.9 844.1 313.4 844.3 315.5 844.8 314.9 845.4 312.8 845.6 314.2 846 313.6 846.3 313.6 846.6 312 847 311.3 847.3 313 847.7 311.9 847.8 315.4 847.9 310.1 848 311.6 848.3 311.8 848.5 312 848.8 311.1 849.2 312 849.6 307.9 850.1 307.1 850.4 307.9 850.8 311 851.3 312.1 851.6 314.6 851.9 315.7 852.3 315 852.7 314.9 852.8 318.9 853 318.1 853.3 319.3 853.6 320.3 854.1 321.5 854.1 326.2 854.2 324.4 854.3 325.1 854.4 327.8 854.7 324.3 855 324.9 855.4 326 855.9 327.6 856.1 329.8 856.6 328.3 857.1 328.1 857.7 325.9 858.2 325.9 858.8 325.4 860 324.8 860.7 327.3 861.3 325.9 862.2 326.7 862.6 326.6 863.7 328 864.2 331.7 864.9 330.8 865.7 333.1 866.5 332.3 867.1 332 867.7 334.4 867.9 337.4 868 338.5 868 337.6 868 341 868.1 340.3 868.3 341.2 868.4 346.4 868.5 350.6 868.6 352.7 868.6 353.3 868.7 361 868.7 358.1 868.7 361.7 868.8 359.2 868.9 356.9 868.9 354.7 869.1 353.7 869.2 357.7 869.4 357.6 869.5 355.3 869.6 353.7 869.6 358.6 869.7 359.6 869.8 357.5 869.9 356.6 870.1 357.4 870.2 358.4 870.3 357.2 870.5 354.2 870.6 352.8 870.8 348.4 871 347.5 871.1 345.4 871.3 350.3 871.6 351.4 871.8 353.5 872 352.9 872.2 358.2 872.3 357.1 872.5 357.5 872.7 357.2 872.9 360.8 873 362.2 873.2 362.3 873.4 359.6 873.6 358.6 873.7 355.9 874 355.7 874.3 356.3 874.8 354.9 875.1 352.6 875.3 351.4 875.6 350.3 875.9 351.2 876.4 352.1 877.1 351.7 877.9 354.4 878.5 354.1 879.3 353.2 879.8 351.4 880.1 348.7 880.5 349.2 880.7 352.3 880.7 358.8 880.8 364.3 880.8 359.6 880.8 359.2 880.9 357.8 881 357.4 881 356.1 881.1 357.4 881.3 361.1 881.5 363.2 881.7 365.8 881.9 359.2 882.3 362.7 882.8 362.8 883.4 363.8 883.8 360.9 884.2 358.9 884.9 359.5 885.4 360.1 886 362.2 886.5 365.3 886.8 366.2 887.1 359.9 887.7 361.9 888.3 360.3 888.9 361.8 889.5 363.5 890.1 365.6 890.7 361.2 891.4 360.1 892.2 359.9 892.5 352 893 352 893.1 354.1 893.7 355.1 894.2 356 894.3 357.5 894.4 356.6 894.7 359.7 895.1 356.9 895.3 355.1 895.5 356.2 895.6 353.1 895.7 351.8 895.9 354.1 896.1 355.6 896.2 353.6 896.4 356.4 896.6 359.5 896.7 358 896.8 353.6 896.9 352.4 897.1 353.9 897.3 353.6 897.6 355.3 897.8 353.7 897.9 350.2 898.1 352 898.4 354.9 898.6 356.3 898.8 351.2 899 352.9 899.3 350.1 899.4 350.9 899.6 350.8 899.8 356.3 899.9 360.8 900 360.4 900 355 900.1 356.9 900.2 354.2 900.3 351.1 900.4 347.5 900.4 347 900.5 348.2 900.6 345.9 900.7 342.1 900.8 341 900.9 343.6 901.1 341.1 901.2 343.8 901.4 345.8 901.7 345.4 901.9 350.5 902.1 348.5 902.3 350.5 902.4 351.1 902.5 349.9 902.6 351.9 902.6 350.5 902.8 352.3 903 352.8 903.2 351.9 903.4 349.7 903.6 352.7 903.9 350.6 904.2 352 904.5 353.7 904.7 354.4 905.2 351.3 905.8 353.8 906.2 350.8 906.6 352.3 907.1 353.9 907.6 354.4 907.9 353.3 908.2 354.2 908.5 353.9 909 355.3 909.5 350.6 910.1 351.6 910.9 351.3 911.8 352.9 912.5 353.3 913.1 352 913.8 356.9 914 358 914.5 357.2 915 359 915.2 363.5 915.6 361.1 915.9 364.4 916 365.1 916.2 367.1 916.3 369.2 916.4 368.5 916.5 370.1 916.6 367.7 916.8 366.7 917.1 365.8 917.4 365.5 917.7 367.7 918.2 369.5 918.7 366.2 919.4 369.7 920 370.9 920.5 372.2 920.9 372.5 921.2 373.3 921.6 374.5 921.9 377.3 922 377 922.1 378.2 922.3 378.7 922.4 377.5 922.6 377.9 922.7 380.6 922.8 382 922.9 383.4 922.9 386 923 388.9 923 393.1 923 393.6 923.1 395.3 923.1 398.6 923.2 395.6 923.2 397.3 923.3 397.5 923.3 401 923.4 398.4 923.5 398.2 923.6 395.5 923.7 395.8 923.9 392.8 924.1 395.2 924.3 393.7 924.6 396.1 924.8 398 925 397.5 925.2 392.9 925.2 392.2 925.4 394.8 925.7 396.7 925.8 398.5 925.9 400.4 926.1 401.4 926.2 409.2 926.2 412.4 926.2 419.1 926.2 412.7 926.2 412.3 926.3 411.2 926.4 413.4 926.4 415.5 926.5 414.6 926.6 415.9 926.7 410.9 926.8 415.4 926.9 416.4 927 414.1 927 409.4 927.1 413 927.1 412.8 927.2 415 927.4 417 927.5 419.5 927.6 417.7 927.7 417.9 927.8 421.4 927.9 423.7 927.9 423.6 927.9 431.8 928 431.6 928 420.8 928 419.9 928.1 421.8 928.1 418.4 928.2 421.9 928.3 421.3 928.4 417.3 928.6 418.3 928.7 421.5 928.9 420.7 929.1 421.2 929.4 419.4 929.6 419.3 929.8 417.5 930.1 421.9 930.3 421.1 930.6 418.6 930.8 417.2 931.1 415.6 931.3 409.9 931.5 410.3 931.7 410.9 931.9 412 932.2 412.9 932.6 414.2 933 412.4 933.3 408.8 933.3 407.2 933.5 406.4 933.7 407.5 933.9 405.8 934 405.8" opacity=".6"/><text x="942" y="472" fill="#d97706" font-size="11" text-anchor="start">0.05</text><text x="942" y="396" fill="#d97706" font-size="11" text-anchor="start">0.06</text><text x="942" y="320" fill="#d97706" font-size="11" text-anchor="start">0.07</text><text x="942" y="244" fill="#d97706" font-size="11" text-anchor="start">0.08</text><text x="942" y="168" fill="#d97706" font-size="11" text-anchor="start">0.10</text><text x="942" y="92" fill="#d97706" font-size="11" text-anchor="start">0.11</text><text x="942" y="80" fill="#d97706" font-size="11" font-weight="600" text-anchor="start">price</text><polygon fill="#16a34a" fill-opacity=".08" points="97.8 468 97.8 400.3 97.8 381.5 105.9 359.7 110.1 366.8 112.5 338.8 114.2 317.9 114.5 325.2 116.9 335 131 296.2 140.9 303.6 151.7 313.4 156.4 326.5 159.1 343.9 161 351 177.9 323 178.2 330.1 178.6 339.5 178.6 352.1 179.6 302.4 179.7 309.5 180 281.5 180.5 260.6 180.8 267.6 182.1 277.1 193.6 239.8 198.9 247.1 206.5 257 230.5 218.2 231.2 196.4 231.6 203.7 234.1 174.6 234.6 182 275.6 152.9 379.6 131.9 382.3 139 382.7 148.4 382.9 161 391.8 177.7 400.5 184.8 401.9 194.2 420.1 206.8 434.8 157.1 434.9 164.2 450 173.6 455.6 186.2 457.2 202.9 458.4 210.3 459.4 220.1 463.1 233.1 482.8 181.4 574.5 188.8 575 159.7 575.1 167 575.1 138 575.1 116.1 575.5 123.5 575.8 133.3 617.7 146.4 619.5 163.8 620.1 171.2 647 181 649.5 194 652.7 211.5 653 218.5 657.5 227.9 705.6 240.5 707.4 257.2 726.3 264.3 731.8 273.7 761.7 236.5 763.5 243.8 768.7 253.6 785.8 214.9 786.4 222.2 789.2 232 806.5 245.1 815.2 262.5 868 241.5 868.4 248.9 880.8 219.8 880.8 226.9 900.7 198.9 901.9 206.3 921.3 177.2 923 156.2 926.1 163.6 927.9 134.5 928 141.6 928 468"/><polyline fill="none" stroke="#16a34a" stroke-linejoin="round" stroke-width="2" points="97.8 400.3 97.8 381.5 105.9 359.7 110.1 366.8 112.5 338.8 114.2 317.9 114.5 325.2 116.9 335 131 296.2 140.9 303.6 151.7 313.4 156.4 326.5 159.1 343.9 161 351 177.9 323 178.2 330.1 178.6 339.5 178.6 352.1 179.6 302.4 179.7 309.5 180 281.5 180.5 260.6 180.8 267.6 182.1 277.1 193.6 239.8 198.9 247.1 206.5 257 230.5 218.2 231.2 196.4 231.6 203.7 234.1 174.6 234.6 182 275.6 152.9 379.6 131.9 382.3 139 382.7 148.4 382.9 161 391.8 177.7 400.5 184.8 401.9 194.2 420.1 206.8 434.8 157.1 434.9 164.2 450 173.6 455.6 186.2 457.2 202.9 458.4 210.3 459.4 220.1 463.1 233.1 482.8 181.4 574.5 188.8 575 159.7 575.1 167 575.1 138 575.1 116.1 575.5 123.5 575.8 133.3 617.7 146.4 619.5 163.8 620.1 171.2 647 181 649.5 194 652.7 211.5 653 218.5 657.5 227.9 705.6 240.5 707.4 257.2 726.3 264.3 731.8 273.7 761.7 236.5 763.5 243.8 768.7 253.6 785.8 214.9 786.4 222.2 789.2 232 806.5 245.1 815.2 262.5 868 241.5 868.4 248.9 880.8 219.8 880.8 226.9 900.7 198.9 901.9 206.3 921.3 177.2 923 156.2 926.1 163.6 927.9 134.5 928 141.6"/><line x1="88" x2="110" y1="102" y2="102" stroke="#16a34a" stroke-width="2.5"/><text x="116" y="106" fill="#374151" font-size="11.5">equity</text><line x1="88" x2="110" y1="118" y2="118" stroke="#d97706" stroke-width="2.5" opacity=".8"/><text x="116" y="122" fill="#374151" font-size="11.5">price</text><text x="78" y="502" fill="#6b7280" font-size="12" text-anchor="start">2026-01-01</text><text x="934" y="502" fill="#6b7280" font-size="12" text-anchor="end">2026-01-31</text></svg>