<svg xmlns="http://www.w3.org/2000/svg" width="1000" height="520" font-family="ui-sans-serif, system-ui, sans-serif" viewBox="0 0 1000 520"><rect width="1000" height="520" fill="#fff"/><text x="78" y="28" fill="#111827" font-size="18" font-weight="700">Zone Recovery — 1000PEPEUSDC best setting (equity / PnL)</text><text x="78" y="48" fill="#6b7280" font-size="12.5">lev 20 · ratio 2 · gap 20% · maxSteps 4 · maxDD 20% · random · vip 9 · 1073 series, 88.1% win · vol $96865642 ($96866013/day) · fees $8195</text><text x="78" y="68" fill="#1d4ed8" font-size="12.5" font-weight="600">USDC · BNB −10% · taker 0.0085%</text><text x="934" y="28" fill="#16a34a" font-size="18" font-weight="700" text-anchor="end">+114369 USDT (+1143.69%)</text><line x1="78" x2="934" y1="468" y2="468" stroke="#e5e7eb" stroke-width="1"/><text x="68" y="472" fill="#6b7280" font-size="12" text-anchor="end">0.00</text><line x1="78" x2="934" y1="392" y2="392" stroke="#e5e7eb" stroke-width="1"/><text x="68" y="396" fill="#6b7280" font-size="12" text-anchor="end">28519</text><line x1="78" x2="934" y1="316" y2="316" stroke="#e5e7eb" stroke-width="1"/><text x="68" y="320" fill="#6b7280" font-size="12" text-anchor="end">57038</text><line x1="78" x2="934" y1="240" y2="240" stroke="#e5e7eb" stroke-width="1"/><text x="68" y="244" fill="#6b7280" font-size="12" text-anchor="end">85558</text><line x1="78" x2="934" y1="164" y2="164" stroke="#e5e7eb" stroke-width="1"/><text x="68" y="168" fill="#6b7280" font-size="12" text-anchor="end">114077</text><line x1="78" x2="934" y1="88" y2="88" stroke="#e5e7eb" stroke-width="1"/><text x="68" y="92" fill="#6b7280" font-size="12" text-anchor="end">142596</text><line x1="78" x2="934" y1="441.4" y2="441.4" stroke="#9ca3af" stroke-dasharray="6 4" stroke-width="1.5"/><text x="934" y="435.4" fill="#6b7280" font-size="11" text-anchor="end">start 10000</text><polyline fill="none" stroke="#d97706" stroke-linejoin="round" stroke-width="1.2" points="78 120.9 78.7 120.8 80.3 119.9 81.1 119.7 82.2 120 82.8 120 83.2 119.7 84.6 119.8 85.8 120.3 87.1 120.5 88.2 120.1 88.9 119.5 90.6 119.9 92.1 120.2 93.5 119.9 94.8 119.3 96 119.3 97.3 120.2 98.3 120.1 99.8 120.1 101.1 119.7 102.6 119.6 103.8 120.1 105.4 120.7 106.8 121.2 108.1 121.3 109.2 120.6 110.9 120.6 112.7 121 114.2 120.6 115.4 120 116.3 119.4 117.3 118.6 118.6 119.2 119.9 119.3 121.3 119.4 123.1 119.5 124.8 119.3 126.4 119 127.9 119.6 129 119.4 130.9 118.8 132.4 119.7 133.8 119.6 135.4 120.1 137 120.5 138.3 121 139.9 120.3 141.3 120.6 143 120.4 144.3 120.5 145.2 119.7 146.3 120.4 146.8 120.5 148.3 120.1 149.2 120.1 150.3 120.3 151.2 120.7 152 121 153 121.7 153.7 121.8 154.4 122.2 155 121.9 155.5 121.5 156.3 121 157.3 120.5 158.6 119.9 159.7 119.8 160.7 118.9 161.4 118.5 162.4 118.9 163.6 118.8 164.9 119.7 166.7 119.7 167.9 120.3 168.6 120.8 169.7 121.2 171 121.3 172.4 121.1 173.7 120.7 175 120.8 176.1 121 177.4 121.9 178.6 121.2 179.5 121.3 180.4 121.2 181.2 121.7 182.1 121.5 183.7 121.6 185.3 121.6 186.4 122.5 187.4 123.3 188.1 123.7 189 123.5 191 123.9 192.2 123.7 193.3 123.3 194.4 123 195.4 123.3 196.5 122.5 197.3 121.4 198.1 120.3 199 120.4 199.4 120.3 200.2 119.2 200.6 118.4 201.1 118.9 201.6 118 202.3 117.4 202.9 116.6 203.1 116 203.4 116.3 203.6 116.2 204 115.6 204.3 116.3 204.8 116.3 205.2 116.4 205.5 116.2 205.9 115.6 206.4 116 207.1 115.9 207.7 115.4 208 115.4 208.5 115.2 209.1 115.9 209.5 115.7 210.1 115.2 210.7 115.5 211.2 115.5 211.8 114.9 212.4 114.5 212.9 114.7 213.7 114.5 214.2 114.6 215 115.2 215.6 115.4 216.1 115.9 216.7 115.9 217.5 116.8 217.9 117.4 218.1 118.2 218.5 118 219 118 219.8 117.2 220.8 117.1 221.2 116.8 222 116.6 222.8 116 223.6 115.8 224.5 115.9 225.5 114.7 226.5 115.5 226.8 116.3 227.3 116.8 228.2 116.3 228.7 116.3 229.8 116.7 230.8 117 231.5 117.2 232.5 118 233.3 117.6 234.4 117.6 234.8 117.7 235.6 118.3 236.3 118.8 236.9 118.9 238 118.7 239.5 118.3 240.5 118.6 241.2 119.4 242.1 120.1 243.2 119.9 244.2 119.6 245.7 120.3 247 119.9 248.2 119.6 249.5 120 251.7 119.4 252.7 118.7 254 119.2 255.2 118.8 256.6 118.4 257.9 119.1 259 120.1 259.6 120.5 260.4 120.7 260.9 119.7 261.9 119.9 262.5 120.4 263.5 120.6 264.5 120 265.5 119.9 266.7 119.8 268 120 269.2 119.4 270.3 118.5 271.1 118.1 272 117.6 272.8 118.1 273.8 118.1 275 119.1 275.8 119.4 276.8 119.5 277.8 119.7 279.1 119.4 280.5 118.5 281.9 117.5 283.1 117.1 283.8 116.1 284.8 116.3 285.7 115.9 286.6 115.6 287.1 116.2 288 115.6 289.1 114.9 289.8 115.6 291.5 115.9 292.6 115.1 293.2 115.4 293.9 115.4 294.9 115.2 296 115.3 297.1 115.2 298.1 115.9 299.1 116.7 300 116.1 301.2 115.7 302.4 116.4 303.8 116.8 305 117.2 306 117.1 307.7 117.5 309 117.7 310 117.5 310.8 117.1 311.8 117.9 312.7 116.5 313.3 117.4 313.9 118.2 314.3 118.5 314.9 119 315.7 118.6 316.7 117.7 317.9 118 318.9 118.3 319.7 117.8 320.7 119 321.7 119.6 322 119.9 322.5 120.8 323 121.1 323.6 120.8 324.7 120.1 325.7 119.9 326.9 119.2 328.2 118.9 328.7 120.2 329.3 119.9 330.4 120.6 331.1 120.3 332 121.1 332.9 121.5 333.6 120.4 334.7 120.2 335.6 120.1 336.7 120.3 337.5 120.5 338.3 121.2 339.1 121.2 339.9 120.3 340.8 120.1 341.5 120.7 342.1 121.2 343.1 121.3 343.8 120.1 345.4 119.7 346.2 120.1 346.8 120.9 347.6 121.3 348.4 120.8 349.1 120.3 349.8 119.7 350.8 120.4 351.9 119.8 352.9 119.6 354.5 120 355.1 120.9 355.6 121.1 356.2 120.8 357 121.2 357.7 120.6 358.6 120.8 359.7 120.6 361.2 120.9 362.1 121.9 362.2 122.4 362.5 122.9 363.2 122.9 363.7 122.6 364.6 121.8 365.3 121.9 366.1 122.8 366.8 123.6 367.3 122.5 368.1 123.1 368.7 122.5 369.4 122.3 370 121.7 370.6 121.7 371.6 121.7 372.7 121 373.3 120.1 374 119.8 375 120.2 375.9 120 376.9 120.8 378.3 120.4 379.5 120 380.7 120.1 382.2 120 382.7 121.3 383.9 121.8 384.8 121.9 385.9 122.5 386.8 122.1 387.7 122.5 388.9 122.9 390.1 122.3 391.1 122.2 392.5 122 393.4 121 394.3 121.2 395.8 120.9 397 120.1 397.9 119.3 399.3 119.4 399.7 120.6 400.1 120.2 400.9 121.2 401.6 120.8 402.8 120.5 403.7 121 405.1 121.2 406.5 120.1 407.8 120.7 409.2 121.2 411.2 121.7 413.3 121.2 414.6 120.2 415.3 119 416.1 118.6 417.1 118.9 417.9 118.8 419.1 118.3 420.6 118.7 422.7 119.2 424.5 119.6 425.9 119.7 426.7 119.5 428.1 120.2 428.7 120.9 429.2 121.4 429.8 121.3 430.8 122.1 431.8 121.5 432.9 122.4 434.2 122.7 435.4 122.2 435.8 121.5 436.6 121.2 437.7 121.3 439.1 121.2 440.8 120.7 442.6 121.3 444.4 121.1 445.8 120.2 447.3 120.2 448.4 120.7 450.3 120.6 452.4 120.8 453.7 121 454.8 120.3 456.4 121.4 458 120.4 459.7 121.1 461.3 120.3 462.6 119.8 463.3 120.5 463.8 120.2 464.4 120 464.7 119.5 465.3 119.3 466.2 120.1 467 120 468 119.1 468.6 119 470.4 119.3 471.2 119 472.4 118.8 473.4 118.5 474.1 118.9 474.6 119.4 475.6 119 476.4 119.2 477.1 119.7 478 120 478.5 119.7 478.9 119.8 479.4 119.5 479.8 119.5 480.3 119.6 480.8 119.1 481.2 119.3 481.6 119.6 482.1 119.6 482.3 120 482.7 120.1 482.8 119.6 483 120 483.9 120.4 485.2 120.1 486.6 120.5 488.3 119.7 489.4 119.2 490.6 118.7 492.2 118.5 493.4 119 495.4 119.5 497 119.2 498.4 119.4 499.7 119.3 501 118.2 501.7 117.5 502.5 117.7 503.8 117.6 505.1 118 506.2 118.3 507.3 118.3 508.8 117.6 509.8 117.9 511.4 116.9 512.2 118.4 513.7 118.8 515.1 119.4 516.5 119.4 518.1 119 519.8 119 522 118.4 523.6 118.9 524.8 119.1 525.6 118.7 527 118.4 528.5 119.2 529.5 119.7 530.3 119.4 531 119.9 532.4 119.5 534.5 119.9 536.1 119.2 537 118.1 539 118.4 541.5 118.1 542.4 118 543.4 117.6 543.9 117.3 544.7 116.8 545.1 117.8 546 116.9 546.6 116.2 546.7 116.9 547.3 117.3 547.7 117.3 548.4 117.6 549.5 117.6 550.6 117.4 551.3 118.1 551.9 117.5 553 117 553.7 116.4 554.4 116.5 555 116.9 555.8 116.9 556.5 116.6 556.9 116.3 557.7 115.7 558.1 116 558.7 115.9 559.2 116.5 559.6 116.2 559.8 116.1 560.1 116.9 560.3 116.4 560.6 115.8 560.9 116.8 561.3 116.7 561.6 116.8 562 116.2 562.6 115.7 563 116.5 563.3 117.2 563.5 116.7 563.9 116.6 564.4 115.6 564.7 115.1 564.9 114.7 565.1 115.1 565.4 115 565.6 115.1 566 115.9 566.6 115.5 567 114.7 567.4 115.3 567.9 115.4 568.6 116 568.9 116.1 569.6 116.7 570.2 116.2 570.6 117 571.1 117.8 571.5 118.7 572 118.3 572.4 119.2 573.2 118.3 573.9 119.7 574.4 119.5 575.1 119.3 576.1 118.5 576.9 118.3 577.6 117.3 578 117.9 578.3 118.9 578.8 118 579.5 117.8 580 116.7 580.7 116.9 581.5 117.2 582.2 116.8 583 117.5 583.7 117.8 584.2 117.6 585.2 117.8 585.8 118.9 586.4 118.7 586.9 118.6 587.4 119.6 587.7 120.3 587.9 120.9 588.1 121.3 588.2 120.4 588.7 120.5 589 120.7 589.4 121.1 589.6 120.5 590.1 120.1 590.5 120.3 590.7 120.6 591 121.2 591.3 121.6 591.6 121.6 592 121.6 592.7 121.2 593.6 121.2 594.6 121.9 595.1 122.2 595.5 121.5 596 121.2 596.7 121.3 597.5 121 598 120.4 598.7 121.4 599.2 122 599.7 121.1 600.4 121.5 601.3 121.2 602.3 121.2 602.7 122.3 603.1 121.5 603.8 121.2 604.4 121.4 604.7 121.9 605.2 122.4 605.8 121.4 606.5 121.2 607.6 120.6 608.2 120.8 609 121.1 609.6 121.2 610.2 121.2 611.5 122 611.8 122.8 611.8 123.8 611.8 125 611.8 124.8 611.9 123.9 611.9 125 612 125.6 612 126.1 612 126.7 612 125.7 612 125.7 612.1 126.3 612.2 126.6 612.3 127.2 612.3 128 612.4 126.8 612.4 126.9 612.4 126.9 612.5 126.3 612.5 126.4 612.6 126.8 612.7 126.7 612.7 126.1 612.8 126.2 612.9 126.6 613 127.1 613.1 127.1 613.1 126.8 613.2 126.8 613.3 127.3 613.4 128.2 613.5 127.5 613.6 128.4 613.6 128.2 613.7 127.6 613.8 129.2 613.8 128.8 614 128.7 614.1 128.6 614.2 128.7 614.2 128.8 614.4 129.9 614.5 129.6 614.6 129.2 614.7 128.9 614.8 128.4 614.8 129.3 614.9 129.5 614.9 128 615 128.5 615.1 128.6 615.2 129.2 615.3 128.9 615.4 129.2 615.5 129.6 615.6 130.2 615.6 130.6 615.7 130.4 615.7 130.2 615.8 130.4 615.9 129.4 616 129.4 616.1 129.7 616.2 129.8 616.3 129.6 616.4 129.7 616.5 128.9 616.6 128.7 616.8 129.5 616.9 128.7 617.1 127.2 617.2 128.2 617.3 128.3 617.5 128.1 617.8 127.3 618 127.7 618.3 128.7 618.5 128.2 618.8 128.6 619 128 619.2 127.2 619.5 126.9 619.8 126.6 620.2 127.4 620.5 127.3 620.9 127.2 621.2 126.8 621.6 127 621.9 127.4 622.1 127.5 622.3 126.9 622.6 126.9 622.9 127.9 623.2 128 623.5 128.8 623.6 130 623.6 129.6 623.7 128.8 623.8 129.2 623.9 129.7 624.1 129.9 624.4 129.9 624.7 130.3 625 131.1 625 130.9 625.1 130 625.2 130.6 625.5 130.6 625.6 131.5 625.7 132.1 625.8 131.3 625.9 132.4 626 132.8 626 133.2 626.1 132.8 626.2 133.9 626.3 133.3 626.4 132.9 626.4 132.2 626.6 132 626.7 132.2 626.8 133.2 627.1 133.6 627.1 134.4 627.2 134.6 627.2 134.3 627.3 133.9 627.4 135.2 627.4 134.7 627.5 134.4 627.6 134.4 627.7 135.6 627.7 136.1 627.7 136.4 627.8 136.4 627.9 135.5 627.9 135.5 627.9 136 628 136.3 628.1 136.4 628.1 136.2 628.2 136.4 628.3 136.3 628.4 136.3 628.4 135.6 628.5 135.6 628.5 135.3 628.6 135.5 628.7 136.5 628.8 136.6 628.9 136.7 628.9 136.6 629 137.4 629.1 137 629.2 137.2 629.3 136 629.4 135.9 629.6 135.5 629.7 135.6 629.8 136 630 135.8 630.1 136 630.3 137 630.5 137.1 630.7 137.5 630.9 137.7 631 137.8 631.1 138.8 631.2 139.3 631.2 139.1 631.3 140 631.3 140.5 631.3 141.1 631.4 141.8 631.4 141.5 631.4 141.1 631.5 140.3 631.5 140.8 631.6 140.7 631.6 142.4 631.7 143.9 631.7 144.6 631.8 145 631.8 144.2 631.9 144.7 631.9 146.2 631.9 147.5 631.9 147.5 632 149.5 632 147.3 632 145.5 632.1 143.8 632.1 144.1 632.1 143.6 632.2 143.5 632.2 144 632.2 143.7 632.3 144.3 632.3 144.3 632.4 145.3 632.4 145.7 632.5 144.9 632.5 146.3 632.6 146.6 632.7 145.6 632.7 145.3 632.8 144.4 632.8 144 632.8 144.9 632.9 144.8 632.9 144.4 633 144.8 633.1 145.4 633.2 145 633.2 145.6 633.3 145.8 633.3 146.8 633.4 147.7 633.5 148.1 633.5 146.8 633.6 147.4 633.6 148.1 633.7 148.9 633.7 148.9 633.7 148.7 633.8 148.5 633.8 147.1 633.9 146.2 633.9 146.5 634 146.4 634 146.4 634.1 146.4 634.2 145.8 634.2 145.5 634.3 146.6 634.4 146.9 634.5 147.2 634.5 146.5 634.6 145.5 634.6 146 634.7 146 634.8 146.3 634.9 145.3 635 145 635 145.5 635.1 145.1 635.2 144.4 635.3 143.8 635.3 143.9 635.3 143.7 635.4 143.5 635.5 143.1 635.6 142.9 635.7 143.8 635.7 143.3 635.8 143 635.9 143.2 636 143.9 636.1 143.7 636.2 144.3 636.3 143.7 636.4 143.5 636.4 142.8 636.5 142.9 636.6 143.4 636.8 144.1 636.9 143.9 637 144.3 637 145 637.2 144.4 637.3 145.4 637.4 145.4 637.4 145.7 637.5 145.1 637.6 144.7 637.6 144.1 637.7 144.4 637.9 144.3 638 143.8 638.1 144.4 638.3 143.8 638.4 143.6 638.7 143 638.8 142.9 639.1 142.2 639.2 142.1 639.4 141.3 639.7 140.6 639.9 141.7 640.2 142.3 640.4 142.5 640.6 141.7 640.8 142.4 641 142.1 641.4 142.7 641.7 142.7 641.8 142.8 642.2 143.1 642.3 143.6 642.6 143.1 642.9 143.6 643.1 143.4 643.4 143.2 643.6 142.6 643.9 143.8 644 143.8 644.2 144.1 644.4 143.6 644.7 143.9 645.2 143.6 645.3 143.4 645.7 144 645.9 144.4 646.3 144.6 646.7 145.1 647 144.9 647.5 144.5 647.8 143.9 648.1 144.1 648.4 144.7 648.7 145 648.8 145.1 648.9 145.9 649 146.1 649.1 146.4 649.4 146.2 649.6 145.6 649.8 146.5 650 146.4 650.3 146.8 650.5 147.5 650.7 146.8 650.8 146.1 651.1 146.7 651.3 147 651.6 146.8 651.8 146.4 652 145.2 652.3 145.3 652.5 144.5 652.7 144.4 653 144.5 653.2 144.4 653.5 144.4 653.7 143.3 654.1 142.6 654.4 142.8 654.8 142.8 655 143.4 655.3 144.1 655.6 143.7 655.9 143.5 656.1 143.8 656.5 143.9 656.8 143.8 657.2 144.1 657.7 144.5 658 144.2 658.3 144.1 658.6 144.2 658.9 144.4 659.2 144.7 659.6 144.7 659.9 144.5 660.1 143.7 660.5 143.6 660.9 143.3 661.2 143.8 661.4 144.1 661.7 143 662 142.6 662.5 142 662.8 141 663.1 141.1 663.6 141.2 664.1 141.5 664.6 141.5 665.2 141.3 665.8 141.2 666.5 142.5 666.9 142.3 667.3 142.6 667.8 141.8 668.3 141.1 668.6 140.2 668.9 140.5 669.5 140.9 670.1 140.6 670.5 139.9 671 139.5 671.4 139.9 672 139.9 672.7 139.8 673.2 140.3 674 140.5 674.6 140.7 675.1 141.2 675.5 142 675.8 141.9 676.3 141.7 676.9 141.2 677.4 142.5 678 143.1 678.6 142.9 678.9 142.8 679.2 142.5 680.1 142.2 680.7 143.3 681.2 142.9 681.4 143 681.7 143.3 682.1 143.3 682.4 143 682.8 143.4 683.4 143.9 683.6 143.1 684 144.3 684.4 144.6 684.6 143.5 685 143.5 685.4 143.8 685.8 143.8 686.2 144.4 686.6 144.3 687.1 144.8 687.3 145.5 687.4 145.5 687.5 145.7 687.6 146.1 687.8 145.2 688.1 144.7 688.7 144.4 689.1 145.1 689.6 144.1 690.2 144.2 690.7 144.5 691.1 144.7 691.4 143.5 691.7 142.8 692 142.8 692.5 144 692.9 144.5 693.3 144 693.5 144 693.8 143.9 694.4 143.3 694.8 143.5 695.4 143.1 696 143.6 696.5 144.1 696.9 144.9 697.4 143.8 698 142.9 698.6 142.4 699.1 143.5 700.1 144 700.7 143.7 701.6 142.9 702.2 143 702.9 143.4 703.5 143.6 704.2 143.9 704.4 144.8 704.7 144.2 705.3 144.8 705.6 145.9 705.6 146.2 705.7 147.1 705.7 147 705.7 147.9 705.7 148.1 705.8 147.3 705.9 148.3 706 148.8 706.1 149.4 706.1 150 706.2 150.4 706.2 150.2 706.3 148.8 706.4 148.5 706.6 148.9 706.6 150.3 706.7 150 706.7 151.2 706.7 152.2 706.8 152.6 706.8 152.5 706.8 154 706.8 154 706.9 153.1 706.9 152.1 706.9 152 707 153.2 707 152.7 707.1 153.2 707.2 153.7 707.3 153.6 707.3 154.5 707.4 154.4 707.4 154.9 707.5 154.3 707.6 154.4 707.6 154.2 707.7 154 707.9 153.5 707.9 155.1 707.9 155.9 708 156.9 708 157.7 708 156.9 708 156.9 708.1 155.8 708.1 155.9 708.2 156.7 708.2 157.7 708.2 157.8 708.3 158.1 708.3 158.3 708.3 158.4 708.4 158.3 708.5 158.2 708.5 158.7 708.7 158.3 708.8 158.1 708.9 158 708.9 157.2 709 157 709.3 157.2 709.4 155.9 709.6 155.2 709.7 156 709.9 156.1 710.1 156.2 710.4 156 710.6 155.6 710.9 155.4 711.1 155.9 711.3 156.4 711.3 157.1 711.3 158 711.3 158 711.4 159 711.4 159.9 711.4 160.6 711.4 160.3 711.5 161.1 711.5 161.9 711.5 162.1 711.5 162.6 711.5 162.6 711.5 162.7 711.5 162.3 711.6 161.9 711.6 162 711.6 163.3 711.7 164.8 711.7 165.7 711.7 166.3 711.7 167 711.7 166.8 711.7 167.1 711.7 166.3 711.8 166 711.8 164.6 711.8 164.6 711.8 164.8 711.9 163.6 711.9 164.9 711.9 165.3 711.9 166.3 712 166.2 712 166.8 712 167.7 712 167.7 712.1 166.3 712.1 165.4 712.1 163.9 712.2 164.1 712.3 163.4 712.3 164.1 712.4 163.3 712.5 163 712.7 162.9 712.9 162.5 713 161.9 713.2 161.4 713.5 162.1 713.6 162.7 713.7 162.6 713.9 161.9 714.1 162.1 714.3 161.3 714.5 161.8 714.8 162.3 715.1 161.6 715.5 161.7 715.9 161.3 716.3 160.9 716.6 161.3 716.8 160.9 717.1 161.1 717.3 160.5 717.6 160.8 718 161.6 718.3 161.8 718.8 162.1 719.2 161.5 719.4 161.6 719.9 162 720.2 162.7 720.4 162.3 720.8 163.2 721.1 162.7 721.3 161.5 721.6 161 721.9 161.5 722.5 161.2 723 160.9 723.4 160.8 723.8 160.3 724.1 161.1 724.3 161.8 724.7 161.1 725.1 160.7 725.7 161.8 726.3 161.6 726.8 161.6 727.4 161.7 728.1 162.2 728.6 161.1 729.1 160.7 729.6 160.3 729.7 160.2 730 159.6 730.1 159.5 730.4 159.6 730.6 159.2 730.9 159.5 731.4 159.6 732 159 732.6 158.4 732.8 158.5 733.1 158.3 733.3 158.1 733.5 157.5 733.7 157.2 734 157.2 734.2 157.3 734.3 157.1 734.6 157.2 734.9 156.7 735.3 156.4 735.4 156.1 735.5 156 735.8 155.8 736.1 155.6 736.3 156 736.5 155.8 737 156.3 737.4 155.8 737.7 155.6 738 155.2 738.3 155 738.4 154.8 738.6 155.3 738.8 154.9 739.1 155.2 739.6 154.6 739.9 153.8 740.3 153.8 740.7 153.7 741.1 154 741.5 153.6 742.1 153.9 742.3 153.9 742.7 153.7 743.3 153.2 743.6 153.7 744 153.8 744 154 744.2 153.3 744.3 152.5 744.5 152.6 744.6 152.1 744.7 152.4 745 152.5 745.2 152.2 745.5 151.8 745.9 151.7 746 151.3 746.2 151.4 746.5 151.3 746.8 151.4 747 150.6 747 149.8 747.1 149.3 747.2 148.8 747.3 149.4 747.4 149.6 747.5 149.1 747.6 149.2 747.7 149.3 747.8 149.2 748 149.3 748.1 149.2 748.2 149.4 748.5 149.3 748.5 149.4 748.6 149 748.8 150.1 748.8 149.3 749 149.1 749.2 149 749.3 148.6 749.5 149.3 749.6 150.2 749.6 148.7 749.7 147.5 749.7 147.4 749.8 147.2 749.8 148.1 749.9 148.8 750.1 149.3 750.3 150.3 750.4 150.1 750.7 150.9 750.7 149.7 750.8 148.6 750.9 148.9 751 148.9 751.3 149.2 751.6 149 751.8 149.7 752.1 149.3 752.6 150.1 752.7 149.8 753.3 149.2 753.4 148.4 753.7 148.3 753.9 148.5 754.1 148.1 754.7 149.3 755.3 149.7 755.8 149.5 756.1 149.5 756.6 150.1 757 149.5 757.5 149.8 758 150.8 758.8 151.4 758.9 151.7 759.2 151.4 759.5 152.2 760 151.4 760.6 152.3 761.1 152.6 761.4 152 761.8 152.7 762 152.7 762.2 152.2 762.4 152.4 762.7 153.2 762.8 153.6 762.9 153.4 763.1 153.3 763.6 152.4 764.3 153.1 764.7 152.7 765 153.3 765.2 152.3 765.4 152.2 765.8 152 766.4 152.6 767.2 152.9 767.6 152.4 767.9 152.9 768.1 152.8 768.4 152.3 768.7 153.7 768.7 153.3 768.8 152.6 768.9 153.3 769 153.2 769.2 152.3 769.4 152.4 769.6 153.6 769.7 153.2 770 153.2 770.5 152.9 770.8 151.9 771 151.2 771.1 150.9 771.3 150.7 771.6 151.9 771.8 151.9 772.2 152.9 772.5 153.9 772.8 154.4 772.9 155.2 772.9 154.2 773.1 155.1 773.2 156 773.3 156.9 773.4 156.6 773.4 156.2 773.5 158 773.5 158.8 773.6 156.7 773.6 156.3 773.7 155.9 773.7 155.8 773.8 155.4 773.9 155.2 774 154.8 774.1 154.2 774.2 154.8 774.4 154.7 774.6 154.2 774.7 154.6 775 154.2 775.2 155.2 775.4 155.8 775.5 156 775.6 156.8 775.8 156.7 775.9 156.1 776.2 156.4 776.6 156.6 776.8 156.3 777 155.4 777.1 154.7 777.2 154.5 777.5 155 777.8 154.8 778.2 154 778.7 153.3 778.9 154.7 779.1 155.1 779.5 155 779.8 154.7 780.1 155.7 780.4 154.8 780.6 153.7 780.8 154 781.1 153.4 781.2 153.3 781.5 152.6 781.9 152.6 782.2 151.8 782.4 152.5 782.6 152.6 782.8 151.6 783 151.7 783.2 152 783.6 152.8 783.9 152 784.3 151.5 784.7 151.9 785.3 152.2 785.6 153 785.8 154 786 154 786.3 154.1 786.6 154.3 787 154.3 787.5 153.9 787.8 154.8 788.1 155.1 788.6 155.1 789.2 154.8 789.7 154.1 790.2 154.6 790.8 155.1 791.2 155.1 791.6 154.9 792.4 154.6 792.8 155.6 793.3 155 794 154.1 794.1 153.7 794.4 154.1 794.9 153.9 795 153 795.5 153.3 795.9 154.5 796.4 154.5 796.8 155 797.2 155 797.6 154.8 798.3 153.9 798.9 153.1 799 151.9 799.1 151.8 799.4 152.9 799.8 152.7 800.3 153 800.5 152.7 801.2 151.8 801.6 152.1 802.3 153.5 802.9 153.2 803.6 153.2 804.4 152.1 805 152.2 805.3 151.6 805.9 151.9 806.5 151.7 807 151.7 807.8 151.5 808.5 151.5 809.2 151.9 809.8 152.4 810.4 152.9 810.8 152.7 811.3 152.7 811.9 152.4 812.5 152.6 813.4 152.7 814.1 152.4 815.3 152.4 816.3 152.8 817.4 152.3 817.7 152.4 818.5 152.4 819.3 152.9 820 152.6 821.1 152.8 821.2 153.8 821.2 154.6 821.3 155.5 821.3 154.6 821.4 155.2 821.4 156.1 821.5 155.7 821.5 155.6 821.7 154.9 821.7 154.4 821.8 155.1 821.8 155 821.9 155.9 822 156.1 822 155.6 822.1 156.1 822.2 155.3 822.3 155.2 822.4 156 822.5 156 822.6 156.8 822.7 156.9 822.8 158.4 822.8 158.8 822.9 158.8 822.9 158.1 823 157.8 823 156.7 823.1 156.5 823.1 156.1 823.3 157.2 823.3 158.3 823.4 160.3 823.4 161.5 823.5 160.5 823.5 159.7 823.6 159.6 823.6 160 823.7 161.4 823.8 160.9 823.8 159.8 823.9 160.2 824 159.4 824.1 159.4 824.1 158.4 824.2 159.4 824.2 159.6 824.3 160.8 824.3 159.9 824.4 160.4 824.5 160.4 824.6 161.4 824.6 163.2 824.6 164 824.7 163.6 824.7 163.9 824.8 165.7 824.9 167.8 824.9 169.3 824.9 170.8 825 170.1 825 167.9 825 166.7 825.1 167.7 825.1 167.9 825.2 166.8 825.3 166.9 825.3 167.1 825.3 166.3 825.4 166.1 825.4 165.8 825.4 165.4 825.5 167 825.5 166.9 825.6 166.5 825.6 166.7 825.7 167.1 825.8 166.7 825.8 165.9 825.9 165.9 825.9 167.1 826 166.6 826.1 167.9 826.1 167.8 826.1 166.6 826.2 166.2 826.3 167.2 826.4 168.5 826.4 169.1 826.4 169.5 826.5 169 826.5 169 826.6 169 826.6 170 826.7 170.4 826.7 172.1 826.7 173.2 826.8 175.4 826.8 176.9 826.8 179.1 826.9 179.1 826.9 183.3 826.9 182.7 827 179.2 827 176.8 827 175.7 827.1 176.9 827.1 176.8 827.1 178.7 827.2 177.8 827.2 176.5 827.3 176.2 827.3 175.4 827.4 176.4 827.4 177.7 827.4 177.7 827.5 178.2 827.5 178.7 827.5 180.2 827.5 181.4 827.6 179.8 827.6 179.1 827.7 179.8 827.7 178.4 827.7 179.2 827.8 177.7 827.8 176.7 827.9 176.9 827.9 176.3 827.9 176.3 828 175.2 828.1 174.7 828.2 174.5 828.2 176.4 828.3 175.6 828.3 174.7 828.4 174.4 828.5 175 828.6 176.3 828.6 175.1 828.6 174.6 828.7 174.8 828.8 174.1 828.9 174.4 828.9 173.4 829 172.9 829 173 829.1 173.7 829.2 173.9 829.3 174 829.4 174.7 829.4 174.1 829.4 174.5 829.5 174.1 829.6 173.6 829.7 175.1 829.7 173.9 829.9 173.4 830 172.9 830.1 172.6 830.1 173.5 830.2 173.9 830.3 173.5 830.4 173.7 830.5 174.8 830.6 173.7 830.6 174.4 830.7 173.9 830.8 173.9 830.9 174.9 830.9 173.9 831 174.4 831.1 174.1 831.3 173.7 831.3 172.8 831.4 172.5 831.4 171.7 831.5 173.2 831.6 172.7 831.7 173.1 831.8 174.4 831.8 173.8 831.8 173.3 831.9 173.9 832 174.7 832 174 832.1 174.5 832.2 174.8 832.2 174.8 832.3 174.9 832.4 174.3 832.4 173.6 832.5 174 832.6 173.3 832.7 172.7 832.8 172.5 832.9 172.7 833 172.8 833.1 172.9 833.3 174.3 833.4 175.2 833.6 174.8 833.7 175.7 833.8 175.9 833.9 176.6 833.9 176.1 834.1 176.2 834.2 176.4 834.2 177.6 834.3 176.8 834.3 177.1 834.4 178.4 834.4 179.5 834.5 180.3 834.5 181.3 834.5 182.8 834.6 183.7 834.6 185.4 834.6 187.8 834.7 187.6 834.7 188 834.8 190.8 834.8 192 834.8 193.9 834.9 194.1 834.9 197.4 834.9 199.9 835 201.3 835 206.4 835 209.1 835.1 212.2 835.1 209.1 835.2 204.7 835.2 203.3 835.2 205.6 835.3 208.1 835.3 206.5 835.4 204.2 835.4 203.4 835.4 202.8 835.4 203.7 835.5 206.3 835.5 210.1 835.5 217.4 835.6 212.6 835.6 216.8 835.6 221.9 835.6 219.9 835.7 227.2 835.7 226.2 835.8 225.2 835.8 220.3 835.9 221 835.9 218.1 836 218.2 836 217 836 214.9 836.1 216.4 836.1 219.4 836.1 217.7 836.2 215.9 836.2 215.5 836.2 218.1 836.2 224.8 836.2 215.4 836.3 216.8 836.3 225.8 836.3 231.1 836.3 235.7 836.4 231.6 836.4 228.9 836.5 232.7 836.5 235.1 836.6 239.7 836.6 243.2 836.6 243.5 836.6 247.4 836.7 254.2 836.7 255.7 836.7 258.7 836.8 260.8 836.8 261.6 836.8 257.2 836.8 251.1 836.8 253.1 836.9 250 836.9 257.8 836.9 258.9 836.9 261.3 836.9 266.8 836.9 262.4 837 258.3 837.1 261.5 837.1 266.5 837.1 268.8 837.2 270.2 837.2 274.8 837.2 275.3 837.3 279.4 837.3 283.2 837.3 287.9 837.4 292.7 837.4 294 837.4 305.4 837.4 322.4 837.5 325.8 837.5 314 837.6 311.3 837.6 317.3 837.7 310.5 837.7 305.9 837.8 313.7 837.8 315.2 837.8 321.6 837.9 321.5 837.9 327.2 838 330.5 838 334.3 838 336.8 838.1 335.2 838.1 342.8 838.1 352.6 838.2 355.1 838.2 358.5 838.3 374.3 838.4 386.7 838.4 384.3 838.4 396.1 838.5 402.2 838.5 403.2 838.5 413.1 838.6 416.1 838.6 418.4 838.7 431.1 838.7 433.5 838.8 441.2 838.8 434 838.9 424.9 838.9 423.8 839 425.4 839 429.5 839.1 432 839.1 433.1 839.2 434.9 839.3 433.3 839.4 430.7 839.5 431.8 839.5 430.9 839.6 428.7 839.7 421.1 839.8 424.8 839.8 420.8 839.9 419.6 840 419.3 840 418.2 840.1 425.9 840.1 409.2 840.2 411.6 840.2 406.7 840.3 397.9 840.3 397.1 840.4 396.6 840.5 381.4 840.6 379.9 840.6 372.6 840.7 363.3 840.7 372.6 840.7 367.9 840.8 368.1 840.8 367.8 840.8 370.6 840.9 361 840.9 357.1 840.9 356.5 841 350.2 841.1 350.8 841.1 357.9 841.1 357.1 841.2 360.1 841.3 359.1 841.3 349.8 841.4 353.4 841.4 349.7 841.5 352.2 841.6 350.2 841.7 348.5 841.8 346.1 841.8 346 841.8 347.1 841.9 344.7 841.9 345.3 842 346.5 842.1 350 842.1 359.5 842.2 356.3 842.3 357.3 842.4 348.8 842.4 350.9 842.6 351.8 842.6 359.8 842.7 358.4 842.7 354.4 842.9 351.8 842.9 348.7 843 346.9 843 346.2 843.1 350.2 843.1 353.8 843.1 350.2 843.2 348.4 843.2 346.3 843.3 354 843.3 346.6 843.4 346.1 843.4 353.1 843.5 348.3 843.5 350.8 843.6 349.9 843.6 345.4 843.6 345.8 843.7 345.9 843.7 344.8 843.8 343.3 843.8 343.5 843.8 343.6 843.9 342.8 844 338.8 844 332.6 844 339.7 844.1 338.6 844.1 338.5 844.1 339.4 844.2 340.7 844.3 340.1 844.3 341.2 844.4 337.9 844.4 340.9 844.5 338.1 844.5 338.6 844.6 337.2 844.6 338.5 844.7 339 844.7 338.8 844.8 340.3 844.8 339.5 844.9 338.8 845 338.8 845 338 845 337.9 845.1 333.8 845.1 335.4 845.2 334.6 845.2 334.5 845.3 331.5 845.5 328.3 845.5 326.4 845.6 327.4 845.7 327.7 845.7 331.1 845.8 326.9 845.8 319.2 845.8 326.6 845.8 325.8 845.9 328.3 845.9 323 845.9 317.7 845.9 325.5 846 325.8 846 325.8 846.1 321.1 846.1 323.4 846.2 324.8 846.2 318.6 846.2 318.6 846.3 318.9 846.3 316.7 846.3 315.9 846.4 317.8 846.4 308.6 846.5 315.7 846.5 317.1 846.6 317.6 846.6 319.7 846.7 316.6 846.8 318.9 846.8 318.2 846.9 319.8 846.9 316.7 847 315 847.1 313.9 847.1 309.5 847.2 306.8 847.2 303.5 847.3 300.2 847.3 304.4 847.3 301.9 847.3 299.7 847.4 303.5 847.4 303 847.5 300.3 847.5 300.3 847.6 302.4 847.6 303.4 847.6 298.3 847.6 300.7 847.7 302.6 847.7 300.2 847.8 301.2 847.8 304 847.8 302.6 847.9 299.8 848 300 848 299.6 848.1 298.5 848.1 298.5 848.2 298.8 848.3 298 848.3 297.4 848.3 297.1 848.3 299.8 848.4 299 848.5 298.6 848.5 298.5 848.6 302 848.7 302.7 848.7 299.7 848.8 298.9 848.8 301.2 848.9 303.2 849 299.7 849.1 300.9 849.2 302.3 849.4 302.8 849.5 303.3 849.6 303.2 849.7 306.6 849.7 312.7 849.9 311.1 850 310.7 850.1 310.6 850.2 317.8 850.2 315.3 850.2 314.3 850.3 312.6 850.3 311.7 850.4 311.7 850.5 310.6 850.6 310.8 850.6 309 850.7 312.6 850.8 312 850.9 309.6 851 306 851.1 306.2 851.1 305.3 851.1 305.7 851.2 303.6 851.2 305.3 851.3 307 851.3 305.5 851.4 302.9 851.5 301.4 851.6 300.9 851.7 298.5 851.7 293.8 851.7 297.2 851.8 299 851.9 299.8 851.9 294.1 852 293 852 292.6 852.1 292.6 852.1 293.2 852.1 292.2 852.2 294.2 852.2 294.9 852.2 294.7 852.2 298.9 852.2 296.8 852.2 291.3 852.2 296.7 852.3 295.5 852.3 295.7 852.3 292.6 852.3 294.6 852.4 288.6 852.5 294.8 852.5 290.2 852.5 290.9 852.6 288.2 852.6 284.8 852.7 282.7 852.7 282.5 852.7 274.1 852.7 279.4 852.8 278.9 852.8 279.9 852.9 279.1 853 276.4 853 273.8 853.2 268.2 853.2 271.5 853.2 267 853.3 267.8 853.4 276.3 853.5 273.4 853.6 276.3 853.6 270.6 853.7 270.6 853.8 270.4 853.8 277.1 853.9 276.1 854 271.7 854 276.1 854.1 269.6 854.1 266.9 854.1 263.5 854.1 256.5 854.1 253.1 854.1 253.3 854.1 259.2 854.1 238.2 854.1 260 854.1 246.9 854.1 266.8 854.1 278.9 854.1 256.1 854.1 243.8 854.1 273.4 854.1 233.1 854.1 276.3 854.1 257.6 854.2 238.2 854.2 268 854.2 239 854.2 261.1 854.2 243 854.2 253.1 854.2 255 854.2 262.1 854.2 263.8 854.2 262.1 854.2 270.6 854.2 271.7 854.2 268.2 854.2 273.8 854.2 263.5 854.2 268.2 854.2 246.9 854.2 247.7 854.2 248.3 854.2 262.3 854.2 265.1 854.3 272.3 854.3 246.9 854.3 250.4 854.3 249.5 854.3 275.1 854.3 237.8 854.3 255 854.3 247.7 854.3 246 854.3 249.5 854.3 262.1 854.3 264.9 854.3 244.8 854.3 272.8 854.3 278 854.3 273.8 854.3 270.6 854.3 272.3 854.3 267 854.3 259.2 854.3 266.6 854.3 278.9 854.3 263.8 854.3 273.4 854.3 262.1 854.3 271.7 854.3 272.3 854.4 264.9 854.4 270.6 854.4 261.1 854.4 267.6 854.4 265.1 854.4 265.1 854.4 278.7 854.4 254.1 854.4 279.5 854.4 255.9 854.4 260 854.4 275.1 854.5 273.8 854.5 258.8 854.5 253.3 854.5 276.1 854.5 280.6 854.5 276.3 854.5 266.9 854.5 273.4 854.6 283.4 854.7 260 854.8 267 854.8 263.8 854.9 280.6 854.9 262.8 854.9 270.6 854.9 265.8 855 276.2 855 276.9 855 269.3 855 267.8 855.1 269.6 855.1 269.5 855.1 270.6 855.1 270.3 855.2 275.1 855.2 278 855.2 270.9 855.2 280.6 855.3 270.6 855.3 278.6 855.3 284.6 855.4 276.3 855.4 273.7 855.4 274.6 855.5 271.5 855.6 273.3 855.6 268.2 855.6 262.3 855.6 261.5 855.7 271.7 855.7 272.8 855.7 277.8 855.8 277.8 855.9 270.6 855.9 278.6 856 276.8 856 281.1 856.1 285.8 856.2 277.8 856.3 286 856.3 275 856.4 271.6 856.4 276.6 856.5 277.5 856.5 277.5 856.6 278.9 856.7 275.2 856.7 279.5 856.8 278.9 856.8 282.5 856.9 280.6 857 278.9 857 284.2 857 281 857.1 276.9 857.2 275.2 857.3 278 857.4 278.2 857.4 272.8 857.5 275.1 857.6 274.4 857.6 274.7 857.7 275.6 857.9 272.4 858.1 264.7 858.2 270.5 858.4 271.9 858.6 268.2 858.7 268 858.7 270.3 858.9 270.1 859 271.5 859.2 272.7 859.2 270.1 859.3 269.6 859.4 271.9 859.4 265.9 859.5 268 859.7 266.8 859.8 263.9 859.8 265.4 859.8 257.2 859.9 256.5 860 257.6 860.1 256.1 860.2 256.6 860.2 247.7 860.3 251.9 860.3 244 860.3 255.3 860.4 252.3 860.5 253 860.6 252.6 860.7 256.5 860.8 259.2 860.9 252.1 860.9 253.8 861 256.9 861.1 255.8 861.2 252.8 861.3 255 861.4 252.3 861.5 248.9 861.6 249 861.8 249 861.9 250.1 862 248.4 862.1 247.9 862.1 245 862.1 247.7 862.2 246.9 862.3 246.9 862.3 248.9 862.3 247.7 862.4 246.3 862.4 246.3 862.5 246.5 862.6 248.4 862.7 246.6 862.8 249.5 862.8 249.8 862.9 249.5 862.9 245.4 862.9 245.1 863 247.2 863 250 863 249.9 863.1 253.1 863.1 255.6 863.1 255 863.2 256.5 863.2 254.2 863.3 253.8 863.3 254.7 863.4 255.4 863.4 258.1 863.6 258.3 863.7 257.1 863.7 257 863.9 259.6 863.9 256.3 864 257 864.1 259.6 864.1 257.2 864.1 256.2 864.2 257 864.3 259.3 864.3 258 864.5 259.4 864.5 260.3 864.6 261.9 864.7 261 864.8 262.3 864.9 265.1 864.9 263.9 865.1 264.5 865.1 263 865.2 265.9 865.4 263.4 865.5 264.7 865.6 266.9 865.7 266.3 865.7 269 865.8 273.9 865.8 275 865.8 276.2 865.9 274.6 865.9 277.1 865.9 279.8 866 281.7 866 285.2 866.1 287 866.2 289.1 866.3 290.7 866.3 284.7 866.3 281.3 866.3 278.3 866.4 277.2 866.5 276.8 866.6 274.5 866.7 274.3 866.7 273.1 866.9 276.2 866.9 270.7 867 269.7 867.1 266.5 867.3 265.3 867.5 263.1 867.5 263.4 867.7 263.8 867.8 262.8 867.9 261 868 257 868 257.4 868.1 256.7 868.1 256.1 868.2 256.7 868.4 257 868.5 256.6 868.6 254.9 868.7 257.2 868.7 256.2 868.9 256.1 869 256.9 869.1 257.6 869.2 253.1 869.3 255.4 869.4 257.9 869.6 254.8 869.8 254.2 869.9 253 870 255.2 870.1 257.3 870.3 253.1 870.4 257.2 870.5 257.2 870.7 252.7 870.9 256.9 871.1 256 871.2 258.4 871.3 257.5 871.4 260.1 871.5 256.3 871.7 256.6 871.8 254.6 871.9 255.9 872 255.3 872.1 255.3 872.2 255.7 872.3 256.2 872.4 257.2 872.5 259.6 872.5 260 872.6 257.9 872.7 258.6 872.8 258.7 872.8 258.3 872.9 260.3 873 261.4 873.1 261.4 873.2 260.1 873.3 260.9 873.4 259.7 873.5 259.1 873.5 259.1 873.6 257.9 873.6 257.2 873.7 258.6 873.8 256.4 873.9 257.1 874 256.2 874.2 258.7 874.2 260.2 874.3 259.6 874.3 261.7 874.4 258.6 874.5 259.7 874.6 256.3 874.6 258.2 874.7 259.8 874.8 260.5 874.9 259.6 875 261.5 875.1 261.5 875.2 261.9 875.2 266.9 875.3 270.9 875.3 267 875.4 265.6 875.4 265.6 875.5 267.6 875.6 267 875.7 265.1 875.7 264.5 875.8 264.4 875.9 263.2 876 264.5 876.1 263.6 876.2 264.8 876.3 263.4 876.4 263.2 876.4 263.9 876.5 265.1 876.7 267.8 876.7 268.2 876.8 268 876.9 268 877 267.5 877.1 268.3 877.3 265.6 877.4 266.2 877.5 268.3 877.6 269.9 877.7 269.7 877.8 268.8 877.8 268.1 878 269.6 878.2 267.3 878.2 265.8 878.3 264.7 878.4 265.9 878.5 266.5 878.6 268 878.7 270.2 878.7 270.6 878.8 266.6 878.9 266.4 879 268.6 879.1 268.7 879.2 268.7 879.2 268.7 879.3 268 879.3 268.2 879.4 267.1 879.4 267.3 879.5 266.7 879.6 266.6 879.7 265.2 879.9 265.9 879.9 266.5 880 267.2 880.1 265.7 880.1 265.1 880.3 264.1 880.5 266.7 880.6 266 880.7 266.6 880.7 268.5 880.8 268.3 881 267.9 881.1 266.4 881.2 267.8 881.4 266.2 881.6 265 881.7 265.7 881.8 265.9 881.9 266.3 881.9 265.9 882 265.2 882.1 267 882.2 265.9 882.3 265 882.5 265 882.6 266.2 882.7 265.6 882.9 265.9 883 265.6 883.1 264.7 883.4 265.1 883.5 265.8 883.6 265.7 883.7 265.8 883.9 265.8 884 265.4 884 263.2 884 261.8 884 261.8 884.1 262 884.1 264.2 884.1 264.1 884.2 263.1 884.2 263.5 884.3 262.6 884.3 262.3 884.4 260.8 884.4 260.9 884.5 262.1 884.6 263.2 884.7 263.1 884.8 263.6 884.9 264.8 884.9 264.4 885.1 264.6 885.3 264.2 885.4 263.2 885.5 260.9 885.6 261 885.7 259.4 885.9 259.2 886 258.8 886.2 257.8 886.4 257.5 886.6 259.5 886.6 259 886.7 259.8 886.8 259.1 886.8 257.5 886.9 258.6 887 259.3 887.1 260.1 887.3 260.2 887.5 259 887.7 259.6 887.8 259.8 887.9 259.8 888 259.3 888.1 258.6 888.1 258 888.2 257.9 888.2 258.2 888.2 257.9 888.3 256.5 888.3 257.3 888.5 257 888.6 256.3 888.7 258.2 888.9 258.4 889.1 257.3 889.3 257.9 889.4 257 889.4 254.1 889.4 249.5 889.5 252.7 889.5 251 889.5 251.1 889.5 254 889.6 251.8 889.7 253.7 889.8 253.7 890 253.7 890.1 254.6 890.1 254.3 890.2 254.5 890.3 254.7 890.4 253.9 890.6 253.5 890.7 250.8 890.7 253.6 890.8 251.8 890.9 252 891 250.6 891.2 252.1 891.3 250.7 891.4 250 891.6 250.4 891.8 249.3 891.9 249.8 892 250.3 892.2 250.6 892.4 251.1 892.6 250.9 892.7 252.6 892.8 255.1 892.9 254.8 893 254.7 893.1 254.8 893.1 256.2 893.2 256 893.2 256 893.3 256.4 893.4 256.2 893.6 255.9 893.7 257.4 893.8 257.7 894 257.3 894.1 257.4 894.2 257.9 894.3 258.1 894.5 258.5 894.6 258.4 894.8 258.8 894.8 258.4 894.9 258.4 894.9 258.2 895 257.8 895.1 257.3 895.2 257.5 895.3 257.5 895.4 257.9 895.5 256.7 895.6 258.1 895.7 258 895.8 258.2 895.9 258.4 896 257.3 896 258.3 896.1 257.8 896.2 257.5 896.3 256.4 896.4 256.9 896.6 259 896.6 258.9 896.8 257.5 896.8 256.8 896.8 258 896.9 256.5 897 255.8 897.2 255.6 897.2 255.7 897.3 255.7 897.4 255.3 897.5 255.3 897.6 255.9 897.8 255.7 897.9 254.3 898 254.8 898.1 254.3 898.3 253.8 898.4 254.3 898.6 254.9 898.7 255.1 898.8 254.5 899 253.7 899 253.9 899.1 253.7 899.2 253.3 899.3 254.2 899.3 255.2 899.4 255.8 899.5 256.1 899.6 257.1 899.7 256 899.8 255.5 900 255.8 900.1 256.1 900.2 254.2 900.3 253.7 900.4 253.6 900.6 253.8 900.8 253.6 901.1 254.3 901.3 254.9 901.4 255.3 901.5 256.3 901.7 255.6 901.8 256.5 902 256.3 902.1 256.8 902.3 257 902.5 256.5 902.6 256.6 902.8 256.5 903 255.6 903.1 255.3 903.2 256 903.4 256.8 903.6 256.2 903.7 256.4 903.8 257.6 904 257.6 904.1 257.6 904.2 256.7 904.3 256.5 904.4 257.2 904.5 257.3 904.5 255.8 904.5 254.7 904.5 256.5 904.6 256.5 904.6 255.5 904.8 254.9 904.9 254.5 905 254.8 905.2 255 905.3 256.9 905.4 255.4 905.5 256.2 905.6 256.2 905.7 256.5 905.9 256.9 906.1 255.3 906.2 254.6 906.4 253.5 906.5 253.7 906.6 254 906.7 254.6 906.8 254.4 906.9 254.3 907 252.5 907 254.3 907.1 254.8 907.3 252.2 907.5 252.2 907.6 252.9 907.7 252.4 907.9 251.7 908 250 908.2 249.8 908.5 249.6 908.6 249 908.8 249.6 909.1 249.8 909.1 250.1 909.3 249 909.3 250 909.4 248.6 909.5 248.6 909.6 247.8 909.8 246.5 909.8 246.6 909.9 245.4 910 244.1 910.1 243.6 910.2 244.1 910.4 244.8 910.5 244.4 910.7 246.5 910.8 245.6 910.9 245.9 911.1 246 911.2 246.4 911.4 246 911.5 246.5 911.6 245.9 911.6 246.2 911.8 245.9 911.9 245.5 912.1 245.6 912.1 244.3 912.3 243.8 912.5 244.7 912.6 244.7 912.7 244 912.9 243.8 913.1 244.5 913.2 244.1 913.4 243.8 913.5 243.9 913.6 242.8 913.8 242.7 914 241.8 914.1 241.8 914.2 241.8 914.4 244.3 914.4 242.9 914.5 243.8 914.6 243.5 914.6 242.7 914.7 243.3 914.8 243.5 914.9 242.7 915 243 915.1 242.9 915.2 243 915.3 242.5 915.4 242.6 915.5 241.7 915.6 241.7 915.7 242.2 915.8 242.6 915.9 243.1 916.1 242.7 916.3 243.1 916.4 242 916.5 243.3 916.7 243 916.9 242.9 917.1 244.4 917.4 243.1 917.5 242.7 917.6 242 917.7 242.8 917.8 243.1 917.9 243.5 918 243.9 918.1 243.8 918.1 243.5 918.2 243.2 918.2 243 918.3 243.7 918.4 243.9 918.6 243.9 918.7 243.1 918.9 242 919.1 241.2 919.2 241.3 919.3 240.7 919.5 239.2 919.6 239.1 919.7 238 919.8 237.5 919.8 237.7 919.9 236.9 919.9 237.4 920 236.4 920.1 235.8 920.1 236 920.2 236.5 920.3 236.6 920.4 236.3 920.5 235.9 920.6 235.6 920.7 235.6 920.8 235.7 920.9 237.1 921 237.3 921.1 236.8 921.3 236.4 921.4 236.2 921.5 236.5 921.6 236.8 921.8 236.6 921.9 236.8 922.1 236.4 922.2 238.3 922.3 238.8 922.5 237.6 922.6 237.6 922.7 237.9 922.7 237.7 922.8 237.7 922.9 237.3 922.9 237.3 923 236.5 923.1 235.8 923.2 234.4 923.3 234 923.4 234.4 923.5 235.5 923.6 235 923.7 234.8 923.8 234 923.9 234.2 924 233.4 924.1 234.1 924.2 233.6 924.4 232 924.5 233 924.6 232.1 924.7 232.7 924.8 232.1 925 232 925.1 233.2 925.2 232.9 925.3 234.2 925.5 234.4 925.6 233.4 925.8 233.8 926 233.3 926.1 234.2 926.3 233.9 926.3 236 926.4 236.8 926.6 237.1 926.7 237.8 926.8 237.5 926.9 237.7 927 238.3 927.2 239.7 927.3 240.2 927.5 239.3 927.6 240 927.7 242.1 927.7 243 927.9 242.9 928 242.9 928.1 243.3 928.4 242.6 928.6 243 928.7 242.5 928.9 244.7 929 245 929 245.5 929.2 245 929.3 245.1 929.4 247 929.5 247.6 929.7 247.4 929.9 246.7 930.1 246.4 930.3 247.4 930.5 247.2 930.6 247.3 930.8 249.8 931 248 931.2 248.7 931.4 252.3 931.5 250.6 931.7 250.9 931.8 253.6 931.9 252.2 932.1 252 932.2 251.7 932.4 252.9 932.6 251.7 932.8 250.7 933 249.9 933.2 249.7 933.4 248.6 933.5 248.3 933.7 248.9 934 249.2 934 248.8" opacity=".6"/><text x="942" y="472" fill="#d97706" font-size="11" text-anchor="start">0.00</text><text x="942" y="396" fill="#d97706" font-size="11" text-anchor="start">0.00</text><text x="942" y="320" fill="#d97706" font-size="11" text-anchor="start">0.01</text><text x="942" y="244" fill="#d97706" font-size="11" text-anchor="start">0.01</text><text x="942" y="168" fill="#d97706" font-size="11" text-anchor="start">0.01</text><text x="942" y="92" fill="#d97706" font-size="11" text-anchor="start">0.01</text><text x="942" y="80" fill="#d97706" font-size="11" font-weight="600" text-anchor="start">price</text><polygon fill="#16a34a" fill-opacity=".08" points="611.8 468 611.8 441.4 611.8 441.8 627.2 440.6 631.1 441 631.9 439.8 632.1 440.2 633.4 440.8 635.3 441.7 705.7 443 708 442.2 711.4 442.6 735.1 443.3 749.7 441.5 760.7 441.9 823.4 440.7 824.9 439.9 825.4 440.3 826.4 440.9 826.8 439.2 826.9 438.4 826.9 438.8 828.5 437.6 834.5 436.9 834.6 437.3 834.8 436.1 834.9 436.5 835 435.3 835 435.7 835.1 436.3 835.3 437.2 835.3 438.6 835.5 439 835.5 437.8 835.5 438.2 835.6 438.8 835.7 437.1 835.8 437.5 836.2 438.1 836.2 438.9 836.3 440.3 836.3 439.5 836.4 439.9 836.5 440.5 836.6 438.8 836.6 439.2 836.6 439.8 836.6 440.7 836.6 438 836.7 438.4 836.7 437.2 836.8 437.6 836.8 438.3 836.8 436.5 836.8 436.9 836.8 437.5 836.9 438.4 836.9 435.7 836.9 436.1 836.9 436.7 836.9 437.7 836.9 439 837.1 439.4 837.2 438.2 837.3 437.5 837.3 436.7 837.3 437.1 837.4 435.9 837.4 436.3 837.4 435.1 837.4 435.5 837.4 436.1 837.4 437 837.4 438.4 837.4 438.8 837.4 437.6 837.4 438 837.4 438.6 837.4 436.8 837.4 437.2 837.4 436 837.4 436.4 837.4 437 837.4 437.9 837.4 439.3 837.4 439.7 837.5 440.3 837.5 441.2 837.5 442.6 837.5 443 837.6 441.8 837.6 442.2 837.6 442.8 837.6 443.7 837.6 441.1 837.6 440.3 837.6 440.7 837.6 439.5 837.6 438.7 837.6 439.1 837.6 439.7 837.7 437.9 837.8 438.3 837.8 437.2 837.8 437.6 837.9 436.4 837.9 435.6 838 436 838 434.8 838 435.2 838 435.8 838.1 434.1 838.1 434.5 838.1 435.1 838.1 436 838.1 433.3 838.1 432.5 838.1 431.8 838.1 431 838.1 430.2 838.1 430.6 838.1 431.2 838.2 432.1 838.2 433.5 838.2 433.9 838.2 434.5 838.2 432.7 838.2 431.9 838.2 432.4 838.2 431.2 838.2 430.4 838.2 430.8 838.2 431.4 838.2 432.3 838.2 433.7 838.2 434.1 838.2 432.9 838.2 433.3 838.2 432.1 838.2 432.5 838.3 431.3 838.3 431.7 838.3 432.3 838.3 433.3 838.3 434.6 838.3 433.8 838.3 433.1 838.3 432.3 838.3 432.7 838.3 431.5 838.3 431.9 838.3 432.5 838.3 433.4 838.3 430.8 838.3 430 838.3 429.2 838.3 429.6 838.3 428.4 838.3 427.7 838.3 428.1 838.3 428.7 838.3 429.6 838.4 426.9 838.4 427.3 838.4 427.9 838.4 428.8 838.4 426.2 838.4 426.6 838.4 427.2 838.4 428.1 838.4 429.4 838.4 429.8 838.4 430.4 838.4 428.7 838.4 427.9 838.4 428.3 838.4 428.9 838.4 429.8 838.4 431.1 838.4 431.5 838.4 432.1 838.4 433 838.4 434.3 838.5 434.7 838.5 435.4 838.5 436.3 838.5 433.6 838.5 432.8 838.5 433.2 838.5 432.1 838.5 431.3 838.5 430.5 838.5 430.9 838.5 431.5 838.5 432.4 838.5 433.7 838.5 432.9 838.5 433.3 838.5 433.9 838.5 434.8 838.5 436.2 838.5 435.4 838.5 434.6 838.5 433.8 838.5 434.2 838.6 434.8 838.6 435.7 838.6 437.1 838.6 437.5 838.6 436.3 838.6 436.7 838.6 435.6 838.6 436 838.6 436.5 838.6 437.4 838.6 438.8 838.6 438 838.6 438.4 838.6 439 838.6 437.2 838.7 436.5 838.7 435.7 838.7 436.1 838.7 434.9 838.7 435.3 838.7 435.9 838.7 436.8 838.7 438.2 838.7 437.4 838.7 437.8 838.7 436.7 838.7 435.9 838.7 436.3 838.7 435.1 838.7 434.3 838.7 433.5 838.7 432.7 838.7 432 838.7 432.4 838.7 433 838.7 431.2 838.7 430.4 838.7 430.8 838.7 431.4 838.7 432.3 838.8 429.7 838.8 430.1 838.8 430.7 838.8 431.6 838.8 433 838.8 433.4 838.8 432.2 838.8 431.4 838.8 431.8 838.8 430.7 838.8 429.9 838.8 430.3 838.8 429.1 838.8 428.3 838.8 427.5 838.8 427.9 838.8 428.5 838.8 429.4 838.8 426.8 838.8 426 838.8 426.4 838.8 425.2 838.8 425.6 838.8 424.5 838.8 424.9 838.8 423.7 838.8 424.1 838.8 424.7 838.8 422.9 838.8 422.1 838.8 422.6 838.8 421.4 838.8 421.8 838.8 420.6 838.8 419.8 838.8 420.2 838.8 419 838.8 419.4 838.8 418.2 838.9 417.5 838.9 417.9 838.9 416.7 838.9 417.1 838.9 417.7 838.9 415.9 838.9 415.1 839 415.5 839 416.1 839 414.4 839 414.8 839 413.6 839 414 839 412.8 839 412.1 839 412.5 839 413.1 839 411.3 839 410.5 839 409.7 839 409 839 408.2 839 408.6 839.1 407.4 839.1 407.8 839.1 408.4 839.1 409.3 839.1 410.6 839.2 411 839.2 411.6 839.2 409.9 839.3 409.1 839.3 409.5 839.3 410.1 839.4 411 839.4 412.4 839.4 412.8 839.4 413.4 839.4 414.3 839.5 411.6 839.5 412 839.5 412.7 839.5 413.6 839.5 414.9 839.5 415.3 839.5 414.2 839.6 414.5 839.6 413.4 839.7 412.6 839.7 413 839.7 413.6 839.7 414.5 839.7 411.9 839.7 412.3 839.7 411.1 839.8 411.5 839.8 410.3 839.8 409.5 839.8 409.9 839.8 408.8 839.9 408 840 408.4 840 409 840 409.8 840.1 411.2 840.1 411.6 840.1 410.4 840.1 409.6 840.1 410 840.1 408.9 840.1 409.3 840.1 408.1 840.1 408.5 840.1 407.3 840.1 407.7 840.1 408.3 840.1 406.6 840.1 405.8 840.1 405 840.1 404.2 840.1 404.6 840.1 403.5 840.1 403.8 840.2 404.4 840.2 405.3 840.2 406.7 840.2 407.1 840.2 405.9 840.2 406.3 840.2 406.9 840.2 407.8 840.2 405.2 840.2 405.6 840.2 406.2 840.3 407.1 840.3 404.4 840.3 404.8 840.3 405.4 840.3 406.3 840.3 407.7 840.3 408.1 840.3 406.9 840.3 407.3 840.3 406.1 840.3 405.3 840.3 405.7 840.3 404.6 840.3 403.8 840.3 403 840.3 402.2 840.3 402.6 840.3 403.2 840.4 401.4 840.4 401.8 840.4 402.4 840.4 403.3 840.4 400.7 840.4 399.9 840.4 400.3 840.4 399.2 840.4 399.6 840.4 400.2 840.4 401.1 840.4 402.4 840.4 402.8 840.4 403.4 840.4 401.7 840.4 402.1 840.4 402.7 840.4 403.6 840.4 401 840.4 400.2 840.5 399.4 840.5 398.6 840.5 399 840.5 397.8 840.5 397 840.5 397.4 840.5 398 840.5 399 840.5 400.3 840.5 400.7 840.5 401.3 840.6 399.6 840.6 398.8 840.6 399.2 840.6 398 840.6 398.4 840.6 399 840.6 399.9 840.6 401.3 840.6 401.7 840.6 402.3 840.6 400.5 840.6 400.9 840.6 399.8 840.7 400.2 840.7 399 840.7 398.2 840.7 397.4 840.7 397.8 840.7 398.4 840.7 396.7 840.7 397.1 840.7 397.7 840.7 398.6 840.7 395.9 840.7 396.3 840.7 395.2 840.7 395.6 840.7 394.4 840.7 394.8 840.7 395.4 840.7 396.3 840.7 397.6 840.7 398 840.7 398.6 840.7 399.5 840.7 400.8 840.7 400.1 840.8 399.3 840.8 398.5 840.8 397.7 840.8 398.1 840.8 398.7 840.8 397 840.8 397.4 840.8 397.9 840.8 398.8 840.8 400.2 840.8 400.6 840.8 399.4 840.8 399.8 840.8 400.4 840.8 398.7 840.8 397.9 840.8 397.1 840.8 396.3 840.8 396.7 840.8 397.3 840.9 395.5 840.9 396 840.9 396.6 840.9 397.5 840.9 398.8 840.9 399.2 840.9 399.8 840.9 398.1 840.9 398.5 841 397.3 841 397.7 841 396.6 841 397 841 397.6 841 398.5 841 399.9 841 399.1 841 398.3 841 398.7 841.1 399.3 841.1 400.2 841.1 401.5 841.1 401.9 841.1 402.5 841.1 403.5 841.1 404.8 841.1 404 841.1 403.3 841.1 403.7 841.2 404.3 841.2 402.5 841.2 402.9 841.2 403.5 841.2 401.7 841.2 402.1 841.2 402.7 841.2 403.6 841.2 405 841.3 404.2 841.3 403.4 841.3 403.8 841.3 404.4 841.3 402.6 841.4 401.9 841.4 402.3 841.6 402.9 841.6 403.8 841.7 405.2 841.8 405.5 841.8 406.1 841.8 407 841.8 408.4 841.8 408.8 841.8 409.4 841.8 410.3 841.8 411.6 841.8 412 841.8 412.6 841.8 413.5 841.8 414.8 841.8 415.2 841.8 415.8 841.8 416.7 841.8 418.1 841.9 418.5 841.9 419.1 842 420 842.1 417.3 842.1 416.6 842.1 417 842.1 417.6 842.1 418.5 842.1 415.8 842.2 415 842.3 414.2 842.3 414.6 842.3 415.2 842.3 416.2 842.3 417.5 842.3 417.9 842.3 418.5 842.3 419.4 842.3 420.8 842.4 420 842.4 420.4 842.4 421 842.4 421.8 842.4 423.2 842.4 423.6 842.4 424.2 842.5 425.1 842.5 426.5 842.5 426.9 842.5 427.5 842.5 428.4 842.5 429.7 842.6 428.9 842.6 428.1 842.6 428.6 842.6 427.4 842.7 427.8 842.7 428.4 842.7 429.3 842.7 430.7 842.7 429.9 842.9 429.1 843 429.5 843 430.1 843 431 843 432.3 843 432.7 843 433.3 843 434.2 843 435.5 843.1 435.9 843.1 434.8 843.1 435.2 843.1 435.8 843.2 434 843.2 433.2 843.2 433.6 843.2 434.2 843.2 435.1 843.3 432.5 843.3 431.7 843.3 430.9 843.3 431.3 843.3 430.1 843.3 430.5 843.4 429.4 843.4 429.8 843.4 430.4 843.4 428.6 843.4 429 843.5 429.6 843.5 427.8 843.5 428.3 843.5 427.1 843.5 427.5 843.5 428.1 843.6 429 843.6 426.3 843.6 426.7 843.6 427.3 843.6 428.2 843.6 429.6 843.7 430 843.7 430.6 844 428.8 844 429.2 844 429.8 844 430.7 844 432 844 431.2 844 431.6 844 432.3 844 430.5 844 430.9 844 429.7 844 430.1 844 430.7 844.1 431.6 844.1 429 844.1 428.2 844.1 427.4 844.1 426.6 844.1 425.8 844.1 425 844.1 425.4 844.1 426 844.1 426.9 844.1 428.3 844.2 428.7 844.2 427.5 844.2 427.9 844.2 428.5 844.2 429.4 844.4 426.8 844.4 427.2 844.4 427.8 844.5 426 844.5 426.4 844.6 427 844.6 427.9 844.6 429.3 844.6 428.5 844.7 428.9 844.7 429.5 844.7 427.8 844.7 428.2 844.7 428.8 844.7 427 844.7 427.4 844.7 428 844.7 428.9 844.7 430.2 844.7 430.6 844.7 431.2 844.9 432.1 844.9 433.5 845 432.7 845 433.1 845.1 433.7 845.1 434.6 845.1 435.9 845.1 436.3 845.1 436.9 845.2 437.8 845.2 435.2 845.2 435.6 845.2 434.4 845.2 434.8 845.2 435.4 845.2 436.3 845.3 437.7 845.5 436.9 845.7 437.3 845.7 437.9 845.7 438.8 845.7 440.2 845.7 440.6 845.7 441.2 845.8 439.4 845.8 439.8 845.8 440.4 845.8 438.7 845.9 437.9 845.9 438.3 846 438.9 846 439.8 846 441.2 846 441.6 846 442.2 846 443.1 846 444.5 846 444.9 846.1 445.5 846.1 446.4 846.1 443.7 846.1 442.9 846.1 443.4 846.1 444 846.1 444.9 846.1 446.2 846.1 446.6 846.1 447.2 846.2 448.1 846.3 445.5 846.3 445.9 846.3 446.5 846.4 447.4 846.4 448.7 846.4 449.1 846.4 449.7 846.5 450.6 846.5 452 846.6 451.2 846.6 450.4 846.6 450.8 846.6 451.4 846.6 452.3 846.9 453.7 847 453 847 452.3 847.1 451.5 847.1 451.9 847.1 452.5 847.2 453.4 847.3 450.8 847.3 450 847.3 450.4 847.3 449.2 847.3 449.6 847.3 450.2 847.3 451.1 847.4 452.4 847.4 452.8 847.4 453.4 847.4 454.3 847.4 455.6 847.4 455.9 847.4 456.4 847.6 455 847.6 455.3 847.6 455.8 847.6 456.6 847.6 457.7 847.6 457.9 848 458.3 848 458.9 848 459.8 848.2 460 848.2 460.3 848.3 460.7 848.3 461.4 848.3 461.1 848.3 460.8 848.3 461 848.4 460.4 848.4 460.1 848.6 459.7 848.7 459.9 848.9 460.2 849 460.7 849.2 461.4 849.7 461 849.7 461.2 849.7 461.5 849.7 461.9 849.9 460.7 849.9 460.4 850.1 460.6 850.1 460.8 850.2 460 850.2 460.2 850.6 459.6 850.7 459.8 851 460.1 851.4 459.2 851.7 458.8 851.8 459 851.9 459.4 852 458.4 852.2 458.6 852.2 459 852.2 459.5 852.2 460.3 852.2 459.9 852.2 460.2 852.2 460.5 852.2 460.9 852.2 461.6 852.2 461.3 852.2 460.9 852.3 460.6 852.3 460.8 852.3 461.1 852.3 461.5 852.3 462.1 852.3 462.3 852.3 462.5 852.3 462.8 852.3 463.3 852.3 463.1 852.3 463.2 852.3 462.8 852.3 463 852.4 462.6 852.4 462.3 852.4 462.5 852.5 462.7 852.5 463 852.5 463.5 852.5 463.3 852.5 463 852.6 462.8 852.7 462.5 852.7 462.3 852.7 462.4 852.8 462.6 852.8 462.9 853 463.4 853 463.5 853 463.7 853 464 853 464.4 853.1 464.5 853.1 464.6 853.1 464.8 853.1 464.2 853.1 464.3 853.2 464.4 853.2 464.6 853.2 464 853.2 463.8 853.2 463.9 853.2 464.1 853.2 464.3 853.2 463.6 853.2 463.7 853.2 463.9 853.2 463.4 853.3 463.5 853.3 463.7 853.3 464 853.3 464.4 853.3 464.4 853.3 464.2 853.4 464 853.5 464.1 853.5 464.2 853.6 464.5 853.6 464.8 853.6 464.7 853.6 464.5 853.6 464.6 853.6 464.7 853.6 464.3 853.6 464.1 853.6 464.2 853.6 464.4 853.6 464 853.6 463.8 853.6 463.6 853.7 463.3 853.7 463.5 853.7 463.1 853.7 463.2 853.7 463.4 853.7 463.7 853.8 462.9 853.8 463 853.8 462.6 853.8 462.4 853.8 462.5 853.8 462.7 853.8 463.1 853.9 463.5 853.9 463.6 853.9 463.8 853.9 463.3 853.9 463.1 853.9 463.2 853.9 463.4 853.9 462.9 853.9 462.6 854 462.7 854 462.9 854 463.2 854.1 463.7 854.1 463.8 854.1 463.5 854.1 463.3 854.1 463.4 854.1 463.6 854.1 463.1 854.1 462.8 854.1 462.9 854.1 462.6 854.1 462.3 854.1 462.4 854.1 462.7 854.1 462 854.1 461.7 854.1 461.9 854.1 461.4 854.1 461.1 854.1 461.3 854.1 461.5 854.1 460.8 854.1 461 854.1 461.2 854.1 461.6 854.1 460.5 854.1 460.6 854.1 460.1 854.1 460.3 854.1 459.7 854.1 459.3 854.1 458.9 854.1 459.1 854.1 459.4 854.1 460 854.1 460.7 854.1 460.4 854.1 460 854.1 460.2 854.1 460.5 854.1 459.6 854.1 459.8 854.1 459.2 854.1 459.4 854.1 458.8 854.1 458.4 854.1 457.9 854.1 458.1 854.1 457.4 854.1 457.7 854.1 456.9 854.1 457.2 854.1 457.6 854.1 456.4 854.1 455.8 854.1 455.2 854.1 454.6 854.1 454.9 854.1 453.9 854.1 453.2 854.1 452.5 854.1 451.8 854.1 451 854.1 450.2 854.1 450.6 854.1 449.4 854.1 449.8 854.1 448.7 854.1 447.9 854.1 447.1 854.1 446.3 854.1 445.5 854.1 445.9 854.1 446.5 854.1 444.8 854.1 444 854.1 444.4 854.1 445 854.1 443.2 854.1 443.6 854.1 442.4 854.1 442.8 854.1 441.6 854.1 442 854.1 440.9 854.1 441.3 854.1 441.9 854.1 442.8 854.1 440.1 854.1 440.5 854.1 441.2 854.1 439.4 854.1 439.8 854.1 438.6 854.1 437.8 854.1 438.2 854.1 437 854.1 436.3 854.1 436.7 854.1 437.3 854.1 435.5 854.1 434.7 854.1 435.1 854.1 433.9 854.1 434.3 854.1 433.2 854.1 432.4 854.1 432.8 854.1 433.4 854.1 431.6 854.1 430.8 854.1 431.2 854.1 431.8 854.1 430.1 854.1 430.5 854.1 429.3 854.1 429.7 854.1 428.5 854.1 428.9 854.1 427.8 854.1 428.2 854.1 427 854.1 426.2 854.1 426.6 854.1 427.2 854.1 425.5 854.1 425.9 854.1 424.7 854.1 425.1 854.1 423.9 854.1 424.3 854.1 423.2 854.1 422.4 854.1 422.8 854.1 421.6 854.1 422 854.1 420.8 854.1 420 854.1 420.4 854.1 419.3 854.1 419.7 854.1 420.3 854.1 418.5 854.1 418.9 854.1 417.7 854.1 418.1 854.1 418.7 854.1 419.7 854.1 417 854.1 417.4 854.1 416.2 854.1 416.6 854.1 415.4 854.1 415.8 854.1 414.7 854.1 413.9 854.1 414.3 854.1 413.1 854.1 412.3 854.1 411.5 854.1 411.9 854.1 412.5 854.1 410.8 854.1 411.2 854.1 410 854.1 409.2 854.1 408.5 854.1 407.7 854.1 406.9 854.1 407.3 854.1 406.1 854.1 406.5 854.1 405.4 854.1 404.6 854.1 403.8 854.1 404.2 854.1 403 854.1 402.2 854.1 402.6 854.1 403.2 854.1 401.5 854.1 400.7 854.1 401.1 854.1 399.9 854.1 399.1 854.1 398.3 854.1 398.8 854.1 397.6 854.1 396.8 854.1 396 854.1 395.2 854.1 394.4 854.1 394.8 854.1 393.7 854.1 392.9 854.1 393.3 854.1 392.1 854.1 391.3 854.1 390.5 854.1 389.8 854.1 390.2 854.1 390.8 854.2 389 854.2 388.2 854.2 388.6 854.2 387.5 854.2 387.9 854.2 386.7 854.2 385.9 854.2 385.1 854.2 384.3 854.2 384.7 854.2 383.5 854.2 383.9 854.2 382.8 854.2 383.2 854.2 382 854.2 382.4 854.2 381.2 854.2 381.6 854.2 380.4 854.2 379.7 854.2 380.1 854.2 380.7 854.2 378.9 854.2 379.3 854.2 378.1 854.2 378.5 854.2 377.4 854.2 376.6 854.2 375.8 854.2 376.2 854.2 375 854.2 374.2 854.2 373.5 854.2 372.7 854.2 371.9 854.2 371.1 854.2 370.3 854.2 370.7 854.2 369.6 854.2 368.8 854.2 369.2 854.2 368 854.2 368.4 854.2 367.2 854.2 366.4 854.2 366.9 854.2 365.7 854.2 364.9 854.2 365.3 854.2 365.9 854.2 364.1 854.2 364.5 854.2 365.1 854.2 363.4 854.2 363.8 854.2 362.6 854.2 361.8 854.2 362.2 854.2 362.8 854.2 361.1 854.2 361.5 854.2 360.3 854.2 359.5 854.2 358.7 854.2 357.9 854.2 357.2 854.2 356.4 854.2 356.8 854.2 355.6 854.2 354.8 854.2 355.2 854.2 355.9 854.2 354.1 854.2 354.5 854.2 355.1 854.2 353.3 854.2 353.7 854.2 352.5 854.2 352.9 854.2 353.5 854.2 351.8 854.2 351 854.2 351.4 854.2 350.2 854.2 350.6 854.2 349.5 854.2 348.7 854.2 347.9 854.2 348.3 854.2 348.9 854.2 347.1 854.2 347.5 854.2 346.4 854.2 345.6 854.2 344.8 854.2 345.2 854.2 344 854.2 344.4 854.2 343.2 854.2 343.7 854.2 342.5 854.2 342.9 854.2 341.7 854.2 342.1 854.2 340.9 854.2 341.3 854.2 340.1 854.2 339.4 854.2 338.6 854.2 339 854.2 337.8 854.2 338.2 854.2 337 854.2 336.2 854.2 335.4 854.2 334.6 854.2 333.9 854.2 334.3 854.2 334.9 854.2 333.1 854.2 333.5 854.2 332.3 854.2 331.5 854.2 330.7 854.2 331.1 854.2 331.7 854.2 330 854.2 329.2 854.2 329.6 854.2 330.2 854.2 328.4 854.2 327.7 854.2 326.9 854.2 327.3 854.2 327.9 854.2 326.1 854.2 326.5 854.2 325.3 854.2 325.7 854.2 324.6 854.2 325 854.2 323.8 854.2 323 854.2 323.4 854.2 324 854.2 322.3 854.2 321.5 854.2 321.9 854.2 320.7 854.2 321.1 854.2 319.9 854.2 320.3 854.2 319.2 854.2 319.6 854.2 320.2 854.2 321.1 854.2 318.4 854.2 317.6 854.2 316.9 854.2 316.1 854.2 315.3 854.2 315.7 854.2 314.5 854.2 313.7 854.2 314.1 854.2 313 854.2 313.4 854.2 314 854.2 312.2 854.2 312.6 854.2 313.2 854.2 311.5 854.2 310.7 854.2 311.1 854.2 309.9 854.2 310.3 854.2 310.9 854.2 311.8 854.2 309.2 854.2 309.6 854.2 310.2 854.2 311.1 854.2 308.5 854.2 307.7 854.2 306.9 854.2 307.3 854.2 306.1 854.2 306.5 854.2 305.4 854.2 304.6 854.2 305 854.2 303.8 854.2 304.2 854.2 304.8 854.2 303 854.2 302.2 854.2 302.7 854.2 301.5 854.2 301.9 854.2 302.5 854.2 300.7 854.2 301.1 854.2 301.7 854.2 302.6 854.2 300 854.2 300.4 854.2 301 854.2 299.2 854.2 299.6 854.2 300.2 854.2 298.4 854.2 298.8 854.2 297.7 854.3 298.1 854.3 296.9 854.3 296.1 854.3 295.3 854.3 294.6 854.3 294.9 854.3 293.8 854.3 293 854.3 293.4 854.3 292.2 854.3 292.6 854.3 291.5 854.3 291.9 854.3 292.5 854.3 293.4 854.3 290.7 854.3 291.1 854.3 289.9 854.3 290.3 854.3 290.9 854.3 289.2 854.3 289.6 854.3 288.4 854.3 287.6 854.3 288 854.3 286.8 854.3 286 854.3 285.3 854.3 285.7 854.3 286.3 854.3 287.2 854.3 288.6 854.3 287.8 854.3 288.2 854.3 287 854.3 286.2 854.3 286.6 854.3 285.5 854.3 284.7 854.3 285.1 854.3 283.9 854.3 283.1 854.3 283.5 854.3 282.3 854.3 281.6 854.3 282 854.3 280.8 854.3 280 854.3 280.4 854.3 279.2 854.3 279.6 854.3 278.5 854.3 278.9 854.3 279.5 854.3 277.7 854.3 276.9 854.3 277.3 854.3 276.2 854.3 275.4 854.3 274.6 854.3 273.8 854.3 274.2 854.3 273.1 854.3 272.3 854.3 272.7 854.3 271.5 854.3 271.9 854.3 270.7 854.3 270 854.3 269.2 854.3 269.6 854.3 270.2 854.3 268.4 854.3 268.9 854.3 267.7 854.3 266.9 854.3 267.3 854.3 266.1 854.3 265.3 854.3 265.7 854.3 264.6 854.3 265 854.3 263.8 854.3 264.2 854.3 263 854.3 262.3 854.3 261.5 854.3 261.9 854.3 260.7 854.3 259.9 854.3 260.3 854.3 259.1 854.3 258.4 854.3 257.6 854.3 258 854.3 258.6 854.3 256.8 854.3 257.2 854.3 256.1 854.3 255.3 854.3 255.7 854.3 254.5 854.3 253.7 854.3 254.1 854.3 254.7 854.3 253 854.3 252.2 854.3 252.6 854.3 253.2 854.3 251.4 854.3 251.8 854.3 252.4 854.3 250.7 854.3 249.9 854.3 249.1 854.3 248.3 854.3 248.7 854.3 249.3 854.3 247.5 854.3 246.8 854.3 247.2 854.3 247.8 854.3 246 854.3 245.2 854.3 245.6 854.3 246.2 854.3 244.5 854.3 244.9 854.3 243.7 854.3 244.1 854.3 244.7 854.3 242.9 854.3 243.3 854.3 242.2 854.3 242.6 854.3 241.4 854.3 240.6 854.3 241 854.3 241.6 854.3 242.5 854.3 243.9 854.3 243.1 854.3 242.3 854.3 241.5 854.3 241.9 854.3 240.8 854.3 241.2 854.3 240 854.3 240.4 854.3 239.2 854.3 238.4 854.3 238.9 854.3 237.7 854.3 238.1 854.3 238.7 854.3 236.9 854.3 236.1 854.3 235.4 854.3 235.8 854.3 234.6 854.3 233.8 854.3 234.2 854.3 234.8 854.3 235.7 854.3 233.1 854.3 232.3 854.3 232.7 854.3 233.3 854.3 231.5 854.3 230.7 854.3 231.1 854.3 231.7 854.3 230 854.3 230.4 854.3 229.2 854.3 229.6 854.3 228.4 854.3 228.8 854.3 227.7 854.3 228.1 854.3 226.9 854.3 226.1 854.3 225.3 854.3 225.7 854.3 224.6 854.3 225 854.3 223.8 854.3 224.2 854.3 223 854.3 223.4 854.3 222.3 854.3 221.5 854.3 221.9 854.3 220.7 854.3 221.1 854.3 219.9 854.3 220.3 854.3 219.1 854.3 219.5 854.3 220.1 854.3 218.4 854.3 218.8 854.3 217.6 854.3 218 854.3 216.9 854.3 216.1 854.3 215.3 854.3 215.7 854.3 216.3 854.3 214.5 854.3 214.9 854.3 213.8 854.3 214.2 854.3 213 854.3 212.2 854.3 212.6 854.3 213.2 854.3 214.1 854.3 211.5 854.3 211.9 854.3 212.5 854.3 210.7 854.3 210 854.3 210.4 854.3 209.2 854.3 208.4 854.3 208.8 854.3 207.6 854.3 206.9 854.3 206.1 854.3 206.5 854.3 207.1 854.3 205.3 854.3 205.7 854.3 204.5 854.3 205 854.3 205.6 854.3 203.8 854.3 204.2 854.3 203 854.3 202.2 854.3 202.6 854.3 201.4 854.3 201.8 854.4 200.7 854.4 201.1 854.4 201.7 854.4 202.6 854.4 199.9 854.4 200.3 854.4 200.9 854.4 199.2 854.4 199.6 854.4 198.4 854.4 198.8 854.4 199.4 854.4 197.7 854.4 198.1 854.4 198.7 854.4 199.6 854.4 200.9 854.4 201.3 854.4 200.1 854.4 200.5 854.4 201.1 854.4 199.4 854.4 198.6 854.4 199 854.4 199.6 854.4 197.8 854.4 197 854.4 197.4 854.4 198 854.4 198.9 854.4 196.3 854.4 195.5 854.4 195.9 854.4 196.5 854.4 194.7 854.4 195.1 854.4 194 854.4 194.4 854.4 193.2 854.4 192.4 854.4 192.8 854.4 191.6 854.4 190.8 854.4 191.2 854.4 190.1 854.4 189.3 854.4 189.7 854.4 188.5 854.4 188.9 854.4 187.7 854.4 188.1 854.4 186.9 854.4 186.2 854.4 186.6 854.4 185.4 854.4 185.8 854.4 184.6 854.4 183.8 854.4 184.2 854.4 183.1 854.4 182.3 854.4 182.7 854.4 183.3 854.4 181.5 854.4 181.9 854.4 180.7 854.4 181.1 854.4 180 854.4 180.3 854.4 179.2 854.4 179.6 854.4 178.4 854.4 177.6 854.4 178 854.4 176.9 854.4 176.1 854.4 176.5 854.4 175.3 854.4 175.7 854.4 176.3 854.4 174.6 854.4 175 854.4 173.8 854.4 174.2 854.4 174.8 854.4 173 854.4 172.2 854.4 172.6 854.4 173.3 854.4 174.2 854.4 175.5 854.4 175.9 854.4 174.8 854.4 175.2 854.4 174 854.4 174.4 854.4 175 854.4 173.2 854.4 173.6 854.4 172.5 854.4 172.9 854.4 171.7 854.4 172.1 854.4 172.7 854.4 170.9 854.4 171.3 854.4 170.2 854.4 169.4 854.4 168.6 854.4 167.8 854.4 167 854.4 166.2 854.4 165.5 854.4 165.9 854.4 164.7 854.4 165.1 854.4 163.9 854.4 164.3 854.5 163.1 854.5 163.5 854.5 162.4 854.5 162.8 854.5 161.6 854.5 162 854.5 160.8 854.5 161.2 854.5 160 854.5 159.3 854.5 159.6 854.5 160.2 854.5 161.1 854.5 158.5 854.5 158.9 854.5 157.7 854.5 157 854.5 157.4 854.5 156.2 854.5 156.6 854.5 155.4 854.5 155.8 854.5 154.6 854.5 155 854.5 155.7 854.5 156.6 854.5 157.9 854.5 157.2 854.5 157.6 854.5 158.2 854.5 159 854.5 160.4 854.5 159.6 854.5 160 854.5 158.8 854.5 158.1 854.5 158.5 854.5 157.3 854.5 156.5 854.5 155.7 854.5 156.1 854.5 156.7 854.5 154.9 854.5 154.2 854.5 154.6 854.5 153.4 854.5 153.8 854.5 152.6 854.5 151.9 854.5 151.1 854.5 151.5 854.5 150.3 854.5 150.7 854.5 151.3 854.5 149.5 854.5 150 854.5 148.8 854.5 149.2 854.5 148 854.5 148.4 854.5 149 854.5 147.2 854.5 147.7 854.5 148.3 854.5 149.2 854.5 150.5 854.5 150.9 854.5 149.8 854.5 149 854.5 149.4 854.5 148.2 854.5 148.6 854.5 147.5 854.5 147.9 854.6 148.5 854.6 149.4 854.6 146.7 854.6 147.1 854.6 147.7 854.6 148.6 854.6 146 854.6 146.4 854.6 147 854.6 147.9 854.7 145.2 854.7 144.5 854.7 143.7 854.7 142.9 854.7 142.1 854.8 142.5 854.8 143.1 854.8 141.3 854.8 140.6 854.8 141 854.8 141.5 854.8 142.4 854.8 143.8 854.9 144.2 854.9 144.8 854.9 143 854.9 143.4 854.9 144 854.9 144.9 854.9 146.3 854.9 146.7 854.9 147.3 854.9 145.5 854.9 145.9 854.9 144.7 854.9 145.1 854.9 145.7 854.9 144 854.9 144.3 854.9 143.2 854.9 142.4 854.9 142.8 854.9 141.6 854.9 142 854.9 140.9 854.9 141.3 854.9 141.9 854.9 142.8 854.9 144.1 854.9 144.5 854.9 143.3 854.9 143.7 854.9 142.6 854.9 141.8 854.9 142.2 855 142.8 855 141 855 141.4 855 142 855 140.3 855 140.7 855 139.5 855 139.9 855 138.7 855 137.9 855 137.1 855 137.6 855 138.2 855 136.4 855 135.6 855 134.8 855 134 855 134.4 855 133.3 855 133.7 855 132.5 855 132.9 855 131.7 855 132.1 855 130.9 855 131.4 855 132 855.1 130.2 855.1 129.4 855.1 129.8 855.1 130.4 855.1 128.6 855.1 127.9 855.1 127.1 855.1 127.5 855.1 126.3 855.1 125.5 855.1 124.7 855.1 123.9 855.1 123.1 855.1 123.6 855.1 122.4 855.1 121.6 855.2 120.8 855.2 121.2 855.2 121.8 855.2 120 855.2 119.3 855.2 118.5 855.2 117.7 855.2 118.1 855.2 116.9 855.2 117.3 855.2 116.1 855.2 116.5 855.2 117.1 855.2 118 855.2 119.4 855.2 119.8 855.2 120.4 855.2 121.3 855.2 122.7 855.2 121.9 855.2 121.1 855.2 120.3 855.2 120.7 855.2 121.3 855.2 122.2 855.2 123.6 855.2 122.8 855.2 123.2 855.2 122 855.2 122.4 855.2 123 855.2 123.9 855.2 125.3 855.2 125.7 855.2 126.3 855.2 127.2 855.2 128.5 855.2 127.7 855.2 128.1 855.2 128.7 855.3 129.6 855.3 131 855.3 131.4 855.3 132 855.3 130.3 855.3 130.7 855.3 131.3 855.3 132.2 855.3 133.5 855.3 133.9 855.3 134.5 855.3 135.4 855.3 136.8 855.3 137.2 855.3 137.8 855.3 138.7 855.3 140 855.3 140.4 855.3 139.2 855.3 138.4 855.3 138.8 855.3 139.4 855.3 140.3 855.3 141.7 855.3 142.1 855.4 140.9 855.4 141.3 855.4 141.9 855.4 142.8 855.4 144.1 855.4 144.5 855.4 143.4 855.4 142.6 855.4 141.8 855.4 142.2 855.4 142.8 855.4 143.7 855.4 145.1 855.4 145.5 855.4 146.1 855.4 144.4 855.4 144.8 855.4 145.4 855.4 143.6 855.4 142.8 855.4 143.2 855.4 142.1 855.5 142.5 855.5 143.1 855.5 144 855.5 145.3 855.6 144.6 855.6 145 855.6 145.6 855.6 146.5 855.6 143.8 855.6 143.1 855.6 143.5 855.6 144.1 855.6 142.3 855.6 142.7 855.6 141.5 855.6 141.9 855.6 140.8 855.6 141.2 855.6 140 855.6 140.4 855.6 139.2 855.6 139.6 855.6 140.2 855.6 141.1 855.6 142.4 855.6 141.7 855.6 140.9 855.7 141.3 855.7 141.9 855.7 142.8 855.7 140.1 855.7 139.3 855.7 139.7 855.7 138.6 855.7 137.8 855.7 138.2 855.7 138.8 855.7 139.7 855.7 137 855.7 137.4 855.7 138 855.7 136.3 855.7 136.7 855.7 137.3 855.7 138.2 855.7 135.5 855.7 135.9 855.7 134.8 855.8 135.2 855.8 134 855.8 134.4 855.8 133.2 855.8 133.6 855.8 132.4 855.8 131.7 855.8 130.9 855.9 131.3 855.9 131.9 855.9 132.8 855.9 134.1 855.9 134.5 855.9 135.1 855.9 133.3 855.9 133.7 855.9 132.6 856 133 856 133.6 856 134.5 856 135.9 856 136.3 856 136.9 856 137.8 856 135.1 856 134.3 856 134.7 856 135.3 856.1 133.6 856.1 134 856.1 132.8 856.1 132 856.1 131.2 856.1 131.6 856.2 130.4 856.2 130.8 856.2 131.5 856.2 132.4 856.2 129.7 856.2 128.9 856.3 129.3 856.3 128.1 856.3 127.3 856.3 126.5 856.3 127 856.3 127.6 856.3 128.5 856.3 129.8 856.3 130.2 856.4 129.1 856.4 129.5 856.4 128.3 856.4 127.5 856.4 126.7 856.4 125.9 856.4 126.3 856.4 125.2 856.4 125.6 856.4 126.2 856.4 127.1 856.4 128.5 856.4 128.9 856.5 127.7 856.5 126.9 856.5 127.3 856.5 127.9 856.5 128.8 856.6 126.1 856.6 126.5 856.6 127.1 856.6 128 856.6 125.4 856.6 125.8 856.6 126.4 856.6 127.3 856.6 128.7 856.7 129.1 856.7 129.7 856.7 128 856.7 128.4 856.7 127.2 856.8 127.6 856.8 126.4 856.8 125.6 856.8 124.8 856.8 125.2 856.8 125.9 856.8 126.8 856.8 128.1 856.8 128.5 856.8 129.2 856.8 130.1 856.8 131.4 856.9 130.6 856.9 131 856.9 131.6 856.9 129.9 856.9 129.1 856.9 129.5 856.9 130.1 856.9 131 857 128.4 857 128.8 857 129.4 857 130.2 857 131.6 857 130.8 857 130 857 130.4 857 131 857 131.9 857 133.3 857 133.7 857 134.3 857 135.2 857 132.6 857 133 857 131.8 857 131 857 131.4 857 130.2 857 129.4 857 128.7 857 127.9 857.1 127.1 857.1 127.5 857.3 128.1 857.3 129 857.3 130.4 857.3 130.8 857.4 131.4 857.4 132.3 857.4 133.7 857.4 134.1 857.4 134.7 857.4 135.6 857.4 137 857.4 136.2 857.5 135.4 857.5 135.8 857.5 136.4 857.5 134.7 857.6 135.1 857.6 135.7 857.6 136.6 857.6 138 857.6 138.4 857.6 139 857.7 139.9 857.7 141.2 857.9 141.6 858.1 140.5 858.1 140.9 858.6 141.5 858.6 142.4 858.6 143.8 859 143 859.3 143.4 859.4 144 859.4 144.9 859.8 142.3 859.8 142.7 859.9 141.5 859.9 141.9 860 142.5 860 143.4 860.2 144.8 860.2 145.2 860.2 145.8 860.2 146.7 860.2 144.1 860.2 144.5 860.2 143.3 860.2 142.5 860.2 141.7 860.2 142.1 860.2 141 860.2 141.4 860.2 142 860.2 140.2 860.3 140.6 860.3 141.2 860.3 142.1 860.3 143.5 860.3 143.9 860.3 142.7 860.7 143.1 860.7 143.7 860.7 144.7 860.8 146 860.9 146.4 860.9 147 861.4 147.9 862.1 145.3 862.1 145.7 862.9 146.3 863 147.2 863.1 144.5 864.3 143.8 864.8 144.2 865 144.8 865.1 145.7 865.8 143 865.8 143.4 865.8 144 865.8 145 865.9 142.3 866.1 141.5 866.2 140.7 866.3 139.9 866.3 139.2 866.3 139.6 866.8 138.4 866.8 138.8 866.9 139.4 867.2 137.6 867.9 136.8 868.1 136 870 136.4 870 137 871.3 135.3 871.3 135.7 871.4 136.3 871.8 134.5 872.1 134.9 872.1 135.5 872.5 133.8 872.6 134.2 872.9 134.8 873.5 135.7 874.2 137 874.2 137.4 874.2 138 875.2 138.9 875.2 136.3 875.3 135.5 875.7 135.9 875.7 136.5 875.7 137.4 875.8 138.7 877.6 137.9 878.3 137.1 884 137.5 884.4 136.4 884.5 135.6 886.1 134.8 889.4 135.2 890.1 135.8 890.5 136.7 890.7 138 891.3 137.2 893.1 136.5 899.1 136.9 899.6 137.5 900.3 138.4 901.8 139.7 904.6 140.1 904.6 140.7 908 138.9 910 138.1 919.9 137.4 927.6 137.8 929.4 136.6 929.4 468"/><polyline fill="none" stroke="#16a34a" stroke-linejoin="round" stroke-width="2" points="611.8 441.4 611.8 441.8 627.2 440.6 631.1 441 631.9 439.8 632.1 440.2 633.4 440.8 635.3 441.7 705.7 443 708 442.2 711.4 442.6 735.1 443.3 749.7 441.5 760.7 441.9 823.4 440.7 824.9 439.9 825.4 440.3 826.4 440.9 826.8 439.2 826.9 438.4 826.9 438.8 828.5 437.6 834.5 436.9 834.6 437.3 834.8 436.1 834.9 436.5 835 435.3 835 435.7 835.1 436.3 835.3 437.2 835.3 438.6 835.5 439 835.5 437.8 835.5 438.2 835.6 438.8 835.7 437.1 835.8 437.5 836.2 438.1 836.2 438.9 836.3 440.3 836.3 439.5 836.4 439.9 836.5 440.5 836.6 438.8 836.6 439.2 836.6 439.8 836.6 440.7 836.6 438 836.7 438.4 836.7 437.2 836.8 437.6 836.8 438.3 836.8 436.5 836.8 436.9 836.8 437.5 836.9 438.4 836.9 435.7 836.9 436.1 836.9 436.7 836.9 437.7 836.9 439 837.1 439.4 837.2 438.2 837.3 437.5 837.3 436.7 837.3 437.1 837.4 435.9 837.4 436.3 837.4 435.1 837.4 435.5 837.4 436.1 837.4 437 837.4 438.4 837.4 438.8 837.4 437.6 837.4 438 837.4 438.6 837.4 436.8 837.4 437.2 837.4 436 837.4 436.4 837.4 437 837.4 437.9 837.4 439.3 837.4 439.7 837.5 440.3 837.5 441.2 837.5 442.6 837.5 443 837.6 441.8 837.6 442.2 837.6 442.8 837.6 443.7 837.6 441.1 837.6 440.3 837.6 440.7 837.6 439.5 837.6 438.7 837.6 439.1 837.6 439.7 837.7 437.9 837.8 438.3 837.8 437.2 837.8 437.6 837.9 436.4 837.9 435.6 838 436 838 434.8 838 435.2 838 435.8 838.1 434.1 838.1 434.5 838.1 435.1 838.1 436 838.1 433.3 838.1 432.5 838.1 431.8 838.1 431 838.1 430.2 838.1 430.6 838.1 431.2 838.2 432.1 838.2 433.5 838.2 433.9 838.2 434.5 838.2 432.7 838.2 431.9 838.2 432.4 838.2 431.2 838.2 430.4 838.2 430.8 838.2 431.4 838.2 432.3 838.2 433.7 838.2 434.1 838.2 432.9 838.2 433.3 838.2 432.1 838.2 432.5 838.3 431.3 838.3 431.7 838.3 432.3 838.3 433.3 838.3 434.6 838.3 433.8 838.3 433.1 838.3 432.3 838.3 432.7 838.3 431.5 838.3 431.9 838.3 432.5 838.3 433.4 838.3 430.8 838.3 430 838.3 429.2 838.3 429.6 838.3 428.4 838.3 427.7 838.3 428.1 838.3 428.7 838.3 429.6 838.4 426.9 838.4 427.3 838.4 427.9 838.4 428.8 838.4 426.2 838.4 426.6 838.4 427.2 838.4 428.1 838.4 429.4 838.4 429.8 838.4 430.4 838.4 428.7 838.4 427.9 838.4 428.3 838.4 428.9 838.4 429.8 838.4 431.1 838.4 431.5 838.4 432.1 838.4 433 838.4 434.3 838.5 434.7 838.5 435.4 838.5 436.3 838.5 433.6 838.5 432.8 838.5 433.2 838.5 432.1 838.5 431.3 838.5 430.5 838.5 430.9 838.5 431.5 838.5 432.4 838.5 433.7 838.5 432.9 838.5 433.3 838.5 433.9 838.5 434.8 838.5 436.2 838.5 435.4 838.5 434.6 838.5 433.8 838.5 434.2 838.6 434.8 838.6 435.7 838.6 437.1 838.6 437.5 838.6 436.3 838.6 436.7 838.6 435.6 838.6 436 838.6 436.5 838.6 437.4 838.6 438.8 838.6 438 838.6 438.4 838.6 439 838.6 437.2 838.7 436.5 838.7 435.7 838.7 436.1 838.7 434.9 838.7 435.3 838.7 435.9 838.7 436.8 838.7 438.2 838.7 437.4 838.7 437.8 838.7 436.7 838.7 435.9 838.7 436.3 838.7 435.1 838.7 434.3 838.7 433.5 838.7 432.7 838.7 432 838.7 432.4 838.7 433 838.7 431.2 838.7 430.4 838.7 430.8 838.7 431.4 838.7 432.3 838.8 429.7 838.8 430.1 838.8 430.7 838.8 431.6 838.8 433 838.8 433.4 838.8 432.2 838.8 431.4 838.8 431.8 838.8 430.7 838.8 429.9 838.8 430.3 838.8 429.1 838.8 428.3 838.8 427.5 838.8 427.9 838.8 428.5 838.8 429.4 838.8 426.8 838.8 426 838.8 426.4 838.8 425.2 838.8 425.6 838.8 424.5 838.8 424.9 838.8 423.7 838.8 424.1 838.8 424.7 838.8 422.9 838.8 422.1 838.8 422.6 838.8 421.4 838.8 421.8 838.8 420.6 838.8 419.8 838.8 420.2 838.8 419 838.8 419.4 838.8 418.2 838.9 417.5 838.9 417.9 838.9 416.7 838.9 417.1 838.9 417.7 838.9 415.9 838.9 415.1 839 415.5 839 416.1 839 414.4 839 414.8 839 413.6 839 414 839 412.8 839 412.1 839 412.5 839 413.1 839 411.3 839 410.5 839 409.7 839 409 839 408.2 839 408.6 839.1 407.4 839.1 407.8 839.1 408.4 839.1 409.3 839.1 410.6 839.2 411 839.2 411.6 839.2 409.9 839.3 409.1 839.3 409.5 839.3 410.1 839.4 411 839.4 412.4 839.4 412.8 839.4 413.4 839.4 414.3 839.5 411.6 839.5 412 839.5 412.7 839.5 413.6 839.5 414.9 839.5 415.3 839.5 414.2 839.6 414.5 839.6 413.4 839.7 412.6 839.7 413 839.7 413.6 839.7 414.5 839.7 411.9 839.7 412.3 839.7 411.1 839.8 411.5 839.8 410.3 839.8 409.5 839.8 409.9 839.8 408.8 839.9 408 840 408.4 840 409 840 409.8 840.1 411.2 840.1 411.6 840.1 410.4 840.1 409.6 840.1 410 840.1 408.9 840.1 409.3 840.1 408.1 840.1 408.5 840.1 407.3 840.1 407.7 840.1 408.3 840.1 406.6 840.1 405.8 840.1 405 840.1 404.2 840.1 404.6 840.1 403.5 840.1 403.8 840.2 404.4 840.2 405.3 840.2 406.7 840.2 407.1 840.2 405.9 840.2 406.3 840.2 406.9 840.2 407.8 840.2 405.2 840.2 405.6 840.2 406.2 840.3 407.1 840.3 404.4 840.3 404.8 840.3 405.4 840.3 406.3 840.3 407.7 840.3 408.1 840.3 406.9 840.3 407.3 840.3 406.1 840.3 405.3 840.3 405.7 840.3 404.6 840.3 403.8 840.3 403 840.3 402.2 840.3 402.6 840.3 403.2 840.4 401.4 840.4 401.8 840.4 402.4 840.4 403.3 840.4 400.7 840.4 399.9 840.4 400.3 840.4 399.2 840.4 399.6 840.4 400.2 840.4 401.1 840.4 402.4 840.4 402.8 840.4 403.4 840.4 401.7 840.4 402.1 840.4 402.7 840.4 403.6 840.4 401 840.4 400.2 840.5 399.4 840.5 398.6 840.5 399 840.5 397.8 840.5 397 840.5 397.4 840.5 398 840.5 399 840.5 400.3 840.5 400.7 840.5 401.3 840.6 399.6 840.6 398.8 840.6 399.2 840.6 398 840.6 398.4 840.6 399 840.6 399.9 840.6 401.3 840.6 401.7 840.6 402.3 840.6 400.5 840.6 400.9 840.6 399.8 840.7 400.2 840.7 399 840.7 398.2 840.7 397.4 840.7 397.8 840.7 398.4 840.7 396.7 840.7 397.1 840.7 397.7 840.7 398.6 840.7 395.9 840.7 396.3 840.7 395.2 840.7 395.6 840.7 394.4 840.7 394.8 840.7 395.4 840.7 396.3 840.7 397.6 840.7 398 840.7 398.6 840.7 399.5 840.7 400.8 840.7 400.1 840.8 399.3 840.8 398.5 840.8 397.7 840.8 398.1 840.8 398.7 840.8 397 840.8 397.4 840.8 397.9 840.8 398.8 840.8 400.2 840.8 400.6 840.8 399.4 840.8 399.8 840.8 400.4 840.8 398.7 840.8 397.9 840.8 397.1 840.8 396.3 840.8 396.7 840.8 397.3 840.9 395.5 840.9 396 840.9 396.6 840.9 397.5 840.9 398.8 840.9 399.2 840.9 399.8 840.9 398.1 840.9 398.5 841 397.3 841 397.7 841 396.6 841 397 841 397.6 841 398.5 841 399.9 841 399.1 841 398.3 841 398.7 841.1 399.3 841.1 400.2 841.1 401.5 841.1 401.9 841.1 402.5 841.1 403.5 841.1 404.8 841.1 404 841.1 403.3 841.1 403.7 841.2 404.3 841.2 402.5 841.2 402.9 841.2 403.5 841.2 401.7 841.2 402.1 841.2 402.7 841.2 403.6 841.2 405 841.3 404.2 841.3 403.4 841.3 403.8 841.3 404.4 841.3 402.6 841.4 401.9 841.4 402.3 841.6 402.9 841.6 403.8 841.7 405.2 841.8 405.5 841.8 406.1 841.8 407 841.8 408.4 841.8 408.8 841.8 409.4 841.8 410.3 841.8 411.6 841.8 412 841.8 412.6 841.8 413.5 841.8 414.8 841.8 415.2 841.8 415.8 841.8 416.7 841.8 418.1 841.9 418.5 841.9 419.1 842 420 842.1 417.3 842.1 416.6 842.1 417 842.1 417.6 842.1 418.5 842.1 415.8 842.2 415 842.3 414.2 842.3 414.6 842.3 415.2 842.3 416.2 842.3 417.5 842.3 417.9 842.3 418.5 842.3 419.4 842.3 420.8 842.4 420 842.4 420.4 842.4 421 842.4 421.8 842.4 423.2 842.4 423.6 842.4 424.2 842.5 425.1 842.5 426.5 842.5 426.9 842.5 427.5 842.5 428.4 842.5 429.7 842.6 428.9 842.6 428.1 842.6 428.6 842.6 427.4 842.7 427.8 842.7 428.4 842.7 429.3 842.7 430.7 842.7 429.9 842.9 429.1 843 429.5 843 430.1 843 431 843 432.3 843 432.7 843 433.3 843 434.2 843 435.5 843.1 435.9 843.1 434.8 843.1 435.2 843.1 435.8 843.2 434 843.2 433.2 843.2 433.6 843.2 434.2 843.2 435.1 843.3 432.5 843.3 431.7 843.3 430.9 843.3 431.3 843.3 430.1 843.3 430.5 843.4 429.4 843.4 429.8 843.4 430.4 843.4 428.6 843.4 429 843.5 429.6 843.5 427.8 843.5 428.3 843.5 427.1 843.5 427.5 843.5 428.1 843.6 429 843.6 426.3 843.6 426.7 843.6 427.3 843.6 428.2 843.6 429.6 843.7 430 843.7 430.6 844 428.8 844 429.2 844 429.8 844 430.7 844 432 844 431.2 844 431.6 844 432.3 844 430.5 844 430.9 844 429.7 844 430.1 844 430.7 844.1 431.6 844.1 429 844.1 428.2 844.1 427.4 844.1 426.6 844.1 425.8 844.1 425 844.1 425.4 844.1 426 844.1 426.9 844.1 428.3 844.2 428.7 844.2 427.5 844.2 427.9 844.2 428.5 844.2 429.4 844.4 426.8 844.4 427.2 844.4 427.8 844.5 426 844.5 426.4 844.6 427 844.6 427.9 844.6 429.3 844.6 428.5 844.7 428.9 844.7 429.5 844.7 427.8 844.7 428.2 844.7 428.8 844.7 427 844.7 427.4 844.7 428 844.7 428.9 844.7 430.2 844.7 430.6 844.7 431.2 844.9 432.1 844.9 433.5 845 432.7 845 433.1 845.1 433.7 845.1 434.6 845.1 435.9 845.1 436.3 845.1 436.9 845.2 437.8 845.2 435.2 845.2 435.6 845.2 434.4 845.2 434.8 845.2 435.4 845.2 436.3 845.3 437.7 845.5 436.9 845.7 437.3 845.7 437.9 845.7 438.8 845.7 440.2 845.7 440.6 845.7 441.2 845.8 439.4 845.8 439.8 845.8 440.4 845.8 438.7 845.9 437.9 845.9 438.3 846 438.9 846 439.8 846 441.2 846 441.6 846 442.2 846 443.1 846 444.5 846 444.9 846.1 445.5 846.1 446.4 846.1 443.7 846.1 442.9 846.1 443.4 846.1 444 846.1 444.9 846.1 446.2 846.1 446.6 846.1 447.2 846.2 448.1 846.3 445.5 846.3 445.9 846.3 446.5 846.4 447.4 846.4 448.7 846.4 449.1 846.4 449.7 846.5 450.6 846.5 452 846.6 451.2 846.6 450.4 846.6 450.8 846.6 451.4 846.6 452.3 846.9 453.7 847 453 847 452.3 847.1 451.5 847.1 451.9 847.1 452.5 847.2 453.4 847.3 450.8 847.3 450 847.3 450.4 847.3 449.2 847.3 449.6 847.3 450.2 847.3 451.1 847.4 452.4 847.4 452.8 847.4 453.4 847.4 454.3 847.4 455.6 847.4 455.9 847.4 456.4 847.6 455 847.6 455.3 847.6 455.8 847.6 456.6 847.6 457.7 847.6 457.9 848 458.3 848 458.9 848 459.8 848.2 460 848.2 460.3 848.3 460.7 848.3 461.4 848.3 461.1 848.3 460.8 848.3 461 848.4 460.4 848.4 460.1 848.6 459.7 848.7 459.9 848.9 460.2 849 460.7 849.2 461.4 849.7 461 849.7 461.2 849.7 461.5 849.7 461.9 849.9 460.7 849.9 460.4 850.1 460.6 850.1 460.8 850.2 460 850.2 460.2 850.6 459.6 850.7 459.8 851 460.1 851.4 459.2 851.7 458.8 851.8 459 851.9 459.4 852 458.4 852.2 458.6 852.2 459 852.2 459.5 852.2 460.3 852.2 459.9 852.2 460.2 852.2 460.5 852.2 460.9 852.2 461.6 852.2 461.3 852.2 460.9 852.3 460.6 852.3 460.8 852.3 461.1 852.3 461.5 852.3 462.1 852.3 462.3 852.3 462.5 852.3 462.8 852.3 463.3 852.3 463.1 852.3 463.2 852.3 462.8 852.3 463 852.4 462.6 852.4 462.3 852.4 462.5 852.5 462.7 852.5 463 852.5 463.5 852.5 463.3 852.5 463 852.6 462.8 852.7 462.5 852.7 462.3 852.7 462.4 852.8 462.6 852.8 462.9 853 463.4 853 463.5 853 463.7 853 464 853 464.4 853.1 464.5 853.1 464.6 853.1 464.8 853.1 464.2 853.1 464.3 853.2 464.4 853.2 464.6 853.2 464 853.2 463.8 853.2 463.9 853.2 464.1 853.2 464.3 853.2 463.6 853.2 463.7 853.2 463.9 853.2 463.4 853.3 463.5 853.3 463.7 853.3 464 853.3 464.4 853.3 464.4 853.3 464.2 853.4 464 853.5 464.1 853.5 464.2 853.6 464.5 853.6 464.8 853.6 464.7 853.6 464.5 853.6 464.6 853.6 464.7 853.6 464.3 853.6 464.1 853.6 464.2 853.6 464.4 853.6 464 853.6 463.8 853.6 463.6 853.7 463.3 853.7 463.5 853.7 463.1 853.7 463.2 853.7 463.4 853.7 463.7 853.8 462.9 853.8 463 853.8 462.6 853.8 462.4 853.8 462.5 853.8 462.7 853.8 463.1 853.9 463.5 853.9 463.6 853.9 463.8 853.9 463.3 853.9 463.1 853.9 463.2 853.9 463.4 853.9 462.9 853.9 462.6 854 462.7 854 462.9 854 463.2 854.1 463.7 854.1 463.8 854.1 463.5 854.1 463.3 854.1 463.4 854.1 463.6 854.1 463.1 854.1 462.8 854.1 462.9 854.1 462.6 854.1 462.3 854.1 462.4 854.1 462.7 854.1 462 854.1 461.7 854.1 461.9 854.1 461.4 854.1 461.1 854.1 461.3 854.1 461.5 854.1 460.8 854.1 461 854.1 461.2 854.1 461.6 854.1 460.5 854.1 460.6 854.1 460.1 854.1 460.3 854.1 459.7 854.1 459.3 854.1 458.9 854.1 459.1 854.1 459.4 854.1 460 854.1 460.7 854.1 460.4 854.1 460 854.1 460.2 854.1 460.5 854.1 459.6 854.1 459.8 854.1 459.2 854.1 459.4 854.1 458.8 854.1 458.4 854.1 457.9 854.1 458.1 854.1 457.4 854.1 457.7 854.1 456.9 854.1 457.2 854.1 457.6 854.1 456.4 854.1 455.8 854.1 455.2 854.1 454.6 854.1 454.9 854.1 453.9 854.1 453.2 854.1 452.5 854.1 451.8 854.1 451 854.1 450.2 854.1 450.6 854.1 449.4 854.1 449.8 854.1 448.7 854.1 447.9 854.1 447.1 854.1 446.3 854.1 445.5 854.1 445.9 854.1 446.5 854.1 444.8 854.1 444 854.1 444.4 854.1 445 854.1 443.2 854.1 443.6 854.1 442.4 854.1 442.8 854.1 441.6 854.1 442 854.1 440.9 854.1 441.3 854.1 441.9 854.1 442.8 854.1 440.1 854.1 440.5 854.1 441.2 854.1 439.4 854.1 439.8 854.1 438.6 854.1 437.8 854.1 438.2 854.1 437 854.1 436.3 854.1 436.7 854.1 437.3 854.1 435.5 854.1 434.7 854.1 435.1 854.1 433.9 854.1 434.3 854.1 433.2 854.1 432.4 854.1 432.8 854.1 433.4 854.1 431.6 854.1 430.8 854.1 431.2 854.1 431.8 854.1 430.1 854.1 430.5 854.1 429.3 854.1 429.7 854.1 428.5 854.1 428.9 854.1 427.8 854.1 428.2 854.1 427 854.1 426.2 854.1 426.6 854.1 427.2 854.1 425.5 854.1 425.9 854.1 424.7 854.1 425.1 854.1 423.9 854.1 424.3 854.1 423.2 854.1 422.4 854.1 422.8 854.1 421.6 854.1 422 854.1 420.8 854.1 420 854.1 420.4 854.1 419.3 854.1 419.7 854.1 420.3 854.1 418.5 854.1 418.9 854.1 417.7 854.1 418.1 854.1 418.7 854.1 419.7 854.1 417 854.1 417.4 854.1 416.2 854.1 416.6 854.1 415.4 854.1 415.8 854.1 414.7 854.1 413.9 854.1 414.3 854.1 413.1 854.1 412.3 854.1 411.5 854.1 411.9 854.1 412.5 854.1 410.8 854.1 411.2 854.1 410 854.1 409.2 854.1 408.5 854.1 407.7 854.1 406.9 854.1 407.3 854.1 406.1 854.1 406.5 854.1 405.4 854.1 404.6 854.1 403.8 854.1 404.2 854.1 403 854.1 402.2 854.1 402.6 854.1 403.2 854.1 401.5 854.1 400.7 854.1 401.1 854.1 399.9 854.1 399.1 854.1 398.3 854.1 398.8 854.1 397.6 854.1 396.8 854.1 396 854.1 395.2 854.1 394.4 854.1 394.8 854.1 393.7 854.1 392.9 854.1 393.3 854.1 392.1 854.1 391.3 854.1 390.5 854.1 389.8 854.1 390.2 854.1 390.8 854.2 389 854.2 388.2 854.2 388.6 854.2 387.5 854.2 387.9 854.2 386.7 854.2 385.9 854.2 385.1 854.2 384.3 854.2 384.7 854.2 383.5 854.2 383.9 854.2 382.8 854.2 383.2 854.2 382 854.2 382.4 854.2 381.2 854.2 381.6 854.2 380.4 854.2 379.7 854.2 380.1 854.2 380.7 854.2 378.9 854.2 379.3 854.2 378.1 854.2 378.5 854.2 377.4 854.2 376.6 854.2 375.8 854.2 376.2 854.2 375 854.2 374.2 854.2 373.5 854.2 372.7 854.2 371.9 854.2 371.1 854.2 370.3 854.2 370.7 854.2 369.6 854.2 368.8 854.2 369.2 854.2 368 854.2 368.4 854.2 367.2 854.2 366.4 854.2 366.9 854.2 365.7 854.2 364.9 854.2 365.3 854.2 365.9 854.2 364.1 854.2 364.5 854.2 365.1 854.2 363.4 854.2 363.8 854.2 362.6 854.2 361.8 854.2 362.2 854.2 362.8 854.2 361.1 854.2 361.5 854.2 360.3 854.2 359.5 854.2 358.7 854.2 357.9 854.2 357.2 854.2 356.4 854.2 356.8 854.2 355.6 854.2 354.8 854.2 355.2 854.2 355.9 854.2 354.1 854.2 354.5 854.2 355.1 854.2 353.3 854.2 353.7 854.2 352.5 854.2 352.9 854.2 353.5 854.2 351.8 854.2 351 854.2 351.4 854.2 350.2 854.2 350.6 854.2 349.5 854.2 348.7 854.2 347.9 854.2 348.3 854.2 348.9 854.2 347.1 854.2 347.5 854.2 346.4 854.2 345.6 854.2 344.8 854.2 345.2 854.2 344 854.2 344.4 854.2 343.2 854.2 343.7 854.2 342.5 854.2 342.9 854.2 341.7 854.2 342.1 854.2 340.9 854.2 341.3 854.2 340.1 854.2 339.4 854.2 338.6 854.2 339 854.2 337.8 854.2 338.2 854.2 337 854.2 336.2 854.2 335.4 854.2 334.6 854.2 333.9 854.2 334.3 854.2 334.9 854.2 333.1 854.2 333.5 854.2 332.3 854.2 331.5 854.2 330.7 854.2 331.1 854.2 331.7 854.2 330 854.2 329.2 854.2 329.6 854.2 330.2 854.2 328.4 854.2 327.7 854.2 326.9 854.2 327.3 854.2 327.9 854.2 326.1 854.2 326.5 854.2 325.3 854.2 325.7 854.2 324.6 854.2 325 854.2 323.8 854.2 323 854.2 323.4 854.2 324 854.2 322.3 854.2 321.5 854.2 321.9 854.2 320.7 854.2 321.1 854.2 319.9 854.2 320.3 854.2 319.2 854.2 319.6 854.2 320.2 854.2 321.1 854.2 318.4 854.2 317.6 854.2 316.9 854.2 316.1 854.2 315.3 854.2 315.7 854.2 314.5 854.2 313.7 854.2 314.1 854.2 313 854.2 313.4 854.2 314 854.2 312.2 854.2 312.6 854.2 313.2 854.2 311.5 854.2 310.7 854.2 311.1 854.2 309.9 854.2 310.3 854.2 310.9 854.2 311.8 854.2 309.2 854.2 309.6 854.2 310.2 854.2 311.1 854.2 308.5 854.2 307.7 854.2 306.9 854.2 307.3 854.2 306.1 854.2 306.5 854.2 305.4 854.2 304.6 854.2 305 854.2 303.8 854.2 304.2 854.2 304.8 854.2 303 854.2 302.2 854.2 302.7 854.2 301.5 854.2 301.9 854.2 302.5 854.2 300.7 854.2 301.1 854.2 301.7 854.2 302.6 854.2 300 854.2 300.4 854.2 301 854.2 299.2 854.2 299.6 854.2 300.2 854.2 298.4 854.2 298.8 854.2 297.7 854.3 298.1 854.3 296.9 854.3 296.1 854.3 295.3 854.3 294.6 854.3 294.9 854.3 293.8 854.3 293 854.3 293.4 854.3 292.2 854.3 292.6 854.3 291.5 854.3 291.9 854.3 292.5 854.3 293.4 854.3 290.7 854.3 291.1 854.3 289.9 854.3 290.3 854.3 290.9 854.3 289.2 854.3 289.6 854.3 288.4 854.3 287.6 854.3 288 854.3 286.8 854.3 286 854.3 285.3 854.3 285.7 854.3 286.3 854.3 287.2 854.3 288.6 854.3 287.8 854.3 288.2 854.3 287 854.3 286.2 854.3 286.6 854.3 285.5 854.3 284.7 854.3 285.1 854.3 283.9 854.3 283.1 854.3 283.5 854.3 282.3 854.3 281.6 854.3 282 854.3 280.8 854.3 280 854.3 280.4 854.3 279.2 854.3 279.6 854.3 278.5 854.3 278.9 854.3 279.5 854.3 277.7 854.3 276.9 854.3 277.3 854.3 276.2 854.3 275.4 854.3 274.6 854.3 273.8 854.3 274.2 854.3 273.1 854.3 272.3 854.3 272.7 854.3 271.5 854.3 271.9 854.3 270.7 854.3 270 854.3 269.2 854.3 269.6 854.3 270.2 854.3 268.4 854.3 268.9 854.3 267.7 854.3 266.9 854.3 267.3 854.3 266.1 854.3 265.3 854.3 265.7 854.3 264.6 854.3 265 854.3 263.8 854.3 264.2 854.3 263 854.3 262.3 854.3 261.5 854.3 261.9 854.3 260.7 854.3 259.9 854.3 260.3 854.3 259.1 854.3 258.4 854.3 257.6 854.3 258 854.3 258.6 854.3 256.8 854.3 257.2 854.3 256.1 854.3 255.3 854.3 255.7 854.3 254.5 854.3 253.7 854.3 254.1 854.3 254.7 854.3 253 854.3 252.2 854.3 252.6 854.3 253.2 854.3 251.4 854.3 251.8 854.3 252.4 854.3 250.7 854.3 249.9 854.3 249.1 854.3 248.3 854.3 248.7 854.3 249.3 854.3 247.5 854.3 246.8 854.3 247.2 854.3 247.8 854.3 246 854.3 245.2 854.3 245.6 854.3 246.2 854.3 244.5 854.3 244.9 854.3 243.7 854.3 244.1 854.3 244.7 854.3 242.9 854.3 243.3 854.3 242.2 854.3 242.6 854.3 241.4 854.3 240.6 854.3 241 854.3 241.6 854.3 242.5 854.3 243.9 854.3 243.1 854.3 242.3 854.3 241.5 854.3 241.9 854.3 240.8 854.3 241.2 854.3 240 854.3 240.4 854.3 239.2 854.3 238.4 854.3 238.9 854.3 237.7 854.3 238.1 854.3 238.7 854.3 236.9 854.3 236.1 854.3 235.4 854.3 235.8 854.3 234.6 854.3 233.8 854.3 234.2 854.3 234.8 854.3 235.7 854.3 233.1 854.3 232.3 854.3 232.7 854.3 233.3 854.3 231.5 854.3 230.7 854.3 231.1 854.3 231.7 854.3 230 854.3 230.4 854.3 229.2 854.3 229.6 854.3 228.4 854.3 228.8 854.3 227.7 854.3 228.1 854.3 226.9 854.3 226.1 854.3 225.3 854.3 225.7 854.3 224.6 854.3 225 854.3 223.8 854.3 224.2 854.3 223 854.3 223.4 854.3 222.3 854.3 221.5 854.3 221.9 854.3 220.7 854.3 221.1 854.3 219.9 854.3 220.3 854.3 219.1 854.3 219.5 854.3 220.1 854.3 218.4 854.3 218.8 854.3 217.6 854.3 218 854.3 216.9 854.3 216.1 854.3 215.3 854.3 215.7 854.3 216.3 854.3 214.5 854.3 214.9 854.3 213.8 854.3 214.2 854.3 213 854.3 212.2 854.3 212.6 854.3 213.2 854.3 214.1 854.3 211.5 854.3 211.9 854.3 212.5 854.3 210.7 854.3 210 854.3 210.4 854.3 209.2 854.3 208.4 854.3 208.8 854.3 207.6 854.3 206.9 854.3 206.1 854.3 206.5 854.3 207.1 854.3 205.3 854.3 205.7 854.3 204.5 854.3 205 854.3 205.6 854.3 203.8 854.3 204.2 854.3 203 854.3 202.2 854.3 202.6 854.3 201.4 854.3 201.8 854.4 200.7 854.4 201.1 854.4 201.7 854.4 202.6 854.4 199.9 854.4 200.3 854.4 200.9 854.4 199.2 854.4 199.6 854.4 198.4 854.4 198.8 854.4 199.4 854.4 197.7 854.4 198.1 854.4 198.7 854.4 199.6 854.4 200.9 854.4 201.3 854.4 200.1 854.4 200.5 854.4 201.1 854.4 199.4 854.4 198.6 854.4 199 854.4 199.6 854.4 197.8 854.4 197 854.4 197.4 854.4 198 854.4 198.9 854.4 196.3 854.4 195.5 854.4 195.9 854.4 196.5 854.4 194.7 854.4 195.1 854.4 194 854.4 194.4 854.4 193.2 854.4 192.4 854.4 192.8 854.4 191.6 854.4 190.8 854.4 191.2 854.4 190.1 854.4 189.3 854.4 189.7 854.4 188.5 854.4 188.9 854.4 187.7 854.4 188.1 854.4 186.9 854.4 186.2 854.4 186.6 854.4 185.4 854.4 185.8 854.4 184.6 854.4 183.8 854.4 184.2 854.4 183.1 854.4 182.3 854.4 182.7 854.4 183.3 854.4 181.5 854.4 181.9 854.4 180.7 854.4 181.1 854.4 180 854.4 180.3 854.4 179.2 854.4 179.6 854.4 178.4 854.4 177.6 854.4 178 854.4 176.9 854.4 176.1 854.4 176.5 854.4 175.3 854.4 175.7 854.4 176.3 854.4 174.6 854.4 175 854.4 173.8 854.4 174.2 854.4 174.8 854.4 173 854.4 172.2 854.4 172.6 854.4 173.3 854.4 174.2 854.4 175.5 854.4 175.9 854.4 174.8 854.4 175.2 854.4 174 854.4 174.4 854.4 175 854.4 173.2 854.4 173.6 854.4 172.5 854.4 172.9 854.4 171.7 854.4 172.1 854.4 172.7 854.4 170.9 854.4 171.3 854.4 170.2 854.4 169.4 854.4 168.6 854.4 167.8 854.4 167 854.4 166.2 854.4 165.5 854.4 165.9 854.4 164.7 854.4 165.1 854.4 163.9 854.4 164.3 854.5 163.1 854.5 163.5 854.5 162.4 854.5 162.8 854.5 161.6 854.5 162 854.5 160.8 854.5 161.2 854.5 160 854.5 159.3 854.5 159.6 854.5 160.2 854.5 161.1 854.5 158.5 854.5 158.9 854.5 157.7 854.5 157 854.5 157.4 854.5 156.2 854.5 156.6 854.5 155.4 854.5 155.8 854.5 154.6 854.5 155 854.5 155.7 854.5 156.6 854.5 157.9 854.5 157.2 854.5 157.6 854.5 158.2 854.5 159 854.5 160.4 854.5 159.6 854.5 160 854.5 158.8 854.5 158.1 854.5 158.5 854.5 157.3 854.5 156.5 854.5 155.7 854.5 156.1 854.5 156.7 854.5 154.9 854.5 154.2 854.5 154.6 854.5 153.4 854.5 153.8 854.5 152.6 854.5 151.9 854.5 151.1 854.5 151.5 854.5 150.3 854.5 150.7 854.5 151.3 854.5 149.5 854.5 150 854.5 148.8 854.5 149.2 854.5 148 854.5 148.4 854.5 149 854.5 147.2 854.5 147.7 854.5 148.3 854.5 149.2 854.5 150.5 854.5 150.9 854.5 149.8 854.5 149 854.5 149.4 854.5 148.2 854.5 148.6 854.5 147.5 854.5 147.9 854.6 148.5 854.6 149.4 854.6 146.7 854.6 147.1 854.6 147.7 854.6 148.6 854.6 146 854.6 146.4 854.6 147 854.6 147.9 854.7 145.2 854.7 144.5 854.7 143.7 854.7 142.9 854.7 142.1 854.8 142.5 854.8 143.1 854.8 141.3 854.8 140.6 854.8 141 854.8 141.5 854.8 142.4 854.8 143.8 854.9 144.2 854.9 144.8 854.9 143 854.9 143.4 854.9 144 854.9 144.9 854.9 146.3 854.9 146.7 854.9 147.3 854.9 145.5 854.9 145.9 854.9 144.7 854.9 145.1 854.9 145.7 854.9 144 854.9 144.3 854.9 143.2 854.9 142.4 854.9 142.8 854.9 141.6 854.9 142 854.9 140.9 854.9 141.3 854.9 141.9 854.9 142.8 854.9 144.1 854.9 144.5 854.9 143.3 854.9 143.7 854.9 142.6 854.9 141.8 854.9 142.2 855 142.8 855 141 855 141.4 855 142 855 140.3 855 140.7 855 139.5 855 139.9 855 138.7 855 137.9 855 137.1 855 137.6 855 138.2 855 136.4 855 135.6 855 134.8 855 134 855 134.4 855 133.3 855 133.7 855 132.5 855 132.9 855 131.7 855 132.1 855 130.9 855 131.4 855 132 855.1 130.2 855.1 129.4 855.1 129.8 855.1 130.4 855.1 128.6 855.1 127.9 855.1 127.1 855.1 127.5 855.1 126.3 855.1 125.5 855.1 124.7 855.1 123.9 855.1 123.1 855.1 123.6 855.1 122.4 855.1 121.6 855.2 120.8 855.2 121.2 855.2 121.8 855.2 120 855.2 119.3 855.2 118.5 855.2 117.7 855.2 118.1 855.2 116.9 855.2 117.3 855.2 116.1 855.2 116.5 855.2 117.1 855.2 118 855.2 119.4 855.2 119.8 855.2 120.4 855.2 121.3 855.2 122.7 855.2 121.9 855.2 121.1 855.2 120.3 855.2 120.7 855.2 121.3 855.2 122.2 855.2 123.6 855.2 122.8 855.2 123.2 855.2 122 855.2 122.4 855.2 123 855.2 123.9 855.2 125.3 855.2 125.7 855.2 126.3 855.2 127.2 855.2 128.5 855.2 127.7 855.2 128.1 855.2 128.7 855.3 129.6 855.3 131 855.3 131.4 855.3 132 855.3 130.3 855.3 130.7 855.3 131.3 855.3 132.2 855.3 133.5 855.3 133.9 855.3 134.5 855.3 135.4 855.3 136.8 855.3 137.2 855.3 137.8 855.3 138.7 855.3 140 855.3 140.4 855.3 139.2 855.3 138.4 855.3 138.8 855.3 139.4 855.3 140.3 855.3 141.7 855.3 142.1 855.4 140.9 855.4 141.3 855.4 141.9 855.4 142.8 855.4 144.1 855.4 144.5 855.4 143.4 855.4 142.6 855.4 141.8 855.4 142.2 855.4 142.8 855.4 143.7 855.4 145.1 855.4 145.5 855.4 146.1 855.4 144.4 855.4 144.8 855.4 145.4 855.4 143.6 855.4 142.8 855.4 143.2 855.4 142.1 855.5 142.5 855.5 143.1 855.5 144 855.5 145.3 855.6 144.6 855.6 145 855.6 145.6 855.6 146.5 855.6 143.8 855.6 143.1 855.6 143.5 855.6 144.1 855.6 142.3 855.6 142.7 855.6 141.5 855.6 141.9 855.6 140.8 855.6 141.2 855.6 140 855.6 140.4 855.6 139.2 855.6 139.6 855.6 140.2 855.6 141.1 855.6 142.4 855.6 141.7 855.6 140.9 855.7 141.3 855.7 141.9 855.7 142.8 855.7 140.1 855.7 139.3 855.7 139.7 855.7 138.6 855.7 137.8 855.7 138.2 855.7 138.8 855.7 139.7 855.7 137 855.7 137.4 855.7 138 855.7 136.3 855.7 136.7 855.7 137.3 855.7 138.2 855.7 135.5 855.7 135.9 855.7 134.8 855.8 135.2 855.8 134 855.8 134.4 855.8 133.2 855.8 133.6 855.8 132.4 855.8 131.7 855.8 130.9 855.9 131.3 855.9 131.9 855.9 132.8 855.9 134.1 855.9 134.5 855.9 135.1 855.9 133.3 855.9 133.7 855.9 132.6 856 133 856 133.6 856 134.5 856 135.9 856 136.3 856 136.9 856 137.8 856 135.1 856 134.3 856 134.7 856 135.3 856.1 133.6 856.1 134 856.1 132.8 856.1 132 856.1 131.2 856.1 131.6 856.2 130.4 856.2 130.8 856.2 131.5 856.2 132.4 856.2 129.7 856.2 128.9 856.3 129.3 856.3 128.1 856.3 127.3 856.3 126.5 856.3 127 856.3 127.6 856.3 128.5 856.3 129.8 856.3 130.2 856.4 129.1 856.4 129.5 856.4 128.3 856.4 127.5 856.4 126.7 856.4 125.9 856.4 126.3 856.4 125.2 856.4 125.6 856.4 126.2 856.4 127.1 856.4 128.5 856.4 128.9 856.5 127.7 856.5 126.9 856.5 127.3 856.5 127.9 856.5 128.8 856.6 126.1 856.6 126.5 856.6 127.1 856.6 128 856.6 125.4 856.6 125.8 856.6 126.4 856.6 127.3 856.6 128.7 856.7 129.1 856.7 129.7 856.7 128 856.7 128.4 856.7 127.2 856.8 127.6 856.8 126.4 856.8 125.6 856.8 124.8 856.8 125.2 856.8 125.9 856.8 126.8 856.8 128.1 856.8 128.5 856.8 129.2 856.8 130.1 856.8 131.4 856.9 130.6 856.9 131 856.9 131.6 856.9 129.9 856.9 129.1 856.9 129.5 856.9 130.1 856.9 131 857 128.4 857 128.8 857 129.4 857 130.2 857 131.6 857 130.8 857 130 857 130.4 857 131 857 131.9 857 133.3 857 133.7 857 134.3 857 135.2 857 132.6 857 133 857 131.8 857 131 857 131.4 857 130.2 857 129.4 857 128.7 857 127.9 857.1 127.1 857.1 127.5 857.3 128.1 857.3 129 857.3 130.4 857.3 130.8 857.4 131.4 857.4 132.3 857.4 133.7 857.4 134.1 857.4 134.7 857.4 135.6 857.4 137 857.4 136.2 857.5 135.4 857.5 135.8 857.5 136.4 857.5 134.7 857.6 135.1 857.6 135.7 857.6 136.6 857.6 138 857.6 138.4 857.6 139 857.7 139.9 857.7 141.2 857.9 141.6 858.1 140.5 858.1 140.9 858.6 141.5 858.6 142.4 858.6 143.8 859 143 859.3 143.4 859.4 144 859.4 144.9 859.8 142.3 859.8 142.7 859.9 141.5 859.9 141.9 860 142.5 860 143.4 860.2 144.8 860.2 145.2 860.2 145.8 860.2 146.7 860.2 144.1 860.2 144.5 860.2 143.3 860.2 142.5 860.2 141.7 860.2 142.1 860.2 141 860.2 141.4 860.2 142 860.2 140.2 860.3 140.6 860.3 141.2 860.3 142.1 860.3 143.5 860.3 143.9 860.3 142.7 860.7 143.1 860.7 143.7 860.7 144.7 860.8 146 860.9 146.4 860.9 147 861.4 147.9 862.1 145.3 862.1 145.7 862.9 146.3 863 147.2 863.1 144.5 864.3 143.8 864.8 144.2 865 144.8 865.1 145.7 865.8 143 865.8 143.4 865.8 144 865.8 145 865.9 142.3 866.1 141.5 866.2 140.7 866.3 139.9 866.3 139.2 866.3 139.6 866.8 138.4 866.8 138.8 866.9 139.4 867.2 137.6 867.9 136.8 868.1 136 870 136.4 870 137 871.3 135.3 871.3 135.7 871.4 136.3 871.8 134.5 872.1 134.9 872.1 135.5 872.5 133.8 872.6 134.2 872.9 134.8 873.5 135.7 874.2 137 874.2 137.4 874.2 138 875.2 138.9 875.2 136.3 875.3 135.5 875.7 135.9 875.7 136.5 875.7 137.4 875.8 138.7 877.6 137.9 878.3 137.1 884 137.5 884.4 136.4 884.5 135.6 886.1 134.8 889.4 135.2 890.1 135.8 890.5 136.7 890.7 138 891.3 137.2 893.1 136.5 899.1 136.9 899.6 137.5 900.3 138.4 901.8 139.7 904.6 140.1 904.6 140.7 908 138.9 910 138.1 919.9 137.4 927.6 137.8 929.4 136.6"/><line x1="88" x2="110" y1="102" y2="102" stroke="#16a34a" stroke-width="2.5"/><text x="116" y="106" fill="#374151" font-size="11.5">equity</text><line x1="88" x2="110" y1="118" y2="118" stroke="#d97706" stroke-width="2.5" opacity=".8"/><text x="116" y="122" fill="#374151" font-size="11.5">price</text><text x="78" y="502" fill="#6b7280" font-size="12" text-anchor="start">2025-10-10</text><text x="934" y="502" fill="#6b7280" font-size="12" text-anchor="end">2025-10-10</text></svg>