<?xml version="1.0" encoding="UTF-8"?>
<svg xmlns="http://www.w3.org/2000/svg" width="1000" height="520" viewBox="0 0 1000 520" font-family="ui-sans-serif, system-ui, sans-serif">
  <rect width="1000" height="520" fill="#ffffff"/>
  <text x="78" y="28" font-size="18" font-weight="700" fill="#111827">Zone Recovery — 1000PEPEUSDC best setting (equity / PnL)</text>
  <text x="78" y="48" font-size="12.5" fill="#6b7280">lev 10 · ratio 2 · gap 20% · maxSteps 4 · maxDD 40% · random · vip 9  ·  60 series, 90.0% win · vol $15939779 ($514187/day) · fees $1349</text>
  <text x="78" y="68" font-size="12.5" font-weight="600" fill="#1d4ed8">USDC · BNB −10% · taker 0.0085%</text>
  <text x="934" y="28" text-anchor="end" font-size="18" font-weight="700" fill="#16a34a">+57184 USDT  (+571.84%)</text>
  <line x1="78" y1="468.0" x2="934" y2="468.0" stroke="#e5e7eb" stroke-width="1"/><text x="68" y="472.0" text-anchor="end" font-size="12" fill="#6b7280">0.00</text><line x1="78" y1="392.0" x2="934" y2="392.0" stroke="#e5e7eb" stroke-width="1"/><text x="68" y="396.0" text-anchor="end" font-size="12" fill="#6b7280">14512</text><line x1="78" y1="316.0" x2="934" y2="316.0" stroke="#e5e7eb" stroke-width="1"/><text x="68" y="320.0" text-anchor="end" font-size="12" fill="#6b7280">29023</text><line x1="78" y1="240.0" x2="934" y2="240.0" stroke="#e5e7eb" stroke-width="1"/><text x="68" y="244.0" text-anchor="end" font-size="12" fill="#6b7280">43535</text><line x1="78" y1="164.0" x2="934" y2="164.0" stroke="#e5e7eb" stroke-width="1"/><text x="68" y="168.0" text-anchor="end" font-size="12" fill="#6b7280">58047</text><line x1="78" y1="88.0" x2="934" y2="88.0" stroke="#e5e7eb" stroke-width="1"/><text x="68" y="92.0" text-anchor="end" font-size="12" fill="#6b7280">72559</text>
  <line x1="78" y1="415.6" x2="934" y2="415.6" stroke="#9ca3af" stroke-width="1.5" stroke-dasharray="6 4"/><text x="934" y="409.6" text-anchor="end" font-size="11" fill="#6b7280">start 10000</text>
  <polyline points="78.0,420.4 79.4,417.6 81.4,417.8 83.1,419.3 84.5,415.7 86.1,414.0 87.7,414.1 88.6,409.1 89.5,408.0 90.7,407.1 91.9,407.9 93.4,407.1 94.5,408.2 95.6,406.5 96.1,402.1 96.1,397.8 96.2,401.4 96.5,398.9 96.8,398.9 97.0,392.8 97.3,393.6 97.4,389.7 97.6,389.2 97.6,383.6 97.7,387.5 98.0,384.5 98.1,378.6 98.1,378.6 98.3,378.1 98.3,376.6 98.5,377.7 98.6,378.6 98.8,376.4 99.0,378.9 99.2,374.7 99.4,373.5 99.5,371.5 99.6,371.5 99.8,369.8 100.0,369.5 100.2,367.9 100.4,365.8 100.5,368.5 100.7,363.8 100.9,362.1 101.0,359.8 101.0,358.3 101.1,355.9 101.2,356.6 101.3,357.3 101.4,353.6 101.5,356.5 101.7,355.7 101.8,355.2 101.9,351.3 102.0,351.0 102.1,350.1 102.2,350.2 102.3,353.8 102.5,348.7 102.5,349.1 102.7,353.5 102.7,358.2 102.8,356.1 103.0,355.5 103.2,353.6 103.4,353.4 103.5,349.0 103.7,348.3 103.8,345.3 103.9,343.2 104.0,345.8 104.2,340.6 104.3,336.1 104.4,334.6 104.5,334.1 104.6,340.1 104.8,336.2 104.9,337.3 105.1,336.9 105.3,333.9 105.4,334.9 105.6,336.1 105.7,338.9 105.9,338.5 106.1,338.3 106.2,338.4 106.5,338.5 106.6,338.8 106.9,338.1 107.1,336.4 107.3,332.2 107.5,336.1 107.7,338.5 108.1,339.1 108.3,344.0 108.5,345.4 108.7,341.1 108.8,336.9 109.0,333.1 109.1,324.9 109.1,328.2 109.2,330.8 109.3,324.5 109.4,321.9 109.4,317.3 109.5,315.9 109.6,317.1 109.6,314.6 109.6,312.9 109.7,314.2 109.7,314.4 109.8,315.2 109.9,315.1 110.0,317.0 110.0,319.2 110.2,319.1 110.3,316.5 110.5,317.1 110.6,315.6 110.7,316.1 110.8,316.8 111.0,314.6 111.2,315.6 111.4,317.3 111.6,315.6 111.8,317.5 111.9,319.8 112.2,317.4 112.4,313.5 112.4,308.6 112.5,311.6 112.6,310.7 112.7,306.9 112.8,308.0 112.9,309.6 113.0,315.2 113.0,317.0 113.2,317.9 113.3,319.0 113.6,317.9 113.9,317.7 114.1,319.7 114.2,322.8 114.5,323.1 114.7,319.2 115.0,318.9 115.2,319.4 115.5,319.2 115.8,319.6 116.0,321.7 116.2,319.9 116.5,321.0 116.7,316.2 116.8,309.2 116.9,310.9 116.9,305.3 117.0,310.2 117.1,311.6 117.2,313.3 117.4,312.1 117.6,314.5 117.8,312.0 117.9,310.5 118.1,299.6 118.1,302.2 118.1,304.8 118.2,303.9 118.4,301.8 118.5,303.9 118.7,301.9 118.8,304.5 118.9,305.1 119.1,309.1 119.1,309.1 119.2,309.0 119.4,308.9 119.7,306.0 119.8,304.6 120.0,302.9 120.1,294.4 120.1,285.9 120.1,283.3 120.1,275.8 120.1,271.6 120.1,264.7 120.1,271.8 120.1,280.3 120.1,278.5 120.1,274.7 120.1,273.8 120.1,277.6 120.2,276.5 120.2,261.6 120.2,256.3 120.2,244.3 120.2,259.9 120.2,265.7 120.2,266.4 120.2,267.1 120.2,265.0 120.2,269.1 120.2,271.4 120.2,264.8 120.3,263.7 120.3,265.3 120.3,261.2 120.3,264.5 120.4,270.2 120.4,266.6 120.5,268.4 120.5,267.2 120.6,267.6 120.6,272.4 120.6,267.6 120.7,263.3 120.7,259.6 120.8,261.0 120.8,265.0 120.9,259.6 120.9,257.3 120.9,260.4 121.0,260.8 121.0,259.2 121.1,265.8 121.1,263.6 121.2,259.4 121.2,262.0 121.3,262.7 121.4,262.8 121.5,261.0 121.5,263.5 121.7,263.8 121.7,265.3 121.8,262.7 121.8,268.8 121.9,271.0 121.9,273.7 122.0,275.8 122.0,276.1 122.1,278.8 122.1,280.3 122.1,283.6 122.1,285.8 122.2,282.3 122.2,280.0 122.3,278.4 122.3,279.4 122.4,283.8 122.4,281.3 122.5,275.3 122.5,274.9 122.5,270.3 122.6,272.4 122.6,268.8 122.7,267.7 122.7,267.5 122.8,271.2 122.9,272.9 122.9,274.2 123.0,270.7 123.1,271.8 123.2,268.2 123.3,269.7 123.4,270.9 123.5,272.4 123.6,272.5 123.7,274.6 123.8,277.2 123.9,280.3 124.0,278.4 124.1,278.3 124.2,272.9 124.3,270.4 124.4,271.2 124.4,262.4 124.5,264.4 124.6,267.3 124.7,263.7 124.7,262.3 124.8,263.8 124.9,258.4 124.9,250.8 124.9,250.1 125.0,240.4 125.0,242.6 125.0,242.7 125.0,231.5 125.0,225.6 125.0,232.9 125.1,241.8 125.1,238.9 125.1,238.6 125.2,231.4 125.2,235.9 125.2,236.4 125.3,235.4 125.3,236.2 125.4,238.8 125.4,244.6 125.5,238.8 125.6,237.9 125.7,239.1 125.8,239.7 126.0,240.4 126.1,241.4 126.2,235.0 126.3,233.9 126.3,242.3 126.4,239.7 126.5,236.8 126.7,229.9 126.7,232.8 126.8,238.9 127.0,240.7 127.1,239.7 127.3,240.3 127.4,248.4 127.4,241.9 127.6,241.3 127.7,238.8 127.9,240.4 128.0,243.8 128.2,242.7 128.4,241.9 128.7,241.4 128.9,240.6 129.0,241.6 129.2,241.9 129.5,242.5 129.6,241.5 129.8,239.7 130.1,241.4 130.2,235.1 130.3,239.0 130.5,242.7 130.8,236.7 130.9,234.4 131.0,237.9 131.0,226.2 131.1,235.5 131.1,237.7 131.2,241.5 131.4,239.7 131.6,235.2 131.7,232.6 131.8,226.7 131.9,229.6 132.0,223.5 132.0,222.1 132.0,223.5 132.1,228.5 132.2,232.8 132.3,232.0 132.4,231.0 132.6,232.7 132.7,236.3 132.8,233.0 132.9,230.2 133.1,233.7 133.2,231.4 133.4,230.6 133.5,224.6 133.5,223.8 133.7,222.6 133.7,220.6 133.8,221.8 133.9,219.5 133.9,218.2 134.0,215.0 134.1,212.4 134.1,210.5 134.2,213.2 134.3,214.7 134.4,216.5 134.4,223.8 134.5,224.7 134.6,223.5 134.8,225.5 134.9,226.7 135.1,227.8 135.3,223.5 135.5,223.0 135.6,227.0 135.8,225.9 136.0,221.0 136.1,217.0 136.2,214.7 136.3,210.2 136.4,209.8 136.5,210.7 136.7,215.7 136.8,212.7 137.0,216.6 137.2,217.5 137.3,211.2 137.5,212.5 137.7,219.2 137.9,222.0 138.1,224.3 138.4,223.6 138.6,220.6 138.8,227.3 139.0,223.4 139.2,222.6 139.5,225.3 139.7,232.3 139.8,228.0 140.1,225.4 140.3,224.1 140.6,223.5 140.9,229.8 140.9,236.0 140.9,241.0 141.0,242.3 141.1,241.9 141.2,241.4 141.4,241.3 141.5,244.7 141.6,246.0 141.7,249.9 141.7,251.9 141.7,253.4 141.8,253.9 141.9,254.6 142.0,250.4 142.1,246.3 142.3,251.2 142.5,248.4 142.7,248.7 142.9,254.3 143.0,248.5 143.0,244.3 143.1,235.9 143.1,235.2 143.1,233.0 143.2,230.7 143.2,220.7 143.2,221.3 143.3,224.9 143.4,224.8 143.4,225.8 143.6,226.2 143.7,224.9 143.9,227.8 144.1,224.3 144.2,223.1 144.3,222.0 144.3,215.1 144.4,218.6 144.4,216.0 144.5,219.8 144.7,221.0 144.8,223.8 145.0,224.6 145.1,230.0 145.2,230.0 145.4,231.0 145.6,229.2 145.9,232.1 145.9,238.0 146.1,235.1 146.3,233.4 146.6,236.4 146.9,237.8 147.2,236.4 147.4,232.3 147.7,235.5 147.9,234.9 148.2,233.0 148.3,230.5 148.6,232.0 148.9,229.9 149.2,230.4 149.5,230.0 149.6,226.7 149.8,223.6 150.0,226.1 150.4,225.6 150.6,224.4 150.7,231.1 150.9,228.9 151.2,224.1 151.4,224.4 151.5,220.3 151.7,222.3 151.8,220.3 152.0,219.2 152.1,217.1 152.1,208.5 152.1,216.3 152.1,220.1 152.2,214.9 152.3,221.3 152.4,223.4 152.5,224.1 152.6,222.6 152.8,229.1 152.9,227.5 153.1,226.9 153.3,224.4 153.5,219.4 153.6,221.5 153.7,221.8 153.9,225.3 154.1,223.9 154.3,224.8 154.7,225.2 155.0,225.4 155.3,228.2 155.8,226.0 156.3,225.0 156.5,228.7 156.7,221.7 156.9,223.0 157.2,219.3 157.5,223.9 157.9,220.1 158.2,225.1 158.5,223.0 158.9,220.7 159.2,217.6 159.5,218.6 159.8,218.7 160.0,216.0 160.2,219.5 160.4,222.3 160.7,224.1 160.9,219.8 161.0,217.7 161.0,208.8 161.0,205.8 161.1,212.7 161.1,211.2 161.2,210.7 161.3,216.6 161.4,217.8 161.5,213.9 161.6,213.9 161.7,218.9 161.7,207.9 161.8,210.6 161.9,208.9 162.0,210.0 162.1,209.5 162.2,210.1 162.3,214.2 162.5,212.4 162.6,218.7 162.8,214.5 163.1,212.3 163.2,211.2 163.4,206.7 163.5,205.1 163.5,205.2 163.6,204.3 163.6,202.2 163.7,200.0 163.8,201.5 163.8,206.1 163.9,207.9 164.0,211.9 164.1,213.7 164.3,211.0 164.3,206.5 164.3,199.6 164.3,197.0 164.4,198.5 164.5,193.2 164.5,180.4 164.5,185.3 164.6,186.7 164.7,185.3 164.7,176.1 164.7,179.8 164.8,181.8 164.9,182.6 165.0,188.7 165.1,194.1 165.1,186.9 165.2,186.6 165.3,187.1 165.4,195.3 165.5,191.7 165.7,194.9 165.8,194.2 166.0,197.1 166.2,195.8 166.3,197.2 166.5,201.2 166.7,203.0 166.8,200.6 167.1,196.1 167.2,196.6 167.4,199.2 167.7,193.5 167.9,192.3 168.1,193.1 168.2,194.6 168.5,194.6 168.6,195.5 168.9,197.2 169.1,192.8 169.2,191.8 169.4,186.2 169.5,187.7 169.7,187.1 169.8,183.5 170.0,185.9 170.2,187.2 170.3,180.5 170.4,176.7 170.4,169.0 170.4,167.7 170.5,168.3 170.6,173.6 170.6,165.5 170.7,161.4 170.8,164.0 170.8,153.4 170.8,156.7 170.9,153.5 170.9,156.0 171.0,157.6 171.0,154.7 171.1,153.8 171.2,156.3 171.3,155.3 171.4,159.4 171.4,161.3 171.5,155.3 171.6,145.2 171.6,142.7 171.6,140.1 171.6,137.7 171.7,143.3 171.7,144.8 171.8,141.3 171.9,142.3 171.9,137.6 172.0,139.6 172.1,146.6 172.2,144.5 172.3,146.9 172.5,144.1 172.6,145.8 172.7,147.4 172.7,154.2 172.8,151.6 172.9,151.6 173.1,148.3 173.2,146.6 173.3,140.9 173.4,143.6 173.5,144.2 173.6,144.7 173.7,145.0 173.8,141.9 173.9,140.7 174.0,139.8 174.1,136.4 174.2,133.9 174.2,130.5 174.3,134.9 174.3,137.0 174.4,134.8 174.5,135.8 174.6,132.1 174.7,129.6 174.8,134.3 174.9,135.5 175.0,131.5 175.0,124.6 175.1,130.2 175.1,130.5 175.3,132.5 175.3,139.1 175.4,138.9 175.5,141.1 175.6,139.9 175.8,141.5 175.9,140.4 176.0,137.9 176.1,147.3 176.2,148.0 176.3,146.4 176.5,146.2 176.6,150.6 176.7,148.9 176.8,147.1 177.0,144.9 177.1,144.1 177.3,147.2 177.5,149.0 177.6,152.9 177.7,149.9 177.9,147.0 177.9,140.8 178.0,137.0 178.1,140.7 178.2,139.0 178.3,138.9 178.5,139.8 178.6,137.6 178.8,137.9 178.9,141.1 179.0,146.9 179.0,149.6 179.1,145.2 179.2,139.5 179.3,139.7 179.4,139.5 179.5,138.7 179.6,141.6 179.7,132.3 179.8,136.6 179.9,136.0 180.0,135.6 180.2,135.1 180.3,134.9 180.4,130.2 180.5,126.8 180.5,130.5 180.6,127.0 180.7,125.1 180.8,127.4 180.9,125.9 181.0,130.9 181.1,134.0 181.2,136.0 181.3,134.7 181.5,135.4 181.7,134.6 181.9,135.9 182.1,138.1 182.2,135.2 182.3,138.0 182.4,137.1 182.6,134.6 182.8,137.7 182.8,146.6 182.8,149.8 182.9,150.9 182.9,159.7 183.0,157.0 183.0,154.1 183.1,148.7 183.3,150.9 183.4,144.9 183.6,146.7 183.8,141.6 183.9,140.1 184.1,137.8 184.2,136.6 184.4,137.3 184.6,134.3 184.8,134.0 185.0,135.0 185.2,128.1 185.3,125.2 185.4,127.1 185.6,132.8 185.8,133.2 185.9,134.4 186.2,127.9 186.3,125.1 186.3,121.0 186.4,130.0 186.5,127.4 186.7,123.7 186.8,126.8 187.0,132.5 187.2,126.2 187.4,123.1 187.5,123.2 187.6,127.1 187.7,127.4 187.7,122.4 187.8,121.3 187.9,116.8 187.9,120.3 188.0,120.2 188.1,124.1 188.3,125.5 188.4,122.5 188.5,120.6 188.5,117.9 188.6,125.9 188.7,127.9 188.8,126.6 188.8,130.7 188.9,135.6 189.0,131.4 189.1,131.1 189.2,126.9 189.3,127.9 189.4,123.5 189.5,124.2 189.5,130.5 189.6,132.8 189.7,132.2 189.8,125.0 189.9,129.4 190.0,132.3 190.1,131.8 190.2,130.9 190.3,126.9 190.4,131.9 190.5,130.5 190.6,133.2 190.7,133.0 190.8,136.8 190.9,140.4 190.9,148.2 190.9,143.1 191.0,142.0 191.1,136.2 191.2,141.5 191.3,139.0 191.4,133.7 191.5,135.4 191.6,133.9 191.7,134.0 191.7,126.8 191.8,127.4 191.9,127.6 192.1,132.3 192.2,134.0 192.4,137.5 192.5,137.8 192.7,136.4 192.8,138.6 193.0,139.6 193.2,140.1 193.4,139.9 193.5,140.2 193.6,145.9 193.6,148.3 193.7,145.5 193.8,144.0 193.9,141.4 194.0,139.3 194.1,136.6 194.2,131.8 194.3,135.7 194.4,135.3 194.6,131.0 194.8,131.5 195.0,130.9 195.1,134.9 195.2,138.2 195.2,143.3 195.4,143.3 195.5,143.7 195.7,140.7 195.8,146.8 195.9,148.4 196.0,147.6 196.2,146.6 196.5,148.6 196.6,150.1 196.8,147.0 197.0,146.5 197.2,142.1 197.4,147.7 197.7,146.6 198.0,145.1 198.2,146.8 198.4,149.0 198.6,146.5 198.8,153.8 198.8,160.4 198.9,159.0 198.9,165.6 198.9,175.9 198.9,171.2 198.9,171.1 198.9,171.1 199.0,166.9 199.1,166.9 199.2,166.7 199.3,162.7 199.4,167.8 199.5,167.9 199.6,163.5 199.7,163.8 199.8,164.6 200.0,164.6 200.1,163.6 200.2,158.4 200.3,159.1 200.4,157.2 200.5,162.0 200.6,163.7 200.7,166.8 200.7,164.6 200.9,161.9 201.1,161.9 201.2,159.3 201.4,161.3 201.6,156.8 201.8,160.6 202.0,158.6 202.3,160.5 202.6,162.3 202.9,163.3 203.1,163.5 203.4,160.8 203.6,161.2 203.8,162.1 204.1,160.2 204.3,161.6 204.6,162.4 204.8,163.8 205.0,163.2 205.1,162.8 205.2,164.2 205.3,166.1 205.4,161.3 205.5,165.7 205.6,162.0 205.7,161.0 205.8,165.7 205.9,169.0 206.0,162.5 206.2,163.3 206.3,160.8 206.5,159.5 206.5,148.4 206.5,146.5 206.6,149.3 206.6,155.0 206.7,157.3 206.8,158.1 207.0,159.2 207.1,150.8 207.2,149.9 207.3,153.7 207.4,149.1 207.5,151.2 207.7,155.6 207.8,153.0 208.0,151.0 208.3,150.4 208.4,153.6 208.6,153.7 208.8,151.4 209.0,146.9 209.1,142.0 209.1,148.1 209.3,147.9 209.5,147.3 209.7,148.9 209.9,151.8 210.1,151.6 210.3,147.9 210.5,146.7 210.8,149.2 211.1,149.8 211.4,149.9 211.6,148.0 211.9,150.5 212.0,146.6 212.2,151.1 212.5,153.6 212.8,147.2 213.1,150.3 213.4,151.3 213.9,148.7 214.3,144.8 214.7,144.2 214.9,138.9 214.9,138.4 215.2,138.5 215.5,142.3 215.9,138.3 216.1,140.2 216.3,143.9 216.5,141.5 216.7,138.5 216.9,138.7 217.0,138.8 217.1,132.9 217.2,132.0 217.3,140.1 217.5,137.1 217.8,133.5 217.9,142.1 218.1,141.9 218.3,144.2 218.4,142.4 218.5,146.5 218.7,149.2 218.9,153.4 219.1,150.1 219.4,148.2 219.7,142.1 219.9,143.6 220.1,139.1 220.2,133.3 220.4,133.2 220.6,132.9 220.7,136.8 221.0,134.7 221.2,143.9 221.3,141.0 221.6,143.4 222.0,147.8 222.2,148.3 222.5,149.1 222.9,150.1 223.2,149.4 223.4,151.8 223.6,147.7 223.8,147.0 224.0,149.6 224.3,149.6 224.6,149.6 224.7,157.1 224.7,159.9 224.8,159.7 225.0,159.0 225.2,157.0 225.4,156.0 225.5,158.5 225.7,161.5 225.9,160.7 226.2,163.6 226.4,166.4 226.5,161.1 226.8,161.6 227.1,160.8 227.4,159.5 227.7,158.4 227.8,153.3 227.9,149.1 228.0,148.0 228.2,147.9 228.4,145.1 228.5,148.3 228.6,141.5 228.7,142.0 228.9,141.9 229.0,143.7 229.2,146.8 229.3,148.5 229.5,150.1 229.6,152.6 229.8,154.7 229.9,156.0 230.1,155.6 230.4,155.1 230.6,154.2 230.9,155.1 231.0,153.1 231.1,150.9 231.3,149.9 231.5,150.2 231.8,151.8 232.0,150.2 232.2,151.2 232.4,149.0 232.5,147.1 232.6,148.0 232.7,144.6 232.7,146.0 232.8,147.3 232.9,149.7 233.0,150.3 233.1,154.4 233.2,154.1 233.3,153.7 233.5,152.1 233.6,154.6 233.8,152.8 233.9,154.2 234.0,157.9 234.1,163.3 234.1,164.4 234.2,167.0 234.3,167.9 234.3,172.8 234.4,172.9 234.5,169.1 234.6,170.9 234.6,188.2 234.6,186.1 234.6,198.4 234.6,187.9 234.7,187.0 234.7,189.7 234.8,188.2 234.9,190.7 235.0,194.5 235.0,196.0 235.1,191.7 235.2,190.2 235.3,192.1 235.4,194.9 235.5,190.8 235.6,189.2 235.7,189.5 235.8,185.4 236.0,185.2 236.2,185.0 236.4,186.2 236.5,190.3 236.6,187.0 236.7,193.8 236.8,187.6 236.9,184.3 237.0,179.9 237.2,182.2 237.5,179.8 237.7,175.3 237.8,174.1 238.0,176.3 238.4,177.4 238.8,180.9 239.1,179.6 239.4,181.1 239.7,182.5 239.9,183.0 240.2,183.2 240.5,179.6 240.6,172.9 240.6,176.5 240.9,175.7 241.1,174.9 241.3,178.3 241.5,173.3 241.7,175.6 242.0,175.2 242.4,176.2 242.8,172.9 243.1,167.8 243.3,170.3 243.5,164.3 243.8,168.8 244.0,169.1 244.2,173.1 244.4,176.0 244.7,178.8 244.8,178.8 245.0,180.2 245.2,184.5 245.4,183.6 245.6,181.9 245.9,183.2 246.1,182.6 246.4,183.5 246.7,177.6 247.0,176.2 247.4,174.1 247.6,169.9 247.8,170.2 248.1,169.8 248.4,165.6 248.7,170.4 249.0,171.0 249.5,171.7 249.9,175.7 250.2,162.6 250.3,166.9 250.6,161.5 250.7,157.8 250.8,150.0 250.8,162.9 250.9,165.1 251.1,163.5 251.4,163.8 251.8,165.9 252.0,170.3 252.4,168.8 252.5,160.9 252.7,160.7 252.9,152.8 253.0,149.0 253.0,141.6 253.0,140.0 253.0,135.8 253.0,135.1 253.1,140.2 253.2,136.6 253.3,142.3 253.4,146.3 253.5,148.5 253.7,147.7 253.9,146.1 254.0,156.0 254.2,156.3 254.3,157.7 254.5,160.1 254.6,153.2 254.7,162.9 254.8,161.3 254.9,162.5 255.1,163.3 255.3,160.7 255.6,165.2 255.8,162.4 256.0,165.5 256.3,168.0 256.6,164.2 257.1,161.2 257.3,167.9 257.6,170.6 257.8,175.3 257.9,175.3 258.2,179.0 258.6,180.1 258.9,180.6 259.2,177.7 259.6,180.5 259.8,183.9 260.0,185.1 260.2,182.7 260.4,178.8 260.5,176.8 260.6,172.1 260.7,166.7 260.8,167.6 260.9,165.4 261.0,180.4 261.0,175.3 261.2,174.6 261.3,177.4 261.5,178.8 261.6,176.4 261.8,178.5 262.1,177.3 262.3,171.3 262.5,165.6 262.6,164.2 262.7,161.9 262.9,163.4 263.0,154.8 263.1,158.8 263.3,164.6 263.4,160.7 263.6,163.4 263.8,160.3 264.0,162.8 264.2,167.4 264.4,171.4 264.7,173.0 264.9,167.8 265.2,173.3 265.4,175.6 265.6,176.7 265.9,183.2 266.1,182.0 266.2,174.1 266.5,176.2 266.9,179.3 267.1,181.3 267.5,174.3 267.8,174.6 268.0,169.9 268.4,169.0 268.9,176.0 269.2,177.2 269.7,177.3 270.0,188.6 270.2,184.6 270.5,178.0 270.6,177.1 271.0,183.0 271.4,184.2 271.7,186.9 272.2,181.6 272.5,181.7 272.9,177.9 273.3,178.7 273.7,178.9 273.9,173.6 274.0,172.1 274.3,179.9 274.5,181.1 274.9,182.7 275.3,186.4 275.6,193.3 275.8,186.1 276.1,188.6 276.4,184.9 276.6,180.1 277.0,181.4 277.3,183.0 277.9,184.8 278.3,186.4 278.5,185.7 278.6,184.4 278.8,181.1 279.1,187.1 279.3,193.8 279.3,195.6 279.4,193.8 279.5,191.5 279.7,190.9 280.0,188.3 280.1,196.2 280.1,199.1 280.1,195.6 280.3,198.3 280.4,194.4 280.6,191.7 280.8,195.1 281.0,191.6 281.2,195.6 281.5,199.2 281.6,206.0 281.6,203.8 281.8,201.6 282.0,204.1 282.1,207.8 282.3,207.2 282.5,207.6 282.8,209.9 282.8,217.0 282.9,215.5 283.0,213.5 283.2,210.3 283.5,209.0 283.9,206.1 284.1,212.5 284.3,214.1 284.5,213.8 284.8,214.9 285.2,211.3 285.2,221.7 285.3,225.0 285.3,230.6 285.3,227.1 285.5,223.6 285.7,224.5 285.9,224.5 286.1,225.4 286.3,220.8 286.7,220.5 286.9,222.9 287.2,225.2 287.5,226.6 287.5,228.9 287.7,228.0 287.9,232.9 288.0,231.6 288.1,227.6 288.2,229.9 288.4,225.5 288.5,224.6 288.7,226.0 288.8,226.0 289.0,224.3 289.1,221.9 289.3,223.2 289.4,220.5 289.6,217.8 289.7,211.8 289.8,216.2 290.0,221.2 290.3,223.1 290.4,227.2 290.6,221.7 290.8,221.1 291.0,216.5 291.2,219.0 291.5,220.1 291.8,216.9 292.1,214.9 292.4,217.9 292.9,218.2 293.4,218.5 293.9,219.9 294.4,226.9 294.8,226.0 295.3,222.6 295.8,219.8 296.2,215.9 296.7,216.2 297.3,219.8 297.9,219.7 298.6,222.4 299.0,225.4 299.7,223.6 300.5,226.0 300.6,225.0 300.7,229.5 300.8,235.9 301.0,231.8 301.3,227.6 301.5,222.3 301.8,226.6 302.2,231.3 302.6,229.6 303.0,230.9 303.4,227.9 303.5,219.8 303.6,220.8 304.0,220.8 304.5,223.4 305.1,224.9 305.7,220.8 306.3,220.5 306.8,218.4 307.3,218.8 307.8,221.0 308.2,220.2 308.4,221.1 308.8,223.0 309.0,227.8 309.1,230.4 309.3,227.2 309.4,221.2 309.7,221.5 310.1,224.1 310.6,224.2 311.0,226.1 311.7,224.1 312.2,221.7 312.7,223.6 313.0,229.5 313.3,229.2 313.8,230.2 314.1,224.5 314.1,211.7 314.2,220.1 314.2,217.0 314.4,219.4 314.5,221.8 314.5,217.5 314.8,221.2 315.0,219.3 315.3,223.9 315.6,223.9 315.7,230.2 315.8,228.4 315.9,230.0 316.1,229.8 316.2,227.4 316.4,227.1 316.6,224.9 316.7,219.7 316.7,212.0 316.8,213.8 316.8,210.9 316.9,215.7 317.0,215.9 317.2,218.0 317.3,223.0 317.4,217.0 317.6,212.7 317.7,206.3 317.7,207.0 317.9,211.9 318.0,213.5 318.2,208.5 318.3,203.0 318.3,193.2 318.4,200.5 318.5,203.0 318.6,200.9 318.7,205.7 318.8,212.4 318.9,211.0 319.1,213.1 319.3,214.0 319.4,210.2 319.7,210.8 319.9,220.1 320.1,219.6 320.2,223.8 320.4,221.1 320.7,218.9 321.0,225.5 321.2,225.7 321.4,224.0 321.8,221.7 322.2,223.8 322.6,223.1 322.9,225.8 323.2,224.8 323.7,221.4 324.3,220.5 324.7,218.8 325.4,220.7 326.2,224.1 326.9,226.6 327.8,228.1 328.6,226.7 329.1,229.0 329.6,237.4 329.7,234.9 330.0,234.5 330.6,233.2 331.1,233.9 331.6,236.6 332.1,235.0 332.8,236.7 333.5,238.1 333.7,244.2 333.9,243.7 334.5,240.6 335.0,239.1 335.3,240.1 335.8,238.8 336.6,238.0 337.4,237.5 338.0,236.3 338.9,234.7 339.7,238.3 340.7,235.2 341.6,235.6 342.4,235.7 343.3,237.2 344.3,236.8 345.0,232.8 345.6,235.1 346.3,234.3 347.2,236.7 348.2,235.1 349.8,235.2 351.1,237.0 352.1,236.6 352.8,244.0 353.2,239.3 354.2,240.6 355.0,239.5 356.0,237.4 356.9,234.4 358.3,236.7 358.8,240.5 359.4,242.0 360.4,240.9 361.4,243.2 362.1,237.5 362.6,237.2 363.4,238.0 364.1,236.5 364.9,234.0 365.7,235.4 367.0,236.5 368.3,235.2 368.7,236.9 369.0,233.9 369.3,229.8 369.6,231.9 370.1,233.4 370.5,235.2 370.9,235.1 371.4,233.1 371.8,236.6 372.2,238.8 372.3,243.7 372.4,247.6 372.7,245.0 373.1,244.5 373.2,238.3 373.5,238.1 373.8,240.6 374.3,242.5 374.7,243.1 375.2,243.2 375.9,244.5 376.4,241.7 377.0,243.9 377.3,249.5 377.5,254.2 377.8,251.3 378.3,253.1 378.7,253.9 379.3,251.9 379.5,259.6 379.8,260.7 380.5,257.9 380.8,258.3 381.0,255.0 381.7,252.5 382.1,255.1 382.3,252.6 382.6,259.6 382.9,250.8 383.0,247.6 383.3,249.2 383.5,246.4 383.9,244.8 384.2,242.1 384.4,242.0 384.9,239.3 385.1,236.1 385.3,237.8 385.6,237.1 385.9,239.1 386.4,241.4 386.9,239.3 387.3,234.0 387.9,231.0 388.4,235.9 389.0,238.2 389.8,241.6 390.3,240.5 390.7,247.6 391.0,247.4 391.5,249.1 391.6,255.4 391.8,257.8 392.1,254.3 392.4,251.5 393.0,252.0 393.6,253.4 394.1,252.3 394.8,254.0 395.4,247.1 395.8,248.9 396.6,250.2 397.1,253.6 397.5,257.1 398.1,253.1 398.3,259.3 398.5,250.9 398.6,250.2 398.9,250.3 399.2,253.0 399.5,247.9 399.8,247.6 400.0,245.4 400.2,243.3 400.4,240.6 400.7,240.2 400.9,240.2 401.2,240.3 401.6,241.7 401.9,249.5 402.1,248.9 402.6,245.1 403.1,242.6 403.5,246.3 404.0,246.5 404.7,247.4 405.3,249.1 405.7,251.6 406.1,253.5 406.8,256.3 407.1,256.1 407.8,257.6 408.7,256.7 409.5,257.3 410.1,259.4 411.0,257.8 411.5,260.5 412.3,257.7 413.2,258.0 413.9,257.7 414.5,256.4 415.3,251.9 415.5,246.0 415.8,246.9 416.2,247.7 416.7,246.0 417.2,245.9 417.8,248.5 418.5,246.8 419.1,246.5 419.6,239.4 419.9,240.8 420.3,238.4 420.5,238.8 420.9,237.1 421.2,238.6 421.6,240.7 422.1,241.7 422.8,239.4 423.2,242.3 423.6,240.2 424.1,240.0 424.7,239.5 424.9,234.8 425.0,233.3 425.2,234.1 425.4,237.5 425.7,240.0 426.0,235.8 426.1,234.3 426.3,233.8 426.5,237.4 426.7,242.3 426.9,243.1 427.0,245.4 427.1,244.8 427.3,240.2 427.4,236.5 427.6,237.5 427.7,231.3 427.8,227.6 428.0,230.3 428.1,228.3 428.3,229.0 428.5,225.0 428.7,223.0 429.0,227.8 429.3,231.7 429.6,231.0 430.0,230.5 430.3,228.6 430.7,230.0 431.1,228.7 431.6,225.0 431.9,220.9 432.2,220.0 432.4,218.9 432.6,212.9 432.7,216.8 433.0,220.7 433.1,223.2 433.4,222.3 433.7,219.1 434.1,218.9 434.6,219.1 434.8,207.8 434.9,193.4 434.9,192.2 435.0,194.9 435.0,190.1 435.1,186.1 435.3,184.8 435.4,187.3 435.6,182.7 435.8,176.9 436.0,178.1 436.1,178.1 436.4,180.9 436.5,184.6 436.7,188.0 436.9,181.4 437.0,173.1 437.0,167.0 437.0,162.5 437.1,165.4 437.2,157.6 437.2,161.2 437.3,157.6 437.3,160.1 437.4,156.7 437.6,159.6 437.7,163.5 437.9,164.9 438.0,166.6 438.2,165.7 438.4,165.1 438.7,167.7 438.9,171.7 439.0,174.6 439.1,174.5 439.3,174.7 439.5,169.4 439.7,165.9 439.9,166.3 440.2,165.0 440.3,165.8 440.5,162.4 440.7,163.0 440.8,157.1 440.9,157.6 441.0,152.8 441.2,152.2 441.4,156.6 441.6,152.4 441.7,155.3 441.9,153.8 442.2,154.4 442.4,156.1 442.7,157.3 442.9,162.3 443.2,163.2 443.3,168.4 443.5,167.8 443.7,171.9 444.0,173.0 444.2,173.8 444.6,176.0 444.8,171.7 445.1,167.3 445.4,166.1 445.8,168.1 446.1,167.5 446.4,167.6 446.8,173.1 447.1,174.0 447.6,171.0 447.9,172.5 448.4,171.8 448.8,169.6 448.9,175.2 449.0,180.7 449.2,178.2 449.6,178.1 449.9,180.9 450.3,180.4 450.6,184.8 450.8,185.7 451.2,179.9 451.6,182.1 452.2,185.0 452.6,184.2 452.9,188.9 453.3,184.5 453.5,184.8 453.7,186.0 453.9,184.0 454.0,178.8 454.2,179.6 454.3,184.9 454.4,187.6 454.5,182.8 454.7,182.7 455.0,189.2 455.0,194.2 455.1,198.2 455.3,194.3 455.5,193.9 455.6,190.7 455.8,189.1 456.0,185.2 456.1,189.0 456.3,185.0 456.5,190.8 456.7,187.1 456.9,188.3 457.1,191.2 457.3,196.0 457.4,197.7 457.6,203.8 457.7,207.9 457.9,204.3 458.0,210.7 458.3,207.2 458.4,214.4 458.5,218.6 458.7,212.9 459.0,210.2 459.3,210.1 459.4,208.7 459.9,209.2 460.2,205.6 460.6,210.0 460.9,210.9 461.3,207.5 462.1,207.8 462.7,208.4 463.1,213.1 463.8,209.0 464.2,210.8 464.8,209.5 465.4,211.0 466.0,213.3 466.4,218.3 466.8,217.8 467.4,218.3 467.7,221.1 468.2,222.7 468.6,228.3 468.8,230.8 469.1,228.6 469.5,224.7 470.0,223.2 470.6,225.3 471.2,226.1 471.8,224.6 472.4,228.1 473.1,224.2 473.7,227.5 474.3,227.3 474.9,227.3 475.7,224.6 476.0,222.5 476.6,225.9 476.6,236.9 476.7,232.2 477.3,233.6 477.8,233.7 478.3,236.0 478.8,233.7 479.4,233.0 480.0,232.2 480.4,232.0 480.9,228.3 481.2,230.9 481.4,235.4 481.6,235.5 481.7,236.0 481.9,235.3 482.2,238.2 482.3,240.9 482.6,243.0 482.7,242.4 482.8,246.1 482.9,240.4 483.1,241.9 483.3,242.0 483.7,242.0 483.9,237.9 484.4,240.0 484.7,239.4 485.1,238.8 485.4,242.2 485.6,246.2 486.1,245.2 486.4,243.6 486.8,243.4 487.2,244.8 487.6,243.4 488.0,243.5 488.6,246.6 489.5,242.0 490.6,241.4 491.9,242.6 493.1,241.0 494.0,241.4 494.8,245.0 495.8,242.6 496.5,247.8 496.8,250.6 497.5,252.3 497.8,254.7 498.2,250.8 498.8,246.8 499.5,246.9 500.5,243.3 501.4,242.8 501.8,236.3 502.0,236.7 502.3,238.4 503.0,240.1 504.0,241.0 505.0,241.2 505.5,239.2 506.0,236.4 506.6,240.3 507.6,242.7 507.9,246.3 508.7,245.4 509.1,244.7 509.5,245.6 509.8,251.6 510.0,251.8 510.1,255.6 510.1,256.4 510.3,253.9 510.5,255.4 510.8,254.3 511.2,253.3 511.6,253.3 512.1,255.3 512.6,250.4 512.9,247.8 513.5,246.8 514.3,250.5 514.9,247.8 515.6,245.8 516.1,242.6 516.5,239.0 517.0,239.3 517.6,244.3 518.5,240.0 519.4,241.0 520.3,242.1 521.5,245.2 522.5,247.0 523.9,248.0 525.5,245.4 527.1,247.7 528.7,248.6 530.2,248.7 531.7,248.3 533.1,246.3 534.5,249.0 535.4,249.7 536.5,246.6 537.2,242.9 537.8,240.0 538.3,240.4 538.7,245.6 539.3,247.7 540.3,247.4 541.3,245.9 542.8,245.3 544.5,246.7 545.9,255.5 547.0,253.4 548.3,252.7 548.8,255.3 549.6,254.5 550.3,253.6 550.5,254.5 551.3,252.6 552.3,253.6 553.8,253.2 555.4,253.4 556.4,253.6 557.4,252.8 558.4,252.5 560.0,253.4 561.5,253.0 562.8,255.0 563.3,254.5 563.5,262.5 563.5,264.1 563.8,261.0 563.9,260.7 564.3,260.4 564.8,262.2 565.4,262.0 565.9,264.4 566.8,262.4 567.6,262.0 568.7,260.6 569.0,255.5 569.6,258.1 570.5,260.9 571.7,260.2 573.1,259.0 574.0,266.0 574.1,266.6 574.3,274.9 574.4,274.2 574.5,273.9 574.7,276.9 574.8,282.9 574.8,284.0 574.9,281.9 575.0,283.8 575.0,291.0 575.1,305.2 575.1,315.8 575.1,318.6 575.1,307.4 575.1,305.6 575.2,308.4 575.2,307.7 575.2,309.4 575.3,309.3 575.3,311.0 575.3,311.9 575.4,309.8 575.4,312.5 575.5,311.9 575.6,311.4 575.7,311.7 575.8,314.4 575.9,310.3 576.0,310.1 576.1,310.6 576.3,309.4 576.5,308.1 576.6,310.2 576.8,309.0 576.9,304.5 577.0,309.2 577.1,309.7 577.2,312.6 577.2,311.7 577.4,312.2 577.5,310.9 577.6,311.3 577.9,310.1 578.2,308.3 578.5,305.6 578.9,306.2 579.4,306.7 579.8,305.4 580.4,304.8 580.8,307.4 581.2,307.3 581.7,306.9 582.2,308.9 582.7,309.2 583.2,307.5 583.6,306.7 584.2,307.8 584.6,309.2 585.0,310.0 585.6,310.2 586.4,308.0 587.1,311.3 588.1,309.7 588.6,307.7 589.2,309.0 589.9,310.5 590.7,311.4 591.3,312.6 591.8,314.1 592.5,311.8 593.2,311.2 593.9,307.2 594.4,305.4 594.6,302.7 595.0,304.7 595.3,306.6 596.1,306.7 597.0,307.1 597.4,302.5 598.1,302.6 598.6,299.0 599.3,301.3 600.2,303.7 600.7,304.9 601.5,305.2 601.9,305.2 602.2,302.0 602.4,301.8 603.0,304.1 603.5,306.1 604.1,304.8 604.8,305.0 605.6,306.4 606.3,308.9 606.9,308.4 607.5,309.7 608.0,309.5 608.4,312.6 608.6,308.5 608.8,310.5 609.2,308.5 609.5,306.4 609.9,310.9 610.1,308.6 610.3,309.8 610.7,312.2 611.1,311.4 611.6,313.5 611.9,315.2 612.1,320.3 612.3,314.9 612.5,318.0 612.7,318.7 612.9,316.6 613.3,316.4 613.7,317.9 614.2,317.4 614.7,316.9 615.2,316.2 615.5,315.6 615.9,317.0 616.3,319.1 616.8,320.2 617.4,319.9 617.7,322.4 618.0,322.7 618.3,322.0 618.5,321.1 618.9,319.8 619.2,320.3 619.4,320.2 619.5,310.9 619.6,312.6 619.7,311.5 620.0,314.7 620.1,319.6 620.2,312.2 620.5,317.0 620.7,317.6 621.0,317.4 621.4,315.4 621.7,323.1 621.9,324.4 622.3,320.7 622.6,321.6 622.9,325.3 623.1,326.2 623.5,327.1 623.8,328.0 624.2,330.2 624.7,325.3 625.1,327.9 625.6,325.5 626.0,322.5 626.5,320.5 626.9,320.5 627.6,322.8 628.5,323.6 628.7,324.8 629.1,327.4 629.5,329.8 630.0,328.2 630.3,329.8 630.7,328.4 631.0,322.0 631.5,320.1 632.0,319.4 632.6,316.3 632.9,316.0 633.3,323.1 633.9,323.5 634.4,325.2 635.0,326.6 635.6,323.9 636.2,326.9 636.7,325.4 637.1,325.5 637.7,323.7 638.3,323.7 638.6,321.3 638.9,318.9 639.4,321.5 639.9,321.3 640.2,324.4 640.6,321.9 641.1,322.1 641.6,323.7 642.1,321.6 642.7,324.5 643.1,325.7 643.6,326.8 643.9,329.4 644.1,332.2 644.1,334.6 644.2,337.2 644.3,340.5 644.3,340.0 644.4,341.7 644.5,341.1 644.7,338.1 645.0,335.9 645.3,335.1 645.7,337.9 645.9,340.5 646.0,342.0 646.2,343.9 646.4,343.6 646.5,337.4 646.6,333.4 646.7,329.5 646.8,331.5 647.0,327.7 647.1,328.5 647.2,328.5 647.4,327.4 647.6,325.3 647.7,324.8 647.9,321.6 648.0,322.9 648.2,323.3 648.3,323.8 648.4,314.3 648.5,315.9 648.7,314.6 648.9,318.5 649.1,323.2 649.2,322.0 649.4,329.3 649.4,332.1 649.5,335.9 649.6,331.8 649.8,339.7 649.8,336.8 650.0,334.3 650.1,342.7 650.2,340.6 650.3,340.0 650.5,343.1 650.6,339.6 650.7,339.5 650.9,339.7 651.1,338.2 651.3,335.9 651.5,339.1 651.6,342.5 651.8,341.2 652.0,339.2 652.3,341.4 652.6,340.8 652.7,331.3 652.7,328.2 652.8,324.1 652.9,320.7 652.9,317.2 653.0,314.5 653.1,318.0 653.2,313.5 653.3,314.9 653.5,314.6 653.6,317.2 653.8,322.3 654.0,317.6 654.3,310.1 654.5,308.4 654.6,308.1 654.8,299.1 654.8,298.6 655.0,305.0 655.3,302.1 655.7,305.7 655.9,305.2 656.5,306.7 657.0,308.6 657.4,310.8 657.7,315.8 658.0,313.5 658.5,312.0 658.9,309.0 659.4,307.7 659.9,309.9 660.5,306.3 661.1,307.7 661.6,308.0 662.0,313.0 662.5,309.9 663.1,308.6 663.8,309.7 664.5,311.2 665.0,314.1 665.5,313.9 666.0,315.5 666.4,317.9 666.9,315.7 667.4,317.4 667.8,319.0 668.2,316.6 668.7,316.2 669.2,314.8 669.8,315.2 670.4,316.1 671.0,320.2 671.4,320.4 672.0,321.6 672.4,324.5 673.1,324.3 673.6,325.8 673.9,330.3 674.1,332.1 674.4,334.4 674.7,336.2 674.8,337.4 674.9,339.9 675.0,340.3 675.2,341.1 675.5,339.9 675.7,341.4 676.0,339.1 676.3,337.8 676.5,337.9 676.8,335.9 677.2,333.9 677.6,333.3 677.9,335.4 678.3,331.9 678.7,332.2 679.2,330.5 679.8,334.8 680.5,329.4 681.2,330.2 681.8,334.0 682.6,330.7 683.4,333.6 684.5,334.4 685.4,333.5 686.1,335.7 686.9,333.0 687.8,330.9 689.0,330.9 689.9,328.0 691.0,326.1 691.9,327.1 692.9,329.1 693.7,329.1 694.6,329.4 695.3,327.9 695.7,332.5 696.4,331.0 697.1,331.6 697.9,330.7 698.7,328.6 699.6,330.2 700.5,328.6 701.6,330.3 702.2,329.5 702.3,336.5 702.4,339.2 702.6,337.4 702.8,337.1 703.1,339.1 703.3,334.9 703.6,332.9 703.8,328.8 704.0,324.4 704.2,325.8 704.5,329.5 704.7,318.7 704.8,317.8 705.1,324.3 705.4,323.9 705.6,316.1 705.6,305.7 705.6,303.7 705.7,310.0 705.8,302.0 705.9,305.6 706.0,310.5 706.3,311.6 706.5,311.6 706.8,308.3 707.1,308.4 707.4,311.8 707.7,317.5 707.9,318.3 708.1,320.1 708.4,320.9 708.7,322.3 709.0,325.6 709.2,329.6 709.5,329.6 709.7,325.7 710.3,327.3 710.9,325.0 711.5,324.2 712.4,327.0 713.3,325.1 714.3,326.2 715.2,328.3 716.1,327.2 716.9,321.8 717.5,320.5 718.0,317.4 718.7,321.6 719.9,321.9 721.2,325.4 722.6,326.0 724.0,324.7 726.0,324.2 727.1,327.1 728.2,326.6 729.2,329.7 729.8,328.9 730.8,325.9 731.7,328.8 732.2,332.3 733.2,328.3 734.9,328.9 736.5,326.0 738.0,329.6 739.7,327.6 741.0,330.1 741.6,328.9 742.4,329.3 742.8,326.0 742.9,329.6 743.4,328.7 744.5,333.4 745.1,334.5 746.5,332.1 747.1,328.1 747.3,330.6 747.9,332.3 749.0,333.9 750.2,332.4 750.9,335.8 751.7,334.0 752.0,331.6 752.3,333.4 752.8,326.8 753.4,327.0 754.2,328.6 754.9,330.3 755.7,327.3 756.4,331.5 757.0,333.1 757.4,337.7 757.6,336.9 758.1,336.0 758.4,337.1 758.9,339.7 759.2,341.6 759.2,343.8 759.3,346.6 759.4,348.4 759.4,349.4 759.5,348.5 759.6,348.1 759.8,348.6 760.1,349.6 760.4,347.5 760.6,348.6 760.9,347.0 761.3,346.9 761.7,353.5 761.8,350.1 762.0,350.5 762.1,351.6 762.3,352.4 762.6,350.2 763.0,355.1 763.1,357.3 763.1,360.8 763.2,361.1 763.4,359.0 763.6,361.2 763.6,362.4 763.8,361.4 764.0,361.1 764.1,362.4 764.4,365.3 764.7,363.7 764.9,359.2 765.2,356.8 765.5,357.8 766.0,355.6 766.4,360.7 766.8,361.0 767.3,357.1 767.7,355.8 768.2,355.4 768.5,354.0 768.8,352.8 769.3,352.8 769.6,347.5 769.9,344.7 770.2,342.6 770.5,339.6 770.8,344.6 771.3,342.1 771.9,343.2 772.5,346.3 772.9,347.0 773.4,339.5 773.7,340.1 774.1,341.8 774.7,345.2 775.2,343.8 775.7,345.4 776.1,343.5 776.5,342.9 776.9,343.2 777.3,343.8 777.8,343.0 778.0,336.5 778.2,337.8 778.7,339.9 779.2,340.9 779.7,342.4 780.2,341.7 780.9,341.1 781.9,341.6 782.6,338.3 783.6,337.3 784.1,335.8 784.7,338.7 785.0,340.1 785.1,329.9 785.3,332.6 785.5,335.2 785.8,328.3 785.9,325.9 786.1,331.0 786.4,336.7 786.5,336.2 786.9,337.6 787.2,332.3 787.5,334.8 787.8,330.3 788.2,334.5 788.5,338.3 788.9,334.1 789.4,334.8 789.6,330.2 789.9,331.8 790.3,329.5 790.8,331.3 791.5,331.9 792.1,333.1 792.7,334.6 793.3,327.4 793.7,328.9 794.8,330.0 795.2,329.1 795.4,328.0 796.1,329.3 796.4,321.6 796.7,323.9 797.4,323.9 797.7,319.3 798.0,315.2 798.0,307.3 798.2,313.7 798.4,312.6 798.8,315.1 799.1,317.1 799.5,315.1 800.0,317.3 800.4,319.8 800.8,316.9 801.2,320.7 801.8,320.9 802.1,324.7 802.8,323.5 803.4,326.4 803.9,327.8 804.5,326.0 805.1,328.0 805.6,327.5 806.3,328.8 807.0,331.0 807.8,330.6 808.5,331.9 809.1,331.8 809.7,331.8 810.5,333.0 811.2,331.8 811.7,330.0 812.0,335.1 812.4,331.1 812.7,332.4 812.9,334.3 813.2,335.0 813.4,331.7 813.8,334.0 814.1,330.1 814.4,327.6 814.5,323.3 814.6,321.6 814.7,321.1 814.9,325.2 815.1,322.4 815.3,321.3 815.6,326.1 815.8,330.1 815.9,335.7 816.1,333.5 816.3,337.6 816.4,341.0 816.7,343.3 816.9,338.2 817.2,336.3 817.6,334.8 817.8,331.7 818.2,331.5 818.7,331.0 819.0,329.0 819.3,325.0 819.4,325.1 819.7,324.8 819.9,321.3 820.1,321.2 820.4,320.6 820.7,321.8 821.1,322.2 821.5,321.9 822.2,320.3 823.0,323.7 823.6,326.1 824.2,329.0 824.6,326.9 825.0,327.5 825.7,328.1 826.3,326.7 826.8,327.1 827.3,326.0 827.9,328.1 828.5,331.4 829.3,327.6 830.0,329.5 830.5,324.9 830.9,326.0 831.4,325.0 831.7,322.3 832.4,324.0 833.1,326.9 833.6,328.3 834.3,327.5 834.7,321.4 835.1,322.3 835.4,321.1 836.0,322.0 836.8,325.1 837.3,320.3 837.6,320.7 838.1,324.2 838.6,324.7 839.1,326.0 839.5,326.4 839.9,331.2 840.3,330.6 840.4,329.9 840.6,329.5 840.9,327.4 841.1,335.0 841.4,331.0 841.8,334.8 842.2,335.4 842.5,331.2 842.9,332.5 843.4,330.6 843.7,335.2 844.1,329.9 844.3,329.1 844.6,330.3 845.0,331.5 845.4,329.9 845.5,328.1 845.8,329.7 846.0,330.0 846.3,330.6 846.6,329.3 846.9,327.5 847.1,324.9 847.4,329.9 847.7,331.7 847.9,330.3 848.1,330.0 848.5,330.2 849.0,328.7 849.6,326.9 850.1,327.4 850.7,329.8 851.3,332.1 851.8,334.2 852.0,339.7 852.3,337.2 852.8,341.2 853.2,338.9 853.5,340.7 853.9,338.8 854.1,346.8 854.2,344.4 854.4,347.8 854.6,347.0 854.8,344.4 855.2,345.9 855.6,345.6 856.0,348.0 856.4,346.3 857.3,345.0 858.1,346.8 858.8,344.1 859.6,342.7 860.5,346.0 861.1,344.5 862.1,344.7 863.3,345.9 864.1,346.4 864.7,347.1 865.7,347.8 866.2,348.7 866.9,346.6 867.8,347.4 868.0,348.9 868.2,350.0 868.4,352.6 868.4,355.6 868.5,358.0 868.6,357.9 868.7,362.3 868.7,361.5 868.7,361.1 868.8,358.9 868.9,358.7 869.0,358.7 869.2,361.6 869.3,361.5 869.5,359.8 869.7,361.4 869.9,359.0 870.2,359.0 870.3,356.3 870.5,354.1 870.7,348.3 870.9,347.4 871.1,344.8 871.4,348.8 871.6,353.2 871.9,353.6 872.2,355.3 872.3,358.5 872.5,360.1 872.8,360.0 872.9,365.2 873.2,363.9 873.4,364.3 873.6,358.8 873.8,360.1 874.3,360.6 874.6,360.0 875.0,358.7 875.4,355.2 875.7,356.4 876.2,355.1 876.8,355.4 877.7,355.1 878.3,354.4 879.0,355.4 879.7,352.3 880.3,351.7 880.6,352.7 880.7,356.7 880.7,368.7 880.8,365.2 880.8,362.5 880.9,362.5 881.1,358.7 881.3,360.0 881.5,360.8 881.6,366.5 881.8,363.8 882.0,357.0 882.3,359.8 882.7,362.7 883.1,364.0 883.4,364.5 883.7,363.7 884.0,361.9 884.4,364.0 884.8,365.5 885.3,365.8 885.8,366.6 886.0,369.4 886.2,373.9 886.4,374.5 886.6,375.6 886.8,374.7 887.1,369.1 887.2,366.4 887.6,368.2 888.0,366.6 888.3,366.8 888.6,370.6 889.0,371.0 889.3,371.5 889.6,374.6 890.0,372.2 890.4,372.6 890.9,371.3 891.5,371.7 892.3,370.2 892.5,362.2 892.7,365.3 893.1,366.4 893.7,367.8 894.1,369.3 894.3,369.7 894.5,371.4 894.8,371.5 895.1,365.9 895.5,367.9 895.6,366.7 895.7,362.8 895.9,366.8 896.1,366.5 896.3,365.0 896.5,369.3 896.6,372.9 896.7,364.8 896.8,364.3 897.0,363.7 897.3,366.1 897.5,363.4 897.7,365.2 897.9,362.1 898.1,361.4 898.4,365.2 898.6,365.5 898.8,359.8 899.0,363.3 899.4,361.8 899.7,364.2 899.8,368.5 899.9,373.5 900.0,368.6 900.1,368.5 900.3,363.3 900.4,360.2 900.4,357.4 900.6,356.0 900.7,355.0 900.8,354.2 901.0,353.8 901.2,353.4 901.4,354.9 901.6,358.1 901.9,358.5 902.0,360.1 902.2,362.4 902.4,361.0 902.5,364.7 902.7,363.1 902.9,365.0 903.1,366.5 903.4,361.6 903.7,364.5 904.1,362.4 904.5,364.9 905.3,364.4 906.0,365.4 906.9,366.6 907.6,365.1 908.4,366.7 909.0,370.0 909.4,367.0 910.2,367.4 911.4,368.1 912.2,371.7 913.2,370.6 913.8,374.8 913.9,379.7 914.1,378.9 914.8,378.0 915.2,380.8 915.5,380.7 915.9,383.7 916.2,381.6 916.3,384.9 916.4,386.3 916.6,383.1 917.1,382.7 917.5,381.6 918.2,384.1 919.1,383.4 920.0,384.1 920.6,384.7 921.3,385.4 921.7,386.4 922.0,389.8 922.1,390.8 922.4,390.4 922.7,391.5 922.8,390.7 922.9,393.4 923.0,393.6 923.0,402.1 923.1,402.0 923.1,401.1 923.1,401.0 923.2,402.1 923.2,402.8 923.3,405.9 923.4,406.1 923.4,403.3 923.6,402.8 923.8,398.7 923.9,398.0 924.1,400.2 924.3,396.6 924.7,400.1 924.9,403.0 925.1,403.7 925.2,399.1 925.3,399.9 925.6,400.5 925.8,402.0 925.9,406.1 926.1,404.7 926.1,409.1 926.2,411.2 926.2,428.3 926.2,414.3 926.2,412.9 926.3,412.5 926.4,415.3 926.4,415.4 926.5,415.8 926.6,416.2 926.7,413.0 926.8,414.8 926.9,416.8 927.1,413.2 927.3,415.0 927.4,416.7 927.5,415.1 927.7,415.2 927.8,418.5 927.8,418.5 927.9,422.3 927.9,423.8 927.9,428.7 928.0,422.0 928.0,417.5 928.0,417.1 928.1,418.3 928.1,419.9 928.3,420.5 928.4,419.7 928.5,417.4 928.6,415.4 928.8,415.2 929.0,420.1 929.2,418.5 929.4,417.9 929.7,421.9 929.9,420.6 930.1,424.0 930.4,420.4 930.6,418.7 931.0,418.2 931.2,414.6 931.3,411.2 931.5,412.0 931.8,413.5 932.0,416.1 932.5,417.8 933.1,416.2 933.3,409.6 933.5,410.0 933.9,408.9 934.0,409.5" fill="none" stroke="#d97706" stroke-width="1.2" stroke-linejoin="round" opacity="0.6"/><text x="942" y="472.0" text-anchor="start" font-size="11" fill="#d97706">0.00</text><text x="942" y="396.0" text-anchor="start" font-size="11" fill="#d97706">0.00</text><text x="942" y="320.0" text-anchor="start" font-size="11" fill="#d97706">0.01</text><text x="942" y="244.0" text-anchor="start" font-size="11" fill="#d97706">0.01</text><text x="942" y="168.0" text-anchor="start" font-size="11" fill="#d97706">0.01</text><text x="942" y="92.0" text-anchor="start" font-size="11" fill="#d97706">0.01</text><text x="942" y="80.0" text-anchor="start" font-size="11" font-weight="600" fill="#d97706">price</text>
  <polygon points="95.6,468.0 95.6,415.6 95.6,410.5 97.4,404.9 98.1,408.0 100.3,398.7 101.1,402.1 104.3,392.0 109.1,384.5 109.1,388.6 109.4,394.9 118.1,376.4 120.1,381.0 120.1,367.5 120.1,372.5 120.1,380.0 120.2,391.2 120.2,408.1 120.3,411.0 120.3,415.5 120.7,422.2 121.8,432.2 124.5,434.0 125.0,428.8 125.0,430.7 125.1,433.6 131.0,438.0 131.1,444.6 133.9,442.3 134.8,443.6 136.0,445.5 138.8,448.4 141.7,439.8 143.1,437.1 152.1,434.1 152.7,430.7 153.5,432.6 156.4,435.4 157.1,439.5 164.5,427.2 164.5,429.2 165.4,432.3 169.7,436.8 170.7,423.3 171.6,425.5 182.9,428.9 183.4,433.9 186.3,419.1 188.9,421.5 189.4,425.1 189.6,430.6 198.9,414.4 198.9,417.1 199.7,421.1 214.9,409.2 218.7,412.2 220.1,416.5 222.0,423.1 234.3,403.7 234.6,406.8 237.6,411.6 250.8,397.4 250.8,400.9 253.0,406.2 254.7,414.1 270.0,390.7 280.1,394.6 280.5,400.3 281.6,409.0 285.3,383.4 289.6,387.6 290.4,393.9 291.0,403.3 294.4,417.5 296.2,420.0 300.5,423.8 314.1,429.4 315.6,437.9 317.7,434.9 319.2,436.6 333.7,431.7 369.2,433.5 372.1,436.2 379.6,428.2 384.3,424.3 427.8,426.5 434.8,420.0 435.1,415.3 437.0,418.0 450.0,421.9 457.7,410.3 466.4,413.1 482.6,404.6 563.5,398.4 574.3,401.9 575.0,391.6 575.1,395.4 575.1,384.2 575.1,388.4 575.1,394.6 575.1,404.0 575.1,418.0 575.1,413.1 612.1,415.8 619.5,419.9 620.1,426.0 644.3,407.9 647.9,402.0 649.4,405.3 652.8,410.2 654.8,395.6 671.0,388.5 673.9,392.5 704.6,398.4 705.6,380.9 708.0,372.3 731.8,377.1 759.4,363.0 763.1,368.2 769.4,376.0 785.1,352.8 796.4,358.6 798.0,341.6 803.2,329.2 854.1,315.6 868.4,323.2 871.1,334.5 871.7,351.6 880.8,301.1 900.5,284.8 902.5,293.9 915.2,266.9 922.0,276.9 923.3,247.3 926.2,258.3 926.2,225.8 926.2,202.1 927.9,215.3 927.9,176.2 928.0,147.6 933.3,116.1 933.3,468.0" fill="#16a34a" fill-opacity="0.08"/>
  <polyline points="95.6,415.6 95.6,410.5 97.4,404.9 98.1,408.0 100.3,398.7 101.1,402.1 104.3,392.0 109.1,384.5 109.1,388.6 109.4,394.9 118.1,376.4 120.1,381.0 120.1,367.5 120.1,372.5 120.1,380.0 120.2,391.2 120.2,408.1 120.3,411.0 120.3,415.5 120.7,422.2 121.8,432.2 124.5,434.0 125.0,428.8 125.0,430.7 125.1,433.6 131.0,438.0 131.1,444.6 133.9,442.3 134.8,443.6 136.0,445.5 138.8,448.4 141.7,439.8 143.1,437.1 152.1,434.1 152.7,430.7 153.5,432.6 156.4,435.4 157.1,439.5 164.5,427.2 164.5,429.2 165.4,432.3 169.7,436.8 170.7,423.3 171.6,425.5 182.9,428.9 183.4,433.9 186.3,419.1 188.9,421.5 189.4,425.1 189.6,430.6 198.9,414.4 198.9,417.1 199.7,421.1 214.9,409.2 218.7,412.2 220.1,416.5 222.0,423.1 234.3,403.7 234.6,406.8 237.6,411.6 250.8,397.4 250.8,400.9 253.0,406.2 254.7,414.1 270.0,390.7 280.1,394.6 280.5,400.3 281.6,409.0 285.3,383.4 289.6,387.6 290.4,393.9 291.0,403.3 294.4,417.5 296.2,420.0 300.5,423.8 314.1,429.4 315.6,437.9 317.7,434.9 319.2,436.6 333.7,431.7 369.2,433.5 372.1,436.2 379.6,428.2 384.3,424.3 427.8,426.5 434.8,420.0 435.1,415.3 437.0,418.0 450.0,421.9 457.7,410.3 466.4,413.1 482.6,404.6 563.5,398.4 574.3,401.9 575.0,391.6 575.1,395.4 575.1,384.2 575.1,388.4 575.1,394.6 575.1,404.0 575.1,418.0 575.1,413.1 612.1,415.8 619.5,419.9 620.1,426.0 644.3,407.9 647.9,402.0 649.4,405.3 652.8,410.2 654.8,395.6 671.0,388.5 673.9,392.5 704.6,398.4 705.6,380.9 708.0,372.3 731.8,377.1 759.4,363.0 763.1,368.2 769.4,376.0 785.1,352.8 796.4,358.6 798.0,341.6 803.2,329.2 854.1,315.6 868.4,323.2 871.1,334.5 871.7,351.6 880.8,301.1 900.5,284.8 902.5,293.9 915.2,266.9 922.0,276.9 923.3,247.3 926.2,258.3 926.2,225.8 926.2,202.1 927.9,215.3 927.9,176.2 928.0,147.6 933.3,116.1" fill="none" stroke="#16a34a" stroke-width="2" stroke-linejoin="round"/>
  <line x1="88" y1="102" x2="110" y2="102" stroke="#16a34a" stroke-width="2.5"/><text x="116" y="106" font-size="11.5" fill="#374151">equity</text><line x1="88" y1="118" x2="110" y2="118" stroke="#d97706" stroke-width="2.5" opacity="0.8"/><text x="116" y="122" font-size="11.5" fill="#374151">price</text>
  <text x="78" y="502" text-anchor="start" font-size="12" fill="#6b7280">2026-01-01</text><text x="934" y="502" text-anchor="end" font-size="12" fill="#6b7280">2026-01-31</text>
</svg>
