<svg xmlns="http://www.w3.org/2000/svg" width="1100" height="560" font-family="ui-sans-serif, system-ui, sans-serif" viewBox="0 0 1100 560"><rect width="1100" height="560" fill="#fff"/><text x="80" y="28" fill="#111827" font-size="18" font-weight="700">Zone Recovery — 1000PEPEUSDC fee-tier comparison (best setting)</text><text x="80" y="48" fill="#6b7280" font-size="12.5">lev 10 · ratio 2 · gap 20% · maxSteps 4 · maxDD 40% · random · equity per fee tier vip 0..9</text><text x="80" y="68" fill="#1d4ed8" font-size="12.5" font-weight="600">USDC margin · BNB −10%</text><line x1="80" x2="932" y1="508" y2="508" stroke="#e5e7eb" stroke-width="1"/><text x="70" y="512" fill="#6b7280" font-size="12" text-anchor="end">0.00</text><line x1="80" x2="932" y1="424" y2="424" stroke="#e5e7eb" stroke-width="1"/><text x="70" y="428" fill="#6b7280" font-size="12" text-anchor="end">14512</text><line x1="80" x2="932" y1="340" y2="340" stroke="#e5e7eb" stroke-width="1"/><text x="70" y="344" fill="#6b7280" font-size="12" text-anchor="end">29023</text><line x1="80" x2="932" y1="256" y2="256" stroke="#e5e7eb" stroke-width="1"/><text x="70" y="260" fill="#6b7280" font-size="12" text-anchor="end">43535</text><line x1="80" x2="932" y1="172" y2="172" stroke="#e5e7eb" stroke-width="1"/><text x="70" y="176" fill="#6b7280" font-size="12" text-anchor="end">58047</text><line x1="80" x2="932" y1="88" y2="88" stroke="#e5e7eb" stroke-width="1"/><text x="70" y="92" fill="#6b7280" font-size="12" text-anchor="end">72559</text><line x1="80" x2="932" y1="450.1" y2="450.1" stroke="#9ca3af" stroke-dasharray="6 4" stroke-width="1.5"/><polyline fill="none" stroke="#2563eb" stroke-linejoin="round" stroke-width="1.8" points="80 450.1 80 444.5 81.8 438.4 82.5 441.9 84.8 431.8 85.6 435.7 88.8 424.7 93.8 416.6 93.8 421.3 94.1 428.3 102.9 408.4 104.9 413.5 104.9 399.1 104.9 404.6 104.9 413 105 425.5 105.1 444.2 105.2 447.5 105.2 452.4 105.6 459.7 106.7 470.7 109.4 472.6 109.9 467.2 110 469.2 110 472.4 116 477.1 116.1 484.1 119 481.8 119.8 483.1 121.1 485.1 123.9 488.1 126.9 479.6 128.3 476.8 137.4 473.8 138.1 470.5 138.9 472.4 141.8 475.3 142.6 479.6 150.1 467.4 150.1 469.4 151 472.5 155.4 477.2 156.4 464 157.3 466.2 168.8 469.6 169.3 474.6 172.3 460.3 174.9 462.7 175.4 466.3 175.7 471.8 185.1 456.2 185.1 458.9 185.9 462.8 201.3 451.6 205.2 454.5 206.7 458.8 208.6 465.2 221.1 446.8 221.4 449.9 224.5 454.6 237.8 441.3 237.9 444.7 240.1 449.8 241.8 457.5 257.3 435.7 267.7 439.4 268.1 444.9 269.2 453.2 272.9 429.6 277.4 433.6 278.1 439.6 278.8 448.6 282.2 462.1 284 464.4 288.4 467.9 302.2 473.2 303.8 481.1 305.9 478.5 307.4 480 322.2 475.7 358.3 477.4 361.2 479.9 368.9 472.8 373.7 469.4 417.9 471.4 425 465.8 425.4 461.7 427.2 464.1 440.5 467.6 448.3 457.6 457.2 460.1 473.6 452.8 555.9 447.5 566.9 450.6 567.6 441.8 567.7 445.2 567.7 435.6 567.7 439.3 567.7 444.8 567.7 453.1 567.7 465.6 567.7 461.5 605.3 463.8 612.9 467.4 613.4 472.7 638.1 457.5 641.7 452.7 643.2 455.5 646.8 459.7 648.7 447.7 665.3 441.9 668.1 445.2 699.4 450.3 700.4 435.9 702.9 428.9 727.1 433 755.2 421.5 758.9 425.9 765.3 432.5 781.3 413.7 792.8 418.5 794.4 404.8 799.7 394.9 851.4 383.9 866 390.2 868.7 399.7 869.4 414 878.6 373.4 898.7 360.4 900.7 368 913.6 346.5 920.5 354.8 921.8 331.3 924.8 340.3 924.8 314.7 924.8 296 926.5 306.8 926.6 276.1 926.6 253.6 932 229.1" opacity=".9"/><polyline fill="none" stroke="#dc2626" stroke-linejoin="round" stroke-width="1.8" points="80 450.1 80 444.5 81.8 438.4 82.5 441.9 84.8 431.8 85.6 435.7 88.8 424.7 93.8 416.6 93.8 421.3 94.1 428.3 102.9 408.4 104.9 413.5 104.9 399.1 104.9 404.6 104.9 413 105 425.5 105.1 444.2 105.2 447.5 105.2 452.4 105.6 459.7 106.7 470.7 109.4 472.6 109.9 467.2 110 469.2 110 472.4 116 477.1 116.1 484.1 119 481.8 119.8 483.1 121.1 485.1 123.9 488.1 126.9 479.6 128.3 476.8 137.4 473.8 138.1 470.5 138.9 472.4 141.8 475.3 142.6 479.6 150.1 467.4 150.1 469.4 151 472.5 155.4 477.2 156.4 464 157.3 466.2 168.8 469.6 169.3 474.6 172.3 460.3 174.9 462.7 175.4 466.3 175.7 471.8 185.1 456.2 185.1 458.9 185.9 462.8 201.3 451.6 205.2 454.5 206.7 458.8 208.6 465.2 221.1 446.8 221.4 449.9 224.5 454.6 237.8 441.3 237.9 444.7 240.1 449.8 241.8 457.5 257.3 435.7 267.7 439.4 268.1 444.9 269.2 453.2 272.9 429.6 277.4 433.6 278.1 439.6 278.8 448.6 282.2 462.1 284 464.4 288.4 467.9 302.2 473.2 303.8 481.1 305.9 478.5 307.4 480 322.2 475.7 358.3 477.4 361.2 479.9 368.9 472.8 373.7 469.4 417.9 471.4 425 465.8 425.4 461.7 427.2 464.1 440.5 467.6 448.3 457.6 457.2 460.1 473.6 452.8 555.9 447.5 566.9 450.6 567.6 441.8 567.7 445.2 567.7 435.6 567.7 439.3 567.7 444.8 567.7 453.1 567.7 465.6 567.7 461.5 605.3 463.8 612.9 467.4 613.4 472.7 638.1 457.5 641.7 452.7 643.2 455.5 646.8 459.7 648.7 447.7 665.3 441.9 668.1 445.2 699.4 450.3 700.4 435.9 702.9 428.9 727.1 433 755.2 421.5 758.9 425.9 765.3 432.5 781.3 413.7 792.8 418.5 794.4 404.8 799.7 394.9 851.4 383.9 866 390.2 868.7 399.7 869.4 414 878.6 373.4 898.7 360.4 900.7 368 913.6 346.5 920.5 354.8 921.8 331.3 924.8 340.3 924.8 314.7 924.8 296 926.5 306.8 926.6 276.1 926.6 253.6 932 229.1" opacity=".9"/><polyline fill="none" stroke="#16a34a" stroke-linejoin="round" stroke-width="1.8" points="80 450.1 80 444.5 81.8 438.3 82.5 441.9 84.8 431.7 85.6 435.6 88.8 424.5 93.8 416.4 93.8 421 94.1 428 102.9 408 104.9 413.1 104.9 398.5 104.9 404.1 104.9 412.4 105 424.9 105.1 443.6 105.2 446.9 105.2 451.7 105.6 459.1 106.7 470.1 109.4 472 109.9 466.5 110 468.6 110 471.8 116 476.5 116.1 483.6 119 481.2 119.8 482.6 121.1 484.6 123.9 487.7 126.9 478.9 128.3 476.1 137.4 473 138.1 469.6 138.9 471.5 141.8 474.4 142.6 478.8 150.1 466.2 150.1 468.3 151 471.5 155.4 476.3 156.4 462.6 157.3 464.9 168.8 468.4 169.3 473.5 172.3 458.7 174.9 461.2 175.4 464.9 175.7 470.5 185.1 454.4 185.1 457.1 185.9 461.2 201.3 449.5 205.2 452.4 206.7 456.9 208.6 463.5 221.1 444.3 221.4 447.6 224.5 452.4 237.8 438.5 237.9 442 240.1 447.3 241.8 455.2 257.3 432.5 267.7 436.3 268.1 442 269.2 450.6 272.9 425.9 277.4 430 278.1 436.3 278.8 445.6 282.2 459.7 284 462.1 288.4 465.8 302.2 471.3 303.8 479.6 305.9 476.8 307.4 478.4 322.2 473.8 358.3 475.6 361.2 478.2 368.9 470.7 373.7 467.1 417.9 469.2 425 463.2 425.4 458.9 427.2 461.4 440.5 465.1 448.3 454.4 457.2 457.1 473.6 449.3 555.9 443.6 566.9 446.8 567.6 437.4 567.7 441 567.7 430.7 567.7 434.6 567.7 440.5 567.7 449.3 567.7 462.5 567.7 458.1 605.3 460.6 612.9 464.4 613.4 470.1 638.1 453.8 641.7 448.5 643.2 451.5 646.8 456 648.7 443 665.3 436.7 668.1 440.3 699.4 445.8 700.4 430.2 702.9 422.6 727.1 427 755.2 414.5 758.9 419.3 765.3 426.4 781.3 406 792.8 411.1 794.4 396.3 799.7 385.5 851.4 373.6 866 380.4 868.7 390.6 869.4 405.9 878.6 361.8 898.7 347.7 900.7 355.8 913.6 332.4 920.5 341.3 921.8 315.7 924.8 325.5 924.8 297.5 924.8 277 926.5 288.7 926.6 255.1 926.6 230.6 932 203.6" opacity=".9"/><polyline fill="none" stroke="#d97706" stroke-linejoin="round" stroke-width="1.8" points="80 450.1 80 444.5 81.8 438.3 82.5 441.8 84.8 431.6 85.6 435.5 88.8 424.3 93.8 416.2 93.8 420.8 94.1 427.8 102.9 407.7 104.9 412.7 104.9 398.1 104.9 403.6 104.9 411.9 105 424.4 105.1 443.1 105.2 446.3 105.2 451.2 105.6 458.6 106.7 469.6 109.4 471.6 109.9 466 110 468.1 110 471.3 116 476 116.1 483.2 119 480.8 119.8 482.1 121.1 484.2 123.9 487.3 126.9 478.3 128.3 475.4 137.4 472.3 138.1 468.8 138.9 470.8 141.8 473.7 142.6 478.2 150.1 465.3 150.1 467.5 151 470.7 155.4 475.5 156.4 461.5 157.3 463.8 168.8 467.4 169.3 472.6 172.3 457.4 174.9 459.9 175.4 463.7 175.7 469.5 185.1 452.8 185.1 455.6 185.9 459.8 201.3 447.7 205.2 450.7 206.7 455.3 208.6 462.1 221.1 442.3 221.4 445.6 224.5 450.6 237.8 436.2 237.9 439.8 240.1 445.2 241.8 453.4 257.3 429.8 267.7 433.7 268.1 439.6 269.2 448.5 272.9 422.8 277.4 427.1 278.1 433.5 278.8 443.2 282.2 457.7 284 460.2 288.4 464 302.2 469.7 303.8 478.3 305.9 475.4 307.4 477 322.2 472.2 358.3 474 361.2 476.7 368.9 468.9 373.7 465.1 417.9 467.3 425 461 425.4 456.4 427.2 459 440.5 462.9 448.3 451.6 457.2 454.5 473.6 446.3 555.9 440.2 566.9 443.7 567.6 433.8 567.7 437.5 567.7 426.7 567.7 430.7 567.7 436.9 567.7 446.1 567.7 459.9 567.7 455.3 605.3 457.9 612.9 461.9 613.4 467.9 638.1 450.5 641.7 444.9 643.2 448.1 646.8 452.9 648.7 439.1 665.3 432.4 668.1 436.2 699.4 441.9 700.4 425.3 702.9 417.3 727.1 421.9 755.2 408.6 758.9 413.6 765.3 421.1 781.3 399.4 792.8 404.8 794.4 389 799.7 377.4 851.4 364.7 866 371.9 868.7 382.7 869.4 399 878.6 351.9 898.7 336.7 900.7 345.3 913.6 320.3 920.5 329.7 921.8 302.3 924.8 312.7 924.8 282.6 924.8 260.7 926.5 273.1 926.6 237 926.6 210.6 932 181.7" opacity=".9"/><polyline fill="none" stroke="#7c3aed" stroke-linejoin="round" stroke-width="1.8" points="80 450.1 80 444.5 81.8 438.3 82.5 441.7 84.8 431.5 85.6 435.3 88.8 424.1 93.8 415.9 93.8 420.5 94.1 427.4 102.9 407.2 104.9 412.2 104.9 397.5 104.9 403 104.9 411.3 105 423.7 105.1 442.3 105.2 445.6 105.2 450.5 105.6 457.9 106.7 469 109.4 470.9 109.9 465.2 110 467.4 110 470.6 116 475.4 116.1 482.6 119 480.1 119.8 481.5 121.1 483.6 123.9 486.7 126.9 477.5 128.3 474.5 137.4 471.3 138.1 467.7 138.9 469.7 141.8 472.7 142.6 477.3 150.1 464 150.1 466.2 151 469.5 155.4 474.4 156.4 459.9 157.3 462.3 168.8 465.9 169.3 471.3 172.3 455.5 174.9 458.1 175.4 462 175.7 467.9 185.1 450.6 185.1 453.5 185.9 457.8 201.3 445.1 205.2 448.3 206.7 453 208.6 460 221.1 439.3 221.4 442.7 224.5 447.9 237.8 432.8 237.9 436.5 240.1 442.2 241.8 450.6 257.3 425.8 267.7 429.9 268.1 436.1 269.2 445.3 272.9 418.2 277.4 422.7 278.1 429.4 278.8 439.5 282.2 454.7 284 457.3 288.4 461.3 302.2 467.3 303.8 476.3 305.9 473.2 307.4 475 322.2 469.9 358.3 471.8 361.2 474.6 368.9 466.2 373.7 462.2 417.9 464.4 425 457.7 425.4 452.8 427.2 455.6 440.5 459.7 448.3 447.6 457.2 450.6 473.6 441.7 555.9 435.2 566.9 438.9 567.6 428.2 567.7 432.2 567.7 420.5 567.7 424.9 567.7 431.4 567.7 441.3 567.7 456 567.7 450.9 605.3 453.8 612.9 458.1 613.4 464.5 638.1 445.6 641.7 439.6 643.2 443 646.8 448.1 648.7 433.1 665.3 425.7 668.1 429.8 699.4 436 700.4 417.9 702.9 409.1 727.1 414 755.2 399.5 758.9 405 765.3 413.1 781.3 389.2 792.8 395.2 794.4 377.8 799.7 365 851.4 351.1 866 358.9 868.7 370.7 869.4 388.3 878.6 336.5 898.7 319.8 900.7 329.2 913.6 301.6 920.5 311.9 921.8 281.6 924.8 292.9 924.8 259.7 924.8 235.5 926.5 249.1 926.6 209.1 926.6 179.9 932 147.9" opacity=".9"/><polyline fill="none" stroke="#0891b2" stroke-linejoin="round" stroke-width="1.8" points="80 450.1 80 444.5 81.8 438.2 82.5 441.7 84.8 431.5 85.6 435.3 88.8 424.1 93.8 415.9 93.8 420.5 94.1 427.4 102.9 407.1 104.9 412.1 104.9 397.3 104.9 402.9 104.9 411.1 105 423.6 105.1 442.2 105.2 445.5 105.2 450.4 105.6 457.8 106.7 468.9 109.4 470.8 109.9 465.1 110 467.2 110 470.4 116 475.3 116.1 482.5 119 480 119.8 481.4 121.1 483.5 123.9 486.6 126.9 477.4 128.3 474.4 137.4 471.1 138.1 467.5 138.9 469.5 141.8 472.5 142.6 477.1 150.1 463.7 150.1 465.9 151 469.2 155.4 474.2 156.4 459.6 157.3 462 168.8 465.6 169.3 471.1 172.3 455.1 174.9 457.7 175.4 461.7 175.7 467.6 185.1 450.2 185.1 453.1 185.9 457.4 201.3 444.7 205.2 447.8 206.7 452.6 208.6 459.7 221.1 438.8 221.4 442.2 224.5 447.4 237.8 432.2 237.9 435.9 240.1 441.6 241.8 450.1 257.3 425.1 267.7 429.2 268.1 435.4 269.2 444.7 272.9 417.4 277.4 421.9 278.1 428.7 278.8 438.9 282.2 454.1 284 456.8 288.4 460.8 302.2 466.9 303.8 476 305.9 472.8 307.4 474.6 322.2 469.4 358.3 471.3 361.2 474.2 368.9 465.7 373.7 461.6 417.9 463.9 425 457.1 425.4 452.1 427.2 454.9 440.5 459.1 448.3 446.8 457.2 449.9 473.6 440.9 555.9 434.3 566.9 438 567.6 427.2 567.7 431.2 567.7 419.4 567.7 423.8 567.7 430.4 567.7 440.4 567.7 455.3 567.7 450.1 605.3 453 612.9 457.4 613.4 463.8 638.1 444.7 641.7 438.6 643.2 442 646.8 447.2 648.7 431.9 665.3 424.5 668.1 428.7 699.4 434.9 700.4 416.5 702.9 407.6 727.1 412.6 755.2 397.9 758.9 403.4 765.3 411.6 781.3 387.4 792.8 393.4 794.4 375.7 799.7 362.8 851.4 348.6 866 356.5 868.7 368.4 869.4 386.3 878.6 333.7 898.7 316.6 900.7 326.2 913.6 298.1 920.5 308.6 921.8 277.8 924.8 289.3 924.8 255.5 924.8 230.8 926.5 244.6 926.6 203.9 926.6 174.2 932 141.6" opacity=".9"/><polyline fill="none" stroke="#db2777" stroke-linejoin="round" stroke-width="1.8" points="80 450.1 80 444.5 81.8 438.2 82.5 441.7 84.8 431.5 85.6 435.3 88.8 424.1 93.8 415.8 93.8 420.4 94.1 427.3 102.9 407 104.9 412.1 104.9 397.3 104.9 402.8 104.9 411.1 105 423.5 105.1 442.1 105.2 445.4 105.2 450.3 105.6 457.7 106.7 468.8 109.4 470.8 109.9 465 110 467.1 110 470.4 116 475.2 116.1 482.4 119 479.9 119.8 481.3 121.1 483.4 123.9 486.6 126.9 477.3 128.3 474.3 137.4 471 138.1 467.4 138.9 469.4 141.8 472.4 142.6 477 150.1 463.6 150.1 465.8 151 469.1 155.4 474.1 156.4 459.4 157.3 461.8 168.8 465.5 169.3 470.9 172.3 454.9 174.9 457.5 175.4 461.5 175.7 467.4 185.1 449.9 185.1 452.8 185.9 457.1 201.3 444.3 205.2 447.5 206.7 452.3 208.6 459.4 221.1 438.4 221.4 441.9 224.5 447.1 237.8 431.7 237.9 435.5 240.1 441.2 241.8 449.8 257.3 424.6 267.7 428.8 268.1 435 269.2 444.3 272.9 416.8 277.4 421.3 278.1 428.2 278.8 438.4 282.2 453.7 284 456.4 288.4 460.5 302.2 466.6 303.8 475.7 305.9 472.6 307.4 474.3 322.2 469.1 358.3 471.1 361.2 474 368.9 465.4 373.7 461.2 417.9 463.6 425 456.7 425.4 451.7 427.2 454.5 440.5 458.7 448.3 446.3 457.2 449.4 473.6 440.3 555.9 433.7 566.9 437.4 567.6 426.5 567.7 430.6 567.7 418.6 567.7 423 567.7 429.7 567.7 439.8 567.7 454.8 567.7 449.6 605.3 452.5 612.9 456.9 613.4 463.4 638.1 444.1 641.7 437.9 643.2 441.4 646.8 446.6 648.7 431.2 665.3 423.6 668.1 427.9 699.4 434.2 700.4 415.6 702.9 406.5 727.1 411.6 755.2 396.7 758.9 402.3 765.3 410.6 781.3 386.1 792.8 392.1 794.4 374.3 799.7 361.2 851.4 346.8 866 354.8 868.7 366.9 869.4 385 878.6 331.7 898.7 314.5 900.7 324.1 913.6 295.7 920.5 306.3 921.8 275.1 924.8 286.7 924.8 252.5 924.8 227.5 926.5 241.5 926.6 200.3 926.6 170.2 932 137.2" opacity=".9"/><polyline fill="none" stroke="#65a30d" stroke-linejoin="round" stroke-width="1.8" points="80 450.1 80 444.4 81.8 438.2 82.5 441.7 84.8 431.5 85.6 435.3 88.8 424 93.8 415.8 93.8 420.4 94.1 427.3 102.9 407 104.9 412 104.9 397.1 104.9 402.7 104.9 410.9 105 423.4 105.1 442 105.2 445.3 105.2 450.2 105.6 457.6 106.7 468.7 109.4 470.6 109.9 464.9 110 467 110 470.2 116 475.1 116.1 482.3 119 479.8 119.8 481.2 121.1 483.3 123.9 486.5 126.9 477.1 128.3 474.1 137.4 470.8 138.1 467.1 138.9 469.2 141.8 472.2 142.6 476.8 150.1 463.3 150.1 465.5 151 468.9 155.4 473.9 156.4 459.1 157.3 461.5 168.8 465.2 169.3 470.7 172.3 454.5 174.9 457.2 175.4 461.2 175.7 467.2 185.1 449.5 185.1 452.4 185.9 456.7 201.3 443.9 205.2 447 206.7 451.8 208.6 459 221.1 437.8 221.4 441.3 224.5 446.5 237.8 431.1 237.9 434.9 240.1 440.6 241.8 449.3 257.3 423.8 267.7 428 268.1 434.3 269.2 443.7 272.9 415.9 277.4 420.5 278.1 427.4 278.8 437.7 282.2 453.1 284 455.9 288.4 460 302.2 466.1 303.8 475.3 305.9 472.1 307.4 473.9 322.2 468.6 358.3 470.6 361.2 473.5 368.9 464.9 373.7 460.6 417.9 463 425 456.1 425.4 451 427.2 453.8 440.5 458.1 448.3 445.5 457.2 448.6 473.6 439.4 555.9 432.7 566.9 436.5 567.6 425.4 567.7 429.5 567.7 417.4 567.7 421.9 567.7 428.6 567.7 438.8 567.7 454 567.7 448.7 605.3 451.7 612.9 456.1 613.4 462.7 638.1 443.1 641.7 436.8 643.2 440.3 646.8 445.6 648.7 430 665.3 422.3 668.1 426.6 699.4 433 700.4 414.1 702.9 404.9 727.1 410 755.2 394.9 758.9 400.5 765.3 409 781.3 384 792.8 390.2 794.4 372 799.7 358.7 851.4 344.1 866 352.2 868.7 364.4 869.4 382.8 878.6 328.6 898.7 311 900.7 320.8 913.6 291.9 920.5 302.7 921.8 270.9 924.8 282.7 924.8 247.9 924.8 222.4 926.5 236.6 926.6 194.7 926.6 164 932 130.3" opacity=".9"/><polyline fill="none" stroke="#475569" stroke-linejoin="round" stroke-width="1.8" points="80 450.1 80 444.4 81.8 438.2 82.5 441.7 84.8 431.4 85.6 435.2 88.8 424 93.8 415.8 93.8 420.3 94.1 427.2 102.9 406.9 104.9 411.9 104.9 397.1 104.9 402.6 104.9 410.9 105 423.3 105.1 441.9 105.2 445.2 105.2 450.1 105.6 457.5 106.7 468.6 109.4 470.6 109.9 464.8 110 466.9 110 470.1 116 475 116.1 482.2 119 479.7 119.8 481.1 121.1 483.2 123.9 486.4 126.9 477 128.3 474 137.4 470.7 138.1 467 138.9 469 141.8 472.1 142.6 476.7 150.1 463.1 150.1 465.4 151 468.7 155.4 473.7 156.4 458.9 157.3 461.3 168.8 465 169.3 470.5 172.3 454.3 174.9 456.9 175.4 460.9 175.7 467 185.1 449.2 185.1 452.1 185.9 456.5 201.3 443.5 205.2 446.7 206.7 451.5 208.6 458.8 221.1 437.4 221.4 440.9 224.5 446.2 237.8 430.6 237.9 434.5 240.1 440.3 241.8 448.9 257.3 423.3 267.7 427.5 268.1 433.9 269.2 443.3 272.9 415.3 277.4 419.9 278.1 426.8 278.8 437.2 282.2 452.8 284 455.5 288.4 459.6 302.2 465.8 303.8 475.1 305.9 471.9 307.4 473.7 322.2 468.3 358.3 470.3 361.2 473.3 368.9 464.5 373.7 460.3 417.9 462.6 425 455.6 425.4 450.5 427.2 453.4 440.5 457.6 448.3 445 457.2 448.1 473.6 438.8 555.9 432.1 566.9 435.8 567.6 424.7 567.7 428.8 567.7 416.6 567.7 421.1 567.7 427.9 567.7 438.2 567.7 453.5 567.7 448.2 605.3 451.1 612.9 455.6 613.4 462.3 638.1 442.5 641.7 436.1 643.2 439.7 646.8 445 648.7 429.2 665.3 421.4 668.1 425.7 699.4 432.2 700.4 413.1 702.9 403.8 727.1 409 755.2 393.7 758.9 399.4 765.3 407.9 781.3 382.7 792.8 388.9 794.4 370.5 799.7 357 851.4 342.3 866 350.5 868.7 362.9 869.4 381.4 878.6 326.6 898.7 308.8 900.7 318.7 913.6 289.4 920.5 300.3 921.8 268.2 924.8 280.1 924.8 244.8 924.8 219 926.5 233.4 926.6 190.9 926.6 159.9 932 125.8" opacity=".9"/><polyline fill="none" stroke="#ea580c" stroke-linejoin="round" stroke-width="1.8" points="80 450.1 80 444.4 81.8 438.2 82.5 441.7 84.8 431.4 85.6 435.2 88.8 424 93.8 415.7 93.8 420.3 94.1 427.2 102.9 406.8 104.9 411.8 104.9 397 104.9 402.5 104.9 410.7 105 423.1 105.1 441.8 105.2 445 105.2 450 105.6 457.4 106.7 468.5 109.4 470.4 109.9 464.6 110 466.8 110 470 116 474.9 116.1 482.1 119 479.6 119.8 481 121.1 483.1 123.9 486.3 126.9 476.9 128.3 473.8 137.4 470.5 138.1 466.8 138.9 468.9 141.8 471.9 142.6 476.5 150.1 462.9 150.1 465.1 151 468.5 155.4 473.5 156.4 458.6 157.3 461.1 168.8 464.7 169.3 470.3 172.3 453.9 174.9 456.6 175.4 460.6 175.7 466.7 185.1 448.8 185.1 451.7 185.9 456.1 201.3 443.1 205.2 446.3 206.7 451.1 208.6 458.4 221.1 436.9 221.4 440.4 224.5 445.7 237.8 430 237.9 433.9 240.1 439.7 241.8 448.4 257.3 422.6 267.7 426.8 268.1 433.2 269.2 442.7 272.9 414.5 277.4 419.1 278.1 426.1 278.8 436.5 282.2 452.2 284 455 288.4 459.1 302.2 465.4 303.8 474.7 305.9 471.4 307.4 473.3 322.2 467.9 358.3 469.9 361.2 472.9 368.9 464 373.7 459.7 417.9 462.1 425 455 425.4 449.8 427.2 452.7 440.5 457 448.3 444.2 457.2 447.4 473.6 438 555.9 431.1 566.9 434.9 567.6 423.6 567.7 427.8 567.7 415.4 567.7 420 567.7 426.9 567.7 437.2 567.7 452.7 567.7 447.3 605.3 450.3 612.9 454.9 613.4 461.6 638.1 441.6 641.7 435 643.2 438.7 646.8 444.1 648.7 428 665.3 420.2 668.1 424.5 699.4 431.1 700.4 411.7 702.9 402.2 727.1 407.5 755.2 391.9 758.9 397.7 765.3 406.3 781.3 380.7 792.8 387 794.4 368.3 799.7 354.6 851.4 339.6 866 348 868.7 360.5 869.4 379.3 878.6 323.6 898.7 305.5 900.7 315.5 913.6 285.8 920.5 296.8 921.8 264.1 924.8 276.2 924.8 240.3 924.8 214.1 926.5 228.7 926.6 185.5 926.6 153.8 932 119.1" opacity=".9"/><line x1="950" x2="972" y1="94" y2="94" stroke="#ea580c" stroke-width="3"/><text x="980" y="98" fill="#374151" font-size="12.5">vip 9 67184</text><line x1="950" x2="972" y1="116" y2="116" stroke="#475569" stroke-width="3"/><text x="980" y="120" fill="#374151" font-size="12.5">vip 8 66033</text><line x1="950" x2="972" y1="138" y2="138" stroke="#65a30d" stroke-width="3"/><text x="980" y="142" fill="#374151" font-size="12.5">vip 7 65252</text><line x1="950" x2="972" y1="160" y2="160" stroke="#db2777" stroke-width="3"/><text x="980" y="164" fill="#374151" font-size="12.5">vip 6 64063</text><line x1="950" x2="972" y1="182" y2="182" stroke="#0891b2" stroke-width="3"/><text x="980" y="186" fill="#374151" font-size="12.5">vip 5 63305</text><line x1="950" x2="972" y1="204" y2="204" stroke="#7c3aed" stroke-width="3"/><text x="980" y="208" fill="#374151" font-size="12.5">vip 4 62218</text><line x1="950" x2="972" y1="226" y2="226" stroke="#d97706" stroke-width="3"/><text x="980" y="230" fill="#374151" font-size="12.5">vip 3 56371</text><line x1="950" x2="972" y1="248" y2="248" stroke="#16a34a" stroke-width="3"/><text x="980" y="252" fill="#374151" font-size="12.5">vip 2 52581</text><line x1="950" x2="972" y1="270" y2="270" stroke="#2563eb" stroke-width="3"/><text x="980" y="274" fill="#374151" font-size="12.5">vip 0 48189</text><line x1="950" x2="972" y1="292" y2="292" stroke="#dc2626" stroke-width="3"/><text x="980" y="296" fill="#374151" font-size="12.5">vip 1 48189</text><text x="80" y="542" fill="#6b7280" font-size="12" text-anchor="start">2026-01-01</text><text x="932" y="542" fill="#6b7280" font-size="12" text-anchor="end">2026-01-31</text></svg>