<svg xmlns="http://www.w3.org/2000/svg" width="1000" height="520" font-family="ui-sans-serif, system-ui, sans-serif" viewBox="0 0 1000 520"><rect width="1000" height="520" fill="#fff"/><text x="78" y="28" fill="#111827" font-size="18" font-weight="700">Zone Recovery — LINKUSDT best setting (equity / PnL)</text><text x="78" y="48" fill="#6b7280" font-size="12.5">lev 4 · ratio 3 · gap 20% · maxSteps 4 · maxDD 20% · random · vip 9 · 11 series, 90.9% win · vol $88838060 ($2865747/day) · fees $13592</text><text x="78" y="68" fill="#1d4ed8" font-size="12.5" font-weight="600">USDT · BNB −10% · taker 0.0153%</text><text x="934" y="28" fill="#16a34a" font-size="18" font-weight="700" text-anchor="end">+1351976 USDT (+1.35%)</text><line x1="78" x2="934" y1="468" y2="468" stroke="#e5e7eb" stroke-width="1"/><text x="68" y="472" fill="#6b7280" font-size="12" text-anchor="end">0.00</text><line x1="78" x2="934" y1="392" y2="392" stroke="#e5e7eb" stroke-width="1"/><text x="68" y="396" fill="#6b7280" font-size="12" text-anchor="end">21909567</text><line x1="78" x2="934" y1="316" y2="316" stroke="#e5e7eb" stroke-width="1"/><text x="68" y="320" fill="#6b7280" font-size="12" text-anchor="end">43819133</text><line x1="78" x2="934" y1="240" y2="240" stroke="#e5e7eb" stroke-width="1"/><text x="68" y="244" fill="#6b7280" font-size="12" text-anchor="end">65728700</text><line x1="78" x2="934" y1="164" y2="164" stroke="#e5e7eb" stroke-width="1"/><text x="68" y="168" fill="#6b7280" font-size="12" text-anchor="end">87638266</text><line x1="78" x2="934" y1="88" y2="88" stroke="#e5e7eb" stroke-width="1"/><text x="68" y="92" fill="#6b7280" font-size="12" text-anchor="end">109547833</text><line x1="78" x2="934" y1="121.1" y2="121.1" stroke="#9ca3af" stroke-dasharray="6 4" stroke-width="1.5"/><text x="934" y="115.1" fill="#6b7280" font-size="11" text-anchor="end">start 100000000</text><polyline fill="none" stroke="#d97706" stroke-linejoin="round" stroke-width="1.2" points="78 165.4 78.5 167.7 78.8 170.4 79.2 168.7 79.6 167.1 80 163.2 80.5 161.5 80.9 161.3 81.5 163.3 82 164.3 82.5 167.7 82.8 166.7 83.3 165 83.8 167.4 84.2 165.6 84.9 165.5 85.6 167.1 86.1 168 86.7 164.7 87.4 163.7 87.8 161.3 87.9 156.2 88 153.3 88.1 149.5 88.1 149.1 88.2 147.7 88.2 148.8 88.3 148 88.5 147 88.7 148.1 88.9 148 89.2 145.9 89.4 144.8 89.7 147.7 90 146.5 90.5 146.9 90.9 145.5 91.4 148.6 91.8 146.2 92.2 145.6 92.6 146.8 93.1 146.7 93.6 146.2 93.9 145.2 94.2 145.2 94.3 145.2 94.7 142.9 94.9 142.1 95.1 143 95.5 143.9 96 141.3 96.3 142.6 96.7 141.2 97.1 141.9 97.5 142.6 97.9 142.5 98.5 143.1 99 141.9 99.4 139.5 100 139.2 100.5 138.2 101 139.6 101.6 141.1 102.3 142.7 102.9 144.5 103.4 141.5 104 143.1 104.7 141.8 105.1 140.2 105.6 139.2 105.8 137.3 106 138.3 106.3 139.2 106.6 140.7 107.1 140.5 107.7 136.9 107.9 135 108.2 137.3 108.7 135.1 109.1 135.1 109.5 136.2 110.1 135.9 110.6 137.2 111.2 136.4 111.8 135.3 112.1 134.9 112.7 136 113.2 134.2 113.6 134.6 114.1 135.4 114.7 138.8 115.2 139.1 115.9 138.9 116.5 139.4 117.2 140.8 117.8 140.8 118.3 140.9 118.9 140.3 119.4 143.2 119.8 141.9 120.2 140.8 120.5 140.1 120.8 141.6 121.1 143 121.3 143.7 121.5 143.6 121.8 143.7 122 144.6 122.4 144.3 122.6 147.3 122.7 148.2 122.9 149.6 123 150.9 123.2 147.1 123.4 145.9 123.6 145.4 123.9 143.7 124.1 141.3 124.3 138.5 124.5 140.3 124.8 141.8 125.1 141.2 125.4 138.8 125.8 138.6 126.1 135.2 126.4 134 126.7 132.8 127 131.5 127.3 130.6 127.6 130.4 127.8 127.9 128.1 129.8 128.4 130.6 128.7 131.2 129.2 133.8 129.7 134.1 130.2 132.7 131.1 134 131.6 135.7 132.1 136.5 132.7 135.6 133.3 136.4 133.7 136.2 134.3 137.3 134.8 138.3 135.3 138.3 135.7 137.9 136.3 136.4 136.7 135.2 137 134.5 137.5 135.8 138 137.2 138.6 139.3 139.2 138.9 139.8 140.8 140.3 140.4 141.1 141.9 141.4 143 141.9 144.2 142.4 142.9 142.8 145.7 143.2 143.7 143.7 143.5 144.2 142.3 144.8 143.7 145.4 143.4 146 143.8 146.5 144.6 147.1 145.1 147.7 143.5 148 146.1 148.3 146.4 148.8 143.2 148.9 144.2 149.2 144.8 149.4 146.7 149.6 148.1 149.8 147 150.1 145.4 150.4 142.2 150.7 145 150.9 140.5 151.1 139.7 151.4 138.5 151.6 136.9 151.7 133 151.8 134.3 152 133.7 152.1 133.5 152.3 131.7 152.4 130.2 152.5 130.4 152.6 134.5 152.8 137.3 152.8 145.3 152.8 141.9 152.9 144.5 152.9 142.9 153 140.2 153.1 139.9 153.2 140.5 153.4 142.2 153.6 140 153.8 143.7 153.9 143.5 154 143.9 154.3 141.7 154.6 140.4 154.9 139.9 155.3 139.1 155.7 136.3 156.1 137.7 156.5 139.9 157 139.2 157.6 138.1 158.3 138 158.8 137.8 159.7 137.6 160.7 139.4 161.2 138.3 161.7 141.7 162.2 143.5 162.7 144.4 163.2 144.4 163.7 145.6 164.3 145.1 164.8 146.3 165.6 145.4 166 147.4 166.7 146 167.2 146.1 167.8 145.7 168.4 146.5 169 146.5 169.5 148.2 170 149.3 170.4 151.6 170.7 151.7 171 153 171.4 152 171.9 152.6 172.4 153.7 172.9 152.6 173.3 155.5 173.7 154.1 174.1 154.3 174.7 153.9 174.9 153.4 175.4 152.4 175.9 149.9 176.2 150.4 176.6 149 177.1 149.1 177.7 148.9 178 152.2 178.3 152 178.6 154 178.8 154.7 179.1 153.2 179.5 153.7 179.9 152.1 180.4 151.3 180.9 152.2 181.5 152.8 182.2 152.2 183 151.8 183.8 151 184.8 150.5 185.8 149.3 186.9 149.2 188.3 150.6 189.2 149.3 189.9 149.6 190.8 148.6 191.3 146.8 191.4 142.8 191.6 145.2 191.9 142 192 138.6 192.2 142.4 192.5 141.3 192.9 143.1 193.5 142.1 194 140.7 194 137.5 194.1 138.3 194.3 139.3 194.7 139.7 195.1 139.9 195.7 139.2 196.3 137.2 196.7 135.4 197.1 135.4 197.6 134.4 197.7 132.4 198 133.1 198.3 133.8 198.9 134.2 199.3 132.6 199.4 134.4 199.6 135.5 199.7 135.6 199.9 135.5 200.1 139.1 200.3 137 200.6 137.9 201 137.1 201.4 140.2 201.8 138.6 202.3 135.8 202.7 134.8 203.1 139.6 203.7 139.9 204.2 139 204.8 137.8 205.3 140.2 205.6 140.6 206.2 140 206.8 141 207.3 139.4 207.8 142.7 208.1 138.3 208.6 140.9 208.9 145.2 209.3 145.3 209.6 145.9 210 144.5 210.5 147.7 210.8 146.5 211.2 149.3 211.3 151.3 211.5 152.4 211.8 150.9 212.2 150.8 212.6 150.5 213.1 149.6 213.7 149.9 214.1 151.8 214.7 150.4 215.3 149.5 216.1 151.9 216.4 147.3 216.6 151.9 216.8 152.2 217 154 217 155.1 217.1 158.2 217.2 159.4 217.3 157.8 217.6 155.4 217.8 152.5 218.1 153.7 218.5 154.1 218.9 155 219.3 153.7 219.5 153.6 220.1 152.7 220.7 153.5 221.3 151.7 221.8 155.4 222.4 154.4 223 152.7 223.5 152 223.7 147.8 224.1 150 224.5 149.7 224.9 152.5 225.3 150.7 225.9 150.7 226.3 149.2 226.6 147 227 147.6 227.4 147.9 227.8 148 228.3 149.2 228.8 149.4 229.3 147.1 229.6 147.8 230.1 146.8 230.4 145.3 230.9 143.8 231.3 143 231.6 141.5 231.8 140.9 231.8 140 232 141.2 232.1 137.8 232.2 136.7 232.4 137.1 232.5 135.5 232.7 137.4 232.8 133.6 233 135.2 233.3 139.6 233.5 137.2 233.8 133.1 233.9 131.4 234 131.7 234.2 132 234.5 132 234.7 133.8 235 133.9 235.4 131 235.6 129.4 235.8 128.5 235.9 128.1 236 123.8 236.1 123.8 236.3 124.3 236.5 123.1 236.6 121.9 236.8 123.3 237.1 120.6 237.3 120.8 237.6 122.7 237.9 120.9 238.2 122.1 238.4 119.7 238.8 121.3 239.1 120.2 239.3 117.6 239.5 118.7 239.7 118.8 240.1 120.2 240.4 121.2 240.7 122.6 241.3 123 241.8 118.1 242.2 120.4 242.8 120.3 243.2 120.7 243.8 120 244.2 121.9 244.6 120.1 244.9 116.8 245 114.9 245.2 120.8 245.5 119.7 245.8 117.4 246.1 117.3 246.5 118.6 247 120.2 247.5 120.9 248 121.4 248.5 124.2 248.9 122.5 249.2 118 249.4 118.6 249.7 117.9 250.1 119.7 250.4 120.6 250.8 122.2 251.1 125.6 251.3 126.2 251.5 129.2 251.7 129.2 252 129.3 252.3 129.9 252.5 132.2 252.9 132.8 253.1 136.3 253.2 136.5 253.4 137.2 253.6 136.6 253.9 135.7 254.1 135.7 254.4 135.8 254.7 136.3 255.1 135.8 255.4 135.3 255.7 137.2 255.9 133.4 256.2 134.7 256.7 134.3 257 132.5 257.3 133.4 257.7 133.6 257.9 134.6 258.2 133.8 258.5 132 258.7 129.6 258.9 129.9 259.2 129.2 259.3 129.6 259.4 134.1 259.5 138 259.5 136.5 259.6 137.6 259.7 135.7 259.8 137.9 259.9 140.8 260 141.9 260.1 141.7 260.2 141.9 260.3 142.9 260.4 143.8 260.5 144.7 260.7 143.6 260.8 145.9 261 146.2 261.1 150.3 261.1 150.3 261.1 152.3 261.2 149 261.3 147.1 261.4 149 261.6 150.5 261.7 153 261.8 153 261.9 152.8 262.1 151.5 262.3 152.9 262.5 151.8 262.6 152.9 262.8 149.5 263 147.8 263.3 149.8 263.5 149.8 263.9 150.7 264.3 152.3 264.6 152.1 264.9 152.7 265.3 153.8 265.7 152.3 266.1 153.7 266.4 154.5 266.8 151.8 267.2 149.9 267.7 148.5 268.2 147.8 268.7 150.5 269.3 149.8 269.8 149.3 270.5 152 270.9 154.2 271.3 154.7 271.6 153.4 271.9 154.3 272.2 150.6 272.6 151.3 273 149.7 273.5 149.3 274 148.7 274.5 150.9 275.1 153.4 275.3 156 275.5 155.7 275.9 155.9 276.2 155 276.5 153.1 277.1 152.6 277.7 154.6 278.2 154.6 278.6 153.8 279.2 154.9 279.6 156.3 279.9 154.3 280.3 154.2 280.7 153.3 281.2 150.3 281.4 150.1 281.8 150.8 282.4 151.5 282.9 150.4 283.4 151.8 283.9 149.2 284.3 148 284.8 150.6 285.3 149.6 285.9 149.4 286.3 148.3 286.7 150.8 287 151 287.2 151.1 287.4 145.9 287.5 144.6 287.7 146.1 287.9 147.9 288.2 150.3 288.5 152.8 288.9 149.2 289.2 148.9 289.6 151.2 290 148.6 290.5 149.6 290.9 144.9 291.1 143 291.3 141.8 291.5 139.5 291.7 141.3 292 139.9 292.2 140.6 292.4 140 292.7 142 293.1 141.7 293.2 140.8 293.6 141.3 294 140.7 294.5 141.1 295 141 295.5 141.1 296 139.4 296.6 140.1 297.1 137.5 297.7 138.2 298.2 138.5 298.8 138 299.2 138.5 299.6 139.6 300.1 140.8 300.4 142.8 300.8 145 301.2 141.7 301.5 144.7 301.9 147.8 302.1 149.6 302.3 151.2 302.6 147.4 303 146 303.5 145.8 304 143.5 304.6 142.8 305 143.1 305.4 142.8 305.8 143 306.3 145.8 306.9 147.3 307.4 148.5 307.8 151.5 308.2 152.8 308.4 154.7 308.6 156.2 308.7 157.2 308.9 158.4 309.1 158.7 309.4 157 309.7 157 310 156.6 310.4 157.4 310.9 157.4 311.3 155.4 311.8 157.5 312.2 156.7 312.6 156.4 313 155.5 313.4 155 313.6 151.7 313.9 152.7 314.2 154.2 314.5 157.1 314.7 158.3 314.9 158.1 315 160.7 315.2 159.6 315.4 158.6 315.6 162.5 315.7 164.5 315.8 163.1 316 162.3 316.2 159.3 316.5 159 316.8 161.4 317 163.2 317.3 161.5 317.7 160.9 318 161.7 318.2 160.9 318.5 164.2 318.6 161.1 318.9 158.9 319.3 156.9 319.6 155.3 319.9 155.1 320.2 154 320.5 155.8 321 156 321.5 156 322 155 322.5 156.9 323.1 156 323.7 156.3 324.4 154.2 324.9 152 325.2 148.9 325.6 151 326 150.8 326.5 151.1 327 149 327.4 147.8 327.8 148.6 328.4 148.9 328.9 148.5 329.3 148.1 329.8 149.6 330.3 149.3 330.5 142.8 330.7 139.9 330.8 139.2 331 141.9 331.2 140.9 331.5 140.3 331.9 144.4 332.3 143.7 332.7 142.2 333.1 141.8 333.4 138.5 333.8 139.3 334.1 142 334.5 144.1 334.8 142.9 335.2 144 335.6 143.3 335.9 142.8 336.3 141.2 336.7 141.3 336.9 139.8 337.3 138.8 337.5 135.6 337.8 136.8 338.1 139.3 338.5 139 338.9 140.2 339.3 138.7 339.8 141 340.4 141.7 340.8 140.6 341.3 139.3 341.7 139.5 342.1 136.9 342.2 134.9 342.4 137.7 342.6 137.2 342.9 136.4 343 139.2 343.3 139.2 343.7 140.1 343.8 144.3 343.8 146 343.8 148.7 343.9 149.2 343.9 147.3 344 146.3 344.1 146.2 344.2 150.7 344.2 154.1 344.2 156.5 344.3 156.1 344.3 158.2 344.4 161.9 344.4 167.4 344.4 163 344.4 166.2 344.5 164.5 344.5 161.9 344.5 163.7 344.6 161.4 344.7 161 344.8 163.1 344.9 164.8 345 166.7 345.1 164.4 345.2 162.9 345.3 165.3 345.5 162 345.6 161.6 345.8 163.3 345.9 166.2 346 167.5 346.2 168.1 346.3 166.6 346.5 163.4 346.8 166.1 347 169.2 347.1 168.5 347.3 169.5 347.5 170.3 347.7 169.7 348 172 348.2 173.4 348.4 172.4 348.6 174.5 348.7 175.6 348.8 178.3 348.9 179.1 349 182.3 349 180.7 349.1 181.8 349.2 180.4 349.3 177.4 349.4 182.3 349.6 182.4 349.8 180.5 350 179.8 350.2 180.2 350.4 180.2 350.5 182 350.5 184 350.5 187.5 350.6 190 350.6 189.3 350.6 188.4 350.6 196.4 350.6 193.9 350.6 192.7 350.6 195.3 350.7 197.3 350.7 209.7 350.7 202.2 350.7 202.8 350.7 201.5 350.7 200.3 350.7 199.4 350.8 199.8 350.8 201.1 350.8 200.7 350.9 202.1 350.9 204.5 350.9 206.4 350.9 211.8 350.9 221.8 350.9 235.8 350.9 226.6 350.9 224.6 351 245.9 351 236.6 351 233.4 351 237.3 351 254.1 351 255 351 267.7 351 268.6 351 286.1 351 295.3 351 275.5 351 296.1 351 304.8 351 312.8 351 326.9 351 344.2 351.1 365.7 351.1 385.9 351.1 407.4 351.1 426.9 351.1 439.2 351.1 420.1 351.1 402.5 351.1 391 351.1 382.7 351.1 375.8 351.2 362.1 351.2 368.9 351.2 366.4 351.2 358.5 351.2 353.1 351.2 348 351.2 344 351.3 338.5 351.3 332.5 351.3 335 351.3 328.8 351.3 321.8 351.4 320.3 351.4 317 351.4 311.3 351.4 317 351.4 317.4 351.5 303.7 351.5 296.8 351.5 282.3 351.5 266.1 351.6 271.3 351.6 261.8 351.6 268 351.6 277 351.6 264.3 351.6 266.4 351.7 262 351.7 250.1 351.7 252.4 351.7 262.4 351.7 255 351.7 251.9 351.8 251.6 351.8 246.1 351.8 254.7 351.8 251.1 351.8 255.4 351.8 255.7 351.8 261.7 351.8 265.5 351.9 266.7 351.9 265.1 351.9 265.1 351.9 270.8 351.9 273.6 351.9 280.1 351.9 278.5 351.9 286 351.9 292.1 351.9 288.9 352 280.8 352 281.7 352 281.3 352 277.4 352 277.6 352 273.1 352 268.8 352 270.2 352 271.3 352 270.3 352.1 271.9 352.1 267.8 352.1 268.4 352.1 270.3 352.1 269.3 352.1 270 352.1 269.7 352.1 268.9 352.1 269.7 352.1 264.9 352.2 266.8 352.2 269.9 352.2 271.5 352.2 274.2 352.2 271.5 352.2 273.9 352.3 274 352.3 273 352.3 275.9 352.3 277.1 352.3 277 352.3 279.7 352.3 281.8 352.4 284.3 352.4 280.4 352.4 277.9 352.4 277.3 352.4 278.8 352.4 277.4 352.5 280.2 352.5 278.9 352.5 278.5 352.5 278.8 352.5 280.4 352.6 279.2 352.6 276.7 352.6 277.1 352.6 276.1 352.6 276.9 352.7 271.2 352.7 272 352.7 270.9 352.7 268.5 352.7 268.4 352.7 268 352.8 265.4 352.8 267.9 352.8 266.9 352.8 266.2 352.8 264.8 352.9 267.2 352.9 266.9 352.9 266.8 352.9 266.1 352.9 264.5 353 262.7 353 262.1 353 258.8 353 260 353 260.6 353.1 261.7 353.1 263.6 353.1 266.5 353.1 261.5 353.1 261.2 353.2 262 353.2 260.2 353.2 264.6 353.2 264.7 353.2 260.4 353.3 260.9 353.3 259 353.3 256.2 353.3 253.1 353.4 251.5 353.4 248.6 353.4 246.3 353.4 246.3 353.4 244.1 353.5 245.4 353.5 243.6 353.5 242.2 353.5 241.4 353.5 240.7 353.6 240.9 353.6 239.8 353.6 238 353.6 242.6 353.6 241.2 353.7 238.8 353.7 238 353.7 239.9 353.8 238.1 353.8 237.4 353.8 236.8 353.8 237.5 353.9 240 353.9 240.9 353.9 243.5 354 247.5 354 249.7 354 249.4 354 247.8 354.1 250.7 354.1 251.2 354.1 251.5 354.2 249.2 354.2 252.2 354.2 248.4 354.2 246.9 354.3 245.3 354.3 242 354.4 244.9 354.4 247.5 354.5 251.9 354.5 254.8 354.5 257.9 354.5 257.9 354.6 253.2 354.6 251.9 354.6 252.3 354.7 250.9 354.7 246.6 354.7 249.6 354.8 248.3 354.9 245.4 354.9 247.2 355 244.4 355.1 240.8 355.1 238.5 355.2 240.6 355.2 239.8 355.3 240.7 355.3 241.6 355.4 244.5 355.5 245.3 355.5 246.6 355.6 247.9 355.7 250.4 355.7 252.1 355.8 253 355.9 252.3 355.9 250.1 356 250.8 356.1 252.3 356.1 255.9 356.2 255.2 356.2 253.4 356.3 256.3 356.4 254.3 356.4 254.2 356.5 250.1 356.5 249 356.6 245.8 356.7 246.4 356.8 244.1 356.9 241.6 356.9 237.9 357 236.8 357.1 236.3 357.2 234.3 357.3 233.9 357.3 234.1 357.4 234.5 357.5 233.3 357.6 236.4 357.7 241.2 357.8 243.3 357.8 243.8 357.9 245.1 358 247.1 358.1 246.5 358.2 247.2 358.3 247.1 358.3 249.1 358.4 249.4 358.5 248 358.6 247.1 358.7 245.9 358.8 245.5 358.9 246 359.1 244.2 359.2 243.2 359.3 245.2 359.4 244 359.5 247.3 359.6 244.3 359.7 247.2 359.8 241.9 359.9 240.3 360 241.7 360.1 242.3 360.2 243.7 360.3 244.7 360.4 247.9 360.5 249 360.6 246.6 360.8 246.9 360.9 243.1 361 244.5 361.2 244.3 361.3 241.6 361.4 240.8 361.6 240.1 361.7 238.6 361.9 240.5 362 241.8 362.2 244.1 362.4 243 362.5 240.5 362.7 239.8 362.8 240.4 363 243 363.1 239.4 363.2 241.4 363.4 241 363.5 239.1 363.6 237.7 363.7 233.5 363.8 230.7 363.9 231.8 364 230.3 364.2 229.4 364.3 228.6 364.5 228.3 364.6 226.4 364.7 226.2 364.9 229.7 365 227.8 365.2 229.6 365.4 231.3 365.6 233.5 365.8 232 366.1 232 366.3 232.8 366.5 234.9 366.7 232.3 366.9 234.5 367.1 238 367.3 236.3 367.6 237 367.9 234.6 368.1 234.4 368.2 233.2 368.5 232.6 368.7 237.6 368.9 240.8 369.1 240.4 369.3 241.7 369.5 241.1 369.7 241.2 369.7 245.8 369.9 243.7 370 241.3 370.2 240.4 370.4 241 370.6 243.1 370.9 243.1 371.2 241 371.4 240.3 371.6 238 371.8 237.8 372 236.3 372.3 236.3 372.6 235.3 372.8 232 373 234.6 373.2 236.3 373.4 239.3 373.7 238.1 374 235 374.3 235.2 374.6 237.4 374.9 235.4 375.3 237.6 375.7 238.2 376.1 242.7 376.3 243.7 376.4 248.3 376.5 247.4 376.6 248.4 376.8 249.5 377 251.3 377.1 252.6 377.2 250.2 377.3 252.2 377.5 252.9 377.6 253.5 377.7 255.5 377.8 258.3 377.9 258.9 378 258.8 378.1 257 378.2 259.5 378.4 261.3 378.5 262.5 378.6 262.6 378.6 258.2 378.7 257.9 378.8 253.4 378.9 256.1 379.2 253.9 379.5 252 379.7 252 379.9 253.5 380.1 251.4 380.3 252.4 380.6 251.8 380.8 252.7 381.1 251.9 381.4 251.5 381.8 252.8 382.1 252.9 382.4 253.8 382.6 255.5 382.8 259.1 383 256.9 383.2 255 383.5 258.5 383.7 259.3 383.9 258.3 384.1 260.7 384.3 260.5 384.5 258.8 384.7 257.5 385 259 385.2 261.6 385.3 256.7 385.4 255.9 385.6 254 385.8 253.9 386 252.7 386.3 254.5 386.6 251.4 386.8 248.6 387.1 250.9 387.4 251.2 387.7 249.8 388.1 247.7 388.3 248.4 388.7 249.5 389.1 247.7 389.4 247.7 389.9 246.9 390.3 246.1 390.7 247.4 391.2 247.2 391.7 247.2 392.1 248.5 392.4 251.1 392.8 250.7 393.2 246.5 393.4 247.5 393.8 248.6 394.4 248.5 394.8 248.8 395.3 246.7 395.8 245.4 396.1 243.7 396.4 243.9 396.8 246.2 397.1 247.2 397.4 248.8 397.6 250 397.9 249.2 398.2 247 398.5 247 398.7 245.9 398.8 242.8 398.8 238.6 398.8 238 398.8 238.4 398.8 234.3 398.9 233.5 398.9 234 398.9 231.1 398.9 232.4 399 235.2 399 235.8 399 232.7 399.1 230.3 399.1 228.9 399.2 225.5 399.2 227.5 399.2 227.2 399.3 225.9 399.3 222.3 399.4 221.1 399.4 223.9 399.5 221.9 399.6 223.8 399.6 225.4 399.7 227.5 399.8 225.9 399.9 222.9 400 219.6 400.2 218 400.2 215.1 400.3 213.1 400.3 213.2 400.4 215 400.4 214.7 400.5 215.7 400.6 214.9 400.8 214.5 400.9 215.4 401 213.3 401 209 401 207.3 401.1 212.1 401.1 210.4 401.1 211.8 401.3 211 401.4 211.5 401.5 208.5 401.6 208 401.8 208.5 401.9 209.6 402.1 210.5 402.3 212.6 402.4 214.1 402.6 211.9 402.9 210.9 403.1 214 403.3 216.5 403.6 212.6 403.9 208.2 404.2 208.2 404.5 208.4 404.8 206.3 405 209.5 405.3 209.5 405.5 208.7 405.7 207.8 405.8 210 406 210.7 406.2 209.2 406.4 214.2 406.5 214.9 406.7 215.1 407.1 210.8 407.2 213.6 407.5 212.5 407.7 213.1 407.9 213.4 408.1 213.5 408.4 214.9 408.6 216 408.9 214 409.2 215 409.5 215.2 409.7 212.6 409.8 213.8 410 216.5 410.1 217.3 410.4 216.1 410.5 217.8 410.7 217.8 410.9 217.3 411.1 216 411.3 214.2 411.6 211 411.8 211.9 412.1 213.9 412.4 213.3 412.8 211.8 413 210.1 413.3 210.1 413.5 212.2 413.9 214.1 414.2 212.5 414.5 214.9 414.8 212.6 415 210.1 415.2 210.6 415.5 210.3 415.8 207.8 416 210 416.3 210.4 416.5 208.8 416.7 208.5 416.9 203.7 417.1 206 417.3 205.4 417.6 203.9 417.8 202.2 417.9 201 418.2 200.5 418.3 205.4 418.6 203.3 418.8 200.6 419 202 419.3 200.7 419.6 201.4 419.9 201.9 420.2 204.1 420.5 202.2 420.9 201.2 421.2 203.1 421.5 201.8 421.8 200.1 422 198.8 422.1 200.3 422.1 202.4 422.2 202 422.3 201.7 422.5 206.6 422.5 208.9 422.6 212.1 422.6 211.1 422.7 208.3 422.9 206.6 423.1 207.7 423.2 211.1 423.4 206 423.5 207.3 423.8 206.6 423.8 203.4 424.1 204.4 424.3 207.8 424.4 208.2 424.6 209.4 424.8 209.1 424.9 201.6 424.9 200.1 424.9 199.2 425 199.4 425 205.3 425 202.9 425.1 203.1 425.1 204.5 425.2 201.7 425.2 203.3 425.3 202.1 425.4 199.9 425.5 197.8 425.5 199.1 425.6 199.1 425.7 198 425.9 199.2 425.9 199.6 426 202.1 426.1 203.2 426.2 198.8 426.3 200.5 426.4 203.2 426.5 204.3 426.7 202.8 426.8 199.7 427 196.6 427.1 198.6 427.3 198.1 427.4 199.9 427.6 197.6 427.8 197.8 428 196.3 428.1 198.9 428.2 200.7 428.3 200.4 428.6 202.9 428.8 202.3 429 199.2 429.1 202.7 429.4 199.8 429.6 199.7 429.9 201.6 430.1 196.3 430.1 197.5 430.3 199.4 430.6 195.8 430.8 197.5 431.1 197 431.4 196.5 431.6 193.8 431.8 194.8 432.1 191.6 432.3 191.8 432.5 193.5 432.8 193.6 433.3 191 433.5 189.5 433.9 189.2 434.5 192.4 435 191.3 435.6 191.6 436.1 191.9 436.6 195.2 437.1 194.6 437.4 193.6 437.7 193.3 438 194.2 438.4 196 438.8 194.7 439.3 197.9 439.6 199.9 439.9 199.7 440.3 201.9 440.5 204.3 440.7 205.3 441 207 441.4 203.7 441.7 203.7 441.9 204.3 442.3 206.3 442.5 209.1 442.6 210.9 442.8 207.4 443 207.2 443.4 210.2 443.5 213 443.6 214.9 443.7 213.4 444 211.5 444.3 214.3 444.5 215.9 444.5 220.1 444.6 219.3 444.7 221 444.8 224.1 444.8 227.4 444.8 223.8 444.9 222.7 445 219.8 445.1 221.1 445.2 223.2 445.4 219.9 445.6 220.7 445.8 224.3 445.8 224.8 445.9 223.5 446.1 223.8 446.2 225.5 446.4 224.9 446.6 225.9 446.8 221.5 447 220.3 447.2 221.1 447.6 222.1 447.9 220.8 448.2 222.3 448.4 223.8 448.7 226.7 448.8 230.2 448.9 227.7 449.1 229.8 449.1 233.3 449.2 228.2 449.4 230.1 449.6 227.4 449.8 224.2 450 224 450.2 221.8 450.4 221.4 450.8 222.7 451 223.9 451.2 227.1 451.4 220 451.4 225.1 451.5 226.8 451.7 227.6 452 226.3 452.3 228.1 452.5 226.2 452.6 225.1 452.6 230.4 452.7 229.2 452.8 230.6 452.8 226.6 452.9 226.2 453.1 225.6 453.3 226.1 453.4 221.5 453.4 220.7 453.5 221.3 453.7 225.3 453.9 221.4 454 220.3 454.2 222.9 454.5 225.5 454.7 221.8 454.9 221.3 455 219.7 455.1 217.8 455.3 213.1 455.4 213.9 455.5 215.6 455.7 213 455.8 209.7 455.8 207.4 455.8 211.2 455.9 211.4 456 211.9 456.2 214.2 456.4 210.5 456.5 214 456.6 218.3 456.6 213.5 456.7 211.3 456.9 211.1 457 212.2 457.2 214.1 457.4 212.5 457.7 213.7 457.9 210.6 458.2 212.9 458.5 215.1 458.8 213.8 459.2 212.3 459.5 216 459.6 217.9 459.6 217.9 459.7 220.3 459.8 217.3 459.9 216.5 460.1 215.7 460.4 215.3 460.9 214.5 461.4 216.8 462 214.9 462.6 211.5 463.2 214.2 463.9 211.2 464.6 211.7 465 213.6 465.4 213.4 465.8 214.7 466.3 215 466.7 213.3 467.2 210.1 467.5 210.2 468.1 212.5 468.5 214.6 469 216.1 469.5 215.4 470.1 212.4 470.6 211.9 471.1 213.9 471.7 215.7 472.1 217.4 472.4 214.3 472.9 212.1 473.3 216.6 473.8 217 474.1 216.7 474.3 217.6 474.4 212.7 474.4 209.4 474.6 212.4 474.8 214.5 475.1 214.5 475.5 217.1 475.8 215.7 476.3 216.6 476.8 218.4 477.2 218.7 477.6 221.6 477.9 220.2 478.4 220.9 478.8 221.7 479.1 223.3 479.4 221.1 479.7 223.7 480.1 223.7 480.2 221.4 480.4 224.2 480.5 229 480.5 228 480.6 224.3 480.8 222.7 480.9 220.5 481.2 222.7 481.5 225.3 481.7 226.7 481.8 228.5 481.9 228.4 482.1 228.3 482.3 229.5 482.5 230.2 482.6 231.4 482.8 233.1 482.9 232.5 483.1 233.9 483.3 234 483.6 231.1 483.9 231.5 484.2 233.8 484.4 236.3 484.5 235.7 484.7 237.1 485 235.1 485.3 232.7 485.7 233.4 486 232.4 486.5 231.6 487 230.9 487.4 234.4 487.7 234 488.2 236.3 488.3 239.2 488.4 235.2 488.7 236.1 489 239.7 489.3 234.8 489.8 236.7 490.3 235.2 490.9 235.7 491.4 235.1 491.9 233.1 492.4 234.6 492.8 234.6 493.2 234.7 493.7 234 494.2 234.3 494.7 231.3 495.2 233.2 495.8 232.5 496.4 233.1 497.1 232.1 497.8 233.7 498.3 234 498.8 233.3 499.2 233.9 499.8 231.9 500.3 231.1 500.9 235.3 501.4 234 502.1 236.5 502.7 234.6 503.2 237.2 503.2 241.4 503.3 243.5 503.3 240.7 503.4 233.9 503.5 233.2 503.5 231.3 503.7 231.2 503.9 230.5 504 226.5 504.3 226.7 504.7 225.9 505 225.2 505.3 227.1 505.7 226.9 506 224 506.2 224.6 506.6 225.7 506.9 224.9 507.4 226.6 507.7 227.1 507.9 226.2 508.1 227.2 508.2 230.8 508.4 229.5 508.6 232.5 508.6 233.9 508.8 233.7 508.9 233.2 509.1 228.3 509.2 227.8 509.3 230 509.5 233.4 509.7 232.2 509.9 233.8 510.1 234.8 510.2 237.8 510.3 239.2 510.4 240.5 510.5 240.8 510.6 242.8 510.7 245.4 510.7 243.4 510.8 241.3 510.9 241.7 511 244.3 511.1 244.7 511.2 245.2 511.4 243.1 511.5 241.7 511.6 237.8 511.8 235.2 511.9 235.8 512 238.5 512.2 237.7 512.4 238.2 512.7 240.6 513 242.4 513.2 244.7 513.4 244 513.6 242.6 513.8 240.9 514 241.6 514.2 243.4 514.5 247.5 514.6 247 514.8 247 514.9 248.7 515 247.5 515.2 247.9 515.4 248.1 515.7 249.5 515.8 252.2 515.9 252.1 516.1 250.7 516.4 251.8 516.7 249.5 517.2 249.4 517.8 249.2 518.3 248.6 518.8 249.5 519.3 247.5 519.9 247.5 520.3 246.2 520.7 247 521.1 242.8 521.3 243 521.7 245.6 522.3 246.2 522.8 247.4 523.3 244.7 524 245.8 524.7 246.1 525.3 246.3 525.9 248.3 526.4 249.5 526.8 249.2 527.2 252.3 527.3 254.5 527.4 256.9 527.5 256.4 527.6 256.3 527.7 260.7 527.7 259.3 527.8 260.7 527.9 261.7 528 264.8 528 265 528.1 264.7 528.1 265.6 528.2 264.2 528.4 263.5 528.5 267.4 528.5 268 528.6 268.5 528.7 269.6 528.9 268.6 529 272.8 529.1 272.6 529.1 274 529.3 273.8 529.3 277.1 529.4 276.1 529.4 280.8 529.4 279.3 529.5 279 529.6 276.7 529.7 274.4 529.8 278 530 280.3 530.2 279.7 530.3 277.8 530.4 278.2 530.6 279.1 530.8 275.2 530.9 271.6 531.1 274.7 531.3 277.5 531.5 277.9 531.7 279.3 531.8 282.5 531.9 279.4 532 278.2 532.2 277.2 532.4 275 532.5 273.9 532.7 274.4 532.7 269.8 532.8 269.2 532.8 266.7 532.9 265.9 533.1 267.2 533.2 267.9 533.4 265.9 533.7 265.1 533.9 266.3 534.1 265.3 534.3 264.2 534.6 264.8 534.9 266.1 535.2 266.3 535.4 266.1 535.5 263.9 535.6 265.7 535.7 268.6 535.7 267 535.9 264.1 536 266.3 536.2 267.4 536.4 269.1 536.6 272.2 536.7 272.7 536.8 268.3 536.9 268 537.1 268.8 537.3 270.2 537.5 270.3 537.7 270.1 537.9 268.5 538.1 265.6 538.3 260.6 538.4 260.4 538.5 261.8 538.7 260.1 538.9 264.8 539.1 265.4 539.4 266.8 539.7 267.5 540.1 268.1 540.4 267.6 540.7 267.2 541 266 541.3 266.2 541.8 268.5 542.2 269.7 542.6 270.6 543 269.5 543.5 265.6 544.1 264.8 544.2 263.1 544.7 264 545.2 261.2 545.8 263.7 546.5 264.6 547.2 264.3 547.8 262.9 548.5 262.9 549.1 258.8 549.8 259 550.3 260.8 551 262.8 551.9 260.1 552.6 262.9 553.4 263.4 554.3 262.2 555 263.1 555.6 258.8 555.7 257.1 555.9 261 556.4 261.1 556.7 261.4 557.3 260.4 557.9 260.3 558.5 259.3 559.1 259.7 559.7 259 560.3 258.5 561 258.9 561.6 257.1 562.2 259.5 562.8 262.6 563.3 262.6 563.8 263.4 564.4 259.8 565.1 260.1 565.8 260.6 566.5 263.5 567 262.6 567.7 259.7 568.4 259.6 569.5 259.3 570.5 259.3 571.2 257.8 571.9 260.5 572.8 258.8 574 259.6 575.2 260.7 575.9 262.8 576.7 261.5 577.8 261.6 578.8 262.2 579.4 258.8 580.2 260.5 581.1 258.7 582 261 582.2 260.7 583.1 262.1 584.1 261.1 584.6 255.8 584.7 258.8 584.8 259.5 585.1 262.8 585.2 262.8 585.5 265 585.9 265.5 586.2 260.2 586.3 257.5 586.4 255.8 586.5 258.8 586.8 258.5 587 255.3 587.1 253.2 587.3 253.9 587.7 252.8 587.9 250.9 588.1 251.8 588.5 252.7 588.9 252.2 589.3 254 589.9 253.9 590.4 253.8 590.7 250.5 591 249.2 591.2 248.6 591.4 248 591.6 245.5 591.8 246.7 592.3 245.6 592.6 247 593.1 247.9 593.7 248 594.3 246.7 594.7 245.3 594.9 243.3 595.2 245.6 595.8 246.5 596.4 245.7 597.1 246.3 598 246.5 599 246.1 599.7 248.1 600.5 246.8 601.3 246.1 602.2 249.6 602.8 251.6 603.1 255.1 603.2 256.5 603.4 253.7 603.8 252 604.3 252.2 605 254.4 605.5 253.3 605.9 250.9 606.6 251.8 607.1 246.2 607.1 242.1 607.3 242.8 607.5 242.1 607.8 241.4 608.3 241.4 608.6 240.2 609 239.2 609.4 238.7 609.7 238.1 609.9 234.8 609.9 229.8 610 229 610 228.2 610.1 226 610.2 225.4 610.2 222.7 610.2 222.4 610.3 220.7 610.3 218.8 610.4 216.4 610.5 219.1 610.6 218.7 610.7 221.7 610.8 220.5 610.9 217.6 611.1 217 611.2 216.1 611.4 219.1 611.6 218.8 611.8 222.2 612 221.2 612.1 219.6 612.3 222.8 612.5 217.7 612.7 219.3 613 219.3 613.3 218.5 613.5 218.2 613.7 217.8 613.9 216 614.2 216.2 614.4 217 614.7 217.5 614.9 214.6 615 219.2 615.3 217.6 615.5 218.3 615.7 216.9 616 217.1 616.2 215.4 616.4 214.5 616.5 214.5 616.7 213.3 616.8 212.7 617 212.2 617.2 210.3 617.3 214.7 617.5 213.2 617.8 214.1 618.1 216.4 618.3 213.6 618.4 213.6 618.6 214.2 618.8 214.4 619 213.1 619.3 215.1 619.5 213.9 619.8 213.3 620.1 211.8 620.3 215.6 620.7 214.9 620.9 216.1 621 218.1 621.1 223.1 621.1 223.3 621.2 221 621.3 219.4 621.4 220.3 621.6 221.3 621.7 223.2 621.9 222 622 223.7 622.1 223 622.3 220 622.5 219.9 622.7 219.8 623 222.9 623.2 219.8 623.6 219.6 624 218.9 624.3 217.9 624.7 217.4 625.2 217.7 625.5 217.1 625.9 216.4 626.4 217.2 627 216.1 627.5 217.9 628 220.5 628.6 219.1 629.4 220.8 630 221.1 630.5 219.7 630.9 216.7 631.1 215.9 631.5 217.8 631.8 217.9 632.3 217.4 632.5 220.2 632.8 223.3 633.1 224.8 633.3 223.1 633.7 226.8 633.9 227.5 634.3 228.7 634.6 230.3 634.9 232.5 634.9 233.9 635 235.3 635.1 236.1 635.2 236.3 635.5 236.9 635.7 238.2 635.9 238.8 636.1 240.7 636.3 240.4 636.5 240.9 636.8 240.2 637.1 240.5 637.5 241.3 637.7 240 638 238.9 638.4 238.1 638.7 238.2 639 236.4 639.3 234.3 639.7 235.3 640.1 236 640.3 239 640.6 235 641.1 235.5 641.6 237.1 642.1 237.1 642.5 236.1 642.8 234 643.2 236.5 643.6 234.6 644 233.6 644.5 232.1 644.6 231.6 644.9 229.3 645 230.3 645.3 230.4 645.5 232 645.7 234.1 645.9 235.6 646.1 236.6 646.2 237.5 646.4 236.8 646.5 232.8 646.6 230.7 646.7 228.3 646.9 228.8 647 230.5 647.2 229.3 647.3 226.3 647.4 222 647.5 221.1 647.5 221.1 647.6 223.4 647.7 219.5 647.7 219.4 647.8 218.5 647.9 217.9 648 215.3 648.1 215.4 648.2 218.6 648.4 217.7 648.5 218.4 648.7 216.6 648.8 220.7 649 218.1 649.3 218.3 649.5 220.2 649.7 221.2 649.8 226.5 649.8 225.4 649.8 226.5 649.9 227 650 227.4 650.2 229.3 650.2 232.4 650.3 231.9 650.4 229.2 650.6 227.7 650.8 227.4 651.2 229 651.4 232 651.7 232.9 652.1 229.4 652.6 231.8 653 231.4 653.4 232.5 653.6 236.5 653.8 235.1 654.2 234.7 654.6 234.4 654.8 239.7 654.9 237.9 655.2 235.8 655.7 236.9 656.1 238.8 656.2 239.2 656.3 240.9 656.6 239 656.9 238.8 657.2 240.2 657.4 243.4 657.6 243.7 657.9 243.8 658.1 242 658.4 244.3 658.5 246.4 658.7 245.5 659 245.1 659.3 241.7 659.6 243.5 660.1 242.5 660.4 241.2 660.9 242.5 661.5 244 661.9 243 662.5 242.7 662.9 241.3 663.3 239 663.8 239.9 664.1 245.6 664.4 244.7 664.8 244.1 665.4 244.3 665.9 245.5 666.3 244.3 666.7 243.1 667.3 244.6 667.9 244.6 668.5 246.5 668.9 246.2 669.4 247.8 669.8 247 670.4 246.6 670.6 251.3 670.7 248.9 670.8 245.4 670.9 245.2 671.2 246.9 671.6 247.5 672 246.8 672.3 245.6 672.7 246 673.2 245.7 673.5 249.1 673.6 248.2 673.9 246.9 674 245.9 674.3 248.5 674.4 252.1 674.5 250.8 674.6 250.2 674.8 249.3 674.9 250 675.1 246 675.2 245.2 675.4 247.4 675.6 248.1 675.8 248.1 675.9 245 676.2 245 676.4 245.9 676.7 248.3 676.9 248.1 677 248.4 677.2 247.4 677.5 248.5 677.8 249.4 678.2 250.2 678.5 251.9 678.9 252.7 679.2 251.7 679.6 252.1 679.9 248.3 680.4 249.5 680.8 254 681 251.5 681.4 252.7 681.8 251.9 682.1 256.5 682.1 255.3 682.3 259 682.3 257.9 682.3 256.7 682.5 256.3 682.7 258 683.2 256.4 683.5 256.2 683.8 257.1 684.2 256.3 684.6 254.1 684.9 252.8 685.4 251.8 685.9 250.7 686.6 251.4 687.1 251.8 688 249.9 688.9 250.9 689.7 249.9 690.5 249.4 691.3 249.7 692.3 248.1 692.7 244.4 692.9 243.2 693.3 242.4 693.6 243 694.1 244.1 694.8 242.9 695.3 242.3 695.9 243.4 696.5 245.4 696.9 248.3 697.4 246.9 697.9 248.1 698.6 247.4 699.1 249.8 699.4 251.4 699.9 250.6 700.5 250.9 701 251.1 701.2 249.3 701.4 249.9 701.7 252.3 701.9 252.7 702.2 250.6 702.5 249.6 702.9 248.5 703.1 248.1 703.4 246.6 703.6 248 704 247.6 704.6 247.5 705 242.9 705.2 246 705.6 244.6 705.8 240.5 706.1 241 706.5 243.8 707 244.8 707.5 248.1 708.2 246.5 708.7 248.4 709.6 249.1 709.9 249.6 710.9 249.7 711.6 248.1 712.6 248.4 713.4 247.3 713.9 246.9 714.4 247.2 715.2 247.4 716.1 247.7 716.9 247.8 718 248.1 718.3 243.2 718.5 243.6 718.8 241 719.3 242.4 719.8 241.1 720.4 242.5 720.9 242.2 721.5 242.2 722 244.1 722.5 242.4 723 240.6 723.4 240.8 724 240.4 724.6 242.2 725.4 242.6 726.2 242.7 726.7 241.6 727.2 240.3 727.5 234.7 727.5 234.3 727.5 235.8 727.6 236.5 727.7 237 727.9 237.4 728.3 237 728.7 237 728.9 238.9 729 242.4 729.2 239.8 729.5 241.8 729.7 245.1 729.9 243.8 730.2 244.1 730.5 245.1 730.8 242.1 731.3 245.4 731.7 245.4 732.3 244.9 732.9 242.4 733.4 241.2 734.1 241.8 735 241.7 735.6 239.4 736.1 238.7 736.6 237.3 737.2 238 737.8 237.2 738.5 236.9 739.2 235.5 739.9 237 740.8 237.9 741.6 238.4 742.4 237 743.1 236.7 744.2 238.1 745.3 239.2 746.1 236.3 747 237.2 747.8 235.7 748.7 238.1 749.4 235.7 750.2 237.4 751.1 234.9 751.7 236.1 752.4 237.2 753.1 236.8 754 235.3 754.8 233.8 755.4 233.6 756 235.8 756.9 235 757.6 234.4 758.2 235.7 759 235.2 759.8 235 760.8 234.8 762 233.4 762.6 232.8 763.7 231.1 764.4 233 765.3 233.9 766.3 235 767.4 234.2 768.6 235.8 769.4 236 770.2 236.5 770.8 239.5 771.6 240.3 772.5 240.5 773.5 239.5 774.8 238.8 776.1 239.7 777.2 238.2 778.1 237.3 778.9 236.3 779.2 231.7 779.4 232.4 779.7 233.3 780.2 234.2 780.8 233.8 781.4 233.3 781.7 230.7 781.9 229 782.1 228.3 782.4 228.2 782.6 229.7 783 228.2 783.3 227.7 783.6 228.7 784 226.8 784.2 226.6 784.7 226.2 785.2 227.6 785.8 229.3 786.7 227.8 787.3 230.4 788 231.6 788.9 232.9 789.5 231.9 790.5 231.9 791.2 231.6 792 232.5 792.8 231.7 793.6 230.3 793.7 222.5 793.7 223.7 793.8 224.5 793.9 225 794.2 225.2 794.6 222.2 794.9 222.2 795.2 221.2 795.6 222.7 796 223.5 796.3 222 796.7 220.9 797 220.3 797.4 219.2 797.8 217.6 798.2 215.9 798.6 215.1 798.8 218 799.2 213.9 799.6 215.2 799.9 214.2 800.3 214.1 800.8 216.8 801.3 216.2 801.9 213.8 802.3 214.5 802.8 215.1 803.3 215.6 803.8 213.7 804.1 214.1 804.5 215.8 804.8 219.8 805 218.3 805.4 217.4 805.6 219.8 805.7 221.2 806.1 220.8 806.4 222 806.5 222.3 806.8 223.6 807.2 223.1 807.5 225.1 807.8 222.4 808.3 223.9 808.8 223.8 809 226.4 809.4 224.4 809.9 225.3 810.4 226.8 810.7 227.5 811.2 226.5 811.6 228 811.7 230.8 811.9 228 812.1 228.9 812.4 229.1 812.7 228.8 813 228.8 813.4 227.6 813.7 227 814 226.8 814.4 226.3 814.7 223.5 815 222.4 815.3 221.3 815.6 220.4 815.9 219 816.2 218.6 816.7 219.4 816.9 217.5 817.3 219.9 817.8 220.8 818.3 220.1 818.6 223.4 819 226 819.2 227.2 819.6 228.7 820.1 229 820.6 230.3 821 226.2 821.6 227.9 822.1 230.3 822.4 231.9 822.8 231.6 823.3 230.2 823.9 230.5 824.3 231.1 824.8 228.9 825.5 228.2 826.1 229.1 826.6 229.7 827 231.2 827.4 231.1 828 231 828.5 229.6 829.1 229.7 829.9 230.4 830.2 233.3 830.6 234.1 831.1 231.8 831.5 226.7 831.7 226.1 832.1 227.4 832.6 228.1 833.2 227.6 833.6 223.7 834 225 834.5 227.9 835.1 224.9 835.6 223.8 836.2 225.7 836.7 225.3 837.2 226.3 837.8 228.2 838.3 223.7 838.6 222.8 838.8 220.9 839 218.5 839.2 219.7 839.4 218.9 839.6 219.7 839.8 221.1 840.1 219.5 840.3 223.5 840.4 226.1 840.5 228.3 840.5 230.5 840.6 227 840.8 226.2 841.1 224.2 841.3 226.1 841.5 228.6 841.8 227.3 842.2 226.6 842.5 226.3 842.7 223.8 843 221.3 843.3 223.9 843.7 223.1 844.1 223.1 844.7 223.5 845 227 845.5 227.9 845.8 232.6 846 233.8 846.2 232.7 846.4 236.9 846.5 236.5 846.7 237 846.7 239 846.8 240.4 846.9 242.6 847 241.9 847 241.8 847.1 242.9 847.3 242.1 847.4 240.2 847.6 241.8 847.8 242 847.9 244.4 848 242.9 848.3 241.3 848.9 240.4 849.2 240.6 849.6 238.5 850.2 238.2 851 237.8 851.5 236.9 852.1 239.2 852.6 238.9 853.1 235 853.6 237.8 854.4 238.5 855.1 239.6 856 238.4 856.7 239 857.4 237.4 858 238.2 859 237.7 859.8 235.5 860.5 237.7 861.2 239.4 861.9 239 862.7 237.9 863.3 235.4 863.7 237 864.1 234.4 864.5 232.9 865 232.7 865.5 233.1 866 233.4 866.4 231.4 866.7 228.8 866.9 231.3 867 231.7 867.2 232.2 867.4 232.9 867.6 234.2 867.8 233.7 868.1 230.8 868.4 230.7 868.6 230.5 868.9 231.3 869.1 234.4 869.3 235.6 869.4 234.5 869.6 236.5 869.8 236.2 870 232.1 870.3 231.6 870.6 230.9 871 232.4 871.4 232.6 871.5 228.2 871.7 227 871.9 228.2 871.9 228 872 227.4 872 228.6 872.2 229.5 872.4 227.8 872.6 227.1 872.6 236.7 872.6 233.6 872.6 233.4 872.6 236.7 872.6 240.3 872.6 240.9 872.7 240.6 872.7 243.1 872.7 240.4 872.7 238.1 872.8 235.8 872.8 237 872.8 233.8 872.9 231.7 872.9 229.5 873 231.1 873.1 232 873.2 228.8 873.3 225.1 873.4 227.6 873.5 225.8 873.6 227.6 873.7 231.3 873.9 231.9 874.1 228.7 874.2 228.1 874.3 230.8 874.5 230 874.7 227.9 874.9 226.7 875.3 225.4 875.6 226.6 876 222.8 876.2 223.5 876.7 223.9 877.1 226.6 877.6 227.5 878 229.3 878.4 233 878.6 233.9 878.9 232.9 879.2 231.1 879.5 232.9 879.9 229.2 880.2 231.6 880.6 232.9 881 232.4 881.4 230.6 881.8 229.5 882.2 230.2 882.6 230.1 883.1 231.9 883.5 234.6 883.7 238.4 883.8 238.2 883.9 241.3 883.9 245.8 884 243.7 884.1 241.8 884.1 237.6 884.2 237.3 884.3 240 884.5 242.8 884.7 242.4 884.9 243.3 885.2 240.4 885.4 235.7 885.5 233.7 885.7 231.8 885.9 233 886.1 235.7 886.4 232.8 886.6 231.2 887 230.4 887.2 227 887.4 227.4 887.7 227.2 888.1 228.2 888.3 229 888.7 228.3 889.1 231.4 889.5 234.3 889.8 232.6 890.1 234.9 890.4 235.4 890.7 236.2 891.1 237.8 891.3 238.1 891.6 241.8 891.8 241.9 892.1 239.4 892.5 240.8 892.7 242.6 892.9 243.4 893.1 244.7 893.1 248.4 893.2 244.6 893.4 247.9 893.4 247.9 893.5 248.4 893.7 247.6 893.8 247.7 894.1 248.6 894.3 248.4 894.4 250 894.5 252.3 894.5 251.5 894.6 250.3 894.8 249.3 894.9 253.1 895.1 251.4 895.2 253.5 895.4 254.2 895.5 256.1 895.6 253.9 895.8 254.1 896 253.9 896.2 255.4 896.4 256.3 896.6 256.6 896.8 258.3 896.9 258.7 897.1 257.9 897.3 258.5 897.5 256.2 897.7 257.9 897.9 257.3 898.2 257.6 898.4 260.2 898.6 260.3 898.8 262.2 898.9 263.3 899 265.4 899.2 262 899.4 261.7 899.8 262.4 900.1 262.7 900.4 263.7 900.7 266.8 900.9 265.2 901.2 266.1 901.4 268.6 901.5 269.1 901.7 267.9 901.8 268.7 902 267.2 902.2 266 902.4 267.9 902.5 264.7 902.8 263.2 903.1 263.1 903.4 263.4 903.9 261.8 904.4 262.2 904.9 262.8 905.4 262.1 905.9 261.5 906.3 260.4 906.6 259.8 907 259.2 907.4 258.5 907.6 261.3 907.8 257.6 908.1 256 908.4 256.8 908.8 256.2 909.1 257 909.4 256.6 909.7 258 910.1 256.3 910.5 258.6 910.9 257.3 911.2 253.5 911.4 252.9 911.8 253.8 912.1 251.4 912.5 251.4 912.9 251.2 913.3 252.1 913.7 251.9 914.2 251.9 914.6 251.5 915.1 251 915.6 251.4 916 252.1 916.4 251.9 916.8 251.3 917.4 252.5 917.9 250.4 918.4 250.2 918.9 251.2 919.5 252.2 920.1 249.6 920.3 250.7 920.7 250.3 921.1 251.5 921.7 251 922 253.2 922.3 252.2 922.6 252.1 922.8 252 923.1 250.7 923.4 250 923.6 247.9 923.8 246.8 924.1 249.5 924.5 249.6 924.7 249.7 925.2 252.5 925.6 252.4 925.8 257.6 925.9 258.4 926.1 258 926.3 260 926.6 258.1 926.9 257.6 927.2 256.3 927.7 257.2 927.9 254.8 928.2 255.7 928.7 255.1 929 252.8 929.2 249.9 929.5 250.9 929.9 249.5 930.4 252.4 931 252.2 931.7 250.7 932.2 249.8 932.8 250 933.4 250.3 934 251" opacity=".6"/><text x="942" y="472" fill="#d97706" font-size="11" text-anchor="start">6.92</text><text x="942" y="396" fill="#d97706" font-size="11" text-anchor="start">10.53</text><text x="942" y="320" fill="#d97706" font-size="11" text-anchor="start">14.14</text><text x="942" y="244" fill="#d97706" font-size="11" text-anchor="start">17.76</text><text x="942" y="168" fill="#d97706" font-size="11" text-anchor="start">21.37</text><text x="942" y="92" fill="#d97706" font-size="11" text-anchor="start">24.98</text><text x="942" y="80" fill="#d97706" font-size="11" font-weight="600" text-anchor="start">price</text><polygon fill="#16a34a" fill-opacity=".08" points="350.5 468 350.5 121.1 350.5 121.4 351 120.2 351 120.4 351 119.4 351.1 118.8 351.1 118.3 351.1 118.5 351.1 118.7 351.1 117.9 351.2 117.4 351.2 117.6 351.2 117.9 351.3 118.2 351.5 116.9 351.5 117.1 351.9 117.4 352 117.8 352.3 118.3 352.7 118.6 400.1 117.7 421.8 117.9 444.5 118.3 529.3 116.8 538.3 117.1 616.9 116.1 634.7 116.4 634.7 468"/><polyline fill="none" stroke="#16a34a" stroke-linejoin="round" stroke-width="2" points="350.5 121.1 350.5 121.4 351 120.2 351 120.4 351 119.4 351.1 118.8 351.1 118.3 351.1 118.5 351.1 118.7 351.1 117.9 351.2 117.4 351.2 117.6 351.2 117.9 351.3 118.2 351.5 116.9 351.5 117.1 351.9 117.4 352 117.8 352.3 118.3 352.7 118.6 400.1 117.7 421.8 117.9 444.5 118.3 529.3 116.8 538.3 117.1 616.9 116.1 634.7 116.4"/><line x1="88" x2="110" y1="102" y2="102" stroke="#16a34a" stroke-width="2.5"/><text x="116" y="106" fill="#374151" font-size="11.5">equity</text><line x1="88" x2="110" y1="118" y2="118" stroke="#d97706" stroke-width="2.5" opacity=".8"/><text x="116" y="122" fill="#374151" font-size="11.5">price</text><text x="78" y="502" fill="#6b7280" font-size="12" text-anchor="start">2025-10-01</text><text x="934" y="502" fill="#6b7280" font-size="12" text-anchor="end">2025-10-31</text></svg>