<?xml version="1.0" encoding="UTF-8"?>
<svg xmlns="http://www.w3.org/2000/svg" width="1100" height="560" viewBox="0 0 1100 560" font-family="ui-sans-serif, system-ui, sans-serif">
  <rect width="1100" height="560" fill="#ffffff"/>
  <text x="80" y="28" font-size="18" font-weight="700" fill="#111827">Zone Recovery — LINKUSDT fee-tier comparison (best setting)</text>
  <text x="80" y="48" font-size="12.5" fill="#6b7280">lev 4 · ratio 3 · gap 20% · maxSteps 4 · maxDD 20% · random  ·  equity per fee tier vip 0..9</text>
  <text x="80" y="68" font-size="12.5" font-weight="600" fill="#1d4ed8">USDT margin · BNB −10%</text>
  <line x1="80" y1="508.0" x2="932" y2="508.0" stroke="#e5e7eb" stroke-width="1"/><text x="70" y="512.0" text-anchor="end" font-size="12" fill="#6b7280">0.00</text><line x1="80" y1="424.0" x2="932" y2="424.0" stroke="#e5e7eb" stroke-width="1"/><text x="70" y="428.0" text-anchor="end" font-size="12" fill="#6b7280">21909567</text><line x1="80" y1="340.0" x2="932" y2="340.0" stroke="#e5e7eb" stroke-width="1"/><text x="70" y="344.0" text-anchor="end" font-size="12" fill="#6b7280">43819133</text><line x1="80" y1="256.0" x2="932" y2="256.0" stroke="#e5e7eb" stroke-width="1"/><text x="70" y="260.0" text-anchor="end" font-size="12" fill="#6b7280">65728700</text><line x1="80" y1="172.0" x2="932" y2="172.0" stroke="#e5e7eb" stroke-width="1"/><text x="70" y="176.0" text-anchor="end" font-size="12" fill="#6b7280">87638266</text><line x1="80" y1="88.0" x2="932" y2="88.0" stroke="#e5e7eb" stroke-width="1"/><text x="70" y="92.0" text-anchor="end" font-size="12" fill="#6b7280">109547833</text>
  <line x1="80" y1="124.6" x2="932" y2="124.6" stroke="#9ca3af" stroke-width="1.5" stroke-dasharray="6 4"/>
  <polyline points="80.0,124.6 80.0,125.0 81.3,123.6 81.4,123.9 81.5,122.8 81.5,122.1 81.6,121.6 81.6,121.7 81.7,121.9 81.8,121.1 82.0,120.5 82.1,120.8 82.1,121.0 82.3,121.4 82.9,119.9 83.0,120.2 84.2,120.5 84.4,121.0 85.4,121.6 86.5,121.9 228.5,120.9 293.6,121.2 361.8,121.6 616.1,120.0 642.9,120.2 878.5,119.2 932.0,119.5" fill="none" stroke="#2563eb" stroke-width="1.8" stroke-linejoin="round" opacity="0.9"/>
  <polyline points="80.0,124.6 80.0,125.0 81.3,123.6 81.4,123.9 81.5,122.8 81.5,122.1 81.6,121.6 81.6,121.7 81.7,121.9 81.8,121.1 82.0,120.5 82.1,120.8 82.1,121.0 82.3,121.4 82.9,119.9 83.0,120.2 84.2,120.5 84.4,121.0 85.4,121.6 86.5,121.9 228.5,120.9 293.6,121.2 361.8,121.6 616.1,120.0 642.9,120.2 878.5,119.2 932.0,119.5" fill="none" stroke="#dc2626" stroke-width="1.8" stroke-linejoin="round" opacity="0.9"/>
  <polyline points="80.0,124.6 80.0,125.0 81.3,123.6 81.4,123.9 81.5,122.8 81.5,122.1 81.6,121.5 81.6,121.7 81.7,121.9 81.8,121.1 82.0,120.5 82.1,120.7 82.1,121.0 82.3,121.4 82.9,119.9 83.0,120.2 84.2,120.5 84.4,121.0 85.4,121.6 86.5,121.8 228.5,120.8 293.6,121.1 361.8,121.6 616.1,119.9 642.9,120.2 878.5,119.2 932.0,119.5" fill="none" stroke="#16a34a" stroke-width="1.8" stroke-linejoin="round" opacity="0.9"/>
  <polyline points="80.0,124.6 80.0,125.0 81.3,123.6 81.4,123.9 81.5,122.8 81.5,122.1 81.6,121.5 81.6,121.7 81.7,121.9 81.8,121.1 82.0,120.5 82.1,120.7 82.1,121.0 82.3,121.4 82.9,119.9 83.0,120.2 84.2,120.5 84.4,121.0 85.4,121.6 86.5,121.8 228.5,120.8 293.6,121.1 361.8,121.5 616.1,119.9 642.9,120.2 878.5,119.2 932.0,119.5" fill="none" stroke="#d97706" stroke-width="1.8" stroke-linejoin="round" opacity="0.9"/>
  <polyline points="80.0,124.6 80.0,125.0 81.3,123.6 81.4,123.9 81.5,122.8 81.5,122.1 81.6,121.5 81.6,121.7 81.7,121.9 81.8,121.1 82.0,120.5 82.1,120.7 82.1,121.0 82.3,121.4 82.9,119.9 83.0,120.2 84.2,120.5 84.4,121.0 85.4,121.6 86.5,121.8 228.5,120.8 293.6,121.1 361.8,121.5 616.1,119.9 642.9,120.2 878.5,119.1 932.0,119.5" fill="none" stroke="#7c3aed" stroke-width="1.8" stroke-linejoin="round" opacity="0.9"/>
  <polyline points="80.0,124.6 80.0,125.0 81.3,123.6 81.4,123.9 81.5,122.8 81.5,122.1 81.6,121.5 81.6,121.7 81.7,121.9 81.8,121.1 82.0,120.5 82.1,120.7 82.1,121.0 82.3,121.4 82.9,119.9 83.0,120.2 84.2,120.5 84.4,121.0 85.4,121.6 86.5,121.8 228.5,120.8 293.6,121.1 361.8,121.5 616.1,119.9 642.9,120.2 878.5,119.1 932.0,119.5" fill="none" stroke="#0891b2" stroke-width="1.8" stroke-linejoin="round" opacity="0.9"/>
  <polyline points="80.0,124.6 80.0,125.0 81.3,123.6 81.4,123.9 81.5,122.8 81.5,122.1 81.6,121.5 81.6,121.7 81.7,121.9 81.8,121.1 82.0,120.5 82.1,120.7 82.1,121.0 82.3,121.4 82.9,119.9 83.0,120.2 84.2,120.5 84.4,120.9 85.4,121.6 86.5,121.8 228.5,120.8 293.6,121.1 361.8,121.5 616.1,119.9 642.9,120.2 878.5,119.1 932.0,119.4" fill="none" stroke="#db2777" stroke-width="1.8" stroke-linejoin="round" opacity="0.9"/>
  <polyline points="80.0,124.6 80.0,125.0 81.3,123.6 81.4,123.9 81.5,122.8 81.5,122.1 81.6,121.5 81.6,121.7 81.7,121.9 81.8,121.1 82.0,120.5 82.1,120.7 82.1,121.0 82.3,121.4 82.9,119.9 83.0,120.2 84.2,120.5 84.4,120.9 85.4,121.5 86.5,121.8 228.5,120.8 293.6,121.1 361.8,121.5 616.1,119.9 642.9,120.2 878.5,119.1 932.0,119.4" fill="none" stroke="#65a30d" stroke-width="1.8" stroke-linejoin="round" opacity="0.9"/>
  <polyline points="80.0,124.6 80.0,125.0 81.3,123.6 81.4,123.9 81.5,122.8 81.5,122.1 81.6,121.5 81.6,121.7 81.7,121.9 81.8,121.1 82.0,120.5 82.1,120.7 82.1,121.0 82.3,121.4 82.9,119.9 83.0,120.1 84.2,120.5 84.4,120.9 85.4,121.5 86.5,121.8 228.5,120.8 293.6,121.1 361.8,121.5 616.1,119.9 642.9,120.1 878.5,119.1 932.0,119.4" fill="none" stroke="#475569" stroke-width="1.8" stroke-linejoin="round" opacity="0.9"/>
  <polyline points="80.0,124.6 80.0,125.0 81.3,123.6 81.4,123.9 81.5,122.8 81.5,122.1 81.6,121.5 81.6,121.7 81.7,121.9 81.8,121.1 82.0,120.5 82.1,120.7 82.1,121.0 82.3,121.4 82.9,119.9 83.0,120.1 84.2,120.5 84.4,120.9 85.4,121.5 86.5,121.8 228.5,120.8 293.6,121.1 361.8,121.5 616.1,119.9 642.9,120.1 878.5,119.1 932.0,119.4" fill="none" stroke="#ea580c" stroke-width="1.8" stroke-linejoin="round" opacity="0.9"/>
  <line x1="950" y1="94" x2="972" y2="94" stroke="#ea580c" stroke-width="3"/><text x="980" y="98" font-size="12.5" fill="#374151">vip 9  101351976</text>
  <line x1="950" y1="116" x2="972" y2="116" stroke="#475569" stroke-width="3"/><text x="980" y="120" font-size="12.5" fill="#374151">vip 8  101349577</text>
  <line x1="950" y1="138" x2="972" y2="138" stroke="#65a30d" stroke-width="3"/><text x="980" y="142" font-size="12.5" fill="#374151">vip 7  101347978</text>
  <line x1="950" y1="160" x2="972" y2="160" stroke="#db2777" stroke-width="3"/><text x="980" y="164" font-size="12.5" fill="#374151">vip 6  101345579</text>
  <line x1="950" y1="182" x2="972" y2="182" stroke="#0891b2" stroke-width="3"/><text x="980" y="186" font-size="12.5" fill="#374151">vip 5  101343980</text>
  <line x1="950" y1="204" x2="972" y2="204" stroke="#7c3aed" stroke-width="3"/><text x="980" y="208" font-size="12.5" fill="#374151">vip 4  101341582</text>
  <line x1="950" y1="226" x2="972" y2="226" stroke="#d97706" stroke-width="3"/><text x="980" y="230" font-size="12.5" fill="#374151">vip 3  101339982</text>
  <line x1="950" y1="248" x2="972" y2="248" stroke="#16a34a" stroke-width="3"/><text x="980" y="252" font-size="12.5" fill="#374151">vip 2  101333586</text>
  <line x1="950" y1="270" x2="972" y2="270" stroke="#2563eb" stroke-width="3"/><text x="980" y="274" font-size="12.5" fill="#374151">vip 0  101325591</text>
  <line x1="950" y1="292" x2="972" y2="292" stroke="#dc2626" stroke-width="3"/><text x="980" y="296" font-size="12.5" fill="#374151">vip 1  101325591</text>
  <text x="80" y="542" text-anchor="start" font-size="12" fill="#6b7280">2025-10-10</text><text x="932" y="542" text-anchor="end" font-size="12" fill="#6b7280">2025-10-21</text>
</svg>
