<svg xmlns="http://www.w3.org/2000/svg" width="1000" height="520" font-family="ui-sans-serif, system-ui, sans-serif" viewBox="0 0 1000 520"><rect width="1000" height="520" fill="#fff"/><text x="78" y="28" fill="#111827" font-size="18" font-weight="700">Zone Recovery — WLFIUSDC best setting (equity / PnL)</text><text x="78" y="48" fill="#6b7280" font-size="12.5">lev 20 · ratio 4 · gap 20% · maxSteps 6 · maxDD 40% · random · vip 9 · 56 series, 82.1% win · vol $8982277 ($289757/day) · fees $759.90</text><text x="78" y="68" fill="#1d4ed8" font-size="12.5" font-weight="600">USDC · BNB −10% · taker 0.0085%</text><text x="934" y="28" fill="#16a34a" font-size="18" font-weight="700" text-anchor="end">+11020 USDT (+110.20%)</text><line x1="78" x2="934" y1="468" y2="468" stroke="#e5e7eb" stroke-width="1"/><text x="68" y="472" fill="#6b7280" font-size="12" text-anchor="end">0.00</text><line x1="78" x2="934" y1="392" y2="392" stroke="#e5e7eb" stroke-width="1"/><text x="68" y="396" fill="#6b7280" font-size="12" text-anchor="end">4540</text><line x1="78" x2="934" y1="316" y2="316" stroke="#e5e7eb" stroke-width="1"/><text x="68" y="320" fill="#6b7280" font-size="12" text-anchor="end">9081</text><line x1="78" x2="934" y1="240" y2="240" stroke="#e5e7eb" stroke-width="1"/><text x="68" y="244" fill="#6b7280" font-size="12" text-anchor="end">13621</text><line x1="78" x2="934" y1="164" y2="164" stroke="#e5e7eb" stroke-width="1"/><text x="68" y="168" fill="#6b7280" font-size="12" text-anchor="end">18161</text><line x1="78" x2="934" y1="88" y2="88" stroke="#e5e7eb" stroke-width="1"/><text x="68" y="92" fill="#6b7280" font-size="12" text-anchor="end">22702</text><line x1="78" x2="934" y1="300.6" y2="300.6" stroke="#9ca3af" stroke-dasharray="6 4" stroke-width="1.5"/><text x="934" y="294.6" fill="#6b7280" font-size="11" text-anchor="end">start 10000</text><polyline fill="none" stroke="#d97706" stroke-linejoin="round" stroke-width="1.2" points="78 346.4 79.3 344 80.3 342 81.3 338 81.9 336.6 82.7 338.5 84.2 337 85.9 339.5 87.4 339 88.4 338 89.9 338 91.5 336.6 92.6 341 93.9 335.6 94.8 336.1 95.9 336.6 96.3 333.6 97.3 336.1 97.9 332.6 98.4 331.1 99.6 332.6 100.8 330.6 102.3 332.6 104.4 330.6 105.9 331.6 106.1 321.7 106.5 326.2 107.7 327.2 109 325.7 109.9 323.2 110.7 323.7 112 325.7 113.5 319.3 114.8 318.8 116.2 314.8 116.9 310.4 116.9 311.4 117.4 311.4 118.3 315.8 119 322.7 119.4 319.8 120.1 312.8 120.1 307.9 120.4 310.4 120.6 306.9 120.8 304.4 120.9 298.5 121.2 299.5 121.8 299 122.1 307.4 122.4 308.4 122.5 302 122.6 299.5 122.9 299 123.3 303 123.7 299.5 124.1 296.5 124.4 297.5 124.7 294.1 124.9 297.5 125.3 292.1 125.7 292.6 126.2 293.6 126.8 295 127.3 302 127.9 297.5 128.6 300 129.6 303.9 130.8 301 131.3 301 132.3 294.6 133 290.6 133.7 290.1 134.3 289.6 135.3 291.6 136.1 291.1 137 291.1 137.4 282.2 138 282.7 138.5 276.3 138.6 261.4 138.6 256 138.6 266.4 139 266.9 139.4 274.8 139.7 277.8 140.6 277.3 140.7 265.9 140.9 279.2 140.9 299 140.9 305.9 140.9 301.5 140.9 304.9 140.9 306.9 140.9 307.9 140.9 303.4 140.9 304.9 140.9 309.9 140.9 306.9 140.9 303.4 140.9 299.5 141 296 141 293.6 141 297 141 297 141.1 299.5 141.1 297.5 141.2 298.5 141.2 299.5 141.2 296 141.3 294.6 141.3 296 141.3 297.5 141.4 299.5 141.4 298 141.5 298.5 141.5 299.5 141.5 303.4 141.6 303.4 141.6 304.4 141.6 305.4 141.7 308.4 141.7 309.4 141.7 308.9 141.7 308.4 141.8 308.4 141.8 311.8 141.8 313.8 141.9 311.4 142 307.9 142.3 307.9 142.6 307.9 143 305.4 143.2 299.5 143.4 297.5 143.4 300 143.7 298.5 144.2 296.5 144.5 291.6 144.8 295 145.4 293.1 146.2 293.1 147 287.6 147 275.8 147 280.2 147.3 284.2 147.9 282.2 148.2 274.8 148.6 277.3 149 271.3 149.3 266.4 149.4 263.4 149.6 263.4 149.8 263.4 149.9 255.5 149.9 253 150 260 150.2 255.5 150.3 257.5 150.6 254.5 150.7 257.5 150.9 250.6 151 246.6 151.1 241.7 151.1 235.3 151.2 235.3 151.3 234.3 151.3 231.8 151.4 233.3 151.5 230.3 151.5 228.8 151.6 233.8 151.7 235.3 151.8 228.3 151.9 233.8 152 226.4 152.1 221.4 152.2 224.9 152.2 221.4 152.3 220.4 152.4 209.6 152.4 212.5 152.5 210.6 152.5 208.1 152.6 209.1 152.6 202.2 152.7 205.6 152.7 200.7 152.8 201.2 152.8 206.6 152.9 208.6 153 203.6 153 204.1 153.1 198.7 153.2 190.3 153.2 187.3 153.2 194.3 153.2 192.8 153.3 199.2 153.3 204.6 153.4 206.6 153.4 209.1 153.4 221.4 153.4 213 153.5 208.6 153.5 206.1 153.6 194.7 153.6 196.7 153.7 202.2 153.7 201.2 153.8 202.2 153.8 200.7 153.9 200.2 153.9 196.2 154 201.7 154 201.2 154.1 208.1 154.1 204.6 154.1 200.2 154.2 199.7 154.2 197.2 154.2 194.3 154.3 191.3 154.3 190.3 154.3 190.3 154.4 175 154.4 175 154.4 176.5 154.4 179.4 154.5 170 154.5 180.9 154.5 177 154.6 171 154.6 169.1 154.7 170.5 154.7 169.5 154.7 166.1 154.8 163.1 154.8 170.5 154.8 170 154.8 170 154.9 175 154.9 170.5 154.9 168.1 155 164.1 155 164.6 155 156.7 155 164.6 155.1 165.6 155.1 166.1 155.2 166.1 155.2 166.1 155.3 165.1 155.3 168.6 155.3 176 155.3 177 155.4 171.5 155.5 174.5 155.6 176 155.6 173.5 155.8 173 155.8 178.4 155.9 180.9 156 188.8 156 187.8 156.1 185.9 156.1 181.9 156.2 185.9 156.3 191.8 156.4 193.8 156.4 190.8 156.6 192.3 156.7 183.9 156.8 182.9 156.9 183.9 157 178.4 157 176 157.1 176.5 157.2 177.5 157.4 174.5 157.5 176 157.5 174 157.6 176 157.8 174.5 157.8 169.1 157.9 172 158 167.6 158.1 175.5 158.3 177 158.4 180.4 158.5 178.9 158.6 182.4 158.7 183.9 158.9 183.4 159 190.8 159.2 183.4 159.3 192.3 159.5 197.7 159.6 194.7 159.6 194.3 159.6 193.3 159.7 185.9 159.7 186.3 159.7 187.3 159.8 187.3 159.8 185.9 159.8 190.8 159.9 193.3 159.9 194.7 159.9 197.2 160 197.2 160 192.8 160.2 189.8 160.3 191.3 160.5 202.7 160.5 206.6 160.6 203.1 160.7 202.7 160.7 202.7 160.8 201.7 160.8 201.2 160.9 189.3 160.9 185.4 160.9 179.9 161 181.4 161 185.9 161 179.9 161.1 180.9 161.1 183.9 161.1 188.8 161.2 188.8 161.3 187.3 161.5 186.8 161.6 190.8 161.7 194.3 161.9 195.7 162 188.3 162.1 185.4 162.3 192.3 162.5 190.3 162.7 184.4 162.8 184.9 162.8 187.8 162.8 183.4 162.9 182.4 162.9 181.9 162.9 183.4 162.9 183.9 163 180.9 163 179.4 163 179.9 163 178.9 163.1 176 163.1 167.6 163.1 162.1 163.1 167.6 163.1 169.5 163.2 165.6 163.2 169.5 163.2 174.5 163.2 187.3 163.2 187.3 163.2 182.4 163.2 181.9 163.3 184.9 163.4 184.4 163.5 183.4 163.6 178.4 163.7 181.9 163.7 183.9 163.8 181.4 163.8 182.4 163.8 185.9 164 193.3 164.1 189.8 164.3 185.9 164.5 187.8 164.7 187.8 164.9 185.9 165.1 186.3 165.3 182.9 165.5 183.9 165.6 186.8 165.6 186.8 165.7 184.9 165.8 176 165.8 178.4 165.9 179.9 165.9 182.9 166 184.4 166.2 182.9 166.5 184.9 166.8 186.8 167 179.4 167.2 178.9 167.3 179.9 167.5 179.4 167.6 178.9 167.7 174 167.8 173 168 173 168.1 173.5 168.2 176.5 168.3 174.5 168.4 168.1 168.5 174 168.6 180.9 168.6 181.4 168.7 182.9 168.9 181.9 169.1 176 169.2 178.4 169.4 186.8 169.5 186.3 169.7 186.3 169.9 193.8 170.1 192.8 170.2 186.8 170.4 186.8 170.7 189.8 170.9 185.9 171.1 193.3 171.1 205.1 171.1 207.6 171.1 204.1 171.2 206.6 171.2 211 171.3 210.1 171.4 210.1 171.5 211 171.6 209.6 171.7 212.5 171.8 210.6 171.9 208.6 172 200.7 172.2 199.2 172.3 198.2 172.6 193.8 172.7 195.2 172.9 193.8 173 195.7 173.1 203.1 173.1 211 173.1 207.6 173.2 206.1 173.5 201.2 173.7 200.7 173.9 205.6 174.3 202.7 174.6 203.1 174.8 202.7 175 206.6 175.3 202.7 175.4 210.6 175.4 214.5 175.5 215 175.8 214.5 176 208.6 176.2 216 176.3 218.5 176.4 210.1 176.6 218.5 176.9 212 177.1 212 177.4 216 177.6 219 177.7 219.4 177.8 221.4 177.8 221.4 177.9 221.9 178.1 220.9 178.3 218.5 178.5 219.4 178.7 219.9 178.9 219.9 179.1 219.4 179.2 219.4 179.4 220.9 179.7 220.4 179.9 213.5 180.2 215 180.6 211.5 181 209.6 181.4 210.6 181.9 213.5 182.1 218 182.6 214.5 182.8 216.5 182.9 218 183 211.5 183.3 212 183.7 211 184 209.1 184.5 210.1 184.7 214.5 185.1 214.5 185.3 215 185.7 215 186.2 217 186.6 214 187.2 211.5 187.5 211.5 188 213 188.5 210.6 188.7 213.5 189 209.6 189.3 210.6 189.5 209.1 189.7 207.1 189.8 203.1 190 203.6 190.3 200.7 190.3 197.2 190.5 199.2 190.8 200.2 191.2 200.7 191.4 195.2 191.8 196.2 192 204.1 192.2 201.2 192.6 207.6 192.8 208.1 193.2 209.6 193.5 208.1 193.7 204.1 193.8 196.2 193.9 198.2 194.3 201.2 194.5 198.7 194.8 197.2 195 201.2 195.3 205.6 195.6 203.6 195.9 206.6 196.1 207.1 196.3 208.6 196.7 213 197 206.6 197.3 198.7 197.4 190.8 197.6 196.7 198.1 198.7 198.4 199.7 198.6 195.2 198.8 191.3 198.9 198.7 199.2 195.2 199.6 196.2 200 200.7 200.1 197.7 200.5 203.1 200.8 203.6 201.3 201.7 201.9 200.2 202.3 195.7 202.7 204.6 202.9 207.1 203.2 208.1 203.5 202.2 204 203.1 204.3 201.7 204.5 209.6 204.7 210.6 205 214.5 205.2 212.5 205.3 209.1 205.5 210.1 205.7 208.6 206 210.1 206.2 207.1 206.5 202.2 206.7 201.2 206.9 199.2 207.1 196.2 207.3 199.7 207.5 203.1 207.8 198.7 208.2 195.2 208.4 197.2 208.6 196.7 208.8 197.7 209.1 196.7 209.3 195.2 209.7 194.3 210 190.8 210.3 190.3 210.7 192.8 211 195.2 211.4 199.2 211.7 195.7 212 193.8 212.4 197.7 212.9 196.2 213.5 196.7 214.2 194.7 214.8 190.3 215.4 196.7 216.1 197.2 216.5 196.7 216.9 204.6 217.4 200.2 217.9 193.3 218.4 194.3 219 191.3 219.3 187.3 219.9 191.3 220.3 193.8 220.9 186.8 221.3 187.8 221.4 180.4 221.4 176 221.5 176 221.5 179.9 221.5 181.9 221.5 183.4 221.6 183.4 221.6 183.4 221.6 182.9 221.7 183.9 221.7 181.9 221.7 181.4 221.8 182.4 221.8 181.9 221.9 186.8 222.3 190.8 222.7 191.8 223.1 194.7 223.4 203.1 223.6 199.7 223.8 196.7 224 202.7 224.5 206.1 224.7 205.6 224.9 206.6 225.1 203.6 225.6 202.7 226.3 201.7 227.3 199.2 228.2 197.2 229.1 198.2 229.9 196.2 230.6 196.2 231.2 195.2 231.7 189.3 231.8 178.9 231.8 177.9 231.8 178.9 231.8 176.5 231.8 177 231.9 176 231.9 179.4 231.9 179.9 232 177.9 232 178.9 232 177.9 232.1 176 232.1 175 232.1 175.5 232.2 177.5 232.2 178.9 232.3 179.4 232.3 176 232.3 177.5 232.4 177.5 232.4 179.4 232.5 179.4 232.5 178.4 232.6 179.9 232.6 179.9 232.7 178.9 232.7 177.5 232.8 178.9 232.8 179.4 233 182.9 233.1 189.8 233.2 188.3 233.4 191.3 233.6 192.3 233.9 185.9 234.1 194.7 234.1 205.1 234.2 197.7 234.4 198.2 234.6 201.2 234.7 197.7 234.9 199.7 235 204.6 235.1 205.6 235.3 210.1 235.3 210.1 235.4 216 235.5 207.1 235.7 208.1 236 207.6 236.3 202.2 236.5 215 236.6 211.5 236.7 221.9 236.8 221.4 236.9 211 237.4 209.6 237.7 210.6 238.3 210.1 238.9 211.5 239.4 208.6 240.1 206.6 240.4 204.6 240.5 196.7 240.8 198.2 241.2 200.7 241.6 204.1 242.1 208.1 242.6 205.1 243.2 196.2 243.6 190.3 243.8 190.3 244.3 192.8 244.6 197.2 244.9 200.2 245.2 206.6 245.4 201.2 245.8 203.1 246.1 204.1 246.5 204.6 246.9 204.6 247.4 200.2 247.7 197.2 248 199.2 248.2 197.2 248.4 196.2 248.6 201.7 249.1 203.1 249.6 206.1 250.2 205.6 250.5 213 250.9 212 251.5 212 251.9 214.5 252.4 210.6 252.9 213 253.4 215.5 253.8 218 254 217.5 254.3 220.9 254.5 222.4 254.7 225.9 254.8 228.8 254.9 230.3 255.1 228.8 255.3 227.4 255.4 227.4 255.4 226.9 255.5 227.8 255.9 217 256.3 219 256.7 209.6 257 209.1 257.1 205.1 257.5 207.6 257.9 211.5 258.4 212 258.8 212.5 259.3 210.1 259.8 216.5 259.9 223.4 260.1 223.9 260.4 223.9 260.4 221.9 260.5 217.5 260.6 211 260.7 208.6 260.9 213.5 261 220.9 261.2 219 261.3 224.4 261.4 223.4 261.5 222.4 261.7 222.9 262 223.4 262.3 225.9 262.6 225.9 262.8 231.3 263 224.9 263.3 228.8 263.8 226.9 264.2 231.3 264.8 224.9 265.1 223.9 265.5 224.4 265.9 229.8 266.3 227.4 267 229.8 267.4 227.4 268 222.9 268.4 215.5 268.4 200.7 268.4 194.3 268.4 189.3 268.4 187.3 268.4 188.3 268.4 202.2 268.4 205.1 268.4 196.7 268.5 201.2 268.5 209.1 268.5 213.5 268.5 209.6 268.6 211.5 268.7 218 268.9 222.9 269.1 223.9 269.3 224.9 269.6 227.8 269.8 238.2 270.1 232.3 270.5 227.4 270.8 224.9 271.4 221.4 271.7 230.3 272.2 218 272.8 218.5 273.2 210.1 273.6 208.1 274 208.6 274.4 209.6 274.5 219 275 212 275.5 216 275.7 219.4 276.1 223.9 276.3 222.9 276.5 215.5 276.9 213.5 277.7 212 278.2 219 278.4 219.9 278.6 221.9 279.1 222.9 279.3 228.3 279.4 230.3 279.6 225.4 279.8 220.4 280 211 280.3 212 280.6 212.5 280.9 209.6 281.1 197.7 281.2 202.7 281.4 203.6 281.5 208.1 281.7 205.1 281.9 207.6 282.1 206.6 282.4 209.6 282.6 204.6 282.8 213.5 282.9 212.5 283.1 204.6 283.1 197.2 283.2 195.2 283.3 191.3 283.4 190.3 283.6 195.7 283.7 193.3 283.8 187.3 283.9 187.3 284 185.9 284.2 190.3 284.3 191.8 284.4 188.8 284.5 179.9 284.5 183.9 284.7 181.9 284.8 179.9 284.8 190.8 284.9 193.3 285 186.3 285.2 187.3 285.3 189.3 285.4 190.8 285.6 189.8 285.7 194.7 285.9 197.2 286 199.2 286.1 201.7 286.1 212 286.2 218 286.3 210.6 286.5 209.6 286.8 216.5 286.9 219.4 287.2 217.5 287.5 215 287.7 210.1 287.9 212.5 288 214.5 288.1 212.5 288.2 208.6 288.3 198.7 288.4 192.8 288.4 185.4 288.4 184.9 288.5 186.8 288.5 190.8 288.6 190.3 288.7 189.3 288.7 191.8 288.8 183.4 288.9 179.4 288.9 176 288.9 178.4 288.9 176.5 288.9 165.6 288.9 156.7 288.9 162.6 288.9 151.8 289 142.9 289 147.8 289 161.6 289 162.6 289 159.7 289 157.7 289.1 154.2 289.1 141.9 289.1 137.4 289.1 136.4 289.1 134.5 289.2 133.5 289.2 137.4 289.2 140.9 289.2 142.4 289.3 150.3 289.3 145.3 289.4 139.9 289.4 140.4 289.5 138.4 289.5 138.4 289.6 135 289.7 133 289.7 132 289.7 149.8 289.8 149.3 289.8 152.7 289.8 145.3 289.9 141.4 289.9 136.9 290 136.4 290 136.9 290.1 141.4 290.2 148.8 290.3 148.3 290.4 151.3 290.5 154.7 290.6 144.3 290.7 142.9 290.8 139.4 290.9 140.9 291 137.4 291.1 140.4 291.2 142.4 291.3 143.9 291.4 146.8 291.6 156.2 291.6 167.1 291.6 166.1 291.7 163.6 291.7 166.6 291.9 164.6 292.1 166.6 292.1 162.6 292.3 163.6 292.6 162.6 292.8 170 293 172.5 293.1 169.5 293.3 171 293.4 173.5 293.5 177 293.6 179.9 293.8 176.5 294 178.4 294.2 176.5 294.3 179.9 294.5 180.4 294.7 181.9 295 176 295.2 172.5 295.5 169.5 295.7 171.5 296.1 174.5 296.4 169.1 296.6 161.6 296.9 165.1 297.1 177 297.1 178.4 297.2 182.4 297.2 192.8 297.2 193.8 297.2 201.2 297.2 204.1 297.3 200.2 297.3 203.1 297.4 215.5 297.4 219.9 297.4 217.5 297.4 205.6 297.4 213 297.5 208.1 297.7 213.5 297.8 209.1 297.9 203.1 298.1 206.1 298.5 207.1 298.9 209.1 299.1 207.1 299.4 202.2 299.6 209.6 299.9 210.6 300.1 216 300.2 206.6 300.5 210.6 300.6 201.2 300.7 213 301 212.5 301.3 210.1 301.7 211.5 302.2 210.1 302.7 208.6 303.1 204.1 303.3 210.1 303.3 219 303.3 216 303.9 212.5 304.3 216 304.8 212 305.6 213.5 306.2 213.5 306.8 207.6 307.1 206.6 307.5 201.2 307.8 201.7 308 201.2 308.2 204.6 308.5 200.2 308.7 200.7 308.9 207.6 309 214 309.2 210.6 309.5 211.5 309.8 207.1 310.2 211 310.7 210.1 311.4 210.1 311.8 218 312 219 312.5 220.4 313 222.4 313.1 229.8 313.2 232.3 313.3 235.8 313.3 253.5 313.3 244.2 313.4 243.7 313.5 245.6 313.6 238.2 313.7 240.2 313.9 241.2 314.1 231.8 314.3 229.8 314.4 223.9 314.5 227.4 314.6 225.9 315 225.9 315.2 231.8 315.5 234.8 315.6 237.7 315.7 231.8 315.9 235.8 316.1 233.3 316.1 232.8 316.2 232.8 316.2 235.3 316.3 244.2 316.5 234.8 316.6 230.3 316.7 221.4 316.8 220.4 316.8 213.5 316.9 220.9 317 224.9 317.2 228.8 317.3 226.9 317.5 223.4 317.6 219.9 317.8 224.4 318.1 224.9 318.4 224.4 318.7 230.3 318.8 232.3 318.9 224.9 319 225.9 319.3 228.3 319.5 226.4 319.8 227.4 320 234.3 320.2 237.7 320.5 233.3 320.9 237.2 321 243.2 321.3 242.7 321.7 240.2 322.1 242.2 322.6 240.2 323 241.2 323.5 240.2 323.7 235.8 324.3 239.7 324.9 234.8 325.5 231.3 326.2 227.8 326.7 230.3 327.3 233.8 328 229.8 328.3 232.3 328.8 228.3 329.5 231.3 330.2 231.3 330.7 233.8 331.2 227.8 331.4 229.8 332.1 227.8 332.6 223.9 333.1 225.4 333.8 228.8 334.3 227.8 335 229.3 335.5 225.4 336.1 226.9 336.9 226.4 337.6 223.4 338.1 225.4 338.7 228.3 339.7 227.8 340.8 225.4 341.9 225.9 342.8 223.9 343.6 222.9 344.2 229.3 344.8 229.8 345.5 226.4 345.6 229.3 346.3 225.4 347.1 222.9 347.8 222.9 349.1 223.9 350.5 225.4 352 228.3 352.9 234.3 354.1 232.3 354.7 230.8 355.7 229.8 356.7 229.3 358 224.4 359 223.9 359.9 222.9 361.4 225.4 362.5 227.4 364.4 225.9 365.6 222.4 366.6 222.4 367.6 221.9 368.3 221.9 368.9 220.9 369.6 222.4 370.6 216 371.1 217 371.8 218 372.3 228.8 372.5 228.8 372.8 229.8 373.1 220.9 373.4 220.4 374 218 374.8 219 375.9 220.4 376.5 221.9 377.2 228.8 377.5 235.8 378.2 231.3 379.1 232.8 379.6 235.3 380.3 231.8 380.7 242.2 381 232.3 381.4 236.7 382.1 233.8 382.5 241.2 382.8 245.1 382.9 235.3 383.2 238.2 383.6 239.7 384.1 238.2 384.4 233.8 384.9 230.3 385.1 227.8 385.2 228.8 385.5 224.4 386 227.4 386 216 386 218 386.1 220.9 386.4 224.9 386.9 222.4 387.6 219.9 388.4 219.4 389.1 221.4 389.7 226.4 390.4 229.8 391 229.8 391.6 233.8 391.7 236.7 391.9 240.7 392.2 237.7 393 238.2 393.8 239.2 394.5 237.7 395.6 234.3 396.4 236.7 397.1 239.7 397.6 245.6 397.9 246.1 397.9 230.3 397.9 244.2 397.9 237.2 397.9 231.3 397.9 226.4 398 226.9 398 237.7 398.1 240.7 398.2 240.7 398.3 247.1 398.3 251.1 398.3 255.5 398.5 250.6 398.6 244.6 398.8 242.2 399.2 244.6 399.6 239.7 399.9 234.3 400.1 233.8 400.2 225.4 400.2 218.5 400.3 227.4 400.3 215.5 400.4 211.5 400.5 216.5 400.7 215 400.8 221.9 400.9 219.9 401.1 226.9 401.4 226.4 401.8 231.3 402 230.3 402.3 226.9 402.9 219 403.4 222.9 404.2 221.4 404.8 214.5 405.3 218.5 405.9 220.4 406.4 220.9 406.9 223.4 407.3 217.5 407.8 218 408.5 223.9 409.4 219 409.8 215.5 410.2 215.5 410.6 212.5 411.3 219 411.7 216.5 412.5 217 413 217.5 413.7 220.4 414.2 224.4 414.6 226.4 415.1 224.9 415.4 223.4 415.6 220.4 416.3 222.9 417 221.9 417.7 223.4 418.7 223.9 419.6 219.9 420.1 219 420.5 219.9 421 219.9 421.7 222.9 422.6 217 423.1 212.5 423.8 216 424.6 216.5 424.9 208.1 424.9 198.7 424.9 197.2 425 200.7 425.2 202.2 425.4 202.7 425.7 201.2 426 196.7 426.1 189.8 426.1 184.9 426.2 172 426.2 165.6 426.2 166.1 426.2 166.6 426.3 163.1 426.3 161.6 426.4 163.6 426.4 169.5 426.5 170.5 426.6 173 426.7 177.5 426.9 178.4 427 178.9 427.2 171 427.3 167.1 427.4 166.6 427.5 175 427.7 171.5 427.9 174.5 428.2 169.1 428.4 171.5 428.6 169.1 428.8 165.1 429 165.6 429.2 167.6 429.4 174 429.6 174.5 429.8 172 430.1 170.5 430.3 168.1 430.6 173 431.1 171.5 431.6 169.1 431.9 168.1 432.2 162.1 432.4 160.2 432.8 166.1 433 173.5 433.3 176.5 433.7 173 434.2 175 434.8 176.5 434.9 166.6 434.9 160.7 434.9 166.1 435.1 164.1 435.3 168.6 435.8 165.1 436 162.6 436.4 162.6 436.9 162.6 437.2 162.6 437.4 163.6 437.5 163.1 437.9 165.6 438.2 158.2 438.3 149.8 438.4 152.3 438.9 150.3 439.1 156.7 439.5 153.7 439.9 150.3 440.4 156.2 441 153.2 441.6 149.8 441.9 144.3 442 143.4 442.4 147.3 442.5 135.5 442.6 140.4 442.9 139.4 443.2 144.3 443.5 142.9 444 149.8 444.3 149.3 444.6 154.2 445.1 153.7 445.4 149.3 445.7 154.7 446.3 154.2 446.8 153.2 447.5 149.8 447.8 146.8 448.2 143.4 448.8 140.9 449 143.4 449.5 143.4 449.8 145.8 449.9 155.7 450 160.2 450.2 160.2 450.5 166.1 450.7 167.1 450.8 167.1 451.1 166.6 451.4 162.1 451.9 163.6 452.5 162.6 452.9 168.6 453.3 162.6 453.5 161.1 453.7 164.6 453.9 166.1 454 162.1 454.2 163.1 454.3 168.6 454.5 159.7 454.6 157.2 454.8 160.7 455 167.6 455.2 166.6 455.5 160.7 455.5 147.3 455.5 134 455.6 133.5 455.6 122.6 455.6 116.2 455.6 127.5 455.6 130.5 455.7 139.4 455.7 139.4 455.9 136.9 456 139.9 456.1 131.5 456.2 138.4 456.5 142.4 456.6 145.8 456.7 142.9 457.1 146.8 457.4 144.3 457.6 149.8 457.8 155.2 458 157.7 458.1 160.7 458.3 163.1 458.4 163.1 458.6 161.1 458.9 159.7 459.1 162.1 459.4 153.2 459.7 154.2 460 159.2 460.3 154.7 460.8 161.1 461.2 164.6 461.3 161.6 461.5 163.1 462 166.6 462.1 166.6 462.5 166.6 462.9 168.6 463.1 172.5 463.5 182.4 463.5 184.4 463.5 188.3 463.6 186.3 463.8 185.9 464.1 188.8 464.5 190.8 464.8 192.3 465 197.2 465.4 194.7 465.6 195.2 465.9 186.8 466.2 190.3 466.5 193.3 466.6 198.7 466.8 200.7 467.1 201.7 467.2 205.1 467.3 206.1 467.6 210.1 467.8 206.1 468.1 206.1 468.3 210.1 468.6 213 468.8 213.5 469 215.5 469.2 215 469.6 211.5 469.7 215 469.9 210.6 470.4 210.1 470.8 216 471.4 210.6 471.9 210.1 472.4 215 473 211 473.3 214 473.7 214.5 474.1 216.5 474.7 213 475.2 214 475.7 206.6 475.9 203.6 476.2 206.6 476.6 208.1 477.2 207.1 477.9 211.5 478.2 220.4 478.5 215.5 479.2 216 479.9 213 480.4 211.5 480.8 206.6 481.2 209.1 481.4 212 481.5 214 481.6 214.5 481.7 211 481.9 212.5 482 209.6 482.2 212 482.4 215.5 482.6 219.9 482.7 217.5 482.8 219.9 482.9 216.5 483 209.1 483 214 483.2 214 483.4 213 483.7 212 484.1 213 484.4 215 484.8 208.6 485.2 214 485.5 219 485.7 223.4 486.1 226.9 486.3 231.3 486.5 232.3 486.8 226.9 487.1 226.9 487.5 228.3 487.9 227.8 488.4 231.8 489.1 227.4 490 221.9 490.5 217.5 491.2 223.4 491.9 223.4 492.7 219.9 493.6 222.4 494.3 221.4 494.8 225.9 495.5 219.9 496.3 225.9 497.1 223.4 497.4 229.8 497.5 234.3 497.7 234.3 498 234.3 498.2 235.8 498.8 229.8 499.1 230.8 499.8 230.3 500.5 230.8 501.4 233.3 502 227.4 503.3 228.8 504.3 227.4 505.4 228.3 506.1 223.4 506.7 228.3 507.3 234.3 508 233.3 508.8 230.8 509 227.4 509.3 228.3 509.6 226.4 509.9 234.8 510 236.2 510.1 240.2 510.3 237.7 510.4 240.2 510.6 236.2 510.9 234.8 511.2 228.3 511.5 227.8 512 230.3 512.6 226.9 513.2 223.4 513.9 225.4 514.5 229.3 515.2 222.9 515.6 219.4 515.9 213.5 516.5 212.5 517.1 214 517.7 216 518.1 216.5 518.8 220.4 519.8 219.9 520.5 217 521.1 214.5 522.2 214.5 522.9 219.9 524.3 221.4 525.4 221.4 526.4 218.5 527.8 220.9 529.1 220.4 530 219.4 531 220.4 532.2 225.4 533.1 222.9 534.3 223.4 535.4 222.9 536.5 223.4 537.2 219.4 537.5 215 537.6 209.1 537.8 208.1 537.9 202.7 538 205.1 538.3 205.1 538.6 212 538.8 218 539.1 215 539.7 215.5 541.1 219.4 542.2 217.5 543.2 214 544.3 217 545.7 217.5 546 223.9 546.9 222.4 547.7 218.5 548.4 224.9 548.8 230.3 549.5 228.8 550.3 227.8 551.1 226.4 552.2 227.8 553.4 226.9 554.5 225.9 556 226.4 557.3 223.9 558.3 225.9 559.5 224.9 560.7 224.4 561 212.5 561.1 215 561.1 209.1 561.2 208.1 561.4 217 561.5 211.5 561.7 211 562 210.6 562.5 212 562.9 216 563.3 212 563.7 209.6 563.9 203.1 564.2 207.1 564.6 215 565.2 212.5 565.8 214 566.4 211.5 567.3 213 568.1 206.6 569 208.6 570.2 211.5 571.1 204.1 571.4 205.6 572.5 206.1 573.4 209.1 574.1 214 574.3 219.4 574.4 220.4 574.5 225.4 574.6 225.9 574.8 230.3 574.8 232.8 574.9 236.2 575 239.7 575 251.6 575 263.9 575.1 265.9 575.1 274.3 575.1 294.6 575.1 287.6 575.1 305.9 575.1 309.4 575.1 304.4 575.1 285.2 575.1 281.2 575.1 272.3 575.1 268.9 575.1 266.4 575.2 266.4 575.2 269.4 575.2 267.9 575.2 269.4 575.3 269.8 575.3 271.3 575.3 269.4 575.4 262.4 575.4 265.9 575.4 265.9 575.5 262.4 575.5 260 575.6 263.9 575.6 265.9 575.7 263.4 575.7 265.4 575.8 263.4 575.9 260.5 576 258.5 576.1 259 576.3 261 576.4 259.5 576.8 257 576.9 254 577.2 253 577.5 251.1 577.8 247.1 578.2 252.1 578.5 252.1 578.9 256 579.4 256 579.6 246.1 580 251.1 580.5 257.5 581.2 256 581.6 255.5 582.1 257 582.5 257 583 259 583.5 259 584 264.4 584.1 264.9 584.3 264.9 584.7 262.4 585 261 585.3 252.6 585.8 253 586.3 252.1 587.3 254 588.1 250.6 588.6 243.7 588.9 243.7 589.1 242.2 589.6 240.2 590.1 242.7 590.6 243.2 591.2 243.7 591.6 244.6 592 242.7 592.4 239.7 592.8 245.6 593.2 244.2 593.7 237.7 594.2 240.2 594.7 234.8 595.2 235.3 595.7 236.2 596.6 235.8 597.3 229.3 598.1 231.8 598.8 232.8 599.4 236.2 600 239.2 600.6 238.7 601.3 242.7 601.7 240.7 602.1 238.7 602.8 238.2 603.6 242.2 604.2 236.7 604.7 235.3 605.4 236.7 605.9 233.3 606.2 231.8 606.9 239.2 607.7 239.7 608.3 244.2 608.3 253.5 608.3 252.1 608.4 258.5 608.5 256 608.6 256.5 608.8 254 609.1 250.1 609.5 253.5 609.9 255.5 610 255 610.2 254.5 610.6 256 611 252.6 611.5 252.6 612.1 257 612.2 258.5 612.5 261.9 612.6 263.9 612.9 261.9 613.4 260 614.1 262.4 614.9 260 615.1 265.4 615.7 261 616.2 263.4 616.6 263.4 617.1 263.4 617.7 265.4 617.9 269.4 618.3 272.8 618.6 272.3 618.8 273.3 619.2 271.3 619.3 266.9 619.4 266.4 619.4 254 619.4 254 619.5 251.1 619.5 251.1 619.5 246.1 619.5 238.2 619.5 237.2 619.5 233.8 619.5 241.7 619.5 244.2 619.5 248.1 619.5 257.5 619.6 251.6 619.6 248.6 619.6 244.2 619.6 236.7 619.6 242.7 619.6 248.1 619.7 245.6 619.7 248.6 619.7 251.6 619.7 244.6 619.7 244.2 619.7 236.2 619.7 240.2 619.8 247.6 619.8 251.6 619.9 256.5 619.9 252.1 620 257 620.1 251.6 620.1 249.6 620.1 253.5 620.2 250.6 620.3 246.1 620.3 249.1 620.4 249.1 620.5 254.5 620.6 249.6 620.8 249.6 620.9 244.6 621 238.7 621.1 234.3 621.2 233.3 621.3 235.3 621.4 228.3 621.5 236.7 621.6 242.7 621.7 243.2 621.9 242.2 622 245.6 622.2 243.7 622.4 239.7 622.5 242.7 622.7 242.7 622.9 248.1 623.1 247.1 623.2 244.2 623.5 242.7 623.7 244.6 623.9 247.1 624.2 251.1 624.3 256.5 624.3 261 624.5 254.5 624.8 259.5 625.1 260 625.6 255 626 251.1 626.4 250.6 626.8 245.1 627.3 254 627.8 259.5 628.3 258.5 628.6 267.9 628.7 262.4 629 264.4 629.4 264.4 629.7 262.9 630.1 263.4 630.5 261.9 630.8 260.5 631.2 257 631.5 251.1 632 252.1 632.5 251.6 632.9 241.7 633.3 246.1 633.7 243.2 634 242.2 634.3 241.2 634.5 227.4 634.5 220.4 634.5 220.4 634.5 219 634.5 214 634.5 218.5 634.6 223.9 634.7 217.5 634.9 221.9 635 221.4 635.1 218.5 635.3 221.9 635.6 222.4 635.9 222.9 636.3 219.9 636.6 225.4 636.9 223.4 637.3 226.9 637.6 227.4 638.2 225.4 638.5 225.4 639.2 223.9 639.5 221.4 639.9 220.9 640.2 223.9 640.5 220.9 641 218 641.2 215 641.4 219.4 641.6 219.9 641.8 212 641.9 208.6 642.1 211.5 642.2 208.1 642.4 208.6 642.7 206.6 642.9 209.1 643.1 209.6 643.6 211.5 644 216.5 644.1 220.9 644.2 219.4 644.4 225.4 644.6 221.4 644.8 216.5 645.2 220.4 645.4 219 645.9 223.4 646.2 223.9 646.5 223.4 646.6 216 646.7 212.5 646.8 214 646.9 213 647.1 216 647.3 214.5 647.4 215 647.6 213.5 647.8 212 648 212 648.2 218.5 648.4 221.9 648.6 216 648.9 219.4 649.1 229.8 649.3 228.8 649.4 235.8 649.5 238.7 649.6 239.2 649.7 240.7 649.8 247.6 649.9 245.6 649.9 242.2 650.1 247.6 650.2 241.7 650.3 243.2 650.5 244.6 650.6 240.2 650.8 236.2 650.9 238.2 651.2 234.3 651.4 237.2 651.7 233.3 652 229.3 652.4 230.3 652.7 221.4 652.7 219.9 652.8 217 652.9 215 653 209.1 653.2 208.1 653.4 208.6 653.6 203.1 653.8 207.1 654.1 210.6 654.4 206.6 654.8 206.1 655.2 204.1 655.9 207.1 656.3 212.5 656.8 215 657.3 216.5 657.7 222.9 658.3 219.9 658.8 213 659.3 215 660.2 215.5 661 213.5 661.9 217.5 662.6 216 663.5 218 664.1 223.4 664.9 220.9 665.6 215 666 213 666.7 211.5 666.9 210.1 667.1 207.6 667.5 207.1 668 211.5 668.7 209.1 669.1 204.6 669.3 199.7 669.3 196.2 669.6 200.7 670 201.2 670.5 198.7 670.8 202.2 671.1 207.1 671.7 206.1 672.5 206.1 673.2 209.1 673.6 207.1 674.1 208.6 674.4 213.5 674.7 212 674.9 216 675.1 214.5 675.3 210.1 675.5 201.2 675.6 207.6 675.8 204.6 676 199.7 676.2 203.1 676.5 205.6 676.7 197.7 677 198.7 677.3 194.7 677.4 192.8 677.7 189.8 677.8 182.9 677.8 189.8 677.9 186.3 678.2 194.7 678.6 187.3 679 189.3 679.3 198.2 679.8 199.7 680.2 197.2 680.8 195.7 681.2 202.2 681.7 206.6 682.6 207.6 683.2 216.5 683.4 216 683.6 217.5 684 218 684.6 216.5 685 215 685.5 220.9 685.8 216.5 686 230.3 686.2 229.3 686.5 223.9 686.9 224.9 687.4 223.9 687.9 226.9 688.6 222.4 689.2 219.4 689.6 215.5 690 210.1 690.2 210.6 690.7 212 691.4 213.5 692 208.6 692.4 207.1 693 211.5 693.8 211.5 694.6 210.1 695.3 215.5 695.5 217.5 696.2 216.5 696.8 215 697.4 217.5 698 216.5 698.3 216.5 698.8 214.5 699.5 216 700.2 213.5 701 210.6 701.9 212.5 702.3 214 702.5 216.5 702.7 215.5 703 217 703.3 214.5 703.7 211.5 703.9 211 704.2 207.1 704.6 201.2 704.7 198.2 704.9 192.8 705.1 194.3 705.4 191.3 705.6 185.9 705.7 188.8 705.9 189.8 706.2 196.2 706.7 196.7 707.2 198.2 707.6 200.7 707.8 202.7 708 203.6 708.5 200.7 708.8 194.7 709.1 202.7 709.4 205.6 709.8 205.6 710.5 206.6 711.3 207.1 712 206.1 713.2 204.1 713.6 201.7 714.1 199.7 714.7 196.7 715.1 195.2 715.5 186.8 715.8 185.9 716.3 188.8 716.8 188.3 717.1 179.9 717.2 173 717.5 179.9 717.9 185.9 718.1 191.8 718.5 186.8 719.1 193.3 719.9 190.3 720.5 186.3 721.1 179.4 721.5 181.4 722 177.5 722.4 174.5 722.7 172 723.1 172.5 723.3 165.6 723.5 170 723.7 171 724.2 177 724.8 171.5 725.1 176 725.8 171 726.2 166.1 726.4 169.5 726.6 171 727 169.5 727.3 167.6 727.8 168.6 728.1 165.1 728.4 167.1 728.8 171.5 729.3 173.5 729.7 177 730.1 176 730.3 179.9 730.7 178.4 731.3 180.9 731.7 181.9 732.2 179.4 733 176 733.3 177.9 734 177.5 735.3 174.5 736.4 177 737.7 177 738.9 176 739.7 173 740.4 174 740.8 170.5 741.1 174.5 741.4 172.5 742.1 178.4 742.3 187.8 742.3 189.8 742.3 189.3 742.3 193.8 742.3 198.2 742.3 193.3 742.5 192.3 742.8 187.8 743.1 179.9 743.7 185.4 744.4 186.8 744.8 191.3 745.2 186.3 745.8 189.3 746.7 185.9 747.6 186.8 748.5 189.3 749.3 189.3 750.4 194.3 750.8 196.7 751.3 197.2 752.1 196.7 753.2 197.7 753.8 199.2 754.5 203.6 754.8 203.6 755.4 204.1 756.1 201.2 756.6 202.2 756.9 209.1 757 215 757.2 211.5 757.5 212.5 758 211.5 758.5 211.5 759.1 212.5 759.2 216.5 759.2 219.4 759.3 220.9 759.4 221.4 759.4 226.9 759.5 226.9 759.5 233.3 759.6 231.3 759.6 234.3 759.6 232.8 759.8 233.3 760 233.8 760.2 230.8 760.4 232.8 760.7 233.8 761 234.8 761.4 237.2 761.7 245.1 761.7 250.6 761.7 249.1 761.8 251.1 761.9 246.1 762.1 246.1 762.3 249.1 762.4 247.6 762.7 247.1 763 254 763.1 255.5 763.2 256.5 763.4 254 763.6 261 763.7 260 763.9 257.5 764.1 255.5 764.5 256.5 764.8 252.1 765.1 249.6 765.4 246.1 765.9 246.1 766.1 243.2 766.5 247.1 766.9 242.2 767.2 241.2 767.5 247.1 767.9 246.6 768.3 236.2 768.5 237.2 768.7 223.4 768.7 217.5 768.7 212 768.7 205.6 768.7 204.1 768.8 212.5 768.8 208.1 768.8 204.6 768.8 197.2 768.8 197.2 768.8 198.7 768.8 195.7 768.9 204.6 768.9 211.5 769 216.5 769 212.5 769.1 216 769.3 218 769.4 220.9 769.6 218 769.7 213.5 769.9 216 770.1 216 770.3 214 770.5 219 770.5 224.4 770.5 229.8 770.5 225.4 770.7 223.9 770.7 241.2 770.7 244.2 770.7 245.6 770.7 251.1 770.7 245.1 770.7 233.3 770.7 225.9 770.7 233.8 770.9 234.3 771 231.8 771.1 230.3 771.2 228.8 771.2 232.8 771.2 237.7 771.4 237.7 771.9 239.2 772.4 243.2 772.8 243.2 773.1 239.2 773.4 236.2 773.7 234.3 774.2 228.8 774.8 229.8 775.5 227.8 775.9 229.8 776.7 228.8 776.8 240.7 776.8 233.3 776.9 240.2 776.9 247.1 776.9 248.6 777 245.1 777.1 240.7 777.4 242.7 777.8 243.2 778 244.6 778 255.5 778 252.6 778 250.6 778.3 251.1 778.5 255.5 778.8 259.5 779.1 257.5 779.6 259 780 256 780.6 255.5 781.4 255 782.2 255.5 783.1 260.5 783.6 253.5 783.8 256 784 255.5 784 262.4 784.2 262.9 784.4 265.4 784.5 277.8 784.5 271.8 784.5 273.8 784.7 275.8 784.9 277.3 785.1 278.2 785.1 284.7 785.1 278.7 785.2 279.7 785.3 279.7 785.4 282.7 785.5 275.8 785.5 271.3 785.6 268.4 785.7 266.9 785.7 281.2 785.7 284.2 785.7 279.7 785.8 279.2 785.8 278.2 786 277.3 786.1 278.2 786.3 282.7 786.4 285.2 786.5 291.6 786.5 302 786.5 293.6 786.6 294.1 786.9 292.6 787.2 295.5 787.2 286.6 787.4 287.6 787.6 282.7 787.7 279.7 788 284.7 788.2 290.1 788.5 292.6 788.7 287.6 788.9 283.2 789 278.7 789.3 275.8 789.6 273.8 789.8 273.8 790 268.9 790.3 272.3 790.6 267.4 791 266.4 791.4 268.4 791.8 271.8 792.2 276.3 792.6 276.3 793 275.3 793.3 270.8 793.7 272.3 794.2 267.9 794.5 260 794.9 265.4 795.3 269.8 795.8 267.4 796.1 277.3 796.4 277.8 796.8 274.8 797.3 278.7 797.8 277.8 798 283.2 798.3 274.3 798.9 276.3 799.5 280.7 800.1 279.7 800.7 278.2 801.4 283.2 801.8 286.2 801.9 272.8 802 277.3 802.7 277.8 803.1 277.8 803.7 275.3 804.1 280.2 804.7 275.8 805.1 279.7 805.6 280.7 806.5 279.7 807.4 281.7 808.4 283.7 809.3 280.2 809.8 281.2 810.3 275.3 810.3 266.9 810.4 273.8 810.8 270.3 811.1 270.3 811.4 275.3 811.9 278.2 812.4 278.2 812.7 280.2 812.9 284.7 813.3 281.7 813.7 281.7 814.1 279.7 814.5 273.3 814.6 273.3 814.7 273.3 814.9 273.3 815 272.3 815.1 272.8 815.3 270.8 815.5 273.8 815.8 279.7 816 279.2 816.2 277.3 816.5 279.7 816.8 284.2 817.1 282.7 817.6 277.8 817.9 276.3 818.6 275.8 819 274.8 819.4 270.8 819.8 268.4 820.1 267.9 820.4 263.4 820.7 265.9 820.8 255.5 820.8 251.1 820.8 245.1 820.8 235.3 820.8 232.8 820.8 232.3 820.8 231.8 820.8 235.3 820.8 238.2 820.9 241.2 821 239.7 821 238.7 821.2 239.2 821.3 242.2 821.5 245.1 821.7 248.6 821.9 242.7 822.1 241.7 822.5 244.2 822.9 240.2 822.9 243.7 823.2 237.2 823.5 237.7 823.6 231.3 823.7 232.8 823.9 228.8 824.1 227.4 824.1 234.8 824.5 236.2 824.9 233.8 825.1 239.7 825.1 243.2 825.4 245.6 825.9 244.6 826.3 249.6 826.7 253 827.3 255 827.8 249.6 828.2 256.5 828.9 256 829.6 255.5 830.4 254 830.9 253 831.3 251.1 832.1 248.6 832.8 247.6 833.5 247.6 833.5 237.7 833.8 244.2 834.2 245.6 834.8 244.6 835.3 247.6 835.7 248.6 836.3 240.7 836.5 241.7 837 242.7 837.3 240.2 837.7 241.2 838 241.2 838.3 244.6 838.8 238.7 839.5 240.2 839.8 240.2 840.2 241.2 840.4 232.8 840.5 230.8 840.6 235.3 840.7 237.2 840.9 232.3 841.1 234.8 841.2 234.8 841.5 235.8 841.9 237.2 842.1 238.2 842.3 240.7 842.8 240.2 843.1 239.2 843.4 243.2 843.7 246.6 844.1 239.2 844.3 238.2 844.6 240.7 845.3 242.2 845.5 241.7 845.8 244.2 846.1 244.6 846.3 244.6 846.8 241.2 847.2 242.2 847.6 242.7 847.9 241.2 848.1 241.7 848.6 242.2 849 247.1 849.4 246.1 849.8 243.2 850.4 241.7 851.2 242.2 851.6 245.1 852 251.6 852.3 246.1 852.8 252.1 853.1 249.1 853.6 250.6 853.8 242.2 853.9 242.7 854.1 250.6 854.2 246.6 854.4 253.5 854.4 258.5 854.6 256.5 854.7 251.6 855 251.1 855.2 255.5 855.6 257 856 257 856.4 254 856.9 252.6 857.6 255.5 858 262.4 858.3 264.4 858.9 258.5 859.6 260 860 261 860.8 262.4 861.4 259.5 862 266.4 862.1 270.8 862.6 267.9 863.3 264.9 864 265.9 864.8 264.9 865.4 264.9 866 265.9 866.1 259.5 866.1 254 866.1 249.6 866.1 260.5 866.1 259 866.2 262.4 866.2 258.5 866.2 256.5 866.3 263.9 866.5 262.4 867.2 261.9 867.8 264.9 867.9 271.3 867.9 276.3 867.9 274.8 867.9 274.3 868 280.2 868 276.8 868.1 280.7 868.3 282.7 868.4 285.7 868.5 285.7 868.5 288.6 868.6 291.1 868.7 295 868.7 294.6 868.7 297.5 868.8 295 868.8 292.1 868.9 288.6 869 287.6 869.1 287.6 869.2 284.2 869.3 288.6 869.4 279.7 869.5 281.2 869.5 282.2 869.6 282.2 869.6 286.2 869.7 283.7 869.9 274.3 870 271.3 870.2 273.3 870.3 270.3 870.5 276.3 870.7 272.3 870.8 271.3 871.1 267.9 871.2 267.9 871.5 270.3 871.8 277.3 872 277.8 872.3 279.2 872.6 280.7 872.9 283.2 872.9 286.2 873.2 285.7 873.6 281.7 873.7 279.7 874 281.2 874.4 286.2 874.9 282.2 875.3 281.2 875.6 278.7 876.3 277.8 876.9 278.7 877.8 278.7 878.4 278.7 878.9 281.2 879.3 278.7 879.7 278.2 880 281.2 880.4 282.7 880.6 288.1 880.6 288.6 880.7 291.6 880.7 293.6 880.7 306.4 880.8 300 880.8 297 880.8 289.6 880.8 291.6 880.9 292.1 881.1 290.6 881.3 293.1 881.4 293.6 881.6 298.5 881.7 297 881.9 292.1 882.1 292.6 882.5 292.6 882.8 292.6 883.1 297.5 883.1 303 883.2 301.5 883.2 305.4 883.2 308.4 883.2 308.4 883.2 306.4 883.2 309.9 883.2 309.4 883.4 306.9 883.5 305.4 883.8 300 884 300.5 884.4 302 885.1 302.5 885.3 307.4 885.8 311.4 886.1 316.8 886.3 317.8 886.5 320.7 886.6 318.3 886.9 318.3 887.2 310.4 887.6 316.3 888.2 312.8 888.6 316.3 889.1 317.3 889.6 319.3 890.1 319.8 890.5 319.3 890.9 317.8 891.2 312.3 891.6 311.4 892.2 314.3 892.5 308.9 892.9 313.8 893.3 317.8 893.8 322.7 894.2 324.7 894.3 326.7 894.4 324.2 894.7 327.7 895.1 320.2 895.4 319.8 895.5 318.3 895.7 312.8 895.7 303 895.8 299 895.8 299 895.8 295.5 895.9 299.5 896 304.9 896.1 303.9 896.3 303.9 896.4 306.4 896.6 309.4 896.7 301 896.9 300 897.1 299.5 897.3 299.5 897.6 298 897.8 297 898 296.5 898.3 300 898.5 302.5 898.8 297 899.1 296 899.4 299.5 899.8 305.4 899.9 309.4 900 302.5 900.2 305.9 900.3 298.5 900.4 292.1 900.5 292.1 900.7 286.2 900.8 286.6 901 285.2 901.2 281.7 901.4 282.7 901.6 283.7 901.8 286.6 902 289.1 902.2 287.6 902.3 292.1 902.5 295.5 902.7 293.1 902.8 295 903.1 296 903.3 291.1 903.6 295 904.1 292.1 904.6 297.5 905.1 296 905.8 297.5 906.3 294.6 906.8 296 907.5 297.5 908.3 299.5 909 300.5 909.8 304.4 910.9 304.4 911.7 306.9 912.5 307.4 913.1 306.4 913.8 311.4 914.2 314.8 914.7 315.3 915.1 320.7 915.7 320.7 915.9 328.2 916.1 329.1 916.3 333.6 916.4 333.6 916.5 335.1 916.8 331.1 917.3 331.1 918 332.1 918.6 327.7 919.6 327.7 920.4 330.1 920.9 331.6 921.3 333.6 921.9 333.6 922.3 333.1 922.7 336.6 922.8 335.6 922.9 339.5 923 343 923 352.9 923 354.3 923 355.3 923.1 354.3 923.1 358.3 923.2 356.3 923.2 361.3 923.2 360.3 923.2 362.2 923.3 365.7 923.3 369.2 923.3 373.6 923.4 368.2 923.4 362.2 923.6 357.3 923.6 354.3 923.8 349.9 923.9 349.9 924 346.9 924.1 347.9 924.3 345.4 924.5 347.4 924.8 347.4 925 347.9 925.1 345.4 925.2 334.6 925.2 335.1 925.3 339 925.5 344.5 925.7 347.9 925.7 353.3 925.8 353.3 925.9 355.8 926 355.8 926.1 361.7 926.1 364.2 926.2 370.1 926.2 378.1 926.2 381 926.2 395.3 926.2 386 926.2 397.3 926.2 386.9 926.2 384.5 926.2 379 926.2 376.1 926.2 381 926.3 378.5 926.3 376.6 926.3 381.5 926.3 385.5 926.3 383.5 926.3 381 926.3 385.5 926.4 386 926.4 386 926.5 383.5 926.5 381.5 926.6 383 926.6 388.9 926.7 384.5 926.8 388.9 926.9 390.4 927 388.9 927.1 389.4 927.2 390.9 927.3 389.9 927.4 392.9 927.5 397.8 927.6 395.8 927.7 399.3 927.8 401.3 927.9 401.8 927.9 405.2 927.9 422.5 927.9 428.5 927.9 428 927.9 429.9 927.9 427.5 927.9 430.9 928 428.9 928 414.1 928 415.1 928 406.2 928 404.2 928 405.2 928 405.2 928 409.7 928 411.7 928.1 410.7 928.1 413.6 928.1 408.7 928.1 409.7 928.2 413.1 928.2 412.1 928.3 414.1 928.4 413.6 928.4 409.2 928.5 406.2 928.6 403.3 928.6 401.3 928.7 403.3 928.8 400.8 928.9 408.2 929 410.7 929.1 407.2 929.3 405.2 929.4 401.8 929.5 402.3 929.7 408.7 929.8 402.3 930 414.1 930.1 414.1 930.3 409.2 930.4 410.2 930.6 404.7 930.7 408.2 930.9 403.7 931 409.2 931.2 407.7 931.3 402.3 931.5 402.3 931.7 400.3 931.9 403.3 932.3 404.2 932.6 407.7 933 403.3 933.3 399.3 933.3 392.4 933.4 399.3 933.7 397.8 934 400.3 934 399.8" opacity=".6"/><text x="942" y="472" fill="#d97706" font-size="11" text-anchor="start">0.12</text><text x="942" y="396" fill="#d97706" font-size="11" text-anchor="start">0.13</text><text x="942" y="320" fill="#d97706" font-size="11" text-anchor="start">0.15</text><text x="942" y="244" fill="#d97706" font-size="11" text-anchor="start">0.16</text><text x="942" y="168" fill="#d97706" font-size="11" text-anchor="start">0.18</text><text x="942" y="92" fill="#d97706" font-size="11" text-anchor="start">0.20</text><text x="942" y="80" fill="#d97706" font-size="11" font-weight="600" text-anchor="start">price</text><polygon fill="#16a34a" fill-opacity=".08" points="114.9 468 114.9 300.6 114.9 289.6 136.4 278.5 138.4 281.3 140.9 284.8 147 289.1 147.2 294.5 147.9 301.2 150.9 268.2 151.1 271 152.4 257.5 153.4 260.3 153.5 263.8 154.4 246.6 154.4 249.4 154.5 252.9 154.5 257.3 154.6 262.8 155.3 269.7 155.4 278.3 160.5 267.4 160.6 270.2 163.1 256.7 171.1 245.9 190.3 248.6 190.4 252.1 197.4 256.4 198.1 261.8 198.7 268.5 198.9 277 200 279.7 200.2 283.2 210 287.5 211.1 292.9 214.3 299.6 215.3 308.1 224.9 310.9 226.6 314.4 235.3 318.8 240.5 324.3 245.2 331.2 247.4 339.8 250.3 342.6 268.4 346.1 268.4 350.5 268.4 356 268.5 362.9 281 371.5 282 374.3 283.1 377.8 286.1 382.2 288.3 387.7 288.9 360.8 289.2 349.8 291.6 338.9 292.1 341.7 292.3 345.2 297.2 328.3 313.3 317.4 314.2 320.2 315.6 323.7 316.6 328 320.2 333.4 325.2 340.1 354.3 348.5 380.7 351.3 380.8 354.9 382.7 359.3 382.9 364.8 397.6 371.6 397.9 380.2 397.9 383.1 397.9 386.6 398.3 391 399.7 396.5 424.9 369.5 426.2 358.5 426.7 361.3 427.1 364.9 434.7 369.3 434.8 374.8 442.5 347.8 442.9 350.6 455.5 354.2 455.7 358.6 455.9 364.1 456.5 370.9 463.5 337.3 463.5 340.1 486.1 326.3 490.5 329 491.2 332.5 515.8 336.8 532.2 342.2 537.4 348.9 546 357.4 561 360.1 574.3 363.6 575 346.7 575.1 349.5 575.1 335.7 575.1 338.5 575.1 342 575.1 346.5 575.1 352 575.1 325 575.5 327.8 575.6 331.2 575.9 335.5 584 340.9 585.2 347.7 597.3 314.7 599 317.5 617.7 303.7 619.4 306.5 621.4 292.9 621.5 295.8 634.5 299.3 649.4 303.7 651.9 309.2 669.3 282.2 677.8 285 678.1 288.5 686 271.6 704.6 260.5 705.5 263.3 706.7 266.7 715.4 271.1 742.3 276.5 742.8 283.2 750.7 291.6 754.9 294.4 761.6 280.6 761.7 283.5 768 287 768.7 269.7 769 272.6 770.7 258.8 778.5 261.6 786.5 247.8 786.5 250.6 786.8 254.1 794.5 236.9 795.1 239.7 820.8 243.2 823.7 226 824.3 228.8 840.5 232.3 840.6 236.7 862.1 215.2 863.1 217.9 867.9 221.4 868.8 204.5 869.9 193.5 880.7 182.6 883.2 185.5 883.4 189 885.7 193.4 895.7 198.9 896.6 205.8 896.7 214.3 899.9 217.2 900 220.7 913.8 225.1 922.9 203.5 923.3 192.7 923.4 195.5 925.2 182 926.1 171.1 926.2 174 926.2 160.2 926.2 149.1 926.2 152 927.9 138.2 927.9 141 927.9 127.2 928 116.1 928 468"/><polyline fill="none" stroke="#16a34a" stroke-linejoin="round" stroke-width="2" points="114.9 300.6 114.9 289.6 136.4 278.5 138.4 281.3 140.9 284.8 147 289.1 147.2 294.5 147.9 301.2 150.9 268.2 151.1 271 152.4 257.5 153.4 260.3 153.5 263.8 154.4 246.6 154.4 249.4 154.5 252.9 154.5 257.3 154.6 262.8 155.3 269.7 155.4 278.3 160.5 267.4 160.6 270.2 163.1 256.7 171.1 245.9 190.3 248.6 190.4 252.1 197.4 256.4 198.1 261.8 198.7 268.5 198.9 277 200 279.7 200.2 283.2 210 287.5 211.1 292.9 214.3 299.6 215.3 308.1 224.9 310.9 226.6 314.4 235.3 318.8 240.5 324.3 245.2 331.2 247.4 339.8 250.3 342.6 268.4 346.1 268.4 350.5 268.4 356 268.5 362.9 281 371.5 282 374.3 283.1 377.8 286.1 382.2 288.3 387.7 288.9 360.8 289.2 349.8 291.6 338.9 292.1 341.7 292.3 345.2 297.2 328.3 313.3 317.4 314.2 320.2 315.6 323.7 316.6 328 320.2 333.4 325.2 340.1 354.3 348.5 380.7 351.3 380.8 354.9 382.7 359.3 382.9 364.8 397.6 371.6 397.9 380.2 397.9 383.1 397.9 386.6 398.3 391 399.7 396.5 424.9 369.5 426.2 358.5 426.7 361.3 427.1 364.9 434.7 369.3 434.8 374.8 442.5 347.8 442.9 350.6 455.5 354.2 455.7 358.6 455.9 364.1 456.5 370.9 463.5 337.3 463.5 340.1 486.1 326.3 490.5 329 491.2 332.5 515.8 336.8 532.2 342.2 537.4 348.9 546 357.4 561 360.1 574.3 363.6 575 346.7 575.1 349.5 575.1 335.7 575.1 338.5 575.1 342 575.1 346.5 575.1 352 575.1 325 575.5 327.8 575.6 331.2 575.9 335.5 584 340.9 585.2 347.7 597.3 314.7 599 317.5 617.7 303.7 619.4 306.5 621.4 292.9 621.5 295.8 634.5 299.3 649.4 303.7 651.9 309.2 669.3 282.2 677.8 285 678.1 288.5 686 271.6 704.6 260.5 705.5 263.3 706.7 266.7 715.4 271.1 742.3 276.5 742.8 283.2 750.7 291.6 754.9 294.4 761.6 280.6 761.7 283.5 768 287 768.7 269.7 769 272.6 770.7 258.8 778.5 261.6 786.5 247.8 786.5 250.6 786.8 254.1 794.5 236.9 795.1 239.7 820.8 243.2 823.7 226 824.3 228.8 840.5 232.3 840.6 236.7 862.1 215.2 863.1 217.9 867.9 221.4 868.8 204.5 869.9 193.5 880.7 182.6 883.2 185.5 883.4 189 885.7 193.4 895.7 198.9 896.6 205.8 896.7 214.3 899.9 217.2 900 220.7 913.8 225.1 922.9 203.5 923.3 192.7 923.4 195.5 925.2 182 926.1 171.1 926.2 174 926.2 160.2 926.2 149.1 926.2 152 927.9 138.2 927.9 141 927.9 127.2 928 116.1"/><line x1="88" x2="110" y1="102" y2="102" stroke="#16a34a" stroke-width="2.5"/><text x="116" y="106" fill="#374151" font-size="11.5">equity</text><line x1="88" x2="110" y1="118" y2="118" stroke="#d97706" stroke-width="2.5" opacity=".8"/><text x="116" y="122" fill="#374151" font-size="11.5">price</text><text x="78" y="502" fill="#6b7280" font-size="12" text-anchor="start">2026-01-01</text><text x="934" y="502" fill="#6b7280" font-size="12" text-anchor="end">2026-01-31</text></svg>