<?xml version="1.0" encoding="UTF-8"?>
<svg xmlns="http://www.w3.org/2000/svg" width="1100" height="560" viewBox="0 0 1100 560" font-family="ui-sans-serif, system-ui, sans-serif">
  <rect width="1100" height="560" fill="#ffffff"/>
  <text x="80" y="28" font-size="18" font-weight="700" fill="#111827">Zone Recovery — WLFIUSDC fee-tier comparison (best setting)</text>
  <text x="80" y="48" font-size="12.5" fill="#6b7280">lev 20 · ratio 4 · gap 20% · maxSteps 6 · maxDD 40% · random  ·  equity per fee tier vip 0..9</text>
  <text x="80" y="68" font-size="12.5" font-weight="600" fill="#1d4ed8">USDC margin · BNB −10%</text>
  <line x1="80" y1="508.0" x2="932" y2="508.0" stroke="#e5e7eb" stroke-width="1"/><text x="70" y="512.0" text-anchor="end" font-size="12" fill="#6b7280">0.00</text><line x1="80" y1="424.0" x2="932" y2="424.0" stroke="#e5e7eb" stroke-width="1"/><text x="70" y="428.0" text-anchor="end" font-size="12" fill="#6b7280">4540</text><line x1="80" y1="340.0" x2="932" y2="340.0" stroke="#e5e7eb" stroke-width="1"/><text x="70" y="344.0" text-anchor="end" font-size="12" fill="#6b7280">9081</text><line x1="80" y1="256.0" x2="932" y2="256.0" stroke="#e5e7eb" stroke-width="1"/><text x="70" y="260.0" text-anchor="end" font-size="12" fill="#6b7280">13621</text><line x1="80" y1="172.0" x2="932" y2="172.0" stroke="#e5e7eb" stroke-width="1"/><text x="70" y="176.0" text-anchor="end" font-size="12" fill="#6b7280">18161</text><line x1="80" y1="88.0" x2="932" y2="88.0" stroke="#e5e7eb" stroke-width="1"/><text x="70" y="92.0" text-anchor="end" font-size="12" fill="#6b7280">22702</text>
  <line x1="80" y1="323.0" x2="932" y2="323.0" stroke="#9ca3af" stroke-width="1.5" stroke-dasharray="6 4"/>
  <polyline points="80.0,323.0 80.0,311.0 102.5,298.9 104.6,302.2 107.2,306.2 113.6,311.2 113.8,317.5 114.6,325.4 117.7,289.4 117.9,292.6 119.2,277.9 120.3,281.2 120.4,285.3 121.3,266.5 121.3,269.8 121.4,273.9 121.4,279.0 121.5,285.4 122.3,293.4 122.4,303.4 127.8,291.6 127.8,294.9 130.4,280.1 138.9,268.3 159.0,271.6 159.0,275.6 166.4,280.6 167.1,286.9 167.8,294.8 168.0,304.6 169.1,307.8 169.3,311.8 179.6,316.8 180.8,323.1 184.1,331.0 185.2,340.8 195.2,344.1 197.0,348.2 206.1,353.3 211.6,359.7 216.5,367.7 218.8,377.7 221.8,381.0 240.8,385.1 240.8,390.3 240.8,396.7 240.9,404.7 254.1,414.7 255.0,418.0 256.3,422.1 259.4,427.2 261.7,433.6 262.3,404.3 262.6,392.2 265.1,380.4 265.6,383.7 265.8,387.7 271.0,369.3 287.9,357.5 288.8,360.7 290.3,364.7 291.3,369.7 295.1,376.0 300.3,383.9 330.8,393.7 358.5,397.0 358.6,401.1 360.6,406.2 360.8,412.6 376.2,420.6 376.5,430.6 376.5,433.6 376.6,437.3 376.9,441.9 378.4,447.6 404.8,421.3 406.1,409.3 406.7,412.5 407.2,416.6 415.1,421.8 415.2,428.2 423.2,398.8 423.7,402.1 436.9,406.2 437.1,411.3 437.3,417.7 437.9,425.7 445.2,389.0 445.3,392.3 468.9,377.3 473.5,380.5 474.3,384.5 500.1,389.5 517.3,395.8 522.7,403.7 531.8,413.5 547.4,416.7 561.4,420.7 562.2,402.3 562.2,405.6 562.2,390.6 562.2,393.8 562.2,397.9 562.2,403.1 562.2,409.5 562.2,380.1 562.6,383.3 562.8,387.4 563.0,392.4 571.6,398.7 572.8,406.5 585.5,370.6 587.3,373.9 606.9,358.8 608.7,362.0 610.7,347.3 610.8,350.6 624.4,354.7 640.1,359.8 642.7,366.2 661.0,336.9 669.9,340.1 670.2,344.1 678.4,325.7 698.0,313.7 698.9,316.9 700.1,320.9 709.3,325.9 737.5,332.2 737.9,340.1 746.2,349.9 750.6,353.2 757.7,338.1 757.7,341.4 764.4,345.5 765.1,326.7 765.4,330.0 767.2,315.0 775.4,318.3 783.7,303.2 783.7,306.5 784.1,310.6 792.2,291.8 792.8,295.1 819.7,299.2 822.7,280.4 823.4,283.7 840.3,287.8 840.4,292.9 863.0,269.4 864.1,272.6 869.0,276.7 870.0,258.2 871.2,246.2 882.5,234.4 885.1,237.7 885.3,241.8 887.8,246.9 898.2,253.3 899.2,261.3 899.3,271.4 902.6,274.6 902.7,278.7 917.1,283.9 926.7,260.4 927.1,248.6 927.2,251.8 929.1,237.1 930.1,225.3 930.1,228.6 930.1,213.5 930.2,201.5 930.2,204.8 931.9,189.7 932.0,193.0 932.0,178.0 932.0,165.9" fill="none" stroke="#2563eb" stroke-width="1.8" stroke-linejoin="round" opacity="0.9"/>
  <polyline points="80.0,323.0 80.0,311.0 102.5,298.9 104.6,302.2 107.2,306.2 113.6,311.2 113.8,317.5 114.6,325.4 117.7,289.4 117.9,292.6 119.2,277.9 120.3,281.2 120.4,285.3 121.3,266.5 121.3,269.8 121.4,273.9 121.4,279.0 121.5,285.4 122.3,293.4 122.4,303.4 127.8,291.6 127.8,294.9 130.4,280.1 138.9,268.3 159.0,271.6 159.0,275.6 166.4,280.6 167.1,286.9 167.8,294.8 168.0,304.6 169.1,307.8 169.3,311.8 179.6,316.8 180.8,323.1 184.1,331.0 185.2,340.8 195.2,344.1 197.0,348.2 206.1,353.3 211.6,359.7 216.5,367.7 218.8,377.7 221.8,381.0 240.8,385.1 240.8,390.3 240.8,396.7 240.9,404.7 254.1,414.7 255.0,418.0 256.3,422.1 259.4,427.2 261.7,433.6 262.3,404.3 262.6,392.2 265.1,380.4 265.6,383.7 265.8,387.7 271.0,369.3 287.9,357.5 288.8,360.7 290.3,364.7 291.3,369.7 295.1,376.0 300.3,383.9 330.8,393.7 358.5,397.0 358.6,401.1 360.6,406.2 360.8,412.6 376.2,420.6 376.5,430.6 376.5,433.6 376.6,437.3 376.9,441.9 378.4,447.6 404.8,421.3 406.1,409.3 406.7,412.5 407.2,416.6 415.1,421.8 415.2,428.2 423.2,398.8 423.7,402.1 436.9,406.2 437.1,411.3 437.3,417.7 437.9,425.7 445.2,389.0 445.3,392.3 468.9,377.3 473.5,380.5 474.3,384.5 500.1,389.5 517.3,395.8 522.7,403.7 531.8,413.5 547.4,416.7 561.4,420.7 562.2,402.3 562.2,405.6 562.2,390.6 562.2,393.8 562.2,397.9 562.2,403.1 562.2,409.5 562.2,380.1 562.6,383.3 562.8,387.4 563.0,392.4 571.6,398.7 572.8,406.5 585.5,370.6 587.3,373.9 606.9,358.8 608.7,362.0 610.7,347.3 610.8,350.6 624.4,354.7 640.1,359.8 642.7,366.2 661.0,336.9 669.9,340.1 670.2,344.1 678.4,325.7 698.0,313.7 698.9,316.9 700.1,320.9 709.3,325.9 737.5,332.2 737.9,340.1 746.2,349.9 750.6,353.2 757.7,338.1 757.7,341.4 764.4,345.5 765.1,326.7 765.4,330.0 767.2,315.0 775.4,318.3 783.7,303.2 783.7,306.5 784.1,310.6 792.2,291.8 792.8,295.1 819.7,299.2 822.7,280.4 823.4,283.7 840.3,287.8 840.4,292.9 863.0,269.4 864.1,272.6 869.0,276.7 870.0,258.2 871.2,246.2 882.5,234.4 885.1,237.7 885.3,241.8 887.8,246.9 898.2,253.3 899.2,261.3 899.3,271.4 902.6,274.6 902.7,278.7 917.1,283.9 926.7,260.4 927.1,248.6 927.2,251.8 929.1,237.1 930.1,225.3 930.1,228.6 930.1,213.5 930.2,201.5 930.2,204.8 931.9,189.7 932.0,193.0 932.0,178.0 932.0,165.9" fill="none" stroke="#dc2626" stroke-width="1.8" stroke-linejoin="round" opacity="0.9"/>
  <polyline points="80.0,323.0 80.0,310.9 102.5,298.9 104.6,302.0 107.2,306.0 113.6,311.0 113.8,317.2 114.6,324.9 117.7,288.8 117.9,292.0 119.2,277.2 120.3,280.5 120.4,284.5 121.3,265.6 121.3,268.9 121.4,272.9 121.4,278.0 121.5,284.3 122.3,292.2 122.4,302.1 127.8,290.3 127.8,293.4 130.4,278.6 138.9,266.8 159.0,270.0 159.0,274.0 166.4,278.9 167.1,285.1 167.8,292.9 168.0,302.6 169.1,305.7 169.3,309.7 179.6,314.7 180.8,320.9 184.1,328.6 185.2,338.3 195.2,341.5 197.0,345.6 206.1,350.6 211.6,357.0 216.5,364.9 218.8,374.7 221.8,378.0 240.8,382.0 240.8,387.1 240.8,393.4 240.9,401.3 254.1,411.2 255.0,414.4 256.3,418.5 259.4,423.5 261.7,429.9 262.3,400.4 262.6,388.3 265.1,376.5 265.6,379.7 265.8,383.6 271.0,365.1 287.9,353.3 288.8,356.5 290.3,360.5 291.3,365.4 295.1,371.6 300.3,379.4 330.8,389.1 358.5,392.3 358.6,396.3 360.6,401.4 360.8,407.7 376.2,415.6 376.5,425.5 376.5,428.6 376.6,432.5 376.9,437.3 378.4,443.4 404.8,415.2 406.1,403.1 406.7,406.3 407.2,410.4 415.1,415.4 415.2,421.8 423.2,392.3 423.7,395.5 436.9,399.6 437.1,404.7 437.3,411.0 437.9,418.9 445.2,382.0 445.3,385.3 468.9,370.2 473.5,373.3 474.3,377.3 500.1,382.3 517.3,388.5 522.7,396.2 531.8,405.9 547.4,409.1 561.4,413.1 562.2,394.6 562.2,397.8 562.2,382.7 562.2,385.9 562.2,390.0 562.2,395.0 562.2,401.4 562.2,371.9 562.6,375.1 562.8,379.1 563.0,384.0 571.6,390.2 572.8,398.0 585.5,361.9 587.3,365.1 606.9,350.0 608.7,353.2 610.7,338.4 610.8,341.6 624.4,345.7 640.1,350.7 642.7,357.1 661.0,327.6 669.9,330.8 670.2,334.8 678.4,316.3 698.0,304.2 698.9,307.4 700.1,311.3 709.3,316.3 737.5,322.5 737.9,330.3 746.2,339.9 750.6,343.2 757.7,328.1 757.7,331.3 764.4,335.4 765.1,316.5 765.4,319.7 767.2,304.7 775.4,307.9 783.7,292.8 783.7,296.0 784.1,300.1 792.2,281.2 792.8,284.5 819.7,288.5 822.7,269.7 823.4,272.9 840.3,276.9 840.4,282.0 863.0,258.4 864.1,261.6 869.0,265.6 870.0,247.1 871.2,235.0 882.5,223.2 885.1,226.4 885.3,230.4 887.8,235.5 898.2,241.8 899.2,249.7 899.3,259.6 902.6,262.8 902.7,266.9 917.1,271.9 926.7,248.4 927.1,236.5 927.2,239.7 929.1,224.9 930.1,213.1 930.1,216.3 930.1,201.2 930.2,189.2 930.2,192.4 931.9,177.3 932.0,180.5 932.0,165.4 932.0,153.4" fill="none" stroke="#16a34a" stroke-width="1.8" stroke-linejoin="round" opacity="0.9"/>
  <polyline points="80.0,323.0 80.0,310.9 102.5,298.8 104.6,301.9 107.2,305.9 113.6,310.8 113.8,316.9 114.6,324.6 117.7,288.4 117.9,291.5 119.2,276.7 120.3,279.9 120.4,283.9 121.3,265.0 121.3,268.2 121.4,272.2 121.4,277.2 121.5,283.4 122.3,291.2 122.4,301.0 127.8,289.1 127.8,292.3 130.4,277.5 138.9,265.6 159.0,268.7 159.0,272.7 166.4,277.6 167.1,283.7 167.8,291.4 168.0,300.9 169.1,304.1 169.3,308.0 179.6,312.9 180.8,319.0 184.1,326.7 185.2,336.3 195.2,339.5 197.0,343.5 206.1,348.5 211.6,354.8 216.5,362.6 218.8,372.3 221.8,375.6 240.8,379.6 240.8,384.6 240.8,390.8 240.9,398.6 254.1,408.4 255.0,411.6 256.3,415.6 259.4,420.6 261.7,426.9 262.3,397.3 262.6,385.2 265.1,373.3 265.6,376.5 265.8,380.4 271.0,361.9 287.9,350.0 288.8,353.1 290.3,357.1 291.3,362.0 295.1,368.1 300.3,375.8 330.8,385.3 358.5,388.6 358.6,392.6 360.6,397.6 360.8,403.8 376.2,411.6 376.5,421.4 376.5,424.6 376.6,428.6 376.9,433.6 378.4,439.9 404.8,410.3 406.1,398.2 406.7,401.4 407.2,405.4 415.1,410.4 415.2,416.7 423.2,387.1 423.7,390.3 436.9,394.3 437.1,399.3 437.3,405.6 437.9,413.4 445.2,376.4 445.3,379.6 468.9,364.5 473.5,367.7 474.3,371.6 500.1,376.5 517.3,382.6 522.7,390.3 531.8,399.9 547.4,403.0 561.4,406.9 562.2,388.4 562.2,391.6 562.2,376.5 562.2,379.7 562.2,383.7 562.2,388.7 562.2,394.9 562.2,365.4 562.6,368.5 562.8,372.4 563.0,377.3 571.6,383.5 572.8,391.1 585.5,354.9 587.3,358.1 606.9,343.0 608.7,346.1 610.7,331.3 610.8,334.5 624.4,338.5 640.1,343.5 642.7,349.8 661.0,320.2 669.9,323.4 670.2,327.3 678.4,308.7 698.0,296.6 698.9,299.8 700.1,303.7 709.3,308.6 737.5,314.7 737.9,322.4 746.2,332.0 750.6,335.2 757.7,320.1 757.7,323.3 764.4,327.3 765.1,308.4 765.4,311.6 767.2,296.4 775.4,299.6 783.7,284.5 783.7,287.7 784.1,291.7 792.2,272.8 792.8,276.0 819.7,280.0 822.7,261.1 823.4,264.3 840.3,268.3 840.4,273.3 863.0,249.6 864.1,252.8 869.0,256.7 870.0,238.1 871.2,226.0 882.5,214.2 885.1,217.4 885.3,221.4 887.8,226.4 898.2,232.6 899.2,240.5 899.3,250.2 902.6,253.4 902.7,257.4 917.1,262.4 926.7,238.8 927.1,226.9 927.2,230.1 929.1,215.2 930.1,203.4 930.1,206.6 930.1,191.4 930.2,179.3 930.2,182.5 931.9,167.4 932.0,170.6 932.0,155.4 932.0,143.3" fill="none" stroke="#d97706" stroke-width="1.8" stroke-linejoin="round" opacity="0.9"/>
  <polyline points="80.0,323.0 80.0,310.8 102.5,298.7 104.6,301.8 107.2,305.6 113.6,310.5 113.8,316.5 114.6,324.0 117.7,287.7 117.9,290.8 119.2,275.9 120.3,279.0 120.4,283.0 121.3,264.0 121.3,267.1 121.4,271.1 121.4,276.0 121.5,282.2 122.3,289.9 122.4,299.5 127.8,287.6 127.8,290.7 130.4,275.8 138.9,263.9 159.0,266.9 159.0,270.8 166.4,275.6 167.1,281.7 167.8,289.2 168.0,298.6 169.1,301.7 169.3,305.6 179.6,310.4 180.8,316.5 184.1,324.0 185.2,333.4 195.2,336.6 197.0,340.5 206.1,345.5 211.6,351.6 216.5,359.3 218.8,368.9 221.8,372.1 240.8,376.0 240.8,381.0 240.8,387.1 240.9,394.8 254.1,404.4 255.0,407.6 256.3,411.5 259.4,416.4 261.7,422.6 262.3,392.9 262.6,380.8 265.1,368.9 265.6,371.9 265.8,375.8 271.0,357.2 287.9,345.3 288.8,348.4 290.3,352.2 291.3,357.1 295.1,363.1 300.3,370.6 330.8,380.1 358.5,383.2 358.6,387.2 360.6,392.1 360.8,398.2 376.2,405.9 376.5,415.6 376.5,418.7 376.6,422.7 376.9,427.6 378.4,433.7 404.8,404.1 406.1,391.9 406.7,395.1 407.2,399.0 415.1,403.9 415.2,410.1 423.2,380.4 423.7,383.6 436.9,387.5 437.1,392.4 437.3,398.6 437.9,406.3 445.2,369.2 445.3,372.3 468.9,357.1 473.5,360.2 474.3,364.1 500.1,368.9 517.3,374.9 522.7,382.5 531.8,391.9 547.4,395.0 561.4,398.9 562.2,380.3 562.2,383.4 562.2,368.2 562.2,371.4 562.2,375.3 562.2,380.2 562.2,386.4 562.2,356.7 562.6,359.8 562.8,363.7 563.0,368.5 571.6,374.5 572.8,382.1 585.5,345.7 587.3,348.9 606.9,333.7 608.7,336.8 610.7,321.9 610.8,325.0 624.4,329.0 640.1,333.9 642.7,340.1 661.0,310.4 669.9,313.5 670.2,317.3 678.4,298.7 698.0,286.6 698.9,289.6 700.1,293.5 709.3,298.3 737.5,304.4 737.9,311.9 746.2,321.4 750.6,324.5 757.7,309.3 757.7,312.5 764.4,316.4 765.1,297.4 765.4,300.6 767.2,285.4 775.4,288.5 783.7,273.3 783.7,276.5 784.1,280.4 792.2,261.4 792.8,264.6 819.7,268.5 822.7,249.5 823.4,252.7 840.3,256.6 840.4,261.5 863.0,237.8 864.1,240.9 869.0,244.7 870.0,226.1 871.2,214.0 882.5,202.1 885.1,205.2 885.3,209.1 887.8,214.1 898.2,220.2 899.2,227.9 899.3,237.5 902.6,240.7 902.7,244.6 917.1,249.6 926.7,225.8 927.1,213.9 927.2,217.0 929.1,202.1 930.1,190.2 930.1,193.3 930.1,178.1 930.2,166.0 930.2,169.1 931.9,153.9 932.0,157.1 932.0,141.9 932.0,129.7" fill="none" stroke="#7c3aed" stroke-width="1.8" stroke-linejoin="round" opacity="0.9"/>
  <polyline points="80.0,323.0 80.0,310.8 102.5,298.7 104.6,301.7 107.2,305.6 113.6,310.4 113.8,316.4 114.6,324.0 117.7,287.6 117.9,290.7 119.2,275.8 120.3,278.9 120.4,282.8 121.3,263.8 121.3,267.0 121.4,270.9 121.4,275.8 121.5,281.9 122.3,289.6 122.4,299.2 127.8,287.3 127.8,290.4 130.4,275.5 138.9,263.5 159.0,266.6 159.0,270.5 166.4,275.3 167.1,281.3 167.8,288.8 168.0,298.2 169.1,301.3 169.3,305.2 179.6,310.0 180.8,316.0 184.1,323.5 185.2,332.9 195.2,336.1 197.0,340.0 206.1,344.9 211.6,351.1 216.5,358.7 218.8,368.3 221.8,371.5 240.8,375.4 240.8,380.3 240.8,386.5 240.9,394.1 254.1,403.7 255.0,406.9 256.3,410.8 259.4,415.7 261.7,421.9 262.3,392.2 262.6,380.0 265.1,368.1 265.6,371.2 265.8,375.0 271.0,356.4 287.9,344.4 288.8,347.5 290.3,351.4 291.3,356.2 295.1,362.2 300.3,369.7 330.8,379.1 358.5,382.3 358.6,386.2 360.6,391.1 360.8,397.3 376.2,404.9 376.5,414.5 376.5,417.7 376.6,421.6 376.9,426.5 378.4,432.7 404.8,403.0 406.1,390.8 406.7,393.9 407.2,397.9 415.1,402.8 415.2,408.9 423.2,379.2 423.7,382.4 436.9,386.3 437.1,391.2 437.3,397.4 437.9,405.0 445.2,367.9 445.3,371.0 468.9,355.8 473.5,358.9 474.3,362.8 500.1,367.6 517.3,373.6 522.7,381.1 531.8,390.5 547.4,393.6 561.4,397.5 562.2,378.8 562.2,382.0 562.2,366.8 562.2,369.9 562.2,373.8 562.2,378.7 562.2,384.9 562.2,355.2 562.6,358.3 562.8,362.1 563.0,366.9 571.6,373.0 572.8,380.5 585.5,344.1 587.3,347.2 606.9,332.0 608.7,335.1 610.7,320.2 610.8,323.4 624.4,327.3 640.1,332.2 642.7,338.3 661.0,308.6 669.9,311.7 670.2,315.6 678.4,296.9 698.0,284.8 698.9,287.9 700.1,291.7 709.3,296.5 737.5,302.6 737.9,310.1 746.2,319.5 750.6,322.6 757.7,307.4 757.7,310.6 764.4,314.5 765.1,295.5 765.4,298.6 767.2,283.4 775.4,286.6 783.7,271.4 783.7,274.5 784.1,278.4 792.2,259.4 792.8,262.6 819.7,266.5 822.7,247.5 823.4,250.6 840.3,254.6 840.4,259.5 863.0,235.7 864.1,238.8 869.0,242.6 870.0,224.0 871.2,211.8 882.5,199.9 885.1,203.1 885.3,207.0 887.8,211.9 898.2,218.0 899.2,225.7 899.3,235.3 902.6,238.5 902.7,242.4 917.1,247.3 926.7,223.5 927.1,211.6 927.2,214.7 929.1,199.8 930.1,187.9 930.1,191.0 930.1,175.8 930.2,163.6 930.2,166.8 931.9,151.6 932.0,154.7 932.0,139.5 932.0,127.3" fill="none" stroke="#0891b2" stroke-width="1.8" stroke-linejoin="round" opacity="0.9"/>
  <polyline points="80.0,323.0 80.0,310.8 102.5,298.7 104.6,301.7 107.2,305.6 113.6,310.4 113.8,316.4 114.6,323.9 117.7,287.5 117.9,290.6 119.2,275.7 120.3,278.8 120.4,282.7 121.3,263.7 121.3,266.8 121.4,270.8 121.4,275.7 121.5,281.8 122.3,289.5 122.4,299.0 127.8,287.1 127.8,290.2 130.4,275.3 138.9,263.3 159.0,266.4 159.0,270.3 166.4,275.1 167.1,281.1 167.8,288.6 168.0,298.0 169.1,301.0 169.3,304.9 179.6,309.7 180.8,315.7 184.1,323.2 185.2,332.6 195.2,335.7 197.0,339.7 206.1,344.6 211.6,350.7 216.5,358.4 218.8,367.9 221.8,371.1 240.8,375.0 240.8,379.9 240.8,386.0 240.9,393.7 254.1,403.2 255.0,406.4 256.3,410.3 259.4,415.2 261.7,421.3 262.3,391.6 262.6,379.5 265.1,367.5 265.6,370.6 265.8,374.4 271.0,355.8 287.9,343.9 288.8,346.9 290.3,350.8 291.3,355.6 295.1,361.6 300.3,369.1 330.8,378.5 358.5,381.6 358.6,385.6 360.6,390.5 360.8,396.6 376.2,404.3 376.5,413.8 376.5,417.0 376.6,420.9 376.9,425.8 378.4,431.9 404.8,402.2 406.1,390.0 406.7,393.2 407.2,397.1 415.1,402.0 415.2,408.1 423.2,378.4 423.7,381.6 436.9,385.5 437.1,390.4 437.3,396.5 437.9,404.2 445.2,367.0 445.3,370.2 468.9,354.9 473.5,358.0 474.3,361.9 500.1,366.7 517.3,372.7 522.7,380.2 531.8,389.6 547.4,392.6 561.4,396.5 562.2,377.8 562.2,381.0 562.2,365.8 562.2,368.9 562.2,372.8 562.2,377.7 562.2,383.9 562.2,354.1 562.6,357.2 562.8,361.1 563.0,365.9 571.6,371.9 572.8,379.4 585.5,343.0 587.3,346.1 606.9,330.9 608.7,334.0 610.7,319.1 610.8,322.2 624.4,326.1 640.1,331.0 642.7,337.2 661.0,307.5 669.9,310.5 670.2,314.4 678.4,295.7 698.0,283.6 698.9,286.6 700.1,290.5 709.3,295.3 737.5,301.3 737.9,308.8 746.2,318.2 750.6,321.3 757.7,306.1 757.7,309.3 764.4,313.2 765.1,294.2 765.4,297.3 767.2,282.1 775.4,285.2 783.7,270.0 783.7,273.1 784.1,277.1 792.2,258.0 792.8,261.2 819.7,265.1 822.7,246.1 823.4,249.2 840.3,253.2 840.4,258.1 863.0,234.3 864.1,237.4 869.0,241.2 870.0,222.6 871.2,210.4 882.5,198.5 885.1,201.6 885.3,205.5 887.8,210.4 898.2,216.5 899.2,224.2 899.3,233.8 902.6,236.9 902.7,240.8 917.1,245.7 926.7,222.0 927.1,210.0 927.2,213.1 929.1,198.2 930.1,186.3 930.1,189.4 930.1,174.2 930.2,162.0 930.2,165.2 931.9,149.9 932.0,153.1 932.0,137.9 932.0,125.7" fill="none" stroke="#db2777" stroke-width="1.8" stroke-linejoin="round" opacity="0.9"/>
  <polyline points="80.0,323.0 80.0,310.8 102.5,298.6 104.6,301.7 107.2,305.5 113.6,310.3 113.8,316.3 114.6,323.8 117.7,287.4 117.9,290.4 119.2,275.5 120.3,278.6 120.4,282.6 121.3,263.5 121.3,266.7 121.4,270.6 121.4,275.5 121.5,281.6 122.3,289.2 122.4,298.7 127.8,286.8 127.8,289.9 130.4,275.0 138.9,263.0 159.0,266.1 159.0,269.9 166.4,274.7 167.1,280.7 167.8,288.2 168.0,297.5 169.1,300.6 169.3,304.4 179.6,309.2 180.8,315.2 184.1,322.7 185.2,332.1 195.2,335.2 197.0,339.1 206.1,344.0 211.6,350.1 216.5,357.7 218.8,367.3 221.8,370.4 240.8,374.3 240.8,379.2 240.8,385.3 240.9,393.0 254.1,402.5 255.0,405.6 256.3,409.5 259.4,414.4 261.7,420.5 262.3,390.8 262.6,378.6 265.1,366.7 265.6,369.8 265.8,373.6 271.0,354.9 287.9,343.0 288.8,346.1 290.3,349.9 291.3,354.7 295.1,360.7 300.3,368.2 330.8,377.5 358.5,380.6 358.6,384.6 360.6,389.4 360.8,395.6 376.2,403.2 376.5,412.7 376.5,415.9 376.6,419.8 376.9,424.7 378.4,430.8 404.8,401.0 406.1,388.9 406.7,392.0 407.2,395.9 415.1,400.8 415.2,406.9 423.2,377.2 423.7,380.3 436.9,384.2 437.1,389.1 437.3,395.2 437.9,402.8 445.2,365.7 445.3,368.8 468.9,353.6 473.5,356.6 474.3,360.5 500.1,365.3 517.3,371.2 522.7,378.7 531.8,388.1 547.4,391.2 561.4,395.0 562.2,376.3 562.2,379.5 562.2,364.2 562.2,367.4 562.2,371.3 562.2,376.2 562.2,382.3 562.2,352.5 562.6,355.6 562.8,359.4 563.0,364.2 571.6,370.2 572.8,377.7 585.5,341.3 587.3,344.4 606.9,329.2 608.7,332.2 610.7,317.3 610.8,320.4 624.4,324.4 640.1,329.2 642.7,335.4 661.0,305.6 669.9,308.7 670.2,312.5 678.4,293.9 698.0,281.7 698.9,284.7 700.1,288.6 709.3,293.4 737.5,299.4 737.9,306.9 746.2,316.2 750.6,319.3 757.7,304.1 757.7,307.2 764.4,311.1 765.1,292.1 765.4,295.2 767.2,280.0 775.4,283.1 783.7,267.9 783.7,271.0 784.1,275.0 792.2,255.9 792.8,259.1 819.7,263.0 822.7,243.9 823.4,247.1 840.3,251.0 840.4,255.9 863.0,232.1 864.1,235.1 869.0,239.0 870.0,220.3 871.2,208.1 882.5,196.2 885.1,199.3 885.3,203.2 887.8,208.1 898.2,214.2 899.2,221.9 899.3,231.4 902.6,234.5 902.7,238.4 917.1,243.3 926.7,219.5 927.1,207.6 927.2,210.7 929.1,195.7 930.1,183.8 930.1,186.9 930.1,171.7 930.2,159.5 930.2,162.7 931.9,147.4 932.0,150.6 932.0,135.3 932.0,123.1" fill="none" stroke="#65a30d" stroke-width="1.8" stroke-linejoin="round" opacity="0.9"/>
  <polyline points="80.0,323.0 80.0,310.8 102.5,298.6 104.6,301.7 107.2,305.5 113.6,310.3 113.8,316.3 114.6,323.7 117.7,287.3 117.9,290.4 119.2,275.4 120.3,278.5 120.4,282.4 121.3,263.4 121.3,266.5 121.4,270.4 121.4,275.3 121.5,281.4 122.3,289.0 122.4,298.6 127.8,286.6 127.8,289.7 130.4,274.7 138.9,262.8 159.0,265.9 159.0,269.7 166.4,274.5 167.1,280.4 167.8,287.9 168.0,297.3 169.1,300.3 169.3,304.1 179.6,308.9 180.8,314.9 184.1,322.4 185.2,331.7 195.2,334.8 197.0,338.7 206.1,343.6 211.6,349.7 216.5,357.3 218.8,366.9 221.8,370.0 240.8,373.9 240.8,378.8 240.8,384.9 240.9,392.5 254.1,402.0 255.0,405.1 256.3,409.1 259.4,413.9 261.7,420.0 262.3,390.3 262.6,378.1 265.1,366.1 265.6,369.2 265.8,373.0 271.0,354.4 287.9,342.4 288.8,345.5 290.3,349.3 291.3,354.1 295.1,360.1 300.3,367.5 330.8,376.9 358.5,380.0 358.6,383.9 360.6,388.8 360.8,394.9 376.2,402.5 376.5,412.0 376.5,415.2 376.6,419.1 376.9,423.9 378.4,430.0 404.8,400.3 406.1,388.1 406.7,391.2 407.2,395.1 415.1,400.0 415.2,406.1 423.2,376.4 423.7,379.5 436.9,383.4 437.1,388.3 437.3,394.4 437.9,402.0 445.2,364.8 445.3,367.9 468.9,352.7 473.5,355.7 474.3,359.6 500.1,364.3 517.3,370.3 522.7,377.8 531.8,387.1 547.4,390.2 561.4,394.0 562.2,375.3 562.2,378.5 562.2,363.2 562.2,366.4 562.2,370.3 562.2,375.1 562.2,381.2 562.2,351.5 562.6,354.5 562.8,358.4 563.0,363.2 571.6,369.1 572.8,376.6 585.5,340.2 587.3,343.3 606.9,328.0 608.7,331.1 610.7,316.2 610.8,319.3 624.4,323.2 640.1,328.1 642.7,334.2 661.0,304.4 669.9,307.5 670.2,311.3 678.4,292.6 698.0,280.5 698.9,283.5 700.1,287.4 709.3,292.1 737.5,298.1 737.9,305.6 746.2,314.9 750.6,318.0 757.7,302.8 757.7,305.9 764.4,309.8 765.1,290.8 765.4,293.9 767.2,278.7 775.4,281.8 783.7,266.6 783.7,269.7 784.1,273.6 792.2,254.6 792.8,257.7 819.7,261.6 822.7,242.5 823.4,245.7 840.3,249.6 840.4,254.4 863.0,230.6 864.1,233.7 869.0,237.5 870.0,218.9 871.2,206.7 882.5,194.7 885.1,197.8 885.3,201.8 887.8,206.6 898.2,212.7 899.2,220.4 899.3,229.9 902.6,233.0 902.7,236.9 917.1,241.8 926.7,218.0 927.1,206.0 927.2,209.1 929.1,194.2 930.1,182.2 930.1,185.3 930.1,170.1 930.2,157.9 930.2,161.0 931.9,145.8 932.0,148.9 932.0,133.7 932.0,121.5" fill="none" stroke="#475569" stroke-width="1.8" stroke-linejoin="round" opacity="0.9"/>
  <polyline points="80.0,323.0 80.0,310.8 102.5,298.6 104.6,301.7 107.2,305.5 113.6,310.2 113.8,316.2 114.6,323.7 117.7,287.2 117.9,290.2 119.2,275.3 120.3,278.4 120.4,282.3 121.3,263.2 121.3,266.4 121.4,270.2 121.4,275.1 121.5,281.2 122.3,288.8 122.4,298.3 127.8,286.3 127.8,289.4 130.4,274.4 138.9,262.5 159.0,265.5 159.0,269.4 166.4,274.1 167.1,280.1 167.8,287.5 168.0,296.9 169.1,299.9 169.3,303.7 179.6,308.5 180.8,314.5 184.1,321.9 185.2,331.2 195.2,334.3 197.0,338.2 206.1,343.1 211.6,349.2 216.5,356.8 218.8,366.3 221.8,369.4 240.8,373.3 240.8,378.1 240.8,384.2 240.9,391.8 254.1,401.3 255.0,404.4 256.3,408.3 259.4,413.2 261.7,419.3 262.3,389.5 262.6,377.3 265.1,365.4 265.6,368.4 265.8,372.2 271.0,353.5 287.9,341.6 288.8,344.6 290.3,348.5 291.3,353.2 295.1,359.2 300.3,366.6 330.8,376.0 358.5,379.1 358.6,383.0 360.6,387.8 360.8,393.9 376.2,401.5 376.5,411.0 376.5,414.1 376.6,418.0 376.9,422.9 378.4,429.0 404.8,399.2 406.1,387.0 406.7,390.1 407.2,394.0 415.1,398.9 415.2,404.9 423.2,375.2 423.7,378.3 436.9,382.2 437.1,387.0 437.3,393.1 437.9,400.7 445.2,363.5 445.3,366.6 468.9,351.4 473.5,354.4 474.3,358.2 500.1,363.0 517.3,369.0 522.7,376.4 531.8,385.7 547.4,388.8 561.4,392.6 562.2,373.9 562.2,377.0 562.2,361.8 562.2,364.9 562.2,368.8 562.2,373.7 562.2,379.7 562.2,350.0 562.6,353.0 562.8,356.8 563.0,361.6 571.6,367.6 572.8,375.0 585.5,338.5 587.3,341.7 606.9,326.4 608.7,329.5 610.7,314.5 610.8,317.6 624.4,321.5 640.1,326.4 642.7,332.5 661.0,302.7 669.9,305.7 670.2,309.6 678.4,290.9 698.0,278.7 698.9,281.7 700.1,285.6 709.3,290.3 737.5,296.3 737.9,303.7 746.2,313.1 750.6,316.2 757.7,300.9 757.7,304.0 764.4,307.9 765.1,288.9 765.4,292.0 767.2,276.7 775.4,279.9 783.7,264.6 783.7,267.7 784.1,271.6 792.2,252.6 792.8,255.7 819.7,259.6 822.7,240.5 823.4,243.6 840.3,247.5 840.4,252.4 863.0,228.6 864.1,231.6 869.0,235.4 870.0,216.7 871.2,204.6 882.5,192.6 885.1,195.7 885.3,199.6 887.8,204.5 898.2,210.5 899.2,218.1 899.3,227.6 902.6,230.8 902.7,234.7 917.1,239.5 926.7,215.7 927.1,203.7 927.2,206.8 929.1,191.9 930.1,179.9 930.1,183.0 930.1,167.8 930.2,155.6 930.2,158.7 931.9,143.4 932.0,146.6 932.0,131.3 932.0,119.1" fill="none" stroke="#ea580c" stroke-width="1.8" stroke-linejoin="round" opacity="0.9"/>
  <line x1="950" y1="94" x2="972" y2="94" stroke="#ea580c" stroke-width="3"/><text x="980" y="98" font-size="12.5" fill="#374151">vip 9  21020</text>
  <line x1="950" y1="116" x2="972" y2="116" stroke="#475569" stroke-width="3"/><text x="980" y="120" font-size="12.5" fill="#374151">vip 8  20891</text>
  <line x1="950" y1="138" x2="972" y2="138" stroke="#65a30d" stroke-width="3"/><text x="980" y="142" font-size="12.5" fill="#374151">vip 7  20802</text>
  <line x1="950" y1="160" x2="972" y2="160" stroke="#db2777" stroke-width="3"/><text x="980" y="164" font-size="12.5" fill="#374151">vip 6  20664</text>
  <line x1="950" y1="182" x2="972" y2="182" stroke="#0891b2" stroke-width="3"/><text x="980" y="186" font-size="12.5" fill="#374151">vip 5  20575</text>
  <line x1="950" y1="204" x2="972" y2="204" stroke="#7c3aed" stroke-width="3"/><text x="980" y="208" font-size="12.5" fill="#374151">vip 4  20446</text>
  <line x1="950" y1="226" x2="972" y2="226" stroke="#d97706" stroke-width="3"/><text x="980" y="230" font-size="12.5" fill="#374151">vip 3  19710</text>
  <line x1="950" y1="248" x2="972" y2="248" stroke="#16a34a" stroke-width="3"/><text x="980" y="252" font-size="12.5" fill="#374151">vip 2  19168</text>
  <line x1="950" y1="270" x2="972" y2="270" stroke="#2563eb" stroke-width="3"/><text x="980" y="274" font-size="12.5" fill="#374151">vip 0  18489</text>
  <line x1="950" y1="292" x2="972" y2="292" stroke="#dc2626" stroke-width="3"/><text x="980" y="296" font-size="12.5" fill="#374151">vip 1  18489</text>
  <text x="80" y="542" text-anchor="start" font-size="12" fill="#6b7280">2026-01-02</text><text x="932" y="542" text-anchor="end" font-size="12" fill="#6b7280">2026-01-31</text>
</svg>
