<svg xmlns="http://www.w3.org/2000/svg" width="1000" height="520" font-family="ui-sans-serif, system-ui, sans-serif" viewBox="0 0 1000 520"><rect width="1000" height="520" fill="#fff"/><text x="78" y="28" fill="#111827" font-size="18" font-weight="700">Zone Recovery — SOLUSDT best setting (equity / PnL)</text><text x="78" y="48" fill="#6b7280" font-size="12.5">lev 5 · ratio 4 · gap 20% · maxSteps 4 · maxDD 20% · random · vip 9 · 3 series, 100.0% win · vol $422465641 ($13627933/day) · fees $64637</text><text x="78" y="68" fill="#1d4ed8" font-size="12.5" font-weight="600">USDT · BNB −10% · taker 0.0153%</text><text x="934" y="28" fill="#16a34a" font-size="18" font-weight="700" text-anchor="end">+18314850 USDT (+18.31%)</text><line x1="78" x2="934" y1="468" y2="468" stroke="#e5e7eb" stroke-width="1"/><text x="68" y="472" fill="#6b7280" font-size="12" text-anchor="end">0.00</text><line x1="78" x2="934" y1="392" y2="392" stroke="#e5e7eb" stroke-width="1"/><text x="68" y="396" fill="#6b7280" font-size="12" text-anchor="end">25898946</text><line x1="78" x2="934" y1="316" y2="316" stroke="#e5e7eb" stroke-width="1"/><text x="68" y="320" fill="#6b7280" font-size="12" text-anchor="end">51797892</text><line x1="78" x2="934" y1="240" y2="240" stroke="#e5e7eb" stroke-width="1"/><text x="68" y="244" fill="#6b7280" font-size="12" text-anchor="end">77696838</text><line x1="78" x2="934" y1="164" y2="164" stroke="#e5e7eb" stroke-width="1"/><text x="68" y="168" fill="#6b7280" font-size="12" text-anchor="end">103595784</text><line x1="78" x2="934" y1="88" y2="88" stroke="#e5e7eb" stroke-width="1"/><text x="68" y="92" fill="#6b7280" font-size="12" text-anchor="end">129494729</text><line x1="78" x2="934" y1="174.6" y2="174.6" stroke="#9ca3af" stroke-dasharray="6 4" stroke-width="1.5"/><text x="934" y="168.6" fill="#6b7280" font-size="11" text-anchor="end">start 100000000</text><polyline fill="none" stroke="#d97706" stroke-linejoin="round" stroke-width="1.2" points="78 263.1 78.5 260.3 79 260.1 79.4 256.6 79.9 258.8 80.4 260.9 81 261.8 81.7 259.6 82.5 259.7 83.1 260.7 83.7 261.2 84.4 260.6 85 259.2 85.8 261 86.3 261.8 86.7 263.1 87.1 264.7 87.4 264.8 87.9 263.6 88.5 261.4 89 261 89.5 260.8 90 260 90.6 260.8 91 261.2 91.5 261.2 91.9 260.3 92.4 260.6 93 261.5 93.4 260.7 93.9 261.9 94.4 261.9 94.7 263.4 95.2 262.6 95.7 262.1 96.1 261.6 96.4 261.3 96.8 264.1 97.1 263.1 97.6 264.4 97.9 262.9 98.1 261.8 98.2 258.6 98.4 258.7 98.8 259.1 99.1 259.3 99.6 259.2 100 258.7 100.6 257.7 100.9 256.4 101.3 257.1 101.7 257.6 102.3 258.5 103 257.9 103.6 257.3 104.2 256.1 104.5 255.1 104.8 252 105 249 105.2 248.9 105.4 248.4 105.7 250 106 249.4 106.5 251.8 106.9 249.6 107.2 252.1 107.5 253.4 108 254.5 108.4 254.8 108.8 253.2 109.1 251 109.3 245.9 109.5 247.8 109.8 244.9 110 244.7 110.2 244.7 110.5 246.7 110.9 247.4 111.3 248.1 111.8 248.7 112.2 248.3 112.6 245.7 113.1 245.8 113.5 245.9 113.9 245.4 114.3 248.3 114.7 248.1 115.1 245.5 115.4 245.1 115.7 243.4 116.1 243.4 116.2 237.4 116.3 238.1 116.5 238.8 116.8 238.2 116.9 231.3 117 233.8 117.2 232.4 117.3 233 117.5 234.5 117.7 235.5 118 235 118.3 237.3 118.6 238.9 118.8 240 119.1 240.9 119.4 240.9 119.8 241 120.1 240.7 120.4 239.5 120.8 239.8 121.1 239.4 121.4 239.3 121.8 238.4 122.1 243.4 122.1 246.3 122.3 245.2 122.4 248.1 122.5 243.4 122.6 241.1 122.7 234.2 122.8 237 122.9 236.3 123 238.1 123.2 239.4 123.3 245.7 123.5 239.3 123.6 234 123.8 233.4 124 237.1 124.2 237.3 124.3 229.6 124.3 227.1 124.4 230.4 124.6 228.3 124.6 221.6 124.7 219.7 124.8 223.4 124.9 225.8 125 227.8 125.2 223.5 125.3 221.4 125.5 219.8 125.5 218.5 125.7 221.5 125.8 222.3 126.1 222 126.3 221.3 126.5 219.9 126.7 218.1 127 223.2 127.3 223.5 127.4 224.8 127.7 224.3 128 220.7 128.3 220.2 128.6 219.5 128.9 218.2 129.2 219.7 129.6 222.3 129.9 222.6 130.4 219.4 130.8 218.6 131 212.1 131.1 212.7 131.3 213.7 131.6 213.7 131.9 212.1 132.2 214.4 132.6 214.2 132.9 216.4 133.3 214.8 133.6 214 134 213.2 134.4 215 134.8 214.6 135.3 213.6 135.7 215.9 136.1 213.5 136.5 211.7 136.9 214.6 137.2 216.5 137.6 210.9 138 214 138.4 214.4 138.9 216 139.3 216.4 139.7 219.1 139.9 218.6 140.3 217.3 140.7 219.2 141.1 222.6 141.4 222.1 141.6 225.4 141.8 228.6 141.9 230.4 142.1 228.6 142.3 229.3 142.6 231.3 142.9 228 143.2 226.1 143.4 224.7 143.8 226.1 144.2 224.8 144.4 221.5 144.8 223.2 145.3 224.3 145.9 224.3 146.4 225.9 147 225.7 147.6 224.9 148.1 225.1 148.5 223.4 148.9 221.8 149.4 222.4 149.8 219.8 150 218.4 150.3 219.2 150.6 219.7 151 219.9 151.5 219.6 151.9 218.9 152.4 218.4 152.8 218.9 153.3 218.6 154 218.9 154.5 217.6 155.1 219.3 156 219.1 156.6 221 157.4 218.6 157.9 214.9 158.1 214.1 158.5 212.5 158.9 212.2 159.2 207.6 159.4 209.9 159.7 209.2 160.1 207.9 160.5 208.8 160.9 207.1 161 203.4 161.1 202.5 161.3 203.8 161.5 204.5 161.8 203.8 162 203.7 162.3 203.6 162.6 206.9 162.9 208.4 163.2 205.9 163.6 206.4 164 208.5 164.5 206.5 164.8 204.9 165.2 203.6 165.4 201.9 165.8 200.9 166.1 201.5 166.5 203.6 166.9 203 167.4 203.8 167.9 202.4 168.2 200.9 168.5 203.6 168.7 206.6 169 206.6 169.4 206.8 169.9 205.2 170.1 209.8 170.4 207.8 170.8 205.4 171.2 204.7 171.6 203.9 171.9 204.1 172.3 203 172.5 201.5 172.8 203.9 173.2 201.5 173.6 202.5 173.9 202 174.2 203.6 174.6 203.1 175 202.6 175.3 200.6 175.6 203.4 176 204 176.3 205.8 176.7 204.4 177 202.1 177.3 201.5 177.7 201.4 178 199.7 178.2 198.7 178.4 197.9 178.7 198.5 179 203.3 179.2 199.9 179.4 198.6 179.7 199 180.1 199.1 180.5 198.8 180.9 199 181.4 199.6 181.7 201.7 182 204.4 182.3 207.1 182.6 205.1 182.8 208.7 183 209.1 183.4 207 183.9 208.9 184.3 206.9 184.9 204.2 185.3 202.7 185.8 207 186.4 203.3 187.1 205.4 187.5 203.3 187.8 203.8 188.2 207.1 188.5 201.1 188.7 201.4 189 202.4 189.3 200.1 189.4 195.3 189.6 194.8 189.7 192.3 189.8 192.6 189.9 190.4 190.1 192.3 190.3 188.6 190.3 185.4 190.4 186.9 190.6 188.3 190.9 185.8 191.1 187.7 191.3 194.9 191.6 191.6 191.8 188.1 192.1 187.2 192.4 189.6 192.6 186.4 192.9 189.1 193.2 190.4 193.5 194.8 193.6 198.3 193.8 197.4 194.1 195.6 194.5 194.8 194.9 192.6 195.2 195.6 195.5 197.5 195.9 197.4 196.1 197.6 196.5 195.9 196.8 196.5 197.2 197.1 197.7 196.7 198.1 194.7 198.5 197.9 198.9 199.5 199.1 199.5 199.6 196.9 200 196.4 200.4 195.4 200.8 196.6 201.2 196.2 201.5 196.4 202 195.9 202.4 195.6 202.8 197.4 203.2 198.7 203.5 198.3 203.8 201.7 203.9 203.1 204.1 204.7 204.2 210.3 204.3 207.8 204.5 205.9 204.7 204.6 204.8 209.5 205 209.3 205.2 207.1 205.3 206.8 205.4 202.4 205.5 203.5 205.6 198.2 205.7 196.7 205.8 200.9 205.9 202.3 206.1 201.2 206.3 195.5 206.5 194.5 206.6 191.9 206.7 191.1 206.9 192.4 207.1 195.3 207.3 195.1 207.5 196.4 207.8 198.7 208.1 196.7 208.4 200.6 208.6 201.2 208.9 195.4 209.1 192 209.2 189.3 209.3 192.1 209.6 194.7 209.8 189.4 210.1 186.9 210.2 185 210.4 184.7 210.6 183.8 210.7 180.6 210.8 180.5 211 176.8 211.1 179.7 211.3 178.7 211.5 177.3 211.6 174.3 211.8 175 212 171 212.1 175.4 212.3 177.5 212.5 182.1 212.7 180 213.1 178.4 213.4 177.7 213.8 177.9 214.2 175.2 214.5 174 214.9 175.7 215.2 177 215.6 178.9 216 181.3 216.3 183.4 216.6 183.2 216.8 187.2 217.1 184.2 217.4 182.9 217.7 180.2 218 180.7 218.2 184.3 218.6 184.9 218.9 182.3 219.4 184 219.8 182 220.1 181.5 220.3 178.7 220.7 178.7 221 176.2 221.2 177.1 221.6 177.1 221.9 179.6 222.2 177.5 222.4 174.2 222.7 175.5 222.9 168.6 223 170.9 223.3 172.9 223.5 174.8 223.8 171.5 224 173.5 224.3 176 224.6 181.1 224.8 182.9 225 184 225.2 183.1 225.5 181.3 225.8 181.9 226.2 183.7 226.6 181.8 226.9 179.7 227.3 179.2 227.6 184.2 227.9 181.3 228.3 180.6 228.8 181.8 229 175.8 229.2 175.9 229.5 173.5 229.7 170.8 229.9 172.3 230.2 172.5 230.5 172.7 230.9 175.5 231.2 175.4 231.5 174.3 231.9 175.3 232.2 173.1 232.3 169.6 232.4 164.2 232.5 162.1 232.5 156.7 232.5 154.1 232.6 152.8 232.6 151.9 232.7 151.6 232.8 152 232.8 155.4 232.9 156.7 233 154.3 233.1 158.1 233.1 155.6 233.3 160.4 233.4 158.2 233.5 157 233.6 152.2 233.8 150.9 233.9 150 234 150.9 234.1 157.1 234.2 156.8 234.3 161.4 234.5 158.3 234.6 163.3 234.7 164.4 234.9 167.1 235 171.3 235.1 170.5 235.2 174.7 235.3 177.4 235.4 178.6 235.5 174.4 235.7 177 235.8 177.1 236 180.8 236.1 178.6 236.3 177.9 236.5 181.2 236.6 185.7 236.7 187.2 236.8 189.6 236.8 186.7 236.9 184.8 237.1 184.1 237.3 185.1 237.5 183.4 237.7 182.6 238 182.5 238.3 182.2 238.7 184.7 239 183.8 239.3 180.2 239.6 177.7 239.9 175.1 240.2 174.7 240.5 175.6 240.5 165.2 240.6 161.2 240.7 162.3 240.9 156.8 241.1 160.3 241.3 165.8 241.6 163.5 241.8 169.1 242.2 171.2 242.6 167.5 242.8 161.4 243.2 161.1 243.6 161 244 162.6 244.3 163.7 244.6 165.2 244.9 167.1 245.1 170 245.4 170.1 245.6 173.3 245.9 174.9 246.1 175.1 246.4 174.9 246.7 174.5 247 169.5 247.3 169.8 247.6 166.7 247.9 170.3 248.3 171.3 248.6 173.2 249 174.4 249.4 175.6 249.7 176.8 250 174.9 250.3 177.7 250.6 178.2 251.1 175.1 251.5 176 251.9 175.4 252.3 173 252.7 173.2 253 171.1 253.4 173.3 253.8 171.8 254.1 172.1 254.4 177 254.5 181.4 254.6 183.3 254.7 186 254.8 189.3 255 188.2 255.1 187.4 255.3 186.3 255.5 186.1 255.8 185.6 256 183.8 256.4 183.1 256.7 180.8 257 180.8 257.3 181.1 257.7 181.6 258.1 182.1 258.5 181.4 258.8 181.8 259 182.2 259.2 179.1 259.5 180.1 259.8 183.7 260 185.2 260.2 187.8 260.4 189.1 260.5 184.1 260.7 183.7 260.9 180.5 261 189.1 261.1 187.5 261.3 192 261.3 195 261.4 195.8 261.5 194 261.6 194.2 261.8 195.3 262 193.3 262.2 192.6 262.4 191.6 262.7 192.3 262.9 194.8 263.2 194.8 263.5 195.2 263.8 191.6 264.2 193.3 264.4 197.4 264.6 197.4 264.8 198 265 194.4 265.3 194.7 265.6 196.9 265.9 201.7 266 201.1 266.3 195.9 266.7 193.9 267 196.9 267.4 196.3 267.8 194 268.2 191.8 268.6 192.3 269.1 192.8 269.5 192 269.8 190.8 270.3 193.8 270.5 188 270.8 189.5 271.3 190.5 271.6 192.6 272 191.8 272.5 187.4 272.9 187.9 273.2 187 273.7 188.6 273.9 183.2 274 181.4 274.2 183 274.4 183.5 274.7 183.6 274.9 179 275.1 183.2 275.5 183.8 275.7 188 276.1 189.4 276.4 184 276.6 180.6 276.8 181.7 277.1 181.1 277.5 183 277.8 185.3 278.1 189.4 278.3 193 278.5 196.7 278.7 199.1 278.8 197.9 279.1 196.1 279.3 200.3 279.4 206.5 279.5 202.5 279.6 198.5 279.8 194.9 280.1 195.8 280.4 193.9 280.7 193.9 281.1 192.8 281.4 196.7 281.7 197.5 282 201.3 282.3 201.2 282.6 200.8 282.9 205.8 283.1 203.3 283.4 200.2 283.8 199.3 284 198.2 284.3 203.2 284.7 202.6 285.1 200.9 285.4 205.2 285.7 203.7 285.9 205 286.2 204.9 286.6 205.8 286.9 205.7 287.3 205.2 287.5 206.3 287.8 205 288 206.8 288.1 205.2 288.2 209.1 288.3 212.6 288.4 208.4 288.5 204.7 288.6 208.5 288.7 202 288.8 197.8 289 198 289.1 197.1 289.3 199.2 289.5 195.9 289.6 193.9 289.7 188.9 289.9 189.6 290 189.7 290.2 187.2 290.4 187 290.5 184 290.7 182.7 290.8 180.5 290.9 178.2 291 179.2 291.2 182.4 291.4 184.8 291.7 181.1 291.9 177.8 292.1 178.1 292.2 177.5 292.5 177.1 292.7 176.8 292.9 178.9 293.2 180.3 293.5 185.1 293.8 181.4 294.1 183.1 294.4 187.4 294.6 186.9 294.9 187.3 295.3 183.6 295.6 180.3 296 180.3 296.3 175.7 296.5 173.7 296.6 169.5 296.8 170.3 297 170.1 297.3 173.1 297.5 177 297.8 176 298.2 177 298.6 175.9 299 178.3 299.4 175.9 299.8 175.1 300.1 173.6 300.5 177.1 300.7 176.5 300.8 180.8 301.2 178.8 301.4 173.6 301.7 172.2 301.9 174.4 302.3 175.1 302.6 171.6 302.7 168 303 170.9 303.2 168.7 303.3 162 303.4 163.1 303.6 163.2 303.8 165.8 304.1 168.3 304.4 169.8 304.8 168.8 305.1 170.8 305.6 170.6 306 169 306.5 168.1 306.8 163.7 307.1 165.5 307.4 167.6 307.7 167.1 307.9 170.3 308.2 172.7 308.3 174.9 308.5 174.9 308.8 176.4 309 179.8 309.1 183.7 309.2 185.4 309.3 176.9 309.5 175.9 309.7 175.1 310 176 310.4 177.6 310.7 175.4 311.1 177.1 311.6 176.3 311.9 176.9 312.4 180.3 312.7 179.3 313.1 180.2 313.4 180.9 313.7 182.3 314 181.1 314.2 179.7 314.4 174.3 314.5 175 314.8 179.4 315.1 178.4 315.3 185.4 315.4 181.4 315.6 184 315.8 183.4 315.9 186.9 316 188.1 316.2 189.4 316.3 189.3 316.5 186 316.6 179.5 316.7 175.1 316.7 167.9 316.8 170 316.8 163.6 316.9 168.8 317 174.9 317.1 172.3 317.2 179.7 317.4 174.5 317.5 174 317.6 169.6 317.8 169.5 317.9 171.9 318.2 171.5 318.5 169.6 318.7 173.2 318.9 179.6 319 183.1 319.2 181.6 319.4 179.1 319.7 178.8 319.9 185.9 320.1 189.4 320.2 192.9 320.4 191 320.7 188.5 320.9 190.6 321.1 193.6 321.3 194.9 321.6 193.8 321.9 196.1 322.1 199.3 322.2 196 322.4 193.6 322.6 194.4 322.9 195.5 323.2 196 323.4 193.2 323.7 193.2 324.1 193.9 324.4 192.9 324.8 195.3 325.2 192.7 325.6 192.3 326 192.3 326.4 193.6 326.8 194.2 327.1 193.4 327.6 194 328.1 192.1 328.6 191.4 329 190.8 329.3 189.7 329.7 193.3 330.1 192.1 330.4 192.3 331 192.3 331.4 194.7 331.9 193.9 332.5 193.4 332.9 193.2 333.4 193.4 333.9 193.6 334.6 192.9 335.1 192.9 335.6 192.9 336.1 192.4 336.8 192.3 337.2 192.4 337.7 191.6 338.1 190.5 338.4 190.2 338.8 187.9 339.2 188.2 339.7 189.1 340.3 189.7 340.7 187.3 341.3 189.1 341.8 191.6 342.3 191.2 342.9 192.3 343.5 192.4 344.1 192 344.7 191 345.2 192 345.9 190 346.5 189.1 347.1 191.5 347.5 193.6 348.1 191.6 348.7 192.9 349.4 192.5 350 192.8 350.8 192.9 351.4 193.9 352 195.5 352.4 196.5 353 195.8 353.7 194.1 354.4 191.8 354.8 192.4 355.4 190.3 356.1 191.9 356.7 191 357.4 192.8 357.8 193.9 358.3 192.8 358.9 191.2 359.5 191.9 360.2 192.6 360.9 191.5 361.4 192.6 361.9 193.1 362.5 192.7 363.3 192 364 191.8 364.2 189.6 364.5 188.9 365 188.7 365.6 190.5 366.3 190.7 366.9 189.9 367.7 189.1 368.2 189.7 368.8 187.5 369.1 186.5 369.4 185.9 369.8 186.6 370.3 185.3 370.6 183.8 370.8 181 371 180.2 371.2 179.5 371.4 173.6 371.4 172.8 371.5 178.6 371.7 177.5 371.9 174.6 372.2 176.3 372.3 181.3 372.6 175.7 372.8 177.3 373.1 170.4 373.1 166 373.1 162.9 373.2 161.2 373.2 161.5 373.4 164 373.5 165.2 373.6 168.6 373.8 168.7 374 170.4 374.2 171.9 374.4 175.1 374.7 171 375 172.6 375.4 171.4 375.7 170.1 376 168.7 376.4 168.8 376.8 172.3 377.1 171.4 377.3 176 377.5 180 377.7 180.5 378 180 378.3 177.1 378.5 179.8 379 179.4 379.5 177.3 379.7 181.4 380.1 177.8 380.4 177.8 380.7 183.4 380.9 171.9 381 172.7 381.3 175.2 381.6 171.3 381.9 173.9 382.1 168.1 382.3 165 382.4 167.2 382.6 166.8 382.8 167.9 382.9 160.7 383 159.1 383.1 161.3 383.3 158.5 383.5 158.5 383.7 159.8 383.9 160.8 384.2 158.1 384.3 153.4 384.4 155.7 384.7 156.9 384.9 155.6 385.1 154 385.3 153.4 385.4 149.2 385.5 145.1 385.5 145.2 385.7 146.4 385.8 148.4 385.9 149.8 386.2 150.5 386.4 152.1 386.6 151.5 386.9 152.6 387.2 150.7 387.5 152.9 387.9 150.8 388.2 149.4 388.5 151.5 388.9 149.1 389.2 152.3 389.4 156.1 389.6 155.4 389.8 156.5 390.1 154.6 390.4 156.2 390.6 156.8 390.7 158.7 391 161.1 391.2 158.8 391.5 159.6 391.6 166.3 391.7 168.5 391.8 172.4 391.9 173.2 392 170.4 392.1 169 392.3 170.1 392.6 168.8 392.9 169.3 393.1 170.7 393.4 168.7 393.6 171.2 394 170.2 394.3 173.1 394.6 172.3 394.9 169.6 395.2 169.5 395.5 168.2 395.8 168.5 396.1 168.5 396.5 168.7 396.8 171.8 397.2 170.1 397.5 171.2 398 169.8 398.2 170.1 398.3 175.6 398.5 169.8 398.6 166.4 398.7 168.9 398.9 165 399.1 165.7 399.3 165.2 399.4 159.3 399.5 160.7 399.7 157.2 399.8 155.2 399.9 154.7 400 152.9 400.2 151.6 400.3 150.5 400.5 151 400.6 150.3 400.7 147 400.8 143.8 400.8 146.4 401 148.3 401.1 149.2 401.3 150.5 401.5 149.1 401.7 148.9 401.8 154 401.9 159.9 402 158.2 402.2 157.2 402.4 157 402.6 153.5 402.9 152.2 403.1 157.8 403.2 163.6 403.3 163.6 403.6 163 403.8 161.8 404.1 163.9 404.5 162.1 404.8 161.7 405.1 161.8 405.4 164.8 405.6 167.1 405.9 167.5 406.1 168.7 406.4 170 406.7 171.1 406.9 173.6 407 178.1 407.1 173.8 407.4 172.6 407.6 173.1 408 173.1 408.3 174.3 408.6 177 408.9 172.3 409.4 174.1 409.7 175.1 410 173 410.3 174.2 410.7 172.2 411.1 174 411.3 177.2 411.7 174.9 412 174.9 412.4 176.9 412.7 177.7 413 180.7 413.1 179.3 413.4 177.8 413.6 178.1 414 177.1 414.3 175.9 414.6 177.2 415 174.4 415.3 173.4 415.5 169.5 415.6 169.5 415.7 170.4 416 169 416.3 167.7 416.6 166.8 416.8 167.2 417.2 166.1 417.5 165.7 417.8 167.3 418.1 166.3 418.5 167.7 418.8 167.7 419 163.4 419.3 161.7 419.5 159.4 419.6 158.8 419.8 157.8 420 156.9 420.1 150.5 420.2 153.1 420.4 156.7 420.6 159.6 420.8 156.5 421.1 154.8 421.3 154.8 421.6 154.8 421.8 157.4 422.1 156.4 422.4 155.9 422.6 157.9 422.9 156.2 423.3 157 423.6 156.9 423.9 156.1 424.2 154.6 424.5 155.7 424.9 156.6 424.9 153.2 425 150.5 425 153.2 425.1 154.6 425.3 151 425.4 152.6 425.5 157.3 425.8 153.9 426 150.8 426.1 150.3 426.2 147.1 426.3 147.1 426.4 150.1 426.5 152.9 426.6 157.1 426.7 158.6 426.9 157.2 427 161 427.2 156.6 427.3 149.5 427.5 151.7 427.6 153.9 427.7 147.5 427.8 146.4 428 148.3 428.1 149.9 428.2 145.9 428.4 144.9 428.5 142.8 428.6 145.4 428.9 146.7 429 148.2 429.2 149.3 429.4 150 429.6 151.6 429.9 150.7 430.1 151 430.4 147.8 430.6 149.2 430.9 148.5 431.2 148 431.5 148.4 431.8 145.9 432 145.2 432.3 141.8 432.5 141.4 432.7 144.1 433 147.8 433.3 147.8 433.5 146 433.8 144 434.2 146 434.6 147.7 434.8 137.9 434.8 137.1 434.9 128.7 434.9 120.8 434.9 114.9 434.9 122.7 434.9 125.8 434.9 130.9 435 127.5 435 122.7 435.1 123.2 435.3 126.7 435.4 129.5 435.5 125.8 435.7 125.7 435.9 124.3 436 125.4 436.2 128.1 436.4 130.8 436.6 137.9 436.7 139.8 436.9 135.2 437 135 437.3 135.6 437.5 138.4 437.7 138.1 438 136.3 438.2 133.8 438.4 132.9 438.7 132.6 439 134.6 439.3 133.6 439.5 130.7 439.8 131.8 440.1 133.1 440.4 134.9 440.8 134.2 441.1 132.1 441.4 131.5 441.7 132 441.9 136 442.3 135.9 442.6 138.1 443 138.4 443.3 139.6 443.6 140.3 443.9 141.6 444.1 144.2 444.3 143.6 444.7 141.3 445 140 445.2 138.4 445.6 141.8 445.9 141.4 446.2 138.9 446.5 137.7 446.8 139 447.3 138.3 447.6 135.1 447.9 135.9 448.3 135.8 448.8 133.7 449 139 449.4 138.2 449.8 140.8 450 144.3 450.2 144 450.5 144.3 450.8 145.6 451 143.2 451.2 140.5 451.6 140.3 452 140.9 452.3 141.9 452.6 139.9 452.9 143.6 453.2 138.5 453.4 136.6 453.5 134.7 453.6 130.9 453.7 132 453.9 129.8 454 126.8 454 126.2 454.1 122.7 454.2 127.6 454.3 130.7 454.4 128.5 454.5 123.1 454.6 126.3 454.7 124.5 454.9 123.7 455.1 128.5 455.3 126.4 455.5 123.5 455.6 121.1 455.7 121.1 455.8 119.2 456 117.5 456.1 118.4 456.3 122.3 456.4 125.5 456.6 125.1 456.8 122.3 457 123.7 457.2 131.4 457.4 128 457.6 132.8 457.8 128.9 458 129.9 458.3 123.1 458.4 133.6 458.6 132.5 458.8 128.6 459.1 128.8 459.3 126.9 459.5 127.7 459.8 127.5 460.1 124.7 460.3 125.1 460.6 123.4 460.9 124.7 461.2 122.7 461.6 125.6 462.1 125.8 462.4 126.4 462.8 127.9 463.1 131.5 463.5 128.5 463.8 127.7 464.3 128.6 464.8 130.1 465.2 132.2 465.5 133.8 465.9 129.8 466.2 133.1 466.4 138.1 466.8 136.6 467.2 137.6 467.6 140 467.8 139.4 468.1 141.8 468.4 142.3 468.6 145.6 468.7 146 468.9 147 469.2 147.6 469.4 144.6 469.6 144 469.8 143.4 470.1 142.5 470.4 141.1 470.8 140.9 471.2 139.7 471.6 139.8 471.9 139 472.2 143.6 472.6 142.5 472.9 141.7 473.2 139.4 473.5 136.5 473.9 136.8 474.1 141.9 474.5 140.9 475 139.5 475.4 138.8 475.7 134.9 475.8 133.5 476.1 134.4 476.4 135.8 476.8 136 477.3 134.7 477.8 134.3 478.2 139 478.6 138.4 478.9 140.8 479.2 140.9 479.5 138.2 479.9 138.5 480.2 139.5 480.5 136.6 480.8 135.7 481.1 136.2 481.3 139.6 481.4 145.1 481.5 144.9 481.6 145.4 481.7 142.5 481.9 143.7 482.1 143.1 482.2 145.1 482.3 152.8 482.3 153.4 482.4 151.7 482.6 156.6 482.7 153.7 482.8 156.9 482.9 153.5 483 147.6 483.1 149.7 483.4 149.8 483.6 149 483.8 147.1 484.1 146 484.3 149.3 484.5 149 484.8 144.6 485.1 146 485.3 152.8 485.5 154.8 485.7 155 486 155.1 486.1 156.7 486.4 156.9 486.5 161.1 486.7 159.4 486.9 160.5 487.2 161.5 487.4 158.3 487.7 158.6 488 159.9 488.4 160.3 488.8 159.6 489.1 157.6 489.4 156.5 489.8 156.6 490.2 155.9 490.6 154.3 491.1 155.3 491.6 155 492.2 154.1 492.6 152.7 493 151.8 493.5 156 493.7 155.2 494.1 153.8 494.6 156.7 494.9 157.1 495.4 156.1 495.9 154.6 496.6 156.4 497.1 155.8 497.5 156 497.9 159.3 498.2 157.8 498.6 155.6 498.9 147.9 499.1 149.1 499.4 151.4 499.7 150 500.2 148.6 500.5 148.8 500.9 151.7 501.4 151.3 501.7 148.9 502.1 148.9 502.5 149.7 502.8 148.5 503.1 150.2 503.7 149.7 504.1 150.6 504.5 151.8 505 149.7 505.3 150.4 505.6 148.6 505.9 150 506.2 148.1 506.5 146.2 506.7 146.2 507.1 146.9 507.5 148.7 507.9 152 508.4 149.2 508.9 147.5 509.1 149.8 509.4 149.7 509.6 147.4 509.8 155.3 510 153.8 510.1 159.1 510.1 161 510.3 163 510.4 166.1 510.5 164.4 510.6 163.5 510.8 160.7 511 159.7 511.2 158.2 511.5 157.8 511.8 157.8 512.1 157 512.3 153.7 512.6 150.4 512.8 150.7 513 149.4 513.3 149.4 513.6 146.8 513.8 144.5 514.1 148.1 514.4 150.2 514.7 143.6 514.9 143 515.2 142.8 515.5 145.5 515.8 140.5 516.1 139.8 516.4 138.1 516.6 139.4 516.9 135.4 517.3 137.4 517.6 138.4 518 138.8 518.4 139.7 518.9 139 519.3 136.8 519.6 138.4 520 139.1 520.4 140.1 520.7 141.7 521.1 140.1 521.7 140.4 522.4 142 522.9 141.1 523.5 141.8 524.2 141.4 524.9 141.9 525.5 141.7 526 143.5 526.6 144.3 527.1 144.5 527.6 145 528.1 145.7 528.7 145.4 529.2 145.4 529.6 142.8 530.1 142.8 530.5 143.5 531.1 140.2 531.6 140.5 532.1 143.1 532.6 144.8 532.8 145.4 533.1 143.3 533.6 144.6 534 144.9 534.5 145.7 534.9 146 535.3 146.1 535.6 145.3 536.1 144.9 536.6 143.3 537.1 145.1 537.4 144.9 537.8 145.1 538.2 142.5 538.6 144.4 539.1 144.4 539.7 143.9 540.4 144.4 540.9 143.3 541.7 142.4 542.3 141.7 542.9 142.8 543.7 141.1 544.4 142 545.2 143.2 545.8 145.6 546.3 145.7 546.9 145.5 547.6 145.4 548.1 145.1 548.5 148.7 548.7 150.5 548.8 155.4 549 153.4 549.3 152.9 549.6 152.6 550 151.6 550.3 153.5 550.5 155.9 550.8 153.1 551.2 153.5 551.6 151.3 552.1 151.8 552.6 151.9 553.2 151.8 553.8 151.8 554.4 151.3 555 152.4 555.7 153.5 556.2 155.1 556.6 155.9 557 156.7 557.4 154 557.9 153.8 558.4 153.4 558.9 153.3 559.4 154.8 560.1 154.4 560.8 155 561.4 155 562.1 153.9 562.6 155.5 563.1 155.1 563.6 155 563.9 152.6 564.4 155 564.7 158.2 564.9 157.2 565.3 156.9 565.9 157.9 566.3 155.6 567 156.2 567.5 156.1 568 154.2 568.6 155.2 569 152.7 569.3 150.8 569.6 151.5 570.2 154.7 570.6 156.2 571.2 154.3 571.9 152.4 572.6 152.7 573.1 151 573.8 151.6 574.1 158.4 574.2 161.8 574.3 165.6 574.5 168 574.5 169.2 574.6 173.8 574.7 172.6 574.8 177.3 574.8 177.1 575 181.7 575 186.3 575 192.4 575.1 197.6 575.1 199.1 575.1 213.8 575.1 217.3 575.1 219.9 575.1 225.9 575.1 222.5 575.1 214.2 575.1 207.7 575.1 201.9 575.2 203.1 575.2 201.7 575.3 204.6 575.3 208.1 575.3 211.9 575.4 208.4 575.4 210.1 575.5 207.4 575.6 204.9 575.6 208.4 575.7 203.4 575.8 204.4 575.9 202.5 576 205.1 576.2 207.5 576.3 206.2 576.5 204.6 576.7 206.5 577 206.1 577.2 208.1 577.5 206.2 577.7 206.7 578 206.3 578.3 206.8 578.7 205.3 579 206.9 579.4 206.2 579.8 206.9 580.2 207.9 580.6 207 581 207.3 581.3 209.2 581.7 208.8 582 209.7 582.3 210.6 582.6 211.6 582.9 210.4 583.3 209.7 583.7 208.9 584.1 208.4 584.6 208.5 584.8 207.8 585.1 207.4 585.4 206.8 585.8 206.9 586.2 207.1 586.5 207.4 586.9 207 587.4 207.3 587.8 207.4 588.2 205 588.6 203.9 588.9 207.3 589.2 206 589.7 205 590.1 206.2 590.5 207.3 591 207 591.3 209.7 591.6 208.9 592 209 592.4 207.8 592.7 208.2 593 208.4 593.5 207.4 594 206.2 594.3 204.9 594.6 203.3 595 203.8 595.5 204.4 596 205.9 596.5 204.1 597 203.8 597.5 202.8 598 202.8 598.5 200.4 598.8 199.8 599.3 200.4 599.7 203.3 600.2 204.7 600.6 206.4 601 207.1 601.2 209.3 601.6 210.6 601.8 211.8 602.2 207 602.7 209.1 603.1 209.8 603.5 205.9 603.9 208.7 604.3 205 604.8 205.5 605.2 208.2 605.6 205.5 606.1 207.1 606.7 207.5 607 202.6 607.3 204.7 607.7 208.7 608.1 208.5 608.4 209.6 608.6 212.7 608.8 212.1 609.1 210.8 609.5 211.3 609.8 214.4 609.9 221.6 610 220.5 610.1 217.7 610.3 218.2 610.5 219.5 610.7 222 611 220.5 611.3 221 611.6 222.8 611.8 225.9 611.9 227 612.1 230.1 612.1 233.3 612.2 230.4 612.4 229.3 612.5 234.6 612.6 237 612.7 237.1 612.8 237.9 613 236 613.2 237.1 613.5 236.3 613.8 237.8 614.1 237.1 614.3 235.8 614.6 234.6 614.8 234.9 615.2 237 615.5 233.6 615.8 237.4 616.1 237.4 616.5 236.5 616.7 234.1 617.1 234.2 617.5 233.9 617.8 236.8 618.1 238.1 618.3 237 618.7 239.2 619 237.1 619.1 240.5 619.3 236.1 619.5 237.4 619.6 237.2 619.7 239.8 619.8 237.6 620 239.7 620.1 243.8 620.1 245.5 620.2 240.8 620.3 244.4 620.5 240.5 620.6 243.2 620.8 244 621 245.1 621.2 243.3 621.4 239.4 621.6 244.7 621.7 249.7 621.9 250.4 622 252.2 622.1 247.6 622.3 245.4 622.5 246 622.8 249.2 623 250.1 623.2 251.2 623.4 247.3 623.7 244.9 624 246.9 624.3 248.3 624.6 246.2 624.9 247.2 625.2 249.4 625.6 247.3 626 246.4 626.2 242.8 626.6 242.7 626.9 244.3 627.3 245.1 627.8 248.4 628.2 246.7 628.6 254.9 628.6 261 628.6 260.3 628.7 253.7 629 254.6 629.2 255.4 629.4 253.5 629.7 254.5 630 253.9 630.3 254.6 630.6 255.1 630.9 253.4 631.2 248.7 631.4 246.2 631.8 245.2 632.1 244 632.4 246.2 632.8 245 633.1 248.2 633.5 247.5 633.8 247.9 634.2 245.5 634.5 244.7 634.8 244.8 635 245.2 635.3 243.6 635.7 242.7 636.1 243.6 636.5 242.8 636.8 239.9 637.1 238.9 637.4 240.6 637.8 239.9 638.1 241.1 638.4 239.8 638.9 240.4 639.2 244.4 639.5 245.7 639.9 244.4 640.3 248.1 640.7 247 641 245.1 641.4 244.8 641.9 243.8 642.3 244.6 642.7 242.8 643.1 245.1 643.5 244.5 643.9 245 644.1 248 644.3 252.5 644.5 249.3 644.7 249.8 645 248.5 645.3 245.3 645.7 247.8 646.1 248.2 646.4 247.8 646.6 241.7 646.6 235.4 646.7 238.5 646.9 239.3 647 234.9 647.1 235.8 647.3 236.5 647.5 232.2 647.6 230.9 647.7 230.2 647.9 224.8 647.9 228.8 648.1 231.7 648.2 231 648.4 230.5 648.7 227.5 648.9 233.1 649.1 236.6 649.2 236.5 649.4 243.8 649.5 246.9 649.5 248 649.7 248.5 649.8 255.4 649.8 253.4 649.9 252.4 650.1 254.8 650.2 256.7 650.3 254.8 650.5 255.5 650.7 251.3 650.9 249.4 651.1 250.8 651.4 247.1 651.6 248.3 651.9 244 652.2 243.5 652.5 244.6 652.7 234.2 652.7 231.4 652.8 227.3 652.9 225.4 653 222.4 653.1 221.4 653.2 221.3 653.4 224.4 653.5 225 653.7 227.5 654 227.2 654.3 223.7 654.6 222.9 654.8 219.7 655.1 223.5 655.6 223.5 655.9 221.6 656.3 224.6 656.7 226.2 657.1 228 657.5 231.5 657.8 234.2 658.1 231.5 658.5 229.3 658.9 229.1 659.3 229.9 659.7 229.8 660.2 228.2 660.7 227.7 661.1 228.9 661.5 229 662 232.3 662.6 230.9 663.1 229 663.7 228 664.3 229.6 664.9 229.4 665.5 229.4 666 228.1 666.5 229.9 667 231.5 667.4 233.3 667.8 231.8 668.3 230.9 668.7 231.3 669.2 229.3 669.7 228.6 670.2 229.1 670.7 229.2 671.1 230.6 671.6 228.2 672 228.1 672.5 229.4 673.1 230.2 673.4 226.4 673.7 231.8 673.9 235.5 674.1 234 674.4 236.1 674.6 237.3 674.8 235 674.9 241.8 675 242.3 675.2 242.9 675.4 243.6 675.6 242.7 675.7 249.3 675.8 246.1 676 241.6 676.2 244.5 676.4 242.7 676.6 247.3 676.8 243 677 245.5 677.3 243 677.6 240.8 677.9 241.6 678.3 242.4 678.5 238.5 678.8 240.3 679.3 239.3 679.7 244.3 680 242.9 680.4 237.3 680.7 234.4 681 232.8 681.4 236.5 681.7 239.8 682.1 240.8 682.5 236.4 683 238.8 683.4 240.1 683.9 241.3 684.3 237.9 684.8 239.7 685.5 240.8 686.2 242 686.8 239.4 687.4 238.4 687.9 238.1 688.7 239.4 689.2 240.3 689.8 238.7 690.4 237.2 690.8 236.9 691.2 235 691.6 236.9 692.1 238.1 692.5 236.3 692.9 238.7 693.3 239.7 693.5 246 693.7 244.5 694.1 242.9 694.6 242.7 695.1 244.3 695.4 247.8 695.7 248.1 696 247.1 696.4 247.8 696.8 248.3 697.2 247.3 697.6 246.2 698 246.9 698.4 245.2 698.8 244 699.3 245.9 699.7 246.8 700.2 246.6 700.6 247.2 701.1 246.9 701.4 248.6 701.6 249.2 702 248.3 702.2 251.8 702.3 256.2 702.4 255 702.5 258.4 702.6 254.9 702.8 253.7 703.1 256.7 703.2 250.8 703.5 248.4 703.7 242.5 703.8 244.4 704 238.6 704.1 241.4 704.3 241.2 704.5 245.5 704.7 238.1 704.8 238.4 705 239.2 705.2 243 705.5 238.1 705.6 231.5 705.7 233.1 705.9 234.2 706.1 237.1 706.3 237.7 706.5 238.8 706.8 233.5 707.1 235.7 707.4 238.2 707.7 240.8 707.9 239.8 708.1 243.2 708.5 241.5 708.7 241.7 709 243.8 709.2 248.5 709.4 250.5 709.6 249.2 710 246 710.5 247.6 710.9 245.5 711.4 244.4 711.8 245.6 712.3 245 712.8 246.7 713.3 245.7 713.9 245.2 714.4 246.7 715 246.5 715.6 244.9 716.2 244 716.7 243.4 717.2 242.5 717.8 242.7 718.3 243.7 718.8 243.7 719.3 243.8 720 243.7 720.6 244.9 721.3 244.8 721.8 247.1 722.3 247.6 722.8 247.8 723.3 246.6 723.9 247.8 724.4 247.8 724.9 248.4 725.3 247.3 725.9 247.3 726.4 246.9 726.8 247.6 727.4 247.5 728 246.6 728.5 248.1 729 247.1 729.3 248.3 729.8 248.1 730.3 247.6 730.7 246.7 731.2 248.9 731.6 249.4 732 250.1 732.4 249.4 732.8 248.6 733.3 247.4 733.8 247.2 734.4 246.8 735 246.1 735.6 246.6 736.2 246.3 736.8 246.2 737.4 247.6 738 247.5 738.6 247.6 739.2 245.1 739.7 245.1 740.4 247.5 741 246.8 741.5 247.9 742 246.4 742.7 248.9 743.3 246.8 744 248.1 744.6 249.9 745 251.3 745.5 250.3 746.1 249.1 746.7 250.2 747.3 250.9 747.8 251 748.4 249.9 749 251.4 749.7 251.6 750.3 250.1 750.7 253.8 751 253 751.4 252.1 751.9 249.6 752.3 250.5 752.7 248.9 753.1 248.7 753.7 249.9 754.2 250.3 754.7 250 755.3 249.7 755.7 248.2 756.2 249.5 756.7 248.5 757.2 251 757.4 256.4 757.6 255 757.9 254 758.3 254.1 758.7 254.8 759 257.3 759.2 259.5 759.2 271.8 759.2 275.4 759.2 267.9 759.2 269.1 759.3 273.3 759.3 272.7 759.4 274.7 759.5 275.2 759.5 275.4 759.6 275.6 759.8 275.7 759.9 274.5 760.1 275.9 760.3 274.3 760.4 280.8 760.5 279.3 760.6 280.6 760.8 279.2 761 277.8 761.3 277 761.5 279.5 761.7 284.1 761.8 280.6 762 282.9 762.1 282.5 762.3 286.9 762.4 283 762.6 282.2 762.9 285.4 763.1 286.7 763.1 294.2 763.1 292.7 763.2 294.8 763.3 291.5 763.5 292 763.6 304.9 763.6 305 763.6 305.7 763.7 303 763.7 304.9 763.8 303.6 763.9 303.3 764 305.7 764.2 302.9 764.4 305.1 764.5 304.6 764.7 303.8 764.9 300.1 765 302.2 765.2 302.1 765.4 302.3 765.7 304.8 765.9 300.4 766.1 300.7 766.4 303.9 766.8 300.7 767 302.7 767.2 300.9 767.4 297.4 767.6 296.5 767.9 299.4 768.2 296.7 768.4 297.2 768.6 293.7 768.9 296.2 769.2 298.3 769.4 293.7 769.6 288.6 769.7 284.2 769.8 283 770 280.3 770.1 279.7 770.4 279.5 770.6 276.2 770.7 280 771 283.6 771.2 277.9 771.5 279.1 771.7 278.7 772 278.6 772.3 281 772.5 283.4 772.8 282.8 773.1 279.9 773.3 276 773.4 270.9 773.6 273.1 773.9 274.6 774.3 275.5 774.8 274 775.2 276.6 775.6 276.8 776 276.5 776.5 277 776.8 275.9 777.2 274.2 777.6 273.9 777.9 274.6 778.2 272.3 778.5 276.1 778.9 278 779.2 277.7 779.6 278.8 780 276.8 780.4 275.1 781 276.2 781.5 275.8 782.1 276 782.5 273.9 783 276.8 783.4 274.9 783.8 272.5 784.2 273.4 784.5 270.4 784.7 273.9 785 274.6 785.1 267.4 785.2 268.7 785.4 269.8 785.6 270.7 785.8 263.2 785.9 260.5 786 263.4 786.1 265.7 786.3 268.7 786.5 272.3 786.7 269.6 786.9 269.8 787.2 264.4 787.4 264.9 787.7 266 787.9 265.3 788.2 266 788.5 270.4 788.7 267.2 789 265.3 789.4 264.9 789.6 260.7 789.7 260 790 262.3 790.4 261.9 790.7 265.4 791.1 262.3 791.4 264.4 791.8 265.4 792.3 268.1 792.7 268.8 793.1 265.2 793.4 263.4 793.9 262.9 794.3 263.2 794.8 265 795.2 266 795.6 263 796.1 266.9 796.5 265.6 797 265.9 797.5 265.7 798 264.8 798.4 262.3 798.8 263.2 799.2 261.7 799.5 261.4 799.9 264.4 800.5 264.4 800.9 261.5 801.4 263.9 802 265.4 802.6 264.5 803.1 263.6 803.7 266.8 804.2 264.9 804.7 263.9 805.2 263.3 805.6 263.9 806 265.7 806.4 267.1 806.6 268.7 807 268.1 807.5 267.4 807.9 266.1 808.5 268.4 809 269.1 809.5 266 810 265.3 810.5 266.9 811 268.5 811.4 270.6 811.6 269.3 812 271.6 812.3 267.9 812.5 266.1 812.8 269.3 813 268.5 813.3 268.1 813.6 268.2 814 266.9 814.2 263.6 814.4 259.4 814.5 253.4 814.6 253.7 814.6 252.3 814.8 253.7 814.9 255.3 815.1 251.1 815.3 252.1 815.6 254.3 815.7 260.6 815.8 265.5 816 266.4 816.2 264.8 816.4 269.4 816.6 266.9 816.8 265.2 817.1 262.8 817.5 261.2 817.7 254.4 817.9 257.6 818.2 255.4 818.6 255.6 819 256 819.3 252.6 819.4 247.1 819.6 248.8 819.8 247.3 820.1 247.4 820.3 244.7 820.5 245.3 820.8 246.8 821.2 247.9 821.5 246.7 822 245.4 822.3 245 822.7 245.5 823.1 245.5 823.6 247.5 823.9 248.9 824.4 250.1 824.8 246.1 825.3 248.9 825.8 247.6 826.3 248.5 826.7 248.7 827.2 248 827.7 247.6 828.2 248.6 828.6 251 829 249.8 829.5 249.4 829.9 251.8 830.4 249.9 830.8 248.1 831.3 249.2 831.7 246.1 832.2 246.3 832.7 248.3 833.1 248.8 833.6 249.2 834 250.9 834.4 253.2 834.6 247.3 834.9 245.8 835.2 246.2 835.4 245.5 835.8 244.6 836.3 247 836.7 246.3 837.1 244.9 837.3 240.9 837.5 242.7 837.8 246.5 838.2 247 838.6 246.2 838.9 249.2 839.2 246.3 839.6 247 839.9 248.5 840.2 249.9 840.4 250.4 840.6 249.8 840.9 248.7 841.1 255.6 841.2 254 841.5 255.3 841.8 255.4 842.1 255.1 842.4 255 842.7 253.5 843 253.2 843.3 253.3 843.7 258.5 844 251.9 844.2 250.7 844.5 252.9 844.9 255 845.4 255.7 845.5 254.3 845.8 255.1 846.1 256.1 846.3 254.1 846.7 253.2 847.1 253.2 847.4 256.1 847.7 261 847.9 257.8 848.3 259 848.8 256.6 849.3 259.3 849.8 257.1 850.3 257.9 850.9 259.7 851.3 259.6 851.8 261.2 852.2 261.3 852.6 261.4 852.9 262.7 853.3 264.7 853.6 264.4 854.1 265.8 854.1 268.2 854.4 270.6 854.6 270.2 854.8 270.4 855 272.2 855.2 274.2 855.5 272.4 855.8 273.9 856.1 273.4 856.4 273.4 856.7 270.2 857.1 270.4 857.5 269.3 857.9 271.1 858.3 271.8 858.7 269.9 859.1 270.4 859.6 269.1 860.1 267.7 860.4 269.6 860.7 270.9 861.2 271.1 861.7 272.2 862.3 271.9 862.8 272.5 863.3 272.1 863.9 273 864.3 273.6 864.7 274.6 865.2 273.3 865.7 274.3 866.1 273.8 866.6 273.8 867.1 274.3 867.6 274.4 867.9 278.4 867.9 282.3 868.1 283.7 868.2 283.3 868.3 285.9 868.4 288.7 868.5 290.9 868.5 295.1 868.6 298.3 868.6 302.4 868.7 305.8 868.7 304.1 868.7 304.5 868.8 303.4 868.9 301.5 869 300.9 869 303 869.1 304.4 869.2 311 869.2 313.3 869.3 312.5 869.4 311.6 869.5 307.3 869.6 307.6 869.7 308.6 869.8 306.6 869.9 305.6 870.1 306.9 870.2 305.4 870.4 303.4 870.5 302.8 870.7 300.9 870.8 298.4 870.9 296.8 871.1 293.9 871.2 296.1 871.4 297.5 871.6 301.1 871.8 304 871.9 303.6 872.1 303.4 872.3 307.6 872.4 310.6 872.5 310.9 872.6 310 872.8 314.2 872.9 318.4 872.9 316.5 873.1 315.8 873.3 316.1 873.4 319.5 873.6 313.8 873.8 314 874 311.5 874.2 311.4 874.4 312.2 874.7 308.5 874.9 311.7 875.1 308.2 875.4 307.6 875.6 308.9 876 308.7 876.3 307.5 876.7 306.3 877.1 306.1 877.5 305.7 877.8 308.2 878.3 305.8 878.7 305.2 879 303.7 879.3 306.3 879.8 305.4 880.1 305.7 880.4 307.1 880.7 313.5 880.7 320.7 880.7 326.6 880.7 330.3 880.8 337.3 880.8 334.7 880.8 327.2 880.8 327.4 880.9 327.2 881 323.2 881.1 320.8 881.2 324.5 881.4 325.2 881.5 331.4 881.6 332.2 881.7 332.8 881.8 330.2 881.9 327.3 882.1 329.6 882.3 330 882.4 327.8 882.7 326.4 883 326.2 883.3 324.6 883.5 324.1 883.8 321.6 884 319.6 884.3 318.2 884.6 318.1 885 318.7 885.3 317.8 885.7 320.7 886 322.1 886.2 326.8 886.4 328.3 886.6 333.1 886.7 328.8 887 326.2 887.1 317.3 887.3 318.6 887.5 318.7 887.8 316.4 888.1 317.7 888.4 316.4 888.7 320.3 889 319.6 889.4 320.7 889.7 323.2 889.9 316.2 890.1 319.4 890.4 321.3 890.7 317.7 891.1 319.1 891.5 316.4 891.8 316.5 892.2 315.9 892.5 311.8 892.6 309.1 892.8 312.8 893.1 313.8 893.4 314 893.8 315 894 316.6 894.3 318.1 894.4 314.3 894.7 318.1 895 314.4 895.3 313.6 895.5 312.4 895.7 310.8 895.8 310.8 895.9 314 896.1 312.2 896.3 314 896.5 317.2 896.6 322.1 896.7 316.7 896.8 311.7 897 312.4 897.2 311 897.4 308.9 897.6 313.3 897.8 306 897.9 305.2 898.1 308.7 898.3 309.2 898.5 310.4 898.8 306.7 899 310.9 899.3 310.1 899.6 311.5 899.8 316.3 899.9 323.8 900 324.2 900.1 319.3 900.3 318.2 900.4 308 900.4 309 900.6 304.7 900.7 303.1 900.7 298.9 900.9 302 901 297.1 901.2 302.3 901.4 299.7 901.7 299.1 901.9 302.5 902.1 304.9 902.3 303.6 902.5 307.2 902.6 309.3 902.9 310.6 903.2 306.9 903.5 306.6 903.8 308.4 904.2 308.5 904.6 311.4 905 309.3 905.4 308.5 905.9 309.7 906.4 306.8 906.8 305.8 907.2 304.6 907.6 305.9 907.9 302.3 908.3 304.1 908.6 302.6 909 304.2 909.4 302.8 909.8 302.2 910.1 301.4 910.5 302.2 911 301.8 911.3 300 911.8 300.4 912.2 303.1 912.6 302.6 913 301 913.5 299.7 913.8 303.8 914.3 302.5 914.7 302.7 915.1 306 915.3 307.2 915.7 307.9 915.9 312.2 915.9 328 915.9 322.4 916 316 916.1 317.3 916.3 321.2 916.4 322.2 916.4 324.3 916.6 322.3 916.7 317.2 916.9 318.1 917.2 318.3 917.4 312.2 917.7 314.6 918.1 315.3 918.5 311.9 918.9 311.7 919.3 314.1 919.7 313.6 920 315.4 920.4 317.7 920.7 318.4 921.1 319.5 921.4 321.7 921.7 322.9 922 325.4 922.1 329.1 922.2 328.5 922.4 329 922.6 327.4 922.8 331.4 922.8 335.4 922.9 338.7 922.9 342.5 923 344.7 923 344.9 923 355.3 923 351.7 923 349.2 923.1 350.4 923.1 356.4 923.1 353.8 923.2 353.3 923.2 360 923.3 357.4 923.3 360.5 923.4 363.2 923.4 359.7 923.5 360.7 923.6 357.3 923.7 359.3 923.8 354.4 923.8 356.2 924 358.3 924.1 358.3 924.2 356.6 924.4 359.3 924.6 358.5 924.7 362.6 924.9 362.4 924.9 367.2 925 365.5 925.1 363.5 925.1 360.5 925.2 357.8 925.3 357.8 925.4 362.6 925.5 366.1 925.7 368.1 925.7 373.9 925.7 375.2 925.8 376 925.9 375.8 925.9 375.7 926.1 376.6 926.1 380.4 926.1 382.5 926.2 389.5 926.2 395.7 926.2 395.1 926.2 401.8 926.2 405.8 926.2 397.4 926.2 411.8 926.2 402.1 926.2 398 926.2 395.1 926.2 392.8 926.3 391.3 926.3 388.7 926.4 391.6 926.4 388.9 926.5 389.8 926.6 392.5 926.6 393.3 926.7 392 926.8 394.8 926.9 398.5 927 395.9 927.1 394.9 927.2 395.8 927.3 392.6 927.4 397.1 927.5 394.4 927.7 393.7 927.8 398.2 927.9 401.2 927.9 405.6 927.9 408.5 927.9 416.5 927.9 419.5 927.9 429.3 927.9 436.2 927.9 422.7 927.9 426.7 928 423.1 928 414.8 928 406 928 403.7 928 405 928 402.9 928.1 403.6 928.1 399.5 928.2 406.7 928.2 403.6 928.3 402 928.4 398.9 928.4 398.5 928.5 397.4 928.6 395.6 928.6 395.4 928.8 397.5 928.9 402.9 929 404.4 929.1 402.6 929.2 401.1 929.4 403.4 929.5 404.5 929.7 408.7 929.8 402.9 929.9 407.6 930 410.8 930.2 409.2 930.3 404 930.5 402.5 930.6 402.8 930.8 402.8 930.9 403.1 931.1 398.2 931.2 398.6 931.3 394.2 931.5 394.2 931.7 393.7 931.8 392.6 932.1 392.3 932.3 389.2 932.5 392.7 932.8 388.3 933 387.8 933.2 383.9 933.3 376 933.4 380.1 933.6 381.1 933.9 380.8 934 380.6" opacity=".6"/><text x="942" y="472" fill="#d97706" font-size="11" text-anchor="start">91.24</text><text x="942" y="396" fill="#d97706" font-size="11" text-anchor="start">103.60</text><text x="942" y="320" fill="#d97706" font-size="11" text-anchor="start">115.97</text><text x="942" y="244" fill="#d97706" font-size="11" text-anchor="start">128.33</text><text x="942" y="168" fill="#d97706" font-size="11" text-anchor="start">140.70</text><text x="942" y="92" fill="#d97706" font-size="11" text-anchor="start">153.06</text><text x="942" y="80" fill="#d97706" font-size="11" font-weight="600" text-anchor="start">price</text><polygon fill="#16a34a" fill-opacity=".08" points="428.5 468 428.5 174.6 428.5 154.6 574.8 159.6 872.9 134.6 927.9 116.1 928 120.8 928 468"/><polyline fill="none" stroke="#16a34a" stroke-linejoin="round" stroke-width="2" points="428.5 174.6 428.5 154.6 574.8 159.6 872.9 134.6 927.9 116.1 928 120.8"/><line x1="88" x2="110" y1="102" y2="102" stroke="#16a34a" stroke-width="2.5"/><text x="116" y="106" fill="#374151" font-size="11.5">equity</text><line x1="88" x2="110" y1="118" y2="118" stroke="#d97706" stroke-width="2.5" opacity=".8"/><text x="116" y="122" fill="#374151" font-size="11.5">price</text><text x="78" y="502" fill="#6b7280" font-size="12" text-anchor="start">2026-01-01</text><text x="934" y="502" fill="#6b7280" font-size="12" text-anchor="end">2026-01-31</text></svg>