<?xml version="1.0" encoding="UTF-8"?>
<svg xmlns="http://www.w3.org/2000/svg" width="1100" height="560" viewBox="0 0 1100 560" font-family="ui-sans-serif, system-ui, sans-serif">
  <rect width="1100" height="560" fill="#ffffff"/>
  <text x="80" y="28" font-size="18" font-weight="700" fill="#111827">Zone Recovery — BTCUSDC fee-tier comparison (best setting)</text>
  <text x="80" y="48" font-size="12.5" fill="#6b7280">lev 10 · ratio 2 · gap 20% · maxSteps 4 · maxDD 60% · random  ·  equity per fee tier vip 0..9</text>
  <text x="80" y="68" font-size="12.5" font-weight="600" fill="#1d4ed8">USDC margin · BNB −10%</text>
  <line x1="80" y1="508.0" x2="932" y2="508.0" stroke="#e5e7eb" stroke-width="1"/><text x="70" y="512.0" text-anchor="end" font-size="12" fill="#6b7280">0.00</text><line x1="80" y1="424.0" x2="932" y2="424.0" stroke="#e5e7eb" stroke-width="1"/><text x="70" y="428.0" text-anchor="end" font-size="12" fill="#6b7280">6426</text><line x1="80" y1="340.0" x2="932" y2="340.0" stroke="#e5e7eb" stroke-width="1"/><text x="70" y="344.0" text-anchor="end" font-size="12" fill="#6b7280">12852</text><line x1="80" y1="256.0" x2="932" y2="256.0" stroke="#e5e7eb" stroke-width="1"/><text x="70" y="260.0" text-anchor="end" font-size="12" fill="#6b7280">19277</text><line x1="80" y1="172.0" x2="932" y2="172.0" stroke="#e5e7eb" stroke-width="1"/><text x="70" y="176.0" text-anchor="end" font-size="12" fill="#6b7280">25703</text><line x1="80" y1="88.0" x2="932" y2="88.0" stroke="#e5e7eb" stroke-width="1"/><text x="70" y="92.0" text-anchor="end" font-size="12" fill="#6b7280">32129</text>
  <line x1="80" y1="377.3" x2="932" y2="377.3" stroke="#9ca3af" stroke-width="1.5" stroke-dasharray="6 4"/>
  <polyline points="80.0,377.3 80.0,358.3 136.8,336.6 196.3,311.8 375.3,326.8 385.0,284.1 468.7,301.2 590.7,252.5 600.7,272.0 686.3,301.3 730.0,345.3 868.1,220.2 881.4,178.4 898.0,203.6 928.5,241.5 932.0,133.9" fill="none" stroke="#2563eb" stroke-width="1.8" stroke-linejoin="round" opacity="0.9"/>
  <polyline points="80.0,377.3 80.0,358.3 136.8,336.6 196.3,311.8 375.3,326.8 385.0,284.1 468.7,301.2 590.7,252.5 600.7,272.0 686.3,301.3 730.0,345.3 868.1,220.2 881.4,178.4 898.0,203.6 928.5,241.5 932.0,133.9" fill="none" stroke="#dc2626" stroke-width="1.8" stroke-linejoin="round" opacity="0.9"/>
  <polyline points="80.0,377.3 80.0,358.3 136.8,336.5 196.3,311.5 375.3,326.4 385.0,283.5 468.7,300.6 590.7,251.5 600.7,271.0 686.3,300.2 730.0,344.1 868.1,218.0 881.4,175.8 898.0,201.0 928.5,238.9 932.0,130.0" fill="none" stroke="#16a34a" stroke-width="1.8" stroke-linejoin="round" opacity="0.9"/>
  <polyline points="80.0,377.3 80.0,358.2 136.8,336.3 196.3,311.3 375.3,326.1 385.0,283.1 468.7,300.1 590.7,250.8 600.7,270.2 686.3,299.3 730.0,343.1 868.1,216.3 881.4,173.7 898.0,198.9 928.5,236.8 932.0,127.0" fill="none" stroke="#d97706" stroke-width="1.8" stroke-linejoin="round" opacity="0.9"/>
  <polyline points="80.0,377.3 80.0,358.1 136.8,336.1 196.3,311.0 375.3,325.7 385.0,282.4 468.7,299.3 590.7,249.7 600.7,269.0 686.3,298.1 730.0,341.6 868.1,213.8 881.4,170.6 898.0,195.9 928.5,233.9 932.0,122.6" fill="none" stroke="#7c3aed" stroke-width="1.8" stroke-linejoin="round" opacity="0.9"/>
  <polyline points="80.0,377.3 80.0,358.1 136.8,336.1 196.3,310.9 375.3,325.6 385.0,282.3 468.7,299.2 590.7,249.5 600.7,268.8 686.3,297.9 730.0,341.4 868.1,213.3 881.4,170.1 898.0,195.4 928.5,233.3 932.0,121.8" fill="none" stroke="#0891b2" stroke-width="1.8" stroke-linejoin="round" opacity="0.9"/>
  <polyline points="80.0,377.3 80.0,358.1 136.8,336.1 196.3,310.9 375.3,325.6 385.0,282.2 468.7,299.1 590.7,249.4 600.7,268.7 686.3,297.7 730.0,341.2 868.1,213.0 881.4,169.7 898.0,195.0 928.5,233.0 932.0,121.3" fill="none" stroke="#db2777" stroke-width="1.8" stroke-linejoin="round" opacity="0.9"/>
  <polyline points="80.0,377.3 80.0,358.1 136.8,336.1 196.3,310.8 375.3,325.5 385.0,282.1 468.7,298.9 590.7,249.2 600.7,268.5 686.3,297.5 730.0,340.9 868.1,212.6 881.4,169.2 898.0,194.5 928.5,232.4 932.0,120.4" fill="none" stroke="#65a30d" stroke-width="1.8" stroke-linejoin="round" opacity="0.9"/>
  <polyline points="80.0,377.3 80.0,358.1 136.8,336.0 196.3,310.8 375.3,325.5 385.0,282.0 468.7,298.9 590.7,249.0 600.7,268.3 686.3,297.3 730.0,340.8 868.1,212.3 881.4,168.8 898.0,194.1 928.5,232.1 932.0,119.9" fill="none" stroke="#475569" stroke-width="1.8" stroke-linejoin="round" opacity="0.9"/>
  <polyline points="80.0,377.3 80.0,358.1 136.8,336.0 196.3,310.7 375.3,325.4 385.0,281.9 468.7,298.7 590.7,248.8 600.7,268.1 686.3,297.1 730.0,340.5 868.1,211.8 881.4,168.3 898.0,193.6 928.5,231.5 932.0,119.1" fill="none" stroke="#ea580c" stroke-width="1.8" stroke-linejoin="round" opacity="0.9"/>
  <line x1="950" y1="94" x2="972" y2="94" stroke="#ea580c" stroke-width="3"/><text x="980" y="98" font-size="12.5" fill="#374151">vip 9  29749</text>
  <line x1="950" y1="116" x2="972" y2="116" stroke="#475569" stroke-width="3"/><text x="980" y="120" font-size="12.5" fill="#374151">vip 8  29689</text>
  <line x1="950" y1="138" x2="972" y2="138" stroke="#65a30d" stroke-width="3"/><text x="980" y="142" font-size="12.5" fill="#374151">vip 7  29648</text>
  <line x1="950" y1="160" x2="972" y2="160" stroke="#db2777" stroke-width="3"/><text x="980" y="164" font-size="12.5" fill="#374151">vip 6  29585</text>
  <line x1="950" y1="182" x2="972" y2="182" stroke="#0891b2" stroke-width="3"/><text x="980" y="186" font-size="12.5" fill="#374151">vip 5  29544</text>
  <line x1="950" y1="204" x2="972" y2="204" stroke="#7c3aed" stroke-width="3"/><text x="980" y="208" font-size="12.5" fill="#374151">vip 4  29484</text>
  <line x1="950" y1="226" x2="972" y2="226" stroke="#d97706" stroke-width="3"/><text x="980" y="230" font-size="12.5" fill="#374151">vip 3  29148</text>
  <line x1="950" y1="248" x2="972" y2="248" stroke="#16a34a" stroke-width="3"/><text x="980" y="252" font-size="12.5" fill="#374151">vip 2  28912</text>
  <line x1="950" y1="270" x2="972" y2="270" stroke="#2563eb" stroke-width="3"/><text x="980" y="274" font-size="12.5" fill="#374151">vip 0  28621</text>
  <line x1="950" y1="292" x2="972" y2="292" stroke="#dc2626" stroke-width="3"/><text x="980" y="296" font-size="12.5" fill="#374151">vip 1  28621</text>
  <text x="80" y="542" text-anchor="start" font-size="12" fill="#6b7280">2026-01-04</text><text x="932" y="542" text-anchor="end" font-size="12" fill="#6b7280">2026-01-31</text>
</svg>
