<svg xmlns="http://www.w3.org/2000/svg" width="1100" height="560" font-family="ui-sans-serif, system-ui, sans-serif" viewBox="0 0 1100 560"><rect width="1100" height="560" fill="#fff"/><text x="80" y="28" fill="#111827" font-size="18" font-weight="700">Zone Recovery — BTCUSDC fee-tier comparison (best setting)</text><text x="80" y="48" fill="#6b7280" font-size="12.5">lev 10 · ratio 2 · gap 20% · maxSteps 4 · maxDD 60% · random · equity per fee tier vip 0..9</text><text x="80" y="68" fill="#1d4ed8" font-size="12.5" font-weight="600">USDC margin · BNB −10%</text><line x1="80" x2="932" y1="508" y2="508" stroke="#e5e7eb" stroke-width="1"/><text x="70" y="512" fill="#6b7280" font-size="12" text-anchor="end">0.00</text><line x1="80" x2="932" y1="424" y2="424" stroke="#e5e7eb" stroke-width="1"/><text x="70" y="428" fill="#6b7280" font-size="12" text-anchor="end">6426</text><line x1="80" x2="932" y1="340" y2="340" stroke="#e5e7eb" stroke-width="1"/><text x="70" y="344" fill="#6b7280" font-size="12" text-anchor="end">12852</text><line x1="80" x2="932" y1="256" y2="256" stroke="#e5e7eb" stroke-width="1"/><text x="70" y="260" fill="#6b7280" font-size="12" text-anchor="end">19277</text><line x1="80" x2="932" y1="172" y2="172" stroke="#e5e7eb" stroke-width="1"/><text x="70" y="176" fill="#6b7280" font-size="12" text-anchor="end">25703</text><line x1="80" x2="932" y1="88" y2="88" stroke="#e5e7eb" stroke-width="1"/><text x="70" y="92" fill="#6b7280" font-size="12" text-anchor="end">32129</text><line x1="80" x2="932" y1="377.3" y2="377.3" stroke="#9ca3af" stroke-dasharray="6 4" stroke-width="1.5"/><polyline fill="none" stroke="#2563eb" stroke-linejoin="round" stroke-width="1.8" points="80 377.3 80 358.3 136.8 336.6 196.3 311.8 375.3 326.8 385 284.1 468.7 301.2 590.7 252.5 600.7 272 686.3 301.3 730 345.3 868.1 220.2 881.4 178.4 898 203.6 928.5 241.5 932 133.9" opacity=".9"/><polyline fill="none" stroke="#dc2626" stroke-linejoin="round" stroke-width="1.8" points="80 377.3 80 358.3 136.8 336.6 196.3 311.8 375.3 326.8 385 284.1 468.7 301.2 590.7 252.5 600.7 272 686.3 301.3 730 345.3 868.1 220.2 881.4 178.4 898 203.6 928.5 241.5 932 133.9" opacity=".9"/><polyline fill="none" stroke="#16a34a" stroke-linejoin="round" stroke-width="1.8" points="80 377.3 80 358.3 136.8 336.5 196.3 311.5 375.3 326.4 385 283.5 468.7 300.6 590.7 251.5 600.7 271 686.3 300.2 730 344.1 868.1 218 881.4 175.8 898 201 928.5 238.9 932 130" opacity=".9"/><polyline fill="none" stroke="#d97706" stroke-linejoin="round" stroke-width="1.8" points="80 377.3 80 358.2 136.8 336.3 196.3 311.3 375.3 326.1 385 283.1 468.7 300.1 590.7 250.8 600.7 270.2 686.3 299.3 730 343.1 868.1 216.3 881.4 173.7 898 198.9 928.5 236.8 932 127" opacity=".9"/><polyline fill="none" stroke="#7c3aed" stroke-linejoin="round" stroke-width="1.8" points="80 377.3 80 358.1 136.8 336.1 196.3 311 375.3 325.7 385 282.4 468.7 299.3 590.7 249.7 600.7 269 686.3 298.1 730 341.6 868.1 213.8 881.4 170.6 898 195.9 928.5 233.9 932 122.6" opacity=".9"/><polyline fill="none" stroke="#0891b2" stroke-linejoin="round" stroke-width="1.8" points="80 377.3 80 358.1 136.8 336.1 196.3 310.9 375.3 325.6 385 282.3 468.7 299.2 590.7 249.5 600.7 268.8 686.3 297.9 730 341.4 868.1 213.3 881.4 170.1 898 195.4 928.5 233.3 932 121.8" opacity=".9"/><polyline fill="none" stroke="#db2777" stroke-linejoin="round" stroke-width="1.8" points="80 377.3 80 358.1 136.8 336.1 196.3 310.9 375.3 325.6 385 282.2 468.7 299.1 590.7 249.4 600.7 268.7 686.3 297.7 730 341.2 868.1 213 881.4 169.7 898 195 928.5 233 932 121.3" opacity=".9"/><polyline fill="none" stroke="#65a30d" stroke-linejoin="round" stroke-width="1.8" points="80 377.3 80 358.1 136.8 336.1 196.3 310.8 375.3 325.5 385 282.1 468.7 298.9 590.7 249.2 600.7 268.5 686.3 297.5 730 340.9 868.1 212.6 881.4 169.2 898 194.5 928.5 232.4 932 120.4" opacity=".9"/><polyline fill="none" stroke="#475569" stroke-linejoin="round" stroke-width="1.8" points="80 377.3 80 358.1 136.8 336 196.3 310.8 375.3 325.5 385 282 468.7 298.9 590.7 249 600.7 268.3 686.3 297.3 730 340.8 868.1 212.3 881.4 168.8 898 194.1 928.5 232.1 932 119.9" opacity=".9"/><polyline fill="none" stroke="#ea580c" stroke-linejoin="round" stroke-width="1.8" points="80 377.3 80 358.1 136.8 336 196.3 310.7 375.3 325.4 385 281.9 468.7 298.7 590.7 248.8 600.7 268.1 686.3 297.1 730 340.5 868.1 211.8 881.4 168.3 898 193.6 928.5 231.5 932 119.1" opacity=".9"/><line x1="950" x2="972" y1="94" y2="94" stroke="#ea580c" stroke-width="3"/><text x="980" y="98" fill="#374151" font-size="12.5">vip 9 29749</text><line x1="950" x2="972" y1="116" y2="116" stroke="#475569" stroke-width="3"/><text x="980" y="120" fill="#374151" font-size="12.5">vip 8 29689</text><line x1="950" x2="972" y1="138" y2="138" stroke="#65a30d" stroke-width="3"/><text x="980" y="142" fill="#374151" font-size="12.5">vip 7 29648</text><line x1="950" x2="972" y1="160" y2="160" stroke="#db2777" stroke-width="3"/><text x="980" y="164" fill="#374151" font-size="12.5">vip 6 29585</text><line x1="950" x2="972" y1="182" y2="182" stroke="#0891b2" stroke-width="3"/><text x="980" y="186" fill="#374151" font-size="12.5">vip 5 29544</text><line x1="950" x2="972" y1="204" y2="204" stroke="#7c3aed" stroke-width="3"/><text x="980" y="208" fill="#374151" font-size="12.5">vip 4 29484</text><line x1="950" x2="972" y1="226" y2="226" stroke="#d97706" stroke-width="3"/><text x="980" y="230" fill="#374151" font-size="12.5">vip 3 29148</text><line x1="950" x2="972" y1="248" y2="248" stroke="#16a34a" stroke-width="3"/><text x="980" y="252" fill="#374151" font-size="12.5">vip 2 28912</text><line x1="950" x2="972" y1="270" y2="270" stroke="#2563eb" stroke-width="3"/><text x="980" y="274" fill="#374151" font-size="12.5">vip 0 28621</text><line x1="950" x2="972" y1="292" y2="292" stroke="#dc2626" stroke-width="3"/><text x="980" y="296" fill="#374151" font-size="12.5">vip 1 28621</text><text x="80" y="542" fill="#6b7280" font-size="12" text-anchor="start">2026-01-04</text><text x="932" y="542" fill="#6b7280" font-size="12" text-anchor="end">2026-01-31</text></svg>