<svg xmlns="http://www.w3.org/2000/svg" width="1000" height="520" font-family="ui-sans-serif, system-ui, sans-serif" viewBox="0 0 1000 520"><rect width="1000" height="520" fill="#fff"/><text x="78" y="28" fill="#111827" font-size="18" font-weight="700">Zone Recovery — NKNUSDT best setting (equity / PnL)</text><text x="78" y="48" fill="#6b7280" font-size="12.5">lev 2 · ratio 3 · gap 20% · maxSteps 4 · maxDD 20% · random · vip 9 · 1 series, 100.0% win · vol $2698481 ($502006/day) · fees $412.87</text><text x="78" y="68" fill="#1d4ed8" font-size="12.5" font-weight="600">USDT · BNB −10% · taker 0.0153%</text><text x="934" y="28" fill="#16a34a" font-size="18" font-weight="700" text-anchor="end">+51393 USDT (+0.05%)</text><line x1="78" x2="934" y1="468" y2="468" stroke="#e5e7eb" stroke-width="1"/><text x="68" y="472" fill="#6b7280" font-size="12" text-anchor="end">0.00</text><line x1="78" x2="934" y1="392" y2="392" stroke="#e5e7eb" stroke-width="1"/><text x="68" y="396" fill="#6b7280" font-size="12" text-anchor="end">21613902</text><line x1="78" x2="934" y1="316" y2="316" stroke="#e5e7eb" stroke-width="1"/><text x="68" y="320" fill="#6b7280" font-size="12" text-anchor="end">43227804</text><line x1="78" x2="934" y1="240" y2="240" stroke="#e5e7eb" stroke-width="1"/><text x="68" y="244" fill="#6b7280" font-size="12" text-anchor="end">64841706</text><line x1="78" x2="934" y1="164" y2="164" stroke="#e5e7eb" stroke-width="1"/><text x="68" y="168" fill="#6b7280" font-size="12" text-anchor="end">86455608</text><line x1="78" x2="934" y1="88" y2="88" stroke="#e5e7eb" stroke-width="1"/><text x="68" y="92" fill="#6b7280" font-size="12" text-anchor="end">108069510</text><line x1="78" x2="934" y1="116.4" y2="116.4" stroke="#9ca3af" stroke-dasharray="6 4" stroke-width="1.5"/><text x="934" y="110.4" fill="#6b7280" font-size="11" text-anchor="end">start 100000000</text><polyline fill="none" stroke="#d97706" stroke-linejoin="round" stroke-width="1.2" points="78 196.1 78.3 196.1 78.7 192.2 78.8 193.2 78.9 193.7 79 192.7 79.3 191.3 79.6 191.3 80.1 190.3 80.7 192.2 81.2 191.7 81.6 192.7 82.1 193.2 82.8 192.7 83.4 193.2 83.9 191.7 84.5 191.7 84.9 191.7 85.2 193.7 85.6 194.6 86.1 194.6 86.6 196.1 87.2 195.6 87.9 192.7 88.5 191.7 89.2 194.6 89.9 194.2 90.7 193.7 91.5 192.7 91.8 192.2 92.3 191.3 92.7 190.8 93.2 191.3 93.6 191.3 94.2 192.2 95 193.2 95.6 190.3 96.4 189.8 96.7 189.3 96.9 188.3 97 187.9 97.1 186.9 97.3 187.4 97.5 185.9 97.8 187.9 98.1 188.8 98.5 190.3 98.9 188.8 99.4 188.3 100.1 188.8 100.7 189.3 101.4 189.3 101.8 190.8 102.1 190.8 102.5 190.3 103.4 189.3 104.1 188.8 104.8 188.8 105.1 188.3 105.8 186.9 106.4 185.9 106.8 185 107.5 186.9 108.2 185.4 108.4 185.4 108.6 185.4 109 184 109.5 184 110.3 184 111.1 183.5 111.5 185 111.9 184.5 112.3 183.5 113 182.5 113.5 183 114.1 181.1 114.8 180.6 115.4 181.1 115.8 181.1 116.5 184 116.7 183.5 117 183.5 117.4 183 117.9 182.5 118.5 182.1 119.1 182.5 119.7 181.6 120.4 182.5 120.6 181.6 121.2 182.1 121.9 183 122.1 182.1 123 182.1 123.6 181.1 124.4 182.1 124.9 181.6 125.4 182.1 125.9 182.5 126.5 182.1 127 182.1 127.6 182.1 128.3 181.1 128.9 179.1 129.2 177.2 129.9 177.2 130.4 178.7 131.1 179.6 131.5 179.6 131.9 180.6 132.4 180.1 133.1 180.6 133.5 180.1 134.4 180.1 135.3 176.7 136 174.8 136.6 174.3 137.2 174.3 137.8 177.2 138.3 176.2 139 176.7 139.5 178.7 140.2 178.7 140.7 179.6 141.4 178.2 142.3 176.2 143.4 176.7 144.1 174.3 144.5 173.3 144.8 174.3 145.1 172.4 145.6 172.8 146.2 172.4 146.5 174.3 147.2 175.8 147.7 176.2 148.1 179.6 148.7 180.1 149.5 182.1 150.3 181.6 150.7 184 151.3 182.1 151.5 180.6 151.8 180.6 152.2 180.6 152.7 182.1 153.4 181.6 154.5 181.1 155.2 178.7 156 178.2 156.8 180.6 157.6 180.1 158 181.6 158.5 181.6 159.3 180.6 159.7 181.6 159.9 180.6 160.2 183 161.1 181.1 161.7 180.1 162.6 180.6 163.2 181.1 164.2 181.1 164.7 179.1 165.1 179.6 165.7 178.2 166.2 177.7 166.6 175.8 167.2 174.8 167.6 173.8 167.9 171.9 168.1 170.4 168.1 165.6 168.2 156.9 168.2 157.8 168.2 153 168.2 152.5 168.2 149.6 168.2 146.7 168.3 145.7 168.3 148.6 168.3 140.4 168.3 137 168.3 134.6 168.3 136.5 168.3 135 168.3 137 168.3 137.5 168.3 133.6 168.3 133.1 168.4 128.7 168.4 132.1 168.4 129.7 168.4 126.8 168.4 126.3 168.4 120.5 168.4 118.1 168.4 115.7 168.4 120 168.4 126.8 168.5 125.8 168.5 116.6 168.5 115.2 168.5 128.3 168.5 132.6 168.5 137.5 168.5 146.7 168.5 147.2 168.5 140.4 168.5 134.6 168.5 129.2 168.5 134.6 168.5 137.5 168.5 140.4 168.5 135 168.5 138 168.6 136 168.6 141.8 168.6 142.3 168.6 146.2 168.6 155.4 168.6 162.2 168.6 161.2 168.6 158.8 168.6 161.7 168.6 169.5 168.6 165.6 168.6 158.8 168.7 164.6 168.7 164.6 168.7 165.6 168.7 155.9 168.7 163.2 168.7 164.6 168.7 170.4 168.8 174.3 168.8 174.3 168.8 178.2 168.8 180.6 168.8 178.7 168.9 183 168.9 184 168.9 184 169 185 169 176.2 169 181.6 169 180.1 169 185.4 169.1 185.9 169.1 188.8 169.2 189.8 169.2 189.3 169.3 188.3 169.3 194.6 169.3 198 169.3 200.5 169.4 196.6 169.4 196.1 169.4 196.1 169.4 199.5 169.4 199.5 169.4 200.5 169.5 197.6 169.5 197.6 169.5 200 169.5 201.9 169.5 204.3 169.6 202.4 169.6 204.8 169.6 204.3 169.6 202.9 169.7 198 169.7 199 169.8 200 169.9 200.9 169.9 200 170 198.5 170.1 199 170.2 200.5 170.2 202.4 170.3 202.4 170.4 202.4 170.5 203.4 170.6 203.9 170.7 200.9 170.8 197.1 171 195.6 171.1 197.1 171.2 196.6 171.3 194.2 171.4 198 171.5 198 171.6 198 171.8 197.6 172 198.5 172.2 199 172.4 197.6 172.6 200.5 172.8 200.9 173.1 200 173.4 200.9 173.6 201.4 173.8 203.9 174 204.3 174.2 205.8 174.4 205.3 174.6 205.8 174.7 205.8 174.7 206.8 174.9 206.3 175 207.2 175.1 209.2 175.2 210.2 175.4 208.7 175.6 206.3 175.9 207.7 176.1 206.8 176.3 207.2 176.6 202.9 176.7 207.2 176.9 208.2 177.1 204.8 177.3 206.3 177.5 205.3 177.6 208.7 177.7 208.7 177.8 208.2 178 209.2 178.2 207.7 178.4 207.2 178.8 208.2 179.1 209.2 179.4 211.1 179.5 209.7 179.7 207.7 180 208.2 180.2 207.7 180.4 208.2 180.5 209.2 180.8 207.7 181.1 206.8 181.3 208.7 181.6 208.7 181.9 207.2 182.4 207.2 182.9 207.2 183.3 206.3 183.7 206.8 184.1 205.3 184.3 206.3 184.5 207.2 184.7 208.7 184.8 208.2 185 206.3 185.3 209.2 185.6 208.2 186 208.7 186.2 211.1 186.6 212.1 187 207.2 187.2 206.3 187.6 207.7 188 207.7 188.3 209.2 189 210.2 189.5 208.7 190 209.7 190.5 207.7 190.9 209.7 191.1 210.2 191.3 209.2 191.6 208.7 192 208.7 192.6 209.2 192.9 208.7 193.3 210.6 193.8 210.2 194.3 209.7 194.6 210.2 195.1 210.6 195.6 208.2 196.2 209.2 196.6 210.2 197.1 209.7 197.5 205.8 197.6 205.8 197.7 202.9 197.8 200.9 198 204.3 198.3 204.3 198.6 203.9 199.1 201.9 199.4 203.4 199.7 202.9 200 201.9 200.4 203.4 200.9 202.9 201.2 203.4 201.6 204.3 202 203.4 202.6 205.3 202.9 205.3 203.3 206.3 203.7 205.3 204.2 203.9 204.5 206.3 204.9 206.8 205.5 204.3 206 204.8 206.6 202.9 207.3 202.4 207.8 202.9 208.1 205.3 208.4 202.9 209.1 204.8 209.5 206.3 210.1 206.3 210.6 205.8 210.9 205.8 211.1 205.3 211.6 205.8 212.1 204.3 212.7 205.3 213.2 204.3 213.7 208.2 214.2 208.2 214.7 206.3 215.1 202.4 215.5 203.4 216.1 204.8 216.6 206.3 217.1 206.3 217.5 206.8 217.9 206.3 218.3 208.7 218.7 208.2 219.3 208.2 220 208.2 220.7 207.7 221.1 208.2 221.6 205.3 222.4 208.2 223 205.8 223.5 206.8 223.9 208.2 224.3 207.7 224.6 207.2 225.2 205.8 225.5 203.9 226 204.8 226.7 210.2 227.2 207.7 227.6 205.8 228.2 204.8 228.5 204.3 229.2 204.3 229.7 205.8 230.3 206.3 230.9 209.2 231.2 209.7 231.4 213.5 231.6 215 231.8 217.4 232 213.1 232.2 207.7 232.4 210.6 232.6 208.2 233 211.6 233.3 208.7 233.7 209.2 234.1 209.7 234.3 209.7 234.7 206.3 235.2 205.3 235.6 206.3 236 208.2 236.6 208.2 237 209.7 237.4 211.1 237.7 214 237.9 212.6 238.3 209.2 238.7 207.2 239.1 205.3 239.6 203.4 240 202.9 240.5 200.9 240.9 201.4 241.4 200.5 241.9 201.4 242.5 201.4 243.2 202.9 243.7 203.9 244.1 203.4 244.4 202.9 244.6 203.4 245 206.8 245.5 208.7 245.9 204.8 246.3 204.3 246.9 200 247.3 202.4 247.7 202.4 248.3 201.9 248.8 201.4 249.5 202.9 250.1 203.9 250.7 204.3 251.1 203.9 251.8 205.8 252.2 200.5 252.5 203.4 253 203.4 253.7 200.5 254.3 203.9 254.9 202.4 255.5 204.3 256 203.9 256.7 205.8 257.3 205.8 257.7 206.8 257.9 206.8 258.5 209.7 259 212.1 259.2 213.1 259.5 215 259.7 217.9 259.9 216 260.2 216.9 260.5 218.9 260.7 219.8 260.9 216 261.1 220.3 261.4 218.9 261.8 217.4 262.2 216.9 262.5 215.5 262.7 209.7 263 209.2 263.2 207.7 263.5 206.3 263.9 205.8 264.2 205.3 264.6 209.2 265 208.2 265.3 212.1 265.7 209.2 266 206.3 266.2 207.7 266.6 202.4 266.9 202.4 267.3 201.4 267.7 202.4 268.2 202.9 268.9 205.8 269.4 207.2 269.9 207.2 270.5 209.2 270.8 211.1 271.2 211.6 271.6 213.5 272 213.1 272.4 211.6 273 212.1 273.4 216.5 273.7 214.5 274.1 213.5 274.5 216.9 274.9 214 275.6 214.5 276.1 211.1 276.4 215.5 277 214 277.4 216.9 277.5 214 277.7 213.1 278.2 212.6 278.8 214 279.1 211.6 279.6 211.1 280 214 280.5 214.5 280.9 217.4 281.2 220.3 281.6 218.9 281.8 210.2 281.8 203.9 281.9 208.7 282.2 205.3 282.5 209.7 282.9 209.7 283.4 209.7 283.8 207.7 284.1 209.7 284.5 205.8 284.8 206.8 285.2 207.7 285.8 205.3 286.2 207.2 286.8 207.7 287.4 207.7 287.8 207.7 288.2 206.8 288.8 204.8 289.2 204.3 289.8 204.8 290.2 205.3 290.7 205.8 291 203.9 291.3 203.4 291.7 201.9 292.2 202.9 292.6 202.9 293 203.9 293.5 207.2 293.9 205.3 294.4 204.3 295.1 203.9 295.7 203.4 296.5 204.3 297 207.7 297 212.1 297 213.5 297 218.4 297 215.5 297.1 218.9 297.1 225.2 297.1 225.7 297.1 216.9 297.1 231.5 297.1 231.5 297.1 232 297.1 237.8 297.1 243.6 297.1 233.9 297.1 229.5 297.2 229.5 297.2 235.4 297.2 238.3 297.2 236.3 297.2 237.3 297.2 238.7 297.3 239.2 297.3 242.6 297.3 249.4 297.3 250.4 297.3 256.2 297.3 254.3 297.3 257.6 297.3 257.2 297.3 261.5 297.3 259.6 297.3 256.7 297.3 253.8 297.3 257.2 297.3 253.3 297.4 257.2 297.4 258.6 297.4 261 297.4 264.4 297.4 269.3 297.4 265.9 297.4 257.6 297.4 257.6 297.4 245.5 297.4 249.4 297.4 253.3 297.4 250.9 297.4 249.4 297.4 248.4 297.4 248 297.5 250.9 297.5 248.4 297.5 243.6 297.5 246 297.5 248.9 297.5 245 297.5 243.1 297.5 239.2 297.5 241.7 297.5 242.6 297.6 246 297.6 241.2 297.6 243.6 297.6 248.4 297.6 256.7 297.6 260.6 297.6 262.5 297.6 260.6 297.6 262.5 297.6 249.9 297.7 252.8 297.7 252.8 297.7 253.8 297.7 254.7 297.7 259.6 297.7 256.7 297.8 255.2 297.8 247.5 297.8 249.9 297.8 249.4 297.9 244.1 297.9 239.2 297.9 231 297.9 233.9 297.9 230.5 297.9 218.4 298 221.3 298 220.8 298 217.4 298 209.7 298 210.6 298 206.8 298 207.2 298 209.2 298 205.8 298 206.8 298 206.3 298 185.9 298 186.9 298 179.1 298 189.3 298 190.8 298 188.3 298 180.6 298 191.7 298 187.4 298 194.2 298.1 197.6 298.1 204.3 298.1 209.2 298.1 201.9 298.1 204.8 298.1 208.2 298.1 211.6 298.1 216.9 298.1 217.9 298.1 214 298.1 217.4 298.1 221.8 298.2 220.3 298.2 226.6 298.2 225.2 298.2 232.9 298.2 230 298.2 232.9 298.2 235.8 298.2 238.7 298.3 241.2 298.3 247.5 298.3 233.9 298.3 233.9 298.3 237.8 298.3 243.6 298.3 246.5 298.3 248.4 298.3 250.4 298.3 249.9 298.4 251.3 298.4 259.6 298.4 256.2 298.4 255.2 298.4 256.2 298.4 258.6 298.4 259.6 298.4 258.1 298.4 252.8 298.4 254.3 298.5 255.7 298.5 260.1 298.5 262.5 298.5 261.5 298.5 265.9 298.5 266.9 298.5 266.4 298.5 266.9 298.6 265.9 298.6 258.1 298.6 266.9 298.6 266.9 298.6 261.5 298.6 268.3 298.7 268.8 298.7 261.5 298.7 256.2 298.7 245.5 298.7 244.6 298.7 249.9 298.7 249.4 298.8 255.2 298.8 255.7 298.8 263 298.8 266.4 298.9 266.4 298.9 270.2 298.9 276.1 298.9 268.3 299 263 299 265.9 299 265.4 299 269.3 299 280.9 299 271.7 299.1 268.3 299.1 273.6 299.1 270.2 299.1 264.9 299.2 269.3 299.2 272.7 299.2 279.9 299.2 279 299.3 274.6 299.3 269.8 299.3 279 299.3 277.5 299.4 269.3 299.4 268.8 299.4 267.8 299.5 270.2 299.5 274.6 299.6 276.5 299.6 278 299.7 280.9 299.7 279 299.7 282.8 299.7 278.5 299.7 274.6 299.7 272.2 299.8 269.8 299.8 276.5 299.8 277 299.9 273.6 299.9 276.1 299.9 273.2 300 276.5 300.1 279.9 300.1 278 300.2 278 300.2 277.5 300.3 268.8 300.3 265.9 300.3 272.2 300.4 273.6 300.4 267.3 300.4 261 300.4 254.7 300.4 253.3 300.5 257.2 300.5 258.6 300.6 259.6 300.6 263.5 300.7 261 300.8 263.9 300.8 269.8 300.9 269.3 301 270.2 301.1 271.7 301.2 271.7 301.3 273.2 301.3 274.6 301.4 276.5 301.4 276.5 301.5 277 301.6 276.5 301.7 276.5 301.9 277.5 301.9 276.5 302 274.6 302.1 274.1 302.2 275.6 302.3 276.1 302.4 277 302.4 279.9 302.4 279 302.5 280.4 302.6 284.3 302.7 280.4 302.8 278.5 302.9 277 303 279 303.1 281.9 303.3 284.3 303.4 287.2 303.4 288.7 303.4 287.2 303.5 288.7 303.5 290.1 303.5 293.5 303.5 294.5 303.6 295.4 303.6 295.4 303.7 295.4 303.7 287.2 303.7 287.7 303.8 282.4 303.8 277 303.8 281.4 303.8 283.8 303.9 289.1 303.9 286.7 304 286.7 304 289.6 304 294 304.1 286.2 304.1 288.7 304.1 291.1 304.2 291.6 304.3 290.1 304.4 295.4 304.4 295.9 304.5 296.9 304.6 295 304.7 294.5 304.7 295 304.8 295 304.9 295.4 305 296.9 305.1 298.4 305.1 299.3 305.3 297.4 305.3 291.1 305.3 298.4 305.4 299.8 305.4 296.9 305.5 298.8 305.5 299.3 305.6 299.3 305.6 292.1 305.7 295.4 305.8 296.4 305.9 293 306 294.5 306.1 296.4 306.3 290.6 306.3 293 306.3 290.1 306.4 292.1 306.5 293.5 306.6 295.9 306.7 295 306.8 292.5 307 293.5 307.2 294.5 307.3 294 307.5 293 307.6 292.5 307.7 291.6 307.9 290.6 308 290.1 308 287.2 308 285.3 308.1 288.2 308.1 288.2 308.2 288.7 308.4 287.2 308.4 284.3 308.5 282.4 308.6 285.8 308.8 286.2 309 285.8 309.2 287.2 309.3 289.6 309.5 287.7 309.7 291.6 309.9 294 310 297.4 310.1 295.4 310.2 290.6 310.3 291.1 310.3 293.5 310.5 292.5 310.6 296.4 310.7 297.4 310.9 295.4 311.1 299.3 311.2 300.3 311.3 295 311.3 297.9 311.4 293.5 311.4 291.6 311.5 290.6 311.5 287.2 311.6 289.1 311.6 284.3 311.7 283.3 311.8 284.8 311.8 283.3 311.9 281.4 311.9 279.5 311.9 275.6 312 277.5 312 274.6 312.2 275.6 312.2 275.6 312.2 274.6 312.3 280.4 312.3 283.3 312.4 289.6 312.4 289.1 312.4 289.1 312.5 290.6 312.5 295 312.6 294 312.6 297.9 312.7 299.8 312.8 300.3 312.9 300.3 312.9 303.2 313 303.7 313 304.2 313 306.6 313.1 304.7 313.1 304.7 313.2 305.6 313.3 307.6 313.3 307.1 313.3 306.1 313.4 306.1 313.5 306.1 313.6 304.2 313.6 301.7 313.7 302.7 313.8 303.7 313.8 302.7 313.9 304.2 314 306.1 314.1 307.6 314.3 311 314.4 309.5 314.5 308 314.6 307.6 314.6 307.1 314.7 309 314.8 306.6 315 304.2 315.1 304.2 315.2 301.3 315.3 305.6 315.5 305.6 315.7 304.7 315.9 301.3 316 298.4 316.1 300.3 316.2 298.8 316.3 296.9 316.5 300.8 316.7 303.2 316.8 301.3 316.9 295.9 316.9 284.3 316.9 282.8 316.9 283.3 316.9 286.2 316.9 293.5 317 294 317 288.7 317 291.6 317 290.6 317.1 292.5 317.1 300.3 317.2 298.8 317.3 299.3 317.4 300.8 317.5 297.9 317.6 299.3 317.9 297.9 318 300.8 318.3 297.9 318.5 297.4 318.7 296.4 319 296.4 319.1 296.4 319.3 295.4 319.3 294.5 319.5 293.5 319.8 292.5 319.9 295.9 320 292.5 320 289.6 320 290.1 320.1 289.6 320.3 293 320.5 294.5 320.7 290.1 320.9 290.6 321 289.6 321.3 292.1 321.3 293.5 321.3 290.6 321.4 292.1 321.4 292.1 321.5 290.6 321.8 293 322 293 322.2 292.1 322.4 294 322.6 296.4 323 294.5 323.3 294.5 323.5 295 323.7 295.4 323.8 288.7 323.9 291.6 324.1 289.6 324.2 289.1 324.2 286.2 324.4 287.7 324.5 288.7 324.5 290.6 324.7 287.7 324.8 285.8 325.1 286.7 325.4 290.1 325.6 289.6 325.7 293 325.9 293 326.2 292.5 326.4 291.1 326.5 294.5 326.5 296.4 326.5 298.8 326.6 297.9 326.7 296.4 326.7 293 326.8 295.9 327.1 298.8 327.3 300.3 327.5 298.8 327.6 300.8 327.8 301.3 327.8 303.7 328.1 298.4 328.2 300.3 328.5 295 328.5 293.5 328.9 293.5 329.2 290.1 329.4 287.7 329.5 288.7 329.7 287.7 329.8 289.1 329.9 289.6 330 290.1 330.2 287.2 330.3 286.2 330.5 288.2 330.7 288.2 331.1 286.7 331.5 286.7 331.8 286.7 332.1 289.6 332.2 289.6 332.4 290.1 332.8 290.6 333 289.6 333.3 288.7 333.5 285.3 333.5 282.4 333.6 285.3 333.8 284.3 334 290.6 334 285.3 334.2 286.7 334.4 284.3 334.5 286.7 334.6 285.3 334.8 286.2 335.1 285.3 335.2 288.2 335.4 285.8 335.6 285.3 335.8 284.8 336 283.3 336.2 284.3 336.4 284.8 336.6 284.8 336.8 286.2 336.9 286.2 337.2 286.7 337.5 288.7 337.9 288.2 338.3 290.1 338.6 290.1 338.9 290.6 339.2 289.6 339.7 288.7 340.2 288.7 340.6 288.7 340.9 287.7 341.2 287.2 341.5 289.1 342 290.6 342.2 289.1 342.6 291.6 342.9 293 343.2 292.5 343.4 291.1 343.6 288.7 343.7 286.7 343.9 290.1 344 289.1 344.2 290.6 344.4 286.2 344.5 289.6 344.6 287.2 345 289.6 345.1 288.7 345.2 286.7 345.3 289.6 345.7 290.1 345.9 289.6 346.3 290.1 346.6 290.6 347.1 290.6 347.4 286.2 347.5 284.3 347.7 285.8 348.2 284.8 348.6 285.3 348.9 283.3 349.2 285.3 349.8 285.3 349.9 284.8 350 286.2 350.1 283.3 350.1 284.3 350.2 282.4 350.3 282.4 350.4 281.9 350.5 280.9 350.6 279.5 350.7 260.6 350.7 273.2 350.7 263 350.7 261 350.7 263 350.7 258.6 350.7 260.1 350.7 256.7 350.7 259.6 350.7 259.6 350.7 265.9 350.7 267.8 350.8 268.3 350.8 272.7 350.9 272.7 351 274.1 351.1 275.6 351.2 276.5 351.3 278 351.4 278.5 351.6 278 351.9 279 352.2 279 352.5 277.5 352.8 275.1 353.3 279.5 353.6 277 354 276.1 354.3 274.1 354.8 275.6 354.9 269.8 354.9 269.8 355.1 268.8 355.1 260.6 355.1 267.3 355.1 271.2 355.2 272.2 355.4 270.2 355.6 271.7 355.8 271.7 356.2 267.8 356.6 268.8 356.9 268.3 357.4 268.3 357.8 268.8 358.1 269.3 358.6 270.2 359 269.3 359.4 268.8 359.8 267.8 360.2 264.9 360.6 266.4 361 267.8 361.2 268.3 361.6 270.2 362.1 268.8 362.6 270.2 363.1 270.7 363.5 269.8 363.6 271.2 364 273.2 364.3 274.6 364.7 274.1 365.2 275.6 365.4 275.1 365.8 275.6 366.1 277 366.2 275.6 366.5 275.1 366.9 275.1 367.4 274.1 367.7 272.7 368.4 272.7 369 273.2 369.6 272.7 370.1 273.2 370.4 272.7 370.9 271.2 371 275.6 371.4 277.5 371.9 278 372.4 277.5 372.8 278 372.9 281.4 373.2 279.9 373.4 280.9 373.6 285.8 373.7 283.3 373.9 283.3 374.4 281.9 375.2 282.8 375.7 282.4 376.3 282.8 376.7 282.8 377 286.2 377.1 283.3 377.1 283.3 377.2 284.3 377.4 282.8 377.9 282.8 378.2 281.9 378.6 282.4 378.7 281.4 378.8 280.9 379 280.4 379.1 279.5 379.2 279.5 379.3 279 379.4 279.5 379.6 279.5 379.7 279.9 379.8 280.4 379.9 279.9 380.1 280.9 380.2 279.9 380.6 278.5 381.1 278.5 381.9 278 382.8 277 383.4 277 383.8 276.5 384.2 274.1 384.6 273.2 385.2 272.7 385.7 274.1 386.7 273.2 387.1 272.7 387.5 271.7 387.6 271.2 387.7 271.7 387.9 272.7 388 272.7 388.1 272.7 388.3 273.2 388.4 273.2 388.6 273.6 388.7 273.6 388.8 274.1 388.9 274.1 389.1 273.6 389.2 273.6 389.4 273.2 389.5 273.2 389.6 275.1 389.7 274.1 389.8 274.6 389.9 274.6 390 274.6 390.1 274.6 390.2 274.6 390.4 275.1 390.4 273.2 390.5 273.6 390.7 272.7 390.8 273.2 390.9 273.6 391.1 273.6 391.2 273.6 391.4 275.1 391.5 273.2 391.6 274.1 391.8 274.1 391.9 274.1 392 272.2 392.1 271.2 392.2 272.7 392.4 273.2 392.6 272.2 393.5 271.7 394.1 268.3 394.6 268.3 395.2 266.4 395.5 267.8 396.2 267.3 396.6 267.3 396.8 265.4 397.2 263.5 397.5 263.9 397.8 266.4 398 264.9 398.4 263 398.7 262.5 399.2 260.6 399.5 260.6 400.1 263.5 400.5 262.5 400.8 259.6 401.4 262 401.8 262.5 402.1 261.5 402.5 263 403 261 403.4 262.5 403.6 266.9 403.7 266.4 403.9 267.8 404.2 268.8 404.4 272.7 404.6 272.7 404.8 272.2 405.2 273.2 405.6 271.2 406.1 267.3 406.7 263.5 406.9 262 407.1 258.1 407.2 258.6 407.6 260.6 407.8 267.8 407.9 268.8 408 269.3 408.2 269.3 408.4 269.3 409 268.8 409.7 268.3 410.3 267.3 411.1 269.3 411.7 266.9 412.4 264.9 413.1 267.8 413.6 264.9 413.8 261.5 414.2 263.5 414.2 266.4 414.4 265.9 414.8 263.9 415.1 264.4 415.4 265.9 416.2 266.9 416.7 266.4 417.1 263 417.7 265.9 417.8 267.3 418.3 270.2 418.6 271.2 418.9 272.2 419 269.8 419.2 270.2 419.6 270.7 419.9 269.3 420.3 266.9 420.7 268.3 421.4 271.7 422.1 272.2 422.4 267.8 423.2 268.3 423.6 269.3 424.3 268.8 425.2 268.8 425.8 268.8 426.5 271.7 426.8 270.2 427.2 269.8 427.4 273.2 427.6 274.1 427.6 274.6 427.8 275.1 428.3 274.1 428.7 273.2 429.6 274.6 430.1 275.6 430.3 280.4 430.5 277.5 430.8 278.5 431.2 279.5 431.7 282.8 431.9 281.4 432.1 279 432.3 274.6 432.7 276.1 432.8 279 433.1 278 433.3 279.5 433.5 279.5 433.8 279.9 433.8 272.2 433.9 269.3 433.9 271.7 434 265.4 434.1 262.5 434.2 259.1 434.3 247.5 434.3 248 434.3 249.9 434.3 252.8 434.3 246.5 434.4 247.5 434.4 244.6 434.4 246.5 434.5 254.7 434.6 255.7 434.7 246.5 434.7 246.5 434.8 248 434.9 251.8 434.9 249.9 435 254.3 435.1 254.7 435.3 256.2 435.4 256.2 435.6 254.7 436 256.2 436.3 259.1 436.4 261 436.5 263.5 436.5 264.4 436.6 266.4 436.7 265.9 436.8 265.4 436.9 269.3 437.1 268.8 437.2 261 437.4 262.5 437.5 263.9 437.9 268.8 438.3 270.7 438.6 269.8 438.8 271.7 439 272.7 439.4 274.1 439.6 273.2 439.9 274.1 440.2 277 440.4 277 440.6 280.4 440.9 280.9 441.3 280.4 441.4 277 441.9 278 442.4 277.5 442.6 276.1 442.9 275.6 443 273.6 443.2 274.6 443.4 276.1 443.9 275.6 444.3 272.7 444.5 275.6 444.7 272.2 445 274.1 445.5 275.1 445.9 272.7 446.7 272.7 447 269.3 447.5 268.3 448 268.8 448.4 267.3 448.6 263.5 449 262.5 449.2 262.5 449.5 262 449.9 261 450 261 450.5 261 451.2 262.5 452.1 262.5 452.9 261.5 453.6 262 454 262.5 454.7 263.9 454.9 264.9 455.3 267.8 455.9 267.3 456.3 266.4 456.5 269.3 456.6 272.2 456.8 273.2 456.9 267.3 457.2 268.3 457.4 271.2 457.6 272.2 457.9 271.7 458 276.1 458.2 274.6 458.5 275.1 458.8 274.6 459.2 274.6 459.4 278 459.6 279.9 460.1 278.5 460.5 277 461.3 279.5 461.9 278.5 462.5 278 462.9 279.5 463.1 280.4 463.3 278.5 463.8 277.5 464 279.5 464.5 277 465 280.9 465.6 283.3 465.8 284.8 466.1 286.2 466.3 288.7 466.6 289.1 466.9 292.5 467.2 293.5 467.3 293 467.7 292.5 468.3 291.6 468.9 290.6 469.5 293 469.8 294.5 470 294.5 470.3 296.9 470.4 296.9 470.5 295.9 470.6 295 470.7 293 470.8 290.1 470.9 292.1 471.5 294.5 471.9 297.9 472.4 297.4 472.9 293 473.3 292.5 473.9 294 474.8 292.1 475.2 288.7 475.8 288.7 476.4 289.6 476.4 291.1 476.6 288.2 477.1 290.1 477.4 289.6 478.2 288.2 478.5 288.7 479.2 289.1 479.7 288.7 480.2 289.1 481.2 290.1 482 291.6 483 293 483.2 289.6 483.9 289.6 484.2 287.7 484.6 282.4 484.9 282.8 485.3 283.8 485.8 281.4 486.3 281.4 486.7 278.5 486.8 277.5 487.2 276.1 488 279 488.4 279 488.9 278.5 489.6 278 489.7 274.1 489.8 273.2 490.2 277.5 491 277 491.3 270.2 491.4 272.7 491.7 273.2 492.4 274.6 493 272.2 493.3 271.2 493.8 270.7 494.2 274.1 494.5 271.2 494.8 275.6 495.1 278 495.6 279.9 495.9 281.9 496.2 281.9 496.4 279.9 496.7 276.5 497.1 281.4 497.6 281.9 498 280.4 498.5 278 499 271.2 499.1 274.6 499.5 276.5 499.8 276.1 500.2 275.1 500.8 278 501.4 275.1 501.8 276.1 502.3 276.1 502.7 274.6 503 275.6 503.4 276.5 504.1 279 504.5 280.4 504.7 281.9 505.3 281.4 505.4 272.2 505.4 266.9 505.4 267.8 505.5 269.3 505.6 271.7 505.7 267.3 505.7 261.5 505.7 262 505.8 255.7 505.8 247.5 505.8 241.2 505.8 244.6 505.8 246.5 505.8 246.5 505.9 247 505.9 250.4 505.9 252.3 505.9 258.1 505.9 261.5 505.9 259.1 506 262.5 506 258.1 506 257.2 506 259.6 506.1 266.4 506.1 264.9 506.1 269.3 506.1 278 506.1 280.4 506.1 279.5 506.1 279.9 506.2 278.5 506.2 282.4 506.2 279.9 506.3 283.3 506.4 283.3 506.4 284.8 506.5 281.4 506.6 286.7 506.7 286.7 506.9 283.8 507.1 281.9 507.4 281.9 507.8 281.9 508.1 283.3 508.6 281.9 509 281.9 509.5 283.8 509.9 284.3 510.2 286.7 510.4 287.2 510.9 288.7 511.2 289.6 511.7 290.6 512.1 288.2 512.6 287.7 513.4 287.7 514 289.6 514.9 286.7 515.7 290.1 516.2 288.7 516.7 287.7 517.4 291.1 518 292.1 518.3 295 518.8 294 519.5 293.5 520.1 294 520.8 294.5 521.3 294.5 521.8 295.9 522.3 296.4 522.8 296.4 523.1 297.4 523.7 291.1 524.1 287.7 524.6 284.3 525.1 284.3 525.8 283.8 526.2 282.4 526.6 281.9 527.4 281.4 527.9 284.3 528.4 285.8 529.4 284.8 529.8 288.7 530.2 287.2 530.3 286.2 530.4 286.7 531.2 286.7 531.8 285.8 532.7 276.1 532.7 271.2 533 277.5 533.6 277.5 534.1 278 534.5 279.9 535.2 280.4 536 281.9 536.4 282.4 537 279.9 537.4 281.9 537.6 278 538.2 282.8 538.4 279.9 539.5 283.8 540.7 285.3 541.5 285.3 542.2 285.3 543.1 287.2 543.8 286.7 544.9 286.7 546 284.3 546.9 285.8 547.9 289.6 548.5 289.1 549.2 289.1 549.9 292.1 550.7 288.2 551.2 289.6 552.5 288.7 553.5 286.7 554.6 287.2 555.7 286.2 556.1 286.2 557.1 286.2 557.8 284.3 558.9 285.3 559.9 281.9 560.9 280.9 562.1 283.3 562.8 280.4 564 278.5 565.3 277 566.8 277.5 567.9 278.5 569 278.5 570.3 278 571.7 279.5 573.5 280.4 574.7 282.4 574.9 279 575.6 279.5 576.5 277.5 577.1 275.6 578.2 277 579.6 277 580.5 277 581.5 278.5 582.4 280.4 583.9 279.9 585.2 279.9 586.5 281.4 588.4 283.3 589.6 282.8 591.5 283.8 593.3 283.3 594.8 285.3 595.3 285.3 595.9 286.7 597.5 285.3 598.6 286.7 598.8 286.7 598.9 286.2 599 286.7 600.2 284.8 601.5 284.8 602.4 286.2 602.6 286.2 603.6 284.3 604.3 282.4 605.5 280.9 606.5 279.5 607.8 279.5 609.1 280.4 610.3 281.9 611.7 281.4 612.4 282.8 613.9 280.9 616.1 282.4 617.6 285.3 618.3 286.2 619.5 288.2 620.9 286.7 622.5 287.7 623.8 287.7 625.5 287.7 626.3 289.6 627.6 290.6 628.7 290.1 629.1 295 629.5 295.9 630 295 630.7 295.9 631.6 294.5 632.8 293 633.9 292.1 635 295 635.5 297.4 636.5 296.4 637.7 295.9 639.2 296.9 640.3 295.4 641.5 295 643.1 297.4 644.6 298.4 646 298.4 647.2 298.8 647.9 300.8 648.8 301.7 649.4 300.3 650 303.2 650.8 303.2 651.5 305.1 651.9 309 652 308 652.2 308 652.5 307.6 652.6 305.6 652.7 305.1 653.1 306.1 653.6 306.6 654.3 307.1 654.9 308.5 655.4 309 655.7 306.6 655.9 306.1 656.2 306.1 656.3 306.6 656.4 306.6 656.8 307.1 657.3 307.1 658 303.2 658.5 306.1 659.3 311 659.8 309 660.6 313.4 661 312.9 661.6 312.4 662 311.9 662.5 309 663.2 308.5 663.7 309.5 664.3 310 664.9 310 665.9 310.5 666.5 311 666.8 309.5 666.8 306.1 666.8 301.3 666.8 309.5 666.9 310.5 667 311.4 667.1 312.9 667.2 313.9 667.2 314.3 667.3 313.9 667.4 314.3 667.7 312.4 668.1 311.4 668.4 311 668.8 311.4 669.3 311.9 669.4 312.4 669.6 311.9 669.7 312.4 669.9 311.4 670 309.5 670.1 308 670.2 309.5 670.4 311.4 670.5 311.9 670.6 311.4 670.8 311.9 670.9 312.9 671 312.9 671.2 314.3 671.3 313.9 671.4 314.3 671.5 315.3 671.7 314.8 671.8 315.8 671.9 315.3 672 312.9 672.1 314.3 672.3 313.9 672.5 313.4 673.1 315.3 673.7 314.3 674.5 314.8 675.3 314.8 675.4 320.6 675.5 321.1 675.7 321.6 676 322.6 676.3 324.5 676.5 324.5 677 325.5 677.4 324.5 677.9 326 678.4 319.7 678.9 321.1 679.3 321.6 679.7 316.3 680.2 317.7 680.5 317.7 681.1 316.3 682 313.9 682.2 309 682.6 312.4 683.4 312.9 684.3 314.3 685.1 314.8 686.4 313.4 687.1 313.4 687.8 312.4 688.4 311 689 310.5 690 312.9 691.1 310.5 692.5 311 694.1 311.9 695.5 309 696.1 308.5 697.4 310.5 699 312.4 700.2 314.8 701.6 312.9 702.4 317.3 703.1 318.2 703.9 315.8 704.9 310 705.6 310 706.6 314.8 708.1 315.3 708.8 315.3 710 313.9 710.5 311.4 711.3 311 712.1 312.9 713.7 313.4 715.2 316.3 715.9 317.7 716.9 318.7 717.5 317.7 718.7 319.2 719.5 318.7 720.2 321.6 721.5 320.6 722.1 320.2 723 319.7 723.6 324 724.2 325.5 724.8 320.2 725.4 318.7 726.1 322.1 726.7 322.1 727 324 727.2 325.5 727.5 327.4 727.8 326.9 727.9 330.8 727.9 328.9 728 329.9 728.1 329.9 728.2 328.9 728.4 328.9 728.6 329.4 728.9 327.4 729.3 326.9 729.7 327.4 730.1 326.9 730.3 325.5 730.5 324 731 323.1 731.4 326.5 732 326 732.5 325 733.3 326.9 733.8 326.5 734.8 327.9 735.5 326 736.2 326.9 736.8 328.9 737.2 326.9 737.9 328.9 738.5 331.8 739 331.3 739.6 332.8 740.2 331.3 740.9 333.2 741 334.7 741.1 335.2 741.1 334.2 741.6 332.3 742 332.3 742.3 333.7 742.7 334.7 743 332.8 743 328.9 743.1 326.5 743.1 330.8 743.4 331.3 743.7 331.8 744.1 332.3 744.5 334.7 744.6 335.2 744.7 338.1 744.8 339.1 745 338.1 745.3 337.1 745.9 336.6 746.5 335.2 746.9 336.6 747.5 339.1 748.2 337.6 748.6 339.5 749.1 339.5 749.6 339.1 749.9 342 750.2 342.5 750.7 343.4 751.1 342.5 751.2 342.5 751.5 340.5 751.8 341.5 752.3 341 752.5 338.6 752.5 338.6 752.7 339.1 752.9 336.6 753.2 335.2 753.4 335.2 753.8 334.7 754.1 333.2 754.3 332.8 754.6 329.9 754.9 333.7 755.2 333.2 755.5 332.8 755.9 333.7 756.7 331.3 757.2 332.8 757.7 330.8 758.2 329.9 758.2 324 758.4 325 758.6 320.6 758.7 319.7 758.8 318.7 758.9 318.2 759 318.7 759 322.1 759.1 323.6 759.2 323.6 759.3 324 759.5 322.6 759.6 321.1 759.7 321.6 759.8 320.2 759.9 322.6 760 323.1 760.1 324 760.2 323.6 760.3 324 760.4 323.6 760.5 322.6 760.6 323.1 760.7 323.1 760.8 323.6 760.9 322.1 761 323.1 761.1 326.9 761.2 326.9 761.3 326.9 761.4 326.9 761.5 327.4 761.6 326.9 761.7 326.9 761.8 326 761.8 323.1 761.9 322.6 762 324 762.1 324 762.2 322.1 762.3 326.5 762.4 326.5 762.5 326 762.7 325.5 762.8 326 762.9 326 763.1 326 763.2 325.5 763.5 326 763.8 326 764.2 327.9 764.6 327.9 764.8 330.8 764.9 333.7 765 334.2 765.1 335.2 765.3 334.7 765.5 335.2 765.8 334.7 766 338.6 766.3 336.2 766.8 332.8 767 333.7 767.4 336.2 767.7 335.7 767.8 334.7 767.8 335.7 767.9 338.6 768 340 768.2 340.5 768.3 340.5 768.4 340.5 768.6 340.5 768.8 340.5 768.9 343.4 769.1 340.5 769.3 341.5 769.6 342 769.7 336.6 769.8 333.7 770.1 332.8 770.4 335.2 770.6 337.1 771.2 339.1 771.6 340.5 772.4 339.1 773.1 342.5 773.5 343.4 773.7 343.9 774.2 343.4 774.7 342.9 774.9 337.6 775 336.2 775 331.8 775.1 336.6 775.1 332.8 775.1 331.3 775.2 328.9 775.2 326 775.3 323.6 775.3 323.6 775.4 326.9 775.4 333.2 775.5 327.9 775.5 326 775.6 323.1 775.7 322.6 775.8 319.7 775.8 319.2 775.9 320.2 775.9 314.3 775.9 312.4 776 310 776 309 776.1 314.8 776.1 320.2 776.2 321.6 776.2 317.7 776.2 319.7 776.3 319.2 776.4 318.2 776.4 317.7 776.5 315.8 776.6 317.7 776.7 318.7 776.7 314.3 776.8 311.9 776.9 315.3 776.9 312.4 777 311.4 777 313.9 777.1 314.3 777.1 314.3 777.2 318.7 777.2 321.6 777.3 326.5 777.3 319.2 777.4 323.1 777.4 326 777.5 327.9 777.6 328.9 777.7 328.9 777.8 327.9 778 329.4 778.1 328.4 778.4 328.9 778.7 326.5 779 329.4 779.4 330.3 779.8 333.7 779.9 334.2 780.2 334.7 780.4 335.7 780.9 334.2 781.3 330.8 781.5 326.5 781.8 328.9 782.2 327.9 782.6 328.4 782.7 328.9 783 328.9 783.2 327.9 783.4 328.4 783.7 328.9 783.9 327.9 784.3 326 784.6 320.6 784.7 325 784.8 325.5 785.2 326.9 785.6 326 786.3 325.5 786.6 322.6 786.8 322.6 787.1 324.5 787.6 326.5 787.8 325.5 788.1 326 788.3 326.9 788.7 324.5 789.3 326.5 789.8 328.4 789.9 330.3 790.2 332.3 790.5 333.7 790.6 339.1 790.7 338.6 791.1 337.1 791.4 334.7 791.8 332.8 792.2 333.2 792.6 330.3 793 333.7 793 339.5 793 339.1 793.1 338.1 793.2 338.1 793.4 337.6 793.5 339.1 793.6 339.1 794.3 338.6 794.8 337.1 795 327.4 795 330.3 795.1 331.3 795.2 330.3 795.3 330.3 795.5 331.3 795.7 331.8 796.4 332.3 796.8 333.2 797 334.7 797.2 334.7 797.6 330.8 798 330.3 798.4 331.3 798.9 332.8 799.1 333.7 799.6 332.8 800.3 332.3 800.7 334.2 801.5 332.8 802.2 333.7 802.9 333.7 803.7 333.2 804.6 333.2 805.1 331.3 805.8 333.7 806.1 331.8 806.4 333.7 806.8 333.7 807.1 333.7 807.7 334.2 807.8 338.6 807.9 339.1 808.1 341 808.1 342.5 808.2 341.5 808.4 341 808.5 344.4 808.9 341.5 809.1 344.9 809.5 344.4 809.6 340.5 809.6 341.5 809.6 344.4 809.6 348.3 809.6 352.6 809.6 351.7 809.7 335.7 809.7 342.9 809.7 338.6 809.7 351.2 809.7 349.2 809.7 350.2 809.7 352.6 809.7 350.7 809.8 350.2 809.8 344.9 809.8 350.2 809.8 345.8 809.8 349.2 809.9 350.2 809.9 348.8 809.9 349.7 810 348.8 810.1 348.8 810.2 345.8 810.3 344.4 810.4 344.4 810.6 344.9 810.8 342.5 811 343.9 811.2 344.9 811.4 344.4 811.5 345.4 811.7 343.4 812.1 341 812.5 342 812.9 343.9 813.3 343.9 814.2 342 814.6 342.9 814.9 349.2 815.1 350.2 815.3 351.7 815.5 353.6 815.7 356 816 356.5 816.2 358.4 816.5 354.6 816.9 357.5 817.1 358 817.1 363.8 817.3 359.9 817.4 358 817.8 357.5 817.9 354.6 817.9 349.7 818 351.2 818.2 352.6 818.3 354.6 818.4 355.1 818.5 356 818.7 357.5 818.9 357.5 819.1 356.5 819.2 357 819.5 359.4 819.7 360.9 820.1 356.5 820.4 355.5 820.6 357 820.9 358 821.3 356 821.5 358 822 357 822.2 356.5 822.6 356 822.9 354.1 823.2 353.1 823.7 353.6 823.9 350.7 823.9 356.5 824.1 356 824.3 354.6 824.5 354.6 824.7 356.5 825 355.5 825.7 358.4 826.3 372 826.4 364.7 826.4 365.7 826.6 361.8 826.6 358 826.7 358 826.8 357 827 356.5 827.3 356 827.6 358.4 827.8 359.9 828.1 359.4 828.6 361.8 829.1 363.8 829.8 363.8 830.1 366.7 830.5 362.8 831 360.4 831.3 363.3 831.6 365.2 832.1 365.2 832.5 366.7 833.3 367.2 833.6 366.2 834.1 360.4 834.2 364.7 834.6 362.3 835.2 361.4 835.9 366.2 836.3 371.5 836.3 367.2 836.4 365.2 836.5 364.7 836.7 366.7 836.8 367.7 837.1 367.7 837.6 367.2 838.1 367.7 838.6 368.6 838.7 372 838.8 374.4 838.8 373.9 838.9 371 839 373 839.1 373.9 839.2 372.5 839.4 374.4 839.5 376.4 839.6 374.9 839.7 375.4 839.7 375.9 839.9 372.5 840 373.9 840.3 368.6 840.3 363.8 840.3 357.5 840.3 355.1 840.3 358 840.4 364.7 840.4 365.2 840.6 368.1 840.7 365.7 841.2 364.7 841.5 361.8 841.7 364.3 842.3 365.2 842.6 365.2 843.2 368.6 843.7 369.6 844.2 372 844.4 372 844.9 370.6 845.7 373 846.6 372.5 847.5 373.9 848.1 372 848.6 372 849.2 374.4 849.5 379.8 849.7 379.3 850.1 381.2 850.2 385.6 850.2 386.1 850.4 384.1 850.5 389 850.7 385.1 851 385.1 851.2 387.5 851.5 386.5 851.7 387 851.9 382.2 852.1 379.8 852.4 381.2 852.8 382.2 853 385.1 853.1 386.5 853.2 387 853.2 387 853.3 387.5 853.3 389.9 853.4 389.5 853.4 387.5 853.5 388 853.6 389.9 853.7 389 853.7 389.5 854 384.1 854 376.9 854 370.6 854 371 854 377.3 854 384.1 854 375.4 854 375.4 854.1 372 854.1 375.4 854.2 375.9 854.4 377.8 854.5 375.9 854.6 376.4 854.8 375.9 855 377.3 855.1 380.7 855.4 380.7 855.6 383.2 855.7 381.7 856 383.2 856.1 377.8 856.2 379.3 856.2 381.7 856.4 385.1 856.7 382.2 857 382.7 857.4 383.6 857.9 378.3 858.6 381.2 859.5 382.7 860.2 385.6 861 384.6 861.3 382.2 861.8 383.2 862.1 383.2 862.8 387.5 863.1 389.9 863.6 389.9 864 388 864.5 386.1 864.7 386.5 865.2 390.4 865.4 388 866 390.4 867 391.4 867.6 392.4 868.1 387 868.4 387.5 868.7 387.5 869 388.5 869.5 389.5 870.4 392.8 871.2 389.9 871.9 391.9 872.7 392.8 873.4 394.8 874.1 395.8 874.3 397.2 874.5 394.8 874.5 392.4 874.5 393.8 874.5 389.5 874.5 391.4 874.6 392.8 874.6 390.4 874.6 389.5 874.6 392.4 874.6 395.8 874.6 393.8 874.7 394.3 874.8 392.4 874.9 393.8 875.1 393.3 875.4 395.3 875.5 397.2 875.5 400.1 875.6 398.7 875.7 398.2 875.8 404 875.8 404.5 875.9 402.5 875.9 396.2 876 397.2 876 401.6 876 400.1 876.1 397.7 876.1 391.9 876.3 394.3 876.3 397.2 876.4 403.5 876.4 407.9 876.5 407.4 876.5 401.6 876.5 399.6 876.5 397.7 876.6 396.7 876.6 396.7 876.6 396.7 876.7 399.6 876.8 409.8 876.8 407.9 876.8 398.2 876.9 400.6 877.1 399.1 877.2 397.7 877.4 395.3 877.5 392.8 877.5 391.9 877.6 391.4 877.7 386.5 877.7 386.5 877.8 389 878 390.4 878.1 387 878.1 383.2 878.3 385.1 878.3 390.4 878.3 383.2 878.5 387 878.7 386.5 878.9 389 879.2 389.5 879.5 390.4 879.7 392.8 879.9 390.9 880 391.9 880.3 388.5 880.8 387.5 880.9 382.7 881.1 386.1 881.3 386.5 881.6 385.6 882 383.6 882.4 383.6 882.5 382.7 882.7 381.7 883 381.7 883.5 383.2 883.6 389.9 883.7 387 884 385.1 884.5 386.1 885.4 383.6 886.2 383.6 886.8 383.6 887.3 383.6 887.8 383.6 888.1 386.1 888.9 389.5 889.6 387 890.5 389 891.5 388.5 891.6 387.5 891.8 388.5 891.9 388 892.1 389 892.3 388.5 892.4 388.5 892.6 389.5 892.7 390.4 892.9 392.4 893 391.4 893.2 390.9 893.4 391.9 893.6 393.3 893.7 393.3 894 393.3 894.2 392.8 894.3 391.9 894.5 392.4 894.6 392.4 894.7 392.8 894.9 394.8 895 394.3 895.2 394.3 895.4 394.3 895.5 394.3 895.6 393.8 895.8 394.3 896 394.3 896.1 393.8 896.2 394.8 896.4 394.3 896.5 393.3 896.7 393.8 896.8 393.8 897 394.3 897.1 394.3 897.3 393.3 897.4 392.8 897.6 392.4 897.8 391.4 897.9 391.9 898.2 392.4 898.3 391.9 898.5 393.3 898.6 392.4 898.8 392.4 899 393.8 899.2 393.8 899.3 394.3 899.5 395.3 899.7 393.8 900.7 391.9 901.6 392.8 902.7 389.5 903.5 386.1 904.8 389 906.1 388.5 907.3 388.5 908 387 908.8 386.5 909.7 386.1 910.9 386.1 912 385.6 913 385.1 913.1 383.6 913.3 382.7 913.7 381.2 914.4 383.2 915.1 379.3 915.3 386.1 915.4 386.5 915.9 388 916 388.5 916.2 389 916.3 390.9 916.4 390.4 916.8 390.4 917.4 394.3 917.9 396.7 918.1 397.2 918.4 399.1 918.8 397.7 919 401.6 919.1 405 919.2 404 919.4 406.9 919.5 407.9 919.6 409.3 919.7 407.9 920 405 920.2 407.4 920.5 406.4 920.8 405 921 406.4 921.1 406.9 921.4 406.9 921.6 410.3 921.8 412.2 921.9 408.8 922 412.2 922.2 411.7 922.4 411.7 922.7 409.3 922.8 411.7 923 411.3 923.2 411.3 923.3 414.2 923.4 416.1 923.4 417.6 923.6 418.5 923.7 416.1 924 414.7 924.2 412.2 924.4 414.2 924.7 414.2 925 414.2 925.3 419.5 925.3 418.5 925.5 419.5 925.5 426.8 925.5 423.4 925.6 423.9 925.6 423.9 925.7 423.9 925.8 426.3 925.9 425.3 926 424.3 926.1 427.7 926.2 425.3 926.3 422.9 926.3 422.4 926.6 423.4 926.8 427.3 926.8 430.2 926.9 429.2 927 430.6 927.1 432.1 927.1 429.7 927.2 425.8 927.3 423.9 927.3 423.9 927.3 421 927.4 418.5 927.5 413.7 927.5 411.7 927.6 405.9 927.6 408.4 927.7 405.4 927.8 411.7 927.8 410.8 927.9 415.1 927.9 416.6 928.1 415.6 928.1 415.6 928.2 412.7 928.2 409.8 928.3 411.3 928.4 412.7 928.4 410.3 928.6 414.2 928.6 414.7 928.8 412.7 928.9 410.3 929 411.3 929 411.3 929.1 414.2 929.3 415.6 929.4 422.4 929.5 421.4 929.7 421.9 929.8 421.9 930 419.5 930.2 419.5 930.3 415.6 930.6 420.5 930.7 419 931.1 419 931.3 419 931.6 421 932 420.5 932.7 415.6 933 418.5 933.2 419 933.4 419.5 933.7 418.5 934 420 934 420 934 420 934 420 934 420 934 420 934 420 934 420 934 420 934 420 934 420 934 420 934 420 934 420 934 420 934 420 934 420 934 420 934 420 934 420 934 420 934 420" opacity=".6"/><text x="942" y="472" fill="#d97706" font-size="11" text-anchor="start">0.00</text><text x="942" y="396" fill="#d97706" font-size="11" text-anchor="start">0.01</text><text x="942" y="320" fill="#d97706" font-size="11" text-anchor="start">0.01</text><text x="942" y="244" fill="#d97706" font-size="11" text-anchor="start">0.01</text><text x="942" y="168" fill="#d97706" font-size="11" text-anchor="start">0.01</text><text x="942" y="92" fill="#d97706" font-size="11" text-anchor="start">0.01</text><text x="942" y="80" fill="#d97706" font-size="11" font-weight="600" text-anchor="start">price</text><polygon fill="#16a34a" fill-opacity=".08" points="297.3 468 297.3 116.4 297.3 116.5 298 116.6 298.3 116.7 873.4 116.1 925.5 116.2 925.5 468"/><polyline fill="none" stroke="#16a34a" stroke-linejoin="round" stroke-width="2" points="297.3 116.4 297.3 116.5 298 116.6 298.3 116.7 873.4 116.1 925.5 116.2"/><line x1="88" x2="110" y1="102" y2="102" stroke="#16a34a" stroke-width="2.5"/><text x="116" y="106" fill="#374151" font-size="11.5">equity</text><line x1="88" x2="110" y1="118" y2="118" stroke="#d97706" stroke-width="2.5" opacity=".8"/><text x="116" y="122" fill="#374151" font-size="11.5">price</text><text x="78" y="502" fill="#6b7280" font-size="12" text-anchor="start">2026-02-01</text><text x="934" y="502" fill="#6b7280" font-size="12" text-anchor="end">2026-02-06</text></svg>