<svg xmlns="http://www.w3.org/2000/svg" width="1000" height="520" font-family="ui-sans-serif, system-ui, sans-serif" viewBox="0 0 1000 520"><rect width="1000" height="520" fill="#fff"/><text x="78" y="28" fill="#111827" font-size="18" font-weight="700">Zone Recovery — BTCUSD best setting (equity / PnL)</text><text x="78" y="48" fill="#6b7280" font-size="12.5">lev 50 · ratio 3 · gap 20% · maxSteps 4 · maxDD 40% · random · vip 9 · 668 series, 75.1% win · vol $6775649496 ($62698110/day) · fees $573220</text><text x="78" y="68" fill="#1d4ed8" font-size="12.5" font-weight="600">USDC · BNB −10% · taker 0.0085%</text><text x="934" y="28" fill="#16a34a" font-size="18" font-weight="700" text-anchor="end">+1489713 USDT (+14897.13%)</text><line x1="78" x2="934" y1="468" y2="468" stroke="#e5e7eb" stroke-width="1"/><text x="68" y="472" fill="#6b7280" font-size="12" text-anchor="end">0.00</text><line x1="78" x2="934" y1="392" y2="392" stroke="#e5e7eb" stroke-width="1"/><text x="68" y="396" fill="#6b7280" font-size="12" text-anchor="end">439552</text><line x1="78" x2="934" y1="316" y2="316" stroke="#e5e7eb" stroke-width="1"/><text x="68" y="320" fill="#6b7280" font-size="12" text-anchor="end">879104</text><line x1="78" x2="934" y1="240" y2="240" stroke="#e5e7eb" stroke-width="1"/><text x="68" y="244" fill="#6b7280" font-size="12" text-anchor="end">1318657</text><line x1="78" x2="934" y1="164" y2="164" stroke="#e5e7eb" stroke-width="1"/><text x="68" y="168" fill="#6b7280" font-size="12" text-anchor="end">1758209</text><line x1="78" x2="934" y1="88" y2="88" stroke="#e5e7eb" stroke-width="1"/><text x="68" y="92" fill="#6b7280" font-size="12" text-anchor="end">2197761</text><line x1="78" x2="934" y1="466.3" y2="466.3" stroke="#9ca3af" stroke-dasharray="6 4" stroke-width="1.5"/><text x="934" y="460.3" fill="#6b7280" font-size="11" text-anchor="end">start 10000</text><polyline fill="none" stroke="#d97706" stroke-linejoin="round" stroke-width="1.2" points="78 293.5 78.4 302.7 78.7 292.3 78.8 289.5 79 284.8 79.1 281.7 79.7 283.3 80.2 287.8 80.9 287.7 81.5 292.8 82 285.9 82.4 289.5 82.7 291.4 83.1 292.2 83.4 288.8 83.5 280.3 83.7 286.9 83.9 294.5 84 294.5 84.1 293.4 84.4 296.6 84.5 294.6 84.7 295.1 84.8 293.7 85 287.2 85.3 293.4 85.6 291.2 86 295.5 86.4 292 86.8 296.7 87.2 297.3 87.6 303.3 88.2 301.6 88.6 300.1 89.7 299.2 90.1 300.6 90.5 300.5 90.8 301.1 90.9 298.8 91.3 301.2 91.5 302.7 91.8 300.6 92.1 299.9 92.5 299 92.8 300.6 93.1 298.8 93.4 298.8 93.6 290.9 93.9 286.9 94.2 291.6 94.6 290.9 95 292.1 95.5 291 96.2 296.8 97.4 302.9 98.1 299.9 98.5 302.1 98.6 307.9 98.6 310.3 98.8 311.3 99 308 99.3 304.4 99.8 307.9 100.2 310.6 100.6 306.1 100.9 307.5 101.2 305.8 101.4 303.5 102.6 309.9 103.1 309.3 103.4 317.1 103.5 310.9 104.2 310.5 105.4 308.9 106.1 308.1 106.5 306.2 106.8 307.1 107.1 306.5 107.3 303.1 107.6 305.6 107.9 304 108.2 302.8 108.5 302.5 108.9 305.9 109.3 305.9 109.7 307.9 110.4 308.8 111.5 309 113.4 311.2 114.2 315.4 114.7 315.2 115.1 313.9 115.5 313.2 116.1 312 116.6 310.3 117 305.5 117.6 306.4 118.3 313.5 118.8 313.9 119.8 314 119.8 319.4 120 320 120.6 326 121.2 324.2 121.9 322.9 122.3 326.8 122.7 318 122.9 319.1 123.3 318.2 123.6 318.6 123.8 332.6 123.8 336.2 123.8 329.6 124.2 327.3 124.6 326.1 124.9 326 125.2 330.8 125.5 330 125.7 334.7 125.9 332.7 126.1 333.8 126.5 332.4 126.9 328 127.3 332.2 127.7 333.5 128.3 325.8 128.9 317.5 129.2 317.6 129.7 311.7 129.7 305.2 129.9 303.3 130.2 307 130.5 305.7 130.7 305.2 130.9 304.4 131.2 299.2 131.4 296.9 131.6 297.7 131.9 300.8 132.2 299 132.6 301 132.9 301.2 133.4 302.1 133.8 300.5 134.2 293.5 134.6 298.2 135.3 299.7 136.2 306.2 137.3 304.9 137.8 299.9 138.3 304.1 138.8 303.2 139.2 304.7 139.6 304.7 140 304.7 140.3 308.2 140.6 307 141 303.2 141.4 302.9 141.8 304.3 142.2 307.4 142.9 308.8 143.9 305 145 302.9 145.6 305.7 145.9 303.3 146.1 290.7 146.1 284.2 146.2 286.4 146.3 282.3 146.4 277.8 146.5 266.7 146.5 269.7 146.6 273.8 146.8 272.6 147 271.9 147.2 271.7 147.4 269.2 147.7 272.8 148 272.3 148.3 272.2 148.6 275.3 148.8 271.2 149.2 272.6 149.5 273.2 149.9 274.5 150.2 275.2 150.5 273.7 151 273.6 151.5 270.3 152 270.8 152.4 273.9 152.8 278.1 153.3 277.3 153.7 280.6 154 278.2 154.3 278.9 154.6 275.2 154.9 275.2 155.3 277.6 155.6 276 155.9 273.8 156.2 274 156.3 271.1 156.5 275.7 156.8 273 157.3 274.1 157.7 277.1 158.3 276.1 158.7 273.3 158.8 261.3 158.8 261.9 158.9 263.1 158.9 278.2 159 277.4 159 286.4 159 286.7 159.1 284.7 159.3 285.8 159.7 287 159.9 294.7 160.4 289.6 160.9 293.7 161.3 291.6 161.7 291 162 294.4 162.3 292.9 162.5 293.8 162.7 292.7 163 292.1 163.4 293.9 163.7 292.3 164.2 292.8 164.5 293.6 164.9 293.2 165.1 298.1 165.5 295.7 166 293.9 166.5 292.7 167.2 291 167.9 291.8 168.8 292.8 169.6 291.9 170.1 286.1 170.5 291.2 171.1 293.6 171.6 293.1 172.3 292.5 173.3 293.8 174 291.1 174.7 292.5 175.9 291.1 177.3 283.7 178 285.2 178.4 283.7 178.8 284.6 179.2 285 179.7 292.1 179.7 301.9 179.7 303.4 179.9 299.9 180.4 297.5 181 297.2 181.5 295.6 182 295.5 182.7 296.7 183.3 293.9 183.9 294.3 184.7 295.2 185.4 297.4 185.9 298.5 186.4 299.3 186.5 288.6 186.6 291.9 187 292.4 187.4 291.4 187.6 292 188 297.1 188.3 292.7 188.9 291.8 189.2 288.9 189.6 292.6 190.1 293.4 190.7 293.5 191 292.7 191.6 297.2 192.3 295 192.9 295.9 193.5 295.4 193.8 298.8 194.2 295.5 194.2 303.4 194.3 305.7 194.3 312.1 194.3 306.6 194.6 305.2 194.8 306.4 195.1 305 195.3 305.3 195.7 305.6 195.9 307.5 196.1 308.1 196.5 307.4 196.8 306.3 197.2 305.7 197.6 306.3 198.1 306.9 198.9 305.7 199.4 307.9 200 309.8 200.7 312.6 200.7 317.7 200.9 319 200.9 323.6 201.1 320.7 201.3 319.6 201.5 320.6 201.7 322.4 202 321.9 202.1 324.8 202.2 319 202.5 321 202.7 320.8 203 320.8 203.2 323.1 203.5 320.8 203.9 320.5 204.3 319.2 204.7 318.7 205.1 321.1 205.6 321.3 206.1 321.8 206.6 322.9 207 321.4 207.5 316.4 208.1 312.7 208.7 313.3 209.1 314.8 209.5 314.4 209.7 313.8 210 313.5 210.2 310.7 210.5 313.1 210.7 312.3 210.9 312.3 211.2 314.3 211.5 314.4 211.7 315.3 211.9 313.7 212.3 314.7 212.7 314.1 213.1 311.4 213.5 312.2 213.9 313.4 214.5 324.5 214.5 328 214.5 329.5 214.6 327.7 214.9 325 215.3 327.1 215.6 333.5 215.9 326.1 216.4 325.7 216.7 322.7 217 324.3 217.2 322.9 217.4 325.8 217.7 324.3 217.9 325.1 218.1 323.9 218.3 324.5 218.5 325.3 218.8 320.2 219 323.5 219.2 323 219.3 323.4 219.5 324.2 219.8 323.3 220 321.2 220.3 320.7 220.6 322.1 220.9 323.8 221.4 325.3 221.8 322.9 222.4 323.9 222.7 324.6 223.2 323.9 223.7 321.3 224.3 323.1 224.6 327.6 224.8 317.5 224.9 316.1 225.1 318.1 225.6 317.4 226 319.8 226.3 319.7 226.8 319.7 227.2 320.2 227.4 324.2 227.7 323.3 228.2 323.1 228.6 323.7 228.9 324.9 229.1 326 229.4 325.7 229.8 325.7 230.3 324.8 231.4 327 232.4 323.3 233 321.9 233.5 317.3 233.8 318 234.1 312.7 234.3 309.4 234.5 307.2 234.8 306 235 301.1 235.2 296.3 235.4 301.4 235.7 301.7 236 302 236.3 302.8 236.7 301.4 237.1 300.4 237.5 300.8 238 301.5 238.4 299.7 239 301.5 239.6 302.5 240 297.8 240.4 300.7 240.7 300.6 241.1 299.5 241.4 298.8 241.5 292.1 241.5 305 241.6 304 241.8 305.6 242.1 304.7 242.2 303.9 242.5 303.8 242.8 305 243.1 302 243.4 302.5 243.6 301.5 243.8 302.9 244 302.9 244.3 302.2 244.6 303.4 244.9 304.1 245.3 303.2 245.8 303 246.4 301.5 247 300.2 247.4 298.6 247.8 299.9 248.3 296.7 248.5 298.8 248.8 301.8 249.1 301.4 249.3 302.5 249.5 302.3 249.8 302 250.1 302.4 250.4 302.7 250.6 303.4 250.8 304.5 251 308.6 251 309.8 251.1 310.7 251.4 309.6 251.5 310.6 251.7 311.2 252 312.7 252.1 319 252.2 316.5 252.3 316.7 252.6 316.4 252.8 316.3 253 316.4 253.3 316 253.4 323 253.6 321.6 253.8 320.7 254.1 322.2 254.4 321.4 254.9 321.9 255.5 319.8 256 320.2 256.3 325.9 256.5 360.8 256.5 361.1 256.5 355.3 256.5 356.3 256.5 355.5 256.5 354.4 256.6 355.6 256.6 355.8 256.7 361.1 256.7 360.5 256.7 359.2 256.8 361 256.8 362.3 256.9 361.2 257 358.8 257.1 360.4 257.2 359.7 257.3 360.4 257.4 361 257.5 370.1 257.6 373.9 257.6 366.6 257.7 360.8 257.8 359.3 257.9 360.4 258.1 360.4 258.3 356.7 258.4 357.8 258.6 356.4 258.7 357.1 258.8 357.4 259 361 259.2 358.3 259.4 361.5 259.6 362.7 259.7 364.9 259.9 363.6 260.1 361.9 260.1 361.7 260.1 361.7 260.2 358.6 260.4 360.9 260.7 361.1 260.8 362.6 261 363.3 261.3 364.8 261.5 364.5 261.7 364.6 262.1 364 262.3 366.1 262.5 368.1 262.8 363.5 263.2 360.3 263.5 361.7 263.9 362.8 264.3 361.2 264.6 361.8 264.8 360.3 265 359.2 265.2 362.4 265.4 362.3 265.6 361 265.9 361.7 266.1 363 266.3 361.7 266.5 361.2 266.8 359.6 267.1 361.6 267.3 361.4 267.5 361.5 267.7 360.8 268.5 362.2 268.8 362.2 269.1 362.3 269.5 362.1 269.9 364.6 270.3 361.2 270.9 360.9 271.6 358.7 271.7 353 271.8 347.6 272.1 349 272.3 347.7 272.6 347.3 272.7 343.3 272.9 343.9 273.1 342.4 273.2 339.7 273.3 333.2 273.3 285.9 273.3 292 273.4 300.8 273.4 291 273.4 284.7 273.5 280.6 273.5 289.4 273.6 289.1 273.7 287.4 273.8 274.6 273.8 258.5 273.8 269.3 273.9 271.7 273.9 276.3 273.9 276.1 274 276.9 274.1 278 274.2 270 274.3 270.3 274.4 270.3 274.5 275.1 274.7 269 274.8 270 275 273.1 275.2 271.5 275.4 269.7 275.6 263.3 275.7 268.1 276 266.3 276.1 259.4 276.2 250.4 276.2 243.6 276.2 212.1 276.3 224.8 276.3 220.1 276.3 228.8 276.3 224.7 276.4 212.8 276.4 215 276.5 195.1 276.5 194.8 276.5 193.6 276.6 182.4 276.6 122.8 276.6 134.9 276.6 170 276.6 143.7 276.7 156.9 276.7 142.1 276.7 159.8 276.7 183.4 276.8 171.3 276.8 168.3 276.9 169.4 276.9 188.6 277 182.4 277 188.4 277.1 196.3 277.2 198.3 277.3 188.3 277.4 196.6 277.7 178.7 278.1 195 278.5 193.5 278.6 208.8 278.7 201.5 279 219.7 279.1 228.8 279.2 222.5 279.5 220.7 280.1 215.4 280.2 213.1 280.4 226.2 280.7 228.7 281 222.5 281.3 226.8 281.7 230.2 282 229.7 282.3 240.5 282.3 241.8 282.4 235.9 282.7 237.2 283 229.4 283.2 222.2 283.6 226.2 284 211 284.4 224.5 285 225 285.8 224.8 286.7 225.3 287.2 217.8 287.5 208.3 287.7 198.2 287.7 191.9 287.8 207.9 287.8 222 287.9 217.7 288.3 208.9 288.5 204.4 288.7 205.9 288.9 196.8 289 196.7 289.2 198.4 289.3 200.2 289.3 189.1 289.4 188.3 289.5 184.3 289.6 186.8 289.8 187.7 290.1 187.4 290.3 185.4 290.5 181.5 290.7 181.1 290.9 193.5 290.9 195.9 291 188.8 291.2 190.3 291.4 191.7 291.5 196 291.6 195.7 291.8 196.3 292.1 188.4 292.3 182.1 292.3 169.2 292.4 169.2 292.4 177.5 292.5 180.8 292.6 184.8 292.8 180 293.1 185.8 293.2 193.3 293.6 187.6 293.8 188.9 294 196.6 294.1 209.2 294.2 211.2 294.5 203.9 294.7 217 295.1 210.8 295.5 206.6 295.8 208.6 296.1 213.5 296.3 208.4 296.5 214.4 296.7 214.2 296.9 212.2 297.1 208.8 297.3 207.6 297.6 211.8 297.9 203.3 298 206.4 298.3 207.8 298.5 208.4 298.9 201.9 299.1 203.3 299.4 202.7 299.7 212.3 299.7 220.9 299.7 219 299.9 221.9 300.2 220.3 300.5 217.9 300.8 219.1 301.1 206.2 301.3 207.8 301.5 198.6 301.6 201.6 301.9 204.3 302.4 203.6 302.9 211.7 303.4 204.6 303.8 205.1 304 206.6 304.2 213.4 304.4 213.3 304.6 212.6 304.9 214.1 305.1 214.7 305.4 215 305.7 214.6 305.9 210.2 306.1 212.1 306.3 228.8 306.3 232.3 306.3 231.1 306.4 220.3 306.4 206.8 306.5 206 306.6 204.4 306.8 208.5 307 206.2 307.2 204.9 307.5 205.7 307.7 206.8 308 211.4 308 212.8 308.2 209.8 308.5 213.5 308.8 216 309 214.9 309.3 220.8 309.6 222.8 310 222.6 310.4 223.7 310.8 222.5 311.2 230.1 311.2 236.1 311.4 238.1 311.7 232.2 311.9 231.8 312.2 234.1 312.4 231.8 312.6 235 312.9 233.9 313 234.3 313.1 237.7 313.3 235.2 313.5 231.6 313.9 230.7 314.1 225.4 314.3 225.6 314.6 225.8 314.8 229 315.1 227.7 315.4 224.8 315.7 224.8 316 228.8 316.2 234.4 316.5 231.6 316.9 230.4 317.4 231.8 317.7 224.7 318 230.6 318.7 231.6 318.9 237.6 318.9 242.6 319.1 237.4 319.4 229.1 319.6 218.7 319.7 211.4 319.7 211.2 320 216.2 320.2 215.3 320.4 219.9 320.7 217.8 320.8 222.5 321.1 222 321.4 218.6 321.6 219 321.8 221.9 322.1 222.7 322.3 221.7 322.4 226.2 322.6 231.6 322.6 233.5 322.6 232.9 322.7 234.6 322.8 227 323 229.1 323.2 230.9 323.6 229.1 324 229.9 324.3 232 324.7 233.7 325 233 325.3 231.2 325.5 232.3 325.8 230.5 326 230.5 326.1 231.9 326.4 228.2 326.5 229.9 326.9 231.4 327.2 227.1 327.3 220.7 327.5 227.1 327.7 228.1 327.9 230.4 328.1 231 328.3 231.2 328.6 229.2 328.8 230.4 328.8 228.2 328.9 231.4 329 229.6 329.2 227.5 329.4 227.1 329.6 228 329.8 224.8 329.9 225.5 330.1 226.6 330.3 224.4 330.5 222.9 330.7 222.6 330.9 219 331 222.7 331.2 221.6 331.4 221 331.7 220 332 218.9 332.4 221.8 332.7 220.1 333.3 221.8 333.7 223.3 334.2 221.9 334.8 222.4 335.4 218.1 335.5 219.1 335.8 213.3 335.9 214.6 336.3 212.3 336.6 215 336.9 213.8 337.2 213.4 337.5 216.6 337.9 215.4 338.3 215.3 338.7 217.4 339.2 216.1 339.7 215 340.2 213.2 340.6 212.9 340.9 218.6 341.8 218.3 342.4 222.1 342.8 229.2 342.9 229.1 343.5 230.8 344.1 226.7 344.8 226.1 345.2 230.3 345.7 227.8 346.2 228 346.6 231.3 346.7 227.4 347 223 347.4 224.9 347.8 228.6 348.3 228.3 348.8 229.6 349.3 228.6 350 225.2 350.6 227.3 351 219.8 351.4 220.7 351.7 220.7 352 219.2 352.2 214.3 352.5 218.1 352.7 215.4 352.9 215.1 353.1 214.7 353.4 217.3 353.7 219 354 216.8 354 200.6 354 200.2 354.1 200.7 354.2 202.5 354.2 202.4 354.4 204.8 354.6 207.4 354.7 208.3 354.9 209 355.1 207.6 355.3 210 355.5 209.7 355.8 206.4 355.9 206.1 356.2 206.1 356.5 207.3 356.8 209.8 357.1 210 357.4 213.9 357.5 220.8 357.6 226.3 357.7 224.1 358 221 358.4 215.8 358.9 217.7 359.5 215.7 359.8 219 360 218.3 360.2 213.1 360.4 212.6 360.5 216.3 360.7 213.1 360.8 213.3 361 211.6 361.3 212.6 361.5 213.6 361.7 212.8 361.9 211.7 362.1 213.2 362.3 211.9 362.5 213 362.8 215.6 363 213.6 363.1 215.7 363.3 215 363.4 217.7 363.7 218.5 364 214.6 364.4 217.5 364.7 214.9 365 214.3 365.3 212.3 365.6 206.8 365.9 208.8 366.3 210 366.5 212.8 366.8 212.1 367.1 210.6 367.4 212.4 367.7 215.5 368 213.2 368.2 213.5 368.5 214.9 368.7 216 369 219.2 369.2 217.5 369.4 216.4 369.7 216 369.9 217.4 370.2 215.1 370.5 213.5 370.8 213.1 371.1 213.1 371.4 212.6 371.8 215.9 372.1 217.4 372.6 216.1 372.9 219.1 373.3 217.3 373.6 220.5 373.7 220.6 374.1 220.9 374.4 222.9 374.4 227.8 374.6 225.4 374.9 226.3 375.2 229 375.5 224.9 375.8 226.1 376 223.5 376.3 224.7 376.5 224.3 376.7 224.7 376.9 224.5 377.1 225.3 377.4 223.7 377.7 224.8 377.9 225.4 378.2 227.2 378.2 225.4 378.4 222.7 378.6 222.7 378.7 223.5 378.9 224.4 379.2 225.1 379.5 222.7 379.8 222.6 380.1 222 380.4 221.7 380.7 224.2 381 224 381.3 225.8 381.5 230.1 381.7 232.7 381.8 235.6 382 238.1 382 244.7 382.1 241 382.4 238.2 382.7 238.5 383 240.5 383.3 241 383.4 247.2 383.5 261.1 383.5 264.1 383.5 259.2 383.6 257.7 383.7 256.2 383.8 259.1 383.9 265.1 383.9 263.2 384 260 384.1 260.5 384.3 259.9 384.4 257.3 384.5 261.9 384.6 260.4 384.8 258.8 385 257.8 385.2 254.2 385.3 255.7 385.5 257 385.7 254.2 385.9 256.4 386.1 252.8 386.3 251.3 386.5 253.5 386.7 255.1 386.9 259 387.2 256.2 387.5 255.3 387.9 256.7 388.2 254.4 388.6 254.3 389 251.8 389.4 251.8 389.9 255.5 390.4 252 391 253.2 391.4 252.8 391.8 257.8 392.1 257.1 392.4 259.3 392.6 259.3 392.9 259.1 393.2 258.3 393.6 259.1 394 257.5 394.3 256.7 394.5 255.7 394.8 255 395.2 258 395.6 258 395.9 258.7 396.3 257.7 396.7 253.2 397.2 252.5 397.9 253.6 398.6 252.4 399.3 253.5 399.7 254.1 400.2 255.9 400.2 233.1 400.2 237.1 400.3 240.9 400.5 238.7 400.8 237.3 401.1 237.8 401.4 236.6 401.7 237.5 402.1 237.4 402.3 236.3 402.6 236.9 403 237 403.4 236.6 403.9 238.5 404.3 244.2 404.5 244.9 404.8 250.4 405 255.6 405.1 258.6 405.4 258.4 405.8 264.1 405.9 267.9 405.9 270.8 406 269.9 406.3 264.1 406.6 263.8 406.9 264.4 407.2 264.5 407.4 263.9 407.7 262.7 408 264.5 408.2 263 408.5 263.9 408.7 262.7 409 258.6 409.1 261.3 409.4 260.9 409.7 262.9 410 260.7 410.3 261.5 410.5 263.3 410.7 262.7 411.1 261.6 411.4 260.3 411.8 262 412 262.1 412.4 260.4 412.7 260.6 413.2 258.8 413.8 261.9 414.3 261 414.7 252.9 414.7 253.4 414.8 263.5 414.9 263.2 415.1 266.3 415.4 266.6 415.7 268.6 415.8 274.6 415.8 264.2 415.9 266.9 416.2 263.7 416.4 262.3 416.6 260.9 416.9 261.5 417.2 260 417.4 259.2 417.6 257.6 417.9 257.8 418.1 259.9 418.3 259 418.6 256.3 419.7 261.1 420.1 262.4 420.4 261.1 420.9 260.3 421.4 259.5 421.8 259.3 422.1 258.6 422.7 259.7 423.1 262.5 423.5 261.5 423.8 261.1 424.1 261.1 424.3 260.4 424.5 260 424.8 260.2 425.1 260.5 425.4 258.2 425.6 260 426 260.2 426.2 260 426.6 258.1 427 258.8 427.2 261.1 427.5 260.9 427.9 259.5 428.1 266.8 428.4 267.7 428.7 266.3 429 266.9 429.3 271.7 429.5 273 430 270.9 430.4 273.2 430.7 273.7 431 272.1 431.2 268.4 431.5 268.8 431.7 271 431.9 270.3 432.2 269.2 432.4 268.7 432.6 270.2 432.9 269.7 433.1 269.3 433.4 268.1 433.7 267.7 433.9 268.8 434.1 267.9 434.3 267.7 434.6 270.5 434.8 273.3 435.1 275.9 435.1 277 435.4 277.3 435.4 279.8 435.6 276.3 436 276.7 436.3 276 436.6 274.9 437 275.4 437.3 272.7 437.4 261.3 437.4 260.9 437.5 268.6 437.7 272.9 438.1 269.1 438.4 270.8 438.7 267.4 438.9 267.6 439.2 271.9 439.2 287.1 439.2 290 439.3 282.1 439.4 283 439.6 283.7 439.8 285.1 439.9 284 440.1 282.8 440.3 283 440.6 281.7 440.9 283.2 441.1 282.1 441.3 282.6 441.5 283.4 441.7 283.1 441.9 281.4 442.1 280.2 442.3 284.1 442.6 284 442.9 282.4 443.2 284.1 443.6 285.3 443.9 282.9 444.3 282.5 444.8 282.3 445.4 280.6 445.9 279.7 446.4 281.4 446.8 282.3 447.2 281.7 447.6 280.3 448 280.7 448.4 282.1 448.8 281.4 449.2 282.7 449.7 281.8 450.2 281.4 450.9 281.4 451.7 282.1 452.3 280.9 452.9 286.7 453 280.4 453.5 277.8 454.3 277 455 278.3 455.6 277.4 456.1 275.9 456.5 276.5 456.9 274.1 457.1 273 457.3 277.1 457.7 276.2 458 278.2 458.3 281.8 458.6 281.3 459 282.4 459.3 285.3 459.7 281.9 460.1 282.4 460.5 284.7 460.8 285.3 461.1 282.2 461.6 283.8 462 285.7 462.2 290.8 462.5 287.6 462.9 283.5 463.2 285.4 463.4 288.7 463.7 286.8 463.9 287.3 464 294 464 296.3 464 292 464.1 293.8 464.2 297.7 464.3 313.1 464.3 315.2 464.3 310.5 464.4 309.3 464.5 305.2 464.7 303 464.9 304.7 465.1 305.4 465.2 303.5 465.4 302.9 465.6 304.2 465.9 303.7 466.2 305.8 466.4 305.8 466.7 304.9 467 304.7 467.3 305.8 467.5 307.8 467.9 307.1 468.3 308.7 468.7 310.7 469.2 307.9 469.7 311.6 470 314.7 470 319 470.3 313.7 470.6 317.9 470.8 313.7 471 312.5 471.3 311.2 471.5 309.8 471.8 314.2 472 312.8 472.2 311.5 472.4 312.6 472.7 311.8 472.9 313.6 473.2 311.6 473.5 309.9 473.8 308.6 474.1 310.8 474.4 309.4 474.7 309.1 475.7 310.5 476 310.9 476.5 308.8 477 312.3 477.5 315.4 478.1 312.3 478.3 313.1 478.6 313.5 478.9 310.4 479.2 311.2 479.4 309.8 479.8 309.6 480 308.4 480.1 305.4 480.2 311.9 480.4 313.5 480.6 313.4 480.9 313.5 481.2 312.9 481.4 310.6 481.6 313 481.9 313.7 482.2 313.4 482.5 312.5 482.8 311 483 311.6 483.4 311.7 483.9 311.1 484.3 313.7 484.8 315 484.9 319.4 484.9 325.1 484.9 326.1 485 324.6 485.4 326.2 485.7 330.3 485.9 330 486.2 330.4 486.4 329.2 486.7 330.8 486.8 334.4 486.9 363.6 487 353.6 487 356.3 487 355.8 487.1 349.7 487.1 350.7 487.2 349.7 487.2 349.3 487.4 348.6 487.4 349.9 487.6 351.1 487.7 351.7 487.8 353.3 487.9 354 488.1 351.6 488.2 353.3 488.4 350.7 488.5 349.2 488.7 348.3 488.8 352.5 489.1 350.4 489.2 351.4 489.4 348.9 489.6 348.3 489.7 350.6 490.4 347.1 490.6 346.6 490.8 346.9 491 349.2 491.3 350.3 491.5 349.5 491.8 352.5 492 355.6 492.1 359 492.2 364.6 492.4 358.9 492.6 342.1 492.8 354.9 493 364.5 493 366.2 493.2 366.2 493.2 391.9 493.2 388.8 493.3 382.8 493.4 387.5 493.4 397.5 493.4 400.9 493.4 396 493.5 390.9 493.7 386.8 493.8 393 493.9 389.1 494.1 387.3 494.2 388.6 494.3 389.8 494.4 393.5 494.5 393.6 494.5 403.6 494.6 412.2 494.6 407.9 494.6 401.8 494.7 403.7 494.7 404.1 494.8 399.7 494.8 396.8 494.9 389.8 494.9 389.6 495 392.5 495.1 387.8 495.1 389 495.2 383.5 495.3 382 495.4 388.5 495.5 387.5 495.6 385.3 495.8 386.5 496 386.3 496.1 383.8 496.2 377.1 496.2 374.4 496.3 376.3 496.4 375.8 496.5 375.2 496.6 370.9 496.7 371.4 496.9 370.9 497 371.6 497 372.3 497.2 370 497.4 372.4 497.5 377.9 497.7 375.3 497.8 377.2 498 382.7 498.2 381.9 498.5 379 498.9 376.4 499.3 376.4 499.6 380.1 499.9 380.8 500.3 382.8 500.7 385.1 500.9 387.8 501.5 382.7 501.9 382.7 502.3 383.3 502.6 380.2 502.9 377.3 503.1 376.9 503.3 370.7 503.5 375.9 503.8 375.2 504.1 371.6 504.5 375.5 504.9 376.5 505.2 373.3 505.7 371.7 506 378.5 506.3 377.1 506.8 379.8 507.1 379.7 507.5 382.6 507.9 381.2 508.3 380.4 508.8 382.5 509.1 387.7 509.4 377.8 509.8 382.4 510.2 384.5 510.6 388.9 510.6 393.6 510.7 392 510.9 394.1 511 399.7 511.1 402 511.2 398.7 511.3 393.3 511.5 393.3 511.7 391 512.1 390.8 512.4 396.2 512.6 393.4 512.9 392.6 513.2 393.8 513.4 397.4 513.6 400.7 513.6 405.9 513.7 404.7 513.7 408.7 513.8 408.9 513.9 406.4 514.1 406.9 514.2 413.9 514.2 421.6 514.2 426.4 514.2 420.4 514.3 419.1 514.4 418.6 514.5 415.8 514.6 417.3 514.7 415.3 514.8 419.6 514.9 420.5 515 421.1 515.1 423.2 515.2 421 515.3 424.2 515.4 430.4 515.4 428.9 515.5 432.6 515.5 431.8 515.7 430.7 515.8 430.2 515.9 424.8 516.1 420.2 516.4 422.7 516.7 419.2 516.9 416.1 517.2 417.1 517.3 403.7 517.3 406.5 517.5 410.7 517.7 403.8 517.8 383.6 517.8 387 517.8 390.6 517.9 383.4 518 377.1 518.1 382.1 518.2 384.5 518.3 384.5 518.4 381.8 518.6 380.6 518.8 380.4 518.9 375.6 519 368.5 519.1 378.7 519.2 377.3 519.3 381.6 519.5 379.7 519.7 378.7 519.9 377.6 520.1 380.7 520.4 380.7 520.5 386.6 520.7 383.7 521 382.5 521.1 379.9 521.3 385.3 521.5 387.4 521.7 387.1 521.9 384.3 522.1 385.3 522.4 383.2 522.8 383.7 523.1 379.7 523.5 375.7 523.7 378.5 523.9 382.9 524.2 383.7 524.5 381 524.9 384.3 525.3 390.7 525.5 386.6 525.7 385.8 525.9 389.2 526.1 392.3 526.3 391.2 526.6 390.4 526.9 387 527.1 390.2 527.3 391.9 527.6 390.5 527.8 390.5 528.1 389.6 528.3 391.1 528.6 387.7 528.8 387.8 529 388.7 529.3 386.9 529.5 383.9 529.9 384.5 530.3 385.2 530.6 389.5 530.9 392 531.3 391.3 531.8 390.5 532.2 390.8 532.5 398.8 532.5 405.3 532.6 407.7 532.8 407 533.3 400.8 533.3 393.3 533.4 386.4 533.5 376.5 533.5 373.4 533.5 374.9 533.6 376.8 533.8 379.4 534 378.4 534.2 380.3 534.5 379.4 534.7 371.8 534.8 378.7 535 373 535 361.6 535.1 360.2 535.1 354.8 535.2 358.8 535.2 349.3 535.3 355 535.4 352.2 535.5 350.4 535.7 354.8 535.9 351.9 536.1 350.6 536.3 346.4 536.5 353.2 536.7 358.1 536.9 351.8 537.2 355.6 537.5 355.7 537.8 355.5 538.1 356.8 538.7 358.3 539.2 360.2 539.5 360.1 540 357.2 540.6 358.8 541.2 360.9 541.7 360.4 542.2 361.5 542.5 351.4 542.7 348.4 542.9 354.2 543.2 350.6 543.5 350 543.9 347 544.2 350.7 544.7 353.7 545 362.1 545.1 363 545.5 362.4 546 360.4 546.6 358.6 547.1 360.6 547.7 358.7 548 356.7 548.4 355.2 549 355 549.4 354.2 549.6 348.9 549.8 341.7 550 338.4 550.2 338.7 550.4 337.4 550.6 333.3 550.7 335.8 550.9 338.6 551.1 338.1 551.4 337.4 551.7 341 551.9 339.7 552.1 339.2 552.4 339.5 552.6 341.6 553 340 553.2 338 553.5 338 553.8 337.2 554.3 339.1 554.8 339.4 555.2 336.6 555.9 337.7 556.6 336.4 556.7 341.6 557.2 344.6 557.8 344.2 558 351.9 558.1 351.6 558.5 353.5 558.7 350.9 559.1 353.1 559.2 359.9 559.4 358.1 559.7 356.4 560.1 358.4 560.4 356.7 560.7 354.5 561.2 353.4 561.5 359.4 561.6 365.4 561.8 367.3 562.1 366.3 562.1 370.4 562.2 375.3 562.4 377.2 562.6 375.5 562.9 371.3 563.1 375.6 563.3 372.7 563.5 372.7 563.9 372.2 564.3 374.2 564.6 370.5 565.1 371.1 565.6 367.1 565.9 364.4 566.3 369.6 566.6 371.9 566.9 372.6 567.2 372.2 567.6 374 567.9 367.4 568.2 371.3 568.5 369.9 568.8 365.6 569 365.1 569.2 367.9 569.6 368 570 365.1 570.4 368.5 570.7 370 570.9 374.3 571.1 380.4 571.1 383.5 571.4 379.6 571.8 379.1 572.2 374.9 572.6 370.3 573 376.4 573.4 372.9 573.6 372.9 573.9 374.6 574.1 373.5 574.3 372.1 574.6 375.1 574.8 376.3 575 375.2 575.3 375.2 575.5 375.5 575.8 374.4 575.9 373 576.1 373.3 576.3 372.6 576.5 371.6 576.7 371.2 577 373 577.2 366.1 577.4 367.3 577.7 369.6 578.1 370.3 578.4 369 578.8 372.3 579.1 374.7 579.7 373.7 580.3 377.5 581 374.6 581.5 374.1 581.8 371 582 370.9 582.2 369.9 582.5 372.2 582.7 371.4 582.9 371.5 583.1 369.5 583.4 369.7 583.6 371.6 583.8 373.3 584.1 373.4 584.3 370.9 584.6 372.4 584.8 372.9 585.1 377.2 585.1 384.6 585.2 386.2 585.4 383.2 585.7 385.9 586 385.2 586.3 385.8 586.7 387.5 587.2 385.4 587.6 389.6 588 383.7 588.6 379.5 589.2 380.2 589.4 342.6 589.4 334.3 589.4 352.5 589.4 353.3 589.4 352.8 589.6 358.6 589.7 362.9 589.9 359 590.2 358.9 590.4 361.4 590.7 359.2 590.9 360.3 591.2 360.2 591.3 359.3 591.6 359.4 591.7 361.6 591.8 376.2 591.8 382 591.8 381 591.9 376.8 592 380 592 389.2 592.1 380.7 592.3 381.6 592.4 380.3 592.8 379.4 592.9 380.3 593.2 379.5 593.5 379.7 593.8 381.5 594.3 381.4 594.4 368.4 594.4 381.3 594.6 381.9 594.7 374.5 595 372.1 595.5 373.8 595.9 366.4 596.2 372.5 596.6 369 597 364.5 597.3 363.5 597.4 365.8 597.5 366.1 597.8 365.3 598 371.8 598.3 371.3 598.5 375.3 598.7 370.7 599 370 599.3 368 599.5 366.1 599.8 367.6 600 368.3 600.2 365.7 600.4 366.6 600.5 364.1 600.7 366 602.1 368.9 602.4 366 602.8 366.9 603.1 368.1 603.4 367.6 604 370 604.3 368.4 604.7 369.6 605.1 369 605.5 368 605.8 366.6 605.9 366.3 606.2 366.3 606.5 365.1 606.7 359 606.7 350.8 606.7 359 606.9 361.3 607.2 363 607.6 362.5 607.9 360.3 608.2 358 608.4 353.7 608.7 355.7 608.9 355.9 609.4 355.8 609.9 355.6 610.3 349.7 610.7 353.7 611.3 354.2 611.8 357.5 612.7 354.3 613.3 355.7 613.8 354.2 614.2 355.9 614.7 356.6 615.1 356.7 615.6 356.8 616 358.7 616.4 356.6 616.8 361.8 617 362.5 617.4 365.8 617.9 365.1 618.5 362.6 619 361.9 619.7 359.3 620.4 355.7 621.1 355.9 621.7 354.1 622 355.9 622.5 355.4 622.9 355 623.2 356.2 623.6 354.8 624 355.2 624.4 355.9 624.8 354.5 625.1 359.2 625.5 357.5 625.9 357 626.3 357.6 626.7 359.5 627.1 359.5 627.6 360.3 628.3 359.2 628.8 358.2 629.2 357.9 629.5 353.5 629.5 349.3 629.6 357.5 629.8 362.2 629.8 365.4 630.2 363.8 630.5 363 630.9 364 631.1 369.2 631.3 372.3 631.5 372.4 631.7 370.9 632 371.4 632.1 371.4 632.4 370.7 632.6 371 632.9 371 633.3 368.5 633.8 367.7 634.2 369 634.6 370 635.2 370.4 635.7 372.9 636.3 370.3 636.9 371.7 637.2 371.1 637.4 374.4 637.6 379.4 637.9 379.7 638.1 379.1 638.4 379.5 638.5 382.6 638.7 379.8 639 379.8 639.3 381.6 639.6 379.5 639.9 378.8 640.2 378.3 640.6 379.5 641 377.5 641.4 378.6 641.8 380.6 642.3 381.9 642.8 380.8 643.6 378.6 644 380.3 644.6 378.1 645.1 378.6 645.5 380.7 645.6 386.7 645.8 383.2 646.1 382.4 646.4 382.8 646.8 381.9 647.1 382.8 647.4 383.5 647.6 382.4 647.9 383.3 648.1 381.9 648.3 378.4 648.3 376.2 648.5 384.7 648.6 386.4 648.9 387.1 649.1 384.9 649.3 385.8 649.7 385.3 650.2 385.3 650.8 385.5 651.4 386.6 651.8 385.4 652.5 383.5 652.9 383.7 653.2 386.1 653.4 384.6 653.7 382.5 654 382.6 654.3 382.1 654.6 381.2 655 381.5 655.3 378.7 655.5 382.3 655.9 382.6 657 381.8 657.6 380 658.2 380.6 658.6 380.5 659.1 381.6 659.8 380.7 660.4 381.2 660.7 379.9 661.1 380.1 661.4 378.4 661.6 376.5 661.8 375.4 662.1 376.5 662.4 376.5 662.6 378.2 662.9 377.2 663.2 378.2 663.5 378.9 663.7 379 664 378 664.4 378.3 664.9 377.1 665.4 377.9 666 376.8 666.8 378.4 667.1 382.8 667.9 383.9 668.6 385.4 669.1 386.2 669.4 391.4 669.5 396.3 669.6 394.1 670 392.3 670.4 390.8 670.7 391.9 671.2 390.7 671.6 390.9 672.2 393.5 672.5 394.2 672.9 392.3 673.6 392.9 674 393.4 674.3 393.9 674.6 389.6 674.8 386.7 675.2 386.8 676 389.6 676.6 391 677.2 388.4 677.6 391.2 678.1 389.8 678.6 389.3 679 388 679.5 387.5 679.9 389 680.2 392.2 680.6 390.8 681.1 390.7 681.5 394 681.9 392.7 682.3 391.7 682.7 392.9 683.4 393.1 683.9 390.3 684.3 389.6 684.8 388.1 685 389.6 685.3 390.9 685.6 390.2 685.9 390.2 686.1 404 686.1 409.6 686.1 408.9 686.2 405.3 686.3 405.2 686.4 405.7 686.5 406.4 686.6 405.2 686.8 405.8 686.9 409.3 687 407 687.3 406.9 687.4 407 687.7 406.1 688 405.9 688.2 406.9 689.2 408.2 689.6 407.2 690 406.8 690.6 408.2 691.1 407.7 691.7 406.7 692.1 405.9 692.4 407.4 692.4 413.5 692.4 415.4 692.5 415.5 692.6 421 692.7 420.4 692.8 417.5 693 418.1 693.1 420.1 693.2 424.1 693.3 421.2 693.5 418.6 693.7 419.6 693.9 420 694.1 420.2 694.3 425 694.4 428.9 694.5 427 694.6 427.8 694.7 429.7 694.8 430.2 695 429.7 695.2 427.7 695.4 427.3 695.5 430.2 695.6 429.7 695.9 428 696.1 427.8 696.3 424 696.6 423.6 696.9 420.2 697.2 421.4 697.5 423.1 697.9 423.1 698.2 428.1 698.6 425 699 426.1 699.5 424.9 699.9 429.7 700 430 700.1 436.4 700.1 436.7 700.2 440.6 700.2 440.1 700.3 427.6 700.4 429.9 700.5 422.5 700.6 423 700.8 419.9 700.9 414.3 701 412.1 701.1 406.7 701.2 413 701.4 408.6 701.6 406.8 701.7 407.8 701.9 410.4 702.1 407.8 702.3 405.5 702.4 401.7 702.5 397.5 702.5 391.6 702.6 390.2 702.6 385.8 702.7 388 702.9 383.9 703 385.4 703.2 384.9 703.4 375.5 703.4 365.3 703.5 374.3 703.7 375.4 703.8 371.3 704 378.2 704.2 385.5 704.3 385.7 704.6 383.5 704.8 383.6 705.1 385.2 705.6 386.1 706.1 387.5 706.7 390.8 707.5 387.5 708.2 380.8 708.6 391.5 709 387.8 709.4 388 709.8 385.3 710.2 385.2 710.5 384.6 711 385.3 711.3 385.2 712 387.7 712.4 387.8 712.9 387.2 713.4 387.7 713.7 390.9 714.1 386.8 714.6 387.7 715.3 387 715.8 384.9 716.1 384.5 716.5 384.4 716.7 383.5 716.9 386.4 717.1 385.9 717.4 384 717.6 383.4 717.8 381.8 718 382.1 718.2 382.7 718.5 381.2 718.7 381.2 718.9 381.7 719.1 383.4 719.3 382.5 719.6 382.9 719.9 383.6 720.3 383.8 720.8 384.4 721.4 384.5 722.1 387.2 723 387.1 724 386.4 724.6 387.1 725 386.6 725.4 385.5 725.9 385.2 726.4 386.3 726.8 386.3 727.1 386.5 727.6 386.6 727.9 386.4 728.5 385.9 729.4 386.6 730.1 385.7 730.7 384 731.7 383.8 732.2 384 732.7 382.5 732.8 378.6 733.1 380.6 733.3 375.4 733.4 371.9 733.6 371.7 733.8 366.5 733.9 363.9 734.1 365.8 734.3 365 734.7 365.3 735.1 365.2 735.3 361.4 735.4 355.8 735.5 350.8 735.7 354.3 735.9 354.2 736.1 347.6 736.3 353.2 736.7 352.1 737 352.1 737.5 354 737.8 359.6 738.4 356 739 356.6 739.5 354.8 740 353.9 740.3 352.3 740.6 351.1 740.8 348.6 740.8 348.9 741 354.5 741.1 356.3 741.2 361.9 741.3 366.6 741.5 362 741.7 365.9 741.9 363.8 742.3 365.8 742.4 372.4 742.6 374.2 742.8 373.8 742.9 373.1 743.1 373.2 743.4 373.5 743.8 373.4 744.2 371.8 744.6 373.4 745.2 372.5 745.8 372.3 746.1 378.7 746.3 369 746.8 368.7 747.5 369 748 367.3 748.3 369.8 748.5 375.6 748.7 380.7 748.8 375.7 749.1 375.6 749.4 379.7 749.5 381.4 749.6 380.9 749.9 381.3 750.1 377.8 750.4 379.1 750.8 380.5 751.2 379.4 751.8 379 752.4 379.9 753 378.4 753.5 378.9 754.1 377.7 754.8 380.2 755.3 382.9 755.9 382.7 756.4 382.7 756.8 387.3 757.1 386 757.6 382.7 758 379.3 758.4 381.1 758.9 381 759.5 381.6 760.1 382.4 760.8 383.6 761.4 382.2 762 380.6 762.8 380.9 763.5 381.9 764.1 381.1 764.6 381.8 764.7 372.4 764.9 368.9 765.1 370.5 765.4 370 765.6 364.1 765.8 378.3 765.9 376.7 766.2 380 766.4 381.8 766.7 383.5 767.1 381.9 767.3 380.5 767.6 382.1 768.1 381 768.4 381.3 768.8 383.2 769.3 382.8 769.6 384 769.7 384.5 769.9 383.8 770.5 383.9 771 385.7 771.1 392.2 771.4 388.2 771.6 385 772.1 383.2 772.3 380.2 772.5 378.9 772.7 383 773 382.2 773.2 381 773.4 380.8 773.6 381.8 773.9 381.2 774.1 381.3 774.3 380.8 774.5 379.4 774.7 379.3 774.9 379.3 775.1 377.9 775.3 373.9 775.6 374 775.9 376.2 776.2 375.6 776.7 374.3 777.2 372.9 777.6 375.2 778 375.5 779.1 375.4 779.8 373.4 780.1 374.7 780.5 373.2 780.9 371.4 781.4 372.2 781.6 371.5 781.9 372 782.3 373.6 782.8 372.7 783.3 374 783.9 374.1 784.7 375.2 785.3 373.5 786.1 374 787.3 371.4 787.9 367.4 788.3 365.1 788.7 367.9 789 366.5 789.4 364.8 789.7 359.7 789.8 364.8 790 368.2 790.4 364.8 790.8 366.8 791.1 371 791.6 370.8 791.9 369.6 792.4 370.2 793 369.3 793.7 370.5 794.2 371.5 794.8 374.3 795.3 372.4 795.7 375.1 795.9 377.4 796.2 378.7 796.3 379.4 796.4 380 796.7 379.7 797 378.8 797.2 379.9 797.5 380.5 797.8 378.6 798 378.4 798.3 378 798.6 377.9 798.8 382.4 799 382.7 799.3 379.2 799.5 379 799.9 380.4 800.1 380.5 800.6 378.9 800.9 379.6 801.2 380.1 801.7 380.1 802.3 380 802.8 381.4 803.1 379.5 803.5 380.5 803.7 375.7 803.8 382 803.9 381.9 804 383.5 804.3 382.8 804.6 383.7 804.7 386.3 804.9 388.1 805 385.9 805.2 385.3 805.4 386.4 805.6 385.7 805.8 385 806.2 384.8 806.4 383.6 806.6 384.7 806.9 385.6 807.1 384.4 807.4 382 807.6 380.7 808 381.5 808.5 381.8 808.8 381.4 809.2 381.2 809.6 384 810.1 383.7 810.8 382.4 811.3 382.5 812 381.6 812.4 380.8 812.7 380.2 813 380.9 813.4 381.2 813.9 380.9 814.1 381.6 814.4 384.9 814.8 383.9 815.3 384.7 815.5 386.9 815.9 389.5 816.3 388.5 816.8 388.5 817.3 390.7 818.1 385.7 818.8 387.6 819.2 390.7 819.6 388 820 388.6 820.2 390.3 820.2 395.4 820.3 398.5 820.3 403 820.3 401.4 820.4 404 820.6 401.4 820.7 401.2 821 401.9 821.2 399.9 821.4 402.4 821.7 402.5 822 401.4 822.3 401.2 822.6 402.2 822.9 403.8 823.1 406.1 823.2 407.9 823.4 403.1 823.7 402.1 824.1 396.7 824.1 384.9 824.1 379 824.2 382.4 824.4 383.9 824.9 381.9 825.2 382.4 825.5 378.2 825.8 371.4 826.2 372 826.8 374.3 827.2 370.8 827.4 378 827.7 375.8 827.9 374 828 371.6 828.1 368.8 828.3 369.5 828.6 371.3 828.9 371.6 829.1 371.3 829.4 372.6 829.7 372.2 829.9 376.5 830.2 373.9 830.7 372.9 831.2 373.7 831.7 372.6 832.3 370.5 833 371.9 834 369.7 834.8 373.6 835.7 372.6 836.3 372 836.7 375.5 837.2 372.5 837.8 371.4 838.4 369.4 838.8 366.1 838.9 361.5 839.1 362.2 839.7 360.5 840.2 362 840.6 362.2 841.3 363.3 842.3 363.5 843.2 363.4 843.9 360.4 844.5 362 845.2 363.7 845.7 368 846.1 371.3 846.7 367.5 847 358.3 847.2 358.1 847.4 358 847.7 355.6 848.4 356.5 849.1 356 849.6 354.7 850.1 351.8 850.6 354.3 850.9 354 851.2 354.8 851.5 355.7 851.8 356.1 852 354.3 852.3 355.1 852.7 355.7 853.1 354.1 853.4 353.1 853.6 352.8 853.7 345.4 853.8 342.7 853.9 339.4 854 337.1 854.1 339.2 854.2 335.9 854.3 333.6 854.3 330.2 854.4 328 854.4 322.9 854.5 323.1 854.6 327.3 854.9 326.3 855.1 324.9 855.5 325.7 855.7 328.3 855.9 331 856.4 329.5 856.8 328.9 857.9 328.1 858.2 326.8 858.4 328.7 858.8 331.6 859.2 331.6 859.4 336.5 859.5 339.6 859.7 328.6 859.8 324.7 860.1 324.5 860.3 321.5 860.4 314.4 860.4 313 860.5 312.1 860.7 312 860.9 312.8 861.1 310.6 861.2 304.9 861.3 312.8 861.5 316.5 861.6 317.7 861.7 318.8 861.8 316.5 861.9 314 862.1 307.7 862.1 303.4 862.2 300.3 862.2 294.2 862.3 296.6 862.3 292 862.4 292.3 862.5 287.6 862.5 286.5 862.6 288.1 862.7 285 862.8 288.4 862.8 287.7 862.9 288.5 863 290.5 863.1 291.4 863.2 295.8 863.3 295.6 863.4 294.1 863.5 293.1 863.6 293.3 863.7 295.4 863.8 292.6 863.9 292.3 864 293.9 864.1 291.9 864.3 292.4 864.4 292.9 864.5 293.1 864.7 295.1 865.2 296.6 865.7 292.2 866.4 294.5 866.7 290.5 866.9 298.3 867 293.4 867.1 293.8 867.2 295.9 867.3 296.2 867.4 295.6 867.4 295.2 867.5 296.5 867.6 295.9 867.6 301.7 867.7 309.8 867.7 311.5 867.8 312.2 867.8 311.1 867.9 314.4 867.9 317.4 868 314.7 868.1 313 868.2 312.2 868.3 314 868.4 314.6 868.5 315.2 868.6 315.9 868.7 319.9 868.8 324.5 868.9 325.5 868.9 323.1 869.1 315.6 869.3 319.7 869.6 319.9 869.8 314.1 870 315.2 870.3 321.8 870.6 318.5 870.9 319.8 871.2 321.6 871.6 323.6 872 322.9 872.4 325.1 873.1 324.4 873.5 327.5 874.1 328.2 874.6 325.3 875 328.1 875.2 327 875.5 331.1 875.6 331.4 875.8 336.1 875.9 332.1 876.2 334.3 876.5 332.2 876.7 324.8 876.8 321.4 877 331.8 877 336.7 877.2 332.9 877.5 334.2 877.7 333.5 878 333.3 878.8 334.3 879.2 335.8 879.8 337.1 880.2 338.3 880.7 339.4 880.8 342.8 881.2 340.7 881.7 336.3 882 332.1 882.4 328.5 882.7 329.1 882.9 322.6 883 320.7 883.1 314.9 883.3 314.2 883.4 317.4 883.4 319.8 883.6 322.6 883.8 324.4 883.9 322.3 884.1 313.9 884.2 314.2 884.4 312.7 884.6 313.3 884.8 311.7 885 313 885.2 308.2 885.3 318 885.6 311.6 885.9 307.1 886 306.3 886.3 304.5 886.6 302.3 886.9 303 887.2 305.3 887.6 311.2 888 313.9 888.5 312.7 889.1 310.1 889.7 316.6 890.2 315.7 890.7 311.6 891.1 312.3 891.5 306 891.8 304.2 892.1 306 892.6 306.1 892.9 305.8 893.1 299.9 893.2 315.9 893.6 313.6 893.8 317.1 894.2 314.7 894.6 313.3 895.1 312.2 895.8 310.6 896.4 311.2 897.3 310.7 898 309.1 898.7 307.5 899.3 307 899.6 307.9 899.9 309.4 900.4 309.4 901.1 309.2 901.5 305.6 901.8 304.1 902.1 307.4 902.6 309 903.1 311.8 903.7 313 904.1 315.3 904.7 311.4 905.4 312.2 905.4 311.6 906 312.5 906.2 311.5 906.6 313.9 906.8 316.4 907 313.4 907.2 312.4 907.5 311.2 907.8 311.7 908.1 311.4 908.4 311 908.6 309.3 908.8 307.3 909 308.7 909.2 310.4 909.5 308.9 909.8 309.3 909.9 302.9 910 297.3 910 298.2 910.1 288.6 910.2 291.4 910.2 282.3 910.3 283.9 910.4 287.7 910.5 288.5 910.6 287 910.9 288 911 282.3 911 276 911.1 277.5 911.3 277.3 911.6 279.1 911.8 280.4 912.2 278.6 912.7 278.6 913.2 281.9 913.5 279.5 913.8 277.8 913.9 279.8 914.1 276.2 914.3 274.4 914.4 265.5 914.5 266 914.5 265.9 914.7 268 914.8 263.7 915 260.9 915 274.2 915.1 271.2 915.2 272.5 915.3 262.8 915.4 261.3 915.5 262.9 915.6 257.6 915.7 255.6 915.8 254.4 915.9 263.3 916 260 916.2 260.3 916.3 259 916.5 260 916.7 265.4 916.8 262.2 917.1 260.3 917.3 259.7 917.4 259.2 917.4 255.3 917.5 250.6 917.6 252.8 917.7 258.3 917.8 250.2 917.9 252.5 918 257.2 918.2 257.3 918.4 255.5 918.6 255.4 918.9 259.6 919 270.9 919.1 270.3 919.3 272.5 919.5 271.4 919.8 268.2 919.9 267.2 920.2 271.8 920.7 268.5 920.9 259.9 921.3 258.5 921.7 258.6 922 255.5 922.2 251.4 922.3 258.3 922.5 253 922.7 255.7 922.8 258.4 923 261.6 923.1 256.9 923.3 260.1 923.5 257.7 923.7 261.7 923.9 261 924.1 261.3 924.3 261.7 924.5 256.6 924.7 252.9 924.9 254.7 925 253.5 925.2 252.2 925.4 255.8 925.6 256.2 925.8 261.7 926 268.9 926.1 271.7 926.4 267.1 926.6 270.6 927 267.9 927.3 265.9 928 267.1 928.7 271.6 929.4 266 929.7 259.7 930 266.2 930.4 266.3 930.7 265.2 931 269 931.2 268.9 931.5 266.4 931.8 265.5 932.2 264.5 932.4 264.1 932.7 265 933 262.8 933.3 263.1 933.7 264.5 934 264.6" opacity=".6"/><text x="942" y="472" fill="#d97706" font-size="11" text-anchor="start">6101</text><text x="942" y="396" fill="#d97706" font-size="11" text-anchor="start">7070</text><text x="942" y="320" fill="#d97706" font-size="11" text-anchor="start">8038</text><text x="942" y="244" fill="#d97706" font-size="11" text-anchor="start">9007</text><text x="942" y="168" fill="#d97706" font-size="11" text-anchor="start">9975</text><text x="942" y="92" fill="#d97706" font-size="11" text-anchor="start">10944</text><text x="942" y="80" fill="#d97706" font-size="11" font-weight="600" text-anchor="start">price</text><polygon fill="#16a34a" fill-opacity=".08" points="78 468 78 466.3 78 466.4 78.7 466.5 78.7 466 78.7 466.1 79 466.3 80.2 466.5 80.6 466.8 81 466.6 81.4 466.7 81.5 466.8 81.9 467 82.2 467.2 83.5 467 83.7 467.1 83.9 466.9 84.1 466.9 84.2 467 84.9 467.2 85.3 467.3 85.4 467.4 85.8 467.4 86.1 467.5 86.1 467.6 86.1 467.6 86.5 467.7 87.6 467.5 87.6 467.6 87.8 467.6 88 467.7 91.5 467.7 91.6 467.8 93.5 467.7 95.9 467.7 98.6 467.6 98.6 467.7 99.3 467.7 99.5 467.7 101.1 467.8 101.1 467.8 101.3 467.8 102.1 467.8 102.2 467.7 103.4 467.8 103.4 467.8 105.2 467.7 107.3 467.7 107.5 467.7 107.9 467.8 108.6 467.8 109 467.8 109.3 467.9 114 467.8 115 467.8 115.1 467.8 116 467.9 118.2 467.9 119.2 467.9 119.5 467.9 119.9 467.9 119.9 467.9 119.9 467.9 120.5 467.9 121.3 467.9 122 467.9 122.6 467.9 122.7 467.9 122.7 467.9 122.7 467.9 122.8 467.9 123.8 467.9 123.8 467.9 123.8 467.9 125.3 467.9 125.4 467.9 125.6 467.9 126.6 467.9 127.3 468 127.9 468 128.9 468 128.9 468 129.7 467.9 129.7 468 131.1 467.9 132.4 467.9 132.8 467.9 134.2 467.9 134.3 467.9 136.1 467.9 137.7 467.9 138.1 467.9 146 467.9 146.1 467.9 146.1 467.9 146.3 467.9 146.5 467.9 146.5 467.8 146.5 467.8 146.7 467.8 146.7 467.8 147.3 467.8 148.5 467.7 150.1 467.7 150.3 467.8 152.5 467.8 154.5 467.8 155.2 467.9 155.7 467.9 157.4 467.9 158.4 467.9 158.8 467.9 158.9 467.9 158.9 467.9 158.9 467.8 158.9 467.9 159 467.8 159 467.8 159.9 467.8 165.1 467.8 165.1 467.8 165.1 467.8 167 467.7 170.1 467.7 170.5 467.8 176.9 467.8 179.7 467.8 179.7 467.8 179.7 467.8 179.7 467.8 179.8 467.8 180.7 467.8 186.4 467.8 188 467.8 188.9 467.8 190.2 467.9 194.2 467.9 194.2 467.9 194.2 467.8 194.3 467.8 200.7 467.8 200.9 467.8 200.9 467.8 201 467.8 201.6 467.8 201.8 467.9 202.1 467.9 202.1 467.9 203.1 467.9 203.6 467.9 206.3 467.9 206.7 467.9 208.1 467.9 208.8 467.9 209.9 467.9 211.5 467.9 212.4 467.9 214.5 468 214.5 467.9 214.5 467.9 216.5 467.9 224.6 468 224.7 468 224.8 468 225.8 468 228.7 467.9 233.2 467.9 233.5 467.9 234.2 467.9 234.4 467.9 235.1 467.9 235.1 467.9 235.1 467.9 235.2 467.9 235.2 468 240 468 240.3 468 241.5 468 241.5 468 247.3 468 248.8 468 250.9 468 251 468 251 468 251 468 252.1 468 253.4 468 255.7 468 256.1 468 256.5 468 256.5 468 256.5 468 256.5 467.9 256.7 467.9 256.7 467.9 256.7 467.9 256.8 468 256.9 468 256.9 468 256.9 468 257.2 468 257.5 468 257.5 468 257.6 468 257.6 468 257.6 468 257.7 468 259 468 259.2 468 259.4 468 260.1 468 260.1 468 260.2 468 260.7 468 263.2 468 263.5 468 264.7 468 265.2 468 266.7 468 267.4 468 268.4 468 268.4 468 269.8 468 269.9 468 271.6 468 271.7 468 272.2 468 272.7 468 273.3 468 273.3 468 273.3 468 273.3 468 273.3 468 273.3 468 273.3 468 273.3 468 273.3 468 273.3 468 273.3 468 273.4 468 273.4 468 273.4 468 273.4 468 273.4 468 273.4 468 273.4 468 273.4 467.9 273.4 467.9 273.4 467.9 273.4 467.9 273.4 467.9 273.5 467.9 273.5 468 273.5 468 273.5 468 273.8 468 273.8 468 273.8 468 273.8 468 273.8 467.9 273.8 467.9 273.8 467.9 273.8 467.9 273.8 467.9 273.9 467.9 273.9 467.9 273.9 467.9 273.9 467.9 274 467.9 274.1 467.9 274.2 467.9 275.5 467.9 275.6 467.9 276 467.9 276.2 467.9 276.2 467.9 276.2 467.9 276.2 467.9 276.2 467.8 276.2 467.8 276.2 467.8 276.2 467.8 276.2 467.8 276.2 467.7 276.3 467.7 276.3 467.7 276.3 467.7 276.3 467.6 276.3 467.5 276.3 467.5 276.3 467.5 276.3 467.5 276.3 467.6 276.3 467.4 276.3 467.4 276.3 467.5 276.3 467.3 276.3 467.1 276.3 467.2 276.3 467.3 276.4 467.4 276.4 467 276.4 466.8 276.4 466.9 276.4 466.6 276.4 466.3 276.5 466.4 276.5 466 276.5 466.1 276.5 466.3 276.5 466.5 276.5 466.8 276.5 466.9 276.6 466.6 276.6 466.7 276.6 466.8 276.6 466.4 276.6 466.5 276.6 466.1 276.6 466.2 276.6 465.8 276.6 465.9 276.6 466.1 276.6 465.4 276.6 464.9 276.6 465.1 276.6 464.3 276.6 463.7 276.6 464 276.6 464.3 276.7 464.8 276.7 465.5 276.7 465.6 276.7 465.9 276.7 465 276.7 465.2 276.7 465.5 276.7 465.8 276.7 464.5 276.7 464.8 276.7 463.9 276.7 463.2 276.7 462.3 276.7 462.7 276.7 463.2 276.8 461.3 276.8 461.7 276.8 462.3 276.8 463.1 276.8 460.2 276.8 460.7 276.8 458.8 276.8 457.1 276.9 455.1 276.9 452.7 276.9 453.7 276.9 455 276.9 450.1 277 451.2 277.1 446.9 277.2 443 277.2 438.9 277.2 434.8 277.4 430.6 277.5 432.1 277.7 426.5 277.8 428 278.1 422.4 278.1 423.9 278.2 425.8 278.5 428.4 278.5 418.6 278.5 420 278.6 422 278.6 414.7 278.6 410.7 278.8 412.1 278.8 414 278.9 416.6 279 406.9 279.1 402.9 279.1 404.3 279.2 399 279.2 400.4 279.2 395.2 279.2 396.6 279.2 398.5 279.2 401 279.3 404.3 279.3 400.3 279.4 396.4 279.6 397.8 279.6 399.7 279.8 402.2 280.1 405.5 280.1 401.5 280.1 402.9 280.1 404.8 280.2 407.4 280.2 410.8 280.2 412.2 280.3 406.8 280.3 402.8 280.5 398.9 280.6 394.9 280.7 396.3 280.7 398.1 280.7 400.6 281 391.3 281.1 392.7 281.1 394.6 281.2 397.1 281.4 387.6 281.5 383.7 281.8 379.7 281.8 381.1 281.9 382.9 282 385.4 282 388.7 282.3 384.7 282.3 386.1 282.3 380.9 282.3 377 282.3 378.4 282.4 380.2 282.5 373.3 282.6 369.4 282.7 370.8 282.7 372.6 282.7 375.1 283.1 365.8 283.1 367.2 283.1 369.1 283.1 371.6 283.1 374.9 283.8 370.9 283.9 372.3 284 374.2 284.2 376.7 284.6 367.2 286.8 363.3 287.5 359.3 287.6 355.2 287.6 356.7 287.6 358.6 287.7 361.2 287.7 351.5 287.7 352.9 287.8 347.4 287.8 343.3 287.8 344.7 288.3 346.6 288.5 339.4 288.5 340.9 288.5 342.8 288.6 345.4 288.6 348.8 288.7 350.2 288.7 352.1 288.9 344.9 289.1 340.7 289.2 336.6 289.3 338.1 289.3 332.6 289.3 328.5 289.3 330 289.3 324.5 289.3 325.9 289.3 327.9 289.3 330.5 289.4 334 289.4 335.5 289.4 337.5 289.4 340.1 289.4 343.6 289.5 345.1 289.5 347 289.5 349.7 289.5 353.2 289.6 354.6 290.5 356.6 290.6 359.2 290.7 362.7 290.7 364.2 290.8 366.2 290.9 358.7 290.9 360.2 290.9 362.1 291 364.7 291 354.9 291 356.4 291.5 350.8 291.5 352.3 291.5 354.2 291.6 356.8 291.6 360.2 291.7 361.7 291.7 363.6 291.8 366.2 291.9 369.7 292 371.1 292.3 365.6 292.3 361.4 292.3 362.9 292.3 364.9 292.4 367.6 292.4 371.1 292.4 372.6 292.4 374.6 292.4 377.3 292.4 380.8 292.4 382.3 292.5 376.7 292.6 378.1 292.9 380.1 293.2 372.7 293.6 368.5 293.9 364.4 294 360.2 294.6 356.2 295.4 352.1 295.5 353.6 296.1 348.1 296.1 349.6 297.9 344.2 297.9 345.6 298 347.6 298.9 350.1 298.9 353.5 299 355 299.2 356.9 299.3 359.4 299.6 362.8 299.7 358.8 299.7 354.7 300.4 350.8 300.5 352.2 301 354.1 301.1 346.9 301.2 348.4 301.3 350.3 301.5 352.8 301.7 356.2 301.7 357.6 301.8 359.6 302.9 362.1 303.1 365.5 303.9 366.9 304 368.8 304.2 371.4 306.3 361.7 306.3 357.8 306.3 359.2 306.3 353.9 306.4 355.3 306.4 350 306.4 351.5 306.4 353.4 308 355.9 308.2 359.3 308.9 355.2 309 356.6 309.1 358.5 310.3 351.4 310.4 352.8 311.1 354.6 311.2 347.6 311.8 343.7 311.8 345.1 313 339.8 313 341.2 314 336 316 337.4 317.5 339.3 317.8 341.7 318.9 332.4 319.1 333.7 319.4 328.6 319.6 329.9 319.6 324.7 319.7 320.7 319.7 322.1 320.3 316.7 322.4 312.7 322.6 314.1 322.6 308.8 322.6 304.9 322.6 306.3 322.6 308.1 322.6 310.6 322.7 313.9 322.7 315.3 324.3 317.1 324.5 319.6 324.7 322.8 325.3 324.2 327.2 319 327.3 320.4 327.4 322.3 327.9 315.2 328.8 311.2 328.8 307.3 328.8 308.6 328.8 310.5 328.8 313 328.9 316.2 330.2 312.3 335.4 308.3 335.5 309.8 335.7 311.6 337.5 314.2 337.8 317.5 340.1 318.9 340.9 320.8 342.8 313.7 342.8 315.1 346.9 316.9 347.5 319.4 350.7 322.8 351 324.2 354 318.9 354 314.8 354 316.2 354 318.2 354.6 310.8 355.8 312.3 356.4 314.2 357.4 307 357.5 308.4 359.4 310.3 359.6 312.8 360.1 316.1 360.5 317.6 360.5 319.5 363.4 322 364 325.3 364.2 326.8 364.5 328.7 365.6 321.5 365.7 322.9 368.9 317.5 373.6 318.9 378.2 313.6 378.2 315 381.5 316.8 381.7 309.8 381.7 311.2 382 313 383.4 306.1 383.5 307.4 383.5 302.3 383.5 303.6 383.5 305.4 383.9 307.8 383.9 310.9 384 312.3 384.1 314 384.5 316.4 384.6 319.5 386.1 315.8 386.9 311.9 388.9 308.2 392.3 304.3 393.1 305.7 396 307.5 396.2 309.8 400.2 300.9 400.2 302.2 400.2 297.1 400.2 298.5 400.2 300.3 400.2 302.8 400.2 306 400.2 307.4 402.3 309.3 402.6 311.7 404.3 302.4 404.8 298.6 405 294.8 405.9 296.1 406.6 297.8 406.8 300.2 407.6 303.4 408.9 304.7 409.1 306.4 411.4 308.8 411.8 312 414.7 308.2 414.7 309.5 414.8 304.4 414.8 305.8 414.8 307.5 415.1 309.9 415.8 313 416.5 314.3 428 316.1 429.3 309.4 431 310.7 431.6 312.5 431.9 314.8 434.8 317.9 435.1 319.2 437.3 320.9 437.4 314.4 437.5 315.7 439.2 310.7 441 312 441.4 313.7 441.8 316 442.3 319 452.9 320.3 453 322 453.2 315.5 457.1 316.8 457.1 318.5 459.1 312 462.2 313.3 462.9 315 463.2 317.3 464 308.6 464 309.9 464.1 311.6 464.3 305.2 464.3 306.4 464.3 308.1 464.4 301.9 467.4 303.1 470 298.4 470.1 299.6 470.2 301.3 470.8 303.4 471.8 306.3 472.1 307.6 477.2 309.2 478 311.4 478.2 314.3 480 310.8 480 312 480.2 313.7 484.7 307.4 484.9 304 484.9 305.2 486.8 300.6 486.9 297.2 486.9 298.4 487 294.1 487 295.2 487 296.8 487 291 487.1 292.2 487.1 293.7 487.2 295.8 487.3 298.5 487.4 299.7 488.6 301.2 488.8 303.3 489.1 306 491.7 307.2 492.1 302.8 492.2 303.9 492.2 305.4 492.3 307.5 492.3 310.2 492.3 311.3 492.4 312.8 492.4 314.9 492.6 307.2 492.6 308.3 492.9 304 492.9 305.1 493 300.8 493 301.9 493 303.4 493 297.7 493 298.9 493.2 294.6 493.2 295.6 493.2 297.1 493.2 291.6 493.3 292.7 493.3 294.2 493.3 296.1 493.4 288.8 493.4 289.9 493.4 291.3 493.4 285.9 493.4 286.9 493.4 288.3 493.4 290.2 493.4 283.1 493.5 280 493.5 281.1 493.5 277.1 493.5 278.1 493.6 279.6 493.8 281.5 493.9 284.1 493.9 285.2 494 286.6 494.2 288.5 494.5 281.3 494.5 282.3 494.5 283.7 494.5 278.4 494.6 279.4 494.6 275.4 494.6 272.5 494.6 273.5 494.6 274.9 494.6 276.8 494.8 269.8 494.8 266.7 494.8 267.8 494.8 269.3 495 271.2 495 273.7 495 274.8 495.1 276.2 495.1 278.2 495.2 280.7 495.4 281.8 495.4 283.3 495.4 285.2 495.5 287.8 496.2 284.7 496.2 285.8 496.2 287.3 496.2 281.7 496.3 282.8 496.4 284.3 496.4 286.3 496.6 288.9 496.9 290 496.9 291.5 497.4 293.5 497.5 286 497.7 282.9 497.9 279.7 498 280.8 498.1 282.3 499.1 276.8 499.2 277.9 500.3 273.7 500.6 274.8 500.6 276.2 501.7 278.2 501.8 280.8 502.5 281.9 502.7 277.7 503 278.8 503.1 280.3 503.1 282.3 503.4 284.9 503.5 286 503.6 287.5 504.5 289.5 505 292.1 506 293.2 506.4 294.7 506.7 296.7 509.1 289.2 509.4 290.3 510 291.8 510.6 286.3 510.6 287.3 510.6 288.8 511 283.3 511.1 284.4 511.1 285.8 511.1 287.7 511.2 290.2 511.4 287.2 512.3 288.3 512.6 289.7 512.6 291.6 512.7 294.2 513.4 291.1 513.6 288.1 513.7 285.1 513.9 282.2 514 283.2 514 284.6 514.2 279.3 514.2 280.4 514.2 276.4 514.2 277.5 514.2 278.8 514.2 280.6 514.2 283.1 515 284.1 515 280.2 515 277.4 515.3 278.4 515.4 274.5 515.4 275.5 515.4 276.9 515.4 278.6 515.4 281 515.4 282 515.5 283.3 515.6 285.1 515.6 287.5 515.6 288.5 515.7 289.8 515.7 291.6 515.7 294 515.8 295 515.9 296.3 516 291.3 516.1 292.3 516.1 293.6 516.6 295.4 517.2 288.6 517.2 285.7 517.2 286.7 517.3 288.1 517.3 282.8 517.3 283.9 517.4 279.9 517.5 280.9 517.5 282.3 517.7 277.1 517.7 278.1 517.7 279.5 517.7 281.4 517.8 274.3 517.8 275.4 517.8 271.3 517.8 272.4 517.8 268.2 517.8 269.3 517.9 270.8 517.9 265.3 517.9 266.4 518 267.9 518 269.8 518 272.4 518 269.3 518 270.4 518 271.9 518 273.8 518.2 266.4 518.2 267.5 518.3 269 518.6 263.5 518.6 264.6 518.7 266 518.7 268 518.8 270.6 518.8 271.7 518.8 273.2 518.9 275.1 519 267.7 519 268.8 519 264.6 519.1 265.7 519.1 267.2 519.1 269.1 519.1 271.7 519.3 272.8 519.4 274.3 519.5 276.3 519.6 278.9 519.7 280 520.1 281.4 520.3 283.4 520.3 286 520.4 287.1 520.9 288.6 521 290.5 521.1 293.1 521.5 290 521.7 291.1 521.8 292.5 522.8 287.1 523.4 288.1 523.7 289.6 523.7 291.6 523.7 284.2 523.8 281 523.8 282.1 524.1 277.9 524.1 279 524.3 280.5 524.4 282.4 524.4 275.1 524.5 272 525.2 273.1 525.4 269 525.4 265.9 525.5 267 525.8 268.4 526.2 263 526.9 260 527.6 256.9 527.6 257.9 528.6 253.9 529.3 255 529.4 256.4 529.4 258.4 529.5 260.9 530.8 257.9 532.5 258.9 532.5 254.9 532.5 255.9 532.5 257.3 532.5 259.2 533.3 261.7 533.3 258.7 533.3 255.7 533.3 256.8 533.4 258.2 533.5 260.1 533.5 252.8 533.5 253.9 533.7 255.4 533.7 257.4 533.7 260 533.9 261.1 534 262.6 534.1 264.5 534.2 267.1 534.2 268.2 534.4 269.7 534.7 264.1 534.8 261 534.8 262.1 534.8 263.5 534.8 265.5 535 258.1 535 254.9 535 256.1 535 257.6 535.1 259.6 535.2 252 535.3 253.1 535.3 254.7 535.5 248.9 535.6 245.6 536.1 246.7 536.4 248.2 536.9 250.3 537 253 537.2 254.2 537.5 255.7 537.5 257.7 537.6 260.5 538 261.6 539.3 257.3 539.5 258.4 541.7 259.9 541.7 261.9 542.5 254.3 542.5 255.5 542.5 257 542.5 259 542.8 261.8 544.9 262.9 545 258.6 545.6 259.7 548.5 255.4 548.7 256.5 548.8 258.1 549.3 252.3 549.4 253.4 549.4 249.1 549.8 245.9 549.8 247 550.3 242.6 550.6 243.8 550.6 245.4 552.4 239.4 556.6 236.1 556.6 237.3 556.7 232.8 556.7 233.9 557 235.5 557.3 237.6 557.8 240.3 558 237 558.7 238.2 558.9 239.7 559.1 233.9 559.2 235 559.3 236.6 559.6 238.6 560 241.3 560.3 242.4 561.5 243.9 561.6 238.2 561.8 239.3 561.8 240.8 562.1 242.8 562.2 235.2 562.5 236.3 562.6 237.8 562.7 239.8 563 242.4 563.1 243.5 563.8 245 563.9 247 564.3 249.6 564.4 250.7 564.4 252.2 564.7 246.6 564.9 247.7 565.5 249.2 565.8 243.6 566.2 240.3 566.3 241.4 567.8 242.9 568.1 244.9 568.3 247.6 570.5 248.7 570.7 250.2 570.8 252.2 571.1 244.7 571.1 245.8 571.3 247.2 571.8 249.2 572 251.8 572.2 252.9 572.5 248.7 572.5 249.9 573.1 245.6 573.6 242.5 577.2 243.6 578 245.1 580.4 239.5 581.8 236.3 583.7 237.4 584.2 238.9 584.4 240.9 585.1 233.4 585.1 234.5 587.6 230.4 587.7 231.4 588.4 227.4 589.4 224.2 589.4 225.4 589.4 221 589.4 222.2 589.4 223.8 589.4 217.8 589.4 219 589.4 214.5 589.4 215.7 589.4 217.3 589.4 211.4 589.4 208.1 589.4 204.9 589.4 206.1 589.4 207.6 589.4 201.8 589.4 203 589.4 204.5 589.4 206.6 589.4 198.8 589.4 199.9 589.4 201.5 589.5 195.7 589.7 196.8 589.8 198.3 590 200.3 590.1 203 591.7 204.2 591.8 199.9 591.8 201 591.8 202.5 591.8 196.9 591.8 198 591.8 199.4 591.8 201.4 591.8 204 591.8 205.1 591.8 206.5 591.9 208.5 592 211.1 592 212.2 592 213.6 592 215.6 592 218.2 592.1 219.2 592.1 220.7 592.2 222.6 594.4 215.3 594.4 212.1 594.4 213.2 594.6 214.7 594.7 209.1 595.9 210.3 595.9 211.8 596.5 213.7 597.2 206.2 597.2 207.4 597.9 203.1 598.9 204.2 598.9 205.7 599.1 207.6 603 210.3 604.4 211.4 604.5 212.9 606.7 207.3 606.7 204.1 606.7 205.2 608.2 206.7 608.4 208.8 608.5 211.5 608.7 212.6 608.8 214.1 609.6 216.2 611.5 218.9 611.6 220 612.2 221.6 614.9 223.6 615.2 226.3 615.7 227.5 616.2 229 616.6 231 617.4 223.3 619.8 220.1 620.3 221.3 625.1 222.8 625.8 224.8 626.5 227.5 626.9 228.6 628.7 230.2 629.5 224.4 629.5 225.6 629.5 227.1 629.6 221.3 629.7 222.4 631.1 218.1 631.3 219.2 632.9 220.7 632.9 222.7 633.2 225.4 635.4 222.2 635.5 223.3 637.4 224.8 638.4 219.2 638.7 220.3 639.1 221.7 639.5 223.7 641.6 226.3 641.8 227.4 642.3 228.8 643 230.8 645.5 233.4 648.3 234.5 648.4 235.9 648.9 230.4 649 231.5 654.4 227.4 655.8 228.5 657.4 230 667 231.9 669.2 224.5 669.3 225.6 669.3 227.1 669.5 221.6 670.3 218.6 670.9 219.7 671.7 221.1 672.1 223 674.4 225.6 674.6 226.7 675.7 228.1 676.1 230 676.2 232.6 676.2 233.7 676.7 235.1 680.3 237 680.9 239.6 684.5 240.6 685 242.1 686.1 236.6 686.1 237.7 686.1 239.1 686.1 240.9 686.1 243.4 686.9 244.5 687 245.9 692.4 247.7 692.4 240.7 692.4 241.7 692.5 243.1 692.6 237.9 692.6 238.9 693.2 240.3 693.3 242.1 693.3 244.5 694.3 245.5 694.7 241.7 694.7 242.7 694.7 244 694.9 245.8 695.4 248.1 695.4 249.1 695.4 250.5 695.6 252.3 696.7 245.5 698.1 242.6 698.2 243.6 698.2 245 698.3 246.8 698.3 249.2 698.5 250.2 698.7 251.5 699 253.3 699.2 255.7 699.8 256.7 700.1 252.9 700.1 253.9 700.3 255.2 700.3 250.2 700.3 251.2 700.3 252.5 700.4 254.3 700.5 247.6 700.5 248.6 700.7 249.9 700.9 244.8 700.9 241.9 701 238.9 701.1 240 701.1 236 701.1 233.1 701.3 234.1 702.3 230.2 702.4 231.2 702.4 232.6 702.5 227.3 702.5 228.4 702.5 229.8 702.6 224.4 702.6 221.4 702.6 222.4 702.6 223.9 702.6 225.9 703 228.4 703.4 229.5 703.4 225.4 703.4 222.2 703.4 223.4 703.4 219.1 703.5 220.2 703.5 221.7 703.6 223.7 703.6 226.3 703.8 227.4 703.9 228.9 704.1 223.3 704.1 224.4 706.4 220.2 706.5 221.3 706.7 222.7 707 224.7 708 217.4 708.2 214.3 708.3 215.4 708.5 216.8 708.6 218.8 708.7 221.3 708.9 222.4 712 223.8 712 225.8 712 228.3 713.7 229.4 713.8 230.8 716.6 225.4 732.8 226.5 732.9 227.9 732.9 229.9 733.3 222.5 733.4 223.6 733.4 225.1 733.7 227.1 733.8 219.6 734.2 220.8 734.2 222.3 735.2 224.3 735.4 216.7 735.4 217.8 735.5 219.4 735.5 221.4 735.6 224.1 737.6 225.3 739.2 226.8 740.1 228.8 740.2 231.6 740.8 228.3 740.8 229.5 740.8 231 740.9 225.2 740.9 226.3 741 227.8 741 229.9 741.2 222.1 741.2 223.3 741.2 224.8 741.5 226.8 741.6 229.5 741.7 230.6 741.9 232.1 742.1 234.1 742.4 226.5 742.9 227.6 743 229.1 745.8 231.1 746.3 233.7 748.1 230.6 748.2 231.7 748.2 233.2 748.3 227.5 748.3 228.6 749.4 224.4 749.6 225.5 749.7 227 749.7 228.9 749.8 231.5 749.9 228.4 755.3 225.3 756.8 226.4 757.6 227.8 757.9 222.3 758.6 219.2 764.6 216.1 764.7 217.2 764.9 213 765.6 214.1 765.8 215.6 765.8 210 765.8 211.1 765.8 212.6 766.4 207 771 203.9 771.4 204.9 771.4 200.9 771.5 202 772.3 203.4 772.4 205.4 772.4 208 772.6 209.1 774.5 210.5 777.1 205 787.4 206.1 789.5 201.9 789.8 203 791 198.7 791.7 199.9 794.1 201.3 796.2 195.7 796.4 196.8 796.4 198.3 797.5 200.2 797.5 202.9 803.7 204 803.7 205.4 804.6 199.9 804.8 201 805.2 202.4 815.9 204.3 818.1 206.9 820.2 203.8 820.2 204.9 820.3 200.8 821.1 201.9 821.4 203.3 823.2 198 823.4 195 824.1 192 824.1 189 824.1 190.1 824.1 186 824.1 187.1 824.1 188.5 824.1 183 824.2 179.9 824.3 181 824.3 182.5 824.3 184.4 825.1 187 825.1 188.1 825.4 189.6 825.6 184.1 825.8 185.2 826.1 186.6 826.3 188.6 826.4 191.3 827.2 192.4 827.8 193.8 827.9 188.2 828 189.4 828.2 190.9 828.2 192.9 829.8 185.3 832.9 182.2 833 183.3 833.8 184.8 834.1 186.8 836.6 189.4 836.7 190.5 836.7 192 836.7 186.4 837.6 183.2 838.8 180.1 839.7 181.2 841.3 182.7 843.6 184.7 844.5 187.4 845.5 188.5 845.8 184.3 847 181.1 847 177.9 847.1 179 847.1 180.6 850.9 174.8 850.9 171.5 851 172.7 853.7 168.3 853.8 165.1 854.3 161.7 854.3 158.4 854.4 159.6 854.5 161.2 855.1 163.3 855.2 166.1 858.1 167.4 858.2 169 859.4 162.9 859.6 164.1 859.8 159.6 859.9 160.8 860 162.4 860.3 156.3 860.4 157.5 861.1 152.9 861.3 154.2 861.3 155.8 861.3 158 861.5 149.7 861.6 150.9 861.7 152.5 862 146.4 862.1 147.6 862.2 142.9 862.2 144.2 862.2 145.9 862.2 139.5 862.3 135.9 862.4 132.4 863 133.6 863 135.3 863.1 137.6 863.8 140.6 864.9 137 864.9 138.3 866.5 139.9 866.6 142.2 866.7 133.7 866.9 130.1 866.9 126.5 866.9 123 867.4 124.2 867.4 125.9 867.6 119.5 867.6 120.8 867.6 122.4 867.7 116.1 867.7 117.4 867.7 119 867.7 121.2 867.8 124.1 867.9 120.6 868.7 121.9 868.9 117.2 868.9 118.4 868.9 120 868.9 122.2 868.9 125 869 126.2 869.7 121.7 869.9 122.9 870 124.5 870.1 118.3 870.6 119.5 870.7 121.2 870.8 123.3 870.9 126.2 873.1 122.7 873.1 123.9 873.1 125.6 873.4 127.7 873.5 130.5 873.5 131.7 873.6 133.3 874.5 135.5 874.7 138.3 875.4 139.5 876.6 141.1 876.8 135.1 876.9 136.3 877 131.7 877 132.9 877.6 134.5 877.6 136.6 878.4 139.4 878.5 140.6 880.1 136.1 880.8 137.3 881.1 138.8 881.4 140.9 881.4 143.7 881.7 140.4 881.7 141.5 881.8 143.1 881.9 145.2 882 148.1 882.2 149.3 882.9 144.8 883.1 141.3 883.1 142.5 883.1 144.2 883.3 146.4 883.4 149.3 883.4 150.5 883.4 152.1 883.4 154.3 883.5 157.2 883.6 153.7 884 154.9 884 150.3 884.1 151.6 884.1 153.2 884.1 155.4 884.1 158.3 884.2 159.5 884.4 161.2 884.4 163.3 884.5 166.2 885.2 167.5 885.2 169.1 885.8 171.3 886.4 163 886.6 164.3 886.7 166 886.8 168.2 886.9 171.1 887 172.4 887.6 167.7 889.6 168.9 890.3 170.5 890.3 172.7 890.4 175.6 891.6 172.1 891.7 173.4 891.8 175 893.1 177.2 893.1 180.2 893.2 181.4 893.2 176.7 893.9 177.9 894 179.6 895.9 173.4 898.5 174.6 899.4 176.3 899.6 178.5 899.6 181.4 900.2 182.7 901.1 184.3 901.3 186.5 902.8 189.4 903.7 190.6 903.8 192.3 904 194.5 904.7 197.4 905.4 198.6 905.4 200.3 905.4 202.5 905.4 205.4 908.6 206.6 909.9 201.9 910.1 198.4 910.1 199.7 910.1 201.4 910.1 203.6 910.2 195.1 910.2 196.4 910.3 198.1 910.3 200.4 911 203.4 911 199.8 911.7 196.1 913.8 192.4 913.9 193.7 913.9 195.5 914.4 197.8 914.5 189 914.6 190.3 914.6 192.1 915 194.5 915 197.6 915 198.9 915 193.9 915 195.2 915 197 915 199.3 915.1 202.4 915.1 203.7 915.1 205.4 915.2 207.7 915.3 199 915.3 200.3 915.4 202 915.4 204.4 915.7 195.5 915.8 191.7 915.8 193 915.8 194.8 916.6 197.1 916.7 200.3 917.2 201.6 917.3 203.4 917.4 205.8 917.5 196.8 917.6 193 917.7 194.3 918 196.1 918.3 198.5 918.7 201.6 919 197.8 919 199.2 919 200.9 919 203.3 919 206.4 920.9 207.7 921.3 202.7 922.2 204 922.3 205.8 922.4 208.2 922.7 211.4 922.9 207.6 922.9 208.9 924.5 203.9 925.7 200.1 926 201.4 929.5 203.2 929.8 205.6 932.4 208.7 932.4 468"/><polyline fill="none" stroke="#16a34a" stroke-linejoin="round" stroke-width="2" points="78 466.3 78 466.4 78.7 466.5 78.7 466 78.7 466.1 79 466.3 80.2 466.5 80.6 466.8 81 466.6 81.4 466.7 81.5 466.8 81.9 467 82.2 467.2 83.5 467 83.7 467.1 83.9 466.9 84.1 466.9 84.2 467 84.9 467.2 85.3 467.3 85.4 467.4 85.8 467.4 86.1 467.5 86.1 467.6 86.1 467.6 86.5 467.7 87.6 467.5 87.6 467.6 87.8 467.6 88 467.7 91.5 467.7 91.6 467.8 93.5 467.7 95.9 467.7 98.6 467.6 98.6 467.7 99.3 467.7 99.5 467.7 101.1 467.8 101.1 467.8 101.3 467.8 102.1 467.8 102.2 467.7 103.4 467.8 103.4 467.8 105.2 467.7 107.3 467.7 107.5 467.7 107.9 467.8 108.6 467.8 109 467.8 109.3 467.9 114 467.8 115 467.8 115.1 467.8 116 467.9 118.2 467.9 119.2 467.9 119.5 467.9 119.9 467.9 119.9 467.9 119.9 467.9 120.5 467.9 121.3 467.9 122 467.9 122.6 467.9 122.7 467.9 122.7 467.9 122.7 467.9 122.8 467.9 123.8 467.9 123.8 467.9 123.8 467.9 125.3 467.9 125.4 467.9 125.6 467.9 126.6 467.9 127.3 468 127.9 468 128.9 468 128.9 468 129.7 467.9 129.7 468 131.1 467.9 132.4 467.9 132.8 467.9 134.2 467.9 134.3 467.9 136.1 467.9 137.7 467.9 138.1 467.9 146 467.9 146.1 467.9 146.1 467.9 146.3 467.9 146.5 467.9 146.5 467.8 146.5 467.8 146.7 467.8 146.7 467.8 147.3 467.8 148.5 467.7 150.1 467.7 150.3 467.8 152.5 467.8 154.5 467.8 155.2 467.9 155.7 467.9 157.4 467.9 158.4 467.9 158.8 467.9 158.9 467.9 158.9 467.9 158.9 467.8 158.9 467.9 159 467.8 159 467.8 159.9 467.8 165.1 467.8 165.1 467.8 165.1 467.8 167 467.7 170.1 467.7 170.5 467.8 176.9 467.8 179.7 467.8 179.7 467.8 179.7 467.8 179.7 467.8 179.8 467.8 180.7 467.8 186.4 467.8 188 467.8 188.9 467.8 190.2 467.9 194.2 467.9 194.2 467.9 194.2 467.8 194.3 467.8 200.7 467.8 200.9 467.8 200.9 467.8 201 467.8 201.6 467.8 201.8 467.9 202.1 467.9 202.1 467.9 203.1 467.9 203.6 467.9 206.3 467.9 206.7 467.9 208.1 467.9 208.8 467.9 209.9 467.9 211.5 467.9 212.4 467.9 214.5 468 214.5 467.9 214.5 467.9 216.5 467.9 224.6 468 224.7 468 224.8 468 225.8 468 228.7 467.9 233.2 467.9 233.5 467.9 234.2 467.9 234.4 467.9 235.1 467.9 235.1 467.9 235.1 467.9 235.2 467.9 235.2 468 240 468 240.3 468 241.5 468 241.5 468 247.3 468 248.8 468 250.9 468 251 468 251 468 251 468 252.1 468 253.4 468 255.7 468 256.1 468 256.5 468 256.5 468 256.5 468 256.5 467.9 256.7 467.9 256.7 467.9 256.7 467.9 256.8 468 256.9 468 256.9 468 256.9 468 257.2 468 257.5 468 257.5 468 257.6 468 257.6 468 257.6 468 257.7 468 259 468 259.2 468 259.4 468 260.1 468 260.1 468 260.2 468 260.7 468 263.2 468 263.5 468 264.7 468 265.2 468 266.7 468 267.4 468 268.4 468 268.4 468 269.8 468 269.9 468 271.6 468 271.7 468 272.2 468 272.7 468 273.3 468 273.3 468 273.3 468 273.3 468 273.3 468 273.3 468 273.3 468 273.3 468 273.3 468 273.3 468 273.3 468 273.4 468 273.4 468 273.4 468 273.4 468 273.4 468 273.4 468 273.4 468 273.4 467.9 273.4 467.9 273.4 467.9 273.4 467.9 273.4 467.9 273.5 467.9 273.5 468 273.5 468 273.5 468 273.8 468 273.8 468 273.8 468 273.8 468 273.8 467.9 273.8 467.9 273.8 467.9 273.8 467.9 273.8 467.9 273.9 467.9 273.9 467.9 273.9 467.9 273.9 467.9 274 467.9 274.1 467.9 274.2 467.9 275.5 467.9 275.6 467.9 276 467.9 276.2 467.9 276.2 467.9 276.2 467.9 276.2 467.9 276.2 467.8 276.2 467.8 276.2 467.8 276.2 467.8 276.2 467.8 276.2 467.7 276.3 467.7 276.3 467.7 276.3 467.7 276.3 467.6 276.3 467.5 276.3 467.5 276.3 467.5 276.3 467.5 276.3 467.6 276.3 467.4 276.3 467.4 276.3 467.5 276.3 467.3 276.3 467.1 276.3 467.2 276.3 467.3 276.4 467.4 276.4 467 276.4 466.8 276.4 466.9 276.4 466.6 276.4 466.3 276.5 466.4 276.5 466 276.5 466.1 276.5 466.3 276.5 466.5 276.5 466.8 276.5 466.9 276.6 466.6 276.6 466.7 276.6 466.8 276.6 466.4 276.6 466.5 276.6 466.1 276.6 466.2 276.6 465.8 276.6 465.9 276.6 466.1 276.6 465.4 276.6 464.9 276.6 465.1 276.6 464.3 276.6 463.7 276.6 464 276.6 464.3 276.7 464.8 276.7 465.5 276.7 465.6 276.7 465.9 276.7 465 276.7 465.2 276.7 465.5 276.7 465.8 276.7 464.5 276.7 464.8 276.7 463.9 276.7 463.2 276.7 462.3 276.7 462.7 276.7 463.2 276.8 461.3 276.8 461.7 276.8 462.3 276.8 463.1 276.8 460.2 276.8 460.7 276.8 458.8 276.8 457.1 276.9 455.1 276.9 452.7 276.9 453.7 276.9 455 276.9 450.1 277 451.2 277.1 446.9 277.2 443 277.2 438.9 277.2 434.8 277.4 430.6 277.5 432.1 277.7 426.5 277.8 428 278.1 422.4 278.1 423.9 278.2 425.8 278.5 428.4 278.5 418.6 278.5 420 278.6 422 278.6 414.7 278.6 410.7 278.8 412.1 278.8 414 278.9 416.6 279 406.9 279.1 402.9 279.1 404.3 279.2 399 279.2 400.4 279.2 395.2 279.2 396.6 279.2 398.5 279.2 401 279.3 404.3 279.3 400.3 279.4 396.4 279.6 397.8 279.6 399.7 279.8 402.2 280.1 405.5 280.1 401.5 280.1 402.9 280.1 404.8 280.2 407.4 280.2 410.8 280.2 412.2 280.3 406.8 280.3 402.8 280.5 398.9 280.6 394.9 280.7 396.3 280.7 398.1 280.7 400.6 281 391.3 281.1 392.7 281.1 394.6 281.2 397.1 281.4 387.6 281.5 383.7 281.8 379.7 281.8 381.1 281.9 382.9 282 385.4 282 388.7 282.3 384.7 282.3 386.1 282.3 380.9 282.3 377 282.3 378.4 282.4 380.2 282.5 373.3 282.6 369.4 282.7 370.8 282.7 372.6 282.7 375.1 283.1 365.8 283.1 367.2 283.1 369.1 283.1 371.6 283.1 374.9 283.8 370.9 283.9 372.3 284 374.2 284.2 376.7 284.6 367.2 286.8 363.3 287.5 359.3 287.6 355.2 287.6 356.7 287.6 358.6 287.7 361.2 287.7 351.5 287.7 352.9 287.8 347.4 287.8 343.3 287.8 344.7 288.3 346.6 288.5 339.4 288.5 340.9 288.5 342.8 288.6 345.4 288.6 348.8 288.7 350.2 288.7 352.1 288.9 344.9 289.1 340.7 289.2 336.6 289.3 338.1 289.3 332.6 289.3 328.5 289.3 330 289.3 324.5 289.3 325.9 289.3 327.9 289.3 330.5 289.4 334 289.4 335.5 289.4 337.5 289.4 340.1 289.4 343.6 289.5 345.1 289.5 347 289.5 349.7 289.5 353.2 289.6 354.6 290.5 356.6 290.6 359.2 290.7 362.7 290.7 364.2 290.8 366.2 290.9 358.7 290.9 360.2 290.9 362.1 291 364.7 291 354.9 291 356.4 291.5 350.8 291.5 352.3 291.5 354.2 291.6 356.8 291.6 360.2 291.7 361.7 291.7 363.6 291.8 366.2 291.9 369.7 292 371.1 292.3 365.6 292.3 361.4 292.3 362.9 292.3 364.9 292.4 367.6 292.4 371.1 292.4 372.6 292.4 374.6 292.4 377.3 292.4 380.8 292.4 382.3 292.5 376.7 292.6 378.1 292.9 380.1 293.2 372.7 293.6 368.5 293.9 364.4 294 360.2 294.6 356.2 295.4 352.1 295.5 353.6 296.1 348.1 296.1 349.6 297.9 344.2 297.9 345.6 298 347.6 298.9 350.1 298.9 353.5 299 355 299.2 356.9 299.3 359.4 299.6 362.8 299.7 358.8 299.7 354.7 300.4 350.8 300.5 352.2 301 354.1 301.1 346.9 301.2 348.4 301.3 350.3 301.5 352.8 301.7 356.2 301.7 357.6 301.8 359.6 302.9 362.1 303.1 365.5 303.9 366.9 304 368.8 304.2 371.4 306.3 361.7 306.3 357.8 306.3 359.2 306.3 353.9 306.4 355.3 306.4 350 306.4 351.5 306.4 353.4 308 355.9 308.2 359.3 308.9 355.2 309 356.6 309.1 358.5 310.3 351.4 310.4 352.8 311.1 354.6 311.2 347.6 311.8 343.7 311.8 345.1 313 339.8 313 341.2 314 336 316 337.4 317.5 339.3 317.8 341.7 318.9 332.4 319.1 333.7 319.4 328.6 319.6 329.9 319.6 324.7 319.7 320.7 319.7 322.1 320.3 316.7 322.4 312.7 322.6 314.1 322.6 308.8 322.6 304.9 322.6 306.3 322.6 308.1 322.6 310.6 322.7 313.9 322.7 315.3 324.3 317.1 324.5 319.6 324.7 322.8 325.3 324.2 327.2 319 327.3 320.4 327.4 322.3 327.9 315.2 328.8 311.2 328.8 307.3 328.8 308.6 328.8 310.5 328.8 313 328.9 316.2 330.2 312.3 335.4 308.3 335.5 309.8 335.7 311.6 337.5 314.2 337.8 317.5 340.1 318.9 340.9 320.8 342.8 313.7 342.8 315.1 346.9 316.9 347.5 319.4 350.7 322.8 351 324.2 354 318.9 354 314.8 354 316.2 354 318.2 354.6 310.8 355.8 312.3 356.4 314.2 357.4 307 357.5 308.4 359.4 310.3 359.6 312.8 360.1 316.1 360.5 317.6 360.5 319.5 363.4 322 364 325.3 364.2 326.8 364.5 328.7 365.6 321.5 365.7 322.9 368.9 317.5 373.6 318.9 378.2 313.6 378.2 315 381.5 316.8 381.7 309.8 381.7 311.2 382 313 383.4 306.1 383.5 307.4 383.5 302.3 383.5 303.6 383.5 305.4 383.9 307.8 383.9 310.9 384 312.3 384.1 314 384.5 316.4 384.6 319.5 386.1 315.8 386.9 311.9 388.9 308.2 392.3 304.3 393.1 305.7 396 307.5 396.2 309.8 400.2 300.9 400.2 302.2 400.2 297.1 400.2 298.5 400.2 300.3 400.2 302.8 400.2 306 400.2 307.4 402.3 309.3 402.6 311.7 404.3 302.4 404.8 298.6 405 294.8 405.9 296.1 406.6 297.8 406.8 300.2 407.6 303.4 408.9 304.7 409.1 306.4 411.4 308.8 411.8 312 414.7 308.2 414.7 309.5 414.8 304.4 414.8 305.8 414.8 307.5 415.1 309.9 415.8 313 416.5 314.3 428 316.1 429.3 309.4 431 310.7 431.6 312.5 431.9 314.8 434.8 317.9 435.1 319.2 437.3 320.9 437.4 314.4 437.5 315.7 439.2 310.7 441 312 441.4 313.7 441.8 316 442.3 319 452.9 320.3 453 322 453.2 315.5 457.1 316.8 457.1 318.5 459.1 312 462.2 313.3 462.9 315 463.2 317.3 464 308.6 464 309.9 464.1 311.6 464.3 305.2 464.3 306.4 464.3 308.1 464.4 301.9 467.4 303.1 470 298.4 470.1 299.6 470.2 301.3 470.8 303.4 471.8 306.3 472.1 307.6 477.2 309.2 478 311.4 478.2 314.3 480 310.8 480 312 480.2 313.7 484.7 307.4 484.9 304 484.9 305.2 486.8 300.6 486.9 297.2 486.9 298.4 487 294.1 487 295.2 487 296.8 487 291 487.1 292.2 487.1 293.7 487.2 295.8 487.3 298.5 487.4 299.7 488.6 301.2 488.8 303.3 489.1 306 491.7 307.2 492.1 302.8 492.2 303.9 492.2 305.4 492.3 307.5 492.3 310.2 492.3 311.3 492.4 312.8 492.4 314.9 492.6 307.2 492.6 308.3 492.9 304 492.9 305.1 493 300.8 493 301.9 493 303.4 493 297.7 493 298.9 493.2 294.6 493.2 295.6 493.2 297.1 493.2 291.6 493.3 292.7 493.3 294.2 493.3 296.1 493.4 288.8 493.4 289.9 493.4 291.3 493.4 285.9 493.4 286.9 493.4 288.3 493.4 290.2 493.4 283.1 493.5 280 493.5 281.1 493.5 277.1 493.5 278.1 493.6 279.6 493.8 281.5 493.9 284.1 493.9 285.2 494 286.6 494.2 288.5 494.5 281.3 494.5 282.3 494.5 283.7 494.5 278.4 494.6 279.4 494.6 275.4 494.6 272.5 494.6 273.5 494.6 274.9 494.6 276.8 494.8 269.8 494.8 266.7 494.8 267.8 494.8 269.3 495 271.2 495 273.7 495 274.8 495.1 276.2 495.1 278.2 495.2 280.7 495.4 281.8 495.4 283.3 495.4 285.2 495.5 287.8 496.2 284.7 496.2 285.8 496.2 287.3 496.2 281.7 496.3 282.8 496.4 284.3 496.4 286.3 496.6 288.9 496.9 290 496.9 291.5 497.4 293.5 497.5 286 497.7 282.9 497.9 279.7 498 280.8 498.1 282.3 499.1 276.8 499.2 277.9 500.3 273.7 500.6 274.8 500.6 276.2 501.7 278.2 501.8 280.8 502.5 281.9 502.7 277.7 503 278.8 503.1 280.3 503.1 282.3 503.4 284.9 503.5 286 503.6 287.5 504.5 289.5 505 292.1 506 293.2 506.4 294.7 506.7 296.7 509.1 289.2 509.4 290.3 510 291.8 510.6 286.3 510.6 287.3 510.6 288.8 511 283.3 511.1 284.4 511.1 285.8 511.1 287.7 511.2 290.2 511.4 287.2 512.3 288.3 512.6 289.7 512.6 291.6 512.7 294.2 513.4 291.1 513.6 288.1 513.7 285.1 513.9 282.2 514 283.2 514 284.6 514.2 279.3 514.2 280.4 514.2 276.4 514.2 277.5 514.2 278.8 514.2 280.6 514.2 283.1 515 284.1 515 280.2 515 277.4 515.3 278.4 515.4 274.5 515.4 275.5 515.4 276.9 515.4 278.6 515.4 281 515.4 282 515.5 283.3 515.6 285.1 515.6 287.5 515.6 288.5 515.7 289.8 515.7 291.6 515.7 294 515.8 295 515.9 296.3 516 291.3 516.1 292.3 516.1 293.6 516.6 295.4 517.2 288.6 517.2 285.7 517.2 286.7 517.3 288.1 517.3 282.8 517.3 283.9 517.4 279.9 517.5 280.9 517.5 282.3 517.7 277.1 517.7 278.1 517.7 279.5 517.7 281.4 517.8 274.3 517.8 275.4 517.8 271.3 517.8 272.4 517.8 268.2 517.8 269.3 517.9 270.8 517.9 265.3 517.9 266.4 518 267.9 518 269.8 518 272.4 518 269.3 518 270.4 518 271.9 518 273.8 518.2 266.4 518.2 267.5 518.3 269 518.6 263.5 518.6 264.6 518.7 266 518.7 268 518.8 270.6 518.8 271.7 518.8 273.2 518.9 275.1 519 267.7 519 268.8 519 264.6 519.1 265.7 519.1 267.2 519.1 269.1 519.1 271.7 519.3 272.8 519.4 274.3 519.5 276.3 519.6 278.9 519.7 280 520.1 281.4 520.3 283.4 520.3 286 520.4 287.1 520.9 288.6 521 290.5 521.1 293.1 521.5 290 521.7 291.1 521.8 292.5 522.8 287.1 523.4 288.1 523.7 289.6 523.7 291.6 523.7 284.2 523.8 281 523.8 282.1 524.1 277.9 524.1 279 524.3 280.5 524.4 282.4 524.4 275.1 524.5 272 525.2 273.1 525.4 269 525.4 265.9 525.5 267 525.8 268.4 526.2 263 526.9 260 527.6 256.9 527.6 257.9 528.6 253.9 529.3 255 529.4 256.4 529.4 258.4 529.5 260.9 530.8 257.9 532.5 258.9 532.5 254.9 532.5 255.9 532.5 257.3 532.5 259.2 533.3 261.7 533.3 258.7 533.3 255.7 533.3 256.8 533.4 258.2 533.5 260.1 533.5 252.8 533.5 253.9 533.7 255.4 533.7 257.4 533.7 260 533.9 261.1 534 262.6 534.1 264.5 534.2 267.1 534.2 268.2 534.4 269.7 534.7 264.1 534.8 261 534.8 262.1 534.8 263.5 534.8 265.5 535 258.1 535 254.9 535 256.1 535 257.6 535.1 259.6 535.2 252 535.3 253.1 535.3 254.7 535.5 248.9 535.6 245.6 536.1 246.7 536.4 248.2 536.9 250.3 537 253 537.2 254.2 537.5 255.7 537.5 257.7 537.6 260.5 538 261.6 539.3 257.3 539.5 258.4 541.7 259.9 541.7 261.9 542.5 254.3 542.5 255.5 542.5 257 542.5 259 542.8 261.8 544.9 262.9 545 258.6 545.6 259.7 548.5 255.4 548.7 256.5 548.8 258.1 549.3 252.3 549.4 253.4 549.4 249.1 549.8 245.9 549.8 247 550.3 242.6 550.6 243.8 550.6 245.4 552.4 239.4 556.6 236.1 556.6 237.3 556.7 232.8 556.7 233.9 557 235.5 557.3 237.6 557.8 240.3 558 237 558.7 238.2 558.9 239.7 559.1 233.9 559.2 235 559.3 236.6 559.6 238.6 560 241.3 560.3 242.4 561.5 243.9 561.6 238.2 561.8 239.3 561.8 240.8 562.1 242.8 562.2 235.2 562.5 236.3 562.6 237.8 562.7 239.8 563 242.4 563.1 243.5 563.8 245 563.9 247 564.3 249.6 564.4 250.7 564.4 252.2 564.7 246.6 564.9 247.7 565.5 249.2 565.8 243.6 566.2 240.3 566.3 241.4 567.8 242.9 568.1 244.9 568.3 247.6 570.5 248.7 570.7 250.2 570.8 252.2 571.1 244.7 571.1 245.8 571.3 247.2 571.8 249.2 572 251.8 572.2 252.9 572.5 248.7 572.5 249.9 573.1 245.6 573.6 242.5 577.2 243.6 578 245.1 580.4 239.5 581.8 236.3 583.7 237.4 584.2 238.9 584.4 240.9 585.1 233.4 585.1 234.5 587.6 230.4 587.7 231.4 588.4 227.4 589.4 224.2 589.4 225.4 589.4 221 589.4 222.2 589.4 223.8 589.4 217.8 589.4 219 589.4 214.5 589.4 215.7 589.4 217.3 589.4 211.4 589.4 208.1 589.4 204.9 589.4 206.1 589.4 207.6 589.4 201.8 589.4 203 589.4 204.5 589.4 206.6 589.4 198.8 589.4 199.9 589.4 201.5 589.5 195.7 589.7 196.8 589.8 198.3 590 200.3 590.1 203 591.7 204.2 591.8 199.9 591.8 201 591.8 202.5 591.8 196.9 591.8 198 591.8 199.4 591.8 201.4 591.8 204 591.8 205.1 591.8 206.5 591.9 208.5 592 211.1 592 212.2 592 213.6 592 215.6 592 218.2 592.1 219.2 592.1 220.7 592.2 222.6 594.4 215.3 594.4 212.1 594.4 213.2 594.6 214.7 594.7 209.1 595.9 210.3 595.9 211.8 596.5 213.7 597.2 206.2 597.2 207.4 597.9 203.1 598.9 204.2 598.9 205.7 599.1 207.6 603 210.3 604.4 211.4 604.5 212.9 606.7 207.3 606.7 204.1 606.7 205.2 608.2 206.7 608.4 208.8 608.5 211.5 608.7 212.6 608.8 214.1 609.6 216.2 611.5 218.9 611.6 220 612.2 221.6 614.9 223.6 615.2 226.3 615.7 227.5 616.2 229 616.6 231 617.4 223.3 619.8 220.1 620.3 221.3 625.1 222.8 625.8 224.8 626.5 227.5 626.9 228.6 628.7 230.2 629.5 224.4 629.5 225.6 629.5 227.1 629.6 221.3 629.7 222.4 631.1 218.1 631.3 219.2 632.9 220.7 632.9 222.7 633.2 225.4 635.4 222.2 635.5 223.3 637.4 224.8 638.4 219.2 638.7 220.3 639.1 221.7 639.5 223.7 641.6 226.3 641.8 227.4 642.3 228.8 643 230.8 645.5 233.4 648.3 234.5 648.4 235.9 648.9 230.4 649 231.5 654.4 227.4 655.8 228.5 657.4 230 667 231.9 669.2 224.5 669.3 225.6 669.3 227.1 669.5 221.6 670.3 218.6 670.9 219.7 671.7 221.1 672.1 223 674.4 225.6 674.6 226.7 675.7 228.1 676.1 230 676.2 232.6 676.2 233.7 676.7 235.1 680.3 237 680.9 239.6 684.5 240.6 685 242.1 686.1 236.6 686.1 237.7 686.1 239.1 686.1 240.9 686.1 243.4 686.9 244.5 687 245.9 692.4 247.7 692.4 240.7 692.4 241.7 692.5 243.1 692.6 237.9 692.6 238.9 693.2 240.3 693.3 242.1 693.3 244.5 694.3 245.5 694.7 241.7 694.7 242.7 694.7 244 694.9 245.8 695.4 248.1 695.4 249.1 695.4 250.5 695.6 252.3 696.7 245.5 698.1 242.6 698.2 243.6 698.2 245 698.3 246.8 698.3 249.2 698.5 250.2 698.7 251.5 699 253.3 699.2 255.7 699.8 256.7 700.1 252.9 700.1 253.9 700.3 255.2 700.3 250.2 700.3 251.2 700.3 252.5 700.4 254.3 700.5 247.6 700.5 248.6 700.7 249.9 700.9 244.8 700.9 241.9 701 238.9 701.1 240 701.1 236 701.1 233.1 701.3 234.1 702.3 230.2 702.4 231.2 702.4 232.6 702.5 227.3 702.5 228.4 702.5 229.8 702.6 224.4 702.6 221.4 702.6 222.4 702.6 223.9 702.6 225.9 703 228.4 703.4 229.5 703.4 225.4 703.4 222.2 703.4 223.4 703.4 219.1 703.5 220.2 703.5 221.7 703.6 223.7 703.6 226.3 703.8 227.4 703.9 228.9 704.1 223.3 704.1 224.4 706.4 220.2 706.5 221.3 706.7 222.7 707 224.7 708 217.4 708.2 214.3 708.3 215.4 708.5 216.8 708.6 218.8 708.7 221.3 708.9 222.4 712 223.8 712 225.8 712 228.3 713.7 229.4 713.8 230.8 716.6 225.4 732.8 226.5 732.9 227.9 732.9 229.9 733.3 222.5 733.4 223.6 733.4 225.1 733.7 227.1 733.8 219.6 734.2 220.8 734.2 222.3 735.2 224.3 735.4 216.7 735.4 217.8 735.5 219.4 735.5 221.4 735.6 224.1 737.6 225.3 739.2 226.8 740.1 228.8 740.2 231.6 740.8 228.3 740.8 229.5 740.8 231 740.9 225.2 740.9 226.3 741 227.8 741 229.9 741.2 222.1 741.2 223.3 741.2 224.8 741.5 226.8 741.6 229.5 741.7 230.6 741.9 232.1 742.1 234.1 742.4 226.5 742.9 227.6 743 229.1 745.8 231.1 746.3 233.7 748.1 230.6 748.2 231.7 748.2 233.2 748.3 227.5 748.3 228.6 749.4 224.4 749.6 225.5 749.7 227 749.7 228.9 749.8 231.5 749.9 228.4 755.3 225.3 756.8 226.4 757.6 227.8 757.9 222.3 758.6 219.2 764.6 216.1 764.7 217.2 764.9 213 765.6 214.1 765.8 215.6 765.8 210 765.8 211.1 765.8 212.6 766.4 207 771 203.9 771.4 204.9 771.4 200.9 771.5 202 772.3 203.4 772.4 205.4 772.4 208 772.6 209.1 774.5 210.5 777.1 205 787.4 206.1 789.5 201.9 789.8 203 791 198.7 791.7 199.9 794.1 201.3 796.2 195.7 796.4 196.8 796.4 198.3 797.5 200.2 797.5 202.9 803.7 204 803.7 205.4 804.6 199.9 804.8 201 805.2 202.4 815.9 204.3 818.1 206.9 820.2 203.8 820.2 204.9 820.3 200.8 821.1 201.9 821.4 203.3 823.2 198 823.4 195 824.1 192 824.1 189 824.1 190.1 824.1 186 824.1 187.1 824.1 188.5 824.1 183 824.2 179.9 824.3 181 824.3 182.5 824.3 184.4 825.1 187 825.1 188.1 825.4 189.6 825.6 184.1 825.8 185.2 826.1 186.6 826.3 188.6 826.4 191.3 827.2 192.4 827.8 193.8 827.9 188.2 828 189.4 828.2 190.9 828.2 192.9 829.8 185.3 832.9 182.2 833 183.3 833.8 184.8 834.1 186.8 836.6 189.4 836.7 190.5 836.7 192 836.7 186.4 837.6 183.2 838.8 180.1 839.7 181.2 841.3 182.7 843.6 184.7 844.5 187.4 845.5 188.5 845.8 184.3 847 181.1 847 177.9 847.1 179 847.1 180.6 850.9 174.8 850.9 171.5 851 172.7 853.7 168.3 853.8 165.1 854.3 161.7 854.3 158.4 854.4 159.6 854.5 161.2 855.1 163.3 855.2 166.1 858.1 167.4 858.2 169 859.4 162.9 859.6 164.1 859.8 159.6 859.9 160.8 860 162.4 860.3 156.3 860.4 157.5 861.1 152.9 861.3 154.2 861.3 155.8 861.3 158 861.5 149.7 861.6 150.9 861.7 152.5 862 146.4 862.1 147.6 862.2 142.9 862.2 144.2 862.2 145.9 862.2 139.5 862.3 135.9 862.4 132.4 863 133.6 863 135.3 863.1 137.6 863.8 140.6 864.9 137 864.9 138.3 866.5 139.9 866.6 142.2 866.7 133.7 866.9 130.1 866.9 126.5 866.9 123 867.4 124.2 867.4 125.9 867.6 119.5 867.6 120.8 867.6 122.4 867.7 116.1 867.7 117.4 867.7 119 867.7 121.2 867.8 124.1 867.9 120.6 868.7 121.9 868.9 117.2 868.9 118.4 868.9 120 868.9 122.2 868.9 125 869 126.2 869.7 121.7 869.9 122.9 870 124.5 870.1 118.3 870.6 119.5 870.7 121.2 870.8 123.3 870.9 126.2 873.1 122.7 873.1 123.9 873.1 125.6 873.4 127.7 873.5 130.5 873.5 131.7 873.6 133.3 874.5 135.5 874.7 138.3 875.4 139.5 876.6 141.1 876.8 135.1 876.9 136.3 877 131.7 877 132.9 877.6 134.5 877.6 136.6 878.4 139.4 878.5 140.6 880.1 136.1 880.8 137.3 881.1 138.8 881.4 140.9 881.4 143.7 881.7 140.4 881.7 141.5 881.8 143.1 881.9 145.2 882 148.1 882.2 149.3 882.9 144.8 883.1 141.3 883.1 142.5 883.1 144.2 883.3 146.4 883.4 149.3 883.4 150.5 883.4 152.1 883.4 154.3 883.5 157.2 883.6 153.7 884 154.9 884 150.3 884.1 151.6 884.1 153.2 884.1 155.4 884.1 158.3 884.2 159.5 884.4 161.2 884.4 163.3 884.5 166.2 885.2 167.5 885.2 169.1 885.8 171.3 886.4 163 886.6 164.3 886.7 166 886.8 168.2 886.9 171.1 887 172.4 887.6 167.7 889.6 168.9 890.3 170.5 890.3 172.7 890.4 175.6 891.6 172.1 891.7 173.4 891.8 175 893.1 177.2 893.1 180.2 893.2 181.4 893.2 176.7 893.9 177.9 894 179.6 895.9 173.4 898.5 174.6 899.4 176.3 899.6 178.5 899.6 181.4 900.2 182.7 901.1 184.3 901.3 186.5 902.8 189.4 903.7 190.6 903.8 192.3 904 194.5 904.7 197.4 905.4 198.6 905.4 200.3 905.4 202.5 905.4 205.4 908.6 206.6 909.9 201.9 910.1 198.4 910.1 199.7 910.1 201.4 910.1 203.6 910.2 195.1 910.2 196.4 910.3 198.1 910.3 200.4 911 203.4 911 199.8 911.7 196.1 913.8 192.4 913.9 193.7 913.9 195.5 914.4 197.8 914.5 189 914.6 190.3 914.6 192.1 915 194.5 915 197.6 915 198.9 915 193.9 915 195.2 915 197 915 199.3 915.1 202.4 915.1 203.7 915.1 205.4 915.2 207.7 915.3 199 915.3 200.3 915.4 202 915.4 204.4 915.7 195.5 915.8 191.7 915.8 193 915.8 194.8 916.6 197.1 916.7 200.3 917.2 201.6 917.3 203.4 917.4 205.8 917.5 196.8 917.6 193 917.7 194.3 918 196.1 918.3 198.5 918.7 201.6 919 197.8 919 199.2 919 200.9 919 203.3 919 206.4 920.9 207.7 921.3 202.7 922.2 204 922.3 205.8 922.4 208.2 922.7 211.4 922.9 207.6 922.9 208.9 924.5 203.9 925.7 200.1 926 201.4 929.5 203.2 929.8 205.6 932.4 208.7"/><line x1="88" x2="110" y1="102" y2="102" stroke="#16a34a" stroke-width="2.5"/><text x="116" y="106" fill="#374151" font-size="11.5">equity</text><line x1="88" x2="110" y1="118" y2="118" stroke="#d97706" stroke-width="2.5" opacity=".8"/><text x="116" y="122" fill="#374151" font-size="11.5">price</text><text x="78" y="502" fill="#6b7280" font-size="12" text-anchor="start">2019-10-01</text><text x="934" y="502" fill="#6b7280" font-size="12" text-anchor="end">2020-01-17</text></svg>