<?xml version="1.0" encoding="UTF-8"?>
<svg xmlns="http://www.w3.org/2000/svg" width="1000" height="520" viewBox="0 0 1000 520" font-family="ui-sans-serif, system-ui, sans-serif">
  <rect width="1000" height="520" fill="#ffffff"/>
  <text x="78" y="28" font-size="18" font-weight="700" fill="#111827">Zone Recovery — ETHUSDC best setting (equity / PnL)</text>
  <text x="78" y="48" font-size="12.5" fill="#6b7280">lev 50 · ratio 2 · gap 35% · maxSteps 6 · maxDD 60% · random · vip 9  ·  114 series, 97.4% win · vol $433892113 ($13996529/day) · fees $36707</text>
  <text x="78" y="68" font-size="12.5" font-weight="600" fill="#1d4ed8">USDC · BNB −10% · taker 0.0085%</text>
  <text x="934" y="28" text-anchor="end" font-size="18" font-weight="700" fill="#16a34a">+293490 USDT  (+2934.90%)</text>
  <line x1="78" y1="468.0" x2="934" y2="468.0" stroke="#e5e7eb" stroke-width="1"/><text x="68" y="472.0" text-anchor="end" font-size="12" fill="#6b7280">0.00</text><line x1="78" y1="392.0" x2="934" y2="392.0" stroke="#e5e7eb" stroke-width="1"/><text x="68" y="396.0" text-anchor="end" font-size="12" fill="#6b7280">66581</text><line x1="78" y1="316.0" x2="934" y2="316.0" stroke="#e5e7eb" stroke-width="1"/><text x="68" y="320.0" text-anchor="end" font-size="12" fill="#6b7280">133161</text><line x1="78" y1="240.0" x2="934" y2="240.0" stroke="#e5e7eb" stroke-width="1"/><text x="68" y="244.0" text-anchor="end" font-size="12" fill="#6b7280">199742</text><line x1="78" y1="164.0" x2="934" y2="164.0" stroke="#e5e7eb" stroke-width="1"/><text x="68" y="168.0" text-anchor="end" font-size="12" fill="#6b7280">266322</text><line x1="78" y1="88.0" x2="934" y2="88.0" stroke="#e5e7eb" stroke-width="1"/><text x="68" y="92.0" text-anchor="end" font-size="12" fill="#6b7280">332903</text>
  <line x1="78" y1="456.6" x2="934" y2="456.6" stroke="#9ca3af" stroke-width="1.5" stroke-dasharray="6 4"/><text x="934" y="450.6" text-anchor="end" font-size="11" fill="#6b7280">start 10000</text>
  <polyline points="78.0,236.2 78.7,234.1 79.5,232.2 80.5,232.6 81.8,232.4 83.0,235.2 84.1,233.8 85.7,234.2 87.3,234.3 88.9,232.6 90.9,232.2 92.0,231.3 93.2,231.6 94.2,234.1 95.1,232.3 96.0,231.7 96.3,231.4 96.8,233.1 97.8,232.2 98.1,227.9 98.3,230.1 98.7,231.3 99.2,231.4 100.3,231.4 101.3,230.4 102.5,230.8 103.8,230.4 104.5,227.8 104.8,228.3 105.2,226.5 105.7,228.0 106.2,226.6 106.8,226.8 107.4,228.2 108.1,228.8 108.7,229.0 109.3,226.4 109.4,224.8 109.8,223.2 109.9,219.9 110.0,219.7 110.3,221.7 110.8,224.5 111.4,224.7 112.2,224.6 113.0,222.2 113.3,217.5 113.6,219.5 114.1,220.2 114.7,223.0 115.1,220.5 115.7,220.4 116.1,218.3 116.2,216.8 116.5,216.8 116.9,216.2 117.0,214.8 117.1,214.0 117.3,210.1 117.3,211.5 117.4,209.2 117.6,211.1 117.8,211.6 118.3,212.0 118.6,215.2 118.8,214.9 119.2,215.0 119.8,214.4 120.1,213.0 120.5,214.3 121.0,211.8 121.6,212.4 122.0,216.2 122.1,220.8 122.2,220.4 122.3,217.6 122.4,220.5 122.4,220.6 122.5,213.1 122.5,214.1 122.5,212.6 122.6,211.6 122.6,208.4 122.7,204.8 122.7,200.8 122.7,200.2 122.7,202.1 122.8,202.4 122.8,205.1 122.9,203.9 123.0,206.9 123.0,206.3 123.1,206.1 123.2,206.5 123.3,207.8 123.3,208.8 123.4,208.2 123.5,208.1 123.5,205.3 123.6,203.1 123.7,202.1 123.8,201.0 123.9,204.6 124.0,204.7 124.1,204.6 124.2,204.0 124.3,202.7 124.3,196.3 124.4,196.5 124.4,199.9 124.5,200.4 124.6,194.9 124.6,192.9 124.7,189.9 124.7,190.0 124.8,191.0 124.8,191.3 124.9,194.1 125.0,193.6 125.1,192.4 125.2,189.4 125.3,189.0 125.4,189.3 125.5,186.1 125.6,189.0 125.7,190.7 125.8,191.5 126.0,191.2 126.1,195.6 126.3,193.5 126.5,193.7 126.7,190.6 127.0,195.4 127.1,196.2 127.3,197.6 127.4,198.7 127.5,196.6 127.7,196.1 127.9,194.0 128.1,192.4 128.4,192.1 128.7,193.0 128.9,191.4 129.2,193.5 129.5,193.8 129.8,194.2 130.3,193.2 130.8,191.4 131.1,189.2 131.6,191.1 132.1,190.3 132.7,192.7 133.3,191.4 134.1,190.9 135.0,192.5 135.8,193.5 136.7,192.3 137.6,192.8 138.6,194.7 139.4,195.9 140.2,196.1 141.0,198.4 141.5,198.5 141.7,203.3 141.7,204.0 141.9,203.4 142.1,201.8 142.5,201.8 142.8,200.8 143.1,198.8 143.4,199.6 144.1,199.4 144.4,198.0 144.9,199.5 145.7,198.8 146.6,200.4 147.5,199.6 148.2,198.5 148.9,197.9 149.9,195.7 150.2,198.3 151.1,197.9 152.1,198.7 152.6,196.6 154.4,196.6 155.5,196.8 157.1,195.4 158.0,192.5 158.6,194.2 159.5,193.9 160.3,191.1 160.9,190.1 161.0,187.4 161.0,186.0 161.1,186.0 161.2,188.0 161.5,185.5 161.8,185.9 162.0,183.5 162.3,183.8 162.6,186.5 163.0,187.0 163.4,187.2 164.1,188.3 164.7,186.0 165.3,185.5 165.9,184.3 166.6,186.1 167.3,185.9 168.0,183.8 168.2,184.1 168.6,187.8 169.0,187.0 169.6,188.9 170.1,190.4 170.2,190.7 170.5,190.2 171.0,188.6 171.6,186.2 172.0,187.8 172.6,186.5 173.2,187.3 173.8,188.0 174.5,189.4 175.1,187.5 175.5,189.7 176.2,190.7 176.9,188.3 177.4,189.7 177.9,188.9 178.6,189.5 179.0,193.6 179.1,190.2 179.4,189.6 179.8,190.3 180.3,189.1 180.8,189.3 181.4,188.2 182.0,191.2 182.4,190.8 182.8,192.5 182.9,192.5 183.2,190.4 183.9,190.9 184.5,188.5 185.2,186.8 185.4,186.2 185.9,188.3 186.4,188.2 187.0,188.5 187.4,185.5 187.6,187.0 187.8,186.3 188.0,187.4 188.3,188.1 188.5,184.4 188.5,184.2 188.5,185.6 188.6,185.8 188.8,182.6 188.9,185.5 189.0,185.5 189.2,185.9 189.3,183.0 189.4,179.2 189.4,181.8 189.5,181.6 189.6,180.7 189.7,181.0 189.7,175.3 189.8,175.0 189.8,174.7 189.9,175.1 190.0,175.6 190.1,176.6 190.2,176.4 190.3,174.3 190.3,170.4 190.4,167.6 190.4,170.0 190.5,168.4 190.6,169.5 190.7,171.2 190.8,171.1 190.9,174.0 191.0,173.9 191.2,174.9 191.4,173.8 191.7,174.2 192.0,172.8 192.2,174.9 192.5,174.2 192.8,175.3 193.2,177.2 193.4,178.0 193.6,179.8 193.7,182.8 193.8,181.3 194.0,181.5 194.3,180.6 194.8,181.3 195.1,183.8 195.2,186.2 195.5,184.4 195.9,186.3 196.0,187.4 196.1,184.9 196.5,183.9 196.9,183.0 197.6,183.2 197.9,181.7 198.2,180.0 198.6,181.7 198.9,183.6 199.1,184.3 199.4,181.9 199.7,180.1 199.9,180.7 200.2,177.8 200.5,178.1 200.7,182.0 201.0,178.3 201.4,180.0 201.7,178.7 202.0,177.8 202.3,177.6 202.7,178.2 203.0,179.8 203.3,180.1 203.5,179.0 203.8,182.5 204.0,182.6 204.1,184.9 204.2,186.7 204.4,186.4 204.6,184.0 204.7,185.3 205.0,185.0 205.2,185.3 205.2,186.6 205.2,185.5 205.3,189.5 205.3,186.6 205.3,185.3 205.3,185.3 205.4,182.4 205.4,180.3 205.4,180.3 205.5,180.0 205.5,183.2 205.5,183.0 205.6,182.2 205.6,180.5 205.6,178.3 205.7,181.0 205.7,181.2 205.8,182.5 205.8,183.8 205.9,182.2 206.0,181.7 206.1,180.4 206.2,183.5 206.3,181.6 206.3,176.8 206.4,177.1 206.5,176.3 206.5,172.7 206.5,172.2 206.6,172.7 206.7,173.2 206.8,174.3 206.9,172.5 207.0,173.9 207.0,174.5 207.2,174.2 207.3,175.3 207.3,176.8 207.5,176.2 207.6,175.5 207.7,177.1 207.9,175.7 208.0,176.8 208.2,176.2 208.4,176.8 208.5,181.3 208.5,182.4 208.6,179.6 208.8,176.2 208.9,173.2 209.0,171.9 209.1,170.1 209.1,167.2 209.1,163.6 209.2,166.3 209.2,168.8 209.3,170.3 209.5,168.7 209.6,172.2 209.6,171.5 209.8,170.8 209.9,172.3 210.1,168.9 210.2,164.6 210.3,164.2 210.4,165.6 210.6,164.5 210.7,164.5 210.9,164.1 211.1,165.7 211.2,166.2 211.4,165.0 211.5,160.3 211.6,161.3 211.7,162.5 211.8,159.9 211.9,160.1 212.0,156.2 212.0,153.8 212.1,157.6 212.2,157.4 212.3,159.8 212.4,158.8 212.5,161.4 212.6,159.1 212.8,160.6 213.0,159.1 213.3,161.3 213.6,159.5 214.0,161.2 214.3,159.7 214.8,161.8 215.1,161.3 215.4,162.4 215.7,162.8 216.1,163.7 216.3,166.4 216.5,165.7 216.7,169.1 216.8,170.0 217.0,169.1 217.2,164.3 217.4,165.1 217.6,161.4 217.8,158.9 217.9,161.5 218.2,163.7 218.4,165.0 218.6,166.1 219.0,166.5 219.3,167.0 219.7,165.9 220.1,164.5 220.3,163.5 220.7,164.4 221.2,164.2 221.9,164.3 222.2,163.9 222.6,165.5 223.0,165.3 223.5,165.1 223.8,161.3 223.8,157.4 223.9,157.0 224.1,160.2 224.5,162.7 224.7,166.0 224.9,167.7 225.1,167.0 225.3,166.0 225.6,165.7 225.9,166.4 226.4,166.2 226.8,164.1 227.3,165.5 227.8,163.7 228.4,163.6 228.9,160.7 229.2,159.8 229.7,160.5 230.1,159.8 230.7,160.6 231.2,162.2 231.5,161.1 232.0,162.5 232.3,157.8 232.4,154.7 232.4,150.1 232.5,148.3 232.5,147.4 232.6,145.2 232.6,143.8 232.7,143.8 232.8,143.3 232.8,146.8 232.8,144.4 232.9,144.4 233.0,144.6 233.0,146.0 233.1,148.6 233.1,152.1 233.2,149.4 233.2,152.3 233.3,150.0 233.4,149.2 233.5,147.5 233.6,148.8 233.7,145.7 233.8,143.2 233.9,144.6 234.0,145.2 234.1,151.7 234.1,154.0 234.2,152.5 234.3,153.3 234.5,151.8 234.6,150.6 234.7,153.1 234.8,152.6 234.9,153.5 235.0,156.8 235.1,157.4 235.1,157.4 235.2,158.8 235.3,161.1 235.4,161.6 235.5,157.5 235.6,158.4 235.8,157.3 236.0,159.1 236.1,157.2 236.3,156.8 236.4,159.4 236.5,161.6 236.6,166.2 236.6,165.9 236.7,170.9 236.7,171.7 236.8,175.9 236.8,172.5 236.9,169.6 237.0,167.3 237.1,166.4 237.3,165.8 237.5,165.0 237.7,164.3 237.8,164.7 238.0,165.5 238.3,165.2 238.7,164.8 239.1,162.9 239.3,162.9 239.5,159.7 239.9,157.7 240.2,159.8 240.5,157.8 240.5,151.4 240.6,147.2 240.6,147.9 240.7,147.3 240.8,147.5 240.9,146.0 241.1,146.4 241.2,150.1 241.5,148.4 241.7,151.2 242.1,152.6 242.5,149.7 242.7,146.9 243.0,148.2 243.4,144.9 243.6,143.8 243.9,146.3 244.1,148.1 244.4,149.3 244.7,151.7 244.8,154.0 245.0,151.5 245.2,157.5 245.3,154.2 245.5,157.1 245.7,158.8 245.9,159.6 246.1,157.1 246.4,158.4 246.7,156.5 247.0,152.3 247.3,151.1 247.7,150.7 248.1,153.2 248.6,153.9 249.0,155.9 249.6,157.0 250.1,155.1 250.5,158.3 250.9,157.3 251.5,157.2 252.2,155.2 252.6,156.6 253.0,155.1 253.4,156.6 253.9,155.8 254.1,156.9 254.2,160.5 254.3,161.1 254.5,162.4 254.5,164.8 254.6,164.5 254.7,166.1 254.8,169.6 254.9,168.7 255.0,170.4 255.1,171.5 255.2,172.5 255.3,170.2 255.5,169.0 255.8,167.2 256.0,167.6 256.3,166.8 256.7,165.1 257.1,164.6 257.4,165.7 257.6,168.2 257.9,166.4 258.2,167.3 258.6,168.1 258.8,169.3 259.0,169.4 259.1,166.9 259.2,165.0 259.3,167.4 259.6,167.7 259.8,170.6 259.8,174.2 259.9,172.8 260.0,173.8 260.0,174.1 260.1,173.6 260.2,173.2 260.4,171.8 260.4,177.7 260.4,175.4 260.5,173.3 260.5,174.9 260.6,171.5 260.7,173.6 260.7,174.2 260.8,174.4 260.9,175.3 261.0,181.9 261.0,182.3 261.1,179.1 261.2,181.0 261.2,181.8 261.3,184.0 261.3,186.0 261.4,185.0 261.5,184.2 261.6,183.0 261.7,182.4 261.7,182.0 261.9,181.8 262.0,181.8 262.2,180.1 262.4,179.6 262.6,179.4 262.7,183.6 262.8,183.0 263.0,182.3 263.3,184.9 263.4,183.0 263.7,182.6 263.9,180.7 264.2,185.0 264.4,185.4 264.6,185.8 264.9,186.4 264.9,187.1 265.1,183.1 265.3,186.2 265.5,187.6 265.6,185.7 265.8,189.2 265.9,192.3 266.0,190.0 266.1,188.2 266.3,187.0 266.6,187.0 266.9,188.7 267.1,191.5 267.3,189.2 267.6,188.9 267.8,189.3 268.2,187.3 268.9,186.3 269.4,185.3 269.9,184.4 270.3,187.1 270.5,180.6 270.5,181.2 270.6,180.1 271.0,182.6 271.6,183.1 272.1,182.1 272.6,179.6 273.1,179.0 273.7,179.7 274.1,181.1 274.3,184.6 274.6,184.1 275.1,182.9 275.6,189.0 275.8,189.2 276.4,186.3 276.8,185.1 277.5,184.2 278.2,187.9 278.4,190.6 278.6,193.8 278.7,194.5 279.0,193.7 279.3,197.1 279.4,202.3 279.5,198.7 279.7,197.2 279.9,194.6 280.2,192.1 280.5,192.6 280.9,191.8 281.4,193.7 281.7,195.2 282.1,196.5 282.5,196.0 282.8,200.4 283.1,197.8 283.5,194.3 283.9,191.7 284.3,193.3 284.6,195.2 285.0,195.3 285.3,198.1 285.5,200.1 285.8,201.0 286.0,200.4 286.6,201.2 287.0,202.1 287.5,202.6 287.5,204.3 287.9,204.3 288.0,207.5 288.0,208.1 288.1,205.2 288.1,208.6 288.2,208.1 288.3,212.2 288.3,206.0 288.4,206.0 288.5,205.8 288.6,208.0 288.7,204.7 288.8,205.5 288.9,203.4 289.0,199.6 289.0,199.0 289.2,199.6 289.3,201.4 289.4,200.8 289.5,201.2 289.7,198.6 289.8,199.5 290.1,200.9 290.3,200.1 290.5,201.1 290.6,194.7 290.8,193.6 290.9,194.7 291.2,193.8 291.4,196.4 291.7,193.6 291.9,190.8 292.2,191.7 292.5,193.2 292.8,193.8 293.2,194.8 293.5,195.5 294.0,194.7 294.3,199.4 294.5,200.5 294.8,202.4 295.1,198.8 295.4,198.0 296.1,196.8 296.6,194.0 297.2,196.1 297.8,194.5 298.6,196.9 299.3,197.1 300.1,195.1 300.6,197.5 300.6,190.6 300.7,192.3 300.8,200.2 300.8,201.6 301.1,198.8 301.4,193.3 301.8,194.6 302.4,197.7 302.9,198.5 303.5,194.7 304.2,195.7 305.0,195.3 306.0,194.8 306.8,193.5 307.6,195.5 308.2,197.5 308.4,196.6 308.8,200.0 309.0,203.2 309.0,207.3 309.1,207.5 309.3,202.6 309.5,201.2 309.8,200.9 310.4,203.2 311.1,201.0 312.0,199.3 312.8,202.3 313.4,204.1 314.1,202.8 314.4,199.9 314.5,202.8 314.6,197.7 314.8,202.7 315.2,203.5 315.4,202.9 315.6,203.9 315.7,206.2 315.8,204.0 315.9,207.8 315.9,209.1 316.0,207.9 316.1,208.6 316.2,207.9 316.3,209.7 316.4,207.0 316.5,205.2 316.6,202.3 316.6,197.6 316.7,194.0 316.7,191.4 316.8,193.8 316.8,191.4 316.9,189.7 316.9,192.3 317.0,195.0 317.1,193.2 317.2,195.7 317.2,200.4 317.3,196.6 317.4,193.9 317.6,191.7 317.6,190.1 317.8,191.0 317.9,192.9 318.1,192.3 318.4,190.9 318.6,191.6 318.8,196.6 319.0,197.3 319.3,198.1 319.6,195.3 319.9,197.6 320.1,203.4 320.2,206.0 320.3,201.8 320.6,201.2 320.9,203.4 321.2,207.1 321.4,208.1 321.7,205.6 322.0,204.3 322.3,203.6 322.8,205.9 323.1,208.2 323.4,205.6 323.8,205.0 324.5,206.1 325.4,203.8 326.4,204.0 327.7,204.9 329.0,203.0 330.3,205.3 331.7,204.8 333.4,203.7 335.3,202.7 337.6,202.3 338.9,200.2 340.5,200.6 341.9,201.3 343.4,202.3 345.6,201.5 347.8,202.3 350.8,203.8 352.5,204.1 353.7,204.0 355.0,203.4 357.0,201.9 359.1,201.4 361.3,200.3 363.3,201.6 364.7,199.4 365.9,198.0 368.0,198.7 368.8,196.0 369.8,197.4 370.9,196.3 371.4,191.9 371.7,194.4 372.3,196.1 372.9,195.3 373.1,190.3 373.2,189.1 373.5,191.2 374.1,192.4 374.9,193.8 376.2,192.2 377.2,194.8 377.5,199.0 377.8,198.2 378.6,196.4 379.3,193.9 379.8,197.6 380.7,199.9 380.8,198.8 381.0,194.4 381.2,197.1 381.6,194.3 381.9,197.0 382.1,194.2 382.4,195.5 382.6,198.3 382.8,199.5 382.9,194.5 383.0,190.2 383.1,191.8 383.3,192.7 383.6,194.6 383.8,193.1 384.2,192.3 384.3,186.7 384.4,187.8 384.7,187.1 384.9,183.8 385.0,182.3 385.2,184.6 385.5,180.9 385.7,182.4 386.0,184.2 386.4,186.3 386.9,184.9 387.7,183.8 388.3,183.5 389.1,184.1 389.9,184.6 390.5,187.0 390.7,189.4 391.0,189.9 391.3,188.0 391.6,193.7 391.7,197.2 391.8,196.5 391.9,196.9 392.2,196.8 392.6,194.8 393.2,195.6 393.7,196.4 394.3,198.2 394.9,195.0 395.6,195.2 396.5,195.8 397.0,197.4 397.7,197.3 398.2,200.7 398.3,204.1 398.3,207.0 398.4,206.7 398.5,202.8 398.6,203.4 398.6,196.7 398.7,200.1 398.8,198.9 398.9,199.7 399.1,200.6 399.3,200.2 399.4,192.8 399.5,195.0 399.7,194.8 399.8,193.1 400.0,193.2 400.2,191.4 400.3,190.6 400.5,191.8 400.7,188.8 400.8,190.5 401.0,191.3 401.3,190.5 401.6,191.8 401.8,196.4 401.9,199.4 402.0,201.6 402.1,199.4 402.4,198.6 402.7,196.9 403.0,195.1 403.2,199.7 403.7,200.1 404.1,195.9 404.7,194.3 405.1,195.6 405.6,199.0 406.0,201.8 406.6,200.5 407.0,202.3 407.7,200.3 408.4,202.5 409.4,201.0 410.0,198.8 410.7,196.4 411.3,201.7 411.9,199.0 412.9,198.9 413.4,195.9 414.2,194.7 414.9,195.1 415.4,191.2 415.5,188.3 415.8,190.5 416.3,191.1 416.7,191.4 417.3,190.1 418.1,192.7 419.1,191.8 419.8,188.6 420.1,187.9 420.5,190.6 421.0,188.6 421.9,190.4 423.0,190.6 423.9,190.2 424.8,189.4 424.9,186.5 424.9,183.3 425.0,184.9 425.1,188.3 425.3,187.6 425.5,190.2 425.9,185.3 426.1,185.2 426.2,184.0 426.2,181.9 426.3,183.2 426.4,185.8 426.5,186.6 426.7,189.5 426.8,186.9 427.0,188.6 427.1,187.5 427.3,184.6 427.4,181.9 427.5,181.9 427.7,181.0 427.7,176.4 427.8,174.3 427.8,174.1 428.0,176.9 428.1,178.9 428.3,177.8 428.4,174.5 428.6,175.4 428.9,175.3 429.1,178.1 429.4,176.5 429.6,177.7 429.9,175.7 430.2,176.0 430.4,173.5 430.7,174.0 431.0,170.8 431.0,171.2 431.3,173.3 431.6,170.9 431.9,167.8 432.2,169.3 432.4,167.2 432.7,167.5 432.9,168.8 433.1,172.8 433.4,170.3 433.6,168.6 434.0,167.9 434.4,168.8 434.8,162.3 434.8,154.2 434.9,153.5 434.9,147.0 434.9,128.4 434.9,122.3 434.9,130.7 434.9,126.1 434.9,137.1 434.9,139.1 434.9,135.1 435.0,140.0 435.0,140.1 435.1,136.9 435.1,136.2 435.2,137.7 435.4,135.3 435.6,133.6 435.7,135.1 435.9,131.1 436.0,134.0 436.2,134.1 436.4,136.7 436.6,138.2 436.8,137.3 437.1,135.7 437.3,135.6 437.6,137.3 438.0,137.0 438.3,134.7 438.6,131.8 438.9,134.4 439.2,133.8 439.5,128.1 439.7,132.4 440.1,134.0 440.4,136.4 440.9,136.1 441.4,132.7 441.6,128.6 441.9,130.5 442.4,132.7 443.1,132.9 443.5,132.5 444.0,135.9 444.5,136.0 444.9,134.2 445.4,133.9 446.0,133.0 446.7,133.4 447.5,135.0 448.3,136.1 448.9,138.2 449.1,139.5 449.5,138.6 449.8,143.2 450.0,145.7 450.4,145.3 450.7,147.7 451.0,144.7 451.5,144.5 452.1,146.5 452.4,142.0 452.6,142.7 453.1,142.7 453.3,140.2 453.5,138.4 453.7,137.9 453.7,138.6 453.8,136.9 453.9,136.5 454.0,134.9 454.0,133.2 454.1,130.8 454.1,127.9 454.2,128.8 454.2,132.7 454.3,135.5 454.4,132.2 454.5,128.7 454.5,127.6 454.6,128.8 454.7,128.0 454.9,130.1 455.0,131.3 455.1,133.1 455.3,131.1 455.4,129.6 455.6,127.5 455.6,126.7 455.7,124.5 455.8,122.5 456.0,122.1 456.0,117.8 456.0,117.9 456.1,121.7 456.2,118.7 456.3,117.7 456.4,122.6 456.5,124.1 456.6,124.0 456.8,122.2 456.9,121.9 457.1,124.8 457.2,127.8 457.3,130.8 457.4,127.9 457.5,129.7 457.7,130.9 457.8,129.6 458.0,133.6 458.1,132.1 458.3,128.7 458.4,136.4 458.5,136.5 458.6,136.4 458.7,132.9 458.9,133.6 459.0,129.2 459.2,128.8 459.4,125.3 459.4,117.3 459.4,122.3 459.6,122.9 459.8,121.5 460.0,123.9 460.1,123.1 460.2,119.4 460.3,122.3 460.5,123.6 460.7,122.8 460.9,122.7 461.0,122.3 461.2,121.1 461.4,122.9 461.8,121.2 462.2,127.1 462.4,123.6 462.9,126.4 463.2,127.5 463.6,125.8 464.0,127.2 464.5,127.3 464.9,130.3 465.2,133.5 465.5,135.2 465.8,131.9 466.2,134.6 466.4,136.6 466.8,135.5 467.2,136.3 467.6,139.1 467.7,138.2 468.0,139.5 468.4,137.6 468.6,144.6 468.7,145.3 468.8,148.9 468.9,146.8 469.3,145.4 469.6,143.1 469.9,142.4 470.4,140.5 470.8,140.9 471.2,139.4 471.7,138.9 472.0,137.4 472.5,139.2 473.0,136.8 473.4,135.3 473.8,135.2 474.2,135.3 474.8,133.4 475.3,134.2 475.5,131.4 475.7,126.2 475.8,124.9 476.1,124.2 476.4,125.1 476.7,124.7 477.3,125.9 477.8,125.6 478.2,130.0 478.8,128.8 479.2,128.7 479.4,124.1 479.8,125.5 480.2,126.7 480.4,123.3 480.5,121.0 480.8,122.9 481.1,123.0 481.3,123.7 481.3,125.6 481.4,128.6 481.4,131.5 481.5,133.7 481.6,134.3 481.6,134.9 481.7,130.3 481.7,128.9 481.8,131.7 481.9,130.5 482.0,131.9 482.1,128.4 482.2,130.0 482.3,132.3 482.4,134.7 482.5,133.2 482.6,137.9 482.7,138.6 482.8,142.0 482.8,146.3 482.8,146.8 482.9,143.8 483.0,138.2 483.0,134.5 483.1,138.4 483.1,139.9 483.3,138.7 483.4,137.2 483.6,137.0 483.8,137.3 484.0,135.4 484.2,133.1 484.4,136.4 484.6,136.6 484.8,135.2 485.0,134.7 485.2,141.9 485.3,143.3 485.5,145.2 485.6,145.7 485.9,143.7 486.1,148.4 486.2,147.1 486.4,147.2 486.6,146.1 486.8,144.7 487.0,148.0 487.2,145.9 487.4,145.1 487.6,143.4 487.9,143.5 488.1,147.3 488.4,147.8 488.7,147.1 488.9,145.7 489.7,142.4 490.2,143.2 490.7,139.0 491.2,142.0 491.8,140.1 492.3,136.7 493.0,136.6 493.6,141.9 494.1,138.5 494.6,142.4 494.9,145.1 495.2,142.7 496.0,142.7 496.7,144.2 497.4,144.7 497.5,148.0 497.9,146.8 498.3,145.9 498.8,141.2 499.0,141.0 499.5,141.7 500.3,139.5 501.0,142.1 501.6,138.3 502.1,139.8 502.7,139.4 503.6,140.2 504.3,143.3 504.9,144.2 505.4,143.1 506.0,143.0 506.6,141.1 507.2,141.3 507.8,141.9 508.2,141.9 508.7,141.6 508.9,140.3 509.0,142.1 509.0,142.9 509.1,144.3 509.3,144.9 509.4,144.2 509.5,146.9 509.6,142.4 509.7,141.1 509.8,146.9 509.9,142.9 510.0,146.1 510.1,149.4 510.1,151.6 510.2,148.3 510.3,153.6 510.4,154.9 510.4,154.5 510.5,153.5 510.7,153.6 510.8,151.7 510.9,152.1 511.0,148.9 511.2,150.6 511.5,147.3 511.8,149.4 512.1,149.9 512.4,149.5 512.7,148.9 513.0,147.8 513.4,148.7 513.8,148.6 514.3,150.3 514.8,150.4 515.3,152.3 515.7,149.5 516.1,146.9 516.4,145.5 516.7,146.3 517.5,145.2 518.2,147.6 518.8,145.5 519.8,144.6 521.1,145.8 522.5,147.6 524.4,145.7 526.0,146.2 528.1,146.5 529.6,144.6 531.0,143.3 532.6,145.2 533.7,142.6 535.1,143.0 536.2,141.7 536.8,141.6 537.3,139.9 537.7,137.9 537.9,135.4 538.2,135.7 538.7,138.8 538.9,139.4 539.5,138.1 540.5,138.1 542.0,138.9 544.3,139.0 545.4,140.2 546.0,142.6 546.5,141.4 547.6,140.2 548.4,142.4 548.9,141.9 549.8,142.2 550.5,143.7 551.5,139.6 552.3,139.4 553.9,139.7 555.3,139.6 556.5,141.2 557.7,139.1 558.4,137.3 559.3,138.1 560.9,138.1 562.4,137.2 563.1,138.1 563.6,136.6 563.8,132.1 563.9,132.7 564.2,132.3 564.4,135.6 564.7,137.4 565.1,135.4 565.9,134.5 566.6,133.6 567.5,133.1 568.3,132.7 568.7,125.8 568.8,126.8 569.0,125.4 569.4,126.9 569.9,128.2 570.5,130.5 571.2,131.8 572.0,132.5 572.9,130.3 573.8,129.9 574.0,136.5 574.1,135.4 574.3,135.6 574.4,138.5 574.5,140.0 574.6,139.1 574.8,142.6 574.8,145.8 574.8,145.0 574.9,146.9 575.0,149.1 575.0,152.7 575.1,159.8 575.1,161.7 575.1,155.5 575.1,154.6 575.2,158.6 575.2,160.2 575.3,160.4 575.3,167.9 575.4,167.6 575.4,166.7 575.4,168.8 575.4,177.0 575.5,174.6 575.5,169.6 575.5,172.7 575.6,171.3 575.6,175.4 575.7,171.8 575.7,170.7 575.8,168.5 575.8,166.4 575.9,166.2 576.0,167.0 576.1,167.3 576.3,167.6 576.4,166.2 576.6,167.7 576.8,169.3 577.0,168.8 577.1,172.9 577.3,170.0 577.5,170.1 577.7,169.2 578.0,168.5 578.4,169.7 578.9,170.1 579.1,170.9 579.7,169.0 580.1,170.0 580.6,167.0 581.1,170.5 581.4,171.1 581.6,170.0 582.2,172.3 582.4,173.1 582.8,173.2 583.5,171.1 584.1,169.7 584.5,172.4 584.7,166.5 584.9,166.8 585.2,167.0 585.7,168.9 586.1,169.4 586.8,168.6 587.6,167.5 588.1,165.7 588.5,164.1 589.0,165.2 589.5,163.3 589.8,164.3 590.4,166.2 590.9,165.9 591.3,170.2 591.7,168.7 592.1,167.8 592.5,167.1 593.0,167.3 593.5,166.4 594.1,166.3 594.7,166.2 595.4,166.2 596.2,168.2 597.1,167.0 598.1,165.2 598.9,166.6 599.5,167.9 600.6,171.2 600.8,169.0 601.3,173.2 601.6,175.9 601.6,180.7 601.7,178.5 601.9,178.9 602.1,173.7 602.5,173.8 602.8,172.5 603.1,177.0 603.4,175.0 603.8,176.8 604.1,175.8 604.4,172.0 604.8,172.7 605.2,176.2 605.5,175.4 605.9,173.5 606.4,174.9 606.9,175.2 607.7,176.6 608.3,179.4 608.4,184.4 608.5,181.5 608.6,184.3 608.8,182.0 609.2,181.3 609.6,180.3 609.9,186.8 609.9,189.4 610.0,188.1 610.1,188.9 610.2,191.2 610.4,193.1 610.5,194.9 610.6,196.0 610.8,195.2 611.1,194.4 611.4,192.3 611.8,193.3 612.1,195.9 612.1,198.3 612.3,196.1 612.5,200.7 612.6,203.1 612.7,201.7 612.9,199.1 613.1,200.3 613.5,200.8 613.8,201.7 614.2,202.1 614.6,199.3 615.1,199.3 615.6,197.5 616.3,197.3 616.8,198.4 617.4,197.8 617.8,201.1 618.1,202.5 618.3,206.2 618.4,201.9 618.6,204.3 618.9,203.4 619.1,207.8 619.1,209.7 619.3,208.6 619.4,211.8 619.4,211.3 619.5,210.7 619.5,206.0 619.5,209.2 619.6,208.1 619.7,213.0 619.7,216.3 619.7,214.2 619.8,215.1 619.9,214.8 619.9,216.8 620.0,223.2 620.0,221.0 620.1,225.1 620.1,227.2 620.1,226.7 620.2,221.6 620.2,223.1 620.3,226.5 620.4,221.9 620.4,219.4 620.5,220.1 620.7,219.0 620.8,219.7 621.0,221.2 621.1,219.6 621.3,218.4 621.5,217.2 621.7,222.4 621.8,223.9 621.9,227.2 622.1,226.2 622.3,225.3 622.4,223.5 622.7,224.9 622.8,227.6 622.9,229.7 623.0,228.9 623.1,230.3 623.2,229.1 623.4,227.7 623.6,226.4 623.8,227.8 624.1,230.0 624.3,229.3 624.5,230.2 624.7,228.7 625.0,229.8 625.2,231.1 625.3,230.5 625.6,228.8 625.8,230.8 626.0,227.5 626.3,227.7 626.6,227.2 626.8,226.6 627.1,227.7 627.7,229.8 628.4,231.3 628.6,249.1 628.6,246.0 628.6,245.8 628.7,244.7 628.8,242.3 628.9,242.3 629.1,243.4 629.3,244.5 629.5,246.9 629.6,245.9 629.9,243.3 630.2,245.2 630.4,244.6 630.6,247.5 630.8,247.3 631.0,243.0 631.2,239.8 631.3,238.5 631.6,236.8 631.9,238.2 632.3,237.8 632.7,236.1 633.1,238.3 633.5,238.7 634.0,237.1 634.4,234.6 634.8,233.3 635.4,233.4 636.1,233.7 636.7,231.0 636.9,228.5 637.4,230.4 638.0,233.0 638.5,232.6 639.0,235.2 639.3,236.4 639.7,236.9 640.1,236.5 640.4,239.1 641.0,236.1 641.6,237.5 641.8,239.0 642.5,237.7 643.3,236.9 643.9,239.8 644.0,243.8 644.2,244.7 644.3,246.8 644.3,251.6 644.4,251.3 644.5,250.9 644.5,251.9 644.7,254.6 644.8,250.3 645.0,249.1 645.3,245.9 645.5,243.6 645.7,246.5 645.9,245.8 646.1,249.3 646.3,246.8 646.5,246.5 646.5,240.6 646.6,239.6 646.6,238.5 646.7,236.7 646.7,235.9 646.8,235.1 646.9,236.6 647.0,230.7 647.0,233.2 647.0,231.6 647.1,232.7 647.2,234.0 647.2,234.6 647.3,233.7 647.4,235.9 647.5,232.6 647.6,232.4 647.7,230.1 647.8,230.2 647.8,226.2 647.9,223.9 647.9,224.7 648.0,226.9 648.1,230.1 648.2,229.0 648.3,231.4 648.5,229.2 648.6,226.6 648.8,229.8 648.9,231.4 649.1,234.0 649.1,239.9 649.2,238.5 649.3,241.3 649.4,247.3 649.4,249.5 649.5,254.0 649.5,258.4 649.5,256.4 649.6,250.6 649.6,250.6 649.7,251.9 649.8,255.6 649.8,257.1 649.9,256.1 649.9,253.1 650.0,255.4 650.1,261.6 650.1,264.8 650.1,259.4 650.2,256.5 650.3,259.0 650.4,257.8 650.5,262.5 650.5,261.6 650.6,256.9 650.7,256.4 650.8,255.9 651.0,254.6 651.1,257.0 651.2,252.2 651.4,254.3 651.6,253.9 651.7,253.1 651.9,249.8 652.0,247.5 652.2,247.3 652.3,250.1 652.5,247.5 652.7,240.9 652.7,235.0 652.7,234.0 652.7,230.9 652.8,228.2 652.8,225.6 652.8,222.9 652.9,220.3 652.9,218.9 653.0,218.0 653.0,215.7 653.1,212.3 653.1,214.1 653.1,215.0 653.2,211.2 653.3,212.4 653.3,217.2 653.4,216.1 653.5,218.9 653.5,219.7 653.6,222.3 653.7,225.5 653.8,225.1 653.9,223.3 654.0,220.0 654.2,219.6 654.3,218.5 654.5,221.3 654.7,219.7 654.9,219.1 655.3,217.3 655.8,216.9 656.0,219.8 656.4,223.1 656.8,224.5 657.1,222.7 657.5,227.1 657.6,232.7 657.7,233.9 658.0,231.1 658.2,230.6 658.5,225.5 659.0,225.9 659.2,223.6 659.4,221.2 659.8,223.9 660.2,220.9 660.5,218.6 660.8,220.4 661.2,223.1 661.6,222.6 662.0,226.4 662.6,223.9 663.2,221.8 663.8,220.4 664.5,222.7 664.9,223.8 665.2,224.7 665.8,222.1 666.3,225.9 666.9,225.7 667.3,227.0 667.6,229.0 668.1,227.1 668.6,225.1 669.1,223.9 669.7,225.6 670.2,227.6 670.8,229.1 671.1,230.8 671.4,232.1 671.8,232.9 672.3,229.6 672.9,230.1 673.4,227.8 673.5,231.7 673.6,234.6 673.7,237.7 673.9,238.2 674.1,236.0 674.4,233.8 674.6,235.9 674.6,236.5 674.7,241.7 674.7,235.6 674.8,237.3 674.9,241.9 674.9,245.2 675.0,242.9 675.1,244.4 675.2,243.0 675.2,241.7 675.3,242.5 675.4,242.0 675.6,246.2 675.6,250.5 675.6,252.1 675.7,253.0 675.8,254.3 675.8,250.3 676.0,247.1 676.0,240.0 676.1,240.6 676.1,242.8 676.3,242.9 676.4,243.9 676.5,244.3 676.6,248.8 676.7,243.4 676.9,243.7 677.0,244.6 677.2,240.2 677.4,243.4 677.6,241.8 677.8,242.0 678.0,244.0 678.3,240.6 678.5,240.0 678.7,238.8 679.0,236.7 679.3,238.9 679.5,241.8 679.7,244.8 679.9,244.3 680.2,242.7 680.5,238.7 680.7,240.6 681.0,241.0 681.3,242.1 681.6,244.3 681.9,245.1 682.1,245.6 682.5,241.6 683.0,242.8 683.5,241.5 684.1,241.3 684.6,243.2 685.3,241.2 686.0,241.8 686.7,240.2 687.3,238.5 687.8,237.1 688.5,238.6 689.1,239.6 690.0,238.5 690.5,235.8 691.0,233.0 691.6,235.3 692.0,236.3 692.5,235.6 692.9,239.2 693.0,242.4 693.3,240.7 693.5,244.6 693.8,244.4 694.2,242.1 694.7,242.9 695.2,244.0 695.4,248.5 695.6,249.1 696.1,247.6 696.4,248.1 696.7,251.3 697.1,249.8 697.6,249.3 698.0,247.4 698.4,244.7 699.0,244.2 699.7,245.9 700.2,246.3 700.8,245.3 701.2,247.6 701.7,247.3 702.2,245.2 702.2,250.6 702.3,251.9 702.3,255.9 702.4,253.8 702.5,253.5 702.5,254.7 702.6,252.1 702.7,251.7 702.9,251.4 703.0,251.8 703.1,253.9 703.2,246.1 703.2,247.9 703.4,248.0 703.5,246.3 703.7,242.2 703.7,242.0 703.8,242.3 704.0,239.5 704.1,240.0 704.3,240.5 704.4,244.3 704.6,238.5 704.6,236.0 704.7,236.2 704.9,234.6 705.1,238.2 705.3,237.0 705.5,235.0 705.6,230.7 705.6,228.9 705.7,229.6 705.8,224.2 705.9,227.9 706.0,229.6 706.2,232.3 706.3,230.3 706.5,231.0 706.7,230.4 706.9,229.1 707.1,230.4 707.4,233.6 707.6,233.4 707.7,239.6 707.8,236.4 708.0,240.5 708.1,240.1 708.3,241.9 708.6,239.5 708.8,240.1 709.1,244.2 709.2,245.1 709.4,245.6 709.6,244.3 709.8,242.7 710.3,242.2 710.9,241.5 711.3,240.3 712.1,241.0 713.2,240.3 714.1,241.6 715.1,240.3 716.2,239.6 717.1,237.4 718.1,237.9 719.6,238.0 720.9,239.1 722.3,240.2 724.2,239.3 726.9,239.4 729.0,239.4 729.3,242.1 730.1,239.7 731.1,239.0 731.8,240.8 732.8,239.8 733.8,238.6 735.3,240.1 737.3,240.7 738.9,239.1 740.4,241.5 742.1,240.3 743.4,240.8 744.7,243.7 745.2,244.5 746.3,243.1 747.9,245.2 748.5,243.8 750.1,244.2 750.7,249.9 751.1,248.4 752.2,246.3 753.0,244.5 754.2,245.7 754.9,244.9 755.5,245.4 756.5,244.5 757.2,246.8 757.5,247.9 758.1,246.9 759.0,248.3 759.2,252.7 759.2,252.0 759.3,253.5 759.4,254.9 759.4,258.9 759.5,258.8 759.5,261.3 759.6,258.0 759.7,259.4 759.8,258.7 760.0,259.6 760.2,257.0 760.5,259.1 760.8,260.5 761.0,259.7 761.5,261.3 761.7,269.8 761.7,265.3 761.8,264.6 761.9,265.3 762.0,269.3 762.0,272.3 762.1,272.1 762.1,272.9 762.2,272.7 762.3,273.9 762.4,272.2 762.6,270.4 762.8,269.9 763.0,274.8 763.0,274.2 763.1,276.8 763.2,278.0 763.3,278.5 763.4,276.2 763.5,279.1 763.6,283.1 763.7,280.6 763.9,280.4 764.0,283.4 764.2,284.8 764.3,284.1 764.5,285.4 764.7,283.8 764.9,281.7 765.0,279.7 765.2,278.9 765.5,278.4 765.6,282.7 766.0,278.8 766.3,280.4 766.5,284.1 766.8,283.6 767.1,283.9 767.2,281.7 767.3,284.0 767.5,284.5 767.7,282.6 768.0,283.6 768.2,278.4 768.4,279.2 768.5,274.7 768.7,275.3 768.9,274.9 769.1,275.3 769.3,272.1 769.6,268.7 769.6,264.8 769.7,264.3 769.9,264.6 770.0,264.3 770.2,262.3 770.4,260.8 770.5,256.7 770.6,261.4 770.7,263.3 771.1,261.1 771.3,261.3 771.6,264.3 772.0,265.5 772.4,268.8 772.7,270.7 773.0,269.8 773.3,266.9 773.6,263.6 774.0,266.4 774.7,265.8 775.1,264.3 775.7,263.6 775.9,261.0 776.2,259.5 776.4,258.2 776.7,256.3 776.8,256.4 777.1,256.5 777.6,255.1 777.8,256.1 778.0,250.9 778.0,251.3 778.4,253.4 778.8,255.7 779.1,258.4 779.5,258.1 779.9,259.5 780.4,256.2 781.2,256.1 781.9,258.5 782.4,253.3 782.8,255.0 783.5,255.0 784.0,254.2 784.5,253.3 784.7,258.3 784.7,258.1 785.0,259.3 785.1,260.9 785.1,255.4 785.1,248.9 785.2,250.0 785.2,249.2 785.3,251.8 785.5,253.0 785.6,248.9 785.7,250.2 785.8,244.2 785.8,246.5 785.9,243.8 786.0,245.7 786.1,249.0 786.2,251.5 786.3,251.4 786.4,257.0 786.4,258.4 786.5,256.7 786.6,253.6 786.8,255.7 786.9,257.1 787.0,255.6 787.2,255.8 787.2,253.4 787.4,253.3 787.6,255.3 787.7,251.4 787.9,254.7 788.1,255.7 788.3,257.5 788.5,260.0 788.7,253.7 789.0,252.5 789.2,251.7 789.4,249.9 789.6,247.5 789.8,250.3 790.1,248.9 790.3,247.7 790.6,247.8 791.0,246.5 791.4,248.7 791.8,251.4 792.3,252.8 792.5,255.6 793.1,252.9 793.3,247.3 793.3,245.9 793.7,248.7 794.0,250.1 794.8,248.3 795.2,248.3 795.6,244.6 796.1,249.3 796.8,250.3 797.5,249.5 797.8,245.0 798.3,246.1 798.8,246.5 799.2,244.5 799.6,245.2 800.2,243.7 800.8,241.9 801.1,242.7 801.9,245.8 802.8,245.7 803.6,248.2 804.6,246.2 805.6,248.6 806.3,249.7 806.8,252.4 807.4,253.7 808.1,254.3 808.7,254.7 809.4,251.4 810.2,249.7 810.7,251.0 811.4,254.3 812.1,253.0 812.3,246.0 812.5,247.5 812.7,248.2 812.8,250.4 812.8,251.6 812.9,252.7 813.1,250.5 813.2,251.0 813.4,249.4 813.5,247.5 813.7,250.8 813.9,251.3 814.1,248.5 814.3,246.0 814.4,242.2 814.5,236.5 814.5,237.4 814.6,234.5 814.7,233.6 814.8,233.6 814.9,233.4 815.0,231.1 815.1,228.8 815.2,230.5 815.5,230.8 815.7,234.1 815.8,238.4 815.8,243.0 815.9,246.3 815.9,246.4 816.0,241.9 816.2,245.8 816.3,248.4 816.4,248.8 816.6,247.9 816.8,245.1 817.0,243.6 817.2,243.2 817.4,243.8 817.7,241.0 817.8,232.5 817.9,235.3 818.1,235.2 818.4,236.2 818.7,231.7 819.0,233.2 819.2,229.8 819.3,225.1 819.4,224.1 819.5,225.1 819.8,227.5 819.9,220.7 820.0,221.9 820.2,221.2 820.4,220.9 820.7,224.2 821.0,222.6 821.5,223.8 822.0,223.1 822.5,223.6 823.1,220.7 823.5,221.6 824.0,219.9 824.6,221.8 825.1,223.5 825.7,224.1 826.3,224.5 826.7,226.0 827.2,226.7 827.7,226.0 828.3,228.2 828.8,228.0 829.5,226.7 830.2,227.4 830.7,224.8 831.3,227.1 831.8,226.3 832.7,226.6 833.2,229.5 833.6,229.6 834.0,231.7 834.5,228.7 834.8,225.2 835.1,224.2 835.3,220.4 835.5,222.3 836.0,219.7 836.5,223.2 837.0,221.0 837.2,216.8 837.3,216.4 837.5,218.5 837.7,219.9 838.1,221.1 838.4,219.7 838.7,218.0 839.0,218.9 839.3,216.8 839.7,218.9 840.0,221.9 840.3,221.0 840.3,219.7 840.4,222.2 840.5,223.3 840.6,223.6 840.7,225.0 840.9,223.5 841.0,226.6 841.1,230.0 841.2,229.5 841.3,229.3 841.5,227.7 841.7,225.3 841.8,225.8 842.1,227.8 842.3,228.1 842.5,224.4 842.7,226.2 843.0,227.5 843.3,227.7 843.6,227.1 843.8,227.7 844.0,223.8 844.1,220.7 844.3,226.0 844.4,225.6 844.6,222.1 844.9,223.7 845.3,226.0 845.4,225.1 845.5,224.1 845.6,225.4 845.7,226.2 845.9,224.1 846.0,225.3 846.1,227.0 846.2,226.6 846.3,227.0 846.5,223.2 846.7,222.5 846.9,221.6 847.1,221.1 847.2,222.5 847.5,224.6 847.7,224.7 847.8,229.0 847.9,224.7 848.3,225.4 848.9,221.9 849.5,224.4 850.3,223.3 850.9,224.0 851.4,226.2 851.9,227.4 852.3,226.4 852.8,229.2 853.0,229.9 853.3,230.4 853.7,229.5 854.1,233.9 854.1,234.3 854.3,238.2 854.4,240.9 854.5,243.5 854.6,239.8 854.8,238.0 855.0,238.9 855.2,242.4 855.5,242.2 855.9,241.6 856.2,244.7 856.5,241.5 857.0,238.3 857.6,239.7 858.1,241.0 858.8,241.1 859.6,240.3 860.4,239.3 860.7,243.0 860.9,237.8 861.2,241.0 861.7,242.7 862.4,242.6 863.0,243.6 863.7,243.0 863.9,245.9 864.2,247.6 864.4,249.5 864.8,247.5 865.3,247.4 865.8,247.4 866.5,246.7 867.2,247.3 867.7,246.8 867.8,249.9 867.9,252.5 868.0,254.4 868.1,254.4 868.2,255.9 868.3,256.0 868.3,257.1 868.4,261.6 868.4,266.1 868.5,267.9 868.5,270.5 868.5,271.2 868.6,270.4 868.6,275.9 868.6,274.7 868.7,276.6 868.7,278.9 868.8,281.5 868.8,278.4 868.8,273.8 868.9,275.6 868.9,274.1 869.0,275.4 869.0,275.6 869.1,273.8 869.2,277.5 869.2,282.7 869.2,284.0 869.3,283.1 869.3,280.7 869.4,281.8 869.5,278.7 869.5,277.6 869.6,279.5 869.7,280.6 869.8,283.7 869.8,279.6 869.9,280.8 870.0,281.4 870.1,281.5 870.2,280.3 870.3,280.6 870.5,280.0 870.6,279.0 870.7,275.6 870.7,273.1 870.8,273.0 870.9,273.4 871.1,271.5 871.1,268.1 871.2,272.3 871.4,271.6 871.5,276.0 871.7,275.4 871.8,276.9 871.9,276.8 872.0,275.9 872.2,276.6 872.3,281.5 872.3,281.8 872.4,283.9 872.5,290.6 872.5,286.6 872.5,285.9 872.6,285.1 872.7,283.1 872.8,287.4 872.9,294.9 872.9,293.6 872.9,292.0 873.0,295.9 873.1,292.8 873.3,292.7 873.3,288.6 873.5,292.0 873.6,287.1 873.7,284.3 873.7,284.0 873.9,283.9 874.1,284.1 874.3,284.9 874.5,285.0 874.8,284.9 875.0,284.6 875.2,283.9 875.3,281.8 875.5,279.7 875.8,280.6 876.0,280.9 876.3,278.7 876.8,280.5 877.5,279.0 877.9,280.1 878.3,278.2 878.8,278.0 879.1,279.8 879.4,282.5 879.8,282.4 880.2,281.9 880.4,285.9 880.6,283.1 880.7,287.4 880.7,292.3 880.7,296.7 880.7,301.7 880.8,313.9 880.8,310.6 880.8,305.7 880.8,303.6 880.8,304.5 880.9,302.2 881.0,301.3 881.0,299.0 881.1,299.3 881.2,301.2 881.2,302.7 881.3,303.4 881.4,304.9 881.5,306.2 881.5,306.7 881.6,310.7 881.6,308.3 881.7,308.6 881.8,305.0 881.9,301.4 882.0,300.3 882.1,304.4 882.2,302.8 882.4,300.3 882.6,300.9 882.8,301.0 883.1,301.0 883.3,300.3 883.6,298.9 883.7,295.9 883.8,293.4 884.0,294.6 884.3,296.2 884.8,298.7 885.1,295.8 885.5,297.4 885.8,300.9 886.0,302.0 886.2,303.7 886.3,306.4 886.5,308.7 886.6,311.6 886.7,307.1 886.8,307.1 887.0,305.0 887.1,299.7 887.1,300.1 887.3,301.0 887.5,302.5 887.7,304.0 887.8,300.8 888.1,301.4 888.3,300.0 888.5,300.6 888.7,305.1 888.9,303.1 889.1,301.8 889.4,302.8 889.6,304.8 889.8,304.4 890.0,305.7 890.1,308.0 890.3,305.6 890.5,307.4 890.8,305.0 891.1,305.4 891.4,302.7 891.8,301.5 892.2,300.2 892.4,296.8 892.5,295.6 892.6,294.0 892.9,297.8 893.1,301.2 893.3,299.7 893.6,301.9 893.8,303.6 894.1,302.1 894.3,305.8 894.4,301.9 894.5,302.1 894.6,302.8 894.8,304.1 895.0,302.3 895.2,301.9 895.5,301.8 895.5,303.4 895.5,300.4 895.6,300.1 895.7,299.8 895.7,295.4 895.8,298.8 895.8,298.1 895.9,301.2 896.0,302.4 896.1,302.2 896.1,300.9 896.2,299.2 896.3,298.0 896.3,301.0 896.4,305.1 896.5,304.7 896.5,308.1 896.6,310.0 896.6,313.4 896.7,308.0 896.7,301.6 896.8,302.4 896.8,300.7 896.9,301.6 897.0,304.1 897.1,303.0 897.2,304.5 897.3,306.7 897.4,303.2 897.5,302.1 897.6,303.9 897.6,308.4 897.7,307.1 897.8,303.7 897.9,304.7 897.9,301.2 898.0,301.8 898.1,304.9 898.3,304.4 898.4,307.3 898.5,309.9 898.6,308.1 898.7,307.5 898.8,302.1 898.8,301.3 899.0,305.9 899.1,304.5 899.2,305.9 899.4,307.8 899.5,306.8 899.7,310.3 899.7,313.3 899.8,318.3 899.8,321.9 899.9,323.4 899.9,325.9 899.9,327.9 900.0,322.5 900.0,319.1 900.1,320.7 900.2,321.5 900.2,321.0 900.3,315.9 900.3,309.5 900.4,309.7 900.4,305.2 900.5,304.4 900.5,303.2 900.6,302.5 900.7,301.7 900.7,298.3 900.8,300.1 900.9,301.9 901.0,298.1 901.1,296.8 901.2,298.5 901.3,297.4 901.4,300.3 901.5,300.9 901.6,299.8 901.8,300.1 901.9,302.5 901.9,306.6 902.0,308.1 902.2,307.2 902.2,315.3 902.3,310.6 902.3,316.3 902.3,316.1 902.4,314.5 902.5,315.9 902.5,322.1 902.6,317.3 902.7,315.7 902.8,316.5 902.9,317.0 903.1,314.0 903.3,310.3 903.4,309.8 903.6,312.3 903.8,312.8 904.1,310.5 904.3,312.8 904.7,313.0 905.4,309.8 905.9,313.0 906.6,310.2 907.2,308.6 907.8,309.0 908.3,311.8 908.8,314.1 909.2,316.7 909.5,310.6 910.2,311.8 910.8,313.5 911.4,311.8 912.1,314.0 912.6,312.3 913.3,312.5 913.8,315.6 914.3,314.5 915.1,315.8 915.2,320.0 915.6,317.4 915.9,320.0 916.0,321.4 916.2,323.5 916.3,328.1 916.3,328.1 916.4,338.1 916.4,332.4 916.4,333.1 916.5,332.0 916.6,328.0 916.8,327.5 917.0,326.9 917.2,330.2 917.4,324.6 917.6,326.6 918.0,327.7 918.3,327.6 918.7,325.1 919.2,327.4 919.8,327.7 920.1,329.2 920.5,332.1 920.7,329.2 920.9,330.1 921.2,330.9 921.4,331.6 921.7,330.4 922.0,333.0 922.0,333.2 922.2,333.1 922.4,332.5 922.6,331.5 922.7,336.4 922.8,340.3 922.8,339.1 922.9,340.2 922.9,344.1 923.0,344.8 923.0,346.9 923.0,360.4 923.0,357.0 923.0,358.9 923.1,358.2 923.1,359.8 923.1,363.1 923.1,360.5 923.2,358.1 923.2,360.4 923.3,359.8 923.3,362.6 923.4,364.4 923.4,361.3 923.5,361.5 923.6,357.2 923.7,359.5 923.7,356.4 923.8,355.7 923.9,357.4 924.0,356.3 924.1,356.8 924.2,355.6 924.4,357.5 924.6,356.8 924.8,359.2 924.9,359.4 925.0,362.9 925.1,361.4 925.1,366.3 925.1,357.6 925.2,358.5 925.2,355.4 925.3,360.5 925.4,359.4 925.5,361.8 925.7,362.2 925.7,372.2 925.7,367.6 925.8,367.3 925.8,370.7 925.9,371.4 925.9,373.4 926.0,371.9 926.1,376.1 926.1,374.8 926.1,377.8 926.1,382.7 926.2,385.5 926.2,390.6 926.2,393.7 926.2,387.5 926.2,392.0 926.3,389.9 926.3,389.9 926.4,391.7 926.4,390.9 926.5,391.9 926.6,392.4 926.6,397.9 926.6,397.7 926.7,392.1 926.7,396.6 926.8,394.5 926.8,394.9 926.9,396.6 927.0,393.9 927.1,394.3 927.2,395.8 927.2,395.4 927.3,394.4 927.4,396.6 927.5,399.6 927.5,400.9 927.6,397.4 927.7,395.6 927.8,398.9 927.8,403.3 927.8,408.8 927.9,409.0 927.9,413.9 927.9,414.3 927.9,415.3 927.9,428.9 928.0,422.1 928.0,410.5 928.0,404.2 928.0,404.7 928.0,407.4 928.0,405.3 928.0,406.5 928.1,408.0 928.1,400.3 928.2,402.4 928.2,401.9 928.3,399.4 928.3,403.2 928.4,398.0 928.4,398.0 928.4,391.2 928.5,393.4 928.5,392.3 928.6,388.3 928.6,390.9 928.7,394.6 928.8,393.2 928.9,400.0 928.9,399.5 929.0,403.4 929.1,398.3 929.2,397.7 929.2,397.6 929.4,399.4 929.5,403.6 929.6,402.5 929.7,405.2 929.8,399.3 929.9,402.4 930.0,405.0 930.1,405.9 930.1,408.6 930.2,404.7 930.3,402.4 930.4,405.5 930.5,400.9 930.6,401.9 930.7,400.3 930.9,398.6 930.9,399.1 931.0,397.8 931.1,393.8 931.2,393.8 931.3,390.8 931.5,392.8 931.6,391.6 931.7,390.7 931.9,391.2 932.1,393.2 932.3,391.6 932.7,392.6 933.0,388.1 933.2,386.1 933.3,382.1 933.3,376.1 933.4,382.1 933.6,381.8 933.8,384.7 934.0,381.7" fill="none" stroke="#d97706" stroke-width="1.2" stroke-linejoin="round" opacity="0.6"/><text x="942" y="472.0" text-anchor="start" font-size="11" fill="#d97706">2141</text><text x="942" y="396.0" text-anchor="start" font-size="11" fill="#d97706">2412</text><text x="942" y="320.0" text-anchor="start" font-size="11" fill="#d97706">2683</text><text x="942" y="244.0" text-anchor="start" font-size="11" fill="#d97706">2954</text><text x="942" y="168.0" text-anchor="start" font-size="11" fill="#d97706">3225</text><text x="942" y="92.0" text-anchor="start" font-size="11" fill="#d97706">3496</text><text x="942" y="80.0" text-anchor="start" font-size="11" font-weight="600" fill="#d97706">price</text>
  <polygon points="109.3,468.0 109.3,456.6 109.3,455.9 116.9,455.2 122.6,455.6 124.3,454.5 124.7,454.9 125.0,455.5 125.2,456.4 126.1,457.8 131.0,459.8 138.6,462.8 141.5,463.0 154.4,463.2 161.9,462.5 164.2,462.7 168.2,462.9 169.4,463.3 188.5,463.8 190.3,462.3 193.7,461.9 201.6,462.1 203.8,462.4 206.3,462.8 208.5,463.4 208.8,464.3 209.1,461.7 212.0,461.9 216.1,462.1 223.8,462.6 224.6,463.2 232.3,464.1 232.6,461.4 235.0,461.0 236.7,460.6 239.8,460.2 240.9,459.8 241.8,460.0 243.2,460.4 244.6,460.9 254.5,459.3 254.9,459.6 256.7,460.0 258.9,460.5 259.1,461.4 259.8,462.7 261.3,459.0 270.6,459.2 271.6,459.6 273.0,460.2 274.3,461.1 278.7,458.5 287.9,458.0 288.9,458.3 291.8,457.4 294.5,456.8 300.6,456.2 300.7,456.5 309.1,455.5 316.7,454.8 320.1,455.2 368.5,455.8 384.9,454.1 390.8,454.5 398.2,453.3 398.3,453.7 398.5,454.4 399.8,452.5 402.0,451.6 402.6,452.1 406.9,452.8 410.5,453.9 424.9,450.8 425.5,451.3 425.9,452.0 427.8,449.8 428.3,450.4 430.5,451.2 434.8,448.8 434.8,449.4 434.9,447.8 434.9,446.6 434.9,447.2 434.9,448.2 435.0,445.4 439.5,444.1 449.2,442.8 450.8,443.5 452.3,444.7 454.1,441.4 455.8,442.2 457.2,443.4 459.4,445.1 462.9,447.8 468.6,440.1 468.8,440.9 469.7,442.2 475.6,438.6 481.6,439.5 481.6,440.8 482.6,442.7 486.1,437.1 492.9,435.3 493.6,436.3 510.4,433.5 531.0,431.5 568.7,429.4 574.0,430.6 575.0,427.3 575.1,424.9 575.3,426.2 589.5,428.1 591.3,431.0 608.4,422.7 610.2,420.1 612.1,421.5 619.1,417.4 619.7,418.9 622.9,414.6 628.6,411.6 631.7,413.2 641.7,415.7 643.3,419.5 644.0,425.1 644.4,408.8 645.1,410.6 646.6,405.5 647.9,401.9 648.1,403.9 649.3,398.2 649.4,400.3 649.5,394.3 650.1,396.5 650.1,399.8 651.9,390.3 652.7,385.9 652.8,381.2 653.0,376.3 653.4,379.0 657.5,371.1 659.4,365.6 662.0,368.6 673.6,359.9 675.6,353.7 676.0,357.1 676.6,362.1 676.7,369.7 691.0,347.7 692.9,340.9 702.3,333.6 702.6,337.6 703.1,343.6 703.1,352.5 703.7,326.6 704.4,330.8 704.6,337.1 705.6,318.9 706.2,323.3 706.8,330.0 707.4,339.9 709.1,311.2 750.7,315.8 752.7,322.8 759.2,333.2 759.5,303.0 762.0,293.6 763.1,298.7 768.6,306.5 769.9,284.1 772.2,289.5 775.7,297.6 778.0,274.1 785.0,263.8 785.1,269.1 785.8,253.6 786.4,243.3 787.8,248.7 788.2,256.7 789.1,268.7 792.6,286.8 793.3,313.9 814.5,235.5 814.5,240.9 815.8,248.9 817.7,260.9 819.9,226.1 827.3,231.5 835.1,239.7 841.0,251.9 844.1,270.2 844.3,297.7 844.6,338.9 854.1,331.5 856.2,323.7 867.8,328.0 868.4,315.6 868.5,320.1 868.7,307.1 868.8,311.8 869.2,319.0 870.7,329.7 872.2,345.7 872.5,299.3 872.6,304.3 872.9,311.7 873.6,323.0 880.7,339.8 880.7,291.1 880.7,281.0 880.8,286.3 883.6,270.8 886.4,260.5 886.6,266.0 886.6,274.1 892.4,250.5 893.8,256.0 895.7,264.1 895.9,276.3 896.6,241.0 896.7,230.5 897.6,235.9 897.7,244.1 898.4,256.3 898.8,274.6 899.0,302.1 899.8,222.6 899.9,212.2 900.0,217.6 900.3,202.1 900.4,191.6 900.7,197.0 901.9,205.0 902.2,181.8 902.3,187.2 902.5,195.3 902.5,207.6 903.1,225.9 915.2,253.3 916.3,173.8 916.4,179.3 916.6,187.4 922.0,199.6 922.9,164.3 923.0,169.7 923.0,154.0 923.0,159.3 923.0,167.4 923.0,179.4 923.0,197.5 923.8,224.6 924.8,265.2 925.2,270.5 925.3,278.6 925.7,255.3 925.9,260.8 926.0,268.9 926.1,281.1 926.2,245.8 926.2,251.2 926.2,235.5 926.2,240.9 926.2,249.1 926.2,225.5 926.6,215.2 926.6,220.5 927.4,228.6 927.7,240.6 927.8,258.7 927.8,206.4 927.9,196.1 927.9,201.5 927.9,185.8 927.9,175.5 927.9,165.0 927.9,154.5 928.0,159.9 928.0,144.4 928.0,149.8 928.0,158.0 928.1,134.4 928.4,139.8 928.9,147.8 929.8,159.8 929.9,177.9 931.1,205.0 933.2,126.6 933.3,116.1 933.4,121.6 933.4,468.0" fill="#16a34a" fill-opacity="0.08"/>
  <polyline points="109.3,456.6 109.3,455.9 116.9,455.2 122.6,455.6 124.3,454.5 124.7,454.9 125.0,455.5 125.2,456.4 126.1,457.8 131.0,459.8 138.6,462.8 141.5,463.0 154.4,463.2 161.9,462.5 164.2,462.7 168.2,462.9 169.4,463.3 188.5,463.8 190.3,462.3 193.7,461.9 201.6,462.1 203.8,462.4 206.3,462.8 208.5,463.4 208.8,464.3 209.1,461.7 212.0,461.9 216.1,462.1 223.8,462.6 224.6,463.2 232.3,464.1 232.6,461.4 235.0,461.0 236.7,460.6 239.8,460.2 240.9,459.8 241.8,460.0 243.2,460.4 244.6,460.9 254.5,459.3 254.9,459.6 256.7,460.0 258.9,460.5 259.1,461.4 259.8,462.7 261.3,459.0 270.6,459.2 271.6,459.6 273.0,460.2 274.3,461.1 278.7,458.5 287.9,458.0 288.9,458.3 291.8,457.4 294.5,456.8 300.6,456.2 300.7,456.5 309.1,455.5 316.7,454.8 320.1,455.2 368.5,455.8 384.9,454.1 390.8,454.5 398.2,453.3 398.3,453.7 398.5,454.4 399.8,452.5 402.0,451.6 402.6,452.1 406.9,452.8 410.5,453.9 424.9,450.8 425.5,451.3 425.9,452.0 427.8,449.8 428.3,450.4 430.5,451.2 434.8,448.8 434.8,449.4 434.9,447.8 434.9,446.6 434.9,447.2 434.9,448.2 435.0,445.4 439.5,444.1 449.2,442.8 450.8,443.5 452.3,444.7 454.1,441.4 455.8,442.2 457.2,443.4 459.4,445.1 462.9,447.8 468.6,440.1 468.8,440.9 469.7,442.2 475.6,438.6 481.6,439.5 481.6,440.8 482.6,442.7 486.1,437.1 492.9,435.3 493.6,436.3 510.4,433.5 531.0,431.5 568.7,429.4 574.0,430.6 575.0,427.3 575.1,424.9 575.3,426.2 589.5,428.1 591.3,431.0 608.4,422.7 610.2,420.1 612.1,421.5 619.1,417.4 619.7,418.9 622.9,414.6 628.6,411.6 631.7,413.2 641.7,415.7 643.3,419.5 644.0,425.1 644.4,408.8 645.1,410.6 646.6,405.5 647.9,401.9 648.1,403.9 649.3,398.2 649.4,400.3 649.5,394.3 650.1,396.5 650.1,399.8 651.9,390.3 652.7,385.9 652.8,381.2 653.0,376.3 653.4,379.0 657.5,371.1 659.4,365.6 662.0,368.6 673.6,359.9 675.6,353.7 676.0,357.1 676.6,362.1 676.7,369.7 691.0,347.7 692.9,340.9 702.3,333.6 702.6,337.6 703.1,343.6 703.1,352.5 703.7,326.6 704.4,330.8 704.6,337.1 705.6,318.9 706.2,323.3 706.8,330.0 707.4,339.9 709.1,311.2 750.7,315.8 752.7,322.8 759.2,333.2 759.5,303.0 762.0,293.6 763.1,298.7 768.6,306.5 769.9,284.1 772.2,289.5 775.7,297.6 778.0,274.1 785.0,263.8 785.1,269.1 785.8,253.6 786.4,243.3 787.8,248.7 788.2,256.7 789.1,268.7 792.6,286.8 793.3,313.9 814.5,235.5 814.5,240.9 815.8,248.9 817.7,260.9 819.9,226.1 827.3,231.5 835.1,239.7 841.0,251.9 844.1,270.2 844.3,297.7 844.6,338.9 854.1,331.5 856.2,323.7 867.8,328.0 868.4,315.6 868.5,320.1 868.7,307.1 868.8,311.8 869.2,319.0 870.7,329.7 872.2,345.7 872.5,299.3 872.6,304.3 872.9,311.7 873.6,323.0 880.7,339.8 880.7,291.1 880.7,281.0 880.8,286.3 883.6,270.8 886.4,260.5 886.6,266.0 886.6,274.1 892.4,250.5 893.8,256.0 895.7,264.1 895.9,276.3 896.6,241.0 896.7,230.5 897.6,235.9 897.7,244.1 898.4,256.3 898.8,274.6 899.0,302.1 899.8,222.6 899.9,212.2 900.0,217.6 900.3,202.1 900.4,191.6 900.7,197.0 901.9,205.0 902.2,181.8 902.3,187.2 902.5,195.3 902.5,207.6 903.1,225.9 915.2,253.3 916.3,173.8 916.4,179.3 916.6,187.4 922.0,199.6 922.9,164.3 923.0,169.7 923.0,154.0 923.0,159.3 923.0,167.4 923.0,179.4 923.0,197.5 923.8,224.6 924.8,265.2 925.2,270.5 925.3,278.6 925.7,255.3 925.9,260.8 926.0,268.9 926.1,281.1 926.2,245.8 926.2,251.2 926.2,235.5 926.2,240.9 926.2,249.1 926.2,225.5 926.6,215.2 926.6,220.5 927.4,228.6 927.7,240.6 927.8,258.7 927.8,206.4 927.9,196.1 927.9,201.5 927.9,185.8 927.9,175.5 927.9,165.0 927.9,154.5 928.0,159.9 928.0,144.4 928.0,149.8 928.0,158.0 928.1,134.4 928.4,139.8 928.9,147.8 929.8,159.8 929.9,177.9 931.1,205.0 933.2,126.6 933.3,116.1 933.4,121.6" fill="none" stroke="#16a34a" stroke-width="2" stroke-linejoin="round"/>
  <line x1="88" y1="102" x2="110" y2="102" stroke="#16a34a" stroke-width="2.5"/><text x="116" y="106" font-size="11.5" fill="#374151">equity</text><line x1="88" y1="118" x2="110" y2="118" stroke="#d97706" stroke-width="2.5" opacity="0.8"/><text x="116" y="122" font-size="11.5" fill="#374151">price</text>
  <text x="78" y="502" text-anchor="start" font-size="12" fill="#6b7280">2026-01-01</text><text x="934" y="502" text-anchor="end" font-size="12" fill="#6b7280">2026-01-31</text>
</svg>
