<svg xmlns="http://www.w3.org/2000/svg" width="940" height="988" font-family="ui-sans-serif, system-ui, sans-serif" viewBox="0 0 940 988"><rect width="940" height="988" fill="#fff"/><text x="132" y="32" fill="#111827" font-size="16.5" font-weight="700">Januar 2026 — alle 37 USDC-Maerkte: Rendite aus 10.000 USDC (VIP 9)</text><text x="132" y="52" fill="#6b7280" font-size="12.5">37 von 37 profitabel · Durchschnitt +847% · ganzer Monat · gleicher, zufaelliger Handel</text><line x1="132" x2="132" y1="72" y2="960" stroke="#334155" stroke-width="1.2"/><text x="124" y="88" fill="#374151" font-size="12" text-anchor="end">ETH</text><rect width="635.7" height="14.4" x="132" y="76.8" fill="#16a34a" rx="2"/><text x="773.7" y="88" fill="#334155" font-size="11.5" font-weight="700" text-anchor="start">+2&apos;935%</text><text x="124" y="112" fill="#374151" font-size="12" text-anchor="end">SOL</text><rect width="616.4" height="14.4" x="132" y="100.8" fill="#16a34a" rx="2"/><text x="754.4" y="112" fill="#334155" font-size="11.5" font-weight="700" text-anchor="start">+2&apos;846%</text><text x="124" y="136" fill="#374151" font-size="12" text-anchor="end">NEAR</text><rect width="511.8" height="14.4" x="132" y="124.8" fill="#16a34a" rx="2"/><text x="649.8" y="136" fill="#334155" font-size="11.5" font-weight="700" text-anchor="start">+2&apos;363%</text><text x="124" y="160" fill="#374151" font-size="12" text-anchor="end">DOGE</text><rect width="508.1" height="14.4" x="132" y="148.8" fill="#16a34a" rx="2"/><text x="646.1" y="160" fill="#334155" font-size="11.5" font-weight="700" text-anchor="start">+2&apos;346%</text><text x="124" y="184" fill="#374151" font-size="12" text-anchor="end">TIA</text><rect width="466.8" height="14.4" x="132" y="172.8" fill="#16a34a" rx="2"/><text x="604.8" y="184" fill="#334155" font-size="11.5" font-weight="700" text-anchor="start">+2&apos;155%</text><text x="124" y="208" fill="#374151" font-size="12" text-anchor="end">XRP</text><rect width="416.1" height="14.4" x="132" y="196.8" fill="#16a34a" rx="2"/><text x="554.1" y="208" fill="#334155" font-size="11.5" font-weight="700" text-anchor="start">+1&apos;921%</text><text x="124" y="232" fill="#374151" font-size="12" text-anchor="end">FIL</text><rect width="296.1" height="14.4" x="132" y="220.8" fill="#16a34a" rx="2"/><text x="434.1" y="232" fill="#334155" font-size="11.5" font-weight="700" text-anchor="start">+1&apos;367%</text><text x="124" y="256" fill="#374151" font-size="12" text-anchor="end">BNB</text><rect width="266" height="14.4" x="132" y="244.8" fill="#16a34a" rx="2"/><text x="404" y="256" fill="#334155" font-size="11.5" font-weight="700" text-anchor="start">+1&apos;228%</text><text x="124" y="280" fill="#374151" font-size="12" text-anchor="end">UNI</text><rect width="242.4" height="14.4" x="132" y="268.8" fill="#16a34a" rx="2"/><text x="380.4" y="280" fill="#334155" font-size="11.5" font-weight="700" text-anchor="start">+1&apos;119%</text><text x="124" y="304" fill="#374151" font-size="12" text-anchor="end">ENA</text><rect width="219.4" height="14.4" x="132" y="292.8" fill="#16a34a" rx="2"/><text x="357.4" y="304" fill="#334155" font-size="11.5" font-weight="700" text-anchor="start">+1&apos;013%</text><text x="124" y="328" fill="#374151" font-size="12" text-anchor="end">AAVE</text><rect width="215.3" height="14.4" x="132" y="316.8" fill="#16a34a" rx="2"/><text x="353.3" y="328" fill="#334155" font-size="11.5" font-weight="700" text-anchor="start">+994%</text><text x="124" y="352" fill="#374151" font-size="12" text-anchor="end">SUI</text><rect width="204.3" height="14.4" x="132" y="340.8" fill="#16a34a" rx="2"/><text x="342.3" y="352" fill="#334155" font-size="11.5" font-weight="700" text-anchor="start">+943%</text><text x="124" y="376" fill="#374151" font-size="12" text-anchor="end">WLD</text><rect width="202.7" height="14.4" x="132" y="364.8" fill="#16a34a" rx="2"/><text x="340.7" y="376" fill="#334155" font-size="11.5" font-weight="700" text-anchor="start">+936%</text><text x="124" y="400" fill="#374151" font-size="12" text-anchor="end">1000SHIB</text><rect width="202.5" height="14.4" x="132" y="388.8" fill="#16a34a" rx="2"/><text x="340.5" y="400" fill="#334155" font-size="11.5" font-weight="700" text-anchor="start">+935%</text><text x="124" y="424" fill="#374151" font-size="12" text-anchor="end">1000BONK</text><rect width="191.7" height="14.4" x="132" y="412.8" fill="#16a34a" rx="2"/><text x="329.7" y="424" fill="#334155" font-size="11.5" font-weight="700" text-anchor="start">+885%</text><text x="124" y="448" fill="#374151" font-size="12" text-anchor="end">WIF</text><rect width="188.2" height="14.4" x="132" y="436.8" fill="#16a34a" rx="2"/><text x="326.2" y="448" fill="#334155" font-size="11.5" font-weight="700" text-anchor="start">+869%</text><text x="124" y="472" fill="#374151" font-size="12" text-anchor="end">BOME</text><rect width="139.5" height="14.4" x="132" y="460.8" fill="#16a34a" rx="2"/><text x="277.5" y="472" fill="#334155" font-size="11.5" font-weight="700" text-anchor="start">+644%</text><text x="124" y="496" fill="#374151" font-size="12" text-anchor="end">PENGU</text><rect width="131.5" height="14.4" x="132" y="484.8" fill="#16a34a" rx="2"/><text x="269.5" y="496" fill="#334155" font-size="11.5" font-weight="700" text-anchor="start">+607%</text><text x="124" y="520" fill="#374151" font-size="12" text-anchor="end">1000PEPE</text><rect width="123.9" height="14.4" x="132" y="508.8" fill="#16a34a" rx="2"/><text x="261.9" y="520" fill="#334155" font-size="11.5" font-weight="700" text-anchor="start">+572%</text><text x="124" y="544" fill="#374151" font-size="12" text-anchor="end">CRV</text><rect width="110.7" height="14.4" x="132" y="532.8" fill="#16a34a" rx="2"/><text x="248.7" y="544" fill="#334155" font-size="11.5" font-weight="700" text-anchor="start">+511%</text><text x="124" y="568" fill="#374151" font-size="12" text-anchor="end">ZEC</text><rect width="92.1" height="14.4" x="132" y="556.8" fill="#16a34a" rx="2"/><text x="230.1" y="568" fill="#334155" font-size="11.5" font-weight="700" text-anchor="start">+425%</text><text x="124" y="592" fill="#374151" font-size="12" text-anchor="end">PNUT</text><rect width="82.7" height="14.4" x="132" y="580.8" fill="#16a34a" rx="2"/><text x="220.7" y="592" fill="#334155" font-size="11.5" font-weight="700" text-anchor="start">+382%</text><text x="124" y="616" fill="#374151" font-size="12" text-anchor="end">KAITO</text><rect width="72.6" height="14.4" x="132" y="604.8" fill="#16a34a" rx="2"/><text x="210.6" y="616" fill="#334155" font-size="11.5" font-weight="700" text-anchor="start">+335%</text><text x="124" y="640" fill="#374151" font-size="12" text-anchor="end">ORDI</text><rect width="71" height="14.4" x="132" y="628.8" fill="#16a34a" rx="2"/><text x="209" y="640" fill="#334155" font-size="11.5" font-weight="700" text-anchor="start">+328%</text><text x="124" y="664" fill="#374151" font-size="12" text-anchor="end">BIO</text><rect width="70.4" height="14.4" x="132" y="652.8" fill="#16a34a" rx="2"/><text x="208.4" y="664" fill="#334155" font-size="11.5" font-weight="700" text-anchor="start">+325%</text><text x="124" y="688" fill="#374151" font-size="12" text-anchor="end">LINK</text><rect width="65.2" height="14.4" x="132" y="676.8" fill="#16a34a" rx="2"/><text x="203.2" y="688" fill="#334155" font-size="11.5" font-weight="700" text-anchor="start">+301%</text><text x="124" y="712" fill="#374151" font-size="12" text-anchor="end">AVAX</text><rect width="63.5" height="14.4" x="132" y="700.8" fill="#16a34a" rx="2"/><text x="201.5" y="712" fill="#334155" font-size="11.5" font-weight="700" text-anchor="start">+293%</text><text x="124" y="736" fill="#374151" font-size="12" text-anchor="end">ADA</text><rect width="52.8" height="14.4" x="132" y="724.8" fill="#16a34a" rx="2"/><text x="190.8" y="736" fill="#334155" font-size="11.5" font-weight="700" text-anchor="start">+244%</text><text x="124" y="760" fill="#374151" font-size="12" text-anchor="end">LTC</text><rect width="52.4" height="14.4" x="132" y="748.8" fill="#16a34a" rx="2"/><text x="190.4" y="760" fill="#334155" font-size="11.5" font-weight="700" text-anchor="start">+242%</text><text x="124" y="784" fill="#374151" font-size="12" text-anchor="end">ARB</text><rect width="47.2" height="14.4" x="132" y="772.8" fill="#16a34a" rx="2"/><text x="185.2" y="784" fill="#334155" font-size="11.5" font-weight="700" text-anchor="start">+218%</text><text x="124" y="808" fill="#374151" font-size="12" text-anchor="end">HBAR</text><rect width="44.4" height="14.4" x="132" y="796.8" fill="#16a34a" rx="2"/><text x="182.4" y="808" fill="#334155" font-size="11.5" font-weight="700" text-anchor="start">+205%</text><text x="124" y="832" fill="#374151" font-size="12" text-anchor="end">BTC</text><rect width="42.7" height="14.4" x="132" y="820.8" fill="#16a34a" rx="2"/><text x="180.7" y="832" fill="#334155" font-size="11.5" font-weight="700" text-anchor="start">+197%</text><text x="124" y="856" fill="#374151" font-size="12" text-anchor="end">ETHFI</text><rect width="39.9" height="14.4" x="132" y="844.8" fill="#16a34a" rx="2"/><text x="177.9" y="856" fill="#334155" font-size="11.5" font-weight="700" text-anchor="start">+184%</text><text x="124" y="880" fill="#374151" font-size="12" text-anchor="end">NEO</text><rect width="36.4" height="14.4" x="132" y="868.8" fill="#16a34a" rx="2"/><text x="174.4" y="880" fill="#334155" font-size="11.5" font-weight="700" text-anchor="start">+168%</text><text x="124" y="904" fill="#374151" font-size="12" text-anchor="end">TRUMP</text><rect width="29.7" height="14.4" x="132" y="892.8" fill="#16a34a" rx="2"/><text x="167.7" y="904" fill="#334155" font-size="11.5" font-weight="700" text-anchor="start">+137%</text><text x="124" y="928" fill="#374151" font-size="12" text-anchor="end">WLFI</text><rect width="23.8" height="14.4" x="132" y="916.8" fill="#16a34a" rx="2"/><text x="161.8" y="928" fill="#334155" font-size="11.5" font-weight="700" text-anchor="start">+110%</text><text x="124" y="952" fill="#374151" font-size="12" text-anchor="end">BCH</text><rect width="11" height="14.4" x="132" y="940.8" fill="#16a34a" rx="2"/><text x="149" y="952" fill="#334155" font-size="11.5" font-weight="700" text-anchor="start">+51%</text></svg>