<svg xmlns="http://www.w3.org/2000/svg" width="940" height="964" font-family="ui-sans-serif, system-ui, sans-serif" viewBox="0 0 940 964"><rect width="940" height="964" fill="#fff"/><text x="132" y="32" fill="#111827" font-size="16.5" font-weight="700">10.10.2025 (Crash-Tag) — alle 36 USDC-Maerkte: Rendite aus 10.000 USDC an EINEM Tag (VIP 9)</text><text x="132" y="52" fill="#6b7280" font-size="12.5">36 von 36 profitabel · Durchschnitt +4.920% · ein einziger Handelstag</text><line x1="132" x2="132" y1="72" y2="936" stroke="#334155" stroke-width="1.2"/><text x="124" y="88" fill="#374151" font-size="12" text-anchor="end">FIL</text><rect width="635.7" height="14.4" x="132" y="76.8" fill="#16a34a" rx="2"/><text x="773.7" y="88" fill="#334155" font-size="11.5" font-weight="700" text-anchor="start">+33&apos;952%</text><text x="124" y="112" fill="#374151" font-size="12" text-anchor="end">AAVE</text><rect width="568" height="14.4" x="132" y="100.8" fill="#16a34a" rx="2"/><text x="706" y="112" fill="#334155" font-size="11.5" font-weight="700" text-anchor="start">+30&apos;336%</text><text x="124" y="136" fill="#374151" font-size="12" text-anchor="end">ENA</text><rect width="408" height="14.4" x="132" y="124.8" fill="#16a34a" rx="2"/><text x="546" y="136" fill="#334155" font-size="11.5" font-weight="700" text-anchor="start">+21&apos;789%</text><text x="124" y="160" fill="#374151" font-size="12" text-anchor="end">AVAX</text><rect width="266.8" height="14.4" x="132" y="148.8" fill="#16a34a" rx="2"/><text x="404.8" y="160" fill="#334155" font-size="11.5" font-weight="700" text-anchor="start">+14&apos;248%</text><text x="124" y="184" fill="#374151" font-size="12" text-anchor="end">TIA</text><rect width="211.9" height="14.4" x="132" y="172.8" fill="#16a34a" rx="2"/><text x="349.9" y="184" fill="#334155" font-size="11.5" font-weight="700" text-anchor="start">+11&apos;316%</text><text x="124" y="208" fill="#374151" font-size="12" text-anchor="end">UNI</text><rect width="182.3" height="14.4" x="132" y="196.8" fill="#16a34a" rx="2"/><text x="320.3" y="208" fill="#334155" font-size="11.5" font-weight="700" text-anchor="start">+9&apos;737%</text><text x="124" y="232" fill="#374151" font-size="12" text-anchor="end">SUI</text><rect width="138.6" height="14.4" x="132" y="220.8" fill="#16a34a" rx="2"/><text x="276.6" y="232" fill="#334155" font-size="11.5" font-weight="700" text-anchor="start">+7&apos;401%</text><text x="124" y="256" fill="#374151" font-size="12" text-anchor="end">ETHFI</text><rect width="93.4" height="14.4" x="132" y="244.8" fill="#16a34a" rx="2"/><text x="231.4" y="256" fill="#334155" font-size="11.5" font-weight="700" text-anchor="start">+4&apos;988%</text><text x="124" y="280" fill="#374151" font-size="12" text-anchor="end">WIF</text><rect width="91.6" height="14.4" x="132" y="268.8" fill="#16a34a" rx="2"/><text x="229.6" y="280" fill="#334155" font-size="11.5" font-weight="700" text-anchor="start">+4&apos;890%</text><text x="124" y="304" fill="#374151" font-size="12" text-anchor="end">ORDI</text><rect width="88.4" height="14.4" x="132" y="292.8" fill="#16a34a" rx="2"/><text x="226.4" y="304" fill="#334155" font-size="11.5" font-weight="700" text-anchor="start">+4&apos;720%</text><text x="124" y="328" fill="#374151" font-size="12" text-anchor="end">ARB</text><rect width="84.5" height="14.4" x="132" y="316.8" fill="#16a34a" rx="2"/><text x="222.5" y="328" fill="#334155" font-size="11.5" font-weight="700" text-anchor="start">+4&apos;515%</text><text x="124" y="352" fill="#374151" font-size="12" text-anchor="end">BIO</text><rect width="72.8" height="14.4" x="132" y="340.8" fill="#16a34a" rx="2"/><text x="210.8" y="352" fill="#334155" font-size="11.5" font-weight="700" text-anchor="start">+3&apos;889%</text><text x="124" y="376" fill="#374151" font-size="12" text-anchor="end">TRUMP</text><rect width="68.9" height="14.4" x="132" y="364.8" fill="#16a34a" rx="2"/><text x="206.9" y="376" fill="#334155" font-size="11.5" font-weight="700" text-anchor="start">+3&apos;680%</text><text x="124" y="400" fill="#374151" font-size="12" text-anchor="end">DOGE</text><rect width="58.3" height="14.4" x="132" y="388.8" fill="#16a34a" rx="2"/><text x="196.3" y="400" fill="#334155" font-size="11.5" font-weight="700" text-anchor="start">+3&apos;112%</text><text x="124" y="424" fill="#374151" font-size="12" text-anchor="end">XRP</text><rect width="44.5" height="14.4" x="132" y="412.8" fill="#16a34a" rx="2"/><text x="182.5" y="424" fill="#334155" font-size="11.5" font-weight="700" text-anchor="start">+2&apos;374%</text><text x="124" y="448" fill="#374151" font-size="12" text-anchor="end">CRV</text><rect width="38.7" height="14.4" x="132" y="436.8" fill="#16a34a" rx="2"/><text x="176.7" y="448" fill="#334155" font-size="11.5" font-weight="700" text-anchor="start">+2&apos;067%</text><text x="124" y="472" fill="#374151" font-size="12" text-anchor="end">1000SHIB</text><rect width="35.1" height="14.4" x="132" y="460.8" fill="#16a34a" rx="2"/><text x="173.1" y="472" fill="#334155" font-size="11.5" font-weight="700" text-anchor="start">+1&apos;877%</text><text x="124" y="496" fill="#374151" font-size="12" text-anchor="end">LINK</text><rect width="30.9" height="14.4" x="132" y="484.8" fill="#16a34a" rx="2"/><text x="168.9" y="496" fill="#334155" font-size="11.5" font-weight="700" text-anchor="start">+1&apos;651%</text><text x="124" y="520" fill="#374151" font-size="12" text-anchor="end">PENGU</text><rect width="28.1" height="14.4" x="132" y="508.8" fill="#16a34a" rx="2"/><text x="166.1" y="520" fill="#334155" font-size="11.5" font-weight="700" text-anchor="start">+1&apos;500%</text><text x="124" y="544" fill="#374151" font-size="12" text-anchor="end">1000BONK</text><rect width="24.2" height="14.4" x="132" y="532.8" fill="#16a34a" rx="2"/><text x="162.2" y="544" fill="#334155" font-size="11.5" font-weight="700" text-anchor="start">+1&apos;292%</text><text x="124" y="568" fill="#374151" font-size="12" text-anchor="end">1000PEPE</text><rect width="21.4" height="14.4" x="132" y="556.8" fill="#16a34a" rx="2"/><text x="159.4" y="568" fill="#334155" font-size="11.5" font-weight="700" text-anchor="start">+1&apos;144%</text><text x="124" y="592" fill="#374151" font-size="12" text-anchor="end">BOME</text><rect width="20.3" height="14.4" x="132" y="580.8" fill="#16a34a" rx="2"/><text x="158.3" y="592" fill="#334155" font-size="11.5" font-weight="700" text-anchor="start">+1&apos;085%</text><text x="124" y="616" fill="#374151" font-size="12" text-anchor="end">NEAR</text><rect width="17.2" height="14.4" x="132" y="604.8" fill="#16a34a" rx="2"/><text x="155.2" y="616" fill="#334155" font-size="11.5" font-weight="700" text-anchor="start">+920%</text><text x="124" y="640" fill="#374151" font-size="12" text-anchor="end">WLFI</text><rect width="14.8" height="14.4" x="132" y="628.8" fill="#16a34a" rx="2"/><text x="152.8" y="640" fill="#334155" font-size="11.5" font-weight="700" text-anchor="start">+792%</text><text x="124" y="664" fill="#374151" font-size="12" text-anchor="end">WLD</text><rect width="14" height="14.4" x="132" y="652.8" fill="#16a34a" rx="2"/><text x="152" y="664" fill="#334155" font-size="11.5" font-weight="700" text-anchor="start">+747%</text><text x="124" y="688" fill="#374151" font-size="12" text-anchor="end">LTC</text><rect width="12" height="14.4" x="132" y="676.8" fill="#16a34a" rx="2"/><text x="150" y="688" fill="#334155" font-size="11.5" font-weight="700" text-anchor="start">+640%</text><text x="124" y="712" fill="#374151" font-size="12" text-anchor="end">NEO</text><rect width="9.2" height="14.4" x="132" y="700.8" fill="#16a34a" rx="2"/><text x="147.2" y="712" fill="#334155" font-size="11.5" font-weight="700" text-anchor="start">+492%</text><text x="124" y="736" fill="#374151" font-size="12" text-anchor="end">PNUT</text><rect width="8" height="14.4" x="132" y="724.8" fill="#16a34a" rx="2"/><text x="146" y="736" fill="#334155" font-size="11.5" font-weight="700" text-anchor="start">+429%</text><text x="124" y="760" fill="#374151" font-size="12" text-anchor="end">KAITO</text><rect width="7" height="14.4" x="132" y="748.8" fill="#16a34a" rx="2"/><text x="145" y="760" fill="#334155" font-size="11.5" font-weight="700" text-anchor="start">+375%</text><text x="124" y="784" fill="#374151" font-size="12" text-anchor="end">ETH</text><rect width="5.4" height="14.4" x="132" y="772.8" fill="#16a34a" rx="2"/><text x="143.4" y="784" fill="#334155" font-size="11.5" font-weight="700" text-anchor="start">+290%</text><text x="124" y="808" fill="#374151" font-size="12" text-anchor="end">BNB</text><rect width="4.1" height="14.4" x="132" y="796.8" fill="#16a34a" rx="2"/><text x="142.1" y="808" fill="#334155" font-size="11.5" font-weight="700" text-anchor="start">+217%</text><text x="124" y="832" fill="#374151" font-size="12" text-anchor="end">BTC</text><rect width="3" height="14.4" x="132" y="820.8" fill="#16a34a" rx="2"/><text x="141" y="832" fill="#334155" font-size="11.5" font-weight="700" text-anchor="start">+160%</text><text x="124" y="856" fill="#374151" font-size="12" text-anchor="end">ADA</text><rect width="2.7" height="14.4" x="132" y="844.8" fill="#16a34a" rx="2"/><text x="140.7" y="856" fill="#334155" font-size="11.5" font-weight="700" text-anchor="start">+142%</text><text x="124" y="880" fill="#374151" font-size="12" text-anchor="end">HBAR</text><rect width="2.4" height="14.4" x="132" y="868.8" fill="#16a34a" rx="2"/><text x="140.4" y="880" fill="#334155" font-size="11.5" font-weight="700" text-anchor="start">+128%</text><text x="124" y="904" fill="#374151" font-size="12" text-anchor="end">SOL</text><rect width="2.4" height="14.4" x="132" y="892.8" fill="#16a34a" rx="2"/><text x="140.4" y="904" fill="#334155" font-size="11.5" font-weight="700" text-anchor="start">+128%</text><text x="124" y="928" fill="#374151" font-size="12" text-anchor="end">BCH</text><rect width="1.9" height="14.4" x="132" y="916.8" fill="#16a34a" rx="2"/><text x="139.9" y="928" fill="#334155" font-size="11.5" font-weight="700" text-anchor="start">+100%</text></svg>