<?xml version="1.0" encoding="UTF-8"?>
<svg xmlns="http://www.w3.org/2000/svg" width="940" height="964" viewBox="0 0 940 964" font-family="ui-sans-serif, system-ui, sans-serif">
  <rect width="940" height="964" fill="#ffffff"/>
  <text x="132" y="32" font-size="16.5" font-weight="700" fill="#111827">10.10.2025 (Crash-Tag) — alle 36 USDC-Maerkte: Rendite aus 10.000 USDC an EINEM Tag (VIP 9)</text>
  <text x="132" y="52" font-size="12.5" fill="#6b7280">36 von 36 profitabel · Durchschnitt +4.920% · ein einziger Handelstag</text>
  <line x1="132.0" y1="72" x2="132.0" y2="936.0" stroke="#334155" stroke-width="1.2"/>
  <text x="124.0" y="88.0" text-anchor="end" font-size="12" fill="#374151">FIL</text><rect x="132.0" y="76.8" width="635.7" height="14.4" fill="#16a34a" rx="2"/><text x="773.7" y="88.0" text-anchor="start" font-size="11.5" font-weight="700" fill="#334155">+33'952%</text><text x="124.0" y="112.0" text-anchor="end" font-size="12" fill="#374151">AAVE</text><rect x="132.0" y="100.8" width="568.0" height="14.4" fill="#16a34a" rx="2"/><text x="706.0" y="112.0" text-anchor="start" font-size="11.5" font-weight="700" fill="#334155">+30'336%</text><text x="124.0" y="136.0" text-anchor="end" font-size="12" fill="#374151">ENA</text><rect x="132.0" y="124.8" width="408.0" height="14.4" fill="#16a34a" rx="2"/><text x="546.0" y="136.0" text-anchor="start" font-size="11.5" font-weight="700" fill="#334155">+21'789%</text><text x="124.0" y="160.0" text-anchor="end" font-size="12" fill="#374151">AVAX</text><rect x="132.0" y="148.8" width="266.8" height="14.4" fill="#16a34a" rx="2"/><text x="404.8" y="160.0" text-anchor="start" font-size="11.5" font-weight="700" fill="#334155">+14'248%</text><text x="124.0" y="184.0" text-anchor="end" font-size="12" fill="#374151">TIA</text><rect x="132.0" y="172.8" width="211.9" height="14.4" fill="#16a34a" rx="2"/><text x="349.9" y="184.0" text-anchor="start" font-size="11.5" font-weight="700" fill="#334155">+11'316%</text><text x="124.0" y="208.0" text-anchor="end" font-size="12" fill="#374151">UNI</text><rect x="132.0" y="196.8" width="182.3" height="14.4" fill="#16a34a" rx="2"/><text x="320.3" y="208.0" text-anchor="start" font-size="11.5" font-weight="700" fill="#334155">+9'737%</text><text x="124.0" y="232.0" text-anchor="end" font-size="12" fill="#374151">SUI</text><rect x="132.0" y="220.8" width="138.6" height="14.4" fill="#16a34a" rx="2"/><text x="276.6" y="232.0" text-anchor="start" font-size="11.5" font-weight="700" fill="#334155">+7'401%</text><text x="124.0" y="256.0" text-anchor="end" font-size="12" fill="#374151">ETHFI</text><rect x="132.0" y="244.8" width="93.4" height="14.4" fill="#16a34a" rx="2"/><text x="231.4" y="256.0" text-anchor="start" font-size="11.5" font-weight="700" fill="#334155">+4'988%</text><text x="124.0" y="280.0" text-anchor="end" font-size="12" fill="#374151">WIF</text><rect x="132.0" y="268.8" width="91.6" height="14.4" fill="#16a34a" rx="2"/><text x="229.6" y="280.0" text-anchor="start" font-size="11.5" font-weight="700" fill="#334155">+4'890%</text><text x="124.0" y="304.0" text-anchor="end" font-size="12" fill="#374151">ORDI</text><rect x="132.0" y="292.8" width="88.4" height="14.4" fill="#16a34a" rx="2"/><text x="226.4" y="304.0" text-anchor="start" font-size="11.5" font-weight="700" fill="#334155">+4'720%</text><text x="124.0" y="328.0" text-anchor="end" font-size="12" fill="#374151">ARB</text><rect x="132.0" y="316.8" width="84.5" height="14.4" fill="#16a34a" rx="2"/><text x="222.5" y="328.0" text-anchor="start" font-size="11.5" font-weight="700" fill="#334155">+4'515%</text><text x="124.0" y="352.0" text-anchor="end" font-size="12" fill="#374151">BIO</text><rect x="132.0" y="340.8" width="72.8" height="14.4" fill="#16a34a" rx="2"/><text x="210.8" y="352.0" text-anchor="start" font-size="11.5" font-weight="700" fill="#334155">+3'889%</text><text x="124.0" y="376.0" text-anchor="end" font-size="12" fill="#374151">TRUMP</text><rect x="132.0" y="364.8" width="68.9" height="14.4" fill="#16a34a" rx="2"/><text x="206.9" y="376.0" text-anchor="start" font-size="11.5" font-weight="700" fill="#334155">+3'680%</text><text x="124.0" y="400.0" text-anchor="end" font-size="12" fill="#374151">DOGE</text><rect x="132.0" y="388.8" width="58.3" height="14.4" fill="#16a34a" rx="2"/><text x="196.3" y="400.0" text-anchor="start" font-size="11.5" font-weight="700" fill="#334155">+3'112%</text><text x="124.0" y="424.0" text-anchor="end" font-size="12" fill="#374151">XRP</text><rect x="132.0" y="412.8" width="44.5" height="14.4" fill="#16a34a" rx="2"/><text x="182.5" y="424.0" text-anchor="start" font-size="11.5" font-weight="700" fill="#334155">+2'374%</text><text x="124.0" y="448.0" text-anchor="end" font-size="12" fill="#374151">CRV</text><rect x="132.0" y="436.8" width="38.7" height="14.4" fill="#16a34a" rx="2"/><text x="176.7" y="448.0" text-anchor="start" font-size="11.5" font-weight="700" fill="#334155">+2'067%</text><text x="124.0" y="472.0" text-anchor="end" font-size="12" fill="#374151">1000SHIB</text><rect x="132.0" y="460.8" width="35.1" height="14.4" fill="#16a34a" rx="2"/><text x="173.1" y="472.0" text-anchor="start" font-size="11.5" font-weight="700" fill="#334155">+1'877%</text><text x="124.0" y="496.0" text-anchor="end" font-size="12" fill="#374151">LINK</text><rect x="132.0" y="484.8" width="30.9" height="14.4" fill="#16a34a" rx="2"/><text x="168.9" y="496.0" text-anchor="start" font-size="11.5" font-weight="700" fill="#334155">+1'651%</text><text x="124.0" y="520.0" text-anchor="end" font-size="12" fill="#374151">PENGU</text><rect x="132.0" y="508.8" width="28.1" height="14.4" fill="#16a34a" rx="2"/><text x="166.1" y="520.0" text-anchor="start" font-size="11.5" font-weight="700" fill="#334155">+1'500%</text><text x="124.0" y="544.0" text-anchor="end" font-size="12" fill="#374151">1000BONK</text><rect x="132.0" y="532.8" width="24.2" height="14.4" fill="#16a34a" rx="2"/><text x="162.2" y="544.0" text-anchor="start" font-size="11.5" font-weight="700" fill="#334155">+1'292%</text><text x="124.0" y="568.0" text-anchor="end" font-size="12" fill="#374151">1000PEPE</text><rect x="132.0" y="556.8" width="21.4" height="14.4" fill="#16a34a" rx="2"/><text x="159.4" y="568.0" text-anchor="start" font-size="11.5" font-weight="700" fill="#334155">+1'144%</text><text x="124.0" y="592.0" text-anchor="end" font-size="12" fill="#374151">BOME</text><rect x="132.0" y="580.8" width="20.3" height="14.4" fill="#16a34a" rx="2"/><text x="158.3" y="592.0" text-anchor="start" font-size="11.5" font-weight="700" fill="#334155">+1'085%</text><text x="124.0" y="616.0" text-anchor="end" font-size="12" fill="#374151">NEAR</text><rect x="132.0" y="604.8" width="17.2" height="14.4" fill="#16a34a" rx="2"/><text x="155.2" y="616.0" text-anchor="start" font-size="11.5" font-weight="700" fill="#334155">+920%</text><text x="124.0" y="640.0" text-anchor="end" font-size="12" fill="#374151">WLFI</text><rect x="132.0" y="628.8" width="14.8" height="14.4" fill="#16a34a" rx="2"/><text x="152.8" y="640.0" text-anchor="start" font-size="11.5" font-weight="700" fill="#334155">+792%</text><text x="124.0" y="664.0" text-anchor="end" font-size="12" fill="#374151">WLD</text><rect x="132.0" y="652.8" width="14.0" height="14.4" fill="#16a34a" rx="2"/><text x="152.0" y="664.0" text-anchor="start" font-size="11.5" font-weight="700" fill="#334155">+747%</text><text x="124.0" y="688.0" text-anchor="end" font-size="12" fill="#374151">LTC</text><rect x="132.0" y="676.8" width="12.0" height="14.4" fill="#16a34a" rx="2"/><text x="150.0" y="688.0" text-anchor="start" font-size="11.5" font-weight="700" fill="#334155">+640%</text><text x="124.0" y="712.0" text-anchor="end" font-size="12" fill="#374151">NEO</text><rect x="132.0" y="700.8" width="9.2" height="14.4" fill="#16a34a" rx="2"/><text x="147.2" y="712.0" text-anchor="start" font-size="11.5" font-weight="700" fill="#334155">+492%</text><text x="124.0" y="736.0" text-anchor="end" font-size="12" fill="#374151">PNUT</text><rect x="132.0" y="724.8" width="8.0" height="14.4" fill="#16a34a" rx="2"/><text x="146.0" y="736.0" text-anchor="start" font-size="11.5" font-weight="700" fill="#334155">+429%</text><text x="124.0" y="760.0" text-anchor="end" font-size="12" fill="#374151">KAITO</text><rect x="132.0" y="748.8" width="7.0" height="14.4" fill="#16a34a" rx="2"/><text x="145.0" y="760.0" text-anchor="start" font-size="11.5" font-weight="700" fill="#334155">+375%</text><text x="124.0" y="784.0" text-anchor="end" font-size="12" fill="#374151">ETH</text><rect x="132.0" y="772.8" width="5.4" height="14.4" fill="#16a34a" rx="2"/><text x="143.4" y="784.0" text-anchor="start" font-size="11.5" font-weight="700" fill="#334155">+290%</text><text x="124.0" y="808.0" text-anchor="end" font-size="12" fill="#374151">BNB</text><rect x="132.0" y="796.8" width="4.1" height="14.4" fill="#16a34a" rx="2"/><text x="142.1" y="808.0" text-anchor="start" font-size="11.5" font-weight="700" fill="#334155">+217%</text><text x="124.0" y="832.0" text-anchor="end" font-size="12" fill="#374151">BTC</text><rect x="132.0" y="820.8" width="3.0" height="14.4" fill="#16a34a" rx="2"/><text x="141.0" y="832.0" text-anchor="start" font-size="11.5" font-weight="700" fill="#334155">+160%</text><text x="124.0" y="856.0" text-anchor="end" font-size="12" fill="#374151">ADA</text><rect x="132.0" y="844.8" width="2.7" height="14.4" fill="#16a34a" rx="2"/><text x="140.7" y="856.0" text-anchor="start" font-size="11.5" font-weight="700" fill="#334155">+142%</text><text x="124.0" y="880.0" text-anchor="end" font-size="12" fill="#374151">HBAR</text><rect x="132.0" y="868.8" width="2.4" height="14.4" fill="#16a34a" rx="2"/><text x="140.4" y="880.0" text-anchor="start" font-size="11.5" font-weight="700" fill="#334155">+128%</text><text x="124.0" y="904.0" text-anchor="end" font-size="12" fill="#374151">SOL</text><rect x="132.0" y="892.8" width="2.4" height="14.4" fill="#16a34a" rx="2"/><text x="140.4" y="904.0" text-anchor="start" font-size="11.5" font-weight="700" fill="#334155">+128%</text><text x="124.0" y="928.0" text-anchor="end" font-size="12" fill="#374151">BCH</text><rect x="132.0" y="916.8" width="1.9" height="14.4" fill="#16a34a" rx="2"/><text x="139.9" y="928.0" text-anchor="start" font-size="11.5" font-weight="700" fill="#334155">+100%</text>
</svg>
