<?xml version="1.0" encoding="UTF-8"?>
<svg xmlns="http://www.w3.org/2000/svg" width="1180" height="640" viewBox="0 0 1180 640" font-family="ui-sans-serif, system-ui, sans-serif">
  <rect width="1180" height="640" fill="#ffffff"/>
  <text x="72" y="26" font-size="17" font-weight="700" fill="#111827">Zone Recovery — how it works (first 3 series of the best setting)</text>
  <text x="72" y="45" font-size="12" fill="#6b7280">lev 75 · ratio 2 · gap 20% · maxSteps 5 · maxDD 30% · random · vip 9</text>
  <line x1="72" y1="594.0" x2="966" y2="594.0" stroke="#eef2f7" stroke-width="1"/><text x="64" y="598.0" text-anchor="end" font-size="11" fill="#94a3b8">9506</text><line x1="72" y1="487.2" x2="966" y2="487.2" stroke="#eef2f7" stroke-width="1"/><text x="64" y="491.2" text-anchor="end" font-size="11" fill="#94a3b8">9565</text><line x1="72" y1="380.4" x2="966" y2="380.4" stroke="#eef2f7" stroke-width="1"/><text x="64" y="384.4" text-anchor="end" font-size="11" fill="#94a3b8">9623</text><line x1="72" y1="273.6" x2="966" y2="273.6" stroke="#eef2f7" stroke-width="1"/><text x="64" y="277.6" text-anchor="end" font-size="11" fill="#94a3b8">9682</text><line x1="72" y1="166.8" x2="966" y2="166.8" stroke="#eef2f7" stroke-width="1"/><text x="64" y="170.8" text-anchor="end" font-size="11" fill="#94a3b8">9741</text><line x1="72" y1="60.0" x2="966" y2="60.0" stroke="#eef2f7" stroke-width="1"/><text x="64" y="64.0" text-anchor="end" font-size="11" fill="#94a3b8">9800</text>
  <polyline points="72.0,426.1 72.9,418.9 74.7,393.8 75.2,388.1 75.6,394.7 75.6,395.7 75.7,395.7 77.4,400.3 77.7,403.4 78.2,403.1 78.3,403.1 79.2,404.5 80.6,409.5 80.6,409.5 80.6,409.9 82.8,392.9 84.1,392.9 84.7,392.9 85.0,392.9 85.3,392.9 85.6,392.9 86.0,392.9 86.2,392.9 86.2,392.9 86.4,392.9 86.5,392.9 86.9,392.9 87.3,392.9 87.4,392.9 87.4,392.9 87.5,392.9 87.6,376.2 88.2,375.6 88.4,379.3 89.2,384.6 89.2,385.0 89.2,373.5 89.7,373.5 90.5,375.2 92.0,369.1 93.3,374.5 93.7,365.2 94.1,368.1 96.4,376.7 97.2,366.1 97.4,366.8 98.1,376.4 99.9,385.0 100.2,386.4 100.5,385.0 100.6,386.7 102.8,380.8 103.8,370.4 105.2,371.5 106.6,365.5 107.0,365.5 108.5,365.0 108.9,365.1 109.9,365.1 111.8,365.1 111.9,372.6 111.9,372.6 112.9,374.4 113.4,376.4 114.1,376.4 115.1,383.6 115.2,377.6 118.0,366.5 118.2,366.5 118.4,366.5 119.3,363.7 119.4,363.7 119.9,350.5 120.3,351.7 121.0,356.6 121.0,356.6 121.4,356.6 122.3,365.0 122.6,358.3 123.3,365.2 123.3,361.6 123.9,361.6 127.4,357.2 127.5,353.4 127.9,355.2 128.9,356.2 130.3,354.8 130.4,365.8 131.4,354.8 131.5,354.8 132.7,354.8 132.8,354.8 133.0,354.8 133.8,354.8 135.2,352.3 135.2,352.3 135.4,354.4 135.4,354.4 135.4,354.1 135.4,354.1 137.9,354.0 138.9,351.4 139.0,351.4 139.2,350.5 140.0,350.5 140.2,350.5 140.3,350.5 140.3,350.5 140.4,350.5 140.8,350.5 140.8,344.0 140.8,344.0 140.9,344.1 140.9,344.1 141.2,344.1 141.4,344.1 141.5,356.2 142.7,356.2 142.9,341.1 143.2,351.3 143.3,351.3 143.6,347.0 143.7,349.1 143.7,348.9 143.7,348.9 143.7,348.0 143.9,348.0 144.0,348.0 145.8,355.7 146.4,356.2 146.4,356.2 146.7,356.2 147.9,356.2 148.0,356.2 149.2,356.2 149.3,356.2 149.5,356.2 151.5,374.7 151.6,386.6 152.0,374.7 152.7,375.2 153.3,382.7 153.4,367.5 153.4,367.5 154.3,368.7 157.3,381.4 157.9,372.3 160.4,375.6 160.8,375.6 161.0,375.6 162.2,381.8 162.7,385.9 162.8,385.9 163.2,385.0 163.8,385.0 164.0,385.0 164.1,385.0 164.2,385.0 165.3,385.0 165.3,377.7 165.9,377.7 167.0,377.9 167.4,377.9 168.0,377.9 168.1,378.0 168.5,378.0 168.9,378.0 168.9,389.4 169.3,377.7 169.8,377.8 169.8,377.8 171.1,377.8 171.5,377.8 171.8,377.8 172.5,383.4 172.9,383.5 173.0,383.6 173.1,383.6 173.5,382.5 173.6,387.1 173.6,387.1 173.6,379.4 173.8,379.4 175.0,379.4 175.2,379.4 175.4,379.4 175.8,379.2 176.4,379.3 176.8,379.3 176.9,379.3 177.2,379.4 177.5,379.4 178.0,379.4 178.2,383.2 178.9,383.2 180.0,383.3 180.6,388.7 180.8,392.9 181.6,384.7 183.5,392.9 184.8,387.2 185.0,386.0 185.3,386.1 185.6,386.7 185.6,386.1 185.6,386.1 185.6,386.0 185.8,386.1 186.0,386.0 186.1,386.1 186.6,386.1 186.6,386.1 186.7,386.1 186.8,386.0 187.2,383.2 187.6,386.1 187.8,384.7 189.0,386.1 189.7,385.0 189.8,385.0 190.2,386.1 190.7,386.1 190.9,385.0 191.0,385.0 193.5,384.9 194.0,386.0 194.6,384.9 194.9,384.9 196.1,384.9 196.4,384.9 196.7,384.9 197.1,384.9 197.6,384.9 197.6,384.9 198.4,384.9 199.8,384.9 199.9,384.9 200.9,384.9 201.9,385.0 202.2,384.9 202.3,384.9 202.4,384.9 203.4,384.9 203.5,385.0 203.5,385.0 204.2,384.9 204.5,384.9 204.5,384.9 204.5,384.9 204.6,384.9 204.6,384.9 204.8,385.0 205.7,384.9 205.8,384.9 206.0,384.9 206.9,384.9 207.8,384.9 211.2,384.9 211.8,384.9 212.2,384.9 212.5,384.9 213.7,384.9 213.8,384.9 214.4,384.9 214.5,384.9 214.8,384.9 214.9,384.9 214.9,384.9 215.1,384.9 215.1,384.9 215.4,384.9 216.5,384.9 217.5,384.9 217.5,384.9 217.5,384.9 218.1,383.1 218.1,361.2 219.5,361.6 220.6,372.2 220.6,372.2 221.2,372.2 222.0,372.2 222.1,372.2 222.6,372.2 223.0,372.2 223.9,372.2 224.0,372.2 224.8,372.2 224.8,370.2 225.4,361.7 226.3,361.7 226.8,361.8 226.9,373.7 227.3,373.7 228.4,362.3 228.5,362.3 229.1,373.7 230.3,362.3 231.6,361.7 232.2,361.8 236.8,345.7 243.8,345.7 245.3,345.7 248.5,345.7 248.7,345.7 250.1,345.7 252.3,345.7 253.9,345.7 253.9,346.8 253.9,348.2 253.9,348.2 254.6,360.3 254.6,361.2 255.9,372.8 256.0,361.1 256.3,363.4 256.5,363.4 257.5,363.4 258.6,363.5 260.4,363.5 262.4,368.0 264.4,373.7 265.1,370.0 265.5,356.2 266.2,360.6 266.4,360.6 266.5,360.6 267.4,350.2 267.5,360.9 270.4,357.9 272.2,372.8 273.4,362.5 273.5,362.5 273.7,362.5 276.3,363.5 276.6,363.5 277.3,363.3 278.6,365.4 278.6,365.4 279.1,366.3 279.3,366.2 279.3,366.3 279.3,373.7 279.3,366.3 279.5,373.7 279.5,373.7 279.5,373.7 279.9,379.7 280.2,379.6 280.5,379.6 280.5,379.6 281.4,379.7 281.9,379.6 282.4,379.7 282.5,380.6 283.1,380.8 283.4,385.0 283.6,383.2 283.8,382.4 284.7,381.5 285.0,384.9 285.1,382.5 285.9,382.5 285.9,381.5 286.5,381.5 286.7,381.5 286.9,381.5 287.1,381.5 287.2,381.5 288.0,381.5 288.3,381.5 288.5,382.1 288.8,382.6 289.2,382.6 289.4,382.0 289.9,382.1 291.8,381.6 292.7,382.5 293.2,385.0 293.4,383.6 293.9,383.8 294.2,383.9 294.4,383.8 294.6,384.0 294.7,383.9 295.0,383.9 295.6,383.9 295.6,383.9 295.7,381.7 295.9,381.7 296.4,383.8 296.7,383.6 297.6,380.3 298.1,384.9 298.1,385.0 298.2,379.3 298.6,382.0 299.0,382.0 299.1,385.0 299.4,382.0 299.8,382.0 299.9,382.0 300.3,382.0 301.7,382.0 301.9,382.0 302.1,382.0 302.3,382.0 302.4,382.0 303.2,382.0 303.4,382.0 304.2,382.1 304.9,382.2 305.6,382.2 305.8,383.1 305.9,383.1 305.9,383.1 307.1,384.9 307.3,383.1 308.0,383.1 308.1,383.2 308.1,383.2 308.3,384.9 308.3,384.9 308.7,383.1 309.2,383.1 309.7,383.2 310.1,383.2 310.3,383.2 310.3,383.2 311.5,383.3 313.0,383.4 313.2,383.3 313.3,383.3 313.9,384.9 313.9,385.0 313.9,383.4 314.6,383.4 316.0,385.0 316.0,386.1 318.6,383.4 318.7,383.4 318.9,386.1 318.9,386.1 318.9,386.1 319.7,386.1 319.7,386.1 320.6,386.1 321.3,386.1 322.5,386.1 324.6,386.1 325.2,383.5 327.3,386.1 327.4,386.1 327.5,386.1 328.2,386.1 328.4,385.6 328.4,385.6 328.6,386.1 328.9,385.6 329.0,385.6 329.2,386.1 329.6,383.5 329.8,383.5 329.8,383.5 331.6,383.4 331.9,383.4 332.1,383.5 333.0,383.5 333.9,383.5 334.6,383.4 334.9,383.4 335.3,383.4 335.6,383.4 336.9,383.4 337.4,383.5 339.5,383.4 341.6,383.4 341.6,383.4 342.2,383.4 342.9,383.4 343.0,383.4 343.4,383.4 343.4,383.4 343.4,383.4 345.7,383.4 345.7,383.4 346.0,383.4 346.1,382.2 347.0,382.2 347.0,382.2 347.7,382.2 347.7,374.2 348.4,370.9 348.8,370.9 349.4,371.0 350.3,371.1 350.5,371.1 350.7,371.1 350.8,371.1 351.0,371.1 352.5,371.1 352.6,378.2 359.8,369.4 361.4,369.4 361.8,369.4 362.7,369.4 363.2,369.4 363.4,369.4 363.5,369.4 364.8,369.4 365.6,369.4 367.9,369.4 370.5,369.3 371.2,369.3 371.3,358.2 371.7,357.8 372.4,369.3 372.7,369.3 373.2,357.9 373.5,357.8 373.9,357.9 376.0,365.0 377.1,369.3 378.9,366.8 380.6,369.3 380.7,369.1 382.8,369.3 383.1,369.3 384.0,369.3 384.0,369.4 384.5,369.4 385.3,369.4 385.7,369.4 385.9,369.4 387.4,369.4 388.6,369.4 389.9,369.4 389.9,369.4 393.2,369.4 393.8,369.4 396.6,369.4 397.9,369.4 398.7,370.4 399.8,370.4 399.9,370.4 400.2,370.5 400.5,370.5 400.9,370.5 401.6,371.4 402.3,375.9 404.6,379.3 406.0,383.1 406.0,383.9 406.1,384.4 406.3,384.7 406.3,386.1 406.4,386.1 406.4,386.1 406.6,386.1 407.2,386.1 407.6,386.1 407.6,386.1 407.8,386.1 408.3,386.1 409.1,386.1 409.1,386.1 409.3,386.1 411.2,386.1 411.8,386.7 412.1,386.7 412.1,386.7 412.2,386.7 412.3,392.9 412.3,395.6 412.5,404.3 412.8,412.9 413.6,418.5 413.7,418.9 413.7,418.9 414.7,422.4 414.7,421.0 414.8,422.4 415.7,422.5 415.9,422.6 417.2,423.0 417.2,423.0 417.2,423.0 417.2,423.0 417.2,423.0 417.7,443.9 417.9,449.4 418.2,449.5 418.4,468.3 418.4,468.3 418.4,470.4 418.5,498.1 418.7,469.8 419.1,476.6 419.5,476.7 419.5,476.7 419.5,476.7 420.2,444.2 420.5,444.1 420.9,435.0 421.4,425.2 421.7,425.2 422.2,414.3 423.0,414.3 424.1,411.3 424.3,413.8 424.5,411.4 425.7,420.3 425.9,420.4 426.0,420.4 426.1,420.5 426.1,420.4 427.0,432.9 428.2,434.9 428.9,441.7 429.2,451.6 429.4,444.8 429.5,444.8 429.9,439.9 430.0,439.9 430.6,449.8 430.8,449.9 431.1,449.4 431.8,434.8 432.1,426.8 432.6,425.0 432.8,425.0 432.8,425.0 432.8,425.0 433.0,411.0 433.9,414.2 434.1,414.2 435.7,411.8 436.6,411.8 436.8,411.8 436.8,411.8 437.5,426.5 439.4,431.1 440.6,437.4 441.6,435.6 442.0,440.7 442.5,446.2 443.7,453.7 443.7,453.7 445.0,464.6 446.8,461.1 446.8,461.1 446.8,449.3 446.8,458.4 449.3,446.1 452.7,444.7 455.3,447.7 455.7,443.2 457.1,442.8 457.4,447.9 457.5,447.9 457.7,447.9 459.9,437.8 460.0,436.9 460.6,432.8 461.5,433.5 463.9,414.0 464.6,396.3 465.0,398.9 466.2,389.2 466.3,389.2 466.6,394.6 466.6,389.2 467.3,394.3 471.7,402.3 474.4,395.9 475.0,402.3 476.8,402.4 476.8,402.4 476.8,406.3 477.2,406.3 478.9,416.6 481.2,419.9 482.6,422.0 483.6,426.9 483.6,426.9 484.8,428.4 486.1,437.1 487.0,445.8 488.5,435.8 488.5,435.8 489.4,419.5 489.8,419.5 492.1,410.3 492.2,420.5 492.6,422.7 497.9,412.8 498.2,412.9 500.1,413.4 501.1,425.0 501.2,420.9 504.1,432.0 510.2,433.7 511.7,437.5 512.6,437.5 515.4,431.5 521.0,410.7 522.7,410.7 522.7,418.3 524.6,405.3 525.1,412.3 525.1,412.3 526.9,416.5 527.3,420.0 527.5,420.0 527.9,420.0 528.1,423.2 531.9,424.7 531.9,425.7 533.7,409.3 535.9,417.9 536.8,418.0 537.6,419.5 539.4,421.5 540.5,421.6 543.2,421.5 544.1,421.5 544.7,421.6 545.4,422.6 545.7,426.6 545.9,426.6 546.3,426.8 547.5,442.0 548.0,444.7 548.0,439.0 549.5,437.6 550.4,437.9 550.6,444.8 550.6,444.8 550.6,451.3 550.6,456.8 550.6,459.7 550.6,460.6 550.6,464.3 550.6,466.6 550.6,467.8 550.6,469.5 550.7,457.2 550.9,457.2 552.2,440.0 552.2,440.0 553.1,433.8 553.5,430.5 554.3,439.9 555.5,447.3 556.7,448.5 556.7,448.5 557.8,441.4 558.2,441.4 560.5,460.9 562.5,447.9 562.8,454.5 562.8,454.8 562.8,447.9 563.3,447.9 564.3,457.5 565.2,462.9 566.2,472.0 566.5,470.0 566.5,470.2 566.5,462.1 566.8,462.1 567.0,462.9 567.2,451.4 567.3,452.9 567.9,458.1 571.0,461.5 571.7,455.3 572.0,457.3 573.2,457.4 573.2,457.4 573.3,457.5 573.5,457.4 574.5,457.3 575.4,449.6 576.3,445.6 577.0,439.3 577.1,441.8 577.2,439.3 577.6,439.3 577.7,441.8 578.8,438.9 579.5,444.0 579.7,444.0 580.0,442.7 580.2,455.0 581.4,447.7 581.5,451.3 581.6,447.7 582.1,447.7 582.4,449.8 583.6,448.0 583.6,446.9 584.5,447.7 584.6,447.7 584.7,436.2 585.4,436.2 586.3,426.5 586.3,426.5 588.9,428.0 589.5,428.0 589.7,428.0 589.8,428.0 590.6,428.0 591.2,428.9 591.2,428.9 591.2,428.9 591.7,428.1 592.1,431.9 592.6,432.9 592.8,432.9 593.5,432.9 594.5,432.9 594.7,432.9 594.8,432.9 595.4,432.9 596.1,432.9 597.7,432.9 598.7,436.3 599.3,436.4 599.5,439.9 599.8,436.6 600.7,439.9 601.7,439.9 601.9,439.9 601.9,439.9 601.9,439.9 601.9,450.9 601.9,454.6 601.9,455.5 601.9,456.3 601.9,459.6 601.9,462.1 601.9,462.5 601.9,466.2 602.4,449.4 603.2,466.8 604.1,457.3 605.6,446.6 605.6,458.3 606.1,450.6 606.2,450.6 607.5,451.6 607.7,451.6 609.2,441.8 610.2,441.5 610.3,441.5 612.0,438.2 612.3,430.3 613.9,433.9 614.5,432.4 615.5,432.5 615.8,432.5 616.4,432.5 616.5,435.1 617.4,435.4 617.6,435.2 618.4,435.3 619.4,437.4 619.4,437.4 620.1,440.2 620.8,446.2 620.9,446.6 621.2,446.6 621.3,446.6 623.9,465.2 624.1,465.0 625.4,465.0 625.8,468.3 626.2,469.6 626.5,469.6 627.0,469.6 627.1,469.6 627.8,477.4 627.8,477.4 627.9,479.0 628.3,479.4 628.3,479.4 628.5,479.1 628.6,479.1 628.6,479.1 628.6,479.0 631.0,469.6 631.0,465.0 632.3,465.0 634.8,465.0 635.1,465.0 635.1,453.7 635.1,452.9 635.4,451.9 637.4,441.6 637.6,442.6 637.8,442.6 637.8,442.6 637.8,441.6 638.9,444.0 639.1,444.0 641.1,447.8 643.8,459.8 644.4,459.8 645.8,447.9 647.7,456.3 649.7,453.9 649.8,453.9 650.6,453.9 650.7,453.9 652.8,454.9 653.2,457.5 653.4,466.8 653.4,466.9 653.9,457.5 654.1,457.5 654.1,457.5 654.6,457.6 654.6,457.6 654.8,457.6 654.9,466.9 654.9,467.8 655.0,457.6 655.4,457.6 655.4,457.6 655.5,457.6 655.9,457.6 657.1,457.6 657.3,457.7 658.0,457.7 658.4,457.6 658.6,457.6 658.7,457.6 658.7,457.6 658.7,457.6 659.0,457.6 659.0,457.6 659.0,457.6 659.0,445.6 659.2,445.6 659.5,433.7 660.1,433.6 660.5,426.4 660.8,426.4 661.6,429.3 661.9,434.0 662.7,434.0 663.0,438.9 663.6,434.0 664.0,434.0 664.4,438.9 664.4,438.9 664.4,445.6 664.7,434.0 664.7,445.6 665.3,434.1 665.8,434.1 665.9,434.1 666.9,434.0 668.6,434.1 668.9,434.1 669.3,435.0 670.0,434.3 670.6,434.5 670.8,434.1 670.8,434.1 670.9,434.2 671.0,434.2 671.3,435.0 671.5,434.4 671.7,434.4 671.7,435.0 672.9,434.7 673.1,434.7 673.6,434.9 673.7,434.9 673.8,434.9 673.9,435.0 673.9,434.9 674.5,435.0 674.8,435.0 675.3,435.0 675.3,435.0 676.0,435.0 676.0,435.0 676.3,435.0 677.4,435.0 679.3,435.0 679.9,435.0 680.5,435.0 680.8,435.0 682.1,435.0 682.5,435.0 683.6,435.0 684.5,435.0 684.5,435.0 684.7,435.0 684.7,435.0 685.9,435.0 685.9,435.0 686.0,435.0 686.6,435.0 687.4,435.0 688.7,435.0 689.2,453.5 689.3,453.5 689.6,453.5 690.5,453.5 690.5,453.6 690.7,453.5 691.3,453.7 691.6,447.2 691.8,456.7 692.3,448.0 692.8,447.8 693.9,447.2 693.9,446.6 693.9,446.6 694.0,447.2 695.7,447.6 697.0,448.1 697.4,448.1 697.8,448.5 698.2,448.4 698.4,448.5 699.2,448.4 700.0,448.4 700.7,451.4 700.7,451.4 700.7,451.4 700.7,451.4 700.7,451.4 700.9,451.4 701.2,451.4 702.1,451.4 702.5,451.4 703.0,451.4 703.3,451.4 703.3,451.4 703.5,448.4 703.5,448.4 703.5,448.4 703.5,437.7 703.8,434.0 704.4,434.0 704.6,434.0 704.6,434.0 705.1,434.0 705.7,434.1 706.0,434.0 706.4,434.0 707.1,434.0 707.4,434.0 707.6,434.0 707.6,434.0 707.8,434.0 708.4,434.0 708.5,434.0 708.5,434.0 709.0,397.6 709.0,395.6 709.4,353.1 709.4,345.7 709.4,345.7 709.4,344.6 709.4,344.6 709.4,344.6 709.5,330.2 709.5,312.9 709.5,312.9 709.6,301.3 710.0,337.3 710.0,338.8 710.0,340.7 710.0,340.7 710.1,340.7 710.1,340.7 711.2,353.6 711.5,363.4 711.5,363.4 712.1,370.5 712.1,373.5 713.0,400.3 713.6,393.8 714.7,376.1 714.7,376.1 715.2,380.9 715.2,370.7 715.5,374.5 716.0,384.0 716.0,384.0 717.0,383.8 717.2,383.8 718.4,375.8 720.2,348.4 720.5,351.1 720.8,351.1 721.1,368.0 722.3,381.3 722.9,391.0 723.0,407.3 723.0,407.6 723.5,417.9 723.9,456.6 725.4,451.1 725.6,451.1 725.6,463.2 725.8,452.5 726.0,449.2 726.7,426.9 727.6,423.1 728.2,443.8 728.5,437.5 728.6,439.3 729.4,441.2 729.6,441.2 730.2,432.5 731.7,440.7 731.9,440.7 732.3,454.2 732.6,454.2 732.7,454.3 733.1,454.4 735.4,453.2 735.5,454.0 735.7,453.2 735.8,453.2 736.0,453.2 736.1,453.2 736.2,453.2 736.3,463.5 736.3,463.9 736.7,453.2 737.2,453.3 738.0,447.8 738.5,445.8 738.6,445.7 739.0,442.4 739.0,442.4 739.3,444.3 740.4,446.6 740.7,447.5 740.7,447.5 740.8,447.5 741.4,447.5 741.4,447.8 741.5,447.8 741.7,447.8 741.8,447.8 742.1,447.8 742.8,447.8 743.0,447.8 743.9,447.8 744.2,447.5 744.2,446.5 744.2,446.5 744.5,440.8 745.0,440.9 746.2,441.0 746.2,441.0 746.6,441.0 746.8,443.1 746.9,444.0 747.2,443.3 747.5,443.1 747.9,447.8 748.4,443.2 748.5,443.2 748.5,443.2 749.5,443.3 749.7,443.3 750.0,443.3 750.2,443.3 751.1,443.3 751.5,443.3 751.6,443.3 751.8,443.3 751.9,443.3 752.0,443.3 752.8,443.1 753.5,443.1 754.1,443.1 754.1,443.1 754.4,443.1 754.5,443.1 755.8,444.5 756.1,444.6 756.9,443.2 757.2,443.3 757.9,443.5 757.9,443.5 758.3,438.7 758.3,438.7 759.2,438.7 759.3,438.7 759.5,438.7 760.6,439.0 761.5,444.6 761.7,438.7 762.1,433.2 762.1,433.2 762.2,433.2 762.8,437.3 763.3,437.4 763.5,439.0 763.5,439.0 763.5,444.6 763.5,447.8 764.8,439.5 764.8,439.5 765.4,439.6 765.5,440.8 765.7,440.8 765.7,440.8 766.3,445.4 766.5,445.4 766.6,445.4 767.1,445.4 767.4,445.4 767.5,445.5 769.1,447.7 769.2,447.7 771.2,441.6 772.5,442.0 772.8,442.0 773.6,442.0 773.7,442.0 774.5,445.5 774.6,445.5 774.9,445.5 774.9,445.3 775.0,447.7 775.4,445.7 775.6,447.3 775.8,447.2 775.8,447.8 775.8,450.4 776.5,442.0 777.9,450.4 778.0,441.1 778.4,445.2 778.4,445.1 778.5,445.2 778.5,445.2 779.0,444.3 779.4,444.4 779.4,444.3 779.6,444.3 779.6,444.3 780.1,443.8 781.2,443.8 781.4,444.1 781.4,443.9 781.7,443.9 781.8,443.9 782.4,443.8 783.4,445.5 784.9,445.5 785.0,445.5 785.0,443.9 785.2,445.5 785.2,450.4 785.2,456.5 786.4,457.2 787.1,445.8 787.2,457.1 787.3,445.8 787.7,445.8 788.0,445.8 789.0,445.8 789.1,445.8 790.0,459.4 790.1,447.9 790.3,447.9 790.8,448.1 791.6,456.8 792.8,465.5 793.1,465.8 793.1,465.5 793.7,489.3 793.7,504.6 793.7,504.6 793.7,513.7 793.7,513.7 793.7,513.7 793.8,508.5 793.8,513.7 793.8,513.7 793.9,524.8 794.6,456.8 794.6,446.7 794.6,441.6 794.7,393.5 794.7,397.8 794.7,397.9 794.7,397.9 794.8,384.6 794.8,382.6 794.8,381.4 794.8,369.6 794.8,369.3 794.8,364.7 794.9,404.7 794.9,409.9 795.0,399.9 795.8,393.5 795.9,362.4 796.0,362.5 796.2,354.7 796.5,360.4 796.5,360.4 796.8,396.4 796.9,386.9 797.0,389.3 797.4,401.2 797.5,401.2 798.0,405.7 798.0,413.0 798.6,416.3 798.6,416.3 799.0,412.1 799.5,411.8 799.9,395.9 801.0,420.6 801.0,409.9 801.1,409.9 801.3,410.2 801.4,420.6 801.5,409.9 801.6,418.7 802.1,414.2 802.2,419.6 802.8,410.3 802.9,414.3 803.2,417.4 804.1,397.8 804.8,397.8 805.3,394.3 805.8,394.3 806.4,390.6 807.2,386.6 807.7,386.5 808.6,390.5 808.8,390.1 808.9,390.1 809.5,386.5 810.4,378.1 810.9,371.9 811.1,383.0 811.3,373.9 811.8,374.0 812.3,377.7 812.7,377.7 812.8,377.7 813.6,377.7 815.0,377.8 815.4,378.7 815.5,379.3 815.5,379.3 815.6,379.3 815.6,388.4 815.6,390.6 815.6,390.6 815.8,390.6 815.8,390.6 817.9,394.0 817.9,394.1 818.3,395.0 818.3,395.0 818.5,395.0 818.9,395.0 819.7,395.0 820.6,394.1 820.7,394.1 820.7,394.1 820.7,394.1 822.3,385.9 822.9,397.6 823.1,397.6 823.1,397.6 823.1,397.6 823.1,400.1 823.2,400.1 823.4,388.0 824.8,395.0 824.9,395.0 825.7,406.2 825.8,406.2 825.8,406.7 825.8,406.7 825.8,406.7 826.0,419.6 826.0,419.6 826.0,419.6 826.3,412.6 826.5,414.1 827.1,412.3 827.5,412.3 827.5,419.6 827.6,412.3 828.2,396.4 830.3,405.4 830.3,405.4 831.5,408.5 831.5,408.5 832.0,408.5 832.2,408.5 832.3,408.4 832.9,408.4 833.0,408.4 834.6,408.7 835.9,408.4 836.1,408.4 836.1,419.3 836.6,408.4 836.9,419.2 837.3,419.3 837.4,408.4 837.8,408.4 839.1,405.2 840.8,405.2 841.1,405.2 841.2,405.2 841.5,405.2 842.0,405.2 842.0,419.1 842.1,399.4 842.4,400.4 843.3,400.4 843.6,400.4 844.1,407.3 844.8,405.9 845.1,405.9 845.3,405.9 846.4,411.2 846.4,411.2 847.4,420.6 847.4,418.9 848.6,418.9 848.6,419.8 848.8,420.0 849.3,418.9 849.4,418.9 849.5,418.9 850.0,420.6 850.0,420.6 850.2,420.6 850.6,420.6 850.9,420.6 850.9,420.6 850.9,420.6 851.0,420.6 851.1,423.0 852.2,423.0 852.5,423.0 852.6,423.0 852.6,439.1 853.3,427.7 853.7,427.6 854.0,427.7 854.6,433.5 854.6,432.7 854.6,432.7 854.6,432.2 856.9,420.0 857.0,429.5 857.7,435.4 858.3,417.8 858.3,417.8 858.6,405.7 859.7,405.2 859.7,405.2 859.7,405.2 859.9,392.8 860.4,403.3 860.5,404.2 860.8,404.2 861.0,404.2 862.3,404.2 862.4,404.2 863.4,403.2 863.9,393.3 864.0,395.9 864.3,397.2 864.4,405.2 864.4,419.3 864.8,399.6 864.9,401.5 864.9,401.5 865.1,401.5 865.5,401.6 865.5,401.6 865.7,401.6 866.3,419.2 866.5,407.3 867.6,419.2 867.9,417.7 868.0,407.5 868.8,403.0 869.6,405.2 870.7,401.5 870.9,401.5 871.4,410.3 872.1,400.5 872.2,400.5 872.6,400.5 873.1,400.2 873.2,400.2 873.6,398.5 874.1,389.7 874.3,389.7 874.4,400.5 874.4,400.5 874.4,400.5 874.5,389.8 875.1,388.0 876.6,388.0 876.7,388.0 878.1,388.0 878.7,388.0 878.7,388.0 879.1,366.4 879.2,378.0 879.7,366.4 879.7,366.4 879.7,366.4 880.8,351.1 882.1,340.2 882.8,346.2 883.3,354.0 883.4,354.0 883.6,354.0 884.5,362.6 884.5,362.6 884.6,362.6 884.9,354.8 884.9,354.8 885.6,351.2 885.8,351.2 886.1,346.4 886.3,346.5 887.1,350.9 887.4,350.9 887.6,350.9 887.8,350.9 888.2,359.9 888.7,362.6 888.8,362.6 889.7,362.6 890.0,362.6 890.1,362.6 890.1,362.6 890.4,362.6 890.4,362.6 890.7,381.9 890.8,369.7 891.8,369.8 891.9,369.8 892.0,369.8 892.3,372.4 893.2,369.3 893.2,369.3 893.5,374.8 893.5,369.3 893.6,369.3 893.9,377.2 894.0,369.2 894.1,360.4 894.5,363.2 894.5,363.2 894.6,363.2 894.9,363.2 895.1,363.2 895.3,363.2 895.3,363.2 895.7,375.8 896.1,364.2 896.7,368.6 897.0,380.2 897.0,372.3 897.1,373.2 897.3,395.7 897.4,384.1 898.3,380.5 898.6,379.3 899.1,397.9 899.2,385.8 899.6,385.2 900.2,382.4 900.4,382.4 901.3,382.4 901.4,382.4 902.0,394.2 902.3,382.4 902.6,394.2 902.8,382.5 904.1,382.5 904.6,382.5 904.6,382.5 904.7,382.5 905.2,382.9 905.3,384.3 905.5,394.8 905.6,384.3 905.9,384.4 906.3,388.0 906.4,388.0 906.6,406.2 908.0,388.6 908.2,388.6 908.3,388.6 908.8,388.6 908.9,391.2 909.2,395.8 909.4,395.0 910.1,395.8 911.1,395.0 911.4,395.0 911.4,395.8 911.8,395.1 911.9,395.1 913.3,395.0 913.5,395.0 913.6,395.0 913.8,395.0 915.6,393.3 915.8,393.1 916.2,385.4 917.3,385.4 917.6,385.4 917.6,385.4 918.0,385.4 918.3,385.4 918.4,385.4 918.4,382.4 919.6,382.4 919.6,382.4 919.7,382.4 919.8,382.4 919.8,364.5 920.1,378.5 920.8,365.0 920.9,365.0 921.1,364.9 921.3,365.0 921.3,365.0 921.5,364.9 921.6,360.2 922.6,360.2 922.9,371.3 924.3,360.2 924.7,350.9 925.7,344.3 925.8,344.3 926.1,344.3 926.1,344.3 926.1,342.1 926.3,342.1 926.6,342.1 926.7,342.1 927.6,342.1 927.7,342.2 927.7,342.2 927.7,354.0 928.2,353.2 928.3,353.2 928.4,353.2 929.8,353.0 930.1,353.1 930.4,348.9 931.4,353.2 931.6,353.2 931.6,368.4 931.8,353.4 931.8,353.4 933.3,347.0 934.1,347.8 934.1,348.1 934.3,348.1 934.4,348.1 934.8,346.8 935.4,346.9 935.6,316.6 935.7,316.6 936.3,334.5 936.5,334.5 936.5,334.5 937.1,334.5 937.5,334.6 937.7,334.6 938.0,334.6 938.0,334.5 938.0,328.8 938.0,329.7 938.0,328.9 938.1,328.9 938.1,328.8 938.1,326.5 938.1,324.7 938.1,321.2 938.1,320.3 938.1,319.5 938.1,316.6 938.1,316.5 938.1,316.6 938.3,316.2 938.3,316.2 938.3,316.6 938.4,316.6 938.4,316.6 938.5,316.5 938.5,316.6 938.5,316.6 938.5,316.6 938.7,343.6 938.7,347.8 938.8,336.2 939.0,336.3 939.1,336.3 939.1,336.2 939.1,334.8 939.1,346.9 939.2,335.0 939.5,337.8 939.9,337.8 939.9,337.8 940.6,308.5 940.7,308.5 941.2,295.8 941.4,312.6 941.4,312.6 942.0,321.4 942.0,307.6 942.1,319.7 942.2,319.7 942.3,310.9 942.6,314.4 942.6,314.4 943.6,321.4 943.6,317.8 943.8,321.4 944.4,308.6 944.6,303.0 944.6,297.7 944.8,298.4 944.9,294.4 945.2,292.9 945.4,282.1 945.5,283.9 945.7,281.2 945.9,276.0 946.6,271.2 946.6,268.1 946.7,268.1 947.7,271.5 948.4,266.6 948.4,261.9 948.4,258.1 948.4,258.0 948.4,257.3 948.4,254.1 948.4,254.1 948.4,252.6 948.4,248.0 948.4,243.4 948.4,243.4 948.5,243.4 948.5,243.3 948.5,242.4 948.5,241.6 948.5,241.6 948.5,241.6 948.5,241.6 948.5,241.6 948.5,241.6 948.5,241.6 948.5,241.6 948.5,241.5 948.5,238.7 948.5,234.0 948.5,229.4 948.5,228.8 948.5,224.7 948.5,223.5 948.5,222.5 948.5,220.1 948.5,215.4 948.5,210.9 948.5,210.8 948.5,210.8 948.5,206.1 948.5,203.7 948.5,201.5 948.5,198.6 948.5,197.4 948.5,196.9 948.5,193.2 948.5,193.1 948.5,192.2 948.5,187.5 948.5,182.9 948.5,180.9 948.5,178.3 948.5,176.1 948.5,176.0 948.5,173.6 948.5,172.9 948.5,172.0 948.5,169.0 948.5,166.7 948.5,164.3 948.5,159.7 948.5,155.0 948.5,151.4 948.5,150.9 948.5,150.9 948.5,153.8 948.5,193.2 948.5,155.9 948.5,155.4 948.5,151.0 948.5,150.9 948.5,150.4 948.5,148.9 948.6,148.9 948.6,152.8 948.6,152.6 948.6,145.7 948.6,141.1 948.6,136.4 948.6,131.8 948.6,127.1 948.6,122.5 948.6,141.3 948.6,120.7 948.6,117.8 948.6,114.6 948.6,114.6 948.6,113.2 948.6,108.5 948.6,106.2 948.7,123.1 948.7,123.2 948.7,122.3 948.7,106.6 948.7,133.7 948.7,133.7 948.7,107.4 948.8,148.4 948.8,148.4 948.8,148.2 948.8,148.2 948.8,148.2 948.8,138.7 949.0,105.6 949.0,105.6 949.0,105.6 949.0,105.6 949.0,105.6 949.0,105.6 949.4,106.6 949.5,129.3 950.1,154.0 950.3,133.4 950.4,110.8 950.4,110.8 950.4,105.6 950.4,105.6 950.4,105.6 950.4,103.9 950.4,102.0 950.5,101.8 950.6,99.3 950.6,94.6 950.6,89.9 950.6,88.6 950.7,105.4 950.8,120.4 951.3,139.5 951.7,150.5 951.7,150.9 951.7,150.9 951.8,151.5 951.8,151.5 951.9,151.7 952.1,161.9 952.4,172.8 952.8,194.4 953.0,181.4 953.2,172.8 953.4,169.5 954.0,171.2 954.1,172.1 954.2,172.8 954.2,172.8 954.6,192.3 954.6,194.5 954.6,194.5 954.6,194.5 954.6,194.5 954.9,193.3 955.5,152.9 955.7,174.2 956.0,194.5 956.1,194.5 956.1,194.5 956.3,207.9 956.4,218.1 956.6,243.3 957.0,202.4 957.1,207.2 957.5,226.0 957.9,234.4 958.2,247.7 958.3,261.5 958.3,277.9 958.4,256.5 958.4,276.4 958.5,276.4 958.6,267.3 958.9,247.2 959.3,260.1 959.6,271.5 959.6,257.8 959.9,253.7 960.3,240.4 960.6,228.7 960.6,202.3 961.6,219.6 961.9,219.6 962.0,219.8 962.3,219.8 962.6,219.8 962.8,219.8 962.8,219.8 962.8,219.9 962.8,219.9 963.2,240.3 963.2,240.2 963.4,240.2 963.8,241.1 964.5,241.1 964.5,241.1 964.9,241.1 965.3,241.1 965.7,241.1 965.8,241.1 965.8,241.1 966.0,209.1 966.0,209.1 966.0,203.6" fill="none" stroke="#cbd5e1" stroke-width="1"/>
  <rect x="72.0" y="426.1" width="637.5" height="46.4" fill="#64748b" fill-opacity="0.08"/><line x1="72.0" y1="426.1" x2="709.5" y2="426.1" stroke="#2563eb" stroke-width="1"/><line x1="72.0" y1="472.5" x2="709.5" y2="472.5" stroke="#dc2626" stroke-width="1"/><line x1="72.0" y1="333.3" x2="709.5" y2="333.3" stroke="#16a34a" stroke-width="1.3" stroke-dasharray="7 4"/><line x1="72.0" y1="565.4" x2="709.5" y2="565.4" stroke="#16a34a" stroke-width="1.3" stroke-dasharray="7 4"/><polyline points="72.0,426.1 418.5,472.5 421.4,426.1 627.8,472.5 709.0,426.1" fill="none" stroke="#94a3b8" stroke-width="1.2"/><line x1="72.0" y1="426.1" x2="418.5" y2="472.5" stroke="#dc2626" stroke-width="1" stroke-opacity="0.5"/><circle cx="418.5" cy="472.5" r="3" fill="#dc2626"/><text x="72.0" y="412.1" text-anchor="middle" font-size="10.5" fill="#475569">L 0.0889</text><circle cx="72.0" cy="426.1" r="9" fill="#e7dcc4" stroke="#16a34a" stroke-width="2"/><text x="72.0" y="429.6" text-anchor="middle" font-size="10" font-weight="700" fill="#3f3f46">1</text><line x1="418.5" y1="472.5" x2="421.4" y2="426.1" stroke="#dc2626" stroke-width="1" stroke-opacity="0.5"/><circle cx="421.4" cy="426.1" r="3" fill="#dc2626"/><text x="418.5" y="458.5" text-anchor="middle" font-size="10.5" fill="#475569">S 0.133</text><circle cx="418.5" cy="472.5" r="9" fill="#e7dcc4" stroke="#dc2626" stroke-width="2"/><text x="418.5" y="476.0" text-anchor="middle" font-size="10" font-weight="700" fill="#3f3f46">2</text><line x1="421.4" y1="426.1" x2="627.8" y2="472.5" stroke="#dc2626" stroke-width="1" stroke-opacity="0.5"/><circle cx="627.8" cy="472.5" r="3" fill="#dc2626"/><text x="421.4" y="412.1" text-anchor="middle" font-size="10.5" fill="#475569">L 0.200</text><circle cx="421.4" cy="426.1" r="9" fill="#e7dcc4" stroke="#16a34a" stroke-width="2"/><text x="421.4" y="429.6" text-anchor="middle" font-size="10" font-weight="700" fill="#3f3f46">3</text><line x1="627.8" y1="472.5" x2="709.0" y2="426.1" stroke="#dc2626" stroke-width="1" stroke-opacity="0.5"/><circle cx="709.0" cy="426.1" r="3" fill="#dc2626"/><text x="627.8" y="458.5" text-anchor="middle" font-size="10.5" fill="#475569">S 0.300</text><circle cx="627.8" cy="472.5" r="9" fill="#e7dcc4" stroke="#dc2626" stroke-width="2"/><text x="627.8" y="476.0" text-anchor="middle" font-size="10" font-weight="700" fill="#3f3f46">4</text><line x1="709.0" y1="426.1" x2="709.5" y2="333.3" stroke="#16a34a" stroke-width="1" stroke-opacity="0.5"/><circle cx="709.5" cy="333.3" r="3" fill="#16a34a"/><text x="709.0" y="412.1" text-anchor="middle" font-size="10.5" fill="#475569">L 0.450</text><circle cx="709.0" cy="426.1" r="9" fill="#e7dcc4" stroke="#16a34a" stroke-width="2"/><text x="709.0" y="429.6" text-anchor="middle" font-size="10" font-weight="700" fill="#3f3f46">5</text><text x="709.5" y="325.3" text-anchor="end" font-size="11.5" font-weight="700" fill="#16a34a">S0 +2.65</text><rect x="709.5" y="312.9" width="14.4" height="46.7" fill="#64748b" fill-opacity="0.08"/><line x1="709.5" y1="312.9" x2="723.9" y2="312.9" stroke="#2563eb" stroke-width="1"/><line x1="709.5" y1="359.6" x2="723.9" y2="359.6" stroke="#dc2626" stroke-width="1"/><line x1="709.5" y1="219.4" x2="723.9" y2="219.4" stroke="#16a34a" stroke-width="1.3" stroke-dasharray="7 4"/><line x1="709.5" y1="453.1" x2="723.9" y2="453.1" stroke="#16a34a" stroke-width="1.3" stroke-dasharray="7 4"/><polyline points="709.5,312.9 711.5,359.6" fill="none" stroke="#94a3b8" stroke-width="1.2"/><line x1="709.5" y1="312.9" x2="711.5" y2="359.6" stroke="#dc2626" stroke-width="1" stroke-opacity="0.5"/><circle cx="711.5" cy="359.6" r="3" fill="#dc2626"/><text x="709.5" y="298.9" text-anchor="middle" font-size="10.5" fill="#475569">L 0.0906</text><circle cx="709.5" cy="312.9" r="9" fill="#e7dcc4" stroke="#16a34a" stroke-width="2"/><text x="709.5" y="316.4" text-anchor="middle" font-size="10" font-weight="700" fill="#3f3f46">1</text><line x1="711.5" y1="359.6" x2="723.9" y2="453.1" stroke="#16a34a" stroke-width="1" stroke-opacity="0.5"/><circle cx="723.9" cy="453.1" r="3" fill="#16a34a"/><text x="711.5" y="345.6" text-anchor="middle" font-size="10.5" fill="#475569">S 0.136</text><circle cx="711.5" cy="359.6" r="9" fill="#e7dcc4" stroke="#dc2626" stroke-width="2"/><text x="711.5" y="363.1" text-anchor="middle" font-size="10" font-weight="700" fill="#3f3f46">2</text><text x="723.9" y="211.4" text-anchor="end" font-size="11.5" font-weight="700" fill="#16a34a">S1 +4.30</text><rect x="725.4" y="404.7" width="215.2" height="46.4" fill="#64748b" fill-opacity="0.08"/><line x1="725.4" y1="404.7" x2="940.6" y2="404.7" stroke="#2563eb" stroke-width="1"/><line x1="725.4" y1="451.1" x2="940.6" y2="451.1" stroke="#dc2626" stroke-width="1"/><line x1="725.4" y1="312.0" x2="940.6" y2="312.0" stroke="#16a34a" stroke-width="1.3" stroke-dasharray="7 4"/><line x1="725.4" y1="543.8" x2="940.6" y2="543.8" stroke="#16a34a" stroke-width="1.3" stroke-dasharray="7 4"/><polyline points="725.4,451.1 794.7,404.7" fill="none" stroke="#94a3b8" stroke-width="1.2"/><line x1="725.4" y1="451.1" x2="794.7" y2="404.7" stroke="#dc2626" stroke-width="1" stroke-opacity="0.5"/><circle cx="794.7" cy="404.7" r="3" fill="#dc2626"/><text x="725.4" y="437.1" text-anchor="middle" font-size="10.5" fill="#475569">S 0.0952</text><circle cx="725.4" cy="451.1" r="9" fill="#e7dcc4" stroke="#dc2626" stroke-width="2"/><text x="725.4" y="454.6" text-anchor="middle" font-size="10" font-weight="700" fill="#3f3f46">1</text><line x1="794.7" y1="404.7" x2="940.6" y2="312.0" stroke="#16a34a" stroke-width="1" stroke-opacity="0.5"/><circle cx="940.6" cy="312.0" r="3" fill="#16a34a"/><text x="794.7" y="390.7" text-anchor="middle" font-size="10.5" fill="#475569">L 0.143</text><circle cx="794.7" cy="404.7" r="9" fill="#e7dcc4" stroke="#16a34a" stroke-width="2"/><text x="794.7" y="408.2" text-anchor="middle" font-size="10" font-weight="700" fill="#3f3f46">2</text><text x="940.6" y="304.0" text-anchor="end" font-size="11.5" font-weight="700" fill="#16a34a">S2 +4.48</text>
  <rect x="982.0" y="68" width="10" height="10" fill="#2563eb"/><text x="998.0" y="77" font-size="12" font-weight="700" fill="#334155">Series 0 · win</text><text x="982.0" y="94" font-size="11.5" fill="#64748b">5 steps · long-start</text><text x="982.0" y="110" font-size="11.5" fill="#16a34a">net +2.65 · gross +4.55</text><rect x="982.0" y="126" width="10" height="10" fill="#dc2626"/><text x="998.0" y="135" font-size="12" font-weight="700" fill="#334155">Series 1 · win</text><text x="982.0" y="152" font-size="11.5" fill="#64748b">2 steps · long-start</text><text x="982.0" y="168" font-size="11.5" fill="#16a34a">net +4.30 · gross +4.67</text><rect x="982.0" y="184" width="10" height="10" fill="#dc2626"/><text x="998.0" y="193" font-size="12" font-weight="700" fill="#334155">Series 2 · win</text><text x="982.0" y="210" font-size="11.5" fill="#64748b">2 steps · short-start</text><text x="982.0" y="226" font-size="11.5" fill="#16a34a">net +4.48 · gross +4.87</text>
  <text x="72" y="626" text-anchor="start" font-size="11" fill="#94a3b8">2019-09-01</text><text x="966" y="626" text-anchor="end" font-size="11" fill="#94a3b8">2019-09-01</text>
</svg>
