<svg xmlns="http://www.w3.org/2000/svg" width="940" height="460" font-family="ui-sans-serif, system-ui, sans-serif" viewBox="0 0 940 460"><rect width="940" height="460" fill="#fff"/><text x="132" y="32" fill="#111827" font-size="16.5" font-weight="700">Januar 2026 — Grosshaendler ($100 Mio. je Markt), Top-15 USDT: Monatsrendite</text><text x="132" y="52" fill="#6b7280" font-size="12.5">bracket-begrenzt: nur wenige Serien/Markt → +3,3% gesamt · zufaelliger Handel · VIP 9</text><line x1="132" x2="132" y1="72" y2="432" stroke="#334155" stroke-width="1.2"/><text x="124" y="88" fill="#374151" font-size="12" text-anchor="end">SOL</text><rect width="635.7" height="14.4" x="132" y="76.8" fill="#16a34a" rx="2"/><text x="773.7" y="88" fill="#334155" font-size="11.5" font-weight="700" text-anchor="start">+18%</text><text x="124" y="112" fill="#374151" font-size="12" text-anchor="end">SUI</text><rect width="227.1" height="14.4" x="132" y="100.8" fill="#16a34a" rx="2"/><text x="365.1" y="112" fill="#334155" font-size="11.5" font-weight="700" text-anchor="start">+7%</text><text x="124" y="136" fill="#374151" font-size="12" text-anchor="end">BTC</text><rect width="188.2" height="14.4" x="132" y="124.8" fill="#16a34a" rx="2"/><text x="326.2" y="136" fill="#334155" font-size="11.5" font-weight="700" text-anchor="start">+5%</text><text x="124" y="160" fill="#374151" font-size="12" text-anchor="end">XRP</text><rect width="179.2" height="14.4" x="132" y="148.8" fill="#16a34a" rx="2"/><text x="317.2" y="160" fill="#334155" font-size="11.5" font-weight="700" text-anchor="start">+5%</text><text x="124" y="184" fill="#374151" font-size="12" text-anchor="end">NEAR</text><rect width="117.7" height="14.4" x="132" y="172.8" fill="#16a34a" rx="2"/><text x="255.7" y="184" fill="#334155" font-size="11.5" font-weight="700" text-anchor="start">+3%</text><text x="124" y="208" fill="#374151" font-size="12" text-anchor="end">ETH</text><rect width="84.4" height="14.4" x="132" y="196.8" fill="#16a34a" rx="2"/><text x="222.4" y="208" fill="#334155" font-size="11.5" font-weight="700" text-anchor="start">+2%</text><text x="124" y="232" fill="#374151" font-size="12" text-anchor="end">BNB</text><rect width="80.9" height="14.4" x="132" y="220.8" fill="#16a34a" rx="2"/><text x="218.9" y="232" fill="#334155" font-size="11.5" font-weight="700" text-anchor="start">+2%</text><text x="124" y="256" fill="#374151" font-size="12" text-anchor="end">DOGE</text><rect width="62.8" height="14.4" x="132" y="244.8" fill="#16a34a" rx="2"/><text x="200.8" y="256" fill="#334155" font-size="11.5" font-weight="700" text-anchor="start">+2%</text><text x="124" y="280" fill="#374151" font-size="12" text-anchor="end">DOT</text><rect width="46.9" height="14.4" x="132" y="268.8" fill="#16a34a" rx="2"/><text x="184.9" y="280" fill="#334155" font-size="11.5" font-weight="700" text-anchor="start">+1%</text><text x="124" y="304" fill="#374151" font-size="12" text-anchor="end">ADA</text><rect width="22.6" height="14.4" x="132" y="292.8" fill="#16a34a" rx="2"/><text x="160.6" y="304" fill="#334155" font-size="11.5" font-weight="700" text-anchor="start">+1%</text><text x="124" y="328" fill="#374151" font-size="12" text-anchor="end">LINK</text><rect width="19.8" height="14.4" x="132" y="316.8" fill="#16a34a" rx="2"/><text x="157.8" y="328" fill="#334155" font-size="11.5" font-weight="700" text-anchor="start">+1%</text><text x="124" y="352" fill="#374151" font-size="12" text-anchor="end">BCH</text><rect width="18.4" height="14.4" x="132" y="340.8" fill="#16a34a" rx="2"/><text x="156.4" y="352" fill="#334155" font-size="11.5" font-weight="700" text-anchor="start">+1%</text><text x="124" y="376" fill="#374151" font-size="12" text-anchor="end">AVAX</text><rect width="9.7" height="14.4" x="132" y="364.8" fill="#16a34a" rx="2"/><text x="147.7" y="376" fill="#334155" font-size="11.5" font-weight="700" text-anchor="start">+0%</text><text x="124" y="400" fill="#374151" font-size="12" text-anchor="end">LTC</text><rect width="8.3" height="14.4" x="132" y="388.8" fill="#16a34a" rx="2"/><text x="146.3" y="400" fill="#334155" font-size="11.5" font-weight="700" text-anchor="start">+0%</text><text x="124" y="424" fill="#374151" font-size="12" text-anchor="end">TRX</text><rect width="5.6" height="14.4" x="132" y="412.8" fill="#16a34a" rx="2"/><text x="143.6" y="424" fill="#334155" font-size="11.5" font-weight="700" text-anchor="start">+0%</text></svg>