<svg xmlns="http://www.w3.org/2000/svg" width="1000" height="520" font-family="ui-sans-serif, system-ui, sans-serif" viewBox="0 0 1000 520"><rect width="1000" height="520" fill="#fff"/><text x="78" y="28" fill="#111827" font-size="18" font-weight="700">Zone Recovery — ATAUSDT best setting (equity / PnL)</text><text x="78" y="48" fill="#6b7280" font-size="12.5">lev 3 · ratio 3 · gap 20% · maxSteps 4 · maxDD 20% · random · vip 9 · 1 series, 100.0% win · vol $1344587 ($48021/day) · fees $205.72</text><text x="78" y="68" fill="#1d4ed8" font-size="12.5" font-weight="600">USDT · BNB −10% · taker 0.0153%</text><text x="934" y="28" fill="#16a34a" font-size="18" font-weight="700" text-anchor="end">+22395 USDT (+0.02%)</text><line x1="78" x2="934" y1="468" y2="468" stroke="#e5e7eb" stroke-width="1"/><text x="68" y="472" fill="#6b7280" font-size="12" text-anchor="end">0.00</text><line x1="78" x2="934" y1="392" y2="392" stroke="#e5e7eb" stroke-width="1"/><text x="68" y="396" fill="#6b7280" font-size="12" text-anchor="end">21604837</text><line x1="78" x2="934" y1="316" y2="316" stroke="#e5e7eb" stroke-width="1"/><text x="68" y="320" fill="#6b7280" font-size="12" text-anchor="end">43209675</text><line x1="78" x2="934" y1="240" y2="240" stroke="#e5e7eb" stroke-width="1"/><text x="68" y="244" fill="#6b7280" font-size="12" text-anchor="end">64814512</text><line x1="78" x2="934" y1="164" y2="164" stroke="#e5e7eb" stroke-width="1"/><text x="68" y="168" fill="#6b7280" font-size="12" text-anchor="end">86419349</text><line x1="78" x2="934" y1="88" y2="88" stroke="#e5e7eb" stroke-width="1"/><text x="68" y="92" fill="#6b7280" font-size="12" text-anchor="end">108024186</text><line x1="78" x2="934" y1="116.2" y2="116.2" stroke="#9ca3af" stroke-dasharray="6 4" stroke-width="1.5"/><text x="934" y="110.2" fill="#6b7280" font-size="11" text-anchor="end">start 100000000</text><polyline fill="none" stroke="#d97706" stroke-linejoin="round" stroke-width="1.2" points="78 158.9 78.2 144 78.5 144 78.7 144 79 144 79.3 144 79.6 151.4 80 144 80.3 144 80.6 144 80.9 144 81.2 144 81.5 136.5 81.6 129.1 81.7 136.5 81.9 144 82.3 144 82.6 144 82.9 136.5 83.3 129.1 83.8 136.5 84 129.1 84.4 121.7 84.8 129.1 85.3 136.5 85.5 144 85.9 136.5 86.4 136.5 86.9 136.5 87.2 136.5 87.7 129.1 88.1 136.5 88.7 136.5 89.2 121.7 89.7 129.1 90.2 136.5 90.6 129.1 91.1 121.7 91.5 136.5 91.9 151.4 92.1 144 92.5 151.4 93 144 93.4 151.4 93.7 151.4 94 151.4 94.4 144 94.7 144 95.1 144 95.6 144 96.1 151.4 96.6 151.4 96.9 144 97.2 158.9 97.5 166.3 97.8 173.8 97.9 173.8 98.2 181.2 98.5 173.8 98.6 181.2 98.9 166.3 99.4 181.2 99.8 166.3 100.1 173.8 100.4 181.2 100.8 181.2 101 166.3 101.4 151.4 101.7 166.3 102 166.3 102.4 166.3 102.9 158.9 103.3 166.3 103.6 166.3 104 181.2 104.4 166.3 104.9 173.8 105.3 181.2 105.8 166.3 106.2 173.8 106.5 173.8 106.9 158.9 107.3 173.8 107.5 196.1 107.6 181.2 107.9 181.2 108.3 173.8 108.6 181.2 109 166.3 109.3 158.9 109.6 151.4 109.9 158.9 110.3 166.3 110.6 158.9 111.2 158.9 111.6 166.3 111.8 166.3 112.2 173.8 112.6 173.8 112.9 188.7 113 211 113.1 203.5 113.3 203.5 113.4 181.2 113.7 166.3 113.9 188.7 114.2 166.3 114.4 166.3 114.6 173.8 115 181.2 115.4 188.7 115.7 203.5 115.9 203.5 116.1 203.5 116.4 196.1 116.6 196.1 117 203.5 117.2 196.1 117.5 188.7 117.8 188.7 118.1 188.7 118.5 173.8 118.8 188.7 119.2 181.2 119.5 188.7 119.9 173.8 120.3 181.2 120.6 181.2 120.9 166.3 121.2 166.3 121.4 173.8 121.9 173.8 122.5 173.8 123 173.8 123.6 166.3 124 173.8 124.6 173.8 125 166.3 125.6 166.3 125.9 166.3 126.5 166.3 126.9 158.9 127.1 158.9 127.4 158.9 127.8 151.4 128.3 144 128.7 144 129.1 151.4 129.4 144 129.7 144 130.2 144 130.6 144 131 144 131.4 151.4 131.8 151.4 132.2 144 132.8 151.4 133.4 151.4 133.9 151.4 134.6 151.4 135.3 158.9 135.9 158.9 136.7 151.4 137.3 158.9 137.7 151.4 138.4 151.4 139 151.4 139.4 158.9 140.1 151.4 140.4 158.9 140.8 158.9 141.3 158.9 141.8 158.9 142.3 166.3 142.9 166.3 143.2 166.3 143.6 158.9 144.1 151.4 144.3 158.9 144.6 158.9 145 158.9 145.5 151.4 146.1 144 146.6 151.4 147.1 158.9 147.6 144 148.1 158.9 148.5 151.4 148.8 136.5 149.2 144 149.5 151.4 150 136.5 150.6 144 151 158.9 151.4 158.9 152 151.4 152.4 158.9 153 158.9 153.5 158.9 153.9 158.9 154.5 151.4 154.9 151.4 155.3 151.4 155.7 144 156.1 158.9 156.7 151.4 157.1 151.4 157.6 151.4 158.1 158.9 158.3 166.3 158.6 166.3 158.9 151.4 159.5 158.9 159.7 158.9 160.3 166.3 160.7 173.8 161.2 181.2 161.7 181.2 162.1 181.2 162.3 188.7 162.5 203.5 162.6 211 162.8 211 163.1 218.4 163.3 218.4 163.4 218.4 163.6 196.1 163.8 188.7 164.1 181.2 164.4 173.8 164.7 181.2 165.1 181.2 165.3 158.9 165.4 151.4 165.6 151.4 165.9 151.4 166.1 136.5 166.3 158.9 166.7 166.3 167.2 158.9 167.6 166.3 168.1 166.3 168.4 181.2 168.8 181.2 169.1 181.2 169.5 196.1 169.8 181.2 170.3 181.2 170.8 173.8 171.1 166.3 171.6 173.8 172.1 173.8 172.7 173.8 173.1 173.8 173.6 173.8 173.9 166.3 174.7 166.3 175.3 166.3 175.8 166.3 176.6 158.9 177.1 166.3 177.5 173.8 178 166.3 178.6 173.8 179.2 173.8 179.7 166.3 180.1 173.8 180.6 173.8 181.1 173.8 181.7 173.8 182.1 173.8 182.6 173.8 183.2 181.2 183.7 181.2 184 188.7 184.6 181.2 185.1 188.7 185.6 188.7 186.4 188.7 186.8 181.2 187.3 188.7 187.6 203.5 187.9 196.1 188.2 211 188.4 203.5 188.7 203.5 189 203.5 189.4 196.1 189.6 211 189.9 211 190.2 203.5 190.6 225.9 190.8 211 191.2 218.4 191.3 211 191.6 218.4 192.1 218.4 192.7 218.4 193 218.4 193.5 211 193.9 203.5 194.3 196.1 194.7 203.5 195.1 188.7 195.4 188.7 195.8 188.7 196.2 196.1 196.8 196.1 197.4 203.5 197.9 211 198.4 188.7 199 196.1 199.5 203.5 199.8 188.7 200.4 196.1 200.8 188.7 201.3 188.7 201.9 188.7 202.3 188.7 202.7 188.7 203.2 203.5 203.7 188.7 204.3 211 204.9 203.5 205.5 218.4 205.9 218.4 206.3 211 206.8 218.4 207.3 218.4 207.8 218.4 208.2 225.9 208.8 218.4 209.2 225.9 209.5 218.4 210 218.4 210.4 225.9 210.8 218.4 211.3 211 211.9 218.4 212.2 211 212.5 218.4 213.3 218.4 213.9 225.9 214.2 240.8 214.3 233.3 214.6 240.8 214.8 248.2 214.9 255.7 215.1 255.7 215.4 248.2 215.7 248.2 216.1 255.7 216.5 255.7 216.7 255.7 217 255.7 217.4 263.1 217.7 255.7 218.2 255.7 218.6 263.1 219.1 240.8 219.5 270.6 219.6 270.6 219.7 278 219.9 285.4 220 292.9 220.1 292.9 220.1 307.8 220.2 307.8 220.2 300.3 220.3 300.3 220.4 292.9 220.5 278 220.7 300.3 220.8 292.9 221 285.4 221.2 278 221.4 278 221.8 278 222.1 285.4 222.4 300.3 222.7 300.3 223.1 307.8 223.4 307.8 223.6 307.8 223.7 322.7 223.9 322.7 224.1 322.7 224.3 315.2 224.6 307.8 224.8 307.8 225.2 307.8 225.5 322.7 225.9 315.2 226.2 330.1 226.3 359.9 226.4 352.5 226.5 345 226.6 345 226.7 345 226.8 345 227.1 337.6 227.2 330.1 227.5 345 228 352.5 228.4 345 228.7 359.9 229.1 345 229.6 345 230 337.6 230.6 345 230.9 367.3 231.1 367.3 231.2 397.1 231.2 389.7 231.3 419.5 231.3 404.6 231.5 397.1 231.5 389.7 231.7 352.5 231.8 337.6 232 337.6 232.2 345 232.5 337.6 232.7 337.6 232.9 337.6 233.2 322.7 233.5 330.1 233.8 330.1 234.2 337.6 234.7 330.1 235 345 235.4 330.1 235.9 337.6 236.3 330.1 236.7 330.1 237.2 330.1 237.5 322.7 237.9 322.7 238.2 315.2 238.5 307.8 238.8 307.8 239.1 315.2 239.5 322.7 239.8 322.7 240.3 322.7 240.8 315.2 241.2 322.7 241.5 315.2 242 322.7 242.5 322.7 242.9 322.7 243.1 307.8 243.6 300.3 243.9 307.8 244.3 307.8 244.7 307.8 245.2 307.8 245.5 300.3 245.9 307.8 246.3 307.8 246.7 307.8 247 300.3 247.4 292.9 247.8 300.3 248.1 285.4 248.5 285.4 248.8 292.9 249.3 292.9 249.6 278 249.7 263.1 249.9 278 250.1 270.6 250.3 278 250.5 278 250.9 270.6 251.3 263.1 251.5 248.2 251.7 255.7 252 255.7 252.3 248.2 252.6 248.2 252.8 248.2 253.1 240.8 253.4 240.8 253.8 240.8 254.1 255.7 254.5 248.2 254.7 255.7 255 255.7 255.4 255.7 255.7 255.7 256.1 248.2 256.5 255.7 257.1 248.2 257.7 255.7 258.3 248.2 258.8 248.2 259.2 255.7 259.8 248.2 260.3 240.8 260.7 255.7 261.2 255.7 261.6 248.2 262 255.7 262.2 248.2 262.5 255.7 262.8 255.7 262.9 255.7 263.1 255.7 263.7 255.7 264.1 248.2 264.7 255.7 265.3 248.2 265.6 248.2 266.4 248.2 266.7 240.8 267.1 240.8 267.6 248.2 268.1 240.8 268.8 255.7 269.3 255.7 269.6 248.2 270.2 263.1 270.4 270.6 270.7 292.9 270.9 285.4 271.2 278 271.6 278 271.9 278 272.3 270.6 272.8 270.6 273.2 278 273.6 278 274 278 274.6 270.6 274.8 270.6 275.3 278 276.1 270.6 276.4 278 276.8 263.1 277.2 248.2 277.4 248.2 277.5 248.2 277.8 248.2 278.1 248.2 278.5 255.7 278.6 248.2 278.8 255.7 279.2 255.7 279.6 255.7 280.1 255.7 280.7 255.7 281.2 255.7 281.6 248.2 281.9 255.7 282.1 240.8 282.2 233.3 282.3 240.8 282.6 248.2 283.1 248.2 283.5 248.2 283.9 248.2 284.6 248.2 285.1 233.3 285.5 233.3 286 240.8 286.4 240.8 286.8 240.8 287.3 233.3 287.8 240.8 288.2 233.3 288.6 233.3 288.8 233.3 289.2 233.3 289.6 233.3 290 240.8 290.6 240.8 291.1 240.8 291.6 240.8 292.1 240.8 292.7 240.8 293.4 248.2 294.1 240.8 294.7 248.2 295.4 248.2 296.1 248.2 296.7 248.2 297.1 255.7 297.6 248.2 298.3 248.2 298.8 248.2 299.4 263.1 299.9 255.7 300.4 263.1 301.1 263.1 301.6 263.1 301.9 270.6 302.3 263.1 302.8 270.6 303.2 255.7 303.4 263.1 303.8 255.7 304.1 255.7 304.5 270.6 305 263.1 305.7 263.1 306.1 263.1 306.6 263.1 307.2 248.2 307.6 248.2 308.1 255.7 308.7 255.7 309.1 255.7 309.5 255.7 309.8 255.7 310.1 263.1 310.6 248.2 311.1 263.1 311.4 255.7 311.9 263.1 312.5 263.1 313.1 263.1 313.4 270.6 313.7 278 314 270.6 314.4 278 314.8 278 315.3 278 315.7 270.6 316.2 263.1 316.7 278 317.2 263.1 317.6 278 317.9 263.1 318.3 263.1 318.6 278 319.1 270.6 319.6 285.4 320.2 270.6 320.6 278 321.2 278 321.5 255.7 321.8 278 322.3 270.6 322.7 270.6 323.1 270.6 323.5 278 324 278 324.4 270.6 324.8 285.4 325.1 270.6 325.7 278 326 278 326.5 278 326.9 270.6 327.4 270.6 327.7 263.1 328 270.6 328.2 270.6 328.6 263.1 329.1 263.1 329.9 270.6 330.5 270.6 331.1 278 331.8 278 332.3 278 332.8 278 333.1 285.4 333.5 292.9 333.9 285.4 334.4 292.9 335.1 292.9 335.2 292.9 335.7 300.3 336 300.3 336.4 300.3 336.7 292.9 337.3 292.9 337.8 300.3 338.4 300.3 338.8 292.9 339.3 300.3 339.6 292.9 340.1 300.3 340.7 300.3 341.1 300.3 341.5 292.9 341.8 285.4 342.3 292.9 343 285.4 343.4 285.4 343.9 278 344.2 263.1 344.5 270.6 345 263.1 345.2 263.1 345.6 263.1 345.9 270.6 346.3 263.1 346.7 270.6 347.2 263.1 347.8 263.1 348.3 263.1 348.8 263.1 349.2 263.1 349.7 270.6 350.1 270.6 350.5 270.6 351.1 263.1 351.8 270.6 352.7 270.6 353.3 278 353.9 270.6 354.5 270.6 355 270.6 355.5 263.1 356.1 270.6 356.6 270.6 357.1 278 357.4 278 357.8 292.9 358.1 292.9 358.3 278 358.7 278 358.9 285.4 359.7 285.4 360.2 278 360.8 285.4 361.3 285.4 361.9 292.9 362.4 292.9 362.9 292.9 363.7 300.3 364.1 300.3 364.5 292.9 364.7 292.9 365.1 292.9 365.5 300.3 366.1 292.9 366.7 300.3 367.3 300.3 368.3 300.3 369 300.3 369.5 300.3 370 292.9 370.5 292.9 371.2 292.9 371.6 292.9 372.2 300.3 372.6 292.9 372.9 292.9 373.1 300.3 373.6 292.9 374.1 300.3 374.6 292.9 375.3 292.9 375.7 292.9 376.2 285.4 376.9 300.3 377.4 300.3 378.1 300.3 378.5 292.9 379.1 292.9 379.6 307.8 380 307.8 380.4 300.3 380.8 307.8 381.3 307.8 382 292.9 382.5 300.3 383 300.3 383.6 300.3 384.2 292.9 384.9 292.9 385.5 300.3 385.8 300.3 386.4 292.9 387 300.3 387.5 292.9 388 315.2 388.4 300.3 389 300.3 389.5 307.8 389.9 315.2 390.2 315.2 390.4 315.2 390.7 315.2 391.2 315.2 391.5 315.2 391.9 322.7 392.4 322.7 392.6 330.1 392.9 337.6 393.3 330.1 393.6 330.1 394 330.1 394.6 330.1 395.3 330.1 395.9 322.7 396.6 337.6 397.1 337.6 397.6 345 397.9 337.6 398.4 330.1 398.9 330.1 399.4 322.7 399.9 322.7 400.3 322.7 400.8 322.7 401.2 322.7 401.6 307.8 401.8 300.3 402.1 300.3 402.5 307.8 403.1 330.1 403.4 322.7 403.8 322.7 404.3 330.1 404.7 315.2 405.1 330.1 405.5 330.1 405.9 322.7 406.2 315.2 406.6 322.7 407 315.2 407.3 307.8 407.6 300.3 408 315.2 408.3 300.3 408.9 300.3 409.3 307.8 409.9 307.8 410.6 307.8 411.1 300.3 411.4 292.9 411.8 285.4 412 292.9 412.4 292.9 412.9 300.3 413.4 300.3 413.9 300.3 414.4 300.3 414.8 300.3 415.2 285.4 415.7 292.9 416.1 278 416.6 285.4 416.9 285.4 417.5 285.4 418.1 285.4 418.5 285.4 419.1 278 419.7 270.6 420.2 270.6 420.8 278 421.2 278 422 278 422.7 270.6 423.1 270.6 423.6 270.6 424.5 270.6 425.1 263.1 425.4 263.1 425.9 263.1 426.6 263.1 427.1 263.1 427.6 255.7 428.3 255.7 428.7 255.7 429 255.7 429.5 255.7 429.9 255.7 430.3 255.7 430.7 270.6 431.3 263.1 431.6 270.6 432 278 432.4 270.6 433 278 433.5 278 434.2 278 434.7 285.4 435 292.9 435.5 285.4 435.9 285.4 436.2 300.3 436.8 285.4 437.2 300.3 437.7 292.9 438.3 292.9 438.8 292.9 439.3 278 439.8 285.4 440.4 285.4 440.8 278 441.2 278 441.9 285.4 442.4 278 443 285.4 443.5 278 444.2 278 444.8 270.6 445.1 278 445.6 270.6 446.3 278 447.1 278 447.8 278 448.6 278 449.3 285.4 449.6 278 450.3 278 450.9 285.4 451.5 285.4 451.8 292.9 452 292.9 452 292.9 452.1 292.9 452.1 292.9 452.1 292.9 452.1 285.4 452.1 278 452.2 278 452.2 278 452.2 278 452.2 292.9 452.2 292.9 452.3 292.9 452.3 292.9 452.3 292.9 452.3 285.4 452.3 285.4 452.4 285.4 452.4 278 452.4 278 452.4 278 452.4 278 452.4 292.9 452.5 292.9 452.5 292.9 452.6 292.9 452.6 292.9 452.6 285.4 452.6 278 452.7 278 452.7 278 452.7 292.9 452.7 292.9 452.7 292.9 453.5 285.4 454 285.4 454.4 278 454.9 285.4 455.6 278 456 270.6 456.4 270.6 457.1 278 457.7 270.6 458.2 263.1 458.5 263.1 459 270.6 459.8 270.6 460.5 278 461.1 270.6 461.5 270.6 462.1 263.1 462.7 270.6 463.1 263.1 463.5 263.1 463.9 263.1 464.2 255.7 464.3 255.7 464.3 255.7 464.5 248.2 464.5 248.2 464.5 255.7 464.5 255.7 464.5 248.2 464.6 240.8 464.6 240.8 464.6 248.2 464.6 248.2 464.6 240.8 464.6 240.8 464.6 233.3 464.7 233.3 464.7 233.3 464.7 233.3 464.7 233.3 464.7 233.3 464.7 233.3 464.8 233.3 464.8 233.3 464.8 240.8 464.8 233.3 464.8 248.2 464.9 248.2 464.9 248.2 464.9 248.2 464.9 248.2 465 248.2 465 248.2 465 248.2 465 248.2 465.1 248.2 465.2 248.2 465.2 248.2 465.3 255.7 465.3 255.7 465.3 255.7 465.3 255.7 465.3 248.2 465.4 248.2 465.4 248.2 465.4 248.2 465.4 240.8 465.4 233.3 465.5 233.3 465.5 233.3 465.5 233.3 465.5 233.3 465.5 233.3 465.5 233.3 465.5 233.3 465.6 233.3 465.6 240.8 465.6 248.2 465.6 248.2 465.6 248.2 465.6 248.2 465.7 248.2 466.2 240.8 466.6 240.8 466.9 233.3 467.2 240.8 467.9 240.8 468.4 233.3 469.2 233.3 469.4 233.3 469.8 233.3 470.3 233.3 470.7 240.8 471.5 233.3 471.7 225.9 472.5 233.3 473.1 225.9 473.3 225.9 473.8 225.9 474.2 233.3 474.7 233.3 475.2 240.8 475.6 233.3 476.2 233.3 476.6 225.9 477.3 233.3 477.9 233.3 478.3 225.9 478.7 225.9 478.8 240.8 478.8 240.8 478.8 240.8 478.9 225.9 478.9 225.9 478.9 240.8 478.9 240.8 478.9 240.8 479 240.8 479 240.8 479.1 225.9 479.2 225.9 479.2 225.9 479.3 233.3 479.3 233.3 479.3 240.8 479.3 240.8 479.3 240.8 479.4 240.8 479.4 233.3 479.4 225.9 479.4 225.9 479.4 233.3 479.5 240.8 479.5 240.8 479.5 233.3 479.5 225.9 479.5 225.9 479.5 225.9 479.6 225.9 479.6 233.3 479.6 233.3 479.6 240.8 479.6 240.8 479.6 240.8 479.7 240.8 479.7 233.3 479.7 233.3 479.7 233.3 479.7 233.3 479.8 233.3 479.8 225.9 479.8 225.9 479.8 225.9 479.8 225.9 479.8 240.8 479.9 233.3 479.9 248.2 479.9 248.2 479.9 248.2 479.9 248.2 479.9 248.2 480 248.2 480.4 240.8 480.8 233.3 481.2 233.3 481.8 240.8 482.6 233.3 483.1 233.3 483.6 240.8 484.1 240.8 484.4 233.3 484.9 240.8 485.6 233.3 486 233.3 486.6 233.3 487.2 225.9 487.8 225.9 488.3 225.9 489 225.9 489.5 233.3 490 211 490.5 218.4 490.8 218.4 491.1 218.4 491.7 225.9 492.2 225.9 492.8 233.3 493.2 225.9 493.9 225.9 494.5 218.4 494.8 211 495.4 218.4 495.4 225.9 495.4 225.9 495.4 225.9 495.4 211 495.5 211 495.5 211 495.5 211 495.5 211 495.5 211 495.5 211 495.5 218.4 495.6 218.4 495.6 218.4 495.6 218.4 495.6 225.9 495.7 225.9 495.7 225.9 495.7 225.9 495.7 225.9 495.7 225.9 495.7 211 495.7 211 495.8 211 495.8 211 495.8 211 495.8 211 495.8 211 495.8 211 495.9 211 495.9 211 495.9 211 495.9 218.4 495.9 225.9 496 225.9 496 225.9 496 225.9 496 225.9 496 225.9 496 225.9 496.1 211 496.1 211 496.1 211 496.2 218.4 496.7 211 497.1 218.4 497.5 211 497.9 211 498.4 203.5 498.9 211 499.2 211 499.8 203.5 500.2 196.1 500.7 196.1 501.1 196.1 501.6 203.5 502.2 196.1 502.8 196.1 503.5 203.5 504 203.5 504.5 196.1 505.1 203.5 505.4 211 506.1 196.1 506.6 211 507.3 203.5 507.7 218.4 508.3 218.4 508.9 218.4 509.6 218.4 510.1 218.4 510.6 225.9 510.9 225.9 511.2 225.9 511.5 218.4 511.9 225.9 512.4 218.4 512.4 225.9 512.5 225.9 512.5 225.9 512.5 225.9 512.5 218.4 512.6 211 512.6 211 512.6 211 512.6 211 512.6 211 512.7 218.4 512.7 225.9 512.7 225.9 512.7 225.9 512.7 225.9 512.7 225.9 512.8 225.9 512.8 225.9 512.8 225.9 512.8 211 512.8 211 512.9 225.9 512.9 225.9 512.9 211 513 211 513 211 513 211 513 211 513.1 218.4 513.1 225.9 513.1 225.9 513.1 218.4 513.1 225.9 513.3 218.4 513.3 225.9 513.4 225.9 513.4 225.9 513.4 211 513.4 211 513.4 211 513.4 211 513.5 211 513.5 211 513.5 218.4 513.5 225.9 513.5 225.9 513.5 225.9 513.7 225.9 514.1 225.9 514.6 225.9 515 218.4 515.4 218.4 516.1 211 516.4 218.4 517 233.3 517.4 233.3 517.7 225.9 518.3 225.9 518.7 225.9 519.2 225.9 519.5 225.9 520 225.9 520.4 225.9 521.1 233.3 521.6 225.9 522 225.9 522.4 240.8 522.7 248.2 523 248.2 523.4 248.2 523.7 255.7 524.1 255.7 524.6 248.2 525.2 255.7 525.5 255.7 525.5 255.7 525.5 255.7 525.6 248.2 525.6 248.2 525.6 248.2 525.6 248.2 525.6 248.2 525.7 248.2 525.7 248.2 525.7 240.8 525.7 240.8 525.7 240.8 525.7 240.8 525.7 240.8 525.8 240.8 525.8 248.2 526.1 248.2 526.4 255.7 526.4 255.7 526.5 255.7 526.5 255.7 526.5 248.2 526.5 248.2 526.6 248.2 526.6 248.2 526.6 240.8 526.6 240.8 526.6 240.8 526.7 240.8 526.7 240.8 526.7 240.8 526.7 240.8 526.7 240.8 526.8 255.7 526.8 248.2 526.8 255.7 526.8 255.7 527 255.7 527.2 255.7 527.6 255.7 527.7 248.2 528.1 248.2 528.6 248.2 528.9 263.1 529.2 255.7 529.6 263.1 530 270.6 530.3 263.1 530.6 263.1 531 270.6 531.4 263.1 531.8 263.1 532.3 270.6 532.8 263.1 533.3 263.1 533.8 270.6 534.2 255.7 534.5 263.1 534.9 263.1 535.3 263.1 535.7 263.1 536.2 255.7 536.6 263.1 536.9 255.7 537.4 248.2 537.8 255.7 538.1 255.7 538.6 263.1 539 263.1 539.5 255.7 539.9 248.2 540.3 248.2 540.8 248.2 541.6 248.2 542 248.2 542.6 248.2 543 248.2 543.4 255.7 543.9 255.7 544.3 255.7 545 248.2 545.5 248.2 546 248.2 546.5 248.2 546.9 248.2 547.8 248.2 548.7 248.2 549.4 248.2 550.2 248.2 550.8 255.7 551.4 248.2 551.8 248.2 552.3 255.7 552.7 240.8 553.2 233.3 553.6 233.3 553.8 240.8 554.4 240.8 555.1 240.8 555.7 233.3 556.1 233.3 556.7 240.8 557.2 225.9 557.7 233.3 558.1 233.3 558.4 233.3 558.9 233.3 559.3 233.3 559.7 233.3 560.2 225.9 560.5 233.3 560.9 233.3 561.3 233.3 561.6 225.9 562 225.9 562.3 218.4 562.8 218.4 563.2 218.4 563.5 218.4 563.7 218.4 564 218.4 564.2 218.4 564.5 211 564.7 211 565.1 218.4 565.6 211 566.1 211 566.7 211 567.1 218.4 567.3 218.4 567.7 218.4 568.2 211 568.4 211 568.8 218.4 569.6 218.4 570.1 218.4 570.4 218.4 570.9 218.4 571.3 211 571.7 218.4 572.1 218.4 572.7 218.4 573 218.4 573.5 218.4 574 218.4 574.3 225.9 574.5 225.9 575 225.9 575.5 225.9 576.1 218.4 576.9 218.4 577.4 218.4 577.8 225.9 578.1 233.3 578.4 225.9 578.9 233.3 579.1 233.3 579.5 233.3 579.9 240.8 580.2 233.3 580.7 240.8 581.3 240.8 581.6 233.3 582.1 233.3 582.4 233.3 582.8 240.8 583.3 240.8 584 233.3 584.1 233.3 584.1 233.3 584.2 233.3 584.2 233.3 584.2 240.8 584.2 240.8 584.2 240.8 584.2 240.8 584.2 248.2 584.3 248.2 584.3 248.2 584.3 248.2 584.3 248.2 584.3 248.2 584.3 248.2 584.3 240.8 584.3 240.8 584.4 240.8 584.4 240.8 584.4 240.8 584.4 240.8 584.4 233.3 584.5 233.3 584.5 233.3 584.5 233.3 584.5 233.3 584.5 233.3 584.5 233.3 584.5 233.3 584.6 248.2 584.6 248.2 584.6 248.2 584.8 240.8 585.3 233.3 585.3 233.3 585.4 233.3 585.4 233.3 585.4 233.3 585.4 240.8 585.4 240.8 585.4 240.8 585.4 240.8 585.6 240.8 585.8 248.2 585.8 248.2 585.8 248.2 585.8 248.2 585.8 248.2 585.8 240.8 585.8 240.8 585.9 233.3 585.9 233.3 585.9 233.3 585.9 233.3 586.1 248.2 586.6 240.8 587 240.8 587.3 248.2 587.7 233.3 588.1 240.8 588.7 240.8 588.9 240.8 589.2 248.2 589.8 240.8 590.1 240.8 590.5 233.3 591 233.3 591.3 233.3 591.7 233.3 592 233.3 592.5 233.3 592.8 233.3 593.3 240.8 593.7 240.8 594.2 240.8 594.8 240.8 595.3 240.8 595.9 240.8 596.6 248.2 597.2 240.8 597.8 248.2 598.2 248.2 598.4 248.2 598.9 248.2 599.1 255.7 599.8 248.2 600.3 248.2 600.9 248.2 601.4 248.2 601.6 248.2 601.9 248.2 602.4 248.2 602.6 240.8 603 248.2 603.4 240.8 603.7 248.2 604 240.8 604.3 240.8 604.7 240.8 605.1 240.8 605.4 248.2 605.8 240.8 605.9 248.2 606 248.2 606 248.2 606 240.8 606 240.8 606.1 240.8 606.1 240.8 606.1 240.8 606.1 233.3 606.2 233.3 606.2 233.3 606.2 233.3 606.2 233.3 606.2 248.2 606.2 248.2 606.3 248.2 606.3 248.2 606.3 248.2 606.3 248.2 606.3 248.2 606.3 240.8 606.3 248.2 606.3 248.2 606.4 240.8 606.4 240.8 606.4 233.3 606.5 233.3 606.5 233.3 606.5 233.3 606.5 233.3 606.5 233.3 606.5 233.3 606.5 233.3 606.5 233.3 606.6 248.2 606.6 248.2 606.6 248.2 606.6 248.2 606.6 248.2 606.7 248.2 606.7 248.2 606.7 248.2 606.7 248.2 606.7 248.2 606.8 248.2 606.8 248.2 606.8 233.3 606.8 233.3 606.8 233.3 607.1 233.3 607.3 233.3 607.8 240.8 608.1 240.8 608.5 233.3 609.2 240.8 609.5 233.3 610.2 233.3 610.5 240.8 611.1 248.2 611.4 248.2 611.7 248.2 612.1 248.2 612.4 255.7 612.9 255.7 613.3 248.2 613.4 248.2 613.9 248.2 614.2 248.2 614.4 263.1 614.8 248.2 615.2 263.1 615.6 255.7 616 263.1 616.6 263.1 617 255.7 617.6 248.2 617.9 255.7 618.2 263.1 618.6 255.7 618.8 255.7 619.3 263.1 619.7 255.7 620.1 263.1 620.5 263.1 620.9 263.1 621.1 278 621.3 278 621.4 278 621.7 278 622 285.4 622.3 285.4 622.6 285.4 622.9 285.4 623.2 285.4 623.4 285.4 623.6 285.4 624 278 624.2 278 624.5 285.4 624.9 285.4 625.1 278 625.4 285.4 625.8 292.9 626.1 300.3 626.4 292.9 626.8 292.9 627.1 285.4 627.6 292.9 628.4 285.4 628.8 300.3 629.4 300.3 629.6 300.3 630 292.9 630.4 285.4 630.8 292.9 631.3 292.9 631.6 285.4 631.9 292.9 632.4 285.4 633 285.4 633.4 292.9 634 292.9 634.7 292.9 635.1 292.9 635.3 300.3 635.7 300.3 636.3 285.4 637 285.4 637.2 292.9 637.9 285.4 638.2 292.9 638.4 292.9 638.9 292.9 639.3 292.9 639.6 292.9 640 292.9 640.5 292.9 641.1 292.9 641.6 300.3 641.8 292.9 642.1 307.8 642.5 307.8 642.8 307.8 643.3 300.3 643.8 300.3 644.2 300.3 644.5 300.3 645 300.3 645.3 307.8 645.8 307.8 646 315.2 646.2 315.2 646.6 315.2 647 315.2 647.3 307.8 647.5 300.3 647.8 315.2 648 322.7 648.1 322.7 648.1 322.7 648.1 322.7 648.1 307.8 648.1 307.8 648.1 307.8 648.2 307.8 648.2 307.8 648.2 307.8 648.2 315.2 648.2 307.8 648.2 315.2 648.3 315.2 648.3 315.2 648.3 315.2 648.5 322.7 648.5 322.7 648.5 322.7 648.5 322.7 648.5 322.7 648.5 322.7 648.6 307.8 648.6 307.8 648.6 307.8 648.6 307.8 648.6 307.8 648.6 307.8 648.7 315.2 648.7 315.2 648.7 315.2 648.7 322.7 648.7 322.7 648.7 322.7 649 315.2 649.5 307.8 649.9 322.7 650.3 315.2 650.8 315.2 651.1 322.7 651.5 315.2 651.9 307.8 652.4 315.2 652.7 307.8 653.2 315.2 653.7 315.2 654 307.8 654.3 307.8 654.6 307.8 655.2 307.8 655.8 300.3 656.1 307.8 656.6 307.8 657 307.8 657.5 307.8 657.8 307.8 658.2 300.3 658.6 307.8 658.9 307.8 659.3 307.8 659.6 307.8 660.1 307.8 660.6 300.3 660.9 300.3 661.4 307.8 661.8 292.9 662.4 300.3 662.7 307.8 663.1 307.8 663.8 307.8 664.3 300.3 665 307.8 665.4 307.8 665.9 300.3 666.4 307.8 666.8 307.8 667.3 307.8 667.9 300.3 668.1 300.3 668.6 307.8 669.1 307.8 669.5 307.8 670 307.8 670.5 300.3 670.9 307.8 671.4 300.3 671.9 292.9 672.4 300.3 672.9 307.8 673.6 307.8 674.2 307.8 675 307.8 675.6 307.8 676 315.2 676.4 322.7 676.8 322.7 677.2 330.1 677.6 315.2 677.9 315.2 678.1 315.2 678.2 315.2 678.3 307.8 678.3 307.8 678.4 300.3 678.4 300.3 678.4 300.3 678.4 300.3 678.4 300.3 678.4 300.3 678.5 307.8 678.5 315.2 678.5 315.2 678.5 315.2 678.6 315.2 678.6 307.8 678.6 315.2 678.6 300.3 678.6 300.3 678.6 300.3 678.6 300.3 678.6 300.3 678.7 300.3 678.7 307.8 678.7 315.2 678.7 315.2 678.7 315.2 678.7 315.2 678.7 315.2 678.7 315.2 678.8 307.8 678.8 307.8 678.8 307.8 679 300.3 679 300.3 679 300.3 679 300.3 679 300.3 679 307.8 679 300.3 679.1 300.3 679.3 307.8 679.3 307.8 679.4 307.8 679.4 292.9 679.4 300.3 679.5 300.3 679.7 292.9 679.8 307.8 679.9 307.8 679.9 307.8 680 307.8 680.1 307.8 680.1 307.8 680.1 307.8 680.1 307.8 680.1 307.8 680.2 307.8 680.3 315.2 680.3 315.2 680.3 315.2 680.3 300.3 680.3 300.3 680.3 300.3 680.4 307.8 680.4 307.8 680.4 307.8 680.4 307.8 680.5 307.8 680.5 307.8 680.5 307.8 680.5 307.8 680.7 307.8 680.8 315.2 680.8 315.2 680.8 315.2 680.9 307.8 680.9 300.3 680.9 300.3 681.1 307.8 681.4 300.3 681.8 285.4 682.3 300.3 682.6 292.9 682.9 285.4 683.5 292.9 683.8 292.9 684.2 292.9 684.4 292.9 684.9 292.9 685.2 300.3 686 285.4 686.8 292.9 687.3 292.9 687.7 292.9 688.3 292.9 689.2 285.4 690 285.4 690.2 285.4 690.6 292.9 691.1 292.9 691.7 285.4 692 292.9 692.5 285.4 692.8 285.4 693.3 292.9 693.6 292.9 694.2 292.9 694.9 292.9 695.9 285.4 696.9 292.9 697.6 292.9 698.1 285.4 698.5 285.4 699.3 285.4 699.7 285.4 700.1 285.4 700.7 292.9 701.3 278 701.5 278 701.8 285.4 702.2 278 702.4 285.4 702.7 278 703 278 703.5 285.4 703.9 285.4 704.3 278 704.8 278 705.1 285.4 705.4 278 705.8 285.4 706.1 285.4 706.4 285.4 706.9 285.4 707.2 278 707.7 285.4 708.4 285.4 708.9 292.9 708.9 278 709 278 709 292.9 709 292.9 709 292.9 709 292.9 709 292.9 709.2 285.4 709.5 278 709.5 278 709.5 278 709.5 278 709.5 278 709.5 292.9 709.5 292.9 709.6 292.9 709.6 292.9 709.6 292.9 709.6 292.9 709.6 292.9 709.6 292.9 710 285.4 710.5 292.9 711 285.4 711.2 292.9 711.5 285.4 711.8 292.9 712.2 285.4 712.2 278 712.2 278 712.2 278 712.2 278 712.3 278 712.3 292.9 712.3 285.4 712.3 285.4 712.4 292.9 712.4 292.9 712.5 292.9 712.8 285.4 713.2 292.9 713.6 285.4 713.9 292.9 714.2 285.4 714.7 285.4 715 285.4 715.5 300.3 716 292.9 716.7 292.9 717.3 300.3 717.7 300.3 717.9 292.9 718.5 300.3 718.9 300.3 719.5 300.3 719.8 300.3 720.1 307.8 720.4 307.8 720.8 307.8 721 300.3 721.4 307.8 721.7 300.3 722.2 307.8 722.7 307.8 723.2 307.8 723.6 307.8 723.9 315.2 724.4 315.2 724.8 315.2 725.3 315.2 725.8 307.8 726.4 315.2 727.1 315.2 727.4 315.2 727.8 315.2 728 315.2 728.3 315.2 728.8 315.2 729.3 315.2 729.7 315.2 730.2 307.8 730.5 315.2 730.9 315.2 731.5 307.8 731.8 315.2 732.1 315.2 732.6 315.2 732.9 307.8 733.7 315.2 734.4 315.2 735.2 315.2 735.6 322.7 736.2 315.2 736.6 315.2 737.3 315.2 738 315.2 738.5 322.7 739.2 322.7 739.9 315.2 740.3 315.2 740.7 315.2 740.9 322.7 741.5 315.2 742.2 315.2 743.1 322.7 743.8 322.7 744.6 322.7 745.1 315.2 745.6 322.7 746.2 322.7 746.6 322.7 747.3 322.7 747.7 322.7 748.5 322.7 749 322.7 749.5 322.7 749.7 322.7 750.3 330.1 750.8 322.7 751.7 322.7 751.9 352.5 752.1 359.9 752.3 374.8 752.5 374.8 752.7 367.3 752.9 374.8 753.1 382.2 753.4 374.8 753.8 382.2 754.2 374.8 754.5 374.8 754.8 374.8 755 367.3 755.3 367.3 755.7 367.3 755.9 367.3 756.2 367.3 756.5 367.3 756.7 374.8 756.9 374.8 757.2 374.8 757.3 382.2 757.4 374.8 757.5 382.2 757.5 382.2 757.5 382.2 757.5 382.2 757.5 382.2 757.5 382.2 757.6 374.8 757.8 374.8 757.8 367.3 757.8 367.3 757.8 367.3 757.8 367.3 757.8 367.3 757.9 382.2 757.9 382.2 757.9 382.2 757.9 382.2 757.9 382.2 757.9 382.2 758 382.2 758.1 367.3 758.1 367.3 758.1 367.3 758.1 367.3 758.1 367.3 758.1 367.3 758.2 374.8 758.2 374.8 758.2 382.2 758.2 382.2 758.2 382.2 758.2 382.2 758.2 382.2 758.3 382.2 758.3 382.2 758.3 374.8 758.3 367.3 758.3 367.3 758.5 367.3 758.7 374.8 759 367.3 759.3 374.8 759.6 367.3 759.8 367.3 760.2 367.3 760.5 367.3 760.6 367.3 760.9 374.8 761.4 374.8 761.7 367.3 761.9 374.8 762.3 374.8 762.8 374.8 763 367.3 763 374.8 763.1 374.8 763.1 367.3 763.1 367.3 763.2 374.8 763.3 367.3 763.4 374.8 763.4 374.8 763.4 374.8 763.4 367.3 763.5 367.3 763.5 374.8 763.6 367.3 763.8 367.3 763.8 374.8 763.9 374.8 764 367.3 764 367.3 764.1 374.8 764.1 374.8 764.1 367.3 764.1 367.3 764.2 367.3 764.3 374.8 764.6 367.3 765 367.3 765.2 367.3 765.3 367.3 765.6 374.8 765.9 367.3 766.1 367.3 766.4 367.3 766.7 367.3 767 359.9 767.2 359.9 767.7 367.3 768.3 359.9 768.5 367.3 769 367.3 769.2 374.8 769.6 374.8 769.8 374.8 769.9 374.8 769.9 374.8 769.9 374.8 770 359.9 770 359.9 770 359.9 770.1 359.9 770.1 359.9 770.1 359.9 770.1 367.3 770.1 374.8 770.2 374.8 770.2 374.8 770.2 374.8 770.2 374.8 770.2 374.8 770.3 359.9 770.3 359.9 770.3 359.9 770.3 359.9 770.3 359.9 770.3 359.9 770.4 382.2 770.4 382.2 770.4 382.2 770.4 374.8 770.4 382.2 770.4 382.2 770.4 382.2 770.4 382.2 770.5 382.2 770.5 374.8 770.5 374.8 770.5 367.3 770.5 359.9 770.5 359.9 770.5 359.9 770.6 359.9 770.6 359.9 770.6 374.8 770.7 374.8 770.7 374.8 770.7 382.2 770.7 382.2 770.7 382.2 770.7 382.2 770.8 382.2 770.8 367.3 770.8 367.3 770.8 367.3 770.8 367.3 770.8 367.3 770.9 374.8 771.1 382.2 771.3 374.8 771.7 374.8 772 382.2 772.3 374.8 772.7 382.2 773 382.2 773.3 389.7 773.5 389.7 773.7 382.2 774.3 382.2 774.9 382.2 775.3 389.7 776 389.7 776.4 389.7 777.1 382.2 777.3 382.2 777.7 382.2 777.9 382.2 778.3 382.2 778.6 382.2 778.9 382.2 779.2 374.8 779.4 382.2 779.8 382.2 780.1 374.8 780.5 374.8 781 382.2 781.2 374.8 781.8 374.8 782.2 374.8 782.5 374.8 783.1 367.3 783.5 367.3 784.1 374.8 784.4 374.8 785.2 374.8 785.5 367.3 786 374.8 786.6 367.3 786.8 374.8 787 374.8 787.6 374.8 788.2 374.8 788.7 374.8 789 367.3 789.6 374.8 790.1 374.8 790.4 367.3 790.9 374.8 791.4 374.8 791.8 367.3 792.3 374.8 792.9 374.8 793.6 374.8 794 374.8 794.4 367.3 794.8 374.8 795.1 374.8 795.5 374.8 795.9 374.8 796.2 374.8 796.2 367.3 796.2 367.3 796.2 374.8 796.3 382.2 796.3 382.2 796.3 382.2 796.3 382.2 796.3 382.2 796.6 367.3 796.6 367.3 796.6 367.3 796.6 367.3 796.6 367.3 796.6 367.3 796.6 382.2 796.7 382.2 796.7 382.2 796.7 382.2 796.7 382.2 796.7 382.2 796.7 382.2 796.7 367.3 796.8 367.3 797 367.3 797.4 374.8 797.9 367.3 798.4 374.8 798.9 374.8 799.5 374.8 799.9 367.3 800.4 367.3 800.4 367.3 800.5 367.3 800.5 359.9 800.5 352.5 800.5 352.5 800.5 352.5 800.6 352.5 800.6 359.9 800.6 359.9 800.7 359.9 800.7 352.5 800.8 352.5 800.8 352.5 800.8 352.5 800.8 352.5 800.9 352.5 800.9 359.9 800.9 367.3 800.9 367.3 801 367.3 801 367.3 801 367.3 801 359.9 801.1 367.3 801.1 359.9 801.1 352.5 801.1 352.5 801.1 359.9 801.2 352.5 801.2 352.5 801.2 359.9 801.3 367.3 801.3 367.3 801.3 374.8 801.4 374.8 801.4 374.8 801.4 374.8 801.4 374.8 801.4 374.8 801.4 359.9 801.5 359.9 801.5 352.5 801.5 359.9 801.5 367.3 801.5 367.3 801.6 367.3 801.6 352.5 801.6 352.5 801.6 352.5 801.6 352.5 801.6 352.5 801.7 359.9 801.7 352.5 801.7 359.9 801.8 367.3 801.8 367.3 801.8 367.3 801.9 367.3 802.2 367.3 802.9 359.9 803.7 359.9 804.4 367.3 805.2 367.3 806 367.3 806.7 359.9 807.3 359.9 807.8 359.9 808.3 367.3 808.8 367.3 809.3 367.3 810 367.3 811 374.8 811.6 367.3 812.1 367.3 812.6 367.3 813.1 367.3 813.4 359.9 813.5 359.9 813.5 359.9 813.7 352.5 814 352.5 814.3 352.5 814.4 345 814.5 359.9 814.5 359.9 814.6 359.9 814.6 345 814.6 345 814.6 345 814.6 345 814.6 345 814.6 345 814.6 345 814.7 352.5 814.9 352.5 815 352.5 815.1 352.5 815.1 359.9 815.1 359.9 815.2 352.5 815.2 359.9 815.2 352.5 815.2 345 815.2 345 815.2 345 815.3 352.5 815.3 359.9 815.3 359.9 815.3 359.9 815.3 359.9 815.3 359.9 815.4 345 815.4 345 815.4 345 815.4 345 815.4 345 815.4 345 815.5 352.5 815.5 359.9 815.5 359.9 815.6 352.5 816.2 352.5 816.6 367.3 817.1 359.9 817.5 367.3 817.9 359.9 818.4 359.9 818.6 359.9 818.6 359.9 818.6 359.9 818.6 367.3 818.7 374.8 818.7 374.8 818.7 374.8 818.8 374.8 818.8 374.8 818.8 367.3 818.9 359.9 818.9 359.9 818.9 367.3 818.9 359.9 818.9 359.9 818.9 359.9 819 359.9 819 359.9 819 359.9 819 374.8 819 374.8 819.1 374.8 819.1 374.8 819.1 359.9 819.1 359.9 819.1 359.9 819.1 359.9 819.2 359.9 819.2 359.9 819.2 359.9 819.2 359.9 819.2 359.9 819.2 374.8 819.2 374.8 819.3 374.8 819.3 359.9 819.8 359.9 820.5 367.3 821 359.9 821.7 359.9 822.2 359.9 822.9 359.9 823.2 367.3 823.5 359.9 824 359.9 824.1 352.5 824.1 352.5 824.2 352.5 824.2 352.5 824.2 352.5 824.2 352.5 824.3 352.5 824.3 352.5 824.3 352.5 824.3 352.5 824.4 352.5 824.4 352.5 824.5 352.5 824.5 352.5 824.5 352.5 824.5 352.5 824.5 352.5 824.5 352.5 824.6 352.5 824.6 352.5 824.6 352.5 824.8 352.5 824.9 359.9 825 352.5 825.1 352.5 825.1 352.5 825.2 352.5 825.3 352.5 825.4 352.5 825.6 352.5 825.7 352.5 825.7 352.5 825.8 359.9 826.2 352.5 826.4 352.5 827 359.9 827.1 359.9 827.1 352.5 827.3 352.5 827.5 359.9 827.9 359.9 828.1 352.5 828.2 352.5 828.2 352.5 828.3 352.5 828.3 352.5 828.4 352.5 828.5 352.5 828.7 352.5 829.2 352.5 829.6 352.5 829.8 359.9 830.1 352.5 830.4 352.5 830.7 359.9 830.8 352.5 830.8 352.5 830.8 352.5 830.9 352.5 831.1 352.5 831.1 359.9 831.1 359.9 831.1 352.5 831.1 359.9 831.1 359.9 831.2 359.9 831.2 352.5 831.2 359.9 831.2 359.9 831.3 345 831.3 345 831.3 345 831.3 345 831.3 345 831.4 345 831.4 345 831.5 345 831.5 345 831.6 345 831.6 345 831.6 345 831.7 352.5 831.7 352.5 831.7 352.5 831.8 352.5 831.8 352.5 831.9 352.5 832 345 832 345 832.1 345 832.1 352.5 832.2 352.5 832.2 352.5 832.2 352.5 832.2 337.6 832.2 337.6 832.3 337.6 832.3 337.6 832.3 337.6 832.3 345 832.6 337.6 832.8 337.6 833.2 337.6 833.4 337.6 833.7 330.1 834 322.7 834.2 330.1 834.5 330.1 834.8 330.1 835 322.7 835.4 330.1 835.7 322.7 836 330.1 836.3 330.1 836.4 330.1 836.5 322.7 836.8 330.1 837.2 322.7 837.4 315.2 837.6 322.7 838 322.7 838.3 315.2 838.7 322.7 839 322.7 839.4 315.2 839.7 322.7 839.9 315.2 840.5 322.7 840.9 322.7 840.9 322.7 840.9 322.7 840.9 322.7 841 322.7 841 322.7 841 322.7 841 330.1 841.4 330.1 841.7 330.1 842 337.6 842.3 337.6 842.5 337.6 842.9 330.1 843.4 337.6 843.6 330.1 844.3 330.1 844.8 337.6 845.1 330.1 845.7 337.6 846.3 337.6 846.6 337.6 846.6 337.6 847.5 337.6 847.7 337.6 847.8 337.6 847.9 330.1 848.2 330.1 848.7 330.1 848.9 337.6 849.1 330.1 849.3 330.1 849.3 330.1 849.4 337.6 849.5 337.6 849.5 330.1 849.6 330.1 849.6 337.6 849.7 337.6 849.7 330.1 849.8 330.1 849.9 345 849.9 345 850 345 850.5 337.6 851 345 851.5 345 852.2 337.6 852.5 345 853.1 352.5 853.2 345 853.2 345 853.3 345 853.4 352.5 853.6 352.5 854 352.5 854.5 345 854.9 345 855.2 337.6 855.4 337.6 855.8 352.5 856.2 345 856.6 345 857.1 345 857.6 345 858.3 345 858.9 345 859.6 345 860.2 345 861 352.5 861.4 352.5 862 352.5 862.5 345 863 352.5 863.5 352.5 863.9 359.9 864.3 359.9 864.8 359.9 865.1 359.9 865.5 367.3 865.9 359.9 866.2 352.5 866.6 345 866.9 359.9 867.2 352.5 867.6 352.5 868 352.5 868.3 352.5 868.5 352.5 868.8 352.5 869.2 352.5 869.5 352.5 870 352.5 870.4 359.9 870.8 352.5 871.1 359.9 871.5 352.5 872.1 352.5 872.7 352.5 873.1 367.3 873.6 359.9 874.2 359.9 874.9 359.9 875.2 367.3 875.3 367.3 875.3 359.9 875.4 367.3 875.4 359.9 875.5 359.9 875.6 359.9 875.7 359.9 875.7 359.9 875.8 367.3 875.8 367.3 875.9 367.3 875.9 367.3 876 359.9 876.1 359.9 876.1 359.9 876.2 359.9 876.7 359.9 877.4 359.9 877.9 352.5 878.4 359.9 878.4 359.9 878.6 352.5 878.9 352.5 879.3 352.5 879.3 359.9 879.3 352.5 879.3 352.5 879.3 352.5 879.4 352.5 879.4 352.5 879.4 352.5 879.4 352.5 879.4 352.5 879.5 359.9 879.9 352.5 879.9 359.9 879.9 359.9 880 359.9 880 352.5 880.3 352.5 880.7 352.5 881.4 352.5 881.8 352.5 882.4 352.5 883 345 883.6 352.5 884.2 352.5 884.6 352.5 884.7 359.9 884.8 359.9 884.8 359.9 884.9 352.5 884.9 352.5 885.4 352.5 885.4 352.5 885.6 359.9 885.9 359.9 885.9 367.3 886 367.3 886.1 359.9 886.3 367.3 886.3 367.3 886.4 367.3 886.4 359.9 886.4 367.3 886.5 367.3 886.5 367.3 886.7 367.3 887 367.3 887.3 359.9 887.4 359.9 887.7 359.9 887.7 359.9 887.8 367.3 887.8 374.8 887.9 374.8 887.9 374.8 887.9 374.8 887.9 367.3 888 374.8 888 374.8 888 374.8 888 374.8 888.1 367.3 888.1 374.8 888.2 367.3 888.2 367.3 888.2 367.3 888.4 367.3 888.5 367.3 888.5 367.3 888.6 367.3 888.6 367.3 888.6 367.3 888.6 367.3 888.6 367.3 888.6 367.3 888.7 367.3 888.7 367.3 888.7 367.3 888.7 367.3 888.7 367.3 888.8 367.3 888.8 367.3 888.9 382.2 888.9 382.2 888.9 382.2 888.9 382.2 888.9 382.2 888.9 382.2 888.9 382.2 889 382.2 889 382.2 889 382.2 889 382.2 889.1 382.2 889.2 382.2 889.4 374.8 889.7 367.3 890 367.3 890.4 374.8 890.7 374.8 891 374.8 891.2 382.2 891.3 382.2 891.4 382.2 891.4 382.2 891.4 374.8 891.5 374.8 891.5 374.8 891.6 374.8 891.7 382.2 891.7 382.2 891.7 382.2 891.8 382.2 891.9 382.2 891.9 374.8 892.1 382.2 892.6 382.2 893 374.8 893.3 374.8 893.7 382.2 894.3 382.2 894.7 382.2 894.9 389.7 895.5 389.7 895.9 382.2 896.4 382.2 897.1 374.8 897.7 374.8 898.3 382.2 898.9 374.8 899.4 374.8 899.9 374.8 900.4 382.2 900.9 382.2 901.3 382.2 901.4 382.2 901.5 374.8 901.9 382.2 902.3 382.2 903.2 374.8 903.9 382.2 904.8 367.3 905.4 374.8 906 374.8 906.7 374.8 907.4 374.8 908 367.3 908.8 374.8 909.5 374.8 910.3 367.3 910.8 374.8 911.4 367.3 911.6 374.8 911.8 412 912.1 412 912.2 412 912.4 404.6 912.5 412 912.6 419.5 912.7 412 913.1 419.5 913.3 412 913.4 419.5 913.7 412 914.1 426.9 914.1 419.5 914.3 426.9 914.7 426.9 915.1 419.5 915.2 419.5 915.7 426.9 915.9 426.9 916.2 434.3 916.7 426.9 917.2 426.9 917.5 434.3 917.8 434.3 918.5 434.3 919.3 434.3 919.7 434.3 920.3 434.3 920.7 434.3 921.1 426.9 921.4 434.3 921.9 426.9 922.4 419.5 922.8 426.9 923.4 419.5 923.5 419.5 923.6 419.5 923.6 419.5 923.7 419.5 923.8 419.5 923.9 419.5 924.4 426.9 925.2 412 925.9 419.5 926.8 412 927.3 412 927.7 412 928.4 412 928.9 404.6 929.4 412 929.7 404.6 930 404.6 930.2 404.6 930.5 404.6 930.9 412 931.2 412 931.6 404.6 931.9 404.6 932.2 404.6 932.4 397.1 932.7 397.1 932.9 397.1 933.2 389.7 933.5 389.7 933.7 389.7 934 382.2" opacity=".6"/><text x="942" y="472" fill="#d97706" font-size="11" text-anchor="start">0.01</text><text x="942" y="396" fill="#d97706" font-size="11" text-anchor="start">0.01</text><text x="942" y="320" fill="#d97706" font-size="11" text-anchor="start">0.01</text><text x="942" y="244" fill="#d97706" font-size="11" text-anchor="start">0.01</text><text x="942" y="168" fill="#d97706" font-size="11" text-anchor="start">0.01</text><text x="942" y="92" fill="#d97706" font-size="11" text-anchor="start">0.02</text><text x="942" y="80" fill="#d97706" font-size="11" font-weight="600" text-anchor="start">price</text><polygon fill="#16a34a" fill-opacity=".08" points="163.3 468 163.3 116.2 163.3 116.3 165.3 116.3 208.9 116.3 919.5 116.1 919.5 468"/><polyline fill="none" stroke="#16a34a" stroke-linejoin="round" stroke-width="2" points="163.3 116.2 163.3 116.3 165.3 116.3 208.9 116.3 919.5 116.1"/><line x1="88" x2="110" y1="102" y2="102" stroke="#16a34a" stroke-width="2.5"/><text x="116" y="106" fill="#374151" font-size="11.5">equity</text><line x1="88" x2="110" y1="118" y2="118" stroke="#d97706" stroke-width="2.5" opacity=".8"/><text x="116" y="122" fill="#374151" font-size="11.5">price</text><text x="78" y="502" fill="#6b7280" font-size="12" text-anchor="start">2026-02-01</text><text x="934" y="502" fill="#6b7280" font-size="12" text-anchor="end">2026-02-28</text></svg>