<svg xmlns="http://www.w3.org/2000/svg" width="1100" height="560" font-family="ui-sans-serif, system-ui, sans-serif" viewBox="0 0 1100 560"><rect width="1100" height="560" fill="#fff"/><text x="80" y="28" fill="#111827" font-size="18" font-weight="700">Zone Recovery — BNBUSDT fee-tier comparison (best setting)</text><text x="80" y="48" fill="#6b7280" font-size="12.5">lev 5 · ratio 2 · gap 20% · maxSteps 4 · maxDD 60% · random · equity per fee tier vip 0..9</text><text x="80" y="68" fill="#1d4ed8" font-size="12.5" font-weight="600">USDT margin · BNB −10%</text><line x1="80" x2="932" y1="508" y2="508" stroke="#e5e7eb" stroke-width="1"/><text x="70" y="512" fill="#6b7280" font-size="12" text-anchor="end">0.00</text><line x1="80" x2="932" y1="424" y2="424" stroke="#e5e7eb" stroke-width="1"/><text x="70" y="428" fill="#6b7280" font-size="12" text-anchor="end">9704</text><line x1="80" x2="932" y1="340" y2="340" stroke="#e5e7eb" stroke-width="1"/><text x="70" y="344" fill="#6b7280" font-size="12" text-anchor="end">19408</text><line x1="80" x2="932" y1="256" y2="256" stroke="#e5e7eb" stroke-width="1"/><text x="70" y="260" fill="#6b7280" font-size="12" text-anchor="end">29112</text><line x1="80" x2="932" y1="172" y2="172" stroke="#e5e7eb" stroke-width="1"/><text x="70" y="176" fill="#6b7280" font-size="12" text-anchor="end">38816</text><line x1="80" x2="932" y1="88" y2="88" stroke="#e5e7eb" stroke-width="1"/><text x="70" y="92" fill="#6b7280" font-size="12" text-anchor="end">48520</text><line x1="80" x2="932" y1="421.4" y2="421.4" stroke="#9ca3af" stroke-dasharray="6 4" stroke-width="1.5"/><polyline fill="none" stroke="#2563eb" stroke-linejoin="round" stroke-width="1.8" points="80 421.4 80 408.8 109.4 394.3 191.1 402.9 231.2 378 334.5 359 342.3 370.3 342.3 337.6 342.3 350.5 342.4 313.1 342.4 284.7 342.4 301.5 342.4 326.8 342.4 364.8 342.5 254.8 342.5 274 342.5 218.6 342.6 176.3 342.7 201.3 342.9 128.7 342.9 157.4 342.9 200.3 343 264.7 343 361.3 343.5 372.4 344.4 389 392.5 340.8 400.7 316.4 431.5 330.9 444.8 352.6 451.2 385.1 462 290.6 463.9 307 531.6 331.6 553.8 260.2 584.4 278.9 706.2 307 747.8 349.1 887.1 227.1 932 186" opacity=".9"/><polyline fill="none" stroke="#dc2626" stroke-linejoin="round" stroke-width="1.8" points="80 421.4 80 408.8 109.4 394.3 191.1 402.9 231.2 378 334.5 359 342.3 370.3 342.3 337.6 342.3 350.5 342.4 313.1 342.4 284.7 342.4 301.5 342.4 326.8 342.4 364.8 342.5 254.8 342.5 274 342.5 218.6 342.6 176.3 342.7 201.3 342.9 128.7 342.9 157.4 342.9 200.3 343 264.7 343 361.3 343.5 372.4 344.4 389 392.5 340.8 400.7 316.4 431.5 330.9 444.8 352.6 451.2 385.1 462 290.6 463.9 307 531.6 331.6 553.8 260.2 584.4 278.9 706.2 307 747.8 349.1 887.1 227.1 932 186" opacity=".9"/><polyline fill="none" stroke="#16a34a" stroke-linejoin="round" stroke-width="1.8" points="80 421.4 80 408.8 109.4 394.3 191.1 402.8 231.2 377.9 334.5 358.8 342.3 370 342.3 337.2 342.3 350.1 342.4 312.5 342.4 283.9 342.4 300.8 342.4 326.1 342.4 364 342.5 253.4 342.5 272.5 342.5 216.6 342.6 174 342.7 199.1 342.9 125.8 342.9 154.6 342.9 197.6 343 262.2 343 359.2 343.5 370.4 344.4 387.1 392.5 338.1 400.7 313.3 431.5 327.9 444.8 349.9 451.2 382.8 462 286.5 463.9 303.2 531.6 328.2 553.8 255.2 584.4 274.2 706.2 302.7 747.8 345.5 887.1 220.7 932 178.7" opacity=".9"/><polyline fill="none" stroke="#d97706" stroke-linejoin="round" stroke-width="1.8" points="80 421.4 80 408.7 109.4 394.2 191.1 402.7 231.2 377.7 334.5 358.6 342.3 369.8 342.3 336.9 342.3 349.7 342.4 312.1 342.4 283.3 342.4 300.2 342.4 325.4 342.4 363.3 342.5 252.2 342.5 271.4 342.5 215.1 342.6 172.2 342.7 197.3 342.9 123.5 342.9 152.3 342.9 195.5 343 260.3 343 357.5 343.5 368.7 344.4 385.6 392.5 336 400.7 310.8 431.5 325.5 444.8 347.7 451.2 380.9 462 283.3 463.9 300.1 531.6 325.4 553.8 251.2 584.4 270.5 706.2 299.3 747.8 342.6 887.1 215.6 932 172.7" opacity=".9"/><polyline fill="none" stroke="#7c3aed" stroke-linejoin="round" stroke-width="1.8" points="80 421.4 80 408.7 109.4 394.2 191.1 402.7 231.2 377.7 334.5 358.6 342.3 369.7 342.3 336.8 342.3 349.6 342.4 312 342.4 283.2 342.4 300 342.4 325.3 342.4 363.1 342.5 251.9 342.5 271.1 342.5 214.7 342.6 171.7 342.7 196.9 342.9 122.9 342.9 151.7 342.9 195 343 259.8 343 357 343.5 368.3 344.4 385.3 392.5 335.4 400.7 310.1 431.5 324.9 444.8 347.2 451.2 380.5 462 282.5 463.9 299.3 531.6 324.7 553.8 250.2 584.4 269.5 706.2 298.4 747.8 341.9 887.1 214.3 932 171.2" opacity=".9"/><polyline fill="none" stroke="#0891b2" stroke-linejoin="round" stroke-width="1.8" points="80 421.4 80 408.7 109.4 394.2 191.1 402.7 231.2 377.6 334.5 358.5 342.3 369.7 342.3 336.7 342.3 349.5 342.4 311.8 342.4 283 342.4 299.8 342.4 325 342.4 362.9 342.5 251.4 342.5 270.6 342.5 214.2 342.6 171 342.7 196.2 342.9 122 342.9 150.9 342.9 194.1 343 259 343 356.4 343.5 367.7 344.4 384.7 392.5 334.6 400.7 309.2 431.5 324 444.8 346.3 451.2 379.8 462 281.2 463.9 298.2 531.6 323.6 553.8 248.7 584.4 268.1 706.2 297.1 747.8 340.8 887.1 212.4 932 168.9" opacity=".9"/><polyline fill="none" stroke="#db2777" stroke-linejoin="round" stroke-width="1.8" points="80 421.4 80 408.7 109.4 394.2 191.1 402.7 231.2 377.6 334.5 358.4 342.3 369.6 342.3 336.6 342.3 349.4 342.4 311.7 342.4 282.8 342.4 299.6 342.4 324.9 342.4 362.7 342.5 251.1 342.5 270.3 342.5 213.8 342.6 170.6 342.7 195.8 342.9 121.5 342.9 150.3 342.9 193.6 343 258.5 343 355.9 343.5 367.3 344.4 384.3 392.5 334.1 400.7 308.6 431.5 323.4 444.8 345.8 451.2 379.3 462 280.4 463.9 297.4 531.6 322.9 553.8 247.7 584.4 267.1 706.2 296.3 747.8 340 887.1 211 932 167.4" opacity=".9"/><polyline fill="none" stroke="#65a30d" stroke-linejoin="round" stroke-width="1.8" points="80 421.4 80 408.7 109.4 394.1 191.1 402.6 231.2 377.5 334.5 358.4 342.3 369.5 342.3 336.5 342.3 349.3 342.4 311.5 342.4 282.6 342.4 299.4 342.4 324.6 342.4 362.5 342.5 250.7 342.5 269.9 342.5 213.2 342.6 169.9 342.7 195.1 342.9 120.6 342.9 149.5 342.9 192.8 343 257.8 343 355.3 343.5 366.7 344.4 383.8 392.5 333.3 400.7 307.6 431.5 322.5 444.8 345 451.2 378.6 462 279.1 463.9 296.2 531.6 321.8 553.8 246.1 584.4 265.7 706.2 295 747.8 338.9 887.1 209.1 932 165.1" opacity=".9"/><polyline fill="none" stroke="#475569" stroke-linejoin="round" stroke-width="1.8" points="80 421.4 80 408.7 109.4 394.1 191.1 402.6 231.2 377.5 334.5 358.3 342.3 369.5 342.3 336.4 342.3 349.2 342.4 311.4 342.4 282.4 342.4 299.3 342.4 324.5 342.4 362.3 342.5 250.4 342.5 269.6 342.5 212.8 342.6 169.4 342.7 194.6 342.9 120 342.9 148.9 342.9 192.3 343 257.3 343 354.9 343.5 366.3 344.4 383.4 392.5 332.7 400.7 307 431.5 321.9 444.8 344.4 451.2 378.1 462 278.3 463.9 295.4 531.6 321.1 553.8 245.1 584.4 264.7 706.2 294.1 747.8 338.2 887.1 207.7 932 163.6" opacity=".9"/><polyline fill="none" stroke="#ea580c" stroke-linejoin="round" stroke-width="1.8" points="80 421.4 80 408.7 109.4 394.1 191.1 402.6 231.2 377.4 334.5 358.2 342.3 369.4 342.3 336.3 342.3 349.1 342.4 311.2 342.4 282.2 342.4 299 342.4 324.2 342.4 362 342.5 250 342.5 269.2 342.5 212.2 342.6 168.7 342.7 194 342.9 119.1 342.9 148 342.9 191.4 343 256.5 343 354.2 343.5 365.6 344.4 382.8 392.5 331.9 400.7 306 431.5 321 444.8 343.6 451.2 377.4 462 277 463.9 294.2 531.6 320 553.8 243.5 584.4 263.2 706.2 292.7 747.8 337 887.1 205.8 932 161.3" opacity=".9"/><line x1="950" x2="972" y1="94" y2="94" stroke="#ea580c" stroke-width="3"/><text x="980" y="98" fill="#374151" font-size="12.5">vip 9 40055</text><line x1="950" x2="972" y1="116" y2="116" stroke="#475569" stroke-width="3"/><text x="980" y="120" fill="#374151" font-size="12.5">vip 8 39788</text><line x1="950" x2="972" y1="138" y2="138" stroke="#65a30d" stroke-width="3"/><text x="980" y="142" fill="#374151" font-size="12.5">vip 7 39610</text><line x1="950" x2="972" y1="160" y2="160" stroke="#db2777" stroke-width="3"/><text x="980" y="164" fill="#374151" font-size="12.5">vip 6 39345</text><line x1="950" x2="972" y1="182" y2="182" stroke="#0891b2" stroke-width="3"/><text x="980" y="186" fill="#374151" font-size="12.5">vip 5 39170</text><line x1="950" x2="972" y1="204" y2="204" stroke="#7c3aed" stroke-width="3"/><text x="980" y="208" fill="#374151" font-size="12.5">vip 4 38907</text><line x1="950" x2="972" y1="226" y2="226" stroke="#d97706" stroke-width="3"/><text x="980" y="230" fill="#374151" font-size="12.5">vip 3 38733</text><line x1="950" x2="972" y1="248" y2="248" stroke="#16a34a" stroke-width="3"/><text x="980" y="252" fill="#374151" font-size="12.5">vip 2 38044</text><line x1="950" x2="972" y1="270" y2="270" stroke="#2563eb" stroke-width="3"/><text x="980" y="274" fill="#374151" font-size="12.5">vip 0 37197</text><line x1="950" x2="972" y1="292" y2="292" stroke="#dc2626" stroke-width="3"/><text x="980" y="296" fill="#374151" font-size="12.5">vip 1 37197</text><text x="80" y="542" fill="#6b7280" font-size="12" text-anchor="start">2025-10-02</text><text x="932" y="542" fill="#6b7280" font-size="12" text-anchor="end">2025-10-28</text></svg>