<?xml version="1.0" encoding="UTF-8"?>
<svg xmlns="http://www.w3.org/2000/svg" width="1100" height="560" viewBox="0 0 1100 560" font-family="ui-sans-serif, system-ui, sans-serif">
  <rect width="1100" height="560" fill="#ffffff"/>
  <text x="80" y="28" font-size="18" font-weight="700" fill="#111827">Zone Recovery — BNBUSDT fee-tier comparison (best setting)</text>
  <text x="80" y="48" font-size="12.5" fill="#6b7280">lev 5 · ratio 2 · gap 20% · maxSteps 4 · maxDD 60% · random  ·  equity per fee tier vip 0..9</text>
  <text x="80" y="68" font-size="12.5" font-weight="600" fill="#1d4ed8">USDT margin · BNB −10%</text>
  <line x1="80" y1="508.0" x2="932" y2="508.0" stroke="#e5e7eb" stroke-width="1"/><text x="70" y="512.0" text-anchor="end" font-size="12" fill="#6b7280">0.00</text><line x1="80" y1="424.0" x2="932" y2="424.0" stroke="#e5e7eb" stroke-width="1"/><text x="70" y="428.0" text-anchor="end" font-size="12" fill="#6b7280">9704</text><line x1="80" y1="340.0" x2="932" y2="340.0" stroke="#e5e7eb" stroke-width="1"/><text x="70" y="344.0" text-anchor="end" font-size="12" fill="#6b7280">19408</text><line x1="80" y1="256.0" x2="932" y2="256.0" stroke="#e5e7eb" stroke-width="1"/><text x="70" y="260.0" text-anchor="end" font-size="12" fill="#6b7280">29112</text><line x1="80" y1="172.0" x2="932" y2="172.0" stroke="#e5e7eb" stroke-width="1"/><text x="70" y="176.0" text-anchor="end" font-size="12" fill="#6b7280">38816</text><line x1="80" y1="88.0" x2="932" y2="88.0" stroke="#e5e7eb" stroke-width="1"/><text x="70" y="92.0" text-anchor="end" font-size="12" fill="#6b7280">48520</text>
  <line x1="80" y1="421.4" x2="932" y2="421.4" stroke="#9ca3af" stroke-width="1.5" stroke-dasharray="6 4"/>
  <polyline points="80.0,421.4 80.0,408.8 109.4,394.3 191.1,402.9 231.2,378.0 334.5,359.0 342.3,370.3 342.3,337.6 342.3,350.5 342.4,313.1 342.4,284.7 342.4,301.5 342.4,326.8 342.4,364.8 342.5,254.8 342.5,274.0 342.5,218.6 342.6,176.3 342.7,201.3 342.9,128.7 342.9,157.4 342.9,200.3 343.0,264.7 343.0,361.3 343.5,372.4 344.4,389.0 392.5,340.8 400.7,316.4 431.5,330.9 444.8,352.6 451.2,385.1 462.0,290.6 463.9,307.0 531.6,331.6 553.8,260.2 584.4,278.9 706.2,307.0 747.8,349.1 887.1,227.1 932.0,186.0" fill="none" stroke="#2563eb" stroke-width="1.8" stroke-linejoin="round" opacity="0.9"/>
  <polyline points="80.0,421.4 80.0,408.8 109.4,394.3 191.1,402.9 231.2,378.0 334.5,359.0 342.3,370.3 342.3,337.6 342.3,350.5 342.4,313.1 342.4,284.7 342.4,301.5 342.4,326.8 342.4,364.8 342.5,254.8 342.5,274.0 342.5,218.6 342.6,176.3 342.7,201.3 342.9,128.7 342.9,157.4 342.9,200.3 343.0,264.7 343.0,361.3 343.5,372.4 344.4,389.0 392.5,340.8 400.7,316.4 431.5,330.9 444.8,352.6 451.2,385.1 462.0,290.6 463.9,307.0 531.6,331.6 553.8,260.2 584.4,278.9 706.2,307.0 747.8,349.1 887.1,227.1 932.0,186.0" fill="none" stroke="#dc2626" stroke-width="1.8" stroke-linejoin="round" opacity="0.9"/>
  <polyline points="80.0,421.4 80.0,408.8 109.4,394.3 191.1,402.8 231.2,377.9 334.5,358.8 342.3,370.0 342.3,337.2 342.3,350.1 342.4,312.5 342.4,283.9 342.4,300.8 342.4,326.1 342.4,364.0 342.5,253.4 342.5,272.5 342.5,216.6 342.6,174.0 342.7,199.1 342.9,125.8 342.9,154.6 342.9,197.6 343.0,262.2 343.0,359.2 343.5,370.4 344.4,387.1 392.5,338.1 400.7,313.3 431.5,327.9 444.8,349.9 451.2,382.8 462.0,286.5 463.9,303.2 531.6,328.2 553.8,255.2 584.4,274.2 706.2,302.7 747.8,345.5 887.1,220.7 932.0,178.7" fill="none" stroke="#16a34a" stroke-width="1.8" stroke-linejoin="round" opacity="0.9"/>
  <polyline points="80.0,421.4 80.0,408.7 109.4,394.2 191.1,402.7 231.2,377.7 334.5,358.6 342.3,369.8 342.3,336.9 342.3,349.7 342.4,312.1 342.4,283.3 342.4,300.2 342.4,325.4 342.4,363.3 342.5,252.2 342.5,271.4 342.5,215.1 342.6,172.2 342.7,197.3 342.9,123.5 342.9,152.3 342.9,195.5 343.0,260.3 343.0,357.5 343.5,368.7 344.4,385.6 392.5,336.0 400.7,310.8 431.5,325.5 444.8,347.7 451.2,380.9 462.0,283.3 463.9,300.1 531.6,325.4 553.8,251.2 584.4,270.5 706.2,299.3 747.8,342.6 887.1,215.6 932.0,172.7" fill="none" stroke="#d97706" stroke-width="1.8" stroke-linejoin="round" opacity="0.9"/>
  <polyline points="80.0,421.4 80.0,408.7 109.4,394.2 191.1,402.7 231.2,377.7 334.5,358.6 342.3,369.7 342.3,336.8 342.3,349.6 342.4,312.0 342.4,283.2 342.4,300.0 342.4,325.3 342.4,363.1 342.5,251.9 342.5,271.1 342.5,214.7 342.6,171.7 342.7,196.9 342.9,122.9 342.9,151.7 342.9,195.0 343.0,259.8 343.0,357.0 343.5,368.3 344.4,385.3 392.5,335.4 400.7,310.1 431.5,324.9 444.8,347.2 451.2,380.5 462.0,282.5 463.9,299.3 531.6,324.7 553.8,250.2 584.4,269.5 706.2,298.4 747.8,341.9 887.1,214.3 932.0,171.2" fill="none" stroke="#7c3aed" stroke-width="1.8" stroke-linejoin="round" opacity="0.9"/>
  <polyline points="80.0,421.4 80.0,408.7 109.4,394.2 191.1,402.7 231.2,377.6 334.5,358.5 342.3,369.7 342.3,336.7 342.3,349.5 342.4,311.8 342.4,283.0 342.4,299.8 342.4,325.0 342.4,362.9 342.5,251.4 342.5,270.6 342.5,214.2 342.6,171.0 342.7,196.2 342.9,122.0 342.9,150.9 342.9,194.1 343.0,259.0 343.0,356.4 343.5,367.7 344.4,384.7 392.5,334.6 400.7,309.2 431.5,324.0 444.8,346.3 451.2,379.8 462.0,281.2 463.9,298.2 531.6,323.6 553.8,248.7 584.4,268.1 706.2,297.1 747.8,340.8 887.1,212.4 932.0,168.9" fill="none" stroke="#0891b2" stroke-width="1.8" stroke-linejoin="round" opacity="0.9"/>
  <polyline points="80.0,421.4 80.0,408.7 109.4,394.2 191.1,402.7 231.2,377.6 334.5,358.4 342.3,369.6 342.3,336.6 342.3,349.4 342.4,311.7 342.4,282.8 342.4,299.6 342.4,324.9 342.4,362.7 342.5,251.1 342.5,270.3 342.5,213.8 342.6,170.6 342.7,195.8 342.9,121.5 342.9,150.3 342.9,193.6 343.0,258.5 343.0,355.9 343.5,367.3 344.4,384.3 392.5,334.1 400.7,308.6 431.5,323.4 444.8,345.8 451.2,379.3 462.0,280.4 463.9,297.4 531.6,322.9 553.8,247.7 584.4,267.1 706.2,296.3 747.8,340.0 887.1,211.0 932.0,167.4" fill="none" stroke="#db2777" stroke-width="1.8" stroke-linejoin="round" opacity="0.9"/>
  <polyline points="80.0,421.4 80.0,408.7 109.4,394.1 191.1,402.6 231.2,377.5 334.5,358.4 342.3,369.5 342.3,336.5 342.3,349.3 342.4,311.5 342.4,282.6 342.4,299.4 342.4,324.6 342.4,362.5 342.5,250.7 342.5,269.9 342.5,213.2 342.6,169.9 342.7,195.1 342.9,120.6 342.9,149.5 342.9,192.8 343.0,257.8 343.0,355.3 343.5,366.7 344.4,383.8 392.5,333.3 400.7,307.6 431.5,322.5 444.8,345.0 451.2,378.6 462.0,279.1 463.9,296.2 531.6,321.8 553.8,246.1 584.4,265.7 706.2,295.0 747.8,338.9 887.1,209.1 932.0,165.1" fill="none" stroke="#65a30d" stroke-width="1.8" stroke-linejoin="round" opacity="0.9"/>
  <polyline points="80.0,421.4 80.0,408.7 109.4,394.1 191.1,402.6 231.2,377.5 334.5,358.3 342.3,369.5 342.3,336.4 342.3,349.2 342.4,311.4 342.4,282.4 342.4,299.3 342.4,324.5 342.4,362.3 342.5,250.4 342.5,269.6 342.5,212.8 342.6,169.4 342.7,194.6 342.9,120.0 342.9,148.9 342.9,192.3 343.0,257.3 343.0,354.9 343.5,366.3 344.4,383.4 392.5,332.7 400.7,307.0 431.5,321.9 444.8,344.4 451.2,378.1 462.0,278.3 463.9,295.4 531.6,321.1 553.8,245.1 584.4,264.7 706.2,294.1 747.8,338.2 887.1,207.7 932.0,163.6" fill="none" stroke="#475569" stroke-width="1.8" stroke-linejoin="round" opacity="0.9"/>
  <polyline points="80.0,421.4 80.0,408.7 109.4,394.1 191.1,402.6 231.2,377.4 334.5,358.2 342.3,369.4 342.3,336.3 342.3,349.1 342.4,311.2 342.4,282.2 342.4,299.0 342.4,324.2 342.4,362.0 342.5,250.0 342.5,269.2 342.5,212.2 342.6,168.7 342.7,194.0 342.9,119.1 342.9,148.0 342.9,191.4 343.0,256.5 343.0,354.2 343.5,365.6 344.4,382.8 392.5,331.9 400.7,306.0 431.5,321.0 444.8,343.6 451.2,377.4 462.0,277.0 463.9,294.2 531.6,320.0 553.8,243.5 584.4,263.2 706.2,292.7 747.8,337.0 887.1,205.8 932.0,161.3" fill="none" stroke="#ea580c" stroke-width="1.8" stroke-linejoin="round" opacity="0.9"/>
  <line x1="950" y1="94" x2="972" y2="94" stroke="#ea580c" stroke-width="3"/><text x="980" y="98" font-size="12.5" fill="#374151">vip 9  40055</text>
  <line x1="950" y1="116" x2="972" y2="116" stroke="#475569" stroke-width="3"/><text x="980" y="120" font-size="12.5" fill="#374151">vip 8  39788</text>
  <line x1="950" y1="138" x2="972" y2="138" stroke="#65a30d" stroke-width="3"/><text x="980" y="142" font-size="12.5" fill="#374151">vip 7  39610</text>
  <line x1="950" y1="160" x2="972" y2="160" stroke="#db2777" stroke-width="3"/><text x="980" y="164" font-size="12.5" fill="#374151">vip 6  39345</text>
  <line x1="950" y1="182" x2="972" y2="182" stroke="#0891b2" stroke-width="3"/><text x="980" y="186" font-size="12.5" fill="#374151">vip 5  39170</text>
  <line x1="950" y1="204" x2="972" y2="204" stroke="#7c3aed" stroke-width="3"/><text x="980" y="208" font-size="12.5" fill="#374151">vip 4  38907</text>
  <line x1="950" y1="226" x2="972" y2="226" stroke="#d97706" stroke-width="3"/><text x="980" y="230" font-size="12.5" fill="#374151">vip 3  38733</text>
  <line x1="950" y1="248" x2="972" y2="248" stroke="#16a34a" stroke-width="3"/><text x="980" y="252" font-size="12.5" fill="#374151">vip 2  38044</text>
  <line x1="950" y1="270" x2="972" y2="270" stroke="#2563eb" stroke-width="3"/><text x="980" y="274" font-size="12.5" fill="#374151">vip 0  37197</text>
  <line x1="950" y1="292" x2="972" y2="292" stroke="#dc2626" stroke-width="3"/><text x="980" y="296" font-size="12.5" fill="#374151">vip 1  37197</text>
  <text x="80" y="542" text-anchor="start" font-size="12" fill="#6b7280">2025-10-02</text><text x="932" y="542" text-anchor="end" font-size="12" fill="#6b7280">2025-10-28</text>
</svg>
