<?xml version="1.0" encoding="UTF-8"?>
<svg xmlns="http://www.w3.org/2000/svg" width="1000" height="520" viewBox="0 0 1000 520" font-family="ui-sans-serif, system-ui, sans-serif">
  <rect width="1000" height="520" fill="#ffffff"/>
  <text x="78" y="28" font-size="18" font-weight="700" fill="#111827">Zone Recovery — XRPUSDC best setting (equity / PnL)</text>
  <text x="78" y="48" font-size="12.5" fill="#6b7280">lev 20 · ratio 3 · gap 35% · maxSteps 4 · maxDD 60% · random · vip 9  ·  19 series, 94.7% win · vol $25506827 ($822801/day) · fees $2158</text>
  <text x="78" y="68" font-size="12.5" font-weight="600" fill="#1d4ed8">USDC · BNB −10% · taker 0.0085%</text>
  <text x="934" y="28" text-anchor="end" font-size="18" font-weight="700" fill="#16a34a">+192119 USDT  (+1921.19%)</text>
  <line x1="78" y1="468.0" x2="934" y2="468.0" stroke="#e5e7eb" stroke-width="1"/><text x="68" y="472.0" text-anchor="end" font-size="12" fill="#6b7280">0.00</text><line x1="78" y1="392.0" x2="934" y2="392.0" stroke="#e5e7eb" stroke-width="1"/><text x="68" y="396.0" text-anchor="end" font-size="12" fill="#6b7280">43658</text><line x1="78" y1="316.0" x2="934" y2="316.0" stroke="#e5e7eb" stroke-width="1"/><text x="68" y="320.0" text-anchor="end" font-size="12" fill="#6b7280">87315</text><line x1="78" y1="240.0" x2="934" y2="240.0" stroke="#e5e7eb" stroke-width="1"/><text x="68" y="244.0" text-anchor="end" font-size="12" fill="#6b7280">130973</text><line x1="78" y1="164.0" x2="934" y2="164.0" stroke="#e5e7eb" stroke-width="1"/><text x="68" y="168.0" text-anchor="end" font-size="12" fill="#6b7280">174631</text><line x1="78" y1="88.0" x2="934" y2="88.0" stroke="#e5e7eb" stroke-width="1"/><text x="68" y="92.0" text-anchor="end" font-size="12" fill="#6b7280">218288</text>
  <line x1="78" y1="450.6" x2="934" y2="450.6" stroke="#9ca3af" stroke-width="1.5" stroke-dasharray="6 4"/><text x="934" y="444.6" text-anchor="end" font-size="11" fill="#6b7280">start 10000</text>
  <polyline points="78.0,320.4 78.8,319.9 79.4,319.0 80.2,320.6 81.1,320.7 82.3,321.4 83.1,325.1 83.9,321.1 84.2,318.3 84.6,318.2 85.2,319.1 86.5,319.4 87.5,319.2 88.5,315.9 89.3,316.9 91.0,316.3 92.3,317.0 93.8,315.3 94.6,316.7 95.8,316.9 96.2,312.4 96.5,313.3 97.2,313.2 98.0,311.1 98.3,309.2 99.0,311.7 99.9,310.4 101.0,309.3 101.7,310.9 103.1,310.9 104.4,308.7 104.9,306.8 105.8,307.9 106.6,307.3 107.3,308.1 107.6,309.0 108.2,310.5 108.8,308.9 109.2,306.5 109.6,306.2 109.9,303.9 110.2,303.2 110.7,306.5 111.4,308.4 112.0,308.7 112.6,308.2 113.5,306.9 114.4,309.4 115.0,308.5 115.6,308.5 116.2,305.2 116.5,305.4 116.9,301.2 116.9,300.9 117.1,300.8 117.3,297.9 117.5,298.5 117.8,300.5 118.3,301.0 118.7,302.1 119.2,303.3 120.0,300.8 120.2,299.8 120.7,299.7 121.2,298.6 121.6,299.8 122.1,299.7 122.2,302.3 122.3,302.8 122.4,300.5 122.5,297.0 122.6,296.7 122.6,294.0 122.7,292.2 122.8,293.1 122.9,292.8 123.0,294.8 123.2,296.1 123.3,299.4 123.4,296.3 123.5,293.8 123.6,292.0 123.8,290.9 123.9,291.8 124.1,292.0 124.2,290.5 124.3,287.9 124.4,287.0 124.5,285.1 124.6,278.7 124.7,277.8 124.7,277.5 124.9,280.0 125.0,278.3 125.1,278.3 125.2,273.7 125.3,269.1 125.4,271.2 125.5,266.5 125.5,265.5 125.6,265.5 125.7,266.8 125.8,270.6 125.9,269.7 126.1,266.9 126.2,267.4 126.3,264.9 126.5,267.1 126.7,266.5 126.9,266.7 127.0,268.7 127.2,269.2 127.3,272.5 127.5,271.6 127.6,272.9 127.8,266.9 128.0,266.7 128.1,266.0 128.4,266.4 128.6,266.7 128.8,266.6 129.0,266.0 129.2,267.2 129.5,267.8 129.8,269.4 129.8,268.3 130.1,269.2 130.4,265.3 130.5,263.0 130.7,262.2 130.8,256.7 131.0,256.6 131.0,253.4 131.2,258.1 131.4,258.5 131.6,256.7 131.9,256.5 132.3,259.2 132.6,260.8 133.0,260.2 133.4,259.4 133.7,253.1 133.8,250.3 134.0,252.8 134.2,255.8 134.4,256.9 134.7,254.6 135.1,252.5 135.6,254.2 135.9,256.4 136.3,254.6 136.7,255.5 137.1,255.2 137.6,250.3 137.8,249.3 138.0,247.6 138.3,244.7 138.4,244.7 138.6,246.9 138.9,246.2 139.2,246.4 139.5,249.3 139.7,251.7 140.2,252.1 140.8,254.0 141.1,259.9 141.4,258.3 141.6,263.3 141.7,266.1 141.9,268.6 142.0,264.0 142.3,265.0 142.6,264.0 142.9,262.5 143.2,261.1 143.6,260.8 144.1,258.4 144.5,256.9 145.1,260.5 145.9,261.8 146.6,263.5 147.5,262.0 148.0,263.2 148.7,262.7 149.5,261.1 149.9,258.5 150.5,260.2 151.6,261.3 152.1,263.5 152.7,261.8 153.5,262.0 154.5,260.9 155.5,260.6 156.5,263.8 157.4,261.4 158.2,259.9 159.1,259.5 159.9,259.4 160.9,255.5 161.0,253.7 161.2,251.8 161.5,251.1 161.8,250.3 162.0,248.7 162.2,249.4 162.6,251.1 162.9,252.5 163.2,251.9 163.6,251.4 164.0,252.4 164.4,251.1 164.7,248.4 165.0,247.6 165.2,243.7 165.4,243.4 165.6,244.3 165.8,239.9 166.1,241.4 166.4,242.9 166.7,242.2 167.0,240.2 167.2,239.6 167.5,239.7 167.9,239.7 168.1,239.2 168.4,240.7 168.6,240.4 168.8,238.4 169.0,235.8 169.2,239.4 169.5,239.0 169.8,237.6 170.1,240.5 170.2,238.2 170.3,235.6 170.5,235.2 170.7,235.4 171.0,236.4 171.3,237.7 171.6,237.8 171.9,238.3 172.2,235.5 172.3,233.6 172.5,233.6 172.8,235.1 173.1,232.8 173.4,231.9 173.7,231.7 174.1,232.6 174.4,231.3 174.6,231.3 174.8,230.6 175.1,226.9 175.1,222.1 175.2,220.7 175.3,222.3 175.4,224.4 175.6,224.2 175.8,221.9 175.9,223.8 176.2,226.6 176.3,228.2 176.4,228.9 176.7,229.2 177.0,229.0 177.3,227.1 177.6,231.6 177.7,232.7 177.9,232.3 178.2,230.7 178.5,230.4 178.8,232.6 179.1,230.3 179.3,232.1 179.5,232.6 179.8,232.8 180.2,231.1 180.6,229.9 180.9,228.2 181.2,230.9 181.6,230.7 182.0,232.7 182.3,235.8 182.5,233.4 182.8,233.8 182.9,236.9 183.1,235.8 183.4,232.2 183.7,235.1 184.0,232.7 184.4,230.7 184.8,230.7 185.2,228.5 185.4,228.1 185.8,231.3 186.2,229.0 186.5,230.4 186.9,234.6 187.3,230.1 187.5,230.6 187.8,231.0 188.0,230.3 188.4,231.1 188.5,228.7 188.6,231.1 188.8,228.6 189.0,227.9 189.2,227.4 189.4,224.5 189.5,224.9 189.7,223.5 189.7,218.7 189.8,219.7 189.9,218.7 190.1,215.4 190.3,213.4 190.3,209.4 190.4,208.7 190.6,205.3 190.7,207.1 190.8,207.7 190.9,209.8 191.2,212.2 191.3,213.0 191.5,213.8 191.7,211.9 192.0,211.2 192.2,213.3 192.4,212.8 192.6,209.9 192.9,212.6 193.2,212.9 193.4,215.7 193.6,219.8 193.7,219.4 194.0,219.1 194.3,219.1 194.6,216.7 194.9,216.5 195.2,218.1 195.5,218.2 195.9,222.1 196.1,222.5 196.4,218.9 196.8,216.1 197.2,216.9 197.6,215.9 197.9,212.8 198.1,210.6 198.3,211.2 198.6,212.7 198.9,217.4 199.1,217.5 199.3,214.6 199.6,211.8 199.9,212.6 200.1,211.7 200.3,211.0 200.7,214.1 200.9,213.8 201.2,216.6 201.5,216.8 201.8,217.7 202.1,216.4 202.4,217.7 202.7,216.7 202.9,217.9 203.2,218.0 203.6,217.7 203.9,219.8 204.1,221.2 204.3,221.4 204.6,221.2 204.9,221.1 205.1,219.0 205.2,219.1 205.3,215.9 205.4,214.3 205.5,211.0 205.5,213.1 205.6,212.3 205.7,209.7 205.8,211.3 205.9,212.9 206.0,209.9 206.1,209.1 206.2,209.6 206.3,205.9 206.4,204.7 206.5,203.8 206.6,206.3 206.8,203.8 206.9,202.0 207.0,203.4 207.1,201.5 207.2,199.3 207.3,197.8 207.3,202.7 207.4,199.8 207.5,198.8 207.6,197.6 207.7,197.8 207.8,194.9 207.9,195.0 208.1,193.9 208.2,195.2 208.4,197.7 208.5,201.6 208.6,199.8 208.7,198.1 208.8,194.6 209.0,195.0 209.1,193.7 209.1,190.7 209.2,188.9 209.4,188.1 209.5,187.0 209.6,189.0 209.7,183.9 209.8,181.3 209.9,177.9 209.9,179.6 210.0,177.1 210.1,173.7 210.1,170.1 210.2,169.8 210.3,168.9 210.3,170.3 210.4,169.8 210.5,166.5 210.6,166.0 210.7,168.8 210.8,166.2 210.9,167.3 211.0,165.4 211.0,167.7 211.1,165.6 211.2,165.5 211.3,166.8 211.4,165.8 211.5,163.8 211.5,158.9 211.5,156.3 211.6,153.5 211.6,149.8 211.6,148.2 211.7,152.9 211.7,151.2 211.8,147.7 211.8,144.3 211.8,145.1 211.9,146.7 212.0,143.5 212.0,140.3 212.1,140.7 212.1,147.0 212.1,150.8 212.2,147.7 212.3,150.5 212.3,148.4 212.4,149.8 212.5,151.2 212.5,155.1 212.6,152.4 212.6,151.1 212.7,145.0 212.8,149.0 212.9,147.1 213.0,143.3 213.1,143.8 213.2,144.9 213.3,147.4 213.4,142.2 213.5,145.4 213.6,141.4 213.7,143.7 213.9,147.2 214.0,148.0 214.1,145.7 214.2,143.2 214.4,144.9 214.5,141.6 214.7,143.6 215.0,143.0 215.1,139.7 215.2,132.4 215.3,134.5 215.4,136.3 215.5,135.9 215.6,134.5 215.6,136.0 215.8,136.2 215.9,134.6 216.0,138.6 216.1,135.3 216.2,141.6 216.2,145.1 216.3,145.3 216.4,147.6 216.4,147.9 216.5,144.5 216.6,141.9 216.6,135.5 216.7,139.5 216.7,140.1 216.8,143.1 216.9,141.8 216.9,136.9 217.0,136.0 217.1,136.1 217.2,132.9 217.2,127.7 217.3,124.1 217.3,126.8 217.3,128.1 217.4,129.1 217.5,129.5 217.5,125.7 217.6,123.6 217.7,125.2 217.8,124.4 217.8,120.1 217.9,123.2 217.9,126.5 218.0,130.0 218.1,132.4 218.2,132.0 218.3,133.1 218.4,127.5 218.5,124.0 218.6,127.5 218.7,126.2 218.8,121.8 218.8,119.6 218.9,114.2 218.9,117.3 219.0,120.5 219.1,120.1 219.1,120.0 219.2,120.9 219.3,125.4 219.4,123.7 219.5,122.6 219.6,121.5 219.7,122.9 219.8,121.0 219.9,121.7 220.1,123.8 220.2,123.7 220.3,123.6 220.4,123.5 220.5,124.7 220.6,124.7 220.8,128.9 220.9,128.5 221.0,127.4 221.2,131.1 221.3,130.3 221.4,125.4 221.5,125.2 221.6,124.2 221.8,122.6 221.9,119.8 222.0,121.0 222.1,118.9 222.3,120.5 222.5,122.7 222.7,124.6 222.9,124.6 223.0,121.1 223.2,122.9 223.3,123.2 223.4,127.9 223.6,127.6 223.8,126.5 223.9,127.5 224.1,128.8 224.3,128.9 224.6,131.7 224.6,138.8 224.7,137.7 224.8,137.1 224.9,140.6 224.9,141.7 225.0,144.6 225.1,147.6 225.1,144.3 225.2,145.6 225.3,145.3 225.4,141.1 225.6,142.9 225.7,142.8 225.9,142.9 226.0,142.9 226.2,146.5 226.4,143.4 226.5,139.4 226.7,141.0 226.8,140.0 227.1,140.7 227.3,139.2 227.5,136.3 227.6,138.4 227.9,136.8 228.2,137.8 228.5,135.9 228.7,134.5 228.9,134.9 229.0,132.2 229.3,132.7 229.5,130.1 229.7,130.0 229.9,127.5 230.0,122.8 230.2,125.9 230.4,126.0 230.6,128.6 230.7,131.3 230.9,129.8 231.1,131.3 231.3,129.8 231.5,131.1 231.7,130.1 232.0,130.0 232.2,130.5 232.4,128.4 232.5,125.2 232.5,123.9 232.6,125.9 232.7,124.9 232.7,123.5 232.8,127.1 232.8,124.5 232.9,125.6 233.0,125.9 233.0,126.9 233.1,130.0 233.1,123.3 233.2,127.5 233.3,128.1 233.4,126.4 233.5,126.5 233.6,125.7 233.8,124.0 233.9,124.9 234.0,128.0 234.0,134.0 234.1,136.9 234.1,140.1 234.2,141.5 234.3,138.6 234.4,141.6 234.4,142.2 234.5,138.0 234.6,141.2 234.6,144.9 234.7,142.5 234.9,143.6 234.9,148.0 235.0,152.0 235.0,157.0 235.0,156.3 235.0,160.8 235.1,156.9 235.1,156.9 235.2,156.2 235.2,160.3 235.3,160.0 235.3,163.2 235.4,163.7 235.4,166.7 235.5,159.8 235.5,158.7 235.6,161.0 235.7,164.4 235.8,163.2 235.8,164.7 235.9,164.1 236.0,168.3 236.1,163.7 236.2,163.8 236.3,162.8 236.4,165.8 236.5,167.6 236.6,171.4 236.6,179.2 236.6,178.6 236.6,177.7 236.7,176.2 236.7,182.1 236.7,184.2 236.7,185.1 236.8,187.8 236.8,187.8 236.8,184.7 236.9,179.5 237.0,177.7 237.1,176.3 237.2,177.4 237.3,172.7 237.5,175.2 237.7,175.7 237.8,174.5 238.0,176.3 238.2,172.4 238.4,176.7 238.6,176.3 238.7,181.1 238.9,183.4 239.1,178.0 239.2,172.8 239.4,173.5 239.5,170.0 239.7,169.2 239.9,169.2 240.1,172.1 240.2,171.8 240.3,172.3 240.5,170.5 240.5,166.9 240.6,164.7 240.7,165.1 240.8,161.4 240.9,162.6 241.1,162.9 241.3,163.2 241.5,160.5 241.7,163.4 241.9,163.1 242.2,161.3 242.5,158.8 242.7,157.9 243.0,155.4 243.2,154.6 243.5,154.7 243.7,156.1 243.9,153.9 244.1,150.0 244.2,151.4 244.4,151.7 244.6,155.4 244.7,159.0 244.8,162.0 245.0,160.7 245.1,167.1 245.2,169.2 245.3,166.5 245.4,167.7 245.5,171.0 245.6,169.7 245.8,171.3 246.0,170.2 246.2,167.4 246.3,168.3 246.6,170.7 246.8,167.3 247.0,165.8 247.3,166.6 247.5,163.7 247.8,168.4 248.1,169.0 248.4,166.0 248.7,166.9 249.1,170.2 249.4,170.8 249.7,171.9 250.0,175.9 250.2,169.4 250.5,174.1 250.8,171.4 251.2,168.1 251.6,170.1 251.9,165.5 252.2,164.1 252.5,161.9 252.7,165.4 253.0,162.2 253.3,162.7 253.5,162.4 253.8,163.2 254.0,161.2 254.2,166.6 254.3,166.9 254.5,170.9 254.6,172.6 254.7,178.4 254.8,179.0 254.9,180.3 255.1,177.2 255.2,178.2 255.4,177.2 255.8,176.5 256.1,174.3 256.4,174.0 256.8,173.7 257.1,173.2 257.5,174.9 257.8,172.7 258.2,176.4 258.6,175.6 258.9,177.9 259.1,174.5 259.4,175.0 259.7,176.8 259.8,182.5 260.0,183.0 260.1,183.2 260.2,186.5 260.3,187.7 260.4,186.2 260.4,185.2 260.5,182.5 260.5,184.8 260.6,180.2 260.7,181.8 260.8,182.2 261.0,183.9 261.0,188.8 261.1,188.7 261.2,188.6 261.3,192.9 261.3,196.0 261.4,196.2 261.5,195.7 261.5,195.5 261.6,192.6 261.7,193.3 261.8,193.4 262.0,193.9 262.2,192.2 262.3,188.3 262.5,188.5 262.6,188.1 262.8,190.9 262.9,188.7 263.1,190.1 263.3,192.3 263.4,193.1 263.7,191.5 263.9,189.7 264.1,192.1 264.3,194.7 264.5,193.9 264.7,194.9 264.9,194.8 265.1,194.4 265.4,195.0 265.6,196.3 265.8,197.8 265.9,200.2 266.0,202.0 266.2,195.5 266.4,195.5 266.7,194.3 266.9,195.9 267.1,199.8 267.3,198.5 267.5,199.0 267.7,199.6 267.8,201.1 268.0,202.1 268.2,199.8 268.5,199.0 269.0,201.0 269.3,199.5 269.7,198.4 270.0,201.5 270.2,208.6 270.4,205.4 270.6,201.0 270.8,203.4 271.1,204.7 271.4,205.8 271.6,206.0 271.7,210.2 271.9,209.2 272.1,207.5 272.3,204.0 272.5,202.7 272.8,201.0 273.0,197.4 273.2,197.4 273.6,197.9 273.8,199.6 274.0,195.7 274.1,201.3 274.3,205.8 274.5,204.9 274.8,202.2 275.1,204.0 275.4,205.5 275.6,210.7 275.7,210.3 275.9,208.9 276.2,209.5 276.4,204.5 276.7,205.3 277.0,206.0 277.3,206.0 277.7,209.2 278.0,210.8 278.2,213.2 278.3,216.8 278.4,217.7 278.6,220.3 278.7,219.4 278.8,216.8 279.1,219.8 279.2,222.2 279.3,225.6 279.4,227.2 279.5,227.7 279.5,223.1 279.7,223.9 279.9,222.1 280.1,222.2 280.3,223.2 280.5,220.6 280.7,219.1 280.9,217.8 281.1,220.5 281.4,223.0 281.6,224.0 281.8,221.2 282.0,226.6 282.2,227.0 282.4,227.0 282.7,228.7 282.8,232.8 282.9,231.1 283.1,230.4 283.3,227.5 283.5,227.3 283.8,226.8 284.1,229.0 284.3,229.9 284.5,230.3 284.6,232.3 284.8,232.4 285.0,231.6 285.2,234.2 285.3,236.3 285.5,234.2 285.8,236.7 285.9,235.3 286.2,236.2 286.5,233.1 286.8,232.4 287.0,233.2 287.3,233.8 287.5,235.3 287.7,232.8 287.9,239.1 288.0,237.3 288.0,235.1 288.1,232.8 288.1,235.8 288.2,238.3 288.3,239.6 288.3,235.6 288.4,233.3 288.4,230.0 288.5,232.4 288.6,234.5 288.7,236.2 288.7,234.5 288.8,230.1 288.8,228.7 288.9,226.0 289.0,226.7 289.1,223.3 289.1,225.2 289.2,226.0 289.4,222.2 289.5,224.9 289.6,223.3 289.7,216.7 289.8,218.3 289.9,215.3 290.0,218.0 290.1,222.7 290.2,219.7 290.3,219.7 290.4,223.7 290.5,216.3 290.6,214.5 290.7,213.4 290.9,213.0 291.0,211.9 291.1,209.2 291.2,209.4 291.4,213.2 291.5,211.3 291.7,210.1 291.9,207.9 292.0,206.0 292.2,207.8 292.3,212.8 292.5,213.1 292.7,216.0 292.9,217.2 293.1,215.8 293.3,212.9 293.5,213.6 293.8,211.2 294.1,212.5 294.3,217.7 294.4,220.2 294.6,220.9 294.8,222.7 295.0,218.8 295.3,217.6 295.4,218.8 295.6,216.4 295.9,218.1 296.2,214.3 296.4,214.5 296.7,214.1 297.0,215.1 297.3,217.9 297.8,216.5 298.1,217.3 298.7,219.0 299.2,219.7 299.7,216.8 300.2,216.3 300.6,221.3 300.6,213.6 300.7,220.4 300.9,223.7 301.2,224.6 301.4,217.6 301.6,216.4 302.0,219.4 302.4,221.2 302.8,219.1 303.2,217.9 303.6,216.0 304.1,216.3 304.6,218.3 305.0,218.5 305.5,216.8 306.1,216.2 306.6,213.0 307.0,213.5 307.5,215.5 307.8,217.9 308.1,220.7 308.2,222.3 308.5,221.1 308.8,225.0 309.0,227.8 309.0,232.7 309.0,236.2 309.1,236.6 309.3,234.2 309.4,231.5 309.6,231.8 309.8,230.4 309.9,228.6 310.3,228.4 310.7,227.8 311.2,227.2 311.9,228.3 312.3,227.9 312.8,227.2 313.1,230.1 313.6,230.6 314.1,228.9 314.3,227.2 314.4,223.4 314.5,228.1 314.6,225.0 314.9,226.1 315.2,229.0 315.4,229.7 315.6,230.4 315.7,232.8 315.8,229.5 315.9,233.9 316.0,235.0 316.1,231.5 316.2,232.3 316.3,232.6 316.4,231.1 316.5,228.5 316.6,225.6 316.7,219.1 316.7,214.6 316.7,210.6 316.8,210.7 316.8,208.0 316.9,209.4 316.9,214.1 317.0,220.8 317.0,219.0 317.1,221.2 317.2,223.7 317.3,223.7 317.4,216.8 317.4,216.4 317.5,216.2 317.6,213.2 317.7,214.6 317.9,218.6 318.0,220.5 318.2,219.4 318.4,217.0 318.6,217.8 318.8,224.2 318.9,227.1 319.1,229.0 319.3,228.2 319.5,225.2 319.8,227.7 320.0,232.7 320.2,234.3 320.3,231.0 320.5,231.3 320.8,233.2 321.1,235.2 321.4,235.0 321.7,232.3 322.0,233.6 322.3,232.0 322.7,233.4 323.1,233.7 323.3,235.1 323.7,232.7 324.5,232.7 324.9,229.4 325.7,231.0 326.6,230.6 327.5,231.7 328.6,229.8 329.6,231.1 330.5,229.6 331.3,234.1 332.2,234.0 333.2,231.6 334.3,231.2 335.2,230.0 336.1,228.6 337.2,231.0 338.1,229.8 339.2,227.7 340.4,227.4 341.1,227.2 342.0,230.6 342.9,232.1 344.0,231.2 345.1,229.7 346.3,230.3 347.5,232.7 348.9,229.0 350.7,231.6 352.1,231.3 353.1,231.8 354.3,232.1 355.4,232.2 356.6,231.2 358.2,231.1 359.9,231.0 361.3,230.3 362.2,229.4 363.5,232.2 364.7,229.9 366.2,231.1 368.1,229.7 368.8,226.6 369.7,229.0 370.8,227.5 371.4,225.3 371.7,228.2 372.3,232.3 372.6,232.0 373.1,228.9 373.4,228.7 374.0,230.6 375.0,232.2 376.1,231.1 377.1,232.9 377.2,235.7 377.3,241.3 377.4,243.1 377.5,246.1 377.6,243.2 378.0,242.0 378.4,244.1 378.9,241.6 379.4,237.6 379.7,243.5 380.0,241.4 380.6,243.2 380.7,246.1 380.9,239.8 381.0,237.7 381.3,239.8 381.6,238.2 381.9,241.0 382.1,242.1 382.2,245.5 382.3,243.0 382.5,246.6 382.6,249.6 382.7,248.9 382.8,248.3 382.9,244.1 383.0,239.9 383.0,239.0 383.2,240.5 383.3,239.1 383.5,237.7 383.6,242.5 383.8,241.2 384.1,240.8 384.2,237.4 384.3,233.8 384.5,236.0 384.7,234.0 384.9,231.2 385.0,228.2 385.1,227.2 385.3,229.2 385.5,227.8 385.8,228.8 386.0,231.9 386.3,235.3 386.6,231.8 387.1,230.9 387.7,231.8 388.3,233.3 388.8,234.1 389.4,238.3 389.9,239.0 390.3,241.8 390.5,244.5 390.8,244.2 391.0,244.7 391.4,243.5 391.6,247.0 391.7,249.5 391.8,249.8 392.0,248.1 392.2,246.1 392.7,246.8 393.1,247.8 393.5,247.9 394.0,249.1 394.5,250.4 394.9,248.1 395.6,247.0 396.1,245.4 396.8,246.3 397.2,246.7 397.6,246.4 398.0,245.4 398.2,245.7 398.3,247.9 398.4,244.1 398.5,242.7 398.6,241.5 398.7,238.6 398.8,239.9 398.9,239.6 399.1,238.6 399.2,237.9 399.4,235.6 399.5,235.0 399.6,233.8 399.7,231.7 399.9,233.3 400.0,231.8 400.2,230.0 400.3,229.9 400.5,229.7 400.7,228.6 400.8,226.5 400.9,230.5 401.1,231.3 401.4,228.9 401.5,233.7 401.8,235.8 401.9,238.4 402.0,242.6 402.1,239.2 402.4,239.4 402.7,237.1 403.0,237.5 403.2,240.6 403.6,240.7 403.9,239.4 404.5,241.2 404.9,237.4 405.2,239.7 405.6,240.0 405.9,242.6 406.2,243.4 406.5,245.8 406.9,248.1 407.2,243.6 407.8,244.4 408.6,245.9 409.4,244.6 409.9,243.0 410.6,242.6 411.2,246.1 411.9,243.6 412.8,245.0 413.4,244.5 414.2,245.9 414.9,245.3 415.4,241.6 415.5,237.1 415.8,240.1 416.3,240.7 416.9,242.4 417.5,242.2 418.4,244.5 418.9,242.7 419.6,240.7 420.1,239.6 420.4,238.9 420.6,240.2 421.2,240.9 421.9,242.7 422.8,241.7 423.6,242.1 424.4,242.0 424.9,238.7 424.9,236.6 425.0,237.2 425.1,240.3 425.4,239.5 425.7,239.1 426.0,234.8 426.1,233.9 426.2,230.6 426.3,231.0 426.4,233.2 426.5,236.5 426.7,238.1 426.8,237.2 427.0,239.1 427.2,237.7 427.3,232.1 427.5,233.1 427.7,228.8 427.8,226.5 428.0,228.0 428.2,229.0 428.3,229.5 428.5,226.6 428.6,223.6 428.7,223.9 428.9,225.1 429.0,227.1 429.2,230.8 429.4,230.9 429.6,229.8 429.9,229.9 430.2,229.8 430.4,226.4 430.7,225.0 431.0,224.8 431.3,226.5 431.6,224.5 431.9,221.6 432.1,219.7 432.2,214.1 432.4,212.9 432.5,212.1 432.6,213.9 432.7,213.4 432.8,211.4 433.0,214.5 433.1,219.7 433.3,216.4 433.5,218.2 433.6,214.7 433.7,214.9 433.9,215.5 434.2,218.2 434.5,219.4 434.8,216.8 434.9,209.8 434.9,202.9 434.9,203.5 434.9,207.9 435.0,205.4 435.0,204.8 435.0,201.4 435.1,203.9 435.2,206.5 435.4,208.3 435.6,201.2 435.7,201.0 435.9,198.4 436.0,199.1 436.2,199.4 436.4,204.2 436.5,206.9 436.7,207.2 436.9,204.2 437.1,206.2 437.3,206.7 437.6,206.5 437.8,203.2 437.9,203.8 438.1,204.2 438.3,202.5 438.6,202.0 438.9,206.0 439.1,201.9 439.3,200.7 439.6,199.5 439.7,199.0 439.9,200.2 440.2,202.9 440.6,202.2 441.0,203.4 441.4,199.9 441.7,199.3 442.0,200.5 442.5,203.1 442.9,206.8 443.2,208.4 443.5,206.2 443.9,208.6 444.0,211.9 444.4,212.7 444.6,213.7 445.1,210.6 445.4,209.3 445.8,211.7 446.2,210.2 446.8,210.2 447.3,212.5 447.7,209.5 448.3,209.6 448.8,210.6 449.0,214.9 449.3,213.7 449.8,217.0 450.1,218.3 450.5,219.7 450.8,222.4 451.2,220.2 451.7,219.3 452.3,220.4 452.5,218.0 452.9,221.5 453.1,220.4 453.3,214.9 453.5,214.5 453.7,212.6 453.7,213.1 453.8,210.9 453.9,210.4 454.0,206.8 454.1,205.5 454.1,204.1 454.2,207.4 454.3,209.9 454.4,209.0 454.4,206.7 454.5,203.3 454.6,201.8 454.7,201.7 454.9,206.4 455.0,210.2 455.1,210.8 455.2,210.6 455.4,208.3 455.5,206.7 455.6,202.4 455.8,200.9 456.0,203.5 456.1,206.1 456.2,202.8 456.4,203.9 456.5,206.9 456.7,205.1 456.9,204.5 457.1,205.9 457.2,211.6 457.4,210.8 457.6,213.3 457.8,212.8 458.0,214.3 458.2,210.3 458.4,216.9 458.5,216.6 458.6,215.2 458.8,213.8 459.0,212.1 459.2,210.6 459.4,206.5 459.5,209.3 459.8,209.2 460.1,210.7 460.2,206.9 460.4,208.3 460.7,211.5 460.9,212.6 461.1,209.9 461.5,211.0 462.1,210.5 462.4,211.6 462.9,213.9 463.4,214.9 463.8,212.2 464.4,212.9 464.9,213.8 465.3,216.2 465.8,214.1 466.3,218.3 466.5,219.8 467.0,221.2 467.3,221.0 467.6,224.1 467.8,225.7 468.0,225.8 468.4,225.5 468.6,231.6 468.7,231.2 468.9,232.3 469.2,231.6 469.6,228.2 470.0,227.3 470.4,227.3 471.0,227.6 471.5,227.6 472.0,229.2 472.6,230.1 473.2,227.1 473.8,227.8 474.2,227.2 474.8,226.5 475.5,226.3 475.8,221.6 476.0,221.3 476.5,222.6 476.9,223.6 477.6,221.6 478.1,222.6 478.7,223.1 479.3,222.6 479.9,220.0 480.4,220.0 480.6,217.3 481.0,217.8 481.3,220.1 481.4,224.3 481.4,227.5 481.5,228.7 481.6,231.0 481.7,226.2 481.8,227.7 481.9,228.0 482.0,225.3 482.2,228.1 482.3,230.6 482.4,232.1 482.6,235.2 482.7,233.2 482.8,235.7 482.8,237.9 482.9,232.3 483.0,228.9 483.1,230.0 483.2,230.1 483.4,229.5 483.7,232.6 483.8,231.2 484.1,230.5 484.3,233.5 484.7,232.3 484.9,230.1 485.2,231.2 485.4,234.3 485.6,237.5 485.9,237.1 486.2,238.6 486.5,240.5 486.7,238.9 486.9,240.0 487.1,240.9 487.3,243.1 487.6,240.2 487.8,238.9 488.1,241.9 488.5,241.7 488.7,241.4 489.3,238.1 490.1,237.3 490.7,235.3 491.3,235.7 492.2,235.5 492.9,233.2 493.6,236.4 494.3,234.6 494.9,239.0 495.5,238.5 496.3,239.1 497.2,238.6 497.7,241.3 498.3,240.9 498.8,237.9 499.5,238.1 500.6,236.5 501.6,236.6 502.3,236.4 503.0,239.2 504.1,240.5 505.0,241.5 505.6,240.3 506.4,239.8 507.2,241.7 507.8,243.3 508.4,240.8 508.9,240.1 509.0,242.1 509.2,241.6 509.4,243.2 509.6,242.3 509.8,244.6 509.9,245.2 510.0,248.6 510.1,251.5 510.2,248.2 510.3,250.5 510.4,252.7 510.6,251.7 510.8,250.2 511.0,248.0 511.3,249.6 511.6,247.2 512.0,248.1 512.5,246.0 512.9,245.1 513.4,244.6 514.0,245.6 514.6,247.0 515.1,244.5 515.6,243.3 516.0,239.8 516.3,235.9 516.5,236.0 516.8,237.8 517.4,236.5 517.8,237.5 518.6,237.3 519.4,239.6 520.3,239.1 521.2,240.4 522.5,241.6 524.1,243.6 525.2,241.6 526.7,241.0 528.3,242.9 529.8,242.0 531.3,241.0 532.6,242.5 533.9,240.8 535.1,241.0 536.3,239.6 536.8,236.7 537.2,237.7 537.5,237.4 538.0,236.0 538.5,235.8 539.0,238.7 539.9,236.4 540.5,236.3 541.7,236.4 542.9,237.8 544.1,238.2 545.4,239.4 546.2,240.6 547.1,240.7 548.2,241.8 548.8,243.7 549.7,245.6 550.5,245.9 551.2,243.7 552.4,244.2 553.8,244.7 554.4,243.9 555.9,243.8 557.3,243.6 558.6,242.6 560.1,243.6 561.7,244.1 562.8,245.4 563.5,245.2 564.1,242.5 564.8,246.5 565.9,245.2 566.5,244.5 567.0,244.9 567.8,247.1 568.7,241.7 569.1,240.5 569.9,243.3 571.0,242.4 572.2,243.2 573.1,241.5 574.0,245.8 574.1,248.5 574.3,248.0 574.4,252.0 574.5,256.5 574.5,256.0 574.6,256.9 574.7,261.3 574.8,265.8 574.8,267.3 574.8,265.5 574.9,267.4 575.0,264.9 575.0,270.4 575.0,282.5 575.1,286.3 575.1,296.3 575.1,293.9 575.1,308.5 575.1,317.8 575.1,313.5 575.1,297.5 575.1,291.4 575.1,284.3 575.1,285.4 575.2,285.5 575.2,287.8 575.2,284.0 575.2,284.7 575.3,287.5 575.3,286.7 575.3,290.2 575.4,290.1 575.4,287.5 575.4,286.8 575.5,290.2 575.5,286.9 575.5,287.5 575.6,286.6 575.6,289.0 575.7,286.9 575.8,285.7 575.8,283.2 575.9,280.9 576.0,280.8 576.0,281.1 576.2,283.4 576.3,283.4 576.4,281.2 576.5,280.3 576.7,282.5 576.8,278.8 577.0,279.2 577.1,283.1 577.3,280.9 577.5,280.1 577.8,277.8 578.0,278.6 578.3,279.2 578.6,279.1 578.9,279.4 579.3,278.0 579.7,274.6 580.1,274.9 580.4,275.2 580.8,276.1 581.1,276.8 581.4,275.8 581.6,277.3 582.0,277.2 582.5,276.6 582.8,280.2 583.2,278.3 583.7,279.1 584.3,277.1 584.5,276.0 584.7,271.1 584.9,271.5 585.2,271.5 585.6,271.7 586.0,272.3 586.5,270.4 587.1,273.5 587.7,270.5 588.2,272.2 588.8,274.3 589.4,273.9 589.9,274.8 590.4,275.4 590.8,273.5 591.3,274.1 591.7,271.6 592.1,269.5 592.5,269.7 592.9,271.1 593.4,270.2 593.8,266.6 594.0,261.5 594.2,263.3 594.4,257.0 594.5,254.5 594.6,255.1 594.8,258.7 595.1,256.1 595.3,259.4 595.6,257.4 595.9,256.9 596.2,256.4 596.5,256.7 597.0,259.4 597.4,258.8 598.0,258.7 598.4,261.7 598.9,262.3 599.3,261.5 599.8,263.9 600.4,263.9 600.6,269.8 600.9,266.9 601.4,268.6 601.6,268.6 601.8,267.5 602.0,268.4 602.2,266.4 602.7,268.4 602.9,267.6 603.3,269.3 603.7,268.5 604.0,271.0 604.3,269.7 604.6,273.2 605.0,275.4 605.4,276.2 605.8,275.0 606.3,278.3 606.8,278.2 607.2,277.4 607.8,275.7 608.3,274.8 608.5,276.9 608.7,279.7 609.0,276.1 609.4,274.9 609.9,280.8 609.9,283.8 610.1,279.0 610.3,280.4 610.6,282.3 610.9,280.1 611.4,280.7 611.8,282.1 612.1,283.6 612.2,285.8 612.3,286.1 612.5,287.7 612.5,288.6 612.6,291.7 612.7,291.5 612.9,290.1 613.1,291.0 613.4,289.1 613.7,290.2 614.0,291.9 614.4,288.8 614.9,289.1 615.4,287.9 615.9,286.4 616.4,288.7 616.9,289.1 617.5,287.5 617.8,290.9 618.2,289.5 618.4,289.7 618.6,292.6 618.9,290.7 619.1,292.9 619.3,291.6 619.4,289.7 619.5,286.6 619.6,289.4 619.7,291.0 619.7,288.7 619.8,290.5 620.0,292.9 620.0,291.6 620.1,294.7 620.2,290.3 620.3,292.4 620.4,291.5 620.5,292.1 620.6,293.3 620.7,294.2 620.9,293.2 621.1,292.7 621.2,294.4 621.4,290.7 621.7,294.8 621.9,296.0 622.0,297.9 622.2,295.9 622.3,293.2 622.6,294.4 622.8,296.6 623.0,296.6 623.1,298.0 623.3,298.1 623.4,298.3 623.6,297.9 623.8,298.9 624.1,300.4 624.3,300.0 624.5,298.9 624.7,299.4 625.0,299.3 625.2,300.8 625.4,299.9 625.7,299.0 626.0,299.4 626.2,296.9 626.5,299.4 626.7,296.1 626.9,299.1 627.2,301.7 627.4,303.0 627.7,305.1 628.3,301.4 628.6,307.4 628.6,309.5 628.7,304.2 629.0,304.0 629.2,304.0 629.5,305.1 629.7,302.0 630.0,303.4 630.4,302.2 630.6,300.9 630.9,299.9 631.0,295.5 631.2,295.6 631.5,295.6 631.8,296.6 632.1,295.6 632.4,299.6 632.7,298.0 633.1,300.0 633.4,300.5 633.9,300.1 634.4,298.4 634.8,299.0 635.3,298.4 636.0,297.3 636.6,297.2 636.9,291.5 637.2,292.9 637.8,292.7 638.3,294.2 638.7,293.3 639.1,296.2 639.5,297.1 640.0,298.7 640.2,300.2 640.6,298.9 641.0,299.0 641.5,295.5 641.8,296.1 642.1,294.3 642.6,296.8 643.0,299.9 643.5,298.1 643.9,300.4 644.1,303.4 644.2,302.0 644.3,305.8 644.5,303.5 644.6,305.6 644.8,303.2 645.1,300.4 645.4,298.6 645.8,298.8 646.0,300.9 646.3,302.0 646.4,302.1 646.5,297.3 646.6,294.2 646.6,290.5 646.7,287.1 646.7,288.0 646.8,288.1 646.9,290.2 647.0,286.2 647.0,286.2 647.1,290.3 647.2,289.2 647.2,288.7 647.3,287.7 647.5,285.4 647.5,285.0 647.6,284.6 647.7,284.5 647.8,280.9 647.9,283.2 648.1,283.6 648.2,284.5 648.4,281.7 648.5,279.9 648.7,279.6 648.9,281.4 649.0,284.4 649.1,288.2 649.3,287.6 649.4,292.4 649.4,296.7 649.5,297.7 649.6,298.2 649.6,296.0 649.7,299.8 649.8,304.4 649.8,303.8 649.9,303.6 650.0,301.2 650.1,305.3 650.1,307.9 650.2,304.4 650.3,305.3 650.4,305.4 650.5,307.8 650.6,305.3 650.7,305.0 650.8,303.8 651.0,304.1 651.2,303.2 651.4,302.0 651.5,302.4 651.7,302.2 651.9,298.4 652.0,297.4 652.2,298.6 652.4,299.8 652.6,296.8 652.7,289.2 652.7,286.2 652.7,281.7 652.8,281.5 652.8,279.9 652.8,276.2 652.8,274.3 652.9,274.0 652.9,273.2 653.0,269.4 653.0,270.3 653.1,271.7 653.1,275.6 653.2,273.9 653.3,276.1 653.4,278.5 653.5,279.0 653.6,277.8 653.7,281.0 653.8,278.9 654.0,279.2 654.2,278.7 654.3,274.7 654.5,274.7 654.6,271.9 654.8,269.4 655.0,272.4 655.3,271.4 655.6,272.8 655.8,268.6 656.0,270.3 656.2,272.3 656.5,275.1 656.8,276.2 657.1,278.7 657.5,280.1 657.7,285.0 657.9,282.0 658.2,279.9 658.7,279.4 659.1,278.1 659.4,277.1 659.8,278.4 660.2,278.6 660.5,279.6 660.8,280.6 661.2,283.2 661.6,280.6 662.0,283.9 662.5,282.3 663.0,281.0 663.6,280.4 664.2,282.7 664.7,281.3 665.1,279.7 665.6,280.2 666.1,281.2 666.5,282.2 667.0,282.3 667.3,281.2 667.7,282.3 668.1,278.8 668.6,277.2 669.0,277.0 669.5,277.8 670.0,279.3 670.5,279.8 671.0,281.8 671.3,284.2 671.7,283.2 672.3,282.3 672.8,284.7 673.1,286.5 673.4,283.4 673.6,288.1 673.8,288.7 674.0,289.7 674.4,291.1 674.6,290.4 674.7,291.0 674.8,291.2 674.9,293.7 675.1,294.0 675.2,293.1 675.4,293.5 675.6,293.3 675.7,297.3 675.8,297.9 676.0,295.8 676.1,292.7 676.3,294.1 676.4,294.8 676.6,297.0 676.8,293.2 677.0,292.8 677.3,290.3 677.5,291.7 677.8,292.1 678.0,294.2 678.3,289.9 678.6,289.7 678.9,289.6 679.3,288.5 679.6,291.8 679.9,290.5 680.4,289.7 680.7,288.2 681.0,289.1 681.4,290.7 681.7,292.3 682.0,291.4 682.4,289.6 682.9,291.8 683.4,288.5 684.0,290.9 684.5,293.5 684.9,292.1 685.6,291.6 686.1,291.8 686.6,293.2 687.1,293.0 687.6,291.2 688.2,293.1 688.8,296.0 689.5,293.5 690.1,294.6 690.7,291.5 691.2,291.9 691.8,296.1 692.2,296.8 692.7,294.5 693.1,297.4 693.5,296.2 693.9,295.8 694.5,295.1 694.8,295.4 695.3,297.0 695.6,296.5 696.0,296.3 696.5,298.4 696.9,296.4 697.4,295.4 697.9,295.9 698.4,295.5 699.1,295.2 699.9,296.0 700.6,296.2 701.2,298.0 701.7,297.3 702.1,297.8 702.2,300.4 702.3,302.4 702.4,300.4 702.5,302.9 702.7,300.7 702.9,300.4 703.1,303.2 703.2,298.4 703.5,298.3 703.7,294.8 703.8,293.7 704.0,288.4 704.1,290.4 704.4,289.2 704.6,287.4 704.7,283.4 704.8,282.0 705.0,288.1 705.3,288.7 705.5,284.7 705.6,280.2 705.7,280.3 705.8,278.5 706.0,279.8 706.2,283.6 706.4,278.9 706.6,281.3 706.8,280.3 707.1,282.9 707.4,285.2 707.6,286.3 707.8,287.2 708.0,290.5 708.2,288.4 708.5,292.8 708.7,290.2 709.1,293.1 709.2,296.4 709.4,294.8 709.6,294.1 709.9,291.8 710.5,293.3 711.0,290.1 711.5,288.9 712.2,292.2 713.2,292.1 714.2,292.7 715.5,292.3 716.5,291.3 717.3,290.3 718.7,291.3 720.0,291.9 721.5,293.1 723.2,292.3 724.6,293.7 726.8,293.7 728.6,292.7 729.5,292.7 730.5,292.5 731.5,295.1 732.3,294.9 733.5,293.6 735.0,292.4 736.8,293.3 738.7,292.6 739.7,292.9 740.8,294.3 741.9,294.6 742.7,298.1 744.0,297.1 745.0,300.1 746.2,298.8 747.7,299.1 748.3,300.4 749.3,300.2 750.7,302.7 751.1,303.0 751.8,302.0 752.5,300.2 753.0,296.9 754.1,298.0 755.0,299.5 756.0,300.4 757.0,300.7 757.4,304.0 758.0,304.5 758.7,302.8 759.2,309.1 759.2,313.3 759.2,312.6 759.3,314.2 759.4,315.9 759.4,318.5 759.5,319.0 759.6,316.8 759.7,315.5 759.9,316.6 760.2,316.6 760.4,317.1 760.5,321.5 760.8,321.3 761.1,318.6 761.5,320.1 761.7,322.0 761.8,319.0 762.0,322.5 762.1,323.3 762.3,325.4 762.4,324.0 762.7,323.2 763.0,327.6 763.1,328.2 763.2,329.7 763.3,326.7 763.6,328.3 763.6,328.9 763.9,327.0 764.1,328.3 764.4,330.3 764.7,327.4 765.0,323.8 765.2,322.1 765.5,324.4 765.9,321.5 766.3,322.3 766.6,327.5 766.9,327.0 767.2,325.9 767.3,322.6 767.6,323.7 767.9,326.2 768.2,322.7 768.5,320.7 768.7,317.4 769.1,319.0 769.4,316.9 769.6,310.8 769.7,306.5 769.9,305.9 770.1,306.2 770.3,307.2 770.5,306.6 770.7,307.1 771.1,307.3 771.4,307.2 771.8,308.2 772.3,307.9 772.6,309.5 773.0,309.9 773.4,304.9 773.6,303.4 774.1,307.2 774.8,307.8 775.4,306.9 775.9,306.6 776.4,306.7 776.8,306.0 777.2,306.5 777.7,305.5 778.0,301.7 778.3,303.2 778.8,304.8 779.2,306.1 779.7,307.8 780.1,304.4 780.9,304.2 781.6,302.9 782.2,299.2 782.6,301.0 783.4,300.1 783.7,296.0 784.0,295.2 784.4,297.9 784.6,296.4 784.8,295.9 785.0,298.0 785.1,292.7 785.2,293.5 785.2,292.2 785.4,294.0 785.5,295.0 785.7,294.0 785.8,288.4 785.8,288.3 785.9,286.8 786.0,287.1 786.2,289.1 786.3,290.6 786.4,294.2 786.5,293.3 786.6,290.3 786.8,288.2 786.9,288.7 787.1,291.2 787.2,288.5 787.4,289.2 787.6,292.7 787.8,290.0 788.0,294.0 788.2,297.1 788.4,296.6 788.6,296.2 788.9,295.7 789.3,295.0 789.5,295.0 789.7,291.7 789.9,293.6 790.2,292.1 790.6,294.5 791.0,294.8 791.5,297.4 791.9,298.7 792.3,302.6 792.6,302.3 793.1,300.4 793.3,297.9 793.8,300.4 794.4,298.9 795.1,299.0 795.6,296.8 796.3,298.2 797.2,300.3 797.7,297.3 798.3,295.3 798.9,296.4 799.4,294.0 800.1,294.7 800.8,294.9 801.5,296.1 802.2,299.0 803.2,299.2 804.0,300.7 804.9,300.5 805.8,300.7 806.5,303.6 807.1,304.7 807.9,304.1 809.0,305.1 809.7,303.9 810.6,305.2 811.5,307.1 812.1,308.1 812.4,302.4 812.6,302.9 812.8,305.7 812.9,306.0 813.1,304.6 813.3,305.6 813.5,303.6 813.8,306.6 814.1,304.6 814.3,302.1 814.5,297.8 814.6,297.1 814.7,297.3 814.9,297.7 815.0,296.6 815.3,295.7 815.5,294.2 815.7,298.4 815.8,302.4 815.9,304.5 816.1,301.6 816.3,306.1 816.5,306.5 816.7,303.3 816.9,304.5 817.2,304.0 817.6,302.0 817.8,297.0 818.1,297.3 818.5,299.5 818.9,297.5 819.2,294.6 819.4,290.8 819.5,292.3 819.8,293.1 820.0,291.7 820.2,290.8 820.4,291.1 820.8,292.5 821.3,295.0 821.8,295.0 822.4,293.6 823.0,292.6 823.7,294.0 824.3,296.1 824.8,296.5 825.3,300.5 825.9,298.7 826.4,299.4 827.0,299.4 827.6,299.8 828.3,299.7 829.1,299.2 829.9,298.8 830.5,295.1 830.9,293.3 831.3,294.6 831.8,292.5 832.5,294.1 833.1,293.9 833.7,296.1 834.3,297.0 834.8,291.7 835.1,288.9 835.4,289.3 836.1,289.9 836.8,289.7 837.2,288.0 837.4,286.1 837.6,288.3 838.1,287.7 838.6,290.2 838.9,289.5 839.3,286.8 839.8,290.3 840.2,292.1 840.3,289.8 840.5,292.0 840.6,292.7 840.9,292.0 841.1,297.0 841.2,296.6 841.4,296.7 841.7,295.2 842.0,298.5 842.4,296.2 842.6,297.2 842.9,296.6 843.3,296.7 843.7,297.7 844.0,294.0 844.3,291.8 844.4,293.7 844.8,294.9 845.4,294.3 845.5,294.8 845.8,294.1 846.0,294.6 846.1,294.1 846.3,296.0 846.5,291.6 846.8,292.6 847.1,288.9 847.4,293.3 847.7,293.4 847.8,296.3 848.0,293.1 848.5,294.8 849.0,295.3 849.5,296.1 850.2,295.3 850.8,296.5 851.4,296.6 851.9,298.4 852.4,297.5 852.8,302.4 853.2,301.0 853.6,302.5 854.1,305.6 854.1,306.5 854.3,308.6 854.5,309.0 854.8,306.4 855.2,309.8 855.8,309.4 856.2,311.2 856.8,307.5 857.4,306.5 858.4,306.8 859.4,305.2 860.4,305.3 860.7,307.5 861.0,306.1 861.8,309.1 862.4,309.1 863.3,309.2 864.0,310.0 864.7,311.4 865.6,310.5 866.1,310.1 866.9,308.8 867.7,309.1 867.8,316.1 867.9,314.9 868.0,318.6 868.1,320.3 868.1,324.3 868.2,320.5 868.4,323.9 868.4,327.5 868.5,325.7 868.5,325.8 868.6,330.4 868.6,329.6 868.7,331.5 868.7,331.7 868.8,334.7 868.8,332.6 868.9,331.7 868.9,330.1 869.0,331.0 869.1,332.3 869.2,332.7 869.2,338.3 869.3,338.1 869.4,337.6 869.4,335.6 869.5,333.6 869.6,336.9 869.7,337.6 869.8,335.6 869.9,335.6 870.1,335.1 870.2,334.6 870.4,332.9 870.6,331.7 870.7,328.7 870.9,326.1 871.1,322.5 871.2,322.6 871.4,325.5 871.6,329.2 871.8,329.8 871.9,329.0 872.2,331.6 872.3,334.7 872.4,335.9 872.5,336.8 872.6,334.9 872.9,338.4 872.9,339.0 873.1,339.9 873.2,340.4 873.4,341.7 873.6,341.4 873.7,337.1 873.9,339.9 874.1,339.1 874.4,340.3 874.8,338.4 875.1,335.2 875.3,334.7 875.5,335.4 875.9,336.1 876.3,334.6 876.7,333.1 877.4,332.3 878.0,336.2 878.5,332.8 879.0,332.8 879.4,335.1 879.8,336.2 880.3,337.5 880.6,337.0 880.7,342.2 880.7,343.5 880.7,350.3 880.7,349.7 880.7,355.7 880.8,358.5 880.8,365.6 880.8,357.8 880.8,353.1 880.8,355.5 880.8,354.4 880.8,355.4 880.9,355.8 880.9,357.9 881.0,354.8 881.0,351.1 881.1,351.9 881.2,352.4 881.3,354.3 881.4,355.7 881.5,359.2 881.6,360.7 881.6,359.3 881.7,359.1 881.8,356.0 882.0,351.7 882.1,354.4 882.3,352.3 882.5,350.5 882.8,352.5 883.1,354.3 883.3,354.0 883.5,352.4 883.7,348.9 883.9,347.9 884.2,349.3 884.6,349.1 885.0,349.2 885.5,348.1 885.9,351.7 886.2,353.6 886.4,355.0 886.6,359.5 886.7,355.8 887.0,354.1 887.1,350.3 887.4,353.6 887.7,353.3 888.0,351.8 888.2,350.0 888.5,349.8 888.7,354.5 889.0,353.2 889.4,353.9 889.6,357.4 889.9,354.9 890.1,359.2 890.4,357.0 890.8,355.3 891.3,354.0 891.8,352.9 892.3,352.3 892.5,344.9 892.7,346.6 893.0,347.2 893.4,349.1 893.8,349.7 894.0,350.4 894.3,353.1 894.4,351.8 894.5,352.2 894.7,353.3 895.1,349.3 895.3,349.2 895.5,351.4 895.6,349.2 895.7,348.2 895.8,345.1 895.9,347.1 896.0,348.6 896.1,347.7 896.1,345.3 896.2,346.1 896.3,346.3 896.4,349.2 896.5,349.1 896.6,353.3 896.6,354.2 896.7,353.1 896.7,346.3 896.8,344.0 896.8,345.6 896.9,345.6 897.0,346.2 897.0,348.2 897.1,348.1 897.2,350.1 897.3,350.9 897.4,347.6 897.6,350.7 897.7,352.7 897.8,349.6 897.9,348.7 898.0,346.4 898.1,347.7 898.3,350.1 898.4,351.9 898.6,351.6 898.7,351.2 898.8,346.6 899.0,348.6 899.1,350.5 899.3,349.7 899.5,351.8 899.7,355.8 899.8,359.8 899.9,363.7 899.9,366.2 900.0,361.6 900.1,360.9 900.2,362.8 900.3,361.4 900.3,354.6 900.4,351.2 900.4,348.8 900.5,350.3 900.5,345.7 900.6,343.8 900.7,346.2 900.8,342.3 900.9,345.4 901.0,342.7 901.1,342.6 901.3,344.3 901.4,344.9 901.6,346.1 901.8,344.7 901.9,351.0 902.1,348.5 902.2,351.5 902.3,352.1 902.4,353.0 902.5,357.7 902.6,356.6 902.7,355.8 902.8,356.9 902.9,357.4 903.0,357.0 903.2,356.9 903.4,354.6 903.6,357.4 903.8,361.0 903.9,360.3 904.1,360.6 904.3,359.9 904.5,364.1 904.8,360.8 905.3,362.2 905.7,360.1 906.3,358.9 906.8,358.6 907.3,358.5 907.9,355.5 908.4,355.6 908.9,357.4 909.4,355.7 909.7,353.3 910.4,354.0 910.9,355.6 911.6,355.6 912.2,359.2 912.8,358.6 913.4,359.0 913.8,362.8 914.2,361.7 914.7,361.3 915.1,364.0 915.3,365.2 915.7,364.5 915.9,368.0 916.0,367.7 916.2,370.7 916.3,375.2 916.4,377.6 916.4,376.5 916.5,375.9 916.7,372.8 917.0,371.9 917.3,371.4 917.6,371.3 918.1,372.9 918.5,368.1 919.1,369.9 919.7,370.0 920.3,372.0 920.6,372.6 921.0,373.5 921.3,374.8 921.7,375.9 922.0,378.4 922.1,379.4 922.3,379.9 922.6,379.6 922.7,382.9 922.8,384.1 922.9,387.4 923.0,388.5 923.0,387.7 923.0,393.6 923.0,390.9 923.1,393.6 923.1,394.3 923.1,396.5 923.2,395.5 923.2,397.7 923.2,400.7 923.3,398.1 923.3,400.5 923.4,399.2 923.4,397.7 923.5,396.7 923.6,392.6 923.7,393.8 923.8,389.5 923.8,386.2 923.9,388.8 924.0,390.0 924.1,392.5 924.3,390.9 924.4,391.0 924.6,391.2 924.8,393.9 924.9,396.1 925.0,397.4 925.1,400.7 925.1,392.9 925.2,393.9 925.2,391.9 925.3,391.7 925.4,396.2 925.5,398.7 925.7,399.7 925.7,402.2 925.8,401.8 925.9,402.7 925.9,403.0 926.0,401.7 926.1,404.6 926.1,407.0 926.1,411.6 926.2,413.7 926.2,419.8 926.2,421.2 926.2,433.1 926.2,424.3 926.2,420.1 926.2,417.0 926.2,417.1 926.2,417.2 926.3,418.0 926.3,418.0 926.3,418.3 926.4,420.0 926.4,421.6 926.4,419.7 926.5,420.2 926.5,418.6 926.6,421.2 926.6,422.2 926.7,413.3 926.7,418.0 926.8,418.1 926.9,419.5 926.9,419.0 927.0,417.8 927.1,414.8 927.2,418.0 927.3,416.8 927.4,415.0 927.4,420.3 927.5,421.1 927.6,417.7 927.7,416.4 927.8,420.6 927.8,425.2 927.9,423.6 927.9,425.0 927.9,428.7 927.9,437.5 927.9,432.1 928.0,424.9 928.0,412.2 928.0,413.9 928.0,408.1 928.0,407.8 928.0,413.0 928.0,412.2 928.0,416.0 928.1,414.5 928.1,410.2 928.2,415.7 928.2,414.3 928.3,410.8 928.3,409.3 928.4,405.6 928.4,406.6 928.5,407.8 928.5,406.7 928.6,405.1 928.7,408.8 928.8,409.8 928.9,412.8 929.0,413.5 929.1,415.7 929.2,412.5 929.3,412.3 929.4,412.5 929.6,412.6 929.8,413.7 929.9,410.6 930.0,416.5 930.1,414.0 930.3,412.5 930.4,411.1 930.6,406.5 930.7,408.3 930.9,407.8 931.0,410.5 931.1,403.4 931.2,402.3 931.3,399.6 931.5,398.6 931.6,397.5 931.7,399.4 931.9,400.6 932.0,402.9 932.3,402.8 932.5,404.9 932.9,401.5 933.2,399.8 933.3,394.1 933.3,389.8 933.4,389.4 933.5,389.9 933.7,392.4 933.9,390.5 934.0,390.2" fill="none" stroke="#d97706" stroke-width="1.2" stroke-linejoin="round" opacity="0.6"/><text x="942" y="472.0" text-anchor="start" font-size="11" fill="#d97706">1.43</text><text x="942" y="396.0" text-anchor="start" font-size="11" fill="#d97706">1.64</text><text x="942" y="320.0" text-anchor="start" font-size="11" fill="#d97706">1.85</text><text x="942" y="244.0" text-anchor="start" font-size="11" fill="#d97706">2.06</text><text x="942" y="168.0" text-anchor="start" font-size="11" fill="#d97706">2.28</text><text x="942" y="92.0" text-anchor="start" font-size="11" fill="#d97706">2.49</text><text x="942" y="80.0" text-anchor="start" font-size="11" font-weight="600" fill="#d97706">price</text>
  <polygon points="124.4,468.0 124.4,450.6 124.4,445.8 133.8,439.6 167.1,442.3 207.2,431.8 209.7,435.2 211.8,421.8 235.0,426.1 266.0,409.1 278.3,414.6 434.9,421.9 449.0,431.7 454.6,444.8 487.0,438.3 575.0,430.1 575.1,419.7 575.1,424.2 584.6,406.3 594.3,412.1 604.0,419.8 628.6,389.4 652.8,367.7 672.9,377.1 761.7,340.0 785.8,304.6 792.1,317.8 835.0,335.4 852.8,358.9 869.2,266.2 870.9,278.9 872.2,295.9 915.9,228.8 925.7,191.0 926.2,153.2 926.2,166.0 927.9,183.0 928.0,205.7 933.3,116.1 933.3,468.0" fill="#16a34a" fill-opacity="0.08"/>
  <polyline points="124.4,450.6 124.4,445.8 133.8,439.6 167.1,442.3 207.2,431.8 209.7,435.2 211.8,421.8 235.0,426.1 266.0,409.1 278.3,414.6 434.9,421.9 449.0,431.7 454.6,444.8 487.0,438.3 575.0,430.1 575.1,419.7 575.1,424.2 584.6,406.3 594.3,412.1 604.0,419.8 628.6,389.4 652.8,367.7 672.9,377.1 761.7,340.0 785.8,304.6 792.1,317.8 835.0,335.4 852.8,358.9 869.2,266.2 870.9,278.9 872.2,295.9 915.9,228.8 925.7,191.0 926.2,153.2 926.2,166.0 927.9,183.0 928.0,205.7 933.3,116.1" fill="none" stroke="#16a34a" stroke-width="2" stroke-linejoin="round"/>
  <line x1="88" y1="102" x2="110" y2="102" stroke="#16a34a" stroke-width="2.5"/><text x="116" y="106" font-size="11.5" fill="#374151">equity</text><line x1="88" y1="118" x2="110" y2="118" stroke="#d97706" stroke-width="2.5" opacity="0.8"/><text x="116" y="122" font-size="11.5" fill="#374151">price</text>
  <text x="78" y="502" text-anchor="start" font-size="12" fill="#6b7280">2026-01-01</text><text x="934" y="502" text-anchor="end" font-size="12" fill="#6b7280">2026-01-31</text>
</svg>
