<?xml version="1.0" encoding="UTF-8"?>
<svg xmlns="http://www.w3.org/2000/svg" width="1100" height="560" viewBox="0 0 1100 560" font-family="ui-sans-serif, system-ui, sans-serif">
  <rect width="1100" height="560" fill="#ffffff"/>
  <text x="80" y="28" font-size="18" font-weight="700" fill="#111827">Zone Recovery — XRPUSDC fee-tier comparison (best setting)</text>
  <text x="80" y="48" font-size="12.5" fill="#6b7280">lev 20 · ratio 3 · gap 35% · maxSteps 4 · maxDD 60% · random  ·  equity per fee tier vip 0..9</text>
  <text x="80" y="68" font-size="12.5" font-weight="600" fill="#1d4ed8">USDC margin · BNB −10%</text>
  <line x1="80" y1="508.0" x2="932" y2="508.0" stroke="#e5e7eb" stroke-width="1"/><text x="70" y="512.0" text-anchor="end" font-size="12" fill="#6b7280">0.00</text><line x1="80" y1="424.0" x2="932" y2="424.0" stroke="#e5e7eb" stroke-width="1"/><text x="70" y="428.0" text-anchor="end" font-size="12" fill="#6b7280">43658</text><line x1="80" y1="340.0" x2="932" y2="340.0" stroke="#e5e7eb" stroke-width="1"/><text x="70" y="344.0" text-anchor="end" font-size="12" fill="#6b7280">87315</text><line x1="80" y1="256.0" x2="932" y2="256.0" stroke="#e5e7eb" stroke-width="1"/><text x="70" y="260.0" text-anchor="end" font-size="12" fill="#6b7280">130973</text><line x1="80" y1="172.0" x2="932" y2="172.0" stroke="#e5e7eb" stroke-width="1"/><text x="70" y="176.0" text-anchor="end" font-size="12" fill="#6b7280">174631</text><line x1="80" y1="88.0" x2="932" y2="88.0" stroke="#e5e7eb" stroke-width="1"/><text x="70" y="92.0" text-anchor="end" font-size="12" fill="#6b7280">218288</text>
  <line x1="80" y1="488.8" x2="932" y2="488.8" stroke="#9ca3af" stroke-width="1.5" stroke-dasharray="6 4"/>
  <polyline points="80.0,488.8 80.0,483.5 89.9,476.8 124.9,479.8 167.2,468.4 169.8,472.2 172.0,457.8 196.5,462.6 229.2,444.2 242.1,450.4 407.0,458.6 421.9,469.5 427.7,484.1 462.0,477.5 554.7,469.1 554.7,458.5 554.7,463.3 564.8,445.2 574.9,451.2 585.2,459.3 611.1,428.7 636.6,407.0 657.7,416.7 751.2,379.8 776.6,344.8 783.3,359.8 828.5,379.9 847.2,406.6 864.5,305.2 866.3,319.7 867.7,339.1 913.7,265.6 924.0,224.3 924.5,183.0 924.5,197.5 926.4,216.9 926.4,242.8 932.0,144.9" fill="none" stroke="#2563eb" stroke-width="1.8" stroke-linejoin="round" opacity="0.9"/>
  <polyline points="80.0,488.8 80.0,483.5 89.9,476.8 124.9,479.8 167.2,468.4 169.8,472.2 172.0,457.8 196.5,462.6 229.2,444.2 242.1,450.4 407.0,458.6 421.9,469.5 427.7,484.1 462.0,477.5 554.7,469.1 554.7,458.5 554.7,463.3 564.8,445.2 574.9,451.2 585.2,459.3 611.1,428.7 636.6,407.0 657.7,416.7 751.2,379.8 776.6,344.8 783.3,359.8 828.5,379.9 847.2,406.6 864.5,305.2 866.3,319.7 867.7,339.1 913.7,265.6 924.0,224.3 924.5,183.0 924.5,197.5 926.4,216.9 926.4,242.8 932.0,144.9" fill="none" stroke="#dc2626" stroke-width="1.8" stroke-linejoin="round" opacity="0.9"/>
  <polyline points="80.0,488.8 80.0,483.5 89.9,476.7 124.9,479.7 167.2,468.3 169.8,472.1 172.0,457.6 196.5,462.4 229.2,443.9 242.1,450.0 407.0,458.2 421.9,469.1 427.7,483.6 462.0,476.9 554.7,468.4 554.7,457.5 554.7,462.3 564.8,443.8 574.9,450.0 585.2,458.1 611.1,426.8 636.6,404.5 657.7,414.4 751.2,376.5 776.6,340.4 783.3,355.3 828.5,375.2 847.2,401.7 864.5,300.0 866.3,314.4 867.7,333.7 913.7,260.0 924.0,218.6 924.5,177.1 924.5,191.5 926.4,210.8 926.4,236.4 932.0,138.3" fill="none" stroke="#16a34a" stroke-width="1.8" stroke-linejoin="round" opacity="0.9"/>
  <polyline points="80.0,488.8 80.0,483.5 89.9,476.7 124.9,479.7 167.2,468.2 169.8,472.0 172.0,457.4 196.5,462.2 229.2,443.6 242.1,449.7 407.0,457.9 421.9,468.8 427.7,483.3 462.0,476.4 554.7,467.7 554.7,456.7 554.7,461.5 564.8,442.7 574.9,448.9 585.2,457.2 611.1,425.2 636.6,402.4 657.7,412.5 751.2,373.7 776.6,336.8 783.3,351.6 828.5,371.4 847.2,397.8 864.5,295.8 866.3,310.1 867.7,329.2 913.7,255.4 924.0,213.9 924.5,172.4 924.5,186.7 926.4,205.8 926.4,231.3 932.0,132.9" fill="none" stroke="#d97706" stroke-width="1.8" stroke-linejoin="round" opacity="0.9"/>
  <polyline points="80.0,488.8 80.0,483.4 89.9,476.7 124.9,479.6 167.2,468.1 169.8,471.8 172.0,457.2 196.5,461.9 229.2,443.2 242.1,449.3 407.0,457.4 421.9,468.3 427.7,482.7 462.0,475.8 554.7,466.9 554.7,455.5 554.7,460.4 564.8,441.1 574.9,447.4 585.2,455.8 611.1,423.0 636.6,399.5 657.7,409.7 751.2,369.7 776.6,331.6 783.3,346.3 828.5,365.9 847.2,392.0 864.5,289.7 866.3,303.9 867.7,322.9 913.7,248.8 924.0,207.2 924.5,165.5 924.5,179.7 926.4,198.7 926.4,223.9 932.0,125.2" fill="none" stroke="#7c3aed" stroke-width="1.8" stroke-linejoin="round" opacity="0.9"/>
  <polyline points="80.0,488.8 80.0,483.4 89.9,476.7 124.9,479.6 167.2,468.1 169.8,471.8 172.0,457.1 196.5,461.9 229.2,443.1 242.1,449.2 407.0,457.4 421.9,468.2 427.7,482.6 462.0,475.6 554.7,466.7 554.7,455.3 554.7,460.2 564.8,440.8 574.9,447.1 585.2,455.6 611.1,422.6 636.6,399.0 657.7,409.2 751.2,369.0 776.6,330.6 783.3,345.3 828.5,364.9 847.2,391.0 864.5,288.7 866.3,302.8 867.7,321.7 913.7,247.7 924.0,206.0 924.5,164.3 924.5,178.5 926.4,197.4 926.4,222.6 932.0,123.8" fill="none" stroke="#0891b2" stroke-width="1.8" stroke-linejoin="round" opacity="0.9"/>
  <polyline points="80.0,488.8 80.0,483.4 89.9,476.7 124.9,479.6 167.2,468.0 169.8,471.8 172.0,457.1 196.5,461.9 229.2,443.1 242.1,449.2 407.0,457.3 421.9,468.1 427.7,482.6 462.0,475.6 554.7,466.6 554.7,455.1 554.7,460.1 564.8,440.6 574.9,447.0 585.2,455.4 611.1,422.3 636.6,398.6 657.7,408.9 751.2,368.5 776.6,330.0 783.3,344.7 828.5,364.2 847.2,390.3 864.5,287.9 866.3,302.1 867.7,321.0 913.7,246.8 924.0,205.2 924.5,163.5 924.5,177.6 926.4,196.5 926.4,221.7 932.0,122.9" fill="none" stroke="#db2777" stroke-width="1.8" stroke-linejoin="round" opacity="0.9"/>
  <polyline points="80.0,488.8 80.0,483.4 89.9,476.6 124.9,479.6 167.2,468.0 169.8,471.8 172.0,457.0 196.5,461.8 229.2,443.0 242.1,449.1 407.0,457.2 421.9,468.1 427.7,482.5 462.0,475.4 554.7,466.4 554.7,454.9 554.7,459.9 564.8,440.3 574.9,446.7 585.2,455.1 611.1,421.9 636.6,398.0 657.7,408.3 751.2,367.8 776.6,329.0 783.3,343.6 828.5,363.2 847.2,389.2 864.5,286.8 866.3,300.9 867.7,319.8 913.7,245.6 924.0,203.9 924.5,162.2 924.5,176.3 926.4,195.2 926.4,220.3 932.0,121.4" fill="none" stroke="#65a30d" stroke-width="1.8" stroke-linejoin="round" opacity="0.9"/>
  <polyline points="80.0,488.8 80.0,483.4 89.9,476.6 124.9,479.6 167.2,468.0 169.8,471.8 172.0,457.0 196.5,461.8 229.2,443.0 242.1,449.1 407.0,457.2 421.9,468.0 427.7,482.4 462.0,475.3 554.7,466.3 554.7,454.8 554.7,459.8 564.8,440.1 574.9,446.5 585.2,455.0 611.1,421.6 636.6,397.7 657.7,408.0 751.2,367.3 776.6,328.4 783.3,343.0 828.5,362.5 847.2,388.5 864.5,286.0 866.3,300.1 867.7,319.0 913.7,244.8 924.0,203.1 924.5,161.3 924.5,175.4 926.4,194.3 926.4,219.4 932.0,120.5" fill="none" stroke="#475569" stroke-width="1.8" stroke-linejoin="round" opacity="0.9"/>
  <polyline points="80.0,488.8 80.0,483.4 89.9,476.6 124.9,479.6 167.2,468.0 169.8,471.7 172.0,457.0 196.5,461.7 229.2,442.9 242.1,449.0 407.0,457.1 421.9,467.9 427.7,482.3 462.0,475.2 554.7,466.2 554.7,454.6 554.7,459.6 564.8,439.8 574.9,446.2 585.2,454.7 611.1,421.2 636.6,397.1 657.7,407.5 751.2,366.6 776.6,327.4 783.3,342.0 828.5,361.5 847.2,387.4 864.5,284.9 866.3,299.0 867.7,317.8 913.7,243.6 924.0,201.8 924.5,160.1 924.5,174.2 926.4,193.0 926.4,218.1 932.0,119.1" fill="none" stroke="#ea580c" stroke-width="1.8" stroke-linejoin="round" opacity="0.9"/>
  <line x1="950" y1="94" x2="972" y2="94" stroke="#ea580c" stroke-width="3"/><text x="980" y="98" font-size="12.5" fill="#374151">vip 9  202119</text>
  <line x1="950" y1="116" x2="972" y2="116" stroke="#475569" stroke-width="3"/><text x="980" y="120" font-size="12.5" fill="#374151">vip 8  201401</text>
  <line x1="950" y1="138" x2="972" y2="138" stroke="#65a30d" stroke-width="3"/><text x="980" y="142" font-size="12.5" fill="#374151">vip 7  200909</text>
  <line x1="950" y1="160" x2="972" y2="160" stroke="#db2777" stroke-width="3"/><text x="980" y="164" font-size="12.5" fill="#374151">vip 6  200150</text>
  <line x1="950" y1="182" x2="972" y2="182" stroke="#0891b2" stroke-width="3"/><text x="980" y="186" font-size="12.5" fill="#374151">vip 5  199660</text>
  <line x1="950" y1="204" x2="972" y2="204" stroke="#7c3aed" stroke-width="3"/><text x="980" y="208" font-size="12.5" fill="#374151">vip 4  198949</text>
  <line x1="950" y1="226" x2="972" y2="226" stroke="#d97706" stroke-width="3"/><text x="980" y="230" font-size="12.5" fill="#374151">vip 3  194940</text>
  <line x1="950" y1="248" x2="972" y2="248" stroke="#16a34a" stroke-width="3"/><text x="980" y="252" font-size="12.5" fill="#374151">vip 2  192156</text>
  <line x1="950" y1="270" x2="972" y2="270" stroke="#2563eb" stroke-width="3"/><text x="980" y="274" font-size="12.5" fill="#374151">vip 0  188717</text>
  <line x1="950" y1="292" x2="972" y2="292" stroke="#dc2626" stroke-width="3"/><text x="980" y="296" font-size="12.5" fill="#374151">vip 1  188717</text>
  <text x="80" y="542" text-anchor="start" font-size="12" fill="#6b7280">2026-01-02</text><text x="932" y="542" text-anchor="end" font-size="12" fill="#6b7280">2026-01-31</text>
</svg>
