<?xml version="1.0" encoding="UTF-8"?>
<svg xmlns="http://www.w3.org/2000/svg" width="1000" height="520" viewBox="0 0 1000 520" font-family="ui-sans-serif, system-ui, sans-serif">
  <rect width="1000" height="520" fill="#ffffff"/>
  <text x="78" y="28" font-size="18" font-weight="700" fill="#111827">Zone Recovery — CHESSUSDT best setting (equity / PnL)</text>
  <text x="78" y="48" font-size="12.5" fill="#6b7280">lev 4 · ratio 2 · gap 20% · maxSteps 6 · maxDD 20% · random · vip 9  ·  37 series, 94.6% win · vol $5027088 ($935253/day) · fees $769.14</text>
  <text x="78" y="68" font-size="12.5" font-weight="600" fill="#1d4ed8">USDT · BNB −10% · taker 0.0153%</text>
  <text x="934" y="28" text-anchor="end" font-size="18" font-weight="700" fill="#16a34a">+14908 USDT  (+0.01%)</text>
  <line x1="78" y1="468.0" x2="934" y2="468.0" stroke="#e5e7eb" stroke-width="1"/><text x="68" y="472.0" text-anchor="end" font-size="12" fill="#6b7280">0.00</text><line x1="78" y1="392.0" x2="934" y2="392.0" stroke="#e5e7eb" stroke-width="1"/><text x="68" y="396.0" text-anchor="end" font-size="12" fill="#6b7280">21605901</text><line x1="78" y1="316.0" x2="934" y2="316.0" stroke="#e5e7eb" stroke-width="1"/><text x="68" y="320.0" text-anchor="end" font-size="12" fill="#6b7280">43211802</text><line x1="78" y1="240.0" x2="934" y2="240.0" stroke="#e5e7eb" stroke-width="1"/><text x="68" y="244.0" text-anchor="end" font-size="12" fill="#6b7280">64817703</text><line x1="78" y1="164.0" x2="934" y2="164.0" stroke="#e5e7eb" stroke-width="1"/><text x="68" y="168.0" text-anchor="end" font-size="12" fill="#6b7280">86423604</text><line x1="78" y1="88.0" x2="934" y2="88.0" stroke="#e5e7eb" stroke-width="1"/><text x="68" y="92.0" text-anchor="end" font-size="12" fill="#6b7280">108029505</text>
  <line x1="78" y1="116.2" x2="934" y2="116.2" stroke="#9ca3af" stroke-width="1.5" stroke-dasharray="6 4"/><text x="934" y="110.2" text-anchor="end" font-size="11" fill="#6b7280">start 100000000</text>
  <polyline points="78.0,282.8 78.6,274.3 79.0,278.1 79.7,275.3 80.9,275.5 82.1,277.5 83.7,276.9 85.0,278.3 86.1,281.1 86.9,283.8 88.1,279.5 89.3,280.7 90.7,279.3 92.0,278.7 93.3,277.5 94.8,279.1 96.5,278.3 97.1,274.0 97.8,274.9 98.6,279.5 99.7,276.9 100.5,276.1 101.9,277.1 104.7,274.5 108.4,270.4 109.7,273.0 112.5,271.6 116.5,276.7 119.6,272.8 124.0,276.1 127.6,276.3 130.9,279.1 133.2,277.7 138.3,276.3 143.4,274.9 148.1,276.5 150.0,285.2 152.1,280.9 157.2,282.4 160.9,282.4 165.1,279.1 168.4,266.1 168.7,269.4 169.4,272.6 170.0,277.7 171.2,277.1 173.7,278.5 175.6,281.3 177.9,280.7 179.4,285.8 180.7,288.8 181.9,278.5 182.3,284.0 183.7,280.7 184.9,281.7 186.6,284.0 189.5,285.6 192.1,285.0 194.8,288.6 197.7,283.0 200.1,281.7 203.1,282.6 206.3,285.0 210.1,288.8 213.6,289.4 216.4,286.2 220.1,290.5 223.7,291.5 226.1,286.8 228.7,286.4 231.1,292.1 232.5,293.3 234.4,289.2 237.4,293.5 239.4,291.1 242.3,288.0 245.0,291.1 247.3,286.0 251.0,286.2 252.6,291.9 255.2,288.2 258.7,295.9 260.7,304.6 262.4,299.8 264.2,292.7 265.8,290.5 267.3,287.8 271.3,295.1 274.5,300.4 277.3,298.2 279.9,297.8 281.8,292.5 283.6,294.5 287.5,294.7 290.9,291.7 294.4,290.7 297.0,294.1 297.0,300.8 297.0,311.5 297.1,321.7 297.1,333.2 297.1,315.8 297.1,293.7 297.1,298.0 297.1,298.6 297.1,293.5 297.1,278.5 297.2,299.6 297.2,311.9 297.2,321.7 297.2,327.3 297.3,335.2 297.3,348.6 297.3,345.0 297.3,347.6 297.3,350.6 297.4,351.2 297.4,347.0 297.4,356.9 297.4,356.3 297.5,363.4 297.5,343.7 297.5,321.1 297.5,321.1 297.5,317.0 297.5,316.2 297.6,319.8 297.6,327.1 297.6,326.5 297.6,325.1 297.6,320.2 297.6,318.6 297.7,331.0 297.7,331.8 297.8,330.0 297.8,332.8 297.8,315.8 297.9,311.5 297.9,297.1 297.9,281.1 297.9,267.8 297.9,241.2 297.9,229.3 297.9,231.5 297.9,241.8 297.9,276.1 297.9,265.9 298.0,286.6 298.0,275.3 298.0,267.8 298.0,237.0 298.0,257.2 298.0,251.6 298.0,266.4 298.1,257.2 298.1,235.2 298.1,251.8 298.1,249.5 298.1,266.4 298.1,280.3 298.2,296.9 298.2,292.3 298.2,301.2 298.2,312.9 298.3,303.4 298.3,323.9 298.3,321.5 298.3,332.6 298.3,319.8 298.4,326.3 298.4,303.0 298.4,293.9 298.4,304.8 298.4,316.4 298.5,333.4 298.5,340.5 298.5,358.7 298.5,352.9 298.6,347.6 298.6,362.2 298.6,363.0 298.6,358.1 298.7,341.9 298.7,331.8 298.7,305.7 298.7,302.2 298.7,317.8 298.8,309.7 298.8,313.4 298.8,327.1 298.9,321.5 299.0,315.0 299.0,315.0 299.1,321.3 299.1,317.0 299.2,312.9 299.2,330.8 299.2,340.1 299.3,337.3 299.4,324.1 299.5,322.5 299.6,331.2 299.8,323.1 300.0,330.2 300.1,333.8 300.2,338.7 300.3,332.2 300.5,331.8 300.6,336.4 300.8,350.6 300.9,347.4 301.0,358.3 301.1,359.5 301.3,355.3 301.5,347.4 301.6,336.6 301.8,343.1 301.9,337.9 302.2,330.0 302.5,334.0 302.8,339.9 303.3,340.5 303.7,345.0 304.0,341.5 304.3,353.5 304.5,343.3 304.9,340.9 305.2,357.3 305.2,359.7 305.3,349.2 305.6,347.2 305.8,352.7 305.9,360.4 306.0,364.0 306.1,376.0 306.1,381.8 306.1,394.0 306.1,384.7 306.2,370.5 306.3,363.0 306.3,355.9 306.4,343.9 306.4,353.9 306.4,356.3 306.6,356.1 307.0,352.0 307.1,347.6 307.5,353.1 307.9,351.8 308.3,348.4 308.5,340.3 308.8,351.6 309.2,353.3 309.8,358.3 310.2,361.2 310.5,350.0 310.8,362.4 311.2,364.8 311.5,378.6 311.7,380.0 311.9,364.6 312.1,366.8 312.5,370.7 313.2,372.5 313.9,370.3 314.2,373.9 314.7,375.1 315.2,376.4 316.0,377.2 316.8,377.0 317.4,371.1 317.6,374.5 318.2,369.7 318.6,366.6 319.2,369.5 320.1,368.9 321.1,370.1 322.4,374.9 323.5,376.8 324.4,379.2 325.6,376.2 326.7,375.5 327.4,384.9 327.7,389.7 328.3,393.6 328.5,385.7 329.0,386.5 329.9,387.3 330.5,378.2 331.0,378.6 331.8,382.0 332.9,378.4 333.8,376.0 334.5,376.0 335.4,377.0 335.7,378.2 335.9,367.8 336.6,374.7 337.4,376.2 338.4,377.4 339.7,375.5 340.8,382.0 341.4,377.4 342.3,382.0 343.4,381.8 343.7,387.7 344.0,392.2 344.4,392.8 344.6,398.4 345.3,398.8 345.6,404.5 345.8,403.7 346.1,403.9 346.2,412.6 346.3,401.9 346.4,416.5 346.5,414.6 346.8,402.7 347.1,411.2 347.3,411.6 347.6,413.2 348.0,411.8 348.3,415.1 348.6,413.8 348.9,417.9 349.1,405.3 349.2,410.0 349.6,411.2 349.8,404.9 350.0,410.4 350.3,408.4 350.6,407.4 351.0,408.4 351.3,414.4 351.4,413.8 351.7,415.3 352.3,414.0 352.9,411.6 353.5,411.6 354.6,409.6 354.9,405.9 355.6,408.2 356.2,410.8 356.8,407.2 357.1,406.3 357.6,407.8 358.5,407.4 359.5,403.9 360.0,404.5 360.8,406.7 362.0,405.3 362.9,406.3 363.7,401.9 364.3,400.5 365.0,398.0 365.4,396.2 366.2,402.7 367.2,403.3 368.4,402.7 369.4,401.1 370.2,401.1 370.6,398.6 370.9,399.5 371.1,394.2 371.3,393.6 371.7,398.2 372.1,400.5 372.4,402.3 372.9,418.5 372.9,411.0 373.4,411.6 373.5,420.3 373.8,415.9 374.3,418.9 374.6,417.3 375.1,421.9 375.6,421.9 376.0,426.4 376.3,426.4 376.8,426.2 377.0,427.8 377.4,426.0 377.8,426.2 378.4,425.4 378.8,424.6 379.4,428.6 379.4,436.3 379.6,434.7 380.0,433.5 380.2,429.4 380.4,434.5 380.7,440.4 381.0,437.1 381.4,431.5 381.8,427.0 381.9,409.0 381.9,414.8 381.9,423.6 382.0,420.1 382.1,423.0 382.4,422.1 382.7,416.3 382.9,415.3 383.3,415.5 383.6,414.6 384.1,412.8 384.9,415.3 385.5,407.4 386.3,405.7 386.7,404.5 387.5,399.2 388.3,402.1 388.9,401.5 389.7,400.5 390.3,400.3 390.8,399.9 391.5,396.0 392.5,393.8 393.0,388.7 393.5,385.1 394.1,387.1 395.1,396.6 395.5,394.2 396.5,395.2 396.9,392.0 397.2,387.3 397.6,384.1 398.2,381.4 398.5,385.9 398.6,393.0 398.7,383.2 398.8,392.0 399.1,392.2 399.5,395.2 400.3,387.3 401.2,388.5 402.2,382.8 402.6,385.5 403.4,378.6 403.6,383.4 404.1,376.8 404.4,373.9 404.8,367.0 404.9,359.9 405.2,363.2 405.5,357.5 405.6,356.3 405.9,361.0 406.2,368.1 406.4,372.7 406.6,377.6 407.0,378.8 407.4,372.3 407.9,376.4 408.6,368.7 409.1,359.1 409.5,359.7 410.1,360.6 410.4,355.1 410.9,350.4 411.0,342.7 411.0,347.4 411.2,342.5 411.4,353.7 411.7,359.9 412.0,348.2 412.2,341.5 412.4,347.4 412.7,356.3 413.2,343.9 413.4,340.1 413.6,333.6 413.7,325.7 413.9,321.1 414.0,323.5 414.1,325.9 414.2,329.4 414.2,322.9 414.4,326.3 414.7,324.5 414.9,325.5 415.2,322.3 415.4,322.5 415.6,315.8 415.8,319.0 416.1,317.0 416.2,332.0 416.3,335.0 416.4,349.8 416.4,354.5 416.5,348.0 416.6,347.2 416.7,353.9 416.9,349.2 417.0,351.8 417.2,348.4 417.4,348.4 417.8,345.0 418.2,354.9 418.5,358.3 418.6,364.8 418.8,363.4 419.0,358.9 419.4,354.7 419.9,348.2 420.2,343.7 420.7,341.5 421.0,328.3 421.1,326.9 421.4,319.4 421.7,311.9 421.9,308.3 422.0,309.7 422.3,303.8 422.5,299.8 422.7,299.6 422.9,291.7 423.1,286.6 423.2,290.1 423.3,286.8 423.3,292.9 423.4,296.9 423.5,300.6 423.7,298.0 423.9,308.3 424.0,305.5 424.2,316.4 424.3,316.4 424.5,321.9 424.7,324.9 424.8,319.0 425.1,327.1 425.2,335.2 425.3,341.7 425.5,337.7 425.7,349.6 425.8,349.0 425.9,349.6 426.2,344.8 426.4,334.0 426.7,331.8 427.0,334.2 427.4,334.8 427.9,336.9 428.4,322.9 428.7,319.8 429.0,309.1 429.2,307.1 429.6,295.1 429.7,287.0 429.8,272.8 429.9,268.8 430.0,284.8 430.1,280.9 430.2,273.4 430.3,260.5 430.3,249.1 430.3,254.6 430.4,263.7 430.5,252.0 430.5,245.7 430.6,254.2 430.7,255.0 430.7,237.8 430.7,253.6 430.8,258.9 430.8,238.0 430.9,239.0 430.9,254.0 431.0,251.8 431.1,238.4 431.2,241.0 431.2,243.5 431.3,260.3 431.4,266.6 431.4,265.1 431.5,260.5 431.7,263.3 431.8,262.5 431.9,248.5 431.9,245.5 432.1,235.2 432.1,232.7 432.2,245.1 432.3,232.5 432.4,234.3 432.5,245.7 432.6,241.0 432.6,254.4 432.7,248.1 432.7,251.6 432.8,261.5 432.8,249.1 432.8,271.8 432.9,268.4 432.9,265.9 433.0,251.4 433.1,246.7 433.2,253.0 433.2,239.2 433.3,228.5 433.4,205.0 433.4,192.8 433.4,198.9 433.4,194.8 433.4,202.1 433.5,199.3 433.5,195.4 433.6,198.9 433.6,200.5 433.6,192.2 433.7,198.9 433.7,193.2 433.7,164.2 433.7,175.8 433.8,174.6 433.8,170.3 433.8,171.3 433.8,170.7 433.9,160.8 433.9,164.2 433.9,176.2 433.9,167.1 434.0,165.3 434.0,175.0 434.0,160.0 434.1,167.7 434.1,160.0 434.2,155.7 434.2,153.3 434.2,159.6 434.2,150.7 434.3,141.4 434.3,128.6 434.3,136.9 434.3,135.1 434.3,130.8 434.3,131.6 434.3,135.1 434.4,137.1 434.4,148.0 434.4,145.2 434.5,150.3 434.5,147.8 434.6,143.0 434.6,145.0 434.7,139.9 434.7,134.5 434.8,129.2 434.8,131.4 434.8,139.9 434.9,145.6 434.9,162.2 434.9,161.2 434.9,159.8 435.0,170.3 435.0,170.3 435.0,155.7 435.1,180.5 435.1,166.1 435.2,162.2 435.2,159.2 435.3,168.5 435.4,159.6 435.4,176.6 435.5,178.0 435.5,173.0 435.6,169.5 435.7,176.6 435.7,178.8 435.8,177.6 435.9,181.7 435.9,192.4 436.0,194.2 436.0,193.2 436.1,203.5 436.1,205.4 436.2,198.5 436.2,185.1 436.2,186.3 436.3,187.9 436.3,194.4 436.4,200.1 436.4,197.1 436.5,201.3 436.6,202.9 436.6,207.4 436.6,202.7 436.7,179.4 436.7,187.9 436.8,173.2 436.8,181.1 436.8,176.6 436.9,168.5 436.9,149.1 436.9,153.3 437.0,158.8 437.0,173.8 437.0,171.9 437.0,166.3 437.1,171.9 437.2,169.7 437.3,160.2 437.3,161.0 437.4,154.3 437.4,174.0 437.5,164.7 437.6,184.5 437.6,192.0 437.6,188.6 437.7,197.5 437.8,192.2 437.9,194.4 438.0,192.4 438.1,201.9 438.2,207.4 438.2,213.1 438.3,221.4 438.3,213.1 438.4,217.9 438.5,223.4 438.5,230.3 438.6,226.8 438.6,234.5 438.6,222.8 438.7,216.5 438.8,211.9 438.9,223.8 439.0,233.7 439.1,238.0 439.2,236.6 439.3,236.6 439.4,238.4 439.6,234.7 439.7,236.2 439.8,249.5 439.8,260.3 439.9,256.4 440.0,255.8 440.1,264.3 440.1,256.8 440.2,255.0 440.3,253.0 440.4,244.5 440.6,241.6 440.7,239.2 440.9,257.2 441.1,248.7 441.2,239.8 441.3,246.9 441.3,251.2 441.4,267.8 441.5,280.3 441.5,277.5 441.5,279.3 441.6,280.9 441.7,273.2 441.8,265.7 441.9,271.6 442.0,270.4 442.1,272.2 442.3,274.7 442.3,260.5 442.4,255.2 442.4,241.2 442.5,236.6 442.5,227.0 442.5,237.2 442.6,250.3 442.7,260.5 442.8,248.5 442.9,245.5 443.0,226.6 443.1,229.7 443.2,228.5 443.2,238.4 443.3,240.8 443.5,243.1 443.7,228.5 443.8,220.2 443.9,223.6 444.0,230.7 444.2,226.8 444.3,223.4 444.5,219.4 444.6,212.1 444.7,196.1 444.7,182.7 444.7,173.6 444.7,179.2 444.7,165.3 444.8,170.7 444.8,182.5 444.8,202.7 444.8,202.7 444.9,202.1 444.9,216.9 445.0,223.8 445.0,230.5 445.1,228.5 445.2,234.3 445.2,226.8 445.4,235.2 445.4,231.1 445.6,228.5 445.8,209.2 445.8,221.4 446.0,224.2 446.1,223.4 446.4,218.1 446.6,209.8 446.8,220.2 447.1,216.3 447.2,206.2 447.2,202.3 447.4,218.5 447.6,222.4 447.7,228.9 447.8,234.3 448.0,230.9 448.3,230.9 448.6,232.5 448.8,224.0 448.8,211.4 448.9,223.0 449.3,216.3 449.5,212.1 449.7,217.1 449.8,208.2 449.9,203.5 449.9,204.8 450.0,206.0 450.1,205.2 450.2,202.1 450.3,196.7 450.4,198.3 450.4,216.3 450.5,214.1 450.5,217.5 450.6,219.1 450.9,226.6 451.0,227.3 451.2,229.9 451.3,241.0 451.3,243.9 451.4,245.3 451.6,236.2 451.9,242.4 452.0,254.4 452.1,243.3 452.1,246.3 452.1,260.3 452.3,248.5 452.5,256.4 452.7,254.4 452.9,257.2 453.1,258.5 453.4,254.6 453.6,247.1 453.9,245.1 454.2,244.1 454.6,260.7 454.8,249.3 455.2,245.5 455.7,246.9 456.3,239.6 456.4,226.0 456.4,207.2 456.4,216.7 456.4,227.7 456.5,227.7 456.6,211.4 456.6,210.6 456.6,216.3 456.8,222.6 456.8,208.0 456.8,205.8 456.9,211.4 456.9,209.8 456.9,211.0 457.0,213.1 457.0,221.0 457.1,220.2 457.1,215.3 457.2,218.7 457.4,223.0 457.5,229.1 457.7,227.0 457.9,229.3 458.0,229.5 458.2,224.4 458.4,224.0 458.7,223.2 458.7,234.9 458.8,240.0 458.9,238.8 459.0,252.6 459.0,258.2 459.1,259.9 459.4,251.2 459.5,249.7 459.6,226.0 459.6,234.1 459.7,235.4 459.8,240.6 459.9,243.3 460.1,253.2 460.1,252.0 460.3,259.9 460.4,251.0 460.6,253.6 460.8,257.2 461.0,260.1 461.2,261.5 461.3,267.2 461.4,261.7 461.6,260.3 461.8,243.7 461.8,247.3 462.0,249.5 462.2,249.9 462.4,247.5 462.6,240.4 462.7,240.8 462.8,235.2 462.9,231.7 463.0,228.1 463.0,218.9 463.0,228.3 463.1,227.3 463.2,231.3 463.3,236.8 463.4,228.1 463.6,233.9 463.8,229.5 463.9,221.8 464.1,229.1 464.2,226.8 464.4,232.1 464.5,234.3 464.6,235.6 464.7,239.2 464.9,238.4 465.0,238.8 465.2,239.6 465.5,244.9 465.6,244.1 465.8,252.0 466.0,256.8 466.2,259.3 466.2,249.3 466.3,245.7 466.4,254.8 466.6,250.1 466.8,248.5 467.1,250.1 467.5,247.7 467.7,244.3 468.0,237.2 468.1,233.3 468.1,225.2 468.2,228.1 468.3,230.5 468.4,238.6 468.5,239.4 468.6,240.2 468.8,241.6 469.2,231.7 469.2,222.6 469.3,230.7 469.6,230.3 469.8,233.3 470.0,232.9 470.2,229.7 470.4,238.6 470.7,235.2 471.0,238.8 471.4,236.0 471.8,230.7 472.0,236.2 472.1,244.1 472.3,239.2 472.6,233.9 473.0,226.0 473.1,235.2 473.4,232.5 473.8,231.3 474.0,234.9 474.1,240.6 474.2,237.6 474.5,240.2 474.6,244.9 474.7,242.6 475.0,241.0 475.1,232.7 475.2,232.3 475.3,224.4 475.5,217.5 475.6,220.2 475.7,219.8 475.8,217.7 476.0,225.4 476.2,223.4 476.4,218.9 476.4,217.9 476.6,228.3 476.7,227.7 476.9,230.9 477.1,223.4 477.3,215.7 477.4,221.8 477.6,222.2 477.9,224.8 478.1,228.7 478.2,234.7 478.4,239.8 478.5,246.7 478.6,247.5 478.7,248.3 478.9,247.1 479.3,244.3 479.7,243.1 480.1,245.3 480.4,241.8 480.7,238.6 480.9,243.5 481.2,233.7 481.3,229.1 481.4,222.2 481.5,221.2 481.7,222.6 481.8,217.5 481.9,221.6 482.1,222.2 482.2,219.4 482.4,214.5 482.6,213.3 482.8,216.9 482.9,213.1 483.0,208.8 483.1,205.0 483.1,202.7 483.1,212.1 483.1,199.5 483.2,204.4 483.2,205.4 483.3,203.3 483.4,195.2 483.5,206.0 483.5,202.9 483.6,202.5 483.7,211.7 483.8,208.0 483.9,204.0 484.0,201.3 484.0,199.1 484.1,198.5 484.2,193.8 484.2,193.4 484.3,191.4 484.4,194.6 484.5,191.6 484.6,190.6 484.6,189.4 484.6,194.8 484.7,190.6 484.8,200.1 484.8,198.5 484.9,201.7 485.0,193.2 485.1,187.5 485.1,192.8 485.2,200.9 485.3,197.5 485.5,194.2 485.6,199.7 485.6,200.7 485.8,202.9 485.9,202.1 486.1,201.5 486.2,200.9 486.3,199.3 486.5,198.9 486.7,193.6 486.7,199.3 486.9,201.3 487.0,204.2 487.0,190.6 487.1,192.8 487.2,191.2 487.4,192.0 487.4,185.7 487.4,178.4 487.4,179.4 487.5,177.8 487.5,187.3 487.6,186.1 487.7,187.3 487.8,190.6 487.8,189.6 488.0,192.0 488.0,189.4 488.1,189.0 488.2,191.8 488.3,195.0 488.4,196.5 488.5,200.5 488.5,190.0 488.6,196.7 488.7,199.7 488.9,203.8 488.9,206.2 489.0,203.3 489.1,216.1 489.1,217.9 489.1,219.6 489.1,217.1 489.2,222.2 489.2,224.0 489.3,218.7 489.4,215.9 489.4,210.0 489.5,206.6 489.6,200.7 489.7,201.3 489.8,202.3 489.9,203.1 490.0,203.5 490.2,209.0 490.3,208.6 490.4,204.0 490.6,207.6 490.7,200.9 490.7,202.7 490.8,196.9 490.9,195.0 491.0,195.4 491.1,193.0 491.1,188.4 491.2,186.7 491.2,184.9 491.3,184.5 491.3,177.6 491.3,184.7 491.4,182.9 491.4,177.0 491.5,187.7 491.5,182.3 491.6,185.3 491.7,183.9 491.8,183.1 491.8,181.3 491.9,175.8 491.9,175.6 492.0,178.2 492.0,176.8 492.1,174.2 492.1,174.8 492.2,178.2 492.2,182.3 492.2,180.3 492.3,184.5 492.4,186.9 492.4,186.3 492.5,181.9 492.5,189.8 492.6,184.3 492.7,181.1 492.7,188.6 492.8,186.3 492.8,193.0 492.9,189.0 492.9,189.0 493.0,187.1 493.1,190.4 493.1,194.0 493.2,197.3 493.2,188.6 493.3,183.5 493.4,185.7 493.5,190.4 493.6,195.6 493.6,196.9 493.7,202.1 493.7,199.5 493.9,198.3 494.0,201.5 494.1,203.1 494.1,206.0 494.2,207.4 494.3,202.5 494.5,199.5 494.6,204.4 494.7,210.4 494.7,216.3 494.7,221.6 494.7,220.2 494.8,229.3 494.8,233.3 494.8,246.1 494.8,243.5 494.8,242.9 494.9,240.0 494.9,248.3 494.9,246.5 495.0,242.0 495.1,250.1 495.1,255.6 495.1,265.5 495.1,265.5 495.1,270.0 495.1,262.1 495.2,255.8 495.3,259.9 495.3,252.8 495.4,250.3 495.4,257.8 495.5,256.2 495.5,266.4 495.5,272.0 495.6,273.8 495.6,274.3 495.6,280.3 495.6,294.3 495.6,304.0 495.6,305.2 495.6,309.7 495.6,305.7 495.7,300.2 495.7,301.4 495.7,305.5 495.7,305.0 495.8,303.0 495.9,305.9 495.9,316.4 495.9,329.0 495.9,320.0 495.9,323.3 495.9,331.6 495.9,330.4 496.0,330.2 496.0,329.8 496.0,336.2 496.1,319.4 496.1,327.1 496.1,332.8 496.1,327.5 496.1,351.2 496.2,354.1 496.2,351.8 496.2,348.8 496.2,354.1 496.2,353.1 496.3,343.1 496.3,335.4 496.3,329.6 496.3,327.1 496.4,330.8 496.4,320.6 496.4,322.3 496.5,317.0 496.5,317.4 496.5,326.5 496.6,317.4 496.6,308.9 496.6,291.9 496.6,296.3 496.6,285.4 496.6,283.8 496.7,289.4 496.7,285.4 496.7,289.9 496.7,293.5 496.8,297.5 496.8,296.3 496.8,313.6 496.9,308.9 496.9,299.8 497.0,308.7 497.0,295.1 497.1,293.1 497.1,292.9 497.2,289.4 497.2,280.9 497.2,291.3 497.3,289.2 497.4,299.6 497.4,294.7 497.5,292.7 497.5,292.9 497.6,291.1 497.7,287.4 497.8,277.9 497.8,274.7 497.9,274.7 497.9,273.4 498.0,284.6 498.0,282.6 498.2,282.2 498.3,277.9 498.3,281.5 498.4,281.5 498.5,275.3 498.6,275.5 498.7,278.9 498.7,289.9 498.8,294.5 498.8,297.1 498.9,298.2 498.9,305.7 499.0,306.3 499.0,311.1 499.0,306.5 499.0,306.9 499.1,297.3 499.1,306.1 499.2,309.5 499.3,308.5 499.4,312.3 499.5,312.9 499.6,316.4 499.6,322.5 499.7,316.2 499.7,311.9 499.8,310.3 500.0,320.4 500.0,323.7 500.1,316.8 500.3,316.8 500.4,318.2 500.5,309.3 500.6,304.2 500.7,313.1 500.8,299.2 500.9,302.2 501.0,301.6 501.2,301.2 501.4,305.7 501.6,309.9 501.8,310.9 502.0,301.6 502.1,297.8 502.2,290.5 502.2,301.8 502.4,300.2 502.5,307.5 502.6,305.2 502.8,302.0 502.9,293.1 502.9,298.0 503.1,302.0 503.2,298.8 503.3,293.7 503.4,296.1 503.6,292.9 503.6,291.9 503.7,286.0 503.8,294.5 503.9,286.0 504.0,286.6 504.1,284.8 504.2,292.7 504.2,292.3 504.4,298.4 504.5,299.2 504.6,303.4 504.7,302.8 504.8,305.9 504.9,309.3 504.9,312.9 505.0,314.2 505.1,319.6 505.2,320.0 505.3,321.9 505.4,315.6 505.4,306.9 505.5,308.3 505.6,310.5 505.8,313.8 506.0,315.2 506.2,316.6 506.3,310.5 506.4,324.5 506.4,326.3 506.5,329.6 506.5,336.9 506.5,333.2 506.6,331.4 506.7,332.0 506.9,331.4 507.0,329.6 507.1,332.6 507.2,328.7 507.3,321.5 507.4,316.2 507.5,322.9 507.7,321.1 507.8,319.2 508.0,314.8 508.1,311.3 508.3,323.3 508.4,316.0 508.7,321.3 508.8,324.5 509.0,325.3 509.3,317.8 509.4,310.5 509.6,310.9 509.9,308.7 510.1,307.9 510.4,310.5 510.5,302.2 510.6,312.5 510.8,317.4 511.0,317.0 511.3,317.0 511.5,314.4 511.8,315.2 512.0,316.2 512.3,316.0 512.5,319.0 512.8,317.4 513.2,318.0 513.4,316.0 513.8,313.4 514.1,316.6 514.3,314.6 514.5,312.7 514.7,310.7 514.9,309.3 515.1,313.4 515.5,312.9 515.7,319.4 515.9,317.4 516.1,319.6 516.2,320.8 516.5,318.0 516.7,317.6 517.0,323.1 517.1,325.9 517.2,323.5 517.4,318.6 517.7,317.4 517.9,322.3 518.2,317.4 518.5,313.1 518.6,323.1 518.8,323.1 519.1,319.4 519.4,316.6 519.7,320.8 519.9,314.2 520.2,314.6 520.4,320.4 520.5,322.3 520.9,318.4 521.2,314.2 521.5,317.2 522.0,315.0 522.3,309.7 522.5,302.8 522.6,305.5 522.7,300.0 522.7,307.7 522.9,307.9 523.0,311.3 523.2,306.5 523.2,302.0 523.4,298.6 523.5,300.8 523.7,295.5 523.8,305.5 524.1,297.3 524.3,297.5 524.6,295.7 524.8,298.4 525.1,297.5 525.5,300.0 525.8,303.2 526.2,297.5 526.6,295.7 527.0,297.3 527.4,294.7 527.6,286.4 527.8,287.8 527.9,275.1 527.9,278.3 528.0,274.0 528.0,279.7 528.2,284.4 528.3,284.4 528.4,286.2 528.5,276.1 528.7,272.4 528.7,267.6 528.8,270.2 528.9,275.3 529.1,275.3 529.3,273.4 529.4,280.7 529.6,285.0 529.7,290.3 529.9,291.3 530.1,294.3 530.3,293.3 530.5,286.8 530.8,282.8 531.2,280.9 531.3,283.0 531.7,286.0 532.1,282.8 532.5,283.8 532.7,271.2 532.8,264.1 532.9,269.4 533.1,268.8 533.2,259.5 533.2,257.6 533.4,260.9 533.6,258.5 533.8,264.7 534.1,264.7 534.3,258.7 534.5,258.2 534.7,258.5 534.9,268.4 535.0,269.6 535.3,261.7 535.6,264.9 535.8,268.0 536.0,258.9 536.2,258.5 536.4,264.3 536.5,270.4 536.6,277.3 536.7,284.0 536.7,285.2 536.8,279.9 537.1,279.7 537.1,270.6 537.2,279.7 537.6,277.1 537.7,282.0 538.0,279.7 538.1,279.5 538.4,273.8 538.7,272.0 539.0,279.1 539.5,273.4 539.8,273.6 540.1,288.4 540.3,279.1 540.8,279.3 541.3,282.2 541.7,282.6 542.0,281.1 542.4,282.0 542.8,285.2 543.1,282.8 543.5,284.6 543.8,278.5 544.1,275.5 544.4,274.5 544.7,272.4 545.0,278.1 545.2,286.0 545.6,282.8 546.1,279.7 546.7,275.7 547.1,279.5 547.9,280.3 548.5,279.9 549.2,274.5 549.4,274.3 549.7,273.2 550.1,277.7 550.6,269.6 550.9,270.4 551.2,268.4 551.4,265.3 551.7,264.7 551.9,258.7 552.0,259.3 552.3,257.8 552.5,255.6 552.7,257.2 552.9,259.5 553.0,261.7 553.2,264.9 553.4,267.6 553.7,269.2 554.2,264.3 554.3,259.5 554.3,252.0 554.5,256.4 554.9,258.0 555.2,255.2 555.4,258.9 555.8,257.2 556.0,258.2 556.3,261.3 556.5,256.6 556.9,258.2 557.3,256.0 557.4,248.1 557.6,239.2 557.6,245.7 557.7,254.0 557.9,260.9 558.0,250.3 558.3,248.7 558.7,244.7 558.8,240.2 559.1,242.6 559.2,240.6 559.4,239.4 559.7,239.4 560.1,242.0 560.5,246.5 560.6,249.1 561.0,246.9 561.3,255.4 561.5,253.0 561.8,256.8 562.1,252.8 562.4,247.1 562.8,251.2 562.9,255.8 563.2,264.7 563.3,264.5 563.5,268.6 563.6,275.1 563.6,264.1 563.7,254.4 563.9,258.9 564.2,256.0 564.6,253.4 564.9,247.1 565.1,249.1 565.4,247.7 565.7,250.1 566.0,247.9 566.5,248.5 566.9,241.8 567.2,247.7 567.7,256.4 568.2,251.8 568.8,253.8 569.4,250.5 569.8,255.0 570.3,251.8 570.8,259.1 571.1,260.3 571.5,259.9 572.0,260.3 572.3,265.3 572.7,262.1 573.2,258.9 573.8,260.7 574.3,258.9 574.5,259.7 574.7,254.2 574.9,261.3 575.2,260.1 575.4,255.6 575.6,252.8 575.8,252.4 576.0,249.7 576.1,247.1 576.2,240.0 576.4,245.5 576.7,247.3 577.0,253.8 577.3,256.4 577.8,257.2 578.1,249.7 578.3,239.8 578.5,240.0 578.8,247.1 579.3,246.3 579.5,255.0 580.0,252.8 580.3,258.7 580.8,260.3 581.3,261.3 581.9,264.1 582.2,264.5 582.6,263.9 583.0,265.3 583.4,261.7 583.9,258.0 584.3,253.8 584.8,256.6 585.3,263.9 585.8,257.0 586.4,262.9 587.2,264.9 587.4,262.1 587.4,263.5 587.5,266.8 587.8,265.3 588.2,264.1 588.3,264.9 588.8,265.7 588.8,265.5 589.3,260.9 589.7,258.2 590.0,262.1 590.3,262.1 590.3,262.1 590.4,261.9 590.5,264.3 590.6,263.7 590.6,266.8 590.6,267.2 590.7,268.0 590.7,269.2 590.7,271.0 590.7,272.6 590.8,274.0 590.8,276.3 590.8,275.9 590.8,276.5 590.8,277.5 590.9,272.8 590.9,272.2 590.9,271.8 591.0,271.0 591.0,269.8 591.1,268.6 591.1,264.3 591.1,268.2 591.1,266.1 591.1,269.0 591.2,268.2 591.2,265.7 591.2,265.7 591.3,261.9 591.3,266.8 591.4,271.0 591.4,273.2 591.4,269.0 591.5,265.3 591.6,266.8 591.7,262.3 591.8,269.0 591.9,269.8 592.1,268.8 592.3,272.4 592.6,268.6 592.7,273.2 592.8,272.6 593.0,274.3 593.1,275.5 593.1,273.8 593.1,275.5 593.1,275.7 593.2,277.3 593.3,276.5 593.3,276.5 593.3,277.1 593.4,278.5 593.4,279.7 593.4,279.5 593.4,280.1 593.5,279.5 593.5,279.1 593.6,284.6 593.7,283.2 593.7,283.6 593.7,286.8 593.8,286.6 593.8,286.4 593.9,285.8 593.9,287.2 593.9,285.4 594.0,286.6 594.0,288.8 594.1,288.8 594.2,289.0 594.2,289.9 594.2,290.3 594.3,288.2 594.4,289.6 594.5,292.5 594.6,293.9 594.7,289.4 594.8,292.5 594.8,294.7 594.9,293.5 594.9,297.1 595.0,295.7 595.0,294.1 595.1,292.9 595.2,294.9 595.3,295.7 595.3,293.9 595.4,297.1 595.4,294.9 595.6,300.6 595.6,300.8 595.7,301.6 595.9,303.2 595.9,305.0 595.9,307.5 595.9,312.3 596.0,308.5 596.1,312.9 596.2,312.5 596.3,315.6 596.4,315.4 596.5,317.0 596.6,320.2 596.6,320.2 596.8,317.0 596.9,316.4 597.1,310.5 597.1,307.7 597.2,312.1 597.4,315.2 597.6,310.3 597.9,309.7 598.2,309.7 598.4,310.1 598.7,314.0 599.1,309.7 599.4,310.7 599.7,311.1 600.0,315.0 600.1,318.6 600.1,320.2 600.1,320.2 600.1,320.8 600.1,320.8 600.1,319.6 600.2,326.9 600.3,324.5 600.4,326.5 600.7,323.7 601.0,322.5 601.3,322.9 601.9,324.9 602.3,324.7 602.9,324.3 603.3,318.4 603.7,319.8 604.0,316.6 604.3,316.8 604.6,315.2 604.9,316.6 605.4,317.0 605.7,319.2 605.9,318.2 606.2,314.8 606.4,314.0 606.6,316.6 606.9,321.5 607.1,329.4 607.3,326.9 607.5,327.1 607.8,327.5 608.3,327.1 608.6,329.2 608.8,330.0 609.0,329.6 609.4,329.8 609.7,333.6 610.2,328.5 610.7,322.1 611.3,325.1 611.9,323.9 612.4,320.0 613.2,325.7 613.9,323.5 614.7,323.1 615.3,320.4 615.7,322.1 616.1,323.1 616.3,326.1 616.7,325.5 617.2,324.7 617.8,329.0 618.9,325.9 619.8,331.8 620.8,331.0 621.3,336.4 621.7,335.4 622.3,333.0 622.7,339.9 623.0,339.1 623.5,341.1 623.9,340.1 624.7,337.1 625.6,339.3 626.3,340.5 627.5,341.7 628.4,343.1 629.2,340.1 629.7,338.7 630.1,336.4 630.7,340.1 631.3,341.3 632.0,341.9 632.7,346.4 633.2,343.5 633.9,338.7 634.3,339.9 634.8,340.7 635.3,343.1 635.9,343.9 636.8,342.3 637.6,341.1 638.3,345.6 638.8,349.8 639.3,348.0 640.0,347.6 640.6,346.6 641.0,350.4 641.2,347.0 641.5,341.1 641.5,333.4 641.8,336.2 642.2,336.4 642.5,337.1 642.9,333.0 643.3,333.2 643.5,321.7 643.6,326.9 643.8,327.3 644.1,321.7 644.3,317.8 644.5,323.7 644.7,322.5 645.2,323.3 645.6,323.7 646.0,328.7 646.3,333.6 646.6,327.5 647.0,332.2 647.4,330.0 647.7,324.5 647.9,319.2 648.2,316.8 648.4,316.2 648.7,321.7 649.0,323.7 649.5,324.1 650.1,320.8 650.8,317.0 651.3,311.9 651.7,316.2 652.3,313.8 652.7,309.3 653.3,310.3 653.7,307.5 653.9,312.3 654.1,310.3 654.5,313.1 655.0,310.9 655.5,309.7 656.0,309.9 656.6,308.1 657.1,302.0 657.4,303.8 657.9,298.8 658.3,298.4 658.7,299.4 659.1,305.5 659.5,303.0 659.9,300.8 660.4,296.7 660.9,298.6 661.3,295.7 661.6,295.9 662.0,297.5 662.4,301.8 662.9,299.4 663.5,294.9 664.0,298.4 664.6,301.4 665.6,301.4 666.1,301.4 666.8,298.0 667.4,294.3 667.5,286.6 667.9,289.2 668.1,279.5 668.3,276.9 668.5,287.6 668.9,289.4 669.5,287.4 670.4,292.5 671.1,292.1 671.3,296.9 671.7,294.5 672.4,291.7 672.9,291.3 673.1,291.7 673.6,288.0 674.1,285.2 674.7,283.2 675.3,283.6 675.6,294.1 675.9,286.4 676.4,285.0 677.0,289.6 677.6,289.0 678.2,292.5 678.5,286.0 679.0,284.8 679.6,284.2 680.1,282.0 680.7,288.2 681.3,294.9 681.9,296.3 682.3,292.3 683.3,286.6 684.3,289.2 685.2,291.1 685.8,290.1 686.7,286.4 687.5,292.5 687.9,292.3 688.5,292.1 689.0,284.0 689.5,284.8 689.9,284.4 690.8,284.6 692.1,279.7 692.8,280.3 694.2,279.7 695.1,275.1 695.8,273.0 696.7,273.4 697.8,273.0 698.8,269.0 699.7,268.0 700.6,266.8 700.8,265.1 701.3,260.3 701.9,261.5 702.2,253.4 702.4,245.9 702.5,257.0 702.6,256.6 702.8,246.7 703.1,251.6 703.5,248.7 703.8,241.0 704.1,237.2 704.2,235.6 704.5,233.7 704.7,235.8 705.2,236.2 705.8,240.4 706.1,227.9 706.6,232.1 707.1,240.2 707.4,247.1 707.6,248.7 707.9,244.5 708.5,253.4 709.0,252.4 709.8,251.0 710.2,260.3 710.5,266.1 710.9,265.3 711.5,258.2 712.0,253.0 712.6,251.4 713.2,253.8 713.9,251.0 714.6,247.9 715.1,249.7 715.7,251.4 716.7,247.5 717.7,248.3 718.7,254.0 719.5,252.0 719.9,261.3 720.4,257.8 720.9,250.3 721.8,251.8 722.5,249.5 723.8,254.6 724.8,252.4 726.1,251.2 727.2,248.3 728.4,250.5 728.9,260.5 729.2,257.4 729.5,249.5 729.6,243.3 729.8,240.6 729.9,230.5 730.0,222.0 730.1,232.9 730.2,222.8 730.4,235.2 730.5,234.9 730.8,229.1 730.9,228.9 731.2,228.5 731.5,231.7 731.7,229.5 732.1,235.8 732.3,236.2 732.6,238.0 732.8,244.3 733.2,240.6 733.7,242.6 734.3,240.0 734.9,246.1 735.3,247.5 735.7,245.1 736.1,247.5 736.5,247.7 737.1,249.3 738.0,250.5 738.6,247.7 739.1,253.0 739.9,257.2 740.3,270.0 740.4,274.7 740.7,275.5 741.0,277.5 741.4,275.3 741.8,274.7 741.9,278.1 742.2,279.5 742.8,277.7 743.4,274.5 744.1,274.9 744.8,277.3 745.4,278.1 746.1,277.3 746.9,272.0 747.5,268.4 748.4,268.2 749.2,267.0 750.0,271.2 750.7,265.3 751.3,255.4 751.4,250.1 751.6,257.4 751.9,253.2 752.3,251.6 752.6,245.7 752.7,238.6 753.0,244.9 753.3,246.9 753.5,242.9 753.7,236.6 753.9,235.4 754.2,234.7 754.5,239.6 754.8,236.4 755.0,237.0 755.1,251.0 755.2,253.0 755.3,252.8 755.4,248.9 755.7,246.7 755.8,254.8 756.0,249.9 756.3,251.6 756.6,244.7 757.0,245.9 757.4,244.7 757.8,237.6 758.0,238.6 758.1,233.9 758.3,238.0 758.4,231.3 758.5,220.8 758.5,222.2 758.6,217.7 758.7,216.1 758.8,212.5 758.9,214.9 758.9,219.6 759.0,232.7 759.1,223.6 759.1,228.3 759.2,216.9 759.3,219.6 759.4,231.1 759.5,229.5 759.7,230.3 759.8,226.8 759.9,224.0 760.1,224.0 760.4,223.0 760.6,224.4 760.8,223.0 760.9,225.8 761.1,229.1 761.2,229.7 761.5,228.1 761.6,221.0 761.7,222.4 761.8,223.8 762.0,227.5 762.2,230.1 762.3,230.7 762.4,235.8 762.5,241.4 762.6,236.8 762.9,236.4 763.1,239.0 763.1,237.6 763.3,238.2 763.6,240.0 763.9,239.0 764.2,235.6 764.5,243.3 764.6,240.2 764.9,240.4 765.0,249.3 765.1,241.8 765.3,242.4 765.5,247.3 765.8,246.3 766.1,248.3 766.3,246.3 766.5,242.4 766.6,241.0 766.9,241.6 767.1,245.7 767.3,245.9 767.6,240.8 767.7,239.2 767.7,239.8 768.0,242.6 768.2,240.2 768.4,238.6 768.5,237.0 768.6,239.0 768.8,235.8 768.9,240.6 769.2,239.6 769.4,234.9 769.7,240.0 770.0,238.4 770.2,238.6 770.4,244.3 770.7,243.3 771.0,244.5 771.3,247.3 771.7,243.7 772.1,241.8 772.4,243.1 772.8,238.4 773.1,240.4 773.5,237.6 773.7,245.1 774.1,247.9 774.5,245.9 774.7,247.9 775.0,245.1 775.4,238.6 775.7,237.8 776.0,236.6 776.3,238.6 776.8,237.0 777.0,241.6 777.5,239.8 778.0,236.6 778.1,231.1 778.2,227.3 778.4,230.1 778.8,231.1 779.0,226.0 779.3,235.6 779.6,231.9 780.1,227.9 780.4,235.2 780.6,231.5 780.9,236.6 781.4,235.8 781.7,237.8 782.0,239.0 782.3,233.5 782.7,231.7 783.1,234.7 783.6,232.7 784.0,232.1 784.3,230.5 784.9,233.3 785.3,235.6 785.8,232.7 786.4,232.9 786.9,233.1 787.2,236.4 787.5,233.5 787.9,237.8 788.1,238.4 788.5,235.8 788.8,234.3 789.1,232.9 789.3,235.2 789.7,231.5 790.2,231.7 790.5,236.4 790.8,235.6 791.2,235.2 791.5,238.0 792.0,231.1 792.4,232.7 792.8,232.1 793.1,233.3 793.7,234.3 794.0,237.6 794.5,235.6 794.8,232.3 795.2,230.7 795.6,232.3 796.1,234.1 796.6,233.7 797.1,229.3 797.4,230.7 797.7,228.7 798.0,226.8 798.2,227.5 798.5,227.0 798.8,225.2 799.2,227.9 799.5,227.7 799.9,225.6 800.2,222.8 800.6,224.2 800.8,230.3 801.0,231.5 801.4,234.5 801.6,238.0 801.9,233.3 802.2,227.9 802.7,229.1 803.1,229.9 803.4,225.0 803.8,230.3 804.3,227.7 804.8,227.5 805.2,229.7 805.5,238.4 805.5,254.8 805.5,255.0 805.6,251.8 805.6,256.2 805.7,254.4 805.8,256.4 806.0,256.8 806.0,259.3 806.1,255.2 806.2,257.8 806.4,257.4 806.6,253.2 806.6,246.1 806.6,244.5 806.8,242.2 806.9,252.2 807.0,258.2 807.2,247.5 807.5,249.1 807.7,246.1 808.0,243.3 808.2,241.2 808.4,241.6 808.7,245.7 809.1,241.8 809.6,243.1 810.0,243.3 810.4,242.6 811.0,243.7 811.4,242.6 811.7,236.2 811.9,232.9 812.1,232.7 812.6,232.3 813.0,240.2 813.2,230.7 813.2,217.7 813.3,221.6 813.4,224.4 813.6,227.9 814.0,225.2 814.4,224.6 814.8,224.6 814.9,235.8 815.0,236.0 815.3,230.5 815.3,245.7 815.4,243.9 815.5,251.0 815.5,249.3 815.6,239.4 815.8,238.6 816.1,232.5 816.5,230.9 816.9,231.3 817.2,234.9 817.4,236.0 817.8,238.2 818.2,231.1 818.5,236.4 818.8,230.9 819.0,235.6 819.4,235.6 819.8,232.1 820.1,236.2 820.5,238.0 820.8,244.3 820.9,249.1 821.1,249.3 821.2,242.6 821.4,245.1 821.7,243.7 822.0,240.6 822.3,240.4 822.5,240.0 822.9,236.4 823.2,239.8 823.5,238.0 823.8,234.9 824.1,237.2 824.3,235.8 824.6,238.8 824.9,237.4 825.2,236.2 825.5,236.2 825.8,234.1 826.1,235.2 826.5,234.5 826.8,228.9 827.1,228.5 827.3,225.8 827.6,222.6 827.9,224.2 828.1,226.8 828.3,227.9 828.6,230.1 828.9,233.5 829.1,236.4 829.3,237.4 829.6,238.2 829.9,241.8 830.1,241.0 830.5,233.9 830.8,235.6 831.3,233.1 831.8,235.6 832.2,235.4 832.8,230.1 833.4,229.9 834.0,226.4 834.5,228.7 834.8,231.7 835.4,237.4 835.8,233.1 836.4,232.9 837.0,229.7 837.6,227.3 838.1,227.0 838.3,222.6 838.6,222.8 839.0,224.0 839.5,230.5 840.1,225.8 840.6,221.8 841.2,221.2 841.7,226.2 842.4,226.8 843.2,224.2 844.1,223.0 844.7,225.0 845.3,220.2 846.0,219.8 846.4,223.2 847.0,220.4 847.5,216.1 847.8,215.9 848.4,216.5 849.0,215.9 849.5,223.2 849.8,227.0 850.1,226.6 850.4,227.3 850.5,235.8 850.6,238.0 850.7,231.5 851.1,231.9 851.4,220.4 851.8,223.6 851.9,220.4 852.2,222.2 852.6,220.2 853.0,218.5 853.4,222.4 854.0,219.4 854.3,223.0 854.7,222.0 855.1,220.4 855.6,218.9 856.3,217.3 856.9,218.5 857.6,216.5 858.3,215.5 859.0,218.5 859.6,216.1 860.3,216.3 860.9,213.3 861.4,217.5 862.0,216.5 862.7,221.2 863.1,220.6 863.7,223.2 864.3,219.6 864.8,222.0 865.6,225.0 866.4,218.7 866.7,212.5 867.1,210.0 867.7,214.5 868.1,209.0 868.5,213.5 869.1,217.9 869.7,218.1 870.1,227.5 870.7,228.3 871.1,220.6 871.9,223.0 872.7,221.8 873.4,222.2 874.0,216.3 874.3,214.5 874.7,217.1 875.1,218.5 875.6,221.0 875.9,226.4 876.2,220.6 876.4,230.7 876.6,216.7 876.8,224.6 877.2,221.4 877.6,221.0 878.0,218.9 878.4,217.7 878.8,212.1 879.3,207.0 879.6,210.0 880.0,204.6 880.3,206.2 880.7,207.4 881.1,208.0 881.5,209.4 882.0,204.8 882.4,209.4 882.9,209.6 883.6,206.4 884.4,207.8 885.0,210.0 885.8,210.0 886.3,209.0 886.9,208.2 887.3,206.6 887.8,206.4 888.1,206.2 888.6,208.2 888.9,210.2 889.4,209.0 889.8,210.8 890.1,214.3 890.7,209.2 891.5,208.0 891.7,210.0 891.8,214.5 891.9,218.1 891.9,218.9 892.0,219.6 892.2,221.6 892.4,223.6 892.5,224.2 892.6,228.7 893.0,227.0 893.6,226.0 893.8,229.1 894.0,236.4 894.3,236.8 894.7,238.6 894.8,244.7 895.1,250.8 895.4,248.3 895.7,251.8 895.9,253.0 896.2,256.0 896.4,255.6 896.6,257.0 896.9,258.7 897.2,257.2 897.6,256.2 898.0,259.5 898.4,259.5 898.9,258.2 899.4,253.8 899.8,248.9 900.2,245.5 900.6,245.9 900.9,242.6 901.3,242.4 901.6,248.9 901.9,246.1 902.3,245.7 902.9,243.5 903.2,241.6 903.5,251.4 903.8,259.9 904.1,260.5 904.3,264.9 904.7,267.2 904.9,271.8 905.0,271.4 905.2,272.8 905.4,270.8 905.7,269.0 906.0,273.6 906.1,273.6 906.3,280.7 906.4,286.2 906.5,289.2 906.6,291.9 906.7,283.6 906.8,290.9 906.9,293.5 907.1,293.5 907.2,293.3 907.3,288.2 907.4,291.9 907.6,296.7 907.6,301.4 907.7,307.7 907.8,312.9 907.9,320.0 908.0,312.7 908.1,319.0 908.3,319.8 908.4,319.4 908.4,332.4 908.5,322.9 908.6,300.0 908.6,294.1 908.7,280.9 908.7,287.6 908.8,253.2 908.8,261.3 908.9,259.1 909.0,267.6 909.1,270.0 909.2,273.8 909.3,287.0 909.4,295.1 909.5,300.0 909.5,289.9 909.7,276.5 909.9,272.4 910.1,277.5 910.3,274.0 910.4,283.4 910.5,291.5 910.6,300.8 910.7,301.2 910.7,303.6 910.8,301.2 910.8,305.2 910.9,312.5 910.9,305.0 910.9,310.7 911.0,314.6 911.0,311.9 911.1,316.0 911.1,315.0 911.2,320.2 911.2,325.3 911.3,331.2 911.3,329.0 911.3,329.6 911.4,301.6 911.4,329.6 911.5,330.0 911.6,330.0 911.6,327.7 911.7,327.5 911.8,317.4 911.8,306.3 911.9,301.6 912.0,298.2 912.1,291.1 912.1,282.4 912.2,281.1 912.2,286.0 912.2,278.3 912.3,271.4 912.4,274.5 912.4,283.4 912.4,274.9 912.5,276.7 912.6,276.3 912.7,264.7 912.8,259.3 912.8,250.3 912.9,238.4 912.9,227.9 912.9,215.1 913.0,209.6 913.0,205.6 913.0,196.1 913.1,215.7 913.1,217.3 913.2,210.2 913.2,213.1 913.3,215.3 913.3,221.8 913.4,224.8 913.5,213.3 913.5,202.1 913.5,204.4 913.6,207.6 913.6,194.0 913.7,184.9 913.7,173.2 913.7,152.1 913.7,157.0 913.7,150.5 913.8,166.7 913.8,184.1 913.8,171.1 913.8,162.4 913.8,162.2 913.9,167.5 913.9,183.7 913.9,182.3 914.0,176.2 914.0,185.5 914.1,185.5 914.1,191.4 914.2,189.0 914.2,173.2 914.3,168.1 914.3,177.6 914.4,193.8 914.4,199.1 914.5,183.1 914.5,188.8 914.5,203.1 914.6,198.7 914.6,189.6 914.7,181.5 914.7,173.4 914.8,171.1 914.8,175.2 914.9,172.8 914.9,164.4 915.0,169.1 915.1,158.4 915.2,164.7 915.2,165.9 915.3,179.2 915.3,185.3 915.4,192.6 915.4,216.1 915.4,216.5 915.5,206.0 915.5,191.0 915.5,171.7 915.6,176.2 915.7,176.2 915.8,183.5 915.9,179.0 915.9,180.9 916.0,180.0 916.1,189.8 916.1,198.7 916.2,209.8 916.3,213.5 916.3,214.1 916.4,199.1 916.5,203.1 916.5,182.5 916.6,178.6 916.6,188.4 916.6,189.6 916.6,166.9 916.6,166.9 916.6,163.2 916.7,166.3 916.7,168.5 916.7,169.3 916.7,172.1 916.7,156.8 916.7,152.3 916.7,149.5 916.8,148.2 916.8,143.8 916.8,149.9 916.8,160.4 916.8,176.4 916.8,194.6 916.9,186.1 916.9,190.4 917.0,182.1 917.1,180.3 917.1,189.8 917.2,192.2 917.2,193.4 917.2,185.5 917.3,179.2 917.3,190.4 917.4,197.1 917.5,198.9 917.5,183.7 917.6,176.2 917.7,177.8 917.7,186.9 917.8,190.4 917.9,177.8 918.0,179.8 918.0,185.1 918.1,187.7 918.2,196.9 918.3,188.6 918.4,195.9 918.5,185.9 918.6,185.9 918.7,188.6 918.8,196.1 918.9,196.5 919.0,191.4 919.1,201.3 919.3,204.4 919.4,208.0 919.6,208.2 919.7,216.7 919.7,229.7 919.8,224.6 920.0,226.4 920.2,225.6 920.3,223.4 920.5,219.8 920.6,227.3 920.7,231.9 920.8,228.7 921.0,223.0 921.1,221.8 921.2,225.6 921.3,232.9 921.4,237.8 921.6,236.0 921.7,248.7 921.8,237.8 921.9,231.9 922.0,222.6 922.1,209.4 922.3,204.4 922.4,211.0 922.5,205.2 922.6,205.4 922.7,206.0 922.8,208.0 922.9,215.9 923.0,214.9 923.2,218.5 923.3,217.1 923.4,218.7 923.4,224.2 923.5,225.2 923.6,226.2 923.8,208.6 923.9,207.4 923.9,209.8 924.0,214.5 924.1,222.2 924.2,217.3 924.4,216.9 924.5,219.6 924.7,221.4 924.8,212.1 925.0,209.4 925.1,207.8 925.2,204.6 925.3,204.6 925.5,201.7 925.6,197.1 925.7,194.4 925.8,196.3 925.9,191.6 926.1,193.8 926.2,207.4 926.3,203.8 926.4,209.8 926.6,214.9 926.8,217.7 926.9,204.4 926.9,186.5 927.0,188.6 927.1,187.7 927.2,192.8 927.3,197.5 927.3,200.3 927.3,204.8 927.4,197.1 927.4,186.5 927.4,189.2 927.4,184.9 927.5,180.9 927.6,186.7 927.6,178.4 927.7,189.6 927.7,191.0 927.8,189.6 927.8,194.6 927.9,198.1 927.9,197.9 928.0,190.2 928.0,208.0 928.0,200.3 928.0,187.5 928.1,199.3 928.1,201.1 928.2,198.1 928.3,202.3 928.3,197.7 928.4,196.9 928.4,185.9 928.5,187.3 928.5,187.5 928.6,190.4 928.7,194.6 928.7,200.1 928.8,203.1 928.8,195.2 928.8,200.5 928.9,200.7 928.9,200.5 929.0,196.5 929.1,199.7 929.1,193.8 929.2,198.3 929.3,199.5 929.3,197.3 929.4,204.0 929.4,204.2 929.5,201.7 929.5,202.5 929.6,201.1 929.6,199.7 929.7,200.9 929.7,202.3 929.8,207.0 929.8,209.8 929.9,207.2 929.9,209.6 930.0,208.2 930.1,209.8 930.2,213.5 930.2,218.3 930.3,225.4 930.4,228.7 930.4,233.7 930.5,239.4 930.5,231.3 930.6,238.0 930.6,249.3 930.6,244.7 930.7,252.4 930.7,262.1 930.8,262.9 930.8,271.0 930.9,270.4 931.1,271.4 931.1,289.6 931.3,299.8 931.4,332.2 931.5,351.2 931.8,363.2 932.0,415.3 932.0,402.5 932.1,371.7 932.3,373.3 932.6,364.6 932.8,361.6 933.2,381.8 933.5,398.4 933.8,406.5 933.9,410.2 934.0,414.3 934.0,414.3 934.0,414.3 934.0,414.3 934.0,414.3" fill="none" stroke="#d97706" stroke-width="1.2" stroke-linejoin="round" opacity="0.6"/><text x="942" y="472.0" text-anchor="start" font-size="11" fill="#d97706">0.02</text><text x="942" y="396.0" text-anchor="start" font-size="11" fill="#d97706">0.02</text><text x="942" y="320.0" text-anchor="start" font-size="11" fill="#d97706">0.02</text><text x="942" y="244.0" text-anchor="start" font-size="11" fill="#d97706">0.03</text><text x="942" y="168.0" text-anchor="start" font-size="11" fill="#d97706">0.03</text><text x="942" y="92.0" text-anchor="start" font-size="11" fill="#d97706">0.03</text><text x="942" y="80.0" text-anchor="start" font-size="11" font-weight="600" fill="#d97706">price</text>
  <polygon points="297.0,468.0 297.0,116.2 297.0,116.2 297.1,116.3 297.2,116.3 297.5,116.2 297.5,116.2 297.9,116.2 297.9,116.2 298.2,116.2 298.3,116.2 298.4,116.2 298.4,116.2 298.7,116.2 298.8,116.3 306.1,116.2 306.1,116.2 306.1,116.2 327.6,116.2 335.9,116.2 343.9,116.3 379.4,116.2 381.9,116.2 397.8,116.2 404.9,116.2 407.1,116.2 409.0,116.2 413.8,116.2 418.6,116.2 420.0,116.2 421.9,116.2 425.7,116.2 428.9,116.2 430.3,116.2 433.4,116.2 434.2,116.2 434.3,116.2 434.3,116.2 438.2,116.2 441.5,116.2 442.4,116.2 444.7,116.2 444.7,116.2 444.8,116.2 452.0,116.2 483.1,116.2 494.8,116.2 495.6,116.1 495.6,116.2 496.6,116.2 496.8,116.2 497.1,116.2 499.0,116.2 502.1,116.2 504.9,116.2 527.6,116.2 557.6,116.2 563.2,116.2 576.2,116.2 581.8,116.2 596.6,116.2 623.3,116.2 643.5,116.2 695.2,116.2 702.3,116.2 740.4,116.2 752.5,116.2 905.2,116.2 908.4,116.2 908.6,116.2 908.8,116.2 909.3,116.2 912.8,116.2 913.0,116.2 916.8,116.2 919.3,116.2 921.2,116.2 922.2,116.2 930.5,116.2 931.1,116.2 931.4,116.2 931.8,116.2 932.0,116.1 932.0,116.2 932.0,116.2 932.0,116.2 932.0,116.2 932.0,116.2 932.0,116.2 932.0,116.2 932.1,116.2 932.1,116.2 932.1,116.2 932.1,116.2 933.6,116.2 933.6,468.0" fill="#16a34a" fill-opacity="0.08"/>
  <polyline points="297.0,116.2 297.0,116.2 297.1,116.3 297.2,116.3 297.5,116.2 297.5,116.2 297.9,116.2 297.9,116.2 298.2,116.2 298.3,116.2 298.4,116.2 298.4,116.2 298.7,116.2 298.8,116.3 306.1,116.2 306.1,116.2 306.1,116.2 327.6,116.2 335.9,116.2 343.9,116.3 379.4,116.2 381.9,116.2 397.8,116.2 404.9,116.2 407.1,116.2 409.0,116.2 413.8,116.2 418.6,116.2 420.0,116.2 421.9,116.2 425.7,116.2 428.9,116.2 430.3,116.2 433.4,116.2 434.2,116.2 434.3,116.2 434.3,116.2 438.2,116.2 441.5,116.2 442.4,116.2 444.7,116.2 444.7,116.2 444.8,116.2 452.0,116.2 483.1,116.2 494.8,116.2 495.6,116.1 495.6,116.2 496.6,116.2 496.8,116.2 497.1,116.2 499.0,116.2 502.1,116.2 504.9,116.2 527.6,116.2 557.6,116.2 563.2,116.2 576.2,116.2 581.8,116.2 596.6,116.2 623.3,116.2 643.5,116.2 695.2,116.2 702.3,116.2 740.4,116.2 752.5,116.2 905.2,116.2 908.4,116.2 908.6,116.2 908.8,116.2 909.3,116.2 912.8,116.2 913.0,116.2 916.8,116.2 919.3,116.2 921.2,116.2 922.2,116.2 930.5,116.2 931.1,116.2 931.4,116.2 931.8,116.2 932.0,116.1 932.0,116.2 932.0,116.2 932.0,116.2 932.0,116.2 932.0,116.2 932.0,116.2 932.0,116.2 932.1,116.2 932.1,116.2 932.1,116.2 932.1,116.2 933.6,116.2" fill="none" stroke="#16a34a" stroke-width="2" stroke-linejoin="round"/>
  <line x1="88" y1="102" x2="110" y2="102" stroke="#16a34a" stroke-width="2.5"/><text x="116" y="106" font-size="11.5" fill="#374151">equity</text><line x1="88" y1="118" x2="110" y2="118" stroke="#d97706" stroke-width="2.5" opacity="0.8"/><text x="116" y="122" font-size="11.5" fill="#374151">price</text>
  <text x="78" y="502" text-anchor="start" font-size="12" fill="#6b7280">2026-02-01</text><text x="934" y="502" text-anchor="end" font-size="12" fill="#6b7280">2026-02-06</text>
</svg>
