<?xml version="1.0" encoding="UTF-8"?>
<svg xmlns="http://www.w3.org/2000/svg" width="1100" height="560" viewBox="0 0 1100 560" font-family="ui-sans-serif, system-ui, sans-serif">
  <rect width="1100" height="560" fill="#ffffff"/>
  <text x="80" y="28" font-size="18" font-weight="700" fill="#111827">Zone Recovery — CHESSUSDT fee-tier comparison (best setting)</text>
  <text x="80" y="48" font-size="12.5" fill="#6b7280">lev 4 · ratio 2 · gap 20% · maxSteps 6 · maxDD 20% · random  ·  equity per fee tier vip 0..9</text>
  <text x="80" y="68" font-size="12.5" font-weight="600" fill="#1d4ed8">USDT margin · BNB −10%</text>
  <line x1="80" y1="508.0" x2="932" y2="508.0" stroke="#e5e7eb" stroke-width="1"/><text x="70" y="512.0" text-anchor="end" font-size="12" fill="#6b7280">0.00</text><line x1="80" y1="424.0" x2="932" y2="424.0" stroke="#e5e7eb" stroke-width="1"/><text x="70" y="428.0" text-anchor="end" font-size="12" fill="#6b7280">21605901</text><line x1="80" y1="340.0" x2="932" y2="340.0" stroke="#e5e7eb" stroke-width="1"/><text x="70" y="344.0" text-anchor="end" font-size="12" fill="#6b7280">43211802</text><line x1="80" y1="256.0" x2="932" y2="256.0" stroke="#e5e7eb" stroke-width="1"/><text x="70" y="260.0" text-anchor="end" font-size="12" fill="#6b7280">64817703</text><line x1="80" y1="172.0" x2="932" y2="172.0" stroke="#e5e7eb" stroke-width="1"/><text x="70" y="176.0" text-anchor="end" font-size="12" fill="#6b7280">86423604</text><line x1="80" y1="88.0" x2="932" y2="88.0" stroke="#e5e7eb" stroke-width="1"/><text x="70" y="92.0" text-anchor="end" font-size="12" fill="#6b7280">108029505</text>
  <line x1="80" y1="119.2" x2="932" y2="119.2" stroke="#9ca3af" stroke-width="1.5" stroke-dasharray="6 4"/>
  <polyline points="80.0,119.2 80.0,119.2 80.2,119.2 80.2,119.2 80.6,119.2 80.6,119.2 81.2,119.2 81.2,119.2 81.5,119.2 81.7,119.2 81.8,119.2 81.9,119.2 82.2,119.2 82.4,119.2 92.1,119.2 92.2,119.2 92.2,119.2 120.9,119.2 132.0,119.2 142.7,119.2 190.2,119.2 193.5,119.2 214.9,119.2 224.3,119.2 227.4,119.2 229.9,119.2 236.3,119.2 242.7,119.2 244.5,119.2 247.2,119.2 252.2,119.2 256.5,119.2 258.3,119.2 262.5,119.1 263.6,119.1 263.7,119.1 263.7,119.1 269.0,119.1 273.3,119.1 274.6,119.1 277.6,119.1 277.7,119.1 277.8,119.1 287.4,119.1 329.0,119.1 344.7,119.1 345.8,119.1 345.8,119.1 347.1,119.1 347.4,119.1 347.8,119.1 350.3,119.2 354.5,119.2 358.2,119.2 388.7,119.2 428.7,119.2 436.2,119.2 453.7,119.2 461.1,119.2 480.9,119.2 516.6,119.2 543.7,119.2 612.9,119.2 622.4,119.2 673.4,119.2 689.6,119.2 893.9,119.2 898.2,119.2 898.5,119.2 898.7,119.1 899.4,119.1 904.1,119.2 904.4,119.1 909.5,119.1 912.9,119.1 915.4,119.1 916.8,119.1 927.8,119.1 928.6,119.1 929.0,119.1 929.5,119.1 929.8,119.1 929.8,119.1 929.8,119.1 929.9,119.1 929.9,119.1 929.9,119.1 929.9,119.2 929.9,119.2 929.9,119.2 929.9,119.2 929.9,119.2 929.9,119.2 932.0,119.2" fill="none" stroke="#2563eb" stroke-width="1.8" stroke-linejoin="round" opacity="0.9"/>
  <polyline points="80.0,119.2 80.0,119.2 80.2,119.2 80.2,119.2 80.6,119.2 80.6,119.2 81.2,119.2 81.2,119.2 81.5,119.2 81.7,119.2 81.8,119.2 81.9,119.2 82.2,119.2 82.4,119.2 92.1,119.2 92.2,119.2 92.2,119.2 120.9,119.2 132.0,119.2 142.7,119.2 190.2,119.2 193.5,119.2 214.9,119.2 224.3,119.2 227.4,119.2 229.9,119.2 236.3,119.2 242.7,119.2 244.5,119.2 247.2,119.2 252.2,119.2 256.5,119.2 258.3,119.2 262.5,119.1 263.6,119.1 263.7,119.1 263.7,119.1 269.0,119.1 273.3,119.1 274.6,119.1 277.6,119.1 277.7,119.1 277.8,119.1 287.4,119.1 329.0,119.1 344.7,119.1 345.8,119.1 345.8,119.1 347.1,119.1 347.4,119.1 347.8,119.1 350.3,119.2 354.5,119.2 358.2,119.2 388.7,119.2 428.7,119.2 436.2,119.2 453.7,119.2 461.1,119.2 480.9,119.2 516.6,119.2 543.7,119.2 612.9,119.2 622.4,119.2 673.4,119.2 689.6,119.2 893.9,119.2 898.2,119.2 898.5,119.2 898.7,119.1 899.4,119.1 904.1,119.2 904.4,119.1 909.5,119.1 912.9,119.1 915.4,119.1 916.8,119.1 927.8,119.1 928.6,119.1 929.0,119.1 929.5,119.1 929.8,119.1 929.8,119.1 929.8,119.1 929.9,119.1 929.9,119.1 929.9,119.1 929.9,119.2 929.9,119.2 929.9,119.2 929.9,119.2 929.9,119.2 929.9,119.2 932.0,119.2" fill="none" stroke="#dc2626" stroke-width="1.8" stroke-linejoin="round" opacity="0.9"/>
  <polyline points="80.0,119.2 80.0,119.2 80.2,119.2 80.2,119.2 80.6,119.2 80.6,119.2 81.2,119.2 81.2,119.2 81.5,119.2 81.7,119.2 81.8,119.2 81.9,119.2 82.2,119.2 82.4,119.2 92.1,119.2 92.2,119.2 92.2,119.2 120.9,119.2 132.0,119.2 142.7,119.2 190.2,119.2 193.5,119.2 214.9,119.2 224.3,119.2 227.4,119.2 229.9,119.2 236.3,119.2 242.7,119.2 244.5,119.2 247.2,119.2 252.2,119.2 256.5,119.2 258.3,119.2 262.5,119.1 263.6,119.1 263.7,119.1 263.7,119.1 269.0,119.1 273.3,119.1 274.6,119.1 277.6,119.1 277.7,119.1 277.8,119.1 287.4,119.1 329.0,119.1 344.7,119.1 345.8,119.1 345.8,119.1 347.1,119.1 347.4,119.1 347.8,119.1 350.3,119.1 354.5,119.2 358.2,119.2 388.7,119.2 428.7,119.2 436.2,119.2 453.7,119.2 461.1,119.2 480.9,119.2 516.6,119.2 543.7,119.2 612.9,119.2 622.4,119.2 673.4,119.2 689.6,119.2 893.9,119.2 898.2,119.1 898.5,119.2 898.7,119.1 899.4,119.1 904.1,119.2 904.4,119.1 909.5,119.1 912.9,119.1 915.4,119.1 916.8,119.1 927.8,119.1 928.6,119.1 929.0,119.1 929.5,119.1 929.8,119.1 929.8,119.1 929.8,119.1 929.9,119.1 929.9,119.1 929.9,119.1 929.9,119.2 929.9,119.2 929.9,119.2 929.9,119.2 929.9,119.2 929.9,119.2 932.0,119.2" fill="none" stroke="#16a34a" stroke-width="1.8" stroke-linejoin="round" opacity="0.9"/>
  <polyline points="80.0,119.2 80.0,119.2 80.2,119.2 80.2,119.2 80.6,119.2 80.6,119.2 81.2,119.2 81.2,119.2 81.5,119.2 81.7,119.2 81.8,119.2 81.9,119.2 82.2,119.2 82.4,119.2 92.1,119.2 92.2,119.2 92.2,119.2 120.9,119.2 132.0,119.2 142.7,119.2 190.2,119.2 193.5,119.2 214.9,119.2 224.3,119.2 227.4,119.2 229.9,119.2 236.3,119.2 242.7,119.2 244.5,119.2 247.2,119.2 252.2,119.2 256.5,119.2 258.3,119.2 262.5,119.1 263.6,119.1 263.7,119.1 263.7,119.1 269.0,119.1 273.3,119.1 274.6,119.1 277.6,119.1 277.7,119.1 277.8,119.1 287.4,119.1 329.0,119.1 344.7,119.1 345.8,119.1 345.8,119.1 347.1,119.1 347.4,119.1 347.8,119.1 350.3,119.1 354.5,119.2 358.2,119.2 388.7,119.2 428.7,119.2 436.2,119.2 453.7,119.2 461.1,119.2 480.9,119.2 516.6,119.2 543.7,119.2 612.9,119.2 622.4,119.2 673.4,119.2 689.6,119.2 893.9,119.2 898.2,119.1 898.5,119.2 898.7,119.1 899.4,119.1 904.1,119.2 904.4,119.1 909.5,119.1 912.9,119.1 915.4,119.1 916.8,119.1 927.8,119.1 928.6,119.1 929.0,119.1 929.5,119.1 929.8,119.1 929.8,119.1 929.8,119.1 929.9,119.1 929.9,119.1 929.9,119.1 929.9,119.2 929.9,119.2 929.9,119.2 929.9,119.1 929.9,119.2 929.9,119.2 932.0,119.2" fill="none" stroke="#d97706" stroke-width="1.8" stroke-linejoin="round" opacity="0.9"/>
  <polyline points="80.0,119.2 80.0,119.2 80.2,119.2 80.2,119.2 80.6,119.2 80.6,119.2 81.2,119.2 81.2,119.2 81.5,119.2 81.7,119.2 81.8,119.2 81.9,119.2 82.2,119.2 82.4,119.2 92.1,119.2 92.2,119.2 92.2,119.2 120.9,119.2 132.0,119.2 142.7,119.2 190.2,119.2 193.5,119.2 214.9,119.2 224.3,119.2 227.4,119.2 229.9,119.2 236.3,119.2 242.7,119.2 244.5,119.2 247.2,119.2 252.2,119.2 256.5,119.2 258.3,119.2 262.5,119.1 263.6,119.1 263.7,119.1 263.7,119.1 269.0,119.1 273.3,119.1 274.6,119.1 277.6,119.1 277.7,119.1 277.8,119.1 287.4,119.1 329.0,119.1 344.7,119.1 345.8,119.1 345.8,119.1 347.1,119.1 347.4,119.1 347.8,119.1 350.3,119.1 354.5,119.2 358.2,119.2 388.7,119.2 428.7,119.2 436.2,119.2 453.7,119.2 461.1,119.2 480.9,119.2 516.6,119.2 543.7,119.2 612.9,119.2 622.4,119.2 673.4,119.2 689.6,119.2 893.9,119.2 898.2,119.1 898.5,119.2 898.7,119.1 899.4,119.1 904.1,119.2 904.4,119.1 909.5,119.1 912.9,119.1 915.4,119.1 916.8,119.1 927.8,119.1 928.6,119.1 929.0,119.1 929.5,119.1 929.8,119.1 929.8,119.1 929.8,119.1 929.9,119.1 929.9,119.1 929.9,119.1 929.9,119.2 929.9,119.2 929.9,119.2 929.9,119.1 929.9,119.2 929.9,119.2 932.0,119.2" fill="none" stroke="#7c3aed" stroke-width="1.8" stroke-linejoin="round" opacity="0.9"/>
  <polyline points="80.0,119.2 80.0,119.2 80.2,119.2 80.2,119.2 80.6,119.2 80.6,119.2 81.2,119.2 81.2,119.2 81.5,119.2 81.7,119.2 81.8,119.2 81.9,119.2 82.2,119.2 82.4,119.2 92.1,119.2 92.2,119.2 92.2,119.2 120.9,119.2 132.0,119.2 142.7,119.2 190.2,119.2 193.5,119.2 214.9,119.2 224.3,119.2 227.4,119.2 229.9,119.2 236.3,119.2 242.7,119.2 244.5,119.2 247.2,119.2 252.2,119.2 256.5,119.2 258.3,119.2 262.5,119.1 263.6,119.1 263.7,119.1 263.7,119.1 269.0,119.1 273.3,119.1 274.6,119.1 277.6,119.1 277.7,119.1 277.8,119.1 287.4,119.1 329.0,119.1 344.7,119.1 345.8,119.1 345.8,119.1 347.1,119.1 347.4,119.1 347.8,119.1 350.3,119.1 354.5,119.2 358.2,119.2 388.7,119.2 428.7,119.2 436.2,119.2 453.7,119.2 461.1,119.2 480.9,119.2 516.6,119.2 543.7,119.2 612.9,119.2 622.4,119.2 673.4,119.2 689.6,119.2 893.9,119.2 898.2,119.1 898.5,119.2 898.7,119.1 899.4,119.1 904.1,119.2 904.4,119.1 909.5,119.1 912.9,119.1 915.4,119.1 916.8,119.1 927.8,119.1 928.6,119.1 929.0,119.1 929.5,119.1 929.8,119.1 929.8,119.1 929.8,119.1 929.9,119.1 929.9,119.1 929.9,119.1 929.9,119.2 929.9,119.2 929.9,119.2 929.9,119.1 929.9,119.2 929.9,119.2 932.0,119.2" fill="none" stroke="#0891b2" stroke-width="1.8" stroke-linejoin="round" opacity="0.9"/>
  <polyline points="80.0,119.2 80.0,119.2 80.2,119.2 80.2,119.2 80.6,119.2 80.6,119.2 81.2,119.2 81.2,119.2 81.5,119.2 81.7,119.2 81.8,119.2 81.9,119.2 82.2,119.2 82.4,119.2 92.1,119.2 92.2,119.2 92.2,119.2 120.9,119.2 132.0,119.2 142.7,119.2 190.2,119.2 193.5,119.2 214.9,119.2 224.3,119.2 227.4,119.2 229.9,119.2 236.3,119.2 242.7,119.2 244.5,119.2 247.2,119.2 252.2,119.2 256.5,119.2 258.3,119.2 262.5,119.1 263.6,119.1 263.7,119.1 263.7,119.1 269.0,119.1 273.3,119.1 274.6,119.1 277.6,119.1 277.7,119.1 277.8,119.1 287.4,119.1 329.0,119.1 344.7,119.1 345.8,119.1 345.8,119.1 347.1,119.1 347.4,119.1 347.8,119.1 350.3,119.1 354.5,119.2 358.2,119.2 388.7,119.2 428.7,119.2 436.2,119.2 453.7,119.2 461.1,119.2 480.9,119.2 516.6,119.2 543.7,119.2 612.9,119.2 622.4,119.2 673.4,119.2 689.6,119.2 893.9,119.2 898.2,119.1 898.5,119.2 898.7,119.1 899.4,119.1 904.1,119.1 904.4,119.1 909.5,119.1 912.9,119.1 915.4,119.1 916.8,119.1 927.8,119.1 928.6,119.1 929.0,119.1 929.5,119.1 929.8,119.1 929.8,119.1 929.8,119.1 929.9,119.1 929.9,119.1 929.9,119.1 929.9,119.2 929.9,119.2 929.9,119.2 929.9,119.1 929.9,119.2 929.9,119.2 932.0,119.2" fill="none" stroke="#db2777" stroke-width="1.8" stroke-linejoin="round" opacity="0.9"/>
  <polyline points="80.0,119.2 80.0,119.2 80.2,119.2 80.2,119.2 80.6,119.2 80.6,119.2 81.2,119.2 81.2,119.2 81.5,119.2 81.7,119.2 81.8,119.2 81.9,119.2 82.2,119.2 82.4,119.2 92.1,119.2 92.2,119.2 92.2,119.2 120.9,119.2 132.0,119.2 142.7,119.2 190.2,119.2 193.5,119.2 214.9,119.2 224.3,119.2 227.4,119.2 229.9,119.2 236.3,119.2 242.7,119.2 244.5,119.2 247.2,119.2 252.2,119.2 256.5,119.2 258.3,119.2 262.5,119.1 263.6,119.1 263.7,119.1 263.7,119.1 269.0,119.1 273.3,119.1 274.6,119.1 277.6,119.1 277.7,119.1 277.8,119.1 287.4,119.1 329.0,119.1 344.7,119.1 345.8,119.1 345.8,119.1 347.1,119.1 347.4,119.1 347.8,119.1 350.3,119.1 354.5,119.2 358.2,119.2 388.7,119.2 428.7,119.2 436.2,119.2 453.7,119.2 461.1,119.2 480.9,119.2 516.6,119.2 543.7,119.2 612.9,119.2 622.4,119.2 673.4,119.2 689.6,119.2 893.9,119.2 898.2,119.1 898.5,119.2 898.7,119.1 899.4,119.1 904.1,119.1 904.4,119.1 909.5,119.1 912.9,119.1 915.4,119.1 916.8,119.1 927.8,119.1 928.6,119.1 929.0,119.1 929.5,119.1 929.8,119.1 929.8,119.1 929.8,119.1 929.9,119.1 929.9,119.1 929.9,119.1 929.9,119.2 929.9,119.2 929.9,119.2 929.9,119.1 929.9,119.2 929.9,119.2 932.0,119.2" fill="none" stroke="#65a30d" stroke-width="1.8" stroke-linejoin="round" opacity="0.9"/>
  <polyline points="80.0,119.2 80.0,119.2 80.2,119.2 80.2,119.2 80.6,119.2 80.6,119.2 81.2,119.2 81.2,119.2 81.5,119.2 81.7,119.2 81.8,119.2 81.9,119.2 82.2,119.2 82.4,119.2 92.1,119.2 92.2,119.2 92.2,119.2 120.9,119.2 132.0,119.2 142.7,119.2 190.2,119.2 193.5,119.2 214.9,119.2 224.3,119.2 227.4,119.2 229.9,119.2 236.3,119.2 242.7,119.2 244.5,119.2 247.2,119.2 252.2,119.2 256.5,119.2 258.3,119.2 262.5,119.1 263.6,119.1 263.7,119.1 263.7,119.1 269.0,119.1 273.3,119.1 274.6,119.1 277.6,119.1 277.7,119.1 277.8,119.1 287.4,119.1 329.0,119.1 344.7,119.1 345.8,119.1 345.8,119.1 347.1,119.1 347.4,119.1 347.8,119.1 350.3,119.1 354.5,119.2 358.2,119.2 388.7,119.2 428.7,119.2 436.2,119.2 453.7,119.2 461.1,119.2 480.9,119.2 516.6,119.2 543.7,119.2 612.9,119.2 622.4,119.2 673.4,119.2 689.6,119.2 893.9,119.2 898.2,119.1 898.5,119.1 898.7,119.1 899.4,119.1 904.1,119.1 904.4,119.1 909.5,119.1 912.9,119.1 915.4,119.1 916.8,119.1 927.8,119.1 928.6,119.1 929.0,119.1 929.5,119.1 929.8,119.1 929.8,119.1 929.8,119.1 929.9,119.1 929.9,119.1 929.9,119.1 929.9,119.2 929.9,119.2 929.9,119.2 929.9,119.1 929.9,119.1 929.9,119.2 932.0,119.2" fill="none" stroke="#475569" stroke-width="1.8" stroke-linejoin="round" opacity="0.9"/>
  <polyline points="80.0,119.2 80.0,119.2 80.2,119.2 80.2,119.2 80.6,119.2 80.6,119.2 81.2,119.2 81.2,119.2 81.5,119.2 81.7,119.2 81.8,119.2 81.9,119.2 82.2,119.2 82.4,119.2 92.1,119.2 92.2,119.2 92.2,119.2 120.9,119.2 132.0,119.2 142.7,119.2 190.2,119.2 193.5,119.2 214.9,119.2 224.3,119.2 227.4,119.2 229.9,119.2 236.3,119.2 242.7,119.2 244.5,119.2 247.2,119.2 252.2,119.2 256.5,119.2 258.3,119.2 262.5,119.1 263.6,119.1 263.7,119.1 263.7,119.1 269.0,119.1 273.3,119.1 274.6,119.1 277.6,119.1 277.7,119.1 277.8,119.1 287.4,119.1 329.0,119.1 344.7,119.1 345.8,119.1 345.8,119.1 347.1,119.1 347.4,119.1 347.8,119.1 350.3,119.1 354.5,119.2 358.2,119.2 388.7,119.2 428.7,119.2 436.2,119.2 453.7,119.2 461.1,119.2 480.9,119.2 516.6,119.2 543.7,119.2 612.9,119.2 622.4,119.2 673.4,119.2 689.6,119.2 893.9,119.2 898.2,119.1 898.5,119.1 898.7,119.1 899.4,119.1 904.1,119.1 904.4,119.1 909.5,119.1 912.9,119.1 915.4,119.1 916.8,119.1 927.8,119.1 928.6,119.1 929.0,119.1 929.5,119.1 929.8,119.1 929.8,119.1 929.8,119.1 929.9,119.1 929.9,119.1 929.9,119.1 929.9,119.2 929.9,119.2 929.9,119.2 929.9,119.1 929.9,119.1 929.9,119.2 932.0,119.2" fill="none" stroke="#ea580c" stroke-width="1.8" stroke-linejoin="round" opacity="0.9"/>
  <line x1="950" y1="94" x2="972" y2="94" stroke="#ea580c" stroke-width="3"/><text x="980" y="98" font-size="12.5" fill="#374151">vip 9  100014908</text>
  <line x1="950" y1="116" x2="972" y2="116" stroke="#475569" stroke-width="3"/><text x="980" y="120" font-size="12.5" fill="#374151">vip 8  100014772</text>
  <line x1="950" y1="138" x2="972" y2="138" stroke="#65a30d" stroke-width="3"/><text x="980" y="142" font-size="12.5" fill="#374151">vip 7  100014682</text>
  <line x1="950" y1="160" x2="972" y2="160" stroke="#db2777" stroke-width="3"/><text x="980" y="164" font-size="12.5" fill="#374151">vip 6  100014546</text>
  <line x1="950" y1="182" x2="972" y2="182" stroke="#0891b2" stroke-width="3"/><text x="980" y="186" font-size="12.5" fill="#374151">vip 5  100014455</text>
  <line x1="950" y1="204" x2="972" y2="204" stroke="#7c3aed" stroke-width="3"/><text x="980" y="208" font-size="12.5" fill="#374151">vip 4  100014320</text>
  <line x1="950" y1="226" x2="972" y2="226" stroke="#d97706" stroke-width="3"/><text x="980" y="230" font-size="12.5" fill="#374151">vip 3  100014229</text>
  <line x1="950" y1="248" x2="972" y2="248" stroke="#16a34a" stroke-width="3"/><text x="980" y="252" font-size="12.5" fill="#374151">vip 2  100013867</text>
  <line x1="950" y1="270" x2="972" y2="270" stroke="#2563eb" stroke-width="3"/><text x="980" y="274" font-size="12.5" fill="#374151">vip 0  100013415</text>
  <line x1="950" y1="292" x2="972" y2="292" stroke="#dc2626" stroke-width="3"/><text x="980" y="296" font-size="12.5" fill="#374151">vip 1  100013415</text>
  <text x="80" y="542" text-anchor="start" font-size="12" fill="#6b7280">2026-02-02</text><text x="932" y="542" text-anchor="end" font-size="12" fill="#6b7280">2026-02-06</text>
</svg>
