<?xml version="1.0" encoding="UTF-8"?>
<svg xmlns="http://www.w3.org/2000/svg" width="1000" height="520" viewBox="0 0 1000 520" font-family="ui-sans-serif, system-ui, sans-serif">
  <rect width="1000" height="520" fill="#ffffff"/>
  <text x="78" y="28" font-size="18" font-weight="700" fill="#111827">Zone Recovery — BCHUSDC best setting (equity / PnL)</text>
  <text x="78" y="48" font-size="12.5" fill="#6b7280">lev 10 · ratio 4 · gap 35% · maxSteps 4 · maxDD 60% · random · vip 9  ·  2 series, 100.0% win · vol $451688 ($451700/day) · fees $38.21</text>
  <text x="78" y="68" font-size="12.5" font-weight="600" fill="#1d4ed8">USDC · BNB −10% · taker 0.0085%</text>
  <text x="934" y="28" text-anchor="end" font-size="18" font-weight="700" fill="#16a34a">+10015 USDT  (+100.15%)</text>
  <line x1="78" y1="468.0" x2="934" y2="468.0" stroke="#e5e7eb" stroke-width="1"/><text x="68" y="472.0" text-anchor="end" font-size="12" fill="#6b7280">0.00</text><line x1="78" y1="392.0" x2="934" y2="392.0" stroke="#e5e7eb" stroke-width="1"/><text x="68" y="396.0" text-anchor="end" font-size="12" fill="#6b7280">4323</text><line x1="78" y1="316.0" x2="934" y2="316.0" stroke="#e5e7eb" stroke-width="1"/><text x="68" y="320.0" text-anchor="end" font-size="12" fill="#6b7280">8647</text><line x1="78" y1="240.0" x2="934" y2="240.0" stroke="#e5e7eb" stroke-width="1"/><text x="68" y="244.0" text-anchor="end" font-size="12" fill="#6b7280">12970</text><line x1="78" y1="164.0" x2="934" y2="164.0" stroke="#e5e7eb" stroke-width="1"/><text x="68" y="168.0" text-anchor="end" font-size="12" fill="#6b7280">17293</text><line x1="78" y1="88.0" x2="934" y2="88.0" stroke="#e5e7eb" stroke-width="1"/><text x="68" y="92.0" text-anchor="end" font-size="12" fill="#6b7280">21617</text>
  <line x1="78" y1="292.2" x2="934" y2="292.2" stroke="#9ca3af" stroke-width="1.5" stroke-dasharray="6 4"/><text x="934" y="286.2" text-anchor="end" font-size="11" fill="#6b7280">start 10000</text>
  <polyline points="78.0,163.1 79.5,161.8 79.9,160.0 80.9,159.6 82.0,158.1 82.6,159.0 83.4,159.9 84.6,159.8 86.4,161.2 88.8,161.3 91.2,160.9 92.9,161.3 94.4,159.8 96.2,158.0 97.3,159.1 98.9,158.3 101.1,157.5 102.1,156.5 103.9,157.9 105.6,158.8 107.0,159.2 108.0,157.3 108.7,155.9 110.3,154.7 112.0,156.3 113.1,156.0 114.7,154.8 116.6,153.6 118.1,154.7 120.0,153.0 121.8,153.2 123.5,154.6 126.1,153.3 128.5,154.3 129.8,153.0 131.9,150.5 133.7,151.0 135.3,150.1 136.9,151.6 138.1,152.7 140.5,151.3 141.7,152.2 143.8,152.4 145.0,150.2 146.2,149.1 147.3,148.7 148.3,147.7 149.0,145.7 149.4,145.9 149.4,147.4 149.4,147.8 149.4,147.7 149.7,145.8 150.2,145.3 150.6,146.1 150.6,144.5 150.7,142.9 150.7,141.8 150.8,143.0 151.3,145.0 151.7,146.0 152.5,145.7 153.5,146.8 154.1,148.5 155.1,148.1 155.8,147.1 156.8,149.1 157.5,148.1 157.5,146.5 157.9,147.6 158.6,146.6 159.5,144.2 160.5,143.7 161.4,142.1 162.3,141.0 162.7,140.8 163.4,140.8 163.8,141.5 164.7,143.7 166.3,143.1 167.2,142.7 168.3,142.5 169.0,143.6 171.2,143.5 172.1,145.6 172.6,143.7 174.0,142.0 175.6,144.0 177.6,145.1 178.9,143.5 180.1,144.0 181.2,146.1 181.7,147.7 182.3,146.7 183.7,147.4 185.1,147.6 186.1,149.6 187.4,150.0 188.1,151.1 189.0,151.3 189.5,153.4 190.7,151.8 192.2,149.6 193.8,148.4 194.5,147.0 195.8,146.0 196.9,144.8 197.9,142.6 198.2,143.0 199.3,142.5 200.5,141.3 201.7,139.7 202.2,137.3 202.3,134.9 202.4,135.6 202.5,134.9 202.7,133.6 202.7,132.4 202.9,131.7 203.1,131.2 203.4,132.4 203.8,132.0 204.1,131.3 204.7,131.8 205.0,131.4 205.3,131.2 205.8,131.2 206.5,131.3 207.0,130.3 207.7,128.8 207.7,126.6 207.7,126.5 208.2,126.6 208.4,126.1 208.4,123.8 208.4,124.5 208.4,122.9 208.4,120.6 208.4,117.0 208.4,115.0 208.4,114.8 208.5,116.5 208.5,118.3 208.5,116.0 208.6,115.5 208.7,116.1 208.8,115.9 209.0,116.0 209.0,115.8 209.1,116.0 209.4,114.9 209.5,115.7 209.6,117.4 209.6,120.6 209.6,122.9 209.6,125.0 209.7,123.2 209.7,123.5 209.8,123.8 209.8,126.0 209.9,124.2 210.0,122.7 210.4,123.8 210.6,123.7 211.1,123.7 211.2,123.9 211.7,124.0 212.1,122.8 212.5,124.5 213.0,124.5 213.7,124.2 214.3,125.1 214.9,124.7 215.8,126.2 216.3,127.3 216.9,126.3 217.1,128.9 217.6,129.0 218.0,129.8 218.5,129.7 218.8,131.0 218.8,131.8 219.4,130.4 220.1,131.1 220.9,129.2 221.5,128.0 222.3,127.4 223.4,128.1 224.7,127.9 225.7,128.0 226.7,130.6 227.2,130.5 228.1,131.3 229.1,130.0 229.7,129.9 231.1,130.6 232.7,131.3 233.9,131.5 234.9,131.6 236.4,132.0 238.8,131.7 240.5,132.0 240.6,132.7 241.8,132.2 242.5,132.2 243.4,132.1 245.1,132.2 246.4,134.8 246.9,136.9 247.5,138.2 248.4,137.1 249.9,138.7 251.4,138.7 252.5,137.7 254.7,139.2 256.6,138.6 258.1,139.3 259.4,141.1 260.1,142.7 261.6,141.9 263.0,141.7 263.4,144.2 264.1,145.2 264.9,144.5 266.0,142.8 267.9,143.8 269.6,143.2 270.6,140.5 272.1,139.7 273.4,141.3 275.2,140.8 276.9,140.8 278.2,141.9 280.2,139.3 281.7,136.2 284.0,137.1 285.1,138.3 287.0,137.6 288.6,138.0 290.1,137.3 291.1,137.1 292.1,138.1 293.2,138.5 294.7,139.0 294.8,137.7 295.6,137.1 296.6,135.8 298.0,137.7 299.5,139.4 300.9,139.1 303.4,137.6 304.8,139.2 305.5,138.4 306.2,138.8 306.9,136.9 306.9,134.9 307.5,134.3 307.7,135.8 309.0,138.8 309.6,139.3 310.9,138.2 312.3,138.9 313.2,139.1 313.9,140.4 314.3,141.6 314.7,143.5 315.1,144.5 315.5,145.6 316.1,143.6 316.7,142.7 318.0,143.3 318.6,145.2 319.5,144.5 320.7,143.8 321.6,143.9 322.6,145.2 323.1,144.2 324.0,142.8 325.1,142.4 326.4,143.2 327.8,142.4 328.9,143.7 329.0,145.6 329.0,148.6 329.0,149.6 329.0,148.5 329.2,147.9 329.7,145.7 330.7,145.8 330.9,147.4 330.9,149.0 330.9,148.6 330.9,149.1 331.0,149.4 331.1,148.2 331.8,149.1 332.9,150.9 333.6,148.8 335.0,147.9 336.0,147.4 337.3,148.1 338.4,148.6 339.1,149.0 339.6,148.5 340.5,146.5 341.5,149.2 341.8,148.9 342.7,149.6 343.6,148.2 344.7,146.8 345.3,145.6 346.2,147.4 346.8,147.0 347.6,147.0 348.8,147.0 349.7,144.6 350.8,144.5 352.0,143.4 353.1,143.2 354.4,143.9 355.1,144.9 356.1,144.3 356.8,145.5 358.2,145.2 359.0,145.0 360.2,147.7 361.3,147.7 362.9,148.7 364.0,149.0 364.9,146.7 365.9,148.6 366.6,150.2 367.3,148.5 368.1,149.0 368.9,148.6 369.7,147.4 370.5,145.8 371.6,144.4 372.3,144.1 373.3,143.0 374.4,141.7 375.6,142.4 377.2,143.3 379.7,141.8 381.6,140.6 382.4,141.6 383.0,141.7 384.2,141.6 386.5,141.4 387.8,142.8 389.0,142.2 390.7,141.4 391.7,139.3 392.9,140.0 394.3,138.8 395.6,137.7 397.2,137.7 398.5,137.6 399.1,136.2 399.5,136.4 399.7,138.7 399.9,137.9 400.1,137.4 400.3,138.5 401.1,135.7 402.7,134.7 403.8,135.0 405.7,135.9 406.4,134.6 406.8,132.3 406.8,130.3 407.1,131.6 407.9,131.6 408.7,130.7 409.2,132.3 410.4,132.9 411.9,133.4 412.2,135.2 412.6,134.6 413.0,134.2 413.5,133.4 414.1,131.6 414.7,131.2 415.2,130.3 415.5,128.3 415.8,126.3 416.1,125.2 416.2,125.5 416.4,124.9 416.7,125.4 416.7,127.3 416.8,128.9 417.0,129.1 417.3,128.2 417.6,129.3 418.3,129.5 418.9,132.3 419.9,132.2 420.9,132.4 421.9,131.3 422.7,130.5 423.2,129.5 423.5,131.0 423.8,132.1 424.7,130.8 425.3,130.9 425.9,128.7 426.3,126.9 426.6,125.9 426.9,127.0 427.1,125.5 427.3,124.4 427.6,124.6 427.7,125.4 427.9,125.8 428.2,126.3 428.4,125.6 428.6,127.0 428.6,130.8 428.6,132.4 428.8,131.9 429.1,131.3 429.3,130.2 429.4,130.1 429.6,131.0 429.8,128.8 429.9,128.9 430.0,128.9 430.2,128.6 430.4,126.9 430.7,130.9 430.9,132.8 431.1,131.3 431.3,132.7 431.6,130.7 431.9,129.1 432.1,129.5 432.4,131.2 432.7,132.2 433.2,134.0 433.4,136.1 433.6,137.6 433.7,139.5 434.0,142.2 434.3,143.3 434.3,140.7 434.5,142.5 434.8,141.4 435.1,140.0 435.1,138.4 435.4,139.0 435.6,139.6 435.7,140.1 435.9,138.7 436.0,140.8 436.2,138.5 436.6,139.9 436.8,135.1 436.9,135.3 437.1,136.0 437.2,134.3 437.6,135.5 438.4,134.9 439.3,133.6 439.9,134.6 440.7,135.7 441.0,136.4 441.3,133.4 442.1,133.5 442.6,134.4 443.0,134.8 443.1,133.8 443.3,133.7 443.9,134.1 444.5,131.9 445.0,130.7 445.6,131.0 446.5,130.9 447.4,129.9 448.4,132.0 449.3,131.2 449.8,129.6 451.3,131.2 452.6,133.6 453.5,132.4 455.0,132.4 455.9,134.1 457.4,133.3 459.3,133.9 459.8,135.4 459.9,135.7 461.3,134.0 462.8,133.3 464.2,130.6 464.6,130.3 466.0,130.0 466.9,131.0 468.3,129.3 469.7,131.9 470.7,130.5 471.6,129.6 472.5,129.4 474.1,130.3 474.7,131.9 475.7,129.9 475.8,127.0 475.8,126.6 476.3,128.4 477.0,129.5 477.8,130.4 478.8,129.6 480.2,130.3 481.9,128.5 482.8,127.5 483.5,129.2 485.2,128.7 488.1,128.0 490.1,126.7 491.6,127.5 493.4,128.1 495.0,127.9 496.6,128.9 498.2,126.7 500.4,127.3 502.5,128.5 504.9,127.4 506.0,128.5 506.9,126.3 507.8,128.2 508.5,127.5 509.8,127.6 510.7,129.7 511.4,130.2 511.9,132.2 512.2,133.0 512.4,135.6 512.6,136.3 512.8,136.2 513.0,138.4 513.1,139.4 513.3,138.4 513.5,139.4 513.6,140.2 513.7,140.9 513.7,140.9 513.8,140.6 514.0,140.3 514.4,139.0 515.0,137.7 515.3,137.5 515.7,137.2 516.3,135.1 517.3,133.7 517.6,131.8 518.0,132.8 520.1,132.5 522.4,132.8 524.0,133.2 524.6,134.2 525.5,133.4 527.0,132.7 528.5,133.4 529.4,135.0 530.8,135.7 531.9,135.2 531.9,134.6 532.6,133.7 533.0,134.2 535.1,135.1 536.1,133.2 537.5,131.8 538.5,132.3 540.5,131.1 541.8,130.5 542.9,130.6 544.1,129.4 544.8,128.6 546.3,130.0 547.7,130.6 548.6,131.2 550.4,131.6 551.3,131.8 552.4,131.1 552.8,131.2 554.0,130.3 555.5,130.0 556.9,129.5 557.6,127.2 557.6,126.0 557.8,126.5 558.0,125.7 558.6,125.2 559.3,127.3 559.8,127.3 560.2,127.8 560.2,127.5 560.7,128.1 561.1,129.9 561.9,129.9 562.6,128.1 562.9,131.0 562.9,133.2 562.9,134.6 562.9,136.0 562.9,136.8 563.0,134.8 563.1,133.8 563.5,132.8 563.8,131.2 564.2,129.2 564.7,128.4 565.3,127.5 565.8,129.5 566.4,131.0 566.9,131.6 567.4,130.5 567.9,131.2 568.3,132.0 568.9,133.3 569.8,133.1 570.3,132.4 571.1,134.0 571.6,134.6 572.4,135.3 573.4,133.2 574.4,134.3 575.5,134.7 576.3,132.4 577.4,131.0 578.0,130.7 578.3,132.8 579.0,129.2 579.8,128.0 581.1,128.7 582.7,128.8 584.3,129.1 585.3,130.8 586.9,131.3 587.6,133.3 588.3,131.6 589.6,130.4 590.5,129.9 591.4,130.6 592.5,130.1 593.1,129.1 593.8,130.4 595.2,129.5 595.7,127.7 596.2,126.7 597.4,127.4 599.1,129.1 600.7,126.6 603.0,126.9 604.2,126.5 605.2,126.4 606.0,125.0 607.0,124.3 608.2,123.5 610.0,124.9 611.5,125.2 611.8,127.3 611.8,130.0 611.9,131.9 611.9,129.9 612.0,131.9 612.0,133.4 612.0,133.6 612.1,132.8 612.2,133.9 612.2,134.1 612.2,135.8 612.3,138.6 612.4,136.9 612.4,134.5 612.5,135.6 612.5,134.1 612.5,132.2 612.5,133.0 612.6,134.2 612.7,134.4 612.7,132.5 612.8,133.9 612.8,134.2 613.0,134.9 613.1,133.6 613.2,132.4 613.3,134.1 613.4,132.9 613.6,131.8 613.6,135.6 613.7,133.2 613.8,133.6 613.8,136.2 613.9,135.1 614.0,135.3 614.1,137.9 614.2,135.6 614.3,135.9 614.4,138.2 614.4,139.3 614.5,140.4 614.6,141.8 614.6,139.6 614.6,137.4 614.7,139.5 614.8,139.4 614.8,136.7 614.9,137.4 615.0,136.3 615.0,135.3 615.0,137.4 615.1,134.2 615.1,135.6 615.1,134.9 615.3,135.8 615.4,136.2 615.4,138.0 615.5,138.3 615.6,141.8 615.7,143.4 615.7,142.1 615.7,141.8 615.8,141.9 615.9,140.4 616.0,137.4 616.0,139.5 616.1,139.4 616.2,138.5 616.3,139.9 616.3,140.6 616.4,139.2 616.4,137.8 616.5,137.1 616.6,134.2 616.7,136.5 616.8,138.7 616.8,138.4 617.0,136.9 617.1,135.0 617.2,138.5 617.2,137.8 617.4,139.2 617.4,137.3 617.6,136.1 617.8,134.9 618.0,135.9 618.2,136.8 618.4,136.7 618.5,135.8 618.7,136.0 619.0,135.3 619.1,133.6 619.2,132.5 619.4,132.8 619.5,131.1 619.6,131.7 619.7,132.4 619.9,134.3 620.1,132.8 620.4,133.2 620.9,132.5 621.1,131.7 621.5,130.8 622.0,132.7 622.4,131.3 622.8,133.2 623.1,134.7 623.3,136.6 623.5,137.8 623.6,138.6 623.7,137.7 623.7,137.1 623.9,138.8 624.3,139.4 624.5,139.4 624.6,140.5 624.9,139.1 625.0,141.0 625.1,139.1 625.2,140.7 625.4,142.9 625.5,142.4 625.6,143.3 625.6,144.7 625.6,145.3 625.7,146.0 625.9,144.9 626.0,147.7 626.0,148.6 626.0,150.7 626.0,153.2 626.0,151.5 626.1,151.0 626.1,147.8 626.2,148.7 626.2,152.6 626.2,154.0 626.2,153.2 626.3,152.9 626.4,151.2 626.6,149.4 626.7,147.4 626.9,148.9 627.1,149.7 627.2,152.3 627.3,152.2 627.3,149.5 627.4,151.8 627.5,150.9 627.7,153.2 627.8,155.7 627.8,156.6 627.8,155.8 627.9,154.4 627.9,152.3 628.0,154.1 628.0,156.3 628.1,157.6 628.3,156.8 628.3,157.7 628.4,155.1 628.5,153.8 628.5,154.4 628.7,155.9 628.8,156.6 629.0,158.0 629.1,158.1 629.2,157.8 629.3,156.1 629.5,154.8 629.5,152.2 629.6,152.6 629.7,153.7 629.9,153.8 630.1,154.8 630.3,156.5 630.5,157.6 630.5,157.4 630.7,158.7 630.9,158.2 630.9,159.6 631.0,159.2 631.1,161.9 631.1,163.1 631.2,164.1 631.2,164.9 631.2,163.9 631.3,167.2 631.3,167.4 631.4,167.8 631.4,166.6 631.5,164.2 631.5,163.7 631.6,163.9 631.6,167.0 631.7,170.0 631.7,171.9 631.7,174.3 631.8,172.1 631.8,171.2 631.9,173.0 631.9,176.3 631.9,179.2 632.0,176.4 632.0,176.6 632.0,173.1 632.0,172.7 632.1,169.8 632.1,169.3 632.1,170.8 632.2,168.1 632.2,165.3 632.2,166.2 632.3,167.3 632.3,169.0 632.4,168.2 632.4,169.6 632.5,168.0 632.6,171.4 632.6,172.5 632.7,170.8 632.7,169.6 632.8,167.4 632.9,169.3 632.9,167.7 633.0,167.5 633.1,169.8 633.2,168.3 633.2,170.7 633.3,169.1 633.3,171.5 633.4,173.4 633.4,174.3 633.5,175.8 633.5,173.7 633.5,172.5 633.6,173.1 633.7,177.3 633.7,177.8 633.7,177.6 633.8,177.4 633.8,173.1 633.8,170.3 633.9,171.2 633.9,170.9 634.0,170.9 634.2,168.5 634.3,167.7 634.4,168.6 634.5,169.8 634.5,169.0 634.6,167.1 634.7,168.9 634.8,167.9 634.9,166.3 635.0,166.2 635.1,166.6 635.1,166.3 635.2,164.3 635.3,163.8 635.5,162.7 635.7,163.2 635.7,164.9 635.7,164.3 635.7,163.3 635.8,161.7 635.9,159.9 636.0,162.4 636.1,160.6 636.1,160.5 636.2,161.9 636.4,161.0 636.5,159.7 636.6,160.6 636.7,161.2 636.8,163.3 636.9,163.3 637.0,165.3 637.0,167.7 637.0,165.8 637.2,165.5 637.3,168.0 637.4,166.0 637.5,166.7 637.6,165.3 637.7,163.7 638.0,162.0 638.2,162.8 638.4,162.1 638.5,161.4 638.7,159.0 638.8,157.2 639.0,156.9 639.2,155.9 639.3,154.4 639.4,152.6 639.6,151.6 639.8,151.1 639.9,153.1 640.0,153.6 640.4,155.4 640.5,153.7 640.7,156.0 641.0,156.4 641.4,157.4 641.6,158.9 641.8,158.5 642.0,157.0 642.3,157.5 642.6,157.4 642.9,158.4 643.0,160.1 643.2,158.8 643.4,159.8 643.6,158.0 643.9,160.5 644.0,161.1 644.2,162.6 644.4,162.6 644.7,162.8 645.1,162.7 645.4,162.6 645.6,162.4 645.9,163.5 646.2,163.3 646.6,164.7 646.8,165.0 647.0,165.0 647.4,166.1 647.6,167.1 647.6,167.4 648.1,165.3 648.3,167.3 648.5,168.8 648.7,169.5 648.8,168.2 648.9,169.5 649.0,167.4 649.1,169.0 649.2,170.7 649.4,170.0 649.6,169.4 649.9,170.1 650.1,171.7 650.4,172.6 650.7,173.5 650.9,172.0 651.2,174.1 651.3,172.9 651.6,172.0 651.7,170.1 651.8,170.8 652.0,170.0 652.2,170.5 652.4,168.6 652.6,166.4 652.7,166.6 653.0,166.9 653.2,165.9 653.6,165.7 653.8,164.0 654.1,163.7 654.5,164.0 654.9,165.0 655.2,166.4 655.5,166.7 655.7,166.5 655.9,166.4 656.0,165.5 656.4,167.2 656.6,169.2 656.8,167.5 657.1,167.7 657.5,168.6 657.8,168.4 658.2,168.8 658.6,169.3 658.9,170.1 659.2,172.1 659.7,171.4 660.1,171.3 660.6,171.5 661.1,172.2 661.3,172.9 661.6,171.7 662.0,170.5 662.0,168.0 662.4,167.3 662.6,164.3 662.9,163.1 663.2,163.2 663.6,163.9 664.2,163.7 664.6,163.3 665.1,163.4 665.8,162.8 666.3,164.8 666.4,165.0 666.9,164.4 667.2,165.7 667.3,167.4 667.5,165.2 668.1,163.6 668.4,164.1 668.6,163.2 668.7,162.5 669.2,163.6 669.7,164.4 670.1,163.4 670.5,161.0 670.6,159.4 670.6,160.4 670.8,159.8 670.9,159.4 671.0,158.4 671.4,158.5 671.7,159.4 672.2,159.8 672.6,159.5 673.0,162.3 673.4,163.4 674.1,161.4 674.4,163.2 674.8,163.8 675.2,163.3 675.7,164.6 676.3,163.7 676.8,163.1 677.4,166.7 678.0,167.3 678.6,169.4 679.0,169.6 679.4,168.7 679.9,167.9 680.4,168.7 680.7,171.3 681.0,171.2 681.3,172.2 681.6,171.0 682.1,172.6 682.5,172.7 683.2,173.4 683.9,174.2 684.0,174.8 684.4,174.1 684.5,174.3 684.6,173.2 684.9,174.2 685.2,174.7 685.6,174.1 686.1,174.5 686.4,176.8 686.8,176.8 687.1,178.2 687.4,178.9 687.7,177.9 688.0,177.6 688.6,177.3 689.1,178.3 689.6,176.3 690.1,177.9 690.5,178.0 691.2,177.7 691.5,175.2 691.8,172.9 692.2,173.8 692.8,176.2 693.2,177.4 693.6,176.3 694.2,176.0 694.8,176.2 695.6,177.1 696.4,178.0 696.8,179.4 697.0,181.4 697.0,183.1 697.0,182.0 697.1,181.3 697.2,183.0 697.5,181.3 697.6,182.0 697.9,182.5 698.1,181.1 698.2,178.8 698.6,177.8 698.9,177.5 699.4,180.3 699.8,179.4 700.3,181.4 700.6,180.0 701.0,179.0 701.6,177.9 702.1,179.2 702.6,177.6 703.0,178.5 703.5,179.3 704.0,179.3 704.6,179.8 704.9,179.6 705.3,180.2 706.2,181.2 706.8,181.4 707.3,183.0 707.9,182.6 708.2,182.2 708.4,184.0 708.9,183.3 709.0,181.9 709.4,182.5 710.0,182.9 710.8,183.6 711.4,184.9 711.6,186.1 711.7,188.4 711.7,187.8 711.8,188.2 711.9,189.4 712.0,191.1 712.1,189.1 712.3,187.1 712.6,186.7 713.1,184.9 713.3,183.8 713.9,185.3 714.4,183.9 714.8,184.0 715.5,183.4 715.9,182.9 716.1,181.4 716.3,180.4 716.5,182.2 716.7,181.3 716.9,181.4 717.1,182.0 717.4,180.1 717.6,180.7 718.1,182.3 718.6,183.8 718.8,184.2 719.2,183.5 719.9,184.3 720.3,186.0 720.6,185.7 720.9,186.1 721.4,185.0 721.9,185.8 723.0,185.2 723.9,185.5 724.3,187.3 724.6,188.1 724.8,188.5 725.6,189.2 726.3,189.4 727.3,189.9 728.1,191.4 728.9,189.1 729.7,188.9 730.4,190.6 730.8,192.6 731.3,193.1 731.7,193.0 732.2,192.7 732.7,191.2 733.1,193.1 733.7,191.4 734.8,191.3 735.6,190.8 736.5,190.9 737.4,192.7 738.2,192.8 738.9,194.1 740.0,192.4 740.6,194.5 741.2,195.8 741.9,195.1 742.5,195.5 743.4,195.4 744.0,196.9 744.3,194.5 745.1,194.3 745.6,192.4 746.6,193.3 747.1,191.0 747.6,193.5 748.3,195.3 748.7,197.2 749.2,198.2 749.7,196.6 750.4,197.9 751.2,198.3 752.0,198.2 753.0,197.7 753.8,197.6 754.7,199.7 755.2,200.5 755.8,199.5 756.5,199.9 757.1,199.4 758.1,200.6 758.8,200.9 759.1,201.5 759.6,201.4 760.3,201.4 760.9,203.2 761.0,202.5 761.1,201.9 761.3,201.7 761.5,201.3 761.7,201.3 761.9,200.8 762.0,200.1 762.2,197.5 762.6,199.5 762.8,201.2 762.9,200.3 763.1,200.9 763.3,199.3 763.7,198.5 764.1,199.2 764.4,200.2 764.8,201.3 765.1,200.5 765.3,199.3 765.6,200.5 765.8,199.4 766.1,199.3 766.5,200.1 766.9,200.0 767.2,199.4 767.6,199.9 767.9,201.1 768.1,203.0 768.3,202.9 768.5,203.4 768.7,205.9 768.7,206.0 768.8,204.7 768.8,204.6 769.0,206.7 769.2,205.0 769.5,205.4 769.9,206.6 770.6,203.8 770.9,201.6 771.3,200.8 771.7,202.9 772.0,204.4 772.4,206.3 772.7,207.4 772.9,208.3 772.9,210.3 772.9,209.0 773.0,208.0 773.3,209.7 773.3,211.9 773.4,212.4 773.4,212.7 773.5,215.7 773.5,217.7 773.5,215.8 773.6,213.9 773.6,211.4 773.7,211.7 773.8,210.4 774.1,209.2 774.3,210.0 774.6,208.4 774.7,210.6 775.0,210.2 775.2,210.0 775.4,211.6 775.5,213.3 775.6,213.1 775.7,213.8 775.8,214.5 775.9,213.4 776.3,212.9 776.6,214.2 776.7,214.3 776.9,214.2 777.1,212.3 777.4,213.4 777.8,212.8 778.3,211.8 778.7,209.3 778.8,210.0 779.1,211.7 779.4,213.3 779.6,212.6 780.0,211.5 780.3,211.3 780.6,207.4 780.8,207.3 781.2,206.6 781.6,204.9 782.1,204.5 782.4,202.7 782.6,201.1 783.0,201.6 783.3,204.2 783.8,203.8 784.3,201.9 784.8,202.5 785.4,201.9 785.7,204.7 786.0,205.7 786.3,206.6 786.7,207.1 787.1,206.6 787.5,206.5 787.9,208.3 788.4,210.1 788.8,210.6 789.4,210.6 789.7,208.7 790.2,208.7 790.8,209.0 791.4,209.4 791.9,211.5 792.3,210.6 792.9,212.8 793.3,212.3 793.7,209.9 794.0,206.8 794.3,205.5 794.8,207.8 795.3,205.3 796.1,207.5 796.8,209.1 797.4,209.1 798.1,207.2 798.8,204.9 799.3,204.7 800.1,204.3 800.8,204.0 801.5,203.2 802.5,207.1 803.4,206.4 804.3,204.5 804.7,202.5 805.3,200.1 806.3,200.5 807.8,198.4 808.2,198.1 809.0,198.7 809.9,201.4 810.8,202.3 811.3,201.6 811.7,200.8 812.8,201.2 814.0,200.9 815.5,201.2 816.6,199.4 817.4,198.5 818.0,199.8 819.1,199.2 819.7,197.8 820.7,196.5 821.1,197.9 821.2,199.8 821.2,202.3 821.3,205.2 821.3,205.5 821.3,202.6 821.4,203.7 821.4,204.3 821.5,205.6 821.6,205.4 821.7,204.4 821.8,204.4 821.9,203.9 821.9,206.6 822.0,207.7 822.0,208.2 822.1,210.7 822.2,209.7 822.3,209.4 822.3,208.5 822.4,210.5 822.4,212.7 822.5,209.7 822.6,213.7 822.6,214.0 822.6,211.5 822.7,214.9 822.8,217.2 822.8,219.1 822.8,217.5 822.8,221.3 822.9,219.3 822.9,219.8 822.9,222.3 822.9,220.4 823.0,218.5 823.0,216.3 823.0,217.0 823.0,214.8 823.1,214.0 823.2,216.2 823.3,218.8 823.3,219.0 823.4,223.1 823.4,223.7 823.4,224.4 823.4,227.5 823.4,228.0 823.5,227.2 823.5,226.0 823.6,223.4 823.6,222.0 823.6,224.1 823.7,224.9 823.7,227.8 823.8,228.2 823.8,231.0 823.8,234.5 823.8,229.5 823.8,227.4 823.8,228.3 823.9,226.3 823.9,227.0 824.0,227.4 824.0,225.0 824.1,223.8 824.1,223.8 824.1,225.1 824.2,224.3 824.2,226.8 824.2,226.6 824.3,228.5 824.3,232.3 824.3,229.3 824.3,227.6 824.3,226.8 824.4,228.0 824.5,226.7 824.6,230.4 824.6,231.8 824.6,232.5 824.7,235.2 824.7,233.9 824.8,235.3 824.8,239.1 824.8,240.4 824.8,239.1 824.8,243.1 824.8,245.0 824.9,250.7 824.9,254.4 824.9,252.7 825.0,249.0 825.0,249.0 825.1,245.4 825.1,244.0 825.1,243.7 825.1,241.5 825.2,240.7 825.2,239.3 825.3,238.8 825.3,241.8 825.3,241.6 825.3,240.0 825.4,237.9 825.4,237.6 825.4,235.2 825.4,235.6 825.5,236.1 825.5,238.9 825.5,239.1 825.5,240.9 825.6,239.6 825.6,237.9 825.6,237.7 825.7,237.4 825.7,237.3 825.8,237.7 825.8,238.4 825.9,235.7 825.9,236.8 825.9,239.1 826.0,237.9 826.0,240.4 826.1,242.3 826.1,243.8 826.1,240.4 826.2,238.4 826.2,237.3 826.3,239.0 826.3,239.2 826.4,242.1 826.4,245.7 826.4,245.2 826.4,248.1 826.5,246.3 826.5,243.6 826.5,242.7 826.5,243.0 826.6,243.3 826.6,244.4 826.6,245.3 826.6,247.2 826.7,249.0 826.7,249.6 826.7,250.3 826.7,251.6 826.7,255.4 826.8,257.7 826.8,258.2 826.8,262.9 826.8,267.4 826.9,265.4 826.9,268.3 826.9,278.7 826.9,284.4 826.9,280.3 827.0,273.7 827.0,268.3 827.0,266.0 827.0,263.5 827.1,258.7 827.1,254.1 827.1,257.7 827.1,260.0 827.1,257.9 827.1,262.6 827.2,263.5 827.2,263.1 827.2,263.7 827.2,259.6 827.2,259.4 827.3,257.0 827.3,255.4 827.3,256.6 827.3,256.2 827.4,255.9 827.4,258.8 827.4,260.5 827.5,259.5 827.5,262.6 827.5,262.2 827.5,265.5 827.6,268.7 827.6,265.2 827.6,265.9 827.6,262.7 827.7,265.9 827.7,267.9 827.7,265.6 827.7,262.5 827.7,264.3 827.8,262.3 827.8,260.3 827.8,258.7 827.9,257.1 827.9,259.4 828.0,257.3 828.0,256.2 828.1,254.1 828.2,255.4 828.2,252.7 828.2,255.6 828.3,255.6 828.3,253.9 828.3,252.4 828.4,251.2 828.5,250.1 828.5,252.3 828.6,253.9 828.6,253.2 828.7,251.3 828.7,253.5 828.8,253.7 828.8,254.2 828.9,253.6 828.9,249.9 829.0,249.5 829.1,249.4 829.1,249.2 829.2,250.1 829.3,252.2 829.3,253.1 829.4,252.9 829.5,254.3 829.5,251.6 829.6,250.1 829.7,252.9 829.7,250.9 829.8,249.5 829.9,247.4 830.0,246.3 830.0,246.0 830.1,244.3 830.1,247.0 830.2,247.9 830.2,248.3 830.3,249.0 830.4,249.6 830.5,251.7 830.6,250.3 830.6,250.7 830.7,250.6 830.7,247.7 830.8,249.8 830.9,251.7 831.0,249.3 831.0,249.8 831.1,249.7 831.1,251.1 831.2,250.3 831.3,248.4 831.3,246.7 831.4,247.5 831.5,245.9 831.5,248.0 831.7,246.2 831.8,248.3 831.8,252.0 831.8,250.6 831.9,249.1 831.9,249.7 832.0,251.3 832.1,251.6 832.1,250.7 832.3,252.9 832.4,251.4 832.4,249.2 832.5,250.7 832.6,248.4 832.7,248.3 832.8,245.8 832.9,248.4 833.0,247.5 833.1,248.4 833.2,249.0 833.4,252.5 833.5,251.6 833.6,251.0 833.7,252.8 833.8,253.9 833.8,257.0 833.8,260.7 833.8,258.3 833.8,259.1 833.8,257.1 833.8,255.3 833.9,257.4 833.9,257.0 834.0,254.7 834.0,256.2 834.1,257.1 834.1,256.7 834.2,257.5 834.2,257.5 834.2,257.6 834.2,257.3 834.3,256.1 834.3,254.8 834.3,254.8 834.3,256.3 834.4,256.8 834.4,257.9 834.4,259.3 834.4,262.0 834.5,264.3 834.5,264.0 834.5,264.3 834.6,267.7 834.6,264.2 834.6,267.3 834.7,267.5 834.7,272.0 834.8,275.1 834.8,279.0 834.8,282.2 834.9,282.3 834.9,286.2 834.9,287.2 834.9,291.3 835.0,287.3 835.0,289.2 835.0,293.3 835.0,297.8 835.1,300.8 835.1,303.3 835.1,297.3 835.1,291.5 835.2,286.6 835.2,283.1 835.2,285.8 835.2,288.8 835.3,290.4 835.3,292.4 835.4,289.1 835.4,288.8 835.4,289.4 835.4,291.4 835.4,293.4 835.5,296.2 835.5,300.0 835.5,304.6 835.5,311.3 835.6,311.2 835.6,312.8 835.6,315.5 835.6,320.4 835.6,320.3 835.7,325.0 835.7,327.5 835.7,327.8 835.7,328.1 835.8,314.6 835.8,313.0 835.8,314.9 835.8,309.5 835.9,306.7 835.9,302.6 835.9,302.2 836.0,303.0 836.0,304.8 836.0,304.9 836.1,304.9 836.1,304.3 836.1,301.1 836.1,304.8 836.1,303.9 836.1,302.4 836.2,302.2 836.2,303.6 836.2,300.1 836.3,302.7 836.3,303.1 836.3,305.6 836.3,308.1 836.3,313.2 836.4,312.8 836.4,310.3 836.5,314.6 836.5,320.1 836.5,319.4 836.6,323.1 836.6,327.5 836.6,330.7 836.6,333.5 836.6,338.6 836.7,340.0 836.7,342.6 836.7,340.0 836.7,345.0 836.7,349.7 836.7,341.1 836.8,340.7 836.8,338.8 836.8,340.2 836.9,345.0 836.9,351.2 836.9,355.4 836.9,359.8 836.9,366.2 836.9,367.6 837.0,358.4 837.0,354.3 837.1,368.9 837.1,376.2 837.1,383.9 837.2,389.6 837.2,376.6 837.2,377.5 837.3,367.4 837.3,359.7 837.3,348.7 837.3,339.4 837.3,342.3 837.3,345.6 837.3,380.9 837.3,374.9 837.3,337.5 837.3,322.5 837.3,322.2 837.3,315.9 837.3,316.4 837.3,313.4 837.4,303.2 837.4,299.4 837.4,292.6 837.4,286.1 837.4,307.7 837.5,329.0 837.5,344.7 837.5,346.6 837.5,345.9 837.5,348.2 837.6,340.2 837.6,344.3 837.6,358.7 837.6,350.9 837.7,352.0 837.7,352.2 837.7,353.7 837.8,360.4 837.8,355.1 837.8,354.5 837.8,366.4 837.8,370.6 837.8,375.7 837.9,381.5 837.9,378.0 837.9,388.5 837.9,388.6 837.9,389.6 837.9,387.7 838.0,393.3 838.0,397.1 838.0,393.2 838.0,384.9 838.0,389.4 838.1,391.4 838.1,388.9 838.1,383.4 838.1,399.3 838.2,401.7 838.2,386.9 838.2,410.6 838.3,392.4 838.3,408.4 838.4,401.8 838.4,405.6 838.4,401.9 838.4,405.0 838.4,411.5 838.5,401.8 838.5,401.9 838.5,405.3 838.5,413.9 838.5,413.4 838.5,414.4 838.6,406.5 838.6,408.0 838.6,406.2 838.6,408.0 838.6,397.1 838.6,410.7 838.6,406.8 838.7,406.5 838.7,420.5 838.7,425.6 838.7,412.3 838.7,408.3 838.8,432.1 838.8,422.0 838.8,428.8 838.8,404.4 838.8,404.4 838.8,425.0 838.9,423.7 838.9,424.0 838.9,413.9 838.9,423.5 838.9,414.0 838.9,423.5 838.9,416.9 838.9,404.5 839.0,422.9 839.0,421.0 839.0,418.3 839.0,415.1 839.0,417.9 839.0,413.7 839.1,410.5 839.1,417.6 839.1,422.1 839.2,417.9 839.2,429.3 839.3,414.5 839.3,428.5 839.3,429.3 839.4,413.4 839.4,419.9 839.4,436.0 839.5,416.9 839.5,413.9 839.6,418.5 839.6,401.5 839.6,414.1 839.6,403.8 839.7,401.6 839.7,416.2 839.7,403.8 839.7,407.5 839.8,411.1 839.8,400.8 839.9,404.1 839.9,395.2 839.9,404.7 840.0,390.0 840.0,390.4 840.1,388.9 840.1,401.3 840.1,383.4 840.2,386.7 840.2,380.2 840.2,384.5 840.3,380.3 840.3,388.2 840.3,387.8 840.3,385.7 840.3,383.0 840.4,382.4 840.4,371.9 840.4,380.2 840.5,376.0 840.5,387.1 840.5,367.6 840.5,389.8 840.5,400.9 840.5,387.6 840.6,387.1 840.6,393.1 840.7,392.7 840.8,387.1 840.8,378.1 840.8,384.0 840.9,376.9 840.9,375.8 840.9,378.4 841.0,376.2 841.0,371.2 841.0,365.6 841.0,375.1 841.1,362.0 841.1,376.1 841.1,377.6 841.1,364.9 841.1,363.3 841.2,370.1 841.2,388.3 841.2,383.1 841.3,384.1 841.3,376.8 841.3,400.8 841.3,407.6 841.4,404.5 841.4,400.7 841.4,395.0 841.5,386.6 841.5,388.1 841.5,382.4 841.5,377.8 841.6,388.5 841.6,388.6 841.6,394.5 841.7,397.2 841.7,401.2 841.7,385.4 841.7,387.2 841.8,393.0 841.8,395.9 841.8,392.6 841.9,399.0 841.9,382.4 842.0,387.8 842.0,387.9 842.1,391.4 842.1,398.1 842.2,395.0 842.2,400.9 842.2,401.5 842.3,402.7 842.3,404.0 842.4,403.9 842.4,409.9 842.5,413.9 842.5,406.8 842.5,391.9 842.6,395.2 842.6,393.5 842.6,391.7 842.6,385.2 842.7,399.4 842.7,406.1 842.7,402.5 842.8,396.3 842.8,397.5 842.9,391.7 842.9,390.8 842.9,395.3 843.0,388.4 843.0,382.6 843.0,389.4 843.1,385.0 843.2,385.8 843.3,381.1 843.3,377.6 843.4,376.9 843.4,379.4 843.4,381.6 843.5,384.3 843.5,382.4 843.5,383.1 843.6,383.1 843.6,384.3 843.6,385.3 843.7,381.8 843.8,378.3 843.8,376.4 843.8,381.3 843.9,379.8 843.9,378.1 844.0,384.2 844.1,379.6 844.2,380.3 844.2,379.5 844.3,381.3 844.3,384.5 844.4,384.8 844.5,376.4 844.5,376.7 844.5,385.4 844.6,384.8 844.7,379.1 844.7,378.5 844.8,379.7 844.8,377.6 844.9,374.9 844.9,378.1 845.0,383.6 845.0,384.3 845.0,377.8 845.1,375.3 845.2,375.4 845.2,374.0 845.2,376.1 845.3,372.4 845.3,373.0 845.3,373.4 845.4,372.3 845.5,369.8 845.5,370.2 845.5,369.6 845.6,369.9 845.6,371.1 845.6,374.8 845.7,373.4 845.7,376.9 845.8,372.7 845.8,374.9 845.9,379.3 845.9,379.5 846.0,377.6 846.0,378.3 846.0,379.3 846.1,378.2 846.1,373.5 846.1,371.3 846.1,371.9 846.2,369.8 846.2,367.3 846.3,367.6 846.3,366.6 846.4,366.1 846.4,366.8 846.4,365.4 846.4,366.4 846.5,366.3 846.5,366.6 846.5,364.3 846.6,368.4 846.6,369.8 846.6,371.3 846.7,372.9 846.7,371.0 846.7,369.3 846.7,369.5 846.7,371.7 846.7,371.9 846.8,379.1 846.8,372.7 846.8,374.0 846.8,379.2 846.8,368.7 846.8,371.6 846.8,368.6 846.8,374.9 846.8,377.3 846.8,377.4 846.9,377.1 846.9,373.4 846.9,379.1 846.9,373.1 846.9,380.7 846.9,380.3 846.9,381.7 846.9,375.2 846.9,372.7 847.0,372.7 847.0,370.9 847.0,374.0 847.1,373.4 847.1,370.7 847.1,369.3 847.2,360.3 847.2,352.8 847.2,346.7 847.2,343.1 847.2,338.6 847.2,333.2 847.3,326.8 847.3,330.7 847.3,330.7 847.3,332.1 847.3,338.0 847.3,336.3 847.3,337.5 847.3,336.5 847.4,341.9 847.4,339.6 847.4,344.7 847.4,343.7 847.5,344.0 847.5,341.3 847.5,347.6 847.6,351.1 847.7,350.1 847.7,352.6 847.8,354.3 847.8,351.5 847.9,352.1 847.9,353.7 847.9,350.1 847.9,353.0 848.0,346.6 848.0,347.4 848.0,350.1 848.0,349.2 848.1,348.2 848.1,347.0 848.1,350.1 848.1,348.2 848.1,342.8 848.2,342.5 848.2,343.1 848.2,342.5 848.3,343.0 848.3,344.3 848.4,342.4 848.4,344.3 848.5,345.7 848.5,346.4 848.5,349.8 848.6,351.5 848.6,350.1 848.7,352.8 848.7,353.8 848.7,357.2 848.8,355.2 848.8,355.2 848.9,355.3 848.9,359.6 849.0,352.3 849.0,353.5 849.1,355.2 849.1,353.7 849.1,353.2 849.2,358.2 849.2,357.2 849.2,352.3 849.3,352.6 849.3,346.4 849.3,348.2 849.4,347.4 849.4,352.1 849.5,352.3 849.5,346.9 849.5,350.8 849.6,352.8 849.6,352.1 849.6,351.3 849.6,350.9 849.7,355.8 849.7,349.7 849.8,357.8 849.8,357.0 849.9,355.2 849.9,353.0 849.9,355.9 850.0,355.2 850.0,358.1 850.1,359.5 850.1,360.9 850.2,359.7 850.3,357.1 850.3,356.2 850.4,354.1 850.5,349.1 850.5,352.7 850.6,357.0 850.7,356.5 850.8,358.2 850.8,355.3 850.9,355.2 851.0,355.2 851.0,356.5 851.1,353.2 851.1,349.1 851.2,349.3 851.2,344.3 851.3,350.4 851.3,348.2 851.4,350.1 851.5,348.2 851.5,348.2 851.6,344.7 851.6,345.3 851.7,345.4 851.7,341.9 851.7,343.1 851.8,337.6 851.8,337.5 852.0,336.5 852.0,331.3 852.2,330.4 852.2,329.7 852.3,329.7 852.3,329.3 852.4,328.1 852.5,330.6 852.6,332.2 852.7,321.6 852.7,328.9 852.8,328.7 852.9,334.8 852.9,335.6 852.9,333.8 852.9,326.9 852.9,327.6 853.0,329.9 853.0,326.1 853.1,324.3 853.1,329.8 853.1,326.4 853.1,325.8 853.1,328.4 853.1,327.6 853.1,333.0 853.2,326.9 853.2,329.1 853.2,330.7 853.2,325.4 853.3,324.5 853.3,317.4 853.3,324.4 853.4,317.1 853.4,319.4 853.4,308.0 853.4,292.9 853.4,296.5 853.4,302.9 853.4,307.3 853.4,314.9 853.5,304.9 853.5,305.6 853.5,297.5 853.5,305.6 853.6,300.9 853.6,296.9 853.6,308.0 853.6,308.0 853.6,292.8 853.7,280.0 853.7,275.5 853.7,283.4 853.8,275.3 853.8,278.5 853.8,276.2 853.8,276.6 853.9,287.6 853.9,291.3 853.9,294.0 854.0,289.7 854.0,290.8 854.1,296.8 854.1,294.4 854.2,294.2 854.2,296.5 854.3,301.2 854.4,312.5 854.4,300.9 854.4,289.3 854.4,288.9 854.4,286.4 854.5,289.8 854.6,298.1 854.6,295.1 854.7,296.1 854.7,297.3 854.8,296.1 855.0,300.7 855.0,295.7 855.0,303.7 855.1,305.3 855.2,296.8 855.3,296.9 855.6,300.7 855.6,293.6 855.6,300.7 855.7,295.7 855.8,300.0 856.0,298.8 856.1,286.5 856.1,271.9 856.1,262.5 856.2,262.1 856.2,251.6 856.2,256.4 856.2,258.2 856.3,247.5 856.3,240.9 856.3,241.2 856.3,229.9 856.3,230.4 856.3,237.4 856.3,248.5 856.4,232.0 856.4,217.6 856.4,222.5 856.4,232.4 856.4,223.2 856.4,229.5 856.4,207.0 856.4,220.0 856.4,224.8 856.5,232.7 856.5,243.2 856.7,249.2 856.8,252.9 856.8,259.6 856.9,263.9 857.0,260.3 857.1,260.7 857.1,245.8 857.1,225.5 857.1,228.7 857.2,233.1 857.3,240.0 857.4,241.6 857.5,251.3 857.7,255.7 857.7,249.2 857.7,232.6 857.7,228.3 857.8,224.0 857.9,239.6 857.9,255.5 858.0,242.3 858.0,241.0 858.0,243.1 858.1,252.3 858.1,244.1 858.2,241.2 858.3,249.8 858.5,250.2 858.6,244.0 858.6,250.1 858.7,253.1 858.8,254.4 858.8,251.3 858.9,252.7 859.0,257.4 859.1,259.6 859.2,256.0 859.3,256.9 859.3,261.3 859.4,263.4 859.4,260.2 859.4,255.8 859.5,259.3 859.6,258.2 859.6,254.1 859.7,257.8 859.7,256.7 859.8,255.1 859.8,251.8 859.8,249.5 859.9,247.7 859.9,248.0 859.9,249.5 859.9,250.3 860.0,249.5 860.1,249.8 860.3,256.1 860.3,248.6 860.4,247.1 860.4,246.0 860.5,244.0 860.5,241.8 860.6,238.5 860.6,235.9 860.7,243.0 860.8,248.2 860.8,247.8 860.8,244.5 860.9,242.4 860.9,245.4 861.0,246.8 861.0,249.2 861.1,249.7 861.1,252.3 861.2,253.8 861.3,248.9 861.4,252.6 861.4,256.9 861.5,257.9 861.5,254.7 861.5,255.7 861.6,250.9 861.7,253.6 861.8,252.2 861.8,251.1 861.9,252.3 862.0,253.0 862.1,252.2 862.1,248.4 862.1,246.0 862.2,244.4 862.2,240.5 862.2,239.4 862.3,247.0 862.4,244.1 862.4,248.1 862.4,243.2 862.5,247.9 862.6,249.8 862.7,247.4 862.8,247.8 862.8,249.5 862.9,248.3 863.0,247.3 863.0,248.8 863.0,246.8 863.1,249.8 863.1,247.1 863.2,249.5 863.2,245.7 863.3,245.8 863.4,247.7 863.4,248.6 863.4,251.0 863.5,255.4 863.5,255.1 863.5,258.5 863.5,256.2 863.6,258.6 863.6,261.0 863.6,261.1 863.7,260.0 863.7,260.3 863.7,264.5 863.8,268.2 863.9,270.2 863.9,271.6 863.9,268.8 863.9,271.6 863.9,273.8 863.9,273.7 864.0,274.5 864.0,272.6 864.0,270.7 864.1,274.5 864.1,276.5 864.1,274.3 864.1,270.5 864.2,274.9 864.2,270.9 864.2,277.8 864.3,275.1 864.4,273.5 864.5,271.4 864.5,273.5 864.6,273.1 864.6,275.8 864.7,277.5 864.8,276.9 864.8,278.9 864.9,281.8 865.0,282.8 865.1,287.1 865.1,285.7 865.2,285.6 865.2,290.6 865.3,287.6 865.3,290.0 865.3,288.0 865.4,290.7 865.5,293.2 865.5,292.4 865.6,294.9 865.7,292.6 865.7,293.1 865.8,297.0 865.8,300.8 865.9,304.9 865.9,304.1 865.9,306.2 866.0,307.3 866.1,316.3 866.1,314.9 866.1,318.9 866.2,321.7 866.2,328.8 866.3,329.5 866.3,325.9 866.3,323.2 866.3,318.6 866.3,312.8 866.4,309.4 866.4,307.5 866.4,302.4 866.5,301.9 866.5,305.2 866.5,302.9 866.6,303.2 866.7,306.9 866.8,303.4 866.8,306.9 866.9,310.1 866.9,308.9 866.9,304.9 867.0,302.1 867.0,300.9 867.1,300.9 867.1,302.8 867.1,303.8 867.1,305.5 867.1,301.1 867.1,298.8 867.2,298.1 867.2,300.7 867.3,299.9 867.4,303.0 867.5,298.3 867.5,305.2 867.6,304.7 867.6,301.6 867.7,298.3 867.7,297.6 867.8,294.5 867.8,296.8 868.0,296.3 868.0,294.9 868.0,294.2 868.1,293.4 868.1,292.1 868.1,296.6 868.2,294.1 868.2,298.0 868.3,296.6 868.3,298.8 868.3,294.9 868.4,298.3 868.4,299.6 868.4,302.0 868.5,300.4 868.7,302.6 868.7,305.6 868.7,306.5 868.7,303.4 868.7,301.3 868.7,306.7 868.7,307.4 868.8,301.0 868.8,302.9 868.8,303.4 868.8,303.5 868.8,304.5 868.8,300.6 868.9,301.3 868.9,301.7 869.0,300.4 869.1,298.3 869.2,296.3 869.3,296.1 869.3,297.1 869.3,296.3 869.3,302.4 869.4,302.9 869.5,305.2 869.6,306.4 869.6,307.1 869.7,305.1 869.7,301.1 869.8,300.3 869.9,298.5 869.9,295.6 869.9,293.5 869.9,297.3 869.9,299.9 870.0,300.3 870.2,301.3 870.3,296.5 870.4,299.1 870.5,302.9 870.6,303.7 870.7,297.9 870.8,301.3 870.9,304.4 871.0,305.9 871.1,301.0 871.2,304.1 871.2,300.4 871.4,303.1 871.6,300.1 871.7,303.1 871.8,298.9 871.8,297.8 872.0,296.9 872.1,299.1 872.2,294.9 872.3,297.3 872.3,295.9 872.4,297.9 872.4,292.5 872.5,294.8 872.6,293.7 872.7,293.1 872.9,295.1 873.0,296.8 873.1,296.0 873.2,297.0 873.4,299.2 873.5,300.5 873.6,300.9 873.7,299.2 873.8,301.9 874.0,304.5 874.1,303.7 874.1,303.8 874.2,306.9 874.3,305.0 874.3,309.8 874.4,305.4 874.6,302.0 874.7,305.2 874.8,299.5 874.9,295.6 875.2,301.0 875.3,305.8 875.4,301.9 875.6,307.2 875.8,301.8 875.9,303.8 876.1,300.1 876.2,300.7 876.4,299.1 876.5,301.3 876.6,307.3 876.7,313.7 876.9,307.9 877.1,309.6 877.3,308.0 877.5,312.6 877.6,312.2 877.7,318.0 877.9,317.4 878.2,314.7 878.2,317.8 878.4,318.4 878.5,318.8 878.7,324.6 878.8,327.2 878.8,325.0 878.9,327.6 879.0,326.7 879.1,326.7 879.2,326.3 879.3,322.2 879.3,325.4 879.4,324.2 879.4,322.4 879.4,324.2 879.5,322.8 879.6,321.2 879.6,321.4 879.7,321.0 879.9,321.7 880.0,324.8 880.1,321.4 880.2,318.5 880.3,318.5 880.4,323.3 880.5,323.3 880.5,323.6 880.6,324.4 880.6,325.7 880.6,325.1 880.6,323.5 880.7,322.0 880.7,326.7 880.8,327.6 881.0,328.0 881.2,329.5 881.3,329.4 881.3,327.2 881.5,324.9 881.5,324.7 881.7,324.9 881.8,330.5 881.9,326.6 882.2,328.5 882.5,326.4 882.6,330.3 882.8,328.9 882.9,328.9 883.0,326.7 883.2,321.7 883.4,319.9 883.5,319.4 883.7,316.9 883.7,315.2 883.8,317.4 884.0,315.8 884.1,313.9 884.2,314.3 884.3,317.2 884.3,316.4 884.4,311.3 884.5,310.9 884.6,314.0 884.7,314.0 884.8,313.0 884.8,312.6 884.9,312.3 885.0,313.9 885.1,314.8 885.3,306.5 885.5,307.8 885.6,306.2 885.8,307.6 886.0,310.9 886.1,307.6 886.2,308.6 886.4,307.1 886.6,307.5 886.8,308.9 886.9,307.2 887.1,303.4 887.3,304.0 887.4,304.2 887.5,305.3 887.8,305.3 887.9,303.8 888.1,306.4 888.3,303.4 888.5,304.8 888.8,303.4 889.2,301.1 889.5,301.1 889.6,299.6 889.8,298.0 889.9,292.8 890.0,286.4 890.0,284.0 890.0,282.5 890.1,275.4 890.1,280.7 890.1,278.5 890.1,274.2 890.1,277.8 890.2,284.0 890.3,294.1 890.5,289.3 890.6,293.3 890.7,287.4 890.9,288.1 891.0,288.6 891.2,284.0 891.4,286.1 891.5,284.9 891.8,285.6 892.0,287.8 892.2,289.8 892.4,288.7 892.5,285.6 892.8,290.8 893.0,291.9 893.1,292.7 893.2,291.2 893.4,291.0 893.6,287.9 893.8,287.1 894.0,287.1 894.2,286.8 894.4,290.8 894.6,295.3 894.8,296.8 894.9,294.4 895.1,294.8 895.3,297.8 895.5,296.4 895.6,294.2 895.7,297.0 895.9,296.8 896.1,297.7 896.4,298.2 896.7,300.1 896.7,295.6 896.8,291.1 897.1,293.1 897.4,293.9 897.7,293.1 898.0,294.8 898.2,288.4 898.3,292.0 898.5,291.2 898.9,293.8 899.2,293.0 899.3,297.5 899.6,297.7 899.9,298.2 900.0,303.7 900.2,298.3 900.4,298.2 900.6,298.2 900.9,295.1 901.1,293.0 901.4,295.6 901.8,299.0 902.0,297.2 902.3,299.5 902.5,295.7 902.8,297.9 903.1,294.2 903.5,300.5 903.8,302.6 903.9,307.5 903.9,313.2 903.9,313.7 904.0,308.0 904.2,306.2 904.4,305.3 904.5,307.4 904.7,308.0 904.9,311.0 905.2,313.3 905.4,311.8 905.6,313.5 905.9,315.3 906.2,316.8 906.5,316.6 906.9,313.7 907.3,311.3 907.7,309.7 908.0,306.7 908.2,303.2 908.4,304.9 908.6,300.4 908.8,299.0 908.9,298.1 909.2,294.4 909.7,296.4 910.1,294.8 910.7,293.7 911.2,294.8 911.4,297.5 911.5,299.1 911.7,298.4 911.8,298.0 911.9,296.9 912.3,291.7 912.6,287.8 913.2,291.3 913.7,295.1 913.8,292.6 914.3,292.4 914.5,295.0 914.7,296.6 914.9,295.5 915.1,292.7 915.3,293.7 915.6,291.8 915.7,290.8 916.0,291.7 916.4,293.7 916.8,295.6 917.1,293.5 917.6,292.3 917.9,297.9 918.1,297.8 918.3,297.6 918.7,294.4 919.0,289.7 919.4,292.0 919.7,288.3 920.1,288.9 920.3,287.0 920.4,286.9 920.7,287.6 921.1,289.7 921.6,285.8 921.9,285.9 922.2,286.1 922.8,286.5 923.1,283.0 923.4,284.3 923.7,286.9 924.0,286.0 924.5,284.8 925.0,281.0 925.3,285.9 925.9,289.3 926.2,291.5 926.5,290.9 926.8,291.9 927.1,293.8 927.3,294.7 927.5,292.4 927.7,297.7 928.0,299.5 928.4,299.0 928.8,302.4 929.1,304.7 929.4,308.9 929.9,310.9 930.0,311.8 930.2,314.9 930.7,316.4 931.1,315.8 931.3,320.1 931.8,320.6 932.3,319.2 932.6,317.1 933.1,315.9 933.5,314.7 934.0,316.8" fill="none" stroke="#d97706" stroke-width="1.2" stroke-linejoin="round" opacity="0.6"/><text x="942" y="472.0" text-anchor="start" font-size="11" fill="#d97706">448.13</text><text x="942" y="396.0" text-anchor="start" font-size="11" fill="#d97706">480.99</text><text x="942" y="320.0" text-anchor="start" font-size="11" fill="#d97706">513.85</text><text x="942" y="244.0" text-anchor="start" font-size="11" fill="#d97706">546.72</text><text x="942" y="168.0" text-anchor="start" font-size="11" fill="#d97706">579.58</text><text x="942" y="92.0" text-anchor="start" font-size="11" fill="#d97706">612.44</text><text x="942" y="80.0" text-anchor="start" font-size="11" font-weight="600" fill="#d97706">price</text>
  <polygon points="772.9,468.0 772.9,292.2 772.9,310.6 838.1,219.2 839.4,245.2 839.9,277.7 856.3,116.1 856.3,468.0" fill="#16a34a" fill-opacity="0.08"/>
  <polyline points="772.9,292.2 772.9,310.6 838.1,219.2 839.4,245.2 839.9,277.7 856.3,116.1" fill="none" stroke="#16a34a" stroke-width="2" stroke-linejoin="round"/>
  <line x1="88" y1="102" x2="110" y2="102" stroke="#16a34a" stroke-width="2.5"/><text x="116" y="106" font-size="11.5" fill="#374151">equity</text><line x1="88" y1="118" x2="110" y2="118" stroke="#d97706" stroke-width="2.5" opacity="0.8"/><text x="116" y="122" font-size="11.5" fill="#374151">price</text>
  <text x="78" y="502" text-anchor="start" font-size="12" fill="#6b7280">2025-10-10</text><text x="934" y="502" text-anchor="end" font-size="12" fill="#6b7280">2025-10-10</text>
</svg>
