<svg xmlns="http://www.w3.org/2000/svg" width="1000" height="520" font-family="ui-sans-serif, system-ui, sans-serif" viewBox="0 0 1000 520"><rect width="1000" height="520" fill="#fff"/><text x="78" y="28" fill="#111827" font-size="18" font-weight="700">Zone Recovery — LTCUSDC best setting (equity / PnL)</text><text x="78" y="48" fill="#6b7280" font-size="12.5">lev 25 · ratio 3 · gap 20% · maxSteps 4 · maxDD 20% · random · vip 9 · 69 series, 78.3% win · vol $39138355 ($1262529/day) · fees $3311</text><text x="78" y="68" fill="#1d4ed8" font-size="12.5" font-weight="600">USDC · BNB −10% · taker 0.0085%</text><text x="934" y="28" fill="#16a34a" font-size="18" font-weight="700" text-anchor="end">+24157 USDT (+241.57%)</text><line x1="78" x2="934" y1="468" y2="468" stroke="#e5e7eb" stroke-width="1"/><text x="68" y="472" fill="#6b7280" font-size="12" text-anchor="end">0.00</text><line x1="78" x2="934" y1="392" y2="392" stroke="#e5e7eb" stroke-width="1"/><text x="68" y="396" fill="#6b7280" font-size="12" text-anchor="end">9573</text><line x1="78" x2="934" y1="316" y2="316" stroke="#e5e7eb" stroke-width="1"/><text x="68" y="320" fill="#6b7280" font-size="12" text-anchor="end">19146</text><line x1="78" x2="934" y1="240" y2="240" stroke="#e5e7eb" stroke-width="1"/><text x="68" y="244" fill="#6b7280" font-size="12" text-anchor="end">28719</text><line x1="78" x2="934" y1="164" y2="164" stroke="#e5e7eb" stroke-width="1"/><text x="68" y="168" fill="#6b7280" font-size="12" text-anchor="end">38292</text><line x1="78" x2="934" y1="88" y2="88" stroke="#e5e7eb" stroke-width="1"/><text x="68" y="92" fill="#6b7280" font-size="12" text-anchor="end">47865</text><line x1="78" x2="934" y1="388.6" y2="388.6" stroke="#9ca3af" stroke-dasharray="6 4" stroke-width="1.5"/><text x="934" y="382.6" fill="#6b7280" font-size="11" text-anchor="end">start 10000</text><polyline fill="none" stroke="#d97706" stroke-linejoin="round" stroke-width="1.2" points="78 202.5 78.8 200.9 79.6 199.3 80.6 198.7 82.1 199.1 83 203.3 83.9 198.7 85 198.3 86.6 199.1 87.8 196.3 88.6 195 89.6 195.3 90.9 195.2 92.2 193.4 93.3 191.4 94.2 188.4 94.6 189.9 95.3 188.1 95.9 183.5 96.1 179.4 96.2 181.8 96.5 180.6 96.8 180.4 97.3 180.1 97.8 178.9 98.1 181.3 98.4 178.2 98.9 179 99.6 177.9 100.2 177.7 100.8 174.4 101.3 173.4 102.1 173.2 102.8 175.2 103.5 170.3 104.3 170.9 104.7 170.2 105.3 168.1 105.8 171.8 106.5 170.3 107.1 174.2 107.6 176.6 108.3 176.4 109.2 172.4 109.6 169.5 109.9 166.3 110.1 165.6 110.6 168 111.2 171.5 112 172.5 112.8 170.9 113.3 170.9 114.2 174.2 114.8 175 115.4 174.7 115.9 174 116.3 170.8 116.8 167.6 116.9 162.4 117 165.1 117.3 162.2 117.5 164.7 118 167.4 118.3 169.2 118.7 170.7 119.1 173.8 119.6 171.1 120.1 167.1 120.4 165.8 120.9 165.8 121.4 166.2 122 167.8 122.2 170 122.4 170.6 122.5 163.2 122.5 163 122.6 161.8 122.7 157.6 122.8 160.7 123 163.7 123.1 166.3 123.3 167.7 123.4 166.4 123.6 159.6 123.9 161.7 124.1 161.7 124.3 158.7 124.4 159.6 124.6 158.6 124.7 153.7 124.8 155.7 124.9 158.3 125 157.5 125.2 151.8 125.3 151.9 125.5 151.6 125.7 153 125.9 156.5 126.3 153.4 126.5 153.1 127 154.3 127.3 156.8 127.7 154.5 128.2 153.4 128.8 152.9 129.4 153.7 130.1 153.3 130.8 148.4 131 145.2 131.2 147.6 131.7 146.1 132.1 145.2 132.6 147.1 133.4 146.8 133.9 143.9 134.5 144.9 134.7 141.8 135.3 141.4 135.8 142.8 136.4 139.9 136.8 138.9 137.4 141.8 138 140.4 138.7 140.5 139.4 141.6 139.8 145.2 140.1 138.7 140.5 138.2 141 145.6 141.3 142 141.6 147.6 141.7 154.3 141.8 153.7 142 152.4 142.2 152 142.5 151.3 142.9 149.4 143.1 149.6 143.2 150.5 143.4 150.3 143.9 152.4 144.3 151.5 144.6 151.3 145.1 154.1 145.5 148.6 145.8 151.5 146.3 153.4 147.1 153.4 147.9 150.8 148.5 150.4 149.1 147.1 149.8 147.1 150.2 150.9 150.4 155.9 150.4 154.7 150.7 155.1 151.2 153.6 151.7 153.9 152.2 150.3 152.6 145.6 153.2 145.2 153.8 143.1 154.4 141.3 155.2 142.1 156.3 145.3 157.1 141.4 157.6 142.2 158.2 143.6 159.2 141.3 159.9 142.4 160.7 144.7 161 140.7 161 139.5 161.2 139.6 161.5 140.1 161.9 139.9 162.4 144.1 162.9 143.9 163.5 143.2 164.3 144 164.7 140.8 165.1 139.6 165.5 139.6 166 140.2 166.5 140.6 167.3 141.6 167.9 138 168.2 138.4 168.6 144.4 169 143.4 169.5 143.4 170 143.2 170.2 147.2 170.5 145.7 171 144.9 171.6 143 172 139.5 172.5 139.2 173 139.9 173.6 143.9 174.4 141.3 174.8 139.9 175.1 138.2 175.3 134.5 175.5 138.3 175.8 140.8 176.3 142 176.9 138.7 177.4 139.3 177.8 139.6 178 140.9 178.1 142.8 178.4 141.1 179 142 179.3 138.4 179.7 137.4 180 134 180.5 134.9 180.9 138.6 181.6 135.5 182.1 141.2 182.4 140.6 182.8 143 182.8 146.4 183 147.7 183.3 144.2 184 144 185 144.5 185.3 142.5 185.9 147.5 186.4 144.7 187.2 146.6 187.6 143.2 188 145.1 188.5 138.9 188.7 143.3 188.9 142.8 189.3 137.9 189.5 137.4 189.7 134.2 189.9 132.5 190.2 133.9 190.4 130.3 190.6 131.2 190.8 129.2 191 132.8 191.3 136.1 191.5 138.3 191.7 142.6 191.7 140.2 191.9 139.7 192.3 140.9 192.7 140.5 193.1 138.8 193.5 142.6 193.6 148.7 193.8 147.9 194.1 145.5 194.6 143.9 195.2 147.7 195.7 146.6 196.1 147.7 196.5 145 197.1 142.2 197.8 141.1 198.3 144 198.8 144 199.1 147.7 199.7 146.1 200.2 144.5 200.7 149 201 148.4 201.6 146.2 202.3 145.2 202.9 148.6 203.4 145.1 203.8 148.1 204.2 149.1 204.6 146.9 205 146.7 205.2 141.5 205.3 143.2 205.3 136.1 205.4 137.7 205.5 138.3 205.7 137.5 205.8 137.1 205.9 136.8 206.1 136.9 206.3 132.4 206.5 130.1 206.6 128.8 206.8 130.5 207 132.2 207.2 131.5 207.4 133.7 207.6 132.8 207.9 135.4 208.3 136.2 208.5 142.1 208.7 139.6 208.9 136.9 209.1 133.2 209.2 133.2 209.6 133 209.9 130.5 210.1 125.9 210.3 126.6 210.6 126.3 211 124.1 211.3 127 211.6 123.6 211.8 122.8 212 117.6 212.2 122.1 212.5 124.2 212.9 125.7 213.2 127.9 213.8 127.8 214.3 123.6 214.6 121.4 215.1 125.7 215.7 126.1 216.2 130.7 216.5 132.5 216.8 136.4 217.1 129.5 217.4 127.1 217.8 124 218.1 128 218.5 130.6 219 127.8 219.5 128.4 220.2 124.9 220.8 126.4 221.3 127.9 221.9 128 222.4 128.1 222.9 130.1 223.3 127.9 223.7 125.4 224 126.9 224.5 129.2 224.8 133.2 225 134.6 225.3 132.6 225.8 133.3 226.3 133.1 226.8 131.9 227.6 134.3 228.2 132.1 229 130 229.7 126.8 230.2 123.8 230.9 121.4 231.3 121.3 231.7 121.3 232.2 123.8 232.4 118.9 232.6 118.6 232.7 117.1 232.8 118.9 232.9 119.5 233 121.4 233.1 125.1 233.2 126.2 233.4 123 233.6 122.1 233.8 120.3 234 121.7 234.1 129.2 234.2 130.5 234.3 128.9 234.4 130.8 234.6 130.8 234.6 138.4 234.8 134 234.9 136.5 235 140.1 235.1 141.2 235.2 141.6 235.3 143.7 235.4 145.5 235.5 139.2 235.7 140.8 235.9 137.6 236.1 138.4 236.4 136.2 236.5 140.3 236.6 147 236.6 147.6 236.7 153.2 236.8 153.9 236.8 146.8 237 142.9 237.2 143.3 237.5 143.3 237.9 140.4 238.4 138.7 238.9 140.4 239.4 136.2 239.8 136.2 240.4 138.3 240.5 129.3 240.6 126.4 240.7 128.1 240.9 126.1 241 125.8 241.3 126.9 241.7 128 242.2 128.7 242.9 125 243.5 124.7 244.1 126.2 244.5 130 244.8 135.2 245.2 136.3 245.5 134.6 245.8 136.2 246.3 134.9 246.8 131.2 247.3 127.8 247.9 131.8 248.6 130.2 249.2 131.8 249.9 133.2 250.5 134.7 251.3 136.7 252.2 132.5 252.7 129.6 253.1 129.1 253.5 128.8 253.9 125.4 254.2 129.4 254.5 132.9 254.7 134.1 254.8 136.6 254.9 138.7 255.1 137.5 255.4 135.4 255.9 136.6 256.6 137 257.3 138.4 257.8 139.7 258.3 144.6 258.4 139.1 258.8 140.1 259.2 137.5 259.7 140.1 259.9 144.4 260.1 146.4 260.2 148.9 260.4 150.5 260.4 148.8 260.5 145.7 260.6 145 260.8 144 261 149.5 261.1 147.8 261.3 150.5 261.3 152.7 261.5 149.4 261.7 149.1 261.8 151.1 262.1 151.8 262.4 150.7 262.7 150.3 262.9 151.9 263.3 152.5 263.7 146.9 264.1 149.2 264.6 152.2 264.9 153.2 265.2 149.5 265.5 152.6 265.8 155.7 266 154.9 266.2 151.6 266.7 152 267.1 154.7 267.6 153 268.1 152.4 268.8 151.7 269.4 150.6 269.9 151.9 270.4 152.4 270.6 147.9 271.1 150.2 271.7 150.7 272.3 147.2 272.9 145 273.6 144.2 274.1 147.8 274.6 148.1 275.4 148.4 275.7 152.8 276.2 153 276.6 148.4 277.2 146.3 277.8 146.9 278.3 151.9 278.5 154.9 278.7 155.9 279.1 155.2 279.3 159.5 279.3 155.5 279.4 160.2 279.4 161.9 279.5 162.5 279.8 158 280.1 155.3 280.5 154.4 280.9 151.6 281.2 155.4 281.7 157.5 282.1 159.5 282.5 160.9 282.8 164.2 283 162.9 283.3 157.5 283.8 157.7 284.2 159.2 284.4 162.5 284.7 161.2 285.1 158.7 285.3 161.2 285.7 160.2 286 161.7 286.5 161.7 286.8 160.4 287.3 162.6 287.5 161.5 287.8 162.4 288 165.9 288.1 160.8 288.2 162.7 288.3 166.2 288.4 160.8 288.5 160.6 288.7 160.4 288.9 158.2 289 156.8 289.2 156.3 289.4 156.3 289.7 152.9 289.9 155.2 290.2 155.1 290.5 157.9 290.8 155.2 291 152.4 291.2 151.9 291.5 153.8 291.9 151.6 292.2 152.8 292.8 153.4 293.3 151.9 293.9 153.4 294.4 160.5 294.7 161.8 295.3 157.9 295.8 156.5 296.6 153 297.1 152 297.9 150.9 298.7 154 299.6 148.9 300.5 151.1 300.6 145.4 300.8 153.2 301.1 152.5 301.5 148.8 302.3 153.9 303 153.1 303.6 147.9 304.3 150.5 305.1 152.7 306.1 150 307 148.4 307.9 149.5 308.3 150.8 308.8 152.4 309 156.1 309.1 160.3 309.2 159.1 309.4 156.4 309.8 154.6 310.7 155.2 311.6 154.1 312.6 154.5 313.4 157.7 314.1 154.5 314.4 153 314.5 157.4 314.7 156.7 315.1 158.9 315.3 164.7 315.5 167.4 315.6 162.1 315.7 163.1 315.8 159.9 315.9 162.6 316 161.8 316.2 161.4 316.3 162.1 316.5 163.3 316.6 157.4 316.7 152.1 316.8 152.7 316.8 148.1 316.9 152.1 317.1 151.9 317.3 155 317.5 149.9 317.7 147.2 318 149.3 318.2 148.3 318.6 147.1 318.9 152.6 319.3 150.7 319.7 147.6 320.1 153 320.2 154.7 320.5 151.1 321 154.3 321.3 157.8 321.7 156.3 322.1 156.8 322.6 154.6 323.1 157.6 323.6 153.4 324.4 152.5 325.1 151.1 326.3 152 327.4 154.4 328.7 152.7 329.7 156.3 330.6 157 331.6 158.3 332.9 157.6 334.4 155.3 335.4 152.7 336.4 153.3 337.5 152 338.4 150.8 339.3 150.4 340.7 148.7 341.7 147 342.1 145.4 342.9 146.1 343.4 144.3 343.5 150.9 344.1 150 345.1 150.9 346 151.6 346.7 154.3 347.4 155.9 348.7 153.4 350.2 153.8 351.5 155.1 352.6 155.2 353.3 155.9 354.5 154.3 355.9 154.9 357 150.9 358.2 150.3 359.1 153.6 360.1 151.4 361.2 151.9 361.9 154.1 362.8 153.9 363.1 154.5 363.7 154.5 364.6 155 365.8 154.4 366.9 155.4 367.9 157.2 368.8 154.2 369.5 155.9 370.1 157.6 370.8 155.9 371.4 155.8 372 156.8 372.3 162.4 372.6 161.8 373.1 159.1 373.4 157.5 373.9 157.9 374.5 162.7 375.4 162.5 376.2 159.2 377.1 165.3 377.3 167 377.5 169.2 377.9 167.4 378.4 172.1 378.6 173.4 378.9 174.1 379.3 175.2 379.6 180.3 379.8 181.1 380.4 178.1 380.7 183.3 380.8 179.7 380.9 176.2 381.1 176.2 381.4 179.5 381.8 182.1 382 184.5 382.1 182.4 382.4 184 382.5 184.4 382.6 186.9 382.7 190.7 382.8 189.2 382.9 183.9 383 182.9 383.1 182.5 383.3 183.3 383.5 180.3 383.6 186.6 383.8 184.2 384.1 183.7 384.2 179.3 384.4 178.2 384.6 181.5 384.8 181.1 385 176.6 385.2 177 385.4 173.6 385.6 169.1 385.8 170.5 386.1 174.7 386.4 176.8 386.6 173.9 387.1 171.1 387.4 168.1 387.7 164.9 387.8 163.8 388.1 161.3 388.3 164.1 388.6 167.5 389.1 168.7 389.4 168.2 389.7 173.6 390.1 173.8 390.4 180 390.7 182.4 391 183.1 391.3 180 391.6 183.9 391.7 187.5 391.9 189.7 392 186.3 392.3 188.7 392.7 188.1 393.1 188.1 393.4 188.2 393.8 192.7 394.1 194.5 394.5 192.9 394.9 191.4 395.5 192.8 395.8 198.1 396.1 196.4 396.4 197.9 396.6 202.9 396.6 206.4 396.7 209.3 396.7 208.3 396.8 207.5 396.8 208.1 396.8 214.2 396.9 213 397.1 210.8 397.5 209.7 397.7 208.9 398 208.5 398.2 208.8 398.3 208.3 398.4 204.7 398.5 204.4 398.6 204 398.8 200.4 399 202.4 399.2 202 399.4 198.8 399.6 200 399.6 197.9 399.8 196.5 400 198.1 400.2 198.5 400.3 200.1 400.5 196.4 400.6 195.1 400.8 193.9 400.9 197.8 401.1 201.2 401.3 201.5 401.6 203.5 401.8 204.4 402 204.2 402.2 202.9 402.5 200.2 402.8 204.7 403 206.5 403.2 211.5 403.5 204 403.8 204.7 404.1 208.8 404.4 210.4 404.8 207.9 405.1 207 405.4 210.6 405.8 210.2 406.2 208.5 406.3 207.1 406.6 206.9 407 210.2 407.3 205.3 407.6 205.9 408 210.3 408.6 210.6 409 210.8 409.4 208.2 409.7 211.9 410 210.5 410.4 211.2 410.7 211 411.1 211.9 411.6 208.5 411.9 205.7 412.4 210 412.7 210.2 413.1 208.9 413.6 209.7 414.1 206.2 414.6 207.7 415.3 204.1 415.6 204.7 415.8 207.5 416.3 205.9 416.7 207.2 417.3 205 417.7 205.4 418 202.2 418.1 201.8 418.5 202.7 418.9 205.4 419.1 207.9 419.4 207.6 419.8 203.8 420 206 420.1 207.8 420.3 207.5 420.6 209.1 420.9 207.4 421.3 212.6 421.4 213.9 421.5 218 421.6 215.5 421.8 213.4 422.2 213.3 422.6 209.2 422.9 207.6 423.2 207.1 423.7 209.3 424.1 207.2 424.3 202.2 424.6 205.5 424.9 202.9 424.9 206.5 425 202.8 425 204.3 425.2 201.8 425.3 205.8 425.5 208.2 425.7 202.6 425.9 201.3 426 199.2 426.1 199.3 426.2 195.5 426.3 196 426.4 199.2 426.6 204.4 426.6 202.2 426.7 202.4 426.9 205.7 427 208.3 427.1 210.5 427.2 206.8 427.4 204.6 427.5 205.1 427.7 201.4 427.8 198.4 427.8 194.6 427.9 197.4 428.1 200.6 428.3 197.8 428.4 194.1 428.5 191.9 428.6 191.9 428.8 192 428.9 193.5 429.1 196.2 429.3 201.9 429.5 199.1 429.7 200.1 429.9 198.5 430.1 204.2 430.2 208 430.3 203.5 430.5 206.5 430.7 208.4 430.9 210.5 431 207.1 431.2 208.3 431.5 206.3 431.7 201.8 431.9 199.4 432.1 199.6 432.3 197.2 432.5 195.2 432.7 195.5 432.9 196.8 433 201.5 433.1 205.6 433.3 204.2 433.5 204.4 433.6 202.4 433.9 199.3 434.2 200.8 434.6 197.2 434.8 198.5 434.9 191.9 434.9 185.5 434.9 184.9 434.9 184.9 434.9 188.2 434.9 192 434.9 195.1 435 191.4 435 185.1 435.1 184.7 435.2 184.6 435.2 180.2 435.3 182.2 435.4 179.3 435.6 182.1 435.7 184.5 435.8 182 435.9 181.1 436.1 180.6 436.2 179.7 436.3 187.8 436.5 190.7 436.7 187.9 436.8 189.4 437 186.8 437.1 185.6 437.2 186.6 437.3 190.8 437.3 187.1 437.4 185 437.6 187.2 437.8 182.8 437.9 183.9 438.1 185.5 438.2 182.6 438.4 181.1 438.5 183.5 438.7 186.6 438.8 184.1 439 186.9 439.1 189.5 439.3 188.8 439.5 184.6 439.8 184.2 440.1 183.1 440.3 187.9 440.5 185 440.8 184.6 441 183.1 441.2 178.8 441.3 178.8 441.5 176.5 441.6 175.8 441.7 181.8 441.8 183.9 442 179.4 442.1 174.5 442.2 180.4 442.5 181.8 442.7 183.7 442.8 182.8 443.1 179.6 443.3 182.2 443.5 183.1 443.8 181.8 444 184.7 444.2 182.8 444.4 181.1 444.6 180.5 444.9 178.4 445.2 175.9 445.5 175.6 445.7 176.2 446.1 178.8 446.4 174.5 446.6 178.9 447 182.7 447.4 178.8 447.5 173.7 447.7 172.4 447.9 176.3 448.1 176.9 448.3 175.8 448.5 181.1 448.6 180.8 448.8 177.1 449 181.6 449.2 182.9 449.5 182 449.7 185.4 450 184.7 450.3 186.2 450.7 189 450.8 189.1 451.1 185.1 451.5 183.9 451.8 180.8 452 181.9 452.1 179.6 452.3 181.1 452.4 177.2 452.5 179.3 452.7 177.6 452.9 183.8 453.1 181.1 453.3 179.1 453.4 177.9 453.5 179.4 453.6 180.8 453.7 180.3 453.8 179.5 453.8 174.6 453.9 174.9 454 173.9 454 173.1 454.1 172.5 454.2 173.4 454.2 176.4 454.3 178.2 454.4 176.5 454.5 171.8 454.5 170.5 454.6 168.1 454.7 163.3 454.7 160.4 454.7 158.2 454.8 157.4 454.8 161.6 454.9 164 454.9 165.3 455 167.9 455.1 168.4 455.2 169.1 455.3 168.8 455.4 167.9 455.5 166.6 455.7 165.6 455.8 166.1 456 167.7 456 166.4 456.1 170 456.2 170.2 456.3 173.1 456.5 174.2 456.6 173.7 456.6 176.4 456.7 174.1 456.8 175.8 456.9 177 457.1 176.2 457.2 181.6 457.3 181.9 457.4 180.2 457.5 182 457.5 186.7 457.7 186.4 457.7 188.9 457.8 183.9 457.9 188.2 458 185.5 458.2 183.8 458.3 186.7 458.4 190.4 458.4 191.2 458.5 190.9 458.6 191.4 458.7 188.2 458.9 190.6 459 191.6 459.1 192.8 459.2 190.4 459.3 187.4 459.4 182.6 459.5 188.9 459.6 189.7 459.8 190.6 459.9 193.2 460 192.8 460.1 191.6 460.2 189.1 460.5 192.5 460.5 196.4 460.7 197.4 460.8 196.7 460.9 195.5 461.2 192.4 461.4 190.5 461.6 189.5 461.8 189.6 462 194.1 462.2 194.6 462.5 191.5 462.6 191.5 462.8 193.7 463.1 196.3 463.1 201.5 463.1 205.3 463.1 203.2 463.3 202.7 463.5 201.2 463.6 199.5 463.7 196.9 463.9 200.9 464 207.1 464.1 208 464.2 205.8 464.5 202.4 464.8 203.3 464.9 204.5 465.1 206.6 465.4 204.7 465.5 209.1 465.6 208 465.8 205.5 466 204 466.2 206.7 466.4 209.1 466.6 207 466.8 209.3 466.8 211.7 467 209.7 467.3 208.7 467.5 209.9 467.6 214 467.7 210.5 467.8 213.5 468 213.4 468.3 214.1 468.4 216.3 468.6 221.9 468.6 232.2 468.6 231.4 468.6 233.8 468.6 240.4 468.6 234 468.6 229.5 468.6 230.2 468.6 231.7 468.6 232 468.7 234.7 468.7 233.5 468.7 232.9 468.8 237.7 468.8 237.8 468.8 239.5 468.9 236.2 468.9 230.9 469.1 231.3 469.2 232.9 469.4 230.6 469.5 231.9 469.7 227.2 469.9 227.7 470.1 227.7 470.3 228.9 470.5 226.4 470.8 227.7 471.1 226 471.4 224.3 471.7 225.5 472 224.6 472.3 228.7 472.4 229.4 472.8 227.6 473.1 224.9 473.4 225.1 473.7 225.9 473.9 225.8 473.9 221.9 474 218.8 474.1 223.3 474.2 220.6 474.4 221.6 474.6 222.2 474.8 218.7 475 220.9 475.1 223.4 475.4 221.3 475.7 218.4 475.7 215.2 475.8 211.8 475.8 208.4 475.8 206.8 475.8 204.6 475.8 202.4 475.8 208 475.9 208.3 476 209.9 476.2 209.1 476.4 211.6 476.6 209.5 476.9 212.6 477.2 214 477.6 214 477.8 213.2 478.1 216.3 478.3 215.9 478.6 215 478.9 216.3 479.2 215.1 479.5 213 479.9 211.6 480.2 213.4 480.4 212.7 480.6 210.8 480.9 213 481.1 217.4 481.3 219.5 481.3 218.5 481.4 221.4 481.4 223.3 481.5 225.2 481.6 224 481.6 226.7 481.6 221.8 481.7 221.2 481.8 223.3 482 223.4 482.1 222.2 482.2 221.8 482.3 227.1 482.4 226.5 482.5 228.1 482.6 233 482.6 236.3 482.7 233 482.7 236.3 482.7 239.4 482.7 244.2 482.7 251.2 482.7 251.7 482.7 258.1 482.7 260.7 482.7 268.3 482.7 269.1 482.7 275.9 482.7 277.2 482.7 270 482.7 270.7 482.7 263.5 482.7 260.9 482.8 258.3 482.8 253.1 482.8 255.6 482.8 255.3 482.8 255.3 482.8 258.9 482.8 259.2 482.8 257.8 482.9 255.8 482.9 256.9 482.9 257.8 482.9 258 483 256.9 483 254.7 483 252.6 483 251.2 483 253.1 483 256.3 483.1 255.8 483.1 257.3 483.2 253.8 483.2 250.1 483.2 248.1 483.2 249.6 483.3 252 483.3 253.4 483.4 253.8 483.5 251.2 483.6 252.5 483.7 247.2 483.8 246.4 483.9 246.3 483.9 243.9 484.1 243.8 484.2 243.1 484.4 243.3 484.5 244.6 484.7 241.8 484.8 240.1 484.9 241.5 485.1 241.3 485.2 246 485.3 245.9 485.5 250.3 485.6 250.7 485.8 250 486 251.2 486.1 255.9 486.2 255.1 486.4 256.2 486.6 253.2 486.7 255.3 487 255.5 487.1 254 487.3 255.2 487.6 254.3 487.8 251.8 488.1 255.9 488.4 256.2 488.5 257.2 488.6 263.2 488.7 257.1 488.9 254.8 489.3 251.9 489.4 253.7 489.6 252.3 490 252.8 490.2 253.3 490.4 249.6 490.8 249.4 491.3 253.3 491.8 254 492.3 250.9 492.7 251.9 493 253.1 493.4 253.3 493.6 257.5 493.9 257.2 494.3 255.2 494.7 256.7 495 253.5 495.2 251.3 495.6 249.8 495.9 250.2 496.6 250.2 497.1 250.3 497.5 251.9 497.8 253.5 497.8 259.5 497.9 258.4 498.1 257.3 498.4 255.7 498.8 252.7 499 252 499.2 255.5 499.7 253.9 500.5 251.2 501.1 254 501.6 249.7 502 247.3 502.3 248.5 502.7 250.5 503.2 251.4 503.8 253.7 504.5 254.4 505 250.4 505.4 249.2 505.8 248.5 506.1 246.2 506.5 247 506.9 248.5 507.4 249.1 507.8 251.4 508.2 249.7 508.5 248.4 508.9 245.1 509.1 244.7 509.2 245.6 509.5 246.9 509.6 246.3 509.9 249.1 510 250.2 510.1 256 510.1 260.9 510.1 264.4 510.1 262.7 510.2 256.9 510.2 258.3 510.3 255.3 510.3 251.7 510.4 253 510.4 254 510.5 251.9 510.6 256.3 510.7 254.2 510.8 254.2 511 255.3 511.2 253.5 511.3 253.2 511.6 252.7 511.8 255.3 512.1 254.6 512.3 254.5 512.5 250.3 512.8 250.1 513 246.7 513.2 243.3 513.2 242 513.3 235.9 513.3 237.7 513.4 238.1 513.4 235.1 513.5 237.9 513.7 238 513.8 240 513.9 235.5 514 232.2 514.1 228 514.2 229.4 514.3 229.2 514.4 233 514.5 229.6 514.6 229.7 514.7 225.6 514.8 228.5 514.9 231.8 515.2 230.2 515.3 236.3 515.5 232.9 515.6 230.1 515.8 228.2 515.9 226 516 224.2 516.2 226 516.4 226 516.5 225.2 516.7 225 517.1 224.1 517.3 222.7 517.4 221.2 517.6 221.6 517.8 223.2 518 224.6 518.3 225.2 518.5 219.2 518.6 215.6 518.8 219 518.9 215.5 519.1 215.5 519.2 210.3 519.4 217.4 519.6 218.4 519.8 219.7 520 222.7 520.2 221.5 520.4 219 520.7 216.7 520.9 216.2 521.1 212.5 521.3 216 521.6 220.1 521.8 224 522.1 223.9 522.3 228 522.8 226.9 523.3 227.7 523.9 229.4 524.4 229.7 524.7 233.4 525.4 230.6 525.7 225.5 526.4 225.1 526.9 223 527.4 225 528 227.5 528.7 226.5 529.1 223.3 529.6 222.7 530 221.5 530.4 221.7 530.9 221.6 531.5 223.3 532.3 222.9 532.7 224 533.3 226.7 533.9 225.4 534.4 229.3 534.8 230.7 535 230.1 535.2 228.7 535.9 228.1 536.5 228.7 536.6 222.9 536.9 222.5 537.3 222.1 537.7 224.2 538 224.2 538.3 223.4 538.7 227.7 539.1 227 539.5 225.9 540.2 225.5 540.8 223.5 541.3 223.3 542.1 222.9 542.6 221.3 543.3 218.9 544.1 221.6 544.7 222.6 545.4 220.4 545.9 226.3 546.3 225.1 547.1 224.2 547.8 220.2 548.3 224.4 548.7 220.1 548.9 224.2 549.2 228.4 549.6 228.3 550.1 225.6 550.6 227.4 551.2 224.6 551.7 222.6 552.3 223.9 552.8 228.1 553.5 225.8 553.8 223.1 554.4 221.2 555 223.3 555.8 224.9 556.5 222.1 557.1 221.7 557.1 215.2 557.3 220.8 557.6 215.6 558 215.8 558.3 218.1 558.8 215.8 559 217.7 559.5 216.5 560.1 215.8 560.6 215.8 561 214.7 561.4 217.5 561.8 212.9 562 215.2 562.4 220 562.6 224.4 562.8 223.9 563.1 222.9 563.4 223.8 563.8 222.5 564 220.6 564.4 225.5 564.7 227.4 565 225.4 565.4 222.9 565.9 222.2 566.5 223.4 567.2 223.1 567.8 224 567.9 221.4 568.4 220.5 568.7 218.8 569.1 216.2 569.7 218.5 570.3 221 571 217.9 571.5 220.9 572.1 220.8 573 220.8 573.6 220 574 225.4 574.1 226.4 574.3 231.4 574.4 231.2 574.4 233.9 574.4 241 574.4 246.9 574.5 245.1 574.5 240.4 574.5 239.5 574.6 241.6 574.6 243.5 574.7 243.3 574.8 247.1 574.8 252.6 574.8 251.5 574.9 250 575 253.1 575 251.8 575 258.2 575 265.9 575 274.5 575.1 269.1 575.1 274.6 575.1 273.1 575.1 279.7 575.1 291 575.1 289.8 575.1 300 575.1 299.1 575.1 284.7 575.1 309.1 575.1 309.1 575.1 301 575.1 315.1 575.1 321.1 575.1 311.7 575.1 318.1 575.1 294.2 575.1 296.7 575.1 293 575.1 289.5 575.1 284.8 575.1 280.4 575.1 278.5 575.1 277.2 575.1 283 575.1 278.7 575.1 277.8 575.1 277.5 575.2 279.3 575.2 282.6 575.2 281.8 575.2 284.2 575.2 279 575.2 279.5 575.2 283 575.2 283.3 575.2 281.2 575.3 283.7 575.3 280.5 575.3 283.1 575.3 282.9 575.3 285.1 575.4 282.6 575.4 281 575.4 280.8 575.4 277.6 575.4 282.1 575.4 284.3 575.5 286.3 575.5 279.3 575.5 281.6 575.5 281.5 575.5 282 575.6 282.8 575.6 286.5 575.6 286.4 575.7 283.7 575.7 284.3 575.8 285.7 575.8 283.2 575.8 283.4 575.9 282.7 576 283.2 576.1 280.6 576.2 283.5 576.3 280.9 576.4 276.7 576.5 278.5 576.6 282.6 576.8 280.1 576.9 280 577 281 577.2 282.7 577.4 280.8 577.5 278.9 577.7 278.1 577.9 277.5 578.1 279 578.3 280.1 578.6 277.9 578.9 276.3 579 275.3 579.2 275 579.5 273.4 579.6 273.9 579.9 276.6 580.2 275.2 580.4 274.7 580.7 274.8 581 275.9 581.2 276.9 581.4 276.3 581.7 274.1 581.9 273.2 582.2 274 582.5 275.5 582.7 275.7 583.2 275.2 583.7 274.4 584.1 270.2 584.5 267.5 584.7 264.8 584.8 265.7 585 265.2 585 271.2 585.1 272.7 585.1 271.9 585.4 272.6 585.6 276 585.8 275.3 586.2 274.4 586.7 277.1 587.1 276.2 587.7 275.3 588.2 274.4 588.6 272 589.1 274.8 589.6 270.8 590 276 590.1 277.7 590.4 277 590.8 276.9 591.1 275 591.4 274.3 591.6 269.5 591.7 269.4 591.8 269.3 592.1 269.3 592.4 264.6 592.4 265.2 592.5 267.5 592.7 266.6 592.9 268.5 593.3 266.8 593.6 271.5 593.8 271.2 594.2 269.5 594.5 265.8 594.8 267 595.2 264.3 595.5 260 595.8 265.2 596.3 264.6 596.7 260.9 597.3 258.9 597.8 257.7 598.4 259.6 598.9 259.8 599.5 262.1 600.4 262 600.6 262.7 601 264.1 601.5 267.8 601.6 274.1 601.6 271.9 601.8 271.7 602 269.1 602.3 266.8 602.7 267.6 603.1 268.2 603.5 266 603.9 267.3 604.2 266 604.6 269 605.1 271.2 605.5 272 605.9 270.7 606.4 272.8 606.8 274.2 607.2 273.7 607.9 273.3 608.3 274.5 608.4 274 608.6 273.2 608.8 273 609.2 272.8 609.7 270.5 609.9 280 609.9 277.9 610.1 271.9 610.2 275 610.4 275.5 610.6 275.5 610.8 274.2 611.1 272.6 611.6 275.3 611.7 279.2 611.8 282 612 281.4 612.1 286.3 612.2 283 612.4 282.2 612.6 285.3 612.8 286.3 613 282.6 613.4 282.2 613.8 283 614.2 281.2 614.5 278.4 614.9 282.2 615.5 279.7 616.1 281.5 616.6 282.9 617.1 280.8 617.6 280.4 617.9 283.2 618.2 282.6 618.5 281.6 618.7 288.1 618.8 284 619.1 282 619.2 279 619.4 280.8 619.5 280 619.5 278.5 619.6 279.6 619.7 282.7 619.8 281.9 620 285.2 620.1 285.6 620.1 288.1 620.1 285.6 620.2 285.5 620.3 286.6 620.4 284.8 620.5 285.9 620.7 286.5 620.8 291.6 620.8 293.1 620.9 291.7 621 293.1 621.2 289.5 621.3 287.5 621.6 290.4 621.8 290.7 621.9 293.7 622 295 622.1 293.4 622.3 289.4 622.7 290.5 622.9 294.6 623 295.5 623.1 298.5 623.2 296.5 623.3 295.6 623.5 296.8 623.7 297 623.8 303.7 623.8 302.8 623.8 301.9 624 303.8 624.2 303.2 624.4 303.4 624.6 298.4 624.8 303.2 625.1 304.2 625.3 302.1 625.7 306.4 626 304.6 626.2 301 626.5 302.7 626.7 303.7 626.8 306.6 626.9 304.4 627.3 307 627.6 308.5 628.1 307 628.5 305.6 628.6 316.9 628.6 315 628.6 314.4 628.6 314.7 628.7 311.3 628.7 310.4 628.8 308.4 628.9 309.8 628.9 309.5 629.1 309 629.2 310.4 629.4 308.2 629.7 308.5 630 306.7 630.3 305.4 630.6 306.3 630.8 306.4 631 302.2 631.2 298 631.5 296.5 631.7 293.8 632.1 293.9 632.5 293.8 632.8 290.4 633.2 291.2 633.7 289.6 634.4 289.7 634.9 288.5 635.7 288.3 636.4 287.8 636.9 284.6 637.2 285.9 637.8 286.3 638.4 287.1 639 287 639.5 288.4 639.9 290.4 640.2 293.5 640.8 295.2 641.2 296.6 641.4 292.3 641.8 291.9 642.4 290.3 643 293.5 643.7 293.4 644.1 297.8 644.2 298.2 644.3 302.2 644.5 302.7 644.6 305.1 644.8 300.5 645.2 299.4 645.7 298 646 299.7 646.3 302.1 646.5 298.4 646.5 295.3 646.6 292.9 646.7 291.7 646.8 291.2 646.9 292 647 290.1 647.1 293.3 647.2 292.2 647.4 291.2 647.6 291.8 647.8 289.1 647.9 287.8 648.1 289.2 648.3 290.8 648.5 285.7 648.7 286.4 649 289.8 649.1 293.4 649.3 291.7 649.4 298.9 649.5 302.8 649.5 306.9 649.6 300.7 649.7 303.5 649.8 308.4 649.8 312.2 649.9 311.6 649.9 310 650 312.9 650.1 316.9 650.1 318 650.2 312.7 650.3 313.1 650.4 314.7 650.5 317.9 650.6 316.9 650.7 313.8 650.8 314.7 651 313 651.1 311.1 651.2 305.5 651.4 306.4 651.6 307.7 651.8 307.5 651.9 302.6 652.1 304.5 652.3 305.5 652.5 305.7 652.7 297.3 652.7 293.4 652.7 292 652.8 291.3 652.8 289.5 652.9 287.3 653 287.8 653.1 284.7 653.1 289.1 653.2 284.8 653.3 286.3 653.5 287.6 653.6 289 653.8 290.7 653.9 290.3 654.1 290.3 654.4 288.2 654.6 287.7 654.8 283.9 655 284.1 655.5 283.8 655.8 280.9 656.1 286 656.6 286.2 657 284.6 657.4 288.2 657.7 293 657.9 291.7 658.2 289.6 658.7 284.6 659.1 282.2 659.4 281.5 659.9 284.2 660.3 281.5 660.7 282.5 661.1 285.4 661.6 285.5 662 290.8 662.5 291.3 663.1 289.4 663.8 291.2 664.4 291.3 665 292 665.4 293.7 666 291.9 666.3 297.7 666.8 293.4 667.3 292.2 667.6 294.2 668.1 291.2 668.7 289.3 669.4 288.4 670 289.4 670.8 291.6 671.3 293.1 672.1 293.5 673 293.8 673.5 291.5 673.6 293.4 674 293.3 674.4 293.1 674.6 294.6 674.7 298 674.8 296 674.9 300.2 675 299 675.1 302.5 675.2 302.7 675.3 300.2 675.4 300.1 675.6 299.4 675.6 304.6 675.7 304.3 675.8 304.2 676 299.8 676.1 296.6 676.4 296 676.6 298.5 676.7 297.7 677 298.2 677.3 294.3 677.6 295.8 678 299.6 678.3 295.1 678.6 295.6 678.9 292.8 679.3 295.9 679.7 298.7 680.1 297 680.6 294.8 681 295.4 681.6 298.1 682.1 296.9 682.6 295.2 683 298 683.5 297.9 684.1 298 684.8 297.8 685.7 296.2 686.2 293.3 686.7 290.6 687.1 289.2 687.4 285.7 687.8 281.5 688 284.2 688.7 286.7 689.3 284.5 689.4 283.1 690.3 284.3 690.8 284.2 691.4 284.5 691.7 286.7 692.2 287.3 692.7 287.1 693.1 288.7 693.6 289.4 694.3 289.5 695 290.4 695.3 293.3 695.7 295 696.2 294.7 696.7 295.3 697.1 292.3 697.6 295.7 698.2 295.6 698.7 293.4 699.3 292.7 700.2 293.8 701.1 296 701.6 298.8 701.9 299.4 702.1 300.8 702.2 300.4 702.3 303.7 702.3 305.4 702.4 303.9 702.5 308.4 702.6 305.4 702.8 304.3 703 305.5 703.2 302.3 703.3 302.1 703.5 299.6 703.7 295.5 703.9 295.7 704 295.9 704.2 296.5 704.5 300.2 704.6 294.1 704.7 293.2 705 295 705.2 298.1 705.5 289.7 705.6 288.8 705.7 285.8 705.9 288.9 706.1 291.6 706.3 290.6 706.5 290.2 706.8 287.8 707.2 291.5 707.5 293.4 707.7 298.1 707.9 296.7 708 300.4 708.2 298.3 708.5 299.3 708.8 298 709 301.6 709.1 304.6 709.2 307 709.5 305.6 709.7 302.9 710.1 300.9 710.5 303.7 710.9 302.6 711.4 299.5 712.1 299.4 713 297.1 713.7 296.8 714.5 298.7 715.3 298.1 716.1 296.3 716.8 293.8 717.3 291.6 717.9 290.4 718.4 291.3 719 292.6 719.9 291.5 721.1 290.1 722.2 292.1 722.9 292.6 724.3 292.5 725.4 293.5 727 293.1 728.3 291.5 729.2 291.7 729.9 290.1 730.9 290.6 731.4 295.6 731.8 298.2 732.2 300.3 732.9 300.3 733.6 297.9 734.8 297.5 735.8 298.9 737.4 299.3 738.6 298.4 739.8 296.2 741.1 294.2 742 293.3 743 296.5 744.2 295.1 744.8 298.8 745.7 297.6 746.5 293.9 747.5 290.5 748.1 292.1 748.9 292.3 749.5 291.8 750.4 289.1 750.7 293.1 751 291.4 751.7 288.9 752 286.7 752.4 284.2 752.5 279.6 752.7 280.7 752.8 275.6 752.8 277.2 753.1 277.2 753.4 282 753.8 279.5 754.1 277.1 754.5 277.8 754.7 278.3 754.9 283.2 755.2 283.1 755.7 280.7 756.1 277.1 756.4 278.1 756.7 275.3 757 277.3 757.2 279.3 757.2 282.8 757.3 286.2 757.4 287.2 757.6 287.1 757.8 290.4 758.2 285.8 758.6 284 759 283.7 759.2 287.2 759.2 285.3 759.3 285.9 759.3 285.6 759.4 289 759.4 294.3 759.5 290.5 759.5 294.6 759.6 295.6 759.6 296.3 759.7 293.7 759.8 293.3 759.9 296.7 760.1 295.6 760.3 296.4 760.4 300.4 760.5 301.4 760.7 302.1 760.8 303.7 761 302.8 761.3 300.3 761.6 301.6 761.7 306.9 761.8 302.9 761.9 304.6 762 307.7 762.1 309.1 762.2 311 762.3 311.3 762.3 308.3 762.5 305.9 762.8 308.7 762.9 312 763 316.8 763.1 317.1 763.1 318.2 763.2 318.6 763.3 317.1 763.5 316.7 763.6 322.5 763.6 320.8 763.7 319.8 763.9 316.8 764 319.8 764.2 319.2 764.4 324.8 764.4 327 764.5 325.8 764.7 324.2 764.8 320.3 764.9 317.8 765 316.5 765.2 315.5 765.4 314.2 765.5 315 765.8 312.7 766 311.7 766.3 312.2 766.5 316.4 766.7 318 766.9 315.3 767.2 315 767.3 310.2 767.6 308 767.9 308 768.1 305.6 768.4 305.8 768.6 304.3 768.8 304.6 769.1 307.1 769.4 302.3 769.6 299 769.8 297.8 770 299.1 770.3 298.3 770.6 297.3 770.8 301 771.2 298.1 771.7 301.5 772.2 302.6 772.6 304.7 773 303.8 773.4 298.9 773.7 299.6 774.4 302.8 775 301.6 775.7 301.3 776.2 299.3 776.7 297.5 777 295.8 777.4 293.5 777.7 293.4 778 290.1 778.3 292.7 778.7 295.9 779.2 297.2 779.7 299.4 780 295.9 780.7 297.1 781.4 294.8 782.2 294.1 782.7 294 783.4 294.2 783.9 293.5 784.4 293.5 784.6 292.8 784.8 294.1 785 294.8 785.1 288.8 785.2 284.7 785.2 279.5 785.2 280.2 785.3 281.2 785.4 281.2 785.5 284.3 785.6 286.4 785.8 285.2 785.8 281.7 785.9 279.4 786.1 282.7 786.3 285.7 786.4 289 786.5 290.1 786.5 286.3 786.6 287.1 786.8 284.5 787 285.6 787.2 286.7 787.3 285.6 787.6 287 787.7 282.5 788 280.3 788.2 283.9 788.3 287.3 788.5 290.5 788.9 286.7 789.2 285.1 789.5 284 789.7 278.4 789.9 279.6 790.2 280.2 790.4 283.2 790.9 285.4 791.4 285 792 286.3 792.4 289 793.1 285.6 793.3 281.8 793.7 281.9 794.2 282.8 794.7 280.1 795.2 279.6 795.5 275.9 796 280 796.6 280.2 797.1 277.8 797.5 276.7 797.8 277.3 798.3 276.4 798.8 280.3 799.3 279.7 799.8 280 800.5 281.3 800.9 280.1 801.1 281.5 801.5 281.8 802.4 280.8 803.2 282.6 804 285.3 804.7 285.4 805.4 284.2 806.1 284.2 806.6 286 807.2 283.5 807.6 286.4 808.4 284.5 808.9 282.8 809.2 284.6 809.6 286.6 810.2 287.9 810.9 289.6 811.6 289 812.2 285.9 812.3 280.3 812.6 280.4 812.7 286.4 812.9 286 813.1 284.8 813.4 284.1 813.6 282.8 813.8 283.9 814.1 278.4 814.4 276.8 814.5 275.9 814.6 275.1 814.8 276.3 814.9 278.2 815.1 275.2 815.5 274.8 815.8 277.2 815.9 280.8 816 278.4 816.2 283 816.4 286.2 816.6 284.7 816.8 284.3 817.1 284.6 817.4 284.4 817.7 281.4 817.8 281.5 818.3 280.7 818.7 280.5 819.2 278.1 819.4 275.2 819.6 276.4 819.9 275 820.2 276.2 820.5 275.5 820.9 276.9 821.3 274.7 821.8 275.1 822.4 274.3 822.9 274.5 823.2 274.4 823.6 276.9 824.1 278.3 824.6 275.4 824.9 278.3 825.3 279.2 825.9 278.3 826.5 278.2 827 278.2 827.6 280 827.9 278.8 828.2 281.6 828.7 282.9 829.3 283.5 829.9 282.8 830.4 280.8 830.9 278.9 831.5 277.3 832.1 279.6 832.9 280.6 833.4 282.5 834.1 283.2 834.6 279 835.1 278.3 835.4 277.7 836 280.3 836.8 283 837.3 278.8 837.5 278 837.8 278.2 838.2 280.1 838.6 278.4 839 279 839.5 278.4 839.9 282.3 840 288.3 840.1 289.2 840.3 285.3 840.4 286.5 840.5 287.1 840.6 287.7 840.9 286.3 841.1 292 841.1 291.6 841.3 289.5 841.5 287.5 841.8 288.1 842.2 288.8 842.5 285.4 842.7 286.2 843.1 285.8 843.4 285.9 843.8 287.5 844.1 281.8 844.3 279.8 844.4 282.2 844.7 280.5 845.2 285.2 845.4 282.6 845.5 282.9 845.8 282.5 846 281.9 846.1 282.8 846.3 280.8 846.6 281.5 846.9 280.1 847.3 282.5 847.7 284 847.8 287.3 847.9 283.5 848.3 285.3 848.8 283 849.4 283.1 850.1 281.3 850.6 281.3 851.2 282.7 851.6 283.7 852.1 287.5 852.6 285.3 852.9 287.7 853.2 288.7 853.5 290.4 853.9 289 854.1 295.5 854.1 292.6 854.3 294.2 854.4 297.3 854.6 295.5 854.8 291.5 855.2 296.8 855.6 298.3 856 300.6 856.3 299.4 856.7 297.9 857.3 297.8 858 298.5 858.7 295.2 859.6 295.4 860.4 297.7 860.8 298.7 861.4 299.5 862.3 297.7 862.9 300.2 863 301 863.5 304.5 864 303.4 864.5 304.5 865.3 303.8 865.9 306.3 866.7 303.8 867.6 302.9 867.9 306.9 868.2 308.7 868.3 311.6 868.4 314.6 868.4 317.6 868.5 319.7 868.5 320.2 868.6 322.9 868.6 325.5 868.7 327.7 868.7 326.8 868.7 328.3 868.7 329.7 868.8 331.1 868.8 328.1 868.9 326.8 868.9 325 869 325.2 869.1 325.3 869.2 329.5 869.3 331.8 869.4 333 869.5 329.4 869.6 326.5 869.7 328.3 869.8 330.1 869.9 323.3 870 324.5 870.2 326 870.3 326.9 870.4 322.8 870.6 320.9 870.7 317.2 870.8 317.3 871.1 315.8 871.1 313.3 871.3 318.5 871.5 321.3 871.7 322.8 871.9 324 872.2 323.5 872.2 328.6 872.4 329 872.5 332.6 872.5 330.9 872.6 330.1 872.9 331.9 872.9 335.5 873 335.8 873.2 335.4 873.4 333.6 873.6 333.1 873.7 328.6 873.8 329.3 874.1 330 874.5 330.2 874.8 325.9 875.1 324.5 875.4 321.8 875.7 320.8 875.9 321.4 876.3 319.8 877 320.1 877.7 321.3 878.5 318 879.1 317.9 879.5 317.9 880 319.2 880.4 318.9 880.7 319.3 880.7 323.3 880.7 329.8 880.7 335.2 880.7 343 880.7 356 880.8 340.4 880.8 343.1 880.8 340 880.8 337.9 880.8 338.8 880.8 337.6 880.8 338 880.8 338.4 880.9 340.2 880.9 335.8 881 336.4 881 335.1 881 332.7 881.1 334.1 881.2 334 881.2 335.6 881.3 337.1 881.3 339.2 881.4 338.6 881.5 342.7 881.6 344.5 881.6 345.5 881.7 343.8 881.8 338.9 882 340.1 882.2 342.8 882.5 338.5 882.8 340.1 883.1 342.3 883.3 341.6 883.6 338.1 883.8 334.2 884.1 334.4 884.5 336.9 884.7 337 885.1 335.2 885.7 336.3 886 343 886.3 346.5 886.5 348.8 886.7 347.7 886.9 345.6 887 339.4 887.2 337.7 887.5 339.8 887.9 339.1 888.1 338.4 888.5 339.1 888.7 343.2 889.1 342.5 889.4 341 889.7 343.5 890 340.9 890.3 341 890.6 340.5 890.8 339.5 891.2 339.1 891.7 337.8 892.3 337 892.5 329.3 892.6 331.5 893 335 893.5 336.3 893.8 337.8 894.1 337.3 894.3 341.6 894.4 335.5 894.7 338.9 894.9 338 895.2 335.6 895.5 337.6 895.6 334.7 895.7 331.1 895.8 333.3 895.9 337 896.1 334.5 896.2 329.7 896.3 329.3 896.4 331.8 896.5 335.2 896.6 339.2 896.7 331.3 896.8 331.1 897 331.7 897.2 332.8 897.5 332.6 897.7 335.2 897.9 331 898 327.5 898.2 329.7 898.5 333.5 898.7 331.5 898.8 324.6 899 329 899.2 327.8 899.5 328.1 899.7 331.3 899.8 336.8 899.9 342 899.9 344.7 900 338.4 900.1 336.9 900.2 339 900.3 338.6 900.3 331 900.4 327.6 900.4 326.7 900.5 326.4 900.6 324 900.7 322.5 900.8 325.2 901 322.8 901.1 321.6 901.3 321.5 901.5 323.2 901.7 322 901.9 324.7 902.1 326.5 902.2 331 902.3 328.5 902.4 328.1 902.5 332.7 902.6 331.1 902.7 329 902.8 330.6 903 330.4 903.2 329.6 903.4 326.9 903.7 330.2 903.9 327 904.3 327.2 904.6 329.7 905.1 327.1 905.6 327.7 906.2 326.8 906.8 326.3 907.4 328.9 907.9 328 908.5 329 909.1 332.2 909.8 330 910.6 331.6 911.4 331.1 912.1 334.4 912.6 334.7 913.3 335.6 913.8 340 914.2 339 915 339.7 915.2 344.3 915.4 343.2 915.8 346.4 915.9 349.4 916.1 349.6 916.3 354.4 916.4 353.9 916.4 355 916.5 355.4 916.6 354.6 916.7 352.5 916.9 351.3 917.3 353 917.5 348.4 917.9 350.7 918.3 350.2 918.8 348.3 919.4 352.3 919.9 352.3 920.4 353.9 920.7 353.1 921.1 354 921.4 355.7 921.8 357.1 922 360.1 922.1 360.2 922.2 360.1 922.5 359.3 922.7 362 922.8 365.9 922.8 364.1 922.9 367.6 922.9 370.2 923 373.2 923 371.7 923 378.4 923 383.1 923 381.3 923 384.4 923 380.4 923 381.7 923.1 385.3 923.1 384.4 923.1 382.8 923.1 386.6 923.1 385.9 923.1 382.2 923.2 383.2 923.2 384.9 923.2 386 923.2 388.1 923.3 384.9 923.3 386.5 923.3 388.1 923.3 388.5 923.4 388.9 923.4 387.6 923.4 386.4 923.5 386.3 923.6 380.8 923.7 379.9 923.7 380.3 923.8 376.7 923.9 377.6 924 377.4 924.1 380.6 924.2 381.6 924.3 380.2 924.4 382.3 924.6 381.6 924.8 383.3 924.9 383 925 384.1 925.1 382 925.1 386.3 925.1 377.6 925.2 378 925.2 374.8 925.3 374.8 925.4 378.6 925.5 377.6 925.6 377.8 925.7 384.9 925.7 381.7 925.8 383.1 925.9 385.8 925.9 386.1 926 384.8 926.1 385.9 926.1 390.6 926.1 390.3 926.1 394.9 926.2 397.9 926.2 402.4 926.2 401.9 926.2 407.2 926.2 415.5 926.2 407.4 926.2 421 926.2 413.8 926.2 407.7 926.2 406.1 926.2 404.4 926.2 401.7 926.2 404.1 926.3 403.8 926.3 403.8 926.3 402.7 926.3 400.5 926.3 406.1 926.4 405.1 926.4 404.9 926.4 404.1 926.5 404.9 926.5 404.3 926.5 402.2 926.6 404.6 926.6 409.1 926.7 403.4 926.7 407.3 926.8 406 926.9 409.1 927 404.9 927.1 405.3 927.2 404.9 927.2 404.1 927.3 403 927.4 406.6 927.5 409.5 927.5 407.3 927.6 407.4 927.7 405.3 927.8 409.7 927.8 411.3 927.8 412.1 927.9 416 927.9 415.4 927.9 421.3 927.9 430.6 927.9 437.9 927.9 429.9 927.9 428.5 928 421.8 928 414.2 928 417 928 414.8 928 410.7 928 408.2 928 407 928 408.8 928 410.5 928 408.5 928.1 407.7 928.1 409.8 928.1 407.8 928.1 406.7 928.1 406.6 928.2 410.1 928.2 409.5 928.2 409.8 928.3 410.7 928.3 410.7 928.4 410.8 928.4 406 928.5 407.2 928.5 404.9 928.6 403.1 928.7 403 928.7 404.8 928.8 402.4 928.9 406.4 929 408.1 929.1 407.6 929.2 406.4 929.3 406.3 929.4 404.3 929.5 404.7 929.7 408.8 929.8 402.8 929.9 408.2 930.1 408.6 930.1 410.2 930.3 405.8 930.4 406.9 930.5 404.7 930.6 403.6 930.7 402 930.9 402.6 931 405.2 931.1 399.2 931.2 399.1 931.4 397.8 931.5 396.7 931.6 397.1 931.8 398.8 932 400.7 932.3 399.7 932.7 401.7 933.1 397.6 933.3 394.7 933.3 389.2 933.4 391.1 933.6 389.9 933.8 392.9 933.9 391.3 934 390.2" opacity=".6"/><text x="942" y="472" fill="#d97706" font-size="11" text-anchor="start">52.28</text><text x="942" y="396" fill="#d97706" font-size="11" text-anchor="start">59.27</text><text x="942" y="320" fill="#d97706" font-size="11" text-anchor="start">66.26</text><text x="942" y="244" fill="#d97706" font-size="11" text-anchor="start">73.26</text><text x="942" y="168" fill="#d97706" font-size="11" text-anchor="start">80.25</text><text x="942" y="92" fill="#d97706" font-size="11" text-anchor="start">87.24</text><text x="942" y="80" fill="#d97706" font-size="11" font-weight="600" text-anchor="start">price</text><polygon fill="#16a34a" fill-opacity=".08" points="95.9 468 95.9 388.6 95.9 381.3 116.9 373.3 122.7 376.3 122.9 380.3 124.6 385.6 175.2 365 210.1 368.2 216.7 372.6 217.2 378.3 224.9 386 235.2 388.6 240.5 392.1 257.6 396.6 279.4 378.8 343.4 370.6 372.3 361.6 373.1 365 374.4 369.4 380.7 352.1 380.8 355.7 381.9 360.6 384.3 367.1 391.6 375.7 396.6 367.3 399.4 370.4 401.8 374.7 418 380.3 418.9 387.8 421.3 390.4 422.9 393.7 434.9 380.6 434.9 383.4 435 387.1 437.3 391.9 437.4 398.5 454.7 392.1 455.2 394.5 455.6 397.7 456.1 401.9 458.4 385.4 459.4 388 459.8 391.5 466.8 377.9 468.6 369.7 469.9 372.8 475.8 360.7 481.6 350.9 482.6 354.5 482.7 340.2 482.7 344.2 482.7 328.5 482.7 315.7 482.7 320.5 482.8 326.9 484.2 302 485.2 307.3 513.2 314.2 517.1 287.1 523.3 292.8 526.9 300.4 534.4 310.6 536.6 324.1 557.1 328.6 562.5 334.6 574.4 311.1 575 296.7 575 302.1 575.1 281.1 575.1 287 575.1 294.8 575.1 305.3 575.1 264.6 575.1 271 575.1 279.5 575.1 290.9 575.1 306.1 575.1 311.2 575.1 318 575.1 291.6 575.1 297.1 584.5 275.5 585 281.6 591.7 289.7 601.6 300.5 602.1 314.8 612.1 300.8 620.8 306 621.5 313 621.7 322.4 627.7 286 628.3 291.7 628.6 299.4 630.9 309.6 636.2 269.9 640.2 276.1 647.9 284.5 649.1 295.6 649.8 252.4 650.1 259.2 651.2 268.2 652.7 233 674.7 240.4 678.9 250.3 679.8 263.4 681.2 281 681.6 286.9 685.9 294.7 701.6 305.2 704.6 319.2 708 323.9 716.8 330.1 731.8 338.5 741.1 349.6 744.7 353.3 746.7 358.3 752.8 338.9 753.2 343 756.6 348.4 757.1 355.6 760.4 327.5 763 314.6 763.6 319.4 763.8 325.9 764.3 334.5 764.9 345.9 766 349.8 766.5 354.9 767.2 361.7 777.4 335.2 795.4 322.9 801.5 327.5 814.4 333.6 816.2 341.7 819.3 352.6 854.1 342 868.4 330.4 868.7 317.7 871.1 303.9 871.3 309.1 872.9 289 876.3 272.5 880.7 278.7 880.7 254.7 880.7 261.4 880.8 270.4 886.4 282.3 887 298.3 898.8 282.7 899.7 288.5 900.5 296.3 902.2 306.7 902.3 320.5 902.5 325.2 903.3 331.4 908.8 339.6 915.9 307.5 916.3 312.5 917.4 319.3 920.4 328.3 922.9 293.3 923 298.8 926.1 277.4 926.2 259.8 926.2 240.7 926.2 247.9 926.2 220 927.9 197.2 927.9 172.3 927.9 181.7 927.9 194.1 928 145.8 928.4 116.1 929 127.2 929.3 142 929.7 161.7 929.8 188 931.3 196.8 931.3 468"/><polyline fill="none" stroke="#16a34a" stroke-linejoin="round" stroke-width="2" points="95.9 388.6 95.9 381.3 116.9 373.3 122.7 376.3 122.9 380.3 124.6 385.6 175.2 365 210.1 368.2 216.7 372.6 217.2 378.3 224.9 386 235.2 388.6 240.5 392.1 257.6 396.6 279.4 378.8 343.4 370.6 372.3 361.6 373.1 365 374.4 369.4 380.7 352.1 380.8 355.7 381.9 360.6 384.3 367.1 391.6 375.7 396.6 367.3 399.4 370.4 401.8 374.7 418 380.3 418.9 387.8 421.3 390.4 422.9 393.7 434.9 380.6 434.9 383.4 435 387.1 437.3 391.9 437.4 398.5 454.7 392.1 455.2 394.5 455.6 397.7 456.1 401.9 458.4 385.4 459.4 388 459.8 391.5 466.8 377.9 468.6 369.7 469.9 372.8 475.8 360.7 481.6 350.9 482.6 354.5 482.7 340.2 482.7 344.2 482.7 328.5 482.7 315.7 482.7 320.5 482.8 326.9 484.2 302 485.2 307.3 513.2 314.2 517.1 287.1 523.3 292.8 526.9 300.4 534.4 310.6 536.6 324.1 557.1 328.6 562.5 334.6 574.4 311.1 575 296.7 575 302.1 575.1 281.1 575.1 287 575.1 294.8 575.1 305.3 575.1 264.6 575.1 271 575.1 279.5 575.1 290.9 575.1 306.1 575.1 311.2 575.1 318 575.1 291.6 575.1 297.1 584.5 275.5 585 281.6 591.7 289.7 601.6 300.5 602.1 314.8 612.1 300.8 620.8 306 621.5 313 621.7 322.4 627.7 286 628.3 291.7 628.6 299.4 630.9 309.6 636.2 269.9 640.2 276.1 647.9 284.5 649.1 295.6 649.8 252.4 650.1 259.2 651.2 268.2 652.7 233 674.7 240.4 678.9 250.3 679.8 263.4 681.2 281 681.6 286.9 685.9 294.7 701.6 305.2 704.6 319.2 708 323.9 716.8 330.1 731.8 338.5 741.1 349.6 744.7 353.3 746.7 358.3 752.8 338.9 753.2 343 756.6 348.4 757.1 355.6 760.4 327.5 763 314.6 763.6 319.4 763.8 325.9 764.3 334.5 764.9 345.9 766 349.8 766.5 354.9 767.2 361.7 777.4 335.2 795.4 322.9 801.5 327.5 814.4 333.6 816.2 341.7 819.3 352.6 854.1 342 868.4 330.4 868.7 317.7 871.1 303.9 871.3 309.1 872.9 289 876.3 272.5 880.7 278.7 880.7 254.7 880.7 261.4 880.8 270.4 886.4 282.3 887 298.3 898.8 282.7 899.7 288.5 900.5 296.3 902.2 306.7 902.3 320.5 902.5 325.2 903.3 331.4 908.8 339.6 915.9 307.5 916.3 312.5 917.4 319.3 920.4 328.3 922.9 293.3 923 298.8 926.1 277.4 926.2 259.8 926.2 240.7 926.2 247.9 926.2 220 927.9 197.2 927.9 172.3 927.9 181.7 927.9 194.1 928 145.8 928.4 116.1 929 127.2 929.3 142 929.7 161.7 929.8 188 931.3 196.8"/><line x1="88" x2="110" y1="102" y2="102" stroke="#16a34a" stroke-width="2.5"/><text x="116" y="106" fill="#374151" font-size="11.5">equity</text><line x1="88" x2="110" y1="118" y2="118" stroke="#d97706" stroke-width="2.5" opacity=".8"/><text x="116" y="122" fill="#374151" font-size="11.5">price</text><text x="78" y="502" fill="#6b7280" font-size="12" text-anchor="start">2026-01-01</text><text x="934" y="502" fill="#6b7280" font-size="12" text-anchor="end">2026-01-31</text></svg>