<svg xmlns="http://www.w3.org/2000/svg" width="1000" height="520" font-family="ui-sans-serif, system-ui, sans-serif" viewBox="0 0 1000 520"><rect width="1000" height="520" fill="#fff"/><text x="78" y="28" fill="#111827" font-size="18" font-weight="700">Zone Recovery — BNBUSDT best setting (equity / PnL)</text><text x="78" y="48" fill="#6b7280" font-size="12.5">lev 5 · ratio 4 · gap 20% · maxSteps 4 · maxDD 20% · random · vip 9 · 1 series, 100.0% win · vol $34560000 ($8036866/day) · fees $5288</text><text x="78" y="68" fill="#1d4ed8" font-size="12.5" font-weight="600">USDT · BNB −10% · taker 0.0153%</text><text x="934" y="28" fill="#16a34a" font-size="18" font-weight="700" text-anchor="end">+2554712 USDT (+2.55%)</text><line x1="78" x2="934" y1="468" y2="468" stroke="#e5e7eb" stroke-width="1"/><text x="68" y="472" fill="#6b7280" font-size="12" text-anchor="end">0.00</text><line x1="78" x2="934" y1="392" y2="392" stroke="#e5e7eb" stroke-width="1"/><text x="68" y="396" fill="#6b7280" font-size="12" text-anchor="end">22151818</text><line x1="78" x2="934" y1="316" y2="316" stroke="#e5e7eb" stroke-width="1"/><text x="68" y="320" fill="#6b7280" font-size="12" text-anchor="end">44303636</text><line x1="78" x2="934" y1="240" y2="240" stroke="#e5e7eb" stroke-width="1"/><text x="68" y="244" fill="#6b7280" font-size="12" text-anchor="end">66455454</text><line x1="78" x2="934" y1="164" y2="164" stroke="#e5e7eb" stroke-width="1"/><text x="68" y="168" fill="#6b7280" font-size="12" text-anchor="end">88607271</text><line x1="78" x2="934" y1="88" y2="88" stroke="#e5e7eb" stroke-width="1"/><text x="68" y="92" fill="#6b7280" font-size="12" text-anchor="end">110759089</text><line x1="78" x2="934" y1="124.9" y2="124.9" stroke="#9ca3af" stroke-dasharray="6 4" stroke-width="1.5"/><text x="934" y="118.9" fill="#6b7280" font-size="11" text-anchor="end">start 100000000</text><polyline fill="none" stroke="#d97706" stroke-linejoin="round" stroke-width="1.2" points="78 432.6 78.4 429.5 78.7 427 79 428.2 79.5 429 80.1 427.2 80.5 428.2 81 427 81.6 427.5 82.1 429 82.6 428.7 83 427.1 83.6 430.1 84.2 430.8 84.7 430.5 85.3 429.5 85.7 425.1 86.2 425.5 86.8 426.8 87.3 425.1 87.7 423.4 88 422.7 88.5 421.1 88.9 421.8 89.3 423.2 89.7 425.3 90.3 422.8 90.7 424.7 91.5 423.4 92.1 420.3 92.7 423 93.3 423.2 93.9 421.7 94.6 422.9 95.2 422.5 96 422.7 96.7 423.2 97.4 422.3 98.2 423.7 98.9 426.7 99.8 425.4 100.8 429.3 101.5 430.8 102.4 430.6 103.2 432.8 103.6 434.8 104 433.2 104.7 432.7 105.2 435.1 105.7 436.3 106 440.1 106.1 436.1 106.5 435.6 107.1 437.2 107.8 435.7 108.4 438.9 109 439.6 109.5 441.3 110 438.5 110.6 436.6 111.3 437.1 111.6 432.1 112.1 432.6 112.7 435.3 113.5 433.5 114.2 431.8 114.9 429.5 115.4 426.6 115.7 424.5 116.2 428.1 116.9 427.3 117.5 427.4 118.1 426.7 118.7 429.8 119.4 430.5 119.9 430.4 120.5 427.7 121 426.4 121.5 425.8 122.1 424.9 123 428.8 123.8 429.3 124.4 428.2 125.1 427.4 125.8 429 126.5 428.1 127.2 427.8 127.9 428.8 128.4 429 129 429.9 129.6 431.2 130.2 430.9 131 432.7 131.7 430.7 132.6 430.5 133.5 428.8 134.2 431.3 134.9 431.6 135.5 433.1 136.2 430.4 136.8 428.4 137.5 429.8 138.3 427.7 138.9 429 139.8 428.4 140.5 426 141.2 427.6 142 427.4 142.7 428 143.3 427.6 144.2 429.3 145 429.6 145.7 428.4 146.4 428.3 147.3 426.8 147.9 430.5 148.3 425.1 148.6 420 148.7 419.3 148.9 416.9 149.1 416.5 149.3 417.6 149.4 414.5 149.6 416.1 149.8 413.4 150 411.6 150.2 409.1 150.3 411.3 150.4 409.8 150.5 405.8 150.6 405.4 150.7 404.4 150.8 407.5 151 408.4 151.1 404.6 151.2 402.6 151.3 399.3 151.3 392.1 151.4 397.9 151.4 398.4 151.5 399.4 151.6 400.8 151.7 400.8 151.8 403.4 152 403.1 152.2 401.5 152.4 399 152.6 399.5 152.7 398.8 153 397.2 153.2 399.1 153.3 400.3 153.6 399.4 153.7 396.4 153.9 393.4 154.1 392.7 154.3 394.4 154.4 393.7 154.6 396.8 154.8 399.2 155 396.2 155.3 396.8 155.6 399.4 155.9 398.5 156.2 397.4 156.6 398.2 156.9 396.5 157.2 394.6 157.5 394.7 157.9 393.3 158.3 392.8 158.7 392 159.1 391.4 159.4 390.1 159.7 389.5 160 388.6 160.2 386.9 160.4 385.1 160.6 389.9 160.9 390.4 161.1 391.4 161.4 390.2 161.8 391.5 161.9 394.8 162.2 397.7 162.4 398.8 162.8 399.2 163 402.4 163.3 399.6 163.7 400.2 164.2 399.4 164.7 400.1 165.2 400.6 165.6 400.1 166.2 400.2 166.9 400.5 167.5 399.3 167.9 397.7 168.4 398.5 168.9 399.8 169.6 397.6 170 398.9 170.6 399.5 171.2 399.4 171.7 398.4 172.1 395.2 172.8 397.6 173.4 398.7 173.9 401.2 174.5 402.8 174.7 406 175.1 405.5 175.5 406.6 175.9 407.4 176.3 411.3 176.6 409.8 177.1 407.6 177.5 406.5 177.8 408.1 178.2 408.3 178.7 409.7 179.1 409.8 179.5 409.6 179.8 413.4 179.9 412.1 180.3 411.8 180.6 409.7 180.9 408.9 181.3 407.1 181.6 404.5 182 406.5 182.5 406 183.1 405.1 183.5 410.2 184.1 412.1 184.7 411.8 185 414.3 185.5 415.6 185.8 415.8 186.4 412.8 187 413.7 187.6 412.2 187.9 407.5 188.3 407.6 188.7 406.2 189.1 406.5 189.7 407.2 190.1 406.6 190.4 406.7 190.7 408.3 191 407.5 191.2 406.5 191.5 407.2 191.9 407.4 192.2 407.2 192.6 409.8 192.8 411.6 193.2 410.7 193.7 406.3 194.1 407.4 194.5 404.9 194.7 403.6 194.9 401.7 195.1 401.4 195.3 405 195.7 402.3 196.1 403.7 196.6 403.2 196.8 398.5 197.1 400.4 197.4 401.4 197.9 401.3 198.5 402.1 198.9 402.1 199.2 402.3 199.5 399.9 199.9 402.8 200.2 403.9 200.5 407.4 200.8 410 201.1 411.1 201.5 410.3 202 408.6 202.6 409.9 203 411 203.4 413.6 203.7 414.2 204 415.1 204.3 415 204.8 413.3 205.4 412.4 206 413.1 206.5 411.1 206.9 414.4 207.3 413.3 207.7 410.5 208.3 412.4 208.8 412.7 209.2 416.2 209.5 416.9 210 416.6 210.4 415.6 210.8 413.4 211.1 413.6 211.6 413.2 211.9 415.4 212.4 416.4 212.8 413.4 213.2 414.3 213.7 411.1 214 413.8 214.5 414.4 215 413.9 215.6 416 216 411.4 216.3 414.8 216.7 411 217.2 410.2 217.7 412.7 218.2 409.4 218.6 411.6 219 410.3 219.5 410.1 219.9 407.8 220.3 407.6 220.8 406.5 221.2 406 221.7 405.6 222.2 406.2 223 406.6 223.4 408.5 224.1 409.2 224.8 410.1 225.4 408.2 225.9 411.8 226.2 412.1 226.7 411.7 227.2 412.1 227.8 413.1 228.2 409.2 228.6 407.5 229.3 409 229.9 411.2 230.7 411.4 231.3 409.8 232 410 232.8 409.8 233.5 412.1 234.3 412.7 235 412.1 235.8 412.9 236.4 411.9 237.2 411.1 238 411.7 238.7 409.5 239.5 409.6 240 411.1 240.8 412.9 241.6 411.1 242.1 410.6 242.7 410.8 243.3 412.9 244 414.6 244.4 414.6 244.9 414 245.4 415.3 246 415.5 246.6 414.8 247.3 413.6 248 411.5 249.1 411.5 250 411.1 250.8 410.7 251.5 410.5 252.3 409.5 253 409.4 253.7 410.1 254.6 408.8 255.9 410.4 257.6 412.3 258.9 411.2 259.9 412.6 260.7 410.6 261.1 412.5 261.7 407.2 262.3 409 263 410.3 264 410.9 265.2 411.2 266.3 412.6 267.5 408.6 268.5 409.9 269.5 407.1 269.8 406.2 270.1 405.5 270.3 408.8 270.8 409.5 271.2 408.3 271.7 405.9 272.4 407.5 273 405.2 273.7 404.8 274.2 402.6 274.8 402.9 275.2 402.8 275.9 401.7 276.5 403.4 277 402 277.3 400.4 277.5 397.6 277.6 396.7 277.8 396.7 278.1 396 278.4 396 278.7 395.9 279 394.1 279.3 392.8 279.6 392.1 279.8 397.1 280 398.4 280.3 394.6 280.7 398.2 281.1 399.1 281.5 400 281.7 403 282.1 404.6 282.3 402.7 282.7 404.3 283.1 405.2 283.5 403.9 283.8 405.9 284.1 407.2 284.6 407.6 285.1 405.6 285.6 405.1 286 404.4 286.6 403.1 287.2 400.4 287.9 402.3 288.4 403.1 289 398.5 289.7 400.3 290.3 400 290.9 398 291.6 394.3 291.9 392.5 292.2 393.7 292.5 392.9 292.9 390.1 293.1 389.1 293.2 384.8 293.4 384.1 293.5 383.7 293.7 385.1 293.8 389.9 293.9 389.6 294.1 390.5 294.3 391.1 294.6 393.5 294.9 391.7 295.2 390.4 295.5 388.3 295.8 388.6 296.1 388.1 296.4 387.1 296.8 389.7 297.2 387.1 297.4 385.7 297.8 387.5 298.2 388.6 298.4 388.8 298.8 385.9 299.2 388.5 299.6 389 299.9 386.5 300.3 383 300.6 382.4 300.9 384.9 301.2 387.2 301.8 384 302.2 386.5 302.7 385.6 303.1 386.5 303.6 385.7 304.1 389.1 304.6 391.5 305 390.8 305.6 389.9 306.2 388.8 306.6 389.6 307.1 390.1 307.5 391.2 308 388.7 308.5 389.9 308.9 391 309.4 393.3 309.8 392.5 310.4 392.4 310.9 390 311.4 390.5 312.1 390 312.6 388.7 313.1 391.3 313.9 393.7 314.3 395.3 314.7 396.1 315.3 397.9 315.8 398.7 316.3 399 316.7 397.9 317.1 396.7 317.7 396.5 318.3 395.6 318.8 393.9 319.4 394.8 320.1 395.6 320.8 397 321.3 397.1 322 396.9 322.5 394.3 322.8 395.8 323.3 393.5 323.9 394.8 324.6 393.6 325 391 325.4 389.7 325.8 391.3 326.3 394.3 327.1 392.4 327.7 391.7 328.3 392.9 328.8 392.4 329.4 390.5 330.3 391 330.9 386.2 331.1 384.6 331.4 384.9 331.5 383.9 331.6 381.3 331.8 380.9 332.1 379.7 332.3 379.9 332.5 378.3 332.7 377.3 332.8 381.3 333.2 382.1 333.7 382.1 334.3 382 334.7 384.8 335.2 384.5 335.6 382.2 336 382.9 336.5 382.5 337 384 337.5 380.1 337.9 379.5 338.3 379.1 338.8 381 339.5 382.2 340.1 382.4 340.6 382.8 341.3 385.2 341.8 383.9 342.3 385.7 342.9 386.5 343.6 383.1 344 382.1 344.5 381.8 345 382.7 345.7 385.1 346.5 384.7 347.1 383.1 347.7 384.8 348.3 385.7 348.8 386.6 349.5 387.8 350.1 386.2 350.9 389.2 351.6 388.3 352 387.5 352.6 385.8 353.4 385 354.4 385.5 355.1 382.7 355.8 381.7 356.4 381.3 356.8 379.6 357.3 377.5 357.7 379 358.1 380.7 358.7 379.9 359.2 380 360 377.1 360.4 377 360.8 378.5 361.5 379.3 362.2 379.8 363 380 363.4 379.2 364 381.3 364.4 379.1 364.9 376.4 365.1 373.4 365.3 371.7 365.4 370.9 365.6 371 365.8 372.4 366.1 369.2 366.4 369 366.7 369.9 367.1 371.2 367.5 368.5 367.9 372.8 368.3 371.2 368.6 368.5 368.8 366.5 369 366.4 369.4 367.7 369.8 367 370.2 367.9 370.4 366.7 370.8 370.3 371.3 368.6 371.8 367.2 372.4 369 372.8 366 373.2 364.9 373.5 363.2 373.8 364.7 374.2 362.2 374.5 362.8 374.9 362 375.3 365.2 375.7 364.7 376.1 363 376.4 364.7 376.7 364.8 377 362.8 377.4 364.3 377.7 361.1 377.9 359.8 378.1 359.4 378.4 359 378.6 356.7 378.8 355.6 379.1 354.6 379.3 353.4 379.5 353.1 379.9 353.9 380.1 355.7 380.4 354.8 380.8 353.1 381.1 354.4 381.5 354.1 381.9 352.6 381.9 346.1 381.9 347.2 382 344.7 382 343.4 382.1 342.4 382.2 343.5 382.3 341.2 382.4 338.5 382.5 339.3 382.6 339.6 382.8 341.8 382.9 342.6 383.2 340.3 383.4 342.3 383.6 344.5 383.8 343.1 384.1 342.8 384.5 343.4 384.8 343.3 385.1 341.4 385.3 344 385.6 345.8 385.8 348.3 386 348.1 386.3 347.6 386.6 348.5 386.9 349.3 387 350.8 387.2 351.7 387.4 354 387.6 351.5 387.8 346.6 388.1 348 388.4 350.5 388.7 348.6 389.1 348.2 389.3 348.7 389.6 347.1 389.8 350.3 390.1 349.5 390.3 352.1 390.6 352.6 390.8 352.7 391.1 351.6 391.4 350.3 391.6 347.5 391.8 348.6 392.1 346.6 392.3 349 392.7 349.3 392.8 350.5 393.2 352.9 393.4 352.5 393.7 349.7 394 350.3 394.3 354.1 394.6 356.4 394.8 358.2 394.9 359.7 395.1 360 395.3 359.2 395.6 357.6 396 359 396.3 361.2 396.6 357.2 396.9 357 397.2 357.6 397.6 355.8 397.9 358.3 398.2 357.6 398.5 359.1 398.9 359.8 399.1 362.6 399.3 364.9 399.5 364 399.8 364.8 400 363 400.2 367.5 400.2 369.1 400.4 364.8 400.6 364.7 400.9 367.6 401.1 370.5 401.3 368.8 401.6 369 401.7 370.1 401.9 370.1 402 370.5 402.1 373.9 402.2 374.5 402.4 371.3 402.5 369.6 402.8 368.9 402.9 364.3 403.1 365.3 403.4 363.9 403.7 363.7 404 364.1 404.3 365.2 404.6 364.7 404.8 360.6 405 358.3 405.2 357.5 405.4 357.2 405.6 356 405.8 359.1 406 361.1 406.3 361 406.5 361 406.8 363 407.1 358.9 407.4 357.7 407.8 357.5 408.1 355 408.6 356.2 408.9 358 409.1 353.6 409.3 351.3 409.6 349.8 409.9 350.6 410.2 347.9 410.4 346.8 410.6 350 410.8 346 411.1 348 411.3 344.5 411.4 341.1 411.6 342 411.8 343.8 412 342.9 412.3 340.9 412.5 342.4 412.7 345.4 412.9 343.5 413.1 343.9 413.5 342.9 413.8 342.8 414.1 339.2 414.3 343 414.5 342.2 414.8 345.4 415 348.2 415.3 349.3 415.5 350 415.8 349.5 416.2 348.1 416.5 346.7 416.8 343.9 417.1 342.3 417.4 340.5 417.7 342.3 418.1 340.7 418.4 342.8 418.6 342.6 418.9 344.6 419.2 343.5 419.5 343.4 419.8 342.9 420.1 341 420.5 342.8 421 345.1 421.4 344 421.7 341.9 422.1 343.3 422.5 344.6 423 342.6 423.5 344.3 423.9 343.2 424.3 344 424.9 344 425.2 344.9 425.6 345.5 426.1 344.8 426.6 343.7 426.9 340.4 427.1 337.1 427.4 338.5 427.9 339.5 428.3 336.9 428.4 334.2 428.6 333.6 428.9 336 429.3 336 429.7 334.7 430 332 430.4 330.8 430.6 331.1 431 330.8 431.3 330.6 431.8 329.9 432.1 329.1 432.3 331.7 432.7 331.1 433.2 330.4 433.7 331.4 434 330.3 434.4 329.2 434.8 329.6 435.3 330.4 435.7 328.9 436 328.2 436.2 325.3 436.4 322.4 436.6 322.5 436.8 323.7 437.1 325.3 437.4 324 437.7 326 438.1 326.9 438.5 323.6 438.8 323.5 439 327.2 439.4 324.9 439.8 325.7 440.3 323.6 440.6 320.3 440.9 322 441.2 318.1 441.4 319 441.5 315.3 441.7 319.1 441.9 319.6 442.2 319.3 442.5 319.2 443 318.5 443.2 319.2 443.4 315.9 443.7 318.3 444.1 315 444.5 315.1 444.7 314.4 445.1 316.6 445.4 317.8 445.8 314.2 446.1 315.4 446.4 314.1 446.6 310.9 446.9 312.9 447.1 309.2 447.2 308.9 447.4 309.4 447.7 308.6 447.8 306.4 447.9 304.4 448.1 303.6 448.2 301.9 448.3 303.7 448.5 307.9 448.6 304.3 448.8 301.7 448.8 299.4 449 299.4 449.2 300.2 449.5 301.9 449.7 304.2 450 304.9 450.4 307 450.6 307.5 450.9 307.6 451.2 305.2 451.5 301.5 451.7 299.7 451.9 303.6 452.4 299.5 452.7 298.3 453 297.7 453.2 299 453.4 296.2 453.5 295.1 453.6 298.5 453.9 299.2 454.3 297.7 454.7 299.8 455 300.8 455.4 303.5 455.7 304.7 456.1 305.8 456.5 302.9 457 302 457.5 305.4 458 301.8 458.5 302.9 459 307.1 459.2 308.3 459.5 311.6 459.7 308.2 459.9 308.1 460.2 304.6 460.5 305.9 460.8 306.2 461.3 307.6 461.9 307.7 462.2 306.2 462.6 303.6 462.7 302.6 463 301.5 463.3 303.7 463.7 302.8 463.9 299 464.1 296 464.3 299.4 464.5 297.9 464.9 295.4 465.3 298.7 465.6 298.9 465.9 295.4 466.2 293.5 466.4 290.2 466.5 292.1 466.7 292.4 467.1 293.1 467.3 294.1 467.4 288.2 467.5 285 467.7 286.4 467.9 287 468 284.2 468.1 284.3 468.2 280.6 468.2 278.3 468.3 277.2 468.4 277.3 468.5 279.1 468.6 277.9 468.8 281.4 468.9 280.4 469.2 279.8 469.3 283.7 469.4 284 469.6 281.7 469.8 283.4 470 287.9 470.2 289 470.5 287.9 470.7 286.7 470.9 288.6 471.2 289.4 471.4 291.4 471.8 289.6 472.1 289.7 472.4 289.1 472.7 291.7 472.9 294.6 473.1 295.7 473.6 296.5 473.8 294.3 474.2 293.4 474.6 292.8 475 292.8 475.2 292.5 475.5 288.6 475.8 290.4 476.2 286.7 476.3 284.9 476.4 290.6 476.7 289.7 477 291.3 477.3 293.8 477.4 297.1 477.7 298.9 477.9 300.9 478.2 297.9 478.4 295.8 478.7 296.9 479 298 479.4 298.2 479.9 296.7 480.3 294.7 480.8 296.7 481.1 295.3 481.5 298.5 482 298 482.6 299.1 483 295.2 483.3 296.4 483.8 298 484.3 298.6 484.6 293.1 484.9 291.5 485.2 291.1 485.4 295.5 485.7 296.2 486.1 293.9 486.4 292.3 486.7 289.8 487.1 290.4 487.3 286.3 487.5 285.7 487.6 285.8 487.8 289.8 488.1 286 488.4 284.2 488.6 282.9 488.8 282.6 489 279.7 489.2 282.8 489.6 283.6 489.9 283.5 490.2 282.3 490.5 285 490.8 286.6 491.2 287.9 491.5 288.5 491.9 291 492 293.4 492.3 294.8 492.6 296 492.8 291.9 493.1 294.5 493.3 294.6 493.7 296.2 494 292.9 494.3 289.8 494.7 288.4 495 284.2 495.3 283.7 495.6 287.7 495.9 288.8 496.3 285.9 496.7 286.8 497.1 285 497.5 283.7 497.7 283.5 498 282.5 498.2 281.1 498.4 285.8 498.6 286 499 286.6 499.4 287 499.8 282.4 500.1 279.8 500.4 278.4 500.6 278.4 500.9 280.4 501.2 280.1 501.4 278.3 501.7 276.6 501.9 273.9 501.9 273 501.9 269.4 502 270.7 502.1 271.6 502.3 270.8 502.4 267.4 502.5 267 502.6 262.9 502.7 259.9 502.8 261.9 502.9 259.6 503 264 503.1 265 503.2 264.9 503.4 261.3 503.6 264.6 503.8 262.9 503.9 260.2 504 256.8 504.1 259.7 504.2 261.2 504.5 262.4 504.7 261.7 504.9 259.4 505 256.6 505.2 259.6 505.3 259.3 505.6 259.1 505.9 257.2 506.1 259.6 506.4 262.5 506.6 260.9 506.7 256.9 506.8 252.5 506.9 255.3 507.1 252.9 507.3 255.7 507.5 258.5 507.7 259 508 260.4 508.2 257.8 508.5 259.8 508.7 263 508.8 261.7 509.1 262.2 509.4 259.1 509.6 257 509.8 260.4 510 262 510.2 256.6 510.4 257 510.8 254.7 510.9 254.7 511.2 253.3 511.4 253 511.6 256.2 511.8 257.9 512.2 260.8 512.4 260.7 512.8 258.6 512.9 261.2 512.9 262.5 513.2 258.9 513.4 258.4 513.6 264.2 513.8 265.7 514 266.4 514 263.4 514.3 266.7 514.4 268.4 514.6 270.8 514.7 270.5 514.7 274.7 514.8 275.8 514.9 277.1 515 277.3 515 285.1 515.1 279.8 515.2 275.4 515.4 277.1 515.6 279.9 515.7 280.3 515.9 279.9 516.1 280.1 516.3 279 516.6 278.1 516.8 274.7 517.1 276.3 517.5 276.6 517.8 272.8 518.1 277.3 518.3 280.9 518.7 280.2 519.1 281.9 519.5 282.5 519.8 280.8 520.1 286 520.2 284.2 520.6 284.1 520.8 283.9 521.2 280.7 521.6 281.4 522 277.9 522.3 278 522.7 277.2 523 281.1 523.4 281.2 523.6 283.4 524 285.1 524.2 283.1 524.5 282.8 524.8 282.2 525.2 281.7 525.6 283.9 525.9 283.7 526.2 284.3 526.5 287.7 526.8 285.1 527 284.1 527.3 281.4 527.6 277.6 528 277.1 528.3 276.1 528.5 280 528.8 277.7 529.2 279.8 529.7 279.1 530.1 277.7 530.7 276.9 531.2 276.7 531.6 275.8 532.1 280 532.2 282.2 532.4 284.9 532.8 284.6 533.1 288.5 533.1 287.7 533.3 287.7 533.6 288.2 534 289.6 534.3 287.7 534.6 291.2 534.8 291.9 535.1 292.4 535.3 293 535.5 295.2 535.7 293.4 536 291 536.3 292 536.6 289.6 537 292.2 537.2 295.8 537.5 296.4 537.8 297 538 296.8 538.3 299.4 538.6 295.3 539 295.7 539.5 297.2 539.9 296.3 540.2 298.6 540.5 298.8 540.9 295.8 541.4 296.4 541.8 299.4 542.1 300.1 542.5 297.9 542.7 294.5 543.1 295.1 543.5 293.2 543.8 295.5 544.1 295.2 544.4 294.7 544.7 296.9 544.9 301.1 545.1 300.3 545.4 296.7 545.6 297.7 546 293.5 546.3 294.5 546.7 292.5 547 290.4 547.3 290.3 547.6 288.6 547.9 288.2 548.3 288.6 548.6 285.7 548.6 282.7 548.8 283.1 549 279.1 549.3 282.2 549.7 281.7 550 280.4 550.3 281.8 550.7 280.5 550.9 278 551.2 276.1 551.5 274.8 551.7 270.3 551.8 270.5 552 267.4 552.2 267.3 552.3 266.9 552.5 265.7 552.7 268.7 552.8 267 553 266.2 553.2 266 553.4 270.3 553.6 267 553.9 265.9 554.1 262.6 554.2 261.2 554.4 260.6 554.6 254.4 554.6 252.8 554.6 251.8 554.7 250.3 554.8 249.6 554.9 250.9 555 253.2 555.1 252.5 555.4 253.3 555.5 255.4 555.7 254.7 555.8 255 556 257.9 556.2 257.4 556.4 258.4 556.6 259.2 556.9 258.2 557.2 256.5 557.5 258.9 557.8 259.3 558.1 260.7 558.4 261.8 558.9 261.7 559.1 258 559.4 261 559.7 263 560 262.5 560.4 263.5 560.8 263.8 561.1 262.9 561.6 262 561.8 259.7 562.3 262 562.7 263.1 563.2 262.8 563.6 259.4 564 259.8 564.5 259.2 564.8 257.7 565.2 257.1 565.6 260.4 566 260.6 566.6 260.9 567.3 261.5 567.8 261.5 568.1 263.2 568.5 265.5 568.8 268.1 569.1 269.2 569.4 269.3 569.8 270 570.2 267.6 570.6 266.4 571 265.6 571.6 266.2 572 268 572.5 267.7 573.2 266.9 573.7 266.1 574.3 263.8 574.7 263.6 575.2 263.7 575.7 262.2 576 262.1 576.4 263.6 576.8 263 577.3 259.5 577.5 258.4 577.8 257.3 578.2 257.9 578.4 258.7 578.8 259 579.2 257.4 579.6 257.8 580 258.8 580.4 258.5 580.6 262.1 580.9 260.4 581.4 261.8 581.7 261.9 582 262.5 582.4 262.1 582.9 263.1 583.3 261.3 583.8 262 584.2 266 584.3 268.9 584.6 268.9 584.9 267.6 585.2 268.4 585.6 266.2 586 268.7 586.4 265.4 586.6 259.3 586.9 257 587 255.1 587.1 250.3 587.2 251.3 587.4 251.2 587.5 245.8 587.5 243.5 587.5 241.8 587.6 241 587.7 239.7 587.7 238.1 587.7 235 587.7 230.6 587.7 231.5 587.7 231 587.8 233 587.8 230.6 587.8 231.7 587.9 228.3 587.9 222 587.9 221.4 587.9 222.5 587.9 221.1 587.9 217.1 588 215 588 216.6 588 216.9 588 215.4 588 213.4 588 217 588.1 219.7 588.1 218.6 588.1 218.9 588.2 222.4 588.2 219 588.2 214.9 588.3 216.1 588.3 214.4 588.3 209.4 588.3 204.9 588.4 204.6 588.4 201.7 588.4 197.2 588.4 194.3 588.4 196.1 588.4 197 588.4 195.8 588.4 201.4 588.4 201.2 588.4 204.5 588.5 207.6 588.5 207.1 588.5 206.3 588.6 208.4 588.6 211 588.6 210.2 588.7 212.6 588.7 210.2 588.8 210.6 588.9 215.9 588.9 217 588.9 217.7 589 222.3 589 225 589 223.5 589.1 223.3 589.1 222.8 589.2 217.3 589.2 217.3 589.3 216.5 589.3 211.5 589.4 213.8 589.5 211.7 589.5 215.5 589.6 217.7 589.7 220.9 589.7 219.3 589.8 224.2 589.9 222.1 590 220.2 590.1 218.1 590.2 221.5 590.3 222.3 590.4 220.6 590.5 219.9 590.6 218.1 590.7 222.1 590.9 221.6 591 219.2 591.1 219.6 591.3 215.9 591.4 218.5 591.5 220.9 591.6 218.9 591.8 217 591.9 214.1 592 214.1 592 211 592.1 211.5 592.2 210.9 592.3 215.7 592.3 217.5 592.3 219.9 592.4 216.8 592.5 219.1 592.6 217.3 592.6 223.1 592.7 223.3 592.7 222.3 592.8 217.6 592.9 215.3 593 222.1 593.1 222.1 593.3 214.6 593.4 218.6 593.6 223.4 593.7 224.8 593.7 229.3 593.8 228.1 593.9 230.8 594 230.1 594.1 227.7 594.2 231.8 594.3 232.8 594.4 236.6 594.5 237.8 594.5 236.9 594.6 239.3 594.7 236.7 594.8 238.1 594.9 237.7 595 238.2 595.1 239.8 595.2 238.4 595.3 232.2 595.4 228.6 595.4 227.2 595.5 225.7 595.5 222.1 595.6 221 595.7 220.6 595.8 219.7 595.9 218.8 596 218.4 596.1 217.6 596.3 216.1 596.4 219 596.5 218.5 596.6 221.3 596.8 221.3 597 219.1 597.1 217.8 597.3 214.4 597.4 215.6 597.6 214.3 597.7 215.4 597.9 214.6 598.1 214.5 598.2 212.8 598.4 212.5 598.5 211.1 598.7 210.2 598.8 209.6 599 213 599.2 213.2 599.4 210 599.5 205.2 599.6 205.5 599.7 200.5 599.8 201.8 599.9 203.5 600 205.1 600.2 204.5 600.4 203.9 600.5 202.1 600.6 208.6 600.7 208.5 600.8 208.3 601 205.1 601.2 206.9 601.3 207.2 601.5 205.6 601.7 204.7 601.9 204.4 602.1 206.6 602.3 207.9 602.4 203.1 602.6 201.2 602.7 205.5 602.9 205.5 603.1 203.6 603.2 199.7 603.3 199.6 603.5 197.6 603.6 197.9 603.8 197.4 603.9 195.2 604 193.1 604 198.2 604.2 198.7 604.3 196.3 604.5 197.8 604.6 196.5 604.7 192.2 604.7 191.2 604.8 189.5 604.9 188 604.9 187.7 605 190.6 605 189.7 605.1 188 605.2 186.6 605.3 189 605.4 188.5 605.5 190.2 605.6 192.6 605.7 189.7 605.9 191.7 606 189.7 606.1 190.3 606.2 190.9 606.4 191.5 606.6 193 606.6 194.9 606.7 197.4 606.8 196.7 607 194.6 607.1 196.4 607.3 195.5 607.5 192.3 607.6 187.2 607.7 189.3 607.9 187.9 607.9 184.6 607.9 180.4 608 178.8 608 174.5 608 171.7 608 171.4 608 172.5 608 173 608 175.7 608 177.1 608.1 176 608.2 173 608.2 171.1 608.3 176.7 608.3 176.7 608.4 173.7 608.5 171.3 608.5 164.4 608.5 163.4 608.5 161.4 608.5 162.8 608.6 163.3 608.6 164.3 608.7 163 608.7 160.2 608.7 157.5 608.8 157.9 608.8 160.6 608.8 159.2 608.9 158.7 608.9 159.4 609 160.8 609 159.4 609.1 158.5 609.2 158.5 609.2 160.4 609.3 161.5 609.3 162.3 609.4 167 609.5 168.2 609.5 170.8 609.5 174.4 609.6 177.7 609.6 179.2 609.7 175.4 609.7 175.9 609.8 172.3 609.9 173.5 610 178.6 610.1 176.7 610.2 175.9 610.3 175.1 610.4 172.4 610.5 171 610.6 172.1 610.7 173.9 610.8 176.6 610.9 180.1 611 176.4 611.1 180 611.2 185.3 611.2 184.6 611.3 184.9 611.4 185 611.5 187.4 611.6 188.2 611.7 186.3 611.8 183.9 611.9 182.7 612 181.6 612.2 182.3 612.4 179.5 612.5 180.8 612.7 176.9 612.8 179.7 612.9 183.3 613.1 183.7 613.2 179.5 613.3 179.2 613.5 177.2 613.7 180.1 613.8 177.3 613.9 173.2 613.9 166.5 613.9 162.4 614 164.6 614 168.1 614.1 172.5 614.2 173.3 614.3 173 614.5 171.8 614.7 172 614.8 170.2 615 167.7 615.1 170.5 615.3 175.7 615.4 179.1 615.5 178.4 615.6 178.3 615.7 179.1 615.9 177.9 616 180.7 616.1 181.1 616.3 178.1 616.4 177.4 616.6 177 616.7 172.6 616.8 174.4 617 177.8 617.1 178 617.2 183.9 617.2 188.4 617.2 193.4 617.3 201.7 617.3 219.6 617.3 205.9 617.3 234.5 617.3 220.6 617.3 250.3 617.3 223.7 617.3 269.4 617.3 206 617.3 250.1 617.3 241.5 617.3 220.7 617.3 228.4 617.3 230.9 617.3 213.2 617.3 208.9 617.3 203.9 617.3 201.9 617.3 199.1 617.3 201.4 617.3 201.3 617.3 203.8 617.3 203.5 617.3 200.2 617.4 200.8 617.4 204 617.4 201.4 617.4 199.7 617.4 203.2 617.4 206.7 617.5 207.9 617.5 209.7 617.5 227.9 617.5 220.8 617.5 214.9 617.5 213.3 617.5 215.3 617.5 209.2 617.6 211.6 617.6 215.4 617.6 216.3 617.6 214.5 617.7 210.1 617.7 210.4 617.7 208.3 617.8 205.5 617.8 203.5 617.8 203.7 617.9 207.1 617.9 209.5 618 206.7 618 202.6 618 202 618.1 197.5 618.1 195.7 618.2 193.6 618.3 195.6 618.4 196.8 618.4 198.3 618.5 195.3 618.6 198 618.7 197.1 618.8 199.8 618.9 199.4 619 194.9 619.1 191.2 619.2 194.2 619.3 198.3 619.4 199.4 619.4 196.9 619.6 200.6 619.6 199.7 619.8 200.7 619.8 205 619.8 207.4 619.9 210.8 620 209.7 620 206.2 620.2 205 620.3 201.3 620.4 207.3 620.5 210.7 620.6 207 620.8 207.2 621 205.7 621.2 207.1 621.3 208.5 621.4 211.5 621.5 211.5 621.6 209.1 621.7 205.1 621.9 204.5 622.1 201.5 622.2 197.7 622.4 200.5 622.6 199.5 622.8 201.8 623.1 203.8 623.3 203.2 623.5 201.8 623.6 202.4 623.8 198.1 623.9 200.5 624.1 197.3 624.3 201.1 624.4 203.7 624.5 205 624.6 205.2 624.7 208.6 624.8 209.3 624.8 204.9 625 206 625.1 207.8 625.2 211.5 625.3 213.4 625.4 210.9 625.6 212.2 625.6 215.4 625.7 210.6 625.8 206.6 626 209.6 626.1 209 626.3 211.9 626.4 204.7 626.5 205.4 626.7 202.7 626.9 201.8 627.1 200.7 627.3 199.2 627.4 197.2 627.6 200.9 627.7 195.7 628 195.5 628.1 193.3 628.3 192.9 628.4 188.1 628.5 186.1 628.5 184.4 628.7 187 628.9 186.8 629.1 187.6 629.3 190.5 629.5 191.2 629.8 191.1 630 189.7 630.2 187.8 630.3 185.1 630.4 182.6 630.6 181.1 630.8 181.3 631 183.2 631.2 179.5 631.3 175.8 631.3 173.5 631.4 173 631.5 171.3 631.5 167.9 631.6 166.3 631.6 164.1 631.7 170.2 631.8 165.9 631.8 162.3 631.9 162.6 632 159.2 632 159.5 632.1 156.2 632.1 154.3 632.1 150.1 632.1 146.7 632.1 146.4 632.1 146.1 632.2 143.6 632.2 139.3 632.2 139.4 632.2 139.4 632.2 143.2 632.2 145.7 632.2 145 632.2 148.1 632.3 149.5 632.3 146.2 632.4 146.9 632.5 151 632.5 147.6 632.6 143.7 632.6 143.4 632.7 148.7 632.8 152.3 632.9 152.5 633 150.4 633.1 153.7 633.3 152.6 633.4 151.8 633.6 151.3 633.7 146.6 633.8 152.7 633.9 153.6 634 157 634.1 158.5 634.2 162.5 634.3 161.4 634.4 161.7 634.6 157.7 634.7 156.8 634.9 158.8 635.2 156.9 635.4 158.5 635.5 159.6 635.8 160.4 635.9 161.1 636 157.9 636.1 151.8 636.2 150 636.4 154.6 636.4 149.7 636.6 154.3 636.8 155.9 637 157.2 637.1 162.4 637.2 159.6 637.4 156.1 637.6 154.7 637.8 152.7 638 154.9 638.1 156 638.3 155.6 638.6 154.9 638.9 154.1 639.2 156.3 639.5 151.1 639.7 154 640 153.9 640.3 155 640.6 157.2 640.8 158.3 641 158 641.3 155 641.6 152 641.8 151.9 642 153.8 642.1 152.1 642.3 158.9 642.5 156 642.7 158.5 642.9 157.6 643.2 156.5 643.4 160.2 643.6 160.4 643.8 158.8 644.1 156.5 644.3 153.7 644.5 151.2 644.7 149.4 644.9 151.3 645.1 153.7 645.4 158.1 645.6 158.5 645.8 160.6 646.1 158.9 646.3 155.1 646.6 155 646.9 159.7 647.3 157.8 647.7 157.9 648 156.6 648.2 153.1 648.4 152.4 648.8 152.8 649.1 153.2 649.3 152.5 649.6 154.5 649.8 147.6 649.9 144.8 650 144.1 650 141.4 650.1 141.3 650.2 139.8 650.2 134.2 650.2 131.6 650.2 131.6 650.3 133.5 650.3 133.1 650.3 133.4 650.4 135.7 650.5 137.3 650.6 135.4 650.7 135.8 650.9 136.8 651.1 133.3 651.2 132.9 651.4 136.4 651.6 141.2 651.7 141.5 652 137.3 652.2 134.1 652.3 133.5 652.6 136 652.9 134.6 653.1 138.9 653.4 136 653.7 136.3 654.1 136.5 654.5 135.6 654.9 137.8 655.3 139.3 655.6 142.3 656 143.6 656.2 144.8 656.4 144.3 656.9 142.9 657.3 145.5 657.5 150.5 657.7 142.9 658.1 141.6 658.3 139.7 658.6 140.6 658.9 137.1 659.1 136.2 659.5 137.6 659.8 138.5 660.1 139.8 660.4 134.7 660.6 135.1 660.9 134.2 661 132.2 661.3 131.6 661.5 130.8 661.8 132 662.2 132.8 662.4 133.1 662.7 132.7 663 131.5 663.3 133.5 663.6 136 663.8 134 664.3 137.2 664.7 136.9 665 134.7 665.2 132.1 665.4 127.6 665.4 125.3 665.4 123.3 665.4 122.6 665.4 119.5 665.5 116.7 665.5 117.3 665.5 117.7 665.6 114.8 665.7 117.5 665.8 118.3 665.9 119.2 666.1 120.1 666.3 122.5 666.4 127.2 666.4 127.5 666.5 128.8 666.7 135.1 666.7 130.1 666.9 132.4 667.1 135.5 667.2 138.1 667.4 136 667.5 141.7 667.6 146.6 667.6 144.6 667.8 145.7 667.9 144.2 668 139.6 668.2 142.1 668.4 144 668.6 143.9 669 142.7 669.3 143.1 669.5 138 669.8 138.4 670 135 670.3 137.3 670.6 136.5 670.9 135 671.1 137.1 671.3 135 671.6 134.3 671.9 131.9 672.2 130.5 672.4 127.3 672.7 130.2 673 129.5 673.4 128.5 673.7 128.2 673.9 129.2 674 123.5 674.2 121 674.3 120.1 674.5 120.3 674.7 119.5 674.9 120.5 675.2 119 675.3 123.6 675.4 124.2 675.6 125.6 675.8 123.5 676 123 676.2 121.6 676.4 122.9 676.6 126.5 676.9 127.2 677.1 123.5 677.4 127.1 677.6 128.1 677.8 129.4 678.2 127.3 678.5 124.2 678.7 124.4 679 130.9 679.1 133.2 679.3 136 679.5 135.8 679.7 137.2 679.9 138.3 680.1 139.2 680.3 140.1 680.6 142.6 680.8 140.8 680.9 135.8 681 135.3 681.3 140.2 681.6 141.1 681.8 142.6 682 144.2 682.2 143.4 682.4 143.2 682.7 144.3 683.1 143.7 683.4 141.2 683.6 137.6 683.8 137.2 684 139 684.3 140.7 684.6 140.2 684.9 142.9 685 145.7 685.2 148.1 685.5 147.9 685.7 149.9 686 151 686.2 148.1 686.5 149.6 686.8 152.7 687 154.5 687.2 155.6 687.4 155.5 687.5 155.4 687.7 153 687.9 150.1 688.1 153.4 688.4 154.6 688.6 154.5 688.9 156.1 689.1 159.5 689.3 161.2 689.6 162.3 689.8 158.2 690 161.5 690.4 160.2 690.5 162.1 690.8 159 690.9 155.5 691.2 156.4 691.3 151 691.4 152.5 691.7 151.5 691.9 152.5 692.1 150.5 692.3 145.8 692.4 149 692.6 146.1 692.8 144.9 693 146.9 693.3 148.6 693.6 150 693.8 153.2 693.9 156.9 694.1 158.4 694.4 157.5 694.6 157.7 694.8 157.7 695.1 158.9 695.4 161.3 695.6 156.6 695.8 156.6 696.1 157.4 696.3 157 696.7 158.1 697 158.6 697.4 158.1 697.7 152.8 698 151.9 698.2 150.6 698.4 146 698.5 143.3 698.6 142.6 698.8 142.7 699 143.4 699.1 145.1 699.4 143.6 699.7 142.1 700 141 700.1 138.1 700.2 136.6 700.3 134.2 700.4 139.8 700.5 143.9 700.7 144.7 701 145.9 701.3 146.5 701.6 148.5 701.9 150.6 702.1 150 702.4 151.1 702.6 146.1 702.9 149.3 703.2 146.6 703.4 147.9 703.8 147.8 704.2 144.9 704.5 147.2 704.8 143.4 705.1 145.9 705.5 149.2 705.8 148.9 706.2 151.3 706.6 151.2 707 154 707.3 154.3 707.7 153.6 707.9 150.1 708.2 152.2 708.5 154.8 708.8 156.3 709 156.1 709.3 153.4 709.5 147.9 709.8 150.3 710.3 151.4 710.7 151.1 711.1 152.1 711.5 151.9 712 153.3 712.5 154.9 712.9 151.7 713.2 154.3 713.7 153.7 714 149.6 714.3 149.7 714.7 147.3 714.9 144.9 715.2 147 715.5 146 715.8 147.6 716.3 146.8 716.8 146.6 717 143.1 717.2 143.6 717.5 141.4 717.8 141 718 139 718.2 136.9 718.3 135.5 718.6 135.3 718.7 132.8 718.9 137.7 719.1 139 719.4 138.3 719.6 132.8 719.9 135 720.1 134.7 720.4 133.4 720.6 132.2 720.9 136.5 721.1 139.9 721.3 139.5 721.5 138.7 721.9 137.7 722.2 139 722.4 141.1 722.8 142.2 723.1 141.7 723.4 139.6 723.7 137.7 724 138.4 724.4 140.3 724.8 141.5 725.2 141.5 725.6 143.4 725.7 147 726.1 149 726.4 149.8 726.7 149.4 727 147 727.3 147.3 727.8 150.2 728.2 149.4 728.4 150.5 728.8 151.5 729.2 150.3 729.5 147.5 729.8 143.6 730 143 730.3 144.9 730.7 143.4 731.1 145.1 731.6 146.9 732.1 147.2 732.7 149.7 733.2 150.3 733.7 148.8 734.2 146.7 734.8 147.3 735.4 147.5 735.8 152.2 736.3 151.3 736.8 153.9 737 152 737.4 153 738 153 738.4 152.7 739 150.1 739.5 153.9 740 154.7 740.3 157.1 740.5 158.9 740.8 159.9 741.1 160.5 741.4 157.5 741.6 161.2 742 159.2 742.2 156.8 742.5 157.3 742.9 156.7 743.3 158.4 743.6 157.3 744 160.4 744.3 161.9 744.6 160.1 744.9 158.7 745.3 160.7 745.6 164.6 745.7 165.6 745.8 166.2 746.1 165.2 746.4 164.5 746.7 165.3 746.9 168.7 747 169.6 747.1 172.2 747.1 174.6 747.2 176.4 747.3 177.7 747.4 174.3 747.6 175.2 747.8 174.5 748 175 748.3 174.4 748.5 172.4 748.7 174.4 748.8 178.2 748.9 175.4 749.1 176.4 749.3 175.8 749.6 177.3 749.8 177.7 750 179.7 750.1 179.1 750.3 177.6 750.5 174.9 750.6 172.2 750.7 171.2 751 171.4 751.2 173.6 751.5 174.6 751.9 174.4 752.1 172.4 752.5 173.1 752.8 169.4 753 169.3 753.3 169.1 753.6 167.7 754 170 754.4 171.5 754.9 172.4 755.5 172.2 756.1 173.7 756.3 178.3 756.5 183.4 756.7 183.6 756.9 184.1 757.1 185.7 757.3 185.3 757.4 187.1 757.6 187.3 757.8 187.3 758.1 184.8 758.3 184.7 758.5 185.9 758.8 185.4 759.1 184.7 759.5 185.1 759.8 183.6 760.2 181.6 760.6 182.3 761.1 182.3 761.5 181.4 761.8 179.5 762.1 178.3 762.5 177.3 762.9 179.9 763.2 183.9 763.5 188.6 763.7 188.6 763.8 190.3 763.9 192.2 764.1 190.9 764.4 188.5 764.7 189.1 764.9 189.1 765.2 190.8 765.5 188.8 766 188.9 766.3 188.7 766.7 186.8 767.1 185.1 767.4 185.7 767.8 190.8 768 192.3 768.2 195 768.4 194.6 768.7 192.3 768.9 190.8 769.3 192 769.7 193.1 769.9 194.3 770.2 195.2 770.5 191.1 770.8 189.3 771.1 188.7 771.6 189.9 771.9 193.8 772.2 189.6 772.5 187.5 772.8 188.1 773.1 184.7 773.4 184 773.6 184.1 773.8 182.1 773.9 179.9 774.1 184.3 774.4 183.9 774.6 184 774.9 183.6 775.1 185.6 775.3 182 775.6 182.9 775.9 186.2 776.3 183.4 776.7 185.1 777.1 185.5 777.5 187.5 778 187.8 778.5 188.6 779 188.6 779.2 190 779.5 190.7 779.8 190.4 780.2 191.6 780.5 193.9 780.8 193.8 781.1 195.2 781.4 195.9 781.6 198.1 781.9 197.5 782.2 197.8 782.5 198.1 783 198.8 783.2 195.3 783.4 193.6 783.5 190.5 783.6 188.5 783.8 188.9 784 186.8 784.2 188.9 784.4 190.9 784.6 189.7 784.8 190.7 785.1 190.5 785.3 190.7 785.6 192.7 785.9 193.9 786.2 192.6 786.6 191.2 787.1 190.6 787.3 191.8 787.7 194.4 787.9 194.1 788.1 187.7 788.4 189.7 788.8 189.7 789.2 190.5 789.6 192.3 790 194.7 790.3 191.7 790.8 192 791.4 192.5 791.7 195.1 792.1 195.9 792.3 196.4 792.6 195.6 793.1 194.4 793.4 189.5 793.6 186.5 793.8 185.7 794.1 185.5 794.4 185.2 794.8 183.9 794.8 188.7 794.9 189.1 795.2 188.3 795.6 188.4 796.1 188.4 796.5 187.2 796.8 184 797.1 182.3 797.4 184.4 797.6 184.8 797.9 187.3 798.2 189.5 798.4 193 798.7 189.4 799 190.8 799.2 193 799.6 194 799.7 193.5 799.8 186.1 800 190 800.2 191.7 800.5 192.7 800.7 193.2 800.9 192 801.3 193.3 801.6 194 801.8 193.6 802.1 192.3 802.4 193.3 802.6 192.9 802.8 195 803 197.9 803.2 196.5 803.5 196.5 803.6 199.9 803.7 199.7 803.9 197 804 200.8 804.1 201.6 804.3 203.2 804.4 202.6 804.6 201 804.8 201.3 805 202.3 805.2 199 805.5 196.8 805.6 191.2 805.8 192.5 806 189.3 806.2 193.3 806.5 191.7 806.7 195 806.9 196.5 807.1 193.2 807.2 195.6 807.5 198.7 807.9 196.3 808.2 193.4 808.5 196.9 808.9 199.6 809.2 200 809.6 200.9 809.8 202.2 810 202 810.2 206.9 810.2 206.3 810.3 205.7 810.6 205.2 810.8 207.5 811 208.4 811.1 208.6 811.4 209.4 811.6 207.7 811.8 205.6 812.1 203.5 812.2 199.7 812.3 198.5 812.4 193 812.5 194.4 812.8 196.1 812.9 199 813.2 199.3 813.5 196.7 813.8 201.4 814.2 202.4 814.6 204.1 814.9 204.8 815.4 203.8 815.8 200.5 816.3 200.8 816.5 197.7 816.8 196.1 817.2 195.5 817.5 197.6 818 195.6 818.4 195.7 818.8 194.7 819.1 195.5 819.6 192.3 819.8 190.3 820.1 187.7 820.4 186.4 820.4 180.5 820.5 180.2 820.6 177.2 820.8 174.6 820.8 175.2 820.9 176 821.1 180 821.3 182 821.6 183.2 821.7 186.6 822 190.3 822.2 195 822.4 195 822.5 191.7 822.8 193.8 823.1 192.6 823.5 192.1 824 189.6 824.5 189.1 824.9 190.8 825.5 189.6 826 191.6 826.4 191 826.8 193 827.2 195.7 827.6 197 828.1 196.6 828.7 197.3 829.3 198.5 829.7 199.9 830.2 199.9 831 199.5 831.6 198 832.2 198.9 832.8 198.8 833.2 195.9 833.9 196.6 834.6 194.6 835.1 195.4 835.9 195.2 836.6 193.3 837.3 195.3 838.2 196 838.9 197.2 839.6 195 840.4 192.6 841.1 193.1 841.6 191.5 842.1 192 842.9 190.2 843.3 190 843.7 189.4 844.3 191.1 845.1 189.5 845.7 189 846.1 191.1 846.7 191.6 847.4 187.6 848.2 192.9 848.9 193.5 849.8 192.2 850.7 190.5 851.5 190 852.1 188.7 852.6 186.2 853 182.1 853.2 179.5 853.4 180.1 853.7 181.7 854.3 183.9 854.9 184.3 855.6 182.5 856.5 183.9 857.5 184.4 858 185.1 858.5 181.3 858.9 181.3 859.7 183.1 860.6 186.7 861.2 184.3 862.1 185.2 862.8 183.1 863.9 184.4 864.8 185.6 865.2 189.8 865.8 192.6 866.5 192 867.1 191.3 867.6 195 868.1 196.7 868.7 195.7 869.3 193.6 870 190.8 870.5 188.7 871.1 189.7 871.8 188.5 872.4 188.3 873.1 189 873.8 186.6 874.4 186.8 874.8 188.9 875.1 191.3 875.6 189.6 876.1 187.6 876.5 188.5 877 183.7 877.6 181.8 878.1 184.5 878.7 184.1 879.3 184.7 879.8 188.4 880.2 192.4 880.8 191.7 881.2 194.5 881.6 193.3 881.8 192.5 882.1 196 882.3 192.5 882.7 192.5 883.2 191.7 883.6 192.1 884.2 191.8 884.7 192.4 885.2 196.6 885.6 198.2 886.1 196.3 886.6 194.5 887.3 192.5 887.8 188.8 888.4 189.4 889 188.3 889.6 185.6 889.9 186.4 890.2 190 890.6 188.6 891.1 189.1 891.7 186.4 892.3 184.4 893 181.5 893.4 180.3 893.9 177.8 894.2 176.2 894.5 178.3 894.7 174.3 895 172.7 895.1 170.9 895.1 169.6 895.2 167.2 895.3 166.1 895.3 164.3 895.4 163.4 895.5 163.3 895.5 165.1 895.6 162.1 895.7 166.5 895.8 164.5 895.9 167.7 896 167.6 896.2 169.7 896.4 170.6 896.5 175.2 896.6 177.3 896.8 178.2 897.1 175.5 897.2 170.6 897.5 173 897.7 175 897.9 171.8 898.2 175.1 898.4 170.8 898.6 166.9 898.7 165.9 898.9 165.3 899.1 165.9 899.3 163.7 899.4 167.7 899.6 166.9 899.8 166 900 166.4 900.2 162.6 900.4 160.4 900.6 162.1 901 162 901.2 163.8 901.5 163.2 901.7 163.9 901.9 163.8 902.1 159.9 902.4 159.3 902.6 157.7 902.9 159.3 903.1 163.8 903.4 158.6 903.6 158.7 903.8 156.5 904 155.3 904.2 159.3 904.4 160.4 904.7 156.9 904.9 161.4 905.3 161.4 905.7 162.8 906 162.2 906.4 162.7 906.7 165.2 907.1 165 907.5 164.7 907.8 159.5 907.8 155.7 908 156.6 908.2 153 908.3 153.3 908.4 154.8 908.7 156 909 158.3 909.4 158 909.7 156.3 910 153 910.3 154.6 910.6 152.3 910.9 149.2 911.1 148.2 911.4 148.6 911.6 152.8 911.9 149.1 912.1 147 912.2 143.8 912.3 142.8 912.5 142 912.7 139.4 912.7 138.3 912.9 138.6 913 138.1 913.1 139.2 913.3 136.4 913.5 137.3 913.8 138.1 913.8 135.3 913.9 133.8 914 132.6 914.1 133.6 914.2 131.5 914.2 133.9 914.3 132.8 914.4 131.8 914.6 128 914.6 129.2 914.8 128.3 914.9 127.4 915.1 130.7 915.2 126.5 915.4 126.8 915.5 129.3 915.7 133.1 915.8 133 916 130.2 916.2 129.2 916.4 126.6 916.4 124.7 916.5 120.9 916.6 124.6 916.6 128.7 916.7 128.6 916.8 130 917 129.5 917.2 132.3 917.3 134.8 917.4 132.3 917.6 130.2 917.8 131.2 917.9 131.4 918.1 133.1 918.3 133.6 918.5 135.6 918.7 136.6 918.8 138.8 919 140.7 919.2 137.2 919.4 137.6 919.6 138.4 919.9 140.3 920.1 140.4 920.3 136.7 920.6 136.6 920.8 135.7 921.1 133.6 921.4 135.3 921.7 136.5 922 137.6 922.3 141.8 922.7 139.7 923 139.4 923.4 139.1 923.8 139.6 924.1 138.8 924.4 139.9 924.7 144.1 925 143.7 925.4 141.9 925.7 143.6 925.9 146.9 926.2 147.3 926.5 145.2 926.7 144.4 927 146.6 927.3 148.4 927.7 146.5 928.1 148.2 928.4 144.1 928.7 146 929.1 149.4 929.3 152.1 929.5 153.6 929.7 154.3 930 151.9 930.3 153.1 930.7 153.2 930.9 152 931.1 156.9 931.2 158.1 931.5 156.8 931.8 155.1 932.1 154.5 932.6 155.6 932.9 156.3 933.2 155.9 933.5 153.1 933.7 151.6 934 150.5" opacity=".6"/><text x="942" y="472" fill="#d97706" font-size="11" text-anchor="start">988.24</text><text x="942" y="396" fill="#d97706" font-size="11" text-anchor="start">1032</text><text x="942" y="320" fill="#d97706" font-size="11" text-anchor="start">1076</text><text x="942" y="244" fill="#d97706" font-size="11" text-anchor="start">1120</text><text x="942" y="168" fill="#d97706" font-size="11" text-anchor="start">1165</text><text x="942" y="92" fill="#d97706" font-size="11" text-anchor="start">1209</text><text x="942" y="80" fill="#d97706" font-size="11" font-weight="600" text-anchor="start">price</text><polygon fill="#16a34a" fill-opacity=".08" points="632.1 468 632.1 124.9 632.1 116.1 632.1 468"/><polyline fill="none" stroke="#16a34a" stroke-linejoin="round" stroke-width="2" points="632.1 124.9 632.1 116.1"/><line x1="88" x2="110" y1="102" y2="102" stroke="#16a34a" stroke-width="2.5"/><text x="116" y="106" fill="#374151" font-size="11.5">equity</text><line x1="88" x2="110" y1="118" y2="118" stroke="#d97706" stroke-width="2.5" opacity=".8"/><text x="116" y="122" fill="#374151" font-size="11.5">price</text><text x="78" y="502" fill="#6b7280" font-size="12" text-anchor="start">2025-10-01</text><text x="934" y="502" fill="#6b7280" font-size="12" text-anchor="end">2025-10-05</text></svg>