<?xml version="1.0" encoding="UTF-8"?>
<svg xmlns="http://www.w3.org/2000/svg" width="1000" height="520" viewBox="0 0 1000 520" font-family="ui-sans-serif, system-ui, sans-serif">
  <rect width="1000" height="520" fill="#ffffff"/>
  <text x="78" y="28" font-size="18" font-weight="700" fill="#111827">Zone Recovery — BIOUSDC best setting (equity / PnL)</text>
  <text x="78" y="48" font-size="12.5" fill="#6b7280">lev 20 · ratio 4 · gap 20% · maxSteps 4 · maxDD 40% · random · vip 9  ·  612 series, 85.0% win · vol $88068532 ($88073563/day) · fees $7451</text>
  <text x="78" y="68" font-size="12.5" font-weight="600" fill="#1d4ed8">USDC · BNB −10% · taker 0.0085%</text>
  <text x="934" y="28" text-anchor="end" font-size="18" font-weight="700" fill="#16a34a">+388887 USDT  (+3888.87%)</text>
  <line x1="78" y1="468.0" x2="934" y2="468.0" stroke="#e5e7eb" stroke-width="1"/><text x="68" y="472.0" text-anchor="end" font-size="12" fill="#6b7280">0.00</text><line x1="78" y1="392.0" x2="934" y2="392.0" stroke="#e5e7eb" stroke-width="1"/><text x="68" y="396.0" text-anchor="end" font-size="12" fill="#6b7280">90051</text><line x1="78" y1="316.0" x2="934" y2="316.0" stroke="#e5e7eb" stroke-width="1"/><text x="68" y="320.0" text-anchor="end" font-size="12" fill="#6b7280">180103</text><line x1="78" y1="240.0" x2="934" y2="240.0" stroke="#e5e7eb" stroke-width="1"/><text x="68" y="244.0" text-anchor="end" font-size="12" fill="#6b7280">270154</text><line x1="78" y1="164.0" x2="934" y2="164.0" stroke="#e5e7eb" stroke-width="1"/><text x="68" y="168.0" text-anchor="end" font-size="12" fill="#6b7280">360205</text><line x1="78" y1="88.0" x2="934" y2="88.0" stroke="#e5e7eb" stroke-width="1"/><text x="68" y="92.0" text-anchor="end" font-size="12" fill="#6b7280">450256</text>
  <line x1="78" y1="459.6" x2="934" y2="459.6" stroke="#9ca3af" stroke-width="1.5" stroke-dasharray="6 4"/><text x="934" y="453.6" text-anchor="end" font-size="11" fill="#6b7280">start 10000</text>
  <polyline points="78.0,125.1 78.5,124.5 79.2,124.7 80.1,123.9 82.2,124.6 83.5,124.5 85.2,125.0 86.4,125.2 88.1,124.5 89.6,123.6 90.9,124.3 91.6,124.3 93.4,124.2 93.9,123.9 95.3,123.1 96.6,124.1 97.8,124.0 99.4,124.1 100.6,123.8 101.9,122.9 103.3,123.0 104.0,124.3 105.2,124.1 106.3,124.6 107.8,124.5 109.2,123.6 110.5,123.8 112.4,123.8 114.1,123.4 114.9,121.9 115.4,121.8 116.7,120.9 118.0,121.9 120.1,121.2 121.7,120.8 123.3,121.7 125.1,121.0 126.6,121.8 128.2,122.6 129.4,122.4 130.9,121.9 131.9,121.3 133.2,122.8 134.7,123.3 136.4,123.8 138.0,124.5 139.4,124.6 142.5,124.9 144.7,124.5 145.5,123.8 146.6,124.6 147.6,125.0 149.2,125.1 150.2,125.0 151.5,126.0 152.7,126.5 153.6,126.8 154.2,127.7 155.2,127.2 156.7,126.6 157.2,126.0 158.4,125.3 160.4,125.2 161.4,124.7 162.5,125.1 164.3,125.4 166.1,126.0 167.9,127.1 168.5,128.1 169.8,128.6 170.8,128.3 172.5,128.3 173.6,127.7 174.7,127.8 176.8,128.7 176.9,128.5 176.9,128.9 177.0,129.1 177.2,129.1 177.3,129.3 177.7,129.1 178.1,129.0 178.1,128.9 178.2,128.7 178.3,128.5 178.3,128.4 178.6,128.5 178.7,129.1 178.7,129.3 178.7,129.2 179.8,129.0 180.6,129.9 181.1,130.7 181.3,130.7 182.0,130.1 183.0,129.5 183.7,129.8 185.4,129.3 186.3,130.7 187.2,130.8 187.9,132.2 188.9,130.6 190.3,131.5 192.2,130.4 193.0,129.6 194.2,128.3 195.8,127.8 197.0,126.5 198.0,125.4 199.0,125.4 200.0,124.6 201.0,124.9 201.6,123.6 202.5,122.7 203.0,121.3 203.5,121.1 203.8,120.7 204.2,120.4 204.8,120.7 205.2,120.8 205.6,119.9 205.9,118.9 206.3,119.1 206.9,119.6 207.6,119.3 208.4,119.8 209.0,120.6 209.7,120.4 210.7,120.8 211.8,119.3 212.5,119.9 213.5,119.8 214.4,120.2 215.4,122.0 216.2,122.9 216.7,122.6 217.4,123.5 217.9,124.3 218.0,125.0 218.4,124.7 218.8,124.8 219.5,124.8 220.4,125.6 220.9,124.3 221.5,123.1 222.1,124.3 222.8,123.2 223.8,123.4 224.9,123.6 225.9,122.8 226.8,124.3 227.5,123.7 228.4,123.9 228.8,122.8 229.6,123.7 230.4,124.0 231.4,124.9 232.4,125.9 232.9,125.1 233.6,124.9 234.6,124.8 235.6,125.6 236.9,125.5 238.9,125.4 240.2,124.7 241.0,126.0 242.0,126.8 242.6,127.3 243.7,127.7 244.5,127.6 245.3,127.1 246.0,127.9 247.8,128.4 249.2,128.2 250.9,128.3 252.0,128.1 253.9,128.2 255.5,128.3 256.8,128.1 257.4,128.1 258.0,128.3 258.8,129.4 259.2,129.5 259.5,130.3 259.7,130.0 260.3,130.3 260.6,130.2 261.5,129.4 262.9,129.6 263.6,128.6 264.2,127.9 264.3,127.2 265.0,128.1 265.8,127.6 266.6,127.0 267.8,126.9 268.8,125.9 269.8,126.6 270.4,125.5 271.2,125.9 271.9,125.2 272.9,124.9 274.0,125.3 274.5,125.9 275.2,126.0 275.8,126.7 276.9,127.1 278.1,126.9 278.8,126.7 279.9,126.3 280.9,125.2 281.6,124.2 282.5,123.9 283.1,123.5 283.5,123.1 284.1,121.9 284.4,121.7 284.9,122.5 285.6,122.6 286.3,123.3 287.0,123.4 287.3,123.2 288.0,122.3 289.0,122.6 289.8,123.0 290.8,122.7 291.7,122.6 292.2,122.5 292.7,122.0 293.2,121.9 293.8,122.1 294.9,122.6 296.0,122.8 296.4,122.6 297.4,123.0 298.4,123.9 299.2,124.1 299.8,123.8 300.6,124.0 301.3,123.1 301.8,124.1 302.6,124.8 303.9,125.1 304.3,125.3 304.8,125.1 305.6,124.7 306.4,125.6 307.7,125.9 309.0,126.4 310.2,126.4 310.8,126.0 311.4,126.3 312.3,125.8 312.9,125.4 313.4,126.1 313.8,126.5 314.2,126.6 314.6,127.0 314.9,127.1 315.3,127.0 315.7,126.6 316.1,125.9 316.7,125.2 317.6,125.3 318.5,125.7 318.8,125.5 319.1,124.9 319.7,124.8 320.2,125.4 320.6,125.0 321.2,125.8 321.6,126.6 322.0,126.7 322.4,127.7 322.7,128.4 323.1,127.7 323.5,128.4 324.0,127.5 325.1,127.4 325.3,126.1 325.6,126.5 326.2,126.3 326.9,126.0 327.7,126.0 328.2,126.0 328.6,126.8 329.2,126.4 329.8,127.0 330.6,127.3 331.1,126.9 331.7,127.6 332.5,127.6 333.3,126.9 334.2,126.5 334.9,126.7 335.6,126.5 336.6,126.8 337.2,128.1 337.6,128.1 338.4,128.5 339.2,128.6 340.0,127.8 340.7,127.9 341.6,128.2 342.5,128.3 343.3,128.0 344.1,127.0 345.3,127.3 346.2,128.1 346.8,128.7 347.7,128.7 348.5,128.9 349.0,128.1 349.5,127.8 350.3,127.5 351.4,127.0 352.8,126.3 354.3,127.1 355.1,128.2 355.4,128.7 356.2,128.3 357.4,128.4 358.2,128.9 358.9,128.4 359.1,129.1 360.3,128.8 361.5,128.8 362.6,129.4 363.8,129.1 364.6,128.0 365.2,127.9 365.9,128.5 366.6,129.3 367.1,129.0 368.1,129.4 368.5,128.8 370.0,128.0 370.2,129.7 370.5,129.1 371.6,129.0 373.2,127.9 374.4,127.5 375.0,128.3 376.1,129.0 377.4,129.0 379.2,128.3 380.8,128.1 382.3,128.2 383.1,129.2 384.0,129.8 385.0,129.0 386.4,129.1 387.7,129.4 388.3,130.2 389.2,130.2 389.8,129.8 390.5,129.4 391.6,129.9 392.3,130.6 392.8,131.1 393.8,129.3 395.3,129.6 396.1,129.5 397.4,128.6 397.9,127.2 398.7,127.2 399.4,127.9 400.0,128.9 400.5,128.6 401.5,128.2 402.7,127.9 404.1,128.7 405.7,128.2 407.0,128.7 407.8,128.8 409.0,128.7 409.2,128.5 410.5,129.2 411.4,129.5 413.0,128.8 414.5,127.2 415.2,125.9 415.7,125.3 416.4,124.7 417.3,126.4 418.2,125.2 419.0,125.6 420.0,126.6 420.9,126.4 422.3,128.1 423.4,128.7 424.0,128.8 425.0,128.1 426.1,127.3 427.1,128.0 428.4,129.1 429.0,129.8 429.6,129.1 430.3,128.6 431.3,129.1 432.3,129.0 433.4,129.2 434.7,129.4 435.7,127.9 436.5,128.2 437.7,127.6 438.7,126.7 440.4,127.0 442.6,127.9 444.8,126.9 447.1,126.9 448.4,127.9 449.7,127.6 450.6,127.9 451.7,128.0 453.2,128.1 454.5,127.6 455.3,127.5 457.1,127.6 458.3,127.9 459.3,128.0 460.3,127.4 461.3,126.5 462.2,126.7 463.1,127.0 464.5,125.8 465.3,125.5 466.1,126.2 467.0,126.5 468.0,125.4 468.9,124.8 470.2,125.4 471.4,126.4 472.6,125.7 473.7,125.0 474.7,126.2 475.9,125.6 476.9,126.2 477.5,127.2 478.1,127.6 479.2,127.7 480.6,126.8 482.0,127.5 483.1,128.3 484.6,128.7 485.8,128.3 487.2,128.3 489.0,127.1 490.3,125.9 492.0,125.7 493.5,125.8 494.9,125.8 496.2,126.4 497.0,126.3 497.2,127.2 497.2,128.4 497.5,127.7 498.5,127.1 498.7,128.2 499.5,128.1 500.1,127.7 500.7,127.3 501.6,126.7 503.0,126.7 504.1,126.7 505.7,127.5 506.7,127.3 507.5,127.1 508.9,125.8 510.0,126.3 511.4,125.4 512.0,126.2 512.3,126.2 513.4,126.7 515.1,127.1 516.1,127.1 517.3,126.2 518.9,126.2 520.0,126.3 522.1,126.0 523.8,126.8 524.8,126.3 525.3,126.0 526.3,125.9 527.9,125.2 529.4,126.3 530.5,126.4 531.4,126.4 532.2,126.5 533.0,126.2 534.0,125.7 535.3,125.3 536.4,124.8 537.3,123.8 538.3,124.2 539.9,123.6 540.7,123.0 541.4,122.4 541.9,122.0 542.3,122.3 542.8,122.8 542.9,121.1 542.9,120.4 543.2,120.2 543.5,120.3 544.1,119.3 544.4,118.5 544.6,119.2 544.8,119.6 545.0,120.4 545.8,119.7 546.2,119.6 546.8,119.0 547.5,119.6 548.0,120.8 548.5,120.4 549.2,120.3 549.9,120.1 550.9,119.6 551.3,119.9 551.8,119.1 552.3,118.8 553.3,118.3 553.9,118.2 554.8,118.3 555.5,117.6 556.2,117.7 556.4,118.3 556.9,117.9 557.2,118.2 558.1,118.5 558.7,118.7 559.4,119.1 559.9,119.5 560.4,119.3 561.0,119.4 561.9,119.0 562.2,119.2 562.6,119.3 562.7,118.0 563.5,120.2 563.9,120.2 564.4,119.0 564.7,117.9 564.9,117.1 565.4,117.0 565.6,117.5 565.9,118.6 566.2,118.6 566.7,118.5 567.1,118.0 567.5,118.7 568.4,118.5 568.6,119.3 568.9,119.3 569.7,119.4 570.2,118.6 570.7,119.3 571.3,119.9 571.6,119.9 572.1,119.7 572.5,120.4 572.9,119.9 573.4,119.4 573.8,120.3 574.0,120.2 574.5,119.8 575.0,120.0 575.6,120.3 576.6,119.8 577.1,119.3 577.6,118.3 578.1,118.9 578.6,119.3 579.3,118.3 579.8,118.2 580.7,118.0 581.6,117.6 582.3,117.9 583.2,117.2 584.0,118.2 584.9,118.5 585.5,118.6 586.2,119.4 586.7,118.8 586.7,117.0 586.7,115.3 586.7,115.1 586.7,115.8 586.7,116.9 586.7,115.8 586.7,116.3 586.7,115.2 586.7,114.2 586.8,115.8 586.9,115.9 586.9,116.4 587.0,115.9 587.0,116.8 587.0,116.9 587.1,116.5 587.2,116.2 587.4,116.8 587.6,117.4 588.0,118.2 588.1,117.2 588.2,118.4 588.5,117.9 588.5,118.4 588.5,119.3 588.6,120.2 588.7,120.9 588.9,120.6 589.2,120.5 589.5,121.1 589.9,120.7 590.4,119.9 590.8,120.2 591.1,121.0 591.4,122.0 592.0,121.7 592.8,121.5 593.5,121.4 594.1,121.9 594.9,122.9 595.5,121.8 596.0,121.0 596.5,121.2 597.2,121.8 597.8,121.6 598.6,121.7 598.9,122.8 599.1,122.9 599.3,123.1 600.0,122.7 600.5,123.0 601.7,123.0 602.6,123.8 603.0,123.6 603.7,123.0 604.6,123.9 605.0,124.5 605.5,124.3 606.4,122.8 607.2,122.6 607.9,122.5 608.4,123.0 608.9,123.3 610.3,123.0 611.7,123.6 611.8,124.8 611.8,125.7 611.8,126.8 611.9,126.7 611.9,126.1 612.0,126.8 612.0,128.2 612.0,128.9 612.0,127.8 612.1,128.4 612.2,130.0 612.3,130.7 612.4,129.9 612.5,128.9 612.5,127.9 612.5,129.2 612.7,128.8 612.8,128.8 613.0,129.4 613.1,128.6 613.3,129.4 613.6,130.3 613.7,130.1 613.8,131.5 614.0,130.9 614.1,132.5 614.1,133.8 614.2,134.6 614.2,132.8 614.3,133.6 614.4,134.1 614.4,134.1 614.5,134.4 614.5,134.6 614.6,133.5 614.6,132.9 614.7,133.4 614.8,132.7 614.9,133.5 615.0,131.9 615.0,132.8 615.2,133.7 615.4,133.5 615.5,134.3 615.6,135.4 615.7,134.3 615.9,133.4 616.0,133.0 616.2,132.5 616.4,132.1 616.5,131.9 616.6,130.8 616.6,131.3 616.7,132.2 616.9,132.0 617.1,130.7 617.1,131.5 617.4,132.1 617.5,130.5 617.7,130.3 617.9,129.8 618.0,129.8 618.2,130.0 618.3,130.4 618.4,130.0 618.6,129.5 618.7,130.7 618.9,129.7 619.0,129.4 619.1,129.0 619.2,128.3 619.4,128.6 619.4,129.2 619.4,130.3 619.5,129.1 619.6,129.4 619.8,128.8 620.0,129.4 620.2,129.8 620.3,130.1 620.8,130.1 621.0,129.5 621.0,130.0 621.2,129.9 621.5,129.7 621.6,130.2 621.8,130.2 622.0,129.7 622.1,130.0 622.3,129.1 622.4,128.7 622.6,129.1 622.8,129.4 622.9,129.2 623.2,129.7 623.3,130.3 623.4,130.3 623.5,131.2 623.6,130.6 623.6,130.9 623.7,129.9 623.8,130.6 623.9,130.7 624.0,130.9 624.2,130.1 624.3,129.9 624.4,130.2 624.5,131.0 624.7,131.1 624.9,130.6 625.0,131.1 625.0,131.3 625.0,131.0 625.1,130.4 625.2,130.8 625.3,131.2 625.3,131.7 625.4,131.5 625.5,130.6 625.6,131.7 625.7,132.1 625.8,131.4 625.9,132.2 625.9,132.8 625.9,133.5 626.0,133.3 626.0,133.9 626.0,133.6 626.1,133.0 626.1,132.9 626.2,133.6 626.3,133.7 626.3,132.9 626.3,132.5 626.4,133.1 626.4,132.9 626.5,132.2 626.7,131.7 626.8,132.4 626.9,133.0 627.0,132.9 627.1,133.5 627.1,134.1 627.1,134.6 627.2,135.0 627.2,135.1 627.3,133.7 627.3,134.6 627.4,135.0 627.4,134.1 627.5,134.0 627.6,135.0 627.7,136.0 627.7,136.7 627.8,137.5 627.8,138.7 627.8,137.5 627.9,136.3 627.9,136.6 628.0,137.3 628.1,137.8 628.3,137.8 628.4,138.1 628.4,136.9 628.5,136.1 628.7,137.7 628.9,137.3 628.9,138.0 629.0,139.0 629.2,138.0 629.3,136.9 629.4,136.7 629.5,135.7 629.6,135.2 629.7,135.3 629.8,136.0 629.9,136.2 630.0,136.7 630.3,137.0 630.5,137.3 630.8,137.1 630.9,137.9 631.0,137.5 631.1,139.2 631.1,139.0 631.1,139.9 631.2,140.0 631.3,141.1 631.3,143.0 631.3,146.7 631.3,144.6 631.3,145.3 631.4,145.9 631.4,146.0 631.4,145.5 631.5,143.6 631.5,142.7 631.6,144.3 631.7,144.7 631.7,146.2 631.8,144.3 631.9,146.8 631.9,147.0 632.0,148.0 632.0,145.7 632.1,144.3 632.1,144.0 632.2,143.3 632.2,143.4 632.2,143.7 632.3,144.2 632.3,143.7 632.4,145.0 632.5,143.8 632.5,145.5 632.7,144.6 632.7,144.3 632.8,144.1 632.8,144.2 632.9,145.5 632.9,144.2 633.0,144.0 633.1,144.8 633.2,144.3 633.3,144.8 633.4,146.3 633.4,147.6 633.5,146.5 633.6,148.4 633.7,148.8 633.7,148.3 633.8,145.9 633.9,145.1 633.9,144.6 634.0,144.5 634.0,144.6 634.1,144.4 634.1,144.7 634.1,144.3 634.2,143.7 634.2,143.1 634.3,144.6 634.4,144.4 634.5,143.9 634.6,143.0 634.7,143.8 634.7,144.3 634.8,143.7 634.8,143.2 634.9,143.5 635.0,142.5 635.0,143.0 635.1,142.8 635.2,142.6 635.2,142.9 635.3,142.0 635.4,141.8 635.5,141.8 635.6,142.0 635.6,141.8 635.7,141.7 635.7,141.9 635.8,140.6 635.9,141.1 635.9,141.5 636.0,142.6 636.1,142.1 636.2,142.0 636.3,141.8 636.3,141.5 636.4,140.7 636.5,140.6 636.5,140.5 636.6,141.5 636.7,141.8 636.8,142.1 636.8,141.8 636.9,140.8 637.0,141.8 637.1,142.8 637.1,142.4 637.2,143.1 637.3,143.5 637.3,143.8 637.4,143.5 637.5,143.0 637.5,142.8 637.6,142.9 637.7,142.1 637.7,142.3 637.8,142.0 637.9,142.3 638.0,142.0 638.1,141.8 638.2,142.4 638.2,142.5 638.3,142.4 638.4,141.5 638.4,141.8 638.5,141.2 638.6,140.9 638.7,140.1 638.8,140.0 638.9,140.2 639.0,139.6 639.1,139.8 639.3,139.2 639.5,138.7 639.6,138.8 639.8,138.9 639.8,138.8 639.9,139.5 640.0,140.1 640.4,140.4 640.4,140.4 640.5,139.4 640.7,139.4 640.7,140.1 640.8,140.2 640.8,139.7 640.9,139.8 640.9,140.5 641.0,140.4 641.0,140.9 641.1,141.1 641.2,141.0 641.2,141.1 641.3,141.2 641.3,141.9 641.3,141.9 641.4,140.9 641.5,141.4 641.5,141.3 641.6,141.8 641.7,141.4 641.7,141.3 641.7,140.7 641.8,140.8 641.8,140.7 641.9,140.6 641.9,140.7 642.0,140.3 642.0,141.3 642.1,141.9 642.1,141.8 642.1,141.8 642.2,141.7 642.2,142.1 642.3,141.5 642.3,141.9 642.4,142.0 642.5,141.8 642.5,142.8 642.6,141.5 642.7,141.6 642.7,141.5 642.8,141.1 642.8,141.7 643.0,141.4 643.2,141.1 643.3,140.7 643.4,141.3 643.7,140.9 643.8,141.7 643.9,142.7 644.1,142.8 644.3,143.0 644.5,142.4 644.7,143.1 645.1,142.9 645.1,143.2 645.1,143.1 645.2,142.6 645.3,143.3 645.4,142.6 645.5,142.6 645.6,142.5 645.7,142.9 645.7,143.5 645.8,143.8 645.9,143.7 645.9,143.9 646.0,143.8 646.1,143.7 646.1,143.8 646.2,143.6 646.2,143.7 646.3,144.0 646.4,144.2 646.5,144.7 646.7,144.7 646.8,144.3 646.9,144.1 647.0,144.7 647.1,144.4 647.1,144.8 647.5,144.0 647.8,144.1 648.1,143.8 648.4,144.3 648.6,144.8 648.7,144.7 648.8,145.1 648.9,145.6 649.0,145.2 649.2,145.5 649.2,146.2 649.3,146.1 649.3,146.7 649.4,147.1 649.5,145.9 649.7,146.7 650.0,145.8 650.0,146.7 650.2,146.8 650.4,147.1 650.5,146.9 650.7,146.7 650.8,146.4 650.9,146.7 651.0,146.0 651.1,146.4 651.1,147.0 651.3,147.4 651.5,146.5 651.6,146.6 651.7,146.2 651.8,146.1 651.9,145.5 652.0,145.6 652.0,145.3 652.1,144.8 652.2,144.7 652.3,145.5 652.3,145.2 652.4,145.2 652.4,145.1 652.5,145.1 652.5,145.0 652.6,145.1 652.6,145.1 652.7,144.8 652.7,144.6 652.8,145.0 652.8,145.1 652.9,145.3 653.1,145.4 653.3,145.0 653.4,144.5 653.6,144.2 653.7,143.6 654.1,143.0 654.3,143.0 654.6,143.1 654.7,143.2 654.9,144.0 655.3,145.1 655.5,145.1 655.7,144.7 655.8,144.8 656.0,144.6 656.1,145.5 656.4,146.0 656.7,146.0 656.8,145.4 657.0,145.7 657.2,145.5 657.5,145.5 657.7,145.9 657.9,146.3 658.1,146.2 658.2,146.5 658.3,146.1 658.4,146.6 658.6,146.6 658.8,146.7 658.9,146.9 659.0,146.9 659.3,146.9 659.5,146.9 659.6,146.8 659.9,146.1 660.1,146.0 660.2,145.5 660.3,145.2 660.6,144.8 660.8,144.7 661.1,144.5 661.3,145.2 661.4,144.9 661.7,144.4 661.9,144.7 662.1,144.3 662.4,144.4 662.6,143.4 662.9,142.6 663.2,142.5 663.5,142.4 663.8,142.5 664.3,142.4 664.7,142.3 664.9,142.1 665.3,142.0 665.5,142.1 666.0,142.9 666.5,143.6 666.7,143.1 666.9,143.5 667.1,143.9 667.4,144.3 667.6,143.9 667.8,142.9 668.1,142.9 668.5,142.8 668.6,141.8 668.8,142.2 669.3,143.1 669.6,143.5 669.9,142.8 670.2,142.7 670.4,142.1 670.8,141.8 671.3,141.4 672.0,141.7 672.5,141.5 673.0,142.1 673.5,142.6 674.1,142.3 675.0,143.3 675.6,143.7 675.8,143.7 676.5,143.6 676.8,142.3 677.3,143.2 677.7,144.4 678.1,144.3 678.6,144.0 678.9,144.0 679.2,144.0 679.8,143.9 680.1,143.6 680.7,144.3 680.9,144.1 681.1,144.2 681.3,144.5 681.6,144.4 681.8,145.4 682.2,144.7 682.4,144.8 682.9,145.0 683.4,145.1 683.9,145.3 684.5,144.8 684.7,143.7 685.1,143.7 685.3,143.6 685.6,144.0 686.1,144.4 686.5,144.3 686.8,144.0 687.2,144.6 687.4,145.2 687.6,145.1 687.8,145.2 688.0,144.9 688.5,144.5 688.9,145.3 689.2,145.5 689.4,145.2 690.0,145.3 690.3,144.7 690.6,145.2 691.0,145.4 691.2,145.0 691.4,144.6 691.6,143.6 691.8,143.3 692.1,144.1 692.4,144.7 692.8,145.3 693.1,145.9 693.3,145.7 693.5,145.8 693.7,145.6 694.0,145.7 694.4,145.2 694.6,144.4 694.8,144.8 695.0,145.0 695.5,144.5 696.0,144.9 696.4,145.4 696.8,146.3 697.1,146.2 697.5,145.3 698.0,144.5 698.3,144.3 699.0,145.0 699.6,145.3 700.3,145.9 700.6,145.5 701.0,145.1 701.6,144.6 702.1,144.5 702.3,144.3 702.6,144.7 702.8,145.5 703.1,145.1 703.3,145.4 703.6,146.3 704.1,146.3 704.5,146.9 704.9,146.9 705.2,147.0 705.6,147.8 706.0,148.5 706.1,148.8 706.4,148.6 706.7,149.0 706.9,149.8 707.0,149.4 707.2,149.8 707.5,149.8 707.8,150.3 707.8,150.1 708.1,150.3 708.5,150.9 708.7,150.8 709.0,150.2 709.3,150.6 709.6,150.3 710.0,151.0 710.5,150.7 710.8,150.0 711.1,150.2 711.3,150.3 711.5,151.5 711.5,151.8 711.7,152.3 711.7,152.8 711.9,152.4 712.0,153.0 712.1,153.0 712.1,152.1 712.3,151.5 712.4,151.2 712.6,150.4 712.9,150.4 713.1,149.3 713.3,149.0 713.6,149.4 714.0,149.4 714.3,149.6 714.5,149.8 714.8,149.9 715.1,150.3 715.3,150.6 715.6,150.5 715.9,150.2 716.4,149.9 716.9,149.9 717.3,149.2 717.7,149.4 718.1,150.2 718.8,149.8 720.0,150.1 720.5,150.2 720.7,150.5 721.1,150.2 721.4,149.6 721.8,149.3 721.9,149.7 722.2,149.9 723.0,149.2 723.4,149.2 723.9,148.2 724.3,149.2 724.5,149.5 725.2,148.4 725.8,149.1 726.3,148.5 727.0,148.2 728.0,149.3 728.4,148.6 728.8,148.0 729.6,148.1 730.1,148.2 730.9,148.5 731.5,149.4 732.7,148.2 733.3,148.9 734.2,148.6 735.3,148.7 736.2,148.7 737.2,149.8 738.0,150.4 738.8,150.2 739.9,149.9 740.8,150.5 742.0,150.9 742.7,151.0 743.4,150.8 744.0,151.7 744.0,151.8 744.3,151.0 744.8,150.8 745.6,150.1 746.1,149.9 747.0,150.0 747.6,150.5 748.5,151.4 748.9,152.1 749.2,151.7 749.5,151.5 749.8,150.9 750.4,151.4 750.8,150.5 751.7,151.2 752.6,151.0 752.9,150.6 753.4,150.7 754.1,150.4 754.7,150.9 755.6,151.4 756.1,151.1 756.8,150.8 757.6,151.6 758.7,152.5 758.9,153.2 758.9,153.7 759.3,153.5 759.5,154.3 759.8,153.6 760.1,153.7 760.5,154.2 760.8,155.2 760.9,155.2 761.0,156.2 761.0,157.7 761.0,156.4 761.0,156.4 761.0,156.1 761.2,155.4 761.4,155.3 761.7,155.3 761.8,155.3 761.9,155.0 762.1,155.2 762.2,154.9 762.5,154.9 762.7,155.6 762.8,155.9 762.9,155.4 763.1,155.6 763.3,155.0 763.6,155.3 763.7,155.2 764.0,155.6 764.1,155.2 764.2,155.2 764.4,155.8 764.5,155.5 764.8,156.3 765.0,156.8 765.2,155.8 765.3,155.7 765.3,155.6 765.4,155.7 765.4,156.1 765.5,155.7 765.6,155.8 765.7,156.0 765.8,155.5 765.8,155.9 765.9,156.2 766.4,155.6 767.1,156.3 767.6,155.9 767.8,156.4 768.0,156.6 768.2,156.5 768.2,156.0 768.5,156.5 768.7,157.3 768.7,157.5 768.7,157.4 768.8,157.3 768.8,157.3 768.9,157.2 769.0,157.8 769.1,157.7 769.3,156.6 769.5,157.4 769.7,157.5 769.9,157.7 770.1,156.9 770.4,156.5 770.7,155.7 771.0,154.8 771.1,155.4 771.6,155.9 771.9,156.2 772.3,156.4 772.5,157.7 772.7,158.0 772.8,158.7 772.9,159.1 772.9,159.3 772.9,158.7 773.0,158.9 773.2,159.2 773.3,160.1 773.3,160.5 773.3,161.3 773.4,160.6 773.4,160.9 773.4,161.0 773.5,161.5 773.5,162.2 773.5,163.1 773.5,163.4 773.5,163.1 773.6,161.6 773.6,160.8 773.7,159.9 773.7,159.9 773.8,159.7 773.9,159.3 774.0,159.3 774.1,158.7 774.1,158.8 774.3,158.9 774.5,158.0 774.6,158.1 774.7,158.9 774.8,159.4 775.0,158.9 775.1,159.0 775.2,159.5 775.4,159.8 775.5,159.7 775.5,160.5 775.6,160.9 775.7,160.5 775.9,160.2 776.0,159.9 776.1,160.0 776.5,159.4 776.7,159.6 776.8,159.9 777.1,158.4 777.4,159.0 777.6,158.3 778.0,158.4 778.3,158.2 778.7,157.8 778.8,158.2 779.1,159.0 779.5,159.0 779.7,158.9 779.9,159.3 780.1,159.5 780.3,159.1 780.5,158.2 780.7,157.9 780.8,157.9 780.9,158.3 781.3,158.0 781.6,157.3 782.0,157.3 782.2,156.3 782.5,156.0 782.9,155.4 783.1,156.0 783.5,157.2 783.8,156.7 784.3,155.8 784.6,156.0 785.1,156.0 785.4,156.1 785.6,156.8 785.8,157.5 786.1,158.2 786.5,158.7 786.8,158.4 787.0,158.2 787.3,158.4 787.6,158.2 787.9,159.1 788.2,159.1 788.4,159.6 788.7,159.4 789.2,158.9 789.7,158.4 789.8,157.4 790.2,157.6 790.5,158.2 790.8,158.4 791.2,158.6 791.5,158.2 791.8,158.4 792.2,158.7 792.5,158.5 792.8,159.2 793.1,158.1 793.4,157.8 794.0,157.4 794.4,157.4 794.6,158.0 794.9,157.7 795.3,156.3 795.8,157.6 796.4,157.3 797.0,158.5 797.3,158.4 797.9,157.1 798.5,156.9 799.0,156.0 799.1,156.0 799.5,156.9 799.9,156.0 800.2,156.3 800.5,156.0 801.1,155.2 801.6,155.0 802.4,155.9 802.9,155.4 803.7,155.1 804.4,154.5 805.1,154.6 805.5,154.4 806.0,154.9 807.4,154.3 808.2,154.6 808.9,154.6 809.5,155.5 810.1,156.1 810.7,156.9 811.3,156.5 811.9,155.6 812.8,155.8 813.8,155.8 814.6,155.5 815.6,155.9 816.4,155.8 817.5,155.7 817.7,155.9 818.5,156.4 819.3,156.5 820.5,156.7 821.2,157.4 821.2,157.7 821.2,158.7 821.3,159.3 821.3,158.2 821.4,159.1 821.5,159.7 821.6,159.9 821.7,159.1 821.8,158.6 821.8,158.8 821.9,159.7 822.0,160.2 822.0,160.4 822.1,161.1 822.2,160.4 822.3,160.4 822.3,159.7 822.4,160.5 822.4,160.7 822.5,160.5 822.6,161.4 822.6,161.2 822.7,161.1 822.7,161.9 822.8,162.9 822.8,163.8 822.8,164.2 822.9,164.7 822.9,165.2 822.9,163.7 823.0,163.4 823.0,162.9 823.0,163.2 823.1,162.9 823.1,162.2 823.2,162.8 823.3,163.3 823.4,164.7 823.4,166.0 823.4,167.3 823.4,167.7 823.5,167.3 823.5,166.4 823.6,165.6 823.6,166.9 823.7,166.8 823.7,167.6 823.8,167.0 823.8,166.7 823.9,166.3 824.0,166.0 824.1,164.5 824.1,165.4 824.2,166.0 824.3,166.3 824.3,166.4 824.5,166.2 824.6,167.7 824.6,169.8 824.7,171.7 824.7,171.0 824.7,172.7 824.8,172.4 824.8,172.1 824.8,172.5 824.8,172.5 824.8,173.1 824.8,172.7 824.8,173.0 824.8,172.0 824.9,175.1 824.9,178.3 824.9,178.9 824.9,181.6 825.0,177.6 825.1,175.2 825.1,176.7 825.2,175.1 825.3,176.9 825.3,176.9 825.3,176.0 825.4,174.8 825.5,174.7 825.5,176.6 825.5,176.9 825.6,175.8 825.7,175.8 825.7,176.4 825.8,175.6 825.9,175.0 825.9,176.1 826.0,176.5 826.1,177.4 826.1,176.7 826.2,175.4 826.2,176.2 826.3,177.5 826.4,178.3 826.4,179.4 826.5,178.8 826.5,178.4 826.6,178.7 826.6,179.5 826.6,180.2 826.7,182.4 826.7,185.1 826.8,185.7 826.8,187.2 826.9,194.3 827.0,193.5 827.0,190.4 827.0,185.4 827.0,189.9 827.1,189.0 827.1,189.7 827.1,189.4 827.1,191.1 827.2,191.6 827.2,189.6 827.2,188.3 827.2,188.0 827.3,186.9 827.4,187.6 827.4,189.4 827.4,188.6 827.5,191.2 827.5,191.8 827.5,193.5 827.6,194.3 827.6,193.6 827.6,192.3 827.7,193.6 827.7,192.8 827.8,193.5 827.8,189.6 827.8,190.2 827.9,189.9 828.0,188.3 828.1,188.0 828.2,188.5 828.3,188.7 828.3,187.9 828.4,186.7 828.4,186.5 828.5,186.4 828.5,187.9 828.6,188.8 828.6,187.4 828.7,186.6 828.7,185.9 828.8,187.3 828.8,187.4 828.8,186.9 828.9,186.6 828.9,185.3 829.0,184.7 829.1,185.6 829.1,186.4 829.2,187.0 829.2,185.9 829.2,186.9 829.3,187.3 829.3,186.9 829.3,187.7 829.4,188.5 829.4,187.3 829.5,187.8 829.5,186.6 829.5,186.1 829.6,185.9 829.6,186.6 829.7,185.8 829.7,185.7 829.8,185.1 829.9,184.7 829.9,184.4 830.0,183.9 830.1,183.9 830.1,184.7 830.2,184.9 830.2,184.9 830.3,184.3 830.4,184.4 830.4,185.7 830.5,185.8 830.6,185.2 830.6,184.3 830.7,184.4 830.8,184.9 830.9,185.1 831.0,184.6 831.0,184.9 831.1,185.0 831.2,184.9 831.3,184.7 831.3,184.1 831.3,182.8 831.4,182.2 831.4,182.3 831.5,182.7 831.6,183.5 831.7,183.0 831.7,184.0 831.8,184.2 831.8,184.1 831.8,183.6 831.9,183.5 832.0,183.9 832.0,184.2 832.1,184.8 832.3,185.1 832.3,185.7 832.4,184.5 832.4,183.7 832.5,183.8 832.5,184.8 832.7,183.3 832.8,182.8 832.9,182.6 833.0,182.8 833.2,184.4 833.4,185.6 833.5,185.9 833.6,185.5 833.7,186.1 833.9,187.1 834.0,186.8 834.1,187.4 834.2,186.9 834.2,188.6 834.3,187.1 834.3,188.1 834.4,188.4 834.5,190.9 834.5,191.9 834.6,192.0 834.7,192.8 834.8,196.8 834.8,200.1 834.8,206.5 834.9,206.7 834.9,211.6 835.0,210.2 835.1,224.1 835.1,219.4 835.2,218.0 835.4,212.4 835.5,216.9 835.5,221.1 835.6,223.8 835.6,227.1 835.7,243.5 835.8,238.0 835.8,233.4 835.9,228.3 836.0,227.4 836.1,226.5 836.2,225.9 836.3,234.3 836.5,230.1 836.5,233.2 836.6,239.5 836.7,249.9 836.7,256.0 836.8,254.7 836.8,245.4 836.9,251.0 836.9,248.4 837.0,250.9 837.0,257.5 837.1,278.4 837.1,283.3 837.2,276.9 837.2,280.1 837.3,284.1 837.3,279.9 837.4,286.9 837.5,291.8 837.6,316.7 837.6,322.0 837.7,311.8 837.7,316.1 837.8,327.4 837.9,329.6 838.0,348.3 838.1,365.8 838.2,378.6 838.4,369.6 838.5,386.1 838.6,400.5 838.9,414.7 839.0,420.2 839.1,416.5 839.3,425.4 839.5,425.8 839.7,429.1 839.8,428.4 839.9,428.1 840.0,407.7 840.2,421.4 840.3,416.2 840.6,417.1 840.7,407.9 841.0,402.6 841.2,408.6 841.4,399.6 841.7,399.1 841.9,390.8 841.9,389.3 842.1,387.5 842.3,389.7 842.5,392.4 842.8,389.9 843.0,402.7 843.1,373.3 843.2,370.2 843.3,381.4 843.5,361.0 843.6,358.0 843.7,351.6 843.7,349.4 843.8,341.1 844.0,341.4 844.0,341.0 844.1,338.6 844.2,332.6 844.3,327.3 844.5,336.3 844.8,321.8 844.9,321.9 845.2,332.6 845.4,323.3 845.6,339.2 845.8,327.0 846.0,312.1 846.2,309.1 846.4,327.4 846.6,331.8 846.8,322.7 847.0,337.3 847.2,324.5 847.4,324.2 847.5,320.1 847.6,322.9 847.8,312.8 847.9,321.1 848.0,322.7 848.2,315.4 848.3,323.6 848.3,312.1 848.5,310.2 848.8,316.0 849.0,330.2 849.1,314.4 849.2,325.6 849.4,317.6 849.5,334.0 849.6,314.6 849.8,328.2 850.0,330.3 850.2,333.7 850.3,323.7 850.4,330.5 850.6,333.7 850.8,300.3 850.9,316.1 851.0,326.1 851.2,317.7 851.3,330.4 851.5,313.1 851.6,324.4 851.8,315.3 851.9,302.0 852.0,317.0 852.2,308.0 852.4,308.8 852.6,317.4 852.8,304.9 853.0,309.3 853.2,313.0 853.3,299.2 853.4,291.7 853.5,286.5 853.7,295.9 853.9,295.8 854.0,273.8 854.1,288.7 854.2,277.2 854.4,285.5 854.4,277.9 854.5,285.4 854.6,280.6 854.6,267.9 854.7,275.5 854.8,278.0 855.0,271.9 855.1,268.2 855.2,273.5 855.3,269.6 855.4,263.1 855.5,268.9 855.6,267.8 855.6,264.6 855.7,259.5 855.8,266.5 855.9,272.5 856.0,277.0 856.1,280.4 856.2,274.6 856.3,269.7 856.4,275.2 856.5,265.2 856.6,257.6 856.7,264.0 856.8,272.6 856.9,260.8 856.9,265.9 857.0,267.0 857.1,267.2 857.3,265.6 857.4,264.5 857.6,268.5 857.8,273.3 857.9,264.9 858.1,271.2 858.3,271.9 858.5,271.8 858.6,260.1 858.8,266.9 858.9,271.4 859.1,273.9 859.2,276.5 859.4,274.2 859.5,274.0 859.6,273.7 859.7,274.6 859.9,269.4 860.0,264.6 860.1,267.3 860.2,264.9 860.4,274.1 860.5,275.1 860.6,269.7 860.8,272.3 860.9,266.7 861.0,270.1 861.1,269.6 861.2,276.8 861.4,272.8 861.6,268.4 861.6,266.2 861.7,263.9 861.8,262.7 861.9,262.2 862.0,265.7 862.2,264.5 862.3,266.6 862.5,267.9 862.7,267.1 862.8,266.8 862.9,265.9 863.0,268.0 863.1,268.5 863.1,271.6 863.3,269.7 863.3,268.2 863.3,268.1 863.3,269.2 863.4,269.0 863.4,269.9 863.4,270.9 863.4,271.9 863.4,271.4 863.5,273.2 863.5,272.5 863.5,271.8 863.5,270.1 863.5,269.1 863.5,270.3 863.6,270.1 863.6,269.3 863.7,269.4 863.7,269.2 863.7,269.4 863.8,269.9 863.8,271.4 863.9,271.3 863.9,269.6 863.9,268.9 863.9,268.0 863.9,270.2 864.0,269.9 864.0,270.8 864.0,271.0 864.0,270.9 864.0,272.3 864.1,272.4 864.1,274.0 864.1,272.5 864.2,272.8 864.2,274.0 864.2,274.6 864.3,275.2 864.3,277.1 864.4,274.2 864.5,277.4 864.5,273.0 864.5,272.0 864.5,272.8 864.5,272.9 864.6,273.6 864.6,274.8 864.6,274.5 864.6,275.0 864.6,275.6 864.6,275.3 864.6,276.7 864.6,274.8 864.7,274.0 864.7,273.6 864.7,274.3 864.7,275.0 864.7,274.9 864.7,275.8 864.7,275.1 864.8,274.7 864.8,275.2 864.8,277.0 864.8,276.7 864.9,278.4 864.9,278.6 865.0,278.7 865.1,277.6 865.1,277.0 865.1,277.8 865.1,279.1 865.1,279.5 865.2,283.3 865.2,282.3 865.2,284.2 865.2,283.7 865.3,282.3 865.3,281.3 865.4,279.0 865.4,281.6 865.5,278.7 865.6,280.7 865.7,279.2 865.7,278.4 865.7,281.4 865.8,282.1 865.8,282.0 865.8,282.6 865.9,283.8 865.9,283.8 866.0,291.2 866.1,296.1 866.1,291.8 866.2,296.6 866.3,295.9 866.3,297.4 866.3,295.1 866.3,292.2 866.3,290.7 866.3,287.7 866.4,286.5 866.4,284.4 866.4,284.3 866.4,283.9 866.5,282.5 866.5,284.9 866.6,284.9 866.6,286.1 866.7,286.1 866.7,284.6 866.8,284.5 866.9,286.5 866.9,287.9 866.9,287.2 866.9,284.9 867.0,284.1 867.0,286.2 867.1,287.2 867.1,287.6 867.1,287.9 867.2,285.7 867.2,284.6 867.3,286.6 867.3,287.6 867.4,287.3 867.4,284.9 867.5,284.0 867.5,286.6 867.5,286.8 867.6,287.1 867.6,287.3 867.7,286.5 867.7,285.7 867.8,283.9 867.8,284.7 867.9,282.6 868.0,285.1 868.0,286.1 868.1,283.1 868.1,283.0 868.2,283.8 868.2,283.7 868.3,284.8 868.4,281.2 868.4,285.4 868.4,285.5 868.4,284.8 868.5,286.0 868.5,281.0 868.6,281.2 868.7,284.0 868.8,282.7 869.0,282.6 869.1,279.7 869.2,279.9 869.2,280.6 869.3,276.9 869.5,281.3 869.8,281.7 869.9,281.0 869.9,280.8 870.1,283.8 870.2,280.2 870.2,278.3 870.4,279.8 870.5,278.9 870.6,276.1 870.6,276.7 870.7,274.6 870.8,272.7 870.8,276.2 870.9,277.7 870.9,276.2 871.1,279.4 871.1,277.5 871.3,279.1 871.4,281.0 871.4,282.0 871.5,279.2 871.7,285.2 872.0,279.6 872.3,279.4 872.4,281.7 872.6,280.7 872.9,278.7 873.0,279.8 873.1,279.3 873.2,278.8 873.4,275.9 873.5,278.6 873.6,274.4 873.7,275.9 873.9,279.4 873.9,277.7 874.0,278.3 874.2,278.0 874.3,280.0 874.5,282.5 874.6,277.6 874.7,278.2 874.8,277.7 875.2,278.5 875.4,278.8 875.4,276.3 875.7,279.6 875.8,279.1 876.0,279.5 876.1,277.3 876.2,278.4 876.3,277.8 876.4,277.1 876.4,277.4 876.5,276.9 876.5,278.8 876.6,280.5 876.7,281.2 876.7,281.3 876.7,282.0 876.8,283.1 876.8,281.5 876.9,282.1 877.0,278.7 877.0,280.6 877.0,279.3 877.0,278.2 877.1,279.9 877.2,280.3 877.2,278.7 877.2,278.1 877.3,277.4 877.4,277.0 877.5,278.4 877.6,278.6 877.6,278.7 877.7,276.5 877.7,279.0 877.8,278.2 877.9,280.4 878.1,280.6 878.2,278.1 878.2,278.4 878.3,277.6 878.4,277.9 878.5,278.1 878.6,280.4 878.7,280.4 878.7,281.4 878.8,282.5 878.8,280.3 878.9,280.4 878.9,281.6 879.0,282.6 879.1,282.6 879.2,282.1 879.3,281.5 879.4,281.0 879.4,281.6 879.5,280.7 879.6,280.8 879.7,279.9 879.8,280.1 879.9,280.7 880.0,282.6 880.0,281.4 880.1,280.3 880.3,279.9 880.4,280.4 880.5,281.2 880.5,281.7 880.6,280.3 880.7,280.5 880.8,280.8 880.9,280.8 881.0,278.1 881.1,279.1 881.1,280.5 881.2,280.6 881.2,280.8 881.3,279.7 881.4,279.2 881.5,280.0 881.7,279.0 881.8,278.9 881.8,280.7 881.9,279.0 882.1,279.0 882.1,280.9 882.2,281.9 882.2,281.8 882.3,281.1 882.4,279.5 882.5,280.1 882.6,279.9 882.6,277.5 882.7,278.5 882.9,279.3 882.9,278.1 883.0,277.0 883.1,275.1 883.1,274.7 883.1,275.6 883.2,275.5 883.3,276.2 883.4,276.2 883.4,276.1 883.4,275.7 883.5,274.9 883.5,275.0 883.6,274.7 883.7,275.6 883.8,276.0 883.9,276.2 884.0,275.6 884.1,273.8 884.1,271.4 884.1,273.4 884.2,272.2 884.3,273.1 884.4,272.3 884.5,271.6 884.6,273.3 884.7,273.5 884.7,271.4 884.8,272.0 884.9,270.7 884.9,271.2 884.9,272.2 885.0,271.9 885.2,272.9 885.3,272.4 885.4,273.1 885.4,272.3 885.5,272.5 885.5,271.6 885.6,271.7 885.8,272.2 885.9,270.9 885.9,271.2 886.0,270.7 886.0,270.2 886.1,269.1 886.1,269.5 886.2,268.8 886.2,270.0 886.3,269.2 886.4,267.9 886.5,269.1 886.5,268.3 886.6,269.4 886.7,269.9 886.8,271.6 886.9,270.5 887.0,271.4 887.1,271.8 887.2,272.4 887.3,271.7 887.4,269.3 887.5,269.6 887.6,269.7 887.7,269.0 887.7,269.3 887.9,269.1 888.0,269.5 888.4,268.0 888.5,266.8 888.6,267.1 888.7,266.8 888.8,267.3 889.0,267.3 889.2,266.7 889.3,268.0 889.4,268.4 889.6,267.6 889.8,267.9 890.1,267.2 890.2,268.5 890.5,267.1 890.8,267.1 891.1,266.7 891.3,266.7 891.5,264.6 891.8,264.2 891.9,265.0 891.9,264.6 892.0,266.4 892.0,266.3 892.0,264.2 892.0,264.5 892.1,263.4 892.2,263.3 892.4,264.3 892.5,263.6 892.6,262.9 892.6,260.9 892.6,261.7 892.7,262.3 892.7,262.2 892.7,261.1 892.8,260.3 892.8,262.0 893.0,263.8 893.1,263.7 893.1,264.7 893.2,263.6 893.3,264.1 893.4,264.4 893.5,263.2 893.6,263.9 893.7,264.1 893.7,264.2 893.8,263.1 893.9,263.9 894.0,264.5 894.1,264.6 894.2,263.9 894.2,263.8 894.2,264.4 894.3,264.0 894.3,264.7 894.4,264.6 894.5,263.2 894.6,263.4 894.7,263.1 894.7,262.8 894.8,263.1 894.9,262.8 895.0,263.8 895.1,263.5 895.2,261.9 895.3,261.1 895.3,261.5 895.4,263.3 895.4,262.6 895.4,263.2 895.4,263.7 895.5,262.8 895.6,264.8 895.7,263.9 895.8,261.6 895.9,261.2 895.9,260.9 896.0,260.3 896.0,257.6 896.1,257.8 896.1,258.1 896.1,259.7 896.2,257.6 896.2,256.5 896.3,256.6 896.4,255.4 896.4,256.0 896.5,258.4 896.6,259.9 896.6,260.4 896.7,259.6 896.8,259.4 897.0,259.3 897.2,261.0 897.3,260.4 897.4,260.8 897.6,260.5 897.8,259.8 897.8,257.9 897.9,257.9 898.0,257.8 898.0,257.1 898.1,256.6 898.3,256.6 898.4,258.5 898.5,259.2 898.7,260.2 899.0,258.8 899.1,259.7 899.3,259.6 899.4,260.0 899.5,260.1 899.6,259.5 900.0,260.6 900.2,259.4 900.3,260.5 900.5,259.7 900.7,260.4 900.8,261.1 900.9,260.6 901.2,260.3 901.4,260.3 901.4,261.7 901.5,261.4 901.6,261.1 901.7,261.4 901.9,261.5 901.9,260.7 902.0,260.4 902.0,260.1 902.1,260.9 902.2,261.7 902.4,261.8 902.6,261.9 902.8,261.2 903.1,261.4 903.3,261.5 903.4,263.3 903.4,265.1 903.5,261.1 903.7,260.9 903.8,260.5 903.9,260.4 903.9,257.6 904.0,251.5 904.0,247.8 904.0,248.3 904.0,247.2 904.0,243.6 904.0,242.0 904.0,244.7 904.0,241.8 904.0,239.5 904.0,235.5 904.0,240.5 904.0,239.2 904.0,245.2 904.0,233.8 904.0,237.1 904.1,242.6 904.1,242.6 904.2,245.2 904.2,247.2 904.3,250.4 904.3,249.2 904.4,249.9 904.4,252.6 904.5,253.5 904.6,253.7 904.6,253.8 904.6,253.0 904.7,253.7 904.8,254.9 904.9,254.5 905.0,253.5 905.0,253.6 905.1,254.6 905.2,255.4 905.3,255.5 905.4,254.7 905.5,255.0 905.5,254.1 905.6,253.6 905.7,253.5 905.8,255.2 906.0,255.5 906.1,255.6 906.2,256.2 906.4,255.7 906.5,256.0 906.7,255.6 906.8,255.5 906.9,255.3 907.1,254.0 907.3,254.2 907.4,253.0 907.5,253.4 907.6,253.0 907.7,252.9 907.8,252.3 907.9,253.1 908.1,252.1 908.3,251.6 908.5,251.3 908.6,249.5 908.8,250.4 908.9,249.6 909.1,250.1 909.1,250.1 909.3,251.3 909.5,250.2 909.7,249.7 909.8,250.4 910.0,249.5 910.1,248.7 910.3,248.7 910.4,249.1 910.6,248.4 910.6,250.0 910.7,249.9 910.9,249.8 911.0,249.9 911.1,248.9 911.2,248.7 911.2,249.0 911.3,248.3 911.3,247.3 911.4,248.8 911.5,248.3 911.5,245.1 911.6,244.5 911.6,245.3 911.6,246.1 911.6,246.4 911.7,246.4 911.8,246.5 911.9,247.2 911.9,247.7 912.1,246.8 912.2,246.9 912.3,246.3 912.4,246.4 912.5,246.9 912.6,247.5 912.7,248.0 912.8,247.6 912.8,247.4 912.8,247.4 912.9,247.3 913.1,247.8 913.3,247.2 913.4,247.5 913.4,247.2 913.6,246.9 913.7,246.3 913.8,241.7 913.8,244.6 913.8,243.8 914.0,244.9 914.2,241.9 914.3,241.9 914.3,243.2 914.4,241.9 914.5,241.8 914.5,240.0 914.6,239.0 914.6,238.8 914.7,238.9 914.8,239.5 914.9,239.2 915.0,239.0 915.1,239.6 915.1,239.6 915.1,238.6 915.2,238.6 915.2,237.1 915.2,238.2 915.3,239.4 915.3,238.9 915.3,238.7 915.4,239.0 915.5,239.1 915.6,238.5 915.6,238.0 915.7,238.8 915.8,238.5 916.0,237.5 916.0,239.2 916.0,239.7 916.1,239.6 916.2,239.3 916.2,240.7 916.3,240.5 916.4,240.3 916.4,240.9 916.5,241.5 916.6,240.8 916.7,239.6 916.8,241.2 916.8,241.7 916.9,242.5 916.9,242.2 917.0,242.3 917.0,243.4 917.1,241.9 917.2,242.7 917.3,242.0 917.3,240.9 917.5,240.1 917.6,240.7 917.7,241.2 917.7,243.4 917.8,241.8 917.9,241.3 918.0,240.9 918.1,240.7 918.1,241.1 918.2,240.2 918.3,241.3 918.4,241.2 918.5,241.2 918.6,240.2 918.6,240.2 918.7,240.4 918.8,239.5 918.9,238.9 919.0,239.0 919.1,239.4 919.2,239.3 919.3,239.0 919.4,238.1 919.4,237.5 919.4,237.1 919.5,237.7 919.5,236.7 919.6,237.7 919.6,236.2 919.7,236.3 919.8,236.4 919.8,236.4 919.8,233.2 919.8,234.6 919.9,234.7 919.9,235.6 920.0,235.3 920.0,234.9 920.0,234.8 920.1,235.0 920.1,235.0 920.1,235.0 920.2,235.2 920.2,234.6 920.3,236.0 920.4,235.4 920.5,234.8 920.6,232.5 920.7,232.8 920.8,233.6 920.8,233.4 920.9,233.3 920.9,233.9 921.0,233.8 921.0,233.4 921.1,233.8 921.2,233.2 921.3,233.8 921.4,233.7 921.5,234.1 921.6,234.1 921.7,233.9 921.7,233.9 921.8,234.4 921.8,235.4 921.9,235.6 921.9,234.5 922.0,234.4 922.0,233.3 922.1,233.4 922.2,234.3 922.3,234.8 922.4,234.4 922.5,234.7 922.6,234.2 922.7,235.3 922.7,235.1 922.8,235.5 922.9,234.7 922.9,234.3 923.0,234.1 923.0,232.0 923.1,233.0 923.2,231.4 923.2,232.0 923.3,233.6 923.3,233.9 923.3,234.1 923.4,234.1 923.4,234.7 923.5,235.5 923.5,235.2 923.5,235.1 923.6,234.8 923.7,234.6 923.8,235.0 923.9,234.1 924.0,233.7 924.1,234.2 924.1,234.7 924.2,235.0 924.3,234.1 924.4,233.8 924.5,234.2 924.6,234.5 924.7,233.8 924.8,233.2 924.9,232.9 925.0,232.6 925.1,232.8 925.2,233.1 925.2,233.4 925.3,234.3 925.4,234.0 925.5,233.3 925.7,233.8 925.8,233.9 925.9,233.7 926.0,234.1 926.0,234.4 926.1,235.3 926.2,234.7 926.2,234.5 926.3,234.7 926.3,235.7 926.4,236.0 926.5,236.2 926.5,235.8 926.6,236.0 926.7,236.5 926.8,237.5 926.8,237.6 926.9,238.2 926.9,237.8 927.0,237.9 927.1,238.6 927.2,239.4 927.4,238.5 927.5,238.3 927.6,238.0 927.7,239.0 927.9,239.9 928.1,240.5 928.2,240.1 928.4,239.6 928.7,239.8 928.8,239.9 928.8,238.8 928.9,239.5 928.9,239.5 928.9,239.0 929.0,238.7 929.1,237.9 929.1,237.6 929.2,238.2 929.3,237.9 929.3,238.0 929.4,238.7 929.4,239.2 929.4,238.1 929.5,238.4 929.5,239.0 929.6,239.4 929.7,240.1 929.9,239.4 930.0,239.6 930.1,240.0 930.2,240.0 930.4,241.2 930.5,240.5 930.5,240.1 930.6,240.3 930.8,242.1 930.9,241.7 931.0,241.9 931.1,241.5 931.1,241.5 931.2,240.2 931.2,241.5 931.3,241.8 931.4,244.5 931.4,243.7 931.5,243.8 931.6,243.2 931.7,242.3 931.8,242.9 931.8,241.9 931.9,242.1 931.9,241.8 932.0,241.0 932.2,240.4 932.3,240.3 932.5,240.9 932.7,241.2 932.8,241.3 932.9,241.1 933.0,240.2 933.1,240.0 933.3,239.1 933.4,238.9 933.5,238.8 933.5,238.0 933.6,238.1 933.6,238.7 933.7,238.9 933.9,238.4 934.0,238.4" fill="none" stroke="#d97706" stroke-width="1.2" stroke-linejoin="round" opacity="0.6"/><text x="942" y="472.0" text-anchor="start" font-size="11" fill="#d97706">0.02</text><text x="942" y="396.0" text-anchor="start" font-size="11" fill="#d97706">0.04</text><text x="942" y="320.0" text-anchor="start" font-size="11" fill="#d97706">0.06</text><text x="942" y="244.0" text-anchor="start" font-size="11" fill="#d97706">0.08</text><text x="942" y="168.0" text-anchor="start" font-size="11" fill="#d97706">0.10</text><text x="942" y="92.0" text-anchor="start" font-size="11" fill="#d97706">0.12</text><text x="942" y="80.0" text-anchor="start" font-size="11" font-weight="600" fill="#d97706">price</text>
  <polygon points="176.9,468.0 176.9,459.6 176.9,459.8 198.1,460.1 258.8,460.4 272.0,460.8 347.3,461.1 415.9,461.3 423.4,461.7 468.8,462.1 542.9,462.3 605.3,462.6 631.3,461.3 761.0,460.4 773.3,460.6 782.1,460.9 822.1,461.3 824.8,459.6 824.9,459.8 825.0,460.1 826.4,460.4 826.9,458.7 827.0,458.9 827.5,459.2 827.6,459.6 827.7,460.0 827.8,460.2 834.7,460.5 834.8,459.1 834.9,459.4 834.9,459.6 835.1,458.3 835.2,458.5 835.5,458.8 835.7,457.4 835.7,457.7 835.7,457.9 835.8,458.3 835.8,458.7 836.6,458.9 836.6,457.8 836.7,458.1 836.7,458.3 836.7,458.7 836.8,459.1 836.8,458.2 836.9,458.5 836.9,458.7 836.9,459.1 836.9,459.5 836.9,459.7 836.9,460.0 836.9,460.4 836.9,460.8 836.9,461.0 836.9,461.3 837.0,459.9 837.0,459.1 837.1,458.2 837.1,457.4 837.1,457.6 837.1,456.5 837.1,456.7 837.1,457.0 837.2,457.3 837.2,457.8 837.2,458.0 837.2,458.3 837.2,458.6 837.2,459.1 837.2,459.3 837.2,459.6 837.2,459.9 837.4,458.2 837.4,457.3 837.4,457.6 837.4,457.8 837.4,458.2 837.4,458.6 837.5,457.7 837.5,458.0 837.5,458.2 837.5,458.6 837.5,459.0 837.5,459.2 837.5,458.2 837.5,457.3 837.6,457.5 837.6,457.8 837.6,456.4 837.6,456.7 837.6,456.9 837.7,457.3 837.7,457.7 837.7,457.9 837.7,458.2 837.7,456.8 837.7,457.1 837.7,457.3 837.7,456.0 837.8,456.2 837.8,455.1 837.9,455.4 837.9,455.6 837.9,454.3 837.9,454.5 838.0,453.4 838.0,453.7 838.0,452.6 838.0,452.8 838.1,451.7 838.1,451.9 838.1,452.2 838.1,450.8 838.1,451.1 838.1,450.0 838.1,450.2 838.1,449.1 838.1,448.2 838.1,448.5 838.1,447.4 838.1,447.6 838.1,447.9 838.1,448.2 838.1,446.5 838.1,446.8 838.1,447.0 838.1,445.7 838.1,445.9 838.1,444.8 838.1,445.1 838.2,444.0 838.2,444.2 838.2,443.1 838.2,443.3 838.2,443.6 838.2,442.3 838.2,441.4 838.2,441.7 838.2,440.6 838.2,440.8 838.2,439.7 838.2,439.9 838.2,438.8 838.3,438.0 838.3,438.2 838.3,437.1 838.3,437.3 838.3,437.6 838.4,437.9 838.4,436.2 838.5,436.5 838.5,435.4 838.5,434.5 838.5,434.7 838.5,433.7 838.6,432.8 838.6,431.9 838.6,431.1 838.6,431.3 838.6,430.2 838.6,429.4 838.6,428.5 838.6,427.7 838.7,427.9 838.7,426.8 838.7,427.0 838.7,425.9 838.7,426.1 838.7,425.1 838.7,425.3 838.7,424.2 838.7,424.4 838.7,423.3 838.8,422.5 838.8,421.6 838.9,421.9 838.9,420.8 838.9,421.0 838.9,420.0 839.0,419.1 839.0,419.3 839.0,418.2 839.0,418.5 839.0,418.7 839.1,419.1 839.1,419.5 839.1,418.6 839.1,418.9 839.1,417.8 839.1,418.0 839.1,416.9 839.2,417.1 839.2,417.4 839.2,416.1 839.2,415.2 839.2,414.4 839.2,414.6 839.2,413.5 839.2,413.7 839.2,412.7 839.3,412.9 839.3,411.8 839.3,412.0 839.3,410.9 839.4,410.1 839.4,410.3 839.4,409.2 839.4,408.4 839.5,407.5 839.5,406.6 839.5,406.8 839.5,407.1 839.5,407.5 839.7,407.9 839.7,408.1 839.7,408.4 839.7,408.7 839.7,407.0 839.8,407.3 839.8,407.5 839.8,406.2 839.8,406.4 839.8,405.3 839.8,405.5 839.8,405.8 839.8,406.1 839.8,406.6 839.8,405.7 839.8,405.9 839.8,404.8 839.8,404.0 839.8,404.2 839.8,403.1 839.9,403.3 839.9,402.3 839.9,402.5 840.0,401.4 840.0,400.6 840.0,400.8 840.1,401.1 840.1,401.4 840.1,399.7 840.1,398.9 840.1,399.1 840.2,399.4 840.3,398.0 840.4,398.2 840.5,398.5 840.5,398.8 840.5,399.3 840.6,399.5 840.6,399.8 840.6,400.1 840.6,400.5 840.6,400.8 840.7,401.0 840.7,401.4 840.7,401.8 840.7,401.0 840.7,400.1 840.9,399.2 841.2,398.4 841.2,397.5 841.3,397.7 841.6,396.7 841.7,396.9 841.7,397.1 841.8,397.5 841.8,397.9 841.8,397.0 841.8,397.3 841.8,397.5 841.9,397.9 841.9,396.2 841.9,395.3 841.9,395.6 841.9,394.5 842.2,394.7 842.3,395.0 842.3,393.6 842.3,393.9 842.5,394.1 842.5,394.5 842.5,394.9 842.6,394.0 842.9,394.3 842.9,393.2 842.9,393.4 842.9,392.3 842.9,392.6 842.9,391.5 842.9,390.6 843.0,390.8 843.0,389.7 843.0,388.9 843.1,389.1 843.1,388.0 843.1,387.2 843.1,387.4 843.1,387.7 843.1,386.3 843.1,386.5 843.1,385.5 843.1,385.7 843.1,384.6 843.1,384.8 843.1,383.8 843.1,384.0 843.1,382.9 843.1,383.1 843.1,382.0 843.2,381.2 843.2,381.4 843.2,380.3 843.2,380.5 843.2,380.8 843.2,381.2 843.2,379.5 843.2,378.6 843.2,377.8 843.2,378.0 843.2,378.3 843.2,376.9 843.2,377.1 843.2,376.0 843.3,376.3 843.3,375.2 843.3,374.3 843.3,374.5 843.3,373.5 843.3,372.6 843.3,371.7 843.3,370.9 843.3,370.0 843.4,370.2 843.6,369.2 843.6,369.4 843.7,369.7 843.8,368.3 843.8,367.4 844.0,367.7 844.0,367.9 844.0,368.3 844.0,368.7 844.2,368.9 844.2,367.9 844.2,368.1 844.2,367.0 844.2,367.2 844.2,367.5 844.2,367.8 844.2,366.2 844.2,366.4 844.2,365.3 844.2,364.5 844.2,363.6 844.3,363.8 844.3,362.7 844.3,363.0 844.3,363.2 844.3,361.9 844.3,362.1 844.3,361.0 844.3,360.2 844.3,360.4 844.3,359.3 844.3,358.5 844.3,358.7 844.3,359.0 844.4,359.3 844.4,359.7 844.4,359.9 844.4,360.2 844.4,360.6 844.4,358.9 844.4,358.0 844.4,358.2 844.4,357.2 844.5,357.4 844.5,356.3 844.5,355.5 844.5,355.7 844.7,356.0 844.7,354.6 844.8,354.8 844.8,353.7 844.8,352.9 844.8,353.1 844.8,352.0 844.8,352.2 844.8,351.2 844.9,351.4 844.9,350.3 844.9,349.4 844.9,348.6 844.9,347.7 844.9,347.9 844.9,348.2 844.9,348.6 845.0,349.0 845.2,349.2 845.2,349.5 845.2,349.8 845.2,348.2 845.2,348.4 845.2,347.3 845.2,347.5 845.3,347.8 845.3,348.1 845.3,346.4 845.3,346.7 845.3,345.6 845.3,344.7 845.3,345.0 845.3,343.9 845.3,343.0 845.3,343.2 845.4,342.1 845.4,342.4 845.4,341.3 845.4,340.4 845.4,339.6 845.4,339.8 845.4,338.7 845.5,337.8 845.5,337.0 845.5,337.2 845.5,336.1 845.5,336.3 845.5,335.2 845.5,334.4 845.5,334.6 845.5,333.5 845.5,333.8 845.5,332.7 845.6,331.8 845.6,332.0 845.6,332.3 845.6,332.7 845.6,333.1 845.6,333.3 845.6,332.2 845.7,332.5 845.7,332.7 845.7,331.4 845.7,331.6 845.7,331.9 845.7,330.6 845.8,330.8 845.8,329.7 845.8,328.8 845.8,329.0 845.8,328.0 845.9,327.1 845.9,327.3 845.9,326.3 845.9,326.5 845.9,325.4 845.9,325.7 845.9,325.9 846.0,326.3 846.0,324.6 846.0,324.8 846.0,323.7 846.0,324.0 846.0,322.9 846.0,323.1 846.0,323.4 846.0,323.7 846.0,322.0 846.1,322.3 846.1,321.2 846.1,320.3 846.1,320.5 846.1,320.8 846.1,319.5 846.1,318.6 846.1,318.8 846.1,319.1 846.1,317.8 846.2,318.0 846.2,316.9 846.2,317.1 846.2,317.4 846.2,316.1 846.2,316.3 846.2,315.2 846.2,314.4 846.2,314.6 846.2,313.5 846.2,312.6 846.3,311.8 846.3,312.0 846.3,312.3 846.3,312.6 846.4,313.1 846.4,312.2 846.4,312.4 846.4,311.4 846.4,311.6 846.4,310.5 846.4,310.7 846.4,309.6 846.4,309.8 846.4,310.1 846.4,310.5 846.5,310.9 846.5,310.0 846.5,309.1 846.5,309.4 846.5,308.3 846.5,308.5 846.5,307.4 846.5,307.7 846.6,307.9 846.6,308.3 846.6,308.7 846.6,308.9 846.6,307.9 846.6,308.1 846.6,307.0 846.7,307.2 846.7,307.5 846.7,306.1 846.7,305.3 846.8,304.4 846.8,304.6 846.8,303.5 846.9,302.7 846.9,301.8 847.0,301.0 847.0,301.2 847.0,301.4 847.0,300.1 847.0,299.2 847.0,299.5 847.0,298.4 847.1,298.6 847.1,298.9 847.1,297.6 847.1,296.7 847.1,295.8 847.2,294.9 847.2,295.2 847.2,294.1 847.2,294.3 847.2,293.2 847.2,293.4 847.2,293.7 847.2,294.0 847.3,294.5 847.3,293.6 847.3,293.8 847.3,292.8 847.3,293.0 847.3,291.9 847.4,292.1 847.4,291.0 847.4,291.2 847.4,290.2 847.4,290.4 847.4,289.3 847.4,289.5 847.4,288.4 847.4,288.7 847.4,287.6 847.4,287.8 847.4,286.7 847.5,287.0 847.5,285.9 847.5,286.1 847.5,285.0 847.5,285.3 847.5,285.5 847.5,285.9 847.5,284.2 847.5,283.3 847.6,282.5 847.6,282.7 847.6,283.0 847.6,283.3 847.6,283.8 847.6,284.0 847.6,282.9 847.6,283.1 847.6,282.0 847.6,281.2 847.6,281.4 847.6,280.3 847.7,280.5 847.7,279.5 847.7,279.7 847.7,280.0 847.7,278.6 847.7,278.8 847.7,279.1 847.7,279.5 847.8,279.9 847.8,279.0 847.8,278.2 847.8,277.3 847.8,276.5 847.8,275.6 847.8,275.8 847.8,274.7 847.8,275.0 847.8,273.9 847.8,274.1 847.8,273.0 847.9,273.2 847.9,272.2 847.9,272.4 847.9,272.7 847.9,273.0 847.9,273.4 847.9,273.6 847.9,273.9 847.9,274.3 847.9,274.7 848.0,274.9 848.0,275.2 848.0,275.5 848.0,276.0 848.0,276.2 848.0,276.4 848.0,276.8 848.0,277.2 848.1,277.4 848.1,277.7 848.1,278.1 848.1,278.5 848.1,278.7 848.1,279.0 848.1,279.3 848.1,279.7 848.2,280.0 848.2,280.2 848.2,278.9 848.2,279.1 848.2,278.0 848.2,277.2 848.2,277.4 848.2,277.7 848.2,276.3 848.2,275.4 848.2,274.6 848.3,273.7 848.3,273.9 848.3,272.9 848.3,273.1 848.3,272.0 848.3,271.1 848.3,271.3 848.3,270.3 848.3,270.5 848.3,269.4 848.3,269.6 848.3,268.5 848.3,267.7 848.3,266.8 848.3,267.0 848.3,266.0 848.4,265.1 848.4,265.3 848.4,264.3 848.4,263.4 848.4,263.6 848.4,262.5 848.4,262.8 848.4,261.7 848.4,260.8 848.4,260.0 848.5,260.2 848.5,259.1 848.5,259.3 848.5,258.2 848.5,258.4 848.5,257.4 848.5,257.6 848.7,257.9 848.7,258.2 848.8,256.5 848.8,256.7 848.8,257.0 848.8,255.7 848.8,254.8 848.8,253.9 848.9,253.1 848.9,252.2 848.9,252.4 848.9,251.3 848.9,250.5 849.0,250.7 849.0,249.6 849.0,248.8 849.0,247.9 849.0,247.1 849.0,247.3 849.0,246.2 849.0,246.4 849.0,245.3 849.0,245.5 849.0,244.5 849.1,243.6 849.1,243.8 849.1,244.1 849.1,242.8 849.1,243.0 849.1,243.3 849.1,241.9 849.1,241.0 849.1,241.3 849.1,240.2 849.1,239.3 849.1,238.5 849.2,238.7 849.2,239.0 849.2,237.6 849.2,236.8 849.2,235.9 849.2,235.0 849.2,234.2 849.2,234.4 849.3,233.3 849.3,232.4 849.3,232.7 849.3,231.6 849.4,230.7 849.4,231.0 849.4,231.2 849.4,231.6 849.4,232.0 849.4,231.1 849.4,231.4 849.4,231.6 849.4,230.3 849.4,230.5 849.5,229.4 849.5,229.7 849.5,228.6 849.5,227.7 849.5,227.9 849.5,228.2 849.5,228.5 849.5,226.9 849.5,227.1 849.5,227.3 849.5,226.0 849.5,225.2 849.6,224.3 849.6,223.4 849.6,222.5 849.6,222.8 849.6,221.7 849.7,220.8 849.7,221.0 849.7,220.0 849.7,220.2 849.7,219.1 849.7,219.3 849.7,218.2 849.8,217.4 849.8,217.6 849.8,217.9 849.8,218.2 849.8,218.6 849.9,218.8 849.9,217.8 849.9,216.9 850.0,216.0 850.0,216.3 850.0,215.2 850.0,215.4 850.0,214.3 850.0,214.5 850.0,213.5 850.1,213.7 850.1,212.6 850.1,211.8 850.1,210.9 850.1,211.1 850.1,211.4 850.1,211.7 850.2,212.2 850.2,212.4 850.2,212.7 850.2,213.0 850.2,213.4 850.2,213.7 850.2,212.6 850.3,212.8 850.3,211.7 850.3,210.9 850.3,210.0 850.3,209.2 850.3,209.4 850.3,208.3 850.3,207.5 850.3,207.7 850.3,206.6 850.4,205.7 850.4,204.9 850.4,205.1 850.4,204.0 850.4,204.2 850.4,203.1 850.5,202.3 850.5,202.5 850.5,202.8 850.5,203.1 850.5,201.5 850.5,201.7 850.5,202.0 850.5,200.6 850.5,200.8 850.6,201.1 850.6,199.8 850.6,200.0 850.6,200.2 850.6,200.6 850.6,198.9 850.6,199.1 850.6,198.1 850.7,198.3 850.7,197.2 850.8,196.3 850.8,196.6 850.8,196.8 850.8,195.5 850.8,195.7 850.8,196.0 850.8,194.7 850.8,194.9 850.8,195.2 850.8,195.5 850.8,193.8 850.9,194.0 850.9,194.3 850.9,194.7 850.9,193.0 850.9,193.2 850.9,192.1 850.9,192.3 850.9,192.6 850.9,191.3 850.9,191.5 850.9,191.8 850.9,192.1 851.0,192.5 851.0,191.7 851.0,191.9 851.1,190.8 851.1,191.1 851.1,191.3 851.1,191.7 851.1,190.0 851.1,190.2 851.1,190.5 851.1,190.9 851.1,191.3 851.2,191.5 851.2,191.8 851.2,192.1 851.2,192.5 851.2,192.8 851.2,191.7 851.2,191.9 851.2,190.8 851.2,190.0 851.2,190.2 851.2,190.5 851.3,190.8 851.3,191.2 851.4,191.4 851.4,190.4 851.4,190.6 851.4,189.5 851.4,189.7 851.4,190.0 851.4,188.7 851.4,188.9 851.4,189.2 851.4,187.8 851.5,188.1 851.5,188.3 851.5,188.7 851.5,187.0 851.5,187.2 851.5,186.1 851.5,186.4 851.6,186.6 851.6,185.3 851.6,185.5 851.6,185.8 851.6,184.4 851.6,184.7 851.6,184.9 851.6,183.6 851.7,183.8 851.7,184.1 851.8,182.7 851.8,183.0 851.8,183.2 851.8,183.6 851.8,184.0 851.8,183.1 852.0,183.4 852.0,182.3 852.0,181.4 852.0,180.6 852.0,180.8 852.0,179.7 852.0,178.8 852.0,179.1 852.0,178.0 852.0,178.2 852.0,177.1 852.1,176.2 852.1,176.5 852.1,175.4 852.1,175.6 852.1,175.9 852.1,176.2 852.1,176.7 852.2,176.9 852.2,177.2 852.2,175.8 852.3,176.1 852.3,176.3 852.3,175.0 852.3,175.2 852.5,174.1 852.6,174.3 852.6,173.3 852.6,172.4 852.6,171.5 852.6,170.7 852.6,170.9 852.6,169.8 852.7,170.0 852.8,170.3 852.8,170.7 852.8,169.0 852.8,168.1 852.8,167.3 852.8,167.5 852.8,167.7 852.8,166.4 852.8,165.6 852.9,164.7 852.9,163.8 852.9,164.1 853.0,164.3 853.0,164.7 853.0,163.0 853.0,162.2 853.1,162.4 853.1,162.6 853.1,161.3 853.1,160.4 853.1,160.7 853.1,160.9 853.2,161.3 853.2,161.7 853.2,161.9 853.2,160.9 853.2,161.1 853.2,161.4 853.2,160.0 853.2,160.2 853.2,159.1 853.2,158.3 853.2,157.4 853.2,157.6 853.2,156.6 853.2,156.8 853.3,157.1 853.3,157.4 853.3,157.8 853.3,157.0 853.3,157.2 853.3,156.1 853.3,156.3 853.3,155.3 853.3,155.5 853.3,155.7 853.3,154.4 853.3,154.6 853.3,153.6 853.4,152.7 853.4,152.9 853.4,153.2 853.4,153.5 853.4,151.8 853.4,152.1 853.4,152.3 853.4,152.7 853.4,153.1 853.5,153.3 853.5,153.6 853.5,153.9 853.5,154.4 853.6,154.6 853.6,154.8 853.6,155.2 853.6,153.5 853.6,153.7 853.6,152.7 853.6,151.8 853.6,152.0 853.7,152.3 853.7,152.7 853.7,151.0 853.8,151.2 853.8,151.5 853.8,151.8 853.8,150.1 853.8,150.4 853.8,149.3 853.8,149.5 853.8,148.4 853.8,148.6 853.8,148.9 853.8,149.2 853.8,147.6 853.8,146.7 853.9,146.9 853.9,145.9 853.9,145.0 853.9,144.1 853.9,144.3 853.9,143.3 854.0,143.5 854.0,142.4 854.0,142.6 854.0,142.9 854.0,143.3 854.1,141.6 854.1,141.8 854.2,142.1 854.2,140.7 854.2,140.9 854.2,139.9 854.2,140.1 854.2,140.4 854.2,139.0 854.2,138.2 854.2,138.4 854.3,138.7 854.3,139.0 854.3,139.4 854.4,139.6 854.4,139.9 854.4,140.3 854.4,140.7 854.4,140.9 854.4,141.2 854.4,139.8 854.4,139.0 854.4,139.2 854.4,138.1 854.4,138.4 854.4,138.6 854.4,139.0 854.4,139.4 854.5,139.6 854.5,139.9 854.5,138.6 854.6,138.8 854.6,137.7 854.6,137.9 854.6,138.2 854.6,136.9 854.6,137.1 854.6,136.0 854.6,136.3 854.6,136.5 854.6,135.2 854.6,135.4 854.6,134.3 854.6,134.5 854.7,133.4 854.7,133.7 854.7,133.9 854.8,132.6 854.8,131.7 854.8,132.0 854.8,132.2 854.8,130.9 855.0,131.1 855.0,131.4 855.0,131.7 855.0,132.2 855.1,132.4 855.1,132.7 855.1,133.0 855.2,133.4 855.2,133.6 855.2,133.9 855.2,134.3 855.2,134.7 855.2,134.9 855.2,133.8 855.3,134.0 855.3,133.0 855.3,133.2 855.4,133.5 855.4,133.8 855.4,134.2 855.4,133.4 855.4,133.6 855.5,133.8 855.5,134.2 855.5,134.6 855.6,134.8 855.6,135.1 855.6,133.8 855.6,134.0 855.6,134.2 855.6,132.9 855.6,133.1 855.6,133.4 855.6,133.7 855.7,132.1 855.7,131.2 855.7,131.4 855.7,131.7 855.8,132.1 855.8,132.5 855.8,132.7 856.0,133.0 856.0,133.3 856.0,131.6 856.0,131.9 856.0,132.1 856.1,132.5 856.1,132.9 856.1,133.1 856.1,132.1 856.1,132.3 856.1,131.2 856.1,130.3 856.1,130.6 856.2,130.8 856.2,129.5 856.2,129.7 856.2,128.6 856.2,127.8 856.2,126.9 856.2,127.1 856.3,127.4 856.3,126.0 856.3,125.2 856.4,125.4 856.4,125.7 856.4,126.0 856.4,126.5 856.4,126.7 856.4,127.0 856.5,127.3 856.5,127.7 856.5,126.9 856.5,126.0 856.6,126.2 856.6,126.5 856.6,126.8 856.6,127.3 856.6,127.5 856.6,127.8 856.6,128.1 856.6,126.4 856.6,126.7 856.6,126.9 856.6,125.6 856.6,125.8 856.6,126.1 856.7,126.4 856.7,124.8 856.7,125.0 856.7,125.3 856.7,123.9 856.7,124.1 856.7,124.4 856.7,124.8 856.7,125.2 856.8,125.4 856.8,125.7 856.8,126.0 856.8,124.3 856.8,124.6 856.8,124.8 856.8,123.5 856.8,122.6 856.8,122.8 856.9,123.1 856.9,121.8 856.9,122.0 856.9,122.2 856.9,120.9 856.9,121.1 856.9,121.4 856.9,121.8 856.9,122.2 856.9,122.4 856.9,122.7 857.0,123.0 857.0,121.4 857.0,121.6 857.0,120.5 857.0,119.6 857.0,119.9 857.0,120.1 857.1,120.5 857.1,120.9 857.1,120.1 857.1,119.2 857.2,118.3 857.2,118.6 857.2,117.5 857.2,116.6 857.3,116.8 857.3,117.1 857.3,117.4 857.3,117.9 857.3,118.1 857.3,117.0 857.4,117.2 857.4,117.5 857.4,116.1 857.8,116.4 857.9,116.6 857.9,117.0 857.9,117.4 857.9,117.6 857.9,117.9 857.9,116.6 858.0,116.8 858.0,117.1 858.0,117.4 858.1,117.9 858.2,118.1 858.2,118.4 858.2,118.7 858.3,119.1 858.5,118.3 858.7,118.5 858.7,118.8 858.7,119.1 858.7,117.4 858.7,117.6 858.7,116.6 858.8,116.8 859.0,117.1 859.0,117.4 859.2,117.9 859.2,118.1 859.2,117.0 859.2,117.2 859.4,117.5 859.6,117.8 859.6,118.2 859.6,118.5 859.6,118.7 859.6,119.1 859.7,119.5 859.7,119.7 859.7,120.0 859.8,120.4 859.8,120.8 859.8,121.0 859.8,121.3 859.8,121.7 859.8,122.1 859.8,122.3 859.9,122.6 860.1,122.9 860.2,123.4 860.3,122.5 860.8,121.7 860.9,120.8 860.9,121.0 860.9,121.3 860.9,121.6 860.9,122.1 860.9,122.3 860.9,122.6 861.0,122.9 861.0,123.3 861.0,123.6 861.0,123.8 861.1,124.2 861.1,124.6 861.2,123.8 861.3,124.0 861.3,122.9 861.3,123.1 861.5,123.4 863.1,123.7 863.3,124.2 864.7,123.3 864.9,123.6 865.9,122.5 866.0,122.7 866.0,123.0 866.0,123.3 866.1,121.6 866.1,121.8 866.1,122.1 866.1,122.4 866.1,122.9 866.1,123.1 866.1,123.4 866.1,123.7 866.1,124.1 866.2,123.3 866.2,123.5 866.2,123.8 866.2,124.1 866.2,124.6 866.2,124.8 866.2,125.1 866.2,125.4 866.2,125.9 866.3,126.1 866.3,126.3 866.3,126.7 866.3,127.1 866.3,127.3 866.3,127.6 866.3,127.9 866.3,126.3 867.9,126.5 867.9,126.8 868.0,127.1 868.0,127.5 868.0,127.7 868.0,128.0 868.0,128.4 868.5,128.8 868.5,129.0 868.5,129.3 868.5,129.6 868.6,130.1 869.3,130.3 869.3,130.6 869.4,130.9 869.4,131.3 870.7,131.5 870.9,131.8 873.6,132.1 873.8,132.6 873.9,132.8 874.0,133.1 874.2,133.4 874.6,133.9 883.4,134.1 883.4,134.3 883.4,134.7 883.4,135.1 888.5,134.2 891.7,134.5 892.0,134.7 892.1,135.1 904.0,133.4 904.0,133.6 904.0,132.6 904.0,132.8 904.0,133.0 904.3,131.7 911.5,131.9 919.8,130.9 923.1,131.1 923.3,131.4 923.3,468.0" fill="#16a34a" fill-opacity="0.08"/>
  <polyline points="176.9,459.6 176.9,459.8 198.1,460.1 258.8,460.4 272.0,460.8 347.3,461.1 415.9,461.3 423.4,461.7 468.8,462.1 542.9,462.3 605.3,462.6 631.3,461.3 761.0,460.4 773.3,460.6 782.1,460.9 822.1,461.3 824.8,459.6 824.9,459.8 825.0,460.1 826.4,460.4 826.9,458.7 827.0,458.9 827.5,459.2 827.6,459.6 827.7,460.0 827.8,460.2 834.7,460.5 834.8,459.1 834.9,459.4 834.9,459.6 835.1,458.3 835.2,458.5 835.5,458.8 835.7,457.4 835.7,457.7 835.7,457.9 835.8,458.3 835.8,458.7 836.6,458.9 836.6,457.8 836.7,458.1 836.7,458.3 836.7,458.7 836.8,459.1 836.8,458.2 836.9,458.5 836.9,458.7 836.9,459.1 836.9,459.5 836.9,459.7 836.9,460.0 836.9,460.4 836.9,460.8 836.9,461.0 836.9,461.3 837.0,459.9 837.0,459.1 837.1,458.2 837.1,457.4 837.1,457.6 837.1,456.5 837.1,456.7 837.1,457.0 837.2,457.3 837.2,457.8 837.2,458.0 837.2,458.3 837.2,458.6 837.2,459.1 837.2,459.3 837.2,459.6 837.2,459.9 837.4,458.2 837.4,457.3 837.4,457.6 837.4,457.8 837.4,458.2 837.4,458.6 837.5,457.7 837.5,458.0 837.5,458.2 837.5,458.6 837.5,459.0 837.5,459.2 837.5,458.2 837.5,457.3 837.6,457.5 837.6,457.8 837.6,456.4 837.6,456.7 837.6,456.9 837.7,457.3 837.7,457.7 837.7,457.9 837.7,458.2 837.7,456.8 837.7,457.1 837.7,457.3 837.7,456.0 837.8,456.2 837.8,455.1 837.9,455.4 837.9,455.6 837.9,454.3 837.9,454.5 838.0,453.4 838.0,453.7 838.0,452.6 838.0,452.8 838.1,451.7 838.1,451.9 838.1,452.2 838.1,450.8 838.1,451.1 838.1,450.0 838.1,450.2 838.1,449.1 838.1,448.2 838.1,448.5 838.1,447.4 838.1,447.6 838.1,447.9 838.1,448.2 838.1,446.5 838.1,446.8 838.1,447.0 838.1,445.7 838.1,445.9 838.1,444.8 838.1,445.1 838.2,444.0 838.2,444.2 838.2,443.1 838.2,443.3 838.2,443.6 838.2,442.3 838.2,441.4 838.2,441.7 838.2,440.6 838.2,440.8 838.2,439.7 838.2,439.9 838.2,438.8 838.3,438.0 838.3,438.2 838.3,437.1 838.3,437.3 838.3,437.6 838.4,437.9 838.4,436.2 838.5,436.5 838.5,435.4 838.5,434.5 838.5,434.7 838.5,433.7 838.6,432.8 838.6,431.9 838.6,431.1 838.6,431.3 838.6,430.2 838.6,429.4 838.6,428.5 838.6,427.7 838.7,427.9 838.7,426.8 838.7,427.0 838.7,425.9 838.7,426.1 838.7,425.1 838.7,425.3 838.7,424.2 838.7,424.4 838.7,423.3 838.8,422.5 838.8,421.6 838.9,421.9 838.9,420.8 838.9,421.0 838.9,420.0 839.0,419.1 839.0,419.3 839.0,418.2 839.0,418.5 839.0,418.7 839.1,419.1 839.1,419.5 839.1,418.6 839.1,418.9 839.1,417.8 839.1,418.0 839.1,416.9 839.2,417.1 839.2,417.4 839.2,416.1 839.2,415.2 839.2,414.4 839.2,414.6 839.2,413.5 839.2,413.7 839.2,412.7 839.3,412.9 839.3,411.8 839.3,412.0 839.3,410.9 839.4,410.1 839.4,410.3 839.4,409.2 839.4,408.4 839.5,407.5 839.5,406.6 839.5,406.8 839.5,407.1 839.5,407.5 839.7,407.9 839.7,408.1 839.7,408.4 839.7,408.7 839.7,407.0 839.8,407.3 839.8,407.5 839.8,406.2 839.8,406.4 839.8,405.3 839.8,405.5 839.8,405.8 839.8,406.1 839.8,406.6 839.8,405.7 839.8,405.9 839.8,404.8 839.8,404.0 839.8,404.2 839.8,403.1 839.9,403.3 839.9,402.3 839.9,402.5 840.0,401.4 840.0,400.6 840.0,400.8 840.1,401.1 840.1,401.4 840.1,399.7 840.1,398.9 840.1,399.1 840.2,399.4 840.3,398.0 840.4,398.2 840.5,398.5 840.5,398.8 840.5,399.3 840.6,399.5 840.6,399.8 840.6,400.1 840.6,400.5 840.6,400.8 840.7,401.0 840.7,401.4 840.7,401.8 840.7,401.0 840.7,400.1 840.9,399.2 841.2,398.4 841.2,397.5 841.3,397.7 841.6,396.7 841.7,396.9 841.7,397.1 841.8,397.5 841.8,397.9 841.8,397.0 841.8,397.3 841.8,397.5 841.9,397.9 841.9,396.2 841.9,395.3 841.9,395.6 841.9,394.5 842.2,394.7 842.3,395.0 842.3,393.6 842.3,393.9 842.5,394.1 842.5,394.5 842.5,394.9 842.6,394.0 842.9,394.3 842.9,393.2 842.9,393.4 842.9,392.3 842.9,392.6 842.9,391.5 842.9,390.6 843.0,390.8 843.0,389.7 843.0,388.9 843.1,389.1 843.1,388.0 843.1,387.2 843.1,387.4 843.1,387.7 843.1,386.3 843.1,386.5 843.1,385.5 843.1,385.7 843.1,384.6 843.1,384.8 843.1,383.8 843.1,384.0 843.1,382.9 843.1,383.1 843.1,382.0 843.2,381.2 843.2,381.4 843.2,380.3 843.2,380.5 843.2,380.8 843.2,381.2 843.2,379.5 843.2,378.6 843.2,377.8 843.2,378.0 843.2,378.3 843.2,376.9 843.2,377.1 843.2,376.0 843.3,376.3 843.3,375.2 843.3,374.3 843.3,374.5 843.3,373.5 843.3,372.6 843.3,371.7 843.3,370.9 843.3,370.0 843.4,370.2 843.6,369.2 843.6,369.4 843.7,369.7 843.8,368.3 843.8,367.4 844.0,367.7 844.0,367.9 844.0,368.3 844.0,368.7 844.2,368.9 844.2,367.9 844.2,368.1 844.2,367.0 844.2,367.2 844.2,367.5 844.2,367.8 844.2,366.2 844.2,366.4 844.2,365.3 844.2,364.5 844.2,363.6 844.3,363.8 844.3,362.7 844.3,363.0 844.3,363.2 844.3,361.9 844.3,362.1 844.3,361.0 844.3,360.2 844.3,360.4 844.3,359.3 844.3,358.5 844.3,358.7 844.3,359.0 844.4,359.3 844.4,359.7 844.4,359.9 844.4,360.2 844.4,360.6 844.4,358.9 844.4,358.0 844.4,358.2 844.4,357.2 844.5,357.4 844.5,356.3 844.5,355.5 844.5,355.7 844.7,356.0 844.7,354.6 844.8,354.8 844.8,353.7 844.8,352.9 844.8,353.1 844.8,352.0 844.8,352.2 844.8,351.2 844.9,351.4 844.9,350.3 844.9,349.4 844.9,348.6 844.9,347.7 844.9,347.9 844.9,348.2 844.9,348.6 845.0,349.0 845.2,349.2 845.2,349.5 845.2,349.8 845.2,348.2 845.2,348.4 845.2,347.3 845.2,347.5 845.3,347.8 845.3,348.1 845.3,346.4 845.3,346.7 845.3,345.6 845.3,344.7 845.3,345.0 845.3,343.9 845.3,343.0 845.3,343.2 845.4,342.1 845.4,342.4 845.4,341.3 845.4,340.4 845.4,339.6 845.4,339.8 845.4,338.7 845.5,337.8 845.5,337.0 845.5,337.2 845.5,336.1 845.5,336.3 845.5,335.2 845.5,334.4 845.5,334.6 845.5,333.5 845.5,333.8 845.5,332.7 845.6,331.8 845.6,332.0 845.6,332.3 845.6,332.7 845.6,333.1 845.6,333.3 845.6,332.2 845.7,332.5 845.7,332.7 845.7,331.4 845.7,331.6 845.7,331.9 845.7,330.6 845.8,330.8 845.8,329.7 845.8,328.8 845.8,329.0 845.8,328.0 845.9,327.1 845.9,327.3 845.9,326.3 845.9,326.5 845.9,325.4 845.9,325.7 845.9,325.9 846.0,326.3 846.0,324.6 846.0,324.8 846.0,323.7 846.0,324.0 846.0,322.9 846.0,323.1 846.0,323.4 846.0,323.7 846.0,322.0 846.1,322.3 846.1,321.2 846.1,320.3 846.1,320.5 846.1,320.8 846.1,319.5 846.1,318.6 846.1,318.8 846.1,319.1 846.1,317.8 846.2,318.0 846.2,316.9 846.2,317.1 846.2,317.4 846.2,316.1 846.2,316.3 846.2,315.2 846.2,314.4 846.2,314.6 846.2,313.5 846.2,312.6 846.3,311.8 846.3,312.0 846.3,312.3 846.3,312.6 846.4,313.1 846.4,312.2 846.4,312.4 846.4,311.4 846.4,311.6 846.4,310.5 846.4,310.7 846.4,309.6 846.4,309.8 846.4,310.1 846.4,310.5 846.5,310.9 846.5,310.0 846.5,309.1 846.5,309.4 846.5,308.3 846.5,308.5 846.5,307.4 846.5,307.7 846.6,307.9 846.6,308.3 846.6,308.7 846.6,308.9 846.6,307.9 846.6,308.1 846.6,307.0 846.7,307.2 846.7,307.5 846.7,306.1 846.7,305.3 846.8,304.4 846.8,304.6 846.8,303.5 846.9,302.7 846.9,301.8 847.0,301.0 847.0,301.2 847.0,301.4 847.0,300.1 847.0,299.2 847.0,299.5 847.0,298.4 847.1,298.6 847.1,298.9 847.1,297.6 847.1,296.7 847.1,295.8 847.2,294.9 847.2,295.2 847.2,294.1 847.2,294.3 847.2,293.2 847.2,293.4 847.2,293.7 847.2,294.0 847.3,294.5 847.3,293.6 847.3,293.8 847.3,292.8 847.3,293.0 847.3,291.9 847.4,292.1 847.4,291.0 847.4,291.2 847.4,290.2 847.4,290.4 847.4,289.3 847.4,289.5 847.4,288.4 847.4,288.7 847.4,287.6 847.4,287.8 847.4,286.7 847.5,287.0 847.5,285.9 847.5,286.1 847.5,285.0 847.5,285.3 847.5,285.5 847.5,285.9 847.5,284.2 847.5,283.3 847.6,282.5 847.6,282.7 847.6,283.0 847.6,283.3 847.6,283.8 847.6,284.0 847.6,282.9 847.6,283.1 847.6,282.0 847.6,281.2 847.6,281.4 847.6,280.3 847.7,280.5 847.7,279.5 847.7,279.7 847.7,280.0 847.7,278.6 847.7,278.8 847.7,279.1 847.7,279.5 847.8,279.9 847.8,279.0 847.8,278.2 847.8,277.3 847.8,276.5 847.8,275.6 847.8,275.8 847.8,274.7 847.8,275.0 847.8,273.9 847.8,274.1 847.8,273.0 847.9,273.2 847.9,272.2 847.9,272.4 847.9,272.7 847.9,273.0 847.9,273.4 847.9,273.6 847.9,273.9 847.9,274.3 847.9,274.7 848.0,274.9 848.0,275.2 848.0,275.5 848.0,276.0 848.0,276.2 848.0,276.4 848.0,276.8 848.0,277.2 848.1,277.4 848.1,277.7 848.1,278.1 848.1,278.5 848.1,278.7 848.1,279.0 848.1,279.3 848.1,279.7 848.2,280.0 848.2,280.2 848.2,278.9 848.2,279.1 848.2,278.0 848.2,277.2 848.2,277.4 848.2,277.7 848.2,276.3 848.2,275.4 848.2,274.6 848.3,273.7 848.3,273.9 848.3,272.9 848.3,273.1 848.3,272.0 848.3,271.1 848.3,271.3 848.3,270.3 848.3,270.5 848.3,269.4 848.3,269.6 848.3,268.5 848.3,267.7 848.3,266.8 848.3,267.0 848.3,266.0 848.4,265.1 848.4,265.3 848.4,264.3 848.4,263.4 848.4,263.6 848.4,262.5 848.4,262.8 848.4,261.7 848.4,260.8 848.4,260.0 848.5,260.2 848.5,259.1 848.5,259.3 848.5,258.2 848.5,258.4 848.5,257.4 848.5,257.6 848.7,257.9 848.7,258.2 848.8,256.5 848.8,256.7 848.8,257.0 848.8,255.7 848.8,254.8 848.8,253.9 848.9,253.1 848.9,252.2 848.9,252.4 848.9,251.3 848.9,250.5 849.0,250.7 849.0,249.6 849.0,248.8 849.0,247.9 849.0,247.1 849.0,247.3 849.0,246.2 849.0,246.4 849.0,245.3 849.0,245.5 849.0,244.5 849.1,243.6 849.1,243.8 849.1,244.1 849.1,242.8 849.1,243.0 849.1,243.3 849.1,241.9 849.1,241.0 849.1,241.3 849.1,240.2 849.1,239.3 849.1,238.5 849.2,238.7 849.2,239.0 849.2,237.6 849.2,236.8 849.2,235.9 849.2,235.0 849.2,234.2 849.2,234.4 849.3,233.3 849.3,232.4 849.3,232.7 849.3,231.6 849.4,230.7 849.4,231.0 849.4,231.2 849.4,231.6 849.4,232.0 849.4,231.1 849.4,231.4 849.4,231.6 849.4,230.3 849.4,230.5 849.5,229.4 849.5,229.7 849.5,228.6 849.5,227.7 849.5,227.9 849.5,228.2 849.5,228.5 849.5,226.9 849.5,227.1 849.5,227.3 849.5,226.0 849.5,225.2 849.6,224.3 849.6,223.4 849.6,222.5 849.6,222.8 849.6,221.7 849.7,220.8 849.7,221.0 849.7,220.0 849.7,220.2 849.7,219.1 849.7,219.3 849.7,218.2 849.8,217.4 849.8,217.6 849.8,217.9 849.8,218.2 849.8,218.6 849.9,218.8 849.9,217.8 849.9,216.9 850.0,216.0 850.0,216.3 850.0,215.2 850.0,215.4 850.0,214.3 850.0,214.5 850.0,213.5 850.1,213.7 850.1,212.6 850.1,211.8 850.1,210.9 850.1,211.1 850.1,211.4 850.1,211.7 850.2,212.2 850.2,212.4 850.2,212.7 850.2,213.0 850.2,213.4 850.2,213.7 850.2,212.6 850.3,212.8 850.3,211.7 850.3,210.9 850.3,210.0 850.3,209.2 850.3,209.4 850.3,208.3 850.3,207.5 850.3,207.7 850.3,206.6 850.4,205.7 850.4,204.9 850.4,205.1 850.4,204.0 850.4,204.2 850.4,203.1 850.5,202.3 850.5,202.5 850.5,202.8 850.5,203.1 850.5,201.5 850.5,201.7 850.5,202.0 850.5,200.6 850.5,200.8 850.6,201.1 850.6,199.8 850.6,200.0 850.6,200.2 850.6,200.6 850.6,198.9 850.6,199.1 850.6,198.1 850.7,198.3 850.7,197.2 850.8,196.3 850.8,196.6 850.8,196.8 850.8,195.5 850.8,195.7 850.8,196.0 850.8,194.7 850.8,194.9 850.8,195.2 850.8,195.5 850.8,193.8 850.9,194.0 850.9,194.3 850.9,194.7 850.9,193.0 850.9,193.2 850.9,192.1 850.9,192.3 850.9,192.6 850.9,191.3 850.9,191.5 850.9,191.8 850.9,192.1 851.0,192.5 851.0,191.7 851.0,191.9 851.1,190.8 851.1,191.1 851.1,191.3 851.1,191.7 851.1,190.0 851.1,190.2 851.1,190.5 851.1,190.9 851.1,191.3 851.2,191.5 851.2,191.8 851.2,192.1 851.2,192.5 851.2,192.8 851.2,191.7 851.2,191.9 851.2,190.8 851.2,190.0 851.2,190.2 851.2,190.5 851.3,190.8 851.3,191.2 851.4,191.4 851.4,190.4 851.4,190.6 851.4,189.5 851.4,189.7 851.4,190.0 851.4,188.7 851.4,188.9 851.4,189.2 851.4,187.8 851.5,188.1 851.5,188.3 851.5,188.7 851.5,187.0 851.5,187.2 851.5,186.1 851.5,186.4 851.6,186.6 851.6,185.3 851.6,185.5 851.6,185.8 851.6,184.4 851.6,184.7 851.6,184.9 851.6,183.6 851.7,183.8 851.7,184.1 851.8,182.7 851.8,183.0 851.8,183.2 851.8,183.6 851.8,184.0 851.8,183.1 852.0,183.4 852.0,182.3 852.0,181.4 852.0,180.6 852.0,180.8 852.0,179.7 852.0,178.8 852.0,179.1 852.0,178.0 852.0,178.2 852.0,177.1 852.1,176.2 852.1,176.5 852.1,175.4 852.1,175.6 852.1,175.9 852.1,176.2 852.1,176.7 852.2,176.9 852.2,177.2 852.2,175.8 852.3,176.1 852.3,176.3 852.3,175.0 852.3,175.2 852.5,174.1 852.6,174.3 852.6,173.3 852.6,172.4 852.6,171.5 852.6,170.7 852.6,170.9 852.6,169.8 852.7,170.0 852.8,170.3 852.8,170.7 852.8,169.0 852.8,168.1 852.8,167.3 852.8,167.5 852.8,167.7 852.8,166.4 852.8,165.6 852.9,164.7 852.9,163.8 852.9,164.1 853.0,164.3 853.0,164.7 853.0,163.0 853.0,162.2 853.1,162.4 853.1,162.6 853.1,161.3 853.1,160.4 853.1,160.7 853.1,160.9 853.2,161.3 853.2,161.7 853.2,161.9 853.2,160.9 853.2,161.1 853.2,161.4 853.2,160.0 853.2,160.2 853.2,159.1 853.2,158.3 853.2,157.4 853.2,157.6 853.2,156.6 853.2,156.8 853.3,157.1 853.3,157.4 853.3,157.8 853.3,157.0 853.3,157.2 853.3,156.1 853.3,156.3 853.3,155.3 853.3,155.5 853.3,155.7 853.3,154.4 853.3,154.6 853.3,153.6 853.4,152.7 853.4,152.9 853.4,153.2 853.4,153.5 853.4,151.8 853.4,152.1 853.4,152.3 853.4,152.7 853.4,153.1 853.5,153.3 853.5,153.6 853.5,153.9 853.5,154.4 853.6,154.6 853.6,154.8 853.6,155.2 853.6,153.5 853.6,153.7 853.6,152.7 853.6,151.8 853.6,152.0 853.7,152.3 853.7,152.7 853.7,151.0 853.8,151.2 853.8,151.5 853.8,151.8 853.8,150.1 853.8,150.4 853.8,149.3 853.8,149.5 853.8,148.4 853.8,148.6 853.8,148.9 853.8,149.2 853.8,147.6 853.8,146.7 853.9,146.9 853.9,145.9 853.9,145.0 853.9,144.1 853.9,144.3 853.9,143.3 854.0,143.5 854.0,142.4 854.0,142.6 854.0,142.9 854.0,143.3 854.1,141.6 854.1,141.8 854.2,142.1 854.2,140.7 854.2,140.9 854.2,139.9 854.2,140.1 854.2,140.4 854.2,139.0 854.2,138.2 854.2,138.4 854.3,138.7 854.3,139.0 854.3,139.4 854.4,139.6 854.4,139.9 854.4,140.3 854.4,140.7 854.4,140.9 854.4,141.2 854.4,139.8 854.4,139.0 854.4,139.2 854.4,138.1 854.4,138.4 854.4,138.6 854.4,139.0 854.4,139.4 854.5,139.6 854.5,139.9 854.5,138.6 854.6,138.8 854.6,137.7 854.6,137.9 854.6,138.2 854.6,136.9 854.6,137.1 854.6,136.0 854.6,136.3 854.6,136.5 854.6,135.2 854.6,135.4 854.6,134.3 854.6,134.5 854.7,133.4 854.7,133.7 854.7,133.9 854.8,132.6 854.8,131.7 854.8,132.0 854.8,132.2 854.8,130.9 855.0,131.1 855.0,131.4 855.0,131.7 855.0,132.2 855.1,132.4 855.1,132.7 855.1,133.0 855.2,133.4 855.2,133.6 855.2,133.9 855.2,134.3 855.2,134.7 855.2,134.9 855.2,133.8 855.3,134.0 855.3,133.0 855.3,133.2 855.4,133.5 855.4,133.8 855.4,134.2 855.4,133.4 855.4,133.6 855.5,133.8 855.5,134.2 855.5,134.6 855.6,134.8 855.6,135.1 855.6,133.8 855.6,134.0 855.6,134.2 855.6,132.9 855.6,133.1 855.6,133.4 855.6,133.7 855.7,132.1 855.7,131.2 855.7,131.4 855.7,131.7 855.8,132.1 855.8,132.5 855.8,132.7 856.0,133.0 856.0,133.3 856.0,131.6 856.0,131.9 856.0,132.1 856.1,132.5 856.1,132.9 856.1,133.1 856.1,132.1 856.1,132.3 856.1,131.2 856.1,130.3 856.1,130.6 856.2,130.8 856.2,129.5 856.2,129.7 856.2,128.6 856.2,127.8 856.2,126.9 856.2,127.1 856.3,127.4 856.3,126.0 856.3,125.2 856.4,125.4 856.4,125.7 856.4,126.0 856.4,126.5 856.4,126.7 856.4,127.0 856.5,127.3 856.5,127.7 856.5,126.9 856.5,126.0 856.6,126.2 856.6,126.5 856.6,126.8 856.6,127.3 856.6,127.5 856.6,127.8 856.6,128.1 856.6,126.4 856.6,126.7 856.6,126.9 856.6,125.6 856.6,125.8 856.6,126.1 856.7,126.4 856.7,124.8 856.7,125.0 856.7,125.3 856.7,123.9 856.7,124.1 856.7,124.4 856.7,124.8 856.7,125.2 856.8,125.4 856.8,125.7 856.8,126.0 856.8,124.3 856.8,124.6 856.8,124.8 856.8,123.5 856.8,122.6 856.8,122.8 856.9,123.1 856.9,121.8 856.9,122.0 856.9,122.2 856.9,120.9 856.9,121.1 856.9,121.4 856.9,121.8 856.9,122.2 856.9,122.4 856.9,122.7 857.0,123.0 857.0,121.4 857.0,121.6 857.0,120.5 857.0,119.6 857.0,119.9 857.0,120.1 857.1,120.5 857.1,120.9 857.1,120.1 857.1,119.2 857.2,118.3 857.2,118.6 857.2,117.5 857.2,116.6 857.3,116.8 857.3,117.1 857.3,117.4 857.3,117.9 857.3,118.1 857.3,117.0 857.4,117.2 857.4,117.5 857.4,116.1 857.8,116.4 857.9,116.6 857.9,117.0 857.9,117.4 857.9,117.6 857.9,117.9 857.9,116.6 858.0,116.8 858.0,117.1 858.0,117.4 858.1,117.9 858.2,118.1 858.2,118.4 858.2,118.7 858.3,119.1 858.5,118.3 858.7,118.5 858.7,118.8 858.7,119.1 858.7,117.4 858.7,117.6 858.7,116.6 858.8,116.8 859.0,117.1 859.0,117.4 859.2,117.9 859.2,118.1 859.2,117.0 859.2,117.2 859.4,117.5 859.6,117.8 859.6,118.2 859.6,118.5 859.6,118.7 859.6,119.1 859.7,119.5 859.7,119.7 859.7,120.0 859.8,120.4 859.8,120.8 859.8,121.0 859.8,121.3 859.8,121.7 859.8,122.1 859.8,122.3 859.9,122.6 860.1,122.9 860.2,123.4 860.3,122.5 860.8,121.7 860.9,120.8 860.9,121.0 860.9,121.3 860.9,121.6 860.9,122.1 860.9,122.3 860.9,122.6 861.0,122.9 861.0,123.3 861.0,123.6 861.0,123.8 861.1,124.2 861.1,124.6 861.2,123.8 861.3,124.0 861.3,122.9 861.3,123.1 861.5,123.4 863.1,123.7 863.3,124.2 864.7,123.3 864.9,123.6 865.9,122.5 866.0,122.7 866.0,123.0 866.0,123.3 866.1,121.6 866.1,121.8 866.1,122.1 866.1,122.4 866.1,122.9 866.1,123.1 866.1,123.4 866.1,123.7 866.1,124.1 866.2,123.3 866.2,123.5 866.2,123.8 866.2,124.1 866.2,124.6 866.2,124.8 866.2,125.1 866.2,125.4 866.2,125.9 866.3,126.1 866.3,126.3 866.3,126.7 866.3,127.1 866.3,127.3 866.3,127.6 866.3,127.9 866.3,126.3 867.9,126.5 867.9,126.8 868.0,127.1 868.0,127.5 868.0,127.7 868.0,128.0 868.0,128.4 868.5,128.8 868.5,129.0 868.5,129.3 868.5,129.6 868.6,130.1 869.3,130.3 869.3,130.6 869.4,130.9 869.4,131.3 870.7,131.5 870.9,131.8 873.6,132.1 873.8,132.6 873.9,132.8 874.0,133.1 874.2,133.4 874.6,133.9 883.4,134.1 883.4,134.3 883.4,134.7 883.4,135.1 888.5,134.2 891.7,134.5 892.0,134.7 892.1,135.1 904.0,133.4 904.0,133.6 904.0,132.6 904.0,132.8 904.0,133.0 904.3,131.7 911.5,131.9 919.8,130.9 923.1,131.1 923.3,131.4" fill="none" stroke="#16a34a" stroke-width="2" stroke-linejoin="round"/>
  <line x1="88" y1="102" x2="110" y2="102" stroke="#16a34a" stroke-width="2.5"/><text x="116" y="106" font-size="11.5" fill="#374151">equity</text><line x1="88" y1="118" x2="110" y2="118" stroke="#d97706" stroke-width="2.5" opacity="0.8"/><text x="116" y="122" font-size="11.5" fill="#374151">price</text>
  <text x="78" y="502" text-anchor="start" font-size="12" fill="#6b7280">2025-10-10</text><text x="934" y="502" text-anchor="end" font-size="12" fill="#6b7280">2025-10-10</text>
</svg>
