<?xml version="1.0" encoding="UTF-8"?>
<svg xmlns="http://www.w3.org/2000/svg" width="1100" height="560" viewBox="0 0 1100 560" font-family="ui-sans-serif, system-ui, sans-serif">
  <rect width="1100" height="560" fill="#ffffff"/>
  <text x="80" y="28" font-size="18" font-weight="700" fill="#111827">Zone Recovery — ETHUSDC fee-tier comparison (best setting)</text>
  <text x="80" y="48" font-size="12.5" fill="#6b7280">lev 50 · ratio 2 · gap 35% · maxSteps 6 · maxDD 60% · random  ·  equity per fee tier vip 0..9</text>
  <text x="80" y="68" font-size="12.5" font-weight="600" fill="#1d4ed8">USDC margin · BNB −10%</text>
  <line x1="80" y1="508.0" x2="932" y2="508.0" stroke="#e5e7eb" stroke-width="1"/><text x="70" y="512.0" text-anchor="end" font-size="12" fill="#6b7280">0.00</text><line x1="80" y1="424.0" x2="932" y2="424.0" stroke="#e5e7eb" stroke-width="1"/><text x="70" y="428.0" text-anchor="end" font-size="12" fill="#6b7280">66581</text><line x1="80" y1="340.0" x2="932" y2="340.0" stroke="#e5e7eb" stroke-width="1"/><text x="70" y="344.0" text-anchor="end" font-size="12" fill="#6b7280">133161</text><line x1="80" y1="256.0" x2="932" y2="256.0" stroke="#e5e7eb" stroke-width="1"/><text x="70" y="260.0" text-anchor="end" font-size="12" fill="#6b7280">199742</text><line x1="80" y1="172.0" x2="932" y2="172.0" stroke="#e5e7eb" stroke-width="1"/><text x="70" y="176.0" text-anchor="end" font-size="12" fill="#6b7280">266322</text><line x1="80" y1="88.0" x2="932" y2="88.0" stroke="#e5e7eb" stroke-width="1"/><text x="70" y="92.0" text-anchor="end" font-size="12" fill="#6b7280">332903</text>
  <line x1="80" y1="495.4" x2="932" y2="495.4" stroke="#9ca3af" stroke-width="1.5" stroke-dasharray="6 4"/>
  <polyline points="80.0,495.4 80.0,494.7 87.9,494.0 93.8,494.4 95.5,493.3 95.9,493.7 96.2,494.4 96.5,495.5 97.4,497.1 102.4,499.5 110.2,503.0 113.3,503.2 126.6,503.4 134.4,502.8 136.7,503.0 140.9,503.2 142.1,503.6 161.8,504.1 163.8,502.7 167.2,502.4 175.4,502.6 177.7,502.9 180.3,503.3 182.5,503.9 182.8,504.8 183.2,502.4 186.2,502.6 190.4,502.9 198.4,503.3 199.1,503.9 207.2,504.8 207.4,502.5 209.9,502.2 211.7,501.8 214.9,501.5 216.0,501.1 216.9,501.4 218.4,501.7 219.9,502.2 230.1,500.9 230.5,501.1 232.4,501.5 234.7,502.0 234.9,502.7 235.6,503.9 237.1,500.9 246.8,501.2 247.8,501.5 249.2,502.0 250.6,502.8 255.1,500.8 264.6,500.4 265.6,500.7 268.7,500.0 271.4,499.6 277.8,499.1 277.9,499.4 286.5,498.7 294.4,498.2 297.9,498.5 348.0,499.0 365.0,497.7 371.0,498.1 378.7,497.2 378.8,497.6 379.0,498.1 380.4,496.8 382.6,496.1 383.2,496.5 387.7,497.1 391.4,497.9 406.3,495.8 406.9,496.1 407.3,496.7 409.3,495.2 409.8,495.6 412.1,496.2 416.5,494.7 416.6,495.1 416.6,494.0 416.6,493.2 416.6,493.7 416.6,494.4 416.7,492.6 421.4,491.7 431.4,490.8 433.1,491.4 434.6,492.2 436.5,490.1 438.2,490.7 439.7,491.5 441.9,492.8 445.6,494.7 451.4,489.8 451.7,490.3 452.5,491.2 458.7,489.0 464.9,489.6 464.9,490.5 465.9,491.8 469.5,488.3 476.5,487.2 477.3,487.9 494.6,486.2 516.0,485.0 554.9,483.7 560.4,484.5 561.5,482.5 561.6,481.1 561.8,482.0 576.5,483.3 578.3,485.2 596.0,480.2 597.8,478.7 599.8,479.6 607.1,477.2 607.7,478.2 611.0,475.7 616.9,473.9 620.1,475.0 630.5,476.6 632.1,479.1 632.8,482.7 633.2,473.3 633.9,474.4 635.5,471.5 636.8,469.5 637.0,470.7 638.3,467.6 638.4,468.9 638.5,465.5 639.1,466.9 639.2,468.9 641.0,463.7 641.8,461.3 641.9,458.7 642.1,456.0 642.5,457.7 646.8,453.4 648.7,450.4 651.4,452.2 663.4,447.5 665.5,444.2 665.9,446.2 666.6,449.3 666.6,453.8 681.4,442.0 683.4,438.4 693.1,434.6 693.4,437.0 693.9,440.5 693.9,445.7 694.5,432.2 695.3,434.6 695.4,438.2 696.5,428.9 697.1,431.4 697.7,435.2 698.3,440.8 700.1,426.2 743.1,428.8 745.2,432.7 751.9,438.5 752.2,423.4 754.9,418.8 755.9,421.6 761.7,425.9 763.0,414.9 765.3,417.8 769.0,422.3 771.3,410.8 778.6,405.5 778.7,408.8 779.4,400.3 780.0,394.4 781.4,398.1 781.9,403.5 782.8,411.6 786.5,423.8 787.1,442.1 809.0,395.0 809.1,398.6 810.4,404.0 812.4,412.1 814.6,391.2 822.4,394.9 830.3,400.5 836.5,408.8 839.7,421.4 839.9,440.2 840.3,468.5 850.0,466.3 852.2,464.0 864.2,465.4 864.8,461.8 864.9,463.3 865.1,459.5 865.2,461.0 865.6,463.3 867.2,466.8 868.8,472.0 869.0,458.6 869.1,460.1 869.4,462.5 870.2,466.0 877.5,471.3 877.6,457.6 877.6,454.9 877.6,456.6 880.5,452.2 883.4,449.1 883.6,451.0 883.7,453.8 889.7,446.6 891.0,448.5 893.0,451.5 893.3,455.9 894.0,444.5 894.1,441.0 895.0,443.2 895.1,446.4 895.8,451.2 896.2,458.3 896.5,469.1 897.3,441.3 897.4,437.6 897.4,439.8 897.8,434.1 897.9,430.0 898.2,432.5 899.4,436.2 899.8,426.6 899.9,429.2 900.0,433.1 900.1,438.9 900.7,447.7 913.2,460.8 914.3,426.9 914.4,429.5 914.6,433.4 920.2,439.2 921.2,424.2 921.3,426.8 921.3,419.9 921.3,422.7 921.3,426.9 921.3,433.3 921.3,442.7 922.0,456.9 923.1,478.2 923.5,479.2 923.7,480.6 924.1,476.9 924.3,477.9 924.4,479.4 924.4,481.6 924.5,475.9 924.5,476.9 924.5,474.3 924.6,475.3 924.6,476.9 924.6,472.8 925.0,470.9 925.0,472.0 925.9,473.8 926.1,476.5 926.2,480.5 926.3,470.2 926.4,468.1 926.4,469.4 926.4,466.1 926.4,463.8 926.4,461.4 926.4,458.8 926.4,460.4 926.4,456.3 926.4,458.0 926.4,460.5 926.5,454.1 926.9,455.8 927.3,458.4 928.3,462.2 928.3,468.0 929.6,476.7 931.8,454.3 931.9,451.4 932.0,453.2" fill="none" stroke="#2563eb" stroke-width="1.8" stroke-linejoin="round" opacity="0.9"/>
  <polyline points="80.0,495.4 80.0,494.7 87.9,494.0 93.8,494.4 95.5,493.3 95.9,493.7 96.2,494.4 96.5,495.5 97.4,497.1 102.4,499.5 110.2,503.0 113.3,503.2 126.6,503.4 134.4,502.8 136.7,503.0 140.9,503.2 142.1,503.6 161.8,504.1 163.8,502.7 167.2,502.4 175.4,502.6 177.7,502.9 180.3,503.3 182.5,503.9 182.8,504.8 183.2,502.4 186.2,502.6 190.4,502.9 198.4,503.3 199.1,503.9 207.2,504.8 207.4,502.5 209.9,502.2 211.7,501.8 214.9,501.5 216.0,501.1 216.9,501.4 218.4,501.7 219.9,502.2 230.1,500.9 230.5,501.1 232.4,501.5 234.7,502.0 234.9,502.7 235.6,503.9 237.1,500.9 246.8,501.2 247.8,501.5 249.2,502.0 250.6,502.8 255.1,500.8 264.6,500.4 265.6,500.7 268.7,500.0 271.4,499.6 277.8,499.1 277.9,499.4 286.5,498.7 294.4,498.2 297.9,498.5 348.0,499.0 365.0,497.7 371.0,498.1 378.7,497.2 378.8,497.6 379.0,498.1 380.4,496.8 382.6,496.1 383.2,496.5 387.7,497.1 391.4,497.9 406.3,495.8 406.9,496.1 407.3,496.7 409.3,495.2 409.8,495.6 412.1,496.2 416.5,494.7 416.6,495.1 416.6,494.0 416.6,493.2 416.6,493.7 416.6,494.4 416.7,492.6 421.4,491.7 431.4,490.8 433.1,491.4 434.6,492.2 436.5,490.1 438.2,490.7 439.7,491.5 441.9,492.8 445.6,494.7 451.4,489.8 451.7,490.3 452.5,491.2 458.7,489.0 464.9,489.6 464.9,490.5 465.9,491.8 469.5,488.3 476.5,487.2 477.3,487.9 494.6,486.2 516.0,485.0 554.9,483.7 560.4,484.5 561.5,482.5 561.6,481.1 561.8,482.0 576.5,483.3 578.3,485.2 596.0,480.2 597.8,478.7 599.8,479.6 607.1,477.2 607.7,478.2 611.0,475.7 616.9,473.9 620.1,475.0 630.5,476.6 632.1,479.1 632.8,482.7 633.2,473.3 633.9,474.4 635.5,471.5 636.8,469.5 637.0,470.7 638.3,467.6 638.4,468.9 638.5,465.5 639.1,466.9 639.2,468.9 641.0,463.7 641.8,461.3 641.9,458.7 642.1,456.0 642.5,457.7 646.8,453.4 648.7,450.4 651.4,452.2 663.4,447.5 665.5,444.2 665.9,446.2 666.6,449.3 666.6,453.8 681.4,442.0 683.4,438.4 693.1,434.6 693.4,437.0 693.9,440.5 693.9,445.7 694.5,432.2 695.3,434.6 695.4,438.2 696.5,428.9 697.1,431.4 697.7,435.2 698.3,440.8 700.1,426.2 743.1,428.8 745.2,432.7 751.9,438.5 752.2,423.4 754.9,418.8 755.9,421.6 761.7,425.9 763.0,414.9 765.3,417.8 769.0,422.3 771.3,410.8 778.6,405.5 778.7,408.8 779.4,400.3 780.0,394.4 781.4,398.1 781.9,403.5 782.8,411.6 786.5,423.8 787.1,442.1 809.0,395.0 809.1,398.6 810.4,404.0 812.4,412.1 814.6,391.2 822.4,394.9 830.3,400.5 836.5,408.8 839.7,421.4 839.9,440.2 840.3,468.5 850.0,466.3 852.2,464.0 864.2,465.4 864.8,461.8 864.9,463.3 865.1,459.5 865.2,461.0 865.6,463.3 867.2,466.8 868.8,472.0 869.0,458.6 869.1,460.1 869.4,462.5 870.2,466.0 877.5,471.3 877.6,457.6 877.6,454.9 877.6,456.6 880.5,452.2 883.4,449.1 883.6,451.0 883.7,453.8 889.7,446.6 891.0,448.5 893.0,451.5 893.3,455.9 894.0,444.5 894.1,441.0 895.0,443.2 895.1,446.4 895.8,451.2 896.2,458.3 896.5,469.1 897.3,441.3 897.4,437.6 897.4,439.8 897.8,434.1 897.9,430.0 898.2,432.5 899.4,436.2 899.8,426.6 899.9,429.2 900.0,433.1 900.1,438.9 900.7,447.7 913.2,460.8 914.3,426.9 914.4,429.5 914.6,433.4 920.2,439.2 921.2,424.2 921.3,426.8 921.3,419.9 921.3,422.7 921.3,426.9 921.3,433.3 921.3,442.7 922.0,456.9 923.1,478.2 923.5,479.2 923.7,480.6 924.1,476.9 924.3,477.9 924.4,479.4 924.4,481.6 924.5,475.9 924.5,476.9 924.5,474.3 924.6,475.3 924.6,476.9 924.6,472.8 925.0,470.9 925.0,472.0 925.9,473.8 926.1,476.5 926.2,480.5 926.3,470.2 926.4,468.1 926.4,469.4 926.4,466.1 926.4,463.8 926.4,461.4 926.4,458.8 926.4,460.4 926.4,456.3 926.4,458.0 926.4,460.5 926.5,454.1 926.9,455.8 927.3,458.4 928.3,462.2 928.3,468.0 929.6,476.7 931.8,454.3 931.9,451.4 932.0,453.2" fill="none" stroke="#dc2626" stroke-width="1.8" stroke-linejoin="round" opacity="0.9"/>
  <polyline points="80.0,495.4 80.0,494.7 87.9,493.9 93.8,494.4 95.5,493.2 95.9,493.7 96.2,494.4 96.5,495.4 97.4,497.0 102.4,499.3 110.2,502.8 113.3,503.0 126.6,503.2 134.4,502.6 136.7,502.7 140.9,503.0 142.1,503.4 161.8,504.0 163.8,502.4 167.2,502.1 175.4,502.3 177.7,502.6 180.3,503.0 182.5,503.6 182.8,504.5 183.2,502.1 186.2,502.3 190.4,502.5 198.4,503.0 199.1,503.6 207.2,504.5 207.4,502.0 209.9,501.7 211.7,501.4 214.9,501.0 216.0,500.6 216.9,500.8 218.4,501.2 219.9,501.7 230.1,500.3 230.5,500.6 232.4,500.9 234.7,501.5 234.9,502.3 235.6,503.5 237.1,500.2 246.8,500.5 247.8,500.9 249.2,501.4 250.6,502.2 255.1,500.0 264.6,499.6 265.6,499.9 268.7,499.2 271.4,498.7 277.8,498.2 277.9,498.5 286.5,497.7 294.4,497.1 297.9,497.4 348.0,497.9 365.0,496.6 371.0,496.9 378.7,496.0 378.8,496.4 379.0,496.9 380.4,495.4 382.6,494.7 383.2,495.1 387.7,495.8 391.4,496.7 406.3,494.2 406.9,494.6 407.3,495.3 409.3,493.6 409.8,494.0 412.1,494.7 416.5,492.9 416.6,493.4 416.6,492.1 416.6,491.2 416.6,491.8 416.6,492.6 416.7,490.5 421.4,489.5 431.4,488.5 433.1,489.1 434.6,490.0 436.5,487.6 438.2,488.2 439.7,489.2 441.9,490.6 445.6,492.8 451.4,487.0 451.7,487.7 452.5,488.7 458.7,486.0 464.9,486.7 464.9,487.8 465.9,489.3 469.5,485.2 476.5,483.9 477.3,484.7 494.6,482.7 516.0,481.3 554.9,479.8 560.4,480.7 561.5,478.4 561.6,476.7 561.8,477.7 576.5,479.2 578.3,481.4 596.0,475.5 597.8,473.7 599.8,474.8 607.1,471.9 607.7,473.0 611.0,470.1 616.9,467.9 620.1,469.2 630.5,471.1 632.1,473.9 632.8,478.1 633.2,466.9 633.9,468.2 635.5,464.8 636.8,462.4 637.0,463.8 638.3,460.0 638.4,461.5 638.5,457.5 639.1,459.1 639.2,461.5 641.0,455.2 641.8,452.2 641.9,449.2 642.1,445.9 642.5,447.8 646.8,442.7 648.7,439.1 651.4,441.2 663.4,435.5 665.5,431.5 665.9,433.9 666.6,437.5 666.6,442.8 681.4,428.5 683.4,424.1 693.1,419.5 693.4,422.3 693.9,426.4 693.9,432.6 694.5,416.1 695.3,419.0 695.4,423.3 696.5,411.8 697.1,414.8 697.7,419.4 698.3,426.1 700.1,408.1 743.1,411.3 745.2,415.9 751.9,423.0 752.2,404.3 754.9,398.5 755.9,402.0 761.7,407.1 763.0,393.5 765.3,397.0 769.0,402.4 771.3,388.1 778.6,381.5 778.7,385.4 779.4,374.9 780.0,367.6 781.4,372.0 781.9,378.5 782.8,388.4 786.5,403.2 787.1,425.5 809.0,366.5 809.1,370.9 810.4,377.5 812.4,387.5 814.6,361.0 822.4,365.6 830.3,372.5 836.5,382.8 839.7,398.3 839.9,421.6 840.3,456.4 850.0,453.6 852.2,450.6 864.2,452.4 864.8,447.6 864.9,449.5 865.1,444.5 865.2,446.4 865.6,449.4 867.2,453.9 868.8,460.6 869.0,442.8 869.1,444.8 869.4,447.9 870.2,452.5 877.5,459.3 877.6,441.1 877.6,437.4 877.6,439.6 880.5,433.7 883.4,429.6 883.6,432.0 883.7,435.7 889.7,425.9 891.0,428.5 893.0,432.3 893.3,438.1 894.0,422.8 894.1,418.1 895.0,420.9 895.1,425.1 895.8,431.4 896.2,440.9 896.5,455.1 897.3,417.3 897.4,412.2 897.4,415.2 897.8,407.3 897.9,401.7 898.2,405.0 899.4,410.0 899.8,396.8 899.9,400.2 900.0,405.5 900.1,413.3 900.7,425.0 913.2,442.6 914.3,395.8 914.4,399.3 914.6,404.6 920.2,412.5 921.2,391.5 921.3,395.1 921.3,385.4 921.3,389.3 921.3,395.0 921.3,403.6 921.3,416.6 922.0,436.0 923.1,465.0 923.5,466.4 923.7,468.4 924.1,463.0 924.3,464.5 924.4,466.6 924.4,469.7 924.5,461.3 924.5,462.8 924.5,458.9 924.6,460.4 924.6,462.7 924.6,456.6 925.0,453.8 925.0,455.5 925.9,458.0 926.1,461.8 926.2,467.5 926.3,452.3 926.4,449.2 926.4,451.1 926.4,446.2 926.4,442.8 926.4,439.2 926.4,435.4 926.4,437.6 926.4,431.6 926.4,434.0 926.4,437.6 926.5,428.1 926.9,430.6 927.3,434.3 928.3,439.9 928.3,448.4 929.6,461.0 931.8,427.4 931.9,423.0 932.0,425.6" fill="none" stroke="#16a34a" stroke-width="1.8" stroke-linejoin="round" opacity="0.9"/>
  <polyline points="80.0,495.4 80.0,494.7 87.9,493.9 93.8,494.4 95.5,493.2 95.9,493.6 96.2,494.3 96.5,495.4 97.4,496.9 102.4,499.2 110.2,502.7 113.3,502.8 126.6,503.1 134.4,502.4 136.7,502.6 140.9,502.8 142.1,503.2 161.8,503.8 163.8,502.2 167.2,501.9 175.4,502.1 177.7,502.4 180.3,502.8 182.5,503.4 182.8,504.4 183.2,501.8 186.2,502.0 190.4,502.3 198.4,502.7 199.1,503.3 207.2,504.3 207.4,501.7 209.9,501.3 211.7,501.0 214.9,500.6 216.0,500.1 216.9,500.4 218.4,500.7 219.9,501.3 230.1,499.8 230.5,500.1 232.4,500.4 234.7,501.0 234.9,501.9 235.6,503.1 237.1,499.7 246.8,499.9 247.8,500.3 249.2,500.9 250.6,501.7 255.1,499.4 264.6,498.9 265.6,499.2 268.7,498.4 271.4,497.9 277.8,497.3 277.9,497.6 286.5,496.8 294.4,496.1 297.9,496.5 348.0,497.0 365.0,495.5 371.0,495.9 378.7,494.9 378.8,495.3 379.0,495.9 380.4,494.2 382.6,493.5 383.2,493.9 387.7,494.6 391.4,495.6 406.3,492.9 406.9,493.3 407.3,494.0 409.3,492.1 409.8,492.6 412.1,493.4 416.5,491.4 416.6,491.9 416.6,490.5 416.6,489.5 416.6,490.1 416.6,490.9 416.7,488.6 421.4,487.5 431.4,486.4 433.1,487.0 434.6,488.0 436.5,485.3 438.2,486.0 439.7,487.1 441.9,488.6 445.6,491.0 451.4,484.6 451.7,485.3 452.5,486.4 458.7,483.4 464.9,484.2 464.9,485.3 465.9,487.0 469.5,482.4 476.5,481.0 477.3,481.8 494.6,479.5 516.0,477.9 554.9,476.3 560.4,477.2 561.5,474.6 561.6,472.7 561.8,473.8 576.5,475.4 578.3,477.9 596.0,471.2 597.8,469.2 599.8,470.4 607.1,467.1 607.7,468.4 611.0,464.9 616.9,462.5 620.1,463.9 630.5,466.0 632.1,469.2 632.8,473.9 633.2,461.0 633.9,462.5 635.5,458.5 636.8,455.8 637.0,457.4 638.3,453.0 638.4,454.7 638.5,450.1 639.1,451.9 639.2,454.6 641.0,447.3 641.8,443.9 641.9,440.3 642.1,436.5 642.5,438.7 646.8,432.7 648.7,428.5 651.4,431.0 663.4,424.3 665.5,419.7 665.9,422.4 666.6,426.5 666.6,432.6 681.4,415.9 683.4,410.8 693.1,405.4 693.4,408.5 693.9,413.3 693.9,420.4 694.5,401.0 695.3,404.3 695.4,409.3 696.5,395.8 697.1,399.3 697.7,404.4 698.3,412.2 700.1,391.1 743.1,394.7 745.2,400.1 751.9,408.1 752.2,386.1 754.9,379.3 755.9,383.2 761.7,389.2 763.0,373.0 765.3,377.2 769.0,383.4 771.3,366.4 778.6,358.5 778.7,363.1 779.4,350.6 780.0,341.8 781.4,346.9 781.9,354.6 782.8,366.1 786.5,383.4 787.1,409.3 809.0,338.9 809.1,344.1 810.4,351.9 812.4,363.6 814.6,331.7 822.4,337.1 830.3,345.3 836.5,357.5 839.7,375.8 839.9,403.2 840.3,444.4 850.0,440.9 852.2,437.1 864.2,439.3 864.8,433.4 864.9,435.7 865.1,429.4 865.2,431.8 865.6,435.5 867.2,440.9 868.8,449.1 869.0,426.8 869.1,429.3 869.4,433.1 870.2,438.7 877.5,447.1 877.6,424.2 877.6,419.5 877.6,422.2 880.5,414.8 883.4,409.6 883.6,412.6 883.7,417.2 889.7,404.8 891.0,408.0 893.0,412.8 893.3,419.9 894.0,400.4 894.1,394.4 895.0,397.9 895.1,403.2 895.8,411.0 896.2,422.8 896.5,440.5 897.3,392.3 897.4,385.9 897.4,389.6 897.8,379.4 897.9,372.2 898.2,376.4 899.4,382.7 899.8,365.6 899.9,370.0 900.0,376.6 900.1,386.4 900.7,401.2 913.2,423.4 914.3,363.0 914.4,367.4 914.6,374.1 920.2,384.2 921.2,356.8 921.3,361.5 921.3,348.8 921.3,353.7 921.3,361.0 921.3,372.1 921.3,388.6 922.0,413.4 923.1,450.6 923.5,452.4 923.7,455.0 924.1,447.8 924.3,449.7 924.4,452.5 924.4,456.6 924.5,445.3 924.5,447.2 924.5,442.0 924.6,444.0 924.6,447.0 924.6,438.7 925.0,434.9 925.0,437.1 925.9,440.5 926.1,445.6 926.2,453.2 926.3,432.5 926.4,428.3 926.4,430.7 926.4,424.0 926.4,419.3 926.4,414.4 926.4,409.2 926.4,412.2 926.4,403.9 926.4,407.1 926.4,411.9 926.5,398.9 926.9,402.2 927.3,407.3 928.3,414.8 928.3,426.2 929.6,443.2 931.8,396.9 931.9,390.7 932.0,394.3" fill="none" stroke="#d97706" stroke-width="1.8" stroke-linejoin="round" opacity="0.9"/>
  <polyline points="80.0,495.4 80.0,494.7 87.9,493.9 93.8,494.3 95.5,493.1 95.9,493.6 96.2,494.3 96.5,495.3 97.4,496.8 102.4,499.0 110.2,502.4 113.3,502.6 126.6,502.9 134.4,502.1 136.7,502.3 140.9,502.6 142.1,503.0 161.8,503.6 163.8,501.9 167.2,501.6 175.4,501.8 177.7,502.0 180.3,502.5 182.5,503.1 182.8,504.1 183.2,501.4 186.2,501.6 190.4,501.9 198.4,502.3 199.1,503.0 207.2,504.0 207.4,501.1 209.9,500.8 211.7,500.3 214.9,499.9 216.0,499.5 216.9,499.7 218.4,500.1 219.9,500.7 230.1,499.0 230.5,499.3 232.4,499.7 234.7,500.3 234.9,501.2 235.6,502.6 237.1,498.8 246.8,499.0 247.8,499.5 249.2,500.1 250.6,501.0 255.1,498.4 264.6,497.8 265.6,498.1 268.7,497.3 271.4,496.7 277.8,496.0 277.9,496.4 286.5,495.4 294.4,494.7 297.9,495.1 348.0,495.7 365.0,494.0 371.0,494.4 378.7,493.2 378.8,493.6 379.0,494.3 380.4,492.4 382.6,491.5 383.2,492.0 387.7,492.8 391.4,493.9 406.3,490.8 406.9,491.3 407.3,492.1 409.3,489.9 409.8,490.4 412.1,491.2 416.5,488.9 416.6,489.5 416.6,487.9 416.6,486.7 416.6,487.4 416.6,488.3 416.7,485.6 421.4,484.4 431.4,483.0 433.1,483.8 434.6,484.9 436.5,481.7 438.2,482.5 439.7,483.7 441.9,485.5 445.6,488.2 451.4,480.7 451.7,481.5 452.5,482.7 458.7,479.2 464.9,480.1 464.9,481.4 465.9,483.3 469.5,477.9 476.5,476.2 477.3,477.1 494.6,474.4 516.0,472.5 554.9,470.5 560.4,471.6 561.5,468.5 561.6,466.2 561.8,467.5 576.5,469.4 578.3,472.2 596.0,464.2 597.8,461.7 599.8,463.1 607.1,459.2 607.7,460.7 611.0,456.5 616.9,453.6 620.1,455.3 630.5,457.7 632.1,461.4 632.8,466.9 633.2,451.4 633.9,453.1 635.5,448.3 636.8,444.9 637.0,446.8 638.3,441.5 638.4,443.5 638.5,437.8 639.1,439.9 639.2,443.1 641.0,434.2 641.8,430.0 641.9,425.6 642.1,420.9 642.5,423.5 646.8,416.2 648.7,411.0 651.4,413.9 663.4,405.7 665.5,399.9 665.9,403.1 666.6,408.0 666.6,415.3 681.4,394.7 683.4,388.3 693.1,381.6 693.4,385.4 693.9,391.1 693.9,399.6 694.5,375.5 695.3,379.5 695.4,385.5 696.5,368.6 697.1,372.8 697.7,379.1 698.3,388.6 700.1,362.0 743.1,366.4 745.2,373.0 751.9,382.8 752.2,355.0 754.9,346.3 755.9,351.2 761.7,358.5 763.0,337.9 765.3,343.1 769.0,350.7 771.3,329.1 778.6,319.0 778.7,324.7 779.4,308.7 780.0,297.4 781.4,303.4 781.9,312.5 782.8,326.0 786.5,346.3 787.1,376.8 809.0,291.0 809.1,297.0 810.4,306.0 812.4,319.6 814.6,281.4 822.4,287.5 830.3,296.7 836.5,310.4 839.7,331.0 839.9,361.9 840.3,408.3 850.0,402.6 852.2,396.7 864.2,400.0 864.8,390.6 864.9,394.1 865.1,384.2 865.2,387.9 865.6,393.5 867.2,401.9 868.8,414.5 869.0,379.0 869.1,382.9 869.4,388.7 870.2,397.5 877.5,410.6 877.6,373.7 877.6,366.1 877.6,370.3 880.5,358.3 883.4,349.8 883.6,354.6 883.7,361.7 889.7,341.6 891.0,346.6 893.0,354.1 893.3,365.4 894.0,333.7 894.1,323.8 895.0,329.4 895.1,337.7 895.8,350.1 896.2,368.8 896.5,396.9 897.3,317.8 897.4,307.1 897.4,313.1 897.8,296.1 897.9,284.7 898.2,290.7 899.4,299.7 899.8,274.3 899.9,280.4 900.0,289.6 900.1,303.3 900.7,323.9 913.2,354.8 914.3,267.7 914.4,273.8 914.6,283.0 920.2,296.7 921.2,258.0 921.3,264.1 921.3,246.9 921.3,252.9 921.3,262.0 921.3,275.5 921.3,295.8 922.0,326.3 923.1,372.0 923.5,376.1 923.7,382.3 924.1,365.0 924.3,369.3 924.4,375.7 924.4,385.4 924.5,358.1 924.5,362.6 924.5,349.9 924.6,354.7 924.6,361.8 924.6,341.7 925.0,332.3 925.0,337.6 925.9,345.5 926.1,357.4 926.2,375.3 926.3,325.0 926.4,314.6 926.4,320.5 926.4,304.1 926.4,292.8 926.4,281.3 926.4,269.8 926.4,275.9 926.4,258.9 926.4,265.0 926.4,274.2 926.5,248.4 926.9,254.4 927.3,263.4 928.3,277.0 928.3,297.3 929.6,327.8 931.8,242.0 931.9,230.5 932.0,236.6" fill="none" stroke="#7c3aed" stroke-width="1.8" stroke-linejoin="round" opacity="0.9"/>
  <polyline points="80.0,495.4 80.0,494.7 87.9,493.9 93.8,494.3 95.5,493.1 95.9,493.6 96.2,494.3 96.5,495.3 97.4,496.8 102.4,499.0 110.2,502.4 113.3,502.6 126.6,502.8 134.4,502.1 136.7,502.3 140.9,502.5 142.1,502.9 161.8,503.5 163.8,501.9 167.2,501.5 175.4,501.7 177.7,502.0 180.3,502.4 182.5,503.1 182.8,504.1 183.2,501.3 186.2,501.5 190.4,501.8 198.4,502.2 199.1,502.9 207.2,503.9 207.4,501.0 209.9,500.7 211.7,500.2 214.9,499.8 216.0,499.3 216.9,499.6 218.4,500.0 219.9,500.6 230.1,498.9 230.5,499.2 232.4,499.6 234.7,500.2 234.9,501.1 235.6,502.5 237.1,498.6 246.8,498.9 247.8,499.3 249.2,499.9 250.6,500.9 255.1,498.2 264.6,497.6 265.6,497.9 268.7,497.1 271.4,496.4 277.8,495.8 277.9,496.1 286.5,495.1 294.4,494.4 297.9,494.8 348.0,495.4 365.0,493.7 371.0,494.1 378.7,492.9 378.8,493.3 379.0,494.0 380.4,492.1 382.6,491.2 383.2,491.7 387.7,492.4 391.4,493.6 406.3,490.4 406.9,490.9 407.3,491.7 409.3,489.4 409.8,490.0 412.1,490.8 416.5,488.5 416.6,489.0 416.6,487.4 416.6,486.2 416.6,486.9 416.6,487.9 416.7,485.1 421.4,483.8 431.4,482.4 433.1,483.2 434.6,484.3 436.5,481.1 438.2,481.9 439.7,483.1 441.9,484.9 445.6,487.6 451.4,479.9 451.7,480.7 452.5,482.0 458.7,478.4 464.9,479.3 464.9,480.6 465.9,482.6 469.5,477.0 476.5,475.2 477.3,476.2 494.6,473.4 516.0,471.5 554.9,469.4 560.4,470.6 561.5,467.3 561.6,465.0 561.8,466.3 576.5,468.2 578.3,471.1 596.0,462.9 597.8,460.3 599.8,461.7 607.1,457.7 607.7,459.2 611.0,454.9 616.9,451.9 620.1,453.6 630.5,456.1 632.1,459.9 632.8,465.6 633.2,449.5 633.9,451.2 635.5,446.3 636.8,442.8 637.0,444.7 638.3,439.2 638.4,441.3 638.5,435.4 639.1,437.6 639.2,440.9 641.0,431.6 641.8,427.3 641.9,422.7 642.1,417.9 642.5,420.6 646.8,412.9 648.7,407.5 651.4,410.5 663.4,402.0 665.5,396.0 665.9,399.4 666.6,404.4 666.6,412.0 681.4,390.5 683.4,383.9 693.1,376.9 693.4,380.8 693.9,386.7 693.9,395.5 694.5,370.5 695.3,374.6 695.4,380.8 696.5,363.3 697.1,367.6 697.7,374.1 698.3,383.9 700.1,356.2 743.1,360.7 745.2,367.6 751.9,377.8 752.2,348.8 754.9,339.8 755.9,344.8 761.7,352.4 763.0,330.9 765.3,336.2 769.0,344.2 771.3,321.6 778.6,311.1 778.7,317.0 779.4,300.3 780.0,288.9 781.4,294.9 781.9,303.9 782.8,317.4 786.5,337.7 787.1,368.0 809.0,282.0 809.1,288.0 810.4,297.0 812.4,310.5 814.6,272.3 822.4,278.4 830.3,287.5 836.5,301.2 839.7,321.7 839.9,352.5 840.3,398.6 850.0,392.4 852.2,385.9 864.2,389.5 864.8,379.2 864.9,383.0 865.1,372.1 865.2,376.2 865.6,382.3 867.2,391.4 868.8,405.2 869.0,366.2 869.1,370.5 869.4,376.8 870.2,386.4 877.5,400.8 877.6,360.1 877.6,351.7 877.6,356.4 880.5,343.1 883.4,333.8 883.6,339.0 883.7,346.8 889.7,324.6 891.0,330.1 893.0,338.4 893.3,350.7 894.0,315.7 894.1,304.8 895.0,310.9 895.1,320.0 895.8,333.7 896.2,354.2 896.5,385.0 897.3,297.7 897.4,286.4 897.4,292.4 897.8,275.4 897.9,263.9 898.2,269.9 899.4,278.9 899.8,253.4 899.9,259.5 900.0,268.6 900.1,282.3 900.7,302.8 913.2,333.6 914.3,246.3 914.4,252.4 914.6,261.5 920.2,275.2 921.2,236.4 921.3,242.5 921.3,225.3 921.3,231.3 921.3,240.3 921.3,253.7 921.3,274.0 922.0,304.3 923.1,349.9 923.5,354.6 923.7,361.7 924.1,341.6 924.3,346.6 924.4,354.1 924.4,365.3 924.5,333.5 924.5,338.7 924.5,323.9 924.6,329.4 924.6,337.7 924.6,314.2 925.0,303.2 925.0,309.2 925.9,318.2 926.1,331.7 926.2,351.9 926.3,294.6 926.4,283.2 926.4,289.3 926.4,272.1 926.4,260.8 926.4,249.3 926.4,237.8 926.4,243.8 926.4,226.8 926.4,232.9 926.4,242.0 926.5,216.2 926.9,222.2 927.3,231.1 928.3,244.6 928.3,264.9 929.6,295.2 931.8,209.2 931.9,197.8 932.0,203.8" fill="none" stroke="#0891b2" stroke-width="1.8" stroke-linejoin="round" opacity="0.9"/>
  <polyline points="80.0,495.4 80.0,494.7 87.9,493.9 93.8,494.3 95.5,493.1 95.9,493.6 96.2,494.2 96.5,495.2 97.4,496.7 102.4,499.0 110.2,502.4 113.3,502.5 126.6,502.8 134.4,502.1 136.7,502.3 140.9,502.5 142.1,502.9 161.8,503.5 163.8,501.8 167.2,501.5 175.4,501.7 177.7,501.9 180.3,502.4 182.5,503.0 182.8,504.0 183.2,501.2 186.2,501.4 190.4,501.7 198.4,502.2 199.1,502.9 207.2,503.9 207.4,501.0 209.9,500.6 211.7,500.2 214.9,499.7 216.0,499.2 216.9,499.5 218.4,499.9 219.9,500.5 230.1,498.8 230.5,499.1 232.4,499.5 234.7,500.1 234.9,501.0 235.6,502.4 237.1,498.5 246.8,498.8 247.8,499.2 249.2,499.8 250.6,500.8 255.1,498.1 264.6,497.5 265.6,497.8 268.7,496.9 271.4,496.3 277.8,495.6 277.9,496.0 286.5,494.9 294.4,494.2 297.9,494.6 348.0,495.2 365.0,493.5 371.0,493.9 378.7,492.7 378.8,493.1 379.0,493.8 380.4,491.8 382.6,490.9 383.2,491.4 387.7,492.2 391.4,493.4 406.3,490.1 406.9,490.6 407.3,491.4 409.3,489.1 409.8,489.7 412.1,490.5 416.5,488.1 416.6,488.7 416.6,487.0 416.6,485.9 416.6,486.5 416.6,487.5 416.7,484.7 421.4,483.4 431.4,482.0 433.1,482.7 434.6,483.9 436.5,480.6 438.2,481.4 439.7,482.6 441.9,484.5 445.6,487.3 451.4,479.4 451.7,480.2 452.5,481.5 458.7,477.9 464.9,478.8 464.9,480.1 465.9,482.1 469.5,476.4 476.5,474.6 477.3,475.6 494.6,472.7 516.0,470.7 554.9,468.6 560.4,469.8 561.5,466.4 561.6,464.1 561.8,465.4 576.5,467.4 578.3,470.3 596.0,461.9 597.8,459.3 599.8,460.8 607.1,456.6 607.7,458.2 611.0,453.8 616.9,450.7 620.1,452.4 630.5,455.0 632.1,458.8 632.8,464.6 633.2,448.2 633.9,450.0 635.5,444.9 636.8,441.3 637.0,443.3 638.3,437.6 638.4,439.7 638.5,433.7 639.1,435.9 639.2,439.3 641.0,429.8 641.8,425.4 641.9,420.7 642.1,415.7 642.5,418.5 646.8,410.6 648.7,405.1 651.4,408.2 663.4,399.4 665.5,393.3 665.9,396.7 666.6,401.8 666.6,409.6 681.4,387.6 683.4,380.8 693.1,373.5 693.4,377.6 693.9,383.6 693.9,392.6 694.5,366.9 695.3,371.1 695.4,377.5 696.5,359.5 697.1,363.9 697.7,370.6 698.3,380.5 700.1,352.1 743.1,356.8 745.2,363.8 751.9,374.2 752.2,344.4 754.9,335.1 755.9,340.3 761.7,348.0 763.0,326.0 765.3,331.4 769.0,339.6 771.3,316.3 778.6,305.5 778.7,311.5 779.4,294.4 780.0,283.1 781.4,289.1 781.9,298.0 782.8,311.5 786.5,331.7 787.1,362.0 809.0,275.8 809.1,281.8 810.4,290.8 812.4,304.2 814.6,266.0 822.4,272.0 830.3,281.1 836.5,294.8 839.7,315.2 839.9,345.9 840.3,392.0 850.0,385.4 852.2,378.4 864.2,382.3 864.8,371.3 864.9,375.4 865.1,363.7 865.2,368.0 865.6,374.5 867.2,384.2 868.8,398.8 869.0,357.3 869.1,361.8 869.4,368.6 870.2,378.7 877.5,393.9 877.6,350.7 877.6,341.7 877.6,346.7 880.5,332.6 883.4,322.6 883.6,328.2 883.7,336.5 889.7,312.8 891.0,318.7 893.0,327.4 893.3,340.5 894.0,303.2 894.1,291.7 895.0,297.7 895.1,306.8 895.8,320.5 896.2,340.9 896.5,371.6 897.3,284.2 897.4,272.9 897.4,278.9 897.8,261.9 897.9,250.4 898.2,256.3 899.4,265.3 899.8,239.8 899.9,245.8 900.0,254.9 900.1,268.6 900.7,289.0 913.2,319.7 914.3,232.4 914.4,238.4 914.6,247.5 920.2,261.2 921.2,222.3 921.3,228.4 921.3,211.1 921.3,217.1 921.3,226.1 921.3,239.5 921.3,259.7 922.0,290.0 923.1,335.4 923.5,340.6 923.7,348.3 924.1,326.3 924.3,331.7 924.4,339.8 924.4,352.1 924.5,317.3 924.5,323.0 924.5,306.7 924.6,312.8 924.6,321.8 924.6,296.1 925.0,284.8 925.0,290.7 925.9,299.7 926.1,313.2 926.2,333.3 926.3,275.9 926.4,264.6 926.4,270.6 926.4,253.4 926.4,242.0 926.4,230.5 926.4,219.0 926.4,225.0 926.4,208.0 926.4,214.0 926.4,223.1 926.5,197.3 926.9,203.2 927.3,212.2 928.3,225.7 928.3,245.8 929.6,276.1 931.8,190.0 931.9,178.5 932.0,184.6" fill="none" stroke="#db2777" stroke-width="1.8" stroke-linejoin="round" opacity="0.9"/>
  <polyline points="80.0,495.4 80.0,494.7 87.9,493.9 93.8,494.3 95.5,493.1 95.9,493.6 96.2,494.2 96.5,495.2 97.4,496.7 102.4,499.0 110.2,502.3 113.3,502.5 126.6,502.8 134.4,502.0 136.7,502.2 140.9,502.5 142.1,502.9 161.8,503.5 163.8,501.8 167.2,501.4 175.4,501.6 177.7,501.9 180.3,502.3 182.5,503.0 182.8,504.0 183.2,501.1 186.2,501.3 190.4,501.7 198.4,502.1 199.1,502.8 207.2,503.8 207.4,500.9 209.9,500.5 211.7,500.0 214.9,499.6 216.0,499.1 216.9,499.4 218.4,499.8 219.9,500.4 230.1,498.7 230.5,498.9 232.4,499.4 234.7,500.0 234.9,500.9 235.6,502.3 237.1,498.3 246.8,498.6 247.8,499.0 249.2,499.7 250.6,500.6 255.1,497.8 264.6,497.3 265.6,497.6 268.7,496.7 271.4,496.0 277.8,495.4 277.9,495.7 286.5,494.6 294.4,493.9 297.9,494.3 348.0,494.9 365.0,493.1 371.0,493.6 378.7,492.3 378.8,492.8 379.0,493.5 380.4,491.5 382.6,490.5 383.2,491.1 387.7,491.8 391.4,493.0 406.3,489.7 406.9,490.2 407.3,491.0 409.3,488.7 409.8,489.2 412.1,490.1 416.5,487.6 416.6,488.2 416.6,486.5 416.6,485.3 416.6,486.0 416.6,487.0 416.7,484.1 421.4,482.7 431.4,481.3 433.1,482.1 434.6,483.3 436.5,479.8 438.2,480.7 439.7,481.9 441.9,483.8 445.6,486.7 451.4,478.6 451.7,479.4 452.5,480.7 458.7,477.0 464.9,477.9 464.9,479.3 465.9,481.4 469.5,475.4 476.5,473.6 477.3,474.6 494.6,471.6 516.0,469.6 554.9,467.4 560.4,468.6 561.5,465.1 561.6,462.7 561.8,464.1 576.5,466.1 578.3,469.1 596.0,460.4 597.8,457.7 599.8,459.2 607.1,454.9 607.7,456.5 611.0,452.0 616.9,448.8 620.1,450.5 630.5,453.2 632.1,457.2 632.8,463.1 633.2,446.1 633.9,447.9 635.5,442.6 636.8,438.9 637.0,441.0 638.3,435.1 638.4,437.3 638.5,431.0 639.1,433.3 639.2,436.8 641.0,426.9 641.8,422.3 641.9,417.4 642.1,412.3 642.5,415.1 646.8,407.0 648.7,401.2 651.4,404.4 663.4,395.3 665.5,388.9 665.9,392.4 666.6,397.8 666.6,405.7 681.4,382.9 683.4,375.8 693.1,368.3 693.4,372.4 693.9,378.7 693.9,388.0 694.5,361.2 695.3,365.6 695.4,372.1 696.5,353.4 697.1,358.0 697.7,364.9 698.3,375.2 700.1,345.6 743.1,350.4 745.2,357.7 751.9,368.5 752.2,337.4 754.9,327.7 755.9,333.0 761.7,341.1 763.0,318.0 765.3,323.7 769.0,332.2 771.3,307.9 778.6,296.5 778.7,302.4 779.4,285.4 780.0,274.0 781.4,280.0 781.9,288.9 782.8,302.3 786.5,322.4 787.1,352.6 809.0,266.2 809.1,272.2 810.4,281.1 812.4,294.5 814.6,256.2 822.4,262.2 830.3,271.3 836.5,284.8 839.7,305.2 839.9,335.8 840.3,381.6 850.0,374.4 852.2,366.9 864.2,371.1 864.8,359.0 864.9,363.4 865.1,350.7 865.2,355.4 865.6,362.4 867.2,373.0 868.8,388.8 869.0,343.5 869.1,348.4 869.4,355.8 870.2,366.8 877.5,383.3 877.6,336.0 877.6,326.2 877.6,331.6 880.5,316.1 883.4,305.2 883.6,311.2 883.7,320.3 889.7,294.4 891.0,300.4 893.0,309.4 893.3,323.0 894.0,284.1 894.1,272.6 895.0,278.6 895.1,287.7 895.8,301.3 896.2,321.6 896.5,352.2 897.3,264.6 897.4,253.3 897.4,259.2 897.8,242.2 897.9,230.6 898.2,236.6 899.4,245.5 899.8,219.9 899.9,226.0 900.0,235.0 900.1,248.6 900.7,269.0 913.2,299.6 914.3,212.0 914.4,218.0 914.6,227.1 920.2,240.7 921.2,201.7 921.3,207.8 921.3,190.5 921.3,196.4 921.3,205.4 921.3,218.8 921.3,238.9 922.0,269.0 923.1,314.2 923.5,320.0 923.7,328.7 924.1,303.9 924.3,309.9 924.4,319.0 924.4,332.5 924.5,293.6 924.5,299.7 924.5,282.4 924.6,288.4 924.6,297.5 924.6,271.5 925.0,260.1 925.0,266.1 925.9,275.0 926.1,288.4 926.2,308.5 926.3,251.0 926.4,239.6 926.4,245.6 926.4,228.3 926.4,217.0 926.4,205.4 926.4,193.9 926.4,199.9 926.4,182.8 926.4,188.8 926.4,197.9 926.5,172.0 926.9,177.9 927.3,186.9 928.3,200.3 928.3,220.3 929.6,250.5 931.8,164.2 931.9,152.7 932.0,158.7" fill="none" stroke="#65a30d" stroke-width="1.8" stroke-linejoin="round" opacity="0.9"/>
  <polyline points="80.0,495.4 80.0,494.7 87.9,493.9 93.8,494.3 95.5,493.1 95.9,493.6 96.2,494.2 96.5,495.2 97.4,496.7 102.4,498.9 110.2,502.3 113.3,502.5 126.6,502.7 134.4,502.0 136.7,502.2 140.9,502.4 142.1,502.8 161.8,503.4 163.8,501.7 167.2,501.4 175.4,501.6 177.7,501.8 180.3,502.3 182.5,503.0 182.8,504.0 183.2,501.1 186.2,501.3 190.4,501.6 198.4,502.1 199.1,502.8 207.2,503.8 207.4,500.8 209.9,500.4 211.7,500.0 214.9,499.5 216.0,499.0 216.9,499.3 218.4,499.7 219.9,500.3 230.1,498.6 230.5,498.8 232.4,499.3 234.7,499.9 234.9,500.8 235.6,502.3 237.1,498.2 246.8,498.5 247.8,498.9 249.2,499.6 250.6,500.5 255.1,497.7 264.6,497.1 265.6,497.5 268.7,496.5 271.4,495.9 277.8,495.2 277.9,495.6 286.5,494.5 294.4,493.7 297.9,494.1 348.0,494.8 365.0,492.9 371.0,493.4 378.7,492.1 378.8,492.6 379.0,493.3 380.4,491.2 382.6,490.3 383.2,490.8 387.7,491.6 391.4,492.8 406.3,489.4 406.9,489.9 407.3,490.7 409.3,488.4 409.8,488.9 412.1,489.8 416.5,487.3 416.6,487.9 416.6,486.2 416.6,484.9 416.6,485.6 416.6,486.6 416.7,483.7 421.4,482.3 431.4,480.8 433.1,481.6 434.6,482.8 436.5,479.3 438.2,480.2 439.7,481.5 441.9,483.4 445.6,486.3 451.4,478.0 451.7,478.9 452.5,480.2 458.7,476.4 464.9,477.3 464.9,478.7 465.9,480.8 469.5,474.8 476.5,472.9 477.3,473.9 494.6,470.9 516.0,468.8 554.9,466.6 560.4,467.8 561.5,464.3 561.6,461.8 561.8,463.2 576.5,465.2 578.3,468.3 596.0,459.4 597.8,456.7 599.8,458.2 607.1,453.8 607.7,455.4 611.0,450.8 616.9,447.5 620.1,449.3 630.5,452.0 632.1,456.0 632.8,462.1 633.2,444.7 633.9,446.6 635.5,441.1 636.8,437.3 637.0,439.4 638.3,433.4 638.4,435.6 638.5,429.2 639.1,431.6 639.2,435.1 641.0,425.0 641.8,420.3 641.9,415.3 642.1,410.0 642.5,412.9 646.8,404.5 648.7,398.7 651.4,401.9 663.4,392.6 665.5,386.0 665.9,389.6 666.6,395.0 666.6,403.2 681.4,379.8 683.4,372.5 693.1,364.7 693.4,369.0 693.9,375.4 693.9,384.9 694.5,357.4 695.3,361.9 695.4,368.6 696.5,349.3 697.1,354.0 697.7,361.1 698.3,371.7 700.1,341.2 743.1,346.2 745.2,353.6 751.9,364.7 752.2,332.7 754.9,322.7 755.9,328.2 761.7,336.4 763.0,312.7 765.3,318.5 769.0,327.2 771.3,302.2 778.6,290.8 778.7,296.7 779.4,279.7 780.0,268.3 781.4,274.2 781.9,283.1 782.8,296.5 786.5,316.5 787.1,346.6 809.0,260.1 809.1,266.1 810.4,275.0 812.4,288.4 814.6,249.9 822.4,256.0 830.3,265.0 836.5,278.5 839.7,298.9 839.9,329.3 840.3,375.1 850.0,367.5 852.2,359.5 864.2,363.9 864.8,351.2 864.9,355.9 865.1,342.5 865.2,347.4 865.6,354.8 867.2,365.8 868.8,382.4 869.0,334.7 869.1,339.9 869.4,347.6 870.2,359.1 877.5,376.5 877.6,326.6 877.6,316.2 877.6,321.9 880.5,305.6 883.4,294.2 883.6,300.2 883.7,309.2 889.7,283.2 891.0,289.3 893.0,298.3 893.3,311.8 894.0,272.9 894.1,261.3 895.0,267.3 895.1,276.4 895.8,289.9 896.2,310.2 896.5,340.7 897.3,253.0 897.4,241.6 897.4,247.6 897.8,230.5 897.9,219.0 898.2,224.9 899.4,233.8 899.8,208.2 899.9,214.2 900.0,223.2 900.1,236.8 900.7,257.1 913.2,287.6 914.3,199.9 914.4,205.9 914.6,214.9 920.2,228.5 921.2,189.5 921.3,195.5 921.3,178.2 921.3,184.2 921.3,193.1 921.3,206.4 921.3,226.5 922.0,256.5 923.1,301.6 923.5,307.6 923.7,316.5 924.1,290.8 924.3,296.9 924.4,305.9 924.4,319.4 924.5,280.5 924.5,286.5 924.5,269.2 924.6,275.2 924.6,284.2 924.6,258.2 925.0,246.9 925.0,252.8 925.9,261.7 926.1,275.1 926.2,295.1 926.3,237.5 926.4,226.1 926.4,232.1 926.4,214.8 926.4,203.4 926.4,191.8 926.4,180.3 926.4,186.2 926.4,169.2 926.4,175.2 926.4,184.2 926.5,158.2 926.9,164.2 927.3,173.1 928.3,186.4 928.3,206.5 929.6,236.5 931.8,150.1 931.9,138.6 932.0,144.6" fill="none" stroke="#475569" stroke-width="1.8" stroke-linejoin="round" opacity="0.9"/>
  <polyline points="80.0,495.4 80.0,494.7 87.9,493.9 93.8,494.3 95.5,493.1 95.9,493.6 96.2,494.2 96.5,495.2 97.4,496.7 102.4,498.9 110.2,502.3 113.3,502.4 126.6,502.7 134.4,502.0 136.7,502.1 140.9,502.4 142.1,502.8 161.8,503.4 163.8,501.7 167.2,501.3 175.4,501.5 177.7,501.8 180.3,502.2 182.5,502.9 182.8,503.9 183.2,501.0 186.2,501.2 190.4,501.5 198.4,502.0 199.1,502.7 207.2,503.7 207.4,500.7 209.9,500.3 211.7,499.8 214.9,499.4 216.0,498.9 216.9,499.2 218.4,499.6 219.9,500.2 230.1,498.4 230.5,498.7 232.4,499.1 234.7,499.8 234.9,500.7 235.6,502.2 237.1,498.0 246.8,498.3 247.8,498.7 249.2,499.4 250.6,500.4 255.1,497.5 264.6,496.9 265.6,497.2 268.7,496.3 271.4,495.6 277.8,494.9 277.9,495.3 286.5,494.2 294.4,493.4 297.9,493.8 348.0,494.5 365.0,492.6 371.0,493.1 378.7,491.7 378.8,492.2 379.0,492.9 380.4,490.9 382.6,489.9 383.2,490.4 387.7,491.2 391.4,492.4 406.3,488.9 406.9,489.5 407.3,490.3 409.3,487.9 409.8,488.5 412.1,489.4 416.5,486.8 416.6,487.4 416.6,485.6 416.6,484.3 416.6,485.0 416.6,486.1 416.7,483.1 421.4,481.6 431.4,480.1 433.1,481.0 434.6,482.2 436.5,478.6 438.2,479.5 439.7,480.8 441.9,482.7 445.6,485.7 451.4,477.2 451.7,478.1 452.5,479.5 458.7,475.5 464.9,476.5 464.9,477.9 465.9,480.1 469.5,473.8 476.5,471.9 477.3,472.9 494.6,469.8 516.0,467.7 554.9,465.4 560.4,466.6 561.5,463.0 561.6,460.4 561.8,461.8 576.5,463.9 578.3,467.1 596.0,457.9 597.8,455.1 599.8,456.6 607.1,452.1 607.7,453.8 611.0,449.0 616.9,445.6 620.1,447.5 630.5,450.2 632.1,454.4 632.8,460.6 633.2,442.6 633.9,444.5 635.5,438.9 636.8,435.0 637.0,437.1 638.3,430.9 638.4,433.2 638.5,426.6 639.1,429.0 639.2,432.6 641.0,422.1 641.8,417.2 641.9,412.1 642.1,406.6 642.5,409.6 646.8,400.9 648.7,394.8 651.4,398.2 663.4,388.5 665.5,381.6 665.9,385.4 666.6,391.0 666.6,399.4 681.4,375.1 683.4,367.5 693.1,359.5 693.4,363.9 693.9,370.5 693.9,380.3 694.5,351.7 695.3,356.4 695.4,363.3 696.5,343.2 697.1,348.1 697.7,355.4 698.3,366.4 700.1,334.7 743.1,339.8 745.2,347.5 751.9,359.0 752.2,325.6 754.9,315.2 755.9,320.9 761.7,329.5 763.0,304.7 765.3,310.7 769.0,319.7 771.3,293.7 778.6,282.3 778.7,288.2 779.4,271.1 780.0,259.7 781.4,265.6 781.9,274.5 782.8,287.8 786.5,307.7 787.1,337.7 809.0,251.0 809.1,257.0 810.4,265.8 812.4,279.1 814.6,240.6 822.4,246.6 830.3,255.6 836.5,269.1 839.7,289.4 839.9,319.7 840.3,365.3 850.0,357.1 852.2,348.5 864.2,353.2 864.8,339.6 864.9,344.6 865.1,330.1 865.2,335.4 865.6,343.3 867.2,355.1 868.8,372.9 869.0,321.5 869.1,327.0 869.4,335.3 870.2,347.7 877.5,366.3 877.6,312.4 877.6,301.3 877.6,307.2 880.5,290.1 883.4,278.7 883.6,284.7 883.7,293.7 889.7,267.6 891.0,273.6 893.0,282.6 893.3,296.1 894.0,257.1 894.1,245.5 895.0,251.5 895.1,260.5 895.8,274.0 896.2,294.2 896.5,324.6 897.3,236.7 897.4,225.3 897.4,231.2 897.8,214.1 897.9,202.5 898.2,208.5 899.4,217.3 899.8,191.7 899.9,197.6 900.0,206.6 900.1,220.1 900.7,240.4 913.2,270.7 914.3,182.9 914.4,188.9 914.6,197.9 920.2,211.3 921.2,172.3 921.3,178.3 921.3,160.9 921.3,166.8 921.3,175.7 921.3,189.0 921.3,209.0 922.0,238.9 923.1,283.8 923.5,289.8 923.7,298.6 924.1,273.0 924.3,279.0 924.4,287.9 924.4,301.4 924.5,262.4 924.5,268.4 924.5,251.0 924.6,257.0 924.6,266.0 924.6,240.0 925.0,228.6 925.0,234.5 925.9,243.4 926.1,256.7 926.2,276.6 926.3,218.9 926.4,207.5 926.4,213.4 926.4,196.1 926.4,184.7 926.4,173.1 926.4,161.5 926.4,167.5 926.4,150.3 926.4,156.3 926.4,165.3 926.5,139.3 926.9,145.2 927.3,154.1 928.3,167.4 928.3,187.4 929.6,217.3 931.8,130.7 931.9,119.1 932.0,125.1" fill="none" stroke="#ea580c" stroke-width="1.8" stroke-linejoin="round" opacity="0.9"/>
  <line x1="950" y1="94" x2="972" y2="94" stroke="#ea580c" stroke-width="3"/><text x="980" y="98" font-size="12.5" fill="#374151">vip 9  303490</text>
  <line x1="950" y1="116" x2="972" y2="116" stroke="#475569" stroke-width="3"/><text x="980" y="120" font-size="12.5" fill="#374151">vip 8  288056</text>
  <line x1="950" y1="138" x2="972" y2="138" stroke="#65a30d" stroke-width="3"/><text x="980" y="142" font-size="12.5" fill="#374151">vip 7  276874</text>
  <line x1="950" y1="160" x2="972" y2="160" stroke="#db2777" stroke-width="3"/><text x="980" y="164" font-size="12.5" fill="#374151">vip 6  256366</text>
  <line x1="950" y1="182" x2="972" y2="182" stroke="#0891b2" stroke-width="3"/><text x="980" y="186" font-size="12.5" fill="#374151">vip 5  241092</text>
  <line x1="950" y1="204" x2="972" y2="204" stroke="#7c3aed" stroke-width="3"/><text x="980" y="208" font-size="12.5" fill="#374151">vip 4  215118</text>
  <line x1="950" y1="226" x2="972" y2="226" stroke="#d97706" stroke-width="3"/><text x="980" y="230" font-size="12.5" fill="#374151">vip 3  90115</text>
  <line x1="950" y1="248" x2="972" y2="248" stroke="#16a34a" stroke-width="3"/><text x="980" y="252" font-size="12.5" fill="#374151">vip 2  65307</text>
  <line x1="950" y1="270" x2="972" y2="270" stroke="#2563eb" stroke-width="3"/><text x="980" y="274" font-size="12.5" fill="#374151">vip 0  43446</text>
  <line x1="950" y1="292" x2="972" y2="292" stroke="#dc2626" stroke-width="3"/><text x="980" y="296" font-size="12.5" fill="#374151">vip 1  43446</text>
  <text x="80" y="542" text-anchor="start" font-size="12" fill="#6b7280">2026-01-02</text><text x="932" y="542" text-anchor="end" font-size="12" fill="#6b7280">2026-01-31</text>
</svg>
