<svg xmlns="http://www.w3.org/2000/svg" width="1000" height="520" font-family="ui-sans-serif, system-ui, sans-serif" viewBox="0 0 1000 520"><rect width="1000" height="520" fill="#fff"/><text x="78" y="28" fill="#111827" font-size="18" font-weight="700">Zone Recovery — LTCUSDC best setting (equity / PnL)</text><text x="78" y="48" fill="#6b7280" font-size="12.5">lev 40 · ratio 2 · gap 20% · maxSteps 4 · maxDD 20% · random · vip 9 · 1728 series, 86.3% win · vol $174708856 ($174709940/day) · fees $14780</text><text x="78" y="68" fill="#1d4ed8" font-size="12.5" font-weight="600">USDC · BNB −10% · taker 0.0085%</text><text x="934" y="28" fill="#16a34a" font-size="18" font-weight="700" text-anchor="end">+64035 USDT (+640.35%)</text><line x1="78" x2="934" y1="468" y2="468" stroke="#e5e7eb" stroke-width="1"/><text x="68" y="472" fill="#6b7280" font-size="12" text-anchor="end">0.00</text><line x1="78" x2="934" y1="392" y2="392" stroke="#e5e7eb" stroke-width="1"/><text x="68" y="396" fill="#6b7280" font-size="12" text-anchor="end">18786</text><line x1="78" x2="934" y1="316" y2="316" stroke="#e5e7eb" stroke-width="1"/><text x="68" y="320" fill="#6b7280" font-size="12" text-anchor="end">37573</text><line x1="78" x2="934" y1="240" y2="240" stroke="#e5e7eb" stroke-width="1"/><text x="68" y="244" fill="#6b7280" font-size="12" text-anchor="end">56359</text><line x1="78" x2="934" y1="164" y2="164" stroke="#e5e7eb" stroke-width="1"/><text x="68" y="168" fill="#6b7280" font-size="12" text-anchor="end">75145</text><line x1="78" x2="934" y1="88" y2="88" stroke="#e5e7eb" stroke-width="1"/><text x="68" y="92" fill="#6b7280" font-size="12" text-anchor="end">93932</text><line x1="78" x2="934" y1="427.5" y2="427.5" stroke="#9ca3af" stroke-dasharray="6 4" stroke-width="1.5"/><text x="934" y="421.5" fill="#6b7280" font-size="11" text-anchor="end">start 10000</text><polyline fill="none" stroke="#d97706" stroke-linejoin="round" stroke-width="1.2" points="78 152.9 78.4 152.8 79.1 153.2 79.6 151.6 79.8 150.1 79.9 148.8 80 149.8 80.2 150.9 80.6 150.7 80.7 149 80.8 148.9 81.1 149.6 81.4 149.3 81.7 148.3 82.1 149.5 82.4 150.1 82.9 151.2 83.4 152.9 83.9 152 84.7 152.7 85.3 152.8 86 152.5 86.9 151.6 87.5 152.1 88.4 150.9 88.6 150.3 89.4 151 90.2 150 90.8 149.1 91.4 149.7 92.1 150.1 92.9 149.3 93.3 150.5 94 148.8 94.4 149.6 94.7 149 95.5 148.7 96.1 147.6 96.3 148.5 96.4 147.3 96.5 145.8 96.7 145.6 97.1 145 97.3 145.2 97.6 146.3 97.7 145.2 98.1 143.8 98.3 143.8 98.6 143.1 98.8 143.8 99 144.4 99.4 145 99.8 144.5 100 144.3 100.4 144 100.9 143.5 101.2 141.7 101.4 142.7 101.5 142.8 101.9 142.7 101.9 141.8 102 143 102.4 143.4 102.5 142.1 102.9 142.2 103.3 141.5 103.5 141.3 103.9 141.1 104.4 140.7 104.9 142 105.2 142.7 105.6 143.7 105.9 143.1 106.3 143.1 106.8 143.1 107.2 142.1 107.7 142 108.2 140.3 108.5 140.7 109 141.6 109.6 141.6 110 140 110.4 139.6 110.7 140.2 111 140.1 111.3 142.7 111.5 142.3 112 142.2 112.3 142 112.7 143 113.4 142.8 113.9 143.6 114.5 143.3 114.9 142.8 115.5 144.3 116.2 143 116.7 143.8 117.3 144.8 117.7 145.1 118 146.6 118.2 146.3 118.6 146 119.2 145.7 120 145 120.7 146 121.2 145.6 121.9 144.4 122.7 143.7 123.3 143.6 123.7 143.1 124.1 143.2 124.6 145.8 125.2 145.3 125.7 144 126.2 143.8 126.8 142.7 127.4 143 128.1 144.9 129 145.2 129.7 145.2 129.8 143.9 130.3 143.8 130.6 143 131 142.2 132 143.3 132.7 143.9 133.7 143.7 134.8 144.5 135.1 145.5 135.5 146.8 135.8 145.8 136.6 146.1 137.4 145.8 138.3 146.9 139 147 139.7 147.2 140.7 147.1 141.4 147.3 142.1 148 142.9 146.9 143.6 146.4 144.5 146.3 145.5 145.2 146.4 144.2 147 143.6 147.9 142.8 148.6 142.5 149.4 143.7 150.3 143.2 150.7 144.8 151.4 143.1 152.1 143 152.7 144.7 153 145.6 153.7 146.1 154.6 146 155.1 144.5 155.7 144.6 156.4 144.5 157.4 145.3 158.5 145.3 159.3 143.7 159.9 144.2 160.4 143.8 161.3 143.3 161.8 142.6 162.1 141.4 162.9 141.3 163.7 140.9 164.6 141 165.5 140.4 166.4 141 167.2 141.3 167.7 141.5 168.4 142.1 168.7 144 169.8 142.6 170.5 144.6 171 145.1 171.8 143.9 172.7 144.1 173.7 144 174.7 143.7 175.3 142.9 176.3 141.5 177 142.6 177.6 142.1 178.5 141.4 179.1 141.7 180.2 142.8 180.8 143.7 181.5 144 182.4 143.7 183.3 145 184.3 145.1 185.2 144.3 186.2 145.6 187 145.9 187.8 145.8 188.5 143.8 189.4 145.1 190.4 145.6 191.4 145.8 192.2 144.3 192.9 144.6 193.9 142.9 194.4 142.7 195.1 143.5 196.3 143.3 196.9 141.2 197.4 140.2 197.6 140.8 198 140.1 198.1 138.8 198.4 138.3 198.7 138.3 199 137.8 199.5 139.2 199.7 138.5 199.8 137.7 200.1 137.3 200.2 137.4 200.3 137.8 200.5 136.7 200.8 137.7 201.1 137 201.4 136.1 201.5 134.3 201.5 133.4 201.6 132.2 201.6 132.6 201.7 133.8 201.7 134.4 201.8 132.9 201.8 132.6 201.9 131.3 201.9 130.2 201.9 130 202.1 130.1 202.2 130.5 202.4 130.6 202.5 131.7 202.6 130.4 202.8 130.2 203 129.6 203.2 129.7 203.4 130.1 203.6 129.5 203.8 130.1 204.1 129.7 204.2 131.3 204.3 131.2 204.5 130.8 204.7 130 204.9 129.7 205.2 129.7 205.6 130.4 205.9 130.2 206.3 129.7 206.3 129.6 206.4 130.8 206.6 130.5 207 130.9 207.5 130.4 208 131.3 208.4 132 208.8 132.3 209.3 132.3 210 132 210.6 132.3 211.2 132.7 212 132.1 212.2 131.4 212.4 130.6 212.9 130 213.3 129.2 213.3 128.4 213.5 127.9 213.7 127.7 213.9 128.3 214.1 128.6 214.3 127.5 214.7 126.8 214.9 127.2 215.2 126.8 215.3 127.4 215.6 127.9 216 128.6 216.2 128.2 216.5 129.7 216.9 129.7 217.4 130.7 217.8 131.2 218.3 131.4 218.6 132 218.9 131.6 219.2 131.7 219.5 130.7 219.9 130.5 220.2 130.3 220.7 132.2 220.8 130.7 221.4 130.8 221.5 129.5 221.9 129.7 222 131.1 222.2 130.7 222.4 129.5 222.6 129 222.8 129 223.1 129.2 223.5 129.5 223.7 130.6 224 130.3 224.2 131.1 224.4 130.5 224.7 131.5 225 131.9 225.4 130.5 225.9 130.8 226.2 131.3 226.5 132.8 226.7 134.3 226.9 134.7 227.1 136.1 227.3 135 227.4 134.5 227.8 135.3 228.2 134.6 228.7 134.3 229.2 133.8 229.7 133.7 230.2 134 230.5 135.2 231 135.1 231.4 136.2 231.8 136.3 232.4 135.9 233.1 136 234 136.2 234.5 137 235 136.2 235.6 136.5 236.3 136.8 237 136.7 237.9 136.7 238.9 136.9 239.5 136.4 240.3 136.7 240.8 136.9 241.5 136.8 242.4 137.6 243 138.1 243.6 137.8 244.2 138.3 244.8 138 245.5 138.9 245.8 139.8 246 140.5 246.3 139.6 246.9 139.5 247.4 139.2 248 139.8 248.5 139.1 249.2 140 249.9 139.3 250.7 139.4 251.6 139.2 252.7 137.8 253.5 137.5 254.5 138.3 255.7 138 257 138.4 257.8 138.6 258.7 139.7 259.2 140.3 259.6 141.2 259.9 141.8 260.4 141.6 261.1 140.3 262 139.2 262.3 141.4 262.4 141.6 262.8 142.1 262.9 142.5 263.1 142.9 263.1 143.7 263.3 143.1 263.5 144 263.8 143.9 264.4 142.5 264.9 143.3 265 144.2 265.2 145.1 265.5 144 266 142.6 267 143.1 268.3 143.3 268.8 144.1 269.1 144.2 269.8 143 271 143.3 272.6 143.3 273.9 142 274.7 141.8 275.4 141.5 276.3 141.3 276.9 141.3 277.8 141.6 278.2 141.8 278.9 141.9 279.1 141.2 279.8 140.7 280.3 140.5 281.3 140.2 282 139.5 283 139.5 283.7 140.1 284.6 140.4 286 140.3 287.1 139.1 288.1 138 288.8 137.3 289.6 137.7 290.9 136.8 292 136.7 292.7 136.1 293.3 135.3 294 135.6 295 134.8 295.8 134.8 296.1 133.2 296.4 133.4 297.2 133.7 298 134.3 298.8 133.8 299.7 133.2 299.9 134.6 299.9 133.3 300.2 132.6 300.7 131.9 301.5 131.5 301.9 131.9 302.4 131.8 303 132 304 132.1 304.7 132.3 305.4 132 306.1 132.4 307 131.7 307.8 131.1 308.5 131.2 309.1 132.9 309.2 133.5 309.3 135 309.4 135.4 309.6 137 309.8 136.9 310 134.2 310.6 133.9 311.3 134.1 311.4 136.3 311.6 137.1 311.8 137.5 311.8 137.2 312 136.3 312.6 135.2 313.1 134.9 313.2 136.9 313.3 137.2 313.4 137 313.8 136.9 314 138.6 314.1 139.2 314.2 139.9 314.3 140.3 314.3 141.4 314.3 140.6 314.4 141.6 314.5 141.8 314.6 144.5 314.6 143.8 314.6 144.2 314.7 144.6 314.8 144.9 314.8 145.2 314.9 145.2 314.9 145.3 314.9 146.8 315 145.6 315 146.1 315.1 146.7 315.2 145 315.3 144.8 315.4 145.8 315.5 147 315.6 145.2 315.8 145.1 316 144.9 316.1 145.3 316.2 146.3 316.4 144.1 316.7 143.5 317 143.5 317.4 142.6 317.6 144.7 317.6 146 317.7 146 317.8 144.5 317.9 146.1 317.9 146.6 318 147.4 318 146.8 318 147.9 318.1 147.1 318.1 147.1 318.2 148.2 318.2 149.6 318.2 149.4 318.3 149.2 318.4 150.3 318.4 150.3 318.5 152.1 318.5 151.5 318.6 148.5 318.7 148.8 318.8 148.1 318.9 148.1 319.2 147.3 319.6 147.5 319.9 147.2 320.3 147.8 320.7 148.2 321.3 148 321.7 146.8 322 147.5 322.4 147.9 322.9 147.3 323.5 147.1 324 146.5 324.8 145.6 325.1 146.4 325.8 146.2 326.8 145.4 327.9 145.9 328.4 146.3 328.6 146.5 328.8 146.4 329.1 146.3 329.3 146.7 329.4 146.7 329.6 146.9 330.2 146.3 330.9 145.8 331.6 147 332.4 147.2 333 148 333.9 145.7 334.6 145 335.3 146.6 336 145.9 337 147 337.8 147.2 338.4 146.2 338.6 147.2 339.6 145.9 340.6 145.9 341.4 146.7 342.5 147.1 343.8 145.8 345.3 145 346.3 145.1 347.2 145.2 348.1 145 348.8 144 349.7 143.3 350.1 141.8 350.5 142.1 351.5 142.1 352.8 141.9 354.5 141.7 355.2 141.8 356 141.1 357.3 140.9 358.3 141.4 359.2 141.3 360.2 143 360.6 142.5 361.8 143.1 362.9 143.3 363.9 144.1 364.4 142.8 365.3 142.8 366.4 143 367.5 141.2 368.3 141.8 369.4 141.4 369.5 140.1 370.1 140.1 370.8 140 371.2 139.7 371.7 139 372.6 139.2 373.4 139 373.8 136.6 374.2 138.6 374.6 136.9 374.9 136.4 375.2 136 375.6 137.1 376.1 137.6 376.4 138.5 376.9 139.5 377.3 139.8 378 138.5 378.3 137.5 378.8 137.3 379.5 137.4 380.1 136.9 380.8 136.9 381.7 138.1 382.4 137.9 383 139.1 383.7 139.7 384.3 139.1 385.4 139.3 386.3 139.3 386.9 139 387.7 139.4 388.5 139.3 389.4 139.7 390.1 140.2 390.7 140.7 391 141.3 391.4 140.6 392 139.7 393 140.4 393.6 139.8 394.4 139.5 395.6 140 397.1 140.3 398.5 140.8 399.3 140.1 399.8 141 400.4 142.4 400.9 142.1 401.5 140.9 402.3 140.2 402.8 139 403.6 139.2 404.8 140.2 406 139.2 406.9 138.7 407.8 139.5 408.7 139.8 409.8 140 411.2 140.5 412.2 139.7 413.3 138.3 414.1 137.4 414.2 139 415.2 137.2 416.3 136.6 417.1 136.7 418.2 136.3 419 136.3 419.9 137.8 420.8 137.4 421.7 136.7 422.6 137.6 423.5 138.4 425.6 137.8 427 138 428.1 138.7 429 140.8 429.6 140.3 430.1 139.3 431.6 139.3 433 138.4 434.5 137.8 435.7 137.8 436.9 137.5 438 137.2 439.7 137.7 441.5 136.8 442.1 135.9 442.9 135.5 443.7 135.5 444.6 134 445.1 135 446.3 134.6 447.3 134.9 448.4 135.3 449.7 134.3 450.9 134.8 451.7 136.6 452.9 137 454.1 138.3 455 139.5 455.9 140.7 456.8 139.8 457.7 140.5 458.6 141.1 459.1 141 459.9 141 460.9 140.8 462 140.2 463.2 139.9 464.5 138.9 465.8 138.1 467.2 138.3 468.6 137 469.8 137.7 471.2 136.4 472.2 137.3 473.4 136.7 474.6 135.9 474.7 135 475.4 134.4 476 134.3 476.3 134.3 476.9 135.2 477.6 135.1 478.3 135 479.3 134.8 479.9 134.8 480.7 135.7 481.3 133.8 481.8 134 482.5 134.4 483.2 134.2 484.2 133.5 484.7 133.2 485.5 132.1 485.9 132.1 486.7 132.1 487.4 131.7 487.7 132.3 488.7 132.3 489.2 131.6 490.1 131.6 490.7 132.7 491.2 132 491.9 131.9 492.9 131.3 493.5 130.5 494.4 130.3 495 130 495.4 130.3 495.8 129.9 496.3 129.1 496.9 129.2 497.6 129 497.9 128.8 498.5 129.9 499.2 130.8 499.9 131.6 500.5 132 501.4 131.3 502 130.2 503.2 130.6 504 129.5 504.5 127.6 504.8 125.8 504.8 125.7 504.9 127.1 505.1 125.6 505.3 126.1 505.6 126.8 506 128.7 506.2 129.3 506.6 130.2 507 129.8 507.5 130.2 508.3 129.2 508.8 128.7 509.3 128.4 510 128 510.6 126.7 511.1 125.3 511.3 125.1 511.6 125.6 511.9 127.2 512.3 127.7 512.7 128.7 513.2 129.4 513.7 129.2 514.3 130.2 515.1 130.5 515.6 129.4 516.2 130.3 516.7 128.4 517.5 128.2 517.9 128.5 518.5 129.8 519.2 129.8 520 128.9 520.8 128.8 521.6 129.2 522.6 129.2 523.6 130.5 523.9 131 524.6 130.7 525.3 130.3 525.9 129.9 526.7 129.6 527.3 129.5 528 130 529 130.5 530.1 129.2 530.9 128.6 531.9 128.7 532.8 129.2 534.6 128.7 535.2 127.7 535.9 127.4 536.7 127.4 537 126 537.4 125.2 538.1 125.4 539.2 125.7 540.1 125.7 540.6 126.2 541.4 124.9 541.8 124.5 542.1 123.2 542.4 124.2 542.7 125.4 543.1 126.2 543.8 125.4 544.3 124.8 545.2 124 545.9 123.1 546.4 122.7 547.2 123.6 547.7 125.9 548.3 126.4 549 127 549.7 126.8 550.7 127.4 551.7 126.7 552.6 125.8 553.2 124.5 553.8 123.2 554.4 122.6 554.6 121.2 554.7 121.6 554.8 122.1 555.2 122.4 555.4 120.6 555.6 121.3 555.8 120.5 556.1 120.1 556.4 120 556.6 119.2 556.7 118.6 557 118.1 557.2 117.9 557.3 118.1 557.3 117.5 557.4 116.4 557.5 116.2 557.6 115.8 557.7 114.8 557.7 114.8 557.8 115.2 557.9 116 558.1 115.7 558.4 116 558.6 115.5 558.9 116.9 559 116.4 559.3 117.2 559.6 117.9 559.7 117.8 559.9 117.3 560.1 118.4 560.3 118.4 560.6 118.7 560.9 120 561 120.8 561.1 121.2 561.4 121 561.7 120.6 562.2 120.4 562.4 119.3 562.6 118.4 562.7 117.9 563.1 118.4 563.3 118.9 563.7 118.7 564.1 119.9 564.5 120.8 565 120.5 565.4 119.4 565.7 120.4 566 118.7 566.3 118.5 566.6 118.2 566.8 118.7 567.2 118.4 567.4 119.8 567.7 120.2 568 121.2 568.4 119.7 568.7 120 569 118.6 569.3 118.4 569.7 119.1 570.2 118.4 570.5 118.1 570.8 117.1 571.1 118.7 571.5 119.2 571.9 118.8 572.4 120.1 572.7 119 573 118.3 573.5 119.1 573.8 121.1 574.1 121.6 574.4 120.4 574.8 120 575.2 121 575.5 122.4 575.6 121.4 576.1 120.6 576.8 120.6 577.1 121.9 577.4 123.2 577.6 121.6 577.9 119.8 578.1 121 578.3 121.9 578.6 121.5 579 119.1 579.4 118.2 579.7 117.2 580 116.9 580.3 117.1 580.6 117.9 580.9 119 581.4 119 582 117.6 582.7 118.2 583.4 119.8 583.9 119.7 584.5 119.2 585.1 120.2 585.6 121.4 586.1 121.5 586.4 121.5 586.7 122.2 587 122.9 587.2 123.2 587.4 124.3 587.7 124.8 587.9 125.1 588 124.4 588.2 123.5 588.4 123.3 588.9 123.6 589.3 122.7 589.9 122.8 590.5 122.5 590.9 122.7 591.4 123.2 591.8 123.8 592 123.4 592.8 123.1 593.5 123.8 593.8 125.2 594.3 124.8 594.7 126.1 595.1 125.9 595.5 124.9 595.8 124.4 596.4 124.5 597 124.5 597.8 123.8 598.4 123.6 599.3 124.8 600.2 124.8 600.9 125.2 601.3 124.7 601.8 125.3 602.5 125.4 603.1 124.1 604 123.6 604.7 125 605.5 125.6 606.3 125.2 606.8 124.6 607.6 125.1 608.3 126.5 608.9 126.7 609.4 126.4 610.1 126.8 610.8 127 611.7 126.9 611.8 129.9 611.9 128.1 612 129.1 612 128.6 612.2 128.9 612.3 129.8 612.4 128.6 612.5 128.3 612.6 127.9 612.6 128.2 612.7 129.2 612.7 128.5 612.9 129.3 613 129.9 613.1 129.1 613.2 129 613.4 130.2 613.4 130.1 613.5 131.6 613.5 132 613.6 131.7 613.7 132.2 613.7 131 613.8 132.5 613.9 131.7 613.9 133.2 613.9 133.4 614 133.2 614 133.7 614.2 134.7 614.2 133 614.3 133.8 614.4 134.5 614.4 134.8 614.5 134.8 614.6 133.2 614.8 133.3 614.9 135 615 132.7 615.1 134 615.3 135.3 615.4 136.2 615.5 136.8 615.5 136.6 615.6 137.5 615.6 138.9 615.7 137.8 615.8 137.4 616 137.7 616.1 137.7 616.2 138.3 616.3 139.5 616.4 139.3 616.5 138.9 616.6 137.5 616.7 138.7 616.8 139.3 616.9 139.4 617 138.2 617.1 137.3 617.2 137.7 617.3 138.5 617.5 137.4 617.7 136.6 617.9 137.4 618.1 138.2 618.3 138.1 618.5 137.4 618.7 138.1 619 137.6 619.2 136.6 619.4 136.6 619.6 136.2 619.9 136.9 620.2 137 620.4 137.5 620.9 137.7 621.2 137.3 621.5 137.8 622 138.2 622.2 138.8 622.5 137.7 622.8 139.5 622.9 140.1 623 141.3 623.1 142.5 623.1 143.3 623.1 143 623.3 143.6 623.3 144.4 623.3 143.8 623.4 144.1 623.6 144.7 623.7 144.6 623.8 144.5 624 145.1 624.1 144.9 624.2 144.5 624.4 144.1 624.5 145.2 624.6 145.1 624.8 145 625 145.3 625.1 144.1 625.3 144.8 625.5 145.3 625.8 145 626 146 626 146.4 626.1 145.7 626.2 146.5 626.3 145.9 626.4 144.8 626.6 143.5 626.8 144 626.9 144.9 627.1 145.3 627.2 146.5 627.3 145.8 627.5 145.4 627.7 145.6 627.9 145.7 627.9 145.5 628.1 147.4 628.2 146.7 628.3 146.7 628.4 146.3 628.5 145.3 628.6 146 628.7 147.6 628.9 147.9 629 148.5 629.2 148.4 629.2 150 629.3 148.6 629.4 147.4 629.6 146.5 629.7 146.8 630 147 630.3 147.5 630.4 147.8 630.6 148.5 630.8 149 630.9 148.8 631.1 149 631.2 149.6 631.3 151.6 631.4 150.8 631.5 149.2 631.6 149.9 631.7 152.2 631.8 151 631.9 152.2 632 152.9 632 151.6 632.1 149.9 632.1 149.1 632.2 147.5 632.2 147.8 632.3 148.3 632.4 148.9 632.5 149.2 632.7 148.9 632.8 147.8 632.9 147.5 633 147.1 633.2 147.2 633.3 148.7 633.4 150.2 633.5 151.8 633.5 151.1 633.6 152 633.7 151.5 633.8 150 633.9 147.8 633.9 148 634 148 634.1 147.4 634.3 147.4 634.4 148.3 634.5 148.8 634.7 148.3 634.8 149.8 634.9 148.1 635 148.8 635.2 147.6 635.3 147.7 635.5 146.3 635.6 146.1 635.7 145 635.9 145 636.1 146.7 636.2 146.6 636.4 145.2 636.6 147.2 636.6 146.7 636.6 146.8 636.8 146.7 637 146.8 637.2 147 637.5 146.4 637.6 145.3 638 145.5 638.2 145.5 638.4 144.5 638.5 144.2 638.5 142.5 638.6 143.3 638.7 141.6 638.8 140.4 638.9 141.3 639.1 140.5 639.2 139.8 639.4 139.4 639.6 140.5 639.8 140.6 639.9 141.8 640.1 142.3 640.3 142.6 640.5 142.1 640.7 143 641 143.8 641.2 143.6 641.5 143.2 641.8 143.2 642.1 143.3 642.4 143.1 642.8 142.9 643.1 143.7 643.5 144 643.9 144.9 644.1 145.8 644.3 146.3 644.7 146.8 645.1 146.3 645.5 146.3 645.8 148 646.1 147.3 646.5 148.1 646.9 148.2 647.4 148.3 647.9 148.5 648.2 147.7 648.7 148.6 648.8 148.6 649.2 147.8 649.5 146.7 649.8 147.8 650.1 147.9 650.5 148.5 650.6 149.2 650.8 149.8 651.2 149.9 651.5 150 651.8 149.1 652.1 148.1 652.3 148 652.4 147.6 652.7 147.1 652.9 146.6 653.1 145.3 653.1 145.2 653.2 143.4 653.4 144.6 653.5 143.6 653.8 143.3 653.9 142.3 654.1 142.5 654.3 141.6 654.4 140.5 654.5 140.9 654.7 141 654.8 141 655 140.2 655.2 140.8 655.4 142.1 655.5 141.3 655.7 140.6 656 141.1 656.4 142.8 656.4 140.8 656.6 141 657 141.2 657.3 142.3 657.5 140.6 657.6 141 657.7 141.6 658.1 142.4 658.4 143.5 658.7 143.8 659 144 659.6 144.5 660.1 145 660.6 145.5 661.1 145.1 661.6 144.3 661.8 144.1 662 145.1 662.5 144.3 662.8 142.5 663.1 142.8 663.6 143.3 664.1 143.6 664.5 143.5 665.1 144.3 665.7 143.9 666.3 145.1 666.9 145 667.4 145.7 667.9 144.2 668.4 144.3 669 144.3 669.5 145.6 670.1 146.1 670.7 145.8 671.3 146.1 672 146.1 672.6 145.5 673.3 146.5 674 148.2 674.5 149.2 675.1 148.5 675.6 148.8 676.1 148.8 676.8 146.9 677.3 147.6 677.9 147.8 678.3 149.4 678.7 150 679.3 149.3 679.8 150.5 680.6 151 681.2 151.4 681.8 152.4 682.2 152.2 682.8 152 683.3 153.4 683.4 154.6 683.8 153.9 684 155.4 684.3 155.1 684.6 153.4 685 153.4 685.5 153.4 686 154.8 686.5 155.4 687 155 687.5 155.3 687.9 154.8 688.6 155.3 689.1 155.9 689.4 155.3 690.2 155.9 691 156.1 691.4 154.3 691.7 153 691.9 151.4 692.1 150.5 692.4 150.8 692.7 150.3 693.1 150.6 693.3 150.1 693.4 149.9 693.7 150.4 694 150.7 694.2 148.4 694.3 148.6 694.6 148.3 695.1 148.3 695.7 149.2 696.1 150 696.2 148.6 696.4 148.6 696.9 150 697 148.5 697.5 148 697.9 146.8 698.1 145 698.3 144.3 698.6 143.7 698.7 144.3 699 144.8 699.1 144.8 699.1 144.8 699.3 144.7 699.7 143.6 700.2 144.3 700.4 144 700.7 144.2 701.1 144.1 701.6 144.8 701.9 144.3 702.2 144 702.5 143.3 703.1 144 703.9 144 704.6 144.1 705.2 144.8 706 144.9 706.4 145.9 706.7 146.7 707.2 147.1 707.7 146.5 708.4 147.4 709.2 146.8 710 147 711 146.3 711.4 146.9 712 147.9 712.3 146.5 712.8 146.1 713.2 145 714 146.9 714.5 148.3 714.7 148.5 715.3 147.9 715.8 147.5 716.6 147.1 717.3 147.1 718.3 147.1 719.4 146.5 720.4 147.6 721.3 147.2 722.1 147.1 723.2 147.8 724.1 149.1 724.5 149.8 725.4 149.6 726.2 149.6 727.2 150.1 728.1 151 729.2 150.2 730.2 150 731.1 151.3 732.5 149.9 733.6 149.4 734.4 148.5 735 147.3 735.4 146.6 736.5 147 737.4 149 738.1 148.8 738.8 149.6 739.2 148.6 740.3 149.3 741.2 150.5 742.1 150.6 742.9 150.9 744 151.1 744.3 150.4 744.4 150.1 744.8 150.5 745.5 150.4 745.9 149.9 746.9 150.1 747.8 149.9 749.1 151.1 749.9 149.3 750.9 149.1 751.7 149.8 752.6 150.1 753.7 149.6 755.3 150.6 756.4 150.7 757.1 149.4 758.2 149.4 758.9 149.6 759.5 149 760.6 150 761.2 150.2 761.8 149.6 762.3 148.7 762.8 150.5 763.2 149.9 764.1 149.8 765 151.1 765.4 149.7 766.1 148.7 766.6 148.8 767.3 147.7 767.7 149 768 149.9 768.3 149 768.7 150.1 768.9 149.9 769.3 148.2 769.8 149 770.2 148.2 770.5 147.5 770.6 147 770.7 146.8 770.8 145.9 771.1 146 771.3 144.1 771.6 145.1 771.9 146.8 772.4 147.2 772.7 148.3 772.9 148.6 773.3 150.8 773.4 151.4 773.5 153.9 773.5 152.6 773.6 151.6 773.8 150.7 774 149.3 774.2 149.1 774.4 150 774.7 151 774.9 150.4 775.2 151.1 775.5 152.3 775.7 152.3 775.9 151.6 776.3 150.9 776.7 151.5 777.2 151.7 777.7 151.5 778.3 150.8 778.7 150.8 779.1 152.2 779.5 153 779.8 152.5 780.1 151.9 780.4 150.9 780.7 150 781 149.9 781.4 148.7 781.6 147.9 781.9 147.8 782.3 146 782.7 145.5 783.1 146.6 783.3 147.4 783.8 147.1 784.5 146.5 785 146.7 785.5 147.8 785.7 148.1 785.9 147.8 786.2 148.7 786.3 147.1 786.6 147.6 787.1 146.7 787.4 146.2 787.9 147.4 788.4 148.9 788.8 149.3 789.2 150.3 789.6 149.5 790 149.5 790.7 148.9 791.2 150 791.7 150.1 792.3 150 792.7 151.6 793.2 150.8 793.9 151.5 794.3 151 794.8 150.9 795.5 149.8 796.3 150 796.9 151.9 797.4 152.4 797.9 151.8 798.7 150.7 799 149.5 799.5 149.8 800.2 150.1 800.8 150.4 801.6 150.1 802.4 152 803.3 153.1 804.1 152.3 805.1 151.6 805.7 150.1 806.7 150.2 807.4 148.4 807.8 146.7 808.5 146.3 809 147.8 809.7 148.6 810.5 150 811.3 150.7 812.1 150.3 813 149.7 814.1 150.3 815.2 150.6 816.6 151.8 817.2 151.9 817.5 151.1 818.1 151.2 819.2 151 819.9 149.6 820.7 149.4 821.1 150.4 821.2 152.5 821.3 151.5 821.5 152 821.8 151.5 821.9 152.8 822 155 822 155.5 822.1 155.3 822.3 154.7 822.4 156.5 822.4 158.3 822.4 157.4 822.6 158 822.6 159.4 822.6 158.4 822.7 158.6 822.8 160.6 822.8 161.9 822.8 161.8 822.9 161.6 822.9 160.9 823 159.3 823 159.1 823.1 158.6 823.3 160.5 823.4 162.3 823.4 163.1 823.5 162.1 823.6 160.3 823.6 160.8 823.7 161.5 823.8 160.1 823.8 160.3 823.9 158.6 824 157.3 824.1 157.7 824.2 157.9 824.3 158.6 824.3 157.6 824.5 158.4 824.6 161.4 824.7 162.9 824.7 162.5 824.8 164.3 824.8 165.9 824.8 169.1 824.9 170.3 824.9 170.4 825 167 825 165.6 825.1 165.4 825.1 165.8 825.2 165.7 825.2 163.3 825.3 165.6 825.3 165 825.4 163.3 825.5 164.2 825.5 165.3 825.6 163 825.6 162.8 825.8 162.2 825.9 161.4 825.9 161.5 826 163.4 826.1 164.4 826.2 162 826.2 162.8 826.3 163.9 826.4 165 826.4 166.6 826.5 165.5 826.5 164.7 826.6 164.8 826.6 166.7 826.7 168.6 826.8 172.6 826.8 174 826.9 175 826.9 176.1 826.9 172.6 827 170.6 827.1 169.5 827.1 168.4 827.2 170.8 827.2 168.4 827.3 167.2 827.3 167.2 827.4 167.7 827.5 167.5 827.5 169.3 827.6 169.4 827.6 169.3 827.7 169.3 827.7 168.6 827.8 165.2 827.9 165.8 828 164.5 828.1 164.2 828.2 164.3 828.2 166.3 828.3 164.7 828.4 165.6 828.5 166.1 828.6 165.4 828.7 165.3 828.8 165 828.9 163.8 829 163.3 829.1 163.5 829.3 164.9 829.4 165.4 829.5 165.7 829.7 167.8 829.8 166 830 165.5 830.1 165.5 830.2 167.5 830.4 167.5 830.5 168.3 830.6 168.3 830.7 168.2 830.9 169.8 831 170.2 831.2 171.1 831.3 170.3 831.3 169.9 831.5 168.9 831.6 171.1 831.7 171 831.8 171.9 831.9 170.9 832 172.6 832.1 172.3 832.3 172.9 832.4 171.1 832.5 171.2 832.6 169.3 832.8 168.2 833 168.9 833.2 169.8 833.4 170.1 833.6 169.8 833.7 170.4 833.9 170.3 834.1 171.2 834.2 172.9 834.2 171.3 834.3 171.2 834.4 173.6 834.5 174.6 834.5 175.7 834.6 175.9 834.6 179.2 834.7 179 834.7 179.8 834.7 181.7 834.8 183.6 834.8 184.3 834.9 189.8 835 191 835.1 193 835.1 189.6 835.2 184.9 835.2 183.3 835.2 181.5 835.3 182.3 835.3 182.7 835.4 182 835.4 184.6 835.4 186.1 835.5 189 835.5 191.8 835.6 195 835.6 197.4 835.6 201.8 835.6 207 835.7 210.9 835.7 205.8 835.8 203 835.8 202.8 835.8 199.6 835.9 198.6 836 195.9 836 194.9 836.1 195.8 836.1 195.8 836.1 193.1 836.2 194.1 836.3 195 836.3 197.8 836.3 197.3 836.4 196.3 836.5 199.6 836.5 202.3 836.6 203.8 836.6 209 836.6 212.4 836.7 213.8 836.7 209.4 836.7 210.4 836.8 207.3 836.8 206.8 836.8 205.6 836.9 213.2 836.9 216.7 836.9 215.9 837 216.7 837.1 220.8 837.1 223.9 837.1 225.7 837.1 229.4 837.2 231.8 837.2 228.5 837.3 222.8 837.3 223.5 837.4 226.3 837.4 231.4 837.4 236.7 837.5 237.5 837.5 238.2 837.5 241.7 837.6 244.7 837.6 245.3 837.7 239.7 837.7 237.7 837.7 238.7 837.8 247.1 837.8 251.5 837.9 256 837.9 260.6 837.9 263.1 837.9 268.8 837.9 273.1 838 276.4 838 275.7 838 280.2 838.1 279.4 838.1 278.9 838.2 287.2 838.2 284.3 838.3 290.7 838.3 296 838.4 299.4 838.4 300.8 838.4 306.6 838.5 310.1 838.5 313.5 838.5 320.2 838.5 321.8 838.5 318.2 838.6 321.5 838.6 319.8 838.6 325.4 838.7 331.4 838.7 342.7 838.8 345.1 838.8 347.2 838.8 352.9 838.8 355.2 838.8 365.7 838.9 364.8 838.9 364.2 838.9 372.9 839 376.4 839 379.6 839.1 386.1 839.1 389.2 839.1 388.6 839.2 392.2 839.2 397.6 839.2 406 839.3 417.3 839.3 425.2 839.4 430.7 839.4 439.2 839.4 433.4 839.4 435.2 839.5 431.3 839.5 428.7 839.6 422.5 839.6 423.7 839.7 423.1 839.7 419.8 839.8 419.9 839.8 418.7 839.9 417.4 839.9 413.1 839.9 412.7 839.9 412.2 840 405.1 840 401.4 840 396.5 840.1 391.2 840.1 385.4 840.1 381.3 840.2 372.8 840.2 364.2 840.3 360 840.3 353 840.4 350.2 840.4 344.2 840.4 338.7 840.5 332.5 840.5 340.6 840.6 350 840.6 345.4 840.7 348.4 840.7 343.9 840.8 343.8 840.8 335.6 840.9 335.4 840.9 322 840.9 320.9 841 321.1 841.1 316.9 841.1 316.1 841.1 317.5 841.1 317.9 841.2 323.5 841.2 331.4 841.2 318.9 841.3 322 841.3 313.8 841.4 318.3 841.4 327.3 841.5 325.1 841.5 320.6 841.5 313.1 841.6 320 841.6 317.6 841.7 318.6 841.7 323.7 841.8 327.8 841.8 329.8 841.9 329.5 841.9 320.2 841.9 313.1 842 315.9 842 330.5 842.1 331.9 842.1 329.7 842.2 324.3 842.2 326.8 842.3 324.7 842.3 327.3 842.3 327.4 842.4 328.8 842.4 325.8 842.4 332 842.5 322.8 842.5 325.9 842.5 328.4 842.5 338.1 842.6 325.9 842.6 329.6 842.6 331.5 842.7 328.7 842.8 330.4 842.8 330.3 842.9 334.3 842.9 332.6 842.9 334.5 842.9 332.6 843 334.4 843 336.1 843 330.4 843 333.3 843.1 328.9 843.1 326.6 843.1 327.7 843.1 326.1 843.2 328.7 843.2 331.1 843.3 332.5 843.3 333.9 843.4 327.4 843.4 327.4 843.5 329.6 843.5 329.1 843.6 325.6 843.6 329.9 843.7 325 843.8 324.3 843.8 321.6 843.9 321.5 843.9 324.1 844 318.5 844 318 844 322.8 844 321.7 844.1 323.5 844.1 324.2 844.1 329 844.2 330.1 844.2 325.1 844.2 327.8 844.3 322.5 844.3 326.4 844.3 330.2 844.3 332.6 844.4 330.3 844.5 326.9 844.5 330.4 844.5 325 844.6 330.3 844.6 330.3 844.6 339.2 844.7 329.2 844.7 331.2 844.8 326.3 844.8 334.4 844.8 331.7 844.9 329.4 844.9 330.8 844.9 327.2 845 340.2 845 340.9 845 334.4 845.1 329.2 845.1 328.2 845.1 332.3 845.1 332.6 845.2 336.6 845.2 329.1 845.2 331.9 845.3 325.8 845.3 330.8 845.4 328.4 845.4 327.6 845.4 332.3 845.4 332.3 845.5 327.1 845.5 330.3 845.5 328.4 845.6 324.7 845.6 329.4 845.6 329 845.7 326.2 845.7 326.9 845.7 326.5 845.8 328.4 845.8 324.5 845.8 330.8 845.8 318.8 845.8 325.8 845.8 326.7 845.9 327.9 845.9 325 845.9 321.3 845.9 332.4 846 326.5 846 330.3 846 329.8 846.1 323.7 846.1 322.9 846.1 323.9 846.1 326.3 846.2 324.9 846.2 318.1 846.2 323.2 846.3 320.8 846.3 324.8 846.3 326.3 846.3 323.6 846.3 321.7 846.3 319 846.4 314.4 846.4 313.4 846.4 313.4 846.4 313.3 846.5 315.3 846.5 312.3 846.5 315.8 846.5 312.3 846.6 311.9 846.6 313.8 846.6 311.7 846.6 312.6 846.7 311.7 846.7 312.6 846.7 313.3 846.7 314.1 846.7 317.5 846.8 316.5 846.8 316.6 846.8 315.2 846.9 313.3 846.9 314.5 846.9 315.8 846.9 317.5 847 314.1 847 315.5 847 317.3 847 311 847.1 311.9 847.1 312.1 847.1 307.7 847.2 309.8 847.2 301.3 847.3 303.6 847.3 303.7 847.4 301.4 847.5 299.9 847.5 303.7 847.6 302.7 847.6 298.8 847.7 297.4 847.7 302.8 847.8 302.2 847.9 306.6 847.9 299.9 848.1 300.4 848.3 299 848.3 293.4 848.4 301.9 848.6 300.1 848.6 298.2 848.7 300.8 848.8 302 848.9 305 849 305.9 849 310.7 849.1 303.7 849.2 306 849.4 300.8 849.4 303.8 849.5 304.5 849.7 308.7 849.8 307.7 850.1 310 850.2 312.6 850.3 310.6 850.3 314 850.4 305.2 850.5 311 850.7 307 850.8 307.6 851 304.2 851.1 303.9 851.2 302.8 851.3 302.1 851.4 298.8 851.5 301.8 851.5 291.7 851.5 294.6 851.7 302.3 851.7 299.9 851.8 287.6 851.8 288.3 851.9 290.9 852 287.6 852.2 286.7 852.4 288 852.6 286.7 852.8 288.9 852.9 275.1 852.9 278.2 853.1 274.4 853.1 272.2 853.2 277.7 853.2 281 853.2 278 853.3 270.4 853.4 263.3 853.4 263.5 853.4 261.3 853.5 256 853.5 256.6 853.5 260.3 853.6 259.2 853.7 269.2 853.8 265.1 853.9 269.5 854 267.7 854.1 270.4 854.2 269.1 854.3 270.4 854.4 265.2 854.4 267.4 854.4 267.3 854.5 267.4 854.5 259.6 854.5 261.3 854.6 263.3 854.6 267.1 854.6 271.6 854.7 268.8 854.8 258.8 854.8 261.8 854.9 267.3 855 262 855 264.2 855 266.4 855.1 258.1 855.1 259.1 855.2 259.4 855.2 260.1 855.2 261.3 855.2 257 855.3 260.1 855.4 259 855.4 262.2 855.4 259.2 855.4 266.4 855.5 261.9 855.5 266.4 855.6 258.8 855.6 256.3 855.6 250.4 855.6 260.6 855.7 257 855.7 262.8 855.7 260.1 855.8 266 855.9 267.4 855.9 267.1 855.9 263.5 856 265.2 856 270.4 856.1 268.4 856.1 270.4 856.1 268.6 856.2 267.8 856.2 269.4 856.3 267 856.3 266.3 856.3 269.9 856.4 268.4 856.4 263.3 856.4 270.4 856.5 272.2 856.5 264.2 856.6 269.4 856.7 269.1 856.7 266.9 856.8 269.8 856.8 271.3 856.8 267.8 856.9 268.7 856.9 268.9 857 268.4 857 269 857 267.9 857.1 270.4 857.2 266.3 857.2 261.5 857.3 262.8 857.3 265.6 857.4 266.6 857.4 262 857.5 262.4 857.6 267.4 857.6 267.4 857.6 270.4 857.7 267.7 857.8 265.5 857.9 269.9 857.9 269.2 857.9 276.1 857.9 261.3 857.9 267.7 858 266.2 858 265.6 858 268.5 858 266.5 858 267.7 858.1 257.9 858.1 260.6 858.1 264.8 858.1 265.2 858.1 265.1 858.2 266.4 858.2 267.8 858.3 271.4 858.3 272.9 858.3 273.6 858.3 269.9 858.3 271.9 858.4 262.8 858.5 258.8 858.5 263.5 858.5 258.5 858.6 265.1 858.6 265.3 858.7 265 858.8 267 858.8 265.8 858.9 261.1 859 258.8 859 270.2 859.1 269.5 859.1 273.3 859.2 270.4 859.3 270.4 859.3 270.8 859.4 269 859.5 272.5 859.6 265.6 859.6 265.6 859.7 263.3 859.7 261.8 859.8 259.7 859.9 263.1 859.9 264.9 859.9 260.5 860 259.6 860.1 260 860.2 262.3 860.3 260.3 860.4 262.4 860.4 257.1 860.5 258.8 860.5 258.1 860.6 261 860.7 262 860.8 261.5 860.9 260.5 860.9 256.1 860.9 258.8 861 258.3 861 259.5 861.1 261.5 861.1 259.3 861.2 259.9 861.2 262 861.2 260.6 861.3 260.6 861.4 259.4 861.5 257.2 861.6 255.9 861.6 252.6 861.6 252.4 861.7 252.5 861.7 252.9 861.7 254.4 861.8 253.2 861.9 253.6 861.9 255.2 862 252.4 862 257.7 862.1 256.6 862.1 255.6 862.1 254.1 862.2 254.3 862.3 255.9 862.4 254 862.5 254.6 862.5 254.1 862.6 251.8 862.7 255.2 862.8 256.2 862.8 257.7 862.9 258.8 863 259.1 863 260.6 863.1 261.1 863.1 260.6 863.2 264.8 863.2 263.2 863.3 259 863.3 259.5 863.3 260.2 863.4 260.7 863.4 260.3 863.4 261.1 863.4 265.3 863.5 263 863.5 261.8 863.5 263.9 863.5 263.3 863.6 266.9 863.6 264.6 863.7 262.7 863.8 261.9 863.9 259.9 863.9 264.3 863.9 264.1 864 263.5 864 261.5 864.1 260.7 864.2 262 864.2 262.6 864.4 260.4 864.5 261.8 864.5 261.7 864.6 262.6 864.6 262.6 864.7 262.1 864.8 262.6 864.9 263.3 865 262 865.1 262.2 865.1 264.1 865.1 262.4 865.2 262.8 865.3 261.6 865.3 263.5 865.4 262.6 865.5 264.8 865.5 263.3 865.6 264.8 865.7 266.3 865.7 269.1 865.8 268.3 865.8 269.1 865.8 267.9 865.9 271.2 865.9 274.1 865.9 278.5 865.9 278.6 865.9 278.5 865.9 281.3 865.9 282.2 865.9 279.5 865.9 278.9 866 284.6 866 286.1 866 286.3 866.1 290.8 866.1 293 866.2 298.1 866.2 300.5 866.2 302.9 866.2 304.5 866.2 308.2 866.2 304.5 866.3 299.4 866.3 294.2 866.3 291.7 866.3 287.4 866.4 286.3 866.4 283.3 866.4 279.9 866.5 282.9 866.5 284.2 866.5 279.9 866.5 284.4 866.6 279.4 866.6 279.7 866.6 278.8 866.7 278.6 866.7 276.1 866.8 274.8 866.8 274.6 866.8 275.6 866.8 276.7 866.9 278.8 866.9 278.9 866.9 277.5 867 274.9 867 277.6 867.1 271.6 867.1 272.9 867.1 271.4 867.2 271.2 867.2 274.8 867.2 277.7 867.3 275.1 867.4 271.2 867.4 273.1 867.5 274.4 867.5 274.8 867.5 277.2 867.6 276.8 867.6 276.8 867.6 274.8 867.7 275.6 867.7 275.6 867.7 272.3 867.8 270.3 867.8 274.2 867.9 272.9 867.9 272.5 868 271.1 868 269.8 868.1 269.5 868.1 270.3 868.2 263.9 868.2 269.8 868.2 270.6 868.3 267.8 868.3 270.3 868.3 269 868.4 270.5 868.4 269.9 868.5 268.5 868.6 266.3 868.7 267.7 868.7 269.1 868.7 269.2 868.8 267.8 868.8 268.5 868.8 267.8 868.9 267.3 869 266.3 869 269.5 869.1 268.9 869.2 267.3 869.3 265.3 869.4 264.8 869.4 264.9 869.5 264.1 869.5 266.3 869.6 265 869.7 262.4 869.7 263.5 869.8 262 869.9 261.6 869.9 260.8 870 260.1 870 262 870.1 261.3 870.1 261 870.1 262.4 870.1 262.5 870.2 260.1 870.3 262 870.3 262 870.4 262 870.4 262.7 870.5 264.1 870.5 265.3 870.6 263.6 870.6 263.9 870.7 262.7 870.7 261 870.8 260.7 870.8 262.1 870.8 262.2 870.8 263.6 870.9 261 870.9 261.6 871 263.8 871.1 263.6 871.1 263.7 871.2 265.9 871.3 264.7 871.4 264.6 871.4 266.1 871.5 265.7 871.6 267.3 871.7 266.6 871.7 267.8 871.8 265.7 871.9 265.4 872 265.6 872.1 263.9 872.2 262.6 872.3 261.3 872.4 262.4 872.5 262.5 872.6 260.4 872.7 260.8 872.8 262 872.9 264.4 873 264 873.1 267 873.2 267.6 873.4 265.8 873.5 267.3 873.5 266.3 873.6 265.5 873.7 266.6 873.8 267.6 873.9 268.6 873.9 267.9 873.9 268.9 874 269.2 874.1 268.1 874.2 270.4 874.2 269.3 874.3 270.7 874.4 270.8 874.5 272.9 874.5 271 874.6 269 874.7 270.4 874.8 269.9 874.8 268.8 874.9 269.4 875 269.3 875.1 272.1 875.2 272.9 875.2 276.3 875.2 273.9 875.3 272.8 875.4 272.1 875.5 273.5 875.6 273.9 875.8 272.4 875.8 271.3 875.9 274 875.9 274.3 876 274 876.1 273.2 876.2 273.1 876.3 272.9 876.4 272.6 876.6 274.5 876.6 278.6 876.7 278.2 876.8 278.6 876.9 277.9 877 276.5 877.1 276.8 877.2 278.8 877.3 277.2 877.5 279.2 877.6 280.1 877.6 279.4 877.7 283.2 877.8 280.6 877.9 282.6 878 283.5 878.1 282.5 878.2 282.9 878.4 282.4 878.5 282.6 878.6 285.1 878.7 288.3 878.7 288.9 878.8 285.6 878.9 284.7 878.9 285.9 879 286.3 879.1 285.9 879.2 284.8 879.3 283.7 879.3 283.1 879.4 281 879.4 280.6 879.5 279.4 879.6 280.1 879.7 282.1 879.7 281.6 879.8 283 879.9 282.2 880 284 880.1 284.8 880.1 286.3 880.2 284.5 880.4 285.1 880.6 282.6 880.7 282.9 881 282.2 881.1 280.5 881.2 279.2 881.2 279 881.3 279.9 881.5 278.8 881.6 277.2 881.8 278.2 882 276.5 882.1 279 882.3 279.7 882.5 279.9 882.7 281.4 882.9 281.1 883 280.3 883.1 281.2 883.2 278.7 883.3 279.1 883.4 278.3 883.5 277.4 883.6 277.8 883.7 277.9 883.9 275.9 884.1 274.8 884.2 274.1 884.3 272.7 884.4 271.8 884.5 271.9 884.6 269.5 884.6 271 884.6 272.9 884.7 272.1 884.8 270.8 884.9 273.6 885.1 273.8 885.2 272.1 885.4 272.5 885.5 273.3 885.6 275.5 885.9 273.4 886 275.9 886 276.3 886.1 274.9 886.3 274.9 886.4 273.9 886.5 272.8 886.7 273.4 886.8 273.9 886.9 273.9 887.1 275.3 887.2 275.1 887.4 275.6 887.6 275.2 887.9 274.3 888.2 274.1 888.4 274 888.4 276.1 888.4 274 888.5 274.6 888.6 271.3 888.8 272.2 889 271.1 889.2 269.9 889.4 269.1 889.5 268.7 889.6 268.5 889.8 267 889.9 268.7 890.1 267.7 890.2 266.9 890.3 265.7 890.5 264.8 890.6 266.3 890.8 266.3 890.9 267.3 891 262.6 891 263.8 891 267 891.1 264.1 891.2 260 891.3 263.3 891.3 262.2 891.4 262.3 891.5 265.1 891.5 264.2 891.5 264.2 891.6 262.8 891.7 264.2 891.9 264.9 892.2 265.8 892.3 265.5 892.5 265.4 892.5 267 892.5 266.3 892.7 266.5 892.9 267.4 893 265.6 893 265.6 893.1 267 893.2 264.8 893.3 265.8 893.4 266.2 893.4 266.9 893.5 265.6 893.7 265.3 893.8 264.5 893.9 265.6 893.9 266.6 894.1 265.5 894.2 262.3 894.4 263.5 894.4 265.1 894.5 265.5 894.6 264.9 894.9 264.8 895.2 265.1 895.4 265.4 895.6 266.2 895.7 265.2 895.9 265.3 896.1 264.8 896.2 264.7 896.4 264.3 896.4 268.4 896.4 268.3 896.5 268.7 896.5 264.3 896.7 263.2 896.9 262.6 897 260.4 897.2 259.6 897.4 260.1 897.5 260.3 897.7 258.5 897.8 261.1 897.8 258.1 898 258.5 898.1 258.8 898.2 260.1 898.3 259.1 898.5 259.2 898.6 260.4 898.8 261.5 899 261.3 899.2 260.3 899.4 260.3 899.5 260.6 899.7 261.8 899.8 261 900.1 261.1 900.1 262.8 900.2 261.3 900.3 256.8 900.4 260.1 900.4 262.4 900.4 264.2 900.5 263.1 900.7 259.5 900.8 261.5 901 261.9 901.1 262 901.4 262.6 901.6 263.4 901.8 264.2 902 262.5 902.1 262.2 902.2 263 902.2 265.3 902.2 263.2 902.3 263.8 902.4 264 902.5 263.6 902.5 263.1 902.6 262.9 902.7 262.7 902.8 263.1 903 262.6 903.1 263.3 903.2 263.2 903.3 264.5 903.3 265 903.5 265.1 903.6 264.4 903.8 265.6 904 265.1 904.1 266 904.2 266 904.3 265.7 904.5 266.4 904.6 265.3 904.7 266.5 904.8 267.7 905 267.6 905 269.8 905 269.9 905 269.8 905 268.8 905.1 267.6 905.2 267.9 905.4 267.9 905.5 267.2 905.6 267.1 905.7 267.7 905.9 268.1 906 268.1 906.2 268.2 906.4 267.1 906.6 267.4 906.8 266.2 907 266.7 907.2 266.6 907.4 265.7 907.6 264.9 907.8 265.7 908 266.6 908.2 265.2 908.4 264.7 908.6 265.2 908.8 264.5 909 265.5 909.2 265.6 909.4 265.6 909.6 264.8 909.8 264.7 910 264.9 910.2 264.6 910.4 265.1 910.6 263.6 910.8 264.7 911 265.4 911.2 265 911.4 264.1 911.5 265 911.6 265.2 911.7 264.4 911.9 263.8 912 263.8 912.2 263.1 912.3 261.7 912.5 262.2 912.8 261.5 913 261.1 913.3 261.7 913.5 262.8 913.8 261.4 914 261.1 914.3 260.4 914.5 260.6 914.7 260 914.8 259.8 915 259.3 915.2 256.3 915.4 257.1 915.6 256.8 915.8 257.6 916.2 257.5 916.5 258.1 916.5 258.2 916.8 256.5 917.1 257 917.4 255.7 917.6 257.5 918 258.1 918.2 256.7 918.6 257.4 918.8 257.6 919.1 257.6 919.3 257.5 919.7 256 919.9 257.2 920.1 256.5 920.4 255.5 920.5 253.5 920.8 253.7 921.1 254.2 921.4 254.3 921.6 254.6 921.9 253.5 922.1 252.8 922.2 253.6 922.4 253.3 922.7 253 922.9 251.4 923 253.4 923.1 252.5 923.2 252.3 923.4 253.1 923.5 254.1 923.6 253.4 923.7 254.2 923.9 252.8 924.1 252.6 924.4 251.2 924.6 250.8 924.8 250.3 925 248.4 925.2 249.4 925.3 248.7 925.4 249.7 925.6 253 925.8 254.1 925.9 251.9 926 253.2 926.1 253 926.3 251 926.4 252.3 926.5 252 926.6 252.5 926.6 252.4 926.8 252.3 926.9 252.7 927 253.3 927.1 252.9 927.2 252.4 927.3 252.2 927.5 252.7 927.6 252.9 927.8 254.6 927.9 256 928.1 255.3 928.3 254.5 928.5 255 928.7 255.3 928.9 257 929 257.9 929.1 257.9 929.3 258.3 929.4 259.2 929.4 261.8 929.5 261.6 929.6 259.8 929.7 261.6 929.8 260.6 929.9 261.3 930 261.5 930.2 261 930.3 262.5 930.4 262.4 930.6 263 930.7 263.3 930.9 264.3 931 261.7 931.1 263.5 931.3 264.4 931.4 265.3 931.6 265.1 931.8 265.5 931.9 266.8 932 265.1 932.3 266.5 932.4 267.8 932.6 265.5 933 264.8 933.2 264.2 933.4 263.6 933.5 264.9 933.8 264.1 934 263.6" opacity=".6"/><text x="942" y="472" fill="#d97706" font-size="11" text-anchor="start">43.90</text><text x="942" y="396" fill="#d97706" font-size="11" text-anchor="start">63.67</text><text x="942" y="320" fill="#d97706" font-size="11" text-anchor="start">83.45</text><text x="942" y="244" fill="#d97706" font-size="11" text-anchor="start">103.22</text><text x="942" y="168" fill="#d97706" font-size="11" text-anchor="start">123.00</text><text x="942" y="92" fill="#d97706" font-size="11" text-anchor="start">142.77</text><text x="942" y="80" fill="#d97706" font-size="11" font-weight="600" text-anchor="start">price</text><polygon fill="#16a34a" fill-opacity=".08" points="95.7 468 95.7 427.5 98.6 426.4 112 427.1 144.7 426.1 168.5 425.6 201.4 424.7 213.5 424.4 227.1 423.5 252.3 423.3 288.1 424.4 307.9 422.8 311.8 421.9 314 422.7 314.8 421.7 317.6 422.8 324.3 420.2 333.7 421 362.3 420 374.8 419.1 402.6 418.9 454.9 417.4 489.5 416.8 506 416.5 512.8 417.7 554.6 418.2 560 417.9 608.3 417.3 615.5 415.8 623.1 415.6 631.3 415 631.7 416.1 633 417.5 634.2 418.7 635.9 419.1 643.5 419.9 653.2 418 658.9 418.7 663.9 420.5 681.2 419.9 698.1 419.3 713.2 420.1 771.3 421.9 773.4 421.3 773.6 422.1 789.2 421 810.2 422.2 822.4 420.5 824 419 824.8 418.5 824.9 418.2 825 417.3 826.1 418.1 826.4 419.8 826.5 420.6 826.7 419.3 826.9 420.1 827.5 418.2 827.9 417.6 829.2 418.4 831.8 417.4 834.2 418.5 834.6 416.8 834.8 416.3 835 415.7 835.1 414.8 835.4 414.5 835.4 415.7 835.5 414 835.6 413.4 835.6 412.9 835.6 414 835.7 412.3 835.7 413.5 835.7 414.9 835.8 414.3 836 413.7 836.4 414.9 836.5 415.3 836.5 416.1 836.6 415.1 836.7 413.6 836.8 413.3 836.9 412.5 836.9 411.9 837 410.7 837.1 409.5 837.1 410.3 837.1 409.3 837.2 410.5 837.4 408.8 837.4 407.3 837.5 407 837.6 405.6 837.6 405.3 837.7 406.4 837.7 403.9 837.7 403.6 837.7 403 837.7 404.2 837.8 405.6 837.8 405 837.8 406.2 837.8 404.5 837.9 403.9 837.9 403 837.9 402.8 837.9 401.3 838 402.1 838 403.8 838 403.2 838.1 404 838.1 405.8 838.1 406.5 838.2 404.6 838.2 403.4 838.2 402.9 838.2 403.6 838.2 405.4 838.3 404.2 838.3 403.6 838.4 403.3 838.4 404.5 838.4 402.8 838.5 401.4 838.5 400.8 838.5 401.5 838.5 403.3 838.5 402.7 838.5 403.5 838.5 405.2 838.5 406 838.6 405 838.6 406.1 838.6 407.5 838.6 408.6 838.6 410 838.6 411.2 838.6 412.5 838.6 413.7 838.7 411.1 838.7 410.5 838.7 410.2 838.7 408.8 838.8 408.2 838.8 408.9 838.8 410.7 838.8 411.5 838.8 413.2 838.8 414 838.8 415.7 838.8 416.5 838.8 415.2 838.8 414.9 838.8 414.1 838.8 412.9 838.8 413.7 838.8 412.7 838.8 411.2 838.8 410.9 838.8 412.1 838.9 409.5 838.9 410.3 838.9 412 838.9 411.7 838.9 411.1 838.9 412.3 838.9 412.7 838.9 413.5 838.9 415.3 838.9 416.1 838.9 414.8 838.9 415.5 838.9 417.3 838.9 418 838.9 419.8 839 420.6 839 422.3 839 422 839 421.5 839 420.6 839 421.4 839.1 420.1 839.1 419.5 839.1 419.2 839.1 420.4 839.1 421.8 839.1 422.9 839.1 423.4 839.1 424.2 839.2 422.9 839.2 423.6 839.2 425.4 839.2 426.2 839.2 424.9 839.2 423.7 839.2 424.5 839.2 423.2 839.2 422.6 839.2 423.4 839.2 422.4 839.2 423.5 839.2 424.9 839.2 424 839.2 423.4 839.2 424.2 839.2 423.2 839.2 422.6 839.3 422 839.3 421.2 839.3 422 839.3 420.9 839.3 420.1 839.3 420.9 839.3 419.6 839.3 420.3 839.3 419.3 839.3 417.8 839.3 418.6 839.3 417.6 839.3 418.8 839.3 420.1 839.3 421.3 839.3 422.6 839.3 421.8 839.3 421.2 839.3 420.6 839.3 420.3 839.3 419.5 839.4 418.9 839.4 419.7 839.4 417.8 839.4 416.6 839.4 415.4 839.4 414.2 839.4 413.9 839.4 413.4 839.4 412.5 839.4 412.2 839.4 411.4 839.4 410.8 839.4 410.5 839.4 409 839.4 408.5 839.4 407.3 839.4 406.1 839.4 405.8 839.4 405.3 839.4 404.7 839.4 404.1 839.4 403.5 839.4 402.1 839.4 401.8 839.4 402.9 839.4 403.4 839.4 402.8 839.4 402.2 839.4 401.7 839.4 401.1 839.4 399.9 839.4 399.4 839.4 398.8 839.4 397.6 839.4 397.3 839.4 398.5 839.4 396.8 839.4 395.3 839.4 394.1 839.5 394.9 839.5 393.6 839.5 393.1 839.5 393.8 839.5 392.5 839.5 393.3 839.5 395 839.5 395.8 839.5 397.5 839.5 398.3 839.5 397 839.5 397.8 839.5 399.5 839.5 399 839.5 398.4 839.5 397.8 839.5 397.5 839.5 398.7 839.5 396.1 839.5 396.9 839.5 395.6 839.5 394.4 839.6 395.2 839.6 393.3 839.6 392.7 839.6 392.1 839.6 392.9 839.6 391.9 839.6 390.4 839.6 391.2 839.6 389.3 839.6 390 839.7 391.8 839.7 391.5 839.7 392.7 839.7 394 839.7 395.2 839.7 395.6 839.8 394.5 839.8 393.9 839.8 392.7 839.8 392.4 839.8 391.9 839.8 393 839.8 394.4 839.8 393.8 839.8 395 839.9 396.3 839.9 397.5 839.9 394.9 839.9 395.7 839.9 393.8 839.9 393.5 839.9 394.6 839.9 396 839.9 395.1 839.9 395.9 839.9 394.9 839.9 396 839.9 393.5 839.9 394.2 839.9 393.2 839.9 394.4 839.9 395.8 839.9 395.2 839.9 394.6 839.9 394 839.9 393.5 839.9 394.6 840 396 840 397.1 840 398.5 840 399.7 840 398 840 397.4 840 395.9 840 395.4 840 394.8 840 394.2 840 393.9 840 393.1 840 392.8 840 392.2 840 391.6 840 390.2 840 390.9 840 389 840 388.7 840.1 388.2 840.1 387.6 840.1 388.7 840.1 390.1 840.1 389.5 840.1 388.9 840.1 387.5 840.1 386.9 840.1 385.7 840.1 385.4 840.1 386.6 840.1 384.9 840.1 383.4 840.1 382.3 840.1 383 840.1 384.8 840.1 385.6 840.1 387.3 840.1 386.7 840.1 386.2 840.1 385.9 840.1 387.1 840.1 385.4 840.1 384.8 840.1 383.9 840.2 383.4 840.2 384.1 840.2 385.9 840.2 385.6 840.2 385 840.2 383.6 840.2 382.4 840.2 382.1 840.2 381.5 840.2 380.1 840.2 380.8 840.2 382.6 840.2 383.4 840.3 385.1 840.3 385.9 840.3 387.6 840.3 388.4 840.3 390.2 840.3 390.9 840.3 389.9 840.3 389.1 840.3 389.8 840.3 388.8 840.3 388.2 840.3 387.4 840.3 386.8 840.3 386.2 840.3 387 840.3 385.7 840.3 385.4 840.4 386.6 840.4 388 840.4 389.1 840.4 390.5 840.4 391.6 840.4 389.1 840.4 389.9 840.4 387.9 840.4 387.7 840.4 386.2 840.4 385.9 840.4 385.3 840.4 383.8 840.4 384.6 840.4 382.7 840.4 382.1 840.4 380.9 840.4 381.7 840.4 383.5 840.4 384.2 840.4 386 840.5 386.8 840.5 388.5 840.5 387.9 840.5 387.6 840.5 386.2 840.5 386.9 840.5 388.7 840.5 387.5 840.6 388.3 840.6 387.3 840.6 386.7 840.6 385.2 840.6 384.7 840.6 384.4 840.6 383.8 840.6 382.9 840.6 381.8 840.6 381.2 840.6 380.9 840.6 380.3 840.6 379.5 840.6 378.9 840.6 378.3 840.6 377.8 840.6 377.2 840.6 376.6 840.6 376 840.6 374.9 840.6 374.3 840.7 373.1 840.7 372.5 840.7 372 840.7 371.4 840.7 371.1 840.7 370.5 840.7 369.7 840.7 369.1 840.7 368.5 840.7 367.4 840.7 367.1 840.7 368.2 840.7 368.7 840.8 369.5 840.8 368.2 840.8 367.6 840.8 367 840.8 367.8 840.8 366.8 840.8 367.9 840.8 368.4 840.8 368.1 840.8 369.3 840.8 369.7 840.8 369.5 840.8 370.6 840.9 371.1 840.9 369.9 840.9 368.7 840.9 368.4 840.9 367.9 840.9 366.4 840.9 366.1 840.9 364.6 840.9 363.5 841 364.2 841 362.9 841 361.8 841 362.5 841 361.5 841 360.1 841 359.8 841.1 358.3 841.1 358 841.1 357.5 841.1 356 841.1 355.4 841.1 354.2 841.1 353.7 841.1 353.4 841.1 352.8 841.1 354 841.1 355.3 841.1 354.8 841.1 354.2 841.1 353.3 841.1 354.1 841.2 353.1 841.2 352.5 841.2 351.6 841.2 351.1 841.2 350.8 841.2 349.3 841.2 350.1 841.2 348.8 841.2 348.5 841.2 347.1 841.2 346.5 841.2 345.3 841.2 344.1 841.2 344.9 841.2 343.6 841.2 343 841.2 342.8 841.2 343.9 841.2 345.3 841.2 346.4 841.2 344.8 841.2 344.2 841.2 342.7 841.2 342.4 841.2 341 841.2 339.8 841.3 340.6 841.3 338.6 841.3 338.1 841.3 337.8 841.3 336.3 841.3 335.8 841.3 336.5 841.3 335.5 841.3 336.7 841.3 335 841.3 336.1 841.3 333.6 841.3 333.3 841.3 331.8 841.3 332.6 841.3 331.6 841.3 332.7 841.3 331.1 841.3 330.2 841.3 331 841.3 332.7 841.3 331.6 841.3 331.3 841.3 330.7 841.4 331.9 841.4 329.3 841.4 328.7 841.4 327.5 841.4 327 841.4 326.7 841.4 325.2 841.4 326 841.4 327.7 841.4 327.2 841.4 326.6 841.4 327.4 841.4 329.1 841.4 328.8 841.5 328.2 841.5 327.7 841.5 328.8 841.5 326.2 841.5 325.7 841.5 324.5 841.5 323.9 841.5 323.4 841.5 322.8 841.5 321.6 841.5 322.4 841.5 321.4 841.5 319.9 841.6 320.7 841.6 322.4 841.6 321.8 841.6 321.5 841.6 320.1 841.6 320.8 841.6 319.8 841.6 321 841.6 322.4 841.6 323.5 841.7 324 841.7 324.8 841.7 326.5 841.7 327.3 841.7 329 841.7 328.4 841.7 328.2 841.7 327.6 841.7 326.1 841.7 325.5 841.8 326.3 841.8 328.1 841.8 328.8 841.9 326.9 841.9 327.7 841.9 325.8 841.9 325.5 841.9 326.7 841.9 324.1 841.9 323.8 841.9 324.9 841.9 323.3 841.9 322.7 841.9 322.1 841.9 321.3 841.9 320.7 841.9 319.5 841.9 318.9 842 318.4 842 317.8 842 318.6 842 320.3 842 319.2 842 318 842 317.4 842 316.2 842 315.9 842 317.1 842 318.4 842 317.9 842 319 842 319.5 842.1 320.3 842.1 322 842.1 322.8 842.1 321.5 842.1 322.3 842.1 320.4 842.1 320.1 842.1 321.2 842.1 318.7 842.1 318.1 842.2 318.9 842.2 317.6 842.2 318.4 842.2 320.1 842.2 320.9 842.2 322.6 842.2 322.3 842.2 323.5 842.2 321.8 842.2 320.3 842.3 319.8 842.3 319.2 842.3 318.9 842.3 318 842.3 317.5 842.3 318.2 842.3 316.3 842.3 316 842.3 315.5 842.3 314.9 842.3 314.3 842.3 313.8 842.3 313.2 842.3 312.6 842.3 311.7 842.3 311.2 842.3 310 842.3 309.4 842.4 309.1 842.4 307.7 842.4 307.1 842.4 306.5 842.4 305.9 842.4 305.4 842.4 306.1 842.4 307.9 842.4 308.7 842.4 306.8 842.4 307.5 842.4 306.5 842.4 305 842.4 304.8 842.4 303.9 842.4 303.3 842.4 304.1 842.4 303.1 842.4 302.2 842.4 303 842.4 302 842.4 303.1 842.4 304.5 842.4 303 842.4 302.7 842.4 301.9 842.5 302.7 842.5 301.4 842.5 301.1 842.5 300.5 842.5 299.7 842.5 298.5 842.5 297.3 842.5 297 842.5 296.2 842.5 295.9 842.5 294.4 842.5 293.9 842.5 293.6 842.5 292.1 842.5 292.9 842.5 291 842.5 290.7 842.5 290.1 842.5 288.6 842.5 288.1 842.6 287.8 842.6 289 842.6 289.4 842.6 290.2 842.6 288.9 842.6 288.3 842.6 289.1 842.6 288.1 842.6 289.2 842.6 289.7 842.6 290.5 842.6 292.2 842.6 291.9 842.6 291 842.7 291.8 842.7 293.6 842.7 294.4 842.7 296.1 842.8 294.9 842.8 294.4 842.8 293.8 842.8 293.2 842.8 294 842.8 292.1 842.8 291.8 842.8 290.9 842.8 290.6 842.8 289.8 842.8 289.2 842.9 288.6 842.9 288.4 842.9 287.5 842.9 286.3 842.9 287.1 842.9 285.2 842.9 285.9 842.9 284.9 842.9 284.4 842.9 282.9 842.9 281.7 842.9 282.5 842.9 280.6 842.9 280.3 843 278.8 843 278.2 843 277.1 843 275.9 843 275.3 843 274.1 843 273.9 843 272.4 843 273.2 843 272.2 843 271.3 843 270.1 843 270.9 843 272.6 843 271.4 843 270.3 843 270 843 268.5 843 268.2 843 267.7 843 266.8 843 266.5 843 266 843 265.4 843 264.8 843 263.3 843 262.2 843 262.9 843 261.9 843.1 261.3 843.1 260.8 843.1 259.3 843.1 260.1 843.1 259 843.1 260.2 843.1 261.6 843.1 260.7 843.1 260.4 843.1 259.9 843.1 259.3 843.1 258.7 843.1 259.9 843.1 261.2 843.1 259.7 843.1 259.5 843.1 258 843.1 258.8 843.2 257.7 843.2 257.2 843.2 258.3 843.2 258.8 843.2 258.5 843.2 259.7 843.2 260.1 843.2 259.8 843.2 259.3 843.2 258.7 843.3 257.8 843.3 256.7 843.3 257.4 843.3 259.2 843.3 258.9 843.3 260.1 843.3 258.4 843.3 257.8 843.3 257 843.3 256.7 843.3 256.1 843.3 254.6 843.3 255.4 843.4 254.1 843.4 253.5 843.4 253.3 843.4 251.8 843.4 252.6 843.5 254.3 843.5 254 843.6 253.1 843.6 252.6 843.7 252.3 843.7 253.4 843.8 251.8 843.9 252.9 843.9 254.3 843.9 255.4 843.9 255.9 843.9 256.7 844 258.4 844 257.8 844 257.3 844 258 844 259.8 844 259.2 844 258.6 844 258 844 257.5 844 256.9 844 256.6 844 255.1 844 254.6 844 253.4 844 252.2 844 251.9 844 251.4 844 250.8 844 249.3 844 248.7 844 248.5 844 247.6 844 247.3 844 246.5 844 246.2 844 244.7 844 244.1 844 243.6 844 243.3 844 242.7 844.1 241.2 844.1 240.7 844.1 240.1 844.1 240.9 844.1 242.6 844.1 242 844.1 242.8 844.1 240.9 844.1 240.6 844.2 241.8 844.2 243.2 844.2 241.7 844.2 240.5 844.2 239.9 844.2 239.7 844.2 238.2 844.2 237 844.2 237.8 844.2 239.5 844.2 238.9 844.2 238.7 844.2 238.1 844.2 237.5 844.2 236 844.2 235.8 844.2 234.3 844.3 234 844.3 232.5 844.3 232.3 844.3 231.7 844.3 230.2 844.3 231 844.3 229.1 844.3 228.8 844.3 228.2 844.3 229.4 844.3 227.7 844.3 227.1 844.3 225.6 844.3 224.5 844.4 225.2 844.4 224.2 844.4 223.6 844.4 224.8 844.4 226.2 844.4 227.3 844.4 224.7 844.4 225.5 844.4 227.3 844.5 227 844.5 226.1 844.5 224.9 844.5 224.7 844.5 224.1 844.5 223.2 844.5 222.7 844.5 221.5 844.5 222.2 844.5 220.3 844.5 219.8 844.5 219.2 844.5 220 844.5 218.9 844.5 218.4 844.5 217.5 844.5 217.2 844.5 216.4 844.5 216.1 844.6 217.3 844.6 214.7 844.6 214.1 844.6 214.9 844.6 216.6 844.6 215.4 844.6 214.9 844.6 214.6 844.6 215.8 844.6 216.2 844.6 215.9 844.6 214.5 844.6 213.3 844.6 213 844.6 212.1 844.6 212.9 844.7 211.6 844.7 211.3 844.7 210.5 844.7 209.3 844.7 208.7 844.7 208.2 844.7 207 844.7 206.4 844.7 205.8 844.7 206.6 844.8 204.7 844.8 204.1 844.8 204.9 844.8 203 844.8 202.7 844.8 202.1 844.8 201.5 844.8 201 844.8 199.5 844.8 199.2 844.8 200.4 844.8 200.9 844.9 200.6 844.9 199.1 844.9 198.5 844.9 198.2 844.9 199.4 844.9 200.8 844.9 199.3 844.9 199 844.9 198.4 844.9 197.9 844.9 197 844.9 196.7 844.9 195.2 845 194.7 845 195.4 845 193.5 845 194.3 845 192.4 845 191.8 845 191.5 845 190.9 845 190.1 845 188.9 845.1 189.7 845.1 191.4 845.1 192.2 845.1 190.9 845.1 190.6 845.1 191.8 845.1 193.1 845.1 191.6 845.1 191.3 845.1 189.9 845.2 190.6 845.2 189.3 845.2 188.8 845.2 187.6 845.2 188.4 845.2 190.1 845.2 189.5 845.2 188.9 845.2 189.7 845.2 188.7 845.2 188.1 845.3 187.6 845.3 186.7 845.3 186.1 845.3 184.9 845.3 185.7 845.3 183.8 845.4 183.2 845.4 184 845.4 183 845.4 182.4 845.4 181.8 845.4 181.2 845.4 180.7 845.4 181.8 845.4 180.2 845.4 179.3 845.4 178.1 845.4 177.8 845.4 177 845.4 176.4 845.5 177.2 845.5 178.9 845.5 179.7 845.6 178.4 845.6 179.2 845.6 177.9 845.6 176.7 845.6 176.4 845.6 175 845.6 175.8 845.6 177.5 845.6 176.9 845.6 177.7 845.7 176.4 845.7 175.8 845.7 176.6 845.7 178.3 845.7 177.8 845.7 177.2 845.7 178 845.7 176.7 845.7 177.4 845.7 176.4 845.7 177.6 845.8 178.1 845.8 177.5 845.8 176.9 845.8 176.6 845.8 177.8 845.8 175.2 845.8 174.9 845.8 174.1 845.8 173.5 845.8 172.3 845.8 173.1 845.8 172.1 845.8 171.5 845.8 170 845.8 169.5 845.8 170.2 845.8 168.3 845.8 167.1 845.9 167.9 845.9 166 845.9 166.8 845.9 165.8 845.9 164.3 845.9 164 845.9 163.4 845.9 162.9 845.9 162.3 845.9 160.8 845.9 161.6 845.9 160.6 845.9 161.7 845.9 160.1 845.9 159.2 845.9 158.6 846 159.4 846 158.4 846 157.5 846 156.3 846 157.1 846 155.2 846 154 846.1 153.4 846.1 152.9 846.1 152.6 846.1 153.8 846.1 151.2 846.1 152 846.1 150.9 846.1 152.1 846.1 153.4 846.1 154.6 846.1 156 846.1 155.4 846.1 154.8 846.2 154.3 846.2 153.7 846.2 153.1 846.2 154.3 846.2 152.6 846.2 152 846.2 153.2 846.2 154.5 846.2 155.7 846.3 154 846.3 153.2 846.3 152.9 846.3 152 846.3 151.4 846.3 152.2 846.3 151.2 846.3 150.6 846.3 149.2 846.3 149.9 846.3 148 846.3 146.8 846.3 147.6 846.3 146.3 846.3 145.7 846.4 145.2 846.4 145.9 846.4 147.7 846.4 147.4 846.4 146.5 846.4 146.2 846.4 147.4 846.4 145.7 846.4 145.2 846.4 144.3 846.5 143.1 846.5 141.9 846.5 142.7 846.5 144.4 846.5 144.2 846.5 143.6 846.5 142.1 846.5 142.9 846.5 141.9 846.5 143 846.5 141.4 846.6 140.5 846.6 139.9 846.6 138.8 846.6 138.5 846.6 139.7 846.6 141 846.6 140.2 846.6 139 846.6 138.7 846.7 139.9 846.7 140.3 846.7 141.1 846.7 142.8 846.7 142.3 846.7 141.7 846.7 141.4 846.7 139.9 846.7 140.7 846.7 139.4 846.7 140.2 846.7 138.9 846.8 138.6 846.8 139.8 846.8 138.1 846.8 137.5 846.8 138.7 846.8 139.2 846.8 138.6 846.8 139.4 846.9 141.1 846.9 141.9 846.9 140.9 846.9 142 846.9 140.3 846.9 141.5 846.9 142 846.9 140.8 846.9 140.5 846.9 139.9 846.9 139.4 846.9 140.5 847 141.9 847 143.1 847 144.4 847 145.6 847 146.9 847 148.1 847 149.5 847.1 148.6 847.1 149.4 847.2 148.1 847.2 147.8 847.3 149 847.3 150.3 847.3 148.9 847.4 148.6 847.4 147.1 847.5 146.5 847.5 147.3 847.5 145.4 847.6 144.8 847.6 144.2 847.6 145 847.7 144 847.7 143.1 847.7 143.9 847.8 145.7 847.9 145.4 847.9 144.8 848.1 146 848.3 144.3 848.3 143.7 848.3 143.1 848.3 142.6 848.3 141.1 848.6 141.9 848.6 140.6 848.6 141.4 848.7 140.3 848.8 141.5 848.9 138.9 848.9 139.7 849 138.4 849 137.2 849 138 849 136.7 849.2 136.4 849.2 135.9 849.3 135.3 849.4 134.7 849.4 133.9 849.5 134.6 849.6 133.6 849.7 134.8 849.8 136.1 849.9 135.3 850 135 850.1 136.2 850.2 134.5 850.2 135.7 850.2 133.1 850.3 133.8 850.3 132.8 850.3 131.3 850.3 131.1 850.4 129.6 850.4 130.4 850.4 128.5 850.7 129.2 850.7 128.2 850.7 127.4 851 128.1 851.1 126.8 851.1 125.7 851.2 126.4 851.3 128.2 851.4 129 851.5 127 851.5 127.8 851.5 126.5 851.5 126.2 851.5 125.4 851.5 126.2 851.5 127.9 851.5 126.7 851.5 126.2 851.5 125.6 851.5 126.4 851.7 125.1 851.7 124.5 851.7 124.2 851.7 125.4 851.7 126.7 851.7 126.2 851.8 124.7 851.8 124.4 851.8 123.6 851.8 123 851.8 122.4 851.8 121.8 851.8 122.6 851.8 121.6 851.9 120.7 852 119.6 852 120.3 852.2 122.1 852.6 122.8 852.6 121.8 852.6 123 852.6 121.3 852.7 122.5 852.8 123.8 852.9 125 852.9 122.4 852.9 122.1 852.9 121.6 852.9 122.7 852.9 124.1 853.1 125.2 853.1 122.7 853.1 123.4 853.1 122.4 853.1 123.6 853.1 124.9 853.2 126.1 853.2 127.5 853.2 126 853.2 125.7 853.2 124.9 853.2 124.3 853.2 123.7 853.2 124.5 853.2 123.5 853.2 122.6 853.2 122.3 853.3 121.4 853.3 121.2 853.3 120.3 853.4 120 853.4 119.5 853.4 118.9 853.4 118 853.4 117.7 853.4 118.9 853.4 120.2 853.4 118.8 853.5 118.2 853.5 119 853.5 118 853.5 119.1 853.5 120.5 853.6 119 853.6 119.8 853.6 117.9 853.6 117.3 853.8 116.7 853.8 116.1 853.8 116.9 854 118.7 854.1 119.4 854.2 121.2 854.2 122 854.3 120.9 854.3 120.4 854.4 121.5 854.4 122.9 854.4 121.4 854.4 120.8 854.5 121.6 854.5 120.3 854.5 121.1 854.5 120.1 854.5 119.2 854.5 120 854.5 118.7 854.5 119.5 854.6 121.2 854.6 122 854.6 123.7 854.6 122.5 854.6 122.3 854.7 123.4 854.7 124.8 854.8 123.3 854.8 124.1 854.8 123.1 854.8 122.2 854.9 121.6 854.9 122.4 854.9 124.1 855 124.9 855 123.6 855 124.4 855 123.4 855 124.5 855 125.9 855.1 125.3 855.1 124.8 855.1 123.3 855.1 122.7 855.2 122.1 855.2 121.6 855.2 121.3 855.2 122.4 855.2 123.8 855.2 122.3 855.2 121.8 855.2 122.5 855.3 121.5 855.3 120.9 855.3 120.4 855.4 121.5 855.4 119.8 855.4 121 855.4 119.3 855.4 120.5 855.4 121.9 855.5 120.4 855.5 121.2 855.5 122.9 855.5 123.7 855.5 125.4 855.6 125.1 855.6 126.3 855.6 127.7 855.6 126.8 855.6 125.6 855.6 125 855.6 124.5 855.6 125.2 855.7 123.3 855.7 122.8 855.7 122.2 855.7 122.9 855.8 121.9 855.8 121.4 855.8 122.5 855.9 123 855.9 123.7 855.9 122.4 855.9 123.2 855.9 122.2 856 120.7 856 121.5 856 123.3 856.1 122.1 856.2 122.9 856.2 124.6 856.2 125.4 856.2 127.1 856.2 127.9 856.3 129.7 856.3 130.4 856.3 132.2 856.4 133 856.4 132 856.4 131.4 856.4 130.8 856.5 132 856.5 132.4 856.5 133.2 856.5 131.9 856.5 131.6 856.6 130.2 856.6 130.9 856.7 132.7 856.7 133.5 856.7 135.2 856.8 136 856.8 137.7 856.8 136.6 856.8 136.3 856.9 137.4 856.9 137.9 857 138.7 857 140.4 857 140.1 857 141.3 857 142.7 857 143.8 857.1 142.1 857.1 140.7 857.1 140.1 857.2 139.8 857.2 139.2 857.2 138.4 857.3 139.1 857.3 137.8 857.3 138.6 857.3 136.7 857.4 136.1 857.4 135.8 857.4 137 857.6 137.4 857.6 136.9 857.6 137.6 857.6 139.4 857.6 140.1 857.7 139.1 857.8 138.3 857.8 137.7 857.9 136.5 857.9 136.2 857.9 137.4 857.9 137.9 857.9 137.6 857.9 136.7 857.9 135.5 858 135.3 858 136.4 858 137.8 858 136.9 858 136.4 858 137.1 858 135.8 858 136.6 858 134.7 858 135.5 858 137.2 858 136.1 858 136.8 858 135.8 858 137 858 138.3 858 137.5 858 136.9 858 137.6 858.1 136.4 858.1 135.2 858.1 134 858.1 133.7 858.1 132.2 858.1 131.7 858.1 131.1 858.1 130.5 858.1 129.9 858.1 130.7 858.1 132.5 858.1 133.2 858.1 135 858.1 135.8 858.1 137.5 858.2 138.3 858.3 137 858.3 135.8 858.3 134.6 858.3 133.5 858.3 134.2 858.3 133.2 858.3 132.3 858.3 133.1 858.3 131.8 858.3 132.6 858.3 134.3 858.3 135.1 858.3 136.8 858.4 137.6 858.4 135.7 858.5 134.5 858.5 134.2 858.5 133.4 858.5 132.8 858.5 133.6 858.5 131.7 858.5 131.4 858.5 129.9 858.5 129.3 858.6 128.8 858.6 129.5 858.6 128.2 858.6 127.7 858.8 128.4 858.9 127.4 858.9 128.6 859 130 859 129.1 859 128.5 859 129.3 859 128.3 859.1 127.7 859.2 128.9 859.4 129.3 859.5 130.1 859.5 129.1 859.6 127.6 859.6 127 859.7 126.8 859.7 126.2 859.7 124.7 859.7 125.5 859.7 127.2 859.8 128 859.9 126.7 859.9 127.5 859.9 129.3 859.9 130 860.1 128.1 860.1 127.8 860.2 129 860.3 130.3 860.3 131.5 860.4 132.9 860.6 134 860.7 135.4 860.8 136.5 860.9 137 860.9 137.7 861.1 136.7 861.2 137.9 861.6 135.3 861.7 136.1 861.8 134.2 862 133 862 132.7 862 131.9 862 131.3 862.1 132.1 862.6 133.8 862.8 133.2 863 134 863 135.8 863.2 135.2 863.2 136 863.4 134.1 863.4 134.8 863.4 136.6 863.5 135.4 863.5 134.8 863.5 135.6 863.6 134.6 863.8 133.7 863.9 134.5 864 136.2 864.1 137 865 138.7 865 139.5 865.4 138.5 865.5 139.7 865.5 140.1 865.7 139.5 865.8 138.3 865.9 137.8 865.9 137.2 865.9 138 865.9 136.1 865.9 135.5 865.9 134.3 865.9 135.1 865.9 136.8 865.9 137.6 865.9 139.3 865.9 140.1 865.9 141.9 865.9 142.6 865.9 144.4 865.9 144.1 865.9 145.3 865.9 145.7 865.9 145.4 865.9 146.6 865.9 148 865.9 149.1 865.9 150.5 865.9 151.6 865.9 153 865.9 152.4 865.9 153.6 866 154 866 154.8 866 156.6 866 156.3 866 157.4 866.1 157.9 866.1 157.6 866.1 158.8 866.2 157.1 866.2 158.3 866.2 158.7 866.2 159.5 866.2 161.2 866.2 160.7 866.2 160.4 866.2 161.5 866.2 162.9 866.2 161.4 866.3 160.8 866.3 161.6 866.3 160.6 866.3 159.1 866.3 158.8 866.4 158 866.4 158.8 866.4 156.8 866.4 156.3 866.5 157 866.5 158.8 866.5 158.5 866.5 157.9 866.5 157.4 866.6 156.8 866.6 155.9 866.7 155.4 866.7 156.1 866.7 157.9 866.9 157.3 866.9 157 866.9 158.2 866.9 159.5 866.9 160.7 867.1 158.1 867.2 158.9 867.2 157.6 867.3 158.4 867.4 156.5 867.5 157.2 867.5 159 867.6 159.7 867.8 158.7 868 159.9 868 161.2 868 162.4 868.2 160.7 868.2 159.9 868.3 160.6 868.5 162.4 868.6 163.1 868.7 161.8 868.7 160.7 868.7 161.4 868.8 160.1 868.9 159.9 869 161 869.4 161.5 869.4 162.3 869.4 164 869.6 164.8 869.6 166.5 869.9 166.2 870.1 167.4 870.3 167.9 870.5 168.7 870.8 167.6 871 166.8 871.2 167.6 871.7 166.3 871.8 165.7 872 166.5 872 168.2 872.9 169 873.2 167.1 873.8 166.8 874 167.9 874.3 168.4 874.3 169.2 874.4 170.9 874.4 171.7 874.5 170.4 874.5 169.8 875 169.6 875.1 168.7 875.2 168.4 875.2 169.6 875.2 170.1 875.3 169.5 875.8 168.9 876 168.3 876.6 167.2 876.9 166 877.7 164.8 877.8 165.6 877.9 164.3 878 163.7 878.6 164.5 878.7 163.5 878.7 164.6 878.7 165.1 878.8 164.8 879.4 164.3 879.8 165.4 880 166.8 880.1 166.2 880.1 167.3 881.1 165.7 881.2 165.1 881.4 164.2 881.8 164 882.1 165.1 883.2 162.5 883.2 163.3 883.6 165 883.7 165.8 884.3 164.5 884.5 165.3 884.6 164 884.6 163.4 885.1 164.2 886 162.9 886.4 162.3 888.4 163.1 888.5 164.9 888.6 165.7 890.5 163.7 890.5 164.5 891 166.2 891 167 891 165.7 891 165.1 891.1 165.9 891.3 164.9 891.4 166.1 891.5 167.4 891.5 165.9 891.6 165.4 892.2 164.2 892.5 165 892.5 166.7 893.9 166.4 894.1 167.6 896.4 168.1 896.4 167.8 896.4 167.2 896.5 166.4 897.4 165.8 897.4 164.6 898.1 165.4 898.1 167.1 898.2 166.9 899 168 899.5 169.4 900.1 170.5 900.3 171.9 900.4 171 900.4 171.8 900.4 173.5 900.4 172.4 900.6 172.1 900.9 173.2 902.2 173.7 903.3 172.5 903.8 173.3 905 171.4 905 170.8 905 170.2 905 169 905 169.8 905 171.6 905 171 907.9 170.7 912.8 169.8 913.7 170.6 915.8 169.6 917.3 170.7 920.4 171.2 925.5 170.9 928.9 169.4 930.7 168.9 931.2 169.6 932.9 167.7 933.5 168.5 933.5 468"/><polyline fill="none" stroke="#16a34a" stroke-linejoin="round" stroke-width="2" points="95.7 427.5 98.6 426.4 112 427.1 144.7 426.1 168.5 425.6 201.4 424.7 213.5 424.4 227.1 423.5 252.3 423.3 288.1 424.4 307.9 422.8 311.8 421.9 314 422.7 314.8 421.7 317.6 422.8 324.3 420.2 333.7 421 362.3 420 374.8 419.1 402.6 418.9 454.9 417.4 489.5 416.8 506 416.5 512.8 417.7 554.6 418.2 560 417.9 608.3 417.3 615.5 415.8 623.1 415.6 631.3 415 631.7 416.1 633 417.5 634.2 418.7 635.9 419.1 643.5 419.9 653.2 418 658.9 418.7 663.9 420.5 681.2 419.9 698.1 419.3 713.2 420.1 771.3 421.9 773.4 421.3 773.6 422.1 789.2 421 810.2 422.2 822.4 420.5 824 419 824.8 418.5 824.9 418.2 825 417.3 826.1 418.1 826.4 419.8 826.5 420.6 826.7 419.3 826.9 420.1 827.5 418.2 827.9 417.6 829.2 418.4 831.8 417.4 834.2 418.5 834.6 416.8 834.8 416.3 835 415.7 835.1 414.8 835.4 414.5 835.4 415.7 835.5 414 835.6 413.4 835.6 412.9 835.6 414 835.7 412.3 835.7 413.5 835.7 414.9 835.8 414.3 836 413.7 836.4 414.9 836.5 415.3 836.5 416.1 836.6 415.1 836.7 413.6 836.8 413.3 836.9 412.5 836.9 411.9 837 410.7 837.1 409.5 837.1 410.3 837.1 409.3 837.2 410.5 837.4 408.8 837.4 407.3 837.5 407 837.6 405.6 837.6 405.3 837.7 406.4 837.7 403.9 837.7 403.6 837.7 403 837.7 404.2 837.8 405.6 837.8 405 837.8 406.2 837.8 404.5 837.9 403.9 837.9 403 837.9 402.8 837.9 401.3 838 402.1 838 403.8 838 403.2 838.1 404 838.1 405.8 838.1 406.5 838.2 404.6 838.2 403.4 838.2 402.9 838.2 403.6 838.2 405.4 838.3 404.2 838.3 403.6 838.4 403.3 838.4 404.5 838.4 402.8 838.5 401.4 838.5 400.8 838.5 401.5 838.5 403.3 838.5 402.7 838.5 403.5 838.5 405.2 838.5 406 838.6 405 838.6 406.1 838.6 407.5 838.6 408.6 838.6 410 838.6 411.2 838.6 412.5 838.6 413.7 838.7 411.1 838.7 410.5 838.7 410.2 838.7 408.8 838.8 408.2 838.8 408.9 838.8 410.7 838.8 411.5 838.8 413.2 838.8 414 838.8 415.7 838.8 416.5 838.8 415.2 838.8 414.9 838.8 414.1 838.8 412.9 838.8 413.7 838.8 412.7 838.8 411.2 838.8 410.9 838.8 412.1 838.9 409.5 838.9 410.3 838.9 412 838.9 411.7 838.9 411.1 838.9 412.3 838.9 412.7 838.9 413.5 838.9 415.3 838.9 416.1 838.9 414.8 838.9 415.5 838.9 417.3 838.9 418 838.9 419.8 839 420.6 839 422.3 839 422 839 421.5 839 420.6 839 421.4 839.1 420.1 839.1 419.5 839.1 419.2 839.1 420.4 839.1 421.8 839.1 422.9 839.1 423.4 839.1 424.2 839.2 422.9 839.2 423.6 839.2 425.4 839.2 426.2 839.2 424.9 839.2 423.7 839.2 424.5 839.2 423.2 839.2 422.6 839.2 423.4 839.2 422.4 839.2 423.5 839.2 424.9 839.2 424 839.2 423.4 839.2 424.2 839.2 423.2 839.2 422.6 839.3 422 839.3 421.2 839.3 422 839.3 420.9 839.3 420.1 839.3 420.9 839.3 419.6 839.3 420.3 839.3 419.3 839.3 417.8 839.3 418.6 839.3 417.6 839.3 418.8 839.3 420.1 839.3 421.3 839.3 422.6 839.3 421.8 839.3 421.2 839.3 420.6 839.3 420.3 839.3 419.5 839.4 418.9 839.4 419.7 839.4 417.8 839.4 416.6 839.4 415.4 839.4 414.2 839.4 413.9 839.4 413.4 839.4 412.5 839.4 412.2 839.4 411.4 839.4 410.8 839.4 410.5 839.4 409 839.4 408.5 839.4 407.3 839.4 406.1 839.4 405.8 839.4 405.3 839.4 404.7 839.4 404.1 839.4 403.5 839.4 402.1 839.4 401.8 839.4 402.9 839.4 403.4 839.4 402.8 839.4 402.2 839.4 401.7 839.4 401.1 839.4 399.9 839.4 399.4 839.4 398.8 839.4 397.6 839.4 397.3 839.4 398.5 839.4 396.8 839.4 395.3 839.4 394.1 839.5 394.9 839.5 393.6 839.5 393.1 839.5 393.8 839.5 392.5 839.5 393.3 839.5 395 839.5 395.8 839.5 397.5 839.5 398.3 839.5 397 839.5 397.8 839.5 399.5 839.5 399 839.5 398.4 839.5 397.8 839.5 397.5 839.5 398.7 839.5 396.1 839.5 396.9 839.5 395.6 839.5 394.4 839.6 395.2 839.6 393.3 839.6 392.7 839.6 392.1 839.6 392.9 839.6 391.9 839.6 390.4 839.6 391.2 839.6 389.3 839.6 390 839.7 391.8 839.7 391.5 839.7 392.7 839.7 394 839.7 395.2 839.7 395.6 839.8 394.5 839.8 393.9 839.8 392.7 839.8 392.4 839.8 391.9 839.8 393 839.8 394.4 839.8 393.8 839.8 395 839.9 396.3 839.9 397.5 839.9 394.9 839.9 395.7 839.9 393.8 839.9 393.5 839.9 394.6 839.9 396 839.9 395.1 839.9 395.9 839.9 394.9 839.9 396 839.9 393.5 839.9 394.2 839.9 393.2 839.9 394.4 839.9 395.8 839.9 395.2 839.9 394.6 839.9 394 839.9 393.5 839.9 394.6 840 396 840 397.1 840 398.5 840 399.7 840 398 840 397.4 840 395.9 840 395.4 840 394.8 840 394.2 840 393.9 840 393.1 840 392.8 840 392.2 840 391.6 840 390.2 840 390.9 840 389 840 388.7 840.1 388.2 840.1 387.6 840.1 388.7 840.1 390.1 840.1 389.5 840.1 388.9 840.1 387.5 840.1 386.9 840.1 385.7 840.1 385.4 840.1 386.6 840.1 384.9 840.1 383.4 840.1 382.3 840.1 383 840.1 384.8 840.1 385.6 840.1 387.3 840.1 386.7 840.1 386.2 840.1 385.9 840.1 387.1 840.1 385.4 840.1 384.8 840.1 383.9 840.2 383.4 840.2 384.1 840.2 385.9 840.2 385.6 840.2 385 840.2 383.6 840.2 382.4 840.2 382.1 840.2 381.5 840.2 380.1 840.2 380.8 840.2 382.6 840.2 383.4 840.3 385.1 840.3 385.9 840.3 387.6 840.3 388.4 840.3 390.2 840.3 390.9 840.3 389.9 840.3 389.1 840.3 389.8 840.3 388.8 840.3 388.2 840.3 387.4 840.3 386.8 840.3 386.2 840.3 387 840.3 385.7 840.3 385.4 840.4 386.6 840.4 388 840.4 389.1 840.4 390.5 840.4 391.6 840.4 389.1 840.4 389.9 840.4 387.9 840.4 387.7 840.4 386.2 840.4 385.9 840.4 385.3 840.4 383.8 840.4 384.6 840.4 382.7 840.4 382.1 840.4 380.9 840.4 381.7 840.4 383.5 840.4 384.2 840.4 386 840.5 386.8 840.5 388.5 840.5 387.9 840.5 387.6 840.5 386.2 840.5 386.9 840.5 388.7 840.5 387.5 840.6 388.3 840.6 387.3 840.6 386.7 840.6 385.2 840.6 384.7 840.6 384.4 840.6 383.8 840.6 382.9 840.6 381.8 840.6 381.2 840.6 380.9 840.6 380.3 840.6 379.5 840.6 378.9 840.6 378.3 840.6 377.8 840.6 377.2 840.6 376.6 840.6 376 840.6 374.9 840.6 374.3 840.7 373.1 840.7 372.5 840.7 372 840.7 371.4 840.7 371.1 840.7 370.5 840.7 369.7 840.7 369.1 840.7 368.5 840.7 367.4 840.7 367.1 840.7 368.2 840.7 368.7 840.8 369.5 840.8 368.2 840.8 367.6 840.8 367 840.8 367.8 840.8 366.8 840.8 367.9 840.8 368.4 840.8 368.1 840.8 369.3 840.8 369.7 840.8 369.5 840.8 370.6 840.9 371.1 840.9 369.9 840.9 368.7 840.9 368.4 840.9 367.9 840.9 366.4 840.9 366.1 840.9 364.6 840.9 363.5 841 364.2 841 362.9 841 361.8 841 362.5 841 361.5 841 360.1 841 359.8 841.1 358.3 841.1 358 841.1 357.5 841.1 356 841.1 355.4 841.1 354.2 841.1 353.7 841.1 353.4 841.1 352.8 841.1 354 841.1 355.3 841.1 354.8 841.1 354.2 841.1 353.3 841.1 354.1 841.2 353.1 841.2 352.5 841.2 351.6 841.2 351.1 841.2 350.8 841.2 349.3 841.2 350.1 841.2 348.8 841.2 348.5 841.2 347.1 841.2 346.5 841.2 345.3 841.2 344.1 841.2 344.9 841.2 343.6 841.2 343 841.2 342.8 841.2 343.9 841.2 345.3 841.2 346.4 841.2 344.8 841.2 344.2 841.2 342.7 841.2 342.4 841.2 341 841.2 339.8 841.3 340.6 841.3 338.6 841.3 338.1 841.3 337.8 841.3 336.3 841.3 335.8 841.3 336.5 841.3 335.5 841.3 336.7 841.3 335 841.3 336.1 841.3 333.6 841.3 333.3 841.3 331.8 841.3 332.6 841.3 331.6 841.3 332.7 841.3 331.1 841.3 330.2 841.3 331 841.3 332.7 841.3 331.6 841.3 331.3 841.3 330.7 841.4 331.9 841.4 329.3 841.4 328.7 841.4 327.5 841.4 327 841.4 326.7 841.4 325.2 841.4 326 841.4 327.7 841.4 327.2 841.4 326.6 841.4 327.4 841.4 329.1 841.4 328.8 841.5 328.2 841.5 327.7 841.5 328.8 841.5 326.2 841.5 325.7 841.5 324.5 841.5 323.9 841.5 323.4 841.5 322.8 841.5 321.6 841.5 322.4 841.5 321.4 841.5 319.9 841.6 320.7 841.6 322.4 841.6 321.8 841.6 321.5 841.6 320.1 841.6 320.8 841.6 319.8 841.6 321 841.6 322.4 841.6 323.5 841.7 324 841.7 324.8 841.7 326.5 841.7 327.3 841.7 329 841.7 328.4 841.7 328.2 841.7 327.6 841.7 326.1 841.7 325.5 841.8 326.3 841.8 328.1 841.8 328.8 841.9 326.9 841.9 327.7 841.9 325.8 841.9 325.5 841.9 326.7 841.9 324.1 841.9 323.8 841.9 324.9 841.9 323.3 841.9 322.7 841.9 322.1 841.9 321.3 841.9 320.7 841.9 319.5 841.9 318.9 842 318.4 842 317.8 842 318.6 842 320.3 842 319.2 842 318 842 317.4 842 316.2 842 315.9 842 317.1 842 318.4 842 317.9 842 319 842 319.5 842.1 320.3 842.1 322 842.1 322.8 842.1 321.5 842.1 322.3 842.1 320.4 842.1 320.1 842.1 321.2 842.1 318.7 842.1 318.1 842.2 318.9 842.2 317.6 842.2 318.4 842.2 320.1 842.2 320.9 842.2 322.6 842.2 322.3 842.2 323.5 842.2 321.8 842.2 320.3 842.3 319.8 842.3 319.2 842.3 318.9 842.3 318 842.3 317.5 842.3 318.2 842.3 316.3 842.3 316 842.3 315.5 842.3 314.9 842.3 314.3 842.3 313.8 842.3 313.2 842.3 312.6 842.3 311.7 842.3 311.2 842.3 310 842.3 309.4 842.4 309.1 842.4 307.7 842.4 307.1 842.4 306.5 842.4 305.9 842.4 305.4 842.4 306.1 842.4 307.9 842.4 308.7 842.4 306.8 842.4 307.5 842.4 306.5 842.4 305 842.4 304.8 842.4 303.9 842.4 303.3 842.4 304.1 842.4 303.1 842.4 302.2 842.4 303 842.4 302 842.4 303.1 842.4 304.5 842.4 303 842.4 302.7 842.4 301.9 842.5 302.7 842.5 301.4 842.5 301.1 842.5 300.5 842.5 299.7 842.5 298.5 842.5 297.3 842.5 297 842.5 296.2 842.5 295.9 842.5 294.4 842.5 293.9 842.5 293.6 842.5 292.1 842.5 292.9 842.5 291 842.5 290.7 842.5 290.1 842.5 288.6 842.5 288.1 842.6 287.8 842.6 289 842.6 289.4 842.6 290.2 842.6 288.9 842.6 288.3 842.6 289.1 842.6 288.1 842.6 289.2 842.6 289.7 842.6 290.5 842.6 292.2 842.6 291.9 842.6 291 842.7 291.8 842.7 293.6 842.7 294.4 842.7 296.1 842.8 294.9 842.8 294.4 842.8 293.8 842.8 293.2 842.8 294 842.8 292.1 842.8 291.8 842.8 290.9 842.8 290.6 842.8 289.8 842.8 289.2 842.9 288.6 842.9 288.4 842.9 287.5 842.9 286.3 842.9 287.1 842.9 285.2 842.9 285.9 842.9 284.9 842.9 284.4 842.9 282.9 842.9 281.7 842.9 282.5 842.9 280.6 842.9 280.3 843 278.8 843 278.2 843 277.1 843 275.9 843 275.3 843 274.1 843 273.9 843 272.4 843 273.2 843 272.2 843 271.3 843 270.1 843 270.9 843 272.6 843 271.4 843 270.3 843 270 843 268.5 843 268.2 843 267.7 843 266.8 843 266.5 843 266 843 265.4 843 264.8 843 263.3 843 262.2 843 262.9 843 261.9 843.1 261.3 843.1 260.8 843.1 259.3 843.1 260.1 843.1 259 843.1 260.2 843.1 261.6 843.1 260.7 843.1 260.4 843.1 259.9 843.1 259.3 843.1 258.7 843.1 259.9 843.1 261.2 843.1 259.7 843.1 259.5 843.1 258 843.1 258.8 843.2 257.7 843.2 257.2 843.2 258.3 843.2 258.8 843.2 258.5 843.2 259.7 843.2 260.1 843.2 259.8 843.2 259.3 843.2 258.7 843.3 257.8 843.3 256.7 843.3 257.4 843.3 259.2 843.3 258.9 843.3 260.1 843.3 258.4 843.3 257.8 843.3 257 843.3 256.7 843.3 256.1 843.3 254.6 843.3 255.4 843.4 254.1 843.4 253.5 843.4 253.3 843.4 251.8 843.4 252.6 843.5 254.3 843.5 254 843.6 253.1 843.6 252.6 843.7 252.3 843.7 253.4 843.8 251.8 843.9 252.9 843.9 254.3 843.9 255.4 843.9 255.9 843.9 256.7 844 258.4 844 257.8 844 257.3 844 258 844 259.8 844 259.2 844 258.6 844 258 844 257.5 844 256.9 844 256.6 844 255.1 844 254.6 844 253.4 844 252.2 844 251.9 844 251.4 844 250.8 844 249.3 844 248.7 844 248.5 844 247.6 844 247.3 844 246.5 844 246.2 844 244.7 844 244.1 844 243.6 844 243.3 844 242.7 844.1 241.2 844.1 240.7 844.1 240.1 844.1 240.9 844.1 242.6 844.1 242 844.1 242.8 844.1 240.9 844.1 240.6 844.2 241.8 844.2 243.2 844.2 241.7 844.2 240.5 844.2 239.9 844.2 239.7 844.2 238.2 844.2 237 844.2 237.8 844.2 239.5 844.2 238.9 844.2 238.7 844.2 238.1 844.2 237.5 844.2 236 844.2 235.8 844.2 234.3 844.3 234 844.3 232.5 844.3 232.3 844.3 231.7 844.3 230.2 844.3 231 844.3 229.1 844.3 228.8 844.3 228.2 844.3 229.4 844.3 227.7 844.3 227.1 844.3 225.6 844.3 224.5 844.4 225.2 844.4 224.2 844.4 223.6 844.4 224.8 844.4 226.2 844.4 227.3 844.4 224.7 844.4 225.5 844.4 227.3 844.5 227 844.5 226.1 844.5 224.9 844.5 224.7 844.5 224.1 844.5 223.2 844.5 222.7 844.5 221.5 844.5 222.2 844.5 220.3 844.5 219.8 844.5 219.2 844.5 220 844.5 218.9 844.5 218.4 844.5 217.5 844.5 217.2 844.5 216.4 844.5 216.1 844.6 217.3 844.6 214.7 844.6 214.1 844.6 214.9 844.6 216.6 844.6 215.4 844.6 214.9 844.6 214.6 844.6 215.8 844.6 216.2 844.6 215.9 844.6 214.5 844.6 213.3 844.6 213 844.6 212.1 844.6 212.9 844.7 211.6 844.7 211.3 844.7 210.5 844.7 209.3 844.7 208.7 844.7 208.2 844.7 207 844.7 206.4 844.7 205.8 844.7 206.6 844.8 204.7 844.8 204.1 844.8 204.9 844.8 203 844.8 202.7 844.8 202.1 844.8 201.5 844.8 201 844.8 199.5 844.8 199.2 844.8 200.4 844.8 200.9 844.9 200.6 844.9 199.1 844.9 198.5 844.9 198.2 844.9 199.4 844.9 200.8 844.9 199.3 844.9 199 844.9 198.4 844.9 197.9 844.9 197 844.9 196.7 844.9 195.2 845 194.7 845 195.4 845 193.5 845 194.3 845 192.4 845 191.8 845 191.5 845 190.9 845 190.1 845 188.9 845.1 189.7 845.1 191.4 845.1 192.2 845.1 190.9 845.1 190.6 845.1 191.8 845.1 193.1 845.1 191.6 845.1 191.3 845.1 189.9 845.2 190.6 845.2 189.3 845.2 188.8 845.2 187.6 845.2 188.4 845.2 190.1 845.2 189.5 845.2 188.9 845.2 189.7 845.2 188.7 845.2 188.1 845.3 187.6 845.3 186.7 845.3 186.1 845.3 184.9 845.3 185.7 845.3 183.8 845.4 183.2 845.4 184 845.4 183 845.4 182.4 845.4 181.8 845.4 181.2 845.4 180.7 845.4 181.8 845.4 180.2 845.4 179.3 845.4 178.1 845.4 177.8 845.4 177 845.4 176.4 845.5 177.2 845.5 178.9 845.5 179.7 845.6 178.4 845.6 179.2 845.6 177.9 845.6 176.7 845.6 176.4 845.6 175 845.6 175.8 845.6 177.5 845.6 176.9 845.6 177.7 845.7 176.4 845.7 175.8 845.7 176.6 845.7 178.3 845.7 177.8 845.7 177.2 845.7 178 845.7 176.7 845.7 177.4 845.7 176.4 845.7 177.6 845.8 178.1 845.8 177.5 845.8 176.9 845.8 176.6 845.8 177.8 845.8 175.2 845.8 174.9 845.8 174.1 845.8 173.5 845.8 172.3 845.8 173.1 845.8 172.1 845.8 171.5 845.8 170 845.8 169.5 845.8 170.2 845.8 168.3 845.8 167.1 845.9 167.9 845.9 166 845.9 166.8 845.9 165.8 845.9 164.3 845.9 164 845.9 163.4 845.9 162.9 845.9 162.3 845.9 160.8 845.9 161.6 845.9 160.6 845.9 161.7 845.9 160.1 845.9 159.2 845.9 158.6 846 159.4 846 158.4 846 157.5 846 156.3 846 157.1 846 155.2 846 154 846.1 153.4 846.1 152.9 846.1 152.6 846.1 153.8 846.1 151.2 846.1 152 846.1 150.9 846.1 152.1 846.1 153.4 846.1 154.6 846.1 156 846.1 155.4 846.1 154.8 846.2 154.3 846.2 153.7 846.2 153.1 846.2 154.3 846.2 152.6 846.2 152 846.2 153.2 846.2 154.5 846.2 155.7 846.3 154 846.3 153.2 846.3 152.9 846.3 152 846.3 151.4 846.3 152.2 846.3 151.2 846.3 150.6 846.3 149.2 846.3 149.9 846.3 148 846.3 146.8 846.3 147.6 846.3 146.3 846.3 145.7 846.4 145.2 846.4 145.9 846.4 147.7 846.4 147.4 846.4 146.5 846.4 146.2 846.4 147.4 846.4 145.7 846.4 145.2 846.4 144.3 846.5 143.1 846.5 141.9 846.5 142.7 846.5 144.4 846.5 144.2 846.5 143.6 846.5 142.1 846.5 142.9 846.5 141.9 846.5 143 846.5 141.4 846.6 140.5 846.6 139.9 846.6 138.8 846.6 138.5 846.6 139.7 846.6 141 846.6 140.2 846.6 139 846.6 138.7 846.7 139.9 846.7 140.3 846.7 141.1 846.7 142.8 846.7 142.3 846.7 141.7 846.7 141.4 846.7 139.9 846.7 140.7 846.7 139.4 846.7 140.2 846.7 138.9 846.8 138.6 846.8 139.8 846.8 138.1 846.8 137.5 846.8 138.7 846.8 139.2 846.8 138.6 846.8 139.4 846.9 141.1 846.9 141.9 846.9 140.9 846.9 142 846.9 140.3 846.9 141.5 846.9 142 846.9 140.8 846.9 140.5 846.9 139.9 846.9 139.4 846.9 140.5 847 141.9 847 143.1 847 144.4 847 145.6 847 146.9 847 148.1 847 149.5 847.1 148.6 847.1 149.4 847.2 148.1 847.2 147.8 847.3 149 847.3 150.3 847.3 148.9 847.4 148.6 847.4 147.1 847.5 146.5 847.5 147.3 847.5 145.4 847.6 144.8 847.6 144.2 847.6 145 847.7 144 847.7 143.1 847.7 143.9 847.8 145.7 847.9 145.4 847.9 144.8 848.1 146 848.3 144.3 848.3 143.7 848.3 143.1 848.3 142.6 848.3 141.1 848.6 141.9 848.6 140.6 848.6 141.4 848.7 140.3 848.8 141.5 848.9 138.9 848.9 139.7 849 138.4 849 137.2 849 138 849 136.7 849.2 136.4 849.2 135.9 849.3 135.3 849.4 134.7 849.4 133.9 849.5 134.6 849.6 133.6 849.7 134.8 849.8 136.1 849.9 135.3 850 135 850.1 136.2 850.2 134.5 850.2 135.7 850.2 133.1 850.3 133.8 850.3 132.8 850.3 131.3 850.3 131.1 850.4 129.6 850.4 130.4 850.4 128.5 850.7 129.2 850.7 128.2 850.7 127.4 851 128.1 851.1 126.8 851.1 125.7 851.2 126.4 851.3 128.2 851.4 129 851.5 127 851.5 127.8 851.5 126.5 851.5 126.2 851.5 125.4 851.5 126.2 851.5 127.9 851.5 126.7 851.5 126.2 851.5 125.6 851.5 126.4 851.7 125.1 851.7 124.5 851.7 124.2 851.7 125.4 851.7 126.7 851.7 126.2 851.8 124.7 851.8 124.4 851.8 123.6 851.8 123 851.8 122.4 851.8 121.8 851.8 122.6 851.8 121.6 851.9 120.7 852 119.6 852 120.3 852.2 122.1 852.6 122.8 852.6 121.8 852.6 123 852.6 121.3 852.7 122.5 852.8 123.8 852.9 125 852.9 122.4 852.9 122.1 852.9 121.6 852.9 122.7 852.9 124.1 853.1 125.2 853.1 122.7 853.1 123.4 853.1 122.4 853.1 123.6 853.1 124.9 853.2 126.1 853.2 127.5 853.2 126 853.2 125.7 853.2 124.9 853.2 124.3 853.2 123.7 853.2 124.5 853.2 123.5 853.2 122.6 853.2 122.3 853.3 121.4 853.3 121.2 853.3 120.3 853.4 120 853.4 119.5 853.4 118.9 853.4 118 853.4 117.7 853.4 118.9 853.4 120.2 853.4 118.8 853.5 118.2 853.5 119 853.5 118 853.5 119.1 853.5 120.5 853.6 119 853.6 119.8 853.6 117.9 853.6 117.3 853.8 116.7 853.8 116.1 853.8 116.9 854 118.7 854.1 119.4 854.2 121.2 854.2 122 854.3 120.9 854.3 120.4 854.4 121.5 854.4 122.9 854.4 121.4 854.4 120.8 854.5 121.6 854.5 120.3 854.5 121.1 854.5 120.1 854.5 119.2 854.5 120 854.5 118.7 854.5 119.5 854.6 121.2 854.6 122 854.6 123.7 854.6 122.5 854.6 122.3 854.7 123.4 854.7 124.8 854.8 123.3 854.8 124.1 854.8 123.1 854.8 122.2 854.9 121.6 854.9 122.4 854.9 124.1 855 124.9 855 123.6 855 124.4 855 123.4 855 124.5 855 125.9 855.1 125.3 855.1 124.8 855.1 123.3 855.1 122.7 855.2 122.1 855.2 121.6 855.2 121.3 855.2 122.4 855.2 123.8 855.2 122.3 855.2 121.8 855.2 122.5 855.3 121.5 855.3 120.9 855.3 120.4 855.4 121.5 855.4 119.8 855.4 121 855.4 119.3 855.4 120.5 855.4 121.9 855.5 120.4 855.5 121.2 855.5 122.9 855.5 123.7 855.5 125.4 855.6 125.1 855.6 126.3 855.6 127.7 855.6 126.8 855.6 125.6 855.6 125 855.6 124.5 855.6 125.2 855.7 123.3 855.7 122.8 855.7 122.2 855.7 122.9 855.8 121.9 855.8 121.4 855.8 122.5 855.9 123 855.9 123.7 855.9 122.4 855.9 123.2 855.9 122.2 856 120.7 856 121.5 856 123.3 856.1 122.1 856.2 122.9 856.2 124.6 856.2 125.4 856.2 127.1 856.2 127.9 856.3 129.7 856.3 130.4 856.3 132.2 856.4 133 856.4 132 856.4 131.4 856.4 130.8 856.5 132 856.5 132.4 856.5 133.2 856.5 131.9 856.5 131.6 856.6 130.2 856.6 130.9 856.7 132.7 856.7 133.5 856.7 135.2 856.8 136 856.8 137.7 856.8 136.6 856.8 136.3 856.9 137.4 856.9 137.9 857 138.7 857 140.4 857 140.1 857 141.3 857 142.7 857 143.8 857.1 142.1 857.1 140.7 857.1 140.1 857.2 139.8 857.2 139.2 857.2 138.4 857.3 139.1 857.3 137.8 857.3 138.6 857.3 136.7 857.4 136.1 857.4 135.8 857.4 137 857.6 137.4 857.6 136.9 857.6 137.6 857.6 139.4 857.6 140.1 857.7 139.1 857.8 138.3 857.8 137.7 857.9 136.5 857.9 136.2 857.9 137.4 857.9 137.9 857.9 137.6 857.9 136.7 857.9 135.5 858 135.3 858 136.4 858 137.8 858 136.9 858 136.4 858 137.1 858 135.8 858 136.6 858 134.7 858 135.5 858 137.2 858 136.1 858 136.8 858 135.8 858 137 858 138.3 858 137.5 858 136.9 858 137.6 858.1 136.4 858.1 135.2 858.1 134 858.1 133.7 858.1 132.2 858.1 131.7 858.1 131.1 858.1 130.5 858.1 129.9 858.1 130.7 858.1 132.5 858.1 133.2 858.1 135 858.1 135.8 858.1 137.5 858.2 138.3 858.3 137 858.3 135.8 858.3 134.6 858.3 133.5 858.3 134.2 858.3 133.2 858.3 132.3 858.3 133.1 858.3 131.8 858.3 132.6 858.3 134.3 858.3 135.1 858.3 136.8 858.4 137.6 858.4 135.7 858.5 134.5 858.5 134.2 858.5 133.4 858.5 132.8 858.5 133.6 858.5 131.7 858.5 131.4 858.5 129.9 858.5 129.3 858.6 128.8 858.6 129.5 858.6 128.2 858.6 127.7 858.8 128.4 858.9 127.4 858.9 128.6 859 130 859 129.1 859 128.5 859 129.3 859 128.3 859.1 127.7 859.2 128.9 859.4 129.3 859.5 130.1 859.5 129.1 859.6 127.6 859.6 127 859.7 126.8 859.7 126.2 859.7 124.7 859.7 125.5 859.7 127.2 859.8 128 859.9 126.7 859.9 127.5 859.9 129.3 859.9 130 860.1 128.1 860.1 127.8 860.2 129 860.3 130.3 860.3 131.5 860.4 132.9 860.6 134 860.7 135.4 860.8 136.5 860.9 137 860.9 137.7 861.1 136.7 861.2 137.9 861.6 135.3 861.7 136.1 861.8 134.2 862 133 862 132.7 862 131.9 862 131.3 862.1 132.1 862.6 133.8 862.8 133.2 863 134 863 135.8 863.2 135.2 863.2 136 863.4 134.1 863.4 134.8 863.4 136.6 863.5 135.4 863.5 134.8 863.5 135.6 863.6 134.6 863.8 133.7 863.9 134.5 864 136.2 864.1 137 865 138.7 865 139.5 865.4 138.5 865.5 139.7 865.5 140.1 865.7 139.5 865.8 138.3 865.9 137.8 865.9 137.2 865.9 138 865.9 136.1 865.9 135.5 865.9 134.3 865.9 135.1 865.9 136.8 865.9 137.6 865.9 139.3 865.9 140.1 865.9 141.9 865.9 142.6 865.9 144.4 865.9 144.1 865.9 145.3 865.9 145.7 865.9 145.4 865.9 146.6 865.9 148 865.9 149.1 865.9 150.5 865.9 151.6 865.9 153 865.9 152.4 865.9 153.6 866 154 866 154.8 866 156.6 866 156.3 866 157.4 866.1 157.9 866.1 157.6 866.1 158.8 866.2 157.1 866.2 158.3 866.2 158.7 866.2 159.5 866.2 161.2 866.2 160.7 866.2 160.4 866.2 161.5 866.2 162.9 866.2 161.4 866.3 160.8 866.3 161.6 866.3 160.6 866.3 159.1 866.3 158.8 866.4 158 866.4 158.8 866.4 156.8 866.4 156.3 866.5 157 866.5 158.8 866.5 158.5 866.5 157.9 866.5 157.4 866.6 156.8 866.6 155.9 866.7 155.4 866.7 156.1 866.7 157.9 866.9 157.3 866.9 157 866.9 158.2 866.9 159.5 866.9 160.7 867.1 158.1 867.2 158.9 867.2 157.6 867.3 158.4 867.4 156.5 867.5 157.2 867.5 159 867.6 159.7 867.8 158.7 868 159.9 868 161.2 868 162.4 868.2 160.7 868.2 159.9 868.3 160.6 868.5 162.4 868.6 163.1 868.7 161.8 868.7 160.7 868.7 161.4 868.8 160.1 868.9 159.9 869 161 869.4 161.5 869.4 162.3 869.4 164 869.6 164.8 869.6 166.5 869.9 166.2 870.1 167.4 870.3 167.9 870.5 168.7 870.8 167.6 871 166.8 871.2 167.6 871.7 166.3 871.8 165.7 872 166.5 872 168.2 872.9 169 873.2 167.1 873.8 166.8 874 167.9 874.3 168.4 874.3 169.2 874.4 170.9 874.4 171.7 874.5 170.4 874.5 169.8 875 169.6 875.1 168.7 875.2 168.4 875.2 169.6 875.2 170.1 875.3 169.5 875.8 168.9 876 168.3 876.6 167.2 876.9 166 877.7 164.8 877.8 165.6 877.9 164.3 878 163.7 878.6 164.5 878.7 163.5 878.7 164.6 878.7 165.1 878.8 164.8 879.4 164.3 879.8 165.4 880 166.8 880.1 166.2 880.1 167.3 881.1 165.7 881.2 165.1 881.4 164.2 881.8 164 882.1 165.1 883.2 162.5 883.2 163.3 883.6 165 883.7 165.8 884.3 164.5 884.5 165.3 884.6 164 884.6 163.4 885.1 164.2 886 162.9 886.4 162.3 888.4 163.1 888.5 164.9 888.6 165.7 890.5 163.7 890.5 164.5 891 166.2 891 167 891 165.7 891 165.1 891.1 165.9 891.3 164.9 891.4 166.1 891.5 167.4 891.5 165.9 891.6 165.4 892.2 164.2 892.5 165 892.5 166.7 893.9 166.4 894.1 167.6 896.4 168.1 896.4 167.8 896.4 167.2 896.5 166.4 897.4 165.8 897.4 164.6 898.1 165.4 898.1 167.1 898.2 166.9 899 168 899.5 169.4 900.1 170.5 900.3 171.9 900.4 171 900.4 171.8 900.4 173.5 900.4 172.4 900.6 172.1 900.9 173.2 902.2 173.7 903.3 172.5 903.8 173.3 905 171.4 905 170.8 905 170.2 905 169 905 169.8 905 171.6 905 171 907.9 170.7 912.8 169.8 913.7 170.6 915.8 169.6 917.3 170.7 920.4 171.2 925.5 170.9 928.9 169.4 930.7 168.9 931.2 169.6 932.9 167.7 933.5 168.5"/><line x1="88" x2="110" y1="102" y2="102" stroke="#16a34a" stroke-width="2.5"/><text x="116" y="106" fill="#374151" font-size="11.5">equity</text><line x1="88" x2="110" y1="118" y2="118" stroke="#d97706" stroke-width="2.5" opacity=".8"/><text x="116" y="122" fill="#374151" font-size="11.5">price</text><text x="78" y="502" fill="#6b7280" font-size="12" text-anchor="start">2025-10-10</text><text x="934" y="502" fill="#6b7280" font-size="12" text-anchor="end">2025-10-10</text></svg>