<svg xmlns="http://www.w3.org/2000/svg" width="1000" height="520" font-family="ui-sans-serif, system-ui, sans-serif" viewBox="0 0 1000 520"><rect width="1000" height="520" fill="#fff"/><text x="78" y="28" fill="#111827" font-size="18" font-weight="700">Zone Recovery — BCHUSDC best setting (equity / PnL)</text><text x="78" y="48" fill="#6b7280" font-size="12.5">lev 4 · ratio 2 · gap 20% · maxSteps 4 · maxDD 60% · random · vip 9 · 3 series, 100.0% win · vol $327827 ($10575/day) · fees $27.73</text><text x="78" y="68" fill="#1d4ed8" font-size="12.5" font-weight="600">USDC · BNB −10% · taker 0.0085%</text><text x="934" y="28" fill="#16a34a" font-size="18" font-weight="700" text-anchor="end">+5086 USDT (+50.86%)</text><line x1="78" x2="934" y1="468" y2="468" stroke="#e5e7eb" stroke-width="1"/><text x="68" y="472" fill="#6b7280" font-size="12" text-anchor="end">0.00</text><line x1="78" x2="934" y1="392" y2="392" stroke="#e5e7eb" stroke-width="1"/><text x="68" y="396" fill="#6b7280" font-size="12" text-anchor="end">3258</text><line x1="78" x2="934" y1="316" y2="316" stroke="#e5e7eb" stroke-width="1"/><text x="68" y="320" fill="#6b7280" font-size="12" text-anchor="end">6517</text><line x1="78" x2="934" y1="240" y2="240" stroke="#e5e7eb" stroke-width="1"/><text x="68" y="244" fill="#6b7280" font-size="12" text-anchor="end">9775</text><line x1="78" x2="934" y1="164" y2="164" stroke="#e5e7eb" stroke-width="1"/><text x="68" y="168" fill="#6b7280" font-size="12" text-anchor="end">13034</text><line x1="78" x2="934" y1="88" y2="88" stroke="#e5e7eb" stroke-width="1"/><text x="68" y="92" fill="#6b7280" font-size="12" text-anchor="end">16292</text><line x1="78" x2="934" y1="234.8" y2="234.8" stroke="#9ca3af" stroke-dasharray="6 4" stroke-width="1.5"/><text x="934" y="228.8" fill="#6b7280" font-size="11" text-anchor="end">start 10000</text><polyline fill="none" stroke="#d97706" stroke-linejoin="round" stroke-width="1.2" points="78 228.8 78.4 226.4 78.8 226.6 78.9 225.2 79 223.1 79 222.6 79.4 223.1 79.5 228.5 79.6 228.3 80.1 227.5 80.7 228 81.1 227.6 81.7 229.2 81.9 232.6 82.5 232.6 82.9 235.8 83.5 234.9 84 234.6 84.6 233 85.3 233.1 86.3 235.2 86.9 233.8 87.4 234.7 88 233.5 88.7 230.8 89.4 234.3 90.3 235 90.7 235.8 91 237.6 91.2 237.6 91.6 236.2 92 235.3 92.5 237.6 92.8 240.5 93.1 239 93.5 239.2 94 239.8 94.2 240.3 94.7 242.6 94.7 246.2 94.9 248.1 95.1 244.6 95.4 244.3 95.9 245 96.1 242.9 96.3 243.3 96.7 243.4 97.1 243.3 97.2 250.5 97.6 246.3 97.9 244.2 98.2 243.3 98.5 244.3 99 246.5 99.8 245.3 100.6 242.9 101 242.6 101.7 241.3 102.6 240.7 103.5 237.9 103.9 239.5 104.6 239.3 105.2 239 105.7 241 105.9 243 106.5 244.1 106.9 243.6 107.5 246.7 108.1 247.7 108.7 246.5 109.2 250 109.3 250.3 109.5 246.6 109.9 242.8 110.1 241 110.2 240.1 110.4 240.2 110.6 242.9 110.9 242.1 111.3 242.8 111.4 243.4 112 240.8 112.8 238.2 113.3 235.6 113.7 239.6 114.3 238.3 114.7 235.6 115.1 236.6 115.5 235.6 116.2 236.5 116.3 235.1 116.9 230.3 117 228.9 117.2 228.6 117.3 227 117.5 229.3 117.8 233.8 118.3 234.4 118.7 235.3 119.2 236.7 119.6 237.6 120.2 234.8 120.5 238.1 120.8 237.1 121.2 233.7 121.6 237.5 121.9 236.9 122.1 239.8 122.2 243.8 122.2 241.6 122.4 245.8 122.5 239.8 122.5 238 122.6 236.9 122.7 230.7 122.7 229.1 122.8 233.3 122.9 235.4 123 239.6 123.2 240.4 123.3 242.7 123.5 239.9 123.6 236.4 123.7 234.4 123.9 238.9 124.1 242 124.3 237.2 124.4 237.9 124.6 234.7 124.7 228.5 124.8 231.2 124.9 234 125 233.6 125.2 231.4 125.3 226 125.4 230.5 125.4 221.8 125.4 220.9 125.4 215.6 125.4 213.3 125.5 212.4 125.5 208.9 125.5 203.1 125.5 201.9 125.5 203.3 125.6 204.8 125.7 208.3 125.8 204.4 125.9 205.9 126 203.3 126 203.9 126.1 205.6 126.1 209.6 126.3 207.6 126.5 208 126.6 207.6 126.7 204.6 126.9 206.5 127.1 208.8 127.2 209.5 127.3 211 127.5 204.9 127.6 204 127.8 203.8 128.1 205.9 128.2 204.6 128.5 206.9 128.8 210.6 129.2 211.7 129.7 214.6 129.8 216.9 130.4 217.4 130.8 216.2 131 212.7 131.2 217.5 131.6 218.8 132 216.1 132.3 215.3 132.4 210.9 132.5 210.6 132.7 214.8 133.1 214.9 133.5 207.3 133.7 211 134.1 209.4 134.1 200.7 134.1 199.4 134.1 194.1 134.1 178.6 134.1 183.7 134.2 185.2 134.3 181.4 134.3 180.2 134.5 184.4 134.5 192.8 134.7 190.9 134.8 191.8 135 185.8 135 180.6 135 181.3 135 172.1 135.1 179.2 135.2 178.6 135.3 185.9 135.5 184.8 135.5 176.8 135.5 163.3 135.5 170.2 135.5 166.3 135.6 167.3 135.6 169.6 135.7 172 135.8 176.1 135.8 177.1 135.9 173.4 135.9 177.9 136.1 177.4 136.4 180.6 136.6 183.4 136.9 185.5 137.3 181.3 137.6 180.1 138.1 184.2 138.6 182.8 139.1 183.6 139.5 189.4 139.7 190.2 139.9 187.2 140.4 186.6 140.9 186.3 141.1 187 141.1 178.7 141.2 178.2 141.2 172.3 141.2 170 141.2 174.3 141.3 169.2 141.5 175.6 141.5 181.8 141.6 182.8 141.7 181.7 141.8 180.1 141.9 182.3 142 179.9 142.2 178.6 142.4 184.5 142.6 183.1 143 182.2 143.1 179.7 143.3 176.2 143.5 176.4 143.8 175.7 144.1 176.7 144.3 174.4 144.7 177.4 144.9 177.9 145.2 178.1 145.5 174.7 145.7 174 145.9 172.2 146.1 170.2 146.2 167.2 146.3 164 146.3 164 146.4 166.5 146.5 168 146.7 168.8 146.9 172.4 147.1 168.2 147.3 171 147.4 169 147.5 169.2 147.7 172.3 147.9 168.3 148.2 168.1 148.4 170.6 148.7 166.4 148.7 160.7 148.8 166.7 148.9 163.2 149.1 167.1 149.2 161.1 149.4 165.8 149.6 165.8 149.6 167.1 149.7 165 149.9 164.2 150 164.9 150.2 166.2 150.4 166.2 150.6 162.7 150.7 164.2 150.9 164.2 151.1 164.8 151.3 168 151.3 171.7 151.4 170.8 151.6 170.7 151.6 177.3 151.7 177.8 151.8 177.5 152 173.3 152.1 175.4 152.3 172.2 152.6 168.5 152.8 165.8 153 167.9 153.3 166.2 153.6 163.2 153.9 164.9 154.3 165.5 154.5 165.4 155.1 165.6 155.3 168.1 156 167.1 156.6 162.5 156.7 155.4 156.7 155.5 156.7 151 156.8 155.8 156.8 158.8 156.9 150.3 156.9 147 156.9 141.8 156.9 141.8 157 141.9 157 136.3 157 137.9 157 136.3 157.1 133 157.1 128.7 157.1 128.7 157.1 126.4 157.2 136.4 157.2 134.5 157.2 136.8 157.3 135.1 157.4 133.2 157.4 137.4 157.5 132.4 157.7 137.5 157.8 141.6 157.8 144.7 157.9 143.5 158 146.3 158 142.5 158.2 142.4 158.3 144.6 158.5 143.9 158.7 143.8 158.8 147.4 158.9 138.9 159 137.2 159.2 139 159.4 141.8 159.6 146.1 159.7 144.2 159.8 139.3 160 140.7 160.1 139.6 160.3 138.9 160.6 140.5 160.9 139.2 160.9 134.7 161 133.8 161 128.1 161.1 133.4 161.2 135.7 161.2 138.7 161.3 138.5 161.4 137.7 161.5 136.6 161.6 138.6 161.6 143.6 161.6 147.9 161.6 154 161.6 153.7 161.7 147 161.7 147.5 161.7 150.4 161.8 151.3 161.9 150.8 162 147.9 162.1 148.4 162.1 154.5 162.2 153.5 162.3 154.3 162.4 156.7 162.5 156.1 162.6 157.1 162.8 156.2 163.1 156.4 163.3 155 163.5 154.9 163.8 156.2 164.3 157.6 164.5 156.6 164.7 153.6 165 153.7 165.2 156.5 165.5 152.4 165.8 150.3 166 150.4 166.4 148.5 166.7 147.3 166.9 156.4 167 154.6 167.2 153.2 167.7 155.7 168 156.1 168.2 158.9 168.3 161 168.6 160.7 168.7 160.9 169.1 158.5 169.5 160.5 170.1 161.2 170.3 158.3 170.6 160.9 170.8 158.5 171.1 158 171.2 154 171.2 153.6 171.2 148.6 171.2 147.5 171.2 148.2 171.2 148.1 171.2 146.2 171.3 149.8 171.3 150.6 171.4 149.9 171.4 151.9 171.5 151.9 171.5 153.3 171.6 152.6 171.7 153.4 171.9 146.1 172 147.8 172 145.7 172.2 148 172.5 148.2 172.8 148.1 173 145 173.3 145.7 173.6 147.5 173.8 142 174.1 142.4 174.6 145.8 174.6 151 174.7 153.2 174.7 153.6 174.7 157.6 174.8 159.5 174.9 161.3 174.9 156.2 174.9 152.3 175 152.9 175.2 153.8 175.4 157.3 175.5 166.2 175.5 167.4 175.5 168.2 175.5 166.8 175.5 169.4 175.6 164.2 175.7 165 175.8 165.4 175.9 164 176.1 164.5 176.3 161.9 176.6 162 177 162.3 177.3 162.6 177.6 165 177.6 167.7 177.7 161.1 177.7 160.8 177.7 157.1 177.7 162.8 177.7 166.6 177.8 166.3 177.9 164.8 178 162 178 157.5 178 155.6 178.1 165.8 178.1 167.5 178.1 156.8 178.1 159.8 178.2 161.2 178.2 163.6 178.2 165.3 178.3 161.3 178.4 161.3 178.8 163.5 179.1 160.7 179.3 160.2 179.6 162.8 180 160.1 180.6 156.7 180.9 157.5 181.5 154.8 181.9 161.5 182.2 164 182.5 163 182.9 165.9 183.2 162.1 183.8 160.1 184.4 159.6 185 164.9 185.3 161.2 186.2 162.6 186.7 159.8 187.5 161.1 188 164.2 188.5 165.1 188.5 161.8 188.7 158 188.7 157.1 188.8 155.6 188.8 152.1 188.9 157 189 152.4 189.1 151.1 189.2 151.2 189.4 149 189.6 144.9 189.6 148.2 189.8 144.8 189.9 144.5 190 143.8 190.1 140.9 190.2 143.9 190.3 141.7 190.5 139.4 190.5 146.4 190.6 148.5 190.8 146.1 190.9 146.9 191.1 145.8 191.3 150.2 191.4 149.6 191.5 147.6 191.7 147.3 192 146.1 192.2 147.3 192.5 146.1 192.8 146.8 193.1 144.7 193.4 142.5 193.5 140.3 193.6 140.7 193.7 139 193.8 138.2 194 142.5 194.3 143.6 194.5 138 194.7 137.6 194.9 138.2 195 140.9 195.1 139.8 195.2 140 195.4 139.1 195.5 133.8 195.6 133.3 195.6 128.9 195.7 124.9 195.7 121.9 195.7 126.2 195.8 128.6 195.9 134.2 196 130 196.1 125.3 196.2 125.7 196.3 126.7 196.4 127 196.5 126.8 196.7 127.2 197 129.1 197.1 129.7 197.4 128.5 197.7 130 198 129.2 198.1 125.1 198.2 121.6 198.2 117.5 198.3 122.1 198.4 126.5 198.6 128.4 198.7 129.8 198.9 133.1 199 131.9 199.1 132.1 199.3 128.5 199.5 128 199.7 124.6 199.9 128.3 200.1 124.1 200.1 119.6 200.2 120 200.3 119 200.5 119.5 200.7 124.7 200.9 126.6 200.9 128 201.1 130.4 201.3 131.6 201.4 135.7 201.6 136 201.6 139.1 201.7 143.2 201.8 141 201.9 144 201.9 147.2 201.9 143.9 202.1 141.3 202.3 140.7 202.5 142.7 202.7 144.3 202.9 144 203.1 149 203.2 146.5 203.5 147.4 203.8 146.1 204.1 146.7 204.3 146.3 204.5 146.4 204.6 141.8 204.9 144.5 205.1 148.3 205.2 146.8 205.3 152.1 205.3 157 205.3 152.7 205.3 153 205.4 148.9 205.5 151.4 205.6 149.5 205.7 151.9 205.8 150.8 205.9 151.5 206 146.4 206.2 149.8 206.4 146.4 206.6 143.7 206.7 143.1 206.8 146.1 207 145.2 207.1 152.1 207.2 150.2 207.3 150.4 207.5 151 207.7 150.9 207.9 151.1 208.1 153.3 208.3 154.6 208.4 156.4 208.4 155.8 208.5 156.2 208.7 154.4 208.9 151.9 209 149.4 209.1 150 209.3 151.7 209.5 151.8 209.7 152.5 209.9 152.7 210.2 149.6 210.4 149 210.7 149.7 210.9 150 211.2 149.7 211.4 147.3 211.6 144.2 211.7 144 212 143.1 212.1 141.3 212.1 146.9 212.3 147.1 212.6 148.1 212.9 150.8 213.2 153.3 213.5 154 213.8 152.1 214.1 148.5 214.6 147 215.2 152.4 215.2 155 215.5 156.4 215.9 153.4 216.3 157.1 216.4 161.1 216.7 158.8 216.8 161.1 216.9 159.3 216.9 149.1 217 146.4 217 143.4 217.1 139.5 217.1 138.9 217.1 138.2 217.2 141.2 217.3 143.8 217.6 142.4 217.8 143.5 218.1 148 218.5 149.2 219 148.6 219.2 151.2 219.6 155.3 220 153.5 220.4 154 220.8 149.7 221 151.4 221.4 152.2 222 153.7 222.5 152 223 151 223.4 155.2 223.8 150.2 224 153.4 224.3 153.7 224.6 153.8 224.9 155 225.1 159.5 225.4 158.7 225.6 160.6 225.7 163 225.8 162.2 226 160.9 226.1 162.4 226.3 162.3 226.5 165 226.7 163.6 226.8 161.1 227.1 163.2 227.4 163.3 227.5 163.2 227.8 163.7 228.2 161.7 228.7 166.7 229.1 163.7 229.3 163 229.7 161.5 230.1 163.1 230.6 161.9 230.9 162 231.4 163.2 231.6 164.4 231.9 165.6 231.9 173.4 231.9 176.5 231.9 181.5 232 186.8 232 178.1 232 176.9 232.1 173.5 232.3 172.2 232.4 171.2 232.5 170.3 232.6 168.7 232.7 165.9 232.8 164.7 232.9 166.8 233 166.2 233 168.1 233.1 174 233.2 174.1 233.3 171.7 233.5 169.6 233.7 171.1 233.9 170.3 234 177.2 234.1 178 234.2 179.3 234.3 176.2 234.4 178.4 234.6 178.7 234.7 179 234.9 180.8 234.9 178.5 235 175.8 235.1 175.4 235.2 174.5 235.3 177.1 235.5 175 235.7 175.9 235.9 174.5 236.2 175.3 236.4 172.9 236.5 175.7 236.6 179.4 236.7 182.9 236.8 183.8 236.8 179 237 175.7 237.2 178.9 237.4 179.3 237.7 180.6 238.1 177.6 238.4 174.3 238.7 179.2 239 178.3 239.5 173.1 239.9 169.7 240.4 171.5 240.5 165.9 240.7 164.5 240.8 164.9 241 166.8 241.2 171.2 241.6 169.5 242.1 169.5 242.6 167.9 243 166.6 243.5 163.7 243.7 170.2 244 168.1 244.5 169.4 244.8 174.2 245.1 174.5 245.3 177.5 245.5 179.9 245.8 180.8 246.1 176.8 246.5 172.9 246.9 170 247.4 172 248 173.8 248.5 173.1 249.3 175.2 249.9 173.4 250.4 174.9 250.9 176.6 251.4 179 252.1 177.4 252.7 177.8 252.9 173.1 253.4 172.4 253.9 171.2 254.2 172.3 254.5 175.7 254.7 179.7 254.8 182.1 254.9 184.9 255.1 182.7 255.4 179.5 255.7 180.9 256.1 177.8 256.6 178.1 257.4 178.9 257.9 177.7 258.7 180 259.1 176.4 259.4 175.6 259.9 179.3 260.1 180.7 260.4 182.4 260.4 180.3 260.5 174.7 260.7 173.4 260.9 173.4 261 177.7 261.2 178.2 261.3 181 261.5 181 261.7 180.9 261.9 181.7 262.2 181.6 262.5 178.6 262.8 179.7 263.2 177.5 263.7 175.8 264.1 177.4 264.5 181.2 264.9 183.8 265 183.4 265.3 186.9 265.6 185.3 265.8 189.4 266 189.3 266.4 183.8 266.7 180.5 267 179.9 267.3 180.2 267.8 181.9 268.4 180.6 269.1 180.3 269.5 176.7 270.2 180.4 270.5 177 270.8 178.1 271.4 181.2 272 181.8 272.5 176.2 273 174.1 273.3 173.9 273.5 169 273.5 162.9 273.5 163.4 273.5 150 273.5 151.9 273.5 149.5 273.5 146.8 273.6 151.4 273.6 146.1 273.6 142.7 273.6 146.2 273.7 153.5 273.8 149.5 273.9 150.9 274 156.8 274.1 158.5 274.2 161.2 274.3 159.7 274.5 161.5 274.6 162.4 274.8 159 275 158.2 275.2 163.2 275.6 163.1 275.7 166.5 275.9 164.6 276.1 168.5 276.2 167.7 276.5 163.9 276.8 161.3 277.2 157.9 277.4 157.4 277.7 161.9 278 161.7 278.3 167.7 278.5 167.2 278.6 168.7 278.7 171.7 278.9 174.2 279.1 173.9 279.2 176.9 279.3 178.1 279.4 175.2 279.5 173.6 279.8 173 280 170.6 280.1 172.3 280.4 171.4 280.7 168.3 281 166 281.1 169 281.4 170.9 281.7 173.3 282 175.9 282.1 179 282.3 178.3 282.7 177.8 282.8 182.9 282.8 187.1 282.9 185.4 283.1 186.5 283.2 184.7 283.5 183.2 283.9 180.9 284.2 183.5 284.4 186.5 284.7 185.5 285 181.5 285.3 188.7 285.5 186.2 285.8 188.1 285.9 188.3 286.3 189.4 286.4 190.1 286.7 187.6 286.9 195.2 287 194.4 287.2 191.8 287.5 190.1 287.6 187.8 287.8 188.7 288 189.9 288.1 184.5 288.2 184.7 288.3 186.1 288.4 181.9 288.5 180.2 288.6 182.1 288.7 175.5 288.7 172.4 288.8 167.3 288.8 175.9 288.9 170.5 289.1 166.9 289.3 170.7 289.4 168.9 289.6 170 289.8 168.4 290 171.4 290.2 168.6 290.5 168.9 290.6 163.5 290.8 159.8 291 162.7 291.3 165.3 291.5 167.3 291.6 172.2 291.7 175.2 291.8 172.9 291.9 176.6 292 178.9 292 182.1 292.1 176.1 292.3 175.7 292.7 174.1 293 172.6 293.2 173 293.7 176.8 294 178 294.4 184.6 294.6 185.9 295.1 182 295.5 181 296 178.6 296.7 177.6 297.2 174.4 297.8 171.8 298.4 176.4 299.1 176.2 299.5 178.9 300.2 174.9 300.6 171.3 300.7 169.2 300.8 172.4 301.1 167 301.3 162.7 301.5 164.2 301.8 161.3 302.2 162.7 302.4 166.6 302.8 164.4 303.1 164.7 303.5 163.4 303.9 162.8 304 164.2 304.3 166.9 304.8 167 305.1 170.6 305.5 169.7 306.2 171.6 306.8 168.4 307.1 171.9 307.8 168.5 308 174.8 308.1 176.7 308.2 182.8 308.3 182.6 308.3 185.9 308.4 179.7 308.7 181.2 309 183.6 309.1 184.1 309.3 176.5 309.7 177.3 310.5 179.5 311.5 175.7 312.3 177.1 313 177.3 313.6 179.4 314.3 178.2 314.5 179.8 314.7 179.2 315.2 181.3 315.6 176.8 315.7 177.2 315.9 182 316.1 180.4 316.3 181.8 316.5 177.7 316.6 173.6 316.7 168.7 316.8 168.6 316.9 169.1 317 171 317.1 170.4 317.2 176.1 317.4 169.5 317.6 165.6 317.8 166.8 318.1 167.1 318.5 168.2 318.8 172 319.2 172.7 319.4 168.6 319.6 171.5 320.1 175.4 320.4 174.4 320.9 173.5 321.2 176.7 321.5 177.5 322 180.3 322.5 179.6 323.1 180.8 323.6 178.6 323.9 176.4 324.6 174.8 325.4 170.5 326.6 173.7 327.2 174.5 328.1 172.9 328.7 169.6 329.4 166.5 329.8 166.1 330.3 172.8 331.1 174.5 331.6 176.3 332.3 171.8 332.9 169.6 333.3 169.7 333.9 170.2 334.2 167.2 334.8 166.8 335 167.5 335.7 166.9 336.3 169.5 337.4 167.7 338.1 168.9 338.7 166.7 339.3 165.4 339.6 166.8 340.5 165.7 341.4 166.4 342.3 167.1 342.9 166.4 343.5 163.9 344.2 164.7 344.9 165.5 345.6 164 346.6 162.9 347.4 164.7 347.7 161 348.6 160.1 349.2 158.6 350 159.1 350.7 158.8 351.2 156.8 351.3 150.4 351.5 149.2 351.7 150.4 351.8 148 352 152.2 352.4 153.8 352.8 156.3 353.1 156.7 353.8 158.5 354.5 157.2 354.8 154.9 355.3 155.1 355.7 158 356.1 161.6 356.5 161 357.1 158.6 357.3 152.7 357.6 154.9 358 150.4 358.2 151.9 358.6 149.6 359 149.6 359.4 151.8 360 154.6 360.8 150.3 360.9 148.6 360.9 143.3 361 139.4 361 136.4 361 139.9 361 136.1 361.1 136.6 361.2 132.2 361.2 127.1 361.2 126.2 361.2 126.1 361.3 129.7 361.3 126.4 361.4 125.2 361.4 125.7 361.5 126.6 361.6 128.9 361.7 131.8 361.8 136.5 361.8 141.3 361.8 138.6 361.8 136.5 361.8 144.5 361.9 151.5 361.9 152.6 361.9 149.1 362.1 146.2 362.2 151.1 362.4 152.3 362.5 154.5 362.5 150 362.5 144.9 362.6 148.4 362.9 148.1 363.1 144.9 363.3 143.3 363.5 142.9 363.7 141.4 363.8 140.6 364.2 141.9 364.5 139.9 364.8 145.5 365.1 145.2 365.6 146.9 366.2 141.9 366.6 137.6 366.8 134.7 367 137.7 367.1 147 367.1 142.1 367.3 141.2 367.3 144.6 367.4 142.6 367.6 141.2 367.7 146.7 367.8 149.5 368.2 148 368.5 149.3 368.7 146.2 368.9 145.7 369.1 143.9 369.6 146.7 370.2 146.9 370.6 145.2 370.6 142.1 370.6 141.6 370.7 140.1 370.9 141.8 371 140.8 371.2 141.7 371.5 142.4 371.7 143.3 372.2 145.3 372.4 143.1 372.7 140.1 372.9 140.2 373.1 135.7 373.3 135.5 373.6 137.8 374 137.1 374.5 135.9 374.9 135.4 375.4 136.1 375.6 140.7 376 136.5 376.8 136.9 377.2 141.5 377.5 142.3 377.9 138.8 378.4 141 378.8 143.2 379.5 143.9 379.6 147.6 379.8 149.2 380.3 149.7 380.3 157.6 380.3 158.9 380.5 155.8 380.7 156.4 380.9 152.4 381 146.9 381.3 151.7 381.7 150.8 382.1 147.7 382.3 144.1 382.5 147.4 382.8 147.5 382.9 138.3 383 134.5 383 135 383 144.9 383.1 146 383.1 146.2 383.1 147.9 383.2 148.9 383.3 148.6 383.5 144.5 383.6 150.5 383.7 153.2 383.7 155.1 383.8 157.5 383.8 154.6 383.8 149.3 384 154 384.2 153.8 384.4 150 384.5 154.7 384.7 151.5 385 149.5 385.2 148.5 385.5 148.3 385.7 150.1 386 150.7 386.4 151.7 386.8 150 386.9 152.1 387.4 148.8 387.5 152.7 387.5 152.6 387.7 152.7 388 156.6 388.2 158.8 388.3 161.4 388.5 160.7 388.6 159.4 388.8 161.6 388.9 165.5 389 166 389.1 171.6 389.2 171.8 389.2 171 389.3 174.1 389.4 175.7 389.5 173.2 389.7 175.8 389.9 176.1 390 176.1 390.1 178.1 390.2 182.3 390.3 182.8 390.4 185.4 390.5 187 390.7 188.7 390.8 189.1 390.8 197.9 390.8 198.3 390.9 194.6 390.9 195.3 391 198.4 391.1 198.5 391.1 193.5 391.1 185.5 391.1 181 391.2 189.5 391.3 190.5 391.3 186.4 391.4 189.1 391.6 192.1 391.7 191.9 391.9 191 392.1 187.9 392.3 186.1 392.6 185.1 392.9 183.5 393.3 184.7 393.7 187.7 394 189.7 394.4 187.8 394.8 185.8 395.4 184.1 395.7 184.7 396.1 186.2 396.8 186.6 397.1 188.2 397.6 186.1 398 192.5 398.2 196.5 398.2 198 398.3 200.4 398.5 197.2 398.6 195.7 398.7 194.3 399 196.6 399.1 201.9 399.3 200.5 399.4 198.4 399.6 200 399.8 199.7 400 199.2 400.2 197.4 400.4 197.8 400.6 198.4 400.7 193.2 400.9 194.7 401.1 196.6 401.4 195.3 401.6 199.2 401.8 201.7 401.8 202.3 402 205 402.1 202.2 402.3 199 402.6 196.9 403 196.3 403.3 196.2 403.7 195.4 404.1 194.5 404.8 193.6 405.1 194.5 405.8 195.5 406.1 195.8 406.8 194.7 407.2 194.2 407.8 196.8 408.6 195.9 408.9 192.3 409.4 194.3 409.8 193.3 410.1 194.1 410.7 189.4 411.3 190.4 411.6 189.3 412.2 189.2 412.8 187.4 413.3 191.7 413.6 197.1 413.8 203.1 414 203.6 414.1 207.1 414.3 206.8 414.6 208.8 414.7 211.7 414.9 207.8 415 206.4 415.1 202.4 415.3 203.8 415.5 201.6 415.6 200.6 415.8 207.8 416 209.3 416.3 211.5 416.4 215 416.6 213.4 416.9 214.9 417.2 216.8 417.4 215.2 417.6 215.9 417.9 212.1 418.3 209.6 418.7 207.6 419.1 209.1 419.6 211.1 419.9 208.7 420.1 207.1 420.4 205.7 420.6 209.7 420.9 206.6 421.3 207.8 421.8 211.4 422.1 211.8 422.9 212.5 423.5 212.3 424.2 210.4 424.7 211.8 424.9 211.1 425.1 212.6 425.4 210.6 425.9 207.4 426.1 205.8 426.2 203.6 426.4 209.4 426.6 212.1 426.8 212.3 427 218.4 427.2 214.7 427.3 212.2 427.6 212.3 427.8 206.7 428 205.6 428.2 203.5 428.3 201.6 428.5 200.7 428.7 202.8 428.9 206.8 429.1 208.7 429.3 208.4 429.7 209.4 430.1 210.4 430.5 208.3 431 206.4 431.4 207.7 432 204 432.5 204.3 432.9 206.1 433.3 205.4 433.7 206.3 434.2 205.3 434.8 203 434.9 195.3 434.9 196.7 435 195.8 435.2 194.3 435.3 194.7 435.5 193.3 435.7 192 435.9 188.2 436 197 436.3 196 436.5 200.4 436.7 200.2 436.7 201.8 436.8 202.5 436.9 200.9 437 198.8 437.1 202.6 437.3 206.5 437.5 206.4 437.7 208.7 437.9 206.4 438.2 206.8 438.5 203.7 438.7 201.7 439 200.2 439.3 198.1 439.5 198.1 439.8 201.5 440.2 204.4 440.6 203.6 440.9 198.8 441.2 197.8 441.7 201.3 442.1 198.1 442.5 201.4 443 200.2 443.4 201.7 443.9 204.1 444.2 204.6 444.6 203.9 445.1 201.9 445.7 204.5 446.3 202.6 446.8 204 447 210.6 447 219.7 447 220.6 447 222.9 447 223.9 447 218 447.1 219.2 447.1 228.7 447.1 229 447.1 223.6 447.3 221.9 447.4 225.3 447.5 222.3 447.7 222.6 447.9 221.2 448.2 222.4 448.5 222.1 448.8 218.8 449.1 220.6 449.4 222.1 449.8 221.9 450.1 221.8 450.4 226.3 450.7 227.1 450.9 226.1 451.3 224.2 451.9 226.9 452.1 230.1 452.2 229.3 452.5 229 452.5 234.6 452.5 229.7 452.8 228.4 453 227 453.2 221.6 453.3 222.2 453.5 221 453.7 221.5 453.9 217.3 454 214.7 454.1 213.8 454.2 218 454.4 218.8 454.5 213.5 454.7 214.9 454.9 217.2 455.1 219 455.4 214.5 455.6 215.6 455.7 211.5 455.8 214.8 456 208.2 456.1 210.6 456.2 212 456.2 214.9 456.3 216.9 456.4 217.2 456.5 221.8 456.6 220.5 456.7 216.6 457 218.3 457.2 222.4 457.4 219.8 457.7 222.8 458 220.6 458.4 224.3 458.7 221.9 459 219 459.3 218.5 459.6 218.3 460 219.6 460.3 221.2 460.9 223.2 461.7 223 462.3 225.1 462.5 226.4 462.8 230.1 463 228 463.2 230.6 463.2 228.7 463.2 229 463.5 231 463.8 230.4 464.2 233.6 464.7 229.9 465.1 234 465.3 234.8 465.5 239.3 465.5 240.2 465.7 238.8 466 237.8 466.3 241.5 466.4 245.6 466.4 246.5 466.4 239.2 466.4 236.9 466.4 232.9 466.4 229.4 466.5 230.3 466.5 228.6 466.7 229 466.9 226.6 467.2 226.5 467.4 229 467.6 232.7 468 228.7 468.3 228.3 468.6 229.7 468.8 229.7 469 226.4 469.4 229.1 469.6 222.1 469.6 219.9 469.6 209.9 469.6 209.2 469.6 205.6 469.6 203.2 469.7 211.5 469.7 213.4 469.7 208.1 469.7 200.9 469.8 202.3 469.8 200.3 469.8 190.2 469.8 194 469.8 195.8 469.9 199.3 470 200.7 470 200.2 470.1 195.8 470.2 193.5 470.2 193.2 470.4 197.8 470.5 197.7 470.7 200.4 470.9 199.8 471 204.8 471.3 205.6 471.5 204.3 471.7 206.2 471.7 210 471.8 209 472.1 206.8 472.4 213.2 472.6 210.3 472.9 208.5 473.3 206 473.6 204.7 473.7 210.9 473.8 209 473.9 204.3 474.2 207.3 474.6 208.8 474.9 203.9 475.5 203.8 475.6 199 475.7 196.1 475.9 199 475.9 198.2 475.9 191.1 475.9 188.7 475.9 183.3 475.9 184.7 475.9 184.4 476 182 476 186.7 476.1 185.2 476.2 184.7 476.4 183.9 476.5 185.1 476.7 191.4 476.8 187.7 477 183.9 477.1 184.9 477.3 184.7 477.6 183.6 477.7 185.3 477.8 188.4 477.9 190.3 478 191 478.4 191.5 478.8 190.2 479.1 193.5 479.2 197.4 479.4 196.8 479.5 198.2 479.7 200.5 480 202.3 480.1 204.7 480.2 207.9 480.4 207.7 480.5 201.3 480.7 206.3 480.9 207.6 481.1 210.5 481.2 213 481.3 214.6 481.4 218 481.5 218.3 481.5 218 481.6 221.7 481.6 215.4 481.8 217.6 481.9 220 482 223.9 482.1 222 482.2 223.3 482.3 227.4 482.4 226 482.6 228.8 482.6 228.6 482.7 227.6 482.7 229.8 482.8 230.8 482.8 228.4 482.9 229.2 482.9 230.3 483 225.9 483 227 483.1 229.5 483.1 234.3 483.2 233.7 483.3 233 483.4 234 483.5 232.8 483.5 237.4 483.6 238.7 483.7 240.2 483.8 238.2 483.9 237.2 484 238.3 484.2 236.6 484.3 243.1 484.3 244.2 484.4 247.2 484.5 247.1 484.6 253.6 484.6 253.2 484.6 250.1 484.7 243.6 484.7 238.2 484.7 237.6 484.8 239.1 484.8 236.1 485 238.1 485.1 241.1 485.2 246 485.3 244.2 485.5 246.7 485.5 251.4 485.7 249.8 485.9 249.8 486 256.2 486.1 260.4 486.1 257 486.2 257.8 486.4 257.9 486.5 262.2 486.6 261.2 486.7 261.7 486.7 267 486.8 261.2 486.8 258.7 486.9 259.5 486.9 264.5 487 261.7 487.1 255.5 487.3 258.2 487.5 257.2 487.7 255.5 488 255.2 488.2 259.4 488.5 255.9 488.8 257.2 489 252.7 489.3 250.9 489.9 251.4 490.2 249 490.8 253 491.3 248.2 491.4 243.3 491.7 243.3 492.1 239 492.3 241.7 492.5 239 492.7 243.2 493 240.1 493.2 239.1 493.6 243.6 494.2 243.4 494.6 240.7 495 238.2 495.3 242.1 495.5 237.2 495.6 232.8 495.6 230 495.7 229.8 495.7 234.9 496.1 234.5 496.6 237 497.1 235.9 497.5 238.7 497.8 239.8 498.2 238.1 498.5 234.7 498.5 229.8 498.6 229.3 498.7 228.5 498.8 224.4 498.9 228 499.1 228.4 499.3 227.8 499.8 227.2 500.1 228.4 500.7 228.2 500.8 228.9 500.9 228.5 501.4 225.7 501.7 230.2 502 227.6 502.7 227.5 503.6 227.1 504.1 228.6 504.4 228.5 504.8 225.8 505.2 228.5 506 227.6 506.9 227.8 507.8 227.4 508.4 228.1 509 228.2 509.5 228.4 509.8 229.4 510 228.1 510.1 230.9 510.2 235.1 510.2 227.6 510.4 230.1 510.5 226 510.7 227.8 511 224.1 511.1 219.9 511.2 220.9 511.3 219.2 511.4 220 511.7 223.6 512 220 512.3 221.5 512.5 225.2 512.9 222.8 513.3 222.3 513.6 221.8 514 224.6 514.2 225.8 514.4 227.8 514.9 229.4 515.3 228 515.8 224.4 516.3 228 516.8 227.5 517.7 227.3 518.6 224.4 519.2 226.6 519.9 228.2 520.5 225.8 521.1 228.2 521.6 228 522.4 228 523.5 228.3 524.4 230 524.4 235.5 524.6 236.8 524.9 237.2 525 240.3 525.3 244.7 525.5 237.9 526.2 239 526.8 236.9 527.5 236.6 528.5 237 529.3 236.7 530.1 237.3 530.3 236.8 530.8 232.7 531.6 232.9 532.7 234.9 533.8 231.3 533.9 231.4 534.4 232.9 535.3 232 536.2 231.8 536.6 231.1 537.5 231.3 538.1 230.4 538.6 234.5 539.2 238.1 540 237.9 541.3 236.3 542.8 237.6 545.1 236.6 546 240 547.5 237.1 548.1 236.3 548.9 237.5 549.6 241.3 550.5 240.3 551.5 236 552.2 236.3 553.4 235.7 554.6 235.8 555.6 234.3 556.4 233.8 557.5 233.5 558.5 236 559.4 239.9 560.8 240.2 562.2 240.7 563 241.2 563.8 238.2 564.4 244.3 564.9 244.9 565.4 241.7 565.5 238.7 565.9 238.6 566.4 240 567.5 242.1 568.7 237.4 569.6 236.8 571.2 238.1 572.8 237.4 573.4 229.7 573.5 225.3 573.6 228.7 573.9 226.5 574 230 574 227.4 574.1 228.7 574.2 227.5 574.3 230.1 574.4 234 574.5 233.7 574.7 236.4 574.8 237.7 574.8 239.8 574.9 240.7 575 243.9 575.1 250.1 575.1 262 575.1 263.8 575.1 271.6 575.1 283.2 575.1 271.3 575.1 270.4 575.1 258.9 575.1 257.5 575.2 262.8 575.2 256.8 575.2 259.2 575.3 258.7 575.3 262.1 575.4 262.7 575.4 259.2 575.4 266.4 575.5 266.6 575.5 264.6 575.6 267.7 575.7 263.2 575.7 263.6 575.8 258.3 575.8 255.1 575.8 250.8 575.8 252.6 575.9 241 575.9 241.8 575.9 244.7 575.9 250.6 576 250.7 576.2 250.2 576.3 249 576.5 248 576.8 249.8 577.1 253 577.2 254.2 577.4 248.4 577.4 245.2 577.5 245.1 577.8 242.5 578.1 244.1 578.7 241.4 579.1 244.1 579.5 243.6 580 244.4 580.2 244.5 580.6 244.6 581.1 244.3 581.6 244.5 582.3 243.7 582.8 242.4 583.5 243.4 584.2 242.2 584.7 241 585 243.4 585.3 244.1 585.7 244.5 586.2 244.7 586.7 244.6 587.4 243.9 588.1 243.7 588.9 244.6 589.7 244.6 590.4 243.6 591.1 243.9 591.5 243.4 592.3 240.8 592.6 237.1 592.9 240.6 593.5 241.8 594.3 241 595 244.8 595.8 244.5 597.1 243.7 598.1 243.9 599.3 244.2 600.6 247.3 601 251.1 601.2 257.2 601.4 256.5 601.6 256.6 601.9 253.7 602.3 250.4 602.8 251.9 603.3 254.5 604 251.5 604.7 249.7 605.3 255.1 605.4 262.5 605.4 260.7 605.7 256 606.1 258 606.8 257.3 607.3 256.9 608.3 259.7 608.5 258.4 608.7 259.5 609.3 260.2 609.7 260.2 609.9 262.9 609.9 268.3 609.9 265.2 610 260.2 610.2 260.7 610.5 262.9 610.7 262.1 610.9 260.4 611.4 260.9 611.7 261.7 612.1 261.2 612.4 261 612.6 261.3 612.8 263.7 613.2 264.6 613.5 266.3 613.9 268.7 614.3 268.5 614.8 268.7 615.5 266.1 616.3 264.2 616.9 266.3 617.3 269.7 617.7 272.5 618.1 274.5 618.4 273.7 618.7 277.7 618.9 275.3 619.2 275.1 619.5 274.7 619.6 273.5 619.7 275.3 619.9 276.2 620.1 276.5 620.2 273.3 620.3 272.5 620.5 269.9 620.7 271.7 621 275.7 621.3 274.4 621.5 276.3 621.8 276.3 622 275.4 622.4 274.4 622.6 276.9 622.9 277.5 623.2 276.4 623.4 274.6 623.8 277.5 624.2 276.6 624.8 276.9 625 277.7 625.1 278.6 625.5 276.2 626.1 275 626.8 275 627.5 278.5 628.1 277.2 628.6 284 628.6 282.8 628.8 277.2 628.9 266 628.9 259.4 629 270.5 629.3 273.4 629.4 267.5 629.6 269.2 630.1 269.3 630.4 268.5 630.9 268.9 631 260 631 251.7 631 256.7 631 260.7 631.2 259 631.5 258 631.9 256.9 632.4 258.3 632.7 257.9 632.7 250.1 632.8 252.3 632.8 247.1 632.9 244.9 633.1 246.2 633.3 245.1 633.8 246 634.2 249.8 634.2 245.9 634.4 241.3 634.7 243 635.1 247.3 635.6 244 636.2 243.1 636.7 237.8 636.9 235 637.1 235.4 637.4 235.5 637.8 235.3 638 239.6 638 243.9 638 245.5 638.1 247.6 638.3 244.2 638.5 246.2 638.9 242.7 639.2 238.5 639.5 240.7 640 238.1 640.6 240.3 641.3 236 642 234.2 642.6 234.7 643.2 238.1 643.8 234.2 644.1 239.6 644.3 243.1 644.3 244.2 644.4 248 644.4 247 644.4 249.9 644.5 250 644.5 254.7 644.5 255.1 644.7 255.3 645 254.2 645.3 249.1 645.6 250.5 646 250.4 646.3 250.9 646.5 245.8 646.6 242.7 646.8 242.8 647 240.6 647.1 241.8 647.2 240.7 647.4 243.2 647.5 243.2 647.7 239.9 647.9 240.1 648.1 242.6 648.4 243.5 648.8 244.9 649.1 248.5 649.4 251.5 649.5 258.4 649.5 264.6 649.6 266.7 649.7 272.8 649.8 270.6 649.9 266 650 266.9 650.1 273.5 650.2 271.5 650.3 267.5 650.4 270.4 650.6 267.7 650.8 265.8 651.1 263.3 651.4 262.4 651.8 264 652.1 261.5 652.5 263 652.7 255.6 652.7 253 652.8 250.3 652.9 246.5 653.1 245.7 653.2 247.4 653.3 244.7 653.5 248.4 653.6 247.6 653.9 245.8 654.2 244.2 654.5 241.9 655 241.4 655.8 240.9 656.2 246.3 656.8 247.9 657.4 248.7 657.7 253 658.1 250.4 658.2 241.9 658.5 245.8 659.1 244.5 659.5 240.8 659.7 239.3 660.3 238.8 660.4 228.9 660.4 235.8 660.5 234.5 660.8 237.2 661.3 235.8 662.1 240.6 663.1 235.2 663.5 240.8 664.3 243.1 665 237.6 665.6 236.4 666.2 235.5 666.6 231.8 666.6 230.1 667 233.7 667.4 235.8 668 235 668.5 229.4 669.1 228.4 669.7 230.2 670.5 229.7 671.3 233.5 671.9 235.2 672.9 234.3 673.4 231.5 673.7 235.6 674.2 238.7 674.5 235.7 674.7 237.3 674.9 240.9 675.2 240.1 675.4 237.2 675.6 243.9 675.8 239.6 676.1 235.4 676.5 236 676.7 235 677.1 235.4 677.6 233.4 678 233.7 678.3 231.3 678.5 228.4 678.7 227.1 679 227.8 679.2 231.3 679.6 230.1 679.9 228.3 680.4 224.8 680.8 222.9 681.2 227.7 682.1 230 682.9 231.9 683.6 235.7 684.4 234.1 685.3 229.7 685.9 227 686.6 227 687.1 227.3 687.8 228.4 688.5 233.2 689.3 230.9 690.1 230.4 690.7 232.2 691.7 234.1 692.3 234.5 693 233.4 694 233.8 694.9 237.4 695.4 240.1 695.7 239.7 696.4 237.2 697.1 239.4 697.9 239.5 698.8 234.8 700.1 233.9 700.4 231.5 701.5 233.4 702.2 231.4 702.4 235.6 702.5 237.2 702.8 237.7 703 240.7 703.1 240.4 703.3 240.2 703.7 239.5 703.9 237 704.1 236.2 704.5 239 704.7 235.4 705.1 236.8 705.5 233.3 705.7 229.9 705.9 231.5 706.2 234.5 706.7 231.2 707.1 233.6 707.7 236.6 707.9 237.3 708.4 239.1 708.8 242.1 709.1 246.6 709.3 247.5 709.7 245.3 710.1 241.5 711 240.2 711.7 235.9 712.8 235.2 713.8 233.8 714.7 236 715.6 238.7 716.9 237.4 718 234.1 719 234.3 720.1 238.7 721.4 241.5 722.3 238.8 723.4 235.4 725.2 233.1 726.7 230.6 727.5 231.2 728.7 232.9 729.8 234 731.1 236.1 731.8 238.6 732.5 237 734.6 234.7 736.6 236.1 739.2 237.5 741 237.6 742 236 743.4 240.3 744.7 240.5 745.7 242.3 747.1 241.5 748.4 239.3 749.4 241.3 750.4 239.9 750.8 243.6 751.9 241.6 752.5 246.5 753.2 245.9 754.2 249.1 755.2 249.6 756.1 249.2 757.1 250.3 757.7 254.8 758.3 255.7 758.9 260.8 758.9 260.4 759.1 257.1 759.2 259.4 759.4 261.3 759.5 261.2 759.6 261.9 759.8 263.9 760.3 263.9 760.7 264.7 761.4 262.8 761.7 263.2 762 267.2 762.1 268.6 762.3 269.9 762.5 268.1 762.9 271.4 763.1 275.8 763.2 276.1 763.3 274.2 763.6 279.4 763.7 277.4 764 277.2 764.2 279.1 764.4 283.7 764.6 279.8 764.8 280.1 765 275.6 765.2 275.1 765.6 279.1 766.1 277 766.6 279 767.2 282.1 767.5 278.9 767.9 277.1 768.4 273.3 768.7 269 768.8 266.7 769.2 270.8 769.6 263.7 769.6 262 769.9 259.1 770.2 258.4 770.5 257.3 770.7 262 771.3 259.9 771.9 260 772.6 267.7 773.1 265.3 773.5 261.2 774.2 263.4 775.3 262 776.2 261.4 777.2 260.4 778 256.8 778.5 259.3 779.3 264.8 780 264.7 781 266.5 782.2 262.5 783.2 266.1 783.9 263.7 784.7 265.1 785.1 260.1 785.3 260.4 785.8 259 785.9 256.1 786.2 259 786.5 264.2 786.9 265.3 787.2 264.7 787.7 263.1 788.1 263.8 788.5 267 788.8 266.2 789.4 260.8 789.8 258.3 790.2 258.2 791 259.4 791.7 263.7 792.6 266.9 793.3 259.9 794.1 263.2 795.3 259.1 796.2 263.4 797.4 261.6 797.9 258.6 798.7 258.3 799 253.4 799 250.4 799.1 248.5 799.1 245.5 799.1 244.3 799.1 237.2 799.2 238.2 799.2 231.3 799.2 237.5 799.3 239.8 799.5 237 799.7 237.3 799.8 236.7 800.1 234.8 800.5 239 800.9 242 801.4 244.1 802.1 247.9 802.7 243.9 803.5 243.9 804.3 242.4 805 243.8 805.6 246.2 806.5 247 806.9 243.9 807.5 239 807.8 237.6 808.4 241.4 809.5 243.9 810.6 245.7 811.3 245.4 811.9 248 812.4 242.3 812.8 243.6 813.2 246.5 813.4 246.6 813.8 250.2 814.1 249.1 814.2 248.3 814.4 244.4 814.7 240.4 814.9 240.4 815.3 236.9 815.7 242 816 242.1 816.3 245.2 816.7 242.3 817.3 242.9 817.8 235.5 818.2 234.5 818.9 234.4 819.3 230.4 819.4 229.3 819.8 231.3 820.1 228.7 820.7 230.9 821.5 230.6 821.8 227.1 822.4 224.1 822.8 222.3 823.5 226.7 823.9 228.4 824.5 229.6 825 227.9 825.6 227.9 826.2 232 826.9 232.8 827.5 232.8 828.2 229.6 828.9 230.4 829.7 233.9 829.7 240.2 829.7 238.7 829.9 240 830.2 238.6 830.7 236.7 831.6 235.4 832.5 238.7 833.3 239.3 834.1 237.8 834.9 236.1 835.5 236.3 836.7 235.8 837.3 232.1 837.7 236 838.4 237.1 838.8 231.4 839.4 229.6 840 233.5 840.3 239.6 840.4 238.5 840.8 239.1 841.1 242.3 841.4 240.1 842 241.7 842.4 243.1 842.7 241.1 843.3 239.8 844 238.8 844.3 238.5 844.6 238.6 845.4 241.1 845.6 240.3 846 241.3 846.3 241.2 846.8 239.8 847.2 240.4 847.7 243.1 847.9 240.7 848.7 241.7 849.7 242.7 850.6 242.5 851.5 243.8 852.1 243.1 852.8 244.2 853.3 246.2 853.9 247.5 854.1 253 854.2 246.7 854.3 251.7 854.4 254.5 854.7 254.7 855 253 855.5 255.6 855.7 257.3 856.1 260.5 856.7 256.9 857.5 258.6 858.1 260.5 859 261.6 860 257.2 860.7 258.7 861.3 258.9 862.6 262.1 863.3 262.1 864.2 261.8 864.9 264 865.3 267.4 866.1 269 866.7 266.8 867.8 267.7 868 270.6 868.2 273 868.3 278.3 868.4 283.1 868.5 284.7 868.6 287.9 868.6 296.1 868.6 295.3 868.6 293.6 868.6 294.8 868.7 295 868.7 296.4 868.7 293.9 868.7 295.6 868.7 297.7 868.7 297.9 868.7 298.6 868.8 300.6 868.8 297.6 868.8 292.1 868.9 297.4 868.9 299 869 300.2 869.1 301.6 869.2 300.7 869.2 307 869.2 310.6 869.3 309.8 869.3 308.2 869.4 306.6 869.5 305.6 869.5 304.8 869.7 303.8 869.7 307.6 869.8 305.6 869.9 301.1 870 299.4 870 300.3 870.1 300.7 870.2 299.6 870.3 298.6 870.5 297.9 870.6 295.6 870.7 293.7 870.8 289.9 870.9 291.2 871.1 287.9 871.3 293.3 871.6 296.6 871.8 298.2 872.1 295.8 872.3 299.3 872.4 301.8 872.5 301.3 872.7 299.3 872.9 306.8 873 307.2 873.2 306.3 873.5 307.2 873.7 300.5 873.9 300.7 874.3 300.8 874.9 299.4 875.3 297.7 875.7 296.4 876.3 295.3 877.3 297.9 878.1 300.9 879 300.5 879.5 303.8 880 304.9 880.5 308.3 880.7 313.6 880.7 314.8 880.7 318 880.7 323.8 880.8 326 880.8 321.9 880.8 319.6 880.8 320.4 880.9 322.9 881 321.3 881.1 320 881.2 321.9 881.3 324.9 881.4 324.4 881.5 329.2 881.6 332.2 881.7 334.7 881.8 331.8 881.9 324.1 882.1 328.2 882.3 323.3 882.5 317.9 882.8 319.1 883.2 319.2 883.5 315.6 883.8 309.4 884.1 311 884.5 315.4 884.8 313.2 885.4 311.8 885.8 315.8 886.1 317.7 886.4 319.5 886.6 325.6 886.8 320.8 887 315.4 887.1 313.1 887.5 313.6 887.8 309 887.9 308.6 888.1 311.6 888.5 308.8 888.7 313.4 889.2 311.8 889.6 316.9 890 314.5 890.4 317 890.7 314.1 891 314.6 891.5 313.7 892.1 309.1 892.5 305 892.7 306.1 893.1 310 893.6 307.2 893.9 309.9 894.3 307 894.4 307.1 894.6 306.3 894.9 305.1 895.1 300.6 895.4 302.5 895.5 302.5 895.7 302.3 895.8 300.8 895.9 302.2 896 302.3 896.2 300.5 896.4 303.4 896.5 310.1 896.7 309.5 896.8 301.5 896.9 303.6 897.1 306.2 897.3 305.9 897.6 306.4 897.7 305 897.9 301.7 898.1 304.4 898.4 306.7 898.6 304.3 898.8 300.4 899.1 303.4 899.4 305.7 899.7 305.2 899.8 309.7 899.9 313.9 900 315.8 900.1 310.9 900.2 310.5 900.3 303.6 900.4 299.5 900.5 299.9 900.6 295 900.7 294.5 900.8 294.9 901 294.5 901.2 294.9 901.4 296.6 901.5 298.2 901.8 299 902 299.5 902.2 302 902.3 302.5 902.4 300.9 902.6 304.4 902.8 304.5 903.1 304.1 903.3 300.8 903.7 306.1 904.2 302.4 904.8 303.1 905.5 304.5 906.5 302.6 907.3 304.4 908.1 304.3 908.9 306.8 909.4 306.9 910.4 308 911.2 309.7 912.3 312.5 913.2 315 913.9 319.5 914.3 319.2 915 320.8 915.2 322.9 915.6 320.7 915.6 323.8 915.8 326.6 915.9 330.3 916.1 327.3 916.3 332.1 916.4 333.3 916.4 334.8 916.5 333.6 916.6 330 916.7 324.8 917 325.1 917.3 326.4 917.7 330.1 918.2 330.1 918.8 327.4 919.4 333.2 920.1 334.2 920.4 331.6 920.9 331.7 921.2 333.1 921.6 336.8 922 338 922 342.3 922.2 340 922.5 339.5 922.7 342.4 922.8 343.7 922.9 345.8 923 348.7 923 352.6 923 353.4 923.1 353.7 923.1 357.9 923.1 356 923.2 357.5 923.2 357.2 923.2 360.9 923.3 359 923.3 360.3 923.4 358.5 923.4 358.1 923.5 357.9 923.6 355.1 923.7 352.9 923.8 349.6 923.8 352 924 353.2 924.2 355.3 924.3 352.7 924.5 353 924.8 357.4 924.9 357.3 925 357.8 925.1 361.2 925.2 352.9 925.2 349.5 925.3 352.5 925.4 359.4 925.5 361.3 925.7 364 925.7 369.1 925.8 370.3 925.9 372.5 925.9 372.5 926 369.6 926.1 376.6 926.1 376.9 926.1 383.5 926.2 388.6 926.2 398.1 926.2 407.7 926.2 416.3 926.2 401.8 926.2 393 926.2 392.3 926.2 392.6 926.3 394.7 926.3 394.9 926.3 396.9 926.3 394.4 926.3 399.2 926.4 399.9 926.4 391.9 926.5 395 926.5 394.2 926.6 394.6 926.6 400.9 926.6 392.8 926.7 397.5 926.8 402.6 926.8 401 926.9 405.1 926.9 406.8 926.9 407.3 927 404.1 927.1 409 927.1 407.3 927.2 407.8 927.3 410.1 927.4 405.9 927.5 412 927.5 412.2 927.5 410.5 927.6 413.4 927.6 408.8 927.7 408.2 927.8 413.8 927.8 418.1 927.9 417.7 927.9 413.3 927.9 422 927.9 429 928 416.8 928 411.8 928 403.9 928 403.6 928 404.9 928.1 406 928.1 400.6 928.2 407.1 928.2 406.3 928.3 407.2 928.4 408.3 928.5 405.8 928.5 405.5 928.6 404.1 928.7 407.5 928.9 408 929 411.1 929 412.2 929.2 407.5 929.3 406.8 929.5 405.9 929.7 411.8 929.8 406.9 930 416.7 930.2 417.9 930.3 412 930.4 413.5 930.6 411.1 930.8 412.2 930.9 409.4 931.1 408.5 931.3 405 931.4 403.1 931.6 404.9 931.8 405 932.1 406.1 932.6 403.5 932.8 397.4 933 387.6 933 388.4 933.1 388.8 933.2 388 933.3 383.3 933.3 378 933.5 380.8 933.6 378.7 933.8 379.3 933.9 374.7 934 376.4" opacity=".6"/><text x="942" y="472" fill="#d97706" font-size="11" text-anchor="start">449.46</text><text x="942" y="396" fill="#d97706" font-size="11" text-anchor="start">496.84</text><text x="942" y="320" fill="#d97706" font-size="11" text-anchor="start">544.21</text><text x="942" y="244" fill="#d97706" font-size="11" text-anchor="start">591.59</text><text x="942" y="168" fill="#d97706" font-size="11" text-anchor="start">638.96</text><text x="942" y="92" fill="#d97706" font-size="11" text-anchor="start">686.34</text><text x="942" y="80" fill="#d97706" font-size="11" font-weight="600" text-anchor="start">price</text><polygon fill="#16a34a" fill-opacity=".08" points="157.1 468 157.1 234.8 157.1 200.4 232 220.2 361.2 249.9 390.5 294.6 868.6 161.4 926.1 116.1 926.1 468"/><polyline fill="none" stroke="#16a34a" stroke-linejoin="round" stroke-width="2" points="157.1 234.8 157.1 200.4 232 220.2 361.2 249.9 390.5 294.6 868.6 161.4 926.1 116.1"/><line x1="88" x2="110" y1="102" y2="102" stroke="#16a34a" stroke-width="2.5"/><text x="116" y="106" fill="#374151" font-size="11.5">equity</text><line x1="88" x2="110" y1="118" y2="118" stroke="#d97706" stroke-width="2.5" opacity=".8"/><text x="116" y="122" fill="#374151" font-size="11.5">price</text><text x="78" y="502" fill="#6b7280" font-size="12" text-anchor="start">2026-01-01</text><text x="934" y="502" fill="#6b7280" font-size="12" text-anchor="end">2026-01-31</text></svg>