<svg xmlns="http://www.w3.org/2000/svg" width="1100" height="560" font-family="ui-sans-serif, system-ui, sans-serif" viewBox="0 0 1100 560"><rect width="1100" height="560" fill="#fff"/><text x="80" y="28" fill="#111827" font-size="18" font-weight="700">Zone Recovery — AAVEUSDC fee-tier comparison (best setting)</text><text x="80" y="48" fill="#6b7280" font-size="12.5">lev 20 · ratio 2 · gap 20% · maxSteps 4 · maxDD 60% · random · equity per fee tier vip 0..9</text><text x="80" y="68" fill="#1d4ed8" font-size="12.5" font-weight="600">USDC margin · BNB −10%</text><line x1="80" x2="932" y1="508" y2="508" stroke="#e5e7eb" stroke-width="1"/><text x="70" y="512" fill="#6b7280" font-size="12" text-anchor="end">0.00</text><line x1="80" x2="932" y1="424" y2="424" stroke="#e5e7eb" stroke-width="1"/><text x="70" y="428" fill="#6b7280" font-size="12" text-anchor="end">23621</text><line x1="80" x2="932" y1="340" y2="340" stroke="#e5e7eb" stroke-width="1"/><text x="70" y="344" fill="#6b7280" font-size="12" text-anchor="end">47242</text><line x1="80" x2="932" y1="256" y2="256" stroke="#e5e7eb" stroke-width="1"/><text x="70" y="260" fill="#6b7280" font-size="12" text-anchor="end">70863</text><line x1="80" x2="932" y1="172" y2="172" stroke="#e5e7eb" stroke-width="1"/><text x="70" y="176" fill="#6b7280" font-size="12" text-anchor="end">94484</text><line x1="80" x2="932" y1="88" y2="88" stroke="#e5e7eb" stroke-width="1"/><text x="70" y="92" fill="#6b7280" font-size="12" text-anchor="end">118106</text><line x1="80" x2="932" y1="472.4" y2="472.4" stroke="#9ca3af" stroke-dasharray="6 4" stroke-width="1.5"/><polyline fill="none" stroke="#2563eb" stroke-linejoin="round" stroke-width="1.8" points="80 472.4 80 467.4 81 470.6 83.3 475.4 96.2 462.4 102.1 466 104.2 456.3 108.6 460.4 108.6 449.3 110.1 441 120.5 431.5 121.3 420.6 125.1 408.5 139.4 415.2 155.8 397.1 163.7 385 166 391.8 171.4 373.7 173.5 380.5 177.1 362 179 349.7 180.1 356.6 182.3 366.8 184.4 382.2 185 405.3 185.6 412.2 186 422.4 188 394.7 189 401.4 190 411.5 190.2 426.6 191.6 385.9 194.8 373.8 196 380.6 207 390.6 207.2 405.7 212.4 365 216.8 353 217.3 359.8 222.1 370.1 223.8 342.4 227 349.2 237.4 330.7 242.6 337.6 261.7 319.1 262.6 325.9 263 336.2 266.1 351.6 266.6 374.7 268.6 381.5 272.6 391.8 277.9 407.2 279.9 430.3 292.9 436.5 293.7 445.7 300.8 420.8 301.7 427.5 302 437.6 304.3 410.4 325.2 417.1 332.1 427.2 350.4 442.3 361.1 401.6 362.7 408.4 370 418.7 376.2 434.1 377.5 392.5 380.1 399.4 380.8 409.6 383.6 425 385.9 448.1 390.1 452.9 392.2 460 399.5 470.6 401.8 441.9 414.5 432.5 418.6 438.5 421.8 422.3 423.4 429.1 423.9 439.3 430.3 454.5 432.1 477.4 437.2 473.1 443 468.1 446.9 471.3 447.3 476 456.2 463.2 456.5 466.8 458.1 472.1 463.6 457.7 464 461.7 470.3 451 470.8 455.5 471 462.2 473.6 472.4 488.9 487.6 498.5 489.2 504.4 491.7 505.2 485.1 511.5 487 526.5 489.7 529.8 493.7 558.7 499.8 561.9 500.5 565 498.7 565 499.5 565.3 497.5 565.3 496 565.3 496.9 565.3 494.4 565.3 495.5 565.3 497.1 565.3 499.5 565.3 493 588.8 490.8 591.4 492.2 602.9 488.5 609.5 485.7 610.8 487.5 611 490.1 613.3 483 613.6 485 614.3 488 624.2 492.4 636.2 499.1 638.5 497.8 641.4 498.6 642.1 496.5 644 494.8 644.8 492.9 645.3 490.8 645.7 492.2 646.6 494.2 649.3 497.3 667.3 489 668.2 490.5 668.6 492.7 695.6 496.1 696.8 501.2 698.9 500.2 700.7 500.9 702.6 499.2 751.8 499.9 754 498 756.9 496.6 764.2 497.5 771.7 495.1 780.4 496.1 781.6 497.6 783 499.9 783.6 503.4 784.7 503.8 810.6 502.8 811.8 502 815.1 501.2 831.3 500.2 833.9 499.1 837.6 497.8 844.5 498.6 844.6 499.8 849.7 501.6 859.7 496.8 861.4 497.6 865.6 495.2 865.8 493.4 868.3 494.6 868.6 496.3 869.7 491.6 872.4 492.9 878.2 494.9 878.2 489.6 878.3 491.1 878.9 493.3 881 496.5 883.7 501.4 890.2 502 890.8 502.7 894.4 500.6 897.7 501.2 898.3 502.1 899 499.7 900.2 498.6 913.4 497.2 914.2 498.1 921.3 495.8 921.5 496.7 921.5 494.1 921.5 495.2 921.9 492.3 922.2 493.5 922.5 495.4 924.4 490.3 924.7 487.8 924.7 485 924.8 486.8 925.2 489.5 925.2 493.6 925.3 499.8 926.1 500.4 926.3 501.4 926.4 502.9 926.5 498.9 926.5 499.6 926.5 497.7 926.6 496.2 926.6 494.6 926.6 495.6 927.2 492.8 928.3 490.6 929.7 488.1 929.9 489.7 932 485.4" opacity=".9"/><polyline fill="none" stroke="#dc2626" stroke-linejoin="round" stroke-width="1.8" points="80 472.4 80 467.4 81 470.6 83.3 475.4 96.2 462.4 102.1 466 104.2 456.3 108.6 460.4 108.6 449.3 110.1 441 120.5 431.5 121.3 420.6 125.1 408.5 139.4 415.2 155.8 397.1 163.7 385 166 391.8 171.4 373.7 173.5 380.5 177.1 362 179 349.7 180.1 356.6 182.3 366.8 184.4 382.2 185 405.3 185.6 412.2 186 422.4 188 394.7 189 401.4 190 411.5 190.2 426.6 191.6 385.9 194.8 373.8 196 380.6 207 390.6 207.2 405.7 212.4 365 216.8 353 217.3 359.8 222.1 370.1 223.8 342.4 227 349.2 237.4 330.7 242.6 337.6 261.7 319.1 262.6 325.9 263 336.2 266.1 351.6 266.6 374.7 268.6 381.5 272.6 391.8 277.9 407.2 279.9 430.3 292.9 436.5 293.7 445.7 300.8 420.8 301.7 427.5 302 437.6 304.3 410.4 325.2 417.1 332.1 427.2 350.4 442.3 361.1 401.6 362.7 408.4 370 418.7 376.2 434.1 377.5 392.5 380.1 399.4 380.8 409.6 383.6 425 385.9 448.1 390.1 452.9 392.2 460 399.5 470.6 401.8 441.9 414.5 432.5 418.6 438.5 421.8 422.3 423.4 429.1 423.9 439.3 430.3 454.5 432.1 477.4 437.2 473.1 443 468.1 446.9 471.3 447.3 476 456.2 463.2 456.5 466.8 458.1 472.1 463.6 457.7 464 461.7 470.3 451 470.8 455.5 471 462.2 473.6 472.4 488.9 487.6 498.5 489.2 504.4 491.7 505.2 485.1 511.5 487 526.5 489.7 529.8 493.7 558.7 499.8 561.9 500.5 565 498.7 565 499.5 565.3 497.5 565.3 496 565.3 496.9 565.3 494.4 565.3 495.5 565.3 497.1 565.3 499.5 565.3 493 588.8 490.8 591.4 492.2 602.9 488.5 609.5 485.7 610.8 487.5 611 490.1 613.3 483 613.6 485 614.3 488 624.2 492.4 636.2 499.1 638.5 497.8 641.4 498.6 642.1 496.5 644 494.8 644.8 492.9 645.3 490.8 645.7 492.2 646.6 494.2 649.3 497.3 667.3 489 668.2 490.5 668.6 492.7 695.6 496.1 696.8 501.2 698.9 500.2 700.7 500.9 702.6 499.2 751.8 499.9 754 498 756.9 496.6 764.2 497.5 771.7 495.1 780.4 496.1 781.6 497.6 783 499.9 783.6 503.4 784.7 503.8 810.6 502.8 811.8 502 815.1 501.2 831.3 500.2 833.9 499.1 837.6 497.8 844.5 498.6 844.6 499.8 849.7 501.6 859.7 496.8 861.4 497.6 865.6 495.2 865.8 493.4 868.3 494.6 868.6 496.3 869.7 491.6 872.4 492.9 878.2 494.9 878.2 489.6 878.3 491.1 878.9 493.3 881 496.5 883.7 501.4 890.2 502 890.8 502.7 894.4 500.6 897.7 501.2 898.3 502.1 899 499.7 900.2 498.6 913.4 497.2 914.2 498.1 921.3 495.8 921.5 496.7 921.5 494.1 921.5 495.2 921.9 492.3 922.2 493.5 922.5 495.4 924.4 490.3 924.7 487.8 924.7 485 924.8 486.8 925.2 489.5 925.2 493.6 925.3 499.8 926.1 500.4 926.3 501.4 926.4 502.9 926.5 498.9 926.5 499.6 926.5 497.7 926.6 496.2 926.6 494.6 926.6 495.6 927.2 492.8 928.3 490.6 929.7 488.1 929.9 489.7 932 485.4" opacity=".9"/><polyline fill="none" stroke="#16a34a" stroke-linejoin="round" stroke-width="1.8" points="80 472.4 80 467.3 81 470.5 83.3 475.3 96.2 462.2 102.1 465.7 104.2 455.9 108.6 460 108.6 448.7 110.1 440.2 120.5 430.5 121.3 419.4 125.1 407.3 139.4 413.9 155.8 395.7 163.7 383.5 166 390.1 171.4 371.9 173.5 378.6 177.1 360 179 347.6 180.1 354.4 182.3 364.5 184.4 379.7 185 402.5 185.6 409.2 186 419.4 188 391.5 189 398.1 190 408 190.2 422.9 191.6 381.9 194.8 369.7 196 376.4 207 386.3 207.2 401.2 212.4 360.2 216.8 348 217.3 354.8 222.1 364.9 223.8 337 227 343.8 237.4 325.1 242.6 331.9 261.7 313.3 262.6 320 263 330.1 266.1 345.3 266.6 368.1 268.6 374.9 272.6 385 277.9 400.2 279.9 423 292.9 429.6 293.7 439.6 300.8 412.2 301.7 418.8 302 428.7 304.3 401.3 325.2 408 332.1 417.9 350.4 432.8 361.1 391.8 362.7 398.5 370 408.7 376.2 423.9 377.5 382 380.1 388.7 380.8 398.8 383.6 414 385.9 436.8 390.1 442.4 392.2 450.7 399.5 463.2 401.8 428.8 414.5 417.4 418.6 424.1 421.8 405.8 423.4 412.6 423.9 422.7 430.3 437.9 432.1 460.7 437.2 453.9 443 446.2 446.9 451 447.3 458.2 456.2 438.3 456.5 443.7 458.1 451.9 463.6 429.4 464 435.5 470.3 418.6 470.8 425.4 471 435.5 473.6 450.7 488.9 473.5 498.5 476.2 504.4 480.2 505.2 469.1 511.5 472.1 526.5 476.7 529.8 483.5 558.7 493.8 561.9 494.9 565 491.8 565 493.1 565.3 489.6 565.3 486.9 565.3 488.6 565.3 484.1 565.3 485.9 565.3 488.7 565.3 492.9 565.3 481.4 588.8 477.5 591.4 479.9 602.9 473.4 609.5 468.4 610.8 471.5 611 476.1 613.3 463.3 613.6 466.8 614.3 472.1 624.2 479.9 636.2 491.7 638.5 489.3 641.4 490.8 642.1 486.8 644 483.7 644.8 480.3 645.3 476.3 645.7 478.8 646.6 482.5 649.3 488 667.3 472.7 668.2 475.4 668.6 479.6 695.6 485.8 696.8 495.1 698.9 493.2 700.7 494.4 702.6 491.2 751.8 492.5 754 488.9 756.9 486.2 764.2 487.9 771.7 483.2 780.4 485.1 781.6 488 783 492.4 783.6 498.9 784.7 499.6 810.6 497.7 811.8 496.2 815.1 494.5 831.3 492.6 833.9 490.4 837.6 487.9 844.5 489.4 844.6 491.8 849.7 495.3 859.7 485.6 861.4 487.3 865.6 482.5 865.8 478.8 868.3 481.1 868.6 484.5 869.7 475.1 872.4 477.7 878.2 481.5 878.2 470.9 878.3 473.8 878.9 478.2 881 484.7 883.7 494.5 890.2 495.5 890.8 497.1 894.4 492.7 897.7 493.9 898.3 495.7 899 490.8 900.2 488.3 913.4 485.5 914.2 487.2 921.3 482.4 921.5 484.4 921.5 478.9 921.5 481.2 921.9 474.9 922.2 477.5 922.5 481.4 924.4 470.7 924.7 465.3 924.7 459.2 924.8 463 925.2 468.7 925.2 477.3 925.3 490.2 926.1 491.6 926.3 493.7 926.4 496.8 926.5 488.1 926.5 489.7 926.5 485.4 926.6 482.2 926.6 478.5 926.6 480.8 927.2 474.4 928.3 469.6 929.7 464.1 929.9 467.6 932 458.1" opacity=".9"/><polyline fill="none" stroke="#d97706" stroke-linejoin="round" stroke-width="1.8" points="80 472.4 80 467.3 81 470.5 83.3 475.2 96.2 462 102.1 465.5 104.2 455.6 108.6 459.6 108.6 448.3 110.1 439.6 120.5 429.8 121.3 418.5 125.1 406.3 139.4 412.8 155.8 394.5 163.7 382.2 166 388.8 171.4 370.5 173.5 377.1 177.1 358.4 179 345.9 180.1 352.6 182.3 362.6 184.4 377.7 185 400.2 185.6 406.9 186 416.9 188 388.8 189 395.4 190 405.2 190.2 419.9 191.6 378.7 194.8 366.4 196 373 207 382.8 207.2 397.6 212.4 356.3 216.8 344.1 217.3 350.7 222.1 360.8 223.8 332.7 227 339.4 237.4 320.6 242.6 327.3 261.7 308.6 262.6 315.3 263 325.3 266.1 340.3 266.6 362.9 268.6 369.5 272.6 379.6 277.9 394.6 279.9 417.1 292.9 423.8 293.7 433.8 300.8 405.8 301.7 412.3 302 422.1 304.3 394.6 325.2 401.2 332.1 411 350.4 425.7 361.1 384.5 362.7 391.1 370 401.2 376.2 416.2 377.5 374 380.1 380.7 380.8 390.7 383.6 405.8 385.9 428.3 390.1 434.5 392.2 443.7 399.5 457.6 401.8 418.8 414.5 406.3 418.6 412.8 421.8 394.5 423.4 401.2 423.9 411.2 430.3 426.2 432.1 448.8 437.2 440.2 443 430.4 446.9 436.4 447.3 445.4 456.2 420.2 456.5 426.9 458.1 436.9 463.6 408.9 464 415.5 470.3 396.8 470.8 403.5 471 413.5 473.6 428.5 488.9 451.1 498.5 455.5 504.4 462.1 505.2 443.6 511.5 448.6 526.5 456 529.8 467.2 558.7 484 561.9 485.9 565 480.7 565 482.8 565.3 476.9 565.3 472.4 565.3 475.1 565.3 467.4 565.3 470.5 565.3 475.2 565.3 482.3 565.3 462.5 588.8 456 591.4 460 602.9 448.7 609.5 440.2 610.8 445.4 611 453.3 613.3 431.3 613.6 437.2 614.3 446.1 624.2 459.4 636.2 479.4 638.5 475.3 641.4 477.8 642.1 470.8 644 465.4 644.8 459.3 645.3 452.2 645.7 456.5 646.6 463 649.3 472.7 667.3 445.5 668.2 450.3 668.6 457.6 695.6 468.4 696.8 484.7 698.9 481.4 700.7 483.4 702.6 477.7 751.8 480 754 473.4 756.9 468.4 764.2 471.5 771.7 462.9 780.4 466.4 781.6 471.6 783 479.5 783.6 491.2 784.7 492.5 810.6 488.9 811.8 486.1 815.1 483 831.3 479.4 833.9 475.2 837.6 470.5 844.5 473.4 844.6 477.8 849.7 484.3 859.7 466 861.4 469.2 865.6 460.2 865.8 453.2 868.3 457.5 868.6 463.8 869.7 446 872.4 450.8 878.2 458 878.2 437.9 878.3 443.3 878.9 451.4 881 463.6 883.7 481.9 890.2 483.9 890.8 486.9 894.4 478.5 897.7 480.8 898.3 484.2 899 474.6 900.2 469.8 913.4 464.3 914.2 467.6 921.3 458.2 921.5 462 921.5 451.2 921.5 455.6 921.9 443.3 922.2 448.3 922.5 455.8 924.4 434.8 924.7 424.2 924.7 412.2 924.8 418.7 925.2 428.5 925.2 443.3 925.3 465.4 926.1 468.7 926.3 473.6 926.4 481 926.5 460.2 926.5 463.9 926.5 453.6 926.6 445.7 926.6 436.7 926.6 442.3 927.2 426.8 928.3 415.1 929.7 402.7 929.9 409.2 932 390.9" opacity=".9"/><polyline fill="none" stroke="#7c3aed" stroke-linejoin="round" stroke-width="1.8" points="80 472.4 80 467.3 81 470.4 83.3 475 96.2 461.7 102.1 465.2 104.2 455.1 108.6 459.1 108.6 447.6 110.1 438.8 120.5 428.7 121.3 417.2 125.1 404.8 139.4 411.3 155.8 392.8 163.7 380.5 166 386.9 171.4 368.4 173.5 375 177.1 356.1 179 343.5 180.1 350.1 182.3 360 184.4 374.7 185 396.9 185.6 403.5 186 413.4 188 385.1 189 391.5 190 401.2 190.2 415.7 191.6 374.1 194.8 361.7 196 368.2 207 377.9 207.2 392.4 212.4 350.8 216.8 338.4 217.3 345 222.1 354.9 223.8 326.5 227 333.1 237.4 314.2 242.6 320.8 261.7 301.9 262.6 308.5 263 318.4 266.1 333.2 266.6 355.4 268.6 361.9 272.6 371.8 277.9 386.6 279.9 408.8 292.9 415.4 293.7 425.2 300.8 396.9 301.7 403.4 302 413 304.3 385.3 325.2 391.7 332.1 401.4 350.4 415.9 361.1 374.3 362.7 380.9 370 390.7 376.2 405.5 377.5 363 380.1 369.6 380.8 379.5 383.6 394.3 385.9 416.4 390.1 422.9 392.2 432.6 399.5 447.1 401.8 405.5 414.5 392.9 418.6 399.3 421.8 380.8 423.4 387.4 423.9 397.3 430.3 412.1 432.1 434.2 437.2 423.5 443 411.2 446.9 417.7 447.3 427.3 456.2 399.6 456.5 406.2 458.1 416 463.6 387.7 464 394.3 470.3 375.4 470.8 382 471 391.9 473.6 406.6 488.9 428.8 498.5 434.9 504.4 443.9 505.2 418 511.5 424.5 526.5 434.4 529.8 449.2 558.7 471.4 561.9 474.2 565 466.2 565 469.4 565.3 460.2 565.3 453.3 565.3 457.4 565.3 445.5 565.3 450.2 565.3 457.4 565.3 468.1 565.3 437.4 588.8 427.1 591.4 433.3 602.9 415.6 609.5 403.3 610.8 409.7 611 419.4 613.3 391.6 613.6 398.1 614.3 407.7 624.2 422.2 636.2 444 638.5 434.7 641.4 440.3 642.1 424.3 644 412.1 644.8 399.5 645.3 386.9 645.7 393.5 646.6 403.4 649.3 418.1 667.3 375.7 668.2 382.2 668.6 392.1 695.6 406.9 696.8 429.1 698.9 417.6 700.7 424.2 702.6 405.3 751.8 411.9 754 393 756.9 380.7 764.2 387.1 771.7 368.6 780.4 375.1 781.6 384.7 783 399.2 783.6 421 784.7 427.4 810.6 408.9 811.8 396.6 815.1 384 831.3 371.5 833.9 358.9 837.6 346.5 844.5 353.1 844.6 363 849.7 377.8 859.7 335.3 861.4 341.9 865.6 323 865.8 310.6 868.3 317.1 868.6 326.8 869.7 299 872.4 305.5 878.2 315.1 878.2 287.4 878.3 293.8 878.9 303.5 881 318 883.7 339.8 890.2 346.2 890.8 355.9 894.4 328.1 897.7 334.7 898.3 344.5 899 316.2 900.2 303.9 913.4 291.6 914.2 298.1 921.3 279.3 921.5 285.8 921.5 267 921.5 273.4 921.9 254.9 922.2 261.4 922.5 271 924.4 243.3 924.7 230.9 924.7 218.6 924.8 225.1 925.2 234.7 925.2 249.2 925.3 271 926.1 277.6 926.3 287.4 926.4 302.2 926.5 259.7 926.5 266.3 926.5 247.4 926.6 234.9 926.6 222.3 926.6 228.7 927.2 210.2 928.3 197.9 929.7 185.3 929.9 191.8 932 173.3" opacity=".9"/><polyline fill="none" stroke="#0891b2" stroke-linejoin="round" stroke-width="1.8" points="80 472.4 80 467.3 81 470.3 83.3 475 96.2 461.6 102.1 465.1 104.2 455 108.6 459 108.6 447.4 110.1 438.6 120.5 428.5 121.3 416.9 125.1 404.6 139.4 411 155.8 392.5 163.7 380.1 166 386.6 171.4 368 173.5 374.6 177.1 355.7 179 343.1 180.1 349.7 182.3 359.5 184.4 374.2 185 396.4 185.6 402.9 186 412.8 188 384.4 189 390.8 190 400.5 190.2 414.9 191.6 373.3 194.8 360.9 196 367.3 207 377 207.2 391.4 212.4 349.8 216.8 337.4 217.3 344 222.1 353.8 223.8 325.5 227 332 237.4 313.1 242.6 319.7 261.7 300.8 262.6 307.3 263 317.2 266.1 331.9 266.6 354 268.6 360.6 272.6 370.4 277.9 385.2 279.9 407.3 292.9 413.9 293.7 423.7 300.8 395.4 301.7 401.8 302 411.4 304.3 383.6 325.2 390.1 332.1 399.7 350.4 414.2 361.1 372.5 362.7 379 370 388.9 376.2 403.6 377.5 361.1 380.1 367.6 380.8 377.5 383.6 392.2 385.9 414.4 390.1 420.8 392.2 430.4 399.5 444.9 401.8 403.2 414.5 390.6 418.6 397.1 421.8 378.5 423.4 385.1 423.9 394.9 430.3 409.7 432.1 431.8 437.2 420.7 443 408.1 446.9 414.5 447.3 424.2 456.2 396.4 456.5 402.9 458.1 412.8 463.6 384.4 464 391 470.3 372.1 470.8 378.6 471 388.5 473.6 403.2 488.9 425.3 498.5 431.6 504.4 441 505.2 413.9 511.5 420.5 526.5 430.3 529.8 445.1 558.7 467.2 561.9 470.3 565 461.3 565 464.9 565.3 454.7 565.3 446.9 565.3 451.5 565.3 438.2 565.3 443.5 565.3 451.4 565.3 463.3 565.3 429 588.8 417.5 591.4 424.1 602.9 405.2 609.5 392.8 610.8 399.2 611 408.9 613.3 381.1 613.6 387.5 614.3 397.2 624.2 411.6 636.2 433.3 638.5 422.4 641.4 428.9 642.1 410.2 644 397.6 644.8 385 645.3 372.4 645.7 379 646.6 388.8 649.3 403.6 667.3 361 668.2 367.6 668.6 377.4 695.6 392.2 696.8 414.3 698.9 401.7 700.7 408.3 702.6 389.3 751.8 395.9 754 377 756.9 364.6 764.2 371.1 771.7 352.6 780.4 359 781.6 368.6 783 383.1 783.6 404.8 784.7 411.2 810.6 392.7 811.8 380.3 815.1 367.7 831.3 355.1 833.9 342.5 837.6 330.2 844.5 336.7 844.6 346.6 849.7 361.3 859.7 318.8 861.4 325.3 865.6 306.4 865.8 294.1 868.3 300.5 868.6 310.2 869.7 282.4 872.4 288.8 878.2 298.4 878.2 270.6 878.3 277.1 878.9 286.7 881 301.2 883.7 322.9 890.2 329.3 890.8 338.9 894.4 311.1 897.7 317.7 898.3 327.5 899 299.2 900.2 286.8 913.4 274.5 914.2 281 921.3 262.1 921.5 268.7 921.5 249.8 921.5 256.2 921.9 237.7 922.2 244.1 922.5 253.8 924.4 226 924.7 213.6 924.7 201.3 924.8 207.7 925.2 217.3 925.2 231.8 925.3 253.5 926.1 260 926.3 269.9 926.4 284.6 926.5 242.1 926.5 248.7 926.5 229.7 926.6 217.1 926.6 204.5 926.6 211 927.2 192.5 928.3 180.1 929.7 167.5 929.9 173.9 932 155.4" opacity=".9"/><polyline fill="none" stroke="#db2777" stroke-linejoin="round" stroke-width="1.8" points="80 472.4 80 467.3 81 470.3 83.3 475 96.2 461.6 102.1 465.1 104.2 455 108.6 459 108.6 447.4 110.1 438.5 120.5 428.4 121.3 416.8 125.1 404.4 139.4 410.8 155.8 392.3 163.7 379.9 166 386.3 171.4 367.8 173.5 374.3 177.1 355.4 179 342.8 180.1 349.3 182.3 359.2 184.4 373.9 185 396 185.6 402.5 186 412.3 188 384 189 390.4 190 400 190.2 414.4 191.6 372.7 194.8 360.3 196 366.8 207 376.4 207.2 390.8 212.4 349.1 216.8 336.7 217.3 343.3 222.1 353.1 223.8 324.7 227 331.3 237.4 312.3 242.6 318.9 261.7 300 262.6 306.5 263 316.3 266.1 331 266.6 353.1 268.6 359.7 272.6 369.5 277.9 384.2 279.9 406.3 292.9 412.8 293.7 422.7 300.8 394.3 301.7 400.7 302 410.3 304.3 382.5 325.2 388.9 332.1 398.5 350.4 413 361.1 371.3 362.7 377.8 370 387.6 376.2 402.3 377.5 359.8 380.1 366.3 380.8 376.1 383.6 390.8 385.9 412.9 390.1 419.3 392.2 429 399.5 443.4 401.8 401.7 414.5 389.1 418.6 395.5 421.8 377 423.4 383.5 423.9 393.3 430.3 408 432.1 430.1 437.2 418.8 443 406.1 446.9 412.6 447.3 422.2 456.2 394.4 456.5 400.9 458.1 410.7 463.6 382.3 464 388.9 470.3 370 470.8 376.5 471 386.3 473.6 401 488.9 423.1 498.5 429.6 504.4 439.2 505.2 411.3 511.5 417.9 526.5 427.7 529.8 442.4 558.7 464.5 561.9 467.8 565 458.3 565 462 565.3 451.2 565.3 442.9 565.3 447.8 565.3 433.5 565.3 439.2 565.3 447.6 565.3 460.3 565.3 423.7 588.8 411.4 591.4 417.9 602.9 399 609.5 386.6 610.8 393 611 402.7 613.3 374.8 613.6 381.3 614.3 390.9 624.2 405.3 636.2 427 638.5 415.2 641.4 421.7 642.1 402.8 644 390.2 644.8 377.6 645.3 364.9 645.7 371.5 646.6 381.3 649.3 396 667.3 353.4 668.2 360 668.6 369.8 695.6 384.5 696.8 406.6 698.9 394 700.7 400.5 702.6 381.6 751.8 388.2 754 369.2 756.9 356.9 764.2 363.3 771.7 344.8 780.4 351.2 781.6 360.8 783 375.2 783.6 396.9 784.7 403.3 810.6 384.8 811.8 372.4 815.1 359.8 831.3 347.2 833.9 334.6 837.6 322.2 844.5 328.7 844.6 338.5 849.7 353.3 859.7 310.7 861.4 317.2 865.6 298.3 865.8 285.9 868.3 292.4 868.6 302 869.7 274.2 872.4 280.6 878.2 290.2 878.2 262.4 878.3 268.8 878.9 278.4 881 292.9 883.7 314.5 890.2 320.9 890.8 330.5 894.4 302.7 897.7 309.3 898.3 319.1 899 290.7 900.2 278.3 913.4 266 914.2 272.5 921.3 253.6 921.5 260.1 921.5 241.2 921.5 247.6 921.9 229.1 922.2 235.5 922.5 245.1 924.4 217.3 924.7 204.9 924.7 192.6 924.8 199 925.2 208.6 925.2 223.1 925.3 244.7 926.1 251.3 926.3 261.1 926.4 275.8 926.5 233.2 926.5 239.8 926.5 220.8 926.6 208.2 926.6 195.6 926.6 202 927.2 183.5 928.3 171.1 929.7 158.5 929.9 164.9 932 146.4" opacity=".9"/><polyline fill="none" stroke="#65a30d" stroke-linejoin="round" stroke-width="1.8" points="80 472.4 80 467.2 81 470.3 83.3 474.9 96.2 461.5 102.1 465 104.2 454.9 108.6 458.9 108.6 447.2 110.1 438.4 120.5 428.2 121.3 416.5 125.1 404.1 139.4 410.5 155.8 392 163.7 379.6 166 386 171.4 367.4 173.5 373.9 177.1 355 179 342.3 180.1 348.9 182.3 358.7 184.4 373.3 185 395.4 185.6 401.9 186 411.7 188 383.2 189 389.6 190 399.2 190.2 413.6 191.6 371.8 194.8 359.5 196 365.9 207 375.5 207.2 389.8 212.4 348.1 216.8 335.7 217.3 342.2 222.1 352 223.8 323.6 227 330.1 237.4 311.1 242.6 317.7 261.7 298.7 262.6 305.2 263 315 266.1 329.7 266.6 351.7 268.6 358.2 272.6 368 277.9 382.7 279.9 404.7 292.9 411.3 293.7 421 300.8 392.6 301.7 399 302 408.6 304.3 380.8 325.2 387.1 332.1 396.7 350.4 411.1 361.1 369.4 362.7 375.9 370 385.7 376.2 400.3 377.5 357.7 380.1 364.2 380.8 374 383.6 388.7 385.9 410.7 390.1 417.1 392.2 426.7 399.5 441.1 401.8 399.3 414.5 386.7 418.6 393.1 421.8 374.5 423.4 381 423.9 390.8 430.3 405.5 432.1 427.5 437.2 415.8 443 403.1 446.9 409.5 447.3 419.1 456.2 391.3 456.5 397.8 458.1 407.6 463.6 379.1 464 385.7 470.3 366.7 470.8 373.2 471 383 473.6 397.7 488.9 419.7 498.5 426.2 504.4 436 505.2 407.6 511.5 414.1 526.5 423.9 529.8 438.6 558.7 460.6 561.9 464.2 565 453.8 565 457.9 565.3 446 565.3 437 565.3 442.3 565.3 426.8 565.3 432.9 565.3 442.1 565.3 455.9 565.3 415.8 588.8 403.2 591.4 409.7 602.9 390.8 609.5 378.4 610.8 384.8 611 394.4 613.3 366.5 613.6 372.9 614.3 382.5 624.2 396.9 636.2 418.5 638.5 405.9 641.4 412.4 642.1 393.4 644 380.8 644.8 368.2 645.3 355.5 645.7 362.1 646.6 371.9 649.3 386.5 667.3 343.9 668.2 350.4 668.6 360.2 695.6 374.9 696.8 396.9 698.9 384.3 700.7 390.8 702.6 371.8 751.8 378.4 754 359.4 756.9 347 764.2 353.4 771.7 334.8 780.4 341.2 781.6 350.8 783 365.2 783.6 386.8 784.7 393.2 810.6 374.6 811.8 362.3 815.1 349.6 831.3 337 833.9 324.4 837.6 312 844.5 318.5 844.6 328.3 849.7 343 859.7 300.3 861.4 306.9 865.6 287.9 865.8 275.5 868.3 281.9 868.6 291.5 869.7 263.6 872.4 270 878.2 279.6 878.2 251.8 878.3 258.2 878.9 267.8 881 282.2 883.7 303.7 890.2 310.1 890.8 319.7 894.4 291.9 897.7 298.4 898.3 308.2 899 279.8 900.2 267.4 913.4 255 914.2 261.5 921.3 242.6 921.5 249.1 921.5 230.1 921.5 236.5 921.9 218 922.2 224.4 922.5 234 924.4 206.1 924.7 193.7 924.7 181.3 924.8 187.7 925.2 197.3 925.2 211.7 925.3 233.3 926.1 239.8 926.3 249.6 926.4 264.3 926.5 221.6 926.5 228.2 926.5 209.2 926.6 196.6 926.6 183.9 926.6 190.3 927.2 171.8 928.3 159.4 929.7 146.8 929.9 153.2 932 134.6" opacity=".9"/><polyline fill="none" stroke="#475569" stroke-linejoin="round" stroke-width="1.8" points="80 472.4 80 467.2 81 470.3 83.3 474.9 96.2 461.5 102.1 465 104.2 454.8 108.6 458.8 108.6 447.1 110.1 438.3 120.5 428.1 121.3 416.4 125.1 404 139.4 410.3 155.8 391.8 163.7 379.4 166 385.7 171.4 367.2 173.5 373.7 177.1 354.7 179 342.1 180.1 348.6 182.3 358.3 184.4 373 185 395 185.6 401.5 186 411.2 188 382.8 189 389.2 190 398.8 190.2 413.1 191.6 371.3 194.8 358.9 196 365.3 207 374.9 207.2 389.2 212.4 347.4 216.8 335 217.3 341.5 222.1 351.3 223.8 322.8 227 329.3 237.4 310.4 242.6 316.9 261.7 297.9 262.6 304.4 263 314.2 266.1 328.8 266.6 350.8 268.6 357.3 272.6 367.1 277.9 381.7 279.9 403.7 292.9 410.2 293.7 420 300.8 391.6 301.7 397.9 302 407.5 304.3 379.6 325.2 386 332.1 395.6 350.4 409.9 361.1 368.1 362.7 374.6 370 384.4 376.2 399.1 377.5 356.4 380.1 362.9 380.8 372.6 383.6 387.3 385.9 409.3 390.1 415.7 392.2 425.2 399.5 439.6 401.8 397.8 414.5 385.1 418.6 391.5 421.8 372.9 423.4 379.4 423.9 389.2 430.3 403.9 432.1 425.8 437.2 413.8 443 401.2 446.9 407.6 447.3 417.1 456.2 389.2 456.5 395.8 458.1 405.5 463.6 377.1 464 383.6 470.3 364.6 470.8 371.1 471 380.9 473.6 395.5 488.9 417.5 498.5 424 504.4 433.8 505.2 405.3 511.5 411.9 526.5 421.6 529.8 436.3 558.7 458.3 561.9 462 565 451.1 565 455.4 565.3 442.9 565.3 433.4 565.3 439 565.3 422.6 565.3 429 565.3 438.6 565.3 452.9 565.3 411.1 588.8 398.5 591.4 405 602.9 386 609.5 373.6 610.8 380 611 389.6 613.3 361.7 613.6 368.1 614.3 377.6 624.2 392 636.2 413.5 638.5 400.9 641.4 407.4 642.1 388.4 644 375.8 644.8 363.2 645.3 350.5 645.7 357 646.6 366.8 649.3 381.4 667.3 338.8 668.2 345.3 668.6 355 695.6 369.7 696.8 391.7 698.9 379 700.7 385.5 702.6 366.6 751.8 373.1 754 354.1 756.9 341.7 764.2 348.1 771.7 329.5 780.4 335.9 781.6 345.5 783 359.8 783.6 381.4 784.7 387.8 810.6 369.2 811.8 356.8 815.1 344.1 831.3 331.5 833.9 318.8 837.6 306.4 844.5 313 844.6 322.7 849.7 337.4 859.7 294.7 861.4 301.2 865.6 282.2 865.8 269.8 868.3 276.2 868.6 285.8 869.7 257.9 872.4 264.3 878.2 273.9 878.2 246 878.3 252.3 878.9 261.9 881 276.3 883.7 297.8 890.2 304.2 890.8 313.8 894.4 285.9 897.7 292.4 898.3 302.2 899 273.7 900.2 261.3 913.4 248.9 914.2 255.5 921.3 236.5 921.5 243 921.5 224 921.5 230.4 921.9 211.8 922.2 218.2 922.5 227.8 924.4 199.9 924.7 187.5 924.7 175.1 924.8 181.5 925.2 191.1 925.2 205.4 925.3 227 926.1 233.5 926.3 243.2 926.4 257.9 926.5 215.2 926.5 221.7 926.5 202.7 926.6 190.1 926.6 177.5 926.6 183.8 927.2 165.3 928.3 152.9 929.7 140.2 929.9 146.6 932 128" opacity=".9"/><polyline fill="none" stroke="#ea580c" stroke-linejoin="round" stroke-width="1.8" points="80 472.4 80 467.2 81 470.3 83.3 474.9 96.2 461.5 102.1 464.9 104.2 454.7 108.6 458.7 108.6 447 110.1 438.1 120.5 427.9 121.3 416.1 125.1 403.7 139.4 410.1 155.8 391.5 163.7 379 166 385.4 171.4 366.8 173.5 373.3 177.1 354.3 179 341.6 180.1 348.1 182.3 357.9 184.4 372.5 185 394.4 185.6 400.9 186 410.6 188 382.1 189 388.5 190 398 190.2 412.4 191.6 370.5 194.8 358.1 196 364.4 207 374 207.2 388.3 212.4 346.4 216.8 334 217.3 340.5 222.1 350.2 223.8 321.7 227 328.2 237.4 309.2 242.6 315.7 261.7 296.7 262.6 303.2 263 313 266.1 327.6 266.6 349.5 268.6 356 272.6 365.7 277.9 380.3 279.9 402.3 292.9 408.7 293.7 418.5 300.8 390 301.7 396.4 302 405.9 304.3 378 325.2 384.3 332.1 393.9 350.4 408.2 361.1 366.3 362.7 372.8 370 382.6 376.2 397.2 377.5 354.4 380.1 360.9 380.8 370.7 383.6 385.3 385.9 407.2 390.1 413.6 392.2 423.1 399.5 437.4 401.8 395.5 414.5 382.9 418.6 389.2 421.8 370.6 423.4 377.1 423.9 386.9 430.3 401.5 432.1 423.4 437.2 411 443 398.3 446.9 404.7 447.3 414.2 456.2 386.3 456.5 392.8 458.1 402.5 463.6 374.1 464 380.5 470.3 361.5 470.8 368 471 377.8 473.6 392.4 488.9 414.3 498.5 420.8 504.4 430.5 505.2 402 511.5 408.5 526.5 418.3 529.8 432.9 558.7 454.8 561.9 458.8 565 447.1 565 451.7 565.3 438.3 565.3 428.1 565.3 434.1 565.3 416.6 565.3 422.9 565.3 432.5 565.3 446.8 565.3 404.9 588.8 392.2 591.4 398.7 602.9 379.7 609.5 367.3 610.8 373.7 611 383.2 613.3 355.3 613.6 361.7 614.3 371.2 624.2 385.5 636.2 407 638.5 394.4 641.4 400.9 642.1 381.9 644 369.2 644.8 356.5 645.3 343.9 645.7 350.4 646.6 360.1 649.3 374.7 667.3 332 668.2 338.5 668.6 348.2 695.6 362.8 696.8 384.7 698.9 372.1 700.7 378.6 702.6 359.6 751.8 366 754 347.1 756.9 334.6 764.2 341 771.7 322.4 780.4 328.8 781.6 338.3 783 352.6 783.6 374.1 784.7 380.5 810.6 361.9 811.8 349.4 815.1 336.8 831.3 324.1 833.9 311.5 837.6 299 844.5 305.5 844.6 315.3 849.7 329.9 859.7 287.1 861.4 293.6 865.6 274.6 865.8 262.2 868.3 268.6 868.6 278.1 869.7 250.2 872.4 256.6 878.2 266.1 878.2 238.2 878.3 244.6 878.9 254.1 881 268.4 883.7 289.9 890.2 296.3 890.8 305.8 894.4 277.9 897.7 284.4 898.3 294.1 899 265.6 900.2 253.2 913.4 240.8 914.2 247.3 921.3 228.3 921.5 234.8 921.5 215.8 921.5 222.2 921.9 203.5 922.2 209.9 922.5 219.5 924.4 191.5 924.7 179.1 924.7 166.7 924.8 173.1 925.2 182.6 925.2 196.9 925.3 218.4 926.1 224.9 926.3 234.7 926.4 249.3 926.5 206.5 926.5 213 926.5 194 926.6 181.4 926.6 168.7 926.6 175.1 927.2 156.4 928.3 144 929.7 131.4 929.9 137.7 932 119.1" opacity=".9"/><line x1="950" x2="972" y1="94" y2="94" stroke="#ea580c" stroke-width="3"/><text x="980" y="98" fill="#374151" font-size="12.5">vip 9 109357</text><line x1="950" x2="972" y1="116" y2="116" stroke="#475569" stroke-width="3"/><text x="980" y="120" fill="#374151" font-size="12.5">vip 8 106855</text><line x1="950" x2="972" y1="138" y2="138" stroke="#65a30d" stroke-width="3"/><text x="980" y="142" fill="#374151" font-size="12.5">vip 7 105005</text><line x1="950" x2="972" y1="160" y2="160" stroke="#db2777" stroke-width="3"/><text x="980" y="164" fill="#374151" font-size="12.5">vip 6 101688</text><line x1="950" x2="972" y1="182" y2="182" stroke="#0891b2" stroke-width="3"/><text x="980" y="186" fill="#374151" font-size="12.5">vip 5 99149</text><line x1="950" x2="972" y1="204" y2="204" stroke="#7c3aed" stroke-width="3"/><text x="980" y="208" fill="#374151" font-size="12.5">vip 4 94129</text><line x1="950" x2="972" y1="226" y2="226" stroke="#d97706" stroke-width="3"/><text x="980" y="230" fill="#374151" font-size="12.5">vip 3 32939</text><line x1="950" x2="972" y1="248" y2="248" stroke="#16a34a" stroke-width="3"/><text x="980" y="252" fill="#374151" font-size="12.5">vip 2 14025</text><line x1="950" x2="972" y1="270" y2="270" stroke="#2563eb" stroke-width="3"/><text x="980" y="274" fill="#374151" font-size="12.5">vip 0 6345</text><line x1="950" x2="972" y1="292" y2="292" stroke="#dc2626" stroke-width="3"/><text x="980" y="296" fill="#374151" font-size="12.5">vip 1 6345</text><text x="80" y="542" fill="#6b7280" font-size="12" text-anchor="start">2026-01-01</text><text x="932" y="542" fill="#6b7280" font-size="12" text-anchor="end">2026-01-31</text></svg>