<svg xmlns="http://www.w3.org/2000/svg" width="1000" height="520" font-family="ui-sans-serif, system-ui, sans-serif" viewBox="0 0 1000 520"><rect width="1000" height="520" fill="#fff"/><text x="78" y="28" fill="#111827" font-size="18" font-weight="700">Zone Recovery — WLFIUSDC best setting (equity / PnL)</text><text x="78" y="48" fill="#6b7280" font-size="12.5">lev 10 · ratio 4 · gap 35% · maxSteps 4 · maxDD 60% · random · vip 9 · 15 series, 86.7% win · vol $3904669 ($3904889/day) · fees $330.34</text><text x="78" y="68" fill="#1d4ed8" font-size="12.5" font-weight="600">USDC · BNB −10% · taker 0.0085%</text><text x="934" y="28" fill="#16a34a" font-size="18" font-weight="700" text-anchor="end">+79201 USDT (+792.01%)</text><line x1="78" x2="934" y1="468" y2="468" stroke="#e5e7eb" stroke-width="1"/><text x="68" y="472" fill="#6b7280" font-size="12" text-anchor="end">0.00</text><line x1="78" x2="934" y1="392" y2="392" stroke="#e5e7eb" stroke-width="1"/><text x="68" y="396" fill="#6b7280" font-size="12" text-anchor="end">20169</text><line x1="78" x2="934" y1="316" y2="316" stroke="#e5e7eb" stroke-width="1"/><text x="68" y="320" fill="#6b7280" font-size="12" text-anchor="end">40338</text><line x1="78" x2="934" y1="240" y2="240" stroke="#e5e7eb" stroke-width="1"/><text x="68" y="244" fill="#6b7280" font-size="12" text-anchor="end">60507</text><line x1="78" x2="934" y1="164" y2="164" stroke="#e5e7eb" stroke-width="1"/><text x="68" y="168" fill="#6b7280" font-size="12" text-anchor="end">80676</text><line x1="78" x2="934" y1="88" y2="88" stroke="#e5e7eb" stroke-width="1"/><text x="68" y="92" fill="#6b7280" font-size="12" text-anchor="end">100845</text><line x1="78" x2="934" y1="430.3" y2="430.3" stroke="#9ca3af" stroke-dasharray="6 4" stroke-width="1.5"/><text x="934" y="424.3" fill="#6b7280" font-size="11" text-anchor="end">start 10000</text><polyline fill="none" stroke="#d97706" stroke-linejoin="round" stroke-width="1.2" points="78 118.4 79.7 115.7 80.3 116 81 114.8 81.9 116.9 84.7 117.2 87 116.6 91 116.6 95.6 114.8 96.9 117.2 100.4 116.9 106.3 118.7 108 119 112.1 118.7 114.8 118.1 119.1 117.8 123.4 118.7 126.8 117.8 129.1 117.8 132.4 119.6 136.2 119.3 139.2 119.3 142.4 119.9 144.8 119.9 150.4 119.9 152.2 121.7 152.7 122.6 154 124.4 155 123.2 157.9 123.2 160.7 122.3 163.7 122.6 167.2 122.6 169.7 124.7 174 122.6 175.8 122.9 178.5 123.8 180.3 125 181.5 125 186.2 123.5 188.4 124.7 192.1 124.4 194.7 122.6 198 120.5 200 119.3 202.3 119.6 203.3 117.5 204.1 116.6 204.8 118.1 205.9 116.9 207.4 116.6 209.3 117.2 210.7 116.6 213 116 215.8 116.9 217 117.5 218.1 119.3 220.7 118.7 223.6 116.6 225.5 115.4 228.4 116.3 230.3 117.5 231.6 118.1 233.6 118.1 235.7 118.7 238 118.4 240.1 117.5 242.5 119.3 244 119.9 247.5 120.2 248.7 121.1 251.1 121.7 257.1 121.1 259.2 122.6 260.8 122.6 263.5 122.6 264.8 121.7 266.6 120.2 268.8 119.6 270.8 119.3 272.8 119.6 274.7 119.6 275.9 120.2 277 120.8 279.8 120.2 282.3 118.1 284.1 117.8 285 119 287.7 117.5 290 117.2 292.3 115.7 293.3 117.2 295.5 117.8 297.9 118.7 301.6 119.3 304.4 119.9 306.4 122.9 306.4 127.1 306.4 125.3 306.4 126.2 306.4 125.6 306.4 125.6 306.4 124.4 306.4 123.8 306.8 122.3 308.3 123.2 308.9 125.3 309.7 124.1 310.3 123.8 311.3 123.8 312.9 123.5 314 125.3 315.1 126.2 316.6 124.4 318.6 125.6 320.8 125.9 321.5 127.7 322 127.7 322.6 128.3 322.9 127.4 324 127.1 326.4 126.5 328.9 125.9 330.5 126.8 331.9 127.4 333.1 127.7 336.2 127.4 337.5 128.6 338.6 129.8 340.2 127.7 342.2 128.6 344.4 127.4 346.3 128 348.4 129.5 350.1 128 352.2 128.3 355.6 130.4 357.2 129.8 358.9 129.2 361.5 129.8 365.2 128.9 366.9 129.2 367.9 128.6 369.9 127.7 372.8 126.2 374.9 127.4 379.4 127.7 383.6 128.3 383.9 129.8 384.3 129.8 386.8 129.2 389.4 130.1 392.1 128.3 395.7 128 398.7 126.8 399.7 127.4 400.5 127.1 403.2 128.3 406.8 127.4 411.9 128.9 416.3 125.9 419 125 424.6 126.5 428.4 127.4 429.7 128.3 431.5 127.4 435.7 127.4 439.2 125.9 442.8 126.2 445.7 125.9 449.7 125.6 453.9 127.1 455.1 127.4 458.1 126.8 464.1 126.2 468 125.3 471.3 125 474.8 124.4 477.6 125.3 481.8 125.6 484.4 126.2 489.1 125.9 494.9 125.6 499.9 127.1 503.7 126.2 509 125.6 512.1 124.1 514.3 125.6 516.3 125 520.5 124.1 522.2 124.4 525.1 124.7 528.7 125 532.3 124.7 535.8 125 542.5 125 544 124.1 545.5 123.5 547.3 122.6 550.7 123.2 552.8 122.6 555.8 122.9 559.1 122.3 560.6 121.7 561.8 122 563.1 121.7 564.4 120.5 564.9 119.6 566.2 119.9 566.9 118.7 568.5 119.9 569.9 120.8 571.5 122.9 572.5 123.8 573.2 123.5 573.9 124.1 574.8 123.5 577.4 121.7 578.3 122.9 579.3 120.8 580.6 120.2 581.7 120.2 582.6 119.9 584.1 120.2 586.2 122 587.2 122 587.9 124.1 588.8 124.4 589.7 123.2 590.8 123.5 591.6 125.3 592.6 124.4 594.7 125.9 595.8 124.1 596.8 124.1 598.7 125.3 599.7 126.2 601.3 126.8 602.4 128 602.7 128.6 603.9 127.4 605.1 129.2 606.4 128 608.1 126.8 609.8 127.7 611.8 128 611.9 131.3 611.9 130.4 612 131.9 612.1 131.3 612.3 133.7 612.4 132.8 612.5 130.1 612.6 132.2 612.8 131 613 132.2 613.1 131.6 613.3 131.6 613.4 133.4 613.6 134 613.7 133.1 613.8 134.3 613.9 134.3 614.1 134.9 614.2 135.5 614.3 135.5 614.5 136.4 614.6 136.7 614.6 136.1 614.8 135.8 615 134.6 615.1 134.3 615.4 135.8 615.5 136.1 615.7 138.2 615.7 139.4 615.8 139.4 616 137.6 616 137.9 616.1 137.9 616.3 137 616.5 136.7 616.6 135.5 616.8 137.3 616.9 136.4 617.1 133.7 617.2 134.3 617.4 134 617.6 133.1 617.9 132.8 618.1 133.4 618.4 134.3 618.8 134.9 619.1 133.1 619.6 131.9 620.1 132.2 620.5 133.1 621.1 132.8 621.9 133.1 622.5 132.5 623 133.1 623.4 134.6 623.6 135.8 623.7 134.6 624 135.8 624.4 136.1 624.7 136.7 625 137.6 625.3 137 625.7 137.6 625.9 138.8 626 140 626 140.6 626.1 142.4 626.1 140 626.2 140.9 626.4 140.3 626.6 139.7 626.7 138.8 626.9 139.7 627.1 140.6 627.3 140.3 627.4 140 627.7 142.1 627.8 141.8 627.9 142.4 628 142.1 628 143.3 628.1 144.2 628.2 143.3 628.4 144.5 628.5 142.1 628.6 141.8 628.8 143.6 629 143.6 629.1 143.6 629.3 141.8 629.3 140 629.3 140.6 629.4 140.3 629.6 139.4 629.8 140.6 630.2 140.6 630.4 141.2 630.9 142.4 631 143 631.1 145.4 631.2 146.3 631.2 148.7 631.2 149.6 631.2 149 631.2 149.3 631.2 149.3 631.2 150.5 631.3 150.8 631.3 151.4 631.3 152 631.3 154.1 631.3 157.7 631.4 157.4 631.4 158.9 631.4 158.9 631.4 155.6 631.4 155 631.4 157.4 631.4 156.8 631.5 155.6 631.5 159.5 631.5 155.9 631.5 154.4 631.6 155.6 631.6 156.2 631.6 155.6 631.6 157.1 631.7 158.3 631.7 159.5 631.7 163.1 631.8 167.9 631.8 168.8 631.8 170 631.8 172.1 631.8 175.6 631.8 175.9 631.8 176.8 631.8 182.2 631.8 187.3 631.8 191.2 631.8 195.1 631.8 196.6 631.8 197.2 631.8 193.3 631.8 195.1 631.8 194.2 631.8 190.6 631.9 188.8 631.9 188.5 631.9 192.7 631.9 196.3 631.9 199.3 631.9 202.3 631.9 205.3 631.9 209.2 631.9 215.5 631.9 216.4 631.9 222.7 631.9 225.1 631.9 226.9 631.9 229 631.9 235.6 631.9 233.2 631.9 235.3 631.9 231.4 631.9 246.7 631.9 254.5 631.9 265 631.9 262.3 631.9 254.8 631.9 247.9 631.9 251.5 631.9 250 631.9 254.8 631.9 258.1 631.9 262.3 631.9 262 631.9 268.6 632 275.5 632 279 632 284.4 632 285.9 632 292.5 632 289.2 632 284.7 632 282.9 632 284.1 632 285.6 632 280.8 632 273.4 632 271.6 632 267.1 632 263.8 632 264.4 632 259 632 266.2 632 259.9 632 251.8 632 256.3 632 248.8 632 245.5 632 238.9 632 235 632 236.5 632 244 632 248.8 632 252.7 632 255.1 632 255.7 632 249.7 632 244 632 240.4 632.1 241 632.1 243.7 632.1 239.5 632.1 242.5 632.1 241.9 632.1 241.9 632.1 244.3 632.1 244.9 632.1 239.5 632.1 237.1 632.1 235.3 632.1 234.1 632.2 230.5 632.2 228.4 632.2 228.7 632.2 232.3 632.2 233.5 632.2 235.6 632.2 236.8 632.2 236.8 632.2 242.8 632.2 248.2 632.3 245.5 632.3 239.8 632.3 235 632.3 231.7 632.3 232.6 632.3 231.4 632.4 232.6 632.4 232.9 632.4 231.7 632.4 230.5 632.5 232 632.5 236.5 632.5 232.6 632.5 229.9 632.5 231.7 632.6 229.6 632.6 235.9 632.6 235.6 632.6 234.7 632.6 233.8 632.6 230.8 632.6 229.9 632.7 232.6 632.7 232 632.7 232 632.7 233.5 632.7 232.6 632.7 232 632.7 233.8 632.7 231.7 632.8 235.6 632.8 231.4 632.8 230.2 632.8 234.7 632.8 231.7 632.8 232.9 632.9 234.4 632.9 238.3 632.9 239.2 632.9 241.6 632.9 241.9 632.9 238.3 632.9 236.5 632.9 234.1 632.9 230.8 632.9 230.8 633 228.4 633 225.7 633 223.6 633 220.3 633 222.4 633 221.5 633 221.2 633.1 222.7 633.1 221.5 633.1 223.6 633.2 220.6 633.2 222.7 633.2 224.8 633.2 230.2 633.2 228.4 633.2 227.5 633.3 224.5 633.3 224.8 633.3 222.7 633.4 223 633.4 222.7 633.4 225.7 633.5 227.2 633.5 225.1 633.6 225.4 633.6 220 633.6 221.2 633.6 221.5 633.6 222.1 633.7 223 633.7 222.4 633.7 223.6 633.8 223.6 633.8 223 633.8 221.2 633.9 218.5 633.9 216.7 633.9 219.4 633.9 219.4 634 217.6 634 217.9 634.1 218.5 634.1 218.5 634.2 219.1 634.2 219.1 634.3 219.1 634.3 216.7 634.4 215.5 634.4 215.8 634.4 214.3 634.5 216.7 634.5 216.1 634.6 216.7 634.6 217.6 634.6 219.1 634.7 218.5 634.7 217.3 634.8 215.8 634.9 214.3 634.9 213.4 635 211.9 635 212.8 635 212.2 635.1 212.8 635.2 210.7 635.2 208.6 635.3 210.4 635.4 211.6 635.4 212.5 635.4 214.3 635.5 215.5 635.5 216.1 635.6 215.8 635.6 212.8 635.6 213.7 635.7 215.2 635.8 213.7 635.9 213.4 635.9 214 636 215.2 636 217 636.1 216.7 636.2 216.7 636.3 216.1 636.3 216.1 636.4 215.8 636.5 212.2 636.5 212.5 636.5 211.6 636.6 211.3 636.6 211 636.7 210.1 636.8 210.1 636.8 210.1 636.9 208.3 636.9 204.1 636.9 205.9 636.9 203.2 637 208 637 209.8 637 212.8 637.1 211.6 637.1 209.8 637.1 209.8 637.2 209.5 637.3 210.1 637.4 208.9 637.4 208.6 637.5 206.8 637.6 206.2 637.6 205.6 637.7 203.5 637.7 202.9 637.8 201.7 637.8 204.4 637.9 205.6 638 205.9 638 206.2 638.1 206.5 638.1 206.8 638.2 209.2 638.2 209.8 638.3 209.5 638.4 209.5 638.4 209.2 638.5 208.9 638.5 210.1 638.6 209.2 638.6 208.9 638.6 208.3 638.7 208 638.7 208.6 638.8 206.5 638.9 206.8 638.9 206.8 639 205.9 639 205.3 639.1 205.3 639.1 205.3 639.2 205 639.3 205.6 639.3 205.9 639.4 204.4 639.4 206.5 639.5 205 639.5 205 639.5 202.3 639.6 204.1 639.6 204.7 639.7 206.8 639.7 206.8 639.7 205.9 639.8 207.1 639.8 206.5 639.8 207.7 639.9 207.4 640 207.4 640 207.1 640.1 207.1 640.2 206.8 640.2 208 640.3 208.3 640.4 207.1 640.4 207.4 640.5 205.9 640.6 203.8 640.6 204.7 640.7 204.7 640.8 205 640.8 205.9 641 206.2 641 206.8 641.1 207.1 641.2 207.4 641.3 208.3 641.4 207.1 641.5 208 641.5 208.6 641.6 209.2 641.6 210.4 641.7 211.3 641.7 210.7 641.8 210.7 641.9 212.2 641.9 214.6 641.9 214.3 642 213.1 642 216.4 642 217.3 642 218.2 642.1 216.4 642.1 217 642.1 218.5 642.1 218.5 642.2 217 642.2 215.5 642.2 215.8 642.3 214.9 642.4 215.8 642.4 214.6 642.5 215.2 642.6 215.2 642.7 214.9 642.8 214.9 642.9 214.9 642.9 213.1 643 214.6 643.1 213.7 643.1 212.5 643.2 213.4 643.3 213.4 643.4 214 643.5 213.7 643.6 213.1 643.6 213.7 643.7 213.1 643.9 213.4 643.9 213.1 644 212.8 644.1 211.3 644.2 213.1 644.3 213.1 644.4 211.6 644.4 213.7 644.4 211 644.5 212.5 644.7 214 644.8 216.1 644.9 215.5 645 217.3 645.1 218.5 645.1 219.7 645.1 217.6 645.2 219.1 645.3 216.7 645.4 216.4 645.6 217.6 645.7 218.5 645.8 220.6 645.8 221.8 645.9 223.9 646 222.1 646.1 220 646.2 219.7 646.3 220.3 646.4 220.9 646.5 222.7 646.7 223.3 646.7 220.9 646.8 222.4 646.8 223.3 646.9 220.9 647 220.6 647.2 219.4 647.3 220.9 647.5 219.7 647.6 223 647.8 222.1 647.9 220.9 648.1 219.7 648.2 220 648.4 220 648.6 219.1 648.7 219.1 648.9 220.3 649 220.3 649.1 220 649.2 219.7 649.3 220.9 649.4 222.1 649.5 221.5 649.6 223.9 649.8 221.8 649.9 220.3 650 222.4 650.1 223.9 650.4 222.4 650.5 223.6 650.7 220.9 650.8 222.4 650.9 221.2 650.9 221.5 651.1 220.6 651.3 222.7 651.5 223.6 651.7 221.8 651.7 221.8 651.8 222.4 652 221.5 652.1 220 652.1 217.9 652.3 218.8 652.4 218.5 652.5 218.2 652.7 216.7 652.8 217.3 652.9 217.6 653.1 218.2 653.3 216.4 653.4 214.6 653.5 214.9 653.6 215.5 653.7 214 653.8 212.2 653.8 211.6 653.9 212.5 654 212.5 654.1 213.1 654.2 212.8 654.3 214.9 654.5 214.9 654.6 213.4 654.7 215.2 654.9 215.5 654.9 216.4 655.2 217.3 655.4 216.7 655.5 216.4 655.7 217 656 216.1 656.2 216.1 656.4 216.1 656.6 214.9 657 214.6 657.2 214.9 657.6 215.5 657.8 214.9 658.1 215.2 658.4 215.5 658.7 214.6 658.8 214.6 658.9 213.7 659 213.4 659.1 211.9 659.3 211 659.4 211.3 659.4 210.4 659.5 210.1 659.6 214.3 659.6 215.8 659.7 213.7 659.7 212.2 659.8 210.7 659.9 211.3 660.1 211.3 660.2 210.7 660.3 210.1 660.3 209.5 660.4 211.3 660.5 209.5 660.5 209.5 660.6 210.1 660.6 208.6 660.8 208 660.9 207.4 661 208 661.1 208 661.2 208.6 661.3 208.3 661.4 208 661.6 207.7 661.8 208.3 662 207.7 662.2 208.6 662.4 206.8 662.4 208 662.9 207.1 663 207.4 663.1 208.3 663.1 208.3 663.2 207.7 663.4 207.1 663.6 207.4 664 206.5 664.2 206.8 664.5 206.8 664.8 206.5 665 206.8 665.2 206.8 665.4 206.2 665.6 206.2 665.7 205.6 665.9 206.5 666.2 206.8 666.3 207.1 666.8 207.1 667.1 207.4 667.1 207.7 667.2 207.7 667.2 207.7 667.3 207.7 667.5 207.7 667.7 207.4 667.9 207.1 668.2 206.5 668.5 206.8 668.7 206.8 668.9 206.2 668.9 205.6 669 205 669.1 204.1 669.1 203.8 669.2 203.5 669.3 202.9 669.4 202.6 669.7 201.7 669.9 202 670.1 200.2 670.1 201.7 670.2 200.5 670.4 198.7 670.5 199.9 670.6 200.2 670.7 200.8 670.8 201.7 670.9 200.8 671.1 200.8 671.3 200.5 671.6 199.3 671.9 201.4 672.1 200.8 672.3 201.1 672.5 202.3 672.8 202.6 672.9 202.6 673.1 204.7 673.2 205 673.5 206.2 673.6 206.5 673.9 205.9 674.3 206.2 674.7 205.3 675 205.6 675.4 206.5 675.7 205.9 675.8 206.2 676.2 204.7 676.5 203.2 676.7 202.9 676.8 202 676.9 201.1 677.1 201.1 677.4 202.3 677.7 203.8 678 202.9 678.4 202.6 678.7 202.6 679.2 203.2 679.3 202.6 679.5 203.2 679.6 203.2 679.8 203.2 679.9 202.6 680 202.9 680.1 202.6 680.2 202 680.3 202.3 680.4 202.3 680.5 202.6 680.6 202.6 680.7 202.9 680.8 203.2 680.9 203.5 680.9 202.3 681 202.9 681.1 202.9 681.2 202.3 681.3 202.9 681.4 202 682.2 201.4 682.5 201.4 683 201.7 683.6 201.1 683.9 202.6 684.4 202 684.7 201.7 684.8 200.2 685 200.2 685.3 200.5 685.4 198.4 685.4 195.4 685.5 195.1 685.6 196.3 685.8 196.3 686.1 196.3 686.4 197.2 686.6 199 687 199 687.4 200.8 687.5 201.7 687.7 201.7 687.9 202.3 688.2 202 688.8 201.7 689 203.5 689.2 202 689.8 200.8 690.3 199.6 690.6 199.6 691.3 200.5 691.6 199.3 691.8 199.9 692.1 200.5 692.4 201.7 692.6 203.2 692.7 201.7 693 203.2 693.3 203.8 693.8 203.2 694.3 203.5 694.7 201.7 695.3 201.4 695.8 203.2 696.4 203.2 696.6 205 697 203.8 697.5 202.3 698 200.5 698.6 200.2 699.1 202.9 699.6 202.3 700.4 202 701 201.1 701.6 200.2 702.1 201.4 702.4 199.6 702.8 200.5 703.2 199.9 703.7 201.4 704.6 201.4 705.2 200.2 705.7 203.2 706.6 201.4 707.3 200.5 708.2 201.1 708.5 202.6 708.5 203.5 708.8 203.2 709.8 201.4 710.6 202 711.1 202 711.7 202.9 712.1 204.4 712.5 202.3 713.2 201.1 713.6 201.4 714.1 202.3 715.3 201.4 716.1 202.6 717.2 202.3 717.7 202.9 718.8 204.1 719.4 204.1 720.1 204.4 720.4 205.3 720.8 205 721.3 203.2 721.7 203.8 722.2 204.4 723.1 203.5 724 202.6 724.8 202 725.6 202.9 726.3 202.9 727.8 202.6 728.8 201.7 729.6 202.3 730.3 201.7 730.9 200.8 732 201.4 732.7 200.5 733.3 200.2 733.7 198.7 733.9 197.2 734.4 197.8 734.7 197.5 734.9 196.3 735.6 197.8 736.4 199.3 737 199.6 737.7 200.8 738.3 199.9 738.7 200.2 739.5 200.5 740.4 202 741.7 202.3 742.3 202.6 743.3 201.7 744 203.8 744.6 203.2 746 201.4 746.4 199.9 746.6 200.5 747 199.9 748 200.5 748.6 202.6 749.2 204.1 749.8 202.6 750.3 202 750.6 202 750.7 200.2 750.8 198.4 750.9 197.8 751.1 199 751.4 199.6 752 200.5 752.8 200.2 753.2 199.3 753.8 199.3 754.6 199.3 755.1 201.4 755.7 201.1 756.2 200.5 756.4 199.3 756.7 198.7 757.1 199 757.4 199.6 757.9 199.9 758.3 201.1 758.8 201.7 759.1 201.7 759.4 200.2 759.6 199 759.6 197.5 759.7 197.2 760 198.7 760.3 197.8 760.9 197.8 761.2 197.5 761.5 198.1 761.7 198.4 762 198.7 762.4 196.3 762.6 196 762.7 196.3 762.8 196.6 763 196.9 763.2 196.3 763.4 195.4 763.6 195.1 763.8 194.2 764 194.2 764 192.4 764.1 192.7 764.1 190 764.1 187.9 764.1 187.6 764.2 185.8 764.2 186.7 764.2 184.6 764.3 185.5 764.3 183.7 764.3 181 764.3 181.9 764.3 178.9 764.3 178.3 764.4 178.6 764.4 179.8 764.4 182.5 764.4 184 764.5 184.3 764.5 184.9 764.5 184 764.6 184.6 764.6 184.6 764.7 183.7 764.7 185.5 764.9 185.5 765.1 186.4 765.3 185.2 765.5 185.8 765.6 184 765.8 183.4 766.1 183.1 766.3 179.5 766.4 181.3 766.5 180.7 766.7 179.2 767 180.7 767.1 182.5 767.4 181 767.6 180.1 767.7 178.3 767.8 180.4 767.9 178.9 767.9 175 767.9 173.3 767.9 171.2 767.9 170 767.9 170.6 767.9 170.6 768 171.2 768 172.7 768 173.3 768 174.7 768.1 175.3 768.2 175.3 768.2 177.4 768.3 177.4 768.3 179.5 768.4 177.1 768.4 174.1 768.4 170.6 768.5 171.8 768.5 172.4 768.5 174.7 768.6 175.9 768.7 175.3 768.8 177.1 768.9 176.5 768.9 176.5 769 175.6 769.1 177.1 769.4 176.5 769.5 179.2 769.8 178.3 770 178 770.2 176.5 770.4 175.6 770.6 176.8 770.8 176.8 770.9 175 771.1 175.9 771.4 177.1 771.7 178.6 771.8 176.2 772 176.8 772.1 175.9 772.3 175.6 772.4 175 772.7 177.7 772.8 178.9 772.9 180.1 773 178.6 773.1 177.4 773.3 180.1 773.4 180.7 773.5 182.2 773.6 180.1 773.7 178.3 773.7 178.3 773.8 177.7 774 177.7 774.2 178.9 774.6 178.9 774.7 178.3 774.8 176.2 775 174.7 775.1 173.3 775.2 176.2 775.4 175.6 775.5 176.8 775.8 176.8 776.1 176.2 776.5 177.1 776.6 177.7 777 178.3 777.5 178.3 777.7 177.1 778.1 174.7 778.3 175 778.7 175.6 778.9 177.4 779.2 178.3 779.5 177.1 779.9 176.8 780.2 177.1 780.7 174.7 780.7 175.9 780.9 174.7 781.2 173.6 781.5 174.4 781.9 173.3 782.3 173.8 782.5 174.1 782.8 175.6 782.8 171.5 782.9 172.4 783.1 172.7 783.3 174.4 783.5 175.3 784 174.7 784.5 174.1 784.8 172.1 784.9 171.5 785.3 173.6 785.6 173.8 785.8 175.9 786.2 176.2 787 174.7 787.3 173 787.5 171.5 787.7 170.6 788 170.9 788.2 172.4 788.5 172.1 789.2 173 789.7 172.7 790 172.7 790.2 169.1 790.2 168.2 790.3 167 790.4 166.7 790.5 164.6 790.6 164.6 790.7 164.3 790.8 165.8 790.9 168.2 791.2 167.6 791.4 164.9 791.6 166.7 791.8 167.6 792.2 168.5 792.4 166.4 792.6 166.1 793.1 165.8 793.3 166.1 793.8 165.8 794 167.6 794.1 166.4 794.3 165.2 794.6 167.3 795.4 166.7 795.5 169.7 795.5 169.4 795.8 172.7 795.8 173.8 796 172.7 796.1 170 796.2 173.3 796.5 173.8 796.8 173 797.1 174.1 797.3 173.8 797.8 174.4 797.8 177.1 797.9 176.2 798 176.8 798.2 177.1 798.3 178.6 798.5 177.4 798.8 176.8 799.1 174.4 799.4 176.5 799.7 177.4 800.3 177.4 800.8 176.8 801.2 174.7 801.7 176.2 802.4 177.1 803 177.4 803.6 177.4 804.7 177.1 805.4 176.8 805.7 178.3 806.2 177.1 807.2 177.7 807.5 174.4 807.7 171.8 807.8 171.5 808.1 173.6 808.5 173.6 809.6 174.4 810.4 176.2 811 175.9 811.8 177.1 812.4 178.3 812.8 177.7 813.5 178.6 814.4 177.7 816 179.5 816.4 178.6 817 180.1 817 181.6 817.3 181 817.7 179.8 819 179.8 819.8 180.4 820.4 180.7 821.2 180.7 821.3 182.8 821.4 181.9 821.5 183.1 821.5 183.1 821.7 182.2 821.8 181.3 822 182.2 822.3 182.8 822.4 184.3 822.6 184.6 822.7 184 822.7 182.2 822.8 184 822.9 184.3 822.9 183.1 823 183.1 823.1 182.5 823.2 182.8 823.4 185.8 823.5 188.5 823.5 187.9 823.6 185.5 823.6 185.8 823.7 187 823.8 185.5 823.9 184.6 824 186.7 824.1 185.5 824.1 184.6 824.2 186.4 824.4 186.1 824.6 188.5 824.7 190.3 824.7 189.7 824.8 191.2 824.8 192.4 824.9 195.4 824.9 197.8 824.9 202.3 825 205 825 199.9 825 210.7 825 212.8 825 216.7 825 214.9 825 218.5 825 219.1 825 218.2 825 216.7 825 226.6 825 221.2 825 219.7 825.1 216.7 825.1 216.7 825.1 213.7 825.1 210.4 825.1 208.9 825.1 204.4 825.1 202.3 825.1 202.6 825.1 201.4 825.1 206.8 825.1 208 825.1 210.4 825.2 206.5 825.2 206.5 825.2 206.5 825.2 203.5 825.3 202.6 825.3 205.3 825.3 204.4 825.4 202.9 825.4 200.5 825.5 201.7 825.5 203.5 825.6 202 825.6 200.8 825.7 200.2 825.7 200.5 825.8 200.2 825.9 198.7 825.9 199.6 826 200.5 826 201.1 826.1 201.7 826.1 203.8 826.2 200.2 826.2 198.4 826.3 198.4 826.3 199.3 826.4 200.5 826.4 203.2 826.5 201.7 826.5 202 826.6 203.2 826.7 204.4 826.7 206.2 826.7 209.8 826.8 212.5 826.8 215.8 826.8 216.4 826.9 218.5 826.9 220.9 826.9 223.3 826.9 223.3 826.9 224.8 826.9 220.3 827 217.9 827 215.2 827 214.6 827 213.4 827 211.6 827.1 211.3 827.2 213.7 827.2 211.6 827.3 208.9 827.3 208.9 827.4 208 827.4 206.8 827.4 209.8 827.5 210.7 827.5 211.9 827.5 213.1 827.6 216.1 827.6 214 827.7 211.3 827.7 214 827.8 212.5 827.8 211.3 827.8 208.6 827.9 208 827.9 207.4 828 207.1 828.1 206.5 828.1 207.7 828.2 207.1 828.2 208.6 828.3 209.5 828.3 207.7 828.4 206.5 828.5 205.9 828.5 207.7 828.6 208.3 828.7 205.6 828.8 207.1 828.9 206.8 828.9 206.2 829 205.9 829.1 204.7 829.1 206.5 829.2 205.9 829.3 205.9 829.4 205.9 829.5 205 829.6 203.5 829.7 202.6 829.8 201.7 829.9 200.2 830.1 200.5 830.1 201.1 830.3 201.4 830.4 201.7 830.5 202.3 830.6 202.6 830.7 202.6 830.8 203.8 830.9 205 831 205 831.1 205.9 831.2 205.6 831.3 204.1 831.5 203.8 831.7 203.8 831.8 205.3 831.9 205.3 832 205.9 832.1 205.6 832.3 206.5 832.3 206.8 832.4 205.6 832.6 206.5 832.7 205.9 832.9 206.5 833.1 205 833.3 205.9 833.6 206.2 833.8 206.8 833.9 207.7 834 207.1 834.1 208.6 834.2 210.1 834.2 210.4 834.3 210.7 834.3 208.3 834.3 209.5 834.5 212.2 834.5 212.5 834.5 213.4 834.6 215.8 834.6 215.2 834.6 215.2 834.7 216.4 834.8 219.1 834.8 223 834.9 226.3 834.9 230.2 834.9 235.3 835 238.6 835 239.8 835 239.2 835 238.3 835 245.8 835.1 248.5 835.1 251.8 835.1 252.7 835.1 253.9 835.1 253.6 835.1 250 835.1 245.8 835.1 240.7 835.2 237.7 835.2 236.2 835.2 232 835.2 232.9 835.2 235 835.3 234.4 835.3 236.8 835.3 235.6 835.3 237.4 835.4 234.4 835.4 235.3 835.4 232.6 835.4 236.5 835.5 235 835.5 239.2 835.5 244.6 835.5 250 835.6 248.2 835.6 250.6 835.6 254.5 835.6 259.3 835.7 262.3 835.7 264.4 835.7 271.3 835.7 269.2 835.7 262.6 835.7 257.5 835.7 265 835.7 251.2 835.8 251.5 835.8 242.2 835.8 238.9 835.8 244.9 835.8 248.8 835.8 250.3 835.8 245.5 835.9 247.3 835.9 242.2 835.9 241.9 835.9 240.1 835.9 243.1 836 242.5 836 248.5 836 247.9 836 249.1 836.1 244.6 836.1 247 836.1 247.3 836.1 246.4 836.2 246.7 836.2 244.3 836.2 246.4 836.3 249.1 836.3 252.7 836.3 258.1 836.4 256.6 836.4 253 836.4 254.5 836.4 253.9 836.5 255.4 836.5 257.5 836.5 263.2 836.5 261.7 836.6 257.2 836.6 259.3 836.6 264.4 836.6 267.1 836.7 269.2 836.7 273.1 836.7 272.8 836.7 267.4 836.7 262.9 836.7 257.5 836.8 259.3 836.8 256.9 836.8 260.5 836.8 262.9 836.8 259.3 836.8 264.1 836.9 259.3 836.9 267.4 836.9 272.5 836.9 276.4 836.9 279 836.9 281.4 837 281.7 837 278.1 837 273.4 837 275.8 837 274.3 837 277.6 837 277.9 837.1 281.1 837.1 283.5 837.1 284.4 837.1 283.8 837.2 287.4 837.2 287.7 837.2 290.4 837.2 284.7 837.3 278.4 837.3 276.7 837.3 278.7 837.3 285 837.3 286.8 837.4 290.7 837.4 296.1 837.4 298.5 837.4 302.7 837.4 300.3 837.4 309 837.5 294.3 837.5 294.9 837.5 294.9 837.5 293.7 837.5 291.3 837.5 288.6 837.6 293.1 837.6 293.4 837.6 292.5 837.7 295.8 837.7 296.1 837.7 293.4 837.7 290.7 837.8 292.5 837.8 299.7 837.8 303.6 837.8 307.8 837.9 310.2 837.9 311.7 837.9 318 837.9 320.1 837.9 317.7 837.9 313.5 837.9 312.9 837.9 323.7 838 327.9 838 334.5 838 339.9 838 347.7 838 344.7 838 351 838.1 335.1 838.1 337.5 838.1 335.1 838.1 337.8 838.1 348 838.1 345.6 838.1 345.9 838.2 340.5 838.2 347.1 838.2 340.2 838.2 351 838.2 353.7 838.3 357.6 838.3 361.5 838.3 367.5 838.3 357.6 838.3 353.4 838.3 353.7 838.3 346.2 838.4 345 838.4 341.4 838.4 341.4 838.4 342.3 838.4 336.6 838.4 329.4 838.4 320.7 838.4 322.2 838.4 311.4 838.4 308.1 838.4 317.7 838.5 320.4 838.5 330.3 838.5 335.4 838.5 337.2 838.5 341.7 838.6 358.8 838.6 367.2 838.6 378.9 838.6 373.2 838.6 381.6 838.6 381 838.6 386.9 838.7 378.9 838.7 367.5 838.7 368.4 838.7 372.3 838.7 395 838.8 397.4 838.8 414.5 838.9 419.3 839 408.8 839 413 839 419 839 422.6 839 426.5 839 431.9 839.1 435.5 839.1 437 839.1 437.3 839.2 435.5 839.2 434.6 839.2 435.5 839.3 435.5 839.3 439.4 839.4 438.8 839.4 421.1 839.4 419 839.5 414.8 839.5 405.5 839.5 401.3 839.6 398 839.6 399.5 839.6 394.7 839.6 391.7 839.7 386.9 839.7 394.7 839.8 391.4 839.8 397.7 839.9 398.3 840 397.4 840 392.6 840 390.5 840.1 396.5 840.1 396.2 840.2 389.3 840.2 384.8 840.2 385.7 840.3 383.3 840.3 375 840.4 378.9 840.4 372 840.5 371.7 840.5 367.8 840.6 364.5 840.7 357 840.7 355.5 840.7 354.6 840.8 354.3 840.8 343.5 840.8 339.6 840.9 331.2 840.9 332.7 840.9 331.5 841 325.5 841 314.1 841.1 319.5 841.1 328.2 841.1 332.4 841.2 336.6 841.2 335.1 841.2 323.4 841.3 325.8 841.3 326.4 841.3 325.5 841.3 323.7 841.3 324 841.4 327 841.4 324 841.4 325.8 841.4 330.9 841.4 329.4 841.5 337.8 841.5 348.3 841.6 347.7 841.6 337.5 841.6 336.9 841.6 346.8 841.7 342.6 841.7 342.3 841.7 339 841.8 337.2 841.9 335.7 841.9 332.4 841.9 331.8 842 331.5 842 330.9 842 333.9 842 331.8 842 333.9 842.1 335.7 842.1 339.9 842.2 336 842.2 337.5 842.2 337.8 842.3 338.1 842.3 342 842.3 344.7 842.4 343.5 842.5 342.3 842.5 339.9 842.5 341.4 842.6 345 842.7 346.8 842.7 341.4 842.7 342 842.8 342.9 842.8 339.3 842.8 340.8 842.9 338.1 842.9 338.1 843 337.8 843 338.1 843 339 843.1 334.2 843.1 344.1 843.1 342.6 843.2 340.5 843.2 342.9 843.2 340.5 843.3 340.2 843.3 343.2 843.3 344.1 843.3 337.2 843.4 338.4 843.4 340.2 843.4 342.3 843.4 341.7 843.5 343.8 843.5 346.5 843.5 348.6 843.5 345.3 843.5 347.7 843.6 348.3 843.6 348 843.6 342.9 843.7 343.5 843.7 343.8 843.7 343.5 843.8 340.5 843.8 340.5 843.8 337.8 843.8 336.6 843.8 339.3 843.9 339.6 843.9 337.5 843.9 334.2 844 336 844 336.3 844.1 335.1 844.2 336.3 844.2 336.9 844.3 335.7 844.4 334.5 844.4 333.9 844.4 334.5 844.5 335.7 844.6 330.9 844.7 335.4 844.7 337.5 844.7 332.7 844.8 338.1 844.8 336.6 844.9 332.7 844.9 335.4 845 338.4 845.1 342.6 845.1 345.3 845.2 345 845.2 342.3 845.3 336.3 845.4 333.3 845.4 335.7 845.4 334.2 845.5 333.3 845.6 337.8 845.6 340.2 845.7 340.5 845.8 339.3 845.9 336.9 845.9 327 846 331.8 846 317.1 846.1 317.7 846.1 318 846.1 319.8 846.2 316.8 846.2 317.4 846.2 319.8 846.2 320.1 846.3 332.7 846.3 330.9 846.4 317.1 846.4 314.1 846.4 325.5 846.5 327 846.6 327.3 846.6 328.2 846.7 328.2 846.7 327.3 846.8 326.4 846.8 324.6 846.9 324.9 847 318.6 847 316.8 847.1 318.3 847.2 316.8 847.3 314.4 847.4 313.8 847.5 313.8 847.6 315.6 847.8 312.3 847.9 313.8 847.9 313.8 848 313.5 848.1 312 848.2 307.8 848.3 303.3 848.4 306.9 848.4 307.8 848.5 303.6 848.6 306.9 848.8 309 848.9 310.2 849.1 307.5 849.1 310.2 849.2 313.2 849.4 310.8 849.4 312.6 849.6 317.1 849.7 316.5 849.8 314.7 849.9 316.2 850 318 850.1 318.3 850.1 321 850.2 322.5 850.2 327.6 850.3 325.8 850.4 323.1 850.6 322.2 850.7 321 850.8 321.3 850.9 322.2 851 320.1 851 313.8 851.1 313.8 851.2 313.2 851.4 309.9 851.4 309 851.5 309.9 851.6 309.9 851.7 309.3 851.7 306.3 851.7 298.8 851.7 301.2 851.7 297 851.7 299.4 851.8 301.2 851.8 304.2 851.8 307.2 851.9 305.4 852 303.9 852 302.4 852.1 299.1 852.1 301.8 852.1 300 852.2 299.7 852.3 299.4 852.3 300 852.4 299.1 852.4 295.8 852.4 289.2 852.4 288.9 852.4 294.3 852.4 300 852.5 301.8 852.5 303.6 852.6 293.4 852.6 287.1 852.6 287.1 852.6 293.4 852.6 296.7 852.7 297.3 852.7 299.4 852.8 300.9 852.8 302.7 852.8 300 852.9 301.8 853 303.6 853.1 302.7 853.1 308.4 853.1 312.3 853.1 303.6 853.2 303.3 853.2 296.1 853.2 289.8 853.2 296.4 853.3 300.3 853.4 299.7 853.5 297.9 853.6 293.7 853.6 289.8 853.7 290.4 853.7 287.4 853.8 290.1 853.9 291.6 853.9 290.7 853.9 293.1 854 290.7 854 292.8 854 291.9 854.1 291.6 854.1 285.9 854.1 284.7 854.2 284.4 854.2 285.3 854.2 285 854.3 285.6 854.3 282.9 854.3 284.4 854.3 284.4 854.4 283.8 854.4 287.4 854.4 285.9 854.4 285.3 854.5 287.1 854.5 292.2 854.5 292.2 854.6 291.3 854.6 290.1 854.6 289.2 854.7 288.9 854.7 289.5 854.7 286.2 854.7 287.1 854.8 286.8 854.8 289.8 854.8 289.5 854.9 288.6 854.9 284.4 854.9 285.9 854.9 280.8 855 281.1 855 278.1 855 278.7 855 277 855 278.1 855 274.9 855 280.2 855.1 278.1 855.1 279.6 855.1 282 855.2 284.7 855.2 286.5 855.2 284.7 855.3 286.5 855.3 288.3 855.4 288 855.5 285.6 855.6 286.2 855.6 286.8 855.7 287.1 855.7 287.7 855.9 288.9 856 292.2 856 297.3 856.1 297.3 856.2 294.3 856.2 294.3 856.3 296.1 856.3 293.4 856.4 290.4 856.5 291.3 856.6 295.2 856.8 296.1 856.8 296.4 856.9 294.3 857 294.6 857.1 293.4 857.2 292.8 857.3 289.5 857.3 286.5 857.3 283.2 857.4 281.4 857.4 284.4 857.4 282.6 857.4 282.3 857.4 280.8 857.5 283.8 857.5 284.1 857.5 283.2 857.5 281.1 857.5 283.5 857.5 280.5 857.5 279.6 857.6 281.7 857.6 282.9 857.6 279.9 857.6 282.6 857.7 283.5 857.7 282 857.7 281.1 857.8 282.3 857.8 282.9 857.8 285.3 857.8 284.7 857.9 282.3 857.9 283.8 857.9 281.7 858 279.9 858 278.7 858 278.1 858 279.3 858.1 277.9 858.1 278.4 858.2 279.3 858.2 279.3 858.2 277.6 858.3 280.8 858.3 283.8 858.3 283.8 858.4 284.1 858.4 285.3 858.4 282.3 858.5 284.7 858.5 285 858.6 283.5 858.6 284.4 858.7 286.5 858.7 288.6 858.8 288.9 858.8 289.2 858.9 285.6 859 286.5 859 288 859.1 289.2 859.2 289.8 859.2 289.5 859.3 288.6 859.4 288.6 859.4 290.1 859.5 289.8 859.5 291 859.6 290.4 859.7 289.5 859.7 288.3 859.7 285.9 859.8 286.8 859.8 285.9 859.8 282.9 859.9 279.9 860 278.7 860 273.7 860 276.4 860 274.3 860 273.4 860.1 276.7 860.1 279.3 860.2 279 860.3 276.7 860.4 277.6 860.4 276.4 860.5 275.2 860.6 275.8 860.6 276.7 860.7 279.3 860.8 278.1 860.9 275.2 861 276.1 861 276.1 861 275.5 861.1 276.1 861.2 276.4 861.4 276.4 861.5 273.1 861.7 274.3 861.8 275.5 862.1 275.8 862.1 275.8 862.2 274.9 862.2 268.9 862.2 272.5 862.2 270.4 862.2 272.5 862.3 273.4 862.4 274.6 862.5 274 862.7 273.7 862.7 271.9 862.8 273.7 862.9 275.2 863 273.7 863 276.7 863.1 277.3 863.2 277.9 863.3 276.1 863.3 275.8 863.3 275.2 863.4 275.8 863.4 276.7 863.5 276.4 863.5 275.2 863.6 274.9 863.7 275.5 863.8 274.3 863.9 276.4 863.9 275.2 864 275.8 864.1 275.8 864.2 275.2 864.2 276.4 864.4 275.5 864.5 274.3 864.5 277.3 864.6 278.4 864.7 278.7 864.7 278.7 864.8 283.2 864.8 283.8 864.9 285.3 864.9 287.1 865 287.4 865.1 288.3 865.2 288.3 865.2 289.5 865.2 290.1 865.3 291.6 865.3 294.6 865.3 296.7 865.4 296.7 865.4 298.5 865.4 297.3 865.4 295.2 865.4 293.4 865.4 292.2 865.4 289.8 865.5 290.4 865.5 286.8 865.6 285.3 865.6 283.5 865.7 285.9 865.7 285 865.7 283.5 865.7 285.3 865.7 285.3 865.8 285 865.8 286.8 865.8 288.6 865.9 289.2 865.9 291 866 291.9 866 293.4 866 294.3 866.1 295.8 866.1 295.8 866.1 294.6 866.1 295.2 866.2 295.2 866.2 298.5 866.2 299.7 866.3 300.9 866.3 297.3 866.3 294.6 866.4 295.2 866.4 293.4 866.5 291.9 866.5 292.2 866.6 290.4 866.7 290.4 866.7 290.4 866.7 287.7 866.9 288 866.9 291 866.9 290.4 867 289.8 867.1 288.9 867.1 288.3 867.2 286.8 867.2 286.5 867.4 284.7 867.5 286.2 867.5 286.5 867.6 287.4 867.7 286.5 867.8 285 867.9 283.8 868 281.1 868.1 282.6 868.1 281.7 868.2 282.9 868.2 282.6 868.3 281.1 868.4 279 868.5 279.3 868.7 280.8 868.8 280.2 868.9 280.8 868.9 280.8 869 280.8 869 281.7 869.1 281.1 869.1 280.2 869.1 280.5 869.2 280.2 869.2 280.8 869.3 279.9 869.3 280.8 869.4 280.5 869.4 281.1 869.5 281.4 869.5 282.9 869.6 283.8 869.6 285 869.6 284.1 869.7 284.4 869.7 283.8 869.8 282 869.8 282.3 869.9 281.1 869.9 279.9 870 280.2 870 280.5 870.2 278.4 870.2 277.3 870.3 277.3 870.4 278.1 870.4 279 870.4 279.9 870.4 281.4 870.5 282.9 870.5 282.6 870.5 279.6 870.5 282.3 870.5 285.6 870.5 283.8 870.5 288 870.5 291 870.5 291.6 870.5 294 870.5 292.2 870.5 289.8 870.5 287.1 870.5 282.9 870.5 283.2 870.6 282.9 870.6 280.5 870.6 282.9 870.6 281.4 870.6 280.8 870.6 279.9 870.6 282.9 870.7 285.3 870.7 281.7 870.7 286.2 870.7 290.1 870.7 289.5 870.7 284.4 870.7 284.4 870.8 284.1 870.8 280.8 870.8 284.4 870.8 285.3 870.8 288 870.9 284.4 870.9 285.3 870.9 284.1 871 284.7 871.1 285.9 871.1 282.9 871.2 282.9 871.2 282.3 871.3 282.9 871.4 281.7 871.5 281.4 871.6 279.6 871.7 278.4 871.7 280.2 871.8 279 871.9 279 872 279.3 872.1 279.6 872.2 278.7 872.2 277.9 872.3 278.1 872.3 277.6 872.3 275.5 872.4 276.7 872.4 274.9 872.5 275.2 872.6 273.7 872.6 272.5 872.7 272.2 872.8 272.8 872.8 272.2 872.9 272.5 872.9 271.9 873.1 272.5 873.1 275.5 873.2 275.2 873.3 277.6 873.3 277.3 873.4 274.3 873.4 273.4 873.5 275.8 873.6 276.1 873.7 276.4 873.8 277 873.9 278.4 873.9 278.4 874 278.1 874 279 874.1 278.4 874.2 280.2 874.2 279.6 874.3 279.9 874.4 280.8 874.4 279.6 874.5 279.9 874.6 277.9 874.7 277.9 874.7 279 874.8 279 874.9 279.3 875 278.4 875.2 279.9 875.3 281.7 875.4 281.1 875.5 283.5 875.5 283.8 875.6 281.7 875.6 280.2 875.7 280.2 875.8 277.9 875.8 277.9 875.9 276.4 876.1 275.2 876.4 277 876.5 279 876.6 281.4 876.8 279.6 876.9 281.7 877 280.5 877.1 281.4 877.2 279.6 877.4 281.1 877.5 282.3 877.6 282.9 877.9 283.5 878 285.3 878 286.2 878 285.6 878.1 286.5 878.1 284.1 878.2 284.7 878.3 282.3 878.5 282.9 878.6 283.8 878.7 283.8 878.7 285.6 878.8 287.1 878.8 285.3 878.9 286.5 879 287.1 879.1 288.3 879.3 286.8 879.4 287.4 879.4 286.8 879.5 287.1 879.7 289.2 879.7 285.6 879.8 285.6 879.9 285 880 286.5 880 287.7 880.1 286.8 880.2 286.2 880.3 284.7 880.3 285 880.4 285.9 880.4 287.7 880.5 287.7 880.6 287.7 880.6 288.3 880.7 289.8 880.7 289.2 880.7 289.8 880.8 291.3 880.8 292.2 880.9 291.9 880.9 288.9 881 292.2 881 290.7 881 291.6 881.1 292.5 881.1 290.7 881.2 289.2 881.2 289.5 881.3 286.2 881.3 287.1 881.5 287.1 881.6 286.5 881.6 284.7 881.8 285.9 881.9 285 882.1 285.3 882.3 286.8 882.3 288 882.5 286.5 882.6 286.2 882.7 288.3 882.7 288 882.9 288.6 882.9 288 883 287.4 883.1 285 883.2 285.6 883.3 284.7 883.5 283.2 883.6 283.8 883.9 284.1 884.2 283.5 884.3 283.8 884.4 281.7 884.6 283.2 884.7 283.8 884.9 282 885.1 284.7 885.2 284.7 885.3 284.1 885.4 283.8 885.5 283.5 885.6 283.8 885.7 284.1 885.9 283.5 886 285.6 886.1 286.2 886.2 285.6 886.3 287.4 886.4 286.8 886.5 286.5 886.5 286.8 886.6 287.1 886.9 286.2 887.1 286.5 887.1 287.4 887.3 289.2 887.5 288.9 887.5 290.1 887.7 291.3 887.7 291 887.7 291.3 887.8 291.3 887.9 289.8 888 290.1 888.1 288.6 888.3 287.7 888.4 286.5 888.5 284.4 888.6 284.4 888.6 283.5 888.6 282 888.7 281.4 888.7 283.8 888.7 284.4 888.7 281.7 888.7 283.5 888.7 282 888.7 282.9 888.7 280.8 888.7 280.2 888.7 283.2 888.7 282.9 888.7 282.9 888.7 282.6 888.7 280.2 888.7 283.5 888.8 281.7 888.8 283.5 888.8 281.1 888.9 282 889 280.5 889 281.1 889.2 282.3 889.4 280.8 889.6 280.8 889.7 281.7 889.9 281.1 890.1 281.7 890.2 283.5 890.4 282.6 890.7 281.4 890.8 278.7 890.9 277.6 891.1 277.3 891.2 277.6 891.3 278.1 891.5 276.4 891.8 275.5 891.9 274.9 892 273.4 892.1 272.2 892.2 272.8 892.4 273.4 892.6 274.6 892.7 275.5 892.9 276.1 893.1 276.1 893.3 277.3 893.6 277.9 893.7 278.1 893.8 277.6 894.1 276.1 894.1 276.1 894.3 276.7 894.4 277.9 894.5 278.4 894.7 279.3 894.9 279 895.2 279 895.5 279 896 278.7 896.2 277.9 896.5 278.1 896.6 279.9 896.7 277.3 896.9 276.1 897.2 276.1 897.3 276.7 897.6 274.6 897.8 274.9 898 274.6 898.4 275.5 898.8 276.4 899.1 275.5 899.4 276.4 899.7 276.4 900 275.2 900.3 275.2 900.5 274.6 900.9 274.9 901.1 274.6 901.4 273.1 901.7 272.8 902 274.6 902.3 277 902.5 277 902.6 278.4 902.8 278.1 903.2 276.7 903.6 278.1 903.8 279.9 904 279.9 904.6 279.3 905 279.9 905.3 280.8 905.7 281.1 906 281.7 906.4 280.2 906.7 281.1 907.1 279.6 907.4 278.4 907.9 276.7 908.2 275.5 908.5 276.1 908.7 277 909.3 273.4 909.7 273.7 909.8 273.1 910 271.6 910.3 273.1 910.6 271.9 910.9 273.1 911.2 272.8 911.3 271.3 911.4 268.3 911.5 270.1 911.8 269.8 912.1 268.3 912.3 266.2 912.4 264.7 912.5 269.5 912.5 267.7 912.5 268.6 912.6 266.8 912.7 266.2 913 267.1 913.1 268.9 913.3 269.2 913.5 268.3 913.9 266.2 914.3 266.8 914.4 269.8 914.5 270.1 914.5 272.2 914.5 273.1 914.5 273.7 914.6 275.5 914.6 272.8 914.6 267.4 914.6 269.2 914.7 270.1 914.7 270.7 914.8 271.9 914.9 271 915 270.1 915.1 271.6 915.3 271.3 915.4 271.3 915.4 271.3 915.5 271 915.5 271.3 915.6 269.8 915.7 270.4 915.9 270.1 916.3 269.2 916.6 269.8 916.9 269.2 917.2 271.3 917.5 271.6 917.9 272.2 918.1 272.5 918.4 271.9 918.6 269.5 919 267.4 919.3 268.6 919.4 268.3 919.8 269.8 919.9 268.9 920.2 267.7 920.4 267.7 920.6 266.8 920.7 265.6 920.9 266.5 921 267.1 921.1 267.1 921.3 266.5 921.5 266.8 921.6 266.8 921.8 267.1 922 266.8 922.2 267.1 922.4 268.3 922.6 267.4 922.7 268 922.9 267.7 923.1 265.9 923.4 266.8 923.7 266.8 923.9 266.5 924.1 266.2 924.3 266.8 924.6 266.8 924.8 266.2 925.1 266.2 925.3 267.4 925.3 268.9 925.4 269.8 925.6 268.6 925.7 269.2 925.8 270.1 925.9 270.7 926.1 271.6 926.2 271 926.4 271.9 926.6 272.5 926.9 273.4 927 272.2 927.2 272.8 927.5 273.1 927.6 274 927.6 275.5 927.7 275.8 927.8 276.1 927.8 276.4 927.9 277.9 928.1 277.3 928.2 277.3 928.4 278.1 928.6 277.9 928.7 278.1 928.9 279.3 929 279.3 929.1 278.4 929.3 277.9 929.4 279 929.5 279.6 929.7 279.9 929.8 280.5 930 279.6 930.2 278.7 930.4 279.3 930.5 279 930.6 278.4 930.8 280.8 930.9 280.5 931 279.6 931.1 278.7 931.3 280.5 931.4 281.7 931.5 280.5 931.7 281.1 931.8 280.8 932 280.8 932.2 281.7 932.3 281.4 932.4 281.7 932.6 282.3 932.8 281.1 933 281.4 933.2 280.5 933.4 279.6 933.5 279.9 933.6 280.2 933.9 280.5 934 281.4" opacity=".6"/><text x="942" y="472" fill="#d97706" font-size="11" text-anchor="start">0.06</text><text x="942" y="396" fill="#d97706" font-size="11" text-anchor="start">0.09</text><text x="942" y="320" fill="#d97706" font-size="11" text-anchor="start">0.11</text><text x="942" y="244" fill="#d97706" font-size="11" text-anchor="start">0.14</text><text x="942" y="168" fill="#d97706" font-size="11" text-anchor="start">0.16</text><text x="942" y="92" fill="#d97706" font-size="11" text-anchor="start">0.19</text><text x="942" y="80" fill="#d97706" font-size="11" font-weight="600" text-anchor="start">price</text><polygon fill="#16a34a" fill-opacity=".08" points="614.6 468 614.6 430.3 614.6 434.3 631.9 414.7 631.9 420.2 632 392.5 632 400.4 632.2 361.2 635.2 369.4 825 379.6 825.1 392.5 834.9 408.5 835 414.7 837.4 383.7 837.9 392.5 838.3 348.8 838.3 357 838.4 316.3 838.5 283.7 838.8 251.1 839.1 218.6 839.4 226.8 839.6 186 840.6 151.1 841 116.1 841.2 124.9 841.2 135.9 841.5 149.7 846 166.8 855 131.9 855 468"/><polyline fill="none" stroke="#16a34a" stroke-linejoin="round" stroke-width="2" points="614.6 430.3 614.6 434.3 631.9 414.7 631.9 420.2 632 392.5 632 400.4 632.2 361.2 635.2 369.4 825 379.6 825.1 392.5 834.9 408.5 835 414.7 837.4 383.7 837.9 392.5 838.3 348.8 838.3 357 838.4 316.3 838.5 283.7 838.8 251.1 839.1 218.6 839.4 226.8 839.6 186 840.6 151.1 841 116.1 841.2 124.9 841.2 135.9 841.5 149.7 846 166.8 855 131.9"/><line x1="88" x2="110" y1="102" y2="102" stroke="#16a34a" stroke-width="2.5"/><text x="116" y="106" fill="#374151" font-size="11.5">equity</text><line x1="88" x2="110" y1="118" y2="118" stroke="#d97706" stroke-width="2.5" opacity=".8"/><text x="116" y="122" fill="#374151" font-size="11.5">price</text><text x="78" y="502" fill="#6b7280" font-size="12" text-anchor="start">2025-10-10</text><text x="934" y="502" fill="#6b7280" font-size="12" text-anchor="end">2025-10-10</text></svg>