<?xml version="1.0" encoding="UTF-8"?>
<svg xmlns="http://www.w3.org/2000/svg" width="1100" height="560" viewBox="0 0 1100 560" font-family="ui-sans-serif, system-ui, sans-serif">
  <rect width="1100" height="560" fill="#ffffff"/>
  <text x="80" y="28" font-size="18" font-weight="700" fill="#111827">Zone Recovery — WLFIUSDC fee-tier comparison (best setting)</text>
  <text x="80" y="48" font-size="12.5" fill="#6b7280">lev 10 · ratio 4 · gap 35% · maxSteps 4 · maxDD 60% · random  ·  equity per fee tier vip 0..9</text>
  <text x="80" y="68" font-size="12.5" font-weight="600" fill="#1d4ed8">USDC margin · BNB −10%</text>
  <line x1="80" y1="508.0" x2="932" y2="508.0" stroke="#e5e7eb" stroke-width="1"/><text x="70" y="512.0" text-anchor="end" font-size="12" fill="#6b7280">0.00</text><line x1="80" y1="424.0" x2="932" y2="424.0" stroke="#e5e7eb" stroke-width="1"/><text x="70" y="428.0" text-anchor="end" font-size="12" fill="#6b7280">20169</text><line x1="80" y1="340.0" x2="932" y2="340.0" stroke="#e5e7eb" stroke-width="1"/><text x="70" y="344.0" text-anchor="end" font-size="12" fill="#6b7280">40338</text><line x1="80" y1="256.0" x2="932" y2="256.0" stroke="#e5e7eb" stroke-width="1"/><text x="70" y="260.0" text-anchor="end" font-size="12" fill="#6b7280">60507</text><line x1="80" y1="172.0" x2="932" y2="172.0" stroke="#e5e7eb" stroke-width="1"/><text x="70" y="176.0" text-anchor="end" font-size="12" fill="#6b7280">80676</text><line x1="80" y1="88.0" x2="932" y2="88.0" stroke="#e5e7eb" stroke-width="1"/><text x="70" y="92.0" text-anchor="end" font-size="12" fill="#6b7280">100845</text>
  <line x1="80" y1="466.4" x2="932" y2="466.4" stroke="#9ca3af" stroke-width="1.5" stroke-dasharray="6 4"/>
  <polyline points="80.0,466.4 80.0,470.8 141.3,449.2 141.4,455.4 141.7,425.0 141.8,433.8 142.4,390.9 153.0,400.1 825.9,411.6 826.1,425.9 860.8,443.9 861.2,450.7 869.9,417.5 871.4,427.1 872.9,380.3 873.0,389.5 873.4,344.7 873.9,308.8 874.7,272.9 875.8,237.0 876.8,246.2 877.4,201.4 881.1,163.0 882.6,124.5 883.1,134.4 883.4,146.7 884.2,162.1 900.2,181.4 932.0,142.9" fill="none" stroke="#2563eb" stroke-width="1.8" stroke-linejoin="round" opacity="0.9"/>
  <polyline points="80.0,466.4 80.0,470.8 141.3,449.2 141.4,455.4 141.7,425.0 141.8,433.8 142.4,390.9 153.0,400.1 825.9,411.6 826.1,425.9 860.8,443.9 861.2,450.7 869.9,417.5 871.4,427.1 872.9,380.3 873.0,389.5 873.4,344.7 873.9,308.8 874.7,272.9 875.8,237.0 876.8,246.2 877.4,201.4 881.1,163.0 882.6,124.5 883.1,134.4 883.4,146.7 884.2,162.1 900.2,181.4 932.0,142.9" fill="none" stroke="#dc2626" stroke-width="1.8" stroke-linejoin="round" opacity="0.9"/>
  <polyline points="80.0,466.4 80.0,470.8 141.3,449.2 141.4,455.4 141.7,424.9 141.8,433.7 142.4,390.6 153.0,399.8 825.9,411.3 826.1,425.6 860.8,443.5 861.2,450.3 869.9,416.8 871.4,426.5 872.9,379.2 873.0,388.4 873.4,343.5 873.9,307.6 874.7,271.7 875.8,235.8 876.8,244.9 877.4,200.1 881.1,161.6 882.6,123.1 883.1,132.9 883.4,145.2 884.2,160.5 900.2,179.7 932.0,141.2" fill="none" stroke="#16a34a" stroke-width="1.8" stroke-linejoin="round" opacity="0.9"/>
  <polyline points="80.0,466.4 80.0,470.7 141.3,449.1 141.4,455.3 141.7,424.8 141.8,433.6 142.4,390.4 153.0,399.6 825.9,411.0 826.1,425.3 860.8,443.1 861.2,449.9 869.9,416.3 871.4,426.0 872.9,378.4 873.0,387.5 873.4,342.6 873.9,306.7 874.7,270.7 875.8,234.8 876.8,243.9 877.4,199.0 881.1,160.5 882.6,121.9 883.1,131.7 883.4,144.0 884.2,159.3 900.2,178.4 932.0,139.9" fill="none" stroke="#d97706" stroke-width="1.8" stroke-linejoin="round" opacity="0.9"/>
  <polyline points="80.0,466.4 80.0,470.7 141.3,449.1 141.4,455.3 141.7,424.7 141.8,433.4 142.4,390.2 153.0,399.3 825.9,410.6 826.1,424.8 860.8,442.6 861.2,449.5 869.9,415.5 871.4,425.2 872.9,377.2 873.0,386.2 873.4,341.3 873.9,305.3 874.7,269.3 875.8,233.3 876.8,242.4 877.4,197.5 881.1,158.9 882.6,120.3 883.1,130.0 883.4,142.2 884.2,157.5 900.2,176.5 932.0,137.9" fill="none" stroke="#7c3aed" stroke-width="1.8" stroke-linejoin="round" opacity="0.9"/>
  <polyline points="80.0,466.4 80.0,470.7 141.3,449.1 141.4,455.3 141.7,424.7 141.8,433.4 142.4,390.1 153.0,399.2 825.9,410.6 826.1,424.8 860.8,442.5 861.2,449.4 869.9,415.3 871.4,425.1 872.9,376.9 873.0,386.0 873.4,341.0 873.9,305.1 874.7,269.1 875.8,233.1 876.8,242.2 877.4,197.2 881.1,158.6 882.6,120.0 883.1,129.7 883.4,141.9 884.2,157.1 900.2,176.2 932.0,137.6" fill="none" stroke="#0891b2" stroke-width="1.8" stroke-linejoin="round" opacity="0.9"/>
  <polyline points="80.0,466.4 80.0,470.7 141.3,449.1 141.4,455.3 141.7,424.6 141.8,433.4 142.4,390.1 153.0,399.2 825.9,410.5 826.1,424.7 860.8,442.4 861.2,449.3 869.9,415.3 871.4,425.0 872.9,376.8 873.0,385.9 873.4,340.9 873.9,304.9 874.7,268.9 875.8,232.9 876.8,242.0 877.4,197.0 881.1,158.4 882.6,119.8 883.1,129.5 883.4,141.7 884.2,156.9 900.2,175.9 932.0,137.3" fill="none" stroke="#db2777" stroke-width="1.8" stroke-linejoin="round" opacity="0.9"/>
  <polyline points="80.0,466.4 80.0,470.7 141.3,449.1 141.4,455.2 141.7,424.6 141.8,433.4 142.4,390.0 153.0,399.1 825.9,410.5 826.1,424.6 860.8,442.3 861.2,449.2 869.9,415.1 871.4,424.8 872.9,376.6 873.0,385.6 873.4,340.6 873.9,304.6 874.7,268.6 875.8,232.6 876.8,241.7 877.4,196.7 881.1,158.1 882.6,119.5 883.1,129.2 883.4,141.4 884.2,156.6 900.2,175.6 932.0,137.0" fill="none" stroke="#65a30d" stroke-width="1.8" stroke-linejoin="round" opacity="0.9"/>
  <polyline points="80.0,466.4 80.0,470.7 141.3,449.1 141.4,455.2 141.7,424.6 141.8,433.3 142.4,390.0 153.0,399.1 825.9,410.4 826.1,424.6 860.8,442.3 861.2,449.2 869.9,415.0 871.4,424.7 872.9,376.5 873.0,385.5 873.4,340.5 873.9,304.5 874.7,268.5 875.8,232.5 876.8,241.6 877.4,196.6 881.1,158.0 882.6,119.3 883.1,129.1 883.4,141.2 884.2,156.4 900.2,175.4 932.0,136.8" fill="none" stroke="#475569" stroke-width="1.8" stroke-linejoin="round" opacity="0.9"/>
  <polyline points="80.0,466.4 80.0,470.7 141.3,449.1 141.4,455.2 141.7,424.6 141.8,433.3 142.4,390.0 153.0,399.0 825.9,410.3 826.1,424.5 860.8,442.2 861.2,449.1 869.9,414.9 871.4,424.6 872.9,376.3 873.0,385.4 873.4,340.3 873.9,304.3 874.7,268.3 875.8,232.3 876.8,241.4 877.4,196.4 881.1,157.7 882.6,119.1 883.1,128.8 883.4,141.0 884.2,156.1 900.2,175.1 932.0,136.5" fill="none" stroke="#ea580c" stroke-width="1.8" stroke-linejoin="round" opacity="0.9"/>
  <line x1="950" y1="94" x2="972" y2="94" stroke="#ea580c" stroke-width="3"/><text x="980" y="98" font-size="12.5" fill="#374151">vip 9  89201</text>
  <line x1="950" y1="116" x2="972" y2="116" stroke="#475569" stroke-width="3"/><text x="980" y="120" font-size="12.5" fill="#374151">vip 8  89133</text>
  <line x1="950" y1="138" x2="972" y2="138" stroke="#65a30d" stroke-width="3"/><text x="980" y="142" font-size="12.5" fill="#374151">vip 7  89085</text>
  <line x1="950" y1="160" x2="972" y2="160" stroke="#db2777" stroke-width="3"/><text x="980" y="164" font-size="12.5" fill="#374151">vip 6  88998</text>
  <line x1="950" y1="182" x2="972" y2="182" stroke="#0891b2" stroke-width="3"/><text x="980" y="186" font-size="12.5" fill="#374151">vip 5  88942</text>
  <line x1="950" y1="204" x2="972" y2="204" stroke="#7c3aed" stroke-width="3"/><text x="980" y="208" font-size="12.5" fill="#374151">vip 4  88860</text>
  <line x1="950" y1="226" x2="972" y2="226" stroke="#d97706" stroke-width="3"/><text x="980" y="230" font-size="12.5" fill="#374151">vip 3  88394</text>
  <line x1="950" y1="248" x2="972" y2="248" stroke="#16a34a" stroke-width="3"/><text x="980" y="252" font-size="12.5" fill="#374151">vip 2  88067</text>
  <line x1="950" y1="270" x2="972" y2="270" stroke="#2563eb" stroke-width="3"/><text x="980" y="274" font-size="12.5" fill="#374151">vip 0  87659</text>
  <line x1="950" y1="292" x2="972" y2="292" stroke="#dc2626" stroke-width="3"/><text x="980" y="296" font-size="12.5" fill="#374151">vip 1  87659</text>
  <text x="80" y="542" text-anchor="start" font-size="12" fill="#6b7280">2025-10-10</text><text x="932" y="542" text-anchor="end" font-size="12" fill="#6b7280">2025-10-10</text>
</svg>
