<?xml version="1.0" encoding="UTF-8"?>
<svg xmlns="http://www.w3.org/2000/svg" width="1100" height="560" viewBox="0 0 1100 560" font-family="ui-sans-serif, system-ui, sans-serif">
  <rect width="1100" height="560" fill="#ffffff"/>
  <text x="80" y="28" font-size="18" font-weight="700" fill="#111827">Zone Recovery — DOGEUSDT fee-tier comparison (best setting)</text>
  <text x="80" y="48" font-size="12.5" fill="#6b7280">lev 10 · ratio 4 · gap 35% · maxSteps 4 · maxDD 20% · random  ·  equity per fee tier vip 0..9</text>
  <text x="80" y="68" font-size="12.5" font-weight="600" fill="#1d4ed8">USDT margin · BNB −10%</text>
  <line x1="80" y1="508.0" x2="932" y2="508.0" stroke="#e5e7eb" stroke-width="1"/><text x="70" y="512.0" text-anchor="end" font-size="12" fill="#6b7280">0.00</text><line x1="80" y1="424.0" x2="932" y2="424.0" stroke="#e5e7eb" stroke-width="1"/><text x="70" y="428.0" text-anchor="end" font-size="12" fill="#6b7280">22768577</text><line x1="80" y1="340.0" x2="932" y2="340.0" stroke="#e5e7eb" stroke-width="1"/><text x="70" y="344.0" text-anchor="end" font-size="12" fill="#6b7280">45537153</text><line x1="80" y1="256.0" x2="932" y2="256.0" stroke="#e5e7eb" stroke-width="1"/><text x="70" y="260.0" text-anchor="end" font-size="12" fill="#6b7280">68305730</text><line x1="80" y1="172.0" x2="932" y2="172.0" stroke="#e5e7eb" stroke-width="1"/><text x="70" y="176.0" text-anchor="end" font-size="12" fill="#6b7280">91074306</text><line x1="80" y1="88.0" x2="932" y2="88.0" stroke="#e5e7eb" stroke-width="1"/><text x="70" y="92.0" text-anchor="end" font-size="12" fill="#6b7280">113842883</text>
  <line x1="80" y1="139.1" x2="932" y2="139.1" stroke="#9ca3af" stroke-width="1.5" stroke-dasharray="6 4"/>
  <polyline points="80.0,139.1 80.0,136.0 117.2,136.9 244.5,132.6 244.9,129.7 245.0,127.2 245.0,127.7 245.0,128.4 245.0,129.3 245.0,125.1 245.0,125.6 245.0,126.2 245.0,126.9 245.0,127.7 245.0,128.2 245.0,128.8 245.0,129.5 245.0,130.4 245.0,130.8 245.0,131.4 245.0,128.7 245.1,129.1 245.1,129.5 245.1,130.1 245.1,130.9 245.1,131.2 245.1,131.7 245.1,129.4 245.1,129.8 245.1,130.2 245.1,130.7 245.1,131.3 245.1,131.6 245.1,132.0 245.1,130.1 245.1,130.4 245.1,130.8 245.1,128.7 245.1,127.2 245.1,127.7 245.1,128.2 245.2,125.5 245.2,126.0 245.3,126.7 245.3,127.5 245.7,123.6 245.7,124.2 245.7,124.9 245.7,125.9 245.8,127.1 245.9,127.7 246.2,128.4 246.6,129.4 315.2,124.8 358.7,125.5 370.1,126.4 494.1,122.1 661.7,119.7 671.4,120.4 866.3,121.3 932.0,122.4" fill="none" stroke="#2563eb" stroke-width="1.8" stroke-linejoin="round" opacity="0.9"/>
  <polyline points="80.0,139.1 80.0,136.0 117.2,136.9 244.5,132.6 244.9,129.7 245.0,127.2 245.0,127.7 245.0,128.4 245.0,129.3 245.0,125.1 245.0,125.6 245.0,126.2 245.0,126.9 245.0,127.7 245.0,128.2 245.0,128.8 245.0,129.5 245.0,130.4 245.0,130.8 245.0,131.4 245.0,128.7 245.1,129.1 245.1,129.5 245.1,130.1 245.1,130.9 245.1,131.2 245.1,131.7 245.1,129.4 245.1,129.8 245.1,130.2 245.1,130.7 245.1,131.3 245.1,131.6 245.1,132.0 245.1,130.1 245.1,130.4 245.1,130.8 245.1,128.7 245.1,127.2 245.1,127.7 245.1,128.2 245.2,125.5 245.2,126.0 245.3,126.7 245.3,127.5 245.7,123.6 245.7,124.2 245.7,124.9 245.7,125.9 245.8,127.1 245.9,127.7 246.2,128.4 246.6,129.4 315.2,124.8 358.7,125.5 370.1,126.4 494.1,122.1 661.7,119.7 671.4,120.4 866.3,121.3 932.0,122.4" fill="none" stroke="#dc2626" stroke-width="1.8" stroke-linejoin="round" opacity="0.9"/>
  <polyline points="80.0,139.1 80.0,136.0 117.2,136.9 244.5,132.5 244.9,129.7 245.0,127.2 245.0,127.7 245.0,128.4 245.0,129.3 245.0,125.1 245.0,125.5 245.0,126.1 245.0,126.8 245.0,127.7 245.0,128.1 245.0,128.7 245.0,129.4 245.0,130.3 245.0,130.7 245.0,131.3 245.0,128.6 245.1,129.0 245.1,129.5 245.1,130.0 245.1,130.8 245.1,131.2 245.1,131.6 245.1,129.3 245.1,129.7 245.1,130.1 245.1,130.6 245.1,131.2 245.1,131.5 245.1,131.9 245.1,130.0 245.1,130.3 245.1,130.7 245.1,128.6 245.1,127.1 245.1,127.6 245.1,128.1 245.2,125.4 245.2,125.9 245.3,126.5 245.3,127.3 245.7,123.4 245.7,124.0 245.7,124.8 245.7,125.7 245.8,126.9 245.9,127.5 246.2,128.3 246.6,129.2 315.2,124.6 358.7,125.3 370.1,126.2 494.1,121.9 661.7,119.5 671.4,120.2 866.3,121.1 932.0,122.2" fill="none" stroke="#16a34a" stroke-width="1.8" stroke-linejoin="round" opacity="0.9"/>
  <polyline points="80.0,139.1 80.0,136.0 117.2,136.9 244.5,132.5 244.9,129.6 245.0,127.2 245.0,127.7 245.0,128.4 245.0,129.2 245.0,125.1 245.0,125.5 245.0,126.1 245.0,126.8 245.0,127.7 245.0,128.1 245.0,128.7 245.0,129.4 245.0,130.2 245.0,130.7 245.0,131.2 245.0,128.5 245.1,128.9 245.1,129.4 245.1,130.0 245.1,130.7 245.1,131.1 245.1,131.6 245.1,129.3 245.1,129.6 245.1,130.0 245.1,130.5 245.1,131.1 245.1,131.4 245.1,131.8 245.1,129.9 245.1,130.2 245.1,130.7 245.1,128.6 245.1,127.0 245.1,127.5 245.1,128.0 245.2,125.3 245.2,125.8 245.3,126.4 245.3,127.2 245.7,123.3 245.7,123.9 245.7,124.7 245.7,125.6 245.8,126.8 245.9,127.4 246.2,128.1 246.6,129.1 315.2,124.5 358.7,125.2 370.1,126.1 494.1,121.8 661.7,119.4 671.4,120.1 866.3,120.9 932.0,122.0" fill="none" stroke="#d97706" stroke-width="1.8" stroke-linejoin="round" opacity="0.9"/>
  <polyline points="80.0,139.1 80.0,136.0 117.2,136.9 244.5,132.5 244.9,129.6 245.0,127.2 245.0,127.7 245.0,128.4 245.0,129.2 245.0,125.1 245.0,125.5 245.0,126.1 245.0,126.8 245.0,127.6 245.0,128.1 245.0,128.7 245.0,129.4 245.0,130.2 245.0,130.7 245.0,131.2 245.0,128.5 245.1,128.9 245.1,129.4 245.1,130.0 245.1,130.7 245.1,131.1 245.1,131.5 245.1,129.3 245.1,129.6 245.1,130.0 245.1,130.5 245.1,131.1 245.1,131.4 245.1,131.8 245.1,129.9 245.1,130.2 245.1,130.6 245.1,128.5 245.1,127.0 245.1,127.4 245.1,128.0 245.2,125.3 245.2,125.8 245.3,126.4 245.3,127.2 245.7,123.3 245.7,123.9 245.7,124.7 245.7,125.6 245.8,126.8 245.9,127.4 246.2,128.1 246.6,129.0 315.2,124.5 358.7,125.2 370.1,126.0 494.1,121.7 661.7,119.4 671.4,120.0 866.3,120.9 932.0,122.0" fill="none" stroke="#7c3aed" stroke-width="1.8" stroke-linejoin="round" opacity="0.9"/>
  <polyline points="80.0,139.1 80.0,136.0 117.2,136.9 244.5,132.5 244.9,129.6 245.0,127.2 245.0,127.7 245.0,128.4 245.0,129.2 245.0,125.1 245.0,125.5 245.0,126.1 245.0,126.8 245.0,127.6 245.0,128.1 245.0,128.6 245.0,129.3 245.0,130.2 245.0,130.7 245.0,131.2 245.0,128.5 245.1,128.9 245.1,129.4 245.1,129.9 245.1,130.7 245.1,131.1 245.1,131.5 245.1,129.2 245.1,129.5 245.1,129.9 245.1,130.4 245.1,131.1 245.1,131.4 245.1,131.8 245.1,129.8 245.1,130.2 245.1,130.6 245.1,128.5 245.1,127.0 245.1,127.4 245.1,128.0 245.2,125.2 245.2,125.7 245.3,126.4 245.3,127.2 245.7,123.3 245.7,123.9 245.7,124.6 245.7,125.5 245.8,126.7 245.9,127.3 246.2,128.0 246.6,129.0 315.2,124.4 358.7,125.1 370.1,126.0 494.1,121.7 661.7,119.3 671.4,120.0 866.3,120.8 932.0,121.9" fill="none" stroke="#0891b2" stroke-width="1.8" stroke-linejoin="round" opacity="0.9"/>
  <polyline points="80.0,139.1 80.0,136.0 117.2,136.9 244.5,132.5 244.9,129.6 245.0,127.1 245.0,127.7 245.0,128.4 245.0,129.2 245.0,125.0 245.0,125.5 245.0,126.1 245.0,126.7 245.0,127.6 245.0,128.1 245.0,128.6 245.0,129.3 245.0,130.2 245.0,130.6 245.0,131.2 245.0,128.5 245.1,128.9 245.1,129.3 245.1,129.9 245.1,130.7 245.1,131.0 245.1,131.5 245.1,129.2 245.1,129.5 245.1,129.9 245.1,130.4 245.1,131.1 245.1,131.4 245.1,131.8 245.1,129.8 245.1,130.1 245.1,130.6 245.1,128.5 245.1,126.9 245.1,127.4 245.1,127.9 245.2,125.2 245.2,125.7 245.3,126.3 245.3,127.1 245.7,123.2 245.7,123.8 245.7,124.6 245.7,125.5 245.8,126.7 245.9,127.3 246.2,128.0 246.6,128.9 315.2,124.4 358.7,125.1 370.1,125.9 494.1,121.6 661.7,119.3 671.4,119.9 866.3,120.8 932.0,121.9" fill="none" stroke="#db2777" stroke-width="1.8" stroke-linejoin="round" opacity="0.9"/>
  <polyline points="80.0,139.1 80.0,136.0 117.2,136.9 244.5,132.5 244.9,129.6 245.0,127.1 245.0,127.7 245.0,128.4 245.0,129.2 245.0,125.0 245.0,125.5 245.0,126.0 245.0,126.7 245.0,127.6 245.0,128.1 245.0,128.6 245.0,129.3 245.0,130.2 245.0,130.6 245.0,131.2 245.0,128.5 245.1,128.9 245.1,129.3 245.1,129.9 245.1,130.6 245.1,131.0 245.1,131.5 245.1,129.2 245.1,129.5 245.1,129.9 245.1,130.4 245.1,131.0 245.1,131.3 245.1,131.7 245.1,129.8 245.1,130.1 245.1,130.5 245.1,128.4 245.1,126.9 245.1,127.3 245.1,127.9 245.2,125.2 245.2,125.7 245.3,126.3 245.3,127.1 245.7,123.2 245.7,123.8 245.7,124.5 245.7,125.5 245.8,126.6 245.9,127.2 246.2,128.0 246.6,128.9 315.2,124.3 358.7,125.0 370.1,125.9 494.1,121.6 661.7,119.2 671.4,119.9 866.3,120.7 932.0,121.8" fill="none" stroke="#65a30d" stroke-width="1.8" stroke-linejoin="round" opacity="0.9"/>
  <polyline points="80.0,139.1 80.0,136.0 117.2,136.9 244.5,132.5 244.9,129.6 245.0,127.1 245.0,127.7 245.0,128.4 245.0,129.2 245.0,125.0 245.0,125.5 245.0,126.0 245.0,126.7 245.0,127.6 245.0,128.0 245.0,128.6 245.0,129.3 245.0,130.2 245.0,130.6 245.0,131.2 245.0,128.5 245.1,128.8 245.1,129.3 245.1,129.9 245.1,130.6 245.1,131.0 245.1,131.5 245.1,129.2 245.1,129.5 245.1,129.9 245.1,130.4 245.1,131.0 245.1,131.3 245.1,131.7 245.1,129.8 245.1,130.1 245.1,130.5 245.1,128.4 245.1,126.9 245.1,127.3 245.1,127.9 245.2,125.1 245.2,125.6 245.3,126.3 245.3,127.1 245.7,123.2 245.7,123.8 245.7,124.5 245.7,125.4 245.8,126.6 245.9,127.2 246.2,127.9 246.6,128.9 315.2,124.3 358.7,125.0 370.1,125.9 494.1,121.5 661.7,119.2 671.4,119.9 866.3,120.7 932.0,121.8" fill="none" stroke="#475569" stroke-width="1.8" stroke-linejoin="round" opacity="0.9"/>
  <polyline points="80.0,139.1 80.0,136.0 117.2,136.9 244.5,132.5 244.9,129.6 245.0,127.1 245.0,127.7 245.0,128.3 245.0,129.2 245.0,125.0 245.0,125.5 245.0,126.0 245.0,126.7 245.0,127.6 245.0,128.0 245.0,128.6 245.0,129.3 245.0,130.2 245.0,130.6 245.0,131.1 245.0,128.4 245.1,128.8 245.1,129.3 245.1,129.9 245.1,130.6 245.1,131.0 245.1,131.4 245.1,129.1 245.1,129.5 245.1,129.9 245.1,130.4 245.1,131.0 245.1,131.3 245.1,131.7 245.1,129.7 245.1,130.1 245.1,130.5 245.1,128.4 245.1,126.8 245.1,127.3 245.1,127.8 245.2,125.1 245.2,125.6 245.3,126.2 245.3,127.0 245.7,123.1 245.7,123.7 245.7,124.5 245.7,125.4 245.8,126.6 245.9,127.1 246.2,127.9 246.6,128.8 315.2,124.2 358.7,124.9 370.1,125.8 494.1,121.5 661.7,119.1 671.4,119.8 866.3,120.6 932.0,121.7" fill="none" stroke="#ea580c" stroke-width="1.8" stroke-linejoin="round" opacity="0.9"/>
  <line x1="950" y1="94" x2="972" y2="94" stroke="#ea580c" stroke-width="3"/><text x="980" y="98" font-size="12.5" fill="#374151">vip 9  104703506</text>
  <line x1="950" y1="116" x2="972" y2="116" stroke="#475569" stroke-width="3"/><text x="980" y="120" font-size="12.5" fill="#374151">vip 8  104687020</text>
  <line x1="950" y1="138" x2="972" y2="138" stroke="#65a30d" stroke-width="3"/><text x="980" y="142" font-size="12.5" fill="#374151">vip 7  104676029</text>
  <line x1="950" y1="160" x2="972" y2="160" stroke="#db2777" stroke-width="3"/><text x="980" y="164" font-size="12.5" fill="#374151">vip 6  104659543</text>
  <line x1="950" y1="182" x2="972" y2="182" stroke="#0891b2" stroke-width="3"/><text x="980" y="186" font-size="12.5" fill="#374151">vip 5  104648553</text>
  <line x1="950" y1="204" x2="972" y2="204" stroke="#7c3aed" stroke-width="3"/><text x="980" y="208" font-size="12.5" fill="#374151">vip 4  104632067</text>
  <line x1="950" y1="226" x2="972" y2="226" stroke="#d97706" stroke-width="3"/><text x="980" y="230" font-size="12.5" fill="#374151">vip 3  104621076</text>
  <line x1="950" y1="248" x2="972" y2="248" stroke="#16a34a" stroke-width="3"/><text x="980" y="252" font-size="12.5" fill="#374151">vip 2  104577114</text>
  <line x1="950" y1="270" x2="972" y2="270" stroke="#2563eb" stroke-width="3"/><text x="980" y="274" font-size="12.5" fill="#374151">vip 0  104522161</text>
  <line x1="950" y1="292" x2="972" y2="292" stroke="#dc2626" stroke-width="3"/><text x="980" y="296" font-size="12.5" fill="#374151">vip 1  104522161</text>
  <text x="80" y="542" text-anchor="start" font-size="12" fill="#6b7280">2025-10-06</text><text x="932" y="542" text-anchor="end" font-size="12" fill="#6b7280">2025-10-28</text>
</svg>
