<svg xmlns="http://www.w3.org/2000/svg" width="1100" height="560" font-family="ui-sans-serif, system-ui, sans-serif" viewBox="0 0 1100 560"><rect width="1100" height="560" fill="#fff"/><text x="80" y="28" fill="#111827" font-size="18" font-weight="700">Zone Recovery — DOGEUSDT fee-tier comparison (best setting)</text><text x="80" y="48" fill="#6b7280" font-size="12.5">lev 10 · ratio 4 · gap 35% · maxSteps 4 · maxDD 20% · random · equity per fee tier vip 0..9</text><text x="80" y="68" fill="#1d4ed8" font-size="12.5" font-weight="600">USDT margin · BNB −10%</text><line x1="80" x2="932" y1="508" y2="508" stroke="#e5e7eb" stroke-width="1"/><text x="70" y="512" fill="#6b7280" font-size="12" text-anchor="end">0.00</text><line x1="80" x2="932" y1="424" y2="424" stroke="#e5e7eb" stroke-width="1"/><text x="70" y="428" fill="#6b7280" font-size="12" text-anchor="end">22768577</text><line x1="80" x2="932" y1="340" y2="340" stroke="#e5e7eb" stroke-width="1"/><text x="70" y="344" fill="#6b7280" font-size="12" text-anchor="end">45537153</text><line x1="80" x2="932" y1="256" y2="256" stroke="#e5e7eb" stroke-width="1"/><text x="70" y="260" fill="#6b7280" font-size="12" text-anchor="end">68305730</text><line x1="80" x2="932" y1="172" y2="172" stroke="#e5e7eb" stroke-width="1"/><text x="70" y="176" fill="#6b7280" font-size="12" text-anchor="end">91074306</text><line x1="80" x2="932" y1="88" y2="88" stroke="#e5e7eb" stroke-width="1"/><text x="70" y="92" fill="#6b7280" font-size="12" text-anchor="end">113842883</text><line x1="80" x2="932" y1="139.1" y2="139.1" stroke="#9ca3af" stroke-dasharray="6 4" stroke-width="1.5"/><polyline fill="none" stroke="#2563eb" stroke-linejoin="round" stroke-width="1.8" points="80 139.1 80 136 117.2 136.9 244.5 132.6 244.9 129.7 245 127.2 245 127.7 245 128.4 245 129.3 245 125.1 245 125.6 245 126.2 245 126.9 245 127.7 245 128.2 245 128.8 245 129.5 245 130.4 245 130.8 245 131.4 245 128.7 245.1 129.1 245.1 129.5 245.1 130.1 245.1 130.9 245.1 131.2 245.1 131.7 245.1 129.4 245.1 129.8 245.1 130.2 245.1 130.7 245.1 131.3 245.1 131.6 245.1 132 245.1 130.1 245.1 130.4 245.1 130.8 245.1 128.7 245.1 127.2 245.1 127.7 245.1 128.2 245.2 125.5 245.2 126 245.3 126.7 245.3 127.5 245.7 123.6 245.7 124.2 245.7 124.9 245.7 125.9 245.8 127.1 245.9 127.7 246.2 128.4 246.6 129.4 315.2 124.8 358.7 125.5 370.1 126.4 494.1 122.1 661.7 119.7 671.4 120.4 866.3 121.3 932 122.4" opacity=".9"/><polyline fill="none" stroke="#dc2626" stroke-linejoin="round" stroke-width="1.8" points="80 139.1 80 136 117.2 136.9 244.5 132.6 244.9 129.7 245 127.2 245 127.7 245 128.4 245 129.3 245 125.1 245 125.6 245 126.2 245 126.9 245 127.7 245 128.2 245 128.8 245 129.5 245 130.4 245 130.8 245 131.4 245 128.7 245.1 129.1 245.1 129.5 245.1 130.1 245.1 130.9 245.1 131.2 245.1 131.7 245.1 129.4 245.1 129.8 245.1 130.2 245.1 130.7 245.1 131.3 245.1 131.6 245.1 132 245.1 130.1 245.1 130.4 245.1 130.8 245.1 128.7 245.1 127.2 245.1 127.7 245.1 128.2 245.2 125.5 245.2 126 245.3 126.7 245.3 127.5 245.7 123.6 245.7 124.2 245.7 124.9 245.7 125.9 245.8 127.1 245.9 127.7 246.2 128.4 246.6 129.4 315.2 124.8 358.7 125.5 370.1 126.4 494.1 122.1 661.7 119.7 671.4 120.4 866.3 121.3 932 122.4" opacity=".9"/><polyline fill="none" stroke="#16a34a" stroke-linejoin="round" stroke-width="1.8" points="80 139.1 80 136 117.2 136.9 244.5 132.5 244.9 129.7 245 127.2 245 127.7 245 128.4 245 129.3 245 125.1 245 125.5 245 126.1 245 126.8 245 127.7 245 128.1 245 128.7 245 129.4 245 130.3 245 130.7 245 131.3 245 128.6 245.1 129 245.1 129.5 245.1 130 245.1 130.8 245.1 131.2 245.1 131.6 245.1 129.3 245.1 129.7 245.1 130.1 245.1 130.6 245.1 131.2 245.1 131.5 245.1 131.9 245.1 130 245.1 130.3 245.1 130.7 245.1 128.6 245.1 127.1 245.1 127.6 245.1 128.1 245.2 125.4 245.2 125.9 245.3 126.5 245.3 127.3 245.7 123.4 245.7 124 245.7 124.8 245.7 125.7 245.8 126.9 245.9 127.5 246.2 128.3 246.6 129.2 315.2 124.6 358.7 125.3 370.1 126.2 494.1 121.9 661.7 119.5 671.4 120.2 866.3 121.1 932 122.2" opacity=".9"/><polyline fill="none" stroke="#d97706" stroke-linejoin="round" stroke-width="1.8" points="80 139.1 80 136 117.2 136.9 244.5 132.5 244.9 129.6 245 127.2 245 127.7 245 128.4 245 129.2 245 125.1 245 125.5 245 126.1 245 126.8 245 127.7 245 128.1 245 128.7 245 129.4 245 130.2 245 130.7 245 131.2 245 128.5 245.1 128.9 245.1 129.4 245.1 130 245.1 130.7 245.1 131.1 245.1 131.6 245.1 129.3 245.1 129.6 245.1 130 245.1 130.5 245.1 131.1 245.1 131.4 245.1 131.8 245.1 129.9 245.1 130.2 245.1 130.7 245.1 128.6 245.1 127 245.1 127.5 245.1 128 245.2 125.3 245.2 125.8 245.3 126.4 245.3 127.2 245.7 123.3 245.7 123.9 245.7 124.7 245.7 125.6 245.8 126.8 245.9 127.4 246.2 128.1 246.6 129.1 315.2 124.5 358.7 125.2 370.1 126.1 494.1 121.8 661.7 119.4 671.4 120.1 866.3 120.9 932 122" opacity=".9"/><polyline fill="none" stroke="#7c3aed" stroke-linejoin="round" stroke-width="1.8" points="80 139.1 80 136 117.2 136.9 244.5 132.5 244.9 129.6 245 127.2 245 127.7 245 128.4 245 129.2 245 125.1 245 125.5 245 126.1 245 126.8 245 127.6 245 128.1 245 128.7 245 129.4 245 130.2 245 130.7 245 131.2 245 128.5 245.1 128.9 245.1 129.4 245.1 130 245.1 130.7 245.1 131.1 245.1 131.5 245.1 129.3 245.1 129.6 245.1 130 245.1 130.5 245.1 131.1 245.1 131.4 245.1 131.8 245.1 129.9 245.1 130.2 245.1 130.6 245.1 128.5 245.1 127 245.1 127.4 245.1 128 245.2 125.3 245.2 125.8 245.3 126.4 245.3 127.2 245.7 123.3 245.7 123.9 245.7 124.7 245.7 125.6 245.8 126.8 245.9 127.4 246.2 128.1 246.6 129 315.2 124.5 358.7 125.2 370.1 126 494.1 121.7 661.7 119.4 671.4 120 866.3 120.9 932 122" opacity=".9"/><polyline fill="none" stroke="#0891b2" stroke-linejoin="round" stroke-width="1.8" points="80 139.1 80 136 117.2 136.9 244.5 132.5 244.9 129.6 245 127.2 245 127.7 245 128.4 245 129.2 245 125.1 245 125.5 245 126.1 245 126.8 245 127.6 245 128.1 245 128.6 245 129.3 245 130.2 245 130.7 245 131.2 245 128.5 245.1 128.9 245.1 129.4 245.1 129.9 245.1 130.7 245.1 131.1 245.1 131.5 245.1 129.2 245.1 129.5 245.1 129.9 245.1 130.4 245.1 131.1 245.1 131.4 245.1 131.8 245.1 129.8 245.1 130.2 245.1 130.6 245.1 128.5 245.1 127 245.1 127.4 245.1 128 245.2 125.2 245.2 125.7 245.3 126.4 245.3 127.2 245.7 123.3 245.7 123.9 245.7 124.6 245.7 125.5 245.8 126.7 245.9 127.3 246.2 128 246.6 129 315.2 124.4 358.7 125.1 370.1 126 494.1 121.7 661.7 119.3 671.4 120 866.3 120.8 932 121.9" opacity=".9"/><polyline fill="none" stroke="#db2777" stroke-linejoin="round" stroke-width="1.8" points="80 139.1 80 136 117.2 136.9 244.5 132.5 244.9 129.6 245 127.1 245 127.7 245 128.4 245 129.2 245 125 245 125.5 245 126.1 245 126.7 245 127.6 245 128.1 245 128.6 245 129.3 245 130.2 245 130.6 245 131.2 245 128.5 245.1 128.9 245.1 129.3 245.1 129.9 245.1 130.7 245.1 131 245.1 131.5 245.1 129.2 245.1 129.5 245.1 129.9 245.1 130.4 245.1 131.1 245.1 131.4 245.1 131.8 245.1 129.8 245.1 130.1 245.1 130.6 245.1 128.5 245.1 126.9 245.1 127.4 245.1 127.9 245.2 125.2 245.2 125.7 245.3 126.3 245.3 127.1 245.7 123.2 245.7 123.8 245.7 124.6 245.7 125.5 245.8 126.7 245.9 127.3 246.2 128 246.6 128.9 315.2 124.4 358.7 125.1 370.1 125.9 494.1 121.6 661.7 119.3 671.4 119.9 866.3 120.8 932 121.9" opacity=".9"/><polyline fill="none" stroke="#65a30d" stroke-linejoin="round" stroke-width="1.8" points="80 139.1 80 136 117.2 136.9 244.5 132.5 244.9 129.6 245 127.1 245 127.7 245 128.4 245 129.2 245 125 245 125.5 245 126 245 126.7 245 127.6 245 128.1 245 128.6 245 129.3 245 130.2 245 130.6 245 131.2 245 128.5 245.1 128.9 245.1 129.3 245.1 129.9 245.1 130.6 245.1 131 245.1 131.5 245.1 129.2 245.1 129.5 245.1 129.9 245.1 130.4 245.1 131 245.1 131.3 245.1 131.7 245.1 129.8 245.1 130.1 245.1 130.5 245.1 128.4 245.1 126.9 245.1 127.3 245.1 127.9 245.2 125.2 245.2 125.7 245.3 126.3 245.3 127.1 245.7 123.2 245.7 123.8 245.7 124.5 245.7 125.5 245.8 126.6 245.9 127.2 246.2 128 246.6 128.9 315.2 124.3 358.7 125 370.1 125.9 494.1 121.6 661.7 119.2 671.4 119.9 866.3 120.7 932 121.8" opacity=".9"/><polyline fill="none" stroke="#475569" stroke-linejoin="round" stroke-width="1.8" points="80 139.1 80 136 117.2 136.9 244.5 132.5 244.9 129.6 245 127.1 245 127.7 245 128.4 245 129.2 245 125 245 125.5 245 126 245 126.7 245 127.6 245 128 245 128.6 245 129.3 245 130.2 245 130.6 245 131.2 245 128.5 245.1 128.8 245.1 129.3 245.1 129.9 245.1 130.6 245.1 131 245.1 131.5 245.1 129.2 245.1 129.5 245.1 129.9 245.1 130.4 245.1 131 245.1 131.3 245.1 131.7 245.1 129.8 245.1 130.1 245.1 130.5 245.1 128.4 245.1 126.9 245.1 127.3 245.1 127.9 245.2 125.1 245.2 125.6 245.3 126.3 245.3 127.1 245.7 123.2 245.7 123.8 245.7 124.5 245.7 125.4 245.8 126.6 245.9 127.2 246.2 127.9 246.6 128.9 315.2 124.3 358.7 125 370.1 125.9 494.1 121.5 661.7 119.2 671.4 119.9 866.3 120.7 932 121.8" opacity=".9"/><polyline fill="none" stroke="#ea580c" stroke-linejoin="round" stroke-width="1.8" points="80 139.1 80 136 117.2 136.9 244.5 132.5 244.9 129.6 245 127.1 245 127.7 245 128.3 245 129.2 245 125 245 125.5 245 126 245 126.7 245 127.6 245 128 245 128.6 245 129.3 245 130.2 245 130.6 245 131.1 245 128.4 245.1 128.8 245.1 129.3 245.1 129.9 245.1 130.6 245.1 131 245.1 131.4 245.1 129.1 245.1 129.5 245.1 129.9 245.1 130.4 245.1 131 245.1 131.3 245.1 131.7 245.1 129.7 245.1 130.1 245.1 130.5 245.1 128.4 245.1 126.8 245.1 127.3 245.1 127.8 245.2 125.1 245.2 125.6 245.3 126.2 245.3 127 245.7 123.1 245.7 123.7 245.7 124.5 245.7 125.4 245.8 126.6 245.9 127.1 246.2 127.9 246.6 128.8 315.2 124.2 358.7 124.9 370.1 125.8 494.1 121.5 661.7 119.1 671.4 119.8 866.3 120.6 932 121.7" opacity=".9"/><line x1="950" x2="972" y1="94" y2="94" stroke="#ea580c" stroke-width="3"/><text x="980" y="98" fill="#374151" font-size="12.5">vip 9 104703506</text><line x1="950" x2="972" y1="116" y2="116" stroke="#475569" stroke-width="3"/><text x="980" y="120" fill="#374151" font-size="12.5">vip 8 104687020</text><line x1="950" x2="972" y1="138" y2="138" stroke="#65a30d" stroke-width="3"/><text x="980" y="142" fill="#374151" font-size="12.5">vip 7 104676029</text><line x1="950" x2="972" y1="160" y2="160" stroke="#db2777" stroke-width="3"/><text x="980" y="164" fill="#374151" font-size="12.5">vip 6 104659543</text><line x1="950" x2="972" y1="182" y2="182" stroke="#0891b2" stroke-width="3"/><text x="980" y="186" fill="#374151" font-size="12.5">vip 5 104648553</text><line x1="950" x2="972" y1="204" y2="204" stroke="#7c3aed" stroke-width="3"/><text x="980" y="208" fill="#374151" font-size="12.5">vip 4 104632067</text><line x1="950" x2="972" y1="226" y2="226" stroke="#d97706" stroke-width="3"/><text x="980" y="230" fill="#374151" font-size="12.5">vip 3 104621076</text><line x1="950" x2="972" y1="248" y2="248" stroke="#16a34a" stroke-width="3"/><text x="980" y="252" fill="#374151" font-size="12.5">vip 2 104577114</text><line x1="950" x2="972" y1="270" y2="270" stroke="#2563eb" stroke-width="3"/><text x="980" y="274" fill="#374151" font-size="12.5">vip 0 104522161</text><line x1="950" x2="972" y1="292" y2="292" stroke="#dc2626" stroke-width="3"/><text x="980" y="296" fill="#374151" font-size="12.5">vip 1 104522161</text><text x="80" y="542" fill="#6b7280" font-size="12" text-anchor="start">2025-10-06</text><text x="932" y="542" fill="#6b7280" font-size="12" text-anchor="end">2025-10-28</text></svg>