<svg xmlns="http://www.w3.org/2000/svg" width="1100" height="560" font-family="ui-sans-serif, system-ui, sans-serif" viewBox="0 0 1100 560"><rect width="1100" height="560" fill="#fff"/><text x="80" y="28" fill="#111827" font-size="18" font-weight="700">Zone Recovery — NEOUSDC fee-tier comparison (best setting)</text><text x="80" y="48" fill="#6b7280" font-size="12.5">lev 10 · ratio 4 · gap 20% · maxSteps 6 · maxDD 60% · random · equity per fee tier vip 0..9</text><text x="80" y="68" fill="#1d4ed8" font-size="12.5" font-weight="600">USDC margin · BNB −10%</text><line x1="80" x2="932" y1="508" y2="508" stroke="#e5e7eb" stroke-width="1"/><text x="70" y="512" fill="#6b7280" font-size="12" text-anchor="end">0.00</text><line x1="80" x2="932" y1="424" y2="424" stroke="#e5e7eb" stroke-width="1"/><text x="70" y="428" fill="#6b7280" font-size="12" text-anchor="end">5962</text><line x1="80" x2="932" y1="340" y2="340" stroke="#e5e7eb" stroke-width="1"/><text x="70" y="344" fill="#6b7280" font-size="12" text-anchor="end">11923</text><line x1="80" x2="932" y1="256" y2="256" stroke="#e5e7eb" stroke-width="1"/><text x="70" y="260" fill="#6b7280" font-size="12" text-anchor="end">17885</text><line x1="80" x2="932" y1="172" y2="172" stroke="#e5e7eb" stroke-width="1"/><text x="70" y="176" fill="#6b7280" font-size="12" text-anchor="end">23846</text><line x1="80" x2="932" y1="88" y2="88" stroke="#e5e7eb" stroke-width="1"/><text x="70" y="92" fill="#6b7280" font-size="12" text-anchor="end">29808</text><line x1="80" x2="932" y1="367.1" y2="367.1" stroke="#9ca3af" stroke-dasharray="6 4" stroke-width="1.5"/><polyline fill="none" stroke="#2563eb" stroke-linejoin="round" stroke-width="1.8" points="80 367.1 80 337.3 171.1 301.3 357.2 257.6 394.2 269.4 485.3 284 491.4 302.3 554.7 325.2 755.6 215.7 756.3 227.9 762.6 243.1 868.3 262.2 926.7 171 926.9 183.2 927.5 198.4 929.8 217.5 932 126.2 932 137.9" opacity=".9"/><polyline fill="none" stroke="#dc2626" stroke-linejoin="round" stroke-width="1.8" points="80 367.1 80 337.3 171.1 301.3 357.2 257.6 394.2 269.4 485.3 284 491.4 302.3 554.7 325.2 755.6 215.7 756.3 227.9 762.6 243.1 868.3 262.2 926.7 171 926.9 183.2 927.5 198.4 929.8 217.5 932 126.2 932 137.9" opacity=".9"/><polyline fill="none" stroke="#16a34a" stroke-linejoin="round" stroke-width="1.8" points="80 367.1 80 337.3 171.1 301.2 357.2 257.4 394.2 269 485.3 283.6 491.4 301.8 554.7 324.5 755.6 214.8 756.3 226.9 762.6 242 868.3 261 926.7 169.6 926.9 181.7 927.5 196.8 929.8 215.8 932 124.4 932 136" opacity=".9"/><polyline fill="none" stroke="#d97706" stroke-linejoin="round" stroke-width="1.8" points="80 367.1 80 337.2 171.1 301.1 357.2 257.2 394.2 268.8 485.3 283.2 491.4 301.3 554.7 324 755.6 214.1 756.3 226.1 762.6 241.2 868.3 260 926.7 168.5 926.9 180.5 927.5 195.6 929.8 214.4 932 122.9 932 134.5" opacity=".9"/><polyline fill="none" stroke="#7c3aed" stroke-linejoin="round" stroke-width="1.8" points="80 367.1 80 337.2 171.1 300.9 357.2 256.9 394.2 268.4 485.3 282.8 491.4 300.7 554.7 323.1 755.6 213 756.3 225 762.6 239.9 868.3 258.6 926.7 166.9 926.9 178.8 927.5 193.8 929.8 212.5 932 120.8 932 132.2" opacity=".9"/><polyline fill="none" stroke="#0891b2" stroke-linejoin="round" stroke-width="1.8" points="80 367.1 80 337.2 171.1 300.9 357.2 256.9 394.2 268.3 485.3 282.7 491.4 300.6 554.7 323 755.6 212.8 756.3 224.8 762.6 239.7 868.3 258.3 926.7 166.6 926.9 178.6 927.5 193.5 929.8 212.1 932 120.4 932 131.9" opacity=".9"/><polyline fill="none" stroke="#db2777" stroke-linejoin="round" stroke-width="1.8" points="80 367.1 80 337.2 171.1 300.9 357.2 256.8 394.2 268.3 485.3 282.6 491.4 300.5 554.7 322.9 755.6 212.7 756.3 224.6 762.6 239.5 868.3 258.2 926.7 166.4 926.9 178.3 927.5 193.3 929.8 211.9 932 120.1 932 131.6" opacity=".9"/><polyline fill="none" stroke="#65a30d" stroke-linejoin="round" stroke-width="1.8" points="80 367.1 80 337.1 171.1 300.8 357.2 256.8 394.2 268.2 485.3 282.5 491.4 300.4 554.7 322.7 755.6 212.5 756.3 224.4 762.6 239.3 868.3 257.9 926.7 166.1 926.9 178 927.5 192.9 929.8 211.5 932 119.7 932 131.2" opacity=".9"/><polyline fill="none" stroke="#475569" stroke-linejoin="round" stroke-width="1.8" points="80 367.1 80 337.1 171.1 300.8 357.2 256.8 394.2 268.2 485.3 282.5 491.4 300.3 554.7 322.6 755.6 212.4 756.3 224.3 762.6 239.2 868.3 257.7 926.7 165.9 926.9 177.8 927.5 192.7 929.8 211.3 932 119.5 932 130.9" opacity=".9"/><polyline fill="none" stroke="#ea580c" stroke-linejoin="round" stroke-width="1.8" points="80 367.1 80 337.1 171.1 300.8 357.2 256.7 394.2 268.1 485.3 282.4 491.4 300.2 554.7 322.5 755.6 212.2 756.3 224.1 762.6 238.9 868.3 257.5 926.7 165.7 926.9 177.5 927.5 192.4 929.8 210.9 932 119.1 932 130.5" opacity=".9"/><line x1="950" x2="972" y1="94" y2="94" stroke="#ea580c" stroke-width="3"/><text x="980" y="98" fill="#374151" font-size="12.5">vip 9 26790</text><line x1="950" x2="972" y1="116" y2="116" stroke="#475569" stroke-width="3"/><text x="980" y="120" fill="#374151" font-size="12.5">vip 8 26762</text><line x1="950" x2="972" y1="138" y2="138" stroke="#65a30d" stroke-width="3"/><text x="980" y="142" fill="#374151" font-size="12.5">vip 7 26743</text><line x1="950" x2="972" y1="160" y2="160" stroke="#db2777" stroke-width="3"/><text x="980" y="164" fill="#374151" font-size="12.5">vip 6 26714</text><line x1="950" x2="972" y1="182" y2="182" stroke="#0891b2" stroke-width="3"/><text x="980" y="186" fill="#374151" font-size="12.5">vip 5 26695</text><line x1="950" x2="972" y1="204" y2="204" stroke="#7c3aed" stroke-width="3"/><text x="980" y="208" fill="#374151" font-size="12.5">vip 4 26668</text><line x1="950" x2="972" y1="226" y2="226" stroke="#d97706" stroke-width="3"/><text x="980" y="230" fill="#374151" font-size="12.5">vip 3 26511</text><line x1="950" x2="972" y1="248" y2="248" stroke="#16a34a" stroke-width="3"/><text x="980" y="252" fill="#374151" font-size="12.5">vip 2 26401</text><line x1="950" x2="972" y1="270" y2="270" stroke="#2563eb" stroke-width="3"/><text x="980" y="274" fill="#374151" font-size="12.5">vip 0 26263</text><line x1="950" x2="972" y1="292" y2="292" stroke="#dc2626" stroke-width="3"/><text x="980" y="296" fill="#374151" font-size="12.5">vip 1 26263</text><text x="80" y="542" fill="#6b7280" font-size="12" text-anchor="start">2026-01-02</text><text x="932" y="542" fill="#6b7280" font-size="12" text-anchor="end">2026-01-31</text></svg>