<svg xmlns="http://www.w3.org/2000/svg" width="1100" height="560" font-family="ui-sans-serif, system-ui, sans-serif" viewBox="0 0 1100 560"><rect width="1100" height="560" fill="#fff"/><text x="80" y="28" fill="#111827" font-size="18" font-weight="700">Zone Recovery — BOMEUSDC fee-tier comparison (best setting)</text><text x="80" y="48" fill="#6b7280" font-size="12.5">lev 3 · ratio 2 · gap 20% · maxSteps 4 · maxDD 60% · random · equity per fee tier vip 0..9</text><text x="80" y="68" fill="#1d4ed8" font-size="12.5" font-weight="600">USDC margin · BNB −10%</text><line x1="80" x2="932" y1="508" y2="508" stroke="#e5e7eb" stroke-width="1"/><text x="70" y="512" fill="#6b7280" font-size="12" text-anchor="end">0.00</text><line x1="80" x2="932" y1="424" y2="424" stroke="#e5e7eb" stroke-width="1"/><text x="70" y="428" fill="#6b7280" font-size="12" text-anchor="end">25603</text><line x1="80" x2="932" y1="340" y2="340" stroke="#e5e7eb" stroke-width="1"/><text x="70" y="344" fill="#6b7280" font-size="12" text-anchor="end">51206</text><line x1="80" x2="932" y1="256" y2="256" stroke="#e5e7eb" stroke-width="1"/><text x="70" y="260" fill="#6b7280" font-size="12" text-anchor="end">76809</text><line x1="80" x2="932" y1="172" y2="172" stroke="#e5e7eb" stroke-width="1"/><text x="70" y="176" fill="#6b7280" font-size="12" text-anchor="end">102412</text><line x1="80" x2="932" y1="88" y2="88" stroke="#e5e7eb" stroke-width="1"/><text x="70" y="92" fill="#6b7280" font-size="12" text-anchor="end">128014</text><line x1="80" x2="932" y1="475.2" y2="475.2" stroke="#9ca3af" stroke-dasharray="6 4" stroke-width="1.5"/><polyline fill="none" stroke="#2563eb" stroke-linejoin="round" stroke-width="1.8" points="80 475.2 80 477.6 690.5 470.4 692.8 473.2 697 464.9 698.5 458.6 699.7 451.3 699.9 455.6 700.2 443.1 700.5 447.9 701.4 455.2 701.6 466.1 702.2 433.9 702.7 423 703.4 410.5 706 396.1 706.1 404.5 706.3 379.9 706.4 361 706.4 372 706.5 388.4 708 339.9 708.2 315.2 708.3 286.9 710 303.4 715.8 328.1 721.1 255.1 726 274 730.2 218.3 744.5 239.9 748.9 176.1 751.6 200.9 932 127.8" opacity=".9"/><polyline fill="none" stroke="#dc2626" stroke-linejoin="round" stroke-width="1.8" points="80 475.2 80 477.6 690.5 470.4 692.8 473.2 697 464.9 698.5 458.6 699.7 451.3 699.9 455.6 700.2 443.1 700.5 447.9 701.4 455.2 701.6 466.1 702.2 433.9 702.7 423 703.4 410.5 706 396.1 706.1 404.5 706.3 379.9 706.4 361 706.4 372 706.5 388.4 708 339.9 708.2 315.2 708.3 286.9 710 303.4 715.8 328.1 721.1 255.1 726 274 730.2 218.3 744.5 239.9 748.9 176.1 751.6 200.9 932 127.8" opacity=".9"/><polyline fill="none" stroke="#16a34a" stroke-linejoin="round" stroke-width="1.8" points="80 475.2 80 477.6 690.5 470.4 692.8 473.2 697 464.9 698.5 458.6 699.7 451.3 699.9 455.5 700.2 443 700.5 447.8 701.4 455.1 701.6 466 702.2 433.7 702.7 422.8 703.4 410.2 706 395.8 706.1 404.2 706.3 379.5 706.4 360.6 706.4 371.5 706.5 388 708 339.2 708.2 314.4 708.3 286 710 302.5 715.8 327.3 721.1 253.9 726 272.8 730.2 216.8 744.5 238.5 748.9 174.3 751.6 199.1 932 125.6" opacity=".9"/><polyline fill="none" stroke="#d97706" stroke-linejoin="round" stroke-width="1.8" points="80 475.2 80 477.6 690.5 470.4 692.8 473.2 697 464.9 698.5 458.5 699.7 451.2 699.9 455.5 700.2 442.9 700.5 447.8 701.4 455 701.6 465.9 702.2 433.6 702.7 422.6 703.4 410 706 395.6 706.1 404 706.3 379.2 706.4 360.2 706.4 371.2 706.5 387.7 708 338.7 708.2 313.8 708.3 285.2 710 301.8 715.8 326.6 721.1 252.9 726 271.9 730.2 215.6 744.5 237.3 748.9 172.8 751.6 197.7 932 123.8" opacity=".9"/><polyline fill="none" stroke="#7c3aed" stroke-linejoin="round" stroke-width="1.8" points="80 475.2 80 477.6 690.5 470.4 692.8 473.2 697 464.8 698.5 458.5 699.7 451.2 699.9 455.4 700.2 442.8 700.5 447.7 701.4 454.9 701.6 465.8 702.2 433.4 702.7 422.4 703.4 409.7 706 395.3 706.1 403.6 706.3 378.7 706.4 359.7 706.4 370.7 706.5 387.2 708 338 708.2 312.9 708.3 284.2 710 300.8 715.8 325.7 721.1 251.5 726 270.5 730.2 213.8 744.5 235.7 748.9 170.7 751.6 195.7 932 121.2" opacity=".9"/><polyline fill="none" stroke="#0891b2" stroke-linejoin="round" stroke-width="1.8" points="80 475.2 80 477.6 690.5 470.4 692.8 473.2 697 464.8 698.5 458.5 699.7 451.2 699.9 455.4 700.2 442.8 700.5 447.6 701.4 454.9 701.6 465.8 702.2 433.3 702.7 422.3 703.4 409.7 706 395.2 706.1 403.6 706.3 378.6 706.4 359.6 706.4 370.6 706.5 387.1 708 337.9 708.2 312.8 708.3 284 710 300.6 715.8 325.5 721.1 251.3 726 270.3 730.2 213.5 744.5 235.4 748.9 170.3 751.6 195.3 932 120.7" opacity=".9"/><polyline fill="none" stroke="#db2777" stroke-linejoin="round" stroke-width="1.8" points="80 475.2 80 477.6 690.5 470.4 692.8 473.2 697 464.8 698.5 458.5 699.7 451.2 699.9 455.4 700.2 442.8 700.5 447.6 701.4 454.9 701.6 465.8 702.2 433.3 702.7 422.3 703.4 409.7 706 395.2 706.1 403.5 706.3 378.6 706.4 359.5 706.4 370.5 706.5 387 708 337.8 708.2 312.7 708.3 283.9 710 300.5 715.8 325.4 721.1 251.1 726 270.1 730.2 213.3 744.5 235.2 748.9 170 751.6 195.1 932 120.4" opacity=".9"/><polyline fill="none" stroke="#65a30d" stroke-linejoin="round" stroke-width="1.8" points="80 475.2 80 477.6 690.5 470.4 692.8 473.2 697 464.8 698.5 458.5 699.7 451.2 699.9 455.4 700.2 442.8 700.5 447.6 701.4 454.9 701.6 465.7 702.2 433.3 702.7 422.3 703.4 409.6 706 395.1 706.1 403.5 706.3 378.5 706.4 359.4 706.4 370.4 706.5 386.9 708 337.6 708.2 312.5 708.3 283.7 710 300.3 715.8 325.2 721.1 250.8 726 269.9 730.2 213 744.5 234.9 748.9 169.6 751.6 194.7 932 119.9" opacity=".9"/><polyline fill="none" stroke="#475569" stroke-linejoin="round" stroke-width="1.8" points="80 475.2 80 477.6 690.5 470.4 692.8 473.1 697 464.8 698.5 458.5 699.7 451.1 699.9 455.4 700.2 442.8 700.5 447.6 701.4 454.9 701.6 465.7 702.2 433.3 702.7 422.2 703.4 409.6 706 395.1 706.1 403.4 706.3 378.4 706.4 359.3 706.4 370.4 706.5 386.9 708 337.5 708.2 312.4 708.3 283.6 710 300.2 715.8 325.1 721.1 250.7 726 269.7 730.2 212.8 744.5 234.7 748.9 169.4 751.6 194.5 932 119.6" opacity=".9"/><polyline fill="none" stroke="#ea580c" stroke-linejoin="round" stroke-width="1.8" points="80 475.2 80 477.6 690.5 470.4 692.8 473.1 697 464.8 698.5 458.4 699.7 451.1 699.9 455.3 700.2 442.8 700.5 447.6 701.4 454.8 701.6 465.7 702.2 433.2 702.7 422.2 703.4 409.5 706 395 706.1 403.4 706.3 378.4 706.4 359.2 706.4 370.3 706.5 386.8 708 337.4 708.2 312.3 708.3 283.4 710 300 715.8 325 721.1 250.4 726 269.5 730.2 212.5 744.5 234.4 748.9 169 751.6 194.1 932 119.1" opacity=".9"/><line x1="950" x2="972" y1="94" y2="94" stroke="#ea580c" stroke-width="3"/><text x="980" y="98" fill="#374151" font-size="12.5">vip 9 118532</text><line x1="950" x2="972" y1="116" y2="116" stroke="#475569" stroke-width="3"/><text x="980" y="120" fill="#374151" font-size="12.5">vip 8 118391</text><line x1="950" x2="972" y1="138" y2="138" stroke="#65a30d" stroke-width="3"/><text x="980" y="142" fill="#374151" font-size="12.5">vip 7 118295</text><line x1="950" x2="972" y1="160" y2="160" stroke="#db2777" stroke-width="3"/><text x="980" y="164" fill="#374151" font-size="12.5">vip 6 118146</text><line x1="950" x2="972" y1="182" y2="182" stroke="#0891b2" stroke-width="3"/><text x="980" y="186" fill="#374151" font-size="12.5">vip 5 118050</text><line x1="950" x2="972" y1="204" y2="204" stroke="#7c3aed" stroke-width="3"/><text x="980" y="208" fill="#374151" font-size="12.5">vip 4 117910</text><line x1="950" x2="972" y1="226" y2="226" stroke="#d97706" stroke-width="3"/><text x="980" y="230" fill="#374151" font-size="12.5">vip 3 117117</text><line x1="950" x2="972" y1="248" y2="248" stroke="#16a34a" stroke-width="3"/><text x="980" y="252" fill="#374151" font-size="12.5">vip 2 116562</text><line x1="950" x2="972" y1="270" y2="270" stroke="#2563eb" stroke-width="3"/><text x="980" y="274" fill="#374151" font-size="12.5">vip 0 115873</text><line x1="950" x2="972" y1="292" y2="292" stroke="#dc2626" stroke-width="3"/><text x="980" y="296" fill="#374151" font-size="12.5">vip 1 115873</text><text x="80" y="542" fill="#6b7280" font-size="12" text-anchor="start">2025-10-10</text><text x="932" y="542" fill="#6b7280" font-size="12" text-anchor="end">2025-10-10</text></svg>