<?xml version="1.0" encoding="UTF-8"?>
<svg xmlns="http://www.w3.org/2000/svg" width="1100" height="560" viewBox="0 0 1100 560" font-family="ui-sans-serif, system-ui, sans-serif">
  <rect width="1100" height="560" fill="#ffffff"/>
  <text x="80" y="28" font-size="18" font-weight="700" fill="#111827">Zone Recovery — BOMEUSDC fee-tier comparison (best setting)</text>
  <text x="80" y="48" font-size="12.5" fill="#6b7280">lev 3 · ratio 2 · gap 20% · maxSteps 4 · maxDD 60% · random  ·  equity per fee tier vip 0..9</text>
  <text x="80" y="68" font-size="12.5" font-weight="600" fill="#1d4ed8">USDC margin · BNB −10%</text>
  <line x1="80" y1="508.0" x2="932" y2="508.0" stroke="#e5e7eb" stroke-width="1"/><text x="70" y="512.0" text-anchor="end" font-size="12" fill="#6b7280">0.00</text><line x1="80" y1="424.0" x2="932" y2="424.0" stroke="#e5e7eb" stroke-width="1"/><text x="70" y="428.0" text-anchor="end" font-size="12" fill="#6b7280">25603</text><line x1="80" y1="340.0" x2="932" y2="340.0" stroke="#e5e7eb" stroke-width="1"/><text x="70" y="344.0" text-anchor="end" font-size="12" fill="#6b7280">51206</text><line x1="80" y1="256.0" x2="932" y2="256.0" stroke="#e5e7eb" stroke-width="1"/><text x="70" y="260.0" text-anchor="end" font-size="12" fill="#6b7280">76809</text><line x1="80" y1="172.0" x2="932" y2="172.0" stroke="#e5e7eb" stroke-width="1"/><text x="70" y="176.0" text-anchor="end" font-size="12" fill="#6b7280">102412</text><line x1="80" y1="88.0" x2="932" y2="88.0" stroke="#e5e7eb" stroke-width="1"/><text x="70" y="92.0" text-anchor="end" font-size="12" fill="#6b7280">128014</text>
  <line x1="80" y1="475.2" x2="932" y2="475.2" stroke="#9ca3af" stroke-width="1.5" stroke-dasharray="6 4"/>
  <polyline points="80.0,475.2 80.0,477.6 690.5,470.4 692.8,473.2 697.0,464.9 698.5,458.6 699.7,451.3 699.9,455.6 700.2,443.1 700.5,447.9 701.4,455.2 701.6,466.1 702.2,433.9 702.7,423.0 703.4,410.5 706.0,396.1 706.1,404.5 706.3,379.9 706.4,361.0 706.4,372.0 706.5,388.4 708.0,339.9 708.2,315.2 708.3,286.9 710.0,303.4 715.8,328.1 721.1,255.1 726.0,274.0 730.2,218.3 744.5,239.9 748.9,176.1 751.6,200.9 932.0,127.8" fill="none" stroke="#2563eb" stroke-width="1.8" stroke-linejoin="round" opacity="0.9"/>
  <polyline points="80.0,475.2 80.0,477.6 690.5,470.4 692.8,473.2 697.0,464.9 698.5,458.6 699.7,451.3 699.9,455.6 700.2,443.1 700.5,447.9 701.4,455.2 701.6,466.1 702.2,433.9 702.7,423.0 703.4,410.5 706.0,396.1 706.1,404.5 706.3,379.9 706.4,361.0 706.4,372.0 706.5,388.4 708.0,339.9 708.2,315.2 708.3,286.9 710.0,303.4 715.8,328.1 721.1,255.1 726.0,274.0 730.2,218.3 744.5,239.9 748.9,176.1 751.6,200.9 932.0,127.8" fill="none" stroke="#dc2626" stroke-width="1.8" stroke-linejoin="round" opacity="0.9"/>
  <polyline points="80.0,475.2 80.0,477.6 690.5,470.4 692.8,473.2 697.0,464.9 698.5,458.6 699.7,451.3 699.9,455.5 700.2,443.0 700.5,447.8 701.4,455.1 701.6,466.0 702.2,433.7 702.7,422.8 703.4,410.2 706.0,395.8 706.1,404.2 706.3,379.5 706.4,360.6 706.4,371.5 706.5,388.0 708.0,339.2 708.2,314.4 708.3,286.0 710.0,302.5 715.8,327.3 721.1,253.9 726.0,272.8 730.2,216.8 744.5,238.5 748.9,174.3 751.6,199.1 932.0,125.6" fill="none" stroke="#16a34a" stroke-width="1.8" stroke-linejoin="round" opacity="0.9"/>
  <polyline points="80.0,475.2 80.0,477.6 690.5,470.4 692.8,473.2 697.0,464.9 698.5,458.5 699.7,451.2 699.9,455.5 700.2,442.9 700.5,447.8 701.4,455.0 701.6,465.9 702.2,433.6 702.7,422.6 703.4,410.0 706.0,395.6 706.1,404.0 706.3,379.2 706.4,360.2 706.4,371.2 706.5,387.7 708.0,338.7 708.2,313.8 708.3,285.2 710.0,301.8 715.8,326.6 721.1,252.9 726.0,271.9 730.2,215.6 744.5,237.3 748.9,172.8 751.6,197.7 932.0,123.8" fill="none" stroke="#d97706" stroke-width="1.8" stroke-linejoin="round" opacity="0.9"/>
  <polyline points="80.0,475.2 80.0,477.6 690.5,470.4 692.8,473.2 697.0,464.8 698.5,458.5 699.7,451.2 699.9,455.4 700.2,442.8 700.5,447.7 701.4,454.9 701.6,465.8 702.2,433.4 702.7,422.4 703.4,409.7 706.0,395.3 706.1,403.6 706.3,378.7 706.4,359.7 706.4,370.7 706.5,387.2 708.0,338.0 708.2,312.9 708.3,284.2 710.0,300.8 715.8,325.7 721.1,251.5 726.0,270.5 730.2,213.8 744.5,235.7 748.9,170.7 751.6,195.7 932.0,121.2" fill="none" stroke="#7c3aed" stroke-width="1.8" stroke-linejoin="round" opacity="0.9"/>
  <polyline points="80.0,475.2 80.0,477.6 690.5,470.4 692.8,473.2 697.0,464.8 698.5,458.5 699.7,451.2 699.9,455.4 700.2,442.8 700.5,447.6 701.4,454.9 701.6,465.8 702.2,433.3 702.7,422.3 703.4,409.7 706.0,395.2 706.1,403.6 706.3,378.6 706.4,359.6 706.4,370.6 706.5,387.1 708.0,337.9 708.2,312.8 708.3,284.0 710.0,300.6 715.8,325.5 721.1,251.3 726.0,270.3 730.2,213.5 744.5,235.4 748.9,170.3 751.6,195.3 932.0,120.7" fill="none" stroke="#0891b2" stroke-width="1.8" stroke-linejoin="round" opacity="0.9"/>
  <polyline points="80.0,475.2 80.0,477.6 690.5,470.4 692.8,473.2 697.0,464.8 698.5,458.5 699.7,451.2 699.9,455.4 700.2,442.8 700.5,447.6 701.4,454.9 701.6,465.8 702.2,433.3 702.7,422.3 703.4,409.7 706.0,395.2 706.1,403.5 706.3,378.6 706.4,359.5 706.4,370.5 706.5,387.0 708.0,337.8 708.2,312.7 708.3,283.9 710.0,300.5 715.8,325.4 721.1,251.1 726.0,270.1 730.2,213.3 744.5,235.2 748.9,170.0 751.6,195.1 932.0,120.4" fill="none" stroke="#db2777" stroke-width="1.8" stroke-linejoin="round" opacity="0.9"/>
  <polyline points="80.0,475.2 80.0,477.6 690.5,470.4 692.8,473.2 697.0,464.8 698.5,458.5 699.7,451.2 699.9,455.4 700.2,442.8 700.5,447.6 701.4,454.9 701.6,465.7 702.2,433.3 702.7,422.3 703.4,409.6 706.0,395.1 706.1,403.5 706.3,378.5 706.4,359.4 706.4,370.4 706.5,386.9 708.0,337.6 708.2,312.5 708.3,283.7 710.0,300.3 715.8,325.2 721.1,250.8 726.0,269.9 730.2,213.0 744.5,234.9 748.9,169.6 751.6,194.7 932.0,119.9" fill="none" stroke="#65a30d" stroke-width="1.8" stroke-linejoin="round" opacity="0.9"/>
  <polyline points="80.0,475.2 80.0,477.6 690.5,470.4 692.8,473.1 697.0,464.8 698.5,458.5 699.7,451.1 699.9,455.4 700.2,442.8 700.5,447.6 701.4,454.9 701.6,465.7 702.2,433.3 702.7,422.2 703.4,409.6 706.0,395.1 706.1,403.4 706.3,378.4 706.4,359.3 706.4,370.4 706.5,386.9 708.0,337.5 708.2,312.4 708.3,283.6 710.0,300.2 715.8,325.1 721.1,250.7 726.0,269.7 730.2,212.8 744.5,234.7 748.9,169.4 751.6,194.5 932.0,119.6" fill="none" stroke="#475569" stroke-width="1.8" stroke-linejoin="round" opacity="0.9"/>
  <polyline points="80.0,475.2 80.0,477.6 690.5,470.4 692.8,473.1 697.0,464.8 698.5,458.4 699.7,451.1 699.9,455.3 700.2,442.8 700.5,447.6 701.4,454.8 701.6,465.7 702.2,433.2 702.7,422.2 703.4,409.5 706.0,395.0 706.1,403.4 706.3,378.4 706.4,359.2 706.4,370.3 706.5,386.8 708.0,337.4 708.2,312.3 708.3,283.4 710.0,300.0 715.8,325.0 721.1,250.4 726.0,269.5 730.2,212.5 744.5,234.4 748.9,169.0 751.6,194.1 932.0,119.1" fill="none" stroke="#ea580c" stroke-width="1.8" stroke-linejoin="round" opacity="0.9"/>
  <line x1="950" y1="94" x2="972" y2="94" stroke="#ea580c" stroke-width="3"/><text x="980" y="98" font-size="12.5" fill="#374151">vip 9  118532</text>
  <line x1="950" y1="116" x2="972" y2="116" stroke="#475569" stroke-width="3"/><text x="980" y="120" font-size="12.5" fill="#374151">vip 8  118391</text>
  <line x1="950" y1="138" x2="972" y2="138" stroke="#65a30d" stroke-width="3"/><text x="980" y="142" font-size="12.5" fill="#374151">vip 7  118295</text>
  <line x1="950" y1="160" x2="972" y2="160" stroke="#db2777" stroke-width="3"/><text x="980" y="164" font-size="12.5" fill="#374151">vip 6  118146</text>
  <line x1="950" y1="182" x2="972" y2="182" stroke="#0891b2" stroke-width="3"/><text x="980" y="186" font-size="12.5" fill="#374151">vip 5  118050</text>
  <line x1="950" y1="204" x2="972" y2="204" stroke="#7c3aed" stroke-width="3"/><text x="980" y="208" font-size="12.5" fill="#374151">vip 4  117910</text>
  <line x1="950" y1="226" x2="972" y2="226" stroke="#d97706" stroke-width="3"/><text x="980" y="230" font-size="12.5" fill="#374151">vip 3  117117</text>
  <line x1="950" y1="248" x2="972" y2="248" stroke="#16a34a" stroke-width="3"/><text x="980" y="252" font-size="12.5" fill="#374151">vip 2  116562</text>
  <line x1="950" y1="270" x2="972" y2="270" stroke="#2563eb" stroke-width="3"/><text x="980" y="274" font-size="12.5" fill="#374151">vip 0  115873</text>
  <line x1="950" y1="292" x2="972" y2="292" stroke="#dc2626" stroke-width="3"/><text x="980" y="296" font-size="12.5" fill="#374151">vip 1  115873</text>
  <text x="80" y="542" text-anchor="start" font-size="12" fill="#6b7280">2025-10-10</text><text x="932" y="542" text-anchor="end" font-size="12" fill="#6b7280">2025-10-10</text>
</svg>
