<svg xmlns="http://www.w3.org/2000/svg" width="1000" height="520" font-family="ui-sans-serif, system-ui, sans-serif" viewBox="0 0 1000 520"><rect width="1000" height="520" fill="#fff"/><text x="78" y="28" fill="#111827" font-size="18" font-weight="700">Zone Recovery — DEGENUSDT best setting (equity / PnL)</text><text x="78" y="48" fill="#6b7280" font-size="12.5">lev 3 · ratio 3 · gap 20% · maxSteps 4 · maxDD 20% · random · vip 9 · 5 series, 80.0% win · vol $3657854 ($130638/day) · fees $559.65</text><text x="78" y="68" fill="#1d4ed8" font-size="12.5" font-weight="600">USDT · BNB −10% · taker 0.0153%</text><text x="934" y="28" fill="#16a34a" font-size="18" font-weight="700" text-anchor="end">+27830 USDT (+0.03%)</text><line x1="78" x2="934" y1="468" y2="468" stroke="#e5e7eb" stroke-width="1"/><text x="68" y="472" fill="#6b7280" font-size="12" text-anchor="end">0.00</text><line x1="78" x2="934" y1="392" y2="392" stroke="#e5e7eb" stroke-width="1"/><text x="68" y="396" fill="#6b7280" font-size="12" text-anchor="end">21607646</text><line x1="78" x2="934" y1="316" y2="316" stroke="#e5e7eb" stroke-width="1"/><text x="68" y="320" fill="#6b7280" font-size="12" text-anchor="end">43215292</text><line x1="78" x2="934" y1="240" y2="240" stroke="#e5e7eb" stroke-width="1"/><text x="68" y="244" fill="#6b7280" font-size="12" text-anchor="end">64822937</text><line x1="78" x2="934" y1="164" y2="164" stroke="#e5e7eb" stroke-width="1"/><text x="68" y="168" fill="#6b7280" font-size="12" text-anchor="end">86430583</text><line x1="78" x2="934" y1="88" y2="88" stroke="#e5e7eb" stroke-width="1"/><text x="68" y="92" fill="#6b7280" font-size="12" text-anchor="end">108038229</text><line x1="78" x2="934" y1="116.3" y2="116.3" stroke="#9ca3af" stroke-dasharray="6 4" stroke-width="1.5"/><text x="934" y="110.3" fill="#6b7280" font-size="11" text-anchor="end">start 100000000</text><polyline fill="none" stroke="#d97706" stroke-linejoin="round" stroke-width="1.2" points="78 144.7 78 147.2 78.1 147.2 78.1 145.9 78.2 148.5 78.2 148.5 78.3 147.2 78.3 145.9 78.4 147.2 78.4 144.7 78.5 145.9 78.5 148.5 78.6 145.9 78.6 147.2 78.7 148.5 78.8 148.5 78.8 148.5 78.8 148.5 78.9 151 79 152.3 79 152.3 79.1 152.3 79.1 147.2 79.2 147.2 79.2 144.7 79.3 145.9 79.3 145.9 79.4 148.5 79.4 151 79.5 151 79.5 151 79.6 149.8 79.6 157.4 79.7 157.4 79.8 154.8 79.8 154.8 79.9 152.3 79.9 148.5 80 151 80 149.8 80.1 151 80.1 152.3 80.2 151 80.3 151 80.3 148.5 80.4 148.5 80.4 148.5 80.5 147.2 80.5 147.2 80.6 147.2 80.7 148.5 80.7 148.5 80.8 145.9 80.8 145.9 80.9 145.9 80.9 145.9 81 148.5 81.1 149.8 81.1 152.3 81.2 152.3 81.3 149.8 81.3 145.9 81.4 148.5 81.5 147.2 81.6 147.2 81.6 145.9 81.7 148.5 81.8 148.5 81.8 148.5 81.9 148.5 82 149.8 82 147.2 82.1 145.9 82.2 147.2 82.2 147.2 82.3 144.7 82.3 147.2 82.4 140.9 82.4 138.3 82.5 137.1 82.5 137.1 82.6 140.9 82.7 140.9 82.8 140.9 82.8 140.9 82.9 137.1 83 137.1 83 138.3 83.1 135.8 83.1 135.8 83.2 137.1 83.3 137.1 83.3 135.8 83.4 133.3 83.4 135.8 83.5 135.8 83.6 137.1 83.6 138.3 83.7 138.3 83.8 133.3 84.2 135.8 84.6 137.1 85 128.2 85.4 137.1 85.9 132 86.4 139.6 86.8 138.3 87.2 143.4 87.6 138.3 88 133.3 88.4 135.8 88.8 137.1 89.2 129.4 89.6 133.3 90.3 134.5 91 126.9 91.6 139.6 92 148.5 92.5 144.7 92.9 132 93.4 138.3 94 140.9 94.6 133.3 95.1 128.2 95.8 142.1 96.3 140.9 96.5 148.5 96.7 158.6 97 145.9 97.2 156.1 97.4 172.6 97.5 175.2 97.6 181.5 97.8 182.8 97.9 187.9 98.1 185.3 98.3 171.3 98.5 182.8 98.7 177.7 98.9 175.2 99.2 180.2 99.4 187.9 99.7 187.9 99.9 186.6 100.2 191.7 100.5 192.9 100.8 186.6 101 173.9 101.2 173.9 101.4 162.5 101.7 171.3 102.2 175.2 102.6 175.2 103 171.3 103.4 181.5 103.8 181.5 104.2 182.8 104.5 179 105 187.9 105.4 191.7 105.8 194.2 106.1 195.5 106.4 187.9 106.6 192.9 106.9 182.8 107.2 190.4 107.4 209.4 107.5 220.9 107.7 198 107.9 190.4 108.1 175.2 108.3 181.5 108.6 192.9 108.8 184 109 177.7 109.3 170.1 109.5 168.8 109.8 175.2 110.1 189.1 110.3 182.8 110.6 171.3 110.9 171.3 111.3 175.2 111.7 173.9 112 175.2 112.3 182.8 112.6 185.3 112.8 196.7 112.9 215.8 113 215.8 113.1 217.1 113.2 220.9 113.4 209.4 113.5 186.6 113.8 189.1 114 190.4 114.3 180.2 114.5 179 114.8 189.1 115.2 203.1 115.5 218.3 115.7 215.8 116 212 116.2 209.4 116.5 209.4 116.8 209.4 117 217.1 117.1 181.5 117.2 185.3 117.4 191.7 117.5 187.9 117.7 182.8 117.9 182.8 118.1 187.9 118.3 185.3 118.5 182.8 118.9 182.8 119.2 179 119.5 180.2 120 177.7 120.3 186.6 120.6 185.3 120.8 184 120.9 171.3 121.1 154.8 121.3 165 121.5 159.9 121.9 161.2 122.2 165 122.6 163.7 123 159.9 123.4 158.6 123.8 162.5 124.2 157.4 124.5 157.4 124.7 153.6 125.1 148.5 125.3 153.6 125.7 156.1 126.1 152.3 126.5 154.8 126.7 157.4 127.1 142.1 127.3 144.7 127.5 140.9 127.8 147.2 128 138.3 128.2 134.5 128.4 132 128.5 120.6 128.7 121.8 129 125.6 129.2 124.4 129.5 125.6 129.8 120.6 130.1 128.2 130.4 125.6 130.9 125.6 131.2 130.7 131.6 133.3 131.9 137.1 132.2 126.9 132.8 129.4 133.2 126.9 133.8 126.9 134.2 126.9 134.7 129.4 135 135.8 135.6 130.7 136.1 126.9 136.8 124.4 137.3 124.4 137.8 126.9 138.1 124.4 138.6 128.2 139.1 132 139.5 138.3 140.1 135.8 140.6 139.6 141.1 142.1 141.7 140.9 142.2 144.7 142.6 152.3 143 161.2 143.1 165 143.4 166.3 143.8 151 144 154.8 144.3 154.8 145 149.8 145.6 147.2 146.1 147.2 146.6 151 147.1 157.4 147.7 148.5 148.2 145.9 148.8 144.7 149.3 144.7 150 138.3 150.6 145.9 151 158.6 151.3 163.7 151.8 158.6 152.3 156.1 152.9 161.2 153.5 157.4 154.3 159.9 154.7 159.9 155.1 152.3 155.7 149.8 156.1 153.6 156.8 156.1 157.3 151 157.8 158.6 158 165 158.3 173.9 158.6 175.2 158.8 154.8 159 148.5 159.3 149.8 159.6 151 159.9 162.5 160.3 173.9 160.6 176.4 160.9 177.7 161.2 191.7 161.4 190.4 161.6 195.5 161.9 205.6 162 206.9 162.2 210.7 162.4 214.5 162.5 218.3 162.6 228.5 162.8 229.8 163 231 163.1 236.1 163.3 238.6 163.4 233.6 163.6 217.1 163.7 200.5 163.8 186.6 164 189.1 164.2 180.2 164.4 182.8 164.7 181.5 165 186.6 165.2 165 165.3 144.7 165.3 126.9 165.4 137.1 165.5 134.5 165.7 135.8 165.9 133.3 166 123.1 166.1 124.4 166.4 132 166.7 142.1 167.2 148.5 167.4 159.9 167.7 162.5 168.1 157.4 168.4 166.3 168.7 170.1 169.1 177.7 169.4 190.4 169.6 185.3 169.8 185.3 170.2 177.7 170.6 166.3 171.1 163.7 171.5 162.5 172.2 167.5 172.8 167.5 173.3 175.2 173.8 165 174.4 159.9 175 161.2 175.9 163.7 176.6 163.7 177.2 177.7 177.6 166.3 178.2 165 178.9 168.8 179.6 165 180.2 167.5 180.8 165 181.4 167.5 182 173.9 182.7 172.6 183.3 176.4 183.9 186.6 184.2 189.1 184.6 181.5 185.3 179 185.7 179 186.4 180.2 187 186.6 187.4 196.7 187.5 204.4 187.8 203.1 188.2 210.7 188.4 195.5 188.6 192.9 188.8 212 188.9 229.8 188.9 219.6 189 206.9 189.3 210.7 189.5 214.5 189.7 213.2 190 217.1 190.2 218.3 190.4 214.5 190.6 227.2 190.9 231 191 231 191.2 223.4 191.5 227.2 191.7 223.4 192 237.4 192.2 234.8 192.5 229.8 192.8 229.8 193 237.4 193.3 229.8 193.4 214.5 193.5 203.1 193.8 200.5 194 203.1 194.3 204.4 194.6 208.2 195 195.5 195.1 182.8 195.3 187.9 195.6 201.8 195.9 206.9 196.3 205.6 196.7 208.2 197.2 212 197.5 225.9 197.9 229.8 198.1 222.1 198.5 215.8 199 227.2 199.4 217.1 199.9 210.7 200.4 219.6 200.9 210.7 201.5 218.3 201.9 222.1 202.2 204.4 202.5 214.5 202.9 223.4 203.3 222.1 203.6 214.5 204 224.7 204.2 229.8 204.5 233.6 204.8 234.8 205.1 236.1 205.5 237.4 205.7 237.4 206 242.4 206.3 234.8 206.7 239.9 207.1 248.8 207.3 241.2 207.5 238.6 207.7 243.7 208 248.8 208.3 247.5 208.7 246.3 209.1 251.3 209.3 239.9 209.7 238.6 210 241.2 210.2 242.4 210.5 248.8 210.7 243.7 210.9 243.7 211.1 238.6 211.6 237.4 211.9 223.4 212.3 228.5 212.6 234.8 213.1 237.4 213.5 234.8 214.1 248.8 214.3 251.3 214.6 262.8 214.8 269.1 214.9 270.4 215 274.2 215.1 257.7 215.3 256.4 215.7 260.2 216 271.7 216.2 265.3 216.5 267.8 216.8 270.4 217 261.5 217.3 272.9 217.6 274.2 218 275.5 218.2 266.6 218.5 275.5 218.8 264 219 260.2 219.3 269.1 219.5 286.9 219.5 294.5 219.6 303.4 219.7 316.1 219.8 302.1 219.9 326.2 219.9 332.6 220 328.8 220 322.4 220.1 332.6 220.2 337.7 220.2 325 220.3 319.9 220.4 319.9 220.5 304.7 220.7 318.6 220.8 323.7 220.9 319.9 221 317.4 221.2 314.8 221.3 304.7 221.5 311 221.7 322.4 221.8 300.9 222 314.8 222.2 326.2 222.4 340.2 222.5 322.4 222.6 336.4 222.8 327.5 223 335.1 223.2 338.9 223.3 333.9 223.5 337.7 223.7 347.8 223.9 341.5 224 350.4 224.2 347.8 224.4 333.9 224.7 340.2 225 344 225.3 337.7 225.6 349.1 225.9 344 226.1 345.3 226.1 355.5 226.3 369.4 226.3 380.8 226.3 359.3 226.4 368.1 226.5 368.1 226.6 354.2 226.8 361.8 226.9 374.5 227 363.1 227.1 351.6 227.2 351.6 227.4 366.9 227.6 361.8 227.8 363.1 228.1 366.9 228.3 365.6 228.5 378.3 228.7 372 228.9 375.8 229 360.5 229.4 360.5 229.7 355.5 230 361.8 230.3 373.2 230.6 375.8 230.8 383.4 230.9 387.2 231 389.7 231.1 405 231.1 411.3 231.2 429.1 231.2 413.9 231.2 417.7 231.2 411.3 231.2 402.4 231.3 406.2 231.3 429.1 231.3 430.4 231.3 431.6 231.3 405 231.3 411.3 231.4 415.1 231.4 411.3 231.4 410.1 231.5 403.7 231.5 405 231.6 394.8 231.6 382.1 231.7 370.7 231.8 378.3 231.9 379.6 232 365.6 232.2 373.2 232.3 368.1 232.4 363.1 232.5 355.5 232.7 364.3 232.8 365.6 233 358 233.2 350.4 233.4 344 233.5 344 233.6 354.2 233.8 364.3 234.1 366.9 234.4 364.3 234.7 368.1 234.9 369.4 235.1 375.8 235.5 372 235.8 378.3 236.2 373.2 236.7 368.1 237.1 369.4 237.5 356.7 238 354.2 238.3 344 238.5 335.1 238.7 335.1 239 340.2 239.3 347.8 239.6 350.4 239.9 352.9 240.2 358 240.6 349.1 241.1 355.5 241.4 354.2 241.7 360.5 242 358 242.4 355.5 242.7 356.7 243 341.5 243.4 332.6 243.8 337.7 244.2 330.1 244.6 327.5 245.1 330.1 245.4 328.8 245.9 325 246.2 323.7 246.8 326.2 247.5 322.4 247.8 318.6 248.1 313.6 248.5 307.2 248.8 302.1 249.1 308.5 249.4 299.6 249.5 290.7 249.7 281.8 249.8 290.7 250 292 250.2 289.4 250.4 279.3 250.7 284.3 250.9 279.3 251.2 278 251.3 279.3 251.6 267.8 251.8 267.8 252 262.8 252.1 261.5 252.4 255.1 252.6 260.2 252.7 255.1 253 246.3 253.2 234.8 253.3 237.4 253.6 239.9 253.8 245 254 260.2 254.2 266.6 254.4 271.7 254.7 265.3 255 270.4 255.3 276.7 255.7 270.4 256.2 262.8 256.5 266.6 256.9 270.4 257.1 253.9 257.5 269.1 257.8 271.7 258.3 264 258.9 253.9 259.2 255.1 259.6 250.1 260.1 237.4 260.4 236.1 260.6 246.3 260.9 248.8 261.4 256.4 261.6 260.2 262 261.5 262.4 266.6 262.9 262.8 263.4 260.2 264.1 252.6 264.8 256.4 265.6 246.3 266.2 247.5 266.6 239.9 266.8 236.1 267.2 245 267.6 248.8 268.1 247.5 268.6 253.9 269.1 257.7 269.6 261.5 270.2 269.1 270.4 278 270.6 283.1 270.7 299.6 270.9 294.5 271.1 289.4 271.4 288.2 271.7 290.7 272.2 288.2 272.7 286.9 273.4 285.6 274 295.8 274.7 293.2 275.3 290.7 276.1 288.2 276.8 279.3 277.1 264 277.3 265.3 277.7 267.8 278.1 267.8 278.7 265.3 279.3 269.1 280 275.5 280.4 281.8 280.8 276.7 281.4 267.8 281.9 265.3 282 246.3 282 252.6 282 242.4 282.1 245 282.1 232.3 282.1 242.4 282.2 237.4 282.2 261.5 282.4 248.8 282.7 248.8 283.1 255.1 283.5 264 284.1 255.1 284.7 259 285.5 246.3 286 251.3 286.9 255.1 287.6 250.1 288.2 246.3 288.7 246.3 288.8 247.5 288.9 245 289 245 289.1 246.3 289.1 247.5 289.2 245 289.3 246.3 289.3 245 289.4 246.3 289.5 246.3 289.6 245 289.6 242.4 289.7 242.4 289.7 247.5 289.9 247.5 290.7 247.5 291.6 252.6 292.2 252.6 293 255.1 293.7 256.4 293.9 259 294.3 259 294.8 250.1 295.3 243.7 295.8 243.7 296.7 252.6 297.3 251.3 298 251.3 298.8 252.6 299.7 259 300.6 261.5 301.1 278 301.4 278 301.9 275.5 302.5 269.1 302.8 264 303.2 261.5 303.7 259 304.2 262.8 304.9 264 305.4 276.7 306.1 267.8 306.8 253.9 307.3 256.4 307.8 260.2 308.5 256.4 309.2 257.7 309.8 261.5 310.5 259 310.8 239.9 311.1 245 311.5 252.6 311.7 269.1 312.1 259 312.6 259 313.3 270.4 313.5 281.8 313.8 279.3 314.3 279.3 315 283.1 315.5 278 315.6 276.7 315.6 274.2 315.7 262.8 316.1 269.1 316.7 269.1 317.6 274.2 318.6 279.3 319.7 284.3 320 275.5 320.2 278 320.3 276.7 321 280.5 321.4 259 321.8 283.1 322.1 294.5 322.2 286.9 322.6 289.4 322.9 290.7 323.7 288.2 324.3 279.3 324.8 293.2 325.2 290.7 325.8 288.2 326.4 279.3 327.1 278 327.7 272.9 328.3 275.5 329.3 280.5 330.4 284.3 331.1 289.4 331.4 294.5 331.8 292 332.3 299.6 332.9 302.1 333.3 307.2 333.4 312.3 333.4 317.4 333.5 316.1 333.8 316.1 334.1 313.6 334.5 317.4 335 318.6 335.4 318.6 335.9 325 336.2 326.2 336.8 319.9 337.5 318.6 338 319.9 338.6 322.4 339.1 322.4 339.6 318.6 340.3 325 340.6 336.4 340.9 333.9 341.2 333.9 341.4 322.4 341.7 317.4 341.9 308.5 342.4 325 342.5 304.7 342.6 311 342.8 309.7 343.2 316.1 343.7 311 344 292 344.3 295.8 344.6 299.6 345 292 345.2 288.2 345.3 286.9 345.4 293.2 345.5 288.2 345.5 294.5 345.8 294.5 346.3 294.5 346.8 295.8 347.3 299.6 347.4 293.2 347.5 295.8 347.8 297 348.2 295.8 348.5 303.4 349.2 298.3 349.7 304.7 350.2 313.6 350.6 303.4 351.2 303.4 351.8 303.4 352.1 302.1 353.2 304.7 353.8 307.2 354.6 303.4 355.2 299.6 356.1 300.9 356.9 303.4 357.6 318.6 358.1 317.4 358.8 314.8 359.7 317.4 360.5 325 361.2 326.2 361.7 333.9 361.8 342.8 362.1 342.8 362.4 337.7 362.8 336.4 363.3 338.9 363.7 338.9 364.3 335.1 364.6 331.3 365 325 365.9 330.1 366.6 332.6 367.5 335.1 368.1 336.4 368.7 336.4 369.4 342.8 369.9 338.9 370.3 335.1 370.8 336.4 371.4 327.5 371.8 333.9 372 346.6 372.1 351.6 372.4 356.7 372.5 355.5 372.7 356.7 372.9 351.6 373.1 349.1 373.5 350.4 373.8 347.8 374.2 354.2 374.5 350.4 374.6 336.4 374.7 335.1 374.9 336.4 375.2 337.7 375.3 322.4 375.6 323.7 376 330.1 376.4 333.9 376.8 341.5 377.2 341.5 377.7 344 377.9 345.3 378 340.2 378.1 347.8 378.1 344 378.3 340.2 378.9 345.3 379.4 337.7 379.8 331.3 380.3 331.3 380.7 336.4 381.3 333.9 381.9 331.3 382.3 332.6 382.7 340.2 383.4 340.2 384.1 337.7 385 333.9 385.9 333.9 386.6 337.7 387.3 337.7 387.8 347.8 388.2 347.8 388.5 344 389.3 354.2 389.7 359.3 390 363.1 390.3 355.5 390.9 363.1 391.4 364.3 391.6 370.7 391.8 373.2 392.3 370.7 392.6 375.8 392.9 375.8 393.4 374.5 393.9 374.5 394.3 374.5 394.9 374.5 395.4 378.3 395.8 377 396.4 374.5 397 377 397.2 379.6 397.3 380.8 397.4 379.6 397.4 378.3 397.5 379.6 397.6 378.3 397.7 379.6 397.7 378.3 397.8 377 397.8 377 397.9 375.8 398 377 398.1 377 398.1 377 398.2 372 398.2 370.7 398.3 370.7 398.4 372 398.4 372 398.5 373.2 398.6 369.4 398.7 372 398.7 372 398.8 370.7 398.9 370.7 399 372 399 372 399.1 372 399.2 368.1 399.3 370.7 399.4 369.4 399.4 368.1 399.5 366.9 399.6 368.1 399.7 369.4 399.7 369.4 399.8 368.1 399.9 370.7 399.9 370.7 400 370.7 400.1 370.7 400.2 369.4 400.2 370.7 400.3 370.7 400.4 370.7 400.5 373.2 400.5 374.5 400.6 374.5 400.7 377 400.7 375.8 400.8 378.3 400.9 378.3 400.9 375.8 401 364.3 401 368.1 401.1 366.9 401.1 368.1 401.2 369.4 401.3 365.6 401.4 368.1 401.4 369.4 401.5 364.3 401.5 360.5 401.6 360.5 401.6 355.5 401.7 354.2 401.7 350.4 401.8 346.6 401.8 341.5 401.8 340.2 401.9 342.8 401.9 342.8 402 346.6 402 351.6 402.1 352.9 402.2 352.9 402.2 349.1 402.3 352.9 402.3 359.3 402.3 358 402.4 363.1 402.4 364.3 402.5 363.1 402.5 365.6 402.6 368.1 402.6 366.9 402.7 365.6 402.8 372 402.8 374.5 402.8 377 402.9 370.7 402.9 372 403 377 403 383.4 403.1 380.8 403.1 385.9 403.1 380.8 403.2 383.4 403.2 377 403.3 377 403.3 379.6 403.4 380.8 403.4 378.3 403.5 380.8 403.5 379.6 403.6 378.3 403.6 382.1 403.7 380.8 403.7 378.3 403.8 377 403.8 379.6 403.9 383.4 403.9 383.4 404 379.6 404 377 404.1 377 404.2 377 404.2 374.5 404.3 373.2 404.4 368.1 404.4 364.3 404.5 364.3 404.5 365.6 404.6 364.3 404.6 363.1 404.7 370.7 404.8 370.7 404.8 372 404.9 375.8 404.9 379.6 405 373.2 405 375.8 405.1 377 405.1 380.8 405.2 380.8 405.3 377 405.3 378.3 405.4 379.6 405.4 379.6 405.5 379.6 405.6 378.3 405.6 377 405.7 375.8 405.8 375.8 405.8 372 405.9 369.4 405.9 368.1 406 370.7 406 370.7 406.1 365.6 406.2 366.9 406.2 366.9 406.3 369.4 406.3 372 406.4 368.1 406.5 365.6 406.5 368.1 406.6 370.7 406.7 370.7 406.7 372 406.8 377 406.9 377 406.9 374.5 407 368.1 407 368.1 407.1 368.1 407.2 365.6 407.3 364.3 407.3 366.9 407.4 366.9 407.5 364.3 407.5 364.3 407.6 364.3 407.6 360.5 407.7 361.8 407.7 363.1 407.8 361.8 407.9 361.8 407.9 361.8 408 363.1 408 364.3 408.1 363.1 408.1 359.3 408.2 364.3 408.2 359.3 408.3 359.3 408.3 360.5 408.4 363.1 408.4 359.3 408.5 360.5 408.5 364.3 408.6 363.1 408.6 364.3 408.7 360.5 408.7 359.3 408.8 358 408.9 356.7 408.9 358 409 359.3 409.1 359.3 409.2 358 409.2 358 409.3 358 409.4 359.3 409.4 356.7 409.5 355.5 409.6 356.7 409.6 356.7 409.7 358 409.8 361.8 409.8 361.8 409.9 361.8 410 358 410 356.7 410.1 356.7 410.2 354.2 410.3 352.9 410.3 351.6 410.4 351.6 410.5 350.4 410.5 352.9 410.6 351.6 410.7 350.4 410.7 356.7 410.7 350.4 410.8 346.6 410.8 345.3 410.8 352.9 410.9 354.2 410.9 351.6 411 351.6 411 346.6 411.1 344 411.1 341.5 411.2 345.3 411.2 344 411.3 342.8 411.3 345.3 411.4 347.8 411.5 346.6 411.5 346.6 411.6 345.3 411.7 345.3 411.8 346.6 411.8 345.3 411.9 345.3 412 345.3 412.1 346.6 412.1 344 412.2 346.6 412.2 347.8 412.3 344 412.4 345.3 412.4 345.3 412.5 346.6 412.6 347.8 412.7 349.1 412.7 350.4 412.8 350.4 412.9 351.6 413 352.9 413.1 356.7 413.1 354.2 413.2 356.7 413.3 358 413.3 356.7 413.4 358 413.5 363.1 413.5 364.3 413.6 363.1 413.7 363.1 413.8 360.5 413.8 368.1 413.8 365.6 413.9 361.8 414 360.5 414 360.5 414.1 361.8 414.2 360.5 414.3 358 414.3 359.3 414.4 359.3 414.5 356.7 414.6 355.5 414.6 355.5 414.7 355.5 414.8 359.3 414.9 358 414.9 358 415 356.7 415.1 352.9 415.1 355.5 415.2 352.9 415.3 352.9 415.4 351.6 415.5 350.4 415.6 351.6 415.6 352.9 415.7 351.6 415.8 350.4 415.8 347.8 415.9 347.8 416 346.6 416 346.6 416.1 346.6 416.2 341.5 416.2 342.8 416.3 344 416.4 342.8 416.4 342.8 416.5 344 416.6 345.3 416.7 346.6 416.8 345.3 416.8 349.1 416.9 351.6 416.9 349.1 417 347.8 417.1 349.1 417.2 350.4 417.2 350.4 417.3 350.4 417.4 350.4 417.5 350.4 417.6 346.6 417.6 345.3 417.7 346.6 417.8 345.3 417.9 346.6 418 347.8 418.1 350.4 418.2 350.4 418.2 347.8 418.3 347.8 418.4 346.6 418.5 349.1 418.6 349.1 418.7 350.4 418.8 349.1 418.8 345.3 418.9 346.6 419 345.3 419.1 346.6 419.2 346.6 419.3 347.8 419.3 345.3 419.4 345.3 419.5 345.3 419.6 346.6 419.6 344 419.7 344 419.8 346.6 419.9 346.6 419.9 345.3 420 345.3 420.1 346.6 420.2 344 420.2 342.8 420.3 342.8 420.4 341.5 420.4 342.8 420.5 345.3 420.6 344 420.7 346.6 420.8 345.3 420.8 344 420.9 347.8 421 350.4 421 352.9 421.1 346.6 421.2 346.6 421.3 347.8 421.3 346.6 421.4 344 421.5 345.3 421.5 342.8 421.6 342.8 421.7 342.8 421.8 342.8 421.9 341.5 421.9 342.8 422 341.5 422.1 344 422.1 342.8 422.2 340.2 422.3 338.9 422.3 340.2 422.4 340.2 422.5 333.9 422.5 335.1 422.6 335.1 422.7 335.1 422.7 336.4 422.8 333.9 422.9 335.1 423 335.1 423 335.1 423.1 335.1 423.2 335.1 423.3 335.1 423.3 336.4 423.4 338.9 423.5 338.9 423.5 340.2 423.6 340.2 423.7 338.9 423.8 332.6 423.8 332.6 423.9 331.3 423.9 331.3 424 333.9 424.1 332.6 424.2 333.9 424.3 333.9 424.3 332.6 424.4 332.6 424.5 331.3 424.5 332.6 424.6 332.6 424.7 330.1 424.7 330.1 424.8 330.1 424.8 331.3 424.9 331.3 425 332.6 425 332.6 425.1 336.4 425.2 333.9 425.2 335.1 425.3 333.9 425.4 333.9 425.4 335.1 425.5 336.4 425.6 332.6 425.6 331.3 425.7 331.3 425.8 332.6 425.8 332.6 425.9 335.1 426 333.9 426 333.9 426.1 332.6 426.2 333.9 426.2 332.6 426.3 332.6 426.4 330.1 426.4 328.8 426.5 327.5 426.6 328.8 426.7 332.6 426.7 332.6 426.8 332.6 426.9 332.6 427 328.8 427 330.1 427.1 328.8 427.1 327.5 427.2 327.5 427.3 327.5 427.3 327.5 427.4 328.8 427.5 330.1 427.6 331.3 427.6 330.1 427.7 327.5 427.8 327.5 427.8 327.5 427.9 327.5 428 328.8 428.1 323.7 428.1 325 428.2 323.7 428.2 323.7 428.3 322.4 428.3 321.2 428.4 321.2 428.5 322.4 428.5 326.2 428.6 326.2 428.7 323.7 428.8 322.4 428.8 322.4 428.9 319.9 429 321.2 429 322.4 429.1 326.2 429.2 326.2 429.3 326.2 429.3 325 429.4 325 429.5 326.2 429.6 326.2 429.7 330.1 429.7 330.1 429.8 328.8 429.9 331.3 429.9 332.6 430 332.6 430.1 335.1 430.2 333.9 430.2 332.6 430.3 332.6 430.4 332.6 430.5 332.6 430.5 332.6 430.6 335.1 430.7 333.9 430.8 337.7 430.8 335.1 430.9 336.4 431 336.4 431.1 332.6 431.1 333.9 431.2 331.3 431.2 328.8 431.3 326.2 431.4 325 431.4 325 431.5 325 431.5 321.2 431.6 321.2 431.6 322.4 431.7 322.4 431.8 322.4 431.8 321.2 431.8 312.3 431.9 309.7 431.9 308.5 432 318.6 432 325 432 322.4 432.1 321.2 432.1 323.7 432.2 328.8 432.2 328.8 432.3 328.8 432.4 328.8 432.4 331.3 432.5 330.1 432.6 327.5 432.6 328.8 432.7 328.8 432.8 327.5 432.8 323.7 432.9 325 432.9 328.8 433 326.2 433 326.2 433.1 331.3 433.1 326.2 433.2 327.5 433.2 323.7 433.3 322.4 433.3 325 433.4 326.2 433.4 326.2 433.5 327.5 433.5 332.6 433.6 331.3 433.6 332.6 433.7 328.8 433.7 327.5 433.8 327.5 433.8 326.2 433.9 323.7 434 323.7 434 323.7 434.1 323.7 434.1 326.2 434.2 330.1 434.2 332.6 434.3 335.1 434.4 332.6 434.4 333.9 434.5 333.9 434.6 337.7 434.6 338.9 434.7 340.2 434.7 345.3 434.8 342.8 434.8 345.3 434.8 350.4 434.9 350.4 434.9 351.6 435 354.2 435 352.9 435.1 352.9 435.1 358 435.2 358 435.2 349.1 435.2 356.7 435.3 360.5 435.3 360.5 435.4 360.5 435.4 358 435.4 354.2 435.5 355.5 435.5 350.4 435.6 347.8 435.6 349.1 435.7 350.4 435.7 351.6 435.8 354.2 435.8 359.3 435.9 355.5 435.9 352.9 436 352.9 436 352.9 436.1 355.5 436.1 350.4 436.2 350.4 436.2 355.5 436.3 351.6 436.3 351.6 436.4 347.8 436.4 347.8 436.5 349.1 436.6 347.8 436.6 346.6 436.7 346.6 436.7 344 436.8 341.5 436.8 342.8 436.9 344 437 345.3 437 345.3 437.1 346.6 437.1 347.8 437.2 349.1 437.3 347.8 437.3 346.6 437.4 342.8 437.4 342.8 437.5 344 437.5 345.3 437.6 347.8 437.6 351.6 437.7 351.6 437.8 349.1 437.8 350.4 437.9 351.6 437.9 349.1 438 351.6 438.1 347.8 438.1 347.8 438.2 347.8 438.2 345.3 438.3 345.3 438.4 346.6 438.4 345.3 438.5 345.3 438.6 345.3 438.6 346.6 438.7 349.1 438.8 350.4 438.8 347.8 438.9 345.3 438.9 344 439 341.5 439 342.8 439.1 341.5 439.2 340.2 439.2 338.9 439.3 335.1 439.3 337.7 439.4 337.7 439.5 338.9 439.5 337.7 439.6 340.2 439.7 340.2 439.7 341.5 439.8 344 439.8 345.3 439.9 345.3 440 346.6 440 346.6 440.1 347.8 440.2 345.3 440.3 347.8 440.3 347.8 440.4 347.8 440.4 347.8 440.5 347.8 440.5 346.6 440.6 346.6 440.7 347.8 440.7 347.8 440.8 350.4 440.9 354.2 440.9 350.4 441 351.6 441.1 350.4 441.1 349.1 441.2 351.6 441.3 352.9 441.4 350.4 441.4 351.6 441.5 349.1 441.5 351.6 441.6 351.6 441.7 350.4 441.8 350.4 441.8 346.6 441.9 349.1 441.9 349.1 442 349.1 442.1 347.8 442.1 347.8 442.2 346.6 442.3 347.8 442.3 350.4 442.4 350.4 442.5 350.4 442.5 350.4 442.6 349.1 442.9 350.4 443.3 344 443.7 340.2 444.2 337.7 444.8 338.9 445.3 341.5 445.8 349.1 446.4 342.8 447.1 341.5 447.9 346.6 448.7 345.3 449.4 342.8 450 340.2 450.4 349.1 451 350.4 451.6 352.9 452.5 358 453.1 355.5 453.7 352.9 454 342.8 454.5 346.6 455.1 349.1 455.6 346.6 455.9 341.5 456.3 333.9 456.7 337.7 457.5 337.7 457.8 328.8 458.2 327.5 458.6 327.5 459.1 332.6 459.7 332.6 460.1 331.3 460.5 333.9 460.9 331.3 461.4 332.6 461.9 330.1 462.3 331.3 462.7 327.5 463.3 326.2 463.4 312.3 463.7 309.7 463.8 313.6 464.1 308.5 464.3 294.5 464.5 294.5 464.7 280.5 464.8 280.5 465 290.7 465.3 285.6 465.3 280.5 465.4 272.9 465.5 269.1 465.8 272.9 466 256.4 466.1 243.7 466.1 243.7 466.3 250.1 466.4 252.6 466.6 256.4 466.7 259 467 257.7 467.3 257.7 467.5 261.5 467.9 260.2 468.2 267.8 468.6 261.5 469.1 267.8 469.5 265.3 469.8 261.5 470.3 260.2 470.5 261.5 470.9 264 471.3 264 471.7 250.1 471.8 241.2 472 247.5 472.2 238.6 472.4 248.8 472.8 245 473.1 242.4 473.5 252.6 473.9 251.3 474.3 248.8 474.9 251.3 475.3 262.8 475.6 261.5 476 276.7 476.1 276.7 476.5 267.8 477 270.4 477.3 264 477.9 269.1 478.4 265.3 479 262.8 479.6 262.8 480.3 261.5 480.8 265.3 481.4 266.6 482 267.8 482.6 269.1 483.1 272.9 483.7 272.9 484.3 271.7 484.5 259 484.9 262.8 485.4 265.3 485.8 259 486 250.1 486.3 253.9 486.6 246.3 486.9 241.2 487.2 246.3 487.7 247.5 488.1 250.1 488.6 255.1 489.3 252.6 489.8 248.8 490.3 245 490.7 228.5 490.8 227.2 491.1 224.7 491.4 223.4 491.6 229.8 492 229.8 492.3 214.5 492.4 227.2 492.8 223.4 493.4 224.7 493.7 215.8 493.8 199.3 493.8 199.3 494 196.7 494.1 196.7 494.2 196.7 494.4 187.9 494.4 175.2 494.5 166.3 494.5 170.1 494.6 161.2 494.6 170.1 494.7 176.4 494.7 181.5 494.8 191.7 494.9 191.7 495.1 192.9 495.1 156.1 495.1 157.4 495.1 163.7 495.2 176.4 495.3 171.3 495.5 166.3 495.6 170.1 495.8 170.1 495.8 166.3 495.9 168.8 496 171.3 496.2 180.2 496.3 175.2 496.5 175.2 496.7 177.7 497 175.2 497.2 181.5 497.5 175.2 497.8 170.1 498.1 179 498.5 175.2 498.8 171.3 499.1 171.3 499.5 170.1 499.7 170.1 500.1 168.8 500.4 170.1 500.6 172.6 500.9 170.1 501.1 176.4 501.2 173.9 501.7 177.7 502.1 168.8 502.4 163.7 502.6 165 502.9 172.6 503.3 162.5 503.5 159.9 503.7 154.8 503.9 161.2 504.2 157.4 504.6 157.4 504.9 154.8 505.2 158.6 505.3 149.8 505.3 138.3 505.4 140.9 505.4 134.5 505.5 148.5 505.6 157.4 505.9 157.4 506 159.9 506.2 159.9 506.5 158.6 506.8 161.2 507.1 162.5 507.4 159.9 507.7 145.9 507.9 157.4 508.3 161.2 508.6 156.1 508.7 152.3 509 159.9 509.3 165 509.6 157.4 509.9 143.4 510 133.3 510.1 126.9 510.2 123.1 510.2 126.9 510.3 138.3 510.5 152.3 510.6 162.5 510.6 177.7 510.7 175.2 510.8 161.2 511.1 157.4 511.3 148.5 511.5 135.8 511.6 154.8 511.9 149.8 512.3 154.8 512.7 151 513 151 513.4 156.1 513.7 167.5 513.9 166.3 514.4 170.1 514.8 172.6 515.2 170.1 515.6 167.5 515.9 166.3 516.3 162.5 516.7 172.6 516.9 192.9 517.2 186.6 517.6 184 517.9 184 518.5 185.3 518.9 192.9 519.2 194.2 519.7 192.9 520.3 190.4 520.8 192.9 521.4 194.2 521.7 200.5 522.1 203.1 522.4 219.6 522.6 224.7 522.7 219.6 523 217.1 523.3 223.4 523.5 225.9 523.8 231 524.1 236.1 524.5 228.5 524.9 229.8 525.3 218.3 525.7 222.1 526.4 213.2 526.6 229.8 527.1 225.9 527.7 225.9 528.2 227.2 528.6 238.6 528.7 247.5 528.8 242.4 529.1 251.3 529.2 245 529.6 253.9 529.9 251.3 530.1 256.4 530.3 264 530.5 259 530.9 247.5 531.5 251.3 531.9 252.6 532.7 248.8 533 238.6 533.5 238.6 534.1 242.4 534.5 239.9 534.9 225.9 535.4 242.4 535.8 248.8 536.4 233.6 536.9 229.8 537.6 234.8 538.3 233.6 539.2 234.8 539.8 237.4 540.5 231 541.2 231 541.8 227.2 542.4 224.7 542.9 222.1 543.2 228.5 543.8 234.8 544.4 236.1 545 229.8 545.6 227.2 546.2 225.9 546.9 225.9 547.2 219.6 547.8 223.4 548.2 218.3 548.7 217.1 549.1 212 549.6 213.2 550 208.2 550.7 210.7 551.1 225.9 551.7 217.1 552.1 210.7 552.4 206.9 552.9 206.9 553.2 199.3 553.4 203.1 553.7 220.9 553.9 224.7 554.1 228.5 554.4 233.6 554.7 232.3 555 237.4 555.3 229.8 555.8 223.4 556.3 241.2 556.5 247.5 556.8 243.7 557.1 237.4 557.5 231 558 229.8 558.5 229.8 559.1 220.9 559.6 223.4 560.2 227.2 560.8 234.8 561.3 237.4 562 231 562.3 234.8 562.9 223.4 563.5 220.9 564 219.6 564.6 214.5 564.8 219.6 565.4 218.3 566.1 219.6 566.8 215.8 567.4 217.1 568 217.1 568.6 220.9 569.2 215.8 569.8 236.1 570.2 224.7 570.8 222.1 571.3 227.2 572.2 225.9 573 227.2 573.9 229.8 574.3 241.2 574.8 237.4 575.4 234.8 576.1 238.6 576.8 242.4 577.4 242.4 577.7 246.3 578.1 252.6 578.7 251.3 579 253.9 579.4 251.3 579.9 248.8 580.3 256.4 580.9 256.4 581.3 255.1 581.7 253.9 582.3 252.6 582.6 255.1 583.2 247.5 583.8 255.1 584.1 246.3 584.5 242.4 585.1 243.7 585.5 243.7 585.9 259 586.2 264 586.5 253.9 586.8 255.1 587.1 260.2 587.5 257.7 587.6 241.2 587.9 246.3 588.3 241.2 588.6 252.6 589 252.6 589.3 259 589.7 265.3 590.1 262.8 590.5 262.8 590.8 252.6 591.2 247.5 591.5 251.3 592 259 592.7 257.7 593.3 262.8 593.9 267.8 594.3 264 594.9 270.4 595.3 275.5 595.8 275.5 596.3 279.3 596.6 284.3 596.9 280.5 597.3 281.8 597.7 286.9 597.9 279.3 598.2 278 598.8 283.1 599.2 289.4 599.6 289.4 600 290.7 600.4 286.9 601 283.1 601.5 285.6 601.9 288.2 602.7 285.6 603 288.2 603.4 286.9 603.9 293.2 604.2 292 604.5 297 605.1 290.7 605.6 295.8 606 295.8 606.3 289.4 606.8 290.7 607.4 281.8 607.6 278 607.9 272.9 608.1 272.9 608.5 272.9 608.9 276.7 609.4 283.1 610.1 281.8 610.7 288.2 611.4 295.8 611.9 294.5 612.1 299.6 612.6 294.5 613.1 292 613.7 298.3 614.3 300.9 614.8 302.1 615.3 309.7 615.6 307.2 615.9 309.7 616.3 307.2 616.6 317.4 616.9 298.3 617.3 303.4 617.7 286.9 618.1 299.6 618.3 307.2 618.7 302.1 619.3 304.7 619.9 299.6 620.7 305.9 621.2 308.5 621.6 313.6 622.1 311 622.5 318.6 622.7 322.4 623 322.4 623.4 322.4 623.9 317.4 624.5 322.4 625.1 321.2 625.7 325 626.3 328.8 627 322.4 627.8 323.7 628.5 326.2 629.2 322.4 629.8 319.9 630.5 317.4 630.9 312.3 631.4 316.1 632.1 319.9 632.7 314.8 633.4 313.6 634.3 312.3 635.2 322.4 636.1 317.4 637 313.6 637.9 313.6 638.8 322.4 639.3 326.2 639.9 326.2 640.7 321.2 641.3 328.8 641.7 325 642.7 325 643.6 331.3 644.2 331.3 644.7 337.7 645 347.8 645.3 345.3 645.6 347.8 645.8 359.3 646 354.2 646.3 351.6 646.7 349.1 647 350.4 647.4 341.5 647.8 345.3 648.4 341.5 648.8 358 649.3 345.3 649.9 344 650.4 331.3 651 342.8 651.7 341.5 652.3 333.9 652.8 337.7 653.4 345.3 653.8 331.3 654.6 335.1 655.4 336.4 656.5 336.4 657.5 335.1 658.4 335.1 659.4 328.8 660.3 330.1 661.5 328.8 662.1 326.2 663 327.5 664 328.8 664.7 337.7 665.5 336.4 666.3 326.2 667.1 331.3 668.6 328.8 669.4 318.6 670.3 317.4 670.8 311 671.6 313.6 672.4 308.5 673 317.4 673.7 321.2 674.2 326.2 675.1 325 675.6 336.4 676 349.1 676.2 359.3 676.3 363.1 676.6 350.4 676.8 346.6 677.3 345.3 677.6 336.4 678 333.9 678 325 678.2 330.1 678.4 331.3 678.7 323.7 679 326.2 679.3 316.1 679.5 314.8 679.9 326.2 680.4 325 680.8 328.8 681.2 333.9 681.6 326.2 681.9 321.2 682.5 318.6 682.8 317.4 683.5 325 684.2 327.5 685.1 328.8 686.1 325 687.3 325 688.2 318.6 689.4 321.2 690.4 325 691.3 322.4 692.3 318.6 692.9 314.8 693.6 318.6 694.7 318.6 695.8 318.6 696.7 317.4 697.6 322.4 697.8 328.8 698.4 333.9 698.9 331.3 699.7 330.1 700.4 326.2 700.9 319.9 701.3 318.6 701.7 314.8 702.3 314.8 703.1 316.1 703.8 313.6 704.5 317.4 705.3 317.4 706.3 316.1 707.2 311 707.7 309.7 708.2 314.8 708.7 316.1 709.2 322.4 709.8 321.2 710.1 328.8 710.7 328.8 711.2 331.3 711.8 333.9 712.3 331.3 712.9 333.9 713.5 328.8 714.1 328.8 715.1 332.6 715.8 337.7 716.3 341.5 717.2 337.7 718.3 335.1 719.1 341.5 720 342.8 720.7 344 721.3 344 722.3 344 723.3 346.6 724.2 349.1 725.1 344 725.7 345.3 726.6 344 727.2 347.8 727.9 347.8 728.7 347.8 729.7 345.3 730.6 347.8 731.3 344 732.3 349.1 732.9 341.5 733.5 345.3 734 350.4 734.7 345.3 735.3 350.4 735.8 355.5 736.3 359.3 736.8 359.3 737.4 359.3 737.9 361.8 738.4 361.8 739.1 364.3 739.7 364.3 740.5 361.8 741.2 364.3 741.7 366.9 742.4 373.2 743.2 373.2 744.4 372 744.9 378.3 745.7 378.3 746.6 379.6 747.4 382.1 748.4 379.6 749 366.9 749.3 369.4 749.8 373.2 750.6 372 751.5 375.8 751.9 389.7 751.9 397.4 752 393.5 752.1 410.1 752.1 401.2 752.2 405 752.3 408.8 752.4 410.1 752.6 407.5 752.8 412.6 752.9 412.6 753 415.1 753.2 415.1 753.3 407.5 753.8 407.5 754.3 410.1 754.9 411.3 755.7 410.1 756.4 408.8 757.2 405 757.8 398.6 758.5 397.4 759 393.5 759.4 392.3 759.9 394.8 760.9 394.8 761.8 397.4 762.4 394.8 762.8 384.7 763.3 385.9 763.8 387.2 764.6 392.3 765.2 385.9 765.8 387.2 766.3 385.9 766.8 377 767.4 380.8 768.1 383.4 769.1 393.5 769.5 394.8 770 396.1 770.6 394.8 771.1 403.7 771.4 402.4 772 401.2 772.6 407.5 772.9 412.6 773.2 413.9 773.5 415.1 773.9 412.6 774.3 411.3 774.8 418.9 775.2 421.5 775.6 421.5 776.1 420.2 776.6 422.7 777.1 410.1 777.7 403.7 778.2 408.8 778.7 405 779.4 402.4 780 405 780.5 407.5 781.2 406.2 782.1 402.4 782.7 413.9 782.8 416.4 783 407.5 783.3 410.1 783.8 412.6 784.4 407.5 785 408.8 785.3 412.6 786 418.9 786.6 420.2 787.1 418.9 787.7 412.6 788.1 422.7 788.8 418.9 789.5 417.7 790.2 420.2 790.7 413.9 791.4 415.1 791.9 415.1 792.7 415.1 793.5 416.4 794.2 418.9 795.2 417.7 795.4 422.7 795.8 418.9 796.7 417.7 797.7 418.9 798.4 427.8 798.9 422.7 799.4 426.6 799.8 421.5 800.1 407.5 800.4 412.6 800.9 402.4 801.1 399.9 801.6 388.5 801.9 396.1 802.7 403.7 803.3 396.1 804.2 398.6 805 397.4 805.5 402.4 806.2 402.4 806.9 399.9 807.5 401.2 808.1 402.4 809.3 397.4 810.3 405 811.5 403.7 812.1 402.4 813 397.4 813.2 380.8 813.3 377 813.5 361.8 813.6 366.9 813.9 370.7 814.1 375.8 814.4 378.3 814.6 372 814.9 372 815.5 379.6 816 385.9 816.4 388.5 816.9 396.1 817.2 384.7 817.8 389.7 818.6 393.5 819 399.9 819.5 393.5 820 389.7 820.7 394.8 821.7 388.5 822.4 383.4 823.1 374.5 823.4 375.8 824 378.3 824.4 375.8 824.9 377 825.8 378.3 826.2 378.3 826.8 374.5 827.3 373.2 827.7 372 828.1 364.3 828.3 361.8 828.8 368.1 829.2 361.8 829.6 366.9 830 363.1 830.3 364.3 830.6 359.3 830.8 352.9 830.9 349.1 831 355.5 831.3 356.7 831.6 347.8 831.8 338.9 832.1 341.5 832.2 333.9 832.3 335.1 832.5 330.1 832.8 330.1 833.1 330.1 833.4 325 833.6 325 833.8 322.4 834.1 322.4 834.3 321.2 834.6 323.7 834.9 327.5 835.2 325 835.5 321.2 835.9 319.9 836.3 322.4 836.7 321.2 837 321.2 837.3 319.9 837.7 321.2 838 312.3 838.3 313.6 838.8 318.6 839.2 313.6 839.3 308.5 839.5 311 839.9 309.7 840.5 313.6 840.7 322.4 841 325 841.4 321.2 841.8 323.7 842.1 332.6 842.3 327.5 842.6 323.7 843.1 328.8 843.3 328.8 843.6 328.8 843.9 327.5 844.5 333.9 844.9 337.7 845.3 336.4 845.9 336.4 846.5 336.4 847.4 338.9 847.8 333.9 848.3 328.8 848.8 336.4 849.3 338.9 850 338.9 850.7 337.7 851 342.8 851.2 341.5 851.5 338.9 852 344 852.5 344 852.9 340.2 853.4 342.8 853.9 340.2 854.5 333.9 855.1 331.3 855.6 337.7 856.2 340.2 856.8 340.2 857.6 338.9 858.5 336.4 859.3 337.7 860.1 338.9 860.6 341.5 861 340.2 861.3 354.2 861.6 346.6 861.9 358 862.3 350.4 862.7 355.5 863.1 350.4 863.6 356.7 863.8 368.1 864 369.4 864.1 364.3 864.5 366.9 864.8 368.1 865.2 369.4 865.7 366.9 866.1 359.3 866.1 359.3 866.4 359.3 866.6 347.8 867.1 347.8 867.8 342.8 868.4 344 869.1 349.1 870 347.8 871 349.1 871.6 341.5 872.5 341.5 873.3 342.8 874.2 346.6 874.9 345.3 875.1 332.6 875.4 335.1 875.9 335.1 876.4 337.7 877.3 338.9 878 327.5 878.2 323.7 878.4 317.4 878.6 314.8 878.9 319.9 879.2 318.6 879.4 316.1 879.6 312.3 879.9 317.4 880.3 312.3 880.6 313.6 881.1 317.4 881.6 307.2 881.9 305.3 882.1 308.3 882.3 312.2 882.5 307.2 882.6 308.7 882.8 307.5 882.9 297.9 883 292.1 883 288.2 883 294.6 883.1 292.6 883.2 288.3 883.3 279.3 883.4 274.6 883.4 276.6 883.5 279.7 883.7 286.9 883.8 289.7 883.8 291.2 884 283 884.1 287.9 884.4 287.4 884.5 291.8 884.6 296 884.8 295 885 291.8 885.2 297.3 885.4 302.3 885.6 307.6 885.7 309.7 885.9 315.6 886 316.1 886 319.4 886.1 319.6 886.2 320 886.3 317.1 886.5 314.9 886.6 307.8 886.7 311.9 886.9 317.9 887.1 315.5 887.2 314.3 887.3 314.3 887.5 306.7 887.5 306.2 887.7 316.6 887.8 317.6 888 312.3 888.2 319.9 888.4 323.1 888.5 329 888.6 321.7 888.8 321 888.9 321.3 888.9 321.9 889 324.2 889.1 320.8 889.2 323.7 889.4 326.1 889.5 318.6 889.8 323.7 890.1 330.9 890.2 328.4 890.5 313.2 890.7 308 890.8 306.3 890.9 305.2 891.1 312.2 891.2 318.2 891.3 312.7 891.4 304.9 891.5 301.6 891.7 305.7 891.8 296.4 891.9 297.2 892 297.2 892.1 304.9 892.3 307.2 892.5 293 892.6 278.4 892.6 282.4 892.6 285 892.7 286.6 892.7 292.2 892.8 288.5 892.9 277.2 893 275.3 893 269.9 893 272 893.1 271.5 893.2 271.1 893.2 263 893.2 267 893.3 258.8 893.3 259.5 893.3 265.3 893.3 272.3 893.4 279.1 893.4 276.2 893.4 288.3 893.4 287.3 893.5 283.3 893.5 285.1 893.6 285.7 893.7 287.8 893.8 288.9 894 291 894.1 299.7 894.2 296.3 894.2 292.6 894.3 299.5 894.4 303.5 894.5 298.8 894.6 300.1 894.7 299.2 894.9 303.1 894.9 297 895.1 300.1 895.2 304.7 895.2 305.9 895.3 300.3 895.6 295.6 895.8 293.4 896 300.1 896.2 300.7 896.2 291.6 896.4 297.6 896.4 299.8 896.6 294 896.9 297.9 897.1 294.3 897.3 301.9 897.4 301.6 897.6 298.6 897.9 298.3 898.2 292.5 898.4 286.6 898.4 278.8 898.4 275.5 898.4 277 898.5 280.4 898.6 278.1 898.7 285.7 898.8 292.3 899 293.6 899.2 295 899.3 291.5 899.6 295.6 899.9 293.1 900.1 291.3 900.3 292.2 900.4 295.9 900.8 294.4 900.9 301.5 901 302.5 901.2 305.8 901.4 313.2 901.4 316 901.5 311.6 901.6 319 901.6 325.4 901.8 317.5 902 313.4 902.2 310.6 902.4 308.6 902.7 307.6 903.2 307.6 903.4 304.7 903.5 307.3 903.6 302.9 903.8 300.1 904 298.3 904.1 296 904.4 291.7 904.4 292.1 904.6 292.2 904.8 294.4 905 295.1 905.2 296.8 905.4 304.8 905.7 305 906 305 906.2 297.9 906.4 295.8 906.7 295.6 907 302.8 907.3 301.4 907.4 305.3 907.7 304.5 907.9 300.5 908 309.4 908.2 306.6 908.5 308.5 908.8 308.3 909.2 305.7 909.4 303.5 909.6 304.7 910 304.7 910.4 308 910.8 313.6 911.2 313 911.4 313 911.5 323.5 911.5 336.4 911.5 320.4 911.7 324.7 911.8 334.1 911.8 343.9 911.9 342.9 912 334.1 912.1 338.2 912.1 333.7 912.2 347.6 912.2 356.3 912.2 349.1 912.2 347.8 912.3 359.1 912.3 359.1 912.4 364 912.4 355.6 912.4 357.1 912.5 352.2 912.6 357.4 912.7 353.5 912.8 363.6 912.9 367.3 913.1 360.5 913.2 350.1 913.4 351.4 913.6 363.1 913.7 364.6 913.8 365 914 366.6 914 363.3 914.2 359 914.4 360.3 914.6 358.8 914.7 364.5 915 361.3 915.2 357.2 915.4 357.5 915.7 361.5 916 363.6 916.2 357.7 916.4 360.2 916.6 360.7 916.7 360.9 916.9 352.8 917 356.7 917.3 362.6 917.5 356 917.8 357 918.1 352.4 918.6 357.4 918.8 358.5 919.3 358.1 919.7 359.8 920.1 363.1 920.4 362.1 920.8 367.1 921 354.4 921 346.2 921.2 347.7 921.3 349.6 921.5 344.4 921.6 336.4 921.8 334 922 331.5 922.3 333.9 922.5 340.3 922.8 343.6 923.1 341.9 923.4 338.9 923.6 339.1 923.9 342.2 924.3 337.4 924.7 338.2 925.1 325.1 925.4 326.4 925.6 328.5 925.9 333 926 333.2 926.3 324.5 926.5 329.8 927 331.8 927.2 320.7 927.5 318.8 927.7 325.4 928 326.5 928.2 332.2 928.3 324.6 928.5 322.4 928.7 326.9 928.9 323.3 929.2 318.1 929.4 313.4 929.8 313.8 930 311.3 930.2 310.8 930.4 315.7 930.6 313.4 931 310.5 931.4 309.4 931.7 308.5 932.1 308.5 932.3 307.5 932.7 303.6 933 304.3 933.3 304 933.8 302.6 934 303.4" opacity=".6"/><text x="942" y="472" fill="#d97706" font-size="11" text-anchor="start">0.00</text><text x="942" y="396" fill="#d97706" font-size="11" text-anchor="start">0.00</text><text x="942" y="320" fill="#d97706" font-size="11" text-anchor="start">0.00</text><text x="942" y="244" fill="#d97706" font-size="11" text-anchor="start">0.00</text><text x="942" y="168" fill="#d97706" font-size="11" text-anchor="start">0.00</text><text x="942" y="92" fill="#d97706" font-size="11" text-anchor="start">0.00</text><text x="942" y="80" fill="#d97706" font-size="11" font-weight="600" text-anchor="start">price</text><polygon fill="#16a34a" fill-opacity=".08" points="107.5 468 107.5 116.3 107.5 116.3 127 116.3 162.4 116.4 165.3 116.4 188.8 116.5 231.2 116.4 231.7 116.4 491.1 116.3 494.5 116.3 522.4 116.4 752.9 116.2 893.2 116.1 901.6 116.2 901.6 468"/><polyline fill="none" stroke="#16a34a" stroke-linejoin="round" stroke-width="2" points="107.5 116.3 107.5 116.3 127 116.3 162.4 116.4 165.3 116.4 188.8 116.5 231.2 116.4 231.7 116.4 491.1 116.3 494.5 116.3 522.4 116.4 752.9 116.2 893.2 116.1 901.6 116.2"/><line x1="88" x2="110" y1="102" y2="102" stroke="#16a34a" stroke-width="2.5"/><text x="116" y="106" fill="#374151" font-size="11.5">equity</text><line x1="88" x2="110" y1="118" y2="118" stroke="#d97706" stroke-width="2.5" opacity=".8"/><text x="116" y="122" fill="#374151" font-size="11.5">price</text><text x="78" y="502" fill="#6b7280" font-size="12" text-anchor="start">2026-02-01</text><text x="934" y="502" fill="#6b7280" font-size="12" text-anchor="end">2026-02-28</text></svg>