<?xml version="1.0" encoding="UTF-8"?>
<svg xmlns="http://www.w3.org/2000/svg" width="1000" height="520" viewBox="0 0 1000 520" font-family="ui-sans-serif, system-ui, sans-serif">
  <rect width="1000" height="520" fill="#ffffff"/>
  <text x="78" y="28" font-size="18" font-weight="700" fill="#111827">Zone Recovery — ARBUSDC best setting (equity / PnL)</text>
  <text x="78" y="48" font-size="12.5" fill="#6b7280">lev 5 · ratio 2 · gap 20% · maxSteps 4 · maxDD 60% · random · vip 9  ·  9 series, 100.0% win · vol $1900849 ($61318/day) · fees $160.81</text>
  <text x="78" y="68" font-size="12.5" font-weight="600" fill="#1d4ed8">USDC · BNB −10% · taker 0.0085%</text>
  <text x="934" y="28" text-anchor="end" font-size="18" font-weight="700" fill="#16a34a">+21759 USDT  (+217.59%)</text>
  <line x1="78" y1="468.0" x2="934" y2="468.0" stroke="#e5e7eb" stroke-width="1"/><text x="68" y="472.0" text-anchor="end" font-size="12" fill="#6b7280">0.00</text><line x1="78" y1="392.0" x2="934" y2="392.0" stroke="#e5e7eb" stroke-width="1"/><text x="68" y="396.0" text-anchor="end" font-size="12" fill="#6b7280">7409</text><line x1="78" y1="316.0" x2="934" y2="316.0" stroke="#e5e7eb" stroke-width="1"/><text x="68" y="320.0" text-anchor="end" font-size="12" fill="#6b7280">14819</text><line x1="78" y1="240.0" x2="934" y2="240.0" stroke="#e5e7eb" stroke-width="1"/><text x="68" y="244.0" text-anchor="end" font-size="12" fill="#6b7280">22228</text><line x1="78" y1="164.0" x2="934" y2="164.0" stroke="#e5e7eb" stroke-width="1"/><text x="68" y="168.0" text-anchor="end" font-size="12" fill="#6b7280">29638</text><line x1="78" y1="88.0" x2="934" y2="88.0" stroke="#e5e7eb" stroke-width="1"/><text x="68" y="92.0" text-anchor="end" font-size="12" fill="#6b7280">37047</text>
  <line x1="78" y1="365.4" x2="934" y2="365.4" stroke="#9ca3af" stroke-width="1.5" stroke-dasharray="6 4"/><text x="934" y="359.4" text-anchor="end" font-size="11" fill="#6b7280">start 10000</text>
  <polyline points="78.0,245.6 78.5,243.1 79.2,245.0 79.7,245.6 80.7,243.7 81.0,243.7 81.8,246.3 82.7,249.5 83.5,250.8 84.1,246.6 84.8,245.9 85.4,247.9 86.3,248.2 86.9,246.6 87.9,247.5 88.4,244.7 88.7,244.3 89.3,244.0 89.9,243.4 90.6,241.1 91.3,241.1 92.0,238.3 92.5,241.5 93.3,236.7 93.9,233.1 94.2,233.1 94.5,231.2 94.8,231.8 95.2,226.7 95.4,227.4 95.7,228.0 95.9,226.4 96.1,221.3 96.2,219.3 96.2,222.9 96.4,221.3 96.5,218.4 96.7,218.1 97.0,219.0 97.2,219.3 97.5,218.1 97.8,216.8 98.0,212.9 98.1,211.3 98.3,210.7 98.7,213.9 99.1,214.9 99.5,213.9 100.1,211.3 100.6,212.3 100.7,208.1 101.0,204.9 101.3,205.6 101.6,207.2 102.0,205.2 102.4,206.2 102.9,207.2 103.4,206.2 103.8,204.6 104.3,201.4 104.4,198.2 104.7,200.4 105.1,201.1 105.6,200.4 105.7,199.5 106.3,200.1 106.8,199.1 107.2,197.9 107.7,201.4 108.3,201.7 108.7,201.4 109.1,197.5 109.4,195.6 109.8,195.0 110.0,192.7 110.3,194.7 110.5,200.1 110.8,205.9 110.8,201.1 111.1,201.4 111.6,202.0 112.1,203.6 112.7,199.1 113.2,199.1 113.6,201.4 114.2,202.0 114.7,204.0 115.0,202.7 115.6,203.0 116.2,198.2 116.5,199.8 116.8,195.3 116.9,190.5 116.9,191.5 117.0,192.4 117.1,192.1 117.3,191.8 117.4,191.8 117.6,192.7 118.0,193.7 118.2,192.4 118.5,195.6 118.8,195.9 119.1,198.8 119.5,199.8 120.1,197.2 120.1,194.3 120.2,191.8 120.3,191.1 120.6,192.1 120.9,194.0 121.3,195.9 121.8,194.7 122.1,201.4 122.2,199.1 122.4,201.7 122.5,194.3 122.5,193.1 122.6,194.0 122.6,190.5 122.7,187.6 122.7,190.8 122.9,192.7 123.0,195.6 123.2,198.2 123.3,199.1 123.5,196.9 123.6,191.8 123.7,190.5 123.9,195.3 124.1,195.9 124.3,188.6 124.4,187.9 124.6,188.6 124.7,182.2 124.8,187.3 124.9,185.4 125.0,185.4 125.2,181.8 125.3,180.6 125.4,180.9 125.6,181.5 125.8,182.8 126.0,185.0 126.3,184.4 126.5,184.1 126.8,182.8 127.1,185.0 127.4,187.9 127.7,184.4 128.0,182.5 128.4,179.6 128.7,178.0 129.0,178.6 129.3,180.2 129.7,182.5 130.2,179.6 130.6,177.4 130.9,174.8 131.0,171.3 131.2,174.5 131.4,176.4 131.8,173.5 132.3,174.5 132.9,176.1 133.4,173.5 133.8,174.5 134.3,174.1 134.6,175.4 135.2,176.1 135.7,178.3 136.4,174.1 137.1,173.8 137.4,167.1 137.6,167.7 138.0,168.7 138.7,171.3 139.2,168.4 139.7,171.9 140.2,170.6 140.9,173.2 141.0,176.7 141.2,177.7 141.6,181.2 141.7,186.3 141.9,187.6 142.1,184.7 142.3,187.3 142.6,188.3 143.0,185.7 143.2,183.4 143.5,184.4 144.1,183.8 144.4,181.2 144.8,183.8 145.3,185.4 146.0,187.0 146.8,186.3 147.3,185.4 147.9,183.1 148.2,181.8 148.8,179.9 149.5,180.2 150.1,177.7 150.7,181.8 151.5,179.0 151.7,178.3 152.1,175.4 152.2,173.5 152.5,170.9 152.8,172.5 153.4,173.8 153.9,175.7 154.4,176.4 155.1,175.1 156.1,176.1 156.6,178.0 157.3,177.0 157.9,175.7 158.6,177.4 159.1,175.1 159.4,172.9 159.8,172.2 160.6,172.9 160.9,166.5 161.0,166.8 161.1,167.7 161.3,170.9 161.5,169.0 161.9,168.7 162.1,168.4 162.6,172.5 163.1,170.3 163.5,168.4 163.9,167.4 164.2,169.3 164.5,162.9 164.7,163.9 165.0,165.8 165.3,163.9 165.6,164.2 166.0,165.2 166.4,167.1 167.0,166.8 167.5,165.8 168.0,164.9 168.3,166.1 168.6,171.6 168.8,172.9 169.2,172.5 169.6,171.9 169.9,168.1 170.1,174.8 170.3,172.2 170.6,172.9 170.9,170.0 171.4,171.6 171.6,166.8 171.8,166.8 172.1,167.1 172.3,167.7 172.6,166.1 173.0,166.8 173.3,167.1 173.7,167.7 174.2,167.7 174.7,164.5 175.0,159.7 175.2,158.8 175.5,162.0 175.8,163.9 176.2,165.5 176.5,163.6 176.9,160.0 177.2,158.4 177.5,160.4 177.7,158.8 178.0,155.9 178.2,154.6 178.4,152.0 178.7,152.4 178.9,153.6 179.1,153.6 179.4,150.1 179.6,150.4 179.7,148.5 180.0,145.6 180.4,145.9 180.7,145.6 181.0,148.2 181.4,145.0 181.8,146.3 182.1,150.1 182.3,154.6 182.5,154.9 182.8,156.2 182.8,161.3 182.9,162.9 183.0,162.0 183.2,160.0 183.5,161.3 183.9,158.1 184.3,157.2 185.0,157.5 185.3,152.4 185.7,155.2 186.1,156.8 186.3,152.7 186.4,154.9 186.9,155.2 187.4,148.8 187.5,148.8 187.7,148.8 188.0,151.1 188.3,152.0 188.5,147.5 188.6,151.7 188.8,148.8 188.9,153.6 189.1,154.0 189.3,149.1 189.4,146.6 189.6,149.1 189.7,141.8 189.9,144.0 190.1,146.3 190.3,143.4 190.4,141.8 190.5,141.1 190.7,142.7 190.9,143.1 191.1,144.7 191.2,148.8 191.5,148.8 191.8,145.0 192.3,148.2 192.5,148.8 193.0,146.9 193.4,150.1 193.6,156.2 193.7,157.8 193.8,158.8 194.1,155.9 194.5,156.8 194.8,153.6 195.1,155.6 195.4,159.7 195.7,159.4 196.0,165.5 196.3,161.6 196.6,160.4 196.9,156.8 197.1,156.5 197.5,153.6 198.0,155.6 198.4,158.1 198.8,160.7 198.9,164.9 199.1,164.5 199.4,162.9 199.7,162.6 200.0,162.6 200.2,159.4 200.6,163.2 200.7,164.9 201.0,163.2 201.5,166.1 201.9,164.9 202.3,162.3 202.8,163.2 203.1,160.4 203.4,159.1 203.7,158.4 204.0,160.0 204.2,162.6 204.3,162.0 204.6,161.0 204.8,161.6 205.1,160.0 205.2,159.7 205.3,159.1 205.4,155.6 205.4,152.0 205.5,158.1 205.6,150.1 205.7,155.6 205.8,156.5 206.0,156.5 206.1,156.2 206.3,150.1 206.5,146.9 206.6,145.9 206.7,144.3 206.9,145.3 207.1,145.9 207.3,145.0 207.4,147.9 207.6,148.5 207.8,149.1 208.1,149.5 208.3,152.7 208.4,156.5 208.6,157.5 208.8,150.1 209.0,148.2 209.1,144.3 209.1,142.1 209.3,144.7 209.5,142.7 209.7,141.1 209.7,138.6 210.0,139.5 210.2,135.4 210.4,134.1 210.7,135.4 211.0,132.5 211.3,137.9 211.5,134.7 211.8,134.1 212.0,130.6 212.1,132.5 212.3,135.7 212.6,137.6 212.8,136.0 213.1,135.7 213.4,137.0 213.8,137.9 214.1,132.8 214.5,129.9 214.7,131.8 215.0,132.5 215.4,135.4 215.9,134.7 216.3,136.6 216.6,136.6 216.8,143.4 217.0,137.9 217.2,135.7 217.3,132.5 217.5,133.8 217.7,129.0 217.9,131.5 218.0,132.8 218.2,136.0 218.5,138.6 218.8,137.0 219.1,138.2 219.6,137.0 220.0,136.3 220.2,131.5 220.5,133.1 221.0,130.6 221.2,131.5 221.7,130.6 222.1,132.2 222.4,132.5 222.8,133.4 223.2,133.8 223.4,137.3 223.7,132.5 223.8,128.3 224.0,131.8 224.4,133.8 224.6,135.0 224.7,139.5 225.0,139.5 225.2,140.5 225.4,135.0 225.7,136.3 226.0,141.1 226.3,140.5 226.6,140.2 227.0,137.9 227.5,137.0 227.8,137.6 228.0,137.6 228.5,134.4 228.8,134.4 229.1,133.8 229.3,131.2 229.6,131.8 230.0,130.9 230.3,129.6 230.6,129.3 230.9,128.3 231.2,128.3 231.4,126.7 231.7,125.7 231.9,126.7 232.2,129.3 232.4,125.1 232.4,122.2 232.5,118.7 232.6,117.1 232.7,115.8 232.7,117.1 232.8,117.7 232.9,117.4 233.0,119.7 233.1,121.9 233.1,127.7 233.2,129.0 233.3,130.6 233.4,125.1 233.5,126.7 233.7,125.4 233.8,124.8 234.0,128.3 234.1,133.4 234.1,139.2 234.2,136.3 234.3,139.8 234.5,137.3 234.6,137.3 234.6,142.7 234.7,142.4 234.8,140.5 234.9,142.4 235.0,146.9 235.1,146.6 235.2,149.1 235.3,149.8 235.4,152.0 235.4,151.1 235.6,150.1 235.7,149.8 235.9,148.5 236.1,149.5 236.2,147.5 236.4,146.6 236.5,151.7 236.6,157.5 236.6,156.8 236.7,161.6 236.8,165.5 236.8,160.4 236.9,157.2 237.1,156.5 237.3,156.8 237.6,155.6 237.8,153.6 238.0,154.9 238.3,153.0 238.6,152.4 238.9,154.6 239.2,149.5 239.5,148.8 239.7,145.3 240.0,144.0 240.3,146.9 240.5,142.1 240.5,135.0 240.6,129.6 240.6,134.4 240.8,132.2 240.9,127.7 241.1,129.3 241.3,131.2 241.5,131.5 241.7,134.4 242.1,136.3 242.5,135.4 242.8,132.5 243.2,131.2 243.6,131.5 243.9,134.7 244.2,136.6 244.4,139.8 244.8,144.3 245.0,145.6 245.2,149.5 245.4,146.6 245.6,149.8 245.9,150.7 246.2,150.4 246.6,149.8 246.8,147.2 247.1,145.0 247.5,144.0 247.9,145.9 248.4,143.7 249.0,147.9 249.5,148.2 250.0,147.9 250.3,145.6 250.6,148.5 250.9,149.1 251.3,150.1 251.9,148.8 252.2,144.0 252.4,139.2 252.7,138.6 252.9,136.0 253.1,135.0 253.4,137.6 253.8,137.3 253.9,132.8 254.1,136.0 254.2,138.2 254.4,142.1 254.6,145.6 254.7,148.5 254.9,149.8 255.1,150.1 255.3,150.7 255.6,151.1 255.9,149.1 256.2,149.8 256.4,147.9 256.5,145.0 256.5,145.9 257.0,144.7 257.3,143.7 257.7,146.3 258.1,146.9 258.4,148.5 258.8,151.4 259.0,148.2 259.3,149.5 259.7,153.3 259.8,159.7 260.0,160.0 260.1,162.3 260.3,163.2 260.4,165.8 260.4,162.3 260.5,159.7 260.6,155.6 260.7,157.2 260.8,157.2 260.9,155.9 261.0,163.2 261.0,164.2 261.1,163.2 261.2,165.2 261.3,170.0 261.4,167.4 261.5,166.5 261.6,164.5 261.7,167.4 261.9,166.8 262.1,168.1 262.3,164.9 262.5,162.9 262.7,164.9 262.8,167.7 263.0,164.5 263.3,167.1 263.6,162.6 263.9,157.8 264.2,161.3 264.4,164.5 264.7,163.6 264.9,163.2 265.1,161.0 265.4,162.9 265.6,161.3 265.9,167.1 266.0,167.1 266.2,162.6 266.5,162.0 266.8,162.0 267.1,165.5 267.3,165.5 267.6,166.5 267.9,165.2 268.2,164.9 268.7,165.8 269.1,169.0 269.5,165.2 269.8,165.8 270.2,168.7 270.4,167.1 270.5,162.0 270.8,161.3 271.3,160.7 271.7,165.8 272.1,164.5 272.6,160.4 273.0,159.4 273.3,162.3 273.7,161.0 273.9,159.4 274.1,162.9 274.4,165.5 274.8,164.5 275.3,167.4 275.6,172.2 275.7,170.9 276.0,169.7 276.4,168.1 276.6,166.5 277.0,166.8 277.3,164.9 277.8,164.5 278.2,167.4 278.4,170.3 278.5,174.5 278.6,172.9 278.8,172.9 279.0,171.9 279.3,175.4 279.3,179.3 279.4,178.0 279.5,179.9 279.7,175.1 279.9,171.9 280.1,170.0 280.4,169.0 280.6,167.4 281.0,166.5 281.3,170.6 281.6,173.2 281.7,174.1 281.9,173.2 282.0,177.0 282.2,178.6 282.5,178.3 282.8,181.2 282.9,184.1 283.0,181.8 283.2,178.0 283.5,174.8 283.9,173.5 284.1,178.0 284.3,179.0 284.4,180.6 284.6,179.9 284.9,179.3 285.2,180.2 285.4,183.4 285.6,182.5 285.9,185.4 286.2,185.0 286.6,183.8 286.9,187.0 287.3,187.0 287.6,185.0 287.9,190.2 288.0,188.9 288.1,185.7 288.2,187.0 288.3,188.6 288.4,182.8 288.5,183.1 288.6,184.1 288.7,180.2 288.8,179.0 288.8,178.6 289.0,174.8 289.1,173.2 289.2,173.2 289.4,168.4 289.5,168.7 289.7,165.2 289.8,167.7 290.0,167.1 290.1,170.3 290.3,168.7 290.4,170.9 290.6,166.8 290.8,167.7 290.9,164.5 291.0,162.9 291.2,165.2 291.3,166.1 291.5,168.4 291.7,166.8 291.9,164.9 292.2,166.5 292.5,167.7 292.9,170.0 293.2,169.0 293.5,172.2 293.9,170.3 294.3,175.4 294.5,179.6 294.8,181.2 295.1,178.0 295.5,177.0 295.9,175.4 296.4,173.8 296.8,170.0 297.2,171.3 297.8,170.6 298.3,170.9 298.8,175.1 299.6,174.1 300.2,173.2 300.6,170.9 300.7,171.3 300.8,177.7 300.9,176.7 301.3,177.0 301.5,173.2 302.0,178.0 302.3,178.6 302.7,175.7 303.2,176.4 303.5,172.9 303.9,174.5 304.5,176.7 305.1,177.0 305.9,177.0 306.6,175.4 307.1,175.7 307.7,175.1 308.2,176.7 308.4,175.7 308.8,179.6 309.0,183.1 309.1,186.6 309.2,185.0 309.3,181.5 309.5,179.3 309.7,177.7 310.0,177.0 310.5,180.9 310.9,179.6 311.5,179.0 312.2,179.0 312.6,179.9 313.3,183.1 314.0,182.2 314.2,178.0 314.4,173.8 314.5,178.6 314.6,176.1 314.9,176.7 315.3,182.5 315.6,179.3 315.7,183.4 315.8,181.2 315.9,183.8 316.1,184.4 316.2,182.2 316.4,185.0 316.5,184.4 316.6,176.1 316.7,172.2 316.7,170.0 316.8,169.0 316.9,166.8 316.9,170.0 317.0,172.2 317.2,171.9 317.3,172.9 317.4,167.1 317.5,165.2 317.6,161.0 317.7,159.7 317.8,165.2 318.0,166.5 318.1,167.1 318.4,166.1 318.6,166.5 318.8,172.9 318.9,171.6 319.1,173.5 319.4,170.0 319.7,168.1 319.9,175.4 320.1,179.3 320.2,181.2 320.4,177.7 320.7,175.4 321.0,180.9 321.2,183.8 321.4,185.4 321.7,183.4 321.9,183.4 322.1,183.1 322.5,182.5 322.8,182.8 323.2,183.8 323.5,181.5 323.7,178.6 324.2,180.2 324.7,180.2 325.0,178.6 325.6,176.4 326.3,179.6 327.1,181.8 327.8,182.8 328.5,182.2 329.4,184.1 330.1,186.0 330.7,187.0 331.3,186.6 331.8,185.4 332.4,185.0 333.5,184.1 334.4,182.8 335.0,178.6 335.7,178.0 336.0,177.4 336.4,178.3 337.0,175.1 337.5,171.3 337.7,166.5 337.9,162.0 337.9,167.7 338.0,170.3 338.4,170.9 338.9,170.6 339.6,171.3 340.3,168.7 341.0,169.3 341.5,163.2 341.8,163.9 342.4,164.9 342.9,168.1 343.4,169.7 344.0,168.1 344.4,169.0 345.0,170.0 345.4,171.6 345.9,170.9 346.3,168.4 347.0,171.6 347.4,174.8 347.9,173.8 348.7,170.6 349.5,170.0 350.5,171.9 351.3,175.4 352.1,179.0 352.7,178.6 353.1,180.9 353.6,181.5 354.5,181.8 355.2,178.6 356.0,180.6 356.8,178.0 357.7,180.9 358.6,179.9 359.4,180.9 360.6,180.6 361.4,182.2 362.1,178.3 362.8,178.6 363.5,177.7 364.4,177.4 365.2,177.7 366.4,177.0 367.5,176.4 368.4,175.4 368.9,171.9 369.6,175.4 370.3,176.4 370.9,176.1 371.4,173.2 371.9,176.7 372.3,182.8 372.6,181.8 373.1,180.6 373.2,173.5 373.4,176.7 373.8,179.0 374.5,181.8 375.2,180.9 376.1,180.6 376.9,183.8 377.2,187.6 377.4,189.9 377.5,192.4 377.9,189.5 378.4,192.4 378.7,191.8 379.3,187.3 379.6,196.6 379.8,195.0 380.3,193.1 380.7,198.8 380.8,195.0 381.0,190.2 381.3,193.1 381.7,190.2 382.0,191.8 382.2,189.9 382.5,194.7 382.7,196.9 382.9,191.1 382.9,186.6 383.0,182.5 383.1,184.4 383.4,182.2 383.6,187.0 383.8,183.1 384.2,180.6 384.3,174.8 384.6,179.0 384.9,174.8 385.1,172.2 385.3,173.2 385.6,169.0 385.9,172.5 386.2,175.7 386.6,178.3 387.0,173.8 387.6,171.9 388.2,172.5 388.9,173.8 389.4,178.6 390.1,177.4 390.5,183.8 390.7,186.6 390.9,187.0 391.1,185.0 391.4,186.0 391.6,190.2 391.7,193.1 391.8,196.6 392.0,193.7 392.2,195.0 392.5,193.1 392.8,195.9 393.4,194.0 394.0,195.0 394.5,196.9 395.2,195.0 395.9,195.3 396.5,196.9 396.9,200.4 397.4,199.8 397.8,201.4 398.2,201.4 398.3,204.0 398.4,201.7 398.5,197.2 398.6,195.3 398.8,196.3 399.0,195.9 399.3,195.9 399.4,193.4 399.6,190.5 399.8,188.6 400.0,188.6 400.3,188.9 400.6,190.5 400.7,183.4 400.9,184.7 401.1,186.0 401.4,184.4 401.7,189.2 401.9,196.3 402.0,195.6 402.2,194.3 402.6,193.7 402.9,191.1 403.2,196.6 403.6,195.3 404.0,193.7 404.4,195.0 404.8,192.1 405.1,195.3 405.5,198.2 406.0,201.7 406.4,201.7 406.9,202.7 407.1,200.1 407.6,201.1 408.4,203.0 409.3,200.8 409.8,198.5 410.3,198.2 410.8,195.0 411.6,197.2 412.0,192.4 412.7,195.9 413.1,195.6 413.7,194.0 414.4,193.4 415.1,192.4 415.5,187.6 415.7,187.0 416.3,187.6 416.9,188.6 417.4,186.6 418.3,189.2 419.0,187.3 419.7,185.4 420.1,183.4 420.5,184.4 421.0,184.1 421.8,185.4 422.5,185.7 422.8,182.2 423.3,181.8 424.0,181.5 424.4,179.0 424.8,177.4 424.9,174.5 425.0,173.8 425.1,175.4 425.1,174.8 425.3,172.9 425.5,173.8 425.8,170.6 426.0,166.1 426.1,162.9 426.2,160.7 426.3,160.0 426.4,161.0 426.6,166.5 426.7,164.9 426.9,168.1 427.0,171.9 427.2,170.9 427.3,165.2 427.4,162.3 427.6,163.9 427.7,158.1 427.8,153.3 428.0,154.0 428.2,152.4 428.3,156.5 428.4,149.8 428.6,152.0 428.8,147.9 429.0,151.4 429.3,156.5 429.5,152.4 429.6,154.9 429.8,153.6 430.0,150.1 430.1,150.1 430.3,149.5 430.4,145.9 430.7,148.5 430.9,148.2 431.2,150.7 431.5,152.7 431.9,150.7 432.1,152.0 432.4,149.1 432.7,151.1 433.0,155.2 433.1,157.8 433.4,157.5 433.6,154.9 433.7,153.3 433.7,154.0 434.0,151.1 434.2,153.0 434.3,153.6 434.4,152.4 434.8,146.6 434.8,137.6 434.9,130.6 434.9,122.9 434.9,120.6 434.9,124.8 434.9,125.4 434.9,130.9 434.9,134.1 435.0,134.4 435.0,129.0 435.1,128.6 435.2,126.7 435.4,124.5 435.6,126.4 435.8,123.5 435.9,127.0 436.1,129.6 436.3,133.1 436.5,134.7 436.7,136.0 437.0,134.4 437.0,131.8 437.3,129.9 437.5,130.9 437.7,133.1 438.0,131.2 438.3,128.3 438.6,131.2 438.9,132.5 439.1,128.0 439.4,129.0 439.7,129.9 440.2,130.6 440.5,132.8 440.9,133.8 441.3,130.9 441.7,128.3 442.1,128.3 442.2,125.4 442.5,124.1 442.8,128.0 443.0,130.2 443.3,133.4 443.7,129.9 444.1,130.9 444.5,132.8 444.8,130.6 445.1,126.7 445.5,129.3 446.0,129.9 446.6,127.3 447.0,127.0 447.5,125.7 447.7,126.1 448.3,126.1 448.9,129.3 449.2,129.9 449.7,131.2 449.9,134.1 450.4,134.7 450.8,136.6 451.1,134.1 451.6,134.7 451.9,132.8 452.3,133.8 452.6,136.0 452.8,138.9 453.1,142.1 453.3,136.3 453.5,137.3 453.7,137.6 453.7,136.0 453.9,135.0 454.0,135.7 454.0,131.5 454.1,130.6 454.2,134.1 454.3,136.0 454.3,135.0 454.5,129.0 454.5,130.2 454.7,127.3 454.9,130.9 455.0,133.1 455.1,132.2 455.4,130.6 455.6,126.7 455.7,127.7 456.0,128.6 456.0,128.0 456.2,125.1 456.3,127.0 456.5,130.6 456.7,128.3 456.9,128.0 457.2,131.2 457.2,137.3 457.3,135.4 457.5,135.0 457.7,138.6 457.9,139.5 458.1,141.1 458.3,145.3 458.4,149.8 458.6,149.5 458.8,147.2 459.0,146.3 459.3,142.4 459.4,135.7 459.6,139.2 459.9,140.8 460.1,137.6 460.3,139.5 460.6,140.5 460.9,142.7 461.1,141.1 461.4,142.1 461.9,139.5 462.3,141.8 462.8,143.4 463.2,145.9 463.7,142.4 464.4,146.9 465.0,148.2 465.4,149.1 465.8,146.6 466.2,147.2 466.4,150.4 466.8,149.1 467.2,150.7 467.5,154.0 467.7,153.0 468.0,156.2 468.4,155.9 468.5,161.6 468.7,165.2 468.8,166.5 469.0,166.1 469.3,164.2 469.6,160.7 470.1,161.6 470.5,160.7 470.9,160.0 471.3,159.4 471.7,161.0 472.2,161.6 472.7,162.0 473.1,156.8 473.4,152.0 473.8,153.6 474.2,155.6 474.6,156.8 475.4,155.9 475.7,151.4 476.0,150.1 476.5,151.4 477.0,153.0 477.2,152.4 477.7,152.4 478.3,156.8 478.9,153.3 479.4,151.1 480.0,146.3 480.3,148.2 480.7,146.3 481.1,147.2 481.3,151.7 481.4,153.6 481.5,155.2 481.6,156.2 481.8,152.4 481.9,155.6 482.1,155.9 482.3,159.4 482.3,162.6 482.4,162.6 482.6,163.2 482.6,167.4 482.7,170.6 482.8,174.8 482.8,178.3 482.9,178.0 482.9,176.1 483.0,169.7 483.0,176.1 483.1,176.1 483.3,173.2 483.5,171.9 483.6,172.9 483.8,169.3 484.1,170.0 484.3,171.3 484.6,172.5 484.8,168.1 485.1,167.7 485.2,174.1 485.5,173.5 485.5,180.2 485.8,179.3 486.1,180.2 486.2,182.2 486.5,183.8 486.6,182.2 486.8,182.2 487.0,184.4 487.1,180.9 487.3,183.4 487.5,179.6 487.8,177.4 488.2,180.6 488.6,183.4 489.0,179.9 489.6,178.6 490.1,177.0 490.5,174.5 490.7,174.5 491.2,175.4 491.6,172.5 492.2,171.6 492.7,171.3 493.4,172.9 493.8,175.1 494.5,174.5 494.8,178.6 495.0,175.1 495.5,173.5 496.2,177.0 496.8,179.0 497.4,179.0 497.7,180.9 497.9,182.5 498.1,179.3 498.7,175.7 498.9,173.2 499.5,172.5 500.0,169.7 500.5,167.7 501.2,171.3 501.7,168.7 502.3,168.4 503.0,170.6 503.9,171.6 504.5,173.2 505.1,174.5 505.6,171.9 506.5,172.5 507.3,175.7 507.8,175.4 508.2,175.7 508.8,173.2 509.0,172.5 509.2,173.8 509.3,174.8 509.5,174.5 509.8,174.1 509.9,179.3 510.0,181.8 510.1,188.3 510.2,185.7 510.3,187.6 510.4,191.8 510.5,189.2 510.6,188.6 510.8,185.4 511.0,186.6 511.2,183.1 511.4,182.2 511.7,184.7 511.9,187.6 512.2,189.2 512.6,183.1 512.9,181.2 513.4,180.6 513.8,181.8 514.3,184.4 514.7,181.5 515.1,180.6 515.4,183.4 515.8,176.4 516.0,175.7 516.3,171.9 516.6,170.9 517.0,171.6 517.5,172.2 517.9,172.2 518.3,173.2 518.9,173.8 519.8,171.9 520.3,170.6 520.8,169.3 521.3,167.1 521.6,164.2 522.2,165.2 522.7,170.6 523.6,168.1 524.4,168.7 525.2,169.0 525.9,166.1 526.6,163.9 527.1,165.5 527.7,167.4 528.3,164.5 528.8,161.6 529.1,159.4 529.5,160.4 529.9,154.3 530.2,153.3 530.4,154.0 530.7,155.6 531.2,156.5 531.7,152.4 531.9,151.7 532.4,152.0 532.7,154.6 532.8,156.5 533.0,156.2 533.2,157.5 533.4,160.0 533.9,157.8 534.2,151.7 534.4,151.7 534.6,150.7 534.9,151.7 535.2,151.7 535.4,149.8 535.7,150.4 535.9,149.8 536.2,147.9 536.5,146.9 536.6,140.8 536.8,139.8 537.0,137.9 537.2,133.8 537.5,136.6 537.8,133.4 538.0,134.7 538.2,132.8 538.3,128.3 538.5,129.6 538.7,133.8 538.9,137.9 539.1,138.2 539.3,136.6 539.6,131.8 539.8,137.6 540.0,140.5 540.5,140.2 540.7,140.2 541.1,139.2 541.6,139.8 542.1,139.2 542.4,139.2 542.9,140.5 543.3,141.5 543.8,144.7 544.3,145.6 544.7,147.9 545.2,147.5 545.6,149.5 545.9,153.3 546.1,155.6 546.5,154.0 547.0,153.3 547.3,150.7 547.5,149.8 547.7,141.8 547.8,141.8 547.9,145.9 548.2,147.5 548.5,148.8 548.7,151.7 548.9,152.0 549.2,153.6 549.6,156.2 550.1,152.4 550.4,157.8 550.8,155.9 551.4,154.3 552.0,156.2 552.5,157.8 553.2,158.8 554.1,157.2 554.7,158.8 555.2,158.1 555.7,163.2 556.4,159.4 556.8,161.3 557.3,160.4 558.0,159.1 558.4,157.5 558.7,155.2 559.1,158.1 559.6,156.2 560.0,154.9 560.6,152.4 561.2,151.4 561.9,151.1 562.3,153.0 562.8,156.2 563.2,153.6 563.5,155.2 563.8,151.1 564.1,151.1 564.5,154.6 564.7,156.5 565.1,154.9 565.6,152.4 566.0,149.8 566.3,149.1 566.7,149.8 567.1,151.4 567.6,150.7 568.1,151.4 568.4,148.8 568.7,142.1 568.8,140.8 569.1,141.1 569.4,139.8 569.9,143.4 570.4,144.3 570.7,143.4 571.0,138.6 571.1,137.3 571.4,140.5 572.1,141.5 572.8,141.5 573.0,139.8 573.4,139.8 573.7,139.2 573.9,139.2 574.0,148.2 574.1,149.8 574.3,148.8 574.3,156.2 574.4,155.9 574.5,162.0 574.5,160.0 574.6,163.2 574.8,165.8 574.8,172.2 574.8,174.8 574.8,175.1 574.9,176.7 575.0,180.9 575.0,183.8 575.0,193.7 575.1,200.4 575.1,206.5 575.1,218.1 575.1,234.7 575.1,230.9 575.1,238.6 575.1,251.4 575.1,245.0 575.1,224.2 575.1,217.1 575.1,210.0 575.1,210.0 575.1,211.6 575.2,210.7 575.2,214.2 575.2,213.6 575.2,210.7 575.2,212.3 575.2,217.1 575.2,218.1 575.3,217.4 575.3,217.1 575.3,218.1 575.3,220.9 575.3,222.9 575.3,223.8 575.4,220.9 575.4,222.5 575.4,220.9 575.4,219.0 575.4,226.1 575.4,225.1 575.5,222.9 575.5,223.8 575.5,223.2 575.6,225.1 575.6,222.2 575.6,225.4 575.7,224.8 575.7,221.9 575.7,223.8 575.8,223.5 575.8,222.2 575.9,220.9 576.0,222.2 576.0,221.9 576.1,224.2 576.2,226.4 576.3,222.5 576.4,220.9 576.5,220.6 576.6,224.2 576.7,225.1 576.8,225.1 577.0,224.5 577.1,228.0 577.2,226.4 577.3,221.9 577.5,220.6 577.6,220.6 577.8,220.3 578.2,218.4 578.5,221.9 578.7,226.1 578.8,225.4 579.1,225.4 579.5,224.8 579.7,226.7 579.9,228.0 580.3,227.4 580.5,229.6 580.8,231.5 581.1,232.5 581.4,230.6 581.6,230.2 581.9,229.3 582.2,229.6 582.5,228.3 582.9,230.2 583.3,231.2 583.6,226.7 583.9,224.5 584.2,227.0 584.5,229.0 584.7,226.7 584.9,225.1 585.3,226.4 585.5,226.7 585.8,226.7 586.2,226.4 586.6,228.3 587.1,231.8 587.6,231.2 588.0,229.3 588.3,232.2 588.6,231.2 588.9,238.3 589.2,236.0 589.6,234.7 589.9,237.6 590.2,235.0 590.5,236.3 590.9,235.4 591.2,234.7 591.6,231.8 591.8,229.3 592.1,229.9 592.5,231.2 592.8,232.8 593.1,234.4 593.5,231.2 593.9,229.3 594.0,228.3 594.4,227.4 594.6,222.5 594.9,222.2 595.3,224.5 595.7,224.2 596.2,226.4 596.6,223.2 597.0,220.3 597.3,214.9 597.5,213.9 597.9,215.8 598.1,216.8 598.4,217.4 598.7,220.0 599.1,219.3 599.5,221.3 600.0,223.2 600.3,224.5 600.6,226.7 600.9,223.5 601.3,227.0 601.6,228.6 601.8,229.3 602.0,228.6 602.2,222.2 602.6,223.5 602.9,225.1 603.2,227.7 603.6,226.7 604.0,229.9 604.2,225.4 604.7,227.0 605.2,229.9 605.7,227.4 605.9,223.2 606.2,222.5 606.5,224.2 606.8,224.2 607.1,221.6 607.3,222.9 607.6,225.4 608.0,225.4 608.3,224.2 608.4,223.8 608.5,223.2 608.7,227.4 608.9,224.2 609.2,224.8 609.5,225.4 609.8,230.2 609.9,235.4 610.0,230.6 610.2,231.8 610.4,229.9 610.6,232.8 610.8,231.5 611.1,231.2 611.4,232.5 611.6,233.8 611.8,235.0 612.0,235.0 612.1,238.9 612.2,237.3 612.5,238.9 612.5,243.4 612.6,241.8 612.8,242.1 613.0,240.2 613.3,238.9 613.6,240.8 613.8,239.9 614.1,235.0 614.2,232.2 614.4,228.3 614.5,229.0 614.7,232.8 615.0,232.8 615.2,234.1 615.4,234.4 615.6,235.4 615.9,236.7 616.3,238.6 616.6,237.9 616.8,234.7 617.1,235.4 617.5,234.1 617.8,238.3 618.1,239.2 618.3,240.2 618.3,235.0 618.6,240.2 618.9,238.9 619.1,242.1 619.3,240.8 619.4,240.5 619.5,236.3 619.6,237.3 619.7,239.2 619.7,236.3 619.8,238.6 620.0,243.4 620.1,243.7 620.1,246.9 620.2,240.8 620.2,240.8 620.3,245.6 620.4,242.7 620.5,243.7 620.6,242.1 620.8,244.3 620.9,245.3 621.1,241.1 621.3,243.7 621.4,243.1 621.6,248.8 621.7,250.8 621.9,251.7 621.9,255.2 622.1,252.0 622.3,248.8 622.5,250.1 622.7,252.7 622.9,253.6 623.1,257.5 623.2,255.9 623.3,254.3 623.6,254.0 623.8,256.8 624.0,256.2 624.2,258.4 624.5,257.2 624.7,255.9 625.0,256.2 625.2,257.2 625.5,254.9 625.8,257.5 626.0,251.4 626.2,250.4 626.5,252.7 626.7,252.7 627.0,252.4 627.4,255.6 627.8,256.2 628.2,257.2 628.6,257.2 628.6,266.5 628.6,268.1 628.7,261.3 628.7,259.7 629.0,260.7 629.2,262.9 629.4,260.1 629.6,261.3 629.9,260.4 630.1,262.0 630.2,261.7 630.4,259.4 630.7,259.1 631.0,255.9 631.0,256.2 631.2,254.6 631.4,252.4 631.7,249.2 632.1,250.4 632.5,251.4 632.8,247.5 633.1,248.8 633.5,245.6 634.0,247.2 634.4,244.0 634.8,245.6 635.1,247.2 635.9,245.3 636.7,246.6 637.0,244.0 637.2,245.3 637.8,245.3 638.3,247.2 638.5,246.3 639.1,246.3 639.5,246.9 639.9,247.2 640.3,252.7 640.7,250.1 641.2,251.1 641.6,251.7 641.9,249.2 642.6,252.0 643.1,254.6 643.6,254.3 644.0,260.4 644.2,262.6 644.3,266.1 644.4,263.6 644.5,266.8 644.7,268.7 644.8,264.9 645.1,262.9 645.4,261.3 645.7,263.6 646.0,265.8 646.4,265.5 646.5,262.6 646.5,258.8 646.6,254.3 646.7,248.5 646.8,251.1 646.9,249.8 647.0,243.1 647.0,245.0 647.1,246.9 647.2,248.2 647.4,247.2 647.5,244.0 647.6,245.3 647.8,243.4 647.8,239.9 647.9,241.5 648.1,243.7 648.2,243.7 648.3,241.5 648.5,238.3 648.6,235.0 648.8,236.3 649.0,238.9 649.1,243.1 649.2,244.3 649.3,248.8 649.4,253.6 649.5,257.5 649.5,259.1 649.6,254.6 649.7,259.4 649.8,264.2 649.9,261.3 650.0,256.5 650.1,262.0 650.1,266.5 650.2,262.6 650.4,263.9 650.5,268.4 650.5,266.8 650.6,263.6 650.8,264.2 650.9,263.9 651.1,262.6 651.2,258.1 651.4,261.7 651.6,260.1 651.8,261.0 652.0,256.2 652.2,258.8 652.5,259.7 652.6,252.4 652.7,246.6 652.7,245.6 652.7,245.9 652.8,245.0 652.8,241.5 652.9,239.5 652.9,237.6 653.0,236.0 653.1,234.1 653.1,239.2 653.2,234.4 653.3,236.0 653.4,239.5 653.5,240.2 653.7,243.7 653.9,244.7 654.2,242.7 654.4,239.5 654.6,237.0 654.8,238.6 655.3,236.3 655.7,238.3 656.1,243.4 656.3,245.0 656.6,245.9 656.9,244.7 657.3,246.6 657.6,251.7 657.9,249.2 658.1,249.2 658.4,248.5 658.8,246.6 659.2,247.2 659.7,243.7 660.0,241.8 660.3,239.5 660.8,241.5 661.2,241.1 661.8,241.5 662.1,246.6 662.7,247.5 663.1,248.2 663.7,248.5 664.2,251.7 664.7,252.7 665.0,257.2 665.3,260.4 665.6,260.1 665.8,259.4 666.0,260.7 666.3,263.9 666.4,265.5 666.6,266.5 666.9,265.2 667.3,265.8 667.3,267.1 667.5,265.2 667.7,267.7 667.9,267.1 668.2,262.3 668.6,261.0 669.0,258.8 669.4,260.1 669.8,261.7 670.2,262.0 670.6,262.6 670.9,264.2 671.2,265.8 671.5,264.9 671.9,266.5 672.2,267.7 672.6,267.7 673.0,268.1 673.2,267.7 673.4,269.0 673.6,271.9 673.8,270.3 674.0,270.6 674.2,269.3 674.5,272.9 674.6,271.3 674.7,273.5 674.8,273.2 674.9,277.4 675.1,276.4 675.2,276.4 675.4,277.4 675.6,277.4 675.6,282.5 675.7,282.5 675.9,278.6 676.0,272.9 676.2,277.4 676.4,276.4 676.6,278.6 676.7,275.4 676.9,274.8 677.1,275.8 677.2,270.9 677.5,270.6 677.7,269.0 678.0,273.5 678.3,269.3 678.6,270.6 678.8,271.3 679.0,269.0 679.1,272.2 679.3,270.6 679.6,273.5 679.9,275.1 680.2,277.4 680.5,273.8 680.9,276.1 681.1,275.1 681.4,278.0 681.8,279.6 682.1,277.7 682.5,278.0 682.9,280.9 683.3,278.6 683.6,276.1 684.1,278.0 684.7,278.3 685.2,276.7 685.6,277.0 686.0,276.7 686.6,276.4 687.2,274.8 687.5,273.2 688.1,273.8 688.9,274.2 689.3,269.0 689.7,269.3 690.3,269.3 690.6,267.4 691.0,262.9 691.5,265.8 691.8,266.5 692.2,267.7 692.4,266.1 692.8,266.5 693.1,271.9 693.5,271.6 694.0,270.3 694.4,271.3 694.8,269.3 695.2,269.3 695.5,273.8 695.9,274.5 696.3,274.8 696.7,275.8 697.2,276.4 697.6,276.4 697.8,275.4 698.1,275.4 698.4,274.2 698.8,273.8 699.0,274.5 699.3,273.8 699.8,274.5 700.3,271.9 700.9,272.6 701.3,273.2 701.8,274.5 702.1,274.8 702.2,279.3 702.3,280.6 702.3,283.8 702.4,281.8 702.5,286.3 702.6,286.7 702.6,284.7 702.8,282.2 702.9,280.9 703.0,283.1 703.1,279.9 703.3,279.3 703.4,279.6 703.5,277.7 703.7,272.9 703.8,275.1 704.0,272.2 704.1,274.5 704.3,274.8 704.5,278.3 704.6,271.3 704.7,267.1 704.8,267.4 705.0,270.9 705.2,274.5 705.4,269.7 705.5,264.9 705.6,261.0 705.6,263.3 705.7,262.9 705.8,263.3 706.0,264.5 706.2,268.1 706.5,263.6 706.6,263.3 706.8,262.3 707.0,265.8 707.3,266.1 707.5,268.4 707.7,274.2 707.8,271.6 708.0,277.4 708.1,275.8 708.3,275.8 708.6,275.8 708.8,274.8 709.1,278.6 709.2,280.6 709.3,281.2 709.5,282.8 709.7,278.3 710.1,275.4 710.6,277.4 711.1,276.4 711.6,275.4 712.4,275.4 713.1,277.4 713.9,278.0 714.7,277.7 715.2,276.7 715.8,273.8 716.6,272.6 717.2,268.7 717.8,267.7 718.2,265.2 718.3,270.3 719.0,273.8 719.7,274.5 720.5,273.8 721.3,272.2 721.9,274.5 723.0,274.2 723.8,276.4 724.9,277.4 725.4,273.8 726.9,273.8 728.0,274.8 729.2,278.0 729.6,275.1 730.6,274.8 731.1,279.9 731.6,280.6 731.9,280.6 732.6,278.0 733.3,279.3 734.2,279.9 734.8,281.5 735.4,282.5 736.3,280.6 737.1,278.6 738.3,279.0 739.2,277.4 740.0,278.3 740.8,279.3 741.1,278.6 741.9,277.0 742.5,282.5 743.3,280.6 744.2,280.6 744.9,283.8 745.5,284.4 746.3,283.4 747.2,286.7 748.1,285.1 748.8,285.1 749.5,284.1 750.2,284.1 750.7,288.3 751.1,287.0 751.7,283.1 752.0,280.6 752.8,277.0 753.5,281.2 754.6,283.8 755.0,286.0 755.7,284.4 756.3,287.3 757.0,286.7 757.3,289.2 757.5,288.9 758.1,287.9 758.8,288.9 759.2,295.0 759.2,292.1 759.2,293.4 759.2,295.0 759.3,296.9 759.3,298.5 759.4,299.5 759.4,303.3 759.4,303.6 759.5,304.0 759.5,305.6 759.6,303.6 759.7,303.0 759.8,304.3 760.1,303.3 760.3,299.8 760.5,302.0 760.8,303.3 761.1,301.4 761.5,304.0 761.7,308.5 761.7,304.0 761.8,303.6 762.0,307.2 762.1,309.1 762.2,310.1 762.3,309.7 762.5,308.8 762.7,308.1 763.0,310.4 763.0,311.0 763.1,314.5 763.1,315.5 763.2,315.2 763.4,312.3 763.5,317.1 763.6,321.3 763.6,317.1 763.8,314.5 764.0,315.5 764.2,314.5 764.5,316.5 764.7,314.2 764.9,309.4 765.1,310.4 765.4,309.4 765.6,311.3 766.0,309.7 766.4,313.6 766.7,311.3 767.0,314.9 767.3,310.4 767.5,310.1 767.8,310.1 768.1,308.1 768.4,307.5 768.6,305.2 769.0,307.2 769.3,304.9 769.6,300.1 769.8,297.9 770.0,299.2 770.2,297.9 770.5,297.6 770.7,298.5 771.0,299.8 771.5,300.4 772.0,300.4 772.5,304.3 772.9,303.6 773.3,301.1 773.6,297.6 774.2,300.4 775.0,301.1 775.6,302.0 776.1,297.2 776.5,295.9 776.8,295.6 777.2,297.2 777.6,295.3 778.0,294.3 778.2,293.1 778.7,296.9 779.3,298.8 779.9,299.5 780.5,297.6 781.3,296.3 782.0,298.2 782.2,296.3 782.8,297.9 783.4,296.6 783.9,294.7 784.6,295.9 784.9,299.2 785.0,300.4 785.1,296.3 785.1,294.0 785.3,294.3 785.5,296.9 785.7,294.3 785.8,291.1 786.0,292.1 786.2,295.0 786.4,300.1 786.4,301.4 786.6,299.2 786.8,296.9 786.9,299.8 787.1,303.3 787.2,296.6 787.4,299.2 787.6,301.1 787.7,301.1 787.8,297.6 788.0,297.9 788.1,300.8 788.3,302.4 788.5,303.3 788.7,300.4 789.2,300.1 789.5,299.8 789.7,295.0 790.0,298.2 790.3,296.6 790.9,298.8 791.5,299.2 792.1,301.1 792.6,303.0 793.2,299.8 793.4,297.2 793.6,297.6 794.1,298.5 794.8,299.5 795.4,297.2 796.1,300.4 796.8,299.2 797.6,297.9 798.0,295.6 798.5,297.2 799.1,297.2 799.7,298.5 800.7,299.2 801.1,297.6 801.8,298.5 802.4,299.8 803.2,300.4 804.5,301.7 805.2,301.1 805.9,304.3 806.4,304.6 807.0,304.3 808.0,305.2 808.7,305.6 809.9,306.2 810.8,306.5 811.6,306.5 812.3,305.6 812.6,305.6 812.8,309.1 813.0,309.1 813.3,306.5 813.5,306.8 813.9,308.1 814.3,302.4 814.5,298.5 814.6,296.3 814.8,297.2 815.0,296.3 815.3,295.0 815.6,297.9 815.8,305.6 815.9,308.5 816.1,304.6 816.4,309.4 816.7,309.1 816.9,306.5 817.3,305.2 817.5,305.9 817.7,302.0 817.8,301.4 818.2,300.1 818.5,300.8 818.8,297.9 819.1,295.3 819.3,292.7 819.4,292.7 819.6,292.7 819.8,291.5 820.0,291.1 820.1,291.8 820.5,293.4 820.9,294.7 821.4,296.3 822.0,292.4 822.7,294.3 823.5,295.0 824.1,295.0 824.6,293.7 825.1,295.9 825.6,297.6 826.0,297.6 826.5,296.9 827.2,296.3 827.8,296.3 828.6,299.5 829.1,299.2 829.7,297.6 830.5,295.3 830.9,295.6 831.2,298.5 831.6,295.6 832.2,295.9 832.7,296.6 833.1,296.9 833.5,299.5 834.1,298.8 834.7,295.3 835.1,295.6 835.4,295.3 836.0,296.3 836.8,295.9 837.2,293.1 837.4,291.8 837.7,294.0 838.3,296.3 838.7,294.3 839.0,295.6 839.4,295.3 839.7,297.6 840.0,300.8 840.3,298.8 840.5,297.9 840.7,298.2 841.0,300.4 841.1,304.0 841.3,302.0 841.6,301.4 841.9,303.3 842.2,306.5 842.6,302.7 842.8,306.8 843.2,305.2 843.6,306.5 843.9,305.6 844.1,302.4 844.3,303.6 844.4,305.2 844.9,305.2 845.4,305.6 845.5,304.9 845.7,304.6 845.9,304.0 846.0,304.6 846.2,304.6 846.4,301.4 846.6,298.8 846.8,298.8 847.0,295.0 847.1,293.7 847.3,297.2 847.5,299.8 847.7,301.1 847.8,301.7 847.9,296.9 847.9,295.9 848.0,297.9 848.3,296.6 848.5,295.6 848.8,294.3 849.1,295.9 849.4,293.4 849.6,292.1 849.9,290.8 850.1,292.1 850.3,291.5 850.5,291.5 850.8,295.0 851.1,294.0 851.3,295.0 851.7,296.6 852.0,297.6 852.3,295.6 852.6,297.2 852.9,299.2 853.3,300.4 853.7,298.8 854.1,303.3 854.1,304.9 854.3,305.6 854.4,307.8 854.4,312.3 854.5,312.9 854.6,311.7 854.7,311.7 854.8,307.8 855.0,311.3 855.2,311.7 855.5,310.1 855.8,312.3 856.1,313.9 856.3,312.6 856.7,311.7 857.0,312.0 857.5,311.7 858.0,312.6 858.5,311.3 859.1,310.4 859.7,309.1 860.4,311.0 860.6,314.2 861.0,311.0 861.3,314.5 862.1,314.9 862.7,316.5 863.2,317.1 863.7,317.7 864.1,320.0 864.4,320.6 864.9,320.3 865.4,318.7 865.9,320.3 866.5,319.7 867.2,319.0 867.7,317.7 867.9,320.0 868.0,319.7 868.2,322.6 868.3,326.1 868.4,328.0 868.4,332.5 868.4,335.4 868.5,336.7 868.5,337.9 868.6,338.6 868.6,343.4 868.6,340.5 868.7,347.9 868.7,346.0 868.7,347.9 868.8,349.8 868.8,346.6 868.9,346.3 868.9,343.1 869.0,340.8 869.1,340.5 869.2,343.1 869.3,346.9 869.4,346.0 869.4,342.1 869.5,339.5 869.6,343.1 869.7,343.4 869.8,341.1 869.9,338.3 870.0,340.2 870.2,340.5 870.3,340.2 870.5,337.6 870.7,335.1 870.8,332.8 870.9,331.5 871.1,328.3 871.3,333.1 871.5,336.7 871.7,338.6 871.9,340.5 872.1,339.9 872.2,345.6 872.3,344.7 872.5,346.9 872.6,343.1 872.7,343.7 872.9,349.2 872.9,349.5 873.0,349.5 873.2,350.1 873.4,347.6 873.6,348.2 873.7,343.4 873.9,343.1 874.2,345.0 874.5,343.7 874.8,340.8 875.1,337.9 875.4,334.7 875.6,336.0 875.9,336.7 876.1,336.0 876.5,335.7 876.8,337.3 877.5,336.3 877.9,338.6 878.4,337.6 878.9,335.4 879.2,337.0 879.6,337.6 880.1,336.0 880.4,334.7 880.7,337.6 880.7,340.8 880.7,343.4 880.7,351.7 880.8,353.6 880.8,350.8 880.8,348.2 880.8,347.9 880.9,347.2 881.0,344.4 881.0,343.1 881.2,345.3 881.3,348.5 881.4,349.5 881.5,351.7 881.6,354.3 881.7,354.0 881.8,352.7 881.9,347.9 882.1,351.7 882.4,350.1 882.7,350.1 883.0,351.1 883.2,352.4 883.5,350.8 883.8,347.9 883.9,346.6 884.2,346.9 884.5,348.2 884.8,349.2 885.2,348.2 885.7,347.9 886.0,352.0 886.3,355.6 886.5,357.5 886.6,357.5 886.8,355.9 887.0,350.8 887.1,348.2 887.4,349.5 887.7,350.8 888.1,349.2 888.4,349.2 888.8,352.7 889.1,351.1 889.4,350.8 889.7,352.0 890.0,351.4 890.2,351.1 890.5,351.7 890.8,349.2 891.2,349.8 891.6,348.5 892.2,347.9 892.5,341.8 892.6,342.1 893.1,344.7 893.3,345.0 893.8,346.0 894.2,346.6 894.3,348.8 894.4,346.3 894.7,349.2 895.0,347.2 895.3,348.2 895.5,346.9 895.5,346.9 895.7,346.9 895.8,344.0 895.9,346.6 896.0,350.8 896.1,349.2 896.2,347.9 896.4,348.2 896.5,350.4 896.6,353.6 896.7,353.3 896.8,348.2 896.9,348.2 897.1,346.9 897.3,350.8 897.5,347.6 897.6,350.8 897.7,346.3 897.9,343.4 898.1,344.0 898.3,347.2 898.5,350.1 898.7,348.8 898.8,344.0 898.9,345.3 899.1,346.0 899.4,346.9 899.6,347.2 899.8,352.7 899.9,358.5 899.9,359.1 900.0,354.3 900.1,353.0 900.2,352.7 900.3,350.4 900.4,346.9 900.4,343.7 900.5,343.4 900.6,340.8 900.7,339.9 900.8,340.2 901.0,341.1 901.1,338.6 901.3,339.9 901.5,342.7 901.7,341.1 901.9,344.7 902.1,345.6 902.2,348.2 902.3,348.2 902.4,347.6 902.5,351.4 902.6,350.8 902.7,349.5 902.9,349.5 903.0,350.4 903.1,351.1 903.3,345.3 903.5,348.8 903.7,349.5 903.9,348.2 904.2,347.6 904.5,349.8 904.8,348.5 905.2,347.9 905.5,349.5 905.8,350.4 906.2,347.6 906.6,346.9 907.0,347.6 907.4,348.5 907.8,346.6 908.2,348.8 908.8,349.8 909.3,350.8 909.7,348.2 910.3,349.5 910.9,350.4 911.6,349.2 912.1,351.1 912.6,351.4 913.1,350.1 913.7,351.4 913.9,354.6 914.3,354.3 914.9,354.3 915.2,357.8 915.5,355.9 915.9,356.9 915.9,360.1 916.0,359.4 916.0,359.7 916.1,360.1 916.1,360.4 916.2,360.7 916.2,361.7 916.2,362.3 916.3,364.5 916.4,363.6 916.4,364.5 916.5,365.2 916.6,363.9 916.7,361.7 917.1,360.4 917.4,358.8 917.7,361.0 918.1,363.3 918.4,362.9 918.6,361.7 919.3,364.9 919.8,363.3 920.2,365.2 920.5,366.5 920.9,366.5 921.2,367.7 921.5,367.4 921.7,368.4 921.9,369.7 922.0,373.2 922.1,371.9 922.3,371.6 922.6,371.0 922.7,375.1 922.8,377.0 922.8,375.1 922.9,377.7 922.9,379.6 923.0,380.3 923.0,383.5 923.0,385.4 923.0,390.2 923.0,392.1 923.0,390.2 923.0,390.5 923.1,392.8 923.1,391.8 923.1,392.8 923.1,396.0 923.1,394.0 923.1,393.1 923.2,393.7 923.2,395.0 923.2,395.0 923.2,398.2 923.2,399.8 923.3,395.6 923.3,399.2 923.4,398.8 923.4,395.6 923.5,396.0 923.5,392.8 923.6,391.8 923.7,385.4 923.7,390.2 923.8,385.4 923.9,387.0 924.0,387.9 924.1,388.6 924.2,387.9 924.3,387.3 924.5,387.9 924.7,388.9 924.8,390.5 924.9,392.1 925.0,389.5 925.1,393.7 925.2,385.7 925.2,385.4 925.3,385.1 925.4,387.6 925.5,389.2 925.7,388.9 925.7,389.5 925.8,390.8 925.9,391.5 926.0,392.1 926.1,392.8 926.1,395.0 926.2,399.5 926.2,402.4 926.2,408.5 926.2,408.1 926.2,417.1 926.2,411.0 926.2,406.9 926.2,403.0 926.2,405.6 926.3,404.6 926.3,404.3 926.3,408.5 926.4,407.8 926.4,407.8 926.5,406.9 926.5,405.3 926.6,407.2 926.6,410.1 926.7,404.3 926.8,407.5 926.9,408.1 927.0,407.2 927.1,407.5 927.2,407.8 927.3,406.2 927.4,409.4 927.5,410.4 927.5,408.8 927.6,409.1 927.8,411.7 927.8,413.9 927.8,413.6 927.9,417.4 927.9,416.8 927.9,425.1 927.9,434.1 927.9,430.9 928.0,428.7 928.0,419.0 928.0,421.3 928.0,415.2 928.0,412.6 928.0,414.5 928.0,412.9 928.0,413.3 928.0,413.9 928.1,415.2 928.1,411.3 928.1,412.3 928.2,415.5 928.3,412.9 928.3,414.5 928.4,414.2 928.4,413.3 928.4,408.8 928.5,410.1 928.6,406.9 928.6,408.1 928.8,409.4 928.9,412.0 929.0,412.6 929.1,415.2 929.1,413.6 929.2,412.3 929.3,410.4 929.5,410.4 929.6,411.3 929.8,413.3 929.8,408.5 930.0,412.9 930.1,413.6 930.2,412.3 930.3,409.4 930.5,409.7 930.6,406.2 930.7,407.5 930.9,407.8 931.0,409.4 931.1,405.6 931.2,403.3 931.4,402.0 931.5,402.4 931.7,401.7 931.8,402.7 932.0,404.3 932.3,403.0 932.5,404.6 932.8,403.0 933.0,401.7 933.2,399.2 933.3,395.3 933.3,394.4 933.5,394.0 933.8,397.2 934.0,395.0" fill="none" stroke="#d97706" stroke-width="1.2" stroke-linejoin="round" opacity="0.6"/><text x="942" y="472.0" text-anchor="start" font-size="11" fill="#d97706">0.12</text><text x="942" y="396.0" text-anchor="start" font-size="11" fill="#d97706">0.14</text><text x="942" y="320.0" text-anchor="start" font-size="11" fill="#d97706">0.16</text><text x="942" y="244.0" text-anchor="start" font-size="11" fill="#d97706">0.19</text><text x="942" y="168.0" text-anchor="start" font-size="11" fill="#d97706">0.21</text><text x="942" y="92.0" text-anchor="start" font-size="11" fill="#d97706">0.24</text><text x="942" y="80.0" text-anchor="start" font-size="11" font-weight="600" fill="#d97706">price</text>
  <polygon points="104.4,468.0 104.4,365.4 104.4,350.3 180.0,333.0 232.5,343.0 234.6,358.0 397.0,313.2 424.9,324.7 434.9,290.5 467.1,303.7 575.1,264.4 575.1,279.5 575.1,302.2 588.9,336.1 702.4,234.8 705.5,252.1 747.1,278.1 868.4,200.7 922.0,161.3 926.2,116.1 933.3,142.2 933.3,468.0" fill="#16a34a" fill-opacity="0.08"/>
  <polyline points="104.4,365.4 104.4,350.3 180.0,333.0 232.5,343.0 234.6,358.0 397.0,313.2 424.9,324.7 434.9,290.5 467.1,303.7 575.1,264.4 575.1,279.5 575.1,302.2 588.9,336.1 702.4,234.8 705.5,252.1 747.1,278.1 868.4,200.7 922.0,161.3 926.2,116.1 933.3,142.2" fill="none" stroke="#16a34a" stroke-width="2" stroke-linejoin="round"/>
  <line x1="88" y1="102" x2="110" y2="102" stroke="#16a34a" stroke-width="2.5"/><text x="116" y="106" font-size="11.5" fill="#374151">equity</text><line x1="88" y1="118" x2="110" y2="118" stroke="#d97706" stroke-width="2.5" opacity="0.8"/><text x="116" y="122" font-size="11.5" fill="#374151">price</text>
  <text x="78" y="502" text-anchor="start" font-size="12" fill="#6b7280">2026-01-01</text><text x="934" y="502" text-anchor="end" font-size="12" fill="#6b7280">2026-01-31</text>
</svg>
