<?xml version="1.0" encoding="UTF-8"?>
<svg xmlns="http://www.w3.org/2000/svg" width="1100" height="560" viewBox="0 0 1100 560" font-family="ui-sans-serif, system-ui, sans-serif">
  <rect width="1100" height="560" fill="#ffffff"/>
  <text x="80" y="28" font-size="18" font-weight="700" fill="#111827">Zone Recovery — ARBUSDC fee-tier comparison (best setting)</text>
  <text x="80" y="48" font-size="12.5" fill="#6b7280">lev 5 · ratio 2 · gap 20% · maxSteps 4 · maxDD 60% · random  ·  equity per fee tier vip 0..9</text>
  <text x="80" y="68" font-size="12.5" font-weight="600" fill="#1d4ed8">USDC margin · BNB −10%</text>
  <line x1="80" y1="508.0" x2="932" y2="508.0" stroke="#e5e7eb" stroke-width="1"/><text x="70" y="512.0" text-anchor="end" font-size="12" fill="#6b7280">0.00</text><line x1="80" y1="424.0" x2="932" y2="424.0" stroke="#e5e7eb" stroke-width="1"/><text x="70" y="428.0" text-anchor="end" font-size="12" fill="#6b7280">7409</text><line x1="80" y1="340.0" x2="932" y2="340.0" stroke="#e5e7eb" stroke-width="1"/><text x="70" y="344.0" text-anchor="end" font-size="12" fill="#6b7280">14819</text><line x1="80" y1="256.0" x2="932" y2="256.0" stroke="#e5e7eb" stroke-width="1"/><text x="70" y="260.0" text-anchor="end" font-size="12" fill="#6b7280">22228</text><line x1="80" y1="172.0" x2="932" y2="172.0" stroke="#e5e7eb" stroke-width="1"/><text x="70" y="176.0" text-anchor="end" font-size="12" fill="#6b7280">29638</text><line x1="80" y1="88.0" x2="932" y2="88.0" stroke="#e5e7eb" stroke-width="1"/><text x="70" y="92.0" text-anchor="end" font-size="12" fill="#6b7280">37047</text>
  <line x1="80" y1="394.6" x2="932" y2="394.6" stroke="#9ca3af" stroke-width="1.5" stroke-dasharray="6 4"/>
  <polyline points="80.0,394.6 80.0,378.0 157.6,359.0 211.7,370.2 213.8,387.0 380.7,338.0 409.4,350.7 419.6,313.4 452.8,328.1 563.7,285.3 563.8,302.1 563.8,327.2 577.9,364.8 694.6,254.7 697.9,273.8 740.6,302.3 865.3,218.9 920.3,176.6 924.7,128.1 932.0,156.6" fill="none" stroke="#2563eb" stroke-width="1.8" stroke-linejoin="round" opacity="0.9"/>
  <polyline points="80.0,394.6 80.0,378.0 157.6,359.0 211.7,370.2 213.8,387.0 380.7,338.0 409.4,350.7 419.6,313.4 452.8,328.1 563.7,285.3 563.8,302.1 563.8,327.2 577.9,364.8 694.6,254.7 697.9,273.8 740.6,302.3 865.3,218.9 920.3,176.6 924.7,128.1 932.0,156.6" fill="none" stroke="#dc2626" stroke-width="1.8" stroke-linejoin="round" opacity="0.9"/>
  <polyline points="80.0,394.6 80.0,378.0 157.6,359.0 211.7,370.1 213.8,386.9 380.7,337.7 409.4,350.5 419.6,313.0 452.8,327.6 563.7,284.7 563.8,301.4 563.8,326.5 577.9,364.1 694.6,253.6 697.9,272.6 740.6,301.2 865.3,217.3 920.3,174.6 924.7,125.7 932.0,154.4" fill="none" stroke="#16a34a" stroke-width="1.8" stroke-linejoin="round" opacity="0.9"/>
  <polyline points="80.0,394.6 80.0,378.0 157.6,358.9 211.7,370.0 213.8,386.8 380.7,337.5 409.4,350.2 419.6,312.7 452.8,327.3 563.7,284.2 563.8,300.9 563.8,326.0 577.9,363.6 694.6,252.6 697.9,271.7 740.6,300.3 865.3,216.0 920.3,173.1 924.7,123.9 932.0,152.6" fill="none" stroke="#d97706" stroke-width="1.8" stroke-linejoin="round" opacity="0.9"/>
  <polyline points="80.0,394.6 80.0,378.0 157.6,358.8 211.7,369.9 213.8,386.6 380.7,337.2 409.4,349.9 419.6,312.2 452.8,326.8 563.7,283.5 563.8,300.2 563.8,325.3 577.9,362.8 694.6,251.3 697.9,270.4 740.6,299.1 865.3,214.1 920.3,170.8 924.7,121.2 932.0,150.0" fill="none" stroke="#7c3aed" stroke-width="1.8" stroke-linejoin="round" opacity="0.9"/>
  <polyline points="80.0,394.6 80.0,377.9 157.6,358.8 211.7,369.9 213.8,386.5 380.7,337.1 409.4,349.8 419.6,312.1 452.8,326.7 563.7,283.4 563.8,300.1 563.8,325.1 577.9,362.7 694.6,251.1 697.9,270.2 740.6,298.8 865.3,213.7 920.3,170.4 924.7,120.7 932.0,149.5" fill="none" stroke="#0891b2" stroke-width="1.8" stroke-linejoin="round" opacity="0.9"/>
  <polyline points="80.0,394.6 80.0,377.9 157.6,358.8 211.7,369.9 213.8,386.5 380.7,337.1 409.4,349.8 419.6,312.0 452.8,326.6 563.7,283.3 563.8,300.0 563.8,325.0 577.9,362.6 694.6,250.9 697.9,270.0 740.6,298.7 865.3,213.5 920.3,170.2 924.7,120.4 932.0,149.2" fill="none" stroke="#db2777" stroke-width="1.8" stroke-linejoin="round" opacity="0.9"/>
  <polyline points="80.0,394.6 80.0,377.9 157.6,358.8 211.7,369.9 213.8,386.5 380.7,337.0 409.4,349.7 419.6,312.0 452.8,326.5 563.7,283.2 563.8,299.9 563.8,324.9 577.9,362.5 694.6,250.7 697.9,269.8 740.6,298.5 865.3,213.2 920.3,169.7 924.7,119.9 932.0,148.7" fill="none" stroke="#65a30d" stroke-width="1.8" stroke-linejoin="round" opacity="0.9"/>
  <polyline points="80.0,394.6 80.0,377.9 157.6,358.8 211.7,369.8 213.8,386.5 380.7,337.0 409.4,349.7 419.6,311.9 452.8,326.4 563.7,283.1 563.8,299.8 563.8,324.8 577.9,362.4 694.6,250.5 697.9,269.6 740.6,298.3 865.3,212.9 920.3,169.5 924.7,119.6 932.0,148.4" fill="none" stroke="#475569" stroke-width="1.8" stroke-linejoin="round" opacity="0.9"/>
  <polyline points="80.0,394.6 80.0,377.9 157.6,358.8 211.7,369.8 213.8,386.4 380.7,336.9 409.4,349.6 419.6,311.8 452.8,326.4 563.7,283.0 563.8,299.7 563.8,324.7 577.9,362.2 694.6,250.3 697.9,269.4 740.6,298.1 865.3,212.6 920.3,169.1 924.7,119.1 932.0,148.0" fill="none" stroke="#ea580c" stroke-width="1.8" stroke-linejoin="round" opacity="0.9"/>
  <line x1="950" y1="94" x2="972" y2="94" stroke="#ea580c" stroke-width="3"/><text x="980" y="98" font-size="12.5" fill="#374151">vip 9  31759</text>
  <line x1="950" y1="116" x2="972" y2="116" stroke="#475569" stroke-width="3"/><text x="980" y="120" font-size="12.5" fill="#374151">vip 8  31719</text>
  <line x1="950" y1="138" x2="972" y2="138" stroke="#65a30d" stroke-width="3"/><text x="980" y="142" font-size="12.5" fill="#374151">vip 7  31691</text>
  <line x1="950" y1="160" x2="972" y2="160" stroke="#db2777" stroke-width="3"/><text x="980" y="164" font-size="12.5" fill="#374151">vip 6  31648</text>
  <line x1="950" y1="182" x2="972" y2="182" stroke="#0891b2" stroke-width="3"/><text x="980" y="186" font-size="12.5" fill="#374151">vip 5  31620</text>
  <line x1="950" y1="204" x2="972" y2="204" stroke="#7c3aed" stroke-width="3"/><text x="980" y="208" font-size="12.5" fill="#374151">vip 4  31580</text>
  <line x1="950" y1="226" x2="972" y2="226" stroke="#d97706" stroke-width="3"/><text x="980" y="230" font-size="12.5" fill="#374151">vip 3  31352</text>
  <line x1="950" y1="248" x2="972" y2="248" stroke="#16a34a" stroke-width="3"/><text x="980" y="252" font-size="12.5" fill="#374151">vip 2  31192</text>
  <line x1="950" y1="270" x2="972" y2="270" stroke="#2563eb" stroke-width="3"/><text x="980" y="274" font-size="12.5" fill="#374151">vip 0  30994</text>
  <line x1="950" y1="292" x2="972" y2="292" stroke="#dc2626" stroke-width="3"/><text x="980" y="296" font-size="12.5" fill="#374151">vip 1  30994</text>
  <text x="80" y="542" text-anchor="start" font-size="12" fill="#6b7280">2026-01-01</text><text x="932" y="542" text-anchor="end" font-size="12" fill="#6b7280">2026-01-31</text>
</svg>
