<?xml version="1.0" encoding="UTF-8"?>
<svg xmlns="http://www.w3.org/2000/svg" width="1000" height="520" viewBox="0 0 1000 520" font-family="ui-sans-serif, system-ui, sans-serif">
  <rect width="1000" height="520" fill="#ffffff"/>
  <text x="78" y="28" font-size="18" font-weight="700" fill="#111827">Zone Recovery — BTCUSDT best setting (equity / PnL)</text>
  <text x="78" y="48" font-size="12.5" fill="#6b7280">lev 25 · ratio 4 · gap 35% · maxSteps 4 · maxDD 20% · random · vip 9  ·  11 series, 72.7% win · vol $1699086981 ($54809262/day) · fees $259960</text>
  <text x="78" y="68" font-size="12.5" font-weight="600" fill="#1d4ed8">USDT · BNB −10% · taker 0.0153%</text>
  <text x="934" y="28" text-anchor="end" font-size="18" font-weight="700" fill="#16a34a">+5267057 USDT  (+5.27%)</text>
  <line x1="78" y1="468.0" x2="934" y2="468.0" stroke="#e5e7eb" stroke-width="1"/><text x="68" y="472.0" text-anchor="end" font-size="12" fill="#6b7280">0.00</text><line x1="78" y1="392.0" x2="934" y2="392.0" stroke="#e5e7eb" stroke-width="1"/><text x="68" y="396.0" text-anchor="end" font-size="12" fill="#6b7280">22827729</text><line x1="78" y1="316.0" x2="934" y2="316.0" stroke="#e5e7eb" stroke-width="1"/><text x="68" y="320.0" text-anchor="end" font-size="12" fill="#6b7280">45655458</text><line x1="78" y1="240.0" x2="934" y2="240.0" stroke="#e5e7eb" stroke-width="1"/><text x="68" y="244.0" text-anchor="end" font-size="12" fill="#6b7280">68483187</text><line x1="78" y1="164.0" x2="934" y2="164.0" stroke="#e5e7eb" stroke-width="1"/><text x="68" y="168.0" text-anchor="end" font-size="12" fill="#6b7280">91310916</text><line x1="78" y1="88.0" x2="934" y2="88.0" stroke="#e5e7eb" stroke-width="1"/><text x="68" y="92.0" text-anchor="end" font-size="12" fill="#6b7280">114138645</text>
  <line x1="78" y1="135.1" x2="934" y2="135.1" stroke="#9ca3af" stroke-width="1.5" stroke-dasharray="6 4"/><text x="934" y="129.1" text-anchor="end" font-size="11" fill="#6b7280">start 100000000</text>
  <polyline points="78.0,276.3 78.6,276.9 79.2,274.6 79.8,273.8 80.4,270.2 81.3,272.0 82.0,270.2 82.6,274.4 83.2,268.5 83.6,272.0 84.0,267.2 84.6,269.3 85.3,270.9 85.8,272.4 86.3,272.1 87.1,270.0 87.6,263.5 87.7,263.0 87.8,261.3 88.0,256.4 88.1,256.6 88.2,250.4 88.2,242.8 88.2,247.6 88.3,248.3 88.5,247.7 88.8,247.8 89.1,246.3 89.2,245.4 89.7,244.7 90.2,245.8 90.9,245.5 91.5,243.1 91.8,240.2 92.0,241.6 92.3,240.4 92.7,243.6 93.2,243.1 93.6,242.7 93.9,242.2 94.1,239.3 94.2,236.4 94.2,235.3 94.4,234.5 94.5,234.8 94.7,234.7 95.0,233.9 95.3,233.1 95.8,232.1 95.9,232.3 96.3,232.9 96.6,228.2 96.8,227.6 97.0,226.4 97.1,222.3 97.2,224.5 97.5,228.9 97.8,231.4 98.1,231.0 98.5,236.9 98.7,238.9 99.1,238.5 99.7,233.6 100.4,231.4 100.9,231.3 101.3,232.3 102.3,230.2 103.3,227.2 103.6,225.8 104.4,226.0 104.8,219.7 104.9,219.5 105.1,219.2 105.5,217.8 105.6,214.5 105.7,211.3 105.8,206.5 105.9,208.4 106.1,210.2 106.3,212.6 106.6,216.5 107.0,215.4 107.5,216.2 107.9,214.2 108.2,213.8 108.6,214.2 109.1,213.2 109.6,210.2 110.2,213.9 110.8,215.9 111.5,215.0 112.0,217.1 112.7,216.7 113.3,215.3 114.2,216.9 115.0,217.5 115.8,214.7 116.7,215.7 117.4,213.9 118.3,215.8 119.2,213.0 119.9,211.3 120.1,207.8 120.4,206.1 120.8,207.7 121.1,208.3 121.3,205.8 121.4,201.6 121.6,201.9 121.7,204.6 122.0,205.6 122.2,202.4 122.4,205.4 122.6,209.5 122.7,212.1 122.9,214.4 123.1,208.7 123.3,209.0 123.5,205.7 123.7,202.7 123.9,200.4 124.1,199.2 124.2,195.6 124.3,196.4 124.5,197.8 124.7,199.7 125.1,200.5 125.4,200.8 125.8,204.7 126.1,200.7 126.5,195.1 126.8,194.2 127.1,196.9 127.4,191.2 127.6,189.2 127.7,185.4 127.9,187.3 128.2,185.0 128.5,189.5 128.9,187.2 129.2,191.8 129.7,189.2 130.4,193.4 131.1,193.4 131.7,194.3 132.4,191.3 132.9,193.2 133.4,193.0 134.0,194.5 134.6,194.2 135.1,196.3 135.6,197.8 136.2,197.3 136.7,193.4 137.2,194.0 137.8,193.9 138.6,196.9 139.5,196.6 140.2,198.8 141.0,198.3 141.7,198.7 142.2,200.7 142.7,203.7 143.0,202.1 143.4,197.9 144.0,196.8 144.5,193.5 145.2,191.9 146.0,191.7 146.6,193.2 147.4,192.1 148.0,193.2 148.6,191.3 148.8,192.1 149.0,195.2 149.2,191.9 149.4,193.0 149.7,196.8 149.8,192.2 150.1,186.6 150.3,186.1 150.6,187.3 150.8,181.5 150.9,178.3 151.1,176.8 151.2,174.9 151.4,171.6 151.5,169.6 151.6,168.3 151.7,161.1 151.7,160.9 151.8,158.4 151.8,156.8 151.9,155.0 152.0,157.4 152.1,151.9 152.1,149.7 152.2,149.2 152.3,145.2 152.5,146.2 152.6,156.3 152.7,158.4 152.8,167.1 152.8,167.2 152.9,171.6 152.9,169.6 153.0,160.2 153.0,156.2 153.1,162.8 153.2,163.1 153.4,165.6 153.5,159.1 153.7,163.5 153.8,169.9 153.8,173.0 154.0,171.5 154.1,177.2 154.2,170.3 154.4,165.1 154.6,164.3 154.8,162.2 155.2,165.3 155.5,162.9 155.9,160.5 156.3,165.7 156.6,167.2 157.1,161.4 157.9,166.5 158.6,166.1 159.5,163.5 160.6,166.8 161.2,167.6 161.8,169.5 162.6,171.3 163.1,173.9 163.6,172.0 164.2,171.5 165.0,169.6 165.7,166.8 166.4,163.9 167.0,160.6 167.6,163.7 168.3,164.1 169.4,166.4 170.3,164.2 171.0,166.8 172.1,167.3 173.3,168.1 174.0,169.8 175.1,169.9 176.0,165.7 176.5,164.9 177.4,166.3 178.1,170.2 178.5,173.1 178.9,173.2 179.5,172.1 179.8,175.3 180.3,175.2 181.1,173.9 182.2,174.8 183.1,174.0 184.0,171.6 185.3,169.5 186.5,168.2 187.9,167.0 189.2,166.3 190.3,166.1 191.3,162.3 191.4,152.1 191.4,147.5 191.4,141.4 191.4,140.7 191.5,144.0 191.6,149.4 191.7,146.7 191.9,142.8 192.1,143.6 192.3,150.3 192.5,143.4 192.8,144.0 193.2,143.5 193.6,143.6 193.9,139.6 193.9,131.2 193.9,131.2 194.0,125.6 194.0,127.0 194.0,121.2 194.0,126.5 194.0,123.4 194.1,122.9 194.2,127.4 194.3,129.8 194.5,128.0 194.7,129.5 194.9,127.5 195.1,129.5 195.5,129.0 195.9,131.2 196.3,129.6 196.7,129.8 197.1,132.9 197.3,134.6 197.7,136.4 198.2,134.1 198.8,136.3 199.2,141.2 199.4,147.4 199.4,150.0 199.5,149.7 199.6,156.1 199.7,157.7 199.8,154.9 200.0,156.5 200.1,159.5 200.3,159.1 200.6,159.2 201.0,157.8 201.3,156.7 201.7,152.9 202.2,150.9 202.5,155.9 203.0,157.5 203.7,154.0 204.4,154.3 205.2,154.8 205.5,158.8 206.2,157.9 206.8,159.7 207.4,158.0 207.8,166.9 207.9,159.1 208.0,152.8 208.3,152.5 208.9,155.5 209.4,158.0 209.9,158.0 210.7,161.2 211.3,162.0 211.7,161.4 212.4,158.9 213.4,163.1 214.2,157.4 214.9,154.5 215.6,150.8 216.3,151.0 216.4,141.4 216.5,146.1 216.6,149.0 216.8,149.5 217.1,152.9 217.3,154.4 217.6,147.8 217.9,143.6 218.1,146.5 218.5,145.2 219.0,145.3 219.2,145.7 219.5,143.1 220.0,144.8 220.7,145.8 221.4,148.2 221.9,150.6 222.3,150.3 223.0,147.5 223.5,145.3 223.9,144.2 224.4,144.2 224.9,152.1 225.3,151.0 225.9,147.0 226.5,144.1 227.1,146.2 227.8,145.5 228.6,142.4 229.2,144.9 229.4,140.8 229.6,139.3 230.1,137.6 230.3,135.9 230.7,139.6 231.2,134.2 231.5,132.2 231.7,137.2 231.8,133.9 231.9,136.6 232.0,136.1 232.1,129.8 232.2,130.5 232.3,128.8 232.4,132.2 232.6,133.7 232.8,131.5 233.0,135.0 233.2,137.7 233.5,135.4 233.8,126.8 233.9,129.8 234.2,130.5 234.6,130.4 234.9,131.3 235.3,128.1 235.6,125.5 235.9,126.1 236.1,121.8 236.2,123.5 236.5,129.1 236.8,128.9 237.2,126.8 237.7,123.1 237.8,117.7 237.9,115.2 238.0,119.9 238.3,125.1 238.6,122.3 238.9,125.6 239.3,124.9 239.7,128.3 240.5,129.3 240.7,132.9 241.0,130.8 241.8,127.5 242.4,130.8 243.0,134.7 243.7,134.6 244.3,134.7 244.9,131.8 245.3,137.3 245.8,135.9 246.4,139.7 246.7,138.2 247.3,139.0 247.8,141.5 248.5,142.0 249.0,136.9 249.5,138.9 250.1,137.1 250.9,139.8 251.2,145.4 251.5,145.5 252.0,146.6 252.4,147.4 252.9,148.9 253.2,149.9 253.4,148.2 253.8,146.5 254.2,144.4 254.7,142.1 255.3,142.4 255.9,139.6 256.7,139.8 257.3,137.9 257.9,137.9 258.4,133.1 258.6,131.5 258.9,134.2 259.3,135.4 259.4,141.1 259.5,146.2 259.5,151.4 259.6,151.1 259.7,149.7 259.8,145.8 259.9,151.2 260.0,155.3 260.0,159.7 260.1,157.1 260.3,155.9 260.4,157.7 260.6,161.5 260.7,158.5 260.9,160.5 261.1,166.3 261.1,168.5 261.1,170.6 261.2,170.8 261.3,168.3 261.5,169.7 261.6,173.0 261.7,177.2 261.7,175.3 261.8,174.2 261.9,179.0 262.0,173.1 262.2,174.4 262.4,174.9 262.5,182.8 262.6,183.6 262.7,178.6 262.9,174.1 263.1,171.2 263.3,174.1 263.5,177.9 263.7,178.6 264.0,179.6 264.3,181.2 264.5,183.3 264.8,184.7 264.9,187.7 265.1,187.6 265.4,185.6 265.7,178.8 265.9,179.5 266.3,177.2 266.6,172.6 266.8,170.8 267.3,168.8 268.0,170.5 268.6,170.0 269.3,170.6 270.0,171.7 270.6,176.0 271.1,177.1 271.5,177.9 271.9,179.8 272.2,171.9 272.5,172.5 272.7,174.3 273.1,171.8 273.7,171.6 274.2,168.8 274.7,170.7 275.2,176.5 275.5,178.2 275.9,179.1 276.2,178.2 276.7,175.4 277.3,173.5 277.6,178.4 278.1,181.0 278.6,179.7 279.2,175.2 279.6,175.3 280.2,178.8 280.6,175.7 281.1,170.0 281.3,164.4 281.4,161.4 281.7,162.1 282.1,163.1 282.6,164.5 283.1,163.0 283.5,158.7 283.8,159.0 284.2,155.4 284.7,158.6 285.3,159.9 285.7,162.0 286.3,161.6 286.8,164.5 287.0,166.7 287.1,172.7 287.2,172.0 287.3,167.8 287.4,156.3 287.5,155.1 287.6,159.3 287.7,157.4 287.9,163.7 288.1,166.9 288.3,166.0 288.5,167.4 288.8,164.0 289.0,165.1 289.4,166.1 289.7,168.0 289.9,162.6 290.2,161.9 290.6,160.8 290.9,156.3 291.1,151.4 291.2,146.6 291.3,145.5 291.5,143.8 291.7,147.5 291.9,142.8 292.1,146.6 292.3,147.6 292.7,151.6 293.0,148.7 293.3,151.4 293.6,150.8 294.1,151.5 294.5,152.2 295.1,152.3 295.5,156.5 296.4,154.6 297.6,153.9 298.5,152.2 299.4,156.1 300.1,159.9 300.4,160.9 300.8,165.8 301.3,168.0 301.7,170.1 302.0,176.0 302.3,176.4 302.5,172.0 303.0,169.8 303.7,171.1 304.3,169.9 305.0,172.0 305.6,170.2 306.3,169.0 307.1,170.5 307.8,173.6 308.4,175.7 308.6,178.6 308.8,176.0 309.1,182.0 309.4,175.5 309.8,174.8 310.3,173.1 311.0,171.4 311.4,168.9 311.9,164.8 312.2,160.7 312.8,159.9 313.1,156.5 313.4,153.9 313.5,149.6 313.8,150.1 314.0,153.6 314.3,150.8 314.5,157.4 314.7,158.0 314.8,161.4 314.9,161.1 315.0,165.1 315.1,169.3 315.1,169.7 315.2,167.3 315.3,168.5 315.4,173.1 315.5,175.1 315.6,177.6 315.8,174.6 315.9,178.4 315.9,186.4 316.0,181.9 316.1,179.7 316.2,176.1 316.4,179.9 316.7,181.8 316.9,183.6 317.1,183.7 317.4,180.3 317.7,178.1 317.9,181.3 318.1,188.8 318.2,188.3 318.3,191.1 318.4,197.6 318.5,199.7 318.5,197.6 318.6,199.1 318.7,194.2 318.9,192.5 319.1,192.8 319.3,190.6 319.5,187.7 319.7,186.1 319.9,185.5 320.2,188.2 320.5,189.0 321.0,186.7 321.5,185.9 322.0,182.9 322.8,183.4 323.3,179.2 324.1,178.1 325.0,175.3 325.8,177.2 326.8,176.0 327.7,174.1 328.5,176.7 329.0,179.7 329.5,182.0 329.9,183.6 330.5,178.7 331.0,181.5 331.5,181.1 332.3,181.7 333.0,179.4 333.7,176.7 334.4,177.3 334.9,180.6 335.5,183.4 335.9,182.0 336.8,177.8 337.3,176.1 337.9,179.4 338.8,180.1 339.6,177.0 340.4,175.3 341.3,177.2 341.8,173.1 342.1,172.0 342.2,165.9 342.3,167.5 342.4,174.7 342.6,176.4 342.7,171.4 342.9,175.5 343.0,180.9 343.2,180.1 343.6,179.7 343.7,186.3 343.8,190.3 343.8,195.3 343.9,197.4 343.9,196.6 343.9,193.0 344.0,190.5 344.1,192.7 344.2,197.9 344.2,200.5 344.3,206.6 344.3,200.7 344.4,210.6 344.4,213.4 344.4,214.0 344.5,209.3 344.5,208.6 344.5,209.4 344.6,206.8 344.7,207.7 344.8,205.2 344.8,211.3 345.0,212.1 345.0,211.6 345.2,209.3 345.3,214.8 345.4,209.6 345.6,206.8 345.7,210.3 345.9,218.0 346.0,217.9 346.1,220.5 346.2,224.0 346.2,226.1 346.3,223.5 346.4,223.1 346.6,222.9 346.8,223.7 347.0,226.9 347.1,229.0 347.3,229.4 347.4,228.7 347.7,227.6 348.0,231.2 348.2,231.9 348.4,234.0 348.6,236.7 348.7,238.0 348.7,240.2 348.8,245.8 348.8,246.5 348.9,240.6 349.0,246.6 349.0,248.2 349.2,242.9 349.3,236.9 349.4,238.5 349.5,240.6 349.6,239.6 349.9,240.4 350.2,239.0 350.5,241.6 350.5,246.5 350.5,255.8 350.6,258.2 350.6,258.6 350.6,264.4 350.6,281.3 350.6,276.2 350.6,271.7 350.7,270.0 350.7,270.7 350.7,267.7 350.7,266.9 350.8,263.9 350.8,264.6 350.8,271.4 350.9,275.4 350.9,277.0 350.9,287.5 350.9,309.7 350.9,330.7 350.9,304.7 351.0,317.3 351.0,311.6 351.0,301.6 351.0,297.6 351.0,316.6 351.0,319.2 351.0,341.6 351.0,332.2 351.0,367.2 351.0,382.1 351.0,355.1 351.0,342.2 351.0,344.4 351.0,345.5 351.0,387.4 351.1,394.1 351.1,400.2 351.1,419.4 351.1,400.2 351.1,396.3 351.1,402.1 351.1,382.5 351.1,372.1 351.1,352.8 351.1,359.1 351.1,362.1 351.1,346.7 351.1,357.7 351.2,351.8 351.2,350.4 351.2,359.5 351.2,370.8 351.2,380.2 351.2,373.8 351.2,353.0 351.2,350.3 351.2,344.3 351.2,338.8 351.2,339.7 351.3,337.1 351.3,345.3 351.3,332.6 351.3,333.2 351.3,323.3 351.3,321.2 351.3,324.3 351.3,312.2 351.3,311.4 351.4,304.3 351.4,314.3 351.4,316.1 351.4,310.0 351.4,314.6 351.5,314.9 351.5,311.2 351.5,312.3 351.5,309.0 351.5,309.7 351.5,310.0 351.5,318.8 351.5,313.4 351.6,304.6 351.6,286.5 351.6,294.4 351.6,288.1 351.6,295.9 351.7,294.6 351.7,305.6 351.7,289.7 351.7,294.0 351.7,287.9 351.8,285.4 351.8,281.5 351.8,288.6 351.8,286.3 351.9,289.0 351.9,288.6 351.9,290.1 351.9,310.3 352.0,301.0 352.0,296.7 352.0,293.8 352.1,284.1 352.1,283.7 352.2,287.5 352.2,288.3 352.2,288.4 352.3,295.8 352.3,295.2 352.4,299.8 352.4,298.0 352.5,293.1 352.5,292.6 352.6,293.3 352.6,289.3 352.7,287.9 352.7,281.7 352.8,278.2 352.8,279.3 352.9,283.0 352.9,281.9 353.0,281.1 353.1,289.1 353.2,292.5 353.3,290.0 353.4,289.9 353.5,282.0 353.6,280.0 353.6,277.4 353.7,277.6 353.8,268.5 353.8,269.5 353.9,275.0 354.0,284.2 354.0,287.8 354.1,289.7 354.2,295.6 354.2,290.4 354.3,293.8 354.4,297.2 354.5,304.2 354.5,304.8 354.6,299.9 354.8,301.8 355.0,291.1 355.3,294.6 355.5,302.7 355.7,307.9 355.8,313.2 356.0,306.1 356.2,312.4 356.3,316.0 356.5,309.6 356.6,307.3 356.8,303.6 357.0,301.9 357.1,300.5 357.3,287.2 357.5,287.5 357.7,293.8 357.8,299.1 358.0,301.8 358.1,304.3 358.3,304.8 358.5,302.0 358.8,301.0 359.1,297.1 359.4,304.7 359.7,300.1 359.9,291.7 360.2,297.1 360.5,301.3 360.9,297.6 361.2,300.7 361.5,295.3 361.8,302.0 362.2,307.6 362.3,312.1 362.4,313.4 362.6,315.7 362.6,312.4 362.8,318.7 362.9,321.2 363.1,322.8 363.2,324.5 363.3,325.1 363.5,325.2 363.7,320.8 363.8,316.0 364.0,319.1 364.2,310.4 364.5,312.0 364.7,311.6 365.0,308.7 365.3,307.4 365.6,308.0 365.9,305.1 366.2,301.5 366.6,302.9 367.1,304.5 367.4,299.9 367.9,300.1 368.4,298.9 368.9,300.8 369.4,297.8 369.8,303.0 370.1,299.5 370.6,301.1 371.0,301.8 371.5,303.3 371.8,298.7 372.4,302.6 372.7,303.6 373.2,307.0 373.5,309.4 373.9,303.1 374.4,301.5 375.0,305.1 375.8,305.1 376.2,309.6 376.4,313.4 376.5,314.7 376.6,314.3 376.9,314.4 377.1,318.4 377.2,317.0 377.3,319.2 377.5,319.9 377.7,322.9 377.8,325.3 378.0,325.4 378.1,326.5 378.2,330.0 378.3,326.1 378.4,330.4 378.5,330.9 378.6,330.8 378.7,325.1 378.8,320.7 379.2,319.3 379.7,317.6 380.0,318.7 380.3,314.8 380.7,317.5 381.0,317.4 381.3,319.5 381.8,322.5 382.1,324.5 382.3,330.3 382.5,327.4 382.7,332.2 382.9,334.0 383.1,329.8 383.3,333.1 383.5,330.2 383.7,332.3 383.8,329.4 384.1,328.5 384.3,330.0 384.5,326.5 384.7,322.7 384.9,328.5 385.1,333.0 385.3,329.4 385.4,314.6 385.4,318.2 385.5,321.0 385.6,316.6 385.8,317.4 386.0,316.6 386.3,321.2 386.7,316.4 387.0,313.5 387.2,306.1 387.3,310.2 387.6,313.6 388.1,309.2 388.5,306.8 389.0,306.7 389.3,306.2 389.8,308.0 390.3,309.0 390.8,309.2 391.3,308.7 391.8,308.5 392.1,312.8 392.6,311.3 393.1,309.7 393.3,303.7 393.8,308.9 394.5,310.0 395.0,307.4 395.3,303.6 395.7,301.7 396.1,303.4 396.5,307.0 397.0,305.3 397.3,309.2 397.6,310.5 397.9,312.9 398.2,311.7 398.6,313.7 398.8,304.5 398.8,301.9 398.8,304.2 398.8,295.0 398.9,292.0 398.9,293.8 398.9,294.0 399.0,293.7 399.0,301.5 399.0,297.5 399.1,293.0 399.1,287.2 399.1,288.2 399.2,291.8 399.3,287.7 399.3,286.2 399.4,282.5 399.5,286.5 399.6,288.7 399.6,294.1 399.7,296.0 399.8,294.8 399.9,292.3 400.1,287.8 400.2,280.4 400.3,275.7 400.3,275.7 400.4,278.1 400.4,278.7 400.6,279.9 400.7,283.1 400.9,282.8 401.0,278.5 401.0,268.7 401.0,271.9 401.1,277.7 401.1,277.4 401.2,276.4 401.4,275.6 401.6,271.4 401.7,271.7 401.9,274.5 402.2,273.0 402.3,279.5 402.6,276.8 402.9,277.4 403.3,280.3 403.8,276.2 404.1,273.9 404.6,273.3 404.9,268.7 405.2,266.1 405.3,262.7 405.5,262.8 405.7,263.0 405.9,264.1 406.1,264.5 406.2,260.0 406.5,264.5 406.6,267.6 407.0,265.6 407.1,254.6 407.2,259.6 407.3,260.1 407.5,258.5 407.8,260.5 408.1,257.5 408.4,264.0 408.7,260.8 409.1,263.0 409.4,265.0 409.6,259.9 409.8,255.2 409.9,261.1 410.1,264.1 410.4,258.9 410.5,260.7 410.7,260.7 410.9,259.6 411.1,254.3 411.4,254.7 411.7,258.9 412.0,260.6 412.3,259.2 412.8,259.4 413.1,259.3 413.5,264.6 413.8,267.0 414.2,265.1 414.5,268.1 414.7,266.1 414.9,270.3 415.2,269.3 415.6,269.2 416.1,268.4 416.6,265.2 416.9,261.3 417.2,263.7 417.5,260.5 417.8,259.3 418.2,257.0 418.5,260.5 418.8,259.7 419.3,259.1 419.8,261.2 420.1,264.6 420.6,262.2 421.1,264.0 421.6,265.8 422.0,269.1 422.1,273.0 422.2,269.9 422.5,273.8 422.6,277.9 422.7,275.3 423.0,275.6 423.2,277.7 423.4,272.3 423.7,273.5 423.9,270.5 424.2,270.8 424.4,270.1 424.6,269.5 424.8,273.5 424.9,261.8 424.9,260.5 425.0,258.7 425.0,265.2 425.1,267.5 425.1,266.4 425.2,265.2 425.3,270.6 425.4,263.8 425.5,258.1 425.6,259.9 425.7,262.7 425.8,265.1 425.9,267.5 426.0,273.6 426.1,273.7 426.2,268.5 426.4,272.9 426.5,277.3 426.7,275.9 426.8,270.4 427.0,273.8 427.3,272.8 427.6,271.4 427.8,272.7 427.9,264.5 428.1,265.4 428.2,267.7 428.5,271.2 428.8,270.4 429.0,264.6 429.3,270.4 429.7,268.8 430.0,272.2 430.1,264.6 430.3,266.2 430.5,259.8 430.8,263.7 431.1,262.0 431.5,260.7 431.7,255.7 432.0,256.6 432.3,252.8 432.7,255.0 433.3,256.7 433.8,255.4 434.9,253.2 435.6,257.3 436.5,258.5 436.8,261.9 437.4,259.3 437.7,260.5 438.2,264.1 438.4,268.5 439.0,270.2 439.4,275.3 439.8,276.6 440.1,277.7 440.4,281.6 440.6,286.0 440.8,284.9 441.2,283.8 441.6,282.9 441.9,284.7 442.2,287.0 442.5,287.6 442.6,291.0 442.7,288.8 442.9,285.2 443.0,281.8 443.2,287.0 443.4,293.7 443.4,295.8 443.5,297.1 443.7,295.7 444.0,294.8 444.3,296.9 444.5,300.7 444.7,302.2 444.8,307.4 444.8,307.6 444.9,303.6 445.1,305.6 445.3,304.4 445.5,302.1 445.7,306.5 445.8,306.9 446.0,308.7 446.2,309.0 446.4,304.9 446.7,305.8 447.0,302.4 447.4,304.2 447.8,307.3 448.1,309.3 448.3,313.4 448.4,314.2 448.6,314.6 448.8,319.2 448.9,319.9 449.0,323.1 449.1,327.1 449.2,328.7 449.3,324.7 449.4,324.1 449.7,320.0 449.8,312.8 450.0,313.4 450.1,310.5 450.3,308.9 450.6,311.1 450.9,314.8 451.0,313.6 451.3,315.4 451.5,316.9 451.7,319.2 452.0,318.3 452.2,320.6 452.4,325.1 452.5,321.4 452.6,321.4 452.6,330.6 452.7,325.0 452.7,326.6 452.8,321.4 452.8,313.9 452.9,314.7 452.9,318.8 453.1,318.4 453.2,315.6 453.3,314.5 453.4,309.3 453.4,304.8 453.4,300.7 453.5,305.2 453.7,308.2 453.8,310.1 453.9,305.7 454.1,308.1 454.3,309.4 454.4,313.4 454.7,313.2 454.8,310.3 455.0,306.7 455.1,302.0 455.1,300.9 455.2,294.6 455.3,294.7 455.4,296.0 455.6,299.7 455.7,294.7 455.8,289.2 455.8,290.9 455.9,296.3 456.0,295.9 456.1,297.7 456.2,293.6 456.4,292.8 456.5,299.9 456.6,306.6 456.7,295.6 456.8,293.8 456.9,294.5 457.1,291.8 457.3,295.8 457.6,294.5 457.8,289.3 458.0,286.2 458.3,287.7 458.5,291.6 458.7,292.1 459.0,289.4 459.3,285.2 459.5,289.6 459.6,295.9 459.6,296.6 459.7,301.6 459.8,297.2 459.9,295.5 460.1,296.1 460.4,292.4 461.0,291.6 461.6,290.8 462.3,286.1 462.5,285.3 463.0,289.1 463.6,284.4 464.1,284.9 464.6,290.6 465.0,293.6 465.2,294.7 465.5,290.0 465.8,294.7 466.0,294.8 466.3,297.7 466.7,294.9 467.1,293.2 467.4,288.4 467.5,285.8 467.9,289.7 468.2,297.0 468.5,300.8 468.7,300.8 469.0,304.1 469.3,304.6 469.6,300.9 469.9,300.8 470.3,298.7 470.6,296.9 471.0,298.2 471.4,297.7 471.9,303.4 472.3,297.0 472.6,298.9 473.0,296.6 473.4,298.0 473.9,294.5 474.2,290.3 474.4,288.1 474.5,286.3 474.7,289.5 475.0,290.8 475.3,293.6 475.6,298.3 476.0,297.7 476.4,295.6 476.9,298.0 477.0,298.5 477.5,298.7 477.6,306.8 477.7,302.9 478.2,303.6 478.6,304.3 478.9,307.5 479.0,308.7 479.3,307.6 479.5,307.7 479.9,310.1 480.1,314.6 480.2,307.6 480.3,309.7 480.4,312.3 480.5,317.8 480.5,316.5 480.6,312.5 480.7,311.2 480.8,306.2 480.9,301.8 481.0,301.6 481.2,302.1 481.4,308.8 481.5,313.8 481.6,315.9 481.7,316.3 481.8,315.9 481.9,318.6 482.1,318.0 482.2,319.5 482.3,317.8 482.4,308.7 482.5,316.6 482.6,319.4 482.8,322.4 482.9,324.0 483.0,317.9 483.1,316.9 483.4,319.4 483.6,317.1 483.9,321.2 484.2,323.5 484.3,325.8 484.4,326.9 484.6,321.3 484.8,325.8 485.0,321.7 485.3,314.5 485.6,315.4 485.9,312.7 486.3,312.3 486.7,315.3 487.1,310.4 487.4,315.0 487.8,311.1 488.2,318.3 488.3,318.0 488.6,312.5 488.9,318.7 489.2,319.8 489.5,313.2 489.8,320.5 490.1,317.3 490.6,313.5 491.0,321.4 491.5,319.1 492.0,319.5 492.4,321.9 492.7,319.4 493.0,323.3 493.4,320.6 493.8,318.7 494.1,315.4 494.5,312.9 494.7,311.9 495.2,311.9 495.8,310.1 496.1,307.4 496.6,308.6 497.1,308.9 497.6,316.6 498.0,316.2 498.4,315.4 498.7,312.0 499.1,316.8 499.5,317.1 499.9,310.7 500.2,308.1 500.6,312.0 500.7,320.0 501.1,318.5 501.3,321.9 501.6,323.3 502.1,322.7 502.5,318.7 503.0,317.9 503.2,330.8 503.2,331.5 503.3,334.1 503.4,327.3 503.4,313.1 503.4,315.8 503.5,310.3 503.6,312.5 503.7,314.9 503.8,314.9 504.0,311.8 504.1,310.7 504.5,312.3 504.8,310.4 505.1,310.7 505.5,316.2 505.7,314.8 506.0,306.2 506.1,305.9 506.5,311.2 506.7,309.9 507.0,309.1 507.4,313.2 507.7,316.5 507.8,311.6 507.9,314.0 508.1,315.8 508.2,318.0 508.3,318.9 508.4,319.6 508.5,327.1 508.6,325.2 508.7,328.8 508.7,331.4 508.8,329.1 508.9,323.5 509.1,321.7 509.1,314.6 509.2,312.9 509.3,318.0 509.4,318.2 509.5,323.7 509.6,325.0 509.7,322.2 509.9,325.1 510.0,329.2 510.1,329.4 510.2,330.8 510.2,340.3 510.3,340.4 510.3,338.3 510.3,345.6 510.4,345.2 510.4,346.7 510.5,344.9 510.5,348.0 510.6,350.6 510.6,349.9 510.7,350.6 510.8,349.0 510.8,348.5 510.9,350.2 511.0,355.9 511.0,356.8 511.1,357.1 511.2,358.9 511.2,359.8 511.3,357.6 511.4,357.6 511.4,355.3 511.5,352.3 511.6,349.8 511.7,344.9 511.8,344.8 511.9,348.4 512.0,350.2 512.1,348.3 512.1,345.8 512.3,345.4 512.5,346.9 512.7,350.1 512.9,351.7 513.0,358.2 513.1,357.2 513.2,357.0 513.4,357.1 513.5,356.8 513.7,352.3 513.8,350.4 513.9,352.7 514.1,349.1 514.2,350.9 514.3,354.9 514.5,358.1 514.7,358.0 514.8,359.4 515.0,357.7 515.1,350.9 515.3,354.0 515.5,355.1 515.8,356.5 515.9,362.4 516.1,358.7 516.3,360.7 516.6,357.9 517.0,353.1 517.6,352.4 518.1,356.6 518.6,358.3 519.0,355.6 519.4,354.7 519.9,356.3 520.3,350.6 520.6,346.0 520.9,346.6 521.2,344.0 521.6,345.8 522.0,349.5 522.4,350.5 522.8,347.6 523.2,344.0 523.7,342.8 524.2,342.4 524.7,341.7 525.3,344.4 525.7,345.2 526.3,348.0 526.6,351.4 527.0,352.8 527.2,357.5 527.3,362.8 527.4,366.1 527.5,363.8 527.5,371.1 527.6,368.0 527.7,372.8 527.7,369.2 527.9,372.7 528.0,375.1 528.0,378.5 528.1,376.6 528.2,378.9 528.2,378.4 528.3,376.9 528.5,379.9 528.5,383.4 528.6,382.0 528.7,384.4 528.8,385.2 529.0,386.8 529.1,390.6 529.1,393.6 529.2,391.0 529.3,395.0 529.3,402.4 529.4,399.7 529.4,397.5 529.5,392.8 529.6,394.6 529.7,392.0 529.7,391.2 529.9,395.1 530.0,396.3 530.1,397.1 530.2,395.1 530.3,393.6 530.5,392.3 530.7,394.8 530.9,388.6 531.1,394.8 531.3,399.1 531.4,400.6 531.5,400.1 531.6,400.5 531.7,405.2 531.7,411.2 531.8,415.4 531.8,409.9 531.9,407.6 532.0,407.4 532.1,402.4 532.2,402.9 532.4,399.0 532.5,398.5 532.6,397.7 532.7,392.0 532.7,385.2 532.8,381.8 532.8,380.4 532.8,382.5 532.9,384.1 532.9,373.6 533.0,378.6 533.1,379.7 533.2,383.5 533.3,384.0 533.5,386.6 533.6,387.8 533.7,383.5 533.9,386.8 534.1,386.7 534.3,393.3 534.5,388.6 534.7,391.9 534.9,392.8 535.1,395.9 535.2,389.3 535.4,388.1 535.4,385.2 535.5,386.6 535.5,388.6 535.6,393.7 535.7,395.3 535.7,389.6 535.8,381.0 535.9,386.8 536.0,385.9 536.1,391.0 536.2,391.5 536.3,392.1 536.4,394.3 536.5,395.8 536.6,400.9 536.7,397.4 536.7,392.2 536.8,390.0 536.9,386.4 537.0,391.9 537.1,394.0 537.2,387.7 537.3,389.3 537.4,387.0 537.5,384.6 537.6,383.6 537.8,386.4 537.9,380.5 538.0,378.5 538.1,376.7 538.2,371.3 538.3,365.7 538.3,367.8 538.4,368.4 538.6,367.6 538.7,369.3 538.8,374.8 539.0,374.4 539.2,372.6 539.4,377.8 539.6,375.9 539.8,379.3 540.0,377.4 540.3,379.6 540.4,377.0 540.7,373.3 540.9,376.1 541.1,370.6 541.4,373.1 541.7,372.7 542.0,373.4 542.3,378.3 542.7,375.9 543.1,375.8 543.4,369.0 543.9,368.1 544.3,364.2 544.9,367.1 545.6,369.6 546.2,369.7 546.9,376.4 547.6,377.6 548.0,375.0 548.6,371.5 549.1,367.9 549.6,368.5 550.1,371.8 550.5,373.9 551.0,374.2 551.6,369.3 552.0,369.9 552.2,375.6 552.8,377.1 553.5,374.9 554.3,372.2 555.0,372.2 555.6,366.9 555.8,367.4 556.3,366.6 556.6,372.7 556.9,371.4 557.2,373.9 557.8,374.2 558.7,372.2 559.6,369.9 560.3,371.9 561.2,368.7 561.7,367.9 562.5,370.8 563.1,370.7 563.7,372.6 564.2,370.8 564.7,367.9 565.4,370.9 566.2,371.2 566.6,375.9 567.1,374.4 567.9,371.9 569.0,372.0 570.1,369.9 570.8,367.7 571.7,370.7 572.7,367.5 573.9,368.3 575.2,368.4 575.8,370.2 576.4,372.7 577.5,370.9 578.7,372.0 579.3,366.3 579.8,368.6 580.9,369.1 581.8,371.7 582.6,373.5 583.3,371.3 584.3,371.4 584.6,369.6 584.7,379.1 584.9,374.6 585.2,378.2 585.6,378.7 585.9,379.9 586.2,372.7 586.2,369.6 586.3,368.3 586.3,358.0 586.3,356.3 586.4,357.8 586.4,363.1 586.5,363.4 586.6,368.3 586.8,364.2 587.0,360.5 587.2,360.8 587.5,362.6 587.7,357.4 587.9,353.6 588.1,357.1 588.5,358.6 588.9,358.9 589.4,363.0 589.9,362.3 590.4,363.9 590.8,359.3 591.1,356.5 591.2,357.1 591.5,352.0 591.6,351.7 591.9,352.9 592.2,350.1 592.5,350.0 592.9,350.2 593.6,352.1 594.2,348.2 594.3,347.7 594.7,345.8 594.9,342.3 594.9,341.2 595.1,342.0 595.6,342.3 596.2,340.3 596.7,338.7 597.1,343.4 597.6,344.2 598.3,344.5 599.1,344.6 600.0,346.5 600.6,343.3 600.9,338.9 601.5,341.1 602.1,346.1 602.6,348.0 602.9,353.7 603.1,360.2 603.2,362.6 603.3,359.5 603.5,358.9 603.8,354.0 604.1,356.2 604.5,355.4 604.9,354.6 605.3,354.7 605.6,352.3 605.8,346.3 606.1,346.9 606.7,345.8 607.0,340.6 607.1,333.9 607.1,328.7 607.1,324.4 607.2,327.2 607.3,328.4 607.4,326.6 607.6,328.3 607.9,326.3 608.2,327.0 608.6,324.6 608.8,321.4 609.1,319.7 609.4,317.9 609.6,315.6 609.8,314.6 610.1,316.1 610.3,313.3 610.7,314.6 611.1,312.5 611.6,314.6 612.1,314.6 612.5,310.8 612.7,314.5 613.1,316.8 613.4,320.0 613.8,318.9 614.2,316.7 614.7,316.6 615.1,319.4 615.4,320.1 615.8,318.3 616.3,316.8 616.8,316.8 617.2,315.2 617.6,318.8 618.0,321.1 618.2,318.7 618.4,318.2 618.6,317.4 618.8,313.9 618.9,316.2 619.2,318.5 619.4,316.2 619.8,313.4 620.1,308.7 620.2,314.5 620.6,313.1 620.9,309.9 621.0,314.4 621.1,319.4 621.2,316.2 621.4,317.9 621.6,313.2 621.7,320.3 621.9,318.2 621.9,326.1 622.1,324.6 622.2,319.5 622.4,320.6 622.7,324.9 622.9,330.6 623.1,326.7 623.3,326.2 623.7,325.5 624.0,321.0 624.5,317.8 624.8,321.1 625.3,318.0 625.7,319.2 625.9,317.1 626.6,316.1 627.3,318.5 628.0,323.7 628.8,318.9 629.7,321.6 630.4,325.5 630.8,325.8 631.5,324.2 632.0,326.1 632.5,332.3 632.6,331.6 632.8,334.0 633.1,336.9 633.5,334.6 633.9,336.9 634.4,337.1 634.8,339.9 634.9,347.4 635.0,349.6 635.0,350.4 635.1,356.7 635.2,355.4 635.3,353.4 635.5,357.0 635.7,356.8 635.8,358.6 636.1,357.1 636.2,359.8 636.4,358.5 636.7,358.4 636.8,360.3 637.2,362.3 637.5,358.2 637.7,356.3 638.1,356.2 638.6,360.0 639.0,355.8 639.5,357.2 639.9,360.1 640.3,362.1 640.7,361.3 641.2,358.8 641.9,357.9 642.4,356.2 642.7,352.5 642.8,347.4 642.9,349.9 643.2,351.0 643.7,350.3 644.2,349.5 644.5,339.6 644.6,340.5 644.8,341.8 645.0,340.8 645.2,345.3 645.4,352.2 645.4,350.9 645.6,348.7 645.8,347.6 646.0,345.8 646.1,349.6 646.2,349.2 646.3,352.3 646.5,346.3 646.6,341.0 646.6,334.7 646.7,332.7 646.7,326.1 646.8,324.4 646.8,326.2 646.9,332.2 647.0,331.4 647.1,330.7 647.3,329.4 647.3,319.7 647.4,313.4 647.4,308.3 647.5,305.0 647.5,304.0 647.5,300.5 647.5,301.1 647.6,305.7 647.6,300.0 647.7,292.4 647.7,294.8 647.8,297.8 647.8,300.0 647.9,293.8 648.0,292.5 648.1,288.4 648.2,288.9 648.2,293.2 648.4,286.6 648.5,284.1 648.6,285.7 648.7,284.2 648.9,287.5 649.0,282.1 649.2,279.4 649.3,282.2 649.4,278.7 649.5,283.9 649.7,286.7 649.7,290.3 649.8,295.4 649.8,295.1 649.9,295.9 650.0,292.7 650.1,298.1 650.2,303.7 650.2,302.6 650.3,304.1 650.4,299.0 650.5,298.4 650.6,298.4 650.7,296.5 650.8,299.2 650.9,302.7 651.1,299.6 651.3,305.0 651.5,302.2 651.7,309.6 651.8,308.1 652.1,303.5 652.5,302.6 652.8,308.4 653.2,304.7 653.4,309.2 653.6,314.8 653.6,319.3 653.7,319.0 654.0,320.8 654.3,316.8 654.6,317.5 654.8,326.9 654.9,326.7 655.1,320.4 655.6,319.8 655.8,325.4 656.0,328.6 656.1,335.1 656.2,345.8 656.2,340.6 656.2,339.9 656.3,347.5 656.4,343.3 656.5,339.6 656.7,342.8 656.9,340.2 657.2,337.9 657.4,348.4 657.5,353.4 657.6,349.8 657.8,351.7 658.0,351.0 658.3,352.7 658.4,356.6 658.6,357.3 658.7,356.4 658.9,355.4 659.2,351.5 659.4,355.0 659.7,353.5 660.1,351.5 660.4,348.5 660.9,352.0 661.4,354.4 661.8,357.9 662.2,355.9 662.7,350.3 663.2,350.2 663.7,348.5 664.1,354.9 664.4,357.8 664.9,354.7 665.5,353.8 666.0,356.4 666.2,359.4 666.5,356.7 666.8,354.3 667.3,353.4 667.9,353.5 668.4,355.7 668.8,353.1 669.2,355.5 669.7,356.3 670.3,359.2 670.6,362.4 670.6,371.6 670.6,365.9 670.7,365.0 670.8,357.8 670.9,359.2 671.0,354.6 671.1,356.9 671.4,361.3 671.6,361.9 671.9,360.0 672.1,356.4 672.4,355.0 672.7,357.0 673.1,352.8 673.4,354.2 673.5,359.8 673.6,353.4 673.6,354.8 673.8,357.5 673.9,352.7 673.9,347.6 674.0,345.2 674.0,347.6 674.1,353.8 674.2,350.3 674.3,354.3 674.4,358.2 674.5,359.9 674.5,356.4 674.6,357.9 674.6,355.9 674.7,354.9 674.8,359.0 674.9,356.7 675.0,353.6 675.1,349.2 675.1,345.7 675.2,341.8 675.2,345.8 675.3,346.3 675.4,350.8 675.5,352.9 675.6,359.5 675.7,357.3 675.9,355.0 676.0,351.5 676.1,351.4 676.4,351.3 676.6,350.8 676.8,352.8 676.9,355.8 676.9,355.2 676.9,349.5 677.0,350.6 677.1,349.4 677.3,349.7 677.6,354.0 677.8,355.5 678.1,355.2 678.3,358.5 678.5,361.2 678.7,358.5 679.0,361.1 679.2,356.4 679.4,357.0 679.8,357.0 680.0,354.7 680.3,355.3 680.7,356.6 680.9,359.3 681.2,360.3 681.7,357.7 682.1,363.2 682.1,364.9 682.3,372.0 682.3,370.5 682.5,371.2 682.7,369.2 683.0,368.3 683.3,364.4 683.6,366.8 683.8,368.1 684.1,368.9 684.5,363.8 684.8,362.0 685.0,358.7 685.5,362.6 685.9,362.1 686.5,358.0 686.9,353.8 686.9,349.8 687.1,353.6 687.4,354.1 688.1,352.4 688.7,353.1 689.2,349.3 689.7,347.5 690.2,350.7 690.9,345.3 691.4,346.4 692.3,344.6 692.7,340.9 692.7,333.6 692.7,329.1 692.8,333.2 692.9,330.7 693.2,330.8 693.4,327.3 693.6,328.8 693.9,333.0 694.1,335.3 694.4,336.0 694.8,336.2 695.1,332.1 695.4,337.3 695.9,336.7 696.2,339.8 696.8,339.0 697.3,335.5 697.7,337.1 698.3,338.1 698.8,337.6 699.1,339.9 699.3,344.3 699.4,343.7 699.7,341.1 700.0,344.5 700.4,341.2 700.8,343.6 701.1,339.6 701.2,336.7 701.3,337.3 701.5,335.9 701.7,337.3 701.8,342.6 701.9,343.6 702.0,341.7 702.2,338.3 702.3,332.3 702.5,334.5 702.7,335.6 702.9,330.9 703.0,332.9 703.2,334.6 703.4,329.0 703.6,334.1 703.9,331.5 704.2,330.4 704.6,333.9 704.9,327.3 705.0,325.3 705.1,330.6 705.3,330.2 705.5,328.5 705.7,320.0 705.8,318.8 705.9,320.2 706.0,313.8 706.2,313.2 706.4,315.5 706.6,320.6 706.8,322.4 707.2,325.3 707.5,326.2 708.0,324.9 708.5,327.5 708.7,329.2 709.1,330.1 709.6,334.8 709.8,334.1 710.5,336.9 711.0,330.5 711.4,328.4 712.2,329.8 713.0,329.5 713.4,326.6 713.7,327.2 714.1,322.1 714.4,322.2 714.9,325.4 715.5,324.0 716.2,321.9 716.7,323.8 717.5,325.0 718.1,320.6 718.3,314.2 718.4,311.9 718.6,313.7 718.9,316.8 719.4,316.9 719.9,313.4 720.6,313.0 721.1,310.2 721.6,314.9 722.1,317.3 722.4,318.3 722.8,317.7 723.2,314.1 723.6,313.4 724.1,313.1 724.7,312.9 725.2,314.1 726.0,313.2 726.4,320.6 726.7,317.5 727.2,314.2 727.5,314.6 727.5,306.7 727.5,305.1 727.5,305.9 727.5,311.2 727.6,308.3 727.8,309.4 727.9,313.0 728.3,312.2 728.6,313.5 728.8,316.2 728.8,319.2 728.9,321.2 729.0,323.5 729.1,317.8 729.3,324.3 729.4,322.6 729.6,328.4 729.6,329.1 729.7,332.8 729.8,329.2 729.9,331.2 730.1,329.5 730.2,330.7 730.4,326.6 730.6,322.2 730.8,321.6 731.1,324.6 731.3,329.6 731.6,330.7 731.8,326.6 732.2,329.1 732.7,323.8 733.1,322.8 733.7,325.7 734.3,322.9 734.9,322.7 735.4,318.5 735.9,320.5 736.5,320.4 737.3,316.8 737.7,317.1 738.5,316.3 739.8,318.1 741.0,319.2 741.9,319.4 742.6,316.8 744.0,315.6 745.3,316.2 746.1,312.1 747.4,311.4 748.3,312.8 749.2,308.4 749.5,307.4 750.4,307.7 751.1,307.3 751.8,306.9 752.5,310.5 753.2,308.5 754.4,308.9 755.4,304.8 755.8,306.0 756.4,307.9 757.4,308.1 758.3,310.6 759.2,312.2 759.8,313.1 761.1,312.0 762.2,307.5 763.2,307.6 764.8,310.0 766.4,310.7 767.8,309.7 768.9,305.9 769.6,307.1 770.6,308.9 771.6,309.9 772.7,312.4 774.3,310.8 775.7,308.6 777.3,307.3 778.5,305.7 779.1,301.9 779.2,297.4 779.3,295.6 779.4,298.6 779.7,298.3 780.2,298.8 780.8,296.7 781.5,293.8 781.7,290.7 781.8,285.6 781.9,287.1 782.2,284.8 782.3,282.7 782.4,281.3 782.7,281.5 783.0,282.4 783.3,282.3 783.6,284.7 784.0,282.5 784.2,278.5 784.4,281.0 784.8,279.2 785.1,279.1 785.5,282.7 786.0,283.6 786.7,280.8 787.1,285.1 787.8,280.3 788.5,281.5 789.6,283.2 790.5,283.0 791.8,283.6 792.9,285.2 793.2,284.3 793.6,281.0 793.7,266.6 793.7,260.9 793.7,261.9 793.8,269.4 793.8,268.4 793.9,268.6 794.0,271.7 794.2,271.4 794.5,268.6 794.8,265.4 795.0,270.1 795.5,268.2 795.9,269.9 796.1,266.0 796.3,265.2 796.6,262.3 796.9,267.4 797.3,263.8 797.6,261.9 798.0,259.4 798.4,258.4 798.8,264.0 799.2,264.5 799.7,262.9 800.2,264.1 800.9,261.0 801.8,258.4 802.1,257.3 802.4,257.1 802.9,256.4 803.3,255.9 803.6,253.0 803.8,250.4 803.9,249.9 804.1,247.7 804.2,249.0 804.4,249.8 804.7,253.2 804.9,253.8 805.3,256.3 805.7,260.8 806.1,261.5 806.3,265.2 806.6,263.4 806.9,261.3 807.3,259.8 807.8,256.5 808.4,256.9 809.0,260.6 809.5,258.2 810.1,260.7 810.5,261.8 811.1,261.1 811.5,262.3 811.7,267.4 811.8,265.0 811.9,258.8 812.1,264.1 812.3,265.8 812.5,269.7 812.7,265.0 813.1,267.0 813.4,263.6 813.7,263.2 814.0,263.4 814.5,262.4 814.8,260.7 815.1,256.7 815.5,257.0 816.0,258.7 816.5,255.5 817.0,256.1 817.5,257.6 817.9,262.7 818.4,266.0 818.9,264.7 819.5,267.3 820.1,269.8 820.6,275.0 821.1,269.9 821.6,271.3 822.1,274.6 822.5,275.6 822.9,277.9 823.4,275.7 823.9,274.6 824.4,276.7 824.8,275.4 825.4,273.7 825.9,271.1 826.4,276.1 826.8,282.3 827.1,275.7 827.5,277.7 828.0,279.3 828.6,278.5 829.3,277.1 830.1,278.8 830.4,282.1 830.9,279.4 831.5,274.9 831.9,273.8 832.5,271.9 833.3,272.0 834.0,269.4 834.6,272.4 835.5,269.5 836.5,270.0 837.2,271.3 837.8,274.5 838.5,270.7 838.8,266.0 839.0,262.9 839.1,260.9 839.3,262.2 839.5,258.1 839.7,257.8 839.9,253.8 840.0,249.4 840.2,253.3 840.4,255.7 840.5,262.2 840.5,270.3 840.6,268.2 840.6,264.5 840.8,262.9 841.0,259.4 841.3,261.6 841.5,265.1 841.7,267.0 842.0,268.4 842.2,265.0 842.5,261.9 842.6,260.5 842.9,258.6 843.3,257.7 843.7,257.6 844.1,257.7 844.6,260.6 845.0,267.6 845.4,263.2 845.8,273.4 845.8,277.5 845.9,278.7 846.1,275.8 846.3,278.1 846.5,281.6 846.7,289.2 846.7,288.4 846.8,290.9 846.9,291.1 846.9,293.2 847.0,297.0 847.1,293.7 847.2,298.0 847.3,290.1 847.5,293.1 847.8,295.3 847.9,297.4 848.1,295.2 848.6,288.6 849.0,290.9 849.4,288.4 850.1,288.9 850.6,291.3 851.2,293.1 851.6,293.9 852.1,295.3 852.5,299.2 852.8,302.0 853.1,294.3 853.3,297.1 853.6,297.5 854.1,295.9 854.8,297.4 855.4,296.4 856.1,293.7 856.7,293.0 857.3,289.4 857.6,287.9 857.9,289.0 858.5,289.7 859.2,285.4 859.8,284.4 860.3,283.3 860.8,285.5 861.3,288.7 861.8,290.9 862.3,291.5 863.1,288.3 863.7,293.6 864.2,288.3 864.8,289.0 865.5,288.7 866.2,286.4 866.6,282.0 866.8,289.4 867.0,289.8 867.1,291.1 867.3,293.9 867.5,295.0 867.7,298.7 867.9,298.3 868.2,294.1 868.5,296.8 868.6,298.6 868.9,297.7 869.0,303.4 869.1,305.9 869.2,306.3 869.3,308.6 869.4,307.3 869.6,310.0 869.7,313.2 869.8,314.5 869.9,316.8 870.0,314.0 870.1,314.3 870.4,312.2 870.7,315.4 871.1,314.8 871.4,309.9 871.6,307.5 871.8,307.0 871.9,308.4 871.9,305.1 872.0,314.9 872.0,307.8 872.2,313.9 872.4,311.3 872.5,307.6 872.6,321.9 872.6,322.9 872.6,321.8 872.6,327.5 872.6,330.5 872.6,332.7 872.6,334.6 872.7,336.0 872.7,336.3 872.7,331.2 872.7,332.3 872.8,328.9 872.8,327.3 872.8,320.3 872.9,317.3 872.9,313.8 872.9,314.4 873.0,319.3 873.1,315.8 873.1,317.0 873.2,311.9 873.3,315.7 873.5,315.7 873.6,317.2 873.7,325.8 873.8,325.2 874.0,320.6 874.2,319.5 874.3,322.8 874.6,316.1 874.9,312.4 875.4,311.4 876.1,307.1 876.6,313.4 877.1,313.9 877.7,317.8 878.1,323.5 878.4,328.4 878.5,329.2 878.8,329.1 879.1,327.7 879.3,325.1 879.7,323.8 880.1,325.5 880.5,325.8 880.9,320.9 881.3,323.3 881.7,317.9 882.3,318.9 882.8,320.0 883.3,321.3 883.6,325.6 883.6,330.5 883.7,330.7 883.8,335.5 883.9,344.2 883.9,345.9 883.9,352.6 883.9,355.9 884.0,353.3 884.0,356.3 884.0,352.3 884.1,345.8 884.1,340.8 884.1,341.4 884.1,339.4 884.2,342.7 884.3,344.9 884.5,344.7 884.6,349.6 884.7,345.2 884.9,344.5 885.2,339.7 885.3,334.6 885.4,329.7 885.5,326.3 885.7,326.5 886.0,328.2 886.3,326.7 886.5,320.6 886.6,319.5 887.0,318.8 887.1,313.9 887.3,311.0 887.6,313.0 888.1,312.6 888.2,316.9 888.5,319.6 889.0,320.3 889.4,324.8 889.7,324.8 890.1,326.7 890.4,327.8 890.7,328.8 891.2,330.7 891.7,330.6 892.1,330.9 892.5,332.8 892.8,338.3 892.9,338.1 893.1,342.8 893.1,346.3 893.2,344.2 893.4,347.3 893.5,349.7 893.6,352.7 893.7,352.8 893.9,348.4 894.1,352.3 894.2,351.2 894.4,351.2 894.4,354.6 894.5,360.8 894.5,361.8 894.5,363.0 894.6,362.4 894.7,358.7 894.8,354.3 894.9,361.0 895.0,357.6 895.1,355.9 895.2,356.4 895.3,356.1 895.5,355.5 895.6,354.5 895.8,356.1 896.0,354.2 896.2,354.3 896.4,356.7 896.6,358.0 896.8,363.2 896.9,362.4 897.1,360.8 897.3,359.1 897.5,355.1 897.7,353.6 898.1,355.1 898.4,357.8 898.6,361.4 898.7,365.0 898.8,369.3 898.8,369.9 899.0,368.6 899.1,371.2 899.2,364.5 899.4,363.8 899.7,365.0 900.0,365.7 900.2,369.8 900.5,367.4 900.7,372.6 900.8,368.6 901.1,373.9 901.3,369.0 901.4,377.0 901.5,372.7 901.7,370.1 901.8,375.6 901.9,377.0 902.0,369.9 902.2,369.1 902.4,371.3 902.5,364.7 902.8,361.4 903.2,362.8 903.7,360.5 904.1,358.9 904.7,362.1 905.2,357.7 905.7,360.6 905.9,353.0 906.3,353.7 906.5,351.0 906.7,347.9 907.2,348.9 907.4,341.5 907.5,336.5 907.6,336.8 907.7,330.4 907.9,331.4 908.1,331.6 908.3,336.5 908.7,334.9 909.0,341.4 909.3,338.3 909.5,345.5 909.7,344.2 910.0,342.4 910.4,341.7 910.6,344.8 910.9,340.7 911.2,337.6 911.4,332.6 911.6,333.7 911.8,327.1 912.0,329.3 912.3,330.3 912.8,329.6 913.4,332.4 913.7,334.0 914.4,335.3 914.8,332.5 915.3,336.4 915.7,333.6 916.0,337.6 916.4,333.3 916.8,329.0 917.0,326.7 917.2,328.5 917.7,329.7 918.2,331.4 918.7,328.4 919.2,335.0 919.6,335.3 920.0,329.9 920.1,323.3 920.3,322.0 920.5,326.3 920.8,326.9 921.0,332.4 921.2,332.8 921.6,329.5 921.9,330.2 922.0,335.7 922.1,333.4 922.2,335.0 922.3,332.0 922.5,328.5 922.6,327.6 922.7,322.9 922.8,329.2 922.9,332.1 923.1,332.6 923.2,330.4 923.4,329.7 923.5,323.3 923.6,317.9 923.6,317.5 923.8,323.6 923.8,313.3 923.9,321.3 924.1,321.5 924.3,322.3 924.5,324.8 924.7,326.1 924.9,326.1 925.1,330.2 925.4,328.5 925.6,334.5 925.8,343.2 925.8,339.7 925.9,346.7 926.0,341.8 926.2,342.5 926.4,344.3 926.5,341.9 926.7,340.6 926.9,339.0 927.2,336.0 927.6,338.1 927.8,339.1 928.0,331.5 928.3,337.7 928.6,333.9 928.9,329.0 929.1,327.0 929.4,332.9 929.8,333.2 930.3,332.5 931.0,334.9 931.7,336.3 932.6,335.5 934.0,335.1" fill="none" stroke="#d97706" stroke-width="1.2" stroke-linejoin="round" opacity="0.6"/><text x="942" y="472.0" text-anchor="start" font-size="11" fill="#d97706">99541</text><text x="942" y="396.0" text-anchor="start" font-size="11" fill="#d97706">105270</text><text x="942" y="320.0" text-anchor="start" font-size="11" fill="#d97706">110998</text><text x="942" y="244.0" text-anchor="start" font-size="11" fill="#d97706">116727</text><text x="942" y="168.0" text-anchor="start" font-size="11" fill="#d97706">122455</text><text x="942" y="92.0" text-anchor="start" font-size="11" fill="#d97706">128184</text><text x="942" y="80.0" text-anchor="start" font-size="11" font-weight="600" fill="#d97706">price</text>
  <polygon points="127.4,468.0 127.4,135.1 127.4,129.7 344.4,131.1 350.9,124.0 351.0,118.7 351.0,120.0 351.0,121.6 351.1,123.6 351.1,126.1 351.3,121.1 351.5,122.4 351.5,124.1 378.2,126.3 387.2,128.9 399.1,130.3 444.8,132.0 455.8,134.1 478.9,136.8 529.1,131.5 538.2,132.8 647.7,126.5 670.6,121.2 670.8,122.5 784.1,116.1 847.9,117.5 847.9,468.0" fill="#16a34a" fill-opacity="0.08"/>
  <polyline points="127.4,135.1 127.4,129.7 344.4,131.1 350.9,124.0 351.0,118.7 351.0,120.0 351.0,121.6 351.1,123.6 351.1,126.1 351.3,121.1 351.5,122.4 351.5,124.1 378.2,126.3 387.2,128.9 399.1,130.3 444.8,132.0 455.8,134.1 478.9,136.8 529.1,131.5 538.2,132.8 647.7,126.5 670.6,121.2 670.8,122.5 784.1,116.1 847.9,117.5" fill="none" stroke="#16a34a" stroke-width="2" stroke-linejoin="round"/>
  <line x1="88" y1="102" x2="110" y2="102" stroke="#16a34a" stroke-width="2.5"/><text x="116" y="106" font-size="11.5" fill="#374151">equity</text><line x1="88" y1="118" x2="110" y2="118" stroke="#d97706" stroke-width="2.5" opacity="0.8"/><text x="116" y="122" font-size="11.5" fill="#374151">price</text>
  <text x="78" y="502" text-anchor="start" font-size="12" fill="#6b7280">2025-10-01</text><text x="934" y="502" text-anchor="end" font-size="12" fill="#6b7280">2025-10-31</text>
</svg>
