<svg xmlns="http://www.w3.org/2000/svg" width="1100" height="560" font-family="ui-sans-serif, system-ui, sans-serif" viewBox="0 0 1100 560"><rect width="1100" height="560" fill="#fff"/><text x="80" y="28" fill="#111827" font-size="18" font-weight="700">Zone Recovery — BTCUSDT fee-tier comparison (best setting)</text><text x="80" y="48" fill="#6b7280" font-size="12.5">lev 25 · ratio 4 · gap 35% · maxSteps 4 · maxDD 20% · random · equity per fee tier vip 0..9</text><text x="80" y="68" fill="#1d4ed8" font-size="12.5" font-weight="600">USDT margin · BNB −10%</text><line x1="80" x2="932" y1="508" y2="508" stroke="#e5e7eb" stroke-width="1"/><text x="70" y="512" fill="#6b7280" font-size="12" text-anchor="end">0.00</text><line x1="80" x2="932" y1="424" y2="424" stroke="#e5e7eb" stroke-width="1"/><text x="70" y="428" fill="#6b7280" font-size="12" text-anchor="end">22827729</text><line x1="80" x2="932" y1="340" y2="340" stroke="#e5e7eb" stroke-width="1"/><text x="70" y="344" fill="#6b7280" font-size="12" text-anchor="end">45655458</text><line x1="80" x2="932" y1="256" y2="256" stroke="#e5e7eb" stroke-width="1"/><text x="70" y="260" fill="#6b7280" font-size="12" text-anchor="end">68483187</text><line x1="80" x2="932" y1="172" y2="172" stroke="#e5e7eb" stroke-width="1"/><text x="70" y="176" fill="#6b7280" font-size="12" text-anchor="end">91310916</text><line x1="80" x2="932" y1="88" y2="88" stroke="#e5e7eb" stroke-width="1"/><text x="70" y="92" fill="#6b7280" font-size="12" text-anchor="end">114138645</text><line x1="80" x2="932" y1="140" y2="140" stroke="#9ca3af" stroke-dasharray="6 4" stroke-width="1.5"/><polyline fill="none" stroke="#2563eb" stroke-linejoin="round" stroke-width="1.8" points="80 140 80 134.1 336.6 135.8 344.4 128 344.5 122.2 344.5 123.7 344.5 125.5 344.6 127.8 344.6 130.7 344.9 125.2 345.1 126.8 345.1 128.8 376.6 131.2 387.3 134.3 401.4 135.8 455.4 137.8 468.4 140.2 495.8 143.3 555 137.5 565.9 139 695.3 132.2 722.4 126.3 722.6 127.8 856.6 120.9 932 122.5" opacity=".9"/><polyline fill="none" stroke="#dc2626" stroke-linejoin="round" stroke-width="1.8" points="80 140 80 134.1 336.6 135.8 344.4 128 344.5 122.2 344.5 123.7 344.5 125.5 344.6 127.8 344.6 130.7 344.9 125.2 345.1 126.8 345.1 128.8 376.6 131.2 387.3 134.3 401.4 135.8 455.4 137.8 468.4 140.2 495.8 143.3 555 137.5 565.9 139 695.3 132.2 722.4 126.3 722.6 127.8 856.6 120.9 932 122.5" opacity=".9"/><polyline fill="none" stroke="#16a34a" stroke-linejoin="round" stroke-width="1.8" points="80 140 80 134.1 336.6 135.8 344.4 127.9 344.5 122.1 344.5 123.6 344.5 125.4 344.6 127.7 344.6 130.5 344.9 125 345.1 126.6 345.1 128.5 376.6 130.9 387.3 134 401.4 135.5 455.4 137.4 468.4 139.9 495.8 142.9 555 137.1 565.9 138.5 695.3 131.7 722.4 125.8 722.6 127.3 856.6 120.4 932 121.9" opacity=".9"/><polyline fill="none" stroke="#d97706" stroke-linejoin="round" stroke-width="1.8" points="80 140 80 134.1 336.6 135.7 344.4 127.9 344.5 122 344.5 123.5 344.5 125.3 344.6 127.6 344.6 130.4 344.9 124.9 345.1 126.4 345.1 128.3 376.6 130.7 387.3 133.7 401.4 135.2 455.4 137.2 468.4 139.6 495.8 142.5 555 136.7 565.9 138.2 695.3 131.3 722.4 125.4 722.6 126.9 856.6 119.9 932 121.5" opacity=".9"/><polyline fill="none" stroke="#7c3aed" stroke-linejoin="round" stroke-width="1.8" points="80 140 80 134.1 336.6 135.7 344.4 127.9 344.5 122 344.5 123.5 344.5 125.3 344.6 127.5 344.6 130.4 344.9 124.8 345.1 126.4 345.1 128.3 376.6 130.7 387.3 133.6 401.4 135.2 455.4 137.1 468.4 139.5 495.8 142.5 555 136.6 565.9 138.1 695.3 131.2 722.4 125.3 722.6 126.8 856.6 119.8 932 121.4" opacity=".9"/><polyline fill="none" stroke="#0891b2" stroke-linejoin="round" stroke-width="1.8" points="80 140 80 134.1 336.6 135.7 344.4 127.8 344.5 122 344.5 123.4 344.5 125.2 344.6 127.5 344.6 130.3 344.9 124.8 345.1 126.3 345.1 128.2 376.6 130.6 387.3 133.6 401.4 135.1 455.4 137 468.4 139.4 495.8 142.3 555 136.5 565.9 137.9 695.3 131.1 722.4 125.2 722.6 126.6 856.6 119.7 932 121.2" opacity=".9"/><polyline fill="none" stroke="#db2777" stroke-linejoin="round" stroke-width="1.8" points="80 140 80 134.1 336.6 135.7 344.4 127.8 344.5 122 344.5 123.4 344.5 125.2 344.6 127.5 344.6 130.3 344.9 124.7 345.1 126.3 345.1 128.1 376.6 130.5 387.3 133.5 401.4 135 455.4 136.9 468.4 139.3 495.8 142.2 555 136.4 565.9 137.8 695.3 131 722.4 125.1 722.6 126.5 856.6 119.5 932 121.1" opacity=".9"/><polyline fill="none" stroke="#65a30d" stroke-linejoin="round" stroke-width="1.8" points="80 140 80 134.1 336.6 135.7 344.4 127.8 344.5 121.9 344.5 123.4 344.5 125.2 344.6 127.4 344.6 130.2 344.9 124.7 345.1 126.2 345.1 128.1 376.6 130.4 387.3 133.4 401.4 134.9 455.4 136.8 468.4 139.2 495.8 142.1 555 136.3 565.9 137.7 695.3 130.8 722.4 124.9 722.6 126.3 856.6 119.4 932 120.9" opacity=".9"/><polyline fill="none" stroke="#475569" stroke-linejoin="round" stroke-width="1.8" points="80 140 80 134.1 336.6 135.7 344.4 127.8 344.5 121.9 344.5 123.4 344.5 125.1 344.6 127.4 344.6 130.2 344.9 124.6 345.1 126.1 345.1 128 376.6 130.4 387.3 133.3 401.4 134.8 455.4 136.7 468.4 139.1 495.8 142 555 136.2 565.9 137.6 695.3 130.7 722.4 124.8 722.6 126.2 856.6 119.3 932 120.8" opacity=".9"/><polyline fill="none" stroke="#ea580c" stroke-linejoin="round" stroke-width="1.8" points="80 140 80 134 336.6 135.7 344.4 127.8 344.5 121.9 344.5 123.3 344.5 125.1 344.6 127.3 344.6 130.1 344.9 124.6 345.1 126.1 345.1 128 376.6 130.3 387.3 133.2 401.4 134.7 455.4 136.6 468.4 139 495.8 141.9 555 136.1 565.9 137.5 695.3 130.6 722.4 124.7 722.6 126.1 856.6 119.1 932 120.6" opacity=".9"/><line x1="950" x2="972" y1="94" y2="94" stroke="#ea580c" stroke-width="3"/><text x="980" y="98" fill="#374151" font-size="12.5">vip 9 105267057</text><line x1="950" x2="972" y1="116" y2="116" stroke="#475569" stroke-width="3"/><text x="980" y="120" fill="#374151" font-size="12.5">vip 8 105221181</text><line x1="950" x2="972" y1="138" y2="138" stroke="#65a30d" stroke-width="3"/><text x="980" y="142" fill="#374151" font-size="12.5">vip 7 105190598</text><line x1="950" x2="972" y1="160" y2="160" stroke="#db2777" stroke-width="3"/><text x="980" y="164" fill="#374151" font-size="12.5">vip 6 105144722</text><line x1="950" x2="972" y1="182" y2="182" stroke="#0891b2" stroke-width="3"/><text x="980" y="186" fill="#374151" font-size="12.5">vip 5 105114139</text><line x1="950" x2="972" y1="204" y2="204" stroke="#7c3aed" stroke-width="3"/><text x="980" y="208" fill="#374151" font-size="12.5">vip 4 105068263</text><line x1="950" x2="972" y1="226" y2="226" stroke="#d97706" stroke-width="3"/><text x="980" y="230" fill="#374151" font-size="12.5">vip 3 105037680</text><line x1="950" x2="972" y1="248" y2="248" stroke="#16a34a" stroke-width="3"/><text x="980" y="252" fill="#374151" font-size="12.5">vip 2 104915346</text><line x1="950" x2="972" y1="270" y2="270" stroke="#2563eb" stroke-width="3"/><text x="980" y="274" fill="#374151" font-size="12.5">vip 0 104762428</text><line x1="950" x2="972" y1="292" y2="292" stroke="#dc2626" stroke-width="3"/><text x="980" y="296" fill="#374151" font-size="12.5">vip 1 104762428</text><text x="80" y="542" fill="#6b7280" font-size="12" text-anchor="start">2025-10-02</text><text x="932" y="542" fill="#6b7280" font-size="12" text-anchor="end">2025-10-28</text></svg>