<?xml version="1.0" encoding="UTF-8"?>
<svg xmlns="http://www.w3.org/2000/svg" width="1000" height="520" viewBox="0 0 1000 520" font-family="ui-sans-serif, system-ui, sans-serif">
  <rect width="1000" height="520" fill="#ffffff"/>
  <text x="78" y="28" font-size="18" font-weight="700" fill="#111827">Zone Recovery — ADAUSDT best setting (equity / PnL)</text>
  <text x="78" y="48" font-size="12.5" fill="#6b7280">lev 10 · ratio 3 · gap 35% · maxSteps 4 · maxDD 20% · random · vip 9  ·  26 series, 88.5% win · vol $195684385 ($6312403/day) · fees $29940</text>
  <text x="78" y="68" font-size="12.5" font-weight="600" fill="#1d4ed8">USDT · BNB −10% · taker 0.0153%</text>
  <text x="934" y="28" text-anchor="end" font-size="18" font-weight="700" fill="#16a34a">+2255962 USDT  (+2.26%)</text>
  <line x1="78" y1="468.0" x2="934" y2="468.0" stroke="#e5e7eb" stroke-width="1"/><text x="68" y="472.0" text-anchor="end" font-size="12" fill="#6b7280">0.00</text><line x1="78" y1="392.0" x2="934" y2="392.0" stroke="#e5e7eb" stroke-width="1"/><text x="68" y="396.0" text-anchor="end" font-size="12" fill="#6b7280">22159872</text><line x1="78" y1="316.0" x2="934" y2="316.0" stroke="#e5e7eb" stroke-width="1"/><text x="68" y="320.0" text-anchor="end" font-size="12" fill="#6b7280">44319744</text><line x1="78" y1="240.0" x2="934" y2="240.0" stroke="#e5e7eb" stroke-width="1"/><text x="68" y="244.0" text-anchor="end" font-size="12" fill="#6b7280">66479616</text><line x1="78" y1="164.0" x2="934" y2="164.0" stroke="#e5e7eb" stroke-width="1"/><text x="68" y="168.0" text-anchor="end" font-size="12" fill="#6b7280">88639489</text><line x1="78" y1="88.0" x2="934" y2="88.0" stroke="#e5e7eb" stroke-width="1"/><text x="68" y="92.0" text-anchor="end" font-size="12" fill="#6b7280">110799361</text>
  <line x1="78" y1="125.0" x2="934" y2="125.0" stroke="#9ca3af" stroke-width="1.5" stroke-dasharray="6 4"/><text x="934" y="119.0" text-anchor="end" font-size="11" fill="#6b7280">start 100000000</text>
  <polyline points="78.0,159.3 78.3,159.1 78.7,160.4 79.2,159.4 79.6,161.1 80.1,158.2 80.5,158.4 81.2,160.0 81.7,161.0 82.1,161.7 82.5,164.1 82.9,161.9 83.4,161.1 83.9,162.1 84.3,161.6 85.0,161.5 85.7,161.5 86.3,162.2 86.9,160.2 87.6,160.6 87.8,155.5 87.9,152.6 88.0,151.9 88.1,149.8 88.2,149.3 88.3,149.3 88.4,147.3 88.6,146.2 88.7,145.7 88.9,145.8 89.1,145.9 89.4,145.6 89.6,144.9 89.8,147.2 90.2,146.2 90.6,146.6 90.9,143.7 91.2,144.0 91.5,145.4 91.9,145.0 92.2,143.7 92.6,144.4 93.0,145.1 93.4,142.3 93.6,143.5 93.9,142.9 94.2,142.7 94.4,142.5 94.7,142.7 94.9,141.0 95.2,142.5 95.6,142.7 96.0,141.7 96.4,142.0 96.7,140.1 97.1,141.9 97.4,143.4 97.7,144.2 98.0,143.7 98.5,143.6 98.9,142.7 99.3,140.9 99.7,140.1 100.2,138.8 100.5,138.6 100.9,138.1 101.3,139.9 101.8,140.0 102.6,140.7 103.1,142.3 103.7,141.1 104.4,139.6 104.9,138.2 105.4,137.7 105.6,135.8 105.8,134.1 106.0,135.0 106.3,136.2 106.7,137.1 107.1,136.3 107.5,134.7 107.8,132.7 108.0,133.6 108.3,133.5 108.7,132.0 109.1,132.4 109.5,133.5 110.0,133.8 110.5,133.5 111.0,135.9 111.4,133.8 112.0,134.0 112.5,134.1 113.1,133.1 113.3,129.5 113.6,131.6 113.9,131.2 114.3,133.1 114.8,134.6 115.3,133.8 115.9,133.2 116.4,133.6 116.9,134.4 117.4,135.2 117.8,136.1 118.2,135.3 118.6,135.1 119.2,134.1 119.4,137.2 119.9,135.5 120.2,134.6 120.6,133.8 120.9,138.4 121.3,136.0 121.5,136.4 121.8,134.7 122.2,137.8 122.5,138.4 122.7,139.9 122.8,141.2 123.0,143.8 123.1,139.0 123.4,138.0 123.7,136.9 124.0,134.7 124.2,133.1 124.3,131.9 124.6,132.3 124.9,134.8 125.2,132.1 125.5,130.5 125.9,131.1 126.1,129.1 126.4,128.4 126.6,128.4 126.9,127.1 127.1,126.7 127.3,125.4 127.5,125.2 127.7,123.8 127.8,123.5 128.1,124.0 128.4,122.4 128.7,124.1 129.0,125.0 129.4,127.1 129.8,125.5 130.1,125.3 130.6,126.8 131.1,126.8 131.6,127.6 132.1,127.8 132.6,127.3 133.2,125.8 133.5,129.3 134.0,128.3 134.4,129.9 134.8,130.2 135.1,130.9 135.5,133.6 135.9,130.8 136.4,130.4 136.8,128.2 137.2,128.2 137.7,129.3 138.2,128.0 138.8,129.2 139.4,131.1 140.0,131.5 140.7,130.6 141.2,132.9 141.6,132.9 142.0,133.6 142.6,133.3 142.9,133.6 143.4,132.0 144.0,133.4 144.6,132.4 145.3,131.8 145.9,132.3 146.3,134.7 146.9,134.1 147.3,133.6 147.8,134.0 148.2,136.2 148.5,135.7 148.8,132.3 149.0,134.6 149.3,135.6 149.6,135.5 149.8,133.9 150.1,132.4 150.4,131.2 150.8,131.5 151.0,129.4 151.2,127.6 151.4,127.3 151.6,124.5 151.7,121.6 151.8,121.0 151.9,118.2 151.9,119.0 152.1,119.0 152.2,118.0 152.3,115.5 152.5,117.1 152.6,116.8 152.7,118.9 152.8,125.1 152.8,127.1 152.8,127.9 152.9,129.3 153.0,126.7 153.0,124.0 153.1,125.8 153.3,126.5 153.4,126.5 153.7,128.0 153.8,131.0 154.0,130.5 154.2,129.5 154.4,126.7 154.7,125.7 155.1,125.0 155.4,123.5 155.8,123.0 156.2,125.8 156.5,127.9 157.0,125.8 157.4,125.3 157.8,125.2 158.4,127.2 158.8,125.1 159.4,125.4 160.0,127.3 160.6,127.1 161.1,126.8 161.4,129.3 161.8,129.9 162.1,130.9 162.5,131.5 162.8,132.6 163.1,133.0 163.4,134.5 163.7,134.2 164.2,133.5 164.6,136.4 165.0,134.2 165.4,134.4 165.7,133.9 166.2,134.0 166.8,133.8 167.2,134.0 167.8,133.3 168.2,132.3 168.7,133.5 169.2,134.4 169.7,134.8 170.2,135.3 170.6,135.9 170.9,138.7 171.0,138.1 171.3,138.3 171.6,137.9 172.1,138.8 172.4,138.0 172.9,137.7 173.4,140.3 173.7,141.0 174.1,140.3 174.7,140.3 175.1,139.5 175.6,140.9 176.0,137.3 176.4,138.8 176.8,138.2 177.2,137.2 177.7,138.9 178.0,142.0 178.2,141.8 178.4,143.3 178.6,145.0 178.8,144.8 179.1,143.2 179.4,144.2 179.7,144.0 179.9,143.5 180.3,144.3 180.7,143.3 181.1,143.6 181.7,143.4 182.2,143.8 182.8,143.8 183.4,142.8 183.9,142.7 184.4,141.7 185.1,142.2 185.6,140.5 186.3,141.4 186.9,140.6 187.7,142.1 188.3,142.3 188.8,141.9 189.2,141.7 189.6,144.3 190.0,143.9 190.6,141.4 191.2,141.4 191.4,135.0 191.5,135.2 191.7,134.0 191.9,131.3 192.0,130.3 192.3,133.4 192.5,131.5 192.9,133.8 193.3,132.8 193.7,132.9 193.8,132.4 193.9,130.1 194.0,127.9 194.0,125.3 194.1,126.6 194.3,125.6 194.4,126.5 194.5,126.1 194.7,125.7 194.8,124.7 195.0,124.9 195.2,126.4 195.5,124.7 195.7,124.8 196.0,125.3 196.4,127.0 196.8,123.6 197.0,123.2 197.2,124.2 197.5,123.5 197.7,120.8 197.8,120.8 197.9,121.9 198.2,120.7 198.4,121.3 198.8,122.2 199.1,122.4 199.4,125.2 199.5,125.0 199.7,127.3 199.8,126.0 200.0,129.1 200.2,130.6 200.4,127.7 200.6,131.1 201.0,129.7 201.3,132.0 201.6,130.5 201.9,131.2 202.3,131.1 202.6,132.1 203.0,131.5 203.3,133.6 203.7,132.2 204.1,132.7 204.5,132.7 204.9,132.0 205.3,133.9 205.5,134.4 205.8,134.4 206.3,133.3 206.7,134.8 207.1,133.8 207.5,135.3 207.8,137.5 207.9,136.2 208.2,136.1 208.6,137.2 208.9,139.1 209.2,139.6 209.4,141.3 209.6,141.7 209.9,140.0 210.4,141.1 210.5,147.0 210.5,147.1 210.7,146.2 210.9,144.9 211.2,146.3 211.5,147.1 211.7,145.9 212.0,146.1 212.3,143.8 212.7,145.0 213.0,144.4 213.4,144.1 213.8,143.5 214.1,145.0 214.4,144.0 215.0,143.1 215.4,142.6 215.8,143.4 216.2,145.3 216.4,141.5 216.6,143.6 216.8,144.0 217.2,144.4 217.5,143.9 217.8,140.8 217.9,140.2 218.1,141.7 218.3,142.0 218.5,142.6 218.7,142.4 219.0,143.7 219.3,140.1 219.7,141.4 220.0,141.2 220.4,142.4 220.6,142.0 220.8,142.5 221.3,141.8 221.7,142.0 222.1,143.7 222.6,142.0 223.1,139.8 223.4,140.1 223.7,137.6 223.9,138.6 224.3,138.4 224.6,138.0 224.9,141.5 225.3,139.3 225.7,138.7 226.0,137.2 226.4,135.9 226.7,136.0 227.1,136.4 227.5,136.1 227.9,137.3 228.3,136.7 228.8,137.1 229.2,135.4 229.5,135.6 230.0,135.0 230.3,133.8 230.7,135.0 231.1,134.0 231.3,134.0 231.6,132.7 231.8,131.9 231.9,133.4 232.0,131.1 232.2,128.2 232.3,128.2 232.4,128.2 232.6,127.9 232.7,128.5 232.9,126.8 233.0,127.8 233.3,130.3 233.5,127.8 233.7,126.0 233.9,122.7 233.9,120.2 234.0,122.2 234.2,123.8 234.4,122.6 234.6,122.6 234.8,125.3 235.0,124.9 235.4,124.8 235.7,124.4 236.0,121.5 236.2,121.2 236.4,122.3 236.6,121.3 236.9,122.4 237.2,121.2 237.5,122.6 237.9,121.2 238.1,121.5 238.5,121.9 238.9,122.6 239.2,121.6 239.5,122.5 239.8,123.1 240.1,123.9 240.3,123.4 240.6,124.5 240.7,125.1 240.9,123.7 241.3,123.8 241.5,122.3 242.0,121.9 242.4,122.2 242.8,123.3 243.0,126.6 243.4,125.1 243.8,123.4 244.1,124.5 244.5,123.0 244.9,122.3 245.2,125.7 245.6,124.8 246.1,124.3 246.5,124.7 246.9,125.6 247.4,125.1 247.8,127.4 248.3,126.9 248.5,129.2 248.8,127.7 249.1,124.8 249.4,124.7 249.8,125.7 250.2,125.1 250.6,125.0 250.9,127.4 251.2,130.0 251.4,132.4 251.6,132.0 251.9,131.4 252.1,133.1 252.4,133.9 252.8,133.2 253.0,135.2 253.1,136.2 253.3,136.4 253.6,137.4 253.8,134.5 254.0,133.6 254.3,133.0 254.7,133.8 255.0,133.4 255.4,133.8 255.7,133.4 256.0,132.4 256.4,132.8 256.7,133.1 257.1,132.9 257.5,131.8 257.8,131.8 258.1,132.1 258.4,129.6 258.5,127.4 258.7,125.7 258.9,126.5 259.2,126.8 259.4,128.8 259.5,135.3 259.5,134.6 259.6,132.7 259.8,132.7 259.9,137.0 260.0,139.0 260.0,139.3 260.2,139.5 260.3,139.1 260.4,138.8 260.6,141.3 260.8,141.5 260.9,141.9 261.1,142.6 261.1,146.2 261.1,146.3 261.2,143.2 261.4,143.2 261.6,145.2 261.7,148.4 261.8,146.8 262.0,146.6 262.2,146.0 262.4,147.9 262.5,148.7 262.7,148.0 262.8,144.2 263.0,142.5 263.2,144.5 263.5,145.7 263.7,145.7 264.0,147.0 264.3,147.6 264.6,147.6 264.9,148.1 265.2,148.2 265.5,150.2 265.7,148.0 266.0,148.7 266.2,149.5 266.4,150.8 266.7,150.1 267.0,145.5 267.3,145.8 267.7,145.7 268.1,147.5 268.6,148.5 269.0,149.2 269.2,150.1 269.6,149.9 270.1,150.8 270.5,151.0 270.8,152.5 271.0,152.6 271.3,152.8 271.6,151.8 271.9,152.2 272.2,149.9 272.6,149.9 272.9,148.5 273.4,148.9 273.9,149.2 274.3,149.3 274.8,151.1 275.1,153.6 275.3,158.2 275.4,155.0 275.6,155.1 275.9,156.1 276.1,156.9 276.4,155.5 276.9,154.1 277.4,155.0 277.7,156.4 278.1,155.7 278.5,156.1 279.0,155.4 279.4,154.3 279.9,155.4 280.4,154.7 280.7,153.8 281.1,153.3 281.3,150.7 281.7,152.4 282.1,153.7 282.5,153.4 282.9,152.6 283.4,152.5 283.7,151.0 284.1,149.6 284.4,151.0 284.8,152.0 285.2,151.9 285.7,151.5 286.1,150.8 286.5,151.9 286.8,152.6 287.0,154.1 287.2,153.9 287.4,149.6 287.5,148.2 287.7,148.6 288.0,151.3 288.3,152.3 288.6,152.9 289.0,152.7 289.3,152.9 289.8,153.3 290.1,151.4 290.5,150.8 290.9,148.2 291.1,145.9 291.2,142.7 291.2,136.7 291.3,138.8 291.4,139.0 291.6,141.2 291.9,139.3 292.1,141.5 292.4,141.4 292.6,142.8 292.9,142.5 293.2,142.4 293.5,143.7 293.8,142.4 294.2,142.3 294.6,142.2 294.9,142.4 295.4,144.0 295.8,143.6 296.3,142.0 296.7,142.2 297.1,141.9 297.6,142.3 298.1,142.9 298.6,142.5 299.0,143.1 299.4,142.7 299.7,144.0 300.1,144.6 300.3,146.6 300.6,148.1 300.9,149.6 301.2,150.5 301.5,151.4 301.8,152.5 302.0,155.6 302.3,155.9 302.5,153.6 302.8,151.6 303.2,152.6 303.7,152.1 304.1,150.2 304.6,150.2 305.0,152.1 305.5,152.5 306.0,154.0 306.4,152.4 306.9,154.6 307.3,153.4 307.7,155.7 308.1,155.7 308.3,157.3 308.5,160.2 308.6,160.3 308.8,159.2 309.0,160.3 309.2,161.5 309.4,160.3 309.7,159.9 310.0,159.4 310.4,159.4 310.9,159.9 311.2,157.4 311.6,158.3 312.0,156.8 312.3,155.5 312.7,156.6 313.0,155.7 313.5,153.7 313.7,153.0 314.1,154.7 314.4,155.4 314.7,157.2 314.9,157.4 315.0,160.7 315.2,159.0 315.4,158.2 315.6,161.8 315.7,164.3 315.9,162.9 316.1,159.8 316.3,158.9 316.6,159.9 316.9,161.7 317.1,161.6 317.4,161.0 317.8,163.1 318.1,162.7 318.4,164.2 318.5,163.9 318.7,161.8 319.1,161.9 319.5,161.0 319.8,159.9 320.2,159.7 320.7,160.4 321.2,159.2 321.6,158.7 322.0,157.0 322.4,158.6 322.9,159.3 323.3,158.4 323.8,157.3 324.2,157.2 324.6,155.4 325.1,153.8 325.4,154.9 325.8,155.6 326.1,155.7 326.4,155.0 326.7,155.0 327.2,154.4 327.6,154.7 328.1,154.9 328.6,155.3 329.1,156.1 329.6,155.8 330.1,157.8 330.5,153.9 330.7,152.7 331.0,154.8 331.4,153.3 332.0,154.9 332.5,155.7 333.0,155.0 333.4,151.6 333.9,153.3 334.4,154.5 334.9,155.7 335.3,156.3 335.8,157.4 336.1,155.8 336.7,156.5 337.1,155.2 337.5,153.2 338.0,156.8 338.5,155.3 339.1,154.8 339.5,154.6 340.1,154.6 340.6,154.6 341.1,154.2 341.6,152.0 342.0,152.2 342.2,151.3 342.4,152.2 342.6,153.2 342.9,153.8 343.2,154.7 343.6,155.0 343.7,159.8 343.8,160.3 343.8,161.0 343.9,160.2 344.0,161.1 344.2,164.1 344.2,167.7 344.3,168.2 344.3,167.6 344.4,171.8 344.4,173.9 344.4,173.5 344.4,173.9 344.5,171.9 344.6,172.6 344.7,169.4 344.8,170.7 344.9,172.7 345.0,172.8 345.2,170.8 345.3,172.3 345.5,170.2 345.8,171.5 346.0,172.6 346.2,173.8 346.4,173.4 346.7,172.7 347.0,175.0 347.2,174.7 347.4,175.1 347.7,173.5 348.0,176.2 348.3,176.8 348.5,177.0 348.6,178.2 348.8,180.2 348.9,178.9 349.0,182.7 349.0,182.9 349.1,181.7 349.3,178.6 349.5,180.6 349.7,180.2 350.0,177.5 350.3,177.3 350.5,180.1 350.5,184.1 350.6,185.8 350.6,187.4 350.6,191.6 350.6,200.6 350.6,208.0 350.6,198.6 350.6,197.6 350.6,198.4 350.6,198.3 350.7,201.6 350.7,211.5 350.7,211.5 350.7,208.4 350.7,207.4 350.7,209.7 350.7,204.4 350.7,204.6 350.8,204.0 350.8,203.6 350.8,203.4 350.9,205.0 350.9,208.4 350.9,211.6 350.9,217.2 350.9,222.1 350.9,228.7 350.9,235.2 350.9,227.7 350.9,233.4 350.9,230.8 351.0,244.8 351.0,250.9 351.0,246.4 351.0,244.5 351.0,241.9 351.0,239.8 351.0,245.2 351.0,252.4 351.0,267.2 351.0,269.5 351.0,264.9 351.0,281.7 351.0,282.2 351.0,289.0 351.0,292.8 351.0,293.5 351.0,288.9 351.0,307.1 351.0,301.3 351.0,303.1 351.0,299.8 351.0,308.3 351.0,314.5 351.0,321.3 351.0,321.0 351.0,326.0 351.0,338.0 351.0,344.5 351.0,359.5 351.0,349.6 351.0,361.1 351.0,376.9 351.1,382.2 351.1,386.3 351.1,389.0 351.1,400.5 351.1,404.4 351.1,410.8 351.1,411.3 351.1,423.6 351.1,433.5 351.1,437.9 351.1,440.8 351.1,436.6 351.1,436.8 351.1,435.5 351.1,433.0 351.1,422.2 351.1,409.7 351.1,407.6 351.1,402.0 351.1,397.5 351.1,392.8 351.1,380.9 351.1,380.5 351.1,372.3 351.1,365.1 351.2,360.0 351.2,364.2 351.2,361.4 351.2,360.7 351.2,364.1 351.2,375.0 351.2,373.1 351.2,370.8 351.2,363.6 351.2,361.8 351.2,358.3 351.2,359.7 351.2,358.2 351.2,355.7 351.2,351.4 351.2,350.9 351.2,351.2 351.2,348.9 351.2,348.2 351.3,341.9 351.3,343.4 351.3,339.2 351.3,338.5 351.3,337.7 351.3,339.8 351.3,340.5 351.3,346.2 351.3,340.5 351.3,335.6 351.3,336.3 351.3,336.2 351.3,332.9 351.3,334.0 351.3,330.0 351.3,317.2 351.3,323.2 351.3,324.3 351.4,323.6 351.4,316.5 351.4,320.6 351.4,320.0 351.4,323.0 351.4,318.6 351.4,316.9 351.4,319.0 351.4,326.0 351.4,329.0 351.4,325.6 351.4,328.0 351.5,322.9 351.5,319.4 351.5,313.2 351.5,308.1 351.5,299.8 351.5,301.8 351.5,296.2 351.5,294.3 351.5,289.5 351.5,288.1 351.5,286.9 351.5,276.3 351.5,280.6 351.5,281.9 351.5,281.2 351.5,278.8 351.5,272.2 351.6,265.9 351.6,259.1 351.6,251.1 351.6,243.6 351.6,246.9 351.6,248.1 351.6,256.3 351.6,251.8 351.6,261.7 351.6,269.6 351.6,274.3 351.6,280.8 351.6,281.9 351.6,276.7 351.6,275.0 351.6,273.8 351.7,265.0 351.7,263.7 351.7,261.7 351.7,261.8 351.7,261.3 351.7,258.8 351.7,259.7 351.7,261.2 351.7,260.7 351.7,264.7 351.7,265.0 351.7,263.7 351.7,266.5 351.7,263.2 351.7,258.8 351.7,261.8 351.8,260.3 351.8,258.4 351.8,259.2 351.8,256.6 351.8,259.0 351.8,255.3 351.8,258.4 351.8,257.3 351.8,262.4 351.8,263.5 351.8,260.6 351.8,257.6 351.8,260.1 351.8,269.8 351.8,265.6 351.9,268.4 351.9,267.9 351.9,266.3 351.9,266.1 351.9,262.4 351.9,264.1 351.9,267.7 351.9,269.1 351.9,271.5 351.9,274.6 351.9,274.2 351.9,275.0 351.9,275.9 351.9,281.0 351.9,283.0 351.9,283.5 351.9,290.9 351.9,284.6 351.9,278.0 352.0,278.7 352.0,277.3 352.0,277.4 352.0,277.9 352.0,273.1 352.0,272.5 352.0,273.6 352.0,273.9 352.0,270.6 352.0,269.0 352.0,267.3 352.0,266.1 352.0,263.5 352.0,267.0 352.0,264.6 352.0,267.6 352.0,267.0 352.0,265.3 352.0,265.5 352.0,268.6 352.1,266.8 352.1,263.7 352.1,266.1 352.1,266.0 352.1,262.6 352.1,265.5 352.1,266.7 352.1,264.0 352.1,265.9 352.1,265.9 352.1,266.4 352.1,263.6 352.2,264.4 352.2,266.4 352.2,267.3 352.2,268.6 352.2,270.7 352.2,274.8 352.2,274.1 352.2,272.0 352.2,270.6 352.2,271.7 352.2,274.2 352.2,275.1 352.3,276.0 352.3,277.5 352.3,276.4 352.3,278.8 352.3,278.4 352.3,276.4 352.3,278.1 352.3,279.0 352.3,277.5 352.3,275.7 352.3,282.5 352.4,282.3 352.4,281.3 352.4,279.8 352.4,279.2 352.4,279.2 352.4,280.8 352.4,281.2 352.4,279.5 352.4,283.4 352.5,287.1 352.5,287.2 352.5,290.1 352.5,292.5 352.5,292.7 352.5,289.7 352.5,288.6 352.5,284.6 352.5,283.3 352.5,282.1 352.5,284.4 352.6,281.7 352.6,281.4 352.6,281.6 352.6,279.7 352.6,280.1 352.6,281.0 352.6,278.8 352.6,280.1 352.7,278.6 352.7,278.2 352.7,278.5 352.7,277.8 352.7,277.7 352.7,278.7 352.7,277.6 352.7,276.5 352.7,277.1 352.7,273.2 352.7,275.1 352.7,270.3 352.7,268.0 352.7,268.5 352.7,268.3 352.7,265.8 352.7,263.2 352.8,262.9 352.8,265.5 352.8,265.2 352.8,263.2 352.8,263.2 352.8,263.2 352.8,262.8 352.8,259.9 352.9,262.7 352.9,262.7 352.9,262.3 352.9,263.7 352.9,264.1 352.9,264.0 352.9,263.7 352.9,262.4 352.9,262.1 353.0,261.5 353.0,260.2 353.0,260.9 353.0,262.8 353.0,265.0 353.0,266.1 353.1,265.5 353.1,265.8 353.1,262.9 353.1,262.6 353.2,264.3 353.2,264.7 353.2,264.0 353.2,266.0 353.3,262.6 353.3,261.4 353.3,259.7 353.3,255.4 353.4,252.1 353.4,253.1 353.4,251.6 353.4,250.3 353.5,249.9 353.5,247.2 353.5,247.9 353.5,248.7 353.6,245.8 353.6,245.4 353.6,246.2 353.6,245.9 353.7,241.0 353.7,242.8 353.7,240.3 353.7,240.9 353.8,241.1 353.8,240.9 353.8,241.9 353.9,246.2 353.9,247.5 354.0,249.6 354.0,251.9 354.0,252.3 354.1,252.2 354.1,252.1 354.1,251.8 354.2,251.9 354.2,249.9 354.2,246.7 354.2,245.5 354.3,243.6 354.3,241.0 354.4,240.3 354.4,241.3 354.4,243.3 354.4,247.4 354.5,251.3 354.5,254.0 354.5,258.4 354.5,254.5 354.5,253.4 354.6,252.8 354.6,252.2 354.7,253.0 354.7,246.4 354.7,248.6 354.8,251.0 354.8,248.0 354.9,249.3 355.0,247.4 355.0,244.2 355.1,242.2 355.1,240.3 355.1,242.9 355.2,242.8 355.3,247.1 355.3,245.5 355.4,245.1 355.5,245.6 355.6,245.2 355.6,248.1 355.7,248.5 355.7,250.5 355.8,250.6 355.8,250.1 355.9,250.3 356.0,249.0 356.1,248.9 356.1,253.4 356.2,251.3 356.2,251.7 356.3,253.9 356.4,252.4 356.5,249.6 356.5,245.4 356.6,244.8 356.6,245.1 356.7,242.4 356.7,240.8 356.8,239.8 356.9,237.8 356.9,236.0 357.0,234.9 357.0,234.0 357.1,235.5 357.2,233.0 357.3,232.3 357.3,232.0 357.4,233.6 357.5,234.3 357.6,236.4 357.7,240.8 357.8,243.4 357.8,244.0 357.9,244.9 358.0,246.7 358.1,246.2 358.2,246.7 358.2,248.3 358.3,248.3 358.4,248.7 358.6,245.8 358.7,244.8 358.8,244.1 358.9,244.0 359.0,243.9 359.1,242.4 359.2,240.9 359.3,240.9 359.4,242.7 359.5,243.8 359.6,243.2 359.7,242.0 359.8,239.3 359.9,238.5 360.0,240.2 360.2,239.6 360.3,242.0 360.4,243.1 360.5,245.5 360.5,246.0 360.6,245.2 360.7,247.1 360.8,244.1 361.0,243.4 361.1,242.3 361.2,244.1 361.4,242.4 361.5,239.9 361.6,239.0 361.8,239.1 361.9,239.7 362.1,242.8 362.2,244.0 362.4,244.2 362.5,240.8 362.6,240.1 362.8,241.9 362.9,242.7 363.1,242.3 363.2,242.0 363.4,241.9 363.5,241.6 363.6,241.2 363.7,236.5 363.8,234.1 363.8,233.7 364.0,236.5 364.1,232.5 364.3,231.3 364.4,230.6 364.5,229.7 364.6,227.2 364.7,226.9 364.8,230.0 364.9,229.3 365.1,228.3 365.2,231.4 365.3,230.9 365.5,233.9 365.6,233.8 365.8,233.1 365.9,231.8 366.1,231.7 366.2,230.3 366.4,233.2 366.5,234.3 366.7,233.6 366.9,233.8 367.1,236.5 367.2,237.8 367.4,234.7 367.5,235.2 367.7,234.9 367.9,234.5 368.0,235.5 368.2,235.3 368.4,235.5 368.6,238.5 368.7,239.6 368.9,241.6 369.0,242.3 369.2,241.9 369.3,243.5 369.5,243.3 369.6,243.8 369.7,246.5 369.9,244.2 370.0,241.4 370.2,241.5 370.3,240.3 370.5,242.4 370.7,244.2 370.9,242.9 371.1,243.4 371.3,242.2 371.5,239.2 371.7,240.7 371.9,238.8 372.1,241.1 372.3,241.3 372.4,239.7 372.6,239.9 372.8,239.1 373.0,240.0 373.2,241.7 373.3,243.9 373.5,243.0 373.7,240.6 373.9,239.2 374.1,239.8 374.3,239.1 374.5,240.6 374.7,240.4 374.9,239.9 375.1,240.7 375.3,240.7 375.5,241.0 375.8,241.4 376.0,242.1 376.2,243.9 376.3,247.1 376.4,250.0 376.5,248.5 376.6,251.3 376.8,251.5 377.0,251.4 377.0,255.2 377.2,252.3 377.3,253.0 377.5,253.4 377.7,256.0 377.8,256.7 377.9,258.8 378.0,255.0 378.2,258.0 378.3,259.2 378.4,263.6 378.5,262.9 378.6,259.6 378.7,257.8 378.8,253.4 379.0,256.1 379.2,253.0 379.5,253.5 379.7,253.4 380.1,252.8 380.3,252.9 380.6,252.1 380.9,253.1 381.3,252.6 381.8,253.0 382.1,252.8 382.4,253.4 382.6,253.9 382.9,257.6 383.1,254.9 383.4,256.5 383.6,254.8 383.9,256.1 384.1,258.2 384.4,255.9 384.6,254.9 384.9,257.6 385.2,258.6 385.4,252.1 385.6,254.2 385.8,252.3 386.0,250.5 386.3,252.1 386.6,248.4 386.8,247.5 387.1,247.1 387.4,247.1 387.8,246.6 388.1,244.8 388.5,243.6 388.8,244.3 389.2,242.5 389.6,242.6 390.0,243.1 390.4,244.4 390.9,244.6 391.4,243.6 391.8,245.2 392.1,247.3 392.5,246.5 392.8,247.6 393.2,245.4 393.4,244.2 393.8,245.5 394.3,246.2 394.6,244.2 395.1,245.0 395.6,246.0 395.9,244.0 396.3,243.9 396.7,243.9 397.1,244.6 397.3,247.5 397.6,248.6 397.9,247.1 398.2,246.6 398.6,246.1 398.7,241.9 398.8,238.7 398.8,237.1 398.8,237.2 398.9,234.7 398.9,233.5 398.9,232.2 399.0,235.7 399.0,235.6 399.1,232.3 399.1,229.7 399.2,230.2 399.2,230.9 399.3,231.1 399.4,226.5 399.4,227.5 399.5,228.5 399.6,230.5 399.7,233.7 399.8,231.0 399.9,230.2 400.0,227.4 400.1,226.2 400.2,223.9 400.3,220.9 400.3,222.2 400.4,224.4 400.5,225.3 400.6,224.6 400.8,223.8 400.9,226.4 401.0,221.4 401.0,219.3 401.1,223.3 401.2,222.9 401.3,223.8 401.5,221.1 401.7,220.0 401.9,221.1 402.0,221.3 402.3,221.1 402.5,220.6 402.8,220.7 403.1,220.7 403.3,223.8 403.6,222.6 403.9,219.3 404.0,218.3 404.3,217.3 404.5,216.8 404.7,216.8 404.9,216.3 405.1,217.2 405.3,215.4 405.5,214.8 405.7,213.3 405.8,213.3 405.9,216.7 406.1,217.3 406.3,215.6 406.4,218.6 406.6,223.1 406.8,219.0 407.0,218.1 407.2,218.5 407.3,216.9 407.6,218.2 407.9,216.9 408.2,217.2 408.4,217.7 408.7,217.0 409.0,217.5 409.4,217.8 409.6,216.7 409.8,213.6 409.9,216.1 410.1,218.3 410.4,216.0 410.5,216.6 410.7,217.3 410.9,215.9 411.2,215.1 411.6,214.3 411.7,215.0 412.0,212.4 412.3,211.9 412.6,211.4 412.8,209.9 413.0,208.9 413.2,210.7 413.5,212.6 413.8,214.3 414.1,214.3 414.4,215.9 414.7,214.1 415.1,212.0 415.4,212.4 415.8,214.6 416.3,215.8 416.4,215.6 416.8,213.9 416.9,210.2 417.2,211.0 417.4,209.0 417.6,205.8 417.8,206.7 418.0,205.2 418.2,203.0 418.3,207.6 418.6,207.3 418.8,207.0 419.1,205.0 419.3,201.9 419.5,202.9 419.7,201.9 419.9,204.3 420.1,204.9 420.4,204.8 420.9,204.1 421.1,206.2 421.4,207.6 421.7,207.3 422.0,207.2 422.1,207.6 422.1,213.4 422.3,210.8 422.5,213.4 422.6,216.5 422.6,217.7 422.6,214.3 422.8,211.9 423.1,212.0 423.3,213.7 423.5,210.4 423.7,212.0 423.9,208.6 424.1,209.3 424.3,210.9 424.6,211.7 424.8,212.5 424.9,206.8 424.9,204.5 425.0,203.1 425.0,209.2 425.0,209.1 425.1,207.8 425.2,206.2 425.3,207.3 425.3,204.1 425.5,203.3 425.6,206.4 425.8,206.7 425.9,211.4 426.0,211.0 426.1,208.9 426.3,210.6 426.5,214.6 426.7,212.3 426.9,210.1 427.1,209.1 427.4,208.6 427.6,208.0 427.9,206.7 428.2,209.4 428.3,208.7 428.5,209.6 428.8,207.4 429.1,204.8 429.3,207.7 429.6,206.9 430.0,207.0 430.1,203.6 430.3,205.1 430.6,203.3 430.8,204.3 431.1,205.7 431.5,202.8 431.7,203.8 432.1,201.8 432.4,203.4 432.8,203.4 433.2,201.4 433.4,198.0 433.6,199.5 433.8,199.2 434.3,199.3 434.8,199.3 435.3,199.7 435.9,200.4 436.4,199.4 436.9,201.2 437.3,201.0 437.6,199.9 438.0,202.8 438.3,204.4 438.9,203.8 439.3,205.4 439.6,206.6 439.8,206.7 440.1,208.1 440.4,207.3 440.6,210.1 440.8,209.2 441.0,209.5 441.3,208.3 441.6,207.2 441.8,209.1 442.1,208.2 442.3,211.5 442.5,213.2 442.6,215.2 442.8,212.4 443.0,211.5 443.3,215.1 443.4,217.9 443.5,219.6 443.8,217.6 444.0,216.6 444.3,220.6 444.5,221.4 444.5,224.6 444.7,223.6 444.7,225.5 444.8,229.2 444.8,228.1 444.9,226.2 445.0,225.3 445.2,227.5 445.4,222.9 445.6,225.7 445.8,227.8 446.0,228.6 446.2,228.1 446.3,228.6 446.5,228.5 446.8,225.2 447.0,224.0 447.4,225.5 447.7,225.2 448.1,225.5 448.4,228.2 448.7,229.3 448.8,232.5 449.0,232.2 449.1,234.5 449.2,231.8 449.4,232.8 449.6,229.7 449.8,229.1 450.1,227.7 450.4,227.7 450.8,228.5 451.0,230.2 451.2,231.8 451.4,231.7 451.7,233.4 451.9,233.0 452.2,233.5 452.4,233.2 452.5,230.6 452.6,234.7 452.7,232.7 452.8,229.3 452.9,228.9 453.0,230.2 453.2,230.3 453.3,230.1 453.4,224.8 453.5,226.1 453.7,229.6 453.9,226.8 454.0,224.2 454.2,227.0 454.4,226.2 454.5,228.8 454.8,226.6 455.0,223.6 455.1,221.6 455.2,218.9 455.4,218.4 455.5,220.3 455.7,216.9 455.8,213.4 455.8,215.0 456.0,215.1 456.2,217.6 456.4,214.7 456.5,219.8 456.6,220.0 456.7,215.9 456.9,215.8 457.2,217.2 457.4,216.9 457.8,216.9 458.0,214.6 458.3,215.1 458.6,215.9 458.8,215.4 459.2,213.8 459.4,214.0 459.6,219.3 459.6,218.9 459.7,218.0 459.9,218.9 460.0,217.8 460.2,220.7 460.4,219.2 460.8,218.8 461.1,218.8 461.5,220.4 461.8,218.7 462.2,218.8 462.5,216.9 462.9,217.6 463.2,219.4 463.6,216.3 464.0,216.6 464.4,215.7 464.7,217.6 465.0,219.4 465.2,220.7 465.5,217.7 465.8,219.7 466.1,219.0 466.5,220.4 466.8,218.4 467.2,217.0 467.4,214.6 467.7,216.1 468.1,217.3 468.4,220.1 468.8,220.2 469.2,220.9 469.7,220.2 470.3,218.0 470.7,216.4 471.2,216.5 471.8,217.9 472.3,215.0 472.6,215.0 473.1,215.7 473.7,215.3 474.1,213.7 474.3,212.2 474.4,209.8 474.5,210.4 474.8,212.9 475.1,214.6 475.4,216.4 475.8,216.3 476.2,217.4 476.6,218.9 477.1,219.3 477.5,220.4 477.7,221.1 478.2,220.3 478.6,220.9 479.0,223.1 479.3,222.6 479.7,223.3 480.1,223.7 480.3,223.2 480.5,227.1 480.5,225.7 480.7,222.1 480.9,220.3 481.2,220.8 481.5,224.8 481.7,227.4 481.9,228.6 482.1,227.5 482.4,226.9 482.6,228.6 482.8,231.8 482.9,230.6 483.1,232.0 483.3,232.5 483.6,230.3 483.8,231.0 484.1,230.5 484.3,232.5 484.4,235.2 484.6,233.2 484.8,233.0 485.1,230.8 485.4,231.8 485.7,230.7 486.0,230.8 486.4,229.0 486.7,231.4 487.1,231.1 487.5,232.5 487.7,232.6 488.1,232.1 488.2,235.6 488.4,233.9 488.7,234.8 488.9,236.3 489.1,236.2 489.4,233.4 489.7,236.4 490.0,234.9 490.4,233.9 490.8,234.5 491.4,233.8 491.9,232.9 492.5,233.6 492.8,233.2 493.3,233.8 493.8,232.6 494.4,231.2 494.8,231.1 495.5,231.3 496.1,229.7 496.8,231.9 497.6,232.3 498.1,233.4 498.6,231.9 499.1,233.4 499.6,232.1 500.1,229.5 500.5,230.2 500.9,232.1 501.5,232.6 502.0,232.7 502.6,233.4 503.1,232.9 503.2,241.7 503.2,240.7 503.3,239.1 503.4,231.4 503.5,231.7 503.6,231.1 503.8,230.0 504.0,228.4 504.2,228.1 504.6,227.0 505.0,227.4 505.5,229.7 506.0,227.0 506.2,226.7 506.6,227.4 507.0,226.0 507.5,227.5 507.8,227.7 508.1,230.5 508.3,231.5 508.5,233.7 508.7,234.4 508.8,234.0 509.0,233.0 509.2,229.9 509.5,232.7 509.7,232.4 510.0,235.9 510.2,236.2 510.3,237.7 510.4,239.0 510.5,240.6 510.6,242.5 510.7,243.5 510.7,241.3 510.9,240.0 511.0,243.2 511.2,242.7 511.3,241.6 511.5,241.3 511.7,237.5 511.9,238.9 512.1,238.8 512.2,237.0 512.4,239.0 512.6,240.5 512.9,240.7 513.1,243.7 513.4,243.3 513.7,241.6 513.9,242.3 514.2,242.6 514.4,245.2 514.6,245.7 514.8,248.2 515.0,247.2 515.2,246.3 515.5,246.7 515.8,248.7 515.9,249.6 516.2,248.6 516.5,249.7 517.0,246.9 517.4,246.0 517.9,246.8 518.4,247.7 518.9,247.3 519.3,245.5 519.8,245.6 520.2,244.2 520.5,243.1 521.0,242.9 521.2,241.6 521.7,243.3 522.2,243.0 522.7,245.4 523.3,243.0 523.8,242.9 524.6,242.3 525.4,244.3 525.9,245.8 526.4,246.3 526.9,246.1 527.2,249.7 527.4,250.8 527.4,254.4 527.5,254.2 527.7,256.5 527.7,256.6 527.9,256.5 528.0,258.1 528.0,260.6 528.1,261.2 528.2,261.0 528.3,260.8 528.5,261.8 528.5,262.6 528.7,263.2 528.8,261.5 529.0,264.4 529.1,266.1 529.2,265.0 529.3,266.5 529.4,266.7 529.5,268.3 529.6,266.8 529.7,266.5 529.9,269.0 530.1,269.7 530.3,269.5 530.4,267.9 530.7,267.3 530.9,263.8 531.1,264.7 531.4,267.1 531.6,269.4 531.7,270.4 531.8,271.2 531.9,271.2 532.2,270.4 532.4,268.7 532.6,266.2 532.7,261.5 532.8,259.7 532.9,260.4 533.1,260.2 533.3,260.6 533.6,260.3 533.8,259.3 534.1,260.1 534.5,259.1 534.9,259.9 535.2,259.5 535.4,258.9 535.5,259.2 535.7,263.3 535.8,256.7 536.0,258.1 536.2,258.7 536.5,261.4 536.6,263.9 536.8,260.0 537.0,260.9 537.2,260.2 537.4,260.9 537.7,259.8 537.9,259.2 538.2,256.3 538.3,251.9 538.4,253.6 538.6,253.1 538.9,256.5 539.2,255.5 539.5,254.9 539.9,256.7 540.3,256.6 540.7,255.7 541.1,254.4 541.6,255.7 542.2,257.0 542.7,257.3 543.3,253.9 543.9,253.9 544.3,251.9 545.1,251.9 545.7,253.3 546.5,255.1 547.2,255.9 547.8,255.1 548.4,254.4 549.0,252.9 549.6,251.4 550.1,252.1 550.7,253.5 551.3,252.0 552.1,253.5 552.8,254.9 553.5,254.9 554.3,253.6 554.9,254.1 555.5,251.0 555.7,250.1 556.2,252.0 556.6,252.5 557.2,251.9 557.9,252.2 558.6,250.7 559.2,250.9 559.8,250.1 560.5,250.5 561.2,249.7 561.6,248.4 562.3,250.1 562.8,252.9 563.3,253.1 563.7,254.1 564.3,251.3 565.0,252.2 565.7,252.2 566.3,254.8 566.9,254.0 567.5,251.4 568.1,249.5 568.8,249.9 569.6,250.9 570.5,250.1 571.3,249.4 572.1,251.0 573.4,250.4 574.7,251.4 575.6,252.4 576.3,254.0 577.3,253.0 578.6,253.8 579.4,250.5 580.2,252.0 581.2,250.3 582.2,253.2 583.1,253.9 584.0,254.1 584.6,249.7 584.7,254.4 585.1,254.9 585.5,255.8 586.0,256.3 586.3,252.2 586.4,248.7 586.6,249.9 587.0,249.2 587.1,245.2 587.3,245.9 587.7,245.8 587.9,243.6 588.1,244.6 588.6,247.4 589.0,247.5 589.6,247.5 590.1,247.0 590.6,244.7 590.9,242.3 591.1,240.3 591.2,243.0 591.5,241.0 591.7,239.1 592.0,239.6 592.4,238.4 592.8,238.9 593.1,238.2 593.4,237.0 593.8,239.5 594.3,237.0 594.6,238.3 594.8,235.5 595.2,237.6 595.7,238.8 596.3,237.4 596.9,237.5 597.5,238.8 598.3,238.4 599.1,236.9 599.7,239.3 600.4,238.7 601.3,237.7 601.9,240.3 602.4,241.8 602.8,242.3 603.1,246.0 603.2,247.6 603.5,245.4 603.9,245.0 604.3,243.8 605.0,245.7 605.4,244.3 605.8,242.8 606.5,242.2 607.0,241.5 607.1,235.5 607.3,235.3 607.5,235.7 607.9,235.9 608.3,235.3 608.8,235.0 609.3,234.6 609.6,233.3 609.8,231.8 610.0,231.4 610.3,229.7 610.6,229.5 610.9,231.1 611.4,232.2 611.9,232.8 612.3,233.7 612.7,231.9 613.1,232.7 613.7,232.5 614.2,231.7 614.7,231.0 615.1,232.6 615.5,233.2 615.7,234.8 616.3,234.2 616.9,233.2 617.4,233.7 617.9,235.2 618.4,233.6 618.7,233.2 619.1,235.5 619.6,233.5 620.1,232.0 620.7,233.1 621.1,236.1 621.1,238.0 621.3,235.4 621.6,237.2 621.9,238.2 622.2,237.3 622.6,237.6 623.1,238.5 623.5,236.7 624.1,235.8 624.6,236.1 625.3,234.4 625.7,233.9 626.0,233.9 626.8,233.1 627.2,234.2 628.0,235.1 628.7,233.9 629.6,234.9 630.4,236.7 630.8,236.6 631.5,237.7 632.1,237.0 632.6,238.5 633.1,240.2 633.6,240.4 634.1,241.1 634.7,242.6 634.9,245.1 635.1,245.4 635.3,245.2 635.6,247.0 635.9,248.0 636.2,247.6 636.6,247.4 637.1,247.5 637.6,245.9 638.0,246.7 638.5,246.6 639.0,246.2 639.6,247.6 640.2,248.6 640.7,248.4 641.4,247.8 642.0,246.7 642.6,245.8 643.0,245.8 643.6,245.5 644.3,245.7 644.6,243.1 645.0,242.4 645.4,245.3 645.7,243.5 646.1,244.3 646.4,244.6 646.6,238.9 646.7,237.0 646.9,238.0 647.1,237.2 647.4,234.3 647.5,230.2 647.5,230.4 647.6,229.9 647.7,228.1 647.9,228.2 648.0,224.7 648.1,224.7 648.3,228.3 648.5,225.9 648.7,225.8 648.9,225.6 649.2,225.6 649.5,226.9 649.8,230.4 649.8,231.5 650.0,230.3 650.2,233.8 650.4,231.5 650.7,230.8 651.1,231.8 651.5,232.7 652.0,233.5 652.6,233.5 653.3,232.4 653.6,236.3 653.9,237.1 654.4,237.0 654.8,239.5 654.9,239.5 655.3,237.4 655.8,238.5 656.2,243.2 656.3,242.3 656.5,241.7 656.9,242.8 657.3,245.0 657.5,247.7 657.8,246.6 658.1,244.6 658.5,246.6 658.7,247.8 659.1,246.9 659.4,247.6 660.0,247.5 660.5,245.7 661.1,247.0 661.7,248.4 662.3,247.8 662.8,246.4 663.6,246.2 664.0,248.6 664.2,250.4 664.6,249.9 665.3,249.7 666.0,251.1 666.4,250.6 667.0,249.8 667.6,250.4 668.4,251.0 669.0,252.1 669.4,252.8 669.8,252.7 670.5,253.1 670.6,255.6 670.8,251.8 670.9,249.5 671.4,251.0 671.9,250.5 672.4,248.5 672.9,249.6 673.4,249.7 673.7,250.1 674.0,247.2 674.3,249.9 674.5,252.2 674.6,252.2 674.9,253.5 675.1,249.0 675.3,249.4 675.6,252.4 675.9,250.3 676.3,250.6 676.7,253.1 676.9,253.0 677.2,250.1 677.6,250.7 678.2,252.0 678.6,254.1 678.9,255.6 679.2,254.4 679.5,254.9 679.8,253.7 680.3,253.1 680.8,256.4 681.0,254.9 681.5,257.7 682.0,257.7 682.1,258.5 682.3,262.2 682.3,262.5 682.4,261.6 682.6,261.5 682.9,261.4 683.3,260.2 683.7,261.1 684.1,260.3 684.5,259.0 685.0,256.6 685.6,256.5 686.1,255.6 686.7,255.5 687.1,255.6 687.8,255.4 688.7,255.1 689.4,253.9 690.2,254.8 690.9,252.5 691.5,252.7 692.3,252.4 692.7,249.7 692.9,248.6 693.3,247.8 693.6,248.4 694.0,249.6 694.6,248.4 695.0,246.8 695.6,247.2 696.2,248.6 696.8,248.0 697.4,247.0 697.9,248.1 698.5,248.9 699.1,249.9 699.4,251.7 699.9,250.1 700.4,249.3 700.8,248.6 701.1,246.2 701.4,248.0 701.8,248.8 702.1,248.5 702.5,247.9 702.9,246.8 703.1,247.7 703.4,245.8 703.8,246.2 704.3,246.6 704.9,245.3 705.1,244.5 705.3,245.5 705.7,242.8 706.0,241.0 706.2,241.9 706.6,243.1 707.1,245.1 707.6,245.1 708.3,245.1 708.8,246.0 709.6,246.4 709.9,248.3 710.6,248.2 711.4,248.0 712.0,247.8 712.9,246.8 713.5,245.7 714.0,245.3 714.5,245.8 715.3,246.1 716.0,247.7 716.7,247.3 717.6,248.0 718.2,244.8 718.5,243.0 718.9,242.1 719.3,241.7 719.9,241.3 720.3,241.5 720.7,241.0 721.2,240.7 721.7,241.8 722.2,243.3 722.6,243.6 723.2,241.4 723.8,241.5 724.6,242.7 725.4,243.7 726.2,244.6 726.8,242.6 727.3,242.4 727.5,236.7 727.5,237.5 727.5,237.7 727.6,239.5 727.8,239.8 728.0,240.4 728.4,240.5 728.8,241.6 729.0,244.0 729.3,241.7 729.6,244.9 729.8,245.5 730.1,244.8 730.5,245.8 730.9,243.4 731.5,245.9 731.9,244.6 732.5,245.2 733.1,242.8 733.7,243.7 734.4,243.3 734.9,242.5 735.4,240.3 736.1,240.1 736.7,239.6 737.3,239.0 737.8,239.0 738.5,238.8 739.3,238.8 740.0,239.3 740.7,239.6 741.3,240.4 741.9,239.8 742.6,239.0 743.5,239.0 744.4,240.5 745.4,240.2 746.3,239.1 747.3,240.1 748.2,241.3 749.1,241.1 749.9,242.0 751.0,240.9 751.7,241.8 752.4,243.4 753.1,242.2 753.9,241.0 754.7,240.4 755.4,239.2 756.0,240.9 756.7,241.4 757.4,241.7 758.2,241.6 759.1,241.0 760.1,241.2 760.9,240.0 762.0,238.5 762.7,239.0 763.7,238.5 764.7,238.7 765.9,240.5 767.0,239.4 768.2,240.4 768.7,240.5 769.4,240.4 770.3,241.0 770.9,242.4 771.7,243.2 772.5,243.2 773.1,243.3 773.8,242.4 774.5,242.4 775.4,241.5 776.4,240.6 777.3,239.5 777.8,238.8 778.6,238.8 779.1,236.4 779.3,236.3 779.6,235.8 780.0,236.6 780.7,236.6 781.3,235.7 781.7,234.1 781.8,231.3 782.0,231.2 782.2,230.0 782.4,229.2 782.7,229.6 783.0,229.9 783.4,229.1 783.8,227.9 784.1,227.3 784.3,228.5 784.8,228.9 785.3,229.6 786.0,229.4 786.6,227.5 787.1,230.0 787.8,230.3 788.7,229.4 789.6,229.3 790.4,230.6 791.2,230.8 791.8,232.7 792.7,231.3 793.6,229.8 793.7,224.9 793.7,225.5 793.8,225.2 794.1,227.3 794.5,224.9 794.9,224.5 795.4,225.0 795.9,226.1 796.3,224.2 796.7,223.1 797.1,223.9 797.7,223.3 798.0,221.6 798.4,220.7 798.7,219.9 799.0,222.1 799.5,221.8 799.9,223.7 800.4,224.6 800.9,225.2 801.4,224.7 801.9,223.9 802.2,221.6 802.6,223.4 803.0,225.6 803.4,223.9 803.9,223.6 804.3,225.2 804.7,226.7 805.0,227.3 805.5,226.4 805.7,227.7 806.1,226.2 806.4,228.7 806.7,227.7 807.1,228.1 807.5,229.9 807.9,228.3 808.4,228.4 808.8,228.1 809.0,229.7 809.4,227.6 809.8,228.4 810.2,229.0 810.6,230.3 811.0,229.5 811.3,229.8 811.6,231.7 811.7,232.8 811.9,229.6 812.3,232.8 812.6,232.2 813.0,231.8 813.3,230.5 813.6,230.6 814.1,229.9 814.5,228.0 814.9,227.9 815.3,226.4 815.6,225.8 816.0,226.1 816.5,225.7 817.1,226.3 817.8,226.6 818.4,228.7 818.9,229.6 819.2,231.0 819.7,231.9 820.1,232.7 820.6,233.9 821.0,232.1 821.5,231.7 822.1,234.0 822.5,234.3 823.0,233.5 823.6,234.3 824.1,232.8 824.6,233.9 825.2,233.0 825.9,232.0 826.4,233.7 826.8,234.7 827.3,235.8 827.8,235.3 828.3,234.8 829.1,234.0 829.7,233.6 830.1,235.6 830.3,237.6 830.6,238.2 830.9,238.5 831.2,237.8 831.5,233.3 831.8,233.0 832.2,234.4 832.7,235.9 833.2,234.5 833.8,234.1 834.3,235.5 834.9,235.0 835.2,235.2 835.7,234.9 836.2,234.8 836.6,234.3 837.1,236.0 837.7,236.4 838.2,235.1 838.6,232.3 838.9,232.0 839.1,232.2 839.4,231.4 839.7,231.0 839.9,231.3 840.2,231.6 840.4,233.5 840.5,237.3 840.6,238.1 840.7,235.5 841.0,234.0 841.2,234.1 841.5,236.5 841.9,235.3 842.4,235.7 842.7,233.9 843.0,232.0 843.4,232.5 843.9,232.4 844.3,233.3 844.9,233.9 845.5,235.0 845.8,237.7 846.0,238.4 846.3,239.3 846.5,240.6 846.7,243.4 846.8,243.8 846.9,246.7 847.0,246.6 847.0,246.4 847.2,247.9 847.3,245.1 847.6,246.9 847.8,246.7 847.9,248.3 848.0,247.0 848.3,247.4 848.6,244.5 848.9,245.5 849.3,245.5 849.7,244.0 850.1,244.5 850.5,245.5 851.0,244.9 851.3,246.2 851.8,245.3 852.3,246.4 852.8,246.6 853.2,245.7 853.6,246.0 854.5,245.5 855.2,247.5 855.9,246.8 856.5,246.4 857.1,246.5 857.6,245.2 858.2,245.0 859.0,245.7 859.8,245.1 860.4,245.4 861.2,247.2 861.8,248.0 862.4,246.8 863.0,245.3 863.3,243.5 863.7,244.3 864.2,243.8 864.6,243.2 865.1,242.6 865.6,241.9 866.1,242.2 866.5,240.5 866.8,242.0 867.0,243.1 867.3,244.5 867.6,244.9 868.0,245.0 868.4,244.7 868.8,245.3 869.1,248.0 869.4,248.6 869.7,248.8 869.9,248.0 870.2,246.3 870.7,247.5 871.2,246.5 871.5,241.5 871.7,241.5 871.9,241.1 872.0,242.3 872.2,242.6 872.5,241.0 872.6,242.9 872.6,245.2 872.6,244.9 872.6,250.3 872.6,255.4 872.6,251.9 872.7,253.8 872.7,253.1 872.7,248.9 872.8,248.8 872.9,245.5 872.9,243.5 873.0,244.2 873.2,243.4 873.3,240.2 873.4,241.0 873.7,243.4 873.9,243.8 874.2,242.5 874.3,244.3 874.6,241.7 874.8,240.1 875.3,240.5 875.7,241.4 876.3,240.6 876.8,242.0 877.4,243.3 877.9,245.2 878.4,247.9 878.7,248.3 879.0,249.8 879.3,247.3 879.6,247.7 880.1,246.8 880.6,247.1 881.1,246.7 881.7,244.3 882.3,245.0 883.0,245.4 883.5,247.9 883.7,251.5 883.8,251.8 883.9,256.3 884.0,256.1 884.0,255.5 884.1,251.1 884.3,252.3 884.5,254.6 884.8,254.0 885.1,254.4 885.4,249.4 885.7,248.0 886.0,250.0 886.5,247.6 886.8,246.8 887.2,244.0 887.6,245.3 888.0,245.2 888.3,247.6 888.8,247.0 889.4,249.7 889.8,249.9 890.2,250.8 890.6,252.0 891.1,252.1 891.5,251.6 891.8,253.1 892.3,252.8 892.7,253.6 892.9,256.0 893.1,257.8 893.2,257.7 893.4,259.2 893.4,261.2 893.6,260.4 893.7,259.9 894.0,258.0 894.2,259.6 894.4,260.7 894.5,264.4 894.5,264.1 894.7,261.0 894.8,263.6 895.0,262.6 895.2,262.4 895.4,263.2 895.5,264.0 895.7,262.0 896.0,263.4 896.2,265.2 896.4,266.6 896.6,266.0 896.8,267.7 897.0,267.8 897.2,268.3 897.3,266.1 897.6,266.5 897.9,266.3 898.3,266.4 898.5,268.5 898.8,270.1 898.9,271.8 899.1,272.0 899.3,268.2 899.6,268.0 899.9,270.4 900.2,272.0 900.5,271.7 900.7,272.0 901.0,273.0 901.3,273.9 901.5,274.1 901.7,274.4 901.8,275.3 902.1,273.5 902.4,273.9 902.6,273.4 903.0,271.8 903.3,271.2 903.8,270.5 904.1,270.2 904.5,269.9 905.1,270.4 905.5,270.5 906.0,268.9 906.4,268.8 906.7,268.0 907.0,267.9 907.4,266.0 907.6,264.7 907.9,264.0 908.2,264.3 908.7,263.6 908.9,265.6 909.4,264.7 909.8,265.7 910.2,263.7 910.8,264.1 911.2,262.0 911.5,261.9 911.9,261.3 912.4,261.5 912.9,262.6 913.5,263.3 914.1,263.7 914.6,262.9 915.0,261.9 915.6,263.4 916.0,263.5 916.5,262.1 916.9,262.0 917.4,262.5 917.9,263.3 918.4,264.6 918.8,263.4 919.4,264.4 920.0,261.6 920.3,259.9 920.6,259.1 921.0,261.0 921.5,262.6 921.9,263.0 922.3,262.1 922.6,262.5 922.9,262.7 923.4,261.7 923.7,260.3 924.0,259.2 924.3,261.1 924.5,261.6 924.8,263.2 925.3,264.2 925.7,265.1 925.9,267.9 926.1,268.1 926.4,269.5 926.6,267.9 927.0,267.9 927.4,267.2 927.8,268.5 928.2,267.2 928.7,266.0 929.0,264.4 929.4,263.3 929.9,263.5 930.5,265.4 931.1,265.2 931.8,264.8 932.4,264.1 933.2,264.6 934.0,264.5" fill="none" stroke="#d97706" stroke-width="1.2" stroke-linejoin="round" opacity="0.6"/><text x="942" y="472.0" text-anchor="start" font-size="11" fill="#d97706">0.22</text><text x="942" y="396.0" text-anchor="start" font-size="11" fill="#d97706">0.37</text><text x="942" y="320.0" text-anchor="start" font-size="11" fill="#d97706">0.51</text><text x="942" y="244.0" text-anchor="start" font-size="11" fill="#d97706">0.65</text><text x="942" y="168.0" text-anchor="start" font-size="11" fill="#d97706">0.80</text><text x="942" y="92.0" text-anchor="start" font-size="11" fill="#d97706">0.94</text><text x="942" y="80.0" text-anchor="start" font-size="11" font-weight="600" fill="#d97706">price</text>
  <polygon points="152.5,468.0 152.5,125.0 152.5,124.3 152.8,124.6 348.8,123.5 350.9,122.8 351.0,122.2 351.0,122.4 351.0,121.6 351.0,121.8 351.0,121.1 351.0,120.7 351.1,120.4 351.1,120.5 351.1,120.6 351.1,120.8 351.1,121.1 351.1,121.2 351.1,121.3 351.1,120.7 351.1,120.5 351.1,120.5 351.1,120.7 351.1,120.2 351.1,119.9 351.1,119.6 351.2,119.2 351.2,119.4 351.3,118.8 351.5,119.0 351.5,118.4 351.5,118.5 351.6,117.9 351.6,117.3 351.9,117.5 351.9,117.7 352.5,118.0 352.5,118.4 353.4,117.9 378.4,118.1 385.9,118.4 405.4,117.3 444.8,117.5 455.8,117.8 480.5,118.2 529.1,116.7 609.4,116.1 635.0,116.4 647.4,116.6 657.3,117.0 781.7,117.5 798.2,117.7 811.7,118.0 898.7,116.9 920.5,117.1 926.3,117.3 926.3,468.0" fill="#16a34a" fill-opacity="0.08"/>
  <polyline points="152.5,125.0 152.5,124.3 152.8,124.6 348.8,123.5 350.9,122.8 351.0,122.2 351.0,122.4 351.0,121.6 351.0,121.8 351.0,121.1 351.0,120.7 351.1,120.4 351.1,120.5 351.1,120.6 351.1,120.8 351.1,121.1 351.1,121.2 351.1,121.3 351.1,120.7 351.1,120.5 351.1,120.5 351.1,120.7 351.1,120.2 351.1,119.9 351.1,119.6 351.2,119.2 351.2,119.4 351.3,118.8 351.5,119.0 351.5,118.4 351.5,118.5 351.6,117.9 351.6,117.3 351.9,117.5 351.9,117.7 352.5,118.0 352.5,118.4 353.4,117.9 378.4,118.1 385.9,118.4 405.4,117.3 444.8,117.5 455.8,117.8 480.5,118.2 529.1,116.7 609.4,116.1 635.0,116.4 647.4,116.6 657.3,117.0 781.7,117.5 798.2,117.7 811.7,118.0 898.7,116.9 920.5,117.1 926.3,117.3" fill="none" stroke="#16a34a" stroke-width="2" stroke-linejoin="round"/>
  <line x1="88" y1="102" x2="110" y2="102" stroke="#16a34a" stroke-width="2.5"/><text x="116" y="106" font-size="11.5" fill="#374151">equity</text><line x1="88" y1="118" x2="110" y2="118" stroke="#d97706" stroke-width="2.5" opacity="0.8"/><text x="116" y="122" font-size="11.5" fill="#374151">price</text>
  <text x="78" y="502" text-anchor="start" font-size="12" fill="#6b7280">2025-10-01</text><text x="934" y="502" text-anchor="end" font-size="12" fill="#6b7280">2025-10-31</text>
</svg>
