<?xml version="1.0" encoding="UTF-8"?>
<svg xmlns="http://www.w3.org/2000/svg" width="1100" height="560" viewBox="0 0 1100 560" font-family="ui-sans-serif, system-ui, sans-serif">
  <rect width="1100" height="560" fill="#ffffff"/>
  <text x="80" y="28" font-size="18" font-weight="700" fill="#111827">Zone Recovery — ADAUSDT fee-tier comparison (best setting)</text>
  <text x="80" y="48" font-size="12.5" fill="#6b7280">lev 10 · ratio 3 · gap 35% · maxSteps 4 · maxDD 20% · random  ·  equity per fee tier vip 0..9</text>
  <text x="80" y="68" font-size="12.5" font-weight="600" fill="#1d4ed8">USDT margin · BNB −10%</text>
  <line x1="80" y1="508.0" x2="932" y2="508.0" stroke="#e5e7eb" stroke-width="1"/><text x="70" y="512.0" text-anchor="end" font-size="12" fill="#6b7280">0.00</text><line x1="80" y1="424.0" x2="932" y2="424.0" stroke="#e5e7eb" stroke-width="1"/><text x="70" y="428.0" text-anchor="end" font-size="12" fill="#6b7280">22159872</text><line x1="80" y1="340.0" x2="932" y2="340.0" stroke="#e5e7eb" stroke-width="1"/><text x="70" y="344.0" text-anchor="end" font-size="12" fill="#6b7280">44319744</text><line x1="80" y1="256.0" x2="932" y2="256.0" stroke="#e5e7eb" stroke-width="1"/><text x="70" y="260.0" text-anchor="end" font-size="12" fill="#6b7280">66479616</text><line x1="80" y1="172.0" x2="932" y2="172.0" stroke="#e5e7eb" stroke-width="1"/><text x="70" y="176.0" text-anchor="end" font-size="12" fill="#6b7280">88639489</text><line x1="80" y1="88.0" x2="932" y2="88.0" stroke="#e5e7eb" stroke-width="1"/><text x="70" y="92.0" text-anchor="end" font-size="12" fill="#6b7280">110799361</text>
  <line x1="80" y1="128.9" x2="932" y2="128.9" stroke="#9ca3af" stroke-width="1.5" stroke-dasharray="6 4"/>
  <polyline points="80.0,128.9 80.0,128.1 80.3,128.4 296.1,127.2 298.5,126.5 298.5,125.8 298.5,126.0 298.6,125.2 298.6,125.4 298.6,124.7 298.6,124.2 298.6,123.8 298.6,123.9 298.6,124.1 298.6,124.3 298.6,124.6 298.6,124.7 298.6,124.9 298.6,124.3 298.6,123.9 298.6,124.0 298.7,124.2 298.7,123.7 298.7,123.3 298.7,123.0 298.7,122.6 298.8,122.7 298.9,122.2 299.1,122.3 299.1,121.7 299.1,121.9 299.2,121.1 299.2,120.5 299.6,120.7 299.6,120.9 300.2,121.3 300.2,121.8 301.2,121.2 328.7,121.4 337.0,121.7 358.4,120.6 401.8,120.8 413.9,121.1 441.1,121.6 494.7,119.9 583.1,119.3 611.2,119.5 624.9,119.8 635.8,120.2 772.8,120.8 790.9,121.0 805.8,121.3 901.6,120.1 925.6,120.3 932.0,120.6" fill="none" stroke="#2563eb" stroke-width="1.8" stroke-linejoin="round" opacity="0.9"/>
  <polyline points="80.0,128.9 80.0,128.1 80.3,128.4 296.1,127.2 298.5,126.5 298.5,125.8 298.5,126.0 298.6,125.2 298.6,125.4 298.6,124.7 298.6,124.2 298.6,123.8 298.6,123.9 298.6,124.1 298.6,124.3 298.6,124.6 298.6,124.7 298.6,124.9 298.6,124.3 298.6,123.9 298.6,124.0 298.7,124.2 298.7,123.7 298.7,123.3 298.7,123.0 298.7,122.6 298.8,122.7 298.9,122.2 299.1,122.3 299.1,121.7 299.1,121.9 299.2,121.1 299.2,120.5 299.6,120.7 299.6,120.9 300.2,121.3 300.2,121.8 301.2,121.2 328.7,121.4 337.0,121.7 358.4,120.6 401.8,120.8 413.9,121.1 441.1,121.6 494.7,119.9 583.1,119.3 611.2,119.5 624.9,119.8 635.8,120.2 772.8,120.8 790.9,121.0 805.8,121.3 901.6,120.1 925.6,120.3 932.0,120.6" fill="none" stroke="#dc2626" stroke-width="1.8" stroke-linejoin="round" opacity="0.9"/>
  <polyline points="80.0,128.9 80.0,128.1 80.3,128.4 296.1,127.2 298.5,126.5 298.5,125.8 298.5,126.0 298.6,125.2 298.6,125.4 298.6,124.7 298.6,124.2 298.6,123.8 298.6,123.9 298.6,124.1 298.6,124.3 298.6,124.6 298.6,124.7 298.6,124.9 298.6,124.2 298.6,123.9 298.6,124.0 298.7,124.1 298.7,123.6 298.7,123.3 298.7,123.0 298.7,122.6 298.8,122.7 298.9,122.1 299.1,122.3 299.1,121.6 299.1,121.8 299.2,121.1 299.2,120.4 299.6,120.6 299.6,120.9 300.2,121.2 300.2,121.7 301.2,121.1 328.7,121.4 337.0,121.6 358.4,120.5 401.8,120.8 413.9,121.1 441.1,121.5 494.7,119.8 583.1,119.2 611.2,119.5 624.9,119.8 635.8,120.2 772.8,120.7 790.9,120.9 805.8,121.2 901.6,120.1 925.6,120.3 932.0,120.5" fill="none" stroke="#16a34a" stroke-width="1.8" stroke-linejoin="round" opacity="0.9"/>
  <polyline points="80.0,128.9 80.0,128.1 80.3,128.4 296.1,127.2 298.5,126.5 298.5,125.8 298.5,126.0 298.6,125.2 298.6,125.4 298.6,124.6 298.6,124.2 298.6,123.8 298.6,123.9 298.6,124.1 298.6,124.3 298.6,124.6 298.6,124.7 298.6,124.9 298.6,124.2 298.6,123.9 298.6,124.0 298.7,124.1 298.7,123.6 298.7,123.3 298.7,122.9 298.7,122.5 298.8,122.7 298.9,122.1 299.1,122.3 299.1,121.6 299.1,121.8 299.2,121.1 299.2,120.4 299.6,120.6 299.6,120.9 300.2,121.2 300.2,121.7 301.2,121.1 328.7,121.3 337.0,121.6 358.4,120.5 401.8,120.7 413.9,121.0 441.1,121.5 494.7,119.8 583.1,119.2 611.2,119.4 624.9,119.7 635.8,120.1 772.8,120.7 790.9,120.9 805.8,121.2 901.6,120.0 925.6,120.2 932.0,120.5" fill="none" stroke="#d97706" stroke-width="1.8" stroke-linejoin="round" opacity="0.9"/>
  <polyline points="80.0,128.9 80.0,128.1 80.3,128.4 296.1,127.2 298.5,126.5 298.5,125.8 298.5,126.0 298.6,125.2 298.6,125.3 298.6,124.6 298.6,124.2 298.6,123.8 298.6,123.9 298.6,124.1 298.6,124.3 298.6,124.6 298.6,124.7 298.6,124.9 298.6,124.2 298.6,123.9 298.6,124.0 298.7,124.1 298.7,123.6 298.7,123.3 298.7,122.9 298.7,122.5 298.8,122.7 298.9,122.1 299.1,122.3 299.1,121.6 299.1,121.8 299.2,121.0 299.2,120.4 299.6,120.6 299.6,120.9 300.2,121.2 300.2,121.7 301.2,121.1 328.7,121.3 337.0,121.6 358.4,120.5 401.8,120.7 413.9,121.0 441.1,121.5 494.7,119.8 583.1,119.2 611.2,119.4 624.9,119.7 635.8,120.1 772.8,120.7 790.9,120.9 805.8,121.2 901.6,120.0 925.6,120.2 932.0,120.5" fill="none" stroke="#7c3aed" stroke-width="1.8" stroke-linejoin="round" opacity="0.9"/>
  <polyline points="80.0,128.9 80.0,128.1 80.3,128.4 296.1,127.2 298.5,126.5 298.5,125.8 298.5,126.0 298.6,125.2 298.6,125.3 298.6,124.6 298.6,124.2 298.6,123.8 298.6,123.9 298.6,124.1 298.6,124.3 298.6,124.6 298.6,124.7 298.6,124.9 298.6,124.2 298.6,123.9 298.6,124.0 298.7,124.1 298.7,123.6 298.7,123.3 298.7,122.9 298.7,122.5 298.8,122.7 298.9,122.1 299.1,122.3 299.1,121.6 299.1,121.8 299.2,121.0 299.2,120.4 299.6,120.6 299.6,120.8 300.2,121.2 300.2,121.7 301.2,121.1 328.7,121.3 337.0,121.6 358.4,120.5 401.8,120.7 413.9,121.0 441.1,121.4 494.7,119.8 583.1,119.2 611.2,119.4 624.9,119.7 635.8,120.1 772.8,120.6 790.9,120.9 805.8,121.2 901.6,120.0 925.6,120.2 932.0,120.5" fill="none" stroke="#0891b2" stroke-width="1.8" stroke-linejoin="round" opacity="0.9"/>
  <polyline points="80.0,128.9 80.0,128.1 80.3,128.4 296.1,127.2 298.5,126.5 298.5,125.8 298.5,126.0 298.6,125.2 298.6,125.3 298.6,124.6 298.6,124.2 298.6,123.8 298.6,123.9 298.6,124.1 298.6,124.3 298.6,124.6 298.6,124.7 298.6,124.9 298.6,124.2 298.6,123.9 298.6,124.0 298.7,124.1 298.7,123.6 298.7,123.3 298.7,122.9 298.7,122.5 298.8,122.7 298.9,122.1 299.1,122.3 299.1,121.6 299.1,121.8 299.2,121.0 299.2,120.4 299.6,120.6 299.6,120.8 300.2,121.2 300.2,121.7 301.2,121.1 328.7,121.3 337.0,121.6 358.4,120.4 401.8,120.7 413.9,121.0 441.1,121.4 494.7,119.8 583.1,119.2 611.2,119.4 624.9,119.7 635.8,120.1 772.8,120.6 790.9,120.9 805.8,121.2 901.6,120.0 925.6,120.2 932.0,120.4" fill="none" stroke="#db2777" stroke-width="1.8" stroke-linejoin="round" opacity="0.9"/>
  <polyline points="80.0,128.9 80.0,128.1 80.3,128.4 296.1,127.2 298.5,126.5 298.5,125.8 298.5,126.0 298.6,125.2 298.6,125.3 298.6,124.6 298.6,124.2 298.6,123.8 298.6,123.9 298.6,124.1 298.6,124.3 298.6,124.6 298.6,124.7 298.6,124.9 298.6,124.2 298.6,123.9 298.6,124.0 298.7,124.1 298.7,123.6 298.7,123.3 298.7,122.9 298.7,122.5 298.8,122.7 298.9,122.1 299.1,122.2 299.1,121.6 299.1,121.8 299.2,121.0 299.2,120.4 299.6,120.6 299.6,120.8 300.2,121.2 300.2,121.6 301.2,121.1 328.7,121.3 337.0,121.6 358.4,120.4 401.8,120.7 413.9,121.0 441.1,121.4 494.7,119.7 583.1,119.1 611.2,119.4 624.9,119.7 635.8,120.1 772.8,120.6 790.9,120.8 805.8,121.1 901.6,119.9 925.6,120.1 932.0,120.4" fill="none" stroke="#65a30d" stroke-width="1.8" stroke-linejoin="round" opacity="0.9"/>
  <polyline points="80.0,128.9 80.0,128.1 80.3,128.4 296.1,127.2 298.5,126.5 298.5,125.8 298.5,126.0 298.6,125.2 298.6,125.3 298.6,124.6 298.6,124.2 298.6,123.8 298.6,123.9 298.6,124.1 298.6,124.3 298.6,124.6 298.6,124.7 298.6,124.9 298.6,124.2 298.6,123.9 298.6,124.0 298.7,124.1 298.7,123.6 298.7,123.3 298.7,122.9 298.7,122.5 298.8,122.7 298.9,122.1 299.1,122.2 299.1,121.6 299.1,121.8 299.2,121.0 299.2,120.4 299.6,120.6 299.6,120.8 300.2,121.2 300.2,121.6 301.2,121.1 328.7,121.3 337.0,121.6 358.4,120.4 401.8,120.7 413.9,121.0 441.1,121.4 494.7,119.7 583.1,119.1 611.2,119.4 624.9,119.7 635.8,120.1 772.8,120.6 790.9,120.8 805.8,121.1 901.6,119.9 925.6,120.1 932.0,120.4" fill="none" stroke="#475569" stroke-width="1.8" stroke-linejoin="round" opacity="0.9"/>
  <polyline points="80.0,128.9 80.0,128.1 80.3,128.4 296.1,127.2 298.5,126.5 298.5,125.8 298.5,126.0 298.6,125.2 298.6,125.3 298.6,124.6 298.6,124.2 298.6,123.8 298.6,123.9 298.6,124.0 298.6,124.3 298.6,124.6 298.6,124.7 298.6,124.8 298.6,124.2 298.6,123.9 298.6,124.0 298.7,124.1 298.7,123.6 298.7,123.3 298.7,122.9 298.7,122.5 298.8,122.7 298.9,122.1 299.1,122.2 299.1,121.6 299.1,121.8 299.2,121.0 299.2,120.4 299.6,120.6 299.6,120.8 300.2,121.2 300.2,121.6 301.2,121.0 328.7,121.3 337.0,121.5 358.4,120.4 401.8,120.7 413.9,121.0 441.1,121.4 494.7,119.7 583.1,119.1 611.2,119.3 624.9,119.6 635.8,120.0 772.8,120.6 790.9,120.8 805.8,121.1 901.6,119.9 925.6,120.1 932.0,120.4" fill="none" stroke="#ea580c" stroke-width="1.8" stroke-linejoin="round" opacity="0.9"/>
  <line x1="950" y1="94" x2="972" y2="94" stroke="#ea580c" stroke-width="3"/><text x="980" y="98" font-size="12.5" fill="#374151">vip 9  102255962</text>
  <line x1="950" y1="116" x2="972" y2="116" stroke="#475569" stroke-width="3"/><text x="980" y="120" font-size="12.5" fill="#374151">vip 8  102250678</text>
  <line x1="950" y1="138" x2="972" y2="138" stroke="#65a30d" stroke-width="3"/><text x="980" y="142" font-size="12.5" fill="#374151">vip 7  102247156</text>
  <line x1="950" y1="160" x2="972" y2="160" stroke="#db2777" stroke-width="3"/><text x="980" y="164" font-size="12.5" fill="#374151">vip 6  102241873</text>
  <line x1="950" y1="182" x2="972" y2="182" stroke="#0891b2" stroke-width="3"/><text x="980" y="186" font-size="12.5" fill="#374151">vip 5  102238350</text>
  <line x1="950" y1="204" x2="972" y2="204" stroke="#7c3aed" stroke-width="3"/><text x="980" y="208" font-size="12.5" fill="#374151">vip 4  102233067</text>
  <line x1="950" y1="226" x2="972" y2="226" stroke="#d97706" stroke-width="3"/><text x="980" y="230" font-size="12.5" fill="#374151">vip 3  102229544</text>
  <line x1="950" y1="248" x2="972" y2="248" stroke="#16a34a" stroke-width="3"/><text x="980" y="252" font-size="12.5" fill="#374151">vip 2  102215455</text>
  <line x1="950" y1="270" x2="972" y2="270" stroke="#2563eb" stroke-width="3"/><text x="980" y="274" font-size="12.5" fill="#374151">vip 0  102197844</text>
  <line x1="950" y1="292" x2="972" y2="292" stroke="#dc2626" stroke-width="3"/><text x="980" y="296" font-size="12.5" fill="#374151">vip 1  102197844</text>
  <text x="80" y="542" text-anchor="start" font-size="12" fill="#6b7280">2025-10-03</text><text x="932" y="542" text-anchor="end" font-size="12" fill="#6b7280">2025-10-31</text>
</svg>
