<?xml version="1.0" encoding="UTF-8"?>
<svg xmlns="http://www.w3.org/2000/svg" width="1180" height="640" viewBox="0 0 1180 640" font-family="ui-sans-serif, system-ui, sans-serif">
  <rect width="1180" height="640" fill="#ffffff"/>
  <defs><clipPath id="plot"><rect x="72" y="60" width="894" height="534"/></clipPath></defs>
  <text x="72" y="26" font-size="17" font-weight="700" fill="#111827">Zone Recovery — how it works (3 series)</text>
  <text x="72" y="45" font-size="12" fill="#6b7280">lev 75 · ratio 2 · gap 70% · maxSteps 6 · price (grey), gap zone, TP envelope (green), numbered entries with lots</text>
  <line x1="72" y1="594.0" x2="966" y2="594.0" stroke="#eef2f7" stroke-width="1"/><text x="64" y="598.0" text-anchor="end" font-size="11" fill="#94a3b8">7887</text><line x1="72" y1="487.2" x2="966" y2="487.2" stroke="#eef2f7" stroke-width="1"/><text x="64" y="491.2" text-anchor="end" font-size="11" fill="#94a3b8">8060</text><line x1="72" y1="380.4" x2="966" y2="380.4" stroke="#eef2f7" stroke-width="1"/><text x="64" y="384.4" text-anchor="end" font-size="11" fill="#94a3b8">8234</text><line x1="72" y1="273.6" x2="966" y2="273.6" stroke="#eef2f7" stroke-width="1"/><text x="64" y="277.6" text-anchor="end" font-size="11" fill="#94a3b8">8408</text><line x1="72" y1="166.8" x2="966" y2="166.8" stroke="#eef2f7" stroke-width="1"/><text x="64" y="170.8" text-anchor="end" font-size="11" fill="#94a3b8">8581</text><line x1="72" y1="60.0" x2="966" y2="60.0" stroke="#eef2f7" stroke-width="1"/><text x="64" y="64.0" text-anchor="end" font-size="11" fill="#94a3b8">8755</text>
  <polyline points="72.0,395.2 72.2,390.9 72.5,394.9 72.8,396.5 72.9,400.0 72.9,398.1 73.2,381.7 73.4,378.7 73.7,376.9 74.3,375.6 75.0,374.8 75.6,370.8 75.9,372.2 76.5,372.2 77.0,382.7 77.7,384.6 78.0,388.5 78.4,371.5 78.8,370.6 78.9,370.6 78.9,365.7 79.0,363.7 79.2,360.0 79.6,365.0 80.0,370.5 80.2,359.2 80.8,353.0 81.8,346.7 82.3,346.6 82.7,341.7 82.9,339.5 83.0,339.6 83.2,342.5 83.5,342.4 84.2,346.7 84.4,336.8 84.8,338.7 85.1,334.8 85.4,341.8 85.4,341.8 85.4,347.8 85.6,345.4 85.9,334.2 86.4,326.2 87.0,316.5 87.0,312.2 87.0,303.0 87.0,299.3 87.0,296.4 87.0,294.2 87.0,291.0 87.0,289.0 87.0,295.3 87.1,305.2 87.2,308.8 87.7,302.6 87.8,296.0 87.9,287.9 87.9,284.5 87.9,281.6 87.9,278.4 88.0,286.1 88.1,275.3 88.1,273.7 88.1,270.6 88.1,267.4 88.1,265.8 88.1,263.0 88.1,261.1 88.1,264.2 88.1,267.6 88.2,276.2 88.2,281.6 88.2,289.4 88.2,295.0 88.2,291.9 88.2,291.9 88.2,293.6 88.2,289.0 88.2,281.6 88.2,274.5 88.2,287.4 88.2,293.5 88.3,286.9 88.3,285.8 88.5,288.6 88.7,293.4 88.8,300.1 89.1,292.4 89.4,281.8 89.6,281.3 89.8,289.6 90.1,291.9 90.3,286.5 90.5,283.7 90.9,279.0 91.0,279.7 91.2,278.4 91.3,269.1 91.7,281.2 92.0,285.1 92.2,288.6 92.3,292.3 92.8,289.4 93.0,279.3 93.2,282.2 93.5,281.4 93.8,281.0 94.0,279.5 94.0,279.5 94.0,278.6 94.0,278.3 94.8,276.5 95.4,281.3 95.4,280.7 95.5,281.4 96.0,279.0 96.7,268.1 96.8,265.8 96.9,267.7 97.2,259.9 97.2,259.9 97.2,258.0 97.6,264.9 97.8,260.1 98.0,258.9 98.1,256.8 98.7,257.9 99.0,254.8 99.5,253.8 99.5,249.9 99.5,243.8 99.5,242.4 99.7,245.3 99.9,240.6 100.0,236.0 100.1,234.3 100.1,232.8 100.1,231.2 100.1,229.6 100.3,231.5 100.5,231.5 100.6,224.3 100.7,221.1 100.8,220.5 101.0,223.0 101.3,230.0 101.8,220.0 101.9,220.0 101.9,221.0 102.2,220.0 102.2,220.1 102.4,217.5 102.5,217.3 102.5,217.3 102.7,216.9 102.7,212.3 102.7,209.1 102.7,207.6 102.7,206.5 102.9,207.5 103.0,216.1 103.2,217.3 103.6,218.5 103.8,219.6 103.8,224.6 104.1,228.9 104.3,234.9 104.4,237.2 105.3,232.3 105.4,232.3 105.6,232.3 105.7,232.3 106.2,228.5 106.7,229.8 107.6,242.1 107.9,244.4 108.1,233.8 108.4,235.6 109.0,233.4 109.1,232.6 109.8,237.0 111.1,247.5 111.5,257.8 112.3,255.1 112.6,262.5 113.2,256.8 114.5,251.6 115.9,248.7 117.5,248.7 118.0,247.6 118.1,247.6 118.6,247.6 119.0,247.6 119.3,238.4 119.9,241.0 120.4,240.2 120.8,229.0 121.1,228.9 121.4,227.1 121.7,232.6 122.5,235.3 123.5,235.3 123.8,241.5 124.9,255.6 126.5,252.4 127.8,242.7 128.5,244.3 128.7,243.6 129.2,244.4 129.5,244.4 129.8,244.5 130.1,250.4 130.4,250.0 130.6,250.9 130.9,253.4 131.0,254.5 131.3,255.0 131.6,258.5 131.7,260.1 132.5,257.0 132.9,257.0 133.0,257.0 133.4,245.5 133.9,248.6 134.0,248.6 134.5,255.1 134.8,257.4 135.0,257.2 135.2,258.7 135.7,258.8 136.4,255.0 136.6,255.0 136.8,254.4 137.4,252.8 138.8,254.4 139.2,254.4 140.2,254.9 140.3,254.9 140.6,254.4 141.3,260.6 142.2,260.5 143.2,261.6 143.7,260.6 144.2,258.5 144.6,263.7 145.2,270.3 145.5,274.6 145.8,274.3 146.6,271.3 147.2,267.6 148.2,280.9 148.8,284.2 149.3,279.1 149.6,282.8 150.0,276.2 150.7,285.9 151.2,285.4 152.1,290.5 153.3,286.6 153.8,290.5 154.5,282.7 154.9,277.4 156.6,278.4 157.2,278.4 157.9,283.8 158.1,287.9 158.5,287.6 160.1,280.6 161.1,283.7 161.8,284.5 163.9,275.4 164.5,283.3 165.2,274.1 168.2,259.9 168.8,252.0 169.4,257.8 170.9,263.3 171.4,257.7 171.9,257.1 172.3,261.5 173.0,264.0 173.8,274.8 174.6,274.1 175.3,280.8 176.3,282.2 176.6,288.7 177.2,292.0 178.1,282.1 178.8,279.2 179.8,282.4 180.2,283.1 181.3,279.0 182.2,278.6 182.7,282.4 183.0,284.4 183.9,280.2 184.9,290.9 185.4,294.5 185.5,294.5 186.1,294.5 186.3,307.1 186.3,313.2 186.3,316.1 186.4,316.1 186.4,309.9 186.7,303.0 186.9,319.3 187.1,309.3 187.4,321.4 188.1,307.6 188.4,317.5 189.1,315.6 189.4,317.8 190.1,321.4 190.3,321.0 191.2,315.5 191.6,312.6 192.1,310.5 192.4,312.9 192.6,311.9 193.6,308.6 195.0,311.5 196.5,315.9 197.3,311.3 198.0,308.7 199.1,306.5 200.3,303.3 201.4,290.0 202.9,296.3 203.1,299.4 204.7,305.8 205.2,315.2 205.8,313.3 207.6,318.8 207.6,319.7 207.6,320.4 208.3,318.5 209.3,306.4 210.0,308.3 211.3,316.5 212.0,321.5 212.8,323.2 213.3,322.0 213.9,318.5 215.4,308.9 216.0,302.9 217.2,304.6 217.7,304.1 218.2,304.6 219.0,302.3 219.3,303.1 219.6,303.0 220.1,304.8 220.3,309.5 221.0,310.5 221.6,309.6 221.9,307.8 222.0,304.5 222.6,308.2 223.6,303.0 224.0,298.1 224.6,290.8 225.6,292.8 225.8,290.8 226.0,289.5 226.2,288.9 226.7,280.8 227.1,279.3 227.4,275.8 227.7,270.6 227.9,272.4 228.4,270.3 228.7,268.5 229.1,260.8 229.2,263.1 229.3,264.5 229.8,263.0 230.1,263.0 230.2,253.7 230.5,254.9 231.0,254.5 231.4,267.3 232.1,281.3 232.4,287.6 232.7,294.7 232.9,296.8 233.6,292.0 234.2,292.8 234.5,292.9 234.8,298.0 235.2,309.1 235.3,309.1 235.6,309.2 235.8,309.1 236.3,309.2 236.8,313.4 237.1,313.4 237.1,316.0 237.5,318.0 237.7,318.7 237.8,318.0 237.9,310.3 238.6,310.3 239.1,314.9 239.6,314.9 240.3,314.9 240.4,317.9 240.5,321.8 240.9,323.2 241.3,331.8 241.4,333.9 241.4,333.2 242.2,321.8 242.7,312.5 243.1,302.8 243.6,293.9 243.7,293.1 243.9,293.1 244.0,293.1 244.1,293.1 244.8,303.7 245.5,302.9 245.6,305.7 245.9,299.8 246.3,299.8 246.8,299.1 247.2,302.4 247.6,292.6 247.9,291.9 248.1,293.0 248.6,293.6 248.7,292.3 248.7,291.6 248.7,278.2 249.0,281.6 249.4,282.6 249.7,279.4 250.2,284.5 250.5,284.5 250.8,284.5 251.4,291.6 252.4,293.4 252.6,296.1 253.2,299.7 253.7,301.9 253.9,298.4 254.3,299.9 254.7,298.3 255.0,298.3 255.4,293.0 255.9,286.7 256.1,288.8 256.7,298.4 256.8,305.9 256.9,303.6 257.1,303.6 257.8,303.6 258.2,305.9 258.3,311.8 259.0,309.8 259.2,308.2 259.7,303.5 260.1,293.6 260.6,296.0 261.4,305.8 262.1,301.7 262.9,293.1 263.3,292.8 263.6,293.0 264.3,293.0 264.6,294.9 265.1,303.5 265.4,302.3 265.7,302.8 266.1,298.6 266.6,295.8 267.0,301.5 267.0,306.9 267.1,311.7 267.6,312.9 268.1,308.3 269.0,303.1 269.5,306.0 270.3,306.0 271.0,303.3 271.4,306.0 271.8,316.2 272.0,318.8 272.7,317.2 273.2,309.9 273.6,312.9 274.0,312.9 274.0,312.9 274.5,312.9 275.0,308.7 275.5,313.5 275.7,310.4 276.2,313.9 276.6,313.9 277.0,313.9 277.6,313.5 277.9,310.4 278.6,303.0 279.1,304.4 279.3,304.3 279.7,305.2 280.5,295.6 280.7,295.6 281.2,295.6 281.5,296.8 281.7,296.7 281.9,296.6 282.0,299.1 282.1,297.4 282.4,292.7 282.7,282.4 283.2,288.8 283.6,295.8 283.9,297.0 283.9,293.0 284.0,291.4 284.1,294.3 284.2,291.4 284.7,292.4 285.2,296.3 285.5,296.8 286.1,296.8 286.3,304.2 286.7,304.9 286.9,307.1 286.9,306.9 287.0,304.9 287.1,300.7 287.4,298.5 287.4,297.9 287.4,298.1 287.4,295.0 287.5,293.6 287.6,291.7 287.7,291.8 288.4,287.6 288.8,293.0 289.2,291.0 289.4,287.9 289.4,287.8 289.6,287.7 289.9,282.0 290.3,281.4 290.4,277.0 290.5,276.3 290.5,274.2 290.6,264.5 290.6,258.6 290.6,261.2 290.8,256.8 290.8,255.2 291.0,261.6 291.1,251.1 291.1,249.8 291.1,248.8 291.1,238.9 291.1,244.2 291.3,250.0 291.7,253.3 291.7,253.3 291.9,248.9 291.9,244.8 292.0,237.5 292.1,232.3 292.3,228.2 292.4,228.2 292.4,229.2 292.6,242.8 292.8,247.2 292.8,249.6 293.0,244.3 293.0,244.9 293.3,246.1 293.5,237.8 293.7,233.5 293.7,235.7 294.1,222.0 294.3,227.3 294.5,227.3 294.5,226.4 294.7,238.9 295.3,245.2 295.3,247.9 295.7,243.5 295.8,243.4 296.2,242.8 296.5,244.2 296.9,245.1 297.0,245.1 297.2,245.1 297.5,238.3 297.8,238.3 297.9,238.3 298.0,234.1 298.1,228.9 298.2,226.4 298.3,227.9 298.4,220.6 298.4,217.4 298.5,216.9 298.5,220.1 298.5,216.9 298.6,212.4 298.8,216.9 298.9,207.6 298.9,203.7 298.9,199.7 299.0,209.1 299.4,210.9 299.6,216.2 299.7,212.7 299.9,219.9 300.3,232.2 300.7,234.9 301.1,245.1 301.3,244.9 301.4,251.6 301.6,254.2 301.8,267.5 301.9,273.0 301.9,268.9 302.1,268.1 302.5,267.8 303.0,271.7 303.1,268.9 303.5,287.8 303.7,282.0 304.1,278.7 304.2,272.0 304.4,275.5 304.8,265.5 305.0,266.6 305.1,269.4 305.4,275.5 305.9,286.0 306.2,290.7 306.4,289.8 306.4,290.2 306.4,300.4 306.4,308.7 306.4,308.8 306.4,304.3 306.6,307.9 306.7,307.9 306.7,315.2 306.7,320.0 306.8,321.7 306.9,307.7 307.3,315.6 307.5,305.4 307.9,302.9 308.2,300.3 308.5,302.8 309.0,307.9 309.5,315.4 309.8,318.1 310.1,320.3 310.2,327.5 310.2,330.6 310.2,333.3 310.3,327.7 310.3,334.0 310.3,334.4 310.3,335.5 310.5,336.2 310.5,338.3 310.6,339.8 310.6,342.9 310.6,347.8 310.6,350.6 310.6,353.7 310.6,355.8 310.6,356.5 310.6,357.2 310.6,357.2 310.6,344.1 310.8,348.0 310.9,361.3 310.9,364.4 311.0,348.8 311.0,354.1 311.5,349.8 311.6,348.5 311.8,354.0 311.9,351.4 312.2,340.6 312.5,333.6 312.7,329.2 312.8,332.5 312.9,332.3 313.2,335.5 313.5,339.4 313.5,335.0 313.6,337.8 313.9,319.6 314.1,320.6 314.3,320.6 314.4,321.5 314.6,318.7 314.7,326.3 314.8,329.2 314.9,332.1 315.0,332.1 315.2,332.1 315.2,340.6 315.4,338.4 315.6,339.2 315.6,334.7 315.7,334.7 315.8,334.7 315.9,331.9 315.9,333.6 316.2,324.3 316.2,320.3 316.3,322.8 316.3,320.1 316.3,317.0 316.3,316.9 316.3,316.9 316.4,318.9 316.5,316.6 316.5,316.7 316.6,315.8 316.6,307.7 316.7,316.9 316.8,313.1 317.0,313.8 317.2,321.6 317.3,321.6 317.3,321.6 317.5,321.6 317.7,326.9 317.7,326.9 317.8,326.9 318.1,325.0 318.4,327.4 318.5,326.8 318.6,328.9 318.7,327.4 318.8,323.0 319.2,323.8 319.4,323.9 319.4,323.9 319.6,323.9 320.1,323.9 320.2,330.2 320.4,330.1 320.9,339.9 321.2,339.7 321.5,341.2 321.7,345.0 322.1,326.1 322.4,327.9 322.5,332.8 322.8,329.7 323.0,325.7 323.6,330.4 323.7,328.8 324.0,328.7 324.0,328.7 324.0,328.7 324.6,327.9 324.7,328.6 324.7,328.6 324.8,328.6 324.9,327.8 325.4,332.8 325.8,339.8 326.2,325.7 326.5,351.8 326.9,343.3 327.3,354.3 327.4,357.7 327.6,354.8 327.8,357.6 328.1,351.4 328.1,352.1 328.2,354.1 328.4,357.0 328.7,350.3 328.8,351.7 329.2,350.1 329.5,350.1 329.6,348.5 329.8,348.8 330.1,352.9 330.5,354.8 330.6,354.8 330.6,353.5 330.6,354.8 330.6,353.4 330.6,353.0 330.7,354.8 330.7,354.8 330.7,354.8 330.8,354.8 330.8,354.8 331.0,361.3 331.1,369.0 331.2,360.8 331.3,360.8 331.4,355.7 331.5,348.6 331.9,343.0 332.2,342.1 332.3,342.1 332.5,339.4 332.9,342.5 333.0,343.2 333.2,344.3 333.3,341.0 333.6,333.9 334.2,335.1 334.4,336.7 334.5,335.5 334.5,335.5 334.6,335.5 334.6,335.5 334.7,336.7 334.7,336.7 334.9,340.4 335.1,340.4 335.4,337.5 335.5,337.4 335.7,335.9 335.8,333.2 335.9,332.5 336.0,332.1 336.0,332.1 336.2,337.5 336.3,337.6 336.3,337.6 336.4,336.0 336.5,330.9 336.6,332.0 336.6,330.6 336.6,330.0 336.7,331.7 336.7,333.6 337.0,335.2 337.4,335.6 337.9,339.0 338.2,336.8 338.4,336.8 338.9,336.8 339.2,336.8 339.5,336.8 339.7,329.8 340.2,327.8 340.5,327.9 341.0,328.2 341.0,331.7 341.0,331.4 341.1,333.9 341.1,331.0 341.1,334.3 341.3,336.3 341.3,334.3 341.3,331.0 341.4,335.9 341.4,334.0 341.5,335.7 341.5,333.8 341.5,337.8 341.6,337.8 341.9,339.2 342.5,336.8 343.0,336.8 343.5,336.8 343.7,338.0 343.9,332.9 344.0,331.0 344.0,328.2 344.4,329.2 344.6,327.9 345.0,328.4 345.6,332.4 345.7,331.4 346.0,332.8 346.3,335.3 346.6,337.4 346.8,338.0 346.8,337.4 346.9,336.7 346.9,335.3 346.9,333.9 347.0,332.4 347.0,332.4 347.0,332.4 347.5,336.2 347.5,331.8 347.5,332.4 347.6,334.7 347.6,331.7 347.7,331.1 347.7,331.1 347.9,334.2 348.3,336.1 348.7,333.9 348.8,331.7 348.8,331.5 349.0,333.3 349.0,329.1 349.1,325.4 349.1,327.1 349.1,324.3 349.2,325.3 349.8,327.1 350.3,326.3 351.4,327.5 351.5,327.5 352.0,327.5 352.2,319.0 352.4,310.7 352.4,307.1 352.4,296.7 352.4,288.3 352.5,290.6 352.5,286.5 352.5,278.1 352.5,268.0 352.6,265.0 352.6,268.0 352.6,269.0 352.6,277.8 352.6,285.0 353.0,287.5 353.4,292.9 353.6,284.1 354.3,279.0 354.5,281.2 354.7,279.0 355.0,279.0 355.2,278.4 355.2,277.8 355.2,275.9 355.2,271.8 355.5,273.2 355.9,282.4 356.2,280.1 356.4,280.1 356.4,283.0 356.7,283.3 356.7,283.8 356.9,283.8 357.3,284.0 357.6,283.8 357.6,280.1 358.0,279.7 358.2,275.8 358.5,283.7 358.6,280.6 358.8,280.4 358.8,277.9 358.9,279.5 359.0,286.0 359.0,283.7 359.0,282.7 359.3,291.2 359.3,291.2 359.4,291.2 359.4,291.2 359.4,291.8 359.6,291.2 359.8,289.7 360.1,291.3 360.5,292.1 360.7,295.4 360.9,294.7 361.3,302.3 361.6,310.0 361.9,317.5 362.5,318.5 362.6,325.8 363.3,316.4 363.4,313.4 363.6,312.3 363.8,310.8 364.3,312.8 364.4,313.4 364.5,313.3 364.7,314.2 364.8,314.9 365.0,312.1 365.6,314.9 366.1,333.6 366.4,331.4 366.7,330.9 367.1,327.5 367.3,329.4 367.6,324.5 367.9,323.5 368.5,329.6 368.6,335.4 369.0,333.7 369.0,332.7 369.3,338.6 369.6,338.0 369.9,338.0 370.1,338.0 370.2,339.0 370.5,338.0 371.0,338.0 371.3,331.0 371.6,327.3 371.9,319.2 372.3,325.2 372.6,321.0 372.7,314.8 373.1,312.2 373.9,308.6 374.3,312.1 374.6,312.2 374.9,315.4 375.4,317.8 376.1,317.1 376.4,317.1 376.9,320.7 377.7,309.7 378.0,307.2 378.1,298.9 378.5,300.6 378.8,306.0 379.4,305.1 379.5,311.6 379.8,311.6 380.1,315.2 380.3,315.2 380.7,308.5 381.6,309.8 382.0,308.5 382.1,308.5 382.4,306.0 382.9,306.0 383.1,295.6 383.2,292.8 383.5,298.6 383.6,291.7 383.9,299.7 384.3,309.6 384.5,313.1 384.8,316.8 385.1,315.5 385.7,321.3 386.1,318.6 386.4,316.3 386.6,316.0 387.3,316.7 387.8,316.7 388.3,317.6 388.8,327.0 389.0,330.5 389.2,328.3 390.0,336.5 390.3,332.1 390.5,330.8 390.7,335.6 391.7,335.9 392.5,329.8 393.4,329.9 393.7,331.9 393.7,339.8 394.3,332.0 394.8,332.0 395.1,330.7 395.8,329.2 396.1,321.0 396.9,320.2 397.6,317.2 397.8,320.5 398.4,326.9 398.5,326.9 398.9,335.4 399.2,338.4 399.4,339.8 400.3,337.6 400.7,338.5 401.7,323.8 402.1,333.7 402.9,323.1 403.0,323.1 403.5,313.5 403.5,313.7 403.5,316.9 403.5,318.9 403.5,321.3 403.5,324.5 403.5,328.8 403.5,331.6 403.5,334.6 403.5,336.4 403.5,340.0 403.8,318.6 404.2,322.1 404.8,319.7 405.2,314.4 405.5,318.6 405.6,323.2 406.0,326.6 406.7,332.0 407.0,331.3 407.6,329.6 408.4,330.6 409.1,328.7 409.4,323.1 409.8,330.6 410.4,328.8 410.8,332.5 412.0,321.5 412.4,323.8 413.0,323.8 413.2,325.3 414.4,315.9 414.6,313.9 415.0,313.2 415.4,312.4 415.5,315.5 416.0,315.8 416.2,315.2 416.5,310.1 416.9,311.1 417.6,314.2 417.9,319.3 418.5,320.3 419.2,324.1 419.6,326.1 420.5,327.8 421.3,328.3 421.3,327.9 421.7,339.8 422.1,339.8 422.8,335.7 423.1,335.7 423.5,335.7 423.8,331.7 424.4,334.5 424.6,335.1 424.8,337.4 426.0,332.4 426.3,326.8 426.4,325.5 426.8,325.9 427.2,324.7 427.7,335.5 428.1,337.3 428.4,339.2 429.0,339.2 429.6,337.2 430.2,337.6 431.0,341.9 431.6,337.8 432.1,337.6 432.3,341.4 432.5,347.2 432.6,347.4 432.8,347.4 433.4,355.6 434.4,352.5 434.7,358.1 435.3,358.1 435.5,359.6 435.6,352.7 436.6,350.8 436.7,354.4 437.2,350.4 437.7,351.9 438.2,353.0 438.9,356.5 438.9,357.1 439.6,360.1 439.8,364.4 439.8,370.6 440.1,361.1 441.0,364.4 441.0,370.1 441.0,372.2 441.0,373.6 441.0,373.2 441.3,375.2 441.3,381.3 441.9,368.1 442.2,367.5 442.8,374.4 443.0,376.1 443.4,366.0 444.1,360.4 444.9,362.7 445.5,370.3 445.7,374.0 446.2,374.9 446.8,366.0 447.2,366.4 448.1,356.8 449.0,356.8 449.9,356.8 449.9,356.8 449.9,356.8 450.3,355.4 450.9,354.4 451.6,349.4 451.7,347.5 453.1,358.3 453.4,363.3 454.5,355.6 454.9,354.6 455.4,351.2 455.7,352.6 456.4,367.1 457.0,367.5 458.6,364.2 459.1,367.5 459.2,367.8 459.2,367.9 459.5,369.4 460.2,373.7 460.9,376.3 461.2,381.3 462.1,379.7 462.5,377.9 463.0,381.3 463.7,379.1 464.1,377.0 465.2,373.1 466.0,384.4 466.0,385.9 466.0,389.0 466.4,389.4 466.5,387.9 466.9,385.2 467.5,376.7 467.8,379.9 468.4,390.3 468.7,390.5 468.7,392.6 468.7,395.2 468.7,399.3 468.7,399.5 468.7,401.3 468.7,401.3 468.7,401.3 468.7,402.8 468.8,404.4 469.1,390.8 469.7,377.1 470.4,377.1 471.5,386.4 472.2,390.0 473.1,388.8 473.7,387.9 474.6,389.0 475.1,391.6 475.9,401.9 476.5,405.3 476.6,409.0 477.0,412.5 478.0,404.0 478.8,399.6 479.3,400.6 480.1,400.8 480.9,412.5 480.9,412.9 482.2,398.1 482.3,398.1 482.6,395.6 482.7,395.6 482.7,395.6 482.8,395.6 482.9,403.7 483.1,401.0 483.7,399.1 483.9,391.3 483.9,384.9 484.8,386.4 485.4,384.2 485.5,380.6 486.4,382.1 488.5,393.6 490.0,397.7 491.6,390.0 493.3,391.2 494.6,385.7 496.1,377.1 496.3,377.2 498.1,377.1 498.2,377.1 498.5,372.3 499.0,370.9 499.8,371.0 500.6,373.2 502.2,378.7 502.4,382.9 502.7,382.9 502.7,383.0 503.0,383.5 503.0,384.0 503.0,383.5 503.3,382.9 503.3,384.3 503.5,382.9 503.5,385.3 503.8,382.9 503.8,382.9 503.8,382.9 503.9,376.9 503.9,378.5 504.3,375.9 504.4,378.7 505.2,383.6 505.4,383.9 505.4,386.3 505.5,386.0 505.5,387.8 505.6,385.5 507.2,385.5 507.3,381.4 507.5,384.9 507.9,387.0 509.2,388.1 509.2,389.9 510.2,390.0 510.9,390.2 511.3,380.3 513.1,375.8 513.5,377.0 514.7,370.9 515.4,363.0 517.8,363.0 518.8,351.5 519.7,348.1 520.2,358.2 520.8,349.7 520.8,351.1 521.6,355.3 522.8,360.7 523.7,369.7 526.8,355.0 528.2,358.6 529.5,363.5 531.8,368.8 535.5,378.1 537.0,372.2 539.6,365.0 540.7,367.7 541.4,370.6 542.0,376.7 542.4,376.7 543.0,380.4 544.3,385.0 545.2,381.0 546.7,376.4 547.5,376.2 548.4,376.9 550.0,365.0 550.4,365.0 551.3,367.5 552.1,361.4 553.1,360.5 554.3,367.6 554.7,370.0 555.7,368.3 556.5,367.4 557.5,366.0 557.9,369.5 558.6,368.4 559.5,364.2 561.1,359.1 561.5,358.3 562.1,342.0 562.6,350.8 562.7,354.7 563.0,350.5 563.0,348.3 563.1,352.6 563.3,354.7 563.4,357.7 563.6,359.4 564.4,352.3 564.7,357.6 565.8,354.1 566.7,347.6 567.0,340.1 567.4,339.3 567.8,346.5 567.9,341.3 568.2,345.5 568.5,352.4 569.0,352.4 569.5,357.4 570.0,358.3 570.3,362.3 572.0,352.8 572.3,353.9 572.5,353.9 573.0,370.6 573.0,371.8 573.3,376.4 573.7,372.9 574.1,376.8 574.5,377.2 574.8,378.0 575.0,371.7 575.2,372.8 575.8,374.3 576.0,379.0 576.1,380.3 576.3,380.3 576.6,379.8 577.0,372.5 577.6,379.8 578.1,377.4 578.6,379.7 579.2,380.1 580.0,382.1 580.1,382.9 580.3,385.5 580.6,379.8 581.0,379.2 581.8,379.2 581.8,375.6 582.4,375.5 582.9,375.8 582.9,374.2 583.0,374.2 583.4,379.8 583.5,382.2 583.8,382.5 584.1,380.2 584.6,384.4 584.9,377.3 585.0,377.3 585.4,374.6 585.8,374.2 586.2,360.9 586.8,363.0 586.9,364.0 587.2,366.3 587.7,367.3 588.3,368.7 588.6,368.7 589.1,363.6 590.2,362.3 591.0,369.9 591.5,373.7 592.1,377.3 592.3,380.6 592.4,381.6 592.8,379.7 593.0,379.4 593.4,381.5 593.5,381.6 593.6,382.5 594.0,384.5 594.5,386.7 594.9,385.1 595.6,376.4 595.9,377.2 595.9,380.3 596.1,380.3 596.5,375.9 597.2,370.9 597.3,370.6 597.3,370.3 597.6,374.6 598.1,375.5 598.3,375.9 598.5,380.7 598.8,386.6 599.4,378.6 599.5,378.6 600.1,379.4 600.2,385.2 600.5,379.5 600.9,381.9 601.1,381.9 601.7,383.3 602.2,386.6 602.4,389.0 602.6,391.0 602.7,390.4 603.1,391.6 603.6,393.8 603.8,391.2 603.9,390.4 604.4,382.9 604.5,384.7 604.6,382.9 604.9,386.4 605.1,384.3 605.4,383.4 605.4,379.9 605.4,376.9 605.5,371.3 605.7,374.3 606.0,376.6 606.2,377.0 606.5,378.2 606.9,375.0 607.6,376.0 608.1,376.2 608.2,374.1 608.2,372.6 608.2,370.3 608.2,368.9 608.2,366.4 608.2,364.8 608.2,363.4 608.2,361.2 608.2,357.6 608.2,355.9 608.2,353.8 608.2,346.5 608.2,339.8 608.2,339.8 608.2,339.8 608.2,339.8 608.2,339.8 608.2,349.0 608.2,362.8 608.4,362.8 608.8,364.3 608.9,367.3 609.5,370.2 609.9,376.9 610.4,376.9 610.9,376.9 611.1,376.9 611.1,376.9 611.2,368.2 611.4,365.2 611.9,365.7 612.1,365.7 612.3,367.6 612.5,368.8 612.9,374.9 613.3,379.5 613.7,380.3 613.8,378.7 614.1,381.5 614.3,381.5 614.4,381.5 615.0,381.7 615.1,385.1 615.6,379.4 616.2,383.0 616.4,383.0 616.4,382.2 616.6,379.6 617.3,379.6 617.6,379.7 618.0,376.8 618.2,379.4 618.6,372.5 618.8,374.2 619.4,375.5 619.6,372.0 620.0,370.6 620.3,371.2 620.4,372.0 620.7,372.4 621.3,372.4 621.6,375.2 621.6,376.6 622.2,377.6 622.6,377.6 622.9,377.6 623.3,373.9 623.4,370.7 624.1,376.1 624.8,377.6 625.0,378.7 625.6,384.4 625.8,383.8 626.7,377.4 627.0,370.6 627.1,362.3 627.5,362.6 627.6,358.4 628.5,354.5 629.0,356.3 629.1,361.2 629.5,354.0 630.0,357.9 630.0,357.9 630.7,350.1 630.9,355.3 631.5,357.6 632.0,364.4 632.2,370.4 632.5,369.0 632.6,366.2 632.7,367.3 632.7,368.3 632.7,364.5 633.0,366.6 633.5,359.9 633.7,357.9 634.2,361.0 634.3,357.6 634.9,360.1 635.0,363.5 635.3,365.8 635.6,365.3 635.9,367.3 636.1,371.1 636.7,376.0 636.8,372.6 637.5,378.5 637.6,384.8 637.6,394.5 637.6,401.1 637.6,401.3 637.6,402.2 637.7,401.4 637.7,402.5 637.7,404.0 638.0,391.9 638.4,383.0 638.4,387.6 639.0,393.4 639.3,394.8 639.7,388.8 639.8,386.0 640.1,387.9 640.8,389.7 641.1,387.9 641.3,382.6 642.1,385.9 642.3,389.0 642.6,383.4 642.7,383.4 642.7,382.7 643.0,382.9 643.3,384.8 643.4,385.4 643.9,388.0 644.2,389.0 644.5,394.3 644.6,391.3 644.9,389.8 645.3,389.8 645.8,389.8 646.3,387.8 646.6,387.8 647.1,387.8 647.2,390.2 647.4,390.1 648.4,385.4 648.5,385.5 648.6,385.9 649.2,387.1 649.8,390.4 650.1,387.4 650.4,383.2 650.7,380.3 651.1,378.8 651.2,380.2 651.5,378.1 651.9,374.0 652.1,372.0 652.3,373.6 652.3,373.6 652.3,373.2 652.3,369.7 652.3,369.7 652.3,354.7 653.0,366.5 653.2,369.7 653.5,367.0 653.7,369.7 654.1,369.7 654.6,369.7 655.2,369.7 655.6,369.7 655.9,369.7 656.5,374.5 656.8,371.8 657.3,367.1 657.5,370.3 658.0,367.9 658.4,370.3 658.8,370.4 658.9,370.8 659.2,371.3 659.4,373.1 659.7,373.1 660.1,376.1 660.3,379.7 660.6,376.8 661.2,378.0 661.8,381.6 662.6,377.5 662.8,375.7 662.9,374.4 663.2,374.5 664.0,374.5 664.2,378.6 664.7,378.6 665.0,379.1 665.6,378.6 666.2,376.5 666.6,376.7 666.7,378.6 667.2,378.6 667.2,378.6 667.9,378.6 668.2,378.6 668.4,378.6 668.9,378.6 669.0,378.6 669.4,380.6 669.6,380.6 669.9,381.6 670.1,375.6 670.5,374.9 670.7,374.9 670.9,372.8 671.3,371.0 671.7,369.8 672.0,371.7 672.4,370.8 673.0,375.4 673.3,374.6 673.7,375.3 674.1,376.2 674.3,377.8 674.6,378.6 675.0,376.4 675.2,379.6 675.3,379.6 675.7,380.6 676.2,379.4 676.8,377.8 677.0,380.0 677.4,380.3 677.6,378.0 677.9,374.9 678.0,367.1 678.2,364.1 678.4,363.8 678.5,364.1 678.8,367.2 679.1,366.2 679.1,366.2 679.3,366.2 679.7,356.2 680.2,359.0 680.4,353.1 680.6,353.1 680.9,357.1 681.4,361.2 681.8,361.2 682.0,361.2 682.4,361.2 682.7,361.2 682.9,361.2 683.2,361.2 683.5,361.2 684.0,364.9 684.3,365.3 685.0,365.3 685.2,365.3 685.7,362.1 686.2,361.3 686.5,359.1 686.6,359.1 686.8,359.1 687.2,361.2 687.5,363.8 687.7,365.3 688.2,365.3 688.5,372.9 688.7,375.0 689.4,375.3 689.7,375.2 690.2,371.7 690.9,378.7 691.0,379.5 691.4,383.0 691.6,380.0 691.9,380.5 692.1,380.4 692.4,382.5 692.6,380.7 693.3,379.2 693.6,380.2 694.0,378.9 694.3,378.9 694.6,378.9 695.0,378.9 695.6,378.9 696.0,378.9 696.1,378.9 696.8,378.9 697.1,372.2 697.5,369.9 697.7,369.9 698.3,366.7 698.4,365.8 698.8,363.7 698.9,363.6 699.1,363.6 699.2,365.4 699.4,365.4 699.6,368.0 699.8,367.9 700.3,367.9 700.5,365.8 700.8,365.8 701.1,365.8 701.2,367.2 701.4,365.8 701.8,365.8 702.1,365.8 702.4,367.6 702.5,365.8 702.5,367.6 703.0,365.8 703.2,365.8 703.6,365.8 704.0,365.8 704.0,365.8 704.1,365.8 704.2,365.8 704.2,368.5 704.2,365.8 704.3,365.8 704.3,365.8 704.4,365.6 704.6,365.6 704.7,365.6 704.8,365.6 704.9,365.6 705.1,365.4 705.3,365.3 705.8,365.4 706.2,365.3 706.8,365.2 707.1,365.0 707.5,359.7 707.9,359.7 708.2,356.8 708.8,355.3 709.2,355.3 709.5,356.8 709.9,362.9 710.2,367.1 710.2,368.6 711.1,367.1 711.2,362.8 711.7,362.8 712.0,364.4 712.3,362.0 712.6,364.8 713.1,368.0 713.4,368.7 713.9,369.1 714.7,369.6 715.0,366.8 715.6,367.2 715.8,365.9 715.8,365.9 716.3,361.8 716.8,359.6 717.2,361.0 717.6,351.8 717.6,347.8 717.8,350.7 718.0,344.7 718.3,346.8 718.7,345.6 719.0,349.8 719.2,346.3 719.5,347.2 720.0,347.2 720.4,343.5 721.0,346.9 721.2,347.4 721.7,345.6 722.2,350.1 722.5,347.3 722.9,346.9 723.0,343.5 723.0,340.4 723.0,339.8 723.0,329.4 723.0,326.3 723.1,317.9 723.1,320.0 723.1,324.5 723.1,317.7 723.3,322.1 723.5,324.1 723.8,320.0 724.1,316.5 724.4,310.0 724.9,311.5 725.0,314.2 725.1,309.7 725.7,310.5 725.8,308.2 725.9,304.2 726.3,304.2 726.4,303.0 726.5,300.5 726.5,295.7 726.7,296.1 727.0,299.9 727.1,302.9 727.7,310.2 727.9,301.6 728.4,310.4 728.4,312.7 728.5,316.9 728.9,315.4 729.6,306.2 730.2,309.2 730.7,309.2 731.1,314.2 732.0,306.9 732.9,308.9 733.3,304.6 733.8,303.3 734.0,302.9 734.2,299.4 734.3,299.4 734.5,302.0 735.0,296.1 735.0,293.0 735.0,287.9 735.0,286.3 735.3,287.9 735.4,284.2 735.6,281.4 735.7,281.7 736.0,287.6 736.2,287.6 736.6,288.8 736.8,287.9 737.2,282.2 737.2,280.0 737.2,278.4 737.2,273.7 737.3,272.4 737.4,272.4 737.5,272.2 737.6,272.1 737.8,274.5 738.1,273.6 738.3,281.5 738.6,287.6 738.7,294.9 739.1,299.0 739.3,294.0 739.6,298.2 740.1,298.8 740.4,301.0 740.8,301.0 741.1,301.0 741.5,294.4 742.0,293.7 742.4,301.4 742.7,305.6 743.5,308.1 743.7,305.9 744.0,309.1 744.4,309.1 744.7,309.1 745.1,309.1 745.6,309.1 745.9,309.1 746.2,309.1 746.4,312.8 746.7,316.4 747.4,316.4 747.4,316.4 747.7,316.4 747.9,309.3 748.4,309.1 748.7,301.9 748.9,298.9 749.0,305.8 749.6,307.8 749.6,307.9 750.2,308.0 750.6,309.4 751.1,310.3 751.6,302.1 752.0,303.5 752.3,303.3 753.0,297.6 753.6,297.6 753.8,297.6 754.0,297.6 754.3,298.5 754.7,301.7 754.9,302.0 755.6,304.4 755.8,308.1 756.2,310.3 756.4,310.2 756.9,309.4 757.7,309.8 758.1,310.2 758.4,309.8 758.7,310.3 759.3,310.4 759.8,312.1 760.0,311.9 760.3,311.6 760.8,311.6 761.1,311.6 761.8,316.4 762.2,320.3 762.6,318.3 763.0,306.7 763.9,313.2 764.5,309.1 765.2,310.2 765.3,312.3 765.8,309.1 766.3,309.1 766.5,309.1 766.7,309.1 766.8,308.1 767.1,304.2 768.2,301.5 769.0,300.1 769.3,297.8 769.6,297.2 769.7,296.9 770.2,300.1 770.8,306.8 771.2,306.6 771.9,307.0 772.3,299.9 772.6,304.4 772.8,301.9 773.5,299.3 774.0,298.4 774.9,299.1 775.6,302.6 775.7,304.8 776.3,309.8 776.5,308.5 776.7,304.6 777.0,305.1 777.3,305.6 777.6,305.5 778.2,304.1 778.8,303.6 779.1,303.6 779.4,298.6 779.9,297.4 780.3,298.3 780.7,298.3 780.8,298.3 781.4,300.9 781.8,303.3 782.5,304.9 783.0,306.5 783.3,308.7 783.9,308.2 784.0,307.2 784.3,306.9 784.8,312.1 785.2,309.3 786.0,311.1 786.7,313.6 786.8,311.2 787.5,311.2 788.3,310.2 788.7,309.3 789.0,309.3 789.7,309.3 790.2,309.3 791.3,310.5 792.0,309.6 792.2,313.0 792.9,310.2 793.1,312.6 793.7,310.8 794.2,309.1 794.6,308.7 795.0,306.4 795.8,306.2 796.0,307.6 796.6,306.7 797.1,306.0 797.5,301.9 798.1,300.8 798.3,300.3 799.0,296.8 799.6,288.6 800.2,295.8 800.8,293.7 801.3,287.0 802.1,284.5 802.2,286.4 802.5,296.8 802.6,297.7 803.0,301.5 803.7,305.9 804.6,304.2 804.8,305.0 805.9,306.0 806.9,305.6 807.6,306.5 808.3,307.9 809.1,306.5 810.2,302.3 810.8,305.6 812.1,309.9 812.8,311.7 813.3,311.7 814.0,318.3 814.9,312.4 815.7,315.5 815.9,318.3 816.2,320.5 816.7,319.8 817.4,317.5 818.3,319.5 818.9,322.8 819.0,330.6 819.1,333.2 819.8,323.4 820.2,330.0 821.7,331.7 822.1,334.3 822.2,335.2 823.2,335.9 823.7,338.9 824.0,339.8 824.2,343.6 824.7,335.8 825.5,334.9 826.2,336.4 826.9,332.8 827.7,327.6 828.6,332.3 829.4,329.4 829.9,330.2 830.0,334.7 830.3,334.8 830.7,335.8 831.5,335.2 832.1,334.2 833.1,335.6 834.5,341.6 835.8,342.9 836.2,350.3 837.2,357.6 837.5,357.7 838.0,360.6 838.3,354.6 839.5,345.7 840.7,346.2 842.8,346.5 844.7,351.9 845.9,358.0 848.6,351.9 849.8,352.7 852.8,366.0 854.5,358.2 855.7,349.5 857.7,344.4 861.4,342.2 862.2,348.1 863.4,342.4 865.8,336.9 868.4,346.5 871.5,348.6 873.5,352.9 874.6,347.8 877.0,350.7 880.9,347.0 882.9,349.1 884.6,367.5 884.6,370.6 885.5,376.7 886.9,375.8 887.0,374.3 887.1,378.0 887.8,378.0 888.1,376.6 889.3,377.9 889.9,378.0 890.1,382.7 890.5,386.8 890.5,391.0 890.5,392.1 890.6,397.4 890.9,396.0 891.7,392.6 893.0,385.3 893.4,393.6 893.8,394.1 894.8,376.6 895.2,377.8 895.9,379.2 896.1,379.5 896.8,381.0 897.5,377.3 898.7,380.0 899.5,377.9 901.2,379.0 901.6,384.7 901.7,388.3 901.9,389.3 902.4,386.8 902.9,384.9 904.1,385.1 905.0,385.6 905.8,384.4 907.0,380.6 907.3,384.0 907.7,385.4 908.8,376.1 909.7,368.6 911.2,366.5 911.7,367.5 912.2,372.8 913.2,367.1 913.9,365.8 914.6,371.6 914.9,373.3 915.8,374.4 916.7,368.0 916.9,367.3 917.1,368.3 917.7,367.9 918.4,364.7 919.5,373.9 919.7,374.9 920.6,373.3 920.7,374.8 921.0,378.3 921.1,378.3 921.9,377.8 922.1,379.7 922.8,379.7 923.4,379.7 924.1,379.0 924.5,379.0 924.9,371.3 925.1,377.2 925.5,375.8 925.8,376.7 926.4,379.2 927.3,373.3 928.0,375.8 928.4,373.4 929.0,383.4 929.2,385.3 929.4,384.4 929.6,383.6 930.0,384.8 930.2,385.1 930.4,386.7 930.9,389.7 931.3,386.7 931.5,383.0 931.9,379.6 932.4,388.7 932.8,386.2 932.9,386.1 933.2,384.9 933.2,384.9 933.4,385.0 934.4,378.8 934.7,380.3 934.8,383.8 935.4,387.4 935.9,390.5 936.1,390.8 936.1,392.7 936.2,394.9 936.2,395.2 936.3,392.8 936.6,393.7 936.9,385.9 937.4,385.5 937.9,390.7 938.6,392.9 938.7,393.9 938.9,394.9 938.9,399.2 939.1,394.9 939.4,395.2 939.4,398.2 939.5,401.3 939.5,401.3 939.5,401.3 939.5,401.8 939.5,404.4 939.5,408.7 939.5,409.3 939.6,401.9 939.7,403.9 939.8,401.4 940.0,403.7 940.3,400.2 940.5,406.2 940.7,409.7 940.7,412.1 940.7,413.6 940.7,416.7 940.7,420.0 940.7,422.2 940.7,426.8 940.7,427.3 940.7,429.0 940.7,432.0 940.7,432.0 940.7,434.4 940.7,435.9 940.7,438.2 940.7,440.7 940.7,443.2 940.7,445.5 940.7,447.6 940.8,448.9 940.8,449.2 940.8,452.8 940.8,454.7 940.8,456.6 940.8,458.2 940.8,460.2 940.8,461.6 940.8,462.8 940.8,462.8 940.8,462.8 940.8,462.8 940.8,464.0 940.8,464.3 940.8,467.9 940.8,468.9 940.8,470.1 940.8,472.1 940.8,475.1 940.8,476.6 940.8,479.3 940.8,481.5 940.8,479.6 940.8,475.4 940.8,475.8 940.8,480.4 940.8,479.3 940.8,475.9 940.9,463.5 940.9,455.1 941.1,441.7 941.1,448.2 941.1,457.6 941.1,458.3 941.2,461.7 941.2,458.8 941.2,456.3 941.3,444.6 941.3,437.7 941.3,438.4 941.5,444.7 941.7,438.9 941.9,440.9 942.2,438.1 942.6,440.2 942.8,457.6 943.1,456.6 943.3,459.1 943.4,449.7 943.7,446.8 944.3,444.3 944.6,444.1 944.8,447.2 945.3,443.9 945.3,448.5 945.5,448.5 945.8,452.2 945.9,459.7 946.0,462.8 946.0,467.1 946.1,469.5 946.3,466.6 946.7,462.8 946.8,460.3 946.9,463.3 947.0,457.8 947.4,455.3 947.9,454.7 948.2,452.4 948.4,454.6 948.5,452.5 948.6,459.7 949.1,458.7 949.4,461.0 949.8,456.6 950.0,458.2 950.7,463.3 951.2,465.8 951.3,460.7 951.4,464.2 951.7,463.2 951.8,461.7 951.9,458.2 952.0,456.0 952.1,455.8 952.3,455.0 952.5,450.8 952.6,453.7 952.6,456.3 952.7,455.9 952.8,452.5 952.9,452.9 953.0,445.3 953.1,449.2 953.2,447.4 953.3,443.6 953.3,450.7 953.4,453.6 953.5,452.2 953.5,452.2 953.7,450.8 953.8,449.8 954.3,444.9 954.7,447.4 954.8,447.4 955.1,447.0 955.2,451.8 955.4,442.9 955.8,446.8 956.1,447.6 956.7,443.9 956.7,444.6 956.8,440.5 956.8,445.2 957.2,445.3 957.5,445.8 957.7,441.2 957.9,446.1 958.5,437.6 958.8,438.4 959.1,440.1 959.3,437.3 959.5,441.3 960.2,441.9 960.3,446.1 960.7,444.7 961.0,448.1 962.0,445.5 962.4,448.1 962.5,451.0 963.3,449.6 963.6,450.5 963.9,453.6 964.1,460.0 964.6,444.3 964.9,441.3 964.9,437.7 965.0,418.3 965.2,425.0 965.8,427.8 965.9,430.5 966.0,430.5" fill="none" stroke="#cbd5e1" stroke-width="1" clip-path="url(#plot)"/>
  <rect x="97.3" y="208.5" width="0.0" height="48.4" fill="#64748b" fill-opacity="0.08"/><line x1="97.3" y1="208.5" x2="97.3" y2="208.5" stroke="#2563eb" stroke-width="1"/><line x1="97.3" y1="256.9" x2="97.3" y2="256.9" stroke="#dc2626" stroke-width="1"/><line x1="97.3" y1="111.7" x2="97.3" y2="111.7" stroke="#16a34a" stroke-width="1.3" stroke-dasharray="7 4"/><line x1="97.3" y1="353.6" x2="97.3" y2="353.6" stroke="#16a34a" stroke-width="1.3" stroke-dasharray="7 4"/><polyline points="97.3,256.9 97.3,208.5 97.3,256.9 97.3,208.5 97.3,256.9" fill="none" stroke="#94a3b8" stroke-width="1.2"/><line x1="97.3" y1="256.9" x2="97.3" y2="353.6" stroke="#16a34a" stroke-width="1.8"/><circle cx="97.3" cy="353.6" r="4.5" fill="#16a34a"/><text x="97.3" y="242.9" text-anchor="middle" font-size="10.5" fill="#475569">S 0.673</text><circle cx="97.3" cy="256.9" r="9" fill="#e7dcc4" stroke="#dc2626" stroke-width="2"/><text x="97.3" y="260.4" text-anchor="middle" font-size="10" font-weight="700" fill="#3f3f46">1</text><text x="97.3" y="194.5" text-anchor="middle" font-size="10.5" fill="#475569">L 1.01</text><circle cx="97.3" cy="208.5" r="9" fill="#e7dcc4" stroke="#16a34a" stroke-width="2"/><text x="97.3" y="212.0" text-anchor="middle" font-size="10" font-weight="700" fill="#3f3f46">2</text><text x="97.3" y="242.9" text-anchor="middle" font-size="10.5" fill="#475569">S 1.51</text><circle cx="97.3" cy="256.9" r="9" fill="#e7dcc4" stroke="#dc2626" stroke-width="2"/><text x="97.3" y="260.4" text-anchor="middle" font-size="10" font-weight="700" fill="#3f3f46">3</text><text x="97.3" y="194.5" text-anchor="middle" font-size="10.5" fill="#475569">L 2.27</text><circle cx="97.3" cy="208.5" r="9" fill="#e7dcc4" stroke="#16a34a" stroke-width="2"/><text x="97.3" y="212.0" text-anchor="middle" font-size="10" font-weight="700" fill="#3f3f46">4</text><text x="97.3" y="242.9" text-anchor="middle" font-size="10.5" fill="#475569">S 3.41</text><circle cx="97.3" cy="256.9" r="9" fill="#e7dcc4" stroke="#dc2626" stroke-width="2"/><text x="97.3" y="260.4" text-anchor="middle" font-size="10" font-weight="700" fill="#3f3f46">5</text><text x="103.3" y="345.6" text-anchor="start" font-size="11.5" font-weight="700" fill="#16a34a">S61 +93.29</text><rect x="310.6" y="306.2" width="0.0" height="47.5" fill="#64748b" fill-opacity="0.08"/><line x1="310.6" y1="306.2" x2="310.6" y2="306.2" stroke="#2563eb" stroke-width="1"/><line x1="310.6" y1="353.7" x2="310.6" y2="353.7" stroke="#dc2626" stroke-width="1"/><line x1="310.6" y1="211.3" x2="310.6" y2="211.3" stroke="#16a34a" stroke-width="1.3" stroke-dasharray="7 4"/><line x1="310.6" y1="448.7" x2="310.6" y2="448.7" stroke="#16a34a" stroke-width="1.3" stroke-dasharray="7 4"/><polyline points="310.6,353.7 310.6,306.2 310.6,353.7 310.6,306.2 310.6,353.7" fill="none" stroke="#94a3b8" stroke-width="1.2"/><line x1="310.6" y1="353.7" x2="310.6" y2="448.7" stroke="#16a34a" stroke-width="1.8"/><circle cx="310.6" cy="448.7" r="4.5" fill="#16a34a"/><text x="310.6" y="339.7" text-anchor="middle" font-size="10.5" fill="#475569">S 0.700</text><circle cx="310.6" cy="353.7" r="9" fill="#e7dcc4" stroke="#dc2626" stroke-width="2"/><text x="310.6" y="357.2" text-anchor="middle" font-size="10" font-weight="700" fill="#3f3f46">1</text><text x="310.6" y="292.2" text-anchor="middle" font-size="10.5" fill="#475569">L 1.05</text><circle cx="310.6" cy="306.2" r="9" fill="#e7dcc4" stroke="#16a34a" stroke-width="2"/><text x="310.6" y="309.7" text-anchor="middle" font-size="10" font-weight="700" fill="#3f3f46">2</text><text x="310.6" y="339.7" text-anchor="middle" font-size="10.5" fill="#475569">S 1.58</text><circle cx="310.6" cy="353.7" r="9" fill="#e7dcc4" stroke="#dc2626" stroke-width="2"/><text x="310.6" y="357.2" text-anchor="middle" font-size="10" font-weight="700" fill="#3f3f46">3</text><text x="310.6" y="292.2" text-anchor="middle" font-size="10.5" fill="#475569">L 2.36</text><circle cx="310.6" cy="306.2" r="9" fill="#e7dcc4" stroke="#16a34a" stroke-width="2"/><text x="310.6" y="309.7" text-anchor="middle" font-size="10" font-weight="700" fill="#3f3f46">4</text><text x="310.6" y="339.7" text-anchor="middle" font-size="10.5" fill="#475569">S 3.54</text><circle cx="310.6" cy="353.7" r="9" fill="#e7dcc4" stroke="#dc2626" stroke-width="2"/><text x="310.6" y="357.2" text-anchor="middle" font-size="10" font-weight="700" fill="#3f3f46">5</text><text x="316.6" y="440.7" text-anchor="start" font-size="11.5" font-weight="700" fill="#16a34a">S62 +95.27</text><rect x="940.8" y="402.5" width="0.0" height="46.6" fill="#64748b" fill-opacity="0.08"/><line x1="940.8" y1="402.5" x2="940.8" y2="402.5" stroke="#2563eb" stroke-width="1"/><line x1="940.8" y1="449.1" x2="940.8" y2="449.1" stroke="#dc2626" stroke-width="1"/><line x1="940.8" y1="309.3" x2="940.8" y2="309.3" stroke="#16a34a" stroke-width="1.3" stroke-dasharray="7 4"/><line x1="940.8" y1="542.3" x2="940.8" y2="542.3" stroke="#16a34a" stroke-width="1.3" stroke-dasharray="7 4"/><polyline points="940.8,449.1 940.8,402.5 940.8,449.1 940.8,402.5 940.8,449.1 940.8,402.5" fill="none" stroke="#94a3b8" stroke-width="1.2"/><line x1="940.8" y1="402.5" x2="940.8" y2="449.1" stroke="#dc2626" stroke-width="1.8"/><circle cx="940.8" cy="449.1" r="4.5" fill="#dc2626"/><text x="940.8" y="435.1" text-anchor="middle" font-size="10.5" fill="#475569">S 0.729</text><circle cx="940.8" cy="449.1" r="9" fill="#e7dcc4" stroke="#dc2626" stroke-width="2"/><text x="940.8" y="452.6" text-anchor="middle" font-size="10" font-weight="700" fill="#3f3f46">1</text><text x="940.8" y="388.5" text-anchor="middle" font-size="10.5" fill="#475569">L 1.09</text><circle cx="940.8" cy="402.5" r="9" fill="#e7dcc4" stroke="#16a34a" stroke-width="2"/><text x="940.8" y="406.0" text-anchor="middle" font-size="10" font-weight="700" fill="#3f3f46">2</text><text x="940.8" y="435.1" text-anchor="middle" font-size="10.5" fill="#475569">S 1.64</text><circle cx="940.8" cy="449.1" r="9" fill="#e7dcc4" stroke="#dc2626" stroke-width="2"/><text x="940.8" y="452.6" text-anchor="middle" font-size="10" font-weight="700" fill="#3f3f46">3</text><text x="940.8" y="388.5" text-anchor="middle" font-size="10.5" fill="#475569">L 2.46</text><circle cx="940.8" cy="402.5" r="9" fill="#e7dcc4" stroke="#16a34a" stroke-width="2"/><text x="940.8" y="406.0" text-anchor="middle" font-size="10" font-weight="700" fill="#3f3f46">4</text><text x="940.8" y="435.1" text-anchor="middle" font-size="10.5" fill="#475569">S 3.69</text><circle cx="940.8" cy="449.1" r="9" fill="#e7dcc4" stroke="#dc2626" stroke-width="2"/><text x="940.8" y="452.6" text-anchor="middle" font-size="10" font-weight="700" fill="#3f3f46">5</text><text x="940.8" y="388.5" text-anchor="middle" font-size="10.5" fill="#475569">L 5.53</text><circle cx="940.8" cy="402.5" r="9" fill="#e7dcc4" stroke="#16a34a" stroke-width="2"/><text x="940.8" y="406.0" text-anchor="middle" font-size="10" font-weight="700" fill="#3f3f46">6</text><text x="946.8" y="441.1" text-anchor="start" font-size="11.5" font-weight="700" fill="#dc2626">S63 -1169</text>
  <rect x="982.0" y="68" width="10" height="10" fill="#dc2626"/><text x="998.0" y="77" font-size="12" font-weight="700" fill="#334155">Series 61 · win</text><text x="982.0" y="94" font-size="11.5" fill="#64748b">5 steps · short-start</text><text x="982.0" y="110" font-size="11.5" fill="#16a34a">net +93.29 · gross +105.95</text><rect x="982.0" y="126" width="10" height="10" fill="#dc2626"/><text x="998.0" y="135" font-size="12" font-weight="700" fill="#334155">Series 62 · win</text><text x="982.0" y="152" font-size="11.5" fill="#64748b">5 steps · short-start</text><text x="982.0" y="168" font-size="11.5" fill="#16a34a">net +95.27 · gross +108.19</text><rect x="982.0" y="184" width="10" height="10" fill="#dc2626"/><text x="998.0" y="193" font-size="12" font-weight="700" fill="#334155">Series 63 · loss</text><text x="982.0" y="210" font-size="11.5" fill="#64748b">6 steps · short-start</text><text x="982.0" y="226" font-size="11.5" fill="#dc2626">net -1169 · gross -1148</text>
  <text x="72" y="626" text-anchor="start" font-size="11" fill="#94a3b8">2019-10-01</text><text x="966" y="626" text-anchor="end" font-size="11" fill="#94a3b8">2019-10-03</text>
</svg>
