<svg xmlns="http://www.w3.org/2000/svg" width="1180" height="540" font-family="ui-sans-serif, system-ui, sans-serif" viewBox="0 0 1180 540"><rect width="1180" height="540" fill="#fff"/><text x="86" y="28" fill="#111827" font-size="18" font-weight="700">Effective taker fee rate per scenario (basis points)</text><text x="86" y="48" fill="#6b7280" font-size="12.5">break-even rate for this strategy ≈ 1.620 bps — scenarios above lose, below profit</text><line x1="86" x2="1152" y1="476" y2="476" stroke="#eef2f7" stroke-width="1"/><text x="76" y="480" fill="#94a3b8" font-size="11.5" text-anchor="end">-0.40</text><line x1="86" x2="1152" y1="393.6" y2="393.6" stroke="#eef2f7" stroke-width="1"/><text x="76" y="397.6" fill="#94a3b8" font-size="11.5" text-anchor="end">0.80</text><line x1="86" x2="1152" y1="311.2" y2="311.2" stroke="#eef2f7" stroke-width="1"/><text x="76" y="315.2" fill="#94a3b8" font-size="11.5" text-anchor="end">2.00</text><line x1="86" x2="1152" y1="228.8" y2="228.8" stroke="#eef2f7" stroke-width="1"/><text x="76" y="232.8" fill="#94a3b8" font-size="11.5" text-anchor="end">3.20</text><line x1="86" x2="1152" y1="146.4" y2="146.4" stroke="#eef2f7" stroke-width="1"/><text x="76" y="150.4" fill="#94a3b8" font-size="11.5" text-anchor="end">4.40</text><line x1="86" x2="1152" y1="64" y2="64" stroke="#eef2f7" stroke-width="1"/><text x="76" y="68" fill="#94a3b8" font-size="11.5" text-anchor="end">5.60</text><rect width="64" height="343.3" x="130.1" y="105.2" fill="hsl(0, 68%, 45%)" rx="2"/><text x="162.1" y="98.2" fill="#334155" font-size="11.5" font-weight="700" text-anchor="middle">+5.00 bps</text><text x="162.1" y="494" fill="#475569" font-size="11.5" text-anchor="middle">Regular · USDT</text><rect width="64" height="309" x="282.4" y="139.5" fill="hsl(20.833333333333332, 68%, 45%)" rx="2"/><text x="314.4" y="132.5" fill="#334155" font-size="11.5" font-weight="700" text-anchor="middle">+4.50 bps</text><text x="314.4" y="494" fill="#475569" font-size="11.5" text-anchor="middle">Regular · USDT · BNB</text><rect width="64" height="219.7" x="434.7" y="228.8" fill="hsl(41.666666666666664, 68%, 45%)" rx="2"/><text x="466.7" y="221.8" fill="#334155" font-size="11.5" font-weight="700" text-anchor="middle">+3.20 bps</text><text x="466.7" y="494" fill="#475569" font-size="11.5" text-anchor="middle">VIP 3 · USDT</text><rect width="64" height="171.7" x="587" y="276.9" fill="hsl(62.5, 68%, 45%)" rx="2"/><text x="619" y="269.9" fill="#334155" font-size="11.5" font-weight="700" text-anchor="middle">+2.50 bps</text><text x="619" y="494" fill="#475569" font-size="11.5" text-anchor="middle">VIP 6 · USDT</text><rect width="64" height="116.7" x="739.3" y="331.8" fill="hsl(83.33333333333333, 68%, 45%)" rx="2"/><text x="771.3" y="324.8" fill="#334155" font-size="11.5" font-weight="700" text-anchor="middle">+1.70 bps</text><text x="771.3" y="494" fill="#475569" font-size="11.5" text-anchor="middle">VIP 9 · USDT</text><rect width="64" height="64.5" x="891.6" y="384" fill="hsl(104.16666666666667, 68%, 45%)" rx="2"/><text x="923.6" y="377" fill="#334155" font-size="11.5" font-weight="700" text-anchor="middle">+0.94 bps</text><text x="923.6" y="494" fill="#475569" font-size="11.5" text-anchor="middle">VIP 9 · USDC</text><rect width="64" height="58.1" x="1043.9" y="390.4" fill="hsl(125, 68%, 45%)" rx="2"/><text x="1075.9" y="383.4" fill="#334155" font-size="11.5" font-weight="700" text-anchor="middle">+0.85 bps</text><text x="1075.9" y="494" fill="#475569" font-size="11.5" text-anchor="middle">VIP 9 · USDC · BNB</text><line x1="86" x2="1152" y1="448.5" y2="448.5" stroke="#334155" stroke-width="1.4"/></svg>