<?xml version="1.0" encoding="UTF-8"?>
<svg xmlns="http://www.w3.org/2000/svg" width="1180" height="540" viewBox="0 0 1180 540" font-family="ui-sans-serif, system-ui, sans-serif">
  <rect width="1180" height="540" fill="#ffffff"/>
  <text x="86" y="28" font-size="18" font-weight="700" fill="#111827">Effective taker fee rate per scenario (basis points)</text>
  <text x="86" y="48" font-size="12.5" fill="#6b7280">break-even rate for this strategy ≈ 1.620 bps — scenarios above lose, below profit</text>
  <line x1="86" y1="476.0" x2="1152" y2="476.0" stroke="#eef2f7" stroke-width="1"/><text x="76" y="480.0" text-anchor="end" font-size="11.5" fill="#94a3b8">-0.40</text><line x1="86" y1="393.6" x2="1152" y2="393.6" stroke="#eef2f7" stroke-width="1"/><text x="76" y="397.6" text-anchor="end" font-size="11.5" fill="#94a3b8">0.80</text><line x1="86" y1="311.2" x2="1152" y2="311.2" stroke="#eef2f7" stroke-width="1"/><text x="76" y="315.2" text-anchor="end" font-size="11.5" fill="#94a3b8">2.00</text><line x1="86" y1="228.8" x2="1152" y2="228.8" stroke="#eef2f7" stroke-width="1"/><text x="76" y="232.8" text-anchor="end" font-size="11.5" fill="#94a3b8">3.20</text><line x1="86" y1="146.4" x2="1152" y2="146.4" stroke="#eef2f7" stroke-width="1"/><text x="76" y="150.4" text-anchor="end" font-size="11.5" fill="#94a3b8">4.40</text><line x1="86" y1="64.0" x2="1152" y2="64.0" stroke="#eef2f7" stroke-width="1"/><text x="76" y="68.0" text-anchor="end" font-size="11.5" fill="#94a3b8">5.60</text>
  <rect x="130.1" y="105.2" width="64.0" height="343.3" fill="hsl(0, 68%, 45%)" rx="2"/><text x="162.1" y="98.2" text-anchor="middle" font-size="11.5" font-weight="700" fill="#334155">+5.00 bps</text><text x="162.1" y="494.0" text-anchor="middle" font-size="11.5" fill="#475569">Regular · USDT</text><rect x="282.4" y="139.5" width="64.0" height="309.0" fill="hsl(20.833333333333332, 68%, 45%)" rx="2"/><text x="314.4" y="132.5" text-anchor="middle" font-size="11.5" font-weight="700" fill="#334155">+4.50 bps</text><text x="314.4" y="494.0" text-anchor="middle" font-size="11.5" fill="#475569">Regular · USDT · BNB</text><rect x="434.7" y="228.8" width="64.0" height="219.7" fill="hsl(41.666666666666664, 68%, 45%)" rx="2"/><text x="466.7" y="221.8" text-anchor="middle" font-size="11.5" font-weight="700" fill="#334155">+3.20 bps</text><text x="466.7" y="494.0" text-anchor="middle" font-size="11.5" fill="#475569">VIP 3 · USDT</text><rect x="587.0" y="276.9" width="64.0" height="171.7" fill="hsl(62.5, 68%, 45%)" rx="2"/><text x="619.0" y="269.9" text-anchor="middle" font-size="11.5" font-weight="700" fill="#334155">+2.50 bps</text><text x="619.0" y="494.0" text-anchor="middle" font-size="11.5" fill="#475569">VIP 6 · USDT</text><rect x="739.3" y="331.8" width="64.0" height="116.7" fill="hsl(83.33333333333333, 68%, 45%)" rx="2"/><text x="771.3" y="324.8" text-anchor="middle" font-size="11.5" font-weight="700" fill="#334155">+1.70 bps</text><text x="771.3" y="494.0" text-anchor="middle" font-size="11.5" fill="#475569">VIP 9 · USDT</text><rect x="891.6" y="384.0" width="64.0" height="64.5" fill="hsl(104.16666666666667, 68%, 45%)" rx="2"/><text x="923.6" y="377.0" text-anchor="middle" font-size="11.5" font-weight="700" fill="#334155">+0.94 bps</text><text x="923.6" y="494.0" text-anchor="middle" font-size="11.5" fill="#475569">VIP 9 · USDC</text><rect x="1043.9" y="390.4" width="64.0" height="58.1" fill="hsl(125, 68%, 45%)" rx="2"/><text x="1075.9" y="383.4" text-anchor="middle" font-size="11.5" font-weight="700" fill="#334155">+0.85 bps</text><text x="1075.9" y="494.0" text-anchor="middle" font-size="11.5" fill="#475569">VIP 9 · USDC · BNB</text>
  <line x1="86" y1="448.5" x2="1152" y2="448.5" stroke="#334155" stroke-width="1.4"/>
</svg>
