<svg xmlns="http://www.w3.org/2000/svg" width="1000" height="520" font-family="ui-sans-serif, system-ui, sans-serif" viewBox="0 0 1000 520"><rect width="1000" height="520" fill="#fff"/><text x="78" y="28" fill="#111827" font-size="18" font-weight="700">Zone Recovery — BNBUSDC best setting (equity / PnL)</text><text x="78" y="48" fill="#6b7280" font-size="12.5">lev 25 · ratio 4 · gap 20% · maxSteps 4 · maxDD 60% · random · vip 9 · 15 series, 86.7% win · vol $46047050 ($1485390/day) · fees $3896</text><text x="78" y="68" fill="#1d4ed8" font-size="12.5" font-weight="600">USDC · BNB −10% · taker 0.0085%</text><text x="934" y="28" fill="#16a34a" font-size="18" font-weight="700" text-anchor="end">+122839 USDT (+1228.39%)</text><line x1="78" x2="934" y1="468" y2="468" stroke="#e5e7eb" stroke-width="1"/><text x="68" y="472" fill="#6b7280" font-size="12" text-anchor="end">0.00</text><line x1="78" x2="934" y1="392" y2="392" stroke="#e5e7eb" stroke-width="1"/><text x="68" y="396" fill="#6b7280" font-size="12" text-anchor="end">29590</text><line x1="78" x2="934" y1="316" y2="316" stroke="#e5e7eb" stroke-width="1"/><text x="68" y="320" fill="#6b7280" font-size="12" text-anchor="end">59179</text><line x1="78" x2="934" y1="240" y2="240" stroke="#e5e7eb" stroke-width="1"/><text x="68" y="244" fill="#6b7280" font-size="12" text-anchor="end">88769</text><line x1="78" x2="934" y1="164" y2="164" stroke="#e5e7eb" stroke-width="1"/><text x="68" y="168" fill="#6b7280" font-size="12" text-anchor="end">118359</text><line x1="78" x2="934" y1="88" y2="88" stroke="#e5e7eb" stroke-width="1"/><text x="68" y="92" fill="#6b7280" font-size="12" text-anchor="end">147948</text><line x1="78" x2="934" y1="442.3" y2="442.3" stroke="#9ca3af" stroke-dasharray="6 4" stroke-width="1.5"/><text x="934" y="436.3" fill="#6b7280" font-size="11" text-anchor="end">start 10000</text><polyline fill="none" stroke="#d97706" stroke-linejoin="round" stroke-width="1.2" points="78 261.3 78.5 258.6 79.3 255.6 79.4 253.6 79.8 253.5 80.2 250.7 80.3 247.4 80.7 248.5 81 250.7 81.5 247.6 82.1 253.6 82.8 255.5 83.3 258.7 83.6 263.4 83.8 262.3 84 260.9 84.2 261.1 84.5 261.5 84.8 262 85 262.7 85.3 261.9 85.6 262.2 86 265 86.3 265.9 86.6 268.7 86.8 267.6 87.2 268.3 87.4 267.3 87.7 267.3 88 267.5 88.3 265.8 88.6 266.3 88.9 266.5 89.3 266.7 89.6 266.6 89.9 267 90.3 265.8 90.7 266 91.2 266.7 91.6 265.6 92 267.2 92.3 272.2 92.4 272.5 92.6 270.7 92.9 269.4 93.2 267.6 93.8 268.1 94.5 270 94.8 270.6 95.1 270.1 95.4 271.6 95.6 271.4 95.8 271.5 96 269 96.1 268.1 96.3 269.2 96.5 268.3 96.7 269.2 97 269.5 97.3 270.8 97.7 270.5 97.9 269.6 98.1 267.4 98.4 267.2 99 268.9 99.3 268.8 99.7 267.8 100.3 268.5 100.7 266.5 100.9 266.1 101.1 265.9 101.7 267.1 102 266.3 102.4 264.9 103.7 264.6 104.5 262.3 105.1 261.9 105.8 264.5 106.4 262.4 106.9 261 107.3 263.5 107.7 263.2 108.1 265.7 108.4 267.6 108.6 266.4 108.9 263.7 109.2 262.9 109.6 261.6 109.9 258.1 110 257.9 110.4 259.7 110.8 260.8 111.4 261 111.9 261.3 112.4 257 113 258.8 113.4 256.6 114 257.5 114.4 259.2 114.9 257.8 115 255.7 115.3 255.4 115.7 256.1 116.2 254.5 116.4 254 116.8 251.3 116.9 249.9 117 250.8 117.3 249.1 117.3 248.4 117.5 247.8 117.8 248.8 118.2 248.6 118.5 253.3 119 253 119.2 254.1 119.7 251.5 120.1 251.6 120.4 251.8 120.9 251.2 121.2 250 121.7 251.8 122 252.1 122.1 255.9 122.3 254.5 122.4 257.3 122.5 251.6 122.5 250 122.6 250 122.7 244.2 122.7 240.6 122.7 243.5 122.8 244.2 122.9 239.2 122.9 243.9 123 242.5 123.1 246.6 123.2 248.1 123.3 249.9 123.5 246.2 123.6 241.5 123.6 239.2 123.7 238.2 123.7 235.1 123.8 235.3 123.8 233.2 123.9 237.9 124 240.5 124.1 237.5 124.2 238.1 124.3 234.5 124.4 234.4 124.5 234.7 124.6 231.7 124.6 229 124.7 229.3 124.7 226.3 124.7 225.9 124.8 225.9 124.9 230.1 125 229.5 125.1 227.5 125.2 224 125.3 221.3 125.3 222.6 125.4 222 125.5 219.8 125.6 220.5 125.7 223.5 125.8 224.3 125.9 227 126 226.1 126.2 228.6 126.4 224.4 126.7 225.3 126.9 228.4 127 231.5 127.1 230.6 127.3 234.5 127.4 234.5 127.7 234.2 128 234.3 128.4 233.3 128.7 233.2 129.1 235 129.6 236.8 130.2 236.5 130.8 233.2 131 229.7 131.3 228.9 131.7 231.2 132.1 228.6 132.5 230.8 132.9 233 133.3 232.8 133.6 232.6 134 234.9 134.4 234.2 134.8 236.2 135.3 235.2 135.6 240.4 135.6 242.9 135.9 240.9 136.3 239 136.7 239.1 137.2 240.1 137.9 236.9 138.3 237.1 138.7 237.8 139.2 238.4 139.7 243.5 140.3 242.8 140.9 245.4 141.1 246 141.5 243.7 141.6 248.1 141.7 249.7 141.8 251.8 141.9 249.8 142.1 247.7 142.4 247.4 142.7 247 143 246 143.3 242.8 143.6 243.9 144.2 244.1 144.5 242.8 145 245.4 145.5 245.1 146.2 247.1 146.8 245.2 147.5 244.3 148 243.6 148.8 240.6 149.5 241.7 149.9 245.7 150.2 244.3 150.7 247.1 151 245.5 151.6 246.1 152 243.7 152.4 242.6 152.8 243 153.5 241 154.1 242.8 154.6 240.7 155.6 241 156.4 242.4 157 240.8 158 237.2 158.8 237.5 159.4 237.9 159.9 238.1 160.6 237.6 160.9 233.1 161 233.9 161.1 233.1 161.3 234.7 161.6 235.5 161.9 234.4 162.2 232.8 162.4 232.4 162.8 234.7 163.3 233.5 163.8 234 164.5 233.9 164.9 233.9 165.3 230.9 165.8 229 166.1 226.9 166.3 221.3 166.4 223 166.6 224.1 166.8 226.3 167.1 224.1 167.6 223.2 168 222.3 168.2 224.2 168.6 228.2 168.8 228 169.2 229.7 169.8 228.5 170.1 231.5 170.5 230.7 171 226.3 171.5 228.3 171.9 228.2 172.4 226.3 172.8 225.8 173.3 225.5 173.8 227.6 174.1 227 174.6 228.9 175 226.5 175.3 226 175.8 225.5 176.2 224.9 176.5 222.2 177 223.7 177.4 226.4 177.8 226.7 178.1 225.2 178.7 224 179 226.2 179.3 220.1 179.3 214.8 179.3 216.6 179.5 217.7 179.7 218.5 180 216 180.1 211.3 180.2 210.1 180.4 209.1 180.5 207.7 180.7 208.5 180.9 204.4 181 204.6 181.1 201.6 181.3 204.1 181.6 204.8 181.7 206.7 182 209.1 182.3 211.8 182.6 212.6 182.8 217.3 183 216.4 183.3 217.3 183.9 215.9 184.1 208.8 184.7 211.5 185.3 210.2 185.8 210.5 186.4 209.9 186.5 215 187.1 215.3 187.5 211.6 187.9 213.6 188.2 214 188.5 208.3 188.6 210.1 188.7 210.3 188.9 210.7 189 212.6 189.3 209 189.4 204.5 189.5 205.9 189.7 204.3 189.8 199.8 189.9 200.4 190.1 202 190.3 200.3 190.3 197.1 190.4 196.8 190.6 199.1 190.8 199.3 191 201.9 191.2 205.8 191.5 204.6 191.9 204.1 192.2 206.4 192.6 204.6 193 205.8 193.3 209.4 193.6 212.6 193.6 216.4 193.7 216.5 193.9 216.6 194.2 212.8 194.9 213.9 195.3 216.6 195.8 213.5 196 212.7 196.2 211 196.4 208.1 196.6 205.5 196.8 208 197.3 206.9 197.8 206.5 198.2 205.5 198.5 209.5 198.8 210.7 199.1 210.5 199.4 207.8 199.7 206.6 200 207.5 200.2 202.9 200.5 198.5 200.6 199.5 200.9 200 201.2 200.7 201.6 197.9 201.8 196.5 201.9 195.6 202.2 193.5 202.3 194.2 202.6 196.1 202.9 197 203.1 197.6 203.3 196.6 203.5 194.7 203.8 197.5 204 198.7 204.1 201.6 204.3 201.6 204.5 200.7 204.7 201.7 205.1 202.5 205.2 201.9 205.2 201.9 205.3 198.5 205.4 198.5 205.4 196.8 205.5 199 205.6 197.1 205.6 195.6 205.7 199.2 205.8 201.3 206 200.8 206.1 200.8 206.3 202.4 206.4 197.3 206.5 195.3 206.6 198.1 206.8 196.4 207 194 207.1 195.9 207.3 194.5 207.4 195.8 207.6 196.5 207.8 198.7 208 198.4 208.3 198.8 208.5 202 208.7 200.6 209 196.7 209.1 195.8 209.3 195.1 209.5 198.4 209.8 197.1 210.1 194.7 210.3 191.9 210.6 194.1 210.8 188.3 210.9 185.1 211.1 188.1 211.5 187.8 211.6 183.3 211.8 184.1 211.9 182.8 212 181.3 212.2 184.1 212.5 186.9 212.8 186.4 213.1 190.9 213.6 186.4 214.2 184.4 214.8 185.8 215.2 186.1 215.4 187.2 215.6 186.8 216 188.6 216.4 191.5 216.6 191.2 216.8 196.8 217.1 193.2 217.3 190.4 217.6 189.3 217.9 190.7 218.1 192.8 218.4 193.8 218.9 193.2 219.2 195.8 219.7 196.1 220.1 194 220.5 194.1 221.1 192 221.8 193 222.3 197.7 222.6 197.1 223.1 196.9 223.4 197.4 223.8 191 224.1 192 224.6 196.4 224.8 196.7 225.1 198.5 225.5 196.3 226 195.4 226.4 192.7 226.6 190.4 226.8 189.2 226.9 183.6 227.1 186.3 227.3 186.2 227.6 186 227.8 184.1 228.3 187.3 228.7 187.3 228.9 185.1 229.4 185.5 229.8 185.3 230.4 186.5 231 185.3 231.5 183.6 232 185.3 232.3 181.4 232.4 179.3 232.5 174.8 232.6 175.1 232.7 173.5 232.8 172.4 232.8 175.3 232.9 171 233.1 173.9 233.1 174.9 233.2 175.3 233.3 174.1 233.5 172 233.6 174.1 233.7 171.4 233.8 173.8 234 169.8 234.1 175.4 234.1 180.2 234.3 176.7 234.4 177.5 234.6 177.1 234.7 181.3 234.8 180.6 235 185.3 235 187.7 235.1 188.3 235.2 190.2 235.3 191.8 235.3 195.4 235.4 195.8 235.5 194.1 235.7 193.9 235.9 194.5 236.1 194 236.3 192.1 236.5 196.6 236.5 203.4 236.6 206.2 236.7 206.4 236.7 210.3 236.7 215.2 236.8 215.3 236.8 213.1 236.9 209.8 237 204.8 237.2 205.3 237.4 203.7 237.7 202 238 204.7 238.4 204.3 238.8 203.5 239.2 200.2 239.5 197.3 240 195.9 240.5 196.3 240.5 188.9 240.6 186.7 240.7 186.3 240.9 184.9 241.1 183.2 241.4 186.3 241.6 182.8 241.9 184.3 242.3 185.1 242.7 180.7 242.9 175.4 243.3 179.2 243.8 179.7 244 178.7 244.3 182.3 244.6 185.5 244.8 192.2 245.1 190.5 245.2 196.5 245.3 192.8 245.6 195.8 245.8 196.9 246.1 196.3 246.3 192.4 246.7 190.6 247.2 188.3 247.5 186.2 248 190.2 248.6 191.3 249.3 189.5 249.8 185.3 250.2 182.9 250.6 185.2 251 183.2 251.3 181.8 251.8 182.9 252.2 181.4 252.6 180.1 252.9 176.1 253.1 176.7 253.3 180.8 253.6 178.2 253.8 181 254 180.2 254.3 181.6 254.4 181.8 254.6 183.5 254.7 185.7 254.9 187.9 255 187.7 255.2 191.6 255.2 193.4 255.3 190.1 255.4 188 255.5 190 255.8 190.8 256 190.7 256.4 188.3 256.6 187.6 257.1 188.6 257.6 192.8 258 194.1 258.5 195.9 258.8 199.7 259 196.6 259.4 197.1 259.8 202.1 259.9 205 260.1 206.1 260.3 204.8 260.4 208.5 260.4 203.2 260.5 199.7 260.7 201.4 260.8 199.1 261 206.3 261.1 205.6 261.2 206.8 261.3 212.3 261.4 208.2 261.5 208.6 261.5 207.7 261.6 205.6 261.7 207.1 261.9 207 262 206.2 262.2 205.8 262.4 205.4 262.6 206.7 262.8 206.6 262.9 207.1 263.1 207.4 263.3 206.7 263.6 206.1 263.8 203.7 264 204.6 264.2 210.9 264.5 210.2 264.7 210.7 264.9 212.5 265 207.3 265.3 210.9 265.5 212.3 265.7 210.8 265.9 215.7 265.9 216 266.1 214.8 266.3 211 266.5 210.3 266.7 210.7 266.9 213 267.2 214.4 267.4 212.8 267.6 213.2 267.9 212.6 268.2 210.7 268.4 209.4 268.7 210.4 269.1 211.2 269.4 209.4 269.6 205.8 269.9 208.7 270.2 211.1 270.4 210.2 270.5 207.2 270.6 205.6 270.7 205.5 270.9 206.4 271.3 205.8 271.5 207.8 271.9 210 272.1 207.6 272.2 203.2 272.4 203.1 272.7 202.2 273 199.8 273.6 203.1 273.8 205.9 273.9 206.6 274.1 211.2 274.2 212.4 274.4 213 274.6 214.3 274.8 211.9 275 210.4 275.3 212.2 275.5 211.8 275.7 215.8 275.8 216.1 276.1 219.5 276.2 217.5 276.4 213.2 276.6 212.9 276.9 213.8 277.2 212.8 277.4 212.3 277.7 213.5 277.9 212.9 278.3 214.8 278.4 218.2 278.5 220.9 278.5 226.5 278.6 228.4 278.7 228 278.7 232.7 278.8 232.6 278.9 228.8 279.1 230.4 279.2 233.9 279.3 236 279.4 239.4 279.4 243.5 279.4 242 279.5 241.2 279.5 239.2 279.7 237.5 279.8 235.3 279.9 233.5 280.1 232.4 280.3 231.7 280.6 228.1 280.9 226.9 281.2 227.8 281.6 232.4 282 230.7 282.3 233.7 282.6 231.5 282.8 237.5 282.9 233.6 283.1 232.5 283.3 229.1 283.5 228.8 283.9 226.2 284.1 228 284.3 229.3 284.4 229.6 284.7 229.3 285.2 228.5 285.3 231.3 285.5 230 285.7 228.7 285.9 232.8 286 229.7 286.3 231.1 286.5 229.4 286.7 228.8 286.9 230.9 287.1 229.6 287.3 229.7 287.5 234.7 287.7 230.5 287.9 234.3 287.9 236.3 288 236.9 288.1 234.8 288.1 236.1 288.2 235.6 288.3 239.7 288.3 233.2 288.4 229.1 288.5 231 288.6 233.2 288.7 228.7 288.8 227.7 288.9 226.7 289 226.3 289.1 224.7 289.2 226.7 289.3 224.6 289.4 226.9 289.6 227.5 289.7 223.5 289.9 224 290 226.1 290.2 225.5 290.4 227.1 290.5 222.9 290.7 222.9 290.9 221.6 291 220.8 291.2 221.4 291.4 224.5 291.6 222.7 291.8 221.9 292 219.4 292.1 220.6 292.3 222.4 292.5 222.8 292.8 224.1 293 223.4 293.3 221 293.5 225.1 293.7 223.6 293.9 221.8 294.2 224.4 294.4 227.7 294.6 227.4 294.9 227.4 295 222.5 295.2 221.1 295.5 220.4 295.9 221.4 296.7 216.7 297.2 217.1 297.8 217.5 298.4 216.3 299.2 216.5 300.2 215.1 300.6 216.4 300.7 216.6 300.8 221.8 300.8 222.5 301.1 222 301.3 218 301.5 216.3 301.7 215.8 302 217.4 302.4 218.9 302.6 216.2 302.8 216.8 303.1 214.4 303.3 212.1 303.5 213 304.1 212.1 304.4 213.5 304.7 210.8 305 211 305.7 210.2 306.3 212.4 306.6 212.3 306.9 211.6 307.2 213.7 307.5 213.1 307.8 213.1 308.1 215.6 308.3 216.7 308.6 214.8 308.8 218.1 309 221.2 309.1 225.9 309.1 226.5 309.3 221.3 309.4 221 309.6 220.1 309.9 220.3 310.2 223.1 310.5 223.5 310.8 222.3 311.1 222.4 311.5 220.9 311.8 220.8 312.1 219.9 312.5 219.5 312.9 221.6 313.2 223.8 313.5 222.8 313.8 222.9 314.1 222.3 314.3 220.3 314.4 217 314.5 222.1 314.6 219.7 314.9 221.3 315.2 221.6 315.3 224.5 315.5 222.9 315.7 225.8 315.7 221.9 315.9 224.8 316 226.7 316.1 225.1 316.2 226.6 316.3 227.9 316.4 225.4 316.5 222.9 316.6 218.1 316.7 214.7 316.7 210.5 316.8 211.6 316.8 207.9 316.9 209.9 316.9 210.8 317 214.2 317.1 213.8 317.2 216.6 317.3 213.9 317.4 210.2 317.5 209.1 317.6 204.8 317.7 205.6 317.8 210 318 210.4 318.2 209 318.4 206.8 318.6 207.2 318.7 209.6 318.9 210.5 319.1 211.2 319.4 210.4 319.5 207.7 319.7 207 319.9 212.9 320.1 213.8 320.2 218.1 320.3 213.3 320.5 213.4 320.8 213 321 215.8 321.2 218.4 321.4 218.5 321.7 217.1 321.9 216.4 322.1 214.8 322.3 213.2 322.5 214.2 322.8 215.3 323.1 216.9 323.3 215.7 323.5 214.1 323.7 213.8 324.1 213.8 324.3 212.1 324.6 213.2 324.9 212.8 325.1 213 325.4 211.7 325.8 211.2 326.8 210.1 327.8 209 328.7 209.1 329.5 206.8 330.2 205.8 330.5 204.8 330.8 199.3 330.9 197.1 331 196.5 331.1 194 331.3 197.4 331.7 200.1 332.1 197.1 332.4 196.7 332.9 194 333.1 192.7 333.6 192 334.1 195.3 334.7 194.5 335.2 196.1 335.9 197.7 336.5 202.2 337 201.4 337.4 205.1 337.6 202.7 337.9 205.6 338.4 202.3 339.2 202.7 340.3 205.6 341.2 206.5 341.8 204 342.6 202.8 343.1 201 343.7 198.7 344.1 196.2 344.4 193.6 344.5 190.5 344.8 192.2 345.2 193 345.6 194.2 346 194.9 346.4 193 347.1 192.7 347.6 191.2 348 188.1 348.3 187.2 348.8 186.8 349.1 183.9 349.3 186.1 349.8 183.9 350.4 188.6 350.8 192.7 351.3 195.3 351.6 198.2 351.8 199.6 352.3 202.2 353 200.1 353.6 197.2 354.4 193.2 355.1 197.2 355.8 197.8 356.2 194.6 357 193.2 357.5 191.1 358.2 191.6 358.8 187.5 359.1 188.5 359.6 186.4 360.5 188.6 361 186 361.6 187.7 362.4 184.9 363 184.8 363.2 184.7 363.9 185.5 364.4 180.8 364.9 183.1 365.3 188 365.9 186.3 367.3 187.2 368.5 186.8 369.1 186.2 369.9 186.6 370.6 184.4 371.1 187.3 371.4 188.9 371.6 189.4 371.8 193.1 372 193 372.3 196.5 372.6 192.5 373.1 192.9 373.2 189.8 373.4 191.8 373.8 193.9 374.4 195.7 375.2 197.9 375.9 196.2 376.6 197.8 377 200.2 377.2 200.6 377.4 202.8 377.5 204.3 377.8 204.1 378.1 204.1 378.4 205.5 378.6 204 378.9 202.1 379.2 201.2 379.5 202.7 379.8 204.1 380.1 202 380.3 200.8 380.6 204.4 380.7 208.6 380.9 203.8 381 199.9 381.2 202.6 381.4 202.3 381.8 197.6 382 201.7 382.1 200.6 382.3 201.1 382.5 203.7 382.6 206.6 382.7 210.5 382.8 205.7 382.9 203 383 199.7 383.1 200.8 383.3 201.3 383.4 201.3 383.6 205.3 383.7 203.6 383.9 200.9 384.1 202.8 384.3 200.2 384.4 196.9 384.5 198.5 384.8 197.3 384.9 195.6 385 192.7 385.2 194 385.3 194.8 385.5 191.2 385.6 191.8 385.8 195.7 386.1 196.7 386.3 198.7 386.6 197.3 386.8 195 387.1 193.4 387.9 192.5 388.7 194.8 388.9 193.3 389.2 194.5 389.5 195 389.9 195.1 390.2 198.7 390.5 199.8 390.7 199.4 391 199.2 391.1 195.1 391.3 194.4 391.5 196.4 391.6 202.1 391.7 202 391.9 206.3 392 201.4 392.1 201.9 392.3 201.6 392.6 202 392.8 203.1 393.2 205.8 393.4 204 393.6 206.2 394 206.1 394.3 208.1 394.5 206.5 394.8 206 395 204.5 395.2 204.8 395.6 205.5 395.9 204.6 396.2 204.1 396.4 205.6 396.6 201.8 396.8 204.7 397 207.2 397.3 206.4 397.6 207.1 397.8 206.5 398.2 208.4 398.3 212 398.3 214.8 398.4 212.3 398.5 208.1 398.6 207.1 398.7 207.5 398.8 205.7 398.9 206.7 399.1 207.4 399.3 205.3 399.4 204.3 399.6 203.3 399.7 201 399.9 200.9 400.1 200.1 400.3 198.5 400.5 197.7 400.7 193.8 400.9 197.8 401.3 197.3 401.7 196.2 401.9 201.9 402 205.6 402.1 202.4 402.3 200 402.5 198.9 402.7 195.3 402.9 194.8 403.1 197.2 403.4 195.3 403.6 194.2 403.8 194.9 404 193.3 404.2 194.6 404.6 194.4 404.8 193.8 405.1 196.3 405.5 197.5 405.8 197.2 406 199.8 406.3 196.4 406.6 200 407 204 407.2 200.1 407.4 199.9 407.7 197.6 407.9 196.1 408.4 199.3 409.2 195.7 409.6 199.5 410.1 195.8 410.8 195.7 411.3 202.2 411.9 200.9 412.7 199.2 413.2 199.2 413.7 198.2 414.3 194.9 414.8 193.7 415.3 191.6 415.6 192.7 415.8 191.5 416.4 192.5 416.9 190.4 417.4 188.1 417.5 184.5 417.8 184.7 418 187.6 418.4 187.4 418.6 191.2 418.7 191 418.9 190.7 419.2 188.9 419.5 189.7 419.8 188.9 420.1 190 420.3 191.4 420.5 192.8 420.6 193 420.8 191.8 420.9 194.3 420.9 192.1 421 192 421 190.3 421.2 192.5 421.4 192.3 421.7 191.3 422.3 193.6 422.9 193.9 423.7 194.5 424.3 192 424.9 188.1 424.9 185.9 425 189.2 425.3 190.2 425.7 192 426.1 189.4 426.2 186.7 426.3 186.9 426.4 189.4 426.7 192.3 426.9 187.9 427.2 189.2 427.3 182.2 427.5 184.8 427.7 180.3 427.8 177.2 428 176.9 428.1 179.7 428.2 177.4 428.4 175.3 428.5 171.4 428.7 172.3 428.9 174.1 429.1 177.2 429.4 175.6 429.7 175.7 430 174.8 430.2 169.8 430.2 162.7 430.3 159 430.3 155 430.3 146.5 430.4 149.1 430.4 148.1 430.5 148.3 430.7 150.3 430.9 153.9 431 149 431.2 146.4 431.2 138.6 431.3 139.3 431.4 140.4 431.6 142.9 431.9 143.2 432.1 144.1 432.4 140.8 432.5 136.6 432.7 138.2 432.7 139.2 432.9 138.6 433.1 142.4 433.3 140.8 433.5 138.8 433.9 140.9 434.2 139.9 434.6 140.7 434.8 137.3 434.9 131.4 434.9 126.9 434.9 125.7 434.9 130.8 435 129.1 435 135.8 435.1 132.1 435.2 135.1 435.4 139.1 435.6 132.5 435.8 134.7 435.9 133.7 436.1 132.9 436.3 136.3 436.6 140.3 436.9 139.1 437.1 138.3 437.3 134.9 437.5 134.7 437.9 133.5 438.2 133.6 438.5 128.5 438.8 127.1 439.1 133.3 439.5 128.3 439.6 123.9 439.9 129.3 440.3 132.9 440.9 132.7 441.4 128.5 441.7 128.6 441.8 136.1 442 135.8 442.5 137.9 443.1 141.5 443.4 141.1 443.9 144 444.1 146.6 444.4 148.7 444.7 145.6 445.2 144.3 445.7 149.3 446.1 147.9 446.8 148.7 447.3 149.5 447.6 147.7 447.9 147.6 448.3 148.3 448.6 147.5 448.9 149.1 449 150.6 449.2 150.9 449.5 149 449.7 153.2 449.8 156.2 449.9 159.6 450.1 157.7 450.3 157.7 450.5 157.8 450.8 161.1 451 158 451.1 155.6 451.3 153.2 451.8 152.6 452.4 151.7 452.8 154.8 453.1 155.6 453.2 150 453.4 149 453.5 148.2 453.7 147.2 453.8 146.7 453.9 145.4 454 143 454.1 141.5 454.1 139.4 454.2 142 454.3 144.2 454.5 138.8 454.5 136.7 454.6 140 454.8 141.4 455 142.4 455.1 143.7 455.4 140.3 455.6 136.1 455.8 136 456 133 456.1 136 456.3 133.6 456.5 138.4 456.9 135.7 457.1 136.3 457.2 142.3 457.4 135.9 457.6 138.9 457.9 140.1 458.1 137.3 458.4 143.9 458.5 142.4 458.7 140.4 458.9 138.5 459.2 137.4 459.4 134.2 459.5 137.4 460 137.6 460.2 131.8 460.5 136.8 460.9 134.4 461.2 137.4 461.8 134.5 462.4 133.3 462.8 132.3 463.2 133.8 463.6 128.9 463.9 129.6 464.4 129.2 464.8 133.3 465.2 136.7 465.5 141.5 465.8 140.2 466.1 144.6 466.4 149.3 466.5 146.9 466.7 151.2 466.9 148.5 467 145.6 467.3 147.1 467.5 146.1 467.6 151.1 467.8 150.2 467.9 153.8 468 154.3 468.2 153.5 468.4 155.9 468.6 157.5 468.7 156.8 468.8 159.9 468.9 158.3 469.2 157.2 469.4 154.2 469.5 151.3 469.8 151.6 470.4 149.5 470.9 148.5 471.4 149.5 472 149.7 472.6 153.1 473.1 146.8 473.5 144.8 474.2 145.9 474.6 144.1 475 141.6 475.5 144.3 475.9 140.2 476.5 141.9 477.6 144.4 478.4 146.3 479.4 144.5 480 140.2 480.3 141.8 480.7 138.5 481.2 139.4 481.3 141.1 481.4 144.4 481.5 150.6 481.6 152.8 481.6 145.3 481.7 144.5 481.8 145.8 482 147.4 482.1 145 482.2 145.8 482.3 150 482.4 151.7 482.5 152.5 482.6 154.8 482.7 155.5 482.8 157.2 482.9 157.4 482.9 151 483 147.7 483 150.2 483.2 150.4 483.3 148.1 483.4 146.6 483.7 148.3 483.9 143.6 484.3 145.6 484.7 143.7 485 140.2 485.2 146.7 485.5 150.6 485.6 151.3 485.8 151.1 486 153.4 486.2 154 486.4 155.2 486.5 163.6 486.5 163.7 486.6 163.1 486.8 161.9 487 166.1 487.1 164.2 487.2 165.5 487.4 161.8 487.6 163.1 487.8 161.2 488 164.2 488.3 164 488.5 167.1 488.7 166.6 488.9 164.8 489.2 161 490.1 159.1 490.7 154.9 491.3 156.7 492 157 492.6 155.2 493.3 154.3 493.9 156.4 494.6 158.4 495.2 155.7 495.8 155.5 496.8 160 497.5 161 497.6 161.4 498 161.4 498.2 159.9 498.5 159.4 498.7 156.3 498.9 153.7 499.3 155.4 499.9 151.6 500.6 150.7 501.4 152.2 502 148.3 502.6 148.5 503.5 151.6 504.6 153.5 505.2 154.9 505.8 153.1 506.4 148.4 507.1 152.1 507.6 152.7 508 154.2 508.3 152.2 508.5 152 508.8 152.7 508.9 155.5 509 155.1 509.2 155.9 509.4 157 509.5 160.2 509.6 155.1 509.8 155.9 509.9 161.1 510 160.4 510 163 510.1 167.8 510.2 164 510.3 165.1 510.4 168.4 510.4 165.6 510.6 163.7 510.7 162.7 510.9 162.5 511 158.8 511.2 160.8 511.3 159.3 511.6 158.9 511.8 160.1 512 160.9 512.3 161.8 512.5 158.3 512.7 158.7 512.9 157.5 513.2 157.7 513.4 156.5 513.8 157.3 514 157.4 514.3 159.4 514.6 159.3 514.9 157.8 515.2 158 515.5 160.2 515.7 157 515.9 155.4 516.4 152.4 517 152.4 517.6 151.8 518.3 150.8 518.8 146.6 519.4 147.6 520.1 146.5 521 150.1 521.9 147.1 522.6 150.3 523.8 149.1 524.9 149.8 526.3 147.8 527.2 148.9 528 150.7 529 150.7 530.4 147.2 531.1 142.6 531.5 139.2 531.9 141.6 532.7 141.9 533.3 139.3 534.1 139 534.6 140.3 535.1 139.9 535.5 141.7 535.8 139.8 536.1 140.7 536.4 140.7 536.7 138.4 537 138.9 537.3 139.7 537.5 135.3 537.7 136.5 537.9 134.8 538 131.1 538.1 131.7 538.1 123.3 538.1 116.2 538.1 119 538.1 120.1 538.1 120.8 538.2 120.6 538.3 122.6 538.4 124.8 538.5 122.3 538.7 128.9 538.9 129.7 539.1 125.8 539.3 128 539.6 126.6 539.7 124.6 539.9 125.1 540.3 124.8 540.5 124.8 541 126.2 541.3 123.6 541.6 123.4 541.9 124.8 542.3 125.1 542.6 125.2 542.9 125.1 543.2 125 543.7 128.3 543.9 125.9 544.3 124.4 544.7 126.7 545.2 127.5 545.5 125.5 545.7 127.8 545.9 131.1 546 135.8 546.2 132.9 546.4 132.1 546.7 132.5 547 132.7 547.4 133.8 547.7 131.2 547.8 131.5 548.1 130.7 548.4 133.5 548.7 137.3 548.8 138.7 549.1 137.5 549.3 134.9 549.6 136.2 549.8 134.1 550.1 133 550.3 135.7 550.6 134.6 550.9 134.4 551.1 133.1 551.4 130.7 552 127.6 552.6 130.8 553.8 132.6 554.8 132.9 555 133 555.4 134.3 555.7 133.9 556 134.5 556.3 133.5 556.6 137.1 557 137.5 557.3 135.3 557.5 134.3 558.4 135.1 558.8 135.4 559.1 137.2 559.5 137.1 559.9 136.1 560.3 137 560.7 136.1 560.9 133.8 561.2 134.2 561.6 133.5 561.8 132.1 562.2 131.4 562.7 133.4 562.9 135.1 563.2 131.8 563.5 133.8 563.8 130.8 564.1 133.1 564.4 132.9 564.7 135.8 564.9 135.1 565.2 133.8 565.4 129.6 565.6 128.7 566 129.5 566.6 128.3 567.4 128.3 568.1 126.4 568.7 125.8 569.1 125.5 569.9 127.9 570.9 125.8 571.7 125.9 572.8 127.4 573.9 128.5 574 133.2 574.1 133.6 574.3 135.6 574.4 136.8 574.4 142.3 574.5 141.8 574.6 143 574.7 144.7 574.8 148 574.8 149.2 574.8 151.5 574.8 151.8 574.9 153.8 575 154.9 575 156 575 161.8 575.1 164.9 575.1 170.3 575.1 180.7 575.1 195 575.1 196.6 575.1 192.6 575.1 197.4 575.1 187.4 575.1 180.4 575.1 174 575.1 172.8 575.1 171 575.2 178 575.2 174.6 575.2 174.1 575.2 179.2 575.3 182.2 575.3 178.9 575.3 187.5 575.3 188 575.4 188 575.4 183.7 575.4 183.5 575.4 191.8 575.5 192.2 575.5 184.4 575.5 188.2 575.6 186.4 575.6 185.7 575.6 188.3 575.7 181.4 575.7 181.4 575.7 176.9 575.8 178.9 575.8 174 575.9 171.5 576 174.5 576.1 176 576.2 178.6 576.3 176.9 576.5 174.7 576.6 174.6 576.8 172.9 577 176.7 577.2 179.7 577.3 177.2 577.5 177.7 577.8 173.3 578.1 174.8 578.4 174.1 578.7 169.3 579 171.4 579.5 169.4 579.7 168.2 580.1 169.7 580.4 165.7 580.8 164.7 581.1 168 581.4 166.1 581.6 165.2 582 166.8 582.3 168.8 582.7 169.8 583.2 167.6 583.8 167.5 584.2 165 584.6 163.2 584.8 165.1 585.1 165.3 585.6 167 586.1 166.9 586.5 162.9 586.9 162 587.5 165.5 588 163.5 588.5 163.1 589 164.7 589.4 165.2 589.8 164.3 590.4 164.8 590.7 162.4 590.9 162.5 591.2 162.9 591.2 164 591.3 165.3 591.4 167 591.5 165.3 591.8 166.2 592 168.5 592.5 166.8 592.9 167.1 593.5 167.1 594.1 165.8 594.6 162.1 595.4 164 596 166.4 596.7 165.1 597.8 164.6 598.4 165 599.1 165.4 599.9 167.5 600.6 169.8 601 169.4 601.5 171.5 601.6 173.2 601.8 171.9 602.1 167.9 602.6 169.7 603 168.3 603.2 165.6 603.4 160.8 603.7 160.6 604 161.4 604.2 156.7 604.7 158.3 605.1 160.7 605.5 164.8 605.9 160.7 606.4 162.1 606.8 163.4 607.5 164.7 608.2 162.9 608.4 166.8 608.5 168.6 608.6 174.8 608.8 172.2 609.1 171.1 609.4 172.1 609.9 177 609.9 181.8 610.1 178.2 610.2 180.8 610.4 180.5 610.7 182.4 610.9 179.3 611.3 180.8 611.7 177 611.9 182.1 612.1 185.7 612.2 183.2 612.5 186.3 612.6 188.3 612.7 191.9 612.8 188.9 613 185 613.3 184.3 613.7 185.7 614.2 186.1 614.5 184.8 614.9 184.6 615.4 183.6 616 185.4 616.5 184.6 616.9 184.7 617.5 184.7 617.9 189.2 618.2 191.3 618.4 190.4 618.6 194.2 618.8 192.7 619.1 197.3 619.3 192.7 619.4 196.2 619.5 192 619.6 195.5 619.7 198 619.7 201 619.8 201.1 619.9 201.2 620 203.4 620.1 205.1 620.1 208.2 620.1 204.7 620.2 202.9 620.3 205.2 620.4 200 620.5 201.3 620.7 199.7 620.9 198.1 621.1 197.6 621.3 198.7 621.5 194.9 621.7 201.8 621.9 205.7 622 209 622.1 209.1 622.3 211.3 622.5 207.2 622.7 211.7 622.9 217.4 623 218.5 623.1 219.9 623.2 225 623.4 219.1 623.6 216.3 623.9 214.4 624.2 217.8 624.5 217 624.8 216.7 625.1 216.9 625.4 214.4 625.8 214.8 626 209.9 626.2 210.9 626.5 213 627 211.8 627.9 214.5 628.6 217 628.6 224.9 628.6 229.1 628.7 223.1 628.8 219.5 629.2 223.6 629.4 224.5 629.6 227.5 629.9 226.7 630.2 229.3 630.3 233.3 630.4 239.7 630.4 244.4 630.5 248.3 630.5 249.9 630.6 253.9 630.6 251.6 630.7 254.8 630.8 251.3 630.9 247 631 242.2 631.1 238.6 631.3 235.8 631.5 235.5 631.8 235.8 632 236.9 632.3 237 632.6 235.2 633 234.3 633.3 241.2 633.7 240.7 634.1 240.5 634.5 237.5 634.8 236 635.1 236.2 635.7 233.8 636.3 236.8 636.7 232.1 636.9 228.8 637.2 232 637.8 233.7 638.1 238.8 638.5 238.8 639 241.2 639.4 244.5 639.6 244.9 639.7 247.2 640 248 640.2 251.3 640.6 248.1 641.2 246.5 641.5 245.2 641.9 244.4 642.5 242.9 643.1 247.4 643.8 247 644.1 251.3 644.2 255.5 644.3 259 644.4 260 644.6 258 644.8 253.4 645.2 249.9 645.5 245.1 645.8 246.2 646.1 248.5 646.3 244.8 646.5 243.3 646.5 241 646.6 239.5 646.6 235.4 646.7 234.4 646.8 235.6 646.8 233.6 647 231.6 647 230.9 647.1 233.3 647.2 233.1 647.3 233 647.5 230.2 647.5 229.7 647.6 228 647.7 225.5 647.8 224.9 647.8 221.5 647.9 219.7 647.9 220.4 648 220.3 648.1 225.5 648.3 227.1 648.4 221.6 648.5 216.6 648.6 216.1 648.8 221.8 649 226.5 649.1 230.4 649.2 228 649.4 235.2 649.4 241.1 649.4 245.3 649.5 246.1 649.5 252.6 649.6 245 649.7 246.1 649.8 253 649.8 254.9 649.9 249.3 650 247.6 650.1 251.6 650.1 255.3 650.2 250.9 650.3 253.6 650.4 255.2 650.5 254.1 650.6 252 650.7 250.2 650.9 251.7 651 254.9 651.2 250.7 651.4 250.9 651.6 251.5 651.9 247.2 652 246.4 652.3 249 652.6 245.5 652.7 236.6 652.7 233.7 652.8 231.3 652.8 228.7 652.9 228.3 653 224.8 653.1 222.3 653.2 224 653.3 225.1 653.4 226.1 653.6 229.4 653.7 228.6 653.9 227.3 654.2 227.1 654.3 225.3 654.6 224.3 654.9 222.3 655.4 223 655.7 220.7 655.8 219.6 656.2 224.9 656.8 225.1 657.1 225.6 657.5 229.4 657.8 231.4 658.2 227 658.7 221.3 659.3 221.5 659.7 219.9 660.3 217.8 660.6 215.7 661.2 219.5 661.6 218.8 662 222.7 662.6 217 663.2 217.8 664 219.1 664.9 217.4 665.3 222.3 666.1 222.4 666.8 222.8 667.5 222.1 668.2 218.8 668.9 215.9 669.2 212.6 669.9 212.1 670.2 210 670.8 215 671.1 215.2 671.8 215.9 672.6 216.7 673.4 213.7 673.6 221.4 673.7 224.4 674 225.7 674.4 228.2 674.7 228.4 674.7 227.2 674.9 231.9 675 231.5 675.2 230.4 675.4 228.8 675.6 233.3 675.6 236.9 675.8 237.8 676 232.5 676 227.4 676.3 230.2 676.5 230.2 676.7 229.1 677 229.9 677.2 226.7 677.6 227.5 678 230 678.3 224.7 678.7 226.4 679.2 223.9 679.6 228.8 680.1 229.1 680.6 223.8 681.2 222.9 681.5 223.8 682.1 224.7 682.8 223.3 683.4 222.1 683.7 222.1 684.1 223.2 684.6 226.2 685.5 223.3 686.1 222.6 686.8 222.5 687.5 219.6 688.3 221.9 689.1 221.2 690.1 219 690.8 218 691.7 221.6 692.5 219.5 692.9 221.9 693.5 220.9 694.3 218.7 695.1 220.8 695.4 222.4 695.9 222.8 696.4 223.2 696.8 225.2 697.3 224.8 697.8 223.2 698.4 222.7 699.2 224.9 700.1 226.1 701 227 701.6 224.4 702.2 220.8 702.3 226.6 702.3 230 702.4 227.5 702.6 230.3 702.7 226.1 703 225.3 703.1 225.7 703.3 224.6 703.6 223.3 703.7 220.8 704 217.1 704.1 213.8 704.4 216 704.6 212.9 704.7 210.4 705 211.5 705.3 212.5 705.5 205.8 705.6 205.4 705.6 203.5 705.7 200.6 705.8 198.7 705.9 202 706.2 208.5 706.4 202.8 706.8 203.2 707.1 206.3 707.5 209.1 707.7 213.5 708 214.2 708 218.3 708.4 216.1 708.8 214.7 709.1 222.4 709.4 221.2 709.7 220.3 710.4 219.9 711.1 219.8 712.1 220 713.2 219.9 714.3 222.2 715.4 220.9 716.6 217.7 717.5 217.8 719.1 217 720.8 217.9 722.3 219 724.4 219 726.2 216.5 728.1 218.6 729.4 218.3 730.9 219.8 731.4 223.5 731.8 225.3 732.9 224.6 734.6 222.5 737.6 225.9 739.7 225.5 741.2 228.4 742.4 229.3 743.4 231.3 744.8 235.3 745.5 234 746.9 234.6 748 236.1 749.3 236 750.7 237.3 750.8 240.4 751.7 236.4 752.7 234.3 753.8 234 754.8 237 755.7 235.6 756.9 236.4 757.5 239.5 758.4 240.2 759.2 242.6 759.2 244 759.3 247.7 759.4 247.3 759.4 251.3 759.5 248.1 759.5 252.2 759.6 252.8 759.7 253.2 759.9 252.2 760.2 251.5 760.5 254.2 760.8 254.1 761.2 252.4 761.7 256 761.7 256.1 761.8 254.8 762 259.3 762.1 260.4 762.3 263.1 762.4 260.4 762.7 258.1 763 265.1 763.1 265 763.1 267.5 763.3 268.1 763.5 265.2 763.6 273.4 763.7 270.1 763.9 266.4 764.1 268.1 764.4 272.8 764.6 270.9 764.8 265.8 765 261 765.3 260.8 765.6 266.3 766 261.2 766.4 265.5 766.8 263.6 767.2 267.1 767.3 264.2 767.6 261.1 767.9 263.8 768.4 258.7 768.5 255.2 768.8 253.8 769.2 258.8 769.5 254.5 769.7 248.1 769.9 245.4 770.1 247.3 770.4 246.9 770.6 246.1 771 250.4 771.3 246.4 771.8 249.8 772.4 252.1 772.9 255.4 773.4 248.6 774 249.2 775.2 249.4 776 248.7 776.7 247.7 777.1 247.5 777.7 244.3 778 240.8 778.3 245.4 778.9 250.4 779.6 251.8 780.4 247.8 781.9 248 782.6 245.9 783.6 247.5 784.4 245.2 784.7 248.4 785.1 252.2 785.1 246.1 785.2 244.7 785.3 244.5 785.5 245.1 785.8 245.7 785.8 243.6 785.9 240 786.2 245.1 786.4 249.2 786.5 251.3 786.7 248.2 787 250.4 787.2 246.3 787.5 247.3 787.7 244.8 788 246.5 788.3 249.5 788.6 252.2 789 244.7 789.4 242.6 789.6 238.5 790 239.6 790.4 241 790.9 242.4 791.5 245.2 792.2 247 792.8 245.3 793.3 239.8 793.7 240.9 794.3 238.3 795.3 239 795.9 238 796.8 241.6 797.7 237.6 798.3 234.3 798.9 230.8 799.4 229.3 800.2 229 800.8 225.2 801.4 227.2 802.1 233.5 803.2 230.8 804.2 229.8 805.2 231.1 806.1 229.4 807 232.2 807.7 237.1 808.5 240.5 809.2 238.7 810.1 235.6 810.8 235.7 811.7 232.8 812.3 231.9 812.4 230.6 812.7 232.3 812.9 235.8 813.2 234 813.4 230 813.5 230.8 813.9 231.5 814.3 228.4 814.5 223.6 814.5 217.5 814.7 216.9 814.9 218.5 815 214.7 815.2 212.1 815.5 213.5 815.7 212.1 815.8 219.9 815.9 225.6 816 223.1 816.2 225.3 816.4 228.4 816.7 225.6 816.9 221.3 817.2 219.8 817.6 220.5 817.8 215.7 818.1 220.5 818.7 217.4 819.2 215.3 819.4 211.3 819.7 213 819.9 209.9 820.2 208 820.7 211.8 821.2 213.3 821.8 210 822.5 208.7 823.3 205 823.9 207.1 824.5 206.6 825.1 207.7 825.5 212.6 826.1 213.9 826.9 213.3 827.4 213.9 828.2 211.4 828.9 209.5 829.5 207.9 830.3 206.1 830.8 204.8 831.4 200.1 831.8 202.6 832.4 202.8 832.9 197.9 833.5 199.8 834.2 198.8 834.6 196 834.8 193.8 835.1 194.4 835.5 196.1 836.3 199.7 837 200.8 837.3 195.8 837.6 196.3 838.2 196.6 838.7 197.5 839.1 196.5 839.7 197.8 840.2 201.1 840.4 201.9 840.6 203.6 840.9 203.3 841.1 209.7 841.2 205.6 841.5 203.5 841.9 200.7 842.3 203.9 842.5 203.5 842.8 208.5 843.1 205.1 843.7 208.2 844 200.1 844.2 195.5 844.3 203.8 844.6 200.7 845.1 204.1 845.4 204.4 845.6 201.5 845.9 202.3 846.1 204.5 846.3 203 846.6 198.7 847 197.2 847.3 200.3 847.7 202.5 847.9 202.3 848.4 205.3 849 199.2 849.6 200.2 850.4 201 851.2 200.1 851.8 203 852.3 200.6 852.8 204.9 853 204.8 853.5 207.2 854.1 208.8 854.1 209.9 854.3 212.4 854.5 216.2 854.7 211.2 855 209.3 855.4 210.7 855.7 211.3 856.2 212.9 856.5 207.5 857 203 857.2 207.2 857.7 206.7 858.4 206.2 859.3 203 859.7 199.7 860 198 860.4 200.3 860.6 201.5 860.9 199.6 861.3 200.6 861.8 202.8 862.2 200.5 862.5 199.7 862.7 203.1 862.7 205 862.8 207.3 862.9 210.3 863.1 208.9 863.4 211.7 863.9 213.5 864.2 215.8 864.7 216 865.1 217.7 865.6 220.8 866.1 219.6 867.1 220.1 867.7 222.1 867.9 224.8 868.1 226.1 868.2 227.6 868.4 234.9 868.4 240.4 868.4 241.5 868.5 245.8 868.5 246.3 868.6 250.6 868.7 252 868.7 254.5 868.7 255.8 868.8 258.9 868.8 258 868.8 258.6 868.9 256 868.9 255.1 869 257.3 869 259 869.1 258.8 869.2 266.7 869.2 271.8 869.3 270.2 869.4 270.3 869.5 263.8 869.5 261.2 869.6 267.3 869.7 269 869.8 271.7 869.9 266 870 265.5 870.1 267.7 870.2 268.9 870.3 265.2 870.5 263.7 870.7 260 870.8 259.4 871 256 871.1 254.8 871.4 256.7 871.6 258.4 871.8 261.5 871.9 261.1 872.2 257.2 872.3 262.3 872.5 265.6 872.5 265.2 872.6 261.6 872.8 265.4 872.9 270.4 873 271.1 873.1 272.8 873.2 274.4 873.4 272.4 873.5 278.3 873.6 269 873.7 266.3 873.9 265 874.2 267.3 874.5 267.6 874.9 266.9 875.1 260.7 875.3 260.8 875.5 260.9 875.8 264.4 875.9 261.4 876.3 257.4 876.7 260.8 877.5 258 878 258.4 878.5 254.3 879.1 256.4 879.5 261.1 879.9 260.4 880.2 262.4 880.4 267.9 880.6 266.5 880.7 272.9 880.7 282.2 880.7 279.4 880.7 286.1 880.7 286 880.7 296.3 880.8 297.4 880.8 295.1 880.8 291.2 880.8 294.8 880.8 295.2 880.9 294.1 880.9 290.7 881 285.8 881.1 288.6 881.2 290.4 881.4 288.2 881.5 295.2 881.5 299.2 881.6 303 881.7 301.3 881.8 297.3 881.9 290.8 882 293.5 882.1 294.7 882.3 291.9 882.5 289.8 882.8 290.2 883.1 290.1 883.4 289.9 883.6 284.4 883.8 278.9 884.1 277.3 884.3 281.8 884.7 283.1 885.1 281.6 885.5 283.8 885.9 289.6 886.2 295.1 886.4 298.2 886.6 304 886.7 297 886.9 296.7 887.1 288 887.2 288.3 887.5 292.3 887.8 287.3 888.1 288.8 888.3 287.2 888.6 293.2 888.8 298.1 889 295.8 889.4 296.4 889.6 300.6 889.8 299.9 890.1 305.6 890.1 305.5 890.4 307.4 890.6 305.1 890.9 303 891.2 302 891.7 299.5 892.1 303.2 892.4 297.5 892.5 291.9 892.7 295.8 893.1 300 893.5 300.7 893.7 296.1 893.7 291.9 893.9 295.8 894.1 290.2 894.3 287.9 894.3 291.2 894.4 287.2 894.4 280.7 894.5 285.5 894.7 290.2 894.9 287.3 895.1 283.8 895.4 285.7 895.5 284.1 895.6 281.7 895.6 278 895.7 277.6 895.8 277.5 895.8 277.6 895.9 283.1 896 281.9 896.1 279.6 896.2 277.9 896.4 276.7 896.5 283.9 896.6 286.8 896.6 289.4 896.7 283.3 896.7 278 896.9 275.2 897.1 279.7 897.2 279.9 897.4 283.6 897.6 280.9 897.7 285.3 897.7 277.1 897.8 281.2 897.9 280.7 898.1 279.9 898.3 281.2 898.5 286.5 898.7 284.5 898.8 278.6 899 282.5 899.3 284.2 899.6 284.9 899.7 290 899.8 295.5 899.8 299.6 899.9 304.5 899.9 309.6 900 303.1 900.1 301.3 900.2 303.3 900.3 301.5 900.3 293.3 900.4 291.2 900.4 284.6 900.5 284.6 900.5 282.2 900.6 280.1 900.7 280.9 900.7 278.2 900.8 281.1 901 278.3 901.1 275.9 901.2 277.6 901.4 277.2 901.5 279.7 901.7 274.7 901.9 280.5 902 282.2 902.2 283.7 902.3 281 902.3 283.8 902.4 283.1 902.5 283.3 902.5 286.1 902.6 282.9 902.8 283.8 902.9 278.6 902.9 277.4 902.9 269.8 902.9 268.4 902.9 269.5 902.9 272.3 903 276.2 903.1 273.5 903.2 272.5 903.3 270.2 903.6 271.6 903.9 272.5 904.1 269.7 904.4 270.4 904.7 270.7 905.2 265.8 905.5 269.3 906 270.7 906.6 269 907.1 267.6 907.4 272.8 907.8 270.9 908 274.5 908.3 275.7 908.7 276.5 909.2 278.8 909.8 276.6 910.6 276.3 911.2 277.5 911.9 279.7 912.4 278.7 913 280.3 913.6 280.6 913.9 283.6 914.6 283.3 915.1 285.8 915.5 287.8 915.9 290.8 916 292.2 916.2 298.2 916.3 305.2 916.4 307.1 916.4 306.1 916.5 306.6 916.6 304.1 916.7 301.8 916.8 300.4 917.1 300.8 917.3 300.2 917.6 297.2 918.1 302.3 918.5 300.4 919 300.7 919.5 302.8 920.1 304.9 920.4 303.7 920.6 303.7 920.9 306.2 921.2 308.3 921.4 308.5 921.7 310.5 922 309 922 313.2 922.1 314.5 922.4 311.9 922.6 313.2 922.7 317.6 922.8 318.2 922.8 319.4 922.9 324.3 922.9 327.1 922.9 330.5 923 331.7 923 335.1 923 340.1 923 343.6 923 338.7 923 340 923.1 342.6 923.1 344.5 923.1 344.7 923.1 344.5 923.2 346.2 923.2 344.8 923.2 348.5 923.2 347.5 923.3 346.6 923.3 349.4 923.4 346.2 923.4 343 923.4 344.5 923.5 344.2 923.6 341.9 923.7 344 923.8 337.2 923.8 336.1 923.9 340.1 923.9 342.6 924 343 924.1 347.1 924.2 345.2 924.3 345.8 924.5 346.9 924.6 346.4 924.7 350.8 924.8 356.2 924.8 355 924.9 358.6 925 358 925 354 925.1 359.8 925.1 363.2 925.1 356.3 925.2 351.5 925.2 347.2 925.2 345.5 925.2 349.6 925.3 351.9 925.3 360.5 925.4 355.3 925.5 358.4 925.6 358.3 925.7 359.3 925.7 365.5 925.7 366.3 925.8 365.7 925.8 369.4 925.9 370.2 925.9 372 925.9 369.9 926 367.4 926.1 371.6 926.1 371.1 926.1 371.8 926.1 377.1 926.2 378.6 926.2 379.4 926.2 385.3 926.2 387.6 926.2 393 926.2 391.1 926.2 383 926.2 379.5 926.2 387.8 926.3 383.2 926.3 381.6 926.3 380.1 926.3 384.9 926.4 385 926.4 383.8 926.4 382.5 926.5 382.5 926.5 379.6 926.6 383.6 926.6 387.8 926.6 390.4 926.7 381.2 926.7 386.5 926.8 391.1 926.8 385.1 926.9 391.4 927 387 927 386.6 927.1 386.2 927.2 388.3 927.2 390.7 927.3 387.3 927.4 391 927.5 394 927.5 395.8 927.6 392.4 927.7 388.1 927.7 390 927.8 395.1 927.8 402.2 927.8 408.6 927.8 402.4 927.9 408.2 927.9 410.9 927.9 406.5 927.9 413 927.9 423.5 927.9 425 927.9 441.5 927.9 430.8 928 418.2 928 408 928 408.2 928 402.9 928 400.5 928 397.1 928 401.5 928 401 928 402.6 928.1 400.5 928.1 404.4 928.1 398.9 928.1 399.6 928.2 402.7 928.3 400.6 928.3 402.1 928.4 395.4 928.4 394.2 928.5 392.3 928.5 392.8 928.6 392.2 928.7 393.5 928.7 398.2 928.9 400.5 928.9 402.6 929 406.7 929.1 405.8 929.2 403 929.3 400 929.5 405.9 929.6 406.5 929.8 403.1 929.9 403.6 930 410.5 930.2 408.8 930.3 406.7 930.4 409.2 930.6 402.4 930.6 407.8 930.8 406.1 930.9 402.7 931 410.5 931.1 401.4 931.2 400.7 931.3 397 931.5 395 931.7 395.5 931.9 396 932.1 399.4 932.3 395.9 932.5 399.9 932.9 398.2 933.1 397 933.2 388.9 933.3 385.8 933.3 382.2 933.4 387 933.6 385 933.7 390.2 933.9 387.2 934 387.6" opacity=".6"/><text x="942" y="472" fill="#d97706" font-size="11" text-anchor="start">728.50</text><text x="942" y="396" fill="#d97706" font-size="11" text-anchor="start">778.23</text><text x="942" y="320" fill="#d97706" font-size="11" text-anchor="start">827.96</text><text x="942" y="244" fill="#d97706" font-size="11" text-anchor="start">877.69</text><text x="942" y="168" fill="#d97706" font-size="11" text-anchor="start">927.42</text><text x="942" y="92" fill="#d97706" font-size="11" text-anchor="start">977.15</text><text x="942" y="80" fill="#d97706" font-size="11" font-weight="600" text-anchor="start">price</text><polygon fill="#16a34a" fill-opacity=".08" points="92.2 468 92.2 442.3 92.2 445 104.9 448.5 125.5 431.8 126.1 435.7 179.3 440.5 232.5 417.1 278.4 396 305.7 403.7 309 413.2 316.7 425.2 430.2 367 538.1 325.1 545.8 336 575.1 283.2 579.4 293.9 609.9 307.2 623.2 242.3 625.5 253 628.6 266.3 669 282.9 673.6 303.8 704.6 314.4 731.5 327.7 763.1 262.9 768.4 273.5 814.9 221.6 830.5 232.3 854.4 245.6 857 262.2 863.8 283.1 868 293.9 869.2 241.1 880.7 252 902.9 265.5 909.2 282.4 922.8 200 923 210.8 925.9 158.1 926.2 168.9 927.9 116.1 928 126.8 928 468"/><polyline fill="none" stroke="#16a34a" stroke-linejoin="round" stroke-width="2" points="92.2 442.3 92.2 445 104.9 448.5 125.5 431.8 126.1 435.7 179.3 440.5 232.5 417.1 278.4 396 305.7 403.7 309 413.2 316.7 425.2 430.2 367 538.1 325.1 545.8 336 575.1 283.2 579.4 293.9 609.9 307.2 623.2 242.3 625.5 253 628.6 266.3 669 282.9 673.6 303.8 704.6 314.4 731.5 327.7 763.1 262.9 768.4 273.5 814.9 221.6 830.5 232.3 854.4 245.6 857 262.2 863.8 283.1 868 293.9 869.2 241.1 880.7 252 902.9 265.5 909.2 282.4 922.8 200 923 210.8 925.9 158.1 926.2 168.9 927.9 116.1 928 126.8"/><line x1="88" x2="110" y1="102" y2="102" stroke="#16a34a" stroke-width="2.5"/><text x="116" y="106" fill="#374151" font-size="11.5">equity</text><line x1="88" x2="110" y1="118" y2="118" stroke="#d97706" stroke-width="2.5" opacity=".8"/><text x="116" y="122" fill="#374151" font-size="11.5">price</text><text x="78" y="502" fill="#6b7280" font-size="12" text-anchor="start">2026-01-01</text><text x="934" y="502" fill="#6b7280" font-size="12" text-anchor="end">2026-01-31</text></svg>