<svg xmlns="http://www.w3.org/2000/svg" width="1000" height="520" font-family="ui-sans-serif, system-ui, sans-serif" viewBox="0 0 1000 520"><rect width="1000" height="520" fill="#fff"/><text x="78" y="28" fill="#111827" font-size="18" font-weight="700">Zone Recovery — AVAXUSDC best setting (equity / PnL)</text><text x="78" y="48" fill="#6b7280" font-size="12.5">lev 20 · ratio 3 · gap 20% · maxSteps 4 · maxDD 60% · random · vip 9 · 10 series, 80.0% win · vol $6826237 ($6826339/day) · fees $577.50</text><text x="78" y="68" fill="#1d4ed8" font-size="12.5" font-weight="600">USDC · BNB −10% · taker 0.0085%</text><text x="934" y="28" fill="#16a34a" font-size="18" font-weight="700" text-anchor="end">+4786 USDT (+47.86%)</text><line x1="78" x2="934" y1="468" y2="468" stroke="#e5e7eb" stroke-width="1"/><text x="68" y="472" fill="#6b7280" font-size="12" text-anchor="end">0.00</text><line x1="78" x2="934" y1="392" y2="392" stroke="#e5e7eb" stroke-width="1"/><text x="68" y="396" fill="#6b7280" font-size="12" text-anchor="end">3418</text><line x1="78" x2="934" y1="316" y2="316" stroke="#e5e7eb" stroke-width="1"/><text x="68" y="320" fill="#6b7280" font-size="12" text-anchor="end">6835</text><line x1="78" x2="934" y1="240" y2="240" stroke="#e5e7eb" stroke-width="1"/><text x="68" y="244" fill="#6b7280" font-size="12" text-anchor="end">10253</text><line x1="78" x2="934" y1="164" y2="164" stroke="#e5e7eb" stroke-width="1"/><text x="68" y="168" fill="#6b7280" font-size="12" text-anchor="end">13670</text><line x1="78" x2="934" y1="88" y2="88" stroke="#e5e7eb" stroke-width="1"/><text x="68" y="92" fill="#6b7280" font-size="12" text-anchor="end">17088</text><line x1="78" x2="934" y1="245.6" y2="245.6" stroke="#9ca3af" stroke-dasharray="6 4" stroke-width="1.5"/><text x="934" y="239.6" fill="#6b7280" font-size="11" text-anchor="end">start 10000</text><polyline fill="none" stroke="#d97706" stroke-linejoin="round" stroke-width="1.2" points="78 119.7 78.3 122.3 78.6 126 79.2 127.7 79.8 122.6 80.3 121.1 81 125.1 81.4 122.8 81.9 121.4 82.2 119.1 82.9 118.5 83.4 121.1 84.1 122.6 84.5 123.7 85.1 125.7 85.4 126.3 85.9 124.6 86.3 128.3 86.7 131.2 87 129.8 87.4 129.8 87.6 128.9 88.1 129.5 88.5 128.9 89.1 134.4 89.7 130.3 90.1 124 90.3 122.6 90.7 124.6 91.2 122.6 91.7 120.3 92.2 117.7 92.8 121.4 93.2 121.7 93.7 122.8 94.3 122.3 95 118.2 95.4 115.6 95.9 116.2 96.5 117.1 96.9 115.6 97.6 119.4 98.3 117.4 98.9 121.1 99.8 122.3 100.5 124.9 101.1 121.4 101.8 116.5 102.4 119.1 103 123.1 103.7 124 104.8 121.4 105.3 118.5 105.7 117.9 106.5 116.5 107.2 117.4 107.9 120.3 108.8 120.5 109.4 125.4 109.7 128.6 110.3 129.2 110.7 128 111.5 128.9 111.9 127.7 112.5 129.5 112.8 133.8 113 137.8 113.4 139 113.6 139 114.3 142.1 114.6 145.9 114.7 149.6 114.9 149.9 115 147.3 115.5 151.3 115.8 154.8 115.9 156.5 116.1 153.9 116.3 155.7 116.5 159.1 116.7 155.4 117.2 155.4 117.6 154.8 118.1 145.9 118.5 148.8 119 152.5 119.7 150.2 120.1 155.4 120.6 155.4 121.2 151.6 121.6 150.2 122.1 148.2 122.5 147.6 122.8 148.2 123.1 148.5 123.6 148.8 123.9 144.7 124.3 139.5 124.6 139 124.9 136.1 125.3 138.7 125.6 141 126.1 141.3 126.6 141.6 126.9 146.2 127.1 148.8 127.5 149.3 128 145 128.6 141 129 143.6 129.5 145 130.2 145 130.8 144.7 131.4 139.8 131.7 132.9 131.8 126 132.1 130.9 132.5 127.4 132.9 130.9 133.4 132.3 134 133.2 134.8 131.2 135.4 129.2 136.2 133.8 136.5 140.4 137.1 139.8 137.6 139.3 137.9 139.8 138.5 141.8 139.4 142.7 140 140.4 140.5 136.9 140.8 137.8 141.2 137.2 141.8 137.8 142.7 138.7 143.3 137.2 144 141 144.5 137.2 145.3 136.9 146.1 136.9 146.7 135.8 147.5 132.1 148 133.8 148.6 134.9 149.4 136.1 149.9 137.5 150.3 140.1 150.7 139.3 151.1 141.6 151.6 139.3 152.1 140.7 152.6 142.4 153.3 141 153.9 147.6 154 147.3 154.4 147 154.9 147.6 155.3 147.3 155.7 144.7 156.2 146.4 156.9 146.2 157.3 147.9 157.7 148.8 158.4 148.2 158.9 146.7 159.4 149.3 159.7 149.6 160.2 148.2 160.5 154.5 160.7 152.2 161 155.4 161.2 154.8 161.6 154.8 161.7 156.5 161.8 158.5 162 159.7 162.1 158.2 162.4 160.6 162.8 160.3 163.1 159.7 163.7 155.4 164.2 152.5 164.6 154.8 164.9 153.4 165.5 152.8 166.2 158.8 166.5 160.6 167.1 163.7 167.3 164 167.5 165.2 167.8 161.7 168 160 168.4 159.1 168.9 158.5 169.3 159.7 169.9 157.1 170.4 157.4 171 154.2 171.3 159.7 171.9 155.4 172.5 161.1 173.1 160.3 173.3 162 173.7 164.3 173.8 165.2 173.9 167.5 173.9 168.9 174.3 169.8 174.5 176.1 174.6 177.8 174.6 179.6 174.8 179.8 174.9 180.4 174.9 184.4 175 187.3 175.1 190.5 175.1 194.8 175.2 195.7 175.3 192.8 175.5 185.3 175.7 183.9 175.9 184.7 176.1 186.5 176.4 186.5 176.7 183.9 177 181.6 177.3 185 177.5 186.2 177.9 188.2 178.1 187.9 178.6 189.6 178.8 193.4 179.1 189.9 179.5 185 179.9 183.9 180.4 188.2 180.7 191.6 181.1 189.1 181.5 189.9 181.7 193.1 182.1 194.8 182.6 191.9 183 192.8 183.5 191.1 183.8 193.9 183.9 197.7 184 195.7 184.1 201.4 184.4 200.9 184.9 196.5 185.1 198.6 185.4 198.6 185.7 201.1 185.8 202.9 186 201.1 186.4 203.7 186.6 207.2 186.9 200.9 187.3 200.9 187.6 200.6 188 198.6 188.2 200.6 188.6 198.8 188.9 200.9 189.1 207.2 189.4 202.9 189.8 204.9 189.9 201.7 190.5 201.4 190.9 200.9 191.3 197.4 191.7 202.3 192.1 203.4 192.7 201.7 193 204 193.4 201.1 194.1 199.7 194.6 193.1 194.8 188.5 195.1 187 195.2 182.7 195.6 183.3 195.8 181 196.1 179.8 196.8 182.1 197.3 186.5 197.4 189.3 197.6 191.9 197.8 193.1 198.1 193.9 198.7 191.9 199.2 190.8 199.5 192.5 200.1 192.8 200.5 193.7 200.9 198.3 201.3 198.8 201.6 200.3 201.7 203.4 201.8 206 201.8 206.6 201.9 205.2 202 208.6 202.2 210.1 202.3 205.2 202.7 204.6 202.9 200 203.3 196.2 203.6 192.8 203.9 190.5 204.2 189.6 204.7 189.6 205.2 192.8 205.9 192.8 206.4 193.1 207 193.7 207.5 199.7 208.1 201.1 208.8 197.7 209.4 201.7 209.8 205.7 210.2 205.5 210.6 206.3 210.8 210.1 210.8 215.2 211 213.8 211.3 210.6 211.8 210.9 212.2 208.6 212.4 208.3 212.7 212.4 212.9 210.4 213.2 212.4 213.5 213.8 213.9 217 214.1 217.5 214.5 215.8 214.8 212.1 215.2 216.7 215.5 213.5 215.9 217.3 216.2 219.9 216.5 218.7 216.8 219.9 217.1 223.3 217.2 223 217.6 224.5 217.8 221.6 218.1 221.6 218.5 221.3 219.1 221.9 219.3 221.9 219.5 226.2 220 228.5 220.2 231.7 220.3 230.2 220.7 230.5 220.8 230.2 221 231.4 221.3 232.5 221.5 231.7 221.9 234 222 230.2 222.2 231.1 222.4 231.9 222.6 233.4 222.9 232.8 223.1 236 223.2 236 223.3 231.1 223.5 226.5 223.8 228.2 224.2 227.9 224.3 222.4 224.5 221 224.7 215 224.9 212.9 225 208.3 225.1 203.7 225.4 204.6 225.6 202.6 225.9 207.8 226.3 204.9 226.7 204.6 227 203.7 227.5 207.5 227.9 202.6 228.2 205.5 228.9 205.2 229.6 201.4 230 199.7 230.1 202.9 230.6 205.2 231 204 231.4 207.5 231.4 210.4 231.8 203.7 232.2 205.2 232.6 206.3 233.1 207.5 233.4 207.2 233.8 204 234.1 206.3 234.9 207.5 235.1 206 235.4 205.7 235.7 196.2 235.7 194.8 236.1 189.6 236.2 185.9 236.5 187.3 236.8 184.2 237.4 191.4 238 189.6 238.5 188.5 238.9 193.9 239.1 196.8 239.1 199.1 239.2 198 239.5 198.8 240 200.6 240.5 199.4 241.4 201.4 242 198.8 242.6 198.6 243.3 199.4 243.7 196.2 244.2 199.1 244.7 201.7 245.1 200 245.9 202.6 246.4 204.3 246.8 207.5 247.4 206.9 247.9 205.7 248.4 211.2 248.8 213.2 249.4 213.5 249.9 215 250.2 211.2 250.7 206 251 201.1 251.6 199.7 251.9 199.1 252.7 198 253 192.8 253.3 187 253.7 193.1 254.5 195.7 255.2 191.9 255.7 190.2 255.7 190.2 255.7 185.3 255.7 187.3 255.7 183.9 255.8 183.9 255.9 186.7 256.2 183.9 256.4 181.9 256.5 177.2 256.6 181.3 256.7 183 257 185.6 257.4 185.6 257.7 184.7 258.2 185.3 258.5 190.5 258.9 189.1 259.3 191.9 259.7 189.6 260.1 193.4 260.5 192.2 260.9 196.2 261.1 200.3 261.2 198.3 261.7 202.3 262.1 205.5 262.4 205.5 262.9 204.3 263.5 206.6 264.1 208 264.9 205.7 265.8 206 266.2 208.6 267 210.9 267.7 209.2 268.6 207.8 268.9 200.9 269.2 201.7 269.7 206.3 270.5 204.9 271 208 271.6 205.5 271.9 204 272.5 198 272.8 196.5 273 197.1 273.4 198.6 274.2 202.6 274.7 200.3 274.9 198 275.4 202 276 202.9 276.4 206.6 277 207.8 277.4 210.9 277.6 212.4 277.7 215.5 277.8 216.7 277.9 219.9 278.3 214.7 278.3 217.8 278.7 220.1 278.8 221.9 278.8 226.2 278.8 225.9 278.9 223.9 279 224.5 279.1 221.6 279.3 221.9 279.6 221 279.9 219.9 280.4 218.4 280.7 220.4 280.9 227.3 281 225 281.4 224.2 281.7 226.2 282 230.8 282.1 229.4 282.3 228.8 282.6 230.8 282.8 231.9 283.2 231.9 283.4 234.5 283.5 236.8 283.6 239.4 283.7 238.3 283.8 240 283.9 243.5 284 243.2 284.2 240.6 284.3 240.3 284.5 244.6 284.5 245.8 284.6 249.2 284.6 248.1 284.8 242.9 284.9 245.2 285.1 242.9 285.3 240.9 285.5 240.6 286 241.4 286.2 241.2 286.4 239.7 286.7 237.1 287.2 233.4 287.5 228.2 287.9 230.8 288.3 236.5 288.5 235.7 288.7 241.4 289 240.3 289.3 238 289.6 243.2 289.8 247.2 289.9 246.9 290.1 245.5 290.3 240.9 290.6 245.5 290.6 248.9 290.8 246 290.8 248.4 290.9 246.9 291.1 244.3 291.2 246.9 291.4 245.5 291.6 248.1 292 245.5 292.1 246.9 292.3 248.4 292.5 250.1 292.6 252.4 292.8 254.1 292.9 244.3 293.1 245.8 293.3 245.2 293.5 250.9 293.8 253.5 293.9 261.9 293.9 263.9 293.9 263.9 294 259.9 294.2 262.2 294.3 259.3 294.4 261 294.5 258.1 294.5 255.5 294.7 259.3 294.9 258.1 295.1 254.4 295.2 253 295.4 248.9 295.5 248.1 295.7 247.5 295.9 247.5 296.2 243.7 296.4 244.6 296.8 244 297.1 242.6 297.4 243.7 297.7 247.8 298 250.1 298.1 254.1 298.4 258.7 298.6 255.8 298.8 253.5 299.1 257.8 299.4 255.5 299.7 259 299.9 259 300 261.3 300.2 264.8 300.4 260.7 300.6 261.3 300.8 261.9 301 258.4 301.1 259.3 301.4 265 301.6 266.2 301.7 267.9 301.9 264.5 302.1 265.9 302.2 264.5 302.3 267.9 302.4 270.2 302.5 271.7 302.7 269.9 302.8 268.5 303 271.7 303.1 275.4 303.1 278 303.2 281.7 303.2 281.5 303.3 282.9 303.4 277.7 303.5 280.9 303.6 283.2 303.7 285.8 303.9 287.5 304 279.4 304.2 282 304.3 285.8 304.4 289.2 304.5 289.8 304.5 288.4 304.6 293.5 304.7 294.1 304.8 291.2 305 288.9 305.1 292.1 305.2 291.8 305.3 295 305.4 296.7 305.4 296.4 305.6 297.3 305.7 301.9 305.7 305.9 305.8 306.2 305.8 301.9 305.9 300.5 305.9 298.7 306 296.7 306.2 300.7 306.3 304.8 306.4 304.8 306.5 313.7 306.5 319.2 306.5 320.3 306.5 318.6 306.6 319.5 306.6 318.3 306.7 316 306.7 310.8 306.8 307.1 306.9 300.7 307 301 307 303 307.2 307.4 307.2 305.9 307.3 302.2 307.3 299 307.4 301 307.5 296.1 307.6 296.1 307.7 294.1 307.8 290.7 307.9 291.5 308.1 295 308.2 293.8 308.3 290.4 308.4 289.5 308.6 284.6 308.7 285.8 308.8 287.5 309 286.6 309.1 284 309.3 282.6 309.4 285.2 309.5 286.6 309.8 285.5 309.9 287.2 310 282.3 310.1 285.8 310.2 283.2 310.3 282.3 310.4 287.5 310.5 285.8 310.6 287.8 310.8 288.4 310.9 287.8 311 282.3 311.2 283.2 311.3 280.6 311.5 280.6 311.7 283.8 311.8 279.2 312.1 275.4 312.3 275.4 312.5 280.3 312.7 286.9 312.9 287.5 313 287.8 313.3 290.7 313.4 285.8 313.6 279.7 313.9 278.9 314 274.8 314.2 281.5 314.4 281.7 314.6 282.9 314.7 282.3 315.1 282 315.3 280.6 315.6 273.1 315.8 278.3 316 277.1 316.3 276 316.5 278.6 316.8 277.1 317 272 317.2 276 317.5 278.3 317.7 280 318 271.7 318.2 269.4 318.3 267.9 318.3 261.3 318.4 258.4 318.5 258.1 318.7 259.3 318.8 257.8 319.1 259.9 319.3 263.6 319.5 267.6 319.7 274.3 320 271.7 320.3 272.2 320.6 266.2 320.8 265.3 321.3 273.1 321.5 275.7 321.8 277.4 322 278.3 322.3 279.2 322.5 274.8 322.9 281.2 323.1 280 323.3 280.9 323.7 276.8 324 271.4 324.1 266.2 324.3 266.5 324.7 265.9 324.9 265.6 325.1 266.2 325.3 267.3 325.6 267.1 325.9 268.5 326.3 269.7 326.7 265 327.2 272.5 327.6 269.9 327.9 269.9 328.2 272 328.4 269.7 328.7 278 328.9 276.6 329.1 281.5 329.4 279.2 329.6 282 329.9 280.9 330.2 281.2 330.4 283.8 330.9 284 331.1 285.5 331.4 286.9 331.4 291.8 331.7 292.7 332 295.3 332 297 332.3 293.3 332.6 291.2 332.9 291 333.3 293.3 333.6 296.4 333.8 288.4 333.9 296.1 334.2 297.3 334.3 296.4 334.5 297.6 334.8 301 335 303.9 335.1 299.3 335.4 295.6 335.7 299.3 336.1 300.2 336.4 302.8 336.6 304.2 336.8 303 337 299.9 337.3 298.2 337.7 293.8 337.8 293.8 338.1 295 338.4 291.8 338.6 292.1 338.9 295.8 339 293 339.6 295.8 340 294.4 340.3 292.1 340.5 287.2 340.7 285.5 340.9 282.6 341.1 282.3 341.4 283.5 341.7 279.2 342 273.7 342.1 272 342.3 279.2 342.6 281.7 342.9 278.6 343.2 272.5 343.3 267.1 343.4 266.5 343.5 265.9 343.8 266.2 343.9 260.4 344 261.6 344.3 260.7 344.5 260.2 344.9 261 345.1 263.6 345.3 260.7 345.5 264.8 345.7 263.6 345.9 259.3 346 258.4 346.1 262.7 346.3 263.6 346.6 267.1 346.8 263.6 346.9 258.4 347.2 256.7 347.4 256.1 347.5 253.8 347.7 254.1 347.8 252.7 347.9 252.7 348.1 253.2 348.3 253.2 348.6 255 348.8 253.2 349.1 252.4 349.3 249.5 349.5 256.7 349.8 248.6 350 248.6 350.3 250.9 350.5 249.2 350.8 246 350.9 248.1 351.3 251.5 351.5 248.4 351.8 252.7 352 248.1 352.2 243.5 352.5 243.7 352.9 244 353.2 242.3 353.6 244.3 353.9 245.8 354.3 242.3 354.5 239.7 354.6 238.3 354.8 237.1 355 236.5 355.1 233.1 355.3 235.4 355.5 239.7 355.7 241.7 355.7 242.3 356 241.2 356.2 235.7 356.4 231.9 356.7 231.9 357 233.7 357.4 234.5 357.6 237.4 357.9 239.1 358.3 237.7 358.6 240 358.9 238 359.3 241.4 359.6 242.3 359.7 239.4 360.2 238 360.4 240 360.8 239.4 361.4 242.6 361.7 241.2 362.1 238.3 362.3 237.4 362.6 236 362.8 235.7 363 238.9 363.2 234.8 363.4 235.4 363.6 236.8 364 236.3 364.2 236.8 364.5 240.3 364.7 239.7 365.1 242 365.3 242.6 365.6 242.3 366 244.6 366.3 245.2 366.7 249.2 367 247.2 367.2 242.3 367.5 242 367.7 245.2 368.1 245.2 368.5 246.9 368.6 250.1 368.7 249.2 369.3 249.2 369.5 252.1 369.9 254.7 370.2 255.8 370.8 252.7 371.2 254.4 371.9 256.4 372.3 253.2 372.7 258.7 373 259.9 373.2 257.6 373.7 257.8 374.1 258.7 374.8 257.8 375.4 257 375.8 257.3 376.2 260.7 376.5 255.5 376.8 257.8 377.2 257.3 377.7 258.4 378.6 260.7 379.4 260.2 379.9 253.8 380.3 259 380.6 257.6 381.1 257.8 381.5 258.4 381.9 256.1 382.2 256.4 382.5 258.4 382.9 259.3 383.1 263.3 383.4 265 383.9 267.6 384.3 268.2 384.8 269.9 385.3 272.8 385.7 274.8 386.2 279.2 386.4 279.2 386.8 281.5 387.2 285.5 387.7 285.5 387.9 282.3 388 280.3 388.3 275.4 389.1 278.3 389.8 276.3 390.1 280.6 390.6 278.3 391.2 277.4 391.9 276 392.8 272.5 393.7 275.7 394.2 281.2 394.5 278.6 395 281.5 395.8 279.7 396.1 280.3 396.4 281.2 397.1 275.7 397.5 276.6 398.1 275.1 398.5 277.4 399 276.6 399.2 272.5 399.3 270.2 399.7 272.5 400.5 267.1 400.9 266.2 401.6 267.3 401.6 272 401.7 272.2 402 273.1 402.9 273.7 403.4 272 404.2 273.7 404.7 267.1 405.1 265 405.6 264.8 406.3 269.1 406.8 266.5 406.8 265.3 406.8 266.8 406.9 261.3 407 257.3 407.2 255.8 407.3 249.5 407.4 248.1 407.5 251.5 407.7 252.7 407.9 247.2 408 242.6 408.1 246.6 408.2 250.7 408.6 250.4 408.8 251.8 409.1 249.2 409.4 253.5 409.8 256.1 410.3 254.4 410.6 252.1 411 257 411.3 260.7 411.6 258.7 412.1 260.2 412.6 257.3 413 254.7 413.6 254.4 414 252.4 414.5 255.3 414.9 255.5 415.6 255.8 416.1 252.4 416.6 250.9 416.9 249.8 417.3 254.1 417.9 258.7 418.5 256.4 419 256.1 419.3 256.4 419.6 254.1 419.8 254.4 420.4 258.7 421.1 257.3 421.8 256.1 422.4 260.2 423.3 260.4 424.3 260.7 425.2 260.4 425.9 260.2 426.5 256.1 427.1 257.6 427.8 257.6 428.5 258.1 429.3 257.6 429.9 252.7 430.1 252.1 430.8 253.2 431.6 253.5 432.2 253 432.9 250.9 434.1 251.8 434.6 249.2 435.1 246.6 435.4 245.5 436 248.1 436.6 246.6 437.2 249.5 437.7 248.9 438.2 250.4 438.6 254.1 439.1 254.1 439.8 252.7 440.6 256.1 441.1 257.8 441.4 258.4 441.9 260.4 442.2 262.7 442.7 261.6 443.2 263.3 444 266.5 444.4 269.7 444.8 270.2 445.3 273.1 445.5 277.4 446 279.2 446.6 276.8 447.2 276.8 447.4 272.2 448.2 270.8 448.8 272.5 449.7 267.9 450.5 271.1 451.4 268.5 452.3 266.5 452.9 264.8 453.3 265.3 453.9 266.2 454.4 260.7 454.8 260.7 455.5 263.6 456.1 266.2 456.5 274 457.1 273.4 458.1 270.5 458.6 271.4 459.3 272 460.3 271.7 461.1 266.8 461.4 263.9 462 267.1 462.8 265.9 463.2 269.1 463.7 274 464.3 272 464.9 271.4 465.6 275.4 466.1 280.9 466.4 279.4 467.2 278.3 467.7 279.7 468.2 281.5 468.8 277.4 469.8 277.4 470.7 279.4 471 284.3 471.6 286.1 472.1 282.9 472.4 286.9 472.8 289.2 473.1 289.5 473.3 284.6 473.7 287.5 474 289.2 474.3 289.2 474.5 290.1 474.9 288.4 475.7 291.2 476.1 291.8 476.4 295 476.8 288.9 477.5 287.5 478.3 289.2 479.2 290.1 479.6 293.3 480 292.4 480.1 290.1 480.5 286.1 481.2 281.2 481.5 280.9 481.9 280.6 482.3 283.5 482.8 281.2 483.4 282.9 483.8 278.6 484.4 279.7 484.8 285.8 484.8 291.2 484.8 291.8 485 291 485.3 290.1 485.9 286.1 486.4 285.2 486.8 280.6 487.2 281.5 487.8 278.9 488.2 278.3 488.7 279.2 488.9 281.7 489.4 285.2 489.7 287.8 490 284.6 490.9 283.2 491.6 281.2 492.2 284 492.8 285.2 493.5 283.5 493.9 286.9 494 285.5 494.2 286.1 494.7 285.8 495.2 286.9 495.9 288.4 496.6 288.7 497.1 291.2 497.4 293 497.5 296.7 497.9 293.5 498.2 290.7 498.8 293 499.1 291 499.6 294.1 500.1 291.2 500.8 288.9 501.3 288.4 501.8 290.7 502.4 291 502.7 298.2 502.9 300.7 503.1 301 503.4 301.3 503.8 296.1 504.3 296.4 505 295.6 505.5 298.4 505.6 298.4 506.1 300.7 506.3 303.3 506.6 302.8 506.8 307.1 507.1 308.5 507.3 312 507.5 307.6 507.8 305.6 508.1 312.3 508.6 312 509 313.7 509.2 313.7 509.5 312.3 509.9 304.8 510.1 295.3 510.2 295 510.3 294.1 510.5 293.3 510.8 292.7 511 298.2 511.4 300.7 511.8 304.5 512.3 301.6 512.6 296.1 512.9 296.4 513.2 298.7 513.4 298.2 513.9 299.9 514.4 299 514.9 300.2 515.2 295.8 515.7 296.4 516.1 295 516.5 292.7 516.8 294.1 517.2 292.4 517.6 286.9 518 289.5 518.5 298.4 519 298.2 519.4 300.2 519.7 293.3 520.1 291.2 520.4 287.8 520.5 287.8 520.9 290.1 521.4 294.7 522.1 294.4 522.6 297.9 522.8 301.6 523.3 302.2 523.5 306.5 523.7 305.6 523.8 302.5 523.9 295.6 523.9 293.5 523.9 296.1 523.9 292.4 523.9 295 524 296.4 524.1 302.5 524.1 298.7 524.2 296.4 524.4 300.5 524.6 305.9 524.6 311.1 524.7 307.1 524.8 306.2 524.9 303.9 525.1 308.8 525.5 303.9 525.7 305.3 526 305.9 526.3 308.8 526.6 307.9 526.8 312 527 311.1 527.3 312.3 527.6 317.4 527.8 313.4 528.1 306.5 528.5 305.6 528.7 301.9 529.1 303 529.3 297.6 529.6 298.7 529.9 301.9 530.2 306.2 530.7 302.5 531.2 304.8 531.6 302.2 532.1 294.4 532.6 300.2 533.1 296.1 533.5 306.2 533.8 303.9 534.6 303.9 535.6 304.5 536.3 309.4 536.6 313.1 537.1 309.1 537.5 305.1 537.8 303 538.6 307.4 539.2 304.8 539.6 301.9 540 303.9 540.8 304.5 541.1 300.5 541.1 299 541.5 298.7 541.8 293.3 542.1 292.1 542.3 292.4 542.7 293.8 543 292.4 543.2 288.1 543.5 288.9 543.7 284.6 543.9 284.3 544.1 283.8 544.5 285.2 544.7 282.3 544.9 280 545 282.6 545.3 286.1 545.4 285.5 545.8 284.6 546.1 284.3 546.6 282 547.2 283.2 547.6 284 548.1 280.3 548.4 284 549.1 280.3 549.2 282 549.5 282.6 549.8 281.7 550 279.4 550.3 279.7 550.6 282.6 551 284.3 551.3 284.3 551.6 283.8 552 280.3 552.4 277.4 552.5 277.1 552.8 275.7 553.3 276.6 553.8 276 553.9 272.5 554 267.1 554.3 270.2 554.5 266.8 554.8 272.8 555 272.8 555.2 273.1 555.6 272.2 556 272 556.5 268.5 556.9 265.3 557.2 267.3 557.6 266.2 557.8 265.6 558.1 269.9 558.3 267.3 558.5 269.4 559.1 272.5 559.5 276 559.6 277.4 559.7 275.1 559.9 277.7 560.2 275.7 560.5 270.2 560.7 263.3 560.9 267.3 561.2 266.8 561.5 263.6 561.9 263.6 562.2 262.7 562.3 260.4 562.5 266.5 562.6 264.2 562.9 259.9 563.1 263 563.2 265.9 563.5 264.2 563.7 267.3 564 267.9 564.3 271.1 564.4 270.2 564.6 274 564.9 277.1 565.3 279.4 565.5 278 565.7 280.6 565.9 282 566.1 282.3 566.3 282 566.5 282.3 566.7 284.9 566.9 284.9 567.2 289.8 567.6 286.3 567.8 286.9 568.2 291.8 568.5 288.9 568.8 293.3 569 296.1 569.2 292.7 569.5 293.5 569.8 295.3 570.2 298.4 570.6 301 570.9 302.2 571.1 305.6 571.3 308.2 571.4 311.1 571.5 307.4 571.6 307.9 571.8 304.5 572 304.8 572.2 303 572.3 304.5 572.5 303.9 572.7 307.6 572.8 305.9 572.9 305.1 573.2 308.5 573.5 311.7 573.7 312.3 574 312.5 574.4 311.1 574.6 316 574.9 318 575 317.4 575.2 321.2 575.3 323.8 575.3 327.8 575.4 326.4 575.5 322.3 575.7 326.4 575.7 324.6 575.9 327.2 576 327.8 576.2 328.1 576.3 329.5 576.6 326.4 576.8 328.4 577.3 328.4 577.4 325.8 577.6 322.6 577.8 323.5 578 322.9 578.2 330.1 578.3 333.6 578.4 332.1 578.6 326.6 578.7 325.5 578.8 324.6 578.9 320 579 319.7 579.1 327.8 579.4 327.2 579.5 329.2 579.8 333.6 579.9 338.2 580 338.5 580.2 339.6 580.4 338.5 580.5 333 580.7 338.7 580.8 340.5 580.9 341.6 581 344.8 581.1 340.8 581.2 346.2 581.2 352 581.3 349.4 581.3 344.5 581.4 345.1 581.5 340.2 581.6 332.7 581.8 332.4 582 331.8 582.2 330.7 582.4 322.6 582.5 319.7 582.6 319.2 582.7 318.3 582.9 312.3 583 312.3 583.2 310.2 583.4 310.8 583.6 310.8 583.8 314 583.9 319.5 584.1 321.8 584.2 325.8 584.3 326.9 584.6 324.9 584.9 323.5 585.2 323.5 585.5 317.4 585.9 320 586.3 315.4 586.6 315.1 586.9 307.4 587.1 305.6 587.5 310 587.8 308.5 588.2 308.8 588.5 311.1 588.9 307.9 589.3 301.6 589.6 303.3 589.9 299 590.3 305.1 590.6 305.3 591 308.8 591.4 309.1 591.9 314.8 592.2 314 592.5 313.1 592.9 317.4 593.1 319.5 593.4 317.7 593.8 315.7 594.3 318.3 594.8 315.1 595.2 307.6 595.5 307.4 596 310.8 596.5 315.1 597 315.1 597.3 310.2 597.8 310.5 598 302.2 598 297 598.2 295.3 598.4 295.6 598.6 295.8 598.8 297.3 599.1 294.7 599.2 294.4 599.4 293.8 599.6 291 599.7 287.5 599.9 285.5 600 288.9 600.2 294.4 600.5 299.3 601.1 298.7 601.4 296.1 602 298.7 602.4 294.4 602.7 296.4 603.1 295 603.2 299.3 603.6 301 604 299 604.4 292.7 604.7 286.9 604.8 291 605.3 293 605.6 292.7 606 295.3 606.4 297.3 606.8 300.7 607.1 303.6 607.5 298.4 607.8 294.4 608.1 294.7 608.5 297 608.8 299.3 609.3 301.6 609.8 305.9 610.1 307.9 610.3 311.1 610.6 307.1 610.9 304.8 611.2 303.3 611.6 297.9 611.8 297.9 612.5 300.5 612.9 296.4 613.3 298.4 613.6 305.1 613.7 311.4 613.8 309.7 613.8 303 614 303.6 614.3 307.4 614.5 306.5 614.8 303.3 614.9 297.3 615.2 299 615.5 299 615.9 299.9 616.2 301.6 616.6 306.5 617.1 302.2 617.6 301.6 617.9 306.8 618.4 308.8 618.6 313.7 618.9 310.2 619.3 312.8 619.5 315.7 619.8 317.7 620.1 320 620.3 320 620.5 318.9 620.8 320 621.1 322.3 621.5 322 621.7 322.6 622 322.9 622 326.4 622.1 326.6 622.2 328.1 622.4 331.3 622.5 332.4 622.6 331.8 622.7 332.7 623 330.1 623.2 331 623.2 325.8 623.3 326.4 623.5 322.6 623.8 317.7 624.1 318.6 624.4 319.2 624.7 321.8 625.1 318.3 625.3 324.3 625.5 331.3 625.8 331.3 626.1 328.7 626.5 328.4 627 323.8 627 320.6 627 320.9 627.4 321.8 627.9 322 628.2 317.4 628.5 319.5 628.7 316 628.9 319.7 629.2 319.7 629.6 326.6 629.9 331.8 630.2 335.9 630.3 337.6 630.5 337.6 630.9 333.3 631.3 335.3 631.5 329.5 631.8 330.7 632.1 329 632.4 335.6 632.5 339 632.6 340.8 632.8 337.9 633.1 337 633.4 337.3 633.8 333.8 634.2 338.5 634.5 341.3 634.7 345.1 635 346.5 635.2 347.1 635.2 352.8 635.3 351.7 635.5 350.3 635.7 344.5 636 347.4 636.1 346.2 636.4 344.8 636.6 350.8 636.7 350.5 636.8 350.5 636.9 351.7 637.1 352.3 637.3 348.2 637.4 349.7 637.6 349.4 637.7 347.7 637.9 349.4 638.1 346.8 638.2 344.5 638.3 343.3 638.5 341 638.6 337.6 639 337.9 639.3 339.3 639.5 343.1 639.8 342.8 640 347.1 640.2 350.8 640.3 355.4 640.4 358 640.4 360.6 640.6 358.6 640.8 354.6 641.1 351.7 641.3 356 641.4 363.5 641.5 363.8 641.7 363.8 641.9 363.2 642.2 359.5 642.4 356.6 642.5 350 642.5 347.1 642.6 350.3 642.6 347.1 642.7 340.8 642.7 343.9 642.8 350 643 348.5 643.1 348 643.5 346.8 643.9 346.5 644.2 342.5 644.6 342.5 645.1 345.1 645.6 347.1 646 344.8 646.4 344.5 647.2 347.4 647.6 345.1 648.2 350.3 648.7 350.8 648.9 359.5 649.2 363.2 649.2 364.1 649.3 366.1 649.3 365.8 649.4 362.9 649.7 364.6 649.9 369 650 371.8 650 370.7 650.1 373.9 650.3 371.8 650.5 372.1 650.6 371.8 650.7 368.1 650.8 368.4 651.1 369.8 651.4 369.3 651.8 368.7 652.1 365.2 652.3 365.2 652.5 360.6 652.6 356 652.7 355.7 653 351.1 653.3 358.3 653.6 359.8 653.9 363.5 654 365.5 654.1 365.2 654.3 366.9 654.4 362.1 654.6 363.2 654.7 362.9 655 365.2 655.2 367.2 655.2 365.8 655.4 366.1 655.6 370.1 655.7 371.8 655.8 374.7 655.9 379.6 655.9 379.9 656.1 376.7 656.1 366.9 656.2 362.9 656.2 358.3 656.3 359.2 656.4 362.3 656.5 357.2 656.5 358.9 656.7 352.3 656.8 350 656.9 352 657 347.1 657 339.6 657.1 340.2 657.2 342.8 657.3 339.9 657.3 333.8 657.4 335 657.5 336.7 657.6 336.4 657.7 341.9 657.8 332.7 657.9 327.2 658 324.1 658.1 324.9 658.2 328.1 658.3 328.1 658.4 327.8 658.6 332.4 658.7 328.1 658.9 335 659.1 334.4 659.2 337 659.3 338.5 659.4 336.4 659.5 327.8 659.6 330.4 659.7 325.5 659.8 330.4 659.9 329.8 660 330.1 660.1 331.8 660.4 329.8 660.6 333.8 660.7 331.5 660.9 329.5 661.1 331.8 661.3 329 661.4 320.6 661.5 322.3 661.6 320.9 661.7 318.3 661.8 321.8 661.9 318.9 662.2 315.7 662.4 318.3 662.4 321.5 662.5 319.7 662.7 320.9 662.9 326.1 663.1 327.2 663.4 322.6 663.6 326.1 663.9 328.7 664.1 329.5 664.3 331.5 664.5 334.7 664.7 332.4 665 329.8 665.2 329.8 665.4 334.4 665.7 337.6 665.9 341 666.2 341.3 666.5 345.6 666.7 341.6 667.1 337.3 667.5 340.5 668 339.9 668.3 343.1 668.6 343.1 668.9 346.5 669.2 345.4 669.5 344.5 669.8 343.6 670.1 340.5 670.4 343.6 670.7 344.5 671.1 341.3 671.2 341 671.3 339 671.4 337.3 671.4 338.5 671.6 337.3 671.8 338.7 671.9 344.2 672.2 345.6 672.5 343.1 673 343.6 673.3 342.5 673.6 343.3 673.8 346.2 674.1 347.7 674.4 347.1 674.9 344.8 675.2 344.2 675.7 339.3 676 340.2 676.3 334.4 676.7 338.2 677 339.9 677.4 335 677.8 331.5 677.9 326.1 678.1 332.4 678.4 325.2 678.5 323.8 678.7 318.9 678.9 315.4 679.1 318.3 679.2 314.8 679.2 311.1 679.3 307.9 679.5 307.1 679.6 310.2 679.7 312.3 679.9 312 680 312.3 680.2 308.5 680.3 307.4 680.5 308.5 680.7 308.5 680.8 309.4 681 306.5 681.2 306.8 681.4 305.9 681.5 304.8 681.7 305.6 682 307.4 682.1 303.9 682.3 303 682.6 307.1 682.9 303.9 683.2 302.5 683.6 302.8 683.8 301.9 684.2 302.5 684.5 298.7 684.6 294.1 684.8 292.7 685 296.4 685.2 295.3 685.5 299.6 685.7 303 686.1 304.8 686.4 299.9 686.7 297.3 687 298.7 687.2 292.1 687.5 295.8 687.9 299 688.2 305.6 688.6 303 689.1 298.7 689.4 297.3 689.7 296.7 689.9 296.7 690.2 295.6 690.4 297.6 690.7 299.6 691.1 299.6 691.1 302.5 691.2 308.5 691.5 313.4 691.7 311.1 692 309.4 692.1 309.7 692.6 307.4 693.3 307.1 693.3 308.5 693.6 312.3 693.9 312.8 694 314.6 694.4 314.3 694.7 317.4 694.9 317.1 695.3 320.6 695.6 322.3 696 321.5 696.4 325.2 696.9 322.6 697 320.6 697.2 320 697.5 316.3 697.8 315.4 698.1 316.6 698.2 315.7 698.8 322.9 699.3 318 699.7 322.6 700.1 324.6 700.6 320.9 700.8 318.6 701.2 318.3 701.6 323.2 701.8 324.9 702.2 324.3 702.7 321.8 703.4 321.5 704.1 321.8 704.6 318.6 705 314.8 705.6 317.4 706.2 316.3 706.6 312 707.2 316.3 707.8 316 708.3 311.7 708.5 305.6 708.7 305.9 709 309.4 709.4 311.4 709.9 310 710.7 309.4 711 316.6 711.6 313.7 712.1 316.9 713 316 713.6 315.4 714 320 714.6 316.3 715.2 319.2 715.9 315.7 716.5 314.8 717 316 717.2 320.3 717.7 319.7 718.2 317.4 718.6 318.6 719.5 315.4 720.4 314 720.6 310 721 309.4 721.6 311.7 722.1 318.6 722.2 313.7 722.3 314 722.6 314.8 723 313.1 723.1 310.8 723.6 311.7 724.2 305.1 724.6 303.9 725.4 308.5 726.1 312.5 726.7 316.6 727.5 318.9 727.7 315.7 728.6 318.3 729 320.6 729.3 324.9 729.6 321.2 730.2 323.8 730.8 322 731.2 325.5 731.5 326.1 732 330.4 732.4 332.1 732.4 327.2 732.5 325.5 732.8 329.5 733.1 330.1 733.4 332.1 733.7 332.4 734.1 334.4 734.5 333.6 735.2 335 735.5 337.3 735.7 339.9 735.9 339.6 736.2 340.2 736.5 338.5 736.8 338.5 737.4 343.3 737.6 344.5 737.8 342.5 738.1 344.5 738.3 348 738.6 343.6 738.9 341.3 739.1 347.1 739.5 349.1 739.7 348.2 740.2 345.1 740.8 345.1 741.5 351.1 741.7 351.4 742.2 354.6 742.2 355.7 742.3 358.9 742.4 353.1 742.6 349.7 743 350.8 743.3 345.4 743.5 341.6 743.8 338.2 744.3 337 744.5 338.5 745 345.9 745.4 347.7 745.7 347.7 746.1 351.7 746.2 354.6 746.3 360.6 746.4 354.9 746.6 350 747.1 350.8 747.4 354.6 747.6 358.3 748 359.8 748.2 360.3 748.6 357.2 749 358.3 749.4 354.6 749.8 355.1 750.4 355.7 750.6 362.1 750.8 362.3 750.9 364.6 751 365.2 751.2 367.8 751.3 370.7 751.4 372.7 751.5 372.7 751.6 373.3 751.8 370.7 751.9 369 752.1 373.6 752.3 375 752.5 375.9 752.8 371.8 752.9 376.7 753.1 371.8 753.3 368.7 753.5 367.8 753.7 364.9 753.7 359.2 753.7 360.6 753.8 352.8 753.9 354.3 754.1 354.6 754.3 358.3 754.5 358.6 754.9 363.8 755 368.4 755.1 368.7 755.4 367.8 755.7 371.8 755.9 373 756.1 380.2 756.1 385.1 756.2 377.9 756.3 384.5 756.3 385.7 756.3 388 756.3 388.8 756.3 389.1 756.4 393.4 756.4 390.6 756.4 398 756.5 396.6 756.5 400.9 756.5 393.1 756.5 397.2 756.6 401.5 756.6 403.2 756.7 404.9 756.7 399.5 756.8 401.2 756.9 395.2 756.9 398.9 757 399.5 757.1 400.1 757.2 401.2 757.3 404.4 757.3 405.2 757.4 401.5 757.4 401.5 757.5 396.6 757.5 396.9 757.6 398.9 757.7 404.1 757.7 407.5 757.8 406.7 757.9 403.8 758 409.8 758.1 407.8 758.1 410.4 758.2 406.7 758.2 416.2 758.3 419.3 758.3 421.4 758.4 421.9 758.5 419.3 758.6 421.9 758.7 416.5 758.7 418.8 758.7 422.2 758.8 421.9 758.8 427.4 758.9 427.1 758.9 427.7 759 429.1 759 420.5 759.1 420.2 759.2 426 759.2 422.8 759.3 421.4 759.3 419.1 759.4 422.8 759.5 421.4 759.6 423.9 759.7 426.5 759.7 423.1 759.8 426 759.9 426.2 760 430.6 760.1 427.7 760.2 427.4 760.3 429.4 760.5 429.1 760.5 428 760.7 426.5 760.8 425.7 760.9 423.9 761 421.9 761.2 419.9 761.3 417.3 761.4 413.6 761.6 415 761.7 410.7 762 411.9 762.2 408.7 762.4 410.7 762.5 406.7 762.7 416.7 762.8 414.4 763 417.3 763.1 415.9 763.2 419.3 763.4 422.8 763.4 424.8 763.5 419.3 763.7 416.7 763.8 417 764 420.8 764.1 421.1 764.3 417.3 764.5 419.1 764.6 416.5 764.8 420.5 765 423.1 765.1 423.1 765.2 422.5 765.3 424.8 765.3 426 765.4 431.7 765.4 434.9 765.4 434.9 765.5 431.4 765.6 431.1 765.7 426.8 765.8 425.1 765.9 429.1 766 434 766.1 434.6 766.2 437.2 766.3 441.2 766.4 438.3 766.5 437.5 766.7 439.2 766.8 437.8 766.9 432.3 767.1 430.9 767.2 434.9 767.3 438.3 767.4 439.5 767.5 436.6 767.6 433.2 767.7 435.5 767.8 439.5 767.8 438.6 767.9 434.3 768 430 768.1 424.8 768.2 421.4 768.2 426.5 768.3 426 768.4 430.9 768.5 430.3 768.7 428 768.8 428.8 768.9 431.7 768.9 432 769.1 433.2 769.2 427.1 769.2 425.4 769.3 428.3 769.4 428 769.5 422.5 769.6 424.2 769.8 426 770 425.7 770.1 421.1 770.2 420.5 770.4 419.3 770.5 416.2 770.7 413 770.8 417 771.1 418.5 771.2 417.3 771.2 420.2 771.3 420.5 771.4 422.8 771.5 420.5 771.7 426 771.8 424.5 771.9 424.5 772 425.4 772.2 424.8 772.3 419.9 772.4 419.1 772.5 419.6 772.6 420.5 772.7 421.6 772.9 419.9 773 422.2 773.2 422.5 773.4 424.5 773.5 423.1 773.6 421.9 773.8 423.7 774 420.8 774.1 426.5 774.1 430.9 774.3 434.9 774.5 431.4 774.6 438.9 774.7 437.2 774.8 438.6 774.9 438.3 775 439.8 775.1 439.8 775.3 437.5 775.4 432.6 775.4 430 775.5 427.7 775.6 421.9 775.9 429.7 776.1 427.1 776.3 422.8 776.5 422.8 776.7 422.8 776.9 416.5 777 417.6 777.1 419.3 777.4 420.2 777.7 420.8 777.8 420.8 778.1 419.3 778.4 417.9 778.8 417.3 779 417 779.2 413.9 779.3 415.3 779.5 414.7 779.6 408.7 779.7 410.4 780 415.9 780.2 421.1 780.4 428.3 780.7 425.7 780.9 422.8 781.3 423.9 781.5 422.8 781.8 423.7 782 418.8 782.2 416.5 782.4 417 782.5 415.6 782.7 414.7 782.9 410.1 783 407 783.2 406.7 783.4 406.1 783.4 397.8 783.5 396.9 783.5 392.9 783.6 396.6 783.7 396.3 783.8 393.7 784 391.4 784.1 393.1 784.2 392.9 784.3 386.5 784.4 388 784.6 390.6 784.7 392.9 784.8 392 785.1 391.1 785.4 392 785.6 394.6 785.8 392.3 786 392.3 786.1 390.6 786.3 385.9 786.3 389.1 786.4 389.7 786.6 389.1 786.7 387.1 787 391.1 787.2 391.1 787.5 394.9 787.7 399.2 787.9 400.1 788.1 398.6 788.3 397.2 788.4 401.5 788.5 400.9 788.9 403.2 789 404.9 789.1 403.5 789.2 403.2 789.4 404.7 789.6 409.3 789.7 407.2 789.9 409.6 790.2 406.4 790.4 403.8 790.5 403.8 790.7 403.8 790.8 400.6 790.9 404.9 791 406.4 791.3 409 791.4 408.1 791.7 409.8 791.8 402.6 792 400.6 792.2 404.1 792.4 407.5 792.5 410.4 792.6 415 792.6 416.7 792.8 415.6 793 417 793.1 419.3 793.2 421.1 793.5 422.2 793.8 422.2 794 424.8 794.3 422.5 794.4 425.1 794.6 425.7 794.9 427.7 795 429.4 795.1 432.3 795.3 430 795.4 424.2 795.5 427.1 795.7 421.9 795.9 421.4 796.1 420.8 796.3 416.7 796.6 415 796.6 406.7 796.7 407.5 796.7 407.8 796.8 399.8 796.8 396.6 796.9 396.6 796.9 399.2 797.1 394 797.1 391.1 797.3 396.9 797.4 396 797.6 396.3 797.8 403.2 797.9 407 798 408.1 798.4 407.2 798.5 408.7 798.9 409 799.1 411.6 799.1 410.7 799.3 406.7 799.5 408.1 799.7 402.6 800.1 402.6 800.2 399.5 800.2 396.6 800.2 392.9 800.2 388.3 800.2 388.3 800.2 383.9 800.2 381.9 800.2 377.3 800.2 382.5 800.2 378.2 800.3 368.4 800.3 373.3 800.3 369.8 800.3 367.8 800.3 370.4 800.3 364.1 800.3 364.6 800.3 367.5 800.3 364.6 800.3 364.6 800.3 363.2 800.3 364.6 800.3 362.1 800.3 357.2 800.3 356 800.3 351.1 800.3 347.4 800.4 349.7 800.4 343.9 800.4 344.2 800.4 350 800.4 352 800.4 348 800.5 347.4 800.5 347.4 800.5 349.1 800.5 345.9 800.6 341.3 800.6 337 800.6 336.7 800.7 338.5 800.7 340.5 800.8 333 800.8 329.8 800.8 329 800.9 335.3 800.9 339.3 800.9 344.2 800.9 344.5 801 342.8 801.1 342.8 801.2 344.2 801.3 347.7 801.4 349.4 801.5 349.4 801.5 347.4 801.5 345.9 801.6 347.1 801.6 345.6 801.6 347.4 801.9 345.9 802 346.5 802.1 350.8 802.2 348.5 802.4 346.5 802.6 351.7 802.7 351.4 802.9 355.7 802.9 360 803 359.5 803.1 356.9 803.2 358.3 803.3 360.6 803.4 359.5 803.5 359.5 803.6 358.6 803.8 354.6 804 355.4 804 357.7 804.2 359.5 804.4 364.6 804.5 367.5 804.7 362.6 805 358.9 805.2 357.2 805.4 357.2 805.6 354.6 805.9 350 806.1 345.6 806.3 346.8 806.4 348.8 806.4 352.8 806.5 351.7 806.6 350.3 806.8 344.2 806.9 350.3 807.1 349.7 807.2 347.4 807.3 353.7 807.4 354 807.4 354.9 807.5 352.8 807.7 350.3 807.9 351.7 808.1 352.3 808.3 350.5 808.7 350.3 808.7 358 808.8 359.8 809.2 358 809.4 362.1 809.6 362.3 809.8 356 809.9 358.3 810.1 353.4 810.2 353.7 810.3 355.4 810.5 352.6 810.6 355.4 810.9 353.7 811 357.7 811.1 361.2 811.6 363.2 811.8 364.4 812 362.6 812.3 362.3 812.6 359.5 812.8 357.2 813.2 360 813.6 358.6 814 360.3 814 364.4 814.2 363.5 814.7 360.6 815.4 358 815.8 360.6 816.4 360.6 816.9 360.9 817.5 358.6 817.9 357.2 818.2 357.4 819 361.8 819.2 364.6 819.4 355.7 819.6 352.3 820 356.9 820.2 362.9 820.4 358.9 820.6 359.2 821.1 358 821.3 361.8 821.5 355.7 821.6 351.4 821.7 355.7 822.2 356 822.6 356.3 822.9 360 823.3 359.8 823.9 360.9 824.5 356.3 824.8 356.3 825.4 354.6 825.8 350.3 826.1 350.5 826.4 348.5 827 349.4 827.3 349.4 827.6 347.7 828 347.4 828.4 343.6 828.8 344.5 828.9 336.7 829.2 339.6 829.4 338.7 829.7 334.1 829.9 340.2 830.1 339.9 830.6 345.9 830.9 350.8 831.1 350.5 831.6 345.1 832 340.8 832.6 341.9 833 341.3 833.4 342.2 833.6 344.2 833.7 342.8 833.8 343.6 834 347.1 834.1 341.9 834.3 341.3 834.5 348 834.6 345.1 834.8 345.6 835.3 342.8 835.5 343.3 835.8 342.5 836.1 340.2 836.1 337 836.3 337 836.5 337.6 836.7 339.9 836.9 341.9 837.2 340.5 837.4 335.6 837.5 335.9 837.7 335 837.8 336.7 838 333.6 838.3 334.1 838.5 337 838.9 336.7 839.3 340.2 839.5 341.3 840.2 342.2 840.9 341 841.4 338.2 841.9 340.2 842.1 340.8 842.4 338.5 842.6 338.5 842.7 343.6 843 341.3 843.2 339.9 843.4 339.9 843.8 339.6 844.5 340.5 845.3 344.5 846 339.9 846.8 337.9 847.9 336.4 848.5 337.3 848.9 331.3 849.3 330.7 849.8 329 850.5 328.4 851.3 328.4 851.7 326.4 852.3 322.6 853.1 326.4 853.6 326.1 854.2 323.5 855.1 326.4 855.8 319.7 856.2 321.5 856.8 321.2 857.4 321.2 858.1 322.9 858.6 326.1 859.4 328.1 859.8 328.1 860.4 326.9 860.9 330.4 861.5 333.6 862.1 333.6 862.8 334.1 863.6 335.9 863.9 337.3 864.4 338.7 864.9 343.6 865.1 348.8 865.3 348.8 865.5 349.4 865.5 353.7 865.5 354 865.7 358 865.9 360.6 866.2 363.2 866.3 366.9 866.4 365.5 866.6 363.8 866.8 362.1 867 361.2 867.1 358.9 867.5 357.2 867.9 358 868.4 358 869.1 358.3 869.4 361.2 869.9 360.6 870.4 360.6 871.1 360 871.6 362.3 871.6 360.9 872.1 359.8 872.3 361.2 872.6 355.4 872.9 356 873.2 358.3 873.4 357.7 874 359.2 874.4 359.8 874.7 354.6 875.5 356.9 876.2 355.1 876.8 358.9 877.1 364.6 877.5 364.9 877.9 371.8 878.2 367.8 878.4 368.4 878.7 369.8 879.1 372.1 879.3 370.7 879.8 371.6 880 377.9 880.3 381.1 880.6 379.3 880.8 381.1 881.1 382.8 881.2 386.5 881.5 383.1 881.6 382.2 881.7 384.8 881.9 383.4 882.2 378.5 882.4 374.4 882.7 376.7 882.9 375.6 883.4 373.3 883.8 377 884.3 373.9 884.7 378.2 885.1 379.9 885.5 379.9 885.9 373.3 886 373 886.4 371 886.6 373 886.9 376.2 887.4 373.6 888 369.3 888.3 366.7 888.8 369 889.2 365.8 889.3 365.5 889.7 369.5 889.9 373.3 890 370.1 890.4 367.5 890.7 367.2 891.2 366.4 891.4 366.1 891.8 366.1 892.2 365.8 892.5 368.1 892.7 370.4 893 375.9 893.2 376.2 893.5 370.1 894 373.3 894.4 367.2 894.7 364.4 894.9 362.3 895.4 365.2 895.6 370.1 896.1 369.5 896.9 371.3 897.3 373.6 897.6 369.8 897.9 375.6 898.4 376.7 898.8 372.1 899 368.1 899.3 367.2 899.6 368.4 900 369.8 900.2 369.5 900.5 372.1 900.9 371 901.5 369 902 365.5 902.6 365.5 903.1 368.1 903.7 373.9 903.7 376.7 903.8 378.2 904.2 377.3 904.5 380.5 905.1 377.9 905.7 379 906.1 377.6 907 382.8 907.1 386.5 907.5 388 907.7 392.9 907.9 391.4 908.1 393.1 908.4 396.3 908.5 392.3 908.7 395.2 909 396.3 909.5 393.4 909.9 395.7 910.3 395.2 910.4 397.5 911.3 392.3 911.8 395.7 911.9 402.1 912.1 400.6 912.4 402.6 913 402.6 913.1 404.9 913.4 404.1 913.7 408.7 913.9 408.1 914.2 409.8 915 403.5 915.5 400.9 916.2 406.1 916.5 413.6 916.8 413 917 416.5 917.3 417.3 917.7 415.3 917.8 417 918 420.5 918.1 423.7 918.2 423.9 918.5 426 918.7 426.5 919.2 421.6 919.5 412.7 919.8 411 920.4 410.1 920.9 406.1 921.6 407 922.2 413.3 922.5 414.4 923.1 415 923.8 413.6 924.6 414.7 925 413.3 925.2 419.3 925.3 423.9 925.7 422.5 926 421.9 926.5 422.8 926.8 418.2 927.2 416.7 928 416.5 928.4 410.7 928.9 410.1 929.5 403.8 930.1 402.4 930.6 404.1 931.6 405.5 932.3 404.9 933.2 403.8 933.8 402.1 933.9 398.6 934 399.8" opacity=".6"/><text x="942" y="472" fill="#d97706" font-size="11" text-anchor="start">6.48</text><text x="942" y="396" fill="#d97706" font-size="11" text-anchor="start">6.75</text><text x="942" y="320" fill="#d97706" font-size="11" text-anchor="start">7.01</text><text x="942" y="244" fill="#d97706" font-size="11" text-anchor="start">7.28</text><text x="942" y="168" fill="#d97706" font-size="11" text-anchor="start">7.54</text><text x="942" y="92" fill="#d97706" font-size="11" text-anchor="start">7.80</text><text x="942" y="80" fill="#d97706" font-size="11" font-weight="600" text-anchor="start">price</text><polygon fill="#16a34a" fill-opacity=".08" points="114.2 468 114.2 245.6 114.2 266.5 201.8 184.7 220 208.7 224.9 240.9 278.8 283.7 304.6 116.1 317 139.8 331.7 171.3 342.1 213.2 474.1 269.2 553.9 287.9 568.2 312.9 637 215.3 650 239.1 652.7 270.8 655.8 313.1 656.5 369.5 684.6 342.3 742.2 307.5 758.2 263.2 783.5 282.5 792.6 308.2 796.8 342.5 800.6 208.5 910 139.2 910 468"/><polyline fill="none" stroke="#16a34a" stroke-linejoin="round" stroke-width="2" points="114.2 245.6 114.2 266.5 201.8 184.7 220 208.7 224.9 240.9 278.8 283.7 304.6 116.1 317 139.8 331.7 171.3 342.1 213.2 474.1 269.2 553.9 287.9 568.2 312.9 637 215.3 650 239.1 652.7 270.8 655.8 313.1 656.5 369.5 684.6 342.3 742.2 307.5 758.2 263.2 783.5 282.5 792.6 308.2 796.8 342.5 800.6 208.5 910 139.2"/><line x1="88" x2="110" y1="102" y2="102" stroke="#16a34a" stroke-width="2.5"/><text x="116" y="106" fill="#374151" font-size="11.5">equity</text><line x1="88" x2="110" y1="118" y2="118" stroke="#d97706" stroke-width="2.5" opacity=".8"/><text x="116" y="122" fill="#374151" font-size="11.5">price</text><text x="78" y="502" fill="#6b7280" font-size="12" text-anchor="start">2026-06-05</text><text x="934" y="502" fill="#6b7280" font-size="12" text-anchor="end">2026-06-05</text></svg>