<svg xmlns="http://www.w3.org/2000/svg" width="1100" height="560" font-family="ui-sans-serif, system-ui, sans-serif" viewBox="0 0 1100 560"><rect width="1100" height="560" fill="#fff"/><text x="80" y="28" fill="#111827" font-size="18" font-weight="700">Zone Recovery — AVAXUSDC fee-tier comparison (best setting)</text><text x="80" y="48" fill="#6b7280" font-size="12.5">lev 20 · ratio 3 · gap 20% · maxSteps 4 · maxDD 60% · random · equity per fee tier vip 0..9</text><text x="80" y="68" fill="#1d4ed8" font-size="12.5" font-weight="600">USDC margin · BNB −10%</text><line x1="80" x2="932" y1="508" y2="508" stroke="#e5e7eb" stroke-width="1"/><text x="70" y="512" fill="#6b7280" font-size="12" text-anchor="end">0.00</text><line x1="80" x2="932" y1="424" y2="424" stroke="#e5e7eb" stroke-width="1"/><text x="70" y="428" fill="#6b7280" font-size="12" text-anchor="end">3418</text><line x1="80" x2="932" y1="340" y2="340" stroke="#e5e7eb" stroke-width="1"/><text x="70" y="344" fill="#6b7280" font-size="12" text-anchor="end">6835</text><line x1="80" x2="932" y1="256" y2="256" stroke="#e5e7eb" stroke-width="1"/><text x="70" y="260" fill="#6b7280" font-size="12" text-anchor="end">10253</text><line x1="80" x2="932" y1="172" y2="172" stroke="#e5e7eb" stroke-width="1"/><text x="70" y="176" fill="#6b7280" font-size="12" text-anchor="end">13670</text><line x1="80" x2="932" y1="88" y2="88" stroke="#e5e7eb" stroke-width="1"/><text x="70" y="92" fill="#6b7280" font-size="12" text-anchor="end">17088</text><line x1="80" x2="932" y1="262.2" y2="262.2" stroke="#9ca3af" stroke-dasharray="6 4" stroke-width="1.5"/><polyline fill="none" stroke="#2563eb" stroke-linejoin="round" stroke-width="1.8" points="80 262.2 80 286.6 173.8 197.7 193.3 225.8 198.6 263.2 256.3 313.1 283.9 131.2 297.2 158.7 312.9 195.4 324 244.4 465.4 309.6 550.7 329.3 566.1 355.6 639.7 259.9 653.6 284.5 656.5 317.4 659.8 361.1 660.6 419.4 690.7 395.4 752.3 364.9 769.5 326.1 796.6 344.2 806.3 368.3 810.8 400.4 814.9 283.6 932 222.7" opacity=".9"/><polyline fill="none" stroke="#dc2626" stroke-linejoin="round" stroke-width="1.8" points="80 262.2 80 286.6 173.8 197.7 193.3 225.8 198.6 263.2 256.3 313.1 283.9 131.2 297.2 158.7 312.9 195.4 324 244.4 465.4 309.6 550.7 329.3 566.1 355.6 639.7 259.9 653.6 284.5 656.5 317.4 659.8 361.1 660.6 419.4 690.7 395.4 752.3 364.9 769.5 326.1 796.6 344.2 806.3 368.3 810.8 400.4 814.9 283.6 932 222.7" opacity=".9"/><polyline fill="none" stroke="#16a34a" stroke-linejoin="round" stroke-width="1.8" points="80 262.2 80 286.3 173.8 197 193.3 224.6 198.6 261.6 256.3 310.8 283.9 128.1 297.2 155.2 312.9 191.4 324 239.7 465.4 304 550.7 324 566.1 350.6 639.7 251.9 653.6 276.9 656.5 310.4 659.8 354.9 660.6 414.4 690.7 388.8 752.3 356.4 769.5 315.1 796.6 334 806.3 359.2 810.8 392.7 814.9 268.2 932 202.9" opacity=".9"/><polyline fill="none" stroke="#d97706" stroke-linejoin="round" stroke-width="1.8" points="80 262.2 80 286 173.8 196.4 193.3 223.7 198.6 260.3 256.3 308.9 283.9 125.5 297.2 152.4 312.9 188.2 324 235.9 465.4 299.6 550.7 319.8 566.1 346.7 639.7 245.3 653.6 270.8 656.5 304.7 659.8 349.9 660.6 410.2 690.7 383.4 752.3 349.3 769.5 305.9 796.6 325.5 806.3 351.6 810.8 386.4 814.9 255.5 932 186.4" opacity=".9"/><polyline fill="none" stroke="#7c3aed" stroke-linejoin="round" stroke-width="1.8" points="80 262.2 80 285.6 173.8 195.5 193.3 222.5 198.6 258.4 256.3 306.3 283.9 121.9 297.2 148.4 312.9 183.6 324 230.6 465.4 293.2 550.7 313.7 566.1 341 639.7 236 653.6 261.9 656.5 296.5 659.8 342.6 660.6 404 690.7 375.4 752.3 339 769.5 292.5 796.6 313.1 806.3 340.5 810.8 377 814.9 236.6 932 161.9" opacity=".9"/><polyline fill="none" stroke="#0891b2" stroke-linejoin="round" stroke-width="1.8" points="80 262.2 80 285.6 173.8 195.3 193.3 222.2 198.6 258.1 256.3 305.9 283.9 121.3 297.2 147.6 312.9 182.8 324 229.7 465.4 292.1 550.7 312.7 566.1 340 639.7 234.4 653.6 260.4 656.5 295.1 659.8 341.3 660.6 402.9 690.7 374 752.3 337.1 769.5 290.1 796.6 310.8 806.3 338.4 810.8 375.3 814.9 233.1 932 157.5" opacity=".9"/><polyline fill="none" stroke="#db2777" stroke-linejoin="round" stroke-width="1.8" points="80 262.2 80 285.5 173.8 195.2 193.3 222.1 198.6 257.9 256.3 305.6 283.9 120.9 297.2 147.2 312.9 182.2 324 229 465.4 291.4 550.7 311.9 566.1 339.3 639.7 233.2 653.6 259.3 656.5 294.1 659.8 340.4 660.6 402.2 690.7 373 752.3 335.9 769.5 288.4 796.6 309.3 806.3 337 810.8 374.1 814.9 230.8 932 154.4" opacity=".9"/><polyline fill="none" stroke="#65a30d" stroke-linejoin="round" stroke-width="1.8" points="80 262.2 80 285.5 173.8 195.1 193.3 221.8 198.6 257.5 256.3 305.1 283.9 120.2 297.2 146.4 312.9 181.4 324 228 465.4 290.2 550.7 310.8 566.1 338.3 639.7 231.5 653.6 257.6 656.5 292.5 659.8 339 660.6 401 690.7 371.5 752.3 333.9 769.5 285.8 796.6 306.9 806.3 334.9 810.8 372.2 814.9 227.1 932 150.6" opacity=".9"/><polyline fill="none" stroke="#475569" stroke-linejoin="round" stroke-width="1.8" points="80 262.2 80 285.4 173.8 195 193.3 221.7 198.6 257.3 256.3 304.8 283.9 119.7 297.2 145.9 312.9 180.8 324 227.4 465.4 289.4 550.7 310.1 566.1 337.6 639.7 230.3 653.6 256.6 656.5 291.5 659.8 338.1 660.6 400.2 690.7 370.5 752.3 332.6 769.5 284.1 796.6 305.3 806.3 333.5 810.8 371 814.9 224.7 932 148.2" opacity=".9"/><polyline fill="none" stroke="#ea580c" stroke-linejoin="round" stroke-width="1.8" points="80 262.2 80 285.3 173.8 194.8 193.3 221.5 198.6 257 256.3 304.3 283.9 119.1 297.2 145.2 312.9 180 324 226.4 465.4 288.3 550.7 309 566.1 336.6 639.7 228.7 653.6 255 656.5 290 659.8 336.8 660.6 399.1 690.7 369 752.3 330.6 769.5 281.7 796.6 303 806.3 331.4 810.8 369.3 814.9 221.1 932 144.6" opacity=".9"/><line x1="950" x2="972" y1="94" y2="94" stroke="#ea580c" stroke-width="3"/><text x="980" y="98" fill="#374151" font-size="12.5">vip 9 14786</text><line x1="950" x2="972" y1="116" y2="116" stroke="#475569" stroke-width="3"/><text x="980" y="120" fill="#374151" font-size="12.5">vip 8 14640</text><line x1="950" x2="972" y1="138" y2="138" stroke="#65a30d" stroke-width="3"/><text x="980" y="142" fill="#374151" font-size="12.5">vip 7 14540</text><line x1="950" x2="972" y1="160" y2="160" stroke="#db2777" stroke-width="3"/><text x="980" y="164" fill="#374151" font-size="12.5">vip 6 14386</text><line x1="950" x2="972" y1="182" y2="182" stroke="#0891b2" stroke-width="3"/><text x="980" y="186" fill="#374151" font-size="12.5">vip 5 14261</text><line x1="950" x2="972" y1="204" y2="204" stroke="#7c3aed" stroke-width="3"/><text x="980" y="208" fill="#374151" font-size="12.5">vip 4 14080</text><line x1="950" x2="972" y1="226" y2="226" stroke="#d97706" stroke-width="3"/><text x="980" y="230" fill="#374151" font-size="12.5">vip 3 13083</text><line x1="950" x2="972" y1="248" y2="248" stroke="#16a34a" stroke-width="3"/><text x="980" y="252" fill="#374151" font-size="12.5">vip 2 12412</text><line x1="950" x2="972" y1="270" y2="270" stroke="#2563eb" stroke-width="3"/><text x="980" y="274" fill="#374151" font-size="12.5">vip 0 11607</text><line x1="950" x2="972" y1="292" y2="292" stroke="#dc2626" stroke-width="3"/><text x="980" y="296" fill="#374151" font-size="12.5">vip 1 11607</text><text x="80" y="542" fill="#6b7280" font-size="12" text-anchor="start">2026-06-05</text><text x="932" y="542" fill="#6b7280" font-size="12" text-anchor="end">2026-06-05</text></svg>