<?xml version="1.0" encoding="UTF-8"?>
<svg xmlns="http://www.w3.org/2000/svg" width="1100" height="560" viewBox="0 0 1100 560" font-family="ui-sans-serif, system-ui, sans-serif">
  <rect width="1100" height="560" fill="#ffffff"/>
  <text x="80" y="28" font-size="18" font-weight="700" fill="#111827">Zone Recovery — AVAXUSDC fee-tier comparison (best setting)</text>
  <text x="80" y="48" font-size="12.5" fill="#6b7280">lev 20 · ratio 3 · gap 20% · maxSteps 6 · maxDD 60% · random  ·  equity per fee tier vip 0..9</text>
  <text x="80" y="68" font-size="12.5" font-weight="600" fill="#1d4ed8">USDC margin · BNB −10%</text>
  <line x1="80" y1="508.0" x2="932" y2="508.0" stroke="#e5e7eb" stroke-width="1"/><text x="70" y="512.0" text-anchor="end" font-size="12" fill="#6b7280">0.00</text><line x1="80" y1="424.0" x2="932" y2="424.0" stroke="#e5e7eb" stroke-width="1"/><text x="70" y="428.0" text-anchor="end" font-size="12" fill="#6b7280">9183</text><line x1="80" y1="340.0" x2="932" y2="340.0" stroke="#e5e7eb" stroke-width="1"/><text x="70" y="344.0" text-anchor="end" font-size="12" fill="#6b7280">18367</text><line x1="80" y1="256.0" x2="932" y2="256.0" stroke="#e5e7eb" stroke-width="1"/><text x="70" y="260.0" text-anchor="end" font-size="12" fill="#6b7280">27550</text><line x1="80" y1="172.0" x2="932" y2="172.0" stroke="#e5e7eb" stroke-width="1"/><text x="70" y="176.0" text-anchor="end" font-size="12" fill="#6b7280">36734</text><line x1="80" y1="88.0" x2="932" y2="88.0" stroke="#e5e7eb" stroke-width="1"/><text x="70" y="92.0" text-anchor="end" font-size="12" fill="#6b7280">45917</text>
  <line x1="80" y1="416.5" x2="932" y2="416.5" stroke="#9ca3af" stroke-width="1.5" stroke-dasharray="6 4"/>
  <polyline points="80.0,416.5 80.0,404.9 81.8,391.9 82.5,397.3 82.9,377.6 90.6,383.4 93.0,391.1 104.7,363.1 107.7,347.1 113.5,331.0 120.0,336.8 122.4,344.5 130.3,354.7 133.2,368.4 151.4,386.6 151.9,410.9 158.6,415.4 192.5,421.4 193.0,429.4 198.2,400.2 198.3,405.2 199.0,411.9 201.9,420.8 202.4,432.7 216.0,448.5 218.6,469.6 225.3,471.4 225.9,473.7 245.5,465.1 245.6,467.1 246.1,469.7 264.9,460.0 303.1,454.0 303.5,456.5 303.8,459.8 305.2,464.3 368.2,448.0 372.0,440.4 378.2,443.6 386.3,432.1 386.4,435.6 388.2,422.8 395.1,412.0 402.4,416.5 414.6,400.3 415.8,405.3 416.9,387.1 441.9,392.7 443.0,400.2 447.6,410.1 448.2,423.4 455.7,441.2 472.2,376.5 472.4,382.4 472.6,390.2 475.2,400.7 500.6,362.6 500.9,368.5 503.5,376.3 504.5,386.8 505.9,400.7 527.3,350.0 536.8,355.8 566.0,334.4 566.3,340.3 566.6,318.9 566.6,324.8 566.6,303.4 566.6,309.1 566.6,316.8 566.6,327.0 569.3,289.8 610.3,274.0 614.3,279.9 629.7,287.7 630.9,298.2 640.8,312.1 642.1,330.7 642.8,263.0 645.7,247.0 645.8,252.7 648.4,231.8 649.0,237.6 668.2,216.2 684.2,222.0 687.7,229.7 698.8,239.9 701.9,253.6 745.8,203.8 754.4,209.7 758.4,188.3 763.0,194.0 781.0,173.1 782.2,179.0 794.3,186.8 802.8,197.2 810.8,211.2 812.2,229.7 814.1,254.5 815.8,260.2 851.2,267.9 865.6,239.9 865.7,245.8 866.0,224.4 866.1,230.3 866.2,238.1 866.7,248.6 867.0,262.5 869.8,281.0 871.5,305.8 878.5,311.7 890.4,319.5 891.8,329.9 898.7,343.9 900.3,362.4 913.6,294.8 914.7,300.6 915.1,308.5 920.5,318.9 921.6,280.8 921.6,286.7 921.6,294.5 921.7,305.0 922.1,318.9 924.5,337.5 924.8,269.8 924.8,275.7 924.8,283.5 924.8,294.0 924.8,307.9 926.5,326.4 926.6,258.8 926.6,264.6 926.6,272.5 926.6,282.9 926.6,296.8 926.6,246.1 926.6,251.9 932.0,230.9" fill="none" stroke="#2563eb" stroke-width="1.8" stroke-linejoin="round" opacity="0.9"/>
  <polyline points="80.0,416.5 80.0,404.9 81.8,391.9 82.5,397.3 82.9,377.6 90.6,383.4 93.0,391.1 104.7,363.1 107.7,347.1 113.5,331.0 120.0,336.8 122.4,344.5 130.3,354.7 133.2,368.4 151.4,386.6 151.9,410.9 158.6,415.4 192.5,421.4 193.0,429.4 198.2,400.2 198.3,405.2 199.0,411.9 201.9,420.8 202.4,432.7 216.0,448.5 218.6,469.6 225.3,471.4 225.9,473.7 245.5,465.1 245.6,467.1 246.1,469.7 264.9,460.0 303.1,454.0 303.5,456.5 303.8,459.8 305.2,464.3 368.2,448.0 372.0,440.4 378.2,443.6 386.3,432.1 386.4,435.6 388.2,422.8 395.1,412.0 402.4,416.5 414.6,400.3 415.8,405.3 416.9,387.1 441.9,392.7 443.0,400.2 447.6,410.1 448.2,423.4 455.7,441.2 472.2,376.5 472.4,382.4 472.6,390.2 475.2,400.7 500.6,362.6 500.9,368.5 503.5,376.3 504.5,386.8 505.9,400.7 527.3,350.0 536.8,355.8 566.0,334.4 566.3,340.3 566.6,318.9 566.6,324.8 566.6,303.4 566.6,309.1 566.6,316.8 566.6,327.0 569.3,289.8 610.3,274.0 614.3,279.9 629.7,287.7 630.9,298.2 640.8,312.1 642.1,330.7 642.8,263.0 645.7,247.0 645.8,252.7 648.4,231.8 649.0,237.6 668.2,216.2 684.2,222.0 687.7,229.7 698.8,239.9 701.9,253.6 745.8,203.8 754.4,209.7 758.4,188.3 763.0,194.0 781.0,173.1 782.2,179.0 794.3,186.8 802.8,197.2 810.8,211.2 812.2,229.7 814.1,254.5 815.8,260.2 851.2,267.9 865.6,239.9 865.7,245.8 866.0,224.4 866.1,230.3 866.2,238.1 866.7,248.6 867.0,262.5 869.8,281.0 871.5,305.8 878.5,311.7 890.4,319.5 891.8,329.9 898.7,343.9 900.3,362.4 913.6,294.8 914.7,300.6 915.1,308.5 920.5,318.9 921.6,280.8 921.6,286.7 921.6,294.5 921.7,305.0 922.1,318.9 924.5,337.5 924.8,269.8 924.8,275.7 924.8,283.5 924.8,294.0 924.8,307.9 926.5,326.4 926.6,258.8 926.6,264.6 926.6,272.5 926.6,282.9 926.6,296.8 926.6,246.1 926.6,251.9 932.0,230.9" fill="none" stroke="#dc2626" stroke-width="1.8" stroke-linejoin="round" opacity="0.9"/>
  <polyline points="80.0,416.5 80.0,404.9 81.8,391.7 82.5,397.1 82.9,377.3 90.6,383.0 93.0,390.6 104.7,362.5 107.7,346.4 113.5,330.2 120.0,335.9 122.4,343.5 130.3,353.6 133.2,367.1 151.4,385.0 151.9,409.0 158.6,413.5 192.5,419.6 193.0,427.6 198.2,397.7 198.3,402.8 199.0,409.5 201.9,418.5 202.4,430.5 216.0,446.4 218.6,467.7 225.3,469.6 225.9,472.0 245.5,462.9 245.6,465.0 246.1,467.7 264.9,457.5 303.1,451.1 303.5,453.7 303.8,457.2 305.2,461.8 368.2,444.6 372.0,436.5 378.2,439.8 386.3,427.6 386.4,431.3 388.2,417.7 395.1,406.2 402.4,410.8 414.6,393.5 415.8,398.8 416.9,379.3 441.9,385.1 443.0,392.9 447.6,403.2 448.2,416.9 455.7,435.2 472.2,367.2 472.4,373.0 472.6,380.7 475.2,391.1 500.6,352.8 500.9,358.6 503.5,366.3 504.5,376.6 505.9,390.4 527.3,339.4 536.8,345.2 566.0,323.7 566.3,329.5 566.6,308.0 566.6,313.8 566.6,292.3 566.6,297.9 566.6,305.5 566.6,315.6 569.3,278.2 610.3,262.3 614.3,268.1 629.7,275.9 630.9,286.2 640.8,299.9 642.1,318.2 642.8,250.2 645.7,234.1 645.8,239.8 648.4,218.7 649.0,224.5 668.2,203.0 684.2,208.7 687.7,216.3 698.8,226.4 701.9,239.8 745.8,189.9 754.4,195.7 758.4,174.1 763.0,179.8 781.0,158.8 782.2,164.6 794.3,172.3 802.8,182.6 810.8,196.3 812.2,214.6 814.1,239.1 815.8,244.7 851.2,252.3 865.6,224.2 865.7,230.0 866.0,208.5 866.1,214.3 866.2,222.0 866.7,232.3 867.0,246.1 869.8,264.4 871.5,288.8 878.5,294.6 890.4,302.3 891.8,312.6 898.7,326.4 900.3,344.7 913.6,276.7 914.7,282.5 915.1,290.2 920.5,300.5 921.6,262.3 921.6,268.1 921.6,275.8 921.7,286.1 922.1,299.8 924.5,318.1 924.8,250.1 924.8,255.9 924.8,263.7 924.8,274.0 924.8,287.7 926.5,306.0 926.6,238.0 926.6,243.8 926.6,251.5 926.6,261.8 926.6,275.6 926.6,224.6 926.6,230.3 932.0,209.2" fill="none" stroke="#16a34a" stroke-width="1.8" stroke-linejoin="round" opacity="0.9"/>
  <polyline points="80.0,416.5 80.0,404.8 81.8,391.6 82.5,396.9 82.9,377.1 90.6,382.7 93.0,390.2 104.7,362.0 107.7,345.8 113.5,329.6 120.0,335.2 122.4,342.7 130.3,352.7 133.2,366.0 151.4,383.8 151.9,407.5 158.6,412.0 192.5,418.1 193.0,426.2 198.2,395.7 198.3,400.8 199.0,407.6 201.9,416.7 202.4,428.7 216.0,444.8 218.6,466.2 225.3,468.1 225.9,470.6 245.5,461.1 245.6,463.3 246.1,466.1 264.9,455.4 303.1,448.7 303.5,451.4 303.8,455.0 305.2,459.7 368.2,441.8 372.0,433.3 378.2,436.7 386.3,423.9 386.4,427.7 388.2,413.4 395.1,401.3 402.4,406.1 414.6,387.9 415.8,393.4 416.9,372.9 441.9,378.6 443.0,386.3 447.6,396.5 448.2,410.1 455.7,428.2 472.2,359.9 472.4,365.7 472.6,373.3 475.2,383.5 500.6,345.1 500.9,350.8 503.5,358.5 504.5,368.7 505.9,382.3 527.3,331.1 536.8,336.8 566.0,315.2 566.3,321.0 566.6,299.4 566.6,305.1 566.6,283.5 566.6,289.1 566.6,296.6 566.6,306.6 569.3,269.0 610.3,253.1 614.3,258.9 629.7,266.5 630.9,276.7 640.8,290.3 642.1,308.4 642.8,240.1 645.7,224.0 645.8,229.6 648.4,208.4 649.0,214.2 668.2,192.6 684.2,198.2 687.7,205.7 698.8,215.7 701.9,229.0 745.8,178.8 754.4,184.6 758.4,163.0 763.0,168.6 781.0,147.4 782.2,153.2 794.3,160.8 802.8,171.0 810.8,184.6 812.2,202.7 814.1,226.9 815.8,232.5 851.2,240.0 865.6,211.8 865.7,217.5 866.0,195.9 866.1,201.6 866.2,209.3 866.7,219.5 867.0,233.1 869.8,251.2 871.5,275.3 878.5,281.1 890.4,288.7 891.8,298.9 898.7,312.5 900.3,330.6 913.6,262.3 914.7,268.1 915.1,275.7 920.5,285.9 921.6,247.5 921.6,253.3 921.6,260.9 921.7,271.1 922.1,284.7 924.5,302.8 924.8,234.5 924.8,240.3 924.8,247.9 924.8,258.1 924.8,271.7 926.5,289.8 926.6,221.6 926.6,227.3 926.6,234.9 926.6,245.1 926.6,258.7 926.6,207.5 926.6,213.2 932.0,192.0" fill="none" stroke="#d97706" stroke-width="1.8" stroke-linejoin="round" opacity="0.9"/>
  <polyline points="80.0,416.5 80.0,404.8 81.8,391.5 82.5,396.7 82.9,376.7 90.6,382.2 93.0,389.6 104.7,361.2 107.7,345.0 113.5,328.7 120.0,334.2 122.4,341.6 130.3,351.4 133.2,364.6 151.4,382.0 151.9,405.4 158.6,409.9 192.5,416.0 193.0,424.2 198.2,392.9 198.3,398.0 199.0,404.9 201.9,414.0 202.4,426.2 216.0,442.4 218.6,464.0 225.3,466.0 225.9,468.6 245.5,458.5 245.6,460.7 246.1,463.7 264.9,452.4 303.1,445.2 303.5,448.0 303.8,451.7 305.2,456.7 368.2,437.6 372.0,428.5 378.2,432.1 386.3,418.4 386.4,422.4 388.2,407.1 395.1,394.1 402.4,399.2 414.6,379.6 415.8,385.2 416.9,363.9 441.9,369.5 443.0,377.1 447.6,387.1 448.2,400.5 455.7,418.3 472.2,349.7 472.4,355.3 472.6,362.8 475.2,372.9 500.6,334.3 500.9,339.9 503.5,347.4 504.5,357.5 505.9,370.9 527.3,319.4 536.8,325.0 566.0,303.3 566.3,309.0 566.6,287.3 566.6,292.9 566.6,271.2 566.6,276.7 566.6,284.1 566.6,293.9 569.3,256.1 610.3,240.2 614.3,245.8 629.7,253.3 630.9,263.4 640.8,276.7 642.1,294.6 642.8,225.9 645.7,209.7 645.8,215.2 648.4,193.9 649.0,199.6 668.2,177.9 684.2,183.4 687.7,190.8 698.8,200.6 701.9,213.7 745.8,163.3 754.4,168.9 758.4,147.2 763.0,152.7 781.0,131.5 782.2,137.1 794.3,144.6 802.8,154.7 810.8,168.0 812.2,185.9 814.1,209.7 815.8,215.2 851.2,222.6 865.6,194.2 865.7,199.8 866.0,178.1 866.1,183.8 866.2,191.3 866.7,201.3 867.0,214.7 869.8,232.5 871.5,256.3 878.5,262.0 890.4,269.5 891.8,279.5 898.7,292.9 900.3,310.7 913.6,242.1 914.7,247.7 915.1,255.3 920.5,265.3 921.6,226.7 921.6,232.3 921.6,239.9 921.7,249.9 922.1,263.3 924.5,281.1 924.8,212.5 924.8,218.1 924.8,225.7 924.8,235.7 924.8,249.1 926.5,266.9 926.6,198.3 926.6,203.9 926.6,211.4 926.6,221.5 926.6,234.9 926.6,183.4 926.6,188.9 932.0,167.7" fill="none" stroke="#7c3aed" stroke-width="1.8" stroke-linejoin="round" opacity="0.9"/>
  <polyline points="80.0,416.5 80.0,404.8 81.8,391.5 82.5,396.6 82.9,376.6 90.6,382.2 93.0,389.5 104.7,361.1 107.7,344.8 113.5,328.5 120.0,334.0 122.4,341.4 130.3,351.2 133.2,364.3 151.4,381.7 151.9,405.0 158.6,409.6 192.5,415.7 193.0,423.8 198.2,392.4 198.3,397.5 199.0,404.4 201.9,413.5 202.4,425.7 216.0,442.0 218.6,463.6 225.3,465.6 225.9,468.2 245.5,458.1 245.6,460.3 246.1,463.3 264.9,451.8 303.1,444.6 303.5,447.4 303.8,451.2 305.2,456.2 368.2,436.8 372.0,427.7 378.2,431.2 386.3,417.4 386.4,421.5 388.2,405.9 395.1,392.8 402.4,397.9 414.6,378.1 415.8,383.6 416.9,362.4 441.9,368.0 443.0,375.5 447.6,385.5 448.2,398.8 455.7,416.6 472.2,347.9 472.4,353.5 472.6,361.1 475.2,371.1 500.6,332.4 500.9,338.0 503.5,345.6 504.5,355.6 505.9,368.9 527.3,317.4 536.8,323.0 566.0,301.3 566.3,306.9 566.6,285.2 566.6,290.8 566.6,269.1 566.6,274.6 566.6,282.0 566.6,291.8 569.3,253.9 610.3,237.9 614.3,243.6 629.7,251.1 630.9,261.1 640.8,274.4 642.1,292.2 642.8,223.5 645.7,207.2 645.8,212.7 648.4,191.4 649.0,197.1 668.2,175.3 684.2,180.8 687.7,188.2 698.8,198.0 701.9,211.1 745.8,160.6 754.4,166.2 758.4,144.5 763.0,150.0 781.0,128.7 782.2,134.3 794.3,141.8 802.8,151.8 810.8,165.2 812.2,183.0 814.1,206.7 815.8,212.2 851.2,219.6 865.6,191.2 865.7,196.8 866.0,175.0 866.1,180.7 866.2,188.2 866.7,198.2 867.0,211.5 869.8,229.3 871.5,253.0 878.5,258.6 890.4,266.2 891.8,276.2 898.7,289.5 900.3,307.3 913.6,238.6 914.7,244.2 915.1,251.7 920.5,261.7 921.6,223.1 921.6,228.7 921.6,236.2 921.7,246.2 922.1,259.6 924.5,277.4 924.8,208.7 924.8,214.3 924.8,221.8 924.8,231.8 924.8,245.1 926.5,262.9 926.6,194.2 926.6,199.9 926.6,207.4 926.6,217.4 926.6,230.7 926.6,179.2 926.6,184.7 932.0,163.4" fill="none" stroke="#0891b2" stroke-width="1.8" stroke-linejoin="round" opacity="0.9"/>
  <polyline points="80.0,416.5 80.0,404.7 81.8,391.4 82.5,396.6 82.9,376.6 90.6,382.1 93.0,389.5 104.7,361.0 107.7,344.7 113.5,328.4 120.0,333.9 122.4,341.3 130.3,351.1 133.2,364.1 151.4,381.5 151.9,404.7 158.6,409.3 192.5,415.4 193.0,423.6 198.2,392.0 198.3,397.2 199.0,404.0 201.9,413.2 202.4,425.4 216.0,441.7 218.6,463.4 225.3,465.3 225.9,468.0 245.5,457.7 245.6,460.0 246.1,463.0 264.9,451.4 303.1,444.2 303.5,447.0 303.8,450.8 305.2,455.8 368.2,436.3 372.0,427.1 378.2,430.7 386.3,416.8 386.4,420.8 388.2,405.1 395.1,391.9 402.4,397.0 414.6,377.1 415.8,382.6 416.9,361.3 441.9,366.9 443.0,374.4 447.6,384.4 448.2,397.7 455.7,415.4 472.2,346.7 472.4,352.3 472.6,359.8 475.2,369.8 500.6,331.1 500.9,336.8 503.5,344.2 504.5,354.2 505.9,367.5 527.3,316.0 536.8,321.6 566.0,299.9 566.3,305.5 566.6,283.7 566.6,289.4 566.6,267.6 566.6,273.1 566.6,280.5 566.6,290.3 569.3,252.4 610.3,236.4 614.3,242.0 629.7,249.5 630.9,259.5 640.8,272.8 642.1,290.5 642.8,221.8 645.7,205.5 645.8,211.0 648.4,189.7 649.0,195.3 668.2,173.6 684.2,179.1 687.7,186.4 698.8,196.2 701.9,209.3 745.8,158.7 754.4,164.3 758.4,142.6 763.0,148.1 781.0,126.8 782.2,132.4 794.3,139.9 802.8,149.9 810.8,163.2 812.2,181.0 814.1,204.6 815.8,210.1 851.2,217.5 865.6,189.1 865.7,194.7 866.0,172.9 866.1,178.5 866.2,186.0 866.7,196.0 867.0,209.3 869.8,227.1 871.5,250.7 878.5,256.4 890.4,263.9 891.8,273.8 898.7,287.2 900.3,304.9 913.6,236.2 914.7,241.8 915.1,249.3 920.5,259.3 921.6,220.6 921.6,226.2 921.6,233.7 921.7,243.7 922.1,257.0 924.5,274.8 924.8,206.0 924.8,211.6 924.8,219.1 924.8,229.1 924.8,242.4 926.5,260.2 926.6,191.4 926.6,197.1 926.6,204.5 926.6,214.5 926.6,227.8 926.6,176.3 926.6,181.8 932.0,160.5" fill="none" stroke="#db2777" stroke-width="1.8" stroke-linejoin="round" opacity="0.9"/>
  <polyline points="80.0,416.5 80.0,404.7 81.8,391.4 82.5,396.6 82.9,376.5 90.6,382.0 93.0,389.3 104.7,360.9 107.7,344.6 113.5,328.3 120.0,333.7 122.4,341.1 130.3,350.8 133.2,363.8 151.4,381.2 151.9,404.3 158.6,408.9 192.5,415.0 193.0,423.2 198.2,391.5 198.3,396.7 199.0,403.5 201.9,412.7 202.4,424.9 216.0,441.2 218.6,462.9 225.3,464.9 225.9,467.6 245.5,457.2 245.6,459.5 246.1,462.5 264.9,450.9 303.1,443.5 303.5,446.3 303.8,450.1 305.2,455.2 368.2,435.5 372.0,426.1 378.2,429.8 386.3,415.7 386.4,419.8 388.2,403.9 395.1,390.5 402.4,395.7 414.6,375.5 415.8,381.0 416.9,359.6 441.9,365.2 443.0,372.7 447.6,382.6 448.2,395.9 455.7,413.6 472.2,344.8 472.4,350.4 472.6,357.9 475.2,367.8 500.6,329.1 500.9,334.7 503.5,342.2 504.5,352.2 505.9,365.4 527.3,313.8 536.8,319.4 566.0,297.7 566.3,303.3 566.6,281.5 566.6,287.1 566.6,265.3 566.6,270.8 566.6,278.1 566.6,287.9 569.3,250.0 610.3,234.0 614.3,239.6 629.7,247.1 630.9,257.0 640.8,270.3 642.1,288.0 642.8,219.2 645.7,202.9 645.8,208.3 648.4,187.0 649.0,192.6 668.2,170.8 684.2,176.3 687.7,183.7 698.8,193.4 701.9,206.4 745.8,155.9 754.4,161.5 758.4,139.7 763.0,145.2 781.0,123.8 782.2,129.4 794.3,136.9 802.8,146.9 810.8,160.1 812.2,177.8 814.1,201.4 815.8,206.9 851.2,214.2 865.6,185.8 865.7,191.4 866.0,169.6 866.1,175.2 866.2,182.7 866.7,192.6 867.0,205.9 869.8,223.6 871.5,247.2 878.5,252.8 890.4,260.3 891.8,270.2 898.7,283.5 900.3,301.2 913.6,232.4 914.7,238.0 915.1,245.5 920.5,255.4 921.6,216.7 921.6,222.3 921.6,229.8 921.7,239.8 922.1,253.0 924.5,270.7 924.8,201.9 924.8,207.5 924.8,215.0 924.8,224.9 924.8,238.2 926.5,255.9 926.6,187.1 926.6,192.7 926.6,200.2 926.6,210.1 926.6,223.4 926.6,171.8 926.6,177.3 932.0,156.0" fill="none" stroke="#65a30d" stroke-width="1.8" stroke-linejoin="round" opacity="0.9"/>
  <polyline points="80.0,416.5 80.0,404.7 81.8,391.4 82.5,396.6 82.9,376.5 90.6,382.0 93.0,389.3 104.7,360.8 107.7,344.5 113.5,328.1 120.0,333.6 122.4,340.9 130.3,350.7 133.2,363.7 151.4,381.0 151.9,404.1 158.6,408.7 192.5,414.8 193.0,422.9 198.2,391.2 198.3,396.3 199.0,403.2 201.9,412.4 202.4,424.6 216.0,440.9 218.6,462.7 225.3,464.7 225.9,467.3 245.5,456.9 245.6,459.2 246.1,462.2 264.9,450.5 303.1,443.0 303.5,445.9 303.8,449.7 305.2,454.8 368.2,435.0 372.0,425.5 378.2,429.2 386.3,415.0 386.4,419.1 388.2,403.1 395.1,389.6 402.4,394.8 414.6,374.4 415.8,379.9 416.9,358.5 441.9,364.1 443.0,371.6 447.6,381.5 448.2,394.8 455.7,412.4 472.2,343.6 472.4,349.2 472.6,356.6 475.2,366.6 500.6,327.8 500.9,333.4 503.5,340.9 504.5,350.8 505.9,364.1 527.3,312.4 536.8,318.0 566.0,296.2 566.3,301.8 566.6,280.1 566.6,285.6 566.6,263.9 566.6,269.3 566.6,276.6 566.6,286.4 569.3,248.4 610.3,232.4 614.3,238.0 629.7,245.5 630.9,255.4 640.8,268.7 642.1,286.3 642.8,217.5 645.7,201.1 645.8,206.6 648.4,185.3 649.0,190.9 668.2,169.1 684.2,174.6 687.7,181.9 698.8,191.6 701.9,204.6 745.8,154.0 754.4,159.6 758.4,137.8 763.0,143.3 781.0,121.9 782.2,127.5 794.3,135.0 802.8,144.9 810.8,158.1 812.2,175.8 814.1,199.4 815.8,204.8 851.2,212.1 865.6,183.7 865.7,189.3 866.0,167.5 866.1,173.1 866.2,180.5 866.7,190.5 867.0,203.7 869.8,221.4 871.5,244.9 878.5,250.5 890.4,258.0 891.8,267.9 898.7,281.2 900.3,298.8 913.6,230.0 914.7,235.6 915.1,243.0 920.5,253.0 921.6,214.2 921.6,219.8 921.6,227.3 921.7,237.2 922.1,250.5 924.5,268.1 924.8,199.3 924.8,204.9 924.8,212.3 924.8,222.2 924.8,235.5 926.5,253.2 926.6,184.3 926.6,189.9 926.6,197.4 926.6,207.3 926.6,220.5 926.6,168.9 926.6,174.4 932.0,153.0" fill="none" stroke="#475569" stroke-width="1.8" stroke-linejoin="round" opacity="0.9"/>
  <polyline points="80.0,416.5 80.0,404.7 81.8,391.4 82.5,396.5 82.9,376.4 90.6,381.9 93.0,389.2 104.7,360.7 107.7,344.3 113.5,328.0 120.0,333.4 122.4,340.7 130.3,350.4 133.2,363.4 151.4,380.7 151.9,403.7 158.6,408.3 192.5,414.4 193.0,422.6 198.2,390.6 198.3,395.8 199.0,402.7 201.9,411.9 202.4,424.1 216.0,440.5 218.6,462.3 225.3,464.3 225.9,467.0 245.5,456.5 245.6,458.7 246.1,461.7 264.9,449.9 303.1,442.4 303.5,445.3 303.8,449.1 305.2,454.3 368.2,434.2 372.0,424.7 378.2,428.3 386.3,414.0 386.4,418.1 388.2,401.9 395.1,388.2 402.4,393.5 414.6,372.9 415.8,378.3 416.9,357.0 441.9,362.5 443.0,370.0 447.6,379.9 448.2,393.1 455.7,410.7 472.2,341.8 472.4,347.4 472.6,354.8 475.2,364.7 500.6,325.9 500.9,331.5 503.5,338.9 504.5,348.8 505.9,362.1 527.3,310.4 536.8,316.0 566.0,294.2 566.3,299.7 566.6,277.9 566.6,283.5 566.6,261.7 566.6,267.2 566.6,274.4 566.6,284.2 569.3,246.2 610.3,230.1 614.3,235.7 629.7,243.1 630.9,253.1 640.8,266.3 642.1,283.9 642.8,215.0 645.7,198.6 645.8,204.1 648.4,182.7 649.0,188.3 668.2,166.5 684.2,172.0 687.7,179.2 698.8,189.0 701.9,201.9 745.8,151.2 754.4,156.8 758.4,135.0 763.0,140.5 781.0,119.1 782.2,124.7 794.3,132.1 802.8,142.0 810.8,155.2 812.2,172.9 814.1,196.3 815.8,201.8 851.2,209.1 865.6,180.6 865.7,186.2 866.0,164.4 866.1,169.9 866.2,177.4 866.7,187.3 867.0,200.5 869.8,218.1 871.5,241.6 878.5,247.2 890.4,254.6 891.8,264.5 898.7,277.7 900.3,295.3 913.6,226.4 914.7,232.0 915.1,239.4 920.5,249.3 921.6,210.6 921.6,216.1 921.6,223.6 921.7,233.5 922.1,246.7 924.5,264.3 924.8,195.4 924.8,201.0 924.8,208.4 924.8,218.3 924.8,231.5 926.5,249.1 926.6,180.2 926.6,185.8 926.6,193.2 926.6,203.1 926.6,216.3 926.6,164.7 926.6,170.1 932.0,148.8" fill="none" stroke="#ea580c" stroke-width="1.8" stroke-linejoin="round" opacity="0.9"/>
  <line x1="950" y1="94" x2="972" y2="94" stroke="#ea580c" stroke-width="3"/><text x="980" y="98" font-size="12.5" fill="#374151">vip 9  39274</text>
  <line x1="950" y1="116" x2="972" y2="116" stroke="#475569" stroke-width="3"/><text x="980" y="120" font-size="12.5" fill="#374151">vip 8  38806</text>
  <line x1="950" y1="138" x2="972" y2="138" stroke="#65a30d" stroke-width="3"/><text x="980" y="142" font-size="12.5" fill="#374151">vip 7  38485</text>
  <line x1="950" y1="160" x2="972" y2="160" stroke="#db2777" stroke-width="3"/><text x="980" y="164" font-size="12.5" fill="#374151">vip 6  37990</text>
  <line x1="950" y1="182" x2="972" y2="182" stroke="#0891b2" stroke-width="3"/><text x="980" y="186" font-size="12.5" fill="#374151">vip 5  37671</text>
  <line x1="950" y1="204" x2="972" y2="204" stroke="#7c3aed" stroke-width="3"/><text x="980" y="208" font-size="12.5" fill="#374151">vip 4  37208</text>
  <line x1="950" y1="226" x2="972" y2="226" stroke="#d97706" stroke-width="3"/><text x="980" y="230" font-size="12.5" fill="#374151">vip 3  34545</text>
  <line x1="950" y1="248" x2="972" y2="248" stroke="#16a34a" stroke-width="3"/><text x="980" y="252" font-size="12.5" fill="#374151">vip 2  32663</text>
  <line x1="950" y1="270" x2="972" y2="270" stroke="#2563eb" stroke-width="3"/><text x="980" y="274" font-size="12.5" fill="#374151">vip 0  30291</text>
  <line x1="950" y1="292" x2="972" y2="292" stroke="#dc2626" stroke-width="3"/><text x="980" y="296" font-size="12.5" fill="#374151">vip 1  30291</text>
  <text x="80" y="542" text-anchor="start" font-size="12" fill="#6b7280">2026-01-01</text><text x="932" y="542" text-anchor="end" font-size="12" fill="#6b7280">2026-01-31</text>
</svg>
