<?xml version="1.0" encoding="UTF-8"?>
<svg xmlns="http://www.w3.org/2000/svg" width="1000" height="520" viewBox="0 0 1000 520" font-family="ui-sans-serif, system-ui, sans-serif">
  <rect width="1000" height="520" fill="#ffffff"/>
  <text x="78" y="28" font-size="18" font-weight="700" fill="#111827">Zone Recovery — PENGUUSDC best setting (equity / PnL)</text>
  <text x="78" y="48" font-size="12.5" fill="#6b7280">lev 4 · ratio 3 · gap 20% · maxSteps 4 · maxDD 60% · random · vip 9  ·  8 series, 100.0% win · vol $2162902 ($69771/day) · fees $182.98</text>
  <text x="78" y="68" font-size="12.5" font-weight="600" fill="#1d4ed8">USDC · BNB −10% · taker 0.0085%</text>
  <text x="934" y="28" text-anchor="end" font-size="18" font-weight="700" fill="#16a34a">+60727 USDT  (+607.27%)</text>
  <line x1="78" y1="468.0" x2="934" y2="468.0" stroke="#e5e7eb" stroke-width="1"/><text x="68" y="472.0" text-anchor="end" font-size="12" fill="#6b7280">0.00</text><line x1="78" y1="392.0" x2="934" y2="392.0" stroke="#e5e7eb" stroke-width="1"/><text x="68" y="396.0" text-anchor="end" font-size="12" fill="#6b7280">15277</text><line x1="78" y1="316.0" x2="934" y2="316.0" stroke="#e5e7eb" stroke-width="1"/><text x="68" y="320.0" text-anchor="end" font-size="12" fill="#6b7280">30554</text><line x1="78" y1="240.0" x2="934" y2="240.0" stroke="#e5e7eb" stroke-width="1"/><text x="68" y="244.0" text-anchor="end" font-size="12" fill="#6b7280">45831</text><line x1="78" y1="164.0" x2="934" y2="164.0" stroke="#e5e7eb" stroke-width="1"/><text x="68" y="168.0" text-anchor="end" font-size="12" fill="#6b7280">61108</text><line x1="78" y1="88.0" x2="934" y2="88.0" stroke="#e5e7eb" stroke-width="1"/><text x="68" y="92.0" text-anchor="end" font-size="12" fill="#6b7280">76385</text>
  <line x1="78" y1="418.3" x2="934" y2="418.3" stroke="#9ca3af" stroke-width="1.5" stroke-dasharray="6 4"/><text x="934" y="412.3" text-anchor="end" font-size="11" fill="#6b7280">start 10000</text>
  <polyline points="78.0,359.4 79.6,358.4 81.0,359.4 82.9,361.5 84.5,357.9 87.1,358.8 88.9,355.5 91.4,353.4 93.3,355.6 94.8,352.9 96.1,348.0 96.5,345.4 97.1,344.7 97.6,339.8 98.0,335.6 98.3,332.6 98.7,332.9 99.4,335.0 100.2,335.6 100.9,331.2 101.4,331.5 102.1,333.6 103.0,333.8 103.9,328.3 104.6,322.0 105.1,323.6 106.0,326.5 106.5,327.1 107.3,323.0 108.3,324.5 108.8,326.3 109.5,319.5 109.8,318.5 110.1,317.4 110.3,309.8 110.5,311.0 110.9,310.9 111.4,312.4 111.9,313.5 112.3,309.4 112.6,304.9 112.8,303.9 113.1,306.0 113.6,305.3 114.1,308.5 114.5,313.3 115.1,308.0 115.7,307.8 116.2,301.7 116.7,303.8 116.9,293.1 117.0,292.0 117.2,290.2 117.4,292.7 117.6,296.9 117.9,294.1 118.2,286.5 118.4,285.7 118.6,289.4 118.9,291.1 119.1,299.7 119.4,296.6 119.6,296.1 120.1,294.5 120.2,283.8 120.3,280.9 120.4,286.8 120.6,285.4 120.9,288.6 121.2,286.5 121.6,287.7 121.8,288.6 122.1,294.5 122.2,297.2 122.3,297.3 122.5,289.4 122.6,290.1 122.7,283.8 122.9,282.6 123.1,284.9 123.3,285.4 123.5,283.0 123.6,278.0 123.8,279.7 124.0,278.0 124.2,276.2 124.4,271.1 124.5,268.1 124.6,270.6 124.7,267.9 124.9,272.3 125.0,268.0 125.1,266.6 125.3,262.8 125.4,265.6 125.6,263.0 125.8,261.3 126.0,262.8 126.2,265.7 126.3,258.6 126.4,258.7 126.4,261.7 126.7,259.8 126.9,262.6 127.2,265.0 127.4,271.3 127.6,270.9 127.9,267.6 128.3,268.0 128.7,263.8 129.0,267.1 129.5,267.6 129.9,267.7 130.4,263.4 130.8,261.3 131.0,255.3 131.2,261.3 131.8,254.3 132.1,255.3 132.4,250.7 132.7,256.7 133.1,258.1 133.3,251.5 133.6,256.3 133.8,256.6 134.1,252.1 134.3,255.6 134.5,258.5 134.9,256.8 135.2,255.8 135.7,258.8 136.0,253.9 136.3,251.9 136.4,246.2 136.6,245.4 136.8,239.3 136.8,239.6 137.0,244.4 137.3,246.3 137.5,244.7 137.8,241.6 138.1,243.6 138.5,246.4 138.9,248.3 139.2,240.5 139.5,245.1 139.8,248.5 140.1,248.2 140.4,242.2 140.7,246.8 140.9,255.7 141.0,259.8 141.2,260.7 141.4,261.9 141.6,267.8 141.7,271.2 141.8,270.7 141.9,271.1 142.0,271.2 142.3,272.4 142.6,271.2 142.9,273.8 143.1,267.6 143.2,264.7 143.3,264.2 143.6,267.3 144.0,266.9 144.2,261.1 144.4,258.9 144.6,260.3 144.9,263.2 145.3,264.9 145.6,264.6 146.0,265.4 146.5,268.8 147.2,268.4 147.9,266.6 148.4,262.1 148.8,260.3 149.4,258.9 149.8,255.8 150.0,253.0 150.3,253.5 150.6,255.0 150.9,255.8 151.3,257.7 151.7,256.1 151.9,253.3 152.2,249.5 152.6,250.4 153.0,254.5 153.5,252.9 154.0,254.8 154.5,254.9 155.1,253.6 156.0,256.1 156.5,260.6 157.3,258.2 157.9,254.7 158.5,255.9 159.2,248.5 159.4,246.2 159.8,241.9 160.0,239.5 160.3,233.8 160.3,234.7 160.5,231.5 160.7,231.7 160.9,231.1 160.9,218.4 161.0,212.4 161.1,212.3 161.1,209.9 161.2,209.7 161.3,206.0 161.3,210.2 161.4,217.1 161.5,222.8 161.5,223.9 161.7,228.0 161.8,223.9 161.9,220.3 162.0,221.3 162.1,218.1 162.3,222.9 162.4,222.5 162.6,225.0 162.9,226.0 163.1,224.2 163.4,224.0 163.5,219.4 163.7,220.8 163.9,222.3 164.1,223.3 164.3,222.0 164.5,216.5 164.6,210.6 164.7,210.2 164.8,211.1 165.0,204.4 165.1,208.2 165.2,209.2 165.4,208.3 165.5,212.6 165.7,213.6 165.8,209.4 166.0,211.8 166.3,212.0 166.5,215.4 166.8,213.3 166.9,213.4 167.1,213.8 167.4,212.6 167.6,209.2 167.8,208.6 168.0,205.9 168.2,206.7 168.4,211.7 168.6,218.8 168.7,224.0 168.8,222.9 169.0,220.3 169.4,220.8 169.7,213.5 169.9,213.0 170.1,213.6 170.2,218.2 170.4,213.2 170.6,214.3 170.8,206.3 170.9,199.6 171.0,199.2 171.2,198.8 171.3,198.5 171.4,199.9 171.6,196.2 171.7,195.9 171.8,189.8 171.9,196.3 172.1,197.0 172.2,191.1 172.3,192.8 172.4,189.0 172.6,187.9 172.7,182.2 172.8,185.4 172.8,177.4 172.9,178.0 173.0,172.9 173.0,174.7 173.1,177.5 173.1,177.0 173.2,177.4 173.3,174.8 173.3,175.5 173.5,179.0 173.5,184.1 173.6,184.4 173.7,186.0 173.7,180.7 173.8,180.1 173.9,177.9 174.0,181.3 174.1,178.9 174.2,179.5 174.4,177.5 174.5,176.6 174.7,174.6 174.7,174.2 174.8,169.8 174.9,169.3 175.0,166.0 175.1,163.1 175.1,162.4 175.2,163.8 175.3,164.9 175.4,172.4 175.4,176.9 175.5,179.0 175.5,172.7 175.7,175.0 175.8,178.9 175.9,180.4 176.0,176.4 176.1,180.1 176.2,180.8 176.4,176.2 176.5,170.2 176.6,169.2 176.8,169.0 176.9,164.4 176.9,161.4 177.0,163.4 177.2,163.9 177.3,162.1 177.4,157.6 177.4,152.9 177.5,158.9 177.6,152.8 177.6,152.2 177.7,146.7 177.7,147.7 177.8,152.7 177.8,156.3 177.9,151.7 178.0,151.7 178.1,147.5 178.3,147.7 178.3,153.9 178.4,153.8 178.5,151.2 178.6,151.0 178.7,153.7 178.8,158.8 178.9,162.6 179.0,168.1 179.1,165.9 179.2,163.1 179.3,162.4 179.4,161.8 179.5,162.0 179.6,167.0 179.7,160.3 179.9,160.3 180.0,154.1 180.0,157.9 180.2,156.2 180.4,153.9 180.5,155.9 180.6,157.1 180.7,152.3 180.9,153.9 181.1,159.8 181.3,162.5 181.5,163.5 181.7,164.0 182.0,168.2 182.1,170.5 182.3,174.2 182.5,171.6 182.7,172.7 182.8,179.7 182.9,180.6 183.0,180.9 183.1,178.0 183.2,177.0 183.5,176.1 183.8,174.9 184.0,172.4 184.3,175.2 184.6,173.0 185.0,175.4 185.3,171.8 185.5,175.6 185.8,181.5 186.1,178.5 186.3,172.7 186.5,177.8 186.7,174.0 187.2,179.2 187.5,171.0 187.6,174.5 187.9,173.7 188.2,177.0 188.3,174.1 188.5,169.2 188.6,176.3 188.7,177.7 188.9,180.0 189.0,178.7 189.3,175.6 189.4,173.2 189.6,175.1 189.7,166.8 189.9,166.5 190.0,166.3 190.1,160.5 190.3,153.8 190.3,144.8 190.4,149.7 190.5,159.7 190.6,156.2 190.7,163.5 190.9,165.4 191.0,171.5 191.1,167.8 191.2,173.7 191.4,167.6 191.6,166.1 191.8,161.6 191.9,163.2 192.1,168.6 192.4,170.9 192.6,168.3 192.9,167.6 193.2,171.3 193.4,175.0 193.6,181.6 193.7,185.6 193.7,182.9 193.9,185.9 194.1,183.3 194.4,179.5 194.5,172.2 194.7,167.8 194.8,167.3 195.0,171.9 195.2,176.5 195.4,175.5 195.7,175.7 196.0,181.0 196.2,176.7 196.4,176.6 196.7,179.4 197.0,177.0 197.2,167.9 197.3,167.6 197.4,171.1 197.7,173.3 197.9,176.3 198.1,176.1 198.4,180.0 198.6,179.3 198.8,184.2 198.9,187.9 199.0,186.1 199.2,186.5 199.3,185.3 199.4,189.1 199.6,185.7 199.8,186.9 199.9,189.2 200.2,186.5 200.5,186.8 200.7,194.1 200.9,186.5 201.2,183.9 201.5,183.9 201.8,184.7 202.1,184.2 202.6,182.2 203.0,183.4 203.2,183.0 203.6,181.6 203.9,180.4 204.1,182.2 204.3,182.0 204.5,185.8 204.7,184.2 204.9,185.0 205.1,187.4 205.2,185.4 205.3,183.0 205.4,182.1 205.5,184.9 205.6,179.0 205.7,180.0 205.8,183.7 206.0,185.1 206.2,185.8 206.4,178.7 206.5,171.2 206.6,175.2 206.9,175.5 207.1,177.7 207.3,174.9 207.4,172.6 207.6,171.5 207.7,173.6 208.0,173.9 208.3,170.7 208.5,178.3 208.7,173.7 208.9,171.7 209.0,165.3 209.2,164.8 209.4,168.3 209.6,166.0 209.7,160.3 209.9,161.4 210.1,165.0 210.3,163.1 210.6,162.1 210.8,158.8 211.0,157.5 211.3,158.3 211.5,158.1 211.6,149.4 211.7,150.4 211.8,144.7 212.0,140.6 212.0,136.1 212.1,134.3 212.1,149.4 212.3,151.0 212.5,153.1 212.7,145.9 212.9,142.6 213.1,141.9 213.2,147.9 213.5,145.4 213.6,147.7 213.8,149.4 214.1,147.2 214.3,146.1 214.5,139.0 214.8,143.9 215.1,142.1 215.3,147.1 215.7,146.8 216.1,149.2 216.3,153.5 216.4,155.3 216.5,154.0 216.7,156.0 216.8,158.6 217.0,157.7 217.1,152.3 217.2,144.5 217.3,145.4 217.4,143.0 217.5,137.0 217.6,135.1 217.7,130.4 217.8,127.6 217.8,127.2 217.9,129.3 218.0,135.4 218.1,138.4 218.3,140.1 218.4,135.5 218.6,138.9 218.8,140.3 219.0,143.2 219.2,142.2 219.3,139.8 219.6,140.3 219.7,133.9 219.9,130.8 220.0,132.7 220.1,132.6 220.2,120.5 220.3,116.5 220.3,120.6 220.4,117.6 220.5,121.2 220.7,121.9 220.9,123.3 221.0,116.8 221.1,123.4 221.3,128.7 221.4,123.8 221.5,128.1 221.7,128.9 221.8,130.9 222.0,131.6 222.1,132.3 222.3,137.6 222.4,137.5 222.6,142.6 222.8,141.3 222.9,144.4 223.1,145.0 223.3,145.5 223.4,149.6 223.7,147.4 223.8,144.2 224.0,150.8 224.3,151.9 224.5,150.8 224.7,155.1 224.8,156.5 225.0,157.7 225.1,160.5 225.3,157.0 225.4,153.2 225.7,155.0 226.0,157.7 226.2,159.2 226.4,163.4 226.6,159.6 226.9,157.1 227.4,155.8 227.8,156.2 228.1,153.0 228.3,151.9 228.6,148.4 228.8,145.8 229.0,135.1 229.0,133.7 229.1,136.6 229.3,139.0 229.5,142.1 229.6,140.4 229.7,144.5 229.9,146.0 230.1,143.1 230.3,143.3 230.5,137.5 230.7,140.3 231.0,136.6 231.1,139.9 231.2,139.8 231.4,138.7 231.6,134.6 231.8,134.2 232.0,134.6 232.1,130.1 232.2,129.7 232.4,134.3 232.5,134.7 232.6,132.3 232.7,130.9 232.8,138.3 232.9,137.0 232.9,137.6 233.0,142.3 233.1,145.9 233.2,146.4 233.2,149.5 233.4,142.0 233.5,140.3 233.6,143.3 233.7,140.7 233.9,141.5 234.0,148.3 234.1,151.1 234.1,153.3 234.2,155.5 234.3,156.3 234.4,154.6 234.6,152.5 234.6,160.1 234.7,158.2 234.9,160.8 235.0,165.0 235.0,169.3 235.1,167.5 235.2,172.9 235.2,173.1 235.3,177.0 235.4,175.8 235.5,172.7 235.6,171.1 235.7,171.8 235.8,169.0 236.0,172.9 236.1,169.3 236.3,170.0 236.5,175.0 236.6,180.5 236.7,179.2 236.8,182.8 236.8,179.7 236.9,175.0 237.1,174.8 237.3,176.7 237.5,176.1 237.7,171.8 238.0,170.3 238.3,171.2 238.6,172.4 239.1,170.6 239.4,171.8 239.6,167.6 239.8,164.7 240.1,166.4 240.3,166.6 240.5,161.8 240.6,157.2 240.8,153.3 240.9,151.8 241.1,145.5 241.2,150.3 241.4,143.6 241.5,149.7 241.8,155.8 242.1,154.9 242.5,154.5 242.7,146.4 242.8,144.1 243.0,142.4 243.1,133.1 243.2,131.0 243.2,131.9 243.3,133.8 243.5,133.1 243.6,136.4 243.8,143.7 243.9,146.0 244.1,146.1 244.3,146.5 244.5,151.1 244.7,150.7 244.9,151.8 245.2,157.5 245.3,156.5 245.5,159.7 245.7,159.9 245.9,160.9 246.1,160.6 246.3,159.6 246.5,160.0 246.7,157.6 246.9,153.5 247.2,149.1 247.5,154.0 247.7,148.5 247.9,154.9 248.4,155.3 248.8,160.5 249.3,162.3 249.8,161.0 250.2,159.2 250.6,159.9 250.8,157.7 251.0,156.3 251.2,153.8 251.5,154.9 251.9,158.0 252.4,155.3 252.6,152.7 252.7,151.2 252.9,147.3 253.0,144.2 253.1,144.7 253.2,142.6 253.3,141.6 253.4,147.5 253.6,147.5 253.9,150.3 254.0,150.6 254.2,152.5 254.3,159.5 254.5,163.7 254.6,164.6 254.7,171.2 254.9,170.3 255.1,169.6 255.3,168.3 255.5,168.6 255.7,171.4 255.9,166.9 256.2,171.0 256.5,170.8 257.0,169.3 257.5,169.0 257.9,172.8 258.3,175.0 258.6,178.0 258.8,179.3 259.1,178.4 259.4,179.2 259.7,185.5 259.9,189.1 260.1,190.6 260.2,192.5 260.4,191.7 260.5,190.1 260.6,186.8 260.7,183.0 260.8,182.4 260.9,182.0 261.0,189.0 261.1,184.9 261.2,184.5 261.3,188.6 261.3,190.5 261.4,189.3 261.5,190.0 261.7,188.0 261.8,190.6 261.9,190.8 262.1,190.1 262.3,186.5 262.5,189.3 262.8,194.5 262.9,190.5 263.2,188.4 263.4,186.7 263.6,186.2 263.7,186.9 264.0,188.1 264.2,189.9 264.6,192.1 264.9,191.4 265.1,186.9 265.4,191.2 265.7,193.7 265.9,194.6 266.0,196.2 266.2,191.4 266.3,190.7 266.8,192.5 267.1,195.2 267.3,195.3 267.7,196.2 268.0,195.8 268.6,196.9 269.0,199.5 269.6,196.4 270.1,199.8 270.4,199.7 270.6,196.9 271.1,201.2 271.5,201.2 271.8,202.3 272.3,199.9 272.8,198.6 273.1,197.0 273.4,199.2 273.8,199.2 274.1,199.6 274.4,199.1 274.7,198.9 275.1,197.9 275.5,201.3 275.6,205.4 275.8,205.6 276.1,203.2 276.4,194.2 276.5,190.6 276.7,192.1 277.0,192.5 277.2,193.6 277.5,190.8 277.9,194.0 278.2,197.5 278.4,202.6 278.6,205.5 278.7,204.5 279.1,203.9 279.3,207.6 279.4,214.6 279.5,209.2 279.7,206.4 279.8,202.3 280.1,203.0 280.2,200.2 280.5,198.4 280.9,199.3 281.1,195.3 281.3,200.0 281.5,203.9 281.7,205.2 281.9,206.3 282.2,209.4 282.4,210.9 282.7,209.8 282.8,214.7 283.0,211.5 283.2,210.0 283.4,205.6 283.7,203.8 284.1,209.3 284.3,210.9 284.5,212.3 284.8,211.0 285.0,209.9 285.3,214.5 285.4,214.4 285.7,213.0 285.8,218.4 286.1,220.5 286.4,217.7 286.7,217.4 286.9,218.6 287.2,218.7 287.5,220.4 287.6,218.4 287.9,220.6 288.0,222.7 288.1,220.4 288.1,220.4 288.2,221.2 288.3,215.5 288.4,213.3 288.5,214.1 288.6,213.8 288.7,209.5 288.8,205.0 288.9,204.2 289.0,203.1 289.0,201.7 289.1,196.1 289.2,201.2 289.4,190.9 289.5,194.8 289.6,189.5 289.7,181.5 289.8,185.4 289.8,185.9 290.0,187.1 290.1,193.3 290.2,191.9 290.4,194.0 290.6,190.3 290.8,189.9 291.0,186.7 291.2,189.4 291.4,193.9 291.6,194.4 291.8,189.7 292.1,191.6 292.3,196.3 292.6,196.4 292.8,199.6 293.2,201.2 293.5,203.9 293.8,200.0 294.2,206.2 294.4,211.9 294.7,210.3 295.0,210.0 295.2,207.2 295.4,207.3 295.8,203.6 296.2,200.1 296.4,198.2 296.7,194.0 296.9,191.7 297.2,198.8 297.9,198.1 298.5,201.7 299.1,202.3 300.0,202.6 300.6,201.4 300.7,208.4 300.8,211.7 301.2,210.0 301.5,203.0 301.9,206.0 302.4,209.0 302.7,203.9 303.3,202.7 303.5,199.2 303.7,200.7 304.2,203.5 304.7,200.0 305.2,200.2 305.9,202.6 306.5,201.4 306.9,197.3 307.5,200.7 307.9,202.5 308.2,206.3 308.5,204.4 308.9,207.0 309.0,212.0 309.1,213.7 309.3,206.2 309.5,202.2 309.7,201.0 310.2,202.7 310.7,203.7 311.1,206.5 311.6,202.1 312.0,203.5 312.5,201.0 313.0,205.7 313.4,206.1 313.9,206.5 314.1,200.3 314.3,197.8 314.4,193.6 314.5,197.0 314.6,195.7 314.9,196.1 315.1,198.4 315.4,199.6 315.6,197.0 315.7,204.1 315.8,201.5 315.9,204.8 316.1,202.2 316.2,204.1 316.3,200.9 316.4,198.2 316.5,199.6 316.6,191.3 316.7,182.8 316.7,176.8 316.8,177.2 316.8,172.7 316.9,167.3 316.9,170.0 317.0,172.2 317.0,175.6 317.0,172.4 317.1,174.1 317.2,176.7 317.3,178.1 317.4,171.8 317.4,171.9 317.5,166.5 317.6,163.7 317.6,156.6 317.6,158.3 317.7,154.9 317.7,155.2 317.8,159.0 317.8,162.5 317.9,159.8 318.0,163.2 318.0,166.9 318.1,172.4 318.2,169.6 318.2,169.2 318.3,167.7 318.4,169.0 318.5,172.4 318.7,175.9 318.8,186.4 318.9,187.7 319.0,188.0 319.1,192.4 319.2,190.9 319.3,191.6 319.4,184.1 319.5,183.0 319.7,182.9 319.9,191.0 320.0,194.2 320.1,198.3 320.2,201.7 320.3,194.8 320.5,196.6 320.7,195.5 320.9,198.9 321.1,204.7 321.3,205.0 321.4,208.7 321.6,207.9 321.8,206.1 322.0,205.0 322.2,206.3 322.5,204.6 322.7,206.3 323.1,202.7 323.5,200.5 323.7,198.3 324.0,196.8 324.2,193.6 324.5,193.6 324.7,195.8 325.0,191.0 325.6,192.4 326.1,195.8 326.6,197.8 327.3,201.4 327.9,204.2 328.6,202.2 329.2,201.7 329.8,205.3 330.1,203.6 330.6,203.8 330.7,203.3 330.8,201.2 330.8,207.5 331.1,205.7 331.3,212.4 331.8,211.4 332.7,211.4 333.6,212.1 333.9,214.6 334.5,211.4 335.3,210.0 336.0,207.2 336.8,206.8 337.6,203.9 338.1,202.4 338.7,200.8 339.2,195.9 339.7,200.3 340.3,200.7 340.7,195.7 341.2,198.3 341.7,197.0 342.3,191.5 342.5,189.0 342.9,194.0 343.4,195.3 343.8,195.3 344.3,198.2 344.9,196.4 345.3,200.5 345.7,200.6 346.2,197.9 346.9,199.9 347.4,204.6 348.0,201.6 349.0,200.6 350.1,200.5 351.2,200.9 351.9,207.8 352.6,206.1 353.1,209.4 354.1,207.1 354.7,206.0 355.5,205.3 356.1,203.4 356.9,203.2 357.7,204.3 358.4,196.7 358.8,195.7 359.3,198.7 359.9,200.9 360.8,202.1 361.4,207.0 362.0,201.6 362.4,198.9 362.9,196.2 363.4,198.6 364.1,194.3 364.4,195.2 364.7,191.3 365.1,192.0 365.5,195.0 365.9,189.7 366.6,194.6 367.4,193.1 368.3,192.5 368.8,185.5 369.2,187.6 369.4,183.4 369.7,187.9 370.0,192.2 370.3,193.8 370.8,192.1 371.2,192.2 371.4,188.8 371.6,193.4 371.9,192.9 372.2,198.7 372.3,203.2 372.6,199.7 373.0,200.3 373.1,193.1 373.2,192.8 373.5,192.4 373.8,195.3 374.2,196.0 374.5,199.2 374.9,196.7 375.6,199.4 376.1,195.6 376.6,195.7 377.1,198.5 377.3,204.7 377.5,207.2 377.8,206.5 378.2,204.7 378.6,206.7 379.0,205.1 379.4,199.7 379.6,209.2 380.1,205.5 380.7,210.8 380.9,206.9 381.0,201.2 381.3,204.1 381.7,199.6 381.8,201.7 382.1,203.2 382.2,197.8 382.3,194.4 382.5,200.2 382.6,204.3 382.7,207.3 382.8,199.7 382.9,195.4 383.0,190.1 383.1,192.2 383.2,191.2 383.3,191.2 383.4,190.4 383.5,189.7 383.7,192.7 383.8,188.0 384.0,192.0 384.2,187.4 384.3,181.7 384.4,186.3 384.7,188.3 384.9,185.7 385.0,179.0 385.2,180.4 385.3,184.0 385.5,176.8 385.6,177.7 385.8,173.3 385.9,183.3 386.1,181.9 386.3,188.2 386.6,187.3 386.9,184.1 387.2,182.3 387.6,183.8 387.7,182.3 388.0,181.2 388.3,185.4 388.8,184.8 389.1,189.2 389.5,191.0 389.9,189.4 390.4,195.3 390.6,198.7 390.8,202.0 391.0,201.8 391.1,198.8 391.3,198.4 391.6,204.1 391.6,207.9 391.7,206.4 391.8,209.8 391.9,206.9 392.1,202.7 392.4,203.6 392.7,203.2 393.1,204.2 393.5,202.5 393.8,205.1 394.2,207.6 394.6,206.3 395.0,201.4 395.4,198.9 395.8,198.7 396.2,201.8 396.7,204.7 397.0,208.2 397.4,207.8 397.7,211.3 398.0,208.7 398.3,211.4 398.3,213.8 398.5,210.5 398.5,207.6 398.6,203.6 398.8,204.2 398.8,199.9 399.0,201.6 399.1,197.9 399.2,202.3 399.4,195.0 399.5,194.9 399.6,193.5 399.7,194.0 399.8,192.6 399.9,191.8 400.0,191.8 400.1,193.3 400.2,194.7 400.4,193.4 400.5,197.6 400.7,195.2 400.8,190.8 400.9,195.1 401.1,195.2 401.3,193.3 401.4,192.5 401.6,195.6 401.8,200.6 402.0,205.7 402.2,203.4 402.5,202.9 402.7,200.0 403.1,201.1 403.3,205.8 403.6,206.8 403.9,204.4 404.2,202.0 404.6,201.9 404.9,195.1 405.3,202.0 405.7,204.4 406.0,208.4 406.2,202.3 406.6,207.2 406.9,208.8 407.1,207.1 407.4,208.6 408.0,210.4 408.5,212.3 409.0,211.2 409.5,212.3 410.0,211.2 410.4,210.0 410.8,206.1 411.3,212.9 411.5,213.4 411.9,208.6 412.3,210.1 412.8,212.8 413.1,212.5 413.4,210.9 413.9,211.2 414.3,209.9 414.7,211.7 415.1,206.1 415.4,201.3 415.5,195.0 415.7,196.8 415.9,202.1 416.2,201.1 416.4,202.0 416.8,202.3 417.1,203.7 417.4,199.5 417.8,202.9 418.3,205.3 418.9,203.4 419.3,204.3 419.7,202.2 420.0,200.2 420.2,200.4 420.5,201.2 420.6,198.4 420.8,202.4 421.0,198.7 421.2,200.3 421.7,202.3 422.0,199.3 422.3,200.3 422.7,195.9 422.9,195.3 423.2,198.2 423.5,196.4 423.9,193.0 424.2,190.3 424.5,192.3 424.9,190.8 424.9,186.1 425.0,182.8 425.0,185.3 425.1,181.8 425.2,182.2 425.3,185.0 425.5,186.4 425.6,189.9 425.8,185.7 426.0,182.8 426.1,179.4 426.1,179.7 426.2,178.0 426.3,175.3 426.4,179.8 426.5,183.2 426.5,186.1 426.7,191.1 426.7,188.5 426.9,191.4 427.0,196.1 427.1,195.0 427.2,193.6 427.3,187.3 427.4,183.0 427.5,183.6 427.6,186.4 427.7,179.2 427.7,176.6 427.8,173.9 427.9,177.4 428.0,176.7 428.1,179.2 428.2,173.4 428.3,177.0 428.3,176.0 428.4,173.3 428.5,177.6 428.6,174.8 428.7,171.1 428.9,174.7 429.0,173.9 429.2,177.1 429.3,178.1 429.5,172.4 429.5,174.6 429.6,173.1 429.7,172.8 429.8,174.1 430.0,173.8 430.1,174.8 430.2,171.6 430.3,172.9 430.5,172.6 430.6,173.1 430.7,169.6 430.9,171.4 431.0,166.9 431.2,171.2 431.3,169.9 431.4,166.3 431.6,165.6 431.7,160.4 431.8,162.1 431.9,159.4 432.0,157.4 432.1,158.4 432.2,153.8 432.4,158.2 432.5,156.8 432.6,157.4 432.7,159.6 432.9,163.3 433.0,167.0 433.2,168.0 433.3,167.8 433.4,166.7 433.6,163.5 433.7,161.8 433.9,160.9 434.1,161.3 434.3,164.8 434.5,163.7 434.8,161.7 434.8,149.9 434.9,138.2 434.9,134.7 434.9,141.6 434.9,141.7 435.0,140.8 435.0,135.2 435.1,133.2 435.2,129.5 435.2,130.5 435.3,131.5 435.4,136.1 435.5,133.2 435.6,127.9 435.8,131.6 435.9,127.3 435.9,129.2 436.0,128.5 436.1,127.1 436.2,127.9 436.3,128.0 436.3,122.3 436.3,124.9 436.3,127.5 436.4,128.5 436.5,128.2 436.6,134.3 436.7,134.1 436.8,135.9 436.9,134.6 437.0,134.6 437.0,130.9 437.1,131.6 437.2,129.4 437.3,134.0 437.3,137.6 437.4,138.0 437.4,134.3 437.5,134.6 437.6,137.7 437.7,139.3 437.8,135.4 437.9,132.3 438.0,133.9 438.1,134.3 438.3,133.0 438.4,130.7 438.6,129.5 438.8,132.8 439.0,135.5 439.2,136.8 439.4,136.9 439.5,132.6 439.6,132.2 439.8,133.6 439.9,132.9 440.1,131.0 440.2,131.3 440.3,130.5 440.5,127.9 440.6,126.3 440.7,126.1 440.8,125.6 441.0,125.4 441.1,119.1 441.1,116.6 441.2,121.0 441.3,123.9 441.5,129.5 441.5,125.7 441.6,127.9 441.7,133.7 441.9,133.5 442.0,131.6 442.3,136.0 442.4,137.2 442.7,139.6 442.9,143.9 443.1,144.9 443.2,148.7 443.5,146.6 443.7,149.2 443.9,150.9 444.1,151.7 444.3,151.1 444.5,154.7 444.6,154.8 444.8,151.2 445.0,151.1 445.2,147.3 445.4,148.1 445.7,150.3 445.9,145.7 446.2,146.6 446.6,143.8 446.9,145.6 447.3,147.9 447.6,144.9 448.0,145.7 448.4,145.7 448.7,143.6 448.9,147.9 449.1,145.0 449.4,146.0 449.7,148.7 449.9,153.0 450.0,155.4 450.3,151.7 450.5,152.8 450.7,158.0 450.9,154.6 451.2,152.8 451.6,153.8 451.8,159.2 452.0,161.4 452.2,160.3 452.4,158.4 452.6,160.7 452.9,165.1 453.1,166.4 453.2,158.7 453.3,155.0 453.5,155.6 453.6,153.5 453.7,154.2 453.7,153.6 453.8,151.9 453.9,151.6 453.9,150.6 454.0,146.7 454.1,147.4 454.1,143.1 454.2,148.7 454.3,150.4 454.3,154.4 454.4,153.4 454.5,147.3 454.6,147.7 454.7,147.6 454.8,151.1 455.0,153.8 455.1,154.5 455.3,151.8 455.4,148.5 455.6,146.6 455.6,143.3 455.8,144.0 455.9,143.3 456.0,139.3 456.1,144.4 456.2,140.2 456.3,137.5 456.4,138.4 456.5,141.3 456.6,142.2 456.7,140.4 456.8,135.6 456.9,135.0 456.9,130.5 457.0,135.1 457.2,141.1 457.2,147.3 457.3,144.4 457.4,144.7 457.5,148.6 457.6,149.5 457.7,150.6 457.8,148.0 458.0,154.4 458.0,155.4 458.1,152.6 458.3,149.3 458.4,159.5 458.4,162.9 458.5,159.8 458.6,160.7 458.7,153.1 458.8,156.8 459.0,152.3 459.1,150.1 459.2,148.6 459.4,144.3 459.4,143.0 459.5,144.8 459.7,145.5 459.9,147.9 460.0,147.2 460.1,144.7 460.2,144.3 460.4,145.9 460.6,148.6 460.7,144.8 460.9,146.4 461.0,147.4 461.2,146.1 461.4,149.3 461.6,146.7 461.9,145.9 462.2,150.0 462.3,150.5 462.5,150.2 462.8,152.6 463.0,157.4 463.4,160.7 463.6,155.8 463.9,156.4 464.1,160.9 464.5,159.8 464.7,163.3 465.1,164.0 465.3,167.2 465.5,167.2 465.8,160.9 466.0,162.8 466.3,162.2 466.4,166.0 466.7,165.9 467.0,165.5 467.3,165.3 467.6,169.1 467.8,169.4 468.0,172.9 468.3,173.2 468.4,180.1 468.5,181.8 468.6,185.5 468.7,183.1 468.8,186.8 469.0,184.6 469.2,186.2 469.3,183.1 469.6,182.9 469.8,183.5 470.1,183.3 470.3,182.0 470.5,179.3 470.9,179.0 471.2,176.4 471.5,175.1 471.8,175.7 472.1,177.3 472.4,177.5 472.8,174.9 473.2,171.8 473.5,170.8 473.8,168.5 474.1,169.1 474.4,172.2 474.8,169.7 475.0,175.3 475.4,173.5 475.7,165.7 475.9,165.9 476.4,169.9 476.7,171.9 477.3,171.1 477.7,171.2 478.1,176.9 478.5,174.6 479.0,175.7 479.4,170.7 479.9,168.8 480.1,166.9 480.4,166.5 480.7,167.0 481.0,163.4 481.2,167.3 481.3,169.4 481.4,171.1 481.5,173.0 481.6,174.1 481.6,175.1 481.7,170.6 481.8,171.3 482.0,172.2 482.1,169.6 482.2,170.9 482.3,178.6 482.4,177.5 482.6,183.5 482.6,184.1 482.7,187.2 482.8,191.4 482.9,191.9 482.9,186.1 483.0,180.2 483.0,183.1 483.1,184.5 483.2,181.0 483.3,179.7 483.4,180.8 483.6,181.1 483.8,180.4 483.9,179.1 484.1,177.0 484.3,180.9 484.5,183.5 484.7,183.0 484.8,178.3 485.0,178.7 485.2,185.6 485.3,188.2 485.4,186.9 485.5,191.5 485.5,195.6 485.7,194.6 485.9,194.1 486.1,197.7 486.3,195.4 486.5,202.2 486.6,199.3 486.8,197.4 487.0,200.8 487.1,198.1 487.3,200.7 487.5,197.7 487.7,196.4 488.0,199.0 488.3,200.3 488.6,204.5 488.9,202.4 489.4,200.8 489.9,200.2 490.3,199.1 490.8,198.4 491.5,198.4 492.2,197.3 492.6,194.6 493.3,196.1 493.8,198.1 494.4,196.9 494.8,200.5 495.3,198.3 495.9,199.1 496.7,200.1 497.2,199.8 497.5,202.4 497.8,205.9 498.2,204.1 498.7,202.0 499.0,198.7 499.5,200.3 500.1,196.5 500.6,194.1 501.1,196.9 501.5,194.0 501.8,188.9 502.0,187.1 502.3,187.7 502.7,188.7 503.4,191.5 504.0,194.1 504.9,194.9 505.4,192.2 505.9,195.0 506.4,194.2 507.0,198.7 507.5,198.9 507.9,203.3 508.4,199.0 508.8,197.9 508.9,198.3 509.0,196.6 509.2,196.0 509.4,199.5 509.5,199.7 509.7,198.7 509.9,207.9 510.0,208.8 510.0,211.0 510.1,216.1 510.2,211.7 510.3,214.5 510.4,218.6 510.4,217.5 510.6,215.7 510.8,213.6 510.9,214.3 511.1,209.6 511.3,211.0 511.5,207.5 511.8,207.8 512.0,211.7 512.2,211.7 512.5,207.0 512.7,204.3 512.9,201.1 513.1,200.6 513.3,201.1 513.7,201.4 514.0,199.8 514.2,202.8 514.5,202.3 514.8,198.1 515.2,198.9 515.5,200.2 515.8,194.2 516.1,192.2 516.3,188.4 516.5,186.7 516.7,188.4 517.0,186.1 517.4,188.3 517.7,189.6 518.1,189.8 518.8,187.4 519.3,186.6 520.0,188.8 520.7,189.1 521.4,188.4 522.3,191.5 522.9,193.1 524.0,194.4 524.8,194.1 525.7,192.1 526.6,193.2 527.6,195.7 528.5,195.8 529.3,198.9 530.5,199.1 531.3,201.0 532.1,202.9 532.8,202.5 533.4,201.6 534.2,200.3 535.1,202.2 535.8,201.6 536.4,199.4 536.9,195.5 537.4,195.1 537.8,193.9 538.2,194.9 538.7,200.1 539.0,203.4 539.6,202.6 540.1,205.0 540.6,205.5 541.9,202.1 543.1,201.8 544.3,205.7 545.6,207.5 546.3,208.2 547.1,208.3 547.6,210.1 548.1,208.7 548.5,211.3 548.8,214.9 549.2,213.5 549.8,212.8 550.4,215.1 551.1,215.0 551.9,213.5 552.8,216.1 554.0,214.6 555.1,213.0 556.2,217.3 557.1,214.2 558.0,213.7 558.9,213.2 559.9,213.5 560.6,212.8 561.2,216.4 561.7,217.3 562.3,220.6 562.9,220.6 563.5,218.7 563.8,219.3 564.1,217.1 564.6,223.6 564.8,225.4 565.1,225.6 565.6,226.6 566.0,225.4 566.5,226.2 567.0,226.6 567.5,226.1 567.8,231.1 568.1,230.5 568.6,230.4 568.9,225.2 569.2,224.9 569.6,227.3 570.2,233.6 570.6,236.7 571.0,231.2 571.6,232.9 572.3,232.0 573.1,228.0 574.0,233.6 574.0,236.3 574.2,236.6 574.3,241.4 574.4,242.0 574.4,245.7 574.5,247.3 574.5,249.8 574.6,250.4 574.7,252.0 574.8,257.6 574.8,262.3 574.9,258.6 574.9,261.1 575.0,263.7 575.0,270.0 575.1,287.2 575.1,311.5 575.1,299.2 575.1,284.9 575.1,282.6 575.2,284.6 575.2,287.3 575.2,284.8 575.2,285.4 575.3,288.2 575.3,287.7 575.3,291.5 575.4,293.3 575.4,289.8 575.4,290.4 575.5,295.0 575.5,291.6 575.5,290.6 575.6,291.5 575.6,291.8 575.7,291.1 575.8,290.4 575.8,288.0 575.9,285.1 575.9,283.9 576.0,282.0 576.2,283.6 576.3,282.2 576.4,278.1 576.5,278.0 576.7,280.2 576.8,279.6 576.9,276.9 577.0,280.0 577.1,281.7 577.3,280.6 577.4,279.7 577.6,280.0 577.8,278.4 578.1,278.0 578.4,277.4 578.7,277.4 579.0,279.1 579.2,279.3 579.6,277.3 579.8,275.9 580.1,277.5 580.4,279.2 580.8,282.0 581.1,283.3 581.4,281.8 581.7,282.8 582.1,285.9 582.6,284.7 583.0,286.1 583.5,286.7 584.0,287.3 584.3,287.7 584.7,283.8 584.9,284.0 585.2,285.9 585.5,283.8 585.8,286.2 586.1,285.0 586.6,285.1 587.2,287.7 587.8,285.5 588.3,286.4 588.5,278.2 588.7,279.0 589.0,281.9 589.3,280.4 589.5,284.8 589.7,284.1 590.1,285.4 590.6,286.3 590.9,284.5 591.3,284.2 591.7,282.4 592.1,283.8 592.5,284.1 593.0,285.8 593.3,285.9 593.9,280.0 594.1,278.6 594.4,278.4 594.6,276.0 595.0,275.4 595.4,278.1 596.0,276.5 596.5,271.7 597.0,274.7 597.6,272.4 598.3,274.1 598.8,273.7 599.4,275.5 600.0,275.5 600.6,280.6 601.0,282.1 601.6,279.8 601.8,279.4 602.1,279.9 602.3,278.0 602.7,279.5 603.1,281.3 603.4,279.0 603.9,281.4 604.3,278.8 604.7,280.1 605.2,281.9 605.8,278.9 606.3,282.5 606.8,285.8 607.3,284.2 607.9,283.9 608.4,288.8 608.5,283.9 608.7,285.1 609.1,285.7 609.4,282.0 609.8,285.3 609.9,290.1 610.0,287.8 610.2,289.0 610.5,289.8 610.7,290.9 610.9,289.4 611.3,292.0 611.6,293.1 611.9,296.0 612.0,292.7 612.2,295.2 612.4,294.0 612.5,296.9 612.7,296.0 612.9,294.4 613.2,295.1 613.5,295.7 613.9,295.3 614.4,294.0 614.9,295.5 615.4,294.3 616.1,296.1 616.5,300.5 616.8,301.1 617.1,300.1 617.6,301.5 617.9,304.9 618.2,304.7 618.5,304.0 618.8,304.8 619.1,304.4 619.4,302.2 619.5,299.3 619.5,291.3 619.6,294.0 619.7,289.6 619.8,294.0 620.0,298.0 620.1,297.7 620.1,294.3 620.2,294.1 620.3,299.2 620.5,299.8 620.6,299.9 620.8,301.0 620.9,299.4 621.1,296.3 621.3,297.7 621.5,300.6 621.6,303.9 621.8,304.0 622.0,307.5 622.2,306.5 622.4,302.4 622.6,304.0 622.9,307.2 623.1,310.5 623.3,306.8 623.7,307.3 624.0,307.9 624.4,310.3 624.6,307.6 624.9,311.0 625.2,311.9 625.6,310.3 626.0,306.5 626.5,307.9 626.9,308.2 627.5,311.5 628.2,311.3 628.6,321.0 628.7,318.0 629.0,315.8 629.3,317.3 629.6,317.8 629.8,320.0 630.2,321.0 630.5,320.2 630.8,318.9 631.0,314.1 631.2,310.6 631.5,308.7 631.7,306.2 632.1,306.1 632.5,307.9 632.8,304.3 633.3,309.0 633.9,307.8 634.4,306.1 635.0,306.9 635.9,302.2 636.6,299.9 637.0,297.9 637.5,297.2 638.2,298.9 638.5,295.1 638.9,294.9 639.3,298.5 639.7,297.2 640.1,295.4 640.7,297.9 641.3,295.7 641.9,296.2 642.7,299.9 643.5,302.0 644.0,308.7 644.2,309.4 644.3,312.7 644.5,313.9 644.7,313.7 645.0,307.8 645.4,306.3 645.8,307.6 646.2,311.8 646.5,307.7 646.5,301.9 646.6,298.7 646.7,294.2 646.7,295.0 646.8,293.6 646.9,296.4 647.0,291.2 647.0,288.1 647.1,291.1 647.2,289.5 647.4,291.1 647.5,286.0 647.6,289.5 647.7,287.2 647.8,285.7 647.9,283.0 648.0,286.2 648.1,289.5 648.3,290.5 648.4,287.7 648.5,289.3 648.7,290.1 648.9,294.2 649.0,295.0 649.2,301.7 649.3,303.1 649.5,306.3 649.5,310.8 649.6,307.2 649.7,308.5 649.8,314.7 649.9,310.3 650.1,314.3 650.1,318.7 650.2,314.5 650.3,317.4 650.4,317.8 650.6,319.3 650.6,315.0 650.8,316.9 650.9,315.0 651.0,317.6 651.2,314.4 651.4,316.1 651.6,316.7 651.7,314.9 651.9,311.3 652.1,312.0 652.3,314.6 652.6,313.6 652.7,304.3 652.7,300.2 652.8,299.8 652.8,297.2 652.9,295.3 652.9,294.2 653.0,289.8 653.0,288.8 653.1,289.9 653.2,291.6 653.3,290.2 653.3,292.6 653.4,292.8 653.5,293.5 653.7,295.0 653.8,297.8 653.9,297.3 654.1,296.9 654.2,291.2 654.4,289.5 654.5,289.2 654.6,289.5 654.8,286.8 655.1,289.9 655.4,287.8 655.7,285.6 656.0,287.4 656.3,291.8 656.9,294.5 657.3,294.6 657.7,300.3 657.9,297.3 658.2,294.4 658.5,291.6 658.7,288.6 659.0,288.5 659.2,287.7 659.4,281.8 659.8,284.9 660.2,284.1 660.7,284.1 661.1,282.6 661.5,282.8 661.9,288.4 662.5,289.0 663.1,287.7 663.6,283.5 664.2,287.2 664.9,286.1 665.3,290.9 665.7,288.2 666.2,290.3 666.6,293.0 667.1,291.8 667.6,295.5 668.1,293.2 668.4,290.1 668.8,288.9 669.4,288.1 669.9,289.7 670.6,291.3 671.2,293.3 671.8,294.2 672.4,297.1 673.1,295.9 673.5,295.8 673.7,298.2 673.9,298.5 674.1,303.5 674.4,304.1 674.6,303.5 674.7,302.5 674.9,307.7 675.0,307.2 675.2,306.8 675.3,304.6 675.6,305.1 675.7,311.3 675.8,307.3 676.0,303.3 676.3,306.7 676.5,304.8 676.7,305.7 676.9,304.2 677.2,297.8 677.3,299.9 677.6,299.8 677.8,297.2 678.2,300.2 678.4,296.0 678.7,295.7 679.2,295.4 679.6,301.5 679.9,299.5 680.5,295.5 680.9,298.8 681.5,302.2 682.0,301.4 682.5,300.2 683.2,303.7 683.8,302.5 684.5,304.8 685.4,304.3 686.0,303.4 686.6,303.0 687.1,302.5 687.5,301.9 688.1,300.7 689.0,302.5 689.5,297.1 690.4,297.4 690.8,295.1 691.6,294.7 692.2,294.6 692.7,293.8 693.1,296.5 693.7,299.3 694.5,298.6 695.2,299.0 695.5,302.7 696.0,301.7 696.6,301.9 697.2,303.3 697.9,303.2 698.6,300.8 699.4,300.3 700.5,301.2 701.4,301.6 702.1,301.7 702.3,307.9 702.4,309.3 702.5,312.6 702.6,310.7 702.8,308.6 703.0,308.1 703.1,306.2 703.3,306.5 703.5,303.1 703.7,299.2 703.8,297.2 703.9,294.5 704.1,295.9 704.3,298.2 704.6,299.2 704.7,290.5 704.8,290.2 705.1,296.7 705.5,292.0 705.6,283.8 705.7,287.3 705.9,288.7 706.2,293.9 706.5,293.2 706.7,291.5 706.9,289.9 707.3,292.6 707.5,295.3 707.7,300.3 707.9,300.7 708.1,301.2 708.4,302.3 708.7,301.1 709.0,302.9 709.2,307.1 709.5,306.6 709.7,302.9 710.2,300.3 710.8,302.0 711.3,298.1 712.0,301.2 712.9,300.3 713.6,300.0 714.3,302.2 715.2,301.1 715.7,296.7 716.5,298.9 717.0,295.6 717.5,295.6 718.1,295.2 718.8,297.4 719.5,297.2 720.4,298.2 721.1,296.3 721.8,296.2 722.9,297.8 723.7,296.6 725.2,297.7 726.4,296.4 727.5,294.2 729.0,295.6 729.7,297.6 730.5,296.3 731.3,300.3 731.8,305.1 732.5,302.2 733.2,301.2 733.9,300.8 734.7,302.4 735.7,303.0 737.1,303.2 738.7,301.4 739.8,299.7 740.8,300.6 741.3,302.6 742.2,302.2 742.7,304.3 743.6,303.1 744.5,306.3 744.9,309.4 745.5,307.8 746.3,306.4 747.5,306.3 748.3,307.1 749.1,311.1 749.8,311.2 750.5,309.9 750.8,313.0 751.2,311.6 752.1,307.4 752.7,306.2 753.2,306.7 754.1,307.0 755.1,309.7 756.1,309.2 756.7,310.3 757.2,312.2 757.5,314.5 758.0,311.7 758.4,312.8 758.9,313.7 759.2,317.1 759.3,320.5 759.3,322.1 759.4,325.2 759.4,327.8 759.5,325.4 759.6,325.4 759.7,325.6 759.9,325.4 760.1,326.4 760.3,324.2 760.5,324.7 760.8,326.7 761.0,325.5 761.4,326.3 761.7,330.7 761.8,329.6 762.0,330.5 762.1,332.7 762.3,332.9 762.7,332.0 763.0,336.8 763.1,337.6 763.1,340.7 763.2,340.4 763.4,338.6 763.6,346.4 763.7,343.7 763.9,342.0 764.1,341.6 764.4,343.4 764.7,341.6 764.9,336.6 765.2,334.9 765.5,336.7 766.0,335.2 766.5,339.9 767.1,341.9 767.4,336.4 767.7,336.6 768.1,333.6 768.5,334.4 768.7,331.5 769.2,333.8 769.5,328.0 769.7,321.3 770.0,323.2 770.4,319.4 770.7,321.2 771.3,319.0 771.9,319.0 772.6,321.2 773.3,318.5 773.6,312.6 774.0,314.4 774.7,316.3 775.3,317.6 775.8,317.2 776.4,317.5 776.9,317.3 777.7,316.2 778.1,317.2 778.8,320.6 779.4,322.7 780.1,319.7 781.1,320.2 782.3,319.9 782.8,320.9 783.6,317.0 784.3,317.3 785.0,319.7 785.1,313.8 785.3,313.7 785.5,312.4 785.8,314.1 785.9,308.6 786.0,308.9 786.1,309.3 786.3,311.1 786.5,315.7 786.8,313.8 787.2,312.3 787.4,311.9 787.7,307.3 788.0,308.0 788.1,307.1 788.3,308.6 788.5,311.2 788.8,309.8 789.3,309.7 789.6,307.5 789.8,306.3 790.2,305.2 790.6,308.1 791.1,309.9 791.6,312.2 792.2,314.3 792.9,314.3 793.3,309.2 793.7,308.2 794.8,311.3 795.7,312.9 796.3,312.6 797.1,313.2 797.5,312.9 797.9,310.6 798.3,307.2 798.9,310.4 799.6,311.1 800.5,311.5 800.9,309.2 802.1,312.3 803.4,316.0 804.4,314.9 804.9,316.4 805.9,317.4 806.6,317.9 807.4,319.2 808.1,320.4 809.1,320.2 810.5,321.2 811.4,321.7 812.3,319.6 812.7,319.9 812.9,325.7 813.0,326.9 813.3,323.7 813.6,323.3 814.1,320.0 814.4,315.5 814.6,309.6 814.9,311.6 815.2,308.6 815.5,310.3 815.8,319.2 816.0,321.5 816.2,322.8 816.4,324.1 816.8,320.1 817.1,320.2 817.6,317.3 817.8,312.9 818.0,312.6 818.1,312.9 818.3,312.2 818.7,310.1 819.1,307.9 819.3,303.2 819.5,302.4 819.8,303.6 820.0,301.7 820.3,299.7 820.8,303.5 821.2,302.9 821.5,299.6 822.2,298.7 823.0,296.3 823.5,297.4 824.2,302.2 824.7,296.1 825.2,301.5 825.7,300.2 826.4,297.5 826.9,298.7 827.4,300.2 827.9,297.2 828.4,299.2 828.9,298.8 829.4,292.1 829.9,294.0 830.2,289.1 830.5,284.6 830.6,279.8 830.8,277.8 831.0,274.8 831.1,271.6 831.2,283.1 831.2,284.9 831.4,284.0 831.7,281.4 831.9,280.2 832.2,287.1 832.5,288.7 832.7,291.3 833.1,289.7 833.4,291.6 833.9,294.2 834.3,291.4 834.6,282.8 834.9,283.0 835.2,283.2 835.5,282.8 836.2,284.1 836.6,285.1 837.0,283.1 837.2,280.0 837.4,276.2 837.5,277.6 837.7,284.1 838.1,285.5 838.4,286.3 838.7,284.7 839.0,286.5 839.4,284.1 839.4,283.8 839.4,284.9 839.7,284.4 840.1,289.8 840.3,285.7 840.4,282.9 840.5,284.2 840.7,284.6 840.9,286.5 841.1,292.7 841.2,290.6 841.4,289.1 841.7,288.1 842.0,292.5 842.4,292.5 842.8,293.8 843.2,292.8 843.7,297.1 844.0,292.3 844.2,288.6 844.3,294.5 844.6,292.2 845.0,294.2 845.4,290.9 845.5,293.2 845.8,292.9 846.0,293.1 846.3,293.7 846.6,290.9 846.9,290.8 847.2,289.2 847.5,295.6 847.8,298.2 847.9,292.1 848.1,293.2 848.5,294.7 849.0,294.9 849.4,295.1 850.1,292.0 850.5,294.4 851.0,296.6 851.4,298.6 851.7,301.2 852.1,304.6 852.4,301.1 852.8,306.9 853.2,304.3 853.5,307.2 854.0,306.9 854.1,310.4 854.4,311.8 854.5,313.0 854.8,310.8 855.2,313.4 855.4,315.9 855.9,316.3 856.2,320.4 857.0,313.9 857.6,314.1 858.2,311.1 858.8,309.2 859.8,309.8 860.6,312.7 861.2,312.2 862.1,313.9 863.0,314.7 863.9,316.3 864.8,318.0 865.8,316.9 867.1,317.4 867.8,318.2 868.0,321.5 868.2,322.5 868.4,326.7 868.4,333.4 868.5,337.1 868.6,336.3 868.6,338.0 868.7,348.4 868.7,345.1 868.7,347.4 868.8,345.9 868.8,344.8 868.9,339.7 869.0,340.1 869.1,340.1 869.2,343.0 869.3,342.9 869.5,340.4 869.5,339.1 869.6,339.6 869.7,341.1 869.9,337.7 870.1,339.7 870.2,338.6 870.4,335.7 870.6,334.3 870.8,330.2 871.0,330.3 871.2,329.3 871.5,333.4 871.7,334.9 871.8,335.8 872.1,335.1 872.3,341.9 872.5,344.5 872.6,341.4 872.8,343.8 872.9,345.7 873.1,346.3 873.4,343.7 873.6,343.2 873.7,341.0 873.8,338.9 874.1,339.8 874.4,342.2 874.9,340.8 875.2,339.4 875.6,335.8 875.9,336.6 876.6,334.9 877.6,337.6 878.0,340.3 878.2,342.2 878.9,340.2 879.5,343.4 880.4,344.2 880.6,346.0 880.7,348.9 880.7,352.0 880.8,362.2 880.8,355.0 880.8,355.1 881.0,352.3 881.1,353.0 881.3,354.2 881.5,358.5 881.6,360.8 881.8,356.9 882.0,353.6 882.1,356.4 882.4,355.9 882.9,357.5 883.4,357.1 883.8,352.6 884.0,349.1 884.5,349.7 885.1,349.7 885.8,353.8 886.2,359.3 886.6,360.5 886.8,357.8 887.1,352.4 887.6,356.9 888.2,355.3 888.7,358.6 889.2,356.8 889.7,358.8 890.1,360.3 890.7,356.9 891.3,354.9 892.2,354.3 892.5,346.7 892.8,347.3 893.2,351.0 893.8,351.7 894.3,351.8 894.4,352.4 894.7,354.4 895.2,352.0 895.5,354.3 895.7,350.7 895.8,348.3 896.0,350.6 896.2,349.0 896.4,352.3 896.6,356.9 896.7,349.8 897.0,350.8 897.3,354.0 897.5,353.5 897.7,351.2 897.9,349.1 898.3,352.3 898.6,353.3 898.8,348.2 899.1,349.4 899.5,350.4 899.8,354.5 899.9,360.0 900.0,355.4 900.2,354.0 900.3,347.8 900.4,347.1 900.5,347.3 900.6,341.8 900.7,339.4 900.9,342.8 901.2,341.3 901.4,344.1 901.6,344.9 901.9,346.1 902.2,349.4 902.4,349.8 902.5,353.2 902.6,351.1 902.8,352.5 903.0,352.8 903.3,350.6 903.5,351.9 904.0,351.7 904.4,356.4 905.1,353.2 905.8,353.4 906.5,351.4 907.3,353.5 908.1,352.0 908.9,352.1 909.5,351.1 910.7,354.0 911.8,355.5 912.6,356.3 913.5,355.7 914.1,359.7 914.9,361.0 915.2,364.0 915.6,360.8 915.9,367.1 916.1,368.5 916.3,370.8 916.4,373.8 916.6,369.9 916.9,367.8 917.4,366.9 917.9,370.8 918.5,369.3 919.3,371.6 919.9,373.5 920.4,374.4 920.8,374.9 921.3,376.5 921.8,378.6 922.1,379.1 922.4,378.5 922.7,381.9 922.9,384.8 923.0,388.9 923.0,399.2 923.0,395.7 923.1,395.7 923.1,399.6 923.1,396.2 923.2,397.8 923.2,400.7 923.3,398.7 923.3,401.0 923.4,398.6 923.4,398.4 923.5,394.6 923.6,394.5 923.7,392.2 923.8,390.7 924.0,394.1 924.1,395.2 924.3,391.4 924.5,394.6 924.8,396.7 924.9,396.9 925.0,396.0 925.1,394.9 925.2,390.5 925.3,392.2 925.5,395.5 925.7,399.3 925.8,395.8 925.9,398.1 926.1,398.8 926.1,403.3 926.2,408.7 926.2,418.6 926.2,407.7 926.3,407.5 926.3,410.3 926.5,412.7 926.6,413.3 926.7,411.7 926.9,417.3 927.0,415.9 927.2,415.1 927.4,417.8 927.5,421.6 927.7,420.4 927.9,425.8 927.9,438.8 928.0,425.9 928.0,418.6 928.0,421.7 928.2,421.6 928.3,421.9 928.3,423.0 928.4,422.4 928.6,417.3 928.8,421.2 929.1,426.7 929.3,422.3 929.6,421.6 929.9,420.0 930.1,423.7 930.5,420.4 930.7,419.8 930.9,417.7 931.2,413.7 931.4,409.5 931.6,409.3 931.8,408.9 932.1,411.3 932.7,409.4 933.2,408.8 933.3,402.3 933.6,401.4 934.0,401.8" fill="none" stroke="#d97706" stroke-width="1.2" stroke-linejoin="round" opacity="0.6"/><text x="942" y="472.0" text-anchor="start" font-size="11" fill="#d97706">0.01</text><text x="942" y="396.0" text-anchor="start" font-size="11" fill="#d97706">0.01</text><text x="942" y="320.0" text-anchor="start" font-size="11" fill="#d97706">0.01</text><text x="942" y="244.0" text-anchor="start" font-size="11" fill="#d97706">0.01</text><text x="942" y="168.0" text-anchor="start" font-size="11" fill="#d97706">0.01</text><text x="942" y="92.0" text-anchor="start" font-size="11" fill="#d97706">0.01</text><text x="942" y="80.0" text-anchor="start" font-size="11" font-weight="600" fill="#d97706">price</text>
  <polygon points="116.8,468.0 116.8,418.3 116.8,404.5 160.8,386.8 170.9,394.4 220.3,364.3 282.8,335.6 434.9,298.9 452.8,314.6 456.9,335.5 458.5,363.4 574.8,252.2 763.0,192.4 773.4,218.0 868.5,252.1 923.2,116.1 923.2,468.0" fill="#16a34a" fill-opacity="0.08"/>
  <polyline points="116.8,418.3 116.8,404.5 160.8,386.8 170.9,394.4 220.3,364.3 282.8,335.6 434.9,298.9 452.8,314.6 456.9,335.5 458.5,363.4 574.8,252.2 763.0,192.4 773.4,218.0 868.5,252.1 923.2,116.1" fill="none" stroke="#16a34a" stroke-width="2" stroke-linejoin="round"/>
  <line x1="88" y1="102" x2="110" y2="102" stroke="#16a34a" stroke-width="2.5"/><text x="116" y="106" font-size="11.5" fill="#374151">equity</text><line x1="88" y1="118" x2="110" y2="118" stroke="#d97706" stroke-width="2.5" opacity="0.8"/><text x="116" y="122" font-size="11.5" fill="#374151">price</text>
  <text x="78" y="502" text-anchor="start" font-size="12" fill="#6b7280">2026-01-01</text><text x="934" y="502" text-anchor="end" font-size="12" fill="#6b7280">2026-01-31</text>
</svg>
