<svg xmlns="http://www.w3.org/2000/svg" width="1100" height="560" font-family="ui-sans-serif, system-ui, sans-serif" viewBox="0 0 1100 560"><rect width="1100" height="560" fill="#fff"/><text x="80" y="28" fill="#111827" font-size="18" font-weight="700">Zone Recovery — PENGUUSDC fee-tier comparison (best setting)</text><text x="80" y="48" fill="#6b7280" font-size="12.5">lev 4 · ratio 3 · gap 20% · maxSteps 4 · maxDD 60% · random · equity per fee tier vip 0..9</text><text x="80" y="68" fill="#1d4ed8" font-size="12.5" font-weight="600">USDC margin · BNB −10%</text><line x1="80" x2="932" y1="508" y2="508" stroke="#e5e7eb" stroke-width="1"/><text x="70" y="512" fill="#6b7280" font-size="12" text-anchor="end">0.00</text><line x1="80" x2="932" y1="424" y2="424" stroke="#e5e7eb" stroke-width="1"/><text x="70" y="428" fill="#6b7280" font-size="12" text-anchor="end">15277</text><line x1="80" x2="932" y1="340" y2="340" stroke="#e5e7eb" stroke-width="1"/><text x="70" y="344" fill="#6b7280" font-size="12" text-anchor="end">30554</text><line x1="80" x2="932" y1="256" y2="256" stroke="#e5e7eb" stroke-width="1"/><text x="70" y="260" fill="#6b7280" font-size="12" text-anchor="end">45831</text><line x1="80" x2="932" y1="172" y2="172" stroke="#e5e7eb" stroke-width="1"/><text x="70" y="176" fill="#6b7280" font-size="12" text-anchor="end">61108</text><line x1="80" x2="932" y1="88" y2="88" stroke="#e5e7eb" stroke-width="1"/><text x="70" y="92" fill="#6b7280" font-size="12" text-anchor="end">76385</text><line x1="80" x2="932" y1="453" y2="453" stroke="#9ca3af" stroke-dasharray="6 4" stroke-width="1.5"/><polyline fill="none" stroke="#2563eb" stroke-linejoin="round" stroke-width="1.8" points="80 453 80 437.8 126.4 418.4 137.2 426.8 189.3 393.9 255.4 362.3 416 322.1 435 339.5 439.3 362.8 441 393.8 563.9 271.9 762.7 206.7 773.7 235 874.2 272.7 932 124.6" opacity=".9"/><polyline fill="none" stroke="#dc2626" stroke-linejoin="round" stroke-width="1.8" points="80 453 80 437.8 126.4 418.4 137.2 426.8 189.3 393.9 255.4 362.3 416 322.1 435 339.5 439.3 362.8 441 393.8 563.9 271.9 762.7 206.7 773.7 235 874.2 272.7 932 124.6" opacity=".9"/><polyline fill="none" stroke="#16a34a" stroke-linejoin="round" stroke-width="1.8" points="80 453 80 437.8 126.4 418.4 137.2 426.8 189.3 393.8 255.4 362.1 416 321.8 435 339.2 439.3 362.5 441 393.5 563.9 271.3 762.7 205.8 773.7 234.1 874.2 271.8 932 123.2" opacity=".9"/><polyline fill="none" stroke="#d97706" stroke-linejoin="round" stroke-width="1.8" points="80 453 80 437.8 126.4 418.4 137.2 426.7 189.3 393.7 255.4 362 416 321.6 435 339 439.3 362.2 441 393.2 563.9 270.8 762.7 205.1 773.7 233.4 874.2 271.1 932 122" opacity=".9"/><polyline fill="none" stroke="#7c3aed" stroke-linejoin="round" stroke-width="1.8" points="80 453 80 437.8 126.4 418.3 137.2 426.7 189.3 393.5 255.4 361.8 416 321.3 435 338.7 439.3 361.9 441 392.8 563.9 270.1 762.7 204.1 773.7 232.4 874.2 270.1 932 120.4" opacity=".9"/><polyline fill="none" stroke="#0891b2" stroke-linejoin="round" stroke-width="1.8" points="80 453 80 437.8 126.4 418.3 137.2 426.7 189.3 393.5 255.4 361.8 416 321.2 435 338.6 439.3 361.8 441 392.7 563.9 269.9 762.7 203.9 773.7 232.2 874.2 270 932 120.1" opacity=".9"/><polyline fill="none" stroke="#db2777" stroke-linejoin="round" stroke-width="1.8" points="80 453 80 437.8 126.4 418.3 137.2 426.6 189.3 393.5 255.4 361.7 416 321.2 435 338.6 439.3 361.7 441 392.6 563.9 269.9 762.7 203.8 773.7 232.1 874.2 269.9 932 119.9" opacity=".9"/><polyline fill="none" stroke="#65a30d" stroke-linejoin="round" stroke-width="1.8" points="80 453 80 437.8 126.4 418.3 137.2 426.6 189.3 393.5 255.4 361.7 416 321.1 435 338.5 439.3 361.7 441 392.6 563.9 269.7 762.7 203.6 773.7 231.9 874.2 269.7 932 119.6" opacity=".9"/><polyline fill="none" stroke="#475569" stroke-linejoin="round" stroke-width="1.8" points="80 453 80 437.8 126.4 418.3 137.2 426.6 189.3 393.5 255.4 361.7 416 321.1 435 338.5 439.3 361.6 441 392.5 563.9 269.6 762.7 203.5 773.7 231.8 874.2 269.5 932 119.4" opacity=".9"/><polyline fill="none" stroke="#ea580c" stroke-linejoin="round" stroke-width="1.8" points="80 453 80 437.8 126.4 418.3 137.2 426.6 189.3 393.4 255.4 361.7 416 321.1 435 338.4 439.3 361.6 441 392.4 563.9 269.5 762.7 203.3 773.7 231.6 874.2 269.4 932 119.1" opacity=".9"/><line x1="950" x2="972" y1="94" y2="94" stroke="#ea580c" stroke-width="3"/><text x="980" y="98" fill="#374151" font-size="12.5">vip 9 70727</text><line x1="950" x2="972" y1="116" y2="116" stroke="#475569" stroke-width="3"/><text x="980" y="120" fill="#374151" font-size="12.5">vip 8 70674</text><line x1="950" x2="972" y1="138" y2="138" stroke="#65a30d" stroke-width="3"/><text x="980" y="142" fill="#374151" font-size="12.5">vip 7 70638</text><line x1="950" x2="972" y1="160" y2="160" stroke="#db2777" stroke-width="3"/><text x="980" y="164" fill="#374151" font-size="12.5">vip 6 70583</text><line x1="950" x2="972" y1="182" y2="182" stroke="#0891b2" stroke-width="3"/><text x="980" y="186" fill="#374151" font-size="12.5">vip 5 70547</text><line x1="950" x2="972" y1="204" y2="204" stroke="#7c3aed" stroke-width="3"/><text x="980" y="208" fill="#374151" font-size="12.5">vip 4 70495</text><line x1="950" x2="972" y1="226" y2="226" stroke="#d97706" stroke-width="3"/><text x="980" y="230" fill="#374151" font-size="12.5">vip 3 70198</text><line x1="950" x2="972" y1="248" y2="248" stroke="#16a34a" stroke-width="3"/><text x="980" y="252" fill="#374151" font-size="12.5">vip 2 69990</text><line x1="950" x2="972" y1="270" y2="270" stroke="#2563eb" stroke-width="3"/><text x="980" y="274" fill="#374151" font-size="12.5">vip 0 69731</text><line x1="950" x2="972" y1="292" y2="292" stroke="#dc2626" stroke-width="3"/><text x="980" y="296" fill="#374151" font-size="12.5">vip 1 69731</text><text x="80" y="542" fill="#6b7280" font-size="12" text-anchor="start">2026-01-02</text><text x="932" y="542" fill="#6b7280" font-size="12" text-anchor="end">2026-01-31</text></svg>