<?xml version="1.0" encoding="UTF-8"?>
<svg xmlns="http://www.w3.org/2000/svg" width="1100" height="560" viewBox="0 0 1100 560" font-family="ui-sans-serif, system-ui, sans-serif">
  <rect width="1100" height="560" fill="#ffffff"/>
  <text x="80" y="28" font-size="18" font-weight="700" fill="#111827">Zone Recovery — PENGUUSDC fee-tier comparison (best setting)</text>
  <text x="80" y="48" font-size="12.5" fill="#6b7280">lev 4 · ratio 3 · gap 20% · maxSteps 4 · maxDD 60% · random  ·  equity per fee tier vip 0..9</text>
  <text x="80" y="68" font-size="12.5" font-weight="600" fill="#1d4ed8">USDC margin · BNB −10%</text>
  <line x1="80" y1="508.0" x2="932" y2="508.0" stroke="#e5e7eb" stroke-width="1"/><text x="70" y="512.0" text-anchor="end" font-size="12" fill="#6b7280">0.00</text><line x1="80" y1="424.0" x2="932" y2="424.0" stroke="#e5e7eb" stroke-width="1"/><text x="70" y="428.0" text-anchor="end" font-size="12" fill="#6b7280">15277</text><line x1="80" y1="340.0" x2="932" y2="340.0" stroke="#e5e7eb" stroke-width="1"/><text x="70" y="344.0" text-anchor="end" font-size="12" fill="#6b7280">30554</text><line x1="80" y1="256.0" x2="932" y2="256.0" stroke="#e5e7eb" stroke-width="1"/><text x="70" y="260.0" text-anchor="end" font-size="12" fill="#6b7280">45831</text><line x1="80" y1="172.0" x2="932" y2="172.0" stroke="#e5e7eb" stroke-width="1"/><text x="70" y="176.0" text-anchor="end" font-size="12" fill="#6b7280">61108</text><line x1="80" y1="88.0" x2="932" y2="88.0" stroke="#e5e7eb" stroke-width="1"/><text x="70" y="92.0" text-anchor="end" font-size="12" fill="#6b7280">76385</text>
  <line x1="80" y1="453.0" x2="932" y2="453.0" stroke="#9ca3af" stroke-width="1.5" stroke-dasharray="6 4"/>
  <polyline points="80.0,453.0 80.0,437.8 126.4,418.4 137.2,426.8 189.3,393.9 255.4,362.3 416.0,322.1 435.0,339.5 439.3,362.8 441.0,393.8 563.9,271.9 762.7,206.7 773.7,235.0 874.2,272.7 932.0,124.6" fill="none" stroke="#2563eb" stroke-width="1.8" stroke-linejoin="round" opacity="0.9"/>
  <polyline points="80.0,453.0 80.0,437.8 126.4,418.4 137.2,426.8 189.3,393.9 255.4,362.3 416.0,322.1 435.0,339.5 439.3,362.8 441.0,393.8 563.9,271.9 762.7,206.7 773.7,235.0 874.2,272.7 932.0,124.6" fill="none" stroke="#dc2626" stroke-width="1.8" stroke-linejoin="round" opacity="0.9"/>
  <polyline points="80.0,453.0 80.0,437.8 126.4,418.4 137.2,426.8 189.3,393.8 255.4,362.1 416.0,321.8 435.0,339.2 439.3,362.5 441.0,393.5 563.9,271.3 762.7,205.8 773.7,234.1 874.2,271.8 932.0,123.2" fill="none" stroke="#16a34a" stroke-width="1.8" stroke-linejoin="round" opacity="0.9"/>
  <polyline points="80.0,453.0 80.0,437.8 126.4,418.4 137.2,426.7 189.3,393.7 255.4,362.0 416.0,321.6 435.0,339.0 439.3,362.2 441.0,393.2 563.9,270.8 762.7,205.1 773.7,233.4 874.2,271.1 932.0,122.0" fill="none" stroke="#d97706" stroke-width="1.8" stroke-linejoin="round" opacity="0.9"/>
  <polyline points="80.0,453.0 80.0,437.8 126.4,418.3 137.2,426.7 189.3,393.5 255.4,361.8 416.0,321.3 435.0,338.7 439.3,361.9 441.0,392.8 563.9,270.1 762.7,204.1 773.7,232.4 874.2,270.1 932.0,120.4" fill="none" stroke="#7c3aed" stroke-width="1.8" stroke-linejoin="round" opacity="0.9"/>
  <polyline points="80.0,453.0 80.0,437.8 126.4,418.3 137.2,426.7 189.3,393.5 255.4,361.8 416.0,321.2 435.0,338.6 439.3,361.8 441.0,392.7 563.9,269.9 762.7,203.9 773.7,232.2 874.2,270.0 932.0,120.1" fill="none" stroke="#0891b2" stroke-width="1.8" stroke-linejoin="round" opacity="0.9"/>
  <polyline points="80.0,453.0 80.0,437.8 126.4,418.3 137.2,426.6 189.3,393.5 255.4,361.7 416.0,321.2 435.0,338.6 439.3,361.7 441.0,392.6 563.9,269.9 762.7,203.8 773.7,232.1 874.2,269.9 932.0,119.9" fill="none" stroke="#db2777" stroke-width="1.8" stroke-linejoin="round" opacity="0.9"/>
  <polyline points="80.0,453.0 80.0,437.8 126.4,418.3 137.2,426.6 189.3,393.5 255.4,361.7 416.0,321.1 435.0,338.5 439.3,361.7 441.0,392.6 563.9,269.7 762.7,203.6 773.7,231.9 874.2,269.7 932.0,119.6" fill="none" stroke="#65a30d" stroke-width="1.8" stroke-linejoin="round" opacity="0.9"/>
  <polyline points="80.0,453.0 80.0,437.8 126.4,418.3 137.2,426.6 189.3,393.5 255.4,361.7 416.0,321.1 435.0,338.5 439.3,361.6 441.0,392.5 563.9,269.6 762.7,203.5 773.7,231.8 874.2,269.5 932.0,119.4" fill="none" stroke="#475569" stroke-width="1.8" stroke-linejoin="round" opacity="0.9"/>
  <polyline points="80.0,453.0 80.0,437.8 126.4,418.3 137.2,426.6 189.3,393.4 255.4,361.7 416.0,321.1 435.0,338.4 439.3,361.6 441.0,392.4 563.9,269.5 762.7,203.3 773.7,231.6 874.2,269.4 932.0,119.1" fill="none" stroke="#ea580c" stroke-width="1.8" stroke-linejoin="round" opacity="0.9"/>
  <line x1="950" y1="94" x2="972" y2="94" stroke="#ea580c" stroke-width="3"/><text x="980" y="98" font-size="12.5" fill="#374151">vip 9  70727</text>
  <line x1="950" y1="116" x2="972" y2="116" stroke="#475569" stroke-width="3"/><text x="980" y="120" font-size="12.5" fill="#374151">vip 8  70674</text>
  <line x1="950" y1="138" x2="972" y2="138" stroke="#65a30d" stroke-width="3"/><text x="980" y="142" font-size="12.5" fill="#374151">vip 7  70638</text>
  <line x1="950" y1="160" x2="972" y2="160" stroke="#db2777" stroke-width="3"/><text x="980" y="164" font-size="12.5" fill="#374151">vip 6  70583</text>
  <line x1="950" y1="182" x2="972" y2="182" stroke="#0891b2" stroke-width="3"/><text x="980" y="186" font-size="12.5" fill="#374151">vip 5  70547</text>
  <line x1="950" y1="204" x2="972" y2="204" stroke="#7c3aed" stroke-width="3"/><text x="980" y="208" font-size="12.5" fill="#374151">vip 4  70495</text>
  <line x1="950" y1="226" x2="972" y2="226" stroke="#d97706" stroke-width="3"/><text x="980" y="230" font-size="12.5" fill="#374151">vip 3  70198</text>
  <line x1="950" y1="248" x2="972" y2="248" stroke="#16a34a" stroke-width="3"/><text x="980" y="252" font-size="12.5" fill="#374151">vip 2  69990</text>
  <line x1="950" y1="270" x2="972" y2="270" stroke="#2563eb" stroke-width="3"/><text x="980" y="274" font-size="12.5" fill="#374151">vip 0  69731</text>
  <line x1="950" y1="292" x2="972" y2="292" stroke="#dc2626" stroke-width="3"/><text x="980" y="296" font-size="12.5" fill="#374151">vip 1  69731</text>
  <text x="80" y="542" text-anchor="start" font-size="12" fill="#6b7280">2026-01-02</text><text x="932" y="542" text-anchor="end" font-size="12" fill="#6b7280">2026-01-31</text>
</svg>
