<svg xmlns="http://www.w3.org/2000/svg" width="1100" height="560" font-family="ui-sans-serif, system-ui, sans-serif" viewBox="0 0 1100 560"><rect width="1100" height="560" fill="#fff"/><text x="80" y="28" fill="#111827" font-size="18" font-weight="700">Zone Recovery — SOLUSDC fee-tier comparison (best setting)</text><text x="80" y="48" fill="#6b7280" font-size="12.5">lev 4 · ratio 2 · gap 20% · maxSteps 4 · maxDD 60% · random · equity per fee tier vip 0..9</text><text x="80" y="68" fill="#1d4ed8" font-size="12.5" font-weight="600">USDC margin · BNB −10%</text><line x1="80" x2="932" y1="508" y2="508" stroke="#e5e7eb" stroke-width="1"/><text x="70" y="512" fill="#6b7280" font-size="12" text-anchor="end">0.00</text><line x1="80" x2="932" y1="424" y2="424" stroke="#e5e7eb" stroke-width="1"/><text x="70" y="428" fill="#6b7280" font-size="12" text-anchor="end">4919</text><line x1="80" x2="932" y1="340" y2="340" stroke="#e5e7eb" stroke-width="1"/><text x="70" y="344" fill="#6b7280" font-size="12" text-anchor="end">9838</text><line x1="80" x2="932" y1="256" y2="256" stroke="#e5e7eb" stroke-width="1"/><text x="70" y="260" fill="#6b7280" font-size="12" text-anchor="end">14757</text><line x1="80" x2="932" y1="172" y2="172" stroke="#e5e7eb" stroke-width="1"/><text x="70" y="176" fill="#6b7280" font-size="12" text-anchor="end">19676</text><line x1="80" x2="932" y1="88" y2="88" stroke="#e5e7eb" stroke-width="1"/><text x="70" y="92" fill="#6b7280" font-size="12" text-anchor="end">24594</text><line x1="80" x2="932" y1="337.2" y2="337.2" stroke="#9ca3af" stroke-dasharray="6 4" stroke-width="1.5"/><polyline fill="none" stroke="#2563eb" stroke-linejoin="round" stroke-width="1.8" points="80 337.2 80 350 859.1 312.4 861.4 327.1 872.9 284 875.5 251.2 875.6 270.4 876.3 299.3 879.2 342.6 881.2 215.6 900.6 172.7 932 123.6" opacity=".9"/><polyline fill="none" stroke="#dc2626" stroke-linejoin="round" stroke-width="1.8" points="80 337.2 80 350 859.1 312.4 861.4 327.1 872.9 284 875.5 251.2 875.6 270.4 876.3 299.3 879.2 342.6 881.2 215.6 900.6 172.7 932 123.6" opacity=".9"/><polyline fill="none" stroke="#16a34a" stroke-linejoin="round" stroke-width="1.8" points="80 337.2 80 350 859.1 312.3 861.4 327 872.9 283.8 875.5 250.9 875.6 270.1 876.3 298.9 879.2 342.2 881.2 214.8 900.6 171.8 932 122.4" opacity=".9"/><polyline fill="none" stroke="#d97706" stroke-linejoin="round" stroke-width="1.8" points="80 337.2 80 350 859.1 312.3 861.4 326.9 872.9 283.7 875.5 250.7 875.6 269.9 876.3 298.6 879.2 341.8 881.2 214.2 900.6 171 932 121.5" opacity=".9"/><polyline fill="none" stroke="#7c3aed" stroke-linejoin="round" stroke-width="1.8" points="80 337.2 80 349.9 859.1 312.2 861.4 326.7 872.9 283.5 875.5 250.4 875.6 269.5 876.3 298.2 879.2 341.3 881.2 213.3 900.6 169.9 932 120.2" opacity=".9"/><polyline fill="none" stroke="#0891b2" stroke-linejoin="round" stroke-width="1.8" points="80 337.2 80 349.9 859.1 312.2 861.4 326.7 872.9 283.4 875.5 250.3 875.6 269.5 876.3 298.2 879.2 341.2 881.2 213.2 900.6 169.7 932 119.9" opacity=".9"/><polyline fill="none" stroke="#db2777" stroke-linejoin="round" stroke-width="1.8" points="80 337.2 80 349.9 859.1 312.2 861.4 326.7 872.9 283.4 875.5 250.3 875.6 269.4 876.3 298.1 879.2 341.2 881.2 213.1 900.6 169.6 932 119.8" opacity=".9"/><polyline fill="none" stroke="#65a30d" stroke-linejoin="round" stroke-width="1.8" points="80 337.2 80 349.9 859.1 312.1 861.4 326.7 872.9 283.4 875.5 250.2 875.6 269.4 876.3 298 879.2 341.1 881.2 212.9 900.6 169.4 932 119.5" opacity=".9"/><polyline fill="none" stroke="#475569" stroke-linejoin="round" stroke-width="1.8" points="80 337.2 80 349.9 859.1 312.1 861.4 326.6 872.9 283.3 875.5 250.2 875.6 269.3 876.3 298 879.2 341 881.2 212.8 900.6 169.3 932 119.3" opacity=".9"/><polyline fill="none" stroke="#ea580c" stroke-linejoin="round" stroke-width="1.8" points="80 337.2 80 349.9 859.1 312.1 861.4 326.6 872.9 283.3 875.5 250.2 875.6 269.3 876.3 297.9 879.2 340.9 881.2 212.6 900.6 169.1 932 119.1" opacity=".9"/><line x1="950" x2="972" y1="94" y2="94" stroke="#ea580c" stroke-width="3"/><text x="980" y="98" fill="#374151" font-size="12.5">vip 9 22773</text><line x1="950" x2="972" y1="116" y2="116" stroke="#475569" stroke-width="3"/><text x="980" y="120" fill="#374151" font-size="12.5">vip 8 22759</text><line x1="950" x2="972" y1="138" y2="138" stroke="#65a30d" stroke-width="3"/><text x="980" y="142" fill="#374151" font-size="12.5">vip 7 22749</text><line x1="950" x2="972" y1="160" y2="160" stroke="#db2777" stroke-width="3"/><text x="980" y="164" fill="#374151" font-size="12.5">vip 6 22735</text><line x1="950" x2="972" y1="182" y2="182" stroke="#0891b2" stroke-width="3"/><text x="980" y="186" fill="#374151" font-size="12.5">vip 5 22725</text><line x1="950" x2="972" y1="204" y2="204" stroke="#7c3aed" stroke-width="3"/><text x="980" y="208" fill="#374151" font-size="12.5">vip 4 22712</text><line x1="950" x2="972" y1="226" y2="226" stroke="#d97706" stroke-width="3"/><text x="980" y="230" fill="#374151" font-size="12.5">vip 3 22634</text><line x1="950" x2="972" y1="248" y2="248" stroke="#16a34a" stroke-width="3"/><text x="980" y="252" fill="#374151" font-size="12.5">vip 2 22579</text><line x1="950" x2="972" y1="270" y2="270" stroke="#2563eb" stroke-width="3"/><text x="980" y="274" fill="#374151" font-size="12.5">vip 0 22510</text><line x1="950" x2="972" y1="292" y2="292" stroke="#dc2626" stroke-width="3"/><text x="980" y="296" fill="#374151" font-size="12.5">vip 1 22510</text><text x="80" y="542" fill="#6b7280" font-size="12" text-anchor="start">2025-10-10</text><text x="932" y="542" fill="#6b7280" font-size="12" text-anchor="end">2025-10-10</text></svg>