<svg xmlns="http://www.w3.org/2000/svg" width="1000" height="520" font-family="ui-sans-serif, system-ui, sans-serif" viewBox="0 0 1000 520"><rect width="1000" height="520" fill="#fff"/><text x="78" y="28" fill="#111827" font-size="18" font-weight="700">Zone Recovery — SOLUSDT best setting (equity / PnL)</text><text x="78" y="48" fill="#6b7280" font-size="12.5">lev 5 · ratio 3 · gap 20% · maxSteps 4 · maxDD 20% · random · vip 9 · 12 series, 83.3% win · vol $2803357372 ($90430924/day) · fees $428914</text><text x="78" y="68" fill="#1d4ed8" font-size="12.5" font-weight="600">USDT · BNB −10% · taker 0.0153%</text><text x="934" y="28" fill="#16a34a" font-size="18" font-weight="700" text-anchor="end">+16502176 USDT (+16.50%)</text><line x1="78" x2="934" y1="468" y2="468" stroke="#e5e7eb" stroke-width="1"/><text x="68" y="472" fill="#6b7280" font-size="12" text-anchor="end">0.00</text><line x1="78" x2="934" y1="392" y2="392" stroke="#e5e7eb" stroke-width="1"/><text x="68" y="396" fill="#6b7280" font-size="12" text-anchor="end">26422582</text><line x1="78" x2="934" y1="316" y2="316" stroke="#e5e7eb" stroke-width="1"/><text x="68" y="320" fill="#6b7280" font-size="12" text-anchor="end">52845164</text><line x1="78" x2="934" y1="240" y2="240" stroke="#e5e7eb" stroke-width="1"/><text x="68" y="244" fill="#6b7280" font-size="12" text-anchor="end">79267746</text><line x1="78" x2="934" y1="164" y2="164" stroke="#e5e7eb" stroke-width="1"/><text x="68" y="168" fill="#6b7280" font-size="12" text-anchor="end">105690328</text><line x1="78" x2="934" y1="88" y2="88" stroke="#e5e7eb" stroke-width="1"/><text x="68" y="92" fill="#6b7280" font-size="12" text-anchor="end">132112910</text><line x1="78" x2="934" y1="180.4" y2="180.4" stroke="#9ca3af" stroke-dasharray="6 4" stroke-width="1.5"/><text x="934" y="174.4" fill="#6b7280" font-size="11" text-anchor="end">start 100000000</text><polyline fill="none" stroke="#d97706" stroke-linejoin="round" stroke-width="1.2" points="78 213.1 78.5 216 78.9 219.4 79.4 215.4 79.8 213.6 80.1 208.2 80.5 207.4 81 209 81.6 211.9 82.1 212 82.5 219.6 82.7 215 83.1 212.5 83.5 211.6 84 209 84.6 210.8 85.2 212.4 85.7 213 86.2 213.6 86.7 209.6 87.3 207.1 87.7 206.2 87.8 199.2 87.9 196.7 88 193.5 88.1 192.5 88.2 186.5 88.2 189.8 88.4 185.1 88.5 185.5 88.8 187.9 89 183.5 89.2 183.1 89.5 182.9 89.8 186.6 90.1 187.2 90.6 185.9 91 183.1 91.4 183.6 91.8 181.8 92.1 183.4 92.3 179.6 92.5 178.7 92.8 179.3 93.1 179.2 93.4 177.3 93.7 176.4 93.9 180.2 94.1 177.3 94.3 178.1 94.5 177 94.8 174.5 95 174.6 95.3 175.5 95.6 177.1 95.9 176.7 96.3 176 96.6 172.9 97 174.3 97.3 174.9 97.6 176 98 177.7 98.4 178 98.6 182.2 98.9 180.7 99.4 178.2 99.9 177.8 100.4 174.3 100.9 175 101.4 175.2 102.2 176.9 102.8 178.4 103.5 175.4 104.2 175.5 104.9 174.3 105.3 172.8 105.6 165.8 105.7 168.6 106 169.6 106.3 173.5 106.6 174.6 107.1 172.2 107.5 169.3 107.8 167.1 108 168 108.3 168.6 108.7 164.1 108.9 164.2 109.3 162 109.6 161.4 109.9 159 110.2 162.3 110.6 159.8 110.9 164.4 111.4 161.1 111.9 158.4 111.9 155.3 112.2 158.8 112.6 161.5 113 162.8 113.3 157.4 113.7 158.6 114.1 160.3 114.5 163.4 114.9 164.6 115.3 161.8 115.8 159.5 116.3 159.6 116.7 158.9 117.2 158.3 117.7 157.7 118.3 157.7 118.8 156.8 119.2 153.3 119.5 155 119.9 154.6 120.2 152.7 120.6 149.9 120.8 154.6 121 154.5 121.3 154.4 121.5 152.7 121.7 153 122 156.2 122.3 153.3 122.6 158.2 122.7 162.3 122.9 165 123.1 158 123.3 157 123.5 155.7 123.8 153.9 124 151.1 124.2 148.2 124.3 145.7 124.5 147.6 124.8 149.2 125 148.6 125.3 148.5 125.7 145.7 125.9 142.4 126.1 140.6 126.4 138.4 126.6 135.3 126.8 137 127.1 134.9 127.3 131.2 127.5 134.2 127.7 129.4 127.9 133.9 128.2 133.9 128.5 132.5 128.9 133.3 129.2 136.8 129.6 134.9 130 128.4 130.4 130.8 130.9 131.2 131.4 133.7 131.8 132.3 132.3 128.7 132.7 127.2 133.1 125.9 133.4 129.8 133.8 129.6 134.2 132.4 134.6 133.1 134.9 136.1 135.4 137.1 135.8 134.7 136.2 134.4 136.6 129.6 136.8 125.1 137.1 128.9 137.5 131 138 132.6 138.4 133.2 138.8 133.9 139.3 136.5 139.8 138.5 140.1 136.4 140.6 136.5 141.1 141.1 141.2 144.5 141.5 142.5 141.9 144.6 142.3 143.7 142.7 145.1 143 142.7 143.3 140.2 143.6 136.9 144 136.7 144.4 137.8 144.9 139.2 145.5 138 146 137.4 146.4 139.3 146.9 138.3 147.3 137 147.7 140 148.2 141.9 148.5 143 148.8 139 149 142.3 149.3 141.7 149.5 146.2 149.7 147.8 149.8 146.2 150 143.9 150.3 139.3 150.6 142.1 150.9 135.2 151.1 134.1 151.2 128.9 151.4 127.4 151.5 125.3 151.6 123.5 151.7 119.9 151.8 122.7 152 124.8 152.1 123 152.3 121.9 152.4 119.5 152.6 123.4 152.7 123.7 152.8 137.4 152.8 138 152.9 141.5 152.9 135.9 153 127.6 153.2 134.4 153.3 133.8 153.5 131.9 153.7 137.8 153.9 139.6 154.1 143.5 154.3 136.2 154.5 130.5 154.8 131.7 155.1 129.5 155.4 123.8 155.8 124 156 127.7 156.3 133.9 156.6 132 157.1 131.2 157.8 131.7 158.4 132.7 159.1 128.7 159.8 131.3 160.5 129.7 161.1 128.3 161.5 133.6 162.1 135.1 162.5 137.9 163 141.2 163.4 142.6 163.6 143.4 164 141.2 164.5 144.8 164.7 144.9 165.3 144.1 165.9 143.6 166.6 142.7 167.2 141.5 167.8 141.1 168.4 141 169.2 142.3 169.9 144.8 170.5 144.2 171.1 145.6 171.7 144.1 172.4 145 173 141.2 173.5 143.8 174.2 143.3 174.9 143.7 175.6 146.2 175.9 143.1 176.4 143.6 177 145.8 177.6 145.3 178 149.1 178.2 150.8 178.5 152.4 178.6 155.7 178.7 157 179 156.2 179.3 157.8 179.6 158.5 179.9 156.6 180.4 155.5 180.8 153.5 181.3 153.7 182 152.2 182.7 154 183.6 153.2 184.3 149.2 184.9 149.3 185.7 147 186.6 150.9 187.5 150.1 188.5 147.6 189.3 149.7 190 151.9 190.9 148.7 191.4 141.6 191.4 137.4 191.6 145.7 191.8 139.2 192 134.4 192.2 138.7 192.5 137.3 192.8 134.6 193.2 134.4 193.7 134.8 193.9 129.9 194 127.2 194.1 127.2 194.3 124.8 194.5 129 194.9 124.9 195.3 126.9 195.6 123 195.9 120.9 196.3 122.4 196.7 120.8 196.9 118.7 197.2 122 197.6 118.5 197.8 118 198.2 119.3 198.6 122.7 199.1 122.6 199.4 126.9 199.6 128.1 199.7 131.3 199.9 129 200.1 135.2 200.3 131.4 200.6 137.2 200.9 133.5 201.3 136.7 201.6 133.7 202 132.4 202.4 136 202.7 135.1 203.2 134.3 203.8 137.5 204.1 134.7 204.7 134.8 205.2 138.5 205.4 144.9 205.6 141 206.1 138.7 206.6 141.5 207.1 138.6 207.7 139.4 207.9 139.7 208.3 138.9 208.8 141.7 209.3 143.7 209.4 146.7 209.8 144.2 210.4 145 210.6 149.8 211.1 148.6 211.5 151.3 212 149.2 212.5 146.1 213.1 146.9 213.8 143.4 214.3 148.1 215 146.1 215.6 144.6 216.2 147.4 216.4 140.3 216.7 145 217.1 147.7 217.5 145.3 217.8 137.1 218.1 138.5 218.5 137.2 219 138.7 219.3 132.3 219.6 134.6 220.1 130.6 220.6 133.1 221.2 134.2 221.7 138.2 222.3 138.6 222.9 134.3 223.3 129 223.5 127.5 223.8 126 224.1 128.1 224.6 127.2 224.9 135.2 225.2 137.4 225.5 131.5 225.9 128.6 226.5 127.4 226.9 129.5 227.5 128.3 228 130.5 228.6 130.9 229.1 133 229.4 131 230 129.9 230.3 126 230.7 129 231.2 126.1 231.6 126 231.8 123.9 231.9 128.9 232.1 126.1 232.3 123 232.4 125.1 232.7 128.9 232.9 123.9 233.2 128.5 233.4 127.5 233.7 122.4 233.9 119.7 234.1 120 234.4 120.7 234.7 124.6 235 125.3 235.4 122 235.8 120.9 236.1 116.2 236.2 115.4 236.4 119.4 236.7 117.6 237.1 119.6 237.5 122.8 237.8 119.1 238.1 120.5 238.6 121.8 239 122.9 239.4 125 239.6 127 240.1 128 240.6 129.9 241.1 126.9 241.8 124.4 242.3 125.1 242.9 130.4 243.2 131.3 243.7 132.3 244.1 135.5 244.6 134.3 245.1 131.2 245.4 135.2 245.9 132.5 246.4 133.4 246.8 130.8 247.4 127.8 248 128.3 248.6 130.7 249.1 124.7 249.5 126.3 250 124.1 250.5 129 250.9 130.6 251.1 135.7 251.3 139.1 251.4 139.3 251.7 139.8 252.1 140.9 252.4 138.4 252.9 139.4 253.1 143 253.3 146.2 253.5 145.3 253.9 141 254.3 139.5 254.8 140.9 255.4 139.8 255.7 137.8 256.2 137.9 256.8 139.6 257.3 139.7 257.8 141 258.1 142.1 258.5 139.1 258.7 138.3 259.1 137.3 259.4 141 259.5 147.3 259.5 152.2 259.5 151.3 259.6 147.9 259.8 147.6 259.9 152 260 156.5 260 158.1 260.2 154.7 260.4 156.8 260.5 156 260.7 153.4 261 155.4 261.1 165 261.1 167.6 261.1 164.3 261.2 161.8 261.3 159.6 261.5 161 261.7 165.3 261.8 164.1 261.9 166.5 262.1 162.7 262.3 163.3 262.5 166 262.7 162.4 262.9 161 263.2 159.3 263.5 162 263.8 164 264.1 161 264.4 165.3 264.8 166.2 265.2 167.7 265.5 170 265.8 167.7 266.1 170.6 266.5 165.6 266.9 164 267.3 162.4 267.8 161.7 268.3 161.1 268.9 165.8 269.5 164.4 270.2 168.4 270.6 173.1 271 172.9 271.3 174.4 271.6 173.6 271.9 179 272 174.4 272.3 170 272.7 172.1 273.1 169.1 273.7 167.9 274.1 166.6 274.7 169.6 275.1 173.8 275.3 178.5 275.6 178.4 275.9 180.3 276.1 183.4 276.3 176 276.7 174.9 277.1 173.9 277.5 178.9 278 179.5 278.4 176.3 278.9 178.5 279.4 174.1 280 175.1 280.4 172.6 280.8 171.1 281.2 167.2 281.5 167.2 281.8 169.4 282.3 171.4 282.8 170 283.2 170.9 283.7 168.7 284.1 168.7 284.5 170.3 285.1 170.7 285.5 169.8 286 167.4 286.4 168.3 286.9 168.2 287.1 174.7 287.2 175.4 287.4 167.1 287.5 162.9 287.6 164.7 287.8 163.7 288.1 168.2 288.3 172.8 288.5 176.1 288.8 172.1 289.1 166 289.5 171.4 289.8 169.9 290.2 168 290.7 164.9 291 162.4 291.1 157.7 291.3 156.1 291.4 153 291.6 154.6 291.8 149.9 292 152.6 292.3 149.5 292.5 148.6 292.7 146.5 293 147.7 293.1 145 293.4 148 293.8 145.8 294.2 144.4 294.5 144.2 295 144.5 295.5 147.4 296.1 145.9 296.7 144 297.2 143.5 297.9 147.6 298.6 144.6 299.2 147 299.7 145.4 300.2 148.1 300.5 149.2 300.8 153.5 301.2 146.4 301.5 149.7 301.8 149 302.1 155.7 302.3 159.4 302.5 156.8 302.8 153.5 303.3 155.2 303.8 154.9 304.2 152.1 304.7 147.4 305.2 149.1 305.5 150.1 306 149.4 306.4 147.1 306.8 150.9 307.2 155.1 307.5 158.3 307.9 156.6 308.2 162.1 308.4 165 308.6 167.6 308.7 171.7 308.9 171.8 309 172.6 309.2 175.3 309.4 172.5 309.7 171.5 310.1 168.8 310.5 167.5 310.9 171.2 311.3 166.1 311.8 165.8 312.2 164.8 312.6 163 313 161.8 313.4 160.9 313.6 155.5 313.9 155.1 314.2 158.7 314.5 157.8 314.7 161.3 314.9 158.9 315 167.3 315.1 166.1 315.3 164.6 315.5 170.1 315.7 174.9 315.8 172.9 316 171.1 316.2 168.4 316.5 168.4 316.8 175.3 317 176.4 317.1 178 317.4 175 317.6 178.1 317.8 180.9 318 177 318.3 178.2 318.5 186 318.5 183.4 318.8 181 319 182 319.3 181.3 319.6 176.8 319.9 178.4 320.3 181.8 320.6 182.5 321 181.8 321.5 180 321.9 180.8 322.2 182.8 322.6 180.9 323.1 179.2 323.6 177 324.2 173.6 324.8 172.2 325.4 172 326 173.7 326.7 170.5 327.2 169.7 327.8 169.7 328.5 171.7 329 172.3 329.6 172.6 330.1 174.9 330.6 167.7 330.8 166.4 331.1 168.5 331.5 166.2 331.8 171.5 332.4 173.3 332.8 170.4 333.3 170.4 333.7 168.4 334.2 172.3 334.6 177.4 334.8 179 335.1 179.9 335.4 177.3 335.8 181 336 178.5 336.5 179 336.8 175 337.2 177.5 337.6 173.8 338 178.4 338.5 175.5 339 174 339.4 170.9 339.8 172 340.3 170.9 340.7 169.5 341.2 170.9 341.6 167.4 342 166.5 342.2 162.9 342.3 160.7 342.5 167.5 342.7 160 342.9 163.8 343.1 166.2 343.5 167.4 343.7 170.5 343.8 175.7 343.8 180.4 343.9 181.1 344 180.8 344.1 179.9 344.1 186.9 344.2 192.9 344.2 195.9 344.2 194.7 344.3 196.6 344.3 197.8 344.4 202.8 344.4 209 344.4 206.5 344.4 209.8 344.5 208.6 344.5 205.4 344.6 204 344.6 197.7 344.7 203.4 344.8 204.6 344.9 205.9 345 206.9 345.1 201.6 345.3 206.4 345.4 202.8 345.6 201.6 345.7 202 345.9 203.7 346.1 206.4 346.3 210 346.5 208.8 346.7 207.2 346.9 209.8 347.1 210.5 347.3 211.5 347.5 212.8 347.7 208.9 348 213.8 348.2 216.5 348.4 216.8 348.6 216.8 348.7 219.9 348.8 223.9 348.9 225.2 349 227.1 349 227.2 349.2 222.8 349.3 218.9 349.5 222 349.7 221.1 349.9 221 350.1 219.1 350.5 222.1 350.5 228.5 350.6 229.3 350.6 234.3 350.6 247.1 350.6 239.2 350.6 241.1 350.7 254.3 350.7 254.2 350.7 251.2 350.7 257.9 350.7 250.3 350.7 247.5 350.8 252.1 350.8 249.2 350.9 250.5 350.9 268.1 350.9 262.1 350.9 275.8 350.9 294.1 350.9 282.5 350.9 285.4 350.9 300 350.9 287.6 350.9 286.7 351 320.6 351 314.5 351 296.6 351 297.9 351 313.5 351 307.4 351 317.7 351 329.3 351 334.2 351 339.7 351 342.1 351 344.5 351 357.5 351 336.3 351 365.1 351 370 351 389.3 351 370.7 351 390.2 351 407.1 351.1 413.6 351.1 419 351.1 410.4 351.1 430.7 351.1 419.6 351.1 424.8 351.1 417.1 351.1 434.9 351.1 404 351.1 407.4 351.1 387.4 351.1 361.2 351.1 327.8 351.1 371 351.1 350.7 351.1 349.6 351.1 348.5 351.2 340.8 351.2 324.9 351.2 314 351.2 330.3 351.2 333.3 351.2 342.1 351.2 339.5 351.2 333.7 351.2 330.6 351.2 334.6 351.3 310.3 351.3 324 351.3 322.6 351.3 297.8 351.3 304 351.3 302.4 351.3 301.9 351.3 288.5 351.3 292.8 351.3 293.6 351.3 284.4 351.3 293.2 351.3 298 351.3 294.7 351.3 299.7 351.4 283.2 351.4 300.3 351.4 294.7 351.4 306.9 351.4 317.9 351.4 314.2 351.5 307.6 351.5 296.1 351.5 292.4 351.5 289 351.5 280.9 351.5 279.8 351.5 276.2 351.5 266.6 351.5 260.9 351.5 249.8 351.5 267.6 351.6 260 351.6 268.4 351.6 267.6 351.6 275.2 351.7 274.5 351.7 294.5 351.7 263.4 351.7 259.2 351.7 267.1 351.7 264.6 351.7 269.4 351.8 270.6 351.8 267.9 351.8 258.9 351.8 272 351.8 281.9 351.8 286 351.9 283.4 351.9 282.6 351.9 282 351.9 283.5 351.9 281.6 351.9 282.3 351.9 283.3 352 286.4 352 285.4 352 283.3 352 283.5 352 276.7 352 277.6 352 278.2 352 278 352.1 274.1 352.1 282.4 352.1 283.8 352.1 281.3 352.1 279.3 352.1 283 352.2 282.9 352.2 287.1 352.2 291 352.2 292.4 352.2 290.5 352.2 289.4 352.3 288.2 352.3 290.3 352.3 292.9 352.3 295.6 352.4 300.4 352.4 295.2 352.4 293 352.5 286.7 352.5 284.7 352.5 284.5 352.6 280.9 352.6 280.6 352.7 286.5 352.7 282.9 352.7 276.7 352.8 277.9 352.8 280.5 352.9 289.6 352.9 285.7 353 280.8 353 278.3 353.1 281.6 353.2 286.2 353.3 280.4 353.4 277.4 353.4 276.9 353.5 271.2 353.6 272.4 353.6 273.4 353.7 274.8 353.8 269.3 353.8 267.5 353.9 271.5 353.9 278.7 354 281.6 354 281.7 354.1 286.2 354.1 286.3 354.2 283.1 354.3 281.8 354.4 280.6 354.4 287.5 354.5 295.2 354.5 292.6 354.6 291.5 354.7 287.2 354.8 292 354.9 283.4 355 278.7 355.1 280.6 355.3 284.4 355.4 290.9 355.5 289.5 355.7 294.8 355.8 295.7 355.9 295.9 355.9 296.9 356 293.7 356.1 300.9 356.2 297.7 356.3 303.1 356.3 298.8 356.4 301.2 356.5 294.3 356.6 292 356.7 294.3 356.7 291.6 356.8 290.8 356.9 284.8 357.1 282 357.2 278.7 357.3 278.2 357.5 281.2 357.6 282.4 357.7 290.7 357.9 292.9 358 297.5 358.1 297.9 358.2 299.7 358.4 302 358.5 302.1 358.6 300.1 358.8 294.7 358.9 295 359.1 289.6 359.3 293.2 359.5 297.6 359.7 296.8 359.8 292.7 360 293.9 360.2 295.5 360.4 300.7 360.5 307.9 360.6 306.2 360.7 312.4 360.8 303.6 361 303.8 361.1 303.9 361.3 298.6 361.5 295.7 361.6 291.6 361.8 293.8 362 297.7 362.2 299.8 362.4 302.2 362.5 299.9 362.7 302.3 362.8 302.1 363 304.8 363.1 302.8 363.3 302.4 363.5 303.1 363.7 297.6 363.8 291.4 364 297.3 364.2 294.9 364.4 288.6 364.5 290.3 364.6 285.1 364.8 288 365 286.8 365.1 290.8 365.3 290.5 365.4 292.1 365.6 296.2 365.8 295.2 366.1 292.7 366.3 295.7 366.5 300.1 366.7 300.9 366.9 301.2 367.1 305.6 367.4 300.1 367.6 300.5 367.9 299.2 368.1 301.5 368.4 299.5 368.6 301.5 368.9 303.2 369.1 301.5 369.3 304.8 369.5 302.5 369.6 304.6 369.7 307.2 369.9 301.6 370.1 297.3 370.2 297.4 370.4 298.8 370.6 298.5 370.8 304.8 371 302.4 371.3 303.8 371.5 296 371.7 295.7 371.9 297.4 372.1 299.9 372.3 299 372.6 299.9 372.8 297.3 373.1 298.7 373.3 304.5 373.7 302.5 374 299.2 374.3 296.6 374.6 301.7 375 302.1 375.3 301.7 375.8 302.7 376.1 304.6 376.3 309.4 376.4 318.2 376.5 315.1 376.6 318.5 376.8 318 377 321.2 377.2 318.2 377.4 322.1 377.5 322.3 377.7 323 377.8 326.5 378 327.4 378.1 326.5 378.3 327.6 378.4 330.8 378.5 335.5 378.6 331.3 378.7 325.7 378.8 320.3 378.9 325.5 379.2 323.9 379.5 320.1 379.7 322.7 380 322.1 380.3 320.8 380.6 319.6 380.8 319.8 381.1 317.5 381.4 318.5 381.8 321.1 382 323.5 382.2 327.8 382.5 323.9 382.7 330 382.9 333.2 383.1 333.3 383.3 330.1 383.6 333.8 383.8 328.3 384.1 332.8 384.4 330.9 384.6 325.3 384.8 328.5 385.1 333 385.3 322.9 385.5 322.3 385.7 319.9 385.9 317.8 386.3 321.5 386.6 314.4 386.8 312.8 387.1 311.5 387.3 311.9 387.7 312.6 388 308.5 388.3 308.7 388.6 306.5 389 306.1 389.3 305.9 389.7 304.9 390 303.2 390.3 304.4 390.7 302 391.1 303.4 391.6 303.1 392 304.7 392.3 309.1 392.7 308.8 393.1 309 393.3 303.4 393.7 307.5 394.2 307.1 394.6 306.8 395 308.1 395.5 307.9 395.9 304.2 396.1 301.7 396.4 306.2 396.8 306.7 397.2 308.7 397.3 314.8 397.5 312.7 397.8 313.4 398 310.5 398.3 310.7 398.6 312.4 398.7 302.7 398.8 299.5 398.8 295.3 398.8 293.4 398.8 292.9 398.9 287.7 398.9 287.4 398.9 282.9 398.9 284.6 399 288.5 399 288.7 399.1 282.6 399.1 278.5 399.2 283.1 399.2 283.2 399.3 279.6 399.4 273.7 399.4 276.1 399.5 274.8 399.6 278.2 399.7 280.8 399.7 280.1 399.9 276.6 400 274.6 400.2 271.9 400.2 268.4 400.3 261.7 400.3 265.5 400.4 263.2 400.5 267.3 400.6 266.5 400.8 265.9 400.9 269.8 401 263.6 401 261.2 401.1 268.2 401.1 267.6 401.3 264.9 401.4 263.3 401.6 257.8 401.7 259.7 401.9 259.6 402 261.4 402.2 261.3 402.4 263.3 402.7 260.6 403 264 403.2 269.1 403.4 269.2 403.7 263.3 403.9 257.5 404.2 257.5 404.5 257.8 404.8 256.4 405.1 255.7 405.4 255.7 405.5 252.7 405.7 247.6 405.8 255.2 406 256.2 406.2 252.5 406.4 256.8 406.5 258.1 406.6 263.5 406.8 260.5 407.1 253.1 407.2 255.6 407.4 251.6 407.5 255.5 407.7 253.4 407.9 252.1 408.1 253.1 408.4 256.3 408.6 256.9 408.9 255.1 409.2 253.6 409.5 256.4 409.7 250.6 409.8 251.5 410 253.6 410.2 254.8 410.4 252.7 410.6 255.5 410.7 256 410.9 250.8 411.1 246.8 411.4 249.6 411.6 245.3 411.7 249.8 412 255.9 412.2 255.7 412.5 254.4 412.9 255 413.1 256.4 413.4 260.4 413.7 260.2 414 260 414.4 261.8 414.7 256.8 415 255.6 415.4 260.3 415.7 261.9 416.1 263.6 416.5 260.3 416.7 259 417 253.8 417.3 252.3 417.6 250.5 417.8 248.4 418.1 247.9 418.3 252.4 418.4 253.7 418.8 253.9 419.1 252.5 419.4 250.5 419.8 250.1 420.1 252.6 420.5 251.4 420.9 254 421.2 258.1 421.5 258.1 421.8 257.7 422.1 259.5 422.2 264.2 422.4 263.1 422.6 268.9 422.6 271.6 422.7 268.3 422.9 268.3 423.2 268.6 423.3 267.3 423.6 266.7 423.8 262.5 424.1 265.2 424.3 271.2 424.5 268.5 424.7 269.8 424.9 258.1 424.9 257.8 425 254.5 425 262.1 425.1 264.1 425.2 260.6 425.3 263 425.4 257.7 425.5 257.4 425.6 257.9 425.8 260.4 425.9 263.6 426.1 266.5 426.2 257.6 426.4 264 426.6 265.2 426.8 262.3 427 255.3 427.2 255.2 427.4 254.9 427.6 253.6 427.9 254.5 428.1 251.9 428.2 246.9 428.4 248.5 428.5 242.1 428.6 248.1 428.7 248.1 428.9 242.2 429 235.1 429 234.9 429.1 238.2 429.3 240.7 429.5 237.1 429.7 238.4 430 236.9 430.1 227.6 430.1 222.9 430.1 226.4 430.2 226.1 430.4 224.1 430.5 220.7 430.7 222.9 430.9 223.3 431 223.1 431.3 221.5 431.5 220.4 431.7 219.1 431.9 217.5 432.2 213.6 432.3 220 432.5 217.5 432.9 217.4 433.3 216.6 433.6 214.6 433.9 214.1 434.4 214.5 434.8 211.9 435.2 215.1 435.7 213.6 436.2 213.7 436.7 215.6 437.1 212.9 437.3 210.4 437.5 208.7 437.7 207.1 438 212.9 438.3 214.1 438.6 208.9 439 210.4 439.4 216.8 439.6 217.7 439.8 216.1 440.1 219.7 440.4 221.6 440.6 221.9 440.8 221.6 441 224.4 441.4 220.2 441.7 226 441.9 227.8 442.1 226.8 442.4 232.9 442.5 236.4 442.7 237.2 442.8 233.4 443 230.3 443.3 233.9 443.5 238.6 443.5 245.8 443.7 242.6 443.9 244.3 444.1 243 444.3 244.1 444.5 246.9 444.5 253.8 444.7 253.3 444.7 257.5 444.8 264.7 444.8 259 444.9 255.2 445.1 255.4 445.2 259.7 445.4 253.9 445.6 256.3 445.8 258.5 445.9 263.7 446.1 262.9 446.2 263.3 446.4 263.5 446.6 263.5 446.7 257.2 446.9 256.8 447.1 256.8 447.3 256.2 447.6 256.2 447.9 252.4 448.1 255.3 448.3 260.8 448.6 261.6 448.8 264.6 448.8 271.6 449 266.7 449.1 272 449.2 270.8 449.3 265.1 449.4 265.3 449.6 262.7 449.8 256.9 449.9 256.9 450.1 257.5 450.4 258 450.7 258.3 450.9 263.6 451.1 263.9 451.3 264.6 451.5 267.2 451.8 264.4 452 264.1 452.2 268.7 452.4 266.5 452.5 263.1 452.6 269.8 452.7 265.1 452.8 261.1 452.9 258.1 453 259.2 453.1 259.5 453.3 258.4 453.4 249.9 453.4 247.6 453.5 249 453.6 250.4 453.7 255.8 453.9 252.8 454 248.7 454.1 255.1 454.3 252.9 454.5 260 454.7 256 454.9 254.4 455 249.4 455.1 246.3 455.2 239.8 455.3 235.1 455.4 236.5 455.4 239.2 455.6 242.4 455.7 236.3 455.8 229 455.8 224.8 455.8 224.7 455.8 229 455.9 229.1 456 232.2 456.1 231.9 456.3 232.6 456.4 226.2 456.5 233.6 456.5 239.4 456.6 242.1 456.6 230.4 456.7 230.2 456.8 230.1 457 231.8 457.2 235.3 457.3 236.1 457.5 235.6 457.8 233.5 458 230.1 458.2 231.3 458.5 235.9 458.7 237 459 235.1 459.3 230.7 459.5 238.7 459.6 242.9 459.6 245.1 459.7 251.9 459.8 247.1 459.9 242 460 244.2 460.2 246.8 460.5 243.4 460.9 243 461.4 243.4 461.7 243.3 462.2 237.7 462.6 237.9 463.2 240.4 463.7 233.9 464.2 232.7 464.7 232.1 465 238 465.2 237.6 465.5 233.4 465.8 233.6 466 233.7 466.3 237.3 466.6 235.1 466.9 230.4 467.1 227.8 467.3 226.8 467.5 224.9 467.8 229.1 468.2 233.6 468.4 235.6 468.7 235.1 468.9 238.4 469.3 238.8 469.6 235.1 470 234.9 470.4 229.6 470.7 228.3 471 232.3 471.3 227.8 471.6 225.6 471.8 232 472.1 235.6 472.3 225.7 472.5 228.6 472.9 227 473.3 229.2 473.7 228.7 474 222.5 474.2 222.3 474.2 219.1 474.4 215.4 474.4 215.3 474.6 218.2 474.8 222.7 475.1 219.6 475.4 221 475.6 221.2 475.9 221.3 476.2 223.5 476.6 224.7 476.8 229.3 477.1 228.5 477.4 226.7 477.6 234.1 477.8 232.2 478.1 231.8 478.5 235.4 478.8 233.3 479 235.4 479.3 232.4 479.6 234.6 479.8 235.4 480.1 237.2 480.2 231.8 480.3 232.5 480.4 236.7 480.5 245.7 480.5 244 480.6 241.3 480.7 236.2 480.8 233.9 480.9 227.4 481 228.8 481.2 232.8 481.4 237 481.5 240.7 481.6 243.2 481.8 245.7 481.9 247.3 482 243 482.1 248.2 482.2 248.4 482.4 243.2 482.5 250.8 482.6 252.4 482.7 252.6 482.9 253 483.1 249.8 483.2 250.7 483.5 249 483.7 251 484 249.5 484.3 252.2 484.4 257.3 484.6 254.7 484.8 257.7 485.1 252.2 485.3 250.1 485.6 250.9 486 254.3 486.3 250.9 486.7 257.2 487 254.2 487.3 258.3 487.6 261.6 487.9 258.8 488.2 263 488.2 267.3 488.4 260.7 488.7 261.7 489 266.9 489.2 264.2 489.6 263.4 489.9 267 490.3 263.4 490.8 264.9 491.3 264 491.7 261.4 492.2 263.7 492.6 264.3 492.9 262 493.4 263.2 493.7 260.4 494.1 261.6 494.5 259.7 494.7 257.5 495.2 258.7 495.6 258.4 496 259.6 496.4 261.1 496.8 264.5 497.1 261.5 497.7 266.6 497.9 268.2 498.3 265.7 498.6 265.1 498.9 267.5 499.1 268.2 499.4 265.9 499.7 261.3 500.1 258.7 500.4 260.7 500.7 267.4 501 267.1 501.4 267.6 501.7 265.7 502.1 269.7 502.5 267.9 502.8 267.1 503.2 270 503.2 284.6 503.2 285 503.2 279.7 503.3 283.1 503.4 277.9 503.4 266.2 503.4 264.3 503.5 262.7 503.6 263.9 503.8 262.9 504 259.8 504.1 257.7 504.3 257.1 504.6 255.1 504.9 257.6 505.1 257 505.4 260.5 505.7 257.5 506 251.9 506.2 253.9 506.5 255.9 506.8 252.5 507.2 252.8 507.5 254.4 507.8 250.3 507.9 251.4 508.1 254.4 508.3 258.2 508.4 259.5 508.5 263.7 508.6 266.9 508.7 269.1 508.8 265.9 508.9 266.7 509.1 260.4 509.2 255.5 509.3 261.1 509.5 262.5 509.6 266 509.8 266.8 510 271.2 510.1 271.9 510.2 276.6 510.3 277.9 510.3 280.4 510.4 283.2 510.5 282.3 510.6 286.2 510.6 285.8 510.7 284.2 510.8 282.4 510.9 283.1 511 285.7 511.1 285.6 511.2 286.4 511.4 285.6 511.5 281.9 511.6 277.5 511.7 271.1 511.8 274.4 511.9 274.7 512 278.7 512.2 276.4 512.4 275.9 512.6 280.1 512.8 278.4 513 284.8 513.2 285.2 513.4 283.5 513.6 280.4 513.7 279.6 513.9 281.5 514.1 283.8 514.4 285.2 514.5 288.8 514.7 289.3 514.8 291.5 514.8 292.4 515 294.2 515.1 289.1 515.3 291.9 515.5 296.5 515.7 295.7 515.8 300.5 516 302.4 516.2 299.6 516.5 298.1 516.7 296.4 517.1 294.9 517.6 291.5 518 293.6 518.4 297.4 518.9 299.2 519.2 295.5 519.7 295.1 520.1 292.1 520.4 291.3 520.7 291.1 521 288.9 521.2 288 521.6 290.6 522 293.7 522.3 293.3 522.7 292.5 523 288.6 523.3 285.3 523.7 285.9 524.1 288.7 524.4 286.4 524.9 288.5 525.3 286.5 525.7 285.6 526 286.7 526.4 287.8 526.6 291.4 527 291.7 527.2 295.6 527.3 301.5 527.4 305.3 527.5 303.3 527.5 306.1 527.7 307.6 527.7 307.8 527.8 307.9 527.9 311.3 528 314.1 528.1 312.7 528.2 312.6 528.3 314.5 528.5 316.4 528.6 316 528.7 314.7 528.8 314.8 529 318.1 529.1 320.8 529.2 317.5 529.3 322 529.4 319.8 529.5 324.9 529.6 321.2 529.7 317.8 529.8 319.8 530 322.9 530.1 323.8 530.3 321.3 530.4 321.6 530.6 322 530.8 315.9 530.9 310.2 531.1 315.7 531.3 320 531.4 319.9 531.6 322.4 531.7 327.2 531.8 326.4 531.9 325.7 532.1 322.4 532.3 323.9 532.4 321.6 532.5 314 532.7 314 532.7 309.1 532.8 305.7 532.8 303.5 532.9 305.5 533.1 307.2 533.2 307.3 533.4 304.4 533.6 307.4 533.8 302.2 533.9 307 534.2 307.1 534.4 305.8 534.7 308.8 534.9 306.4 535.1 310.4 535.3 309.1 535.4 305.4 535.5 306.5 535.6 308.1 535.7 313.9 535.7 312.9 535.8 304.6 536 308.5 536.1 313.9 536.2 311 536.4 313.8 536.6 319.3 536.6 320.1 536.7 316.1 536.8 312.4 537 314.2 537.1 314.2 537.3 314.7 537.5 314.2 537.7 312.3 537.8 308.3 538 307.4 538.2 303.2 538.3 296.9 538.3 297.4 538.5 298.1 538.6 297.6 538.8 298.8 539 299.5 539.2 299.6 539.4 302.3 539.6 298.7 539.9 300.9 540.3 299.8 540.5 297.6 540.8 299 541.1 295.5 541.3 295.4 541.7 299 542 299.3 542.3 303 542.6 303.6 543 304.2 543.4 297.9 543.8 297.8 544.2 293.5 544.5 293.2 545 293.3 545.4 296.1 546 299 546.5 301.2 546.9 302.6 547.5 303.3 548 301 548.5 301.4 549 296.4 549.4 294.8 549.9 292.6 550.4 295.7 550.9 297.6 551.5 293 552.1 295.3 552.7 296.6 553.1 299.1 553.6 295.5 554.1 295.6 554.5 292.1 555 292.6 555.4 288.5 555.6 283.4 555.8 284 556.1 285.5 556.5 286.7 556.9 287.2 557.4 288.9 557.8 291.5 558.3 289.4 558.8 290.5 559.4 291.4 559.9 292.4 560.3 294.4 560.8 293.1 561.3 290.2 561.6 287.3 562.1 289.8 562.6 292.4 563.1 292.4 563.5 292.9 563.8 295.7 564.3 289.5 564.8 291.1 565.3 294.1 566 293.7 566.3 296.8 566.7 298 567.2 295.5 567.7 292.7 568.2 290.6 568.9 291 569.6 290.3 570.2 289.2 570.8 287.3 571.3 286.6 571.9 290.3 572.7 287 573.3 284.4 574.2 285.5 575.1 284 575.5 287 576 292 576.5 292.6 577.2 292.2 577.7 290.7 578.6 291.6 579.2 289.6 579.7 287.7 580.4 287.4 581.1 286.1 581.6 287.5 582.3 289.2 582.7 292.9 583.3 291.3 583.9 291.3 584.6 290.8 584.7 291.9 584.8 295.1 585.2 297 585.5 298.8 585.9 298.3 586.2 292 586.3 284 586.4 285.3 586.6 283.3 586.8 286.9 587 279 587.1 278.8 587.4 280.5 587.7 278.9 588 277.4 588.2 280.4 588.7 280.8 589.1 282 589.5 281.1 590 280.4 590.5 281.2 590.8 275.7 591.1 275.9 591.3 276.1 591.5 273.4 591.7 272.7 592 274.3 592.4 273 592.8 275.3 593.3 274.7 593.8 275.7 594.3 272.9 594.7 272 594.9 270.6 595.3 272.9 595.7 276.5 596.1 278.6 596.6 277.3 597.1 280.1 597.8 281.2 598.5 280.6 599.2 277.7 599.7 281.7 600.5 279 601 276.9 601.7 280.1 602.2 286.8 602.5 284.1 602.9 289.1 603.1 294.5 603.3 295.8 603.5 293.4 603.8 290.8 604.3 292.4 604.8 290.6 605.2 295 605.5 290.8 605.8 288.8 606.2 289.1 606.6 288 607 282.7 607.1 274.2 607.2 273.2 607.3 269.8 607.5 270.7 607.8 273 608.1 270.7 608.5 270.2 608.9 267.1 609.2 269 609.5 266.4 609.9 266.1 610.2 263.4 610.5 265.2 610.9 265.6 611.3 264.5 611.7 266.6 612.1 266.9 612.5 264.4 612.8 265.8 613.3 264.8 613.8 267.6 614.3 266.1 614.7 265.3 615.1 269.8 615.4 272.3 615.8 270.8 616.3 269.8 616.8 270.4 617.2 268.8 617.7 267.5 618.1 271.2 618.4 267.5 618.7 268.3 619.1 273.3 619.3 270.2 619.7 272.4 620.1 269.5 620.5 271.3 620.9 270.9 621.1 278.8 621.1 280.7 621.2 278.7 621.5 280.7 621.7 282.8 621.9 284.2 622.1 285.1 622.3 282.9 622.7 286.2 623 291.1 623.2 284.1 623.6 283.2 624.1 284.3 624.6 282.5 625.2 282.6 625.6 279.4 626.1 278.9 626.7 276.6 627.1 276.4 627.8 279.5 628.4 276.2 629.2 274.3 629.9 274.8 630.5 281 631.1 276.5 631.5 283.2 632.1 284.4 632.5 288.3 632.7 290.7 633.1 291.9 633.5 289.9 634.1 290.2 634.7 291.6 634.9 295.8 635 295.8 635.1 296.2 635.4 295.8 635.7 297.5 636 298 636.2 298.6 636.6 296.6 637 297.8 637.5 296.6 637.8 294.6 638.2 295.6 638.8 295.2 639.3 293.2 639.8 296.1 640.3 297.5 640.8 297.9 641.5 296.2 642 293.3 642.5 289.7 642.8 288.2 643.2 292.4 643.7 289.6 644.3 289.9 644.6 286.6 644.9 284.9 645.2 288.7 645.5 289.4 645.8 290.4 646.1 292.7 646.2 293.2 646.5 291.2 646.6 283.4 646.7 281.3 646.8 280.6 647 281.3 647.3 278.3 647.4 275.1 647.5 269 647.5 267 647.6 268.7 647.7 264.2 647.8 264 647.9 263.5 648 263.4 648.2 262.2 648.3 257.5 648.4 253 648.5 254.6 648.7 254.9 648.8 255.4 649 252.9 649.1 252.7 649.4 252.9 649.6 255.2 649.7 257.8 649.8 264.4 649.8 265.6 649.9 261.5 650.1 263 650.2 267.1 650.3 265.4 650.5 262.6 650.7 259.5 651 259.6 651.2 263.4 651.4 260.5 651.8 263.1 652.2 262.7 652.6 265.4 653.1 261.9 653.4 266.6 653.6 272.9 653.8 270.4 654.2 271.3 654.7 272.1 654.8 280.5 655 273.8 655.3 272.4 655.8 274.9 656.2 282.2 656.4 282.2 656.8 281.8 657.2 282.9 657.4 290.2 657.6 291.8 657.9 291.2 658.2 291.5 658.5 294.4 658.6 294.7 658.9 291.7 659.3 287.6 659.6 290.2 660.1 288.4 660.5 286.2 661 289 661.5 292.7 661.8 291.9 662.2 294.8 662.7 289.7 663.2 291.2 663.7 291.2 664 296.7 664.2 297.8 664.6 295.4 665.1 295.2 665.6 294.6 666.1 298.1 666.4 295.5 666.9 294.3 667.4 294.8 668 294.3 668.6 297.4 669.1 298.3 669.5 296 670 297.5 670.5 298.1 670.6 300.2 670.7 300.6 670.8 294.9 671 293.3 671.3 291.5 671.6 293.7 672 293.1 672.2 289.4 672.5 288.5 672.9 291.7 673.2 290.1 673.5 294.7 673.6 292.7 673.9 292 674 290.5 674.3 293.3 674.4 300.1 674.5 301.9 674.6 304.6 674.7 298.6 674.9 301.6 675 300.1 675.1 293.7 675.3 293.3 675.4 297.9 675.6 302.5 675.8 299.3 676 295.1 676.3 297.3 676.6 298 676.9 296 676.9 299.1 677.1 295.9 677.4 298.2 677.8 299.3 678.2 301.9 678.5 305 678.7 304.5 678.9 308.8 679.1 307.1 679.4 308.1 679.7 306.9 680 304.6 680.4 306.3 680.7 311.1 680.8 317.5 680.9 308.3 681 310.3 681.2 311.9 681.5 311.2 682 311.1 682.2 314.3 682.3 317.1 682.4 311.9 682.7 318.3 683 316.2 683.4 314 683.8 317.8 684.1 315.8 684.5 311.8 684.9 311.5 685.4 310.1 685.9 308.9 686.4 308.9 686.9 306.1 687.2 308.4 687.7 304.7 688.3 303.6 688.8 303.6 689.2 301.8 689.6 299.7 690.1 300.9 690.6 298 691 297 691.5 295.5 692.1 297 692.5 294.6 692.7 288.6 692.9 288.6 693.2 289.7 693.5 286.2 693.7 287.4 694.1 286.9 694.3 286.8 694.7 284.7 694.9 283.3 695.2 283.6 695.6 283.3 696 283.4 696.3 281.3 696.7 283 697.2 281.7 697.5 280.9 697.8 280.7 698.2 281.6 698.5 279.9 698.8 282.2 699.2 283.4 699.4 286.8 699.6 283.3 699.8 278.7 700.1 280.6 700.5 279.9 700.7 277.2 701 276.7 701.1 271.6 701.2 270.3 701.3 274.4 701.5 274.7 701.7 276.8 701.9 280.3 702 280.1 702.2 275.9 702.5 276.7 702.8 276.9 703 272.6 703.2 276 703.4 270.4 703.6 271.7 704 272 704.3 273.7 704.7 272.6 705 270.6 705.3 272.4 705.6 273.3 705.8 266.1 706 265.8 706.3 267.7 706.6 270.5 707.1 273.3 707.6 272.3 708.1 272 708.6 274.6 709 275.4 709.6 278 709.9 279.8 710.5 280.5 711.1 278.7 711.8 275.4 712.4 272.7 712.9 272.4 713.3 271.2 713.7 269.6 714.1 265.7 714.3 267.8 714.8 268.6 715.3 265.9 715.8 270.6 716.2 266.9 716.8 269.4 717.3 272.7 717.9 271.8 718.3 266.7 718.4 262.9 718.6 262.7 718.9 265.3 719.3 264.6 719.9 265.4 720.3 266.6 721 265.8 721.5 267.5 722 270.4 722.4 270.1 722.8 268.4 723.3 266.4 724 266.6 724.6 269.7 725.1 271.4 725.7 270.1 726.3 271 726.8 270.3 727.1 266.5 727.5 259.1 727.5 259.7 727.5 256.1 727.5 258.4 727.5 263.6 727.6 263 727.8 264.7 728.1 264.3 728.4 263.4 728.7 267.1 728.9 270.4 729.1 271.8 729.3 270.8 729.6 271.8 729.7 276.8 729.8 275.3 730.1 274.9 730.4 275.9 730.7 276.1 731 278.8 731.3 278.7 731.7 279 732.1 276.3 732.6 274.8 732.9 274.3 733.5 272.5 734.1 272 734.7 271.7 735.2 267.7 735.7 265.9 736.1 266 736.7 264 737.3 263.8 738.2 265.2 739 263.3 739.8 265.5 740.9 265.7 741.5 267.3 742.1 264.7 742.6 264.2 743.5 263.9 744.3 264.4 745.1 264.2 745.9 263.8 746.5 262.4 747.3 261.9 747.9 261.6 748.7 262.3 749.4 261.3 750 262.6 750.5 259.6 751.1 260.5 751.7 265 752.2 267.8 752.4 270.2 752.8 269.8 753.3 269.5 753.9 267.8 754.6 267.2 755.2 265.8 755.7 263.9 756.3 266.1 757 268.1 757.6 267.3 758.2 270 759 269.5 759.6 270.8 760.4 269.7 761.4 268.2 762 264.6 762.3 262.3 763 261.1 763.8 261.4 764.6 262 765.3 261.6 766.3 262.7 767.4 260.5 768.4 265.4 769.1 261.9 769.9 264.9 770.7 267.7 771.5 267.8 772.2 267.1 773.1 265.9 774.2 266.8 775.2 264.4 776.2 263.3 777.2 262.3 778.1 263.2 778.9 263 779.2 257.8 779.3 257 779.6 256.3 780 257.7 780.4 259.8 780.9 259.7 781.3 259 781.6 255.3 781.8 251.9 781.9 252.3 782.1 249.3 782.3 249.8 782.5 251 782.8 252.2 783.1 249.9 783.4 249.3 783.7 248.9 784 247.9 784.2 245.7 784.4 245.8 784.7 244.7 785 246.3 785.3 245.3 785.6 246.2 786 245.7 786.4 245.2 786.8 246.1 787 248.4 787.4 247.3 787.9 247 788.4 246.2 788.9 245.7 789.4 244 790 244.4 790.5 247.3 791.2 246.7 791.7 249 792.1 249.2 792.7 251.5 793.1 251.5 793.6 248.4 793.7 233.8 793.7 238 793.8 241.1 793.9 243.5 794.2 246.7 794.4 244 794.8 242 795.2 242 795.6 240.9 796 243.1 796.3 236.5 796.6 235.7 796.8 231.8 797.1 232.1 797.4 229 797.6 225.9 797.9 227.4 798.3 227 798.7 226.2 799 229.2 799.5 228.8 800 230.6 800.4 228.6 800.8 230 801.3 230.4 801.8 227.8 802.1 225.2 802.5 226.6 802.9 229.5 803.3 227.2 803.6 228.8 803.9 226.1 804.3 228.1 804.7 231.3 804.9 231.5 805.2 234.5 805.5 236.7 805.7 242 806 240 806.3 241 806.4 244.5 806.6 244.2 806.9 245 807.2 243.7 807.7 241.5 808.2 242.6 808.7 240.7 809.1 245.3 809.5 241.7 810 243 810.5 245.5 811 242.3 811.5 241.1 811.7 247.4 811.9 243.4 812.1 244.4 812.4 246.3 812.6 244 813 244.5 813.4 244.7 813.7 242.8 814.2 242.4 814.5 236.6 814.8 240.2 815.1 233.6 815.3 235.2 815.6 234 815.9 232.9 816.2 233.9 816.8 232.3 817.2 237.9 817.7 235.9 818 238.8 818.5 242.6 819 243.9 819.4 244.4 819.9 244.4 820.5 245.9 820.8 247.5 821.4 245.5 822 247 822.5 249.7 822.9 249.2 823.6 247.4 824 241.9 824.5 243.8 825 240.8 825.5 237.2 826 237.4 826.4 239.9 826.8 242 827.2 238.8 827.5 238.5 828.1 239 828.6 237.8 829.2 237.1 829.7 241.9 830.2 245.4 830.4 246.2 830.8 245.3 831.3 243.9 831.6 239.8 831.8 234.8 832.1 234.7 832.5 233.3 832.9 234.1 833.4 232.6 833.7 229.6 834.1 232.2 834.5 237.2 834.9 235.5 835.3 239.2 835.8 242.5 836.3 242.2 836.7 243 837.2 244.9 837.6 246.5 838 247 838.3 242.9 838.6 240.3 838.8 237.4 839 234.8 839.2 236.8 839.4 234.3 839.6 234 839.9 236.2 840.1 234.2 840.3 237.9 840.4 245.6 840.5 247.6 840.5 250.5 840.6 247.6 840.7 245 840.9 242 841.1 243.9 841.4 245.4 841.6 244.6 841.8 245.4 842.1 247.8 842.4 249.1 842.6 245.1 842.9 243.2 843.2 241.8 843.6 241.5 844.1 240.9 844.5 239.3 844.9 242.8 845.3 244.9 845.8 248.2 845.9 251.4 846.1 251.4 846.4 258.1 846.4 259.1 846.6 258.7 846.7 264.2 846.8 266 846.9 266.7 847 265.1 847.2 264.8 847.3 263.3 847.5 266 847.8 268.5 847.9 273.8 848 269.4 848.2 270 848.5 263.6 848.9 263.3 849.3 262.3 849.7 260.9 850.2 262.5 850.8 263.1 851.4 262.5 851.8 261.6 852.3 264.2 852.6 264.4 853.1 260.2 853.5 261.9 854 262 854.6 261.7 855.1 263.6 855.7 263.7 856.2 262 856.8 261.3 857.3 258.7 857.8 259.4 858.4 260.5 859.1 257.9 859.7 256.4 860.3 256.8 860.8 260.2 861.3 262 861.9 261.9 862.5 261.6 863.1 259.7 863.3 256.3 863.6 253.9 863.9 254.1 864.1 249.7 864.3 245.1 864.5 249.6 864.9 246.8 865.3 247.3 865.8 247.7 866.1 243 866.3 239.9 866.5 237.5 866.7 239.5 866.8 245 867 243 867.2 241.7 867.3 245.5 867.5 242.9 867.7 243.7 867.9 245.7 868.2 241.3 868.4 241.8 868.7 244.7 869 246.3 869.1 250.1 869.3 253.6 869.5 252.3 869.7 254.9 869.8 258.7 869.9 256.5 870.1 256.3 870.3 258.1 870.5 259.7 870.8 256.3 871.1 259.5 871.4 253.2 871.5 248.4 871.7 250.2 871.9 250 872 251.5 872 253.4 872.2 256.4 872.4 255.3 872.5 250.4 872.6 268.2 872.6 261.7 872.6 264.7 872.6 271.1 872.6 273 872.6 272.2 872.7 274 872.7 277.5 872.7 273.1 872.7 272.8 872.8 268.5 872.8 263.6 872.9 258.9 873 260.7 873.1 264.6 873.2 262.2 873.3 258.9 873.5 262.7 873.7 267.4 873.8 270.2 874 265.6 874.2 265.2 874.4 266.9 874.6 261.1 874.9 257.9 875.2 257.5 875.7 258.6 876.1 256.1 876.7 256.4 877.3 257 877.8 260.3 878.3 263 878.7 261.6 879 268.7 879.3 263.2 879.8 263 880.2 261.4 880.7 261.8 881.1 257.5 881.4 253.5 881.7 253.3 882.1 250.7 882.4 251.5 882.8 250.9 883.2 253.3 883.5 257.9 883.7 262.6 883.8 265.3 883.9 269.2 883.9 273.7 884 274.3 884.1 264.4 884.1 263.3 884.3 265.4 884.5 269.6 884.7 269.1 885 271.5 885.3 264.9 885.4 260.7 885.6 258.9 885.9 260 886.2 265 886.5 259.8 886.9 263.1 887.2 256.7 887.6 257.7 888.1 257.3 888.5 260.4 889.1 258.2 889.5 264.3 889.7 264.3 890.1 268.8 890.4 270.3 890.6 272.5 890.9 268.6 891.3 269.7 891.7 271.6 892.1 268.8 892.6 270 892.9 271.6 893 274.9 893.1 281.7 893.2 278.8 893.3 280.6 893.4 286 893.4 285.9 893.5 285.1 893.6 285.7 893.8 283.2 894 284.1 894.3 285.5 894.4 287.6 894.5 292.8 894.5 289.3 894.6 287.6 894.8 288 894.9 289.3 895.1 289.3 895.3 287.4 895.5 290.8 895.7 285.3 896 285.3 896.2 288.3 896.4 290.2 896.7 291.2 896.9 292.7 897.1 295.4 897.3 295.8 897.4 290.3 897.7 293.3 898 292.5 898.3 293.2 898.5 297.6 898.7 297.5 898.8 300.7 898.9 304.2 899.1 303.3 899.3 298.8 899.5 298.6 899.9 301 900.1 303.6 900.3 306.1 900.7 307.3 900.9 305.9 901.1 308.8 901.3 311.4 901.5 311.5 901.7 308.9 901.8 312.8 902 309 902.2 310.5 902.4 309.4 902.7 306.3 903 304.7 903.3 303.3 903.7 305.1 904.1 302.6 904.5 301.5 904.9 299.6 905.4 300.7 905.9 297.8 906.3 295.8 906.7 294.6 907.1 295.5 907.4 289.4 907.7 289.3 908 288.7 908.4 290.7 908.8 290.6 909 292.8 909.5 294.3 909.7 294.4 910.1 292.6 910.5 291.4 911 292.6 911.3 290.2 911.6 288.3 912 288.3 912.4 290.9 913 292 913.5 293.4 914.1 293.3 914.7 290.7 915.4 292.6 915.8 293.8 916.3 291.3 916.8 288.3 917.1 288.7 917.7 287.4 918.2 288.9 918.7 286 919.1 289.2 919.6 288 920 285.1 920.2 279.7 920.3 281.8 920.6 280.6 920.9 282.9 921.2 287 921.5 288.4 921.8 286.9 922.1 287.2 922.3 285.5 922.5 283.3 922.8 284.9 923.1 285.6 923.4 283.7 923.6 279.9 923.8 276.3 924 277.3 924.3 282.4 924.6 280.8 924.9 281.6 925.2 288 925.5 287.1 925.8 292.4 925.9 294 926.2 291.9 926.4 293.8 926.7 294.8 927 291.2 927.4 291.3 927.8 294.7 928 290.2 928.4 292.6 928.8 286.3 929 284.1 929.3 281.8 929.6 281.3 930.1 285 930.6 286.4 931.2 285.9 931.9 285.1 932.5 285.6 933.3 285.1 934 286.1" opacity=".6"/><text x="942" y="472" fill="#d97706" font-size="11" text-anchor="start">133.56</text><text x="942" y="396" fill="#d97706" font-size="11" text-anchor="start">155.94</text><text x="942" y="320" fill="#d97706" font-size="11" text-anchor="start">178.32</text><text x="942" y="244" fill="#d97706" font-size="11" text-anchor="start">200.70</text><text x="942" y="168" fill="#d97706" font-size="11" text-anchor="start">223.08</text><text x="942" y="92" fill="#d97706" font-size="11" text-anchor="start">245.46</text><text x="942" y="80" fill="#d97706" font-size="11" font-weight="600" text-anchor="start">price</text><polygon fill="#16a34a" fill-opacity=".08" points="130 468 130 180.4 130 168.3 178.7 172.3 194 177.8 261.1 185 350.7 156.3 351 145.1 351 134 351.1 138 351.1 143.5 351.1 150.7 351.1 160.4 351.1 164.5 351.1 169.9 351.1 148.4 351.2 152.1 351.2 157.2 351.2 163.9 351.2 172.8 351.3 176.5 351.5 161.6 378.2 150.5 387.8 154.2 429 139.3 437.3 143.1 442.6 148.1 528.5 128.2 783.8 116.1 847.9 120.2 864.2 125.7 872.6 132.9 872.6 468"/><polyline fill="none" stroke="#16a34a" stroke-linejoin="round" stroke-width="2" points="130 180.4 130 168.3 178.7 172.3 194 177.8 261.1 185 350.7 156.3 351 145.1 351 134 351.1 138 351.1 143.5 351.1 150.7 351.1 160.4 351.1 164.5 351.1 169.9 351.1 148.4 351.2 152.1 351.2 157.2 351.2 163.9 351.2 172.8 351.3 176.5 351.5 161.6 378.2 150.5 387.8 154.2 429 139.3 437.3 143.1 442.6 148.1 528.5 128.2 783.8 116.1 847.9 120.2 864.2 125.7 872.6 132.9"/><line x1="88" x2="110" y1="102" y2="102" stroke="#16a34a" stroke-width="2.5"/><text x="116" y="106" fill="#374151" font-size="11.5">equity</text><line x1="88" x2="110" y1="118" y2="118" stroke="#d97706" stroke-width="2.5" opacity=".8"/><text x="116" y="122" fill="#374151" font-size="11.5">price</text><text x="78" y="502" fill="#6b7280" font-size="12" text-anchor="start">2025-10-01</text><text x="934" y="502" fill="#6b7280" font-size="12" text-anchor="end">2025-10-31</text></svg>