<svg xmlns="http://www.w3.org/2000/svg" width="1100" height="560" font-family="ui-sans-serif, system-ui, sans-serif" viewBox="0 0 1100 560"><rect width="1100" height="560" fill="#fff"/><text x="80" y="28" fill="#111827" font-size="18" font-weight="700">Zone Recovery — SOLUSDT fee-tier comparison (best setting)</text><text x="80" y="48" fill="#6b7280" font-size="12.5">lev 5 · ratio 3 · gap 20% · maxSteps 4 · maxDD 20% · random · equity per fee tier vip 0..9</text><text x="80" y="68" fill="#1d4ed8" font-size="12.5" font-weight="600">USDT margin · BNB −10%</text><line x1="80" x2="932" y1="508" y2="508" stroke="#e5e7eb" stroke-width="1"/><text x="70" y="512" fill="#6b7280" font-size="12" text-anchor="end">0.00</text><line x1="80" x2="932" y1="424" y2="424" stroke="#e5e7eb" stroke-width="1"/><text x="70" y="428" fill="#6b7280" font-size="12" text-anchor="end">26422582</text><line x1="80" x2="932" y1="340" y2="340" stroke="#e5e7eb" stroke-width="1"/><text x="70" y="344" fill="#6b7280" font-size="12" text-anchor="end">52845164</text><line x1="80" x2="932" y1="256" y2="256" stroke="#e5e7eb" stroke-width="1"/><text x="70" y="260" fill="#6b7280" font-size="12" text-anchor="end">79267746</text><line x1="80" x2="932" y1="172" y2="172" stroke="#e5e7eb" stroke-width="1"/><text x="70" y="176" fill="#6b7280" font-size="12" text-anchor="end">105690328</text><line x1="80" x2="932" y1="88" y2="88" stroke="#e5e7eb" stroke-width="1"/><text x="70" y="92" fill="#6b7280" font-size="12" text-anchor="end">132112910</text><line x1="80" x2="932" y1="190.1" y2="190.1" stroke="#9ca3af" stroke-dasharray="6 4" stroke-width="1.5"/><polyline fill="none" stroke="#2563eb" stroke-linejoin="round" stroke-width="1.8" points="80 190.1 80 176.8 135.8 181.4 153.3 187.4 230.3 195.6 333.1 164 333.5 151.7 333.6 139.4 333.6 144 333.6 150.1 333.6 158.2 333.6 169 333.6 173.6 333.6 179.7 333.6 156 333.7 160.3 333.7 165.9 333.7 173.4 333.8 183.4 333.8 187.6 334.1 171.2 364.8 158.9 375.8 163.2 423 146.8 432.6 151 438.6 156.6 537.2 134.8 830.1 121.5 903.6 126.1 922.3 132.2 932 140.3" opacity=".9"/><polyline fill="none" stroke="#dc2626" stroke-linejoin="round" stroke-width="1.8" points="80 190.1 80 176.8 135.8 181.4 153.3 187.4 230.3 195.6 333.1 164 333.5 151.7 333.6 139.4 333.6 144 333.6 150.1 333.6 158.2 333.6 169 333.6 173.6 333.6 179.7 333.6 156 333.7 160.3 333.7 165.9 333.7 173.4 333.8 183.4 333.8 187.6 334.1 171.2 364.8 158.9 375.8 163.2 423 146.8 432.6 151 438.6 156.6 537.2 134.8 830.1 121.5 903.6 126.1 922.3 132.2 932 140.3" opacity=".9"/><polyline fill="none" stroke="#16a34a" stroke-linejoin="round" stroke-width="1.8" points="80 190.1 80 176.8 135.8 181.3 153.3 187.4 230.3 195.5 333.1 163.8 333.5 151.5 333.6 139.2 333.6 143.8 333.6 149.8 333.6 157.9 333.6 168.7 333.6 173.3 333.6 179.3 333.6 155.6 333.7 159.8 333.7 165.4 333.7 172.9 333.8 182.9 333.8 187.1 334.1 170.7 364.8 158.4 375.8 162.6 423 146.2 432.6 150.4 438.6 156 537.2 134.1 830.1 120.8 903.6 125.3 922.3 131.4 932 139.5" opacity=".9"/><polyline fill="none" stroke="#d97706" stroke-linejoin="round" stroke-width="1.8" points="80 190.1 80 176.7 135.8 181.3 153.3 187.3 230.3 195.4 333.1 163.7 333.5 151.4 333.6 139.1 333.6 143.6 333.6 149.7 333.6 157.7 333.6 168.5 333.6 173 333.6 179 333.6 155.3 333.7 159.5 333.7 165.1 333.7 172.5 333.8 182.5 333.8 186.7 334.1 170.2 364.8 157.9 375.8 162.1 423 145.7 432.6 149.9 438.6 155.4 537.2 133.5 830.1 120.2 903.6 124.7 922.3 130.8 932 138.8" opacity=".9"/><polyline fill="none" stroke="#7c3aed" stroke-linejoin="round" stroke-width="1.8" points="80 190.1 80 176.7 135.8 181.3 153.3 187.3 230.3 195.4 333.1 163.7 333.5 151.4 333.6 139 333.6 143.6 333.6 149.6 333.6 157.7 333.6 168.4 333.6 172.9 333.6 179 333.6 155.2 333.7 159.4 333.7 165 333.7 172.4 333.8 182.4 333.8 186.5 334.1 170.1 364.8 157.8 375.8 162 423 145.6 432.6 149.7 438.6 155.3 537.2 133.4 830.1 120 903.6 124.6 922.3 130.6 932 138.7" opacity=".9"/><polyline fill="none" stroke="#0891b2" stroke-linejoin="round" stroke-width="1.8" points="80 190.1 80 176.7 135.8 181.3 153.3 187.3 230.3 195.3 333.1 163.7 333.5 151.3 333.6 139 333.6 143.5 333.6 149.5 333.6 157.6 333.6 168.3 333.6 172.8 333.6 178.9 333.6 155.1 333.7 159.3 333.7 164.9 333.7 172.3 333.8 182.2 333.8 186.4 334.1 170 364.8 157.6 375.8 161.8 423 145.4 432.6 149.5 438.6 155.1 537.2 133.2 830.1 119.8 903.6 124.4 922.3 130.4 932 138.4" opacity=".9"/><polyline fill="none" stroke="#db2777" stroke-linejoin="round" stroke-width="1.8" points="80 190.1 80 176.7 135.8 181.3 153.3 187.3 230.3 195.3 333.1 163.6 333.5 151.3 333.6 139 333.6 143.5 333.6 149.5 333.6 157.5 333.6 168.3 333.6 172.8 333.6 178.8 333.6 155.1 333.7 159.2 333.7 164.8 333.7 172.2 333.8 182.1 333.8 186.3 334.1 169.8 364.8 157.5 375.8 161.7 423 145.2 432.6 149.4 438.6 155 537.2 133 830.1 119.7 903.6 124.2 922.3 130.2 932 138.3" opacity=".9"/><polyline fill="none" stroke="#65a30d" stroke-linejoin="round" stroke-width="1.8" points="80 190.1 80 176.7 135.8 181.2 153.3 187.3 230.3 195.3 333.1 163.6 333.5 151.2 333.6 138.9 333.6 143.4 333.6 149.4 333.6 157.5 333.6 168.2 333.6 172.7 333.6 178.7 333.6 154.9 333.7 159.1 333.7 164.7 333.7 172.1 333.8 182 333.8 186.1 334.1 169.7 364.8 157.3 375.8 161.5 423 145.1 432.6 149.2 438.6 154.8 537.2 132.8 830.1 119.5 903.6 124 922.3 130 932 138" opacity=".9"/><polyline fill="none" stroke="#475569" stroke-linejoin="round" stroke-width="1.8" points="80 190.1 80 176.7 135.8 181.2 153.3 187.2 230.3 195.3 333.1 163.6 333.5 151.2 333.6 138.9 333.6 143.4 333.6 149.4 333.6 157.4 333.6 168.1 333.6 172.6 333.6 178.6 333.6 154.9 333.7 159 333.7 164.6 333.7 172 333.8 181.8 333.8 186 334.1 169.6 364.8 157.2 375.8 161.4 423 144.9 432.6 149.1 438.6 154.6 537.2 132.7 830.1 119.3 903.6 123.8 922.3 129.9 932 137.9" opacity=".9"/><polyline fill="none" stroke="#ea580c" stroke-linejoin="round" stroke-width="1.8" points="80 190.1 80 176.7 135.8 181.2 153.3 187.2 230.3 195.2 333.1 163.5 333.5 151.2 333.6 138.8 333.6 143.3 333.6 149.3 333.6 157.3 333.6 168 333.6 172.5 333.6 178.5 333.6 154.7 333.7 158.9 333.7 164.4 333.7 171.8 333.8 181.7 333.8 185.9 334.1 169.4 364.8 157 375.8 161.2 423 144.7 432.6 148.9 438.6 154.4 537.2 132.5 830.1 119.1 903.6 123.6 922.3 129.6 932 137.6" opacity=".9"/><line x1="950" x2="972" y1="94" y2="94" stroke="#ea580c" stroke-width="3"/><text x="980" y="98" fill="#374151" font-size="12.5">vip 9 116502176</text><line x1="950" x2="972" y1="116" y2="116" stroke="#475569" stroke-width="3"/><text x="980" y="120" fill="#374151" font-size="12.5">vip 8 116426485</text><line x1="950" x2="972" y1="138" y2="138" stroke="#65a30d" stroke-width="3"/><text x="980" y="142" fill="#374151" font-size="12.5">vip 7 116376025</text><line x1="950" x2="972" y1="160" y2="160" stroke="#db2777" stroke-width="3"/><text x="980" y="164" fill="#374151" font-size="12.5">vip 6 116300334</text><line x1="950" x2="972" y1="182" y2="182" stroke="#0891b2" stroke-width="3"/><text x="980" y="186" fill="#374151" font-size="12.5">vip 5 116249874</text><line x1="950" x2="972" y1="204" y2="204" stroke="#7c3aed" stroke-width="3"/><text x="980" y="208" fill="#374151" font-size="12.5">vip 4 116174183</text><line x1="950" x2="972" y1="226" y2="226" stroke="#d97706" stroke-width="3"/><text x="980" y="230" fill="#374151" font-size="12.5">vip 3 116123723</text><line x1="950" x2="972" y1="248" y2="248" stroke="#16a34a" stroke-width="3"/><text x="980" y="252" fill="#374151" font-size="12.5">vip 2 115921881</text><line x1="950" x2="972" y1="270" y2="270" stroke="#2563eb" stroke-width="3"/><text x="980" y="274" fill="#374151" font-size="12.5">vip 0 115669579</text><line x1="950" x2="972" y1="292" y2="292" stroke="#dc2626" stroke-width="3"/><text x="980" y="296" fill="#374151" font-size="12.5">vip 1 115669579</text><text x="80" y="542" fill="#6b7280" font-size="12" text-anchor="start">2025-10-02</text><text x="932" y="542" fill="#6b7280" font-size="12" text-anchor="end">2025-10-29</text></svg>