<svg xmlns="http://www.w3.org/2000/svg" width="1100" height="560" font-family="ui-sans-serif, system-ui, sans-serif" viewBox="0 0 1100 560"><rect width="1100" height="560" fill="#fff"/><text x="80" y="28" fill="#111827" font-size="18" font-weight="700">Zone Recovery — DOGEUSDC fee-tier comparison (best setting)</text><text x="80" y="48" fill="#6b7280" font-size="12.5">lev 20 · ratio 3 · gap 20% · maxSteps 4 · maxDD 60% · random · equity per fee tier vip 0..9</text><text x="80" y="68" fill="#1d4ed8" font-size="12.5" font-weight="600">USDC margin · BNB −10%</text><line x1="80" x2="932" y1="508" y2="508" stroke="#e5e7eb" stroke-width="1"/><text x="70" y="512" fill="#6b7280" font-size="12" text-anchor="end">0.00</text><line x1="80" x2="932" y1="424" y2="424" stroke="#e5e7eb" stroke-width="1"/><text x="70" y="428" fill="#6b7280" font-size="12" text-anchor="end">54178</text><line x1="80" x2="932" y1="340" y2="340" stroke="#e5e7eb" stroke-width="1"/><text x="70" y="344" fill="#6b7280" font-size="12" text-anchor="end">108357</text><line x1="80" x2="932" y1="256" y2="256" stroke="#e5e7eb" stroke-width="1"/><text x="70" y="260" fill="#6b7280" font-size="12" text-anchor="end">162535</text><line x1="80" x2="932" y1="172" y2="172" stroke="#e5e7eb" stroke-width="1"/><text x="70" y="176" fill="#6b7280" font-size="12" text-anchor="end">216713</text><line x1="80" x2="932" y1="88" y2="88" stroke="#e5e7eb" stroke-width="1"/><text x="70" y="92" fill="#6b7280" font-size="12" text-anchor="end">270892</text><line x1="80" x2="932" y1="492.5" y2="492.5" stroke="#9ca3af" stroke-dasharray="6 4" stroke-width="1.5"/><polyline fill="none" stroke="#2563eb" stroke-linejoin="round" stroke-width="1.8" points="80 492.5 80 488.3 87.8 483 87.9 485.4 87.9 488.8 92.8 493.2 108.7 477.1 108.7 480.2 111 484.3 112 489.7 114.3 497 114.4 494 116.4 490.2 117.3 492 119.3 494.3 119.6 497.5 123 486 123.1 488.2 123.2 491.1 123.8 495 124.3 500.2 129.8 500.9 130.8 502 133.8 498.2 133.8 499.2 153.2 495.6 153.4 496.9 153.5 498.5 153.8 500.7 157.3 492.7 175.2 494.3 175.6 496.3 191.4 499 199.9 502.6 210 501.1 210 501.8 225.5 502.7 225.9 503.9 227.5 499.5 227.5 500.3 233.4 501.4 246.9 497.3 248.2 494.4 271.8 490.7 277.6 486.1 277.7 488.2 278.5 491.1 282.2 495 302.5 500.2 310.4 498.1 310.7 499 311.1 500.4 312.3 502.1 366.3 495.7 371.3 496.9 375 498.6 379.1 492.6 380.3 494.2 385.8 488.6 392.6 490.5 392.7 493.1 419.4 483.8 420 486.2 420.5 489.4 426.8 477.7 429.4 480.7 430.2 469.8 445.4 459.4 450.3 446.2 451.9 452.3 462.4 430 481 408.9 492.9 418.7 493.8 431.8 500.2 449.3 533.5 472.6 570 463 570 467.5 570.8 451.2 570.8 435.8 570.8 443 570.8 452.5 570.8 465.2 570.8 418.8 570.8 427.7 570.8 439.5 570.8 455.2 570.8 476.2 570.8 467.6 587.4 456.6 604.4 461.7 617.8 443.2 624.8 449.6 625 458.2 640.6 469.6 642.8 484.9 645.8 487.1 648.3 490.2 649.3 479.1 662.8 481.9 699.1 471.5 701.4 461.6 702.4 466.2 704.2 472.3 754.5 449.9 756.5 455.7 767.1 463.4 776.7 473.6 782.6 487.3 783.3 489.3 783.9 492.1 787.2 495.7 788.8 500.6 817.1 498.6 823.9 499.5 829.3 500.8 839 502.4 845.1 504.6 852.1 503.7 866.6 502.6 870.7 501.1 879 501.8 879.2 502.7 879.8 503.9 880.1 505.5 884.4 505.8 890.8 506.1 892.7 506.5 892.8 507.1 898.4 507.2 898.5 507.3 899.5 506.9 900.4 507 912.4 506.6 913.8 506.8 921.6 506.3 921.6 506.4 921.7 505.8 922.4 505.2 923.4 505.5 923.9 505.8 924.1 506.3 924.8 504.5 924.8 504.9 924.8 503.6 924.9 502.4 926.6 500.9 926.6 499 926.6 499.9 926.6 501.1 926.6 502.7 926.6 504.8 926.6 505.1 926.6 504 926.6 504.4 926.6 504.9 926.7 505.6 932 503" opacity=".9"/><polyline fill="none" stroke="#dc2626" stroke-linejoin="round" stroke-width="1.8" points="80 492.5 80 488.3 87.8 483 87.9 485.4 87.9 488.8 92.8 493.2 108.7 477.1 108.7 480.2 111 484.3 112 489.7 114.3 497 114.4 494 116.4 490.2 117.3 492 119.3 494.3 119.6 497.5 123 486 123.1 488.2 123.2 491.1 123.8 495 124.3 500.2 129.8 500.9 130.8 502 133.8 498.2 133.8 499.2 153.2 495.6 153.4 496.9 153.5 498.5 153.8 500.7 157.3 492.7 175.2 494.3 175.6 496.3 191.4 499 199.9 502.6 210 501.1 210 501.8 225.5 502.7 225.9 503.9 227.5 499.5 227.5 500.3 233.4 501.4 246.9 497.3 248.2 494.4 271.8 490.7 277.6 486.1 277.7 488.2 278.5 491.1 282.2 495 302.5 500.2 310.4 498.1 310.7 499 311.1 500.4 312.3 502.1 366.3 495.7 371.3 496.9 375 498.6 379.1 492.6 380.3 494.2 385.8 488.6 392.6 490.5 392.7 493.1 419.4 483.8 420 486.2 420.5 489.4 426.8 477.7 429.4 480.7 430.2 469.8 445.4 459.4 450.3 446.2 451.9 452.3 462.4 430 481 408.9 492.9 418.7 493.8 431.8 500.2 449.3 533.5 472.6 570 463 570 467.5 570.8 451.2 570.8 435.8 570.8 443 570.8 452.5 570.8 465.2 570.8 418.8 570.8 427.7 570.8 439.5 570.8 455.2 570.8 476.2 570.8 467.6 587.4 456.6 604.4 461.7 617.8 443.2 624.8 449.6 625 458.2 640.6 469.6 642.8 484.9 645.8 487.1 648.3 490.2 649.3 479.1 662.8 481.9 699.1 471.5 701.4 461.6 702.4 466.2 704.2 472.3 754.5 449.9 756.5 455.7 767.1 463.4 776.7 473.6 782.6 487.3 783.3 489.3 783.9 492.1 787.2 495.7 788.8 500.6 817.1 498.6 823.9 499.5 829.3 500.8 839 502.4 845.1 504.6 852.1 503.7 866.6 502.6 870.7 501.1 879 501.8 879.2 502.7 879.8 503.9 880.1 505.5 884.4 505.8 890.8 506.1 892.7 506.5 892.8 507.1 898.4 507.2 898.5 507.3 899.5 506.9 900.4 507 912.4 506.6 913.8 506.8 921.6 506.3 921.6 506.4 921.7 505.8 922.4 505.2 923.4 505.5 923.9 505.8 924.1 506.3 924.8 504.5 924.8 504.9 924.8 503.6 924.9 502.4 926.6 500.9 926.6 499 926.6 499.9 926.6 501.1 926.6 502.7 926.6 504.8 926.6 505.1 926.6 504 926.6 504.4 926.6 504.9 926.7 505.6 932 503" opacity=".9"/><polyline fill="none" stroke="#16a34a" stroke-linejoin="round" stroke-width="1.8" points="80 492.5 80 488.3 87.8 482.9 87.9 485.4 87.9 488.6 92.8 493 108.7 476.8 108.7 479.9 111 483.9 112 489.4 114.3 496.6 114.4 493.5 116.4 489.6 117.3 491.4 119.3 493.8 119.6 497 123 485.1 123.1 487.3 123.2 490.3 123.8 494.3 124.3 499.6 129.8 500.4 130.8 501.5 133.8 497.5 133.8 498.5 153.2 494.7 153.4 496 153.5 497.7 153.8 500.1 157.3 491.5 175.2 493.1 175.6 495.2 191.4 498.1 199.9 502 210 500.3 210 501.1 225.5 502.1 225.9 503.4 227.5 498.4 227.5 499.4 233.4 500.6 246.9 496 248.2 492.7 271.8 488.6 277.6 483.3 277.7 485.7 278.5 488.9 282.2 493.2 302.5 499 310.4 496.5 310.7 497.6 311.1 499.1 312.3 501.1 366.3 493.7 371.3 495.1 375 497 379.1 490 380.3 491.8 385.8 485.3 392.6 487.5 392.7 490.5 419.4 479.5 420 482.3 420.5 486 426.8 472.2 429.4 475.7 430.2 462.7 445.4 450.3 450.3 434.6 451.9 441.8 462.4 415.2 481 389.9 492.9 401.4 493.8 416.8 500.2 437.4 533.5 464.8 570 453 570 458.4 570.8 438.4 570.8 419.5 570.8 428.2 570.8 439.7 570.8 455.1 570.8 397.9 570.8 408.7 570.8 423.1 570.8 442.3 570.8 467.8 570.8 456.9 587.4 442.9 604.4 449.3 617.8 425.6 624.8 433.7 625 444.5 640.6 458.8 642.8 477.9 645.8 480.8 648.3 484.8 649.3 470.2 662.8 473.9 699.1 460.2 701.4 447.1 702.4 453.1 704.2 461 754.5 431.6 756.5 439 767.1 449 776.7 462.3 782.6 480 783.3 482.8 783.9 486.4 787.2 491.3 788.8 497.8 817.1 495 823.9 496.3 829.3 498 839 500.2 845.1 503.3 852.1 502 866.6 500.3 870.7 498.2 879 499.2 879.2 500.4 879.8 502.2 880.1 504.4 884.4 504.8 890.8 505.2 892.7 505.9 892.8 506.7 898.4 506.8 898.5 507 899.5 506.4 900.4 506.5 912.4 505.9 913.8 506.1 921.6 505.4 921.6 505.6 921.7 504.7 922.4 503.8 923.4 504.2 923.9 504.7 924.1 505.5 924.8 502.7 924.8 503.2 924.8 501.3 924.9 499.5 926.6 497.2 926.6 494.3 926.6 495.6 926.6 497.4 926.6 499.8 926.6 503 926.6 503.5 926.6 501.7 926.6 502.3 926.6 503.1 926.7 504.2 932 500.1" opacity=".9"/><polyline fill="none" stroke="#d97706" stroke-linejoin="round" stroke-width="1.8" points="80 492.5 80 488.3 87.8 482.9 87.9 485.3 87.9 488.5 92.8 492.9 108.7 476.6 108.7 479.6 111 483.7 112 489.1 114.3 496.3 114.4 493.1 116.4 489 117.3 490.9 119.3 493.3 119.6 496.6 123 484.3 123.1 486.6 123.2 489.7 123.8 493.7 124.3 499.2 129.8 500 130.8 501.2 133.8 496.9 133.8 498 153.2 493.9 153.4 495.3 153.5 497.1 153.8 499.5 157.3 490.4 175.2 492.1 175.6 494.4 191.4 497.4 199.9 501.4 210 499.6 210 500.5 225.5 501.5 225.9 503 227.5 497.6 227.5 498.6 233.4 499.9 246.9 494.8 248.2 491.2 271.8 486.7 277.6 480.8 277.7 483.4 278.5 487 282.2 491.6 302.5 497.9 310.4 495.1 310.7 496.4 311.1 498 312.3 500.2 366.3 491.9 371.3 493.4 375 495.5 379.1 487.7 380.3 489.7 385.8 482.3 392.6 484.8 392.7 488.1 419.4 475.6 420 478.7 420.5 482.9 426.8 467.1 429.4 471.1 430.2 456.2 445.4 442 450.3 424 451.9 432.1 462.4 401.5 481 372.3 492.9 385.5 493.8 403 500.2 426.3 533.5 457.5 570 443.6 570 449.9 570.8 426.4 570.8 404.1 570.8 414.1 570.8 427.6 570.8 445.4 570.8 378.1 570.8 390.6 570.8 407.4 570.8 429.8 570.8 459.6 570.8 446.4 587.4 429.6 604.4 437.2 617.8 408.6 624.8 418.2 625 431 640.6 448.1 642.8 471 645.8 474.5 648.3 479.3 649.3 461.3 662.8 465.8 699.1 448.8 701.4 432.6 702.4 439.9 704.2 449.7 754.5 413 756.5 422.2 767.1 434.5 776.7 450.8 782.6 472.6 783.3 476.1 783.9 480.6 787.2 486.7 788.8 494.8 817.1 491.2 823.9 492.9 829.3 495 839 497.9 845.1 501.8 852.1 500 866.6 497.9 870.7 495.1 879 496.3 879.2 498 879.8 500.2 880.1 503.2 884.4 503.7 890.8 504.3 892.7 505.1 892.8 506.2 898.4 506.4 898.5 506.6 899.5 505.7 900.4 506 912.4 505.1 913.8 505.4 921.6 504.4 921.6 504.7 921.7 503.4 922.4 502.1 923.4 502.7 923.9 503.5 924.1 504.5 924.8 500.7 924.8 501.4 924.8 498.7 924.9 496.2 926.6 492.9 926.6 488.8 926.6 490.7 926.6 493.2 926.6 496.5 926.6 500.9 926.6 501.6 926.6 499 926.6 499.8 926.6 501 926.7 502.6 932 496.7" opacity=".9"/><polyline fill="none" stroke="#7c3aed" stroke-linejoin="round" stroke-width="1.8" points="80 492.5 80 488.2 87.8 482.8 87.9 485.2 87.9 488.4 92.8 492.7 108.7 476.3 108.7 479.3 111 483.3 112 488.7 114.3 495.9 114.4 492.5 116.4 488.3 117.3 490.2 119.3 492.7 119.6 496 123 483.2 123.1 485.5 123.2 488.7 123.8 492.9 124.3 498.5 129.8 499.4 130.8 500.6 133.8 496 133.8 497.1 153.2 492.7 153.4 494.2 153.5 496.1 153.8 498.7 157.3 488.8 175.2 490.6 175.6 493 191.4 496.3 199.9 500.6 210 498.6 210 499.5 225.5 500.7 225.9 502.3 227.5 496.2 227.5 497.3 233.4 498.8 246.9 493 248.2 488.9 271.8 483.7 277.6 477 277.7 479.9 278.5 483.9 282.2 489.1 302.5 496.1 310.4 492.9 310.7 494.3 311.1 496.2 312.3 498.8 366.3 489 371.3 490.8 375 493.2 379.1 483.9 380.3 486.2 385.8 477.3 392.6 480.3 392.7 484.2 419.4 469.2 420 472.9 420.5 477.8 426.8 458.8 429.4 463.5 430.2 445.5 445.4 428.3 450.3 406.4 451.9 416.1 462.4 378.8 481 343.3 492.9 356.9 493.8 375 500.2 399.2 533.5 431.5 570 410.4 570 419.7 570.8 384 570.8 349.8 570.8 363.4 570.8 381.6 570.8 405.8 570.8 312.7 570.8 326.1 570.8 343.8 570.8 367.5 570.8 399.2 570.8 369.2 587.4 331.1 604.4 344.7 617.8 292.4 624.8 306 625 324.1 640.6 348.3 642.8 380.5 645.8 392.7 648.3 408.9 649.3 346.6 662.8 360.2 699.1 307.8 701.4 268.6 702.4 281.9 704.2 299.7 754.5 231.3 756.5 244.9 767.1 263.1 776.7 287.2 782.6 319.5 783.3 332.8 783.9 350.6 787.2 374.3 788.8 405.9 817.1 377.9 823.9 390.3 829.3 406.8 839 428.9 845.1 458.3 852.1 444.6 866.6 427.1 870.7 404.9 879 414.7 879.2 427.8 879.8 445.3 880.1 468.6 884.4 472.3 890.8 477.4 892.7 484 892.8 492.9 898.4 494.4 898.5 496.3 899.5 488.9 900.4 490.7 912.4 483.7 913.8 486.1 921.6 477.2 921.6 480.1 921.7 468.8 922.4 458 923.4 462.8 923.9 469.1 924.1 477.6 924.8 445 924.8 451 924.8 427.9 924.9 405.9 926.6 377.8 926.6 342 926.6 355.4 926.6 373.1 926.6 396.9 926.6 428.5 926.6 436.1 926.6 406.9 926.6 416.6 926.6 429.4 926.7 446.5 932 380.7" opacity=".9"/><polyline fill="none" stroke="#0891b2" stroke-linejoin="round" stroke-width="1.8" points="80 492.5 80 488.2 87.8 482.8 87.9 485.2 87.9 488.4 92.8 492.6 108.7 476.2 108.7 479.2 111 483.3 112 488.6 114.3 495.8 114.4 492.4 116.4 488.2 117.3 490 119.3 492.6 119.6 495.9 123 483 123.1 485.3 123.2 488.5 123.8 492.7 124.3 498.4 129.8 499.3 130.8 500.5 133.8 495.8 133.8 497 153.2 492.5 153.4 494 153.5 495.9 153.8 498.6 157.3 488.5 175.2 490.3 175.6 492.8 191.4 496.1 199.9 500.5 210 498.4 210 499.3 225.5 500.6 225.9 502.2 227.5 495.9 227.5 497.1 233.4 498.6 246.9 492.7 248.2 488.5 271.8 483.1 277.6 476.3 277.7 479.3 278.5 483.3 282.2 488.7 302.5 495.8 310.4 492.5 310.7 493.9 311.1 495.9 312.3 498.5 366.3 488.4 371.3 490.3 375 492.7 379.1 483.2 380.3 485.5 385.8 476.4 392.6 479.4 392.7 483.4 419.4 467.9 420 471.7 420.5 476.8 426.8 457.2 429.4 462.1 430.2 443.4 445.4 425.6 450.3 403 451.9 413 462.4 374.4 481 337.6 492.9 351.2 493.8 369.3 500.2 393.4 533.5 425.6 570 402.9 570 412.9 570.8 374.3 570.8 337.5 570.8 351.1 570.8 369.1 570.8 393.3 570.8 300.1 570.8 313.4 570.8 331.2 570.8 354.8 570.8 386.3 570.8 352.8 587.4 313.6 604.4 327.1 617.8 274.7 624.8 288.3 625 306.4 640.6 330.5 642.8 362.7 645.8 376.2 648.3 394.3 649.3 324.5 662.8 338.1 699.1 285.7 701.4 246.4 702.4 259.7 704.2 277.4 754.5 208.9 756.5 222.5 767.1 240.6 776.7 264.7 782.6 296.9 783.3 310.2 783.9 327.9 787.2 351.6 788.8 383.1 817.1 348.7 823.9 362.3 829.3 380.4 839 404.5 845.1 436.6 852.1 417 866.6 392 870.7 360 879 373.6 879.2 391.7 879.8 415.8 880.1 447.9 884.4 453.6 890.8 461.3 892.7 471.4 892.8 484.9 898.4 487.1 898.5 490.1 899.5 478.8 900.4 481.5 912.4 470.8 913.8 474.4 921.6 460.7 921.6 465.2 921.7 447.8 922.4 431.3 923.4 438.6 923.9 448.3 924.1 461.3 924.8 411.2 924.8 420.4 924.8 384.9 924.9 351 926.6 312.5 926.6 273.9 926.6 287.2 926.6 305 926.6 328.6 926.6 360.2 926.6 373.5 926.6 322.1 926.6 335.4 926.6 353.2 926.7 376.8 932 285.5" opacity=".9"/><polyline fill="none" stroke="#db2777" stroke-linejoin="round" stroke-width="1.8" points="80 492.5 80 488.2 87.8 482.8 87.9 485.2 87.9 488.4 92.8 492.6 108.7 476.2 108.7 479.2 111 483.2 112 488.6 114.3 495.7 114.4 492.4 116.4 488.1 117.3 489.9 119.3 492.5 119.6 495.8 123 482.8 123.1 485.2 123.2 488.4 123.8 492.6 124.3 498.3 129.8 499.2 130.8 500.5 133.8 495.7 133.8 496.9 153.2 492.4 153.4 493.8 153.5 495.8 153.8 498.5 157.3 488.2 175.2 490.1 175.6 492.6 191.4 496 199.9 500.4 210 498.3 210 499.2 225.5 500.4 225.9 502.1 227.5 495.7 227.5 496.9 233.4 498.5 246.9 492.5 248.2 488.2 271.8 482.7 277.6 475.8 277.7 478.8 278.5 482.9 282.2 488.3 302.5 495.6 310.4 492.2 310.7 493.7 311.1 495.7 312.3 498.3 366.3 488 371.3 489.9 375 492.4 379.1 482.6 380.3 485 385.8 475.7 392.6 478.8 392.7 482.9 419.4 467.1 420 471 420.5 476.1 426.8 456.1 429.4 461 430.2 442 445.4 423.8 450.3 400.6 451.9 410.8 462.4 371.3 481 333.7 492.9 347.2 493.8 365.2 500.2 389.3 533.5 421.4 570 397.6 570 408 570.8 367.5 570.8 328.9 570.8 342.5 570.8 360.5 570.8 384.6 570.8 291.4 570.8 304.7 570.8 322.4 570.8 346 570.8 377.4 570.8 341.5 587.4 302.2 604.4 315.7 617.8 263.3 624.8 276.8 625 294.9 640.6 319 642.8 351.1 645.8 364.6 648.3 382.7 649.3 312.8 662.8 326.3 699.1 273.9 701.4 234.6 702.4 247.8 704.2 265.5 754.5 197 756.5 210.6 767.1 228.6 776.7 252.7 782.6 284.8 783.3 298.1 783.9 315.8 787.2 339.4 788.8 370.8 817.1 333.1 823.9 346.6 829.3 364.7 839 388.7 845.1 420.8 852.1 396.8 866.6 366.2 870.7 327.7 879 341.2 879.2 359.3 879.8 383.3 880.1 415.4 884.4 424.2 890.8 435.9 892.7 451.5 892.8 472.3 898.4 475.7 898.5 480.2 899.5 462.8 900.4 467.1 912.4 450.5 913.8 455.9 921.6 434.8 921.6 441.7 921.7 414.8 922.4 389.2 923.4 400.5 923.9 415.5 924.1 435.5 924.8 357.9 924.8 371.5 924.8 319 924.9 279.7 926.6 241.2 926.6 202.7 926.6 215.9 926.6 233.6 926.6 257.2 926.6 288.7 926.6 302 926.6 250.6 926.6 263.9 926.6 281.6 926.7 305.2 932 213.9" opacity=".9"/><polyline fill="none" stroke="#65a30d" stroke-linejoin="round" stroke-width="1.8" points="80 492.5 80 488.2 87.8 482.8 87.9 485.2 87.9 488.3 92.8 492.6 108.7 476.1 108.7 479.1 111 483.1 112 488.5 114.3 495.7 114.4 492.3 116.4 487.9 117.3 489.8 119.3 492.3 119.6 495.7 123 482.6 123.1 485 123.2 488.2 123.8 492.5 124.3 498.2 129.8 499.1 130.8 500.3 133.8 495.5 133.8 496.7 153.2 492.1 153.4 493.6 153.5 495.6 153.8 498.3 157.3 487.9 175.2 489.8 175.6 492.4 191.4 495.7 199.9 500.2 210 498.1 210 499 225.5 500.3 225.9 501.9 227.5 495.5 227.5 496.6 233.4 498.2 246.9 492.1 248.2 487.7 271.8 482.1 277.6 475 277.7 478.1 278.5 482.3 282.2 487.8 302.5 495.2 310.4 491.7 310.7 493.2 311.1 495.3 312.3 498 366.3 487.4 371.3 489.3 375 491.9 379.1 481.8 380.3 484.3 385.8 474.7 392.6 477.8 392.7 482 419.4 465.7 420 469.7 420.5 475 426.8 454.3 429.4 459.4 430.2 439.6 445.4 420.8 450.3 396.7 451.9 407.3 462.4 366.4 481 327.8 492.9 341.3 493.8 359.3 500.2 383.3 533.5 415.3 570 389.7 570 400.9 570.8 357.4 570.8 318.9 570.8 332.4 570.8 350.4 570.8 374.4 570.8 281.1 570.8 294.3 570.8 311.9 570.8 335.5 570.8 366.8 570.8 327.9 587.4 288.6 604.4 302.1 617.8 249.6 624.8 263.1 625 281.1 640.6 305.1 642.8 337.1 645.8 350.6 648.3 368.6 649.3 298.6 662.8 312.1 699.1 259.7 701.4 220.3 702.4 233.5 704.2 251.2 754.5 182.6 756.5 196.1 767.1 214.1 776.7 238.1 782.6 270.1 783.3 283.3 783.9 301 787.2 324.5 788.8 355.9 817.1 316.5 823.9 330 829.3 348 839 372 845.1 404.1 852.1 375.4 866.6 338.8 870.7 300.2 879 313.7 879.2 331.7 879.8 355.7 880.1 387.7 884.4 399.1 890.8 414.3 892.7 434.5 892.8 461.5 898.4 465.9 898.5 471.7 899.5 448.9 900.4 454.5 912.4 432.8 913.8 439.9 921.6 412.3 921.6 421.3 921.7 386.1 922.4 352.5 923.4 366 923.9 384 924.1 408 924.8 314.7 924.8 328.2 924.8 275.7 924.9 236.4 926.6 197.8 926.6 159.2 926.6 172.5 926.6 190.1 926.6 213.6 926.6 245 926.6 258.2 926.6 206.8 926.6 220.1 926.6 237.7 926.7 261.2 932 169.8" opacity=".9"/><polyline fill="none" stroke="#475569" stroke-linejoin="round" stroke-width="1.8" points="80 492.5 80 488.2 87.8 482.8 87.9 485.1 87.9 488.3 92.8 492.6 108.7 476.1 108.7 479.1 111 483.1 112 488.5 114.3 495.6 114.4 492.2 116.4 487.8 117.3 489.7 119.3 492.3 119.6 495.7 123 482.5 123.1 484.9 123.2 488.1 123.8 492.4 124.3 498.1 129.8 499 130.8 500.3 133.8 495.4 133.8 496.6 153.2 492 153.4 493.5 153.5 495.5 153.8 498.2 157.3 487.7 175.2 489.6 175.6 492.2 191.4 495.6 199.9 500.1 210 498 210 498.9 225.5 500.2 225.9 501.9 227.5 495.3 227.5 496.5 233.4 498.1 246.9 491.8 248.2 487.4 271.8 481.7 277.6 474.4 277.7 477.6 278.5 481.8 282.2 487.5 302.5 495 310.4 491.4 310.7 493 311.1 495 312.3 497.8 366.3 487 371.3 488.9 375 491.6 379.1 481.3 380.3 483.8 385.8 474 392.6 477.2 392.7 481.5 419.4 464.8 420 468.9 420.5 474.3 426.8 453.1 429.4 458.3 430.2 438.1 445.4 418.8 450.3 394.2 451.9 405 462.4 363.1 481 324.5 492.9 338 493.8 355.9 500.2 379.9 533.5 411.8 570 385.3 570 396.9 570.8 351.7 570.8 313.1 570.8 326.6 570.8 344.5 570.8 368.5 570.8 275.1 570.8 288.3 570.8 306 570.8 329.4 570.8 360.8 570.8 321.4 587.4 282 604.4 295.5 617.8 243 624.8 256.4 625 274.4 640.6 298.4 642.8 330.3 645.8 343.8 648.3 361.7 649.3 291.7 662.8 305.2 699.1 252.7 701.4 213.3 702.4 226.5 704.2 244.1 754.5 175.5 756.5 189 767.1 207 776.7 230.9 782.6 262.8 783.3 276.1 783.9 293.7 787.2 317.2 788.8 348.5 817.1 309.1 823.9 322.6 829.3 340.5 839 364.5 845.1 396.4 852.1 365.6 866.6 327 870.7 288.4 879 301.9 879.2 319.9 879.8 343.8 880.1 375.8 884.4 388.2 890.8 404.9 892.7 427.1 892.8 456.7 898.4 461.5 898.5 468 899.5 442.8 900.4 449 912.4 425 913.8 432.8 921.6 402.3 921.6 412.2 921.7 373.3 922.4 336.2 923.4 349.7 923.9 367.6 924.1 391.6 924.8 298.2 924.8 311.7 924.8 259.2 924.9 219.8 926.6 181.2 926.6 142.6 926.6 155.8 926.6 173.4 926.6 196.9 926.6 228.2 926.6 241.4 926.6 190 926.6 203.2 926.6 220.8 926.7 244.3 932 152.8" opacity=".9"/><polyline fill="none" stroke="#ea580c" stroke-linejoin="round" stroke-width="1.8" points="80 492.5 80 488.2 87.8 482.8 87.9 485.1 87.9 488.3 92.8 492.5 108.7 476 108.7 479 111 483 112 488.4 114.3 495.5 114.4 492.1 116.4 487.7 117.3 489.6 119.3 492.1 119.6 495.5 123 482.3 123.1 484.7 123.2 487.9 123.8 492.2 124.3 498 129.8 498.9 130.8 500.2 133.8 495.2 133.8 496.4 153.2 491.7 153.4 493.3 153.5 495.3 153.8 498 157.3 487.4 175.2 489.3 175.6 491.9 191.4 495.4 199.9 500 210 497.7 210 498.7 225.5 500 225.9 501.7 227.5 495 227.5 496.2 233.4 497.9 246.9 491.5 248.2 486.9 271.8 481.1 277.6 473.7 277.7 476.9 278.5 481.2 282.2 487 302.5 494.6 310.4 490.9 310.7 492.5 311.1 494.7 312.3 497.5 366.3 486.3 371.3 488.4 375 491.1 379.1 480.5 380.3 483.1 385.8 472.9 392.6 476.2 392.7 480.6 419.4 463.4 420 467.6 420.5 473.2 426.8 451.3 429.4 456.7 430.2 435.8 445.4 415.9 450.3 390.4 451.9 401.5 462.4 358.2 481 319.5 492.9 333 493.8 350.9 500.2 374.8 533.5 406.6 570 378.6 570 390.8 570.8 343.2 570.8 304.5 570.8 318 570.8 335.9 570.8 359.8 570.8 266.3 570.8 279.5 570.8 297.1 570.8 320.5 570.8 351.7 570.8 312.3 587.4 272.9 604.4 286.3 617.8 233.7 624.8 247.2 625 265.1 640.6 289 642.8 320.8 645.8 334.3 648.3 352.2 649.3 282.1 662.8 295.6 699.1 243 701.4 203.6 702.4 216.7 704.2 234.3 754.5 165.6 756.5 179.1 767.1 197 776.7 220.9 782.6 252.7 783.3 265.9 783.9 283.4 787.2 306.9 788.8 338.1 817.1 298.7 823.9 312.1 829.3 330 839 353.9 845.1 385.8 852.1 352 866.6 313.4 870.7 274.7 879 288.1 879.2 306.1 879.8 329.9 880.1 361.8 884.4 375.2 890.8 393.1 892.7 417 892.8 448.9 898.4 454.4 898.5 461.9 899.5 432.9 900.4 439.9 912.4 412.3 913.8 421.3 921.6 386 921.6 397.5 921.7 352.6 922.4 313.1 923.4 326.6 923.9 344.5 924.1 368.4 924.8 274.9 924.8 288.4 924.8 235.8 924.9 196.4 926.6 157.8 926.6 119.1 926.6 132.3 926.6 149.8 926.6 173.3 926.6 204.5 926.6 217.7 926.6 166.2 926.6 179.3 926.6 196.9 926.7 220.3 932 128.7" opacity=".9"/><line x1="950" x2="972" y1="94" y2="94" stroke="#ea580c" stroke-width="3"/><text x="980" y="98" fill="#374151" font-size="12.5">vip 9 244620</text><line x1="950" x2="972" y1="116" y2="116" stroke="#475569" stroke-width="3"/><text x="980" y="120" fill="#374151" font-size="12.5">vip 8 229100</text><line x1="950" x2="972" y1="138" y2="138" stroke="#65a30d" stroke-width="3"/><text x="980" y="142" fill="#374151" font-size="12.5">vip 7 218125</text><line x1="950" x2="972" y1="160" y2="160" stroke="#db2777" stroke-width="3"/><text x="980" y="164" fill="#374151" font-size="12.5">vip 6 189715</text><line x1="950" x2="972" y1="182" y2="182" stroke="#0891b2" stroke-width="3"/><text x="980" y="186" fill="#374151" font-size="12.5">vip 5 143479</text><line x1="950" x2="972" y1="204" y2="204" stroke="#7c3aed" stroke-width="3"/><text x="980" y="208" fill="#374151" font-size="12.5">vip 4 82128</text><line x1="950" x2="972" y1="226" y2="226" stroke="#d97706" stroke-width="3"/><text x="980" y="230" fill="#374151" font-size="12.5">vip 3 7289</text><line x1="950" x2="972" y1="248" y2="248" stroke="#16a34a" stroke-width="3"/><text x="980" y="252" fill="#374151" font-size="12.5">vip 2 5085</text><line x1="950" x2="972" y1="270" y2="270" stroke="#2563eb" stroke-width="3"/><text x="980" y="274" fill="#374151" font-size="12.5">vip 0 3219</text><line x1="950" x2="972" y1="292" y2="292" stroke="#dc2626" stroke-width="3"/><text x="980" y="296" fill="#374151" font-size="12.5">vip 1 3219</text><text x="80" y="542" fill="#6b7280" font-size="12" text-anchor="start">2026-01-01</text><text x="932" y="542" fill="#6b7280" font-size="12" text-anchor="end">2026-01-31</text></svg>