<?xml version="1.0" encoding="UTF-8"?>
<svg xmlns="http://www.w3.org/2000/svg" width="1000" height="520" viewBox="0 0 1000 520" font-family="ui-sans-serif, system-ui, sans-serif">
  <rect width="1000" height="520" fill="#ffffff"/>
  <text x="78" y="28" font-size="18" font-weight="700" fill="#111827">Zone Recovery — NEARUSDC best setting (equity / PnL)</text>
  <text x="78" y="48" font-size="12.5" fill="#6b7280">lev 15 · ratio 4 · gap 20% · maxSteps 4 · maxDD 60% · random · vip 9  ·  28 series, 82.1% win · vol $63282509 ($2041373/day) · fees $5354</text>
  <text x="78" y="68" font-size="12.5" font-weight="600" fill="#1d4ed8">USDC · BNB −10% · taker 0.0085%</text>
  <text x="934" y="28" text-anchor="end" font-size="18" font-weight="700" fill="#16a34a">+236307 USDT  (+2363.07%)</text>
  <line x1="78" y1="468.0" x2="934" y2="468.0" stroke="#e5e7eb" stroke-width="1"/><text x="68" y="472.0" text-anchor="end" font-size="12" fill="#6b7280">0.00</text><line x1="78" y1="392.0" x2="934" y2="392.0" stroke="#e5e7eb" stroke-width="1"/><text x="68" y="396.0" text-anchor="end" font-size="12" fill="#6b7280">53202</text><line x1="78" y1="316.0" x2="934" y2="316.0" stroke="#e5e7eb" stroke-width="1"/><text x="68" y="320.0" text-anchor="end" font-size="12" fill="#6b7280">106405</text><line x1="78" y1="240.0" x2="934" y2="240.0" stroke="#e5e7eb" stroke-width="1"/><text x="68" y="244.0" text-anchor="end" font-size="12" fill="#6b7280">159607</text><line x1="78" y1="164.0" x2="934" y2="164.0" stroke="#e5e7eb" stroke-width="1"/><text x="68" y="168.0" text-anchor="end" font-size="12" fill="#6b7280">212809</text><line x1="78" y1="88.0" x2="934" y2="88.0" stroke="#e5e7eb" stroke-width="1"/><text x="68" y="92.0" text-anchor="end" font-size="12" fill="#6b7280">266012</text>
  <line x1="78" y1="453.7" x2="934" y2="453.7" stroke="#9ca3af" stroke-width="1.5" stroke-dasharray="6 4"/><text x="934" y="447.7" text-anchor="end" font-size="11" fill="#6b7280">start 10000</text>
  <polyline points="78.0,270.1 78.5,264.8 79.1,268.0 79.6,266.8 80.5,271.3 81.5,271.7 82.3,270.1 83.1,274.9 83.8,272.1 84.3,271.3 84.9,270.1 85.7,272.1 86.5,271.3 87.2,270.5 87.9,268.4 88.6,266.0 89.0,265.2 89.5,266.4 90.0,266.8 90.9,267.6 91.5,264.4 91.9,263.6 92.4,266.0 93.0,264.8 93.6,261.1 93.9,255.4 94.1,255.8 94.3,254.2 94.5,256.6 94.8,253.8 95.1,248.9 95.3,253.4 95.6,251.8 95.9,248.5 96.1,243.6 96.2,243.6 96.3,247.3 96.5,241.2 96.6,242.8 96.8,244.8 97.0,240.0 97.2,240.8 97.4,242.4 97.8,240.8 98.0,239.5 98.3,240.8 98.6,239.5 98.9,235.9 99.2,235.5 99.7,235.9 100.1,235.9 100.6,234.3 100.9,231.8 101.1,230.2 101.4,231.0 101.8,233.8 102.0,230.2 102.4,231.4 102.9,230.2 103.3,226.9 103.4,221.2 103.7,229.0 104.1,231.4 104.4,223.7 104.7,224.9 104.9,222.5 105.2,223.7 105.6,223.3 105.8,222.9 106.2,221.2 106.4,222.9 106.7,224.5 107.1,218.8 107.3,216.3 107.7,215.9 108.0,219.6 108.4,218.0 108.6,218.4 108.9,215.9 109.2,215.1 109.5,213.9 109.8,213.9 110.0,212.3 110.2,212.7 110.5,213.1 110.8,216.8 111.5,216.8 112.0,216.8 112.2,215.9 112.4,216.3 112.9,217.2 113.4,215.9 114.0,218.8 114.4,222.0 114.8,223.3 115.3,220.0 115.8,221.6 116.2,216.8 116.5,218.4 116.9,213.5 116.9,212.3 117.1,211.5 117.3,211.1 117.6,213.5 117.8,215.5 118.2,214.3 118.5,218.4 119.0,218.8 119.2,221.6 119.6,220.0 120.1,218.4 120.2,218.0 120.4,217.6 120.6,218.4 121.0,216.3 121.3,218.8 121.7,218.0 122.1,220.8 122.2,225.3 122.3,226.5 122.4,226.5 122.5,218.4 122.6,220.0 122.7,217.2 122.7,218.0 122.9,218.0 123.1,222.9 123.2,223.3 123.4,221.2 123.6,218.4 123.7,215.9 123.9,218.4 124.1,218.8 124.2,218.8 124.4,214.7 124.5,216.3 124.7,213.1 124.7,211.9 124.9,217.2 125.1,211.9 125.2,208.6 125.5,210.7 125.7,211.9 126.0,210.7 126.3,208.6 126.5,205.4 126.7,204.1 127.0,208.6 127.3,209.8 127.6,204.1 127.8,203.7 127.9,200.5 128.2,199.3 128.6,198.9 128.9,199.3 129.2,200.9 129.6,203.3 130.1,203.3 130.5,200.5 130.8,200.5 131.0,195.6 131.2,201.7 131.6,200.5 132.0,198.4 132.3,198.4 132.9,199.7 133.4,197.2 133.7,197.2 134.1,193.6 134.3,192.7 134.5,196.4 134.9,198.9 135.3,196.8 135.7,197.6 136.1,195.6 136.5,194.4 137.0,197.6 137.4,195.2 137.6,190.3 137.9,190.7 138.3,194.0 138.8,194.4 139.4,192.3 140.0,195.2 140.3,187.9 140.5,189.1 140.9,194.8 141.1,196.8 141.5,199.7 141.6,205.0 141.7,208.6 141.9,209.0 142.0,205.8 142.3,205.8 142.7,206.2 143.0,205.8 143.1,204.1 143.5,203.7 143.9,209.4 144.3,205.4 144.6,206.2 145.2,208.2 145.9,207.0 146.3,203.3 147.1,205.0 147.6,198.4 148.0,196.8 148.6,195.6 148.8,194.4 149.5,195.6 149.9,194.8 150.4,198.0 151.2,197.6 151.7,200.5 152.1,196.4 152.3,193.6 152.5,191.5 152.9,191.5 153.3,193.2 154.0,194.0 154.5,191.9 155.0,191.5 155.8,190.7 156.6,195.6 157.3,193.2 158.0,189.5 158.7,193.6 159.4,189.1 160.0,189.9 160.6,188.3 160.9,183.0 161.0,184.2 161.2,185.4 161.5,187.5 161.8,189.5 162.1,187.9 162.6,193.6 163.0,195.6 163.4,194.0 163.9,192.7 164.5,188.7 164.8,188.7 165.2,187.9 165.5,188.7 166.1,188.7 166.7,187.9 167.2,190.7 167.8,189.5 168.1,193.2 168.3,195.2 168.5,189.5 168.7,195.6 169.2,192.7 169.6,191.5 170.1,189.9 170.4,191.1 170.8,190.3 171.1,188.3 171.6,187.9 171.9,185.8 172.3,187.5 172.6,182.6 173.0,183.8 173.4,184.6 173.6,187.0 174.0,183.8 174.3,181.8 174.6,184.2 175.0,181.8 175.1,180.1 175.3,180.9 175.7,183.4 176.0,186.2 176.3,188.3 176.6,185.4 177.1,185.8 177.5,184.6 177.8,183.8 178.1,182.6 178.5,182.2 178.8,181.8 179.0,180.5 179.3,178.9 179.5,177.3 179.8,179.3 180.1,180.5 180.4,177.7 180.9,178.9 181.3,179.3 181.8,179.3 182.2,183.4 182.4,183.4 182.8,182.2 182.9,187.9 183.0,187.9 183.4,185.0 184.0,185.4 184.5,182.6 185.2,181.8 185.5,181.4 185.9,188.7 186.2,184.6 186.6,184.2 187.3,183.8 187.5,180.9 187.9,183.0 188.3,183.4 188.5,178.5 188.7,182.6 188.9,183.0 189.3,180.1 189.4,177.3 189.6,177.7 189.7,173.2 189.9,171.2 190.2,172.8 190.3,168.3 190.6,166.7 190.7,169.1 190.9,173.6 191.1,172.8 191.2,175.2 191.4,174.4 191.6,170.8 191.9,169.1 192.1,169.1 192.5,168.7 192.8,163.9 192.9,160.6 192.9,154.9 193.1,155.3 193.1,156.5 193.3,160.6 193.4,161.4 193.6,167.1 193.7,168.7 193.9,169.1 194.2,163.9 194.4,169.1 194.8,167.1 194.9,163.4 195.2,165.1 195.4,167.9 195.6,171.2 195.8,172.4 195.9,179.3 196.1,176.5 196.2,173.6 196.5,176.5 196.7,178.9 196.9,170.4 197.1,170.8 197.4,172.8 197.7,175.7 197.9,171.2 198.2,172.4 198.4,182.2 198.7,179.3 198.9,185.8 198.9,187.0 199.1,187.5 199.4,185.4 199.7,184.2 200.0,184.2 200.2,182.2 200.5,183.0 200.7,187.5 200.9,186.6 201.4,188.7 201.8,188.3 202.1,186.2 202.5,187.0 202.9,187.0 203.2,180.9 203.4,181.8 203.7,180.1 204.0,182.6 204.2,186.2 204.4,185.8 204.7,182.6 205.0,179.7 205.2,181.8 205.3,177.3 205.4,174.4 205.5,177.7 205.6,173.2 205.7,176.1 205.8,179.3 205.9,181.4 206.1,177.7 206.3,176.9 206.5,173.2 206.6,169.1 206.7,170.4 206.9,169.1 207.0,169.6 207.2,167.1 207.3,172.8 207.5,173.6 207.7,174.8 208.0,174.0 208.3,176.9 208.5,182.6 208.7,179.7 208.9,172.8 209.0,169.6 209.1,169.6 209.3,170.8 209.5,167.5 209.7,167.1 209.9,167.5 210.1,164.7 210.3,160.6 210.4,162.6 210.7,163.0 210.9,163.0 211.1,165.5 211.3,164.7 211.4,165.5 211.6,161.4 211.8,161.0 212.0,157.7 212.1,158.2 212.2,160.2 212.4,163.9 212.6,167.5 212.8,164.3 213.0,165.1 213.2,169.1 213.5,167.9 213.9,169.6 214.1,164.7 214.2,160.6 214.4,156.9 214.6,155.3 214.8,161.0 215.1,162.6 215.4,162.6 215.6,160.2 215.9,161.4 216.2,161.8 216.4,168.7 216.6,167.5 216.9,173.6 217.1,168.7 217.2,164.3 217.3,161.8 217.5,160.6 217.6,157.7 217.8,160.6 218.0,164.3 218.2,167.1 218.3,168.7 218.5,170.0 218.9,166.7 219.1,167.5 219.4,167.9 219.7,160.2 219.8,160.2 220.1,161.0 220.4,159.8 220.7,163.4 221.0,159.0 221.4,158.6 221.7,154.9 221.9,157.7 222.1,159.8 222.5,158.6 222.8,160.6 223.2,160.2 223.5,161.8 223.6,157.7 223.8,155.3 224.0,157.7 224.2,161.0 224.6,165.1 224.7,169.6 225.1,171.6 225.4,168.3 225.7,167.1 226.1,167.9 226.5,165.5 226.8,162.6 227.3,165.9 227.7,165.1 228.0,162.2 228.7,161.0 229.2,157.7 229.5,153.7 229.6,149.6 229.7,143.5 229.8,145.1 230.0,146.4 230.2,144.3 230.4,141.1 230.6,143.5 230.9,141.1 231.1,142.3 231.4,142.3 231.7,141.5 232.0,146.8 232.3,142.7 232.4,138.2 232.5,137.8 232.6,137.8 232.8,139.4 232.9,140.7 233.0,141.9 233.1,149.6 233.2,148.0 233.4,144.3 233.5,147.2 233.7,144.7 233.8,143.1 234.0,147.6 234.1,152.9 234.2,156.5 234.3,156.5 234.4,156.9 234.5,151.6 234.6,159.8 234.7,159.8 234.8,155.7 235.0,159.0 235.0,161.4 235.1,164.7 235.2,166.3 235.3,169.1 235.4,170.0 235.5,164.3 235.6,165.1 235.8,164.7 236.0,166.7 236.2,160.2 236.4,158.6 236.5,167.9 236.6,173.6 236.6,172.4 236.7,179.7 236.8,181.4 236.8,176.9 236.9,176.5 237.0,172.8 237.3,174.4 237.5,174.0 237.7,169.1 237.8,172.4 238.0,172.8 238.3,170.4 238.7,173.2 239.1,169.1 239.3,165.9 239.4,163.0 239.7,159.0 240.1,158.2 240.4,160.6 240.5,152.1 240.6,144.3 240.6,147.6 240.7,148.0 240.9,144.3 241.1,147.2 241.4,148.0 241.6,146.4 241.8,152.5 242.2,156.5 242.7,148.8 243.1,150.4 243.4,148.4 243.9,154.1 244.3,155.7 244.6,162.6 244.8,166.7 245.1,168.3 245.3,165.9 245.6,168.3 245.8,171.2 246.1,169.1 246.4,167.9 246.7,166.3 246.8,164.3 247.1,163.0 247.5,161.0 247.8,165.5 248.4,164.7 248.9,167.5 249.4,167.9 249.8,166.3 250.2,163.9 250.7,169.6 251.0,170.0 251.7,170.0 252.2,164.7 252.5,158.6 252.9,156.5 253.0,156.1 253.4,159.4 253.8,156.9 254.0,152.9 254.2,155.7 254.4,159.8 254.7,163.4 254.8,164.3 255.0,169.6 255.2,168.3 255.4,167.1 255.6,168.7 255.9,165.5 256.3,167.1 256.8,164.3 257.3,165.9 257.7,166.3 258.1,169.1 258.6,173.2 258.8,173.2 259.2,168.7 259.4,172.8 259.8,176.5 259.9,181.4 260.0,180.5 260.2,183.8 260.4,181.4 260.4,180.9 260.5,178.9 260.6,174.4 260.7,175.7 260.9,176.1 261.0,184.2 261.1,182.2 261.3,185.8 261.4,186.6 261.5,185.0 261.6,183.8 261.7,186.2 261.9,186.6 262.2,183.8 262.4,183.8 262.6,184.6 262.8,186.2 263.1,186.6 263.3,184.2 263.6,183.8 263.9,180.1 264.3,186.6 264.6,186.2 264.9,186.2 265.0,180.9 265.4,184.2 265.7,186.2 265.9,186.2 266.2,183.4 266.5,180.5 266.9,184.2 267.2,185.8 267.6,184.6 268.0,183.4 268.7,184.6 269.2,186.2 269.6,182.6 270.0,189.9 270.3,189.5 270.5,183.0 270.7,183.8 271.3,185.4 271.6,188.3 271.9,188.7 272.2,184.2 272.7,185.0 273.0,185.8 273.5,185.4 273.8,184.6 274.0,183.0 274.3,186.2 274.6,188.3 274.8,184.6 275.2,185.0 275.5,187.0 275.6,193.2 275.8,190.3 275.9,192.3 276.1,193.6 276.4,190.7 276.5,187.5 276.7,187.9 276.9,189.5 277.1,190.7 277.3,188.7 277.6,189.1 277.8,187.9 278.0,191.9 278.3,192.7 278.3,194.8 278.4,196.0 278.6,197.6 278.7,198.0 278.9,194.4 279.2,198.9 279.3,203.7 279.4,207.8 279.4,204.1 279.5,202.9 279.6,200.9 279.8,198.9 279.9,196.4 280.1,193.6 280.3,192.3 280.5,187.5 280.7,187.0 280.9,189.1 281.2,191.1 281.4,191.5 281.6,195.2 281.9,193.6 282.2,198.9 282.6,199.3 282.8,202.9 283.0,200.5 283.3,195.6 283.6,197.2 283.9,196.0 284.3,199.7 284.5,199.3 284.9,197.6 285.3,202.1 285.5,200.5 285.9,202.5 286.4,202.5 286.8,205.4 287.2,205.8 287.5,208.2 287.8,205.8 288.0,208.2 288.1,205.8 288.3,210.7 288.4,205.4 288.5,204.5 288.7,201.3 288.8,198.9 288.9,199.7 289.1,196.4 289.3,196.8 289.4,194.0 289.7,189.5 289.8,191.9 290.0,196.0 290.1,197.2 290.2,198.0 290.4,200.1 290.7,197.2 290.9,192.3 291.1,191.9 291.4,196.0 291.7,194.0 292.0,189.9 292.2,194.0 292.6,194.0 292.9,197.6 293.3,194.8 293.6,198.0 294.1,198.4 294.4,205.4 294.6,205.4 295.0,204.1 295.4,201.7 295.8,198.4 296.2,197.2 296.8,194.4 297.3,198.0 297.8,196.4 298.7,197.6 299.2,200.9 299.9,198.0 300.6,200.5 300.6,195.2 300.8,201.7 301.1,200.9 301.4,196.4 302.0,200.5 302.6,200.5 303.0,203.3 303.3,198.0 303.7,198.4 304.3,199.7 304.9,196.8 305.5,195.6 306.1,192.3 306.6,192.7 306.8,192.7 307.3,194.0 307.7,194.0 308.2,195.6 308.5,197.2 308.9,200.5 309.0,207.8 309.1,208.6 309.3,202.5 309.6,202.1 310.2,200.9 310.8,202.9 311.4,200.1 312.0,200.5 312.6,199.7 313.2,205.4 313.9,203.7 314.2,196.0 314.4,191.5 314.5,196.8 314.6,192.3 314.9,191.9 315.2,196.4 315.3,197.6 315.6,196.8 315.7,198.9 315.8,198.0 315.9,201.7 316.1,200.1 316.2,199.7 316.3,201.7 316.4,200.1 316.6,198.0 316.7,189.9 316.7,183.4 316.8,180.5 316.9,176.1 316.9,176.1 317.0,180.9 317.0,180.9 317.2,184.2 317.3,189.1 317.4,181.4 317.4,178.9 317.6,175.7 317.7,172.0 317.8,177.3 317.9,179.3 318.1,178.5 318.4,176.1 318.5,174.4 318.6,175.2 318.8,181.4 318.9,183.8 319.2,187.5 319.4,183.8 319.7,183.0 319.9,188.3 320.1,194.4 320.2,199.3 320.4,193.6 320.6,191.9 320.9,196.0 321.1,199.3 321.3,201.7 321.5,201.7 321.7,198.0 321.9,200.5 322.2,198.4 322.6,195.2 323.0,198.0 323.3,198.0 323.6,194.0 323.8,194.0 324.3,193.6 324.6,194.0 324.9,189.5 325.4,190.3 326.1,192.7 326.7,194.0 327.1,196.0 327.5,199.3 328.0,196.0 328.8,196.8 329.6,201.7 330.4,202.5 331.0,199.7 331.5,202.9 332.1,201.3 332.7,201.7 333.6,201.7 334.1,199.7 334.8,195.2 335.3,193.6 335.9,193.6 336.5,194.4 337.3,191.5 337.8,189.9 338.1,191.1 338.7,192.3 339.2,189.9 339.7,191.9 340.5,188.3 340.9,185.8 341.4,181.8 341.8,182.6 342.5,182.6 342.9,188.7 343.5,189.1 344.0,188.7 344.7,191.1 345.5,193.2 346.2,191.9 346.8,192.7 347.3,197.2 347.9,192.3 348.8,191.1 349.5,188.3 350.3,190.3 350.9,192.3 351.6,195.6 352.3,197.2 352.8,199.3 353.2,199.7 354.0,198.4 354.6,198.4 355.6,198.9 356.3,197.6 357.0,196.4 358.4,196.4 359.6,198.9 360.8,196.8 361.5,200.9 362.6,200.1 363.3,198.4 364.0,197.2 364.6,196.8 365.5,193.2 365.8,192.7 366.9,195.2 368.0,192.3 368.4,191.5 369.0,188.3 369.6,191.1 370.3,191.5 370.9,189.5 371.4,187.9 371.7,191.5 372.2,194.4 372.4,198.4 372.9,196.8 373.1,189.9 373.2,188.3 373.5,187.9 373.9,184.6 374.4,190.3 374.8,184.2 375.2,186.2 375.8,185.8 376.2,180.1 376.5,181.8 376.9,185.8 377.2,191.1 377.4,193.2 377.5,198.0 377.8,197.2 378.0,196.8 378.3,198.0 378.8,198.0 379.3,193.2 379.6,202.1 379.9,200.5 380.4,197.6 380.7,205.0 380.8,198.0 381.0,192.7 381.4,197.6 381.7,194.4 381.9,195.6 382.1,191.5 382.3,192.7 382.4,196.0 382.6,200.5 382.8,201.7 382.9,190.7 383.0,186.2 383.1,189.1 383.4,187.5 383.6,193.6 383.8,191.1 384.1,191.1 384.2,186.6 384.3,179.7 384.5,183.0 384.8,176.5 385.0,174.0 385.2,174.0 385.4,171.6 385.6,168.3 385.8,170.0 386.0,174.0 386.3,178.5 386.4,178.5 386.6,176.9 387.0,176.9 387.3,173.2 387.6,173.2 387.9,170.8 388.2,171.2 388.6,173.2 388.9,172.8 389.1,177.3 389.5,179.7 389.9,171.6 390.1,176.1 390.4,182.6 390.6,184.2 390.8,185.8 391.0,187.0 391.3,188.7 391.5,189.9 391.7,199.7 391.7,202.1 391.9,201.3 392.1,198.0 392.2,198.4 392.5,197.6 392.6,203.7 392.9,204.1 393.2,208.2 393.4,205.8 393.8,205.4 394.2,205.4 394.5,205.0 394.9,202.5 395.3,202.1 395.6,204.1 396.0,203.3 396.4,205.4 396.8,206.2 397.1,208.2 397.5,207.4 397.7,209.4 398.0,207.4 398.2,212.7 398.3,214.7 398.4,213.1 398.5,209.8 398.5,207.8 398.6,203.3 398.8,205.8 398.9,204.1 399.1,205.0 399.3,200.5 399.4,197.2 399.5,195.6 399.7,192.3 399.8,189.9 399.9,186.2 400.1,187.5 400.2,189.9 400.4,189.1 400.6,188.7 400.7,181.8 400.8,184.6 400.9,184.6 401.1,185.8 401.3,185.8 401.5,186.6 401.7,187.0 401.8,193.2 402.0,198.9 402.1,196.0 402.2,196.8 402.4,192.7 402.6,194.4 402.8,192.3 403.0,190.7 403.1,196.8 403.2,198.4 403.5,197.6 403.7,201.3 403.9,197.6 404.2,196.4 404.6,197.2 404.8,192.7 405.0,192.3 405.2,195.2 405.5,199.7 405.8,200.9 406.1,201.7 406.4,204.1 406.8,206.6 407.0,207.8 407.2,200.1 407.7,202.5 408.3,205.4 408.8,203.7 409.5,202.9 409.8,200.5 410.3,199.3 410.7,191.1 410.9,192.3 411.1,192.3 411.5,191.9 411.8,186.6 412.1,185.0 412.5,189.1 412.8,193.6 413.0,196.0 413.3,196.0 413.8,195.2 414.1,195.2 414.3,191.9 414.7,194.4 415.1,190.7 415.3,187.0 415.5,180.1 415.6,182.6 415.9,185.4 416.2,186.2 416.4,182.2 416.6,179.3 416.8,180.9 417.2,179.3 417.4,175.7 417.7,178.9 418.3,179.3 418.6,174.4 418.8,176.5 419.1,180.5 419.5,178.9 419.7,177.7 420.1,177.3 420.3,174.0 420.5,171.2 420.6,173.6 420.7,169.1 420.9,167.9 421.2,168.3 421.4,165.9 421.6,165.1 421.8,163.0 421.9,161.0 422.0,159.0 422.1,160.6 422.3,163.9 422.5,164.7 422.6,163.4 422.8,163.0 423.0,166.3 423.2,166.7 423.4,170.0 423.8,169.6 424.2,167.9 424.3,160.6 424.5,160.2 424.6,155.7 424.7,160.6 424.9,160.2 424.9,159.0 425.0,158.6 425.1,158.6 425.2,154.5 425.4,154.9 425.5,157.7 425.7,155.7 426.0,150.0 426.1,145.9 426.1,145.9 426.2,147.2 426.3,146.8 426.4,148.8 426.5,151.2 426.6,154.9 426.7,156.5 426.8,156.1 426.9,157.3 427.0,161.8 427.2,158.2 427.3,153.3 427.4,151.6 427.6,151.6 427.7,150.4 427.8,145.5 427.9,148.8 428.1,148.4 428.3,148.4 428.4,146.4 428.5,142.7 428.6,149.6 428.7,141.9 428.9,144.7 429.1,145.5 429.3,147.6 429.5,143.1 429.5,136.2 429.5,142.7 429.5,141.9 429.6,143.9 429.7,141.5 429.9,138.6 430.0,139.8 430.1,140.3 430.3,132.9 430.4,133.3 430.5,136.6 430.7,141.1 430.9,139.0 431.1,142.7 431.2,139.4 431.5,142.7 431.7,142.3 431.9,136.6 432.0,137.0 432.2,132.1 432.4,132.9 432.5,134.6 432.7,136.6 432.9,137.0 433.1,142.7 433.3,142.3 433.5,141.1 433.8,139.8 434.1,137.4 434.4,136.2 434.7,138.6 434.8,132.1 434.9,128.4 434.9,124.4 434.9,125.6 434.9,130.1 435.0,124.4 435.0,117.9 435.1,117.5 435.2,116.6 435.3,120.3 435.5,118.7 435.6,118.3 435.8,122.3 435.9,121.9 436.0,122.8 436.2,126.0 436.4,129.3 436.6,131.3 436.9,130.5 437.0,129.3 437.2,128.9 437.4,126.0 437.6,127.6 437.9,127.2 438.2,128.4 438.4,125.2 438.7,124.8 439.0,125.6 439.3,125.6 439.6,122.3 439.8,122.8 440.2,125.6 440.5,128.0 440.9,130.5 441.4,130.5 441.7,132.9 441.8,134.6 442.3,134.6 442.8,137.8 443.2,140.3 443.6,139.4 443.9,140.3 444.2,139.4 444.5,142.3 444.9,137.4 445.3,134.6 445.7,135.0 446.3,135.8 446.6,131.7 447.1,130.1 447.2,135.4 447.5,132.1 447.9,131.3 448.4,130.9 448.8,127.6 449.0,129.3 449.2,130.5 449.7,134.1 449.8,136.6 450.0,138.2 450.4,137.8 450.7,141.9 451.0,139.4 451.2,141.5 451.4,142.7 451.7,141.9 452.0,145.5 452.3,143.1 452.6,144.3 452.9,148.4 453.2,142.3 453.4,141.1 453.5,140.3 453.7,139.8 453.8,140.3 453.9,137.8 454.0,139.4 454.0,135.4 454.1,135.0 454.2,141.5 454.3,141.9 454.4,140.3 454.5,133.7 454.6,135.4 454.6,133.3 454.8,132.1 454.9,134.1 455.1,136.2 455.2,135.8 455.4,135.8 455.5,133.3 455.7,129.3 455.7,133.7 455.9,135.8 456.0,132.5 456.1,137.0 456.2,136.2 456.4,137.0 456.5,140.3 456.7,138.6 456.9,137.8 457.1,141.1 457.2,148.4 457.4,143.9 457.5,148.4 457.7,146.4 457.9,143.1 458.0,144.7 458.3,141.9 458.4,151.2 458.5,150.8 458.6,150.0 458.7,147.2 458.9,150.4 459.0,147.6 459.2,143.9 459.4,141.9 459.4,143.5 459.7,143.1 459.9,143.1 460.1,142.7 460.2,139.4 460.4,143.1 460.6,144.7 460.9,145.9 461.1,144.7 461.4,144.7 461.9,145.1 462.2,149.2 462.5,149.6 462.8,149.2 463.0,155.7 463.4,155.7 463.7,153.3 464.0,154.5 464.3,151.2 464.7,155.7 465.0,154.9 465.4,152.1 465.6,153.3 465.9,147.6 466.2,151.6 466.4,154.1 466.6,151.2 466.7,156.5 467.0,157.3 467.2,156.1 467.6,158.6 467.7,156.5 467.9,159.4 468.2,158.6 468.4,163.9 468.6,165.1 468.6,168.7 468.8,172.0 468.9,176.1 469.0,173.6 469.3,172.0 469.6,171.2 469.8,169.1 470.1,170.4 470.4,170.0 470.8,172.0 471.1,170.8 471.5,169.1 471.8,166.7 472.1,167.1 472.6,168.3 473.1,164.3 473.4,160.2 473.7,159.0 474.0,163.0 474.3,164.7 475.0,162.6 475.5,163.9 475.7,157.7 476.0,155.7 476.4,158.2 476.8,159.4 477.2,158.2 477.6,155.3 477.9,158.6 478.4,156.5 478.8,154.5 479.2,152.9 479.6,152.5 480.0,149.2 480.2,152.5 480.6,151.2 480.9,152.9 481.2,154.9 481.3,158.6 481.5,163.0 481.6,166.7 481.7,160.6 481.8,163.4 482.0,160.2 482.2,165.1 482.3,167.5 482.4,171.6 482.6,172.8 482.7,176.5 482.7,180.5 482.8,183.8 482.8,184.6 482.9,186.2 483.0,176.1 483.0,178.5 483.1,182.2 483.2,177.7 483.4,179.3 483.6,178.9 483.7,176.5 483.9,174.4 484.1,175.2 484.3,175.7 484.5,178.1 484.8,175.7 485.0,174.8 485.2,180.5 485.4,182.6 485.5,185.4 485.6,188.7 485.8,185.4 486.1,190.7 486.3,189.9 486.5,192.3 486.6,187.9 486.9,189.1 487.1,187.5 487.3,190.3 487.6,189.5 487.9,188.3 488.3,191.1 488.6,192.7 488.8,188.3 489.2,188.7 489.7,187.0 490.0,185.4 490.4,184.6 490.8,184.2 491.2,187.5 491.8,185.8 492.4,184.6 492.9,185.0 493.4,187.5 493.8,189.9 494.2,189.1 494.8,191.9 495.1,185.8 495.6,182.6 496.0,184.2 496.7,187.0 497.4,185.8 497.7,189.5 498.3,187.0 498.7,182.2 498.9,178.1 499.4,181.4 500.1,177.7 500.5,173.6 501.1,177.7 501.6,174.0 502.1,172.8 502.5,172.0 503.0,175.7 503.7,177.7 504.0,180.9 504.7,182.2 505.2,184.6 505.8,183.0 506.6,182.6 507.2,184.2 507.5,187.9 507.9,190.3 508.5,185.8 508.9,183.0 509.0,183.8 509.3,185.4 509.5,186.2 509.7,184.6 509.9,190.3 510.0,191.9 510.0,196.8 510.1,202.5 510.2,197.2 510.3,201.7 510.4,203.3 510.5,200.1 510.6,199.7 510.8,198.0 511.0,198.4 511.1,196.0 511.5,193.6 511.8,196.4 512.0,200.5 512.3,203.7 512.5,199.3 512.8,198.9 513.0,195.6 513.3,194.8 513.5,195.6 513.8,197.6 514.2,199.7 514.5,201.7 514.8,196.4 515.3,199.3 515.7,196.4 515.8,189.5 516.0,188.3 516.3,183.8 516.5,181.4 516.8,180.9 517.1,180.1 517.5,181.4 517.8,182.2 518.2,177.7 518.7,178.1 519.2,179.7 520.0,182.6 520.6,181.8 520.9,179.3 521.1,177.7 521.5,178.5 522.2,180.9 522.8,183.8 523.6,179.3 524.2,181.8 525.0,181.8 525.6,177.7 526.1,176.9 526.5,176.5 527.1,176.1 527.6,174.8 528.2,172.4 528.4,168.3 528.8,165.5 529.0,163.4 529.3,159.0 529.4,157.3 529.4,163.4 529.6,165.9 529.8,161.8 530.0,159.4 530.2,159.4 530.4,156.1 530.7,155.7 531.0,159.0 531.4,161.8 531.7,152.9 531.9,152.5 532.2,160.2 532.5,160.6 532.8,162.2 533.2,162.2 533.5,165.5 534.0,164.3 534.2,155.7 534.4,155.3 534.6,154.5 534.8,155.3 535.0,158.2 535.2,157.3 535.5,157.7 535.7,155.7 536.0,158.6 536.3,159.4 536.6,154.1 536.8,155.3 537.1,152.1 537.3,151.6 537.6,160.6 537.8,159.0 538.0,159.8 538.3,157.3 538.6,159.0 538.9,165.1 539.2,163.9 539.5,159.4 539.9,163.9 540.3,161.8 540.7,160.6 541.4,160.2 541.9,157.7 542.5,159.4 542.9,160.2 543.6,163.0 544.2,165.1 544.7,167.1 545.5,167.1 545.8,172.8 546.2,172.4 546.6,170.0 547.2,173.6 547.6,172.8 547.8,167.5 548.2,170.4 548.5,172.4 548.8,176.1 548.9,176.9 549.4,179.7 549.7,182.6 550.0,178.5 550.3,184.6 550.5,186.6 550.9,184.6 551.5,181.4 552.0,183.8 552.3,187.5 552.7,187.9 553.4,187.0 554.1,186.6 554.7,187.9 555.5,189.9 555.9,192.7 556.2,190.3 556.6,189.9 557.1,190.3 557.3,191.1 557.7,191.1 557.9,188.3 558.1,190.3 558.4,190.7 558.8,191.9 559.2,192.3 559.8,191.9 560.5,192.7 561.0,190.3 561.5,189.9 561.9,190.3 562.3,192.7 562.5,195.2 562.8,193.6 563.1,191.9 563.3,189.9 563.6,191.9 563.8,188.7 563.9,186.6 564.1,189.5 564.4,193.2 564.6,193.2 564.7,197.2 564.8,194.8 565.1,191.1 565.6,189.1 565.9,185.4 566.0,182.6 566.2,180.5 566.5,179.7 566.8,186.6 567.2,187.0 567.7,189.1 568.3,187.5 568.7,181.4 569.0,181.4 569.3,178.5 570.0,185.0 570.5,186.2 571.0,180.5 571.4,182.6 572.2,183.4 572.8,184.2 573.4,183.8 574.0,188.7 574.0,190.7 574.2,192.7 574.3,197.6 574.4,198.9 574.5,202.9 574.5,202.9 574.6,206.2 574.8,207.8 574.8,212.7 574.8,217.2 574.8,215.1 574.9,217.6 575.0,221.2 575.0,223.7 575.0,231.8 575.1,244.8 575.1,245.6 575.1,250.1 575.1,255.8 575.1,268.0 575.1,268.0 575.1,275.8 575.1,267.6 575.1,273.7 575.1,283.1 575.1,276.2 575.1,289.2 575.1,294.1 575.1,283.9 575.1,290.0 575.1,273.3 575.1,266.8 575.1,261.9 575.1,261.1 575.1,254.2 575.1,249.7 575.1,248.5 575.1,250.1 575.1,250.1 575.2,251.8 575.2,256.2 575.2,257.4 575.2,255.4 575.2,253.0 575.2,255.0 575.2,256.2 575.2,255.4 575.2,254.2 575.3,257.9 575.3,255.4 575.3,257.9 575.3,258.3 575.3,258.3 575.4,257.0 575.4,254.6 575.4,253.8 575.4,257.9 575.5,257.4 575.5,257.4 575.5,255.4 575.6,251.8 575.6,253.0 575.7,248.1 575.7,244.8 575.7,249.3 575.8,248.5 575.9,247.7 575.9,246.5 576.1,247.7 576.2,249.7 576.3,247.7 576.5,245.2 576.6,243.2 576.8,245.2 576.9,243.6 577.1,245.2 577.3,245.6 577.4,245.2 577.7,243.6 578.0,243.2 578.4,243.6 578.8,241.2 579.1,240.8 579.4,237.5 579.6,237.5 579.8,236.7 580.1,242.0 580.4,241.6 580.7,242.4 581.0,243.2 581.3,245.2 581.5,242.8 581.7,240.4 581.9,239.1 582.0,240.8 582.3,243.6 582.6,242.0 582.9,248.1 583.3,250.9 583.5,251.8 583.8,249.7 584.1,249.3 584.3,251.3 584.6,250.1 584.6,245.2 584.7,244.8 584.8,245.2 584.9,245.6 585.0,242.8 585.1,244.0 585.3,243.6 585.4,245.2 585.5,248.1 585.6,246.9 585.9,247.7 586.4,246.5 586.7,251.3 587.3,253.0 587.9,252.2 588.4,253.0 588.7,254.2 589.1,254.6 589.4,256.6 589.8,255.8 590.2,252.2 590.5,250.5 591.0,249.3 591.4,250.9 591.8,246.9 592.1,248.9 592.5,250.5 592.8,249.3 593.2,248.9 593.7,248.9 594.0,247.3 594.3,244.8 594.5,241.6 594.8,244.0 595.1,240.8 595.5,239.5 595.8,241.6 596.2,242.8 596.7,238.7 597.2,234.7 597.3,230.2 597.5,228.6 597.8,229.4 598.1,233.4 598.4,235.1 598.9,235.9 599.4,236.7 600.1,236.3 600.6,239.5 600.8,237.5 601.1,243.6 601.6,242.8 601.8,242.4 602.1,237.5 602.2,233.0 602.5,236.7 602.8,236.7 603.1,237.1 603.4,237.1 603.9,240.8 604.2,236.3 604.4,237.1 604.9,237.9 605.3,240.4 605.6,239.5 605.9,235.5 606.2,237.5 606.6,241.6 606.9,239.5 607.1,237.9 607.5,242.8 607.8,242.8 608.2,240.4 608.4,242.8 608.5,241.2 608.6,242.0 608.8,241.2 609.0,241.6 609.3,242.0 609.5,243.6 609.9,247.3 609.9,250.9 610.0,247.7 610.2,248.9 610.4,248.1 610.6,250.5 610.9,248.5 611.1,249.3 611.6,250.9 611.8,254.2 612.1,256.2 612.2,256.6 612.4,255.8 612.5,261.1 612.6,259.5 612.8,259.9 613.0,258.3 613.1,257.0 613.5,257.9 614.0,258.7 614.3,253.8 614.5,250.1 614.7,252.6 615.1,253.4 615.6,256.2 616.1,259.9 616.5,259.9 616.8,255.4 617.2,256.6 617.7,258.7 618.0,260.3 618.2,257.0 618.3,258.3 618.6,260.7 618.8,261.5 619.1,259.5 619.3,258.7 619.4,259.1 619.5,256.2 619.6,254.6 619.7,257.9 619.8,257.0 619.9,256.6 620.0,260.3 620.1,262.7 620.1,263.1 620.2,261.1 620.3,263.1 620.4,264.0 620.6,263.1 620.8,267.2 621.0,264.0 621.2,264.8 621.5,262.7 621.7,264.4 621.8,262.7 621.9,267.6 622.0,264.4 622.2,268.4 622.4,263.1 622.6,265.2 622.9,267.6 623.0,268.8 623.2,267.6 623.3,267.2 623.5,266.8 623.8,269.3 624.0,270.1 624.2,271.7 624.4,268.8 624.6,265.2 624.9,267.6 625.2,268.0 625.5,269.3 625.8,269.7 626.0,264.8 626.4,266.4 626.7,266.4 627.0,264.8 627.6,267.6 628.1,268.8 628.6,272.5 628.6,279.0 628.6,274.9 628.7,270.9 629.0,271.3 629.2,274.1 629.5,272.5 629.7,273.3 630.1,273.3 630.4,271.3 630.7,270.1 630.9,270.1 631.0,267.2 631.2,266.8 631.5,262.7 631.8,259.5 632.1,258.7 632.6,260.3 632.9,256.6 633.2,258.3 633.6,257.4 634.0,256.2 634.6,256.6 635.2,259.1 635.9,257.4 636.6,258.3 637.2,257.9 637.7,260.7 638.1,262.3 638.6,260.3 639.1,262.7 639.5,262.7 640.0,266.4 640.3,270.5 640.6,266.8 640.9,265.6 641.5,264.0 641.8,264.0 642.2,262.7 643.2,264.4 643.9,266.8 644.2,272.5 644.3,276.2 644.5,277.4 644.7,272.9 645.0,271.3 645.4,268.4 645.7,271.7 646.2,274.9 646.4,273.7 646.5,267.2 646.6,263.1 646.6,258.7 646.7,258.3 646.8,258.7 647.0,257.9 647.0,256.2 647.1,256.6 647.3,258.7 647.4,257.4 647.6,256.6 647.7,255.0 647.9,252.6 648.0,254.2 648.1,256.6 648.4,257.4 648.6,253.8 648.9,256.2 649.1,262.7 649.3,264.8 649.4,269.7 649.5,274.5 649.6,270.9 649.8,276.6 649.8,274.1 649.9,270.5 650.1,274.5 650.2,277.4 650.3,274.5 650.4,279.4 650.5,281.1 650.6,278.6 650.7,277.8 650.9,275.8 651.1,275.8 651.3,274.5 651.5,277.0 651.8,274.9 651.9,269.7 652.2,270.5 652.5,273.7 652.7,265.6 652.7,261.5 652.7,259.9 652.7,260.3 652.8,257.0 652.9,254.6 652.9,250.5 653.0,248.9 653.1,248.9 653.2,248.1 653.3,248.5 653.5,250.1 653.6,253.0 653.9,255.8 654.0,255.0 654.2,252.6 654.4,250.5 654.6,252.2 654.8,247.7 655.1,248.5 655.5,248.1 655.8,247.7 656.1,253.4 656.7,255.4 657.1,257.4 657.5,259.5 657.7,264.8 658.0,261.9 658.3,261.1 658.7,259.1 659.1,259.1 659.5,256.6 659.9,255.4 660.3,253.8 660.8,256.6 661.2,256.6 661.7,258.7 662.0,262.3 662.7,258.7 663.3,257.4 663.8,254.6 664.3,253.8 664.7,255.4 665.0,257.9 665.4,256.6 666.0,255.8 666.6,258.3 667.0,255.8 667.4,255.8 667.9,258.7 668.3,256.2 668.8,253.0 669.4,253.0 670.0,253.4 670.6,255.4 671.0,260.7 671.5,260.7 672.0,263.6 672.7,263.1 673.4,261.1 673.5,263.1 673.8,264.4 674.1,264.8 674.5,268.0 674.7,267.6 674.7,266.0 674.9,271.3 675.0,270.9 675.2,270.9 675.4,272.9 675.6,269.7 675.7,275.4 675.8,276.2 676.0,270.5 676.1,268.4 676.3,267.6 676.6,270.1 676.8,267.6 677.1,269.3 677.3,265.6 677.6,264.0 677.9,266.0 678.1,266.8 678.3,265.2 678.6,264.0 678.8,265.2 679.1,264.0 679.4,263.6 679.6,268.0 680.0,267.6 680.3,266.8 680.7,266.0 681.1,266.0 681.6,271.3 682.1,269.3 682.6,268.0 683.2,270.5 683.7,270.1 684.5,271.7 685.1,271.7 685.7,270.9 686.2,268.0 686.7,267.6 687.3,264.4 687.9,264.8 688.6,265.6 689.3,264.0 690.0,263.6 690.5,262.3 691.0,259.5 691.6,260.3 692.1,263.1 692.4,262.7 692.8,261.5 693.2,264.0 693.8,268.0 694.5,269.3 694.9,267.6 695.3,271.7 695.7,274.1 696.1,270.1 696.5,270.5 696.9,269.3 697.2,270.1 697.6,270.5 697.9,269.7 698.1,269.7 698.5,266.8 698.9,266.4 699.1,267.2 699.6,267.6 700.5,267.6 701.1,264.4 701.5,264.4 701.9,266.0 702.2,268.4 702.3,269.7 702.4,270.5 702.5,277.4 702.6,274.5 702.8,272.1 703.0,274.1 703.2,270.5 703.3,272.1 703.5,269.7 703.7,265.2 703.9,265.2 704.0,264.8 704.2,266.4 704.4,271.3 704.6,265.2 704.7,264.0 704.9,259.9 705.1,266.0 705.3,265.6 705.5,259.9 705.6,255.8 705.7,259.1 705.8,258.7 706.0,261.1 706.2,263.1 706.5,261.1 706.8,259.5 707.2,264.4 707.5,268.4 707.7,273.3 707.9,272.1 708.0,274.9 708.2,274.1 708.4,273.7 708.7,273.7 708.9,272.1 709.1,276.6 709.2,278.2 709.5,276.6 709.7,274.5 710.0,270.5 710.6,272.5 710.8,272.1 711.0,270.9 711.1,270.5 711.4,269.3 712.1,272.9 712.7,272.1 713.4,270.5 714.0,274.9 714.9,274.9 715.6,272.5 716.6,272.1 717.3,271.3 717.8,270.9 718.5,271.7 719.3,271.3 720.2,269.7 720.9,269.7 721.7,270.9 722.5,271.3 723.5,268.4 724.5,271.3 725.6,270.5 726.5,272.1 727.8,270.9 728.7,274.1 729.3,274.5 729.8,272.9 730.5,272.5 731.0,274.5 731.4,277.8 731.9,279.4 732.5,276.2 733.3,275.8 734.0,275.8 735.1,275.8 735.8,275.8 736.4,276.2 736.8,274.9 737.7,275.4 738.5,274.5 739.1,271.7 739.8,271.3 740.5,273.7 741.0,271.7 741.5,271.3 742.2,271.3 742.6,274.1 743.3,270.9 744.0,272.9 744.6,274.1 744.9,274.9 745.6,275.8 746.2,273.3 747.1,274.5 747.9,273.7 748.5,270.9 749.1,275.8 749.6,274.1 750.3,273.3 750.7,279.8 751.0,279.4 751.5,279.0 751.9,275.4 752.1,274.5 752.7,273.7 753.0,272.5 753.5,277.0 754.3,276.2 754.8,278.2 755.2,280.2 755.8,277.8 756.3,279.8 756.9,278.6 757.2,281.9 757.4,282.7 757.7,283.9 758.1,281.1 758.6,279.4 759.0,280.6 759.2,285.9 759.2,286.3 759.3,287.6 759.3,288.8 759.4,291.6 759.4,293.3 759.5,291.2 759.5,294.1 759.6,293.3 759.7,292.0 759.9,292.4 760.1,292.9 760.4,293.3 760.7,293.3 761.0,292.0 761.4,291.6 761.7,293.3 761.7,293.7 761.9,294.9 762.1,298.6 762.2,298.1 762.3,299.0 762.5,296.9 762.8,299.0 763.0,302.2 763.1,305.5 763.2,307.1 763.4,303.4 763.6,308.7 763.6,309.1 763.8,306.3 763.9,304.7 764.1,307.5 764.4,310.8 764.6,309.1 764.8,306.7 764.9,304.2 765.1,304.2 765.3,302.6 765.6,305.1 766.0,303.4 766.5,306.7 766.8,307.5 767.1,307.5 767.3,303.8 767.6,303.0 768.1,302.6 768.4,302.6 768.6,299.4 768.9,300.6 769.3,299.0 769.6,291.2 769.8,290.8 770.1,290.4 770.4,289.6 770.6,289.6 770.9,293.3 771.3,290.4 771.7,293.3 772.2,294.1 772.9,297.3 773.3,292.0 773.7,292.0 774.3,293.3 775.0,291.2 775.6,292.9 776.0,290.8 776.4,287.2 776.8,287.2 777.2,288.8 777.7,289.2 778.0,286.7 778.6,289.6 779.1,293.7 779.6,293.7 780.0,293.3 781.0,292.4 781.6,294.5 782.2,294.1 782.6,294.1 783.4,293.3 783.8,290.4 784.3,291.2 784.7,292.9 785.0,294.5 785.1,288.8 785.2,289.6 785.3,289.6 785.5,290.8 785.7,287.6 785.8,283.9 786.0,283.9 786.2,287.2 786.4,291.6 786.5,290.0 786.8,288.0 787.0,292.4 787.2,287.2 787.5,289.6 787.7,290.8 787.8,290.4 788.0,294.1 788.2,296.5 788.5,297.7 788.7,294.5 789.1,292.9 789.4,291.6 789.6,287.6 789.8,290.0 790.2,288.0 790.4,288.4 791.0,288.8 791.5,290.8 791.8,293.7 792.3,294.9 792.7,294.1 793.1,291.2 793.3,284.3 793.5,285.9 794.1,289.2 794.8,288.8 795.3,289.2 795.7,289.2 796.0,290.8 796.4,289.2 796.9,289.2 797.4,290.4 797.6,287.6 797.9,287.2 798.2,285.9 798.7,287.6 799.4,284.3 800.0,285.9 800.7,286.3 801.3,285.1 802.1,286.3 803.0,285.1 803.7,288.4 804.5,286.3 805.2,286.7 805.9,288.8 806.6,291.2 807.2,291.6 808.1,293.7 808.9,293.3 809.5,292.4 810.6,295.7 811.4,296.5 811.9,295.7 812.3,289.2 812.6,290.4 812.8,294.1 813.1,294.1 813.3,292.4 813.7,293.3 814.0,292.9 814.3,287.6 814.5,282.3 814.6,281.5 814.7,280.2 814.9,281.9 815.1,276.6 815.3,275.8 815.6,281.1 815.7,287.2 815.9,292.0 816.1,290.0 816.3,291.2 816.5,294.5 816.7,292.0 816.9,292.9 817.2,291.2 817.6,290.4 817.7,285.1 817.9,287.2 818.3,283.9 818.7,282.3 819.0,282.3 819.3,279.0 819.4,275.4 819.6,276.6 819.8,276.2 820.0,275.4 820.2,276.2 820.6,278.2 820.9,279.4 821.3,280.2 821.7,279.4 822.4,279.4 823.0,279.4 823.6,279.8 824.2,282.7 824.6,279.0 825.0,280.6 825.5,283.1 826.1,282.3 826.5,281.5 827.0,282.7 827.5,283.1 828.2,285.1 828.9,286.7 829.3,284.3 830.0,283.9 830.5,281.5 831.1,282.7 831.7,281.9 832.2,283.5 832.8,285.1 833.2,287.2 833.8,287.6 834.4,290.0 834.9,285.5 835.2,283.1 835.7,283.5 836.5,285.1 837.1,281.1 837.3,278.6 837.5,278.2 837.8,280.2 838.2,284.7 838.6,282.7 838.9,282.7 839.2,280.6 839.6,282.7 839.9,284.7 840.2,285.5 840.4,285.5 840.6,285.1 840.9,284.3 841.1,290.0 841.2,289.2 841.4,287.2 841.8,288.4 842.1,292.0 842.4,290.4 842.7,287.2 843.1,288.4 843.6,288.4 843.9,288.0 844.1,282.7 844.3,286.7 844.5,286.7 844.9,288.4 845.4,287.2 845.5,285.9 845.7,288.4 846.0,285.5 846.1,288.8 846.3,287.6 846.5,283.5 846.7,283.1 847.0,281.9 847.2,283.1 847.5,287.2 847.8,289.2 847.9,285.1 847.9,281.9 847.9,283.5 848.0,284.3 848.1,282.7 848.4,284.3 848.6,280.6 848.9,280.6 849.1,281.5 849.4,280.2 849.6,278.6 849.8,277.0 850.0,276.6 850.2,279.8 850.4,276.6 850.6,280.2 851.0,279.4 851.2,278.2 851.4,281.5 851.7,283.1 852.0,286.3 852.3,284.3 852.6,284.3 852.9,285.9 853.1,286.7 853.4,288.4 853.8,287.6 854.1,294.5 854.1,292.9 854.3,295.3 854.4,297.3 854.5,297.7 854.7,293.7 855.0,294.9 855.3,296.9 855.8,297.3 856.1,299.4 856.4,299.0 857.0,296.9 857.3,296.9 857.8,297.7 858.2,297.7 858.7,296.5 859.1,295.3 859.3,294.9 860.0,298.1 860.5,299.8 860.6,303.4 860.9,302.6 861.3,302.2 861.9,303.4 862.6,304.2 863.0,304.2 863.6,305.1 864.1,305.9 864.4,307.9 864.9,307.9 865.4,307.5 866.1,308.7 866.6,306.3 867.2,306.7 867.7,305.9 867.9,309.1 868.1,310.8 868.3,314.4 868.4,318.1 868.4,322.6 868.5,323.4 868.5,322.2 868.6,323.4 868.6,326.6 868.7,333.1 868.7,330.7 868.7,331.5 868.8,335.2 868.8,331.9 868.9,327.0 869.0,326.6 869.1,327.4 869.2,329.9 869.3,332.7 869.4,333.1 869.5,329.1 869.6,327.0 869.7,329.1 869.8,328.3 869.9,327.0 870.1,327.0 870.3,327.4 870.4,325.8 870.6,323.4 870.7,319.3 870.9,319.3 871.0,318.5 871.2,318.9 871.4,324.2 871.6,327.4 871.8,330.3 871.9,329.1 872.2,329.5 872.3,332.3 872.4,334.0 872.5,332.7 872.7,329.9 872.9,337.2 872.9,336.8 873.1,336.8 873.3,338.0 873.5,338.4 873.6,331.9 873.7,331.5 874.0,330.7 874.2,332.7 874.6,331.5 874.9,330.7 875.1,327.9 875.3,326.2 875.5,324.2 875.8,325.8 876.1,324.6 876.6,323.0 877.2,326.2 877.8,327.9 878.2,327.4 878.7,326.6 879.0,325.8 879.3,327.4 879.6,329.5 880.1,327.4 880.4,325.4 880.7,329.1 880.7,330.3 880.7,334.0 880.7,342.5 880.8,346.2 880.8,345.3 880.8,340.1 880.8,336.0 880.9,338.4 880.9,337.2 881.0,334.8 881.1,335.2 881.3,339.7 881.4,340.9 881.5,343.7 881.6,347.0 881.7,347.0 881.8,346.6 881.8,347.0 881.9,341.3 882.0,343.3 882.2,344.9 882.5,342.1 882.8,343.7 883.1,345.3 883.3,344.5 883.6,343.7 883.8,342.1 883.9,340.1 884.1,341.3 884.4,340.9 884.7,344.9 885.1,342.5 885.4,344.5 885.9,347.4 886.2,350.6 886.3,351.9 886.5,354.7 886.6,356.3 886.8,354.7 887.0,351.5 887.1,344.9 887.2,344.9 887.6,345.3 888.1,342.9 888.3,344.9 888.7,349.0 889.0,348.2 889.4,347.8 889.7,349.8 890.0,347.0 890.2,348.6 890.5,349.0 890.8,346.6 891.3,345.8 891.9,346.2 892.4,343.3 892.5,340.1 892.9,342.1 893.2,346.2 893.6,348.6 893.9,348.2 894.3,348.2 894.3,349.4 894.5,349.0 894.9,347.8 895.2,347.0 895.5,344.9 895.6,345.8 895.7,343.7 895.8,345.3 896.0,348.6 896.1,348.2 896.2,348.6 896.4,351.5 896.6,354.3 896.7,355.1 896.7,346.6 896.8,347.0 897.0,346.6 897.2,347.0 897.4,346.6 897.6,347.8 897.8,344.1 897.9,339.7 898.1,343.7 898.3,347.8 898.4,351.0 898.6,351.0 898.7,350.6 898.9,345.8 899.1,347.8 899.3,348.6 899.6,349.4 899.8,352.3 899.9,356.7 899.9,361.2 900.0,355.5 900.1,353.5 900.2,352.3 900.3,348.2 900.4,345.8 900.4,343.7 900.5,343.3 900.6,339.7 900.6,338.4 900.7,338.8 900.9,340.1 901.1,337.2 901.2,340.5 901.4,342.1 901.7,339.2 901.9,342.5 902.1,344.9 902.2,347.8 902.3,345.3 902.4,346.6 902.5,351.9 902.6,348.6 902.7,348.2 902.8,349.0 902.9,349.4 903.2,349.0 903.4,346.6 903.7,349.4 903.9,346.6 904.3,345.8 904.6,348.2 904.9,347.0 905.3,347.8 905.6,349.4 905.9,350.2 906.4,348.2 906.8,349.0 907.4,348.6 907.8,347.4 908.2,349.0 908.6,347.8 909.0,350.6 909.4,347.8 909.9,346.2 910.4,347.0 910.8,346.6 911.2,346.6 912.0,348.2 912.3,349.4 912.7,347.4 913.3,347.0 913.8,350.2 914.0,352.3 914.4,351.0 915.0,353.9 915.2,358.4 915.6,353.9 915.9,356.7 916.0,358.4 916.3,363.3 916.4,361.6 916.4,362.0 916.5,363.3 916.6,360.4 916.8,358.4 917.2,359.2 917.5,358.4 918.0,362.0 918.4,361.6 918.9,359.2 919.4,362.8 919.9,362.0 920.1,364.5 920.4,366.1 920.6,364.5 921.0,364.1 921.4,365.7 921.6,365.7 922.0,366.5 922.0,367.3 922.3,369.0 922.6,368.5 922.7,371.8 922.8,372.6 922.9,375.9 923.0,378.7 923.0,381.6 923.0,383.6 923.0,386.0 923.0,384.0 923.1,384.8 923.1,385.2 923.1,386.4 923.2,386.4 923.2,390.9 923.2,392.6 923.3,390.5 923.3,392.6 923.4,388.9 923.5,389.7 923.6,384.8 923.7,384.8 923.8,380.8 923.8,380.8 923.9,381.2 924.1,381.6 924.2,379.1 924.3,379.1 924.5,380.3 924.7,382.0 924.9,383.2 925.0,384.0 925.1,386.0 925.1,377.1 925.2,377.5 925.3,378.7 925.5,382.4 925.7,384.4 925.8,382.8 925.9,386.0 925.9,386.9 926.1,389.3 926.1,392.6 926.1,395.8 926.2,397.8 926.2,401.9 926.2,413.3 926.2,410.9 926.2,416.6 926.2,411.3 926.2,409.6 926.2,407.2 926.2,403.5 926.2,408.4 926.2,405.2 926.3,403.9 926.3,405.6 926.3,407.6 926.4,407.6 926.4,406.4 926.5,407.6 926.5,408.0 926.6,410.9 926.6,407.2 926.7,408.4 926.8,408.4 926.9,411.7 927.0,407.6 927.1,407.2 927.3,408.0 927.4,408.4 927.5,409.6 927.6,408.8 927.7,407.6 927.8,412.1 927.9,414.9 927.9,417.0 927.9,422.7 927.9,428.8 927.9,435.3 927.9,432.4 928.0,418.6 928.0,415.3 928.0,411.3 928.0,412.9 928.0,414.9 928.1,414.5 928.1,411.7 928.2,414.5 928.3,412.9 928.3,413.3 928.4,412.9 928.4,410.1 928.5,407.2 928.5,406.0 928.6,402.3 928.7,406.8 928.8,407.2 928.9,409.2 929.0,411.3 929.1,412.1 929.2,408.4 929.4,408.0 929.5,407.6 929.7,411.7 929.8,406.0 929.9,411.3 930.1,412.9 930.3,410.1 930.4,411.3 930.6,406.0 930.7,408.4 930.9,409.2 931.0,410.9 931.1,408.0 931.3,401.9 931.4,403.5 931.5,403.1 931.8,403.9 932.0,408.4 932.2,407.6 932.6,409.2 932.9,404.4 933.1,403.5 933.3,398.3 933.3,394.2 933.4,396.2 933.6,395.4 933.9,394.6 934.0,395.0" fill="none" stroke="#d97706" stroke-width="1.2" stroke-linejoin="round" opacity="0.6"/><text x="942" y="472.0" text-anchor="start" font-size="11" fill="#d97706">1.02</text><text x="942" y="396.0" text-anchor="start" font-size="11" fill="#d97706">1.21</text><text x="942" y="320.0" text-anchor="start" font-size="11" fill="#d97706">1.40</text><text x="942" y="244.0" text-anchor="start" font-size="11" fill="#d97706">1.58</text><text x="942" y="168.0" text-anchor="start" font-size="11" fill="#d97706">1.77</text><text x="942" y="92.0" text-anchor="start" font-size="11" fill="#d97706">1.96</text><text x="942" y="80.0" text-anchor="start" font-size="11" font-weight="600" fill="#d97706">price</text>
  <polygon points="97.8,468.0 97.8,453.7 97.8,447.8 127.8,439.4 134.1,442.4 141.5,446.2 148.6,450.9 192.9,427.7 229.7,432.0 234.1,437.3 240.5,443.9 244.4,452.2 244.8,453.9 252.5,455.9 254.9,458.5 279.4,445.7 385.5,436.5 393.2,423.4 399.4,428.1 406.9,434.0 409.8,441.3 421.8,405.2 425.8,411.8 427.0,420.1 427.3,430.4 435.2,379.6 462.9,350.8 486.5,322.0 510.1,329.5 511.4,338.9 512.2,350.6 512.9,365.3 514.4,372.8 515.7,382.2 529.3,336.0 529.6,343.5 530.4,352.9 533.6,364.6 534.1,379.3 544.2,386.8 574.6,349.8 575.0,321.0 575.1,292.3 575.1,299.6 575.1,308.7 575.1,320.1 575.1,334.4 575.1,341.7 579.3,305.8 582.7,313.3 595.5,322.6 609.8,334.4 650.4,276.6 653.0,247.1 653.7,254.6 654.8,264.0 656.7,275.7 759.4,218.0 761.7,225.5 769.7,234.8 772.8,246.6 773.4,261.2 788.5,268.7 789.4,278.1 854.1,289.9 868.6,232.1 872.9,239.6 873.7,249.0 880.7,260.7 919.9,203.0 926.1,174.2 926.2,145.4 927.9,152.9 928.0,162.3 933.3,116.1 933.3,468.0" fill="#16a34a" fill-opacity="0.08"/>
  <polyline points="97.8,453.7 97.8,447.8 127.8,439.4 134.1,442.4 141.5,446.2 148.6,450.9 192.9,427.7 229.7,432.0 234.1,437.3 240.5,443.9 244.4,452.2 244.8,453.9 252.5,455.9 254.9,458.5 279.4,445.7 385.5,436.5 393.2,423.4 399.4,428.1 406.9,434.0 409.8,441.3 421.8,405.2 425.8,411.8 427.0,420.1 427.3,430.4 435.2,379.6 462.9,350.8 486.5,322.0 510.1,329.5 511.4,338.9 512.2,350.6 512.9,365.3 514.4,372.8 515.7,382.2 529.3,336.0 529.6,343.5 530.4,352.9 533.6,364.6 534.1,379.3 544.2,386.8 574.6,349.8 575.0,321.0 575.1,292.3 575.1,299.6 575.1,308.7 575.1,320.1 575.1,334.4 575.1,341.7 579.3,305.8 582.7,313.3 595.5,322.6 609.8,334.4 650.4,276.6 653.0,247.1 653.7,254.6 654.8,264.0 656.7,275.7 759.4,218.0 761.7,225.5 769.7,234.8 772.8,246.6 773.4,261.2 788.5,268.7 789.4,278.1 854.1,289.9 868.6,232.1 872.9,239.6 873.7,249.0 880.7,260.7 919.9,203.0 926.1,174.2 926.2,145.4 927.9,152.9 928.0,162.3 933.3,116.1" fill="none" stroke="#16a34a" stroke-width="2" stroke-linejoin="round"/>
  <line x1="88" y1="102" x2="110" y2="102" stroke="#16a34a" stroke-width="2.5"/><text x="116" y="106" font-size="11.5" fill="#374151">equity</text><line x1="88" y1="118" x2="110" y2="118" stroke="#d97706" stroke-width="2.5" opacity="0.8"/><text x="116" y="122" font-size="11.5" fill="#374151">price</text>
  <text x="78" y="502" text-anchor="start" font-size="12" fill="#6b7280">2026-01-01</text><text x="934" y="502" text-anchor="end" font-size="12" fill="#6b7280">2026-01-31</text>
</svg>
