<?xml version="1.0" encoding="UTF-8"?>
<svg xmlns="http://www.w3.org/2000/svg" width="1000" height="520" viewBox="0 0 1000 520" font-family="ui-sans-serif, system-ui, sans-serif">
  <rect width="1000" height="520" fill="#ffffff"/>
  <text x="78" y="28" font-size="18" font-weight="700" fill="#111827">Zone Recovery — WIFUSDC best setting (equity / PnL)</text>
  <text x="78" y="48" font-size="12.5" fill="#6b7280">lev 5 · ratio 4 · gap 20% · maxSteps 4 · maxDD 60% · random · vip 9  ·  8 series, 100.0% win · vol $7144363 ($230464/day) · fees $604.41</text>
  <text x="78" y="68" font-size="12.5" font-weight="600" fill="#1d4ed8">USDC · BNB −10% · taker 0.0085%</text>
  <text x="934" y="28" text-anchor="end" font-size="18" font-weight="700" fill="#16a34a">+86879 USDT  (+868.79%)</text>
  <line x1="78" y1="468.0" x2="934" y2="468.0" stroke="#e5e7eb" stroke-width="1"/><text x="68" y="472.0" text-anchor="end" font-size="12" fill="#6b7280">0.00</text><line x1="78" y1="392.0" x2="934" y2="392.0" stroke="#e5e7eb" stroke-width="1"/><text x="68" y="396.0" text-anchor="end" font-size="12" fill="#6b7280">34787</text><line x1="78" y1="316.0" x2="934" y2="316.0" stroke="#e5e7eb" stroke-width="1"/><text x="68" y="320.0" text-anchor="end" font-size="12" fill="#6b7280">69575</text><line x1="78" y1="240.0" x2="934" y2="240.0" stroke="#e5e7eb" stroke-width="1"/><text x="68" y="244.0" text-anchor="end" font-size="12" fill="#6b7280">104362</text><line x1="78" y1="164.0" x2="934" y2="164.0" stroke="#e5e7eb" stroke-width="1"/><text x="68" y="168.0" text-anchor="end" font-size="12" fill="#6b7280">139149</text><line x1="78" y1="88.0" x2="934" y2="88.0" stroke="#e5e7eb" stroke-width="1"/><text x="68" y="92.0" text-anchor="end" font-size="12" fill="#6b7280">173936</text>
  <line x1="78" y1="446.2" x2="934" y2="446.2" stroke="#9ca3af" stroke-width="1.5" stroke-dasharray="6 4"/><text x="934" y="440.2" text-anchor="end" font-size="11" fill="#6b7280">start 10000</text>
  <polyline points="78.0,389.7 78.9,388.6 80.1,390.2 81.7,390.0 83.6,390.7 85.0,388.1 86.5,387.5 88.4,386.8 89.0,385.2 90.1,386.7 91.8,385.6 92.7,386.8 94.1,384.3 95.1,382.5 95.7,381.8 96.1,378.9 96.2,376.5 96.5,377.6 96.9,380.8 97.5,377.5 97.9,373.6 98.2,370.8 98.4,370.4 98.9,371.6 99.7,372.2 100.5,370.7 101.0,367.9 101.1,365.5 101.6,368.4 102.1,364.8 102.6,363.9 103.2,364.8 103.7,361.4 104.0,360.6 104.4,354.8 104.6,354.4 104.8,350.6 105.0,355.2 105.3,351.2 105.6,351.9 105.8,355.5 106.0,357.0 106.4,360.8 106.9,361.9 107.4,359.9 107.9,361.2 108.5,364.5 108.9,363.5 109.2,360.0 109.4,357.5 109.6,356.5 109.8,355.0 110.0,354.6 110.3,355.3 110.6,355.0 110.9,357.0 111.3,355.8 111.8,355.3 112.3,355.1 112.6,352.0 112.8,352.5 113.1,355.4 113.5,356.5 114.2,359.8 114.5,362.7 115.1,362.6 115.9,363.3 116.3,362.0 116.8,356.7 116.9,350.0 117.0,353.6 117.2,352.0 117.4,351.1 117.6,352.0 118.0,355.2 118.2,352.3 118.6,354.6 118.9,356.3 119.1,360.6 119.6,359.1 120.1,354.7 120.1,350.6 120.1,349.9 120.2,343.3 120.2,347.6 120.3,346.4 120.4,347.3 120.6,350.8 120.8,348.7 121.0,349.0 121.2,350.5 121.4,350.6 121.7,352.8 121.9,354.0 122.1,357.5 122.2,354.4 122.4,358.4 122.5,351.2 122.5,353.2 122.6,347.8 122.6,349.6 122.7,345.7 122.7,344.2 122.8,349.6 123.0,349.8 123.2,349.4 123.4,349.0 123.6,345.6 123.7,342.9 123.9,342.7 124.0,337.7 124.1,341.3 124.2,341.6 124.4,338.7 124.5,334.5 124.6,336.6 124.7,331.9 124.8,332.0 124.9,333.0 125.0,323.2 125.0,324.9 125.1,323.9 125.1,323.4 125.2,320.1 125.2,320.4 125.3,319.2 125.4,316.8 125.4,316.3 125.5,317.9 125.5,314.4 125.6,312.3 125.6,311.4 125.7,311.0 125.7,310.5 125.8,311.5 125.9,310.5 126.0,311.5 126.1,312.1 126.1,316.8 126.2,316.5 126.3,320.9 126.3,322.4 126.4,323.7 126.6,324.2 126.7,320.8 126.8,321.1 126.9,321.5 126.9,321.8 127.0,326.1 127.2,324.8 127.4,329.7 127.5,329.3 127.6,328.1 127.9,326.8 128.0,330.5 128.3,330.6 128.5,328.8 128.7,328.8 128.9,329.5 129.1,332.8 129.4,332.6 129.7,332.6 130.0,331.3 130.2,329.2 130.4,327.7 130.8,327.1 131.0,326.6 131.1,326.4 131.2,326.9 131.5,324.2 131.8,321.7 132.0,319.1 132.2,323.6 132.5,322.9 132.9,322.4 133.3,323.8 133.6,324.2 133.8,324.3 134.1,323.5 134.2,325.6 134.4,327.5 134.7,325.5 135.2,326.1 135.6,326.9 136.0,323.1 136.4,321.0 136.7,320.1 137.0,320.4 137.4,317.9 137.7,317.2 138.1,318.9 138.7,320.8 139.2,317.1 139.7,322.9 140.0,321.6 140.4,317.5 140.9,323.9 141.0,328.3 141.2,329.5 141.5,329.3 141.7,332.6 141.7,333.5 141.9,334.9 142.1,333.3 142.4,335.0 142.7,333.3 143.0,334.3 143.1,328.4 143.2,327.7 143.3,328.2 143.7,329.0 144.1,327.9 144.4,324.1 144.6,326.5 145.0,329.6 145.4,331.6 145.9,332.5 146.3,331.7 146.9,331.7 147.5,331.0 148.2,331.3 148.9,328.9 149.6,327.8 150.2,326.5 150.6,326.6 151.1,325.5 151.6,324.3 151.8,321.4 152.0,319.5 152.1,314.1 152.2,313.1 152.3,314.5 152.5,315.1 152.7,318.9 153.0,320.4 153.4,319.8 153.7,316.5 153.7,312.9 153.8,309.1 153.8,304.3 153.9,305.3 153.9,305.5 153.9,305.1 153.9,300.8 153.9,312.3 153.9,313.5 154.0,313.1 154.0,316.9 154.0,318.7 154.1,316.7 154.1,315.5 154.3,313.7 154.6,313.6 154.9,315.1 155.3,313.7 155.6,311.7 156.0,315.7 156.4,317.2 156.8,317.1 157.4,316.2 157.8,312.4 158.1,312.0 158.7,311.6 159.2,308.7 159.5,306.1 159.8,302.9 159.9,303.8 160.1,302.8 160.3,305.3 160.6,309.3 160.9,302.9 161.0,302.7 161.1,301.1 161.2,304.4 161.3,305.6 161.5,305.4 161.7,308.4 161.9,304.4 162.0,303.8 162.2,303.5 162.4,305.5 162.7,308.0 163.0,307.5 163.3,303.0 163.5,301.1 163.5,295.3 163.6,294.3 163.7,298.7 163.9,299.5 164.0,301.3 164.2,301.4 164.3,300.0 164.4,295.6 164.5,288.6 164.6,288.6 164.7,289.9 164.8,288.2 164.9,287.8 165.0,289.3 165.1,284.8 165.2,279.9 165.2,285.2 165.3,287.0 165.5,290.0 165.6,290.1 165.8,290.6 165.9,292.9 166.0,290.3 166.2,293.6 166.4,294.6 166.6,295.3 166.8,292.3 166.9,292.1 167.1,288.9 167.1,294.9 167.1,298.1 167.2,296.8 167.5,297.2 167.7,291.5 167.9,293.0 168.2,289.4 168.3,289.9 168.5,287.8 168.6,290.9 168.7,291.3 168.9,290.1 169.1,287.9 169.3,290.9 169.5,291.9 169.7,287.3 169.9,284.6 170.1,290.8 170.2,294.6 170.3,291.4 170.4,286.3 170.5,288.0 170.7,286.2 170.8,284.2 170.9,282.7 171.0,283.8 171.1,283.6 171.3,282.8 171.5,285.8 171.6,282.1 171.6,279.8 171.7,284.1 171.9,280.8 172.0,275.3 172.0,280.2 172.2,278.9 172.3,277.3 172.4,277.2 172.6,275.1 172.7,277.5 172.8,279.9 173.0,276.1 173.1,280.3 173.2,277.8 173.4,275.7 173.5,278.9 173.7,278.2 173.8,274.5 173.9,273.9 174.0,274.8 174.1,271.8 174.2,274.7 174.4,271.5 174.5,273.9 174.6,270.1 174.7,271.5 174.9,271.1 175.0,270.1 175.1,269.4 175.1,268.6 175.2,264.3 175.3,267.7 175.4,271.4 175.5,272.6 175.6,274.5 175.7,275.8 175.8,276.2 175.9,273.4 176.0,272.6 176.1,275.1 176.3,274.5 176.4,271.1 176.5,269.4 176.6,266.7 176.7,263.3 176.8,260.7 176.8,257.2 176.9,253.3 176.9,250.3 177.0,250.9 177.0,252.2 177.0,254.4 177.1,254.4 177.1,252.3 177.2,250.7 177.2,246.4 177.2,248.3 177.3,248.5 177.4,245.5 177.4,249.3 177.5,252.2 177.5,252.7 177.6,248.2 177.6,251.8 177.7,250.0 177.8,251.8 177.9,252.0 177.9,246.4 177.9,240.4 178.0,241.3 178.0,240.3 178.1,236.9 178.1,232.9 178.1,232.2 178.1,230.1 178.2,230.3 178.2,231.4 178.2,226.5 178.2,225.4 178.3,225.6 178.3,226.4 178.3,226.3 178.3,222.4 178.4,221.8 178.4,220.8 178.4,216.3 178.4,216.5 178.4,217.1 178.5,215.8 178.5,215.5 178.5,211.4 178.5,209.5 178.5,210.2 178.6,211.0 178.6,208.0 178.6,205.0 178.6,206.2 178.6,205.5 178.6,205.6 178.6,209.9 178.7,210.2 178.7,208.9 178.7,212.1 178.7,212.7 178.7,216.8 178.8,219.4 178.8,223.7 178.8,223.1 178.8,223.7 178.8,226.8 178.9,227.8 178.9,225.8 178.9,223.5 179.0,225.5 179.0,233.9 179.0,237.8 179.0,236.3 179.0,237.9 179.0,241.6 179.0,240.2 179.1,240.2 179.1,235.0 179.1,236.1 179.2,238.6 179.2,239.8 179.3,238.1 179.3,235.5 179.4,235.3 179.4,238.9 179.5,238.9 179.5,237.5 179.6,240.6 179.7,235.9 179.7,233.9 179.8,237.3 179.9,234.8 180.0,231.4 180.0,234.3 180.1,235.6 180.3,235.7 180.4,235.1 180.5,232.5 180.5,227.2 180.6,230.2 180.7,230.5 180.8,227.4 180.9,228.8 181.0,228.8 181.1,229.5 181.2,227.8 181.3,227.4 181.4,231.4 181.6,230.8 181.7,228.9 181.8,229.8 182.0,230.1 182.1,229.2 182.2,237.2 182.2,234.1 182.3,235.6 182.4,235.7 182.6,235.1 182.7,238.9 182.8,243.9 182.9,242.0 183.0,243.8 183.1,239.9 183.2,238.8 183.3,236.1 183.4,233.6 183.6,236.6 183.8,232.5 183.9,233.2 183.9,227.6 184.0,229.8 184.1,231.6 184.3,233.8 184.5,231.5 184.7,233.4 184.9,232.1 185.1,231.7 185.3,228.3 185.3,229.1 185.4,226.5 185.6,231.5 185.8,231.6 185.9,228.4 186.1,226.7 186.3,224.5 186.4,227.0 186.5,228.3 186.7,226.3 186.9,227.8 187.2,227.8 187.4,223.7 187.6,226.9 187.7,227.6 187.9,229.4 188.1,228.5 188.2,232.1 188.4,230.8 188.5,227.5 188.6,230.9 188.6,233.7 188.7,235.5 188.8,237.0 188.9,241.2 189.0,240.4 189.2,240.9 189.3,241.2 189.4,235.1 189.5,239.2 189.6,239.9 189.7,234.3 189.8,236.3 190.0,235.3 190.1,233.9 190.3,231.7 190.4,236.4 190.6,236.4 190.8,232.2 190.9,234.4 191.1,235.5 191.2,240.3 191.4,237.5 191.5,232.3 191.7,233.7 191.8,233.1 191.9,229.6 192.0,233.0 192.2,235.9 192.3,238.4 192.5,237.1 192.6,237.8 192.8,240.0 193.0,241.5 193.2,242.2 193.4,242.6 193.6,245.5 193.6,248.0 193.7,245.7 193.9,242.9 194.1,242.3 194.3,242.9 194.5,244.2 194.7,240.8 194.8,236.2 195.1,238.4 195.2,242.4 195.4,243.2 195.6,243.0 195.8,247.9 195.9,249.3 196.0,249.0 196.2,250.3 196.5,245.0 196.6,243.5 196.8,246.3 197.1,239.1 197.1,234.6 197.2,232.2 197.3,233.2 197.4,234.3 197.7,237.9 197.8,239.8 198.0,240.0 198.2,242.5 198.4,244.6 198.7,242.6 198.8,248.6 198.9,250.3 199.0,250.4 199.1,250.5 199.2,241.6 199.2,245.7 199.3,245.1 199.5,246.2 199.7,249.6 199.8,248.7 200.1,249.4 200.2,248.9 200.5,249.4 200.7,252.5 200.7,253.9 201.0,251.8 201.2,251.7 201.3,251.8 201.6,251.2 201.9,253.7 202.2,251.7 202.5,251.7 202.8,251.2 203.1,252.3 203.4,249.7 203.6,248.4 203.8,249.2 204.0,245.8 204.2,249.0 204.3,246.4 204.5,245.0 204.8,245.8 205.0,246.6 205.2,244.7 205.3,244.2 205.4,244.4 205.5,246.7 205.6,244.5 205.7,240.9 205.8,244.5 206.0,243.7 206.2,244.5 206.4,241.6 206.5,235.6 206.7,237.6 206.9,235.8 207.0,236.6 207.2,233.8 207.3,235.6 207.4,235.3 207.5,234.2 207.6,234.4 207.7,236.8 207.8,233.7 208.0,236.5 208.3,235.5 208.5,240.8 208.6,236.5 208.8,235.7 208.9,235.2 209.0,227.4 209.0,223.4 209.0,223.1 209.1,226.1 209.1,228.8 209.3,228.9 209.4,228.8 209.5,225.2 209.7,224.7 209.8,222.9 210.0,226.8 210.2,228.5 210.3,229.8 210.5,229.2 210.8,229.0 211.0,225.7 211.2,229.4 211.4,231.7 211.6,229.4 211.7,226.7 211.9,225.1 212.0,222.0 212.0,221.2 212.2,227.0 212.3,226.3 212.5,230.5 212.6,230.3 212.8,230.4 213.0,227.9 213.2,231.5 213.5,228.7 213.9,228.2 214.1,222.8 214.4,222.0 214.7,221.6 215.1,222.5 215.4,227.0 215.8,224.4 216.2,228.1 216.4,225.2 216.5,224.4 216.8,226.3 217.0,225.2 217.1,220.9 217.3,222.5 217.5,222.5 217.6,219.3 217.8,214.3 217.9,221.8 218.1,223.1 218.2,224.0 218.5,224.5 218.7,225.7 219.0,224.1 219.3,222.1 219.6,221.1 219.7,214.1 219.9,216.3 219.9,217.3 220.0,216.8 220.1,208.8 220.2,205.9 220.3,206.6 220.4,206.4 220.4,205.4 220.5,204.7 220.6,205.9 220.7,208.0 220.7,212.6 220.9,215.5 221.0,212.3 221.2,215.6 221.3,219.0 221.4,213.0 221.6,214.0 221.8,218.3 221.9,221.0 222.2,222.1 222.4,222.9 222.6,224.4 222.9,222.9 223.1,224.0 223.3,228.3 223.4,229.6 223.6,227.8 223.8,224.1 224.0,227.4 224.3,228.1 224.6,229.1 224.7,234.3 224.8,231.8 225.0,231.9 225.3,230.1 225.5,225.8 225.7,226.2 225.9,227.7 226.2,227.0 226.5,227.1 226.7,224.4 226.9,222.4 227.2,222.0 227.3,216.9 227.4,214.8 227.6,218.0 227.7,214.2 227.8,207.9 227.9,205.2 228.0,211.5 228.1,210.8 228.2,207.6 228.2,202.2 228.2,201.5 228.3,206.2 228.4,206.4 228.6,208.3 228.7,204.1 228.8,200.1 228.9,196.7 228.9,190.7 228.9,190.6 229.0,189.2 229.1,191.5 229.2,194.0 229.2,186.7 229.3,186.0 229.4,185.8 229.4,180.7 229.4,181.3 229.5,184.4 229.6,184.5 229.7,179.8 229.7,179.4 229.8,184.2 229.8,184.2 229.9,185.2 230.0,182.8 230.0,183.4 230.1,182.9 230.2,184.4 230.4,184.1 230.5,184.7 230.6,180.4 230.7,181.7 230.8,181.2 230.8,171.1 230.8,171.1 230.9,172.5 230.9,166.1 230.9,166.6 230.9,164.0 230.9,166.1 231.0,162.6 231.0,164.5 231.0,159.7 231.1,155.1 231.1,151.6 231.1,148.8 231.1,144.8 231.1,151.0 231.1,150.3 231.1,150.0 231.1,150.7 231.2,149.0 231.2,150.2 231.3,144.9 231.3,143.1 231.3,137.5 231.3,136.5 231.3,136.8 231.4,136.2 231.4,138.1 231.4,138.3 231.5,133.7 231.5,137.6 231.5,136.9 231.6,135.5 231.6,130.1 231.6,120.8 231.6,123.5 231.6,126.4 231.6,119.7 231.6,122.0 231.6,124.4 231.6,127.7 231.7,130.7 231.7,133.5 231.7,132.1 231.8,125.0 231.8,124.9 231.8,121.7 231.8,117.4 231.8,119.5 231.9,120.7 231.9,125.5 231.9,131.7 231.9,129.6 232.0,127.6 232.0,129.8 232.0,133.0 232.1,132.2 232.1,136.2 232.1,136.3 232.2,138.5 232.2,138.6 232.2,142.4 232.2,145.1 232.2,151.8 232.2,149.1 232.3,150.4 232.3,152.2 232.3,155.3 232.3,152.5 232.3,149.7 232.3,147.0 232.4,146.6 232.4,143.2 232.4,144.1 232.4,142.1 232.5,138.1 232.5,136.8 232.5,136.8 232.6,144.4 232.6,143.5 232.7,141.6 232.7,146.8 232.8,145.0 232.9,143.9 232.9,141.9 233.0,144.3 233.0,147.5 233.1,149.1 233.1,151.8 233.2,149.9 233.2,151.1 233.3,151.1 233.3,143.2 233.4,138.8 233.4,141.0 233.4,142.8 233.5,143.9 233.6,147.5 233.6,146.9 233.7,146.8 233.8,150.2 233.9,150.6 234.0,153.1 234.0,155.4 234.0,160.1 234.1,159.4 234.1,178.5 234.1,204.9 234.1,217.4 234.1,197.6 234.1,193.8 234.1,179.1 234.1,188.8 234.1,192.1 234.1,198.7 234.1,187.8 234.1,193.8 234.1,196.6 234.1,189.6 234.1,194.3 234.1,188.2 234.1,194.0 234.1,203.0 234.1,193.6 234.1,201.0 234.1,194.1 234.1,193.8 234.1,190.5 234.1,194.9 234.1,192.2 234.1,193.0 234.1,190.6 234.1,191.6 234.2,194.5 234.2,198.1 234.2,194.5 234.2,194.2 234.2,193.9 234.2,188.8 234.2,187.2 234.2,187.3 234.3,191.8 234.3,192.6 234.3,195.0 234.3,193.8 234.3,196.6 234.3,197.9 234.4,198.2 234.4,202.4 234.4,204.0 234.4,203.4 234.4,203.0 234.4,200.6 234.4,199.3 234.5,198.5 234.5,197.5 234.5,199.0 234.5,197.7 234.6,201.3 234.6,200.8 234.6,206.0 234.6,208.2 234.7,208.4 234.7,210.2 234.7,209.9 234.8,208.0 234.8,214.6 234.8,213.0 234.9,213.3 234.9,213.6 235.0,214.2 235.0,211.3 235.1,206.6 235.1,205.4 235.2,206.8 235.2,207.3 235.3,207.1 235.4,208.3 235.4,204.1 235.5,203.0 235.5,199.6 235.6,198.7 235.7,198.6 235.7,195.9 235.8,192.7 235.8,195.5 235.9,197.4 235.9,199.5 236.0,201.5 236.0,199.6 236.2,194.7 236.2,193.8 236.3,194.1 236.3,193.4 236.4,195.9 236.4,199.0 236.5,198.9 236.5,201.5 236.6,202.8 236.6,202.7 236.7,206.2 236.7,207.4 236.8,204.8 236.8,202.3 236.8,200.9 236.9,200.3 237.0,203.5 237.0,202.7 237.2,205.0 237.3,205.7 237.3,204.4 237.5,206.8 237.7,203.0 237.8,202.2 238.0,203.5 238.1,200.5 238.2,203.7 238.3,207.9 238.4,209.4 238.6,207.1 238.8,210.4 239.0,209.0 239.1,208.4 239.3,209.6 239.5,208.4 239.7,208.3 239.8,207.7 240.0,207.4 240.2,207.0 240.3,206.9 240.5,208.9 240.5,204.1 240.5,201.7 240.6,199.3 240.6,198.2 240.7,201.3 240.8,197.6 240.9,196.6 241.1,197.6 241.2,202.0 241.4,198.5 241.5,201.0 241.7,204.3 241.8,208.2 242.1,207.1 242.3,201.3 242.4,207.0 242.5,207.3 242.7,209.0 243.0,211.1 243.2,207.3 243.5,210.4 243.8,212.8 244.0,214.2 244.4,212.8 244.6,218.3 244.8,220.5 245.0,218.4 245.2,221.1 245.3,222.7 245.5,225.4 245.8,226.2 246.0,226.1 246.3,224.3 246.6,225.2 246.9,222.3 247.3,223.1 247.7,221.1 248.1,225.7 248.6,225.4 249.0,228.7 249.4,231.0 249.8,229.7 250.2,226.1 250.3,225.4 250.6,224.1 250.8,220.8 251.0,223.7 251.3,223.6 251.8,221.2 252.1,221.0 252.4,218.7 252.6,217.8 252.8,217.7 252.9,216.9 253.0,211.8 253.1,210.9 253.2,208.9 253.3,206.7 253.3,207.5 253.4,218.2 253.5,219.3 253.6,219.5 253.8,220.8 253.9,219.6 254.1,221.2 254.2,225.1 254.4,225.4 254.6,226.1 254.7,227.1 254.9,226.5 255.1,227.4 255.3,225.4 255.6,228.3 255.9,226.9 256.3,226.8 256.6,226.8 257.0,226.7 257.5,227.6 257.9,230.1 258.1,229.9 258.5,231.4 258.8,235.2 259.0,231.1 259.4,230.3 259.7,233.2 259.9,235.3 260.1,234.9 260.3,236.1 260.4,235.8 260.5,231.4 260.6,229.5 260.7,229.7 260.9,229.9 261.0,235.7 261.1,235.2 261.3,236.6 261.4,236.5 261.5,240.5 261.6,241.1 261.8,239.7 262.0,239.8 262.2,240.5 262.5,239.8 262.7,243.3 262.9,242.9 263.2,241.0 263.5,238.6 263.9,240.2 264.2,242.6 264.6,243.6 264.9,242.5 265.3,242.6 265.6,242.9 265.9,247.2 266.0,248.6 266.2,245.2 266.5,245.0 266.9,246.0 267.2,247.7 267.6,247.3 268.0,246.7 268.6,246.9 269.1,249.2 269.7,249.0 270.2,251.6 270.5,250.0 270.6,245.0 270.7,247.5 271.1,250.0 271.5,248.6 271.8,249.2 272.1,246.6 272.5,244.4 272.9,245.7 273.4,246.2 273.9,246.3 274.2,245.5 274.6,246.5 275.0,248.5 275.3,252.4 275.6,258.7 275.7,253.9 276.0,253.3 276.4,251.3 276.7,249.8 276.9,251.9 277.3,251.3 277.9,251.6 278.3,252.3 278.6,252.7 278.8,250.5 279.1,250.3 279.3,254.4 279.4,254.7 279.6,254.7 279.8,252.0 280.1,251.3 280.4,249.9 280.7,249.9 281.1,249.2 281.5,253.2 281.7,255.2 282.0,255.6 282.2,258.4 282.5,261.9 282.6,261.1 282.8,265.0 283.0,262.5 283.3,259.7 283.7,259.8 284.0,261.4 284.3,263.7 284.5,261.1 284.9,259.2 285.0,257.0 285.2,255.0 285.3,258.5 285.5,256.9 285.8,259.4 286.2,259.3 286.6,258.8 286.9,259.2 287.3,259.3 287.7,260.5 287.9,266.6 288.0,264.7 288.1,262.4 288.3,263.3 288.4,258.1 288.6,259.0 288.7,258.3 288.8,257.2 289.0,256.3 289.1,252.5 289.3,251.0 289.5,251.7 289.7,246.2 289.8,245.8 289.9,246.3 290.1,247.6 290.4,248.0 290.6,248.4 290.8,250.2 291.0,247.1 291.3,249.6 291.6,249.3 291.9,249.4 292.3,252.0 292.7,252.6 293.1,254.3 293.3,255.8 293.7,259.2 294.2,257.8 294.5,264.1 294.9,263.3 295.3,261.0 295.7,255.9 296.1,255.6 296.6,252.7 296.9,255.2 297.4,258.8 298.1,259.1 298.7,260.5 299.5,260.1 300.3,261.0 300.6,259.0 300.8,265.8 301.2,264.5 301.6,260.8 302.3,263.7 302.8,259.0 303.3,255.2 303.7,256.7 304.4,257.8 305.1,255.9 305.8,257.0 306.5,255.2 307.1,255.3 307.6,255.2 308.1,254.5 308.4,255.2 308.8,256.6 309.0,259.4 309.1,259.4 309.3,255.6 309.5,253.3 309.8,250.4 310.1,250.3 310.5,255.9 311.0,256.3 311.4,252.7 311.8,252.3 312.3,252.3 312.9,254.6 313.3,257.0 313.9,256.1 314.2,252.0 314.4,251.4 314.5,253.8 314.8,255.7 315.2,256.5 315.4,257.6 315.7,259.9 315.8,259.6 315.9,261.8 316.1,260.0 316.3,261.6 316.6,260.5 316.7,254.6 316.7,251.2 316.8,250.0 316.9,252.4 317.0,254.3 317.2,257.4 317.4,252.0 317.6,250.7 317.7,244.6 317.8,249.1 318.0,249.6 318.2,245.3 318.3,241.9 318.4,241.8 318.6,241.2 318.8,249.6 319.0,249.2 319.2,250.9 319.4,245.7 319.6,246.6 319.8,246.2 320.0,251.3 320.1,250.3 320.2,255.3 320.4,251.1 320.6,250.9 320.9,253.3 321.2,255.4 321.5,255.3 321.9,257.2 322.4,257.0 322.7,256.0 323.2,254.5 323.6,252.3 324.0,251.1 324.4,251.0 324.7,250.2 325.3,248.6 326.1,251.2 326.8,253.4 327.3,255.8 327.8,254.6 328.6,256.0 329.5,259.6 330.1,260.4 330.9,261.1 331.4,262.8 332.1,259.8 332.8,261.4 333.4,264.0 334.0,264.1 334.7,263.9 335.4,263.8 336.2,263.5 337.0,262.3 337.6,259.9 338.0,259.7 338.8,258.0 339.4,257.6 340.3,255.8 340.7,252.5 341.3,253.4 341.9,252.5 342.7,252.6 343.2,257.7 343.9,255.8 344.5,258.8 345.4,261.2 346.5,258.1 347.2,261.2 348.2,261.0 348.9,258.0 350.1,258.8 351.4,261.0 352.1,262.0 352.8,264.6 353.5,263.3 354.5,263.3 355.4,260.6 356.4,260.6 357.3,257.7 358.4,257.2 359.2,260.4 360.3,263.0 361.5,263.4 362.2,257.9 363.4,259.0 364.2,257.6 364.8,256.7 365.7,256.7 366.3,257.3 367.2,257.6 368.2,256.0 368.7,254.9 369.2,254.3 369.6,253.1 370.2,256.4 370.8,255.3 371.4,253.6 371.9,257.1 372.3,261.9 372.5,261.9 372.9,261.1 373.1,255.1 373.4,256.6 373.8,257.4 374.4,261.6 374.9,260.1 375.7,260.1 376.3,257.2 376.9,261.8 377.3,265.1 377.5,267.2 377.7,266.7 378.2,263.9 378.6,265.1 379.3,261.7 379.6,268.8 379.8,269.1 380.3,265.3 380.7,273.7 380.9,267.5 381.1,267.4 381.6,265.2 381.9,265.5 382.2,262.3 382.4,264.1 382.7,267.1 382.9,263.3 383.0,257.3 383.1,258.4 383.3,257.7 383.5,258.0 383.7,259.2 384.1,256.7 384.3,254.9 384.5,257.7 384.9,255.8 385.0,252.4 385.3,253.7 385.7,251.0 385.7,248.4 385.9,251.8 386.2,252.6 386.5,255.2 386.8,256.0 387.2,251.3 387.7,251.4 388.2,252.3 388.8,251.7 389.2,253.6 389.6,255.9 390.1,253.3 390.5,259.2 390.7,265.4 390.7,264.5 390.7,266.6 390.7,266.3 390.9,267.4 391.1,266.0 391.4,266.5 391.6,271.1 391.7,272.1 391.9,276.0 392.0,273.1 392.2,271.1 392.5,269.5 392.7,269.7 393.1,270.8 393.3,271.7 393.6,271.2 394.0,270.4 394.3,271.5 394.7,271.2 395.0,270.7 395.3,269.5 395.7,267.8 396.0,268.8 396.3,271.0 396.6,269.9 396.8,273.3 397.1,273.3 397.4,272.0 397.6,273.9 397.9,274.5 398.2,273.9 398.3,274.7 398.3,276.7 398.4,274.0 398.5,270.0 398.5,269.0 398.6,263.3 398.7,266.8 398.8,263.9 399.0,263.1 399.2,265.8 399.4,262.7 399.6,260.8 399.8,261.2 400.0,261.6 400.2,262.4 400.5,262.8 400.7,260.6 400.8,257.9 400.9,260.6 401.1,260.6 401.3,259.1 401.4,258.7 401.6,260.7 401.8,264.3 401.9,265.0 402.0,266.6 402.1,266.7 402.3,266.7 402.6,266.4 402.7,265.7 402.9,264.4 403.0,262.3 403.2,268.1 403.4,266.3 403.7,268.4 403.9,265.7 404.2,265.8 404.5,266.8 404.8,264.4 405.0,264.5 405.3,266.8 405.6,269.2 405.9,270.2 406.0,272.7 406.4,272.5 406.9,273.5 407.1,272.6 407.5,272.8 408.4,274.1 409.1,272.7 409.7,273.5 410.2,272.6 410.7,270.1 411.4,272.1 412.0,267.5 412.7,270.6 413.2,271.7 413.6,275.5 413.9,273.8 414.5,272.5 415.0,270.7 415.4,268.1 415.6,265.8 416.0,268.1 416.4,271.0 416.7,273.5 416.8,269.8 417.3,266.4 417.8,270.1 418.6,269.1 419.3,269.7 419.6,269.2 420.1,266.7 420.5,268.2 420.9,265.0 421.2,266.3 421.9,264.6 422.3,264.6 422.7,260.7 422.9,260.5 423.4,259.9 423.8,258.7 424.3,258.5 424.8,258.8 424.9,253.4 425.0,252.2 425.2,252.2 425.5,254.7 425.7,252.9 426.0,249.4 426.1,244.3 426.2,241.8 426.3,242.9 426.4,246.2 426.6,249.8 426.7,253.7 426.9,253.6 427.1,255.3 427.2,258.7 427.3,253.1 427.3,249.4 427.5,249.2 427.7,250.6 427.8,244.9 427.9,250.3 428.2,248.6 428.2,245.0 428.4,246.2 428.5,248.5 428.7,243.5 428.9,245.0 429.1,247.9 429.3,247.6 429.6,246.2 429.8,245.9 430.1,246.5 430.3,243.9 430.7,246.5 431.0,243.5 431.4,245.8 431.7,243.1 431.9,240.6 432.3,239.9 432.5,239.0 432.8,239.5 433.1,243.9 433.4,241.2 433.7,239.6 434.1,237.2 434.5,237.0 434.8,233.8 434.8,224.2 434.9,217.5 434.9,213.6 434.9,220.2 434.9,219.0 435.0,217.6 435.0,211.7 435.1,212.4 435.1,208.1 435.2,208.4 435.3,213.8 435.4,206.3 435.5,206.8 435.7,202.0 435.8,198.7 435.8,200.3 435.9,202.0 436.0,199.6 436.1,196.1 436.1,204.9 436.1,201.5 436.1,201.7 436.2,206.0 436.3,209.9 436.4,211.1 436.5,213.1 436.6,212.9 436.7,215.3 436.8,217.7 436.9,213.7 437.0,210.1 437.1,213.5 437.1,216.4 437.2,216.7 437.3,216.1 437.4,217.3 437.6,215.6 437.9,214.2 438.1,212.8 438.3,211.3 438.6,212.9 438.7,212.6 439.0,214.1 439.3,215.3 439.5,211.3 439.7,212.2 440.2,210.1 440.3,212.8 440.6,213.1 440.9,210.2 441.2,208.2 441.5,208.3 441.7,213.7 442.1,212.6 442.4,216.3 442.8,216.3 443.1,217.0 443.2,220.1 443.5,218.9 443.7,217.7 444.0,220.8 444.3,221.1 444.6,222.8 445.0,219.3 445.3,219.5 445.6,221.7 445.9,217.1 446.3,215.6 446.6,214.7 446.9,218.7 447.4,217.5 447.7,214.3 448.1,211.4 448.3,211.1 448.7,206.6 448.9,208.8 449.0,210.8 449.3,210.3 449.7,212.6 449.8,214.7 450.0,214.4 450.4,213.8 450.8,215.5 451.0,213.0 451.4,218.0 451.7,217.1 452.2,219.6 452.5,219.7 452.8,222.0 453.1,224.3 453.3,220.2 453.5,220.2 453.7,219.3 453.8,219.3 453.9,219.4 454.0,215.8 454.1,215.0 454.2,217.8 454.3,223.0 454.5,217.5 454.6,215.6 454.7,217.7 454.9,218.0 455.0,222.1 455.2,221.1 455.5,217.6 455.6,215.0 455.6,210.7 455.8,212.4 455.8,204.1 455.9,208.9 456.0,206.1 456.1,210.1 456.2,204.1 456.3,203.5 456.4,210.7 456.5,202.8 456.6,207.5 456.7,205.0 456.8,206.9 457.0,209.1 457.2,211.6 457.3,216.7 457.4,214.2 457.6,218.4 457.8,215.8 458.0,220.4 458.0,223.1 458.1,219.3 458.3,223.5 458.4,226.1 458.5,227.5 458.6,226.5 458.8,222.7 458.9,224.9 459.1,222.2 459.3,220.0 459.4,215.4 459.5,219.7 459.8,216.2 460.0,218.8 460.1,214.1 460.3,215.6 460.5,219.3 460.8,217.5 461.0,219.8 461.2,219.0 461.5,219.5 461.9,221.5 462.2,224.1 462.5,220.2 462.9,220.8 463.1,225.2 463.5,222.8 463.8,219.7 464.3,223.0 464.8,224.4 465.1,225.0 465.4,225.8 465.6,231.1 465.8,228.1 466.0,230.4 466.3,231.8 466.5,230.4 466.9,232.2 467.2,232.5 467.5,237.6 467.7,236.6 467.9,238.6 468.3,239.0 468.5,243.2 468.6,247.6 468.7,247.3 468.9,247.8 469.2,247.8 469.4,245.3 469.7,244.5 470.0,245.3 470.4,243.2 470.8,244.4 471.3,241.8 471.7,242.5 471.9,241.5 472.4,243.8 472.8,240.5 473.2,240.5 473.5,238.1 473.9,240.3 474.4,241.9 474.8,241.2 475.2,243.5 475.7,239.6 475.9,238.8 476.2,241.1 476.6,242.0 477.2,244.6 477.7,244.2 478.2,246.5 478.8,244.2 479.5,242.0 480.1,240.0 480.5,238.6 480.9,238.2 481.3,241.2 481.4,244.6 481.6,244.9 481.7,243.5 481.9,244.6 482.1,244.5 482.3,250.9 482.5,248.4 482.6,257.6 482.6,253.7 482.7,257.8 482.8,260.4 482.9,260.7 483.0,254.6 483.1,257.9 483.3,255.7 483.5,253.6 483.8,254.7 484.0,250.7 484.2,251.6 484.5,253.9 484.8,250.2 485.1,251.0 485.3,255.9 485.5,258.5 485.7,260.7 485.9,259.3 486.1,261.2 486.4,261.3 486.5,262.1 486.8,260.8 487.1,261.9 487.4,260.8 487.7,257.4 488.0,258.7 488.3,258.8 488.7,259.8 489.1,257.4 489.8,256.7 490.3,253.7 490.7,251.8 491.3,254.7 491.7,254.3 492.3,253.7 492.6,252.9 493.0,253.0 493.7,254.4 494.6,256.0 494.9,258.1 495.5,255.3 496.5,257.2 497.1,254.9 497.5,259.4 497.9,259.9 498.5,259.4 498.9,254.9 499.5,256.7 500.2,256.1 500.9,255.0 501.6,253.8 502.0,252.7 502.3,252.5 502.9,254.7 503.9,255.8 505.0,255.1 505.6,255.4 506.4,255.8 507.3,257.7 507.9,261.6 508.3,258.6 508.8,258.4 509.0,259.4 509.3,257.9 509.6,257.2 509.8,263.1 510.0,264.4 510.1,268.8 510.2,268.2 510.3,268.5 510.4,271.8 510.6,269.0 510.7,270.2 510.9,268.5 511.0,265.0 511.3,265.0 511.6,263.5 512.1,266.6 512.5,263.4 512.9,259.8 513.2,260.0 513.6,259.9 514.1,261.3 514.6,262.1 514.8,259.3 515.3,261.9 515.6,258.0 515.9,255.4 516.3,253.6 516.5,251.7 516.7,253.0 517.2,252.9 517.7,254.6 518.2,253.9 518.9,252.5 519.3,251.3 520.0,252.6 520.8,251.7 521.1,251.3 522.2,253.3 522.7,255.2 523.7,255.0 524.2,254.9 525.2,253.6 526.1,253.2 527.0,254.3 528.2,254.7 529.2,254.4 529.6,249.8 530.0,250.5 530.7,251.7 531.6,253.4 532.4,254.5 533.0,253.2 533.9,253.2 534.7,253.9 535.3,256.5 536.0,257.4 536.5,257.1 536.9,253.3 537.4,251.8 537.8,250.7 538.2,251.1 538.8,255.6 539.2,256.0 540.0,256.3 540.9,255.0 542.4,254.1 543.3,255.4 544.6,257.0 545.7,259.2 546.1,262.1 547.0,261.1 547.7,255.9 547.8,252.6 548.1,255.4 548.5,259.3 548.8,265.8 549.2,264.5 549.9,262.6 550.5,265.3 551.4,265.3 552.3,267.0 553.4,264.0 554.1,264.6 555.4,265.1 556.2,267.2 557.0,267.8 557.8,265.1 558.5,264.7 559.6,263.5 560.3,261.8 561.2,263.5 562.3,265.3 562.9,266.8 563.5,266.6 564.0,266.1 564.6,268.1 564.8,268.2 565.5,267.4 566.0,267.1 566.7,266.8 567.4,268.0 568.1,267.2 568.7,262.6 569.1,261.3 569.8,266.3 570.5,269.5 571.2,266.7 571.9,266.4 572.8,267.7 573.9,269.0 574.0,276.7 574.1,274.7 574.3,277.2 574.4,280.9 574.5,285.5 574.6,283.8 574.6,286.0 574.7,286.3 574.8,288.8 574.8,291.6 574.8,293.6 574.9,293.2 575.0,294.2 575.0,302.2 575.1,308.8 575.1,320.1 575.1,327.7 575.1,330.3 575.1,332.8 575.1,319.5 575.1,310.5 575.1,309.3 575.2,310.4 575.2,313.0 575.2,312.4 575.2,314.3 575.3,316.5 575.3,318.2 575.4,313.1 575.4,316.4 575.5,316.1 575.5,317.8 575.6,317.4 575.7,316.8 575.7,316.1 575.8,318.3 575.9,314.5 576.0,314.3 576.2,314.8 576.3,310.1 576.5,311.1 576.6,310.4 576.8,309.1 576.9,307.8 577.1,310.3 577.3,309.3 577.5,309.5 577.9,308.2 578.2,309.1 578.6,308.0 579.1,308.4 579.6,307.6 579.9,307.4 580.4,308.0 580.8,310.4 581.2,311.1 581.4,310.3 581.7,312.2 582.2,311.0 582.6,308.1 582.9,309.3 583.5,305.6 583.7,304.4 584.2,303.6 584.4,300.2 584.5,306.1 584.6,303.8 584.8,305.5 585.1,306.2 585.5,305.5 586.0,305.5 586.6,307.1 587.2,308.9 587.8,307.8 588.4,306.1 588.9,308.7 589.5,308.1 590.1,308.8 590.6,305.4 591.0,307.6 591.5,305.5 591.9,303.6 592.4,302.1 592.9,304.6 593.5,303.8 594.1,300.2 594.4,300.4 594.8,298.2 595.6,299.6 596.4,298.0 597.1,296.7 597.3,294.2 597.6,291.9 597.9,291.2 598.4,289.9 598.8,288.6 599.3,290.5 599.9,290.5 600.5,293.9 600.7,294.8 601.1,296.6 601.6,294.0 601.9,295.7 602.2,292.7 602.7,293.5 603.1,293.6 603.6,293.9 604.0,296.9 604.4,294.9 605.2,296.7 605.8,294.9 606.2,296.3 606.8,297.4 607.4,296.7 608.0,297.0 608.4,298.0 608.7,297.5 609.0,297.3 609.3,295.0 609.4,293.9 609.8,296.3 610.0,298.4 610.2,297.6 610.5,297.2 610.7,298.8 611.1,300.0 611.5,302.2 611.7,304.3 612.0,304.9 612.2,307.0 612.4,305.7 612.6,308.8 612.7,308.4 612.9,307.0 613.1,308.2 613.5,309.0 613.9,309.7 614.3,307.8 614.7,308.2 615.1,308.9 615.6,308.8 616.2,310.7 616.7,310.4 617.2,310.2 617.8,312.4 618.0,315.0 618.3,313.5 618.6,315.8 618.9,313.8 619.2,313.4 619.4,310.8 619.5,303.7 619.6,305.0 619.7,306.9 619.8,307.7 620.0,310.4 620.1,312.4 620.2,311.3 620.3,312.7 620.4,312.5 620.7,313.4 620.9,313.2 621.2,311.1 621.5,312.3 621.7,316.4 621.9,318.5 622.0,316.0 622.1,316.9 622.2,317.6 622.3,314.7 622.4,313.5 622.5,313.8 622.6,314.8 622.7,316.4 622.8,316.0 622.9,316.9 623.0,317.8 623.1,318.1 623.1,318.7 623.2,318.9 623.3,317.7 623.4,317.7 623.5,318.7 623.6,318.4 623.9,318.4 624.2,321.2 624.6,318.9 625.0,320.9 625.2,321.6 625.4,320.9 625.7,320.4 626.0,317.1 626.1,314.1 626.4,315.0 626.7,313.4 627.2,316.7 627.8,316.8 628.5,318.2 628.6,323.8 628.7,321.6 628.8,319.1 628.9,319.2 629.0,318.9 629.4,319.2 629.7,319.6 630.1,319.4 630.5,318.9 630.8,317.5 631.0,314.2 631.2,312.0 631.3,308.3 631.5,307.5 631.8,302.6 632.2,305.4 632.6,301.6 632.9,302.3 633.2,306.6 633.6,305.4 634.1,306.1 634.7,306.3 635.2,306.7 636.1,306.9 636.7,307.8 637.2,307.6 638.0,307.7 638.5,306.0 638.9,305.7 639.4,307.4 639.9,306.8 640.4,309.6 640.8,310.7 641.6,310.8 642.1,309.7 642.9,312.9 643.7,312.5 644.1,315.8 644.3,317.9 644.4,319.7 644.5,321.0 644.8,319.9 645.1,317.9 645.5,317.9 645.8,320.4 646.1,321.5 646.4,321.6 646.5,316.1 646.6,312.5 646.6,309.0 646.7,308.1 646.7,309.1 646.8,306.0 646.9,308.8 647.0,302.9 647.1,305.5 647.2,306.7 647.3,306.7 647.5,304.4 647.7,304.8 647.8,303.8 648.0,303.8 648.2,306.3 648.3,306.8 648.5,305.3 648.7,303.3 649.0,305.7 649.1,309.6 649.3,308.0 649.4,311.8 649.5,314.7 649.6,314.5 649.6,314.3 649.7,316.4 649.8,321.8 649.8,322.4 649.9,320.2 649.9,319.1 650.0,319.0 650.1,321.1 650.1,323.6 650.1,324.5 650.2,322.6 650.2,323.6 650.3,323.2 650.4,324.3 650.4,324.3 650.4,326.8 650.5,326.9 650.6,326.3 650.6,323.4 650.7,323.6 650.8,322.8 650.9,322.8 651.0,322.3 651.2,321.6 651.3,319.6 651.4,321.7 651.5,322.3 651.6,322.9 651.7,324.2 651.8,323.4 651.9,320.4 652.0,318.8 652.2,320.7 652.4,319.7 652.5,319.2 652.6,317.7 652.7,310.8 652.7,309.0 652.7,309.3 652.8,308.9 652.8,308.3 652.8,307.0 652.9,307.1 652.9,304.2 653.0,300.0 653.1,301.9 653.2,303.0 653.4,304.1 653.5,304.6 653.7,308.3 653.9,310.1 654.1,307.0 654.4,303.0 654.5,300.1 654.7,299.5 654.8,297.4 655.0,299.7 655.3,298.2 655.6,299.1 655.9,300.2 656.3,302.3 656.7,304.6 657.1,304.8 657.5,308.0 657.8,309.7 658.0,306.8 658.4,306.7 658.6,303.3 659.0,305.0 659.4,304.8 659.9,306.2 660.5,303.5 661.0,305.6 661.7,308.3 662.1,311.3 662.7,309.0 663.5,307.3 664.1,306.8 665.0,309.6 665.6,308.7 665.7,308.1 665.9,308.2 666.5,309.4 666.8,308.0 667.4,308.7 667.9,309.5 668.5,304.6 669.1,303.8 669.7,306.1 670.3,307.1 670.9,305.7 671.4,309.0 672.1,308.7 672.9,309.7 673.4,308.7 673.7,311.1 674.0,313.1 674.4,314.7 674.7,315.0 674.8,314.9 674.9,319.1 675.1,318.5 675.4,317.1 675.6,320.4 675.7,321.6 675.9,320.1 676.1,317.7 676.4,317.6 676.7,316.8 676.9,316.5 677.2,311.5 677.5,313.2 677.8,311.8 678.2,315.5 678.6,310.8 678.9,312.4 679.3,314.0 679.8,315.6 680.1,316.3 680.4,313.2 680.8,313.1 681.3,315.6 681.8,317.4 682.4,315.8 683.0,315.8 683.6,315.1 684.4,317.2 684.9,316.0 685.7,314.9 686.3,314.0 686.9,312.0 687.2,309.5 687.7,308.8 688.2,310.0 689.1,309.7 689.8,307.8 690.7,308.0 691.4,307.0 692.1,306.2 692.5,304.8 693.0,307.8 693.6,308.8 694.4,307.6 695.2,308.2 695.6,312.8 696.2,312.3 696.8,312.0 697.4,312.4 698.1,313.5 698.8,311.7 699.6,312.5 700.5,311.7 701.4,312.7 702.2,312.1 702.3,317.7 702.5,320.1 702.6,320.4 702.9,318.5 703.1,320.5 703.3,317.2 703.6,314.8 703.8,312.0 704.0,309.0 704.2,311.0 704.5,313.4 704.7,306.3 704.9,307.6 705.3,310.3 705.5,303.8 705.6,299.4 705.8,298.8 705.9,303.1 706.2,306.6 706.4,304.0 706.6,306.0 706.9,304.6 707.3,306.1 707.6,309.4 707.8,311.1 708.0,315.6 708.2,315.2 708.5,316.1 708.8,313.8 709.1,318.3 709.4,319.1 709.7,316.2 710.1,315.1 710.9,314.4 711.6,313.1 712.2,313.7 712.6,314.0 712.9,313.7 713.8,314.2 715.0,317.7 716.2,315.0 717.0,312.1 717.6,311.8 718.6,311.5 719.8,312.5 720.9,310.2 722.2,312.2 723.6,311.8 725.7,310.1 726.9,309.0 728.4,310.8 729.4,310.9 730.6,310.3 731.4,315.4 732.0,316.7 732.8,316.2 733.7,314.2 734.8,314.3 735.9,315.4 737.1,313.7 739.2,313.8 740.5,314.5 741.6,315.5 742.6,316.9 743.1,315.1 744.4,316.8 744.8,320.2 745.4,318.7 746.4,319.0 747.3,319.8 748.4,318.9 749.3,319.4 750.7,319.8 751.2,320.2 752.1,317.4 752.8,313.7 754.0,315.8 754.8,317.8 755.5,318.3 756.3,319.7 757.0,319.7 757.4,321.5 757.8,321.9 758.4,321.0 759.0,320.4 759.2,324.3 759.2,325.0 759.3,327.1 759.4,327.7 759.5,329.2 759.6,329.8 759.7,328.4 759.9,328.3 760.3,327.2 760.6,329.1 760.9,329.2 761.4,329.6 761.7,333.6 761.8,331.0 762.0,332.4 762.2,333.7 762.4,334.5 762.7,332.6 763.0,335.7 763.1,338.4 763.2,338.5 763.6,339.3 763.6,342.4 763.9,339.8 764.2,339.3 764.5,340.0 764.8,337.0 765.1,334.4 765.6,335.0 766.2,334.9 766.8,335.8 767.3,334.3 767.8,333.9 768.4,333.7 768.7,331.1 769.3,330.6 769.7,326.3 769.9,324.8 770.2,325.4 770.6,324.9 771.1,326.4 771.6,325.7 772.3,326.8 772.9,328.5 773.5,323.8 774.2,325.9 775.2,324.6 776.1,323.4 776.7,323.8 777.5,323.1 778.0,320.7 778.8,324.9 779.7,325.9 781.0,323.6 782.2,321.4 783.3,322.4 784.3,321.8 785.0,323.2 785.1,317.0 785.3,317.7 785.6,317.7 785.8,314.1 786.0,315.8 786.3,318.8 786.5,321.5 786.9,320.8 787.2,319.2 787.5,321.1 787.9,320.1 788.3,321.9 788.8,321.4 789.5,320.2 789.8,319.6 790.4,318.9 791.3,321.1 792.2,321.2 793.1,321.0 793.5,318.2 794.4,319.2 795.4,320.8 796.4,322.6 797.5,322.3 798.0,320.1 798.5,319.8 799.4,321.0 800.5,322.8 801.4,322.5 802.4,323.5 803.9,323.9 805.2,322.1 806.3,323.0 807.4,324.2 808.7,324.4 810.2,325.0 811.3,326.9 812.3,325.9 812.7,325.1 813.1,327.3 813.5,324.9 814.1,324.1 814.4,321.0 814.6,315.5 814.8,316.2 815.0,315.8 815.3,316.3 815.7,320.4 815.9,324.8 816.2,323.5 816.4,326.6 816.7,323.5 817.1,324.1 817.6,321.9 817.9,320.5 818.4,321.9 818.9,320.5 819.3,317.9 819.5,316.5 819.8,319.6 820.1,316.5 820.5,317.2 820.9,319.2 821.5,320.3 822.1,320.5 823.1,324.4 823.6,326.4 824.2,330.2 824.7,325.4 825.3,328.2 826.2,326.9 826.8,326.8 827.4,326.2 828.2,327.1 829.0,328.4 829.9,328.4 830.5,324.2 831.1,323.1 831.7,321.6 832.2,324.5 832.9,325.9 833.6,327.3 834.5,327.1 835.0,322.8 835.5,325.9 836.4,327.8 837.1,325.6 837.4,323.6 837.7,325.1 838.4,326.8 838.9,325.4 839.4,324.6 840.0,329.2 840.4,326.5 840.7,328.8 841.1,330.8 841.1,331.8 841.4,331.5 841.8,332.2 842.2,334.4 842.6,332.6 843.2,333.3 843.7,338.2 844.1,334.3 844.3,335.5 844.6,335.5 845.1,335.8 845.5,335.6 845.7,334.8 846.0,332.8 846.2,335.5 846.5,331.9 846.9,332.4 847.2,328.6 847.6,331.5 847.8,334.0 847.9,330.8 848.2,331.1 848.7,329.6 849.2,331.6 849.5,327.9 850.0,326.6 850.4,326.8 850.9,329.3 851.3,331.1 851.8,331.9 852.2,333.2 852.8,334.4 853.1,336.3 853.6,337.1 854.1,342.6 854.1,342.9 854.3,342.7 854.5,344.4 854.7,341.4 855.1,342.3 855.7,342.4 856.1,344.3 856.9,342.9 857.7,342.5 858.6,343.1 859.5,344.4 860.4,345.3 861.0,345.2 861.9,347.0 862.6,350.7 863.6,350.4 864.4,351.9 865.4,351.1 866.2,350.6 867.1,349.1 867.8,348.4 868.1,349.8 868.3,352.6 868.4,357.0 868.4,358.7 868.5,359.8 868.6,363.3 868.7,368.6 868.7,366.4 868.8,367.3 868.9,364.0 869.0,361.5 869.2,363.8 869.2,366.4 869.3,366.9 869.4,365.2 869.4,362.7 869.5,361.3 869.6,363.0 869.7,363.3 869.8,364.2 869.9,360.2 870.0,360.7 870.1,362.2 870.2,361.5 870.3,361.2 870.4,360.4 870.6,358.8 870.7,356.7 870.8,356.5 871.0,356.0 871.2,355.1 871.3,358.3 871.5,359.9 871.7,361.7 871.9,361.9 872.1,361.7 872.2,364.9 872.4,365.9 872.5,365.2 872.7,364.6 872.9,367.5 872.9,368.6 873.0,369.9 873.2,368.2 873.3,368.5 873.5,369.8 873.6,365.3 873.8,366.0 874.0,365.3 874.3,366.4 874.6,365.5 875.0,364.6 875.2,362.5 875.4,361.1 875.9,362.0 876.7,360.5 877.7,362.7 878.5,360.5 879.3,360.0 880.2,357.9 880.7,360.2 880.7,363.7 880.8,375.8 880.8,372.0 880.8,368.6 880.8,368.8 880.9,367.2 880.9,364.8 881.0,363.4 881.1,363.8 881.3,365.7 881.5,367.9 881.7,369.1 881.9,362.2 882.2,364.6 882.6,364.2 883.2,366.5 883.6,365.3 883.9,362.0 884.5,362.6 885.2,362.8 885.9,365.4 886.4,369.5 886.7,369.1 887.0,368.2 887.2,364.4 887.8,366.7 888.3,365.5 888.7,369.4 889.3,368.6 889.8,367.8 890.3,368.8 890.8,366.9 891.4,367.3 892.2,365.1 892.6,361.0 893.2,363.5 893.8,365.5 894.3,367.2 894.5,364.8 894.9,365.9 895.2,363.4 895.5,362.4 895.7,360.0 895.9,363.9 896.1,361.8 896.4,363.0 896.6,367.7 896.8,361.8 897.0,362.1 897.3,362.7 897.7,366.4 897.9,362.8 898.2,363.1 898.5,365.2 898.8,361.7 899.0,364.1 899.4,363.9 899.8,366.1 899.9,372.0 900.0,369.9 900.2,370.2 900.3,364.6 900.4,362.8 900.6,362.1 900.7,361.3 900.9,363.2 901.1,361.8 901.4,365.9 901.8,364.4 902.1,367.5 902.3,368.5 902.5,367.9 902.6,370.5 902.8,370.5 903.0,370.9 903.3,368.1 903.7,371.5 904.0,370.0 904.5,371.8 905.4,370.7 906.1,369.2 906.8,370.0 907.7,369.3 908.6,370.1 909.3,370.6 910.2,370.5 911.5,370.8 912.4,373.2 913.4,374.3 913.9,377.4 914.5,376.1 915.1,378.8 915.4,378.6 915.9,379.2 916.2,379.9 916.4,381.0 916.5,380.7 916.7,378.2 917.3,378.0 917.9,378.3 918.7,377.3 919.9,379.6 920.6,381.0 921.3,382.3 921.7,384.6 922.1,385.9 922.6,385.2 922.8,386.8 922.9,390.7 923.0,396.2 923.0,395.7 923.1,395.6 923.1,397.0 923.2,397.1 923.3,398.1 923.3,402.3 923.4,400.9 923.5,397.7 923.7,395.7 923.8,393.5 924.0,396.4 924.1,396.8 924.4,397.0 924.6,397.5 924.8,399.4 925.0,399.0 925.1,397.6 925.2,395.0 925.3,396.9 925.5,397.7 925.7,400.9 925.8,400.3 925.9,401.5 926.1,403.5 926.1,407.5 926.2,411.5 926.2,421.3 926.2,419.2 926.2,415.2 926.2,415.5 926.3,412.9 926.3,413.0 926.3,413.9 926.4,415.2 926.4,415.8 926.4,415.4 926.5,416.4 926.5,415.8 926.6,418.6 926.6,415.7 926.7,415.1 926.8,416.8 926.8,417.6 926.9,418.2 927.0,417.5 927.1,416.2 927.2,418.2 927.3,417.5 927.4,418.4 927.5,419.0 927.5,418.8 927.7,419.9 927.8,422.5 927.8,423.5 927.9,426.4 927.9,429.9 927.9,438.7 928.0,431.5 928.0,427.7 928.0,422.5 928.0,423.5 928.0,422.4 928.1,422.6 928.2,424.1 928.2,422.4 928.3,420.8 928.3,420.8 928.4,420.9 928.5,418.5 928.5,418.9 928.6,417.9 928.7,420.1 928.8,419.7 929.0,423.9 929.2,422.5 929.4,421.7 929.6,421.0 929.8,418.3 930.1,422.4 930.3,419.5 930.6,417.7 930.8,420.4 931.1,420.3 931.3,415.9 931.5,415.9 931.8,415.8 932.3,417.0 932.8,416.5 933.2,412.4 933.3,408.3 933.5,408.0 933.8,409.1 934.0,408.1" fill="none" stroke="#d97706" stroke-width="1.2" stroke-linejoin="round" opacity="0.6"/><text x="942" y="472.0" text-anchor="start" font-size="11" fill="#d97706">0.20</text><text x="942" y="396.0" text-anchor="start" font-size="11" fill="#d97706">0.27</text><text x="942" y="320.0" text-anchor="start" font-size="11" fill="#d97706">0.33</text><text x="942" y="244.0" text-anchor="start" font-size="11" fill="#d97706">0.40</text><text x="942" y="168.0" text-anchor="start" font-size="11" fill="#d97706">0.46</text><text x="942" y="92.0" text-anchor="start" font-size="11" fill="#d97706">0.53</text><text x="942" y="80.0" text-anchor="start" font-size="11" font-weight="600" fill="#d97706">price</text>
  <polygon points="124.0,468.0 124.0,446.2 124.0,437.1 165.2,424.2 176.7,428.8 228.9,406.0 230.8,412.5 234.1,420.6 398.3,380.3 435.1,343.9 458.4,356.9 575.1,292.3 597.6,310.7 612.1,333.6 880.7,219.5 926.2,116.1 926.2,152.9 927.9,198.9 931.3,256.3 931.3,468.0" fill="#16a34a" fill-opacity="0.08"/>
  <polyline points="124.0,446.2 124.0,437.1 165.2,424.2 176.7,428.8 228.9,406.0 230.8,412.5 234.1,420.6 398.3,380.3 435.1,343.9 458.4,356.9 575.1,292.3 597.6,310.7 612.1,333.6 880.7,219.5 926.2,116.1 926.2,152.9 927.9,198.9 931.3,256.3" fill="none" stroke="#16a34a" stroke-width="2" stroke-linejoin="round"/>
  <line x1="88" y1="102" x2="110" y2="102" stroke="#16a34a" stroke-width="2.5"/><text x="116" y="106" font-size="11.5" fill="#374151">equity</text><line x1="88" y1="118" x2="110" y2="118" stroke="#d97706" stroke-width="2.5" opacity="0.8"/><text x="116" y="122" font-size="11.5" fill="#374151">price</text>
  <text x="78" y="502" text-anchor="start" font-size="12" fill="#6b7280">2026-01-01</text><text x="934" y="502" text-anchor="end" font-size="12" fill="#6b7280">2026-01-31</text>
</svg>
