<?xml version="1.0" encoding="UTF-8"?>
<svg xmlns="http://www.w3.org/2000/svg" width="1000" height="520" viewBox="0 0 1000 520" font-family="ui-sans-serif, system-ui, sans-serif">
  <rect width="1000" height="520" fill="#ffffff"/>
  <text x="78" y="28" font-size="18" font-weight="700" fill="#111827">Zone Recovery — SUIUSDT best setting (equity / PnL)</text>
  <text x="78" y="48" font-size="12.5" fill="#6b7280">lev 4 · ratio 4 · gap 20% · maxSteps 4 · maxDD 20% · random · vip 9  ·  4 series, 100.0% win · vol $81230157 ($2620329/day) · fees $12428</text>
  <text x="78" y="68" font-size="12.5" font-weight="600" fill="#1d4ed8">USDT · BNB −10% · taker 0.0153%</text>
  <text x="934" y="28" text-anchor="end" font-size="18" font-weight="700" fill="#16a34a">+6544372 USDT  (+6.54%)</text>
  <line x1="78" y1="468.0" x2="934" y2="468.0" stroke="#e5e7eb" stroke-width="1"/><text x="68" y="472.0" text-anchor="end" font-size="12" fill="#6b7280">0.00</text><line x1="78" y1="392.0" x2="934" y2="392.0" stroke="#e5e7eb" stroke-width="1"/><text x="68" y="396.0" text-anchor="end" font-size="12" fill="#6b7280">23085536</text><line x1="78" y1="316.0" x2="934" y2="316.0" stroke="#e5e7eb" stroke-width="1"/><text x="68" y="320.0" text-anchor="end" font-size="12" fill="#6b7280">46171073</text><line x1="78" y1="240.0" x2="934" y2="240.0" stroke="#e5e7eb" stroke-width="1"/><text x="68" y="244.0" text-anchor="end" font-size="12" fill="#6b7280">69256609</text><line x1="78" y1="164.0" x2="934" y2="164.0" stroke="#e5e7eb" stroke-width="1"/><text x="68" y="168.0" text-anchor="end" font-size="12" fill="#6b7280">92342146</text><line x1="78" y1="88.0" x2="934" y2="88.0" stroke="#e5e7eb" stroke-width="1"/><text x="68" y="92.0" text-anchor="end" font-size="12" fill="#6b7280">115427682</text>
  <line x1="78" y1="138.8" x2="934" y2="138.8" stroke="#9ca3af" stroke-width="1.5" stroke-dasharray="6 4"/><text x="934" y="132.8" text-anchor="end" font-size="11" fill="#6b7280">start 100000000</text>
  <polyline points="78.0,319.0 78.7,316.4 79.3,315.6 79.9,318.1 80.7,317.6 81.2,317.8 82.1,318.8 82.7,320.7 83.3,321.2 84.1,319.9 84.9,319.6 85.7,319.9 86.6,320.0 87.4,318.1 88.2,318.1 88.7,315.3 89.5,317.1 90.3,318.1 91.1,316.3 92.0,316.2 92.6,318.0 93.4,317.9 94.1,315.9 94.6,315.6 95.2,313.0 95.7,313.9 96.1,311.0 96.2,311.8 96.5,309.5 96.8,310.7 97.2,309.5 97.6,309.5 98.0,305.4 98.2,305.2 98.5,306.2 99.0,306.4 99.5,308.0 100.4,306.7 101.0,304.1 101.4,303.4 102.0,304.0 102.8,304.0 103.5,300.8 104.0,300.3 104.5,297.2 104.7,297.3 105.1,297.2 105.6,295.8 105.9,297.7 106.4,299.6 107.0,298.5 107.6,299.0 108.1,299.4 108.7,297.6 109.1,294.9 109.3,291.9 109.5,291.5 109.8,289.9 109.9,288.7 110.2,288.2 110.4,288.7 110.8,290.9 111.3,291.2 111.8,292.4 112.3,291.3 112.7,290.0 113.3,288.6 113.7,289.3 114.3,290.8 114.9,291.4 115.4,290.3 116.0,288.7 116.2,286.2 116.6,286.4 116.9,283.4 116.9,280.4 117.0,281.0 117.2,279.9 117.4,280.1 117.6,281.9 118.0,281.5 118.4,284.0 118.9,284.1 119.2,285.9 119.6,284.7 120.1,283.0 120.2,280.8 120.5,280.2 120.9,280.7 121.3,280.0 121.8,278.7 122.0,281.6 122.1,285.2 122.3,281.4 122.4,285.5 122.5,280.1 122.6,279.9 122.6,275.5 122.7,274.1 122.7,277.2 122.9,275.9 123.0,278.4 123.2,279.1 123.3,282.1 123.5,279.3 123.6,274.9 123.8,273.7 123.9,277.0 124.1,276.2 124.3,273.8 124.4,270.5 124.5,268.4 124.6,269.6 124.7,267.0 124.7,265.4 124.8,267.1 125.0,263.3 125.1,265.4 125.2,261.6 125.3,262.0 125.5,261.4 125.6,263.2 125.8,265.1 126.1,264.7 126.3,263.2 126.5,263.2 126.8,261.4 127.1,264.1 127.3,267.7 127.6,264.9 127.9,262.4 128.2,260.2 128.4,258.3 128.7,256.9 128.9,255.7 129.0,251.7 129.1,253.0 129.4,250.9 129.6,251.5 129.8,250.6 130.1,252.5 130.4,247.8 130.6,246.4 130.8,242.9 130.8,244.7 131.0,242.0 131.2,246.8 131.5,247.4 131.8,246.9 132.1,250.2 132.6,249.7 133.0,252.0 133.4,250.9 133.7,245.5 134.0,243.8 134.1,238.6 134.4,241.2 134.6,239.5 134.9,239.3 135.1,235.3 135.1,233.3 135.3,230.1 135.5,232.4 135.6,237.6 135.9,238.3 136.2,236.3 136.5,233.8 136.7,232.2 137.1,233.7 137.5,229.9 137.8,229.2 138.0,230.1 138.4,230.0 138.7,230.6 139.1,230.6 139.5,231.5 139.8,235.2 140.1,230.8 140.3,227.0 140.5,227.7 140.8,230.2 141.0,235.6 141.2,237.4 141.5,237.5 141.6,241.5 141.7,246.1 141.7,246.8 141.9,250.0 142.0,246.6 142.2,246.1 142.5,245.7 142.7,245.6 143.0,245.0 143.2,243.2 143.5,243.4 143.9,245.6 144.3,241.3 144.5,237.5 144.8,238.5 145.1,241.4 145.5,240.7 146.0,242.7 146.5,243.4 147.0,241.0 147.5,242.6 147.9,243.5 148.2,245.0 148.4,239.0 148.7,239.0 149.0,236.8 149.4,237.0 149.8,234.7 150.0,233.2 150.3,233.2 150.6,234.7 150.9,237.1 151.3,236.3 151.7,238.6 152.0,234.9 152.3,233.6 152.7,236.2 153.2,237.0 153.8,236.3 154.4,235.2 155.1,234.3 155.8,236.3 156.4,241.4 156.7,239.5 157.3,239.4 158.0,237.9 158.6,240.1 159.2,236.3 159.7,234.4 160.3,234.4 160.8,232.9 160.9,225.5 161.0,226.5 161.0,228.2 161.2,227.4 161.4,230.1 161.6,231.1 161.9,228.9 162.1,227.5 162.5,228.2 163.0,229.9 163.4,229.5 163.7,223.9 164.0,228.0 164.3,225.1 164.5,220.1 164.5,218.3 164.7,221.1 164.9,221.6 165.1,220.0 165.4,220.9 165.7,220.1 166.1,218.6 166.4,219.9 166.8,222.8 167.2,221.6 167.6,223.5 168.0,220.3 168.3,222.9 168.6,225.5 169.0,226.1 169.4,225.7 169.8,222.8 170.1,228.4 170.4,224.4 170.8,225.7 171.3,225.1 171.7,223.5 172.0,220.6 172.3,219.4 172.7,220.0 173.0,216.7 173.2,217.7 173.6,220.3 173.9,221.9 174.4,221.4 174.8,222.4 175.1,220.6 175.4,222.8 175.8,223.6 176.0,224.3 176.4,224.3 176.9,223.2 177.3,223.1 177.6,226.0 178.0,223.1 178.3,221.3 178.8,222.8 179.1,221.5 179.4,218.4 179.7,220.0 180.0,218.7 180.4,218.6 180.7,216.5 180.9,215.8 181.1,213.3 181.4,210.1 181.4,206.7 181.4,206.8 181.6,208.7 181.8,212.9 182.1,216.3 182.3,217.7 182.6,213.9 182.8,220.7 182.9,222.4 183.1,220.0 183.5,220.5 184.0,219.1 184.4,214.2 184.6,211.9 185.0,217.1 185.3,215.7 185.8,220.0 186.2,217.6 186.6,218.7 187.3,218.2 187.4,221.8 187.5,221.2 187.6,223.8 187.6,226.6 187.7,224.7 187.9,224.9 188.2,225.4 188.5,223.9 188.5,222.0 188.7,224.1 188.9,225.3 189.1,222.5 189.3,221.3 189.4,218.1 189.6,219.3 189.7,214.3 189.8,215.7 190.0,216.3 190.3,212.9 190.3,209.9 190.4,208.5 190.6,210.5 190.8,213.6 190.9,217.8 191.2,217.8 191.4,220.0 191.7,219.6 192.0,219.6 192.3,220.4 192.6,220.4 193.1,220.4 193.4,224.2 193.6,229.5 193.7,230.3 193.9,230.2 194.2,228.5 194.5,228.1 194.9,225.0 195.2,227.2 195.4,228.6 195.8,231.6 196.0,234.3 196.2,230.1 196.6,228.8 197.0,227.8 197.4,225.8 197.8,224.4 198.1,223.0 198.5,226.8 198.9,229.6 199.2,227.7 199.6,226.1 199.9,227.6 200.3,224.3 200.6,227.7 201.0,226.0 201.5,227.5 201.9,227.1 202.4,227.8 203.0,228.4 203.4,227.1 203.8,228.9 204.2,229.5 204.5,228.4 204.7,233.2 204.8,231.1 205.2,231.9 205.3,233.1 205.3,228.1 205.4,224.7 205.5,226.5 205.7,225.0 205.8,226.8 206.0,227.1 206.2,228.0 206.4,222.6 206.5,218.9 206.6,220.4 206.9,218.5 207.0,219.9 207.2,219.2 207.4,218.8 207.6,217.5 207.8,217.1 208.1,215.8 208.4,217.5 208.5,220.9 208.8,217.3 209.0,215.3 209.1,211.7 209.2,211.2 209.3,210.4 209.5,208.2 209.7,205.4 209.7,203.9 209.8,201.4 210.0,202.4 210.1,195.2 210.2,194.4 210.3,194.8 210.4,196.7 210.5,195.6 210.7,194.9 210.8,193.9 210.9,188.8 211.0,186.6 211.0,182.0 211.0,183.3 211.1,185.8 211.2,185.1 211.3,181.3 211.4,176.9 211.5,175.4 211.5,172.8 211.6,167.8 211.6,161.0 211.6,164.1 211.6,165.6 211.7,170.1 211.7,164.1 211.8,163.5 211.9,162.7 211.9,160.0 212.0,157.6 212.0,153.6 212.0,149.5 212.0,150.8 212.1,149.4 212.1,158.2 212.1,159.1 212.2,155.8 212.3,158.8 212.3,155.8 212.4,161.3 212.5,161.8 212.6,158.6 212.7,154.6 212.7,157.5 212.8,159.6 212.9,158.4 213.0,156.7 213.2,160.4 213.3,158.2 213.5,153.6 213.6,155.7 213.8,159.3 213.9,158.7 214.1,155.3 214.2,153.9 214.4,150.1 214.5,149.4 214.5,143.7 214.6,140.0 214.6,142.1 214.7,148.3 214.7,151.2 214.8,150.4 214.9,149.5 215.1,151.1 215.2,148.4 215.4,152.7 215.6,153.5 215.8,155.0 216.0,156.2 216.1,149.2 216.2,151.7 216.3,148.3 216.4,148.9 216.5,141.9 216.5,142.5 216.6,139.0 216.7,141.1 216.7,143.3 216.8,144.6 216.9,143.0 216.9,140.9 217.0,136.9 217.1,142.0 217.1,135.9 217.2,135.7 217.2,129.7 217.3,127.4 217.3,129.5 217.3,133.7 217.4,136.3 217.5,135.5 217.6,138.3 217.7,135.9 217.8,133.0 217.8,133.5 218.0,136.6 218.1,137.4 218.2,141.2 218.3,141.9 218.5,141.0 218.6,139.9 218.8,141.7 218.9,139.2 219.1,142.0 219.2,144.1 219.4,143.0 219.6,138.6 219.8,139.8 220.0,143.1 220.2,140.4 220.3,144.4 220.5,144.0 220.7,141.9 220.9,143.1 221.2,143.5 221.3,141.7 221.6,141.7 221.8,140.7 222.0,140.1 222.1,137.4 222.3,135.4 222.4,133.8 222.5,131.0 222.6,133.4 222.7,133.6 222.8,131.6 223.0,132.2 223.1,132.1 223.2,131.4 223.3,134.8 223.4,136.2 223.6,133.4 223.7,131.4 223.8,129.8 223.9,129.9 224.0,130.0 224.2,131.9 224.4,132.3 224.6,135.3 224.7,137.6 224.8,134.1 224.9,139.5 225.0,138.5 225.1,141.7 225.2,137.0 225.3,133.2 225.4,130.5 225.5,129.5 225.5,130.1 225.6,129.5 225.7,131.8 225.9,132.9 226.0,132.5 226.1,131.9 226.3,131.0 226.4,136.0 226.6,131.3 226.8,132.8 227.0,135.1 227.2,140.0 227.4,139.1 227.6,140.4 227.8,137.4 228.0,139.0 228.2,136.1 228.5,133.8 228.7,135.2 228.9,135.8 229.1,133.4 229.4,134.8 229.6,131.1 229.8,130.2 229.9,130.4 230.0,124.2 230.0,119.6 230.0,120.3 230.0,125.4 230.1,130.9 230.2,131.3 230.3,131.3 230.5,130.6 230.6,128.1 230.7,132.1 230.9,130.5 231.1,131.6 231.2,129.8 231.4,128.3 231.6,126.2 231.8,126.9 232.0,129.1 232.1,128.9 232.3,122.9 232.3,121.7 232.4,120.4 232.5,122.3 232.6,123.6 232.6,124.4 232.7,129.9 232.8,131.5 232.8,131.3 232.9,134.3 233.0,132.1 233.1,133.3 233.1,135.7 233.2,137.8 233.3,137.5 233.4,135.0 233.5,133.5 233.6,132.5 233.7,129.8 233.9,129.7 234.0,134.6 234.1,137.1 234.2,140.0 234.3,136.7 234.4,139.5 234.5,137.0 234.6,143.0 234.6,145.6 234.6,146.9 234.7,143.6 234.9,145.1 234.9,150.7 234.9,150.9 235.0,155.0 235.0,158.6 235.0,157.9 235.1,159.5 235.1,160.1 235.1,159.9 235.2,160.1 235.3,163.1 235.3,165.3 235.3,166.5 235.3,166.0 235.4,169.9 235.4,168.3 235.5,166.8 235.5,171.5 235.5,169.6 235.6,170.3 235.6,173.6 235.7,172.4 235.8,168.7 235.8,171.2 236.0,172.2 236.1,172.9 236.2,171.8 236.3,167.0 236.4,170.8 236.5,172.1 236.5,178.5 236.6,180.5 236.6,179.0 236.7,181.3 236.7,183.3 236.8,184.3 236.8,181.0 236.9,175.9 236.9,173.3 237.1,172.7 237.2,173.5 237.4,170.8 237.5,174.2 237.7,171.4 237.9,173.3 238.1,171.6 238.4,172.1 238.6,169.9 238.8,171.9 239.1,169.9 239.2,166.9 239.4,167.8 239.7,169.3 239.9,166.8 240.2,169.4 240.4,171.3 240.5,164.5 240.6,162.8 240.6,162.9 240.7,165.6 240.9,159.4 241.1,162.2 241.3,163.5 241.5,161.2 241.7,163.7 242.0,162.4 242.4,160.3 242.6,159.7 242.8,156.8 243.0,157.8 243.2,154.4 243.4,154.1 243.5,153.6 243.7,155.1 243.8,158.2 244.0,158.5 244.2,158.3 244.5,161.4 244.8,165.9 245.1,162.6 245.2,169.3 245.5,169.0 245.6,169.1 245.8,170.1 246.1,170.2 246.3,168.3 246.7,168.0 247.0,163.5 247.3,163.4 247.7,162.2 248.1,165.6 248.6,165.0 249.2,165.4 249.7,165.7 250.1,164.0 250.6,166.2 251.0,165.9 251.6,164.6 252.0,162.8 252.3,161.8 252.6,158.9 252.9,156.4 252.9,149.3 252.9,147.4 252.9,145.6 252.9,143.8 252.9,144.3 252.9,138.5 252.9,137.4 252.9,133.2 252.9,134.9 253.0,141.9 253.0,142.7 253.1,136.4 253.2,142.4 253.3,144.3 253.4,144.5 253.5,139.0 253.6,138.4 253.8,137.0 253.9,135.9 254.1,141.3 254.2,142.1 254.3,144.5 254.4,143.9 254.6,146.6 254.7,150.3 254.8,151.8 254.9,152.4 255.0,149.5 255.1,146.4 255.2,144.3 255.3,146.8 255.5,149.8 255.7,151.1 255.9,147.4 256.1,147.0 256.3,148.3 256.6,149.1 256.8,146.6 256.9,143.6 257.0,149.6 257.3,151.3 257.5,152.1 257.7,155.9 257.9,156.6 258.2,156.3 258.5,155.9 258.8,158.2 258.8,162.3 258.9,161.8 259.1,158.6 259.3,160.4 259.7,161.7 259.8,166.9 260.0,166.2 260.1,167.8 260.2,168.5 260.4,166.1 260.4,167.1 260.5,164.9 260.5,165.3 260.6,162.4 260.7,162.8 260.8,162.4 261.0,163.7 261.0,166.9 261.1,166.5 261.3,169.1 261.3,171.6 261.4,168.6 261.5,172.2 261.6,169.3 261.7,171.8 261.9,171.4 262.1,171.0 262.3,166.6 262.5,167.3 262.7,169.1 262.8,173.1 263.1,173.3 263.3,175.4 263.5,171.9 263.8,169.3 264.2,170.5 264.4,173.8 264.8,172.1 265.0,169.9 265.3,172.3 265.6,173.0 265.8,177.8 265.9,178.5 266.1,179.5 266.3,175.0 266.6,175.8 266.9,179.1 267.2,182.0 267.4,181.0 267.7,181.2 267.9,185.4 268.0,183.5 268.3,184.1 268.7,184.5 269.1,186.8 269.5,184.1 269.7,182.1 270.1,183.5 270.3,185.7 270.5,180.6 270.7,181.1 271.1,183.0 271.4,183.2 271.8,185.5 272.2,181.0 272.5,180.5 272.8,179.8 273.1,176.0 273.4,178.0 273.8,177.6 274.0,181.0 274.2,184.7 274.4,187.5 274.7,186.4 275.0,184.9 275.5,183.5 275.6,191.6 275.7,190.0 275.9,190.7 276.2,189.5 276.5,184.4 276.8,186.1 277.2,185.0 277.5,185.2 277.9,187.9 278.3,190.1 278.5,192.0 278.6,191.4 278.9,190.1 279.2,192.9 279.3,199.9 279.4,198.2 279.4,197.6 279.5,194.4 279.7,192.0 280.0,190.3 280.2,189.5 280.4,184.4 280.6,184.5 280.8,179.8 280.9,182.1 281.1,183.6 281.5,185.9 281.7,188.2 282.0,188.9 282.2,191.7 282.5,194.4 282.8,195.9 282.8,199.8 283.0,196.1 283.2,192.3 283.4,189.0 283.8,188.6 284.0,187.9 284.3,192.8 284.4,195.1 284.7,195.6 285.1,194.1 285.3,198.4 285.5,198.5 285.7,200.2 285.9,202.4 286.1,202.9 286.1,205.8 286.2,203.0 286.5,200.2 286.8,198.5 287.0,203.1 287.3,202.4 287.5,200.5 287.8,201.8 288.0,201.0 288.1,197.9 288.2,199.9 288.3,201.9 288.3,197.0 288.4,191.6 288.4,187.7 288.5,190.3 288.6,188.5 288.6,193.8 288.7,189.9 288.8,187.5 288.8,183.4 288.9,185.9 289.0,187.3 289.1,184.9 289.1,185.2 289.2,185.0 289.3,180.0 289.4,180.6 289.5,179.0 289.7,177.2 289.7,175.3 289.8,176.1 289.8,177.6 289.9,182.6 290.0,182.3 290.1,185.8 290.2,183.0 290.4,184.8 290.5,179.5 290.7,179.7 290.9,176.8 291.0,175.1 291.1,175.0 291.1,173.3 291.3,176.9 291.5,177.0 291.7,176.3 291.9,172.0 292.0,173.4 292.2,172.0 292.4,175.5 292.7,176.9 292.9,179.3 293.2,178.6 293.5,178.5 293.8,175.6 294.2,178.9 294.4,184.6 294.6,184.1 294.8,187.4 295.2,183.7 295.5,181.1 295.8,180.6 296.2,176.3 296.5,174.8 296.9,175.4 297.2,175.6 297.4,180.7 297.8,179.4 298.2,179.0 298.7,182.2 299.0,182.5 299.4,181.3 300.0,181.7 300.5,185.1 300.6,178.7 300.7,186.9 300.8,188.4 301.0,189.0 301.3,181.5 301.6,183.0 302.0,186.5 302.5,186.7 302.9,186.5 303.3,182.6 303.5,181.4 303.9,184.6 304.4,185.3 304.8,183.2 305.2,184.5 305.6,186.1 306.0,186.9 306.4,186.8 306.8,184.1 307.3,186.0 307.7,185.8 308.0,188.1 308.2,190.9 308.4,189.7 308.7,188.9 308.9,192.9 309.0,196.7 309.1,197.5 309.3,193.7 309.4,190.1 309.6,189.3 309.8,188.5 310.2,191.2 310.6,192.2 311.1,193.6 311.7,191.1 312.1,192.1 312.6,189.5 313.0,192.6 313.4,192.8 314.0,191.3 314.2,186.3 314.4,183.5 314.5,185.8 314.5,184.3 314.7,184.6 315.0,186.6 315.3,190.5 315.5,187.1 315.7,188.9 315.7,185.9 315.8,190.4 316.0,194.5 316.1,191.9 316.2,192.7 316.3,192.4 316.3,192.1 316.5,190.1 316.6,186.9 316.6,181.1 316.7,177.6 316.7,176.5 316.8,180.0 316.8,177.6 316.9,177.9 316.9,179.3 317.0,182.9 317.1,180.1 317.2,183.9 317.3,183.9 317.4,179.0 317.5,177.4 317.6,174.0 317.7,172.9 317.8,177.3 318.0,179.1 318.2,174.3 318.3,175.1 318.5,174.9 318.7,177.8 318.8,184.1 319.0,182.4 319.3,181.1 319.5,175.4 319.8,178.7 320.0,183.0 320.2,186.9 320.3,187.0 320.5,184.9 320.7,184.8 321.0,188.1 321.2,191.8 321.4,191.6 321.7,188.6 322.0,188.8 322.3,187.5 322.7,188.1 323.0,189.5 323.3,188.0 323.7,183.4 324.2,184.1 324.8,184.5 325.4,180.7 326.0,183.1 326.8,186.3 327.3,187.1 328.0,186.9 328.7,185.3 329.1,185.3 329.7,189.2 330.1,192.9 330.6,191.0 331.2,190.6 331.6,193.2 332.3,192.3 333.0,191.1 333.6,191.2 334.1,192.0 334.7,189.2 335.3,187.2 335.9,189.9 336.5,188.0 336.9,183.5 337.2,181.6 337.5,177.7 337.7,175.8 337.9,176.2 338.2,177.5 338.5,178.4 338.9,174.1 339.3,178.2 339.7,179.3 340.2,181.0 340.7,178.1 341.3,181.0 341.9,180.8 342.5,181.3 342.9,184.2 343.2,185.2 343.6,186.6 343.8,185.3 344.1,185.3 344.7,184.3 345.2,183.9 345.5,188.6 345.9,189.1 346.4,186.7 347.0,188.9 347.4,190.4 347.9,188.8 348.5,189.1 349.1,186.9 349.8,187.2 350.7,189.1 351.3,189.8 351.9,192.5 352.4,191.8 352.9,193.6 353.2,193.4 353.8,191.3 354.3,192.0 354.9,191.6 355.5,190.9 356.3,190.0 356.9,188.2 357.6,188.4 358.1,187.6 358.8,188.9 359.4,186.9 359.9,184.0 360.4,184.2 361.0,184.1 361.5,187.0 361.9,185.8 362.6,185.1 363.4,182.6 364.0,182.7 364.6,184.0 365.2,184.1 365.8,186.0 366.3,183.6 367.0,184.8 367.7,185.1 368.2,182.8 368.8,180.7 369.2,181.3 369.7,182.9 370.4,182.0 370.8,180.4 371.3,178.6 371.6,182.1 371.9,182.7 372.3,188.3 372.4,190.3 372.7,188.4 373.1,187.2 373.2,184.5 373.5,187.2 373.9,185.3 374.4,188.2 374.9,185.6 375.4,185.8 376.1,182.5 376.6,181.9 377.2,185.8 377.4,189.4 377.6,191.7 378.0,190.5 378.4,192.5 379.0,190.0 379.5,192.1 379.7,193.4 380.2,193.6 380.7,196.8 380.8,196.7 380.9,192.2 381.1,192.8 381.5,192.6 381.8,191.2 382.1,191.7 382.3,190.4 382.5,195.9 382.7,197.2 382.8,195.0 382.9,190.4 383.0,186.8 383.1,188.7 383.4,186.2 383.6,190.2 383.8,186.7 384.1,184.6 384.3,181.9 384.4,180.0 384.6,180.1 384.9,178.9 385.0,176.5 385.2,176.6 385.4,174.2 385.6,174.2 385.8,176.4 386.0,180.2 386.4,183.5 386.6,179.8 387.1,178.4 387.5,177.7 387.9,174.8 388.4,178.3 388.8,179.7 389.3,182.4 389.8,184.2 390.2,184.4 390.5,189.8 390.7,192.8 391.0,192.8 391.2,190.2 391.5,188.6 391.7,195.5 391.8,195.0 391.9,195.2 392.1,193.2 392.4,193.2 392.8,193.2 393.2,194.6 393.7,194.4 394.2,196.6 394.5,195.9 394.9,195.5 395.5,193.9 396.0,191.8 396.6,194.4 397.0,196.7 397.3,196.3 397.7,199.3 398.0,199.2 398.2,203.3 398.3,204.1 398.4,202.7 398.5,199.2 398.6,198.6 398.6,195.7 398.8,194.5 398.9,194.7 399.1,194.6 399.3,191.9 399.4,190.3 399.6,188.9 399.7,187.0 399.9,188.0 400.1,188.2 400.3,185.2 400.4,185.7 400.6,184.1 400.8,181.3 400.9,183.6 401.2,184.7 401.4,184.5 401.7,186.5 401.9,191.7 402.0,196.2 402.2,193.9 402.6,192.4 402.8,189.6 403.1,190.5 403.4,191.0 403.8,191.3 404.3,189.2 404.8,187.8 405.2,190.9 405.7,192.4 406.1,194.1 406.5,197.0 406.8,201.7 407.1,200.6 407.4,199.1 407.9,197.9 408.4,202.4 409.1,201.2 409.6,201.3 410.0,197.8 410.6,200.1 411.2,202.3 411.6,202.5 412.2,201.3 412.9,202.2 413.3,199.6 414.0,200.4 414.4,197.7 415.0,196.7 415.3,192.7 415.5,187.2 415.6,187.5 415.9,190.4 416.3,190.3 416.6,189.9 417.1,190.7 417.5,191.5 418.0,191.2 418.7,190.0 419.2,191.2 419.7,188.0 420.1,189.5 420.4,187.8 420.6,190.2 420.9,188.0 421.3,189.7 421.7,192.8 422.4,190.9 423.0,190.4 423.5,192.4 424.1,191.6 424.6,191.0 424.9,184.6 424.9,185.0 425.0,187.4 425.2,187.2 425.5,188.6 425.7,188.3 426.0,184.8 426.1,180.3 426.2,178.7 426.2,178.8 426.4,181.2 426.5,183.3 426.7,186.6 426.8,185.8 427.0,187.6 427.1,188.6 427.3,184.9 427.4,181.7 427.6,182.4 427.7,177.1 427.8,175.2 427.9,175.2 428.0,175.9 428.1,179.6 428.3,175.6 428.4,174.2 428.6,175.9 428.8,175.1 429.0,177.2 429.3,182.2 429.5,180.1 429.7,183.2 430.0,181.9 430.2,179.2 430.5,180.5 430.7,180.0 431.0,179.4 431.4,180.8 431.7,176.6 432.0,176.5 432.3,175.4 432.5,169.1 432.5,170.3 432.7,172.5 432.9,174.8 433.1,178.3 433.4,176.6 433.7,175.5 434.1,176.1 434.7,175.4 434.8,167.6 434.9,158.9 434.9,159.6 434.9,153.8 434.9,147.3 434.9,144.3 434.9,151.2 434.9,157.0 434.9,163.4 435.0,156.2 435.0,154.3 435.1,151.4 435.1,157.0 435.2,156.6 435.3,154.6 435.4,155.0 435.5,152.4 435.7,155.0 435.8,152.6 435.9,154.7 436.1,155.9 436.3,160.3 436.5,163.2 436.7,165.5 436.9,161.6 437.0,161.2 437.2,158.7 437.4,159.0 437.7,162.9 437.9,161.5 438.2,162.1 438.5,163.3 438.8,163.6 439.1,167.6 439.3,166.9 439.6,163.3 439.9,165.2 440.3,167.5 440.4,167.5 440.8,165.9 441.2,163.7 441.6,162.1 441.8,167.0 442.3,166.7 442.7,169.7 442.9,171.7 443.2,175.1 443.5,172.9 443.8,174.7 444.0,178.0 444.4,178.0 444.6,177.3 444.9,175.2 445.2,172.7 445.7,174.9 446.1,174.0 446.5,172.3 447.0,176.1 447.5,175.5 447.8,175.7 448.1,175.9 448.6,175.7 448.9,177.3 449.2,177.7 449.6,177.7 449.9,179.4 450.0,183.6 450.3,181.1 450.7,182.8 450.9,179.9 451.2,178.8 451.7,179.4 452.1,180.9 452.4,179.8 452.8,181.8 453.1,183.9 453.3,180.1 453.5,179.4 453.7,178.5 453.8,178.5 453.9,174.8 454.0,174.1 454.0,173.0 454.1,171.4 454.2,178.0 454.3,177.9 454.4,178.8 454.5,173.5 454.6,172.7 454.7,172.8 454.8,175.1 455.0,177.2 455.2,177.7 455.4,175.8 455.5,171.2 455.7,168.4 455.8,165.8 455.9,165.4 456.0,159.1 456.0,155.5 456.0,156.5 456.1,163.0 456.2,159.6 456.2,154.1 456.3,150.5 456.3,145.0 456.3,147.5 456.4,152.6 456.4,151.1 456.5,157.7 456.6,157.8 456.7,158.4 456.8,157.2 456.9,159.0 456.9,164.2 457.0,165.2 457.1,167.9 457.2,171.1 457.2,173.0 457.4,172.4 457.5,173.5 457.6,176.0 457.8,173.0 458.0,175.0 458.1,174.1 458.3,174.9 458.4,180.1 458.5,180.1 458.6,179.7 458.8,177.1 459.0,178.1 459.1,177.6 459.3,175.5 459.4,170.1 459.6,175.5 459.8,173.7 460.0,176.0 460.2,171.6 460.3,171.1 460.6,173.8 460.8,173.1 461.0,175.6 461.2,172.9 461.5,173.3 462.0,174.4 462.3,174.5 462.6,175.1 462.9,172.5 463.2,172.7 463.5,169.1 463.8,168.1 464.1,170.4 464.6,172.2 464.9,172.7 465.2,175.7 465.6,176.1 465.9,171.5 466.2,176.1 466.5,176.4 466.8,179.7 467.0,180.4 467.2,183.9 467.4,181.1 467.6,187.3 467.7,185.2 467.9,186.5 468.2,186.5 468.4,191.3 468.6,195.0 468.7,193.8 468.8,195.0 469.0,193.7 469.3,192.9 469.5,191.1 469.8,190.3 470.2,189.2 470.5,188.0 471.0,187.7 471.4,187.4 471.8,187.5 472.2,189.8 472.6,190.1 473.0,186.7 473.4,184.0 473.8,184.2 474.1,184.3 474.5,185.7 475.1,186.4 475.5,184.7 475.7,180.4 475.9,175.9 476.2,177.7 476.5,176.9 476.9,177.4 477.3,172.7 477.5,172.5 477.9,174.8 478.2,176.5 478.6,173.8 478.7,180.2 478.8,184.0 479.0,184.3 479.1,184.2 479.3,182.8 479.7,181.4 480.0,179.1 480.3,181.6 480.7,180.6 481.0,178.4 481.3,180.3 481.4,183.3 481.5,185.3 481.6,187.9 481.6,182.7 481.7,181.3 481.9,183.5 482.1,182.4 482.2,185.8 482.3,191.5 482.5,188.8 482.6,193.4 482.7,195.1 482.8,199.0 482.9,196.7 483.0,189.8 483.0,192.2 483.2,191.9 483.3,190.9 483.6,193.9 483.8,190.4 484.0,189.0 484.3,189.2 484.5,190.5 484.8,187.7 485.0,186.1 485.3,192.8 485.5,195.9 485.6,197.2 485.9,197.9 486.1,199.2 486.4,198.4 486.6,198.4 486.8,198.2 487.1,199.2 487.4,198.6 487.6,194.6 487.8,195.0 488.1,194.7 488.3,195.6 488.7,196.0 489.1,193.7 489.8,195.6 490.3,195.0 490.9,194.9 491.5,193.8 492.3,193.6 492.9,194.0 493.5,196.3 494.1,195.6 494.6,197.2 495.1,192.6 495.7,190.5 496.3,192.7 496.8,197.4 497.4,195.5 497.8,199.4 498.1,196.6 498.7,194.1 499.0,192.6 499.5,193.0 500.3,192.5 501.0,195.0 501.6,194.1 502.2,192.4 502.8,191.9 503.5,192.8 504.1,195.0 505.0,194.7 505.5,195.4 506.2,195.1 506.9,196.3 507.5,196.7 507.9,199.5 508.3,197.8 508.9,194.9 509.0,196.9 509.2,197.0 509.5,199.5 509.7,195.3 509.8,201.9 509.9,210.7 509.9,212.4 509.9,210.7 509.9,207.9 510.0,208.9 510.1,212.5 510.1,215.8 510.2,215.4 510.2,214.7 510.4,217.0 510.4,216.0 510.6,214.1 510.7,213.5 510.9,211.1 511.0,206.1 511.2,206.7 511.5,205.0 511.8,206.7 512.1,208.8 512.4,207.5 512.9,206.6 513.1,202.7 513.5,201.4 514.0,202.0 514.3,204.8 514.8,200.1 515.3,201.0 515.6,200.7 516.0,199.0 516.3,194.7 516.5,193.1 516.8,193.0 517.4,193.0 517.7,193.2 518.2,193.8 518.8,192.6 519.3,192.0 519.9,193.7 520.5,194.8 521.2,194.6 522.2,194.2 523.0,195.0 524.1,195.4 524.8,193.1 525.6,190.8 526.3,190.2 526.8,189.6 527.6,189.5 528.2,191.0 529.0,190.8 529.6,188.1 530.1,187.2 530.6,189.2 531.3,188.8 532.0,189.2 532.6,192.5 533.5,191.3 534.2,188.9 534.8,187.8 535.1,184.2 535.4,187.4 535.9,189.0 536.4,188.4 536.9,185.6 537.3,185.7 537.7,187.9 538.1,185.4 538.5,185.8 538.9,187.4 539.3,189.2 539.6,190.6 540.2,191.2 540.9,190.4 541.8,191.1 542.7,191.7 543.6,192.6 544.3,192.8 545.3,193.0 545.9,196.6 546.4,194.9 547.3,193.9 547.8,192.0 548.5,194.4 548.8,199.1 549.3,196.5 549.8,196.2 550.4,197.4 551.0,195.4 551.6,194.4 552.3,195.1 553.1,194.6 553.9,195.4 554.8,195.7 555.7,197.3 556.7,197.2 557.5,197.0 558.4,196.6 559.1,198.8 559.9,197.7 561.0,198.0 561.9,196.8 562.6,199.9 563.2,197.8 563.8,196.2 564.2,195.8 564.7,201.1 565.2,197.6 565.9,198.4 566.2,196.4 566.9,197.9 567.4,198.0 568.2,197.2 568.6,195.4 568.9,193.0 569.3,190.4 569.8,194.5 570.5,198.6 571.1,194.0 571.8,194.5 572.6,195.5 573.3,193.6 574.0,198.6 574.1,202.4 574.3,204.4 574.4,205.8 574.5,212.1 574.5,210.5 574.7,211.4 574.8,216.0 574.8,218.1 574.8,219.4 574.9,218.7 575.0,223.0 575.0,225.6 575.0,232.0 575.0,243.5 575.1,245.2 575.1,247.2 575.1,263.6 575.1,269.0 575.1,272.6 575.1,280.8 575.1,281.5 575.1,263.3 575.1,257.6 575.1,251.9 575.1,247.6 575.1,247.5 575.1,247.9 575.1,245.2 575.2,251.2 575.2,251.8 575.2,249.3 575.2,252.7 575.2,253.9 575.3,253.6 575.3,254.8 575.3,256.2 575.3,256.2 575.4,253.7 575.4,255.2 575.4,251.8 575.4,257.1 575.5,256.1 575.5,251.1 575.5,256.0 575.6,256.5 575.6,257.6 575.6,259.9 575.7,260.2 575.7,263.9 575.7,263.7 575.7,260.8 575.8,260.9 575.8,258.8 575.9,256.6 575.9,256.8 576.0,254.8 576.1,259.0 576.2,258.9 576.3,256.6 576.4,255.7 576.5,253.6 576.6,255.0 576.7,261.9 576.7,258.9 576.9,255.5 576.9,259.2 577.0,264.9 577.1,263.3 577.2,263.9 577.4,262.7 577.6,261.0 577.8,257.0 578.0,257.9 578.4,259.1 578.7,258.2 579.1,258.2 579.5,258.4 579.7,256.8 580.1,259.2 580.5,260.4 580.8,260.5 581.1,262.9 581.4,262.6 581.6,262.2 581.8,266.5 582.1,266.1 582.4,266.0 582.7,267.7 582.9,268.0 583.2,267.7 583.6,266.7 583.9,266.7 584.3,267.9 584.6,267.8 584.7,264.3 584.9,262.8 585.1,262.8 585.4,261.8 585.7,265.2 586.0,264.9 586.4,264.4 586.7,266.7 587.2,267.4 587.6,267.6 587.9,267.2 588.3,267.6 588.6,266.0 588.9,271.4 589.0,269.7 589.3,270.5 589.6,269.3 589.9,269.6 590.3,268.8 590.6,269.8 591.1,270.0 591.3,271.6 591.5,271.5 591.8,271.6 592.1,268.7 592.4,270.3 592.6,271.5 592.9,272.4 593.3,270.0 593.6,267.4 593.9,265.8 594.1,266.0 594.3,265.1 594.5,260.6 594.7,262.6 595.0,261.6 595.3,262.7 595.7,263.5 596.1,264.6 596.5,262.0 596.9,261.9 597.3,260.8 597.7,260.8 598.2,260.8 598.6,260.9 599.0,262.5 599.4,261.7 599.8,263.7 600.4,264.3 600.6,265.8 601.0,266.5 601.5,267.6 601.7,266.6 601.9,267.2 602.1,264.0 602.5,265.6 602.8,265.2 603.2,268.9 603.5,267.7 603.8,269.9 604.0,267.2 604.3,263.9 604.7,267.6 605.1,270.4 605.4,270.5 605.8,267.5 606.2,267.0 606.6,269.2 607.1,266.6 607.6,268.3 608.1,267.5 608.4,269.4 608.6,269.0 608.8,270.4 609.1,269.5 609.4,268.7 609.7,269.3 609.9,273.0 610.0,268.5 610.2,270.8 610.4,270.6 610.7,271.4 610.9,271.0 611.3,272.2 611.6,275.9 611.8,275.6 612.0,274.5 612.2,277.3 612.4,275.1 612.5,281.6 612.6,280.1 612.8,279.3 613.0,276.7 613.4,278.4 613.8,278.8 614.1,280.1 614.5,278.7 614.9,281.0 615.4,279.5 615.9,279.8 616.1,281.8 616.6,282.4 616.9,283.0 617.4,281.3 617.7,284.9 618.0,285.6 618.3,284.1 618.7,285.9 619.0,283.8 619.3,285.6 619.4,284.6 619.5,279.5 619.5,278.4 619.6,278.3 619.7,277.3 619.8,277.9 619.9,279.1 620.0,277.4 620.1,280.9 620.1,279.7 620.2,278.3 620.3,280.2 620.5,283.1 620.6,285.3 620.8,286.0 621.1,282.2 621.2,281.7 621.4,280.1 621.7,284.2 621.9,287.0 621.9,290.5 622.1,287.0 622.3,287.6 622.5,285.2 622.8,287.5 623.0,288.2 623.2,289.0 623.4,287.6 623.7,288.2 624.0,289.6 624.3,290.5 624.6,286.2 624.8,287.5 625.2,289.6 625.5,288.2 625.8,288.9 626.1,286.6 626.5,286.3 626.8,287.1 627.3,289.1 627.8,290.5 628.3,288.7 628.6,302.0 628.6,299.6 628.6,301.5 628.7,294.9 628.9,293.9 629.2,295.5 629.3,294.6 629.6,295.2 629.8,296.6 630.1,297.6 630.3,294.9 630.6,296.5 630.8,294.9 631.0,289.5 631.2,282.6 631.2,286.7 631.5,286.0 631.8,283.9 632.1,284.4 632.5,287.9 632.8,284.0 633.2,286.1 633.7,285.4 634.2,284.2 634.7,284.2 635.1,286.5 635.8,284.9 636.3,282.3 636.8,281.7 637.1,281.7 637.6,282.4 638.1,283.9 638.7,284.4 639.1,285.5 639.5,286.4 639.8,286.3 640.2,289.4 640.6,288.1 640.9,288.0 641.2,287.2 641.7,288.0 642.2,286.3 642.8,287.6 643.2,290.8 643.8,291.7 644.0,296.4 644.2,297.9 644.3,300.4 644.4,302.2 644.6,299.5 644.8,298.9 645.1,297.9 645.4,293.6 645.7,294.1 646.0,296.6 646.3,295.9 646.5,293.0 646.6,289.5 646.6,285.5 646.7,285.3 646.8,286.6 646.9,285.3 647.0,283.2 647.1,284.3 647.2,285.3 647.3,281.4 647.4,282.8 647.6,282.3 647.7,281.6 647.8,279.4 647.9,278.9 648.0,282.6 648.2,283.5 648.4,283.9 648.6,282.6 648.8,285.9 649.0,288.2 649.2,291.5 649.4,293.4 649.4,297.5 649.5,299.2 649.5,299.9 649.6,297.1 649.8,301.3 649.8,304.8 649.9,303.0 650.0,299.1 650.1,303.1 650.1,305.3 650.2,301.8 650.4,303.6 650.5,305.7 650.6,303.0 650.8,304.8 651.0,301.6 651.2,302.0 651.3,297.6 651.5,299.3 651.8,297.3 651.9,294.3 652.2,293.0 652.4,295.5 652.7,290.6 652.7,287.4 652.7,284.6 652.7,283.9 652.8,284.0 652.8,280.1 652.9,278.6 653.0,277.3 653.0,274.6 653.1,277.4 653.2,275.9 653.3,276.1 653.4,277.8 653.5,277.7 653.7,281.0 653.8,283.3 653.9,282.2 654.2,278.0 654.4,275.6 654.6,274.9 654.8,274.8 655.2,277.2 655.5,276.2 655.9,276.3 656.3,279.2 656.7,280.1 657.0,280.6 657.4,281.5 657.7,285.8 657.9,282.4 658.2,282.3 658.6,280.6 658.9,276.9 659.2,278.4 659.6,276.6 660.1,276.9 660.5,275.8 660.9,277.6 661.4,277.3 661.9,280.1 662.4,280.7 663.0,279.8 663.6,278.8 664.1,280.9 664.7,281.0 665.1,279.6 665.6,278.9 666.0,279.8 666.6,280.1 667.2,278.7 667.6,280.4 668.1,278.3 668.5,276.4 669.0,276.6 669.5,276.6 670.1,278.2 670.7,279.2 671.2,280.3 671.7,280.3 672.2,280.6 672.8,280.3 673.3,280.0 673.5,281.5 673.7,282.9 674.0,285.9 674.4,285.5 674.6,286.2 674.7,287.8 674.8,287.7 675.0,290.3 675.1,290.6 675.3,289.7 675.5,288.9 675.6,292.5 675.8,293.1 675.9,289.2 676.1,287.8 676.3,287.2 676.5,288.2 676.7,286.3 677.0,288.0 677.3,285.4 677.6,284.2 677.9,286.5 678.3,284.0 678.6,285.7 679.0,283.0 679.4,284.5 679.8,288.8 680.3,287.2 680.7,284.8 681.2,284.6 681.7,288.3 682.2,287.4 682.7,288.2 683.3,289.4 683.9,289.7 684.5,290.4 685.2,290.3 685.8,288.6 686.4,289.3 687.0,288.5 687.6,286.1 688.2,286.9 689.1,287.5 689.8,284.8 690.4,284.6 691.2,284.1 691.9,286.4 692.6,285.4 693.0,287.4 693.6,288.2 694.2,287.2 694.9,287.0 695.4,291.0 695.8,290.9 696.3,290.3 696.8,289.4 697.3,288.7 697.9,290.3 698.5,288.3 699.3,289.4 700.0,291.9 700.6,291.4 701.2,292.0 701.8,291.1 702.2,293.6 702.3,296.1 702.4,299.5 702.5,297.6 702.6,296.1 702.8,295.1 703.0,296.2 703.2,292.5 703.4,293.3 703.7,290.1 703.8,287.8 704.0,285.1 704.2,286.5 704.5,288.4 704.7,283.1 704.9,281.0 705.1,285.7 705.4,284.1 705.6,278.7 705.7,278.8 705.8,278.8 706.0,281.3 706.3,282.2 706.6,282.0 706.9,280.7 707.3,282.3 707.6,285.8 707.8,287.0 708.0,289.8 708.3,289.5 708.7,288.3 709.1,292.4 709.2,295.3 709.6,292.7 710.0,291.3 710.8,292.7 711.3,289.6 712.0,290.7 713.0,290.7 713.6,292.2 714.3,293.1 715.0,293.6 715.7,291.6 716.5,290.9 717.1,288.4 717.8,289.5 718.4,290.1 719.2,291.1 720.1,291.1 721.0,290.8 721.8,291.8 722.7,292.2 723.7,291.7 724.6,292.4 725.5,291.9 726.2,290.0 727.0,291.0 727.9,290.4 728.9,290.1 729.4,292.1 730.1,290.0 730.8,289.6 731.5,293.3 732.0,295.0 732.7,293.3 733.7,292.4 734.6,292.0 735.3,293.4 736.2,293.9 737.3,292.8 738.6,293.6 739.4,291.3 740.1,292.4 740.9,291.7 741.6,293.2 742.3,291.3 743.1,290.6 743.6,290.7 744.5,292.6 745.0,296.0 745.7,295.9 746.4,294.6 747.2,294.6 747.8,294.0 748.4,293.6 749.0,297.9 749.6,296.4 750.2,296.0 750.7,298.8 751.2,299.2 751.9,297.1 752.5,296.3 752.9,293.6 753.4,296.4 754.2,296.3 754.8,296.3 755.4,297.2 756.1,295.8 756.8,296.9 757.3,301.9 757.5,300.6 758.0,299.7 758.5,297.5 759.0,303.0 759.2,314.5 759.2,308.9 759.2,307.6 759.2,315.6 759.3,313.2 759.3,313.6 759.4,315.0 759.4,317.3 759.5,314.0 759.6,315.3 759.7,311.8 759.9,312.3 760.2,310.9 760.5,312.6 760.8,314.2 761.1,312.2 761.6,313.2 761.7,314.6 761.9,316.8 762.1,318.7 762.2,319.2 762.4,318.6 762.7,318.3 762.9,322.4 763.0,322.7 763.1,325.6 763.2,325.2 763.4,323.4 763.6,328.4 763.6,328.6 763.8,326.3 764.0,325.3 764.3,325.1 764.5,328.5 764.8,326.0 765.0,323.2 765.3,324.9 765.8,324.4 766.1,323.2 766.6,325.8 767.1,324.8 767.4,322.2 767.7,321.4 768.1,319.5 768.5,319.5 768.8,317.6 769.2,320.2 769.5,313.5 769.7,309.5 769.8,308.6 770.1,309.9 770.4,308.0 770.6,308.4 770.9,310.8 771.2,307.7 771.7,309.1 772.1,308.2 772.6,311.0 772.9,310.2 773.3,306.1 773.7,305.3 774.2,306.3 774.8,306.4 775.4,305.3 775.9,305.7 776.4,305.8 776.9,305.6 777.4,305.2 777.9,305.5 778.1,302.4 778.6,305.0 779.0,308.0 779.5,309.2 780.0,308.1 780.7,309.1 781.4,307.4 782.1,308.6 782.6,308.0 783.4,308.6 783.9,306.7 784.4,307.1 784.8,308.3 785.1,307.8 785.1,303.5 785.3,304.4 785.5,305.2 785.7,304.3 785.8,300.2 785.9,300.8 786.2,305.2 786.4,309.1 786.6,307.9 786.9,307.5 787.2,305.2 787.4,304.7 787.7,302.8 788.1,304.7 788.4,308.2 788.7,307.4 789.3,305.6 789.7,301.6 790.0,303.5 790.4,303.7 791.2,304.0 791.9,306.2 792.6,307.8 793.3,301.9 793.7,302.8 794.4,304.4 795.1,305.5 795.8,306.0 796.4,306.2 797.4,307.0 798.1,304.2 798.8,304.2 799.6,303.9 800.6,304.5 801.4,306.1 802.1,307.9 803.0,307.3 803.7,309.6 804.4,308.4 805.2,307.1 805.9,307.8 806.6,309.4 807.4,309.2 808.3,307.9 809.0,307.1 809.8,307.8 810.6,308.8 811.3,309.6 812.0,310.5 812.4,308.1 812.7,311.0 812.9,312.9 813.2,312.3 813.4,310.3 813.9,311.1 814.3,306.7 814.5,302.7 814.6,300.3 814.7,301.6 814.9,303.0 815.2,300.2 815.5,302.5 815.8,307.8 815.9,310.2 816.2,310.0 816.5,311.4 816.8,310.0 817.3,311.6 817.7,306.6 818.0,308.2 818.6,308.7 819.1,308.5 819.4,302.3 819.6,303.6 819.9,300.7 820.2,302.9 820.6,304.4 821.0,308.2 821.5,306.7 822.0,305.8 822.6,307.0 823.2,306.3 823.8,308.4 824.3,311.2 824.8,307.7 825.2,311.1 825.9,310.2 826.4,308.5 827.0,308.6 827.6,310.3 828.3,310.8 828.8,311.7 829.5,311.3 830.3,310.5 830.7,308.0 831.4,310.0 831.9,311.4 832.5,310.9 833.0,311.3 833.5,311.6 834.0,313.0 834.5,314.0 834.8,309.9 835.2,309.5 835.7,310.0 836.3,311.4 836.9,312.1 837.3,306.9 837.4,306.5 837.7,309.0 838.2,309.8 838.7,310.2 839.1,310.4 839.5,308.9 840.0,311.3 840.2,313.9 840.4,313.6 840.6,316.1 840.8,314.2 841.0,317.9 841.1,321.4 841.2,319.1 841.5,317.6 841.8,318.6 842.1,320.7 842.5,319.3 842.8,320.1 843.2,317.5 843.6,318.9 844.0,318.0 844.2,314.6 844.4,317.3 844.9,317.1 845.4,315.3 845.6,316.2 845.9,316.6 846.1,318.4 846.3,316.7 846.6,315.7 846.9,314.8 847.3,317.0 847.7,319.0 847.9,320.3 848.0,318.2 848.6,318.4 849.1,319.4 849.7,316.4 850.2,316.0 850.6,318.4 851.2,317.2 851.7,320.2 852.1,323.7 852.4,321.9 852.8,324.8 853.1,322.9 853.4,324.8 853.7,324.2 854.1,328.5 854.1,333.7 854.1,335.7 854.1,330.3 854.2,331.2 854.4,333.5 854.5,333.4 854.7,330.5 855.0,331.2 855.4,331.1 855.9,331.8 856.2,334.2 856.5,332.3 857.0,331.4 857.6,331.2 858.3,332.1 858.9,330.2 859.5,331.0 860.2,329.8 860.6,332.1 860.9,329.1 861.3,329.9 861.8,330.2 862.6,332.1 863.2,332.3 863.7,333.8 864.1,335.0 864.5,336.2 865.0,335.7 865.5,335.2 865.8,337.3 866.2,335.8 866.6,333.2 867.3,333.3 867.8,333.5 868.0,335.3 868.1,337.5 868.2,339.5 868.3,339.9 868.4,344.7 868.4,347.7 868.5,346.7 868.5,347.7 868.6,347.4 868.6,351.4 868.7,355.9 868.7,357.9 868.7,355.3 868.7,355.2 868.7,356.3 868.8,356.9 868.8,353.9 868.9,353.1 868.9,352.4 869.0,352.9 869.1,356.2 869.2,358.0 869.2,360.6 869.3,357.7 869.4,355.7 869.5,353.5 869.6,356.3 869.7,356.2 869.9,351.3 870.0,350.9 870.2,352.8 870.3,352.5 870.5,349.9 870.7,348.1 870.8,343.1 870.9,342.6 871.1,341.1 871.3,344.8 871.5,347.5 871.8,349.1 872.0,347.5 872.2,352.0 872.3,353.4 872.5,355.2 872.6,352.2 872.8,354.9 872.9,357.4 873.1,356.2 873.3,356.2 873.6,354.0 873.8,351.1 874.2,352.0 874.5,353.5 874.9,352.3 875.2,349.1 875.4,347.7 875.7,346.9 876.1,347.5 876.5,346.7 877.0,346.8 877.6,347.7 878.0,348.6 878.6,346.8 878.9,343.4 879.2,344.5 879.6,343.9 880.0,344.5 880.3,342.2 880.5,343.8 880.7,347.8 880.7,346.0 880.7,348.3 880.7,356.6 880.8,360.8 880.8,360.0 880.8,356.6 880.8,356.6 880.8,354.8 880.8,354.9 880.9,353.5 881.0,353.5 881.1,352.7 881.2,354.9 881.3,358.3 881.4,359.8 881.4,359.4 881.5,361.7 881.6,364.4 881.7,363.6 881.8,361.8 881.9,356.2 882.0,358.6 882.2,358.7 882.4,355.5 882.6,354.1 882.9,355.9 883.2,357.1 883.5,357.4 883.8,353.5 884.0,352.0 884.3,353.9 884.7,354.8 885.1,353.9 885.6,354.0 886.0,357.2 886.2,360.7 886.5,362.6 886.7,362.3 886.9,361.1 887.1,352.7 887.3,354.7 887.7,357.1 888.0,356.8 888.3,356.7 888.7,358.3 889.0,357.0 889.4,355.9 889.7,359.0 890.0,358.2 890.3,359.4 890.6,359.8 890.9,359.5 891.3,358.5 891.8,358.3 892.3,358.3 892.5,352.6 892.7,354.5 893.1,357.8 893.6,357.2 893.9,358.6 894.3,359.2 894.4,358.6 894.7,359.5 895.0,357.7 895.3,359.1 895.5,358.2 895.6,357.6 895.7,354.7 895.8,356.6 896.0,359.5 896.1,357.0 896.3,357.4 896.4,363.2 896.6,365.4 896.6,367.8 896.7,359.3 896.8,357.2 897.0,359.3 897.2,360.4 897.4,359.1 897.6,359.5 897.7,357.3 897.9,356.4 898.1,356.4 898.3,357.0 898.5,360.2 898.8,355.5 899.0,357.5 899.2,356.7 899.5,358.8 899.8,363.2 899.9,367.6 899.9,371.4 899.9,373.8 900.0,368.4 900.1,367.0 900.2,366.6 900.3,359.5 900.4,357.2 900.4,356.7 900.6,353.8 900.7,351.7 900.8,350.8 900.9,352.7 901.1,350.7 901.3,352.5 901.5,354.8 901.8,355.2 902.0,356.6 902.2,358.8 902.3,358.6 902.4,358.2 902.5,363.0 902.6,360.4 902.8,363.3 903.0,363.8 903.2,362.9 903.4,361.0 903.7,362.5 904.1,359.9 904.4,363.7 904.9,361.9 905.4,362.6 905.8,363.3 906.3,362.0 906.8,362.0 907.3,362.4 907.8,360.7 908.4,363.0 908.9,364.1 909.4,364.4 909.9,364.4 910.2,367.2 910.6,368.1 911.1,366.7 911.7,366.3 912.3,368.7 912.8,368.2 913.4,369.1 913.8,370.5 913.9,373.0 914.3,370.7 914.8,371.7 915.2,375.2 915.6,373.2 915.9,376.2 916.0,376.8 916.2,378.6 916.3,381.6 916.4,380.4 916.5,380.9 916.7,378.5 916.9,378.7 917.2,381.2 917.5,378.3 918.0,379.8 918.4,378.8 918.9,376.7 919.4,378.0 920.0,377.6 920.4,378.7 920.8,378.8 921.2,379.0 921.6,379.3 922.0,379.9 922.2,381.0 922.6,380.0 922.7,384.1 922.8,384.5 922.9,387.2 923.0,390.1 923.0,392.6 923.0,399.2 923.0,398.7 923.0,397.9 923.1,399.7 923.1,401.3 923.1,398.3 923.2,400.5 923.2,403.5 923.2,403.0 923.3,402.3 923.4,403.0 923.4,400.3 923.5,400.4 923.6,395.9 923.8,393.0 923.8,391.4 924.0,393.4 924.1,395.0 924.3,391.8 924.6,394.2 924.8,396.4 924.9,397.9 925.1,397.7 925.1,393.5 925.2,389.9 925.3,390.2 925.4,394.0 925.6,394.5 925.7,398.6 925.8,397.7 925.9,400.5 926.0,398.8 926.1,401.1 926.1,404.0 926.2,407.1 926.2,410.2 926.2,417.8 926.2,420.8 926.2,417.9 926.2,415.1 926.2,410.2 926.2,412.9 926.3,409.2 926.3,409.7 926.3,412.3 926.4,413.8 926.5,413.7 926.5,412.4 926.6,416.1 926.6,416.2 926.7,412.8 926.7,412.3 926.8,412.5 926.9,416.1 926.9,415.2 927.0,414.4 927.1,413.5 927.2,413.6 927.4,413.4 927.5,416.2 927.6,416.0 927.7,416.3 927.8,421.1 927.9,422.5 927.9,423.8 927.9,425.0 927.9,428.9 927.9,437.3 927.9,431.6 928.0,422.8 928.0,424.2 928.0,419.0 928.0,418.9 928.0,418.6 928.1,416.9 928.1,416.8 928.2,418.3 928.2,415.0 928.3,416.0 928.4,415.7 928.4,411.3 928.5,410.9 928.6,412.4 928.8,413.6 928.9,415.6 929.0,418.2 929.2,416.0 929.4,415.4 929.6,415.3 929.8,417.0 929.9,418.5 930.1,420.6 930.3,416.5 930.6,413.9 930.7,415.3 931.0,415.9 931.2,412.6 931.3,408.8 931.5,408.6 931.8,408.9 932.0,411.6 932.4,412.3 932.9,410.6 933.2,408.1 933.3,404.4 933.4,401.1 933.6,400.5 933.8,402.7 934.0,401.4" fill="none" stroke="#d97706" stroke-width="1.2" stroke-linejoin="round" opacity="0.6"/><text x="942" y="472.0" text-anchor="start" font-size="11" fill="#d97706">0.95</text><text x="942" y="396.0" text-anchor="start" font-size="11" fill="#d97706">1.18</text><text x="942" y="320.0" text-anchor="start" font-size="11" fill="#d97706">1.41</text><text x="942" y="244.0" text-anchor="start" font-size="11" fill="#d97706">1.64</text><text x="942" y="168.0" text-anchor="start" font-size="11" fill="#d97706">1.88</text><text x="942" y="92.0" text-anchor="start" font-size="11" fill="#d97706">2.11</text><text x="942" y="80.0" text-anchor="start" font-size="11" font-weight="600" fill="#d97706">price</text>
  <polygon points="140.3,468.0 140.3,138.8 140.3,134.1 230.0,128.4 575.0,121.6 868.7,116.1 915.9,117.2 915.9,468.0" fill="#16a34a" fill-opacity="0.08"/>
  <polyline points="140.3,138.8 140.3,134.1 230.0,128.4 575.0,121.6 868.7,116.1 915.9,117.2" fill="none" stroke="#16a34a" stroke-width="2" stroke-linejoin="round"/>
  <line x1="88" y1="102" x2="110" y2="102" stroke="#16a34a" stroke-width="2.5"/><text x="116" y="106" font-size="11.5" fill="#374151">equity</text><line x1="88" y1="118" x2="110" y2="118" stroke="#d97706" stroke-width="2.5" opacity="0.8"/><text x="116" y="122" font-size="11.5" fill="#374151">price</text>
  <text x="78" y="502" text-anchor="start" font-size="12" fill="#6b7280">2026-01-01</text><text x="934" y="502" text-anchor="end" font-size="12" fill="#6b7280">2026-01-31</text>
</svg>
