<?xml version="1.0" encoding="UTF-8"?>
<svg xmlns="http://www.w3.org/2000/svg" width="1000" height="520" viewBox="0 0 1000 520" font-family="ui-sans-serif, system-ui, sans-serif">
  <rect width="1000" height="520" fill="#ffffff"/>
  <text x="78" y="28" font-size="18" font-weight="700" fill="#111827">Zone Recovery — TRUMPUSDC best setting (equity / PnL)</text>
  <text x="78" y="48" font-size="12.5" fill="#6b7280">lev 15 · ratio 4 · gap 35% · maxSteps 6 · maxDD 60% · random · vip 9  ·  5 series, 100.0% win · vol $1091043 ($35195/day) · fees $92.30</text>
  <text x="78" y="68" font-size="12.5" font-weight="600" fill="#1d4ed8">USDC · BNB −10% · taker 0.0085%</text>
  <text x="934" y="28" text-anchor="end" font-size="18" font-weight="700" fill="#16a34a">+13731 USDT  (+137.31%)</text>
  <line x1="78" y1="468.0" x2="934" y2="468.0" stroke="#e5e7eb" stroke-width="1"/><text x="68" y="472.0" text-anchor="end" font-size="12" fill="#6b7280">0.00</text><line x1="78" y1="392.0" x2="934" y2="392.0" stroke="#e5e7eb" stroke-width="1"/><text x="68" y="396.0" text-anchor="end" font-size="12" fill="#6b7280">5126</text><line x1="78" y1="316.0" x2="934" y2="316.0" stroke="#e5e7eb" stroke-width="1"/><text x="68" y="320.0" text-anchor="end" font-size="12" fill="#6b7280">10252</text><line x1="78" y1="240.0" x2="934" y2="240.0" stroke="#e5e7eb" stroke-width="1"/><text x="68" y="244.0" text-anchor="end" font-size="12" fill="#6b7280">15378</text><line x1="78" y1="164.0" x2="934" y2="164.0" stroke="#e5e7eb" stroke-width="1"/><text x="68" y="168.0" text-anchor="end" font-size="12" fill="#6b7280">20503</text><line x1="78" y1="88.0" x2="934" y2="88.0" stroke="#e5e7eb" stroke-width="1"/><text x="68" y="92.0" text-anchor="end" font-size="12" fill="#6b7280">25629</text>
  <line x1="78" y1="319.7" x2="934" y2="319.7" stroke="#9ca3af" stroke-width="1.5" stroke-dasharray="6 4"/><text x="934" y="313.7" text-anchor="end" font-size="11" fill="#6b7280">start 10000</text>
  <polyline points="78.0,304.9 78.7,303.3 79.5,301.6 80.1,303.1 80.9,306.2 81.4,307.2 81.5,319.8 81.5,327.1 81.5,326.0 81.5,322.3 81.5,320.7 81.5,319.4 81.6,317.8 82.0,316.3 82.6,318.6 82.9,321.5 83.4,322.1 84.2,319.6 85.2,319.2 86.4,318.2 87.8,321.7 88.3,320.2 88.9,316.3 89.9,321.1 91.0,321.5 92.2,322.1 93.3,321.1 94.2,317.3 95.0,318.0 95.9,317.8 96.1,315.3 96.4,316.1 96.8,317.3 97.5,311.6 98.0,307.2 98.2,303.9 98.7,305.8 98.9,307.2 99.6,308.9 100.5,306.0 101.0,300.0 101.8,302.2 103.0,301.0 103.6,297.9 104.1,290.2 104.5,286.5 104.7,284.8 105.3,287.3 105.7,291.7 106.1,290.8 106.6,293.1 107.4,298.5 108.3,296.8 109.2,297.9 109.6,294.1 110.0,289.4 110.6,292.9 111.5,292.9 112.3,294.1 113.1,290.8 113.7,292.1 114.7,294.4 115.4,293.3 116.2,287.5 116.8,283.0 116.9,279.2 117.1,279.2 117.4,276.8 117.7,276.6 118.1,274.5 118.4,277.2 118.7,275.1 119.1,280.3 119.4,280.9 119.8,278.4 120.2,272.8 120.3,273.0 120.6,267.8 120.9,269.1 121.5,269.1 121.9,270.7 122.1,277.2 122.3,273.7 122.5,271.2 122.6,271.4 122.7,267.4 122.9,267.9 123.2,273.0 123.6,269.7 124.0,270.5 124.3,264.7 124.6,261.9 124.7,261.8 124.9,265.6 125.2,260.8 125.3,260.0 125.6,259.4 126.0,258.9 126.3,257.5 126.8,260.2 127.3,265.2 127.5,267.0 128.1,263.3 128.6,262.7 129.2,264.5 130.1,265.4 130.9,263.7 131.2,262.3 131.8,258.7 132.1,257.1 132.5,256.9 132.7,254.0 133.2,256.5 133.5,248.8 133.8,251.9 134.2,249.6 134.5,248.2 134.6,245.5 134.6,247.1 134.7,248.4 134.8,253.4 135.0,253.1 135.3,252.1 135.7,254.4 136.1,253.2 136.7,250.0 137.3,250.0 137.7,246.1 138.0,246.9 138.7,248.6 139.3,250.3 139.8,255.6 140.3,250.7 140.9,256.7 141.1,260.6 141.5,263.3 141.6,268.3 141.7,270.5 141.8,270.1 141.9,272.0 142.1,269.9 142.4,272.2 142.7,272.2 143.0,269.7 143.3,268.9 144.0,272.4 144.4,265.0 144.8,267.6 145.4,265.6 146.3,261.0 147.0,261.2 147.9,262.7 148.6,259.8 149.3,256.7 149.4,261.6 149.8,258.7 150.1,253.1 150.5,253.4 150.8,257.3 151.2,252.5 151.4,248.6 151.6,248.4 151.8,248.0 151.9,243.6 152.0,237.6 152.1,236.6 152.1,225.4 152.2,224.2 152.2,223.9 152.3,217.7 152.3,213.6 152.3,205.7 152.3,208.0 152.3,212.4 152.3,207.0 152.4,199.9 152.4,198.3 152.4,205.9 152.4,209.2 152.4,211.3 152.4,206.8 152.5,201.6 152.5,195.2 152.5,196.8 152.5,192.7 152.5,192.1 152.5,192.1 152.6,189.8 152.6,180.7 152.6,177.8 152.6,179.8 152.6,178.2 152.6,179.2 152.6,172.8 152.7,172.2 152.7,169.5 152.7,167.6 152.7,167.8 152.7,156.0 152.7,152.1 152.7,152.9 152.7,147.5 152.7,147.1 152.7,154.2 152.7,157.7 152.8,155.4 152.8,146.1 152.8,146.5 152.8,150.9 152.8,156.4 152.8,159.1 152.8,156.6 152.8,162.7 152.8,171.4 152.8,169.5 152.8,172.0 152.8,162.6 152.8,167.6 152.8,172.4 152.8,176.1 152.8,173.6 152.8,168.0 152.8,172.6 152.9,178.8 152.9,179.0 152.9,178.0 152.9,189.2 152.9,184.8 152.9,183.2 152.9,187.7 152.9,183.8 152.9,182.5 153.0,178.6 153.0,179.0 153.0,177.2 153.0,182.7 153.0,180.7 153.0,182.5 153.0,183.1 153.1,179.8 153.1,179.8 153.1,180.3 153.1,184.4 153.2,185.0 153.2,189.6 153.2,189.6 153.2,184.2 153.3,186.1 153.3,186.0 153.3,185.6 153.4,189.0 153.4,193.3 153.4,201.6 153.4,195.0 153.4,197.6 153.5,199.5 153.5,195.8 153.6,196.8 153.6,199.5 153.6,198.7 153.7,202.0 153.7,208.6 153.7,202.6 153.8,204.7 153.9,204.1 153.9,203.2 154.0,203.7 154.0,208.4 154.1,209.9 154.1,204.9 154.2,206.6 154.2,203.5 154.3,199.5 154.3,194.1 154.3,195.4 154.3,188.3 154.4,188.3 154.4,186.9 154.4,185.6 154.5,188.3 154.5,193.5 154.6,189.6 154.6,188.7 154.7,191.4 154.7,189.0 154.8,188.1 154.9,190.2 154.9,193.9 155.0,198.5 155.0,198.7 155.1,200.3 155.2,203.2 155.4,204.5 155.5,204.9 155.6,199.7 155.7,196.8 155.8,193.7 155.9,197.4 155.9,202.0 156.0,195.6 156.1,196.0 156.2,197.9 156.3,205.3 156.4,203.9 156.5,208.8 156.7,207.6 156.8,204.7 156.9,209.3 157.1,204.5 157.1,202.6 157.2,203.4 157.4,203.5 157.5,206.4 157.7,208.6 157.9,202.6 158.1,202.0 158.3,200.6 158.5,204.7 158.6,210.1 158.8,206.4 158.9,204.7 159.2,205.5 159.4,209.7 159.5,219.8 159.5,224.0 159.5,219.8 159.7,211.1 159.9,214.0 160.0,213.8 160.2,209.5 160.4,212.4 160.8,215.5 161.0,210.7 161.1,209.7 161.3,213.4 161.4,209.2 161.5,214.8 161.7,212.1 161.9,206.6 162.1,204.1 162.3,203.7 162.5,203.2 162.8,203.0 163.1,200.5 163.2,199.5 163.5,201.2 163.7,196.6 163.8,197.4 164.0,197.7 164.2,200.8 164.5,199.9 164.7,195.2 164.9,197.4 165.1,195.4 165.3,192.9 165.3,185.6 165.4,187.9 165.5,190.0 165.6,183.8 165.7,180.9 165.8,184.6 165.9,186.9 166.2,188.1 166.4,193.5 166.4,196.0 166.4,195.6 166.6,195.4 166.8,190.6 167.0,188.3 167.2,188.9 167.4,191.8 167.7,192.1 167.9,189.4 167.9,185.6 168.1,183.4 168.3,186.9 168.5,188.7 168.5,189.6 168.5,197.6 168.6,195.8 168.7,194.8 169.0,193.3 169.3,186.3 169.5,183.4 169.7,186.7 169.9,185.2 170.1,193.7 170.2,191.9 170.4,187.9 170.5,189.2 170.5,191.4 170.6,191.8 170.7,189.0 170.7,187.5 170.7,185.0 170.8,184.0 170.8,185.6 170.9,185.6 171.0,188.1 171.2,189.2 171.3,188.9 171.5,186.3 171.6,179.2 171.8,182.5 171.9,175.5 172.0,174.0 172.1,178.6 172.2,173.2 172.2,170.9 172.2,174.2 172.3,175.1 172.4,175.1 172.4,175.1 172.5,176.1 172.5,175.9 172.6,176.1 172.6,175.5 172.7,175.9 172.7,180.0 172.7,179.4 172.8,180.1 172.9,184.6 172.9,187.5 173.0,184.2 173.2,183.8 173.4,181.1 173.4,179.8 173.5,180.1 173.6,171.4 173.6,171.6 173.7,171.6 173.7,170.7 173.8,173.2 173.8,174.7 173.8,172.8 173.9,173.4 173.9,177.6 174.0,175.3 174.2,174.0 174.2,173.2 174.3,173.8 174.3,175.5 174.4,180.1 174.4,181.5 174.6,176.7 174.8,178.8 175.0,174.7 175.2,173.8 175.4,180.1 175.5,182.7 175.8,185.4 175.9,187.3 176.2,189.8 176.3,190.0 176.6,190.2 176.9,185.8 177.1,186.1 177.4,183.2 177.6,189.4 177.8,186.7 178.0,185.8 178.2,185.0 178.4,181.3 178.5,184.6 178.7,183.4 178.8,185.8 179.0,186.3 179.2,182.3 179.3,181.9 179.4,179.6 179.4,182.9 179.4,183.1 179.4,186.7 179.4,185.0 179.6,185.6 179.8,187.9 179.9,185.4 180.2,186.0 180.3,189.0 180.4,184.8 180.6,185.0 180.8,184.4 181.0,183.1 181.2,182.7 181.3,183.1 181.6,181.9 181.7,179.8 181.9,180.0 182.0,182.7 182.2,188.5 182.3,191.0 182.4,187.1 182.6,185.0 182.8,190.0 182.9,193.3 182.9,192.7 183.1,191.9 183.2,190.4 183.5,189.4 183.8,188.9 183.9,188.7 184.0,186.7 184.2,185.8 184.7,188.5 185.1,189.6 185.3,187.5 185.8,191.9 186.0,192.3 186.3,185.6 186.4,188.1 186.5,189.8 187.2,189.0 187.5,185.4 187.8,187.3 188.1,192.3 188.2,191.2 188.2,191.0 188.3,189.4 188.4,188.5 188.4,187.9 188.5,184.4 188.7,186.7 188.8,188.9 189.0,193.3 189.2,188.9 189.4,184.0 189.7,186.0 189.8,183.8 190.1,183.6 190.3,176.3 190.4,178.8 190.5,177.8 190.7,174.7 190.8,169.1 190.9,167.4 191.0,171.4 191.1,169.9 191.2,173.6 191.4,174.5 191.6,179.4 191.8,176.1 192.1,175.5 192.3,172.2 192.5,176.1 192.6,173.2 192.7,170.1 192.8,167.0 192.8,167.0 193.1,170.1 193.3,171.6 193.5,175.3 193.6,180.9 193.8,183.2 193.9,180.9 194.1,179.4 194.5,180.7 194.8,174.3 195.0,177.2 195.3,180.9 195.6,180.9 195.9,189.4 195.9,191.8 196.1,188.3 196.4,184.8 196.7,178.8 196.9,177.6 197.1,168.9 197.1,164.1 197.2,165.3 197.3,161.0 197.3,157.1 197.4,155.6 197.5,160.8 197.6,160.2 197.7,161.4 197.8,158.1 197.9,157.3 198.0,155.4 198.1,163.5 198.3,162.7 198.4,170.1 198.5,169.5 198.7,166.2 198.8,174.7 198.9,177.8 199.0,176.7 199.2,174.2 199.3,173.8 199.5,173.6 199.7,171.6 199.7,168.2 199.8,171.4 200.0,178.0 200.0,179.0 200.1,174.0 200.4,174.7 200.7,176.5 200.8,178.6 201.0,174.5 201.4,180.7 201.6,174.3 201.8,174.0 202.1,174.0 202.5,176.3 202.7,179.8 203.0,179.8 203.2,175.3 203.5,173.2 203.8,176.1 204.0,175.7 204.2,168.5 204.3,162.2 204.3,166.8 204.4,171.4 204.6,169.3 204.7,174.3 204.9,169.9 205.0,167.8 205.1,175.3 205.1,171.6 205.2,173.8 205.2,173.8 205.3,168.4 205.4,167.4 205.5,162.9 205.6,166.8 205.7,169.7 205.8,171.8 205.9,173.4 206.0,168.2 206.2,169.1 206.4,165.3 206.5,164.3 206.6,168.7 206.8,168.7 206.9,166.6 207.0,169.5 207.2,161.6 207.3,162.0 207.4,161.0 207.6,164.1 207.7,166.2 208.0,165.1 208.2,167.4 208.5,173.6 208.5,174.0 208.8,169.5 209.1,163.5 209.2,162.7 209.4,156.4 209.6,160.4 209.8,158.7 210.1,155.4 210.3,155.2 210.6,156.8 210.9,158.7 211.1,161.4 211.4,160.6 211.5,152.7 211.5,151.7 211.6,151.9 211.8,149.8 212.0,144.4 212.1,146.7 212.2,148.2 212.4,148.0 212.5,148.6 212.7,149.2 213.1,145.3 213.3,147.9 213.7,151.5 214.1,147.7 214.5,149.2 214.6,136.3 214.7,142.4 214.9,144.6 215.3,144.8 215.5,142.2 216.0,145.0 216.3,152.5 216.4,157.1 216.6,155.2 216.8,158.7 216.9,161.4 217.1,153.3 217.3,153.5 217.6,153.1 218.0,152.5 218.3,157.3 218.5,154.0 218.7,152.5 219.1,158.7 219.4,160.6 219.8,156.2 220.1,153.8 220.3,148.0 220.5,148.2 220.7,143.4 220.9,147.3 221.1,145.9 221.4,148.6 221.8,151.3 222.1,153.1 222.4,156.0 222.7,157.3 222.9,153.3 223.3,152.3 223.6,152.3 223.8,149.4 224.1,155.8 224.4,158.1 224.6,161.4 224.7,162.9 224.8,168.2 224.9,168.7 225.1,172.4 225.3,169.5 225.6,173.6 225.7,174.3 226.1,175.1 226.2,179.2 226.5,179.2 226.8,175.7 227.3,176.7 227.5,176.3 227.7,173.2 228.0,171.8 228.6,169.9 229.1,165.5 229.6,162.9 230.1,164.1 230.5,162.0 230.9,160.4 231.2,161.6 231.6,155.4 231.7,152.5 231.8,145.3 231.9,140.1 231.9,144.2 232.1,145.1 232.3,150.0 232.4,145.0 232.6,143.6 232.7,145.9 232.8,150.6 232.9,152.5 233.0,154.0 233.1,159.7 233.2,156.9 233.3,152.9 233.5,153.7 233.7,152.1 234.0,154.8 234.1,164.5 234.1,168.4 234.2,166.0 234.4,169.9 234.6,164.5 234.6,176.1 234.7,176.5 234.8,174.2 234.9,180.0 235.0,181.7 235.1,179.6 235.1,183.4 235.1,188.7 235.2,191.4 235.2,187.3 235.3,187.3 235.4,189.8 235.4,186.1 235.6,186.0 235.7,184.2 235.9,181.9 236.1,182.9 236.3,180.1 236.5,184.8 236.5,192.7 236.6,196.8 236.6,193.3 236.7,196.6 236.7,203.7 236.7,200.5 236.8,200.1 237.0,192.3 237.3,193.9 237.6,189.6 238.0,189.8 238.4,187.1 239.0,191.9 239.3,189.4 239.8,183.6 240.2,185.0 240.5,180.9 240.6,178.6 240.9,178.0 241.1,180.1 241.5,179.0 241.8,184.2 242.4,178.0 243.2,172.0 243.7,172.2 243.9,176.1 244.1,177.8 244.4,177.4 244.8,181.1 245.1,182.3 245.4,179.4 245.9,180.1 246.4,182.9 246.9,176.9 247.5,172.2 247.7,169.9 248.2,172.8 248.7,179.2 249.4,178.4 250.0,176.3 250.7,173.0 251.0,172.8 252.1,173.0 252.5,169.9 252.9,170.5 252.9,168.4 253.0,165.5 253.3,162.6 253.4,166.2 253.4,167.0 253.5,165.8 253.5,165.5 253.6,168.0 253.6,167.6 253.9,162.7 254.0,165.1 254.1,163.7 254.2,168.2 254.3,170.3 254.3,170.7 254.4,173.4 254.6,172.6 254.8,178.0 255.0,179.8 255.2,179.2 255.6,177.4 256.1,174.3 256.6,168.9 256.7,162.7 257.0,168.9 257.4,171.1 257.8,170.1 258.2,173.4 258.8,175.7 259.1,173.8 259.5,175.3 259.8,184.6 260.0,184.4 260.2,185.6 260.3,186.3 260.4,186.0 260.5,177.6 260.6,178.2 260.9,177.8 261.1,182.5 261.3,185.2 261.3,189.2 261.5,183.6 261.7,188.3 261.9,186.0 262.2,185.2 262.7,184.6 263.0,182.1 263.4,179.2 263.9,179.0 264.2,185.0 264.8,184.0 265.1,184.4 265.5,190.4 265.8,194.3 266.0,194.7 266.3,188.7 266.8,190.6 267.1,195.4 267.3,198.1 267.5,193.9 267.8,194.8 268.4,192.1 268.8,195.6 269.3,200.8 269.8,199.7 270.2,202.4 270.4,200.1 270.6,194.8 270.9,196.8 271.3,196.8 271.7,198.1 272.2,189.6 272.6,190.4 273.0,187.3 273.4,185.6 273.8,184.6 274.1,189.4 274.4,191.8 274.9,186.1 275.3,190.8 275.6,195.6 275.7,191.4 276.1,191.4 276.4,186.5 276.8,183.6 277.2,183.6 277.6,185.0 278.0,188.7 278.4,195.6 278.5,199.9 278.7,200.3 279.0,197.7 279.3,203.7 279.3,210.9 279.4,211.3 279.5,206.6 279.7,203.9 279.9,197.9 280.1,196.0 280.4,197.4 280.8,197.4 281.2,202.2 281.5,205.9 281.7,203.7 282.0,205.9 282.2,209.3 282.5,209.5 282.8,211.1 282.8,214.0 283.0,210.7 283.4,203.9 283.9,200.5 284.1,206.1 284.4,207.2 284.7,208.0 285.0,202.6 285.2,205.5 285.4,210.3 285.6,209.0 286.0,210.7 286.4,212.8 286.7,211.5 286.9,217.3 287.2,212.3 287.5,213.4 287.9,214.6 288.1,212.4 288.3,216.3 288.5,204.3 288.6,207.8 288.8,199.1 288.9,199.9 289.1,194.7 289.2,191.2 289.3,188.3 289.4,188.3 289.6,189.2 289.8,189.6 290.0,193.7 290.2,191.2 290.5,191.6 290.7,187.5 290.9,187.1 291.1,188.5 291.4,188.9 291.7,189.0 292.0,187.7 292.4,187.9 292.7,190.6 292.8,191.2 292.8,192.3 292.9,192.3 292.9,191.2 293.0,191.4 293.3,190.2 293.8,191.6 294.3,195.2 294.5,200.5 295.0,197.7 295.4,191.0 295.9,192.1 296.3,189.0 296.9,189.2 297.6,193.3 298.2,192.3 298.9,196.8 299.6,194.3 300.3,192.9 300.6,189.8 300.7,194.3 300.8,198.1 301.3,198.9 301.6,193.1 302.4,199.1 303.1,196.6 303.5,192.3 304.1,193.1 304.6,193.7 305.5,193.5 306.4,197.2 307.1,195.4 308.0,197.7 308.4,198.5 308.9,203.0 309.1,209.7 309.2,210.7 309.4,202.6 309.8,198.9 310.6,197.6 311.4,195.6 312.2,197.2 312.9,201.8 313.5,202.6 314.1,200.8 314.4,195.4 314.7,197.9 315.2,199.1 315.6,203.2 315.8,200.1 316.0,203.9 316.2,200.5 316.4,201.4 316.6,197.4 316.7,190.6 316.7,188.1 316.8,186.7 317.0,192.9 317.1,191.6 317.3,193.9 317.3,192.1 317.4,190.0 317.6,187.1 317.7,185.4 317.9,188.7 318.2,187.3 318.4,182.9 318.7,187.1 318.9,186.7 319.1,188.7 319.4,184.4 319.7,181.3 319.9,183.4 320.1,188.7 320.3,185.4 320.5,175.7 320.5,173.4 320.6,175.1 320.7,172.4 320.8,179.4 321.1,185.8 321.2,182.1 321.4,185.2 321.7,187.7 322.0,188.7 322.3,181.5 322.7,181.9 323.2,181.7 323.6,185.0 324.0,184.6 324.5,182.3 325.0,180.3 325.5,177.1 325.9,174.9 326.2,181.1 326.6,181.7 327.1,181.7 327.6,182.5 328.1,175.9 328.4,176.1 329.0,179.4 329.6,185.4 329.9,187.3 330.1,192.3 330.6,196.0 331.1,191.6 331.4,194.3 332.1,193.1 332.7,189.0 333.4,188.5 334.1,186.3 334.7,184.4 335.2,185.8 335.8,182.3 336.3,185.0 337.4,183.6 337.9,185.2 338.5,187.3 339.6,188.9 340.4,186.9 340.9,183.6 341.6,184.2 342.3,179.8 342.8,178.4 343.2,182.1 343.6,179.6 343.9,184.4 344.5,184.2 345.1,184.2 345.6,187.1 346.6,187.9 347.1,190.4 347.6,193.1 348.5,189.4 349.2,186.3 349.7,184.2 350.3,181.5 350.7,185.2 351.5,187.5 352.1,187.1 352.8,190.2 353.2,188.7 354.4,190.6 354.9,192.9 355.6,190.0 356.5,191.0 357.4,190.2 358.6,189.8 359.6,183.6 360.2,185.4 361.2,179.8 361.4,179.0 361.7,186.3 362.6,185.0 363.5,186.0 364.4,182.1 364.8,178.4 365.0,174.9 365.2,175.1 365.5,178.0 365.8,174.2 366.5,175.7 367.1,177.4 367.5,173.6 367.6,167.2 367.7,164.7 367.8,164.3 367.9,161.8 368.0,164.7 368.1,166.2 368.2,157.1 368.2,151.3 368.3,149.0 368.3,142.4 368.3,142.4 368.3,152.1 368.4,150.6 368.4,145.0 368.5,140.9 368.5,141.1 368.5,134.5 368.6,137.6 368.6,133.9 368.6,141.1 368.6,137.8 368.7,137.2 368.7,139.7 368.8,140.3 368.8,145.3 368.8,143.0 368.9,150.0 368.9,152.3 369.1,153.7 369.1,150.9 369.2,155.6 369.3,154.8 369.4,157.9 369.6,154.2 369.7,158.1 369.8,154.2 370.0,155.6 370.2,158.1 370.5,157.9 370.7,162.0 370.9,162.4 371.2,159.5 371.4,155.8 371.6,157.5 371.7,160.2 372.0,162.9 372.2,160.4 372.3,165.1 372.5,167.0 372.7,167.6 373.0,168.9 373.1,159.5 373.4,162.2 373.6,170.1 373.9,165.8 374.4,169.5 374.6,168.5 375.0,173.0 375.4,174.3 376.0,173.2 376.8,173.6 377.1,177.6 377.3,181.7 377.4,178.4 377.5,182.9 377.8,184.0 378.3,185.8 378.7,181.7 379.2,181.9 379.6,185.6 379.7,189.6 380.1,186.3 380.7,190.2 380.7,188.7 380.9,185.6 381.1,182.7 381.6,182.3 382.0,183.6 382.2,181.1 382.5,180.5 382.7,185.2 382.8,185.6 382.9,180.9 383.0,174.3 383.1,177.1 383.2,177.2 383.5,174.3 383.7,180.7 384.0,179.2 384.3,173.4 384.5,176.5 384.8,174.9 385.1,170.3 385.2,169.3 385.5,169.9 385.6,168.0 385.8,173.4 386.2,174.5 386.4,179.8 386.8,175.1 387.4,172.0 387.9,171.8 388.3,174.0 388.8,175.1 389.3,177.6 389.8,179.0 390.3,180.3 390.6,184.4 390.8,184.4 391.1,179.6 391.4,179.2 391.6,188.3 391.8,188.7 391.9,194.8 392.0,190.6 392.1,190.0 392.5,187.1 393.0,189.8 393.3,194.8 393.6,194.1 393.8,195.2 394.1,196.8 394.2,201.0 394.3,201.2 394.5,198.5 394.9,195.2 395.4,194.8 395.8,195.4 396.4,194.5 396.9,198.1 397.2,199.3 397.5,201.6 397.9,202.4 398.2,205.5 398.3,208.4 398.4,203.4 398.5,199.7 398.7,199.7 398.9,198.1 399.2,198.3 399.5,196.4 399.8,194.3 400.1,193.5 400.3,191.6 400.6,191.2 400.7,183.8 401.0,186.9 401.4,186.1 401.8,190.0 401.9,197.0 402.1,194.5 402.4,193.5 402.9,188.3 403.2,193.3 403.7,192.9 404.3,191.0 404.9,188.5 405.5,195.0 406.0,195.6 406.8,200.6 407.1,196.0 407.8,199.1 408.8,197.9 409.5,197.2 410.1,195.0 410.8,192.9 411.4,197.9 412.2,194.8 412.8,196.4 413.3,192.9 414.0,196.2 414.8,195.8 415.3,191.2 415.6,189.8 416.0,190.2 416.6,194.3 417.3,192.1 417.8,191.8 418.6,188.5 419.3,184.8 419.8,180.5 420.1,177.8 420.4,179.0 420.6,177.2 420.7,180.5 420.9,181.5 421.4,183.2 421.9,181.7 422.5,181.7 422.8,174.2 422.9,176.9 423.1,171.4 423.3,172.2 423.5,167.6 423.6,168.0 423.9,169.3 424.2,172.2 424.6,173.4 424.8,174.5 424.9,170.9 425.1,170.3 425.3,169.1 425.5,168.0 425.8,162.2 426.0,161.6 426.2,159.5 426.2,155.6 426.3,156.9 426.4,157.5 426.5,162.2 426.6,162.9 426.7,160.2 426.9,161.2 427.1,162.6 427.3,160.2 427.4,159.5 427.6,161.8 427.7,156.8 427.9,159.8 428.0,163.7 428.2,162.4 428.5,162.0 428.7,159.5 428.7,156.6 428.9,160.2 429.2,162.6 429.5,157.5 429.7,156.8 429.9,157.9 430.2,158.7 430.7,157.1 431.1,160.6 431.5,157.5 431.9,153.8 432.2,152.9 432.5,152.7 432.9,155.2 433.0,155.0 433.3,156.9 433.7,156.0 434.0,155.4 434.4,157.7 434.8,151.3 434.9,143.6 434.9,144.0 434.9,146.7 435.0,142.6 435.1,139.5 435.3,139.5 435.4,139.0 435.6,139.7 435.7,140.7 435.9,139.9 436.1,135.7 436.2,139.0 436.4,139.0 436.7,139.2 437.0,136.8 437.0,135.3 437.2,134.7 437.3,129.9 437.4,126.6 437.6,126.2 437.8,126.0 437.9,122.5 438.0,124.8 438.2,125.6 438.3,126.4 438.5,125.2 438.7,128.3 438.9,133.5 439.2,130.6 439.5,128.5 439.9,127.6 440.3,129.9 440.6,129.7 440.8,123.3 441.0,120.8 441.1,117.3 441.3,120.6 441.5,119.0 441.6,114.2 441.7,123.7 442.0,122.3 442.3,119.8 442.5,122.5 442.8,124.5 443.1,123.7 443.3,126.2 443.6,124.1 443.8,126.2 443.9,129.9 444.1,133.4 444.3,133.2 444.5,136.1 444.6,135.5 444.9,132.4 445.2,130.1 445.7,133.5 446.1,130.3 446.6,130.5 447.0,131.6 447.5,131.8 447.9,128.5 448.4,130.6 448.8,131.6 449.0,134.1 449.4,134.1 449.7,136.6 449.9,140.7 450.1,141.7 450.4,142.1 450.8,141.9 451.2,138.6 451.7,138.0 452.0,142.6 452.3,139.2 452.6,141.3 452.9,147.5 453.2,143.6 453.4,138.2 453.6,135.3 453.7,138.8 453.8,135.9 454.0,134.9 454.0,132.0 454.1,129.7 454.2,134.5 454.3,137.2 454.4,136.6 454.5,132.6 454.6,131.0 454.7,129.1 454.8,134.5 454.9,133.2 455.0,135.7 455.2,136.8 455.5,134.3 455.6,132.6 455.8,130.6 456.0,129.5 456.1,136.6 456.2,133.5 456.4,134.1 456.6,135.5 456.8,133.9 457.1,135.9 457.2,144.6 457.4,141.3 457.5,145.5 457.6,144.4 457.8,145.7 458.0,146.1 458.3,146.3 458.4,154.2 458.5,153.1 458.7,149.0 458.8,150.9 459.0,150.2 459.3,150.2 459.4,144.6 459.5,154.2 459.9,151.1 460.1,147.3 460.2,148.2 460.4,149.4 460.7,150.9 461.1,151.5 461.5,151.9 462.2,153.7 462.7,148.0 463.0,156.0 463.0,158.1 463.4,155.8 463.8,155.0 464.6,160.0 464.9,157.5 465.3,158.1 465.6,160.4 465.8,162.7 466.0,162.9 466.3,164.5 466.4,168.7 466.7,168.5 467.0,167.2 467.2,167.0 467.5,168.4 467.6,173.8 467.7,172.0 467.9,175.9 468.2,174.7 468.4,181.3 468.5,178.8 468.6,180.5 468.7,180.9 468.8,182.3 468.9,181.5 469.2,181.9 469.4,177.2 469.7,174.0 469.9,173.2 470.1,175.1 470.4,173.4 470.8,173.4 471.4,173.4 471.9,173.0 472.3,176.1 473.0,174.2 473.4,169.1 473.9,170.5 474.4,173.0 474.9,169.9 475.4,172.6 475.7,167.6 476.1,169.1 476.5,167.6 477.2,169.1 477.8,168.4 478.2,174.3 478.3,178.4 478.4,178.4 478.8,176.5 479.4,172.2 480.1,172.0 480.5,171.3 481.0,172.8 481.3,176.3 481.5,180.9 481.6,179.0 481.8,178.8 482.0,178.0 482.2,177.2 482.4,184.2 482.6,186.7 482.7,185.6 482.8,191.8 482.8,195.0 482.8,195.2 482.9,194.1 482.9,190.0 483.0,187.3 483.0,182.3 483.0,187.1 483.1,186.1 483.3,185.0 483.5,186.5 483.7,190.0 483.9,188.1 484.1,184.2 484.4,186.1 484.7,188.1 484.9,186.0 485.2,191.2 485.4,190.0 485.5,197.2 485.6,198.3 485.8,194.5 486.1,196.2 486.1,196.8 486.2,198.3 486.4,196.2 486.5,203.7 486.6,200.8 486.8,199.1 487.0,202.4 487.1,200.3 487.4,197.0 487.7,196.2 488.1,199.1 488.4,200.3 488.6,201.0 489.1,199.1 489.7,196.4 490.3,195.8 490.8,195.6 491.5,195.0 492.4,195.4 492.7,192.9 493.4,193.3 494.0,192.5 494.6,196.2 495.1,194.5 495.9,193.9 496.8,197.7 497.5,200.3 497.8,204.9 498.3,201.0 498.9,196.0 499.5,200.3 500.4,197.0 501.1,197.6 501.5,189.6 501.8,188.5 502.1,184.6 502.3,184.6 502.8,184.6 503.3,182.1 503.7,187.1 504.6,188.1 505.2,192.5 505.3,192.3 505.7,192.7 506.1,188.9 506.7,192.7 507.4,192.3 508.0,194.1 508.4,193.9 508.9,191.4 508.9,193.3 509.0,192.3 509.2,193.3 509.5,194.1 509.7,191.9 509.9,196.8 510.0,198.9 510.1,204.1 510.1,204.7 510.3,205.5 510.4,208.2 510.5,204.7 510.7,202.6 511.0,198.1 511.2,198.1 511.5,195.4 511.7,195.6 512.1,196.6 512.4,195.0 512.8,195.8 513.3,195.4 513.7,198.1 514.1,201.0 514.5,203.5 515.0,198.5 515.4,201.8 515.7,195.8 516.0,190.4 516.4,189.8 516.8,188.5 517.4,190.4 517.8,193.5 518.3,194.1 518.6,190.0 519.1,188.9 519.7,191.2 520.3,193.3 520.8,192.3 521.4,191.2 521.6,190.6 522.5,195.0 523.6,191.8 524.7,195.0 526.0,192.5 526.9,194.7 528.1,194.7 529.0,191.9 529.8,191.9 530.7,194.1 531.5,192.5 532.1,194.7 532.8,193.9 533.4,195.2 534.2,193.1 534.9,195.6 535.5,194.1 536.1,188.9 536.4,185.6 536.7,183.8 536.9,185.0 537.2,182.9 537.3,177.4 537.4,177.8 537.5,181.7 537.8,180.7 538.1,177.1 538.5,180.1 538.8,185.6 539.0,188.1 539.4,188.3 539.7,188.1 540.2,186.1 540.9,186.1 541.1,193.1 541.3,197.4 541.3,198.3 541.3,195.0 541.4,195.0 541.4,198.7 541.6,194.7 542.1,196.4 542.8,196.6 543.4,197.4 544.2,199.5 544.7,200.6 545.4,197.6 545.7,204.3 545.8,213.8 545.8,212.4 545.8,213.6 545.9,211.9 546.0,211.9 546.3,207.2 546.8,209.0 547.2,205.3 547.7,202.0 548.1,202.0 548.5,204.9 548.8,208.2 549.0,208.0 549.5,210.3 550.1,208.2 550.5,211.1 551.1,210.5 551.5,207.2 552.0,209.9 552.4,212.6 553.1,210.7 553.9,210.3 554.6,210.9 555.4,211.7 555.9,212.8 556.7,215.0 557.3,213.6 558.0,215.0 558.7,215.5 559.5,215.2 560.2,211.9 560.7,215.7 561.1,216.7 561.2,220.6 561.4,220.4 561.9,219.2 562.3,221.9 562.5,223.3 562.8,222.5 563.1,222.3 563.3,221.7 563.5,228.5 563.6,231.2 563.7,230.2 563.8,225.6 564.0,227.3 564.3,227.5 564.5,231.4 564.6,235.8 564.7,237.2 564.8,236.8 564.9,236.0 565.0,232.9 565.1,231.6 565.4,232.7 565.8,231.6 566.0,228.5 566.4,229.3 566.6,231.4 567.0,234.3 567.4,233.1 567.7,236.8 568.0,233.7 568.4,232.0 568.7,228.3 568.9,229.1 569.2,227.1 569.6,229.5 569.9,228.5 570.4,231.8 570.9,229.5 571.4,228.9 572.2,229.7 573.0,227.7 573.9,228.3 574.1,230.6 574.3,232.9 574.3,236.6 574.4,237.4 574.4,241.6 574.5,238.4 574.6,240.5 574.7,242.4 574.8,243.0 574.8,246.5 574.8,250.9 574.8,253.8 574.8,251.9 574.9,249.4 574.9,248.8 575.0,249.6 575.0,255.0 575.1,276.5 575.1,279.4 575.1,271.2 575.1,279.9 575.1,277.2 575.1,302.0 575.1,322.9 575.1,297.5 575.1,300.8 575.1,321.1 575.1,308.9 575.1,326.2 575.1,321.9 575.1,324.4 575.1,345.1 575.1,325.4 575.1,321.7 575.1,336.6 575.1,306.0 575.1,295.4 575.1,284.6 575.1,283.6 575.1,278.0 575.1,276.8 575.1,275.5 575.1,275.5 575.1,274.1 575.1,274.9 575.1,275.1 575.1,278.0 575.1,275.9 575.1,272.4 575.2,274.1 575.2,273.7 575.2,277.2 575.2,278.6 575.2,277.8 575.2,275.1 575.2,273.2 575.2,269.7 575.2,272.0 575.2,271.0 575.2,272.4 575.2,269.7 575.2,270.3 575.2,271.8 575.3,275.7 575.3,277.8 575.3,275.3 575.3,276.1 575.3,278.8 575.3,279.0 575.3,278.0 575.3,275.9 575.3,280.1 575.4,279.9 575.4,273.7 575.4,272.8 575.4,280.7 575.5,281.3 575.5,275.5 575.5,275.1 575.6,276.1 575.6,280.1 575.7,281.3 575.7,277.2 575.8,277.4 575.9,272.4 575.9,271.0 576.0,270.1 576.1,273.7 576.2,277.6 576.3,275.3 576.4,271.6 576.6,272.4 576.8,274.9 576.9,273.6 577.1,275.9 577.3,274.7 577.4,274.3 577.5,274.1 577.8,272.8 578.0,270.3 578.3,275.1 578.6,274.3 578.9,275.9 579.2,276.1 579.6,273.9 579.8,273.2 580.3,274.7 580.7,277.8 581.1,276.6 581.4,277.2 581.5,276.3 581.9,277.6 582.2,278.6 582.5,274.3 582.9,277.6 583.4,274.9 583.9,275.5 584.3,273.6 584.6,270.3 584.7,269.5 585.0,270.5 585.4,271.4 585.9,272.4 586.5,272.8 587.1,270.5 588.0,270.5 588.6,270.8 589.1,273.9 589.7,272.2 590.4,272.8 590.9,274.7 591.4,273.9 591.8,269.5 591.8,265.6 591.8,267.6 592.2,265.0 592.3,264.5 592.7,266.8 593.0,270.1 593.5,270.3 594.0,263.1 594.2,266.6 594.6,265.6 595.1,269.3 595.6,268.1 596.4,266.6 597.2,263.5 597.6,262.5 598.3,260.6 598.9,262.3 599.5,263.9 600.1,266.2 600.6,270.7 601.1,268.7 601.6,268.7 601.8,268.1 602.1,263.5 602.6,263.9 603.0,265.6 603.5,263.9 604.0,270.3 604.5,267.4 605.1,268.9 605.6,267.9 606.3,267.9 606.9,266.8 607.5,265.8 608.3,267.0 608.4,267.2 608.7,269.7 609.2,267.4 609.4,263.9 609.9,269.5 609.9,270.1 610.1,264.9 610.3,266.8 610.6,270.1 610.9,269.1 611.2,271.0 611.4,274.7 611.7,274.5 612.0,275.7 612.1,275.7 612.3,274.7 612.5,280.3 612.6,282.6 612.8,280.9 613.1,279.9 613.5,279.2 614.1,279.0 614.5,273.7 615.2,277.6 615.8,278.2 616.5,280.9 617.0,281.1 617.5,279.0 617.9,282.3 618.3,283.4 618.6,285.2 619.0,280.9 619.2,278.8 619.4,279.2 619.5,272.4 619.6,277.6 619.7,278.6 619.8,274.7 619.9,278.6 620.0,281.3 620.1,284.4 620.2,280.9 620.4,278.8 620.6,279.7 620.9,279.7 621.2,278.6 621.4,277.0 621.6,282.4 621.7,288.8 621.8,289.4 621.9,291.9 622.2,289.8 622.4,287.5 622.8,290.8 623.0,293.7 623.2,294.4 623.4,293.1 623.6,293.3 624.0,298.3 624.3,297.9 624.6,293.1 625.0,294.1 625.3,296.4 625.7,294.8 626.1,290.6 626.4,293.3 626.8,294.1 627.3,297.1 627.8,298.3 628.4,297.5 628.6,307.2 628.6,306.0 628.7,302.6 628.9,299.7 629.3,301.2 629.5,299.9 629.9,299.1 630.3,298.1 630.6,296.0 630.9,292.9 631.2,287.7 631.5,283.6 631.8,284.6 632.2,285.3 632.8,283.6 633.4,285.5 634.1,283.8 634.8,286.9 635.7,281.5 636.2,277.4 636.9,279.9 637.8,279.9 638.4,280.5 639.2,281.7 639.7,278.2 640.3,282.8 640.8,283.4 641.7,284.8 642.6,282.6 643.3,282.4 643.8,287.7 644.0,292.1 644.1,292.7 644.3,295.0 644.5,297.9 644.8,293.5 645.2,289.8 645.7,291.1 646.1,294.1 646.5,292.3 646.6,284.6 646.7,282.4 646.8,282.1 647.0,281.9 647.2,282.1 647.4,279.5 647.7,278.8 647.9,279.0 648.1,284.2 648.4,281.7 648.7,279.0 649.1,282.4 649.2,285.0 649.4,292.5 649.5,297.0 649.5,297.5 649.6,294.4 649.8,298.7 649.8,295.6 649.9,294.8 650.0,296.0 650.1,299.9 650.1,301.8 650.2,299.5 650.4,301.0 650.5,302.6 650.6,298.9 650.7,300.2 651.0,296.8 651.2,294.2 651.6,295.8 651.9,292.9 652.1,293.7 652.5,295.2 652.7,286.9 652.7,288.6 652.8,285.2 652.9,282.6 653.0,277.8 653.1,278.8 653.1,280.5 653.3,280.1 653.5,280.5 653.7,283.4 653.9,281.7 654.1,281.9 654.2,278.8 654.2,278.6 654.3,277.6 654.4,278.6 654.5,272.8 654.5,273.2 654.7,273.7 655.0,274.9 655.3,272.0 655.7,271.0 656.0,272.2 656.3,273.7 656.6,273.0 657.0,274.1 657.4,274.7 657.7,279.2 658.0,275.1 658.4,272.8 659.0,271.0 659.4,272.4 659.9,273.6 660.6,273.0 661.2,275.5 661.9,277.8 662.6,277.6 663.7,279.0 664.3,280.9 665.0,282.8 665.5,285.2 666.2,288.1 666.7,287.9 667.4,288.4 668.1,289.2 668.7,291.3 669.2,291.7 669.8,289.8 670.7,291.1 671.4,292.3 672.4,293.9 673.3,292.5 673.6,291.3 674.0,293.3 674.4,295.8 674.7,297.5 674.9,297.9 675.0,295.8 675.2,296.8 675.5,297.5 675.7,299.1 675.9,296.2 676.0,291.5 676.2,294.2 676.5,294.1 676.8,293.1 677.0,291.9 677.5,288.8 678.0,290.8 678.6,286.5 679.2,286.9 679.8,290.8 680.5,288.1 681.0,291.0 681.6,293.9 682.1,295.4 683.3,294.1 683.9,297.1 684.8,295.0 686.1,297.0 686.9,295.6 687.8,293.3 688.5,291.9 689.3,290.0 690.1,289.2 691.0,287.3 691.8,291.0 692.6,290.0 693.3,291.0 694.3,290.8 695.2,290.6 695.7,292.5 696.3,291.3 697.0,292.1 697.4,291.3 698.2,292.3 699.4,291.5 700.5,292.1 701.6,293.9 702.2,292.9 702.3,298.1 702.4,297.9 702.5,301.6 702.7,297.3 703.0,296.8 703.1,296.2 703.3,295.6 703.6,293.1 703.7,291.0 704.0,287.9 704.2,288.1 704.6,290.8 704.7,287.5 705.2,290.8 705.5,288.2 705.7,283.4 705.9,285.7 706.2,289.4 706.7,287.3 707.1,287.7 707.4,286.5 707.7,292.9 708.0,293.5 708.2,292.9 708.5,297.0 709.0,293.3 709.3,297.3 709.7,296.0 710.3,296.0 710.9,294.1 711.4,292.1 712.3,295.2 713.3,294.2 714.4,295.2 715.7,291.7 717.0,289.4 717.8,289.8 718.4,291.1 719.3,289.4 720.2,288.6 721.2,287.3 722.3,287.3 723.2,285.2 723.5,281.5 723.6,285.9 723.9,286.9 724.4,284.2 724.8,282.6 725.4,281.1 725.8,279.0 726.1,272.8 726.2,269.9 726.3,273.9 726.5,274.3 726.7,277.6 727.2,277.8 727.5,269.7 727.6,266.8 727.8,267.9 728.0,268.1 728.2,271.4 728.7,271.2 729.3,271.8 729.6,270.3 730.1,274.9 730.8,273.4 731.2,278.2 731.8,278.8 732.3,280.3 733.2,278.8 734.6,276.6 735.9,279.5 737.2,278.2 739.0,277.4 739.9,274.9 741.1,277.0 741.7,279.2 742.6,282.4 743.8,282.8 745.0,281.9 745.7,284.4 746.7,279.9 747.6,281.5 748.7,280.9 749.9,283.6 750.7,285.0 750.9,289.0 751.7,286.9 752.7,285.9 753.4,289.2 754.4,290.2 755.1,288.1 756.0,286.9 756.7,284.6 757.4,290.2 757.7,292.3 758.1,290.2 758.5,289.4 759.1,292.1 759.2,303.3 759.2,299.3 759.2,299.5 759.2,303.9 759.3,302.9 759.3,302.9 759.4,305.7 759.4,307.8 759.5,304.3 759.5,306.8 759.6,305.5 759.7,303.3 759.9,304.1 760.1,303.3 760.4,303.3 760.7,306.2 761.2,305.1 761.7,312.4 761.7,308.9 761.8,308.9 762.0,310.3 762.1,313.8 762.2,314.7 762.4,314.0 762.7,312.0 762.8,316.7 762.9,318.4 763.0,319.4 763.1,321.9 763.1,324.2 763.2,323.1 763.4,318.4 763.6,326.3 763.7,323.8 763.9,321.3 764.0,321.3 764.4,322.9 764.7,320.5 764.9,315.7 765.2,314.5 765.4,314.2 765.9,314.5 766.4,316.5 766.9,316.9 767.3,316.7 767.8,314.9 768.3,313.0 768.5,310.9 768.8,307.6 769.2,310.7 769.6,303.3 769.9,302.4 770.2,301.2 770.6,301.6 770.8,306.6 771.3,302.6 771.9,302.8 772.7,304.9 773.3,302.8 773.5,297.7 774.5,300.0 775.4,301.0 776.2,297.1 776.8,298.7 777.5,298.3 778.0,293.3 778.7,297.3 779.4,300.8 780.2,298.9 781.4,302.4 782.3,299.9 783.3,299.9 784.1,300.0 784.7,302.9 785.1,298.9 785.2,295.8 785.5,299.7 785.8,293.3 786.0,293.5 786.4,300.2 786.7,301.4 787.1,302.8 787.5,302.2 788.0,301.2 788.5,303.7 789.1,300.8 789.7,298.7 790.2,297.0 791.1,299.1 792.0,303.9 793.1,304.1 793.4,301.6 794.1,304.5 795.2,303.3 796.2,304.9 797.4,305.1 798.1,302.8 798.9,301.6 799.7,302.6 800.8,301.4 801.7,305.8 802.4,307.0 803.5,308.9 804.6,311.5 805.5,310.7 806.5,312.0 807.3,312.4 808.2,312.8 809.2,312.0 810.2,312.8 811.2,315.5 811.5,316.1 812.3,314.5 812.6,314.9 812.9,315.5 813.2,316.1 813.6,314.0 814.1,312.6 814.4,309.3 814.5,303.9 814.7,304.1 814.9,305.3 815.1,302.0 815.4,302.9 815.7,309.5 815.8,313.0 815.9,314.0 816.1,311.1 816.4,314.5 816.7,312.8 817.0,314.5 817.5,313.8 817.7,309.3 818.0,307.0 818.7,306.0 819.2,304.9 819.4,302.0 819.7,304.3 820.0,302.2 820.2,300.4 820.7,303.9 821.1,304.7 821.9,304.1 822.8,304.9 823.7,304.1 824.4,308.0 824.8,306.6 825.4,308.9 826.0,311.3 826.5,313.0 827.0,314.4 827.5,312.8 828.2,313.0 828.9,314.0 829.8,315.3 830.5,311.5 831.4,309.9 831.8,307.6 832.7,309.9 833.3,310.5 834.1,311.6 834.7,305.8 835.1,303.1 835.5,303.3 836.1,304.1 836.9,302.9 837.4,301.6 837.8,302.9 838.3,306.8 838.8,305.8 839.2,305.7 839.7,308.7 840.0,313.4 840.3,311.3 840.5,310.1 840.8,309.1 841.1,311.5 841.3,310.7 841.5,311.6 841.6,310.9 841.6,311.1 841.7,310.9 841.8,312.8 841.8,312.4 841.9,312.2 842.0,312.8 842.2,316.3 842.7,316.3 842.9,317.8 843.3,318.0 843.8,320.2 844.1,313.4 844.3,316.7 845.0,316.3 845.5,318.0 845.7,317.4 846.0,317.8 846.3,317.8 846.6,314.4 847.1,311.6 847.3,316.3 847.8,319.0 847.9,314.9 848.2,315.3 848.7,311.8 849.1,313.2 849.7,310.3 850.1,307.2 850.6,310.7 851.0,313.2 851.6,316.3 852.1,315.9 852.4,313.4 852.8,318.0 853.2,315.9 853.7,317.4 854.1,321.5 854.2,320.5 854.3,321.5 854.5,324.4 854.7,322.5 855.0,322.7 855.4,325.0 855.8,326.7 856.2,326.7 856.5,323.3 857.2,323.1 858.0,323.1 858.8,323.8 859.4,326.3 860.1,326.3 860.7,329.2 861.2,327.1 861.8,326.3 862.6,330.4 863.4,331.0 864.2,333.7 864.5,333.3 865.4,335.4 865.8,335.6 866.4,335.4 867.2,335.6 867.8,337.6 868.0,338.7 868.1,342.6 868.2,341.8 868.3,343.6 868.4,348.4 868.5,348.4 868.5,349.7 868.6,347.0 868.6,351.3 868.7,354.8 868.7,351.3 868.7,352.8 868.7,352.1 868.8,350.7 868.8,351.5 868.8,344.7 868.9,345.9 869.0,345.1 869.1,345.1 869.1,344.5 869.2,349.4 869.3,352.8 869.4,350.3 869.5,347.4 869.6,348.0 869.7,348.8 869.9,348.2 870.0,346.8 870.2,350.9 870.4,349.2 870.6,348.8 870.7,346.1 870.9,344.5 871.1,340.1 871.2,341.0 871.4,345.5 871.6,346.7 871.8,348.4 872.0,348.6 872.2,352.5 872.4,353.8 872.5,353.0 872.6,353.6 872.9,357.1 872.9,357.7 873.0,360.4 873.1,359.8 873.2,362.5 873.4,359.8 873.6,358.1 873.7,355.0 873.9,353.2 874.2,355.7 874.5,354.8 874.9,354.0 875.1,351.9 875.3,350.3 875.6,349.0 875.9,349.9 876.2,349.2 876.6,348.4 877.1,350.9 877.7,351.7 878.2,351.1 878.9,347.8 879.2,348.6 879.6,347.2 880.0,348.6 880.4,347.4 880.6,347.6 880.7,355.7 880.7,357.3 880.7,361.9 880.8,374.3 880.8,367.0 880.8,373.5 880.8,366.0 880.8,361.7 880.8,364.1 880.8,361.9 880.8,362.3 880.9,363.1 880.9,361.3 880.9,361.3 881.0,359.6 881.0,358.8 881.0,358.4 881.1,357.3 881.1,359.0 881.1,358.8 881.2,360.2 881.3,361.9 881.4,366.0 881.5,365.4 881.5,367.1 881.6,369.3 881.7,367.1 881.8,365.0 881.8,363.5 882.0,361.0 882.1,361.2 882.3,359.6 882.5,356.9 882.8,357.3 883.2,361.2 883.5,357.7 883.8,355.5 884.0,355.2 884.3,355.7 884.7,355.5 885.2,354.8 885.6,355.5 886.0,359.0 886.4,361.2 886.6,367.1 886.7,363.3 887.0,361.2 887.1,355.9 887.4,356.3 887.8,356.9 888.2,356.3 888.4,354.6 888.7,359.8 889.0,358.6 889.4,357.7 889.7,360.4 890.0,361.5 890.3,364.6 890.5,365.6 890.8,366.4 890.8,364.4 890.9,362.3 891.2,363.3 891.6,360.8 892.0,360.4 892.4,356.5 892.5,355.7 892.6,355.5 892.9,357.5 893.3,357.1 893.8,357.9 894.1,358.8 894.3,362.1 894.4,356.1 894.7,360.0 894.9,357.9 895.2,355.4 895.5,355.0 895.6,352.5 895.8,351.9 895.9,354.4 896.0,356.5 896.2,352.3 896.4,353.2 896.5,357.1 896.6,359.8 896.7,353.2 896.8,352.8 897.0,353.8 897.2,354.6 897.4,353.0 897.7,355.9 897.8,354.0 898.0,351.7 898.2,354.2 898.4,355.9 898.6,355.5 898.8,351.9 899.0,352.3 899.2,352.8 899.5,355.4 899.7,357.3 899.8,360.6 899.9,364.8 899.9,367.0 900.0,360.0 900.1,362.3 900.2,361.5 900.3,354.8 900.4,356.3 900.4,354.2 900.5,352.5 900.6,350.7 900.7,349.2 900.8,349.0 901.0,347.6 901.2,346.8 901.4,347.6 901.6,351.3 901.8,351.1 902.0,354.2 902.2,356.3 902.3,357.3 902.4,357.9 902.5,361.2 902.6,359.0 902.8,361.3 902.9,361.5 903.1,358.8 903.3,355.0 903.6,357.3 903.9,359.0 904.2,357.1 904.5,360.4 904.6,368.1 904.7,371.6 904.8,368.7 905.0,370.8 905.2,369.3 905.4,369.7 905.6,374.3 905.8,376.2 906.0,373.7 906.3,370.8 906.6,369.3 906.9,368.9 907.4,370.4 907.9,369.7 908.2,369.9 908.6,368.3 909.0,367.7 909.3,365.8 909.5,362.7 910.0,361.2 910.4,362.5 910.7,362.9 911.1,360.0 911.5,362.1 912.1,365.4 912.4,367.0 912.9,366.6 913.3,366.0 913.8,370.4 914.1,370.2 914.4,369.3 914.8,369.9 915.2,370.8 915.3,371.8 915.6,366.8 915.8,370.8 915.9,373.3 916.1,372.2 916.3,375.3 916.4,376.0 916.4,375.7 916.5,376.6 916.6,379.1 916.8,376.4 917.1,378.2 917.4,374.5 917.6,379.1 918.0,380.3 918.4,377.0 918.9,377.6 919.2,377.6 919.8,378.0 920.2,378.0 920.5,379.3 920.9,378.9 921.2,379.9 921.5,378.9 921.7,380.7 922.0,382.6 922.1,384.2 922.2,385.1 922.4,384.7 922.6,384.0 922.7,387.6 922.8,389.8 922.9,390.4 922.9,390.9 923.0,394.6 923.0,394.6 923.0,404.7 923.0,401.4 923.0,400.2 923.1,399.1 923.1,396.0 923.1,399.1 923.2,398.9 923.2,398.5 923.2,397.7 923.3,400.2 923.3,402.3 923.4,399.4 923.4,396.3 923.5,396.7 923.6,394.2 923.7,393.6 923.8,389.4 923.8,390.2 924.0,391.5 924.1,392.7 924.3,389.6 924.5,389.0 924.6,389.2 924.8,390.5 924.9,390.9 925.0,391.3 925.1,395.2 925.2,388.4 925.2,388.2 925.3,390.2 925.4,391.3 925.6,393.8 925.7,394.6 925.7,392.7 925.8,389.2 925.9,391.5 925.9,395.2 926.0,391.7 926.1,390.5 926.1,395.2 926.2,399.1 926.2,402.0 926.2,409.9 926.2,423.6 926.2,407.4 926.2,423.2 926.2,419.9 926.2,416.7 926.2,413.4 926.2,406.8 926.2,405.4 926.3,401.6 926.3,401.0 926.3,405.2 926.3,408.1 926.4,407.2 926.4,406.4 926.5,406.2 926.5,404.3 926.5,399.2 926.6,401.6 926.6,404.1 926.7,397.5 926.7,401.2 926.8,403.5 926.8,403.7 926.9,402.3 927.0,394.4 927.0,390.5 927.1,394.0 927.1,392.1 927.1,396.7 927.2,400.6 927.3,399.4 927.3,400.2 927.4,406.4 927.4,409.7 927.4,410.1 927.5,410.7 927.5,410.3 927.5,405.8 927.6,406.8 927.6,409.1 927.7,410.5 927.8,410.3 927.8,416.5 927.8,414.5 927.9,416.1 927.9,416.1 927.9,420.3 927.9,428.6 927.9,434.8 927.9,429.2 928.0,427.5 928.0,416.5 928.0,412.2 928.0,406.4 928.0,408.7 928.0,412.8 928.1,405.4 928.1,406.6 928.1,405.4 928.1,397.9 928.1,399.4 928.2,406.8 928.2,409.3 928.2,410.9 928.3,407.8 928.3,404.5 928.4,405.6 928.4,400.2 928.5,399.2 928.6,402.0 928.6,399.8 928.7,401.6 928.8,400.4 928.9,406.6 929.0,407.0 929.1,407.2 929.1,411.6 929.2,415.1 929.2,419.6 929.2,424.8 929.2,424.6 929.2,424.2 929.2,430.2 929.3,427.3 929.3,424.0 929.3,420.7 929.4,420.7 929.4,421.7 929.5,420.3 929.6,422.8 929.7,423.2 929.8,417.8 929.9,425.4 930.0,427.3 930.1,428.3 930.2,426.9 930.3,425.5 930.5,422.8 930.6,419.9 930.7,424.2 930.8,425.9 931.0,425.7 931.1,420.1 931.2,422.5 931.3,418.0 931.4,420.3 931.6,419.7 931.7,420.3 931.9,422.6 932.1,425.9 932.3,422.8 932.6,425.7 932.9,420.3 933.1,419.7 933.3,415.9 933.3,411.8 933.4,415.1 933.5,414.5 933.7,413.8 933.9,413.0 934.0,412.0" fill="none" stroke="#d97706" stroke-width="1.2" stroke-linejoin="round" opacity="0.6"/><text x="942" y="472.0" text-anchor="start" font-size="11" fill="#d97706">3.95</text><text x="942" y="396.0" text-anchor="start" font-size="11" fill="#d97706">4.34</text><text x="942" y="320.0" text-anchor="start" font-size="11" fill="#d97706">4.74</text><text x="942" y="244.0" text-anchor="start" font-size="11" fill="#d97706">5.13</text><text x="942" y="168.0" text-anchor="start" font-size="11" fill="#d97706">5.52</text><text x="942" y="92.0" text-anchor="start" font-size="11" fill="#d97706">5.91</text><text x="942" y="80.0" text-anchor="start" font-size="11" font-weight="600" fill="#d97706">price</text>
  <polygon points="81.5,468.0 81.5,319.7 81.5,327.7 98.1,337.6 152.3,288.3 437.8,250.1 563.5,205.9 575.1,161.7 575.1,173.3 575.1,188.0 575.1,206.2 575.1,229.1 868.1,257.6 926.2,116.1 926.2,468.0" fill="#16a34a" fill-opacity="0.08"/>
  <polyline points="81.5,319.7 81.5,327.7 98.1,337.6 152.3,288.3 437.8,250.1 563.5,205.9 575.1,161.7 575.1,173.3 575.1,188.0 575.1,206.2 575.1,229.1 868.1,257.6 926.2,116.1" fill="none" stroke="#16a34a" stroke-width="2" stroke-linejoin="round"/>
  <line x1="88" y1="102" x2="110" y2="102" stroke="#16a34a" stroke-width="2.5"/><text x="116" y="106" font-size="11.5" fill="#374151">equity</text><line x1="88" y1="118" x2="110" y2="118" stroke="#d97706" stroke-width="2.5" opacity="0.8"/><text x="116" y="122" font-size="11.5" fill="#374151">price</text>
  <text x="78" y="502" text-anchor="start" font-size="12" fill="#6b7280">2026-01-01</text><text x="934" y="502" text-anchor="end" font-size="12" fill="#6b7280">2026-01-31</text>
</svg>
