<svg xmlns="http://www.w3.org/2000/svg" width="1100" height="560" font-family="ui-sans-serif, system-ui, sans-serif" viewBox="0 0 1100 560"><rect width="1100" height="560" fill="#fff"/><text x="80" y="28" fill="#111827" font-size="18" font-weight="700">Zone Recovery — TRUMPUSDC fee-tier comparison (best setting)</text><text x="80" y="48" fill="#6b7280" font-size="12.5">lev 15 · ratio 4 · gap 35% · maxSteps 6 · maxDD 60% · random · equity per fee tier vip 0..9</text><text x="80" y="68" fill="#1d4ed8" font-size="12.5" font-weight="600">USDC margin · BNB −10%</text><line x1="80" x2="932" y1="508" y2="508" stroke="#e5e7eb" stroke-width="1"/><text x="70" y="512" fill="#6b7280" font-size="12" text-anchor="end">0.00</text><line x1="80" x2="932" y1="424" y2="424" stroke="#e5e7eb" stroke-width="1"/><text x="70" y="428" fill="#6b7280" font-size="12" text-anchor="end">5126</text><line x1="80" x2="932" y1="340" y2="340" stroke="#e5e7eb" stroke-width="1"/><text x="70" y="344" fill="#6b7280" font-size="12" text-anchor="end">10252</text><line x1="80" x2="932" y1="256" y2="256" stroke="#e5e7eb" stroke-width="1"/><text x="70" y="260" fill="#6b7280" font-size="12" text-anchor="end">15378</text><line x1="80" x2="932" y1="172" y2="172" stroke="#e5e7eb" stroke-width="1"/><text x="70" y="176" fill="#6b7280" font-size="12" text-anchor="end">20503</text><line x1="80" x2="932" y1="88" y2="88" stroke="#e5e7eb" stroke-width="1"/><text x="70" y="92" fill="#6b7280" font-size="12" text-anchor="end">25629</text><line x1="80" x2="932" y1="344.1" y2="344.1" stroke="#9ca3af" stroke-dasharray="6 4" stroke-width="1.5"/><polyline fill="none" stroke="#2563eb" stroke-linejoin="round" stroke-width="1.8" points="80 344.1 80 353.1 96.8 364.4 151.4 310.2 439.4 268.4 566.2 219.8 577.9 171.2 577.9 184.4 577.9 200.9 577.9 221.6 577.9 247.4 873.5 279.7 932 124.2" opacity=".9"/><polyline fill="none" stroke="#dc2626" stroke-linejoin="round" stroke-width="1.8" points="80 344.1 80 353.1 96.8 364.4 151.4 310.2 439.4 268.4 566.2 219.8 577.9 171.2 577.9 184.4 577.9 200.9 577.9 221.6 577.9 247.4 873.5 279.7 932 124.2" opacity=".9"/><polyline fill="none" stroke="#16a34a" stroke-linejoin="round" stroke-width="1.8" points="80 344.1 80 353.1 96.8 364.3 151.4 310 439.4 268.1 566.2 219.4 577.9 170.7 577.9 183.9 577.9 200.3 577.9 220.8 577.9 246.5 873.5 278.6 932 122.9" opacity=".9"/><polyline fill="none" stroke="#d97706" stroke-linejoin="round" stroke-width="1.8" points="80 344.1 80 353 96.8 364.2 151.4 309.9 439.4 267.8 566.2 219.1 577.9 170.3 577.9 183.4 577.9 199.8 577.9 220.2 577.9 245.8 873.5 277.7 932 121.8" opacity=".9"/><polyline fill="none" stroke="#7c3aed" stroke-linejoin="round" stroke-width="1.8" points="80 344.1 80 353 96.8 364 151.4 309.6 439.4 267.5 566.2 218.6 577.9 169.8 577.9 182.8 577.9 199 577.9 219.3 577.9 244.7 873.5 276.4 932 120.3" opacity=".9"/><polyline fill="none" stroke="#0891b2" stroke-linejoin="round" stroke-width="1.8" points="80 344.1 80 353 96.8 364 151.4 309.6 439.4 267.4 566.2 218.6 577.9 169.7 577.9 182.7 577.9 198.9 577.9 219.2 577.9 244.5 873.5 276.2 932 120" opacity=".9"/><polyline fill="none" stroke="#db2777" stroke-linejoin="round" stroke-width="1.8" points="80 344.1 80 353 96.8 364 151.4 309.6 439.4 267.4 566.2 218.5 577.9 169.7 577.9 182.6 577.9 198.8 577.9 219.1 577.9 244.4 873.5 276.1 932 119.8" opacity=".9"/><polyline fill="none" stroke="#65a30d" stroke-linejoin="round" stroke-width="1.8" points="80 344.1 80 352.9 96.8 364 151.4 309.5 439.4 267.3 566.2 218.4 577.9 169.6 577.9 182.5 577.9 198.7 577.9 218.9 577.9 244.2 873.5 275.8 932 119.6" opacity=".9"/><polyline fill="none" stroke="#475569" stroke-linejoin="round" stroke-width="1.8" points="80 344.1 80 352.9 96.8 363.9 151.4 309.5 439.4 267.3 566.2 218.4 577.9 169.5 577.9 182.4 577.9 198.6 577.9 218.8 577.9 244.1 873.5 275.7 932 119.4" opacity=".9"/><polyline fill="none" stroke="#ea580c" stroke-linejoin="round" stroke-width="1.8" points="80 344.1 80 352.9 96.8 363.9 151.4 309.4 439.4 267.2 566.2 218.3 577.9 169.4 577.9 182.3 577.9 198.5 577.9 218.7 577.9 243.9 873.5 275.5 932 119.1" opacity=".9"/><line x1="950" x2="972" y1="94" y2="94" stroke="#ea580c" stroke-width="3"/><text x="980" y="98" fill="#374151" font-size="12.5">vip 9 23731</text><line x1="950" x2="972" y1="116" y2="116" stroke="#475569" stroke-width="3"/><text x="980" y="120" fill="#374151" font-size="12.5">vip 8 23715</text><line x1="950" x2="972" y1="138" y2="138" stroke="#65a30d" stroke-width="3"/><text x="980" y="142" fill="#374151" font-size="12.5">vip 7 23703</text><line x1="950" x2="972" y1="160" y2="160" stroke="#db2777" stroke-width="3"/><text x="980" y="164" fill="#374151" font-size="12.5">vip 6 23686</text><line x1="950" x2="972" y1="182" y2="182" stroke="#0891b2" stroke-width="3"/><text x="980" y="186" fill="#374151" font-size="12.5">vip 5 23675</text><line x1="950" x2="972" y1="204" y2="204" stroke="#7c3aed" stroke-width="3"/><text x="980" y="208" fill="#374151" font-size="12.5">vip 4 23659</text><line x1="950" x2="972" y1="226" y2="226" stroke="#d97706" stroke-width="3"/><text x="980" y="230" fill="#374151" font-size="12.5">vip 3 23566</text><line x1="950" x2="972" y1="248" y2="248" stroke="#16a34a" stroke-width="3"/><text x="980" y="252" fill="#374151" font-size="12.5">vip 2 23501</text><line x1="950" x2="972" y1="270" y2="270" stroke="#2563eb" stroke-width="3"/><text x="980" y="274" fill="#374151" font-size="12.5">vip 0 23420</text><line x1="950" x2="972" y1="292" y2="292" stroke="#dc2626" stroke-width="3"/><text x="980" y="296" fill="#374151" font-size="12.5">vip 1 23420</text><text x="80" y="542" fill="#6b7280" font-size="12" text-anchor="start">2026-01-01</text><text x="932" y="542" fill="#6b7280" font-size="12" text-anchor="end">2026-01-31</text></svg>