<?xml version="1.0" encoding="UTF-8"?>
<svg xmlns="http://www.w3.org/2000/svg" width="1100" height="560" viewBox="0 0 1100 560" font-family="ui-sans-serif, system-ui, sans-serif">
  <rect width="1100" height="560" fill="#ffffff"/>
  <text x="80" y="28" font-size="18" font-weight="700" fill="#111827">Zone Recovery — TRUMPUSDC fee-tier comparison (best setting)</text>
  <text x="80" y="48" font-size="12.5" fill="#6b7280">lev 15 · ratio 4 · gap 35% · maxSteps 6 · maxDD 60% · random  ·  equity per fee tier vip 0..9</text>
  <text x="80" y="68" font-size="12.5" font-weight="600" fill="#1d4ed8">USDC margin · BNB −10%</text>
  <line x1="80" y1="508.0" x2="932" y2="508.0" stroke="#e5e7eb" stroke-width="1"/><text x="70" y="512.0" text-anchor="end" font-size="12" fill="#6b7280">0.00</text><line x1="80" y1="424.0" x2="932" y2="424.0" stroke="#e5e7eb" stroke-width="1"/><text x="70" y="428.0" text-anchor="end" font-size="12" fill="#6b7280">5126</text><line x1="80" y1="340.0" x2="932" y2="340.0" stroke="#e5e7eb" stroke-width="1"/><text x="70" y="344.0" text-anchor="end" font-size="12" fill="#6b7280">10252</text><line x1="80" y1="256.0" x2="932" y2="256.0" stroke="#e5e7eb" stroke-width="1"/><text x="70" y="260.0" text-anchor="end" font-size="12" fill="#6b7280">15378</text><line x1="80" y1="172.0" x2="932" y2="172.0" stroke="#e5e7eb" stroke-width="1"/><text x="70" y="176.0" text-anchor="end" font-size="12" fill="#6b7280">20503</text><line x1="80" y1="88.0" x2="932" y2="88.0" stroke="#e5e7eb" stroke-width="1"/><text x="70" y="92.0" text-anchor="end" font-size="12" fill="#6b7280">25629</text>
  <line x1="80" y1="344.1" x2="932" y2="344.1" stroke="#9ca3af" stroke-width="1.5" stroke-dasharray="6 4"/>
  <polyline points="80.0,344.1 80.0,353.1 96.8,364.4 151.4,310.2 439.4,268.4 566.2,219.8 577.9,171.2 577.9,184.4 577.9,200.9 577.9,221.6 577.9,247.4 873.5,279.7 932.0,124.2" fill="none" stroke="#2563eb" stroke-width="1.8" stroke-linejoin="round" opacity="0.9"/>
  <polyline points="80.0,344.1 80.0,353.1 96.8,364.4 151.4,310.2 439.4,268.4 566.2,219.8 577.9,171.2 577.9,184.4 577.9,200.9 577.9,221.6 577.9,247.4 873.5,279.7 932.0,124.2" fill="none" stroke="#dc2626" stroke-width="1.8" stroke-linejoin="round" opacity="0.9"/>
  <polyline points="80.0,344.1 80.0,353.1 96.8,364.3 151.4,310.0 439.4,268.1 566.2,219.4 577.9,170.7 577.9,183.9 577.9,200.3 577.9,220.8 577.9,246.5 873.5,278.6 932.0,122.9" fill="none" stroke="#16a34a" stroke-width="1.8" stroke-linejoin="round" opacity="0.9"/>
  <polyline points="80.0,344.1 80.0,353.0 96.8,364.2 151.4,309.9 439.4,267.8 566.2,219.1 577.9,170.3 577.9,183.4 577.9,199.8 577.9,220.2 577.9,245.8 873.5,277.7 932.0,121.8" fill="none" stroke="#d97706" stroke-width="1.8" stroke-linejoin="round" opacity="0.9"/>
  <polyline points="80.0,344.1 80.0,353.0 96.8,364.0 151.4,309.6 439.4,267.5 566.2,218.6 577.9,169.8 577.9,182.8 577.9,199.0 577.9,219.3 577.9,244.7 873.5,276.4 932.0,120.3" fill="none" stroke="#7c3aed" stroke-width="1.8" stroke-linejoin="round" opacity="0.9"/>
  <polyline points="80.0,344.1 80.0,353.0 96.8,364.0 151.4,309.6 439.4,267.4 566.2,218.6 577.9,169.7 577.9,182.7 577.9,198.9 577.9,219.2 577.9,244.5 873.5,276.2 932.0,120.0" fill="none" stroke="#0891b2" stroke-width="1.8" stroke-linejoin="round" opacity="0.9"/>
  <polyline points="80.0,344.1 80.0,353.0 96.8,364.0 151.4,309.6 439.4,267.4 566.2,218.5 577.9,169.7 577.9,182.6 577.9,198.8 577.9,219.1 577.9,244.4 873.5,276.1 932.0,119.8" fill="none" stroke="#db2777" stroke-width="1.8" stroke-linejoin="round" opacity="0.9"/>
  <polyline points="80.0,344.1 80.0,352.9 96.8,364.0 151.4,309.5 439.4,267.3 566.2,218.4 577.9,169.6 577.9,182.5 577.9,198.7 577.9,218.9 577.9,244.2 873.5,275.8 932.0,119.6" fill="none" stroke="#65a30d" stroke-width="1.8" stroke-linejoin="round" opacity="0.9"/>
  <polyline points="80.0,344.1 80.0,352.9 96.8,363.9 151.4,309.5 439.4,267.3 566.2,218.4 577.9,169.5 577.9,182.4 577.9,198.6 577.9,218.8 577.9,244.1 873.5,275.7 932.0,119.4" fill="none" stroke="#475569" stroke-width="1.8" stroke-linejoin="round" opacity="0.9"/>
  <polyline points="80.0,344.1 80.0,352.9 96.8,363.9 151.4,309.4 439.4,267.2 566.2,218.3 577.9,169.4 577.9,182.3 577.9,198.5 577.9,218.7 577.9,243.9 873.5,275.5 932.0,119.1" fill="none" stroke="#ea580c" stroke-width="1.8" stroke-linejoin="round" opacity="0.9"/>
  <line x1="950" y1="94" x2="972" y2="94" stroke="#ea580c" stroke-width="3"/><text x="980" y="98" font-size="12.5" fill="#374151">vip 9  23731</text>
  <line x1="950" y1="116" x2="972" y2="116" stroke="#475569" stroke-width="3"/><text x="980" y="120" font-size="12.5" fill="#374151">vip 8  23715</text>
  <line x1="950" y1="138" x2="972" y2="138" stroke="#65a30d" stroke-width="3"/><text x="980" y="142" font-size="12.5" fill="#374151">vip 7  23703</text>
  <line x1="950" y1="160" x2="972" y2="160" stroke="#db2777" stroke-width="3"/><text x="980" y="164" font-size="12.5" fill="#374151">vip 6  23686</text>
  <line x1="950" y1="182" x2="972" y2="182" stroke="#0891b2" stroke-width="3"/><text x="980" y="186" font-size="12.5" fill="#374151">vip 5  23675</text>
  <line x1="950" y1="204" x2="972" y2="204" stroke="#7c3aed" stroke-width="3"/><text x="980" y="208" font-size="12.5" fill="#374151">vip 4  23659</text>
  <line x1="950" y1="226" x2="972" y2="226" stroke="#d97706" stroke-width="3"/><text x="980" y="230" font-size="12.5" fill="#374151">vip 3  23566</text>
  <line x1="950" y1="248" x2="972" y2="248" stroke="#16a34a" stroke-width="3"/><text x="980" y="252" font-size="12.5" fill="#374151">vip 2  23501</text>
  <line x1="950" y1="270" x2="972" y2="270" stroke="#2563eb" stroke-width="3"/><text x="980" y="274" font-size="12.5" fill="#374151">vip 0  23420</text>
  <line x1="950" y1="292" x2="972" y2="292" stroke="#dc2626" stroke-width="3"/><text x="980" y="296" font-size="12.5" fill="#374151">vip 1  23420</text>
  <text x="80" y="542" text-anchor="start" font-size="12" fill="#6b7280">2026-01-01</text><text x="932" y="542" text-anchor="end" font-size="12" fill="#6b7280">2026-01-31</text>
</svg>
