<svg xmlns="http://www.w3.org/2000/svg" width="1000" height="520" font-family="ui-sans-serif, system-ui, sans-serif" viewBox="0 0 1000 520"><rect width="1000" height="520" fill="#fff"/><text x="78" y="28" fill="#111827" font-size="18" font-weight="700">Zone Recovery — BCHUSDT best setting (equity / PnL)</text><text x="78" y="48" fill="#6b7280" font-size="12.5">lev 4 · ratio 2 · gap 20% · maxSteps 4 · maxDD 20% · random · vip 9 · 3 series, 100.0% win · vol $49280505 ($1589695/day) · fees $7540</text><text x="78" y="68" fill="#1d4ed8" font-size="12.5" font-weight="600">USDT · BNB −10% · taker 0.0153%</text><text x="934" y="28" fill="#16a34a" font-size="18" font-weight="700" text-anchor="end">+531236 USDT (+0.53%)</text><line x1="78" x2="934" y1="468" y2="468" stroke="#e5e7eb" stroke-width="1"/><text x="68" y="472" fill="#6b7280" font-size="12" text-anchor="end">0.00</text><line x1="78" x2="934" y1="392" y2="392" stroke="#e5e7eb" stroke-width="1"/><text x="68" y="396" fill="#6b7280" font-size="12" text-anchor="end">21714747</text><line x1="78" x2="934" y1="316" y2="316" stroke="#e5e7eb" stroke-width="1"/><text x="68" y="320" fill="#6b7280" font-size="12" text-anchor="end">43429494</text><line x1="78" x2="934" y1="240" y2="240" stroke="#e5e7eb" stroke-width="1"/><text x="68" y="244" fill="#6b7280" font-size="12" text-anchor="end">65144241</text><line x1="78" x2="934" y1="164" y2="164" stroke="#e5e7eb" stroke-width="1"/><text x="68" y="168" fill="#6b7280" font-size="12" text-anchor="end">86858988</text><line x1="78" x2="934" y1="88" y2="88" stroke="#e5e7eb" stroke-width="1"/><text x="68" y="92" fill="#6b7280" font-size="12" text-anchor="end">108573735</text><line x1="78" x2="934" y1="118" y2="118" stroke="#9ca3af" stroke-dasharray="6 4" stroke-width="1.5"/><text x="934" y="112" fill="#6b7280" font-size="11" text-anchor="end">start 100000000</text><polyline fill="none" stroke="#d97706" stroke-linejoin="round" stroke-width="1.2" points="78 226.2 78.5 222.5 78.9 222.8 79 219.2 79.2 220.8 79.5 225.2 79.8 225.4 80.3 225.7 81 223.5 81.5 224.9 81.9 229.6 82.4 229.5 82.9 233.3 83.6 232.5 84.2 230.9 85.1 230.1 86.3 232.2 87.1 233.1 87.4 231.9 87.7 231.7 88.1 231.3 88.5 230.6 88.8 229 89.3 231.3 89.9 232.6 90.4 232.5 90.8 234 91.1 235.6 91.4 234.1 91.7 232.5 92 233.3 92.4 235.3 92.8 237.7 93.1 235.7 93.5 236.6 93.8 235.8 94 238.2 94.3 238 94.6 239.3 94.7 244.5 94.8 245.6 95 245.1 95.2 243.1 95.4 243.6 95.7 242.5 96 242.5 96.2 241.9 96.5 239.7 96.6 241.2 96.9 239.7 97.1 240.6 97.2 248.1 97.5 244.6 97.8 242.2 98.1 243 98.3 241.1 98.8 242.8 99.5 243.7 100.3 243.3 100.8 240.3 101.3 238.7 101.9 238.7 102.7 237.8 103.4 236.3 103.9 235.4 104.5 235.8 105.1 236.7 105.7 238.1 106 239.3 106.5 239.3 107.1 239.9 107.6 243 108.2 245.1 108.7 244 109.2 243.8 109.2 246 109.4 244 109.6 244.9 109.9 240.2 110.1 238.5 110.2 237.6 110.5 237.4 110.7 241 111.1 240.1 111.7 238.4 112.4 236.9 112.8 234.8 113.3 233 113.7 237.1 114.1 234.7 114.6 231.7 114.9 233.7 115.3 234.2 115.8 235.4 116.2 230.4 116.7 230.3 116.9 225.9 117.1 227.5 117.3 223.5 117.4 225.5 117.7 229.4 118.2 231.2 118.6 234.5 119 234 119.5 233.3 120.1 233.1 120.5 234.5 120.8 234 121.4 231.7 121.7 235.1 122.1 238.2 122.2 242.4 122.3 241.5 122.4 243.9 122.5 235 122.5 235.1 122.6 228.5 122.7 226.4 122.8 230.7 122.9 232.8 123 236.7 123.2 237.7 123.3 241 123.4 239.9 123.6 234.2 123.8 233.3 124 238.9 124.2 239.5 124.3 233.9 124.5 234.3 124.7 228.4 124.7 227.5 124.9 231.2 125 229.8 125.2 229.7 125.3 225.7 125.4 226.5 125.4 219 125.4 212.9 125.4 215.1 125.4 211.2 125.4 203.9 125.5 216.1 125.5 208.2 125.5 199.8 125.5 198.3 125.5 198.5 125.5 202.1 125.6 205 125.8 200.8 125.9 203.9 126 200.8 126.1 202.5 126.2 207 126.4 204.3 126.6 204.1 126.8 202.1 127 206.4 127.2 207.6 127.3 210.2 127.5 202.3 127.6 203.9 127.9 203.9 128.2 202.3 128.5 203.8 128.8 209.1 129.3 210.1 129.7 215.6 130.1 217.5 130.7 215.6 131 210.9 131.3 215.9 131.8 215.9 132.3 215.9 132.4 204 132.5 209 132.8 213.2 133.2 209.8 133.5 208.1 133.9 209.4 134.1 199.9 134.1 195.5 134.1 191.9 134.1 176.6 134.1 176.3 134.1 179.8 134.2 182.9 134.2 178.1 134.3 176.4 134.4 180.3 134.5 184.2 134.5 190.1 134.6 186.5 134.7 185.1 134.9 188.8 135 178.1 135 173.1 135 170.4 135 171.4 135.1 176.8 135.2 176.3 135.3 183.9 135.5 184.4 135.5 174 135.5 162.9 135.5 163.3 135.5 169.7 135.5 166.9 135.5 162.3 135.6 164.1 135.6 166.5 135.7 170.7 135.8 172.9 135.8 175.1 135.9 166.9 135.9 176.7 136 173.7 136.2 175.8 136.4 178.4 136.7 180.9 137 180.3 137.4 178.8 137.7 178.5 138 180.6 138.4 180.5 138.8 182.5 139.3 185.2 139.7 186.4 139.9 186.5 140.4 184.6 140.9 183.4 141.1 186.5 141.1 176.1 141.2 174.3 141.2 167.7 141.2 169.3 141.3 173.1 141.3 169.8 141.5 174.3 141.6 179.8 141.7 181.1 141.7 176.4 141.8 179.7 142 178.9 142.2 179 142.3 181.2 142.5 179.4 142.8 179.9 143.1 176.2 143.2 175 143.4 171.6 143.6 174.4 143.9 175.4 144.2 173.4 144.5 171.9 144.7 176.6 144.9 175.2 145.3 175.9 145.5 170.2 145.7 172.3 145.9 169.9 146.1 168.5 146.2 165.3 146.3 164.1 146.3 159.1 146.3 159.4 146.4 162.4 146.4 164.4 146.6 166.4 146.8 167.8 147 168.9 147.2 169.2 147.3 171.6 147.5 163.5 147.6 167.9 147.9 168.1 148.1 166.8 148.3 167.6 148.6 168 148.7 158.7 148.7 162 148.9 161.5 149.1 165.3 149.2 158.6 149.3 161.9 149.5 162.4 149.6 163.8 149.8 164.3 150 161.8 150.2 164.2 150.3 164.6 150.5 161 150.6 161.6 150.8 161.2 150.9 161.8 151 161.3 151.1 162.7 151.3 168 151.4 169.9 151.5 168.4 151.6 174.5 151.7 173.1 151.7 171.5 151.9 173.5 152.1 172.1 152.3 168.7 152.6 166.2 152.8 165.2 152.9 165.5 153.1 164.8 153.5 161.3 153.7 162.2 154 162.2 154.4 161 154.6 162.9 155 163.3 155.3 165.5 155.7 162.8 156.3 163.6 156.6 158.9 156.7 154.8 156.7 152.9 156.7 154.7 156.7 151.5 156.7 147 156.7 151.3 156.8 155.6 156.8 151.2 156.9 147.2 156.9 143.8 156.9 138.7 156.9 138.6 156.9 140.4 157 139.5 157 133.8 157 133.6 157 133.4 157 133.1 157.1 133.1 157.1 124 157.1 125.9 157.1 125.7 157.1 127 157.2 132.6 157.2 132.7 157.2 130.3 157.2 133.1 157.3 132.5 157.4 132.5 157.4 134.5 157.5 129.7 157.6 132.9 157.7 135.9 157.8 140.9 157.9 135.4 157.9 140.4 158 142.2 158.1 140.9 158.3 140.7 158.5 141.7 158.7 141 158.8 145.5 158.9 137.8 159 137 159.1 134.8 159.3 138.7 159.5 140 159.6 146.9 159.8 139.2 159.9 137.3 160.1 137.5 160.3 136.9 160.5 136.6 160.8 137.1 160.9 135 161 131.5 161 125.9 161.1 130.9 161.2 133.1 161.2 137.4 161.3 136.6 161.4 139.4 161.6 132.2 161.6 140.1 161.6 144.7 161.6 151.7 161.6 150.2 161.7 144.7 161.7 148.6 161.7 150.6 161.9 150.7 161.9 146 162.1 145.6 162.1 151.3 162.2 151.9 162.3 152.7 162.3 155.2 162.4 153.9 162.6 156 162.8 153.7 163.1 155 163.3 154.7 163.5 152.6 164 155.8 164.3 155.6 164.6 152.6 164.9 153.6 165.2 149.8 165.4 150.8 165.8 149.7 166.1 147.9 166.5 147 166.8 145.5 166.9 151.5 166.9 153 167 152.9 167.3 151.6 167.6 153.4 167.9 153.1 168.1 156.8 168.1 156.2 168.3 158.7 168.5 157.6 168.7 158.8 169.1 156.5 169.4 158 169.9 159.3 170.3 158.1 170.5 158.2 170.9 156 171.2 154.2 171.2 146.6 171.2 148.7 171.2 148.9 171.2 147.4 171.2 146.2 171.3 147.3 171.4 148.7 171.5 151.3 171.7 152 171.9 143.1 172 142.4 172.2 144.5 172.5 146.4 172.9 146.5 173.1 142.8 173.6 145.4 173.9 139.7 174.2 141.2 174.6 144.8 174.7 147.2 174.7 152.1 174.7 152.3 174.8 155.4 174.8 158.9 174.9 158.3 174.9 151.7 175 150.3 175.1 152.7 175.4 154.7 175.5 164.3 175.5 162.2 175.5 167.8 175.5 167.6 175.5 164.4 175.6 161.8 175.7 162 175.9 162.1 176 160.7 176.2 161.3 176.6 161.1 177 161.7 177.4 160.8 177.6 164.5 177.6 161.6 177.7 159.4 177.7 155.4 177.7 161.5 177.7 164.8 177.8 167.6 177.8 164.9 178 159.1 178 155.8 178 156 178.1 164.2 178.1 166.2 178.1 157.4 178.1 157.9 178.2 156.4 178.2 160.7 178.2 164 178.3 162.5 178.3 156.8 178.7 161 179.1 159.1 179.4 157.4 179.8 159.3 180.4 155.9 180.7 156.3 181.3 154.3 181.7 156.1 182.1 159.1 182.3 161.6 182.8 163 183.1 161.9 183.6 160.5 184.1 157 185 163.2 185.3 160.1 186.2 159.6 186.8 157.9 187.5 158.2 187.9 161.1 188.4 163.1 188.6 159.7 188.7 156.9 188.8 156.1 188.8 151.5 189 151.5 189 152 189.1 148.4 189.3 149.9 189.5 146.6 189.6 143.7 189.7 145.7 189.8 141.3 189.9 145.1 190 138.6 190.1 139.1 190.3 140.1 190.4 139.5 190.5 142 190.5 143.5 190.7 145.3 190.9 144.7 191 144.5 191.2 144.1 191.3 150.1 191.4 144.6 191.6 145.7 191.9 145.2 192.2 146 192.5 144.3 192.9 144.3 193.1 142.4 193.3 140.4 193.5 138.6 193.6 138.4 193.7 135.2 193.8 137.1 193.9 137.9 194.1 140.6 194.4 140 194.6 137.8 194.8 136.7 194.9 133.7 195.1 137.6 195.2 136.7 195.3 135.2 195.4 134.2 195.5 132 195.6 128.6 195.6 126.4 195.7 124.9 195.7 121.7 195.7 122.2 195.7 118.9 195.7 122.7 195.8 125.7 195.9 129.6 195.9 131.4 196 128.8 196.1 122 196.1 123.4 196.2 121.7 196.3 122.5 196.5 123.3 196.6 126.7 196.8 123.7 197 127.6 197.2 126.3 197.4 126.1 197.7 129.1 198 124.3 198.1 122.5 198.2 119.3 198.3 119.9 198.4 125.1 198.7 126.9 198.8 130.3 198.9 130.7 199.1 130.8 199.3 127.6 199.5 127.6 199.6 122.9 199.8 124.1 200 121.4 200.1 116.4 200.2 114.9 200.2 116.5 200.3 116.5 200.5 118.2 200.7 121.6 200.9 122.2 200.9 128 201 129.4 201.2 130.4 201.3 133.8 201.4 135 201.6 131.9 201.7 138.7 201.7 137.8 201.9 139.5 201.9 141.4 201.9 143.6 201.9 142.8 202 141.3 202.1 139.3 202.4 138.9 202.6 139.1 202.7 143.3 202.9 144 203.1 145.8 203.4 144.4 203.6 142.4 203.9 143.4 204.1 145.2 204.3 143.6 204.5 144.8 204.6 139.7 204.7 141.8 205 145.3 205.1 145.1 205.2 147.1 205.3 150.2 205.3 154 205.3 156.2 205.3 151.3 205.3 150.1 205.4 145.9 205.5 149.1 205.6 146.7 205.6 147.9 205.7 147.3 205.8 149.4 206 147.7 206.1 144.4 206.3 147.9 206.5 144.3 206.6 142.5 206.7 142.3 206.9 145 207 146.8 207.1 149.1 207.3 149.8 207.5 149 207.7 149.2 208 151.9 208.2 152.7 208.4 152.6 208.5 154.6 208.7 153.8 209 151 209.1 148.8 209.2 150.1 209.4 150.2 209.7 150.4 209.8 148.9 210.2 148 210.4 146 210.6 148.9 210.9 147.1 211.2 147.7 211.5 147 211.7 142.1 211.9 142 212.1 139.2 212.2 143.9 212.4 146.3 212.7 147.2 213.1 149 213.4 150.6 213.8 150.7 214.2 146.2 214.7 146.4 215.1 150.6 215.3 153.7 215.7 152 216.2 151.4 216.3 157.5 216.5 157 216.8 159.7 216.9 160.8 216.9 150.9 217 143.3 217 143.1 217.1 135.8 217.1 140.2 217.3 137.5 217.5 140.5 217.7 142.8 218 144.9 218.3 146.9 218.7 147.6 219 148.6 219.4 152.5 219.7 154 220.1 151.7 220.5 152.2 220.8 149.6 221.2 150.5 221.8 151.7 222.4 151.4 222.9 148.6 223.5 152.6 223.9 149.6 224.3 152.7 224.7 150.4 224.9 154.7 225.2 156.3 225.5 157 225.6 160.9 225.8 160.4 226 160.6 226.1 159.8 226.4 161.7 226.5 160.3 226.8 159.3 227 159.7 227.3 159.5 227.5 161.7 227.8 160.5 228.2 160.3 228.7 164.9 229.1 161.4 229.5 160.5 229.9 161.9 230.3 159.4 230.7 158.3 231.1 161.5 231.4 159.7 231.7 162.7 231.9 167.9 231.9 175.3 231.9 181.5 232 185.7 232 179.2 232 175.6 232.1 173 232.2 171.3 232.3 170 232.4 170.1 232.5 170 232.6 165.9 232.7 166.5 232.8 164.6 232.9 161.8 233 166 233.1 170.1 233.2 172.3 233.3 170.3 233.5 168 233.7 169.5 233.9 169.1 234.1 175.8 234.2 175.1 234.2 176.3 234.3 177.8 234.5 175.7 234.6 178.2 234.7 176.3 234.9 179.6 235 174.9 235.1 172.4 235.2 173.6 235.3 174.1 235.5 172.8 235.7 174.5 236 173.6 236.3 172.1 236.5 173.3 236.6 177.4 236.7 182.5 236.8 178.4 236.9 176.6 237 176.1 237.2 178 237.6 178.9 238 177.5 238.3 173.7 238.7 176.9 239.1 173.8 239.7 169.4 240.1 168.2 240.5 166.8 240.6 162.5 240.7 163.2 240.9 162.1 241.1 166.3 241.5 167.7 241.9 171.4 242.4 167.2 242.9 164.6 243.5 161.4 243.7 167.7 244 165.7 244.5 167.9 244.8 173.6 245.2 174.4 245.3 174.9 245.6 177.4 246 177 246.3 172.8 246.6 169.7 247 167 247.4 169.8 247.9 170.4 248.4 169.6 249.1 172.9 249.9 171.5 250.5 174.2 250.9 174.6 251.5 174.9 252.3 174.8 252.8 172.2 253.3 170.6 253.8 170.6 254.1 169 254.4 173.9 254.7 177.6 254.8 180.8 255 182.9 255.2 178.7 255.5 176.2 255.9 175.6 256.4 175.3 257 175.2 257.7 176.1 258.3 177 258.9 178.5 259.2 171.6 259.6 174.6 259.9 178.5 260.2 179.8 260.4 178.1 260.5 175.8 260.5 170.2 260.7 171.5 260.9 169.4 261 175.7 261.2 175 261.3 179.9 261.4 177.4 261.6 179.9 261.7 181.2 261.9 180.5 262.2 182.2 262.4 176.7 262.7 174.5 263 173.8 263.5 175.9 264 173.3 264.4 178.4 264.8 180 265 181.1 265.2 185.1 265.5 185.6 265.8 186.3 265.9 186.2 266.2 182.2 266.7 178.7 267 179.9 267.3 178.1 267.8 179.7 268.2 177.2 268.9 178.3 269.3 174.9 269.8 177 270.3 179.7 270.5 173.6 270.8 174.5 271.2 177.8 271.7 179.9 272.2 175.4 272.7 174.5 273.1 173.2 273.4 171.5 273.5 162.5 273.5 160.7 273.5 154.7 273.5 146.5 273.5 148.7 273.5 143.3 273.5 144.6 273.6 149.7 273.6 143.8 273.6 141.6 273.6 144.6 273.7 150.6 273.8 145.4 273.9 146.9 274 149.6 274 156.4 274.1 157.2 274.2 157 274.4 155.7 274.5 160.3 274.7 158.9 274.9 156.4 275.1 158 275.4 159.3 275.6 162.8 275.8 161 276 162.9 276.1 165.1 276.4 161.2 276.7 158.1 277.1 158.4 277.3 153.2 277.6 157.2 277.8 158.1 278.3 161.7 278.4 166.9 278.6 169.1 278.7 168.1 278.9 170.7 279.1 169.9 279.2 174.2 279.3 175.7 279.4 175.1 279.5 172.9 279.7 170.7 279.9 167.8 280.1 167.5 280.3 171.1 280.6 166.9 280.9 163.3 281.1 160.4 281.3 167.9 281.6 170.2 281.8 170 282 175.6 282.2 176.3 282.5 176.4 282.8 179.5 282.9 184.8 282.9 183.4 283.1 184.6 283.3 181.9 283.5 181.6 283.9 177.8 284.3 180.5 284.5 182 284.8 180.4 285.2 180.3 285.5 185.1 285.7 185 285.9 184.7 286.3 186.2 286.5 186.9 286.8 185.7 286.9 190.8 287.1 189 287.4 187.7 287.6 185.7 287.8 185.4 288 187.3 288.1 183.4 288.2 183.5 288.3 186.2 288.4 180.3 288.4 178.1 288.5 176.2 288.7 176.7 288.7 169.7 288.8 168.9 288.8 166.7 288.9 167.5 289 165.1 289.1 165.5 289.3 169.1 289.4 166.4 289.6 166.8 289.8 166.4 290 167.9 290.2 166.4 290.4 167.1 290.6 161.2 290.8 159.9 290.9 158.8 291.1 160.2 291.3 163.1 291.6 166.6 291.6 169.4 291.8 170.2 291.9 174.6 292 177.6 292 179 292.2 173.2 292.6 171.9 293.1 171.5 293.4 171.4 293.8 174.2 294.4 178.6 294.5 182.7 294.8 182.9 295.3 181.1 295.7 177.7 296.2 174.6 296.9 170.9 297.4 176.3 297.8 170.1 298.5 173 299.1 173.9 299.5 176.8 300.1 172.9 300.6 170.3 300.7 166.7 300.8 169.5 301.1 164.2 301.3 160.9 301.4 159.9 301.7 163.2 302 159.5 302.3 161.4 302.5 163.2 302.9 161.8 303.3 161.2 303.6 161.2 304 160.1 304.4 165 304.9 164.7 305.2 168.3 305.7 168 306.2 169.1 306.8 164.1 307.1 167.8 307.8 165.3 308 172.1 308.1 174.5 308.2 180 308.3 180 308.4 183.8 308.5 177.1 308.8 178.7 309 180.9 309.2 179.7 309.4 176 309.9 174.8 310.5 176.9 311.2 173.2 312 172.9 312.8 173 313.4 176.6 314.1 175.4 314.4 175.9 314.6 176.6 315.2 178.4 315.6 176.4 315.8 176.1 316 178.2 316.2 178 316.4 178.7 316.6 171 316.7 168.3 316.8 168.2 316.9 165.8 317 168.4 317.1 167.3 317.2 171.8 317.4 167.6 317.6 163.1 317.8 165.6 318.1 164.9 318.5 166.6 318.8 169.8 319.3 168.6 319.7 167.4 320.2 174 320.4 171.3 320.9 171.1 321.3 174.2 321.8 173.6 322.3 177 322.8 176 323.3 177.3 323.8 174 324.5 171.4 325.2 169.2 325.8 168.8 326.6 170.1 327.2 171.4 327.9 174 328.5 167.4 328.9 167.1 329.4 163.8 329.8 166.8 330.1 169.6 330.7 170.9 331.2 171.5 331.7 172.2 332.4 169.1 333 165.7 333.3 166.6 333.8 168.1 334.2 164.3 334.7 167.2 335.1 165 335.7 163.4 336.2 165.1 336.7 167.1 337.5 165.2 338.3 165.5 338.8 162.7 339.4 161.4 339.7 164.9 340.4 162 341.1 165.5 341.7 164.1 342.5 164.8 343 163.4 343.5 162.7 343.9 163.5 344.6 160.8 345.1 162.2 345.6 161.7 346.2 161.3 346.9 159.6 347.3 161.1 347.7 158 348.4 157.6 349 155.9 349.5 157.7 350.2 156.8 350.7 153.5 351.2 154.7 351.3 147 351.5 146.9 351.7 146.9 351.8 147.5 352 147.9 352.3 150.5 352.6 153 353 156.8 353.5 155.7 354.1 155.9 354.5 154.3 354.8 151.4 355.3 152.9 355.7 154.4 355.9 159.1 356.2 160.4 356.7 156.1 357.1 154 357.3 148.4 357.6 150.2 357.9 149.7 358.1 150.5 358.5 148.5 358.8 149.2 359.1 149.6 359.4 148.9 359.9 149.8 360.4 148.7 360.8 145.5 360.9 140.8 360.9 135.9 361 134.3 361 137.5 361 132.6 361.1 133.3 361.2 132.1 361.2 128.5 361.2 123.1 361.2 121.6 361.2 122.9 361.3 124.8 361.3 122.4 361.4 123 361.4 122.7 361.4 122.9 361.5 126.1 361.6 123.4 361.7 129.1 361.7 131.1 361.8 136.1 361.8 137.9 361.8 136 361.8 135.8 361.8 149.3 361.9 149.5 361.9 150.3 361.9 147 362.1 144.7 362.2 144.3 362.2 148.5 362.4 151.9 362.5 150.5 362.5 144.3 362.5 146 362.8 146.7 363 143.4 363.1 140.3 363.3 140.4 363.4 138.7 363.6 138.6 363.8 137.7 364.2 137.5 364.5 137 364.7 141.3 365 143.1 365.2 141 365.7 142.6 366.1 140.8 366.4 134.9 366.6 131.9 366.8 131.8 367 134 367.1 140.7 367.1 143.4 367.3 139 367.3 139.2 367.4 140.5 367.5 141.3 367.7 141 367.7 145.2 367.8 145.8 368.2 145.3 368.5 147.1 368.7 143.9 368.9 141.5 369.1 141.1 369.5 142.7 370 145.2 370.5 143.5 370.6 138.9 370.6 137.7 370.7 137.5 370.9 137 371.1 137.6 371.3 136.1 371.6 138.7 372 140.1 372.3 141.8 372.6 138.4 372.8 137 373.1 134.3 373.2 133.7 373.5 133.9 373.9 135 374.4 134.2 374.7 131.5 375 132.6 375.4 132.4 375.5 134.1 375.8 134.7 376.3 134.8 376.9 136.3 377.3 140.5 377.5 138.7 377.9 136.7 378.4 138.5 378.9 139.9 379.5 139 379.6 142.1 379.7 147.7 380 145.4 380.3 150.7 380.3 154.3 380.3 153.1 380.5 152.7 380.7 153 380.9 146.9 381.1 147.6 381.5 147.4 381.9 148.9 382.1 142.5 382.4 142.1 382.6 146.1 382.8 140.6 382.9 135.9 383 131.6 383 129.9 383 142.1 383.1 143.5 383.1 143.1 383.1 145 383.2 145.5 383.3 143.8 383.6 143.6 383.7 146.7 383.7 149.4 383.8 153.1 383.8 152.7 383.9 147 384 150.8 384.2 150.4 384.4 149.6 384.7 149.6 385 147.6 385.3 147.4 385.5 145.5 385.9 147.1 386.3 148.7 386.7 147.2 386.9 148.9 387.4 146.2 387.5 149.8 387.5 152.6 387.8 150.9 388 153.1 388.2 156.6 388.4 158.1 388.6 154.1 388.6 157.2 388.8 159.1 388.9 162 389 164.1 389.1 165.1 389.2 167.3 389.3 167.2 389.4 172.5 389.5 171.7 389.6 171.6 389.8 173.8 389.9 171.4 390 171.5 390.1 175.7 390.2 177.8 390.3 181.5 390.4 182.4 390.5 183.8 390.6 185.1 390.7 184.6 390.8 188.4 390.8 196.1 390.8 194.5 390.9 194.4 390.9 195.3 391 193 391.1 193.3 391.1 185.2 391.1 177.3 391.2 182.2 391.2 189.5 391.3 184.5 391.4 187 391.5 184.4 391.6 191.9 391.8 189.8 392 188.1 392.1 184.2 392.3 183.4 392.6 182.3 392.9 181 393.2 183.4 393.5 182.8 393.8 186.4 394.2 187.9 394.5 183.3 394.9 183.3 395.4 182.9 395.8 181.7 396.5 183.3 396.9 185.2 397.4 184.5 397.8 184.7 398 194.3 398.2 196.2 398.3 197.7 398.4 195.5 398.5 192.9 398.6 191.7 398.9 189.7 399.1 196.5 399.2 197.2 399.3 196.1 399.5 197.8 399.7 194.3 399.9 198.3 400.1 195.3 400.2 194.7 400.5 192.5 400.7 192.7 400.8 192.1 401 192.3 401.3 193.3 401.6 196.6 401.8 199.8 401.8 199.7 402 202.6 402.1 199.4 402.4 197 402.7 193.9 403.1 195.2 403.6 194.2 403.8 192.7 404.2 193.2 404.8 191.9 405.2 192.5 405.8 193 406.3 193.5 406.9 194.1 407.5 193 408.3 193.9 408.8 188.9 409.2 190.3 409.5 190.4 409.9 190 410.2 192.2 410.6 188.7 411 188.9 411.4 185.9 411.7 184.5 412.2 185.8 412.7 184.5 413.2 185.1 413.4 191.3 413.7 195.5 413.8 200.5 414 199.2 414.1 205.8 414.2 205.2 414.4 204.7 414.6 206.9 414.7 209.7 414.8 205.1 415 204.3 415.1 199.6 415.2 203 415.4 201 415.5 196.5 415.7 200.6 415.8 206.7 416.1 205.7 416.3 210.2 416.4 213.8 416.6 210.1 416.8 210.8 417 211.9 417.2 216 417.4 209.7 417.6 212.8 417.9 211.3 418.5 207.6 418.9 204.2 419.4 207.7 419.8 206.3 420.1 206.2 420.4 204.1 420.7 206.4 421.1 205.3 421.7 207.3 422.1 209.4 422.8 209.6 423.4 209.1 424 207.7 424.5 209.1 424.9 205.8 425 207.2 425.2 207 425.6 208 426.1 204.4 426.2 203.9 426.3 204.5 426.5 207.5 426.7 212.1 426.8 210.3 427 215 427.1 212.7 427.3 208.9 427.5 209.7 427.7 205.4 427.9 204.3 428.2 201 428.4 198.4 428.5 199.2 428.7 202.5 428.9 204.9 429.2 207.2 429.5 206.2 429.9 206.6 430.2 205.8 430.6 207.4 431 204.7 431.5 206.5 431.9 201.7 432.4 202.8 432.7 202.6 433 203.9 433.3 204.7 433.8 206.9 434.3 203.9 434.8 201.5 434.9 194.2 434.9 191.9 435 193.5 435.1 193.8 435.2 191.5 435.4 195.4 435.6 190.3 435.8 187.9 435.9 190 436 193.4 436.2 193.7 436.4 198.7 436.7 198.1 436.7 199.1 436.8 200.7 437 197.4 437 197.4 437.1 200.9 437.3 203.7 437.6 205.7 437.8 206.7 438.1 204.5 438.3 203.9 438.6 199.8 438.9 200.8 439.3 196.4 439.5 197 439.8 200.5 440.2 203.9 440.6 201.3 441 196.8 441.3 196.4 441.7 198.2 442 197.2 442.4 197.7 442.8 200.7 443.2 199 443.7 201.5 444.1 203.5 444.6 204.9 445 201.7 445.5 203 446.2 203.3 446.7 203 447 210.4 447 219.5 447 218.6 447 222.4 447 220.7 447 218.6 447.1 221 447.1 228.5 447.1 225.6 447.2 220.6 447.3 223 447.4 222.7 447.5 220.8 447.7 220.2 447.9 218.7 448.3 220 448.6 220.8 448.9 219.3 449.1 219.6 449.5 220 449.8 220 450.1 220 450.4 223.5 450.6 224.8 450.8 226.1 451.1 221.8 451.5 222.3 452 225.5 452.1 228.3 452.2 227.7 452.4 225.6 452.5 232.6 452.5 229.2 452.7 225.9 453 226.8 453.2 219.5 453.3 221.5 453.5 218.5 453.7 219.2 453.9 215.2 454 212.4 454.2 213 454.3 217.9 454.4 218.4 454.5 212.8 454.7 213.4 454.9 215.8 455.2 215 455.5 212.8 455.6 212.1 455.8 209.2 455.9 210.3 456 206.2 456.2 206.8 456.2 213.5 456.2 218.1 456.4 216 456.5 222.5 456.6 218.1 456.9 214.7 457.2 218.7 457.4 217.4 457.7 221.5 458 219.2 458.4 222.2 458.7 219.9 459 217.5 459.2 216.5 459.5 217.9 460 218.3 460.4 218.6 460.9 221.5 461.4 221.2 462.1 222.3 462.4 224.1 462.8 227.9 462.9 226.1 463.1 226.6 463.2 230.5 463.3 229.4 463.6 228 464 231.1 464.4 229.8 464.8 229.2 465.1 231.9 465.3 234.1 465.5 238.3 465.5 238 465.7 238.6 465.9 235.9 466.2 239.7 466.4 243.8 466.4 245.6 466.4 237.2 466.4 235.7 466.4 228.1 466.5 228.2 466.6 227.6 466.7 226.6 467 227.1 467.3 224.9 467.6 227.5 467.9 227.4 468.2 226.6 468.6 227.9 468.8 227.9 469.2 225.8 469.5 226.2 469.6 218.4 469.6 211.3 469.6 203.8 469.6 208.4 469.7 205.8 469.7 208.9 469.7 204.9 469.7 200.7 469.8 197.5 469.8 196 469.8 189.8 469.9 194.6 469.9 198.8 470 195.4 470.1 197.5 470.2 192 470.2 188.1 470.3 195.4 470.4 198.1 470.6 196.4 470.8 199.2 471 202.2 471.2 203.6 471.5 202.5 471.7 206.7 471.8 205.8 472.2 206.2 472.4 208.7 472.7 207.4 473.1 205.3 473.5 204.1 473.7 207.6 473.9 206.4 474.1 205.3 474.6 207.1 475 202.9 475.5 202.2 475.7 195.6 475.8 193.1 475.9 199.9 475.9 191.8 475.9 186.9 475.9 180.4 475.9 189.1 475.9 180.4 476 180.5 476 181.7 476.1 183.7 476.2 182.4 476.4 182.4 476.6 185.6 476.7 188.1 476.9 186.2 477 180.1 477.2 183.6 477.4 185.5 477.6 180.9 477.8 184.3 477.9 186.9 478 188.8 478.4 189.8 478.7 187.9 479 193 479.1 195.8 479.4 195.7 479.6 197.4 479.7 199.3 479.9 200 480.1 202.9 480.3 206.7 480.4 202.8 480.6 204.4 480.8 207.2 481.1 209.2 481.3 210 481.4 216.2 481.5 216.3 481.5 216.5 481.6 214.9 481.7 215.3 481.9 215.4 482 222.7 482.1 221.4 482.3 222.5 482.4 226.3 482.5 225.2 482.6 227.2 482.7 226.7 482.8 229.7 482.8 227.5 482.9 226 483 223.3 483.1 227.8 483.1 232.9 483.2 231.5 483.4 232 483.5 236.7 483.6 235.3 483.7 237.4 483.9 236.4 484 237.6 484.2 235.9 484.3 240.4 484.4 243.9 484.4 244.4 484.5 245 484.6 252.6 484.6 252.2 484.6 246.4 484.7 239.9 484.7 235.3 484.8 236.2 484.9 236.9 485 236.7 485.2 242.5 485.3 245 485.4 244.4 485.5 250 485.7 247.2 485.9 247.1 486 254.3 486.1 257.6 486.1 257.3 486.2 256.2 486.3 256.3 486.5 260.6 486.6 260 486.7 260.1 486.7 265.2 486.8 261.5 486.8 255.6 486.8 256.4 486.9 258.1 486.9 261.6 487 258.6 487.1 255.7 487.2 257.1 487.4 253.2 487.6 253.3 487.9 252.1 488.1 257.6 488.4 254.9 488.8 255.1 489 248.9 489.5 249.2 490 247.6 490.5 247.4 491.1 248.2 491.3 241.7 491.6 241.2 492.1 238.8 492.2 240.3 492.4 236.9 492.9 240.9 493.2 237.3 493.5 241.2 493.9 239.8 494.4 239.5 494.7 238.4 495.1 235.9 495.4 239.6 495.6 233.5 495.6 229.2 495.7 229.7 495.8 233.5 496.1 232.8 496.5 234.4 496.9 235.4 497.4 235.3 497.7 235.7 498.1 238.5 498.5 234.1 498.5 227.7 498.7 226.9 498.8 226.1 498.9 226.1 499.1 226.7 499.5 225.9 499.9 222.6 500.3 225.3 500.7 226.7 500.8 227.4 501.3 225 501.7 227.2 502 226.1 502.5 226.2 503.1 225.4 503.8 225.1 504.1 226.6 504.6 224.9 505 226.2 505.5 226.1 506.2 226.3 506.9 226 507.6 223.8 508.2 226.1 508.8 226.3 509.2 226.1 509.6 225 509.9 226.6 510.1 227.7 510.2 229.2 510.3 227 510.5 225.7 510.8 224.1 511 222 511.1 219.5 511.3 218.8 511.5 216.3 511.8 221.5 512.1 219.2 512.5 220.7 512.7 222.2 513.2 220.8 513.6 219.3 514 219.8 514.2 224 514.6 225.1 515.1 224.6 515.8 223.5 516.4 226 516.9 225.5 517.8 226 518.7 222.1 519.3 224.8 519.9 226.5 520.3 222.7 520.8 225.4 521.4 225.9 522.1 226.2 522.8 226.4 523.6 226.4 524.4 228.8 524.5 234.9 524.8 235.9 525 238.8 525.2 242.6 525.5 236.2 525.9 237 526.6 233.3 527.2 234.9 527.9 237.1 528.6 235.6 529.3 234.9 530.1 236.4 530.4 235 531 231.5 531.6 230.6 532.4 233.5 533.1 233.1 533.8 228.5 534 230.6 534.6 231.7 535.3 230 535.9 229.2 536.4 226.5 537.1 230 537.4 228.8 538 229.3 538.4 231.5 538.9 234.9 539.5 236.9 540.4 237.5 541.3 234.4 542.3 235.5 543.3 234.9 544.3 235.4 545.4 235.7 546.3 236.7 547.3 234.7 548 237 548.6 235.9 549.3 237.5 549.9 238.4 550.6 238.4 551.3 235.5 551.9 234.1 552.5 234.4 553.6 233.6 554.6 235.3 555.6 232.2 556.6 233.9 557.6 231.1 558.6 234.8 559.4 237.9 560 235.5 561.2 238.2 562.3 240.2 563.1 238.9 564 238.1 564.6 241.9 564.9 243.1 565.4 241.2 565.7 237.9 566.2 236.5 566.9 239.6 567.9 241.6 568.7 234.8 569.3 235.8 570.2 236.9 571 234.9 571.9 235.7 572.9 235 573.4 229 573.5 226.2 573.8 225 574 225.2 574.1 226.2 574.3 226.5 574.4 230.4 574.5 231 574.7 232.8 574.8 236.4 574.9 236.3 575 238.5 575.1 245.1 575.1 255.2 575.1 254.8 575.1 268.8 575.1 270.6 575.1 284.9 575.1 271 575.1 259.9 575.1 257.3 575.1 256.4 575.2 261 575.2 255.7 575.2 256.3 575.3 258.9 575.3 259.7 575.3 260.8 575.4 258.7 575.4 261.5 575.5 263.8 575.5 262.9 575.6 262.7 575.6 268 575.7 259.1 575.8 259.9 575.8 253.2 575.8 247.5 575.8 245.6 575.9 240.4 575.9 236 575.9 246.8 576 249 576.1 246.6 576.2 246.5 576.4 246.7 576.6 248 576.9 246.7 577.1 254.1 577.3 250.6 577.4 243.7 577.5 242.9 577.8 241.4 578.2 242.1 578.7 239.9 579 241.9 579.4 242.2 579.8 242.2 580.2 241.7 580.7 242.2 581.2 242.3 581.7 242.5 582.3 241.7 582.8 240 583.3 242.1 583.9 242.2 584.5 240.7 584.9 240.9 585.3 242.5 585.7 242.4 586.3 242.2 586.7 242.5 587.3 240.9 588 242.1 588.7 241.5 589.3 242.4 590.1 241.8 590.6 241.2 591.2 242.3 591.7 241.4 592.3 238.8 592.5 235.7 592.6 234.9 592.9 237.1 593.1 238.4 593.5 240 593.9 239.9 594.5 238.7 594.9 240.6 595.3 241.4 595.8 241.7 596.7 241.8 597.5 240.6 598.5 241.1 599.3 241.8 600.6 243.3 601 248.5 601.2 252.6 601.4 254.9 601.7 255.1 602 250.7 602.5 250.8 602.9 251.2 603.5 249.6 604 248.4 604.5 246.3 605.1 250.7 605.4 256.2 605.4 260.4 605.4 259.3 605.6 254.9 606 255.1 606.5 255.3 606.9 254.9 607.4 254.2 608.1 254.3 608.4 256.8 608.7 257.8 609.1 255.9 609.5 258 609.9 258.8 609.9 263.8 609.9 266.1 609.9 263.3 610 258 610.2 258.6 610.5 261.7 610.7 258.9 610.9 258.7 611.5 258.1 611.8 259.4 612.1 259.3 612.5 258.9 612.7 258.8 613.1 261.1 613.6 263.5 614 267.6 614.3 265.9 614.7 265.1 615.3 264.7 615.9 261.1 616.6 261 617 267.4 617.5 267.5 617.8 269.6 618.1 272.8 618.4 271.8 618.7 275.7 619.1 274.1 619.4 271.8 619.5 269.6 619.6 269.2 619.8 272.7 620 275.3 620.1 273.9 620.2 269.2 620.3 270.6 620.5 269.8 620.9 271.9 621.1 272.8 621.4 270.1 621.7 275.4 622 274.8 622.4 271.5 622.7 274.6 623.1 275.4 623.4 272.2 624 274.1 624.5 272.7 625 274.9 625.2 275 625.9 273.6 626.8 272 627.5 274.8 628.2 274.8 628.6 280.1 628.6 281.5 628.7 275.2 628.9 271.3 628.9 259.5 628.9 256.2 628.9 260.8 629.1 268.7 629.3 269.1 629.4 264.3 629.6 266.7 629.8 268.4 630.1 268.7 630.4 265.9 630.9 265.7 631 250.5 631 250 631 253.2 631 257.9 631.2 255.9 631.5 257.5 632 254.7 632.4 255.1 632.7 254.5 632.7 245.8 632.8 246.8 632.8 244 632.9 242.7 633 243.4 633.2 242.7 633.5 242.5 633.9 242.8 634.2 246.3 634.2 242 634.4 240.7 634.6 240.2 635.1 242.3 635.5 240.9 636.2 238.8 636.7 235 637 232.4 637.1 232.6 637.4 232.5 637.8 232.2 638 237.3 638 242 638.1 240.8 638.2 242.6 638.5 242.5 638.9 240.1 639.2 235.7 639.6 237.6 640.2 236.2 640.8 237.5 641.4 232 642 231.6 642.4 231.2 642.9 234.1 643.5 234.4 643.9 231.9 644.1 238.1 644.3 241.3 644.4 243.9 644.4 246.8 644.4 249 644.5 248.5 644.5 253.7 644.6 251.5 644.8 250.1 645.1 248.4 645.5 244.7 645.9 245.3 646.3 248.5 646.5 242.5 646.6 239.8 646.7 239.4 646.9 241.2 647 237.3 647.2 238 647.4 241.2 647.6 238.7 647.8 237.3 647.9 239.1 648.2 240 648.6 239.6 649 244.2 649.3 248.3 649.5 256 649.5 262.7 649.6 263.7 649.7 269.7 649.8 267.8 649.8 263.9 649.9 262.2 650.1 266.9 650.1 271.5 650.2 266 650.4 264.6 650.5 266.2 650.7 262.5 651 262.3 651.3 259.5 651.7 262.2 652 258 652.5 259.8 652.7 254.8 652.7 250.4 652.8 249.9 652.9 245.9 653 243.6 653.1 246.5 653.3 243.1 653.5 246.5 653.6 241.7 653.8 243.3 654.1 243.4 654.5 239.5 655 238.3 655.7 238.8 656.2 243.9 656.9 244.4 657.5 247.3 657.9 249.9 658.2 244.5 658.5 242.9 659.1 243.2 659.5 239.5 659.7 237.1 660.3 237 660.4 225.8 660.4 232.2 660.5 233.1 660.8 233.7 661.3 233.8 661.9 235.4 662.5 234.6 663.2 234.6 663.8 237.7 664.6 240 665.2 234.6 665.8 232.3 666.1 232.2 666.5 231.7 666.6 225.7 666.8 228.8 667.1 229 667.6 231.8 668 232.4 668.5 226.7 669.1 225.6 669.6 226.2 670.1 226.8 670.7 227.1 671.3 231.1 671.9 231.5 672.6 232.1 673.3 229.2 673.6 232.4 673.9 235.5 674.4 233.6 674.7 236.6 674.9 236.7 675.1 237.4 675.3 236.7 675.6 239.3 675.8 240.2 676 232.7 676.4 233 676.7 235.8 677 233.7 677.4 232 677.9 230.6 678.3 229.8 678.6 222.2 678.8 223.1 679.1 228 679.3 226.4 679.8 229.3 680.2 224.1 680.5 220 680.9 220.7 681.4 225.9 682 227.2 682.8 227.9 683.5 231.4 684.1 230.5 684.8 228 685.6 229.1 686.1 225.7 686.6 225 687.2 224.9 687.8 225.9 688.5 230.9 689.2 228.7 690 228 690.5 227.4 691.5 231 692.3 232.2 693.1 231.7 694.2 231.3 694.9 234.3 695.5 234.5 696.1 235.8 696.8 233.5 697.5 235.3 698.4 234.5 699.3 233.1 700.2 229.8 700.5 227.8 701.5 230.6 702.2 227.2 702.3 232.1 702.5 233.7 702.8 235 703 239.2 703.2 235.7 703.5 236.3 703.8 235.9 704.1 233.7 704.5 237.3 704.8 232.1 705.2 236.3 705.6 228.2 705.8 228 706.2 231.2 706.6 230.2 707 230.2 707.6 232.2 708 235.4 708.5 236.1 708.9 239.1 709.1 244.7 709.5 246.8 710 240.9 710.9 238.4 711.6 235.4 712.6 234.9 713.4 233.2 714.4 233.9 715.3 236.7 716.5 234.5 717.5 235.8 718.3 231.9 719.3 230.7 720.3 236.6 721.5 239.6 722.4 235.9 723.3 231.9 724 232.6 724.7 232.2 725.2 231.3 725.7 230.4 726.2 227.4 727 230.2 728.1 231 729.2 230.4 730.2 230.2 731.1 232.9 731.8 237 732.6 234.7 733.7 234.5 735.2 231.4 736.4 233.4 738.3 234.3 739.7 233.3 740.9 235.4 742 232.5 743.1 236.3 743.9 237 744.7 237.1 745.4 238.3 746.2 237.3 747.4 237.4 748.4 234.9 749.5 238.6 750.7 240 751.1 242.3 752.1 239.2 752.8 239.9 753.5 244 754.2 246.7 755 246.2 755.8 245.6 756.7 245.7 757.4 248.2 757.8 252.6 758.3 253.7 758.9 257.7 759.1 255.4 759.2 256 759.4 256.2 759.4 262.3 759.6 260.1 759.8 261.2 760.2 260.9 760.7 260.8 761.4 259.8 761.7 261 762 265.8 762.1 267.5 762.4 266.4 762.8 266.4 763 271.4 763.1 276.7 763.2 273.5 763.5 272.5 763.6 277 763.8 275.3 764 274.9 764.3 278.3 764.4 281.3 764.6 279.5 764.9 277 765.2 272.9 765.6 276.6 766 274.3 766.6 276.9 767.2 276.9 767.4 276.7 767.8 273 768.3 270.7 768.6 267.9 768.8 263 769.1 265.9 769.6 261.5 769.6 259.3 769.9 257 770.3 256.8 770.5 254.3 770.8 258.5 771.2 257.3 771.6 258.4 772.2 262 772.7 266.3 773.2 262.4 773.7 259.6 774.6 261.1 775.3 259.3 776.1 259.4 776.7 258.1 777.5 257.1 778 253.5 778.3 254.7 779.1 262.4 779.9 264.4 780.7 261.2 781.9 262.8 782.8 261.7 783.4 263.5 783.9 261.3 784.5 260.7 784.8 262.5 785.1 257.6 785.3 257 785.7 258.2 785.9 252.5 786.2 256 786.4 262.4 786.8 262.1 787.2 263.2 787.4 261.5 787.7 260.2 788.1 261.7 788.4 263.1 788.7 263.4 789.1 260.7 789.4 258.6 789.8 255.1 790.2 256.1 791.1 257.5 791.9 261.5 792.8 263.3 793.5 258.3 794.4 259.4 795.5 256.1 796.2 261.1 797.2 261 797.7 256.8 798.1 255.9 798.5 254.9 799 253 799 248.6 799.1 246 799.1 244.8 799.1 241.2 799.1 234.4 799.1 231.5 799.2 230.9 799.2 234.7 799.2 235.5 799.4 233.2 799.6 235.2 799.7 234.1 800 234.1 800.4 235.8 800.7 237.9 801.1 239.1 801.5 242.1 801.9 244.9 802.4 241.9 802.9 240.7 803.5 241.9 804.3 239.4 804.9 239.7 805.4 243.2 806.1 242.5 806.6 244.7 807 240.2 807.4 239.6 807.7 234.7 808.3 238.4 809 240.7 809.9 241.4 810.7 243.6 811.3 244.1 812.1 242.9 812.6 238.2 812.8 240.8 813.2 243.4 813.4 243.8 813.8 246.2 814.1 247.2 814.3 243.5 814.5 239.6 814.6 238.6 814.9 238.7 815.2 234.1 815.7 237.3 815.9 241.8 816.2 241.8 816.5 242.6 816.8 240.6 817.6 239 817.9 234.7 818.4 234 819.1 231.1 819.3 224.9 819.6 228.5 820 225.3 820.4 226 821.1 226.7 821.8 225.5 821.8 224.1 822.2 221 822.6 220.4 823.2 221.6 823.7 225.9 824.1 224 824.5 227.3 824.8 224.7 825.3 227.7 825.8 226.3 826.2 228.5 826.6 229.4 827.1 230.2 827.6 229.3 827.9 227 828.4 227.6 829.3 228.9 829.7 238 829.7 235.5 829.9 237.3 830.3 234.9 831 233.7 831.8 233.3 832.5 237.1 833 235.9 833.7 238.6 834.4 236.2 835.1 232.5 835.8 232.9 836.7 232.3 837.3 230.6 837.6 231.8 838.4 234.9 838.8 228.9 839.3 229 839.9 229.1 840.3 232.8 840.3 235.3 840.6 236.1 841 238 841.3 237.7 841.9 238 842.4 240.1 842.9 238.7 843.7 240.8 844.2 233 844.6 237.4 845.3 238.8 845.5 238.2 846 238.4 846.2 240.7 846.6 236.4 847.1 234.7 847.7 240.2 848.1 237.6 849 240.5 850.1 239.1 850.9 239.2 851.6 240.3 852.3 240.1 853 241.8 853.6 245 854.1 249.3 854.2 249.3 854.3 248.5 854.5 252.6 854.8 248.8 855.2 251.3 855.7 255.3 856 255.8 856.4 255.6 857.1 255.3 857.9 258.1 858.5 257.5 859.3 258.3 860.1 253.8 860.7 256 861.3 254.8 862.3 257.9 863 256.1 863.9 258.2 864.6 261.2 865.2 262.1 865.7 264.2 866.3 265.1 867 264.2 867.7 262.9 868 268.5 868.2 270.8 868.3 273.7 868.4 277.9 868.5 280.4 868.5 280.9 868.6 282.1 868.6 286.6 868.6 289.6 868.6 290.2 868.7 293.1 868.7 294.1 868.7 294.7 868.8 297.4 868.8 294.4 868.8 293.1 868.9 294.8 869 297.3 869.1 298 869.2 298.1 869.2 303.8 869.3 306.3 869.3 305.2 869.4 301.3 869.6 302.8 869.7 303.9 869.9 301.1 870 298.4 870.1 296.8 870.3 297 870.4 295 870.6 292.6 870.8 285.5 870.9 289.9 871.1 284.7 871.4 290.3 871.7 293.3 871.9 293.5 872.2 296.8 872.4 299.1 872.5 298.9 872.8 299 872.9 303.1 873.2 301.6 873.4 303.6 873.7 298.8 873.9 297.6 874.3 296.7 874.7 294.7 875.2 293.9 875.5 292.6 876 293.9 876.7 292.4 877.6 294.9 878.1 297.5 878.8 297.8 879.2 298.6 879.6 300.7 880 302.7 880.4 304.7 880.6 304.1 880.7 310.4 880.7 310.2 880.7 315.5 880.7 315.7 880.7 321.4 880.8 324.7 880.8 319.8 880.8 316.1 880.8 319.3 880.9 318.4 880.9 319.8 881 316.4 881.1 318.3 881.2 319.6 881.3 322.3 881.4 321.6 881.5 327 881.6 329 881.7 330.1 881.7 329.5 881.8 325.3 881.9 321.6 882.1 324.2 882.3 320.6 882.4 316.8 882.7 316.4 883 314.1 883.3 313 883.6 310.7 883.8 306.2 884.1 310.1 884.5 313.4 885 309.5 885.5 307.8 885.9 315.7 886.3 317.2 886.6 321.5 886.8 318 887 311.8 887.3 310.8 887.7 311.9 887.9 305.9 888 306.4 888.3 307.4 888.7 311 889 310.8 889.4 310.2 889.8 312.2 890.1 313.9 890.5 315.3 890.7 311.4 891 311.5 891.4 310.3 892.1 305.5 892.5 302.2 892.7 301.7 892.9 305.4 893.4 304.3 893.8 303.8 894.1 303.7 894.3 303.8 894.5 303.1 894.9 303.3 895.1 297.2 895.4 299.3 895.5 299.6 895.7 298.9 895.8 297.5 895.9 300.5 896.1 300.2 896.2 299.5 896.4 302 896.6 306.6 896.7 303.1 896.8 299.5 897 301.1 897.3 306.3 897.5 304.2 897.7 302.5 897.9 297.4 898.2 302.2 898.5 304 898.7 300.2 899 302.2 899.4 303.4 899.7 303.3 899.9 309.6 900 312.1 900.1 307.8 900.3 306.4 900.4 300.2 900.4 296.5 900.6 293.7 900.7 291.2 900.9 292.8 901.1 290.6 901.4 293.6 901.7 293.7 901.9 298.3 902.2 299.8 902.4 298.8 902.6 301.2 902.8 301.8 903.1 300.9 903.4 298.1 903.9 301.3 904.4 300.3 905.1 299.2 905.7 300.4 906.5 301.1 907 302 907.6 302.6 908.2 302.2 908.8 303.6 909.2 305.9 909.8 303.6 910.7 307 911.4 306.9 912 308.4 912.7 310.4 913.7 313.4 914 317.6 914.5 314.6 915.1 318.8 915.2 320.9 915.6 319.2 915.7 320.6 915.9 323.8 915.9 325.3 916.2 326.3 916.3 327.9 916.4 329 916.4 330.3 916.5 329.4 916.6 325.8 916.8 320.6 917.1 322.2 917.4 322.6 917.8 325.4 918.3 326.8 919 325 919.6 329.1 920.1 331.2 920.4 326.3 920.6 329.5 920.9 328.3 921.3 330.9 921.6 333.4 921.9 335.3 922 339.1 922.1 337.2 922.5 337.1 922.7 340.7 922.8 344.1 922.9 342.8 923 344.6 923 351 923 348.1 923.1 351.7 923.1 352 923.1 355.3 923.1 350.8 923.2 351.5 923.2 356.8 923.3 355.6 923.3 357 923.4 353.6 923.5 356.4 923.6 350.9 923.7 352.8 923.8 346.9 924 350.3 924.2 352.3 924.4 351.9 924.7 351.5 924.9 353.2 925 356.3 925.1 359.1 925.2 351.4 925.2 349.1 925.3 356.2 925.5 358.4 925.7 361 925.7 363.8 925.8 367.3 925.9 370 925.9 367.9 926.1 370.5 926.1 377 926.1 377.1 926.2 382.8 926.2 383.5 926.2 398.4 926.2 401.3 926.2 413.7 926.2 398.1 926.2 395.9 926.2 390.7 926.2 386.5 926.2 390.3 926.2 390.2 926.3 391.7 926.3 392.4 926.3 393.2 926.3 391.5 926.3 397.7 926.4 395.7 926.4 393.1 926.4 392 926.5 392.4 926.5 391.3 926.6 393 926.6 399.6 926.7 390.1 926.7 395.3 926.8 399.5 926.8 396.1 926.9 402 926.9 400.9 927 403.5 927 405 927.1 402.2 927.2 408.9 927.3 409.7 927.3 403 927.4 407.6 927.5 411.5 927.5 408.3 927.6 410.7 927.7 406.3 927.8 410.5 927.8 415.1 927.9 413.8 927.9 414.4 927.9 415.4 927.9 423.9 927.9 426.3 928 417.2 928 410.8 928 399.9 928 399.6 928 402.6 928.1 403.9 928.1 398.1 928.2 403.9 928.3 401.9 928.3 404.6 928.4 404.8 928.5 405.1 928.6 398.6 928.6 401.2 928.8 401.2 928.9 406.7 929 411.4 929.1 408.6 929.3 406.9 929.4 404.8 929.6 403.1 929.7 409.5 929.9 407.4 930 414.5 930.1 415.7 930.3 409.6 930.4 410.4 930.6 406.8 930.7 410.8 930.9 407.1 931.1 407.9 931.2 402.7 931.4 400.4 931.5 400.7 931.7 401.9 931.9 403.1 932.1 403.5 932.4 401.8 932.8 392.9 932.9 391.8 933 383.8 933.1 385.7 933.2 382.2 933.3 378.6 933.4 377.4 933.5 376.6 933.6 376 933.8 375.7 933.9 374.9 934 373.8" opacity=".6"/><text x="942" y="472" fill="#d97706" font-size="11" text-anchor="start">448.30</text><text x="942" y="396" fill="#d97706" font-size="11" text-anchor="start">495.71</text><text x="942" y="320" fill="#d97706" font-size="11" text-anchor="start">543.12</text><text x="942" y="244" fill="#d97706" font-size="11" text-anchor="start">590.53</text><text x="942" y="168" fill="#d97706" font-size="11" text-anchor="start">637.94</text><text x="942" y="92" fill="#d97706" font-size="11" text-anchor="start">685.35</text><text x="942" y="80" fill="#d97706" font-size="11" font-weight="600" text-anchor="start">price</text><polygon fill="#16a34a" fill-opacity=".08" points="157 468 157 118 157 117.4 231.9 117.7 361.2 118.2 390.4 119 575.1 116.7 575.9 117 868.6 117.5 926.1 116.1 926.1 468"/><polyline fill="none" stroke="#16a34a" stroke-linejoin="round" stroke-width="2" points="157 118 157 117.4 231.9 117.7 361.2 118.2 390.4 119 575.1 116.7 575.9 117 868.6 117.5 926.1 116.1"/><line x1="88" x2="110" y1="102" y2="102" stroke="#16a34a" stroke-width="2.5"/><text x="116" y="106" fill="#374151" font-size="11.5">equity</text><line x1="88" x2="110" y1="118" y2="118" stroke="#d97706" stroke-width="2.5" opacity=".8"/><text x="116" y="122" fill="#374151" font-size="11.5">price</text><text x="78" y="502" fill="#6b7280" font-size="12" text-anchor="start">2026-01-01</text><text x="934" y="502" fill="#6b7280" font-size="12" text-anchor="end">2026-01-31</text></svg>