<svg xmlns="http://www.w3.org/2000/svg" width="1000" height="520" font-family="ui-sans-serif, system-ui, sans-serif" viewBox="0 0 1000 520"><rect width="1000" height="520" fill="#fff"/><text x="78" y="28" fill="#111827" font-size="18" font-weight="700">Zone Recovery — NOKUSDT best setting (equity / PnL)</text><text x="78" y="48" fill="#6b7280" font-size="12.5">lev 20 · ratio 4 · gap 20% · maxSteps 4 · maxDD 60% · random · vip 9 · 6 series, 83.3% win · vol $1747066 ($1747086/day) · fees $267.30</text><text x="78" y="68" fill="#1d4ed8" font-size="12.5" font-weight="600">USDT · BNB −10% · taker 0.0153%</text><text x="934" y="28" fill="#16a34a" font-size="18" font-weight="700" text-anchor="end">+6505 USDT (+65.05%)</text><line x1="78" x2="934" y1="468" y2="468" stroke="#e5e7eb" stroke-width="1"/><text x="68" y="472" fill="#6b7280" font-size="12" text-anchor="end">0.00</text><line x1="78" x2="934" y1="392" y2="392" stroke="#e5e7eb" stroke-width="1"/><text x="68" y="396" fill="#6b7280" font-size="12" text-anchor="end">3678</text><line x1="78" x2="934" y1="316" y2="316" stroke="#e5e7eb" stroke-width="1"/><text x="68" y="320" fill="#6b7280" font-size="12" text-anchor="end">7356</text><line x1="78" x2="934" y1="240" y2="240" stroke="#e5e7eb" stroke-width="1"/><text x="68" y="244" fill="#6b7280" font-size="12" text-anchor="end">11034</text><line x1="78" x2="934" y1="164" y2="164" stroke="#e5e7eb" stroke-width="1"/><text x="68" y="168" fill="#6b7280" font-size="12" text-anchor="end">14712</text><line x1="78" x2="934" y1="88" y2="88" stroke="#e5e7eb" stroke-width="1"/><text x="68" y="92" fill="#6b7280" font-size="12" text-anchor="end">18390</text><line x1="78" x2="934" y1="261.4" y2="261.4" stroke="#9ca3af" stroke-dasharray="6 4" stroke-width="1.5"/><text x="934" y="255.4" fill="#6b7280" font-size="11" text-anchor="end">start 10000</text><polyline fill="none" stroke="#d97706" stroke-linejoin="round" stroke-width="1.2" points="78 132.1 78.1 133.4 78.3 137.2 78.6 139.8 78.6 141.1 79.2 139.8 79.5 134.7 80.2 132.1 80.4 132.1 80.5 132.1 81 132.1 81.1 129.6 81.6 129.6 82.2 133.4 82.5 134.7 82.8 139.8 82.9 144.9 83.1 143.6 83.4 142.4 83.7 142.4 84 139.8 84.4 141.1 84.9 146.2 85 146.2 85.3 152.6 85.3 160.3 85.3 156.4 85.3 161.6 85.4 157.7 85.6 159 85.6 160.3 85.8 159 85.9 157.7 86.1 161.6 86.4 161.6 86.6 162.8 86.8 169.2 86.8 166.7 86.9 166.7 87.1 166.7 87.2 166.7 87.4 169.2 87.6 168 87.9 169.2 88.1 168 88.3 170.5 88.6 171.8 88.8 173.1 88.9 174.3 89.2 175.6 89.6 175.6 90 175.6 90.1 174.3 90.2 176.9 90.3 179.5 90.5 179.5 90.5 180.7 90.9 176.9 91.1 176.9 91.3 176.9 91.7 175.6 91.8 176.9 92.2 179.5 92.3 179.5 92.6 180.7 92.7 180.7 92.8 176.9 93 174.3 93.4 176.9 93.7 175.6 93.9 175.6 94 174.3 94.1 169.2 94.4 169.2 94.6 166.7 94.8 164.1 95.1 160.3 95.2 153.9 95.3 152.6 95.5 153.9 96 152.6 96.4 153.9 96.5 152.6 96.8 153.9 97 153.9 97.3 156.4 97.6 157.7 98 156.4 98.4 156.4 98.8 157.7 98.9 157.7 99.4 156.4 99.7 155.2 100.2 155.2 100.6 155.2 101.1 157.7 101.3 157.7 101.5 159 101.8 157.7 102.4 156.4 102.4 155.2 102.8 156.4 103.1 159 103.6 159 104.1 156.4 104.2 155.2 104.8 159 105.4 159 105.6 159 105.9 159 106.4 157.7 106.9 157.7 107.7 156.4 107.9 159 108 160.3 108.3 160.3 108.9 160.3 109.3 164.1 109.5 161.6 109.8 159 110.2 156.4 110.4 156.4 111 157.7 111.9 157.7 112 160.3 113 160.3 113.2 160.3 113.7 164.1 114.2 165.4 114.5 165.4 114.6 164.1 114.7 162.8 114.8 165.4 114.9 166.7 115 165.4 115.2 165.4 115.5 166.7 115.8 169.2 116.3 168 116.7 169.2 117.4 170.5 117.6 169.2 117.9 170.5 118.3 169.2 118.5 165.4 118.8 168 119.1 166.7 119.6 166.7 120.2 171.8 120.7 175.6 121.2 174.3 121.4 174.3 122 175.6 122.1 175.6 122.8 175.6 123.2 176.9 123.6 179.5 123.8 178.2 124.2 174.3 124.4 170.5 125 174.3 125.1 171.8 125.6 170.5 126.2 170.5 126.6 171.8 126.9 173.1 127 174.3 127.3 175.6 127.7 174.3 128 173.1 128.3 170.5 128.5 168 128.7 171.8 129.2 174.3 129.7 174.3 130 169.2 130.6 169.2 130.9 166.7 131.1 166.7 131.2 166.7 131.6 164.1 131.9 159 132.1 156.4 132.4 155.2 132.8 153.9 133.5 155.2 134 155.2 134.5 153.9 135.1 153.9 135.4 153.9 135.7 152.6 136 150 136.3 146.2 136.4 148.8 136.5 152.6 137 152.6 137.6 147.5 137.8 147.5 138.1 144.9 138.4 142.4 138.6 142.4 139.1 142.4 139.8 138.5 140 141.1 140.7 139.8 140.8 138.5 140.9 139.8 141.6 141.1 141.7 139.8 142.2 139.8 142.7 139.8 143 142.4 143.3 142.4 143.7 143.6 144.6 141.1 145.2 134.7 145.3 132.1 145.8 130.8 146 128.3 146.7 127 147 124.4 147.6 127 147.6 127 148 129.6 148.2 130.8 148.4 130.8 148.7 129.6 149 128.3 149.5 129.6 150 128.3 150.3 129.6 150.7 134.7 151.1 136 151.2 138.5 151.3 136 151.7 136 152.1 134.7 152.4 134.7 152.7 138.5 152.9 138.5 153.8 138.5 154.1 138.5 154.4 136 154.9 136 156 133.4 157 132.1 157.2 132.1 157.8 136 158.3 132.1 158.7 128.3 158.9 129.6 159.3 129.6 159.6 129.6 159.9 127 160.4 127 160.7 128.3 160.9 127 161.3 125.7 161.8 129.6 162.6 127 163.2 128.3 163.8 127 164.4 124.4 165.3 124.4 165.7 127 166.6 123.2 167.2 128.3 167.7 127 168 123.2 168.8 125.7 169.1 116.8 169.1 118 169.6 115.5 169.9 118 169.9 115.5 170.5 118 171.4 116.8 172.4 115.5 172.6 118 173.1 119.3 173.2 119.3 174 124.4 174.2 127 174.5 127 174.6 124.4 174.6 124.4 174.9 127 175.4 127 175.5 125.7 176 125.7 176.1 125.7 176.6 123.2 176.7 124.4 177 124.4 177.3 127 177.4 128.3 177.8 128.3 178.5 128.3 178.7 128.3 179.3 129.6 180.2 128.3 181 127 181.8 123.2 182 124.4 182.1 125.7 182.7 124.4 183.8 124.4 184.2 128.3 184.7 129.6 185.4 129.6 186.6 128.3 186.9 129.6 187.1 128.3 187.3 128.3 188 128.3 188.4 132.1 188.6 128.3 188.6 130.8 189.1 133.4 189.7 132.1 190.3 133.4 190.5 133.4 191.1 132.1 192 130.8 192.3 129.6 192.9 133.4 193 141.1 193.1 137.2 193.6 138.5 194.4 138.5 194.5 138.5 195.1 136 195.7 133.4 196.3 133.4 197 132.1 197.5 137.2 198 138.5 198.4 138.5 198.8 136 199.3 137.2 199.6 137.2 200.1 137.2 200.5 137.2 201.1 138.5 201.1 139.8 201.7 139.8 201.9 141.1 202.2 144.9 202.3 142.4 203.2 143.6 203.4 142.4 203.6 142.4 204.1 142.4 204.1 143.6 204.6 143.6 205.1 142.4 205.2 144.9 205.5 146.2 206 147.5 206.8 147.5 207.3 148.8 207.6 151.3 208.2 151.3 208.9 148.8 209.4 148.8 209.6 148.8 210 148.8 210.1 151.3 210.6 148.8 211.2 150 211.8 148.8 211.8 148.8 212.2 148.8 212.5 148.8 213.1 147.5 213.5 147.5 214.1 151.3 214.3 151.3 214.7 152.6 215.3 150 215.4 151.3 215.8 150 216 151.3 216.2 156.4 216.5 156.4 217.2 160.3 217.5 156.4 217.9 153.9 218.3 150 218.5 151.3 218.9 150 219.3 146.2 219.7 146.2 220.1 147.5 220.4 148.8 220.7 147.5 221.5 146.2 222.1 146.2 222.3 147.5 223 148.8 223.2 151.3 223.7 147.5 224.2 144.9 224.8 143.6 225 141.1 225.5 138.5 226.1 139.8 226.6 139.8 227.1 138.5 227.2 136 227.2 136 227.5 137.2 227.9 136 228.4 137.2 229.2 142.4 230.3 139.8 231.7 139.8 232.6 141.1 233.8 139.8 234.4 139.8 234.9 138.5 235.7 137.2 236.1 136 236.2 136 236.5 134.7 237.1 136 237.4 137.2 237.7 138.5 238 137.2 239.1 142.4 239.5 143.6 240.2 143.6 241.2 143.6 242.1 141.1 242.2 141.1 242.5 141.1 243.3 141.1 244.1 141.1 245.1 141.1 245.7 141.1 246.9 141.1 248.1 142.4 249.1 142.4 250.1 142.4 251 138.5 251.6 139.8 252.2 138.5 252.6 137.2 253.1 134.7 253.6 134.7 253.8 137.2 254.6 134.7 255.7 134.7 256.3 136 256.5 134.7 257.2 138.5 257.6 138.5 258.4 136 259.3 141.1 260 141.1 261.1 144.9 262.3 143.6 262.9 143.6 263.7 142.4 264.8 142.4 265.9 142.4 266.5 146.2 267.1 147.5 267.7 146.2 268.1 142.4 269.2 139.8 270.1 138.5 270.5 141.1 271.8 143.6 273 142.4 273.6 143.6 274.8 141.1 275.4 139.8 276.5 141.1 277.2 142.4 278.2 142.4 278.5 138.5 279.1 134.7 279.7 134.7 280.8 136 281.3 139.8 282.1 141.1 282.5 142.4 282.7 144.9 283 144.9 283.1 146.2 283.5 150 284 153.9 284.6 152.6 284.9 153.9 285.5 155.2 286.3 151.3 286.7 153.9 287.2 155.2 287.7 159 288.2 160.3 288.4 160.3 288.7 161.6 288.8 171.8 288.8 168 288.9 164.1 289.2 161.6 289.2 162.8 289.5 165.4 289.8 168 290.4 168 290.8 168 290.9 170.5 291.3 168 292 166.7 292.1 166.7 292.7 165.4 292.8 164.1 292.9 160.3 292.9 160.3 293.1 161.6 293.8 165.4 294 169.2 294.4 168 295 169.2 295.5 166.7 296.2 165.4 296.8 165.4 297.4 166.7 298 169.2 298.6 171.8 299 170.5 299.7 173.1 300.3 171.8 300.4 171.8 301 174.3 301 173.1 301.3 174.3 301.8 174.3 302 175.6 302.3 178.2 302.7 178.2 303 175.6 303.1 174.3 303.3 178.2 303.4 175.6 303.6 175.6 303.9 178.2 304.3 176.9 304.5 178.2 304.6 179.5 304.8 179.5 305.1 180.7 305.3 180.7 305.7 182 305.7 183.3 306.2 182 306.3 183.3 306.4 182 306.5 187.1 306.5 185.9 306.5 187.1 306.6 184.6 306.8 183.3 306.8 185.9 307 184.6 307.3 184.6 307.6 182 308 183.3 308.1 182 308.6 180.7 308.8 180.7 309.2 180.7 309.8 179.5 309.9 175.6 310.3 175.6 310.4 174.3 310.5 175.6 310.9 176.9 311.1 175.6 311.7 176.9 312.2 179.5 312.4 182 312.8 184.6 313 185.9 313.2 187.1 313.7 184.6 314.4 179.5 314.6 178.2 315.1 179.5 315.3 178.2 315.4 176.9 315.8 178.2 316.6 176.9 317.1 175.6 317.6 178.2 318 176.9 318.4 179.5 318.4 179.5 318.8 175.6 319.3 176.9 319.8 182 319.9 180.7 319.9 180.7 320.4 176.9 320.7 179.5 320.9 178.2 321.1 178.2 321.2 179.5 322.4 174.3 322.8 175.6 323.2 178.2 323.8 182 324.1 173.1 324.2 173.1 325.4 179.5 326.2 176.9 326.8 179.5 327.1 179.5 327.3 179.5 327.7 171.8 327.7 170.5 327.7 169.2 327.7 168 327.7 168 327.7 168 327.8 165.4 327.8 157.7 327.8 152.6 327.9 148.8 327.9 144.9 327.9 152.6 328 147.5 328.1 156.4 328.3 156.4 328.6 165.4 328.7 168 328.9 170.5 329.1 168 329.5 169.2 329.9 169.2 330.2 175.6 330.2 174.3 330.6 176.9 331.2 182 331.3 183.3 331.5 180.7 332.1 176.9 332.4 179.5 332.5 188.4 332.5 187.1 332.5 192.3 332.5 187.1 332.5 188.4 332.5 185.9 332.7 187.1 332.7 187.1 332.8 187.1 332.9 185.9 333 185.9 333.1 178.2 333.1 174.3 333.2 174.3 333.2 174.3 333.6 171.8 333.6 171.8 333.7 168 333.7 164.1 334.1 161.6 334.2 160.3 334.2 161.6 334.4 159 334.8 164.1 335.3 161.6 335.6 160.3 335.7 156.4 335.8 165.4 335.8 160.3 336.3 161.6 336.9 162.8 337.8 164.1 338.4 165.4 338.7 169.2 339 170.5 339.6 170.5 340 168 340.5 166.7 340.7 160.3 341.3 160.3 341.5 160.3 341.6 157.7 341.9 156.4 342.1 155.2 342.5 161.6 342.8 153.9 343.1 153.9 343.5 152.6 344.2 147.5 344.4 144.9 344.7 147.5 344.9 143.6 345.5 143.6 345.8 146.2 345.9 151.3 346.1 150 346.7 151.3 347 147.5 347.3 144.9 347.4 146.2 347.9 144.9 348.4 141.1 348.6 142.4 349.5 142.4 349.7 141.1 350.3 141.1 350.9 139.8 351.3 139.8 351.6 141.1 352 144.9 353 143.6 353.4 141.1 353.9 141.1 354.4 138.5 354.8 139.8 355.3 137.2 355.6 137.2 356.1 139.8 356.8 138.5 356.9 137.2 357.5 139.8 357.7 136 358 134.7 358.6 133.4 358.9 129.6 359.2 130.8 359.5 130.8 360 134.7 360.4 133.4 361 134.7 361.6 136 362.3 138.5 362.8 137.2 363.3 139.8 363.3 141.1 363.4 142.4 363.5 147.5 363.6 150 363.9 152.6 364 153.9 364.4 150 364.6 148.8 364.7 148.8 364.8 150 365.1 155.2 365.1 155.2 365.4 157.7 365.6 160.3 365.8 159 366.2 162.8 366.4 161.6 366.7 159 366.8 161.6 367.1 161.6 367.6 160.3 368.1 159 368.6 162.8 369 159 369.6 159 370.1 160.3 370.5 157.7 370.8 160.3 371.3 159 371.9 159 372.4 159 373.2 161.6 374.2 156.4 374.7 157.7 375.7 157.7 376.3 156.4 376.4 150 376.5 152.6 377 151.3 377.9 152.6 378.8 150 379.4 150 380 148.8 380.3 146.2 380.9 143.6 380.9 143.6 381.6 144.9 382 146.2 382.6 144.9 383.1 147.5 384.3 155.2 385.2 156.4 386.2 156.4 386.9 159 387.6 156.4 388.2 160.3 388.9 162.8 389.5 161.6 390.7 160.3 391.4 161.6 392.5 157.7 393.4 160.3 394.3 160.3 394.9 160.3 395.4 160.3 396.7 164.1 397 166.7 397 166.7 397.3 168 398.3 164.1 398.7 162.8 399 165.4 399.2 165.4 399.6 162.8 399.9 162.8 400 161.6 400 164.1 400.1 164.1 400.2 162.8 400.4 160.3 400.8 160.3 401.4 160.3 401.8 162.8 402.1 162.8 402.7 160.3 403.6 160.3 403.8 160.3 404 161.6 405 162.8 405.5 161.6 406.7 164.1 406.8 156.4 406.9 153.9 407 156.4 407.1 156.4 407.4 150 407.6 155.2 407.9 161.6 408.2 161.6 408.6 164.1 409.1 161.6 409.7 161.6 410 162.8 410.9 162.8 411.5 161.6 412.9 161.6 413.2 164.1 414.3 166.7 415.1 166.7 415.9 169.2 416.1 170.5 416.5 170.5 416.9 169.2 417.5 169.2 418 165.4 419 166.7 419.6 166.7 420.4 166.7 421 170.5 422.1 169.2 423.4 170.5 424.6 165.4 425 165.4 425.8 162.8 426.3 161.6 427.4 162.8 428.1 162.8 429.1 165.4 430.4 162.8 431.9 164.1 432.9 162.8 433.7 164.1 434.1 162.8 434.4 162.8 434.7 161.6 435.3 161.6 435.6 164.1 436.1 164.1 437.1 162.8 438.3 165.4 439 164.1 440 159 441.2 157.7 442 157.7 442.3 159 443.6 161.6 444 162.8 444.2 159 445.5 156.4 446.4 156.4 447.8 155.2 449.6 152.6 450.4 151.3 451 156.4 451.7 153.9 452.4 148.8 453.4 146.2 453.6 146.2 454.2 146.2 454.7 138.5 454.9 138.5 455.3 139.8 455.5 141.1 456.4 144.9 456.7 146.2 457.9 151.3 459.1 151.3 459.9 150 461.4 148.8 463.3 150 463.8 144.9 465.6 148.8 466.8 150 468 152.6 469.9 148.8 470.4 151.3 470.8 153.9 471.6 155.2 472.9 153.9 473.9 150 475.2 151.3 475.9 151.3 476.7 151.3 478.1 151.3 479.3 152.6 479.8 152.6 480.4 152.6 481.1 153.9 481.7 157.7 482.3 159 484.2 153.9 484.8 157.7 486.4 155.2 488.4 151.3 489.3 148.8 490.4 152.6 492.3 152.6 492.9 153.9 493.9 153.9 494.2 155.2 495.9 152.6 497.4 153.9 498.3 152.6 500.7 152.6 503.1 152.6 503.9 151.3 504.8 153.9 505.1 161.6 505.7 160.3 506.1 159 506.6 164.1 507.2 161.6 507.4 165.4 507.6 166.7 508.2 164.1 509 169.2 509.5 166.7 510.2 164.1 510.9 164.1 512.3 165.4 513 162.8 513.9 168 514.8 168 515.6 166.7 516.1 170.5 516.5 166.7 517.5 166.7 517.9 168 519 169.2 519.7 169.2 520.3 165.4 521.5 165.4 521.7 165.4 522.6 169.2 523 173.1 523.4 174.3 523.8 175.6 523.9 169.2 523.9 170.5 524.1 175.6 524.2 179.5 524.3 180.7 524.4 179.5 524.6 182 525 182 525.1 176.9 525.6 180.7 526.1 182 526.3 182 526.8 183.3 527.1 184.6 527.5 182 527.9 183.3 528.1 183.3 528.6 179.5 529.2 175.6 529.5 176.9 530.3 178.2 530.4 178.2 530.5 176.9 531.5 175.6 532 174.3 532.8 175.6 533.1 175.6 533.8 176.9 534.3 176.9 535.9 174.3 536.3 178.2 537.1 180.7 537.9 183.3 538.2 184.6 538.7 185.9 539.4 185.9 540.3 185.9 540.7 184.6 541.4 185.9 541.7 192.3 542 192.3 542.3 192.3 542.8 188.4 543 185.9 543.7 189.7 544.4 189.7 545.3 188.4 545.7 185.9 546.2 183.3 547 184.6 547.3 189.7 547.4 187.1 548 184.6 548.8 183.3 549.6 185.9 550 189.7 551.1 188.4 551.6 189.7 551.9 191 552 192.3 553 191 553.8 191 554.4 187.1 554.9 188.4 555.2 192.3 555.8 191 556.7 193.5 557.6 193.5 558.3 194.8 558.7 197.4 558.9 201.2 559.3 197.4 559.5 194.8 559.6 198.7 559.7 199.9 559.7 202.5 559.8 205.1 559.8 202.5 559.9 208.9 560 210.2 560.1 202.5 560.1 202.5 560.2 208.9 560.3 208.9 560.4 205.1 560.4 197.4 560.5 201.2 560.7 197.4 560.7 201.2 560.9 199.9 561 197.4 561.3 199.9 561.3 207.6 561.5 203.8 561.6 207.6 561.7 214 561.7 215.3 561.7 217.9 561.7 215.3 561.8 220.4 561.9 221.7 561.9 221.7 562 223 562.1 221.7 562.2 216.6 562.3 220.4 562.3 220.4 562.4 215.3 562.5 219.1 562.6 223 562.7 219.1 562.8 215.3 563 216.6 563.1 217.9 563.2 220.4 563.3 223 563.4 223 563.5 223 563.6 226.8 563.6 228.1 563.7 229.4 563.8 233.2 563.8 235.8 563.8 235.8 563.9 238.3 563.9 239.6 563.9 240.9 563.9 237.1 564 235.8 564.1 231.9 564.2 235.8 564.2 235.8 564.3 233.2 564.3 237.1 564.4 235.8 564.5 235.8 564.7 234.5 564.8 240.9 564.8 246 564.8 243.4 564.9 243.4 564.9 243.4 565 246 565.1 243.4 565.1 240.9 565.2 239.6 565.4 238.3 565.4 234.5 565.5 234.5 565.6 239.6 565.8 240.9 565.9 239.6 566 238.3 566.1 243.4 566.2 244.7 566.2 248.6 566.3 246 566.4 247.3 566.5 251.1 566.5 249.8 566.5 251.1 566.5 255 566.6 252.4 566.7 252.4 566.7 249.8 566.7 249.8 566.8 248.6 566.8 249.8 566.9 251.1 567 253.7 567.1 251.1 567.3 252.4 567.4 251.1 567.4 252.4 567.6 256.2 567.7 255 567.8 257.5 567.9 257.5 567.9 256.2 568 255 568.1 248.6 568.1 252.4 568.2 252.4 568.3 249.8 568.4 252.4 568.5 251.1 568.5 246 568.5 244.7 568.6 248.6 568.7 249.8 568.8 246 569 246 569.1 248.6 569.3 244.7 569.3 244.7 569.4 244.7 569.5 249.8 569.6 247.3 569.7 248.6 569.8 248.6 569.9 249.8 570 249.8 570.2 252.4 570.3 252.4 570.5 256.2 570.6 257.5 570.7 258.8 570.8 260.1 570.8 261.4 570.8 262.6 570.8 263.9 570.9 266.5 570.9 266.5 571 263.9 571 267.8 571.1 269 571.1 267.8 571.3 270.3 571.4 270.3 571.4 267.8 571.5 262.6 571.6 267.8 571.7 267.8 571.7 267.8 571.8 263.9 571.9 260.1 572 258.8 572 255 572.1 252.4 572.2 253.7 572.2 257.5 572.3 260.1 572.5 256.2 572.5 256.2 572.6 252.4 572.7 253.7 572.8 251.1 572.9 251.1 573 256.2 573.1 258.8 573.2 260.1 573.3 258.8 573.5 257.5 573.6 256.2 573.7 255 573.7 251.1 573.9 252.4 574.1 251.1 574.2 247.3 574.2 243.4 574.2 242.2 574.4 243.4 574.4 247.3 574.5 244.7 574.6 247.3 574.7 244.7 574.8 248.6 574.9 252.4 575 252.4 575.2 251.1 575.5 256.2 575.6 257.5 575.6 261.4 575.7 260.1 575.8 260.1 576 258.8 576.2 257.5 576.2 260.1 576.4 262.6 576.5 265.2 576.7 265.2 576.7 270.3 576.8 269 576.8 275.4 576.9 271.6 577 271.6 577.1 274.2 577.1 272.9 577.3 280.6 577.3 281.8 577.3 281.8 577.3 284.4 577.3 290.8 577.3 288.2 577.3 284.4 577.3 284.4 577.3 281.8 577.3 281.8 577.3 281.8 577.4 285.7 577.4 285.7 577.4 285.7 577.5 285.7 577.5 285.7 577.5 287 577.5 292.1 577.5 289.5 577.5 288.2 577.6 287 577.6 287 577.6 281.8 577.7 280.6 577.8 284.4 577.9 283.1 578 281.8 578.1 280.6 578.2 283.1 578.3 278 578.4 278 578.5 274.2 578.5 275.4 578.6 279.3 578.7 275.4 578.8 275.4 578.9 271.6 579 267.8 579.1 265.2 579.2 265.2 579.2 267.8 579.3 270.3 579.4 269 579.6 266.5 579.6 261.4 579.7 262.6 579.8 263.9 579.8 262.6 579.9 265.2 580 265.2 580.1 265.2 580.1 265.2 580.2 262.6 580.3 263.9 580.3 262.6 580.5 262.6 580.6 262.6 580.6 261.4 580.7 260.1 580.8 253.7 580.9 252.4 580.9 255 581.1 261.4 581.2 260.1 581.3 260.1 581.5 261.4 581.6 260.1 581.8 257.5 581.9 255 582 253.7 582.1 251.1 582.2 252.4 582.2 247.3 582.3 244.7 582.3 243.4 582.4 243.4 582.5 244.7 582.6 242.2 582.7 244.7 582.8 249.8 583.1 251.1 583.3 247.3 583.4 244.7 583.7 242.2 583.9 242.2 583.9 247.3 584 249.8 584.1 252.4 584.3 252.4 584.4 253.7 584.5 249.8 584.6 252.4 584.7 253.7 584.9 253.7 585.1 253.7 585.4 253.7 585.6 252.4 585.7 255 585.9 248.6 585.9 248.6 585.9 249.8 585.9 247.3 586.1 248.6 586.4 243.4 586.5 243.4 586.7 240.9 586.9 239.6 587.1 238.3 587.4 238.3 587.7 240.9 587.9 234.5 588.1 235.8 588.2 235.8 588.5 233.2 588.6 237.1 588.8 235.8 589 228.1 589.1 230.7 589.2 228.1 589.4 226.8 589.7 230.7 589.8 224.3 589.9 228.1 590.1 225.5 590.3 230.7 590.5 233.2 590.6 237.1 590.8 240.9 590.8 243.4 591 248.6 591 251.1 591.2 248.6 591.5 246 591.6 246 591.9 247.3 592.2 249.8 592.5 248.6 592.9 252.4 593.1 251.1 593.3 255 593.7 252.4 594 257.5 594.4 253.7 594.6 252.4 594.7 256.2 594.7 253.7 594.7 257.5 594.9 258.8 595.1 258.8 595.2 257.5 595.3 256.2 595.4 255 595.4 256.2 595.4 256.2 595.5 256.2 595.5 255 595.5 256.2 595.5 255 595.5 256.2 595.5 255 595.5 256.2 595.5 255 595.5 256.2 595.5 255 595.5 255 595.5 256.2 595.5 255 595.5 256.2 595.6 255 595.9 251.1 596.3 252.4 596.6 252.4 596.7 251.1 597 256.2 597.2 256.2 597.6 251.1 597.8 247.3 598 244.7 598.2 243.4 598.6 239.6 598.7 237.1 598.8 237.1 598.9 231.9 599.1 233.2 599.3 230.7 599.4 229.4 599.5 230.7 599.7 231.9 599.9 230.7 600.1 226.8 600.4 231.9 600.5 233.2 600.7 231.9 600.9 231.9 601.1 229.4 601.2 230.7 601.2 233.2 601.4 228.1 601.5 231.9 601.7 233.2 601.9 233.2 602.1 235.8 602.4 238.3 602.7 242.2 602.9 233.2 603.1 235.8 603.5 237.1 603.8 239.6 604.1 238.3 604.3 237.1 604.7 231.9 605 235.8 605.3 234.5 605.7 238.3 605.9 239.6 606.1 234.5 606.5 238.3 606.6 234.5 607 238.3 607.1 235.8 607.3 235.8 607.7 229.4 607.8 228.1 608 229.4 608.2 225.5 608.4 225.5 608.7 224.3 608.9 224.3 609.3 226.8 609.8 230.7 610 231.9 610.2 235.8 610.5 233.2 610.8 231.9 611.2 231.9 611.4 238.3 611.8 234.5 611.9 234.5 612.2 231.9 612.7 230.7 613 229.4 613.2 230.7 613.6 234.5 613.6 235.8 613.6 239.6 613.6 237.1 613.7 238.3 613.7 238.3 613.8 239.6 613.8 240.9 613.9 240.9 614 239.6 614.1 240.9 614.2 243.4 614.3 243.4 614.4 244.7 614.5 243.4 614.6 246 614.8 243.4 614.9 242.2 614.9 243.4 615 242.2 615.1 240.9 615.2 239.6 615.3 238.3 615.4 239.6 615.5 240.9 615.6 240.9 615.8 239.6 615.9 240.9 616 240.9 616.2 243.4 616.2 244.7 616.3 244.7 616.5 243.4 616.6 247.3 616.8 246 617.1 244.7 617.2 247.3 617.9 248.6 618.1 248.6 618.4 251.1 618.6 252.4 618.8 247.3 618.9 248.6 619 252.4 619.1 249.8 619.2 252.4 619.3 252.4 619.5 249.8 619.5 253.7 619.7 252.4 619.8 253.7 619.9 253.7 620.1 253.7 620.1 255 620.3 252.4 620.4 255 620.5 256.2 620.6 257.5 620.7 257.5 620.8 257.5 620.9 257.5 621 257.5 621.1 257.5 621.3 258.8 621.4 258.8 621.5 258.8 621.6 258.8 621.7 260.1 621.8 260.1 621.9 263.9 621.9 263.9 622.1 261.4 622.2 262.6 622.3 261.4 622.5 261.4 622.6 266.5 622.6 262.6 622.8 263.9 622.9 261.4 623 261.4 623.1 260.1 623.2 263.9 623.3 262.6 623.3 261.4 623.4 260.1 623.6 261.4 623.7 260.1 623.8 260.1 623.9 261.4 624 261.4 624.2 261.4 624.4 260.1 625 257.5 625.2 261.4 625.5 265.2 625.8 265.2 626.1 265.2 626.5 263.9 626.7 266.5 626.9 265.2 627 261.4 627.2 265.2 627.3 265.2 627.8 266.5 627.9 272.9 627.9 270.3 628.1 271.6 628.5 270.3 628.7 269 629.1 267.8 629.3 267.8 629.9 266.5 630.3 269 630.8 266.5 631 267.8 631.2 267.8 631.5 265.2 632 267.8 632.5 267.8 632.8 267.8 633.2 271.6 633.4 269 633.7 269 634.1 266.5 634.5 266.5 634.8 270.3 635 274.2 635.3 274.2 635.6 274.2 636 276.7 636.2 276.7 636.3 275.4 636.5 279.3 636.8 278 637.2 276.7 637.5 276.7 637.7 279.3 637.9 279.3 638.1 274.2 638.3 272.9 638.9 271.6 639.2 269 639.4 271.6 640 274.2 640.5 271.6 640.9 270.3 641.4 270.3 641.6 272.9 642.1 272.9 642.4 274.2 642.7 271.6 642.8 269 643.2 266.5 643.4 269 643.4 269 643.4 269 643.9 267.8 644.3 267.8 645 266.5 645.4 269 645.7 267.8 646.2 269 646.6 270.3 646.8 269 646.9 269 647.3 271.6 647.5 267.8 647.5 270.3 647.9 269 648.3 271.6 648.8 271.6 649.1 274.2 649.3 275.4 649.5 276.7 649.9 274.2 650 276.7 650.1 275.4 650.3 279.3 650.5 278 650.8 279.3 650.8 280.6 650.9 279.3 651 280.6 651 280.6 651.1 280.6 651.1 280.6 651.2 281.8 651.4 280.6 651.7 283.1 651.9 284.4 652 281.8 652.2 287 652.3 287 652.6 285.7 652.7 289.5 652.9 289.5 653 288.2 653.1 290.8 653.1 289.5 653.2 290.8 653.3 292.1 653.4 290.8 653.5 292.1 653.6 293.4 654 293.4 654.1 294.6 654.2 294.6 654.3 292.1 654.5 290.8 654.5 290.8 654.8 294.6 655.1 290.8 655.2 294.6 655.2 298.5 655.3 298.5 655.4 295.9 655.6 297.2 655.7 298.5 655.8 299.8 655.9 298.5 655.9 303.6 656 303.6 656 302.3 656.3 304.9 656.4 302.3 656.6 302.3 656.8 299.8 657 298.5 657.2 298.5 657.6 298.5 657.6 299.8 657.7 304.9 657.9 304.9 658.2 303.6 658.4 306.2 658.6 307.4 658.7 310 659 310 659 315.1 659.1 312.6 659.2 316.4 659.2 318.9 659.3 320.2 659.3 317.7 659.4 318.9 659.4 316.4 659.6 317.7 659.8 317.7 660 320.2 660.2 318.9 660.3 321.5 660.4 318.9 660.6 318.9 661 317.7 661.1 322.8 661.2 320.2 661.4 324.1 661.4 321.5 661.5 324.1 661.7 322.8 661.8 318.9 661.9 324.1 662 327.9 662.1 327.9 662.3 325.3 662.4 324.1 662.6 324.1 662.8 322.8 662.9 324.1 663 325.3 663.1 330.5 663.2 330.5 663.3 325.3 663.5 326.6 663.7 324.1 664.1 327.9 664.1 327.9 664.2 329.2 664.3 326.6 664.6 325.3 664.7 321.5 664.7 321.5 664.7 322.8 664.8 321.5 665 320.2 665.3 325.3 665.3 329.2 665.4 324.1 665.6 325.3 665.8 327.9 666 326.6 666.1 325.3 666.3 325.3 666.5 327.9 666.6 326.6 666.7 327.9 666.8 329.2 667 333 667.1 335.6 667.1 335.6 667.2 334.3 667.3 335.6 667.3 338.1 667.4 339.4 667.5 338.1 667.7 342 667.7 340.7 667.8 340.7 667.9 343.3 667.9 353.5 667.9 350.9 667.9 350.9 667.9 347.1 667.9 345.8 668 344.5 668.3 343.3 668.3 344.5 668.5 343.3 668.9 343.3 668.9 339.4 669 340.7 669.3 338.1 669.5 333 669.5 333 669.6 334.3 669.9 331.7 670.1 331.7 670.3 336.9 670.6 338.1 670.7 336.9 670.9 340.7 671 338.1 671.2 336.9 671.3 336.9 671.7 331.7 671.9 333 672.2 338.1 672.4 343.3 672.6 344.5 672.8 347.1 672.8 349.7 672.9 348.4 673.1 348.4 673.2 348.4 673.5 349.7 673.7 349.7 673.9 349.7 674.1 352.2 674.3 352.2 674.4 353.5 674.7 353.5 674.9 353.5 674.9 356.1 675.1 356.1 675.4 357.3 675.5 356.1 675.7 356.1 675.8 358.6 675.8 365 675.8 363.7 676 359.9 676.1 358.6 676.3 357.3 676.5 358.6 676.6 365 676.7 359.9 676.8 361.2 677.1 359.9 677.3 357.3 677.4 358.6 677.6 357.3 677.6 357.3 677.8 356.1 677.9 352.2 678 350.9 678.2 350.9 678.4 343.3 678.4 344.5 678.5 348.4 678.9 347.1 679 349.7 679.2 345.8 679.4 342 679.5 339.4 679.6 335.6 679.7 338.1 680.1 336.9 680.2 334.3 680.3 335.6 680.7 334.3 680.9 334.3 680.9 331.7 681.1 331.7 681.4 325.3 681.4 327.9 681.6 330.5 681.7 333 682 335.6 682.4 331.7 682.7 331.7 683.1 330.5 683.3 331.7 683.8 330.5 684.1 330.5 684.5 330.5 684.9 333 685 331.7 685.5 333 686 338.1 686.2 336.9 686.3 335.6 686.4 331.7 686.8 327.9 686.9 330.5 687.1 330.5 687.5 331.7 687.9 336.9 688.1 338.1 688.5 342 689 343.3 689.2 343.3 689.7 339.4 689.8 340.7 690.3 338.1 690.5 338.1 690.9 339.4 691.5 343.3 691.5 345.8 691.9 343.3 692.3 340.7 692.9 342 693.3 339.4 693.6 342 694 344.5 694.2 347.1 694.5 347.1 694.9 345.8 695.2 344.5 695.4 342 695.6 343.3 695.7 343.3 695.7 343.3 695.8 344.5 696 340.7 696.2 338.1 696.4 342 696.6 343.3 696.9 342 697 338.1 697.1 335.6 697.4 339.4 697.5 342 697.6 339.4 697.7 335.6 697.8 333 697.9 331.7 698 333 698 330.5 698.1 330.5 698.2 329.2 698.3 329.2 698.4 330.5 698.5 329.2 698.7 334.3 699.1 333 699.6 336.9 699.9 340.7 700.3 335.6 700.5 339.4 701.1 335.6 701.6 338.1 702.2 336.9 702.8 338.1 703.5 338.1 704 338.1 704.6 338.1 705.1 335.6 705.6 335.6 706.4 333 706.9 330.5 707.7 330.5 707.9 330.5 708.3 327.9 708.5 327.9 708.7 330.5 708.9 331.7 709.3 333 709.4 336.9 710 338.1 710.5 338.1 710.9 342 711.2 342 711.7 340.7 712.7 342 712.9 339.4 713.5 343.3 714.1 345.8 714.4 345.8 714.8 343.3 715.6 344.5 716.2 342 716.5 343.3 717.2 340.7 717.7 344.5 718.2 342 718.8 340.7 719.2 338.1 719.7 335.6 720.6 336.9 720.9 339.4 721.2 339.4 721.6 343.3 721.9 344.5 722.6 348.4 723 349.7 723.6 350.9 724.2 354.8 724.8 350.9 725.1 353.5 725.8 357.3 726.1 354.8 726.8 356.1 727.3 358.6 727.4 358.6 727.8 359.9 728.2 356.1 728.5 358.6 728.9 362.5 729.3 366.3 729.3 367.6 729.5 366.3 729.6 366.3 729.7 366.3 729.7 368.9 729.7 371.4 729.8 367.6 730.2 368.9 730.5 370.1 730.9 370.1 731.1 372.7 731.2 375.3 731.3 374 731.6 374 731.9 375.3 731.9 377.8 732 376.5 732.4 376.5 732.8 375.3 733.2 375.3 733.6 384.2 733.6 381.7 733.7 377.8 733.9 376.5 734.3 379.1 734.7 380.4 734.9 380.4 734.9 382.9 735.2 385.5 735.3 386.8 735.5 386.8 735.8 388 736.1 389.3 736.5 389.3 736.9 388 737.3 389.3 737.3 388 737.8 386.8 738 390.6 738.3 389.3 738.5 390.6 739.1 391.9 739.4 391.9 739.5 394.4 739.7 395.7 739.7 397 739.9 395.7 740.2 394.4 740.4 394.4 740.6 395.7 740.7 395.7 740.8 391.9 741.2 397 741.4 398.3 741.5 394.4 741.7 393.2 742.2 395.7 742.6 395.7 742.6 395.7 742.9 397 743 399.6 743.1 400.8 743.3 399.6 743.4 402.1 743.4 403.4 743.5 398.3 743.7 394.4 743.9 395.7 744.2 402.1 744.3 404.7 744.5 404.7 744.9 404.7 745.1 406 745.2 404.7 745.5 403.4 745.6 404.7 745.7 404.7 746 406 746.1 404.7 746.3 406 746.5 404.7 746.7 399.6 746.8 397 746.9 400.8 746.9 400.8 747.2 399.6 747.4 404.7 747.6 402.1 747.9 409.8 747.9 411.1 747.9 411.1 748.1 409.8 748.3 409.8 748.4 420 748.4 416.2 748.5 412.4 748.5 413.6 748.6 412.4 748.7 413.6 748.7 413.6 748.9 416.2 749 414.9 749.1 414.9 749.4 412.4 749.4 413.6 749.5 411.1 749.6 409.8 749.7 409.8 749.8 411.1 750 413.6 750.2 413.6 750.3 412.4 750.3 409.8 750.4 407.2 750.5 408.5 750.7 408.5 750.9 408.5 751.2 407.2 751.4 409.8 751.6 408.5 751.8 409.8 752.1 407.2 752.2 407.2 752.5 403.4 752.7 400.8 752.7 399.6 752.9 404.7 753 400.8 753.2 397 753.3 394.4 753.5 394.4 753.7 391.9 753.7 388 753.7 385.5 753.8 386.8 753.9 384.2 753.9 385.5 754.1 384.2 754.3 385.5 754.5 385.5 754.7 385.5 754.9 381.7 754.9 381.7 755.1 388 755.2 385.5 755.4 381.7 755.7 379.1 755.8 377.8 756 384.2 756.3 386.8 756.6 385.5 756.7 380.4 756.9 381.7 757.2 381.7 757.5 376.5 757.7 375.3 758 371.4 758.1 374 758.2 372.7 758.6 371.4 758.9 372.7 759.1 363.7 759.2 365 759.3 362.5 759.4 367.6 759.6 368.9 759.7 363.7 759.9 366.3 760.2 365 760.4 367.6 760.5 372.7 760.7 379.1 760.9 376.5 761.2 380.4 761.4 377.8 761.7 375.3 762 381.7 762.3 384.2 762.6 382.9 762.8 385.5 763.1 385.5 764 385.5 764.3 388 764.6 388 765 393.2 765.1 394.4 765.2 391.9 765.3 394.4 765.5 391.9 766 393.2 766.5 393.2 766.5 391.9 766.7 391.9 766.9 386.8 767 389.3 767.5 391.9 767.7 395.7 768 393.2 768.2 386.8 768.7 389.3 769 390.6 769.2 389.3 769.4 389.3 769.5 388 769.8 386.8 770.1 385.5 770.3 382.9 770.6 380.4 770.6 380.4 771.1 375.3 771.2 376.5 771.8 379.1 772 372.7 772.3 368.9 772.7 367.6 772.9 366.3 773.3 366.3 773.5 363.7 773.7 365 774.2 372.7 774.7 374 774.9 377.8 775.6 377.8 776.3 379.1 776.6 376.5 776.8 375.3 777.1 375.3 777.7 375.3 778.3 370.1 778.7 371.4 779 366.3 779 365 779.1 366.3 779.1 365 779.2 365 779.2 365 779.3 365 779.3 365 779.6 366.3 780 371.4 780.4 372.7 780.8 375.3 781.2 375.3 781.9 374 782.2 374 782.5 371.4 783 363.7 783.2 366.3 783.4 368.9 783.6 366.3 784.2 366.3 784.4 365 784.8 368.9 785.2 363.7 785.4 365 786 367.6 786.2 366.3 786.8 368.9 787.4 370.1 787.5 372.7 787.8 372.7 787.9 370.1 788.4 366.3 788.8 368.9 789.2 367.6 789.4 371.4 789.6 371.4 789.8 367.6 790.2 368.9 790.7 366.3 791.1 365 791.3 363.7 791.4 354.8 791.4 347.1 791.4 343.3 791.4 326.6 791.4 329.2 791.4 329.2 791.4 330.5 791.4 329.2 791.4 313.8 791.4 317.7 791.4 327.9 791.4 344.5 791.4 334.3 791.4 335.6 791.4 343.3 791.4 335.6 791.4 340.7 791.4 352.2 791.4 354.8 791.4 349.7 791.4 345.8 791.4 348.4 791.4 350.9 791.4 350.9 791.4 354.8 791.4 354.8 791.4 352.2 791.4 353.5 791.4 354.8 791.4 356.1 791.4 354.8 791.4 359.9 791.5 359.9 791.6 361.2 791.7 361.2 792.1 361.2 792.1 357.3 792.1 357.3 792.1 354.8 792.1 356.1 792.2 353.5 792.2 353.5 792.3 354.8 792.4 359.9 792.6 354.8 792.6 358.6 792.7 365 792.9 370.1 793.1 366.3 793.2 367.6 793.5 368.9 793.7 371.4 794 375.3 794.4 368.9 794.5 374 794.5 372.7 794.9 379.1 795 381.7 795.1 389.3 795.2 389.3 795.3 389.3 795.5 390.6 795.7 388 796 386.8 796.1 385.5 796.4 382.9 796.6 385.5 796.8 382.9 796.9 380.4 797.3 379.1 797.7 380.4 797.9 382.9 798.1 384.2 798.4 388 798.5 389.3 798.6 390.6 798.7 391.9 798.8 390.6 799 389.3 799.1 390.6 799.3 391.9 799.4 397 799.7 399.6 800 399.6 800.3 398.3 800.3 395.7 800.5 390.6 800.9 388 801 391.9 801 386.8 801.3 391.9 801.5 391.9 801.8 393.2 802 395.7 802 398.3 802 394.4 802.2 395.7 802.7 395.7 803.2 393.2 803.5 391.9 803.8 391.9 804.1 393.2 804.3 390.6 804.3 388 804.4 386.8 804.9 384.2 805.1 385.5 805.1 388 805.2 389.3 805.7 384.2 805.9 385.5 806 389.3 806.2 386.8 806.7 388 807.2 389.3 807.5 388 808.6 391.9 809 389.3 809.4 390.6 809.8 391.9 810 395.7 810.7 399.6 811.4 399.6 811.6 399.6 811.8 400.8 812.1 402.1 812.2 402.1 813 400.8 813.9 397 814.5 398.3 815 399.6 815.6 398.3 815.8 393.2 816 395.7 816.1 397 816.1 403.4 816.3 398.3 816.6 397 817.1 395.7 817.5 397 818.1 394.4 818.7 394.4 818.9 395.7 819.9 393.2 820.6 394.4 820.9 393.2 821.2 391.9 821.5 389.3 821.7 389.3 822.3 385.5 822.6 388 822.9 386.8 823.7 388 824.1 389.3 824.6 391.9 824.7 393.2 824.9 393.2 825.5 393.2 825.8 395.7 827 394.4 827.6 391.9 828.2 393.2 828.8 394.4 829 395.7 829.2 397 830 397 830.5 390.6 830.9 393.2 831 394.4 831.8 393.2 833 393.2 833.5 393.2 834.2 393.2 834.9 389.3 835.3 385.5 835.4 386.8 836 382.9 836.3 380.4 836.4 380.4 836.6 377.8 836.8 379.1 837.4 379.1 837.6 374 838 374 838.7 377.8 839.3 379.1 839.5 376.5 839.5 375.3 839.6 375.3 839.6 375.3 839.8 374 839.8 374 840.1 370.1 840.6 372.7 840.7 370.1 841.9 371.4 842.8 376.5 843.6 379.1 843.7 375.3 843.7 374 843.9 376.5 844 375.3 844.6 372.7 845.1 374 845.4 374 845.5 372.7 845.7 374 846.7 376.5 847.8 374 848.3 370.1 848.5 371.4 849.6 370.1 850.1 374 850.3 372.7 850.5 368.9 850.6 370.1 851.3 375.3 851.6 374 852.6 375.3 853.2 376.5 853.2 379.1 853.3 376.5 853.4 375.3 854 377.8 854.4 377.8 855.1 377.8 855.5 379.1 856.2 384.2 856.8 386.8 857 382.9 857.5 382.9 857.5 382.9 857.6 382.9 857.6 379.1 857.9 382.9 858.4 384.2 858.7 381.7 859.1 386.8 859.4 388 859.4 390.6 859.8 390.6 860.2 388 860.2 381.7 860.7 381.7 861.1 380.4 861.9 380.4 862.7 382.9 863.3 381.7 864.4 385.5 864.5 385.5 865.1 388 865.5 386.8 866.2 382.9 866.9 384.2 867.4 384.2 868.2 385.5 868.7 386.8 869.3 389.3 869.6 394.4 869.8 394.4 869.9 394.4 870.5 393.2 870.9 393.2 871.1 393.2 871.6 393.2 872 395.7 872.8 395.7 873.4 395.7 873.9 395.7 874.6 394.4 875.2 394.4 875.8 394.4 876.4 393.2 876.7 389.3 877 389.3 877.4 391.9 877.6 393.2 878.5 393.2 878.8 395.7 879.3 393.2 879.7 393.2 880.3 393.2 881.2 394.4 881.8 393.2 882.4 394.4 882.9 394.4 883.5 397 883.5 399.6 884.1 395.7 884.5 398.3 885.3 398.3 885.8 398.3 886.5 398.3 887.1 399.6 887.6 402.1 888.3 403.4 888.8 406 888.9 411.1 888.9 408.5 889.4 406 890 408.5 890.1 409.8 890.5 411.1 890.6 412.4 890.8 407.2 891.2 408.5 891.4 408.5 891.8 407.2 892.4 406 893 408.5 893.3 412.4 893.6 413.6 894.1 413.6 894.4 412.4 894.8 408.5 895.4 407.2 895.6 408.5 896.1 407.2 897.2 411.1 897.8 411.1 897.9 412.4 898.1 409.8 898.4 413.6 898.4 414.9 898.8 413.6 899 414.9 899 416.2 899.3 417.5 899.5 413.6 899.6 416.2 899.8 414.9 900.1 414.9 900.4 417.5 900.7 418.8 900.8 418.8 901.2 418.8 901.2 420 901.5 413.6 901.8 418.8 902.4 418.8 903.2 416.2 903.8 417.5 904.5 418.8 904.9 420 904.9 426.4 904.9 427.7 904.9 427.7 904.9 423.9 905 423.9 905 423.9 905.3 420 905.5 422.6 905.7 421.3 906.7 421.3 907.3 420 907.4 420 907.9 420 908.4 420 909.1 420 909.8 418.8 910.2 420 910.3 420 910.4 420 910.7 421.3 910.9 423.9 911.1 423.9 911.5 421.3 912 421.3 912.4 422.6 912.7 425.2 913 422.6 913.2 422.6 913.3 421.3 913.5 422.6 913.6 422.6 913.8 426.4 913.9 426.4 914 427.7 914.2 429 914.2 429 914.4 429 914.4 430.3 914.9 429 915.1 430.3 915.2 431.6 915.4 431.6 915.6 435.4 915.6 436.7 915.6 435.4 915.8 432.8 916 432.8 916.2 432.8 916.8 434.1 916.8 436.7 916.9 439.2 917 440.5 917.1 439.2 917.4 440.5 917.5 440.5 917.8 439.2 918.4 440.5 918.7 440.5 919.1 439.2 919.5 436.7 919.8 435.4 920.4 434.1 920.8 431.6 921.1 430.3 921.2 426.4 921.5 429 921.7 429 921.9 429 922.3 426.4 922.4 423.9 922.5 418.8 922.7 417.5 922.7 425.2 922.7 430.3 922.7 430.3 922.7 431.6 922.7 430.3 922.7 430.3 922.8 429 922.8 429 922.8 426.4 922.9 426.4 923.1 425.2 923.2 420 923.2 422.6 923.3 422.6 923.3 422.6 923.4 421.3 923.4 420 923.5 421.3 923.8 420 923.9 420 924 420 924.2 418.8 924.2 418.8 924.6 418.8 924.9 417.5 924.9 422.6 925 421.3 925.5 422.6 925.7 423.9 926.5 422.6 927 416.2 927.3 417.5 927.5 414.9 927.9 414.9 928.1 414.9 928.5 412.4 928.7 411.1 929 413.6 929.3 412.4 929.4 411.1 930.1 414.9 930.5 411.1 931 409.8 931.2 407.2 931.4 402.1 931.7 394.4 932 394.4 932.2 390.6 932.3 393.2 932.6 394.4 932.8 397 933 395.7 933.4 394.4 933.4 395.7 933.8 395.7 934 395.7 934 395.7" opacity=".6"/><text x="942" y="472" fill="#d97706" font-size="11" text-anchor="start">13.55</text><text x="942" y="396" fill="#d97706" font-size="11" text-anchor="start">14.14</text><text x="942" y="320" fill="#d97706" font-size="11" text-anchor="start">14.73</text><text x="942" y="244" fill="#d97706" font-size="11" text-anchor="start">15.33</text><text x="942" y="168" fill="#d97706" font-size="11" text-anchor="start">15.92</text><text x="942" y="92" fill="#d97706" font-size="11" text-anchor="start">16.51</text><text x="942" y="80" fill="#d97706" font-size="11" font-weight="600" text-anchor="start">price</text><polygon fill="#16a34a" fill-opacity=".08" points="85.3 468 85.3 261.4 85.3 272.4 145.2 286.1 214.5 303.4 358.6 324.9 365.1 335.9 563.8 282.8 659.2 241.2 739.4 199.7 748.4 210.7 753.3 224.4 791.4 158.2 791.4 169.2 893.6 116.1 931.7 126.9 931.7 468"/><polyline fill="none" stroke="#16a34a" stroke-linejoin="round" stroke-width="2" points="85.3 261.4 85.3 272.4 145.2 286.1 214.5 303.4 358.6 324.9 365.1 335.9 563.8 282.8 659.2 241.2 739.4 199.7 748.4 210.7 753.3 224.4 791.4 158.2 791.4 169.2 893.6 116.1 931.7 126.9"/><line x1="88" x2="110" y1="102" y2="102" stroke="#16a34a" stroke-width="2.5"/><text x="116" y="106" fill="#374151" font-size="11.5">equity</text><line x1="88" x2="110" y1="118" y2="118" stroke="#d97706" stroke-width="2.5" opacity=".8"/><text x="116" y="122" fill="#374151" font-size="11.5">price</text><text x="78" y="502" fill="#6b7280" font-size="12" text-anchor="start">2026-06-05</text><text x="934" y="502" fill="#6b7280" font-size="12" text-anchor="end">2026-06-05</text></svg>