<svg xmlns="http://www.w3.org/2000/svg" width="1100" height="560" font-family="ui-sans-serif, system-ui, sans-serif" viewBox="0 0 1100 560"><rect width="1100" height="560" fill="#fff"/><text x="80" y="28" fill="#111827" font-size="18" font-weight="700">Zone Recovery — NOKUSDT fee-tier comparison (best setting)</text><text x="80" y="48" fill="#6b7280" font-size="12.5">lev 20 · ratio 4 · gap 20% · maxSteps 4 · maxDD 60% · random · equity per fee tier vip 0..9</text><text x="80" y="68" fill="#1d4ed8" font-size="12.5" font-weight="600">USDT margin · BNB −10%</text><line x1="80" x2="932" y1="508" y2="508" stroke="#e5e7eb" stroke-width="1"/><text x="70" y="512" fill="#6b7280" font-size="12" text-anchor="end">0.00</text><line x1="80" x2="932" y1="424" y2="424" stroke="#e5e7eb" stroke-width="1"/><text x="70" y="428" fill="#6b7280" font-size="12" text-anchor="end">3678</text><line x1="80" x2="932" y1="340" y2="340" stroke="#e5e7eb" stroke-width="1"/><text x="70" y="344" fill="#6b7280" font-size="12" text-anchor="end">7356</text><line x1="80" x2="932" y1="256" y2="256" stroke="#e5e7eb" stroke-width="1"/><text x="70" y="260" fill="#6b7280" font-size="12" text-anchor="end">11034</text><line x1="80" x2="932" y1="172" y2="172" stroke="#e5e7eb" stroke-width="1"/><text x="70" y="176" fill="#6b7280" font-size="12" text-anchor="end">14712</text><line x1="80" x2="932" y1="88" y2="88" stroke="#e5e7eb" stroke-width="1"/><text x="70" y="92" fill="#6b7280" font-size="12" text-anchor="end">18390</text><line x1="80" x2="932" y1="279.6" y2="279.6" stroke="#9ca3af" stroke-dasharray="6 4" stroke-width="1.5"/><polyline fill="none" stroke="#2563eb" stroke-linejoin="round" stroke-width="1.8" points="80 279.6 80 292.5 140.3 308.6 210 328.7 355.1 353.8 361.7 366.7 561.6 308.9 657.7 263.6 738.4 218.3 747.5 231.2 752.5 247.3 790.8 175.2 790.8 188 893.7 130.3 932 142.9" opacity=".9"/><polyline fill="none" stroke="#dc2626" stroke-linejoin="round" stroke-width="1.8" points="80 279.6 80 292.5 140.3 308.6 210 328.7 355.1 353.8 361.7 366.7 561.6 308.9 657.7 263.6 738.4 218.3 747.5 231.2 752.5 247.3 790.8 175.2 790.8 188 893.7 130.3 932 142.9" opacity=".9"/><polyline fill="none" stroke="#16a34a" stroke-linejoin="round" stroke-width="1.8" points="80 279.6 80 292.3 140.3 308.1 210 327.9 355.1 352.6 361.7 365.3 561.6 307.2 657.7 261.7 738.4 216.2 747.5 228.9 752.5 244.7 790.8 172.3 790.8 184.9 893.7 126.9 932 139.3" opacity=".9"/><polyline fill="none" stroke="#d97706" stroke-linejoin="round" stroke-width="1.8" points="80 279.6 80 292.1 140.3 307.7 210 327.2 355.1 351.6 361.7 364.1 561.6 305.9 657.7 260.2 738.4 214.6 747.5 227.1 752.5 242.7 790.8 169.9 790.8 182.4 893.7 124.2 932 136.4" opacity=".9"/><polyline fill="none" stroke="#7c3aed" stroke-linejoin="round" stroke-width="1.8" points="80 279.6 80 292.1 140.3 307.6 210 327.1 355.1 351.4 361.7 363.8 561.6 305.5 657.7 259.8 738.4 214.1 747.5 226.6 752.5 242.1 790.8 169.3 790.8 181.8 893.7 123.5 932 135.7" opacity=".9"/><polyline fill="none" stroke="#0891b2" stroke-linejoin="round" stroke-width="1.8" points="80 279.6 80 292 140.3 307.5 210 326.8 355.1 351 361.7 363.4 561.6 305 657.7 259.3 738.4 213.5 747.5 225.9 752.5 241.4 790.8 168.5 790.8 180.9 893.7 122.5 932 134.6" opacity=".9"/><polyline fill="none" stroke="#db2777" stroke-linejoin="round" stroke-width="1.8" points="80 279.6 80 292 140.3 307.4 210 326.7 355.1 350.8 361.7 363.1 561.6 304.7 657.7 258.9 738.4 213.1 747.5 225.4 752.5 240.9 790.8 167.9 790.8 180.2 893.7 121.8 932 133.9" opacity=".9"/><polyline fill="none" stroke="#65a30d" stroke-linejoin="round" stroke-width="1.8" points="80 279.6 80 291.9 140.3 307.2 210 326.4 355.1 350.4 361.7 362.7 561.6 304.2 657.7 258.3 738.4 212.5 747.5 224.7 752.5 240.1 790.8 167 790.8 179.3 893.7 120.8 932 132.8" opacity=".9"/><polyline fill="none" stroke="#475569" stroke-linejoin="round" stroke-width="1.8" points="80 279.6 80 291.9 140.3 307.1 210 326.3 355.1 350.2 361.7 362.4 561.6 303.8 657.7 257.9 738.4 212 747.5 224.3 752.5 239.6 790.8 166.4 790.8 178.7 893.7 120.1 932 132.1" opacity=".9"/><polyline fill="none" stroke="#ea580c" stroke-linejoin="round" stroke-width="1.8" points="80 279.6 80 291.8 140.3 307 210 326 355.1 349.8 361.7 362 561.6 303.3 657.7 257.4 738.4 211.4 747.5 223.6 752.5 238.8 790.8 165.6 790.8 177.7 893.7 119.1 932 131" opacity=".9"/><line x1="950" x2="972" y1="94" y2="94" stroke="#ea580c" stroke-width="3"/><text x="980" y="98" fill="#374151" font-size="12.5">vip 9 16505</text><line x1="950" x2="972" y1="116" y2="116" stroke="#475569" stroke-width="3"/><text x="980" y="120" fill="#374151" font-size="12.5">vip 8 16458</text><line x1="950" x2="972" y1="138" y2="138" stroke="#65a30d" stroke-width="3"/><text x="980" y="142" fill="#374151" font-size="12.5">vip 7 16427</text><line x1="950" x2="972" y1="160" y2="160" stroke="#db2777" stroke-width="3"/><text x="980" y="164" fill="#374151" font-size="12.5">vip 6 16380</text><line x1="950" x2="972" y1="182" y2="182" stroke="#0891b2" stroke-width="3"/><text x="980" y="186" fill="#374151" font-size="12.5">vip 5 16348</text><line x1="950" x2="972" y1="204" y2="204" stroke="#7c3aed" stroke-width="3"/><text x="980" y="208" fill="#374151" font-size="12.5">vip 4 16301</text><line x1="950" x2="972" y1="226" y2="226" stroke="#d97706" stroke-width="3"/><text x="980" y="230" fill="#374151" font-size="12.5">vip 3 16270</text><line x1="950" x2="972" y1="248" y2="248" stroke="#16a34a" stroke-width="3"/><text x="980" y="252" fill="#374151" font-size="12.5">vip 2 16144</text><line x1="950" x2="972" y1="270" y2="270" stroke="#2563eb" stroke-width="3"/><text x="980" y="274" fill="#374151" font-size="12.5">vip 0 15987</text><line x1="950" x2="972" y1="292" y2="292" stroke="#dc2626" stroke-width="3"/><text x="980" y="296" fill="#374151" font-size="12.5">vip 1 15987</text><text x="80" y="542" fill="#6b7280" font-size="12" text-anchor="start">2026-06-05</text><text x="932" y="542" fill="#6b7280" font-size="12" text-anchor="end">2026-06-05</text></svg>