<?xml version="1.0" encoding="UTF-8"?>
<svg xmlns="http://www.w3.org/2000/svg" width="1000" height="520" viewBox="0 0 1000 520" font-family="ui-sans-serif, system-ui, sans-serif">
  <rect width="1000" height="520" fill="#ffffff"/>
  <text x="78" y="28" font-size="18" font-weight="700" fill="#111827">Zone Recovery — ORDIUSDC best setting (equity / PnL)</text>
  <text x="78" y="48" font-size="12.5" fill="#6b7280">lev 4 · ratio 4 · gap 20% · maxSteps 4 · maxDD 60% · random · vip 9  ·  20 series, 90.0% win · vol $20549587 ($20549672/day) · fees $1738</text>
  <text x="78" y="68" font-size="12.5" font-weight="600" fill="#1d4ed8">USDC · BNB −10% · taker 0.0085%</text>
  <text x="934" y="28" text-anchor="end" font-size="18" font-weight="700" fill="#16a34a">+472011 USDT  (+4720.11%)</text>
  <line x1="78" y1="468.0" x2="934" y2="468.0" stroke="#e5e7eb" stroke-width="1"/><text x="68" y="472.0" text-anchor="end" font-size="12" fill="#6b7280">0.00</text><line x1="78" y1="392.0" x2="934" y2="392.0" stroke="#e5e7eb" stroke-width="1"/><text x="68" y="396.0" text-anchor="end" font-size="12" fill="#6b7280">104114</text><line x1="78" y1="316.0" x2="934" y2="316.0" stroke="#e5e7eb" stroke-width="1"/><text x="68" y="320.0" text-anchor="end" font-size="12" fill="#6b7280">208229</text><line x1="78" y1="240.0" x2="934" y2="240.0" stroke="#e5e7eb" stroke-width="1"/><text x="68" y="244.0" text-anchor="end" font-size="12" fill="#6b7280">312343</text><line x1="78" y1="164.0" x2="934" y2="164.0" stroke="#e5e7eb" stroke-width="1"/><text x="68" y="168.0" text-anchor="end" font-size="12" fill="#6b7280">416458</text><line x1="78" y1="88.0" x2="934" y2="88.0" stroke="#e5e7eb" stroke-width="1"/><text x="68" y="92.0" text-anchor="end" font-size="12" fill="#6b7280">520572</text>
  <line x1="78" y1="460.7" x2="934" y2="460.7" stroke="#9ca3af" stroke-width="1.5" stroke-dasharray="6 4"/><text x="934" y="454.7" text-anchor="end" font-size="11" fill="#6b7280">start 10000</text>
  <polyline points="78.0,126.6 79.4,126.2 80.4,125.9 81.3,126.2 82.5,126.2 83.4,126.4 84.8,126.4 86.7,126.4 88.2,126.1 89.2,125.6 91.2,125.9 93.2,126.2 94.3,125.4 96.5,125.4 97.4,125.6 97.7,125.7 99.0,125.9 99.9,125.7 101.0,124.8 101.8,124.2 102.9,124.3 104.7,125.0 106.8,126.1 108.0,126.1 108.8,125.5 109.9,125.0 111.1,125.1 112.7,125.7 113.5,125.0 114.4,124.9 115.3,124.4 116.3,123.8 117.0,123.2 117.5,122.8 118.2,123.9 119.0,124.0 120.0,123.5 120.6,123.1 122.1,123.0 123.5,123.3 124.9,123.0 126.2,122.6 126.9,122.9 128.6,123.0 129.9,123.4 131.0,122.6 132.3,123.4 133.1,123.6 134.5,123.3 136.4,124.2 137.6,124.1 138.8,124.5 139.7,124.1 141.1,124.7 142.2,124.7 143.0,124.7 144.1,125.0 145.0,123.8 146.0,124.4 146.9,124.4 148.2,123.9 149.2,123.5 149.7,122.5 150.0,122.4 150.3,122.5 150.8,122.9 151.3,123.4 151.9,123.3 152.9,123.9 153.9,124.6 154.9,124.6 155.3,123.9 156.2,123.5 156.8,123.2 157.7,123.1 158.9,123.3 159.7,123.2 160.9,121.7 161.7,122.0 162.1,122.1 163.1,122.4 163.9,122.8 165.8,123.1 167.5,123.3 168.5,123.8 169.4,124.4 170.8,124.5 172.3,124.4 173.6,124.2 174.7,123.9 176.1,123.4 177.8,124.0 178.9,123.8 179.7,123.8 181.1,125.2 182.3,124.6 184.0,124.9 185.7,125.5 186.7,125.9 187.8,126.8 188.4,127.0 189.8,127.0 190.8,127.5 191.6,127.6 192.9,126.6 193.9,126.2 195.0,126.2 195.7,125.4 196.9,124.1 197.9,123.6 198.3,123.6 198.9,123.7 199.9,123.0 200.5,122.5 200.9,122.2 201.4,122.2 201.7,121.4 202.1,120.8 202.5,120.0 203.0,119.2 203.2,118.2 203.2,118.4 203.5,118.5 203.9,118.0 203.9,118.7 204.0,117.9 204.3,117.8 204.5,118.4 204.8,117.9 205.0,117.9 205.3,118.3 205.6,117.7 205.9,117.5 206.3,117.1 206.4,118.0 206.8,117.8 207.1,118.1 207.5,118.0 208.1,118.3 208.5,118.0 209.1,118.6 209.2,118.0 209.8,118.3 210.2,118.4 210.7,118.2 211.4,117.6 212.0,117.1 212.4,116.9 213.2,116.1 213.9,116.6 214.9,116.8 215.7,117.5 216.3,118.6 216.8,118.2 217.6,119.3 218.1,120.1 218.5,120.4 219.2,120.5 219.9,120.0 220.7,119.9 221.1,119.8 221.6,119.8 222.2,120.7 222.6,120.1 223.1,120.1 223.6,120.5 224.2,120.1 225.0,119.6 225.6,119.2 226.4,120.0 227.2,121.2 228.2,120.9 228.7,120.7 229.5,121.0 230.4,121.5 230.9,121.8 232.0,121.6 232.8,122.5 233.4,121.9 234.4,121.7 235.4,122.1 235.9,122.9 236.6,122.6 237.3,122.8 238.3,122.6 239.2,122.5 239.9,122.1 240.5,122.7 241.1,122.7 241.9,123.5 242.4,124.0 243.1,123.8 243.9,124.0 244.7,123.7 245.6,123.8 246.5,123.4 247.5,123.3 248.5,123.7 249.5,124.1 250.8,123.7 251.9,123.8 252.9,123.2 254.6,123.6 256.3,123.1 257.0,123.1 258.0,123.4 259.0,124.7 259.6,125.2 260.3,125.8 260.8,124.8 261.4,124.7 262.5,125.2 263.6,125.3 264.3,125.0 265.8,124.6 267.0,124.4 268.4,124.6 269.9,124.7 270.6,124.1 271.1,124.1 271.9,123.7 272.8,123.7 273.9,123.7 275.0,124.5 275.9,125.3 276.7,125.1 277.9,125.5 278.9,125.2 279.4,124.4 279.6,123.5 279.7,122.9 279.9,122.8 280.2,123.0 281.0,122.7 281.4,121.7 282.2,121.7 283.3,121.2 283.8,120.4 284.6,121.0 285.3,120.4 285.9,120.1 286.6,119.6 287.0,119.8 287.9,119.6 288.5,119.5 289.1,119.1 289.8,119.5 290.7,119.3 291.8,119.6 292.4,118.9 292.9,119.0 293.5,119.0 293.8,118.8 294.3,118.5 295.0,118.8 295.9,119.0 296.4,119.3 297.3,119.4 298.1,119.7 299.1,120.2 299.6,119.5 300.8,119.4 301.4,118.9 302.4,119.8 303.1,119.7 304.2,120.4 305.2,120.4 306.0,120.7 307.5,121.1 307.5,121.6 308.1,121.9 308.8,121.3 309.8,122.0 310.2,121.4 310.7,121.2 311.2,121.9 311.7,122.5 312.4,122.0 313.1,121.8 313.5,122.4 313.9,123.2 314.1,122.9 314.3,123.3 314.6,123.6 314.9,123.6 315.1,123.7 315.6,123.5 316.1,122.9 316.7,122.3 317.6,122.5 318.1,122.9 318.5,123.6 319.4,122.9 319.7,122.2 320.4,122.9 321.1,123.3 321.6,123.6 322.1,124.1 322.4,124.8 322.6,125.2 322.9,124.8 323.2,124.8 323.9,124.6 324.6,124.3 325.3,124.4 326.2,124.2 326.8,124.1 327.7,124.2 328.3,124.5 328.8,125.1 329.1,125.1 329.4,125.0 330.2,125.2 330.7,125.0 331.4,125.5 332.1,125.9 332.7,126.3 333.1,125.7 333.8,125.0 334.8,124.8 335.2,124.5 336.0,124.6 336.6,124.5 337.0,125.4 337.3,125.4 337.6,125.8 338.1,125.9 338.6,126.4 339.2,126.0 339.8,125.4 340.7,125.0 341.0,125.5 341.7,125.8 342.4,125.8 343.1,126.0 343.8,125.3 344.4,124.9 345.3,124.6 346.1,125.0 346.5,125.7 347.3,126.1 347.9,126.1 348.5,125.5 348.9,125.2 349.7,124.6 350.5,124.6 351.4,124.2 352.4,123.9 353.4,124.2 354.5,124.5 355.1,124.7 355.3,125.2 356.1,125.1 356.9,125.5 357.7,125.1 358.5,126.0 358.8,125.4 359.7,124.9 360.4,124.8 361.4,125.0 362.2,125.6 362.8,125.9 363.4,125.4 363.9,125.4 364.3,124.8 364.9,124.0 365.3,124.2 366.0,124.9 366.7,125.9 367.1,125.2 367.6,125.0 368.1,125.4 368.5,125.1 369.4,124.6 370.0,124.1 370.6,124.3 371.2,123.9 371.5,123.5 372.0,123.8 372.8,122.7 373.1,121.9 373.3,121.5 373.6,121.4 374.1,121.0 374.5,121.5 375.0,122.5 375.6,122.5 376.3,123.4 377.0,123.9 377.5,123.8 378.5,123.1 379.2,123.5 380.0,122.9 381.4,123.2 382.2,123.1 382.8,124.2 383.6,124.2 384.5,123.8 385.5,124.4 386.3,124.2 387.2,124.1 388.2,124.6 389.5,124.6 390.1,123.5 390.7,123.4 391.7,123.3 392.5,123.1 393.2,122.6 394.0,122.4 394.7,122.3 395.7,122.3 396.9,121.6 397.8,120.3 398.0,120.4 398.9,120.4 399.4,120.0 399.6,120.5 399.9,121.3 400.2,121.0 400.6,121.3 401.1,121.5 401.2,121.5 401.6,121.5 402.2,122.0 402.6,121.4 403.1,122.1 403.6,121.7 404.4,122.2 405.6,121.8 406.3,120.7 407.0,121.0 407.9,121.2 409.0,121.5 410.0,121.6 411.1,122.0 412.3,121.7 413.5,121.4 414.5,120.4 415.2,119.6 415.7,118.6 416.3,118.4 416.9,118.6 417.2,119.1 417.5,118.5 418.0,118.8 418.4,118.4 419.0,118.7 419.9,118.7 420.7,119.1 421.9,119.6 422.4,120.3 423.4,120.3 424.1,120.4 425.2,120.9 425.4,121.3 425.6,121.1 426.3,120.4 427.5,120.6 428.4,121.2 428.8,122.0 429.0,122.2 429.3,121.9 429.7,121.8 430.1,121.6 430.6,122.0 431.4,122.0 431.8,121.6 432.6,122.1 433.8,122.0 434.7,122.5 435.4,121.5 436.1,121.3 437.4,121.2 438.9,120.4 440.9,120.7 443.4,120.9 444.6,120.9 445.4,120.3 446.7,120.0 447.8,119.6 448.7,120.2 449.8,120.4 451.1,120.4 452.5,120.7 453.3,120.0 453.8,120.8 454.7,119.7 456.3,120.9 457.3,120.2 458.3,120.8 459.7,121.0 460.8,119.9 462.3,119.8 463.5,119.9 464.7,118.7 466.0,118.6 467.1,119.1 468.8,118.6 470.4,118.5 471.2,118.5 472.1,118.7 473.0,118.4 473.6,118.0 474.6,118.8 475.4,118.2 476.5,118.5 477.4,118.9 478.6,118.9 480.0,119.0 481.1,118.8 482.0,119.0 482.9,118.9 484.8,119.7 486.2,119.6 487.2,119.2 488.2,118.6 488.7,118.9 489.5,118.2 491.0,118.2 492.4,117.6 493.6,118.0 495.4,118.3 496.7,118.4 498.7,118.5 499.7,118.4 501.0,117.4 501.8,116.7 503.2,116.7 504.5,117.0 505.0,116.8 505.5,117.1 506.0,117.3 506.5,117.6 507.0,116.8 508.1,116.3 509.3,116.2 510.1,116.0 511.0,115.3 511.6,114.7 512.2,116.2 513.1,116.6 513.8,116.4 514.8,116.4 516.4,116.3 517.7,115.6 519.7,116.2 521.5,116.3 522.6,116.4 523.5,117.1 524.8,117.3 525.1,117.5 525.8,117.3 526.7,117.0 527.3,116.9 528.5,117.6 529.1,118.7 529.8,118.0 530.3,117.8 531.3,117.9 532.2,118.4 532.4,117.9 532.9,118.2 534.8,118.4 536.1,118.3 536.5,118.4 537.0,117.4 538.2,117.5 539.6,117.5 541.3,117.1 542.2,117.1 542.9,117.4 543.8,116.3 544.2,116.2 544.5,115.8 544.9,116.1 545.1,115.6 545.8,114.9 546.5,114.7 546.9,114.4 547.4,115.6 547.6,115.4 547.8,116.2 548.0,116.7 548.1,116.4 548.4,116.2 549.3,116.0 550.2,116.0 550.3,116.9 550.3,117.2 550.3,117.6 550.4,117.5 550.6,117.6 550.7,117.3 551.0,117.3 551.5,118.0 551.8,117.8 552.3,117.4 553.0,116.9 553.6,116.5 554.4,116.5 555.0,116.8 555.9,116.7 556.7,116.7 557.3,116.3 557.5,115.9 558.1,115.9 558.8,116.3 559.5,116.3 559.9,116.6 560.1,117.1 560.4,116.8 560.6,116.6 560.9,117.2 561.2,117.9 561.4,117.9 561.8,117.2 562.2,116.7 562.6,116.8 562.8,117.1 563.1,117.6 563.4,118.3 563.6,117.8 564.0,117.5 564.5,116.7 564.9,116.1 565.2,116.3 565.5,116.6 566.1,117.0 566.4,117.0 566.7,117.0 566.9,116.7 567.3,116.7 567.6,117.4 568.0,117.5 568.7,118.0 569.1,117.6 569.6,117.8 570.1,117.9 570.3,117.8 570.6,118.1 571.0,118.9 571.5,119.6 571.6,119.6 571.9,119.9 572.3,119.9 572.7,119.7 573.2,119.5 573.8,120.1 574.0,120.3 574.3,120.4 574.9,120.3 575.5,120.0 576.1,119.3 576.6,118.9 577.4,118.4 577.7,118.4 578.2,119.2 578.4,119.8 578.7,119.0 579.1,118.4 579.4,118.8 580.0,118.0 580.9,118.5 581.5,118.3 582.0,118.0 582.5,118.5 583.3,118.8 584.2,118.8 585.1,119.2 585.7,119.7 586.1,119.9 586.4,119.4 586.9,120.0 587.2,120.4 587.6,120.9 587.8,121.5 588.0,121.6 588.1,121.4 588.3,121.0 588.8,121.7 589.1,121.4 589.4,121.9 589.7,121.1 590.2,120.7 590.6,121.0 591.1,121.5 591.5,121.9 592.2,121.7 592.6,121.7 593.3,121.7 593.8,121.8 594.3,122.1 594.9,122.8 595.4,122.8 595.8,121.8 596.3,121.7 596.7,121.9 597.3,122.0 598.0,121.6 598.7,121.8 599.3,122.5 600.4,122.2 601.3,122.2 601.9,122.1 602.5,122.9 603.0,123.0 603.2,122.3 604.1,122.3 604.7,122.8 605.2,123.6 605.8,122.6 607.0,122.0 608.0,121.7 608.6,122.3 609.5,122.2 610.3,122.1 611.2,122.5 611.7,123.0 611.8,124.3 611.8,125.7 611.9,125.1 611.9,124.6 612.0,125.5 612.0,126.0 612.0,126.0 612.0,125.4 612.1,125.7 612.2,126.8 612.3,127.5 612.3,129.1 612.3,127.9 612.4,127.9 612.5,127.0 612.5,126.3 612.5,126.4 612.6,126.8 612.6,127.3 612.7,127.3 612.7,126.4 612.7,126.7 612.8,126.7 612.9,127.4 612.9,127.7 613.0,127.7 613.1,127.1 613.2,127.2 613.2,127.3 613.3,127.5 613.4,128.2 613.4,128.3 613.5,128.3 613.6,129.3 613.6,129.2 613.7,128.4 613.7,128.3 613.8,129.5 613.8,130.1 613.9,129.3 614.0,129.9 614.0,130.7 614.1,129.9 614.1,131.3 614.2,130.3 614.2,130.6 614.3,130.4 614.3,131.0 614.4,131.3 614.4,131.6 614.5,131.1 614.5,131.8 614.6,130.7 614.6,130.7 614.7,131.0 614.7,130.9 614.8,130.0 614.8,130.3 614.9,130.4 614.9,130.6 614.9,129.7 615.0,129.3 615.0,130.2 615.1,129.8 615.1,130.6 615.2,130.7 615.3,130.0 615.4,130.1 615.4,131.2 615.5,131.2 615.5,131.6 615.6,131.9 615.6,132.5 615.6,132.8 615.7,132.4 615.7,132.0 615.8,132.4 615.8,132.3 615.8,131.6 615.9,131.1 616.0,131.5 616.1,131.8 616.2,131.7 616.2,131.3 616.3,131.6 616.4,132.1 616.4,131.1 616.5,131.2 616.6,130.4 616.7,130.7 616.7,131.6 616.8,131.7 616.9,131.6 616.9,131.1 617.0,130.4 617.1,129.5 617.1,130.7 617.2,130.8 617.3,130.9 617.4,131.0 617.4,130.7 617.5,130.3 617.6,130.0 617.8,129.6 617.9,129.9 618.0,129.6 618.1,130.2 618.3,130.4 618.4,130.8 618.5,130.2 618.6,130.9 618.8,130.8 619.0,130.8 619.1,130.2 619.2,129.7 619.3,129.2 619.4,129.5 619.6,128.7 619.7,128.6 620.0,129.1 620.2,129.0 620.4,129.2 620.7,129.0 621.0,128.7 621.1,128.4 621.4,128.3 621.6,128.7 621.9,129.3 622.2,128.7 622.4,128.4 622.6,128.7 622.7,129.5 623.0,129.4 623.1,130.0 623.3,130.5 623.5,130.7 623.6,131.5 623.6,131.2 623.7,130.7 623.9,131.3 624.1,131.4 624.3,131.1 624.5,131.6 624.5,131.6 624.7,131.5 625.0,131.9 625.0,132.0 625.1,131.2 625.2,131.6 625.4,132.4 625.5,131.6 625.6,132.1 625.7,132.5 625.8,132.5 625.9,132.6 625.9,133.5 625.9,134.6 626.0,134.4 626.0,134.9 626.1,134.4 626.1,134.0 626.2,134.5 626.3,134.5 626.3,133.7 626.4,133.6 626.6,133.0 626.7,133.2 626.9,133.9 627.0,133.8 627.1,134.3 627.1,135.4 627.2,135.3 627.2,134.7 627.3,134.7 627.4,135.1 627.4,134.8 627.5,134.5 627.6,134.8 627.7,134.9 627.7,135.7 627.8,136.3 627.9,135.4 627.9,135.1 628.0,135.4 628.0,136.1 628.1,135.7 628.3,135.8 628.3,136.0 628.4,135.3 628.5,134.7 628.5,134.4 628.6,135.0 628.7,135.7 628.8,135.7 628.9,135.9 629.0,136.6 629.1,136.4 629.1,136.2 629.2,136.2 629.3,135.3 629.4,134.8 629.6,134.0 629.8,134.6 629.9,134.7 630.0,135.0 630.2,135.6 630.4,135.5 630.6,136.1 630.8,136.5 630.9,136.8 630.9,136.9 631.0,137.0 631.1,137.9 631.2,138.6 631.3,139.4 631.3,140.3 631.3,139.8 631.4,140.6 631.4,139.9 631.4,139.9 631.5,139.3 631.5,139.2 631.6,139.8 631.6,141.1 631.7,141.6 631.7,144.4 631.8,143.1 631.8,142.0 631.8,143.0 631.9,144.1 631.9,145.4 631.9,145.5 631.9,146.2 631.9,145.8 632.0,146.3 632.0,144.6 632.0,144.1 632.1,143.0 632.1,141.9 632.1,142.4 632.2,142.0 632.2,142.1 632.2,142.7 632.3,142.4 632.3,142.4 632.4,143.0 632.4,142.5 632.5,142.7 632.5,143.8 632.6,144.0 632.6,144.2 632.6,144.1 632.7,143.5 632.7,143.4 632.7,143.4 632.8,142.7 632.8,142.6 632.8,143.1 632.8,143.4 632.9,143.8 632.9,143.5 633.0,143.0 633.0,143.7 633.1,143.7 633.1,144.0 633.2,143.4 633.2,144.1 633.3,143.5 633.3,143.8 633.3,144.1 633.4,144.6 633.4,145.1 633.4,145.5 633.4,145.7 633.5,145.3 633.5,144.5 633.6,145.0 633.6,145.2 633.6,146.1 633.6,146.8 633.7,146.9 633.7,146.8 633.7,147.1 633.7,146.7 633.7,146.2 633.8,146.6 633.8,146.3 633.8,145.5 633.8,144.4 633.9,144.7 633.9,144.7 633.9,144.7 634.0,144.4 634.0,144.0 634.1,143.0 634.2,143.3 634.3,143.5 634.3,144.5 634.4,144.2 634.5,144.4 634.5,144.1 634.5,143.9 634.6,143.6 634.7,143.5 634.8,144.2 634.8,143.8 634.9,143.8 635.0,143.1 635.1,143.6 635.1,143.0 635.2,142.6 635.3,142.5 635.3,142.3 635.4,142.0 635.5,141.8 635.6,141.7 635.6,141.9 635.7,142.3 635.7,141.9 635.8,141.4 635.8,141.5 635.9,141.5 636.0,142.2 636.0,142.8 636.1,142.4 636.2,142.9 636.2,143.0 636.3,142.7 636.4,142.7 636.4,141.9 636.5,142.1 636.6,142.4 636.7,142.7 636.8,143.1 636.9,143.0 637.0,143.7 637.1,143.8 637.2,144.4 637.3,144.7 637.4,144.3 637.4,144.9 637.5,144.2 637.7,143.4 637.8,143.2 638.0,142.9 638.0,143.2 638.1,143.8 638.3,143.5 638.4,143.3 638.5,142.9 638.6,142.6 638.7,142.2 638.9,142.4 639.0,142.0 639.2,141.4 639.3,141.4 639.5,141.0 639.6,140.7 639.8,141.0 640.0,141.9 640.2,142.2 640.4,142.6 640.4,142.1 640.5,141.5 640.7,142.0 640.8,142.5 641.0,142.6 641.2,142.9 641.3,143.4 641.6,143.6 641.7,142.9 641.8,143.0 642.0,143.3 642.2,143.5 642.3,144.0 642.5,143.8 642.8,143.5 643.0,143.9 643.1,143.8 643.3,143.4 643.5,143.9 643.6,143.1 643.9,144.1 644.0,144.3 644.1,144.4 644.3,144.2 644.5,144.4 644.7,144.3 645.0,144.6 645.2,144.7 645.4,144.7 645.7,144.9 645.8,145.8 645.9,145.6 646.1,145.8 646.3,146.0 646.5,146.6 646.8,146.2 647.0,146.3 647.1,146.4 647.5,146.3 647.7,146.3 647.9,145.8 648.1,145.2 648.3,145.9 648.6,146.9 648.7,146.6 648.8,147.2 648.9,147.8 648.9,148.5 649.0,147.9 649.2,148.0 649.3,148.5 649.5,148.5 649.6,148.3 649.7,148.5 649.8,149.0 649.9,148.0 650.0,147.9 650.1,148.1 650.3,147.6 650.4,148.3 650.6,147.8 650.7,147.7 650.8,147.2 651.0,147.4 651.1,148.0 651.3,148.4 651.5,147.7 651.6,147.4 651.7,147.4 651.9,146.6 652.0,146.5 652.1,146.3 652.3,146.2 652.4,146.0 652.5,145.3 652.7,145.3 652.8,145.5 653.1,145.3 653.3,145.2 653.5,144.7 653.7,143.8 654.1,143.7 654.3,143.9 654.6,144.1 654.7,144.6 654.9,145.1 655.1,145.5 655.4,145.5 655.7,145.1 656.0,144.9 656.2,145.6 656.5,145.5 656.8,145.3 657.1,145.0 657.5,145.3 657.7,145.6 657.9,145.6 658.2,145.8 658.4,145.9 658.7,145.5 658.9,145.8 659.2,146.3 659.4,145.9 660.0,145.9 660.2,145.3 660.5,145.1 661.0,144.8 661.3,145.7 661.5,144.8 661.9,144.6 662.3,144.5 662.7,143.1 663.0,143.1 663.3,142.6 663.6,143.1 664.2,143.1 664.5,142.8 664.9,143.1 665.5,143.0 665.9,143.5 666.5,144.2 666.7,144.0 667.1,144.2 667.4,144.7 667.7,143.5 668.1,142.4 668.4,142.5 668.6,141.7 668.9,142.4 669.1,142.7 669.5,142.7 669.9,142.9 670.2,142.3 670.3,141.7 670.6,141.2 670.9,141.1 671.4,141.4 671.9,142.1 672.4,141.5 672.7,141.8 673.1,142.3 673.5,142.9 674.1,142.8 674.6,143.7 675.1,144.3 675.5,144.7 675.8,144.6 676.5,144.8 676.8,144.2 677.3,145.0 677.6,145.6 678.0,145.3 678.6,146.1 679.1,145.4 679.8,145.0 680.3,145.4 680.9,145.7 681.2,146.1 681.7,145.9 682.2,145.5 682.5,145.8 683.1,146.1 683.8,145.8 684.5,145.4 684.7,144.6 685.1,145.3 685.7,145.2 686.4,145.6 686.7,145.7 687.1,145.8 687.4,146.6 687.5,146.3 687.8,146.6 688.2,146.0 688.7,145.7 689.1,146.8 689.5,145.9 690.1,146.2 690.6,146.3 691.2,146.3 691.5,144.9 691.8,144.7 692.1,144.9 692.8,146.0 693.3,146.2 693.5,146.0 693.8,146.1 694.1,145.8 694.5,145.2 694.9,145.5 695.3,145.6 695.6,145.7 696.3,145.8 696.8,146.8 697.2,146.3 697.9,145.8 698.3,144.9 699.0,144.9 699.6,145.5 700.2,145.7 700.9,145.2 701.6,144.7 702.1,144.7 702.4,144.4 703.0,144.3 703.4,144.6 703.9,145.4 704.3,145.0 704.7,145.3 705.2,145.6 705.6,146.1 705.9,146.0 706.3,146.7 706.7,146.8 706.8,147.9 706.9,148.0 707.1,148.3 707.5,148.4 707.8,148.7 708.0,148.9 708.2,148.9 708.2,149.7 708.3,149.8 708.5,149.3 708.7,149.2 709.0,148.6 709.4,148.5 709.7,148.8 709.9,148.6 710.3,149.2 710.5,148.9 710.9,148.7 711.2,148.5 711.4,149.0 711.5,149.3 711.6,149.4 711.7,150.3 711.8,150.1 711.9,150.2 711.9,150.7 712.0,151.0 712.0,151.5 712.1,151.7 712.1,151.0 712.2,150.8 712.3,150.1 712.4,150.3 712.6,149.7 712.8,149.8 713.0,149.3 713.2,148.7 713.4,149.3 713.6,149.5 713.8,149.8 714.0,149.4 714.3,149.7 714.5,149.6 714.8,149.7 715.2,149.4 715.5,150.0 715.8,149.9 716.5,149.4 716.8,149.4 717.2,149.4 717.5,148.8 717.9,149.1 718.3,149.8 718.5,149.6 719.0,149.9 719.3,149.5 719.8,149.9 720.1,150.1 720.3,150.5 720.6,150.5 720.9,150.3 721.2,150.4 721.4,149.7 721.5,149.8 721.9,150.3 722.1,150.8 722.6,150.6 723.0,150.1 723.4,150.5 723.8,149.7 724.1,150.3 724.3,150.8 724.5,151.1 724.5,151.3 724.8,150.5 725.0,150.1 725.3,150.9 725.7,151.4 726.1,151.3 726.4,150.9 726.6,151.1 726.8,151.0 727.3,151.2 728.0,151.6 728.4,151.6 728.9,150.7 729.3,150.6 729.7,150.5 730.1,150.4 730.4,150.6 730.8,151.2 731.3,151.3 731.6,151.5 731.9,150.7 732.3,150.3 732.6,149.7 733.1,150.4 733.5,149.3 733.8,149.1 734.3,149.0 734.6,149.0 735.1,148.1 735.7,148.3 736.3,148.9 737.3,149.1 737.7,149.6 738.1,149.3 738.5,149.3 738.8,149.3 739.4,149.7 739.6,149.3 740.2,148.7 740.8,149.1 741.5,149.2 742.0,149.3 742.2,149.7 742.8,149.3 743.2,149.4 743.8,149.9 744.0,150.5 744.3,149.8 744.7,149.6 745.4,149.3 745.8,148.8 746.1,148.9 746.7,149.3 747.0,148.5 747.3,148.5 747.5,148.8 748.0,148.9 748.2,149.2 748.7,150.0 749.1,150.1 749.2,149.9 749.5,149.7 749.8,149.3 750.5,149.3 751.0,148.7 751.4,149.2 751.9,149.7 752.7,149.6 753.4,149.4 754.1,149.3 754.8,149.7 755.7,149.7 756.1,149.3 756.4,149.4 756.8,149.0 757.2,149.2 757.7,149.6 758.3,149.5 758.8,149.7 758.9,150.3 759.0,150.0 759.4,150.3 759.7,150.1 760.1,149.9 760.6,150.5 760.9,150.9 761.1,150.7 761.5,151.1 761.7,151.1 761.8,151.3 762.0,151.3 762.4,150.6 762.7,151.3 762.8,151.8 762.8,151.7 763.0,152.1 763.1,151.7 763.4,151.2 763.7,150.9 764.2,151.1 764.6,151.2 764.7,151.6 765.0,151.7 765.2,150.7 765.6,150.8 765.8,150.7 766.2,150.5 766.8,150.6 767.4,150.1 767.7,150.2 767.9,151.0 768.1,151.2 768.3,150.5 768.6,151.4 768.7,151.7 768.7,151.7 768.8,151.4 768.9,151.5 769.0,152.1 769.2,151.3 769.4,151.2 769.6,151.9 769.8,151.9 770.1,151.0 770.6,150.5 770.7,150.2 770.9,149.6 771.1,150.1 771.5,150.1 771.8,150.4 772.1,151.0 772.4,151.3 772.6,152.2 772.8,153.0 772.8,153.8 772.8,154.5 772.9,154.6 772.9,154.0 772.9,153.5 773.0,153.7 773.2,154.0 773.2,154.6 773.3,155.6 773.3,156.0 773.3,156.3 773.3,156.3 773.3,155.9 773.4,156.1 773.4,156.3 773.4,157.1 773.5,157.6 773.5,159.3 773.5,157.2 773.6,157.0 773.6,156.3 773.7,156.2 773.8,156.4 773.8,155.8 773.9,155.1 774.0,154.9 774.1,154.2 774.2,154.7 774.3,154.8 774.5,154.6 774.6,154.4 774.7,155.0 774.8,154.8 774.8,154.8 775.0,154.6 775.0,154.1 775.2,155.0 775.3,155.2 775.4,155.5 775.5,156.1 775.6,156.3 775.6,156.3 775.7,156.5 775.8,156.3 775.9,155.9 776.0,155.8 776.1,156.0 776.4,155.3 776.6,155.8 776.8,155.9 777.0,155.2 777.2,155.1 777.6,154.6 777.8,154.8 778.3,154.6 778.7,154.1 778.8,154.9 779.1,155.1 779.3,155.6 779.5,155.8 779.7,155.4 780.0,155.7 780.2,155.5 780.5,154.8 780.7,154.1 780.8,154.4 781.0,155.0 781.3,154.7 781.7,153.8 782.1,153.6 782.3,153.3 782.6,153.3 782.8,152.6 783.0,153.0 783.2,153.4 783.4,153.9 783.8,153.8 784.2,153.3 784.7,153.0 785.1,153.3 785.5,153.4 785.7,154.3 786.0,154.6 786.2,155.0 786.6,155.4 786.9,155.4 787.3,155.2 787.6,155.0 787.8,155.7 788.1,155.9 788.4,156.3 788.7,155.9 789.2,156.0 789.6,155.8 789.7,155.0 789.9,154.7 790.3,155.3 790.9,155.6 791.4,155.4 791.7,155.5 792.1,155.7 792.5,156.0 792.8,156.5 793.1,155.6 793.3,155.6 794.0,155.0 794.3,154.5 794.6,155.8 795.0,155.0 795.6,154.6 796.3,155.1 796.8,155.9 797.3,156.4 797.6,155.9 798.0,155.5 798.6,155.5 799.0,154.6 799.5,155.4 799.8,154.9 800.2,154.8 800.5,154.9 801.0,154.3 801.4,154.2 802.0,154.9 802.6,155.0 803.4,155.2 804.0,154.5 804.7,154.2 805.2,153.3 805.5,153.3 805.9,153.8 806.3,153.8 807.0,153.1 807.5,152.8 808.0,152.9 808.5,152.7 809.3,153.3 810.2,154.1 810.7,154.1 811.1,153.9 811.4,153.9 811.9,153.6 812.4,153.7 813.0,153.8 813.5,153.7 814.0,153.4 814.7,153.2 815.4,153.7 815.8,153.8 816.4,153.8 817.2,153.6 817.6,153.4 817.7,153.6 818.3,153.5 819.3,153.8 819.9,153.8 820.7,153.8 821.1,154.4 821.2,155.2 821.2,156.3 821.3,156.3 821.3,155.5 821.4,156.0 821.4,156.8 821.4,156.7 821.5,156.9 821.7,156.6 821.7,156.2 821.8,155.9 821.9,156.7 821.9,157.1 822.0,157.5 822.1,158.3 822.1,158.3 822.2,157.5 822.3,157.3 822.4,158.5 822.5,157.9 822.6,159.2 822.6,159.4 822.6,158.7 822.7,159.2 822.7,160.2 822.7,160.8 822.8,161.4 822.8,161.4 822.8,162.0 822.8,160.7 822.9,161.4 822.9,161.1 822.9,160.1 823.0,160.4 823.0,159.9 823.1,160.0 823.1,159.5 823.2,160.5 823.3,161.2 823.3,162.0 823.4,162.4 823.4,163.1 823.4,165.0 823.4,164.7 823.4,164.5 823.4,164.2 823.5,163.4 823.5,163.1 823.5,162.5 823.6,162.4 823.6,162.9 823.6,162.7 823.7,163.9 823.7,165.2 823.8,164.0 823.8,163.6 823.8,163.8 823.8,163.3 823.9,163.3 824.0,163.4 824.0,163.3 824.1,162.0 824.1,162.8 824.1,162.7 824.1,162.0 824.2,162.7 824.2,163.2 824.3,164.0 824.3,163.8 824.3,163.0 824.3,162.6 824.4,163.0 824.5,162.9 824.6,163.7 824.6,164.3 824.6,166.6 824.7,166.4 824.7,168.8 824.7,169.6 824.7,168.8 824.7,168.9 824.8,168.7 824.8,170.4 824.8,172.9 824.9,173.9 824.9,172.1 824.9,174.0 824.9,175.9 824.9,177.7 824.9,178.9 824.9,180.6 824.9,180.9 825.0,177.5 825.0,176.5 825.0,171.1 825.1,170.9 825.1,172.3 825.1,172.3 825.2,172.3 825.3,171.6 825.3,171.7 825.3,172.8 825.3,172.1 825.3,170.6 825.4,170.8 825.4,170.3 825.4,170.9 825.4,170.2 825.4,170.3 825.5,170.5 825.5,171.0 825.5,172.0 825.5,172.4 825.5,171.7 825.6,171.5 825.6,170.8 825.6,171.1 825.6,171.7 825.6,171.2 825.7,171.9 825.7,171.9 825.7,173.1 825.8,172.1 825.8,171.6 825.8,170.7 825.9,171.1 825.9,170.6 825.9,170.9 825.9,171.9 825.9,171.1 826.0,170.9 826.0,171.6 826.0,172.0 826.0,172.0 826.1,172.7 826.1,173.6 826.1,173.2 826.1,172.7 826.1,171.3 826.1,171.6 826.2,170.9 826.2,171.7 826.3,171.9 826.3,172.5 826.3,172.8 826.4,173.1 826.4,174.1 826.4,174.3 826.4,175.9 826.4,176.5 826.5,174.1 826.5,174.6 826.5,173.2 826.5,173.9 826.6,174.3 826.6,174.3 826.6,175.2 826.6,175.1 826.6,176.1 826.7,176.0 826.7,177.2 826.7,179.5 826.7,183.1 826.8,181.5 826.8,181.0 826.8,183.1 826.8,182.3 826.8,188.1 826.9,190.9 826.9,190.1 826.9,185.0 826.9,183.1 827.0,183.1 827.0,182.7 827.1,183.7 827.1,186.1 827.1,183.9 827.1,183.7 827.1,184.4 827.2,184.8 827.2,182.2 827.2,181.6 827.3,181.2 827.3,180.9 827.3,181.4 827.3,181.5 827.3,181.2 827.3,178.6 827.3,182.1 827.4,181.7 827.4,181.8 827.4,182.9 827.4,182.6 827.5,184.1 827.5,184.4 827.5,185.6 827.5,186.7 827.6,187.4 827.6,185.1 827.6,184.5 827.7,184.5 827.7,185.8 827.7,184.9 827.7,184.6 827.7,184.9 827.7,184.6 827.8,183.4 827.8,182.3 827.9,182.7 827.9,182.0 828.0,181.2 828.1,179.8 828.1,180.7 828.2,180.0 828.2,181.0 828.2,181.4 828.3,181.6 828.3,181.6 828.3,181.4 828.3,180.9 828.3,180.7 828.4,180.2 828.4,180.3 828.5,180.1 828.5,180.9 828.5,181.8 828.6,180.8 828.6,180.6 828.6,180.0 828.7,179.9 828.7,180.8 828.8,180.4 828.8,180.5 828.8,180.8 828.9,180.7 828.9,181.0 828.9,180.1 829.0,179.6 829.0,179.2 829.0,179.3 829.1,178.9 829.1,179.8 829.1,179.9 829.1,180.2 829.2,179.7 829.2,179.9 829.2,180.4 829.3,179.9 829.3,180.9 829.3,181.4 829.4,181.1 829.4,181.0 829.4,181.1 829.5,180.7 829.5,180.2 829.5,180.2 829.5,179.8 829.6,179.8 829.6,180.4 829.7,180.7 829.7,180.2 829.8,179.3 829.8,179.1 829.9,178.6 829.9,179.0 830.0,178.5 830.0,178.6 830.1,179.1 830.1,179.9 830.2,179.8 830.2,180.1 830.3,179.9 830.3,179.3 830.3,179.4 830.4,180.1 830.4,180.7 830.5,180.8 830.5,180.3 830.6,180.2 830.6,179.8 830.6,180.6 830.7,180.6 830.7,180.1 830.7,179.6 830.8,180.4 830.8,180.5 830.9,181.0 830.9,181.3 831.0,180.9 831.0,181.4 831.1,181.2 831.1,181.0 831.2,181.4 831.3,180.6 831.3,180.2 831.4,180.1 831.5,179.9 831.5,180.6 831.6,180.9 831.7,180.6 831.8,181.3 831.8,182.2 831.8,181.2 831.8,180.7 831.9,181.0 831.9,181.3 831.9,180.5 832.0,181.2 832.0,181.1 832.0,181.1 832.1,181.4 832.1,181.2 832.2,181.5 832.2,182.0 832.3,182.0 832.4,181.4 832.4,180.5 832.4,181.2 832.5,180.8 832.6,180.2 832.7,180.2 832.8,179.3 832.9,179.7 833.0,179.6 833.0,179.3 833.1,179.4 833.1,179.2 833.2,179.8 833.2,179.9 833.3,180.2 833.4,181.3 833.5,180.7 833.6,181.1 833.6,180.8 833.7,181.4 833.7,181.6 833.8,181.7 833.8,182.2 833.9,183.0 833.9,182.0 834.0,182.7 834.1,182.6 834.1,183.3 834.2,184.1 834.2,184.6 834.2,183.0 834.3,182.6 834.3,182.8 834.3,183.6 834.3,183.2 834.3,183.7 834.4,183.9 834.4,184.3 834.4,184.8 834.4,184.7 834.4,185.0 834.5,185.1 834.5,185.3 834.5,185.3 834.5,186.3 834.5,187.2 834.6,187.4 834.6,186.5 834.6,188.7 834.7,186.8 834.7,189.6 834.7,190.5 834.8,189.8 834.8,191.7 834.9,193.6 834.9,197.8 834.9,203.4 835.0,204.0 835.0,209.1 835.1,212.4 835.1,213.1 835.1,213.5 835.1,217.8 835.1,211.0 835.1,205.5 835.1,203.1 835.2,200.9 835.2,200.9 835.2,205.5 835.2,203.6 835.2,202.7 835.3,204.8 835.4,201.1 835.4,200.5 835.4,200.8 835.4,202.6 835.4,201.9 835.4,201.2 835.4,201.3 835.5,202.5 835.5,205.8 835.5,210.6 835.6,213.5 835.6,217.7 835.7,222.7 835.7,226.7 835.7,226.5 835.7,227.2 835.7,222.6 835.8,214.3 835.9,216.4 835.9,213.6 836.0,215.3 836.0,216.1 836.0,214.1 836.0,211.9 836.0,212.7 836.1,213.1 836.1,211.7 836.1,212.7 836.1,216.6 836.1,212.5 836.1,212.1 836.1,211.9 836.2,212.0 836.2,212.9 836.2,213.1 836.3,216.8 836.3,224.4 836.3,228.6 836.4,217.1 836.5,225.5 836.6,229.7 836.6,233.3 836.7,242.8 836.7,238.0 836.7,234.8 836.8,236.2 836.8,239.5 836.9,244.0 837.0,248.5 837.0,243.4 837.2,262.1 837.2,267.6 837.3,263.9 837.3,260.2 837.4,270.3 837.5,284.0 837.5,276.1 837.6,280.6 837.7,276.4 837.8,287.0 837.9,300.9 837.9,309.9 838.1,331.1 838.2,342.7 838.3,361.8 838.4,379.2 838.6,391.0 838.7,402.5 838.8,418.8 838.9,416.6 839.0,420.7 839.1,420.1 839.2,429.9 839.3,435.2 839.5,436.9 839.6,436.9 839.7,441.8 839.8,435.4 840.0,434.0 840.1,427.9 840.3,427.4 840.4,419.3 840.5,420.2 840.6,411.7 840.7,417.0 840.9,405.8 841.0,407.2 841.1,403.9 841.2,396.7 841.3,392.9 841.4,394.1 841.5,391.5 841.6,390.0 841.7,391.3 841.8,388.4 841.8,393.0 841.9,380.2 842.1,382.3 842.2,392.2 842.3,392.1 842.4,382.0 842.5,384.3 842.7,381.1 842.8,375.2 842.9,378.1 843.0,376.2 843.2,373.6 843.3,369.9 843.5,358.7 843.6,356.7 843.7,352.8 843.9,354.1 844.0,345.5 844.2,357.5 844.3,358.7 844.4,361.0 844.6,352.1 844.8,344.9 844.9,347.1 845.0,353.5 845.1,343.3 845.3,342.8 845.5,344.8 845.7,344.9 845.9,338.7 846.1,338.4 846.2,336.0 846.3,336.1 846.4,335.4 846.5,336.8 846.5,332.0 846.6,331.9 846.7,331.9 846.8,332.8 846.8,334.9 846.9,335.9 847.0,335.1 847.0,333.2 847.0,325.5 847.1,323.6 847.1,330.5 847.1,325.2 847.2,320.2 847.3,326.6 847.3,324.3 847.4,331.8 847.4,318.7 847.5,326.9 847.6,326.6 847.7,322.7 847.9,322.1 847.9,321.9 848.1,323.0 848.2,322.9 848.3,318.4 848.4,318.6 848.5,323.5 848.6,318.6 848.7,321.5 848.8,321.2 849.0,322.2 849.1,324.1 849.2,323.0 849.4,322.8 849.6,324.7 849.7,323.4 849.8,327.9 850.0,327.3 850.2,328.0 850.2,325.6 850.4,326.7 850.6,321.7 850.9,322.7 851.4,323.9 851.5,320.8 851.7,318.6 852.0,316.6 852.2,313.0 852.6,308.3 852.8,309.3 852.9,307.2 853.0,313.3 853.1,287.5 853.2,292.2 853.5,287.6 853.6,275.6 853.7,284.2 853.9,286.6 854.0,282.6 854.2,283.4 854.3,275.9 854.5,280.0 854.7,277.9 854.9,275.8 855.0,278.7 855.2,275.8 855.4,273.1 855.6,275.0 855.7,272.9 855.8,276.9 856.0,278.3 856.1,274.6 856.1,271.9 856.1,260.1 856.1,257.8 856.1,248.0 856.2,260.8 856.2,269.0 856.2,264.7 856.2,257.8 856.2,263.1 856.3,277.8 856.4,274.7 856.6,271.4 856.7,273.6 856.8,267.2 856.8,271.4 856.9,277.9 857.1,280.8 857.1,286.2 857.2,280.0 857.4,275.8 857.6,273.6 857.7,275.3 857.9,275.8 858.0,272.8 858.2,265.9 858.3,267.8 858.5,268.0 858.6,267.1 858.7,273.6 858.8,269.2 858.9,267.1 859.1,273.7 859.3,271.5 859.4,272.5 859.7,277.0 859.7,270.9 860.1,270.3 860.4,270.1 860.7,268.1 861.0,269.1 861.3,273.5 861.5,271.4 862.0,273.5 862.4,275.3 862.8,275.7 863.1,280.8 863.2,277.9 863.5,275.7 863.7,276.2 863.9,275.2 864.0,276.1 864.1,275.9 864.1,274.7 864.2,276.1 864.3,277.3 864.5,276.9 864.6,279.2 864.6,280.0 864.6,280.1 864.7,280.3 864.8,280.0 864.8,281.9 864.9,280.2 865.1,283.1 865.1,283.8 865.2,283.3 865.2,285.4 865.3,283.4 865.3,283.9 865.3,287.4 865.5,286.9 865.6,291.5 865.7,289.9 865.7,288.6 865.8,287.4 865.8,291.9 865.9,292.3 866.0,292.6 866.0,292.2 866.1,300.4 866.2,306.8 866.2,313.0 866.2,315.2 866.2,314.8 866.3,312.4 866.3,309.0 866.3,310.5 866.3,303.0 866.4,299.2 866.4,292.6 866.4,290.2 866.5,288.5 866.5,284.9 866.6,282.2 866.6,277.7 866.6,279.5 866.6,286.0 866.7,283.2 866.8,280.3 866.9,286.5 866.9,284.8 866.9,283.5 867.0,287.1 867.0,284.8 867.1,283.4 867.2,282.4 867.2,281.7 867.4,281.0 867.5,284.7 867.5,284.0 867.5,286.1 867.6,283.4 867.7,283.7 867.8,282.4 867.8,282.3 867.9,281.1 867.9,279.9 868.0,278.7 868.1,281.6 868.1,281.6 868.1,283.3 868.1,284.7 868.2,283.6 868.3,283.1 868.3,282.2 868.4,282.4 868.5,280.6 868.5,280.0 868.6,282.0 868.7,282.7 868.8,284.0 868.9,282.2 869.1,284.2 869.2,282.8 869.3,281.9 869.4,284.7 869.5,286.7 869.7,282.8 869.8,283.1 870.0,283.6 870.0,285.2 870.1,283.6 870.1,285.4 870.2,282.7 870.2,281.5 870.2,281.9 870.2,280.6 870.3,283.4 870.4,282.7 870.5,282.7 870.6,281.9 870.6,282.5 870.7,280.4 870.7,281.9 870.7,280.0 870.7,278.6 870.8,280.4 871.0,281.4 871.1,280.8 871.4,279.2 871.6,282.1 871.7,281.5 872.0,284.8 872.3,284.1 872.5,284.1 872.6,283.1 872.7,283.3 872.8,284.1 872.8,284.0 872.9,285.5 873.1,285.5 873.2,286.1 873.4,283.1 873.5,284.8 873.6,282.4 873.7,283.8 873.8,282.4 873.8,282.1 873.8,283.8 874.0,285.2 874.2,285.1 874.3,286.1 874.4,285.9 874.5,284.8 874.6,285.1 874.7,285.1 874.8,285.1 874.9,284.5 874.9,286.3 875.0,288.2 875.2,287.5 875.2,287.6 875.3,287.6 875.3,286.8 875.4,287.7 875.5,288.2 875.5,290.6 875.5,292.2 875.7,288.9 875.8,288.3 875.9,288.7 876.0,290.9 876.1,288.3 876.2,289.4 876.4,288.5 876.5,288.6 876.5,290.5 876.6,292.0 876.6,292.0 876.7,291.6 876.7,294.2 876.7,291.0 876.8,294.0 876.9,290.2 877.0,291.6 877.0,292.2 877.1,292.4 877.2,293.0 877.2,290.8 877.2,288.3 877.4,289.3 877.5,291.9 877.6,290.5 877.7,291.7 877.8,291.9 877.9,291.9 878.0,292.2 878.0,292.1 878.2,291.5 878.3,291.1 878.4,290.6 878.5,290.9 878.6,291.9 878.7,292.9 879.0,294.1 879.1,296.5 879.2,294.8 879.3,295.1 879.3,293.9 879.4,294.0 879.6,292.3 879.7,290.8 879.8,290.6 880.0,292.6 880.2,290.6 880.3,290.2 880.5,291.0 880.6,290.6 880.8,291.4 881.0,292.9 881.2,292.4 881.2,291.0 881.4,292.1 881.6,291.7 881.7,291.8 881.8,291.7 881.9,291.8 882.1,292.6 882.4,292.2 882.5,292.5 882.6,293.1 882.8,292.8 882.9,291.0 883.0,288.6 883.2,288.2 883.2,289.7 883.4,289.3 883.5,288.8 883.6,289.2 883.7,288.9 883.8,289.3 883.9,289.2 884.0,288.9 884.1,288.2 884.1,288.6 884.1,289.1 884.2,288.9 884.2,288.4 884.3,289.2 884.3,287.9 884.4,287.1 884.4,287.3 884.5,287.7 884.6,288.0 884.7,288.8 884.7,287.5 884.8,287.7 884.9,287.3 885.0,287.9 885.1,287.6 885.1,287.2 885.3,286.3 885.4,286.0 885.5,284.5 885.6,283.9 885.8,285.4 886.0,285.5 886.2,285.3 886.4,283.8 886.5,284.3 886.6,283.3 886.6,284.0 886.7,284.0 886.8,283.6 886.9,283.1 887.1,283.8 887.2,283.9 887.3,283.7 887.4,283.1 887.5,283.0 887.7,283.1 887.8,283.6 887.8,283.6 888.0,283.5 888.1,283.1 888.3,281.8 888.4,281.9 888.6,281.2 888.9,281.1 889.0,279.6 889.3,280.2 889.5,279.2 889.6,278.5 889.8,279.1 890.0,278.8 890.1,278.0 890.3,278.7 890.4,277.6 890.5,278.3 890.7,277.8 891.0,276.6 891.2,275.3 891.3,274.7 891.3,273.7 891.5,272.0 891.7,273.2 891.8,273.0 891.8,272.7 891.9,272.4 892.1,271.7 892.3,272.0 892.5,271.5 892.7,272.8 892.9,272.9 893.1,272.7 893.3,272.8 893.6,271.5 893.6,271.4 893.8,269.1 894.1,270.0 894.2,269.6 894.4,270.4 894.6,270.0 894.9,270.2 895.1,268.8 895.3,270.2 895.4,270.7 895.4,271.6 895.6,271.4 895.9,270.7 896.0,270.6 896.2,270.4 896.3,272.3 896.5,272.2 896.7,271.6 896.9,270.5 897.2,270.3 897.3,270.6 897.4,269.0 897.8,268.2 897.9,268.1 898.2,267.3 898.3,268.2 898.6,268.1 898.9,268.9 899.0,268.0 899.1,269.1 899.4,269.9 899.6,268.8 899.6,269.5 899.7,268.6 899.8,267.5 899.9,267.4 900.0,266.4 900.1,266.9 900.3,266.2 900.6,267.5 900.7,267.8 900.9,267.8 901.0,267.1 901.3,267.3 901.5,267.7 901.7,267.8 901.7,266.9 901.9,267.3 902.0,266.4 902.2,268.0 902.5,267.0 902.6,265.3 902.8,264.7 902.8,265.4 903.0,265.8 903.1,266.1 903.2,266.2 903.3,266.6 903.4,265.9 903.7,267.1 903.8,267.2 904.0,267.5 904.1,261.4 904.1,266.0 904.1,260.6 904.2,264.3 904.2,262.9 904.3,265.2 904.3,265.3 904.5,265.4 904.6,265.0 904.7,265.4 904.9,265.0 905.1,265.0 905.3,265.0 905.4,264.9 905.6,264.9 905.8,264.5 905.9,265.0 906.1,264.7 906.2,264.4 906.4,263.9 906.7,262.7 906.9,260.9 907.0,261.0 907.3,259.8 907.3,257.7 907.4,258.1 907.5,257.9 907.8,257.9 908.0,257.4 908.0,257.6 908.1,257.8 908.2,257.7 908.3,257.9 908.4,257.6 908.5,257.5 908.6,256.3 908.7,256.5 908.8,255.8 909.0,256.8 909.1,256.6 909.2,255.9 909.2,255.1 909.2,254.5 909.4,253.6 909.5,255.0 909.6,255.1 909.7,254.6 909.8,253.7 909.9,252.7 910.1,251.3 910.3,251.0 910.3,251.3 910.4,251.0 910.5,250.8 910.6,251.0 910.6,251.5 910.7,251.6 910.9,251.8 911.1,252.7 911.2,251.3 911.3,251.4 911.4,251.6 911.5,251.3 911.6,250.6 911.8,248.9 911.8,250.4 911.8,248.9 912.0,248.8 912.2,249.6 912.3,250.0 912.4,250.2 912.5,250.7 912.5,251.2 912.6,250.5 912.7,249.7 912.9,249.3 913.1,250.3 913.2,250.5 913.3,250.0 913.4,249.7 913.6,248.2 913.7,249.0 913.7,251.4 913.7,246.1 913.7,249.6 913.8,243.5 913.8,246.9 913.8,247.3 913.9,247.5 914.0,246.6 914.1,244.1 914.1,244.4 914.2,243.9 914.3,244.6 914.5,244.3 914.6,243.8 914.6,243.6 914.7,243.5 914.7,245.5 914.8,244.9 915.0,245.6 915.2,245.2 915.5,246.0 915.7,245.2 915.8,245.2 915.9,244.7 916.0,244.9 916.2,244.5 916.3,242.8 916.4,243.9 916.4,244.3 916.5,244.6 916.6,244.8 916.7,244.9 916.8,243.8 916.9,243.8 917.1,244.7 917.4,244.4 917.5,243.9 917.6,242.8 917.6,242.4 917.7,243.0 917.8,242.0 917.9,242.8 918.0,242.7 918.1,242.1 918.1,241.4 918.2,242.2 918.2,239.3 918.2,242.0 918.3,241.9 918.3,243.5 918.4,243.5 918.4,243.2 918.5,242.2 918.6,240.6 918.7,240.3 918.8,239.9 918.8,239.6 918.9,239.2 919.0,238.5 919.1,238.4 919.2,237.8 919.3,237.5 919.4,237.8 919.5,238.3 919.6,237.8 919.8,237.5 919.9,237.5 919.9,237.0 920.1,237.5 920.3,237.0 920.4,236.2 920.6,237.9 920.7,237.6 920.9,239.0 921.0,240.0 921.1,242.1 921.1,242.2 921.2,242.4 921.2,243.6 921.3,242.8 921.5,241.0 921.6,242.0 921.7,242.0 921.8,242.5 921.9,242.6 921.9,242.7 922.0,241.4 922.1,241.1 922.2,241.3 922.4,240.8 922.5,239.8 922.6,240.2 922.7,240.4 922.8,240.4 922.9,239.7 923.0,240.3 923.1,239.0 923.2,239.3 923.3,240.9 923.3,239.1 923.3,238.4 923.4,237.7 923.4,238.3 923.5,237.6 923.6,237.6 923.7,236.7 923.8,236.7 923.9,236.1 924.1,235.4 924.2,235.2 924.3,235.0 924.5,234.8 924.5,235.8 924.7,234.8 924.8,235.3 925.1,235.0 925.2,235.4 925.2,236.4 925.4,236.6 925.4,236.2 925.5,235.9 925.7,236.6 925.8,236.5 925.8,236.2 925.9,236.0 926.0,235.3 926.0,236.1 926.1,235.5 926.2,235.8 926.3,235.0 926.3,235.4 926.4,236.6 926.5,236.6 926.5,236.2 926.5,236.4 926.5,236.6 926.6,236.2 926.6,237.0 926.8,238.4 926.9,237.7 927.0,238.5 927.1,238.9 927.1,239.5 927.2,239.8 927.3,240.1 927.4,239.5 927.6,238.9 927.6,239.8 927.7,239.4 927.8,240.2 927.8,240.8 927.9,242.1 928.0,241.1 928.1,240.9 928.1,240.5 928.3,240.4 928.3,241.0 928.4,241.1 928.6,241.3 928.7,240.6 928.7,240.9 928.8,242.4 928.9,242.3 928.9,242.6 929.0,241.9 929.1,241.8 929.2,241.6 929.3,241.3 929.4,242.4 929.5,243.6 929.6,243.1 929.7,243.4 929.8,243.0 929.8,243.1 929.9,244.3 929.9,244.8 930.0,244.5 930.1,243.8 930.1,243.4 930.2,243.9 930.2,244.7 930.3,245.2 930.3,244.6 930.3,245.2 930.4,245.1 930.4,244.6 930.5,244.1 930.5,244.1 930.5,244.4 930.6,244.5 930.6,244.7 930.7,244.5 930.7,245.1 930.8,246.0 930.8,245.7 930.9,244.9 930.9,245.4 931.0,245.2 931.0,244.6 931.1,244.2 931.1,244.1 931.1,245.2 931.1,244.8 931.2,245.0 931.2,247.5 931.3,246.2 931.3,246.3 931.3,248.1 931.4,248.3 931.4,246.6 931.5,247.7 931.5,247.2 931.6,247.3 931.7,246.7 931.8,248.0 931.9,247.7 931.9,247.3 932.0,247.3 932.1,247.2 932.1,246.6 932.2,246.4 932.2,246.5 932.3,247.3 932.3,246.9 932.4,247.3 932.4,246.9 932.4,246.5 932.5,247.2 932.6,247.2 932.7,246.3 932.8,245.8 932.9,246.0 933.0,244.8 933.1,244.8 933.2,244.4 933.4,243.8 933.5,244.0 933.5,244.0 933.6,243.5 933.8,242.4 933.9,243.4 934.0,243.2" fill="none" stroke="#d97706" stroke-width="1.2" stroke-linejoin="round" opacity="0.6"/><text x="942" y="472.0" text-anchor="start" font-size="11" fill="#d97706">0.24</text><text x="942" y="396.0" text-anchor="start" font-size="11" fill="#d97706">1.95</text><text x="942" y="320.0" text-anchor="start" font-size="11" fill="#d97706">3.65</text><text x="942" y="244.0" text-anchor="start" font-size="11" fill="#d97706">5.36</text><text x="942" y="168.0" text-anchor="start" font-size="11" fill="#d97706">7.06</text><text x="942" y="92.0" text-anchor="start" font-size="11" fill="#d97706">8.76</text><text x="942" y="80.0" text-anchor="start" font-size="11" font-weight="600" fill="#d97706">price</text>
  <polygon points="631.7,468.0 631.7,460.7 631.7,461.5 835.1,457.7 835.7,458.7 835.8,460.1 836.3,461.8 837.4,453.4 837.5,454.9 837.6,456.8 838.0,447.3 838.2,438.7 838.2,441.8 838.2,445.6 838.2,450.4 838.4,426.6 838.4,430.9 838.7,409.4 838.7,415.5 838.7,423.2 838.8,385.1 838.9,390.0 838.9,396.2 839.0,403.9 839.0,413.6 839.1,418.4 839.1,424.4 839.3,394.4 840.1,398.3 840.1,403.1 840.1,409.1 840.1,416.7 840.2,420.5 840.3,401.5 840.3,406.5 840.4,412.7 840.8,381.6 841.1,357.8 841.1,365.1 841.4,374.2 842.5,329.0 843.3,297.3 843.3,306.2 843.3,317.4 843.4,331.3 844.5,261.9 846.6,270.8 852.8,226.4 853.0,235.3 856.1,190.8 856.1,199.8 856.1,210.9 866.1,155.4 866.2,165.2 866.3,177.6 892.0,116.1 892.0,468.0" fill="#16a34a" fill-opacity="0.08"/>
  <polyline points="631.7,460.7 631.7,461.5 835.1,457.7 835.7,458.7 835.8,460.1 836.3,461.8 837.4,453.4 837.5,454.9 837.6,456.8 838.0,447.3 838.2,438.7 838.2,441.8 838.2,445.6 838.2,450.4 838.4,426.6 838.4,430.9 838.7,409.4 838.7,415.5 838.7,423.2 838.8,385.1 838.9,390.0 838.9,396.2 839.0,403.9 839.0,413.6 839.1,418.4 839.1,424.4 839.3,394.4 840.1,398.3 840.1,403.1 840.1,409.1 840.1,416.7 840.2,420.5 840.3,401.5 840.3,406.5 840.4,412.7 840.8,381.6 841.1,357.8 841.1,365.1 841.4,374.2 842.5,329.0 843.3,297.3 843.3,306.2 843.3,317.4 843.4,331.3 844.5,261.9 846.6,270.8 852.8,226.4 853.0,235.3 856.1,190.8 856.1,199.8 856.1,210.9 866.1,155.4 866.2,165.2 866.3,177.6 892.0,116.1" fill="none" stroke="#16a34a" stroke-width="2" stroke-linejoin="round"/>
  <line x1="88" y1="102" x2="110" y2="102" stroke="#16a34a" stroke-width="2.5"/><text x="116" y="106" font-size="11.5" fill="#374151">equity</text><line x1="88" y1="118" x2="110" y2="118" stroke="#d97706" stroke-width="2.5" opacity="0.8"/><text x="116" y="122" font-size="11.5" fill="#374151">price</text>
  <text x="78" y="502" text-anchor="start" font-size="12" fill="#6b7280">2025-10-10</text><text x="934" y="502" text-anchor="end" font-size="12" fill="#6b7280">2025-10-10</text>
</svg>
