<?xml version="1.0" encoding="UTF-8"?>
<svg xmlns="http://www.w3.org/2000/svg" width="1100" height="560" viewBox="0 0 1100 560" font-family="ui-sans-serif, system-ui, sans-serif">
  <rect width="1100" height="560" fill="#ffffff"/>
  <text x="80" y="28" font-size="18" font-weight="700" fill="#111827">Zone Recovery — BOMEUSDC fee-tier comparison (best setting)</text>
  <text x="80" y="48" font-size="12.5" fill="#6b7280">lev 10 · ratio 4 · gap 20% · maxSteps 6 · maxDD 60% · random  ·  equity per fee tier vip 0..9</text>
  <text x="80" y="68" font-size="12.5" font-weight="600" fill="#1d4ed8">USDC margin · BNB −10%</text>
  <line x1="80" y1="508.0" x2="932" y2="508.0" stroke="#e5e7eb" stroke-width="1"/><text x="70" y="512.0" text-anchor="end" font-size="12" fill="#6b7280">0.00</text><line x1="80" y1="424.0" x2="932" y2="424.0" stroke="#e5e7eb" stroke-width="1"/><text x="70" y="428.0" text-anchor="end" font-size="12" fill="#6b7280">16475</text><line x1="80" y1="340.0" x2="932" y2="340.0" stroke="#e5e7eb" stroke-width="1"/><text x="70" y="344.0" text-anchor="end" font-size="12" fill="#6b7280">32950</text><line x1="80" y1="256.0" x2="932" y2="256.0" stroke="#e5e7eb" stroke-width="1"/><text x="70" y="260.0" text-anchor="end" font-size="12" fill="#6b7280">49424</text><line x1="80" y1="172.0" x2="932" y2="172.0" stroke="#e5e7eb" stroke-width="1"/><text x="70" y="176.0" text-anchor="end" font-size="12" fill="#6b7280">65899</text><line x1="80" y1="88.0" x2="932" y2="88.0" stroke="#e5e7eb" stroke-width="1"/><text x="70" y="92.0" text-anchor="end" font-size="12" fill="#6b7280">82374</text>
  <line x1="80" y1="457.0" x2="932" y2="457.0" stroke="#9ca3af" stroke-width="1.5" stroke-dasharray="6 4"/>
  <polyline points="80.0,457.0 80.0,446.2 101.2,433.2 109.4,437.3 142.4,417.6 142.6,421.8 155.5,401.6 165.5,384.7 171.5,389.1 200.1,394.6 204.8,401.5 208.3,410.1 214.5,420.9 260.4,369.3 362.4,353.1 368.3,357.3 376.3,362.6 386.6,369.3 387.8,377.5 411.6,387.9 421.9,338.4 455.2,322.2 566.0,305.9 566.7,289.7 566.7,294.1 566.7,299.6 566.7,306.5 566.7,315.1 602.1,273.9 602.4,278.3 603.2,283.8 603.6,290.7 615.1,257.7 622.0,262.1 624.4,267.6 647.1,241.2 662.2,245.7 701.7,251.2 702.1,258.1 757.1,225.1 774.4,229.3 834.8,209.0 866.9,192.8 925.8,176.5 929.3,160.3 929.3,164.7 931.2,143.6 931.3,126.7 931.6,131.1 932.0,136.6" fill="none" stroke="#2563eb" stroke-width="1.8" stroke-linejoin="round" opacity="0.9"/>
  <polyline points="80.0,457.0 80.0,446.2 101.2,433.2 109.4,437.3 142.4,417.6 142.6,421.8 155.5,401.6 165.5,384.7 171.5,389.1 200.1,394.6 204.8,401.5 208.3,410.1 214.5,420.9 260.4,369.3 362.4,353.1 368.3,357.3 376.3,362.6 386.6,369.3 387.8,377.5 411.6,387.9 421.9,338.4 455.2,322.2 566.0,305.9 566.7,289.7 566.7,294.1 566.7,299.6 566.7,306.5 566.7,315.1 602.1,273.9 602.4,278.3 603.2,283.8 603.6,290.7 615.1,257.7 622.0,262.1 624.4,267.6 647.1,241.2 662.2,245.7 701.7,251.2 702.1,258.1 757.1,225.1 774.4,229.3 834.8,209.0 866.9,192.8 925.8,176.5 929.3,160.3 929.3,164.7 931.2,143.6 931.3,126.7 931.6,131.1 932.0,136.6" fill="none" stroke="#dc2626" stroke-width="1.8" stroke-linejoin="round" opacity="0.9"/>
  <polyline points="80.0,457.0 80.0,446.2 101.2,433.2 109.4,437.3 142.4,417.5 142.6,421.7 155.5,401.4 165.5,384.4 171.5,388.8 200.1,394.3 204.8,401.2 208.3,409.7 214.5,420.4 260.4,368.7 362.4,352.5 368.3,356.7 376.3,362.0 386.6,368.5 387.8,376.8 411.6,387.1 421.9,337.5 455.2,321.2 566.0,304.9 566.7,288.7 566.7,293.0 566.7,298.5 566.7,305.4 566.7,313.9 602.1,272.6 602.4,277.0 603.2,282.5 603.6,289.3 615.1,256.3 622.0,260.6 624.4,266.1 647.1,239.7 662.2,244.1 701.7,249.6 702.1,256.4 757.1,223.3 774.4,227.5 834.8,207.2 866.9,191.0 925.8,174.7 929.3,158.4 929.3,162.8 931.2,141.6 931.3,124.7 931.6,129.1 932.0,134.6" fill="none" stroke="#16a34a" stroke-width="1.8" stroke-linejoin="round" opacity="0.9"/>
  <polyline points="80.0,457.0 80.0,446.2 101.2,433.1 109.4,437.2 142.4,417.4 142.6,421.6 155.5,401.2 165.5,384.3 171.5,388.6 200.1,394.1 204.8,400.9 208.3,409.4 214.5,420.0 260.4,368.3 362.4,352.0 368.3,356.2 376.3,361.4 386.6,368.0 387.8,376.2 411.6,386.4 421.9,336.7 455.2,320.4 566.0,304.1 566.7,287.8 566.7,292.2 566.7,297.7 566.7,304.5 566.7,313.0 602.1,271.6 602.4,276.0 603.2,281.4 603.6,288.2 615.1,255.1 622.0,259.5 624.4,264.9 647.1,238.4 662.2,242.8 701.7,248.2 702.1,255.1 757.1,221.9 774.4,226.1 834.8,205.8 866.9,189.5 925.8,173.2 929.3,156.9 929.3,161.3 931.2,140.1 931.3,123.1 931.6,127.5 932.0,132.9" fill="none" stroke="#d97706" stroke-width="1.8" stroke-linejoin="round" opacity="0.9"/>
  <polyline points="80.0,457.0 80.0,446.2 101.2,433.1 109.4,437.1 142.4,417.2 142.6,421.4 155.5,401.0 165.5,384.0 171.5,388.3 200.1,393.7 204.8,400.5 208.3,408.9 214.5,419.5 260.4,367.7 362.4,351.3 368.3,355.5 376.3,360.7 386.6,367.2 387.8,375.3 411.6,385.4 421.9,335.7 455.2,319.3 566.0,303.0 566.7,286.7 566.7,291.0 566.7,296.4 566.7,303.2 566.7,311.6 602.1,270.2 602.4,274.5 603.2,279.9 603.6,286.6 615.1,253.5 622.0,257.8 624.4,263.2 647.1,236.7 662.2,241.0 701.7,246.4 702.1,253.2 757.1,220.0 774.4,224.1 834.8,203.7 866.9,187.4 925.8,171.1 929.3,154.8 929.3,159.1 931.2,137.9 931.3,120.9 931.6,125.2 932.0,130.6" fill="none" stroke="#7c3aed" stroke-width="1.8" stroke-linejoin="round" opacity="0.9"/>
  <polyline points="80.0,457.0 80.0,446.2 101.2,433.1 109.4,437.1 142.4,417.2 142.6,421.3 155.5,400.9 165.5,384.0 171.5,388.3 200.1,393.7 204.8,400.4 208.3,408.9 214.5,419.4 260.4,367.5 362.4,351.2 368.3,355.4 376.3,360.5 386.6,367.0 387.8,375.1 411.6,385.3 421.9,335.5 455.2,319.1 566.0,302.8 566.7,286.5 566.7,290.8 566.7,296.2 566.7,302.9 566.7,311.4 602.1,269.9 602.4,274.2 603.2,279.6 603.6,286.4 615.1,253.2 622.0,257.5 624.4,262.9 647.1,236.4 662.2,240.7 701.7,246.1 702.1,252.8 757.1,219.6 774.4,223.8 834.8,203.4 866.9,187.0 925.8,170.7 929.3,154.4 929.3,158.7 931.2,137.5 931.3,120.5 931.6,124.8 932.0,130.2" fill="none" stroke="#0891b2" stroke-width="1.8" stroke-linejoin="round" opacity="0.9"/>
  <polyline points="80.0,457.0 80.0,446.2 101.2,433.0 109.4,437.1 142.4,417.2 142.6,421.3 155.5,400.9 165.5,383.9 171.5,388.2 200.1,393.6 204.8,400.4 208.3,408.8 214.5,419.3 260.4,367.5 362.4,351.1 368.3,355.3 376.3,360.5 386.6,366.9 387.8,375.0 411.6,385.2 421.9,335.3 455.2,319.0 566.0,302.7 566.7,286.3 566.7,290.7 566.7,296.1 566.7,302.8 566.7,311.2 602.1,269.7 602.4,274.0 603.2,279.4 603.6,286.2 615.1,253.0 622.0,257.3 624.4,262.7 647.1,236.1 662.2,240.5 701.7,245.8 702.1,252.6 757.1,219.4 774.4,223.5 834.8,203.1 866.9,186.8 925.8,170.5 929.3,154.1 929.3,158.4 931.2,137.2 931.3,120.2 931.6,124.5 932.0,129.9" fill="none" stroke="#db2777" stroke-width="1.8" stroke-linejoin="round" opacity="0.9"/>
  <polyline points="80.0,457.0 80.0,446.2 101.2,433.0 109.4,437.1 142.4,417.2 142.6,421.3 155.5,400.9 165.5,383.9 171.5,388.2 200.1,393.6 204.8,400.3 208.3,408.7 214.5,419.2 260.4,367.3 362.4,351.0 368.3,355.1 376.3,360.3 386.6,366.8 387.8,374.9 411.6,385.0 421.9,335.1 455.2,318.8 566.0,302.5 566.7,286.1 566.7,290.4 566.7,295.8 566.7,302.6 566.7,311.0 602.1,269.5 602.4,273.8 603.2,279.2 603.6,285.9 615.1,252.7 622.0,257.0 624.4,262.4 647.1,235.8 662.2,240.1 701.7,245.5 702.1,252.2 757.1,219.0 774.4,223.2 834.8,202.7 866.9,186.4 925.8,170.1 929.3,153.7 929.3,158.0 931.2,136.8 931.3,119.8 931.6,124.1 932.0,129.5" fill="none" stroke="#65a30d" stroke-width="1.8" stroke-linejoin="round" opacity="0.9"/>
  <polyline points="80.0,457.0 80.0,446.2 101.2,433.0 109.4,437.1 142.4,417.1 142.6,421.3 155.5,400.9 165.5,383.8 171.5,388.2 200.1,393.5 204.8,400.3 208.3,408.7 214.5,419.2 260.4,367.3 362.4,350.9 368.3,355.1 376.3,360.2 386.6,366.7 387.8,374.8 411.6,384.9 421.9,335.0 455.2,318.7 566.0,302.3 566.7,286.0 566.7,290.3 566.7,295.7 566.7,302.4 566.7,310.8 602.1,269.3 602.4,273.6 603.2,279.0 603.6,285.7 615.1,252.5 622.0,256.8 624.4,262.2 647.1,235.6 662.2,239.9 701.7,245.3 702.1,252.0 757.1,218.8 774.4,222.9 834.8,202.5 866.9,186.2 925.8,169.8 929.3,153.5 929.3,157.8 931.2,136.5 931.3,119.5 931.6,123.8 932.0,129.2" fill="none" stroke="#475569" stroke-width="1.8" stroke-linejoin="round" opacity="0.9"/>
  <polyline points="80.0,457.0 80.0,446.2 101.2,433.0 109.4,437.0 142.4,417.1 142.6,421.2 155.5,400.8 165.5,383.8 171.5,388.1 200.1,393.5 204.8,400.2 208.3,408.6 214.5,419.1 260.4,367.2 362.4,350.8 368.3,354.9 376.3,360.1 386.6,366.5 387.8,374.6 411.6,384.7 421.9,334.8 455.2,318.5 566.0,302.1 566.7,285.8 566.7,290.1 566.7,295.5 566.7,302.2 566.7,310.6 602.1,269.0 602.4,273.3 603.2,278.7 603.6,285.4 615.1,252.2 622.0,256.5 624.4,261.9 647.1,235.3 662.2,239.6 701.7,244.9 702.1,251.7 757.1,218.4 774.4,222.6 834.8,202.1 866.9,185.8 925.8,169.4 929.3,153.1 929.3,157.4 931.2,136.1 931.3,119.1 931.6,123.4 932.0,128.8" fill="none" stroke="#ea580c" stroke-width="1.8" stroke-linejoin="round" opacity="0.9"/>
  <line x1="950" y1="94" x2="972" y2="94" stroke="#ea580c" stroke-width="3"/><text x="980" y="98" font-size="12.5" fill="#374151">vip 9  74376</text>
  <line x1="950" y1="116" x2="972" y2="116" stroke="#475569" stroke-width="3"/><text x="980" y="120" font-size="12.5" fill="#374151">vip 8  74295</text>
  <line x1="950" y1="138" x2="972" y2="138" stroke="#65a30d" stroke-width="3"/><text x="980" y="142" font-size="12.5" fill="#374151">vip 7  74240</text>
  <line x1="950" y1="160" x2="972" y2="160" stroke="#db2777" stroke-width="3"/><text x="980" y="164" font-size="12.5" fill="#374151">vip 6  74154</text>
  <line x1="950" y1="182" x2="972" y2="182" stroke="#0891b2" stroke-width="3"/><text x="980" y="186" font-size="12.5" fill="#374151">vip 5  74099</text>
  <line x1="950" y1="204" x2="972" y2="204" stroke="#7c3aed" stroke-width="3"/><text x="980" y="208" font-size="12.5" fill="#374151">vip 4  74018</text>
  <line x1="950" y1="226" x2="972" y2="226" stroke="#d97706" stroke-width="3"/><text x="980" y="230" font-size="12.5" fill="#374151">vip 3  73560</text>
  <line x1="950" y1="248" x2="972" y2="248" stroke="#16a34a" stroke-width="3"/><text x="980" y="252" font-size="12.5" fill="#374151">vip 2  73238</text>
  <line x1="950" y1="270" x2="972" y2="270" stroke="#2563eb" stroke-width="3"/><text x="980" y="274" font-size="12.5" fill="#374151">vip 0  72835</text>
  <line x1="950" y1="292" x2="972" y2="292" stroke="#dc2626" stroke-width="3"/><text x="980" y="296" font-size="12.5" fill="#374151">vip 1  72835</text>
  <text x="80" y="542" text-anchor="start" font-size="12" fill="#6b7280">2026-01-01</text><text x="932" y="542" text-anchor="end" font-size="12" fill="#6b7280">2026-01-31</text>
</svg>
