<svg xmlns="http://www.w3.org/2000/svg" width="1000" height="520" font-family="ui-sans-serif, system-ui, sans-serif" viewBox="0 0 1000 520"><rect width="1000" height="520" fill="#fff"/><text x="78" y="28" fill="#111827" font-size="18" font-weight="700">Zone Recovery — FILUSDC best setting (equity / PnL)</text><text x="78" y="48" fill="#6b7280" font-size="12.5">lev 20 · ratio 3 · gap 20% · maxSteps 4 · maxDD 60% · random · vip 9 · 1070 series, 82.2% win · vol $1746221477 ($1746272228/day) · fees $147730</text><text x="78" y="68" fill="#1d4ed8" font-size="12.5" font-weight="600">USDC · BNB −10% · taker 0.0085%</text><text x="934" y="28" fill="#16a34a" font-size="18" font-weight="700" text-anchor="end">+3395188 USDT (+33951.88%)</text><line x1="78" x2="934" y1="468" y2="468" stroke="#e5e7eb" stroke-width="1"/><text x="68" y="472" fill="#6b7280" font-size="12" text-anchor="end">0.00</text><line x1="78" x2="934" y1="392" y2="392" stroke="#e5e7eb" stroke-width="1"/><text x="68" y="396" fill="#6b7280" font-size="12" text-anchor="end">808949</text><line x1="78" x2="934" y1="316" y2="316" stroke="#e5e7eb" stroke-width="1"/><text x="68" y="320" fill="#6b7280" font-size="12" text-anchor="end">1617899</text><line x1="78" x2="934" y1="240" y2="240" stroke="#e5e7eb" stroke-width="1"/><text x="68" y="244" fill="#6b7280" font-size="12" text-anchor="end">2426848</text><line x1="78" x2="934" y1="164" y2="164" stroke="#e5e7eb" stroke-width="1"/><text x="68" y="168" fill="#6b7280" font-size="12" text-anchor="end">3235797</text><line x1="78" x2="934" y1="88" y2="88" stroke="#e5e7eb" stroke-width="1"/><text x="68" y="92" fill="#6b7280" font-size="12" text-anchor="end">4044746</text><line x1="78" x2="934" y1="467.1" y2="467.1" stroke="#9ca3af" stroke-dasharray="6 4" stroke-width="1.5"/><text x="934" y="461.1" fill="#6b7280" font-size="11" text-anchor="end">start 10000</text><polyline fill="none" stroke="#d97706" stroke-linejoin="round" stroke-width="1.2" points="78 139.6 79.6 139.3 81.3 139.8 82.6 140.3 85.3 140.1 87.7 140.4 89.3 139.4 91.9 140.8 94.5 139.9 96.7 139.6 98.3 138.9 101 138.1 103.3 137.7 107 139.3 109.7 138.1 111.3 138.2 113.1 138.4 114.2 138.1 116.7 137.2 118.3 137.9 120.5 137.9 122.6 137.2 124.4 136.9 126.8 137.6 130.3 137.6 133.1 137.6 136 137.4 138.3 137.7 141.2 138.4 143 137.9 145.4 137.7 147.1 138.1 149.3 137.6 151.2 138.2 152.7 139.1 153.9 139.3 155.5 138.9 157.7 138.6 160 138.2 161.7 137.4 163.7 137.2 165.4 137.6 167.7 137.6 168.6 138.4 169.7 138.4 172.8 138.1 175.5 138.4 178.5 138.4 180.4 138.6 182 138.9 184.7 139.6 186.6 139.9 187.9 140.8 189.4 141 191.5 141.1 194.2 139.4 196.1 138.9 198.1 137.7 199 137.4 200.5 136.2 201.2 136 201.8 134.9 203 134 203.3 133.8 203.7 133.3 204.5 133.3 205.3 133.2 206.1 132.7 207.1 133 207.9 133 209 133.2 209.9 132.7 211.3 132.3 211.6 131.1 211.6 130.8 211.9 130.5 212.6 130.1 213.2 128.9 213.6 128.8 214.2 129.1 214.8 128.8 215.6 129.4 216.6 130.5 217.8 131.6 218.1 132.7 218.6 132.7 219.6 132 220.9 132 221.6 132 222.6 131.5 223.4 132.5 224.4 132.7 225.4 132.2 226.2 131.8 227.1 133.7 228.1 133.2 229.1 132.5 230.4 133.2 231.5 133.3 233 133.3 233.9 133.3 235.1 133.3 236.8 134.5 238.7 134 240 133.5 240.9 134.5 242.1 134.9 242.9 134.9 244.1 134.9 246 134.7 247.9 134.7 249.6 134.2 250.4 133.5 252.1 134 253.7 132.8 256.2 132.5 257.3 132.3 258.8 133.3 259.8 133.7 261.2 133.2 262.4 133 264.1 133.5 267.1 132.7 268.9 132.5 270.3 131.5 271.3 131 272.7 131 274 130.8 275 130.3 275.9 131.6 277.2 131.8 278.4 131.1 279.4 130.3 280.3 129.1 280.6 128.8 281.5 127.8 282.4 126.9 283.1 126.6 283.1 126.1 283.3 126.6 283.7 124.9 284.3 125.4 285 125.9 285.5 125.2 286.2 124.2 286.7 124 287.2 125.7 287.8 125.7 288.6 124.7 289.1 124.2 289.8 124.5 291.2 124.4 292.1 124.2 292.7 124.4 293.3 124.2 293.9 124.5 294.9 125.2 295.8 124.9 296.8 125.2 298 126.6 298.6 126.7 299.7 125.5 300.9 125.5 302.3 125.7 303.5 125.7 304.9 126.4 306.3 126.2 308.1 125.9 308.9 125.9 310.1 126.2 310.8 126.7 312 127.2 313.1 127.6 313.8 128.3 314.6 129.1 315.5 129.4 316.5 128.4 317.7 128.1 319.3 128.1 319.8 127.9 321 128.8 321.9 129.3 322.7 130.3 323.6 130 324.9 128.9 326.8 129.1 328.3 129.6 328.5 130.6 329.4 130.6 331 130.1 332 130.6 333.1 130.1 334.2 128.9 335.2 128.4 336.3 128.3 337.3 130.3 338.1 130.3 339.4 129.8 340.6 128.8 341.7 128.9 342.9 129.3 344.1 127.8 345.3 127.1 346 127.6 347 128.3 348.1 128.6 349.3 127.8 350.5 126.9 351.8 126.7 353.5 127.9 354.9 127.8 355.7 128.8 357.2 128.1 358.2 128.9 359.4 129.3 360.6 129.6 362.2 130.5 363.7 130.5 364.6 128.8 365.9 129.4 366.8 129.3 367.6 127.9 368.8 128.1 370.2 127.4 371.1 127.6 372.9 126.7 373.5 126.4 374.8 127.1 376.1 128.1 378 128.3 379.7 127.9 381.2 128.4 382.4 128.1 383.6 128.3 384.7 127.8 385.4 129.1 386.6 128.4 387.8 128.9 389.5 129.8 390.9 129.3 392.4 129.3 394 128.8 395.8 128.6 396.8 127.8 397.9 127.2 399.1 127.1 399.8 127.1 400.1 126.7 400.9 127.8 401.8 127.4 402.8 127.4 404.3 128.3 406.4 127.2 407.1 128.4 408.5 128.1 410 129.1 412.4 128.8 414.8 127.2 415.7 125.5 416.1 126.1 417.2 126.6 418.6 125.7 420.7 126.2 423 126.9 425 126.9 426.5 126.9 427.7 128.8 428.8 129.8 429.2 129.4 430.6 128.9 432.5 128.9 435.1 128.3 436 128.1 437 127.4 438.4 127.4 440.7 127.6 443.7 127.6 445.7 126.9 447 126.6 448.8 126.7 451.6 126.7 453.8 127.6 455.6 127.1 457.7 126.9 459.9 127.9 462.3 126.9 464.2 126.4 465.2 125.7 467.2 126.1 469.1 126.2 471.9 125.9 473.7 125.4 475.4 126.1 476.5 125.9 477.7 126.6 479.9 126.1 482.7 126.1 484.5 126.4 487.1 125.9 488.5 125.7 489.7 125 491.3 125.4 493.3 125.5 496.3 126.6 498.7 126.4 500.9 124.7 501.5 125.4 502.7 125.4 505 125.4 506.9 125.4 508.7 124.9 510.3 124.9 512.2 125.4 514.4 126.6 516.3 126.6 517.1 125.2 518.2 124.5 519.8 125.7 521.8 125.7 522.3 125.4 522.9 125 523.6 124.9 523.9 124.7 524.1 124.5 524.5 123.9 525 124.2 525.5 122.8 525.9 122.8 526.4 122.7 526.8 122.3 526.9 122 527.3 122.5 527.7 121.7 528.2 122.2 528.6 122.3 528.8 122.3 529.1 121.8 529.5 121.3 529.7 121.5 530 121.8 530.8 121.8 532.4 121.7 533.1 122.2 533.9 122.3 534.1 121.8 534.3 122.5 534.7 122.3 535 121.8 535.3 121.7 536 121.8 536.5 121.7 536.7 121.5 537.1 121.3 537.4 121 537.6 120.5 537.8 120.1 538.2 119.8 538.9 120.5 539.6 120.1 541.1 121 542.3 121.5 542.9 121.5 544 121 545.1 122 545.6 120.6 546.4 120.8 547.1 120.8 548.1 121.1 550.2 121.3 551.9 120.5 553 119.3 553.3 118.1 553.7 117.6 554.6 118.8 555.4 120 556.3 118.3 557 117.9 557.3 116.9 557.5 116.1 557.6 115.9 557.8 114.7 558 115.1 558.3 115.7 558.9 116.2 559.3 117.1 559.8 117.4 560 116.9 560.4 117.4 560.6 116.4 561.2 117.8 562 117.9 562.5 118.9 562.6 119.6 562.7 119.3 562.9 120 563.2 119.8 563.5 120.6 564 120.1 564.6 119.6 565.4 119.3 566 119.8 566.5 119.6 567.1 119.3 567.7 120 568.5 120 569 120 569.7 120.3 570.2 119.6 571 121 571.4 121.5 571.5 122.5 571.7 122.2 572.3 122.3 572.7 122 573.6 122.7 574.1 123 575.2 122.3 576.5 122 577.3 121.8 577.5 121.5 578.1 122.7 579 121.7 579.9 121.5 581.2 121.7 582.7 122.3 584 122.7 585.1 123.2 585.8 124 586.4 123.7 587 124.2 587.5 124.7 587.9 125.7 588.1 125.5 588.7 124.9 589.4 125.2 590.6 124.9 591.2 124.5 592.2 124.5 593.3 124.2 594.1 125 595.3 125.9 595.9 125.2 596.5 125 597.5 124.7 598.8 124.7 600 124.5 601.3 124.7 602.2 125.7 603 125.7 604.1 125.5 605.3 125.9 606.5 124.7 607.7 124 608.4 124.7 610.1 125 611.3 125 611.8 126.7 611.8 128.1 611.9 127.4 611.9 127.8 612 128.6 612 128.9 612 128.1 612.1 128.6 612.2 129.6 612.3 130.3 612.3 129.3 612.4 129.6 612.5 127.9 612.6 128.8 612.7 127.6 612.8 127.8 613 127.9 613.1 127.6 613.2 128.1 613.4 128.6 613.5 128.8 613.6 129.8 613.7 129.4 613.8 129.8 613.8 131 613.8 131 613.9 130.8 613.9 131.3 614 131.8 614 131.1 614.1 131.6 614.1 132.3 614.2 131.3 614.2 131.1 614.3 131.8 614.4 132.5 614.5 132.2 614.6 131.8 614.6 130.8 614.7 131.5 614.8 131.3 614.9 131.6 614.9 130.3 615 130.8 615.2 131.3 615.3 131.1 615.4 131.5 615.5 131.8 615.6 133.3 615.7 132.5 615.8 132.2 615.9 131.5 616 131.8 616.2 132.2 616.4 132.5 616.5 132.3 616.6 130.8 616.7 131.3 616.8 132.2 616.9 131.5 617.1 130 617.2 130.8 617.3 131.3 617.4 130.8 617.7 130.5 617.9 130.6 618 130.1 618.3 131.3 618.5 131.1 618.6 131.5 619 131.1 619.2 130.1 619.5 129.4 619.8 128.9 620.2 129.4 620.4 129.6 621 129.6 621.4 129.1 621.8 130.1 622.2 129.6 622.5 129.6 622.8 130.3 623.2 130.6 623.5 131.6 623.6 132.2 623.7 131.5 623.8 132.2 624.1 132.5 624.4 132 624.8 132.5 625 133.2 625.1 132.5 625.3 133.2 625.6 133.3 625.8 133.2 625.9 135 626 135 626.1 134.7 626.1 134.2 626.2 134.9 626.3 134.4 626.5 133.7 626.7 133.5 626.7 133.5 626.9 134.2 627.1 134.9 627.2 135.2 627.3 134.9 627.5 134.9 627.7 135.5 627.8 137.1 627.8 136.6 627.9 135.9 628 137.1 628.1 137.1 628.2 136.7 628.3 136.2 628.4 136.2 628.5 135.5 628.5 135.2 628.7 136 628.9 136.4 629.1 136.2 629.3 135.7 629.4 134.9 629.7 134.2 629.9 134.9 630.2 135.7 630.6 136.4 630.9 137.6 631 137.7 631.1 138.8 631.2 139.3 631.2 139.6 631.3 140.3 631.3 140.8 631.4 140.6 631.4 140.8 631.5 139.8 631.5 139.8 631.6 141 631.7 142.1 631.8 141 631.8 141.1 631.9 142 631.9 142.5 632 142.8 632 141.3 632.1 140.4 632.1 140.1 632.2 139.6 632.3 140.1 632.3 140.1 632.4 140.6 632.5 140.6 632.6 141.6 632.7 140.6 632.7 141.1 632.8 140.4 632.9 141.1 633 140.3 633.1 141.6 633.2 141.6 633.3 142 633.4 143.2 633.4 144.3 633.5 142.8 633.6 143.5 633.6 144.5 633.7 143.8 633.7 143.8 633.8 142.5 633.9 142 633.9 142.3 634 141.8 634.1 141.5 634.2 141 634.4 141.5 634.5 142.3 634.6 141.3 634.7 141.1 634.9 141.1 635 140.4 635.2 139.8 635.4 139.4 635.6 138.8 635.7 139.1 635.9 138.1 636 138.9 636.2 139.1 636.4 138.8 636.5 137.7 636.7 138.6 636.9 139.1 637.1 139.6 637.3 140.8 637.4 141.1 637.5 140.6 637.6 139.8 637.8 139.1 638.1 139.1 638.4 138.6 638.6 138.4 638.8 137.9 639 137.6 639.2 137.4 639.4 137.2 639.7 137.1 640 137.7 640.2 138.4 640.5 137.9 640.8 138.4 641.4 138.9 641.7 139.1 641.8 139.3 642.2 139.3 642.6 139.4 642.8 139.1 643.2 139.1 643.7 138.6 644.1 139.4 644.4 139.4 644.8 139.3 645.2 138.8 645.5 138.2 645.9 139.1 646.4 139.6 646.9 139.8 647.4 140.1 647.8 139.9 648.1 139.6 648.7 140.1 649.3 140.6 649.7 141 650 141 650.5 141.5 650.9 140.4 651.3 141.3 651.9 140.3 652.2 139.6 652.5 138.9 652.9 139.1 653.2 138.8 653.7 138.1 654.2 137.4 654.6 138.1 655.1 138.4 655.5 138.8 655.9 138.8 656.6 139.4 657.4 139.6 657.8 139.4 658.3 139.3 658.8 140.3 659 140.3 659.6 140.4 660.1 141 660.7 140.3 661.4 139.9 662 138.8 662.6 137.9 663.1 137.7 663.6 137.4 664 136.9 664.6 137.4 665.4 137.2 666.1 137.6 666.8 138.2 667.4 138.6 667.8 137.6 668.5 136.9 669.2 137.7 669.6 138.1 670.1 137.9 670.7 137.1 671.3 137.2 672.4 137.1 673.1 137.7 674.1 138.1 674.9 139.3 675.1 139.8 675.6 139.9 676.1 140.3 676.8 139.4 677.6 141.3 678.2 141.3 678.8 141.3 679.4 140.8 680.3 140.4 680.9 140.8 681.4 141.3 681.9 141.3 682.4 141.3 683.2 142.1 684 141.6 684.7 140.6 685.2 141.5 686 142 686.1 141.6 686.5 142.1 686.7 142 687.1 142.3 687.3 143.2 687.5 144 687.7 143.7 688.1 142.8 688.9 143.3 689.3 143 689.9 143.5 690.6 143.7 691.2 143.5 691.5 142.1 692 142 692.8 143.3 693.4 143.2 694.2 142.1 694.8 142.1 695.2 141.8 695.7 142 696.5 142.6 697.1 143.2 698.1 141.6 699.4 142.6 700.5 142.5 701.5 141.6 702.3 141.5 703.1 141.6 703.7 142.5 704.6 142.3 705.2 143 705.7 143.5 706.1 144.7 706.4 144.3 706.8 146.4 707 145.4 707.3 145.7 707.6 146 708.2 145.9 708.5 146.2 709.2 145.4 709.8 145.7 710.5 145.9 711.3 145.9 711.7 147.2 712 147.9 712.3 147.1 712.9 146.7 713.3 145.9 713.9 146.2 714.3 145.9 715 145.5 715.6 146.4 716.5 145.7 717.3 145.7 718.4 146.2 719.6 146.5 720.4 147.2 721.1 146.9 721.6 145.9 722.2 146.4 723.2 146.4 724 146.2 724.4 147.1 724.9 146.4 726 146.9 727 146.5 728.1 147.6 729.2 146.9 730.2 146.7 731.1 148.1 731.4 148.2 732 147.2 732.8 146.4 733.5 145.9 734.5 146.5 735.8 145.7 737.7 146.9 738.6 146.9 740.1 146.2 741.7 147.1 742.8 147.7 743.7 148.2 744.1 148.6 744.8 147.9 745.9 147.6 746.8 147.9 747.5 147.9 748.2 148.2 748.9 149.3 749.5 148.6 750.4 148.6 751.1 148.2 752.6 148.6 753.8 148.6 755.7 149.3 756.5 149.1 757.7 149.1 758.9 150.1 759.4 150.6 760.1 149.9 760.9 151.3 761.1 150.4 761.8 151.3 762.3 150.4 762.8 151.3 763.1 150.9 764 150.4 764.8 151.8 765.6 151.3 766.2 150.9 767.2 151.5 767.8 151.5 768.1 152.3 768.3 152.1 768.6 153.3 768.8 153.1 768.9 153 769.1 153.5 769.4 153.1 769.8 153.8 770.2 153.3 770.9 151.5 771.5 152.1 772.2 153.3 772.6 154.2 772.8 155.3 772.9 155.5 773 154.8 773.2 155.7 773.3 156.7 773.3 156.5 773.4 156.7 773.5 158.2 773.5 157.5 773.6 157.2 773.7 156.2 773.7 156.5 773.9 155.9 774 155 774.2 155.5 774.4 155.7 774.6 155.2 774.8 155.9 775 155.7 775.3 156.2 775.5 157.2 775.7 156.9 775.9 157 776.2 157.2 776.6 156.7 777 156.4 777.5 156 778.2 155.9 778.6 155 778.8 155.5 779.2 155.9 779.8 155.2 780.4 154.5 780.7 153.7 781.1 153.8 781.6 153.1 782.2 152.6 782.7 151.6 783.2 152.6 783.5 153.1 783.9 152.5 784.3 151.8 784.5 152 784.9 151.8 785.6 152.6 786.1 153.5 786.6 153.8 787.3 153.1 788 153.7 788.4 154.7 788.6 154.5 789.1 154.3 789.8 153.3 790.4 154.2 790.9 154.5 791.5 154.5 792.2 154.5 792.6 155.5 793 154.8 793.6 154.3 794.3 153.5 795.2 153.5 796 154 797.1 154.7 797.8 154.3 798.7 154 799.4 153.7 800.2 153.1 801.4 152.6 802.3 153.7 803.5 153.5 804.4 152.8 804.9 152.3 805.8 152 806.8 152.1 808.3 151.6 809.3 151.6 809.9 152 811 152 812.2 152.1 813.3 152 814.8 151.5 815.8 151.5 817.6 151.1 818.7 151.6 819.4 151.3 820.2 150.9 821.2 152.3 821.2 154 821.3 153.3 821.4 154.2 821.5 154.2 821.6 154.5 821.7 154.2 821.8 154 822 154.8 822 155.2 822.1 156.2 822.2 155.5 822.3 155.3 822.4 156.4 822.4 156.4 822.6 157 822.6 157.2 822.7 157.2 822.7 158.2 822.8 158.2 822.8 158.4 822.8 159.2 822.8 158.6 822.9 159.1 822.9 158.6 823 158.6 823 157.9 823.1 157.5 823.2 158.4 823.3 159.7 823.4 160.3 823.4 161.1 823.4 161.3 823.5 161.3 823.5 160.6 823.6 159.7 823.6 160.3 823.6 160.1 823.7 160.3 823.7 160.9 823.7 161.4 823.8 160.4 823.8 159.6 823.9 159.6 824 160.8 824 159.9 824.1 159.7 824.1 159.4 824.2 160.6 824.3 160.6 824.4 160.4 824.5 160.3 824.6 161.9 824.6 162.8 824.7 163.3 824.7 164.1 824.8 164.1 824.8 165.8 824.9 167.9 824.9 168.9 825 167.7 825 166.2 825 165.8 825.1 165.3 825.1 165.7 825.2 166 825.2 165.3 825.3 165.7 825.3 165.8 825.3 165 825.4 164.7 825.4 165 825.5 166.2 825.5 166.5 825.6 165.7 825.6 165.8 825.7 166.9 825.8 165.8 825.9 166.7 826 166.5 826.1 167 826.1 166.5 826.2 165.7 826.3 166.3 826.4 168.4 826.4 169.4 826.5 169.1 826.5 168.4 826.6 169.1 826.6 169.4 826.7 169.9 826.7 170.8 826.8 172.1 826.8 172.4 826.9 174.5 826.9 175.5 826.9 175.5 826.9 173.1 827 174.8 827 173.8 827.1 174.6 827.1 175 827.2 176.3 827.2 175.7 827.2 178.9 827.2 176.5 827.2 175.3 827.3 173.6 827.3 174.5 827.3 173.8 827.4 174.6 827.4 175.7 827.4 175.7 827.5 178.2 827.5 178 827.5 180.1 827.5 180.6 827.5 181.8 827.6 180.1 827.6 180.6 827.6 178.9 827.7 179.2 827.7 179.2 827.7 178.9 827.8 177.9 827.8 176.8 827.8 176.5 827.9 176.3 827.9 175.8 828 175 828.1 174.1 828.2 174.3 828.2 175 828.3 175 828.3 174.1 828.4 173 828.4 173.5 828.5 173 828.5 174.5 828.6 173.8 828.7 173.8 828.8 173.6 828.9 173.3 829 172.1 829 175.7 829 175.8 829 176.8 829 175 829 173.8 829 174.1 829 174 829.1 173.8 829.1 174 829.2 172.3 829.2 173.3 829.3 174.6 829.3 175.8 829.4 175.7 829.5 175.2 829.6 174.5 829.7 174.5 829.8 173.6 830 172.8 830.1 171.8 830.2 173 830.3 172.6 830.4 173.6 830.5 174.1 830.7 174.3 830.8 173.3 830.9 174.6 830.9 174.5 831.1 175.2 831.2 174.6 831.3 173 831.5 173.6 831.7 174 831.8 175 832 175.5 832.1 175.3 832.3 176 832.4 175.2 832.5 175 832.7 173.5 832.8 172.1 833 172.4 833.2 173.6 833.4 174.6 833.5 174.6 833.6 174.3 833.7 175.2 833.8 176.2 833.9 176.8 833.9 176.7 834 176.7 834.1 177.2 834.2 176.8 834.2 178 834.2 177.4 834.3 177 834.3 178 834.4 178.7 834.4 179.2 834.4 179.9 834.4 180.9 834.5 180.6 834.5 181.4 834.5 182.8 834.6 183.4 834.6 182.4 834.6 184.1 834.7 183.8 834.7 184.3 834.7 186.7 834.8 188.5 834.8 188.7 834.9 189.5 834.9 191.4 834.9 193.3 835 192.6 835 196 835.1 199.9 835.1 199.7 835.1 195.8 835.2 192.1 835.2 194.5 835.3 196.1 835.3 198.3 835.3 202.2 835.3 197.7 835.3 196.1 835.3 194.3 835.4 192.9 835.4 194.3 835.4 195.6 835.5 198.5 835.5 203.4 835.5 205.3 835.6 206.1 835.6 207.5 835.6 209.5 835.6 213.2 835.6 210.7 835.7 213.2 835.7 210 835.7 214.9 835.7 213.1 835.7 208.5 835.7 212.7 835.7 216.5 835.7 212.2 835.8 211.4 835.8 213.8 835.8 211 835.8 212.1 835.8 210.5 835.8 207.3 835.8 206.6 835.9 205.8 835.9 205.3 835.9 205.8 835.9 204.8 836 206.8 836 207.5 836 205.6 836 204.6 836.1 203.1 836.1 205.3 836.1 204.8 836.2 203.6 836.2 205.1 836.3 206.5 836.3 210.7 836.3 214.9 836.3 210.4 836.4 209.7 836.5 212.1 836.5 214.1 836.5 214.9 836.5 217.3 836.6 218.5 836.6 221.9 836.6 224.2 836.6 226.4 836.6 230.3 836.6 230.2 836.6 232.5 836.7 235.6 836.7 236.8 836.7 238.6 836.7 235.8 836.7 234.7 836.7 235.1 836.8 232.9 836.8 234.1 836.8 230.2 836.8 232 836.8 232.5 836.9 235.1 836.9 234.9 836.9 237.1 836.9 240.5 836.9 242.9 836.9 244.1 836.9 242.9 837 240.7 837 238.8 837 237.3 837 240.5 837 243.4 837.1 247.6 837.1 250.5 837.1 253.2 837.1 255.1 837.1 257.8 837.1 257.1 837.1 259.6 837.1 260.1 837.1 263.9 837.2 264.7 837.2 266.1 837.2 264.4 837.2 267.1 837.2 266.7 837.2 266.6 837.2 263.2 837.2 260.3 837.2 259.5 837.3 260 837.3 257.4 837.3 255.7 837.3 256.9 837.3 259.6 837.3 259.1 837.3 259.6 837.3 260.8 837.4 264.4 837.4 269.6 837.4 270.1 837.4 270.5 837.4 273.3 837.5 277.2 837.5 278.8 837.5 278.9 837.5 292 837.5 284.5 837.5 285.2 837.5 284.3 837.5 286.9 837.5 289.1 837.5 288.4 837.5 278.3 837.5 284.5 837.5 280.8 837.5 282.1 837.5 279.3 837.5 281.8 837.6 281.8 837.6 283.8 837.6 289.3 837.6 287.6 837.7 285.9 837.7 287.9 837.7 282 837.7 288.2 837.7 284.5 837.7 285.2 837.7 286.4 837.7 288.4 837.7 291.5 837.7 290.6 837.8 293.8 837.8 298.4 837.8 297.9 837.8 299.8 837.8 302.1 837.8 305.7 837.8 305.7 837.8 307.7 837.8 313 837.8 312.8 837.8 316.2 837.9 316 837.9 313.5 837.9 315.3 837.9 318.5 837.9 322.3 837.9 324.3 837.9 327.7 837.9 331.8 838 342.8 838 341.9 838 344.1 838 346.3 838.1 356 838.2 365.6 838.2 371.4 838.3 368.7 838.4 369.3 838.4 381.9 838.5 398.3 838.5 397.9 838.6 394.7 838.7 406.1 838.8 408.8 838.8 404.7 838.9 404.2 839 391.3 839 386.6 839 388.5 839 398.1 839.1 399.6 839.2 410 839.3 422.3 839.4 435.7 839.5 440.8 839.5 429.9 839.7 418.9 839.9 436.4 840 430.8 840.1 431.3 840.3 436.9 840.4 424.2 840.5 423 840.5 434.9 840.6 427.6 840.6 408.9 840.7 434.5 840.9 431.3 841 432.8 841.1 430.3 841.3 431.6 841.4 419.4 841.5 414.4 841.7 414.9 841.8 428.8 841.9 418.1 842 418.9 842.1 417.9 842.1 418.9 842.3 419.6 842.4 416.4 842.5 418.9 842.6 410.8 842.7 416.7 842.8 403.5 842.9 416.2 843 411.7 843.1 395.2 843.2 400.1 843.3 401 843.4 389.8 843.4 399.5 843.5 387.1 843.6 398.1 843.6 376.1 843.6 375.6 843.6 370.5 843.7 385.6 843.7 369.7 843.8 369.3 843.8 364.8 843.8 372.7 843.9 355.8 843.9 355.3 843.9 351.1 844 361 844.2 369 844.3 355.3 844.4 355.6 844.5 368.7 844.7 374.8 844.8 385.1 844.9 387.8 845 388.8 845.1 382 845.2 383.9 845.3 395.4 845.4 388.6 845.5 387.6 845.5 378.1 845.5 379.8 845.6 382.7 845.6 374.1 845.7 369.8 845.7 378 845.8 373.1 845.9 370.9 846 367.8 846 357 846.1 370.7 846.1 370.7 846.1 373.7 846.1 378.8 846.1 379 846.1 379.7 846.2 373.7 846.3 371.2 846.3 366.5 846.4 374.1 846.4 373.7 846.5 377 846.6 376.4 846.7 373.7 846.7 367.5 846.9 372.6 847 369.2 847 354.9 847.1 352.1 847.2 350.2 847.2 337.7 847.2 337.2 847.3 342.8 847.3 345.3 847.4 343.3 847.4 344.3 847.5 334.3 847.5 351.7 847.5 342.4 847.6 347.2 847.6 340.6 847.7 339.7 847.7 336.5 847.8 338.2 847.8 338.9 847.8 347 847.9 346.5 847.9 350 848 354.3 848.1 366.6 848.2 366.8 848.2 362.7 848.3 369.2 848.4 364.4 848.4 350.5 848.5 348.5 848.6 349 848.8 355.6 848.9 367.8 848.9 369.3 849 361.7 849.2 357.7 849.3 359.3 849.4 360 849.5 366.6 849.6 356.5 849.7 354.6 849.8 364.1 849.8 368.3 850 371.9 850 374.8 850.1 364.9 850.2 353.4 850.3 357.8 850.4 358.7 850.4 345.8 850.5 358.8 850.6 361.2 850.7 361.5 850.8 354.1 850.9 356.6 851 355.5 851.2 355.1 851.4 356.3 851.5 362.7 851.5 361.4 851.7 360.2 851.8 357.7 851.9 361.5 852 360.4 852.1 362.6 852.2 356.5 852.2 367.3 852.3 360.7 852.4 355.1 852.5 348.2 852.6 352.7 852.6 348.7 852.7 348.3 852.7 330.7 852.8 326 852.8 322.6 852.9 316.3 852.9 309.2 853 313.8 853.1 309.2 853.2 308.9 853.3 288.8 853.3 298.2 853.4 312.6 853.5 312.8 853.6 329.7 853.7 322.8 853.8 328.4 853.9 314.1 853.9 300.8 853.9 294.2 854 280.1 854 279.8 854 281.6 854.1 257.1 854.2 251.3 854.2 254.2 854.3 260.1 854.3 273.2 854.3 267.6 854.4 257.3 854.4 258.8 854.4 256.1 854.4 248.6 854.4 254.2 854.5 258.3 854.5 249.6 854.5 258.6 854.5 263.7 854.6 273 854.6 242.4 854.6 249.3 854.6 253.4 854.6 242.9 854.7 258.1 854.7 267.8 854.7 265.4 854.7 281.8 854.7 274.2 854.8 242.2 854.8 263.7 854.8 254.2 854.8 276.7 854.9 293.8 854.9 263.7 854.9 243.4 854.9 250.5 855 262.5 855 263.7 855 262 855 247.3 855 240.3 855.1 253.9 855.1 256.4 855.1 261.5 855.1 240.2 855.1 250.7 855.1 267.9 855.1 270.6 855.2 256.2 855.2 248.8 855.2 251.2 855.2 258.1 855.2 244.4 855.2 254.7 855.3 247.6 855.3 255.2 855.3 255.1 855.3 247.6 855.3 257.9 855.4 262.5 855.4 258.4 855.5 263.5 855.6 263.7 855.7 258.4 855.7 266.1 855.8 268.4 855.8 257.9 855.8 269.8 855.9 274 856 270.1 856 276.9 856.1 285.5 856.1 278.8 856.1 281.6 856.2 267.6 856.2 272.8 856.3 276.7 856.3 269.3 856.3 251.7 856.4 255.1 856.4 253.7 856.5 271.8 856.5 267.1 856.5 265.9 856.6 253.7 856.6 251 856.6 261.2 856.7 261.2 856.7 263.2 856.8 263.7 856.8 263.5 856.9 273.9 857 265.2 857 270.3 857.1 272.7 857.1 281.1 857.1 281 857.1 285.2 857.2 272.8 857.2 277.9 857.3 272.8 857.3 274.2 857.3 273.9 857.4 274.7 857.4 268.1 857.4 275.9 857.5 274.9 857.5 275.7 857.6 276.2 857.6 270.3 857.6 277.4 857.7 274.5 857.8 283 857.8 271.8 857.8 283.8 857.9 283.8 857.9 262.7 858 274.4 858 268.1 858.1 272.8 858.1 274.9 858.2 269.8 858.2 262.3 858.2 260.1 858.3 264 858.3 262.7 858.4 267.9 858.5 267.9 858.6 256.6 858.6 268.8 858.7 262 858.8 268.8 858.8 257.8 858.9 262.8 859 269.6 859.1 271.3 859.1 264 859.2 272.3 859.3 266.4 859.3 273.5 859.4 269.8 859.5 277.6 859.6 271.8 859.7 277.4 859.7 277.6 859.8 273.2 859.8 284.2 859.9 278.9 859.9 280.3 859.9 269.6 860.1 269.8 860.1 282.8 860.2 273 860.2 278.3 860.3 270.1 860.3 272.8 860.4 275.7 860.4 275.2 860.5 267.8 860.6 268.1 860.7 271.1 860.7 283 860.7 294.7 860.7 290.4 860.8 283.2 860.8 287.4 860.9 288.1 860.9 280.5 860.9 273 861 274.7 861 273.3 861 280.8 861.1 286.7 861.1 270.6 861.1 271 861.1 272.8 861.2 283.2 861.2 283.3 861.2 276.2 861.2 275.4 861.3 280.6 861.3 278.8 861.3 278.8 861.4 280.5 861.4 280.8 861.4 272 861.5 281.1 861.5 280.3 861.5 263.7 861.5 265 861.6 274.5 861.6 263.4 861.6 272.5 861.7 283.2 861.7 279.1 861.7 276.9 861.8 284.3 861.9 282.1 861.9 281.8 861.9 283.5 861.9 279.9 862 278.8 862 276.9 862 276.6 862.1 274.9 862.1 276.9 862.1 275.9 862.1 275.5 862.2 276.4 862.2 273.2 862.2 274 862.2 276.6 862.3 278.8 862.3 276.6 862.3 272.5 862.3 277.4 862.3 276.2 862.4 274.4 862.4 277.2 862.4 277.9 862.4 277.9 862.5 281.1 862.5 276.9 862.5 278.1 862.6 280.1 862.6 282.7 862.6 278.3 862.7 277.1 862.7 276.1 862.7 272.8 862.8 274.7 862.8 275.5 862.8 273.9 862.8 276.4 862.8 276.2 862.9 276.6 862.9 278.3 862.9 279.8 862.9 282.3 862.9 272.8 862.9 279.3 863 278.4 863 282.8 863 285 863 282.8 863 282.3 863.1 287.2 863.1 285.2 863.1 279.8 863.1 282.5 863.1 282.3 863.2 283.3 863.2 282.8 863.2 279.8 863.2 280.6 863.3 279.6 863.3 278.8 863.3 278.3 863.3 272.5 863.3 278.8 863.3 277.6 863.4 278.9 863.4 280.3 863.4 282.5 863.5 283.5 863.5 281 863.5 282.1 863.6 285 863.6 284 863.6 282.3 863.6 279.8 863.7 281.3 863.7 279.6 863.7 281 863.7 280.6 863.7 279.6 863.8 282.5 863.8 278.9 863.8 278.8 863.8 270.1 863.9 275.7 863.9 272.7 863.9 266.4 863.9 266.4 863.9 274.7 863.9 262.3 863.9 253.2 863.9 259.1 863.9 254.2 863.9 248.1 863.9 263.7 863.9 254.2 863.9 248.1 863.9 263.7 863.9 244.4 863.9 246.1 863.9 259.5 863.9 263.9 864 278.1 864 278.8 864.1 273 864.2 254.4 864.2 257.6 864.2 276.7 864.2 278.4 864.3 278.6 864.4 278.9 864.4 273.5 864.4 274.7 864.5 272 864.5 271.1 864.5 269.3 864.5 270.5 864.6 270.8 864.6 271 864.6 273.5 864.6 271.3 864.7 272.5 864.7 274.5 864.7 274.4 864.8 275.7 864.8 277.1 864.8 276.7 864.9 276.6 864.9 274.4 864.9 273.3 865 276.4 865 274.7 865 274.5 865.1 276.4 865.1 276.2 865.1 276.7 865.1 277.7 865.2 279.1 865.2 280.1 865.2 282.8 865.2 281 865.3 282.7 865.3 284.9 865.3 283.5 865.4 287.2 865.4 287.2 865.4 290.3 865.4 293.2 865.5 293.2 865.5 286.2 865.5 289.1 865.5 291.8 865.6 286.9 865.6 288.4 865.6 288.4 865.6 288.8 865.7 289.1 865.7 283.5 865.7 289.3 865.7 288.8 865.8 289.9 865.8 284.9 865.8 287.6 865.8 288.8 865.9 291.3 865.9 287.4 865.9 290.4 866 290.8 866 290.1 866 293.2 866.1 292.5 866.1 292 866.1 298.7 866.2 287.6 866.2 298.6 866.3 290.1 866.3 293.5 866.3 288.6 866.4 290.6 866.4 287.1 866.5 291 866.5 290.3 866.6 287.9 866.6 287.6 866.6 285.5 866.7 286.2 866.7 292.1 866.7 285.2 866.7 293.3 866.8 289.6 866.8 294.3 866.9 291.3 866.9 294 866.9 289.8 866.9 289.1 867 294 867 298.9 867 293.3 867 294.3 867.1 297.9 867.1 294.3 867.1 296.9 867.2 292.1 867.2 291.5 867.3 291.3 867.3 291 867.4 298.7 867.4 297.9 867.4 297.7 867.5 296.9 867.6 296.4 867.6 296.2 867.6 294.3 867.7 295 867.7 295 867.8 293.5 867.8 297.2 867.9 296 867.9 296.5 868 295.7 868 296.5 868 294.2 868.1 294.8 868.1 293.5 868.2 292.5 868.2 289.6 868.2 285.5 868.3 289.6 868.3 292.5 868.3 289.9 868.4 286.7 868.4 287.1 868.4 291 868.4 288.2 868.5 281.6 868.5 285.2 868.6 292.6 868.6 285.7 868.6 283 868.6 282.7 868.6 286.4 868.7 283.7 868.7 278.9 868.7 278.6 868.7 285.2 868.7 281.6 868.7 284.2 868.7 282.7 868.8 278.4 868.8 280.5 868.8 290.3 868.8 292.1 868.8 289.9 868.8 288.4 868.8 289.9 868.9 290.3 868.9 288.9 869 289.4 869 285.7 869 287.6 869 282.7 869.1 281.1 869.1 289.1 869.1 285.2 869.2 289.9 869.2 289.9 869.2 284.9 869.2 283 869.2 285.4 869.3 280.6 869.3 284.2 869.3 283.2 869.4 286 869.4 283 869.4 288.8 869.4 289.8 869.5 281.6 869.5 285.2 869.5 286.2 869.6 283 869.6 284.7 869.6 283 869.6 284.9 869.6 283 869.6 285.2 869.7 283 869.7 283 869.7 285.5 869.8 284.5 869.8 283.7 869.8 279.9 869.8 284 869.9 284.9 869.9 288.2 869.9 288.8 869.9 284.5 869.9 287.1 870 287.2 870 286.9 870 288.4 870 287.9 870 287.9 870.1 289.1 870.1 289.4 870.2 289.8 870.2 289.8 870.3 288.6 870.3 289.3 870.3 288.1 870.3 287.9 870.3 283.3 870.3 283.5 870.4 285.5 870.4 285.4 870.4 286.9 870.5 288.9 870.5 290.1 870.5 290.4 870.5 288.6 870.5 285 870.5 286.7 870.6 286.9 870.6 286 870.6 282.7 870.6 283.3 870.6 283.5 870.6 284.9 870.7 283.5 870.8 284.2 870.8 282.3 870.8 283.2 870.8 280.5 870.8 284.2 870.8 284.2 870.9 282.3 870.9 283.8 870.9 282.3 871 279.4 871 280.5 871.1 280.5 871.1 279.3 871.2 278.4 871.2 276.9 871.3 275 871.3 275 871.4 276.2 871.5 274.9 871.5 271.8 871.6 272.2 871.7 273.3 871.8 272.3 871.8 273.5 871.8 272 871.9 272.3 871.9 273.2 872 273.7 872 273.2 872.1 273.2 872.1 272.5 872.2 273.5 872.2 274.7 872.3 274.5 872.3 272.8 872.3 273.9 872.4 274 872.4 273.2 872.5 274 872.5 273.3 872.5 272.7 872.6 271.5 872.7 272.3 872.7 273.9 872.8 272.3 872.8 272 872.9 274.4 872.9 273.9 873 272.7 873 272.2 873.1 271.8 873.1 273.7 873.2 272.2 873.2 273 873.2 274.4 873.3 274 873.3 273.7 873.4 273.2 873.5 274 873.5 273 873.6 272 873.7 271.5 873.7 272.7 873.8 273.5 873.9 274.4 873.9 273.7 874 274.4 874 273.9 874.1 273.9 874.2 275.5 874.2 275.4 874.2 276.7 874.3 276.4 874.3 277.4 874.4 275.9 874.4 275 874.5 274.9 874.5 274 874.6 273.3 874.6 273.7 874.7 274.9 874.8 274 874.8 274.7 874.9 274.2 875.1 274.4 875.2 276.1 875.3 275.5 875.3 274.4 875.3 275.4 875.4 274.5 875.5 275.5 875.5 275.5 875.5 276.7 875.5 276.9 875.6 277.2 875.6 278.3 875.6 277.6 875.6 276.1 875.6 277.1 875.6 275.4 875.6 277.6 875.6 277.6 875.6 274.9 875.7 275.2 875.7 275.5 875.7 277.2 875.7 276.4 875.7 276.2 875.7 276.2 875.7 274.7 875.7 275 875.8 274.7 875.8 274.9 875.8 274 875.8 277.2 875.9 278.1 876 277.9 876.1 277.6 876.2 278.6 876.2 278.6 876.4 279.8 876.5 281.1 876.6 283.8 876.6 284 876.6 285.2 876.7 284.2 876.8 283.5 876.9 282.7 877 282.3 877.1 284.2 877.2 282.8 877.4 283.7 877.5 284.2 877.5 283.3 877.5 283.8 877.6 285.9 877.6 284.7 877.7 284.2 877.7 286.4 877.8 284.7 877.9 286 878.1 286.2 878.2 286.4 878.3 286.2 878.4 285.7 878.6 287.6 878.7 290.1 878.7 289.8 878.8 289.3 878.9 288.2 878.9 289.4 878.9 290.1 879 291.8 879 291.3 879 291 879 290.1 879.1 290.1 879.1 289.8 879.2 289.8 879.2 289.4 879.2 289.8 879.3 290.3 879.3 290.3 879.3 290.1 879.3 291 879.4 288.9 879.4 288.9 879.4 288.8 879.4 288.9 879.5 286.9 879.5 287.1 879.5 287.6 879.5 287.4 879.5 287.6 879.5 286.7 879.5 287.1 879.6 286.4 879.6 286.9 879.6 286.2 879.6 286 879.7 285.5 879.7 285.4 879.7 286.5 879.7 285.7 879.8 285.9 879.8 285.7 879.8 283 879.8 281.3 879.9 282.1 879.9 283 879.9 284.3 879.9 284.3 879.9 285.4 879.9 286.7 879.9 289.1 879.9 288.9 879.9 285.5 879.9 284.7 879.9 285 879.9 285.4 879.9 285.9 879.9 284 879.9 285.5 879.9 284.9 879.9 284.3 879.9 283.8 880 283 880 284.2 880 285 880 283 880.1 282.8 880.1 283.2 880.2 283.5 880.3 283.2 880.3 284.2 880.4 285 880.5 284.7 880.6 285 880.7 283.8 880.7 284.9 880.8 285.2 881 285.4 881 286.5 881 285.7 881.2 285.4 881.4 284.5 881.5 284.3 881.7 284 881.7 284.9 881.8 285.5 881.9 285.4 881.9 284.7 882 284.3 882.2 284.9 882.3 282.8 882.4 282.1 882.5 280.3 882.6 280.5 882.6 280.8 882.6 280.3 882.6 280.6 882.6 279.6 882.6 281.1 882.7 283 882.9 284.9 882.9 284.2 882.9 284.2 882.9 285.2 882.9 284.5 882.9 284.2 883 282.5 883.2 280.8 883.3 281.3 883.4 281 883.5 277.6 883.5 279.8 883.6 279.1 883.8 278.9 883.9 278.9 884 279.8 884.1 280.3 884.1 280.3 884.1 280.3 884.1 280.3 884.1 281 884.2 280.8 884.2 281.1 884.2 281.5 884.3 281.8 884.4 280.1 884.4 279.1 884.5 278.6 884.5 278.1 884.5 278.6 884.6 279.1 884.6 279.3 884.7 279.8 884.8 279.4 884.8 278.4 884.9 279.6 885 279.6 885.1 278.1 885.2 277.9 885.3 277.2 885.4 277.4 885.5 275.9 885.6 273.9 885.6 273.7 885.7 276.1 885.7 276.7 885.7 276.9 885.7 275.5 885.8 274.9 885.9 275.4 885.9 275 885.9 275.2 886 275 886 274.7 886 272.5 886 274.9 886 274.7 886 273.3 886.1 272.8 886.1 271.5 886.2 273.2 886.3 272.3 886.3 271.5 886.4 271.3 886.4 271.1 886.5 271 886.5 271.5 886.5 272.2 886.5 272.5 886.6 272.7 886.6 272.8 886.7 274.7 886.8 274.7 886.8 273.3 886.8 273.3 886.9 273.3 886.9 274.7 887 275 887 278.1 887 276.9 887 276.7 887 276.1 887 275.7 887 274.2 887 274 887.1 273.9 887.1 275.2 887.1 276.2 887.1 274.7 887.1 273.9 887.2 274.4 887.3 275.9 887.4 274.5 887.5 274.4 887.6 274.2 887.7 273.7 887.7 273.5 887.7 273.2 887.7 273 887.7 273.9 887.8 274.9 887.8 274.7 887.8 274.7 887.8 274.5 887.9 274.5 887.9 274 888 274.7 888.1 274.2 888.1 274.2 888.2 273.3 888.3 272.8 888.3 273.9 888.3 272 888.3 275 888.4 273.5 888.6 271.7 888.7 271.8 888.7 271.3 888.8 271.3 888.8 271 888.9 271.7 888.9 271.8 889 271.8 889.1 271.3 889.1 271.7 889.2 270.5 889.4 270.1 889.4 270.5 889.5 269.3 889.6 270.3 889.7 268.9 889.9 269.3 890 269.3 890.2 270.3 890.5 269.1 890.6 267.9 890.7 265.6 890.9 267.2 891 264.5 891.1 263.7 891.1 263.2 891.2 264 891.2 263.5 891.2 263.7 891.3 263.2 891.3 263.5 891.5 264.9 891.5 263.4 891.5 262.5 891.5 262.3 891.6 262.2 891.6 262.8 891.6 263 891.7 262.2 891.8 262.2 891.9 261.8 891.9 261.8 892 262.2 892 260.5 892 260.8 892.1 261.2 892.1 260.5 892.1 261.3 892.1 261.8 892.1 261.2 892.1 261.7 892.1 261.5 892.1 261.7 892.2 263.2 892.2 262.2 892.2 262.3 892.3 262 892.3 262 892.4 262.7 892.5 262 892.6 262 892.6 261 892.7 262.5 892.7 263.5 892.7 263.2 892.8 263.7 892.8 263.5 892.9 263.2 892.9 262.8 892.9 262.8 893 262 893 261.8 893.1 262.3 893.2 262.3 893.3 263.5 893.4 263.9 893.4 262.5 893.5 262.3 893.5 262 893.6 262.7 893.7 262.3 893.8 262.8 893.9 262.5 894 262.8 894.1 262.7 894.2 262.7 894.3 263.7 894.5 264.2 894.6 264.4 894.7 265.7 894.7 266.2 894.7 266.9 894.7 266.7 894.8 266.6 894.9 265.9 895 265.4 895.1 263.5 895.1 264.2 895.3 264.2 895.4 263.5 895.5 263.4 895.5 262 895.7 261.7 895.7 260.5 895.8 259.5 895.9 258.4 896 258.8 896.1 258.4 896.2 257.8 896.4 256.4 896.6 257.8 896.7 257.6 896.8 257.1 896.9 256.8 897.1 257.3 897.2 257.3 897.3 257.9 897.6 255.6 897.7 255.9 897.8 255.7 897.9 255.7 898.1 255.6 898.3 256.2 898.4 256.8 898.7 256.8 898.9 256.2 899 256.1 899.2 255.6 899.4 255.9 899.5 255.4 899.6 256.2 899.6 255.9 899.7 256.4 899.8 256.1 900 256.9 900 256.4 900.1 257.9 900.1 257.4 900.2 257.3 900.2 256.1 900.2 256.4 900.2 256.4 900.3 256.1 900.4 256.1 900.5 256.8 900.5 257.1 900.6 255.7 900.7 255.6 900.8 255.2 901 256.6 901.1 256.1 901.3 256.6 901.4 255.9 901.4 256.8 901.6 257.1 901.7 256.6 901.8 256.1 901.9 255.2 902 255.2 902.1 256.1 902.1 255.4 902.3 256.1 902.4 255.4 902.4 255.6 902.5 254.7 902.6 254.6 902.8 254 903 254 903.1 253.4 903.2 252.2 903.4 254.4 903.5 254.2 903.7 252.5 903.7 252.9 903.8 253.5 903.9 253.4 904 252.5 904 252.5 904.1 251.3 904.2 250.5 904.4 251.2 904.5 250.8 904.5 251.2 904.6 251.8 904.6 250.8 904.6 251 904.6 250.5 904.6 250.2 904.7 251.5 904.7 252.2 904.7 252.2 904.8 252.7 904.8 253.2 904.9 253.9 904.9 255.9 904.9 254.2 904.9 254.6 904.9 254.2 905 253.5 905 254.2 905 253.7 905.1 253.5 905.1 254.2 905.2 253.7 905.2 255.2 905.3 255.2 905.4 254.2 905.5 254.9 905.5 254.2 905.6 255.2 905.6 254.9 905.6 255.6 905.7 255.6 905.8 255.7 906 255.2 906 258.1 906.1 256.4 906.1 256.8 906.2 257.9 906.2 257.9 906.3 257.4 906.4 256.4 906.4 257.1 906.6 258.4 906.6 258.3 906.7 257.6 906.7 258.1 906.8 257.1 907 256.9 907.1 257.3 907.2 256.6 907.3 255.9 907.4 255.6 907.4 255.2 907.4 254.9 907.5 254.6 907.7 253.7 907.8 253.4 907.9 253.5 907.9 253.2 908 252.5 908.1 252.7 908.3 252.2 908.4 251.2 908.5 251.2 908.6 251.3 908.8 251.2 909 251.2 909.1 251.5 909.4 250.8 909.6 251.5 909.7 250.5 909.8 249.5 909.9 249.5 910.2 248.5 910.3 248.3 910.4 248.6 910.6 248.3 910.7 250 910.8 249 911 248.6 911.3 248.6 911.5 248.6 911.5 247.3 911.5 248.6 911.8 246.8 911.9 246.1 912 245.1 912.1 244.2 912.3 243.2 912.5 245.2 912.7 243.2 912.9 243.7 913.1 243.9 913.2 243.7 913.2 242.7 913.4 242.9 913.5 242.9 913.6 242.5 913.7 243.5 913.8 241.9 913.9 243.2 914 242.9 914.2 243.4 914.3 243.4 914.4 243.9 914.5 243.7 914.5 242.9 914.6 242.5 914.7 243.4 914.8 242.9 914.9 242.7 915 242.5 915.1 242.7 915.2 242.7 915.2 242.7 915.3 242.2 915.5 241.9 915.5 240 915.6 241 915.6 238.1 915.6 239.8 915.6 241.2 915.6 239.8 915.7 241.3 915.8 241.2 916 241 916.1 241.3 916.2 241.2 916.2 241.9 916.3 240.7 916.4 239.3 916.5 240.5 916.5 241.5 916.6 241.2 916.7 239.7 916.7 240.7 916.8 241 916.8 240.5 916.9 240.7 916.9 240.8 916.9 240.7 917 240.5 917.1 240.5 917.2 241.5 917.3 241.3 917.4 242.2 917.4 241.5 917.5 242.5 917.6 241.5 917.7 241.7 917.8 242.7 917.9 243.9 918 244.4 918 243.4 918.1 243 918.2 242.2 918.4 242.5 918.5 241.2 918.6 240.7 918.6 240.3 918.7 240 918.7 239.5 918.8 239.5 918.9 239 919 238.8 919.1 238.5 919.1 237.8 919.2 237.3 919.2 236.1 919.3 235.8 919.4 235.4 919.6 235.9 919.7 236.6 919.8 237.1 919.9 236.8 920.1 236.3 920.1 237.5 920.2 237.3 920.3 237.1 920.4 237.5 920.4 237.3 920.5 236.1 920.7 235.4 920.9 236.8 921 237.3 921.1 239 921.2 238.3 921.3 237.6 921.5 236.8 921.6 236.4 921.6 236.8 921.8 237.1 921.9 236.9 922.1 236.3 922.2 237.5 922.3 237.1 922.5 236.6 922.7 238.1 922.8 237.6 922.9 237.5 923 237.3 923.1 236.6 923.3 236.3 923.4 236.1 923.5 234.9 923.6 233.9 923.8 234.1 923.9 234.4 924 233.7 924.1 233.9 924.2 234.6 924.5 234.4 924.5 234.7 924.6 234.4 924.6 234.9 924.7 234.2 924.7 234.6 924.7 234.4 924.7 234.2 924.8 234.7 924.8 234.4 924.9 234.6 925.1 232.5 925.2 233.2 925.3 233.4 925.5 232.4 925.6 233.4 925.7 233.9 925.8 235.3 926.1 235.4 926.2 235.1 926.4 237.3 926.4 237.8 926.4 237.8 926.4 237.6 926.5 238.1 926.5 238.1 926.7 237.8 926.8 238.1 926.9 238.3 927 238.5 927 238.6 927.1 239.1 927.3 239.7 927.4 238.5 927.6 239 927.7 240.5 927.7 241.3 927.8 241.5 928 241.3 928.1 239.8 928.2 240 928.2 240 928.4 240.2 928.5 238.8 928.5 235.3 928.5 239.5 928.7 239.8 928.7 240.3 928.8 240.7 928.8 240.8 928.9 240.7 929 240.3 929.2 240.2 929.3 239.5 929.3 240.5 929.3 239.8 929.4 240.7 929.4 240.2 929.4 241 929.4 240.7 929.5 241.3 929.5 241.3 929.6 244.4 929.6 242.7 929.6 242.4 929.7 241.7 929.8 241 929.9 241.2 929.9 241.9 929.9 241.3 930 241.2 930 241.7 930 241.3 930.1 241.2 930.1 241 930.2 242.5 930.5 242 930.5 242.2 930.5 242 930.6 242.2 930.6 242.7 930.6 242.5 930.7 242 930.7 243 930.8 243.9 930.9 242.9 931 242 931.1 242 931.1 241.3 931.1 241.5 931.2 241.5 931.2 241.5 931.2 243 931.3 244.2 931.5 243.9 931.6 244.6 931.7 244.6 931.7 245.1 931.8 245.7 931.8 245.7 931.9 245.6 932.1 245.9 932.2 245.2 932.3 246.4 932.3 246.9 932.4 246.9 932.5 246.9 932.8 245.4 933 246.1 933.1 246.4 933.3 246.1 933.4 246.4 933.5 246.3 933.5 246.3 933.5 246.1 933.5 246.9 933.6 246.9 933.6 246.9 933.6 247.4 933.7 246.8 933.7 246.4 933.8 245.9 934 246.3 934 245.9" opacity=".6"/><text x="942" y="472" fill="#d97706" font-size="11" text-anchor="start">0.36</text><text x="942" y="396" fill="#d97706" font-size="11" text-anchor="start">0.81</text><text x="942" y="320" fill="#d97706" font-size="11" text-anchor="start">1.26</text><text x="942" y="244" fill="#d97706" font-size="11" text-anchor="start">1.70</text><text x="942" y="168" fill="#d97706" font-size="11" text-anchor="start">2.15</text><text x="942" y="92" fill="#d97706" font-size="11" text-anchor="start">2.60</text><text x="942" y="80" fill="#d97706" font-size="11" font-weight="600" text-anchor="start">price</text><polygon fill="#16a34a" fill-opacity=".08" points="281.2 468 281.2 467.1 281.2 466.8 557.5 466.5 611.8 466 631.3 465.5 633.4 465.7 634.9 466.1 687.5 466.5 772.8 464.8 822.8 465.1 826.7 464.1 827.5 463.4 827.7 463.7 834.4 464 834.9 462.7 835.3 462 835.3 462.3 835.5 462.6 835.6 461.3 835.6 461.6 835.7 461.9 835.7 462.3 835.7 462.9 835.7 463.1 835.7 463.5 835.9 462.2 836.3 462.4 836.6 461.5 836.6 461.7 836.6 460.8 836.7 461 836.7 461.3 836.7 461.8 836.8 462.4 836.9 461.7 837 461.9 837 462.2 837.1 461 837.1 460.3 837.1 459.6 837.1 459.8 837.2 460.1 837.4 460.6 837.4 458.9 837.4 459.1 837.5 458.2 837.5 458.4 837.5 458.7 837.5 459.2 837.5 459.7 837.5 460 837.5 459 837.5 458.3 837.5 457.6 837.5 457.8 837.5 458.1 837.5 458.6 837.5 459.1 837.5 459.4 837.5 459.7 837.5 460.1 837.5 460.7 837.5 460.9 837.5 461.3 837.6 461.7 837.6 462.3 837.6 462.5 837.7 462.8 837.7 463.3 837.7 463.9 837.7 463.2 837.7 463.4 837.8 462.4 837.8 462.7 837.8 463 837.8 461.8 837.8 462 837.8 462.3 837.8 462.8 837.8 461.1 837.9 461.3 837.9 461.6 837.9 462 837.9 462.6 837.9 462.9 837.9 461.9 837.9 461.2 838 461.4 838 460.5 838 460.7 838 461.1 838 461.5 838 462.1 838.1 462.3 838.1 461.4 838.1 461.6 838.1 460.6 838.2 460.9 838.3 459.9 838.3 460.2 838.3 460.5 838.3 459.2 838.4 459.5 838.4 458.5 838.4 457.8 838.5 458.1 838.5 458.4 838.5 458.8 838.5 457.1 838.5 456.4 838.5 456.7 838.5 455.7 838.6 456 838.6 456.3 838.6 456.7 838.7 455 838.7 455.3 838.7 455.6 838.7 456 838.7 456.6 838.7 456.8 838.7 457.1 838.7 455.9 838.7 456.1 838.8 456.4 838.8 456.9 838.8 455.2 838.8 454.5 838.8 454.7 838.9 455.1 838.9 453.8 838.9 454 838.9 453.1 838.9 452.4 839 451.6 839 450.9 839 451.2 839 451.5 839 451.9 839 452.5 839 451.8 839 452 839 451.1 839 450.4 839 450.6 839 450.9 839 449.7 839 449 839 449.2 839 448.3 839.1 447.6 839.1 447.8 839.1 446.9 839.1 447.1 839.1 447.4 839.1 447.9 839.1 448.5 839.1 448.7 839.2 447.7 839.2 448 839.2 447 839.2 446.3 839.2 446.6 839.2 446.9 839.2 447.3 839.3 445.6 839.3 445.9 839.3 446.2 839.3 446.6 839.3 444.9 839.3 444.2 839.3 443.5 839.3 443.8 839.3 444.1 839.4 442.8 839.4 443.1 839.4 443.4 839.4 442.2 839.5 442.4 839.5 441.5 839.5 440.7 839.5 441 839.5 440 839.5 440.3 839.5 440.6 839.5 441 839.5 439.4 839.7 438.6 839.7 437.9 839.7 437.2 839.7 437.5 839.8 437.8 839.8 436.5 839.8 436.8 839.8 437.1 839.8 435.8 839.8 435.1 839.9 434.4 839.9 434.7 839.9 435 839.9 435.4 839.9 436 839.9 436.3 839.9 435.3 839.9 434.6 840 433.9 840 433.2 840 433.4 840.1 432.5 840.1 431.8 840.1 432 840.2 431.1 840.2 431.3 840.2 430.4 840.2 430.6 840.3 430.9 840.3 429.7 840.3 429.9 840.3 428.9 840.3 429.2 840.3 429.5 840.3 429.9 840.3 428.3 840.3 428.5 840.4 427.6 840.4 426.8 840.4 427.1 840.4 427.4 840.4 427.9 840.5 426.2 840.5 425.4 840.5 424.7 840.5 424 840.5 423.3 840.6 422.6 840.6 422.9 840.6 421.9 840.6 421.2 840.6 420.5 840.6 420.7 840.6 421 840.6 419.8 840.6 419.1 840.6 419.3 840.6 418.4 840.7 418.6 840.7 417.7 840.7 417.9 840.7 417 840.7 417.2 840.7 416.2 840.7 415.5 840.8 415.8 840.8 414.8 840.8 415.1 840.8 415.4 840.9 414.2 840.9 414.4 841 414.7 841 415.2 841 415.7 841 415 841.1 414.3 841.1 414.6 841.1 414.9 841.1 413.6 841.1 412.9 841.1 412.2 841.1 412.4 841.2 412.8 841.2 413.2 841.2 413.8 841.3 413.1 841.3 412.4 841.3 412.6 841.3 411.6 841.3 410.9 841.3 411.2 841.3 410.2 841.3 410.5 841.3 409.5 841.3 408.8 841.3 409.1 841.4 409.4 841.4 409.8 841.4 410.4 841.5 409.7 841.5 409.9 841.5 408.9 841.6 409.2 841.6 408.2 841.6 408.5 841.7 408.8 841.7 409.2 841.7 409.8 841.7 410 841.7 409.1 841.7 409.3 841.7 409.7 841.7 408.4 841.7 408.6 841.7 408.9 841.7 407.7 841.7 407.9 841.8 407 841.8 407.2 841.8 407.6 841.8 406.3 841.8 406.5 841.9 405.6 841.9 405.8 841.9 406.1 841.9 406.6 841.9 407.1 841.9 407.4 841.9 406.4 841.9 406.7 841.9 407 841.9 405.7 841.9 405 842 404.3 842 404.5 842 404.9 842 403.6 842.1 402.9 842.1 402.2 842.1 402.4 842.1 401.5 842.1 401.7 842.1 402.1 842.1 402.5 842.1 400.8 842.1 401 842.1 400.1 842.2 399.4 842.2 399.6 842.2 399.9 842.2 400.4 842.3 398.7 842.3 398 842.4 398.2 842.4 398.5 842.4 398.9 842.4 397.3 842.4 397.5 842.4 397.9 842.4 398.3 842.5 396.6 842.5 395.9 842.5 396.1 842.5 395.2 842.5 394.5 842.5 394.7 842.5 393.8 842.5 394 842.5 394.3 842.6 393.1 842.6 392.4 842.6 392.6 842.6 392.9 842.6 391.7 842.6 391.9 842.7 392.2 842.7 392.6 842.7 391 842.7 391.2 842.7 391.5 842.8 392 842.8 390.3 842.8 390.5 842.8 390.9 842.8 389.6 842.8 388.9 842.9 389.2 842.9 389.5 842.9 389.9 842.9 388.2 842.9 387.5 842.9 387.8 842.9 388.1 843 386.8 843 387.1 843 387.4 843 387.8 843 388.4 843 387.7 843 386.9 843.1 386.2 843.1 385.5 843.1 385.8 843.1 386.1 843.1 386.5 843.1 384.8 843.1 384.1 843.2 383.4 843.2 382.7 843.2 382.9 843.3 383.3 843.3 383.7 843.3 384.3 843.3 384.5 843.3 384.8 843.3 385.3 843.3 383.6 843.3 382.9 843.3 383.1 843.3 382.2 843.4 382.4 843.4 381.5 843.4 381.7 843.4 380.8 843.4 380 843.4 380.3 843.4 379.3 843.4 379.6 843.4 378.6 843.4 377.9 843.4 378.2 843.4 377.2 843.4 377.5 843.4 376.5 843.4 376.7 843.4 375.8 843.4 376 843.4 375.1 843.5 375.3 843.5 374.4 843.5 373.7 843.5 373.9 843.5 373 843.5 373.2 843.5 372.3 843.5 372.5 843.5 372.8 843.5 371.6 843.5 370.9 843.5 371.1 843.5 370.2 843.5 369.4 843.5 368.7 843.5 369 843.5 368 843.5 368.3 843.5 367.3 843.5 366.6 843.5 366.9 843.5 365.9 843.6 366.2 843.6 365.2 843.6 364.5 843.6 363.8 843.6 364 843.6 363.1 843.6 362.4 843.6 362.6 843.6 363 843.6 363.4 843.6 361.7 843.6 362 843.6 362.3 843.6 361 843.6 361.3 843.6 360.3 843.6 359.6 843.6 358.9 843.6 359.1 843.6 358.2 843.7 358.4 843.7 357.5 843.7 357.7 843.7 358 843.7 356.8 843.7 357 843.7 356.1 843.7 356.3 843.7 355.4 843.7 355.6 843.7 354.7 843.7 354.9 843.7 354 843.7 354.2 843.7 353.3 843.7 352.6 843.7 352.8 843.7 351.9 843.7 351.2 843.8 350.4 843.8 350.7 843.8 349.7 843.8 350 843.8 350.3 843.8 349 843.8 349.3 843.8 348.4 843.8 348.6 843.8 347.6 843.8 346.9 843.8 346.2 843.8 346.5 843.8 346.8 843.8 345.5 843.8 345.8 843.8 344.8 843.8 344.1 843.8 343.4 843.8 343.6 843.8 342.7 843.8 342 843.8 342.2 843.8 341.3 843.8 341.5 843.8 341.8 843.8 340.6 843.8 339.9 843.8 340.1 843.8 339.2 843.8 339.4 843.8 339.7 843.8 338.5 843.9 337.8 843.9 338 843.9 338.3 843.9 338.7 843.9 339.3 843.9 338.6 843.9 337.9 843.9 338.1 844 337.2 844 337.4 844 336.5 844 335.8 844 335.1 844 335.3 844 335.6 844 334.4 844 334.6 844.1 333.6 844.1 333.9 844.1 332.9 844.1 333.2 844.2 333.5 844.2 333.9 844.2 334.5 844.2 334.8 844.2 333.8 844.2 334.1 844.2 334.4 844.2 333.1 844.3 332.4 844.3 331.7 844.3 331.9 844.3 331 844.3 330.3 844.3 330.5 844.4 330.8 844.4 329.6 844.4 329.8 844.4 328.9 844.5 329.1 844.5 329.4 844.5 329.9 844.5 330.4 844.5 330.7 844.5 331 844.5 331.4 844.6 332 844.6 331.3 844.6 331.5 844.6 330.6 844.7 329.8 844.8 330.1 844.8 330.4 844.8 329.1 844.8 328.4 844.8 327.7 844.9 328 844.9 328.3 844.9 327 844.9 327.3 845 327.6 845 328 845 326.3 845 326.6 845 325.6 845 325.9 845 326.2 845 324.9 845 325.2 845 324.2 845.1 324.5 845.1 323.5 845.1 323.8 845.1 322.8 845.2 323.1 845.2 322.1 845.2 322.4 845.3 322.7 845.3 323.1 845.3 323.7 845.4 322.9 845.4 322.2 845.4 322.5 845.4 322.8 845.5 321.5 845.5 320.8 845.5 320.1 845.5 320.4 845.5 320.7 845.5 319.4 845.5 318.7 845.6 319 845.6 318 845.7 317.3 845.7 317.5 845.7 317.9 845.7 316.6 845.7 315.9 845.8 315.2 845.8 315.4 845.8 314.5 845.8 313.8 845.8 313.1 845.8 313.3 845.8 313.6 845.9 314.1 845.9 314.7 845.9 314.9 845.9 314 846 313.2 846 312.5 846 312.8 846 311.8 846.1 312.1 846.1 311.1 846.1 311.4 846.1 311.7 846.1 310.4 846.1 310.7 846.1 309.7 846.1 309 846.1 309.2 846.1 309.5 846.1 310 846.1 308.3 846.1 308.5 846.1 308.9 846.1 309.3 846.1 307.6 846.1 307.8 846.1 306.9 846.1 306.2 846.1 306.4 846.1 305.5 846.1 305.7 846.1 304.8 846.1 305 846.1 304.1 846.1 303.4 846.1 302.7 846.1 301.9 846.1 302.2 846.1 301.2 846.2 301.5 846.2 300.5 846.2 300.8 846.3 301.1 846.3 299.8 846.3 300.1 846.3 300.4 846.3 300.8 846.4 299.1 846.4 298.4 846.4 297.7 846.4 297 846.5 297.3 846.5 296.3 846.5 295.6 846.6 295.8 846.6 296.1 846.6 294.9 846.6 295.1 846.6 294.2 846.6 294.4 846.7 293.5 846.8 293.7 846.9 294 846.9 292.8 846.9 293 847 293.3 847 292.1 847 292.3 847 291.4 847.1 291.6 847.1 291.9 847.1 292.3 847.2 292.9 847.2 292.2 847.2 291.5 847.2 290.8 847.2 291 847.2 290.1 847.2 290.3 847.2 289.4 847.2 289.6 847.2 290 847.2 290.4 847.2 291 847.2 291.2 847.2 291.5 847.2 292 847.2 292.6 847.3 292.8 847.3 293.1 847.3 293.6 847.3 291.9 847.3 292.1 847.3 291.2 847.3 290.5 847.3 290.7 847.3 289.8 847.4 289 847.4 288.3 847.4 287.6 847.4 287.9 847.4 288.2 847.4 288.6 847.4 286.9 847.4 286.2 847.4 286.5 847.4 285.5 847.4 284.8 847.5 284.1 847.5 283.4 847.5 283.6 847.5 284 847.5 284.4 847.5 285 847.5 285.2 847.5 284.3 847.5 284.5 847.5 283.6 847.5 283.8 847.5 284.1 847.5 284.6 847.5 285.1 847.6 284.4 847.6 284.7 847.6 285 847.6 285.4 847.7 286 847.7 286.3 847.7 286.6 847.7 287 847.7 287.6 847.7 286.9 847.7 287.1 847.8 286.2 847.8 286.4 847.8 285.5 847.8 284.8 847.8 285 847.8 285.3 847.8 285.8 847.8 286.3 847.8 286.6 847.8 286.9 847.8 287.3 847.8 285.7 847.8 285.9 847.8 284.9 847.8 284.2 847.8 284.5 847.9 283.5 847.9 283.8 847.9 282.8 847.9 283.1 847.9 283.4 847.9 283.8 847.9 284.4 847.9 284.6 847.9 285 847.9 283.7 847.9 284 848 283 848 283.2 848.1 283.6 848.1 284 848.1 284.5 848.1 284.8 848.1 285.1 848.2 285.6 848.2 283.9 848.2 284.1 848.2 283.2 848.2 283.4 848.2 282.4 848.2 282.7 848.2 281.7 848.2 281 848.2 281.3 848.3 280.3 848.3 280.6 848.3 279.6 848.4 279.9 848.4 280.2 848.4 280.6 848.4 279 848.4 278.2 848.4 277.5 848.5 276.8 848.6 276.1 848.6 275.4 848.7 275.6 848.7 276 848.7 276.4 848.8 277 848.8 276.3 848.8 275.6 848.8 274.8 848.9 275.1 848.9 275.4 848.9 275.8 849 276.4 849 275.7 849 275 849.2 275.2 849.2 275.5 849.2 274.3 849.3 274.5 849.3 273.6 849.3 273.8 849.4 274.2 849.4 272.9 849.4 273.2 849.6 273.5 849.6 272.2 849.6 272.4 849.6 272.8 849.6 273.2 849.6 271.5 849.7 270.8 849.7 271.1 849.8 270.1 849.8 269.4 849.8 269.7 849.8 270 849.9 268.7 849.9 268 849.9 268.2 850 268.6 850 269 850 267.3 850 267.6 850 266.6 850 266.9 850 267.2 850.1 265.9 850.1 265.2 850.1 265.4 850.1 265.8 850.1 266.2 850.1 264.5 850.2 264.8 850.2 265.1 850.2 265.5 850.2 266.1 850.2 266.3 850.2 265.4 850.2 265.6 850.2 266 850.2 266.4 850.2 267 850.2 267.2 850.2 267.5 850.3 267.9 850.3 268.5 850.3 268.8 850.3 267.8 850.3 268 850.3 268.4 850.3 268.8 850.3 267.1 850.3 267.4 850.3 267.7 850.4 268.1 850.4 266.4 850.4 265.7 850.4 266 850.5 265 850.5 264.3 850.5 264.6 850.5 263.6 850.5 263.9 850.5 262.9 850.5 262.2 850.5 262.5 850.5 261.5 850.6 261.8 850.6 260.8 850.6 261 850.7 261.4 850.7 260.1 850.7 260.4 850.7 260.7 850.7 261.1 850.7 259.4 850.7 259.7 850.7 260 850.8 260.4 850.8 258.7 850.8 258 850.8 258.3 850.8 258.6 850.8 257.3 850.8 257.6 850.8 257.9 850.9 256.6 851 256.9 851 257.2 851 257.6 851 258.2 851.1 258.5 851.1 257.5 851.2 257.7 851.3 258.1 851.3 258.5 851.3 259.1 851.4 258.3 851.5 258.6 851.5 257.6 851.5 257.9 851.7 256.9 851.7 257.2 851.7 257.5 851.7 256.2 851.7 256.5 851.8 255.5 851.9 254.8 851.9 254.1 852 253.4 852 253.6 852 253.9 852 254.4 852 252.7 852 252.9 852 252 852.1 252.2 852.1 252.6 852.1 253 852.1 253.6 852.1 253.8 852.1 254.1 852.2 252.9 852.2 253.1 852.2 253.4 852.3 253.9 852.3 254.4 852.3 254.7 852.3 255 852.3 253.7 852.3 254 852.4 253 852.4 253.3 852.4 253.6 852.5 252.3 852.5 252.6 852.5 251.6 852.6 251.9 852.6 252.2 852.6 250.9 852.6 251.2 852.6 250.2 852.6 249.5 852.6 249.8 852.6 250.1 852.6 250.5 852.7 251.1 852.7 251.3 852.7 250.4 852.7 249.7 852.7 249 852.7 249.2 852.7 249.5 852.7 249.9 852.7 248.3 852.7 248.5 852.8 248.8 852.8 247.6 852.8 247.8 852.8 246.9 852.9 246.2 852.9 245.5 853 245.7 853.1 246 853.3 244.7 853.3 245 853.3 245.3 853.3 244 853.3 244.3 853.3 243.3 853.3 243.6 853.4 243.9 853.4 242.6 853.4 241.9 853.4 242.2 853.4 241.2 853.4 241.5 853.4 241.8 853.4 240.5 853.4 239.8 853.4 240.1 853.5 239.1 853.5 239.3 853.6 239.7 853.6 238.4 853.6 238.7 853.6 239 853.6 239.4 853.7 240 853.7 239.3 853.8 239.5 853.8 239.8 853.8 238.6 853.8 238.8 853.8 237.9 853.8 237.2 853.8 237.4 853.9 237.7 853.9 238.2 853.9 236.5 853.9 236.7 853.9 235.8 853.9 236 853.9 236.4 853.9 236.8 853.9 237.4 853.9 237.6 853.9 237.9 853.9 236.7 853.9 236.9 853.9 237.2 853.9 237.6 853.9 236 854 235.3 854 235.5 854 235.8 854 236.3 854 234.6 854 233.9 854 234.1 854 234.4 854 233.2 854 232.5 854 231.7 854.1 231 854.1 231.3 854.1 230.3 854.2 230.6 854.2 230.9 854.2 231.3 854.2 231.9 854.2 232.1 854.2 231.2 854.2 231.4 854.2 231.7 854.2 232.1 854.2 232.7 854.2 233 854.2 232 854.2 232.3 854.2 231.3 854.2 231.6 854.2 230.6 854.3 230.9 854.3 231.2 854.3 229.9 854.3 230.2 854.3 230.5 854.3 230.9 854.3 231.5 854.3 231.7 854.3 230.8 854.3 231 854.3 230.1 854.3 229.4 854.3 229.6 854.3 228.7 854.3 228.9 854.3 229.2 854.3 228 854.3 228.2 854.3 227.3 854.3 226.6 854.3 226.8 854.3 227.1 854.3 225.9 854.3 226.1 854.3 225.2 854.3 224.5 854.4 223.7 854.4 224 854.4 224.3 854.4 224.7 854.4 223.1 854.4 223.3 854.4 222.4 854.4 222.6 854.4 222.9 854.4 221.7 854.4 221.9 854.4 220.9 854.4 220.2 854.4 220.5 854.4 219.5 854.4 219.8 854.4 218.8 854.4 219.1 854.4 218.1 854.4 217.4 854.4 216.7 854.4 216.9 854.4 217.3 854.4 217.7 854.4 218.3 854.4 218.5 854.4 218.8 854.4 219.3 854.4 219.8 854.4 219.1 854.4 218.4 854.4 218.7 854.4 219 854.4 219.4 854.4 217.7 854.4 218 854.4 217.1 854.5 217.3 854.5 216.3 854.5 216.6 854.5 216.9 854.5 215.6 854.5 214.9 854.5 215.2 854.5 215.5 854.5 215.9 854.5 216.5 854.5 216.8 854.5 217.1 854.5 217.5 854.5 218.1 854.5 218.3 854.5 218.6 854.5 217.4 854.5 217.6 854.5 217.9 854.5 218.4 854.5 216.7 854.5 216.9 854.5 217.2 854.5 217.7 854.5 218.3 854.5 217.6 854.5 216.8 854.5 217.1 854.5 217.4 854.5 216.1 854.6 215.4 854.6 214.7 854.6 215 854.6 215.3 854.6 214 854.6 214.3 854.6 213.3 854.6 213.6 854.6 213.9 854.6 212.6 854.6 211.9 854.6 212.2 854.6 212.5 854.6 212.9 854.6 213.5 854.6 213.7 854.6 212.8 854.6 213 854.6 213.3 854.6 212.1 854.6 212.3 854.6 212.6 854.6 213.1 854.6 213.6 854.6 212.9 854.6 213.2 854.6 212.2 854.6 212.4 854.6 212.8 854.6 211.5 854.7 210.8 854.7 210.1 854.7 210.3 854.7 209.4 854.7 209.6 854.7 208.7 854.7 208.9 854.7 208 854.7 208.2 854.7 207.3 854.7 206.6 854.7 205.9 854.7 205.1 854.7 204.4 854.7 204.7 854.7 205 854.7 203.7 854.7 203 854.7 203.3 854.7 203.6 854.7 204 854.7 202.3 854.7 202.6 854.7 202.9 854.7 203.3 854.7 201.6 854.7 201.9 854.7 202.2 854.7 200.9 854.7 201.2 854.7 200.2 854.7 200.5 854.7 200.8 854.7 201.2 854.7 199.6 854.7 199.8 854.7 198.8 854.7 199.1 854.7 199.4 854.7 198.1 854.7 198.4 854.7 198.7 854.7 197.4 854.8 196.7 854.8 196 854.8 196.3 854.8 196.6 854.8 195.3 854.8 195.6 854.8 194.6 854.8 193.9 854.8 193.2 854.8 193.4 854.8 193.8 854.8 194.2 854.8 194.8 854.8 195 854.8 194.1 854.8 194.3 854.8 193.3 854.8 193.6 854.8 192.6 854.8 191.9 854.8 191.2 854.8 191.5 854.8 190.5 854.8 190.8 854.8 191.1 854.8 189.8 854.8 189.1 854.8 188.4 854.8 187.7 854.8 187 854.8 187.2 854.9 187.5 854.9 186.3 854.9 186.5 854.9 186.9 854.9 187.3 854.9 187.9 854.9 187.2 854.9 186.5 854.9 185.7 854.9 186 854.9 186.3 854.9 186.7 854.9 185.1 854.9 185.3 854.9 185.6 854.9 186.1 854.9 186.6 854.9 185.9 854.9 185.2 855 184.5 855 184.8 855 185.1 855 185.5 855 186.1 855 186.3 855 186.6 855 187.1 855 187.6 855 186.9 855 186.2 855 186.5 855 186.8 855 187.2 855 185.5 855 184.8 855 185.1 855 185.4 855 184.1 855 183.4 855 182.7 855 182 855 182.2 855 182.6 855 183 855 183.6 855 183.8 855 184.1 855 184.5 855 185.1 855 185.3 855 185.7 855 184.4 855 184.7 855 185 855.1 185.4 855.1 186 855.1 186.2 855.1 185.3 855.1 185.5 855.1 185.9 855.1 186.3 855.1 186.9 855.1 187.1 855.1 186.2 855.1 185.5 855.1 185.7 855.1 186 855.1 184.8 855.1 185 855.1 185.3 855.1 185.8 855.1 184.1 855.1 184.3 855.1 184.6 855.1 185.1 855.1 185.6 855.1 185.9 855.1 184.9 855.1 185.2 855.1 185.5 855.1 185.9 855.1 186.5 855.1 185.8 855.1 186 855.1 185.1 855.1 184.4 855.1 183.7 855.1 183.9 855.1 183 855.1 182.3 855.1 182.5 855.1 181.5 855.1 181.8 855.1 180.8 855.1 180.1 855.2 180.4 855.2 180.7 855.2 181.1 855.2 181.7 855.2 182 855.2 181 855.2 180.3 855.2 180.5 855.2 180.8 855.2 181.3 855.2 181.8 855.2 181.1 855.2 181.4 855.2 181.7 855.2 182.1 855.2 180.4 855.2 180.7 855.2 181 855.2 181.4 855.2 182 855.2 181.3 855.2 181.5 855.2 180.6 855.2 180.8 855.2 179.9 855.2 180.1 855.2 179.2 855.2 179.4 855.2 179.7 855.2 180.2 855.2 178.5 855.2 178.7 855.2 179 855.2 179.4 855.2 180 855.2 179.3 855.3 179.5 855.3 179.9 855.3 180.3 855.3 180.9 855.3 181.1 855.3 181.4 855.3 180.2 855.3 179.5 855.3 178.8 855.3 178.1 855.3 177.4 855.3 176.6 855.3 176.9 855.3 176 855.3 175.2 855.3 175.5 855.3 175.8 855.3 176.2 855.3 176.8 855.3 176.1 855.3 175.4 855.3 175.6 855.3 174.7 855.3 174 855.3 174.2 855.3 174.5 855.3 175 855.4 175.5 855.4 175.8 855.4 176.1 855.4 176.5 855.4 174.8 855.4 175.1 855.4 174.1 855.4 174.4 855.4 174.7 855.4 175.1 855.4 173.5 855.4 173.7 855.4 174 855.4 174.4 855.5 175 855.5 175.3 855.5 174.3 855.6 174.6 855.6 173.6 855.6 173.9 855.6 174.2 855.6 172.9 855.6 172.2 855.6 171.5 855.6 171.8 855.7 172.1 855.7 172.5 855.7 173.1 855.7 172.4 855.7 172.6 855.7 173 855.7 171.7 855.7 171.9 855.7 171 855.7 171.2 855.7 170.3 855.7 170.5 855.7 170.9 855.8 171.3 855.8 169.6 855.8 168.9 855.8 168.2 855.8 168.4 855.8 167.5 855.8 167.7 855.8 166.8 855.8 167 855.8 167.3 855.8 166.1 855.8 165.4 855.8 164.7 855.8 164.9 855.8 164 855.8 164.2 855.8 163.3 855.8 163.5 855.8 163.8 855.8 164.3 855.8 162.6 855.8 162.8 855.8 163.2 855.9 163.6 855.9 161.9 855.9 162.1 855.9 162.5 855.9 161.2 855.9 161.4 855.9 161.8 855.9 160.5 856 160.7 856 161.1 856 161.5 856 159.8 856.1 160.1 856.1 160.4 856.1 160.8 856.1 161.4 856.1 161.6 856.1 162 856.1 160.7 856.1 160.9 856.1 161.2 856.1 161.7 856.1 160 856.1 160.2 856.1 159.3 856.1 158.6 856.1 158.8 856.1 157.9 856.1 157.2 856.1 157.4 856.1 156.5 856.1 155.8 856.2 155 856.2 154.3 856.2 153.6 856.2 152.9 856.2 153.2 856.2 153.5 856.2 152.2 856.2 152.5 856.2 151.5 856.2 151.8 856.2 152.1 856.2 150.8 856.2 151 856.2 151.4 856.2 150.1 856.2 149.4 856.2 148.7 856.3 148 856.3 148.2 856.3 148.6 856.3 149 856.3 147.3 856.3 146.6 856.3 146.8 856.3 147.2 856.3 145.9 856.3 146.1 856.3 146.5 856.3 146.9 856.3 147.5 856.4 147.7 856.4 148 856.4 148.5 856.4 146.8 856.4 147 856.4 146.1 856.4 146.3 856.4 145.4 856.4 144.6 856.5 144.9 856.5 145.2 856.5 145.6 856.5 144 856.5 144.2 856.5 143.3 856.5 142.5 856.5 141.8 856.5 141.1 856.5 141.4 856.5 141.7 856.5 142.1 856.5 140.4 856.5 140.7 856.5 141 856.5 139.7 856.5 140 856.5 140.3 856.5 139 856.5 138.3 856.6 137.6 856.6 137.9 856.6 136.9 856.6 137.2 856.6 137.5 856.6 137.9 856.6 136.2 856.6 136.5 856.6 135.5 856.6 135.8 856.6 136.1 856.6 134.9 856.6 134.1 856.6 134.4 856.6 134.7 856.6 135.1 856.6 135.7 856.6 135 856.6 135.2 856.6 135.6 856.6 134.3 856.7 134.6 856.7 133.6 856.7 133.9 856.7 134.2 856.7 132.9 856.7 133.2 856.7 132.2 856.7 131.5 856.7 131.8 856.7 130.8 856.7 131.1 856.7 130.1 856.8 129.4 856.8 128.7 856.8 128.9 856.8 129.3 856.8 129.7 856.8 130.3 856.8 130.5 856.8 130.8 856.8 131.2 856.8 131.8 856.8 132 856.9 132.4 856.9 132.8 856.9 133.4 856.9 133.6 856.9 133.9 856.9 134.3 856.9 134.9 856.9 135.2 856.9 134.2 856.9 134.5 856.9 134.8 856.9 135.2 856.9 135.8 856.9 136 857 136.4 857 136.8 857 135.1 857 135.3 857 135.7 857 136.1 857 136.7 857 136.9 857.1 135.9 857.1 136.2 857.1 136.5 857.1 136.9 857.1 135.3 857.1 135.5 857.1 135.8 857.1 136.2 857.1 136.8 857.1 137.1 857.1 137.4 857.1 137.8 857.1 138.4 857.1 138.6 857.1 139 857.1 139.4 857.1 140 857.1 140.2 857.1 139.3 857.2 138.6 857.2 138.8 857.2 139.1 857.2 137.9 857.2 138.1 857.2 138.4 857.2 138.9 857.2 139.4 857.2 138.7 857.2 138 857.3 138.3 857.3 138.6 857.3 139 857.3 137.3 857.3 136.6 857.3 135.9 857.3 136.2 857.3 135.2 857.3 135.4 857.3 135.8 857.3 136.2 857.3 136.8 857.3 137 857.3 136.1 857.4 135.4 857.4 135.6 857.4 135.9 857.4 136.4 857.4 136.9 857.4 136.2 857.4 135.5 857.4 135.8 857.4 136.1 857.4 136.5 857.4 137.1 857.4 137.3 857.4 137.6 857.4 136.4 857.4 136.6 857.4 136.9 857.4 135.7 857.4 135 857.4 135.2 857.4 134.3 857.4 134.5 857.4 134.8 857.5 135.2 857.5 135.8 857.5 136 857.5 136.4 857.5 136.8 857.5 137.4 857.5 137.6 857.5 138 857.5 136.7 857.5 136.9 857.5 137.3 857.5 136 857.5 136.2 857.5 136.5 857.5 137 857.5 135.3 857.6 135.5 857.6 135.8 857.6 136.3 857.6 136.8 857.6 137.1 857.6 137.4 857.6 136.1 857.6 135.4 857.6 135.7 857.6 136 857.6 136.4 857.6 134.7 857.6 134 857.7 134.3 857.7 134.6 857.7 135 857.7 135.6 857.7 134.9 857.7 134.2 857.7 134.4 857.7 134.8 857.7 135.2 857.7 133.5 857.8 133.7 857.8 134.1 857.8 134.5 857.8 132.8 857.8 133.1 857.8 133.4 857.8 133.8 857.8 134.4 857.8 134.6 857.8 134.9 857.8 135.4 857.9 133.7 857.9 133.9 857.9 134.2 857.9 134.7 857.9 133 857.9 133.2 857.9 132.3 857.9 132.5 857.9 132.9 857.9 133.3 857.9 131.6 857.9 131.8 858 132.2 858 132.6 858 130.9 858 131.2 858 130.2 858 130.5 858 129.5 858 129.8 858 130.1 858 130.5 858.1 131.1 858.1 131.3 858.1 130.4 858.1 130.6 858.1 131 858.1 131.4 858.1 131.9 858.1 132.2 858.1 132.5 858.1 132.9 858.1 131.3 858.1 131.5 858.1 131.8 858.1 132.3 858.2 132.8 858.2 133.1 858.2 133.4 858.2 133.9 858.2 134.4 858.2 134.7 858.2 135 858.2 133.7 858.2 134 858.2 134.3 858.2 134.7 858.3 135.3 858.3 135.5 858.3 134.6 858.3 134.8 858.3 135.2 858.3 135.6 858.3 136.2 858.4 136.4 858.4 135.5 858.4 135.7 858.4 136 858.4 136.5 858.4 137 858.5 137.3 858.5 136.3 858.5 136.6 858.5 136.9 858.6 135.6 858.6 135.9 858.6 136.2 858.6 136.6 858.6 137.2 858.6 137.4 858.7 137.8 858.7 138.2 858.8 138.8 858.8 139 858.8 139.4 858.9 139.8 858.9 140.4 858.9 140.6 858.9 140.9 858.9 141.4 859 141.9 859 142.2 859 141.2 859 141.4 859 141.8 859 142.2 859.1 142.8 859.1 142 859.1 141.3 859.1 140.6 859.1 140.9 859.1 141.2 859.1 141.6 859.1 139.9 859.1 140.2 859.1 140.5 859.1 140.9 859.1 141.5 859.1 141.8 859.1 140.8 859.2 141.1 859.2 141.4 859.2 140.1 859.2 140.4 859.2 140.7 859.3 139.4 859.3 139.7 859.3 140 859.3 140.4 859.3 141 859.3 141.2 859.4 141.5 859.4 142 859.4 142.6 859.4 142.8 859.4 143.1 859.4 143.5 859.4 144.1 859.5 144.3 859.5 143.4 859.5 142.7 859.5 143 859.6 143.3 859.6 143.7 859.8 142 859.8 142.3 859.8 142.6 859.8 143 859.8 143.6 859.9 143.8 859.9 144.1 859.9 142.9 859.9 143.1 859.9 142.2 859.9 142.4 859.9 141.5 859.9 141.7 859.9 142 859.9 140.8 859.9 140 859.9 140.3 859.9 140.6 859.9 141.1 859.9 141.6 860.1 140.9 860.1 140.2 860.1 139.5 860.2 139.7 860.2 138.8 860.2 138.1 860.2 138.4 860.2 138.7 860.2 139.1 860.2 137.4 860.2 137.7 860.3 138 860.3 138.4 860.3 139 860.3 139.2 860.3 139.5 860.3 140 860.3 140.5 860.3 140.8 860.3 139.8 860.3 140 860.3 140.4 860.3 140.8 860.3 139.1 860.3 138.4 860.3 138.7 860.3 139 860.3 139.4 860.3 140 860.4 139.3 860.4 139.5 860.4 138.6 860.4 138.8 860.4 139.1 860.4 137.8 860.4 137.1 860.4 137.4 860.4 136.4 860.4 136.7 860.4 137 860.4 137.4 860.5 138 860.5 137.3 860.5 137.5 860.5 137.9 860.5 136.6 860.6 136.8 860.6 135.9 860.6 135.2 860.6 135.4 860.6 135.8 860.7 134.5 860.7 134.7 860.7 135.1 860.7 133.8 860.7 134.1 860.7 134.4 860.7 133.1 860.8 132.4 860.8 132.7 860.9 133 860.9 131.7 861 132 861 132.3 861 132.7 861 131 861 130.3 861.1 130.5 861.1 130.9 861.1 131.3 861.1 129.6 861.1 129.9 861.1 130.2 861.1 130.6 861.1 131.2 861.1 131.5 861.1 131.8 861.1 132.2 861.1 132.8 861.1 133 861.1 133.3 861.1 133.7 861.1 134.3 861.1 134.6 861.1 134.9 861.2 135.3 861.2 135.9 861.2 135.2 861.2 135.4 861.2 135.8 861.2 136.2 861.2 136.8 861.3 136.1 861.3 136.3 861.4 136.6 861.4 137.1 861.4 137.6 861.4 137.9 861.4 138.2 861.4 138.6 861.4 136.9 861.4 137.2 861.5 137.5 861.5 138 861.5 136.3 861.5 136.5 861.5 136.8 861.5 135.6 861.5 135.8 861.5 134.9 861.5 134.1 861.5 134.4 861.5 134.7 861.5 135.1 861.6 135.7 861.6 135 861.6 135.2 861.6 135.5 861.6 134.3 861.6 134.5 861.6 133.6 861.6 133.8 861.6 132.9 861.6 133.1 861.6 133.4 861.7 132.2 861.7 132.4 861.7 132.8 861.7 131.5 861.7 131.7 861.7 130.8 861.7 131 861.7 130.1 861.7 130.3 861.7 130.6 861.8 131.1 861.9 131.7 862.3 130.9 862.3 130.2 862.3 129.5 862.3 129.8 862.3 128.8 862.3 128.1 862.3 127.4 862.4 127.6 862.4 126.7 862.4 126.9 862.5 127.2 862.5 127.7 862.5 128.3 862.5 128.5 862.6 127.6 862.6 127.8 862.6 128.1 862.6 128.5 862.6 129.1 862.6 128.4 862.6 128.6 862.6 128.9 862.6 129.4 862.6 129.9 862.7 130.2 862.7 130.5 862.7 130.9 862.8 131.5 862.8 130.8 862.8 131 862.8 131.3 862.9 131.8 862.9 132.4 862.9 132.6 862.9 132.9 862.9 133.3 862.9 133.9 862.9 134.1 862.9 134.5 863 134.9 863 135.5 863 135.7 863 136 863 136.5 863 137 863 137.3 863 137.6 863.1 138 863.1 138.6 863.1 137.9 863.2 137.2 863.2 137.5 863.2 137.8 863.2 138.2 863.2 138.8 863.3 138.1 863.3 138.3 863.3 137.4 863.8 137.6 863.8 137.9 863.8 138.3 863.8 136.7 863.9 136 863.9 135.3 863.9 134.5 863.9 133.8 863.9 133.1 863.9 133.4 863.9 132.4 863.9 131.7 863.9 131 863.9 130.3 863.9 129.6 863.9 129.8 863.9 130.2 863.9 130.6 863.9 128.9 863.9 128.2 863.9 128.5 863.9 128.8 863.9 129.2 863.9 129.8 863.9 129.1 863.9 129.3 863.9 128.4 863.9 128.6 863.9 128.9 863.9 129.4 863.9 129.9 863.9 129.2 863.9 128.5 863.9 127.8 863.9 128.1 863.9 127.1 863.9 127.4 863.9 127.7 863.9 128.1 863.9 126.4 863.9 126.7 863.9 125.7 863.9 126 863.9 126.3 863.9 126.7 863.9 127.3 863.9 127.5 863.9 126.6 863.9 125.9 863.9 125.2 863.9 124.5 863.9 124.7 863.9 125 863.9 123.8 863.9 124 863.9 124.3 863.9 123.1 863.9 123.3 863.9 123.6 863.9 122.4 863.9 122.6 863.9 121.7 863.9 121.9 863.9 121 863.9 121.2 863.9 121.5 863.9 122 863.9 122.5 863.9 121.8 863.9 122.1 863.9 121.1 863.9 121.4 863.9 121.7 863.9 122.1 863.9 122.7 863.9 122 863.9 122.2 863.9 121.3 863.9 121.5 863.9 121.8 863.9 120.6 863.9 120.8 863.9 121.1 863.9 119.9 863.9 120.1 863.9 120.5 863.9 120.9 864 121.5 864 121.7 864 122 864 120.8 864 121 864 121.3 864 121.8 864 122.3 864 122.6 864 121.6 864 121.9 864 122.2 864.1 120.9 864.1 121.2 864.1 121.5 864.2 121.9 864.2 120.2 864.2 120.5 864.2 120.8 864.2 121.2 864.2 119.6 864.2 119.8 864.2 118.8 864.2 118.1 864.2 118.4 864.2 117.4 864.2 117.7 864.2 118 864.2 118.4 864.2 119 864.3 118.3 864.3 118.5 864.3 117.6 864.4 116.9 864.4 116.1 864.4 116.4 865 116.7 865 117.1 865 117.7 865 117.9 865 118.3 865 118.7 865 119.3 865 119.5 865 119.9 865.1 120.3 865.1 120.9 865.1 121.1 865.1 121.4 865.1 121.9 865.1 122.4 865.1 122.7 865.1 123 865.1 123.5 865.1 124 865.2 124.3 865.2 124.6 865.2 125 865.2 125.6 865.3 125.9 865.4 126.2 865.4 126.6 865.4 124.9 865.4 125.2 865.5 125.5 865.5 125.9 865.5 126.5 865.5 126.7 865.5 127.1 865.5 127.5 865.7 125.8 865.7 126.1 865.7 125.1 865.7 125.4 865.7 125.7 865.7 126.1 865.8 126.7 865.8 126.9 865.8 127.2 865.9 127.7 865.9 128.2 865.9 128.5 865.9 128.8 865.9 129.3 866 129.8 866.1 130.1 866.1 130.4 866.1 130.8 866.1 131.4 866.1 131.7 866.1 130.7 866.1 130.9 866.1 131.3 866.1 130 866.2 129.3 866.2 128.6 866.2 128.8 866.2 129.2 866.2 129.6 866.2 130.2 866.2 129.5 866.3 129.7 866.3 130 866.3 128.8 866.3 129 866.3 128.1 866.3 128.3 866.3 128.6 866.3 127.4 866.3 127.6 866.3 126.7 866.3 126.9 866.3 125.9 866.3 125.2 866.3 125.5 866.3 124.5 866.4 124.8 866.4 125.1 866.4 125.5 866.4 126.1 866.4 126.3 866.4 126.6 866.4 127.1 866.4 127.7 866.4 127.9 866.4 128.2 866.4 128.7 866.4 129.2 866.4 129.5 866.4 128.5 866.4 128.8 866.4 129.1 866.4 129.5 866.5 130.1 866.5 130.4 866.5 130.7 866.5 131.1 866.5 131.7 866.5 131.9 866.5 132.2 866.6 132.7 866.6 133.3 866.6 133.5 866.6 133.8 866.6 132.6 866.6 131.9 866.6 132.1 866.6 132.4 866.6 132.9 866.7 133.4 866.7 133.7 866.7 132.7 866.7 132 866.7 131.3 866.7 130.6 866.7 129.9 866.7 130.1 866.7 129.2 866.7 128.4 866.7 128.7 866.7 127.7 866.7 128 866.7 128.3 866.8 128.7 866.8 129.3 866.8 129.5 866.8 129.9 866.8 130.3 866.8 130.9 866.8 130.2 867 130.4 867 130.7 867.1 131.2 867.1 131.7 867.4 132 867.4 132.3 867.4 132.8 867.4 133.3 867.5 133.6 867.5 133.9 867.5 134.3 867.5 134.9 868.2 134.2 868.2 134.4 868.3 134.7 868.4 135.2 868.4 135.7 868.4 136 868.4 136.3 868.4 136.7 868.4 137.3 868.4 137.5 868.4 137.8 868.4 138.3 868.4 138.8 868.5 138.1 868.5 138.3 868.5 138.7 868.6 137.4 868.6 137.7 868.6 138 868.6 138.4 868.6 139 868.6 139.2 868.6 139.6 868.7 140 868.7 140.6 868.7 140.8 868.7 141.1 868.7 141.6 868.7 142.1 868.7 142.4 868.7 142.7 868.7 143.1 868.8 141.5 868.8 140.8 868.8 141 868.8 141.3 868.8 141.8 869 142.3 869 142.6 869 142.9 869 143.3 869 143.9 869 144.2 869 144.5 869.1 143.2 869.1 142.5 869.1 142.8 869.1 143.1 869.1 143.5 869.1 144.1 869.2 144.3 869.2 144.7 869.2 145.1 869.2 145.6 869.2 145.9 869.2 146.2 869.2 146.7 869.2 147.2 869.2 146.5 869.2 145.8 869.2 146.1 869.2 145.1 869.2 145.4 869.2 144.4 869.2 143.7 869.4 143 869.4 142.3 869.4 142.5 869.4 142.8 869.5 143.3 869.5 143.9 869.5 144.1 869.5 144.4 869.5 144.9 869.5 145.4 869.6 145.7 869.6 146 869.6 146.4 869.6 147 869.7 147.2 869.8 147.6 869.8 148 869.8 148.6 869.8 148.8 869.8 149.1 869.8 149.6 869.9 150.1 869.9 150.4 869.9 150.7 870.3 151.1 870.3 151.7 870.5 151.9 870.5 152.2 870.5 152.7 870.6 153.3 870.6 153.5 870.6 153.8 871 152.6 871.2 152.8 871.5 151.9 874.2 151.2 876.2 151.4 877.7 150.4 879.8 150.7 879.9 151 879.9 151.4 881 152 881.6 152.2 881.7 152.6 882 153 885.4 151.3 887 151.6 887 151.9 890 150.6 890.7 150.9 895.9 149.9 904.1 149.2 906.6 148.5 907.2 148.7 910.1 147.8 915.6 147.1 917.4 147.3 918.7 147.7 929.6 148.1 929.6 468"/><polyline fill="none" stroke="#16a34a" stroke-linejoin="round" stroke-width="2" points="281.2 467.1 281.2 466.8 557.5 466.5 611.8 466 631.3 465.5 633.4 465.7 634.9 466.1 687.5 466.5 772.8 464.8 822.8 465.1 826.7 464.1 827.5 463.4 827.7 463.7 834.4 464 834.9 462.7 835.3 462 835.3 462.3 835.5 462.6 835.6 461.3 835.6 461.6 835.7 461.9 835.7 462.3 835.7 462.9 835.7 463.1 835.7 463.5 835.9 462.2 836.3 462.4 836.6 461.5 836.6 461.7 836.6 460.8 836.7 461 836.7 461.3 836.7 461.8 836.8 462.4 836.9 461.7 837 461.9 837 462.2 837.1 461 837.1 460.3 837.1 459.6 837.1 459.8 837.2 460.1 837.4 460.6 837.4 458.9 837.4 459.1 837.5 458.2 837.5 458.4 837.5 458.7 837.5 459.2 837.5 459.7 837.5 460 837.5 459 837.5 458.3 837.5 457.6 837.5 457.8 837.5 458.1 837.5 458.6 837.5 459.1 837.5 459.4 837.5 459.7 837.5 460.1 837.5 460.7 837.5 460.9 837.5 461.3 837.6 461.7 837.6 462.3 837.6 462.5 837.7 462.8 837.7 463.3 837.7 463.9 837.7 463.2 837.7 463.4 837.8 462.4 837.8 462.7 837.8 463 837.8 461.8 837.8 462 837.8 462.3 837.8 462.8 837.8 461.1 837.9 461.3 837.9 461.6 837.9 462 837.9 462.6 837.9 462.9 837.9 461.9 837.9 461.2 838 461.4 838 460.5 838 460.7 838 461.1 838 461.5 838 462.1 838.1 462.3 838.1 461.4 838.1 461.6 838.1 460.6 838.2 460.9 838.3 459.9 838.3 460.2 838.3 460.5 838.3 459.2 838.4 459.5 838.4 458.5 838.4 457.8 838.5 458.1 838.5 458.4 838.5 458.8 838.5 457.1 838.5 456.4 838.5 456.7 838.5 455.7 838.6 456 838.6 456.3 838.6 456.7 838.7 455 838.7 455.3 838.7 455.6 838.7 456 838.7 456.6 838.7 456.8 838.7 457.1 838.7 455.9 838.7 456.1 838.8 456.4 838.8 456.9 838.8 455.2 838.8 454.5 838.8 454.7 838.9 455.1 838.9 453.8 838.9 454 838.9 453.1 838.9 452.4 839 451.6 839 450.9 839 451.2 839 451.5 839 451.9 839 452.5 839 451.8 839 452 839 451.1 839 450.4 839 450.6 839 450.9 839 449.7 839 449 839 449.2 839 448.3 839.1 447.6 839.1 447.8 839.1 446.9 839.1 447.1 839.1 447.4 839.1 447.9 839.1 448.5 839.1 448.7 839.2 447.7 839.2 448 839.2 447 839.2 446.3 839.2 446.6 839.2 446.9 839.2 447.3 839.3 445.6 839.3 445.9 839.3 446.2 839.3 446.6 839.3 444.9 839.3 444.2 839.3 443.5 839.3 443.8 839.3 444.1 839.4 442.8 839.4 443.1 839.4 443.4 839.4 442.2 839.5 442.4 839.5 441.5 839.5 440.7 839.5 441 839.5 440 839.5 440.3 839.5 440.6 839.5 441 839.5 439.4 839.7 438.6 839.7 437.9 839.7 437.2 839.7 437.5 839.8 437.8 839.8 436.5 839.8 436.8 839.8 437.1 839.8 435.8 839.8 435.1 839.9 434.4 839.9 434.7 839.9 435 839.9 435.4 839.9 436 839.9 436.3 839.9 435.3 839.9 434.6 840 433.9 840 433.2 840 433.4 840.1 432.5 840.1 431.8 840.1 432 840.2 431.1 840.2 431.3 840.2 430.4 840.2 430.6 840.3 430.9 840.3 429.7 840.3 429.9 840.3 428.9 840.3 429.2 840.3 429.5 840.3 429.9 840.3 428.3 840.3 428.5 840.4 427.6 840.4 426.8 840.4 427.1 840.4 427.4 840.4 427.9 840.5 426.2 840.5 425.4 840.5 424.7 840.5 424 840.5 423.3 840.6 422.6 840.6 422.9 840.6 421.9 840.6 421.2 840.6 420.5 840.6 420.7 840.6 421 840.6 419.8 840.6 419.1 840.6 419.3 840.6 418.4 840.7 418.6 840.7 417.7 840.7 417.9 840.7 417 840.7 417.2 840.7 416.2 840.7 415.5 840.8 415.8 840.8 414.8 840.8 415.1 840.8 415.4 840.9 414.2 840.9 414.4 841 414.7 841 415.2 841 415.7 841 415 841.1 414.3 841.1 414.6 841.1 414.9 841.1 413.6 841.1 412.9 841.1 412.2 841.1 412.4 841.2 412.8 841.2 413.2 841.2 413.8 841.3 413.1 841.3 412.4 841.3 412.6 841.3 411.6 841.3 410.9 841.3 411.2 841.3 410.2 841.3 410.5 841.3 409.5 841.3 408.8 841.3 409.1 841.4 409.4 841.4 409.8 841.4 410.4 841.5 409.7 841.5 409.9 841.5 408.9 841.6 409.2 841.6 408.2 841.6 408.5 841.7 408.8 841.7 409.2 841.7 409.8 841.7 410 841.7 409.1 841.7 409.3 841.7 409.7 841.7 408.4 841.7 408.6 841.7 408.9 841.7 407.7 841.7 407.9 841.8 407 841.8 407.2 841.8 407.6 841.8 406.3 841.8 406.5 841.9 405.6 841.9 405.8 841.9 406.1 841.9 406.6 841.9 407.1 841.9 407.4 841.9 406.4 841.9 406.7 841.9 407 841.9 405.7 841.9 405 842 404.3 842 404.5 842 404.9 842 403.6 842.1 402.9 842.1 402.2 842.1 402.4 842.1 401.5 842.1 401.7 842.1 402.1 842.1 402.5 842.1 400.8 842.1 401 842.1 400.1 842.2 399.4 842.2 399.6 842.2 399.9 842.2 400.4 842.3 398.7 842.3 398 842.4 398.2 842.4 398.5 842.4 398.9 842.4 397.3 842.4 397.5 842.4 397.9 842.4 398.3 842.5 396.6 842.5 395.9 842.5 396.1 842.5 395.2 842.5 394.5 842.5 394.7 842.5 393.8 842.5 394 842.5 394.3 842.6 393.1 842.6 392.4 842.6 392.6 842.6 392.9 842.6 391.7 842.6 391.9 842.7 392.2 842.7 392.6 842.7 391 842.7 391.2 842.7 391.5 842.8 392 842.8 390.3 842.8 390.5 842.8 390.9 842.8 389.6 842.8 388.9 842.9 389.2 842.9 389.5 842.9 389.9 842.9 388.2 842.9 387.5 842.9 387.8 842.9 388.1 843 386.8 843 387.1 843 387.4 843 387.8 843 388.4 843 387.7 843 386.9 843.1 386.2 843.1 385.5 843.1 385.8 843.1 386.1 843.1 386.5 843.1 384.8 843.1 384.1 843.2 383.4 843.2 382.7 843.2 382.9 843.3 383.3 843.3 383.7 843.3 384.3 843.3 384.5 843.3 384.8 843.3 385.3 843.3 383.6 843.3 382.9 843.3 383.1 843.3 382.2 843.4 382.4 843.4 381.5 843.4 381.7 843.4 380.8 843.4 380 843.4 380.3 843.4 379.3 843.4 379.6 843.4 378.6 843.4 377.9 843.4 378.2 843.4 377.2 843.4 377.5 843.4 376.5 843.4 376.7 843.4 375.8 843.4 376 843.4 375.1 843.5 375.3 843.5 374.4 843.5 373.7 843.5 373.9 843.5 373 843.5 373.2 843.5 372.3 843.5 372.5 843.5 372.8 843.5 371.6 843.5 370.9 843.5 371.1 843.5 370.2 843.5 369.4 843.5 368.7 843.5 369 843.5 368 843.5 368.3 843.5 367.3 843.5 366.6 843.5 366.9 843.5 365.9 843.6 366.2 843.6 365.2 843.6 364.5 843.6 363.8 843.6 364 843.6 363.1 843.6 362.4 843.6 362.6 843.6 363 843.6 363.4 843.6 361.7 843.6 362 843.6 362.3 843.6 361 843.6 361.3 843.6 360.3 843.6 359.6 843.6 358.9 843.6 359.1 843.6 358.2 843.7 358.4 843.7 357.5 843.7 357.7 843.7 358 843.7 356.8 843.7 357 843.7 356.1 843.7 356.3 843.7 355.4 843.7 355.6 843.7 354.7 843.7 354.9 843.7 354 843.7 354.2 843.7 353.3 843.7 352.6 843.7 352.8 843.7 351.9 843.7 351.2 843.8 350.4 843.8 350.7 843.8 349.7 843.8 350 843.8 350.3 843.8 349 843.8 349.3 843.8 348.4 843.8 348.6 843.8 347.6 843.8 346.9 843.8 346.2 843.8 346.5 843.8 346.8 843.8 345.5 843.8 345.8 843.8 344.8 843.8 344.1 843.8 343.4 843.8 343.6 843.8 342.7 843.8 342 843.8 342.2 843.8 341.3 843.8 341.5 843.8 341.8 843.8 340.6 843.8 339.9 843.8 340.1 843.8 339.2 843.8 339.4 843.8 339.7 843.8 338.5 843.9 337.8 843.9 338 843.9 338.3 843.9 338.7 843.9 339.3 843.9 338.6 843.9 337.9 843.9 338.1 844 337.2 844 337.4 844 336.5 844 335.8 844 335.1 844 335.3 844 335.6 844 334.4 844 334.6 844.1 333.6 844.1 333.9 844.1 332.9 844.1 333.2 844.2 333.5 844.2 333.9 844.2 334.5 844.2 334.8 844.2 333.8 844.2 334.1 844.2 334.4 844.2 333.1 844.3 332.4 844.3 331.7 844.3 331.9 844.3 331 844.3 330.3 844.3 330.5 844.4 330.8 844.4 329.6 844.4 329.8 844.4 328.9 844.5 329.1 844.5 329.4 844.5 329.9 844.5 330.4 844.5 330.7 844.5 331 844.5 331.4 844.6 332 844.6 331.3 844.6 331.5 844.6 330.6 844.7 329.8 844.8 330.1 844.8 330.4 844.8 329.1 844.8 328.4 844.8 327.7 844.9 328 844.9 328.3 844.9 327 844.9 327.3 845 327.6 845 328 845 326.3 845 326.6 845 325.6 845 325.9 845 326.2 845 324.9 845 325.2 845 324.2 845.1 324.5 845.1 323.5 845.1 323.8 845.1 322.8 845.2 323.1 845.2 322.1 845.2 322.4 845.3 322.7 845.3 323.1 845.3 323.7 845.4 322.9 845.4 322.2 845.4 322.5 845.4 322.8 845.5 321.5 845.5 320.8 845.5 320.1 845.5 320.4 845.5 320.7 845.5 319.4 845.5 318.7 845.6 319 845.6 318 845.7 317.3 845.7 317.5 845.7 317.9 845.7 316.6 845.7 315.9 845.8 315.2 845.8 315.4 845.8 314.5 845.8 313.8 845.8 313.1 845.8 313.3 845.8 313.6 845.9 314.1 845.9 314.7 845.9 314.9 845.9 314 846 313.2 846 312.5 846 312.8 846 311.8 846.1 312.1 846.1 311.1 846.1 311.4 846.1 311.7 846.1 310.4 846.1 310.7 846.1 309.7 846.1 309 846.1 309.2 846.1 309.5 846.1 310 846.1 308.3 846.1 308.5 846.1 308.9 846.1 309.3 846.1 307.6 846.1 307.8 846.1 306.9 846.1 306.2 846.1 306.4 846.1 305.5 846.1 305.7 846.1 304.8 846.1 305 846.1 304.1 846.1 303.4 846.1 302.7 846.1 301.9 846.1 302.2 846.1 301.2 846.2 301.5 846.2 300.5 846.2 300.8 846.3 301.1 846.3 299.8 846.3 300.1 846.3 300.4 846.3 300.8 846.4 299.1 846.4 298.4 846.4 297.7 846.4 297 846.5 297.3 846.5 296.3 846.5 295.6 846.6 295.8 846.6 296.1 846.6 294.9 846.6 295.1 846.6 294.2 846.6 294.4 846.7 293.5 846.8 293.7 846.9 294 846.9 292.8 846.9 293 847 293.3 847 292.1 847 292.3 847 291.4 847.1 291.6 847.1 291.9 847.1 292.3 847.2 292.9 847.2 292.2 847.2 291.5 847.2 290.8 847.2 291 847.2 290.1 847.2 290.3 847.2 289.4 847.2 289.6 847.2 290 847.2 290.4 847.2 291 847.2 291.2 847.2 291.5 847.2 292 847.2 292.6 847.3 292.8 847.3 293.1 847.3 293.6 847.3 291.9 847.3 292.1 847.3 291.2 847.3 290.5 847.3 290.7 847.3 289.8 847.4 289 847.4 288.3 847.4 287.6 847.4 287.9 847.4 288.2 847.4 288.6 847.4 286.9 847.4 286.2 847.4 286.5 847.4 285.5 847.4 284.8 847.5 284.1 847.5 283.4 847.5 283.6 847.5 284 847.5 284.4 847.5 285 847.5 285.2 847.5 284.3 847.5 284.5 847.5 283.6 847.5 283.8 847.5 284.1 847.5 284.6 847.5 285.1 847.6 284.4 847.6 284.7 847.6 285 847.6 285.4 847.7 286 847.7 286.3 847.7 286.6 847.7 287 847.7 287.6 847.7 286.9 847.7 287.1 847.8 286.2 847.8 286.4 847.8 285.5 847.8 284.8 847.8 285 847.8 285.3 847.8 285.8 847.8 286.3 847.8 286.6 847.8 286.9 847.8 287.3 847.8 285.7 847.8 285.9 847.8 284.9 847.8 284.2 847.8 284.5 847.9 283.5 847.9 283.8 847.9 282.8 847.9 283.1 847.9 283.4 847.9 283.8 847.9 284.4 847.9 284.6 847.9 285 847.9 283.7 847.9 284 848 283 848 283.2 848.1 283.6 848.1 284 848.1 284.5 848.1 284.8 848.1 285.1 848.2 285.6 848.2 283.9 848.2 284.1 848.2 283.2 848.2 283.4 848.2 282.4 848.2 282.7 848.2 281.7 848.2 281 848.2 281.3 848.3 280.3 848.3 280.6 848.3 279.6 848.4 279.9 848.4 280.2 848.4 280.6 848.4 279 848.4 278.2 848.4 277.5 848.5 276.8 848.6 276.1 848.6 275.4 848.7 275.6 848.7 276 848.7 276.4 848.8 277 848.8 276.3 848.8 275.6 848.8 274.8 848.9 275.1 848.9 275.4 848.9 275.8 849 276.4 849 275.7 849 275 849.2 275.2 849.2 275.5 849.2 274.3 849.3 274.5 849.3 273.6 849.3 273.8 849.4 274.2 849.4 272.9 849.4 273.2 849.6 273.5 849.6 272.2 849.6 272.4 849.6 272.8 849.6 273.2 849.6 271.5 849.7 270.8 849.7 271.1 849.8 270.1 849.8 269.4 849.8 269.7 849.8 270 849.9 268.7 849.9 268 849.9 268.2 850 268.6 850 269 850 267.3 850 267.6 850 266.6 850 266.9 850 267.2 850.1 265.9 850.1 265.2 850.1 265.4 850.1 265.8 850.1 266.2 850.1 264.5 850.2 264.8 850.2 265.1 850.2 265.5 850.2 266.1 850.2 266.3 850.2 265.4 850.2 265.6 850.2 266 850.2 266.4 850.2 267 850.2 267.2 850.2 267.5 850.3 267.9 850.3 268.5 850.3 268.8 850.3 267.8 850.3 268 850.3 268.4 850.3 268.8 850.3 267.1 850.3 267.4 850.3 267.7 850.4 268.1 850.4 266.4 850.4 265.7 850.4 266 850.5 265 850.5 264.3 850.5 264.6 850.5 263.6 850.5 263.9 850.5 262.9 850.5 262.2 850.5 262.5 850.5 261.5 850.6 261.8 850.6 260.8 850.6 261 850.7 261.4 850.7 260.1 850.7 260.4 850.7 260.7 850.7 261.1 850.7 259.4 850.7 259.7 850.7 260 850.8 260.4 850.8 258.7 850.8 258 850.8 258.3 850.8 258.6 850.8 257.3 850.8 257.6 850.8 257.9 850.9 256.6 851 256.9 851 257.2 851 257.6 851 258.2 851.1 258.5 851.1 257.5 851.2 257.7 851.3 258.1 851.3 258.5 851.3 259.1 851.4 258.3 851.5 258.6 851.5 257.6 851.5 257.9 851.7 256.9 851.7 257.2 851.7 257.5 851.7 256.2 851.7 256.5 851.8 255.5 851.9 254.8 851.9 254.1 852 253.4 852 253.6 852 253.9 852 254.4 852 252.7 852 252.9 852 252 852.1 252.2 852.1 252.6 852.1 253 852.1 253.6 852.1 253.8 852.1 254.1 852.2 252.9 852.2 253.1 852.2 253.4 852.3 253.9 852.3 254.4 852.3 254.7 852.3 255 852.3 253.7 852.3 254 852.4 253 852.4 253.3 852.4 253.6 852.5 252.3 852.5 252.6 852.5 251.6 852.6 251.9 852.6 252.2 852.6 250.9 852.6 251.2 852.6 250.2 852.6 249.5 852.6 249.8 852.6 250.1 852.6 250.5 852.7 251.1 852.7 251.3 852.7 250.4 852.7 249.7 852.7 249 852.7 249.2 852.7 249.5 852.7 249.9 852.7 248.3 852.7 248.5 852.8 248.8 852.8 247.6 852.8 247.8 852.8 246.9 852.9 246.2 852.9 245.5 853 245.7 853.1 246 853.3 244.7 853.3 245 853.3 245.3 853.3 244 853.3 244.3 853.3 243.3 853.3 243.6 853.4 243.9 853.4 242.6 853.4 241.9 853.4 242.2 853.4 241.2 853.4 241.5 853.4 241.8 853.4 240.5 853.4 239.8 853.4 240.1 853.5 239.1 853.5 239.3 853.6 239.7 853.6 238.4 853.6 238.7 853.6 239 853.6 239.4 853.7 240 853.7 239.3 853.8 239.5 853.8 239.8 853.8 238.6 853.8 238.8 853.8 237.9 853.8 237.2 853.8 237.4 853.9 237.7 853.9 238.2 853.9 236.5 853.9 236.7 853.9 235.8 853.9 236 853.9 236.4 853.9 236.8 853.9 237.4 853.9 237.6 853.9 237.9 853.9 236.7 853.9 236.9 853.9 237.2 853.9 237.6 853.9 236 854 235.3 854 235.5 854 235.8 854 236.3 854 234.6 854 233.9 854 234.1 854 234.4 854 233.2 854 232.5 854 231.7 854.1 231 854.1 231.3 854.1 230.3 854.2 230.6 854.2 230.9 854.2 231.3 854.2 231.9 854.2 232.1 854.2 231.2 854.2 231.4 854.2 231.7 854.2 232.1 854.2 232.7 854.2 233 854.2 232 854.2 232.3 854.2 231.3 854.2 231.6 854.2 230.6 854.3 230.9 854.3 231.2 854.3 229.9 854.3 230.2 854.3 230.5 854.3 230.9 854.3 231.5 854.3 231.7 854.3 230.8 854.3 231 854.3 230.1 854.3 229.4 854.3 229.6 854.3 228.7 854.3 228.9 854.3 229.2 854.3 228 854.3 228.2 854.3 227.3 854.3 226.6 854.3 226.8 854.3 227.1 854.3 225.9 854.3 226.1 854.3 225.2 854.3 224.5 854.4 223.7 854.4 224 854.4 224.3 854.4 224.7 854.4 223.1 854.4 223.3 854.4 222.4 854.4 222.6 854.4 222.9 854.4 221.7 854.4 221.9 854.4 220.9 854.4 220.2 854.4 220.5 854.4 219.5 854.4 219.8 854.4 218.8 854.4 219.1 854.4 218.1 854.4 217.4 854.4 216.7 854.4 216.9 854.4 217.3 854.4 217.7 854.4 218.3 854.4 218.5 854.4 218.8 854.4 219.3 854.4 219.8 854.4 219.1 854.4 218.4 854.4 218.7 854.4 219 854.4 219.4 854.4 217.7 854.4 218 854.4 217.1 854.5 217.3 854.5 216.3 854.5 216.6 854.5 216.9 854.5 215.6 854.5 214.9 854.5 215.2 854.5 215.5 854.5 215.9 854.5 216.5 854.5 216.8 854.5 217.1 854.5 217.5 854.5 218.1 854.5 218.3 854.5 218.6 854.5 217.4 854.5 217.6 854.5 217.9 854.5 218.4 854.5 216.7 854.5 216.9 854.5 217.2 854.5 217.7 854.5 218.3 854.5 217.6 854.5 216.8 854.5 217.1 854.5 217.4 854.5 216.1 854.6 215.4 854.6 214.7 854.6 215 854.6 215.3 854.6 214 854.6 214.3 854.6 213.3 854.6 213.6 854.6 213.9 854.6 212.6 854.6 211.9 854.6 212.2 854.6 212.5 854.6 212.9 854.6 213.5 854.6 213.7 854.6 212.8 854.6 213 854.6 213.3 854.6 212.1 854.6 212.3 854.6 212.6 854.6 213.1 854.6 213.6 854.6 212.9 854.6 213.2 854.6 212.2 854.6 212.4 854.6 212.8 854.6 211.5 854.7 210.8 854.7 210.1 854.7 210.3 854.7 209.4 854.7 209.6 854.7 208.7 854.7 208.9 854.7 208 854.7 208.2 854.7 207.3 854.7 206.6 854.7 205.9 854.7 205.1 854.7 204.4 854.7 204.7 854.7 205 854.7 203.7 854.7 203 854.7 203.3 854.7 203.6 854.7 204 854.7 202.3 854.7 202.6 854.7 202.9 854.7 203.3 854.7 201.6 854.7 201.9 854.7 202.2 854.7 200.9 854.7 201.2 854.7 200.2 854.7 200.5 854.7 200.8 854.7 201.2 854.7 199.6 854.7 199.8 854.7 198.8 854.7 199.1 854.7 199.4 854.7 198.1 854.7 198.4 854.7 198.7 854.7 197.4 854.8 196.7 854.8 196 854.8 196.3 854.8 196.6 854.8 195.3 854.8 195.6 854.8 194.6 854.8 193.9 854.8 193.2 854.8 193.4 854.8 193.8 854.8 194.2 854.8 194.8 854.8 195 854.8 194.1 854.8 194.3 854.8 193.3 854.8 193.6 854.8 192.6 854.8 191.9 854.8 191.2 854.8 191.5 854.8 190.5 854.8 190.8 854.8 191.1 854.8 189.8 854.8 189.1 854.8 188.4 854.8 187.7 854.8 187 854.8 187.2 854.9 187.5 854.9 186.3 854.9 186.5 854.9 186.9 854.9 187.3 854.9 187.9 854.9 187.2 854.9 186.5 854.9 185.7 854.9 186 854.9 186.3 854.9 186.7 854.9 185.1 854.9 185.3 854.9 185.6 854.9 186.1 854.9 186.6 854.9 185.9 854.9 185.2 855 184.5 855 184.8 855 185.1 855 185.5 855 186.1 855 186.3 855 186.6 855 187.1 855 187.6 855 186.9 855 186.2 855 186.5 855 186.8 855 187.2 855 185.5 855 184.8 855 185.1 855 185.4 855 184.1 855 183.4 855 182.7 855 182 855 182.2 855 182.6 855 183 855 183.6 855 183.8 855 184.1 855 184.5 855 185.1 855 185.3 855 185.7 855 184.4 855 184.7 855 185 855.1 185.4 855.1 186 855.1 186.2 855.1 185.3 855.1 185.5 855.1 185.9 855.1 186.3 855.1 186.9 855.1 187.1 855.1 186.2 855.1 185.5 855.1 185.7 855.1 186 855.1 184.8 855.1 185 855.1 185.3 855.1 185.8 855.1 184.1 855.1 184.3 855.1 184.6 855.1 185.1 855.1 185.6 855.1 185.9 855.1 184.9 855.1 185.2 855.1 185.5 855.1 185.9 855.1 186.5 855.1 185.8 855.1 186 855.1 185.1 855.1 184.4 855.1 183.7 855.1 183.9 855.1 183 855.1 182.3 855.1 182.5 855.1 181.5 855.1 181.8 855.1 180.8 855.1 180.1 855.2 180.4 855.2 180.7 855.2 181.1 855.2 181.7 855.2 182 855.2 181 855.2 180.3 855.2 180.5 855.2 180.8 855.2 181.3 855.2 181.8 855.2 181.1 855.2 181.4 855.2 181.7 855.2 182.1 855.2 180.4 855.2 180.7 855.2 181 855.2 181.4 855.2 182 855.2 181.3 855.2 181.5 855.2 180.6 855.2 180.8 855.2 179.9 855.2 180.1 855.2 179.2 855.2 179.4 855.2 179.7 855.2 180.2 855.2 178.5 855.2 178.7 855.2 179 855.2 179.4 855.2 180 855.2 179.3 855.3 179.5 855.3 179.9 855.3 180.3 855.3 180.9 855.3 181.1 855.3 181.4 855.3 180.2 855.3 179.5 855.3 178.8 855.3 178.1 855.3 177.4 855.3 176.6 855.3 176.9 855.3 176 855.3 175.2 855.3 175.5 855.3 175.8 855.3 176.2 855.3 176.8 855.3 176.1 855.3 175.4 855.3 175.6 855.3 174.7 855.3 174 855.3 174.2 855.3 174.5 855.3 175 855.4 175.5 855.4 175.8 855.4 176.1 855.4 176.5 855.4 174.8 855.4 175.1 855.4 174.1 855.4 174.4 855.4 174.7 855.4 175.1 855.4 173.5 855.4 173.7 855.4 174 855.4 174.4 855.5 175 855.5 175.3 855.5 174.3 855.6 174.6 855.6 173.6 855.6 173.9 855.6 174.2 855.6 172.9 855.6 172.2 855.6 171.5 855.6 171.8 855.7 172.1 855.7 172.5 855.7 173.1 855.7 172.4 855.7 172.6 855.7 173 855.7 171.7 855.7 171.9 855.7 171 855.7 171.2 855.7 170.3 855.7 170.5 855.7 170.9 855.8 171.3 855.8 169.6 855.8 168.9 855.8 168.2 855.8 168.4 855.8 167.5 855.8 167.7 855.8 166.8 855.8 167 855.8 167.3 855.8 166.1 855.8 165.4 855.8 164.7 855.8 164.9 855.8 164 855.8 164.2 855.8 163.3 855.8 163.5 855.8 163.8 855.8 164.3 855.8 162.6 855.8 162.8 855.8 163.2 855.9 163.6 855.9 161.9 855.9 162.1 855.9 162.5 855.9 161.2 855.9 161.4 855.9 161.8 855.9 160.5 856 160.7 856 161.1 856 161.5 856 159.8 856.1 160.1 856.1 160.4 856.1 160.8 856.1 161.4 856.1 161.6 856.1 162 856.1 160.7 856.1 160.9 856.1 161.2 856.1 161.7 856.1 160 856.1 160.2 856.1 159.3 856.1 158.6 856.1 158.8 856.1 157.9 856.1 157.2 856.1 157.4 856.1 156.5 856.1 155.8 856.2 155 856.2 154.3 856.2 153.6 856.2 152.9 856.2 153.2 856.2 153.5 856.2 152.2 856.2 152.5 856.2 151.5 856.2 151.8 856.2 152.1 856.2 150.8 856.2 151 856.2 151.4 856.2 150.1 856.2 149.4 856.2 148.7 856.3 148 856.3 148.2 856.3 148.6 856.3 149 856.3 147.3 856.3 146.6 856.3 146.8 856.3 147.2 856.3 145.9 856.3 146.1 856.3 146.5 856.3 146.9 856.3 147.5 856.4 147.7 856.4 148 856.4 148.5 856.4 146.8 856.4 147 856.4 146.1 856.4 146.3 856.4 145.4 856.4 144.6 856.5 144.9 856.5 145.2 856.5 145.6 856.5 144 856.5 144.2 856.5 143.3 856.5 142.5 856.5 141.8 856.5 141.1 856.5 141.4 856.5 141.7 856.5 142.1 856.5 140.4 856.5 140.7 856.5 141 856.5 139.7 856.5 140 856.5 140.3 856.5 139 856.5 138.3 856.6 137.6 856.6 137.9 856.6 136.9 856.6 137.2 856.6 137.5 856.6 137.9 856.6 136.2 856.6 136.5 856.6 135.5 856.6 135.8 856.6 136.1 856.6 134.9 856.6 134.1 856.6 134.4 856.6 134.7 856.6 135.1 856.6 135.7 856.6 135 856.6 135.2 856.6 135.6 856.6 134.3 856.7 134.6 856.7 133.6 856.7 133.9 856.7 134.2 856.7 132.9 856.7 133.2 856.7 132.2 856.7 131.5 856.7 131.8 856.7 130.8 856.7 131.1 856.7 130.1 856.8 129.4 856.8 128.7 856.8 128.9 856.8 129.3 856.8 129.7 856.8 130.3 856.8 130.5 856.8 130.8 856.8 131.2 856.8 131.8 856.8 132 856.9 132.4 856.9 132.8 856.9 133.4 856.9 133.6 856.9 133.9 856.9 134.3 856.9 134.9 856.9 135.2 856.9 134.2 856.9 134.5 856.9 134.8 856.9 135.2 856.9 135.8 856.9 136 857 136.4 857 136.8 857 135.1 857 135.3 857 135.7 857 136.1 857 136.7 857 136.9 857.1 135.9 857.1 136.2 857.1 136.5 857.1 136.9 857.1 135.3 857.1 135.5 857.1 135.8 857.1 136.2 857.1 136.8 857.1 137.1 857.1 137.4 857.1 137.8 857.1 138.4 857.1 138.6 857.1 139 857.1 139.4 857.1 140 857.1 140.2 857.1 139.3 857.2 138.6 857.2 138.8 857.2 139.1 857.2 137.9 857.2 138.1 857.2 138.4 857.2 138.9 857.2 139.4 857.2 138.7 857.2 138 857.3 138.3 857.3 138.6 857.3 139 857.3 137.3 857.3 136.6 857.3 135.9 857.3 136.2 857.3 135.2 857.3 135.4 857.3 135.8 857.3 136.2 857.3 136.8 857.3 137 857.3 136.1 857.4 135.4 857.4 135.6 857.4 135.9 857.4 136.4 857.4 136.9 857.4 136.2 857.4 135.5 857.4 135.8 857.4 136.1 857.4 136.5 857.4 137.1 857.4 137.3 857.4 137.6 857.4 136.4 857.4 136.6 857.4 136.9 857.4 135.7 857.4 135 857.4 135.2 857.4 134.3 857.4 134.5 857.4 134.8 857.5 135.2 857.5 135.8 857.5 136 857.5 136.4 857.5 136.8 857.5 137.4 857.5 137.6 857.5 138 857.5 136.7 857.5 136.9 857.5 137.3 857.5 136 857.5 136.2 857.5 136.5 857.5 137 857.5 135.3 857.6 135.5 857.6 135.8 857.6 136.3 857.6 136.8 857.6 137.1 857.6 137.4 857.6 136.1 857.6 135.4 857.6 135.7 857.6 136 857.6 136.4 857.6 134.7 857.6 134 857.7 134.3 857.7 134.6 857.7 135 857.7 135.6 857.7 134.9 857.7 134.2 857.7 134.4 857.7 134.8 857.7 135.2 857.7 133.5 857.8 133.7 857.8 134.1 857.8 134.5 857.8 132.8 857.8 133.1 857.8 133.4 857.8 133.8 857.8 134.4 857.8 134.6 857.8 134.9 857.8 135.4 857.9 133.7 857.9 133.9 857.9 134.2 857.9 134.7 857.9 133 857.9 133.2 857.9 132.3 857.9 132.5 857.9 132.9 857.9 133.3 857.9 131.6 857.9 131.8 858 132.2 858 132.6 858 130.9 858 131.2 858 130.2 858 130.5 858 129.5 858 129.8 858 130.1 858 130.5 858.1 131.1 858.1 131.3 858.1 130.4 858.1 130.6 858.1 131 858.1 131.4 858.1 131.9 858.1 132.2 858.1 132.5 858.1 132.9 858.1 131.3 858.1 131.5 858.1 131.8 858.1 132.3 858.2 132.8 858.2 133.1 858.2 133.4 858.2 133.9 858.2 134.4 858.2 134.7 858.2 135 858.2 133.7 858.2 134 858.2 134.3 858.2 134.7 858.3 135.3 858.3 135.5 858.3 134.6 858.3 134.8 858.3 135.2 858.3 135.6 858.3 136.2 858.4 136.4 858.4 135.5 858.4 135.7 858.4 136 858.4 136.5 858.4 137 858.5 137.3 858.5 136.3 858.5 136.6 858.5 136.9 858.6 135.6 858.6 135.9 858.6 136.2 858.6 136.6 858.6 137.2 858.6 137.4 858.7 137.8 858.7 138.2 858.8 138.8 858.8 139 858.8 139.4 858.9 139.8 858.9 140.4 858.9 140.6 858.9 140.9 858.9 141.4 859 141.9 859 142.2 859 141.2 859 141.4 859 141.8 859 142.2 859.1 142.8 859.1 142 859.1 141.3 859.1 140.6 859.1 140.9 859.1 141.2 859.1 141.6 859.1 139.9 859.1 140.2 859.1 140.5 859.1 140.9 859.1 141.5 859.1 141.8 859.1 140.8 859.2 141.1 859.2 141.4 859.2 140.1 859.2 140.4 859.2 140.7 859.3 139.4 859.3 139.7 859.3 140 859.3 140.4 859.3 141 859.3 141.2 859.4 141.5 859.4 142 859.4 142.6 859.4 142.8 859.4 143.1 859.4 143.5 859.4 144.1 859.5 144.3 859.5 143.4 859.5 142.7 859.5 143 859.6 143.3 859.6 143.7 859.8 142 859.8 142.3 859.8 142.6 859.8 143 859.8 143.6 859.9 143.8 859.9 144.1 859.9 142.9 859.9 143.1 859.9 142.2 859.9 142.4 859.9 141.5 859.9 141.7 859.9 142 859.9 140.8 859.9 140 859.9 140.3 859.9 140.6 859.9 141.1 859.9 141.6 860.1 140.9 860.1 140.2 860.1 139.5 860.2 139.7 860.2 138.8 860.2 138.1 860.2 138.4 860.2 138.7 860.2 139.1 860.2 137.4 860.2 137.7 860.3 138 860.3 138.4 860.3 139 860.3 139.2 860.3 139.5 860.3 140 860.3 140.5 860.3 140.8 860.3 139.8 860.3 140 860.3 140.4 860.3 140.8 860.3 139.1 860.3 138.4 860.3 138.7 860.3 139 860.3 139.4 860.3 140 860.4 139.3 860.4 139.5 860.4 138.6 860.4 138.8 860.4 139.1 860.4 137.8 860.4 137.1 860.4 137.4 860.4 136.4 860.4 136.7 860.4 137 860.4 137.4 860.5 138 860.5 137.3 860.5 137.5 860.5 137.9 860.5 136.6 860.6 136.8 860.6 135.9 860.6 135.2 860.6 135.4 860.6 135.8 860.7 134.5 860.7 134.7 860.7 135.1 860.7 133.8 860.7 134.1 860.7 134.4 860.7 133.1 860.8 132.4 860.8 132.7 860.9 133 860.9 131.7 861 132 861 132.3 861 132.7 861 131 861 130.3 861.1 130.5 861.1 130.9 861.1 131.3 861.1 129.6 861.1 129.9 861.1 130.2 861.1 130.6 861.1 131.2 861.1 131.5 861.1 131.8 861.1 132.2 861.1 132.8 861.1 133 861.1 133.3 861.1 133.7 861.1 134.3 861.1 134.6 861.1 134.9 861.2 135.3 861.2 135.9 861.2 135.2 861.2 135.4 861.2 135.8 861.2 136.2 861.2 136.8 861.3 136.1 861.3 136.3 861.4 136.6 861.4 137.1 861.4 137.6 861.4 137.9 861.4 138.2 861.4 138.6 861.4 136.9 861.4 137.2 861.5 137.5 861.5 138 861.5 136.3 861.5 136.5 861.5 136.8 861.5 135.6 861.5 135.8 861.5 134.9 861.5 134.1 861.5 134.4 861.5 134.7 861.5 135.1 861.6 135.7 861.6 135 861.6 135.2 861.6 135.5 861.6 134.3 861.6 134.5 861.6 133.6 861.6 133.8 861.6 132.9 861.6 133.1 861.6 133.4 861.7 132.2 861.7 132.4 861.7 132.8 861.7 131.5 861.7 131.7 861.7 130.8 861.7 131 861.7 130.1 861.7 130.3 861.7 130.6 861.8 131.1 861.9 131.7 862.3 130.9 862.3 130.2 862.3 129.5 862.3 129.8 862.3 128.8 862.3 128.1 862.3 127.4 862.4 127.6 862.4 126.7 862.4 126.9 862.5 127.2 862.5 127.7 862.5 128.3 862.5 128.5 862.6 127.6 862.6 127.8 862.6 128.1 862.6 128.5 862.6 129.1 862.6 128.4 862.6 128.6 862.6 128.9 862.6 129.4 862.6 129.9 862.7 130.2 862.7 130.5 862.7 130.9 862.8 131.5 862.8 130.8 862.8 131 862.8 131.3 862.9 131.8 862.9 132.4 862.9 132.6 862.9 132.9 862.9 133.3 862.9 133.9 862.9 134.1 862.9 134.5 863 134.9 863 135.5 863 135.7 863 136 863 136.5 863 137 863 137.3 863 137.6 863.1 138 863.1 138.6 863.1 137.9 863.2 137.2 863.2 137.5 863.2 137.8 863.2 138.2 863.2 138.8 863.3 138.1 863.3 138.3 863.3 137.4 863.8 137.6 863.8 137.9 863.8 138.3 863.8 136.7 863.9 136 863.9 135.3 863.9 134.5 863.9 133.8 863.9 133.1 863.9 133.4 863.9 132.4 863.9 131.7 863.9 131 863.9 130.3 863.9 129.6 863.9 129.8 863.9 130.2 863.9 130.6 863.9 128.9 863.9 128.2 863.9 128.5 863.9 128.8 863.9 129.2 863.9 129.8 863.9 129.1 863.9 129.3 863.9 128.4 863.9 128.6 863.9 128.9 863.9 129.4 863.9 129.9 863.9 129.2 863.9 128.5 863.9 127.8 863.9 128.1 863.9 127.1 863.9 127.4 863.9 127.7 863.9 128.1 863.9 126.4 863.9 126.7 863.9 125.7 863.9 126 863.9 126.3 863.9 126.7 863.9 127.3 863.9 127.5 863.9 126.6 863.9 125.9 863.9 125.2 863.9 124.5 863.9 124.7 863.9 125 863.9 123.8 863.9 124 863.9 124.3 863.9 123.1 863.9 123.3 863.9 123.6 863.9 122.4 863.9 122.6 863.9 121.7 863.9 121.9 863.9 121 863.9 121.2 863.9 121.5 863.9 122 863.9 122.5 863.9 121.8 863.9 122.1 863.9 121.1 863.9 121.4 863.9 121.7 863.9 122.1 863.9 122.7 863.9 122 863.9 122.2 863.9 121.3 863.9 121.5 863.9 121.8 863.9 120.6 863.9 120.8 863.9 121.1 863.9 119.9 863.9 120.1 863.9 120.5 863.9 120.9 864 121.5 864 121.7 864 122 864 120.8 864 121 864 121.3 864 121.8 864 122.3 864 122.6 864 121.6 864 121.9 864 122.2 864.1 120.9 864.1 121.2 864.1 121.5 864.2 121.9 864.2 120.2 864.2 120.5 864.2 120.8 864.2 121.2 864.2 119.6 864.2 119.8 864.2 118.8 864.2 118.1 864.2 118.4 864.2 117.4 864.2 117.7 864.2 118 864.2 118.4 864.2 119 864.3 118.3 864.3 118.5 864.3 117.6 864.4 116.9 864.4 116.1 864.4 116.4 865 116.7 865 117.1 865 117.7 865 117.9 865 118.3 865 118.7 865 119.3 865 119.5 865 119.9 865.1 120.3 865.1 120.9 865.1 121.1 865.1 121.4 865.1 121.9 865.1 122.4 865.1 122.7 865.1 123 865.1 123.5 865.1 124 865.2 124.3 865.2 124.6 865.2 125 865.2 125.6 865.3 125.9 865.4 126.2 865.4 126.6 865.4 124.9 865.4 125.2 865.5 125.5 865.5 125.9 865.5 126.5 865.5 126.7 865.5 127.1 865.5 127.5 865.7 125.8 865.7 126.1 865.7 125.1 865.7 125.4 865.7 125.7 865.7 126.1 865.8 126.7 865.8 126.9 865.8 127.2 865.9 127.7 865.9 128.2 865.9 128.5 865.9 128.8 865.9 129.3 866 129.8 866.1 130.1 866.1 130.4 866.1 130.8 866.1 131.4 866.1 131.7 866.1 130.7 866.1 130.9 866.1 131.3 866.1 130 866.2 129.3 866.2 128.6 866.2 128.8 866.2 129.2 866.2 129.6 866.2 130.2 866.2 129.5 866.3 129.7 866.3 130 866.3 128.8 866.3 129 866.3 128.1 866.3 128.3 866.3 128.6 866.3 127.4 866.3 127.6 866.3 126.7 866.3 126.9 866.3 125.9 866.3 125.2 866.3 125.5 866.3 124.5 866.4 124.8 866.4 125.1 866.4 125.5 866.4 126.1 866.4 126.3 866.4 126.6 866.4 127.1 866.4 127.7 866.4 127.9 866.4 128.2 866.4 128.7 866.4 129.2 866.4 129.5 866.4 128.5 866.4 128.8 866.4 129.1 866.4 129.5 866.5 130.1 866.5 130.4 866.5 130.7 866.5 131.1 866.5 131.7 866.5 131.9 866.5 132.2 866.6 132.7 866.6 133.3 866.6 133.5 866.6 133.8 866.6 132.6 866.6 131.9 866.6 132.1 866.6 132.4 866.6 132.9 866.7 133.4 866.7 133.7 866.7 132.7 866.7 132 866.7 131.3 866.7 130.6 866.7 129.9 866.7 130.1 866.7 129.2 866.7 128.4 866.7 128.7 866.7 127.7 866.7 128 866.7 128.3 866.8 128.7 866.8 129.3 866.8 129.5 866.8 129.9 866.8 130.3 866.8 130.9 866.8 130.2 867 130.4 867 130.7 867.1 131.2 867.1 131.7 867.4 132 867.4 132.3 867.4 132.8 867.4 133.3 867.5 133.6 867.5 133.9 867.5 134.3 867.5 134.9 868.2 134.2 868.2 134.4 868.3 134.7 868.4 135.2 868.4 135.7 868.4 136 868.4 136.3 868.4 136.7 868.4 137.3 868.4 137.5 868.4 137.8 868.4 138.3 868.4 138.8 868.5 138.1 868.5 138.3 868.5 138.7 868.6 137.4 868.6 137.7 868.6 138 868.6 138.4 868.6 139 868.6 139.2 868.6 139.6 868.7 140 868.7 140.6 868.7 140.8 868.7 141.1 868.7 141.6 868.7 142.1 868.7 142.4 868.7 142.7 868.7 143.1 868.8 141.5 868.8 140.8 868.8 141 868.8 141.3 868.8 141.8 869 142.3 869 142.6 869 142.9 869 143.3 869 143.9 869 144.2 869 144.5 869.1 143.2 869.1 142.5 869.1 142.8 869.1 143.1 869.1 143.5 869.1 144.1 869.2 144.3 869.2 144.7 869.2 145.1 869.2 145.6 869.2 145.9 869.2 146.2 869.2 146.7 869.2 147.2 869.2 146.5 869.2 145.8 869.2 146.1 869.2 145.1 869.2 145.4 869.2 144.4 869.2 143.7 869.4 143 869.4 142.3 869.4 142.5 869.4 142.8 869.5 143.3 869.5 143.9 869.5 144.1 869.5 144.4 869.5 144.9 869.5 145.4 869.6 145.7 869.6 146 869.6 146.4 869.6 147 869.7 147.2 869.8 147.6 869.8 148 869.8 148.6 869.8 148.8 869.8 149.1 869.8 149.6 869.9 150.1 869.9 150.4 869.9 150.7 870.3 151.1 870.3 151.7 870.5 151.9 870.5 152.2 870.5 152.7 870.6 153.3 870.6 153.5 870.6 153.8 871 152.6 871.2 152.8 871.5 151.9 874.2 151.2 876.2 151.4 877.7 150.4 879.8 150.7 879.9 151 879.9 151.4 881 152 881.6 152.2 881.7 152.6 882 153 885.4 151.3 887 151.6 887 151.9 890 150.6 890.7 150.9 895.9 149.9 904.1 149.2 906.6 148.5 907.2 148.7 910.1 147.8 915.6 147.1 917.4 147.3 918.7 147.7 929.6 148.1"/><line x1="88" x2="110" y1="102" y2="102" stroke="#16a34a" stroke-width="2.5"/><text x="116" y="106" fill="#374151" font-size="11.5">equity</text><line x1="88" x2="110" y1="118" y2="118" stroke="#d97706" stroke-width="2.5" opacity=".8"/><text x="116" y="122" fill="#374151" font-size="11.5">price</text><text x="78" y="502" fill="#6b7280" font-size="12" text-anchor="start">2025-10-10</text><text x="934" y="502" fill="#6b7280" font-size="12" text-anchor="end">2025-10-10</text></svg>