<?xml version="1.0" encoding="UTF-8"?>
<svg xmlns="http://www.w3.org/2000/svg" width="1000" height="520" viewBox="0 0 1000 520" font-family="ui-sans-serif, system-ui, sans-serif">
  <rect width="1000" height="520" fill="#ffffff"/>
  <text x="78" y="28" font-size="18" font-weight="700" fill="#111827">Zone Recovery — NEARUSDC best setting (equity / PnL)</text>
  <text x="78" y="48" font-size="12.5" fill="#6b7280">lev 5 · ratio 4 · gap 20% · maxSteps 4 · maxDD 60% · random · vip 9  ·  7 series, 100.0% win · vol $2249045 ($2249219/day) · fees $190.27</text>
  <text x="78" y="68" font-size="12.5" font-weight="600" fill="#1d4ed8">USDC · BNB −10% · taker 0.0085%</text>
  <text x="934" y="28" text-anchor="end" font-size="18" font-weight="700" fill="#16a34a">+92007 USDT  (+920.07%)</text>
  <line x1="78" y1="468.0" x2="934" y2="468.0" stroke="#e5e7eb" stroke-width="1"/><text x="68" y="472.0" text-anchor="end" font-size="12" fill="#6b7280">0.00</text><line x1="78" y1="392.0" x2="934" y2="392.0" stroke="#e5e7eb" stroke-width="1"/><text x="68" y="396.0" text-anchor="end" font-size="12" fill="#6b7280">24605</text><line x1="78" y1="316.0" x2="934" y2="316.0" stroke="#e5e7eb" stroke-width="1"/><text x="68" y="320.0" text-anchor="end" font-size="12" fill="#6b7280">49210</text><line x1="78" y1="240.0" x2="934" y2="240.0" stroke="#e5e7eb" stroke-width="1"/><text x="68" y="244.0" text-anchor="end" font-size="12" fill="#6b7280">73816</text><line x1="78" y1="164.0" x2="934" y2="164.0" stroke="#e5e7eb" stroke-width="1"/><text x="68" y="168.0" text-anchor="end" font-size="12" fill="#6b7280">98421</text><line x1="78" y1="88.0" x2="934" y2="88.0" stroke="#e5e7eb" stroke-width="1"/><text x="68" y="92.0" text-anchor="end" font-size="12" fill="#6b7280">123026</text>
  <line x1="78" y1="437.1" x2="934" y2="437.1" stroke="#9ca3af" stroke-width="1.5" stroke-dasharray="6 4"/><text x="934" y="431.1" text-anchor="end" font-size="11" fill="#6b7280">start 10000</text>
  <polyline points="78.0,181.2 80.7,179.9 83.1,180.1 86.3,180.1 88.7,178.5 90.6,178.7 93.5,178.7 95.7,178.1 97.4,179.5 99.8,179.1 102.0,178.7 103.8,180.3 106.6,181.4 109.6,180.7 112.3,181.4 115.6,180.7 117.5,179.1 119.5,179.9 121.9,178.7 125.0,177.9 126.7,178.7 130.5,178.1 133.7,179.1 137.6,179.9 141.3,180.3 144.7,179.3 146.8,179.7 149.7,178.9 151.7,179.3 154.3,181.0 156.8,179.5 160.7,178.7 162.8,177.5 165.7,177.7 168.3,177.2 170.3,178.1 173.4,177.9 174.7,176.2 177.6,177.7 179.9,177.0 181.5,177.9 183.8,178.3 186.9,178.9 188.4,178.3 190.1,178.9 192.6,177.9 194.6,177.7 196.3,175.2 198.1,173.3 199.2,172.9 200.4,171.7 201.0,170.7 201.7,169.8 202.4,168.6 203.2,167.6 203.8,166.1 204.2,164.9 204.4,164.3 204.9,163.4 205.2,164.1 206.0,163.8 206.5,163.6 207.0,163.8 207.9,165.3 208.4,165.3 209.1,165.5 209.6,164.3 210.2,164.9 211.3,163.6 211.8,164.1 212.5,163.2 213.2,162.2 213.6,161.4 214.1,161.2 214.6,161.4 215.5,162.2 216.4,164.1 217.0,165.9 217.8,166.9 218.3,167.3 218.9,167.4 219.8,166.3 220.4,165.1 220.8,163.8 221.4,164.5 222.0,163.9 222.5,163.6 223.3,163.4 224.3,163.2 225.3,162.2 226.1,162.2 226.9,161.8 227.8,161.8 228.8,161.0 229.5,161.4 230.2,160.4 230.9,160.6 232.1,161.8 233.1,160.8 233.9,160.3 235.4,161.4 236.5,161.4 237.9,161.2 239.4,161.4 240.3,160.6 241.4,161.6 242.6,163.4 244.1,163.8 245.6,163.8 247.1,162.4 248.2,162.2 249.0,160.8 250.5,161.2 251.6,160.6 253.7,161.0 256.5,161.2 258.3,162.6 259.5,164.3 260.5,163.4 261.5,163.0 262.4,164.1 263.7,164.7 264.9,164.3 266.5,163.4 268.1,162.6 270.3,159.9 271.2,159.7 272.3,158.7 274.0,160.3 275.2,160.6 276.5,162.4 277.9,162.8 280.3,160.8 282.2,158.5 283.2,159.7 284.1,157.7 284.6,158.5 284.9,154.0 284.9,151.3 284.9,152.3 284.9,150.7 284.9,148.8 284.9,148.2 284.9,149.2 284.9,151.1 284.9,149.0 284.9,149.0 284.9,149.6 284.9,150.0 284.9,150.3 284.9,153.3 284.9,151.7 284.9,151.1 284.9,150.7 284.9,150.7 285.0,150.7 285.0,150.9 285.1,150.3 285.3,148.4 285.4,148.0 285.5,148.4 285.6,149.4 286.0,150.9 286.1,150.9 286.2,151.1 286.6,150.0 287.1,150.2 287.6,150.2 287.8,147.6 287.8,146.8 287.9,146.3 288.1,146.7 288.4,144.1 288.7,142.6 289.0,142.2 289.2,143.7 289.3,145.1 289.6,146.1 289.8,145.5 290.4,145.1 290.8,144.7 291.4,145.7 291.8,144.3 292.0,143.5 292.1,142.2 292.4,143.0 292.6,140.8 292.8,141.0 293.2,140.2 293.5,139.1 293.8,137.9 294.1,137.7 294.4,135.2 294.4,137.9 294.5,137.9 294.7,140.8 295.0,141.4 295.3,142.2 295.6,139.7 295.8,138.1 296.2,137.7 296.7,137.3 297.0,137.5 297.5,137.9 297.9,138.1 298.4,140.2 298.6,142.4 299.2,142.2 299.3,144.5 299.6,144.3 300.1,145.3 300.4,146.3 300.7,149.0 301.0,149.2 301.1,149.0 301.5,150.0 301.9,149.4 302.3,149.0 302.9,149.4 303.4,149.2 303.7,151.1 303.7,153.5 303.8,154.6 304.0,153.1 304.4,150.9 304.6,152.1 305.0,151.7 305.9,151.9 306.5,152.9 307.1,153.3 307.9,155.0 308.6,155.0 309.6,155.8 310.1,154.8 310.7,153.5 311.3,154.6 311.8,155.6 312.6,153.1 313.1,153.6 313.7,154.4 314.3,154.0 314.9,153.1 315.4,153.6 315.9,152.1 316.7,150.7 317.5,149.2 318.5,151.5 319.4,150.0 320.0,149.2 320.6,148.6 321.8,149.6 322.3,150.9 323.0,151.3 324.1,151.9 325.1,152.5 326.1,152.7 327.2,151.9 328.3,154.4 328.9,154.8 329.6,154.4 331.2,154.6 332.7,156.4 333.3,155.6 333.9,154.0 334.7,152.5 335.8,152.5 337.1,155.2 338.0,157.0 338.5,158.1 339.0,157.9 339.4,156.8 339.9,153.8 340.8,153.8 341.5,154.4 342.2,154.4 342.4,156.2 343.0,156.0 343.9,154.6 345.1,152.5 345.7,153.3 346.7,156.2 347.3,157.1 348.2,158.1 349.1,157.0 349.8,156.2 350.6,156.6 351.3,156.4 352.2,156.4 353.5,157.3 354.3,157.5 354.9,157.0 355.3,158.7 355.3,159.9 355.4,160.1 355.8,160.1 355.9,160.3 356.1,159.7 356.8,160.3 357.4,160.6 358.2,161.2 359.1,160.6 360.4,160.6 361.8,160.6 362.9,161.8 364.1,162.0 364.7,159.9 365.5,161.4 366.3,163.9 366.7,163.9 367.3,162.8 368.3,162.4 368.5,162.2 368.8,162.0 369.5,160.3 370.2,158.7 371.1,159.3 372.4,158.9 373.3,158.1 374.0,157.0 374.7,158.1 375.7,158.9 376.5,158.5 377.6,157.1 378.8,156.2 379.7,156.4 380.9,156.2 381.9,155.6 382.7,156.0 384.0,157.9 385.3,158.9 386.0,159.1 387.0,159.3 388.2,160.8 388.9,160.1 389.7,159.7 390.5,158.5 391.4,159.7 392.4,158.7 393.5,157.3 394.3,157.5 395.3,157.9 396.8,157.0 397.1,154.6 397.5,153.8 398.4,153.6 399.5,152.9 400.0,153.5 400.7,155.4 401.3,153.5 402.1,153.6 402.9,154.2 404.2,155.0 405.4,155.0 406.5,153.6 407.6,155.0 408.4,152.9 409.1,154.4 410.3,155.8 411.2,155.4 412.6,154.0 413.6,152.5 413.7,150.2 413.7,149.4 414.0,149.0 414.4,146.5 414.5,146.1 414.8,144.7 415.2,143.7 415.7,142.2 416.1,144.1 416.3,143.9 416.9,143.7 417.3,145.1 417.5,142.6 418.1,143.0 418.2,140.2 418.5,141.2 418.6,139.1 418.8,140.6 418.9,138.7 419.2,138.3 419.4,139.3 419.9,136.2 419.9,134.6 419.9,134.8 419.9,132.5 419.9,133.1 419.9,131.9 419.9,130.5 420.0,133.4 420.1,135.2 420.2,134.2 420.2,132.9 420.3,133.8 420.4,137.3 420.6,137.9 420.7,139.5 420.8,137.9 420.9,139.1 421.1,140.2 421.5,141.2 421.6,141.0 422.2,141.6 422.6,141.6 423.0,143.0 423.7,143.4 424.4,143.0 424.7,143.2 425.4,145.5 426.2,144.9 427.0,145.9 428.1,147.0 429.0,148.2 429.9,147.2 430.7,150.2 431.0,151.7 431.8,150.3 432.5,151.1 433.9,151.7 435.0,150.7 435.8,149.6 436.4,148.4 436.9,147.6 438.0,147.6 438.5,146.3 438.9,145.9 440.6,146.3 441.8,146.7 443.6,146.7 444.9,145.9 446.4,145.5 447.2,145.3 448.6,147.2 450.0,145.5 451.7,144.1 452.8,143.2 453.9,143.2 454.8,140.4 455.5,141.0 456.1,142.6 457.1,142.2 458.6,143.5 459.6,145.1 460.2,142.0 461.3,140.4 462.2,140.4 463.7,140.4 463.7,138.1 464.2,137.7 464.6,137.5 465.7,138.3 467.2,137.1 468.3,135.4 469.3,134.2 469.9,133.4 470.5,133.2 471.3,132.9 472.1,134.4 472.7,133.6 473.7,134.0 474.1,135.0 474.5,136.6 475.1,135.8 476.2,134.2 476.8,135.0 477.4,136.6 478.0,138.1 478.9,137.3 480.3,137.5 481.2,136.7 481.5,134.2 482.0,135.4 482.8,135.0 483.7,136.9 485.1,135.4 486.1,136.0 487.4,135.4 489.1,134.8 489.6,132.1 489.7,130.5 490.3,131.5 491.4,132.3 492.2,129.8 492.3,130.3 492.9,130.9 493.8,133.1 494.8,133.2 495.4,131.7 496.5,131.9 497.7,132.1 499.5,131.7 500.6,130.7 501.8,129.8 502.6,129.4 502.9,127.4 503.3,128.0 504.3,127.0 505.2,128.0 506.2,127.4 506.8,127.4 507.4,128.2 508.3,127.6 509.0,127.2 509.5,126.6 509.7,125.3 510.0,124.7 510.6,124.9 511.9,126.1 512.3,127.8 512.8,129.4 513.2,130.9 513.9,131.3 514.7,132.5 515.4,134.4 516.1,133.6 516.8,132.5 517.9,133.8 518.4,135.8 519.1,135.4 519.9,135.0 521.0,134.0 521.5,132.9 522.4,132.5 523.4,132.5 523.7,129.6 523.9,128.4 524.1,125.9 524.3,125.7 524.4,126.6 524.9,128.4 525.2,126.1 525.4,125.7 526.0,124.5 526.9,124.7 527.1,123.3 527.3,123.0 527.5,123.7 527.8,123.5 528.3,126.8 528.7,129.0 529.4,128.2 529.8,126.6 530.2,127.6 530.4,125.1 530.5,125.1 530.8,123.5 531.0,122.8 531.0,120.4 531.0,120.2 531.1,120.8 531.2,119.5 531.4,119.6 531.5,120.8 531.8,122.4 532.2,121.6 532.5,120.2 532.9,120.0 533.2,119.1 533.4,118.9 533.5,121.2 533.6,121.4 533.9,121.8 534.3,123.7 534.7,124.9 534.9,122.8 535.4,121.8 536.0,121.8 536.4,121.2 536.9,121.2 537.6,122.2 538.0,120.6 538.7,120.6 539.7,121.6 540.4,122.8 541.1,122.8 542.0,122.6 542.4,123.7 542.7,124.5 543.2,122.8 543.5,120.4 543.9,120.8 544.1,119.6 544.3,120.4 545.0,122.0 545.4,122.8 545.9,121.8 546.2,121.2 547.0,122.6 547.5,123.7 548.3,125.3 548.8,126.1 549.9,126.8 550.8,126.3 551.8,125.3 552.4,124.9 552.9,123.9 553.8,123.3 555.4,124.9 556.4,123.9 557.0,122.8 557.9,124.1 558.7,124.3 559.5,123.9 560.1,125.5 560.5,125.1 561.1,127.2 561.6,127.4 562.3,126.1 562.9,125.9 563.5,126.6 564.2,126.1 565.0,123.7 565.5,124.3 566.2,125.1 567.1,123.7 567.6,124.3 568.4,124.7 569.0,124.3 569.7,124.5 570.6,123.9 571.5,125.7 572.1,125.5 572.6,126.3 573.5,126.1 574.0,128.4 574.9,129.0 575.3,129.8 576.2,128.0 576.7,125.5 577.3,123.9 577.8,121.6 578.0,122.2 578.2,123.7 578.5,123.9 578.9,121.4 579.0,120.4 579.2,119.3 579.5,120.0 579.6,116.3 579.6,116.1 579.6,115.2 579.7,115.2 579.7,115.8 579.7,116.7 579.8,116.1 579.9,116.1 580.2,115.2 580.8,116.5 581.2,116.3 581.9,116.3 582.3,115.4 582.8,116.0 583.3,115.8 583.8,118.5 584.3,118.1 585.5,120.4 586.0,121.0 586.5,120.2 587.1,121.8 587.6,122.6 588.0,124.5 588.2,123.3 588.9,124.7 589.4,124.1 590.1,123.5 590.1,121.4 590.2,119.6 590.4,119.3 590.5,117.7 590.5,119.6 590.8,119.3 591.2,120.8 591.7,121.8 591.9,121.0 592.5,120.2 593.0,119.3 593.6,120.4 594.2,122.2 594.6,124.3 594.9,123.9 595.4,124.5 595.8,122.4 596.4,122.4 597.0,123.9 597.5,124.9 597.9,125.5 598.6,125.3 599.2,127.0 600.0,125.7 600.7,126.1 601.3,125.3 602.1,126.1 603.0,126.6 603.2,126.1 603.7,125.3 604.5,124.1 605.0,124.3 605.6,124.5 605.9,124.9 606.3,124.5 607.0,122.2 607.6,122.4 608.7,123.9 609.5,124.1 610.3,125.5 610.9,127.2 611.6,127.8 611.8,130.9 611.9,130.3 611.9,129.8 612.0,131.7 612.1,130.5 612.2,132.3 612.3,134.0 612.4,132.9 612.5,131.1 612.5,131.3 612.6,130.9 612.7,130.9 612.8,130.5 613.0,131.5 613.1,130.9 613.2,130.3 613.3,132.3 613.4,133.1 613.6,133.1 613.7,134.8 613.7,134.4 613.8,136.9 613.9,136.0 614.0,136.7 614.2,137.7 614.3,137.1 614.4,139.1 614.5,139.5 614.6,137.3 614.7,137.7 614.9,138.3 614.9,136.2 615.0,136.2 615.2,137.3 615.4,136.6 615.5,138.1 615.6,140.6 615.7,139.5 615.8,140.6 616.0,139.3 616.1,140.4 616.3,139.1 616.3,141.2 616.4,138.9 616.6,137.3 616.7,137.7 616.8,139.5 616.9,138.7 617.0,135.6 617.1,133.6 617.2,135.4 617.3,135.4 617.4,135.2 617.5,134.6 617.7,134.2 617.9,135.0 618.1,136.2 618.4,138.5 618.5,136.9 618.7,137.9 619.0,136.9 619.1,134.0 619.4,134.4 619.6,132.7 619.8,132.5 620.0,132.7 620.2,134.2 620.7,134.4 621.1,135.2 621.4,134.0 621.8,135.4 622.2,134.4 622.5,133.8 622.9,135.6 623.2,136.7 623.4,137.1 623.6,138.1 623.7,136.9 624.1,138.3 624.3,137.9 624.6,139.3 624.9,139.1 625.1,139.1 625.3,139.7 625.5,139.1 625.6,141.0 625.8,141.0 625.9,144.1 626.1,144.7 626.2,143.5 626.3,144.9 626.4,143.4 626.4,142.6 626.5,143.2 626.7,142.4 626.8,142.4 627.0,143.7 627.1,143.7 627.2,145.5 627.3,143.5 627.4,144.1 627.6,143.5 627.8,145.9 627.9,144.7 627.9,144.1 628.1,146.1 628.2,145.1 628.2,147.8 628.3,147.4 628.4,148.8 628.4,147.6 628.4,150.0 628.4,148.6 628.5,148.0 628.5,146.8 628.6,146.7 628.7,148.0 628.9,147.0 628.9,145.9 629.1,146.1 629.2,146.3 629.3,145.5 629.6,144.1 629.7,143.9 630.0,144.5 630.2,145.5 630.3,146.7 630.5,145.9 630.8,146.3 630.9,146.3 631.0,146.5 631.1,148.4 631.2,148.6 631.3,150.7 631.4,150.0 631.5,148.0 631.6,149.2 631.7,152.3 631.8,151.7 631.8,150.5 631.9,153.3 632.0,155.6 632.0,153.5 632.1,151.5 632.1,152.1 632.2,151.3 632.2,151.5 632.3,151.7 632.4,151.1 632.6,152.1 632.7,151.1 632.8,150.3 632.9,151.1 633.0,151.1 633.2,150.9 633.3,152.1 633.4,153.3 633.5,154.0 633.6,153.5 633.7,154.8 633.7,153.6 633.8,152.1 633.9,150.7 633.9,150.7 634.0,150.0 634.1,149.4 634.2,148.6 634.3,149.8 634.4,150.0 634.5,150.0 634.6,149.0 634.8,150.5 634.9,148.6 635.0,149.2 635.2,147.0 635.3,146.5 635.4,145.7 635.6,145.7 635.7,147.2 635.8,145.7 635.9,144.9 636.0,146.5 636.2,146.5 636.4,145.3 636.7,145.7 636.9,146.5 637.1,148.6 637.3,150.0 637.4,149.0 637.6,148.4 637.7,147.6 638.0,145.9 638.2,146.5 638.3,146.3 638.4,144.5 638.7,143.9 638.8,142.8 639.0,142.0 639.3,140.4 639.5,139.5 639.7,137.3 639.8,138.5 639.9,140.2 640.1,140.8 640.3,142.2 640.4,141.8 640.6,141.2 641.0,142.4 641.2,143.0 641.6,143.5 641.8,143.7 642.1,143.4 642.2,143.9 642.4,144.3 642.7,143.9 643.0,144.7 643.3,143.4 643.6,142.0 643.7,143.0 644.0,143.5 644.2,143.7 644.5,143.9 644.9,144.3 645.2,144.7 645.4,145.7 645.9,147.2 646.2,147.8 646.5,148.2 646.8,147.8 647.2,148.6 647.5,149.4 647.6,149.4 647.9,148.6 648.4,149.4 648.7,149.0 649.0,148.2 649.3,149.4 649.6,148.0 649.9,147.8 650.0,148.4 650.3,149.6 650.5,151.1 650.7,150.3 650.8,148.4 651.1,149.8 651.3,150.0 651.7,149.4 651.9,147.0 652.1,146.5 652.3,146.3 652.5,144.9 652.7,144.5 653.1,145.9 653.3,145.9 653.6,145.3 654.0,143.5 654.2,142.6 654.5,142.2 654.8,143.4 655.1,144.5 655.4,145.9 655.7,145.1 655.9,145.5 656.3,146.8 656.7,146.8 657.1,145.3 657.6,146.1 658.0,146.5 658.3,146.3 658.7,148.2 658.9,149.0 659.4,149.0 660.0,149.0 660.2,146.3 660.6,146.5 661.1,145.9 661.4,147.2 661.7,145.5 661.8,145.5 662.1,144.3 662.6,143.2 662.7,141.0 662.8,140.6 663.0,141.8 663.4,140.6 663.6,140.8 664.1,141.8 664.4,139.9 664.6,139.9 664.9,139.7 665.2,139.5 665.3,140.0 665.7,140.6 666.1,141.2 666.4,141.2 666.5,141.8 666.7,140.2 667.0,140.4 667.3,142.4 667.5,140.8 667.9,140.4 668.3,140.4 668.7,139.3 668.9,139.9 669.3,139.9 669.6,140.4 669.9,138.9 670.2,139.3 670.5,136.9 670.8,136.9 671.2,136.4 671.6,139.5 671.9,139.5 672.2,139.3 672.6,137.9 673.1,138.9 673.4,141.2 674.0,140.8 674.5,143.4 675.3,144.9 675.7,146.1 676.0,146.5 676.7,144.7 677.2,144.7 677.5,146.8 678.0,146.1 678.6,147.6 679.3,145.3 680.1,144.9 680.7,147.2 681.1,146.7 681.5,147.2 682.0,147.2 682.4,147.0 682.8,147.6 683.3,148.8 684.0,148.6 684.5,148.8 685.0,147.8 685.5,148.2 686.1,150.0 686.5,150.9 686.9,150.5 687.2,151.7 687.5,151.3 688.0,150.0 688.8,149.8 689.2,150.7 689.7,150.7 690.4,151.1 690.7,151.9 691.2,152.1 691.5,149.8 691.9,148.8 692.4,150.9 693.0,152.7 693.5,151.7 693.9,150.9 694.5,150.3 695.1,150.7 695.7,150.9 696.4,151.1 697.1,152.1 697.6,150.3 698.3,148.8 698.9,149.4 699.5,150.2 700.3,150.3 701.0,150.3 701.6,148.6 702.1,149.0 702.6,148.8 703.1,149.2 703.6,150.7 704.6,150.7 705.2,150.3 705.8,152.5 706.4,152.7 706.8,154.0 707.5,155.4 707.8,155.8 708.4,156.0 708.9,154.0 709.4,153.1 710.0,153.3 711.0,152.9 711.4,155.0 711.7,156.2 712.0,156.4 712.1,156.4 712.3,154.4 712.8,154.0 713.2,152.1 713.6,154.2 714.2,155.0 714.7,154.8 715.5,155.6 716.0,154.8 716.7,155.8 717.0,157.0 717.4,155.6 718.1,157.3 718.8,157.7 719.5,158.1 720.2,158.7 720.6,159.3 721.3,158.1 721.9,157.1 722.6,157.5 723.4,157.1 724.2,158.1 724.7,158.5 725.4,158.3 726.1,158.5 726.9,158.1 728.2,159.3 729.0,158.9 729.7,157.3 730.6,157.5 731.3,158.1 731.9,159.3 732.5,157.5 733.2,157.9 734.0,155.8 734.9,154.6 735.3,153.6 736.0,153.3 736.8,155.2 737.7,157.1 738.4,156.8 738.9,156.8 739.6,156.6 740.3,155.8 741.1,156.6 742.1,157.9 742.4,158.7 743.6,158.9 744.0,160.3 744.4,158.9 744.9,158.5 745.2,159.3 746.1,160.1 747.0,159.7 748.0,160.1 748.8,162.8 749.3,161.8 749.9,161.0 750.5,160.3 751.5,160.1 752.6,160.8 753.7,159.1 755.4,160.6 756.0,158.9 756.7,158.7 757.5,158.5 758.5,158.7 759.2,158.9 759.9,158.7 760.8,160.3 761.4,159.1 761.8,160.3 762.4,159.7 762.8,162.2 763.0,162.4 763.4,161.6 763.8,161.0 764.7,161.2 765.1,160.8 765.5,160.4 765.9,160.8 766.8,162.0 767.6,160.3 767.9,162.0 768.2,161.6 768.7,162.6 768.9,162.6 769.3,161.8 769.8,163.0 770.2,162.0 770.7,160.1 771.1,158.9 771.5,159.9 772.0,161.6 772.5,163.8 772.9,166.5 772.9,165.3 773.2,166.5 773.3,168.2 773.4,168.2 773.5,170.0 773.6,168.2 773.7,166.9 773.8,165.9 774.0,165.9 774.2,165.1 774.5,165.5 774.8,165.9 775.1,165.5 775.4,167.6 775.6,167.6 775.9,167.4 776.3,167.1 776.6,167.3 777.0,167.4 777.3,167.3 777.9,166.9 778.5,165.3 778.9,165.5 779.1,165.3 779.5,164.7 779.9,164.9 780.2,163.8 780.6,162.2 780.8,162.6 781.1,162.4 781.6,161.4 782.0,161.4 782.5,160.1 782.8,159.5 783.1,159.7 783.4,161.2 783.8,160.8 784.3,159.9 785.0,159.1 785.5,159.3 785.8,161.6 786.2,162.4 786.7,163.6 787.1,164.1 787.6,163.2 788.0,164.7 788.5,165.3 789.1,165.1 789.7,163.9 790.2,164.3 790.9,165.7 791.4,165.3 792.1,166.1 792.7,166.5 793.2,166.9 794.0,165.3 794.4,164.5 794.8,165.3 795.9,166.5 796.9,167.3 798.0,165.9 799.0,164.5 799.7,166.3 800.7,164.9 801.4,163.6 802.2,165.1 803.3,166.1 804.6,164.9 805.4,162.6 806.3,163.4 807.5,162.4 808.6,161.8 809.8,164.3 810.7,166.5 811.4,166.5 812.2,166.5 813.5,166.5 814.6,166.3 815.5,165.7 816.6,165.3 817.6,163.9 818.1,164.3 819.4,165.5 820.6,167.1 821.2,169.4 821.2,171.5 821.3,171.3 821.4,172.5 821.5,173.9 821.7,172.3 821.8,171.3 821.9,172.1 822.0,173.3 822.2,172.9 822.3,172.1 822.5,173.1 822.7,172.9 822.8,174.4 822.9,175.2 822.9,175.2 823.0,173.1 823.1,172.3 823.2,172.7 823.4,175.6 823.4,178.1 823.5,177.4 823.6,176.8 823.7,179.1 823.8,179.3 823.8,178.3 824.0,178.1 824.1,177.7 824.2,177.4 824.2,179.7 824.3,181.2 824.4,179.7 824.6,180.5 824.6,182.8 824.7,183.8 824.8,185.1 824.9,186.5 824.9,189.6 825.0,190.0 825.0,187.1 825.1,189.2 825.1,189.2 825.2,186.1 825.3,188.4 825.3,188.8 825.4,187.3 825.5,187.5 825.5,190.2 825.6,188.2 825.7,188.6 825.9,187.7 825.9,190.0 826.0,192.1 826.1,192.5 826.2,189.6 826.2,189.6 826.4,192.1 826.4,194.3 826.5,192.3 826.6,192.3 826.6,192.9 826.7,194.6 826.8,197.6 826.8,199.9 826.9,203.0 826.9,203.2 826.9,203.0 827.0,201.8 827.0,200.5 827.1,200.7 827.1,201.8 827.2,203.2 827.2,202.0 827.2,205.1 827.3,201.8 827.4,200.9 827.4,201.8 827.4,202.8 827.5,204.4 827.6,207.9 827.6,204.6 827.7,204.6 827.7,203.4 827.8,203.2 827.8,201.4 827.9,200.5 828.0,198.1 828.1,197.4 828.2,196.6 828.3,199.1 828.3,198.7 828.4,196.4 828.5,196.0 828.6,198.1 828.7,196.2 828.8,197.0 828.9,196.2 828.9,195.0 829.0,194.5 829.1,195.0 829.2,195.4 829.3,195.2 829.4,196.4 829.5,195.8 829.6,195.8 829.8,196.4 830.1,196.0 830.2,198.5 830.4,198.5 830.5,200.3 830.6,201.3 830.8,199.7 830.9,199.7 831.1,200.3 831.2,200.1 831.4,198.3 831.6,200.3 831.7,201.3 831.8,201.8 831.9,201.1 832.1,202.4 832.3,203.8 832.4,202.4 832.6,201.1 832.8,199.3 833.0,199.5 833.1,199.9 833.3,200.7 833.5,201.6 833.6,201.4 833.8,203.4 833.9,204.6 834.0,204.4 834.1,205.9 834.2,207.1 834.2,208.1 834.3,205.5 834.3,206.7 834.4,207.3 834.4,208.6 834.5,208.8 834.6,209.6 834.7,210.4 834.8,212.1 834.8,216.2 834.9,216.6 834.9,217.8 835.0,219.3 835.0,219.5 835.0,224.2 835.1,225.7 835.1,225.3 835.1,220.5 835.2,220.7 835.2,220.3 835.2,221.5 835.3,223.2 835.3,223.6 835.4,220.7 835.4,221.8 835.4,220.9 835.5,224.8 835.5,228.3 835.6,233.3 835.6,232.3 835.6,235.4 835.6,239.7 835.7,242.8 835.7,247.5 835.7,240.7 835.8,238.9 835.8,240.9 835.8,235.1 835.9,236.4 835.9,233.5 836.0,232.1 836.0,233.5 836.0,231.8 836.1,231.2 836.1,231.8 836.2,231.8 836.2,231.2 836.3,232.1 836.3,236.0 836.3,237.8 836.3,243.4 836.4,241.5 836.4,240.9 836.5,240.5 836.5,246.1 836.5,249.6 836.6,247.9 836.6,252.9 836.6,257.4 836.6,260.9 836.6,263.8 836.7,268.1 836.7,270.0 836.7,270.2 836.7,264.8 836.8,266.9 836.8,266.0 836.8,264.0 836.8,265.6 836.9,266.7 836.9,272.4 836.9,275.9 836.9,280.3 837.0,276.1 837.0,269.6 837.0,272.4 837.1,273.1 837.1,281.3 837.1,278.0 837.1,282.3 837.1,286.5 837.2,287.5 837.2,291.8 837.2,287.7 837.3,285.6 837.3,283.1 837.4,287.1 837.4,291.6 837.4,294.5 837.4,295.9 837.5,298.0 837.5,293.2 837.6,300.0 837.6,292.8 837.6,299.0 837.7,288.9 837.7,292.6 837.8,296.1 837.8,297.8 837.8,301.1 837.8,305.0 837.9,308.5 837.9,310.6 837.9,318.6 837.9,317.1 837.9,320.2 837.9,324.0 838.0,328.3 838.0,321.1 838.1,329.9 838.1,333.8 838.1,339.4 838.2,346.0 838.2,350.3 838.2,349.7 838.2,355.1 838.3,353.4 838.3,357.7 838.3,365.0 838.4,368.2 838.4,372.8 838.4,375.3 838.4,382.1 838.5,386.8 838.5,393.8 838.5,397.9 838.6,403.9 838.7,395.6 838.7,408.0 838.7,407.6 838.8,433.4 838.8,436.4 838.9,431.5 838.9,426.8 838.9,424.9 838.9,435.0 838.9,425.5 839.0,420.8 839.0,426.1 839.0,425.3 839.1,429.7 839.1,423.5 839.2,425.7 839.3,419.6 839.3,408.4 839.3,423.3 839.3,425.1 839.4,422.4 839.5,422.6 839.5,419.8 839.6,421.6 839.7,420.2 839.7,416.5 839.7,417.3 839.8,420.2 839.8,419.6 839.9,417.1 839.9,407.6 839.9,395.6 840.0,394.6 840.1,384.9 840.1,377.9 840.2,373.0 840.2,377.9 840.2,374.0 840.3,368.5 840.3,362.9 840.3,355.9 840.4,364.1 840.4,359.6 840.4,362.3 840.4,360.0 840.5,353.0 840.6,349.5 840.7,349.7 840.7,344.4 840.8,344.3 840.8,335.9 840.8,335.3 840.9,334.3 841.0,334.9 841.1,328.3 841.1,326.2 841.1,319.2 841.2,312.6 841.2,324.0 841.2,323.1 841.2,326.0 841.3,313.4 841.4,311.0 841.4,310.3 841.5,312.8 841.5,313.2 841.6,312.6 841.6,314.3 841.6,315.3 841.6,309.7 841.6,310.4 841.7,309.3 841.7,305.4 841.8,299.2 841.8,300.3 841.8,300.3 841.9,297.0 841.9,296.1 842.0,297.2 842.0,295.1 842.1,295.7 842.1,295.7 842.2,293.9 842.2,297.0 842.2,298.6 842.2,300.0 842.2,302.3 842.3,307.9 842.3,309.9 842.3,316.1 842.3,318.6 842.3,319.0 842.4,313.9 842.4,309.9 842.4,301.7 842.5,306.4 842.5,304.4 842.5,308.9 842.6,313.9 842.6,313.6 842.6,312.0 842.6,313.6 842.7,314.5 842.7,313.6 842.7,315.3 842.8,314.3 842.8,307.7 842.8,308.3 842.8,313.6 842.9,308.9 842.9,314.1 842.9,313.0 842.9,307.3 842.9,308.7 843.0,313.0 843.0,304.0 843.0,304.6 843.0,297.6 843.0,302.9 843.1,302.5 843.1,303.3 843.1,303.1 843.1,305.0 843.1,301.1 843.2,306.2 843.2,302.5 843.2,299.8 843.2,291.6 843.2,291.2 843.2,311.4 843.2,279.4 843.2,303.8 843.2,295.3 843.2,304.2 843.2,304.8 843.2,295.1 843.2,305.0 843.2,297.6 843.2,295.9 843.2,309.1 843.2,286.9 843.2,289.9 843.2,280.7 843.2,281.7 843.3,288.1 843.3,265.2 843.3,272.4 843.3,275.5 843.3,294.1 843.3,300.9 843.3,310.6 843.3,305.8 843.4,293.0 843.4,287.7 843.4,287.3 843.5,282.9 843.5,276.6 843.6,273.5 843.6,275.9 843.6,275.1 843.6,279.7 843.6,281.3 843.6,282.5 843.7,279.4 843.7,282.9 843.7,283.6 843.7,285.2 843.7,281.1 843.7,278.0 843.8,276.3 843.8,274.1 843.8,277.2 843.8,282.5 843.8,276.3 843.8,277.4 843.9,278.8 843.9,278.4 843.9,278.6 843.9,281.7 843.9,283.2 844.0,280.7 844.0,285.4 844.0,289.3 844.0,290.2 844.0,288.9 844.1,288.9 844.1,294.1 844.1,293.9 844.1,291.2 844.1,290.0 844.2,288.5 844.2,293.7 844.2,285.4 844.3,290.6 844.3,293.9 844.3,293.7 844.3,293.7 844.3,293.0 844.3,291.2 844.3,297.0 844.4,289.5 844.4,291.6 844.4,297.4 844.4,298.8 844.5,300.1 844.5,300.0 844.5,300.0 844.6,304.6 844.6,300.0 844.6,298.6 844.6,310.6 844.7,304.4 844.7,300.3 844.7,304.4 844.7,303.8 844.7,301.5 844.7,302.9 844.8,305.6 844.8,307.1 844.8,306.4 844.8,310.4 844.8,307.0 844.8,304.2 844.9,299.2 844.9,296.3 844.9,292.8 844.9,297.2 844.9,301.7 845.0,303.1 845.0,307.5 845.0,298.0 845.1,296.5 845.1,291.2 845.1,294.1 845.1,292.8 845.2,297.2 845.2,298.8 845.2,300.1 845.2,300.0 845.2,300.3 845.3,306.8 845.3,304.8 845.3,306.2 845.3,301.1 845.4,302.5 845.4,308.1 845.4,307.0 845.4,301.9 845.4,305.6 845.5,303.3 845.5,300.5 845.5,300.9 845.5,298.2 845.5,300.7 845.5,304.6 845.6,308.3 845.6,310.3 845.6,312.2 845.6,309.1 845.6,310.3 845.6,311.8 845.6,306.0 845.7,311.8 845.7,309.1 845.7,307.0 845.7,302.3 845.7,300.7 845.7,298.0 845.7,301.7 845.8,304.6 845.8,305.0 845.8,305.6 845.9,306.0 845.9,312.4 845.9,308.3 845.9,309.7 845.9,311.0 845.9,311.8 846.0,310.4 846.0,312.0 846.0,315.1 846.0,308.9 846.0,309.3 846.0,309.9 846.0,311.4 846.0,311.6 846.0,309.7 846.0,304.0 846.0,303.6 846.0,297.8 846.0,308.3 846.0,302.5 846.1,309.7 846.1,310.3 846.1,316.1 846.1,308.9 846.1,313.6 846.1,313.9 846.1,318.4 846.1,304.6 846.1,305.0 846.1,311.4 846.1,323.1 846.1,307.1 846.1,298.4 846.1,298.4 846.1,297.6 846.1,303.5 846.2,307.3 846.2,302.7 846.3,303.8 846.3,300.0 846.3,307.1 846.3,307.0 846.3,307.0 846.4,307.0 846.4,313.8 846.4,305.2 846.4,308.3 846.4,304.4 846.5,299.8 846.5,304.0 846.5,300.7 846.5,297.8 846.5,301.7 846.5,295.5 846.6,296.3 846.6,303.5 846.6,300.3 846.6,293.7 846.6,294.9 846.6,294.3 846.6,294.5 846.7,297.6 846.7,295.5 846.7,295.1 846.8,296.3 846.8,288.7 846.8,286.7 846.8,279.7 846.8,271.6 846.8,281.5 846.8,264.8 846.8,264.6 846.8,266.3 846.8,257.8 846.8,262.5 846.8,263.0 846.8,262.5 846.8,254.9 846.8,261.1 846.8,256.8 846.8,261.7 846.8,254.1 846.8,259.2 846.8,259.9 846.8,263.8 846.8,249.8 846.8,247.3 846.8,250.4 846.8,260.3 846.8,268.3 846.8,282.9 846.8,287.5 846.9,284.6 846.9,289.7 846.9,292.8 846.9,295.1 846.9,290.6 847.0,293.7 847.0,289.3 847.0,292.6 847.0,281.3 847.0,286.9 847.0,290.2 847.1,291.8 847.1,287.3 847.1,286.9 847.2,291.2 847.2,296.7 847.2,291.8 847.2,287.9 847.2,286.9 847.3,289.1 847.3,284.6 847.3,283.4 847.3,284.0 847.4,279.4 847.4,284.6 847.4,281.7 847.4,271.8 847.4,271.8 847.4,268.3 847.4,264.4 847.4,248.9 847.4,243.0 847.4,245.2 847.4,257.4 847.4,258.0 847.4,251.8 847.4,238.8 847.4,235.4 847.4,252.4 847.4,250.2 847.5,258.0 847.5,245.9 847.5,241.7 847.5,244.6 847.5,241.7 847.5,236.8 847.5,236.8 847.5,240.1 847.5,244.0 847.5,261.9 847.5,278.2 847.5,279.4 847.5,276.1 847.5,292.4 847.5,304.8 847.5,287.3 847.6,287.9 847.6,287.1 847.6,273.5 847.6,292.8 847.7,288.3 847.7,290.0 847.7,296.7 847.7,295.5 847.7,297.6 847.8,290.4 847.8,296.7 847.8,291.2 847.8,292.6 847.9,296.7 847.9,294.5 847.9,289.1 847.9,298.0 848.0,294.3 848.0,292.4 848.0,288.3 848.0,284.0 848.0,294.3 848.1,299.4 848.1,292.8 848.2,294.3 848.3,296.7 848.3,291.2 848.3,297.6 848.3,300.9 848.4,297.6 848.4,298.0 848.4,298.6 848.4,296.7 848.5,294.3 848.5,299.6 848.6,300.7 848.6,298.6 848.6,301.1 848.6,298.2 848.7,303.3 848.7,316.1 848.7,305.4 848.7,310.1 848.8,312.4 848.8,307.0 848.8,312.2 848.8,311.2 848.9,307.9 848.9,305.4 849.0,307.7 849.0,300.7 849.0,301.7 849.1,303.8 849.1,303.1 849.2,308.7 849.2,307.0 849.3,312.2 849.3,305.4 849.4,301.1 849.4,288.3 849.4,279.7 849.4,279.4 849.4,292.0 849.5,307.9 849.5,308.9 849.6,311.4 849.7,311.4 849.7,303.8 849.7,307.9 849.7,312.4 849.7,304.0 849.8,311.8 849.8,308.5 849.8,310.3 849.8,307.0 849.8,305.6 850.0,309.1 850.2,316.3 850.3,310.4 850.4,305.2 850.5,296.8 850.5,294.3 850.5,291.2 850.6,292.8 850.7,299.8 850.7,294.3 850.7,296.7 850.7,302.3 850.8,303.5 850.9,301.5 851.0,301.7 851.2,299.0 851.3,296.8 851.4,296.3 851.5,297.4 851.6,296.5 851.7,292.4 851.8,292.6 851.8,286.9 851.9,292.4 851.9,290.6 852.0,287.9 852.0,287.1 852.1,295.5 852.2,307.0 852.3,301.9 852.3,303.8 852.4,295.9 852.5,287.1 852.5,291.2 852.7,288.9 852.8,282.7 852.9,287.7 852.9,284.8 853.0,288.1 853.0,284.6 853.1,281.5 853.1,278.2 853.2,284.0 853.2,279.7 853.2,278.6 853.3,274.9 853.4,281.3 853.5,277.6 853.6,274.7 853.7,274.9 853.7,271.2 853.7,263.8 853.7,271.6 853.8,276.6 853.9,275.3 854.0,277.6 854.1,276.3 854.2,270.4 854.3,272.2 854.4,277.0 854.6,274.5 854.7,276.6 854.7,271.6 854.8,266.0 854.8,273.1 854.9,272.0 855.0,273.1 855.0,259.2 855.0,256.2 855.0,268.9 855.0,267.7 855.0,268.3 855.1,268.3 855.1,274.5 855.2,275.9 855.3,273.3 855.3,270.6 855.4,270.6 855.5,273.5 855.6,273.1 855.6,274.9 855.7,275.3 855.8,275.3 855.8,277.0 855.9,281.7 855.9,281.3 855.9,279.7 856.0,280.3 856.1,282.1 856.1,278.2 856.2,278.4 856.2,277.6 856.3,276.1 856.3,274.3 856.4,273.1 856.5,273.5 856.6,273.9 856.7,275.3 856.7,277.8 856.8,275.9 856.8,276.8 856.8,274.9 856.9,275.5 856.9,274.9 856.9,274.5 857.0,276.3 857.0,276.1 857.0,264.4 857.1,271.8 857.1,273.9 857.2,271.4 857.2,269.6 857.3,272.9 857.4,266.9 857.4,268.1 857.5,269.3 857.5,270.0 857.6,271.2 857.6,270.0 857.6,272.0 857.6,269.1 857.6,267.9 857.7,269.3 857.7,267.9 857.8,268.7 857.9,268.9 858.0,267.7 858.0,266.7 858.0,261.7 858.0,264.8 858.1,262.1 858.1,264.2 858.2,262.5 858.2,264.4 858.2,260.3 858.2,261.5 858.3,265.6 858.3,266.3 858.4,265.0 858.4,262.5 858.5,263.0 858.5,263.0 858.5,263.8 858.5,257.8 858.6,261.9 858.6,265.4 858.6,269.3 858.6,265.6 858.7,268.9 858.7,269.6 858.8,267.7 858.8,267.7 858.9,270.8 859.0,268.9 859.1,274.1 859.2,270.6 859.3,271.2 859.3,272.2 859.3,277.8 859.4,272.9 859.4,272.8 859.5,270.8 859.6,274.1 859.6,279.2 859.7,274.7 859.8,271.8 859.8,274.3 859.8,271.8 859.9,269.8 859.9,267.9 859.9,266.9 860.0,270.2 860.1,272.2 860.2,274.3 860.3,273.3 860.3,276.1 860.4,274.7 860.4,275.7 860.5,272.2 860.5,274.9 860.6,275.3 860.7,277.8 860.8,277.2 860.9,270.6 860.9,268.9 861.0,271.2 861.0,272.8 861.1,272.4 861.1,272.0 861.2,271.0 861.3,270.2 861.4,268.5 861.5,266.1 861.5,273.1 861.5,269.8 861.5,273.1 861.6,270.2 861.6,269.5 861.7,269.8 861.8,270.8 861.9,272.6 862.0,272.0 862.0,277.2 862.1,276.1 862.2,276.1 862.2,280.1 862.2,278.0 862.3,279.2 862.3,284.0 862.4,279.2 862.4,278.4 862.5,279.9 862.5,282.5 862.5,282.5 862.6,283.2 862.7,280.7 862.7,280.5 862.8,279.6 862.9,279.2 862.9,278.6 862.9,281.3 863.0,284.2 863.0,284.6 863.0,285.8 863.0,287.5 863.0,287.3 863.1,288.7 863.1,290.6 863.1,287.1 863.2,285.8 863.3,281.7 863.3,284.8 863.4,284.2 863.4,287.1 863.4,289.5 863.5,288.3 863.6,286.5 863.6,289.3 863.7,286.7 863.8,287.7 863.8,282.5 863.8,289.7 863.9,286.5 863.9,282.5 863.9,285.8 863.9,286.4 864.0,286.0 864.0,291.4 864.0,288.5 864.1,288.7 864.1,288.3 864.1,285.2 864.1,284.4 864.2,287.3 864.2,288.1 864.2,291.0 864.3,290.4 864.3,285.0 864.4,291.2 864.4,290.0 864.5,290.4 864.5,291.2 864.6,291.8 864.6,292.6 864.6,292.4 864.7,295.1 864.7,300.9 864.7,294.3 864.7,295.3 864.8,294.5 864.8,293.5 864.9,293.9 864.9,293.3 865.0,294.1 865.0,291.8 865.1,293.0 865.1,294.9 865.1,297.0 865.2,296.5 865.2,297.4 865.2,298.6 865.3,298.8 865.3,299.6 865.3,300.7 865.4,304.8 865.4,306.4 865.4,301.9 865.4,303.3 865.4,304.4 865.4,313.9 865.4,316.7 865.4,311.4 865.5,305.4 865.5,304.6 865.5,303.3 865.6,303.3 865.6,305.2 865.7,303.8 865.7,303.6 865.7,303.6 865.7,303.8 865.8,304.8 865.8,306.6 865.9,308.3 865.9,310.8 865.9,315.3 866.0,313.0 866.0,313.9 866.0,311.8 866.0,316.1 866.0,307.3 866.0,312.2 866.0,312.4 866.0,316.7 866.0,318.4 866.0,319.4 866.1,321.3 866.1,316.1 866.1,316.3 866.1,322.7 866.1,316.1 866.1,319.6 866.1,325.2 866.1,324.6 866.1,321.7 866.1,322.1 866.1,316.7 866.1,316.3 866.1,316.7 866.1,320.6 866.1,321.5 866.1,328.3 866.1,320.6 866.1,319.6 866.1,322.1 866.1,328.1 866.1,320.6 866.1,319.2 866.1,326.0 866.1,320.6 866.1,325.2 866.1,316.7 866.1,323.1 866.1,320.9 866.1,321.5 866.2,325.8 866.2,323.1 866.2,318.8 866.3,319.6 866.3,320.0 866.3,319.6 866.3,319.6 866.3,327.0 866.3,322.7 866.3,324.8 866.3,320.0 866.3,312.6 866.4,313.9 866.4,312.2 866.5,311.0 866.5,311.4 866.5,311.6 866.6,310.8 866.6,312.0 866.6,313.2 866.6,312.4 866.7,314.1 866.7,311.2 866.8,307.0 866.9,307.9 866.9,306.6 867.0,305.4 867.0,306.4 867.0,306.6 867.1,305.0 867.1,307.7 867.1,305.2 867.2,306.0 867.2,306.0 867.3,307.0 867.4,306.2 867.5,306.4 867.5,310.3 867.5,308.5 867.6,305.2 867.6,303.5 867.7,299.8 867.7,299.8 867.8,299.6 867.8,300.0 867.9,300.0 868.0,297.6 868.0,297.2 868.1,296.7 868.1,296.5 868.2,295.1 868.3,295.1 868.3,294.3 868.4,292.8 868.4,295.3 868.6,294.5 868.7,292.0 868.7,295.7 868.8,293.7 868.8,295.7 868.9,294.3 869.0,296.8 869.0,295.7 869.1,295.3 869.2,296.3 869.3,292.8 869.3,295.3 869.4,295.7 869.5,296.7 869.5,295.5 869.6,296.8 869.6,293.9 869.7,295.7 869.8,295.3 869.8,295.3 869.9,296.3 870.0,297.8 870.0,297.2 870.0,298.4 870.1,297.4 870.1,300.7 870.1,297.6 870.2,294.9 870.3,296.8 870.4,296.1 870.5,296.5 870.5,296.5 870.5,297.6 870.6,295.5 870.7,293.3 870.7,292.6 870.8,288.9 870.8,289.1 870.9,293.2 870.9,293.0 871.0,294.7 871.1,295.9 871.1,294.3 871.1,294.1 871.2,294.1 871.3,294.7 871.4,296.1 871.5,298.0 871.6,294.7 871.7,292.0 871.8,289.7 871.9,291.8 872.2,290.0 872.4,289.5 872.5,288.5 872.5,286.5 872.6,284.4 872.7,283.8 872.9,286.9 873.1,286.4 873.2,288.3 873.2,286.5 873.3,288.3 873.3,285.4 873.4,286.2 873.5,288.9 873.6,289.9 873.7,289.5 873.8,290.4 873.9,291.0 874.0,289.1 874.1,289.1 874.1,288.9 874.2,291.6 874.2,292.2 874.4,294.9 874.4,293.5 874.5,294.5 874.6,291.6 874.7,292.6 874.7,292.2 874.8,292.8 874.9,293.2 875.0,293.0 875.0,292.8 875.2,289.7 875.3,291.8 875.3,290.6 875.4,290.6 875.5,292.4 875.6,294.3 875.7,294.5 875.8,292.8 876.0,293.9 876.1,292.2 876.2,294.7 876.3,293.5 876.4,292.0 876.4,292.8 876.5,292.2 876.6,294.3 876.7,296.3 876.8,295.7 876.9,295.1 877.0,296.3 877.1,298.0 877.2,296.1 877.4,294.5 877.6,297.2 877.6,296.3 877.7,299.6 877.8,299.6 878.0,301.3 878.2,299.8 878.3,300.0 878.5,301.3 878.7,303.3 878.8,305.2 878.9,301.9 879.1,303.1 879.3,301.3 879.4,300.9 879.5,300.5 879.6,299.4 879.7,300.7 879.9,299.8 880.0,300.5 880.2,297.2 880.3,298.6 880.4,301.3 880.6,301.5 880.9,303.8 881.0,301.7 881.1,303.6 881.2,302.3 881.3,301.3 881.3,301.3 881.4,301.3 881.5,301.5 881.6,300.7 881.7,300.0 881.8,300.5 881.9,299.6 882.1,299.0 882.3,299.8 882.4,298.4 882.5,298.8 882.6,299.4 882.8,301.3 882.9,299.8 883.1,299.0 883.3,297.2 883.5,293.9 883.6,291.2 883.7,285.4 883.7,289.9 884.0,290.0 884.3,290.4 884.3,289.1 884.4,287.9 884.5,286.5 884.5,286.4 884.7,287.1 884.8,286.2 884.9,286.7 885.1,286.4 885.3,282.9 885.4,283.2 885.6,283.4 885.9,283.1 886.0,282.7 886.3,282.7 886.5,280.9 886.7,279.9 886.8,280.7 886.9,279.7 887.1,279.2 887.1,279.2 887.2,278.4 887.2,281.5 887.4,279.7 887.5,280.5 887.8,281.3 888.0,283.1 888.2,280.9 888.2,291.6 888.2,291.2 888.2,287.9 888.2,286.2 888.2,295.7 888.2,287.1 888.2,284.0 888.2,288.5 888.3,289.7 888.3,283.2 888.3,282.1 888.3,282.3 888.3,281.5 888.3,280.7 888.4,281.9 888.5,280.9 888.6,280.9 888.7,282.1 888.9,280.7 889.0,280.1 889.1,279.0 889.2,279.9 889.4,281.1 889.5,278.6 889.7,278.8 889.8,280.1 890.0,280.5 890.1,281.1 890.3,283.1 890.5,280.9 890.7,279.7 890.9,279.9 891.0,277.4 891.2,271.6 891.2,276.3 891.3,273.5 891.4,273.1 891.5,273.7 891.7,275.3 891.9,275.3 892.2,275.9 892.3,275.3 892.5,274.5 892.7,277.0 892.8,277.8 892.9,277.4 893.0,277.0 893.1,277.0 893.2,277.8 893.4,275.7 893.4,274.7 893.6,275.3 893.7,277.0 893.8,275.9 893.9,275.5 894.0,276.8 894.0,275.9 894.2,276.1 894.3,277.6 894.3,278.2 894.3,279.2 894.4,280.7 894.5,280.7 894.7,282.1 894.8,282.7 894.9,282.3 895.0,282.9 895.2,282.7 895.4,279.6 895.4,280.5 895.6,279.9 895.8,281.3 896.0,279.6 896.2,279.4 896.5,277.8 896.6,280.3 896.8,278.4 896.9,279.2 897.0,275.1 897.2,276.1 897.3,277.4 897.5,277.6 897.7,276.1 897.8,274.7 898.0,275.5 898.1,273.3 898.4,274.1 898.6,275.3 898.9,274.3 899.2,275.1 899.3,276.4 899.4,275.9 899.5,275.5 899.6,275.9 899.7,275.7 899.8,275.3 899.9,275.7 899.9,275.3 900.0,275.5 900.0,275.1 900.1,275.5 900.2,276.3 900.3,275.3 900.3,274.9 900.4,276.6 900.5,275.1 900.6,275.1 900.8,274.5 900.9,275.1 901.1,275.1 901.3,274.9 901.4,277.4 901.5,275.3 901.6,276.1 901.7,276.6 901.8,275.9 901.8,276.3 901.8,277.8 902.0,277.0 902.2,277.8 902.2,279.0 902.3,279.0 902.4,278.6 902.5,277.2 902.6,277.6 902.7,277.8 902.8,277.2 902.9,277.4 903.2,277.0 903.3,278.4 903.3,282.7 903.3,279.4 903.4,278.8 903.6,277.2 903.8,279.2 903.9,279.4 904.0,279.4 904.1,278.8 904.2,278.6 904.4,278.8 904.5,278.2 904.6,278.6 904.6,278.4 904.8,279.4 904.9,280.3 904.9,280.3 905.0,280.3 905.2,279.9 905.2,279.9 905.3,281.5 905.5,281.5 905.5,281.9 905.6,282.3 905.7,282.9 905.8,282.9 905.9,283.1 906.0,281.9 906.1,281.1 906.1,281.1 906.2,281.7 906.3,280.5 906.4,279.9 906.5,280.3 906.8,279.4 907.2,277.6 907.3,278.0 907.8,278.8 908.3,276.4 908.7,275.5 909.1,275.9 909.6,273.9 909.8,271.6 909.9,273.3 910.1,272.8 910.5,271.4 910.7,270.2 911.0,269.8 911.5,269.8 911.8,268.5 912.0,266.0 912.1,264.0 912.3,265.6 912.5,266.7 912.6,265.2 912.8,264.2 912.9,263.2 913.0,263.4 913.1,264.0 913.4,262.7 913.7,263.8 913.8,262.5 914.0,262.7 914.1,263.2 914.5,265.2 914.6,264.0 914.8,264.4 915.0,264.2 915.2,263.8 915.5,264.0 915.7,263.0 915.7,263.4 916.0,263.2 916.3,264.0 916.5,263.0 916.6,262.8 916.9,262.7 917.2,264.4 917.3,262.3 917.4,261.3 917.4,261.5 917.5,261.5 917.6,261.9 917.7,266.0 917.7,269.6 917.7,268.7 917.7,270.4 917.8,265.6 917.8,265.8 917.9,266.5 918.0,266.5 918.1,266.7 918.2,265.6 918.2,265.6 918.3,266.3 918.4,266.3 918.7,265.6 919.1,263.0 919.2,263.6 919.2,263.6 919.3,263.6 919.4,261.7 919.6,261.3 919.7,260.9 919.8,260.1 919.9,260.9 920.1,260.7 920.1,260.3 920.2,261.5 920.4,259.9 920.5,259.9 920.7,260.7 920.8,261.5 921.0,262.8 921.1,262.7 921.2,263.0 921.3,261.5 921.3,261.3 921.3,261.7 921.5,262.1 921.7,263.8 921.8,264.0 922.0,264.2 922.2,264.6 922.3,264.8 922.4,262.5 922.5,262.3 922.6,262.1 922.7,263.2 922.8,263.8 923.0,264.4 923.2,263.2 923.4,264.6 923.6,263.4 923.8,264.6 924.0,262.5 924.3,262.5 924.6,260.7 924.8,259.9 925.1,259.2 925.4,261.1 925.7,262.8 925.9,262.7 926.1,264.2 926.4,265.2 926.5,267.1 926.8,269.8 926.9,269.5 927.0,269.6 927.3,271.0 927.6,269.6 927.9,272.0 928.3,270.6 928.7,271.8 928.9,274.1 929.0,274.3 929.3,274.1 929.5,276.4 929.7,276.1 930.0,276.6 930.3,277.4 930.6,278.0 931.1,277.4 931.3,280.1 931.4,281.7 931.7,282.1 931.9,282.3 932.2,281.5 932.4,281.9 932.8,280.7 933.0,280.3 933.3,279.0 933.6,279.2 934.0,278.8" fill="none" stroke="#d97706" stroke-width="1.2" stroke-linejoin="round" opacity="0.6"/><text x="942" y="472.0" text-anchor="start" font-size="11" fill="#d97706">1.41</text><text x="942" y="396.0" text-anchor="start" font-size="11" fill="#d97706">1.80</text><text x="942" y="320.0" text-anchor="start" font-size="11" fill="#d97706">2.19</text><text x="942" y="244.0" text-anchor="start" font-size="11" fill="#d97706">2.58</text><text x="942" y="168.0" text-anchor="start" font-size="11" fill="#d97706">2.97</text><text x="942" y="92.0" text-anchor="start" font-size="11" fill="#d97706">3.36</text><text x="942" y="80.0" text-anchor="start" font-size="11" font-weight="600" fill="#d97706">price</text>
  <polygon points="826.9,468.0 826.9,437.1 826.9,440.3 837.4,424.3 837.9,428.9 838.5,406.1 838.8,380.4 838.9,389.6 840.1,344.0 841.2,292.5 846.8,219.5 865.4,116.1 868.0,152.9 868.0,468.0" fill="#16a34a" fill-opacity="0.08"/>
  <polyline points="826.9,437.1 826.9,440.3 837.4,424.3 837.9,428.9 838.5,406.1 838.8,380.4 838.9,389.6 840.1,344.0 841.2,292.5 846.8,219.5 865.4,116.1 868.0,152.9" fill="none" stroke="#16a34a" stroke-width="2" stroke-linejoin="round"/>
  <line x1="88" y1="102" x2="110" y2="102" stroke="#16a34a" stroke-width="2.5"/><text x="116" y="106" font-size="11.5" fill="#374151">equity</text><line x1="88" y1="118" x2="110" y2="118" stroke="#d97706" stroke-width="2.5" opacity="0.8"/><text x="116" y="122" font-size="11.5" fill="#374151">price</text>
  <text x="78" y="502" text-anchor="start" font-size="12" fill="#6b7280">2025-10-10</text><text x="934" y="502" text-anchor="end" font-size="12" fill="#6b7280">2025-10-10</text>
</svg>
