<?xml version="1.0" encoding="UTF-8"?>
<svg xmlns="http://www.w3.org/2000/svg" width="1100" height="560" viewBox="0 0 1100 560" font-family="ui-sans-serif, system-ui, sans-serif">
  <rect width="1100" height="560" fill="#ffffff"/>
  <text x="80" y="28" font-size="18" font-weight="700" fill="#111827">Zone Recovery — NEARUSDC fee-tier comparison (best setting)</text>
  <text x="80" y="48" font-size="12.5" fill="#6b7280">lev 5 · ratio 4 · gap 20% · maxSteps 4 · maxDD 60% · random  ·  equity per fee tier vip 0..9</text>
  <text x="80" y="68" font-size="12.5" font-weight="600" fill="#1d4ed8">USDC margin · BNB −10%</text>
  <line x1="80" y1="508.0" x2="932" y2="508.0" stroke="#e5e7eb" stroke-width="1"/><text x="70" y="512.0" text-anchor="end" font-size="12" fill="#6b7280">0.00</text><line x1="80" y1="424.0" x2="932" y2="424.0" stroke="#e5e7eb" stroke-width="1"/><text x="70" y="428.0" text-anchor="end" font-size="12" fill="#6b7280">24605</text><line x1="80" y1="340.0" x2="932" y2="340.0" stroke="#e5e7eb" stroke-width="1"/><text x="70" y="344.0" text-anchor="end" font-size="12" fill="#6b7280">49210</text><line x1="80" y1="256.0" x2="932" y2="256.0" stroke="#e5e7eb" stroke-width="1"/><text x="70" y="260.0" text-anchor="end" font-size="12" fill="#6b7280">73816</text><line x1="80" y1="172.0" x2="932" y2="172.0" stroke="#e5e7eb" stroke-width="1"/><text x="70" y="176.0" text-anchor="end" font-size="12" fill="#6b7280">98421</text><line x1="80" y1="88.0" x2="932" y2="88.0" stroke="#e5e7eb" stroke-width="1"/><text x="70" y="92.0" text-anchor="end" font-size="12" fill="#6b7280">123026</text>
  <line x1="80" y1="473.9" x2="932" y2="473.9" stroke="#9ca3af" stroke-width="1.5" stroke-dasharray="6 4"/>
  <polyline points="80.0,473.9 80.0,477.5 297.9,459.8 308.1,464.9 320.2,439.9 327.7,411.7 329.5,421.9 354.8,372.0 376.3,315.7 493.5,236.0 879.7,123.3 932.0,164.0" fill="none" stroke="#2563eb" stroke-width="1.8" stroke-linejoin="round" opacity="0.9"/>
  <polyline points="80.0,473.9 80.0,477.5 297.9,459.8 308.1,464.9 320.2,439.9 327.7,411.7 329.5,421.9 354.8,372.0 376.3,315.7 493.5,236.0 879.7,123.3 932.0,164.0" fill="none" stroke="#dc2626" stroke-width="1.8" stroke-linejoin="round" opacity="0.9"/>
  <polyline points="80.0,473.9 80.0,477.5 297.9,459.8 308.1,464.8 320.2,439.8 327.7,411.5 329.5,421.7 354.8,371.7 376.3,315.2 493.5,235.3 879.7,122.2 932.0,162.9" fill="none" stroke="#16a34a" stroke-width="1.8" stroke-linejoin="round" opacity="0.9"/>
  <polyline points="80.0,473.9 80.0,477.5 297.9,459.7 308.1,464.8 320.2,439.8 327.7,411.4 329.5,421.6 354.8,371.5 376.3,314.9 493.5,234.8 879.7,121.3 932.0,162.0" fill="none" stroke="#d97706" stroke-width="1.8" stroke-linejoin="round" opacity="0.9"/>
  <polyline points="80.0,473.9 80.0,477.4 297.9,459.7 308.1,464.8 320.2,439.7 327.7,411.3 329.5,421.4 354.8,371.2 376.3,314.4 493.5,234.0 879.7,120.1 932.0,160.8" fill="none" stroke="#7c3aed" stroke-width="1.8" stroke-linejoin="round" opacity="0.9"/>
  <polyline points="80.0,473.9 80.0,477.4 297.9,459.7 308.1,464.8 320.2,439.7 327.7,411.3 329.5,421.4 354.8,371.2 376.3,314.3 493.5,233.8 879.7,119.9 932.0,160.5" fill="none" stroke="#0891b2" stroke-width="1.8" stroke-linejoin="round" opacity="0.9"/>
  <polyline points="80.0,473.9 80.0,477.4 297.9,459.7 308.1,464.8 320.2,439.7 327.7,411.2 329.5,421.4 354.8,371.1 376.3,314.2 493.5,233.7 879.7,119.7 932.0,160.4" fill="none" stroke="#db2777" stroke-width="1.8" stroke-linejoin="round" opacity="0.9"/>
  <polyline points="80.0,473.9 80.0,477.4 297.9,459.7 308.1,464.7 320.2,439.6 327.7,411.2 329.5,421.3 354.8,371.1 376.3,314.1 493.5,233.6 879.7,119.5 932.0,160.1" fill="none" stroke="#65a30d" stroke-width="1.8" stroke-linejoin="round" opacity="0.9"/>
  <polyline points="80.0,473.9 80.0,477.4 297.9,459.7 308.1,464.7 320.2,439.6 327.7,411.2 329.5,421.3 354.8,371.0 376.3,314.1 493.5,233.5 879.7,119.3 932.0,160.0" fill="none" stroke="#475569" stroke-width="1.8" stroke-linejoin="round" opacity="0.9"/>
  <polyline points="80.0,473.9 80.0,477.4 297.9,459.7 308.1,464.7 320.2,439.6 327.7,411.2 329.5,421.3 354.8,371.0 376.3,314.0 493.5,233.3 879.7,119.1 932.0,159.8" fill="none" stroke="#ea580c" stroke-width="1.8" stroke-linejoin="round" opacity="0.9"/>
  <line x1="950" y1="94" x2="972" y2="94" stroke="#ea580c" stroke-width="3"/><text x="980" y="98" font-size="12.5" fill="#374151">vip 9  102007</text>
  <line x1="950" y1="116" x2="972" y2="116" stroke="#475569" stroke-width="3"/><text x="980" y="120" font-size="12.5" fill="#374151">vip 8  101942</text>
  <line x1="950" y1="138" x2="972" y2="138" stroke="#65a30d" stroke-width="3"/><text x="980" y="142" font-size="12.5" fill="#374151">vip 7  101896</text>
  <line x1="950" y1="160" x2="972" y2="160" stroke="#db2777" stroke-width="3"/><text x="980" y="164" font-size="12.5" fill="#374151">vip 6  101826</text>
  <line x1="950" y1="182" x2="972" y2="182" stroke="#0891b2" stroke-width="3"/><text x="980" y="186" font-size="12.5" fill="#374151">vip 5  101781</text>
  <line x1="950" y1="204" x2="972" y2="204" stroke="#7c3aed" stroke-width="3"/><text x="980" y="208" font-size="12.5" fill="#374151">vip 4  101716</text>
  <line x1="950" y1="226" x2="972" y2="226" stroke="#d97706" stroke-width="3"/><text x="980" y="230" font-size="12.5" fill="#374151">vip 3  101343</text>
  <line x1="950" y1="248" x2="972" y2="248" stroke="#16a34a" stroke-width="3"/><text x="980" y="252" font-size="12.5" fill="#374151">vip 2  101081</text>
  <line x1="950" y1="270" x2="972" y2="270" stroke="#2563eb" stroke-width="3"/><text x="980" y="274" font-size="12.5" fill="#374151">vip 0  100755</text>
  <line x1="950" y1="292" x2="972" y2="292" stroke="#dc2626" stroke-width="3"/><text x="980" y="296" font-size="12.5" fill="#374151">vip 1  100755</text>
  <text x="80" y="542" text-anchor="start" font-size="12" fill="#6b7280">2025-10-10</text><text x="932" y="542" text-anchor="end" font-size="12" fill="#6b7280">2025-10-10</text>
</svg>
