<svg xmlns="http://www.w3.org/2000/svg" width="1100" height="560" font-family="ui-sans-serif, system-ui, sans-serif" viewBox="0 0 1100 560"><rect width="1100" height="560" fill="#fff"/><text x="80" y="28" fill="#111827" font-size="18" font-weight="700">Zone Recovery — NEARUSDC fee-tier comparison (best setting)</text><text x="80" y="48" fill="#6b7280" font-size="12.5">lev 5 · ratio 4 · gap 20% · maxSteps 4 · maxDD 60% · random · equity per fee tier vip 0..9</text><text x="80" y="68" fill="#1d4ed8" font-size="12.5" font-weight="600">USDC margin · BNB −10%</text><line x1="80" x2="932" y1="508" y2="508" stroke="#e5e7eb" stroke-width="1"/><text x="70" y="512" fill="#6b7280" font-size="12" text-anchor="end">0.00</text><line x1="80" x2="932" y1="424" y2="424" stroke="#e5e7eb" stroke-width="1"/><text x="70" y="428" fill="#6b7280" font-size="12" text-anchor="end">24605</text><line x1="80" x2="932" y1="340" y2="340" stroke="#e5e7eb" stroke-width="1"/><text x="70" y="344" fill="#6b7280" font-size="12" text-anchor="end">49210</text><line x1="80" x2="932" y1="256" y2="256" stroke="#e5e7eb" stroke-width="1"/><text x="70" y="260" fill="#6b7280" font-size="12" text-anchor="end">73816</text><line x1="80" x2="932" y1="172" y2="172" stroke="#e5e7eb" stroke-width="1"/><text x="70" y="176" fill="#6b7280" font-size="12" text-anchor="end">98421</text><line x1="80" x2="932" y1="88" y2="88" stroke="#e5e7eb" stroke-width="1"/><text x="70" y="92" fill="#6b7280" font-size="12" text-anchor="end">123026</text><line x1="80" x2="932" y1="473.9" y2="473.9" stroke="#9ca3af" stroke-dasharray="6 4" stroke-width="1.5"/><polyline fill="none" stroke="#2563eb" stroke-linejoin="round" stroke-width="1.8" points="80 473.9 80 477.5 297.9 459.8 308.1 464.9 320.2 439.9 327.7 411.7 329.5 421.9 354.8 372 376.3 315.7 493.5 236 879.7 123.3 932 164" opacity=".9"/><polyline fill="none" stroke="#dc2626" stroke-linejoin="round" stroke-width="1.8" points="80 473.9 80 477.5 297.9 459.8 308.1 464.9 320.2 439.9 327.7 411.7 329.5 421.9 354.8 372 376.3 315.7 493.5 236 879.7 123.3 932 164" opacity=".9"/><polyline fill="none" stroke="#16a34a" stroke-linejoin="round" stroke-width="1.8" points="80 473.9 80 477.5 297.9 459.8 308.1 464.8 320.2 439.8 327.7 411.5 329.5 421.7 354.8 371.7 376.3 315.2 493.5 235.3 879.7 122.2 932 162.9" opacity=".9"/><polyline fill="none" stroke="#d97706" stroke-linejoin="round" stroke-width="1.8" points="80 473.9 80 477.5 297.9 459.7 308.1 464.8 320.2 439.8 327.7 411.4 329.5 421.6 354.8 371.5 376.3 314.9 493.5 234.8 879.7 121.3 932 162" opacity=".9"/><polyline fill="none" stroke="#7c3aed" stroke-linejoin="round" stroke-width="1.8" points="80 473.9 80 477.4 297.9 459.7 308.1 464.8 320.2 439.7 327.7 411.3 329.5 421.4 354.8 371.2 376.3 314.4 493.5 234 879.7 120.1 932 160.8" opacity=".9"/><polyline fill="none" stroke="#0891b2" stroke-linejoin="round" stroke-width="1.8" points="80 473.9 80 477.4 297.9 459.7 308.1 464.8 320.2 439.7 327.7 411.3 329.5 421.4 354.8 371.2 376.3 314.3 493.5 233.8 879.7 119.9 932 160.5" opacity=".9"/><polyline fill="none" stroke="#db2777" stroke-linejoin="round" stroke-width="1.8" points="80 473.9 80 477.4 297.9 459.7 308.1 464.8 320.2 439.7 327.7 411.2 329.5 421.4 354.8 371.1 376.3 314.2 493.5 233.7 879.7 119.7 932 160.4" opacity=".9"/><polyline fill="none" stroke="#65a30d" stroke-linejoin="round" stroke-width="1.8" points="80 473.9 80 477.4 297.9 459.7 308.1 464.7 320.2 439.6 327.7 411.2 329.5 421.3 354.8 371.1 376.3 314.1 493.5 233.6 879.7 119.5 932 160.1" opacity=".9"/><polyline fill="none" stroke="#475569" stroke-linejoin="round" stroke-width="1.8" points="80 473.9 80 477.4 297.9 459.7 308.1 464.7 320.2 439.6 327.7 411.2 329.5 421.3 354.8 371 376.3 314.1 493.5 233.5 879.7 119.3 932 160" opacity=".9"/><polyline fill="none" stroke="#ea580c" stroke-linejoin="round" stroke-width="1.8" points="80 473.9 80 477.4 297.9 459.7 308.1 464.7 320.2 439.6 327.7 411.2 329.5 421.3 354.8 371 376.3 314 493.5 233.3 879.7 119.1 932 159.8" opacity=".9"/><line x1="950" x2="972" y1="94" y2="94" stroke="#ea580c" stroke-width="3"/><text x="980" y="98" fill="#374151" font-size="12.5">vip 9 102007</text><line x1="950" x2="972" y1="116" y2="116" stroke="#475569" stroke-width="3"/><text x="980" y="120" fill="#374151" font-size="12.5">vip 8 101942</text><line x1="950" x2="972" y1="138" y2="138" stroke="#65a30d" stroke-width="3"/><text x="980" y="142" fill="#374151" font-size="12.5">vip 7 101896</text><line x1="950" x2="972" y1="160" y2="160" stroke="#db2777" stroke-width="3"/><text x="980" y="164" fill="#374151" font-size="12.5">vip 6 101826</text><line x1="950" x2="972" y1="182" y2="182" stroke="#0891b2" stroke-width="3"/><text x="980" y="186" fill="#374151" font-size="12.5">vip 5 101781</text><line x1="950" x2="972" y1="204" y2="204" stroke="#7c3aed" stroke-width="3"/><text x="980" y="208" fill="#374151" font-size="12.5">vip 4 101716</text><line x1="950" x2="972" y1="226" y2="226" stroke="#d97706" stroke-width="3"/><text x="980" y="230" fill="#374151" font-size="12.5">vip 3 101343</text><line x1="950" x2="972" y1="248" y2="248" stroke="#16a34a" stroke-width="3"/><text x="980" y="252" fill="#374151" font-size="12.5">vip 2 101081</text><line x1="950" x2="972" y1="270" y2="270" stroke="#2563eb" stroke-width="3"/><text x="980" y="274" fill="#374151" font-size="12.5">vip 0 100755</text><line x1="950" x2="972" y1="292" y2="292" stroke="#dc2626" stroke-width="3"/><text x="980" y="296" fill="#374151" font-size="12.5">vip 1 100755</text><text x="80" y="542" fill="#6b7280" font-size="12" text-anchor="start">2025-10-10</text><text x="932" y="542" fill="#6b7280" font-size="12" text-anchor="end">2025-10-10</text></svg>