<?xml version="1.0" encoding="UTF-8"?>
<svg xmlns="http://www.w3.org/2000/svg" width="1000" height="520" viewBox="0 0 1000 520" font-family="ui-sans-serif, system-ui, sans-serif">
  <rect width="1000" height="520" fill="#ffffff"/>
  <text x="78" y="28" font-size="18" font-weight="700" fill="#111827">Zone Recovery — AVAXUSDT best setting (equity / PnL)</text>
  <text x="78" y="48" font-size="12.5" fill="#6b7280">lev 4 · ratio 4 · gap 20% · maxSteps 4 · maxDD 20% · random · vip 9  ·  2 series, 100.0% win · vol $9520540 ($307114/day) · fees $1457</text>
  <text x="78" y="68" font-size="12.5" font-weight="600" fill="#1d4ed8">USDT · BNB −10% · taker 0.0153%</text>
  <text x="934" y="28" text-anchor="end" font-size="18" font-weight="700" fill="#16a34a">+275853 USDT  (+0.28%)</text>
  <line x1="78" y1="468.0" x2="934" y2="468.0" stroke="#e5e7eb" stroke-width="1"/><text x="68" y="472.0" text-anchor="end" font-size="12" fill="#6b7280">0.00</text><line x1="78" y1="392.0" x2="934" y2="392.0" stroke="#e5e7eb" stroke-width="1"/><text x="68" y="396.0" text-anchor="end" font-size="12" fill="#6b7280">21659584</text><line x1="78" y1="316.0" x2="934" y2="316.0" stroke="#e5e7eb" stroke-width="1"/><text x="68" y="320.0" text-anchor="end" font-size="12" fill="#6b7280">43319168</text><line x1="78" y1="240.0" x2="934" y2="240.0" stroke="#e5e7eb" stroke-width="1"/><text x="68" y="244.0" text-anchor="end" font-size="12" fill="#6b7280">64978753</text><line x1="78" y1="164.0" x2="934" y2="164.0" stroke="#e5e7eb" stroke-width="1"/><text x="68" y="168.0" text-anchor="end" font-size="12" fill="#6b7280">86638337</text><line x1="78" y1="88.0" x2="934" y2="88.0" stroke="#e5e7eb" stroke-width="1"/><text x="68" y="92.0" text-anchor="end" font-size="12" fill="#6b7280">108297921</text>
  <line x1="78" y1="117.1" x2="934" y2="117.1" stroke="#9ca3af" stroke-width="1.5" stroke-dasharray="6 4"/><text x="934" y="111.1" text-anchor="end" font-size="11" fill="#6b7280">start 100000000</text>
  <polyline points="78.0,262.9 78.6,260.0 79.5,261.8 80.5,262.2 81.5,263.2 82.5,265.0 83.0,267.3 83.7,267.2 84.4,264.7 85.4,265.1 86.6,265.4 87.4,264.9 88.2,264.7 88.7,261.2 89.5,261.5 90.4,261.7 91.2,260.4 91.9,259.3 92.7,260.7 93.5,259.6 94.1,256.7 94.5,257.5 95.2,256.6 95.7,254.6 95.9,254.1 96.1,251.3 96.3,251.6 96.6,250.7 96.9,250.6 97.2,248.5 97.6,247.9 97.9,245.4 98.1,243.6 98.3,243.6 98.5,241.9 98.7,237.4 98.9,238.5 99.1,235.9 99.2,233.9 99.3,233.2 99.4,225.7 99.4,225.9 99.5,229.8 99.7,228.5 99.9,225.8 99.9,216.7 99.9,219.7 99.9,220.1 100.0,220.4 100.1,219.9 100.3,217.3 100.5,216.9 100.6,214.8 100.6,210.4 100.6,200.8 100.6,197.9 100.6,199.1 100.6,197.8 100.7,202.6 100.7,204.6 100.8,201.0 100.9,196.6 100.9,196.2 101.0,193.7 101.0,188.5 101.0,192.2 101.1,187.8 101.1,193.9 101.2,193.4 101.3,190.1 101.4,189.0 101.5,185.8 101.6,189.3 101.6,195.4 101.7,193.6 101.8,194.2 102.0,193.3 102.1,199.3 102.3,201.0 102.4,195.6 102.7,193.4 102.9,195.3 103.2,192.8 103.5,191.4 103.6,189.9 103.9,191.3 104.3,190.6 104.5,189.1 104.8,188.4 105.2,189.6 105.5,192.3 105.7,186.3 105.9,189.0 106.2,191.8 106.5,192.9 106.7,189.9 107.0,193.5 107.4,192.0 107.7,190.9 108.0,191.2 108.2,186.6 108.4,189.1 108.6,185.6 108.6,184.3 108.7,181.2 108.9,179.0 109.0,179.6 109.2,181.9 109.4,182.7 109.6,185.2 109.9,182.4 110.0,179.1 110.3,181.8 110.6,186.6 110.9,189.9 111.2,190.7 111.6,192.0 111.9,193.8 112.1,193.3 112.5,189.1 112.9,192.2 113.4,193.1 113.8,194.7 114.1,195.0 114.3,198.9 114.6,202.4 114.9,201.3 115.2,200.1 115.7,201.7 116.1,200.2 116.3,198.7 116.7,195.9 116.9,194.5 117.0,193.9 117.2,193.5 117.4,193.9 117.7,195.5 118.1,193.1 118.5,197.5 118.8,199.2 119.1,200.5 119.3,201.4 119.6,202.0 120.1,201.2 120.2,200.1 120.6,201.0 120.9,203.0 121.2,202.0 121.7,202.2 122.0,205.3 122.1,208.5 122.3,206.9 122.3,214.4 122.4,215.6 122.4,218.9 122.5,211.9 122.5,211.9 122.6,209.3 122.6,204.4 122.7,200.8 122.7,206.5 122.9,206.1 123.0,210.1 123.1,212.0 123.2,211.2 123.3,217.3 123.4,214.5 123.5,212.9 123.6,210.6 123.7,209.7 123.8,208.5 124.0,208.5 124.1,208.4 124.3,203.0 124.4,204.5 124.6,201.8 124.6,197.9 124.7,197.0 124.8,199.4 125.0,199.4 125.1,197.6 125.2,193.8 125.4,193.0 125.5,190.0 125.6,189.7 125.8,192.9 126.0,190.5 126.2,192.8 126.4,189.6 126.6,191.2 127.0,192.9 127.3,192.4 127.4,194.1 127.7,191.7 127.9,188.4 128.2,189.0 128.6,188.4 128.8,188.9 129.2,190.0 129.6,191.3 129.9,189.5 130.3,186.6 130.6,183.0 130.8,177.2 130.9,175.5 131.0,173.9 131.1,173.8 131.2,172.0 131.4,173.4 131.7,178.2 132.0,177.3 132.4,178.0 132.8,181.3 133.2,178.4 133.4,171.6 133.5,172.8 133.7,170.6 133.9,173.8 134.2,169.8 134.4,174.2 134.7,174.5 135.1,175.8 135.6,179.0 135.9,175.1 136.3,169.4 136.7,172.2 137.0,169.5 137.3,167.2 137.4,162.9 137.4,159.8 137.4,162.3 137.5,157.6 137.6,153.2 137.6,155.3 137.8,153.8 137.9,155.9 138.1,161.3 138.4,163.6 138.7,162.4 139.1,162.4 139.5,165.0 139.7,169.8 140.1,168.7 140.5,163.4 140.9,169.2 141.0,172.5 141.3,173.8 141.5,177.7 141.7,183.0 141.8,181.8 141.9,183.3 142.1,180.4 142.3,183.8 142.6,183.6 142.9,181.7 143.1,177.2 143.4,175.9 143.7,177.4 144.2,174.3 144.3,168.3 144.7,170.2 144.9,170.8 145.3,172.7 145.6,168.2 146.1,169.9 146.5,171.8 147.1,169.3 147.4,164.9 147.5,161.2 147.7,162.0 147.9,158.2 148.0,152.1 148.0,148.4 148.1,149.5 148.1,150.0 148.1,155.6 148.2,161.3 148.3,159.4 148.5,161.8 148.7,162.4 148.9,164.8 149.2,164.9 149.5,167.1 149.8,167.5 150.1,167.6 150.4,169.4 150.7,172.4 151.2,175.3 151.3,175.4 151.7,174.7 151.7,175.0 152.0,174.7 152.3,172.2 152.7,170.3 152.9,172.6 153.3,171.4 153.6,171.2 154.1,175.4 154.6,172.9 155.3,175.6 155.9,176.1 156.4,178.9 156.9,174.6 157.3,174.3 157.9,173.3 158.3,173.9 158.9,173.2 159.3,170.3 159.8,168.7 160.2,167.7 160.7,168.7 160.9,162.9 161.0,165.7 161.2,166.7 161.5,166.7 161.7,168.5 162.0,168.2 162.4,169.8 162.7,171.9 163.2,171.0 163.7,169.3 164.3,171.4 164.7,167.2 165.1,167.3 165.5,165.9 166.0,166.3 166.5,168.2 167.2,168.7 167.8,165.8 168.0,162.9 168.3,163.5 168.6,169.0 168.9,167.1 169.3,164.0 169.8,162.8 170.1,168.2 170.4,167.0 170.8,167.3 171.2,166.2 171.6,164.9 172.0,164.6 172.4,163.7 172.7,166.5 173.2,166.3 173.7,167.3 174.1,165.5 174.5,164.0 174.9,163.7 175.2,160.5 175.5,163.8 175.9,163.1 176.2,165.4 176.6,161.4 176.9,156.5 177.1,160.1 177.5,162.4 177.7,163.4 178.1,160.1 178.6,160.6 179.0,163.1 179.2,157.3 179.4,157.4 179.7,153.5 180.0,154.0 180.4,154.3 180.6,153.9 180.9,155.7 181.4,154.3 181.8,159.7 182.2,162.4 182.4,160.4 182.8,163.8 182.9,166.6 183.1,164.9 183.6,162.8 184.0,159.7 184.5,156.6 184.9,157.4 185.2,152.6 185.3,150.3 185.3,142.8 185.3,148.2 185.4,141.3 185.4,142.9 185.5,141.5 185.7,148.2 185.8,149.7 186.1,146.0 186.3,143.0 186.5,153.5 186.7,152.0 187.0,154.0 187.4,147.9 187.7,148.3 188.1,151.9 188.4,155.0 188.5,150.3 188.6,154.1 188.8,150.7 189.0,153.7 189.3,153.4 189.4,151.1 189.6,151.3 189.7,143.9 189.8,146.8 190.0,148.1 190.3,143.5 190.4,141.5 190.5,140.3 190.7,141.7 190.9,141.8 191.1,143.1 191.4,148.6 191.7,144.7 192.0,144.9 192.4,147.8 192.7,140.9 193.1,145.0 193.4,151.6 193.6,157.9 193.7,158.5 193.9,160.6 194.2,160.7 194.6,157.0 195.0,156.1 195.2,160.1 195.5,159.4 195.9,161.8 196.1,157.9 196.5,153.5 196.8,152.1 197.1,151.6 197.5,151.8 197.9,150.6 198.2,149.3 198.6,152.6 198.9,157.6 199.0,159.1 199.4,158.5 199.8,155.9 200.1,152.1 200.3,152.6 200.7,157.1 201.0,154.0 201.4,159.6 201.7,157.6 202.1,156.3 202.5,157.6 202.8,161.1 203.2,159.8 203.6,159.6 203.8,159.1 204.0,163.5 204.0,163.5 204.1,163.1 204.2,165.7 204.5,164.3 204.8,163.3 205.1,161.7 205.2,162.3 205.3,157.7 205.4,155.6 205.4,156.0 205.5,158.9 205.6,156.2 205.7,156.1 205.8,161.1 206.0,162.1 206.1,160.0 206.3,160.0 206.5,154.0 206.6,154.4 206.7,157.4 206.9,158.2 207.0,161.3 207.2,160.1 207.3,165.0 207.5,163.3 207.7,160.9 207.8,160.2 208.1,160.2 208.4,162.4 208.5,170.9 208.5,171.9 208.5,170.4 208.7,168.0 208.9,162.4 209.1,158.4 209.2,156.3 209.4,157.5 209.6,158.5 209.8,154.1 210.0,155.4 210.2,152.5 210.4,153.2 210.7,152.2 210.9,150.7 211.1,152.5 211.3,153.1 211.5,148.1 211.7,148.1 211.8,145.8 212.0,142.2 212.1,145.5 212.3,146.5 212.5,146.2 212.7,143.7 213.0,142.1 213.2,145.2 213.5,142.1 213.8,141.6 214.0,138.5 214.1,134.2 214.1,132.2 214.1,130.8 214.3,129.8 214.4,135.4 214.7,137.0 215.1,137.8 215.5,138.7 216.0,141.7 216.3,144.2 216.6,145.0 216.9,147.6 217.1,141.1 217.3,136.7 217.5,135.1 217.7,130.0 217.8,127.0 218.1,135.6 218.2,142.9 218.4,144.8 218.7,146.5 219.0,146.2 219.2,148.4 219.4,153.1 219.6,148.5 219.9,147.5 220.2,143.3 220.6,144.7 221.0,140.8 221.3,139.9 221.8,143.1 222.1,144.3 222.4,143.5 222.8,145.5 223.0,146.4 223.3,147.2 223.6,142.6 223.8,137.3 224.1,139.5 224.4,144.0 224.7,148.7 224.9,149.8 225.2,150.9 225.4,150.6 225.7,150.5 226.0,153.4 226.4,152.2 226.7,148.2 227.0,145.7 227.5,145.1 227.7,143.3 227.9,141.6 228.2,141.4 228.5,140.4 228.9,141.8 229.2,138.9 229.7,139.8 230.0,135.0 230.2,133.6 230.4,133.0 230.7,132.8 231.1,132.5 231.4,133.7 231.6,129.6 231.9,134.0 232.2,134.0 232.4,125.8 232.4,126.1 232.5,125.8 232.6,123.9 232.7,122.4 232.8,125.1 232.9,125.4 233.0,124.1 233.1,130.1 233.1,130.7 233.2,134.1 233.3,131.8 233.5,132.1 233.6,134.4 233.7,131.1 233.9,131.2 234.0,137.7 234.1,140.3 234.2,142.0 234.3,140.6 234.5,138.4 234.6,137.7 234.6,141.4 234.8,140.3 235.0,142.6 235.0,142.1 235.2,140.9 235.3,142.3 235.4,141.6 235.5,139.5 235.6,140.5 235.8,139.9 236.2,139.9 236.4,141.4 236.5,146.4 236.6,148.5 236.6,147.2 236.7,143.2 236.7,150.7 236.8,152.3 236.8,145.2 236.9,137.7 237.0,140.9 237.2,140.2 237.4,139.9 237.7,138.8 237.9,139.9 238.2,138.6 238.6,140.3 239.1,140.4 239.3,139.8 239.7,137.8 240.2,141.5 240.5,136.6 240.5,134.3 240.6,128.8 240.6,124.2 240.6,131.7 240.7,133.2 240.9,132.5 241.0,132.8 241.3,137.3 241.6,135.9 241.8,138.4 242.4,138.0 242.7,134.2 243.1,133.1 243.5,133.2 243.9,136.5 244.3,139.5 244.7,139.0 245.0,139.9 245.4,140.1 245.8,143.1 246.0,140.8 246.6,141.0 247.1,139.4 247.7,140.2 248.3,142.3 248.5,141.7 249.2,140.8 249.9,141.8 250.5,141.8 250.9,141.6 251.7,141.2 252.1,138.8 252.5,138.6 252.9,138.3 253.3,140.0 253.9,138.2 254.2,139.7 254.5,141.6 254.7,140.8 254.9,142.5 255.3,142.1 255.7,142.2 256.4,139.5 256.8,138.7 257.6,140.5 258.2,140.7 258.6,146.6 258.8,148.2 259.0,146.4 259.4,146.4 259.8,149.9 259.8,155.3 260.0,156.3 260.1,156.0 260.3,157.5 260.4,161.5 260.4,157.8 260.5,156.7 260.6,154.7 260.9,152.6 261.0,160.9 261.1,160.6 261.2,164.1 261.3,166.8 261.3,169.2 261.4,169.0 261.5,167.3 261.6,164.0 261.8,168.9 262.0,167.7 262.2,167.7 262.5,168.8 262.7,167.2 262.8,173.1 262.9,170.1 263.1,169.7 263.4,167.2 263.7,163.3 263.9,159.3 264.2,164.9 264.5,164.9 264.9,167.1 265.1,162.0 265.5,164.9 265.7,165.9 266.0,165.7 266.3,162.0 266.7,160.6 267.1,165.9 267.6,162.8 268.0,162.6 268.6,163.3 269.2,165.6 269.7,162.1 270.3,166.0 270.6,159.4 270.9,160.9 271.4,160.7 271.7,162.9 272.2,160.8 272.7,159.0 273.1,158.0 273.1,158.6 273.6,157.0 273.9,154.7 274.3,160.6 274.8,158.7 275.4,160.6 275.7,166.4 276.0,165.5 276.4,162.3 276.9,162.8 277.5,161.8 278.1,166.4 278.4,168.2 278.6,173.2 278.8,170.9 279.2,172.7 279.3,177.3 279.4,178.7 279.4,184.4 279.4,182.1 279.6,179.6 279.8,176.0 280.0,172.8 280.4,173.3 280.6,173.2 280.9,174.3 281.2,172.8 281.7,176.1 282.0,177.6 282.3,178.9 282.7,180.2 282.9,184.2 283.1,182.0 283.4,176.1 283.9,172.7 284.2,176.6 284.4,179.1 284.7,177.4 285.0,173.5 285.3,178.5 285.5,178.0 285.9,179.3 286.4,179.0 286.8,178.0 287.2,182.0 287.5,185.7 287.8,183.9 287.9,185.8 288.0,185.3 288.1,184.1 288.2,187.9 288.3,186.6 288.4,183.9 288.5,182.4 288.7,180.8 288.8,180.0 288.9,178.8 289.0,176.3 289.2,175.8 289.4,172.3 289.6,175.8 289.8,170.7 289.9,173.6 290.2,174.1 290.4,176.5 290.6,169.0 290.8,169.1 290.9,167.7 291.1,168.6 291.4,172.6 291.6,169.9 291.9,166.3 292.2,169.0 292.7,169.3 293.1,174.1 293.5,176.7 293.9,172.8 294.4,179.6 294.5,181.8 294.8,182.5 295.2,177.8 295.6,175.4 296.1,174.7 296.5,170.3 296.9,169.4 297.5,172.5 298.1,170.8 298.9,174.2 299.5,172.9 300.2,171.3 300.6,166.3 300.7,172.2 301.2,173.2 301.6,167.1 302.4,174.1 302.9,174.4 303.5,168.8 304.1,168.7 304.8,170.7 305.5,171.0 306.2,169.0 306.8,167.3 307.4,168.5 308.0,170.1 308.3,174.7 308.7,174.7 309.0,179.5 309.0,187.5 309.1,185.2 309.3,183.7 309.4,179.0 309.9,177.9 310.5,181.6 311.1,180.7 311.8,180.7 312.5,180.2 313.0,183.7 313.6,184.5 314.1,179.6 314.4,176.0 314.5,179.6 314.7,178.9 315.2,180.3 315.5,181.5 315.7,184.9 315.8,183.8 316.0,186.9 316.2,185.3 316.3,187.3 316.4,186.0 316.6,180.3 316.7,172.1 316.7,164.9 316.8,167.5 316.8,163.8 316.9,162.3 317.0,165.5 317.0,167.1 317.2,167.6 317.3,169.9 317.4,164.5 317.6,159.0 317.7,157.2 317.8,160.1 318.0,160.8 318.2,160.1 318.5,158.3 318.7,161.0 318.8,168.1 319.0,168.8 319.3,171.4 319.7,167.5 319.9,174.1 320.1,177.0 320.2,180.9 320.5,177.4 320.9,178.9 321.2,182.9 321.4,185.2 321.8,179.0 322.1,181.8 322.5,181.1 322.9,181.2 323.3,181.1 323.7,177.7 324.4,178.1 325.0,178.0 325.9,177.9 326.8,180.1 327.5,182.7 328.3,181.9 329.1,179.8 329.8,183.5 330.1,186.9 330.7,186.8 331.2,186.1 331.9,186.8 332.7,185.9 333.6,184.7 334.6,183.9 335.1,179.2 335.9,178.6 336.6,181.5 337.5,178.1 338.1,177.1 339.0,175.9 339.8,176.8 340.6,175.3 341.6,175.8 342.2,175.9 342.9,177.8 343.6,177.4 344.2,178.6 345.0,176.5 345.8,175.5 346.4,172.3 347.0,174.1 347.4,175.9 348.1,176.4 349.0,176.7 349.9,175.8 350.9,178.1 351.8,181.3 352.2,183.3 353.0,184.6 353.4,182.9 354.3,184.3 355.0,185.6 355.8,183.7 356.6,184.7 357.4,184.3 357.9,183.6 358.7,183.6 359.3,183.6 360.0,181.2 360.9,179.6 361.6,181.6 362.3,178.1 363.4,178.3 364.1,180.7 364.7,179.5 365.4,177.8 366.3,179.0 367.2,177.5 368.1,178.2 368.7,177.4 369.2,175.8 369.8,177.6 370.7,175.6 371.3,173.0 371.5,171.9 371.8,174.3 372.2,176.0 372.4,181.2 372.8,179.8 373.1,171.1 373.3,170.6 373.7,171.9 374.1,173.4 374.7,172.4 375.4,173.6 376.1,175.3 376.5,173.8 377.1,176.9 377.3,182.9 377.5,187.0 377.6,187.0 378.0,184.8 378.4,187.0 378.9,184.3 379.5,184.0 379.8,188.3 380.5,189.0 380.7,192.0 380.7,195.5 380.9,187.7 381.1,186.1 381.6,185.3 381.9,186.9 382.1,181.6 382.4,182.2 382.6,187.5 382.8,183.7 382.9,179.0 383.0,176.1 383.1,175.2 383.3,175.2 383.5,176.5 383.7,178.2 384.1,175.8 384.3,172.6 384.4,167.9 384.5,170.4 384.8,166.8 385.0,166.4 385.1,163.8 385.3,164.0 385.5,159.6 385.6,156.3 385.8,157.8 386.0,165.4 386.2,167.7 386.5,167.1 386.9,167.7 387.4,166.2 387.9,165.1 388.5,169.0 388.9,166.6 389.4,171.2 389.8,171.6 390.2,174.1 390.5,178.0 390.7,180.5 390.9,182.0 391.1,180.5 391.4,179.9 391.6,187.8 391.7,190.4 391.8,194.0 391.9,193.2 392.1,190.2 392.3,190.5 392.6,189.2 393.1,189.1 393.4,188.8 393.9,190.5 394.4,191.4 395.0,188.3 395.6,188.2 396.1,188.0 396.8,188.3 397.2,191.4 397.7,192.1 398.1,191.3 398.3,195.8 398.3,199.4 398.4,197.9 398.5,193.9 398.6,194.5 398.7,191.1 398.9,187.4 399.1,189.6 399.3,188.1 399.5,184.2 399.7,179.8 399.8,177.7 399.9,177.6 400.1,175.5 400.3,173.3 400.5,172.8 400.7,172.0 400.8,171.0 401.0,173.9 401.2,174.6 401.5,176.3 401.8,180.5 402.0,188.4 402.1,184.0 402.4,183.7 402.7,181.3 403.1,184.3 403.5,186.3 403.8,184.8 404.4,184.2 404.9,181.2 405.3,185.7 405.8,188.1 406.1,190.4 406.5,192.1 406.9,195.1 407.1,192.5 407.6,192.8 408.2,193.7 408.6,195.4 409.1,195.2 409.5,195.9 410.0,194.2 410.5,193.7 411.0,191.6 411.4,196.7 411.8,192.3 412.5,192.8 413.0,195.2 413.4,192.3 414.0,190.6 414.4,185.9 415.0,187.8 415.3,183.8 415.5,178.2 415.7,179.4 416.1,180.2 416.4,183.8 416.9,184.7 417.5,182.7 418.1,184.4 418.8,181.1 419.4,181.8 419.8,178.0 420.1,176.6 420.5,180.2 421.0,177.3 421.6,179.8 422.2,180.3 422.9,180.5 423.4,181.5 424.0,180.4 424.5,178.3 424.9,172.9 424.9,174.5 425.0,172.5 425.2,174.0 425.5,176.2 425.9,171.8 426.1,168.1 426.2,163.9 426.3,163.2 426.4,163.6 426.5,166.0 426.6,168.2 426.7,168.7 426.9,167.0 427.0,168.0 427.2,165.1 427.2,158.8 427.3,153.6 427.4,154.5 427.4,150.3 427.5,149.2 427.6,151.2 427.7,148.8 427.8,142.4 427.8,140.0 427.9,141.0 427.9,139.6 428.0,136.4 428.1,137.7 428.2,135.6 428.3,138.6 428.4,138.4 428.4,134.0 428.5,137.4 428.7,136.6 428.9,138.8 429.1,138.1 429.3,141.0 429.5,136.6 429.7,139.0 429.9,138.5 430.2,137.4 430.4,138.9 430.7,138.9 431.0,137.9 431.3,140.0 431.7,138.9 432.1,139.0 432.4,137.7 432.7,138.9 433.0,140.4 433.3,140.4 433.7,139.8 434.0,138.1 434.6,137.7 434.8,132.7 434.9,127.2 434.9,121.0 434.9,122.6 434.9,127.0 434.9,131.2 435.0,129.9 435.1,126.4 435.3,126.6 435.4,124.9 435.7,125.1 435.9,121.2 436.0,121.9 436.2,123.5 436.4,126.3 436.7,126.7 437.0,122.3 437.2,125.0 437.5,124.9 437.9,125.8 438.2,124.3 438.6,124.3 439.0,125.7 439.4,126.2 439.7,124.2 440.2,125.4 440.6,126.6 441.1,125.5 441.6,125.8 441.9,126.2 442.4,126.9 442.9,126.5 443.4,127.0 443.9,128.0 444.3,128.6 444.8,128.8 445.3,128.1 445.9,128.1 446.4,127.3 446.9,128.5 447.5,128.1 448.2,128.1 448.7,128.3 449.0,133.5 449.4,132.9 449.8,135.8 450.2,134.3 450.6,137.1 450.9,137.4 451.3,137.1 451.9,137.3 452.2,138.4 452.5,136.1 452.8,142.4 453.1,140.8 453.4,138.9 453.6,137.8 453.8,138.2 453.9,135.6 454.0,131.6 454.1,130.1 454.2,136.1 454.3,136.6 454.5,131.4 454.6,128.8 454.7,126.1 454.9,127.3 455.1,126.3 455.4,124.9 455.5,122.0 455.6,118.4 455.6,115.2 455.8,118.3 456.0,117.0 456.1,120.3 456.3,120.1 456.6,120.2 456.7,120.2 457.0,123.4 457.2,128.5 457.4,128.8 457.6,133.4 457.9,131.7 458.0,134.8 458.3,136.3 458.4,142.5 458.6,141.8 458.6,139.9 458.9,137.6 459.0,133.4 459.3,134.0 459.4,126.2 459.6,129.0 460.0,131.3 460.2,128.3 460.4,128.9 460.8,130.6 461.2,129.5 461.7,130.1 462.2,132.6 462.4,131.6 462.7,130.2 462.9,132.4 463.1,134.6 463.4,135.4 463.8,132.3 464.5,132.2 464.9,133.2 465.3,138.1 465.7,137.4 466.1,138.5 466.4,141.7 466.9,141.8 467.4,142.3 467.6,145.9 467.9,147.9 468.2,149.8 468.4,152.7 468.6,155.2 468.7,156.8 468.8,159.9 469.0,160.5 469.3,156.4 469.6,155.3 470.0,152.8 470.4,153.0 470.7,153.1 471.1,153.8 471.6,152.9 471.9,152.7 472.3,156.9 472.7,156.2 473.1,153.5 473.4,148.8 473.8,148.3 474.0,148.2 474.5,148.1 475.0,146.0 475.4,145.7 475.6,146.9 475.7,144.1 476.0,141.4 476.3,144.6 476.8,145.7 477.4,146.0 478.0,149.0 478.5,150.0 479.1,149.7 479.6,147.2 480.2,149.2 480.5,144.2 481.0,146.3 481.3,151.7 481.4,155.4 481.5,157.0 481.6,162.0 481.7,156.1 481.8,157.4 482.0,157.4 482.1,156.8 482.3,163.8 482.4,163.1 482.6,166.7 482.6,167.7 482.7,172.0 482.8,174.2 482.8,178.2 482.8,177.3 482.9,172.2 483.0,165.4 483.0,169.6 483.2,170.2 483.3,171.8 483.6,170.4 483.8,168.2 484.0,166.9 484.3,168.0 484.5,169.7 484.9,165.4 485.1,166.2 485.3,172.7 485.5,176.8 485.6,179.4 485.9,176.3 486.1,183.9 486.2,180.8 486.4,183.1 486.5,187.0 486.6,185.2 486.8,183.2 487.0,188.3 487.3,186.8 487.5,182.8 487.7,182.2 488.0,184.6 488.3,184.2 488.6,187.1 488.9,183.9 489.4,183.9 489.9,183.5 490.4,181.3 490.8,179.6 491.3,180.7 491.7,179.2 492.3,178.9 492.6,179.7 493.1,176.8 493.5,180.3 494.0,179.0 494.5,182.4 494.9,182.6 495.5,177.3 496.0,177.6 496.7,182.4 497.3,180.9 497.7,184.2 498.1,181.8 498.7,180.1 499.1,179.4 499.5,178.0 500.2,177.8 500.7,179.0 501.4,178.8 502.0,176.3 502.5,178.3 503.0,179.5 503.8,180.4 504.2,181.2 504.7,182.4 505.0,180.9 505.3,181.5 506.0,179.8 506.6,180.6 507.4,180.2 507.9,183.7 508.5,180.8 508.9,180.9 509.2,178.9 509.5,182.7 509.7,180.5 509.9,186.9 510.0,190.1 510.1,194.4 510.2,194.5 510.3,196.9 510.4,201.4 510.4,202.5 510.5,202.4 510.6,203.5 510.7,206.4 510.7,207.1 510.8,212.0 510.9,210.4 511.0,209.9 511.1,205.1 511.3,208.2 511.5,202.3 511.7,204.4 511.9,204.9 512.2,204.2 512.5,203.4 512.8,205.0 513.0,201.1 513.3,200.6 513.7,201.1 514.0,203.3 514.3,206.1 514.7,202.5 514.8,202.3 515.0,201.4 515.2,201.6 515.3,207.1 515.4,205.5 515.6,200.9 515.7,198.3 515.8,195.0 515.9,194.0 516.1,192.8 516.3,191.6 516.5,189.5 516.6,189.7 516.8,189.6 517.1,188.7 517.3,188.9 517.5,192.2 517.9,189.7 518.5,189.7 519.0,189.9 519.6,191.1 520.0,192.5 520.4,191.9 521.0,190.3 521.6,191.0 522.3,192.1 522.9,192.8 523.6,191.8 524.2,191.9 524.8,193.5 525.3,193.0 525.6,192.4 525.8,192.1 526.2,191.3 526.9,191.5 527.4,192.2 527.5,191.9 527.7,193.1 527.8,192.6 528.0,193.9 528.1,193.9 528.2,192.6 528.4,190.9 528.9,190.9 529.4,188.1 529.9,187.0 530.3,185.7 530.9,186.5 531.6,186.5 532.1,186.7 532.6,188.6 533.3,187.9 533.8,186.2 534.3,184.4 534.9,185.3 535.4,182.5 535.8,180.4 536.3,180.9 536.6,171.9 536.7,174.2 537.1,173.2 537.3,173.2 537.6,176.3 537.9,174.3 538.3,173.3 538.7,178.0 539.0,180.2 539.5,179.4 540.0,181.0 540.6,180.1 541.1,178.2 541.4,177.4 541.7,177.3 542.0,177.4 542.5,177.1 543.1,176.9 543.5,177.6 543.9,178.3 544.1,180.2 544.4,180.5 545.0,178.5 545.7,181.4 546.2,182.5 546.5,181.3 547.0,182.6 547.2,183.1 547.4,182.8 547.5,181.4 547.7,180.0 547.9,179.1 548.1,178.3 548.2,180.2 548.4,180.3 548.6,180.5 548.8,183.0 548.9,183.0 549.1,182.6 549.2,184.9 549.8,183.6 550.3,187.4 550.7,188.8 551.2,185.4 551.9,186.2 552.2,187.0 552.5,187.5 552.8,187.2 553.1,186.9 553.4,187.8 553.7,187.3 554.0,187.5 554.3,186.2 554.8,186.5 555.6,188.1 556.0,189.2 556.6,189.3 557.1,188.1 557.4,188.1 557.6,187.9 557.8,189.0 558.0,188.5 558.2,189.4 558.4,188.4 559.0,189.0 559.6,190.8 560.2,191.7 561.0,190.5 561.6,191.4 562.3,193.5 562.6,194.1 563.1,194.1 563.4,192.6 563.8,191.5 564.1,190.7 564.6,194.5 564.8,195.7 565.1,194.4 565.6,192.9 566.0,190.6 566.5,189.6 567.2,191.2 567.8,193.1 568.4,192.1 568.8,187.9 569.0,184.7 569.3,184.4 569.9,187.1 570.5,187.0 570.8,186.0 571.1,184.2 571.4,185.0 571.8,185.2 572.6,184.8 573.2,182.9 573.9,184.6 574.0,190.6 574.3,192.3 574.3,197.4 574.4,202.4 574.5,208.0 574.5,204.7 574.6,207.4 574.7,211.3 574.8,212.1 574.8,216.1 574.8,220.5 574.8,221.2 574.8,220.1 574.9,219.6 575.0,225.2 575.0,225.1 575.0,230.0 575.0,237.7 575.1,244.7 575.1,248.9 575.1,246.2 575.1,259.1 575.1,266.1 575.1,257.6 575.1,267.6 575.1,268.4 575.1,268.8 575.1,263.3 575.1,256.5 575.1,251.4 575.1,244.4 575.1,243.4 575.2,242.4 575.2,247.6 575.2,243.4 575.2,246.6 575.3,246.2 575.3,247.5 575.3,251.3 575.3,252.8 575.4,246.8 575.4,245.4 575.4,252.4 575.5,250.3 575.5,251.5 575.6,252.4 575.6,254.3 575.7,251.5 575.7,253.8 575.8,251.6 575.8,249.7 575.9,249.8 576.0,250.8 576.1,250.4 576.2,250.4 576.3,250.3 576.4,245.8 576.5,242.3 576.6,246.7 576.8,246.3 577.0,247.7 577.2,248.6 577.3,245.5 577.5,241.8 577.7,242.1 578.0,240.7 578.3,242.2 578.6,242.5 579.0,244.6 579.3,242.4 579.7,240.7 579.9,241.5 580.3,243.3 580.6,244.7 581.0,245.0 581.3,246.6 581.6,243.2 582.0,246.6 582.3,246.6 582.7,249.5 583.1,245.7 583.6,245.2 584.1,244.6 584.4,243.3 584.7,236.3 584.9,236.3 585.1,235.3 585.4,235.8 585.8,236.2 586.3,235.5 586.6,237.6 586.9,237.4 587.2,237.9 587.4,238.2 587.7,239.4 588.0,239.9 588.2,239.3 588.5,238.8 588.7,241.6 589.0,241.9 589.2,241.6 589.5,241.2 589.7,240.1 590.0,241.1 590.4,241.1 590.9,238.3 591.3,239.5 591.5,238.7 591.8,239.0 592.0,238.3 592.2,238.8 592.4,237.0 592.6,240.1 593.0,241.7 593.5,240.3 594.0,239.6 594.4,240.1 594.7,241.7 595.1,240.3 595.4,244.8 595.8,240.1 596.2,240.1 596.7,238.8 597.2,236.2 597.5,234.2 598.1,234.1 598.6,234.0 599.2,234.8 599.7,235.8 600.4,237.1 600.6,241.5 600.8,238.6 601.1,242.0 601.4,241.8 601.6,242.5 601.7,242.3 601.9,242.8 602.1,238.1 602.3,237.5 602.5,239.3 602.7,239.7 602.8,240.9 603.1,241.4 603.5,241.4 603.9,242.5 604.3,239.1 604.9,241.2 605.2,244.7 605.6,242.4 605.8,241.3 606.0,240.4 606.2,241.4 606.3,241.3 606.5,241.1 606.7,242.6 607.2,241.2 607.8,240.8 608.3,241.5 608.5,241.5 608.6,244.0 608.9,241.8 609.3,239.7 609.7,240.9 609.9,246.6 609.9,249.8 610.1,243.8 610.3,245.9 610.4,246.3 610.6,246.8 610.8,246.6 611.0,244.5 611.3,246.0 611.5,244.7 611.7,248.5 612.0,249.9 612.1,253.5 612.3,250.8 612.5,254.3 612.6,256.4 612.8,256.3 613.0,254.7 613.3,250.9 613.7,247.3 613.8,251.8 614.2,249.6 614.4,244.7 614.6,249.0 615.0,251.3 615.4,252.4 615.8,251.8 616.3,254.0 616.7,254.6 617.0,254.3 617.6,254.2 617.8,258.7 618.0,258.7 618.3,259.5 618.6,260.1 618.9,258.3 619.2,258.6 619.4,258.3 619.5,252.4 619.6,252.4 619.7,257.8 619.8,254.4 620.0,256.7 620.0,257.4 620.1,262.7 620.2,256.2 620.3,258.1 620.4,255.9 620.5,258.9 620.7,258.7 620.9,260.8 621.0,258.7 621.2,259.4 621.3,258.6 621.5,260.4 621.7,263.4 621.8,264.1 621.9,269.2 622.0,273.1 622.1,268.4 622.3,267.9 622.4,265.4 622.6,265.8 622.7,268.7 622.9,271.0 623.0,272.8 623.1,275.2 623.2,275.7 623.3,272.6 623.5,271.1 623.6,271.1 623.8,274.1 624.0,274.0 624.1,275.0 624.3,273.5 624.5,272.3 624.7,271.8 625.1,272.8 625.3,273.7 625.5,271.8 625.7,272.4 625.9,270.0 626.1,266.5 626.3,267.8 626.7,266.1 627.0,266.0 627.5,270.4 628.0,270.0 628.4,269.1 628.6,280.1 628.6,279.2 628.7,275.2 628.8,271.3 629.1,272.0 629.2,273.5 629.5,275.2 629.7,273.7 630.1,275.0 630.4,273.7 630.7,275.8 631.0,270.0 631.3,267.6 631.6,265.7 632.0,265.1 632.4,265.1 632.8,262.6 633.3,266.2 633.7,263.1 634.2,262.9 634.8,263.7 634.9,263.2 635.0,264.5 635.1,265.0 635.1,265.6 635.2,265.9 635.3,265.4 635.4,264.9 635.6,265.4 635.9,265.6 636.2,263.2 636.7,263.5 636.9,261.6 637.0,259.8 637.2,260.9 637.4,262.1 637.5,261.9 637.7,262.2 637.9,264.4 638.1,265.8 638.4,267.0 638.6,265.9 638.9,265.7 639.4,267.6 639.8,267.5 640.1,269.8 640.4,271.4 640.6,268.9 640.8,268.7 641.1,267.9 641.4,267.4 641.7,268.1 641.9,265.8 642.1,266.8 642.5,267.3 643.1,269.9 643.6,268.9 644.0,275.1 644.2,277.7 644.3,281.1 644.4,280.5 644.5,280.6 644.7,280.3 645.0,276.2 645.4,273.9 645.7,276.3 646.0,277.3 646.3,278.6 646.5,276.7 646.6,272.8 646.6,266.7 646.7,266.0 646.9,267.0 647.0,261.2 647.0,262.6 647.1,264.9 647.2,265.1 647.4,266.5 647.5,263.9 647.6,264.5 647.7,263.1 647.9,259.0 647.9,261.4 648.1,262.5 648.3,263.1 648.5,259.9 648.7,259.2 649.0,264.3 649.1,269.2 649.3,269.1 649.4,276.4 649.5,279.2 649.5,285.0 649.6,280.8 649.6,278.5 649.7,281.1 649.8,286.4 649.9,284.1 649.9,280.2 650.0,282.9 650.1,287.1 650.2,281.2 650.3,281.9 650.4,284.7 650.6,284.5 650.7,282.1 650.9,280.7 651.1,279.6 651.3,275.3 651.5,278.0 651.7,278.1 651.9,273.7 652.2,272.0 652.4,274.0 652.6,270.3 652.7,262.1 652.7,262.3 652.7,257.3 652.8,256.3 652.8,252.8 652.9,254.4 653.0,251.5 653.1,248.6 653.1,250.8 653.2,248.4 653.3,249.5 653.4,252.4 653.5,250.9 653.6,254.0 653.8,256.6 654.0,255.1 654.2,252.5 654.4,251.6 654.7,250.2 655.0,247.7 655.3,242.0 655.6,245.9 655.8,242.3 656.1,249.7 656.5,251.1 656.9,252.3 657.1,253.9 657.5,255.9 657.8,257.4 658.1,255.2 658.4,252.9 658.8,252.8 659.2,252.9 659.6,249.1 660.0,248.5 660.4,247.6 660.9,248.9 661.5,248.2 661.9,252.4 662.3,253.4 662.8,253.0 663.4,251.7 663.9,249.4 664.6,251.3 665.1,253.3 665.6,252.9 666.1,254.0 666.6,255.0 667.2,254.9 667.4,257.8 667.6,258.4 667.9,258.7 668.1,255.6 668.4,255.2 668.6,254.2 668.9,253.9 669.2,253.3 669.5,254.1 669.7,254.3 670.0,255.3 670.3,254.8 670.6,255.7 670.9,257.6 671.4,259.0 671.8,262.3 672.1,262.8 672.6,263.7 673.1,263.1 673.4,260.5 673.6,263.9 673.9,265.7 674.2,264.0 674.5,266.3 674.7,268.7 674.8,265.7 674.9,271.7 675.0,270.5 675.2,272.3 675.3,269.8 675.5,271.7 675.6,276.3 675.7,277.4 675.9,272.8 676.1,269.5 676.3,269.2 676.5,272.8 676.8,270.4 677.0,269.9 677.4,268.2 677.7,267.9 678.0,272.0 678.4,269.5 678.6,271.8 678.9,270.0 679.2,270.8 679.6,274.1 680.0,273.1 680.5,270.2 681.0,270.9 681.4,274.5 681.9,273.5 682.3,273.0 683.0,272.2 683.5,271.1 684.2,271.0 684.8,271.7 685.3,269.7 685.8,269.0 686.5,269.1 687.0,266.9 687.6,264.9 688.2,265.6 688.6,266.5 688.8,267.7 689.0,268.6 689.2,268.1 689.3,265.2 689.5,265.7 690.2,264.3 690.4,262.1 690.8,262.1 691.3,260.0 691.8,263.3 692.5,264.2 692.9,264.8 693.3,265.3 693.7,267.5 694.0,269.1 694.1,271.8 694.4,274.0 694.8,273.5 695.3,274.2 695.5,276.2 695.8,277.1 696.1,273.0 696.3,273.7 696.7,272.6 697.2,273.3 697.9,272.0 698.4,269.4 699.1,269.5 699.7,270.3 700.4,269.7 700.8,269.4 701.5,268.7 702.0,269.5 702.3,273.9 702.3,278.1 702.5,277.6 702.6,279.3 702.7,277.5 702.9,275.5 703.1,279.1 703.2,272.6 703.5,271.2 703.7,269.7 703.8,268.0 704.0,267.0 704.2,267.1 704.5,270.1 704.7,263.5 704.8,261.6 705.1,265.2 705.3,265.1 705.6,258.9 705.6,255.5 705.7,255.9 705.8,256.5 705.9,256.3 706.1,259.1 706.2,261.2 706.4,257.3 706.5,259.5 706.7,258.0 706.8,258.0 707.0,259.1 707.2,261.2 707.3,261.4 707.5,263.8 707.6,264.3 707.7,268.7 707.9,266.9 708.0,270.6 708.2,270.6 708.5,271.5 708.8,270.2 709.1,277.0 709.3,276.9 709.5,277.7 709.7,275.3 710.1,272.6 710.7,273.6 711.1,272.8 711.9,271.3 712.7,273.2 713.4,274.0 713.8,273.0 714.2,273.7 714.5,274.6 714.8,273.3 715.1,273.6 715.5,273.0 715.8,272.8 716.6,273.3 717.2,271.8 717.9,270.8 718.9,271.1 719.4,272.3 719.7,273.3 719.9,272.1 720.1,272.4 720.3,271.8 720.5,272.2 720.7,272.4 720.9,272.4 721.1,272.6 721.3,273.3 721.5,274.0 721.7,274.5 722.2,273.7 722.9,273.7 723.7,274.2 724.5,275.5 725.1,276.3 725.8,275.6 726.5,274.2 727.2,274.5 728.0,274.0 728.6,274.0 729.2,277.4 729.4,276.4 730.0,275.4 730.5,274.9 731.0,276.7 731.5,279.3 731.8,279.7 732.1,279.4 732.6,278.0 733.2,278.3 733.6,278.6 734.2,278.4 734.6,278.0 734.9,278.5 735.2,279.4 735.6,278.9 736.4,277.5 736.9,276.1 737.1,276.1 737.3,276.1 737.4,276.8 737.6,276.1 737.8,275.9 738.0,276.8 738.2,276.8 738.4,276.7 738.6,276.3 738.7,274.3 738.9,274.6 739.1,275.2 739.3,275.5 739.5,275.0 739.7,275.7 739.9,276.1 740.1,276.3 740.5,277.0 740.9,277.4 741.1,277.6 741.4,278.1 741.7,278.1 742.0,277.0 742.5,279.2 742.9,281.1 743.3,280.0 743.9,280.8 744.5,281.9 744.8,285.8 744.9,285.7 745.3,283.8 745.6,284.2 746.1,282.1 746.7,283.4 747.3,282.3 747.8,283.7 748.2,283.7 748.7,284.2 749.1,286.8 749.6,284.7 750.1,284.2 750.6,284.7 750.7,287.4 751.0,287.0 751.2,286.9 751.6,285.6 751.8,283.7 752.0,282.3 752.3,282.6 752.6,280.3 752.9,278.4 753.1,279.9 753.4,281.8 753.9,281.3 754.5,283.2 754.9,285.2 755.2,286.4 755.6,284.7 755.9,284.5 756.1,284.4 756.4,284.7 756.6,282.8 756.9,283.7 757.2,286.6 757.4,289.4 757.7,288.3 758.0,287.6 758.4,288.7 758.8,288.7 759.2,291.2 759.2,298.1 759.2,294.6 759.2,295.0 759.3,298.3 759.3,297.5 759.4,299.4 759.4,303.6 759.5,299.7 759.5,302.3 759.6,302.1 759.7,301.4 759.8,302.6 760.0,302.2 760.2,299.2 760.4,300.3 760.6,302.3 760.9,302.5 761.3,300.1 761.6,302.5 761.7,306.7 761.8,305.6 761.9,305.8 762.0,309.0 762.2,309.4 762.3,309.3 762.4,308.0 762.6,306.9 762.9,309.7 763.0,311.2 763.1,315.7 763.1,316.6 763.2,316.1 763.4,313.5 763.5,319.5 763.6,323.3 763.6,320.2 763.7,318.6 763.9,315.2 764.1,318.8 764.3,320.5 764.6,320.3 764.8,317.0 765.0,313.6 765.3,313.3 765.6,315.8 765.8,313.3 766.1,314.2 766.4,316.1 766.7,317.6 767.1,317.0 767.3,313.2 767.6,310.1 768.0,311.5 768.3,308.7 768.5,307.2 768.7,305.8 769.2,310.1 769.5,304.6 769.7,298.3 769.9,298.8 770.1,297.2 770.4,297.2 770.6,297.4 770.9,302.6 771.1,299.9 771.4,300.5 771.6,301.0 771.9,300.8 772.1,302.6 772.4,304.7 772.6,307.0 772.8,308.2 773.0,306.5 773.3,305.0 773.6,301.0 774.1,303.5 774.3,303.9 774.6,302.5 774.9,303.5 775.2,302.5 775.6,303.5 776.1,300.6 776.4,299.2 776.8,298.6 777.1,299.1 777.6,298.4 777.9,298.0 778.1,295.6 778.7,297.8 778.9,300.7 779.2,301.3 779.4,302.5 779.7,302.6 780.0,300.1 780.5,299.6 781.2,299.2 781.8,299.6 782.4,298.8 783.0,300.1 783.5,297.7 783.9,296.1 784.4,296.7 784.7,299.8 785.1,300.4 785.1,292.2 785.2,293.8 785.4,294.1 785.6,292.2 785.8,287.6 785.8,287.9 786.0,287.7 786.2,288.9 786.4,295.1 786.5,295.7 786.7,293.4 787.0,295.2 787.2,292.9 787.4,294.6 787.7,293.5 788.0,293.5 788.2,298.4 788.5,300.8 788.7,297.5 789.1,297.9 789.3,296.6 789.4,295.9 789.6,292.8 789.8,294.9 790.1,295.1 790.3,293.0 790.7,295.1 791.3,297.7 791.8,297.0 792.4,300.6 792.7,299.9 793.3,295.6 793.5,293.0 793.8,294.4 794.1,296.0 794.4,293.9 794.7,294.7 795.0,297.3 795.3,295.3 795.6,293.9 795.9,296.1 796.1,297.5 796.4,297.2 796.7,297.0 797.0,296.0 797.3,297.5 797.6,295.9 797.8,293.6 798.1,293.7 798.4,290.2 798.6,291.9 798.9,292.0 799.2,289.4 799.4,290.3 799.7,293.0 799.9,293.4 800.2,291.9 800.5,293.1 800.7,291.5 801.0,291.3 801.3,292.2 801.6,293.8 801.9,292.8 802.1,294.4 802.5,294.3 802.8,294.7 803.1,294.0 803.4,294.4 803.7,295.6 804.0,296.1 804.3,294.6 804.6,293.0 804.9,292.2 805.1,294.3 805.4,293.8 805.7,293.9 806.0,293.5 806.3,294.3 806.5,296.3 806.7,297.9 807.0,297.0 807.3,297.1 807.5,297.8 807.8,296.2 808.1,298.1 808.4,298.6 808.7,299.1 809.0,299.2 809.3,298.2 809.6,298.0 809.9,298.5 810.2,297.8 810.4,297.9 810.8,298.2 811.1,298.7 811.3,301.4 811.6,299.8 811.9,301.6 812.2,300.4 812.4,297.0 812.7,299.1 812.9,301.9 813.2,302.3 813.4,297.8 813.8,303.0 814.1,298.6 814.4,296.9 814.5,291.7 814.6,289.1 814.7,287.3 814.9,291.0 815.1,286.4 815.2,283.6 815.4,286.5 815.6,289.9 815.8,297.8 815.9,300.8 816.0,297.9 816.2,302.1 816.4,303.8 816.7,302.1 816.9,300.4 817.1,300.1 817.4,297.5 817.7,290.7 817.8,290.0 818.0,289.6 818.4,290.7 818.7,286.9 819.0,287.7 819.3,285.7 819.4,280.5 819.5,280.1 819.7,279.5 819.9,278.0 819.9,275.0 820.1,276.3 820.2,276.1 820.4,276.1 820.6,276.8 820.8,278.6 821.1,278.6 821.5,275.8 821.8,276.0 822.2,274.6 822.6,275.0 823.0,272.9 823.3,270.3 823.6,272.0 823.9,272.5 824.3,273.2 824.5,272.8 824.9,273.1 825.2,275.4 825.7,274.8 826.0,278.0 826.4,276.9 826.9,277.9 827.3,276.7 827.9,276.6 828.4,277.7 828.9,278.4 829.5,277.0 830.2,275.7 830.6,273.1 831.0,274.9 831.5,271.8 832.0,275.3 832.4,275.4 833.0,275.5 833.5,278.6 834.0,277.6 834.6,273.0 835.0,272.4 835.3,271.7 835.5,272.3 836.2,271.5 836.6,271.8 837.1,270.6 837.3,267.1 837.5,266.0 837.7,268.6 838.2,272.5 838.7,270.6 839.0,269.6 839.4,269.8 839.9,273.9 840.1,276.6 840.3,273.9 840.5,275.1 840.7,274.9 841.0,277.2 841.1,284.0 841.3,280.9 841.7,278.3 842.0,281.7 842.3,281.8 842.7,279.7 843.1,279.7 843.5,278.6 843.8,281.2 844.1,275.6 844.3,280.7 844.6,279.3 845.2,279.7 845.5,280.2 845.7,278.5 846.0,279.9 846.2,280.3 846.5,276.5 846.8,276.2 847.1,272.8 847.6,277.5 847.8,281.5 848.0,277.8 848.5,278.1 849.0,276.8 849.6,275.0 850.2,274.7 851.0,276.4 851.4,278.8 852.0,282.3 852.5,279.6 852.9,281.8 853.3,284.1 853.7,283.2 854.1,289.6 854.1,289.2 854.4,291.8 854.5,294.2 854.8,289.6 855.1,292.5 855.7,292.5 856.0,295.3 856.2,297.5 856.9,292.5 857.4,290.4 858.2,291.6 858.8,291.0 859.5,289.9 860.3,292.2 860.6,294.7 861.2,293.7 861.9,295.7 862.7,296.4 863.7,296.3 864.1,298.3 864.5,300.4 865.1,300.4 865.6,301.7 865.8,304.9 866.1,306.7 866.4,305.5 866.9,305.8 867.4,303.6 867.8,305.2 868.0,308.4 868.1,308.7 868.2,309.7 868.2,313.5 868.3,317.2 868.3,320.7 868.4,322.8 868.4,327.7 868.4,331.1 868.4,330.4 868.5,333.4 868.5,334.0 868.5,331.8 868.6,334.2 868.6,339.0 868.6,337.6 868.7,341.9 868.7,337.0 868.7,337.9 868.8,339.7 868.8,339.0 868.8,340.0 868.9,336.5 869.0,337.1 869.1,338.1 869.2,337.9 869.2,339.9 869.3,343.4 869.4,342.1 869.5,336.9 869.6,338.7 869.6,339.2 869.7,337.9 869.9,338.4 870.0,338.1 870.1,338.7 870.3,338.6 870.4,337.1 870.6,336.9 870.8,333.1 870.9,333.1 871.1,329.5 871.2,332.5 871.5,332.9 871.7,336.0 871.9,336.9 872.1,336.4 872.2,340.6 872.4,341.4 872.5,340.7 872.6,340.6 872.8,340.9 872.9,346.1 873.0,347.7 873.1,346.1 873.3,344.1 873.5,342.8 873.7,336.7 873.9,336.6 874.2,337.6 874.5,337.4 874.9,337.7 875.2,335.4 875.4,334.0 875.8,335.9 876.1,335.0 876.6,334.5 877.0,336.2 877.6,335.2 878.0,336.3 878.6,334.9 879.0,334.4 879.4,334.6 880.0,333.6 880.4,334.2 880.7,335.2 880.7,338.3 880.7,343.2 880.7,352.5 880.8,348.0 880.8,349.3 880.8,346.6 880.8,343.6 880.9,345.5 880.9,341.9 881.0,340.2 881.2,339.5 881.3,342.5 881.4,343.3 881.5,347.9 881.7,348.3 881.8,345.6 882.0,341.5 882.3,341.4 882.5,340.6 882.9,341.2 883.4,341.5 883.7,340.4 883.9,337.5 884.4,337.7 884.9,339.4 885.5,339.5 885.9,342.3 886.3,348.0 886.6,350.7 886.7,347.4 887.0,345.0 887.2,339.5 887.5,341.6 887.9,340.1 888.3,339.4 888.7,345.2 889.1,342.9 889.5,345.4 889.8,344.5 890.1,348.1 890.4,346.1 890.8,342.6 891.3,341.7 891.8,340.4 892.3,339.7 892.5,336.9 892.7,339.0 893.2,339.2 893.7,339.4 893.9,341.5 894.3,342.2 894.3,343.7 894.6,343.5 895.0,341.6 895.3,340.0 895.5,339.9 895.7,339.6 895.8,338.2 896.0,340.7 896.2,338.1 896.4,340.5 896.6,344.2 896.7,343.6 896.8,338.7 897.0,340.0 897.3,342.5 897.5,340.1 897.7,340.2 897.9,338.3 898.1,339.6 898.4,342.3 898.6,342.5 898.8,338.1 899.1,338.9 899.5,341.0 899.7,344.4 899.9,350.4 899.9,354.4 900.0,354.7 900.0,349.0 900.2,350.7 900.3,347.3 900.4,342.6 900.4,339.8 900.6,337.3 900.7,336.9 900.8,336.9 901.0,335.1 901.2,336.6 901.5,337.4 901.8,338.2 902.0,340.4 902.2,343.9 902.3,343.7 902.5,342.6 902.6,344.3 902.8,344.5 903.0,345.3 903.2,344.4 903.5,342.6 903.8,343.5 904.2,342.1 904.6,344.7 905.1,343.1 905.5,344.2 905.9,344.8 906.3,343.7 906.7,344.4 907.2,344.3 907.7,343.7 908.3,345.7 908.8,345.0 909.3,347.0 909.9,344.8 910.5,344.9 911.2,345.2 912.0,347.1 912.4,349.1 912.9,347.1 913.6,348.3 913.9,353.8 914.2,353.6 914.8,353.4 915.2,357.5 915.3,359.3 915.6,355.9 915.9,358.8 915.9,362.3 916.1,360.2 916.2,362.9 916.3,364.6 916.4,368.2 916.5,366.0 916.6,364.2 916.8,360.0 917.1,359.5 917.4,357.2 917.8,359.7 918.2,360.8 918.6,358.4 919.2,360.0 919.6,357.8 920.2,360.3 920.5,361.5 921.0,359.9 921.3,362.1 921.7,362.6 922.0,364.6 922.1,367.7 922.3,367.3 922.6,367.6 922.7,371.4 922.8,371.3 922.9,373.9 922.9,376.8 923.0,378.7 923.0,385.3 923.0,384.7 923.0,389.3 923.0,385.6 923.1,387.6 923.1,385.6 923.1,389.9 923.1,386.8 923.2,386.4 923.2,390.3 923.2,391.1 923.3,390.9 923.3,391.1 923.4,388.1 923.5,390.5 923.6,386.0 923.7,385.0 923.7,386.3 923.8,382.5 923.9,384.4 924.1,385.6 924.3,381.6 924.5,382.6 924.6,382.3 924.9,383.3 925.0,384.5 925.1,386.7 925.2,380.6 925.2,379.3 925.4,383.0 925.6,383.9 925.7,387.4 925.8,388.7 925.9,389.0 926.0,387.9 926.1,393.3 926.1,395.5 926.2,398.9 926.2,402.9 926.2,408.1 926.2,409.8 926.2,417.3 926.2,412.8 926.2,409.6 926.2,404.1 926.2,403.5 926.3,403.5 926.3,401.5 926.3,405.7 926.4,405.2 926.4,405.5 926.5,406.1 926.6,405.1 926.6,409.2 926.6,403.9 926.7,405.6 926.8,407.5 926.9,409.8 927.0,407.4 927.1,404.9 927.2,403.0 927.3,402.1 927.4,406.0 927.5,408.9 927.5,407.4 927.7,404.7 927.8,412.5 927.8,415.6 927.9,417.4 927.9,416.4 927.9,417.5 927.9,425.9 927.9,426.9 927.9,439.1 927.9,431.2 928.0,423.7 928.0,415.6 928.0,416.8 928.0,410.7 928.0,406.3 928.0,407.8 928.0,409.4 928.0,409.5 928.1,409.8 928.1,409.9 928.1,408.2 928.2,407.1 928.2,404.6 928.3,403.2 928.3,404.0 928.4,403.4 928.4,402.3 928.5,402.8 928.6,396.8 928.7,400.2 928.8,401.6 928.9,403.0 929.0,405.2 929.1,401.3 929.3,400.8 929.4,401.3 929.6,401.7 929.8,405.9 929.8,401.0 930.0,408.1 930.2,405.4 930.4,402.5 930.6,398.4 930.7,400.7 930.9,399.1 931.1,400.6 931.2,398.0 931.4,396.0 931.6,394.1 931.8,394.5 932.0,396.9 932.2,396.4 932.6,398.5 932.9,394.8 933.2,393.7 933.3,386.7 933.4,385.9 933.5,384.9 933.7,389.0 934.0,387.1 934.0,386.7" fill="none" stroke="#d97706" stroke-width="1.2" stroke-linejoin="round" opacity="0.6"/><text x="942" y="472.0" text-anchor="start" font-size="11" fill="#d97706">8.67</text><text x="942" y="396.0" text-anchor="start" font-size="11" fill="#d97706">10.02</text><text x="942" y="320.0" text-anchor="start" font-size="11" fill="#d97706">11.37</text><text x="942" y="244.0" text-anchor="start" font-size="11" fill="#d97706">12.72</text><text x="942" y="168.0" text-anchor="start" font-size="11" fill="#d97706">14.06</text><text x="942" y="92.0" text-anchor="start" font-size="11" fill="#d97706">15.41</text><text x="942" y="80.0" text-anchor="start" font-size="11" font-weight="600" fill="#d97706">price</text>
  <polygon points="232.4,468.0 232.4,117.1 232.4,116.7 261.2,116.8 434.9,117.0 482.6,117.2 868.4,116.1 868.4,468.0" fill="#16a34a" fill-opacity="0.08"/>
  <polyline points="232.4,117.1 232.4,116.7 261.2,116.8 434.9,117.0 482.6,117.2 868.4,116.1" fill="none" stroke="#16a34a" stroke-width="2" stroke-linejoin="round"/>
  <line x1="88" y1="102" x2="110" y2="102" stroke="#16a34a" stroke-width="2.5"/><text x="116" y="106" font-size="11.5" fill="#374151">equity</text><line x1="88" y1="118" x2="110" y2="118" stroke="#d97706" stroke-width="2.5" opacity="0.8"/><text x="116" y="122" font-size="11.5" fill="#374151">price</text>
  <text x="78" y="502" text-anchor="start" font-size="12" fill="#6b7280">2026-01-01</text><text x="934" y="502" text-anchor="end" font-size="12" fill="#6b7280">2026-01-31</text>
</svg>
