<?xml version="1.0" encoding="UTF-8"?>
<svg xmlns="http://www.w3.org/2000/svg" width="1100" height="560" viewBox="0 0 1100 560" font-family="ui-sans-serif, system-ui, sans-serif">
  <rect width="1100" height="560" fill="#ffffff"/>
  <text x="80" y="28" font-size="18" font-weight="700" fill="#111827">Zone Recovery — BCHUSDT fee-tier comparison (best setting)</text>
  <text x="80" y="48" font-size="12.5" fill="#6b7280">lev 10 · ratio 4 · gap 20% · maxSteps 6 · maxDD 20% · random  ·  equity per fee tier vip 0..9</text>
  <text x="80" y="68" font-size="12.5" font-weight="600" fill="#1d4ed8">USDT margin · BNB −10%</text>
  <line x1="80" y1="508.0" x2="932" y2="508.0" stroke="#e5e7eb" stroke-width="1"/><text x="70" y="512.0" text-anchor="end" font-size="12" fill="#6b7280">0.00</text><line x1="80" y1="424.0" x2="932" y2="424.0" stroke="#e5e7eb" stroke-width="1"/><text x="70" y="428.0" text-anchor="end" font-size="12" fill="#6b7280">21874261</text><line x1="80" y1="340.0" x2="932" y2="340.0" stroke="#e5e7eb" stroke-width="1"/><text x="70" y="344.0" text-anchor="end" font-size="12" fill="#6b7280">43748523</text><line x1="80" y1="256.0" x2="932" y2="256.0" stroke="#e5e7eb" stroke-width="1"/><text x="70" y="260.0" text-anchor="end" font-size="12" fill="#6b7280">65622784</text><line x1="80" y1="172.0" x2="932" y2="172.0" stroke="#e5e7eb" stroke-width="1"/><text x="70" y="176.0" text-anchor="end" font-size="12" fill="#6b7280">87497046</text><line x1="80" y1="88.0" x2="932" y2="88.0" stroke="#e5e7eb" stroke-width="1"/><text x="70" y="92.0" text-anchor="end" font-size="12" fill="#6b7280">109371307</text>
  <line x1="80" y1="124.0" x2="932" y2="124.0" stroke="#9ca3af" stroke-width="1.5" stroke-dasharray="6 4"/>
  <polyline points="80.0,124.0 80.0,123.4 98.8,123.6 135.4,123.8 160.3,124.0 198.1,124.3 215.5,124.7 349.5,122.9 350.0,122.4 350.0,122.5 350.0,122.7 350.0,122.9 350.0,123.1 350.0,123.4 350.0,123.8 350.1,124.0 350.5,124.1 350.7,123.4 350.8,123.5 350.9,123.7 350.9,123.9 350.9,124.2 350.9,122.9 350.9,122.3 350.9,122.4 351.0,122.6 351.0,122.8 351.2,123.1 385.9,121.8 390.6,121.9 423.9,121.3 587.1,120.8 590.9,120.3 590.9,120.4 591.1,120.5 750.4,119.8 760.4,119.9 858.1,120.1 932.0,119.3" fill="none" stroke="#2563eb" stroke-width="1.8" stroke-linejoin="round" opacity="0.9"/>
  <polyline points="80.0,124.0 80.0,123.4 98.8,123.6 135.4,123.8 160.3,124.0 198.1,124.3 215.5,124.7 349.5,122.9 350.0,122.4 350.0,122.5 350.0,122.7 350.0,122.9 350.0,123.1 350.0,123.4 350.0,123.8 350.1,124.0 350.5,124.1 350.7,123.4 350.8,123.5 350.9,123.7 350.9,123.9 350.9,124.2 350.9,122.9 350.9,122.3 350.9,122.4 351.0,122.6 351.0,122.8 351.2,123.1 385.9,121.8 390.6,121.9 423.9,121.3 587.1,120.8 590.9,120.3 590.9,120.4 591.1,120.5 750.4,119.8 760.4,119.9 858.1,120.1 932.0,119.3" fill="none" stroke="#dc2626" stroke-width="1.8" stroke-linejoin="round" opacity="0.9"/>
  <polyline points="80.0,124.0 80.0,123.4 98.8,123.6 135.4,123.8 160.3,124.0 198.1,124.3 215.5,124.7 349.5,122.9 350.0,122.3 350.0,122.5 350.0,122.6 350.0,122.8 350.0,123.1 350.0,123.4 350.0,123.8 350.1,123.9 350.5,124.1 350.7,123.3 350.8,123.5 350.9,123.6 350.9,123.9 350.9,124.1 350.9,122.8 350.9,122.2 350.9,122.4 351.0,122.5 351.0,122.8 351.2,123.0 385.9,121.7 390.6,121.9 423.9,121.2 587.1,120.7 590.9,120.2 590.9,120.3 591.1,120.5 750.4,119.8 760.4,119.9 858.1,120.0 932.0,119.3" fill="none" stroke="#16a34a" stroke-width="1.8" stroke-linejoin="round" opacity="0.9"/>
  <polyline points="80.0,124.0 80.0,123.4 98.8,123.6 135.4,123.8 160.3,124.0 198.1,124.3 215.5,124.7 349.5,122.9 350.0,122.3 350.0,122.5 350.0,122.6 350.0,122.8 350.0,123.1 350.0,123.4 350.0,123.8 350.1,123.9 350.5,124.1 350.7,123.3 350.8,123.4 350.9,123.6 350.9,123.8 350.9,124.1 350.9,122.8 350.9,122.2 350.9,122.3 351.0,122.5 351.0,122.7 351.2,123.0 385.9,121.7 390.6,121.8 423.9,121.2 587.1,120.7 590.9,120.2 590.9,120.3 591.1,120.4 750.4,119.7 760.4,119.8 858.1,120.0 932.0,119.2" fill="none" stroke="#d97706" stroke-width="1.8" stroke-linejoin="round" opacity="0.9"/>
  <polyline points="80.0,124.0 80.0,123.4 98.8,123.6 135.4,123.8 160.3,124.0 198.1,124.3 215.5,124.7 349.5,122.9 350.0,122.3 350.0,122.4 350.0,122.6 350.0,122.8 350.0,123.1 350.0,123.4 350.0,123.8 350.1,123.9 350.5,124.1 350.7,123.3 350.8,123.4 350.9,123.6 350.9,123.8 350.9,124.1 350.9,122.8 350.9,122.2 350.9,122.3 351.0,122.5 351.0,122.7 351.2,123.0 385.9,121.7 390.6,121.8 423.9,121.2 587.1,120.6 590.9,120.1 590.9,120.3 591.1,120.4 750.4,119.7 760.4,119.8 858.1,120.0 932.0,119.2" fill="none" stroke="#7c3aed" stroke-width="1.8" stroke-linejoin="round" opacity="0.9"/>
  <polyline points="80.0,124.0 80.0,123.4 98.8,123.6 135.4,123.8 160.3,124.0 198.1,124.3 215.5,124.7 349.5,122.9 350.0,122.3 350.0,122.4 350.0,122.6 350.0,122.8 350.0,123.1 350.0,123.4 350.0,123.8 350.1,123.9 350.5,124.1 350.7,123.3 350.8,123.4 350.9,123.6 350.9,123.8 350.9,124.1 350.9,122.8 350.9,122.2 350.9,122.3 351.0,122.5 351.0,122.7 351.2,123.0 385.9,121.7 390.6,121.8 423.9,121.2 587.1,120.6 590.9,120.1 590.9,120.2 591.1,120.4 750.4,119.7 760.4,119.8 858.1,120.0 932.0,119.2" fill="none" stroke="#0891b2" stroke-width="1.8" stroke-linejoin="round" opacity="0.9"/>
  <polyline points="80.0,124.0 80.0,123.4 98.8,123.6 135.4,123.8 160.3,124.0 198.1,124.3 215.5,124.7 349.5,122.9 350.0,122.3 350.0,122.4 350.0,122.6 350.0,122.8 350.0,123.1 350.0,123.4 350.0,123.8 350.1,123.9 350.5,124.1 350.7,123.3 350.8,123.4 350.9,123.6 350.9,123.8 350.9,124.1 350.9,122.7 350.9,122.2 350.9,122.3 351.0,122.5 351.0,122.7 351.2,123.0 385.9,121.6 390.6,121.8 423.9,121.2 587.1,120.6 590.9,120.1 590.9,120.2 591.1,120.4 750.4,119.7 760.4,119.8 858.1,119.9 932.0,119.2" fill="none" stroke="#db2777" stroke-width="1.8" stroke-linejoin="round" opacity="0.9"/>
  <polyline points="80.0,124.0 80.0,123.4 98.8,123.6 135.4,123.8 160.3,124.0 198.1,124.3 215.5,124.7 349.5,122.8 350.0,122.3 350.0,122.4 350.0,122.6 350.0,122.8 350.0,123.0 350.0,123.4 350.0,123.8 350.1,123.9 350.5,124.0 350.7,123.3 350.8,123.4 350.9,123.6 350.9,123.8 350.9,124.1 350.9,122.7 350.9,122.1 350.9,122.3 351.0,122.5 351.0,122.7 351.2,122.9 385.9,121.6 390.6,121.8 423.9,121.1 587.1,120.6 590.9,120.1 590.9,120.2 591.1,120.4 750.4,119.6 760.4,119.8 858.1,119.9 932.0,119.1" fill="none" stroke="#65a30d" stroke-width="1.8" stroke-linejoin="round" opacity="0.9"/>
  <polyline points="80.0,124.0 80.0,123.4 98.8,123.6 135.4,123.8 160.3,124.0 198.1,124.3 215.5,124.7 349.5,122.8 350.0,122.3 350.0,122.4 350.0,122.6 350.0,122.8 350.0,123.0 350.0,123.4 350.0,123.7 350.1,123.9 350.5,124.0 350.7,123.3 350.8,123.4 350.9,123.6 350.9,123.8 350.9,124.0 350.9,122.7 350.9,122.1 350.9,122.3 351.0,122.5 351.0,122.7 351.2,122.9 385.9,121.6 390.6,121.7 423.9,121.1 587.1,120.6 590.9,120.1 590.9,120.2 591.1,120.3 750.4,119.6 760.4,119.8 858.1,119.9 932.0,119.1" fill="none" stroke="#475569" stroke-width="1.8" stroke-linejoin="round" opacity="0.9"/>
  <polyline points="80.0,124.0 80.0,123.4 98.8,123.6 135.4,123.8 160.3,124.0 198.1,124.3 215.5,124.7 349.5,122.8 350.0,122.3 350.0,122.4 350.0,122.6 350.0,122.8 350.0,123.0 350.0,123.3 350.0,123.7 350.1,123.9 350.5,124.0 350.7,123.2 350.8,123.4 350.9,123.6 350.9,123.8 350.9,124.0 350.9,122.7 350.9,122.1 350.9,122.3 351.0,122.4 351.0,122.7 351.2,122.9 385.9,121.6 390.6,121.7 423.9,121.1 587.1,120.6 590.9,120.1 590.9,120.2 591.1,120.3 750.4,119.6 760.4,119.7 858.1,119.9 932.0,119.1" fill="none" stroke="#ea580c" stroke-width="1.8" stroke-linejoin="round" opacity="0.9"/>
  <line x1="950" y1="94" x2="972" y2="94" stroke="#ea580c" stroke-width="3"/><text x="980" y="98" font-size="12.5" fill="#374151">vip 9  101269729</text>
  <line x1="950" y1="116" x2="972" y2="116" stroke="#475569" stroke-width="3"/><text x="980" y="120" font-size="12.5" fill="#374151">vip 8  101264306</text>
  <line x1="950" y1="138" x2="972" y2="138" stroke="#65a30d" stroke-width="3"/><text x="980" y="142" font-size="12.5" fill="#374151">vip 7  101260691</text>
  <line x1="950" y1="160" x2="972" y2="160" stroke="#db2777" stroke-width="3"/><text x="980" y="164" font-size="12.5" fill="#374151">vip 6  101255268</text>
  <line x1="950" y1="182" x2="972" y2="182" stroke="#0891b2" stroke-width="3"/><text x="980" y="186" font-size="12.5" fill="#374151">vip 5  101251653</text>
  <line x1="950" y1="204" x2="972" y2="204" stroke="#7c3aed" stroke-width="3"/><text x="980" y="208" font-size="12.5" fill="#374151">vip 4  101246230</text>
  <line x1="950" y1="226" x2="972" y2="226" stroke="#d97706" stroke-width="3"/><text x="980" y="230" font-size="12.5" fill="#374151">vip 3  101242615</text>
  <line x1="950" y1="248" x2="972" y2="248" stroke="#16a34a" stroke-width="3"/><text x="980" y="252" font-size="12.5" fill="#374151">vip 2  101228155</text>
  <line x1="950" y1="270" x2="972" y2="270" stroke="#2563eb" stroke-width="3"/><text x="980" y="274" font-size="12.5" fill="#374151">vip 0  101210079</text>
  <line x1="950" y1="292" x2="972" y2="292" stroke="#dc2626" stroke-width="3"/><text x="980" y="296" font-size="12.5" fill="#374151">vip 1  101210079</text>
  <text x="80" y="542" text-anchor="start" font-size="12" fill="#6b7280">2025-10-03</text><text x="932" y="542" text-anchor="end" font-size="12" fill="#6b7280">2025-10-26</text>
</svg>
