<svg xmlns="http://www.w3.org/2000/svg" width="1100" height="560" font-family="ui-sans-serif, system-ui, sans-serif" viewBox="0 0 1100 560"><rect width="1100" height="560" fill="#fff"/><text x="80" y="28" fill="#111827" font-size="18" font-weight="700">Zone Recovery — BCHUSDT fee-tier comparison (best setting)</text><text x="80" y="48" fill="#6b7280" font-size="12.5">lev 10 · ratio 4 · gap 20% · maxSteps 6 · maxDD 20% · random · equity per fee tier vip 0..9</text><text x="80" y="68" fill="#1d4ed8" font-size="12.5" font-weight="600">USDT margin · BNB −10%</text><line x1="80" x2="932" y1="508" y2="508" stroke="#e5e7eb" stroke-width="1"/><text x="70" y="512" fill="#6b7280" font-size="12" text-anchor="end">0.00</text><line x1="80" x2="932" y1="424" y2="424" stroke="#e5e7eb" stroke-width="1"/><text x="70" y="428" fill="#6b7280" font-size="12" text-anchor="end">21874261</text><line x1="80" x2="932" y1="340" y2="340" stroke="#e5e7eb" stroke-width="1"/><text x="70" y="344" fill="#6b7280" font-size="12" text-anchor="end">43748523</text><line x1="80" x2="932" y1="256" y2="256" stroke="#e5e7eb" stroke-width="1"/><text x="70" y="260" fill="#6b7280" font-size="12" text-anchor="end">65622784</text><line x1="80" x2="932" y1="172" y2="172" stroke="#e5e7eb" stroke-width="1"/><text x="70" y="176" fill="#6b7280" font-size="12" text-anchor="end">87497046</text><line x1="80" x2="932" y1="88" y2="88" stroke="#e5e7eb" stroke-width="1"/><text x="70" y="92" fill="#6b7280" font-size="12" text-anchor="end">109371307</text><line x1="80" x2="932" y1="124" y2="124" stroke="#9ca3af" stroke-dasharray="6 4" stroke-width="1.5"/><polyline fill="none" stroke="#2563eb" stroke-linejoin="round" stroke-width="1.8" points="80 124 80 123.4 98.8 123.6 135.4 123.8 160.3 124 198.1 124.3 215.5 124.7 349.5 122.9 350 122.4 350 122.5 350 122.7 350 122.9 350 123.1 350 123.4 350 123.8 350.1 124 350.5 124.1 350.7 123.4 350.8 123.5 350.9 123.7 350.9 123.9 350.9 124.2 350.9 122.9 350.9 122.3 350.9 122.4 351 122.6 351 122.8 351.2 123.1 385.9 121.8 390.6 121.9 423.9 121.3 587.1 120.8 590.9 120.3 590.9 120.4 591.1 120.5 750.4 119.8 760.4 119.9 858.1 120.1 932 119.3" opacity=".9"/><polyline fill="none" stroke="#dc2626" stroke-linejoin="round" stroke-width="1.8" points="80 124 80 123.4 98.8 123.6 135.4 123.8 160.3 124 198.1 124.3 215.5 124.7 349.5 122.9 350 122.4 350 122.5 350 122.7 350 122.9 350 123.1 350 123.4 350 123.8 350.1 124 350.5 124.1 350.7 123.4 350.8 123.5 350.9 123.7 350.9 123.9 350.9 124.2 350.9 122.9 350.9 122.3 350.9 122.4 351 122.6 351 122.8 351.2 123.1 385.9 121.8 390.6 121.9 423.9 121.3 587.1 120.8 590.9 120.3 590.9 120.4 591.1 120.5 750.4 119.8 760.4 119.9 858.1 120.1 932 119.3" opacity=".9"/><polyline fill="none" stroke="#16a34a" stroke-linejoin="round" stroke-width="1.8" points="80 124 80 123.4 98.8 123.6 135.4 123.8 160.3 124 198.1 124.3 215.5 124.7 349.5 122.9 350 122.3 350 122.5 350 122.6 350 122.8 350 123.1 350 123.4 350 123.8 350.1 123.9 350.5 124.1 350.7 123.3 350.8 123.5 350.9 123.6 350.9 123.9 350.9 124.1 350.9 122.8 350.9 122.2 350.9 122.4 351 122.5 351 122.8 351.2 123 385.9 121.7 390.6 121.9 423.9 121.2 587.1 120.7 590.9 120.2 590.9 120.3 591.1 120.5 750.4 119.8 760.4 119.9 858.1 120 932 119.3" opacity=".9"/><polyline fill="none" stroke="#d97706" stroke-linejoin="round" stroke-width="1.8" points="80 124 80 123.4 98.8 123.6 135.4 123.8 160.3 124 198.1 124.3 215.5 124.7 349.5 122.9 350 122.3 350 122.5 350 122.6 350 122.8 350 123.1 350 123.4 350 123.8 350.1 123.9 350.5 124.1 350.7 123.3 350.8 123.4 350.9 123.6 350.9 123.8 350.9 124.1 350.9 122.8 350.9 122.2 350.9 122.3 351 122.5 351 122.7 351.2 123 385.9 121.7 390.6 121.8 423.9 121.2 587.1 120.7 590.9 120.2 590.9 120.3 591.1 120.4 750.4 119.7 760.4 119.8 858.1 120 932 119.2" opacity=".9"/><polyline fill="none" stroke="#7c3aed" stroke-linejoin="round" stroke-width="1.8" points="80 124 80 123.4 98.8 123.6 135.4 123.8 160.3 124 198.1 124.3 215.5 124.7 349.5 122.9 350 122.3 350 122.4 350 122.6 350 122.8 350 123.1 350 123.4 350 123.8 350.1 123.9 350.5 124.1 350.7 123.3 350.8 123.4 350.9 123.6 350.9 123.8 350.9 124.1 350.9 122.8 350.9 122.2 350.9 122.3 351 122.5 351 122.7 351.2 123 385.9 121.7 390.6 121.8 423.9 121.2 587.1 120.6 590.9 120.1 590.9 120.3 591.1 120.4 750.4 119.7 760.4 119.8 858.1 120 932 119.2" opacity=".9"/><polyline fill="none" stroke="#0891b2" stroke-linejoin="round" stroke-width="1.8" points="80 124 80 123.4 98.8 123.6 135.4 123.8 160.3 124 198.1 124.3 215.5 124.7 349.5 122.9 350 122.3 350 122.4 350 122.6 350 122.8 350 123.1 350 123.4 350 123.8 350.1 123.9 350.5 124.1 350.7 123.3 350.8 123.4 350.9 123.6 350.9 123.8 350.9 124.1 350.9 122.8 350.9 122.2 350.9 122.3 351 122.5 351 122.7 351.2 123 385.9 121.7 390.6 121.8 423.9 121.2 587.1 120.6 590.9 120.1 590.9 120.2 591.1 120.4 750.4 119.7 760.4 119.8 858.1 120 932 119.2" opacity=".9"/><polyline fill="none" stroke="#db2777" stroke-linejoin="round" stroke-width="1.8" points="80 124 80 123.4 98.8 123.6 135.4 123.8 160.3 124 198.1 124.3 215.5 124.7 349.5 122.9 350 122.3 350 122.4 350 122.6 350 122.8 350 123.1 350 123.4 350 123.8 350.1 123.9 350.5 124.1 350.7 123.3 350.8 123.4 350.9 123.6 350.9 123.8 350.9 124.1 350.9 122.7 350.9 122.2 350.9 122.3 351 122.5 351 122.7 351.2 123 385.9 121.6 390.6 121.8 423.9 121.2 587.1 120.6 590.9 120.1 590.9 120.2 591.1 120.4 750.4 119.7 760.4 119.8 858.1 119.9 932 119.2" opacity=".9"/><polyline fill="none" stroke="#65a30d" stroke-linejoin="round" stroke-width="1.8" points="80 124 80 123.4 98.8 123.6 135.4 123.8 160.3 124 198.1 124.3 215.5 124.7 349.5 122.8 350 122.3 350 122.4 350 122.6 350 122.8 350 123 350 123.4 350 123.8 350.1 123.9 350.5 124 350.7 123.3 350.8 123.4 350.9 123.6 350.9 123.8 350.9 124.1 350.9 122.7 350.9 122.1 350.9 122.3 351 122.5 351 122.7 351.2 122.9 385.9 121.6 390.6 121.8 423.9 121.1 587.1 120.6 590.9 120.1 590.9 120.2 591.1 120.4 750.4 119.6 760.4 119.8 858.1 119.9 932 119.1" opacity=".9"/><polyline fill="none" stroke="#475569" stroke-linejoin="round" stroke-width="1.8" points="80 124 80 123.4 98.8 123.6 135.4 123.8 160.3 124 198.1 124.3 215.5 124.7 349.5 122.8 350 122.3 350 122.4 350 122.6 350 122.8 350 123 350 123.4 350 123.7 350.1 123.9 350.5 124 350.7 123.3 350.8 123.4 350.9 123.6 350.9 123.8 350.9 124 350.9 122.7 350.9 122.1 350.9 122.3 351 122.5 351 122.7 351.2 122.9 385.9 121.6 390.6 121.7 423.9 121.1 587.1 120.6 590.9 120.1 590.9 120.2 591.1 120.3 750.4 119.6 760.4 119.8 858.1 119.9 932 119.1" opacity=".9"/><polyline fill="none" stroke="#ea580c" stroke-linejoin="round" stroke-width="1.8" points="80 124 80 123.4 98.8 123.6 135.4 123.8 160.3 124 198.1 124.3 215.5 124.7 349.5 122.8 350 122.3 350 122.4 350 122.6 350 122.8 350 123 350 123.3 350 123.7 350.1 123.9 350.5 124 350.7 123.2 350.8 123.4 350.9 123.6 350.9 123.8 350.9 124 350.9 122.7 350.9 122.1 350.9 122.3 351 122.4 351 122.7 351.2 122.9 385.9 121.6 390.6 121.7 423.9 121.1 587.1 120.6 590.9 120.1 590.9 120.2 591.1 120.3 750.4 119.6 760.4 119.7 858.1 119.9 932 119.1" opacity=".9"/><line x1="950" x2="972" y1="94" y2="94" stroke="#ea580c" stroke-width="3"/><text x="980" y="98" fill="#374151" font-size="12.5">vip 9 101269729</text><line x1="950" x2="972" y1="116" y2="116" stroke="#475569" stroke-width="3"/><text x="980" y="120" fill="#374151" font-size="12.5">vip 8 101264306</text><line x1="950" x2="972" y1="138" y2="138" stroke="#65a30d" stroke-width="3"/><text x="980" y="142" fill="#374151" font-size="12.5">vip 7 101260691</text><line x1="950" x2="972" y1="160" y2="160" stroke="#db2777" stroke-width="3"/><text x="980" y="164" fill="#374151" font-size="12.5">vip 6 101255268</text><line x1="950" x2="972" y1="182" y2="182" stroke="#0891b2" stroke-width="3"/><text x="980" y="186" fill="#374151" font-size="12.5">vip 5 101251653</text><line x1="950" x2="972" y1="204" y2="204" stroke="#7c3aed" stroke-width="3"/><text x="980" y="208" fill="#374151" font-size="12.5">vip 4 101246230</text><line x1="950" x2="972" y1="226" y2="226" stroke="#d97706" stroke-width="3"/><text x="980" y="230" fill="#374151" font-size="12.5">vip 3 101242615</text><line x1="950" x2="972" y1="248" y2="248" stroke="#16a34a" stroke-width="3"/><text x="980" y="252" fill="#374151" font-size="12.5">vip 2 101228155</text><line x1="950" x2="972" y1="270" y2="270" stroke="#2563eb" stroke-width="3"/><text x="980" y="274" fill="#374151" font-size="12.5">vip 0 101210079</text><line x1="950" x2="972" y1="292" y2="292" stroke="#dc2626" stroke-width="3"/><text x="980" y="296" fill="#374151" font-size="12.5">vip 1 101210079</text><text x="80" y="542" fill="#6b7280" font-size="12" text-anchor="start">2025-10-03</text><text x="932" y="542" fill="#6b7280" font-size="12" text-anchor="end">2025-10-26</text></svg>