<svg xmlns="http://www.w3.org/2000/svg" width="1100" height="560" font-family="ui-sans-serif, system-ui, sans-serif" viewBox="0 0 1100 560"><rect width="1100" height="560" fill="#fff"/><text x="80" y="28" fill="#111827" font-size="18" font-weight="700">Zone Recovery — AVAXUSDT fee-tier comparison (best setting)</text><text x="80" y="48" fill="#6b7280" font-size="12.5">lev 25 · ratio 2 · gap 20% · maxSteps 6 · maxDD 60% · random · equity per fee tier vip 0..9</text><text x="80" y="68" fill="#1d4ed8" font-size="12.5" font-weight="600">USDT margin · BNB −10%</text><line x1="80" x2="932" y1="508" y2="508" stroke="#e5e7eb" stroke-width="1"/><text x="70" y="512" fill="#6b7280" font-size="12" text-anchor="end">0.00</text><line x1="80" x2="932" y1="424" y2="424" stroke="#e5e7eb" stroke-width="1"/><text x="70" y="428" fill="#6b7280" font-size="12" text-anchor="end">25283</text><line x1="80" x2="932" y1="340" y2="340" stroke="#e5e7eb" stroke-width="1"/><text x="70" y="344" fill="#6b7280" font-size="12" text-anchor="end">50567</text><line x1="80" x2="932" y1="256" y2="256" stroke="#e5e7eb" stroke-width="1"/><text x="70" y="260" fill="#6b7280" font-size="12" text-anchor="end">75850</text><line x1="80" x2="932" y1="172" y2="172" stroke="#e5e7eb" stroke-width="1"/><text x="70" y="176" fill="#6b7280" font-size="12" text-anchor="end">101133</text><line x1="80" x2="932" y1="88" y2="88" stroke="#e5e7eb" stroke-width="1"/><text x="70" y="92" fill="#6b7280" font-size="12" text-anchor="end">126417</text><line x1="80" x2="932" y1="474.8" y2="474.8" stroke="#9ca3af" stroke-dasharray="6 4" stroke-width="1.5"/><polyline fill="none" stroke="#2563eb" stroke-linejoin="round" stroke-width="1.8" points="80 474.8 80 473 82.7 471.1 83.2 472.2 83.9 469.2 83.9 470.5 84.7 467.3 85 465.1 86.2 466.5 86.5 468.5 92.7 463.3 96.1 460.8 96.5 462.4 97.2 464.6 106.4 458.8 106.8 456.2 106.8 457.8 107.1 453.6 107.5 450.6 107.7 452.5 107.9 455.2 109 448.2 110.4 444.9 110.6 447 110.9 450 111.5 454.6 112.3 461.4 115.5 444 117.1 446.1 117.9 449.1 122 441.3 122.1 443.4 122.9 446.7 126.2 438.5 129 440.7 132.8 435 132.9 437.4 133 440.9 135.3 431.9 146 434.4 146.3 438.1 153.2 443.6 153.9 451.8 154.3 464.2 170.7 432.7 179.2 435.1 182.5 438.8 184.5 444.2 185.9 452.4 186.4 464.6 194.3 433.4 194.9 429.4 197.7 425.1 200.1 420.6 200.8 423.4 203.6 427.6 204.1 433.9 205.4 417.8 209.9 412.9 211 407.7 212.9 410.8 216.4 402.9 220.4 406.1 227 410.8 228.1 417.8 229.3 428.4 230.5 444.3 246.6 403.8 247.1 407 247.3 411.7 247.7 418.7 249.5 400.7 250.2 403.8 265.6 408.5 266.5 396.7 267.1 391.3 270 386.1 271 380.8 274.7 375.5 275.5 378.7 275.5 383.4 276.6 371.4 279.2 374.5 280.1 379.1 288.1 386.1 288.2 396.5 296.6 370 304.4 364.6 304.6 359.3 304.6 362.4 305.3 367.1 306.5 374.2 307.9 356.2 309.2 359.4 309.6 364.1 318 371.1 322.9 381.7 341.3 397.6 349.2 421.4 366.2 424.2 371.7 428.4 373.7 417.8 379.1 420.7 380.6 413.3 380.7 416.3 385.2 420.9 386.1 427.7 388.5 438 389.1 411.9 391.1 406.6 395.2 409.8 404.5 414.5 414.5 402.5 415.6 405.6 416.9 397.7 417.4 392.4 424.6 387.1 424.6 390.2 424.6 394.8 425.6 401.8 433.2 412.2 442.8 385.7 443.9 388.8 445.5 380.9 445.7 384 446.6 388.6 448.1 376.8 448.5 380 449.2 384.7 456.6 391.7 458.9 373.7 466.2 368.4 468.4 371.5 472.1 363.5 473.1 366.7 476.7 358.7 477.1 361.8 478.1 366.5 478.8 373.6 481.1 384.2 500.9 400.1 501.4 359.6 501.4 362.7 504.3 367.4 505.2 374.5 506.7 385.1 508.1 358.1 514.6 361.3 520.7 366 528.1 354 530.4 357.1 554.3 349.1 565.1 343.8 566.1 346.9 566.4 338.9 566.9 333.7 567.1 328.5 567.2 323.2 567.2 318 567.2 312.7 567.2 315.9 567.2 320.6 567.2 327.6 567.2 309.6 567.2 304.3 567.2 307.4 567.2 312.2 567.2 300.2 567.3 303.3 567.6 307.9 567.6 314.9 567.8 325.3 568 340.9 577 301.2 581.3 304.3 584.5 309 585.3 316.1 589.7 326.7 593.7 342.6 604.9 302.1 610.8 305.2 612.4 309.9 612.9 317 614.9 299 615.3 302.1 615.8 306.7 619.6 313.7 621.5 324.1 621.7 297.5 621.7 300.6 624.6 292.8 630.1 295.9 631.3 300.5 637.5 288.7 639.9 291.8 640.3 283.9 642.7 278.7 642.8 281.8 645.4 286.5 646.1 274.6 646.3 277.6 648.7 269.8 651 264.5 665.5 267.7 668.7 259.7 669.5 262.8 669.7 267.5 684.4 255.5 688.2 250.3 698 253.4 700 245.5 702.1 240.3 703.6 235 704.2 238.1 725.9 242.8 745.8 231 747.9 225.6 749.7 228.8 754.4 220.8 754.6 223.9 757.6 215.9 758.4 219.1 763 223.8 765 211.8 766 214.9 766.2 219.5 773.6 226.5 774.5 236.9 779.6 252.6 780.7 276 780.8 279.1 784.3 283.8 784.9 290.7 788.1 301.2 789.2 316.8 807.5 340.3 810.7 335 811.4 338.1 811.9 342.7 812.1 330.9 814 325.6 815.7 320.2 831.9 314.9 837.7 309.7 840.9 312.8 841 317.4 843.7 324.3 844.5 334.8 846.6 350.4 848.6 373.9 849.7 377.1 852.9 369.1 862.5 372.2 865.3 364.2 865.4 367.3 865.5 359.3 865.7 354.1 867.9 357.2 869.4 361.8 870.1 350 870.6 353.1 873.6 345.2 878 348.4 878.1 340.4 878.2 343.5 878.9 348.1 879.2 355.1 883.7 365.5 884.5 381.2 894.3 404.6 895.4 399.3 896.1 402.4 896.4 407.2 897.4 414.2 897.6 396.2 897.8 399.3 898.1 391.5 899.9 394.6 911.8 386.6 913.9 381.3 914.3 384.5 914.6 389.2 920.7 396.3 921 378.3 921.1 381.4 921.2 373.4 921.9 368.1 923.3 371.2 923.4 375.8 924 364 924.2 367.1 924.2 371.7 924.3 359.9 924.3 354.7 924.3 357.8 924.3 362.5 924.3 369.6 924.3 380.2 924.3 396.1 924.3 419.9 924.3 422.7 924.8 427 924.8 433.4 925 442.9 925.2 457.2 925.7 478.7 926 479.7 926.1 477.3 926.1 475.6 926.1 476.6 926.1 478.2 926.1 474.2 926.1 472.4 926.2 470.5 926.4 471.7 927.3 473.5 927.3 476.2 928.2 480.3 928.4 486.4 931.5 470.8 931.6 468.8 932 470.1" opacity=".9"/><polyline fill="none" stroke="#dc2626" stroke-linejoin="round" stroke-width="1.8" points="80 474.8 80 473 82.7 471.1 83.2 472.2 83.9 469.2 83.9 470.5 84.7 467.3 85 465.1 86.2 466.5 86.5 468.5 92.7 463.3 96.1 460.8 96.5 462.4 97.2 464.6 106.4 458.8 106.8 456.2 106.8 457.8 107.1 453.6 107.5 450.6 107.7 452.5 107.9 455.2 109 448.2 110.4 444.9 110.6 447 110.9 450 111.5 454.6 112.3 461.4 115.5 444 117.1 446.1 117.9 449.1 122 441.3 122.1 443.4 122.9 446.7 126.2 438.5 129 440.7 132.8 435 132.9 437.4 133 440.9 135.3 431.9 146 434.4 146.3 438.1 153.2 443.6 153.9 451.8 154.3 464.2 170.7 432.7 179.2 435.1 182.5 438.8 184.5 444.2 185.9 452.4 186.4 464.6 194.3 433.4 194.9 429.4 197.7 425.1 200.1 420.6 200.8 423.4 203.6 427.6 204.1 433.9 205.4 417.8 209.9 412.9 211 407.7 212.9 410.8 216.4 402.9 220.4 406.1 227 410.8 228.1 417.8 229.3 428.4 230.5 444.3 246.6 403.8 247.1 407 247.3 411.7 247.7 418.7 249.5 400.7 250.2 403.8 265.6 408.5 266.5 396.7 267.1 391.3 270 386.1 271 380.8 274.7 375.5 275.5 378.7 275.5 383.4 276.6 371.4 279.2 374.5 280.1 379.1 288.1 386.1 288.2 396.5 296.6 370 304.4 364.6 304.6 359.3 304.6 362.4 305.3 367.1 306.5 374.2 307.9 356.2 309.2 359.4 309.6 364.1 318 371.1 322.9 381.7 341.3 397.6 349.2 421.4 366.2 424.2 371.7 428.4 373.7 417.8 379.1 420.7 380.6 413.3 380.7 416.3 385.2 420.9 386.1 427.7 388.5 438 389.1 411.9 391.1 406.6 395.2 409.8 404.5 414.5 414.5 402.5 415.6 405.6 416.9 397.7 417.4 392.4 424.6 387.1 424.6 390.2 424.6 394.8 425.6 401.8 433.2 412.2 442.8 385.7 443.9 388.8 445.5 380.9 445.7 384 446.6 388.6 448.1 376.8 448.5 380 449.2 384.7 456.6 391.7 458.9 373.7 466.2 368.4 468.4 371.5 472.1 363.5 473.1 366.7 476.7 358.7 477.1 361.8 478.1 366.5 478.8 373.6 481.1 384.2 500.9 400.1 501.4 359.6 501.4 362.7 504.3 367.4 505.2 374.5 506.7 385.1 508.1 358.1 514.6 361.3 520.7 366 528.1 354 530.4 357.1 554.3 349.1 565.1 343.8 566.1 346.9 566.4 338.9 566.9 333.7 567.1 328.5 567.2 323.2 567.2 318 567.2 312.7 567.2 315.9 567.2 320.6 567.2 327.6 567.2 309.6 567.2 304.3 567.2 307.4 567.2 312.2 567.2 300.2 567.3 303.3 567.6 307.9 567.6 314.9 567.8 325.3 568 340.9 577 301.2 581.3 304.3 584.5 309 585.3 316.1 589.7 326.7 593.7 342.6 604.9 302.1 610.8 305.2 612.4 309.9 612.9 317 614.9 299 615.3 302.1 615.8 306.7 619.6 313.7 621.5 324.1 621.7 297.5 621.7 300.6 624.6 292.8 630.1 295.9 631.3 300.5 637.5 288.7 639.9 291.8 640.3 283.9 642.7 278.7 642.8 281.8 645.4 286.5 646.1 274.6 646.3 277.6 648.7 269.8 651 264.5 665.5 267.7 668.7 259.7 669.5 262.8 669.7 267.5 684.4 255.5 688.2 250.3 698 253.4 700 245.5 702.1 240.3 703.6 235 704.2 238.1 725.9 242.8 745.8 231 747.9 225.6 749.7 228.8 754.4 220.8 754.6 223.9 757.6 215.9 758.4 219.1 763 223.8 765 211.8 766 214.9 766.2 219.5 773.6 226.5 774.5 236.9 779.6 252.6 780.7 276 780.8 279.1 784.3 283.8 784.9 290.7 788.1 301.2 789.2 316.8 807.5 340.3 810.7 335 811.4 338.1 811.9 342.7 812.1 330.9 814 325.6 815.7 320.2 831.9 314.9 837.7 309.7 840.9 312.8 841 317.4 843.7 324.3 844.5 334.8 846.6 350.4 848.6 373.9 849.7 377.1 852.9 369.1 862.5 372.2 865.3 364.2 865.4 367.3 865.5 359.3 865.7 354.1 867.9 357.2 869.4 361.8 870.1 350 870.6 353.1 873.6 345.2 878 348.4 878.1 340.4 878.2 343.5 878.9 348.1 879.2 355.1 883.7 365.5 884.5 381.2 894.3 404.6 895.4 399.3 896.1 402.4 896.4 407.2 897.4 414.2 897.6 396.2 897.8 399.3 898.1 391.5 899.9 394.6 911.8 386.6 913.9 381.3 914.3 384.5 914.6 389.2 920.7 396.3 921 378.3 921.1 381.4 921.2 373.4 921.9 368.1 923.3 371.2 923.4 375.8 924 364 924.2 367.1 924.2 371.7 924.3 359.9 924.3 354.7 924.3 357.8 924.3 362.5 924.3 369.6 924.3 380.2 924.3 396.1 924.3 419.9 924.3 422.7 924.8 427 924.8 433.4 925 442.9 925.2 457.2 925.7 478.7 926 479.7 926.1 477.3 926.1 475.6 926.1 476.6 926.1 478.2 926.1 474.2 926.1 472.4 926.2 470.5 926.4 471.7 927.3 473.5 927.3 476.2 928.2 480.3 928.4 486.4 931.5 470.8 931.6 468.8 932 470.1" opacity=".9"/><polyline fill="none" stroke="#16a34a" stroke-linejoin="round" stroke-width="1.8" points="80 474.8 80 472.9 82.7 471 83.2 472.2 83.9 469.1 83.9 470.3 84.7 467.1 85 464.9 86.2 466.2 86.5 468.3 92.7 462.9 96.1 460.4 96.5 461.9 97.2 464.2 106.4 458.3 106.8 455.5 106.8 457.2 107.1 452.8 107.5 449.8 107.7 451.6 107.9 454.4 109 447.2 110.4 443.8 110.6 445.8 110.9 448.9 111.5 453.4 112.3 460.2 115.5 442.3 117.1 444.4 117.9 447.5 122 439.3 122.1 441.5 122.9 444.7 126.2 436.2 129 438.5 132.8 432.5 132.9 434.9 133 438.5 135.3 429.1 146 431.6 146.3 435.3 153.2 440.9 153.9 449.3 154.3 461.9 170.7 428.8 179.2 431.3 182.5 435.1 184.5 440.7 185.9 449.1 186.4 461.7 194.3 428.5 194.9 424.1 197.7 419.5 200.1 414.6 200.8 417.6 203.6 422 204.1 428.6 205.4 411.2 209.9 405.8 211 400.5 212.9 403.6 216.4 395.6 220.4 398.7 227 403.3 228.1 410.2 229.3 420.6 230.5 436.2 246.6 395.2 247.1 398.3 247.3 402.9 247.7 409.8 249.5 391.6 250.2 394.6 265.6 399.2 266.5 387.2 267.1 381.8 270 376.5 271 371.1 274.7 365.8 275.5 368.9 275.5 373.5 276.6 361.4 279.2 364.4 280.1 369 288.1 375.8 288.2 386 296.6 359.1 304.4 353.8 304.6 348.4 304.6 351.4 305.3 356.1 306.5 363 307.9 344.8 309.2 347.8 309.6 352.5 318 359.4 322.9 369.8 341.3 385.3 349.2 408.7 366.2 411.8 371.7 416.4 373.7 404.2 379.1 407.3 380.6 399.2 380.7 402.3 385.2 406.9 386.1 413.8 388.5 424.2 389.1 396.9 391.1 391.6 395.2 394.7 404.5 399.3 414.5 387.2 415.6 390.2 416.9 382.3 417.4 376.9 424.6 371.5 424.6 374.5 424.6 379.1 425.6 385.9 433.2 396.1 442.8 369.2 443.9 372.3 445.5 364.3 445.7 367.3 446.6 371.9 448.1 359.9 448.5 363 449.2 367.6 456.6 374.5 458.9 356.3 466.2 350.9 468.4 354 472.1 345.9 473.1 349 476.7 340.9 477.1 344 478.1 348.6 478.8 355.5 481.1 365.9 500.9 381.5 501.4 340.5 501.4 343.6 504.3 348.2 505.2 355.1 506.7 365.5 508.1 338.2 514.6 341.3 520.7 345.9 528.1 333.8 530.4 336.8 554.3 328.8 565.1 323.4 566.1 326.4 566.4 318.3 566.9 313 567.1 307.7 567.2 302.4 567.2 297.1 567.2 291.8 567.2 294.9 567.2 299.5 567.2 306.4 567.2 288.2 567.2 282.8 567.2 285.9 567.2 290.5 567.2 278.4 567.3 281.4 567.6 286 567.6 292.8 567.8 303 568 318.3 577 278.1 581.3 281.1 584.5 285.8 585.3 292.7 589.7 303.1 593.7 318.6 604.9 277.7 610.8 280.7 612.4 285.3 612.9 292.3 614.9 274.1 615.3 277.1 615.8 281.6 619.6 288.4 621.5 298.7 621.7 271.8 621.7 274.8 624.6 266.9 630.1 269.9 631.3 274.4 637.5 262.5 639.9 265.5 640.3 257.6 642.7 252.3 642.8 255.3 645.4 260 646.1 247.8 646.3 250.9 648.7 242.9 651 237.6 665.5 240.7 668.7 232.6 669.5 235.7 669.7 240.3 684.4 228.1 688.2 222.8 698 225.9 700 217.9 702.1 212.6 703.6 207.3 704.2 210.3 725.9 214.9 745.8 202.9 747.9 197.5 749.7 200.6 754.4 192.5 754.6 195.6 757.6 187.5 758.4 190.6 763 195.2 765 183.1 766 186.1 766.2 190.6 773.6 197.5 774.5 207.7 779.6 223 780.7 246 780.8 249 784.3 253.6 784.9 260.4 788.1 270.6 789.2 286 807.5 309 810.7 303.6 811.4 306.6 811.9 311.1 812.1 299.2 814 293.8 815.7 288.4 831.9 283 837.7 277.7 840.9 280.7 841 285.3 843.7 292.1 844.5 302.3 846.6 317.7 848.6 340.7 849.7 343.7 852.9 335.6 862.5 338.7 865.3 330.6 865.4 333.7 865.5 325.6 865.7 320.3 867.9 323.3 869.4 327.9 870.1 315.9 870.6 319 873.6 311 878 314.1 878.1 306 878.2 309 878.9 313.6 879.2 320.4 883.7 330.6 884.5 345.9 894.3 368.9 895.4 363.5 896.1 366.6 896.4 371.2 897.4 378.2 897.6 359.9 897.8 363 898.1 355 899.9 358.1 911.8 350 913.9 344.7 914.3 347.8 914.6 352.4 920.7 359.3 921 341.1 921.1 344.2 921.2 336.1 921.9 330.7 923.3 333.7 923.4 338.3 924 326.3 924.2 329.4 924.2 333.9 924.3 322 924.3 316.6 924.3 319.7 924.3 324.3 924.3 331.3 924.3 341.6 924.3 357.2 924.3 380.6 924.3 383.6 924.8 388.1 924.8 394.9 925 405.2 925.2 420.5 925.7 443.5 926 445.5 926.1 440.2 926.1 436.5 926.1 438.7 926.1 442.1 926.1 433.2 926.1 429.1 926.2 424.7 926.4 427.4 927.3 431.3 927.3 437.2 928.2 446 928.4 459.3 931.5 424.5 931.6 419.9 932 422.6" opacity=".9"/><polyline fill="none" stroke="#d97706" stroke-linejoin="round" stroke-width="1.8" points="80 474.8 80 472.9 82.7 471 83.2 472.1 83.9 469 83.9 470.2 84.7 467 85 464.7 86.2 466 86.5 468.1 92.7 462.6 96.1 460.1 96.5 461.6 97.2 463.8 106.4 457.8 106.8 455 106.8 456.7 107.1 452.2 107.5 449.1 107.7 451 107.9 453.7 109 446.3 110.4 442.9 110.6 444.9 110.9 447.9 111.5 452.5 112.3 459.3 115.5 440.9 117.1 443 117.9 446.1 122 437.7 122.1 439.9 122.9 443.1 126.2 434.3 129 436.6 132.8 430.5 132.9 432.9 133 436.5 135.3 426.8 146 429.3 146.3 433 153.2 438.7 153.9 447.2 154.3 459.9 170.7 425.6 179.2 428.2 182.5 432 184.5 437.7 185.9 446.3 186.4 459.2 194.3 424.4 194.9 419.7 197.7 414.8 200.1 409.6 200.8 412.6 203.6 417.2 204.1 424 205.4 405.6 209.9 400.2 211 394.8 212.9 397.8 216.4 389.8 220.4 392.8 227 397.3 228.1 404.1 229.3 414.3 230.5 429.7 246.6 388.3 247.1 391.3 247.3 395.9 247.7 402.7 249.5 384.3 250.2 387.3 265.6 391.7 266.5 379.7 267.1 374.2 270 368.9 271 363.5 274.7 358.1 275.5 361.1 275.5 365.7 276.6 353.4 279.2 356.4 280.1 360.9 288.1 367.6 288.2 377.6 296.6 350.5 304.4 345.1 304.6 339.6 304.6 342.6 305.3 347.2 306.5 354 307.9 335.6 309.2 338.6 309.6 343.2 318 350 322.9 360.2 341.3 375.5 349.2 398.5 366.2 401.5 371.7 406 373.7 393.8 379.1 396.8 380.6 388.6 380.7 391.7 385.2 396.2 386.1 403 388.5 413.2 389.1 385.7 391.1 380.3 395.2 383.4 404.5 387.9 414.5 375.7 415.6 378.6 416.9 370.6 417.4 365.2 424.6 359.7 424.6 362.7 424.6 367.2 425.6 373.9 433.2 383.9 442.8 356.8 443.9 359.8 445.5 351.7 445.7 354.7 446.6 359.2 448.1 347.1 448.5 350.2 449.2 354.7 456.6 361.5 458.9 343.1 466.2 337.7 468.4 340.7 472.1 332.6 473.1 335.6 476.7 327.4 477.1 330.4 478.1 335 478.8 341.8 481.1 352 500.9 367.3 501.4 325.9 501.4 329 504.3 333.5 505.2 340.3 506.7 350.5 508.1 323 514.6 326 520.7 330.5 528.1 318.3 530.4 321.3 554.3 313.2 565.1 307.7 566.1 310.7 566.4 302.6 566.9 297.2 567.1 291.9 567.2 286.5 567.2 281.2 567.2 275.8 567.2 278.8 567.2 283.4 567.2 290.2 567.2 271.8 567.2 266.3 567.2 269.4 567.2 273.9 567.2 261.7 567.3 264.6 567.6 269.1 567.6 275.8 567.8 285.9 568 300.9 577 260.3 581.3 263.3 584.5 267.9 585.3 274.7 589.7 284.9 593.7 300.2 604.9 258.8 610.8 261.9 612.4 266.4 612.9 273.2 614.9 254.8 615.3 257.8 615.8 262.3 619.6 269 621.5 279 621.7 251.9 621.7 254.9 624.6 246.9 630.1 249.8 631.3 254.3 637.5 242.3 639.9 245.2 640.3 237.2 642.7 231.9 642.8 234.9 645.4 239.4 646.1 227.2 646.3 230.2 648.7 222.1 651 216.8 665.5 219.8 668.7 211.6 669.5 214.6 669.7 219.2 684.4 206.9 688.2 201.6 698 204.6 700 196.5 702.1 191.2 703.6 185.8 704.2 188.8 725.9 193.3 745.8 181.2 747.9 175.8 749.7 178.8 754.4 170.6 754.6 173.7 757.6 165.5 758.4 168.5 763 173.1 765 160.8 766 163.8 766.2 168.3 773.6 175 774.5 185 779.6 200.1 780.7 222.7 780.8 225.7 784.3 230.2 784.9 236.9 788.1 246.9 789.2 262 807.5 284.6 810.7 279.2 811.4 282.2 811.9 286.6 812.1 274.6 814 269.1 815.7 263.7 831.9 258.2 837.7 252.9 840.9 255.9 841 260.3 843.7 267 844.5 277.1 846.6 292.2 848.6 314.8 849.7 317.8 852.9 309.6 862.5 312.7 865.3 304.5 865.4 307.5 865.5 299.4 865.7 294 867.9 297 869.4 301.4 870.1 289.4 870.6 292.4 873.6 284.3 878 287.4 878.1 279.2 878.2 282.2 878.9 286.6 879.2 293.3 883.7 303.4 884.5 318.5 894.3 341.1 895.4 335.7 896.1 338.7 896.4 343.2 897.4 350 897.6 331.7 897.8 334.6 898.1 326.6 899.9 329.6 911.8 321.5 913.9 316.1 914.3 319.1 914.6 323.7 920.7 330.5 921 312.1 921.1 315.1 921.2 306.9 921.9 301.5 923.3 304.5 923.4 309 924 296.9 924.2 299.9 924.2 304.3 924.3 292.3 924.3 286.9 924.3 290 924.3 294.5 924.3 301.3 924.3 311.5 924.3 326.8 924.3 349.8 924.3 352.8 924.8 357.2 924.8 363.9 925 374 925.2 389.1 925.7 411.7 926 414.7 926.1 406.6 926.1 401.3 926.1 404.3 926.1 408.8 926.1 396.6 926.1 391.2 926.2 385.7 926.4 388.7 927.3 393.2 927.3 399.9 928.2 409.9 928.4 425 931.5 384.4 931.6 378.9 932 381.9" opacity=".9"/><polyline fill="none" stroke="#7c3aed" stroke-linejoin="round" stroke-width="1.8" points="80 474.8 80 472.9 82.7 471 83.2 472.1 83.9 469 83.9 470.2 84.7 467 85 464.7 86.2 466 86.5 468 92.7 462.6 96.1 460 96.5 461.5 97.2 463.7 106.4 457.7 106.8 454.9 106.8 456.5 107.1 452.1 107.5 449 107.7 450.8 107.9 453.5 109 446.1 110.4 442.7 110.6 444.7 110.9 447.7 111.5 452.2 112.3 459 115.5 440.6 117.1 442.6 117.9 445.8 122 437.3 122.1 439.5 122.9 442.7 126.2 433.9 129 436.1 132.8 429.9 132.9 432.3 133 436 135.3 426.2 146 428.7 146.3 432.5 153.2 438.1 153.9 446.7 154.3 459.4 170.7 424.8 179.2 427.3 182.5 431.2 184.5 437 185.9 445.6 186.4 458.6 194.3 423.3 194.9 418.6 197.7 413.6 200.1 408.3 200.8 411.3 203.6 415.9 204.1 422.6 205.4 404.2 209.9 398.8 211 393.4 212.9 396.4 216.4 388.3 220.4 391.3 227 395.8 228.1 402.6 229.3 412.8 230.5 428 246.6 386.6 247.1 389.6 247.3 394.1 247.7 400.9 249.5 382.5 250.2 385.5 265.6 389.9 266.5 377.8 267.1 372.4 270 367 271 361.5 274.7 356.2 275.5 359.2 275.5 363.7 276.6 351.4 279.2 354.4 280.1 358.9 288.1 365.5 288.2 375.5 296.6 348.4 304.4 342.9 304.6 337.4 304.6 340.5 305.3 345 306.5 351.8 307.9 333.3 309.2 336.3 309.6 340.9 318 347.6 322.9 357.8 341.3 373.1 349.2 395.9 366.2 398.9 371.7 403.5 373.7 391.2 379.1 394.2 380.6 386 380.7 389 385.2 393.6 386.1 400.3 388.5 410.5 389.1 382.9 391.1 377.5 395.2 380.5 404.5 385.1 414.5 372.8 415.6 375.7 416.9 367.7 417.4 362.2 424.6 356.8 424.6 359.8 424.6 364.2 425.6 370.9 433.2 380.9 442.8 353.7 443.9 356.7 445.5 348.6 445.7 351.6 446.6 356 448.1 344 448.5 347 449.2 351.5 456.6 358.3 458.9 339.9 466.2 334.4 468.4 337.4 472.1 329.2 473.1 332.2 476.7 324 477.1 327.1 478.1 331.6 478.8 338.4 481.1 348.5 500.9 363.8 501.4 322.3 501.4 325.3 504.3 329.9 505.2 336.6 506.7 346.8 508.1 319.2 514.6 322.2 520.7 326.7 528.1 314.5 530.4 317.5 554.3 309.3 565.1 303.8 566.1 306.8 566.4 298.7 566.9 293.3 567.1 287.9 567.2 282.5 567.2 277.2 567.2 271.8 567.2 274.8 567.2 279.3 567.2 286.1 567.2 267.7 567.2 262.2 567.2 265.3 567.2 269.8 567.2 257.5 567.3 260.5 567.6 264.9 567.6 271.6 567.8 281.6 568 296.6 577 255.9 581.3 258.9 584.5 263.4 585.3 270.2 589.7 280.4 593.7 295.6 604.9 254.2 610.8 257.2 612.4 261.7 612.9 268.5 614.9 250 615.3 253 615.8 257.5 619.6 264.1 621.5 274.1 621.7 247 621.7 249.9 624.6 241.9 630.1 244.8 631.3 249.3 637.5 237.2 639.9 240.2 640.3 232.1 642.7 226.8 642.8 229.8 645.4 234.3 646.1 222 646.3 225 648.7 216.9 651 211.6 665.5 214.6 668.7 206.4 669.5 209.4 669.7 213.9 684.4 201.7 688.2 196.3 698 199.3 700 191.2 702.1 185.8 703.6 180.5 704.2 183.4 725.9 187.9 745.8 175.8 747.9 170.4 749.7 173.4 754.4 165.2 754.6 168.2 757.6 160 758.4 163 763 167.5 765 155.3 766 158.2 766.2 162.7 773.6 169.4 774.5 179.4 779.6 194.4 780.7 216.9 780.8 219.9 784.3 224.3 784.9 231 788.1 241 789.2 256 807.5 278.5 810.7 273.1 811.4 276.1 811.9 280.5 812.1 268.4 814 263 815.7 257.5 831.9 252.1 837.7 246.7 840.9 249.7 841 254.1 843.7 260.8 844.5 270.8 846.6 285.8 848.6 308.3 849.7 311.3 852.9 303.2 862.5 306.2 865.3 298 865.4 301 865.5 292.8 865.7 287.4 867.9 290.4 869.4 294.9 870.1 282.8 870.6 285.7 873.6 277.7 878 280.7 878.1 272.5 878.2 275.5 878.9 279.9 879.2 286.6 883.7 296.6 884.5 311.6 894.3 334.2 895.4 328.7 896.1 331.7 896.4 336.2 897.4 343 897.6 324.6 897.8 327.6 898.1 319.5 899.9 322.5 911.8 314.3 913.9 309 914.3 312 914.6 316.5 920.7 323.3 921 304.9 921.1 307.9 921.2 299.7 921.9 294.2 923.3 297.2 923.4 301.6 924 289.6 924.2 292.5 924.2 297 924.3 284.9 924.3 279.5 924.3 282.5 924.3 287.1 924.3 293.8 924.3 304 924.3 319.3 924.3 342.1 924.3 345.1 924.8 349.5 924.8 356.2 925 366.2 925.2 381.2 925.7 403.8 926 406.8 926.1 398.6 926.1 393.2 926.1 396.2 926.1 400.8 926.1 388.5 926.1 383 926.2 377.6 926.4 380.5 927.3 385 927.3 391.7 928.2 401.7 928.4 416.7 931.5 376 931.6 370.5 932 373.5" opacity=".9"/><polyline fill="none" stroke="#0891b2" stroke-linejoin="round" stroke-width="1.8" points="80 474.8 80 472.9 82.7 471 83.2 472.1 83.9 469 83.9 470.2 84.7 466.9 85 464.6 86.2 465.9 86.5 467.9 92.7 462.5 96.1 459.9 96.5 461.4 97.2 463.6 106.4 457.5 106.8 454.7 106.8 456.3 107.1 451.9 107.5 448.7 107.7 450.5 107.9 453.3 109 445.8 110.4 442.3 110.6 444.3 110.9 447.3 111.5 451.9 112.3 458.6 115.5 440 117.1 442.1 117.9 445.2 122 436.7 122.1 438.9 122.9 442.1 126.2 433.1 129 435.4 132.8 429.2 132.9 431.6 133 435.2 135.3 425.3 146 427.8 146.3 431.6 153.2 437.3 153.9 445.9 154.3 458.7 170.7 423.5 179.2 426.1 182.5 430 184.5 435.8 185.9 444.5 186.4 457.6 194.3 421.7 194.9 416.9 197.7 411.8 200.1 406.4 200.8 409.4 203.6 413.9 204.1 420.6 205.4 402.1 209.9 396.6 211 391.2 212.9 394.2 216.4 386.1 220.4 389.1 227 393.6 228.1 400.3 229.3 410.4 230.5 425.6 246.6 384 247.1 387 247.3 391.5 247.7 398.2 249.5 379.7 250.2 382.7 265.6 387.1 266.5 375 267.1 369.5 270 364.1 271 358.7 274.7 353.3 275.5 356.3 275.5 360.8 276.6 348.4 279.2 351.4 280.1 355.8 288.1 362.4 288.2 372.4 296.6 345.1 304.4 339.6 304.6 334.2 304.6 337.2 305.3 341.6 306.5 348.4 307.9 329.9 309.2 332.9 309.6 337.4 318 344.1 322.9 354.2 341.3 369.4 349.2 392.1 366.2 395.1 371.7 399.6 373.7 387.3 379.1 390.3 380.6 382.1 380.7 385 385.2 389.5 386.1 396.3 388.5 406.4 389.1 378.7 391.1 373.3 395.2 376.3 404.5 380.8 414.5 368.5 415.6 371.4 416.9 363.3 417.4 357.9 424.6 352.4 424.6 355.3 424.6 359.7 425.6 366.4 433.2 376.3 442.8 349 443.9 352 445.5 343.9 445.7 346.9 446.6 351.3 448.1 339.2 448.5 342.2 449.2 346.6 456.6 353.4 458.9 334.9 466.2 329.4 468.4 332.4 472.1 324.2 473.1 327.2 476.7 319 477.1 322 478.1 326.5 478.8 333.2 481.1 343.3 500.9 358.5 501.4 316.9 501.4 319.9 504.3 324.4 505.2 331.1 506.7 341.2 508.1 313.5 514.6 316.5 520.7 321 528.1 308.7 530.4 311.7 554.3 303.4 565.1 298 566.1 301 566.4 292.7 566.9 287.4 567.1 282 567.2 276.6 567.2 271.2 567.2 265.8 567.2 268.8 567.2 273.3 567.2 280 567.2 261.5 567.2 256.1 567.2 259.1 567.2 263.5 567.2 251.2 567.3 254.2 567.6 258.6 567.6 265.2 567.8 275.2 568 290.1 577 249.2 581.3 252.2 584.5 256.7 585.3 263.4 589.7 273.5 593.7 288.7 604.9 247.1 610.8 250.1 612.4 254.6 612.9 261.3 614.9 242.8 615.3 245.8 615.8 250.2 619.6 256.8 621.5 266.8 621.7 239.5 621.7 242.5 624.6 234.4 630.1 237.3 631.3 241.7 637.5 229.6 639.9 232.6 640.3 224.5 642.7 219.1 642.8 222.1 645.4 226.6 646.1 214.3 646.3 217.2 648.7 209.1 651 203.8 665.5 206.8 668.7 198.5 669.5 201.5 669.7 206 684.4 193.7 688.2 188.3 698 191.3 700 183.2 702.1 177.8 703.6 172.4 704.2 175.4 725.9 179.8 745.8 167.7 747.9 162.2 749.7 165.2 754.4 157 754.6 160 757.6 151.7 758.4 154.7 763 159.2 765 146.9 766 149.9 766.2 154.3 773.6 160.9 774.5 170.9 779.6 185.8 780.7 208.2 780.8 211.1 784.3 215.5 784.9 222.2 788.1 232.1 789.2 247 807.5 269.4 810.7 263.9 811.4 266.9 811.9 271.3 812.1 259.2 814 253.7 815.7 248.2 831.9 242.8 837.7 237.4 840.9 240.3 841 244.7 843.7 251.4 844.5 261.3 846.6 276.2 848.6 298.6 849.7 301.6 852.9 293.4 862.5 296.4 865.3 288.2 865.4 291.2 865.5 283 865.7 277.6 867.9 280.5 869.4 284.9 870.1 272.8 870.6 275.8 873.6 267.7 878 270.7 878.1 262.5 878.2 265.4 878.9 269.8 879.2 276.5 883.7 286.4 884.5 301.3 894.3 323.7 895.4 318.2 896.1 321.2 896.4 325.7 897.4 332.5 897.6 314 897.8 316.9 898.1 308.8 899.9 311.8 911.8 303.6 913.9 298.2 914.3 301.2 914.6 305.7 920.7 312.5 921 294 921.1 297 921.2 288.8 921.9 283.3 923.3 286.2 923.4 290.6 924 278.5 924.2 281.5 924.2 285.9 924.3 273.8 924.3 268.4 924.3 271.4 924.3 275.9 924.3 282.6 924.3 292.7 924.3 307.9 924.3 330.6 924.3 333.5 924.8 338 924.8 344.6 925 354.5 925.2 369.5 925.7 391.8 926 394.8 926.1 386.6 926.1 381.2 926.1 384.2 926.1 388.7 926.1 376.4 926.1 370.9 926.2 365.5 926.4 368.4 927.3 372.8 927.3 379.5 928.2 389.4 928.4 404.3 931.5 363.4 931.6 358 932 361" opacity=".9"/><polyline fill="none" stroke="#db2777" stroke-linejoin="round" stroke-width="1.8" points="80 474.8 80 472.9 82.7 470.9 83.2 472.1 83.9 469 83.9 470.1 84.7 466.9 85 464.6 86.2 465.9 86.5 467.9 92.7 462.4 96.1 459.8 96.5 461.3 97.2 463.5 106.4 457.4 106.8 454.6 106.8 456.2 107.1 451.7 107.5 448.5 107.7 450.4 107.9 453.1 109 445.6 110.4 442.1 110.6 444.1 110.9 447.1 111.5 451.6 112.3 458.4 115.5 439.7 117.1 441.8 117.9 444.9 122 436.3 122.1 438.4 122.9 441.7 126.2 432.7 129 435 132.8 428.6 132.9 431 133 434.7 135.3 424.7 146 427.2 146.3 431 153.2 436.7 153.9 445.3 154.3 458.2 170.7 422.7 179.2 425.3 182.5 429.2 184.5 435 185.9 443.8 186.4 457 194.3 420.6 194.9 415.7 197.7 410.5 200.1 405.1 200.8 408 203.6 412.5 204.1 419.2 205.4 400.7 209.9 395.2 211 389.8 212.9 392.7 216.4 384.6 220.4 387.6 227 392.1 228.1 398.8 229.3 408.9 230.5 423.9 246.6 382.3 247.1 385.2 247.3 389.7 247.7 396.4 249.5 377.9 250.2 380.8 265.6 385.2 266.5 373.1 267.1 367.6 270 362.2 271 356.7 274.7 351.3 275.5 354.3 275.5 358.8 276.6 346.4 279.2 349.4 280.1 353.8 288.1 360.4 288.2 370.3 296.6 342.9 304.4 337.4 304.6 332 304.6 334.9 305.3 339.4 306.5 346.1 307.9 327.6 309.2 330.6 309.6 335 318 341.7 322.9 351.8 341.3 366.9 349.2 389.5 366.2 392.5 371.7 397 373.7 384.6 379.1 387.6 380.6 379.4 380.7 382.4 385.2 386.8 386.1 393.5 388.5 403.6 389.1 375.8 391.1 370.4 395.2 373.4 404.5 377.9 414.5 365.5 415.6 368.5 416.9 360.4 417.4 354.9 424.6 349.4 424.6 352.4 424.6 356.8 425.6 363.4 433.2 373.3 442.8 345.9 443.9 348.9 445.5 340.8 445.7 343.7 446.6 348.1 448.1 335.9 448.5 338.9 449.2 343.4 456.6 350.1 458.9 331.6 466.2 326.1 468.4 329.1 472.1 320.8 473.1 323.8 476.7 315.6 477.1 318.6 478.1 323 478.8 329.7 481.1 339.8 500.9 354.9 501.4 313.2 501.4 316.2 504.3 320.7 505.2 327.4 506.7 337.4 508.1 309.7 514.6 312.6 520.7 317.1 528.1 304.8 530.4 307.8 554.3 299.5 565.1 294 566.1 297 566.4 288.8 566.9 283.4 567.1 278 567.2 272.6 567.2 267.2 567.2 261.8 567.2 264.8 567.2 269.2 567.2 275.9 567.2 257.4 567.2 251.9 567.2 254.9 567.2 259.4 567.2 247 567.3 250 567.6 254.4 567.6 261 567.8 270.9 568 285.7 577 244.8 581.3 247.7 584.5 252.2 585.3 258.9 589.7 269 593.7 284.1 604.9 242.4 610.8 245.4 612.4 249.8 612.9 256.5 614.9 238 615.3 241 615.8 245.4 619.6 252 621.5 261.9 621.7 234.5 621.7 237.5 624.6 229.4 630.1 232.3 631.3 236.7 637.5 224.5 639.9 227.5 640.3 219.4 642.7 214 642.8 217 645.4 221.4 646.1 209.1 646.3 212 648.7 203.9 651 198.5 665.5 201.5 668.7 193.3 669.5 196.3 669.7 200.7 684.4 188.4 688.2 183 698 185.9 700 177.8 702.1 172.4 703.6 167 704.2 170 725.9 174.4 745.8 162.2 747.9 156.7 749.7 159.7 754.4 151.5 754.6 154.5 757.6 146.2 758.4 149.2 763 153.7 765 141.3 766 144.3 766.2 148.7 773.6 155.3 774.5 165.2 779.6 180 780.7 202.3 780.8 205.3 784.3 209.7 784.9 216.3 788.1 226.2 789.2 241 807.5 263.3 810.7 257.8 811.4 260.8 811.9 265.2 812.1 253 814 247.5 815.7 242 831.9 236.5 837.7 231.1 840.9 234.1 841 238.5 843.7 245.1 844.5 255 846.6 269.9 848.6 292.1 849.7 295.1 852.9 286.9 862.5 289.9 865.3 281.6 865.4 284.6 865.5 276.4 865.7 271 867.9 273.9 869.4 278.3 870.1 266.2 870.6 269.1 873.6 261 878 264 878.1 255.7 878.2 258.7 878.9 263.1 879.2 269.7 883.7 279.6 884.5 294.5 894.3 316.7 895.4 311.3 896.1 314.2 896.4 318.7 897.4 325.4 897.6 306.9 897.8 309.8 898.1 301.7 899.9 304.7 911.8 296.5 913.9 291.1 914.3 294.1 914.6 298.5 920.7 305.2 921 286.7 921.1 289.7 921.2 281.5 921.9 276 923.3 278.9 923.4 283.3 924 271.2 924.2 274.1 924.2 278.5 924.3 266.3 924.3 260.9 924.3 263.9 924.3 268.4 924.3 275.1 924.3 285.2 924.3 300.2 924.3 322.9 924.3 325.8 924.8 330.2 924.8 336.8 925 346.7 925.2 361.6 925.7 383.9 926 386.8 926.1 378.6 926.1 373.2 926.1 376.2 926.1 380.7 926.1 368.3 926.1 362.8 926.2 357.4 926.4 360.3 927.3 364.7 927.3 371.3 928.2 381.2 928.4 396.1 931.5 355.1 931.6 349.6 932 352.6" opacity=".9"/><polyline fill="none" stroke="#65a30d" stroke-linejoin="round" stroke-width="1.8" points="80 474.8 80 472.9 82.7 470.9 83.2 472.1 83.9 468.9 83.9 470.1 84.7 466.8 85 464.5 86.2 465.8 86.5 467.8 92.7 462.3 96.1 459.7 96.5 461.2 97.2 463.4 106.4 457.2 106.8 454.4 106.8 456 107.1 451.5 107.5 448.3 107.7 450.1 107.9 452.8 109 445.2 110.4 441.7 110.6 443.7 110.9 446.7 111.5 451.3 112.3 458 115.5 439.1 117.1 441.2 117.9 444.4 122 435.6 122.1 437.8 122.9 441.1 126.2 431.9 129 434.2 132.8 427.8 132.9 430.3 133 433.9 135.3 423.7 146 426.3 146.3 430.1 153.2 435.9 153.9 444.5 154.3 457.4 170.7 421.4 179.2 424 182.5 428 184.5 433.9 185.9 442.7 186.4 456 194.3 418.9 194.9 413.9 197.7 408.6 200.1 403.1 200.8 406.1 203.6 410.5 204.1 417.2 205.4 398.6 209.9 393.1 211 387.7 212.9 390.6 216.4 382.5 220.4 385.4 227 389.9 228.1 396.5 229.3 406.5 230.5 421.5 246.6 379.7 247.1 382.7 247.3 387.1 247.7 393.8 249.5 375.2 250.2 378.1 265.6 382.5 266.5 370.3 267.1 364.8 270 359.4 271 353.9 274.7 348.4 275.5 351.4 275.5 355.8 276.6 343.5 279.2 346.4 280.1 350.7 288.1 357.3 288.2 367.1 296.6 339.7 304.4 334.2 304.6 328.7 304.6 331.7 305.3 336.1 306.5 342.8 307.9 324.2 309.2 327.1 309.6 331.6 318 338.3 322.9 348.2 341.3 363.2 349.2 385.7 366.2 388.7 371.7 393.1 373.7 380.8 379.1 383.7 380.6 375.5 380.7 378.4 385.2 382.9 386.1 389.5 388.5 399.5 389.1 371.7 391.1 366.2 395.2 369.2 404.5 373.6 414.5 361.3 415.6 364.2 416.9 356 417.4 350.5 424.6 345 424.6 348 424.6 352.3 425.6 358.9 433.2 368.7 442.8 341.3 443.9 344.2 445.5 336.1 445.7 339 446.6 343.4 448.1 331.2 448.5 334.1 449.2 338.6 456.6 345.2 458.9 326.7 466.2 321.2 468.4 324.1 472.1 315.9 473.1 318.8 476.7 310.6 477.1 313.5 478.1 318 478.8 324.6 481.1 334.6 500.9 349.6 501.4 307.8 501.4 310.8 504.3 315.2 505.2 321.9 506.7 331.9 508.1 304 514.6 306.9 520.7 311.4 528.1 299 530.4 302 554.3 293.7 565.1 288.2 566.1 291.2 566.4 282.9 566.9 277.5 567.1 272.1 567.2 266.6 567.2 261.2 567.2 255.8 567.2 258.8 567.2 263.2 567.2 269.9 567.2 251.3 567.2 245.8 567.2 248.7 567.2 253.2 567.2 240.8 567.3 243.7 567.6 248.1 567.6 254.7 567.8 264.5 568 279.3 577 238.1 581.3 241.1 584.5 245.5 585.3 252.2 589.7 262.2 593.7 277.2 604.9 235.4 610.8 238.3 612.4 242.8 612.9 249.4 614.9 230.8 615.3 233.8 615.8 238.1 619.6 244.7 621.5 254.5 621.7 227.1 621.7 230 624.6 221.9 630.1 224.8 631.3 229.2 637.5 217 639.9 219.9 640.3 211.8 642.7 206.4 642.8 209.3 645.4 213.8 646.1 201.4 646.3 204.3 648.7 196.2 651 190.8 665.5 193.7 668.7 185.5 669.5 188.4 669.7 192.9 684.4 180.5 688.2 175.1 698 178 700 169.8 702.1 164.4 703.6 159 704.2 161.9 725.9 166.3 745.8 154.1 747.9 148.6 749.7 151.6 754.4 143.3 754.6 146.3 757.6 138 758.4 141 763 145.4 765 133 766 135.9 766.2 140.3 773.6 146.9 774.5 156.7 779.6 171.5 780.7 193.6 780.8 196.5 784.3 200.9 784.9 207.5 788.1 217.3 789.2 232.1 807.5 254.2 810.7 248.7 811.4 251.6 811.9 256 812.1 243.8 814 238.3 815.7 232.8 831.9 227.3 837.7 221.9 840.9 224.8 841 229.2 843.7 235.7 844.5 245.6 846.6 260.3 848.6 282.5 849.7 285.4 852.9 277.2 862.5 280.1 865.3 271.9 865.4 274.8 865.5 266.6 865.7 261.1 867.9 264.1 869.4 268.4 870.1 256.2 870.6 259.2 873.6 251 878 254 878.1 245.7 878.2 248.6 878.9 253 879.2 259.6 883.7 269.4 884.5 284.2 894.3 306.3 895.4 300.8 896.1 303.8 896.4 308.2 897.4 314.9 897.6 296.3 897.8 299.2 898.1 291.1 899.9 294.1 911.8 285.8 913.9 280.4 914.3 283.3 914.6 287.8 920.7 294.4 921 275.9 921.1 278.8 921.2 270.6 921.9 265.1 923.3 268 923.4 272.3 924 260.1 924.2 263.1 924.2 267.4 924.3 255.2 924.3 249.8 924.3 252.8 924.3 257.2 924.3 263.9 924.3 273.9 924.3 288.9 924.3 311.4 924.3 314.3 924.8 318.7 924.8 325.2 925 335.1 925.2 349.8 925.7 372 926 374.9 926.1 366.7 926.1 361.3 926.1 364.2 926.1 368.7 926.1 356.3 926.1 350.8 926.2 345.3 926.4 348.2 927.3 352.6 927.3 359.1 928.2 369 928.4 383.7 931.5 342.6 931.6 337.1 932 340" opacity=".9"/><polyline fill="none" stroke="#475569" stroke-linejoin="round" stroke-width="1.8" points="80 474.8 80 472.9 82.7 470.9 83.2 472 83.9 468.9 83.9 470.1 84.7 466.8 85 464.4 86.2 465.8 86.5 467.7 92.7 462.2 96.1 459.6 96.5 461.1 97.2 463.3 106.4 457.1 106.8 454.2 106.8 455.9 107.1 451.3 107.5 448.1 107.7 449.9 107.9 452.6 109 445 110.4 441.5 110.6 443.5 110.9 446.5 111.5 451 112.3 457.8 115.5 438.8 117.1 440.9 117.9 444 122 435.2 122.1 437.4 122.9 440.7 126.2 431.5 129 433.8 132.8 427.3 132.9 429.7 133 433.4 135.3 423.1 146 425.7 146.3 429.5 153.2 435.3 153.9 443.9 154.3 456.9 170.7 420.5 179.2 423.2 182.5 427.1 184.5 433.1 185.9 442 186.4 455.3 194.3 417.8 194.9 412.7 197.7 407.4 200.1 401.8 200.8 404.8 203.6 409.2 204.1 415.8 205.4 397.2 209.9 391.7 211 386.3 212.9 389.2 216.4 381 220.4 384 227 388.4 228.1 395 229.3 405 230.5 419.9 246.6 378 247.1 380.9 247.3 385.4 247.7 392 249.5 373.4 250.2 376.3 265.6 380.6 266.5 368.4 267.1 362.9 270 357.5 271 351.9 274.7 346.5 275.5 349.5 275.5 353.9 276.6 341.5 279.2 344.4 280.1 348.7 288.1 355.3 288.2 365.1 296.6 337.6 304.4 332 304.6 326.5 304.6 329.5 305.3 333.9 306.5 340.5 307.9 321.9 309.2 324.9 309.6 329.3 318 335.9 322.9 345.9 341.3 360.8 349.2 383.2 366.2 386.1 371.7 390.6 373.7 378.2 379.1 381.1 380.6 372.8 380.7 375.8 385.2 380.2 386.1 386.8 388.5 396.8 389.1 368.9 391.1 363.4 395.2 366.4 404.5 370.8 414.5 358.4 415.6 361.3 416.9 353.1 417.4 347.6 424.6 342.1 424.6 345 424.6 349.4 425.6 355.9 433.2 365.7 442.8 338.2 443.9 341.1 445.5 333 445.7 335.9 446.6 340.2 448.1 328 448.5 330.9 449.2 335.4 456.6 342 458.9 323.4 466.2 317.9 468.4 320.8 472.1 312.5 473.1 315.5 476.7 307.2 477.1 310.1 478.1 314.6 478.8 321.2 481.1 331.2 500.9 346.1 501.4 304.2 501.4 307.1 504.3 311.5 505.2 318.2 506.7 328.1 508.1 300.2 514.6 303.1 520.7 307.6 528.1 295.2 530.4 298.1 554.3 289.8 565.1 284.3 566.1 287.3 566.4 279 566.9 273.5 567.1 268.1 567.2 262.7 567.2 257.2 567.2 251.8 567.2 254.8 567.2 259.2 567.2 265.8 567.2 247.2 567.2 241.7 567.2 244.6 567.2 249.1 567.2 236.6 567.3 239.5 567.6 243.9 567.6 250.4 567.8 260.2 568 274.9 577 233.7 581.3 236.6 584.5 241.1 585.3 247.7 589.7 257.7 593.7 272.6 604.9 230.7 610.8 233.6 612.4 238 612.9 244.7 614.9 226 615.3 229 615.8 233.3 619.6 239.8 621.5 249.6 621.7 222.1 621.7 225 624.6 216.9 630.1 219.8 631.3 224.2 637.5 211.9 639.9 214.8 640.3 206.7 642.7 201.3 642.8 204.2 645.4 208.6 646.1 196.2 646.3 199.1 648.7 191 651 185.6 665.5 188.5 668.7 180.2 669.5 183.2 669.7 187.6 684.4 175.2 688.2 169.8 698 172.7 700 164.5 702.1 159.1 703.6 153.6 704.2 156.6 725.9 160.9 745.8 148.7 747.9 143.2 749.7 146.1 754.4 137.8 754.6 140.8 757.6 132.5 758.4 135.5 763 139.9 765 127.5 766 130.4 766.2 134.7 773.6 141.3 774.5 151.1 779.6 165.8 780.7 187.8 780.8 190.7 784.3 195.1 784.9 201.6 788.1 211.4 789.2 226.1 807.5 248.1 810.7 242.6 811.4 245.5 811.9 249.9 812.1 237.7 814 232.1 815.7 226.6 831.9 221.1 837.7 215.7 840.9 218.6 841 222.9 843.7 229.5 844.5 239.3 846.6 254 848.6 276 849.7 279 852.9 270.7 862.5 273.6 865.3 265.3 865.4 268.3 865.5 260 865.7 254.6 867.9 257.5 869.4 261.8 870.1 249.6 870.6 252.5 873.6 244.4 878 247.3 878.1 239 878.2 242 878.9 246.3 879.2 252.8 883.7 262.6 884.5 277.3 894.3 299.4 895.4 293.9 896.1 296.8 896.4 301.2 897.4 307.9 897.6 289.2 897.8 292.1 898.1 284 899.9 287 911.8 278.7 913.9 273.2 914.3 276.2 914.6 280.6 920.7 287.2 921 268.6 921.1 271.6 921.2 263.3 921.9 257.8 923.3 260.7 923.4 265 924 252.8 924.2 255.7 924.2 260.1 924.3 247.8 924.3 242.4 924.3 245.4 924.3 249.8 924.3 256.4 924.3 266.4 924.3 281.3 924.3 303.7 924.3 306.6 924.8 311 924.8 317.5 925 327.3 925.2 342 925.7 364 926 367 926.1 358.7 926.1 353.3 926.1 356.2 926.1 360.6 926.1 348.2 926.1 342.7 926.2 337.2 926.4 340.1 927.3 344.5 927.3 351 928.2 360.8 928.4 375.5 931.5 334.3 931.6 328.7 932 331.7" opacity=".9"/><polyline fill="none" stroke="#ea580c" stroke-linejoin="round" stroke-width="1.8" points="80 474.8 80 472.9 82.7 470.9 83.2 472 83.9 468.9 83.9 470 84.7 466.7 85 464.4 86.2 465.7 86.5 467.6 92.7 462.1 96.1 459.5 96.5 460.9 97.2 463.1 106.4 456.9 106.8 454.1 106.8 455.7 107.1 451.1 107.5 447.9 107.7 449.7 107.9 452.4 109 444.7 110.4 441.1 110.6 443.1 110.9 446.1 111.5 450.6 112.3 457.4 115.5 438.2 117.1 440.3 117.9 443.5 122 434.6 122.1 436.8 122.9 440.1 126.2 430.7 129 433 132.8 426.5 132.9 428.9 133 432.6 135.3 422.2 146 424.8 146.3 428.6 153.2 434.4 153.9 443.1 154.3 456.1 170.7 419.2 179.2 421.9 182.5 425.9 184.5 431.9 185.9 440.8 186.4 454.3 194.3 416.1 194.9 410.9 197.7 405.4 200.1 399.9 200.8 402.8 203.6 407.2 204.1 413.8 205.4 395.1 209.9 389.6 211 384.1 212.9 387 216.4 378.8 220.4 381.8 227 386.1 228.1 392.7 229.3 402.6 230.5 417.5 246.6 375.4 247.1 378.3 247.3 382.7 247.7 389.3 249.5 370.6 250.2 373.5 265.6 377.8 266.5 365.6 267.1 360 270 354.6 271 349.1 274.7 343.6 275.5 346.5 275.5 350.9 276.6 338.5 279.2 341.4 280.1 345.7 288.1 352.2 288.2 361.9 296.6 334.3 304.4 328.8 304.6 323.2 304.6 326.2 305.3 330.6 306.5 337.2 307.9 318.5 309.2 321.4 309.6 325.8 318 332.4 322.9 342.3 341.3 357.1 349.2 379.4 366.2 382.3 371.7 386.7 373.7 374.2 379.1 377.2 380.6 368.8 380.7 371.8 385.2 376.2 386.1 382.8 388.5 392.7 389.1 364.6 391.1 359.2 395.2 362.1 404.5 366.5 414.5 354 415.6 356.9 416.9 348.8 417.4 343.2 424.6 337.7 424.6 340.6 424.6 344.9 425.6 351.4 433.2 361.1 442.8 333.5 443.9 336.4 445.5 328.2 445.7 331.1 446.6 335.5 448.1 323.2 448.5 326.1 449.2 330.5 456.6 337.1 458.9 318.4 466.2 312.9 468.4 315.8 472.1 307.5 473.1 310.4 476.7 302.1 477.1 305.1 478.1 309.4 478.8 316 481.1 325.9 500.9 340.8 501.4 298.7 501.4 301.6 504.3 306 505.2 312.6 506.7 322.5 508.1 294.5 514.6 297.4 520.7 301.8 528.1 289.4 530.4 292.3 554.3 284 565.1 278.4 566.1 281.4 566.4 273.1 566.9 267.6 567.1 262.2 567.2 256.7 567.2 251.3 567.2 245.8 567.2 248.7 567.2 253.1 567.2 259.7 567.2 241 567.2 235.5 567.2 238.4 567.2 242.8 567.2 230.4 567.3 233.2 567.6 237.6 567.6 244.1 567.8 253.8 568 268.4 577 227 581.3 230 584.5 234.4 585.3 241 589.7 250.8 593.7 265.7 604.9 223.6 610.8 226.5 612.4 230.9 612.9 237.5 614.9 218.8 615.3 221.7 615.8 226 619.6 232.5 621.5 242.3 621.7 214.7 621.7 217.6 624.6 209.4 630.1 212.3 631.3 216.6 637.5 204.3 639.9 207.2 640.3 199.1 642.7 193.6 642.8 196.5 645.4 200.9 646.1 188.5 646.3 191.4 648.7 183.2 651 177.7 665.5 180.7 668.7 172.4 669.5 175.3 669.7 179.7 684.4 167.2 688.2 161.8 698 164.7 700 156.5 702.1 151 703.6 145.6 704.2 148.5 725.9 152.8 745.8 140.5 747.9 135 749.7 137.9 754.4 129.6 754.6 132.6 757.6 124.2 758.4 127.2 763 131.6 765 119.1 766 122 766.2 126.3 773.6 132.8 774.5 142.5 779.6 157.2 780.7 179.1 780.8 181.9 784.3 186.3 784.9 192.8 788.1 202.5 789.2 217.1 807.5 239 810.7 233.5 811.4 236.3 811.9 240.7 812.1 228.4 814 222.9 815.7 217.3 831.9 211.8 837.7 206.4 840.9 209.2 841 213.6 843.7 220.1 844.5 229.8 846.6 244.4 848.6 266.3 849.7 269.2 852.9 260.9 862.5 263.8 865.3 255.5 865.4 258.5 865.5 250.2 865.7 244.7 867.9 247.6 869.4 251.9 870.1 239.7 870.6 242.5 873.6 234.4 878 237.3 878.1 229 878.2 231.9 878.9 236.2 879.2 242.7 883.7 252.4 884.5 267 894.3 288.9 895.4 283.4 896.1 286.3 896.4 290.7 897.4 297.3 897.6 278.6 897.8 281.5 898.1 273.3 899.9 276.3 911.8 268 913.9 262.5 914.3 265.4 914.6 269.8 920.7 276.4 921 257.7 921.1 260.7 921.2 252.4 921.9 246.8 923.3 249.7 923.4 254 924 241.8 924.2 244.7 924.2 249 924.3 236.7 924.3 231.3 924.3 234.2 924.3 238.6 924.3 245.2 924.3 255.1 924.3 269.9 924.3 292.2 924.3 295 924.8 299.4 924.8 305.9 925 315.6 925.2 330.2 925.7 352.1 926 355 926.1 346.7 926.1 341.3 926.1 344.2 926.1 348.6 926.1 336.1 926.1 330.6 926.2 325.1 926.4 328 927.3 332.3 927.3 338.8 928.2 348.5 928.4 363.1 931.5 321.7 931.6 316.2 932 319.1" opacity=".9"/><line x1="950" x2="972" y1="94" y2="94" stroke="#ea580c" stroke-width="3"/><text x="980" y="98" fill="#374151" font-size="12.5">vip 9 56848</text><line x1="950" x2="972" y1="116" y2="116" stroke="#475569" stroke-width="3"/><text x="980" y="120" fill="#374151" font-size="12.5">vip 8 53068</text><line x1="950" x2="972" y1="138" y2="138" stroke="#65a30d" stroke-width="3"/><text x="980" y="142" fill="#374151" font-size="12.5">vip 7 50553</text><line x1="950" x2="972" y1="160" y2="160" stroke="#db2777" stroke-width="3"/><text x="980" y="164" fill="#374151" font-size="12.5">vip 6 46784</text><line x1="950" x2="972" y1="182" y2="182" stroke="#0891b2" stroke-width="3"/><text x="980" y="186" fill="#374151" font-size="12.5">vip 5 44259</text><line x1="950" x2="972" y1="204" y2="204" stroke="#7c3aed" stroke-width="3"/><text x="980" y="208" fill="#374151" font-size="12.5">vip 4 40480</text><line x1="950" x2="972" y1="226" y2="226" stroke="#d97706" stroke-width="3"/><text x="980" y="230" fill="#374151" font-size="12.5">vip 3 37943</text><line x1="950" x2="972" y1="248" y2="248" stroke="#16a34a" stroke-width="3"/><text x="980" y="252" fill="#374151" font-size="12.5">vip 2 25696</text><line x1="950" x2="972" y1="270" y2="270" stroke="#2563eb" stroke-width="3"/><text x="980" y="274" fill="#374151" font-size="12.5">vip 0 11414</text><line x1="950" x2="972" y1="292" y2="292" stroke="#dc2626" stroke-width="3"/><text x="980" y="296" fill="#374151" font-size="12.5">vip 1 11414</text><text x="80" y="542" fill="#6b7280" font-size="12" text-anchor="start">2026-01-01</text><text x="932" y="542" fill="#6b7280" font-size="12" text-anchor="end">2026-01-31</text></svg>