<?xml version="1.0" encoding="UTF-8"?>
<svg xmlns="http://www.w3.org/2000/svg" width="1000" height="520" viewBox="0 0 1000 520" font-family="ui-sans-serif, system-ui, sans-serif">
  <rect width="1000" height="520" fill="#ffffff"/>
  <text x="78" y="28" font-size="18" font-weight="700" fill="#111827">Zone Recovery — ADAUSDC best setting (equity / PnL)</text>
  <text x="78" y="48" font-size="12.5" fill="#6b7280">lev 25 · ratio 4 · gap 20% · maxSteps 4 · maxDD 20% · random · vip 9  ·  589 series, 65.9% win · vol $22211984 ($22212239/day) · fees $1879</text>
  <text x="78" y="68" font-size="12.5" font-weight="600" fill="#1d4ed8">USDC · BNB −10% · taker 0.0085%</text>
  <text x="934" y="28" text-anchor="end" font-size="18" font-weight="700" fill="#16a34a">+14170 USDT  (+141.70%)</text>
  <line x1="78" y1="468.0" x2="934" y2="468.0" stroke="#e5e7eb" stroke-width="1"/><text x="68" y="472.0" text-anchor="end" font-size="12" fill="#6b7280">0.00</text><line x1="78" y1="392.0" x2="934" y2="392.0" stroke="#e5e7eb" stroke-width="1"/><text x="68" y="396.0" text-anchor="end" font-size="12" fill="#6b7280">6598</text><line x1="78" y1="316.0" x2="934" y2="316.0" stroke="#e5e7eb" stroke-width="1"/><text x="68" y="320.0" text-anchor="end" font-size="12" fill="#6b7280">13195</text><line x1="78" y1="240.0" x2="934" y2="240.0" stroke="#e5e7eb" stroke-width="1"/><text x="68" y="244.0" text-anchor="end" font-size="12" fill="#6b7280">19793</text><line x1="78" y1="164.0" x2="934" y2="164.0" stroke="#e5e7eb" stroke-width="1"/><text x="68" y="168.0" text-anchor="end" font-size="12" fill="#6b7280">26391</text><line x1="78" y1="88.0" x2="934" y2="88.0" stroke="#e5e7eb" stroke-width="1"/><text x="68" y="92.0" text-anchor="end" font-size="12" fill="#6b7280">32989</text>
  <line x1="78" y1="352.8" x2="934" y2="352.8" stroke="#9ca3af" stroke-width="1.5" stroke-dasharray="6 4"/><text x="934" y="346.8" text-anchor="end" font-size="11" fill="#6b7280">start 10000</text>
  <polyline points="78.0,119.3 80.7,118.5 82.6,119.6 85.4,119.7 88.3,118.6 92.2,119.4 96.9,118.6 100.0,118.9 103.8,119.2 106.9,120.1 110.7,119.0 114.0,119.6 116.7,118.4 119.4,119.1 122.4,118.6 125.1,119.0 128.5,118.8 132.4,118.8 136.5,119.3 140.0,119.8 144.0,120.0 146.7,119.3 150.4,119.6 153.2,120.8 156.0,120.4 159.5,119.4 162.1,118.4 164.9,119.0 167.8,119.7 170.1,120.6 173.4,120.3 176.4,120.3 178.9,120.1 181.1,121.1 183.9,120.7 187.0,121.8 188.3,122.6 190.7,122.7 193.4,122.2 196.3,121.2 198.1,119.3 199.9,119.1 201.4,118.5 202.4,117.3 203.4,116.5 204.1,115.9 204.9,116.1 205.9,116.0 207.1,116.2 208.3,116.8 209.6,116.6 211.2,116.6 212.5,115.9 213.7,115.7 215.3,116.7 216.5,117.6 217.8,118.6 218.6,119.2 219.9,118.5 221.0,118.1 222.1,118.0 223.6,117.4 225.3,116.8 226.9,117.7 228.6,117.6 230.4,117.7 232.5,118.5 234.4,117.8 236.8,118.6 239.5,118.1 241.2,118.9 243.2,119.3 245.5,119.1 248.3,119.0 251.8,119.1 255.6,118.9 258.3,119.5 259.7,120.3 261.1,120.0 263.8,120.3 266.4,120.0 269.5,119.6 271.3,118.3 273.2,118.2 275.9,119.5 277.8,119.7 280.2,119.3 282.7,117.6 284.7,117.3 286.9,116.8 288.9,116.1 290.0,115.8 292.2,115.7 294.4,115.6 296.9,116.2 299.1,117.0 301.4,116.4 303.8,117.3 306.0,117.5 309.3,118.0 311.2,117.8 313.0,117.1 314.1,118.5 315.1,119.1 316.6,118.1 318.7,118.5 320.4,118.1 322.0,118.6 322.9,119.9 324.2,119.5 326.9,119.1 328.8,120.1 330.8,119.8 332.7,120.8 334.3,119.8 336.2,119.6 338.0,120.8 339.2,121.2 340.8,120.3 342.3,121.6 344.0,120.6 345.7,120.3 347.5,121.5 349.2,120.8 351.3,120.6 353.9,120.1 355.4,121.4 357.7,121.1 359.4,121.4 362.0,121.9 364.1,121.8 365.8,122.1 366.9,122.7 368.5,122.2 370.4,121.2 372.5,120.8 374.0,119.9 376.1,120.5 379.3,120.3 382.3,119.9 384.4,121.3 386.5,121.3 388.2,121.9 389.6,121.6 391.3,121.1 393.6,120.3 396.2,119.4 398.0,118.4 399.7,119.1 400.9,119.0 402.7,119.0 405.6,119.6 407.7,119.3 410.5,120.1 413.7,119.2 416.0,117.6 417.5,117.5 419.9,117.5 423.1,118.2 425.8,118.4 427.7,118.8 429.1,120.7 430.3,120.1 432.2,120.4 434.5,121.2 436.3,120.3 439.2,119.9 442.4,120.3 444.9,119.7 447.2,119.6 449.1,119.6 452.3,120.1 454.1,120.3 456.5,120.7 459.5,120.9 462.9,120.3 464.3,118.9 465.7,118.5 468.0,118.1 471.1,118.1 473.3,117.6 475.0,118.2 476.9,118.4 479.5,118.8 482.8,118.8 486.2,119.4 489.0,118.6 491.1,118.6 494.2,118.5 498.3,118.8 501.8,117.7 505.4,117.9 508.3,117.5 510.5,117.5 512.9,118.4 515.4,119.3 518.0,117.9 520.4,117.4 522.9,117.8 525.2,118.3 527.8,117.6 530.1,118.4 532.9,118.4 536.3,117.8 539.6,117.5 543.3,116.9 544.9,116.5 546.5,116.3 548.9,117.4 551.8,117.7 553.7,116.6 555.8,116.9 557.8,115.8 559.6,116.1 560.2,116.4 561.0,116.8 562.0,116.2 562.6,115.5 563.4,116.9 564.4,115.6 564.9,114.6 565.4,114.7 566.0,115.2 566.7,115.4 567.5,115.5 568.6,115.9 569.3,115.9 570.3,116.5 571.2,117.8 571.8,118.3 572.7,118.9 573.8,119.3 574.7,119.3 576.1,118.1 577.5,116.9 578.1,117.7 578.6,117.6 579.5,116.7 580.6,115.9 581.6,115.8 582.9,116.3 584.1,116.1 585.6,117.1 586.5,117.0 587.4,118.2 587.9,119.5 588.3,118.7 589.2,118.8 590.1,118.7 590.9,118.9 591.7,119.5 592.8,119.1 594.0,119.4 595.4,119.7 596.4,118.8 597.4,118.9 598.6,118.8 599.6,119.0 601.2,119.1 602.6,120.3 603.6,119.6 605.0,120.3 606.5,119.4 608.3,118.9 610.1,119.9 611.7,120.5 611.8,122.5 611.9,122.1 611.9,122.5 612.0,123.5 612.0,124.4 612.0,123.6 612.1,124.4 612.2,123.9 612.3,124.8 612.3,125.3 612.4,124.5 612.5,124.4 612.5,124.4 612.6,124.6 612.7,124.0 612.9,124.4 613.0,124.4 613.0,124.8 613.2,124.1 613.4,125.4 613.5,124.8 613.6,126.1 613.7,125.2 613.8,126.6 613.9,126.1 614.0,126.4 614.2,126.7 614.2,126.3 614.4,127.5 614.6,126.7 614.7,126.1 614.8,126.3 614.9,125.8 615.0,125.7 615.2,126.4 615.3,126.7 615.5,126.5 615.6,128.3 615.7,127.6 615.8,127.3 616.0,127.2 616.2,127.2 616.4,127.6 616.5,127.0 616.6,126.1 616.8,126.7 616.9,126.0 617.1,124.4 617.2,125.2 617.3,125.9 617.5,125.9 617.8,125.2 618.0,124.9 618.3,126.1 618.6,126.1 618.9,126.5 619.2,125.9 619.4,125.3 619.7,124.6 620.2,125.5 620.7,125.8 621.1,125.7 621.5,125.3 622.0,125.7 622.3,125.2 622.7,126.0 623.1,127.1 623.4,127.5 623.6,128.1 623.7,127.5 623.8,128.1 624.1,128.6 624.3,128.3 624.5,129.1 624.7,129.2 624.9,129.1 625.0,129.7 625.1,129.2 625.3,130.4 625.5,129.9 625.6,130.7 625.8,130.8 625.9,132.0 626.0,132.3 626.1,132.9 626.1,132.0 626.2,132.5 626.3,132.1 626.4,132.0 626.5,131.2 626.7,130.8 626.9,131.8 627.1,132.4 627.2,133.2 627.3,132.6 627.4,133.2 627.5,132.3 627.7,133.1 627.8,133.5 627.9,132.8 628.0,133.6 628.1,134.2 628.3,133.9 628.4,133.3 628.5,133.1 628.6,133.0 628.7,134.2 629.0,133.9 629.1,134.5 629.3,133.6 629.4,132.8 629.7,132.3 629.9,133.1 630.1,133.4 630.4,133.9 630.8,134.8 631.0,135.3 631.1,136.5 631.3,137.3 631.4,137.7 631.4,137.7 631.5,136.8 631.5,136.5 631.7,138.4 631.7,139.6 631.8,138.7 631.8,138.8 631.9,140.3 632.0,140.7 632.0,138.8 632.0,138.9 632.1,138.4 632.2,137.7 632.2,137.5 632.3,138.0 632.4,138.3 632.5,138.1 632.6,139.2 632.7,139.2 632.8,138.2 632.9,138.7 633.0,138.3 633.1,138.9 633.3,138.9 633.4,140.3 633.5,140.9 633.5,140.0 633.6,140.7 633.7,141.0 633.7,140.6 633.8,139.6 633.9,139.2 633.9,139.6 634.0,139.1 634.1,138.8 634.3,138.5 634.4,139.6 634.5,139.7 634.6,139.2 634.8,139.0 635.0,138.4 635.1,138.8 635.2,138.1 635.4,137.4 635.6,136.9 635.8,136.5 635.9,136.0 636.0,137.2 636.2,137.0 636.4,136.1 636.6,136.0 636.8,137.2 637.0,137.7 637.3,138.8 637.4,138.5 637.5,138.4 637.8,137.5 638.0,137.2 638.3,137.5 638.4,136.4 638.6,135.9 638.9,135.4 639.3,134.5 639.7,133.2 640.0,134.2 640.2,134.8 640.4,134.4 640.8,134.5 641.2,135.1 641.6,135.8 641.9,135.5 642.2,135.5 642.6,135.4 643.0,136.0 643.4,136.1 643.9,136.2 644.3,136.4 644.7,136.5 645.1,136.5 645.5,136.1 645.9,137.3 646.4,137.7 646.7,137.9 647.2,138.4 647.8,138.0 648.5,138.5 648.9,138.7 649.3,139.1 649.6,139.2 650.0,138.6 650.4,139.7 650.8,138.8 651.2,139.6 651.6,138.6 652.0,137.5 652.3,137.7 652.6,137.0 653.0,137.0 653.4,136.8 653.9,135.5 654.4,135.3 654.8,135.8 655.4,136.9 655.8,136.4 656.5,137.4 657.1,137.3 657.8,137.4 658.2,138.1 658.7,138.6 659.1,139.1 659.7,138.7 660.3,138.2 661.0,138.4 661.4,138.1 662.0,137.5 662.6,136.3 663.3,135.7 664.1,135.9 664.9,135.7 665.9,136.2 666.6,136.4 667.3,137.0 667.8,135.9 668.6,135.1 669.1,135.3 669.9,135.3 670.7,134.2 671.9,134.7 672.7,134.7 673.5,135.7 674.2,136.5 675.2,137.1 675.8,137.5 676.6,137.4 677.5,138.1 678.5,139.1 679.0,138.4 679.9,137.9 680.7,138.9 681.3,139.1 682.0,138.7 682.4,138.4 683.4,139.2 684.4,139.6 685.0,138.9 686.1,139.6 687.1,140.0 687.6,140.6 688.2,139.9 689.2,140.0 690.4,140.1 691.1,140.7 691.6,139.1 692.3,139.6 693.1,140.3 693.5,139.9 694.4,139.3 695.3,138.7 696.4,139.5 697.1,139.8 698.0,138.3 698.9,138.0 699.8,138.3 700.7,138.3 701.7,138.1 702.6,137.7 703.2,138.0 704.1,138.6 705.2,138.8 706.4,139.4 707.3,140.2 708.2,140.4 709.0,140.2 709.9,140.1 711.1,140.4 711.8,141.3 712.1,141.8 712.7,141.1 713.5,139.9 714.6,140.6 716.2,140.6 717.3,140.5 718.3,141.1 719.6,140.9 720.5,141.5 721.3,141.3 722.1,141.4 723.1,140.8 724.1,140.5 724.8,140.7 726.1,140.9 727.3,141.1 728.7,140.7 729.7,140.3 730.8,141.5 732.2,141.0 733.5,140.0 734.9,139.5 736.7,139.9 738.0,140.5 739.2,140.9 740.3,140.8 742.1,141.7 742.7,142.3 743.7,142.3 744.2,142.2 745.1,141.8 746.5,141.4 747.7,141.5 748.9,142.6 749.6,142.6 750.7,142.1 751.8,142.5 753.2,142.8 754.8,142.8 756.1,142.0 757.2,142.5 758.5,142.6 759.1,143.1 759.9,142.7 760.8,144.5 761.2,144.0 761.8,144.7 762.2,144.3 762.7,145.3 762.8,145.5 763.1,145.1 763.7,144.1 764.4,145.3 764.9,145.9 765.2,144.2 765.7,144.7 766.4,144.2 767.3,144.8 767.8,144.8 768.0,145.6 768.2,145.4 768.5,145.8 768.7,146.3 768.8,146.3 769.0,146.8 769.3,145.6 769.6,146.7 770.0,146.0 770.7,144.3 771.0,143.9 771.5,143.9 772.0,145.0 772.4,145.6 772.8,147.0 772.9,146.9 773.2,148.1 773.3,149.8 773.4,149.7 773.5,151.1 773.5,151.8 773.6,149.8 773.6,149.5 773.7,148.8 773.8,148.3 774.0,147.9 774.2,148.0 774.5,147.8 774.8,148.3 775.0,147.8 775.3,148.9 775.5,149.9 775.7,149.9 775.9,149.6 776.1,149.8 776.5,149.0 776.7,149.9 777.1,148.6 777.6,148.2 778.3,148.2 778.7,147.3 779.1,148.0 779.6,148.2 780.1,148.2 780.6,146.4 780.9,146.5 781.5,145.7 782.1,145.4 782.6,144.9 783.0,144.1 783.3,145.3 783.8,145.1 784.4,144.4 785.1,144.5 785.5,144.8 786.0,145.4 786.5,145.8 787.2,146.0 787.8,146.2 788.0,148.1 788.3,147.1 788.8,147.2 789.5,146.9 790.0,146.6 790.8,146.9 791.4,147.1 791.8,147.0 792.3,146.6 792.8,146.9 793.4,146.6 794.0,145.2 794.4,145.5 795.2,144.8 796.3,145.4 797.4,146.5 798.5,145.4 799.2,144.4 800.2,144.7 801.2,143.9 802.3,145.3 803.5,144.9 804.7,144.0 806.1,143.8 807.8,143.0 809.2,142.8 810.6,143.4 811.7,143.8 813.4,143.9 815.2,143.1 817.5,143.0 818.6,143.3 819.9,143.4 821.2,145.1 821.3,146.5 821.3,146.0 821.4,146.2 821.5,146.9 821.6,146.7 821.7,146.1 821.8,146.3 822.0,147.7 822.1,148.6 822.2,147.5 822.3,147.5 822.4,148.3 822.6,149.6 822.7,149.0 822.8,150.5 822.8,151.8 822.8,152.0 822.9,151.6 822.9,152.0 823.0,150.7 823.0,149.9 823.1,149.3 823.3,150.7 823.3,152.0 823.4,153.2 823.4,154.5 823.5,153.4 823.5,153.3 823.6,152.7 823.7,153.3 823.7,154.3 823.8,153.8 823.8,153.8 823.9,153.0 823.9,153.1 824.0,153.7 824.0,152.8 824.1,153.1 824.2,152.3 824.2,154.1 824.3,154.3 824.3,153.7 824.4,153.9 824.5,154.6 824.6,156.5 824.6,156.9 824.7,158.1 824.7,158.0 824.7,159.3 824.8,160.5 824.8,160.7 824.8,162.9 824.8,164.5 824.8,166.5 824.9,168.5 824.9,167.4 824.9,171.6 824.9,172.7 824.9,173.5 824.9,176.4 824.9,174.5 825.0,171.5 825.0,176.4 825.0,168.9 825.0,168.9 825.0,172.7 825.0,171.2 825.0,170.8 825.0,169.9 825.1,167.0 825.1,167.2 825.1,167.3 825.1,166.3 825.2,164.3 825.3,165.4 825.3,165.7 825.3,165.9 825.4,164.7 825.4,164.0 825.4,164.4 825.5,164.8 825.5,166.7 825.5,166.6 825.6,165.2 825.6,165.1 825.7,164.5 825.7,165.2 825.7,165.5 825.8,165.0 825.8,163.8 825.9,164.3 825.9,164.8 826.0,165.7 826.1,167.0 826.1,168.0 826.1,166.1 826.2,165.5 826.2,166.0 826.3,166.7 826.3,167.8 826.4,168.7 826.4,169.8 826.4,169.2 826.5,167.7 826.5,168.2 826.5,168.2 826.6,168.1 826.6,169.1 826.6,170.3 826.7,170.8 826.7,173.6 826.8,175.3 826.8,176.5 826.8,176.8 826.8,178.9 826.8,179.4 826.8,180.6 826.8,184.4 826.9,181.2 826.9,183.5 826.9,185.4 826.9,180.3 826.9,177.8 827.0,179.0 827.0,176.7 827.0,176.1 827.1,175.6 827.1,176.4 827.1,176.0 827.1,177.8 827.2,178.2 827.2,177.6 827.2,176.7 827.3,174.6 827.3,173.9 827.3,175.1 827.3,174.1 827.4,174.9 827.4,175.7 827.4,176.8 827.5,176.7 827.5,178.3 827.5,178.5 827.5,179.5 827.6,180.2 827.6,180.4 827.6,178.5 827.7,178.7 827.7,179.6 827.7,179.1 827.8,178.9 827.8,177.6 827.8,176.7 827.9,175.6 827.9,175.2 827.9,174.4 828.0,174.2 828.1,173.8 828.1,173.7 828.2,173.0 828.2,174.4 828.3,174.4 828.3,173.0 828.4,173.4 828.5,172.7 828.5,174.6 828.6,174.6 828.7,173.0 828.7,173.0 828.8,173.4 828.8,173.8 828.9,172.9 829.0,172.1 829.0,171.8 829.1,172.3 829.2,172.6 829.3,173.4 829.3,173.6 829.4,173.4 829.4,174.0 829.5,173.0 829.5,172.4 829.7,173.7 829.7,173.0 829.8,172.3 829.9,171.7 830.0,170.7 830.1,170.7 830.1,171.4 830.2,172.1 830.3,171.7 830.4,171.1 830.4,172.1 830.5,172.3 830.6,171.3 830.6,172.0 830.7,171.5 830.8,171.2 830.9,172.6 830.9,172.2 831.0,172.5 831.1,172.3 831.2,172.2 831.2,172.2 831.3,171.0 831.4,170.9 831.5,171.1 831.6,171.9 831.7,171.6 831.8,172.6 831.8,173.3 831.8,172.5 831.9,172.7 832.0,173.7 832.1,174.1 832.1,173.8 832.2,174.5 832.3,175.5 832.3,175.3 832.4,174.7 832.4,174.0 832.5,174.6 832.6,173.9 832.7,173.2 832.8,172.3 832.9,173.3 833.0,172.6 833.1,173.4 833.2,174.0 833.3,174.6 833.4,175.5 833.5,175.2 833.5,175.3 833.6,174.1 833.7,175.5 833.7,176.3 833.8,176.0 833.8,176.8 833.9,177.4 833.9,176.6 834.0,177.5 834.0,177.2 834.1,177.7 834.1,178.2 834.2,178.6 834.2,178.2 834.3,176.5 834.3,177.0 834.3,177.6 834.4,178.9 834.4,180.0 834.5,181.3 834.5,181.3 834.5,182.1 834.5,183.8 834.6,185.4 834.6,183.6 834.6,185.0 834.6,186.5 834.7,184.9 834.7,185.5 834.7,189.1 834.7,187.8 834.7,188.4 834.8,191.5 834.8,190.9 834.8,192.2 834.8,194.4 834.9,193.8 834.9,195.9 834.9,195.4 834.9,199.5 835.0,200.8 835.0,202.4 835.0,203.5 835.0,206.1 835.0,207.2 835.1,207.2 835.1,209.2 835.1,205.2 835.1,201.6 835.2,199.7 835.2,199.3 835.2,199.6 835.3,202.5 835.3,203.6 835.3,206.1 835.3,203.5 835.3,200.9 835.4,199.4 835.4,199.7 835.4,200.0 835.4,201.6 835.5,204.6 835.5,207.2 835.5,210.2 835.5,211.6 835.6,213.3 835.6,216.4 835.6,216.9 835.6,221.5 835.6,221.0 835.7,221.5 835.7,224.8 835.7,223.7 835.7,225.1 835.7,221.7 835.8,219.6 835.8,220.6 835.8,220.2 835.8,217.6 835.9,217.3 835.9,216.8 835.9,215.0 836.0,216.9 836.0,216.3 836.0,214.4 836.0,213.8 836.1,212.9 836.1,213.4 836.2,212.6 836.2,212.9 836.3,213.2 836.3,216.9 836.3,219.6 836.3,220.1 836.4,217.8 836.4,218.5 836.4,219.5 836.5,221.2 836.5,224.5 836.5,224.8 836.5,225.0 836.6,227.0 836.6,229.9 836.6,232.1 836.6,234.6 836.6,237.2 836.6,239.4 836.6,239.2 836.7,243.7 836.7,243.5 836.7,243.4 836.7,244.1 836.8,246.7 836.8,248.6 836.8,248.0 836.8,243.0 836.8,244.3 836.8,241.7 836.8,240.1 836.9,241.4 836.9,245.4 836.9,251.6 836.9,257.3 837.0,258.1 837.0,258.4 837.0,252.5 837.0,257.3 837.0,260.4 837.0,260.4 837.1,261.4 837.1,264.9 837.1,269.3 837.1,266.3 837.1,261.9 837.1,260.8 837.1,268.9 837.1,268.3 837.2,274.4 837.2,277.9 837.2,278.5 837.2,276.2 837.2,272.2 837.3,266.1 837.3,266.4 837.3,267.8 837.3,269.2 837.3,257.3 837.3,269.5 837.4,274.4 837.4,279.6 837.4,283.1 837.4,290.7 837.4,279.6 837.4,287.3 837.5,291.0 837.5,285.0 837.5,286.0 837.6,278.7 837.6,287.7 837.7,282.9 837.7,277.1 837.7,281.1 837.8,286.7 837.8,291.3 837.8,294.0 837.8,296.5 837.9,294.2 837.9,298.4 838.0,304.1 838.0,305.9 838.0,299.7 838.1,300.9 838.1,316.9 838.2,321.0 838.2,329.5 838.3,343.7 838.4,338.7 838.4,344.5 838.4,344.4 838.5,351.5 838.5,357.9 838.5,359.1 838.5,356.5 838.6,376.0 838.6,371.0 838.6,373.2 838.7,378.9 838.8,387.2 838.8,392.8 838.8,395.6 838.9,394.0 838.9,399.3 839.0,403.2 839.0,402.5 839.1,405.5 839.1,411.0 839.1,416.5 839.2,421.1 839.2,418.1 839.3,427.1 839.3,426.5 839.4,427.8 839.4,432.9 839.5,430.3 839.5,429.8 839.6,428.5 839.6,426.7 839.7,428.1 839.7,428.1 839.8,424.3 839.8,426.2 839.8,422.9 839.9,410.6 839.9,425.0 839.9,427.8 839.9,421.4 840.0,419.1 840.0,416.1 840.0,410.6 840.1,411.7 840.1,406.4 840.1,408.0 840.1,399.1 840.2,397.3 840.2,398.0 840.2,398.7 840.3,393.5 840.3,394.1 840.3,395.5 840.3,395.1 840.4,392.7 840.4,395.7 840.4,400.0 840.4,394.9 840.4,396.2 840.5,389.4 840.5,388.6 840.6,387.9 840.6,386.4 840.6,387.4 840.6,384.1 840.7,396.0 840.7,384.6 840.7,381.9 840.8,382.3 840.8,380.0 840.8,377.1 840.9,376.9 840.9,375.8 840.9,368.4 841.0,371.5 841.0,367.9 841.0,366.6 841.0,362.1 841.0,369.5 841.0,368.2 841.1,363.3 841.1,364.0 841.1,368.3 841.1,364.7 841.1,368.2 841.2,361.9 841.2,367.1 841.2,341.8 841.2,370.6 841.2,362.4 841.3,363.8 841.3,360.5 841.3,357.0 841.4,358.3 841.4,357.9 841.4,352.8 841.4,351.9 841.5,353.3 841.5,351.2 841.5,354.6 841.5,353.5 841.5,355.5 841.6,353.3 841.6,351.5 841.6,345.6 841.7,347.1 841.7,345.6 841.7,350.5 841.7,353.8 841.7,349.0 841.7,348.4 841.8,351.2 841.8,352.3 841.8,351.5 841.8,351.3 841.9,349.5 841.9,348.5 841.9,346.9 841.9,345.8 842.0,344.1 842.0,345.7 842.0,347.1 842.0,345.8 842.1,347.1 842.1,351.4 842.1,351.6 842.2,348.4 842.2,349.2 842.2,350.3 842.3,354.0 842.3,354.9 842.3,357.8 842.4,363.1 842.4,361.6 842.4,358.8 842.4,360.8 842.5,361.2 842.5,359.8 842.5,356.7 842.5,359.3 842.5,357.3 842.6,359.8 842.6,358.7 842.6,355.7 842.6,359.2 842.7,354.0 842.7,353.8 842.7,354.0 842.7,351.8 842.7,355.1 842.7,357.9 842.7,353.5 842.8,354.2 842.8,352.0 842.8,348.7 842.9,347.4 842.9,345.5 842.9,349.4 843.0,344.8 843.0,344.2 843.0,345.0 843.0,345.0 843.1,345.5 843.1,348.4 843.1,344.3 843.1,346.3 843.1,344.4 843.2,345.2 843.2,346.7 843.2,343.8 843.3,344.2 843.3,342.7 843.3,343.2 843.3,304.2 843.3,342.8 843.4,343.5 843.4,344.9 843.4,341.7 843.4,341.9 843.5,339.4 843.5,343.8 843.6,344.3 843.7,343.0 843.7,342.4 843.7,342.5 843.8,340.6 843.8,336.6 843.8,341.3 843.9,341.0 843.9,336.9 844.0,332.8 844.0,335.6 844.0,336.1 844.0,338.9 844.0,338.6 844.1,337.9 844.1,331.9 844.2,336.0 844.2,333.5 844.2,337.4 844.2,336.1 844.2,336.1 844.3,334.2 844.3,333.7 844.3,336.4 844.3,336.4 844.4,338.9 844.4,339.1 844.4,335.0 844.5,331.1 844.5,335.7 844.5,336.8 844.5,333.0 844.6,331.4 844.6,330.5 844.6,331.5 844.6,333.4 844.7,332.8 844.7,331.8 844.7,332.4 844.7,328.2 844.7,330.0 844.8,328.9 844.8,328.9 844.8,324.1 844.8,333.9 844.8,332.5 844.9,334.0 844.9,323.6 844.9,328.5 845.0,328.4 845.0,325.4 845.0,326.2 845.0,325.8 845.1,326.5 845.1,326.7 845.1,327.5 845.1,328.9 845.2,327.6 845.2,323.6 845.2,326.7 845.2,324.1 845.2,324.0 845.2,328.0 845.3,326.3 845.3,322.1 845.3,329.0 845.4,324.8 845.4,321.4 845.5,321.4 845.5,323.2 845.5,325.2 845.5,327.7 845.5,323.0 845.6,324.0 845.6,323.5 845.6,321.1 845.6,322.4 845.7,323.0 845.7,324.9 845.7,326.4 845.7,328.6 845.8,324.8 845.8,323.6 845.8,327.9 845.8,328.8 845.9,327.3 845.9,328.2 845.9,329.6 846.0,326.4 846.1,328.3 846.1,325.2 846.1,325.6 846.2,323.6 846.2,323.7 846.2,324.6 846.2,326.7 846.3,322.0 846.3,320.4 846.4,318.3 846.4,315.4 846.4,318.5 846.5,321.2 846.5,317.4 846.5,321.9 846.6,318.6 846.6,321.5 846.6,318.0 846.7,320.3 846.7,317.4 846.7,317.3 846.7,317.6 846.8,320.0 846.8,318.3 846.8,318.7 846.8,316.1 846.9,317.7 846.9,318.0 846.9,320.0 846.9,318.5 846.9,319.8 846.9,314.7 847.0,313.5 847.0,315.9 847.0,345.7 847.0,321.0 847.0,317.0 847.1,317.4 847.1,316.5 847.1,314.2 847.1,314.3 847.2,308.3 847.2,304.2 847.2,309.8 847.2,310.8 847.2,303.1 847.2,304.5 847.3,306.8 847.3,306.9 847.3,304.4 847.3,305.7 847.3,308.0 847.4,302.0 847.4,304.2 847.4,305.5 847.4,309.4 847.4,307.3 847.5,304.7 847.5,305.9 847.5,304.2 847.6,304.6 847.6,308.6 847.6,305.7 847.6,307.9 847.7,306.0 847.7,308.5 847.7,306.4 847.7,307.2 847.7,305.3 847.8,306.6 847.8,307.8 847.8,304.8 847.9,305.0 847.9,306.7 847.9,304.7 847.9,304.2 847.9,305.2 848.0,302.2 848.0,305.5 848.0,299.9 848.0,303.4 848.0,302.6 848.1,301.5 848.1,301.4 848.1,300.1 848.1,304.1 848.1,302.4 848.2,299.7 848.2,298.5 848.2,301.0 848.3,299.7 848.3,303.1 848.4,304.7 848.4,302.5 848.4,304.4 848.5,301.0 848.5,302.7 848.6,303.6 848.6,304.7 848.6,299.3 848.7,302.0 848.7,298.8 848.7,305.3 848.7,299.1 848.7,308.5 848.7,305.9 848.7,303.4 848.8,305.2 848.8,308.0 848.8,301.8 848.8,304.0 848.8,292.8 848.8,295.4 848.8,292.8 848.8,300.6 848.8,303.6 848.9,304.2 848.9,304.6 848.9,307.6 848.9,304.0 848.9,306.4 849.0,302.5 849.0,301.2 849.0,303.5 849.0,302.7 849.0,300.9 849.0,304.4 849.1,304.1 849.1,302.3 849.1,304.3 849.1,301.0 849.2,303.0 849.2,298.2 849.2,299.2 849.2,301.4 849.2,298.9 849.2,298.9 849.2,300.0 849.2,299.1 849.2,303.8 849.3,301.1 849.3,301.1 849.3,301.5 849.3,301.8 849.3,299.1 849.3,296.3 849.3,297.1 849.3,301.0 849.4,305.0 849.4,301.2 849.4,304.2 849.5,298.1 849.5,297.2 849.5,302.7 849.6,304.1 849.6,302.0 849.6,300.7 849.7,303.6 849.7,302.5 849.7,304.1 849.8,306.3 849.8,310.6 849.8,308.6 849.8,310.0 849.9,311.0 849.9,314.9 849.9,324.9 849.9,313.8 849.9,313.7 849.9,314.9 849.9,316.8 850.0,316.6 850.0,313.8 850.0,318.8 850.0,315.0 850.0,317.6 850.0,317.7 850.1,305.9 850.1,282.4 850.1,311.7 850.1,305.5 850.1,315.0 850.1,315.5 850.1,314.6 850.2,316.1 850.2,319.8 850.2,309.1 850.2,303.3 850.2,311.3 850.2,311.3 850.3,318.8 850.3,314.4 850.3,316.2 850.3,314.6 850.3,312.3 850.3,313.4 850.3,313.3 850.3,310.0 850.3,313.3 850.3,311.3 850.4,316.4 850.4,313.0 850.4,319.0 850.4,315.0 850.5,315.1 850.5,311.2 850.5,314.7 850.5,312.3 850.5,313.2 850.5,313.2 850.6,312.9 850.6,314.3 850.6,328.3 850.6,313.6 850.6,316.6 850.7,314.5 850.7,317.7 850.7,320.1 850.7,318.4 850.8,313.1 850.8,319.6 850.8,328.0 850.8,323.2 850.8,323.0 850.8,316.8 850.9,317.6 850.9,320.2 850.9,320.7 850.9,318.5 850.9,313.2 850.9,312.3 851.0,316.8 851.0,315.5 851.0,315.7 851.0,316.7 851.0,315.1 851.0,312.2 851.1,310.3 851.1,316.6 851.1,314.3 851.1,318.4 851.2,315.3 851.2,311.9 851.2,310.6 851.2,314.6 851.2,311.4 851.3,313.2 851.3,313.6 851.3,316.6 851.3,316.0 851.4,311.9 851.4,312.3 851.4,313.0 851.4,306.1 851.5,307.9 851.6,307.5 851.6,306.3 851.7,309.3 851.8,298.1 851.8,296.6 851.8,305.9 851.9,301.2 851.9,295.1 852.0,290.3 852.0,288.6 852.0,289.4 852.0,286.9 852.1,297.2 852.1,291.4 852.2,289.9 852.2,295.2 852.2,291.0 852.2,288.4 852.3,287.2 852.3,294.3 852.4,287.6 852.4,289.0 852.4,286.9 852.4,286.8 852.4,283.4 852.4,278.2 852.5,283.4 852.5,285.7 852.6,288.6 852.6,283.2 852.6,280.8 852.7,282.8 852.7,279.9 852.7,278.1 852.7,276.4 852.7,284.2 852.8,276.4 852.8,291.1 852.8,283.4 852.9,276.2 852.9,271.9 852.9,271.3 852.9,262.6 852.9,260.7 852.9,274.7 853.0,276.4 853.0,267.4 853.0,267.4 853.0,264.3 853.0,263.5 853.0,265.7 853.1,271.9 853.1,271.0 853.1,267.4 853.1,271.3 853.2,276.2 853.2,263.6 853.2,262.0 853.2,264.6 853.2,269.5 853.2,252.9 853.2,264.6 853.3,252.2 853.3,264.3 853.3,260.4 853.3,268.1 853.3,267.8 853.3,266.6 853.4,271.9 853.4,268.1 853.4,267.8 853.4,267.8 853.5,275.3 853.5,266.2 853.5,267.8 853.5,265.7 853.5,269.5 853.6,275.1 853.6,278.2 853.7,269.2 853.7,253.2 853.7,262.5 853.7,264.7 853.7,264.6 853.7,256.9 853.7,263.6 853.8,262.5 853.8,256.1 853.8,266.1 853.8,260.7 853.8,269.7 853.9,260.8 853.9,270.8 853.9,262.6 853.9,261.4 854.0,267.7 854.0,265.6 854.1,271.7 854.1,274.7 854.1,270.1 854.2,275.2 854.2,278.9 854.2,275.3 854.3,273.6 854.3,274.1 854.3,265.7 854.3,259.4 854.4,255.7 854.4,264.6 854.4,268.1 854.4,272.5 854.4,266.6 854.5,269.7 854.5,276.3 854.5,270.0 854.5,258.4 854.6,274.7 854.6,279.0 854.6,259.1 854.6,259.4 854.6,262.6 854.7,271.8 854.7,268.7 854.7,269.1 854.7,261.4 854.8,258.4 854.8,248.8 854.8,249.3 854.8,239.4 854.8,243.2 854.8,253.0 854.8,258.3 854.8,253.0 854.8,234.1 854.9,236.5 854.9,235.7 854.9,248.6 854.9,241.9 854.9,246.7 854.9,262.6 854.9,265.2 854.9,239.9 854.9,238.6 854.9,243.6 854.9,232.0 854.9,241.9 854.9,240.8 854.9,240.7 854.9,240.8 855.0,242.1 855.0,241.0 855.0,242.1 855.0,242.2 855.0,240.8 855.0,240.7 855.0,239.4 855.0,241.4 855.0,230.8 855.0,242.8 855.0,255.2 855.0,256.9 855.1,244.3 855.1,233.5 855.1,249.1 855.1,255.1 855.2,256.3 855.2,253.1 855.2,249.8 855.2,253.3 855.2,255.2 855.2,263.6 855.2,263.0 855.3,260.9 855.3,250.7 855.4,257.2 855.4,250.5 855.4,255.0 855.4,255.1 855.4,258.3 855.4,245.4 855.4,238.6 855.4,256.1 855.4,262.5 855.5,259.4 855.5,241.4 855.5,246.5 855.5,240.7 855.5,247.3 855.5,254.0 855.6,251.4 855.6,258.3 855.6,261.7 855.6,251.4 855.6,261.4 855.7,258.3 855.7,256.1 855.7,268.1 855.7,262.6 855.8,261.8 855.8,276.6 855.9,271.8 855.9,271.7 855.9,262.5 856.0,278.1 856.0,264.6 856.0,268.2 856.0,265.7 856.1,269.7 856.1,282.4 856.1,278.9 856.2,280.1 856.2,282.6 856.2,279.5 856.3,282.2 856.3,282.7 856.4,267.1 856.4,261.4 856.5,259.3 856.5,274.1 856.6,280.6 856.6,275.3 856.7,274.1 856.7,276.3 856.8,273.8 856.8,278.6 856.9,264.4 856.9,250.8 856.9,264.6 856.9,261.4 857.0,274.8 857.0,269.9 857.0,273.7 857.1,262.5 857.1,261.4 857.1,261.4 857.1,262.4 857.2,255.9 857.2,260.7 857.2,255.1 857.2,264.6 857.3,262.5 857.3,265.2 857.3,261.5 857.4,263.9 857.4,260.8 857.4,260.7 857.5,255.1 857.5,259.4 857.6,259.4 857.6,248.6 857.6,256.1 857.7,256.1 857.7,249.3 857.8,254.1 857.9,249.3 857.9,248.6 857.9,246.5 858.0,247.3 858.0,245.2 858.0,245.3 858.1,246.7 858.1,245.4 858.2,245.1 858.2,244.1 858.3,244.3 858.3,246.7 858.4,248.7 858.5,245.1 858.6,242.9 858.6,245.5 858.6,248.2 858.7,253.7 858.7,253.0 858.7,249.9 858.8,250.7 858.8,250.8 858.9,249.9 858.9,247.2 859.0,248.8 859.0,247.6 859.1,250.8 859.1,252.8 859.1,249.7 859.2,251.9 859.2,246.5 859.3,249.9 859.3,249.9 859.4,251.3 859.4,250.8 859.5,251.3 859.6,249.7 859.6,248.0 859.7,249.2 859.7,247.4 859.8,245.1 859.8,244.5 859.9,242.6 859.9,242.8 859.9,243.5 860.0,243.5 860.0,243.5 860.1,244.8 860.1,243.0 860.1,249.7 860.2,245.9 860.3,242.8 860.3,243.6 860.4,243.6 860.4,240.8 860.5,240.1 860.5,240.7 860.5,237.3 860.5,243.1 860.5,241.6 860.6,240.5 860.6,240.0 860.7,240.3 860.7,238.7 860.7,239.0 860.8,242.2 860.8,243.3 860.9,238.6 860.9,244.3 860.9,240.2 860.9,242.0 861.0,240.9 861.0,241.8 861.0,242.4 861.0,243.6 861.1,241.9 861.1,242.3 861.1,240.6 861.1,242.0 861.2,243.6 861.2,240.7 861.2,238.6 861.2,242.2 861.2,241.3 861.2,240.5 861.3,243.0 861.4,244.7 861.4,243.7 861.4,242.8 861.5,240.8 861.5,240.4 861.5,238.9 861.6,240.5 861.6,239.9 861.6,240.5 861.7,239.9 861.7,241.0 861.7,240.8 861.8,239.3 861.8,239.1 861.8,238.8 861.9,240.9 861.9,243.6 861.9,239.4 862.0,243.5 862.0,244.2 862.0,241.6 862.0,243.4 862.0,244.3 862.1,244.7 862.1,244.4 862.1,243.6 862.1,242.8 862.2,245.0 862.2,245.1 862.2,243.6 862.2,245.1 862.3,246.3 862.3,246.0 862.3,245.1 862.3,244.9 862.4,242.9 862.4,244.5 862.4,240.6 862.5,243.6 862.5,242.3 862.6,242.5 862.7,242.1 862.7,241.7 862.7,241.6 862.7,243.7 862.8,243.0 862.8,242.8 862.9,243.9 862.9,243.4 862.9,243.7 863.0,243.2 863.0,246.2 863.0,246.8 863.0,244.9 863.0,249.3 863.1,251.6 863.1,253.7 863.1,255.6 863.1,251.7 863.2,252.3 863.2,251.0 863.2,249.2 863.3,250.8 863.3,249.9 863.3,248.9 863.3,247.9 863.4,249.7 863.4,249.9 863.4,250.7 863.4,252.6 863.5,252.0 863.5,248.2 863.5,249.6 863.5,250.8 863.5,249.5 863.6,251.1 863.6,250.1 863.7,249.2 863.7,251.9 863.8,251.4 863.8,252.3 863.9,250.5 863.9,249.7 863.9,252.2 863.9,250.7 864.0,250.1 864.0,249.3 864.0,251.1 864.1,251.8 864.1,249.9 864.1,248.1 864.1,248.2 864.2,247.8 864.2,245.1 864.2,248.5 864.2,245.9 864.2,246.5 864.2,247.5 864.3,246.7 864.3,247.1 864.3,246.2 864.4,245.4 864.4,246.6 864.5,246.8 864.5,246.6 864.5,246.3 864.5,248.0 864.6,248.8 864.6,248.5 864.7,250.5 864.7,251.2 864.8,251.2 864.8,252.2 864.9,252.1 864.9,253.4 864.9,253.3 865.0,251.9 865.0,253.0 865.0,252.1 865.1,253.4 865.1,253.1 865.1,252.9 865.1,253.1 865.1,254.9 865.2,256.3 865.2,260.4 865.2,257.5 865.2,257.7 865.2,258.6 865.3,258.7 865.3,257.4 865.3,258.8 865.3,258.6 865.3,259.3 865.4,258.1 865.4,256.9 865.4,257.8 865.4,258.2 865.5,256.5 865.6,256.8 865.6,259.4 865.6,259.0 865.7,257.5 865.7,258.5 865.7,258.4 865.7,260.1 865.8,260.0 865.8,260.5 865.8,260.2 865.8,260.4 865.8,262.3 865.9,262.3 865.9,262.2 865.9,262.7 865.9,262.7 865.9,266.5 865.9,270.7 865.9,269.2 866.0,266.9 866.0,268.2 866.0,267.5 866.0,269.8 866.1,269.8 866.1,270.4 866.2,272.6 866.2,276.3 866.3,278.1 866.3,277.1 866.3,273.6 866.3,269.9 866.3,268.5 866.4,267.9 866.4,263.0 866.4,261.4 866.4,263.7 866.5,265.2 866.5,264.9 866.6,266.0 866.6,264.0 866.6,264.1 866.7,263.2 866.8,260.9 866.8,260.9 866.9,262.8 866.9,263.5 866.9,261.3 867.0,260.9 867.0,263.5 867.0,261.5 867.1,260.9 867.1,261.4 867.1,259.1 867.2,258.5 867.2,258.4 867.3,258.6 867.3,255.7 867.4,258.1 867.4,259.3 867.5,256.7 867.5,254.3 867.5,259.1 867.5,259.0 867.6,259.3 867.6,259.0 867.6,255.6 867.6,256.6 867.7,257.5 867.7,257.3 867.7,254.3 867.8,254.4 867.8,253.2 867.8,254.1 867.9,254.8 867.9,253.7 868.0,251.6 868.0,256.7 868.0,251.5 868.0,252.1 868.1,251.9 868.1,249.2 868.1,248.8 868.1,249.7 868.2,249.2 868.2,249.0 868.2,249.1 868.3,247.1 868.3,246.2 868.3,246.7 868.4,249.2 868.5,248.5 868.5,247.5 868.6,248.1 868.6,248.1 868.6,247.8 868.7,250.4 868.7,250.3 868.7,249.7 868.8,248.9 868.8,249.3 868.9,249.6 869.0,249.2 869.0,250.1 869.1,249.3 869.1,248.0 869.1,246.9 869.2,247.9 869.2,248.3 869.3,246.6 869.3,247.7 869.4,248.6 869.4,249.8 869.5,252.2 869.6,250.4 869.6,250.5 869.7,249.8 869.7,250.0 869.7,245.8 869.8,249.0 869.8,248.6 869.8,246.8 869.9,246.3 869.9,245.6 870.0,246.2 870.1,245.9 870.1,246.6 870.1,247.1 870.2,246.5 870.2,247.8 870.3,248.6 870.4,249.3 870.4,248.9 870.5,250.0 870.5,249.3 870.6,247.5 870.7,246.2 870.7,241.7 870.7,246.6 870.7,242.6 870.8,244.5 870.8,247.0 870.9,247.2 870.9,245.2 871.0,248.0 871.0,247.3 871.1,248.0 871.1,248.7 871.2,249.4 871.2,247.7 871.3,248.4 871.4,248.2 871.4,250.0 871.5,250.8 871.6,246.7 871.6,246.5 871.7,249.5 871.7,248.1 871.8,248.1 871.9,247.1 871.9,247.8 872.0,248.2 872.0,247.5 872.0,246.5 872.1,245.4 872.1,248.5 872.2,248.4 872.2,249.0 872.2,248.9 872.2,249.3 872.3,249.9 872.3,249.1 872.4,248.8 872.4,248.2 872.5,249.2 872.5,248.4 872.6,246.7 872.6,246.3 872.6,245.3 872.6,246.3 872.7,245.7 872.8,247.6 872.8,247.5 872.8,246.4 872.9,246.9 872.9,248.4 872.9,248.0 873.0,247.6 873.0,248.0 873.1,248.1 873.1,249.2 873.1,249.6 873.2,249.6 873.2,247.7 873.2,249.3 873.3,249.7 873.3,249.6 873.4,248.1 873.4,247.2 873.4,249.0 873.5,249.7 873.5,249.5 873.6,248.8 873.6,248.1 873.6,248.9 873.7,248.1 873.7,249.5 873.8,249.6 873.9,251.1 873.9,250.3 873.9,251.1 874.0,250.2 874.0,251.1 874.0,250.5 874.1,250.4 874.1,253.4 874.2,255.1 874.2,257.6 874.2,257.8 874.2,256.7 874.3,254.4 874.3,255.6 874.4,256.1 874.4,254.8 874.4,254.9 874.4,252.2 874.4,254.5 874.5,254.1 874.6,253.8 874.6,251.8 874.6,252.0 874.7,252.9 874.8,252.3 874.9,253.0 874.9,251.8 875.0,252.9 875.0,253.4 875.1,254.1 875.2,256.2 875.2,256.3 875.2,257.0 875.3,256.1 875.4,255.3 875.4,256.2 875.5,257.4 875.5,257.6 875.6,258.2 875.7,259.0 875.7,259.4 875.7,257.4 875.8,257.2 875.8,258.7 875.9,258.6 875.9,258.5 876.0,260.2 876.0,259.4 876.1,259.4 876.2,260.4 876.2,259.7 876.2,260.5 876.3,259.7 876.3,259.3 876.4,258.0 876.4,254.8 876.4,259.3 876.5,258.8 876.5,259.2 876.6,261.7 876.7,261.0 876.7,262.9 876.8,261.1 876.8,261.3 876.9,261.7 876.9,260.9 876.9,260.0 877.0,259.9 877.0,259.9 877.1,261.7 877.2,260.8 877.2,258.6 877.3,257.3 877.4,258.0 877.4,257.3 877.5,258.7 877.6,258.3 877.6,259.7 877.6,258.4 877.7,259.1 877.8,259.9 877.8,259.1 877.9,261.6 877.9,261.2 877.9,261.0 878.0,260.9 878.1,261.4 878.1,259.8 878.2,259.2 878.2,258.3 878.3,257.6 878.4,258.8 878.4,257.8 878.5,259.4 878.6,261.3 878.7,262.6 878.7,265.8 878.7,264.6 878.7,265.4 878.8,263.8 878.8,261.0 878.9,262.9 878.9,264.3 879.0,264.7 879.0,264.5 879.1,264.7 879.1,265.7 879.1,265.4 879.2,265.0 879.2,264.1 879.3,263.2 879.4,263.8 879.4,262.9 879.5,261.9 879.5,261.6 879.5,260.5 879.5,261.9 879.6,261.6 879.6,261.6 879.7,262.3 879.8,261.9 879.9,261.3 879.9,260.8 880.0,262.8 880.0,261.8 880.1,260.5 880.2,259.5 880.4,260.3 880.4,262.1 880.5,261.2 880.6,260.6 880.7,260.6 880.7,261.8 880.8,262.0 880.8,261.6 880.8,262.4 880.8,262.1 880.8,262.8 880.9,262.2 880.9,262.9 881.0,264.2 881.1,265.3 881.1,265.0 881.2,263.8 881.3,262.1 881.3,263.2 881.4,262.1 881.5,261.6 881.5,260.5 881.6,261.0 881.7,262.1 881.7,261.8 881.8,262.9 881.8,263.4 881.8,263.0 881.9,264.4 881.9,264.5 881.9,263.2 881.9,264.3 881.9,264.2 882.0,262.7 882.0,264.8 882.1,266.6 882.1,266.6 882.1,266.0 882.1,268.9 882.1,269.9 882.2,269.3 882.2,269.2 882.2,269.8 882.3,269.0 882.3,269.2 882.3,268.2 882.3,267.9 882.4,268.5 882.4,268.7 882.4,268.3 882.4,270.4 882.5,269.8 882.5,269.5 882.6,271.5 882.6,274.9 882.7,275.8 882.7,278.3 882.7,276.2 882.7,274.3 882.7,274.7 882.8,275.3 882.8,275.5 882.9,272.5 882.9,269.1 882.9,270.7 882.9,272.6 883.0,271.4 883.0,272.5 883.0,269.0 883.1,270.3 883.1,269.5 883.1,269.5 883.2,269.7 883.3,266.9 883.3,267.2 883.4,268.0 883.4,269.1 883.5,264.4 883.5,265.7 883.5,266.2 883.6,265.0 883.6,265.5 883.7,264.3 883.7,262.2 883.7,262.7 883.8,262.8 884.0,263.6 884.1,262.1 884.1,262.2 884.1,263.5 884.2,261.9 884.3,261.1 884.4,258.9 884.4,259.2 884.5,258.6 884.5,259.7 884.6,260.7 884.6,261.1 884.7,260.8 884.8,259.5 884.9,259.1 885.0,262.9 885.0,262.5 885.1,263.1 885.1,260.8 885.2,260.3 885.2,260.5 885.3,259.7 885.3,260.2 885.5,259.4 885.5,257.9 885.7,258.6 885.8,258.3 885.8,259.1 886.0,258.9 886.0,257.8 886.1,258.3 886.1,257.7 886.1,258.0 886.1,258.6 886.1,258.4 886.1,258.3 886.2,259.1 886.3,260.2 886.3,259.0 886.3,258.6 886.4,257.8 886.5,257.6 886.6,258.0 886.7,257.2 886.8,257.9 886.8,255.0 886.8,257.4 886.8,255.3 886.9,257.9 887.0,258.4 887.1,258.6 887.1,258.4 887.2,258.6 887.3,258.6 887.4,258.3 887.6,259.1 887.7,257.9 887.8,257.8 887.8,257.5 887.9,258.4 887.9,257.8 888.0,256.7 888.1,255.9 888.1,254.3 888.1,254.5 888.2,255.0 888.3,254.4 888.3,256.4 888.5,255.3 888.5,254.8 888.6,254.5 888.7,255.3 888.8,254.4 888.9,254.5 889.0,255.0 889.1,254.3 889.2,253.7 889.3,253.7 889.3,253.7 889.4,254.2 889.5,253.7 889.6,252.0 889.7,250.9 889.7,250.1 889.7,253.1 889.7,253.6 889.8,252.8 889.9,250.9 890.0,249.6 890.1,249.6 890.2,250.5 890.2,249.0 890.3,250.3 890.3,247.7 890.3,248.9 890.3,246.6 890.4,247.9 890.4,248.7 890.4,247.4 890.4,248.0 890.4,245.8 890.5,244.6 890.6,245.9 890.6,245.8 890.7,245.0 890.8,246.3 890.9,245.1 890.9,245.0 891.0,243.2 891.1,240.9 891.2,240.1 891.2,240.9 891.3,239.8 891.5,240.2 891.6,238.9 891.7,239.9 891.8,239.9 891.9,242.2 892.0,242.2 892.1,242.1 892.2,242.7 892.3,241.0 892.5,240.0 892.5,240.0 892.7,240.4 892.7,239.7 892.9,240.8 893.0,239.6 893.1,242.0 893.2,240.3 893.3,236.9 893.4,238.4 893.5,237.6 893.6,238.0 893.8,236.6 893.9,236.7 894.0,235.3 894.1,237.2 894.2,237.5 894.4,238.4 894.5,237.9 894.6,237.7 894.8,239.5 894.8,238.6 895.0,238.7 895.1,239.0 895.3,239.5 895.5,242.0 895.5,242.0 895.5,240.6 895.6,240.4 895.7,242.3 895.8,242.4 896.0,240.5 896.2,239.8 896.4,240.2 896.5,240.9 896.7,240.8 896.7,240.6 896.8,238.6 897.0,238.9 897.2,238.0 897.2,237.7 897.3,237.5 897.5,237.4 897.7,237.3 897.9,237.6 898.0,237.2 898.2,235.7 898.4,234.9 898.4,234.9 898.5,235.8 898.6,236.1 898.8,236.3 898.9,236.8 899.0,235.6 899.2,235.8 899.3,237.3 899.4,238.3 899.4,238.1 899.5,238.5 899.7,238.4 899.7,238.6 899.8,240.5 899.9,240.1 900.0,240.3 900.1,238.0 900.1,240.5 900.1,241.0 900.2,239.9 900.3,239.6 900.4,241.5 900.5,239.3 900.7,239.4 900.9,238.9 901.1,240.9 901.3,239.8 901.5,239.8 901.6,240.4 901.7,239.0 901.9,238.4 902.0,236.5 902.1,238.4 902.2,238.6 902.4,237.2 902.5,237.2 902.5,237.0 902.7,236.6 902.8,236.4 902.9,237.0 903.1,237.2 903.2,237.7 903.3,238.7 903.5,239.1 903.7,239.0 903.8,239.3 903.9,238.4 903.9,238.5 904.1,238.3 904.2,239.9 904.4,239.2 904.6,237.2 904.7,236.5 904.8,237.2 904.8,238.4 905.0,238.0 905.1,238.3 905.2,239.0 905.3,239.5 905.3,239.9 905.4,239.8 905.5,239.1 905.6,239.6 905.6,239.4 905.7,240.6 905.8,240.5 905.9,240.1 906.1,239.0 906.3,239.2 906.4,238.2 906.6,238.1 906.8,237.5 906.9,236.5 906.9,237.2 907.1,236.3 907.2,236.1 907.3,236.4 907.4,236.1 907.5,236.2 907.6,235.6 907.7,236.4 907.8,235.4 908.0,235.2 908.2,234.6 908.3,233.5 908.5,233.5 908.6,233.1 908.6,233.1 908.7,233.5 908.8,233.6 908.9,232.9 909.0,233.6 909.1,233.1 909.2,233.0 909.3,232.7 909.4,230.7 909.5,231.1 909.6,230.3 909.8,228.6 909.8,230.0 910.0,227.8 910.1,226.0 910.2,225.6 910.3,225.7 910.4,226.6 910.6,225.4 910.7,226.8 910.9,227.4 911.0,227.4 911.2,226.5 911.3,227.8 911.4,227.0 911.5,226.4 911.5,223.5 911.6,223.8 911.6,225.5 911.8,225.1 911.9,224.9 912.1,223.9 912.3,223.7 912.4,223.8 912.6,220.7 912.6,223.0 912.9,221.1 913.1,222.9 913.2,222.8 913.4,221.9 913.7,220.5 913.8,220.6 914.0,220.1 914.2,219.0 914.4,220.0 914.6,220.2 914.7,220.4 914.8,221.2 914.9,220.6 915.0,221.6 915.1,223.0 915.2,223.1 915.3,221.5 915.5,219.8 915.7,219.6 916.0,219.2 916.3,219.1 916.4,220.0 916.7,219.1 916.9,217.4 917.1,217.3 917.1,217.0 917.3,216.6 917.4,216.6 917.4,216.9 917.5,217.2 917.6,217.3 917.7,218.2 917.8,219.3 917.9,219.4 917.9,219.7 918.0,219.7 918.0,219.6 918.1,219.6 918.2,219.7 918.4,220.3 918.6,218.7 918.7,219.4 918.7,218.4 918.8,218.8 918.8,218.4 918.9,217.0 918.9,218.3 919.0,217.1 919.0,217.1 919.2,218.1 919.2,217.8 919.3,216.3 919.5,215.4 919.5,213.6 919.6,213.5 919.7,213.1 919.8,212.7 919.8,212.9 919.9,215.0 920.0,215.7 920.1,215.8 920.3,215.8 920.4,213.8 920.4,210.9 920.4,214.3 920.6,213.1 920.7,213.2 920.8,213.5 920.9,214.1 921.1,214.4 921.1,213.9 921.2,214.2 921.3,213.8 921.3,212.8 921.5,211.5 921.5,212.2 921.6,214.1 921.7,213.8 921.8,214.9 921.9,214.4 922.0,214.4 922.1,214.7 922.3,214.0 922.5,212.9 922.7,214.4 922.8,214.6 923.0,214.2 923.3,213.3 923.5,214.5 923.7,213.8 923.9,213.3 924.1,213.7 924.1,216.2 924.2,215.3 924.3,216.5 924.5,215.1 924.7,214.7 924.9,214.8 925.2,214.5 925.2,214.7 925.4,215.4 925.6,215.2 925.7,215.8 925.8,215.8 926.0,218.0 926.1,217.7 926.3,218.4 926.4,221.5 926.5,218.9 926.7,220.0 926.8,220.5 927.0,220.5 927.3,221.9 927.5,220.7 927.6,222.4 927.8,223.9 928.0,223.1 928.2,222.2 928.4,222.6 928.5,223.0 928.7,222.5 928.8,224.8 928.9,223.7 929.1,222.5 929.2,222.1 929.4,223.0 929.5,224.8 929.6,224.6 929.8,225.1 929.9,224.7 930.1,223.3 930.3,224.8 930.5,224.2 930.6,224.5 930.8,225.3 931.0,223.8 931.2,223.7 931.3,226.1 931.6,225.0 931.7,225.3 931.9,225.3 932.1,226.0 932.2,227.2 932.3,227.4 932.3,227.0 932.5,227.2 932.7,225.1 932.8,223.9 933.0,225.4 933.2,224.0 933.4,224.1 933.7,224.2 933.9,223.8 934.0,223.7" fill="none" stroke="#d97706" stroke-width="1.2" stroke-linejoin="round" opacity="0.6"/><text x="942" y="472.0" text-anchor="start" font-size="11" fill="#d97706">0.21</text><text x="942" y="396.0" text-anchor="start" font-size="11" fill="#d97706">0.34</text><text x="942" y="320.0" text-anchor="start" font-size="11" fill="#d97706">0.47</text><text x="942" y="244.0" text-anchor="start" font-size="11" fill="#d97706">0.61</text><text x="942" y="168.0" text-anchor="start" font-size="11" fill="#d97706">0.74</text><text x="942" y="92.0" text-anchor="start" font-size="11" fill="#d97706">0.87</text><text x="942" y="80.0" text-anchor="start" font-size="11" font-weight="600" fill="#d97706">price</text>
  <polygon points="366.7,468.0 366.7,352.8 366.7,353.3 396.1,353.9 611.8,354.7 631.4,351.0 712.0,351.4 824.6,349.1 824.9,347.2 824.9,347.7 824.9,348.3 825.1,349.0 826.6,350.0 826.7,350.5 830.1,351.1 831.8,351.8 834.6,348.1 834.8,348.6 835.0,346.3 835.2,346.7 835.3,347.3 835.4,348.1 835.5,349.0 835.6,347.1 836.1,347.6 836.3,348.2 836.6,345.3 836.6,343.4 836.9,341.6 836.9,342.1 836.9,342.7 836.9,343.4 837.1,339.7 837.1,340.2 837.1,340.8 837.1,341.6 837.1,342.5 837.1,343.0 837.1,343.6 837.1,344.4 837.1,345.3 837.1,345.8 837.1,346.4 837.1,347.2 837.1,348.1 837.1,348.6 837.1,349.2 837.2,346.3 837.2,346.8 837.2,347.4 837.2,348.1 837.2,349.1 837.2,349.5 837.2,350.1 837.2,350.9 837.3,347.2 837.3,347.7 837.3,348.3 837.4,345.4 837.4,345.9 837.4,346.5 837.4,347.3 837.4,343.6 837.4,344.1 837.4,344.7 837.4,345.4 837.4,346.4 837.4,346.9 837.4,347.5 837.4,348.2 837.4,349.2 837.4,349.7 837.4,350.3 837.4,351.0 837.4,352.0 837.4,352.5 837.5,353.1 837.5,353.8 837.5,354.8 837.5,352.9 837.5,353.4 837.5,354.0 837.6,351.0 837.6,351.5 837.6,352.1 837.6,352.9 837.8,353.8 837.8,354.3 837.8,354.9 837.8,355.6 837.8,356.6 837.8,357.1 837.8,357.7 837.8,358.4 837.9,354.8 838.0,352.9 838.0,353.4 838.0,354.0 838.0,351.0 838.0,349.2 838.1,347.3 838.1,347.7 838.1,348.3 838.1,345.4 838.1,345.9 838.1,346.5 838.1,347.3 838.1,343.6 838.2,341.7 838.2,342.2 838.2,342.8 838.2,339.9 838.2,340.3 838.2,341.0 838.2,341.7 838.2,338.0 838.2,336.1 838.2,336.6 838.2,337.2 838.2,338.0 838.2,338.9 838.2,339.4 838.2,340.0 838.2,340.8 838.3,337.1 838.3,337.6 838.3,338.2 838.3,338.9 838.3,335.2 838.3,333.3 838.3,331.5 838.3,329.6 838.3,330.1 838.3,330.7 838.3,331.4 838.3,332.3 838.3,332.8 838.4,330.5 838.4,330.9 838.5,328.6 838.5,326.7 838.5,327.2 838.5,327.8 838.5,328.5 838.5,329.5 838.5,330.0 838.6,330.6 838.6,331.3 838.6,332.2 838.6,332.7 838.6,333.3 838.6,330.4 838.6,328.5 838.6,329.0 838.6,326.6 838.6,327.1 838.6,327.7 838.6,328.4 838.6,329.4 838.6,329.9 838.6,330.5 838.6,327.5 838.6,325.6 838.6,326.1 838.6,323.8 838.6,324.2 838.6,324.9 838.6,325.6 838.6,326.6 838.6,327.0 838.6,324.7 838.6,322.8 838.6,323.3 838.6,323.9 838.7,321.0 838.7,319.1 838.7,317.2 838.7,315.4 838.7,315.8 838.7,313.5 838.7,314.0 838.7,314.6 838.7,311.7 838.7,312.1 838.7,312.7 838.7,313.5 838.7,314.5 838.7,314.9 838.7,315.5 838.7,316.3 838.7,312.6 838.8,310.7 838.8,308.9 838.8,309.3 838.8,309.9 838.8,310.7 838.8,311.7 838.8,312.1 838.8,312.7 838.8,309.8 838.8,310.3 838.8,310.9 838.8,311.6 838.8,308.0 838.8,308.5 838.8,309.1 838.8,309.8 838.8,310.8 838.9,308.9 838.9,309.4 838.9,310.0 838.9,307.1 838.9,307.5 838.9,305.2 838.9,305.7 838.9,303.3 838.9,301.5 838.9,299.6 838.9,300.1 839.0,297.7 839.0,298.2 839.0,298.8 839.1,295.9 839.1,296.3 839.1,296.9 839.1,294.0 839.1,294.5 839.1,295.1 839.1,292.2 839.2,290.3 839.2,290.8 839.2,291.4 839.2,292.2 839.2,293.1 839.2,293.6 839.2,294.2 839.2,294.9 839.2,295.9 839.2,296.4 839.2,297.0 839.3,297.7 839.3,298.7 839.3,299.2 839.3,296.8 839.3,297.3 839.3,294.9 839.3,293.1 839.3,293.5 839.3,291.2 839.3,291.7 839.3,289.3 839.3,289.8 839.3,290.4 839.3,291.2 839.3,292.1 839.3,290.2 839.3,290.7 839.3,288.3 839.3,288.8 839.3,286.4 839.3,286.9 839.3,284.6 839.3,285.1 839.3,285.7 839.3,282.8 839.3,283.2 839.3,280.9 839.3,281.4 839.3,279.0 839.3,279.5 839.3,280.1 839.3,277.1 839.3,275.3 839.3,273.4 839.3,273.9 839.3,271.6 839.3,272.0 839.3,269.7 839.4,270.1 839.4,270.7 839.4,267.8 839.4,268.3 839.4,268.9 839.4,269.7 839.4,266.0 839.4,266.5 839.5,267.1 839.5,267.8 839.5,268.8 839.6,269.3 839.7,269.9 839.7,270.6 839.8,271.5 839.8,269.7 839.9,270.1 839.9,267.8 839.9,265.9 839.9,266.4 839.9,264.0 839.9,264.5 839.9,262.2 839.9,262.6 839.9,260.3 839.9,258.4 839.9,256.6 839.9,257.1 839.9,257.7 839.9,258.4 839.9,259.4 839.9,259.9 839.9,257.5 839.9,255.6 839.9,253.8 839.9,254.3 840.0,254.9 840.0,255.6 840.0,256.6 840.0,254.7 840.0,255.2 840.0,255.8 840.0,256.5 840.0,257.5 840.0,255.6 840.0,256.1 840.0,256.7 840.0,253.8 840.0,254.2 840.0,254.8 840.0,255.6 840.0,256.6 840.0,254.7 840.0,255.1 840.0,255.7 840.0,256.5 840.1,252.8 840.1,253.3 840.1,251.0 840.1,251.5 840.1,249.1 840.1,249.6 840.1,247.3 840.1,245.4 840.1,245.9 840.1,246.5 840.1,243.5 840.1,244.0 840.1,244.6 840.1,245.3 840.1,246.3 840.1,246.7 840.1,247.3 840.1,248.1 840.1,249.0 840.1,247.1 840.1,245.2 840.1,245.7 840.1,246.3 840.1,243.4 840.1,243.9 840.1,244.5 840.1,245.3 840.1,246.2 840.2,246.7 840.2,247.3 840.2,248.1 840.2,249.0 840.2,249.5 840.2,247.2 840.2,247.6 840.2,245.3 840.2,245.8 840.2,243.4 840.2,243.9 840.2,244.5 840.2,245.3 840.2,246.2 840.3,246.7 840.3,244.4 840.3,242.5 840.3,243.0 840.3,240.6 840.3,241.1 840.3,241.7 840.3,238.8 840.3,239.3 840.3,236.9 840.3,237.4 840.3,235.0 840.3,235.5 840.3,233.2 840.3,233.6 840.3,231.3 840.3,231.8 840.3,229.4 840.4,229.9 840.4,230.5 840.4,231.3 840.4,232.2 840.4,232.7 840.4,233.3 840.5,230.4 840.6,230.8 840.6,231.4 840.6,232.2 840.6,233.1 840.6,231.2 840.6,229.4 840.6,229.9 840.6,230.5 840.6,231.2 840.6,232.2 840.6,230.3 840.6,230.8 840.6,228.5 840.6,228.9 840.6,229.5 840.6,226.6 840.6,227.1 840.6,224.7 840.6,225.2 840.6,225.8 840.6,222.9 840.6,223.4 840.6,221.0 840.6,221.5 840.6,219.2 840.6,219.7 840.6,217.3 840.6,217.8 840.6,215.5 840.6,213.6 840.6,211.7 840.6,212.2 840.6,209.9 840.6,210.3 840.6,208.0 840.6,208.5 840.6,206.1 840.6,206.6 840.7,207.2 840.7,204.3 840.7,202.4 840.7,202.9 840.7,200.5 840.7,201.0 840.7,201.6 840.7,198.6 840.7,199.1 840.7,196.8 840.7,197.3 840.7,194.9 840.7,195.4 840.7,196.0 840.7,196.7 840.7,197.7 840.7,198.2 840.7,198.8 840.8,195.8 840.8,196.3 840.8,196.9 840.9,197.6 840.9,198.6 840.9,196.7 840.9,197.1 840.9,194.8 840.9,195.3 840.9,195.9 840.9,196.7 840.9,193.0 841.0,191.1 841.0,191.6 841.0,192.2 841.0,189.2 841.0,189.7 841.0,187.4 841.0,187.9 841.0,185.5 841.0,186.0 841.0,186.6 841.0,183.6 841.0,181.7 841.0,182.2 841.0,179.8 841.0,180.3 841.0,178.0 841.0,178.5 841.0,179.1 841.0,176.2 841.0,176.7 841.0,177.3 841.0,178.0 841.1,179.0 841.1,177.1 841.1,175.2 841.1,173.3 841.1,173.8 841.1,174.4 841.1,175.2 841.1,171.5 841.1,172.0 841.1,172.5 841.1,169.6 841.1,167.7 841.1,168.2 841.1,168.8 841.1,169.6 841.2,170.5 841.2,171.0 841.2,171.6 841.2,172.4 841.2,168.7 841.2,169.2 841.2,166.9 841.2,167.3 841.2,165.0 841.2,163.1 841.2,161.3 841.2,159.4 841.2,157.5 841.2,158.0 841.2,155.6 841.2,156.1 841.2,153.8 841.2,154.3 841.2,151.9 841.2,150.1 841.2,150.6 841.2,148.2 841.2,148.7 841.2,146.3 841.2,146.8 841.2,147.4 841.2,148.2 841.2,149.1 841.2,149.6 841.2,150.2 841.2,151.0 841.2,147.3 841.2,147.8 841.3,145.5 841.3,143.6 841.3,144.0 841.3,144.6 841.3,141.7 841.3,142.2 841.3,139.9 841.3,138.0 841.3,138.5 841.3,139.1 841.3,139.9 841.3,140.8 841.3,141.3 841.3,141.9 841.3,142.6 841.4,139.0 841.5,139.5 841.5,140.1 841.5,140.8 841.5,141.8 841.6,142.2 841.6,142.8 841.6,143.6 841.7,139.9 841.7,140.4 841.7,138.1 841.7,138.5 841.7,139.2 841.7,139.9 841.7,136.2 841.7,136.7 841.7,137.3 841.7,138.0 841.7,139.0 841.7,139.5 841.7,140.1 841.8,140.8 841.8,141.8 841.8,142.3 841.8,142.8 841.8,143.6 841.8,144.5 841.9,145.0 841.9,145.6 841.9,146.4 842.0,142.7 842.0,143.2 842.0,143.8 842.0,144.6 842.1,140.9 842.2,141.4 842.2,142.0 842.2,142.7 842.2,143.7 842.3,141.8 842.3,142.3 842.4,139.9 842.4,140.4 842.4,138.0 842.4,136.2 842.4,136.7 842.4,134.3 842.4,134.8 842.4,135.4 842.4,132.5 842.4,133.0 842.4,130.6 842.4,131.1 842.5,131.7 842.5,128.8 842.5,126.9 842.5,127.4 842.5,128.0 842.5,128.8 842.5,129.7 842.7,127.8 842.7,128.3 842.7,128.9 842.8,129.7 842.8,130.6 842.9,128.7 842.9,129.2 843.0,129.8 843.0,130.6 843.0,131.5 843.0,132.0 843.0,132.6 843.0,133.3 843.0,134.3 843.0,134.8 843.1,135.4 843.1,136.1 843.1,137.1 843.3,135.2 843.3,135.6 843.3,133.3 843.3,133.8 843.3,131.5 843.3,131.9 843.3,132.6 843.3,133.3 843.4,134.3 843.4,134.7 843.4,135.4 843.4,136.1 843.8,137.1 843.8,137.5 844.0,138.2 844.0,138.9 844.0,139.9 844.0,140.3 844.0,141.0 844.0,141.7 844.0,142.7 844.0,143.1 844.0,143.8 844.0,144.5 844.0,145.5 844.0,143.6 844.1,144.1 844.1,141.7 844.1,142.2 844.1,142.8 844.1,143.6 844.2,144.5 844.2,145.0 844.2,145.6 844.2,146.4 844.2,142.7 844.2,143.2 844.2,143.8 844.2,144.6 844.3,145.5 844.3,146.0 844.3,146.6 844.3,147.4 844.3,148.3 844.5,148.8 844.5,149.4 844.6,150.1 844.6,151.1 844.6,151.5 844.6,152.2 844.6,152.9 844.7,153.9 844.7,154.3 844.7,154.9 844.7,155.7 844.7,156.6 844.8,157.1 844.8,157.7 844.8,158.4 844.8,159.4 844.8,159.8 844.8,160.4 844.8,161.2 844.8,162.1 844.8,162.6 844.8,163.2 844.8,164.0 844.8,164.9 844.8,165.4 844.8,166.0 844.9,166.8 844.9,163.1 844.9,163.6 844.9,161.2 844.9,159.4 844.9,157.5 845.2,155.6 845.2,153.7 845.2,154.2 845.2,154.8 845.2,155.6 845.3,156.5 845.3,157.0 845.3,157.6 845.3,158.4 845.3,159.3 845.3,159.8 845.3,160.4 845.3,157.5 845.3,158.0 845.4,155.6 845.5,156.1 845.5,156.7 845.6,157.5 845.6,158.4 845.6,158.9 845.6,159.5 845.6,160.3 846.1,161.2 846.3,161.7 846.5,162.3 846.5,163.1 846.5,164.0 846.9,162.1 846.9,162.6 846.9,163.2 847.0,160.3 847.0,160.8 847.0,158.4 847.0,156.5 847.0,157.0 847.0,154.6 847.0,155.1 847.0,152.8 847.0,153.2 847.0,150.9 847.0,151.4 847.0,152.0 847.0,152.7 847.0,149.1 847.0,147.2 847.0,147.7 847.0,148.3 847.0,149.0 847.0,150.0 847.0,150.4 847.1,151.0 847.1,151.8 847.2,148.1 847.2,148.6 847.2,149.2 847.2,150.0 847.2,150.9 847.2,151.4 847.2,152.0 847.2,152.8 847.2,153.7 847.2,154.2 847.2,154.8 847.2,155.5 847.3,156.5 847.4,156.9 847.4,157.6 847.7,158.3 847.7,159.3 848.1,157.4 848.1,157.9 848.2,158.5 848.2,159.2 848.3,160.2 848.3,160.7 848.3,161.3 848.3,162.0 848.7,158.3 848.7,158.8 848.7,159.4 848.8,156.5 848.8,156.9 848.8,154.6 848.8,152.7 848.8,153.2 848.8,150.8 848.8,148.9 848.8,149.4 848.8,150.0 848.8,150.8 848.8,147.1 848.9,147.6 848.9,148.2 848.9,149.0 848.9,149.9 848.9,150.4 848.9,151.0 849.0,148.0 849.3,148.5 849.3,149.1 849.7,146.2 849.9,144.3 849.9,142.5 849.9,140.6 849.9,141.1 849.9,138.7 849.9,139.2 849.9,139.8 849.9,136.9 849.9,137.3 849.9,135.0 849.9,133.1 849.9,131.2 849.9,131.7 849.9,132.3 849.9,129.4 849.9,129.9 849.9,130.5 849.9,127.5 849.9,128.0 849.9,128.6 849.9,129.4 849.9,130.3 849.9,130.8 849.9,131.4 849.9,132.2 849.9,133.1 850.0,133.6 850.0,134.2 850.0,134.9 850.0,135.9 850.0,136.4 850.0,137.0 850.0,137.7 850.0,138.7 850.0,139.2 850.0,139.8 850.1,136.8 850.1,134.9 850.1,133.0 850.1,131.2 850.1,129.3 850.1,129.8 850.1,127.4 850.1,127.9 850.1,125.5 850.1,126.0 850.1,126.6 850.2,123.7 850.2,124.2 850.2,121.8 850.2,122.3 850.2,122.9 850.2,123.7 850.2,124.6 850.2,125.1 850.2,125.7 850.2,126.5 850.3,122.8 850.3,120.9 850.3,119.0 850.3,119.5 850.3,120.1 850.3,120.8 850.4,121.8 850.4,122.2 850.4,122.8 850.6,119.9 850.6,120.4 850.6,118.0 850.6,118.5 850.6,119.1 850.6,116.1 850.7,116.6 850.7,117.2 850.7,118.0 850.7,118.9 850.7,119.4 850.7,120.0 850.7,120.7 850.7,121.7 850.7,122.1 850.8,122.7 850.8,119.8 850.8,120.3 850.8,120.9 850.8,121.7 850.8,122.6 850.8,123.1 850.8,120.8 850.9,121.3 850.9,121.9 850.9,122.6 850.9,123.6 850.9,124.1 850.9,124.7 850.9,121.7 850.9,122.2 850.9,122.8 850.9,123.6 851.0,124.5 851.0,125.0 851.0,125.6 851.0,126.4 851.0,127.3 851.1,127.8 851.1,128.4 851.1,129.2 851.2,130.1 851.2,130.6 851.2,131.2 851.4,131.9 851.5,132.9 851.5,133.3 851.5,133.9 851.5,134.7 851.5,135.6 851.5,136.1 851.5,136.7 851.5,137.5 851.5,138.4 851.6,138.9 851.6,139.5 851.6,136.6 851.6,137.0 851.6,137.6 851.7,138.4 851.8,139.3 851.8,137.4 851.8,137.9 851.8,138.5 851.8,139.3 851.8,135.6 851.8,133.7 851.8,134.2 851.8,134.8 851.9,135.5 851.9,131.8 851.9,132.3 851.9,130.0 851.9,130.5 851.9,131.1 851.9,131.8 851.9,132.7 852.0,130.9 852.0,131.3 852.0,131.9 852.0,132.7 852.0,133.7 852.0,134.1 852.0,134.7 852.0,135.5 852.0,136.5 852.0,136.9 852.1,134.6 852.2,135.1 852.2,135.7 852.2,132.7 852.2,133.2 852.2,133.8 852.2,134.6 852.2,135.5 852.2,136.0 852.3,136.6 852.3,137.4 852.3,133.7 852.3,134.1 852.4,131.8 852.4,132.3 852.4,132.9 852.4,133.7 852.4,134.6 852.4,135.1 852.4,135.7 852.4,136.4 852.4,137.4 852.5,137.9 852.5,138.5 852.5,139.2 852.5,140.2 852.5,140.7 852.5,141.2 852.5,138.3 852.6,136.4 852.6,136.9 852.6,137.5 852.7,138.3 852.7,139.2 852.7,139.7 852.7,140.3 852.7,141.1 852.7,142.0 852.7,142.5 852.7,143.1 852.7,143.8 852.7,144.8 852.7,145.2 852.7,145.8 852.7,146.6 852.7,147.5 852.7,148.0 852.7,148.6 852.8,149.4 852.8,150.3 852.8,150.8 852.8,151.4 852.8,148.5 852.8,149.0 852.8,149.6 852.8,150.3 852.8,146.7 852.8,147.2 852.8,147.8 852.9,144.8 852.9,145.3 852.9,145.9 852.9,146.7 852.9,147.6 852.9,148.1 852.9,148.7 852.9,149.4 852.9,150.4 852.9,150.8 852.9,151.4 852.9,148.5 852.9,146.6 852.9,147.1 852.9,147.7 852.9,148.5 852.9,144.8 852.9,145.3 852.9,145.9 852.9,143.0 852.9,143.5 853.0,144.1 853.0,144.8 853.0,145.7 853.0,146.2 853.0,146.8 853.0,147.6 853.0,148.5 853.0,149.0 853.0,149.6 853.0,146.7 853.0,147.2 853.0,147.8 853.0,148.5 853.0,149.5 853.0,150.0 853.0,150.6 853.0,151.3 853.0,152.3 853.0,152.8 853.0,153.3 853.0,154.1 853.0,155.0 853.0,155.5 853.0,156.1 853.1,156.9 853.1,157.8 853.1,155.9 853.1,154.0 853.1,154.5 853.1,155.1 853.1,152.2 853.1,152.7 853.1,150.3 853.1,150.8 853.1,151.4 853.1,152.2 853.1,148.5 853.1,149.0 853.1,146.7 853.1,147.1 853.1,144.8 853.1,145.2 853.1,145.8 853.1,146.6 853.1,147.5 853.1,148.0 853.1,148.6 853.1,149.3 853.2,150.3 853.2,150.8 853.2,151.4 853.2,152.1 853.2,153.1 853.2,153.6 853.2,154.2 853.2,154.9 853.2,155.9 853.2,156.4 853.2,157.0 853.2,157.7 853.2,158.6 853.2,159.1 853.2,159.7 853.2,160.5 853.2,161.4 853.2,161.9 853.2,162.5 853.2,163.2 853.2,164.2 853.2,164.7 853.2,165.3 853.2,166.0 853.2,167.0 853.2,167.4 853.2,168.0 853.2,168.8 853.2,169.7 853.2,170.2 853.2,170.8 853.2,171.5 853.3,167.9 853.3,168.4 853.3,169.0 853.3,169.7 853.3,166.0 853.3,166.5 853.3,167.1 853.3,167.9 853.3,168.8 853.3,169.3 853.3,169.9 853.3,170.6 853.3,171.6 853.3,172.0 853.3,172.7 853.3,169.7 853.3,170.2 853.3,167.8 853.3,168.3 853.3,166.0 853.3,164.1 853.3,164.6 853.3,165.2 853.3,165.9 853.3,166.9 853.3,167.3 853.3,167.9 853.3,168.7 853.4,169.6 853.4,170.1 853.4,170.7 853.4,171.4 853.4,172.4 853.4,172.9 853.4,173.5 853.4,174.2 853.4,175.2 853.4,175.7 853.4,176.2 853.4,177.0 853.4,177.9 853.4,178.4 853.4,179.0 853.4,179.8 853.4,180.7 853.5,178.8 853.5,179.3 853.5,176.9 853.5,177.4 853.5,178.0 853.5,178.7 853.5,179.7 853.5,180.2 853.5,180.8 853.5,177.8 853.5,178.3 853.5,178.9 853.5,179.7 853.5,180.6 853.5,181.1 853.5,181.7 853.5,182.5 853.5,178.8 853.5,176.9 853.5,175.0 853.5,175.5 853.5,176.1 853.5,176.9 853.5,177.8 853.5,175.9 853.5,176.4 853.6,177.0 853.6,177.8 853.6,178.7 853.6,179.2 853.6,179.8 853.7,176.9 853.7,177.4 853.7,178.0 853.7,175.0 853.7,175.5 853.7,176.1 853.7,176.8 853.7,177.8 853.7,178.3 853.7,178.9 853.7,179.6 853.8,180.6 853.8,181.0 853.8,181.6 853.8,182.4 853.8,183.3 853.8,183.8 853.8,184.4 853.8,185.2 853.8,186.1 853.8,186.6 853.8,184.2 853.8,184.7 853.9,185.3 853.9,186.1 854.0,187.0 854.3,187.5 854.3,185.2 854.3,185.6 854.3,186.2 854.3,187.0 854.3,188.0 854.3,188.4 854.4,189.0 854.4,186.1 854.4,186.6 854.4,187.2 854.4,188.0 854.4,188.9 854.4,189.4 854.5,190.0 854.5,187.1 854.5,185.2 854.5,183.3 854.5,183.8 854.5,184.4 854.6,181.5 854.6,181.9 854.6,179.6 854.6,177.8 854.6,178.2 854.6,178.8 854.6,179.6 854.6,175.9 854.7,176.4 854.7,177.0 854.7,177.7 854.7,178.7 854.7,179.1 854.7,179.7 854.7,180.5 854.8,176.8 854.8,175.0 854.8,175.4 854.8,176.0 854.8,176.8 854.8,177.7 854.8,178.2 854.8,178.8 854.8,179.6 854.8,180.5 854.8,181.0 854.8,181.6 854.8,182.3 854.8,183.3 854.8,183.8 854.8,181.4 854.8,181.9 854.8,182.5 854.8,179.5 854.8,177.6 854.8,178.1 854.9,178.7 854.9,179.5 854.9,180.4 854.9,180.9 854.9,178.5 854.9,176.6 854.9,177.1 854.9,177.7 854.9,178.5 854.9,174.8 854.9,175.2 854.9,175.8 854.9,172.9 854.9,173.4 854.9,174.0 854.9,174.8 854.9,175.7 854.9,176.2 854.9,173.9 854.9,172.0 854.9,172.5 854.9,173.1 854.9,173.8 854.9,174.8 854.9,175.3 854.9,175.9 855.0,176.6 855.0,177.5 855.0,178.0 855.0,178.6 855.0,179.4 855.0,180.3 855.0,178.4 855.0,176.6 855.0,177.1 855.1,174.7 855.1,175.2 855.1,172.9 855.1,173.4 855.1,171.0 855.1,169.1 855.1,169.6 855.2,170.2 855.2,171.0 855.2,171.9 855.2,170.0 855.2,170.5 855.2,171.1 855.2,171.9 855.2,172.8 855.2,173.3 855.2,173.9 855.2,174.7 855.2,171.0 855.2,171.4 855.2,172.0 855.2,172.8 855.3,169.1 855.3,169.6 855.3,170.2 855.3,171.0 855.3,171.9 855.4,172.4 855.4,173.0 855.4,173.8 855.4,170.1 855.4,170.6 855.4,171.2 855.4,171.9 855.4,172.9 855.4,173.3 855.4,173.9 855.4,174.7 855.4,171.0 855.4,171.5 855.4,169.2 855.4,167.3 855.4,167.8 855.5,165.4 855.5,165.9 855.5,163.6 855.5,164.1 855.5,164.7 855.5,165.4 855.5,161.8 855.5,159.9 855.5,158.0 855.5,158.5 855.6,156.1 855.6,156.6 855.6,154.3 855.6,154.8 855.6,152.4 855.6,152.9 855.6,153.5 855.6,150.5 855.6,148.7 855.6,149.1 855.6,149.7 855.6,150.5 855.7,146.8 855.7,145.0 855.7,145.5 855.7,146.1 855.7,146.8 855.7,147.7 855.7,148.2 855.8,145.9 855.8,146.3 855.8,147.0 855.8,147.7 855.8,148.7 855.8,149.1 855.8,149.8 855.8,150.5 855.8,151.5 855.8,151.9 855.9,152.6 855.9,153.3 855.9,154.3 855.9,154.7 855.9,155.3 855.9,156.1 855.9,157.0 855.9,157.5 855.9,158.1 855.9,158.9 855.9,159.8 855.9,160.3 855.9,160.9 855.9,161.7 855.9,162.6 855.9,163.1 856.0,163.7 856.0,164.5 856.0,160.8 856.0,161.2 856.0,161.8 856.0,162.6 856.0,159.0 856.0,159.4 856.0,160.0 856.0,157.1 856.1,155.2 856.1,153.4 856.1,153.9 856.1,154.5 856.1,155.2 856.1,156.2 856.1,156.6 856.1,154.3 856.1,154.8 856.1,152.4 856.1,152.9 856.1,150.6 856.1,148.7 856.1,149.2 856.1,149.8 856.1,150.5 856.2,151.5 856.2,152.0 856.2,152.6 856.2,153.3 856.2,154.2 856.2,154.7 856.2,155.3 856.2,152.4 856.2,152.9 856.4,153.5 856.4,150.5 856.4,151.0 856.5,151.6 856.5,152.3 856.5,153.3 856.5,153.7 856.5,154.4 856.5,155.1 856.5,156.1 856.6,154.2 856.6,154.7 856.6,155.3 856.6,156.1 856.6,157.0 856.6,155.1 856.6,155.6 856.6,153.2 856.6,153.7 856.6,154.3 856.6,155.1 856.6,156.0 856.7,154.1 856.7,152.2 856.7,150.3 856.7,150.8 856.7,151.4 856.9,152.2 856.9,153.1 856.9,153.6 856.9,154.2 856.9,151.2 856.9,151.7 856.9,152.3 856.9,153.1 856.9,154.0 856.9,154.5 856.9,155.1 856.9,155.8 856.9,156.8 856.9,157.3 856.9,157.9 856.9,155.0 856.9,155.4 856.9,156.0 856.9,156.8 856.9,157.7 857.0,158.2 857.0,158.8 857.0,159.5 857.0,160.5 857.0,160.9 857.0,158.6 857.0,156.8 857.0,157.2 857.0,157.8 857.1,154.9 857.1,155.4 857.1,156.0 857.1,156.7 857.1,157.7 857.1,158.2 857.1,158.8 857.1,159.5 857.1,160.4 857.1,158.6 857.2,156.7 857.2,157.2 857.2,157.8 857.2,158.5 857.3,159.5 857.3,160.0 857.3,160.6 857.4,161.3 857.4,162.2 857.6,160.4 857.6,160.8 857.6,161.4 857.7,162.2 857.8,163.1 857.8,163.6 857.8,164.2 857.9,161.2 858.7,159.4 858.7,159.9 858.7,160.5 859.0,157.5 859.0,158.0 859.0,158.6 859.0,159.4 859.2,160.3 859.2,160.8 859.8,161.4 859.9,162.2 859.9,163.1 860.0,163.6 860.0,164.2 860.4,164.9 860.5,165.9 860.5,166.4 860.8,166.9 860.8,167.7 860.9,168.6 862.0,169.1 862.0,169.7 862.0,170.5 862.0,171.4 862.2,171.9 862.4,172.5 863.0,173.3 863.0,174.2 863.0,174.7 864.2,175.3 864.2,176.1 865.1,172.4 865.9,170.5 865.9,171.0 865.9,171.6 866.0,172.4 866.0,173.3 866.0,173.8 866.1,174.4 866.1,175.2 866.3,176.1 867.2,174.2 867.3,174.7 867.3,175.3 867.3,176.1 867.3,177.0 867.3,177.5 867.3,178.1 867.5,178.9 867.5,179.8 867.5,180.3 867.6,180.9 867.6,181.6 867.7,182.6 868.1,180.7 870.7,181.2 870.7,181.8 870.7,182.5 870.8,183.4 870.9,183.9 870.9,184.5 871.0,185.3 872.1,186.2 872.1,186.7 872.6,187.3 872.8,188.1 875.6,184.4 876.2,184.9 876.3,185.5 876.6,186.3 877.2,187.2 877.9,187.7 878.1,188.3 878.6,189.1 879.5,190.0 882.1,188.1 883.3,188.6 883.4,189.2 883.4,190.0 885.5,186.3 885.5,186.8 885.8,187.4 885.8,188.2 886.8,189.1 886.9,189.6 887.8,190.2 887.8,191.0 888.1,191.9 890.3,190.0 891.1,190.5 909.4,188.2 909.8,188.7 917.0,186.3 919.5,186.8 920.2,187.4 920.3,188.2 924.3,189.1 926.0,189.6 926.0,468.0" fill="#16a34a" fill-opacity="0.08"/>
  <polyline points="366.7,352.8 366.7,353.3 396.1,353.9 611.8,354.7 631.4,351.0 712.0,351.4 824.6,349.1 824.9,347.2 824.9,347.7 824.9,348.3 825.1,349.0 826.6,350.0 826.7,350.5 830.1,351.1 831.8,351.8 834.6,348.1 834.8,348.6 835.0,346.3 835.2,346.7 835.3,347.3 835.4,348.1 835.5,349.0 835.6,347.1 836.1,347.6 836.3,348.2 836.6,345.3 836.6,343.4 836.9,341.6 836.9,342.1 836.9,342.7 836.9,343.4 837.1,339.7 837.1,340.2 837.1,340.8 837.1,341.6 837.1,342.5 837.1,343.0 837.1,343.6 837.1,344.4 837.1,345.3 837.1,345.8 837.1,346.4 837.1,347.2 837.1,348.1 837.1,348.6 837.1,349.2 837.2,346.3 837.2,346.8 837.2,347.4 837.2,348.1 837.2,349.1 837.2,349.5 837.2,350.1 837.2,350.9 837.3,347.2 837.3,347.7 837.3,348.3 837.4,345.4 837.4,345.9 837.4,346.5 837.4,347.3 837.4,343.6 837.4,344.1 837.4,344.7 837.4,345.4 837.4,346.4 837.4,346.9 837.4,347.5 837.4,348.2 837.4,349.2 837.4,349.7 837.4,350.3 837.4,351.0 837.4,352.0 837.4,352.5 837.5,353.1 837.5,353.8 837.5,354.8 837.5,352.9 837.5,353.4 837.5,354.0 837.6,351.0 837.6,351.5 837.6,352.1 837.6,352.9 837.8,353.8 837.8,354.3 837.8,354.9 837.8,355.6 837.8,356.6 837.8,357.1 837.8,357.7 837.8,358.4 837.9,354.8 838.0,352.9 838.0,353.4 838.0,354.0 838.0,351.0 838.0,349.2 838.1,347.3 838.1,347.7 838.1,348.3 838.1,345.4 838.1,345.9 838.1,346.5 838.1,347.3 838.1,343.6 838.2,341.7 838.2,342.2 838.2,342.8 838.2,339.9 838.2,340.3 838.2,341.0 838.2,341.7 838.2,338.0 838.2,336.1 838.2,336.6 838.2,337.2 838.2,338.0 838.2,338.9 838.2,339.4 838.2,340.0 838.2,340.8 838.3,337.1 838.3,337.6 838.3,338.2 838.3,338.9 838.3,335.2 838.3,333.3 838.3,331.5 838.3,329.6 838.3,330.1 838.3,330.7 838.3,331.4 838.3,332.3 838.3,332.8 838.4,330.5 838.4,330.9 838.5,328.6 838.5,326.7 838.5,327.2 838.5,327.8 838.5,328.5 838.5,329.5 838.5,330.0 838.6,330.6 838.6,331.3 838.6,332.2 838.6,332.7 838.6,333.3 838.6,330.4 838.6,328.5 838.6,329.0 838.6,326.6 838.6,327.1 838.6,327.7 838.6,328.4 838.6,329.4 838.6,329.9 838.6,330.5 838.6,327.5 838.6,325.6 838.6,326.1 838.6,323.8 838.6,324.2 838.6,324.9 838.6,325.6 838.6,326.6 838.6,327.0 838.6,324.7 838.6,322.8 838.6,323.3 838.6,323.9 838.7,321.0 838.7,319.1 838.7,317.2 838.7,315.4 838.7,315.8 838.7,313.5 838.7,314.0 838.7,314.6 838.7,311.7 838.7,312.1 838.7,312.7 838.7,313.5 838.7,314.5 838.7,314.9 838.7,315.5 838.7,316.3 838.7,312.6 838.8,310.7 838.8,308.9 838.8,309.3 838.8,309.9 838.8,310.7 838.8,311.7 838.8,312.1 838.8,312.7 838.8,309.8 838.8,310.3 838.8,310.9 838.8,311.6 838.8,308.0 838.8,308.5 838.8,309.1 838.8,309.8 838.8,310.8 838.9,308.9 838.9,309.4 838.9,310.0 838.9,307.1 838.9,307.5 838.9,305.2 838.9,305.7 838.9,303.3 838.9,301.5 838.9,299.6 838.9,300.1 839.0,297.7 839.0,298.2 839.0,298.8 839.1,295.9 839.1,296.3 839.1,296.9 839.1,294.0 839.1,294.5 839.1,295.1 839.1,292.2 839.2,290.3 839.2,290.8 839.2,291.4 839.2,292.2 839.2,293.1 839.2,293.6 839.2,294.2 839.2,294.9 839.2,295.9 839.2,296.4 839.2,297.0 839.3,297.7 839.3,298.7 839.3,299.2 839.3,296.8 839.3,297.3 839.3,294.9 839.3,293.1 839.3,293.5 839.3,291.2 839.3,291.7 839.3,289.3 839.3,289.8 839.3,290.4 839.3,291.2 839.3,292.1 839.3,290.2 839.3,290.7 839.3,288.3 839.3,288.8 839.3,286.4 839.3,286.9 839.3,284.6 839.3,285.1 839.3,285.7 839.3,282.8 839.3,283.2 839.3,280.9 839.3,281.4 839.3,279.0 839.3,279.5 839.3,280.1 839.3,277.1 839.3,275.3 839.3,273.4 839.3,273.9 839.3,271.6 839.3,272.0 839.3,269.7 839.4,270.1 839.4,270.7 839.4,267.8 839.4,268.3 839.4,268.9 839.4,269.7 839.4,266.0 839.4,266.5 839.5,267.1 839.5,267.8 839.5,268.8 839.6,269.3 839.7,269.9 839.7,270.6 839.8,271.5 839.8,269.7 839.9,270.1 839.9,267.8 839.9,265.9 839.9,266.4 839.9,264.0 839.9,264.5 839.9,262.2 839.9,262.6 839.9,260.3 839.9,258.4 839.9,256.6 839.9,257.1 839.9,257.7 839.9,258.4 839.9,259.4 839.9,259.9 839.9,257.5 839.9,255.6 839.9,253.8 839.9,254.3 840.0,254.9 840.0,255.6 840.0,256.6 840.0,254.7 840.0,255.2 840.0,255.8 840.0,256.5 840.0,257.5 840.0,255.6 840.0,256.1 840.0,256.7 840.0,253.8 840.0,254.2 840.0,254.8 840.0,255.6 840.0,256.6 840.0,254.7 840.0,255.1 840.0,255.7 840.0,256.5 840.1,252.8 840.1,253.3 840.1,251.0 840.1,251.5 840.1,249.1 840.1,249.6 840.1,247.3 840.1,245.4 840.1,245.9 840.1,246.5 840.1,243.5 840.1,244.0 840.1,244.6 840.1,245.3 840.1,246.3 840.1,246.7 840.1,247.3 840.1,248.1 840.1,249.0 840.1,247.1 840.1,245.2 840.1,245.7 840.1,246.3 840.1,243.4 840.1,243.9 840.1,244.5 840.1,245.3 840.1,246.2 840.2,246.7 840.2,247.3 840.2,248.1 840.2,249.0 840.2,249.5 840.2,247.2 840.2,247.6 840.2,245.3 840.2,245.8 840.2,243.4 840.2,243.9 840.2,244.5 840.2,245.3 840.2,246.2 840.3,246.7 840.3,244.4 840.3,242.5 840.3,243.0 840.3,240.6 840.3,241.1 840.3,241.7 840.3,238.8 840.3,239.3 840.3,236.9 840.3,237.4 840.3,235.0 840.3,235.5 840.3,233.2 840.3,233.6 840.3,231.3 840.3,231.8 840.3,229.4 840.4,229.9 840.4,230.5 840.4,231.3 840.4,232.2 840.4,232.7 840.4,233.3 840.5,230.4 840.6,230.8 840.6,231.4 840.6,232.2 840.6,233.1 840.6,231.2 840.6,229.4 840.6,229.9 840.6,230.5 840.6,231.2 840.6,232.2 840.6,230.3 840.6,230.8 840.6,228.5 840.6,228.9 840.6,229.5 840.6,226.6 840.6,227.1 840.6,224.7 840.6,225.2 840.6,225.8 840.6,222.9 840.6,223.4 840.6,221.0 840.6,221.5 840.6,219.2 840.6,219.7 840.6,217.3 840.6,217.8 840.6,215.5 840.6,213.6 840.6,211.7 840.6,212.2 840.6,209.9 840.6,210.3 840.6,208.0 840.6,208.5 840.6,206.1 840.6,206.6 840.7,207.2 840.7,204.3 840.7,202.4 840.7,202.9 840.7,200.5 840.7,201.0 840.7,201.6 840.7,198.6 840.7,199.1 840.7,196.8 840.7,197.3 840.7,194.9 840.7,195.4 840.7,196.0 840.7,196.7 840.7,197.7 840.7,198.2 840.7,198.8 840.8,195.8 840.8,196.3 840.8,196.9 840.9,197.6 840.9,198.6 840.9,196.7 840.9,197.1 840.9,194.8 840.9,195.3 840.9,195.9 840.9,196.7 840.9,193.0 841.0,191.1 841.0,191.6 841.0,192.2 841.0,189.2 841.0,189.7 841.0,187.4 841.0,187.9 841.0,185.5 841.0,186.0 841.0,186.6 841.0,183.6 841.0,181.7 841.0,182.2 841.0,179.8 841.0,180.3 841.0,178.0 841.0,178.5 841.0,179.1 841.0,176.2 841.0,176.7 841.0,177.3 841.0,178.0 841.1,179.0 841.1,177.1 841.1,175.2 841.1,173.3 841.1,173.8 841.1,174.4 841.1,175.2 841.1,171.5 841.1,172.0 841.1,172.5 841.1,169.6 841.1,167.7 841.1,168.2 841.1,168.8 841.1,169.6 841.2,170.5 841.2,171.0 841.2,171.6 841.2,172.4 841.2,168.7 841.2,169.2 841.2,166.9 841.2,167.3 841.2,165.0 841.2,163.1 841.2,161.3 841.2,159.4 841.2,157.5 841.2,158.0 841.2,155.6 841.2,156.1 841.2,153.8 841.2,154.3 841.2,151.9 841.2,150.1 841.2,150.6 841.2,148.2 841.2,148.7 841.2,146.3 841.2,146.8 841.2,147.4 841.2,148.2 841.2,149.1 841.2,149.6 841.2,150.2 841.2,151.0 841.2,147.3 841.2,147.8 841.3,145.5 841.3,143.6 841.3,144.0 841.3,144.6 841.3,141.7 841.3,142.2 841.3,139.9 841.3,138.0 841.3,138.5 841.3,139.1 841.3,139.9 841.3,140.8 841.3,141.3 841.3,141.9 841.3,142.6 841.4,139.0 841.5,139.5 841.5,140.1 841.5,140.8 841.5,141.8 841.6,142.2 841.6,142.8 841.6,143.6 841.7,139.9 841.7,140.4 841.7,138.1 841.7,138.5 841.7,139.2 841.7,139.9 841.7,136.2 841.7,136.7 841.7,137.3 841.7,138.0 841.7,139.0 841.7,139.5 841.7,140.1 841.8,140.8 841.8,141.8 841.8,142.3 841.8,142.8 841.8,143.6 841.8,144.5 841.9,145.0 841.9,145.6 841.9,146.4 842.0,142.7 842.0,143.2 842.0,143.8 842.0,144.6 842.1,140.9 842.2,141.4 842.2,142.0 842.2,142.7 842.2,143.7 842.3,141.8 842.3,142.3 842.4,139.9 842.4,140.4 842.4,138.0 842.4,136.2 842.4,136.7 842.4,134.3 842.4,134.8 842.4,135.4 842.4,132.5 842.4,133.0 842.4,130.6 842.4,131.1 842.5,131.7 842.5,128.8 842.5,126.9 842.5,127.4 842.5,128.0 842.5,128.8 842.5,129.7 842.7,127.8 842.7,128.3 842.7,128.9 842.8,129.7 842.8,130.6 842.9,128.7 842.9,129.2 843.0,129.8 843.0,130.6 843.0,131.5 843.0,132.0 843.0,132.6 843.0,133.3 843.0,134.3 843.0,134.8 843.1,135.4 843.1,136.1 843.1,137.1 843.3,135.2 843.3,135.6 843.3,133.3 843.3,133.8 843.3,131.5 843.3,131.9 843.3,132.6 843.3,133.3 843.4,134.3 843.4,134.7 843.4,135.4 843.4,136.1 843.8,137.1 843.8,137.5 844.0,138.2 844.0,138.9 844.0,139.9 844.0,140.3 844.0,141.0 844.0,141.7 844.0,142.7 844.0,143.1 844.0,143.8 844.0,144.5 844.0,145.5 844.0,143.6 844.1,144.1 844.1,141.7 844.1,142.2 844.1,142.8 844.1,143.6 844.2,144.5 844.2,145.0 844.2,145.6 844.2,146.4 844.2,142.7 844.2,143.2 844.2,143.8 844.2,144.6 844.3,145.5 844.3,146.0 844.3,146.6 844.3,147.4 844.3,148.3 844.5,148.8 844.5,149.4 844.6,150.1 844.6,151.1 844.6,151.5 844.6,152.2 844.6,152.9 844.7,153.9 844.7,154.3 844.7,154.9 844.7,155.7 844.7,156.6 844.8,157.1 844.8,157.7 844.8,158.4 844.8,159.4 844.8,159.8 844.8,160.4 844.8,161.2 844.8,162.1 844.8,162.6 844.8,163.2 844.8,164.0 844.8,164.9 844.8,165.4 844.8,166.0 844.9,166.8 844.9,163.1 844.9,163.6 844.9,161.2 844.9,159.4 844.9,157.5 845.2,155.6 845.2,153.7 845.2,154.2 845.2,154.8 845.2,155.6 845.3,156.5 845.3,157.0 845.3,157.6 845.3,158.4 845.3,159.3 845.3,159.8 845.3,160.4 845.3,157.5 845.3,158.0 845.4,155.6 845.5,156.1 845.5,156.7 845.6,157.5 845.6,158.4 845.6,158.9 845.6,159.5 845.6,160.3 846.1,161.2 846.3,161.7 846.5,162.3 846.5,163.1 846.5,164.0 846.9,162.1 846.9,162.6 846.9,163.2 847.0,160.3 847.0,160.8 847.0,158.4 847.0,156.5 847.0,157.0 847.0,154.6 847.0,155.1 847.0,152.8 847.0,153.2 847.0,150.9 847.0,151.4 847.0,152.0 847.0,152.7 847.0,149.1 847.0,147.2 847.0,147.7 847.0,148.3 847.0,149.0 847.0,150.0 847.0,150.4 847.1,151.0 847.1,151.8 847.2,148.1 847.2,148.6 847.2,149.2 847.2,150.0 847.2,150.9 847.2,151.4 847.2,152.0 847.2,152.8 847.2,153.7 847.2,154.2 847.2,154.8 847.2,155.5 847.3,156.5 847.4,156.9 847.4,157.6 847.7,158.3 847.7,159.3 848.1,157.4 848.1,157.9 848.2,158.5 848.2,159.2 848.3,160.2 848.3,160.7 848.3,161.3 848.3,162.0 848.7,158.3 848.7,158.8 848.7,159.4 848.8,156.5 848.8,156.9 848.8,154.6 848.8,152.7 848.8,153.2 848.8,150.8 848.8,148.9 848.8,149.4 848.8,150.0 848.8,150.8 848.8,147.1 848.9,147.6 848.9,148.2 848.9,149.0 848.9,149.9 848.9,150.4 848.9,151.0 849.0,148.0 849.3,148.5 849.3,149.1 849.7,146.2 849.9,144.3 849.9,142.5 849.9,140.6 849.9,141.1 849.9,138.7 849.9,139.2 849.9,139.8 849.9,136.9 849.9,137.3 849.9,135.0 849.9,133.1 849.9,131.2 849.9,131.7 849.9,132.3 849.9,129.4 849.9,129.9 849.9,130.5 849.9,127.5 849.9,128.0 849.9,128.6 849.9,129.4 849.9,130.3 849.9,130.8 849.9,131.4 849.9,132.2 849.9,133.1 850.0,133.6 850.0,134.2 850.0,134.9 850.0,135.9 850.0,136.4 850.0,137.0 850.0,137.7 850.0,138.7 850.0,139.2 850.0,139.8 850.1,136.8 850.1,134.9 850.1,133.0 850.1,131.2 850.1,129.3 850.1,129.8 850.1,127.4 850.1,127.9 850.1,125.5 850.1,126.0 850.1,126.6 850.2,123.7 850.2,124.2 850.2,121.8 850.2,122.3 850.2,122.9 850.2,123.7 850.2,124.6 850.2,125.1 850.2,125.7 850.2,126.5 850.3,122.8 850.3,120.9 850.3,119.0 850.3,119.5 850.3,120.1 850.3,120.8 850.4,121.8 850.4,122.2 850.4,122.8 850.6,119.9 850.6,120.4 850.6,118.0 850.6,118.5 850.6,119.1 850.6,116.1 850.7,116.6 850.7,117.2 850.7,118.0 850.7,118.9 850.7,119.4 850.7,120.0 850.7,120.7 850.7,121.7 850.7,122.1 850.8,122.7 850.8,119.8 850.8,120.3 850.8,120.9 850.8,121.7 850.8,122.6 850.8,123.1 850.8,120.8 850.9,121.3 850.9,121.9 850.9,122.6 850.9,123.6 850.9,124.1 850.9,124.7 850.9,121.7 850.9,122.2 850.9,122.8 850.9,123.6 851.0,124.5 851.0,125.0 851.0,125.6 851.0,126.4 851.0,127.3 851.1,127.8 851.1,128.4 851.1,129.2 851.2,130.1 851.2,130.6 851.2,131.2 851.4,131.9 851.5,132.9 851.5,133.3 851.5,133.9 851.5,134.7 851.5,135.6 851.5,136.1 851.5,136.7 851.5,137.5 851.5,138.4 851.6,138.9 851.6,139.5 851.6,136.6 851.6,137.0 851.6,137.6 851.7,138.4 851.8,139.3 851.8,137.4 851.8,137.9 851.8,138.5 851.8,139.3 851.8,135.6 851.8,133.7 851.8,134.2 851.8,134.8 851.9,135.5 851.9,131.8 851.9,132.3 851.9,130.0 851.9,130.5 851.9,131.1 851.9,131.8 851.9,132.7 852.0,130.9 852.0,131.3 852.0,131.9 852.0,132.7 852.0,133.7 852.0,134.1 852.0,134.7 852.0,135.5 852.0,136.5 852.0,136.9 852.1,134.6 852.2,135.1 852.2,135.7 852.2,132.7 852.2,133.2 852.2,133.8 852.2,134.6 852.2,135.5 852.2,136.0 852.3,136.6 852.3,137.4 852.3,133.7 852.3,134.1 852.4,131.8 852.4,132.3 852.4,132.9 852.4,133.7 852.4,134.6 852.4,135.1 852.4,135.7 852.4,136.4 852.4,137.4 852.5,137.9 852.5,138.5 852.5,139.2 852.5,140.2 852.5,140.7 852.5,141.2 852.5,138.3 852.6,136.4 852.6,136.9 852.6,137.5 852.7,138.3 852.7,139.2 852.7,139.7 852.7,140.3 852.7,141.1 852.7,142.0 852.7,142.5 852.7,143.1 852.7,143.8 852.7,144.8 852.7,145.2 852.7,145.8 852.7,146.6 852.7,147.5 852.7,148.0 852.7,148.6 852.8,149.4 852.8,150.3 852.8,150.8 852.8,151.4 852.8,148.5 852.8,149.0 852.8,149.6 852.8,150.3 852.8,146.7 852.8,147.2 852.8,147.8 852.9,144.8 852.9,145.3 852.9,145.9 852.9,146.7 852.9,147.6 852.9,148.1 852.9,148.7 852.9,149.4 852.9,150.4 852.9,150.8 852.9,151.4 852.9,148.5 852.9,146.6 852.9,147.1 852.9,147.7 852.9,148.5 852.9,144.8 852.9,145.3 852.9,145.9 852.9,143.0 852.9,143.5 853.0,144.1 853.0,144.8 853.0,145.7 853.0,146.2 853.0,146.8 853.0,147.6 853.0,148.5 853.0,149.0 853.0,149.6 853.0,146.7 853.0,147.2 853.0,147.8 853.0,148.5 853.0,149.5 853.0,150.0 853.0,150.6 853.0,151.3 853.0,152.3 853.0,152.8 853.0,153.3 853.0,154.1 853.0,155.0 853.0,155.5 853.0,156.1 853.1,156.9 853.1,157.8 853.1,155.9 853.1,154.0 853.1,154.5 853.1,155.1 853.1,152.2 853.1,152.7 853.1,150.3 853.1,150.8 853.1,151.4 853.1,152.2 853.1,148.5 853.1,149.0 853.1,146.7 853.1,147.1 853.1,144.8 853.1,145.2 853.1,145.8 853.1,146.6 853.1,147.5 853.1,148.0 853.1,148.6 853.1,149.3 853.2,150.3 853.2,150.8 853.2,151.4 853.2,152.1 853.2,153.1 853.2,153.6 853.2,154.2 853.2,154.9 853.2,155.9 853.2,156.4 853.2,157.0 853.2,157.7 853.2,158.6 853.2,159.1 853.2,159.7 853.2,160.5 853.2,161.4 853.2,161.9 853.2,162.5 853.2,163.2 853.2,164.2 853.2,164.7 853.2,165.3 853.2,166.0 853.2,167.0 853.2,167.4 853.2,168.0 853.2,168.8 853.2,169.7 853.2,170.2 853.2,170.8 853.2,171.5 853.3,167.9 853.3,168.4 853.3,169.0 853.3,169.7 853.3,166.0 853.3,166.5 853.3,167.1 853.3,167.9 853.3,168.8 853.3,169.3 853.3,169.9 853.3,170.6 853.3,171.6 853.3,172.0 853.3,172.7 853.3,169.7 853.3,170.2 853.3,167.8 853.3,168.3 853.3,166.0 853.3,164.1 853.3,164.6 853.3,165.2 853.3,165.9 853.3,166.9 853.3,167.3 853.3,167.9 853.3,168.7 853.4,169.6 853.4,170.1 853.4,170.7 853.4,171.4 853.4,172.4 853.4,172.9 853.4,173.5 853.4,174.2 853.4,175.2 853.4,175.7 853.4,176.2 853.4,177.0 853.4,177.9 853.4,178.4 853.4,179.0 853.4,179.8 853.4,180.7 853.5,178.8 853.5,179.3 853.5,176.9 853.5,177.4 853.5,178.0 853.5,178.7 853.5,179.7 853.5,180.2 853.5,180.8 853.5,177.8 853.5,178.3 853.5,178.9 853.5,179.7 853.5,180.6 853.5,181.1 853.5,181.7 853.5,182.5 853.5,178.8 853.5,176.9 853.5,175.0 853.5,175.5 853.5,176.1 853.5,176.9 853.5,177.8 853.5,175.9 853.5,176.4 853.6,177.0 853.6,177.8 853.6,178.7 853.6,179.2 853.6,179.8 853.7,176.9 853.7,177.4 853.7,178.0 853.7,175.0 853.7,175.5 853.7,176.1 853.7,176.8 853.7,177.8 853.7,178.3 853.7,178.9 853.7,179.6 853.8,180.6 853.8,181.0 853.8,181.6 853.8,182.4 853.8,183.3 853.8,183.8 853.8,184.4 853.8,185.2 853.8,186.1 853.8,186.6 853.8,184.2 853.8,184.7 853.9,185.3 853.9,186.1 854.0,187.0 854.3,187.5 854.3,185.2 854.3,185.6 854.3,186.2 854.3,187.0 854.3,188.0 854.3,188.4 854.4,189.0 854.4,186.1 854.4,186.6 854.4,187.2 854.4,188.0 854.4,188.9 854.4,189.4 854.5,190.0 854.5,187.1 854.5,185.2 854.5,183.3 854.5,183.8 854.5,184.4 854.6,181.5 854.6,181.9 854.6,179.6 854.6,177.8 854.6,178.2 854.6,178.8 854.6,179.6 854.6,175.9 854.7,176.4 854.7,177.0 854.7,177.7 854.7,178.7 854.7,179.1 854.7,179.7 854.7,180.5 854.8,176.8 854.8,175.0 854.8,175.4 854.8,176.0 854.8,176.8 854.8,177.7 854.8,178.2 854.8,178.8 854.8,179.6 854.8,180.5 854.8,181.0 854.8,181.6 854.8,182.3 854.8,183.3 854.8,183.8 854.8,181.4 854.8,181.9 854.8,182.5 854.8,179.5 854.8,177.6 854.8,178.1 854.9,178.7 854.9,179.5 854.9,180.4 854.9,180.9 854.9,178.5 854.9,176.6 854.9,177.1 854.9,177.7 854.9,178.5 854.9,174.8 854.9,175.2 854.9,175.8 854.9,172.9 854.9,173.4 854.9,174.0 854.9,174.8 854.9,175.7 854.9,176.2 854.9,173.9 854.9,172.0 854.9,172.5 854.9,173.1 854.9,173.8 854.9,174.8 854.9,175.3 854.9,175.9 855.0,176.6 855.0,177.5 855.0,178.0 855.0,178.6 855.0,179.4 855.0,180.3 855.0,178.4 855.0,176.6 855.0,177.1 855.1,174.7 855.1,175.2 855.1,172.9 855.1,173.4 855.1,171.0 855.1,169.1 855.1,169.6 855.2,170.2 855.2,171.0 855.2,171.9 855.2,170.0 855.2,170.5 855.2,171.1 855.2,171.9 855.2,172.8 855.2,173.3 855.2,173.9 855.2,174.7 855.2,171.0 855.2,171.4 855.2,172.0 855.2,172.8 855.3,169.1 855.3,169.6 855.3,170.2 855.3,171.0 855.3,171.9 855.4,172.4 855.4,173.0 855.4,173.8 855.4,170.1 855.4,170.6 855.4,171.2 855.4,171.9 855.4,172.9 855.4,173.3 855.4,173.9 855.4,174.7 855.4,171.0 855.4,171.5 855.4,169.2 855.4,167.3 855.4,167.8 855.5,165.4 855.5,165.9 855.5,163.6 855.5,164.1 855.5,164.7 855.5,165.4 855.5,161.8 855.5,159.9 855.5,158.0 855.5,158.5 855.6,156.1 855.6,156.6 855.6,154.3 855.6,154.8 855.6,152.4 855.6,152.9 855.6,153.5 855.6,150.5 855.6,148.7 855.6,149.1 855.6,149.7 855.6,150.5 855.7,146.8 855.7,145.0 855.7,145.5 855.7,146.1 855.7,146.8 855.7,147.7 855.7,148.2 855.8,145.9 855.8,146.3 855.8,147.0 855.8,147.7 855.8,148.7 855.8,149.1 855.8,149.8 855.8,150.5 855.8,151.5 855.8,151.9 855.9,152.6 855.9,153.3 855.9,154.3 855.9,154.7 855.9,155.3 855.9,156.1 855.9,157.0 855.9,157.5 855.9,158.1 855.9,158.9 855.9,159.8 855.9,160.3 855.9,160.9 855.9,161.7 855.9,162.6 855.9,163.1 856.0,163.7 856.0,164.5 856.0,160.8 856.0,161.2 856.0,161.8 856.0,162.6 856.0,159.0 856.0,159.4 856.0,160.0 856.0,157.1 856.1,155.2 856.1,153.4 856.1,153.9 856.1,154.5 856.1,155.2 856.1,156.2 856.1,156.6 856.1,154.3 856.1,154.8 856.1,152.4 856.1,152.9 856.1,150.6 856.1,148.7 856.1,149.2 856.1,149.8 856.1,150.5 856.2,151.5 856.2,152.0 856.2,152.6 856.2,153.3 856.2,154.2 856.2,154.7 856.2,155.3 856.2,152.4 856.2,152.9 856.4,153.5 856.4,150.5 856.4,151.0 856.5,151.6 856.5,152.3 856.5,153.3 856.5,153.7 856.5,154.4 856.5,155.1 856.5,156.1 856.6,154.2 856.6,154.7 856.6,155.3 856.6,156.1 856.6,157.0 856.6,155.1 856.6,155.6 856.6,153.2 856.6,153.7 856.6,154.3 856.6,155.1 856.6,156.0 856.7,154.1 856.7,152.2 856.7,150.3 856.7,150.8 856.7,151.4 856.9,152.2 856.9,153.1 856.9,153.6 856.9,154.2 856.9,151.2 856.9,151.7 856.9,152.3 856.9,153.1 856.9,154.0 856.9,154.5 856.9,155.1 856.9,155.8 856.9,156.8 856.9,157.3 856.9,157.9 856.9,155.0 856.9,155.4 856.9,156.0 856.9,156.8 856.9,157.7 857.0,158.2 857.0,158.8 857.0,159.5 857.0,160.5 857.0,160.9 857.0,158.6 857.0,156.8 857.0,157.2 857.0,157.8 857.1,154.9 857.1,155.4 857.1,156.0 857.1,156.7 857.1,157.7 857.1,158.2 857.1,158.8 857.1,159.5 857.1,160.4 857.1,158.6 857.2,156.7 857.2,157.2 857.2,157.8 857.2,158.5 857.3,159.5 857.3,160.0 857.3,160.6 857.4,161.3 857.4,162.2 857.6,160.4 857.6,160.8 857.6,161.4 857.7,162.2 857.8,163.1 857.8,163.6 857.8,164.2 857.9,161.2 858.7,159.4 858.7,159.9 858.7,160.5 859.0,157.5 859.0,158.0 859.0,158.6 859.0,159.4 859.2,160.3 859.2,160.8 859.8,161.4 859.9,162.2 859.9,163.1 860.0,163.6 860.0,164.2 860.4,164.9 860.5,165.9 860.5,166.4 860.8,166.9 860.8,167.7 860.9,168.6 862.0,169.1 862.0,169.7 862.0,170.5 862.0,171.4 862.2,171.9 862.4,172.5 863.0,173.3 863.0,174.2 863.0,174.7 864.2,175.3 864.2,176.1 865.1,172.4 865.9,170.5 865.9,171.0 865.9,171.6 866.0,172.4 866.0,173.3 866.0,173.8 866.1,174.4 866.1,175.2 866.3,176.1 867.2,174.2 867.3,174.7 867.3,175.3 867.3,176.1 867.3,177.0 867.3,177.5 867.3,178.1 867.5,178.9 867.5,179.8 867.5,180.3 867.6,180.9 867.6,181.6 867.7,182.6 868.1,180.7 870.7,181.2 870.7,181.8 870.7,182.5 870.8,183.4 870.9,183.9 870.9,184.5 871.0,185.3 872.1,186.2 872.1,186.7 872.6,187.3 872.8,188.1 875.6,184.4 876.2,184.9 876.3,185.5 876.6,186.3 877.2,187.2 877.9,187.7 878.1,188.3 878.6,189.1 879.5,190.0 882.1,188.1 883.3,188.6 883.4,189.2 883.4,190.0 885.5,186.3 885.5,186.8 885.8,187.4 885.8,188.2 886.8,189.1 886.9,189.6 887.8,190.2 887.8,191.0 888.1,191.9 890.3,190.0 891.1,190.5 909.4,188.2 909.8,188.7 917.0,186.3 919.5,186.8 920.2,187.4 920.3,188.2 924.3,189.1 926.0,189.6" fill="none" stroke="#16a34a" stroke-width="2" stroke-linejoin="round"/>
  <line x1="88" y1="102" x2="110" y2="102" stroke="#16a34a" stroke-width="2.5"/><text x="116" y="106" font-size="11.5" fill="#374151">equity</text><line x1="88" y1="118" x2="110" y2="118" stroke="#d97706" stroke-width="2.5" opacity="0.8"/><text x="116" y="122" font-size="11.5" fill="#374151">price</text>
  <text x="78" y="502" text-anchor="start" font-size="12" fill="#6b7280">2025-10-10</text><text x="934" y="502" text-anchor="end" font-size="12" fill="#6b7280">2025-10-10</text>
</svg>
