<svg xmlns="http://www.w3.org/2000/svg" width="1100" height="560" font-family="ui-sans-serif, system-ui, sans-serif" viewBox="0 0 1100 560"><rect width="1100" height="560" fill="#fff"/><text x="80" y="28" fill="#111827" font-size="18" font-weight="700">Zone Recovery — UNIUSDC fee-tier comparison (best setting)</text><text x="80" y="48" fill="#6b7280" font-size="12.5">lev 25 · ratio 3 · gap 20% · maxSteps 6 · maxDD 60% · random · equity per fee tier vip 0..9</text><text x="80" y="68" fill="#1d4ed8" font-size="12.5" font-weight="600">USDC margin · BNB −10%</text><line x1="80" x2="932" y1="508" y2="508" stroke="#e5e7eb" stroke-width="1"/><text x="70" y="512" fill="#6b7280" font-size="12" text-anchor="end">0.00</text><line x1="80" x2="932" y1="424" y2="424" stroke="#e5e7eb" stroke-width="1"/><text x="70" y="428" fill="#6b7280" font-size="12" text-anchor="end">26322</text><line x1="80" x2="932" y1="340" y2="340" stroke="#e5e7eb" stroke-width="1"/><text x="70" y="344" fill="#6b7280" font-size="12" text-anchor="end">52645</text><line x1="80" x2="932" y1="256" y2="256" stroke="#e5e7eb" stroke-width="1"/><text x="70" y="260" fill="#6b7280" font-size="12" text-anchor="end">78967</text><line x1="80" x2="932" y1="172" y2="172" stroke="#e5e7eb" stroke-width="1"/><text x="70" y="176" fill="#6b7280" font-size="12" text-anchor="end">105290</text><line x1="80" x2="932" y1="88" y2="88" stroke="#e5e7eb" stroke-width="1"/><text x="70" y="92" fill="#6b7280" font-size="12" text-anchor="end">131612</text><line x1="80" x2="932" y1="476.1" y2="476.1" stroke="#9ca3af" stroke-dasharray="6 4" stroke-width="1.5"/><polyline fill="none" stroke="#2563eb" stroke-linejoin="round" stroke-width="1.8" points="80 476.1 80 472.1 89.9 473.8 91.1 476 106 468 106.9 469.9 107.1 472.4 107.8 475.7 109.7 480.2 109.9 486.2 116.7 465 123.6 459.5 123.7 461.8 124.3 453.7 137.8 446.8 144 449.7 150.1 453.6 161.4 458.7 162.5 465.5 162.6 474.7 165.5 486.8 173.5 487.8 177.4 489.2 180.8 491 182.4 493.3 192.6 484.9 193 486 194.5 482.1 196.2 483.3 198 479 198.5 480.4 198.8 475.5 199 477 200.6 471.5 208.3 467 209.1 468.9 217.3 471.5 217.8 474.9 219.4 462.6 219.9 464.8 221.4 457.2 221.4 459.6 221.5 462.8 222.3 467 228.2 451.9 231.1 444.8 231.1 447.8 240.1 451.7 245.2 437.6 252.7 428.8 259.2 419.9 260 423.3 265.1 411.4 265.1 414.7 265.1 419.2 265.1 425.1 265.6 433 267.4 443.5 273.9 406 286.9 397.1 287 400.5 295.5 388.6 301 379.7 303.4 383 303.6 387.4 304.3 393.2 304.5 401 306.2 411.3 306.6 425.1 328.2 428.4 330.1 432.8 372.6 438.6 378 446.4 380.2 418.7 386.8 422.1 387.1 426.5 390.6 432.4 391.2 440.3 394.6 450.8 396.6 464.8 414 459.4 415.2 461.7 415.9 464.7 416.5 468.8 424.2 454.3 425 447.6 445.9 450.4 445.9 454.2 448.4 440.7 449.3 432.2 454.7 423.4 456.5 426.8 462.5 414.9 463.7 418.2 471.8 422.6 473.2 407 477.1 410.3 481.2 414.8 485.4 420.7 491.3 428.6 498.3 439.1 501.2 401.6 507.3 392.7 528.3 383.8 530.6 387.2 566.9 375.3 567.2 378.6 567.6 366.8 567.6 370.1 567.7 358.3 567.7 361.6 567.7 349.7 567.7 353 567.7 357.4 567.7 341.8 567.7 345.2 567.7 349.6 567.7 355.5 567.7 363.4 567.7 335.3 567.7 338.6 567.7 326.9 567.9 330.3 568 334.7 568 340.6 568.3 348.5 571.4 320.4 573.8 323.8 581.5 328.2 581.8 334.1 582.7 342 583 352.5 587.5 366.5 605.9 357.8 608.9 361.1 609.6 365.4 613.7 349.9 613.8 353.2 615.4 357.5 623.7 363.4 628.1 342.6 633.1 346 641.2 350.4 643.7 356.3 644.4 335.2 646.3 326.4 646.7 329.7 647 334.1 647.2 318.3 650.8 321.7 669.6 309.8 670.5 313.1 670.9 317.6 697.8 323.5 698.7 331.4 701.2 303.3 701.7 306.6 745.7 294.8 756 298.1 759 286.2 759.9 289.6 762.1 294 763.4 299.9 765.6 307.8 766.2 318.3 766.2 280.9 766.6 272 771.9 275.3 773.6 279.7 783.2 263.9 783.3 267.2 783.5 271.6 812.6 277.4 813.8 285.2 817.3 295.5 835.9 258.7 853.1 250 865 241.2 865.8 244.5 867.4 248.9 867.8 233.3 868.1 224.6 871.6 227.9 880.4 216 880.4 219.4 880.4 223.8 881 229.7 881.5 237.6 881.7 248.1 883.3 262.1 885.8 265.5 892.3 269.9 896.5 275.8 896.7 283.7 897.3 294.2 897.7 308.2 899.9 299.5 900 302.8 900 307.3 900.4 291.5 902.4 294.8 902.6 299.2 902.6 305.1 903.4 313 915.5 323.5 916.7 286.1 917.1 289.4 920.5 293.7 923.5 278.2 923.8 269.4 924.2 272.7 925.8 261 926.4 252.3 926.4 255.6 926.5 259.9 926.8 244.4 926.8 247.7 926.8 235.9 926.8 239.1 926.8 243.5 926.8 249.3 928.6 257.1 928.6 229.5 928.7 232.7 928.7 221.1 932 212.2" opacity=".9"/><polyline fill="none" stroke="#dc2626" stroke-linejoin="round" stroke-width="1.8" points="80 476.1 80 472.1 89.9 473.8 91.1 476 106 468 106.9 469.9 107.1 472.4 107.8 475.7 109.7 480.2 109.9 486.2 116.7 465 123.6 459.5 123.7 461.8 124.3 453.7 137.8 446.8 144 449.7 150.1 453.6 161.4 458.7 162.5 465.5 162.6 474.7 165.5 486.8 173.5 487.8 177.4 489.2 180.8 491 182.4 493.3 192.6 484.9 193 486 194.5 482.1 196.2 483.3 198 479 198.5 480.4 198.8 475.5 199 477 200.6 471.5 208.3 467 209.1 468.9 217.3 471.5 217.8 474.9 219.4 462.6 219.9 464.8 221.4 457.2 221.4 459.6 221.5 462.8 222.3 467 228.2 451.9 231.1 444.8 231.1 447.8 240.1 451.7 245.2 437.6 252.7 428.8 259.2 419.9 260 423.3 265.1 411.4 265.1 414.7 265.1 419.2 265.1 425.1 265.6 433 267.4 443.5 273.9 406 286.9 397.1 287 400.5 295.5 388.6 301 379.7 303.4 383 303.6 387.4 304.3 393.2 304.5 401 306.2 411.3 306.6 425.1 328.2 428.4 330.1 432.8 372.6 438.6 378 446.4 380.2 418.7 386.8 422.1 387.1 426.5 390.6 432.4 391.2 440.3 394.6 450.8 396.6 464.8 414 459.4 415.2 461.7 415.9 464.7 416.5 468.8 424.2 454.3 425 447.6 445.9 450.4 445.9 454.2 448.4 440.7 449.3 432.2 454.7 423.4 456.5 426.8 462.5 414.9 463.7 418.2 471.8 422.6 473.2 407 477.1 410.3 481.2 414.8 485.4 420.7 491.3 428.6 498.3 439.1 501.2 401.6 507.3 392.7 528.3 383.8 530.6 387.2 566.9 375.3 567.2 378.6 567.6 366.8 567.6 370.1 567.7 358.3 567.7 361.6 567.7 349.7 567.7 353 567.7 357.4 567.7 341.8 567.7 345.2 567.7 349.6 567.7 355.5 567.7 363.4 567.7 335.3 567.7 338.6 567.7 326.9 567.9 330.3 568 334.7 568 340.6 568.3 348.5 571.4 320.4 573.8 323.8 581.5 328.2 581.8 334.1 582.7 342 583 352.5 587.5 366.5 605.9 357.8 608.9 361.1 609.6 365.4 613.7 349.9 613.8 353.2 615.4 357.5 623.7 363.4 628.1 342.6 633.1 346 641.2 350.4 643.7 356.3 644.4 335.2 646.3 326.4 646.7 329.7 647 334.1 647.2 318.3 650.8 321.7 669.6 309.8 670.5 313.1 670.9 317.6 697.8 323.5 698.7 331.4 701.2 303.3 701.7 306.6 745.7 294.8 756 298.1 759 286.2 759.9 289.6 762.1 294 763.4 299.9 765.6 307.8 766.2 318.3 766.2 280.9 766.6 272 771.9 275.3 773.6 279.7 783.2 263.9 783.3 267.2 783.5 271.6 812.6 277.4 813.8 285.2 817.3 295.5 835.9 258.7 853.1 250 865 241.2 865.8 244.5 867.4 248.9 867.8 233.3 868.1 224.6 871.6 227.9 880.4 216 880.4 219.4 880.4 223.8 881 229.7 881.5 237.6 881.7 248.1 883.3 262.1 885.8 265.5 892.3 269.9 896.5 275.8 896.7 283.7 897.3 294.2 897.7 308.2 899.9 299.5 900 302.8 900 307.3 900.4 291.5 902.4 294.8 902.6 299.2 902.6 305.1 903.4 313 915.5 323.5 916.7 286.1 917.1 289.4 920.5 293.7 923.5 278.2 923.8 269.4 924.2 272.7 925.8 261 926.4 252.3 926.4 255.6 926.5 259.9 926.8 244.4 926.8 247.7 926.8 235.9 926.8 239.1 926.8 243.5 926.8 249.3 928.6 257.1 928.6 229.5 928.7 232.7 928.7 221.1 932 212.2" opacity=".9"/><polyline fill="none" stroke="#16a34a" stroke-linejoin="round" stroke-width="1.8" points="80 476.1 80 472 89.9 473.7 91.1 475.9 106 467.8 106.9 469.7 107.1 472.2 107.8 475.5 109.7 479.9 109.9 485.8 116.7 464.4 123.6 458.8 123.7 461.1 124.3 452.8 137.8 445.8 144 448.7 150.1 452.5 161.4 457.7 162.5 464.5 162.6 473.6 165.5 485.8 173.5 486.8 177.4 488.2 180.8 490.1 182.4 492.5 192.6 483.6 193 484.7 194.5 480.6 196.2 481.9 198 477.3 198.5 478.7 198.8 473.5 199 475.1 200.6 469.3 208.3 464.3 209.1 466.4 217.3 469.1 217.8 472.7 219.4 459.5 219.9 461.8 221.4 453.6 221.4 456.1 221.5 459.5 222.3 464 228.2 447.6 231.1 440 231.1 443.1 240.1 447.4 245.2 432 252.7 423.2 259.2 414.3 260 417.6 265.1 405.6 265.1 408.9 265.1 413.3 265.1 419.1 265.6 426.8 267.4 437.2 273.9 399.5 286.9 390.5 287 393.8 295.5 381.9 301 373 303.4 376.2 303.6 380.5 304.3 386.2 304.5 393.8 306.2 404 306.6 417.6 328.2 420.8 330.1 425.1 372.6 430.9 378 438.5 380.2 410.7 386.8 413.9 387.1 418.3 390.6 424.1 391.2 431.9 394.6 442.2 396.6 456 414 449.4 415.2 452.1 415.9 455.8 416.5 460.6 424.2 443 425 434.8 445.9 438 445.9 442.3 448.4 426.6 449.3 417.7 454.7 408.9 456.5 412.2 462.5 400.3 463.7 403.5 471.8 407.8 473.2 392.1 477.1 395.4 481.2 399.8 485.4 405.6 491.3 413.3 498.3 423.7 501.2 386 507.3 377 528.3 368.1 530.6 371.4 566.9 359.5 567.2 362.7 567.6 350.8 567.6 354.1 567.7 342.1 567.7 345.4 567.7 333.5 567.7 336.7 567.7 341 567.7 325.4 567.7 328.6 567.7 333 567.7 338.8 567.7 346.6 567.7 318.3 567.7 321.5 567.7 309.8 567.9 313.1 568 317.5 568 323.3 568.3 331 571.4 302.8 573.8 306.1 581.5 310.4 581.8 316.2 582.7 324 583 334.3 587.5 348.1 605.9 339.3 608.9 342.5 609.6 346.8 613.7 331.2 613.8 334.4 615.4 338.7 623.7 344.4 628.1 323.6 633.1 326.9 641.2 331.2 643.7 337.1 644.4 315.8 646.3 306.9 646.7 310.2 647 314.5 647.2 298.7 650.8 301.9 669.6 290 670.5 293.3 670.9 297.6 697.8 303.5 698.7 311.2 701.2 283 701.7 286.2 745.7 274.3 756 277.6 759 265.7 759.9 268.9 762.1 273.3 763.4 279.1 765.6 286.9 766.2 297.2 766.2 259.5 766.6 250.6 771.9 253.8 773.6 258.2 783.2 242.3 783.3 245.5 783.5 249.8 812.6 255.6 813.8 263.2 817.3 273.4 835.9 236.3 853.1 227.5 865 218.7 865.8 221.9 867.4 226.2 867.8 210.6 868.1 201.8 871.6 205.1 880.4 193.1 880.4 196.4 880.4 200.8 881 206.6 881.5 214.4 881.7 224.7 883.3 238.5 885.8 241.8 892.3 246.1 896.5 251.9 896.7 259.7 897.3 270 897.7 283.8 899.9 275 900 278.3 900 282.7 900.4 266.8 902.4 270 902.6 274.4 902.6 280.2 903.4 288 915.5 298.3 916.7 260.6 917.1 263.9 920.5 268.2 923.5 252.5 923.8 243.7 924.2 246.9 925.8 235.2 926.4 226.4 926.4 229.6 926.5 233.9 926.8 218.3 926.8 221.5 926.8 209.6 926.8 212.8 926.8 217.1 926.8 222.9 928.6 230.5 928.6 202.7 928.7 205.9 928.7 194.2 932 185.2" opacity=".9"/><polyline fill="none" stroke="#d97706" stroke-linejoin="round" stroke-width="1.8" points="80 476.1 80 472 89.9 473.7 91.1 475.9 106 467.7 106.9 469.6 107.1 472 107.8 475.3 109.7 479.7 109.9 485.5 116.7 463.9 123.6 458.3 123.7 460.5 124.3 452.1 137.8 445 144 447.9 150.1 451.7 161.4 456.8 162.5 463.7 162.6 472.8 165.5 485 173.5 486 177.4 487.4 180.8 489.3 182.4 491.8 192.6 482.5 193 483.7 194.5 479.4 196.2 480.7 198 475.8 198.5 477.3 198.8 471.8 199 473.5 200.6 467.4 208.3 462.2 209.1 464.3 217.3 467.1 217.8 470.8 219.4 457 219.9 459.3 221.4 450.6 221.4 453.2 221.5 456.8 222.3 461.4 228.2 444.1 231.1 436 231.1 439.1 240.1 443.4 245.2 427.7 252.7 418.8 259.2 409.8 260 413.1 265.1 401.1 265.1 404.3 265.1 408.6 265.1 414.3 265.6 422 267.4 432.2 273.9 394.3 286.9 385.3 287 388.6 295.5 376.6 301 367.6 303.4 370.8 303.6 375 304.3 380.7 304.5 388.2 306.2 398.3 306.6 411.6 328.2 414.8 330.1 419.1 372.6 424.7 378 432.3 380.2 404.3 386.8 407.5 387.1 411.8 390.6 417.6 391.2 425.2 394.6 435.4 396.6 449 414 441.5 415.2 444.6 415.9 448.6 416.5 454 424.2 434 425 425 445.9 428.2 445.9 432.4 448.4 416.7 449.3 407.7 454.7 398.9 456.5 402.1 462.5 390.1 463.7 393.3 471.8 397.5 473.2 381.8 477.1 385 481.2 389.3 485.4 395.1 491.3 402.7 498.3 412.9 501.2 375.1 507.3 366.1 528.3 357.1 530.6 360.3 566.9 348.3 567.2 351.6 567.6 339.6 567.6 342.8 567.7 330.8 567.7 334.1 567.7 322.1 567.7 325.2 567.7 329.5 567.7 313.8 567.7 317 567.7 321.3 567.7 327 567.7 334.7 567.7 306.3 567.7 309.5 567.7 297.7 567.9 300.9 568 305.2 568 311 568.3 318.6 571.4 290.2 573.8 293.5 581.5 297.8 581.8 303.5 582.7 311.2 583 321.4 587.5 335 605.9 326.1 608.9 329.3 609.6 333.5 613.7 317.8 613.8 321 615.4 325.2 623.7 330.9 628.1 309.9 633.1 313.2 641.2 317.5 643.7 323.2 644.4 301.9 646.3 292.9 646.7 296.1 647 300.5 647.2 284.5 650.8 287.7 669.6 275.7 670.5 279 670.9 283.3 697.8 289 698.7 296.7 701.2 268.3 701.7 271.5 745.7 259.5 756 262.7 759 250.8 759.9 254 762.1 258.3 763.4 264 765.6 271.7 766.2 281.9 766.2 244 766.6 235 771.9 238.3 773.6 242.6 783.2 226.6 783.3 229.8 783.5 234 812.6 239.7 813.8 247.2 817.3 257.2 835.9 220 853.1 211.2 865 202.3 865.8 205.5 867.4 209.7 867.8 194 868.1 185.2 871.6 188.4 880.4 176.4 880.4 179.6 880.4 183.9 881 189.7 881.5 197.3 881.7 207.5 883.3 221.1 885.8 224.4 892.3 228.7 896.5 234.4 896.7 242.1 897.3 252.3 897.7 265.9 899.9 257 900 260.3 900 264.6 900.4 248.6 902.4 251.8 902.6 256.1 902.6 261.9 903.4 269.5 915.5 279.7 916.7 241.9 917.1 245 920.5 249.3 923.5 233.5 923.8 224.7 924.2 227.9 925.8 216.1 926.4 207.2 926.4 210.4 926.5 214.7 926.8 198.9 926.8 202.2 926.8 190.2 926.8 193.4 926.8 197.6 926.8 203.3 928.6 210.8 928.6 182.8 928.7 186 928.7 174.2 932 165.3" opacity=".9"/><polyline fill="none" stroke="#7c3aed" stroke-linejoin="round" stroke-width="1.8" points="80 476.1 80 472 89.9 473.6 91.1 475.8 106 467.6 106.9 469.4 107.1 471.8 107.8 475 109.7 479.3 109.9 485.1 116.7 463.2 123.6 457.5 123.7 459.7 124.3 451.1 137.8 443.8 144 446.7 150.1 450.5 161.4 455.6 162.5 462.5 162.6 471.6 165.5 483.7 173.5 484.8 177.4 486.3 180.8 488.2 182.4 490.8 192.6 481 193 482.2 194.5 477.6 196.2 478.9 198 473.7 198.5 475.3 198.8 469.4 199 471.1 200.6 464.5 208.3 459 209.1 461.2 217.3 464.1 217.8 468 219.4 453.1 219.9 455.6 221.4 446.2 221.4 448.9 221.5 452.6 222.3 457.6 228.2 438.8 231.1 429.9 231.1 433 240.1 437.2 245.2 421.3 252.7 412.4 259.2 403.4 260 406.6 265.1 394.5 265.1 397.7 265.1 401.9 265.1 407.5 265.6 415 267.4 425 273.9 386.9 286.9 377.8 287 381 295.5 368.9 301 359.9 303.4 363 303.6 367.2 304.3 372.7 304.5 380.1 306.2 390 306.6 403.1 328.2 406.2 330.1 410.4 372.6 415.9 378 423.3 380.2 395.1 386.8 398.3 387.1 402.5 390.6 408.2 391.2 415.7 394.6 425.7 396.6 439 414 430.2 415.2 433.3 415.9 437.4 416.5 443 424.2 421.9 425 412.8 445.9 416 445.9 420.1 448.4 404.3 449.3 395.2 454.7 386.3 456.5 389.5 462.5 377.4 463.7 380.6 471.8 384.7 473.2 368.9 477.1 372 481.2 376.3 485.4 381.9 491.3 389.4 498.3 399.4 501.2 361.3 507.3 352.2 528.3 343.2 530.6 346.3 566.9 334.3 567.2 337.4 567.6 325.4 567.6 328.5 567.7 316.5 567.7 319.6 567.7 307.6 567.7 310.7 567.7 314.9 567.7 299 567.7 302.2 567.7 306.4 567.7 312 567.7 319.5 567.7 291 567.7 294.1 567.7 282.2 567.9 285.4 568 289.6 568 295.2 568.3 302.7 571.4 274.1 573.8 277.3 581.5 281.5 581.8 287.2 582.7 294.7 583 304.7 587.5 318 605.9 309.1 608.9 312.2 609.6 316.4 613.7 300.6 613.8 303.7 615.4 307.8 623.7 313.4 628.1 292.3 633.1 295.4 641.2 299.7 643.7 305.3 644.4 283.8 646.3 274.8 646.7 278 647 282.2 647.2 266.1 650.8 269.3 669.6 257.2 670.5 260.4 670.9 264.6 697.8 270.2 698.7 277.7 701.2 249.1 701.7 252.3 745.7 240.2 756 243.4 759 231.3 759.9 234.5 762.1 238.7 763.4 244.3 765.6 251.9 766.2 261.9 766.2 223.7 766.6 214.7 771.9 217.8 773.6 222.1 783.2 206 783.3 209.1 783.5 213.3 812.6 218.8 813.8 226.2 817.3 236 835.9 198.5 853.1 189.6 865 180.7 865.8 183.8 867.4 188 867.8 172.2 868.1 163.3 871.6 166.4 880.4 154.4 880.4 157.5 880.4 161.7 881 167.4 881.5 174.9 881.7 184.9 883.3 198.2 885.8 201.4 892.3 205.6 896.5 211.3 896.7 218.8 897.3 228.8 897.7 242.1 899.9 233.2 900 236.4 900 240.6 900.4 224.5 902.4 227.7 902.6 231.9 902.6 237.5 903.4 245 915.5 255 916.7 216.9 917.1 220 920.5 224.2 923.5 208.3 923.8 199.4 924.2 202.6 925.8 190.7 926.4 181.8 926.4 184.9 926.5 189.1 926.8 173.2 926.8 176.4 926.8 164.3 926.8 167.4 926.8 171.6 926.8 177.1 928.6 184.5 928.6 156.4 928.7 159.5 928.7 147.6 932 138.6" opacity=".9"/><polyline fill="none" stroke="#0891b2" stroke-linejoin="round" stroke-width="1.8" points="80 476.1 80 472 89.9 473.6 91.1 475.7 106 467.5 106.9 469.3 107.1 471.8 107.8 475 109.7 479.3 109.9 485 116.7 463.1 123.6 457.3 123.7 459.6 124.3 450.9 137.8 443.6 144 446.5 150.1 450.3 161.4 455.4 162.5 462.3 162.6 471.4 165.5 483.5 173.5 484.6 177.4 486.1 180.8 488 182.4 490.6 192.6 480.7 193 481.9 194.5 477.2 196.2 478.6 198 473.3 198.5 474.9 198.8 469 199 470.7 200.6 464 208.3 458.4 209.1 460.6 217.3 463.6 217.8 467.5 219.4 452.4 219.9 454.9 221.4 445.4 221.4 448.2 221.5 451.9 222.3 456.9 228.2 437.8 231.1 428.9 231.1 432 240.1 436.1 245.2 420.3 252.7 411.4 259.2 402.3 260 405.5 265.1 393.4 265.1 396.6 265.1 400.8 265.1 406.4 265.6 413.9 267.4 423.8 273.9 385.6 286.9 376.6 287 379.7 295.5 367.7 301 358.6 303.4 361.7 303.6 365.9 304.3 371.4 304.5 378.7 306.2 388.6 306.6 401.6 328.2 404.8 330.1 408.9 372.6 414.4 378 421.8 380.2 393.6 386.8 396.8 387.1 401 390.6 406.6 391.2 414.1 394.6 424 396.6 437.3 414 428.3 415.2 431.4 415.9 435.5 416.5 441 424.2 419.9 425 410.9 445.9 414 445.9 418.1 448.4 402.3 449.3 393.2 454.7 384.3 456.5 387.4 462.5 375.4 463.7 378.5 471.8 382.6 473.2 366.8 477.1 369.9 481.2 374.1 485.4 379.7 491.3 387.2 498.3 397.2 501.2 359 507.3 349.9 528.3 340.9 530.6 344 566.9 332 567.2 335.1 567.6 323 567.6 326.2 567.7 314.1 567.7 317.3 567.7 305.2 567.7 308.3 567.7 312.4 567.7 296.6 567.7 299.7 567.7 303.9 567.7 309.6 567.7 317 567.7 288.4 567.7 291.5 567.7 279.6 567.9 282.8 568 287 568 292.6 568.3 300.1 571.4 271.5 573.8 274.6 581.5 278.8 581.8 284.4 582.7 291.9 583 301.9 587.5 315.2 605.9 306.3 608.9 309.4 609.6 313.5 613.7 297.7 613.8 300.8 615.4 304.9 623.7 310.4 628.1 289.3 633.1 292.5 641.2 296.7 643.7 302.3 644.4 280.8 646.3 271.7 646.7 274.9 647 279.1 647.2 263 650.8 266.2 669.6 254.1 670.5 257.2 670.9 261.4 697.8 267.1 698.7 274.5 701.2 245.9 701.7 249.1 745.7 237 756 240.1 759 228.1 759.9 231.2 762.1 235.4 763.4 241 765.6 248.5 766.2 258.5 766.2 220.3 766.6 211.2 771.9 214.4 773.6 218.6 783.2 202.5 783.3 205.6 783.5 209.8 812.6 215.3 813.8 222.6 817.3 232.5 835.9 194.9 853.1 186 865 177.1 865.8 180.2 867.4 184.3 867.8 168.5 868.1 159.6 871.6 162.7 880.4 150.6 880.4 153.8 880.4 158 881 163.6 881.5 171.1 881.7 181.1 883.3 194.4 885.8 197.5 892.3 201.7 896.5 207.3 896.7 214.8 897.3 224.8 897.7 238.1 899.9 229.2 900 232.3 900 236.5 900.4 220.4 902.4 223.6 902.6 227.8 902.6 233.4 903.4 240.9 915.5 250.8 916.7 212.7 917.1 215.8 920.5 219.9 923.5 204.1 923.8 195.1 924.2 198.3 925.8 186.4 926.4 177.5 926.4 180.6 926.5 184.7 926.8 168.9 926.8 172 926.8 159.9 926.8 163 926.8 167.2 926.8 172.7 928.6 180.1 928.6 151.9 928.7 155 928.7 143.1 932 134" opacity=".9"/><polyline fill="none" stroke="#db2777" stroke-linejoin="round" stroke-width="1.8" points="80 476.1 80 472 89.9 473.6 91.1 475.7 106 467.5 106.9 469.3 107.1 471.7 107.8 474.9 109.7 479.2 109.9 484.9 116.7 463 123.6 457.2 123.7 459.5 124.3 450.8 137.8 443.4 144 446.3 150.1 450.2 161.4 455.3 162.5 462.1 162.6 471.2 165.5 483.4 173.5 484.5 177.4 485.9 180.8 487.9 182.4 490.5 192.6 480.5 193 481.7 194.5 477 196.2 478.4 198 473.1 198.5 474.6 198.8 468.7 199 470.4 200.6 463.7 208.3 458 209.1 460.2 217.3 463.2 217.8 467.2 219.4 451.9 219.9 454.4 221.4 444.8 221.4 447.6 221.5 451.4 222.3 456.4 228.2 437.1 231.1 428.2 231.1 431.3 240.1 435.5 245.2 419.6 252.7 410.7 259.2 401.6 260 404.7 265.1 392.7 265.1 395.8 265.1 400 265.1 405.6 265.6 413.1 267.4 423 273.9 384.8 286.9 375.7 287 378.9 295.5 366.8 301 357.7 303.4 360.8 303.6 365 304.3 370.5 304.5 377.8 306.2 387.6 306.6 400.7 328.2 403.8 330.1 407.9 372.6 413.4 378 420.7 380.2 392.5 386.8 395.7 387.1 399.9 390.6 405.5 391.2 412.9 394.6 422.9 396.6 436.2 414 427.1 415.2 430.2 415.9 434.3 416.5 439.8 424.2 418.7 425 409.6 445.9 412.7 445.9 416.9 448.4 401 449.3 391.9 454.7 383 456.5 386.2 462.5 374.1 463.7 377.2 471.8 381.3 473.2 365.4 477.1 368.6 481.2 372.8 485.4 378.4 491.3 385.8 498.3 395.8 501.2 357.6 507.3 348.5 528.3 339.4 530.6 342.6 566.9 330.5 567.2 333.7 567.6 321.6 567.6 324.7 567.7 312.6 567.7 315.8 567.7 303.7 567.7 306.8 567.7 310.9 567.7 295 567.7 298.2 567.7 302.4 567.7 308 567.7 315.4 567.7 286.8 567.7 289.9 567.7 278 567.9 281.2 568 285.3 568 290.9 568.3 298.4 571.4 269.8 573.8 272.9 581.5 277.1 581.8 282.7 582.7 290.2 583 300.1 587.5 313.4 605.9 304.5 608.9 307.6 609.6 311.7 613.7 295.8 613.8 298.9 615.4 303.1 623.7 308.6 628.1 287.4 633.1 290.6 641.2 294.8 643.7 300.4 644.4 278.9 646.3 269.8 646.7 272.9 647 277.1 647.2 261 650.8 264.2 669.6 252.1 670.5 255.2 670.9 259.4 697.8 265 698.7 272.5 701.2 243.8 701.7 247 745.7 234.9 756 238 759 226 759.9 229.1 762.1 233.3 763.4 238.9 765.6 246.4 766.2 256.3 766.2 218.1 766.6 209 771.9 212.2 773.6 216.4 783.2 200.3 783.3 203.4 783.5 207.5 812.6 213 813.8 220.3 817.3 230.1 835.9 192.6 853.1 183.6 865 174.7 865.8 177.8 867.4 181.9 867.8 166.1 868.1 157.2 871.6 160.3 880.4 148.2 880.4 151.4 880.4 155.6 881 161.2 881.5 168.6 881.7 178.6 883.3 191.8 885.8 195 892.3 199.2 896.5 204.8 896.7 212.2 897.3 222.2 897.7 235.4 899.9 226.5 900 229.7 900 233.9 900.4 217.8 902.4 220.9 902.6 225.1 902.6 230.7 903.4 238.2 915.5 248.1 916.7 209.9 917.1 213 920.5 217.1 923.5 201.3 923.8 192.3 924.2 195.4 925.8 183.5 926.4 174.6 926.4 177.7 926.5 181.9 926.8 166 926.8 169.1 926.8 157 926.8 160.1 926.8 164.3 926.8 169.8 928.6 177.1 928.6 148.9 928.7 152 928.7 140.1 932 131.1" opacity=".9"/><polyline fill="none" stroke="#65a30d" stroke-linejoin="round" stroke-width="1.8" points="80 476.1 80 472 89.9 473.6 91.1 475.7 106 467.5 106.9 469.3 107.1 471.7 107.8 474.9 109.7 479.2 109.9 484.9 116.7 462.9 123.6 457.1 123.7 459.3 124.3 450.6 137.8 443.2 144 446.1 150.1 449.9 161.4 455.1 162.5 461.9 162.6 471 165.5 483.1 173.5 484.3 177.4 485.7 180.8 487.7 182.4 490.3 192.6 480.2 193 481.4 194.5 476.7 196.2 478.1 198 472.7 198.5 474.3 198.8 468.2 199 470 200.6 463.1 208.3 457.4 209.1 459.6 217.3 462.6 217.8 466.6 219.4 451.2 219.9 453.7 221.4 443.9 221.4 446.8 221.5 450.6 222.3 455.6 228.2 436.1 231.1 427.2 231.1 430.2 240.1 434.4 245.2 418.5 252.7 409.5 259.2 400.5 260 403.6 265.1 391.5 265.1 394.6 265.1 398.8 265.1 404.4 265.6 411.8 267.4 421.7 273.9 383.5 286.9 374.4 287 377.5 295.5 365.4 301 356.4 303.4 359.4 303.6 363.6 304.3 369 304.5 376.4 306.2 386.1 306.6 399.1 328.2 402.2 330.1 406.3 372.6 411.8 378 419.1 380.2 390.9 386.8 394 387.1 398.2 390.6 403.8 391.2 411.2 394.6 421.1 396.6 434.4 414 425.3 415.2 428.4 415.9 432.5 416.5 438 424.2 416.8 425 407.7 445.9 410.8 445.9 414.9 448.4 399.1 449.3 390 454.7 381 456.5 384.2 462.5 372.1 463.7 375.2 471.8 379.3 473.2 363.4 477.1 366.5 481.2 370.7 485.4 376.3 491.3 383.7 498.3 393.6 501.2 355.4 507.3 346.3 528.3 337.2 530.6 340.4 566.9 328.2 567.2 331.4 567.6 319.3 567.6 322.4 567.7 310.3 567.7 313.4 567.7 301.3 567.7 304.4 567.7 308.5 567.7 292.7 567.7 295.8 567.7 300 567.7 305.6 567.7 313 567.7 284.3 567.7 287.4 567.7 275.5 567.9 278.6 568 282.8 568 288.4 568.3 295.8 571.4 267.1 573.8 270.3 581.5 274.4 581.8 280 582.7 287.5 583 297.4 587.5 310.6 605.9 301.6 608.9 304.7 609.6 308.9 613.7 293 613.8 296.1 615.4 300.2 623.7 305.7 628.1 284.5 633.1 287.6 641.2 291.8 643.7 297.4 644.4 275.9 646.3 266.8 646.7 269.9 647 274.1 647.2 258 650.8 261.1 669.6 249 670.5 252.1 670.9 256.3 697.8 261.9 698.7 269.3 701.2 240.6 701.7 243.8 745.7 231.7 756 234.8 759 222.7 759.9 225.8 762.1 230 763.4 235.6 765.6 243 766.2 252.9 766.2 214.7 766.6 205.6 771.9 208.7 773.6 212.9 783.2 196.8 783.3 199.9 783.5 204 812.6 209.5 813.8 216.8 817.3 226.6 835.9 188.9 853.1 180 865 171 865.8 174.1 867.4 178.2 867.8 162.4 868.1 153.4 871.6 156.6 880.4 144.5 880.4 147.6 880.4 151.8 881 157.4 881.5 164.8 881.7 174.7 883.3 187.9 885.8 191.1 892.3 195.2 896.5 200.8 896.7 208.2 897.3 218.2 897.7 231.4 899.9 222.4 900 225.6 900 229.8 900.4 213.6 902.4 216.8 902.6 220.9 902.6 226.5 903.4 234 915.5 243.9 916.7 205.6 917.1 208.7 920.5 212.8 923.5 196.9 923.8 188 924.2 191.1 925.8 179.2 926.4 170.2 926.4 173.3 926.5 177.4 926.8 161.6 926.8 164.7 926.8 152.6 926.8 155.7 926.8 159.8 926.8 165.3 928.6 172.6 928.6 144.4 928.7 147.4 928.7 135.5 932 126.5" opacity=".9"/><polyline fill="none" stroke="#475569" stroke-linejoin="round" stroke-width="1.8" points="80 476.1 80 472 89.9 473.6 91.1 475.7 106 467.5 106.9 469.3 107.1 471.7 107.8 474.9 109.7 479.1 109.9 484.8 116.7 462.8 123.6 457 123.7 459.2 124.3 450.5 137.8 443.1 144 445.9 150.1 449.8 161.4 454.9 162.5 461.7 162.6 470.8 165.5 483 173.5 484.1 177.4 485.6 180.8 487.6 182.4 490.2 192.6 480 193 481.2 194.5 476.4 196.2 477.8 198 472.4 198.5 474 198.8 467.9 199 469.7 200.6 462.8 208.3 456.9 209.1 459.2 217.3 462.2 217.8 466.3 219.4 450.7 219.9 453.2 221.4 443.4 221.4 446.2 221.5 450 222.3 455.1 228.2 435.4 231.1 426.5 231.1 429.5 240.1 433.7 245.2 417.8 252.7 408.8 259.2 399.7 260 402.9 265.1 390.7 265.1 393.9 265.1 398 265.1 403.6 265.6 411 267.4 420.9 273.9 382.6 286.9 373.5 287 376.7 295.5 364.5 301 355.5 303.4 358.5 303.6 362.7 304.3 368.1 304.5 375.4 306.2 385.2 306.6 398.1 328.2 401.2 330.1 405.3 372.6 410.8 378 418.1 380.2 389.8 386.8 393 387.1 397.1 390.6 402.7 391.2 410.1 394.6 420 396.6 433.2 414 424.1 415.2 427.2 415.9 431.3 416.5 436.8 424.2 415.6 425 406.5 445.9 409.6 445.9 413.7 448.4 397.8 449.3 388.7 454.7 379.8 456.5 382.9 462.5 370.8 463.7 373.9 471.8 378 473.2 362.1 477.1 365.2 481.2 369.4 485.4 374.9 491.3 382.3 498.3 392.2 501.2 353.9 507.3 344.9 528.3 335.8 530.6 338.9 566.9 326.8 567.2 329.9 567.6 317.8 567.6 320.9 567.7 308.8 567.7 311.9 567.7 299.8 567.7 302.9 567.7 307 567.7 291.1 567.7 294.2 567.7 298.4 567.7 304 567.7 311.4 567.7 282.7 567.7 285.8 567.7 273.8 567.9 277 568 281.1 568 286.7 568.3 294.1 571.4 265.4 573.8 268.5 581.5 272.7 581.8 278.3 582.7 285.7 583 295.6 587.5 308.8 605.9 299.8 608.9 302.9 609.6 307 613.7 291.1 613.8 294.2 615.4 298.3 623.7 303.8 628.1 282.6 633.1 285.7 641.2 289.9 643.7 295.4 644.4 273.9 646.3 264.8 646.7 268 647 272.1 647.2 256 650.8 259.1 669.6 247 670.5 250.1 670.9 254.3 697.8 259.9 698.7 267.3 701.2 238.6 701.7 241.7 745.7 229.6 756 232.7 759 220.6 759.9 223.7 762.1 227.9 763.4 233.4 765.6 240.9 766.2 250.8 766.2 212.5 766.6 203.4 771.9 206.5 773.6 210.7 783.2 194.5 783.3 197.6 783.5 201.7 812.6 207.2 813.8 214.5 817.3 224.2 835.9 186.6 853.1 177.6 865 168.7 865.8 171.7 867.4 175.9 867.8 160 868.1 151 871.6 154.1 880.4 142 880.4 145.2 880.4 149.3 881 154.9 881.5 162.3 881.7 172.2 883.3 185.4 885.8 188.5 892.3 192.7 896.5 198.2 896.7 205.7 897.3 215.6 897.7 228.7 899.9 219.8 900 222.9 900 227.1 900.4 210.9 902.4 214.1 902.6 218.2 902.6 223.8 903.4 231.2 915.5 241.1 916.7 202.8 917.1 205.9 920.5 210 923.5 194.1 923.8 185.2 924.2 188.3 925.8 176.3 926.4 167.4 926.4 170.5 926.5 174.6 926.8 158.7 926.8 161.8 926.8 149.7 926.8 152.8 926.8 156.9 926.8 162.4 928.6 169.7 928.6 141.4 928.7 144.5 928.7 132.6 932 123.5" opacity=".9"/><polyline fill="none" stroke="#ea580c" stroke-linejoin="round" stroke-width="1.8" points="80 476.1 80 472 89.9 473.6 91.1 475.7 106 467.4 106.9 469.2 107.1 471.6 107.8 474.8 109.7 479.1 109.9 484.7 116.7 462.7 123.6 456.8 123.7 459.1 124.3 450.3 137.8 442.8 144 445.7 150.1 449.6 161.4 454.7 162.5 461.5 162.6 470.6 165.5 482.8 173.5 483.9 177.4 485.4 180.8 487.4 182.4 490 192.6 479.7 193 481 194.5 476.1 196.2 477.5 198 472 198.5 473.6 198.8 467.4 199 469.2 200.6 462.2 208.3 456.3 209.1 458.6 217.3 461.7 217.8 465.7 219.4 449.9 219.9 452.5 221.4 442.5 221.4 445.4 221.5 449.3 222.3 454.4 228.2 434.4 231.1 425.4 231.1 428.5 240.1 432.6 245.2 416.7 252.7 407.7 259.2 398.6 260 401.8 265.1 389.6 265.1 392.8 265.1 396.9 265.1 402.5 265.6 409.8 267.4 419.7 273.9 381.4 286.9 372.3 287 375.4 295.5 363.3 301 354.2 303.4 357.2 303.6 361.3 304.3 366.8 304.5 374 306.2 383.7 306.6 396.7 328.2 399.7 330.1 403.8 372.6 409.3 378 416.6 380.2 388.3 386.8 391.4 387.1 395.6 390.6 401.1 391.2 408.5 394.6 418.3 396.6 431.5 414 422.4 415.2 425.5 415.9 429.5 416.5 435 424.2 413.8 425 404.7 445.9 407.8 445.9 411.8 448.4 395.9 449.3 386.8 454.7 377.9 456.5 381 462.5 368.9 463.7 371.9 471.8 376 473.2 360.1 477.1 363.2 481.2 367.4 485.4 372.9 491.3 380.3 498.3 390.2 501.2 351.8 507.3 342.8 528.3 333.7 530.6 336.8 566.9 324.6 567.2 327.8 567.6 315.6 567.6 318.7 567.7 306.6 567.7 309.7 567.7 297.6 567.7 300.7 567.7 304.8 567.7 288.9 567.7 292 567.7 296.1 567.7 301.7 567.7 309.1 567.7 280.3 567.7 283.4 567.7 271.5 567.9 274.6 568 278.7 568 284.3 568.3 291.7 571.4 262.9 573.8 266 581.5 270.2 581.8 275.7 582.7 283.1 583 293 587.5 306.1 605.9 297.2 608.9 300.2 609.6 304.3 613.7 288.4 613.8 291.5 615.4 295.6 623.7 301 628.1 279.8 633.1 282.9 641.2 287.1 643.7 292.6 644.4 271.1 646.3 262 646.7 265.1 647 269.2 647.2 253.1 650.8 256.2 669.6 244.1 670.5 247.2 670.9 251.3 697.8 256.9 698.7 264.3 701.2 235.5 701.7 238.6 745.7 226.5 756 229.6 759 217.5 759.9 220.6 762.1 224.8 763.4 230.3 765.6 237.7 766.2 247.6 766.2 209.2 766.6 200.1 771.9 203.2 773.6 207.4 783.2 191.2 783.3 194.3 783.5 198.4 812.6 203.9 813.8 211.1 817.3 220.8 835.9 183.1 853.1 174.2 865 165.2 865.8 168.3 867.4 172.4 867.8 156.4 868.1 147.5 871.6 150.6 880.4 138.5 880.4 141.6 880.4 145.8 881 151.3 881.5 158.7 881.7 168.5 883.3 181.7 885.8 184.8 892.3 189 896.5 194.5 896.7 201.9 897.3 211.7 897.7 224.9 899.9 215.9 900 219.1 900 223.2 900.4 207 902.4 210.2 902.6 214.3 902.6 219.9 903.4 227.2 915.5 237.1 916.7 198.8 917.1 201.8 920.5 205.9 923.5 190 923.8 181.1 924.2 184.1 925.8 172.2 926.4 163.2 926.4 166.3 926.5 170.4 926.8 154.5 926.8 157.6 926.8 145.5 926.8 148.5 926.8 152.6 926.8 158.1 928.6 165.4 928.6 137.1 928.7 140.1 928.7 128.2 932 119.1" opacity=".9"/><line x1="950" x2="972" y1="94" y2="94" stroke="#ea580c" stroke-width="3"/><text x="980" y="98" fill="#374151" font-size="12.5">vip 9 121863</text><line x1="950" x2="972" y1="116" y2="116" stroke="#475569" stroke-width="3"/><text x="980" y="120" fill="#374151" font-size="12.5">vip 8 120498</text><line x1="950" x2="972" y1="138" y2="138" stroke="#65a30d" stroke-width="3"/><text x="980" y="142" fill="#374151" font-size="12.5">vip 7 119561</text><line x1="950" x2="972" y1="160" y2="160" stroke="#db2777" stroke-width="3"/><text x="980" y="164" fill="#374151" font-size="12.5">vip 6 118116</text><line x1="950" x2="972" y1="182" y2="182" stroke="#0891b2" stroke-width="3"/><text x="980" y="186" fill="#374151" font-size="12.5">vip 5 117183</text><line x1="950" x2="972" y1="204" y2="204" stroke="#7c3aed" stroke-width="3"/><text x="980" y="208" fill="#374151" font-size="12.5">vip 4 115760</text><line x1="950" x2="972" y1="226" y2="226" stroke="#d97706" stroke-width="3"/><text x="980" y="230" fill="#374151" font-size="12.5">vip 3 107405</text><line x1="950" x2="972" y1="248" y2="248" stroke="#16a34a" stroke-width="3"/><text x="980" y="252" fill="#374151" font-size="12.5">vip 2 101141</text><line x1="950" x2="972" y1="270" y2="270" stroke="#2563eb" stroke-width="3"/><text x="980" y="274" fill="#374151" font-size="12.5">vip 0 92694</text><line x1="950" x2="972" y1="292" y2="292" stroke="#dc2626" stroke-width="3"/><text x="980" y="296" fill="#374151" font-size="12.5">vip 1 92694</text><text x="80" y="542" fill="#6b7280" font-size="12" text-anchor="start">2026-01-01</text><text x="932" y="542" fill="#6b7280" font-size="12" text-anchor="end">2026-01-31</text></svg>