<svg xmlns="http://www.w3.org/2000/svg" width="1000" height="520" font-family="ui-sans-serif, system-ui, sans-serif" viewBox="0 0 1000 520"><rect width="1000" height="520" fill="#fff"/><text x="78" y="28" fill="#111827" font-size="18" font-weight="700">Zone Recovery — LINKUSDC best setting (equity / PnL)</text><text x="78" y="48" fill="#6b7280" font-size="12.5">lev 40 · ratio 3 · gap 20% · maxSteps 4 · maxDD 20% · random · vip 9 · 1454 series, 80.9% win · vol $200167040 ($200167770/day) · fees $16934</text><text x="78" y="68" fill="#1d4ed8" font-size="12.5" font-weight="600">USDC · BNB −10% · taker 0.0085%</text><text x="934" y="28" fill="#16a34a" font-size="18" font-weight="700" text-anchor="end">+165100 USDT (+1651.00%)</text><line x1="78" x2="934" y1="468" y2="468" stroke="#e5e7eb" stroke-width="1"/><text x="68" y="472" fill="#6b7280" font-size="12" text-anchor="end">0.00</text><line x1="78" x2="934" y1="392" y2="392" stroke="#e5e7eb" stroke-width="1"/><text x="68" y="396" fill="#6b7280" font-size="12" text-anchor="end">38044</text><line x1="78" x2="934" y1="316" y2="316" stroke="#e5e7eb" stroke-width="1"/><text x="68" y="320" fill="#6b7280" font-size="12" text-anchor="end">76089</text><line x1="78" x2="934" y1="240" y2="240" stroke="#e5e7eb" stroke-width="1"/><text x="68" y="244" fill="#6b7280" font-size="12" text-anchor="end">114133</text><line x1="78" x2="934" y1="164" y2="164" stroke="#e5e7eb" stroke-width="1"/><text x="68" y="168" fill="#6b7280" font-size="12" text-anchor="end">152178</text><line x1="78" x2="934" y1="88" y2="88" stroke="#e5e7eb" stroke-width="1"/><text x="68" y="92" fill="#6b7280" font-size="12" text-anchor="end">190222</text><line x1="78" x2="934" y1="448" y2="448" stroke="#9ca3af" stroke-dasharray="6 4" stroke-width="1.5"/><text x="934" y="442" fill="#6b7280" font-size="11" text-anchor="end">start 10000</text><polyline fill="none" stroke="#d97706" stroke-linejoin="round" stroke-width="1.2" points="78 131.5 79.4 131.5 81.1 131.5 82.4 131.4 84.3 131 86.3 130.2 87.7 130.6 88.8 129.2 91 129.2 93.2 129.8 94.7 128.3 95.8 128 96.8 127.9 98.5 127.8 100.3 128.8 101.8 127.6 103.5 128.4 105.7 129.1 107.5 129.6 109.7 128.1 111.9 128 113.9 128 115.1 127.8 116.6 127 117.6 128 118.7 128.6 120.6 128.4 122.9 128.8 125.1 128.7 127.6 128.7 130 128.9 132.4 128.6 134.7 129.1 137 129.4 138.8 129.7 141.1 129.2 143.3 129.6 145 129.3 146.8 129.1 148.8 128.7 150.5 129 151.8 129.6 153.4 130.4 154.9 130.7 156.9 129.9 159 129.9 160.9 128.1 161.8 127.7 163.8 128 167 128.5 168.5 128.9 170.3 129.5 172.7 128.7 175.1 128.9 177.5 129.9 178.3 128.8 179.4 128.3 180.5 129.2 181.4 129.2 182.3 128.7 184.3 129.5 186.5 129.9 188.2 129.7 189.8 130.3 191.7 130.6 193.8 129.6 195.8 130 197.4 128.1 198.3 127.5 199.9 127.4 200 126.4 200.5 126.2 201 125.6 201.2 124.8 201.4 125.2 201.7 124 202 123.2 202.5 122.8 203 121.9 203.2 121.2 203.5 121.5 203.9 121.2 204.1 120.7 204.5 121.4 204.9 121 205.4 121 205.9 120.6 206.4 120.2 207 120 207.7 120.2 208.5 120.6 209.3 120.2 210 119.7 210.7 119.6 211.5 119.8 212.1 119.2 212.5 118.9 213.3 118.2 213.8 118.2 214.6 118.6 215.3 119.3 215.8 120.3 216.3 121.1 216.9 121.4 217.4 121.8 218 123 218.3 122.9 218.9 122.8 219.8 122.1 220.7 122.4 221.1 121.7 221.7 121.3 222.3 121.5 222.9 121 223.8 121 224.9 120.9 225.9 119.8 226.7 120.6 227.5 120.5 228.2 120.6 228.9 120.8 230.1 120.7 230.9 121.3 231.8 121 233 121.2 233.9 120.1 234.5 121.1 235.4 121.1 236.4 121.7 237.6 122.2 239.4 122.1 240.5 122.4 241.1 123.4 242 124.1 242.9 124.3 244.1 124.7 245.5 124.6 247.1 124.2 248.7 124.2 250.9 124.4 253.5 123.6 255.5 123.9 257.2 123.5 259.1 124.9 259.7 125 260.7 124.8 261.9 124.7 263.8 125 265.4 124.4 266.7 123.5 268.8 123.7 270.1 122.8 270.8 122.6 272 121.5 273.3 122.1 274.9 123.4 275.7 124.2 276.8 124.2 278 124.4 280.3 123.5 281.6 122.3 283.4 121.2 284.2 120.4 285.3 120.5 286.3 119.8 287.4 120.1 288.5 119.1 289.8 118.7 290.9 118.5 292.2 118.8 293.2 118.8 293.7 117.8 294.4 117.9 295.5 117.8 296.3 118.4 297.6 119.1 298.8 119.7 300.5 119.3 301.6 119 303 119.5 304.4 120.4 306.3 120.5 308.7 120.8 310.2 121.1 311.3 121.7 312.7 120.8 313.6 122 314.1 121.7 314.3 121.9 314.9 121.9 315.6 122.2 316.7 121.3 317.7 121.6 319 121.7 320.1 122 321.1 122.8 321.8 123.7 322.4 124.9 323 125 324 124.7 325.4 124.5 327.1 124 328.3 123.5 328.9 124.6 330.3 124.8 331.3 125 332.7 125.6 333.7 124.5 334.9 123.9 335.9 122.9 336.9 123.4 337.8 123.9 338.8 124.6 339.8 123.4 340.8 123.2 341.8 124.1 343.1 124.6 344.4 123.7 345.6 123.5 346.5 124.3 347.6 124.4 348.6 123.6 349.7 122.8 351.2 122.9 352.6 122.1 354.7 121.9 355.2 122.8 356.3 122.8 357.9 123.2 358.7 123.1 359.6 123.5 361.2 123.5 362.2 124.5 363.5 124.9 364.3 124.5 365.3 123.8 366.3 124.6 367 125 368.1 125.1 368.9 124.1 369.7 123.2 371.1 123.1 372.7 122 373.3 121.4 374 120.6 375 120.8 375.9 120.5 377.1 121.5 378.8 121.3 380.1 121 382 121.2 383.2 122.2 384.4 122.2 385.9 122.9 387.1 122.3 388.5 122.8 389.6 122.3 390.7 121.3 391.8 120.7 392.9 121 393.9 120.4 395.9 120.1 397 119 398 118.7 399.4 118.7 400 119.4 400.7 119.9 401.6 119.7 403 119.8 404.3 120.2 406.4 119.1 407.9 119.4 409.2 119.3 410.4 119.2 411.7 119.5 413 118.7 414.3 118.1 414.8 117.6 415.1 117.2 415.6 116.8 416 116.2 416.2 115.1 416.4 115 416.8 116 417.2 116.7 417.6 116.2 418.6 115.7 419.3 115 420.3 114.9 421.3 114.7 422.1 115 423.1 115.9 423.9 116.5 424.8 115.2 425.9 116.1 426.8 116.6 428.1 117.2 428.6 118.1 428.9 119.2 429.1 119.6 429.8 119.2 430.6 119.8 431.2 120.1 431.8 119.7 432.6 120.6 433.1 120.4 434.5 120.1 435.5 119.2 436.4 119.1 437.1 119.3 438.2 118.9 439.6 118.5 441.2 119 443 118.9 444.4 117.8 445.8 117.6 446.5 117 447.6 116.7 448 118.2 448.4 119.2 449.7 119.7 451.9 120 453.5 119.7 454.5 119.2 455.7 120.5 457.1 119.8 458.7 120.3 460.7 120.2 462.6 120.6 464.1 120 465.1 119 466.4 119.3 468.1 119.3 469.8 119.3 471.3 119 472.5 118.9 473.7 118.7 474.7 119.4 475.7 118.4 476.6 118.8 477.8 120.2 479.9 120.6 481.8 120.4 482.7 121.3 483.9 121.6 485.9 121.7 486.5 122.3 488.3 122 490.1 121.3 491.4 121.9 493.3 121.7 495.1 121.7 497 122.4 499.2 122.5 500.9 121.6 502.3 121.8 504.3 121.9 506.4 122.5 507.7 122 509.3 121.1 510.3 121.1 511.5 120 512.1 121 512.9 121.9 513.9 122.4 515.3 123.1 516.3 122.7 517.9 121.4 519.7 121.2 520.9 120.4 522.4 120.9 524 121.4 525.2 121.2 526 120.9 527.2 120.2 528.6 121.2 529.9 120.7 530.9 120.9 532.1 120.8 532.9 120.7 534.9 120.6 536.2 119.6 536.9 119.5 537.6 119.3 539.6 118.8 540.7 118.3 542 117.7 543 118.1 544.1 117.6 545 118.6 546.2 118.5 547.2 118.7 548 119.6 548.8 119.5 550.7 119.6 551.8 119.6 552.8 118.5 553.8 117.8 555.1 117.9 556.8 117.3 557.8 116.6 558.7 116.5 559.7 116.7 560.1 116.8 560.8 117.1 561.3 116.9 562.2 116 562.8 115.9 563.5 116.5 564.2 115.6 564.8 115.3 565.2 114.7 565.5 114.9 566.1 114.3 566.7 115.1 567.2 114.9 567.8 115.3 568.4 114.4 569 114.8 569.6 115.5 570.1 116 570.6 115.5 571.2 117 571.5 118 572 117.6 572.6 118.3 573.2 117.9 573.7 118.7 574.1 119.3 574.7 119.3 575.7 118.9 576.1 118.1 577.1 117.5 577.7 117.1 578.2 118.6 578.5 118.4 579.1 116.7 579.7 116.8 580.4 115.4 581 115.2 581.8 114.9 582.7 116.1 583.6 116.4 584.3 116.5 585.3 117.4 585.8 118.4 586.4 118.2 586.9 117.6 587.4 118.7 587.6 120 588 120.4 588.2 119.7 588.8 120.3 589.4 120.2 590.1 119.4 590.7 119.9 591.2 120.4 591.8 120.7 592.5 120 593.3 119.6 594.4 119.9 595.2 120.8 595.4 120.9 595.7 119.6 596 119.6 596.4 119.8 596.7 119.7 597.1 120.1 597.6 119.8 598 119.3 598.5 119.2 598.9 120.2 599.3 120.6 600.1 120.3 601.5 120.3 602.6 121.1 603.5 120.6 604.7 121 606.1 120.2 607.5 119.5 608.6 120.1 610.2 120 611.5 120.3 611.8 121.6 611.8 123.1 611.9 122.6 611.9 122.8 611.9 123.3 612 123.4 612 123.9 612 123.7 612.1 124.4 612.2 124.5 612.3 125.2 612.4 124.6 612.4 125 612.5 124.4 612.5 124 612.6 124.8 612.7 124.6 612.7 123.6 612.8 124.4 613 125.2 613 124.7 613.1 124.3 613.2 124 613.3 124.7 613.4 125.4 613.5 125.2 613.6 126.1 613.7 125.6 613.7 125.6 613.8 126.8 613.8 127.1 613.9 126.6 614 127 614.1 127.5 614.2 127.2 614.2 127.4 614.3 127.8 614.4 128.7 614.5 128.6 614.6 128.8 614.6 127.9 614.7 127.8 614.8 127.2 614.9 128 614.9 127.6 615 127.1 615.1 127.4 615.2 128.3 615.4 128 615.4 128.8 615.6 129.3 615.6 129.8 615.7 129.9 615.7 129.8 615.9 129.2 615.9 128.4 616 129.2 616.1 129.2 616.1 129.5 616.2 129 616.3 129.9 616.4 128.8 616.5 128.7 616.6 127.9 616.6 128.3 616.7 128.3 616.8 129.1 616.9 128.5 617 127.5 617.1 127.1 617.2 127.5 617.3 128 617.4 127.5 617.6 127.2 617.8 126.7 617.9 127 618.1 126.9 618.3 127.3 618.4 127.1 618.6 126.8 618.8 127.9 618.9 127.1 619.1 126.5 619.2 126.6 619.4 125.8 619.6 125.2 619.9 125.9 620.2 126 620.4 126.2 620.7 127.1 621 127.4 621.3 126.6 621.5 127 621.8 127.1 622.1 127.6 622.3 126.7 622.5 126.7 622.7 127.7 623 127.6 623.2 128.1 623.4 128.6 623.6 130 623.7 129.3 623.7 129.2 623.8 130.1 624 130.5 624.3 130.4 624.4 130.4 624.5 131.2 624.8 131.2 624.9 130.9 625 131.8 625.1 131 625.2 131.4 625.3 132.1 625.5 131.5 625.6 132.4 625.7 133.2 625.9 133.3 625.9 134.4 626 134.7 626.1 134.3 626.1 134.3 626.2 135.1 626.3 135.4 626.3 134.8 626.5 134.2 626.6 133.8 626.7 134 626.9 134.8 627 135.6 627.1 136.2 627.2 135.9 627.3 135.7 627.3 137.3 627.4 137.3 627.5 136.8 627.6 136.4 627.7 137.1 627.7 137.9 627.8 138 627.9 137.8 628 137.6 628 138.9 628.1 138.4 628.2 138.9 628.3 138.4 628.4 138.7 628.5 138.1 628.5 136.9 628.6 137.5 628.7 138.5 628.8 139.1 628.9 139.1 629.1 138.8 629.2 139.1 629.3 138.3 629.5 137.3 629.6 136.8 629.7 137.5 629.8 138.1 629.9 137.6 630.1 138.1 630.3 138.6 630.4 139.1 630.6 139.9 630.9 140.2 630.9 140.9 631 141.1 631.1 142.2 631.2 142.4 631.3 143.4 631.3 143.9 631.4 143.7 631.5 143 631.5 142.5 631.6 143 631.7 144.7 631.7 145.4 631.8 145.1 631.8 144.7 631.9 146 631.9 147 631.9 147.5 632 148.5 632 147.7 632 149.1 632 145.5 632.1 144.7 632.1 144.1 632.1 143.4 632.2 143.5 632.2 143.7 632.3 143.9 632.3 143.9 632.4 144.3 632.4 144.7 632.5 144.1 632.6 145.6 632.6 145.3 632.7 144.5 632.8 144.3 632.9 144.8 633 143.6 633.1 144.3 633.2 145 633.3 145.1 633.3 145.5 633.4 146 633.4 146.9 633.5 146.7 633.5 146.5 633.6 146.6 633.7 148.2 633.8 148 633.8 145.7 633.9 145.5 633.9 145.7 634 145.2 634.1 144.9 634.2 144.3 634.3 145.7 634.4 145.7 634.5 146.2 634.5 145.3 634.6 145.4 634.7 145.8 634.8 145.3 634.9 144.9 635 145.1 635.1 145.2 635.2 144.9 635.3 144.2 635.3 143.5 635.4 143.4 635.6 143.2 635.7 143.2 635.8 142.7 635.9 142.2 636 143.4 636.1 143.1 636.2 143.8 636.3 143.3 636.4 142.5 636.5 142.4 636.7 143.3 636.9 144 637 144.4 637.2 145.3 637.4 145.6 637.5 145.4 637.6 144.6 637.8 144 638 144.1 638.3 144.3 638.4 143.5 638.6 143.3 638.7 142.3 638.8 141.8 639 141.7 639.2 141.3 639.4 140.7 639.6 140.8 639.8 140.3 640 141 640.1 141.4 640.4 141.9 640.5 141.1 640.7 140.6 640.8 141.1 641 141.2 641.2 142.1 641.5 141.8 641.7 142.2 641.8 142.1 641.9 142.1 642.1 141.7 642.3 142.5 642.5 142.8 642.7 142.5 642.9 142.7 643.1 143.4 643.3 142.8 643.5 143.2 643.7 143.4 643.9 144.2 644.2 144.3 644.3 144 644.6 144.5 644.9 144.8 645.2 144.8 645.4 144.4 645.8 145 646 145.4 646.4 145.3 646.7 145.7 646.9 145.2 647.3 145.5 647.7 145.7 648.1 144.7 648.4 145.4 648.7 146 648.9 146.9 649.1 146.9 649.3 147.1 649.6 147.1 649.7 148 649.9 147.5 650.1 148.1 650.3 147.9 650.6 147.9 650.8 147.9 651 147.5 651.3 148.2 651.5 147.2 651.8 147.1 652 146.1 652.1 145.9 652.3 146.2 652.4 145.3 652.7 145.5 652.8 145.8 653.1 145.6 653.3 145 653.6 144.9 654 143.9 654.3 143.9 654.4 143 654.7 143.3 654.9 143.8 655.3 144.4 655.6 143.9 655.8 143.8 656.1 144.6 656.4 144.8 656.7 145.3 657.1 145.6 657.6 145.6 657.9 145.7 658.2 145.6 658.4 146 658.8 146.1 659 146.6 659.2 146.4 659.6 146.9 659.9 147.1 660.1 146.3 660.5 146.2 661 146.5 661.4 146.8 661.7 145.3 662 144.9 662.5 144.3 662.9 143.3 663.4 143.2 663.7 144 664.2 143.3 664.8 142.9 665.1 142.7 665.4 142.7 666.1 143.1 666.6 143.7 666.9 143.8 667.3 144.4 667.6 144.1 667.9 143.1 668.3 142.7 668.6 142.1 668.9 142.5 669.3 142.7 669.7 143.2 670.1 143 670.5 142 671.2 141.7 671.9 142.2 672.7 142.2 673.1 142.7 673.5 143.7 673.9 143.6 674.5 144.7 675.1 145 675.2 146.2 675.6 145.7 675.9 146.2 676 146 676.3 145.6 676.5 146.6 676.8 145.6 677.1 146.4 677.5 147.4 678 147.8 678.6 147.9 679 147.2 679.5 147.6 680.1 147 680.7 148.2 681.1 148 681.6 147.5 682.1 148.5 682.5 148.1 683.1 148.5 683.6 148.6 683.9 148.9 684.5 149 684.8 148 685.2 148.7 686 148.5 686.6 148.4 687.1 149 687.4 149.6 687.7 149.3 688 149 688.4 148.4 688.9 149.4 689.2 148.6 689.7 147.4 690.3 147.7 690.9 148.1 691.2 147.6 691.5 146.5 691.8 146.2 692.3 147.2 692.8 147.6 693.3 147.2 693.7 146.6 694.2 146.4 694.8 146.3 695.5 145.7 696.1 145.9 696.6 146.9 697 146.8 697.4 145.6 698.2 144.5 698.8 144.7 699.6 145 700.4 145.8 701.1 145.2 702.1 145.4 702.6 144.4 703.1 144.8 703.8 145.8 704.5 145.9 705.2 146 705.8 147 706.5 147.3 706.9 147.9 707.6 148.5 708.2 148.8 708.8 149 709.6 148.5 710.4 149.1 711.2 148.6 711.6 149.1 711.9 150.4 712 151.4 712.2 150.4 712.5 149.5 713 149.3 713.3 148.6 714 149 714.5 149.3 715.2 149 715.9 149.5 716.7 149.5 717.3 149 718 149.5 718.5 150.2 719.4 149.7 720.3 150.9 720.7 150.8 721.2 150.7 721.6 150.1 722.1 151.1 722.9 150.8 723.4 151.2 723.9 149.9 724.3 151.6 724.7 151.4 725.2 151.4 726 151.6 726.4 151.4 727 151.5 727.5 151.9 728.2 152.6 728.9 151.6 729.5 151.8 730.1 151.5 730.7 152.1 731.2 152.8 731.9 152.4 732.4 151.9 733.1 151.9 733.7 151 734.2 151.4 735.3 150.7 736.5 151.2 737.7 152.1 738.5 151.9 739.3 152.5 740 151.9 741 152.8 742.1 153.1 742.7 153.6 743.4 153.2 743.7 154.7 743.9 154.4 744.1 153.8 744.4 152.9 744.9 153.3 745.6 153.1 746.4 153 747 153 747.6 153.3 748.4 154 748.8 155.4 749.2 155 749.7 154.6 750.3 154.5 751 153.9 751.8 154.7 752.7 154.7 753.3 153.9 753.9 154 754.9 154.5 755.8 154.2 756.5 154.2 757.2 153.8 758 153.8 758.9 155 759.4 154.9 759.8 154.9 760.5 155.2 760.8 156.2 761.1 155.6 761.5 155.7 761.8 156.3 762.2 155.5 762.6 155.8 762.8 157.2 762.9 156.7 763.2 156.8 763.6 155.8 764.3 157.1 764.7 157.3 765 157.9 765.2 156.5 765.6 157.4 766 156.9 766.6 157.5 767.3 157.5 767.8 157.9 767.9 158.6 768.1 159.2 768.2 158.2 768.6 159.4 768.7 159.6 768.8 159.3 768.9 159.8 769 160.1 769.2 159.1 769.5 159.9 769.7 159.6 770.1 159.2 770.6 158.2 770.9 156.9 771.3 157.3 771.7 158.6 772 159.5 772.4 160.1 772.7 160.9 772.8 162.1 772.9 161.1 773.2 161.8 773.3 162.9 773.3 163.7 773.4 163.7 773.4 164.7 773.5 166 773.5 165.7 773.6 164.1 773.6 163.9 773.7 163.4 773.7 163.7 773.8 163.2 774 163 774.1 162.1 774.2 162.5 774.4 162.5 774.6 161.8 774.7 162.7 774.9 163 775 162.2 775.2 163 775.4 163.9 775.5 164.9 775.6 165 775.7 165 775.8 165.6 775.9 164.6 776 165.2 776.2 165 776.5 164.1 776.7 165.3 776.9 164.9 777.1 164 777.5 164.4 777.8 163.9 778.1 162.5 778.3 162.5 778.6 161.8 778.8 162.2 779.1 162.9 779.3 163.5 779.5 163.2 779.8 162 780 162.9 780.2 162.8 780.5 161.5 780.6 160.7 780.7 161.4 781 162.3 781.2 161.7 781.5 160.8 781.8 161.2 782.1 160.3 782.4 160.3 782.7 159.4 782.9 159.2 783.1 160.3 783.4 160.6 783.7 160.5 784.1 159.9 784.4 159.1 784.8 158.9 785.1 159.3 785.4 159.4 785.7 160.1 785.9 160.4 786.1 160.8 786.3 161.4 786.5 161.9 786.6 162.4 786.9 162.2 787.2 162.8 787.6 162.1 787.7 163.8 788 164.1 788.1 164.2 788.4 164.5 788.6 164.7 789 164.1 789.4 164.1 789.7 163.6 789.9 163.1 790.3 163.6 790.6 164.2 790.9 164.8 791.2 164.8 791.5 164.5 792 164.9 792.5 163.8 792.8 164.4 793.2 164 793.6 162.9 794 161.8 794.5 163 795 162.8 795.5 162.2 796 163.3 796.8 163.6 797.3 164.1 797.9 163.6 798.6 163.2 798.9 161.6 799.2 161.9 799.7 162.3 800.2 162.5 800.4 163.6 800.8 163.1 801.2 163.1 801.6 163.5 802.3 164 803.2 163.8 803.8 163.1 804.5 162.6 805.1 161.6 805.6 161.5 806.2 162.1 807.2 161.3 808.1 161.4 809.1 160.9 809.9 162.2 810.6 161.8 811.3 162.1 812 162 812.6 163.1 813.4 163.4 813.8 162.4 814.5 162.4 815.4 162.3 816.4 162 817.4 161.7 817.6 161.6 818.2 161.5 818.9 161.7 819.4 161.8 819.8 161.2 820.2 161.1 820.7 160.4 821.1 161.3 821.2 163.2 821.3 164.3 821.3 163.2 821.3 163.8 821.4 164.6 821.4 165.1 821.5 165.5 821.7 164.6 821.7 164.1 821.8 164.2 821.9 165.3 822 166.1 822.1 167 822.2 166.4 822.2 166.1 822.3 166.1 822.4 166.7 822.4 167.7 822.6 167.9 822.6 168.3 822.7 167.8 822.7 169.5 822.8 169.6 822.8 170 822.8 168.7 822.9 169.7 822.9 169.5 822.9 168.7 823 167.7 823 167.4 823.1 167.3 823.2 168.5 823.3 170.1 823.4 171.4 823.4 172.8 823.5 173.6 823.5 172.1 823.5 170.7 823.6 170.7 823.6 171.6 823.7 172.9 823.7 173.1 823.8 172 823.8 171.3 823.9 171.1 824 171.7 824 169.5 824.1 169.9 824.1 169.2 824.2 170.2 824.2 171.1 824.3 171.6 824.3 170.3 824.5 170.9 824.6 172.5 824.6 174.3 824.6 174 824.7 174.4 824.7 174.3 824.8 175.3 824.8 175.5 824.8 176.2 824.8 179.5 824.9 181.4 824.9 182.3 825 181.9 825 178.8 825 178.3 825.1 175.5 825.1 176.8 825.1 177.7 825.1 180.7 825.1 177.3 825.2 176.2 825.2 174.9 825.3 176.1 825.3 176.4 825.3 175.1 825.4 174.4 825.4 174.4 825.5 176.4 825.5 177.8 825.5 176.2 825.6 175.9 825.6 176.3 825.7 176.6 825.8 177.2 825.8 175.5 825.9 175.9 825.9 176.3 826 177 826.1 178.6 826.1 177.7 826.2 176.8 826.2 176.9 826.3 178 826.4 179.6 826.4 180.7 826.4 179.3 826.5 179.7 826.5 177.9 826.6 178.5 826.6 180 826.6 180.3 826.7 181 826.7 183.2 826.7 185.5 826.8 187.5 826.8 189.6 826.8 192.6 826.9 192.4 826.9 193.5 826.9 197.5 826.9 194.4 826.9 195 826.9 192.2 826.9 193.6 826.9 188.9 826.9 191 827 187.9 827 186.3 827 185.7 827.1 186.3 827.1 185.7 827.1 186.7 827.2 187.3 827.2 185.6 827.2 184.5 827.3 183.9 827.3 184.4 827.3 185.2 827.3 185.8 827.4 186.4 827.4 186.5 827.5 187.9 827.5 187.9 827.5 190 827.6 189 827.6 188.7 827.6 187.4 827.7 188.9 827.7 187.7 827.7 187.8 827.8 186.8 827.8 185.2 827.8 184.5 827.9 184.2 827.9 184.5 828 183.9 828 183.1 828.1 182.4 828.2 182 828.2 182.2 828.2 183.7 828.3 183.6 828.3 183 828.4 181.9 828.4 181.8 828.5 180.9 828.5 182.7 828.6 183.6 828.6 182.4 828.7 181.1 828.8 182.6 828.8 182 828.9 181.7 829 181.1 829 181 829.1 181.8 829.1 182.5 829.2 183.1 829.3 183.7 829.4 183.4 829.4 183.9 829.5 183.2 829.5 182.7 829.6 183.4 829.7 183.3 829.8 182.6 829.8 182.3 829.9 182.2 830 182.2 830.1 182.4 830.2 183.7 830.2 183.8 830.3 183.4 830.4 184.1 830.5 184.2 830.6 183.9 830.7 184.8 830.7 183.3 830.8 184.4 830.9 185.1 831 185 831.1 185.1 831.2 184.8 831.3 184.3 831.3 183.5 831.4 183 831.5 183.1 831.6 183.7 831.7 183.1 831.7 183.9 831.8 185.2 831.8 184.9 831.9 184.6 831.9 184.7 831.9 185.4 832 185.3 832.1 185.5 832.1 185.5 832.2 186 832.3 185.9 832.4 185.1 832.4 184.8 832.5 184.7 832.7 184 832.8 182.9 832.9 183.7 833 183.3 833.2 185.1 833.4 186.1 833.5 185.9 833.6 185.5 833.7 186.7 833.8 187 833.9 187.6 833.9 187.8 834 188.1 834.1 188.6 834.1 188.9 834.2 189.5 834.2 188.2 834.3 187.7 834.3 188.4 834.3 189.3 834.4 190.2 834.4 191.5 834.4 192.2 834.4 192.4 834.5 192.8 834.5 193 834.5 195.3 834.5 196.1 834.6 194.4 834.6 194.6 834.6 196.8 834.7 197 834.7 196.4 834.7 198.7 834.8 200.7 834.8 202.3 834.8 204.5 834.9 206.3 834.9 210.2 834.9 213.5 835 210.7 835 214 835.1 218.4 835.1 216.7 835.1 217.5 835.1 216.1 835.2 213.7 835.2 211.9 835.2 210.3 835.3 210 835.3 209 835.3 210.5 835.4 208.6 835.4 209.5 835.4 209.1 835.4 211.7 835.5 214.2 835.5 217.2 835.5 220.5 835.6 222.5 835.6 225.1 835.6 228.2 835.6 233.3 835.7 235.1 835.7 233.1 835.7 233 835.7 230.8 835.7 228.5 835.8 226.9 835.8 224.5 835.8 222.3 835.8 220.6 835.9 220.6 836 220.6 836 220.3 836 217 836 213 836 217.1 836 218 836.1 217.5 836.1 217.2 836.2 218.6 836.2 219.5 836.2 221.5 836.3 223.4 836.3 225.8 836.3 226.8 836.4 222.7 836.4 225.2 836.5 228.1 836.5 230.2 836.6 233 836.6 234.8 836.6 238.6 836.7 241 836.7 244.2 836.7 237.6 836.8 237.1 836.8 235.6 836.8 236.3 836.9 240.6 836.9 245.7 836.9 246.6 836.9 253 836.9 248.3 837 249.9 837 253.9 837.1 257 837.1 260.4 837.1 263.5 837.2 263.8 837.2 261 837.3 256.7 837.3 249.8 837.3 256 837.3 259.3 837.3 265.8 837.4 268.1 837.4 273.1 837.4 273.9 837.5 273.2 837.5 269.7 837.6 277.1 837.6 282.5 837.6 276.4 837.7 267.5 837.7 261 837.7 266.8 837.7 272.6 837.8 272.8 837.8 277 837.8 281.8 837.9 283.1 837.9 285.2 837.9 290.7 837.9 299.6 838 301.5 838 304.3 838 299.3 838 292.6 838.1 290.6 838.1 300.6 838.1 303.6 838.2 309.2 838.2 304.1 838.2 307.2 838.3 320.7 838.3 316 838.3 318.5 838.3 323 838.4 329.6 838.4 333.5 838.5 339.6 838.5 344.6 838.5 343.7 838.6 348.3 838.6 354.3 838.7 362.5 838.7 371.9 838.8 377.3 838.9 378.9 838.9 376.5 839 384 839 391.9 839.1 398.8 839.1 403.6 839.1 409.4 839.2 408.6 839.3 416.8 839.4 418.4 839.5 427.2 839.6 434.5 839.6 432.7 839.7 435.8 839.7 423.8 839.8 439.2 839.8 438 840 428.9 840.1 416.7 840.1 419.5 840.2 409 840.3 405.3 840.4 397.4 840.4 391.2 840.5 394.4 840.6 391.9 840.6 383.2 840.7 396.7 840.7 391.5 840.8 387.8 840.8 383.8 840.9 377.6 841 380.9 841 373.4 841.1 366.8 841.1 374.5 841.2 377.9 841.3 376.4 841.3 372.7 841.4 371.2 841.5 371.2 841.6 369 841.7 371.1 841.7 359.8 841.8 366.4 841.8 362.8 842 359.2 842 356.3 842.1 358.3 842.2 366.6 842.2 362.1 842.3 361 842.4 380.1 842.4 371 842.5 360.4 842.5 356.2 842.6 363.9 842.6 355 842.7 356.4 842.7 362.4 842.8 358.5 842.9 359 843 352.3 843 353 843.1 358.3 843.1 353.1 843.2 353.2 843.2 350.3 843.3 352.1 843.4 350 843.4 336.4 843.4 348 843.5 343.4 843.5 346.2 843.5 354 843.6 345.5 843.7 345 843.8 340.9 843.8 319.8 843.8 342.8 843.9 342.1 843.9 335.6 843.9 342.1 844 339.4 844 333.4 844 342.4 844.1 341.1 844.1 330.4 844.1 340.9 844.1 341.7 844.2 336.7 844.2 342.5 844.2 339.9 844.3 344.5 844.3 341.4 844.3 331.1 844.3 341.1 844.4 338.7 844.4 338.4 844.5 332.5 844.5 335.6 844.5 334.3 844.6 327.1 844.7 333.4 844.7 337.7 844.7 337.9 844.7 318.7 844.8 326.6 844.8 333.3 844.9 329.1 845 335.4 845 339.6 845.1 332.3 845.1 327.1 845.1 325.5 845.1 335.7 845.1 336.3 845.2 328 845.2 330.2 845.2 330.3 845.2 328 845.3 329.1 845.3 331.2 845.4 328.8 845.4 328 845.4 330.3 845.5 330.3 845.5 328.3 845.5 326.4 845.6 330.3 845.7 329.6 845.7 328.3 845.8 323.9 845.8 329 845.8 327.4 845.9 327.2 845.9 328.1 846 330 846 328.8 846.1 328.4 846.1 325.9 846.2 325.2 846.2 323.9 846.3 327.4 846.3 328 846.3 325 846.3 322.4 846.3 325.5 846.3 326.3 846.4 326.1 846.4 323.3 846.4 322.8 846.5 323.9 846.5 323 846.5 328.8 846.5 323 846.6 322.3 846.6 320.9 846.6 312.4 846.6 313.7 846.7 310.3 846.7 321.4 846.7 316.5 846.7 304.1 846.7 320.5 846.7 344.6 846.7 323.8 846.7 319.6 846.8 322.8 846.8 319.6 846.8 319.6 846.9 323.9 846.9 320 846.9 318.7 846.9 318.6 846.9 319.9 847 320.6 847 319.4 847 319.2 847 318.7 847 319.5 847.1 317.5 847.1 322.8 847.1 319.4 847.1 320 847.1 318.9 847.1 320.1 847.2 316.5 847.2 313.7 847.2 317.8 847.2 322.4 847.2 317.2 847.2 322.4 847.3 321.8 847.3 313.5 847.3 320 847.3 313.8 847.3 318.7 847.4 313.4 847.4 310 847.4 314.6 847.4 315.9 847.5 316.5 847.5 315.6 847.5 315.8 847.6 312 847.6 316.5 847.6 319.6 847.7 318.1 847.7 319.9 847.8 315.6 847.8 315.8 847.8 318.1 847.8 315.9 847.8 317.6 847.9 315.5 847.9 314.6 847.9 315.3 848 315.1 848 319.6 848 318.3 848 312.3 848 314.5 848 313.5 848.1 312.4 848.1 316.6 848.1 318.7 848.1 322.8 848.1 313.7 848.1 312.4 848.2 315.1 848.2 315.9 848.2 314.5 848.3 317.7 848.3 317.1 848.3 313.8 848.3 319.8 848.4 318.2 848.4 317.5 848.4 316.7 848.5 317.5 848.5 314 848.5 314.1 848.5 315.5 848.6 314.9 848.6 315.6 848.6 312.4 848.7 316.6 848.7 313.5 848.7 314.4 848.8 315.3 848.8 315.9 848.8 314.4 848.8 317.6 848.9 313.6 848.9 309.9 848.9 317 848.9 306.9 848.9 305.5 849 309.9 849 304.9 849 310.4 849 312.2 849.1 314.5 849.1 307.2 849.1 313.2 849.2 311.4 849.2 316.8 849.2 311.4 849.2 314.4 849.2 316 849.2 312.7 849.2 312.5 849.2 319.1 849.3 310.2 849.3 309.1 849.3 309.3 849.3 310.5 849.3 308.4 849.3 308.4 849.3 308.3 849.3 313.1 849.4 313.8 849.4 310.1 849.4 312.8 849.5 311.1 849.5 308.3 849.6 310.1 849.6 310.3 849.6 309.3 849.6 308.1 849.6 313.3 849.7 310.2 849.7 313 849.7 307.9 849.7 308.6 849.7 306.1 849.7 310.4 849.8 310.2 849.8 311 849.8 310.2 849.8 316.1 849.9 310.3 849.9 314 849.9 313.5 850 311 850.1 309.2 850.1 314.5 850.1 311.7 850.2 315.3 850.2 316.6 850.2 315.6 850.2 309.7 850.2 315.6 850.3 315 850.3 312.6 850.3 312.4 850.4 313.7 850.4 312.4 850.4 301.2 850.4 313.7 850.5 316.9 850.5 314.5 850.5 311.5 850.6 316.1 850.6 313.5 850.7 317.9 850.7 314.9 850.8 317.6 850.8 318.1 850.9 317.9 850.9 316.6 850.9 318.2 851 311 851 312.4 851 316.8 851.1 313.3 851.1 317.4 851.1 315.1 851.2 315.3 851.2 311.4 851.2 312.8 851.3 314.5 851.3 314.1 851.3 312.8 851.4 314.9 851.4 313.7 851.4 308.4 851.5 309.3 851.5 310 851.5 310.9 851.6 308.3 851.6 310.3 851.6 315.6 851.6 307.3 851.7 309.4 851.7 299.9 851.7 305.7 851.8 309.6 851.8 304.1 851.8 304.1 851.8 306.5 851.9 305.4 851.9 308.2 851.9 303.2 852 306.5 852 304.7 852 304.5 852 304.9 852 306.6 852.1 307.2 852.1 301.6 852.1 307.4 852.1 299.8 852.1 303.8 852.1 303 852.2 301.7 852.2 302.3 852.2 302.8 852.2 307.2 852.2 302.4 852.3 296.5 852.3 306.8 852.3 306.7 852.3 301.9 852.3 295.3 852.3 295.2 852.4 298 852.4 295 852.4 300.9 852.4 299.6 852.4 301.9 852.4 292.6 852.4 296.4 852.4 301.9 852.5 298 852.5 295.3 852.5 294.8 852.5 294.3 852.5 297.4 852.5 299.7 852.6 296.3 852.6 295 852.6 294.9 852.6 297.4 852.6 302 852.7 293.4 852.7 288.4 852.7 297.8 852.7 295.7 852.7 294.4 852.7 293.5 852.7 282.5 852.7 283.8 852.7 295.2 852.7 287.4 852.8 290.7 852.8 299.9 852.8 290.1 852.8 295.4 852.8 292.9 852.9 290.5 852.9 295.5 852.9 291.7 852.9 291.8 853 285.7 853 282.2 853 276.9 853 279 853 282.1 853 282.3 853.1 280.5 853.1 282.9 853.1 285.6 853.1 287.1 853.1 278.5 853.2 305.1 853.2 296.8 853.3 287.1 853.3 284.3 853.3 310.3 853.4 294.7 853.4 278.5 853.4 286.5 853.4 275.9 853.5 289.8 853.5 278 853.5 286.5 853.5 294.7 853.6 288.4 853.6 283.8 853.6 281.4 853.6 292.6 853.7 286.3 853.7 294.7 853.8 286.4 853.8 281.8 853.8 295.3 853.8 280.9 853.9 289.8 853.9 293.6 853.9 281.5 853.9 272.6 853.9 283 853.9 280 854 277.9 854 289.1 854 292.5 854.1 300.9 854.1 288.2 854.2 291.5 854.2 292.6 854.2 281.4 854.3 288.4 854.3 298.8 854.3 292.6 854.3 296.3 854.4 288.2 854.4 291.5 854.4 283 854.4 285.6 854.4 297.8 854.5 293.6 854.5 298.4 854.6 297.8 854.6 294.8 854.7 299.6 854.8 304.1 854.8 285.7 854.9 289.8 854.9 291.6 855 285.8 855 294.7 855.1 295.3 855.1 293.6 855.2 291.5 855.2 280 855.3 276.9 855.4 272.6 855.5 280 855.5 283.2 855.6 285.7 855.7 285.3 855.8 280.8 855.8 280 855.9 279.8 855.9 279.9 856 274.8 856.1 270.1 856.1 271.8 856.2 272 856.3 265.2 856.3 268.7 856.4 270.6 856.5 270.7 856.5 268 856.6 264.8 856.6 267.8 856.7 269.7 856.7 271.6 856.8 269.8 856.9 269.8 857 267.5 857.1 264.4 857.1 262.4 857.2 262.9 857.4 260.9 857.4 260.2 857.4 260.3 857.5 260.3 857.6 259.6 857.7 260.2 857.7 258.6 857.8 258 857.8 256.1 857.9 256.5 857.9 259.2 857.9 254.3 857.9 257.4 857.9 257.8 857.9 252.2 858 251.4 858 247.8 858 255.9 858 251.2 858 240.9 858 248.2 858 248.9 858 252.9 858 251.4 858.1 251.2 858.1 251.1 858.2 250.3 858.3 247.7 858.4 246.6 858.4 248.2 858.4 243.5 858.5 241.7 858.5 246.6 858.6 244.7 858.7 245.5 858.7 250.9 858.8 249.3 858.8 247.6 858.9 246.3 859 249.7 859 252.9 859.1 251.9 859.1 253 859.2 248.9 859.2 245.8 859.2 248.2 859.3 247.4 859.4 247.1 859.4 245.7 859.5 244.6 859.6 247.4 859.6 246 859.6 250.2 859.7 248.9 859.7 249.7 859.7 249.2 859.7 247.8 859.8 244.8 859.9 241.4 859.9 238.6 859.9 235.9 859.9 238.6 860 240.3 860 240.7 860 245.6 860 245.1 860.1 243.6 860.1 243 860.1 245.1 860.1 245.1 860.1 241.4 860.2 242.4 860.2 243.7 860.2 239.8 860.2 242.8 860.3 242.5 860.3 240.6 860.3 241.6 860.3 242.8 860.4 242.6 860.4 242 860.5 240.3 860.5 240.7 860.5 240.8 860.6 241.3 860.7 240.6 860.7 246.6 860.7 249.5 860.8 250.8 860.8 244.7 860.9 243.1 860.9 238.3 860.9 239.4 860.9 245.1 860.9 241.5 860.9 239.2 860.9 243 860.9 243.5 861 243.7 861 244.4 861 242.2 861 241.6 861.1 242.7 861.1 242.1 861.2 242.3 861.2 244.1 861.3 243.9 861.3 244.1 861.5 242.5 861.5 240.1 861.6 238.2 861.6 239.8 861.7 243 861.8 239.3 862 242.6 862.1 241.9 862.1 240.2 862.2 242.1 862.2 242.7 862.3 243.8 862.3 242.7 862.4 241.4 862.4 236.6 862.4 243.6 862.4 241.1 862.5 240.4 862.6 244.3 862.7 245.1 862.7 242.8 862.7 244.6 862.8 243.9 862.8 242.9 862.9 244.7 862.9 245 863 247.8 863 249.7 863.1 251.8 863.1 252.6 863.2 255.1 863.2 252.9 863.3 253.2 863.3 252.8 863.3 251.9 863.3 254.1 863.4 252.5 863.4 255.1 863.4 256.2 863.4 254.8 863.5 254.4 863.5 253.9 863.5 255.1 863.6 255.3 863.7 252.7 863.7 252.5 863.7 253.7 863.7 254.8 863.8 255.9 863.8 248.8 863.8 253.3 863.8 254 863.9 254.8 863.9 252.3 863.9 251.5 864 252.5 864 250.9 864 250.3 864 254.7 864.1 254.5 864.1 253.3 864.1 253.1 864.2 252.4 864.2 256.3 864.2 255.2 864.2 253.5 864.3 253.9 864.3 252.9 864.4 254.2 864.4 256 864.5 256.5 864.5 256.3 864.5 257.4 864.6 258.1 864.6 259.1 864.7 261.9 864.7 265 864.8 260.9 864.8 265.2 864.9 261.8 865 262.7 865.1 263.8 865.1 261.6 865.1 262.9 865.2 265.5 865.2 263.9 865.3 264.4 865.3 263.1 865.3 264.8 865.4 264.2 865.4 264.9 865.5 264.8 865.6 266.9 865.7 268.5 865.7 267.5 865.7 266 865.8 268.5 865.8 270.6 865.8 273.4 865.9 273.5 866 277.3 866 277.9 866.1 281.1 866.1 284.2 866.2 279.8 866.3 282.7 866.3 277.4 866.3 275.9 866.4 276.8 866.4 274.8 866.4 272.2 866.4 268.6 866.5 267.8 866.5 272 866.6 266.6 866.6 268.2 866.6 268.2 866.7 268.4 866.8 267.6 866.9 268.8 866.9 264.2 867 266.1 867 267.8 867.1 268.7 867.1 268.4 867.1 265.7 867.2 263.7 867.3 265.2 867.4 263.5 867.4 262.7 867.5 263.7 867.5 266.1 867.5 266.4 867.6 263.7 867.6 266.6 867.6 264.8 867.7 265.7 867.7 263.7 867.8 263.5 867.9 266.9 867.9 262 867.9 260.8 868 257.9 868 261.2 868 259.1 868.1 259.8 868.1 258.5 868.2 259.3 868.2 259.8 868.3 257.5 868.3 256.1 868.3 256.8 868.3 259.1 868.3 256.6 868.4 256.1 868.4 256.4 868.5 257.6 868.6 254.9 868.6 257 868.6 251.4 868.6 255.3 868.6 256.7 868.7 258.3 868.7 259.4 868.7 261.8 868.7 259.1 868.8 263.5 868.8 264.1 868.9 259.5 868.9 260.3 868.9 260.2 868.9 261.4 869 260.6 869 261.3 869.1 263.5 869.1 259.8 869.1 258.3 869.1 258.8 869.2 259.1 869.3 256.4 869.3 265.5 869.3 279.3 869.3 265.7 869.3 266.8 869.3 278.7 869.3 280 869.3 280 869.4 281.8 869.4 278.7 869.4 273.5 869.5 272.7 869.5 267.4 869.6 269.7 869.6 265.2 869.7 265.2 869.7 267.7 869.8 266.9 869.8 263.8 869.9 264.4 869.9 266.5 870 265.9 870.1 264.6 870.1 266.2 870.2 262.7 870.2 262.7 870.3 264.4 870.4 263.9 870.4 264.3 870.5 265.7 870.5 264.3 870.6 260.6 870.6 261.4 870.8 260.2 870.8 261.1 870.9 262.3 871 261.1 871.1 261.7 871.1 260.7 871.2 263.3 871.3 260.6 871.3 262.3 871.3 260.9 871.5 260.8 871.7 258.6 871.7 262.4 871.8 259.9 872 261.2 872.1 259.8 872.2 259 872.3 259.5 872.4 260.5 872.4 259.8 872.5 259.5 872.6 256.6 872.7 255.4 872.8 256.7 872.8 256 872.9 258.2 873.1 257 873.2 257.7 873.2 254.4 873.4 257.3 873.5 257.4 873.6 257.6 873.6 257.1 873.7 257.8 873.8 258.7 873.9 255.3 873.9 257.6 874 259.7 874.1 259.4 874.2 261.9 874.2 260.8 874.3 261.3 874.3 263.7 874.4 262.4 874.4 261.1 874.6 259.3 874.6 257.7 874.7 259.1 874.8 260.2 874.9 257.8 875 259.6 875.1 260.6 875.1 266 875.2 266 875.2 266.9 875.2 266.8 875.2 264.4 875.3 264.4 875.3 265.2 875.3 264.1 875.3 267.1 875.5 265.8 875.6 265.8 875.7 263.6 875.8 262.6 875.8 259.8 875.8 261.8 875.9 262.6 876 261.2 876.1 260.7 876.2 261.8 876.2 260.8 876.3 260.6 876.4 262.1 876.4 260.1 876.5 261.8 876.7 264.5 876.7 264.4 876.8 263.6 876.9 263.6 877 265 877 266.8 877.1 266.1 877.2 264.2 877.4 262.2 877.5 263.6 877.6 264.4 877.7 265.1 877.7 265.5 877.8 264.5 877.9 267 878 266.8 878.1 265.8 878.2 266.2 878.3 265.7 878.3 265.8 878.4 266.6 878.5 268.4 878.6 270 878.7 271.3 878.8 270.2 878.9 269.3 878.9 271.3 879 271.6 879.1 273.1 879.2 272.2 879.3 270.5 879.4 269.8 879.4 268.4 879.5 268.2 879.5 266.7 879.5 263.9 879.5 268 879.6 267.9 879.7 267.3 879.8 266.9 879.8 266.9 879.9 266.7 880 266.6 880.1 265 880.2 265 880.3 264.3 880.4 265.8 880.4 266.7 880.5 266.4 880.6 265.2 880.7 265.5 880.8 266.8 880.9 268.3 881 261.5 881 262.7 881 266 881.1 267.8 881.2 267.3 881.3 266.1 881.5 264.9 881.6 264.6 881.7 264.3 881.8 265.6 881.9 266.7 882 264.8 882.1 265.5 882.2 267.4 882.3 266.6 882.4 266.4 882.6 267.7 882.6 268.6 882.7 269.1 882.9 270.4 883 268.7 883.1 267.6 883.1 267.4 883.2 266 883.4 266.2 883.5 265.2 883.6 266.4 883.8 265.7 883.9 265.5 884 265.6 884.1 265.4 884.2 265.7 884.4 265.3 884.5 266.7 884.5 270.4 884.5 269.6 884.5 267.1 884.5 266.8 884.6 270.7 884.6 274.1 884.6 271.2 884.6 266.7 884.7 265.7 884.7 267.6 884.8 266 885 268.2 885.1 269.4 885.2 268 885.4 267.1 885.4 266.5 885.6 265.4 885.8 265 885.9 264.9 886 262.9 886.1 262 886.2 262.8 886.5 262.1 886.6 263.8 886.6 261.2 886.6 259.4 886.7 263.2 886.9 262.4 886.9 258.2 887.1 261 887.1 261.8 887.2 263.1 887.4 262.6 887.6 262.4 887.7 263.2 887.8 264.1 888 262.6 888.1 261.6 888.3 260.8 888.4 259.1 888.5 258.2 888.6 259.5 888.8 259.1 888.9 258.5 889.1 256.8 889.2 257.7 889.3 256.6 889.4 257.6 889.5 256.9 889.6 255 889.7 255 889.8 255.9 889.9 254.2 890 255.9 890.1 254.5 890.2 255.4 890.4 254.2 890.5 254.2 890.6 254.8 890.7 253.4 890.8 254.4 891 255.4 891.1 253.7 891.1 253.2 891.2 253.5 891.3 253 891.4 250.9 891.5 251.7 891.6 250.9 891.7 251.1 891.7 250.9 891.8 251.7 891.9 252.2 892 252.2 892.1 252.8 892.2 253.8 892.3 253.2 892.4 252.8 892.5 250.9 892.6 251.4 892.7 251.3 892.8 252.2 893 253.1 893 252.5 893.1 253.1 893.2 251.9 893.3 252.6 893.3 252.2 893.4 251.7 893.6 251.9 893.7 252.2 893.8 250.7 893.9 250.4 894 250.7 894.1 251.1 894.2 250.9 894.3 251.3 894.4 253.3 894.6 251.8 894.7 253.2 894.9 251.7 895.1 251.8 895.2 252.1 895.3 251.4 895.4 253.1 895.5 252.3 895.6 252.9 895.8 252.2 895.9 252 896 251 896.1 251.2 896.3 250.7 896.6 252.1 896.6 251.5 896.8 250.8 896.9 248.9 897 249 897.2 247.8 897.3 247.6 897.4 246.4 897.5 246.7 897.5 251.2 897.6 246.7 897.8 246.3 897.9 245.6 897.9 246.7 898 246.7 898.1 246.3 898.2 245.3 898.4 245.4 898.5 245.9 898.6 244.4 898.7 244.5 898.9 243.4 899 243.5 899.1 242.6 899.1 244.1 899.3 242 899.3 243.2 899.5 241.6 899.5 241.8 899.6 243.2 899.6 243.5 899.7 244.8 899.8 245.1 900 244.2 900.1 243.6 900.2 243.8 900.3 244.6 900.4 245.4 900.4 244.8 900.6 244 900.7 244.3 900.8 244 900.8 242.7 900.8 243.5 901 245 901.1 246.4 901.3 246.2 901.4 247.3 901.6 247.6 901.7 247.9 901.8 249.2 901.9 249.4 902 248.1 902.1 249 902.2 251.9 902.3 250.3 902.4 250.4 902.5 250.3 902.7 249.1 902.9 248.2 903 247.3 903.1 247.8 903.2 247.5 903.4 247 903.4 247.2 903.5 247.1 903.6 246.2 903.6 247 903.7 246.9 903.7 247.3 903.8 247.2 903.9 247.4 903.9 247.1 904 247.4 904.1 247.9 904.2 247.4 904.3 246.8 904.3 245.4 904.4 246.6 904.5 246.1 904.5 245.4 904.6 245.8 904.6 246 904.7 246.7 904.7 246.8 904.8 248.1 904.9 248.1 905 247.4 905 247.4 905.1 247.3 905.3 249.6 905.4 252.4 905.5 251.5 905.6 251.9 905.7 251.8 905.9 249.9 906 247.7 906.1 246.7 906.1 248.1 906.3 247.8 906.4 246 906.6 246.4 906.7 246.9 906.9 247.2 907 246 907 241.5 907 244.4 907 245.7 907.1 246.3 907.1 246.8 907.3 246.3 907.4 245.1 907.6 245.4 907.6 244.9 907.8 245.3 907.9 244.3 908.1 243.5 908.1 243.1 908.3 243.2 908.4 238.4 908.4 241.6 908.6 240.7 908.7 240.4 908.9 240.3 909.1 239.4 909.2 238.1 909.3 239 909.4 239.3 909.5 237 909.6 238.4 909.7 237.5 909.9 237.1 910.1 236.4 910.3 235.9 910.5 235.3 910.7 234.4 910.8 234 910.9 233.9 911 233.5 911.1 232.2 911.3 229.9 911.4 230.7 911.5 231 911.6 230.3 911.7 229.8 911.7 225.9 911.8 229.6 911.9 229.9 912.1 229.3 912.1 230.5 912.2 230.7 912.4 230.6 912.7 229.3 912.8 227.9 912.9 228 913.1 228.6 913.2 229 913.4 229.3 913.6 227.9 913.7 226.9 913.9 227 914 225.8 914.2 226.1 914.4 224.9 914.6 225.6 914.7 226.9 914.9 225.8 915.1 225.7 915.3 225.3 915.5 223.6 915.6 223.9 915.9 223.8 916 224.5 916.3 225.1 916.4 223.8 916.7 224.7 916.8 222.9 916.9 223.1 917.1 222.7 917.3 222.8 917.5 222.1 917.6 223.2 917.6 223.8 917.8 226 917.9 226.8 917.9 227.7 918 224.8 918.1 225.3 918.2 224 918.6 225.1 918.7 225.7 918.8 224.5 919.1 224.7 919.3 225.5 919.5 223 919.8 222.9 919.9 223.9 920.2 224.2 920.4 222.6 920.5 223.8 920.6 222.4 920.8 222 921 222.7 921.1 223.4 921.2 226 921.4 223.6 921.5 224.7 921.7 223.6 921.9 223 922 220.8 922.2 222.1 922.3 221.2 922.4 222.1 922.7 223.1 922.8 222.6 923 222.3 923.2 222.2 923.4 222.9 923.6 222.4 923.7 220.2 923.8 221 924 221.5 924.2 222.1 924.4 221 924.7 220.2 924.9 220.9 925 218 925.1 220.4 925.2 222 925.4 222.1 925.7 223.8 925.7 222.3 926 222.1 926.2 223.6 926.3 223.7 926.4 227 926.4 224.8 926.5 224.7 926.7 224.9 926.8 225.7 926.9 225.3 927.1 225.7 927.3 224.9 927.5 225.3 927.6 226.5 927.7 227.5 927.9 228.2 928.1 227.4 928.2 227.7 928.3 228.1 928.6 229.8 928.7 229.7 928.8 231.5 928.8 231.5 928.8 234.2 928.8 232.1 928.9 231.8 929 231.8 929.1 230.8 929.3 230.6 929.4 232.1 929.5 233.5 929.7 234.3 929.7 234.7 929.9 235.4 930 235 930 234.8 930.1 234.5 930.2 234.1 930.4 233.3 930.5 231.9 930.5 234.7 930.6 234.5 930.7 235.2 930.8 234.6 930.9 235.3 931.1 232.5 931.1 232.6 931.1 233 931.2 232.2 931.3 233.5 931.5 234.4 931.7 234.4 931.9 235.3 932 235.1 932.3 236 932.4 235.9 932.7 235.7 932.9 236 933.1 235 933.4 235.3 933.6 235.7 933.9 234.6 934 234.2" opacity=".6"/><text x="942" y="472" fill="#d97706" font-size="11" text-anchor="start">6.72</text><text x="942" y="396" fill="#d97706" font-size="11" text-anchor="start">10.17</text><text x="942" y="320" fill="#d97706" font-size="11" text-anchor="start">13.62</text><text x="942" y="244" fill="#d97706" font-size="11" text-anchor="start">17.07</text><text x="942" y="168" fill="#d97706" font-size="11" text-anchor="start">20.52</text><text x="942" y="92" fill="#d97706" font-size="11" text-anchor="start">23.97</text><text x="942" y="80" fill="#d97706" font-size="11" font-weight="600" text-anchor="start">price</text><polygon fill="#16a34a" fill-opacity=".08" points="201.7 468 201.7 448 415.4 446.8 427.7 447.3 571.1 448.2 613.8 447.8 627.2 447.2 639.1 446.5 670.9 447.2 712 447.1 720.3 447.6 773.4 445.9 775.5 446.4 790.9 447.3 824.6 446.7 824.9 446 825.1 445.6 826.1 446.3 826.7 446.2 826.9 445 826.9 445.5 826.9 446.4 826.9 446.9 826.9 447.8 826.9 448.3 826.9 449.2 826.9 449.7 826.9 450.6 826.9 451.1 827.6 452 828.5 451.6 829.2 452.3 834.2 451 834.5 450.2 834.6 450.7 834.9 449.8 834.9 449.2 835 449.9 835.1 448.6 835.1 449.3 835.2 449.2 835.5 449.7 835.6 448.8 835.6 447.4 835.6 447.9 835.6 448.8 835.7 448.4 835.7 449.1 835.7 449.8 835.7 450.5 835.8 450.4 836 449.1 836 448.7 836 448.1 836.3 447.3 836.4 447.8 836.5 446.7 836.6 446.3 836.7 447 836.9 447.7 836.9 447.1 836.9 447.7 836.9 448.5 836.9 449.1 836.9 449 836.9 448.6 836.9 449.3 837 450 837.1 449.4 837.1 448.8 837.2 449.5 837.2 450.2 837.3 449.4 837.3 449 837.3 448.4 837.4 447.8 837.4 447.1 837.4 447.8 837.4 448.5 837.5 449.2 837.5 449.9 837.5 450.6 837.5 451.4 837.5 452 837.6 451.9 837.6 452.4 837.6 453.3 837.7 452.1 837.7 452.6 837.7 451.5 837.7 451.1 837.7 449.6 837.8 450.1 837.8 448.4 837.9 448 837.9 448.7 837.9 449.4 837.9 448.8 837.9 447.3 837.9 447.9 837.9 448.8 837.9 448.1 837.9 447.7 837.9 448.4 838 449.1 838 449.8 838 450.5 838 449.7 838 449.3 838 448.5 838 447.9 838 448.4 838 447.5 838 448.2 838 448.1 838 447.5 838 446.8 838 446.2 838 445.6 838 445 838 444.6 838.1 443.1 838.1 442.5 838.1 443 838.1 443.9 838.1 444.4 838.1 443.3 838.1 442.9 838.1 441.5 838.1 440.9 838.1 441.4 838.2 439.6 838.2 439.2 838.2 438.6 838.2 438 838.2 438.7 838.2 437.4 838.2 436.8 838.2 436 838.2 435.4 838.2 434.7 838.2 434.1 838.2 432.9 838.2 432.5 838.2 431.7 838.2 431.2 838.2 430.4 838.2 430.9 838.2 429.8 838.3 428.6 838.3 429.1 838.3 428.2 838.3 428.9 838.3 429.6 838.3 430.3 838.3 430.2 838.3 430.7 838.3 431.6 838.3 432.1 838.3 433 838.3 432.6 838.3 432 838.4 432.7 838.4 432.6 838.4 432 838.4 431.3 838.4 431.9 838.4 430.8 838.5 430.4 838.5 429.7 838.5 430.4 838.5 430.3 838.5 429.1 838.5 429.6 838.5 430.5 838.5 431 838.5 431.9 838.5 432.4 838.6 433.3 838.6 432.7 838.6 433.2 838.7 432.3 838.7 430.8 838.7 430.2 838.7 430.7 838.7 429.8 838.7 430.5 838.7 431.3 838.8 430.6 838.8 431.3 838.8 432.1 838.8 432.7 838.8 433.5 838.8 434.2 838.8 434 838.8 434.6 838.8 435.5 838.8 436 838.8 436.9 838.8 435.6 838.8 436.1 838.9 435 838.9 434.4 838.9 433.8 838.9 434.3 838.9 433.4 838.9 432.8 838.9 431.4 838.9 431.9 839 432.8 839 433.3 839 434.2 839 434.7 839 435.6 839 435 839 434.4 839 434.9 839 433.1 839 432.5 839 433 839 433.9 839 434.4 839 433.3 839 433.8 839.1 432.9 839.1 432.3 839.1 431.7 839.1 431.1 839.1 431.8 839.1 432.5 839.1 433.2 839.1 433.9 839.1 433.3 839.2 432.7 839.2 432.1 839.2 432.7 839.2 433.5 839.2 432 839.2 431.6 839.2 431 839.2 430.2 839.2 429.8 839.2 429.1 839.2 428.5 839.2 427.1 839.2 426.5 839.2 425.8 839.2 425.2 839.2 425.7 839.3 426.6 839.3 425.4 839.3 425.9 839.3 426.8 839.3 425.5 839.3 424.9 839.3 424.5 839.3 423.1 839.3 422.4 839.4 422 839.4 421.4 839.4 422.1 839.4 420.8 839.4 420 839.4 419.4 839.4 419 839.4 419.7 839.4 419.5 839.4 418.9 839.4 418.3 839.4 417.1 839.4 415.8 839.4 415.2 839.4 414.6 839.4 414 839.4 413.6 839.5 412.1 839.5 412.6 839.5 411.5 839.5 412 839.5 412.9 839.5 413.4 839.5 412.3 839.5 411.1 839.5 410.7 839.6 409.2 839.6 408 839.6 407.4 839.6 406.7 839.6 406.3 839.6 405.7 839.6 405.1 839.6 405.8 839.6 406.5 839.6 407.2 839.6 407.9 839.6 408.6 839.6 408.5 839.7 409 839.7 407.3 839.7 407.8 839.7 406 839.7 405.6 839.7 404.2 839.7 403.6 839.7 402.9 839.7 402.3 839.8 401.7 839.8 402.2 839.8 403.1 839.9 403.6 839.9 402.5 839.9 403.1 840 402.2 840 402.8 840 401.6 840 400.1 840 399.7 840 398.9 840 399.4 840.1 398.3 840.1 397.1 840.1 397.6 840.1 396.7 840.1 397.4 840.1 398.1 840.1 398.8 840.1 398.7 840.1 399.2 840.2 398.1 840.2 398.6 840.2 397.5 840.3 396.2 840.3 395 840.3 395.5 840.4 396.4 840.4 396.9 840.4 397.8 840.4 398.3 840.4 399.2 840.4 399.7 840.4 400.6 840.4 401.2 840.4 400.3 840.4 399.6 840.4 400.3 840.5 400.2 840.5 399.8 840.5 400.5 840.5 401.2 840.5 400.4 840.5 399.8 840.5 400.3 840.5 399.4 840.5 398.6 840.5 397.9 840.6 398.5 840.6 396.7 840.6 397.2 840.6 398.1 840.6 398.6 840.6 397.5 840.6 398.1 840.6 397.2 840.7 396.5 840.7 395.1 840.7 394.5 840.7 395 840.7 393.2 840.7 392.6 840.7 392.2 840.7 391.6 840.8 390.8 840.8 389.5 840.8 390 840.8 390.9 840.8 391.5 840.8 390.6 840.8 391.2 840.8 392 840.9 392.6 840.9 392.5 840.9 393 840.9 392.2 840.9 390.7 841 390.3 841 389.5 841 390 841 388.9 841 388.5 841 387.6 841 386.4 841 385.1 841.1 384.7 841.1 384.1 841.1 383.3 841.1 382.7 841.1 383.2 841.1 382.3 841.1 380.8 841.1 380.2 841.1 379.6 841.1 379.2 841.1 379.9 841.1 379.8 841.1 379.4 841.2 378.5 841.2 377.9 841.2 378.4 841.2 377.5 841.2 376.1 841.2 375.7 841.2 376.3 841.3 375.1 841.3 375.8 841.3 375.6 841.4 374.4 841.4 374.9 841.5 375.8 841.5 376.3 841.5 377.2 841.6 377.7 841.7 376.8 841.7 376.2 841.7 375.4 841.7 375.9 841.7 376.8 841.7 376.4 841.7 375.6 841.7 375 841.7 375.5 841.7 374.6 841.7 373.1 841.7 372.7 841.7 371.3 841.7 370 841.7 369.4 841.7 369.9 841.8 368.2 841.8 367.8 841.8 366.9 841.8 365.7 841.8 366.2 841.8 365.3 841.8 366 841.8 365.9 841.8 365.3 841.9 365.8 842 366.7 842 366.1 842 366.6 842.1 364.9 842.2 364.5 842.2 365.1 842.2 365.9 842.2 366.6 842.2 367.3 842.2 365.8 842.3 365.2 842.3 364.8 842.3 365.5 842.4 366.2 842.4 364.8 842.4 364.4 842.4 363.7 842.4 363.1 842.4 363.8 842.4 363.7 842.4 363.3 842.4 362.5 842.4 361.9 842.4 362.4 842.4 361.5 842.4 360.7 842.5 360.2 842.5 360.9 842.5 358.8 842.5 358.2 842.5 357.6 842.5 358.1 842.5 357 842.6 357.5 842.6 356.6 842.6 355.8 842.6 355.2 842.6 355.7 842.6 356.6 842.7 357.1 842.7 358 842.7 358.5 842.7 359.4 842.7 358.2 842.7 358.7 842.8 356.9 842.8 356.5 842.8 355.7 842.8 356.2 842.8 357.1 842.8 356.7 842.8 357.4 842.8 358.1 842.9 357.3 842.9 356.9 843 357.6 843.1 358.3 843.1 357.5 843.1 358 843.1 358.9 843.2 359.4 843.2 360.3 843.3 359.9 843.4 360.6 843.4 360.5 843.4 361 843.4 359.9 843.4 358.6 843.4 359.1 843.4 358.2 843.4 356.8 843.4 356.2 843.4 356.7 843.4 355.8 843.4 355 843.4 355.5 843.4 353.7 843.4 353.1 843.5 352.7 843.5 351.3 843.5 350.7 843.5 350 843.5 348.8 843.5 349.3 843.5 350.2 843.5 349.8 843.5 349 843.5 349.5 843.5 347.8 843.5 346.5 843.5 346.1 843.5 346.8 843.5 345.5 843.5 344.7 843.6 345.2 843.6 346.1 843.8 345.5 843.8 346 843.8 345.1 843.8 343.6 843.8 342.4 843.8 342 843.9 341.4 843.9 340.6 843.9 339.9 843.9 339.3 843.9 338.7 843.9 338.3 843.9 337.7 843.9 337.1 844 335.6 844 335 844 333.7 844 333.3 844 332.5 844 331.9 844 331.3 844 331.8 844 332.7 844 332.1 844 331.5 844 330.9 844 331.4 844 330.3 844.1 330.8 844.1 331.7 844.1 332.2 844.1 331.1 844.1 330.7 844.1 330.1 844.1 328.6 844.1 328 844.1 327.6 844.1 328.3 844.1 329 844.1 328.4 844.2 329.1 844.2 329.8 844.2 329 844.2 329.5 844.2 327.8 844.2 326.5 844.2 325.9 844.2 325.3 844.2 324.7 844.2 325.2 844.2 326.1 844.2 324.8 844.2 323.6 844.2 324.1 844.3 323 844.3 323.5 844.3 322.6 844.3 323.3 844.3 322 844.3 322.7 844.3 322.6 844.3 323.1 844.3 324 844.3 324.5 844.3 323.6 844.3 322.8 844.3 323.3 844.3 324.2 844.3 324.7 844.4 325.6 844.4 326.2 844.4 327.1 844.4 327.6 844.5 328.5 844.5 329 844.5 329.9 844.5 330.4 844.5 328.7 844.5 327.4 844.5 326.2 844.5 326.7 844.5 325.8 844.5 325.2 844.5 324.3 844.5 323.7 844.5 324.2 844.5 325.1 844.6 323.9 844.6 324.4 844.6 323.5 844.6 322.9 844.7 322.1 844.7 320.8 844.7 321.3 844.7 319.6 844.7 318.3 844.7 318.8 844.7 319.8 844.7 318.5 844.7 317.9 844.7 318.4 844.7 316.7 844.7 316 844.8 315.4 844.8 315 844.8 315.7 844.8 316.4 844.8 315.8 844.8 315.2 844.8 314.6 844.8 315.3 844.8 314 844.8 313.4 844.8 312.6 844.8 312.1 844.9 312.8 845 311.6 845 312.2 845 312.1 845 312.6 845.1 311.7 845.1 311.1 845.1 309.7 845.1 309.3 845.1 308.6 845.1 307.8 845.1 308.3 845.1 307.4 845.1 308.1 845.1 308.9 845.1 309.5 845.2 310.3 845.2 309.7 845.2 308.2 845.2 308.7 845.2 309.6 845.3 310.1 845.4 311 845.5 310.4 845.5 309.8 845.5 310.3 845.7 311.2 845.8 311.7 845.9 310.6 845.9 310 845.9 310.5 845.9 309.6 845.9 308.8 845.9 308.4 845.9 307.8 846 307 846 307.5 846 308.4 846.1 308.9 846.2 307.8 846.2 308.3 846.3 307.2 846.3 306.6 846.3 306.2 846.3 305.6 846.3 306.3 846.3 306.2 846.3 305.7 846.3 304.9 846.3 304.5 846.4 303.7 846.4 303.3 846.4 302.7 846.4 302 846.4 301.2 846.5 300.6 846.5 300 846.5 300.5 846.5 299.4 846.5 299.9 846.5 298.8 846.5 299.3 846.6 298.4 846.6 297.8 846.6 297.2 846.6 296.4 846.6 296.9 846.6 295.8 846.6 295.2 846.6 294.8 846.6 295.5 846.7 296.2 846.7 295.6 846.7 294.1 846.7 293.5 846.7 294 846.7 293.1 846.7 292.5 846.7 291.7 846.7 290.4 846.7 290.9 846.7 289.8 846.7 289.2 846.7 288.8 846.7 288.2 846.7 286.7 846.7 286.1 846.7 285.7 846.7 284.3 846.7 283.6 846.7 283 846.7 282.4 846.7 282.9 846.7 282 846.7 281.2 846.7 281.7 846.8 282.6 846.8 282 846.8 281.4 846.8 281 846.8 280.4 846.8 281.1 846.9 280.9 846.9 281.4 846.9 280.4 846.9 280 846.9 280.6 846.9 279.4 846.9 280.1 847 280 847 280.5 847 281.4 847 280.9 847 279.5 847 278.9 847 279.4 847.1 280.3 847.1 280.8 847.1 281.7 847.1 281.1 847.1 280.5 847.1 280 847.1 279.2 847.1 278.6 847.1 279.1 847.1 278 847.1 277.4 847.1 277 847.2 276.2 847.2 276.7 847.2 275 847.2 274.3 847.2 273.7 847.2 273.1 847.2 272.7 847.2 271.9 847.2 270.6 847.2 271.1 847.2 270 847.2 269.6 847.2 268.8 847.2 268.4 847.2 267.8 847.2 268.5 847.3 269.2 847.3 268.4 847.3 267.1 847.3 265.9 847.3 265.5 847.3 264.7 847.3 264 847.3 264.5 847.3 265.4 847.3 266 847.4 264.9 847.4 264.5 847.4 263.6 847.4 263 847.4 262.6 847.4 262 847.4 262.7 847.4 263.4 847.5 264.1 847.5 264 847.6 264.5 847.6 263.6 847.7 264.3 847.7 265 847.7 265.7 847.7 266.4 847.8 265.8 847.8 265.2 847.8 265.9 847.8 266.6 847.9 267.3 847.9 267.2 847.9 266.8 847.9 267.4 848 268.2 848 268.8 848 269.6 848 268.7 848 269.3 848 270.2 848.1 270.7 848.1 268.9 848.1 269.4 848.1 268.3 848.1 267.7 848.1 266.5 848.1 266.1 848.1 264.6 848.1 264 848.1 263.6 848.1 263 848.1 262.2 848.1 261.5 848.1 262.1 848.1 261.2 848.1 261.8 848.1 260.6 848.1 261.3 848.1 261.1 848.2 261.7 848.2 260.6 848.2 261.1 848.2 259.3 848.3 258.9 848.3 258.1 848.3 258.6 848.3 257.5 848.3 256.9 848.3 256.5 848.3 257.2 848.4 255.9 848.4 255.1 848.4 255.6 848.4 256.5 848.4 257 848.5 257.9 848.5 257.3 848.5 256 848.5 255.4 848.6 255.9 848.6 256.8 848.6 256.2 848.6 255.8 848.7 256.5 848.7 254.4 848.8 254 848.8 254.6 848.8 255.4 848.8 254.8 848.8 253.9 848.8 252.7 848.8 253.2 848.8 252.3 848.8 251.7 848.9 251.1 848.9 250.2 848.9 249.8 848.9 249.2 848.9 248.6 848.9 249.3 848.9 248 848.9 246.6 848.9 246.1 848.9 245.5 848.9 244.1 848.9 243.5 849 244 849 244.9 849 244.5 849.1 243.7 849.1 244.2 849.1 243.3 849.1 242.4 849.1 243 849.2 243.9 849.2 242.6 849.2 243.1 849.2 244 849.2 243.4 849.2 242.8 849.2 243.3 849.2 242.2 849.2 242.7 849.2 241.6 849.2 242.1 849.2 243 849.2 243.5 849.2 241.8 849.2 241.4 849.2 240.6 849.2 241.1 849.2 240 849.2 240.5 849.2 238.7 849.2 238.1 849.3 237.5 849.3 238 849.3 237.1 849.3 237.8 849.3 236.5 849.3 237.2 849.3 238 849.3 238.6 849.3 238.5 849.3 239.1 849.3 238.2 849.3 237.5 849.3 236.1 849.3 236.6 849.3 237.5 849.3 237.1 849.4 237.8 849.4 238.5 849.6 237.7 849.6 238.2 849.6 239.1 849.6 238.5 849.6 239 849.6 238.1 849.6 237.5 849.6 238.2 849.6 238.9 849.7 239.6 849.7 240.3 849.7 241 849.7 240.9 849.7 241.4 849.7 240.5 849.7 239.9 849.7 238.4 849.7 237.2 849.8 236.5 849.8 237.1 849.8 237.9 849.8 238.5 849.9 237.4 849.9 236.7 849.9 236.3 849.9 235.7 850 236.4 850 237.1 850 237.8 850.1 238.6 850.1 237.7 850.1 238.2 850.1 239.2 850.1 239.7 850.2 240.6 850.2 241.1 850.2 242 850.2 241.4 850.2 240.7 850.2 240.3 850.2 241 850.2 241.7 850.2 240.9 850.3 241.4 850.3 239.7 850.3 239.1 850.3 239.6 850.4 238.5 850.4 238.1 850.4 237.5 850.4 236.9 850.4 235.4 850.4 235.9 850.4 234.8 850.5 234.2 850.5 233.8 850.5 234.5 850.6 235.2 850.6 235.9 850.7 236.6 850.8 237.3 850.9 237.2 850.9 237.7 851 236.6 851 237.1 851 236 851.1 236.5 851.1 235.4 851.1 234.8 851.1 235.3 851.2 234.2 851.2 234.7 851.2 233.8 851.2 234.5 851.2 234.4 851.3 234.9 851.3 235.8 851.3 234.6 851.4 235.1 851.4 236 851.5 236.5 851.5 237.4 851.5 237.9 851.5 238.8 851.5 238.2 851.5 237.6 851.6 238.1 851.6 239 851.6 237.7 851.6 237.3 851.6 238 851.6 238.7 851.6 239.4 851.6 237.3 851.6 236.9 851.6 237.6 851.7 237.5 851.7 236.8 851.7 237.4 851.7 238.3 851.7 237.6 851.8 238.2 851.8 239.1 851.8 237.8 851.8 238.3 851.8 237.4 851.9 238.1 851.9 238 852 238.5 852 239.4 852 239 852 238.4 852 236.9 852 237.4 852 238.3 852 238.8 852.1 239.8 852.1 240.3 852.1 239.4 852.1 240.1 852.1 238.8 852.1 238 852.1 237.6 852.1 236.9 852.1 236.3 852.1 235.5 852.1 236 852.2 236.9 852.2 237.4 852.2 236.3 852.2 235.7 852.2 235.1 852.2 234.5 852.2 235 852.2 235.9 852.2 236.4 852.2 237.3 852.3 236.7 852.3 237.2 852.3 238.1 852.3 237.7 852.3 238.4 852.3 239.1 852.3 239.8 852.3 240.5 852.3 239.7 852.3 240.2 852.3 241.1 852.3 241.6 852.3 242.5 852.3 241.9 852.3 241.5 852.3 240.9 852.3 239.4 852.3 238.8 852.3 239.3 852.4 240.2 852.4 240.7 852.4 241.6 852.4 241.2 852.4 240.6 852.4 239.1 852.4 238.5 852.4 239 852.4 237.9 852.4 238.4 852.4 237.5 852.4 238.2 852.4 239 852.4 239.6 852.4 238.4 852.4 237.6 852.4 236.9 852.4 237.4 852.4 236.5 852.4 237.2 852.4 238 852.4 237.1 852.4 236.5 852.4 235.9 852.4 235.5 852.4 234.9 852.4 235.6 852.5 235.5 852.5 235.1 852.5 235.8 852.5 233.6 852.5 234.1 852.5 235.1 852.5 235.6 852.5 234.5 852.5 235 852.5 234.1 852.5 233.5 852.6 232.6 852.6 233.1 852.6 234 852.6 234.5 852.6 235.4 852.6 236 852.6 236.9 852.6 236.2 852.6 236.8 852.7 235 852.7 234.6 852.7 234 852.7 234.7 852.7 233.4 852.7 231.9 852.7 232.4 852.7 231.6 852.7 230.1 852.7 228.8 852.7 228.4 852.7 229.1 852.7 227 852.7 227.5 852.7 226.6 852.7 225.2 852.7 224.5 852.7 225 852.7 224.1 852.7 222.7 852.7 222.1 852.7 221.5 852.7 220.8 852.7 220.2 852.7 219.6 852.7 219 852.7 218.6 852.7 217.8 852.7 217.1 852.7 216.5 852.7 215.9 852.8 215.5 852.8 214.9 852.8 214.1 852.8 214.6 852.8 215.5 852.8 216 852.8 216.9 852.8 217.4 852.8 218.3 852.8 218.8 852.8 217.7 852.9 217.1 852.9 216.7 852.9 217.4 852.9 218.1 852.9 217.3 852.9 217.8 853 218.7 853 217.4 853 217.9 853 218.8 853 217.6 853 217.2 853 217.8 853.1 217.7 853.1 217.3 853.1 218 853.1 218.7 853.1 219.4 853.1 219.3 853.1 218.7 853.1 219.2 853.1 220.1 853.1 220.6 853.1 219.5 853.1 220 853.1 218.9 853.1 218.5 853.1 219.2 853.2 219.9 853.2 218.5 853.2 217.8 853.2 217.2 853.2 216.6 853.2 216 853.2 215.4 853.2 215.9 853.2 214.2 853.2 214.7 853.2 212.9 853.2 212.5 853.2 213.2 853.3 213.1 853.3 212.5 853.3 213 853.3 213.9 853.3 213.2 853.3 212.6 853.3 211.4 853.3 211.9 853.3 210.2 853.4 208.9 853.4 208.3 853.4 207.9 853.4 207.3 853.4 206.5 853.4 206 853.4 206.7 853.4 206.6 853.4 206 853.4 206.5 853.4 205.6 853.4 206.3 853.4 207 853.4 206.4 853.4 205.6 853.4 204.4 853.4 203.7 853.4 203.1 853.5 203.6 853.5 202.7 853.5 203.4 853.5 202.1 853.5 201.5 853.5 202.2 853.5 202.9 853.5 202.3 853.5 201.7 853.5 200.2 853.5 199.6 853.5 198.4 853.5 197.8 853.5 197.4 853.5 195.9 853.5 196.4 853.5 195.5 853.5 194.7 853.5 194.3 853.6 195 853.6 192.9 853.6 193.4 853.6 194.3 853.6 193.6 853.6 194.2 853.6 193.3 853.6 192.6 853.6 193.3 853.7 192.1 853.7 191.4 853.7 190.6 853.7 190.2 853.7 189.6 853.7 189 853.7 189.7 853.7 188.4 853.7 189.1 853.8 189.8 853.8 189 853.8 189.5 853.8 188.6 853.8 188 853.8 187.4 853.8 186.8 853.8 187.4 853.8 186.2 853.8 185.4 853.8 184.7 853.8 184.3 853.8 183.5 853.8 182.9 853.8 182.5 853.8 181 853.8 180.6 853.9 180 853.9 180.7 853.9 180.6 853.9 180.2 853.9 179.3 853.9 178.9 853.9 177.5 853.9 177.1 853.9 175.6 853.9 176.1 853.9 177 853.9 176.4 853.9 175.8 853.9 174.6 853.9 174.2 853.9 172.7 853.9 172.1 853.9 172.6 853.9 171.5 853.9 172 853.9 171.1 853.9 170.3 853.9 169.7 853.9 169.1 854 168.7 854 168 854 167.2 854 167.7 854 166.8 854 165.4 854 165.9 854 166.8 854.1 166.2 854.1 166.7 854.1 165.8 854.1 165.2 854.1 163.7 854.1 163.1 854.1 163.6 854.1 162.7 854.1 161.9 854.2 161.3 854.2 160 854.2 160.5 854.2 159.7 854.2 159 854.2 157.6 854.2 157 854.2 156.6 854.2 155.7 854.2 155.3 854.2 156 854.2 154.7 854.2 153.3 854.2 152.9 854.2 152.3 854.2 151.6 854.3 151 854.3 150.4 854.3 148.9 854.3 148.3 854.3 147.9 854.3 146.5 854.3 145.9 854.3 146.4 854.3 147.3 854.3 146.9 854.3 145.4 854.3 145.9 854.3 145 854.3 144.4 854.3 143.6 854.3 143 854.3 142.4 854.3 141.7 854.3 141.1 854.4 141.6 854.4 140.5 854.4 141.1 854.4 140 854.4 138.7 854.4 138.1 854.4 138.6 854.4 137.5 854.4 136.9 854.4 136.3 854.4 136.8 854.4 135.9 854.4 135.3 854.4 134.5 854.4 133.8 854.4 134.4 854.4 133.5 854.4 132.9 854.4 132 854.4 131.4 854.4 131.9 854.4 131 854.4 130.2 854.4 129.6 854.4 128.3 854.5 128.8 854.5 129.8 854.5 130.3 854.5 131.2 854.5 130.8 854.5 129.9 854.5 130.5 854.5 129.6 854.5 128.1 854.6 126.8 854.6 126.2 854.6 125 854.6 123.7 854.6 123.3 854.6 124 854.6 123.9 854.6 123.5 854.7 124.2 854.7 124.9 854.7 125.6 854.7 126.3 854.7 125.5 854.7 126 854.8 126.9 854.8 126.5 854.8 125.9 854.8 126.6 854.8 126.5 854.8 125.8 854.8 125.4 854.8 124.8 854.9 124.2 854.9 124.9 854.9 125.6 854.9 125 854.9 125.7 854.9 126.4 854.9 125.8 854.9 125.2 855 125.9 855 126.6 855 126 855 125.4 855 126 855 126.8 855 126 855.1 126.5 855.1 125.6 855.1 125 855.1 125.6 855.1 123.5 855.1 123.1 855.1 123.8 855.1 124.6 855.2 125.2 855.2 126 855.2 126.7 855.2 127.4 855.2 126.8 855.4 125.3 855.4 124.9 855.5 124.3 855.5 125 855.5 125.7 855.5 126.4 855.6 127.1 855.8 125.7 855.8 125.1 855.8 125.6 855.8 124.5 855.8 125 855.9 124.1 855.9 124.8 855.9 125.5 855.9 124.9 855.9 125.6 856 125.5 856 126 856 126.9 856.3 126.5 856.3 125 856.4 125.5 856.5 124.4 856.5 124.9 856.6 124.1 856.6 124.7 856.7 125.5 856.7 124.7 857.1 123.4 857.1 123.9 857.4 122.8 857.4 121.6 857.4 120.3 857.4 120.8 857.8 119.9 857.9 120.6 857.9 121.3 858 120.5 858 121 858 119.3 858 119.8 858 118.9 858 119.6 858 120.3 858 119.7 858.4 118.9 858.4 119.4 858.4 120.3 858.5 119.6 858.6 120.2 858.7 119.1 859 119.6 859.1 120.5 859.6 121 859.6 121.9 859.7 121.3 859.7 120.7 859.7 121.2 859.8 119.4 859.9 119.9 860 120.8 860 120.4 860.1 121.1 860.1 119.8 860.2 118.4 860.2 118.9 860.2 119.8 860.2 120.3 860.3 121.2 860.8 120 860.8 119.5 860.9 118.9 860.9 119.6 860.9 120.3 860.9 119.5 860.9 118.9 860.9 118.5 861 119.2 861 119.9 861 120.6 861 120.5 861.3 119.9 861.3 120.4 861.5 119.3 861.6 119.8 862.4 120.7 862.7 120.1 863.1 119.5 863.2 120 863.5 120.9 863.6 121.4 863.8 122.3 863.8 121.7 863.8 120.4 863.8 120 863.8 120.7 864 121.4 864.2 120.6 864.2 121.1 864.7 120 864.7 120.6 865.2 121.5 865.7 120.8 865.8 121.3 866 120.5 866 121.1 866.1 119 866.2 118.4 866.2 118.9 866.2 118 866.3 117.2 866.3 117.7 866.4 118.6 866.4 119.1 866.6 117.4 866.6 116.8 866.6 116.1 867 116.7 867.5 117.6 867.5 118.1 867.9 117.2 867.9 117.8 868 117.7 868 116.5 868 117 868.3 117.9 868.3 117.5 868.3 116.7 868.6 117.2 868.6 118.1 868.6 118.6 868.6 119.5 868.7 119.1 868.7 118.5 868.8 119.1 868.9 119.9 868.9 120.6 869 121.3 869.1 122 869.1 122.7 869.3 123.4 869.3 122.1 869.3 121.5 869.3 120.1 869.3 119.4 869.3 118.8 869.3 118.2 869.3 118.7 869.3 119.6 869.3 119 869.3 118.6 869.3 117.1 869.3 116.5 869.3 117 869.4 117.9 869.4 118.4 869.4 119.3 869.4 118.7 869.5 118.1 869.5 118.6 869.6 119.5 869.6 120 869.7 118.3 869.8 117.7 869.8 118.2 870.2 116.5 870.6 117 871.7 117.9 872 118.4 872.4 119.3 872.9 118.9 873.2 119.6 873.9 120.3 874.3 119.7 875.1 120.4 875.2 118.2 875.2 118.8 875.2 119.7 875.2 120.2 875.3 121.1 875.3 121.6 875.7 122.5 876.6 123 877.2 121.3 878.1 121.8 878.1 122.7 879.4 122.3 879.5 121.7 879.5 122.4 879.8 123.1 881 122.3 881 121.7 881 121 881.9 121.5 882.1 122.4 883.2 123 884.5 121.9 884.5 121.4 884.5 122.1 884.6 120.9 884.6 120.2 884.6 120.9 884.6 121.7 885.1 122.3 886.6 120.2 886.9 120.7 887.2 119.6 887.8 120.1 889 119.1 889.1 119.6 893.8 118.5 894.3 119 896.8 119.9 897.5 120.4 898.8 119.3 899 119.8 901.8 118.7 904.7 118.3 905.8 117.7 907 117.1 907.1 117.8 908.2 118.5 908.4 117.9 909.6 118.6 911.3 118.5 911.5 119 912.2 119.9 914.7 119.5 917.9 120.1 922 120 925 120.5 928.8 118.8 931.1 119.3 932.4 118.2 932.4 468"/><polyline fill="none" stroke="#16a34a" stroke-linejoin="round" stroke-width="2" points="201.7 448 415.4 446.8 427.7 447.3 571.1 448.2 613.8 447.8 627.2 447.2 639.1 446.5 670.9 447.2 712 447.1 720.3 447.6 773.4 445.9 775.5 446.4 790.9 447.3 824.6 446.7 824.9 446 825.1 445.6 826.1 446.3 826.7 446.2 826.9 445 826.9 445.5 826.9 446.4 826.9 446.9 826.9 447.8 826.9 448.3 826.9 449.2 826.9 449.7 826.9 450.6 826.9 451.1 827.6 452 828.5 451.6 829.2 452.3 834.2 451 834.5 450.2 834.6 450.7 834.9 449.8 834.9 449.2 835 449.9 835.1 448.6 835.1 449.3 835.2 449.2 835.5 449.7 835.6 448.8 835.6 447.4 835.6 447.9 835.6 448.8 835.7 448.4 835.7 449.1 835.7 449.8 835.7 450.5 835.8 450.4 836 449.1 836 448.7 836 448.1 836.3 447.3 836.4 447.8 836.5 446.7 836.6 446.3 836.7 447 836.9 447.7 836.9 447.1 836.9 447.7 836.9 448.5 836.9 449.1 836.9 449 836.9 448.6 836.9 449.3 837 450 837.1 449.4 837.1 448.8 837.2 449.5 837.2 450.2 837.3 449.4 837.3 449 837.3 448.4 837.4 447.8 837.4 447.1 837.4 447.8 837.4 448.5 837.5 449.2 837.5 449.9 837.5 450.6 837.5 451.4 837.5 452 837.6 451.9 837.6 452.4 837.6 453.3 837.7 452.1 837.7 452.6 837.7 451.5 837.7 451.1 837.7 449.6 837.8 450.1 837.8 448.4 837.9 448 837.9 448.7 837.9 449.4 837.9 448.8 837.9 447.3 837.9 447.9 837.9 448.8 837.9 448.1 837.9 447.7 837.9 448.4 838 449.1 838 449.8 838 450.5 838 449.7 838 449.3 838 448.5 838 447.9 838 448.4 838 447.5 838 448.2 838 448.1 838 447.5 838 446.8 838 446.2 838 445.6 838 445 838 444.6 838.1 443.1 838.1 442.5 838.1 443 838.1 443.9 838.1 444.4 838.1 443.3 838.1 442.9 838.1 441.5 838.1 440.9 838.1 441.4 838.2 439.6 838.2 439.2 838.2 438.6 838.2 438 838.2 438.7 838.2 437.4 838.2 436.8 838.2 436 838.2 435.4 838.2 434.7 838.2 434.1 838.2 432.9 838.2 432.5 838.2 431.7 838.2 431.2 838.2 430.4 838.2 430.9 838.2 429.8 838.3 428.6 838.3 429.1 838.3 428.2 838.3 428.9 838.3 429.6 838.3 430.3 838.3 430.2 838.3 430.7 838.3 431.6 838.3 432.1 838.3 433 838.3 432.6 838.3 432 838.4 432.7 838.4 432.6 838.4 432 838.4 431.3 838.4 431.9 838.4 430.8 838.5 430.4 838.5 429.7 838.5 430.4 838.5 430.3 838.5 429.1 838.5 429.6 838.5 430.5 838.5 431 838.5 431.9 838.5 432.4 838.6 433.3 838.6 432.7 838.6 433.2 838.7 432.3 838.7 430.8 838.7 430.2 838.7 430.7 838.7 429.8 838.7 430.5 838.7 431.3 838.8 430.6 838.8 431.3 838.8 432.1 838.8 432.7 838.8 433.5 838.8 434.2 838.8 434 838.8 434.6 838.8 435.5 838.8 436 838.8 436.9 838.8 435.6 838.8 436.1 838.9 435 838.9 434.4 838.9 433.8 838.9 434.3 838.9 433.4 838.9 432.8 838.9 431.4 838.9 431.9 839 432.8 839 433.3 839 434.2 839 434.7 839 435.6 839 435 839 434.4 839 434.9 839 433.1 839 432.5 839 433 839 433.9 839 434.4 839 433.3 839 433.8 839.1 432.9 839.1 432.3 839.1 431.7 839.1 431.1 839.1 431.8 839.1 432.5 839.1 433.2 839.1 433.9 839.1 433.3 839.2 432.7 839.2 432.1 839.2 432.7 839.2 433.5 839.2 432 839.2 431.6 839.2 431 839.2 430.2 839.2 429.8 839.2 429.1 839.2 428.5 839.2 427.1 839.2 426.5 839.2 425.8 839.2 425.2 839.2 425.7 839.3 426.6 839.3 425.4 839.3 425.9 839.3 426.8 839.3 425.5 839.3 424.9 839.3 424.5 839.3 423.1 839.3 422.4 839.4 422 839.4 421.4 839.4 422.1 839.4 420.8 839.4 420 839.4 419.4 839.4 419 839.4 419.7 839.4 419.5 839.4 418.9 839.4 418.3 839.4 417.1 839.4 415.8 839.4 415.2 839.4 414.6 839.4 414 839.4 413.6 839.5 412.1 839.5 412.6 839.5 411.5 839.5 412 839.5 412.9 839.5 413.4 839.5 412.3 839.5 411.1 839.5 410.7 839.6 409.2 839.6 408 839.6 407.4 839.6 406.7 839.6 406.3 839.6 405.7 839.6 405.1 839.6 405.8 839.6 406.5 839.6 407.2 839.6 407.9 839.6 408.6 839.6 408.5 839.7 409 839.7 407.3 839.7 407.8 839.7 406 839.7 405.6 839.7 404.2 839.7 403.6 839.7 402.9 839.7 402.3 839.8 401.7 839.8 402.2 839.8 403.1 839.9 403.6 839.9 402.5 839.9 403.1 840 402.2 840 402.8 840 401.6 840 400.1 840 399.7 840 398.9 840 399.4 840.1 398.3 840.1 397.1 840.1 397.6 840.1 396.7 840.1 397.4 840.1 398.1 840.1 398.8 840.1 398.7 840.1 399.2 840.2 398.1 840.2 398.6 840.2 397.5 840.3 396.2 840.3 395 840.3 395.5 840.4 396.4 840.4 396.9 840.4 397.8 840.4 398.3 840.4 399.2 840.4 399.7 840.4 400.6 840.4 401.2 840.4 400.3 840.4 399.6 840.4 400.3 840.5 400.2 840.5 399.8 840.5 400.5 840.5 401.2 840.5 400.4 840.5 399.8 840.5 400.3 840.5 399.4 840.5 398.6 840.5 397.9 840.6 398.5 840.6 396.7 840.6 397.2 840.6 398.1 840.6 398.6 840.6 397.5 840.6 398.1 840.6 397.2 840.7 396.5 840.7 395.1 840.7 394.5 840.7 395 840.7 393.2 840.7 392.6 840.7 392.2 840.7 391.6 840.8 390.8 840.8 389.5 840.8 390 840.8 390.9 840.8 391.5 840.8 390.6 840.8 391.2 840.8 392 840.9 392.6 840.9 392.5 840.9 393 840.9 392.2 840.9 390.7 841 390.3 841 389.5 841 390 841 388.9 841 388.5 841 387.6 841 386.4 841 385.1 841.1 384.7 841.1 384.1 841.1 383.3 841.1 382.7 841.1 383.2 841.1 382.3 841.1 380.8 841.1 380.2 841.1 379.6 841.1 379.2 841.1 379.9 841.1 379.8 841.1 379.4 841.2 378.5 841.2 377.9 841.2 378.4 841.2 377.5 841.2 376.1 841.2 375.7 841.2 376.3 841.3 375.1 841.3 375.8 841.3 375.6 841.4 374.4 841.4 374.9 841.5 375.8 841.5 376.3 841.5 377.2 841.6 377.7 841.7 376.8 841.7 376.2 841.7 375.4 841.7 375.9 841.7 376.8 841.7 376.4 841.7 375.6 841.7 375 841.7 375.5 841.7 374.6 841.7 373.1 841.7 372.7 841.7 371.3 841.7 370 841.7 369.4 841.7 369.9 841.8 368.2 841.8 367.8 841.8 366.9 841.8 365.7 841.8 366.2 841.8 365.3 841.8 366 841.8 365.9 841.8 365.3 841.9 365.8 842 366.7 842 366.1 842 366.6 842.1 364.9 842.2 364.5 842.2 365.1 842.2 365.9 842.2 366.6 842.2 367.3 842.2 365.8 842.3 365.2 842.3 364.8 842.3 365.5 842.4 366.2 842.4 364.8 842.4 364.4 842.4 363.7 842.4 363.1 842.4 363.8 842.4 363.7 842.4 363.3 842.4 362.5 842.4 361.9 842.4 362.4 842.4 361.5 842.4 360.7 842.5 360.2 842.5 360.9 842.5 358.8 842.5 358.2 842.5 357.6 842.5 358.1 842.5 357 842.6 357.5 842.6 356.6 842.6 355.8 842.6 355.2 842.6 355.7 842.6 356.6 842.7 357.1 842.7 358 842.7 358.5 842.7 359.4 842.7 358.2 842.7 358.7 842.8 356.9 842.8 356.5 842.8 355.7 842.8 356.2 842.8 357.1 842.8 356.7 842.8 357.4 842.8 358.1 842.9 357.3 842.9 356.9 843 357.6 843.1 358.3 843.1 357.5 843.1 358 843.1 358.9 843.2 359.4 843.2 360.3 843.3 359.9 843.4 360.6 843.4 360.5 843.4 361 843.4 359.9 843.4 358.6 843.4 359.1 843.4 358.2 843.4 356.8 843.4 356.2 843.4 356.7 843.4 355.8 843.4 355 843.4 355.5 843.4 353.7 843.4 353.1 843.5 352.7 843.5 351.3 843.5 350.7 843.5 350 843.5 348.8 843.5 349.3 843.5 350.2 843.5 349.8 843.5 349 843.5 349.5 843.5 347.8 843.5 346.5 843.5 346.1 843.5 346.8 843.5 345.5 843.5 344.7 843.6 345.2 843.6 346.1 843.8 345.5 843.8 346 843.8 345.1 843.8 343.6 843.8 342.4 843.8 342 843.9 341.4 843.9 340.6 843.9 339.9 843.9 339.3 843.9 338.7 843.9 338.3 843.9 337.7 843.9 337.1 844 335.6 844 335 844 333.7 844 333.3 844 332.5 844 331.9 844 331.3 844 331.8 844 332.7 844 332.1 844 331.5 844 330.9 844 331.4 844 330.3 844.1 330.8 844.1 331.7 844.1 332.2 844.1 331.1 844.1 330.7 844.1 330.1 844.1 328.6 844.1 328 844.1 327.6 844.1 328.3 844.1 329 844.1 328.4 844.2 329.1 844.2 329.8 844.2 329 844.2 329.5 844.2 327.8 844.2 326.5 844.2 325.9 844.2 325.3 844.2 324.7 844.2 325.2 844.2 326.1 844.2 324.8 844.2 323.6 844.2 324.1 844.3 323 844.3 323.5 844.3 322.6 844.3 323.3 844.3 322 844.3 322.7 844.3 322.6 844.3 323.1 844.3 324 844.3 324.5 844.3 323.6 844.3 322.8 844.3 323.3 844.3 324.2 844.3 324.7 844.4 325.6 844.4 326.2 844.4 327.1 844.4 327.6 844.5 328.5 844.5 329 844.5 329.9 844.5 330.4 844.5 328.7 844.5 327.4 844.5 326.2 844.5 326.7 844.5 325.8 844.5 325.2 844.5 324.3 844.5 323.7 844.5 324.2 844.5 325.1 844.6 323.9 844.6 324.4 844.6 323.5 844.6 322.9 844.7 322.1 844.7 320.8 844.7 321.3 844.7 319.6 844.7 318.3 844.7 318.8 844.7 319.8 844.7 318.5 844.7 317.9 844.7 318.4 844.7 316.7 844.7 316 844.8 315.4 844.8 315 844.8 315.7 844.8 316.4 844.8 315.8 844.8 315.2 844.8 314.6 844.8 315.3 844.8 314 844.8 313.4 844.8 312.6 844.8 312.1 844.9 312.8 845 311.6 845 312.2 845 312.1 845 312.6 845.1 311.7 845.1 311.1 845.1 309.7 845.1 309.3 845.1 308.6 845.1 307.8 845.1 308.3 845.1 307.4 845.1 308.1 845.1 308.9 845.1 309.5 845.2 310.3 845.2 309.7 845.2 308.2 845.2 308.7 845.2 309.6 845.3 310.1 845.4 311 845.5 310.4 845.5 309.8 845.5 310.3 845.7 311.2 845.8 311.7 845.9 310.6 845.9 310 845.9 310.5 845.9 309.6 845.9 308.8 845.9 308.4 845.9 307.8 846 307 846 307.5 846 308.4 846.1 308.9 846.2 307.8 846.2 308.3 846.3 307.2 846.3 306.6 846.3 306.2 846.3 305.6 846.3 306.3 846.3 306.2 846.3 305.7 846.3 304.9 846.3 304.5 846.4 303.7 846.4 303.3 846.4 302.7 846.4 302 846.4 301.2 846.5 300.6 846.5 300 846.5 300.5 846.5 299.4 846.5 299.9 846.5 298.8 846.5 299.3 846.6 298.4 846.6 297.8 846.6 297.2 846.6 296.4 846.6 296.9 846.6 295.8 846.6 295.2 846.6 294.8 846.6 295.5 846.7 296.2 846.7 295.6 846.7 294.1 846.7 293.5 846.7 294 846.7 293.1 846.7 292.5 846.7 291.7 846.7 290.4 846.7 290.9 846.7 289.8 846.7 289.2 846.7 288.8 846.7 288.2 846.7 286.7 846.7 286.1 846.7 285.7 846.7 284.3 846.7 283.6 846.7 283 846.7 282.4 846.7 282.9 846.7 282 846.7 281.2 846.7 281.7 846.8 282.6 846.8 282 846.8 281.4 846.8 281 846.8 280.4 846.8 281.1 846.9 280.9 846.9 281.4 846.9 280.4 846.9 280 846.9 280.6 846.9 279.4 846.9 280.1 847 280 847 280.5 847 281.4 847 280.9 847 279.5 847 278.9 847 279.4 847.1 280.3 847.1 280.8 847.1 281.7 847.1 281.1 847.1 280.5 847.1 280 847.1 279.2 847.1 278.6 847.1 279.1 847.1 278 847.1 277.4 847.1 277 847.2 276.2 847.2 276.7 847.2 275 847.2 274.3 847.2 273.7 847.2 273.1 847.2 272.7 847.2 271.9 847.2 270.6 847.2 271.1 847.2 270 847.2 269.6 847.2 268.8 847.2 268.4 847.2 267.8 847.2 268.5 847.3 269.2 847.3 268.4 847.3 267.1 847.3 265.9 847.3 265.5 847.3 264.7 847.3 264 847.3 264.5 847.3 265.4 847.3 266 847.4 264.9 847.4 264.5 847.4 263.6 847.4 263 847.4 262.6 847.4 262 847.4 262.7 847.4 263.4 847.5 264.1 847.5 264 847.6 264.5 847.6 263.6 847.7 264.3 847.7 265 847.7 265.7 847.7 266.4 847.8 265.8 847.8 265.2 847.8 265.9 847.8 266.6 847.9 267.3 847.9 267.2 847.9 266.8 847.9 267.4 848 268.2 848 268.8 848 269.6 848 268.7 848 269.3 848 270.2 848.1 270.7 848.1 268.9 848.1 269.4 848.1 268.3 848.1 267.7 848.1 266.5 848.1 266.1 848.1 264.6 848.1 264 848.1 263.6 848.1 263 848.1 262.2 848.1 261.5 848.1 262.1 848.1 261.2 848.1 261.8 848.1 260.6 848.1 261.3 848.1 261.1 848.2 261.7 848.2 260.6 848.2 261.1 848.2 259.3 848.3 258.9 848.3 258.1 848.3 258.6 848.3 257.5 848.3 256.9 848.3 256.5 848.3 257.2 848.4 255.9 848.4 255.1 848.4 255.6 848.4 256.5 848.4 257 848.5 257.9 848.5 257.3 848.5 256 848.5 255.4 848.6 255.9 848.6 256.8 848.6 256.2 848.6 255.8 848.7 256.5 848.7 254.4 848.8 254 848.8 254.6 848.8 255.4 848.8 254.8 848.8 253.9 848.8 252.7 848.8 253.2 848.8 252.3 848.8 251.7 848.9 251.1 848.9 250.2 848.9 249.8 848.9 249.2 848.9 248.6 848.9 249.3 848.9 248 848.9 246.6 848.9 246.1 848.9 245.5 848.9 244.1 848.9 243.5 849 244 849 244.9 849 244.5 849.1 243.7 849.1 244.2 849.1 243.3 849.1 242.4 849.1 243 849.2 243.9 849.2 242.6 849.2 243.1 849.2 244 849.2 243.4 849.2 242.8 849.2 243.3 849.2 242.2 849.2 242.7 849.2 241.6 849.2 242.1 849.2 243 849.2 243.5 849.2 241.8 849.2 241.4 849.2 240.6 849.2 241.1 849.2 240 849.2 240.5 849.2 238.7 849.2 238.1 849.3 237.5 849.3 238 849.3 237.1 849.3 237.8 849.3 236.5 849.3 237.2 849.3 238 849.3 238.6 849.3 238.5 849.3 239.1 849.3 238.2 849.3 237.5 849.3 236.1 849.3 236.6 849.3 237.5 849.3 237.1 849.4 237.8 849.4 238.5 849.6 237.7 849.6 238.2 849.6 239.1 849.6 238.5 849.6 239 849.6 238.1 849.6 237.5 849.6 238.2 849.6 238.9 849.7 239.6 849.7 240.3 849.7 241 849.7 240.9 849.7 241.4 849.7 240.5 849.7 239.9 849.7 238.4 849.7 237.2 849.8 236.5 849.8 237.1 849.8 237.9 849.8 238.5 849.9 237.4 849.9 236.7 849.9 236.3 849.9 235.7 850 236.4 850 237.1 850 237.8 850.1 238.6 850.1 237.7 850.1 238.2 850.1 239.2 850.1 239.7 850.2 240.6 850.2 241.1 850.2 242 850.2 241.4 850.2 240.7 850.2 240.3 850.2 241 850.2 241.7 850.2 240.9 850.3 241.4 850.3 239.7 850.3 239.1 850.3 239.6 850.4 238.5 850.4 238.1 850.4 237.5 850.4 236.9 850.4 235.4 850.4 235.9 850.4 234.8 850.5 234.2 850.5 233.8 850.5 234.5 850.6 235.2 850.6 235.9 850.7 236.6 850.8 237.3 850.9 237.2 850.9 237.7 851 236.6 851 237.1 851 236 851.1 236.5 851.1 235.4 851.1 234.8 851.1 235.3 851.2 234.2 851.2 234.7 851.2 233.8 851.2 234.5 851.2 234.4 851.3 234.9 851.3 235.8 851.3 234.6 851.4 235.1 851.4 236 851.5 236.5 851.5 237.4 851.5 237.9 851.5 238.8 851.5 238.2 851.5 237.6 851.6 238.1 851.6 239 851.6 237.7 851.6 237.3 851.6 238 851.6 238.7 851.6 239.4 851.6 237.3 851.6 236.9 851.6 237.6 851.7 237.5 851.7 236.8 851.7 237.4 851.7 238.3 851.7 237.6 851.8 238.2 851.8 239.1 851.8 237.8 851.8 238.3 851.8 237.4 851.9 238.1 851.9 238 852 238.5 852 239.4 852 239 852 238.4 852 236.9 852 237.4 852 238.3 852 238.8 852.1 239.8 852.1 240.3 852.1 239.4 852.1 240.1 852.1 238.8 852.1 238 852.1 237.6 852.1 236.9 852.1 236.3 852.1 235.5 852.1 236 852.2 236.9 852.2 237.4 852.2 236.3 852.2 235.7 852.2 235.1 852.2 234.5 852.2 235 852.2 235.9 852.2 236.4 852.2 237.3 852.3 236.7 852.3 237.2 852.3 238.1 852.3 237.7 852.3 238.4 852.3 239.1 852.3 239.8 852.3 240.5 852.3 239.7 852.3 240.2 852.3 241.1 852.3 241.6 852.3 242.5 852.3 241.9 852.3 241.5 852.3 240.9 852.3 239.4 852.3 238.8 852.3 239.3 852.4 240.2 852.4 240.7 852.4 241.6 852.4 241.2 852.4 240.6 852.4 239.1 852.4 238.5 852.4 239 852.4 237.9 852.4 238.4 852.4 237.5 852.4 238.2 852.4 239 852.4 239.6 852.4 238.4 852.4 237.6 852.4 236.9 852.4 237.4 852.4 236.5 852.4 237.2 852.4 238 852.4 237.1 852.4 236.5 852.4 235.9 852.4 235.5 852.4 234.9 852.4 235.6 852.5 235.5 852.5 235.1 852.5 235.8 852.5 233.6 852.5 234.1 852.5 235.1 852.5 235.6 852.5 234.5 852.5 235 852.5 234.1 852.5 233.5 852.6 232.6 852.6 233.1 852.6 234 852.6 234.5 852.6 235.4 852.6 236 852.6 236.9 852.6 236.2 852.6 236.8 852.7 235 852.7 234.6 852.7 234 852.7 234.7 852.7 233.4 852.7 231.9 852.7 232.4 852.7 231.6 852.7 230.1 852.7 228.8 852.7 228.4 852.7 229.1 852.7 227 852.7 227.5 852.7 226.6 852.7 225.2 852.7 224.5 852.7 225 852.7 224.1 852.7 222.7 852.7 222.1 852.7 221.5 852.7 220.8 852.7 220.2 852.7 219.6 852.7 219 852.7 218.6 852.7 217.8 852.7 217.1 852.7 216.5 852.7 215.9 852.8 215.5 852.8 214.9 852.8 214.1 852.8 214.6 852.8 215.5 852.8 216 852.8 216.9 852.8 217.4 852.8 218.3 852.8 218.8 852.8 217.7 852.9 217.1 852.9 216.7 852.9 217.4 852.9 218.1 852.9 217.3 852.9 217.8 853 218.7 853 217.4 853 217.9 853 218.8 853 217.6 853 217.2 853 217.8 853.1 217.7 853.1 217.3 853.1 218 853.1 218.7 853.1 219.4 853.1 219.3 853.1 218.7 853.1 219.2 853.1 220.1 853.1 220.6 853.1 219.5 853.1 220 853.1 218.9 853.1 218.5 853.1 219.2 853.2 219.9 853.2 218.5 853.2 217.8 853.2 217.2 853.2 216.6 853.2 216 853.2 215.4 853.2 215.9 853.2 214.2 853.2 214.7 853.2 212.9 853.2 212.5 853.2 213.2 853.3 213.1 853.3 212.5 853.3 213 853.3 213.9 853.3 213.2 853.3 212.6 853.3 211.4 853.3 211.9 853.3 210.2 853.4 208.9 853.4 208.3 853.4 207.9 853.4 207.3 853.4 206.5 853.4 206 853.4 206.7 853.4 206.6 853.4 206 853.4 206.5 853.4 205.6 853.4 206.3 853.4 207 853.4 206.4 853.4 205.6 853.4 204.4 853.4 203.7 853.4 203.1 853.5 203.6 853.5 202.7 853.5 203.4 853.5 202.1 853.5 201.5 853.5 202.2 853.5 202.9 853.5 202.3 853.5 201.7 853.5 200.2 853.5 199.6 853.5 198.4 853.5 197.8 853.5 197.4 853.5 195.9 853.5 196.4 853.5 195.5 853.5 194.7 853.5 194.3 853.6 195 853.6 192.9 853.6 193.4 853.6 194.3 853.6 193.6 853.6 194.2 853.6 193.3 853.6 192.6 853.6 193.3 853.7 192.1 853.7 191.4 853.7 190.6 853.7 190.2 853.7 189.6 853.7 189 853.7 189.7 853.7 188.4 853.7 189.1 853.8 189.8 853.8 189 853.8 189.5 853.8 188.6 853.8 188 853.8 187.4 853.8 186.8 853.8 187.4 853.8 186.2 853.8 185.4 853.8 184.7 853.8 184.3 853.8 183.5 853.8 182.9 853.8 182.5 853.8 181 853.8 180.6 853.9 180 853.9 180.7 853.9 180.6 853.9 180.2 853.9 179.3 853.9 178.9 853.9 177.5 853.9 177.1 853.9 175.6 853.9 176.1 853.9 177 853.9 176.4 853.9 175.8 853.9 174.6 853.9 174.2 853.9 172.7 853.9 172.1 853.9 172.6 853.9 171.5 853.9 172 853.9 171.1 853.9 170.3 853.9 169.7 853.9 169.1 854 168.7 854 168 854 167.2 854 167.7 854 166.8 854 165.4 854 165.9 854 166.8 854.1 166.2 854.1 166.7 854.1 165.8 854.1 165.2 854.1 163.7 854.1 163.1 854.1 163.6 854.1 162.7 854.1 161.9 854.2 161.3 854.2 160 854.2 160.5 854.2 159.7 854.2 159 854.2 157.6 854.2 157 854.2 156.6 854.2 155.7 854.2 155.3 854.2 156 854.2 154.7 854.2 153.3 854.2 152.9 854.2 152.3 854.2 151.6 854.3 151 854.3 150.4 854.3 148.9 854.3 148.3 854.3 147.9 854.3 146.5 854.3 145.9 854.3 146.4 854.3 147.3 854.3 146.9 854.3 145.4 854.3 145.9 854.3 145 854.3 144.4 854.3 143.6 854.3 143 854.3 142.4 854.3 141.7 854.3 141.1 854.4 141.6 854.4 140.5 854.4 141.1 854.4 140 854.4 138.7 854.4 138.1 854.4 138.6 854.4 137.5 854.4 136.9 854.4 136.3 854.4 136.8 854.4 135.9 854.4 135.3 854.4 134.5 854.4 133.8 854.4 134.4 854.4 133.5 854.4 132.9 854.4 132 854.4 131.4 854.4 131.9 854.4 131 854.4 130.2 854.4 129.6 854.4 128.3 854.5 128.8 854.5 129.8 854.5 130.3 854.5 131.2 854.5 130.8 854.5 129.9 854.5 130.5 854.5 129.6 854.5 128.1 854.6 126.8 854.6 126.2 854.6 125 854.6 123.7 854.6 123.3 854.6 124 854.6 123.9 854.6 123.5 854.7 124.2 854.7 124.9 854.7 125.6 854.7 126.3 854.7 125.5 854.7 126 854.8 126.9 854.8 126.5 854.8 125.9 854.8 126.6 854.8 126.5 854.8 125.8 854.8 125.4 854.8 124.8 854.9 124.2 854.9 124.9 854.9 125.6 854.9 125 854.9 125.7 854.9 126.4 854.9 125.8 854.9 125.2 855 125.9 855 126.6 855 126 855 125.4 855 126 855 126.8 855 126 855.1 126.5 855.1 125.6 855.1 125 855.1 125.6 855.1 123.5 855.1 123.1 855.1 123.8 855.1 124.6 855.2 125.2 855.2 126 855.2 126.7 855.2 127.4 855.2 126.8 855.4 125.3 855.4 124.9 855.5 124.3 855.5 125 855.5 125.7 855.5 126.4 855.6 127.1 855.8 125.7 855.8 125.1 855.8 125.6 855.8 124.5 855.8 125 855.9 124.1 855.9 124.8 855.9 125.5 855.9 124.9 855.9 125.6 856 125.5 856 126 856 126.9 856.3 126.5 856.3 125 856.4 125.5 856.5 124.4 856.5 124.9 856.6 124.1 856.6 124.7 856.7 125.5 856.7 124.7 857.1 123.4 857.1 123.9 857.4 122.8 857.4 121.6 857.4 120.3 857.4 120.8 857.8 119.9 857.9 120.6 857.9 121.3 858 120.5 858 121 858 119.3 858 119.8 858 118.9 858 119.6 858 120.3 858 119.7 858.4 118.9 858.4 119.4 858.4 120.3 858.5 119.6 858.6 120.2 858.7 119.1 859 119.6 859.1 120.5 859.6 121 859.6 121.9 859.7 121.3 859.7 120.7 859.7 121.2 859.8 119.4 859.9 119.9 860 120.8 860 120.4 860.1 121.1 860.1 119.8 860.2 118.4 860.2 118.9 860.2 119.8 860.2 120.3 860.3 121.2 860.8 120 860.8 119.5 860.9 118.9 860.9 119.6 860.9 120.3 860.9 119.5 860.9 118.9 860.9 118.5 861 119.2 861 119.9 861 120.6 861 120.5 861.3 119.9 861.3 120.4 861.5 119.3 861.6 119.8 862.4 120.7 862.7 120.1 863.1 119.5 863.2 120 863.5 120.9 863.6 121.4 863.8 122.3 863.8 121.7 863.8 120.4 863.8 120 863.8 120.7 864 121.4 864.2 120.6 864.2 121.1 864.7 120 864.7 120.6 865.2 121.5 865.7 120.8 865.8 121.3 866 120.5 866 121.1 866.1 119 866.2 118.4 866.2 118.9 866.2 118 866.3 117.2 866.3 117.7 866.4 118.6 866.4 119.1 866.6 117.4 866.6 116.8 866.6 116.1 867 116.7 867.5 117.6 867.5 118.1 867.9 117.2 867.9 117.8 868 117.7 868 116.5 868 117 868.3 117.9 868.3 117.5 868.3 116.7 868.6 117.2 868.6 118.1 868.6 118.6 868.6 119.5 868.7 119.1 868.7 118.5 868.8 119.1 868.9 119.9 868.9 120.6 869 121.3 869.1 122 869.1 122.7 869.3 123.4 869.3 122.1 869.3 121.5 869.3 120.1 869.3 119.4 869.3 118.8 869.3 118.2 869.3 118.7 869.3 119.6 869.3 119 869.3 118.6 869.3 117.1 869.3 116.5 869.3 117 869.4 117.9 869.4 118.4 869.4 119.3 869.4 118.7 869.5 118.1 869.5 118.6 869.6 119.5 869.6 120 869.7 118.3 869.8 117.7 869.8 118.2 870.2 116.5 870.6 117 871.7 117.9 872 118.4 872.4 119.3 872.9 118.9 873.2 119.6 873.9 120.3 874.3 119.7 875.1 120.4 875.2 118.2 875.2 118.8 875.2 119.7 875.2 120.2 875.3 121.1 875.3 121.6 875.7 122.5 876.6 123 877.2 121.3 878.1 121.8 878.1 122.7 879.4 122.3 879.5 121.7 879.5 122.4 879.8 123.1 881 122.3 881 121.7 881 121 881.9 121.5 882.1 122.4 883.2 123 884.5 121.9 884.5 121.4 884.5 122.1 884.6 120.9 884.6 120.2 884.6 120.9 884.6 121.7 885.1 122.3 886.6 120.2 886.9 120.7 887.2 119.6 887.8 120.1 889 119.1 889.1 119.6 893.8 118.5 894.3 119 896.8 119.9 897.5 120.4 898.8 119.3 899 119.8 901.8 118.7 904.7 118.3 905.8 117.7 907 117.1 907.1 117.8 908.2 118.5 908.4 117.9 909.6 118.6 911.3 118.5 911.5 119 912.2 119.9 914.7 119.5 917.9 120.1 922 120 925 120.5 928.8 118.8 931.1 119.3 932.4 118.2"/><line x1="88" x2="110" y1="102" y2="102" stroke="#16a34a" stroke-width="2.5"/><text x="116" y="106" fill="#374151" font-size="11.5">equity</text><line x1="88" x2="110" y1="118" y2="118" stroke="#d97706" stroke-width="2.5" opacity=".8"/><text x="116" y="122" fill="#374151" font-size="11.5">price</text><text x="78" y="502" fill="#6b7280" font-size="12" text-anchor="start">2025-10-10</text><text x="934" y="502" fill="#6b7280" font-size="12" text-anchor="end">2025-10-10</text></svg>