<svg xmlns="http://www.w3.org/2000/svg" width="1000" height="520" font-family="ui-sans-serif, system-ui, sans-serif" viewBox="0 0 1000 520"><rect width="1000" height="520" fill="#fff"/><text x="78" y="28" fill="#111827" font-size="18" font-weight="700">Zone Recovery — WIFUSDC best setting (equity / PnL)</text><text x="78" y="48" fill="#6b7280" font-size="12.5">lev 10 · ratio 2 · gap 20% · maxSteps 4 · maxDD 40% · random · vip 9 · 189 series, 89.4% win · vol $145374530 ($145374578/day) · fees $12299</text><text x="78" y="68" fill="#1d4ed8" font-size="12.5" font-weight="600">USDC · BNB −10% · taker 0.0085%</text><text x="934" y="28" fill="#16a34a" font-size="18" font-weight="700" text-anchor="end">+489008 USDT (+4890.08%)</text><line x1="78" x2="934" y1="468" y2="468" stroke="#e5e7eb" stroke-width="1"/><text x="68" y="472" fill="#6b7280" font-size="12" text-anchor="end">0.00</text><line x1="78" x2="934" y1="392" y2="392" stroke="#e5e7eb" stroke-width="1"/><text x="68" y="396" fill="#6b7280" font-size="12" text-anchor="end">115332</text><line x1="78" x2="934" y1="316" y2="316" stroke="#e5e7eb" stroke-width="1"/><text x="68" y="320" fill="#6b7280" font-size="12" text-anchor="end">230664</text><line x1="78" x2="934" y1="240" y2="240" stroke="#e5e7eb" stroke-width="1"/><text x="68" y="244" fill="#6b7280" font-size="12" text-anchor="end">345996</text><line x1="78" x2="934" y1="164" y2="164" stroke="#e5e7eb" stroke-width="1"/><text x="68" y="168" fill="#6b7280" font-size="12" text-anchor="end">461328</text><line x1="78" x2="934" y1="88" y2="88" stroke="#e5e7eb" stroke-width="1"/><text x="68" y="92" fill="#6b7280" font-size="12" text-anchor="end">576660</text><line x1="78" x2="934" y1="461.4" y2="461.4" stroke="#9ca3af" stroke-dasharray="6 4" stroke-width="1.5"/><text x="934" y="455.4" fill="#6b7280" font-size="11" text-anchor="end">start 10000</text><polyline fill="none" stroke="#d97706" stroke-linejoin="round" stroke-width="1.2" points="78 134 79.8 133.3 81.1 133.2 82.6 133.7 84.6 133.1 87 133 88.4 132.3 90.5 132.4 92.7 132.2 94.5 131 96 130.6 97.1 131.3 98.3 130.8 100.2 130.9 101.8 129.7 103.5 130.1 105.6 130.8 107.8 131.5 109.6 130.6 111.6 130.7 113.9 130.3 115.2 129.5 116.6 128.6 117.4 128.5 118.2 129.5 119.7 129.1 121 128.8 121.9 129 123.6 128.5 124.3 128.8 125.9 128.1 127.3 128.2 128.7 128.2 129.9 128.3 131.3 127.6 132.5 127.6 133.5 128 135.1 127.9 136.7 127.8 138.2 128.4 139.3 127.8 140.8 128.1 142.1 128.4 143.7 128.7 144.9 127.6 145.8 128.1 146.6 128.1 148.2 128.6 149.2 128.3 150.4 128.3 151.4 129 152.4 129.3 153.7 129.4 154.9 130 155.8 129.2 157.3 128.5 158.9 128.6 160.2 128.2 161.4 126.9 162.1 127.6 163.3 127.5 164.8 128.5 166.1 129 168.3 129.6 169.5 130.6 170.7 130.6 172.3 130.9 174.3 130.3 175.8 130.3 177.8 131.2 179.5 130.7 180.8 131.4 181.6 131.7 183.2 131.3 185.7 131 187 132.3 187.9 133.5 189 133 191.2 134 192.3 133 193.8 132.4 195 132.7 196.7 131 198 129.7 198.7 129.6 199.8 128.8 200.5 127.6 201 128.1 201.5 127.5 202.2 126.2 202.7 125.7 203.2 124.7 203.5 124.8 204 123.9 204.4 124.6 204.8 124.4 205.3 124.4 205.6 124.1 206.2 123.7 206.6 124 207.2 123.3 207.9 123.5 208.6 123.3 209.1 124.2 209.6 123.5 210.1 123.2 210.9 123.4 211.5 122.6 212.2 122.8 212.8 122.2 213.6 122.1 214.2 121.9 214.8 122.4 215.6 123.5 216.1 123.9 217 124.3 217.8 124.9 218.2 126.1 218.9 125.3 219.5 125.2 220.6 125.4 221.1 123.8 221.6 124.2 222.2 124.6 222.9 124.4 223.8 124 224.5 124.3 225.3 123.1 225.9 122.5 226.5 123.8 227.4 124 228.6 124.4 229.5 124.1 230.5 124.5 231.4 124.6 232.5 125.4 233.3 125.2 234.1 124.5 234.7 125 235.7 126.1 236.8 126.6 238.3 126.1 239.4 126 240.4 126.4 241 127.5 241.9 128.5 242.8 128.8 243.9 128.7 245.2 127.9 246.6 127.7 247.9 127.9 249 127.8 250.5 127.8 252.4 127.1 253.6 126.6 255 126.7 256.5 126.5 257.7 126.9 258.9 128.3 259.5 129 260.1 129.4 260.8 128.2 261.9 128.4 263.5 128.9 264.9 128.9 266 128.3 267.5 128.2 269 127.9 270.3 127.1 271.2 126.7 272 125.6 272.8 125.5 274 126 274.9 127 275.7 127.6 276.6 127.5 277.4 127.5 278.5 127.6 280.1 126.9 281.4 125.4 283.1 124.5 284 122.9 284.9 123.7 286.1 123 287.1 123.3 288.4 122.7 289.4 121.9 290.8 122.1 292 121.8 292.4 121.5 293.3 121.5 294 121.6 294.7 120.9 295.4 120.8 296.3 121.7 297.2 122.2 298.2 122.6 299.1 123.8 300.1 123.7 301.3 122.4 302.4 123.3 303.7 123.3 304.9 123.5 306.3 124.1 307.9 124.5 309.3 124.7 310.2 123.8 311.2 124.4 312.3 124.3 313.3 124.5 314.1 125.1 314.7 125.6 315.5 125.8 316.4 124.8 317.6 124.9 318.4 126.2 319.6 125.9 320.5 126 321.5 127.2 322 127.5 322.6 128.5 323.1 128.3 323.7 128.3 324.8 127.6 326 127.2 327.2 127.2 328 127.3 328.4 127.5 329 128 329.8 128.2 330.8 127.9 331.9 128.6 332.8 129 333.6 127.8 334.7 127.5 335.6 127.3 336.5 127.2 337.3 128.6 338.1 128.8 338.8 129.3 339.7 128.6 340.8 128.1 341.5 128.7 342.4 129 343.4 129.1 344.8 128.7 345.7 129 346.4 129 347.3 130 348.3 129.9 349.2 128.8 350.3 128.5 351.3 128.8 352.8 128.1 354.1 127.9 355.1 128.6 355.6 129.6 356.8 129.4 357.7 129.3 358.6 129.8 359.6 129 360.6 129.4 362.1 130.2 363.5 130.1 364.4 129.7 365.2 128.8 365.9 130.1 366.7 130.6 367.3 129.3 367.7 130.2 368.4 129.8 368.9 130.3 369.6 129.8 370.3 129.6 371.3 129.3 372.4 128.7 373.2 127.1 373.7 127.3 374.5 127.4 375.5 128.3 376.5 129.2 377.8 128.5 379.4 128.3 380.7 128.1 382 128.4 382.7 129.4 383.9 129.9 384.8 130.1 386 130.7 386.9 130.2 387.9 130.7 389 131.2 389.8 130.5 390.8 129.9 391.5 129.8 392.6 130.2 393.4 128.9 394.4 128.9 395.6 129.3 396.6 128.3 397.5 127.2 398.6 126.8 399.4 126.7 399.7 128 400 127.6 400.5 128.3 401.1 128.5 402 128.5 402.9 127.9 403.9 128.6 405.2 128.7 406.6 127.9 407.7 128.4 409.3 129 410.5 129.6 412.9 128.5 414.6 127.1 415.6 125.4 416.8 125 417.5 125 418.4 124.4 419.3 123.6 420.1 124.5 421.1 124.4 423 125.4 424.3 125.9 425.9 125.9 426.7 125.9 427.7 126.4 428.7 127.3 429.2 127.7 430 127.3 431.1 127.6 431.8 127.2 433 128 434.5 127.5 435.5 126.7 436.2 126.1 437.1 126 438.2 125.9 439.2 125.3 440.9 125.1 442.4 125.8 443.6 125.2 444.6 125.7 446 125.1 447.3 125.2 448.4 125.9 449.6 125.3 451.5 125.7 452.9 125.8 453.7 125.9 454.7 125.4 455.6 126.5 456.8 126.1 457.9 125.8 459.1 126.5 460.2 126.1 461.5 125.4 462.5 125.5 463.4 126.3 464.2 124.9 464.9 124.9 465.7 125.3 466.7 125.4 467.8 125.5 468.9 125.5 470.5 125.3 471.4 125.8 472.4 125.4 473.4 124.7 474.2 125.4 475.2 125.7 476.1 125.1 476.9 125.4 477.9 126.6 479.5 125.8 480.8 125.7 482.3 126.5 483.4 126.5 484.6 127.1 486 126.6 487.7 126.1 489.1 125.1 490.3 124.5 491.7 124.5 493 124.3 494.2 125.1 495.9 125.7 497.5 125.1 499.5 124.6 501.3 123.2 502 122.9 503 122.7 503.9 123.1 504.9 122.9 506.3 122.9 507.4 122.9 508.4 121.7 509.5 121.7 510.4 121.8 511.7 121.5 512.8 123.1 513.7 123.2 515.1 123.9 516.3 123.9 517.6 123 519.2 122.5 520.9 122.2 522.2 121.6 523.6 121.1 524.5 121.6 525.3 120.7 526 120.3 526.4 120.9 527.2 120.8 528.4 121.4 529.3 122.3 530 121.7 530.8 122.2 532 121.8 533.7 121.4 534.9 121.1 536.4 120.9 537.2 120.1 538.8 119.8 540.5 119.4 541.9 118.6 542.5 119 543.5 118.4 543.9 117.8 544.7 117.9 545.3 119 546.1 118.5 546.9 117.7 547.7 118.6 548.5 118.7 549.9 119 550.9 118.7 551.8 119.5 552.3 118.7 553.3 117.5 554 117.4 555 118.3 556.2 118.7 556.9 118.2 557.8 117.5 558.8 118.1 559.5 117.8 559.8 117.9 560.1 118.3 560.4 117.8 560.8 118.1 561.3 118.3 561.8 117.9 562.5 116.9 562.8 117.6 563.3 118.8 563.7 118.2 563.8 117.9 563.9 117.4 563.9 116.5 563.9 115.8 564 116 564 116.1 564.3 115.8 564.6 115 564.9 114.6 565.1 115 565.4 114.7 565.6 115.1 565.9 115.8 566.2 115.3 566.7 114.9 567 114.3 567.4 115 567.8 115.6 568.4 115.7 568.7 116.4 568.9 115.8 569.2 116 569.6 116.5 570.1 116 570.4 115.8 570.9 116.9 571.3 117.6 571.6 117.8 572.2 117.5 572.5 118.3 573 117.4 573.7 118.1 574 118.7 574.5 119 575 119 575.7 118.7 576.4 118 577.1 117.5 577.5 116.3 577.8 115.8 578.1 117.3 578.4 117.9 578.6 117.5 578.9 116.4 579.4 116.6 579.8 116 580.3 115.6 580.6 115.6 581.1 115.8 581.5 115.8 582.1 115.3 582.6 115.8 583.3 115.3 583.7 116 584.2 116.2 584.8 116.2 585.3 116.7 585.8 117.6 586.3 117.4 586.9 117.1 587.2 118.1 587.6 118.7 587.8 119.6 588 119.8 588.1 119.6 588.5 119.2 588.9 119.5 589.3 119.3 589.6 118.9 590.2 118.4 590.6 119.3 591 119.5 591.3 120.2 591.8 120.7 592.4 120.4 593 119.8 593.7 119.7 594.5 120.4 595.2 121 595.5 120.7 596 120.4 596.5 121 596.8 120.6 597.3 121.1 597.8 120.8 598.6 120.9 599.1 121.8 599.7 121.3 600.5 121.6 601.4 121.8 602.1 121.9 602.4 122 603 121.8 603.6 121.4 604.3 121.5 605 122.1 605.7 121.7 606.5 121 607.4 120.3 608.2 120.5 609.7 121.3 610.7 121.5 611.7 122.2 611.8 124.1 611.8 125 611.9 124 611.9 124.8 612 126 612 125.1 612.1 125.4 612.2 126.4 612.3 127.4 612.4 126.4 612.4 126.6 612.5 125.8 612.5 125.9 612.6 126.5 612.7 126.4 612.7 125.5 612.8 125.8 612.9 126.8 613 127.3 613.1 126.6 613.2 126.5 613.2 127 613.3 127.5 613.4 127.8 613.6 128 613.6 129.2 613.7 127.9 613.8 129.5 613.9 128.6 614 128.9 614.1 129.9 614.1 130.9 614.2 129.7 614.3 130.6 614.4 131.5 614.6 131.4 614.6 130.2 614.7 131 614.8 130.4 614.9 130.9 615 128.7 615 129.7 615.1 130.4 615.3 130.6 615.4 130.8 615.5 131.1 615.6 132.2 615.7 132.4 615.8 132.6 615.9 131.5 616 131.7 616.1 131.8 616.2 131.4 616.4 131.8 616.5 130.8 616.6 130.3 616.7 130.4 616.8 130.6 616.9 130.2 617.1 128.5 617.2 129.8 617.3 130 617.4 129.9 617.5 129.6 617.6 129.3 617.8 128.7 617.9 128.9 618.1 129 618.3 129.9 618.4 129.1 618.6 129.4 618.8 130 618.9 129.5 619 129.2 619.2 128.9 619.3 128.2 619.6 127.8 619.7 127.7 619.9 128.2 620.1 128 620.3 128.7 620.5 128.5 620.8 128.9 621 128.6 621.3 128.5 621.6 128.7 622 128.9 622.2 128.1 622.5 128.3 622.6 128.2 622.9 129.4 623.1 129.9 623.3 130.1 623.5 130.6 623.6 130.8 623.7 130.2 623.8 130.7 624 131.1 624.2 130.9 624.3 130.6 624.5 131.6 624.8 131.5 625 132.1 625.1 131.6 625.2 131.6 625.3 132.4 625.5 131.8 625.6 132.5 625.8 132.8 625.9 134 626 134.5 626 135 626.1 134 626.1 134.2 626.2 135.1 626.3 135.2 626.3 133.9 626.4 133.6 626.6 133.6 626.7 133.8 626.9 134.6 627 135 627.1 135.7 627.1 136.4 627.2 138.7 627.2 137.4 627.2 136.5 627.2 136.4 627.3 135.2 627.3 135.8 627.4 136 627.5 135.7 627.6 135.6 627.7 136.1 627.7 136.7 627.8 137.1 627.9 136.3 627.9 135.9 628 136.3 628 137.2 628.1 137.4 628.2 136.9 628.3 137.3 628.3 137.8 628.4 136.5 628.5 136.4 628.5 135.7 628.6 135.7 628.7 136.9 628.8 137.1 628.9 137.2 628.9 137.3 629 137.7 629.1 137.9 629.1 137.1 629.2 137.2 629.3 136.5 629.4 135.8 629.6 135 629.7 135.4 629.8 135.9 630 136.1 630.2 136.5 630.3 136.5 630.5 137 630.8 137.7 630.9 138 631 137.7 631.1 139.2 631.2 139.5 631.3 140.7 631.3 141.6 631.3 142.4 631.4 142 631.4 141.7 631.5 140.6 631.5 140.8 631.6 141.6 631.7 143.1 631.7 144 631.8 144.4 631.8 144.1 631.9 146.1 631.9 147.2 631.9 147.6 632 147.7 632 146.6 632 145 632.1 143.8 632.1 143.9 632.2 144 632.2 144 632.3 144.6 632.4 144.7 632.4 145.1 632.5 145.8 632.5 144.9 632.5 145.9 632.6 146.3 632.6 145.8 632.7 145.5 632.8 145.4 632.8 144.5 632.8 145.6 632.9 145.4 632.9 144.8 633 145.2 633.1 145.4 633.1 146 633.2 145.8 633.2 149.3 633.2 146.1 633.2 145.8 633.3 146.4 633.4 147.2 633.4 147.9 633.5 148.4 633.5 147.3 633.6 147.4 633.6 147.5 633.6 148.9 633.7 149 633.7 148.9 633.7 148.2 633.8 147.7 633.8 145.5 633.9 145.7 633.9 145.9 634 145.4 634.1 145.2 634.2 144.5 634.2 144.5 634.3 145.4 634.4 145.4 634.4 145.5 634.4 145.9 634.5 145.6 634.6 144.7 634.7 145.2 634.7 145.6 634.8 145 634.9 144.8 635 144.5 635 145 635.1 144.4 635.2 143.6 635.3 144.6 635.3 143.8 635.4 143.6 635.5 143.2 635.6 143.4 635.7 143.5 635.8 142.9 635.9 143 636 143.9 636.1 143.9 636.2 144.4 636.3 144.1 636.4 143.6 636.5 143.1 636.6 143.3 636.7 143.9 636.9 144.4 637 144.7 637.1 145.4 637.2 145.6 637.3 146 637.4 146.3 637.5 145.7 637.6 145.4 637.7 144.9 637.9 144.2 638.1 144.6 638.3 144.1 638.4 143.7 638.6 143.5 638.8 143.3 639.1 143 639.2 142.5 639.5 141.9 639.7 141.1 639.8 141.4 639.9 141.8 640.1 142.9 640.4 143.9 640.5 142.9 640.6 142.9 640.8 143.5 641.1 144 641.3 144 641.6 144.3 641.8 144.4 641.9 144.3 642.2 144 642.3 144.3 642.4 144.9 642.6 144.8 642.8 145.2 642.9 145.5 643.1 145.9 643.3 145.2 643.5 145.6 643.7 145.7 643.9 146.8 644.1 145.9 644.2 146.5 644.5 145.8 644.7 146.4 644.8 146.8 645 146.6 645.2 146.9 645.4 146.7 645.7 147.1 645.9 147.9 646.1 147.8 646.3 148.3 646.5 148.7 646.8 148.2 647 148 647.4 147.9 647.6 148.2 648 146.8 648.3 147.4 648.7 147.9 648.8 148.7 649 148.6 649.1 148.5 649.3 149 649.5 148.9 649.7 149.5 649.9 149.4 650 149.7 650.3 150.1 650.4 150.4 650.6 150.3 650.8 149.6 651.1 149.5 651.3 150.6 651.5 150 651.7 149 651.8 148.5 652.1 147.6 652.3 148 652.5 147.5 652.7 147.4 653 147.6 653.3 147.6 653.6 147.4 653.8 146.1 654.2 146.3 654.6 146.2 654.9 147.2 655.3 147.6 655.6 147.8 655.9 147.1 656.3 147.8 656.6 148 657.1 147.4 657.5 147.8 657.8 147.7 658.1 148.2 658.4 148.6 658.7 148.9 658.9 149.3 659.3 149.2 659.6 149.4 660 148.8 660.2 148.5 660.6 148.8 660.9 148.1 661.2 148.4 661.4 148 661.8 147.7 662.2 147.9 662.5 146.4 663 145.6 663.3 145.2 663.7 145.9 664.3 145.7 664.6 146.1 665.1 146.4 665.7 145.9 666.4 147.4 666.7 147.1 667.1 147.5 667.3 147.6 667.6 147.2 668 146.2 668.4 145.7 668.7 145.2 669.1 145.4 669.5 145.5 669.9 145.6 670.3 145 670.8 144.4 671.3 143.8 672 144.7 672.6 144.6 673.1 145.8 673.6 146.5 674.2 146.8 674.9 147.7 675.3 148.3 675.7 148.7 676.2 148.5 676.6 148.3 677.3 148.6 678 149.7 678.6 149.7 678.9 150 679.3 149.2 679.9 148.7 680.4 149.4 680.9 149.7 681.3 150.6 681.6 150 682 150.6 682.4 150.3 682.7 150.4 683.3 151.3 683.8 150.9 684.4 150.9 684.7 149.9 685.1 149.9 685.6 149.6 686.2 150 686.6 150 687.1 150.4 687.4 151.1 687.6 151.2 687.9 151.1 688.4 150.7 688.9 151.7 689.1 151.5 689.6 150.6 690.2 150.6 690.5 150.3 691.1 150.7 691.4 149.6 691.8 148.9 692.2 149.6 692.7 151 693.1 151.3 693.3 150.9 693.6 150.3 693.8 150.3 694.2 150.2 694.7 150.6 695.4 149.9 696.2 149.7 696.8 151.4 697.2 151 697.7 150.2 698.3 149 699 149.2 699.6 149.7 700.4 150.1 701 149.3 701.7 148.7 702.3 148.7 702.9 149 703.4 149 704.1 148.9 704.6 149.3 705.2 149.1 705.7 150.1 706.2 151 706.6 150.3 706.9 151.1 707.4 151.9 707.7 152.8 707.9 152.7 708.1 152.4 708.3 153.7 708.6 154.3 708.8 154.2 709.3 153.5 709.6 153.1 710 154.1 710.6 153.8 711.2 153.4 711.4 154.5 711.5 155.6 711.7 156.7 711.7 156.8 711.8 156.2 712 156.7 712.1 156.8 712.3 156.2 712.5 155.8 712.9 155.4 713.2 154.5 713.4 155 713.8 155.9 714.3 155.7 714.6 155.1 715.1 155.1 715.6 155.7 716 155.2 716.7 155.4 717.1 155.5 717.5 154.6 718 155.6 718.5 155.6 719 155.2 719.7 155.2 720.3 155.6 720.8 155.8 721.1 155.4 721.5 154.9 721.9 155.1 722.4 155.2 723 154.9 723.6 154.7 724 154.2 724.3 155.3 724.7 154.6 725.2 155 726 154.9 726.5 154.6 727.2 154.9 727.9 155.6 728.5 155.1 729.1 154.5 729.7 154.3 730.1 153.9 730.5 153.9 730.9 154.8 731.6 155 732.2 154 732.7 153.5 733.2 153.3 733.8 152.5 734.5 152.9 735.4 152.4 736.2 151.8 736.9 152.4 737.9 152.6 738.5 152.9 739 152.8 739.6 152.8 740.2 152.2 740.8 152.7 741.8 152.8 742.2 154.2 742.5 153.8 743.2 153.8 743.8 153.7 744 154.1 744.3 153.3 744.7 153.3 745.3 153.1 746 152.6 746.7 153.1 747.1 151.9 747.5 152.4 748 152.6 748.6 153.4 749.1 153.6 749.2 153.1 749.7 152.6 750 153.2 750.5 153 751 152.9 751.8 153.5 752.3 153.6 753 153.4 753.7 153.2 754.6 153.3 755.6 153.9 756.2 153 756.8 152.8 757.5 153.1 758.1 153.4 758.8 154 759.2 153.9 759.7 153.9 760.5 154 760.9 154.9 761.2 154.3 761.6 154.5 761.9 154.7 762.2 154.5 762.6 154.9 762.7 156 762.9 155.9 763.2 155.7 763.5 155.2 764.1 154.6 764.6 155.4 764.8 156 765 155.8 765.3 154.9 765.6 154.9 765.8 154.9 766.2 154.2 766.8 155 767.4 154.5 767.8 154.8 768 155.3 768.2 155.7 768.4 154.9 768.6 156.2 768.7 156.4 768.8 155.7 769 156.5 769.2 155.7 769.4 155.6 769.7 156 770 156 770.5 155.1 770.8 154.2 771 153.8 771.3 153.5 771.7 154.3 771.8 153.9 772.1 154.6 772.5 155.6 772.8 156.8 772.8 158.1 772.9 158.2 772.9 157.2 773.1 157.4 773.2 158.2 773.3 159.2 773.3 159.4 773.4 159 773.4 161.4 773.5 162.7 773.5 162.1 773.6 160.4 773.6 160 773.7 159.9 773.7 159.6 773.8 159.4 774 158.9 774.1 158.1 774.2 158.9 774.4 158.8 774.6 158.5 774.8 158.8 774.9 159.2 775.1 158.8 775.3 159.4 775.4 160.2 775.5 160.6 775.6 160.8 775.7 160.9 775.9 160.4 776 160 776.1 160 776.5 159.3 776.6 159.5 776.9 159.3 777.2 158.3 777.5 158 777.7 158.2 778 157.5 778.4 157.5 778.7 157.1 778.9 157.8 779.3 158.7 779.6 158.4 779.8 158.3 780.1 159.2 780.3 158.8 780.5 157.8 780.7 157.3 780.9 158 781.2 157.7 781.5 156.7 781.8 157.2 782.1 156.3 782.5 156.2 782.7 155.9 783 155.4 783.1 156.3 783.5 157.1 783.9 156.5 784.3 155.6 784.7 155.6 785.2 156.1 785.4 156.3 785.7 157.4 785.9 157.8 786.2 158.2 786.6 158.7 786.9 158.3 787.3 157.6 787.6 157.8 788 158.9 788.2 158.8 788.6 158.8 789 158.5 789.4 158.3 789.8 157.9 790.1 158.1 790.7 158.4 791.1 158.9 791.5 158.5 791.8 158.6 792.2 158.5 792.6 159 792.9 158.5 793.3 158.5 793.8 158.2 794 157.1 794.4 157.2 794.7 158.1 795.1 156.9 795.6 156.9 796.2 157.6 796.8 158.5 797.2 158.7 797.6 158.5 798.1 158 798.9 157.3 799.1 156.4 799.6 156.9 800.3 156.7 800.9 156.4 801.5 156.1 802.1 157.1 802.6 157.3 803.4 157.5 804.1 156.6 804.9 155.8 805.6 155.4 806.4 156.2 807.4 155.4 808.1 155.2 808.6 155.5 809.7 155.4 810.4 156.3 811 156.1 811.4 156.1 812.1 155.9 812.8 156.5 813.7 156.2 814.4 155.7 815.3 155.6 816.1 155.9 817.3 156.3 817.6 155.7 818.2 155.9 818.9 156.4 819.4 156.3 820.4 156.7 821.1 156.8 821.2 158.3 821.2 159.4 821.3 159.4 821.3 158.2 821.3 159.2 821.4 159.5 821.4 159.5 821.5 159.5 821.5 160 821.7 159.4 821.7 159 821.8 158.9 821.9 159.9 822 160.4 822 160.6 822.1 161.7 822.2 161.2 822.2 161.4 822.3 160.6 822.4 162.2 822.5 161.4 822.6 162.9 822.6 162 822.7 162.9 822.8 164 822.8 165.4 822.8 166 822.8 165.6 822.9 165.3 822.9 165 822.9 164.6 823 163.6 823 163.7 823 163.8 823.1 163 823.2 164 823.3 165.2 823.4 166.3 823.4 167.5 823.4 167.8 823.5 168 823.5 167.4 823.5 166.6 823.6 166.5 823.6 166.8 823.7 167.2 823.7 168.5 823.7 168.9 823.8 167 823.8 167.5 823.8 166.4 823.9 166.4 823.9 167 824 167.4 824 166.7 824.1 165.6 824.1 165.8 824.2 165.9 824.2 167.2 824.3 168.1 824.3 167.7 824.3 167.5 824.4 167.3 824.4 167.4 824.5 167.9 824.6 169.8 824.6 171.1 824.6 170.7 824.7 171.8 824.7 171.3 824.8 173.1 824.8 173.9 824.8 175.2 824.8 176.7 824.9 178.7 824.9 182.1 824.9 182.6 824.9 181.8 824.9 184.3 825 181.4 825 181.4 825 180.4 825 176 825.1 176.4 825.1 177.6 825.1 177.9 825.1 178.3 825.2 177.8 825.2 176.9 825.2 177.3 825.3 178 825.3 178.2 825.3 177.8 825.4 176.7 825.4 176.1 825.4 176.3 825.5 177.1 825.5 177.7 825.5 179 825.5 179 825.5 177.8 825.6 177.8 825.6 177.9 825.6 177.4 825.7 177.9 825.7 178.5 825.8 178 825.8 178.3 825.9 177.5 825.9 177.1 825.9 178 825.9 177.2 826 177.6 826 178.1 826.1 180 826.1 178.4 826.1 177.6 826.2 177.2 826.2 177.7 826.3 178.6 826.3 179.7 826.4 181.4 826.4 181.6 826.4 182.5 826.5 180.4 826.5 180.9 826.5 180.6 826.6 181 826.6 181.5 826.6 182.4 826.6 183.4 826.7 184.2 826.7 185.7 826.7 187.3 826.7 189.2 826.7 190.4 826.8 192 826.8 192.8 826.8 192.4 826.8 194.1 826.8 197.3 826.9 199.2 826.9 201.3 826.9 198 826.9 192.9 827 192.1 827 190.5 827 190.7 827.1 192 827.1 192.6 827.1 192.8 827.2 195.6 827.2 193.1 827.2 191.5 827.3 191.1 827.3 190.4 827.3 191.3 827.3 191.2 827.3 191.8 827.4 191.7 827.4 193.6 827.4 193.3 827.4 194.8 827.4 194.1 827.5 195.7 827.5 194.5 827.5 195.7 827.5 197.5 827.6 195.9 827.6 196.4 827.6 194.7 827.7 195.7 827.7 196.7 827.7 195.4 827.7 195.2 827.8 193.8 827.8 193.9 827.8 194.3 827.9 193.1 827.9 192.5 828 191.5 828 191.5 828.1 190.9 828.1 191.8 828.1 190.6 828.2 190.2 828.2 191.4 828.3 192 828.3 191.4 828.3 190.3 828.4 189.9 828.5 189 828.5 190.4 828.5 191.4 828.6 191.6 828.6 191.1 828.6 190.2 828.7 190.3 828.7 191.2 828.8 191.3 828.8 191.3 828.9 191 828.9 190.4 829 189.6 829 189.4 829.1 189.7 829.1 190.8 829.2 190.8 829.2 191.5 829.3 191.1 829.3 191 829.3 192 829.4 192 829.4 192 829.4 192.6 829.5 192 829.5 191.7 829.5 190.5 829.5 190.6 829.6 191 829.6 191.5 829.7 191.5 829.8 190.7 829.8 190.6 829.9 190 829.9 189.4 830 189.6 830 189.7 830 189.7 830.1 189.9 830.2 190.3 830.2 191.1 830.3 190 830.3 190 830.4 190 830.4 190.6 830.5 190.6 830.5 190.7 830.5 190.2 830.6 189.9 830.6 190.7 830.7 189.6 830.8 189 830.9 189.5 830.9 190.2 831 189.9 831.1 190.3 831.1 190.2 831.2 190.4 831.3 189.6 831.4 188.6 831.4 188.5 831.5 188.5 831.5 189.4 831.6 189.5 831.7 189.7 831.8 190.6 831.8 190.2 831.8 189.9 831.9 190 832 190.6 832.1 191.2 832.1 190.2 832.2 191.5 832.3 192.4 832.4 190.8 832.4 189.6 832.4 190.6 832.5 191.3 832.6 190.2 832.7 189.9 832.8 188.9 832.9 190 833 189.2 833.1 189.5 833.2 190.7 833.3 190.7 833.4 191.5 833.4 191.5 833.5 191.7 833.6 191 833.7 191.8 833.8 192.1 833.9 192.9 833.9 193.6 833.9 193.2 834 193.3 834 193.7 834.1 194.6 834.1 194.5 834.2 195.9 834.2 194.6 834.2 194 834.3 193.3 834.3 194.1 834.3 194.8 834.4 195 834.4 196.4 834.4 196.8 834.4 198 834.5 197.8 834.5 197.8 834.5 198.3 834.5 200.6 834.6 200.4 834.6 198.8 834.6 201.3 834.6 200.6 834.7 202 834.7 203.8 834.8 204.2 834.8 205.7 834.8 207.4 834.9 209.3 834.9 210.7 835 212 835 216.5 835 218.1 835 219.6 835.1 220.1 835.1 215.8 835.1 213.6 835.1 210.3 835.2 209.4 835.2 211.1 835.2 213.5 835.3 214 835.3 216 835.3 213.8 835.4 212.6 835.4 213.1 835.4 214.4 835.4 214.2 835.5 217.5 835.5 221.5 835.5 223.9 835.6 225.9 835.6 230.1 835.7 233.7 835.7 234.5 835.7 234 835.7 236.4 835.7 233.9 835.8 233.1 835.8 229.8 835.8 227.5 835.9 224.4 835.9 223.3 836 224.6 836 223.6 836 222.9 836.1 222.7 836.1 222.8 836.1 224.2 836.1 222.7 836.2 222.8 836.2 224.2 836.2 225.8 836.2 228.1 836.3 229.9 836.3 233 836.3 234.9 836.3 232.2 836.4 231.1 836.4 232.3 836.4 232.7 836.5 236.5 836.5 237.2 836.5 237 836.6 241.3 836.6 246.2 836.6 247.8 836.6 250.8 836.7 253.8 836.7 253.2 836.8 253.3 836.8 252.6 836.8 253.9 836.9 254.6 836.9 259 836.9 262.9 836.9 263.5 837 265.1 837 259.9 837 264.7 837 266.9 837.1 270.9 837.1 271.3 837.1 273.9 837.1 274.9 837.1 279.2 837.2 282.8 837.2 286.1 837.2 287.9 837.2 289.3 837.3 290.7 837.3 290.4 837.3 295.6 837.4 298.5 837.4 301.6 837.4 306.2 837.4 308.9 837.5 309 837.5 307.7 837.5 306.7 837.6 307.7 837.7 304.7 837.7 310.6 837.8 316.7 837.8 322.5 837.9 327 837.9 327.8 837.9 333.7 838 340.2 838 345.3 838 348.8 838.1 351.1 838.1 350.9 838.1 353.1 838.2 357.1 838.2 360.3 838.3 362.9 838.3 360.9 838.3 365.1 838.4 376.3 838.4 378.8 838.5 381.5 838.6 393.3 838.7 410.2 838.8 411.4 838.9 406.6 839.1 429.6 839.2 433.4 839.3 437 839.3 435.7 839.4 425.4 839.4 416.5 839.5 416.6 839.6 423.7 839.6 432.4 839.7 435.6 839.7 438.5 839.8 436.2 839.9 437 839.9 435.1 840 433.4 840.1 429.3 840.1 431.6 840.2 433.6 840.2 430 840.4 422.5 840.4 423.6 840.5 423.6 840.6 417 840.7 414.6 840.8 415.6 840.8 416.5 840.9 415.9 841.1 412.2 841.1 413.3 841.2 408.1 841.2 411.4 841.3 411.2 841.4 409.7 841.5 408.9 841.5 410.1 841.6 408.1 841.7 407.2 841.7 408.1 841.8 405.3 841.9 402.8 842.1 402.5 842.2 403.8 842.2 402.7 842.3 403.3 842.4 401.3 842.5 395.8 842.5 391.5 842.6 384.4 842.6 388.7 842.7 384.2 842.7 379.2 842.7 372.8 842.8 362.5 842.8 357.6 842.9 361.3 842.9 352 842.9 348.2 842.9 349.1 843 352.2 843 356.7 843 362.4 843.1 369.5 843.1 368.5 843.2 360.1 843.2 359 843.2 363.8 843.3 366.3 843.3 361 843.4 345 843.4 351.3 843.4 352.6 843.5 349.5 843.6 349 843.7 346.8 843.7 334 843.7 331.4 843.7 329.1 843.7 328.2 843.7 322.5 843.7 326.6 843.8 324.7 843.8 323.7 843.8 323.7 843.8 327.3 843.9 327 843.9 323.8 843.9 325.1 843.9 323.7 843.9 328.9 844 324.2 844 324 844.1 325 844.1 325.5 844.2 328.8 844.2 337.5 844.2 342.2 844.3 341.3 844.3 337.4 844.3 336.7 844.4 336.2 844.4 336.7 844.4 335.2 844.4 335 844.4 333.7 844.5 334.2 844.5 333.6 844.5 334.2 844.5 326.9 844.6 325.3 844.6 324.6 844.6 329.6 844.7 329 844.8 328.2 844.8 329 844.8 335.4 844.8 330.2 844.9 330.3 844.9 333.5 845 333.8 845 333.8 845 334.5 845 335.9 845.1 333.4 845.2 334.4 845.2 330.5 845.2 335.6 845.3 334.3 845.3 333.5 845.4 328.9 845.4 331.6 845.5 331.8 845.5 332.5 845.6 335.6 845.6 341.5 845.7 339.2 845.7 339.6 845.7 336.1 845.8 336 845.9 339.5 846 338.9 846 336.4 846.1 335.4 846.2 332.7 846.2 334.7 846.3 336.6 846.4 334.7 846.5 333.8 846.5 337.3 846.6 336.7 846.6 324.3 846.6 335.8 846.7 334 846.9 331.4 847 325.9 847 328 847.1 326.4 847.2 322.2 847.3 321.6 847.3 320.8 847.4 323.5 847.5 325.8 847.6 325.8 847.6 323 847.7 321.5 847.7 323 847.8 323.6 847.9 324.6 847.9 325.6 848 325.3 848 325.8 848.1 314.5 848.2 321.5 848.3 321.6 848.4 322.2 848.5 318.6 848.6 323 848.7 324.4 848.9 326 848.9 322.2 849 322.2 849 318.6 849.1 320 849.2 322.2 849.3 321.6 849.4 326 849.6 325.8 849.7 329.5 849.7 328.2 849.9 329.7 850.1 333.4 850.2 330.4 850.3 328.2 850.4 328.2 850.6 327.5 850.7 328.2 850.9 325 851.2 321.5 851.3 317.7 851.5 317.6 851.6 317.3 851.8 317.6 851.9 317.7 852 314.5 852.2 314.5 852.3 315.3 852.4 315 852.6 308.9 852.7 308.5 852.7 305.7 852.8 305 852.9 304 853 306 853.1 304.4 853.2 300.7 853.2 296.4 853.3 301.5 853.4 300.6 853.5 298.9 853.7 298.1 853.7 287.7 853.8 295.5 853.8 296.4 853.9 295.5 854 298 854.1 297 854.1 289.5 854.2 285.8 854.2 291.2 854.3 285.8 854.4 290.9 854.5 288.1 854.6 285.7 854.7 285.8 854.8 282.6 854.9 282.7 854.9 275.2 855 286.7 855 280.3 855.1 257.4 855.1 261.7 855.1 258.5 855.1 275.8 855.1 275.8 855.2 279.5 855.3 276.8 855.5 279.4 855.5 278.5 855.6 276.8 855.7 278.5 855.9 278.5 855.9 280.3 856 269.5 856 272.9 856 264.4 856 280.3 856.2 282.5 856.2 284.2 856.4 283.1 856.7 281.3 856.9 280.1 857 281.7 857.2 280.3 857.6 278.2 857.8 286.6 857.8 292.8 857.9 280.8 858.1 278.5 858.2 279 858.5 282.8 858.6 281.3 858.7 284 858.8 285.9 858.8 285.3 858.9 287.2 858.9 287.7 858.9 285.9 859 288.6 859.1 287.7 859.1 286.7 859.2 287.7 859.2 287.1 859.3 287.5 859.3 288.2 859.4 289.1 859.5 286.9 859.5 288.1 859.6 288.1 859.6 291.7 859.7 289.8 859.7 289.3 859.8 287.7 859.9 283.6 860 283.3 860 285.9 860.1 286.8 860.2 285.8 860.3 285.8 860.4 284.2 860.5 282.2 860.6 283.7 860.7 284.2 860.7 283.1 860.8 286 860.8 283.8 860.9 281.7 860.9 280.7 861 282.4 861 284.1 861.1 284.4 861.1 285 861.2 285.8 861.3 285.8 861.4 284.2 861.4 282.8 861.5 281.3 861.6 280.4 861.6 281.1 861.7 280.9 861.8 279.9 861.8 279.9 861.9 282.6 862 281.4 862 285.7 862.1 285.2 862.1 284.7 862.2 284.7 862.3 286 862.3 286.1 862.3 286.1 862.3 285.2 862.4 284.7 862.4 286.3 862.4 287.2 862.4 288 862.5 287 862.5 287 862.6 288.2 862.7 285.8 862.7 285.8 862.8 286.5 862.8 285.6 862.8 285.9 862.9 284.7 862.9 284.2 862.9 284.3 862.9 283.9 863 285 863 286.6 863 288.1 863 289.3 863.1 289 863.1 289.9 863.2 292.3 863.2 288.3 863.3 289.2 863.3 290.2 863.4 291.4 863.4 292.9 863.5 291.7 863.6 293.7 863.6 296.4 863.7 298.1 863.7 300.4 863.8 296.4 863.8 295.7 863.9 296.8 863.9 295.6 863.9 296.3 864 295.5 864 296.8 864 297.3 864.1 298 864.1 296.4 864.1 296.3 864.1 296 864.2 296.4 864.2 296.6 864.3 297.8 864.3 295.1 864.4 295.3 864.5 294.6 864.5 294.5 864.5 295 864.5 295.7 864.6 296.7 864.6 296.1 864.7 296.5 864.7 296.8 864.7 296.8 864.8 297.4 864.8 298.3 864.9 298.7 865 298.2 865 302.4 865.1 303.1 865.1 304.3 865.1 304.1 865.2 305 865.2 305.8 865.3 305.9 865.3 307.2 865.4 306.1 865.4 306.7 865.5 306.3 865.5 306 865.6 306.6 865.7 307.1 865.7 308.2 865.7 311.7 865.8 311.5 865.8 313.8 865.9 316.6 865.9 317.2 866 320.2 866.1 321 866.2 323.3 866.3 320.2 866.3 317.2 866.3 313.6 866.4 314.9 866.4 313 866.5 313.7 866.6 313.1 866.6 312.4 866.6 312.5 866.7 313.5 866.8 309.7 866.9 314.2 866.9 313.6 866.9 314 867 310.3 867 313.8 867 315.3 867 317 867 313.7 867.1 316.3 867.1 315.1 867.1 314.6 867.2 313 867.3 313.7 867.4 312.5 867.4 313.7 867.5 315.2 867.5 313.1 867.5 316.4 867.5 316.1 867.6 317.3 867.7 317.7 867.7 315.4 867.8 316.3 867.8 313.8 867.9 314.6 868 310.8 868.1 310.6 868.1 310.8 868.2 312.2 868.2 311.5 868.3 310.6 868.3 309.7 868.4 309.7 868.5 309.5 868.6 308.1 868.7 309.2 868.7 308.6 868.8 309.8 868.9 310 869 311.1 869.1 310.5 869.2 308.2 869.3 308.7 869.3 309.3 869.4 311.2 869.5 310.6 869.5 311.5 869.6 309.9 869.7 308.4 869.8 308.1 869.8 308.9 869.8 306.4 869.9 306.3 870 307.7 870 309.2 870 311.4 870.1 310.1 870.1 310.2 870.2 309.6 870.3 303.2 870.3 307.7 870.3 308.2 870.4 310.3 870.5 309.9 870.6 307.9 870.8 308.3 870.9 308.9 871 309.3 871 310.3 871 309.2 871.1 310.3 871.1 309.6 871.2 310.3 871.2 310.9 871.2 311.1 871.4 310.4 871.6 310.1 871.6 313.6 871.7 315.3 871.7 314.3 871.8 314.4 871.9 318.1 872 315.3 872.1 314.5 872.2 314.6 872.3 312.9 872.4 312.7 872.4 312.9 872.5 313.5 872.5 314.9 872.6 314.3 872.6 312.9 872.7 314.2 872.8 314.9 872.8 314.6 872.9 316.2 873 313.7 873 312.9 873.1 313.9 873.2 312.9 873.2 310.7 873.3 310.1 873.4 308.7 873.4 307.9 873.5 307.5 873.5 305.5 873.6 304.7 873.7 306.1 873.8 305.1 873.8 305.6 873.9 307.5 874 306.5 874.1 306.2 874.2 307.7 874.3 307.4 874.3 309.7 874.4 308.7 874.4 308.2 874.5 309.4 874.5 309.3 874.6 307.8 874.7 309.2 874.7 309.2 874.8 308.3 874.9 306.6 875 308.3 875.1 310.4 875.2 310.5 875.3 309.8 875.3 310 875.4 312.4 875.5 313.1 875.7 311.9 875.8 311.9 876 312.2 876.1 312.7 876.2 314.5 876.3 314.6 876.4 311.9 876.5 314.3 876.6 315 876.7 315.2 876.9 313.1 877 312.5 877.2 312.2 877.3 312 877.4 312.4 877.6 313.5 877.7 313.3 877.7 316.8 877.8 315.2 877.9 318.2 878 318.4 878.2 316 878.3 315.1 878.4 314.6 878.6 315.8 878.7 317.2 878.8 314.3 878.9 314.2 878.9 315.9 879.1 317.3 879.3 315.8 879.3 315.6 879.4 314.8 879.4 315.4 879.5 313.4 879.5 312.9 879.6 311.7 879.7 311.3 879.8 310.9 879.9 310.6 880 310.8 880 309.6 880.1 308.8 880.2 307.6 880.3 307.7 880.4 309.6 880.5 308.9 880.6 309.9 880.7 308.7 880.8 308.8 880.9 309 881.1 309 881.1 307.4 881.2 307.4 881.2 309.2 881.3 307.5 881.4 307.6 881.5 306.7 881.6 305.8 881.7 306.6 881.8 308.5 881.9 307.5 881.9 308.4 882 309.2 882 308.3 882.2 310 882.3 309.4 882.4 307.9 882.5 309 882.6 307.7 882.7 309.4 882.7 308.8 882.8 307.5 882.9 307.9 883 307.9 883 307.1 883.2 306.7 883.2 307.2 883.3 307.3 883.3 305.5 883.5 305.5 883.6 307.1 883.7 307 883.8 307.4 883.9 306.6 884 305 884.1 305.3 884.1 304.6 884.2 304.5 884.3 304.6 884.4 303.3 884.5 303.2 884.6 303.3 884.7 303.8 884.8 304.2 884.8 303.3 884.9 303.1 885 299.2 885.1 301.4 885.2 302 885.4 300.4 885.5 296.9 885.6 295.7 885.7 298.5 885.8 299.2 886 298.8 886.1 296.7 886.2 295.4 886.2 296.8 886.4 296.8 886.6 296.8 886.7 296.3 886.9 295.1 887 296.4 887.1 296.7 887.1 297.1 887.2 296.9 887.3 296.3 887.5 296 887.7 295.4 887.8 295.2 887.9 295.2 888 294.7 888 295.2 888.1 293.1 888.2 293.1 888.3 292.2 888.4 294.6 888.5 293.7 888.6 294.5 888.7 294.3 888.8 294.2 888.8 293.4 888.9 294.6 889 292.2 889.2 290.8 889.2 290.2 889.3 290.3 889.3 292.3 889.4 292 889.5 292.4 889.6 292.3 889.7 293.2 889.8 293.7 889.8 295.1 889.9 296.1 890 294.3 890.2 294.7 890.3 294.4 890.4 294.6 890.5 295.9 890.6 293.9 890.7 295.1 890.7 294.2 890.8 295.1 890.9 293.1 891.1 292.5 891.2 291.4 891.3 290.5 891.3 290.7 891.5 290.6 891.5 288.8 891.6 288.7 891.7 288.3 891.8 287.4 891.8 289.3 891.9 289.6 892.1 289.8 892.1 292.9 892.2 291.9 892.4 290.2 892.5 290.2 892.6 291.5 892.7 292.8 892.9 292.2 893 291.7 893.1 292.1 893.2 292 893.3 291.7 893.4 291.8 893.5 291.5 893.6 291 893.7 291 893.9 292.1 894 290.9 894 290.4 894.1 290.4 894.2 289.4 894.2 289.7 894.3 290.2 894.4 290.9 894.5 290.6 894.6 289.6 894.7 289.4 894.8 288 894.9 290.2 895 289.7 895.2 289.9 895.3 289.9 895.4 289.6 895.5 290.1 895.6 290 895.6 290.5 895.7 291 895.8 290.5 895.8 289.7 896 288.2 896.1 287.8 896.2 286.4 896.4 287.5 896.4 287.4 896.5 287.8 896.6 287.6 896.6 288.1 896.7 287.8 896.7 287.2 896.8 286.8 896.9 286 897 285.8 897.1 285.1 897.2 285 897.2 285.3 897.3 285.9 897.4 284.8 897.5 284.7 897.7 284.3 897.8 284.5 897.9 284.4 898 284 898.1 284 898.2 283.3 898.4 283.6 898.4 283.8 898.5 283.2 898.7 282.5 898.7 284 898.8 283.2 898.9 283.4 899 283.8 899 287.1 899.1 287.3 899.1 285.2 899.2 284.5 899.3 285.8 899.4 286.5 899.5 286.7 899.6 285.6 899.6 285.2 899.7 286 899.9 284.1 899.9 284.1 900 282.5 900.1 282.3 900.2 280.8 900.2 281 900.3 280.7 900.4 280.8 900.5 280.9 900.5 280.9 900.6 279.7 900.7 279.2 900.7 279.3 900.8 278.7 900.9 280.3 901 279.9 901.1 279.4 901.2 280.6 901.3 279.2 901.4 278.9 901.6 278 901.6 277.2 901.8 277 901.8 277.7 901.9 277.8 902 279.1 902.1 279.6 902.2 279.5 902.2 281.3 902.3 282.2 902.3 281.1 902.5 280.8 902.5 280.9 902.6 279.5 902.7 279.8 902.8 280.3 903 280.8 903.1 279.7 903.1 280 903.2 279.6 903.3 280.3 903.4 280 903.5 279.7 903.5 279.2 903.6 278 903.7 278.9 903.8 278.8 903.9 278.8 904 278.5 904.1 279.3 904.2 277.9 904.3 277.5 904.4 277.8 904.4 279 904.4 278.6 904.5 278.2 904.6 278.4 904.7 278.5 904.8 279.2 904.9 278.7 905 279.6 905.1 278.8 905.2 279.7 905.3 279.8 905.3 279.5 905.5 280.2 905.5 279.5 905.6 278.3 905.7 277.5 905.8 277 905.9 276.8 906 276.9 906.1 275.1 906.2 275.5 906.2 276.6 906.3 276 906.3 276 906.4 275.9 906.4 275.3 906.5 276 906.7 275.3 906.8 275.3 907 275.1 907.1 274.5 907.2 273.3 907.3 272.4 907.4 273 907.5 272.5 907.5 272.3 907.7 272.2 907.8 272 907.8 271.4 907.9 271.3 907.9 271.7 907.9 271.8 908 271.2 908.2 272.9 908.3 273 908.4 272.8 908.5 271.2 908.6 270.7 908.6 270.4 908.7 270.3 908.8 270.2 908.9 271.1 909 271.8 909.1 271 909.2 269 909.4 269.9 909.6 269 909.7 268.5 909.8 267.1 909.9 267 910 265.8 910.1 265.1 910.2 264.8 910.3 265.7 910.4 265.5 910.6 264.6 910.7 263.9 910.7 264.7 910.8 263.9 910.9 264.1 911 262.8 911.1 263.6 911.1 264 911.3 261.9 911.4 261.5 911.4 262.5 911.5 262.8 911.5 263.5 911.6 263 911.6 260.1 911.6 258.5 911.7 260.7 911.7 259.4 911.8 258.7 911.9 257.9 911.9 257.9 912 256.3 912 257.9 912.1 258.9 912.2 258.6 912.2 257.7 912.3 257.3 912.4 257.8 912.5 257.3 912.6 258 912.7 258 912.8 256.4 912.8 257.1 912.9 256 913 256.8 913.1 257.8 913.2 257.3 913.2 256.3 913.3 256 913.4 256.6 913.5 257 913.6 255.3 913.7 256.8 913.7 255.7 913.7 254.5 913.8 253.4 913.9 253.2 914 252.3 914.1 251.5 914.2 250.9 914.2 251 914.3 251 914.4 250.9 914.4 252.9 914.4 252.9 914.5 251.2 914.6 250.6 914.7 251.5 914.8 250.8 914.8 249.8 914.9 249.3 915 246.7 915 247.8 915 247.7 915.1 249 915.1 249.6 915.2 249.1 915.3 250.8 915.3 251 915.3 249.7 915.4 250.6 915.4 250 915.5 249 915.6 248.6 915.7 250.8 915.7 250.2 915.8 251 915.9 249.7 916 250.3 916 250.2 916.1 248.7 916.1 247.9 916.2 248.1 916.2 249.1 916.3 247.4 916.4 249.2 916.5 251.2 916.6 249.7 916.7 248.8 916.8 247.9 916.8 246.6 916.9 246.2 917 244.5 917.1 245.3 917.2 243 917.2 243.8 917.2 243.4 917.3 242 917.4 242.2 917.5 240.4 917.5 239.4 917.5 237.8 917.6 236.5 917.6 234.4 917.6 232.7 917.7 230.1 917.7 231.5 917.7 227.6 917.8 225.6 917.8 223.4 917.8 226.4 917.9 229.6 917.9 234.9 917.9 232.8 917.9 234 917.9 234.2 917.9 234.8 918 236.5 918 235.6 918 235.2 918 234.5 918.1 238.6 918.1 243.3 918.1 242.9 918.1 240.6 918.2 241.1 918.3 242.1 918.3 246.4 918.3 246.2 918.4 244.5 918.5 244.7 918.6 244.8 918.6 243.9 918.7 244.6 918.8 245.4 918.9 243.2 919 242.3 919 242.3 919.1 243.2 919.2 244.9 919.3 245.2 919.3 243.1 919.5 244.3 919.6 245.6 919.8 244.7 919.9 243.9 920 243.2 920.1 243.4 920.2 241.4 920.3 241 920.4 241.2 920.5 240.7 920.6 239.4 920.7 238 920.8 237.9 920.9 239.4 921.1 238.2 921.2 239.5 921.3 241.3 921.3 241.5 921.5 241.6 921.6 242.5 921.6 241.7 921.7 241.4 921.8 242 922 240 922.1 240.8 922.2 241 922.3 240.9 922.3 242.3 922.4 242.4 922.5 241.5 922.7 240.9 922.8 240.8 922.8 241.4 922.9 241.2 923.1 240.2 923.2 239.5 923.3 238.8 923.4 238.8 923.4 238.8 923.5 237.3 923.7 237.5 923.8 237.6 923.9 238.1 924 239.4 924.1 239.5 924.1 240.8 924.2 242.9 924.2 244.9 924.3 240.7 924.3 239 924.4 240.7 924.5 242.4 924.5 243.3 924.5 245.5 924.5 244 924.6 244.3 924.6 243.7 924.7 242.4 924.8 243.3 924.8 244.3 924.9 244.7 925 242.8 925.1 243.4 925.2 242 925.2 242.8 925.3 243.1 925.4 242.1 925.5 242.5 925.7 242 925.8 240.7 925.9 239.7 926 239.6 926.1 238.2 926.2 239.1 926.3 239 926.4 240.9 926.5 241.6 926.7 242 926.8 243.8 926.8 242.9 926.9 242 926.9 243.3 927 242 927 241.4 927.1 241.5 927.1 242 927.2 242.6 927.2 240 927.3 240 927.3 239.4 927.4 241 927.4 241 927.5 240.2 927.5 242.1 927.6 244.2 927.6 244.9 927.7 244.5 927.7 246.4 927.7 246.9 927.8 247.1 927.9 247.7 927.9 246.4 928.1 246.8 928.1 246.1 928.2 244.8 928.3 245.1 928.4 246.7 928.6 245.7 928.7 246.6 928.8 248.7 928.8 250.7 928.9 251 928.9 251.7 929 252.1 929 252.8 929.1 252.2 929.1 252.5 929.2 251.7 929.3 251.3 929.3 252.7 929.4 253 929.5 254.3 929.5 254.9 929.6 254.4 929.7 254.3 929.8 254.9 929.9 256.1 930 256.5 930.1 256.8 930.1 257.5 930.2 258.6 930.2 258.4 930.3 260.3 930.4 259.7 930.5 258.6 930.6 259.8 930.7 261.3 930.8 262.9 930.8 263.5 930.8 263.9 930.8 263.7 930.9 262.3 930.9 263.2 931 260.7 931.1 262.4 931.2 265.1 931.3 265.9 931.3 266.7 931.4 267 931.5 265.9 931.6 267 931.7 266.7 931.8 267.3 931.9 266.2 932 266.4 932.1 266.8 932.1 264.9 932.2 263.8 932.2 264.2 932.3 265.4 932.4 267.3 932.5 267.7 932.6 267.1 932.6 266.7 932.7 265.6 932.8 265.1 932.8 264.9 932.9 265.7 933 264.9 933 264.7 933.1 265 933.2 265.8 933.2 265.3 933.3 264.7 933.4 264.4 933.4 262.9 933.5 262.8 933.5 262.8 933.5 263.6 933.6 262.9 933.6 262.5 933.7 262.9 933.8 263.5 933.9 263.7 934 264.2 934 263.7" opacity=".6"/><text x="942" y="472" fill="#d97706" font-size="11" text-anchor="start">0.09</text><text x="942" y="396" fill="#d97706" font-size="11" text-anchor="start">0.23</text><text x="942" y="320" fill="#d97706" font-size="11" text-anchor="start">0.37</text><text x="942" y="244" fill="#d97706" font-size="11" text-anchor="start">0.51</text><text x="942" y="168" fill="#d97706" font-size="11" text-anchor="start">0.65</text><text x="942" y="92" fill="#d97706" font-size="11" text-anchor="start">0.79</text><text x="942" y="80" fill="#d97706" font-size="11" font-weight="600" text-anchor="start">price</text><polygon fill="#16a34a" fill-opacity=".08" points="541.8 468 541.8 461.4 541.8 460.8 612.2 461.1 631.4 460.1 711.7 459.3 824.6 458.4 824.8 458.9 826.8 457.5 826.8 458 827 458.8 827.5 460 828 461.7 834.8 461.1 835 460.4 835.1 460.8 835.5 461.4 835.6 459.7 835.9 460.1 836.3 460.7 836.6 458.9 836.6 458 836.9 458.5 836.9 457 837 457.6 837.1 456 837.2 456.6 837.3 454.8 837.4 455.5 837.4 453.5 837.5 454.2 837.6 455.3 837.7 456.9 837.7 459.4 837.8 458.5 837.8 459 837.8 459.7 837.8 457.6 837.9 456.6 837.9 457.1 838 455.5 838 456.1 838 454.2 838.2 454.9 838.2 456 838.2 457.5 838.3 452.9 838.3 453.7 838.4 451.5 838.4 452.3 838.4 449.9 838.5 450.8 838.5 448.1 838.5 446.1 838.5 447.2 838.5 448.9 838.5 444 838.6 445.2 838.6 441.7 838.6 443 838.6 439.1 838.6 440.6 838.6 442.7 838.6 445.9 838.6 450.8 838.6 451.6 838.6 452.9 838.6 454.8 838.6 457.7 838.6 456.7 838.6 455.6 838.6 456.2 838.6 457.2 838.6 458.5 838.6 460.6 838.7 461 838.7 459.9 838.7 459.1 838.7 459.5 838.7 460.2 838.7 461.2 838.7 462.7 838.7 463 838.7 463.3 838.7 463.9 838.8 462.2 838.8 462.5 838.8 462.9 838.8 463.6 838.8 464.5 838.8 464.2 838.8 463.8 838.8 463.4 838.8 463.6 838.8 464 838.9 464.5 839 463 839 462.5 839 462.7 839 461.9 839.1 461.3 839.1 461.7 839.2 460.7 839.2 461.1 839.2 460 839.2 459.2 839.2 459.6 839.2 460.3 839.2 461.3 839.3 462.7 839.3 463 839.3 463.4 839.3 464 839.3 464.9 839.3 465 839.4 465.3 839.4 464.6 839.4 464.2 839.4 464.4 839.4 464.7 839.4 465.1 839.4 465.7 839.4 465.9 839.4 466 839.4 465.5 839.4 465.3 839.5 465.4 839.5 465 839.5 465.2 839.5 465.4 839.5 464.7 839.6 464.9 839.6 464.4 839.6 464.6 839.6 464.1 839.7 464.3 839.7 464.6 839.7 465 839.9 465.7 839.9 465.4 839.9 465.6 839.9 465.2 839.9 465.3 839.9 465.5 840 465.8 840 464.9 840 464.6 840 464.3 840 463.9 840.1 464.1 840.1 463.5 840.2 463.1 840.3 463.3 840.3 462.6 840.6 462.1 840.6 462.3 840.6 462.8 840.6 461.5 840.6 461.8 840.6 462.3 840.6 463 840.6 464.1 840.6 464.3 840.6 463.7 840.6 463.3 840.6 463.5 840.7 463.9 841 464.4 841.2 462.9 841.2 462.4 841.5 461.8 841.5 462.1 841.5 462.6 841.5 461.2 841.6 461.6 841.7 460.6 841.7 459.8 841.7 460.2 841.7 459 841.7 459.5 841.7 460.1 841.8 461.1 841.8 458.2 841.8 458.7 841.8 457.2 841.9 457.8 841.9 456.2 841.9 456.8 842.2 457.6 842.2 455 842.2 455.7 842.2 453.8 842.2 452.4 842.4 450.8 842.5 449.1 842.5 447.3 842.5 448.3 842.5 445.3 842.5 446.4 842.5 448.1 842.5 443.1 842.5 444.3 842.5 446.2 842.6 449 842.6 453.1 842.6 451.7 842.7 450.1 842.7 448.3 842.7 446.4 842.7 447.5 842.8 444.3 842.8 445.5 842.8 447.2 842.8 449.9 842.9 442 842.9 443.3 842.9 445.3 842.9 439.5 843 440.9 843 436.8 843 433.7 843 435.4 843 438 843 430.4 843.1 426.7 843.1 428.8 843.2 422.7 843.2 418.2 843.2 413.4 843.2 416.1 843.3 420.1 843.4 408.1 843.4 402.2 843.4 396.1 843.4 399.3 843.4 389.8 843.4 392.9 843.4 383.7 843.4 377.4 843.4 380.6 843.6 385.4 843.7 371.1 843.7 364.8 843.7 367.9 843.7 372.5 843.7 379.5 843.7 358.9 843.9 352.8 843.9 355.9 844 346.7 844.1 349.9 844.2 340.4 844.2 334.3 844.3 328 844.3 321.9 844.5 315.5 844.6 309.2 844.6 312.4 844.7 302.9 844.7 306 844.8 310.6 844.8 296.9 844.8 290.5 844.9 284.2 844.9 287.4 845.3 292.2 845.4 299.4 845.6 278 845.7 281.1 846.1 271.9 846.2 265.8 846.6 259.5 846.6 262.6 846.6 253.4 846.6 256.7 846.6 247.1 846.6 250.3 846.9 255.2 847.2 240.9 848 234.8 848.1 237.9 848.1 228.7 848.2 231.9 849.5 222.4 849.8 225.6 850 230.4 850.1 237.7 850.3 248.5 850.9 251.6 851.3 242.5 851.7 245.7 851.9 250.5 852.6 236.2 852.7 229.9 853.5 233 853.6 237.6 853.6 244.5 853.7 224 853.7 227.1 853.7 231.7 853.7 218 853.7 211.6 853.7 214.8 853.7 205.3 853.8 208.4 853.8 213 854.1 220 854.1 199.4 854.2 202.6 854.2 193.1 854.3 186.7 854.3 189.8 854.3 194.5 854.9 201.4 855 211.8 855.1 205.5 855.1 208.6 855.1 199.4 855.1 193.1 855.1 187 855.1 180.6 855.1 183.8 855.1 174.3 855.1 168 855.1 161.9 855.1 165.1 855.1 169.9 855.1 177.1 855.9 155.7 855.9 158.8 856 163.4 856 170.4 856 149.8 856 153 856 143.5 856 146.6 856 137.4 856 131.3 856 125 856 128.2 856 118.7 856.8 121.8 856.9 126.4 857.1 133.3 857.7 143.8 857.8 137.7 857.9 140.8 858 131.6 858.7 125.5 859.8 128.6 860.2 133.2 860.4 140.2 862.4 150.6 863.6 144.5 865 147.7 865.7 138.2 866 132.1 866.3 135.2 869.8 126 870 129.3 870.3 134.1 870.3 141.3 870.3 152.2 870.4 155.4 871.9 145.8 872.2 139.5 872.5 142.7 873.2 147.5 876.2 154.8 879.8 165.6 885 159.3 885.5 162.4 891.5 153.2 892.1 156.4 894.6 161.2 900.3 147 906.1 150.1 910 140.9 912 134.6 914.2 137.6 917.4 128.5 917.7 122.2 917.8 125.2 917.9 129.9 918.1 116.1 918.3 119.4 919 124.2 924.5 131.4 925.7 142.3 927.7 145.5 930 136 930.8 139.2 930.8 468"/><polyline fill="none" stroke="#16a34a" stroke-linejoin="round" stroke-width="2" points="541.8 461.4 541.8 460.8 612.2 461.1 631.4 460.1 711.7 459.3 824.6 458.4 824.8 458.9 826.8 457.5 826.8 458 827 458.8 827.5 460 828 461.7 834.8 461.1 835 460.4 835.1 460.8 835.5 461.4 835.6 459.7 835.9 460.1 836.3 460.7 836.6 458.9 836.6 458 836.9 458.5 836.9 457 837 457.6 837.1 456 837.2 456.6 837.3 454.8 837.4 455.5 837.4 453.5 837.5 454.2 837.6 455.3 837.7 456.9 837.7 459.4 837.8 458.5 837.8 459 837.8 459.7 837.8 457.6 837.9 456.6 837.9 457.1 838 455.5 838 456.1 838 454.2 838.2 454.9 838.2 456 838.2 457.5 838.3 452.9 838.3 453.7 838.4 451.5 838.4 452.3 838.4 449.9 838.5 450.8 838.5 448.1 838.5 446.1 838.5 447.2 838.5 448.9 838.5 444 838.6 445.2 838.6 441.7 838.6 443 838.6 439.1 838.6 440.6 838.6 442.7 838.6 445.9 838.6 450.8 838.6 451.6 838.6 452.9 838.6 454.8 838.6 457.7 838.6 456.7 838.6 455.6 838.6 456.2 838.6 457.2 838.6 458.5 838.6 460.6 838.7 461 838.7 459.9 838.7 459.1 838.7 459.5 838.7 460.2 838.7 461.2 838.7 462.7 838.7 463 838.7 463.3 838.7 463.9 838.8 462.2 838.8 462.5 838.8 462.9 838.8 463.6 838.8 464.5 838.8 464.2 838.8 463.8 838.8 463.4 838.8 463.6 838.8 464 838.9 464.5 839 463 839 462.5 839 462.7 839 461.9 839.1 461.3 839.1 461.7 839.2 460.7 839.2 461.1 839.2 460 839.2 459.2 839.2 459.6 839.2 460.3 839.2 461.3 839.3 462.7 839.3 463 839.3 463.4 839.3 464 839.3 464.9 839.3 465 839.4 465.3 839.4 464.6 839.4 464.2 839.4 464.4 839.4 464.7 839.4 465.1 839.4 465.7 839.4 465.9 839.4 466 839.4 465.5 839.4 465.3 839.5 465.4 839.5 465 839.5 465.2 839.5 465.4 839.5 464.7 839.6 464.9 839.6 464.4 839.6 464.6 839.6 464.1 839.7 464.3 839.7 464.6 839.7 465 839.9 465.7 839.9 465.4 839.9 465.6 839.9 465.2 839.9 465.3 839.9 465.5 840 465.8 840 464.9 840 464.6 840 464.3 840 463.9 840.1 464.1 840.1 463.5 840.2 463.1 840.3 463.3 840.3 462.6 840.6 462.1 840.6 462.3 840.6 462.8 840.6 461.5 840.6 461.8 840.6 462.3 840.6 463 840.6 464.1 840.6 464.3 840.6 463.7 840.6 463.3 840.6 463.5 840.7 463.9 841 464.4 841.2 462.9 841.2 462.4 841.5 461.8 841.5 462.1 841.5 462.6 841.5 461.2 841.6 461.6 841.7 460.6 841.7 459.8 841.7 460.2 841.7 459 841.7 459.5 841.7 460.1 841.8 461.1 841.8 458.2 841.8 458.7 841.8 457.2 841.9 457.8 841.9 456.2 841.9 456.8 842.2 457.6 842.2 455 842.2 455.7 842.2 453.8 842.2 452.4 842.4 450.8 842.5 449.1 842.5 447.3 842.5 448.3 842.5 445.3 842.5 446.4 842.5 448.1 842.5 443.1 842.5 444.3 842.5 446.2 842.6 449 842.6 453.1 842.6 451.7 842.7 450.1 842.7 448.3 842.7 446.4 842.7 447.5 842.8 444.3 842.8 445.5 842.8 447.2 842.8 449.9 842.9 442 842.9 443.3 842.9 445.3 842.9 439.5 843 440.9 843 436.8 843 433.7 843 435.4 843 438 843 430.4 843.1 426.7 843.1 428.8 843.2 422.7 843.2 418.2 843.2 413.4 843.2 416.1 843.3 420.1 843.4 408.1 843.4 402.2 843.4 396.1 843.4 399.3 843.4 389.8 843.4 392.9 843.4 383.7 843.4 377.4 843.4 380.6 843.6 385.4 843.7 371.1 843.7 364.8 843.7 367.9 843.7 372.5 843.7 379.5 843.7 358.9 843.9 352.8 843.9 355.9 844 346.7 844.1 349.9 844.2 340.4 844.2 334.3 844.3 328 844.3 321.9 844.5 315.5 844.6 309.2 844.6 312.4 844.7 302.9 844.7 306 844.8 310.6 844.8 296.9 844.8 290.5 844.9 284.2 844.9 287.4 845.3 292.2 845.4 299.4 845.6 278 845.7 281.1 846.1 271.9 846.2 265.8 846.6 259.5 846.6 262.6 846.6 253.4 846.6 256.7 846.6 247.1 846.6 250.3 846.9 255.2 847.2 240.9 848 234.8 848.1 237.9 848.1 228.7 848.2 231.9 849.5 222.4 849.8 225.6 850 230.4 850.1 237.7 850.3 248.5 850.9 251.6 851.3 242.5 851.7 245.7 851.9 250.5 852.6 236.2 852.7 229.9 853.5 233 853.6 237.6 853.6 244.5 853.7 224 853.7 227.1 853.7 231.7 853.7 218 853.7 211.6 853.7 214.8 853.7 205.3 853.8 208.4 853.8 213 854.1 220 854.1 199.4 854.2 202.6 854.2 193.1 854.3 186.7 854.3 189.8 854.3 194.5 854.9 201.4 855 211.8 855.1 205.5 855.1 208.6 855.1 199.4 855.1 193.1 855.1 187 855.1 180.6 855.1 183.8 855.1 174.3 855.1 168 855.1 161.9 855.1 165.1 855.1 169.9 855.1 177.1 855.9 155.7 855.9 158.8 856 163.4 856 170.4 856 149.8 856 153 856 143.5 856 146.6 856 137.4 856 131.3 856 125 856 128.2 856 118.7 856.8 121.8 856.9 126.4 857.1 133.3 857.7 143.8 857.8 137.7 857.9 140.8 858 131.6 858.7 125.5 859.8 128.6 860.2 133.2 860.4 140.2 862.4 150.6 863.6 144.5 865 147.7 865.7 138.2 866 132.1 866.3 135.2 869.8 126 870 129.3 870.3 134.1 870.3 141.3 870.3 152.2 870.4 155.4 871.9 145.8 872.2 139.5 872.5 142.7 873.2 147.5 876.2 154.8 879.8 165.6 885 159.3 885.5 162.4 891.5 153.2 892.1 156.4 894.6 161.2 900.3 147 906.1 150.1 910 140.9 912 134.6 914.2 137.6 917.4 128.5 917.7 122.2 917.8 125.2 917.9 129.9 918.1 116.1 918.3 119.4 919 124.2 924.5 131.4 925.7 142.3 927.7 145.5 930 136 930.8 139.2"/><line x1="88" x2="110" y1="102" y2="102" stroke="#16a34a" stroke-width="2.5"/><text x="116" y="106" fill="#374151" font-size="11.5">equity</text><line x1="88" x2="110" y1="118" y2="118" stroke="#d97706" stroke-width="2.5" opacity=".8"/><text x="116" y="122" fill="#374151" font-size="11.5">price</text><text x="78" y="502" fill="#6b7280" font-size="12" text-anchor="start">2025-10-10</text><text x="934" y="502" fill="#6b7280" font-size="12" text-anchor="end">2025-10-10</text></svg>