<?xml version="1.0" encoding="UTF-8"?>
<svg xmlns="http://www.w3.org/2000/svg" width="1100" height="560" viewBox="0 0 1100 560" font-family="ui-sans-serif, system-ui, sans-serif">
  <rect width="1100" height="560" fill="#ffffff"/>
  <text x="80" y="28" font-size="18" font-weight="700" fill="#111827">Zone Recovery — WIFUSDC fee-tier comparison (best setting)</text>
  <text x="80" y="48" font-size="12.5" fill="#6b7280">lev 10 · ratio 2 · gap 20% · maxSteps 4 · maxDD 40% · random  ·  equity per fee tier vip 0..9</text>
  <text x="80" y="68" font-size="12.5" font-weight="600" fill="#1d4ed8">USDC margin · BNB −10%</text>
  <line x1="80" y1="508.0" x2="932" y2="508.0" stroke="#e5e7eb" stroke-width="1"/><text x="70" y="512.0" text-anchor="end" font-size="12" fill="#6b7280">0.00</text><line x1="80" y1="424.0" x2="932" y2="424.0" stroke="#e5e7eb" stroke-width="1"/><text x="70" y="428.0" text-anchor="end" font-size="12" fill="#6b7280">115332</text><line x1="80" y1="340.0" x2="932" y2="340.0" stroke="#e5e7eb" stroke-width="1"/><text x="70" y="344.0" text-anchor="end" font-size="12" fill="#6b7280">230664</text><line x1="80" y1="256.0" x2="932" y2="256.0" stroke="#e5e7eb" stroke-width="1"/><text x="70" y="260.0" text-anchor="end" font-size="12" fill="#6b7280">345996</text><line x1="80" y1="172.0" x2="932" y2="172.0" stroke="#e5e7eb" stroke-width="1"/><text x="70" y="176.0" text-anchor="end" font-size="12" fill="#6b7280">461328</text><line x1="80" y1="88.0" x2="932" y2="88.0" stroke="#e5e7eb" stroke-width="1"/><text x="70" y="92.0" text-anchor="end" font-size="12" fill="#6b7280">576660</text>
  <line x1="80" y1="500.7" x2="932" y2="500.7" stroke="#9ca3af" stroke-width="1.5" stroke-dasharray="6 4"/>
  <polyline points="80.0,500.7 80.0,500.0 234.2,500.4 276.2,499.3 452.1,498.4 699.4,497.5 700.0,498.0 704.2,496.5 704.3,497.1 704.6,498.0 705.9,499.3 706.8,501.3 721.8,500.6 722.2,499.9 722.5,500.3 723.2,500.9 723.5,499.2 724.2,499.6 725.0,500.3 725.6,498.4 725.8,497.4 726.3,498.0 726.4,496.4 726.7,497.0 726.8,495.4 727.0,496.0 727.3,494.2 727.4,494.9 727.6,492.9 727.7,493.6 727.9,494.8 728.0,496.5 728.2,499.1 728.2,498.3 728.2,498.8 728.3,499.5 728.4,497.4 728.6,496.4 728.6,497.0 728.7,495.3 728.8,495.9 728.8,494.1 729.1,494.8 729.2,495.9 729.2,497.5 729.4,492.9 729.4,493.7 729.6,491.5 729.6,492.3 729.7,489.9 729.8,490.9 729.9,488.2 729.9,486.3 729.9,487.4 730.0,489.1 730.0,484.4 730.0,485.6 730.0,482.2 730.0,483.5 730.1,479.7 730.1,481.2 730.1,483.3 730.1,486.6 730.1,491.4 730.1,492.3 730.1,493.6 730.1,495.5 730.1,498.3 730.1,497.4 730.2,496.3 730.2,496.9 730.2,497.8 730.2,499.2 730.2,501.2 730.2,501.5 730.2,500.5 730.3,499.8 730.3,500.2 730.3,500.9 730.3,501.8 730.3,503.2 730.3,503.4 730.4,503.8 730.4,504.4 730.5,502.8 730.5,503.1 730.5,503.5 730.5,504.1 730.5,505.0 730.5,504.7 730.5,504.3 730.5,504.0 730.6,504.2 730.6,504.5 730.7,505.0 730.9,503.6 730.9,503.2 731.0,503.5 731.1,502.8 731.1,502.3 731.1,502.6 731.3,501.7 731.4,502.0 731.4,501.1 731.5,500.5 731.5,500.9 731.5,501.4 731.5,502.3 731.5,503.6 731.5,503.8 731.5,504.2 731.5,504.7 731.7,505.4 731.7,505.5 731.8,505.7 731.8,505.2 731.8,504.9 731.8,505.1 731.8,505.3 731.8,505.7 731.9,506.2 731.9,506.3 731.9,506.4 731.9,506.0 731.9,505.8 732.0,505.9 732.0,505.6 732.0,505.8 732.1,505.9 732.1,505.4 732.2,505.6 732.3,505.2 732.3,505.3 732.4,504.9 732.4,505.1 732.4,505.3 732.4,505.7 732.9,506.2 732.9,506.0 732.9,506.1 733.0,505.8 733.0,505.9 733.0,506.1 733.1,506.4 733.1,505.7 733.1,505.4 733.2,505.2 733.2,504.9 733.3,505.1 733.4,504.6 733.6,504.3 733.8,504.5 733.9,503.9 734.4,503.5 734.4,503.8 734.4,504.1 734.4,503.1 734.5,503.4 734.5,503.8 734.5,504.3 734.5,505.2 734.5,505.3 734.5,504.9 734.5,504.6 734.5,504.8 734.7,505.0 735.3,505.4 735.7,504.3 735.8,503.9 736.5,503.5 736.5,503.8 736.5,504.1 736.5,503.1 736.6,503.4 736.9,502.7 736.9,502.2 736.9,502.5 736.9,501.6 736.9,502.0 736.9,502.4 737.0,503.2 737.2,501.1 737.2,501.4 737.2,500.4 737.2,500.8 737.2,499.7 737.3,500.2 737.9,500.8 737.9,499.0 737.9,499.5 737.9,498.1 738.0,497.2 738.5,496.2 738.6,495.0 738.6,493.8 738.6,494.5 738.7,492.4 738.7,493.2 738.7,494.4 738.7,491.0 738.7,491.9 738.7,493.2 738.7,495.1 738.8,498.0 738.8,497.1 739.0,496.0 739.1,494.9 739.2,493.6 739.2,494.3 739.2,492.3 739.2,493.1 739.3,494.3 739.3,496.1 739.4,490.9 739.4,491.8 739.4,493.1 739.5,489.4 739.6,490.3 739.6,487.6 739.6,485.7 739.6,486.8 739.7,488.5 739.8,483.7 739.8,481.3 739.9,482.7 740.1,478.8 740.1,476.0 740.2,472.9 740.3,474.7 740.5,477.4 740.6,469.7 740.6,466.0 740.6,462.0 740.7,464.3 740.7,457.6 740.7,460.2 740.7,452.9 740.7,447.6 740.7,450.7 740.9,455.3 741.2,442.1 741.2,435.8 741.2,439.3 741.2,444.6 741.2,452.4 741.3,430.0 741.8,423.4 741.8,426.9 741.8,416.9 742.2,420.6 742.3,410.2 742.5,403.5 742.5,396.6 742.5,390.0 743.1,383.0 743.1,376.1 743.2,379.8 743.5,369.4 743.5,372.9 743.7,378.2 743.7,363.2 743.7,356.3 743.8,349.4 743.9,353.0 744.8,358.5 745.1,366.7 745.4,343.3 745.7,346.8 746.5,336.9 746.8,330.2 747.6,323.3 747.6,326.8 747.6,316.8 747.6,320.5 747.6,310.1 747.6,313.7 748.3,319.2 749.0,303.7 750.7,297.0 750.8,300.5 750.9,290.5 751.1,294.2 754.0,283.8 754.7,287.5 755.0,292.9 755.3,301.1 755.7,313.5 757.0,317.0 757.9,307.0 758.8,310.6 759.2,316.1 760.7,300.6 761.0,293.6 762.8,297.1 762.8,302.4 763.0,310.3 763.1,287.9 763.1,291.4 763.1,296.7 763.1,281.7 763.1,274.8 763.1,278.4 763.2,268.0 763.4,271.5 763.4,276.8 764.1,284.7 764.1,262.3 764.2,265.9 764.3,255.5 764.4,248.6 764.4,252.1 764.4,257.4 765.7,265.3 766.0,277.1 766.1,270.2 766.1,273.7 766.1,263.7 766.1,256.8 766.1,250.2 766.1,243.3 766.1,246.9 766.1,236.5 766.1,229.6 766.2,223.0 766.2,226.6 766.2,232.1 766.3,240.3 768.0,216.9 768.0,220.4 768.1,225.7 768.1,233.6 768.1,211.2 768.1,214.8 768.1,204.4 768.1,207.9 768.1,198.0 768.2,191.3 768.2,184.4 768.2,188.0 768.3,177.7 770.0,181.2 770.2,186.4 770.5,194.3 771.9,206.2 772.2,199.5 772.3,203.0 772.5,193.1 774.1,186.4 776.6,189.9 777.3,195.2 777.9,203.1 782.3,214.9 784.8,208.3 787.9,211.9 789.5,201.5 790.1,194.9 790.9,198.4 798.3,188.4 798.9,192.1 799.5,197.5 799.5,205.7 799.5,218.1 799.8,221.7 802.9,211.3 803.8,204.4 804.4,208.1 806.0,213.5 812.4,221.7 820.3,234.0 831.7,227.1 832.8,230.6 845.9,220.7 847.3,224.3 852.7,229.8 865.3,214.2 877.9,217.7 886.5,207.8 890.9,200.9 895.6,204.4 902.8,194.4 903.3,187.5 903.6,191.0 903.7,196.3 904.2,181.3 904.6,184.9 906.2,190.4 918.3,198.6 921.0,210.9 925.2,214.6 930.3,204.2 932.0,207.8" fill="none" stroke="#2563eb" stroke-width="1.8" stroke-linejoin="round" opacity="0.9"/>
  <polyline points="80.0,500.7 80.0,500.0 234.2,500.4 276.2,499.3 452.1,498.4 699.4,497.5 700.0,498.0 704.2,496.5 704.3,497.1 704.6,498.0 705.9,499.3 706.8,501.3 721.8,500.6 722.2,499.9 722.5,500.3 723.2,500.9 723.5,499.2 724.2,499.6 725.0,500.3 725.6,498.4 725.8,497.4 726.3,498.0 726.4,496.4 726.7,497.0 726.8,495.4 727.0,496.0 727.3,494.2 727.4,494.9 727.6,492.9 727.7,493.6 727.9,494.8 728.0,496.5 728.2,499.1 728.2,498.3 728.2,498.8 728.3,499.5 728.4,497.4 728.6,496.4 728.6,497.0 728.7,495.3 728.8,495.9 728.8,494.1 729.1,494.8 729.2,495.9 729.2,497.5 729.4,492.9 729.4,493.7 729.6,491.5 729.6,492.3 729.7,489.9 729.8,490.9 729.9,488.2 729.9,486.3 729.9,487.4 730.0,489.1 730.0,484.4 730.0,485.6 730.0,482.2 730.0,483.5 730.1,479.7 730.1,481.2 730.1,483.3 730.1,486.6 730.1,491.4 730.1,492.3 730.1,493.6 730.1,495.5 730.1,498.3 730.1,497.4 730.2,496.3 730.2,496.9 730.2,497.8 730.2,499.2 730.2,501.2 730.2,501.5 730.2,500.5 730.3,499.8 730.3,500.2 730.3,500.9 730.3,501.8 730.3,503.2 730.3,503.4 730.4,503.8 730.4,504.4 730.5,502.8 730.5,503.1 730.5,503.5 730.5,504.1 730.5,505.0 730.5,504.7 730.5,504.3 730.5,504.0 730.6,504.2 730.6,504.5 730.7,505.0 730.9,503.6 730.9,503.2 731.0,503.5 731.1,502.8 731.1,502.3 731.1,502.6 731.3,501.7 731.4,502.0 731.4,501.1 731.5,500.5 731.5,500.9 731.5,501.4 731.5,502.3 731.5,503.6 731.5,503.8 731.5,504.2 731.5,504.7 731.7,505.4 731.7,505.5 731.8,505.7 731.8,505.2 731.8,504.9 731.8,505.1 731.8,505.3 731.8,505.7 731.9,506.2 731.9,506.3 731.9,506.4 731.9,506.0 731.9,505.8 732.0,505.9 732.0,505.6 732.0,505.8 732.1,505.9 732.1,505.4 732.2,505.6 732.3,505.2 732.3,505.3 732.4,504.9 732.4,505.1 732.4,505.3 732.4,505.7 732.9,506.2 732.9,506.0 732.9,506.1 733.0,505.8 733.0,505.9 733.0,506.1 733.1,506.4 733.1,505.7 733.1,505.4 733.2,505.2 733.2,504.9 733.3,505.1 733.4,504.6 733.6,504.3 733.8,504.5 733.9,503.9 734.4,503.5 734.4,503.8 734.4,504.1 734.4,503.1 734.5,503.4 734.5,503.8 734.5,504.3 734.5,505.2 734.5,505.3 734.5,504.9 734.5,504.6 734.5,504.8 734.7,505.0 735.3,505.4 735.7,504.3 735.8,503.9 736.5,503.5 736.5,503.8 736.5,504.1 736.5,503.1 736.6,503.4 736.9,502.7 736.9,502.2 736.9,502.5 736.9,501.6 736.9,502.0 736.9,502.4 737.0,503.2 737.2,501.1 737.2,501.4 737.2,500.4 737.2,500.8 737.2,499.7 737.3,500.2 737.9,500.8 737.9,499.0 737.9,499.5 737.9,498.1 738.0,497.2 738.5,496.2 738.6,495.0 738.6,493.8 738.6,494.5 738.7,492.4 738.7,493.2 738.7,494.4 738.7,491.0 738.7,491.9 738.7,493.2 738.7,495.1 738.8,498.0 738.8,497.1 739.0,496.0 739.1,494.9 739.2,493.6 739.2,494.3 739.2,492.3 739.2,493.1 739.3,494.3 739.3,496.1 739.4,490.9 739.4,491.8 739.4,493.1 739.5,489.4 739.6,490.3 739.6,487.6 739.6,485.7 739.6,486.8 739.7,488.5 739.8,483.7 739.8,481.3 739.9,482.7 740.1,478.8 740.1,476.0 740.2,472.9 740.3,474.7 740.5,477.4 740.6,469.7 740.6,466.0 740.6,462.0 740.7,464.3 740.7,457.6 740.7,460.2 740.7,452.9 740.7,447.6 740.7,450.7 740.9,455.3 741.2,442.1 741.2,435.8 741.2,439.3 741.2,444.6 741.2,452.4 741.3,430.0 741.8,423.4 741.8,426.9 741.8,416.9 742.2,420.6 742.3,410.2 742.5,403.5 742.5,396.6 742.5,390.0 743.1,383.0 743.1,376.1 743.2,379.8 743.5,369.4 743.5,372.9 743.7,378.2 743.7,363.2 743.7,356.3 743.8,349.4 743.9,353.0 744.8,358.5 745.1,366.7 745.4,343.3 745.7,346.8 746.5,336.9 746.8,330.2 747.6,323.3 747.6,326.8 747.6,316.8 747.6,320.5 747.6,310.1 747.6,313.7 748.3,319.2 749.0,303.7 750.7,297.0 750.8,300.5 750.9,290.5 751.1,294.2 754.0,283.8 754.7,287.5 755.0,292.9 755.3,301.1 755.7,313.5 757.0,317.0 757.9,307.0 758.8,310.6 759.2,316.1 760.7,300.6 761.0,293.6 762.8,297.1 762.8,302.4 763.0,310.3 763.1,287.9 763.1,291.4 763.1,296.7 763.1,281.7 763.1,274.8 763.1,278.4 763.2,268.0 763.4,271.5 763.4,276.8 764.1,284.7 764.1,262.3 764.2,265.9 764.3,255.5 764.4,248.6 764.4,252.1 764.4,257.4 765.7,265.3 766.0,277.1 766.1,270.2 766.1,273.7 766.1,263.7 766.1,256.8 766.1,250.2 766.1,243.3 766.1,246.9 766.1,236.5 766.1,229.6 766.2,223.0 766.2,226.6 766.2,232.1 766.3,240.3 768.0,216.9 768.0,220.4 768.1,225.7 768.1,233.6 768.1,211.2 768.1,214.8 768.1,204.4 768.1,207.9 768.1,198.0 768.2,191.3 768.2,184.4 768.2,188.0 768.3,177.7 770.0,181.2 770.2,186.4 770.5,194.3 771.9,206.2 772.2,199.5 772.3,203.0 772.5,193.1 774.1,186.4 776.6,189.9 777.3,195.2 777.9,203.1 782.3,214.9 784.8,208.3 787.9,211.9 789.5,201.5 790.1,194.9 790.9,198.4 798.3,188.4 798.9,192.1 799.5,197.5 799.5,205.7 799.5,218.1 799.8,221.7 802.9,211.3 803.8,204.4 804.4,208.1 806.0,213.5 812.4,221.7 820.3,234.0 831.7,227.1 832.8,230.6 845.9,220.7 847.3,224.3 852.7,229.8 865.3,214.2 877.9,217.7 886.5,207.8 890.9,200.9 895.6,204.4 902.8,194.4 903.3,187.5 903.6,191.0 903.7,196.3 904.2,181.3 904.6,184.9 906.2,190.4 918.3,198.6 921.0,210.9 925.2,214.6 930.3,204.2 932.0,207.8" fill="none" stroke="#dc2626" stroke-width="1.8" stroke-linejoin="round" opacity="0.9"/>
  <polyline points="80.0,500.7 80.0,500.0 234.2,500.4 276.2,499.3 452.1,498.4 699.4,497.5 700.0,498.0 704.2,496.5 704.3,497.1 704.6,497.9 705.9,499.2 706.8,501.2 721.8,500.6 722.2,499.8 722.5,500.2 723.2,500.9 723.5,499.1 724.2,499.5 725.0,500.2 725.6,498.3 725.8,497.3 726.3,497.9 726.4,496.3 726.7,496.9 726.8,495.2 727.0,495.8 727.3,494.0 727.4,494.7 727.6,492.6 727.7,493.4 727.9,494.6 728.0,496.3 728.2,499.0 728.2,498.1 728.2,498.6 728.3,499.3 728.4,497.2 728.6,496.1 728.6,496.7 728.7,495.0 728.8,495.7 728.8,493.8 729.1,494.5 729.2,495.6 729.2,497.2 729.4,492.5 729.4,493.3 729.6,491.1 729.6,491.9 729.7,489.4 729.8,490.4 729.9,487.7 729.9,485.7 729.9,486.8 730.0,488.5 730.0,483.7 730.0,484.9 730.0,481.3 730.0,482.7 730.1,478.8 730.1,480.3 730.1,482.5 730.1,485.8 730.1,490.8 730.1,491.7 730.1,493.0 730.1,495.0 730.1,497.9 730.1,496.9 730.2,495.8 730.2,496.5 730.2,497.4 730.2,498.8 730.2,500.8 730.2,501.2 730.2,500.2 730.3,499.4 730.3,499.8 730.3,500.5 730.3,501.5 730.3,502.9 730.3,503.2 730.4,503.6 730.4,504.2 730.5,502.5 730.5,502.8 730.5,503.2 730.5,503.8 730.5,504.8 730.5,504.4 730.5,504.1 730.5,503.7 730.6,503.9 730.6,504.3 730.7,504.8 730.9,503.4 730.9,502.9 731.0,503.2 731.1,502.4 731.1,501.9 731.1,502.2 731.3,501.3 731.4,501.6 731.4,500.7 731.5,499.9 731.5,500.4 731.5,501.0 731.5,501.9 731.5,503.3 731.5,503.5 731.5,503.9 731.5,504.4 731.7,505.2 731.7,505.4 731.8,505.6 731.8,505.0 731.8,504.7 731.8,504.8 731.8,505.1 731.8,505.5 731.9,506.0 731.9,506.1 731.9,506.3 731.9,505.9 731.9,505.6 732.0,505.8 732.0,505.4 732.0,505.6 732.1,505.7 732.1,505.2 732.2,505.3 732.3,504.9 732.3,505.1 732.4,504.6 732.4,504.8 732.4,505.1 732.4,505.4 732.9,506.0 732.9,505.8 732.9,505.9 733.0,505.6 733.0,505.7 733.0,505.9 733.1,506.2 733.1,505.4 733.1,505.2 733.2,504.9 733.2,504.6 733.3,504.7 733.4,504.3 733.6,503.9 733.8,504.1 733.9,503.5 734.4,503.1 734.4,503.3 734.4,503.7 734.4,502.6 734.5,502.9 734.5,503.3 734.5,503.9 734.5,504.8 734.5,505.0 734.5,504.5 734.5,504.2 734.5,504.4 734.7,504.7 735.3,505.1 735.7,503.9 735.8,503.5 736.5,503.0 736.5,503.3 736.5,503.6 736.5,502.6 736.6,502.8 736.9,502.0 736.9,501.5 736.9,501.8 736.9,500.8 736.9,501.2 736.9,501.8 737.0,502.6 737.2,500.2 737.2,500.6 737.2,499.5 737.2,499.9 737.2,498.7 737.3,499.2 737.9,499.9 737.9,497.8 737.9,498.3 737.9,496.9 738.0,495.8 738.5,494.6 738.6,493.3 738.6,491.9 738.6,492.7 738.7,490.3 738.7,491.2 738.7,492.6 738.7,488.7 738.7,489.7 738.7,491.2 738.7,493.4 738.8,496.6 738.8,495.5 739.0,494.3 739.1,493.0 739.2,491.6 739.2,492.4 739.2,490.0 739.2,490.9 739.3,492.3 739.3,494.3 739.4,488.4 739.4,489.4 739.4,490.9 739.5,486.6 739.6,487.7 739.6,484.6 739.6,482.3 739.6,483.6 739.7,485.6 739.8,480.0 739.8,477.3 739.9,478.8 740.1,474.4 740.1,471.1 740.2,467.5 740.3,469.6 740.5,472.6 740.6,463.8 740.6,459.5 740.6,454.8 740.7,457.5 740.7,449.8 740.7,452.7 740.7,444.2 740.7,438.0 740.7,441.6 740.9,446.9 741.2,431.6 741.2,424.7 741.2,428.2 741.2,433.4 741.2,441.2 741.3,418.7 741.8,412.1 741.8,415.5 741.8,405.5 742.2,409.2 742.3,398.7 742.5,392.1 742.5,385.1 742.5,378.4 743.1,371.5 743.1,364.6 743.2,368.2 743.5,357.8 743.5,361.2 743.7,366.5 743.7,351.4 743.7,344.5 743.8,337.6 743.9,341.2 744.8,346.6 745.1,354.8 745.4,331.3 745.7,334.8 746.5,324.8 746.8,318.1 747.6,311.2 747.6,314.7 747.6,304.7 747.6,308.3 747.6,297.9 747.6,301.5 748.3,306.9 749.0,291.3 750.7,284.6 750.8,288.1 750.9,278.1 751.1,281.7 754.0,271.3 754.7,274.9 755.0,280.4 755.3,288.5 755.7,300.7 757.0,304.2 757.9,294.2 758.8,297.9 759.2,303.3 760.7,287.7 761.0,280.7 762.8,284.2 762.8,289.4 763.0,297.3 763.1,274.8 763.1,278.2 763.1,283.5 763.1,268.5 763.1,261.5 763.1,265.1 763.2,254.7 763.4,258.2 763.4,263.4 764.1,271.3 764.1,248.8 764.2,252.4 764.3,242.0 764.4,235.0 764.4,238.5 764.4,243.7 765.7,251.6 766.0,263.3 766.1,256.4 766.1,259.9 766.1,249.8 766.1,242.9 766.1,236.2 766.1,229.3 766.1,232.9 766.1,222.5 766.1,215.5 766.2,208.9 766.2,212.5 766.2,217.9 766.3,226.1 768.0,202.6 768.0,206.1 768.1,211.3 768.1,219.2 768.1,196.7 768.1,200.3 768.1,189.9 768.1,193.4 768.1,183.3 768.2,176.7 768.2,169.7 768.2,173.4 768.3,162.9 770.0,166.4 770.2,171.6 770.5,179.5 771.9,191.2 772.2,184.6 772.3,188.0 772.5,178.0 774.1,171.4 776.6,174.9 777.3,180.1 777.9,187.9 782.3,199.7 784.8,193.0 787.9,196.6 789.5,186.2 790.1,179.5 790.9,183.0 798.3,173.0 798.9,176.6 799.5,182.1 799.5,190.2 799.5,202.4 799.8,206.1 802.9,195.6 803.8,188.7 804.4,192.3 806.0,197.8 812.4,205.9 820.3,218.1 831.7,211.2 832.8,214.7 845.9,204.7 847.3,208.3 852.7,213.7 865.3,198.1 877.9,201.6 886.5,191.6 890.9,184.7 895.6,188.1 902.8,178.1 903.3,171.2 903.6,174.7 903.7,179.9 904.2,164.9 904.6,168.5 906.2,173.9 918.3,182.1 921.0,194.3 925.2,198.0 930.3,187.5 932.0,191.2" fill="none" stroke="#16a34a" stroke-width="1.8" stroke-linejoin="round" opacity="0.9"/>
  <polyline points="80.0,500.7 80.0,500.0 234.2,500.4 276.2,499.2 452.1,498.4 699.4,497.5 700.0,498.0 704.2,496.4 704.3,497.0 704.6,497.9 705.9,499.2 706.8,501.2 721.8,500.5 722.2,499.8 722.5,500.2 723.2,500.8 723.5,499.0 724.2,499.5 725.0,500.1 725.6,498.2 725.8,497.2 726.3,497.8 726.4,496.2 726.7,496.8 726.8,495.1 727.0,495.7 727.3,493.8 727.4,494.5 727.6,492.5 727.7,493.2 727.9,494.4 728.0,496.2 728.2,498.8 728.2,497.9 728.2,498.4 728.3,499.2 728.4,497.0 728.6,495.9 728.6,496.5 728.7,494.8 728.8,495.4 728.8,493.5 729.1,494.2 729.2,495.3 729.2,497.0 729.4,492.2 729.4,493.0 729.6,490.7 729.6,491.6 729.7,489.0 729.8,490.0 729.9,487.2 729.9,485.2 729.9,486.3 730.0,488.1 730.0,483.1 730.0,484.3 730.0,480.7 730.0,482.1 730.1,478.1 730.1,479.6 730.1,481.8 730.1,485.2 730.1,490.3 730.1,491.2 730.1,492.5 730.1,494.5 730.1,497.6 730.1,496.5 730.2,495.4 730.2,496.1 730.2,497.0 730.2,498.4 730.2,500.6 730.2,500.9 730.2,499.9 730.3,499.1 730.3,499.5 730.3,500.2 730.3,501.2 730.3,502.7 730.3,503.0 730.4,503.4 730.4,504.0 730.5,502.2 730.5,502.5 730.5,503.0 730.5,503.6 730.5,504.6 730.5,504.3 730.5,503.9 730.5,503.5 730.6,503.7 730.6,504.1 730.7,504.6 730.9,503.1 730.9,502.6 731.0,502.9 731.1,502.1 731.1,501.5 731.1,501.9 731.3,500.9 731.4,501.3 731.4,500.3 731.5,499.5 731.5,499.9 731.5,500.6 731.5,501.5 731.5,503.0 731.5,503.2 731.5,503.6 731.5,504.2 731.7,505.0 731.7,505.2 731.8,505.4 731.8,504.8 731.8,504.4 731.8,504.6 731.8,504.9 731.8,505.3 731.9,505.9 731.9,506.0 731.9,506.2 731.9,505.7 731.9,505.5 732.0,505.6 732.0,505.2 732.0,505.4 732.1,505.6 732.1,505.0 732.2,505.1 732.3,504.7 732.3,504.9 732.4,504.4 732.4,504.6 732.4,504.8 732.4,505.2 732.9,505.9 732.9,505.6 732.9,505.8 733.0,505.4 733.0,505.6 733.0,505.7 733.1,506.0 733.1,505.2 733.1,504.9 733.2,504.6 733.2,504.3 733.3,504.5 733.4,503.9 733.6,503.5 733.8,503.8 733.9,503.1 734.4,502.6 734.4,502.9 734.4,503.3 734.4,502.1 734.5,502.4 734.5,502.9 734.5,503.5 734.5,504.5 734.5,504.7 734.5,504.2 734.5,503.8 734.5,504.1 734.7,504.4 735.3,504.8 735.7,503.5 735.8,503.0 736.5,502.5 736.5,502.8 736.5,503.2 736.5,502.0 736.6,502.3 736.9,501.5 736.9,500.8 736.9,501.2 736.9,500.1 736.9,500.5 736.9,501.1 737.0,502.0 737.2,499.4 737.2,499.9 737.2,498.6 737.2,499.1 737.2,497.7 737.3,498.3 737.9,499.0 737.9,496.8 737.9,497.3 737.9,495.7 738.0,494.5 738.5,493.2 738.6,491.8 738.6,490.2 738.6,491.1 738.7,488.5 738.7,489.5 738.7,490.9 738.7,486.7 738.7,487.7 738.7,489.3 738.7,491.8 738.8,495.4 738.8,494.2 739.0,492.8 739.1,491.3 739.2,489.7 739.2,490.6 739.2,488.0 739.2,489.0 739.3,490.5 739.3,492.8 739.4,486.2 739.4,487.3 739.4,488.9 739.5,484.2 739.6,485.4 739.6,481.9 739.6,479.3 739.6,480.8 739.7,482.9 739.8,476.7 739.8,473.6 739.9,475.4 740.1,470.3 740.1,466.7 740.2,462.6 740.3,464.9 740.5,468.4 740.6,458.4 740.6,453.6 740.6,448.3 740.7,451.3 740.7,442.6 740.7,445.9 740.7,436.3 740.7,429.4 740.7,433.0 740.9,438.4 741.2,422.7 741.2,415.8 741.2,419.2 741.2,424.4 741.2,432.2 741.3,409.6 741.8,402.9 741.8,406.4 741.8,396.4 742.2,400.0 742.3,389.5 742.5,382.8 742.5,375.9 742.5,369.2 743.1,362.2 743.1,355.2 743.2,358.8 743.5,348.4 743.5,351.9 743.7,357.1 743.7,342.0 743.7,335.0 743.8,328.1 743.9,331.7 744.8,337.1 745.1,345.2 745.4,321.7 745.7,325.1 746.5,315.1 746.8,308.4 747.6,301.4 747.6,304.9 747.6,294.9 747.6,298.5 747.6,288.0 747.6,291.6 748.3,297.0 749.0,281.4 750.7,274.7 750.8,278.1 750.9,268.1 751.1,271.7 754.0,261.2 754.7,264.8 755.0,270.3 755.3,278.4 755.7,290.5 757.0,294.0 757.9,284.0 758.8,287.6 759.2,293.0 760.7,277.3 761.0,270.3 762.8,273.8 762.8,279.0 763.0,286.8 763.1,264.2 763.1,267.7 763.1,272.9 763.1,257.8 763.1,250.8 763.1,254.4 763.2,244.0 763.4,247.5 763.4,252.7 764.1,260.4 764.1,237.9 764.2,241.5 764.3,231.0 764.4,224.1 764.4,227.5 764.4,232.7 765.7,240.5 766.0,252.2 766.1,245.2 766.1,248.7 766.1,238.7 766.1,231.7 766.1,225.0 766.1,218.0 766.1,221.6 766.1,211.2 766.1,204.2 766.2,197.5 766.2,201.1 766.2,206.5 766.3,214.7 768.0,191.1 768.0,194.6 768.1,199.8 768.1,207.6 768.1,185.0 768.1,188.6 768.1,178.2 768.1,181.6 768.1,171.6 768.2,164.9 768.2,157.9 768.2,161.5 768.3,151.1 770.0,154.6 770.2,159.7 770.5,167.5 771.9,179.2 772.2,172.5 772.3,176.0 772.5,166.0 774.1,159.3 776.6,162.7 777.3,167.9 777.9,175.7 782.3,187.4 784.8,180.7 787.9,184.3 789.5,173.9 790.1,167.2 790.9,170.6 798.3,160.6 798.9,164.2 799.5,169.6 799.5,177.7 799.5,189.9 799.8,193.5 802.9,183.0 803.8,176.1 804.4,179.7 806.0,185.1 812.4,193.2 820.3,205.4 831.7,198.4 832.8,201.9 845.9,191.8 847.3,195.4 852.7,200.8 865.3,185.2 877.9,188.6 886.5,178.6 890.9,171.6 895.6,175.1 902.8,165.1 903.3,158.1 903.6,161.6 903.7,166.8 904.2,151.7 904.6,155.3 906.2,160.7 918.3,168.8 921.0,181.0 925.2,184.6 930.3,174.1 932.0,177.7" fill="none" stroke="#d97706" stroke-width="1.8" stroke-linejoin="round" opacity="0.9"/>
  <polyline points="80.0,500.7 80.0,500.0 234.2,500.4 276.2,499.2 452.1,498.4 699.4,497.4 700.0,498.0 704.2,496.4 704.3,497.0 704.6,497.9 705.9,499.2 706.8,501.1 721.8,500.4 722.2,499.7 722.5,500.1 723.2,500.7 723.5,498.9 724.2,499.4 725.0,500.1 725.6,498.1 725.8,497.1 726.3,497.6 726.4,496.0 726.7,496.6 726.8,494.9 727.0,495.5 727.3,493.6 727.4,494.3 727.6,492.2 727.7,493.0 727.9,494.2 728.0,496.0 728.2,498.6 728.2,497.7 728.2,498.2 728.3,499.0 728.4,496.7 728.6,495.6 728.6,496.2 728.7,494.4 728.8,495.1 728.8,493.1 729.1,493.9 729.2,495.0 729.2,496.6 729.4,491.7 729.4,492.5 729.6,490.2 729.6,491.0 729.7,488.4 729.8,489.4 729.9,486.5 729.9,484.4 729.9,485.6 730.0,487.4 730.0,482.2 730.0,483.5 730.0,479.7 730.0,481.1 730.1,477.0 730.1,478.5 730.1,480.9 730.1,484.3 730.1,489.6 730.1,490.5 730.1,491.9 730.1,493.9 730.1,497.1 730.1,496.0 730.2,494.8 730.2,495.5 730.2,496.5 730.2,497.9 730.2,500.2 730.2,500.6 730.2,499.4 730.3,498.6 730.3,499.0 730.3,499.7 730.3,500.8 730.3,502.4 730.3,502.7 730.4,503.1 730.4,503.7 730.5,501.9 730.5,502.2 730.5,502.6 730.5,503.3 730.5,504.4 730.5,504.0 730.5,503.6 730.5,503.2 730.6,503.4 730.6,503.8 730.7,504.3 730.9,502.7 730.9,502.2 731.0,502.5 731.1,501.7 731.1,501.0 731.1,501.4 731.3,500.4 731.4,500.8 731.4,499.6 731.5,498.8 731.5,499.3 731.5,500.0 731.5,501.0 731.5,502.5 731.5,502.8 731.5,503.2 731.5,503.8 731.7,504.8 731.7,504.9 731.8,505.2 731.8,504.5 731.8,504.1 731.8,504.3 731.8,504.6 731.8,505.0 731.9,505.7 731.9,505.8 731.9,506.0 731.9,505.5 731.9,505.2 732.0,505.4 732.0,505.0 732.0,505.1 732.1,505.3 732.1,504.7 732.2,504.8 732.3,504.3 732.3,504.5 732.4,504.0 732.4,504.2 732.4,504.5 732.4,504.9 732.9,505.6 732.9,505.4 732.9,505.5 733.0,505.1 733.0,505.3 733.0,505.5 733.1,505.8 733.1,504.9 733.1,504.6 733.2,504.2 733.2,503.9 733.3,504.1 733.4,503.5 733.6,503.0 733.8,503.3 733.9,502.5 734.4,502.0 734.4,502.3 734.4,502.7 734.4,501.4 734.5,501.7 734.5,502.2 734.5,503.0 734.5,504.1 734.5,504.3 734.5,503.7 734.5,503.3 734.5,503.5 734.7,503.9 735.3,504.4 735.7,502.9 735.8,502.4 736.5,501.8 736.5,502.1 736.5,502.6 736.5,501.2 736.6,501.6 736.9,500.6 736.9,499.8 736.9,500.2 736.9,499.0 736.9,499.5 736.9,500.2 737.0,501.2 737.2,498.2 737.2,498.7 737.2,497.3 737.2,497.8 737.2,496.2 737.3,496.8 737.9,497.7 737.9,495.1 737.9,495.8 737.9,493.9 738.0,492.5 738.5,491.0 738.6,489.3 738.6,487.5 738.6,488.5 738.7,485.5 738.7,486.6 738.7,488.3 738.7,483.4 738.7,484.6 738.7,486.4 738.7,489.2 738.8,493.4 738.8,491.9 739.0,490.4 739.1,488.6 739.2,486.8 739.2,487.8 739.2,484.7 739.2,485.9 739.3,487.6 739.3,490.2 739.4,482.6 739.4,483.8 739.4,485.7 739.5,480.1 739.6,481.5 739.6,477.4 739.6,474.5 739.6,476.1 739.7,478.6 739.8,471.3 739.8,467.7 739.9,469.7 740.1,463.8 740.1,459.5 740.2,454.7 740.3,457.4 740.5,461.4 740.6,449.7 740.6,444.0 740.6,437.7 740.7,441.2 740.7,430.9 740.7,434.3 740.7,424.3 740.7,417.3 740.7,420.8 740.9,426.2 741.2,410.5 741.2,403.5 741.2,406.9 741.2,412.1 741.2,419.8 741.3,397.1 741.8,390.4 741.8,393.8 741.8,383.8 742.2,387.3 742.3,376.8 742.5,370.1 742.5,363.1 742.5,356.4 743.1,349.4 743.1,342.4 743.2,346.0 743.5,335.5 743.5,338.9 743.7,344.1 743.7,329.0 743.7,322.0 743.8,315.0 743.9,318.6 744.8,323.9 745.1,332.0 745.4,308.3 745.7,311.8 746.5,301.7 746.8,295.0 747.6,288.0 747.6,291.4 747.6,281.4 747.6,284.9 747.6,274.4 747.6,278.0 748.3,283.4 749.0,267.6 750.7,260.9 750.8,264.4 750.9,254.3 751.1,257.8 754.0,247.4 754.7,250.9 755.0,256.3 755.3,264.3 755.7,276.4 757.0,279.8 757.9,269.8 758.8,273.3 759.2,278.7 760.7,263.0 761.0,256.0 762.8,259.4 762.8,264.6 763.0,272.3 763.1,249.6 763.1,253.1 763.1,258.2 763.1,243.1 763.1,236.1 763.1,239.7 763.2,229.2 763.4,232.6 763.4,237.8 764.1,245.5 764.1,222.8 764.2,226.4 764.3,215.9 764.4,208.9 764.4,212.3 764.4,217.5 765.7,225.2 766.0,236.8 766.1,229.8 766.1,233.3 766.1,223.2 766.1,216.2 766.1,209.5 766.1,202.5 766.1,206.1 766.1,195.6 766.1,188.6 766.2,181.8 766.2,185.4 766.2,190.8 766.3,198.8 768.0,175.2 768.0,178.7 768.1,183.8 768.1,191.5 768.1,168.9 768.1,172.4 768.1,161.9 768.1,165.4 768.1,155.3 768.2,148.6 768.2,141.6 768.2,145.2 768.3,134.7 770.0,138.1 770.2,143.3 770.5,151.0 771.9,162.6 772.2,155.9 772.3,159.3 772.5,149.2 774.1,142.5 776.6,145.9 777.3,151.1 777.9,158.8 782.3,170.4 784.8,163.7 787.9,167.3 789.5,156.8 790.1,150.1 790.9,153.5 798.3,143.4 798.9,147.0 799.5,152.4 799.5,160.4 799.5,172.5 799.8,176.0 802.9,165.5 803.8,158.6 804.4,162.1 806.0,167.5 812.4,175.5 820.3,187.6 831.7,180.6 832.8,184.0 845.9,174.0 847.3,177.5 852.7,182.9 865.3,167.2 877.9,170.6 886.5,160.5 890.9,153.5 895.6,157.0 902.8,146.9 903.3,139.9 903.6,143.3 903.7,148.5 904.2,133.4 904.6,136.9 906.2,142.3 918.3,150.4 921.0,162.4 925.2,166.0 930.3,155.5 932.0,159.1" fill="none" stroke="#7c3aed" stroke-width="1.8" stroke-linejoin="round" opacity="0.9"/>
  <polyline points="80.0,500.7 80.0,500.0 234.2,500.4 276.2,499.2 452.1,498.4 699.4,497.4 700.0,498.0 704.2,496.4 704.3,497.0 704.6,497.9 705.9,499.2 706.8,501.1 721.8,500.4 722.2,499.7 722.5,500.1 723.2,500.7 723.5,498.9 724.2,499.4 725.0,500.0 725.6,498.0 725.8,497.1 726.3,497.6 726.4,496.0 726.7,496.6 726.8,494.8 727.0,495.5 727.3,493.6 727.4,494.3 727.6,492.2 727.7,492.9 727.9,494.1 728.0,495.9 728.2,498.6 728.2,497.7 728.2,498.2 728.3,498.9 728.4,496.7 728.6,495.6 728.6,496.2 728.7,494.4 728.8,495.0 728.8,493.0 729.1,493.8 729.2,494.9 729.2,496.6 729.4,491.6 729.4,492.5 729.6,490.1 729.6,491.0 729.7,488.3 729.8,489.3 729.9,486.4 729.9,484.3 729.9,485.5 730.0,487.3 730.0,482.1 730.0,483.3 730.0,479.5 730.0,481.0 730.1,476.8 730.1,478.3 730.1,480.7 730.1,484.2 730.1,489.4 730.1,490.4 730.1,491.8 730.1,493.8 730.1,497.0 730.1,495.9 730.2,494.7 730.2,495.4 730.2,496.4 730.2,497.8 730.2,500.1 730.2,500.5 730.2,499.3 730.3,498.5 730.3,498.9 730.3,499.7 730.3,500.7 730.3,502.3 730.3,502.6 730.4,503.0 730.4,503.7 730.5,501.8 730.5,502.1 730.5,502.6 730.5,503.3 730.5,504.3 730.5,504.0 730.5,503.6 730.5,503.1 730.6,503.4 730.6,503.7 730.7,504.3 730.9,502.7 730.9,502.2 731.0,502.4 731.1,501.6 731.1,501.0 731.1,501.3 731.3,500.3 731.4,500.7 731.4,499.5 731.5,498.7 731.5,499.2 731.5,499.9 731.5,500.9 731.5,502.5 731.5,502.7 731.5,503.2 731.5,503.8 731.7,504.7 731.7,504.9 731.8,505.1 731.8,504.4 731.8,504.0 731.8,504.2 731.8,504.5 731.8,505.0 731.9,505.6 731.9,505.8 731.9,505.9 731.9,505.4 731.9,505.2 732.0,505.3 732.0,504.9 732.0,505.1 732.1,505.3 732.1,504.6 732.2,504.8 732.3,504.3 732.3,504.5 732.4,503.9 732.4,504.1 732.4,504.4 732.4,504.9 732.9,505.6 732.9,505.3 732.9,505.5 733.0,505.1 733.0,505.2 733.0,505.4 733.1,505.8 733.1,504.8 733.1,504.5 733.2,504.1 733.2,503.8 733.3,504.0 733.4,503.4 733.6,502.9 733.8,503.2 733.9,502.4 734.4,501.9 734.4,502.2 734.4,502.6 734.4,501.3 734.5,501.6 734.5,502.1 734.5,502.9 734.5,504.0 734.5,504.2 734.5,503.6 734.5,503.2 734.5,503.4 734.7,503.8 735.3,504.3 735.7,502.7 735.8,502.2 736.5,501.7 736.5,502.0 736.5,502.5 736.5,501.1 736.6,501.4 736.9,500.4 736.9,499.6 736.9,500.1 736.9,498.8 736.9,499.3 736.9,500.0 737.0,501.0 737.2,498.0 737.2,498.5 737.2,497.0 737.2,497.6 737.2,496.0 737.3,496.6 737.9,497.5 737.9,494.8 737.9,495.5 737.9,493.5 738.0,492.1 738.5,490.6 738.6,488.9 738.6,487.0 738.6,488.0 738.7,484.9 738.7,486.1 738.7,487.8 738.7,482.7 738.7,484.0 738.7,485.9 738.7,488.7 738.8,493.0 738.8,491.5 739.0,489.9 739.1,488.1 739.2,486.2 739.2,487.3 739.2,484.1 739.2,485.3 739.3,487.1 739.3,489.7 739.4,481.9 739.4,483.2 739.4,485.1 739.5,479.4 739.6,480.8 739.6,476.6 739.6,473.5 739.6,475.2 739.7,477.8 739.8,470.2 739.8,466.5 739.9,468.6 740.1,462.5 740.1,458.1 740.2,453.2 740.3,455.9 740.5,460.0 740.6,448.0 740.6,442.1 740.6,435.6 740.7,439.2 740.7,428.7 740.7,432.1 740.7,422.1 740.7,415.1 740.7,418.6 740.9,424.0 741.2,408.2 741.2,401.2 741.2,404.7 741.2,409.8 741.2,417.5 741.3,394.9 741.8,388.1 741.8,391.6 741.8,381.5 742.2,385.0 742.3,374.5 742.5,367.8 742.5,360.8 742.5,354.1 743.1,347.1 743.1,340.1 743.2,343.7 743.5,333.2 743.5,336.6 743.7,341.7 743.7,326.6 743.7,319.6 743.8,312.6 743.9,316.2 744.8,321.5 745.1,329.6 745.4,305.9 745.7,309.4 746.5,299.3 746.8,292.6 747.6,285.6 747.6,289.0 747.6,278.9 747.6,282.5 747.6,272.0 747.6,275.5 748.3,280.9 749.0,265.2 750.7,258.4 750.8,261.9 750.9,251.8 751.1,255.3 754.0,244.8 754.7,248.4 755.0,253.8 755.3,261.8 755.7,273.8 757.0,277.3 757.9,267.2 758.8,270.8 759.2,276.1 760.7,260.4 761.0,253.4 762.8,256.8 762.8,262.0 763.0,269.7 763.1,247.0 763.1,250.4 763.1,255.6 763.1,240.4 763.1,233.4 763.1,237.0 763.2,226.5 763.4,229.9 763.4,235.1 764.1,242.8 764.1,220.1 764.2,223.7 764.3,213.2 764.4,206.2 764.4,209.6 764.4,214.8 765.7,222.5 766.0,234.1 766.1,227.1 766.1,230.5 766.1,220.4 766.1,213.4 766.1,206.7 766.1,199.7 766.1,203.2 766.1,192.7 766.1,185.7 766.2,179.0 766.2,182.6 766.2,187.9 766.3,196.0 768.0,172.3 768.0,175.8 768.1,180.9 768.1,188.6 768.1,166.0 768.1,169.5 768.1,159.0 768.1,162.5 768.1,152.4 768.2,145.6 768.2,138.6 768.2,142.2 768.3,131.7 770.0,135.1 770.2,140.3 770.5,148.0 771.9,159.6 772.2,152.9 772.3,156.3 772.5,146.2 774.1,139.5 776.6,142.9 777.3,148.1 777.9,155.8 782.3,167.4 784.8,160.6 787.9,164.2 789.5,153.7 790.1,147.0 790.9,150.4 798.3,140.3 798.9,143.9 799.5,149.3 799.5,157.3 799.5,169.3 799.8,172.9 802.9,162.4 803.8,155.4 804.4,159.0 806.0,164.3 812.4,172.4 820.3,184.4 831.7,177.4 832.8,180.8 845.9,170.8 847.3,174.3 852.7,179.7 865.3,163.9 877.9,167.4 886.5,157.3 890.9,150.3 895.6,153.7 902.8,143.6 903.3,136.6 903.6,140.1 903.7,145.2 904.2,130.1 904.6,133.6 906.2,139.0 918.3,147.0 921.0,159.1 925.2,162.7 930.3,152.2 932.0,155.7" fill="none" stroke="#0891b2" stroke-width="1.8" stroke-linejoin="round" opacity="0.9"/>
  <polyline points="80.0,500.7 80.0,500.0 234.2,500.4 276.2,499.2 452.1,498.4 699.4,497.4 700.0,498.0 704.2,496.4 704.3,497.0 704.6,497.8 705.9,499.1 706.8,501.1 721.8,500.4 722.2,499.7 722.5,500.1 723.2,500.7 723.5,498.9 724.2,499.3 725.0,500.0 725.6,498.0 725.8,497.0 726.3,497.6 726.4,496.0 726.7,496.6 726.8,494.8 727.0,495.5 727.3,493.5 727.4,494.3 727.6,492.1 727.7,492.9 727.9,494.1 728.0,495.9 728.2,498.6 728.2,497.6 728.2,498.1 728.3,498.9 728.4,496.6 728.6,495.5 728.6,496.2 728.7,494.3 728.8,495.0 728.8,493.0 729.1,493.7 729.2,494.9 729.2,496.5 729.4,491.6 729.4,492.4 729.6,490.0 729.6,490.9 729.7,488.3 729.8,489.2 729.9,486.3 729.9,484.2 729.9,485.4 730.0,487.2 730.0,481.9 730.0,483.2 730.0,479.4 730.0,480.8 730.1,476.6 730.1,478.2 730.1,480.6 730.1,484.1 730.1,489.3 730.1,490.3 730.1,491.7 730.1,493.8 730.1,496.9 730.1,495.8 730.2,494.6 730.2,495.3 730.2,496.3 730.2,497.8 730.2,500.0 730.2,500.4 730.2,499.3 730.3,498.4 730.3,498.9 730.3,499.6 730.3,500.7 730.3,502.3 730.3,502.6 730.4,503.0 730.4,503.6 730.5,501.8 730.5,502.1 730.5,502.5 730.5,503.2 730.5,504.3 730.5,503.9 730.5,503.5 730.5,503.1 730.6,503.3 730.6,503.7 730.7,504.2 730.9,502.6 730.9,502.1 731.0,502.4 731.1,501.5 731.1,500.9 731.1,501.2 731.3,500.2 731.4,500.6 731.4,499.5 731.5,498.6 731.5,499.1 731.5,499.8 731.5,500.8 731.5,502.4 731.5,502.7 731.5,503.1 731.5,503.7 731.7,504.7 731.7,504.8 731.8,505.1 731.8,504.4 731.8,504.0 731.8,504.2 731.8,504.5 731.8,504.9 731.9,505.6 731.9,505.7 731.9,505.9 731.9,505.4 731.9,505.1 732.0,505.3 732.0,504.9 732.0,505.0 732.1,505.3 732.1,504.6 732.2,504.7 732.3,504.2 732.3,504.4 732.4,503.9 732.4,504.1 732.4,504.4 732.4,504.8 732.9,505.5 732.9,505.3 732.9,505.4 733.0,505.0 733.0,505.2 733.0,505.4 733.1,505.7 733.1,504.8 733.1,504.4 733.2,504.1 733.2,503.7 733.3,503.9 733.4,503.3 733.6,502.8 733.8,503.1 733.9,502.3 734.4,501.8 734.4,502.1 734.4,502.6 734.4,501.2 734.5,501.5 734.5,502.0 734.5,502.8 734.5,503.9 734.5,504.1 734.5,503.6 734.5,503.1 734.5,503.4 734.7,503.7 735.3,504.3 735.7,502.7 735.8,502.1 736.5,501.6 736.5,501.9 736.5,502.4 736.5,501.0 736.6,501.3 736.9,500.3 736.9,499.5 736.9,499.9 736.9,498.7 736.9,499.2 736.9,499.8 737.0,500.9 737.2,497.8 737.2,498.3 737.2,496.8 737.2,497.4 737.2,495.8 737.3,496.4 737.9,497.3 737.9,494.6 737.9,495.3 737.9,493.3 738.0,491.8 738.5,490.3 738.6,488.5 738.6,486.6 738.6,487.7 738.7,484.5 738.7,485.7 738.7,487.5 738.7,482.3 738.7,483.6 738.7,485.5 738.7,488.4 738.8,492.7 738.8,491.2 739.0,489.6 739.1,487.8 739.2,485.8 739.2,486.9 739.2,483.6 739.2,484.9 739.3,486.7 739.3,489.4 739.4,481.4 739.4,482.7 739.4,484.7 739.5,478.8 739.6,480.3 739.6,476.0 739.6,472.9 739.6,474.6 739.7,477.2 739.8,469.5 739.8,465.7 739.9,467.8 740.1,461.6 740.1,457.1 740.2,452.1 740.3,454.9 740.5,459.1 740.6,446.8 740.6,440.8 740.6,434.2 740.7,437.8 740.7,427.3 740.7,430.7 740.7,420.6 740.7,413.6 740.7,417.2 740.9,422.5 741.2,406.8 741.2,399.8 741.2,403.2 741.2,408.3 741.2,416.0 741.3,393.3 741.8,386.6 741.8,390.0 741.8,380.0 742.2,383.5 742.3,373.0 742.5,366.3 742.5,359.3 742.5,352.5 743.1,345.5 743.1,338.5 743.2,342.1 743.5,331.6 743.5,335.0 743.7,340.2 743.7,325.0 743.7,318.0 743.8,311.0 743.9,314.6 744.8,319.9 745.1,328.0 745.4,304.3 745.7,307.8 746.5,297.7 746.8,290.9 747.6,283.9 747.6,287.4 747.6,277.3 747.6,280.8 747.6,270.3 747.6,273.9 748.3,279.3 749.0,263.5 750.7,256.8 750.8,260.2 750.9,250.1 751.1,253.7 754.0,243.2 754.7,246.7 755.0,252.1 755.3,260.1 755.7,272.1 757.0,275.6 757.9,265.5 758.8,269.0 759.2,274.4 760.7,258.6 761.0,251.6 762.8,255.1 762.8,260.2 763.0,267.9 763.1,245.2 763.1,248.6 763.1,253.8 763.1,238.7 763.1,231.6 763.1,235.2 763.2,224.7 763.4,228.1 763.4,233.3 764.1,241.0 764.1,218.3 764.2,221.9 764.3,211.3 764.4,204.3 764.4,207.8 764.4,212.9 765.7,220.6 766.0,232.2 766.1,225.2 766.1,228.6 766.1,218.5 766.1,211.5 766.1,204.8 766.1,197.8 766.1,201.4 766.1,190.9 766.1,183.9 766.2,177.1 766.2,180.7 766.2,186.0 766.3,194.1 768.0,170.4 768.0,173.9 768.1,179.0 768.1,186.7 768.1,164.0 768.1,167.6 768.1,157.1 768.1,160.5 768.1,150.4 768.2,143.7 768.2,136.7 768.2,140.2 768.3,129.7 770.0,133.2 770.2,138.3 770.5,146.0 771.9,157.6 772.2,150.9 772.3,154.3 772.5,144.2 774.1,137.5 776.6,140.9 777.3,146.0 777.9,153.7 782.3,165.3 784.8,158.6 787.9,162.1 789.5,151.6 790.1,144.9 790.9,148.3 798.3,138.2 798.9,141.8 799.5,147.2 799.5,155.2 799.5,167.2 799.8,170.8 802.9,160.3 803.8,153.3 804.4,156.9 806.0,162.2 812.4,170.2 820.3,182.3 831.7,175.3 832.8,178.7 845.9,168.6 847.3,172.2 852.7,177.5 865.3,161.8 877.9,165.2 886.5,155.1 890.9,148.1 895.6,151.5 902.8,141.4 903.3,134.4 903.6,137.9 903.7,143.0 904.2,127.9 904.6,131.4 906.2,136.8 918.3,144.8 921.0,156.8 925.2,160.4 930.3,149.9 932.0,153.5" fill="none" stroke="#db2777" stroke-width="1.8" stroke-linejoin="round" opacity="0.9"/>
  <polyline points="80.0,500.7 80.0,500.0 234.2,500.4 276.2,499.2 452.1,498.4 699.4,497.4 700.0,498.0 704.2,496.4 704.3,497.0 704.6,497.8 705.9,499.1 706.8,501.1 721.8,500.4 722.2,499.7 722.5,500.1 723.2,500.7 723.5,498.9 724.2,499.3 725.0,500.0 725.6,498.0 725.8,497.0 726.3,497.6 726.4,495.9 726.7,496.5 726.8,494.8 727.0,495.4 727.3,493.5 727.4,494.2 727.6,492.1 727.7,492.9 727.9,494.1 728.0,495.8 728.2,498.5 728.2,497.6 728.2,498.1 728.3,498.9 728.4,496.6 728.6,495.5 728.6,496.1 728.7,494.3 728.8,494.9 728.8,492.9 729.1,493.7 729.2,494.8 729.2,496.5 729.4,491.5 729.4,492.3 729.6,489.9 729.6,490.8 729.7,488.1 729.8,489.1 729.9,486.2 729.9,484.1 729.9,485.3 730.0,487.0 730.0,481.8 730.0,483.1 730.0,479.2 730.0,480.7 730.1,476.4 730.1,478.0 730.1,480.4 730.1,483.9 730.1,489.2 730.1,490.1 730.1,491.5 730.1,493.6 730.1,496.8 730.1,495.7 730.2,494.5 730.2,495.2 730.2,496.2 730.2,497.7 730.2,500.0 730.2,500.4 730.2,499.2 730.3,498.3 730.3,498.8 730.3,499.5 730.3,500.6 730.3,502.2 730.3,502.5 730.4,502.9 730.4,503.6 730.5,501.7 730.5,502.0 730.5,502.5 730.5,503.2 730.5,504.2 730.5,503.9 730.5,503.5 730.5,503.0 730.6,503.3 730.6,503.6 730.7,504.2 730.9,502.6 730.9,502.0 731.0,502.3 731.1,501.4 731.1,500.8 731.1,501.2 731.3,500.1 731.4,500.5 731.4,499.3 731.5,498.5 731.5,499.0 731.5,499.7 731.5,500.7 731.5,502.3 731.5,502.6 731.5,503.0 731.5,503.7 731.7,504.6 731.7,504.8 731.8,505.0 731.8,504.3 731.8,503.9 731.8,504.1 731.8,504.4 731.8,504.9 731.9,505.6 731.9,505.7 731.9,505.9 731.9,505.3 731.9,505.1 732.0,505.2 732.0,504.8 732.0,505.0 732.1,505.2 732.1,504.5 732.2,504.7 732.3,504.2 732.3,504.3 732.4,503.8 732.4,504.0 732.4,504.3 732.4,504.8 732.9,505.5 732.9,505.2 732.9,505.4 733.0,505.0 733.0,505.1 733.0,505.4 733.1,505.7 733.1,504.7 733.1,504.4 733.2,504.0 733.2,503.6 733.3,503.8 733.4,503.2 733.6,502.7 733.8,503.0 733.9,502.2 734.4,501.6 734.4,502.0 734.4,502.4 734.4,501.0 734.5,501.4 734.5,501.9 734.5,502.7 734.5,503.9 734.5,504.1 734.5,503.5 734.5,503.0 734.5,503.3 734.7,503.6 735.3,504.2 735.7,502.5 735.8,502.0 736.5,501.4 736.5,501.7 736.5,502.2 736.5,500.8 736.6,501.1 736.9,500.1 736.9,499.3 736.9,499.7 736.9,498.5 736.9,498.9 736.9,499.6 737.0,500.7 737.2,497.6 737.2,498.1 737.2,496.5 737.2,497.1 737.2,495.4 737.3,496.1 737.9,497.0 737.9,494.2 737.9,494.9 737.9,492.9 738.0,491.4 738.5,489.8 738.6,488.0 738.6,486.1 738.6,487.1 738.7,483.9 738.7,485.1 738.7,486.9 738.7,481.6 738.7,482.9 738.7,484.9 738.7,487.8 738.8,492.3 738.8,490.7 739.0,489.1 739.1,487.2 739.2,485.2 739.2,486.3 739.2,482.9 739.2,484.2 739.3,486.1 739.3,488.9 739.4,480.6 739.4,481.9 739.4,484.0 739.5,478.0 739.6,479.5 739.6,475.0 739.6,471.8 739.6,473.6 739.7,476.3 739.8,468.3 739.8,464.5 739.9,466.6 740.1,460.2 740.1,455.5 740.2,450.4 740.3,453.3 740.5,457.6 740.6,444.9 740.6,438.7 740.6,432.0 740.7,435.5 740.7,425.0 740.7,428.4 740.7,418.3 740.7,411.3 740.7,414.9 740.9,420.2 741.2,404.5 741.2,397.5 741.2,400.9 741.2,406.0 741.2,413.7 741.3,391.0 741.8,384.3 741.8,387.7 741.8,377.6 742.2,381.2 742.3,370.6 742.5,363.9 742.5,356.9 742.5,350.2 743.1,343.2 743.1,336.2 743.2,339.7 743.5,329.2 743.5,332.6 743.7,337.8 743.7,322.6 743.7,315.6 743.8,308.6 743.9,312.1 744.8,317.5 745.1,325.5 745.4,301.8 745.7,305.3 746.5,295.2 746.8,288.4 747.6,281.4 747.6,284.8 747.6,274.8 747.6,278.3 747.6,267.8 747.6,271.4 748.3,276.7 749.0,260.9 750.7,254.2 750.8,257.6 750.9,247.5 751.1,251.1 754.0,240.6 754.7,244.1 755.0,249.5 755.3,257.5 755.7,269.5 757.0,272.9 757.9,262.8 758.8,266.4 759.2,271.7 760.7,256.0 761.0,249.0 762.8,252.4 762.8,257.5 763.0,265.2 763.1,242.5 763.1,245.9 763.1,251.1 763.1,235.9 763.1,228.9 763.1,232.5 763.2,221.9 763.4,225.4 763.4,230.5 764.1,238.2 764.1,215.5 764.2,219.0 764.3,208.5 764.4,201.5 764.4,204.9 764.4,210.1 765.7,217.8 766.0,229.3 766.1,222.3 766.1,225.7 766.1,215.6 766.1,208.6 766.1,201.9 766.1,194.9 766.1,198.5 766.1,187.9 766.1,180.9 766.2,174.2 766.2,177.8 766.2,183.1 766.3,191.1 768.0,167.5 768.0,170.9 768.1,176.0 768.1,183.7 768.1,161.0 768.1,164.6 768.1,154.0 768.1,157.5 768.1,147.4 768.2,140.6 768.2,133.6 768.2,137.2 768.3,126.7 770.0,130.1 770.2,135.2 770.5,142.9 771.9,154.5 772.2,147.7 772.3,151.2 772.5,141.1 774.1,134.3 776.6,137.8 777.3,142.9 777.9,150.6 782.3,162.1 784.8,155.4 787.9,159.0 789.5,148.4 790.1,141.7 790.9,145.1 798.3,135.0 798.9,138.6 799.5,143.9 799.5,152.0 799.5,164.0 799.8,167.5 802.9,157.0 803.8,150.0 804.4,153.6 806.0,158.9 812.4,166.9 820.3,178.9 831.7,171.9 832.8,175.4 845.9,165.3 847.3,168.8 852.7,174.2 865.3,158.4 877.9,161.8 886.5,151.7 890.9,144.7 895.6,148.1 902.8,138.0 903.3,131.0 903.6,134.5 903.7,139.6 904.2,124.4 904.6,128.0 906.2,133.3 918.3,141.4 921.0,153.4 925.2,156.9 930.3,146.4 932.0,150.0" fill="none" stroke="#65a30d" stroke-width="1.8" stroke-linejoin="round" opacity="0.9"/>
  <polyline points="80.0,500.7 80.0,500.0 234.2,500.4 276.2,499.2 452.1,498.4 699.4,497.4 700.0,497.9 704.2,496.4 704.3,497.0 704.6,497.8 705.9,499.1 706.8,501.1 721.8,500.4 722.2,499.7 722.5,500.1 723.2,500.7 723.5,498.9 724.2,499.3 725.0,500.0 725.6,498.0 725.8,497.0 726.3,497.5 726.4,495.9 726.7,496.5 726.8,494.8 727.0,495.4 727.3,493.5 727.4,494.2 727.6,492.0 727.7,492.8 727.9,494.0 728.0,495.8 728.2,498.5 728.2,497.6 728.2,498.1 728.3,498.9 728.4,496.6 728.6,495.4 728.6,496.1 728.7,494.2 728.8,494.9 728.8,492.9 729.1,493.6 729.2,494.8 729.2,496.4 729.4,491.4 729.4,492.3 729.6,489.8 729.6,490.7 729.7,488.1 729.8,489.1 729.9,486.1 729.9,484.0 729.9,485.2 730.0,487.0 730.0,481.7 730.0,483.0 730.0,479.1 730.0,480.5 730.1,476.3 730.1,477.9 730.1,480.2 730.1,483.8 730.1,489.1 730.1,490.0 730.1,491.5 730.1,493.6 730.1,496.7 730.1,495.6 730.2,494.4 730.2,495.1 730.2,496.1 730.2,497.6 730.2,499.9 730.2,500.3 730.2,499.1 730.3,498.3 730.3,498.7 730.3,499.5 730.3,500.6 730.3,502.2 730.3,502.5 730.4,502.9 730.4,503.6 730.5,501.6 730.5,502.0 730.5,502.4 730.5,503.1 730.5,504.2 730.5,503.8 730.5,503.4 730.5,503.0 730.6,503.2 730.6,503.6 730.7,504.2 730.9,502.5 730.9,502.0 731.0,502.3 731.1,501.4 731.1,500.7 731.1,501.1 731.3,500.0 731.4,500.4 731.4,499.3 731.5,498.4 731.5,498.9 731.5,499.6 731.5,500.7 731.5,502.3 731.5,502.6 731.5,503.0 731.5,503.6 731.7,504.6 731.7,504.8 731.8,505.0 731.8,504.3 731.8,503.9 731.8,504.1 731.8,504.4 731.8,504.9 731.9,505.6 731.9,505.7 731.9,505.9 731.9,505.3 731.9,505.1 732.0,505.2 732.0,504.8 732.0,504.9 732.1,505.2 732.1,504.5 732.2,504.6 732.3,504.1 732.3,504.3 732.4,503.7 732.4,503.9 732.4,504.3 732.4,504.7 732.9,505.5 732.9,505.2 732.9,505.3 733.0,504.9 733.0,505.1 733.0,505.3 733.1,505.7 733.1,504.6 733.1,504.3 733.2,504.0 733.2,503.6 733.3,503.8 733.4,503.1 733.6,502.7 733.8,502.9 733.9,502.1 734.4,501.6 734.4,501.9 734.4,502.4 734.4,500.9 734.5,501.3 734.5,501.8 734.5,502.6 734.5,503.8 734.5,504.0 734.5,503.4 734.5,502.9 734.5,503.2 734.7,503.6 735.3,504.1 735.7,502.5 735.8,501.9 736.5,501.3 736.5,501.6 736.5,502.1 736.5,500.7 736.6,501.0 736.9,500.0 736.9,499.2 736.9,499.6 736.9,498.3 736.9,498.8 736.9,499.5 737.0,500.6 737.2,497.4 737.2,497.9 737.2,496.4 737.2,496.9 737.2,495.2 737.3,495.9 737.9,496.8 737.9,494.0 737.9,494.7 737.9,492.6 738.0,491.1 738.5,489.5 738.6,487.7 738.6,485.7 738.6,486.8 738.7,483.5 738.7,484.7 738.7,486.6 738.7,481.2 738.7,482.5 738.7,484.5 738.7,487.5 738.8,492.0 738.8,490.4 739.0,488.7 739.1,486.8 739.2,484.7 739.2,485.9 739.2,482.5 739.2,483.7 739.3,485.7 739.3,488.5 739.4,480.1 739.4,481.5 739.4,483.5 739.5,477.4 739.6,478.9 739.6,474.4 739.6,471.1 739.6,473.0 739.7,475.7 739.8,467.6 739.8,463.6 739.9,465.8 740.1,459.3 740.1,454.5 740.2,449.3 740.3,452.2 740.5,456.6 740.6,443.6 740.6,437.3 740.6,430.6 740.7,434.2 740.7,423.6 740.7,427.1 740.7,417.0 740.7,409.9 740.7,413.5 740.9,418.8 741.2,403.1 741.2,396.0 741.2,399.5 741.2,404.6 741.2,412.3 741.3,389.6 741.8,382.8 741.8,386.2 741.8,376.1 742.2,379.7 742.3,369.2 742.5,362.4 742.5,355.4 742.5,348.7 743.1,341.7 743.1,334.7 743.2,338.2 743.5,327.7 743.5,331.1 743.7,336.3 743.7,321.1 743.7,314.1 743.8,307.1 743.9,310.6 744.8,316.0 745.1,324.0 745.4,300.3 745.7,303.7 746.5,293.6 746.8,286.9 747.6,279.9 747.6,283.3 747.6,273.2 747.6,276.7 747.6,266.2 747.6,269.8 748.3,275.1 749.0,259.3 750.7,252.6 750.8,256.0 750.9,245.9 751.1,249.5 754.0,239.0 754.7,242.5 755.0,247.9 755.3,255.9 755.7,267.9 757.0,271.3 757.9,261.2 758.8,264.7 759.2,270.1 760.7,254.3 761.0,247.3 762.8,250.7 762.8,255.8 763.0,263.5 763.1,240.8 763.1,244.2 763.1,249.3 763.1,234.2 763.1,227.2 763.1,230.7 763.2,220.2 763.4,223.6 763.4,228.8 764.1,236.5 764.1,213.7 764.2,217.3 764.3,206.8 764.4,199.7 764.4,203.2 764.4,208.3 765.7,216.0 766.0,227.5 766.1,220.5 766.1,223.9 766.1,213.8 766.1,206.8 766.1,200.1 766.1,193.1 766.1,196.6 766.1,186.1 766.1,179.1 766.2,172.4 766.2,175.9 766.2,181.3 766.3,189.3 768.0,165.6 768.0,169.0 768.1,174.1 768.1,181.8 768.1,159.1 768.1,162.7 768.1,152.1 768.1,155.6 768.1,145.5 768.2,138.7 768.2,131.7 768.2,135.3 768.3,124.7 770.0,128.2 770.2,133.3 770.5,141.0 771.9,152.5 772.2,145.8 772.3,149.2 772.5,139.1 774.1,132.4 776.6,135.8 777.3,140.9 777.9,148.6 782.3,160.1 784.8,153.4 787.9,157.0 789.5,146.4 790.1,139.7 790.9,143.1 798.3,133.0 798.9,136.6 799.5,141.9 799.5,149.9 799.5,161.9 799.8,165.5 802.9,155.0 803.8,148.0 804.4,151.5 806.0,156.9 812.4,164.9 820.3,176.9 831.7,169.9 832.8,173.3 845.9,163.2 847.3,166.7 852.7,172.1 865.3,156.3 877.9,159.7 886.5,149.6 890.9,142.6 895.6,146.0 902.8,135.9 903.3,128.9 903.6,132.3 903.7,137.4 904.2,122.3 904.6,125.8 906.2,131.2 918.3,139.2 921.0,151.2 925.2,154.8 930.3,144.2 932.0,147.8" fill="none" stroke="#475569" stroke-width="1.8" stroke-linejoin="round" opacity="0.9"/>
  <polyline points="80.0,500.7 80.0,500.0 234.2,500.4 276.2,499.2 452.1,498.4 699.4,497.4 700.0,497.9 704.2,496.4 704.3,497.0 704.6,497.8 705.9,499.1 706.8,501.1 721.8,500.4 722.2,499.6 722.5,500.1 723.2,500.7 723.5,498.8 724.2,499.3 725.0,500.0 725.6,498.0 725.8,497.0 726.3,497.5 726.4,495.9 726.7,496.5 726.8,494.7 727.0,495.4 727.3,493.4 727.4,494.1 727.6,492.0 727.7,492.8 727.9,494.0 728.0,495.8 728.2,498.5 728.2,497.5 728.2,498.0 728.3,498.8 728.4,496.5 728.6,495.4 728.6,496.0 728.7,494.2 728.8,494.8 728.8,492.8 729.1,493.6 729.2,494.7 729.2,496.4 729.4,491.4 729.4,492.2 729.6,489.7 729.6,490.6 729.7,488.0 729.8,488.9 729.9,486.0 729.9,483.8 729.9,485.0 730.0,486.8 730.0,481.5 730.0,482.8 730.0,478.9 730.0,480.4 730.1,476.1 730.1,477.7 730.1,480.1 730.1,483.6 730.1,489.0 730.1,489.9 730.1,491.3 730.1,493.5 730.1,496.6 730.1,495.5 730.2,494.3 730.2,495.0 730.2,496.0 730.2,497.5 730.2,499.8 730.2,500.2 730.2,499.0 730.3,498.2 730.3,498.6 730.3,499.4 730.3,500.5 730.3,502.1 730.3,502.4 730.4,502.9 730.4,503.5 730.5,501.6 730.5,501.9 730.5,502.4 730.5,503.1 730.5,504.2 730.5,503.8 730.5,503.4 730.5,502.9 730.6,503.2 730.6,503.6 730.7,504.1 730.9,502.4 730.9,501.9 731.0,502.2 731.1,501.3 731.1,500.6 731.1,501.0 731.3,499.9 731.4,500.3 731.4,499.1 731.5,498.3 731.5,498.7 731.5,499.5 731.5,500.6 731.5,502.2 731.5,502.5 731.5,502.9 731.5,503.6 731.7,504.5 731.7,504.7 731.8,505.0 731.8,504.2 731.8,503.8 731.8,504.0 731.8,504.3 731.8,504.8 731.9,505.5 731.9,505.6 731.9,505.8 731.9,505.3 731.9,505.0 732.0,505.2 732.0,504.7 732.0,504.9 732.1,505.1 732.1,504.4 732.2,504.6 732.3,504.0 732.3,504.2 732.4,503.7 732.4,503.9 732.4,504.2 732.4,504.7 732.9,505.4 732.9,505.2 732.9,505.3 733.0,504.9 733.0,505.0 733.0,505.3 733.1,505.6 733.1,504.6 733.1,504.2 733.2,503.9 733.2,503.5 733.3,503.7 733.4,503.0 733.6,502.5 733.8,502.8 733.9,502.0 734.4,501.4 734.4,501.8 734.4,502.2 734.4,500.8 734.5,501.2 734.5,501.7 734.5,502.5 734.5,503.7 734.5,503.9 734.5,503.3 734.5,502.8 734.5,503.1 734.7,503.5 735.3,504.0 735.7,502.3 735.8,501.8 736.5,501.2 736.5,501.5 736.5,502.0 736.5,500.5 736.6,500.9 736.9,499.8 736.9,499.0 736.9,499.4 736.9,498.1 736.9,498.6 736.9,499.3 737.0,500.4 737.2,497.1 737.2,497.7 737.2,496.1 737.2,496.7 737.2,494.9 737.3,495.6 737.9,496.5 737.9,493.7 737.9,494.4 737.9,492.3 738.0,490.7 738.5,489.0 738.6,487.2 738.6,485.1 738.6,486.3 738.7,482.9 738.7,484.1 738.7,486.0 738.7,480.5 738.7,481.8 738.7,483.9 738.7,487.0 738.8,491.6 738.8,490.0 739.0,488.2 739.1,486.3 739.2,484.1 739.2,485.3 739.2,481.8 739.2,483.1 739.3,485.0 739.3,488.0 739.4,479.3 739.4,480.7 739.4,482.9 739.5,476.5 739.6,478.1 739.6,473.5 739.6,470.1 739.6,472.0 739.7,474.8 739.8,466.4 739.8,462.4 739.9,464.6 740.1,457.9 740.1,453.0 740.2,447.6 740.3,450.6 740.5,455.1 740.6,441.8 740.6,435.3 740.6,428.5 740.7,432.1 740.7,421.6 740.7,425.0 740.7,414.9 740.7,407.9 740.7,411.4 740.9,416.7 741.2,401.0 741.2,393.9 741.2,397.3 741.2,402.5 741.2,410.2 741.3,387.4 741.8,380.7 741.8,384.1 741.8,374.0 742.2,377.5 742.3,367.0 742.5,360.2 742.5,353.2 742.5,346.5 743.1,339.5 743.1,332.5 743.2,336.0 743.5,325.5 743.5,328.9 743.7,334.0 743.7,318.8 743.7,311.8 743.8,304.8 743.9,308.4 744.8,313.7 745.1,321.7 745.4,298.0 745.7,301.4 746.5,291.3 746.8,284.6 747.6,277.5 747.6,281.0 747.6,270.9 747.6,274.4 747.6,263.9 747.6,267.4 748.3,272.8 749.0,257.0 750.7,250.2 750.8,253.6 750.9,243.5 751.1,247.1 754.0,236.6 754.7,240.1 755.0,245.4 755.3,253.4 755.7,265.4 757.0,268.8 757.9,258.7 758.8,262.3 759.2,267.6 760.7,251.8 761.0,244.8 762.8,248.2 762.8,253.3 763.0,261.0 763.1,238.3 763.1,241.7 763.1,246.8 763.1,231.6 763.1,224.6 763.1,228.2 763.2,217.7 763.4,221.1 763.4,226.2 764.1,233.9 764.1,211.1 764.2,214.7 764.3,204.1 764.4,197.1 764.4,200.5 764.4,205.7 765.7,213.3 766.0,224.9 766.1,217.9 766.1,221.3 766.1,211.2 766.1,204.1 766.1,197.4 766.1,190.4 766.1,193.9 766.1,183.4 766.1,176.4 766.2,169.6 766.2,173.2 766.2,178.5 766.3,186.5 768.0,162.8 768.0,166.3 768.1,171.4 768.1,179.1 768.1,156.3 768.1,159.9 768.1,149.3 768.1,152.7 768.1,142.6 768.2,135.9 768.2,128.9 768.2,132.4 768.3,121.9 770.0,125.3 770.2,130.4 770.5,138.1 771.9,149.6 772.2,142.9 772.3,146.3 772.5,136.2 774.1,129.5 776.6,132.9 777.3,138.0 777.9,145.7 782.3,157.2 784.8,150.5 787.9,154.0 789.5,143.5 790.1,136.7 790.9,140.2 798.3,130.0 798.9,133.6 799.5,138.9 799.5,146.9 799.5,158.9 799.8,162.5 802.9,151.9 803.8,144.9 804.4,148.5 806.0,153.8 812.4,161.8 820.3,173.8 831.7,166.8 832.8,170.2 845.9,160.1 847.3,163.6 852.7,169.0 865.3,153.2 877.9,156.6 886.5,146.5 890.9,139.5 895.6,142.9 902.8,132.8 903.3,125.7 903.6,129.2 903.7,134.3 904.2,119.1 904.6,122.7 906.2,128.0 918.3,136.0 921.0,148.0 925.2,151.5 930.3,141.0 932.0,144.6" fill="none" stroke="#ea580c" stroke-width="1.8" stroke-linejoin="round" opacity="0.9"/>
  <line x1="950" y1="94" x2="972" y2="94" stroke="#ea580c" stroke-width="3"/><text x="980" y="98" font-size="12.5" fill="#374151">vip 9  499008</text>
  <line x1="950" y1="116" x2="972" y2="116" stroke="#475569" stroke-width="3"/><text x="980" y="120" font-size="12.5" fill="#374151">vip 8  494566</text>
  <line x1="950" y1="138" x2="972" y2="138" stroke="#65a30d" stroke-width="3"/><text x="980" y="142" font-size="12.5" fill="#374151">vip 7  491558</text>
  <line x1="950" y1="160" x2="972" y2="160" stroke="#db2777" stroke-width="3"/><text x="980" y="164" font-size="12.5" fill="#374151">vip 6  486772</text>
  <line x1="950" y1="182" x2="972" y2="182" stroke="#0891b2" stroke-width="3"/><text x="980" y="186" font-size="12.5" fill="#374151">vip 5  483678</text>
  <line x1="950" y1="204" x2="972" y2="204" stroke="#7c3aed" stroke-width="3"/><text x="980" y="208" font-size="12.5" fill="#374151">vip 4  479078</text>
  <line x1="950" y1="226" x2="972" y2="226" stroke="#d97706" stroke-width="3"/><text x="980" y="230" font-size="12.5" fill="#374151">vip 3  453458</text>
  <line x1="950" y1="248" x2="972" y2="248" stroke="#16a34a" stroke-width="3"/><text x="980" y="252" font-size="12.5" fill="#374151">vip 2  435033</text>
  <line x1="950" y1="270" x2="972" y2="270" stroke="#2563eb" stroke-width="3"/><text x="980" y="274" font-size="12.5" fill="#374151">vip 0  412108</text>
  <line x1="950" y1="292" x2="972" y2="292" stroke="#dc2626" stroke-width="3"/><text x="980" y="296" font-size="12.5" fill="#374151">vip 1  412108</text>
  <text x="80" y="542" text-anchor="start" font-size="12" fill="#6b7280">2025-10-10</text><text x="932" y="542" text-anchor="end" font-size="12" fill="#6b7280">2025-10-10</text>
</svg>
