<svg xmlns="http://www.w3.org/2000/svg" width="1100" height="560" font-family="ui-sans-serif, system-ui, sans-serif" viewBox="0 0 1100 560"><rect width="1100" height="560" fill="#fff"/><text x="80" y="28" fill="#111827" font-size="18" font-weight="700">Zone Recovery — XRPUSDT fee-tier comparison (best setting)</text><text x="80" y="48" fill="#6b7280" font-size="12.5">lev 25 · ratio 4 · gap 20% · maxSteps 4 · maxDD 60% · random · equity per fee tier vip 0..9</text><text x="80" y="68" fill="#1d4ed8" font-size="12.5" font-weight="600">USDT margin · BNB −10%</text><line x1="80" x2="932" y1="508" y2="508" stroke="#e5e7eb" stroke-width="1"/><text x="70" y="512" fill="#6b7280" font-size="12" text-anchor="end">0.00</text><line x1="80" x2="932" y1="424" y2="424" stroke="#e5e7eb" stroke-width="1"/><text x="70" y="428" fill="#6b7280" font-size="12" text-anchor="end">72597</text><line x1="80" x2="932" y1="340" y2="340" stroke="#e5e7eb" stroke-width="1"/><text x="70" y="344" fill="#6b7280" font-size="12" text-anchor="end">145194</text><line x1="80" x2="932" y1="256" y2="256" stroke="#e5e7eb" stroke-width="1"/><text x="70" y="260" fill="#6b7280" font-size="12" text-anchor="end">217790</text><line x1="80" x2="932" y1="172" y2="172" stroke="#e5e7eb" stroke-width="1"/><text x="70" y="176" fill="#6b7280" font-size="12" text-anchor="end">290387</text><line x1="80" x2="932" y1="88" y2="88" stroke="#e5e7eb" stroke-width="1"/><text x="70" y="92" fill="#6b7280" font-size="12" text-anchor="end">362984</text><line x1="80" x2="932" y1="496.4" y2="496.4" stroke="#9ca3af" stroke-dasharray="6 4" stroke-width="1.5"/><polyline fill="none" stroke="#2563eb" stroke-linejoin="round" stroke-width="1.8" points="80 496.4 80 497.8 81 499.4 114.1 492.1 121.8 485.7 122.4 488.3 135 477 162.4 480.6 187 465 205.2 447.6 205.8 452.9 206.1 459.5 207.5 430.5 208.2 435.8 209.4 412.9 214.6 418.2 222 424.7 226.3 432.9 231.5 443.1 232.7 424.8 234.2 406.5 234.2 411.8 239.7 388.9 242.5 394.2 258.7 371 258.8 376.3 259.1 383 262.9 391.3 276.7 355 276.8 360.3 277 366.9 280.2 375.2 286.5 385.6 306.5 390.9 312 397.5 312 405.8 314.1 416.2 314.2 421.5 314.7 428 314.9 436.2 316.3 446.4 375.1 428.1 375.5 433.3 380.1 439.9 380.6 448.1 389.2 458.3 396.2 463.5 404.5 470 408.4 478.2 430 442.6 450.7 447.9 451 454.5 465.4 462.8 478.4 473.2 479.2 477.2 507.8 459.6 508.3 464.9 508.9 471.5 572.4 479.8 573.1 443.5 573.1 448.9 573.1 425.6 573.1 430.9 573.1 437.6 573.1 445.9 573.1 456.3 573.2 437.7 574.9 442.9 575.2 449.5 575.8 457.6 592.5 422 604.7 403.7 608 409 608.2 415.6 610.2 423.9 626.7 387.6 644.9 369.1 646 374.3 646.4 380.9 646.7 389 647.2 399.2 647.5 404.6 650.9 411.2 672.6 419.5 702.9 429.9 703.8 435.1 705.7 441.7 757.6 413.1 757.6 418.4 768 425 784.2 396 810.3 377.7 833.9 359.2 852.7 340.9 866.4 346.2 867.8 323 871.6 328.3 873.6 334.9 879.3 343.2 879.4 306.9 879.4 312.2 879.4 318.9 895.5 289.9 895.6 295.2 899.3 301.8 900.5 310.1 914.6 273.8 914.9 279.1 917.4 285.8 919.1 294.1 921.7 257.8 921.7 263.1 921.7 269.7 921.8 278 922.4 288.4 923.6 293.7 923.9 300.4 924.1 308.7 924.9 272.4 924.9 254.1 924.9 235.5 926.7 217.2 926.7 222.5 926.7 229.2 926.7 200.2 930.2 181.6 932 186.8" opacity=".9"/><polyline fill="none" stroke="#dc2626" stroke-linejoin="round" stroke-width="1.8" points="80 496.4 80 497.8 81 499.4 114.1 492.1 121.8 485.7 122.4 488.3 135 477 162.4 480.6 187 465 205.2 447.6 205.8 452.9 206.1 459.5 207.5 430.5 208.2 435.8 209.4 412.9 214.6 418.2 222 424.7 226.3 432.9 231.5 443.1 232.7 424.8 234.2 406.5 234.2 411.8 239.7 388.9 242.5 394.2 258.7 371 258.8 376.3 259.1 383 262.9 391.3 276.7 355 276.8 360.3 277 366.9 280.2 375.2 286.5 385.6 306.5 390.9 312 397.5 312 405.8 314.1 416.2 314.2 421.5 314.7 428 314.9 436.2 316.3 446.4 375.1 428.1 375.5 433.3 380.1 439.9 380.6 448.1 389.2 458.3 396.2 463.5 404.5 470 408.4 478.2 430 442.6 450.7 447.9 451 454.5 465.4 462.8 478.4 473.2 479.2 477.2 507.8 459.6 508.3 464.9 508.9 471.5 572.4 479.8 573.1 443.5 573.1 448.9 573.1 425.6 573.1 430.9 573.1 437.6 573.1 445.9 573.1 456.3 573.2 437.7 574.9 442.9 575.2 449.5 575.8 457.6 592.5 422 604.7 403.7 608 409 608.2 415.6 610.2 423.9 626.7 387.6 644.9 369.1 646 374.3 646.4 380.9 646.7 389 647.2 399.2 647.5 404.6 650.9 411.2 672.6 419.5 702.9 429.9 703.8 435.1 705.7 441.7 757.6 413.1 757.6 418.4 768 425 784.2 396 810.3 377.7 833.9 359.2 852.7 340.9 866.4 346.2 867.8 323 871.6 328.3 873.6 334.9 879.3 343.2 879.4 306.9 879.4 312.2 879.4 318.9 895.5 289.9 895.6 295.2 899.3 301.8 900.5 310.1 914.6 273.8 914.9 279.1 917.4 285.8 919.1 294.1 921.7 257.8 921.7 263.1 921.7 269.7 921.8 278 922.4 288.4 923.6 293.7 923.9 300.4 924.1 308.7 924.9 272.4 924.9 254.1 924.9 235.5 926.7 217.2 926.7 222.5 926.7 229.2 926.7 200.2 930.2 181.6 932 186.8" opacity=".9"/><polyline fill="none" stroke="#16a34a" stroke-linejoin="round" stroke-width="1.8" points="80 496.4 80 497.7 81 499.4 114.1 492 121.8 485.5 122.4 488.1 135 476.7 162.4 480.2 187 464.3 205.2 446.5 205.8 451.7 206.1 458.2 207.5 429 208.2 434.2 209.4 411.2 214.6 416.3 222 422.7 226.3 430.7 231.5 440.8 232.7 422.4 234.2 404 234.2 409.1 239.7 386.1 242.5 391.3 258.7 368 258.8 373.2 259.1 379.7 262.9 387.8 276.7 351.3 276.8 356.5 277 363 280.2 371.2 286.5 381.3 306.5 386.5 312 393 312 401.2 314.1 411.3 314.2 416.5 314.7 422.9 314.9 430.9 316.3 440.9 375.1 422.5 375.5 427.6 380.1 434 380.6 442.1 389.2 452.1 396.2 457.2 404.5 463.6 408.4 471.6 430 435.7 450.7 440.9 451 447.4 465.4 455.6 478.4 465.7 479.2 470.5 507.8 449 508.3 454.2 508.9 460.7 572.4 468.9 573.1 432.4 573.1 437.6 573.1 414.2 573.1 419.4 573.1 425.9 573.1 434.1 573.1 444.2 573.2 425.6 574.9 430.7 575.2 437.1 575.8 445.1 592.5 409.2 604.7 390.8 608 396 608.2 402.5 610.2 410.7 626.7 374.2 644.9 355.5 646 360.6 646.4 367 646.7 375 647.2 385.1 647.5 390.3 650.9 396.8 672.6 404.9 702.9 415.1 703.8 420.2 705.7 426.6 757.6 397.9 757.6 403.1 768 409.6 784.2 380.4 810.3 362 833.9 343.3 852.7 325 866.4 330.2 867.8 306.8 871.6 312 873.6 318.5 879.3 326.6 879.4 290.1 879.4 295.3 879.4 301.8 895.5 272.7 895.6 277.9 899.3 284.4 900.5 292.5 914.6 256 914.9 261.2 917.4 267.7 919.1 275.9 921.7 239.4 921.7 244.6 921.7 251.1 921.8 259.2 922.4 269.4 923.6 274.6 923.9 281.1 924.1 289.2 924.9 252.7 924.9 234.3 924.9 215.6 926.7 197.3 926.7 202.5 926.7 209 926.7 179.8 930.2 161.1 932 166.2" opacity=".9"/><polyline fill="none" stroke="#d97706" stroke-linejoin="round" stroke-width="1.8" points="80 496.4 80 497.7 81 499.3 114.1 491.9 121.8 485.4 122.4 487.9 135 476.4 162.4 479.9 187 463.7 205.2 445.6 205.8 450.8 206.1 457.2 207.5 427.8 208.2 432.9 209.4 409.8 214.6 414.8 222 421.2 226.3 429 231.5 438.9 232.7 420.4 234.2 401.9 234.2 407 239.7 383.9 242.5 389 258.7 365.5 258.8 370.7 259.1 377.1 262.9 385.1 276.7 348.4 276.8 353.5 277 359.9 280.2 367.9 286.5 377.9 306.5 383 312 389.4 312 397.4 314.1 407.4 314.2 412.5 314.7 418.8 314.9 426.7 316.3 436.5 375.1 418 375.5 423.1 380.1 429.4 380.6 437.3 389.2 447.1 396.2 452.1 404.5 458.4 408.4 466.3 430 430.3 450.7 435.4 451 441.8 465.4 449.8 478.4 459.8 479.2 464.9 507.8 441.4 508.3 446.6 508.9 453 572.4 461 573.1 424.3 573.1 429.4 573.1 405.9 573.1 411.1 573.1 417.5 573.1 425.5 573.1 435.5 573.2 416.7 574.9 421.7 575.2 428 575.8 435.9 592.5 399.9 604.7 381.4 608 386.5 608.2 392.9 610.2 400.9 626.7 364.2 644.9 345.5 646 350.5 646.4 356.8 646.7 364.7 647.2 374.6 647.5 379.7 650.9 386.1 672.6 394.1 702.9 404.1 703.8 409.1 705.7 415.4 757.6 386.6 757.6 391.7 768 398.1 784.2 368.8 810.3 350.3 833.9 331.5 852.7 313.1 866.4 318.2 867.8 294.7 871.6 299.8 873.6 306.2 879.3 314.2 879.4 277.6 879.4 282.7 879.4 289.1 895.5 259.8 895.6 264.9 899.3 271.3 900.5 279.3 914.6 242.6 914.9 247.7 917.4 254.1 919.1 262.1 921.7 225.5 921.7 230.6 921.7 237 921.8 245 922.4 255 923.6 260.1 923.9 266.5 924.1 274.5 924.9 237.8 924.9 219.4 924.9 200.6 926.7 182.1 926.7 187.2 926.7 193.6 926.7 164.3 930.2 145.6 932 150.6" opacity=".9"/><polyline fill="none" stroke="#7c3aed" stroke-linejoin="round" stroke-width="1.8" points="80 496.4 80 497.7 81 499.3 114.1 491.9 121.8 485.3 122.4 487.9 135 476.3 162.4 479.8 187 463.6 205.2 445.4 205.8 450.5 206.1 456.9 207.5 427.5 208.2 432.6 209.4 409.5 214.6 414.5 222 420.8 226.3 428.6 231.5 438.4 232.7 419.9 234.2 401.4 234.2 406.4 239.7 383.3 242.5 388.4 258.7 364.9 258.8 370 259.1 376.4 262.9 384.4 276.7 347.7 276.8 352.8 277 359.1 280.2 367.1 286.5 377.1 306.5 382.2 312 388.5 312 396.5 314.1 406.5 314.2 411.5 314.7 417.8 314.9 425.6 316.3 435.4 375.1 416.9 375.5 421.9 380.1 428.2 380.6 436.1 389.2 445.9 396.2 450.9 404.5 457.2 408.4 465 430 428.9 450.7 434 451 440.4 465.4 448.3 478.4 458.3 479.2 463.4 507.8 439.9 508.3 445 508.9 451.4 572.4 459.3 573.1 422.6 573.1 427.7 573.1 404.2 573.1 409.3 573.1 415.7 573.1 423.7 573.1 433.6 573.2 414.8 574.9 419.9 575.2 426.1 575.8 434 592.5 397.9 604.7 379.4 608 384.5 608.2 390.9 610.2 398.8 626.7 362.1 644.9 343.3 646 348.4 646.4 354.6 646.7 362.5 647.2 372.3 647.5 377.4 650.9 383.8 672.6 391.7 702.9 401.7 703.8 406.7 705.7 413 757.6 384.1 757.6 389.2 768 395.6 784.2 366.2 810.3 347.7 833.9 328.9 852.7 310.4 866.4 315.5 867.8 292 871.6 297.1 873.6 303.5 879.3 311.5 879.4 274.8 879.4 279.9 879.4 286.2 895.5 256.9 895.6 262 899.3 268.4 900.5 276.3 914.6 239.6 914.9 244.7 917.4 251.1 919.1 259.1 921.7 222.4 921.7 227.5 921.7 233.8 921.8 241.8 922.4 251.7 923.6 256.8 923.9 263.2 924.1 271.2 924.9 234.5 924.9 216 924.9 197.2 926.7 178.7 926.7 183.8 926.7 190.2 926.7 160.8 930.2 142 932 147.1" opacity=".9"/><polyline fill="none" stroke="#0891b2" stroke-linejoin="round" stroke-width="1.8" points="80 496.4 80 497.7 81 499.3 114.1 491.9 121.8 485.3 122.4 487.8 135 476.2 162.4 479.7 187 463.4 205.2 445.1 205.8 450.2 206.1 456.5 207.5 427.1 208.2 432.1 209.4 408.9 214.6 413.9 222 420.2 226.3 428 231.5 437.7 232.7 419.2 234.2 400.6 234.2 405.6 239.7 382.5 242.5 387.6 258.7 364 258.8 369.1 259.1 375.4 262.9 383.3 276.7 346.6 276.8 351.6 277 358 280.2 365.9 286.5 375.8 306.5 380.8 312 387.2 312 395.1 314.1 405 314.2 410 314.7 416.2 314.9 424 316.3 433.8 375.1 415.2 375.5 420.2 380.1 426.5 380.6 434.2 389.2 444 396.2 449 404.5 455.2 408.4 463 430 426.8 450.7 431.9 451 438.2 465.4 446.2 478.4 456.1 479.2 461.1 507.8 437.6 508.3 442.7 508.9 449 572.4 456.9 573.1 420.1 573.1 425.2 573.1 401.7 573.1 406.7 573.1 413.1 573.1 421 573.1 430.9 573.2 412.1 574.9 417.1 575.2 423.3 575.8 431.1 592.5 394.9 604.7 376.4 608 381.5 608.2 387.8 610.2 395.7 626.7 358.9 644.9 340.1 646 345.1 646.4 351.4 646.7 359.1 647.2 368.9 647.5 374 650.9 380.3 672.6 388.2 702.9 398.1 703.8 403.1 705.7 409.3 757.6 380.4 757.6 385.4 768 391.8 784.2 362.4 810.3 343.9 833.9 325 852.7 306.5 866.4 311.6 867.8 288 871.6 293.1 873.6 299.4 879.3 307.4 879.4 270.6 879.4 275.7 879.4 282 895.5 252.6 895.6 257.7 899.3 264 900.5 271.9 914.6 235.1 914.9 240.2 917.4 246.5 919.1 254.5 921.7 217.7 921.7 222.7 921.7 229.1 921.8 237 922.4 246.9 923.6 252 923.9 258.3 924.1 266.2 924.9 229.4 924.9 210.9 924.9 192.1 926.7 173.6 926.7 178.6 926.7 185 926.7 155.6 930.2 136.8 932 141.7" opacity=".9"/><polyline fill="none" stroke="#db2777" stroke-linejoin="round" stroke-width="1.8" points="80 496.4 80 497.7 81 499.3 114.1 491.9 121.8 485.3 122.4 487.8 135 476.1 162.4 479.6 187 463.2 205.2 444.9 205.8 449.9 206.1 456.2 207.5 426.8 208.2 431.8 209.4 408.6 214.6 413.5 222 419.8 226.3 427.5 231.5 437.2 232.7 418.7 234.2 400.1 234.2 405.1 239.7 381.9 242.5 387 258.7 363.4 258.8 368.5 259.1 374.8 262.9 382.6 276.7 345.8 276.8 350.9 277 357.2 280.2 365.1 286.5 374.9 306.5 380 312 386.3 312 394.2 314.1 404 314.2 409 314.7 415.2 314.9 422.9 316.3 432.7 375.1 414.1 375.5 419.1 380.1 425.3 380.6 433 389.2 442.7 396.2 447.7 404.5 453.9 408.4 461.7 430 425.5 450.7 430.5 451 436.8 465.4 444.7 478.4 454.6 479.2 459.6 507.8 436.1 508.3 441.1 508.9 447.4 572.4 455.3 573.1 418.5 573.1 423.5 573.1 400 573.1 405 573.1 411.3 573.1 419.2 573.1 429 573.2 410.2 574.9 415.2 575.2 421.4 575.8 429.1 592.5 392.9 604.7 374.4 608 379.4 608.2 385.8 610.2 393.6 626.7 356.8 644.9 338 646 343 646.4 349.2 646.7 356.9 647.2 366.6 647.5 371.7 650.9 378 672.6 385.9 702.9 395.7 703.8 400.7 705.7 406.9 757.6 377.9 757.6 383 768 389.3 784.2 359.8 810.3 341.3 833.9 322.4 852.7 303.9 866.4 308.9 867.8 285.4 871.6 290.4 873.6 296.7 879.3 304.6 879.4 267.8 879.4 272.8 879.4 279.2 895.5 249.7 895.6 254.8 899.3 261.1 900.5 269 914.6 232.1 914.9 237.2 917.4 243.5 919.1 251.4 921.7 214.6 921.7 219.6 921.7 225.9 921.8 233.8 922.4 243.7 923.6 248.7 923.9 255 924.1 262.9 924.9 226.1 924.9 207.5 924.9 188.7 926.7 170.1 926.7 175.2 926.7 181.5 926.7 152.1 930.2 133.2 932 138.2" opacity=".9"/><polyline fill="none" stroke="#65a30d" stroke-linejoin="round" stroke-width="1.8" points="80 496.4 80 497.7 81 499.3 114.1 491.8 121.8 485.2 122.4 487.7 135 476 162.4 479.5 187 463 205.2 444.5 205.8 449.5 206.1 455.8 207.5 426.3 208.2 431.3 209.4 408.1 214.6 413 222 419.2 226.3 426.9 231.5 436.5 232.7 417.9 234.2 399.4 234.2 404.3 239.7 381.1 242.5 386.1 258.7 362.5 258.8 367.5 259.1 373.8 262.9 381.6 276.7 344.7 276.8 349.7 277 356 280.2 363.8 286.5 373.6 306.5 378.6 312 384.9 312 392.7 314.1 402.5 314.2 407.5 314.7 413.6 314.9 421.4 316.3 431 375.1 412.4 375.5 417.4 380.1 423.5 380.6 431.2 389.2 440.9 396.2 445.8 404.5 452 408.4 459.7 430 423.4 450.7 428.4 451 434.7 465.4 442.5 478.4 452.3 479.2 457.3 507.8 433.7 508.3 438.8 508.9 445 572.4 452.9 573.1 416 573.1 421 573.1 397.4 573.1 402.4 573.1 408.7 573.1 416.5 573.1 426.3 573.2 407.4 574.9 412.4 575.2 418.5 575.8 426.2 592.5 390 604.7 371.4 608 376.4 608.2 382.7 610.2 390.5 626.7 353.6 644.9 334.8 646 339.7 646.4 345.9 646.7 353.6 647.2 363.2 647.5 368.2 650.9 374.5 672.6 382.3 702.9 392.1 703.8 397.1 705.7 403.2 757.6 374.2 757.6 379.2 768 385.5 784.2 356 810.3 337.4 833.9 318.5 852.7 300 866.4 305 867.8 281.4 871.6 286.4 873.6 292.7 879.3 300.5 879.4 263.6 879.4 268.6 879.4 274.9 895.5 245.4 895.6 250.4 899.3 256.7 900.5 264.5 914.6 227.7 914.9 232.7 917.4 238.9 919.1 246.8 921.7 209.9 921.7 214.9 921.7 221.2 921.8 229 922.4 238.8 923.6 243.8 923.9 250.1 924.1 257.9 924.9 221 924.9 202.5 924.9 183.6 926.7 165 926.7 170 926.7 176.3 926.7 146.8 930.2 127.9 932 132.9" opacity=".9"/><polyline fill="none" stroke="#475569" stroke-linejoin="round" stroke-width="1.8" points="80 496.4 80 497.7 81 499.3 114.1 491.8 121.8 485.2 122.4 487.6 135 475.9 162.4 479.4 187 462.9 205.2 444.3 205.8 449.3 206.1 455.5 207.5 426 208.2 430.9 209.4 407.7 214.6 412.6 222 418.8 226.3 426.4 231.5 436 232.7 417.4 234.2 398.8 234.2 403.8 239.7 380.5 242.5 385.5 258.7 361.9 258.8 366.9 259.1 373.1 262.9 380.9 276.7 344 276.8 349 277 355.2 280.2 363 286.5 372.8 306.5 377.8 312 384 312 391.8 314.1 401.6 314.2 406.5 314.7 412.6 314.9 420.3 316.3 429.9 375.1 411.3 375.5 416.2 380.1 422.3 380.6 430 389.2 439.6 396.2 444.5 404.5 450.7 408.4 458.4 430 422.1 450.7 427 451 433.3 465.4 441.1 478.4 450.8 479.2 455.8 507.8 432.2 508.3 437.2 508.9 443.4 572.4 451.2 573.1 414.3 573.1 419.3 573.1 395.7 573.1 400.7 573.1 406.9 573.1 414.7 573.1 424.5 573.2 405.6 574.9 410.5 575.2 416.6 575.8 424.3 592.5 388 604.7 369.4 608 374.4 608.2 380.6 610.2 388.4 626.7 351.5 644.9 332.6 646 337.5 646.4 343.7 646.7 351.4 647.2 361 647.5 365.9 650.9 372.2 672.6 380 702.9 389.7 703.8 394.6 705.7 400.8 757.6 371.7 757.6 376.7 768 383 784.2 353.4 810.3 334.8 833.9 316 852.7 297.4 866.4 302.3 867.8 278.7 871.6 283.7 873.6 290 879.3 297.8 879.4 260.8 879.4 265.8 879.4 272.1 895.5 242.5 895.6 247.5 899.3 253.8 900.5 261.6 914.6 224.7 914.9 229.7 917.4 235.9 919.1 243.7 921.7 206.8 921.7 211.8 921.7 218 921.8 225.8 922.4 235.6 923.6 240.6 923.9 246.8 924.1 254.6 924.9 217.7 924.9 199.1 924.9 180.2 926.7 161.6 926.7 166.6 926.7 172.8 926.7 143.3 930.2 124.4 932 129.3" opacity=".9"/><polyline fill="none" stroke="#ea580c" stroke-linejoin="round" stroke-width="1.8" points="80 496.4 80 497.7 81 499.2 114.1 491.8 121.8 485.1 122.4 487.6 135 475.8 162.4 479.3 187 462.7 205.2 444 205.8 448.9 206.1 455.1 207.5 425.6 208.2 430.5 209.4 407.2 214.6 412.1 222 418.2 226.3 425.8 231.5 435.3 232.7 416.7 234.2 398.1 234.2 402.9 239.7 379.7 242.5 384.6 258.7 361 258.8 365.9 259.1 372.1 262.9 379.9 276.7 342.9 276.8 347.9 277 354.1 280.2 361.8 286.5 371.5 306.5 376.4 312 382.6 312 390.4 314.1 400.1 314.2 405 314.7 411.1 314.9 418.7 316.3 428.2 375.1 409.6 375.5 414.5 380.1 420.6 380.6 428.2 389.2 437.8 396.2 442.6 404.5 448.7 408.4 456.4 430 420 450.7 425 451 431.2 465.4 438.9 478.4 448.6 479.2 453.6 507.8 429.9 508.3 434.8 508.9 441 572.4 448.8 573.1 411.8 573.1 416.8 573.1 393.1 573.1 398.1 573.1 404.3 573.1 412 573.1 421.7 573.2 402.8 574.9 407.7 575.2 413.8 575.8 421.4 592.5 385 604.7 366.4 608 371.4 608.2 377.6 610.2 385.3 626.7 348.3 644.9 329.4 646 334.3 646.4 340.4 646.7 348 647.2 357.5 647.5 362.5 650.9 368.7 672.6 376.5 702.9 386.1 703.8 391 705.7 397.1 757.6 368 757.6 373 768 379.2 784.2 349.6 810.3 331 833.9 312.1 852.7 293.4 866.4 298.4 867.8 274.7 871.6 279.7 873.6 285.9 879.3 293.6 879.4 256.7 879.4 261.6 879.4 267.8 895.5 238.2 895.6 243.2 899.3 249.4 900.5 257.1 914.6 220.2 914.9 225.1 917.4 231.3 919.1 239.1 921.7 202.1 921.7 207.1 921.7 213.3 921.8 221 922.4 230.7 923.6 235.7 923.9 241.9 924.1 249.6 924.9 212.6 924.9 194 924.9 175.1 926.7 156.4 926.7 161.4 926.7 167.6 926.7 138 930.2 119.1 932 124" opacity=".9"/><line x1="950" x2="972" y1="94" y2="94" stroke="#ea580c" stroke-width="3"/><text x="980" y="98" fill="#374151" font-size="12.5">vip 9 331877</text><line x1="950" x2="972" y1="116" y2="116" stroke="#475569" stroke-width="3"/><text x="980" y="120" fill="#374151" font-size="12.5">vip 8 327273</text><line x1="950" x2="972" y1="138" y2="138" stroke="#65a30d" stroke-width="3"/><text x="980" y="142" fill="#374151" font-size="12.5">vip 7 324204</text><line x1="950" x2="972" y1="160" y2="160" stroke="#db2777" stroke-width="3"/><text x="980" y="164" fill="#374151" font-size="12.5">vip 6 319602</text><line x1="950" x2="972" y1="182" y2="182" stroke="#0891b2" stroke-width="3"/><text x="980" y="186" fill="#374151" font-size="12.5">vip 5 316535</text><line x1="950" x2="972" y1="204" y2="204" stroke="#7c3aed" stroke-width="3"/><text x="980" y="208" fill="#374151" font-size="12.5">vip 4 311935</text><line x1="950" x2="972" y1="226" y2="226" stroke="#d97706" stroke-width="3"/><text x="980" y="230" fill="#374151" font-size="12.5">vip 3 308868</text><line x1="950" x2="972" y1="248" y2="248" stroke="#16a34a" stroke-width="3"/><text x="980" y="252" fill="#374151" font-size="12.5">vip 2 295359</text><line x1="950" x2="972" y1="270" y2="270" stroke="#2563eb" stroke-width="3"/><text x="980" y="274" fill="#374151" font-size="12.5">vip 0 277553</text><line x1="950" x2="972" y1="292" y2="292" stroke="#dc2626" stroke-width="3"/><text x="980" y="296" fill="#374151" font-size="12.5">vip 1 277553</text><text x="80" y="542" fill="#6b7280" font-size="12" text-anchor="start">2026-01-01</text><text x="932" y="542" fill="#6b7280" font-size="12" text-anchor="end">2026-01-31</text></svg>