<svg xmlns="http://www.w3.org/2000/svg" width="1000" height="520" font-family="ui-sans-serif, system-ui, sans-serif" viewBox="0 0 1000 520"><rect width="1000" height="520" fill="#fff"/><text x="78" y="28" fill="#111827" font-size="18" font-weight="700">Zone Recovery — LTCUSDT best setting (equity / PnL)</text><text x="78" y="48" fill="#6b7280" font-size="12.5">lev 4 · ratio 3 · gap 35% · maxSteps 4 · maxDD 20% · random · vip 9 · 4 series, 100.0% win · vol $10783630 ($347859/day) · fees $1650</text><text x="78" y="68" fill="#1d4ed8" font-size="12.5" font-weight="600">USDT · BNB −10% · taker 0.0153%</text><text x="934" y="28" fill="#16a34a" font-size="18" font-weight="700" text-anchor="end">+871109 USDT (+0.87%)</text><line x1="78" x2="934" y1="468" y2="468" stroke="#e5e7eb" stroke-width="1"/><text x="68" y="472" fill="#6b7280" font-size="12" text-anchor="end">0.00</text><line x1="78" x2="934" y1="392" y2="392" stroke="#e5e7eb" stroke-width="1"/><text x="68" y="396" fill="#6b7280" font-size="12" text-anchor="end">21788160</text><line x1="78" x2="934" y1="316" y2="316" stroke="#e5e7eb" stroke-width="1"/><text x="68" y="320" fill="#6b7280" font-size="12" text-anchor="end">43576319</text><line x1="78" x2="934" y1="240" y2="240" stroke="#e5e7eb" stroke-width="1"/><text x="68" y="244" fill="#6b7280" font-size="12" text-anchor="end">65364479</text><line x1="78" x2="934" y1="164" y2="164" stroke="#e5e7eb" stroke-width="1"/><text x="68" y="168" fill="#6b7280" font-size="12" text-anchor="end">87152638</text><line x1="78" x2="934" y1="88" y2="88" stroke="#e5e7eb" stroke-width="1"/><text x="68" y="92" fill="#6b7280" font-size="12" text-anchor="end">108940798</text><line x1="78" x2="934" y1="119.2" y2="119.2" stroke="#9ca3af" stroke-dasharray="6 4" stroke-width="1.5"/><text x="934" y="113.2" fill="#6b7280" font-size="11" text-anchor="end">start 100000000</text><polyline fill="none" stroke="#d97706" stroke-linejoin="round" stroke-width="1.2" points="78 227.5 78.8 229.6 79.5 229 80.5 228.5 81.6 230.4 82.5 231.4 83.6 229.5 84.8 229.1 85.7 230.7 86.5 232.2 87.5 231.3 87.9 226.5 88 222.6 88.1 220.4 88.2 219.2 88.3 219.9 88.4 218.6 88.6 218.2 88.8 219.1 89 216.9 89.1 215 89.3 214.2 89.5 213.5 89.8 215.4 90.3 217.3 90.9 214.5 91.3 213.1 91.7 214.3 92.2 213.4 92.7 212.7 93.1 211.8 93.5 211.2 93.9 212.3 94.3 211.1 94.6 210.6 94.9 210.3 95.4 210.5 95.8 210.3 96.3 210.3 96.9 209 97.3 208.8 97.8 209.6 98.1 211.9 98.8 212.3 99.4 210 100.2 208.4 100.7 207 101 207 101.7 208.3 102.7 208.7 103.4 205.8 104 205.1 104.2 199.8 104.3 197.7 104.4 196.1 104.5 198.4 104.8 196.8 105.1 197.2 105.4 194.9 105.6 193.9 105.8 192 105.9 189.6 106 190.2 106.1 186.4 106.2 186.6 106.3 185.6 106.4 184.7 106.6 183.2 106.6 183.8 106.7 184.4 106.9 182.6 107 185.3 107.2 181.6 107.3 178.2 107.3 178.3 107.4 176.7 107.6 178.4 107.7 173.7 107.7 174.5 107.8 174.6 107.9 171.5 108 173.1 108.1 177 108.3 176.4 108.4 172.5 108.6 174.3 108.8 172.8 108.9 178.8 108.9 183.8 108.9 183.9 109 183.6 109.2 184.4 109.4 182.6 109.6 179.9 109.9 183.5 110.1 182.3 110.3 183.2 110.7 185.9 111 186.2 111.4 184.5 111.9 182.6 112.5 184.9 113.1 182.8 113.6 184.5 113.9 180.6 114 179.3 114.2 179.3 114.6 179.9 114.9 177 115.2 180.8 115.6 179.1 116.1 180.2 116.6 179.4 117 176.7 117.2 175.9 117.4 174.2 117.7 174.3 117.9 170.9 117.9 168.3 118 166.9 118.1 170 118.3 168.1 118.5 166.6 118.7 168.7 118.9 167.1 119.1 171.4 119.3 172.8 119.4 176.6 119.5 177 119.7 175.8 120 176.9 120.4 176.6 120.7 179.1 120.9 180.9 121.2 178.9 121.4 182.4 121.5 182.3 121.7 181.8 122 180.6 122.4 182.1 122.6 183.7 122.7 184.2 122.9 185.8 123.1 184.2 123.3 184.5 123.6 185.4 123.8 180.2 124.1 180.9 124.3 179 124.5 179.2 124.8 182 125 179.8 125.4 181.3 125.9 181.3 126.3 179.5 126.8 179.9 127.2 179.2 127.5 180.2 127.9 179.4 128.5 177.5 128.9 178 129.5 178.1 130 176.6 130.5 178.3 131.2 179.9 131.8 179.6 132.6 179.2 133.3 181.1 133.7 181.3 134.1 182.5 134.4 183.3 134.8 183.4 135.2 183.4 135.6 185.6 136 186.2 136.4 185.1 136.8 184.4 137.2 185.7 137.7 185.9 138.1 185.1 138.5 184.7 139 185.2 139.6 185.9 140.1 187.5 140.3 188.1 140.7 188 141.2 189.4 141.5 191.2 141.8 190.6 142.3 190.5 142.7 191.3 143.1 190.8 143.5 189.2 144 188.1 144.4 188 145 187.2 145.6 186.7 146.3 187.3 147 186.8 147.5 184.5 147.9 183.9 148.5 184.2 148.9 183.8 149.2 183.6 149.6 185.6 149.9 184.4 150.3 181.8 150.4 179.7 150.7 181.4 151 179.5 151.3 177.6 151.6 176.4 151.8 175.9 152 176 152.2 173.2 152.3 172.8 152.5 174.7 152.7 174.7 152.8 180.3 152.8 179.4 152.9 177.9 153 176.9 153 171.9 153.1 171.9 153.1 173.6 153.2 169.9 153.4 169.5 153.5 168.4 153.5 165.4 153.6 166.1 153.7 165 153.8 167.6 153.9 170.9 154 171.7 154.2 169.1 154.4 165.8 154.6 167.7 154.8 164.1 154.9 161 155 157.6 155 164.3 155 163.9 155.2 165.1 155.3 164.8 155.5 166.5 155.8 164.7 156.1 167.1 156.3 169.8 156.6 169 157.1 168.4 157.5 168.1 158 169.7 158.5 170 159 172.7 159.5 173.1 159.9 174 160.4 175.1 160.9 173.5 161.3 173.6 161.6 175.5 162.2 176 162.6 177.7 162.8 177.8 163.4 179.3 163.9 177.8 164.4 177.7 165.1 177.4 165.5 178.7 166.2 180.1 167 179.1 167.6 180.6 168.2 178.7 168.7 180.1 169.3 181.8 169.9 183.1 170.3 182.1 170.8 183.5 171.3 183.4 171.7 182.5 172.2 183.1 172.6 182 173.1 181.5 173.6 183 174 184.7 174.4 184.9 174.9 183.9 175.5 184.2 175.9 182.8 176.2 181.9 176.7 183.1 177.2 181.4 177.8 182.4 178.3 184.4 178.6 185.1 178.9 185.1 179.4 183.9 179.9 182.2 180.6 182.1 181.3 183.4 182.1 182.2 182.9 179.8 183.4 180.2 184.3 180.4 185 180 185.6 179.4 186.2 177.9 186.8 177.2 187.4 176.9 188 176.2 188.6 173.8 188.9 172.8 189.2 170.1 189.4 173.1 189.7 172.3 189.9 170.5 190.2 170.7 190.6 168.6 190.9 169.3 191.2 168.4 191.4 165.5 191.4 162.9 191.6 162.8 191.7 161.3 191.9 160.7 192.1 162.6 192.3 162.3 192.5 162.2 192.8 162.8 193 166.2 193.2 169.2 193.4 171 193.6 169.8 193.8 172.8 194 170.6 194.1 169.3 194.2 171.3 194.4 174 194.7 172.1 195 171.5 195.3 170 195.6 170.5 196.1 172.4 196.6 171.4 196.8 168.6 197.1 168.3 197.6 168.1 197.8 167.1 198.1 168.9 198.6 168.9 199 169.3 199.4 171.2 199.6 172.8 199.7 173 200 175.1 200.2 174.2 200.5 174.8 200.8 176.1 201.1 176.1 201.4 177.6 201.8 175.9 202.3 176.5 202.6 177.3 203 176.9 203.3 177.2 203.6 176.4 204.1 176.6 204.4 175.6 204.9 174.5 205.4 176.5 205.8 177.1 206.4 178.1 207 176.6 207.5 177.5 207.9 178 208.4 177.8 209 179.4 209.4 180.9 209.8 179.5 210.4 179.7 210.7 180.7 211.1 181.8 211.5 182.2 211.9 181.8 212.5 180.3 213.2 182.2 213.8 181.2 214.4 182.1 215.1 181.2 215.7 181.4 216.3 179.9 216.5 180.2 216.8 182 217.2 182.6 217.6 180.2 218 179.2 218.6 177.7 218.9 175.7 219.3 175 219.8 175.5 220.2 173.6 220.7 174 221.4 176 222 177.9 222.4 173.8 223 172.6 223.4 173.8 223.8 172.8 224.4 174.5 225 176.7 225.5 177.5 225.9 175.2 226.4 175.5 227 174.2 227.6 174 228.2 175 228.8 176.8 229.2 176 229.7 176.6 230.1 176.3 230.6 176.9 231 177.5 231.4 177.1 231.7 176.5 231.9 177.1 232.2 174.6 232.4 174.7 232.7 175.6 233.1 175.7 233.5 175.4 233.8 173.5 234.1 172.4 234.5 175.2 234.7 179.9 234.9 180.4 235.1 179.7 235.4 178.6 235.7 178.6 235.9 177.5 236.2 176.2 236.5 177.6 236.8 178 237.3 177.9 237.7 176.1 238 176.9 238.5 176.4 239 176.9 239.4 177.6 239.8 178.1 240.2 178.1 240.6 180.2 240.9 180.1 241.4 180.1 241.8 181.3 242.2 182.8 242.6 183.4 243.1 182.9 243.6 183.2 243.9 185.4 244.1 184.4 244.5 183.6 244.8 182 245.2 181.4 245.6 182.3 246.1 183.6 246.5 183 247 184.1 247.6 183.6 248.1 183.3 248.7 183.9 249.2 182.4 249.6 182.7 250 180.4 250.5 181.2 251 184.1 251.3 186.7 251.5 184.4 251.9 184.2 252.4 184.9 253 185.5 253.4 184.9 253.9 183.8 254.3 182.4 255 183.7 255.6 184.4 256.1 184.7 256.8 183.9 257.4 182.9 258.1 184.2 258.5 182 258.8 180.9 259.2 180.4 259.4 182.5 259.5 185.3 259.7 183.6 260 187.3 260 188.2 260.1 187.3 260.3 187.8 260.5 189.4 260.7 188.1 260.9 190.2 261.1 192.3 261.1 195.1 261.1 193.9 261.2 192.7 261.4 190.8 261.7 193.1 261.9 194.1 262.1 191.8 262.3 192.9 262.6 193.9 262.9 190.9 263.2 190.7 263.6 192 264 192.7 264.5 192.5 265 193.1 265.5 194.2 266.1 193.4 266.6 191.4 267.1 190.4 267.8 189 268.4 188 268.9 188.5 269.5 187.2 270.1 186.8 270.6 187.3 271 188.8 271.4 186.5 271.8 186.2 272.1 185.3 272.5 185.4 273 184.5 273.5 185.4 274 184.6 274.5 184.5 275 187.6 275.4 187.8 275.9 188.3 276.2 186.5 276.7 189.1 277.3 190 277.7 191.9 278.2 192.9 278.8 192.9 279.4 192.7 279.9 192.7 280.6 191.1 281.2 190.9 281.7 190 282.3 189 282.7 188.3 283.2 189.7 284 188.9 284.6 191.4 285.2 191.5 285.7 192.5 286.3 188.5 286.7 189.6 287.1 191.8 287.5 187.3 287.8 186.6 288.2 189.1 288.8 188.8 289.4 188.9 289.9 190.1 290.4 188.2 290.9 185.5 291.2 183.7 291.4 182.2 291.6 180.9 291.9 178.7 292.1 180.7 292.3 178.6 292.6 182 293 181.1 293.4 182 293.9 181.1 294.4 181.8 294.9 183.4 295.5 183.5 296 184.7 296.8 182.9 297.4 182.1 298 184.7 298.8 182.7 299.2 182.1 299.6 182.9 300 180.7 300.4 183.2 300.9 183.4 301.4 184.2 301.8 183.8 302.1 186.7 302.4 187 302.7 183.9 302.9 181.3 303.1 178 303.4 179.3 303.5 180.9 303.8 180 304.2 179.2 304.7 179.5 305.2 180.1 305.8 181.3 306.3 183.6 306.9 184.8 307.3 185.2 307.7 187.3 308.2 187.3 308.4 190 308.5 191.2 308.7 191.6 309 192.9 309.2 193.1 309.5 192.6 309.8 193.3 310.1 191.9 310.5 190.8 311 191.2 311.4 189.7 311.9 189.1 312.4 189.7 313 187.2 313.4 184.7 313.6 182.9 313.9 183.3 314.1 184.8 314.4 180.9 314.5 185.4 314.7 184.8 314.9 184.7 315 185.7 315.2 183 315.4 184.6 315.6 188.5 315.7 186 315.9 188 316.1 184.9 316.2 181.5 316.4 182.5 316.6 181.9 316.8 182.7 316.9 184.9 317.1 183.5 317.4 181.2 317.7 184.2 317.9 187 318.3 187.7 318.4 192.5 318.6 190.9 318.8 188.6 319.2 188.7 319.5 186.5 319.8 185.2 320.2 185.3 320.8 187 321.4 182.8 321.8 181.7 322 179.2 322.3 182 322.7 181.9 323.2 179.1 323.6 181.2 324.1 178.9 324.5 176.2 324.6 172.8 324.6 169.6 324.7 167.8 324.8 164.8 324.8 163.7 324.9 160.9 324.9 158.4 324.9 156.6 325 155.7 325 155.3 325 152.3 325 154.3 325.1 152.9 325.1 150 325.1 146.4 325.2 146 325.2 145.7 325.2 149.6 325.3 151.1 325.4 151.4 325.4 155 325.5 155.7 325.6 154.2 325.7 153.6 325.8 154.2 325.9 153.7 326 154.8 326.1 153.7 326.3 153.5 326.5 154 326.6 151.3 326.6 150.4 326.7 154.1 326.9 151.5 327 151.3 327.1 147.7 327.2 144.7 327.2 145.1 327.3 142.5 327.3 142.2 327.4 143.8 327.5 141.3 327.6 140.9 327.6 144.2 327.8 144.7 327.9 146.8 328 143.8 328.1 143.8 328.2 143.7 328.4 147.1 328.6 148.3 328.7 144.5 328.9 145 329 145.2 329.2 145.3 329.3 141.9 329.5 144.2 329.6 143.8 329.8 143.5 330 146.4 330.2 146.4 330.4 141.8 330.4 139.1 330.5 138.1 330.5 134.7 330.5 134.7 330.5 131.1 330.5 130.9 330.6 131.5 330.7 131 330.7 134 330.9 131.6 330.9 128.8 331 129.2 331 132.1 331.1 132.4 331.2 130 331.3 132.1 331.3 136.1 331.4 135.9 331.6 137.1 331.7 137.5 331.9 138.4 332 140.3 332.1 139.5 332.3 139.2 332.4 140.4 332.5 145.1 332.6 143.4 332.8 143.8 332.9 142.3 333.1 139.7 333.3 139 333.5 136.3 333.6 133.8 333.7 132.4 333.8 133 334 133.1 334 134.5 334.1 134.6 334.1 140.7 334.1 144.4 334.2 147.6 334.2 147.6 334.2 143.9 334.3 147.6 334.3 150.8 334.3 153.4 334.3 148.4 334.4 148.9 334.5 146.5 334.7 147.5 334.8 146.6 335 146.1 335.2 146.3 335.3 143.1 335.6 142 335.7 144.1 335.9 141.4 336 139.9 336.1 136.8 336.2 140.9 336.3 138.2 336.5 140 336.6 141.9 336.8 141 337 141.3 337.2 140.1 337.4 139.2 337.5 138 337.7 138.2 337.9 139.2 338.2 138.3 338.3 134.8 338.5 136.2 338.6 139.2 338.8 141.9 339.1 139.2 339.3 137.4 339.4 136.1 339.6 135.1 339.7 132.3 339.8 132.7 340 130.6 340 129.4 340.2 132.6 340.3 128.4 340.3 128.4 340.4 130.3 340.5 125.6 340.6 129.8 340.7 128.1 340.8 129.9 341 129.9 341.2 129.9 341.3 125.8 341.5 125.4 341.5 126.3 341.6 124.2 341.7 127.8 341.9 124.4 341.9 123.4 342 119.3 342 117.1 342 115.4 342 117.2 342.1 118.3 342.1 120.9 342.2 120.5 342.3 119.6 342.4 119.1 342.4 119.3 342.5 121.9 342.6 121.7 342.7 121.9 342.7 117.5 342.8 119.3 342.9 122.2 343 124.7 343.1 124.1 343.2 126.1 343.3 123.8 343.4 125.3 343.6 126.4 343.7 131.2 343.8 130.1 343.8 130.2 343.8 132.4 343.8 134.3 343.8 134.7 343.9 137.3 343.9 138.5 343.9 139.5 343.9 138.7 344 136.7 344.1 138.6 344.1 143.4 344.1 145.3 344.1 145.2 344.2 145.8 344.2 145.6 344.2 146.1 344.3 148.4 344.3 149.2 344.3 149.7 344.4 149.3 344.4 152.7 344.4 149.2 344.4 150 344.4 148.4 344.5 149.1 344.5 147.1 344.5 147.4 344.6 146.2 344.6 141.3 344.6 142.8 344.7 144.2 344.8 146 344.8 148.2 344.9 148.7 345 149.9 345 148.1 345.1 144.6 345.1 141.4 345.2 143.6 345.2 142 345.3 145.2 345.4 143.3 345.5 146.3 345.7 147.2 345.8 149.6 345.9 150.7 346 152.8 346.1 155.6 346.1 156.1 346.2 156.1 346.3 151.3 346.4 149.4 346.5 150.1 346.5 145.1 346.6 145.8 346.7 144.8 346.8 147.7 347 147.5 347.1 148.5 347.3 148.1 347.5 151.2 347.7 150.8 347.8 150.1 348 151.3 348.2 150 348.4 151.1 348.5 151.7 348.7 151.3 348.8 149.3 348.9 145.6 348.9 150.8 349 149.5 349 152 349.1 152.8 349.2 148.2 349.3 146.7 349.4 148.3 349.6 150.8 349.7 153 349.9 151.3 350 148.9 350.2 151.1 350.4 152.4 350.5 151.9 350.5 159.1 350.5 161.8 350.6 159.3 350.6 161.7 350.6 159.5 350.6 165.7 350.6 172.2 350.6 167.8 350.6 166.3 350.6 165.8 350.7 165.3 350.7 175.7 350.7 173.7 350.7 170.5 350.7 168.3 350.7 166.1 350.7 166.3 350.7 165.9 350.8 166 350.8 168 350.8 170.2 350.8 170.8 350.8 174 350.9 170.6 350.9 172.3 350.9 177.9 350.9 183.2 350.9 191.5 350.9 193 350.9 181.9 350.9 188.1 351 204.5 351 207.4 351 200.2 351 194.3 351 197.8 351 209.8 351 212.2 351 209.5 351 217 351 231.3 351 228.5 351 231.5 351 238.6 351 244.4 351 241.3 351 247 351 264.2 351 275.5 351 282.6 351 277.4 351 285.4 351 293 351 301.3 351 313.9 351 323.4 351.1 324.7 351.1 331.9 351.1 351.3 351.1 369.5 351.1 368 351.1 382.3 351.1 391.8 351.1 399.7 351.1 430.5 351.1 437.4 351.1 426.4 351.1 420.2 351.1 399.3 351.1 387.1 351.1 350.2 351.1 325.2 351.1 344.4 351.1 333.2 351.1 311.7 351.1 326.5 351.2 324.9 351.2 321.9 351.2 323.2 351.2 321.9 351.2 331.9 351.2 327.5 351.2 329.5 351.2 320.3 351.2 325.3 351.2 318.1 351.3 325.8 351.3 315.7 351.3 318.6 351.3 312.6 351.3 309.4 351.3 313.4 351.3 304.8 351.3 302.9 351.4 301.4 351.4 302.1 351.4 302.7 351.4 307.7 351.4 303.7 351.4 303 351.4 305.5 351.4 311.1 351.4 308.8 351.5 299.7 351.5 293.1 351.5 289.5 351.5 288.7 351.5 278.4 351.5 275.3 351.5 265.2 351.5 263.6 351.6 267.7 351.6 267.9 351.6 262.3 351.6 258.3 351.6 254.4 351.6 261.6 351.6 263 351.6 264.2 351.6 254.4 351.7 258.7 351.7 261.1 351.7 252.8 351.7 247.4 351.7 257.6 351.7 258.8 351.7 259.5 351.7 258.9 351.7 258.8 351.8 257.1 351.8 262.6 351.8 258.5 351.8 260.7 351.8 253 351.8 257.3 351.8 257.5 351.8 258.6 351.8 260.8 351.8 265.8 351.8 263.2 351.9 264.6 351.9 264.1 351.9 264.4 351.9 263.3 351.9 263.8 351.9 264.1 351.9 264.7 351.9 265.5 351.9 266.9 351.9 269.3 351.9 279.2 351.9 287.6 351.9 297.1 351.9 311.2 351.9 294.9 351.9 279.6 352 280.6 352 279.2 352 281.4 352 272.2 352 272.7 352 274.3 352 278.1 352 273.1 352 270.3 352 270.7 352 273.3 352 271 352 269.7 352 269.9 352 267.4 352 268.2 352.1 264.1 352.1 263 352.1 266.5 352.1 265.6 352.1 264.9 352.1 266.2 352.1 270.1 352.1 267.4 352.1 265 352.1 265.5 352.2 264.6 352.2 270.1 352.2 269.1 352.2 269.9 352.2 271.8 352.2 272.6 352.2 274.7 352.2 273 352.2 272.7 352.2 280.2 352.2 275.9 352.2 275.9 352.3 278.6 352.3 276.6 352.3 278.7 352.3 281.9 352.3 282.1 352.3 282.6 352.3 283.9 352.3 286.7 352.3 285.9 352.3 289.4 352.4 288.2 352.4 287.9 352.4 282.9 352.4 286.4 352.4 288.2 352.4 289.2 352.4 286 352.4 285.6 352.4 282.7 352.4 281 352.5 279.8 352.5 284.2 352.5 285 352.5 281.1 352.5 280.8 352.5 279.1 352.5 274.8 352.5 275.6 352.6 276.5 352.6 279.4 352.6 279.9 352.6 277.7 352.6 276.5 352.6 279.3 352.6 278.6 352.7 277.3 352.7 273.9 352.7 272.6 352.7 271.7 352.7 269.8 352.7 267.4 352.8 266.8 352.8 268.4 352.8 269.1 352.8 269.7 352.8 268.2 352.8 267.9 352.8 266.1 352.9 268.5 352.9 268 352.9 267 352.9 268.4 352.9 266.6 352.9 262 353 262 353 260.6 353 263 353 262.9 353 264.2 353 263.7 353 266.3 353.1 264.8 353.1 265.3 353.1 266.6 353.1 266 353.1 266.6 353.1 265.6 353.1 268.4 353.2 268.8 353.2 268 353.2 270.6 353.2 269.8 353.2 270.3 353.3 268.2 353.3 268.6 353.3 267.9 353.3 267.3 353.4 266.8 353.4 267.2 353.4 263.7 353.5 265.3 353.5 263.1 353.5 260.2 353.6 259.9 353.6 259.5 353.6 260.6 353.6 260.9 353.7 259.6 353.7 256.7 353.7 257.2 353.8 256 353.8 255.2 353.8 255.6 353.8 252.5 353.8 251.8 353.9 256.6 353.9 255.4 353.9 255.2 353.9 256.2 353.9 257.6 354 259.4 354 261.1 354 263.4 354 264.9 354 264.7 354.1 267.6 354.1 268.7 354.1 267.1 354.1 266.9 354.1 268.6 354.2 267.6 354.2 270 354.2 266.8 354.2 265.6 354.3 268.8 354.3 267 354.3 263.8 354.4 262 354.4 265.4 354.5 268.8 354.5 269.1 354.5 273.3 354.5 272.1 354.5 271.5 354.6 266.3 354.6 268.7 354.6 268 354.7 265.5 354.7 265.3 354.8 263.6 354.8 265.9 354.8 267.2 354.9 266 354.9 265.6 355 266 355 264.2 355.1 265 355.1 264.6 355.2 265.7 355.2 265.5 355.3 267.7 355.3 269 355.4 269.3 355.4 270.9 355.5 270.6 355.5 271.6 355.5 269.6 355.6 272.5 355.7 272.5 355.7 273.7 355.8 273.3 355.9 273.4 355.9 273.3 356 271.4 356 268.7 356.1 270.1 356.2 272.3 356.2 271 356.3 272.7 356.4 271.1 356.4 266.9 356.5 265.2 356.5 263.2 356.5 266.5 356.6 264.7 356.7 264.2 356.7 260.6 356.8 261.4 356.8 261.3 356.9 257.6 357 255.5 357 255.4 357.1 252.8 357.1 252.2 357.2 249.5 357.2 250.9 357.3 250.1 357.3 250.5 357.4 249.9 357.4 246.8 357.4 244.8 357.5 247.3 357.5 250.6 357.6 249.5 357.7 252.7 357.7 256.5 357.8 257.6 357.8 259.4 357.9 258 357.9 259.8 358 261.6 358 260.2 358.1 260.4 358.2 260 358.3 259.6 358.4 258.4 358.4 255 358.5 255.8 358.6 256.6 358.7 253.6 358.7 251.8 358.8 253.7 358.8 252.7 358.9 252.8 359 253.7 359.1 253.3 359.2 253.1 359.2 254.5 359.3 254.4 359.4 256.3 359.5 256.1 359.6 254.7 359.7 254.7 359.8 251.2 359.9 251.8 360 255 360.1 254.9 360.1 254.7 360.2 256.3 360.3 259 360.4 259.7 360.5 261.4 360.6 260.7 360.6 260.8 360.7 261.8 360.8 258.7 360.9 259.8 361.1 259.3 361.1 260.4 361.2 259.5 361.3 258.1 361.4 256.3 361.6 256.3 361.7 253.9 361.8 255 361.9 256.1 362 257 362.2 259.1 362.3 259.6 362.4 258.5 362.5 257.2 362.7 256.4 362.8 258.4 362.9 258.9 363.1 258.8 363.2 259.7 363.3 260.3 363.4 262 363.5 261.5 363.7 258.5 363.7 258 363.9 256.6 364 258.7 364.1 257 364.2 255.2 364.3 255.7 364.5 256.8 364.6 253.7 364.7 252.6 364.8 257.5 364.8 258.6 365 257.7 365.1 258.5 365.2 257.1 365.4 257.8 365.5 260.8 365.7 260.8 365.8 260.6 366 260 366.1 262 366.2 258.5 366.4 259.6 366.6 261 366.8 260.5 366.9 260.8 367.1 262 367.2 263.4 367.3 261.4 367.5 262 367.7 259.9 367.9 261 368 262.1 368.2 263.9 368.4 261.7 368.5 261.9 368.7 263.4 368.9 266.1 368.9 267.1 369.1 264.8 369.3 265.4 369.4 263.4 369.6 264.1 369.7 268.3 369.7 270.1 369.8 269.5 370 268.2 370.1 266.3 370.1 265.9 370.2 267.5 370.2 268 370.3 269 370.3 268.6 370.4 269.6 370.4 268.6 370.5 269.1 370.5 269.1 370.6 271 370.6 270.5 370.7 271.5 370.9 270.7 371 268 371.1 270.7 371.2 270.7 371.4 268.7 371.5 267.3 371.6 265.4 371.8 266 371.9 265.8 372 267.5 372.2 268.5 372.4 269.6 372.6 269.3 372.7 268.4 372.9 267.7 373.1 269.3 373.2 271.2 373.4 271.8 373.6 269.9 373.8 268.8 374 267.2 374.2 264.6 374.4 266.6 374.6 266.1 374.8 264.4 375 264 375.2 264.2 375.4 262.5 375.7 263.6 376 264.8 376.1 267.2 376.2 271 376.4 273.2 376.5 273.2 376.6 274 376.7 276.8 376.8 275.6 377 276.4 377 278.6 377.1 278.2 377.2 279.5 377.3 280.9 377.4 280.5 377.6 280 377.7 281.6 377.7 283.7 377.8 284.8 377.9 285.2 378 284.7 378.2 285.7 378.3 287.1 378.4 287.6 378.4 291 378.5 291.4 378.6 289.7 378.6 285.4 378.7 281.7 378.8 282.1 378.9 284.3 379.1 282.9 379.3 280.5 379.5 280.9 379.7 280 380 278.1 380.2 276.9 380.4 278.1 380.7 278.6 380.9 277.9 381.2 278.3 381.5 279.5 381.8 280.3 382 280.5 382.2 283.1 382.4 280.9 382.6 282.5 382.8 285.5 383 284.5 383.2 282.7 383.5 283.6 383.7 280.9 383.9 282.3 384.1 285.6 384.4 282.8 384.7 279.8 385 283.7 385.3 281.4 385.5 281 385.8 278.6 386 277.7 386.3 278.3 386.6 277 386.9 275.7 387.2 276.5 387.5 276.2 387.9 277.5 388.3 276.1 388.8 275.2 389.1 273.1 389.4 271.6 389.8 270.1 390.1 268.7 390.3 269.8 390.6 272.3 391 272.1 391.3 271.3 391.7 271.4 392 271.1 392.2 273.6 392.5 274.4 392.8 276.9 393.1 275.1 393.3 272.5 393.6 273.3 394.1 271.7 394.5 271.7 395 270.7 395.4 271.3 395.7 270.2 396.1 271.7 396.5 270.8 396.9 268.3 397.2 270.8 397.4 273.3 397.7 274.4 398.1 272.2 398.4 274.9 398.7 276.2 398.8 269.7 398.8 267.1 398.8 267.6 398.9 263.9 398.9 264.2 398.9 263 399 265.5 399 267.7 399.1 265.5 399.1 262.3 399.2 261.9 399.2 262.7 399.3 261.1 399.4 260.3 399.4 261.2 399.5 262.5 399.6 263.6 399.7 265.3 399.8 264.9 400 261.3 400.2 260.5 400.3 257.7 400.3 258.8 400.4 259.6 400.6 260.8 400.7 262.3 400.8 259.3 401 258.2 401 255.9 401.1 258.3 401.2 258.1 401.4 257.3 401.5 256.1 401.7 257.1 401.9 257.5 402.2 256.4 402.3 257.7 402.6 258 402.9 255.3 403.1 256.9 403.4 258.7 403.8 255.5 404.2 254.6 404.3 251.4 404.5 252 404.8 251.5 405 250.2 405.2 249.6 405.4 248.1 405.6 248 405.8 247.6 405.9 251.8 406.2 249.5 406.4 252.3 406.5 255.5 406.6 256.6 407 256.4 407.2 255.3 407.3 255.1 407.5 258.7 407.7 257.8 408 257.7 408.3 259.5 408.5 260.9 408.8 258.6 409.2 260.4 409.4 260.2 409.7 258.5 409.9 259.7 410 259.9 410.2 260.7 410.5 260.4 410.7 261.3 410.8 263 411 259.3 411.2 257.2 411.3 257 411.6 257.2 411.8 257.9 412 257.5 412.2 259.3 412.6 258.6 413 257.5 413.2 254.9 413.4 255.4 413.7 258.4 414 257.9 414.4 260 414.6 261.5 414.9 262.3 415.2 261.1 415.4 263.1 415.5 266.7 415.7 267.3 415.8 267.9 415.9 269.1 416.1 267.9 416.4 266.8 416.6 266.1 416.9 264.4 417 264.5 417.3 265.5 417.5 264.5 417.7 263.7 417.9 262.8 418 263 418.3 263.1 418.4 265.6 418.7 264.5 419 263.2 419.3 262.1 419.5 262.8 419.7 260.9 419.9 261.9 420.1 263.7 420.4 260.7 420.8 260.5 421.1 261.4 421.3 259.8 421.6 262.7 422 263.4 422.1 265.1 422.2 263.8 422.4 266.4 422.6 269.7 422.6 274.7 422.6 270.1 422.8 270.2 423 269.2 423.2 270.5 423.4 265.2 423.6 267.4 423.8 264.3 424 265.4 424.3 266.6 424.5 266.5 424.8 267 424.9 261.8 424.9 260.8 425 264.2 425 265.6 425.1 264.2 425.2 263.9 425.3 260.7 425.5 260.7 425.6 263.1 425.7 264.9 425.9 266.8 426 268.7 426.1 269.2 426.3 267 426.4 269.3 426.6 269.3 426.8 268 427 265.7 427.2 264.4 427.5 264.5 427.7 262.2 427.9 261.2 428.1 262.8 428.3 260.2 428.5 264 428.8 260.3 429 259.2 429.2 260.2 429.4 258.6 429.7 257 429.9 258.4 430.1 255.7 430.2 255.2 430.5 256.4 430.7 254.8 430.9 255.4 431.2 257.8 431.5 256.4 431.6 254.7 431.9 254.3 432.2 254.4 432.4 254 432.8 253.4 433 253.7 433.4 251 433.6 251.5 433.9 249.8 434.2 252.8 434.5 255 434.9 253.5 435.2 251.3 435.6 253.5 435.9 254.9 436.4 254.4 436.8 257.1 437.2 257.9 437.4 254.9 437.7 253.7 437.9 254.8 438.2 256.4 438.5 256.1 438.9 256.4 439.3 259.2 439.6 259.9 439.9 257.5 440.3 258.7 440.5 259.3 440.8 260.5 441 261.5 441.4 262 441.8 262.6 442 263.9 442.3 265.8 442.5 266.9 442.7 266.8 442.9 264.6 443.1 264.3 443.4 269.3 443.5 271.5 443.7 271.5 443.9 270.3 444.2 271.6 444.4 272.1 444.5 276.1 444.5 276.4 444.7 277.2 444.8 280.3 444.8 282.9 444.8 281.6 444.9 280 445 278.2 445.1 279.4 445.3 279.5 445.5 279.4 445.7 278.9 445.8 280.7 446 279.8 446.2 278.8 446.3 278.4 446.5 280 446.7 277.4 446.9 275.9 447.2 276.9 447.5 275.3 447.8 274.9 448.1 274.2 448.3 278.3 448.5 277.4 448.8 279.4 448.9 280.1 449.1 281 449.2 284 449.2 280.2 449.4 283.1 449.7 281.5 449.9 279.1 450.1 277.9 450.4 278.7 450.8 280.5 451 281.6 451.3 284.4 451.5 284.9 451.8 284.3 452.1 283.3 452.4 284.8 452.5 281.6 452.6 285.9 452.7 283.9 452.8 284.7 452.9 281 453 281.4 453.2 281.5 453.4 278.4 453.4 276 453.6 278.3 453.8 279.5 454 276.5 454.2 278.4 454.5 279.9 454.8 276.6 455 276.5 455.2 274.2 455.3 271.7 455.5 273.2 455.7 271.5 455.8 268.9 455.9 271.5 456 271.3 456.3 269.6 456.5 273.9 456.6 272.9 456.8 268.2 457 269.4 457.3 269.9 457.6 267.9 457.8 267.5 458.1 266.3 458.5 268 458.7 265.5 458.9 263.6 459.2 263.4 459.4 263 459.6 266 459.6 266 459.7 268.4 459.8 266.3 459.9 263.5 460.1 263 460.3 263 460.7 263.2 461.1 261.7 461.5 263.9 461.9 264.4 462.4 260.6 462.9 261.9 463.5 263.3 464 262.4 464.6 264.6 465 265.7 465.2 265.1 465.5 265.4 465.9 266.4 466.4 266.6 466.9 265.8 467.2 263.7 467.6 262.1 468 262.1 468.4 263.9 468.9 265.6 469.4 266.5 469.9 263.1 470.4 262 470.9 261.8 471.4 261.8 471.8 262.1 472.2 263.7 472.6 261 473.1 261.1 473.8 260.8 474.2 258.9 474.3 258 474.4 254.7 474.6 256.8 474.9 259.4 475.3 262.1 475.6 263.8 476 263.5 476.5 262.5 477 262.6 477.5 263.9 477.7 265.4 478.2 264.7 478.7 266.1 479 266.5 479.5 266.1 479.9 267.7 480.2 263.6 480.3 266.3 480.5 270.6 480.5 269.2 480.7 266.5 480.9 265.6 481.2 266.5 481.5 269.1 481.8 271.5 482 268.7 482.2 272.1 482.4 272.3 482.6 274.6 482.8 276 483 275.1 483.2 275.5 483.5 275.9 483.7 276.6 484.1 277.4 484.4 278.6 484.6 277.4 484.9 276.2 485.3 275 485.7 274.9 486.2 274.2 486.6 274.3 487.3 275 487.8 274.5 488.2 278.8 488.4 275.1 488.8 276.3 489.2 276.8 489.7 276.2 490.2 275 490.8 274.6 491.3 273.4 491.8 273.4 492.3 272.3 492.6 271.5 493 271.9 493.5 271.2 493.9 270.5 494.4 268.7 494.7 269.7 495.3 271.3 495.9 272.1 496.1 272.4 496.7 273.3 497.2 274 497.7 275.3 498.2 276.3 498.6 275.8 499 277.3 499.5 275.2 500 273.3 500.5 273.2 500.9 274.6 501.5 274.8 502.1 277 502.7 275.6 503.2 278 503.2 281.6 503.3 284.3 503.4 280.9 503.4 275.1 503.5 274 503.6 273.6 503.9 272.1 504.1 270.3 504.5 271 505 272.5 505.6 273.1 506 269.7 506.3 270.8 506.4 268.4 506.7 269.3 506.9 267.9 507.2 269.7 507.6 270.3 507.9 268.9 508.1 271.2 508.4 272.4 508.5 274.6 508.7 274.7 508.8 276.3 509.1 271.3 509.2 271.6 509.5 273.8 509.7 274.1 510 277.3 510.1 278.8 510.3 280.6 510.4 283.4 510.4 283.9 510.5 286.2 510.6 287.8 510.7 287.6 510.7 287.8 510.8 285.7 510.9 286.4 511 287.6 511.1 285.2 511.3 287.6 511.4 284.8 511.6 284.7 511.8 281.4 511.9 283.8 512.1 283.3 512.3 284.1 512.6 286.2 512.9 286.7 513.1 289.1 513.4 289 513.7 286.6 513.9 287.6 514.2 287.1 514.4 289.7 514.6 290.8 514.7 291.6 514.8 293.1 515 292.5 515.2 290.8 515.5 290.8 515.8 291.1 515.9 291.6 516.2 290.9 516.5 293.2 516.9 289.2 517.3 288.3 517.9 288.7 518.4 289.3 519 288 519.5 287.2 520 285.2 520.4 284.9 520.7 285.3 521.1 281.6 521.4 283.7 522 285.5 522.5 286.1 523.2 284.3 523.9 285 524.5 285.1 525.2 285.4 525.9 287 526.5 287.8 527 288.3 527.3 290.9 527.4 294.7 527.4 297.8 527.5 295.8 527.7 297.8 527.7 298.5 527.8 298.7 528 298.6 528 302.5 528.1 302.5 528.2 301.8 528.3 301.6 528.4 302 528.5 305.2 528.6 304.2 528.6 307 528.7 307.5 528.7 307.7 528.8 311.7 528.9 309.1 529 310.9 529 311.2 529.1 311.4 529.2 309.4 529.3 312.4 529.4 311.6 529.4 312.4 529.5 309.8 529.6 311.3 529.8 310.6 530 312.3 530.1 312.8 530.3 311.5 530.5 311.8 530.7 309.9 530.9 305.2 531.1 307.6 531.4 308.8 531.6 310.4 531.8 314.5 531.9 311.9 532.1 312 532.4 309.7 532.6 308 532.7 305.2 532.8 303.2 532.8 301.3 533 301.2 533.2 302.3 533.4 301.9 533.7 301.2 533.9 301.4 534.2 301.4 534.6 299.6 534.9 300.3 535.2 299.9 535.4 297.8 535.5 297.2 535.7 301.2 535.8 295.8 536 297.9 536.2 298.1 536.5 300.4 536.7 301.7 536.8 296.4 537.1 297.5 537.3 297.9 537.6 293.4 537.8 297 538 294.4 538.2 291.7 538.3 290.2 538.5 291.9 538.7 292.6 539 293.7 539.3 292.1 539.6 292.8 540 293.2 540.3 292.3 540.7 290 541.1 290.3 541.4 290 541.8 289.9 542.1 290.4 542.4 292.2 542.9 290.9 543.4 287.8 544 288.9 544.3 287.3 545.1 288.7 545.6 291 546.3 291.3 547.1 292.5 547.8 291.9 548.4 291.3 548.9 290.7 549.7 290 550.1 290.8 550.9 290.5 551.8 290.6 552.3 292.8 552.8 291.9 553.6 290.9 554.5 289.4 555.3 290.1 555.7 286.5 556.2 288 556.7 288.5 557.6 289.9 558.2 288.3 558.9 288 559.7 287.2 560.5 288.6 561.4 287.8 562.3 289.5 562.9 290.4 563.6 291.4 564.3 290 565.3 290.3 566 289.5 566.7 290.5 567.5 286.9 568.2 285.7 569.1 286.4 570 285.3 571 285 571.9 286.5 573.3 285.5 574.9 286.6 575.7 289.1 576.6 288.5 577.6 286.6 578.3 287.6 579 284.9 579.4 283.6 580.1 286 581 286.1 581.8 284.8 582.4 285.2 583.2 285.4 584.1 286.1 584.6 283.3 584.7 288 585.1 288.4 585.6 288.5 586.1 289.2 586.3 284.3 586.4 283.2 586.7 283.8 587 281.2 587.1 280.7 587.4 281.3 587.8 279.9 588 278.9 588.4 279.7 589 279.8 589.6 279.3 590.3 281 590.8 278.1 591.1 276.9 591.2 277.6 591.6 275.5 591.8 276.2 592.3 275.7 592.8 277.1 593.5 277.9 594.2 278 594.7 277.6 594.9 274.9 595.4 277 596 277.7 597 276.7 597.6 276.8 598.7 276.8 599.6 277.4 600.4 277.9 601.2 276.7 602.3 279.7 602.9 281.2 603.2 282.9 603.6 281.6 604 280 604.6 281.4 605.2 282.8 605.8 280.2 606.6 280.5 607.1 276.1 607.3 274.5 607.5 274.3 608.1 275.5 608.7 274.7 609.3 273.4 609.7 272.7 610.1 272.1 610.5 271.3 611 271.9 611.6 273.3 612.2 273.6 612.7 273.5 613.3 274.2 613.8 275.3 614.4 275 615 275 615.4 275.7 616 276.3 616.7 275.7 617.4 274.5 618.1 274.6 618.5 272.4 618.9 272.9 619.4 271.9 619.9 271.6 620.3 272 620.9 272 621.1 277.5 621.2 275.5 621.5 274.8 621.9 275.2 622.2 275.3 622.8 276.5 623.3 276.4 624 275.8 624.9 274.9 625.5 272.4 626.1 272.9 627.1 273.3 628.1 274.9 629.3 274.8 630.1 275.9 630.5 279.1 631 279.3 631.5 280.2 631.9 278.6 632.6 279.6 633.1 281.4 633.8 280.3 634.5 279.9 634.9 284.1 635 284.7 635.3 284 635.6 285.7 635.9 286.1 636.4 284.6 636.8 283.6 637.3 284.1 637.8 283.5 638.3 282.1 638.9 281.5 639.6 282.6 640.2 284.7 640.7 285.8 641.3 285.2 641.9 284.5 642.3 285.5 642.7 282.5 643.3 282.5 643.9 281.5 644.5 279.7 644.8 280 645.2 281.2 645.5 281.7 645.9 281.1 646.2 281.8 646.5 279 646.7 276 646.8 275 647 276.3 647.4 274.2 647.5 271.4 647.6 272.7 647.7 270.5 647.9 270.6 648 268 648.1 269 648.3 269.6 648.5 268.4 648.8 269.3 649 267.5 649.3 267.1 649.6 267.9 649.8 271 649.9 270.4 650.1 269.1 650.2 271.5 650.4 268.6 650.7 267.2 650.9 268.4 651.2 269 651.6 268.5 652.1 268.1 652.6 267.7 653.1 268.7 653.6 271.9 653.9 271.2 654.4 270.4 654.8 275.8 655 273 655.6 271.3 656.1 273.5 656.2 275.4 656.5 273.9 657 275.6 657.3 278 657.6 280.4 657.8 282.2 658 282.6 658.3 283.1 658.5 285.3 658.8 284.2 659.1 282.9 659.5 282.9 659.9 282.5 660.4 280.9 660.9 281.2 661.6 283.2 662.2 281.6 662.7 280.5 663.2 280 663.9 282.3 664.3 284 664.9 283.2 665.6 282.6 666.2 284 666.7 280.4 667.3 282.3 668 283.1 668.6 285.7 669.1 286 669.7 284.3 670.2 285.8 670.6 288.8 670.7 286.2 670.9 282.3 671.4 284.7 671.8 283.7 672.4 282.2 673 281.3 673.4 280.7 673.7 281.8 674 279.1 674.2 280.4 674.5 283.7 674.6 283.3 674.9 284 675.1 280 675.4 282.4 675.7 283.8 676.1 281.9 676.5 282.4 676.9 283.9 677.1 280.5 677.2 278.7 677.4 276 677.5 278.4 677.7 277.6 678 278.3 678.3 276.7 678.6 278.1 679 277.9 679.4 277.1 679.8 275.6 680.2 274.3 680.6 277.3 680.9 277.9 681.3 280.7 681.8 280.7 682.1 285.7 682.2 286.1 682.3 289.8 682.3 287.8 682.5 289.9 682.7 291.8 682.9 291.9 683.3 289.4 683.6 290.1 684 289.7 684.4 287.7 684.8 284.7 685.3 285.4 685.8 283.5 686.3 284.2 686.9 282.2 687.5 283.8 688.3 284.6 689 283.4 689.8 282.5 690.5 283.6 691.2 284.3 691.9 283.3 692.6 281.6 692.8 279.1 693.1 278.5 693.7 279 694.2 280.7 694.8 278.9 695.5 279.1 696.2 280 697 280.1 697.7 279.2 698.4 278.9 699 280.6 699.4 282 699.9 281.6 700.5 281 701.1 278.7 701.5 278.5 701.9 280.5 702.3 278.2 702.8 279.9 703.1 278.6 703.5 276.7 704 277.1 704.7 278.1 705.1 277.2 705.7 275.3 706.1 274.7 706.7 276.8 707.5 279 708.5 279.1 709.6 279.8 710.4 279.7 711.4 278 712.5 277.7 713.4 276.8 714 276.4 714.7 276.1 715.5 273.7 716 272.9 716.6 273.6 717.5 275.3 718.3 272.9 718.8 272.4 719.4 271.5 720.1 271.4 720.7 269.8 721.3 269.9 722 271.2 722.4 269.3 722.8 268.9 723.3 267.8 723.8 269.9 724.5 270.9 725.1 272 726 271.6 726.5 271.1 727 268.4 727.5 266.6 727.5 266 727.5 266.9 727.8 267 728.2 268.2 728.7 268.6 729 269.8 729.4 269.9 729.7 272.2 730 271.7 730.5 272.2 731 270.8 731.6 273.1 732.3 272.5 733.1 270.5 734 269.7 735.1 269.3 736 269 736.7 267.2 737.5 266.5 738.2 265.7 739 266.9 740.2 267.4 741.3 268.9 741.9 267.7 742.6 267.3 743.5 268.4 744.7 268.7 745.6 268.3 746.4 268.4 747.3 269.3 748.3 269.4 749.3 266.8 750.2 268.2 751.6 269.6 752.7 269.8 753.9 268.2 755.4 268.8 756.4 269.5 757.6 268.7 758.8 269 759.8 268.7 761.5 268.3 762.6 266.2 763.9 265.8 765.2 266.4 766.9 266 768.6 266.1 769.8 266.6 771.1 267.9 772.8 268 774.7 267 776 265.8 776.6 264.2 777.6 263.9 778.4 262.9 779.1 261.6 779.3 260.6 779.7 260.9 780.5 261.9 781.4 261.8 781.8 259.4 782.2 258.9 782.7 259.2 783 256.9 783.3 256 783.9 256.6 784.5 257.4 785.1 258.4 785.8 258.7 786.8 257.4 787.6 256.3 788.7 257 790.2 257.4 791.5 257.8 792.7 257.5 793.7 255 793.7 250.9 793.8 252.6 794.1 254.5 794.7 252.6 795.4 254.5 796.1 253.7 796.5 252.6 797.1 253.5 797.8 252 798.5 251.5 799.3 252.9 800.1 254.1 801 253.3 801.9 252.1 802.4 251.8 803.1 252.9 803.8 249.8 804.2 253.6 804.7 254.4 805.1 255.5 805.7 256.7 806.1 256.5 806.4 258.8 806.8 257.9 807.5 258.5 808.1 257.6 808.9 258.1 809.5 257.3 810.4 258.6 811.3 258.7 811.7 261.1 812.1 257.3 812.5 259.6 813 258.2 813.4 255.4 813.5 250.4 813.6 255.1 813.8 251.3 813.9 249.4 814 246.7 814.1 248.2 814.2 247.5 814.3 246.2 814.5 244.8 814.7 247.3 815 247.6 815.2 243.5 815.4 243 815.5 244.2 815.8 243.2 816.2 246.4 816.7 244.3 816.7 246.8 816.9 244.2 817.3 245.8 817.7 245.5 818.1 246.4 818.6 247.7 819.1 247.8 819.4 250.4 819.8 251.6 820.4 252.5 820.9 252.1 821.5 255.1 822 257 822.5 258 823 257.3 823.7 256.4 824.2 255.7 824.7 255.5 825.1 256.1 825.5 254.2 825.8 253.2 826.3 256.6 826.8 257.2 827.2 256.5 827.8 255.1 828.3 254.6 828.8 255 829.4 254.3 830 255.8 830.5 255.8 831 254.3 831.3 248 831.4 244.7 831.4 239.1 831.4 237.9 831.5 236.2 831.5 234.2 831.5 233.1 831.5 234 831.6 234.1 831.6 228.6 831.6 230.4 831.7 229.4 831.7 229.1 831.8 233 831.8 236.6 831.8 240 831.9 237.1 832 237.1 832.1 239.8 832.2 240.2 832.4 241.4 832.5 242.4 832.6 244.3 832.8 244 833 245.3 833.1 248.4 833.2 247.5 833.4 246.6 833.6 245.7 833.8 245.7 834 244.3 834.1 249.1 834.3 248.8 834.6 248 835 246.8 835.4 246.5 835.8 248.2 836.1 248.7 836.4 248.7 836.8 248.1 837.1 247.8 837.4 246 837.9 247.8 838.3 245.9 838.7 244 839 243.9 839.2 246 839.6 245.5 839.7 248.1 839.9 251.3 840 251.4 840.2 252.1 840.3 254.2 840.3 255.5 840.4 256.6 840.5 257.4 840.5 260.3 840.5 263 840.6 260.9 840.6 259.9 840.7 259.8 840.9 259.9 841.1 257.5 841.3 258.8 841.5 259 841.8 257.8 842.1 257.3 842.5 258.5 842.7 257.3 843 256.1 843.3 255.1 843.7 256.3 844.3 254.6 844.7 256.5 845.1 257.8 845.6 257.1 845.8 260 846.1 259 846.4 261.9 846.7 262.4 846.8 262.7 846.9 266.1 847 266.2 847 266.3 847.2 268.6 847.3 264.7 847.6 268.7 847.8 266.8 847.9 270 848.1 269 848.4 266.2 848.8 266.1 849.2 265.5 849.7 264.3 850.3 266.3 850.8 266.5 851.2 267.7 851.8 265.9 852.2 268 852.6 267.7 853 267 853.4 267.4 853.8 268 854.2 266.1 854.7 268.3 855.1 268.5 855.7 268.1 856.2 266.8 856.7 267.1 857.2 266.5 857.6 265.4 858 265.2 858.5 265.1 859.1 264.3 859.6 262.9 860 261.8 860.3 258.9 860.6 260.5 861.1 263.1 861.7 263.5 862 263.4 862.6 263.5 863 261.4 863.4 260.6 863.9 260.9 864.4 260.1 864.9 260.3 865.3 258.3 865.6 258.2 866 256.8 866.3 254.5 866.4 252.6 866.6 252.4 866.8 253.6 867 252.5 867.2 252.8 867.3 256.6 867.4 256.8 867.6 258.3 867.8 259.2 868.1 258.3 868.5 259 868.7 259.4 869.1 260.4 869.2 261.3 869.4 260 869.7 261.9 870 258.8 870.3 260.2 870.7 258.3 871.2 260 871.5 256.9 871.9 256.7 871.9 257.4 872.1 258.5 872.4 258.1 872.6 258.6 872.6 260.4 872.6 260.2 872.6 264.4 872.6 269.9 872.7 267 872.7 268.4 872.7 269.1 872.7 264.4 872.8 263.1 872.8 262.3 872.9 258.4 873 259.4 873.2 257.7 873.3 255.9 873.5 257.1 873.7 260.1 874.1 258.5 874.3 260.2 874.6 258.1 875.1 257.4 875.8 256.7 876.4 255.7 877 255.1 877.7 255.7 878.2 258 878.6 259.6 879 261.9 879.3 259 879.6 258.8 880 259.2 880.4 258.2 880.9 257.4 881.4 258 881.7 256.2 882.3 256.8 882.9 257.9 883.3 258.7 883.6 263.2 883.7 263.4 883.9 265.5 883.9 268.4 884 269.6 884.1 266.2 884.1 264.7 884.3 266.7 884.5 267.5 884.7 267.5 885 267.3 885.3 264.2 885.5 261.6 885.8 260.9 886.2 262.6 886.6 259.3 887 260.4 887.4 259.1 888 259.2 888.5 261.3 889.2 261.8 889.6 264.3 889.9 264.5 890.4 264.3 890.9 265.4 891.4 266.7 891.9 266 892.5 266.6 892.9 266.5 893.1 269.5 893.3 268.8 893.4 270.4 893.6 271 893.7 271.5 893.9 271.5 894.2 274.7 894.4 274.8 894.5 277.9 894.5 279 894.6 277.6 894.8 278.4 894.9 280.1 895 278.8 895.3 280.4 895.4 281.9 895.6 281.7 895.9 279.7 896.1 279.8 896.4 282.9 896.5 283.5 896.8 284.8 897 285.8 897.2 285.3 897.4 283.5 897.7 283.1 898 285.5 898.4 284.2 898.6 286 898.8 286.7 899 287.9 899.2 285.2 899.5 284.1 900 286 900.3 287.8 900.7 288.9 901 287.8 901.3 289 901.5 290.3 901.7 289.9 901.9 289.7 902.2 288.4 902.4 288.1 902.8 286.2 903.3 285.6 903.8 284.5 904.2 283.6 904.7 283.4 905.2 282.6 905.6 282 906 281 906.5 280.6 906.9 280.9 907.2 279.5 907.5 278.3 907.8 276.2 908.2 277.7 908.6 278.1 909 279.9 909.4 279.6 909.8 279.3 910.3 277.6 910.8 278 911.2 275.8 911.5 275.7 911.9 275.4 912.3 276.2 912.9 276.3 913.4 277.4 914.1 277.2 914.8 277.5 915.4 277.3 915.8 276.4 916.5 276 917.2 276.4 918 276 918.9 276.2 919.7 276.4 920.2 273.6 920.7 273.4 921.3 274.6 921.8 272.5 922.2 274.5 922.7 272.4 923 272.2 923.4 271.8 923.7 271.1 924.1 270.9 924.5 270.2 925 271.6 925.6 271.9 925.9 275.5 926.3 275.4 926.6 276 927 274.8 927.6 274.8 928 274.1 928.8 272.2 929.1 269.1 929.5 270 929.9 269.6 930.4 271.4 931 270.3 931.7 271.3 932.9 271.5 934 272.1" opacity=".6"/><text x="942" y="472" fill="#d97706" font-size="11" text-anchor="start">44.85</text><text x="942" y="396" fill="#d97706" font-size="11" text-anchor="start">64.43</text><text x="942" y="320" fill="#d97706" font-size="11" text-anchor="start">84.02</text><text x="942" y="244" fill="#d97706" font-size="11" text-anchor="start">103.61</text><text x="942" y="168" fill="#d97706" font-size="11" text-anchor="start">123.20</text><text x="942" y="92" fill="#d97706" font-size="11" text-anchor="start">142.78</text><text x="942" y="80" fill="#d97706" font-size="11" font-weight="600" text-anchor="start">price</text><polygon fill="#16a34a" fill-opacity=".08" points="342 468 342 119.2 342 118.4 350.5 118.7 351 117.3 351.1 116.6 351.1 116.8 351.3 116.1 351.3 468"/><polyline fill="none" stroke="#16a34a" stroke-linejoin="round" stroke-width="2" points="342 119.2 342 118.4 350.5 118.7 351 117.3 351.1 116.6 351.1 116.8 351.3 116.1"/><line x1="88" x2="110" y1="102" y2="102" stroke="#16a34a" stroke-width="2.5"/><text x="116" y="106" fill="#374151" font-size="11.5">equity</text><line x1="88" x2="110" y1="118" y2="118" stroke="#d97706" stroke-width="2.5" opacity=".8"/><text x="116" y="122" fill="#374151" font-size="11.5">price</text><text x="78" y="502" fill="#6b7280" font-size="12" text-anchor="start">2025-10-01</text><text x="934" y="502" fill="#6b7280" font-size="12" text-anchor="end">2025-10-31</text></svg>