<?xml version="1.0" encoding="UTF-8"?>
<svg xmlns="http://www.w3.org/2000/svg" width="1000" height="520" viewBox="0 0 1000 520" font-family="ui-sans-serif, system-ui, sans-serif">
  <rect width="1000" height="520" fill="#ffffff"/>
  <text x="78" y="28" font-size="18" font-weight="700" fill="#111827">Zone Recovery — BIOUSDC best setting (equity / PnL)</text>
  <text x="78" y="48" font-size="12.5" fill="#6b7280">lev 10 · ratio 3 · gap 35% · maxSteps 6 · maxDD 60% · random · vip 9  ·  14 series, 100.0% win · vol $2058712 ($66410/day) · fees $174.17</text>
  <text x="78" y="68" font-size="12.5" font-weight="600" fill="#1d4ed8">USDC · BNB −10% · taker 0.0085%</text>
  <text x="934" y="28" text-anchor="end" font-size="18" font-weight="700" fill="#16a34a">+32527 USDT  (+325.27%)</text>
  <line x1="78" y1="468.0" x2="934" y2="468.0" stroke="#e5e7eb" stroke-width="1"/><text x="68" y="472.0" text-anchor="end" font-size="12" fill="#6b7280">0.00</text><line x1="78" y1="392.0" x2="934" y2="392.0" stroke="#e5e7eb" stroke-width="1"/><text x="68" y="396.0" text-anchor="end" font-size="12" fill="#6b7280">9731</text><line x1="78" y1="316.0" x2="934" y2="316.0" stroke="#e5e7eb" stroke-width="1"/><text x="68" y="320.0" text-anchor="end" font-size="12" fill="#6b7280">19461</text><line x1="78" y1="240.0" x2="934" y2="240.0" stroke="#e5e7eb" stroke-width="1"/><text x="68" y="244.0" text-anchor="end" font-size="12" fill="#6b7280">29192</text><line x1="78" y1="164.0" x2="934" y2="164.0" stroke="#e5e7eb" stroke-width="1"/><text x="68" y="168.0" text-anchor="end" font-size="12" fill="#6b7280">38922</text><line x1="78" y1="88.0" x2="934" y2="88.0" stroke="#e5e7eb" stroke-width="1"/><text x="68" y="92.0" text-anchor="end" font-size="12" fill="#6b7280">48653</text>
  <line x1="78" y1="389.9" x2="934" y2="389.9" stroke="#9ca3af" stroke-width="1.5" stroke-dasharray="6 4"/><text x="934" y="383.9" text-anchor="end" font-size="11" fill="#6b7280">start 10000</text>
  <polyline points="78.0,267.3 78.7,264.9 79.9,270.4 81.6,271.0 83.0,274.4 84.0,269.3 85.8,267.4 86.8,266.8 88.1,271.0 89.3,266.6 89.7,260.2 90.5,261.5 91.0,258.0 92.1,259.8 93.4,260.4 94.4,258.3 95.2,253.9 95.9,255.8 96.4,252.7 97.1,252.3 97.9,249.6 98.4,246.6 99.1,248.2 100.6,246.9 101.5,244.9 102.7,245.8 103.9,242.3 105.1,240.7 106.2,240.5 107.8,240.7 109.0,241.2 109.4,237.0 110.0,236.2 110.9,238.5 112.2,238.3 112.8,233.3 113.6,237.5 114.3,241.8 115.4,242.7 116.8,240.1 117.0,235.6 117.6,238.0 118.6,238.0 119.0,241.1 119.8,241.4 120.1,237.5 120.2,234.3 120.6,234.0 121.3,235.8 122.0,238.5 122.4,243.4 122.6,235.7 122.9,237.6 123.5,242.9 124.0,241.6 124.5,235.2 124.9,235.5 125.0,232.5 125.1,230.1 125.4,229.6 125.9,231.7 126.6,228.5 127.3,232.1 127.8,228.6 128.7,226.2 129.9,230.2 130.8,224.2 131.0,222.1 131.6,222.2 132.7,223.1 133.6,224.0 134.3,223.0 135.3,220.1 136.1,218.6 137.3,219.9 138.1,217.1 139.2,215.6 139.6,219.6 140.3,216.9 141.0,224.1 141.2,228.7 141.6,232.7 141.7,235.7 142.1,235.5 142.7,238.7 143.3,235.7 144.1,236.0 144.9,237.8 146.0,236.6 147.5,233.3 148.5,228.4 149.5,230.0 150.6,232.1 151.7,228.7 152.2,226.1 152.8,223.1 153.9,225.0 155.0,221.0 155.3,219.6 155.9,222.0 156.9,221.7 157.7,223.4 158.5,223.0 159.3,220.1 160.2,220.4 160.9,215.3 161.2,216.7 161.7,221.4 162.1,217.1 163.1,218.5 164.0,219.5 164.8,215.0 165.6,213.1 166.2,213.4 167.3,215.9 167.8,208.1 168.6,214.4 169.3,217.4 170.1,216.9 170.5,217.2 171.0,214.5 171.6,214.4 172.2,215.4 172.9,215.6 173.7,217.5 174.6,214.8 175.2,207.1 175.6,206.9 175.6,196.5 175.7,202.4 176.0,207.1 176.2,207.9 176.7,204.1 177.0,198.4 177.3,201.2 177.9,196.2 178.3,186.2 178.3,180.2 178.3,177.3 178.4,177.5 178.4,177.7 178.5,174.5 178.6,176.8 178.7,173.3 178.9,181.4 179.0,183.2 179.3,178.6 179.4,169.7 179.6,171.0 179.8,174.6 180.1,170.1 180.3,164.2 180.5,169.1 180.8,170.3 181.1,168.5 181.7,166.4 182.1,174.5 182.3,182.7 182.5,180.9 182.6,180.6 182.8,185.4 182.9,181.8 183.1,179.4 183.7,182.2 184.1,179.0 184.8,179.1 185.6,182.7 186.1,184.8 186.8,181.3 187.4,179.7 188.2,184.2 188.6,187.9 188.9,196.7 189.1,190.1 189.5,185.8 189.9,179.8 190.4,172.7 190.9,175.0 191.3,185.7 191.8,180.7 192.2,184.6 192.5,186.6 193.1,181.7 193.5,186.2 193.7,195.0 193.8,192.2 194.2,194.4 194.5,195.0 195.1,191.4 195.8,195.8 196.4,196.4 197.2,189.7 197.6,186.9 198.2,192.9 198.9,200.2 199.7,197.0 200.5,199.4 201.3,199.4 202.7,197.2 203.3,188.1 203.8,187.2 204.3,193.5 205.2,188.4 205.6,180.8 205.7,180.9 206.1,181.6 206.5,168.2 206.8,169.7 207.0,171.1 207.4,173.6 208.0,171.7 208.4,174.0 208.9,168.5 209.4,164.2 209.9,160.0 210.3,155.6 211.1,158.0 211.6,156.7 212.1,158.2 212.6,163.0 213.3,162.5 214.2,155.1 214.9,153.5 215.6,156.6 216.1,142.2 216.1,142.5 216.1,115.2 216.1,124.1 216.1,126.8 216.1,132.7 216.2,143.5 216.3,153.5 216.3,159.2 216.5,154.4 216.6,162.0 216.9,164.5 217.3,157.9 217.8,151.8 218.0,155.2 218.7,162.0 219.2,161.6 219.9,155.4 220.4,151.9 221.0,150.9 221.8,150.9 222.3,155.2 222.7,156.4 223.2,157.2 223.7,157.6 224.1,158.4 224.5,159.9 224.8,162.4 225.1,167.5 225.2,166.5 225.7,164.6 226.1,166.9 226.4,168.6 226.9,167.0 227.5,169.8 228.1,168.1 228.8,166.9 229.4,162.9 230.2,157.2 230.7,155.4 231.0,151.8 231.3,150.1 231.6,147.0 231.9,147.3 232.1,149.6 232.4,146.0 232.6,147.3 232.9,151.1 233.1,156.6 233.3,156.2 233.5,154.3 233.8,150.9 234.1,156.4 234.2,163.9 234.4,163.0 234.6,166.7 234.8,163.2 235.0,172.6 235.2,174.8 235.4,179.2 235.6,176.6 235.8,179.2 236.2,174.8 236.5,180.8 236.7,186.9 236.8,184.8 237.2,182.6 237.7,180.3 238.2,181.1 238.7,183.6 239.2,178.6 239.6,174.7 240.2,172.5 240.5,165.6 240.7,165.5 241.0,163.4 241.3,161.2 241.6,158.4 242.0,164.1 242.6,162.2 243.4,161.7 244.1,162.6 244.5,168.7 244.7,167.5 245.1,173.6 245.3,176.8 245.8,181.4 246.2,181.8 246.8,179.6 247.4,177.1 248.0,179.7 249.1,180.6 250.1,177.1 250.7,181.9 251.4,183.1 252.4,175.3 253.1,172.8 253.7,177.1 254.3,179.8 254.6,187.4 255.0,191.9 255.4,190.7 256.0,188.6 256.5,193.3 256.9,194.9 257.5,196.3 257.9,200.4 258.4,203.5 258.9,206.3 259.2,203.3 259.8,212.3 260.1,213.3 260.4,214.8 260.6,207.8 260.9,208.1 261.2,217.6 261.5,225.0 261.8,224.0 262.3,219.9 262.7,219.0 262.9,218.7 263.4,215.4 263.9,212.3 264.5,214.5 265.0,209.1 265.6,215.6 265.9,221.7 266.6,219.0 267.1,223.2 267.3,232.3 267.3,237.1 267.3,238.5 267.4,242.3 267.5,236.2 267.7,239.2 268.1,234.7 268.9,235.5 269.7,232.1 270.2,239.2 270.6,231.1 271.1,235.3 271.6,234.6 272.5,231.1 273.0,230.5 273.6,232.5 274.1,233.3 274.5,235.8 275.0,233.0 275.6,238.6 275.9,239.8 276.5,236.3 277.2,234.8 277.7,232.7 278.2,235.7 278.5,241.2 278.8,241.0 279.3,243.7 279.4,253.1 279.4,249.8 279.6,246.3 280.0,240.8 280.4,240.0 281.0,241.8 281.5,246.3 282.0,249.9 282.3,250.8 282.8,252.7 283.0,254.5 283.4,250.3 283.9,249.9 284.4,256.4 284.8,254.0 285.4,255.3 286.1,253.5 286.9,256.0 287.5,256.0 288.0,259.5 288.1,258.5 288.3,256.4 288.5,254.4 288.8,250.3 289.0,245.9 289.3,245.6 289.5,242.9 289.7,241.3 290.0,245.4 290.3,246.7 290.6,244.7 290.9,243.6 291.2,244.4 291.5,246.3 291.9,244.1 292.4,246.1 293.3,244.4 294.2,249.9 294.7,252.6 295.9,250.3 297.3,251.3 298.6,249.8 299.8,247.8 300.6,245.7 301.0,252.6 301.8,249.1 302.6,249.1 303.4,246.3 304.8,249.3 306.2,249.3 307.8,248.1 309.0,255.0 309.3,255.2 309.8,252.8 311.0,257.5 312.4,255.9 313.6,260.2 314.3,252.8 314.6,251.6 315.4,257.5 315.9,260.2 316.2,259.5 316.5,260.4 316.7,249.3 316.9,247.6 317.1,251.4 317.3,253.4 317.6,246.8 317.9,249.2 318.3,247.9 318.8,256.9 319.2,255.8 319.6,251.6 320.2,259.2 320.8,257.4 321.4,263.8 322.5,260.8 323.6,258.5 324.5,257.8 325.8,256.0 327.6,261.4 328.7,258.4 330.9,261.0 332.4,264.8 333.9,267.0 335.2,260.9 336.4,260.5 337.9,260.8 339.9,258.2 340.7,253.1 341.8,250.9 342.7,253.1 343.7,257.2 345.0,258.0 346.2,260.3 347.3,265.0 348.5,259.5 349.2,254.2 350.5,257.7 352.1,264.3 353.0,268.3 354.1,261.2 354.1,242.2 354.1,242.9 354.1,234.5 354.1,238.5 354.1,241.8 354.1,242.6 354.2,243.3 354.2,245.9 354.2,245.9 354.3,249.3 354.3,257.9 354.4,263.5 354.5,265.7 354.7,265.0 354.9,270.5 355.2,267.3 355.7,267.9 356.1,263.2 356.7,264.2 357.8,266.3 359.1,265.9 361.1,266.5 362.2,262.9 363.8,264.2 365.4,260.8 366.9,263.4 368.7,262.7 370.2,264.5 371.4,260.7 372.3,270.3 372.9,269.5 373.2,264.2 374.2,267.0 375.7,269.0 377.2,270.5 377.5,275.6 378.2,273.8 378.9,274.9 379.6,281.0 380.4,278.4 380.9,278.2 381.9,278.0 382.6,280.1 383.0,275.6 383.4,277.3 384.2,275.5 384.8,273.3 385.1,268.9 385.8,272.1 386.4,280.4 387.1,278.5 388.1,275.0 389.3,280.1 390.2,282.5 390.7,285.9 391.1,283.6 391.7,288.4 391.8,292.2 392.1,289.2 392.5,290.3 393.2,292.0 394.3,292.1 395.2,290.1 396.3,293.6 397.0,295.8 397.7,300.5 398.3,300.7 398.7,295.5 399.2,292.2 399.6,288.5 400.1,286.6 400.6,286.0 401.1,285.2 401.7,284.9 402.1,292.1 402.8,289.4 403.8,291.1 404.8,288.6 405.8,293.1 406.9,297.8 407.9,295.8 409.6,294.3 411.1,291.2 411.9,291.6 412.9,294.1 414.1,288.5 415.1,286.1 415.8,283.5 416.6,281.6 417.4,279.2 418.6,279.0 419.6,278.5 420.4,278.0 421.2,274.8 422.0,273.9 422.4,269.8 422.7,269.6 423.3,273.6 424.3,271.8 424.9,266.9 425.2,269.9 426.0,264.3 426.3,262.3 426.6,265.2 427.1,267.1 427.6,260.8 427.9,259.5 428.5,257.0 429.3,260.3 430.0,259.8 430.9,259.2 431.6,261.2 432.3,255.7 433.0,257.9 433.5,258.9 434.2,256.3 434.8,247.8 434.9,239.3 434.9,241.8 435.1,234.8 435.5,237.3 435.9,233.8 436.5,241.1 436.9,243.3 437.3,241.1 437.8,241.1 438.2,235.8 438.5,235.8 439.0,234.0 439.4,235.5 440.0,232.2 440.4,234.5 440.9,234.8 441.5,232.0 441.8,237.0 442.4,235.6 442.9,237.2 443.3,238.5 443.7,232.5 444.0,237.0 444.3,235.7 444.6,238.2 444.9,235.6 445.2,231.2 445.7,231.2 446.2,234.2 446.8,228.8 447.3,227.5 447.8,226.2 448.4,225.4 448.8,220.6 449.1,224.9 449.4,228.4 449.7,230.3 450.0,233.0 450.2,231.6 450.4,228.5 450.7,221.1 450.8,225.6 451.0,222.1 451.4,226.2 452.0,229.0 452.5,228.5 452.9,232.3 453.2,232.5 453.4,230.1 453.6,231.6 453.9,230.1 454.1,226.2 454.2,228.2 454.4,228.6 454.6,224.7 454.9,224.9 455.1,226.1 455.5,224.6 456.0,223.6 456.3,226.0 456.7,229.0 457.1,229.8 457.4,233.0 457.7,238.0 457.9,242.4 458.2,241.7 458.4,248.4 458.6,249.8 458.9,249.9 459.1,248.1 459.4,241.1 459.6,239.0 460.1,240.5 460.5,243.7 461.0,243.6 461.4,244.8 462.0,243.9 462.5,244.3 462.9,247.9 463.4,249.4 463.9,245.8 464.8,245.3 465.2,247.7 465.6,249.6 466.3,247.4 466.7,250.6 467.2,251.4 467.6,256.0 468.1,256.9 468.6,263.2 468.8,267.6 469.1,267.6 469.5,264.2 469.8,263.3 470.3,262.4 470.9,260.7 471.7,260.3 472.3,261.8 472.8,258.7 473.6,254.4 474.4,259.8 475.3,262.3 475.9,257.9 476.6,255.7 477.6,257.7 478.5,257.8 479.4,256.7 480.0,254.7 480.6,256.2 481.1,259.8 481.5,265.7 481.6,264.9 481.9,265.8 482.3,271.5 482.6,274.9 482.8,281.5 482.9,277.4 483.1,278.9 483.3,276.3 483.7,274.6 484.2,271.4 484.7,274.0 485.2,277.3 485.5,281.1 485.7,285.2 486.1,287.4 486.3,285.0 486.6,287.5 487.0,288.4 487.4,286.5 487.9,284.7 488.5,290.1 489.2,286.4 490.0,283.2 490.6,280.7 491.4,279.7 492.5,276.6 493.6,279.5 494.6,280.9 495.0,278.9 495.6,278.2 496.7,282.1 497.5,283.4 498.1,284.7 498.9,278.7 500.1,280.2 501.0,282.0 502.0,280.4 502.6,279.4 503.5,278.1 504.3,278.1 505.5,277.6 506.1,278.0 506.6,276.9 507.4,278.2 508.2,279.9 508.9,277.1 509.2,275.9 509.6,275.1 509.9,280.2 510.1,288.7 510.4,291.8 510.6,290.1 510.9,287.7 511.3,282.0 511.7,282.5 512.4,281.7 512.9,276.6 513.0,272.4 513.3,270.9 513.7,272.1 514.1,268.4 514.2,264.4 514.5,269.9 514.7,262.2 515.0,263.7 515.3,258.5 515.3,255.8 515.4,254.9 515.4,257.4 515.5,247.7 515.5,248.4 515.6,247.8 515.6,250.4 515.7,251.1 515.8,245.8 515.8,237.8 515.9,239.0 516.0,239.0 516.0,246.2 516.2,242.4 516.2,239.1 516.3,236.0 516.4,230.3 516.4,239.0 516.5,233.5 516.6,236.3 516.7,240.6 516.8,236.3 516.9,237.8 517.0,237.3 517.1,239.2 517.2,237.8 517.3,232.6 517.4,238.2 517.5,228.4 517.5,227.7 517.6,222.4 517.6,221.4 517.7,223.2 517.7,220.4 517.8,222.9 517.8,212.4 517.9,216.4 517.9,214.4 518.0,223.1 518.0,219.6 518.1,218.5 518.1,212.1 518.2,219.6 518.3,226.6 518.4,221.1 518.5,223.1 518.7,213.0 518.8,207.3 518.9,205.6 519.0,207.5 519.0,216.9 519.2,220.0 519.3,225.9 519.5,224.1 519.7,227.1 519.9,227.6 520.0,231.6 520.2,230.1 520.4,228.2 520.4,228.6 520.6,231.3 520.8,228.5 521.0,233.7 521.2,233.2 521.5,229.6 521.6,224.0 521.8,221.7 521.8,220.9 521.8,218.7 521.9,214.9 521.9,214.6 522.0,217.6 522.1,215.5 522.1,218.5 522.2,225.4 522.4,226.5 522.4,224.7 522.6,229.8 522.7,230.7 522.7,231.6 522.9,233.8 523.0,230.2 523.1,233.0 523.3,229.0 523.5,229.3 523.8,238.5 524.0,234.8 524.3,231.5 524.6,231.7 524.8,235.2 524.8,234.3 525.2,235.3 525.4,236.2 525.9,238.8 526.1,233.8 526.4,235.7 527.0,237.6 527.6,243.3 527.9,244.7 528.0,247.4 528.2,246.1 528.4,245.6 528.7,244.7 529.1,244.7 529.8,243.1 529.9,243.6 530.0,242.3 530.1,241.9 530.2,241.7 530.3,242.4 530.4,242.8 530.5,243.7 530.6,244.7 530.7,244.1 530.8,243.4 530.9,241.0 531.0,241.0 531.1,240.6 531.5,241.8 531.9,239.5 532.4,245.2 532.8,246.1 533.3,246.1 533.7,250.3 534.0,247.6 534.4,244.8 534.6,244.4 534.7,244.7 534.9,246.4 535.2,247.1 535.5,247.3 535.9,248.9 536.3,250.8 536.5,247.8 536.6,244.4 536.7,244.1 536.9,243.3 537.2,241.4 537.3,241.9 537.4,243.1 537.5,244.2 537.6,244.6 537.9,243.1 538.3,242.4 538.4,235.2 538.4,236.1 538.5,240.2 538.6,237.3 538.7,240.2 538.8,241.3 539.0,241.7 539.3,242.3 539.6,236.0 539.7,238.1 539.8,237.1 539.9,237.8 540.0,239.3 540.1,239.7 540.2,237.6 540.3,238.0 540.6,239.3 541.4,241.8 541.5,242.7 541.7,242.1 542.3,244.3 543.1,243.9 544.3,246.1 544.8,246.8 545.6,247.7 545.8,250.8 546.0,253.3 546.2,251.6 546.3,249.3 546.5,247.4 547.0,248.7 547.3,250.7 547.5,250.9 547.6,251.8 547.7,247.3 547.8,246.9 547.9,247.1 548.0,246.3 548.1,245.8 548.3,248.2 548.4,248.7 548.6,249.4 548.8,252.9 548.8,256.0 549.0,250.7 549.1,251.3 549.6,251.4 550.3,254.0 550.8,254.7 551.8,255.8 552.7,259.3 553.9,257.5 555.0,258.0 555.9,256.9 556.7,256.9 557.2,252.2 557.4,248.1 557.8,247.4 558.2,244.4 558.5,245.8 559.0,246.8 559.3,241.9 559.6,241.2 559.7,235.7 559.8,235.0 560.0,230.5 560.1,227.6 560.2,225.7 560.2,222.2 560.4,224.5 560.5,222.0 560.6,221.0 560.7,219.5 560.8,220.6 560.9,220.5 561.0,221.2 561.1,213.3 561.1,210.4 561.1,214.0 561.2,209.1 561.2,203.9 561.2,210.5 561.2,212.6 561.3,220.4 561.3,228.7 561.4,236.5 561.4,230.7 561.5,227.2 561.5,230.7 561.6,229.7 561.8,233.3 562.0,231.3 562.2,221.9 562.3,216.7 562.4,225.0 562.5,223.1 562.6,222.5 562.7,224.0 562.9,219.5 563.1,219.0 563.1,225.2 563.3,215.8 563.4,221.0 563.5,216.3 563.6,217.4 563.6,222.4 563.8,221.4 563.9,213.6 563.9,213.0 564.0,205.8 564.0,207.9 564.0,206.6 564.0,214.4 564.1,221.1 564.1,221.1 564.3,223.9 564.4,231.3 564.6,233.0 564.7,234.7 564.8,237.7 565.1,238.0 565.2,233.1 565.4,229.8 565.6,232.5 565.8,224.9 565.9,227.7 566.2,228.7 566.6,230.7 567.2,227.9 567.5,226.4 568.0,226.1 568.2,211.6 568.4,219.6 568.7,218.0 569.0,213.5 569.1,207.1 569.2,209.9 569.3,202.7 569.4,200.2 569.4,198.3 569.5,201.7 569.5,200.0 569.6,203.3 569.7,205.0 569.8,200.2 569.8,199.9 569.9,198.3 570.0,197.7 570.0,195.7 570.1,193.0 570.2,193.8 570.3,184.8 570.3,183.7 570.3,187.9 570.4,186.2 570.4,180.7 570.4,188.6 570.5,185.6 570.5,180.8 570.5,175.7 570.6,179.9 570.6,178.3 570.6,182.6 570.7,176.7 570.7,173.8 570.7,173.7 570.8,165.5 570.8,160.2 570.8,161.1 570.8,158.6 570.8,158.6 570.8,156.6 570.8,156.6 570.8,156.4 570.8,158.7 570.8,158.4 570.9,162.4 570.9,169.2 570.9,167.5 570.9,167.5 571.0,160.2 571.0,167.5 571.0,164.6 571.0,172.2 571.0,176.1 571.1,180.2 571.1,180.8 571.1,176.0 571.2,183.3 571.3,182.1 571.3,180.9 571.4,184.4 571.4,182.2 571.4,190.9 571.5,195.0 571.5,192.8 571.6,193.2 571.6,193.0 571.7,194.3 571.8,194.0 571.8,195.3 572.0,197.3 572.1,193.2 572.3,196.0 572.5,194.2 572.5,194.3 572.6,195.8 572.8,200.5 573.0,197.7 573.2,199.7 573.5,204.0 573.8,204.0 574.0,210.8 574.1,212.8 574.2,212.5 574.3,216.1 574.4,221.0 574.5,222.2 574.6,222.5 574.7,224.0 574.8,230.8 574.9,233.0 575.0,233.5 575.0,248.7 575.1,255.4 575.1,266.9 575.1,289.0 575.1,285.9 575.1,291.2 575.1,260.9 575.1,258.9 575.2,260.4 575.2,255.8 575.2,261.2 575.3,264.8 575.3,268.0 575.3,269.1 575.4,270.1 575.4,264.9 575.5,269.6 575.5,270.4 575.6,271.1 575.7,272.6 575.7,270.9 575.8,266.9 575.9,266.9 576.0,265.2 576.1,268.5 576.3,267.9 576.4,264.4 576.6,263.4 576.7,262.7 576.9,254.3 576.9,252.9 577.0,257.8 577.2,262.3 577.3,256.4 577.4,259.2 577.5,260.3 577.8,254.0 577.9,245.8 578.0,248.1 578.2,250.6 578.6,250.6 578.9,254.9 579.1,248.4 579.3,246.9 579.6,247.7 579.8,245.7 580.1,255.5 580.5,255.2 580.7,260.7 580.8,263.9 581.0,264.5 581.1,266.5 581.3,267.9 581.5,266.3 581.7,266.1 582.0,267.9 582.3,265.4 582.6,264.7 582.8,258.2 583.1,263.5 583.4,261.0 583.6,259.5 583.9,263.0 584.2,264.7 584.3,265.7 584.6,265.9 584.8,262.0 585.0,265.9 585.3,264.8 585.4,267.0 585.6,266.9 585.9,264.3 586.1,261.8 586.1,257.4 586.2,255.5 586.6,262.4 586.9,257.5 587.1,256.3 587.3,261.5 587.7,259.4 587.9,256.5 588.1,253.5 588.1,248.6 588.3,252.1 588.4,254.5 588.4,254.4 588.6,260.8 588.8,260.0 588.9,263.8 589.1,262.7 589.5,266.3 589.7,265.2 590.0,265.4 590.2,263.3 590.6,265.8 591.0,265.4 591.2,261.8 591.5,260.9 591.8,259.0 592.2,259.9 592.6,262.2 592.9,264.8 593.4,265.3 594.0,263.0 594.4,263.0 595.0,264.5 595.3,264.5 595.5,261.8 595.6,255.2 595.7,250.3 595.8,248.3 595.8,240.0 595.8,238.3 595.9,240.3 595.9,238.7 595.9,234.6 595.9,232.7 596.0,244.1 596.1,245.3 596.1,236.1 596.1,236.5 596.2,238.0 596.3,235.5 596.3,230.3 596.4,225.9 596.4,221.9 596.4,221.1 596.5,227.5 596.6,232.8 596.7,232.3 596.9,235.6 597.0,233.0 597.2,233.2 597.3,230.5 597.4,231.7 597.6,223.2 597.6,222.6 597.6,215.9 597.7,216.3 597.7,213.4 597.8,211.1 597.8,212.6 597.9,213.4 598.0,213.3 598.1,216.7 598.1,216.4 598.1,221.5 598.3,226.0 598.5,222.7 598.7,219.9 598.9,219.6 599.0,218.7 599.3,214.9 599.5,218.9 599.8,211.5 599.9,216.4 600.2,218.9 600.4,213.3 600.7,220.4 600.9,220.7 601.1,223.9 601.1,223.7 601.2,224.4 601.5,222.7 601.7,227.6 601.9,228.1 602.2,224.2 602.6,218.7 602.8,219.0 602.9,223.4 603.2,229.3 603.5,230.0 604.0,233.0 604.2,220.6 604.4,216.1 604.6,221.6 604.7,210.4 604.9,211.6 605.1,209.8 605.3,214.9 605.6,218.6 605.8,210.8 606.1,205.1 606.4,211.6 606.7,214.4 607.0,213.5 607.2,217.4 607.5,216.0 607.8,218.6 608.1,222.0 608.3,224.7 608.5,221.7 608.6,214.6 608.8,214.3 609.0,214.1 609.3,216.0 609.5,215.5 609.7,211.9 609.9,213.5 610.0,220.0 610.2,223.7 610.4,220.9 610.6,225.5 610.8,216.5 610.9,211.3 611.1,213.0 611.2,217.7 611.3,218.1 611.3,223.9 611.3,219.5 611.4,218.6 611.7,228.8 611.7,225.9 611.9,227.0 612.1,224.6 612.2,228.8 612.4,228.8 612.5,234.0 612.6,235.8 612.6,240.3 612.7,245.2 612.8,247.7 612.9,251.7 612.9,247.1 613.0,252.9 613.2,248.3 613.4,246.6 613.4,240.3 613.4,241.3 613.5,239.3 613.7,239.1 613.7,241.4 613.8,241.2 614.1,241.3 614.4,240.1 614.7,241.1 614.9,240.1 615.2,237.5 615.4,228.5 615.4,227.1 615.5,226.7 615.6,233.7 615.8,235.5 616.0,244.8 616.3,243.6 616.7,239.3 616.8,233.5 617.1,229.0 617.3,228.0 617.5,234.6 617.7,239.8 617.9,237.8 618.2,236.7 618.4,239.1 618.6,242.8 618.8,241.0 619.2,238.6 619.5,235.1 619.7,237.2 619.9,239.3 620.0,246.4 620.2,241.2 620.3,245.4 620.5,241.4 620.7,243.2 620.9,242.9 621.1,235.2 621.3,236.3 621.5,230.1 621.6,224.6 621.7,230.1 621.9,234.7 622.0,239.0 622.2,235.0 622.3,224.5 622.4,217.0 622.5,209.8 622.5,202.4 622.5,204.6 622.6,205.5 622.6,202.0 622.6,210.3 622.7,209.0 622.8,206.9 622.8,215.9 622.9,214.8 623.0,218.1 623.1,220.4 623.2,215.0 623.2,209.5 623.3,215.0 623.4,210.3 623.5,205.6 623.6,203.0 623.7,208.1 623.8,206.3 623.9,198.2 623.9,205.0 624.0,205.5 624.1,200.4 624.2,198.9 624.3,207.0 624.4,209.1 624.5,200.4 624.6,201.0 624.8,205.1 624.9,205.4 625.1,209.6 625.2,212.3 625.3,206.8 625.5,211.4 625.7,211.4 625.8,214.9 626.0,215.9 626.2,226.0 626.3,228.5 626.5,225.7 626.7,222.7 626.9,219.5 627.2,228.1 627.5,234.7 627.7,232.1 628.1,233.5 628.5,229.8 628.6,238.5 628.8,230.2 629.1,229.8 629.4,232.8 629.7,235.3 629.9,229.5 630.0,238.2 630.2,240.0 630.4,235.2 630.5,233.8 630.7,227.7 630.8,229.1 630.9,227.6 631.1,232.6 631.1,223.2 631.3,221.1 631.4,225.2 631.6,226.0 631.8,221.2 632.0,224.6 632.3,228.2 632.5,222.6 632.9,221.1 633.0,214.3 633.2,211.3 633.4,215.6 633.7,216.5 633.8,208.5 634.0,206.5 634.2,208.4 634.4,209.3 634.7,209.5 634.9,213.6 635.2,210.9 635.4,205.0 635.6,203.8 635.8,197.5 636.0,197.5 636.0,189.4 636.1,185.8 636.2,175.2 636.2,175.6 636.2,164.4 636.2,162.9 636.3,164.2 636.3,155.6 636.4,160.7 636.4,173.5 636.4,182.1 636.4,184.7 636.5,182.2 636.5,184.4 636.6,180.9 636.7,179.6 636.8,176.7 636.9,182.1 637.0,177.5 637.2,176.3 637.3,169.8 637.4,175.0 637.5,172.5 637.6,166.1 637.6,163.5 637.7,164.9 637.8,164.1 637.8,166.4 637.9,173.1 637.9,182.2 638.0,184.1 638.1,184.1 638.2,187.2 638.3,188.9 638.3,191.6 638.4,195.5 638.5,193.9 638.7,195.8 638.8,196.4 639.0,198.7 639.1,197.5 639.3,194.9 639.4,187.9 639.5,189.7 639.6,185.4 639.7,179.7 639.7,177.5 639.8,175.3 639.9,172.0 639.9,164.9 640.0,169.5 640.1,174.3 640.1,178.5 640.2,184.3 640.3,187.9 640.4,187.3 640.5,185.6 640.6,182.4 640.7,174.7 640.8,170.8 640.9,172.6 641.0,175.0 641.1,164.7 641.1,166.1 641.2,166.2 641.3,167.5 641.4,171.8 641.4,175.5 641.6,175.5 641.7,171.1 641.9,172.1 641.9,175.8 642.0,184.6 642.2,179.8 642.3,187.9 642.4,192.0 642.6,189.8 642.7,187.8 642.9,183.9 643.0,176.2 643.1,185.4 643.2,183.1 643.4,189.6 643.6,192.8 643.9,192.9 644.0,199.8 644.1,195.5 644.1,203.8 644.2,204.4 644.3,203.8 644.4,203.2 644.5,201.5 644.6,204.0 644.8,200.9 644.9,197.8 645.0,192.3 645.1,194.3 645.3,196.2 645.5,194.0 645.7,199.3 645.9,200.2 646.1,201.4 646.3,202.7 646.5,200.3 646.6,196.2 646.7,197.9 646.8,196.3 646.9,196.5 647.0,191.7 647.1,193.2 647.3,193.9 647.4,193.0 647.6,198.5 647.7,192.8 647.9,189.3 648.0,197.0 648.1,198.3 648.2,202.4 648.4,201.9 648.5,201.7 648.8,204.9 648.9,209.1 649.0,210.9 649.1,214.4 649.2,214.4 649.3,216.0 649.4,219.2 649.5,222.2 649.5,226.7 649.6,223.5 649.7,225.2 649.8,229.0 649.8,226.5 649.9,227.1 650.0,229.1 650.0,227.0 650.1,232.3 650.2,228.2 650.3,232.1 650.4,236.1 650.5,236.7 650.6,232.1 650.7,235.1 650.8,233.2 651.0,232.7 651.2,231.2 651.4,231.8 651.6,234.3 651.8,232.0 651.9,223.6 652.2,223.0 652.3,225.4 652.6,223.1 652.7,214.0 652.7,214.6 652.8,212.6 652.9,212.3 653.0,207.4 653.1,209.1 653.2,208.6 653.3,209.0 653.4,209.3 653.6,209.8 653.7,212.4 653.9,214.6 654.1,213.9 654.4,211.6 654.6,208.1 654.9,210.9 655.3,211.9 655.3,213.9 655.8,212.5 656.1,215.0 656.5,216.0 657.0,217.1 657.4,218.4 657.7,223.5 657.9,218.4 658.2,219.9 658.5,221.9 658.8,217.1 659.0,215.5 659.2,219.5 659.3,215.4 659.5,214.6 659.8,211.0 660.1,213.3 660.3,204.8 660.5,205.0 660.8,207.1 661.1,210.8 661.3,213.0 661.6,210.4 661.9,213.8 662.1,213.4 662.4,206.3 662.6,205.5 662.8,207.3 663.1,205.4 663.4,203.0 663.7,204.8 664.0,206.6 664.3,214.8 664.7,218.2 664.9,217.1 665.2,219.6 665.4,222.6 665.7,221.6 666.1,222.6 666.5,224.7 666.9,227.0 667.2,226.2 667.4,222.7 667.6,222.2 668.0,225.7 668.4,221.1 668.8,219.1 669.0,224.1 669.4,224.4 669.5,218.6 669.5,214.1 669.5,204.6 669.5,200.2 669.6,196.9 669.6,199.2 669.6,202.4 669.6,204.5 669.7,211.5 669.8,218.2 669.9,211.0 669.9,207.8 670.0,209.5 670.1,204.0 670.2,202.2 670.3,209.3 670.4,206.1 670.6,202.5 670.7,195.0 670.8,191.6 670.9,185.3 670.9,184.2 670.9,179.3 671.0,181.1 671.0,193.2 671.0,190.8 671.1,195.8 671.2,191.9 671.2,185.1 671.2,183.7 671.2,180.3 671.3,185.2 671.4,181.3 671.4,177.5 671.4,172.3 671.4,172.3 671.5,176.1 671.5,175.8 671.5,169.6 671.6,173.7 671.6,177.7 671.7,186.2 671.7,176.8 671.7,182.7 671.8,183.6 671.9,183.4 671.9,176.6 672.0,180.8 672.1,181.7 672.3,178.6 672.4,175.2 672.4,163.6 672.4,163.5 672.4,163.9 672.5,164.4 672.5,159.1 672.5,161.5 672.6,160.6 672.6,162.5 672.6,171.8 672.6,185.2 672.6,184.2 672.6,183.3 672.7,185.4 672.7,178.6 672.7,178.3 672.8,177.8 672.8,180.2 672.9,175.2 672.9,181.7 673.0,178.6 673.1,173.3 673.2,180.2 673.3,178.6 673.4,178.7 673.5,182.9 673.6,180.2 673.7,179.9 673.8,185.8 674.0,181.6 674.1,181.2 674.2,181.1 674.3,175.2 674.4,176.5 674.5,175.5 674.6,174.7 674.7,178.8 674.8,167.6 674.8,176.1 674.9,181.2 675.0,180.1 675.1,184.1 675.2,186.8 675.2,191.2 675.2,186.1 675.4,187.6 675.5,188.6 675.6,189.2 675.6,188.1 675.7,190.9 675.8,190.2 675.9,188.6 676.0,180.3 676.1,179.0 676.2,182.8 676.4,180.9 676.4,180.7 676.6,177.8 676.6,176.8 676.7,171.7 676.8,170.6 676.9,173.6 677.1,175.1 677.2,167.5 677.3,162.1 677.3,160.5 677.4,159.9 677.5,159.2 677.5,161.6 677.7,162.6 677.8,162.1 677.9,165.1 678.1,162.0 678.2,164.9 678.3,165.0 678.3,167.6 678.4,163.0 678.5,169.6 678.6,173.7 678.7,169.5 678.9,167.6 679.0,174.3 679.3,173.8 679.5,178.7 679.7,179.1 679.9,176.8 680.2,174.0 680.5,171.2 680.6,171.1 680.9,174.0 681.1,172.6 681.4,178.3 681.6,182.2 681.8,181.2 682.1,180.8 682.4,181.6 682.7,189.7 682.8,187.4 683.0,187.9 683.2,189.3 683.5,187.8 683.8,186.9 684.3,188.3 684.4,193.3 684.7,189.8 684.9,190.6 685.1,187.7 685.4,183.2 685.6,181.2 685.7,176.6 685.7,172.0 685.8,168.7 685.8,170.3 685.9,164.5 685.9,166.9 686.0,170.2 686.1,164.5 686.2,165.5 686.3,163.9 686.4,162.0 686.5,166.2 686.6,169.6 686.7,164.9 686.9,162.9 686.9,156.1 687.1,158.7 687.1,155.6 687.2,154.4 687.2,153.8 687.3,155.1 687.3,151.8 687.4,149.6 687.4,147.6 687.5,148.9 687.5,146.1 687.6,147.8 687.7,141.5 687.7,139.3 687.8,135.7 687.8,138.2 687.9,132.9 687.9,129.7 687.9,133.2 688.0,141.3 688.0,143.6 688.0,141.5 688.1,141.0 688.1,148.9 688.2,147.9 688.2,147.0 688.3,150.5 688.4,150.8 688.5,154.0 688.7,148.9 688.8,150.0 688.9,152.8 689.0,155.9 689.1,155.9 689.3,156.0 689.4,158.2 689.5,163.2 689.6,168.6 689.7,167.6 689.9,165.9 690.2,167.7 690.4,169.6 690.7,168.6 690.8,167.7 691.0,165.6 691.1,167.1 691.3,170.2 691.5,169.2 691.6,166.1 691.8,161.9 691.9,158.5 692.1,160.5 692.3,159.6 692.4,169.8 692.4,171.7 692.6,171.2 692.7,166.0 692.9,165.5 693.0,171.1 693.2,164.5 693.3,163.6 693.4,160.2 693.6,165.1 693.7,165.6 693.9,159.4 694.1,159.4 694.3,162.6 694.4,169.7 694.6,166.0 694.6,160.2 694.8,163.5 695.0,164.7 695.2,160.4 695.2,162.7 695.3,161.2 695.4,163.7 695.5,168.2 695.5,167.7 695.7,172.2 695.8,169.5 696.0,173.5 696.2,178.6 696.3,178.1 696.6,172.3 696.8,177.7 697.0,177.7 697.1,180.8 697.3,180.9 697.5,184.6 697.7,185.2 697.9,185.3 698.2,188.2 698.3,187.1 698.5,190.1 698.8,186.2 699.0,182.2 699.2,181.4 699.4,180.3 699.6,180.7 700.0,182.7 700.4,180.8 700.6,185.6 701.0,186.6 701.3,186.6 701.5,185.1 701.9,187.3 702.2,189.1 702.3,193.2 702.3,197.7 702.4,195.7 702.6,196.9 702.7,194.5 702.9,192.9 703.0,192.2 703.2,191.3 703.4,195.7 703.6,192.5 703.7,188.8 704.0,188.4 704.2,188.1 704.4,191.4 704.6,194.0 704.7,186.6 704.7,183.7 704.8,179.7 705.0,182.7 705.2,187.9 705.4,178.6 705.5,178.2 705.7,178.7 705.8,175.7 706.1,180.3 706.4,177.3 706.6,177.7 706.9,175.8 707.2,180.7 707.5,184.8 707.7,189.9 707.8,189.4 708.0,194.7 708.2,192.3 708.6,193.5 708.8,194.8 709.0,198.3 709.2,201.4 709.2,202.9 709.3,203.0 709.4,205.6 709.6,203.8 709.8,201.7 710.1,201.8 710.4,204.0 710.7,204.0 711.0,203.2 711.4,203.0 712.0,202.8 712.7,203.3 712.9,199.0 713.1,199.5 713.4,194.3 713.6,198.9 714.0,203.8 714.3,202.3 714.4,209.3 714.7,210.8 714.9,215.9 715.4,212.8 715.7,211.1 716.4,209.9 716.7,206.3 717.3,207.5 717.9,210.1 718.5,213.0 719.1,210.9 719.5,212.3 719.9,210.4 720.6,205.8 721.0,198.8 721.2,196.4 721.5,202.0 721.7,203.5 721.9,193.2 721.9,187.9 721.9,185.9 721.9,184.8 721.9,175.6 722.0,179.2 722.0,178.3 722.0,180.9 722.1,180.1 722.1,179.3 722.2,177.5 722.3,179.6 722.3,183.2 722.4,175.8 722.4,176.7 722.5,175.2 722.7,179.0 722.8,182.6 723.0,181.3 723.2,177.8 723.4,184.1 723.7,184.7 723.9,187.2 724.1,183.4 724.3,182.3 724.5,181.9 725.0,182.3 725.2,179.1 725.4,178.2 725.8,177.0 726.1,180.2 726.6,180.7 726.9,177.0 727.1,179.1 727.4,180.7 727.9,179.9 728.2,181.6 728.6,183.2 729.2,181.7 729.4,184.3 729.7,187.6 730.3,183.8 731.1,187.3 731.2,188.1 731.6,189.3 731.8,191.2 732.1,189.6 732.4,184.9 732.7,179.7 732.8,178.1 733.1,179.1 733.7,183.3 733.9,181.8 734.2,180.4 734.9,181.6 735.4,177.2 735.7,178.1 735.9,183.3 736.2,181.9 736.5,183.1 737.0,182.4 737.2,182.4 737.7,181.4 738.1,178.6 738.4,176.2 738.8,176.2 739.5,177.7 740.1,176.7 740.6,177.7 741.0,182.3 741.3,181.7 741.8,181.4 742.1,179.8 742.4,185.9 742.5,186.4 743.0,185.9 743.5,184.4 743.9,188.8 744.4,188.2 744.8,192.4 745.2,192.2 745.4,194.9 745.7,197.7 746.2,195.7 746.5,199.4 746.8,200.9 747.2,199.9 747.5,194.7 747.7,195.5 748.2,194.0 748.5,195.7 748.9,196.0 749.1,198.4 749.5,196.9 750.2,195.2 750.7,196.9 751.0,198.2 751.6,196.7 751.8,196.0 751.9,190.4 752.0,187.2 752.1,189.1 752.2,191.8 752.3,192.0 752.5,193.3 752.7,190.7 753.1,193.3 753.5,196.8 754.0,197.0 754.4,200.3 754.6,200.5 755.1,200.0 755.7,197.7 756.1,204.3 756.2,204.3 756.4,200.3 757.0,200.2 757.3,201.2 757.4,203.0 757.5,206.6 757.6,206.1 757.7,209.1 758.0,207.4 758.4,207.8 758.8,209.9 759.1,209.5 759.2,215.8 759.2,215.3 759.3,217.1 759.4,217.0 759.5,217.4 759.6,219.4 759.7,223.2 759.7,223.5 759.8,227.5 760.0,224.2 760.1,224.1 760.3,220.6 760.5,223.5 760.7,226.2 761.0,226.9 761.0,228.6 761.3,227.2 761.6,229.3 761.7,234.5 761.8,231.6 761.9,234.7 762.0,236.0 762.1,237.0 762.2,241.7 762.2,240.0 762.3,239.3 762.4,241.4 762.7,242.7 762.9,244.6 763.0,246.2 763.1,249.9 763.1,250.1 763.2,252.7 763.3,249.7 763.5,254.3 763.6,254.8 763.6,257.0 763.7,256.2 763.9,251.6 764.1,255.3 764.3,261.2 764.4,263.0 764.6,258.7 764.8,258.3 764.9,255.4 765.1,255.4 765.5,252.9 765.8,255.5 766.1,255.2 766.6,258.7 767.0,262.0 767.4,256.7 767.7,258.3 768.1,259.2 768.4,261.0 768.6,259.2 768.9,257.5 769.3,257.7 769.6,248.9 769.7,241.3 769.9,245.9 770.0,245.3 770.2,246.2 770.5,242.2 770.7,245.4 771.1,247.1 771.6,251.4 772.1,248.1 772.5,251.1 772.8,252.7 773.2,247.1 773.5,242.4 773.9,240.3 774.1,231.1 774.2,230.7 774.3,233.5 774.5,236.0 774.8,239.0 775.2,238.6 775.7,240.6 776.2,238.0 776.6,239.6 776.8,237.1 777.2,241.0 777.7,243.9 778.0,242.6 778.3,244.3 778.9,247.9 779.2,250.8 779.6,255.3 780.0,251.6 780.3,252.9 780.5,255.3 781.2,253.2 781.5,257.8 781.9,259.5 782.2,261.7 782.5,262.7 782.8,263.7 783.3,262.3 783.7,257.9 783.9,258.2 784.2,257.8 784.6,258.7 784.8,259.5 785.0,265.2 785.1,257.3 785.2,256.7 785.4,257.0 785.8,257.3 785.9,250.7 786.1,252.7 786.4,254.3 786.5,251.4 786.8,249.9 786.9,248.2 787.1,242.1 787.2,233.8 787.4,241.3 787.5,242.6 787.8,241.8 788.1,247.8 788.2,248.4 788.5,252.8 789.0,250.2 789.4,253.2 789.6,249.6 789.8,249.7 790.1,251.6 790.5,251.7 791.1,252.2 791.5,256.2 791.8,257.8 792.3,261.8 792.7,260.2 793.1,254.2 793.3,248.6 793.7,250.4 794.1,249.4 794.8,249.4 795.3,251.8 796.0,253.3 796.6,254.9 797.2,254.8 797.7,249.7 798.0,245.7 798.3,248.7 798.9,250.1 799.4,248.9 800.0,253.4 800.6,253.3 801.1,251.2 801.7,253.7 802.5,250.6 803.2,252.7 803.8,258.4 804.4,255.8 804.8,254.7 805.2,251.9 805.6,255.2 806.3,257.3 806.6,258.2 807.2,258.0 807.6,259.0 808.1,261.8 808.7,258.7 809.4,258.5 810.1,261.5 810.5,266.0 810.8,267.9 811.0,271.3 811.6,271.6 812.0,273.1 812.4,268.0 812.6,270.8 812.8,274.0 813.2,273.6 813.3,275.4 813.7,275.1 814.0,276.6 814.3,269.5 814.5,263.8 814.6,260.0 814.7,260.3 814.9,258.8 815.1,255.0 815.3,257.5 815.5,258.9 815.7,259.8 815.8,265.7 816.0,266.6 816.3,269.9 816.5,273.9 816.7,270.1 816.9,272.1 817.2,272.5 817.4,271.6 817.7,269.3 817.8,264.8 818.1,259.2 818.1,251.8 818.1,246.3 818.1,246.4 818.1,246.6 818.2,245.1 818.2,248.4 818.3,246.7 818.4,247.3 818.4,251.4 818.5,250.6 818.6,243.8 818.7,247.3 819.0,250.7 819.2,249.3 819.4,245.8 819.6,248.2 819.7,248.7 819.8,248.7 820.0,247.4 820.1,252.1 820.4,251.2 820.8,254.3 821.2,255.2 821.6,253.1 822.1,250.3 822.6,247.2 823.0,244.6 823.3,246.8 823.7,249.3 824.3,252.8 824.7,249.3 825.3,252.6 826.0,249.9 826.5,250.1 827.1,249.2 827.8,249.3 828.4,255.0 828.9,254.2 829.6,256.8 830.2,253.1 830.8,252.2 831.5,253.4 831.8,252.6 832.1,250.6 832.4,253.2 832.8,256.3 833.3,256.3 833.8,255.3 834.1,250.8 834.5,254.2 834.7,247.9 835.1,250.6 835.7,252.6 836.3,260.4 836.7,259.8 837.0,258.7 837.2,256.0 837.4,254.9 837.7,255.8 838.2,261.5 838.4,264.0 838.7,262.9 838.9,262.3 839.2,262.2 839.4,260.4 839.8,262.5 840.0,267.0 840.2,267.0 840.3,262.9 840.5,262.5 840.7,264.7 840.9,265.7 841.0,269.1 841.1,269.4 841.3,268.9 841.5,269.3 841.7,269.1 841.9,268.3 842.1,268.5 842.4,268.8 842.6,266.9 842.8,267.8 843.0,265.4 843.3,265.8 843.7,269.1 843.8,272.0 844.0,270.4 844.2,264.8 844.3,270.0 844.4,270.5 844.5,269.8 844.6,269.0 844.6,269.1 844.7,266.9 844.8,268.5 844.9,269.1 845.0,269.6 845.1,269.3 845.2,269.5 845.3,269.8 845.4,265.7 845.5,268.6 845.5,266.5 845.6,267.6 845.9,267.5 846.0,269.9 846.2,271.8 846.4,266.8 846.5,266.0 846.6,265.8 846.7,264.5 846.8,263.7 846.9,263.9 847.1,259.9 847.2,264.2 847.5,267.5 847.7,265.9 847.9,266.1 847.9,263.4 848.0,264.7 848.3,266.0 848.6,267.4 848.9,263.9 849.0,266.3 849.4,267.5 849.7,260.8 850.0,261.5 850.2,265.3 850.6,266.3 851.0,268.5 851.3,270.8 851.6,272.1 851.8,274.1 852.1,273.9 852.5,273.6 852.8,277.3 853.0,275.4 853.3,276.6 853.5,277.9 853.6,279.7 854.0,281.5 854.1,287.2 854.2,285.0 854.3,285.7 854.4,288.9 854.5,289.2 854.7,290.1 854.8,285.6 855.0,287.5 855.3,289.4 855.6,289.7 855.9,291.3 856.0,294.2 856.2,292.5 856.3,289.9 856.5,289.7 856.7,288.2 856.9,288.4 857.2,286.9 857.5,286.1 857.9,286.4 858.2,285.2 858.7,285.1 859.2,286.0 859.7,286.5 860.4,289.5 861.0,288.2 861.4,293.2 862.0,291.6 862.7,292.6 863.2,292.6 863.9,292.8 864.2,295.1 864.5,293.7 865.0,295.6 865.6,296.1 865.9,297.3 866.3,296.6 866.7,295.6 867.2,296.0 867.5,291.5 867.8,294.3 867.9,297.0 868.0,296.2 868.2,298.2 868.3,301.0 868.4,302.9 868.4,307.8 868.4,311.8 868.5,311.2 868.5,314.8 868.5,316.9 868.6,317.4 868.6,319.9 868.7,322.5 868.7,327.5 868.7,324.2 868.7,326.2 868.7,325.2 868.8,329.5 868.8,326.0 868.8,323.3 868.9,321.7 868.9,318.5 869.0,319.0 869.1,317.8 869.2,322.9 869.3,322.3 869.4,322.3 869.5,320.3 869.5,317.0 869.6,322.4 869.7,322.3 869.8,320.5 869.9,320.2 870.1,322.3 870.2,322.3 870.4,320.4 870.5,320.0 870.7,317.3 870.8,314.3 871.0,312.9 871.1,311.7 871.3,318.0 871.5,322.0 871.7,323.3 871.9,323.7 872.0,322.9 872.2,324.5 872.3,327.8 872.4,328.3 872.5,325.7 872.7,325.2 872.8,328.0 872.9,330.0 873.2,329.6 873.4,329.8 873.6,326.9 873.8,323.2 874.0,324.5 874.3,326.7 874.6,324.9 874.9,323.9 874.9,323.7 875.0,322.7 875.1,320.9 875.3,320.2 875.4,316.4 875.5,317.4 875.5,316.8 875.5,317.7 875.6,317.9 875.7,318.3 875.8,318.4 875.8,318.8 875.9,318.7 876.0,319.8 876.1,319.2 876.2,320.2 876.3,320.4 876.3,321.5 876.4,320.4 876.5,321.2 876.7,323.2 877.2,322.4 877.6,322.4 878.1,323.5 878.5,323.3 879.1,323.8 879.4,322.9 879.9,321.2 880.3,319.8 880.5,320.8 880.7,324.8 880.7,327.8 880.8,347.6 880.8,336.9 880.8,334.4 880.8,332.5 880.9,331.6 880.9,330.5 881.0,329.1 881.0,329.1 881.1,329.5 881.2,330.3 881.2,331.9 881.3,333.4 881.3,333.1 881.4,332.6 881.4,333.4 881.5,336.9 881.6,339.4 881.7,336.5 881.9,332.3 882.1,335.3 882.4,333.4 882.6,333.4 882.8,334.1 883.0,334.6 883.2,336.1 883.5,334.4 883.6,334.1 883.7,333.9 883.8,329.9 883.9,331.8 884.0,330.5 884.2,332.1 884.4,331.0 884.6,331.6 885.1,332.6 885.6,333.6 885.9,335.9 886.1,337.4 886.2,341.0 886.3,340.2 886.5,341.7 886.6,341.4 886.8,340.9 887.0,340.4 887.1,334.4 887.2,331.8 887.4,333.8 887.7,334.9 888.0,335.4 888.1,334.0 888.3,332.8 888.4,335.4 888.7,340.4 888.8,339.0 889.0,338.6 889.1,337.5 889.3,337.4 889.5,339.3 889.7,339.4 890.0,341.4 890.2,342.1 890.5,339.9 890.7,339.0 890.9,338.8 891.0,338.8 891.1,339.1 891.2,338.8 891.2,338.4 891.3,337.9 891.4,337.6 891.6,339.3 892.0,338.6 892.3,336.1 892.5,329.8 892.7,333.1 893.1,332.3 893.2,332.5 893.3,332.5 893.4,333.3 893.5,334.0 893.6,333.6 893.7,335.1 893.7,333.3 893.8,335.0 894.0,335.3 894.2,334.9 894.3,339.6 894.4,334.8 894.6,336.6 894.8,338.6 894.9,337.3 895.1,335.1 895.5,334.1 895.6,333.9 895.8,330.6 895.9,336.0 896.2,332.9 896.5,338.0 896.7,340.6 896.8,330.8 897.1,333.1 897.4,332.3 897.7,337.4 897.9,329.8 898.1,333.9 898.4,337.8 898.7,337.1 898.9,333.6 899.2,335.6 899.5,336.4 899.8,339.5 899.9,345.1 899.9,346.2 899.9,348.0 900.0,341.2 900.1,339.7 900.3,339.5 900.4,332.9 900.5,332.4 900.6,327.5 900.8,326.4 901.0,327.0 901.2,325.0 901.4,328.1 901.7,327.0 901.9,331.9 902.1,333.4 902.3,336.1 902.5,336.3 902.6,337.4 902.8,338.4 902.9,336.9 903.2,339.3 903.3,335.6 903.5,338.0 903.8,337.0 904.1,335.8 904.4,339.6 904.8,337.3 905.3,337.0 905.7,338.1 906.1,337.4 906.6,335.6 907.0,339.0 907.6,339.3 908.0,338.6 908.4,338.9 908.9,339.3 909.3,341.4 909.9,338.9 910.5,339.4 911.1,339.1 911.8,341.6 912.3,341.9 912.7,340.0 913.6,341.0 913.9,346.5 914.2,345.4 914.7,346.4 915.1,349.4 915.2,351.6 915.6,347.5 915.9,353.1 916.0,353.1 916.2,356.0 916.3,356.5 916.4,358.8 916.5,358.2 916.8,354.2 917.1,354.2 917.4,354.0 917.7,356.5 918.2,358.0 918.6,355.6 919.2,357.8 919.6,357.1 920.1,361.6 920.4,361.5 920.6,361.1 920.9,363.3 921.2,364.9 921.5,363.6 921.7,365.1 922.0,365.2 922.1,364.0 922.4,365.4 922.6,367.3 922.7,368.8 922.8,369.2 922.9,372.7 922.9,374.7 923.0,378.9 923.0,380.5 923.0,386.8 923.0,385.4 923.0,386.2 923.1,386.3 923.1,386.2 923.1,387.0 923.2,386.9 923.2,389.6 923.2,390.4 923.3,392.1 923.3,396.4 923.4,394.4 923.4,390.8 923.5,393.0 923.6,387.0 923.7,384.3 923.8,384.9 923.8,384.5 923.9,385.5 924.0,386.4 924.1,388.7 924.2,386.2 924.3,387.3 924.5,389.3 924.6,388.7 924.7,387.3 924.8,386.7 924.9,387.4 925.0,386.7 925.1,388.3 925.1,383.4 925.2,383.5 925.3,385.2 925.4,387.3 925.5,387.3 925.7,388.7 925.7,387.8 925.8,391.6 925.9,393.4 926.1,394.4 926.1,397.3 926.2,400.9 926.2,406.7 926.2,419.0 926.2,407.6 926.2,406.1 926.3,406.6 926.3,407.6 926.4,409.7 926.5,410.2 926.6,407.5 926.6,409.9 926.7,408.0 926.8,407.6 926.9,409.4 927.1,410.7 927.2,411.5 927.3,414.0 927.4,414.1 927.5,412.0 927.7,412.1 927.8,416.1 927.8,416.5 927.9,421.1 927.9,420.5 927.9,437.9 928.0,429.9 928.0,422.1 928.0,416.8 928.0,413.4 928.0,414.8 928.1,416.0 928.1,417.5 928.1,417.2 928.2,419.6 928.2,418.3 928.3,417.2 928.4,416.8 928.5,414.0 928.6,411.0 928.7,413.5 928.9,416.1 929.0,418.8 929.2,418.6 929.3,414.8 929.4,413.1 929.5,414.8 929.7,417.0 929.8,418.0 929.9,417.0 930.1,420.1 930.3,417.2 930.5,416.3 930.6,414.7 930.8,412.4 930.9,410.6 931.0,409.9 931.2,406.5 931.3,402.6 931.4,404.9 931.5,405.7 931.7,406.4 931.8,406.1 932.0,408.2 932.4,409.9 932.8,409.7 933.0,408.0 933.2,404.5 933.3,399.3 933.4,401.0 933.6,399.1 933.7,400.6 933.9,400.3 934.0,399.1" fill="none" stroke="#d97706" stroke-width="1.2" stroke-linejoin="round" opacity="0.6"/><text x="942" y="472.0" text-anchor="start" font-size="11" fill="#d97706">0.03</text><text x="942" y="396.0" text-anchor="start" font-size="11" fill="#d97706">0.03</text><text x="942" y="320.0" text-anchor="start" font-size="11" fill="#d97706">0.04</text><text x="942" y="244.0" text-anchor="start" font-size="11" fill="#d97706">0.05</text><text x="942" y="168.0" text-anchor="start" font-size="11" fill="#d97706">0.05</text><text x="942" y="92.0" text-anchor="start" font-size="11" fill="#d97706">0.06</text><text x="942" y="80.0" text-anchor="start" font-size="11" font-weight="600" fill="#d97706">price</text>
  <polygon points="167.7,468.0 167.7,389.9 167.7,379.8 216.1,368.3 216.1,372.7 216.2,378.4 260.1,355.5 378.4,340.9 396.9,346.4 418.7,353.8 448.7,324.5 457.9,330.7 517.6,339.0 527.5,350.1 560.2,364.9 570.8,306.1 574.8,285.1 575.1,261.6 575.1,269.5 597.6,238.2 636.0,246.1 649.1,256.6 670.7,270.6 687.9,215.0 709.2,191.5 759.6,199.9 854.1,166.4 868.4,174.8 916.4,141.3 922.9,149.7 927.9,116.1 927.9,124.6 928.0,135.8 928.0,468.0" fill="#16a34a" fill-opacity="0.08"/>
  <polyline points="167.7,389.9 167.7,379.8 216.1,368.3 216.1,372.7 216.2,378.4 260.1,355.5 378.4,340.9 396.9,346.4 418.7,353.8 448.7,324.5 457.9,330.7 517.6,339.0 527.5,350.1 560.2,364.9 570.8,306.1 574.8,285.1 575.1,261.6 575.1,269.5 597.6,238.2 636.0,246.1 649.1,256.6 670.7,270.6 687.9,215.0 709.2,191.5 759.6,199.9 854.1,166.4 868.4,174.8 916.4,141.3 922.9,149.7 927.9,116.1 927.9,124.6 928.0,135.8" fill="none" stroke="#16a34a" stroke-width="2" stroke-linejoin="round"/>
  <line x1="88" y1="102" x2="110" y2="102" stroke="#16a34a" stroke-width="2.5"/><text x="116" y="106" font-size="11.5" fill="#374151">equity</text><line x1="88" y1="118" x2="110" y2="118" stroke="#d97706" stroke-width="2.5" opacity="0.8"/><text x="116" y="122" font-size="11.5" fill="#374151">price</text>
  <text x="78" y="502" text-anchor="start" font-size="12" fill="#6b7280">2026-01-01</text><text x="934" y="502" text-anchor="end" font-size="12" fill="#6b7280">2026-01-31</text>
</svg>
