<?xml version="1.0" encoding="UTF-8"?>
<svg xmlns="http://www.w3.org/2000/svg" width="1000" height="520" viewBox="0 0 1000 520" font-family="ui-sans-serif, system-ui, sans-serif">
  <rect width="1000" height="520" fill="#ffffff"/>
  <text x="78" y="28" font-size="18" font-weight="700" fill="#111827">Zone Recovery — AVAXUSDT best setting (equity / PnL)</text>
  <text x="78" y="48" font-size="12.5" fill="#6b7280">lev 20 · ratio 4 · gap 20% · maxSteps 6 · maxDD 60% · random · vip 9  ·  5 series, 100.0% win · vol $3822156 ($3822162/day) · fees $584.79</text>
  <text x="78" y="68" font-size="12.5" font-weight="600" fill="#1d4ed8">USDT · BNB −10% · taker 0.0153%</text>
  <text x="934" y="28" text-anchor="end" font-size="18" font-weight="700" fill="#16a34a">+15437 USDT  (+154.37%)</text>
  <line x1="78" y1="468.0" x2="934" y2="468.0" stroke="#e5e7eb" stroke-width="1"/><text x="68" y="472.0" text-anchor="end" font-size="12" fill="#6b7280">0.00</text><line x1="78" y1="392.0" x2="934" y2="392.0" stroke="#e5e7eb" stroke-width="1"/><text x="68" y="396.0" text-anchor="end" font-size="12" fill="#6b7280">5494</text><line x1="78" y1="316.0" x2="934" y2="316.0" stroke="#e5e7eb" stroke-width="1"/><text x="68" y="320.0" text-anchor="end" font-size="12" fill="#6b7280">10989</text><line x1="78" y1="240.0" x2="934" y2="240.0" stroke="#e5e7eb" stroke-width="1"/><text x="68" y="244.0" text-anchor="end" font-size="12" fill="#6b7280">16483</text><line x1="78" y1="164.0" x2="934" y2="164.0" stroke="#e5e7eb" stroke-width="1"/><text x="68" y="168.0" text-anchor="end" font-size="12" fill="#6b7280">21977</text><line x1="78" y1="88.0" x2="934" y2="88.0" stroke="#e5e7eb" stroke-width="1"/><text x="68" y="92.0" text-anchor="end" font-size="12" fill="#6b7280">27471</text>
  <line x1="78" y1="329.7" x2="934" y2="329.7" stroke="#9ca3af" stroke-width="1.5" stroke-dasharray="6 4"/><text x="934" y="323.7" text-anchor="end" font-size="11" fill="#6b7280">start 10000</text>
  <polyline points="78.0,120.2 78.3,122.2 78.6,124.2 79.2,125.7 79.6,124.8 80.1,123.1 80.7,125.1 81.3,120.8 82.0,122.2 82.7,121.4 83.4,121.7 84.2,121.4 85.0,123.7 85.8,124.0 86.5,130.0 86.9,129.4 87.4,130.3 87.9,130.3 88.3,130.8 88.8,133.4 89.3,132.5 89.7,131.1 90.1,123.4 90.4,123.7 90.8,124.2 91.3,126.0 91.7,120.8 92.1,118.5 92.5,120.5 92.9,121.9 93.4,125.1 93.9,121.7 94.4,124.0 95.1,117.9 95.6,117.4 96.0,117.1 96.6,117.4 97.1,117.6 97.6,119.4 98.2,117.4 98.9,121.7 99.6,120.8 100.2,125.7 100.9,123.1 101.8,117.9 102.6,119.1 103.3,122.8 104.0,121.9 104.8,122.2 105.3,119.4 105.8,117.9 106.4,117.4 107.2,117.6 108.3,121.4 109.1,122.5 109.7,126.8 110.4,128.3 111.4,130.0 112.2,128.0 113.0,135.4 113.5,141.4 113.8,139.7 114.3,144.3 114.7,147.5 114.8,151.5 115.1,148.3 115.5,152.0 115.8,156.3 116.0,156.1 116.2,155.5 116.6,160.9 116.8,155.8 117.2,155.2 117.6,154.0 118.0,148.0 118.5,148.3 119.0,152.9 119.8,149.5 120.3,152.3 120.8,153.2 121.4,149.2 122.1,147.2 122.6,146.3 123.1,148.3 123.7,148.6 124.2,142.6 124.5,138.0 125.0,138.3 125.5,139.7 126.2,141.7 126.8,144.3 127.1,149.2 127.6,150.6 128.2,145.4 128.7,142.0 129.2,145.2 129.8,147.5 130.4,145.2 131.1,142.3 131.6,134.6 131.8,127.4 132.0,131.1 132.3,130.3 132.7,129.4 133.3,132.3 134.0,134.6 134.6,132.5 135.2,129.1 136.0,132.5 136.6,141.4 137.2,142.0 137.8,140.9 138.4,141.4 139.3,144.6 140.1,138.9 140.7,138.6 141.4,138.3 142.0,140.0 142.7,139.7 143.6,139.7 144.1,142.0 144.9,137.1 145.7,135.1 146.4,140.0 147.2,134.8 147.8,133.1 148.9,134.8 149.6,136.8 150.1,136.8 150.6,142.0 150.9,143.2 151.6,139.1 152.4,141.1 153.0,143.4 153.6,141.4 154.0,146.9 154.5,147.5 155.1,146.0 155.9,148.3 156.5,147.2 157.3,146.0 158.1,148.3 158.7,146.9 159.3,146.3 159.8,150.0 160.3,151.5 160.6,153.2 161.1,156.6 161.5,155.5 161.8,158.9 161.9,160.3 162.2,157.2 162.5,160.6 162.8,160.3 163.2,156.9 163.9,154.3 164.5,154.6 165.1,152.9 165.8,157.5 166.4,159.5 166.9,162.4 167.2,162.9 167.4,165.2 167.8,162.1 168.2,156.9 168.7,159.5 169.3,161.2 169.9,158.1 170.4,158.6 171.0,154.9 171.5,157.8 172.0,157.2 172.9,160.9 173.5,164.9 173.8,164.9 173.9,167.8 174.1,168.1 174.4,171.0 174.5,175.3 174.6,178.7 174.6,179.8 174.7,181.0 174.8,180.7 174.9,184.1 174.9,184.7 175.0,186.4 175.1,190.4 175.1,194.5 175.1,194.5 175.2,196.5 175.2,193.6 175.3,191.9 175.4,186.7 175.5,183.0 175.6,183.0 175.8,185.6 175.9,185.6 176.1,187.3 176.3,185.6 176.5,183.9 176.7,183.3 177.0,181.8 177.3,184.7 177.5,186.4 177.8,187.9 178.1,187.3 178.5,187.9 178.8,193.9 179.1,190.4 179.4,186.1 179.8,184.4 180.2,187.6 180.6,191.6 181.0,187.9 181.5,191.6 182.0,193.0 182.2,194.7 182.7,191.9 183.2,191.0 183.7,193.0 183.9,196.2 184.1,198.5 184.2,201.9 184.3,201.0 184.5,198.8 185.0,197.6 185.1,197.0 185.4,196.7 185.7,201.6 185.8,203.1 186.0,202.2 186.2,202.5 186.5,204.8 186.7,205.1 186.8,200.5 187.2,198.8 187.5,199.6 187.9,197.3 188.2,200.5 188.7,198.5 189.1,203.3 189.2,203.6 189.5,201.6 189.8,203.1 190.2,204.2 190.7,199.6 191.1,199.9 191.5,200.5 191.9,204.5 192.1,203.1 192.5,202.2 192.9,201.6 193.4,201.0 193.9,200.8 194.3,195.6 194.7,193.0 194.9,187.0 195.2,183.0 195.4,185.0 195.7,179.0 196.0,181.6 196.4,181.8 197.0,184.4 197.4,189.3 197.7,192.2 198.0,193.0 198.5,193.9 199.0,189.3 199.8,191.3 200.3,194.5 200.8,197.6 201.3,197.9 201.6,202.8 201.7,204.8 201.8,206.8 201.9,205.6 202.1,209.9 202.2,207.4 202.5,205.9 202.9,200.5 203.3,197.0 203.5,193.0 203.9,190.4 204.3,189.6 204.8,191.3 205.5,193.9 206.2,194.2 206.7,193.6 207.3,195.9 207.8,199.9 208.7,199.6 209.3,200.5 209.8,207.1 210.3,205.1 210.8,206.8 210.8,214.5 211.0,213.4 211.2,209.4 211.7,210.2 212.2,208.5 212.5,207.9 212.9,211.4 213.3,213.4 213.6,214.8 213.9,217.7 214.1,217.7 214.4,214.8 214.8,214.5 215.2,216.5 215.6,216.2 216.0,217.7 216.3,218.2 216.6,217.4 216.9,219.4 217.1,223.1 217.3,222.5 217.6,224.5 217.8,220.5 218.2,220.0 218.6,220.8 219.2,221.7 219.5,224.8 219.8,226.6 220.1,230.6 220.2,231.4 220.4,231.4 220.7,230.0 220.8,229.7 221.0,231.4 221.3,233.1 221.4,232.6 221.6,231.4 221.9,235.2 222.0,231.4 222.2,231.7 222.4,233.1 222.6,233.4 222.9,232.6 223.1,236.3 223.2,235.4 223.4,230.3 223.5,225.7 223.7,227.1 223.8,228.0 224.1,227.4 224.3,224.3 224.4,221.7 224.6,216.8 224.8,213.9 225.0,208.2 225.1,205.3 225.2,207.1 225.4,204.8 225.5,203.1 225.7,202.5 226.0,208.5 226.2,207.4 226.6,204.8 227.0,202.8 227.4,205.3 227.7,203.9 228.1,199.9 228.4,205.3 228.9,205.1 229.5,202.8 229.8,200.2 230.0,199.3 230.1,200.8 230.2,205.3 230.6,206.2 230.9,206.5 231.3,204.5 231.4,210.2 231.8,203.6 232.4,205.3 232.9,207.6 233.3,207.4 233.8,205.9 234.4,207.9 235.0,206.5 235.6,201.9 235.8,194.7 236.1,190.4 236.2,185.0 236.3,186.1 236.6,184.7 236.9,185.6 237.4,191.3 237.8,189.0 238.4,189.0 238.7,190.7 239.1,197.0 239.2,197.9 239.5,199.9 239.9,199.3 240.4,200.8 241.2,201.6 242.0,202.8 242.4,199.0 243.0,201.3 243.6,198.5 244.2,198.5 244.7,201.3 245.3,200.2 245.9,201.6 246.5,205.3 246.9,205.9 247.5,205.6 248.0,205.3 248.5,211.4 248.9,215.4 249.3,212.8 249.8,215.4 250.4,211.4 250.9,203.6 251.3,203.9 251.6,199.0 252.1,196.7 252.8,195.6 253.3,189.3 253.7,192.7 254.4,194.7 254.9,194.2 255.4,191.6 255.7,189.6 255.7,187.3 255.7,185.6 255.8,184.1 255.8,185.0 255.9,185.9 256.1,183.6 256.3,182.1 256.4,181.0 256.5,175.8 256.6,182.7 256.9,184.7 257.2,187.9 257.6,183.3 257.9,183.9 258.3,187.3 258.7,189.6 259.2,193.3 259.6,190.7 260.0,191.6 260.4,194.7 260.8,195.6 261.1,197.0 261.6,202.5 262.2,205.1 262.6,205.9 263.2,204.8 263.6,206.8 264.3,207.1 265.2,207.6 265.8,206.8 266.3,208.8 267.0,211.1 267.5,209.4 268.2,206.5 268.8,204.2 269.2,202.2 269.8,206.8 270.5,205.1 271.3,206.8 271.9,203.1 272.4,199.3 272.8,195.6 273.2,195.9 274.0,203.6 274.5,199.6 274.9,197.6 275.4,201.0 276.0,200.5 276.7,205.6 277.5,211.1 277.7,215.1 277.8,217.4 278.0,221.1 278.3,213.9 278.6,218.5 278.8,220.0 278.8,226.3 278.8,226.3 278.9,225.1 279.0,221.7 279.2,222.0 279.5,221.1 279.8,222.3 280.3,218.5 280.8,221.7 280.9,227.1 281.2,226.0 281.5,224.5 281.7,227.7 282.0,228.8 282.1,230.6 282.2,227.1 282.5,232.3 282.7,232.6 282.9,232.6 283.2,232.9 283.4,234.6 283.5,240.0 283.6,242.0 283.6,238.0 283.8,241.2 283.9,242.3 284.0,245.2 284.0,242.0 284.2,242.9 284.3,240.3 284.4,241.2 284.6,246.3 284.6,249.2 284.6,248.3 284.7,250.1 284.7,245.2 284.9,245.2 285.0,242.0 285.3,241.5 285.5,240.9 286.0,242.0 286.2,239.5 286.6,235.7 286.8,234.0 287.2,233.7 287.5,230.6 287.9,230.9 288.3,238.6 288.6,234.6 288.8,240.6 289.1,238.0 289.5,243.5 289.8,242.6 289.9,247.5 290.0,246.0 290.3,241.5 290.6,247.2 290.7,244.3 290.8,248.9 290.9,247.2 291.1,244.6 291.3,244.0 291.6,249.2 291.9,247.2 292.0,249.2 292.1,247.8 292.3,249.5 292.4,249.2 292.5,252.3 292.6,249.8 292.6,254.1 292.7,250.1 292.8,253.2 292.9,242.9 293.0,246.6 293.2,247.5 293.3,246.9 293.5,250.6 293.7,249.5 293.8,256.1 293.9,259.5 293.9,260.4 293.9,262.4 294.0,262.1 294.0,262.1 294.1,259.2 294.2,260.1 294.3,260.7 294.4,264.1 294.4,257.2 294.5,256.1 294.6,256.4 294.7,258.9 294.9,258.1 295.1,254.9 295.3,253.8 295.5,248.1 295.6,248.3 295.8,247.2 296.1,245.2 296.3,241.2 296.4,240.9 296.8,243.8 297.1,242.0 297.4,243.5 297.8,247.8 298.1,253.2 298.4,257.5 298.6,255.5 298.9,253.5 299.3,255.8 299.6,257.8 299.8,260.4 300.1,261.8 300.3,262.7 300.5,261.2 300.7,263.2 300.9,260.1 301.1,259.8 301.3,263.2 301.5,266.4 301.6,265.8 301.7,266.1 301.8,265.5 302.0,263.8 302.1,265.0 302.3,268.1 302.4,269.3 302.5,269.3 302.6,272.4 302.7,269.5 302.8,267.5 303.0,271.3 303.1,276.4 303.1,277.9 303.1,280.7 303.2,282.4 303.2,281.9 303.3,282.2 303.3,283.0 303.4,280.7 303.4,281.9 303.5,280.4 303.6,282.2 303.7,287.6 303.7,286.7 303.8,286.5 303.9,283.9 304.0,280.4 304.1,282.2 304.2,284.4 304.3,284.7 304.4,288.5 304.5,290.5 304.5,289.9 304.6,290.8 304.6,292.5 304.6,293.0 304.7,293.0 304.8,289.6 304.9,289.6 305.0,289.9 305.1,292.2 305.2,294.8 305.3,295.3 305.3,293.9 305.4,299.4 305.5,294.8 305.6,298.5 305.7,301.4 305.7,305.7 305.7,307.4 305.8,306.5 305.8,302.2 305.9,300.8 305.9,298.8 306.0,296.2 306.1,300.2 306.2,301.6 306.3,305.1 306.3,302.5 306.4,307.7 306.5,313.1 306.5,317.1 306.5,317.7 306.5,320.0 306.5,318.8 306.5,320.3 306.6,317.7 306.6,319.7 306.6,318.0 306.6,320.8 306.7,313.1 306.7,308.8 306.8,313.7 306.8,305.9 306.9,305.4 306.9,300.5 306.9,301.6 307.0,301.1 307.1,303.1 307.1,305.1 307.2,305.9 307.2,305.4 307.3,303.4 307.3,300.2 307.4,300.5 307.5,298.2 307.5,292.8 307.6,292.8 307.7,293.6 307.8,290.2 308.0,293.0 308.1,295.3 308.1,291.9 308.3,287.9 308.5,285.6 308.6,285.0 308.7,284.2 308.9,284.2 309.0,284.4 309.2,284.2 309.3,280.7 309.4,287.3 309.6,285.9 309.8,285.3 309.9,285.0 310.0,281.6 310.1,286.5 310.2,283.0 310.2,283.9 310.3,281.9 310.4,286.5 310.5,285.0 310.6,286.7 310.8,288.2 311.0,284.2 311.1,279.6 311.2,281.3 311.4,278.4 311.6,281.3 311.7,282.4 311.9,277.9 312.1,275.6 312.3,275.9 312.5,281.0 312.7,285.3 312.9,287.3 313.0,288.5 313.3,290.8 313.5,280.7 313.7,276.7 313.8,278.1 314.0,276.4 314.2,282.2 314.5,283.9 314.7,279.9 315.0,281.3 315.3,280.7 315.6,274.1 315.8,277.9 316.0,276.4 316.2,278.1 316.4,278.7 316.6,277.6 316.9,275.9 317.1,274.1 317.3,275.9 317.6,280.4 318.0,273.8 318.2,267.8 318.3,263.2 318.4,256.9 318.5,259.2 318.7,259.5 318.8,257.2 319.0,260.9 319.2,263.8 319.4,268.7 319.7,275.3 320.0,271.0 320.3,273.3 320.6,269.3 320.8,268.7 321.1,269.8 321.2,274.1 321.3,273.0 321.5,275.6 321.8,277.6 322.0,280.1 322.3,279.0 322.5,275.3 322.8,278.1 323.0,281.0 323.2,279.3 323.5,278.7 323.8,274.1 324.1,267.8 324.3,267.0 324.7,265.5 325.0,265.0 325.3,267.3 325.6,268.4 326.0,267.3 326.4,266.7 326.7,266.1 327.1,271.3 327.5,269.8 327.8,270.7 327.9,268.1 328.2,271.0 328.4,270.7 328.6,274.4 328.7,276.7 328.9,277.6 329.1,281.0 329.3,278.1 329.5,282.4 329.7,280.1 330.0,279.0 330.2,282.2 330.5,281.9 330.8,285.3 331.0,281.3 331.3,286.5 331.4,290.8 331.5,291.6 331.6,289.9 331.9,292.5 332.0,297.6 332.0,299.6 332.1,295.1 332.3,292.8 332.5,292.5 332.7,289.9 333.0,291.3 333.1,292.2 333.5,293.0 333.7,295.1 333.8,292.2 334.0,298.2 334.2,295.9 334.4,299.1 334.6,298.2 334.8,301.9 334.9,304.8 335.1,298.5 335.3,297.3 335.5,296.2 335.7,299.6 336.0,300.5 336.2,301.4 336.5,303.4 336.6,301.4 336.7,303.1 336.9,298.2 337.1,301.9 337.3,297.3 337.5,297.9 337.8,292.5 338.0,297.1 338.3,295.9 338.5,291.3 338.7,293.3 339.0,297.3 339.3,293.3 339.6,295.6 339.9,295.6 340.2,293.6 340.5,287.9 340.8,286.5 340.9,284.2 341.2,283.6 341.5,280.7 341.8,277.3 341.9,276.4 341.9,274.4 342.1,271.6 342.3,278.4 342.6,281.0 342.9,278.4 343.1,273.6 343.3,267.3 343.3,265.2 343.5,267.0 343.8,264.4 343.9,257.8 344.1,260.7 344.4,259.5 344.6,260.4 344.9,260.1 345.2,263.5 345.4,263.2 345.6,264.7 345.8,260.4 346.0,259.5 346.2,263.5 346.3,263.8 346.6,267.5 346.8,264.4 347.0,259.5 347.3,257.8 347.5,254.1 347.6,256.1 347.8,252.1 348.0,252.6 348.2,252.6 348.5,255.2 348.9,253.5 349.1,253.2 349.3,251.8 349.5,255.8 349.7,250.6 349.9,252.3 350.1,251.5 350.4,249.8 350.6,248.1 350.9,246.9 351.2,252.1 351.5,250.3 351.8,251.8 352.1,247.2 352.3,244.9 352.7,244.0 353.0,244.3 353.3,244.6 353.6,243.2 353.9,246.0 354.3,243.2 354.5,239.2 354.5,239.2 354.7,236.3 355.0,235.4 355.1,230.0 355.3,237.2 355.5,240.3 355.7,244.3 355.8,242.3 356.2,237.2 356.4,234.9 356.6,234.3 356.9,234.9 357.2,236.3 357.5,236.3 357.7,239.7 358.0,242.6 358.4,236.3 358.7,239.2 358.9,238.9 359.2,237.7 359.5,243.5 359.7,240.3 359.9,240.0 360.2,238.9 360.4,238.3 360.8,239.7 361.2,241.2 361.5,242.9 362.0,238.6 362.4,236.6 362.8,236.6 363.1,237.4 363.4,234.9 363.6,236.9 363.9,236.3 364.1,236.6 364.4,240.0 364.6,242.0 365.0,240.9 365.3,243.2 365.7,242.3 366.1,245.5 366.5,245.8 366.8,248.6 367.1,244.9 367.5,242.3 367.7,246.0 368.1,244.9 368.6,248.3 368.8,249.8 369.3,251.5 369.6,252.6 370.0,254.6 370.5,252.9 371.0,252.9 371.5,254.1 372.1,252.9 372.4,254.9 372.9,258.9 373.2,257.8 373.6,258.9 374.1,258.7 374.7,257.2 375.3,257.2 375.8,258.7 376.3,257.5 376.7,257.2 377.2,258.1 378.0,261.8 378.7,260.4 379.4,260.1 379.9,256.1 380.4,258.4 381.0,256.9 381.4,259.2 382.0,255.8 382.4,253.8 382.7,255.5 383.1,263.5 383.4,265.0 383.9,267.8 384.3,268.4 384.9,269.8 385.3,273.0 385.7,276.1 386.1,277.6 386.4,280.1 386.7,280.4 387.1,285.6 387.6,286.5 387.9,278.1 388.2,276.7 388.7,276.1 389.2,277.6 389.9,277.6 390.3,278.7 390.8,277.9 391.3,276.7 391.8,277.0 392.2,274.4 392.8,272.7 393.4,274.7 394.1,279.0 394.4,281.0 394.9,280.7 395.4,282.4 396.0,277.0 396.4,280.1 397.0,279.0 397.4,276.1 398.1,275.9 399.0,276.7 399.2,275.3 399.3,271.3 399.5,273.6 400.2,271.3 400.5,266.4 400.8,267.8 401.4,269.0 401.6,272.7 402.0,271.8 402.4,275.3 402.9,273.8 403.3,272.7 403.9,275.0 404.4,269.3 404.9,264.7 405.5,265.2 406.0,267.8 406.8,271.3 406.8,265.5 406.8,267.0 406.9,259.2 407.0,259.2 407.2,252.9 407.3,250.1 407.4,247.2 407.5,249.8 407.6,248.3 407.8,251.2 408.0,240.9 408.0,246.0 408.1,249.2 408.3,251.5 408.6,253.2 408.9,251.8 409.2,252.1 409.7,256.9 410.2,253.8 410.7,252.1 411.1,260.7 411.6,258.9 412.2,261.5 412.7,255.8 413.4,256.1 414.0,251.2 414.6,254.1 415.2,255.5 416.0,250.9 416.5,250.9 416.9,250.1 417.3,254.1 417.7,254.9 418.2,259.2 418.7,255.8 419.2,257.5 419.7,256.1 420.4,258.7 421.0,256.4 421.6,256.4 422.3,259.5 423.1,260.4 423.9,260.4 424.7,261.5 425.7,260.7 426.3,258.7 426.8,256.6 427.3,256.6 428.0,256.4 428.8,259.2 429.5,255.5 430.0,252.3 430.6,252.6 431.5,253.8 432.3,253.5 432.9,250.6 433.9,252.9 434.7,248.9 435.1,247.2 435.4,246.0 435.8,248.9 436.3,249.2 436.8,247.5 437.3,250.6 437.7,251.2 438.2,251.2 438.5,254.9 438.7,256.1 439.2,254.1 439.9,253.5 440.7,255.2 441.2,260.7 441.7,258.1 442.0,262.7 442.4,262.4 443.1,264.4 443.9,265.2 444.2,270.4 444.7,268.7 445.0,270.7 445.5,278.7 446.0,279.3 446.6,277.9 447.2,275.0 447.6,272.1 448.3,270.7 448.8,273.0 449.6,268.7 450.2,268.7 450.9,270.1 451.9,268.7 452.6,267.8 453.1,262.4 453.6,265.2 454.2,263.5 454.7,262.4 455.4,262.4 456.1,265.8 456.5,274.4 457.0,274.4 457.6,273.6 458.4,272.4 459.1,270.7 459.7,273.8 460.8,269.8 461.4,263.0 461.9,267.0 462.5,264.4 463.0,267.8 463.6,271.8 464.2,273.8 465.0,272.4 465.6,276.7 466.1,280.4 466.6,278.1 467.1,279.3 467.6,279.9 468.1,282.2 468.4,281.3 469.0,277.6 469.9,277.0 470.6,279.3 471.1,284.2 471.4,285.0 471.8,284.7 472.2,284.4 472.7,289.9 473.0,290.8 473.3,285.0 473.7,287.6 474.1,290.8 474.4,288.5 474.7,287.0 475.3,289.3 475.8,289.9 476.3,296.2 476.7,289.3 477.2,291.6 477.6,287.0 478.4,289.6 479.3,291.9 479.8,294.2 480.1,291.9 480.4,287.3 480.8,285.9 481.1,281.3 481.6,280.1 482.0,280.7 482.5,282.2 483.1,282.2 483.6,280.7 484.0,277.3 484.6,280.7 484.8,289.0 484.8,291.9 484.9,289.3 485.2,290.2 485.8,287.9 486.4,285.0 487.0,280.7 487.6,279.6 488.3,277.6 488.7,281.0 489.1,285.0 489.7,286.5 490.1,284.4 490.8,283.3 491.5,281.9 492.1,281.6 492.6,286.7 493.1,287.3 493.9,286.5 494.1,285.3 494.6,287.0 495.1,286.5 495.9,288.2 496.6,289.3 497.1,292.5 497.4,293.0 497.6,295.6 498.0,293.0 498.4,291.9 498.9,293.0 499.4,289.9 499.8,292.2 500.4,288.7 501.0,289.9 501.5,292.5 502.3,291.3 502.8,301.6 503.0,301.1 503.3,303.4 503.6,299.9 503.8,295.6 504.3,296.2 504.9,297.6 505.5,299.4 506.0,299.9 506.2,303.1 506.4,303.4 506.7,303.4 506.9,307.4 507.0,309.4 507.2,310.8 507.3,312.2 507.5,307.9 507.7,310.8 508.0,308.8 508.3,312.2 508.5,312.8 508.8,312.8 509.0,314.5 509.1,315.7 509.2,313.1 509.4,316.8 509.7,308.8 509.9,306.2 510.1,297.3 510.2,295.9 510.3,293.6 510.5,293.9 510.8,294.5 511.0,297.3 511.4,300.8 511.9,305.1 512.3,302.2 512.6,295.6 512.9,297.1 513.2,298.8 513.7,300.5 514.1,298.5 514.9,299.9 515.3,297.1 515.7,296.2 516.0,299.4 516.3,293.9 516.8,293.6 517.2,291.9 517.5,290.2 517.9,289.0 518.2,293.0 518.6,299.1 519.1,298.8 519.5,297.3 519.9,292.8 520.3,289.6 520.6,286.7 521.0,292.8 521.5,295.6 522.0,293.9 522.6,297.1 522.9,301.1 523.5,303.4 523.7,305.4 523.8,296.8 523.9,294.2 523.9,294.2 523.9,291.6 523.9,294.8 524.0,298.5 524.1,301.1 524.2,299.9 524.3,298.5 524.5,303.1 524.6,310.0 524.6,307.7 524.7,309.4 524.9,306.5 525.0,308.2 525.2,305.9 525.5,303.1 525.9,303.9 526.3,309.4 526.6,308.8 526.8,310.8 527.0,310.8 527.3,312.5 527.5,315.1 527.6,316.8 527.9,311.7 528.1,308.8 528.3,306.2 528.6,302.5 528.9,302.8 529.3,298.2 529.7,302.5 530.1,306.5 530.5,302.8 531.0,305.4 531.6,303.9 532.1,293.6 532.6,300.2 533.0,297.6 533.4,304.5 533.6,308.5 534.0,303.9 534.6,304.2 535.2,301.1 535.8,304.8 536.2,307.7 536.6,313.1 537.0,308.5 537.4,305.4 537.8,303.4 538.4,307.4 539.2,306.2 539.7,303.7 540.2,303.4 540.9,302.2 541.1,299.4 541.6,297.6 541.8,293.9 542.1,291.3 542.4,292.5 542.7,292.2 543.0,294.2 543.2,290.2 543.4,289.3 543.7,285.9 543.9,284.7 544.2,286.7 544.6,283.3 544.7,281.6 544.8,280.7 545.0,279.0 545.3,287.9 545.4,286.7 545.8,284.4 546.1,283.6 546.6,283.3 547.0,285.0 547.6,284.2 548.1,283.0 548.7,283.9 549.2,278.4 549.5,283.6 549.9,281.0 550.2,278.7 550.6,283.0 551.2,283.9 551.5,283.6 552.0,282.2 552.4,276.7 552.9,276.4 553.4,275.9 553.9,273.0 554.1,267.5 554.3,267.0 554.6,269.5 555.0,273.0 555.5,273.0 556.0,271.0 556.6,268.7 557.0,265.0 557.3,266.7 557.7,268.1 557.9,266.7 558.3,267.0 558.7,269.5 559.4,273.0 559.6,277.3 559.8,277.3 560.2,277.9 560.5,271.0 560.7,263.5 560.9,267.3 561.2,267.0 561.6,263.8 562.0,261.5 562.3,259.5 562.5,265.2 562.8,262.1 563.1,264.4 563.3,266.1 563.7,264.7 563.9,267.5 564.3,271.0 564.5,272.7 564.9,277.6 565.3,279.0 565.5,277.3 565.8,281.9 566.1,281.3 566.3,282.2 566.6,283.9 566.8,285.3 567.2,289.0 567.5,288.2 567.9,287.6 568.3,291.6 568.5,289.0 568.8,292.5 568.9,296.2 569.2,291.3 569.5,295.1 569.8,295.6 570.2,297.6 570.4,300.8 570.7,301.1 570.9,301.6 571.0,305.1 571.2,307.4 571.3,311.4 571.5,307.7 571.7,308.5 572.0,303.9 572.2,303.9 572.4,306.2 572.6,307.4 572.8,310.0 572.9,305.1 573.1,308.2 573.4,312.5 573.6,312.5 573.9,312.8 574.2,313.1 574.5,314.5 574.7,316.5 574.9,319.1 575.0,319.1 575.2,320.6 575.3,322.6 575.3,325.1 575.3,326.9 575.3,329.2 575.4,327.2 575.4,324.3 575.5,321.4 575.6,325.7 575.7,328.6 575.8,327.7 575.9,329.7 576.0,328.3 576.1,331.5 576.2,326.3 576.4,328.6 576.6,326.3 576.8,328.9 577.1,326.3 577.4,327.7 577.5,326.3 577.6,322.9 577.8,322.9 577.9,320.3 578.1,323.1 578.2,331.7 578.3,335.5 578.3,334.0 578.4,334.3 578.5,330.9 578.6,329.2 578.7,323.4 578.8,325.1 578.9,320.3 579.0,323.7 579.2,327.7 579.4,327.7 579.5,330.3 579.7,331.7 579.8,335.8 579.9,339.5 580.0,338.6 580.1,339.2 580.1,341.5 580.2,342.1 580.2,339.8 580.4,339.2 580.5,333.2 580.7,339.5 580.8,343.2 580.8,341.2 580.9,341.5 581.0,346.6 581.0,342.6 581.1,337.5 581.1,343.8 581.2,346.6 581.2,352.4 581.3,349.8 581.3,350.1 581.3,346.9 581.3,346.9 581.3,348.4 581.4,341.2 581.5,341.5 581.6,341.8 581.6,334.9 581.7,334.0 581.8,332.9 581.9,331.7 582.1,334.0 582.2,331.5 582.3,324.3 582.5,320.3 582.6,318.6 582.7,316.3 582.9,314.5 583.0,312.5 583.1,314.0 583.3,309.4 583.4,311.7 583.6,312.5 583.8,315.7 584.0,323.1 584.1,324.9 584.3,325.4 584.5,324.9 584.8,327.7 585.1,323.7 585.4,317.4 585.6,319.7 585.9,319.7 586.3,318.6 586.5,314.8 586.7,313.4 586.9,305.9 587.1,304.2 587.3,307.7 587.5,308.8 587.7,309.1 588.0,306.2 588.3,308.2 588.6,312.0 588.9,309.4 589.3,301.4 589.6,302.5 589.9,299.6 590.1,301.4 590.3,306.5 590.5,305.9 590.8,309.1 591.2,310.0 591.7,310.8 592.0,315.1 592.2,314.8 592.6,314.0 592.9,320.0 593.1,320.0 593.4,319.1 593.7,316.0 594.0,318.8 594.5,317.4 594.8,316.0 595.2,307.4 595.3,307.4 595.7,310.2 595.9,309.4 596.3,312.5 596.6,317.1 596.9,314.3 597.1,312.2 597.5,311.4 597.8,309.7 598.0,299.6 598.0,297.3 598.1,296.8 598.2,302.2 598.4,294.2 598.6,297.6 598.8,299.4 599.0,298.8 599.1,291.0 599.2,294.2 599.4,295.3 599.6,290.2 599.7,292.8 599.8,287.9 599.8,287.3 600.0,287.9 600.1,292.2 600.3,295.9 600.6,297.3 601.0,298.2 601.2,300.2 601.6,297.3 602.0,299.1 602.3,298.2 602.6,297.1 602.9,293.9 603.2,299.6 603.5,299.1 603.8,302.5 604.1,297.3 604.4,293.3 604.7,288.7 604.8,290.2 605.0,291.0 605.3,293.6 605.6,293.3 605.9,297.1 606.3,298.8 606.7,299.9 607.0,303.1 607.3,305.4 607.6,297.3 607.8,293.6 608.1,296.5 608.4,298.5 608.8,299.9 609.3,300.8 609.7,302.2 610.1,307.9 610.3,312.2 610.6,309.1 610.9,306.5 611.2,302.8 611.7,294.8 612.0,301.4 612.4,301.1 613.0,300.8 613.3,298.2 613.6,304.2 613.7,307.7 613.7,311.4 613.8,304.8 613.9,304.2 614.1,303.4 614.3,307.4 614.5,307.7 614.8,303.9 614.9,299.6 615.2,299.4 615.4,299.1 615.7,301.6 616.0,299.6 616.5,302.8 616.7,307.1 617.0,303.1 617.4,304.5 617.9,305.4 618.3,308.2 618.5,313.7 618.7,312.2 619.0,311.7 619.3,313.7 619.6,314.0 619.9,318.8 620.1,319.4 620.2,317.1 620.4,320.0 620.7,322.0 620.8,322.3 621.1,321.1 621.4,322.9 621.8,324.3 622.0,324.9 622.0,326.6 622.2,329.4 622.4,331.2 622.5,333.2 622.6,332.9 622.7,332.0 622.9,330.0 623.1,330.3 623.2,324.9 623.3,323.7 623.6,322.6 623.8,317.4 624.0,318.3 624.4,318.6 624.7,321.4 625.0,317.7 625.3,325.1 625.5,331.2 625.8,332.0 626.0,328.9 626.3,330.3 626.7,327.4 627.0,322.6 627.0,320.0 627.2,324.0 627.4,324.0 627.9,321.7 628.2,318.8 628.4,319.1 628.6,320.8 628.8,318.3 629.1,321.7 629.4,322.6 629.8,330.0 630.1,334.0 630.3,336.3 630.5,337.8 630.8,334.3 631.0,333.2 631.3,333.5 631.6,327.2 631.8,330.6 632.1,329.2 632.4,337.2 632.5,341.2 632.7,338.6 633.0,339.5 633.3,337.2 633.7,335.8 633.9,332.6 634.3,337.2 634.5,340.9 634.7,344.9 634.9,346.4 635.0,345.8 635.2,348.6 635.2,351.5 635.4,350.1 635.6,347.8 635.7,345.2 635.9,346.4 636.0,347.2 636.3,344.9 636.6,350.1 636.6,350.4 636.8,352.7 636.9,350.9 637.1,352.4 637.3,348.9 637.4,350.4 637.6,348.6 637.8,350.1 638.0,348.1 638.1,344.9 638.3,343.2 638.5,342.3 638.7,339.2 638.9,339.2 639.1,336.0 639.3,342.1 639.4,344.6 639.7,344.3 639.9,346.4 640.2,352.4 640.3,354.1 640.3,357.5 640.4,359.5 640.5,359.8 640.6,359.3 640.7,356.1 640.9,355.5 641.1,351.8 641.2,354.1 641.3,359.5 641.4,363.8 641.5,363.3 641.6,363.8 641.7,364.1 641.8,363.3 641.9,364.1 641.9,365.0 642.1,360.4 642.2,357.8 642.5,353.8 642.5,348.6 642.6,347.8 642.7,342.3 642.8,349.8 642.9,346.9 643.1,351.2 643.3,348.1 643.5,346.1 643.8,344.3 644.0,346.1 644.3,344.3 644.6,343.5 644.9,345.2 645.2,345.2 645.7,346.4 646.0,344.9 646.4,345.2 646.7,344.3 647.1,345.5 647.4,344.3 647.8,346.9 648.2,350.9 648.7,351.8 648.8,356.4 649.0,360.1 649.1,363.6 649.2,363.6 649.3,366.7 649.4,364.1 649.5,363.0 649.7,363.6 649.8,367.3 649.9,369.9 650.0,371.0 650.1,371.9 650.1,372.7 650.2,371.9 650.3,371.0 650.5,371.9 650.6,368.7 650.7,369.6 650.9,367.3 651.2,369.9 651.4,370.1 651.6,367.3 651.8,369.0 652.0,365.0 652.2,365.6 652.4,363.8 652.5,357.5 652.6,354.1 652.8,352.9 653.0,350.4 653.2,358.1 653.5,357.2 653.7,361.8 654.0,365.0 654.0,367.3 654.1,365.3 654.2,366.1 654.2,367.3 654.3,366.1 654.5,361.0 654.6,363.0 654.8,364.7 655.0,363.6 655.2,366.1 655.2,367.6 655.4,367.0 655.5,366.4 655.6,369.3 655.7,369.6 655.8,373.9 655.9,377.6 655.9,379.0 655.9,381.0 656.0,379.3 656.0,377.6 656.1,368.4 656.2,366.7 656.2,363.8 656.2,360.1 656.3,358.4 656.3,358.1 656.4,361.5 656.5,356.1 656.5,355.2 656.6,359.8 656.6,352.1 656.7,352.1 656.8,351.2 656.9,348.4 656.9,351.2 656.9,348.4 657.0,340.9 657.0,341.8 657.1,339.5 657.2,340.9 657.2,341.8 657.3,340.3 657.3,334.3 657.4,332.6 657.5,335.5 657.6,338.3 657.6,341.8 657.7,338.6 657.8,333.5 657.9,331.2 657.9,324.0 658.0,328.9 658.1,326.9 658.2,326.0 658.2,329.4 658.3,331.2 658.4,329.2 658.6,333.5 658.7,330.9 658.8,334.3 659.0,336.3 659.1,335.8 659.2,337.5 659.3,336.9 659.4,338.9 659.5,328.0 659.5,330.0 659.6,327.2 659.7,324.9 659.8,330.9 659.8,331.5 660.0,326.9 660.1,329.7 660.2,330.3 660.5,331.5 660.6,332.6 660.7,331.5 660.9,329.2 661.1,332.0 661.3,329.2 661.4,321.4 661.4,322.6 661.5,323.4 661.7,319.7 661.7,317.7 661.8,323.1 661.9,318.8 662.0,320.8 662.2,316.3 662.3,319.4 662.4,323.4 662.5,319.4 662.7,321.1 662.9,326.6 663.1,328.0 663.4,322.9 663.6,326.3 663.8,330.6 664.1,328.9 664.2,332.0 664.4,334.6 664.6,334.9 664.9,330.9 665.1,332.3 665.3,333.5 665.5,336.3 665.8,339.2 666.0,342.3 666.2,341.8 666.5,345.2 666.6,344.9 666.8,342.9 667.1,337.2 667.3,336.9 667.5,340.6 667.8,340.9 668.1,341.5 668.5,340.6 668.8,346.4 669.0,346.6 669.4,347.8 669.7,344.1 670.0,340.3 670.2,342.1 670.6,342.3 670.8,345.2 671.1,341.2 671.3,341.8 671.4,338.3 671.6,337.5 671.8,340.0 672.0,343.5 672.5,343.8 672.8,344.1 673.2,344.1 673.5,344.6 673.8,345.8 674.2,347.2 674.5,348.1 674.9,345.5 675.2,344.9 675.6,342.1 675.9,338.0 676.1,336.6 676.3,334.9 676.6,335.5 676.8,340.9 677.2,335.8 677.5,335.8 677.7,332.0 677.9,325.4 678.1,332.6 678.3,328.9 678.5,325.7 678.6,322.0 678.8,319.4 678.9,316.8 679.0,317.4 679.2,313.1 679.2,311.4 679.3,308.2 679.4,308.2 679.5,310.0 679.7,312.8 679.9,312.5 680.2,308.5 680.4,308.2 680.6,306.8 680.9,310.2 681.1,305.1 681.4,306.8 681.5,305.1 681.7,308.5 682.0,307.7 682.3,301.9 682.6,306.8 682.8,304.2 683.1,303.1 683.4,305.9 683.7,300.2 684.0,300.2 684.4,303.1 684.5,297.6 684.6,293.3 684.7,292.8 684.9,293.9 685.0,296.8 685.1,296.2 685.3,298.2 685.5,301.4 685.7,303.7 686.1,304.5 686.3,303.4 686.6,297.3 686.9,299.9 687.1,292.8 687.3,293.6 687.6,298.2 687.9,299.1 688.2,305.7 688.5,302.5 688.9,300.5 689.4,299.1 689.7,297.6 690.0,297.1 690.3,297.1 690.5,298.5 691.0,299.9 691.2,307.9 691.4,311.4 691.6,313.4 691.8,308.2 692.2,310.0 692.7,307.7 693.3,308.5 693.5,310.8 693.8,312.8 694.1,314.0 694.4,314.8 694.9,319.1 695.2,318.8 695.6,320.3 696.0,321.7 696.3,323.7 696.8,323.4 697.2,321.7 697.5,316.5 697.9,311.4 698.3,316.3 698.8,322.0 699.2,319.1 699.7,321.7 700.1,324.9 700.5,322.9 701.0,318.3 701.4,320.0 701.9,324.9 702.3,324.9 702.8,321.1 703.2,322.3 703.6,326.3 704.1,320.8 704.6,319.4 705.0,315.4 705.5,316.5 706.0,314.3 706.5,313.7 707.0,316.3 707.6,314.5 708.1,313.4 708.5,307.1 708.7,302.2 708.9,308.5 709.3,311.1 709.9,309.7 710.6,308.8 711.0,316.8 711.3,314.5 711.9,315.7 712.4,317.7 713.0,316.5 713.5,318.0 713.9,318.6 714.4,318.0 715.0,318.8 715.5,318.3 716.2,316.3 716.8,317.7 717.2,320.0 717.7,319.1 718.4,315.1 719.2,314.0 720.1,316.3 720.6,310.5 720.9,309.4 721.3,307.9 721.7,313.4 722.0,317.1 722.2,314.3 722.6,314.5 723.0,313.4 723.4,312.8 724.0,308.5 724.3,304.8 724.8,304.2 725.3,310.0 726.0,313.1 726.4,316.5 727.0,317.4 727.4,318.8 727.8,314.8 728.4,314.8 728.9,320.0 729.2,320.8 729.6,322.6 730.0,324.3 730.5,321.7 731.1,322.6 731.6,325.4 731.9,329.7 732.2,331.5 732.4,327.4 732.5,324.6 732.9,328.6 733.2,330.9 733.6,332.0 734.0,334.0 734.3,334.6 734.6,336.3 735.0,335.5 735.5,337.2 735.8,341.2 736.1,339.8 736.4,338.9 736.9,337.8 737.3,342.6 737.6,344.9 737.9,343.5 738.2,344.9 738.3,347.2 738.6,343.8 738.8,342.3 739.0,346.1 739.2,350.1 739.5,349.5 739.9,348.1 740.3,343.8 740.8,345.2 741.2,346.9 741.6,350.1 741.9,350.7 742.2,354.4 742.3,358.7 742.3,353.8 742.5,353.2 742.8,350.9 743.2,350.4 743.4,342.1 743.8,340.3 744.1,336.3 744.4,339.5 744.7,343.2 745.1,345.8 745.6,349.5 746.0,352.1 746.2,355.0 746.2,359.0 746.4,354.1 746.7,347.2 746.9,350.1 747.2,356.1 747.5,356.4 747.7,358.7 748.0,362.1 748.2,360.4 748.4,355.0 748.6,358.1 749.0,358.7 749.3,353.2 749.7,355.8 750.1,357.0 750.4,356.4 750.6,362.1 750.7,362.7 750.8,364.1 751.0,364.1 751.1,366.7 751.3,370.4 751.3,371.9 751.4,373.0 751.5,371.0 751.6,374.2 751.8,370.1 752.0,371.0 752.2,371.9 752.4,375.0 752.6,376.7 752.8,371.6 752.9,376.7 753.1,371.9 753.3,367.6 753.5,367.3 753.7,364.7 753.7,361.0 753.7,360.1 753.7,357.8 753.8,352.4 753.8,351.8 753.9,354.4 754.2,356.1 754.4,358.1 754.7,361.0 755.0,367.0 755.2,369.3 755.4,367.8 755.7,371.9 755.8,371.9 756.0,380.2 756.1,384.5 756.1,380.5 756.2,379.6 756.3,383.6 756.3,384.2 756.3,385.6 756.3,386.8 756.3,388.8 756.3,387.6 756.3,389.1 756.3,389.9 756.3,390.5 756.3,390.2 756.4,394.5 756.4,393.1 756.4,393.4 756.4,391.1 756.4,394.8 756.4,398.2 756.5,395.7 756.5,397.4 756.5,399.4 756.5,396.8 756.5,395.9 756.6,402.2 756.6,405.4 756.6,401.7 756.6,403.4 756.7,403.4 756.7,401.7 756.8,404.0 756.8,401.7 756.8,400.8 756.9,395.4 756.9,397.1 756.9,398.2 757.0,399.9 757.0,399.7 757.1,398.5 757.2,402.0 757.2,404.2 757.3,403.1 757.3,404.2 757.3,399.9 757.4,405.4 757.4,402.5 757.5,399.1 757.5,397.9 757.5,401.1 757.6,402.0 757.7,404.8 757.7,405.4 757.8,407.7 757.8,407.7 757.9,405.4 757.9,410.3 758.0,410.6 758.1,410.0 758.1,407.4 758.2,408.5 758.2,418.0 758.3,418.6 758.3,420.0 758.4,422.3 758.4,422.3 758.5,420.6 758.5,422.6 758.6,421.4 758.6,417.1 758.7,418.6 758.8,419.4 758.8,422.9 758.8,428.0 758.9,423.7 758.9,428.3 759.0,428.9 759.0,422.9 759.1,420.6 759.1,426.0 759.2,426.0 759.3,421.4 759.3,419.4 759.4,419.4 759.5,422.9 759.6,426.9 759.8,425.2 759.9,426.9 760.0,430.9 760.1,427.7 760.2,426.6 760.4,431.5 760.5,429.2 760.6,428.9 760.7,427.7 760.9,422.9 761.0,423.2 761.2,419.2 761.4,414.6 761.5,414.9 761.7,412.3 761.9,412.6 762.1,413.7 762.3,408.3 762.5,407.1 762.7,414.9 762.8,415.7 763.0,417.7 763.3,421.7 763.4,424.0 763.6,419.4 763.8,417.7 764.1,421.4 764.3,417.4 764.6,417.1 764.7,417.7 764.9,422.6 765.1,422.0 765.2,422.0 765.3,426.9 765.4,434.6 765.4,433.8 765.5,429.5 765.6,431.2 765.7,424.6 765.8,424.0 765.9,427.5 766.0,432.0 766.1,434.1 766.2,434.6 766.3,437.5 766.3,440.9 766.4,440.6 766.4,440.1 766.5,437.5 766.6,440.4 766.7,435.8 766.8,435.5 767.0,429.8 767.1,429.8 767.3,435.2 767.4,437.2 767.6,436.1 767.7,435.5 767.9,435.2 768.0,428.3 768.1,422.0 768.2,426.3 768.4,431.8 768.6,429.2 768.8,428.3 768.9,433.2 769.0,432.6 769.2,421.7 769.3,428.3 769.5,422.9 769.7,426.0 770.0,424.6 770.1,421.2 770.4,419.2 770.6,414.0 770.8,416.6 771.0,419.2 771.2,417.4 771.3,420.9 771.4,420.9 771.5,420.9 771.6,424.9 771.7,423.7 771.9,422.3 772.1,424.6 772.3,420.0 772.5,418.3 772.8,421.7 773.0,421.7 773.3,423.7 773.5,423.5 773.7,421.4 773.9,420.6 774.1,427.5 774.2,430.9 774.4,432.9 774.5,436.3 774.7,437.5 774.8,436.9 775.0,439.8 775.1,441.5 775.3,436.9 775.4,429.2 775.5,427.7 775.7,424.3 776.0,430.6 776.2,425.5 776.5,421.4 776.7,418.9 777.1,416.3 777.2,419.4 777.5,415.1 777.7,423.5 778.0,419.2 778.3,417.4 778.5,419.4 778.9,418.6 779.2,413.7 779.5,415.4 779.6,408.0 779.9,414.0 780.1,418.6 780.4,427.7 780.6,423.5 780.8,422.3 781.3,423.7 781.6,424.0 781.9,420.6 782.2,418.9 782.3,416.6 782.6,414.6 782.8,414.9 783.0,405.1 783.2,406.5 783.4,406.0 783.4,397.4 783.5,395.9 783.5,394.5 783.6,396.2 783.8,397.7 783.9,394.5 784.1,393.9 784.2,392.5 784.3,386.8 784.4,388.5 784.6,391.9 784.7,393.4 784.9,393.1 785.1,389.6 785.4,394.2 785.6,392.2 785.9,393.6 786.1,390.8 786.3,388.8 786.5,389.6 786.7,386.8 787.0,390.8 787.3,393.4 787.5,394.5 787.8,401.1 788.0,401.1 788.2,397.1 788.4,401.1 788.6,403.7 788.9,403.4 789.2,405.4 789.5,405.7 789.8,409.1 790.2,407.1 790.4,403.1 790.7,405.1 790.8,401.1 791.0,406.0 791.3,410.3 791.4,410.8 791.5,406.8 791.7,406.3 791.9,402.0 792.0,401.1 792.2,406.3 792.4,409.1 792.6,414.0 792.7,415.1 792.8,415.1 793.0,417.1 793.1,420.3 793.3,421.2 793.5,421.4 793.7,423.7 793.9,423.7 794.1,423.7 794.3,421.7 794.5,425.7 794.9,426.6 795.0,428.6 795.2,432.6 795.3,425.2 795.5,425.2 795.6,423.7 795.8,420.9 796.1,421.7 796.4,418.0 796.6,409.7 796.6,407.1 796.7,408.0 796.8,399.4 796.8,395.9 796.9,398.5 797.0,396.8 797.1,392.8 797.2,391.9 797.3,395.4 797.4,395.9 797.5,397.7 797.7,400.2 797.9,407.1 798.0,407.1 798.4,407.4 798.6,407.7 798.9,409.1 799.1,409.7 799.3,406.3 799.6,407.1 799.9,402.8 800.2,400.2 800.2,396.2 800.2,391.9 800.2,389.1 800.2,384.2 800.2,382.8 800.2,383.9 800.2,381.9 800.2,379.9 800.2,374.7 800.2,379.9 800.2,382.8 800.2,379.9 800.2,371.9 800.2,370.7 800.2,373.3 800.2,370.1 800.3,370.4 800.3,368.4 800.3,368.7 800.3,366.7 800.3,363.0 800.3,369.3 800.3,366.1 800.3,362.7 800.3,363.6 800.3,360.1 800.3,357.5 800.3,352.7 800.3,351.2 800.3,345.5 800.3,347.5 800.3,348.6 800.4,348.4 800.4,344.6 800.4,350.7 800.4,353.5 800.4,349.5 800.4,343.2 800.5,344.6 800.5,348.4 800.5,348.9 800.6,343.5 800.6,336.9 800.6,336.6 800.6,338.6 800.7,337.8 800.8,334.6 800.8,332.3 800.8,330.0 800.8,328.6 800.9,332.0 800.9,334.6 800.9,337.5 800.9,340.3 800.9,342.9 800.9,347.2 800.9,343.5 801.0,342.9 801.0,341.5 801.1,343.2 801.2,346.9 801.3,346.1 801.4,349.2 801.5,344.3 801.5,350.7 801.6,347.2 801.8,344.1 802.0,347.2 802.1,350.9 802.3,344.3 802.6,350.4 802.7,351.5 802.9,357.0 802.9,361.0 803.0,359.5 803.2,354.4 803.2,358.1 803.4,361.5 803.5,359.0 803.8,354.7 804.0,354.4 804.1,358.1 804.3,361.5 804.5,365.8 804.6,364.7 804.9,361.3 805.2,357.0 805.4,355.8 805.8,352.7 806.0,346.6 806.3,346.6 806.4,350.1 806.4,352.7 806.6,350.7 806.9,347.2 807.1,350.1 807.3,351.8 807.4,353.5 807.7,349.8 808.0,352.7 808.3,349.8 808.6,350.1 808.7,359.5 808.9,359.8 809.2,358.7 809.5,361.5 809.7,359.0 809.9,357.5 810.1,354.1 810.3,354.1 810.5,352.4 810.7,355.0 811.0,357.8 811.4,362.4 811.7,362.7 812.0,361.5 812.4,360.4 812.7,355.2 813.0,357.5 813.4,359.5 813.7,358.4 814.0,361.3 814.2,363.6 814.6,360.1 815.1,359.0 815.6,359.5 815.9,363.6 816.4,361.0 816.8,359.3 817.3,360.1 817.7,358.4 818.2,358.4 818.6,357.8 819.0,362.7 819.2,363.8 819.4,356.1 819.7,355.0 820.0,358.7 820.2,362.1 820.4,360.7 820.9,359.5 821.1,363.0 821.4,360.7 821.5,352.9 821.6,350.4 821.7,355.5 822.0,355.0 822.3,351.8 822.5,352.9 822.8,359.5 823.1,358.7 823.5,361.5 824.0,362.4 824.4,356.1 824.8,356.7 825.3,356.4 825.8,353.8 825.9,352.1 826.3,348.9 826.7,349.2 827.1,349.8 827.3,348.4 827.6,348.4 827.8,346.9 828.1,348.6 828.3,346.4 828.5,344.1 828.8,343.5 828.9,338.6 829.1,340.0 829.3,340.0 829.5,337.5 829.7,335.2 830.0,341.5 830.2,341.5 830.5,344.9 830.8,347.5 831.0,353.8 831.2,349.2 831.5,348.1 831.8,341.2 832.2,341.2 832.6,341.5 833.1,341.8 833.6,344.3 834.0,347.2 834.2,343.8 834.5,348.6 834.8,346.1 835.1,344.9 835.4,345.2 835.8,342.3 836.1,339.8 836.3,337.2 836.6,339.2 836.9,341.2 837.2,339.5 837.5,336.6 837.8,334.6 838.3,334.0 838.7,337.2 839.1,340.9 839.5,342.1 840.0,343.5 840.5,341.2 841.2,341.8 841.8,341.2 842.1,341.5 842.4,340.9 842.6,340.6 842.8,342.3 843.0,341.2 843.2,340.6 843.4,340.6 843.7,340.9 844.1,340.3 844.9,340.3 845.4,340.9 845.9,339.5 846.4,338.0 847.0,338.6 847.8,336.0 848.5,337.5 848.9,330.0 849.2,332.9 849.7,327.2 850.0,331.2 850.7,330.0 851.3,328.0 851.7,325.4 852.2,324.0 852.7,323.7 853.2,325.7 853.8,326.3 854.0,322.0 854.5,326.0 854.9,326.9 855.5,322.0 856.1,321.7 856.6,321.7 857.2,321.1 857.9,321.1 858.4,325.7 859.2,326.9 859.6,328.9 860.3,328.0 860.9,330.6 861.5,334.6 862.6,334.0 863.1,334.6 863.6,336.9 864.0,338.3 864.4,340.0 864.7,342.9 865.0,349.5 865.3,350.1 865.5,354.4 865.5,358.7 865.6,357.2 865.8,361.5 866.1,363.3 866.3,367.3 866.4,366.7 866.6,365.6 866.9,361.8 867.2,360.1 867.5,358.1 868.0,358.4 868.4,358.7 869.1,359.0 869.5,363.3 869.8,361.5 870.3,361.5 870.9,364.4 871.4,360.7 871.6,362.1 872.0,361.3 872.3,360.7 872.6,357.2 873.0,355.8 873.3,357.8 873.8,360.7 874.4,361.8 874.6,354.4 875.0,357.2 875.4,357.5 875.7,358.4 876.1,357.2 876.4,356.1 876.8,359.5 877.1,365.0 877.5,365.6 877.8,371.0 878.1,369.6 878.4,368.1 878.7,369.6 879.1,373.0 879.4,368.1 879.8,373.6 880.0,379.3 880.3,382.5 880.6,381.3 880.8,381.9 881.1,384.8 881.3,388.2 881.5,383.6 881.7,385.9 881.9,383.6 882.1,379.3 882.4,375.0 882.8,376.7 883.2,374.7 883.7,376.7 884.2,375.6 884.7,378.7 885.1,380.7 885.5,380.5 885.9,371.0 886.1,375.9 886.5,373.0 886.7,376.2 887.2,374.4 887.7,371.9 888.2,368.1 888.5,368.7 889.1,365.6 889.4,367.0 889.8,375.3 890.0,370.7 890.5,370.4 891.1,368.7 891.5,367.6 892.1,365.6 892.5,371.9 892.8,375.9 893.0,375.6 893.3,376.2 893.6,370.4 894.1,372.1 894.5,369.3 894.8,367.3 895.2,363.3 895.6,369.6 896.1,370.4 896.6,371.6 897.2,373.0 897.5,370.4 898.0,378.7 898.5,375.3 898.8,371.9 899.0,366.1 899.3,369.3 899.5,369.9 899.8,371.3 900.1,373.0 900.3,370.1 900.7,373.9 901.1,373.0 901.6,369.9 902.1,365.6 902.6,366.4 903.2,369.0 903.7,376.4 903.9,378.5 904.4,379.3 904.9,379.9 905.5,377.9 906.1,381.0 906.9,381.9 907.3,387.3 907.6,391.4 907.9,391.1 908.1,393.9 908.4,396.2 908.6,393.1 908.9,396.2 909.2,395.7 909.7,392.2 910.0,397.7 910.3,397.9 910.8,396.2 911.4,393.9 911.9,399.7 912.0,403.4 912.2,401.7 912.7,401.1 913.0,407.4 913.3,403.4 913.6,409.1 913.8,408.5 914.1,410.0 914.5,408.5 915.0,404.5 915.5,401.7 916.2,407.1 916.5,414.3 916.7,415.4 916.8,413.7 917.0,418.9 917.4,415.7 917.7,418.3 918.0,420.9 918.0,425.5 918.2,425.2 918.4,426.6 918.6,424.6 918.8,424.9 919.1,423.5 919.4,417.4 919.7,411.7 920.1,413.4 920.5,408.3 921.0,407.7 921.6,407.7 922.1,410.6 922.4,417.1 922.9,411.7 923.4,413.4 923.9,413.1 924.6,416.0 924.9,414.6 925.2,417.7 925.2,422.6 925.3,424.3 925.6,425.7 925.8,422.6 926.3,422.6 926.7,420.3 927.0,416.3 927.5,414.9 928.2,413.1 928.7,410.0 929.0,411.7 929.3,405.7 929.9,404.0 930.4,406.8 931.1,407.1 932.0,406.5 932.6,405.7 933.4,404.2 933.8,401.1 934.0,400.2" fill="none" stroke="#d97706" stroke-width="1.2" stroke-linejoin="round" opacity="0.6"/><text x="942" y="472.0" text-anchor="start" font-size="11" fill="#d97706">6.49</text><text x="942" y="396.0" text-anchor="start" font-size="11" fill="#d97706">6.75</text><text x="942" y="320.0" text-anchor="start" font-size="11" fill="#d97706">7.02</text><text x="942" y="244.0" text-anchor="start" font-size="11" fill="#d97706">7.28</text><text x="942" y="168.0" text-anchor="start" font-size="11" fill="#d97706">7.55</text><text x="942" y="92.0" text-anchor="start" font-size="11" fill="#d97706">7.81</text><text x="942" y="80.0" text-anchor="start" font-size="11" font-weight="600" fill="#d97706">price</text>
  <polygon points="114.3,468.0 114.3,329.7 114.3,337.3 220.1,300.7 292.5,309.9 355.1,321.4 368.7,335.7 578.3,266.6 582.8,277.6 630.2,291.5 678.9,308.8 734.2,330.4 758.2,226.3 783.5,239.6 792.6,256.2 796.8,276.9 857.7,177.1 863.8,193.1 918.0,116.1 918.0,468.0" fill="#16a34a" fill-opacity="0.08"/>
  <polyline points="114.3,329.7 114.3,337.3 220.1,300.7 292.5,309.9 355.1,321.4 368.7,335.7 578.3,266.6 582.8,277.6 630.2,291.5 678.9,308.8 734.2,330.4 758.2,226.3 783.5,239.6 792.6,256.2 796.8,276.9 857.7,177.1 863.8,193.1 918.0,116.1" fill="none" stroke="#16a34a" stroke-width="2" stroke-linejoin="round"/>
  <line x1="88" y1="102" x2="110" y2="102" stroke="#16a34a" stroke-width="2.5"/><text x="116" y="106" font-size="11.5" fill="#374151">equity</text><line x1="88" y1="118" x2="110" y2="118" stroke="#d97706" stroke-width="2.5" opacity="0.8"/><text x="116" y="122" font-size="11.5" fill="#374151">price</text>
  <text x="78" y="502" text-anchor="start" font-size="12" fill="#6b7280">2026-06-05</text><text x="934" y="502" text-anchor="end" font-size="12" fill="#6b7280">2026-06-05</text>
</svg>
