<svg xmlns="http://www.w3.org/2000/svg" width="1100" height="560" font-family="ui-sans-serif, system-ui, sans-serif" viewBox="0 0 1100 560"><rect width="1100" height="560" fill="#fff"/><text x="80" y="28" fill="#111827" font-size="18" font-weight="700">Zone Recovery — AVAXUSDT fee-tier comparison (best setting)</text><text x="80" y="48" fill="#6b7280" font-size="12.5">lev 20 · ratio 4 · gap 20% · maxSteps 6 · maxDD 60% · random · equity per fee tier vip 0..9</text><text x="80" y="68" fill="#1d4ed8" font-size="12.5" font-weight="600">USDT margin · BNB −10%</text><line x1="80" x2="932" y1="508" y2="508" stroke="#e5e7eb" stroke-width="1"/><text x="70" y="512" fill="#6b7280" font-size="12" text-anchor="end">0.00</text><line x1="80" x2="932" y1="424" y2="424" stroke="#e5e7eb" stroke-width="1"/><text x="70" y="428" fill="#6b7280" font-size="12" text-anchor="end">5494</text><line x1="80" x2="932" y1="340" y2="340" stroke="#e5e7eb" stroke-width="1"/><text x="70" y="344" fill="#6b7280" font-size="12" text-anchor="end">10989</text><line x1="80" x2="932" y1="256" y2="256" stroke="#e5e7eb" stroke-width="1"/><text x="70" y="260" fill="#6b7280" font-size="12" text-anchor="end">16483</text><line x1="80" x2="932" y1="172" y2="172" stroke="#e5e7eb" stroke-width="1"/><text x="70" y="176" fill="#6b7280" font-size="12" text-anchor="end">21977</text><line x1="80" x2="932" y1="88" y2="88" stroke="#e5e7eb" stroke-width="1"/><text x="70" y="92" fill="#6b7280" font-size="12" text-anchor="end">27471</text><line x1="80" x2="932" y1="355.1" y2="355.1" stroke="#9ca3af" stroke-dasharray="6 4" stroke-width="1.5"/><polyline fill="none" stroke="#2563eb" stroke-linejoin="round" stroke-width="1.8" points="80 355.1 80 364 192.2 324.1 268.9 334.8 335.3 348.2 349.7 364.8 571.9 290 576.7 302.6 626.9 318.5 678.5 338.3 737.2 363 762.7 252 789.4 266.9 799 285.5 803.5 308.8 868.1 204.7 874.5 222.3 932 143.2" opacity=".9"/><polyline fill="none" stroke="#dc2626" stroke-linejoin="round" stroke-width="1.8" points="80 355.1 80 364 192.2 324.1 268.9 334.8 335.3 348.2 349.7 364.8 571.9 290 576.7 302.6 626.9 318.5 678.5 338.3 737.2 363 762.7 252 789.4 266.9 799 285.5 803.5 308.8 868.1 204.7 874.5 222.3 932 143.2" opacity=".9"/><polyline fill="none" stroke="#16a34a" stroke-linejoin="round" stroke-width="1.8" points="80 355.1 80 363.8 192.2 323.8 268.9 334.3 335.3 347.5 349.7 363.9 571.9 288.6 576.7 301.1 626.9 316.8 678.5 336.4 737.2 360.9 762.7 248.7 789.4 263.5 799 282 803.5 305.2 868.1 199.2 874.5 216.9 932 136" opacity=".9"/><polyline fill="none" stroke="#d97706" stroke-linejoin="round" stroke-width="1.8" points="80 355.1 80 363.7 192.2 323.6 268.9 334 335.3 346.9 349.7 363.2 571.9 287.5 576.7 299.9 626.9 315.4 678.5 334.9 737.2 359.1 762.7 246 789.4 260.8 799 279.2 803.5 302.3 868.1 194.8 874.5 212.5 932 130.2" opacity=".9"/><polyline fill="none" stroke="#7c3aed" stroke-linejoin="round" stroke-width="1.8" points="80 355.1 80 363.7 192.2 323.5 268.9 333.9 335.3 346.8 349.7 363 571.9 287.2 576.7 299.6 626.9 315.1 678.5 334.5 737.2 358.7 762.7 245.3 789.4 260.1 799 278.5 803.5 301.6 868.1 193.7 874.5 211.4 932 128.7" opacity=".9"/><polyline fill="none" stroke="#0891b2" stroke-linejoin="round" stroke-width="1.8" points="80 355.1 80 363.7 192.2 323.4 268.9 333.7 335.3 346.6 349.7 362.7 571.9 286.8 576.7 299.1 626.9 314.6 678.5 333.9 737.2 358.1 762.7 244.3 789.4 259 799 277.5 803.5 300.5 868.1 192.1 874.5 209.7 932 126.5" opacity=".9"/><polyline fill="none" stroke="#db2777" stroke-linejoin="round" stroke-width="1.8" points="80 355.1 80 363.6 192.2 323.3 268.9 333.6 335.3 346.5 349.7 362.5 571.9 286.5 576.7 298.8 626.9 314.2 678.5 333.5 737.2 357.6 762.7 243.6 789.4 258.3 799 276.8 803.5 299.8 868.1 191 874.5 208.6 932 125.1" opacity=".9"/><polyline fill="none" stroke="#65a30d" stroke-linejoin="round" stroke-width="1.8" points="80 355.1 80 363.6 192.2 323.2 268.9 333.5 335.3 346.3 349.7 362.3 571.9 286.1 576.7 298.4 626.9 313.7 678.5 333 737.2 357 762.7 242.6 789.4 257.3 799 275.7 803.5 298.7 868.1 189.3 874.5 206.9 932 122.8" opacity=".9"/><polyline fill="none" stroke="#475569" stroke-linejoin="round" stroke-width="1.8" points="80 355.1 80 363.6 192.2 323.2 268.9 333.4 335.3 346.1 349.7 362.1 571.9 285.8 576.7 298.1 626.9 313.4 678.5 332.6 737.2 356.5 762.7 241.9 789.4 256.6 799 275 803.5 297.9 868.1 188.2 874.5 205.8 932 121.4" opacity=".9"/><polyline fill="none" stroke="#ea580c" stroke-linejoin="round" stroke-width="1.8" points="80 355.1 80 363.5 192.2 323.1 268.9 333.2 335.3 345.9 349.7 361.8 571.9 285.4 576.7 297.6 626.9 312.9 678.5 332 737.2 355.9 762.7 240.9 789.4 255.6 799 273.9 803.5 296.8 868.1 186.5 874.5 204.1 932 119.1" opacity=".9"/><line x1="950" x2="972" y1="94" y2="94" stroke="#ea580c" stroke-width="3"/><text x="980" y="98" fill="#374151" font-size="12.5">vip 9 25437</text><line x1="950" x2="972" y1="116" y2="116" stroke="#475569" stroke-width="3"/><text x="980" y="120" fill="#374151" font-size="12.5">vip 8 25290</text><line x1="950" x2="972" y1="138" y2="138" stroke="#65a30d" stroke-width="3"/><text x="980" y="142" fill="#374151" font-size="12.5">vip 7 25193</text><line x1="950" x2="972" y1="160" y2="160" stroke="#db2777" stroke-width="3"/><text x="980" y="164" fill="#374151" font-size="12.5">vip 6 25047</text><line x1="950" x2="972" y1="182" y2="182" stroke="#0891b2" stroke-width="3"/><text x="980" y="186" fill="#374151" font-size="12.5">vip 5 24951</text><line x1="950" x2="972" y1="204" y2="204" stroke="#7c3aed" stroke-width="3"/><text x="980" y="208" fill="#374151" font-size="12.5">vip 4 24806</text><line x1="950" x2="972" y1="226" y2="226" stroke="#d97706" stroke-width="3"/><text x="980" y="230" fill="#374151" font-size="12.5">vip 3 24711</text><line x1="950" x2="972" y1="248" y2="248" stroke="#16a34a" stroke-width="3"/><text x="980" y="252" fill="#374151" font-size="12.5">vip 2 24330</text><line x1="950" x2="972" y1="270" y2="270" stroke="#2563eb" stroke-width="3"/><text x="980" y="274" fill="#374151" font-size="12.5">vip 0 23860</text><line x1="950" x2="972" y1="292" y2="292" stroke="#dc2626" stroke-width="3"/><text x="980" y="296" fill="#374151" font-size="12.5">vip 1 23860</text><text x="80" y="542" fill="#6b7280" font-size="12" text-anchor="start">2026-06-05</text><text x="932" y="542" fill="#6b7280" font-size="12" text-anchor="end">2026-06-05</text></svg>