<svg xmlns="http://www.w3.org/2000/svg" width="1000" height="520" font-family="ui-sans-serif, system-ui, sans-serif" viewBox="0 0 1000 520"><rect width="1000" height="520" fill="#fff"/><text x="78" y="28" fill="#111827" font-size="18" font-weight="700">Zone Recovery — ETHUSDT best setting (equity / PnL)</text><text x="78" y="48" fill="#6b7280" font-size="12.5">lev 4 · ratio 2 · gap 20% · maxSteps 4 · maxDD 20% · random · vip 9 · 4 series, 100.0% win · vol $70400074 ($3263114/day) · fees $10771</text><text x="78" y="68" fill="#1d4ed8" font-size="12.5" font-weight="600">USDT · BNB −10% · taker 0.0153%</text><text x="934" y="28" fill="#16a34a" font-size="18" font-weight="700" text-anchor="end">+436644 USDT (+0.44%)</text><line x1="78" x2="934" y1="468" y2="468" stroke="#e5e7eb" stroke-width="1"/><text x="68" y="472" fill="#6b7280" font-size="12" text-anchor="end">0.00</text><line x1="78" x2="934" y1="392" y2="392" stroke="#e5e7eb" stroke-width="1"/><text x="68" y="396" fill="#6b7280" font-size="12" text-anchor="end">21855270</text><line x1="78" x2="934" y1="316" y2="316" stroke="#e5e7eb" stroke-width="1"/><text x="68" y="320" fill="#6b7280" font-size="12" text-anchor="end">43710539</text><line x1="78" x2="934" y1="240" y2="240" stroke="#e5e7eb" stroke-width="1"/><text x="68" y="244" fill="#6b7280" font-size="12" text-anchor="end">65565809</text><line x1="78" x2="934" y1="164" y2="164" stroke="#e5e7eb" stroke-width="1"/><text x="68" y="168" fill="#6b7280" font-size="12" text-anchor="end">87421079</text><line x1="78" x2="934" y1="88" y2="88" stroke="#e5e7eb" stroke-width="1"/><text x="68" y="92" fill="#6b7280" font-size="12" text-anchor="end">109276349</text><line x1="78" x2="934" y1="120.3" y2="120.3" stroke="#9ca3af" stroke-dasharray="6 4" stroke-width="1.5"/><text x="934" y="114.3" fill="#6b7280" font-size="11" text-anchor="end">start 100000000</text><polyline fill="none" stroke="#d97706" stroke-linejoin="round" stroke-width="1.2" points="78 262.1 78.7 264.4 79.4 265.3 80 260.7 80.6 260.5 81.2 255.8 81.9 256.7 82.8 259.3 83.6 262 84.2 264.8 84.8 262.1 85.5 259.2 86.3 262.3 87.1 261.3 88 262.2 88.7 264.2 89.3 266.4 90 264.6 90.8 262.5 91.6 259.7 92 256.9 92.1 250.2 92.2 246 92.3 245.2 92.4 239.7 92.4 234.2 92.5 229.7 92.5 228.5 92.6 226.1 92.6 219.9 92.7 221.7 92.7 227.3 92.7 227.2 92.9 226.4 93 227.9 93.3 227.4 93.6 227.2 93.9 223.2 94.2 223.8 94.5 222 94.9 225.2 95.4 227.8 96.1 228.9 96.7 225 97.3 226.4 97.9 224.3 98.3 224.6 98.6 221.9 99.1 226.3 99.6 228.6 100.1 225 100.5 226.5 100.7 225.7 100.9 228 101.2 223.8 101.3 222 101.5 223.7 101.8 223.4 102 220.6 102.1 216 102.3 215.5 102.5 219.5 102.8 218.9 103.2 220.9 103.6 215.2 103.9 214.1 104.4 218.3 104.9 215.6 105.4 217.3 105.8 215.4 106.2 219.2 106.6 220.4 107.2 223 107.6 227 108 222.7 108.8 221.4 109.7 221 110.5 217.7 110.9 216.7 111.4 219.1 112.1 217.7 113.4 220.3 114.1 224.2 114.6 219.8 115.2 221.4 116.4 219.2 116.8 217.4 117.5 214.3 117.7 213.4 117.8 209 117.9 207.6 118 206.4 118.3 210.8 118.6 212.2 118.9 215.1 119.4 214.8 120 212.1 120.5 208.7 120.7 203.9 121 202.1 121.2 207 121.5 206.7 121.9 205.9 122.2 201.4 122.7 203.7 123.1 203.4 123.6 202.7 124.2 205.9 125 207.1 125.6 207.4 126.6 206.9 126.9 202.2 127.8 205.1 128.4 198.4 128.5 197 128.7 197.2 128.9 201.3 129.5 199.4 130.3 203.2 131 206.1 131.6 204.6 132.5 203.8 133.6 203.4 134.5 204.4 135.4 204.2 136.4 205.1 137.3 203 138.1 203.5 138.6 202.1 139.2 198.8 139.5 198.7 139.7 203.4 140.1 200.4 140.3 202 140.5 196.1 140.6 196.9 140.9 197.8 141.1 198.9 141.4 199.8 141.7 196.2 142 200.1 142.2 205.6 142.3 206.4 142.5 207.7 142.6 214.4 142.7 210.2 142.8 203.6 143 201 143.2 195.6 143.4 199.2 143.6 197 144 195.8 144 192.9 144.2 190.7 144.3 189.2 144.4 186.6 144.5 185.9 144.7 188.9 145 189.9 145.2 191.8 145.5 189.2 145.9 189.5 146.2 185.8 146.5 187.8 146.8 185.7 147.1 184 147.5 183.3 147.8 182.1 148.2 179.8 148.5 177.1 148.9 177.9 149.3 176.7 149.4 173.2 149.7 175 150.1 175.3 150.5 177.5 150.9 178.8 151.5 180.5 152 179.7 152.8 178.8 153.8 181.3 154.5 182.9 155 184.2 155.7 185.2 156.6 183.7 157.4 181.4 158.1 182.6 159.1 182.1 159.6 184.7 160.4 183 161 178.8 161.6 178.4 161.8 174.1 162.3 173.7 162.4 167.8 162.5 161.6 162.7 168.8 163 167.7 163.5 170.2 163.9 177.4 164.3 175.1 164.9 177.7 165.5 177.2 166.2 179.5 166.9 183.7 167.4 181.8 168.2 181.1 168.8 184.1 169.4 184 169.9 186.3 170.7 186.2 171 191.9 171.3 188 171.8 186.4 172.4 183.8 173 182.4 173.9 182.7 174.9 180.8 175.8 180.4 176.4 181.7 177.3 180.4 178 180.8 178.4 180 179 186.2 179.3 182.1 179.7 177 179.9 181.5 180 183.3 180.3 180.7 180.5 186.3 180.7 186 180.9 188.9 181.1 191 181.3 184.7 181.6 181.8 181.9 179.8 182.3 184.4 182.7 179.5 182.9 180.7 183.1 175.9 183.4 175.5 183.6 171.7 183.8 168.9 183.9 163.1 184 170.8 184.1 166.2 184.2 165.3 184.4 164.1 184.6 165 184.8 159.5 184.8 155.5 185 158.7 185.1 162.2 185.3 166.7 185.4 168.3 185.5 176.4 185.5 176.5 185.6 181.6 185.6 180.5 185.7 178.4 185.8 172.7 185.9 174.9 186 178.1 186.2 177.3 186.4 174.1 186.6 174.6 186.8 178.8 186.9 183.3 187 182.1 187.2 186.9 187.3 187.9 187.5 181.1 187.7 177.8 188 177.7 188.3 175.7 188.7 174.6 189.1 171.6 189.3 168.2 189.8 167.8 190.2 171.9 190.6 175 191 171.7 191.7 166.4 192.5 168.2 193.6 171.5 194.6 169.4 196 171.5 197.1 174.4 197.9 175.4 198.8 175.8 199.6 179.8 200.2 182.1 200.8 184.4 201.6 180.7 202.4 182.7 203.6 179.4 204.8 177.7 205.6 175.3 206.4 176.9 207.4 172.6 208.4 173.8 209.4 175.7 210.6 175.7 211.5 179.4 212.4 176.1 213.8 176.9 215 179.9 216.2 177.6 217.3 179 218.6 178.8 219 176.2 220.1 176.6 220.9 176 221.7 181.1 221.9 181.4 222.4 184 222.6 187.7 222.8 188.7 223.2 185.5 223.7 187.2 224.1 188.8 224.6 185 225.3 182.9 226.2 184.4 227.3 185.8 228.8 186 230.4 182.4 232 180.8 233.5 179.4 235 178.4 237 179.8 238.3 182.9 239.8 178.8 240.9 175.4 240.9 169.5 241 166.4 241.1 169.3 241.3 169.5 241.5 167 241.7 161.3 241.8 160.3 242 160.6 242.2 166.6 242.5 165.4 242.7 161.7 243.2 166.6 243.5 164.8 244 166.7 244.5 164 244.6 157.5 244.7 157 244.7 156.4 244.8 158.9 245 156.2 245.2 159.1 245.6 159.6 246.1 159.5 246.7 158.8 247.3 160.2 248.1 161.6 248.7 156.8 249.2 159 249.7 152.9 249.8 151.4 249.9 150.7 250 148.8 250.3 150.9 250.7 150 251.1 154.8 251.7 155.6 252.3 155.4 252.4 161.5 252.6 158.4 252.7 162.4 252.9 163.6 253.1 160.6 253.3 167.1 253.5 168 253.7 164.9 254.1 168 254.5 167.2 255 164 255.6 164.8 256.3 163 257 165.7 257.6 167.4 258.4 167.8 259.2 166.6 260 164.3 261 166.5 261.6 167.9 262.6 169.4 263.6 166.6 264.4 172.7 264.6 174.6 264.7 171.7 265 167.2 265.7 172 266.3 174.1 266.8 175.3 267.5 171.7 268.5 176.8 269.3 175.6 269.7 179.8 270 176.5 270.8 174.4 272 175.7 273.2 172.6 274 174.2 274.9 171.3 276.1 171.8 276.8 169.7 276.9 164.5 277.1 172.8 277.3 172.1 277.6 173.2 278 176.1 278.4 174.9 278.8 169.4 279.1 166.5 279.5 169.3 280.1 170.3 280.6 174.3 281 164.6 281.4 166.8 282.1 166.8 283 167.3 284.1 168.7 284.9 171.8 285.6 171.1 286.5 167.1 286.9 165.1 287.3 159.5 287.5 160.3 288.1 159.7 288.7 159.3 289.1 166.2 289.4 168.2 289.8 165.7 290.5 161.2 291 161.3 291.8 159.2 292.5 159.6 293.2 160.2 293.9 159.9 294.6 159.7 295.3 156.3 295.6 157.6 296.2 159.1 296.7 155.5 297.3 157.4 298 155.9 298.5 152.5 298.8 154.1 298.9 151.1 298.9 145.3 299 145.4 299.1 150.3 299.2 151.5 299.3 148.5 299.4 145 299.5 142.2 299.6 140.2 299.7 138.2 299.9 140.6 300 139.9 300.2 141.7 300.4 136.7 300.5 134 300.7 139.2 300.9 140.7 301.2 140.3 301.6 137.5 301.8 130.7 301.9 129.8 302.1 131.7 302.4 135 302.8 133.6 303.2 136.2 303.6 136 304 133.4 304.5 132.8 304.9 130.2 305 125.6 305.1 123.9 305.3 125 305.6 129 305.9 127.5 306.4 127.6 307 132 307.5 128.3 307.8 125.4 308.1 126.3 308.6 126.3 309.1 127.7 309.4 120.7 309.6 120.3 309.9 125.7 310.3 127.4 311 130.9 311.7 131.9 312.3 131.8 312.9 127.2 313.6 128.3 314.2 127.1 314.8 129.4 315.4 128.4 316.2 130.4 316.8 132.2 317.4 133.8 318.2 130.3 318.5 134.1 319.1 133.4 320 133.9 320.5 133.7 321.4 129.2 322.1 130.4 323 130.8 323.7 126.5 324.1 124.1 324.6 124.8 325.3 124.7 325.6 122.5 326.1 124.4 326.5 128.9 326.9 133.1 327.2 135.1 327.7 134.6 328.2 135.4 328.7 135.4 329.4 135.1 329.6 137.8 329.8 140.9 330 139.1 330.4 136.8 330.8 133.2 331.4 132.9 332 133 332.8 132.7 333.2 130 334 129.6 334.9 129.1 335.5 128.1 336 126.5 336.5 126.6 337.2 125.8 337.4 119.5 337.5 116.8 337.7 118.7 338.1 117.3 338.3 114.8 338.5 117.3 338.6 121.4 338.7 124.8 338.7 128.2 338.8 131.2 338.8 133.5 338.9 129.4 339 128 339.2 126.1 339.3 130.4 339.4 131 339.5 138.2 339.6 137.4 339.7 136.9 339.8 134.9 340 142.4 340.1 142.2 340.2 143.7 340.3 148.2 340.4 146.2 340.6 149.9 340.7 152.4 340.9 152.8 341 154.2 341.1 163.2 341.1 166.9 341.1 165 341.1 170.4 341.2 162.9 341.3 162 341.4 159.8 341.6 161.8 341.7 164 341.8 167.3 341.9 173.6 342 180.2 342 172.6 342.1 173.2 342.2 174.7 342.2 175.8 342.4 173.3 342.5 175 342.7 177.2 342.8 176.9 343 179.8 343.1 182.7 343.2 187.1 343.2 180.6 343.4 179.2 343.5 174.4 343.7 173.7 343.9 171 344.2 176.5 344.4 176.3 344.7 180.6 344.9 178.7 345.3 178.7 345.6 181.5 345.9 183.7 346.2 180.3 346.4 185.1 346.7 182.3 347 185.9 347.5 184.6 347.8 179.5 348.2 182.8 348.6 183.3 349 179.3 349.3 176 349.8 175 350.5 172.7 351.3 174.2 352.1 178.7 352.8 176.7 353.5 177.3 354.4 179.8 354.9 182.2 355.3 186.3 355.5 190.7 355.7 189.2 356 186.5 356.5 186.1 356.7 189.5 357 182 357.5 184.7 357.9 184.3 358.3 180.4 358.8 179.5 359.5 180.1 360 177.1 360.6 180.3 361.1 184.5 361.4 189.1 361.7 190.9 362 189 362.5 189.9 362.6 197.2 362.8 188.8 363.2 185.8 363.8 186.8 364.5 188.2 364.8 193.1 365.3 193.9 365.7 191.8 366.3 187.9 366.9 188.3 367.5 187.4 368.1 187.8 368.7 187.7 369.2 184.9 369.7 183.6 370.1 178.9 370.4 180.2 370.9 180.7 371.6 180.7 372.5 178.5 373.1 178.9 373.5 177.3 374.1 176.8 374.7 177.9 375.5 179.6 376.1 179.6 376.6 181.6 377.1 183.2 377.6 180.6 378.1 182.4 378.2 183.5 378.4 186.4 378.5 190.8 378.6 185.2 378.9 180.6 378.9 173.1 379 172.9 379.2 175.6 379.3 176.9 379.5 178.8 379.8 177.6 379.9 182.3 380.2 185.4 380.4 188.1 380.6 187.7 380.9 184.7 381.1 190.8 381.3 185.8 381.7 186.7 382.1 189 382.4 189 382.7 185.1 383 184.7 383.5 184.5 383.7 178.5 384 177.5 384.2 174.6 384.4 167.9 384.5 166.8 384.7 163.5 384.8 165.9 385.1 169 385.5 166.8 385.7 168.6 386.1 168.8 386.5 170.9 386.8 171.3 387.2 171 387.5 174.1 387.9 171.6 388.4 172.9 388.9 173.6 389.6 171.1 390.5 175.2 391.5 170 392.4 168.4 393.6 170.3 394.5 169.1 395.5 171.4 396.3 172 397 173.8 397.5 177.8 397.7 178.7 398.1 182.9 398.3 183.2 398.9 185 399.2 188 399.7 187.8 399.9 195.8 400 195.4 400.3 196.9 400.5 195 400.9 191.7 401.5 189.4 402.3 188.4 402.9 187.4 403.8 186.8 404.7 189.3 405.6 189.7 405.9 193.9 406.6 190.7 407.3 193.9 408 194.7 408.4 192 409 197 409.1 202.9 409.2 206.8 409.3 208.3 409.4 212.2 409.5 213.2 409.6 212 409.7 215.3 409.9 214.4 410.1 216.8 410.3 217.4 410.5 212.8 410.8 214.8 411.1 211.5 411.5 214 411.9 215.9 412.4 214.9 412.9 213.6 413.2 212.1 413.7 210 414.3 208.1 414.7 204.4 415.1 205.7 415.5 205 416 203.4 416.4 201.7 416.5 200.9 416.9 199.3 417.3 202.2 417.7 201.4 417.9 204.5 418 204 418.2 208.2 418.3 204.3 418.5 210.8 418.6 211.4 418.7 208.3 418.8 210.5 419 208.8 419.2 211.6 419.4 214.6 419.5 218.4 419.6 221.9 419.7 218.2 419.8 219.2 420 215.9 420.2 210 420.4 212.8 420.8 215.3 421 220.7 421.2 222.2 421.3 224.8 421.5 224.2 421.7 219.9 422 220.1 422.4 219 422.6 224.2 422.8 224.8 423 226.1 423.2 224.8 423.5 228.2 423.5 230 423.6 228.1 423.8 224.1 424 223.7 424.3 224 424.6 220.3 424.9 219.1 425.2 217 425.6 217.1 426 218.4 426.4 221.7 426.9 220.6 427.3 218.2 428 217.7 428.5 215.4 429 217.9 429.7 214.3 430.5 211.5 431.4 211.6 432.3 208.9 433 205.5 433.8 207.8 434.7 208.3 435.6 205.9 436.4 206.3 437.3 204.1 438.1 206.4 438.6 209.5 439.3 208.6 440 210.5 440.6 209.1 440.9 203.4 441.3 203.2 441.6 212.8 441.9 211 442.4 212.6 442.9 214.4 443.5 217.1 444.1 209.8 444.6 209 445.2 206 445.8 210.6 446.2 212.3 446.5 219 446.9 220.8 447.4 219.4 447.9 219.3 448.5 220.8 449.1 216.4 449.7 214.2 450.3 214.5 451.1 214.1 451.6 219.4 452.5 218.6 453.2 214.3 453.9 217.2 454.9 213.8 455.6 213.6 456.4 213.2 456.9 211.7 457.3 209.2 457.6 206.6 457.7 203.9 457.9 207 458 210.4 458.3 209.5 458.4 206.5 458.7 213.5 458.8 215.4 459 218.5 459.3 216.2 459.7 218.1 459.8 226.2 459.9 229.5 459.9 229 459.9 233.1 460 233.1 460 237.6 460.1 234.3 460.1 231.2 460.2 232.9 460.3 232.9 460.4 236.3 460.4 241.3 460.4 242 460.5 249.4 460.5 247.4 460.6 251.4 460.6 256.9 460.6 255.5 460.7 254 460.7 259.3 460.7 267.9 460.8 273.8 460.8 274.3 460.8 269.8 460.8 268.8 460.8 275.2 460.9 271.7 460.9 271.4 460.9 270.8 461 270.4 461 273.7 461 269.6 461.1 267 461.1 266.8 461.2 268.2 461.3 269.5 461.4 271.5 461.4 272.2 461.5 272.5 461.6 273.4 461.7 270.4 461.8 268 461.9 267.8 462 271.3 462.1 271.7 462.2 267.6 462.4 269.5 462.5 265.2 462.7 268.4 462.9 269.8 463.1 272.3 463.2 271.2 463.4 271.4 463.6 274.2 463.7 272.1 463.9 272.4 464.1 272.3 464.4 273.3 464.5 275.6 464.7 273.7 464.9 275.5 465.1 276.7 465.3 274.8 465.5 273 465.9 277.2 466 277.8 466.2 281.7 466.3 281.5 466.5 282.5 466.7 285.3 466.8 287.9 466.8 288.6 466.9 290.3 467 290.2 467.1 297 467.1 297 467.3 293.5 467.3 301.2 467.3 308.6 467.4 299.5 467.4 302.4 467.4 305.8 467.5 301 467.6 299.8 467.7 293.9 467.8 289.6 467.9 288.2 468 293.6 468.1 297.1 468.2 295.2 468.4 296.8 468.6 296.5 468.9 292.5 469.2 294.4 469.5 294.8 469.5 302.9 469.6 303 469.6 311.1 469.6 319.3 469.6 316.6 469.6 317.6 469.7 324.6 469.7 314.4 469.7 315.4 469.7 322.7 469.7 321.6 469.8 319.7 469.8 327.4 469.8 330 469.8 327.1 469.9 323.7 469.9 325.8 469.9 320.8 469.9 319.3 470 321 470 322.5 470.1 320.1 470.1 329.1 470.1 331.1 470.2 342.7 470.2 347.1 470.2 358.6 470.2 369 470.2 359.6 470.2 386.8 470.2 369.9 470.2 358.8 470.2 353.6 470.2 359.9 470.3 383 470.3 383.4 470.3 403.9 470.3 400.9 470.3 395.1 470.3 372.1 470.3 403.8 470.3 392.4 470.3 404.5 470.3 419.7 470.3 428.6 470.3 428.5 470.3 428.4 470.4 421.1 470.4 435.2 470.4 435.2 470.4 413.4 470.4 392.3 470.4 388.7 470.4 363.7 470.4 368.1 470.4 374.8 470.4 382.6 470.5 369.4 470.5 382.2 470.5 382.5 470.5 385.3 470.5 381.6 470.5 385.4 470.5 392.1 470.5 386.4 470.5 393 470.5 397.4 470.5 401.6 470.5 398 470.6 394.2 470.6 405.6 470.6 405.8 470.6 395.7 470.6 391 470.6 391.2 470.6 389.3 470.6 390.6 470.6 383.2 470.6 386.8 470.7 385.9 470.7 372.9 470.7 378.9 470.7 377.5 470.7 377.7 470.7 367.5 470.7 360.8 470.7 363.1 470.7 362.2 470.7 369.1 470.7 358 470.8 356 470.8 361 470.8 357.8 470.8 352.8 470.8 354.8 470.8 361.1 470.8 363.2 470.9 364.2 470.9 367.5 470.9 364.6 470.9 366.5 470.9 364.4 471 358.2 471 359.1 471 359.6 471 359.3 471 354.5 471 347 471 335.7 471 344.6 471 337.2 471.1 336.1 471.1 333.2 471.1 328.2 471.1 322.3 471.1 336.7 471.1 341 471.1 343.9 471.2 324.9 471.2 333.9 471.2 327.7 471.2 320.5 471.2 316.8 471.2 308 471.2 310.1 471.3 314.2 471.3 316.3 471.3 320.9 471.3 325.7 471.3 323.7 471.3 321.9 471.4 314.8 471.4 316.5 471.4 312.8 471.4 311.1 471.4 313.7 471.5 311.8 471.5 312.7 471.5 314.3 471.5 320.7 471.5 326.5 471.5 322.9 471.6 327.2 471.6 327.8 471.6 328.1 471.6 331.2 471.6 338.5 471.6 323.8 471.6 330.3 471.7 331 471.7 329.3 471.7 328.8 471.7 320.6 471.7 324.9 471.7 322 471.8 322 471.8 323.1 471.8 321.2 471.8 322.2 471.9 323 471.9 320.7 471.9 319.7 471.9 321.5 472 324 472 326.5 472 323.6 472.1 324.3 472.1 330 472.1 333.9 472.2 335.5 472.2 332.7 472.2 332.7 472.3 327.2 472.3 327.5 472.4 326.3 472.4 329.7 472.5 325.8 472.5 329.1 472.6 328.8 472.6 330.6 472.7 330.1 472.7 328.9 472.8 325.4 472.8 324.8 472.9 330.4 472.9 331 473 332.8 473 335.3 473.1 333.5 473.1 330.4 473.2 328.4 473.3 337 473.4 339.9 473.5 343.3 473.5 340.6 473.6 336 473.7 337.1 473.8 334.8 473.9 326.5 473.9 329.4 474 327 474.1 324.5 474.2 324.1 474.3 320.9 474.4 322.6 474.4 328.9 474.5 334.4 474.6 336.6 474.6 345 474.7 338.9 474.8 340.7 474.9 333.8 474.9 331.1 475.1 328.3 475.2 330.6 475.3 341.5 475.3 342.7 475.5 339.1 475.6 336.9 475.8 336.5 476 332.9 476.2 332.7 476.5 339.9 476.7 342.1 476.9 346.9 477 349.5 477.1 354.6 477.3 351.4 477.4 349.6 477.6 353.9 477.7 358.3 477.8 356.4 477.9 360.1 478 361.6 478.2 356.7 478.3 353.6 478.4 353.9 478.5 350.8 478.6 350.2 478.7 343.7 478.8 345.2 479 341.2 479.1 340.9 479.3 337.3 479.3 334.5 479.5 335.8 479.7 334.3 479.9 341.9 480 347.5 480.1 348.3 480.3 352.6 480.4 348.8 480.6 351.2 480.8 355.4 480.9 350.4 481.2 350.6 481.4 344.5 481.6 347.9 481.9 343 482.1 346.4 482.4 345.8 482.6 348 482.8 344.7 483 341.4 483.2 341.4 483.5 346.5 483.8 349.9 483.9 352.9 484 351.5 484.3 351.2 484.5 346.1 484.8 346.2 485 345.7 485.3 343.8 485.6 344.6 486 347.9 486.2 352.1 486.5 353.1 486.6 354.8 486.8 352.8 487 353.4 487.1 352 487.3 355 487.4 357.2 487.6 355.5 487.7 361.5 487.9 355.4 488.1 357.8 488.3 353.5 488.5 348.3 488.6 345 488.7 343.6 488.9 348.1 489.1 341.6 489.3 340.6 489.7 342.2 489.8 336.8 490 338.7 490.3 339.1 490.6 340.6 490.8 337.6 491.1 339.7 491.4 340 491.8 337.9 492.1 333.3 492.3 337.6 492.6 338.7 493.1 340.4 493.4 344.2 493.5 344.3 493.8 340.8 494.2 338.8 494.6 337.1 494.9 338.1 495.3 336.2 495.7 340.6 496 343.5 496.4 341.6 496.8 340.4 497.1 343.1 497.2 344.6 497.4 344 497.7 339.7 497.9 337.4 498.2 340.8 498.5 343.1 498.8 344.6 499.3 342.5 499.6 340.5 499.9 336.8 500 335.9 500.3 336.1 500.7 337.9 501.1 338 501.4 339.1 501.7 336.2 502 337.9 502.3 342 502.6 340.4 503.1 340.4 503.5 337.7 503.9 338.6 504.3 340.7 504.9 341.3 505.6 342.3 506.3 343.7 506.5 348.9 506.7 354.2 506.8 356.9 506.9 356.4 507 355.7 507.1 358.6 507.4 356.9 507.6 355.9 507.7 360.8 507.8 356.2 507.9 355 508 358.9 508.2 358.3 508.3 361.9 508.5 363.6 508.6 364.7 508.7 365.2 508.7 371 508.8 373.5 508.9 370.7 509 369 509.1 368.6 509.2 371.4 509.3 371.2 509.4 376.1 509.4 371.4 509.5 372.9 509.6 379.6 509.7 380.1 509.7 381.1 509.8 377.6 509.9 372.2 510 372 510.1 365.4 510.2 361.6 510.3 365.5 510.5 361.8 511.1 361 511.3 360.8 511.6 360.4 511.8 361.4 512 360 512.2 356.3 512.5 357.3 512.9 360.4 513.1 358.8 513.3 360.3 513.6 357.9 513.9 358.6 514.4 358.7 514.8 361 515 363.7 515.3 362.6 515.4 354.5 515.7 363.2 515.9 367.5 516.1 369.9 516.2 365.6 516.4 363.5 516.6 360.6 516.8 366.3 517 366.3 517.1 362.3 517.3 362.2 517.6 363.4 517.8 365.6 518.1 366.6 518.3 362.2 518.6 360 518.8 361.8 519.1 362.4 519.3 364 519.5 359.1 519.7 353.7 519.8 354.5 520 352.8 520.1 349.1 520.3 349.4 520.4 345.8 520.5 344.1 520.8 347.6 521.2 348.2 521.4 343.2 521.7 339.8 522 342.6 522.3 344 522.6 344.9 523.2 343.3 523.7 341.6 524.3 342.5 524.8 340.3 525.2 338.6 525.7 337.4 526.4 337.7 526.9 340.8 527.6 337.7 528.2 336.4 528.8 336.3 529.4 340.6 529.8 341.3 530.3 340.6 530.8 336.7 531 331.6 531.2 336.2 531.6 341 532.3 340 532.9 337.9 533.5 340.7 534.3 340.6 534.8 336.4 535.2 335.8 535.6 338.3 536.2 338.6 536.6 343.1 536.8 343.8 536.9 344.2 537.1 339.9 537.3 342.6 537.6 342 537.9 340.8 538.1 338.5 538.5 336.8 538.7 339.5 538.8 334.4 538.9 324.7 538.9 318 538.9 322 538.9 310.6 538.9 312.1 538.9 311.1 538.9 310.7 539 312.7 539 309.1 539 299.5 539 302.1 539 301.5 539.1 302.6 539.1 300.1 539.1 297.1 539.1 291.7 539.1 291.5 539.2 294.9 539.2 298.4 539.2 299.5 539.2 303.3 539.2 302.4 539.3 300.3 539.3 298.1 539.4 296.1 539.4 294.1 539.4 292.3 539.5 290.3 539.5 292.3 539.6 294.5 539.6 287.4 539.7 291.3 539.7 285.9 539.8 281.1 539.8 279.6 539.8 282.8 539.9 283.4 539.9 282.9 540 288.2 540.1 290 540.1 292.6 540.2 293.4 540.2 297.4 540.2 299.6 540.3 294.3 540.4 296.1 540.5 289.6 540.6 290.3 540.8 287.2 541 282.8 541 278.8 541.1 275.2 541.1 273.4 541.1 276.4 541.2 276.4 541.3 276.2 541.4 279.3 541.5 280.5 541.6 279.4 541.8 277.5 541.9 281.4 542.1 280.8 542.1 275 542.1 267.3 542.1 261.8 542.2 260 542.2 263.2 542.2 264.2 542.2 271.8 542.2 268.4 542.3 271 542.3 271.6 542.4 272.9 542.6 272.1 542.8 269.1 542.8 266.2 542.9 261.9 543 264.7 543.2 263.4 543.4 263.2 543.6 264.9 543.8 261.3 544 269.5 544.1 267.6 544.4 264.7 544.7 263.7 545 268.5 545.3 272 545.5 272.5 545.9 270.7 546.3 266.8 546.7 264 547.1 265.9 547.6 262.4 547.8 266.2 548.2 263.7 548.4 263.8 548.5 262.9 548.8 261.1 548.9 252.3 548.9 254.8 549 262.4 549.2 265.7 549.4 265 549.5 259.5 549.8 263.2 549.9 271.6 550.1 273.2 550.2 270.2 550.6 268.2 550.9 261 551 266.2 551.2 267.7 551.3 264.6 551.5 266.4 551.7 264.5 552 264.7 552.2 262.2 552.5 265.1 552.7 266.1 553 270.3 553.3 262.8 553.5 263.8 553.8 260.7 554.1 260.4 554.3 262.9 554.5 263.3 554.6 254.5 554.7 258.4 554.9 260.5 555.1 261.8 555.3 265.7 555.5 262.4 555.7 261.6 555.8 264.1 556 264 556.1 263.5 556.3 264.7 556.5 260.7 556.7 255.9 556.9 256.7 557.3 255.3 557.4 249.8 557.5 247.4 557.5 254.6 557.7 254.9 558 258.3 558.3 255.8 558.6 258.5 558.9 257.2 559.2 258.2 559.6 257.7 560 261.9 560.2 262.4 560.6 264 561 263.3 561.4 268.2 561.7 265.9 562.1 265.8 562.4 264 562.8 264.1 563.2 265 563.8 265.6 564.2 263.1 564.6 260.5 564.9 258.5 565 256.8 565.3 258.6 565.7 254.9 566 252.2 566.2 253.5 566.6 252.2 566.9 250.3 567.1 256.4 567.4 255.1 567.8 251.8 568.1 253.8 568.5 253.7 569 255.9 569.4 259 569.6 259.3 570 258.2 570.5 258.7 571 259.1 571.3 259.8 571.7 261.6 572.2 260 572.4 262.3 572.5 267.5 572.6 266.7 572.7 266.7 573 270.5 573.1 274.2 573.1 278.6 573.1 283.6 573.2 278.5 573.3 277.6 573.4 276.9 573.7 278.7 573.8 275.7 574 282.1 574.2 278.3 574.3 270.1 574.5 273.4 574.7 272.4 574.9 266.2 575 268.5 575.2 269.7 575.4 272.1 575.6 273.8 575.7 271.8 575.9 273 576.1 269.1 576.3 271.4 576.5 264 576.5 261 576.5 257.2 576.5 256.6 576.6 258.5 576.6 262.8 576.7 267.4 576.7 266.7 576.8 269.5 576.8 264.6 576.9 264.2 577 265.3 577 262.5 577.1 259.9 577.2 257.4 577.3 257.6 577.4 259.8 577.5 262.7 577.6 266.1 577.7 262.6 577.9 268.2 577.9 270.6 578 273 578.1 274.6 578.2 272.5 578.3 266.8 578.4 268.6 578.5 271.7 578.6 273.7 578.8 274.5 579 271.3 579.1 274.1 579.3 269.2 579.5 265.9 579.7 267.4 579.9 266.8 580.2 266 580.3 262.9 580.6 262.9 580.8 259.7 581 261.1 581.2 264.8 581.3 257.8 581.5 260.4 581.8 261.5 582 258 582.2 256.8 582.4 253.2 582.6 258.4 582.9 255.9 583.2 255.8 583.4 252.8 583.6 255 583.8 251.4 583.9 241.3 583.9 240.7 584 242.4 584.2 247.5 584.4 246.2 584.7 242.1 585 244.2 585.2 243 585.6 242.7 585.9 238.2 586.1 234.8 586.3 237.2 586.7 233.4 586.9 234.4 587.1 235.1 587.4 233.8 587.8 236.2 588.2 234.5 588.8 230.7 588.9 230.8 589.4 230 590.2 234.1 590.8 233.6 591.3 235.6 592 230.6 592.7 235.7 593.3 239.9 593.9 239 594.3 236.8 594.7 234.3 595.1 240.3 595.5 240.3 595.7 244.6 595.9 243.8 596.3 242.8 596.9 246.9 597.3 250.1 597.6 251.2 597.9 250.7 598.3 253.3 598.6 254.8 598.8 259.5 599 261.4 599.2 257.5 599.6 263.6 599.9 260.4 600.3 259.6 600.7 263.1 601 262.5 601.3 262.1 601.5 267.6 601.7 270 601.8 274.5 602 274.1 602.2 270.6 602.4 267.1 602.7 271 603 272.3 603.1 279.6 603.2 279.4 603.3 282.2 603.4 279.9 603.6 280 603.8 277.7 604 278.6 604.3 279.4 604.4 283.1 604.6 285.8 604.7 291.7 604.7 291 604.9 294.7 604.9 298.6 605 299.4 605 303.6 605.1 299.4 605.2 299 605.2 295.7 605.4 293.5 605.5 296.3 605.7 297.7 605.8 295.6 606 296.6 606.2 293.5 606.4 297.1 606.5 301 606.6 302.1 606.7 301.2 606.8 301.9 607 303.5 607.1 306.2 607.2 307 607.3 303.2 607.4 299.8 607.5 303.2 607.7 303.4 607.9 296.5 608.1 297.1 608.3 298 608.6 299.1 608.8 296.5 609.2 298.5 609.5 296.6 609.8 298.4 610 301.1 610.2 302.3 610.4 301.3 610.6 304.6 610.8 306.6 610.8 312.9 610.9 315.1 610.9 311 611.1 312.2 611.2 315.5 611.2 320.2 611.3 321.8 611.3 319.9 611.4 315.7 611.5 313.8 611.6 316.3 611.8 310.1 611.9 311.3 612 308.3 612.2 304.6 612.3 305.5 612.5 305 612.6 302.6 612.9 302.9 613.1 303.3 613.5 303.2 613.8 306.9 613.9 306.9 614.1 307.8 614.3 311.5 614.5 311.4 614.7 311.8 614.9 310.5 615.1 308.4 615.3 311.9 615.6 313.7 615.8 312.5 616 311.1 616.1 309.4 616.2 309.1 616.2 309.6 616.3 315.1 616.3 319.7 616.4 316.5 616.4 312.7 616.4 313.5 616.5 316.8 616.5 308 616.6 305.3 616.6 303.7 616.7 309.1 616.8 307.1 616.9 310.9 617 307.9 617.1 306.4 617.2 308.5 617.3 310 617.4 301.6 617.4 299.3 617.4 294.1 617.5 296.3 617.6 299.5 617.7 302.1 617.8 305.1 617.9 307.5 618 304.2 618.1 298.5 618.2 296.8 618.4 301.7 618.5 303.9 618.7 302.2 618.8 302.4 619 306.2 619.1 305.8 619.3 302.2 619.5 300.8 619.6 296.9 619.7 298.7 619.8 290.5 619.9 289.1 619.9 289.5 620 282.7 620.1 280.3 620.1 282.1 620.2 278.8 620.3 281.4 620.4 281.8 620.5 281.4 620.6 273.3 620.7 271.8 620.8 273.1 620.8 263.6 620.8 263.2 620.9 262 620.9 267.3 620.9 262.9 621 269.2 621 265.9 621.1 266.8 621.2 268.5 621.3 266.1 621.4 266 621.6 265.2 621.7 262.3 621.8 267.9 621.8 273.8 621.9 274 621.9 279.5 622 282.4 622 277.9 622.1 270.2 622.1 269.6 622.2 268.1 622.3 265.1 622.4 266.3 622.5 266.9 622.7 267.8 622.8 268.6 622.9 272.7 623 269.7 623.2 270.8 623.4 270.1 623.6 270.7 623.8 268.6 624 263.8 624.2 268 624.4 267.2 624.6 270.5 624.8 271.1 625.1 268.6 625.4 266 625.7 266.2 626 265 626.2 273 626.2 276.3 626.3 279.5 626.3 276.5 626.4 279.5 626.4 282.5 626.5 282.2 626.5 279.1 626.6 275.2 626.7 271.3 626.8 271.1 626.9 271.6 627.1 273.5 627.2 276.1 627.5 269.3 627.9 272.7 628.2 268.1 628.8 271 629.3 270.1 630.1 268.2 630.4 265.5 630.9 267.8 631.5 271 632 264.4 632.6 264.2 633.3 265.7 633.8 268.6 634.1 272.6 634.4 269.8 634.6 272 634.9 270.5 635.2 275.7 635.5 272.1 635.9 275 636.3 274.7 636.7 269.7 637.1 270.9 637.3 265.3 637.6 263 637.9 266.7 638.3 268.2 638.7 271.8 639 274.4 639.3 275 639.6 278.9 639.8 277.6 640.2 277 640.7 272.2 641 273.8 641.5 268.6 641.8 268.7 642.3 268.4 642.6 273.2 643.1 271.6 643.6 270.4 643.9 275.3 644.2 277.2 644.5 271.9 644.7 270.4 645.1 269 645.4 268.3 645.8 269.4 646.4 268.8 647 265.2 647.3 262 647.4 258.5 647.5 259.7 647.5 249.5 647.6 249.5 647.6 247.1 647.7 249.1 647.9 250.6 648.2 252.9 648.6 252.7 648.9 258 649.1 259.6 649.3 261.1 649.6 258 650 260.9 650.5 260.9 650.7 267.3 650.9 267.5 651.2 269.3 651.7 268.5 652.1 271.8 652.2 274.4 652.6 272.4 653.1 272.3 653.5 273.2 653.9 275.1 654.1 278.7 654.3 277.6 654.6 277 655 276.1 655.3 278.3 655.6 278.1 655.8 279.4 655.9 273.8 656 274.3 656.1 278.2 656.2 279.2 656.3 284.5 656.3 290.5 656.4 288.5 656.4 284.2 656.5 283.8 656.7 281.3 656.8 276.8 656.9 272.7 657 275.5 657.2 276.2 657.4 277.8 657.6 282.7 657.7 285.2 657.8 288.3 658 290.8 658.1 291.5 658.1 293.3 658.2 294.6 658.3 297.5 658.4 295 658.6 292.7 658.7 296.3 658.8 297.1 659 294.4 659.1 292.6 659.2 296.2 659.3 301.5 659.4 298.4 659.5 301.9 659.6 303.2 659.7 305.4 659.8 301.6 659.9 301.8 660.1 301.8 660.2 300 660.3 300.3 660.5 299.8 660.7 296.5 660.9 300.5 661.2 301.6 661.4 300.4 661.6 305.2 661.8 305.8 661.9 309.9 661.9 309.7 662 312.9 662.1 310.6 662.3 308.9 662.5 311.7 662.7 306.1 662.9 302 663.1 299.5 663.4 302.8 663.7 299.8 663.9 296.7 664.2 301.2 664.7 297.3 665 298.2 665.4 297.6 665.8 296.4 666.2 298.8 666.4 303 666.7 301.2 667.3 302.9 667.4 310.4 667.5 310.9 667.7 302.8 667.9 302.2 668.3 305.4 668.5 309.8 668.6 306.9 669 303.6 669.4 303.9 669.8 309.1 670.1 307 670.4 303.9 670.9 302.8 671.3 306.3 671.7 305.4 672 304.7 672.5 300.9 672.9 302 673.4 302 673.7 298 674 299.5 674.3 300.8 674.6 301.1 675 297.7 675.4 297.8 675.7 296.1 676.2 297 676.5 296.1 676.7 291 677.1 292.2 677.5 293.6 678 289.8 678.6 291.3 679.1 291 679.8 293.3 680.6 290.6 681.1 298 681.5 296.7 681.9 296.5 682.3 295.9 682.7 293.1 682.9 299 683.4 295.9 683.8 294.1 684.1 292.1 684.5 287.2 684.7 286.6 685.1 289.3 685.4 294.9 685.7 295.8 686.2 296.7 686.5 297.9 686.9 296 687.5 300.6 688 298.6 688.5 297.4 688.9 302.4 689 308.4 689.1 309.9 689.2 306.1 689.3 293.4 689.3 289.5 689.3 290.1 689.4 288.9 689.5 289 689.7 289.7 689.9 287.6 690.1 283.8 690.1 279.2 690.2 281.9 690.5 285.4 690.9 283.4 691.4 285.5 691.7 286.7 692.2 288.2 692.5 284 693 282.3 693.1 279.8 693.4 285.3 693.8 286.7 694.1 283.9 694.5 283.1 695 285.9 695.3 286.9 695.5 285.1 695.7 280.8 695.8 284.3 696 287.5 696.1 291.1 696.2 293.8 696.3 292.7 696.4 294.9 696.6 298 696.7 300.5 696.8 300 696.8 301.2 696.9 301.7 697 297.4 697.1 296.5 697.3 297 697.4 291.1 697.5 285.1 697.5 283 697.6 287.5 697.8 289.8 698 293.6 698.1 299 698.2 297 698.4 295.3 698.6 296.9 698.7 301.3 698.8 303.8 698.9 303.2 699 304.1 699.1 308.1 699.2 307.5 699.2 313 699.3 311.1 699.3 313.2 699.4 314.5 699.5 317.7 699.5 321.8 699.5 321.2 699.6 322.5 699.7 324.2 699.7 324.6 699.7 322 699.8 319.8 699.9 319 700 318.5 700.1 323 700.1 325.6 700.2 325.5 700.3 326.4 700.3 327.1 700.4 329.9 700.5 329.2 700.6 326.3 700.7 326.6 700.7 320.1 700.8 323.8 700.9 319.1 701 316.4 701.1 314.6 701.2 312.1 701.3 308.2 701.3 311.8 701.4 312.1 701.5 313 701.6 312.6 701.7 309.3 701.8 310.6 702 311.7 702.2 310.4 702.4 314.1 702.6 314.7 702.8 315.4 703 319.7 703.1 322.9 703.2 322.8 703.3 324.8 703.4 321.9 703.6 323.1 703.8 323.8 703.9 321.4 704 321.6 704.1 319.3 704.3 319.4 704.4 320.9 704.6 318.5 704.7 322.1 704.9 324.5 705.1 328.6 705.2 326.4 705.4 328.9 705.5 332 705.6 329.4 705.7 330.4 705.9 329.9 706 326.9 706.1 328.4 706.3 330.4 706.5 328.8 706.8 330 707.1 333 707.2 337.7 707.3 333.5 707.5 332.7 707.7 332.5 707.9 332 708.2 332 708.5 330.6 709 328.1 709.6 326.3 710 328.4 710.5 328.7 711.1 328.8 711.5 326.1 711.9 323.3 712.5 322.6 713 323 713.4 320.9 713.8 316.9 714.2 317.2 714.5 313.8 714.8 311.5 715.1 314.1 715.5 316 716 319.2 716.4 318.9 716.9 320 717.3 317.1 717.7 314.6 718.1 315.7 718.7 313.5 719.2 315 719.9 315.1 720.5 316.4 721 317.2 721.5 318.4 722 316.4 722.4 321.2 722.7 322 723.2 321.5 723.4 326.9 723.6 328.7 723.7 332.9 723.8 337.1 723.8 334.6 723.9 338.6 724 338.5 724.1 342.8 724.2 342.1 724.3 339.4 724.4 341.2 724.5 343.4 724.6 347.3 724.6 350.3 724.7 349.2 724.7 350.1 724.8 349.1 724.9 348.5 725 348.1 725.1 345.6 725.2 348.8 725.3 353.1 725.4 349.5 725.5 351.3 725.6 351.4 725.7 350 725.9 351.1 725.9 353.8 726 356 726.1 357.1 726.2 359.9 726.3 356.3 726.4 356.1 726.5 362.2 726.5 363.9 726.6 363 726.7 363.9 726.7 364.1 726.8 359.7 726.9 360.7 727 359.6 727.1 357.1 727.2 361.8 727.3 364.6 727.5 366.8 727.6 366.8 727.7 365.6 727.8 365.2 727.9 361.3 728.1 362.3 728.3 361 728.4 362.5 728.6 357.6 728.7 355.1 728.9 357.6 729.1 361.1 729.3 362.2 729.5 361.3 729.7 364.6 729.8 367.1 729.9 366.9 730 372.2 730 375.4 730.1 372.2 730.2 372.9 730.2 372.7 730.4 371.7 730.5 370.1 730.7 367.7 730.8 365.8 731 363.2 731.2 363.4 731.3 359.2 731.4 353.7 731.4 350.5 731.4 348.1 731.5 343.8 731.5 343.7 731.6 346.1 731.7 347.7 731.7 343.7 731.9 347.9 732 347.6 732.1 350.5 732.2 349.7 732.4 347.4 732.6 352.4 732.8 349.3 733 349.3 733.2 347.4 733.4 346.5 733.6 349.8 733.8 348.2 734.1 350.7 734.4 348.7 734.7 353.6 734.9 353 735.1 350.4 735.2 349.4 735.2 350.2 735.3 345.8 735.4 346.2 735.5 350.6 735.5 355.7 735.6 356.5 735.6 357.1 735.7 351.5 735.8 347.9 735.9 345.5 736 348 736 346.7 736.1 350.9 736.2 355 736.3 352.2 736.5 352.2 736.6 355.5 736.7 355.2 736.8 358.9 736.9 361.5 737 362.8 737.1 363.4 737.1 359 737.2 358 737.3 356.4 737.3 351 737.4 353.8 737.5 358.1 737.7 356.2 737.8 352 737.9 355 738.1 356.2 738.2 356.4 738.4 352.3 738.6 355.7 738.7 356.6 738.8 351 739 350.3 739.1 346.4 739.3 346 739.3 342.2 739.4 335.5 739.4 339 739.5 337.7 739.7 340.7 739.8 339 740 339 740.1 341.1 740.2 346.7 740.4 345.8 740.6 344.4 740.8 349.9 741 347.7 741.3 347.7 741.5 349.5 741.8 348.2 742.1 342.5 742.3 344.6 742.5 340.7 742.7 340.5 743 341.4 743.3 336.8 743.6 334.6 743.9 338.1 744.3 336.1 744.7 334.2 745 337.5 745.4 340 745.8 338 746.2 338.6 746.5 333 746.9 333 747.5 332.1 747.7 326.6 748.2 327.9 749 326.7 749.7 329.7 750.2 333.1 750.9 332.4 751.6 335.3 752.4 338.2 753 339.7 753.4 338 754.2 335.4 754.7 331.2 755 328.9 755.7 330.6 756.1 330.5 756.7 329.4 757.3 334 758.1 329.3 758.8 328.5 759.3 332.1 759.8 333 760.5 335.2 761.3 332.1 762 329.2 762.7 327.1 763.4 329.2 764.2 325.2 764.2 317.9 764.3 316.3 764.4 317.2 764.6 322.3 765 323.5 765.4 321.8 765.7 323.7 766.2 322.6 766.8 324.4 767.4 326.9 767.9 327.6 768.5 326.9 769.3 327.7 769.9 326.8 770.3 324.8 770.9 328.3 771.7 327.4 772.7 324.4 773.4 327.5 774.2 328.3 774.9 328.9 775.2 330.9 775.8 330.3 776.2 330.7 776.7 325.8 777.4 326.6 778.1 327.8 778.9 326.3 779.6 329.7 780.1 332.1 780.8 329.5 781.4 324.4 782 325.6 782.6 324.4 783.6 324.3 784.8 323.9 786 324.3 786.7 322.4 787.5 328.1 788.5 323.9 789.7 323.3 791.1 325.7 792.3 324.1 793.1 327.3 793.6 329.1 794.4 328.1 795.6 327.7 796.9 328.9 798 323.8 798.5 320.2 799 321.4 799.7 321.6 800.9 320.1 801.2 319 801.9 322 802.7 323.9 803.3 325.9 804 324.6 805 325.9 805.8 324.3 805.9 310.7 805.9 314.3 806 321.6 806.1 323.4 806.1 331.5 806.1 330.7 806.2 328.3 806.5 329.5 806.8 330.1 807.2 332.9 807.5 329.2 808 330.7 808.2 322.1 808.3 322.2 808.4 317.7 808.4 315.6 808.5 317.3 808.7 317.7 808.9 320.4 809.1 318.8 809.4 311.8 809.5 310.5 809.6 314.1 809.9 315.3 810.4 311.4 810.6 310 810.8 310.5 811.1 314.2 811.7 316.3 812.1 314.1 812.6 317.7 813.1 316.1 814 317.6 814.5 312.5 814.8 309.5 815.1 308 815.2 304.7 815.3 304.2 815.5 306.3 815.7 305.1 815.9 298.8 816 298.2 816.1 300.7 816.3 301.6 816.5 301.9 817 299.3 817.5 302.6 818 302.8 818.7 303.3 819.3 304.6 819.8 302.1 820.3 301.7 820.4 296.2 820.5 292.9 820.7 294.3 820.9 296.7 821.2 298.8 822 298.4 822.6 297.7 823.4 296.4 824 299.4 824.9 301.2 825.7 301.9 826.7 299.1 827.3 297.6 828.5 298.2 828.8 296.1 829.2 294.8 829.7 292.3 830.2 293 830.6 296.8 831.3 301.4 831.6 301.4 832 304.8 832.4 307 832.5 311.5 832.6 314.6 832.7 316.8 832.9 316.4 833.1 313.2 833.4 311.5 833.7 313.4 834.1 310.6 834.5 311.3 835 311.5 835.4 315.4 835.7 310.7 836.1 306.9 836.4 306.1 837 307.6 837.4 306.2 838 302.9 838.2 299.5 838.2 293.9 838.3 290.6 838.4 290.6 838.5 287.9 838.6 286.6 838.8 290.5 839 290.7 839.4 287.8 839.8 287.2 840.1 286.2 840.5 284.5 841 283.1 841.2 282.1 841.6 281.1 841.9 281.1 842.1 278.5 842.4 278.9 842.8 277.6 843.2 278.7 843.6 280.8 844.2 280.3 844.8 283.7 845.3 284.9 845.7 288.6 846 282.8 846.2 285.8 846.7 286.6 847.2 288.4 847.8 287.9 848.4 285.4 849.1 286.8 849.6 287.8 849.8 291.9 850.2 293 850.6 291.6 851 290.2 851.5 287.6 852.1 289.5 852.7 288.6 853.3 288.8 853.9 288.7 854.2 289.2 854.4 288.3 854.6 288.2 854.8 287.5 855.1 289.1 855.4 291.5 855.7 290.6 855.9 288.3 856.3 287.9 856.8 286.4 857.1 291.8 857.4 291 857.9 290 858.1 288.7 858.2 295.9 858.3 299.8 858.3 304.6 858.4 302.3 858.5 302.8 858.6 301.7 858.8 303.2 859 303.5 859.2 307.6 859.3 309.9 859.4 312.5 859.5 312.4 859.6 314.1 859.9 311.2 860 307.4 860.3 310.2 860.6 312.5 861 314.8 861.3 308.6 861.7 308.6 862.2 309.1 862.7 306.9 863.3 304.3 863.9 306.7 864.4 300.2 864.8 300 865.2 300.4 865.8 301 866.8 296.5 867.6 301.8 868.4 303.3 869.3 299.4 870.5 301.5 871.5 302 872.1 302.8 872.8 301.6 873.4 307.9 874.1 307.3 874.7 309 874.9 311 875.2 311.9 875.6 313.6 876.2 313.1 876.8 313 877.7 312.2 878.1 317.5 878.2 320.7 878.3 323.3 878.3 326.8 878.4 326.4 878.5 327.1 878.7 326.9 878.9 327 879.1 331.2 879.2 331.1 879.5 333.6 879.7 333.7 880 333.9 880.2 332.9 880.5 331.7 880.9 332.3 881.2 329.6 881.8 329.7 882.2 326.3 882.6 324.8 883.1 324.7 883.7 324 884.3 324.1 885.1 325.3 885.7 328.1 886 331.8 886.4 329.7 887.1 328.2 887.8 329.8 888.6 329.6 889.2 327.8 889.5 323 890 327.8 890.7 325.1 891.4 323.6 891.9 319.7 892.1 320.5 892.5 318 892.9 323.5 893.2 324.2 893.3 326.7 893.7 325.7 894 328.2 894.1 323.3 894.3 329.3 894.4 330.2 894.6 332.4 894.8 328.5 894.9 324.2 895 318 895 315.7 895.1 314.7 895.2 311.5 895.3 308.3 895.4 310.9 895.5 316.7 895.6 313.6 895.8 312.6 896 310.8 896.1 305.8 896.2 302.4 896.2 298.9 896.3 295 896.3 291.7 896.4 291.3 896.4 296.7 896.5 292.9 896.5 289 896.6 287.6 896.7 287.6 896.8 288.9 896.9 286.6 897 281.2 897.1 283.9 897.2 280.4 897.3 283.7 897.5 282.6 897.6 277.4 897.7 278.1 897.9 279.2 898 275 898.1 276 898.2 280.2 898.4 276.3 898.7 274.5 898.7 272.8 898.9 270.7 899.1 273.6 899.2 274 899.4 277.5 899.5 279.7 899.6 286.4 899.6 290.6 899.7 288.8 899.7 293 899.8 287.8 899.9 292.1 900 294.6 900.1 295.1 900.1 302.7 900.2 304.5 900.2 303 900.3 300.9 900.4 294.8 900.5 296.9 900.7 296.2 900.8 292.4 901 292.4 901.2 294 901.5 294.2 901.6 299.6 901.8 299.9 902 297.6 902.3 301.9 902.6 295.3 903.1 293.8 903.6 294.4 903.9 295.6 904.5 295.5 904.8 300.6 905 305.9 905.1 310.1 905.2 307.2 905.6 310.3 906 310.1 906.6 306.4 906.8 316.7 906.9 315.8 907.1 314.3 907.6 308.7 908.1 312.9 908.5 314.2 908.7 317.9 908.8 316.8 908.9 321.5 909 321.4 909.2 316.9 909.5 321.2 909.8 320 910.2 319.1 910.5 326.7 910.6 329.6 910.7 329 911 327.9 911.3 327.9 911.6 324.1 912 330.4 912.1 330 912.2 339.6 912.2 337.4 912.4 335.1 912.6 334.8 913 335 913.3 331.9 913.7 333.3 914.2 331.3 914.6 328 915.1 327.5 915.9 330 916.6 334.8 917.1 332.2 917.7 332.3 918.3 328.2 918.9 325.8 919.6 326.5 920.1 331.8 920.4 332.8 920.7 333.7 921.2 331.6 921.9 329.1 922.5 331 923 334.8 923.5 331.6 924 331.1 924.7 330.8 925.2 330.3 926 332.1 926.6 336.5 926.9 334.8 927.3 337.7 927.6 335.8 928.1 334.6 928.7 336.1 929.2 339.6 929.4 339.1 929.5 341.2 929.5 347.8 929.6 346.1 929.6 347.4 929.7 341.1 929.8 340.4 929.9 339.5 930 337.3 930.2 339 930.6 338.2 930.8 341 931.2 338.6 931.5 333.8 931.8 334.6 932.3 333.2 932.8 335.4 933.1 330.9 933.5 334.5 933.6 338.7 933.7 335.1 933.8 334.1 934 336.1" opacity=".6"/><text x="942" y="472" fill="#d97706" font-size="11" text-anchor="start">3292</text><text x="942" y="396" fill="#d97706" font-size="11" text-anchor="start">3606</text><text x="942" y="320" fill="#d97706" font-size="11" text-anchor="start">3920</text><text x="942" y="244" fill="#d97706" font-size="11" text-anchor="start">4234</text><text x="942" y="168" fill="#d97706" font-size="11" text-anchor="start">4548</text><text x="942" y="92" fill="#d97706" font-size="11" text-anchor="start">4862</text><text x="942" y="80" fill="#d97706" font-size="11" font-weight="600" text-anchor="start">price</text><polygon fill="#16a34a" fill-opacity=".08" points="162.5 468 162.5 120.3 162.5 119.2 409.8 119.7 469.7 118.1 470.3 117.1 470.4 117.6 539.1 116.1 724.1 116.7 820.4 117.5 929.5 118.7 929.5 468"/><polyline fill="none" stroke="#16a34a" stroke-linejoin="round" stroke-width="2" points="162.5 120.3 162.5 119.2 409.8 119.7 469.7 118.1 470.3 117.1 470.4 117.6 539.1 116.1 724.1 116.7 820.4 117.5 929.5 118.7"/><line x1="88" x2="110" y1="102" y2="102" stroke="#16a34a" stroke-width="2.5"/><text x="116" y="106" fill="#374151" font-size="11.5">equity</text><line x1="88" x2="110" y1="118" y2="118" stroke="#d97706" stroke-width="2.5" opacity=".8"/><text x="116" y="122" fill="#374151" font-size="11.5">price</text><text x="78" y="502" fill="#6b7280" font-size="12" text-anchor="start">2025-10-01</text><text x="934" y="502" fill="#6b7280" font-size="12" text-anchor="end">2025-10-22</text></svg>