<?xml version="1.0" encoding="UTF-8"?>
<svg xmlns="http://www.w3.org/2000/svg" width="1000" height="520" viewBox="0 0 1000 520" font-family="ui-sans-serif, system-ui, sans-serif">
  <rect width="1000" height="520" fill="#ffffff"/>
  <text x="78" y="28" font-size="18" font-weight="700" fill="#111827">Zone Recovery — WLDUSDC best setting (equity / PnL)</text>
  <text x="78" y="48" font-size="12.5" fill="#6b7280">lev 5 · ratio 2 · gap 20% · maxSteps 4 · maxDD 60% · random · vip 9  ·  63 series, 85.7% win · vol $32107361 ($32107600/day) · fees $2716</text>
  <text x="78" y="68" font-size="12.5" font-weight="600" fill="#1d4ed8">USDC · BNB −10% · taker 0.0085%</text>
  <text x="934" y="28" text-anchor="end" font-size="18" font-weight="700" fill="#16a34a">+74749 USDT  (+747.49%)</text>
  <line x1="78" y1="468.0" x2="934" y2="468.0" stroke="#e5e7eb" stroke-width="1"/><text x="68" y="472.0" text-anchor="end" font-size="12" fill="#6b7280">0.00</text><line x1="78" y1="392.0" x2="934" y2="392.0" stroke="#e5e7eb" stroke-width="1"/><text x="68" y="396.0" text-anchor="end" font-size="12" fill="#6b7280">26744</text><line x1="78" y1="316.0" x2="934" y2="316.0" stroke="#e5e7eb" stroke-width="1"/><text x="68" y="320.0" text-anchor="end" font-size="12" fill="#6b7280">53487</text><line x1="78" y1="240.0" x2="934" y2="240.0" stroke="#e5e7eb" stroke-width="1"/><text x="68" y="244.0" text-anchor="end" font-size="12" fill="#6b7280">80231</text><line x1="78" y1="164.0" x2="934" y2="164.0" stroke="#e5e7eb" stroke-width="1"/><text x="68" y="168.0" text-anchor="end" font-size="12" fill="#6b7280">106975</text><line x1="78" y1="88.0" x2="934" y2="88.0" stroke="#e5e7eb" stroke-width="1"/><text x="68" y="92.0" text-anchor="end" font-size="12" fill="#6b7280">133718</text>
  <line x1="78" y1="439.6" x2="934" y2="439.6" stroke="#9ca3af" stroke-width="1.5" stroke-dasharray="6 4"/><text x="934" y="433.6" text-anchor="end" font-size="11" fill="#6b7280">start 10000</text>
  <polyline points="78.0,148.3 79.7,147.1 81.3,147.5 82.8,148.2 84.6,148.1 86.4,148.2 88.2,147.6 89.1,146.9 90.7,147.7 92.9,148.2 94.5,147.8 96.5,147.5 97.7,147.4 99.2,146.9 99.4,146.1 99.8,145.3 100.4,145.7 101.2,144.9 101.9,143.6 102.3,142.4 102.5,141.5 102.5,143.0 102.7,142.2 103.1,141.8 103.4,142.0 103.6,144.4 104.1,144.4 104.8,144.1 105.4,145.1 105.9,145.0 106.7,144.8 107.8,144.2 108.4,144.7 109.6,144.9 110.5,145.1 111.9,144.6 113.2,144.6 114.0,144.4 114.7,144.4 115.8,144.1 116.8,142.9 117.1,142.4 117.4,141.5 117.8,141.6 118.5,141.2 119.2,141.0 119.8,140.7 120.8,140.5 122.0,141.1 123.0,141.3 123.8,141.4 125.0,140.7 126.4,140.8 127.9,141.8 129.1,142.3 130.4,141.3 131.1,140.3 132.2,141.4 133.4,141.2 134.9,141.8 135.9,141.8 137.0,142.3 138.2,142.0 139.5,141.8 141.3,141.3 143.0,141.3 144.4,140.8 145.3,139.6 145.8,141.3 146.9,140.7 148.4,140.9 149.9,141.2 151.9,140.9 153.1,141.5 154.8,141.2 154.9,140.1 154.9,139.6 155.0,138.1 155.1,138.8 155.5,137.9 155.9,138.7 156.5,137.8 156.9,137.6 157.3,137.0 157.7,137.3 158.1,136.3 158.5,135.9 158.9,137.3 159.5,136.7 159.9,136.9 160.2,135.6 160.7,134.9 160.9,135.1 161.5,135.4 161.9,136.5 162.1,137.8 162.1,137.3 162.4,137.6 163.0,138.1 163.7,138.3 164.6,138.6 165.7,137.8 167.2,137.5 168.0,137.7 168.8,138.4 169.7,138.6 170.8,138.8 171.2,139.7 172.3,140.2 173.1,140.6 173.7,139.8 174.6,138.9 175.5,138.9 176.7,139.7 177.7,139.9 178.9,140.1 180.2,140.4 181.3,140.6 182.2,141.2 183.1,141.8 183.7,142.3 184.9,142.0 186.5,141.8 187.6,141.4 188.2,141.1 189.2,141.1 191.0,141.4 192.1,140.6 193.5,140.6 195.0,140.1 196.4,139.1 197.0,137.3 197.0,138.0 197.1,137.5 197.3,136.7 197.8,136.4 198.2,135.4 198.6,135.6 198.8,135.3 199.3,134.9 199.8,134.8 200.1,134.0 200.3,133.6 200.4,132.5 200.5,132.3 200.8,133.2 201.1,132.4 201.2,132.0 201.4,131.9 201.5,131.1 201.7,130.9 201.9,130.9 202.1,131.0 202.3,130.3 202.4,129.6 202.6,129.3 202.9,128.6 203.0,127.7 203.1,126.3 203.1,125.6 203.1,125.5 203.2,126.8 203.3,127.2 203.4,128.0 203.5,127.8 203.5,127.7 203.6,126.9 203.7,126.1 203.8,126.3 204.0,125.6 204.2,125.8 204.5,125.8 204.8,125.7 205.2,126.0 205.4,125.7 205.7,126.1 206.2,125.8 206.6,126.5 207.1,125.4 207.3,125.0 207.7,125.8 207.9,127.3 208.3,127.7 208.6,127.6 209.0,129.0 209.4,128.5 209.7,128.6 210.1,128.4 210.2,129.5 210.7,130.0 211.0,131.0 211.3,130.6 211.8,131.2 212.3,131.5 212.6,131.2 212.8,131.0 213.2,130.3 213.6,130.6 214.1,131.3 214.3,131.4 215.1,132.0 215.5,132.0 216.0,131.9 216.6,132.7 217.0,133.1 217.2,133.2 217.9,133.6 218.1,134.2 218.5,133.5 218.8,132.7 219.2,132.7 219.9,132.6 220.7,131.4 221.1,129.8 221.4,130.9 221.8,131.3 222.0,132.0 222.3,132.0 222.7,132.3 223.7,133.4 224.1,133.2 224.5,134.3 224.8,134.0 225.2,132.6 225.6,131.4 226.1,132.6 226.5,132.0 227.1,132.5 227.5,131.9 228.0,131.9 228.7,131.7 229.1,131.0 229.9,131.4 230.4,132.2 230.7,132.2 230.8,131.4 231.1,132.0 231.5,132.5 232.3,133.0 232.9,133.4 233.4,132.7 233.9,132.4 234.8,132.1 234.9,133.3 235.6,133.4 236.1,134.1 236.3,134.6 236.9,134.8 237.6,135.3 238.5,135.7 239.1,135.6 239.6,134.9 240.0,133.3 240.4,132.8 240.7,133.0 241.0,132.7 241.2,134.4 241.2,134.8 241.2,134.6 241.4,134.1 241.9,134.1 242.2,134.7 242.4,133.9 242.7,134.7 243.4,133.4 243.8,132.9 244.0,132.3 244.2,130.7 244.4,129.7 244.6,130.0 244.8,130.2 245.4,129.3 245.6,129.3 245.9,129.3 246.2,130.4 246.5,131.2 246.6,131.2 246.8,130.8 247.3,130.4 247.6,129.2 248.0,129.2 248.4,128.7 248.7,128.4 249.2,129.0 249.8,129.0 250.5,129.1 251.2,128.8 251.8,128.3 252.4,128.7 253.3,129.0 254.0,128.8 254.8,129.0 256.3,128.8 257.0,129.0 257.6,129.4 258.3,129.7 258.4,131.1 258.8,132.0 259.3,133.1 259.5,134.2 259.8,133.1 260.4,133.4 260.7,132.9 261.4,133.1 262.4,133.5 263.1,133.4 263.7,134.2 264.7,134.0 265.5,133.7 266.4,133.1 267.1,132.3 268.3,132.9 268.5,131.8 269.1,131.7 269.7,131.8 270.5,131.2 271.1,130.9 271.8,130.6 272.3,130.6 273.0,130.3 273.9,130.4 274.6,131.5 275.1,132.4 275.8,133.2 276.4,132.1 276.9,132.7 277.9,133.4 279.0,133.3 280.2,132.7 281.2,132.3 282.4,132.0 283.1,131.1 283.8,130.7 284.2,129.9 284.9,129.7 285.4,128.8 286.1,129.6 287.4,130.0 288.1,130.1 289.3,129.7 290.6,130.5 292.1,129.1 292.6,129.2 293.5,129.0 294.4,129.4 295.1,130.4 295.6,129.5 296.3,129.9 297.2,129.6 298.2,130.1 299.1,131.0 299.9,130.7 300.6,130.6 301.6,130.7 302.3,131.2 302.9,131.8 303.3,130.3 303.7,130.4 303.9,131.0 304.4,131.2 304.9,131.5 305.5,131.4 306.2,131.4 306.4,130.4 306.9,130.0 307.8,131.2 308.8,130.6 309.6,131.0 310.2,131.3 311.1,131.4 311.9,131.9 312.8,131.9 313.4,132.8 314.1,133.2 314.8,133.9 315.5,133.7 316.2,133.0 317.1,132.4 317.8,132.6 318.9,133.6 319.9,133.4 320.6,133.6 321.3,133.9 321.8,134.7 322.3,135.0 322.5,136.4 322.5,136.8 322.6,137.5 322.6,138.3 322.7,137.9 323.0,137.1 323.6,137.5 324.0,137.3 324.7,137.1 325.7,137.5 327.1,137.7 328.1,137.6 328.3,138.5 328.6,138.5 329.0,138.8 329.7,138.7 330.6,139.1 331.3,139.3 331.9,139.6 332.2,138.9 332.8,139.5 333.3,138.4 334.3,137.5 335.5,138.1 336.9,138.9 337.6,139.2 338.5,139.8 339.3,139.9 340.1,138.8 340.8,139.1 341.5,139.6 342.7,139.9 343.7,139.5 345.1,138.9 346.3,139.7 347.3,140.4 348.3,140.4 349.1,140.0 350.2,139.9 351.0,140.4 352.4,139.8 353.9,139.9 354.6,140.2 355.1,140.5 356.0,140.7 357.0,140.8 358.1,140.8 358.2,141.3 359.0,140.1 359.9,140.1 360.7,139.9 361.7,139.8 362.4,140.3 363.3,140.6 364.1,140.8 364.8,139.2 365.4,138.9 366.5,139.7 367.2,138.8 368.1,139.1 368.9,138.8 369.8,138.0 370.6,138.0 371.9,138.4 372.9,137.2 373.5,137.1 374.2,137.6 374.7,137.5 375.4,138.2 376.1,138.8 377.0,139.3 378.3,138.2 379.6,137.7 380.8,136.9 382.1,136.7 382.6,138.3 383.5,138.5 384.5,138.5 385.4,139.2 386.4,138.7 387.0,138.8 387.8,139.0 388.5,139.0 389.3,139.3 389.8,138.7 390.7,138.5 391.4,138.4 392.5,137.9 393.5,136.7 394.4,136.5 395.1,136.0 395.9,136.2 396.6,135.5 397.0,134.3 397.4,134.3 397.4,132.6 397.5,132.4 397.7,132.1 398.1,132.7 398.8,132.2 399.2,132.1 399.6,132.4 400.0,133.2 400.5,133.1 400.9,134.0 401.2,134.0 401.5,132.8 402.3,133.7 402.9,134.0 403.2,135.3 403.6,135.5 404.2,135.8 405.3,136.5 406.3,136.3 407.0,136.4 408.0,137.1 408.9,137.8 409.7,137.9 410.7,139.1 411.9,138.7 413.3,138.4 414.2,137.0 415.1,136.2 415.8,135.0 416.3,134.9 416.8,134.7 417.5,134.6 418.5,134.9 419.1,133.8 420.1,135.0 421.0,135.0 422.6,135.8 423.9,136.8 425.1,135.5 426.1,134.9 426.9,135.5 428.1,136.2 428.7,136.4 429.1,137.3 429.6,136.5 430.3,136.2 431.4,136.6 431.8,136.0 432.9,136.6 434.1,136.9 435.4,136.4 436.0,136.5 436.8,136.1 437.8,136.6 439.2,136.3 441.5,136.8 442.6,136.5 443.9,136.1 445.7,135.5 447.6,135.2 448.4,136.6 449.9,135.5 451.7,135.8 453.4,136.2 454.3,136.7 455.1,135.4 456.3,135.7 457.4,135.1 459.2,136.2 460.7,135.0 461.5,134.2 462.7,134.1 464.1,133.4 464.7,133.1 465.6,133.1 466.8,133.3 467.9,132.3 469.1,132.4 470.5,133.4 471.6,133.7 471.8,133.3 472.7,133.7 473.5,132.9 474.6,134.1 475.3,134.0 476.1,134.0 476.9,134.2 477.9,134.9 479.4,134.7 481.1,135.0 482.4,135.1 483.4,135.5 485.0,134.8 486.9,134.7 487.9,133.3 488.4,132.7 489.5,133.0 490.4,132.6 491.2,131.9 492.1,131.6 492.8,130.8 493.9,131.1 495.6,131.1 496.9,130.0 498.0,129.9 499.1,129.4 499.9,129.2 500.6,127.8 500.7,127.0 500.9,126.3 501.1,126.0 501.6,126.4 502.1,125.9 502.7,125.4 503.2,125.0 503.8,125.7 504.7,125.9 505.0,126.1 505.6,126.8 505.8,125.8 506.1,125.6 506.4,126.3 506.8,126.1 507.3,125.6 508.0,124.6 508.2,123.9 508.3,125.2 508.8,125.5 509.2,126.3 509.8,125.3 510.3,124.7 510.9,124.6 511.4,123.7 511.8,124.9 512.1,124.6 512.7,125.5 513.2,125.4 514.0,125.8 514.7,126.7 515.2,127.1 515.6,127.4 516.2,127.9 516.5,126.5 516.6,125.9 517.3,126.0 518.1,126.1 519.3,126.8 519.5,126.6 520.0,126.0 521.0,125.6 522.0,126.3 522.4,126.3 523.0,125.8 523.8,125.5 524.2,125.4 524.5,125.5 525.1,125.7 525.6,124.9 526.2,123.9 526.4,122.9 527.4,124.5 528.6,125.7 529.4,126.4 530.3,125.6 531.0,124.7 531.8,124.2 533.2,123.6 534.2,124.0 535.2,123.1 536.0,123.1 536.7,122.0 537.0,121.0 537.3,121.8 537.7,122.6 538.1,121.9 538.8,122.6 539.2,121.3 539.7,122.2 540.3,121.7 540.6,120.8 541.8,121.1 542.2,121.4 542.5,122.0 542.8,121.0 542.9,120.0 543.1,118.9 543.2,118.6 543.4,117.5 543.5,116.8 543.6,115.8 543.7,115.8 543.7,114.9 543.8,115.8 543.8,115.2 543.9,116.7 544.0,116.0 544.1,115.6 544.2,116.6 544.3,115.8 544.3,116.2 544.6,115.8 544.8,116.2 544.9,117.0 545.0,116.9 545.1,117.9 545.2,116.7 545.5,116.9 545.9,117.4 546.2,118.4 546.2,116.6 546.5,115.5 546.6,116.2 546.8,115.8 547.0,115.6 547.2,115.9 547.5,116.4 547.7,116.0 547.8,116.9 548.0,116.9 548.2,116.3 548.7,116.2 549.4,117.3 549.7,117.8 549.9,118.4 550.2,118.9 550.5,119.3 550.8,118.4 550.9,116.4 550.9,117.0 551.2,117.5 551.5,119.0 551.8,119.0 552.1,119.0 552.6,119.3 552.9,118.0 553.0,118.1 553.2,117.2 553.4,116.8 553.8,116.4 554.1,115.8 554.5,116.1 554.9,116.6 555.4,117.7 555.8,116.2 556.3,116.3 556.7,116.3 557.0,116.9 557.4,116.8 558.0,116.7 558.8,117.3 559.2,118.6 559.6,117.9 560.1,117.6 560.3,117.3 560.7,116.8 561.0,116.8 561.3,116.9 561.9,116.9 562.3,115.9 562.5,114.5 562.7,115.3 562.9,116.4 563.3,117.1 563.5,118.4 563.5,118.8 563.5,118.8 563.6,119.3 563.7,119.2 563.9,120.3 564.0,120.9 564.1,120.8 564.3,120.0 564.4,120.0 564.7,119.9 564.8,118.8 564.9,118.1 565.1,118.2 565.1,119.4 565.2,118.9 565.3,118.8 565.5,119.1 565.8,119.4 565.9,120.5 566.1,119.6 566.3,120.0 566.5,120.9 566.8,120.4 567.2,120.1 567.4,120.5 567.5,121.3 567.7,121.8 567.9,121.0 568.2,121.4 568.6,121.1 568.8,122.1 569.0,121.4 569.3,121.1 569.6,121.1 570.0,121.4 570.3,121.2 570.6,121.5 571.0,122.6 571.2,123.2 571.4,123.2 571.6,123.3 571.9,123.0 572.1,123.4 572.5,124.0 572.6,123.4 573.1,122.8 573.8,123.8 573.9,124.3 574.3,124.4 574.9,124.5 575.7,124.8 576.7,123.6 577.4,123.2 577.7,123.8 578.0,124.4 578.3,125.3 578.5,125.0 578.9,123.6 579.3,122.9 579.8,122.7 580.4,121.9 580.8,122.3 581.2,122.5 581.6,121.8 582.3,121.8 583.0,121.8 583.8,122.4 584.4,121.8 585.2,122.2 585.8,123.5 586.2,123.6 586.6,123.9 587.1,124.7 587.5,125.0 587.7,125.9 588.0,126.7 588.1,126.4 588.3,126.1 588.5,126.8 588.7,126.6 589.3,126.3 589.7,126.1 590.3,125.5 590.8,125.2 591.2,125.9 591.6,126.2 592.1,126.3 592.8,126.2 593.5,126.7 594.1,128.0 594.3,127.6 594.5,128.4 594.8,128.3 595.3,128.3 595.7,127.0 596.3,126.8 596.7,127.0 597.4,126.9 597.9,126.5 598.3,125.9 598.9,126.1 599.3,126.5 599.9,125.8 600.8,126.6 601.5,126.5 602.1,127.7 602.6,128.6 603.0,128.1 603.8,127.3 604.7,128.2 605.2,129.2 605.4,129.1 606.0,128.3 606.6,128.8 607.8,127.8 608.4,129.4 609.2,129.2 610.1,129.8 610.7,129.8 611.3,130.2 611.7,130.4 611.8,131.6 611.8,132.6 611.9,131.4 611.9,131.9 612.0,132.6 612.0,133.2 612.1,132.9 612.2,133.3 612.3,134.2 612.3,134.5 612.4,133.4 612.4,133.7 612.5,132.6 612.5,133.0 612.6,133.6 612.7,133.9 612.7,133.2 612.8,133.5 612.9,134.6 613.1,134.2 613.2,134.3 613.3,134.8 613.4,135.6 613.4,134.8 613.5,135.3 613.6,135.9 613.7,135.4 613.7,135.1 613.8,136.3 613.8,136.1 613.9,136.6 614.0,136.6 614.1,136.4 614.2,135.9 614.3,137.0 614.4,137.5 614.4,137.7 614.5,137.9 614.6,137.2 614.6,136.8 614.7,136.9 614.8,136.9 614.9,137.1 615.0,135.3 615.0,136.7 615.1,136.9 615.2,137.0 615.3,137.5 615.4,136.8 615.4,138.0 615.6,138.7 615.7,139.0 615.7,138.3 615.8,138.8 615.8,138.2 615.9,138.0 616.0,138.3 616.2,137.8 616.3,138.5 616.4,138.5 616.5,138.2 616.6,136.6 616.7,136.7 616.8,137.5 616.8,137.3 616.9,136.8 617.0,136.4 617.1,135.3 617.2,136.6 617.3,136.9 617.4,136.5 617.6,135.9 617.8,135.7 618.0,135.6 618.2,136.4 618.4,136.5 618.7,137.1 618.9,136.4 619.1,135.3 619.3,134.6 619.4,134.9 619.6,134.0 619.8,134.4 620.0,134.7 620.2,134.9 620.3,135.0 620.7,134.9 621.0,134.5 621.3,134.2 621.4,133.8 621.6,134.5 621.8,134.8 622.0,134.8 622.2,134.0 622.4,133.2 622.5,133.3 622.7,133.8 622.8,134.2 623.0,134.0 623.2,134.3 623.3,135.0 623.5,135.0 623.6,136.0 623.6,135.1 623.7,134.5 623.8,134.8 623.9,134.9 624.0,134.7 624.1,135.8 624.3,135.0 624.4,135.3 624.5,136.2 624.8,135.8 624.9,136.1 625.0,137.1 625.1,136.6 625.2,136.2 625.3,137.1 625.3,137.4 625.5,137.0 625.6,137.8 625.7,137.9 625.8,137.8 625.8,137.1 625.9,138.3 626.0,138.9 626.0,139.2 626.1,138.7 626.2,139.5 626.2,139.3 626.3,138.9 626.4,138.9 626.5,138.2 626.6,137.4 626.7,137.5 626.8,138.4 626.9,138.8 627.0,139.2 627.1,139.8 627.2,140.6 627.3,139.6 627.3,139.6 627.4,140.1 627.5,139.7 627.7,140.5 627.8,141.0 627.9,140.6 627.9,140.5 628.0,140.9 628.1,141.2 628.3,140.8 628.4,141.2 628.4,140.4 628.5,140.1 628.5,139.7 628.7,140.8 628.8,141.2 629.0,141.4 629.0,143.0 629.1,141.8 629.2,142.2 629.3,141.4 629.4,140.5 629.6,139.4 629.8,140.0 630.0,140.3 630.2,140.9 630.3,141.4 630.4,141.4 630.6,142.0 630.8,142.3 630.9,143.1 631.1,143.5 631.2,144.7 631.2,145.0 631.3,146.6 631.3,146.6 631.4,146.6 631.5,145.4 631.5,144.5 631.6,145.4 631.6,145.7 631.6,146.8 631.7,147.8 631.7,149.4 631.8,149.3 631.8,148.7 631.8,149.4 631.9,151.1 631.9,151.0 632.0,150.3 632.0,149.7 632.1,148.7 632.1,146.5 632.1,147.2 632.2,147.0 632.3,147.8 632.3,147.4 632.4,148.3 632.5,148.0 632.5,148.0 632.6,149.2 632.7,148.4 632.8,148.3 632.8,149.0 632.9,148.3 633.0,148.9 633.2,148.6 633.2,148.9 633.3,149.3 633.4,150.6 633.4,151.2 633.5,151.5 633.5,150.9 633.6,151.3 633.6,152.3 633.7,153.1 633.7,152.2 633.7,151.6 633.8,152.0 633.8,150.2 633.9,150.2 633.9,150.3 634.0,149.9 634.1,148.9 634.2,148.6 634.3,148.5 634.4,149.7 634.4,149.6 634.5,149.6 634.6,149.2 634.8,150.8 634.9,150.0 635.0,149.3 635.0,149.5 635.1,148.8 635.3,148.6 635.4,148.3 635.6,147.8 635.7,148.8 635.8,148.0 635.9,147.5 636.0,148.8 636.1,148.3 636.2,148.9 636.3,148.8 636.5,148.2 636.7,148.0 636.8,148.7 637.0,149.4 637.1,149.8 637.2,150.5 637.4,151.2 637.4,150.5 637.5,150.3 637.6,149.3 637.8,148.8 638.1,147.2 638.2,147.0 638.3,147.1 638.4,145.8 638.5,145.3 638.7,144.5 638.9,144.2 639.0,144.1 639.4,143.6 639.7,144.1 639.8,142.8 639.9,144.2 640.0,144.4 640.2,145.1 640.3,145.0 640.4,146.1 640.5,144.5 640.5,144.0 640.7,144.3 640.8,145.5 640.9,144.7 641.0,145.7 641.3,145.7 641.4,145.7 641.7,145.8 641.8,145.3 642.0,144.9 642.2,145.6 642.4,146.2 642.6,145.7 642.7,145.8 643.0,146.7 643.1,146.5 643.3,145.8 643.6,145.8 643.8,146.5 643.9,147.9 644.1,148.0 644.4,148.0 644.7,148.2 645.0,148.2 645.2,148.3 645.4,148.3 645.6,148.1 645.8,149.6 646.1,148.9 646.4,149.6 646.7,150.0 646.9,149.4 647.4,149.9 647.7,150.3 648.1,149.5 648.3,150.0 648.7,150.5 648.9,151.3 649.0,150.7 649.1,150.6 649.4,150.8 649.6,149.5 649.7,150.8 649.9,150.3 650.1,151.0 650.3,151.3 650.5,151.1 650.7,150.6 650.9,149.5 651.1,150.2 651.3,150.1 651.6,150.2 651.8,149.3 652.1,148.8 652.2,148.0 652.4,148.3 652.6,147.8 652.8,148.2 653.0,148.1 653.3,148.1 653.5,147.9 653.8,146.9 654.1,146.7 654.4,146.2 654.6,147.1 654.8,146.9 655.0,147.7 655.2,148.2 655.5,147.9 655.8,147.2 656.0,147.4 656.4,148.1 656.6,148.3 657.0,148.8 657.5,148.9 657.8,149.2 658.1,149.5 658.4,150.6 658.7,150.3 659.0,150.1 659.4,150.8 660.0,150.8 660.2,150.6 660.5,150.5 661.0,150.4 661.4,150.6 661.8,150.1 662.3,149.7 662.7,148.0 663.0,148.3 663.4,147.1 663.8,147.7 664.3,147.2 664.7,147.6 664.9,148.2 665.3,148.6 665.6,148.8 666.1,148.9 666.4,149.6 666.6,149.0 666.9,148.8 667.2,149.2 667.5,148.8 667.8,147.9 668.1,147.2 668.5,147.0 668.7,147.0 669.0,147.0 669.3,148.1 669.6,147.3 669.9,147.2 670.3,146.9 670.8,146.2 671.3,146.7 672.0,147.4 672.5,147.4 672.9,147.5 673.3,148.6 673.6,148.7 674.0,148.5 674.5,149.1 675.1,150.4 675.6,150.7 676.0,151.0 676.5,151.3 676.9,150.1 677.4,151.3 677.7,151.8 678.0,152.0 678.2,152.6 678.6,152.1 678.8,152.0 679.1,152.0 679.4,152.0 679.9,151.2 680.2,151.5 680.7,152.1 680.9,152.5 681.3,153.2 681.5,152.9 681.9,153.2 682.2,153.2 682.4,153.1 683.0,153.6 683.2,153.5 683.6,152.7 684.3,153.1 684.6,152.7 685.0,153.2 685.3,153.2 685.9,153.1 686.2,154.4 686.4,154.4 686.9,154.5 687.3,154.7 687.4,154.8 687.9,154.8 688.3,153.7 688.8,153.8 689.2,153.3 689.7,153.2 690.3,153.4 690.9,153.6 691.1,154.2 691.4,152.7 691.8,151.8 692.1,152.2 692.3,153.4 692.8,153.5 693.2,154.1 693.4,154.0 693.7,153.0 694.1,153.2 694.5,152.6 694.9,152.7 695.5,153.2 696.0,153.4 696.5,154.0 696.9,154.7 697.2,153.8 697.6,153.3 698.2,151.7 698.7,151.9 699.2,152.5 699.6,152.3 700.1,152.2 700.5,152.1 701.1,152.2 701.6,151.7 702.2,151.5 702.7,151.6 703.1,151.7 703.6,151.9 704.1,151.9 704.6,152.6 705.0,152.5 705.4,152.8 705.7,153.1 706.0,153.8 706.3,153.5 706.7,153.9 707.0,154.2 707.3,154.9 707.6,154.8 707.9,155.2 708.2,155.6 708.6,156.1 708.9,155.8 709.4,155.7 709.8,156.2 710.2,156.8 710.2,157.5 710.4,157.5 710.9,157.3 711.3,157.3 711.5,158.2 711.7,159.4 711.7,159.8 711.8,159.1 712.0,159.9 712.0,161.1 712.1,160.2 712.3,159.8 712.5,158.9 712.8,159.0 713.0,158.8 713.2,157.5 713.4,158.3 713.8,159.0 714.1,158.6 714.3,158.7 714.6,157.9 714.9,158.1 715.2,158.3 715.6,159.2 715.9,158.8 716.5,158.5 716.9,158.3 717.3,158.3 717.5,157.9 717.9,158.8 718.2,159.3 718.5,159.4 718.9,159.2 719.5,158.0 719.9,158.1 720.1,158.8 720.4,158.7 720.7,158.7 720.9,158.6 721.2,158.3 721.4,158.1 721.8,157.4 722.0,157.8 722.3,158.1 722.9,157.4 723.2,157.3 723.6,157.6 724.0,157.2 724.3,158.1 724.7,158.1 725.0,157.0 725.4,157.8 726.0,157.8 726.3,157.9 726.9,157.6 727.5,157.5 728.1,158.2 728.6,157.6 729.0,157.7 729.3,156.8 729.5,156.9 729.8,156.8 730.2,157.3 730.7,158.0 731.1,158.4 731.8,158.6 732.1,158.1 732.6,157.2 733.2,157.6 733.6,156.1 733.8,156.4 734.7,156.5 735.3,156.0 736.0,156.1 736.5,156.8 737.2,158.3 737.9,158.2 738.4,158.1 738.7,158.3 739.3,158.8 739.8,158.7 740.4,158.7 741.2,158.7 742.1,158.9 742.2,159.4 742.8,159.1 743.3,158.9 743.7,160.0 744.0,160.1 744.2,159.9 744.5,159.3 745.1,159.3 745.6,158.5 746.0,158.5 746.7,159.2 747.0,158.4 747.4,158.7 747.8,159.6 748.3,160.2 748.7,160.9 749.1,161.6 749.3,160.9 749.7,160.5 750.2,160.8 750.7,160.8 751.2,160.6 752.0,160.7 752.8,160.3 753.6,160.1 754.4,160.5 755.2,160.7 755.7,160.4 756.1,159.9 756.6,160.7 757.0,159.9 757.5,160.5 757.8,160.7 758.5,161.0 758.9,161.6 759.1,161.1 759.4,162.2 759.5,162.1 759.9,161.5 760.4,161.8 760.8,162.7 760.9,163.2 761.0,163.4 761.1,162.8 761.4,163.5 761.7,163.5 761.8,163.6 762.2,163.2 762.4,162.9 762.7,164.2 762.8,164.1 763.0,164.3 763.3,163.7 763.7,163.1 764.3,163.7 764.7,164.2 764.9,164.9 765.3,163.5 765.7,164.1 766.0,164.0 766.5,164.2 767.2,164.5 767.6,164.1 767.8,164.8 768.1,165.2 768.2,164.4 768.5,164.9 768.7,166.3 768.7,166.1 768.7,166.5 768.8,166.0 768.9,166.0 769.0,166.7 769.1,166.3 769.3,165.4 769.4,165.9 769.7,166.1 769.9,166.0 770.3,165.4 770.6,164.4 770.8,163.5 771.0,163.1 771.2,162.9 771.3,162.4 771.6,162.8 771.8,163.2 771.9,163.9 772.3,164.9 772.4,165.3 772.7,166.0 772.8,167.1 772.9,167.1 773.0,166.4 773.1,167.0 773.3,167.5 773.3,168.4 773.4,167.9 773.4,168.7 773.5,171.3 773.5,171.5 773.5,170.7 773.6,169.7 773.6,169.4 773.7,168.7 773.7,169.0 773.8,168.3 773.9,167.7 774.0,168.0 774.1,167.1 774.1,167.1 774.2,167.5 774.3,167.8 774.5,167.0 774.6,167.5 774.8,167.6 775.0,167.0 775.1,167.5 775.3,167.8 775.4,168.4 775.5,168.9 775.6,169.0 775.7,168.6 775.8,169.2 775.9,168.7 776.1,168.8 776.2,168.4 776.4,167.9 776.6,168.1 776.9,168.1 777.0,167.2 777.2,167.1 777.5,166.6 777.8,166.9 778.1,166.7 778.3,166.6 778.6,166.2 778.8,166.7 779.1,167.4 779.2,167.6 779.5,167.3 779.8,166.6 780.1,167.5 780.3,167.0 780.5,165.9 780.7,165.7 780.9,166.3 781.3,165.7 781.8,165.6 782.2,164.9 782.4,164.7 782.7,163.9 783.0,164.3 783.3,165.4 783.8,165.0 784.2,164.4 784.6,164.6 785.1,164.9 785.4,164.7 785.7,165.9 786.0,166.6 786.4,166.5 786.6,167.1 787.0,166.5 787.4,166.4 787.7,167.1 788.0,167.0 788.4,167.3 788.7,167.1 789.0,166.7 789.5,166.5 789.8,166.1 790.3,166.6 790.7,166.8 791.1,167.1 791.4,166.7 791.7,166.8 792.1,166.9 792.4,166.4 792.7,167.1 793.0,166.8 793.3,167.0 793.9,166.8 794.0,165.9 794.3,165.3 794.4,165.9 794.6,166.3 795.1,165.3 795.5,165.0 795.8,166.1 796.4,166.0 796.6,166.3 797.0,167.2 797.4,167.2 797.8,166.5 798.5,166.4 799.0,165.2 799.3,166.1 799.8,166.0 800.3,166.3 800.8,165.6 801.4,165.3 801.7,166.0 802.3,166.8 802.7,166.7 803.5,166.8 804.3,165.8 804.8,165.0 805.4,164.8 806.1,165.0 806.8,164.8 807.5,164.1 808.0,163.4 808.5,162.6 809.0,162.0 809.5,162.9 810.2,163.9 810.7,164.6 811.3,164.4 811.9,164.2 812.4,164.5 813.0,164.1 813.6,164.2 814.3,163.5 815.0,163.1 815.5,163.1 815.8,162.7 816.3,163.5 817.1,163.5 817.6,163.3 817.7,162.8 818.1,163.2 818.9,163.1 819.4,162.6 820.0,162.0 820.6,162.3 821.1,161.7 821.2,163.3 821.3,164.0 821.3,163.7 821.3,163.6 821.4,163.8 821.4,164.8 821.4,164.5 821.5,164.7 821.6,164.6 821.6,164.8 821.7,164.6 821.8,164.6 821.9,165.2 821.9,165.5 822.0,166.5 822.1,167.1 822.2,166.0 822.3,165.9 822.3,165.7 822.4,167.4 822.5,166.7 822.6,168.3 822.6,169.2 822.6,168.2 822.7,169.9 822.8,170.4 822.8,170.4 822.8,171.5 822.8,171.5 822.8,169.9 822.9,170.7 822.9,170.3 823.0,169.2 823.0,169.0 823.1,168.5 823.3,169.4 823.3,170.5 823.4,171.0 823.4,173.1 823.4,175.3 823.4,175.4 823.4,177.4 823.4,177.0 823.5,177.0 823.5,175.2 823.6,173.4 823.6,174.0 823.6,174.3 823.6,173.8 823.7,174.8 823.7,175.7 823.8,175.9 823.8,174.8 823.8,175.0 823.8,174.9 823.9,175.2 823.9,175.6 824.0,175.8 824.0,175.1 824.0,175.1 824.0,173.9 824.1,175.1 824.1,174.2 824.1,173.7 824.2,174.6 824.2,175.1 824.3,175.9 824.3,175.6 824.3,174.5 824.4,174.5 824.5,175.0 824.6,176.8 824.6,177.8 824.6,179.1 824.6,178.0 824.7,179.1 824.7,179.5 824.7,180.1 824.8,181.1 824.8,182.3 824.8,184.4 824.8,187.3 824.9,188.0 824.9,187.8 824.9,191.5 824.9,193.4 824.9,194.4 825.0,194.1 825.0,192.4 825.0,190.7 825.0,184.6 825.1,182.5 825.1,182.5 825.1,181.4 825.1,184.7 825.2,183.5 825.2,183.0 825.2,183.1 825.3,185.0 825.3,184.5 825.3,183.5 825.4,183.0 825.4,181.6 825.4,182.6 825.4,182.7 825.5,183.2 825.5,184.6 825.5,184.8 825.5,185.2 825.5,183.7 825.6,182.8 825.6,183.2 825.6,183.0 825.6,183.4 825.7,182.8 825.7,183.0 825.8,183.8 825.8,182.8 825.8,182.2 825.9,182.6 825.9,183.8 825.9,183.0 826.0,183.5 826.0,184.3 826.1,185.0 826.1,185.2 826.1,184.0 826.2,183.6 826.2,183.2 826.3,183.9 826.3,184.3 826.4,185.3 826.4,186.7 826.4,187.8 826.5,185.8 826.5,186.6 826.5,185.4 826.6,185.5 826.6,185.9 826.6,186.9 826.6,186.9 826.7,188.0 826.7,189.7 826.7,191.9 826.7,193.4 826.8,194.7 826.8,197.9 826.8,201.0 826.9,204.1 826.9,205.6 826.9,202.5 826.9,202.4 826.9,199.7 827.0,196.8 827.0,196.9 827.0,195.4 827.0,194.1 827.1,194.9 827.1,195.4 827.1,197.1 827.2,195.4 827.2,194.6 827.3,193.2 827.3,192.8 827.3,194.2 827.3,193.7 827.3,192.7 827.3,193.9 827.4,193.4 827.4,195.2 827.4,195.3 827.4,194.6 827.5,195.4 827.5,195.4 827.5,196.4 827.5,198.8 827.5,200.4 827.6,199.7 827.6,198.8 827.6,198.6 827.6,198.2 827.6,198.2 827.7,198.8 827.7,196.9 827.7,197.0 827.8,196.5 827.8,195.3 827.8,194.4 827.8,195.0 827.9,194.4 827.9,194.0 827.9,194.0 828.0,194.0 828.0,193.3 828.0,192.7 828.1,191.9 828.1,192.3 828.2,191.7 828.2,192.2 828.2,192.8 828.3,193.2 828.3,192.6 828.3,192.1 828.4,190.8 828.5,191.2 828.5,192.3 828.5,193.5 828.6,193.1 828.6,192.0 828.6,190.8 828.6,190.8 828.7,190.7 828.7,192.0 828.8,191.7 828.8,191.7 828.8,192.6 828.9,192.0 828.9,191.3 829.0,190.4 829.0,190.8 829.1,191.3 829.1,192.7 829.2,192.8 829.2,192.2 829.2,193.3 829.3,192.9 829.3,193.5 829.3,193.9 829.4,193.9 829.4,193.3 829.4,193.6 829.4,193.2 829.5,192.8 829.5,191.7 829.6,191.8 829.6,192.9 829.7,193.1 829.7,192.5 829.7,192.2 829.8,191.1 829.8,191.8 829.8,191.2 829.9,190.8 829.9,190.2 830.0,190.2 830.0,189.9 830.1,190.6 830.1,190.7 830.2,191.2 830.2,191.6 830.3,191.3 830.3,190.8 830.3,190.8 830.4,190.6 830.4,191.8 830.5,191.5 830.5,191.4 830.6,191.0 830.6,190.8 830.7,191.4 830.7,189.9 830.8,190.6 830.8,190.4 830.9,191.4 830.9,191.1 831.0,190.6 831.0,191.3 831.1,191.9 831.2,191.5 831.2,191.8 831.3,191.2 831.3,191.0 831.4,190.9 831.5,190.6 831.5,191.4 831.6,191.7 831.7,192.0 831.8,192.3 831.8,193.1 831.8,192.8 831.9,192.5 832.0,193.4 832.0,193.1 832.1,193.3 832.2,193.6 832.2,194.2 832.3,194.1 832.4,193.2 832.4,192.5 832.5,193.6 832.6,192.2 832.7,192.2 832.8,191.1 832.9,191.3 833.0,191.3 833.1,192.0 833.3,193.1 833.5,193.7 833.5,193.6 833.6,193.6 833.7,194.3 833.8,194.5 833.9,195.3 833.9,194.7 834.0,194.7 834.0,195.5 834.1,194.8 834.1,196.5 834.2,195.5 834.2,195.7 834.2,195.1 834.3,195.2 834.3,196.1 834.4,196.1 834.4,197.0 834.4,197.8 834.5,198.0 834.5,198.4 834.5,199.6 834.6,200.1 834.6,198.7 834.6,201.2 834.7,200.4 834.7,202.1 834.7,203.6 834.8,206.6 834.8,208.4 834.9,209.2 834.9,211.7 834.9,213.1 834.9,216.0 835.0,218.8 835.0,224.2 835.0,224.1 835.1,230.1 835.1,225.1 835.1,224.5 835.1,231.0 835.2,235.1 835.2,227.1 835.2,223.6 835.3,219.5 835.3,220.0 835.4,217.7 835.4,217.8 835.5,219.7 835.5,223.5 835.5,229.1 835.6,229.4 835.6,233.9 835.6,237.2 835.7,241.6 835.7,246.9 835.7,246.8 835.7,251.1 835.8,245.5 835.8,245.5 835.8,242.0 835.8,239.0 835.8,236.7 835.9,235.4 835.9,233.5 835.9,234.4 836.0,234.5 836.0,231.7 836.0,229.2 836.1,230.8 836.1,230.2 836.1,231.6 836.1,230.9 836.2,230.7 836.2,230.4 836.2,229.4 836.2,231.7 836.3,235.8 836.3,239.0 836.3,243.8 836.4,239.8 836.4,239.8 836.5,240.0 836.5,241.7 836.5,244.8 836.5,243.3 836.6,247.4 836.6,252.5 836.6,254.5 836.6,259.1 836.7,262.4 836.7,257.9 836.7,255.6 836.8,258.1 836.8,258.5 836.8,254.5 836.9,256.3 836.9,262.6 836.9,264.9 837.0,261.0 837.0,261.5 837.0,264.1 837.0,265.0 837.1,269.1 837.1,273.0 837.1,274.6 837.1,277.5 837.2,282.9 837.2,283.1 837.3,276.0 837.3,282.6 837.3,287.3 837.4,293.7 837.4,300.8 837.4,303.2 837.4,310.4 837.5,316.2 837.5,319.3 837.5,304.0 837.6,313.6 837.6,310.0 837.6,305.2 837.7,305.8 837.7,309.4 837.8,314.2 837.8,323.7 837.8,327.1 837.9,333.9 837.9,340.0 837.9,344.3 838.0,341.6 838.0,348.3 838.1,354.3 838.2,365.6 838.2,367.8 838.4,386.8 838.4,396.0 838.5,402.7 838.6,418.9 838.6,430.3 838.7,431.7 838.8,435.4 838.9,435.4 839.0,438.1 839.2,436.5 839.2,422.7 839.3,419.8 839.3,421.3 839.4,421.9 839.5,425.8 839.6,428.6 839.7,427.9 839.7,427.0 839.8,420.1 839.8,411.7 839.9,411.7 840.0,405.2 840.0,406.4 840.1,416.1 840.1,417.7 840.2,412.4 840.2,415.0 840.3,412.4 840.3,407.4 840.4,412.2 840.4,416.2 840.5,420.8 840.6,426.6 840.6,418.8 840.7,416.6 840.7,415.0 840.8,412.4 840.8,409.0 840.9,406.8 840.9,402.9 840.9,404.4 841.0,400.6 841.1,400.7 841.2,399.8 841.3,395.8 841.3,396.0 841.3,391.8 841.4,388.1 841.4,386.3 841.5,386.0 841.5,381.9 841.5,381.7 841.6,381.3 841.6,380.3 841.6,379.7 841.6,373.2 841.7,368.2 841.7,370.8 841.7,368.8 841.8,369.3 841.9,367.4 841.9,365.9 841.9,366.2 842.0,366.0 842.0,368.8 842.0,370.0 842.0,361.1 842.0,372.6 842.1,373.5 842.2,376.9 842.4,375.8 842.4,380.8 842.5,376.1 842.5,370.8 842.6,377.2 842.6,381.3 842.7,381.6 842.7,376.4 842.8,375.4 842.8,375.6 842.9,373.2 842.9,368.2 843.0,373.8 843.1,365.6 843.1,375.6 843.2,371.7 843.3,372.7 843.4,371.5 843.4,370.1 843.5,365.9 843.5,368.6 843.6,364.0 843.6,362.7 843.6,365.3 843.7,370.5 843.7,365.2 843.7,366.6 843.8,365.7 843.8,365.9 843.9,365.6 843.9,367.4 844.0,365.6 844.0,368.1 844.1,367.8 844.1,367.7 844.2,366.1 844.2,367.4 844.3,365.5 844.3,366.9 844.4,367.3 844.5,370.5 844.5,364.0 844.6,363.4 844.7,362.7 844.7,361.7 844.8,361.4 844.9,359.3 845.0,361.1 845.0,357.2 845.0,357.7 845.1,355.2 845.1,356.4 845.2,354.8 845.3,354.5 845.3,352.8 845.4,353.5 845.4,357.2 845.5,354.8 845.6,354.4 845.7,354.5 845.7,353.9 845.8,350.9 845.8,356.6 845.9,357.9 846.0,356.4 846.1,357.4 846.1,356.5 846.1,355.4 846.2,351.5 846.3,346.8 846.3,349.7 846.4,350.4 846.4,347.5 846.5,346.7 846.5,346.4 846.5,346.5 846.6,347.2 846.6,349.1 846.7,345.3 846.8,332.4 846.8,346.2 846.9,345.9 847.0,342.8 847.0,343.9 847.1,339.4 847.2,333.3 847.2,324.2 847.2,336.4 847.3,337.9 847.3,336.4 847.3,338.1 847.4,335.1 847.4,333.3 847.5,339.4 847.6,334.0 847.8,327.7 847.9,329.4 848.0,326.9 848.1,325.3 848.2,324.1 848.2,326.9 848.3,325.7 848.3,309.7 848.3,324.2 848.4,325.8 848.4,322.1 848.4,327.7 848.5,332.6 848.6,328.5 848.7,330.2 848.8,332.4 849.0,329.5 849.1,329.4 849.2,330.1 849.3,327.7 849.3,326.1 849.4,329.2 849.5,330.9 849.6,328.2 849.6,329.4 849.7,333.9 849.9,340.4 850.0,343.1 850.1,347.8 850.2,345.3 850.3,346.2 850.4,341.0 850.5,339.4 850.6,330.9 850.8,333.3 850.9,331.0 851.0,331.7 851.1,331.7 851.4,329.8 851.5,324.4 851.6,326.8 851.6,331.5 851.8,329.3 851.9,325.9 852.0,324.5 852.0,320.4 852.1,321.7 852.1,326.1 852.1,319.7 852.2,323.5 852.2,314.5 852.4,316.2 852.4,318.7 852.5,314.6 852.6,312.8 852.7,311.9 852.7,307.0 852.8,307.6 852.9,302.6 853.0,305.9 853.0,306.2 853.0,303.1 853.0,302.2 853.1,299.5 853.1,303.1 853.1,300.4 853.2,285.3 853.2,289.3 853.2,295.8 853.2,294.0 853.3,292.1 853.3,288.8 853.4,296.4 853.4,294.8 853.5,297.6 853.5,295.8 853.5,295.8 853.6,291.2 853.7,295.2 853.7,284.6 853.8,296.3 853.8,296.9 853.8,296.7 853.9,294.5 853.9,288.5 853.9,292.1 854.0,293.6 854.1,281.6 854.2,285.3 854.2,290.1 854.3,284.7 854.3,292.0 854.4,290.1 854.4,285.8 854.4,290.1 854.5,285.3 854.5,286.6 854.5,288.5 854.6,290.3 854.6,291.2 854.7,277.0 854.7,282.3 854.7,284.8 854.7,279.3 854.7,288.5 854.8,290.1 854.8,286.2 854.9,287.6 854.9,282.6 854.9,286.5 854.9,285.3 855.0,284.1 855.0,288.2 855.0,291.0 855.1,288.2 855.1,295.2 855.1,292.0 855.2,292.0 855.2,294.8 855.2,294.8 855.3,292.0 855.3,297.6 855.3,298.5 855.3,298.1 855.4,292.7 855.4,291.2 855.5,301.3 855.5,294.8 855.5,294.2 855.6,294.8 855.7,290.1 855.7,295.2 855.8,297.0 855.8,293.0 855.9,289.3 856.0,298.1 856.1,292.7 856.2,295.8 856.2,289.3 856.3,289.1 856.4,290.1 856.4,291.2 856.4,282.5 856.5,288.2 856.5,286.2 856.6,291.2 856.6,287.9 856.7,289.1 856.8,286.1 856.9,293.0 857.1,292.3 857.1,290.1 857.2,287.2 857.3,284.3 857.4,291.1 857.4,285.0 857.4,286.2 857.4,287.2 857.4,288.2 857.5,288.2 857.5,285.1 857.6,289.8 857.6,288.2 857.6,286.2 857.7,288.2 857.8,284.3 857.9,286.2 858.0,280.2 858.1,279.3 858.2,281.7 858.3,282.9 858.5,282.3 858.5,279.7 858.6,281.3 858.8,287.0 858.9,282.3 859.0,283.1 859.1,288.6 859.3,284.1 859.4,287.7 859.6,286.7 859.8,283.3 859.8,283.3 860.0,276.7 860.3,279.6 860.4,277.3 860.7,276.7 860.8,279.7 860.9,275.3 861.0,278.0 861.1,275.4 861.2,276.5 861.3,277.3 861.4,276.5 861.5,273.6 861.6,273.0 861.7,275.5 861.7,276.7 861.8,275.6 861.8,274.4 861.9,275.9 861.9,276.0 862.0,276.4 862.1,274.2 862.1,274.5 862.2,274.7 862.2,275.6 862.2,276.4 862.3,275.0 862.4,274.4 862.4,274.7 862.5,274.3 862.5,274.4 862.7,276.7 862.7,273.8 862.7,273.7 862.8,275.8 862.8,276.1 862.9,274.4 862.9,275.5 863.0,275.7 863.0,277.1 863.0,277.8 863.1,280.2 863.1,281.5 863.1,281.3 863.2,279.7 863.3,279.9 863.3,280.7 863.3,281.8 863.3,278.5 863.4,280.6 863.4,281.1 863.5,279.8 863.5,278.6 863.6,278.8 863.6,277.5 863.6,275.8 863.7,276.8 863.8,276.7 863.9,279.7 863.9,275.9 863.9,278.4 864.0,277.8 864.0,282.5 864.0,280.6 864.1,278.1 864.1,278.1 864.2,277.7 864.2,278.4 864.2,279.9 864.3,280.1 864.5,277.6 864.5,278.4 864.6,279.6 864.7,278.0 864.8,277.9 864.8,279.7 864.8,279.6 864.9,279.0 865.0,277.0 865.1,279.3 865.1,280.1 865.2,279.2 865.2,280.6 865.2,283.2 865.2,280.4 865.3,279.7 865.3,281.9 865.3,282.7 865.4,282.3 865.6,282.6 865.7,281.8 865.8,283.6 865.8,285.8 865.9,288.5 866.0,290.6 866.0,290.5 866.0,292.5 866.1,293.2 866.2,299.9 866.2,307.7 866.3,313.9 866.3,311.8 866.3,314.1 866.3,304.8 866.3,306.6 866.4,306.6 866.4,304.9 866.4,303.1 866.4,299.5 866.5,299.5 866.5,292.7 866.6,293.2 866.6,294.3 866.6,292.2 866.7,293.0 866.7,292.2 866.7,292.0 866.7,291.9 866.8,293.0 866.9,292.8 866.9,292.7 866.9,295.3 866.9,289.9 867.0,289.1 867.0,288.3 867.0,285.3 867.0,288.0 867.1,288.5 867.1,286.7 867.2,286.9 867.2,285.3 867.3,288.5 867.3,286.8 867.4,287.2 867.5,286.5 867.6,286.4 867.6,284.8 867.7,283.7 867.7,286.5 867.7,285.4 867.8,285.7 867.8,284.3 867.9,283.3 868.0,283.2 868.0,285.0 868.1,283.0 868.1,282.3 868.2,284.3 868.3,283.0 868.3,282.9 868.4,281.8 868.4,283.2 868.5,283.8 868.6,280.5 868.7,282.3 868.7,281.5 868.9,280.7 868.9,281.3 869.0,281.6 869.1,278.6 869.2,280.3 869.4,281.1 869.5,280.0 869.5,281.2 869.7,278.0 869.8,279.5 869.8,279.3 870.0,280.4 870.1,280.1 870.2,280.7 870.3,282.3 870.4,281.8 870.5,281.6 870.6,279.2 870.7,277.1 870.9,280.6 871.0,281.1 871.1,281.5 871.1,280.5 871.2,282.8 871.3,284.1 871.5,283.6 871.7,283.2 871.8,282.9 871.9,284.1 872.1,283.7 872.2,283.5 872.3,281.6 872.4,283.1 872.6,279.7 872.8,280.3 873.0,281.9 873.1,281.4 873.4,280.3 873.6,281.1 873.7,282.1 873.8,282.1 874.0,280.3 874.1,278.6 874.2,279.4 874.3,279.3 874.5,276.5 874.6,275.1 874.7,276.9 874.8,276.6 874.9,275.2 875.0,275.0 875.0,275.4 875.2,274.5 875.2,274.8 875.3,275.4 875.3,274.5 875.3,271.8 875.4,271.9 875.4,272.8 875.5,273.7 875.6,273.4 875.7,273.0 875.7,272.8 875.8,272.4 875.9,273.7 875.9,273.6 876.0,273.2 876.1,274.0 876.2,274.9 876.3,276.3 876.4,274.6 876.4,275.8 876.5,274.7 876.5,275.7 876.6,277.7 876.7,278.2 876.8,278.2 876.9,277.7 877.0,277.6 877.0,278.4 877.1,278.1 877.2,276.8 877.3,279.3 877.4,275.9 877.4,275.1 877.5,277.4 877.6,278.8 877.6,277.6 877.7,279.4 877.7,280.9 877.8,280.4 878.0,286.1 878.1,280.8 878.3,280.8 878.4,282.0 878.5,282.4 878.7,282.8 878.8,282.4 878.9,284.0 879.0,283.2 879.2,284.1 879.4,282.8 879.5,282.0 879.7,281.0 879.9,281.2 880.1,280.8 880.3,279.4 880.4,282.2 880.6,282.3 880.8,279.7 880.9,281.4 881.0,281.7 881.1,281.2 881.1,279.4 881.2,278.5 881.2,274.2 881.3,274.3 881.4,275.9 881.4,275.8 881.5,276.9 881.6,272.4 881.7,272.1 881.8,276.7 881.8,278.4 881.9,276.8 882.0,276.7 882.0,274.0 882.1,272.3 882.2,272.5 882.3,273.6 882.4,272.8 882.6,274.2 882.7,272.5 882.8,274.3 883.0,272.1 883.3,271.2 883.5,272.6 883.7,273.1 884.0,271.5 884.1,275.3 884.2,273.8 884.2,273.2 884.3,274.9 884.4,274.3 884.4,272.3 884.5,272.9 884.6,273.4 884.6,271.2 884.7,273.5 884.8,269.2 884.9,271.9 884.9,272.5 885.0,272.5 885.1,272.7 885.3,273.3 885.6,270.2 885.9,270.4 886.1,267.9 886.2,268.9 886.3,270.1 886.4,267.0 886.6,267.1 886.7,268.6 886.9,266.5 887.0,267.1 887.3,265.3 887.6,265.5 887.7,266.1 887.8,265.5 888.2,264.6 888.4,265.0 888.5,266.3 888.6,265.3 888.8,264.6 888.9,265.2 889.1,266.4 889.2,266.9 889.3,267.0 889.4,269.1 889.5,268.7 889.6,267.3 889.7,267.0 889.8,267.0 890.0,266.3 890.1,266.0 890.2,266.5 890.6,266.0 890.8,264.3 891.1,260.7 891.2,260.6 891.4,259.2 891.6,261.0 891.8,260.7 892.0,257.9 892.3,257.6 892.4,256.8 892.6,257.2 892.9,260.6 893.1,262.4 893.3,261.8 893.4,260.3 893.7,261.2 893.9,256.9 894.3,257.0 894.6,257.5 894.8,259.0 895.1,257.0 895.3,258.5 895.5,257.2 895.7,257.2 895.9,256.9 896.1,258.5 896.3,256.3 896.5,256.2 896.8,254.3 896.9,251.9 897.1,251.3 897.2,251.7 897.4,252.7 897.6,251.0 897.8,252.7 898.0,252.3 898.1,251.5 898.3,252.0 898.5,254.0 898.8,253.6 899.0,253.2 899.1,254.1 899.4,254.6 899.5,254.0 899.8,255.0 899.9,254.8 900.1,252.9 900.2,254.6 900.4,251.6 900.6,250.9 900.8,249.7 901.0,249.5 901.3,250.6 901.4,251.1 901.5,251.6 901.7,250.6 901.9,252.9 902.1,253.2 902.3,252.4 902.5,251.4 902.7,251.5 902.8,251.3 902.9,252.8 903.1,253.6 903.3,256.6 903.4,254.8 903.7,253.0 903.9,253.4 904.1,253.0 904.3,252.2 904.6,252.4 904.8,252.9 905.0,254.1 905.2,254.6 905.4,256.7 905.5,256.0 905.8,256.1 905.9,256.1 906.2,255.1 906.6,253.3 906.8,253.0 907.2,249.8 907.4,249.9 907.6,247.1 907.9,247.5 908.1,247.9 908.6,248.6 908.8,246.1 909.1,247.6 909.2,247.8 909.3,247.0 909.4,247.4 909.6,247.1 909.8,246.7 910.0,245.2 910.2,245.1 910.3,244.8 910.5,243.0 910.8,244.5 911.0,246.2 911.1,247.0 911.4,247.8 911.5,248.2 911.6,244.5 911.6,242.8 911.7,243.7 911.7,238.5 911.7,241.7 911.9,244.5 912.0,239.3 912.0,236.5 912.1,240.6 912.1,242.0 912.2,242.9 912.5,243.6 912.8,244.7 913.2,245.6 913.3,241.8 913.4,243.0 913.6,243.4 913.7,243.3 913.8,243.2 914.0,239.4 914.1,242.4 914.3,241.8 914.4,242.2 914.6,241.6 914.7,240.7 914.7,242.4 914.8,242.1 915.0,242.7 915.2,243.0 915.2,243.4 915.3,243.3 915.5,243.2 915.6,243.5 915.9,243.1 916.2,243.4 916.3,243.4 916.4,243.3 916.5,243.8 916.7,243.0 916.8,242.8 917.2,243.6 917.5,242.0 917.7,242.0 917.9,241.6 918.1,240.7 918.4,241.4 918.7,238.8 918.9,237.6 919.3,237.7 919.3,239.5 919.5,236.0 919.6,235.3 919.9,235.1 920.1,234.9 920.3,233.5 920.6,233.9 920.9,234.2 921.2,233.1 921.6,236.1 921.7,237.5 922.0,238.6 922.2,237.4 922.6,236.0 922.8,236.9 923.2,238.4 923.7,237.6 923.7,236.0 924.0,235.0 924.2,237.2 924.5,236.7 924.8,237.0 925.2,236.6 925.6,236.9 925.9,238.6 926.3,239.1 926.4,239.8 926.6,241.5 926.9,241.2 927.2,241.6 927.5,242.2 927.7,244.0 927.9,244.2 928.1,244.0 928.1,245.6 928.4,244.3 928.8,244.3 929.1,244.9 929.5,246.7 929.9,245.5 930.1,245.2 930.5,245.5 930.6,245.9 931.0,246.2 931.2,246.4 931.4,248.5 931.6,248.7 931.9,250.4 932.1,250.6 932.4,251.9 932.7,250.4 933.1,249.5 933.5,250.3 934.0,250.0 934.0,249.4" fill="none" stroke="#d97706" stroke-width="1.2" stroke-linejoin="round" opacity="0.6"/><text x="942" y="472.0" text-anchor="start" font-size="11" fill="#d97706">0.17</text><text x="942" y="396.0" text-anchor="start" font-size="11" fill="#d97706">0.41</text><text x="942" y="320.0" text-anchor="start" font-size="11" fill="#d97706">0.66</text><text x="942" y="244.0" text-anchor="start" font-size="11" fill="#d97706">0.90</text><text x="942" y="168.0" text-anchor="start" font-size="11" fill="#d97706">1.15</text><text x="942" y="92.0" text-anchor="start" font-size="11" fill="#d97706">1.39</text><text x="942" y="80.0" text-anchor="start" font-size="11" font-weight="600" fill="#d97706">price</text>
  <polygon points="543.1,468.0 543.1,439.6 543.1,435.4 612.3,437.8 768.7,430.6 824.9,425.1 825.1,428.3 826.8,433.0 835.0,418.8 835.1,422.5 835.3,427.9 835.6,436.1 836.6,411.7 837.0,415.8 837.3,403.4 837.4,393.9 837.8,382.9 837.9,370.4 838.0,377.6 838.0,388.5 838.1,356.1 838.2,340.0 838.3,348.8 838.4,322.5 838.4,331.3 838.4,344.5 838.4,364.4 838.5,305.3 838.5,314.1 838.6,287.8 838.6,296.6 838.6,270.4 838.6,278.5 838.6,290.7 838.7,254.3 838.7,262.5 838.7,238.2 838.7,246.4 838.7,258.6 838.7,276.9 838.7,304.3 838.7,312.4 838.7,324.6 838.7,342.9 838.7,370.4 839.1,356.0 839.1,364.3 839.1,376.7 839.2,339.6 839.4,322.1 839.5,330.9 839.8,344.1 839.8,304.7 839.9,313.5 839.9,326.7 839.9,287.4 839.9,296.2 840.1,269.9 840.3,278.0 840.4,290.2 840.5,253.9 840.6,262.0 840.7,237.8 840.7,220.3 840.9,202.8 841.0,210.9 841.0,223.1 841.2,241.4 841.4,186.9 841.6,169.4 841.6,177.5 841.6,189.7 841.6,208.0 841.7,153.5 841.7,162.3 841.7,136.0 841.7,144.1 841.7,156.3 841.7,174.6 841.8,202.1 841.8,184.6 842.0,168.4 842.1,177.2 842.3,190.4 842.3,210.2 842.4,151.2 842.4,133.7 842.5,116.1 842.5,125.0 842.5,138.2 842.5,158.0 842.5,187.7 842.5,196.5 842.7,170.3 842.7,152.7 843.3,135.2 843.3,143.4 843.3,155.6 843.3,173.9 843.3,201.3 843.5,183.8 843.5,191.9 843.5,204.1 843.9,222.4 843.9,249.9 845.0,232.4 845.5,214.9 846.5,223.0 846.6,235.2 846.8,253.5 847.2,199.0 848.3,207.1 848.4,219.3 849.9,182.9 850.5,191.1 851.5,166.8 851.5,175.6 851.9,188.9 852.7,149.5 853.1,132.0 853.2,140.8 853.3,154.0 853.4,173.8 853.7,203.5 853.8,212.3 853.9,225.5 854.0,245.4 854.0,275.1 854.6,283.9 854.7,297.1 854.7,257.7 854.7,266.5 855.1,240.3 856.4,222.8 856.4,231.6 857.4,244.8 857.6,264.6 858.0,294.3 865.9,303.1 866.2,276.9 866.4,259.4 867.0,267.5 886.1,243.3 892.2,251.4 912.0,227.2 912.0,468.0" fill="#16a34a" fill-opacity="0.08"/>
  <polyline points="543.1,439.6 543.1,435.4 612.3,437.8 768.7,430.6 824.9,425.1 825.1,428.3 826.8,433.0 835.0,418.8 835.1,422.5 835.3,427.9 835.6,436.1 836.6,411.7 837.0,415.8 837.3,403.4 837.4,393.9 837.8,382.9 837.9,370.4 838.0,377.6 838.0,388.5 838.1,356.1 838.2,340.0 838.3,348.8 838.4,322.5 838.4,331.3 838.4,344.5 838.4,364.4 838.5,305.3 838.5,314.1 838.6,287.8 838.6,296.6 838.6,270.4 838.6,278.5 838.6,290.7 838.7,254.3 838.7,262.5 838.7,238.2 838.7,246.4 838.7,258.6 838.7,276.9 838.7,304.3 838.7,312.4 838.7,324.6 838.7,342.9 838.7,370.4 839.1,356.0 839.1,364.3 839.1,376.7 839.2,339.6 839.4,322.1 839.5,330.9 839.8,344.1 839.8,304.7 839.9,313.5 839.9,326.7 839.9,287.4 839.9,296.2 840.1,269.9 840.3,278.0 840.4,290.2 840.5,253.9 840.6,262.0 840.7,237.8 840.7,220.3 840.9,202.8 841.0,210.9 841.0,223.1 841.2,241.4 841.4,186.9 841.6,169.4 841.6,177.5 841.6,189.7 841.6,208.0 841.7,153.5 841.7,162.3 841.7,136.0 841.7,144.1 841.7,156.3 841.7,174.6 841.8,202.1 841.8,184.6 842.0,168.4 842.1,177.2 842.3,190.4 842.3,210.2 842.4,151.2 842.4,133.7 842.5,116.1 842.5,125.0 842.5,138.2 842.5,158.0 842.5,187.7 842.5,196.5 842.7,170.3 842.7,152.7 843.3,135.2 843.3,143.4 843.3,155.6 843.3,173.9 843.3,201.3 843.5,183.8 843.5,191.9 843.5,204.1 843.9,222.4 843.9,249.9 845.0,232.4 845.5,214.9 846.5,223.0 846.6,235.2 846.8,253.5 847.2,199.0 848.3,207.1 848.4,219.3 849.9,182.9 850.5,191.1 851.5,166.8 851.5,175.6 851.9,188.9 852.7,149.5 853.1,132.0 853.2,140.8 853.3,154.0 853.4,173.8 853.7,203.5 853.8,212.3 853.9,225.5 854.0,245.4 854.0,275.1 854.6,283.9 854.7,297.1 854.7,257.7 854.7,266.5 855.1,240.3 856.4,222.8 856.4,231.6 857.4,244.8 857.6,264.6 858.0,294.3 865.9,303.1 866.2,276.9 866.4,259.4 867.0,267.5 886.1,243.3 892.2,251.4 912.0,227.2" fill="none" stroke="#16a34a" stroke-width="2" stroke-linejoin="round"/>
  <line x1="88" y1="102" x2="110" y2="102" stroke="#16a34a" stroke-width="2.5"/><text x="116" y="106" font-size="11.5" fill="#374151">equity</text><line x1="88" y1="118" x2="110" y2="118" stroke="#d97706" stroke-width="2.5" opacity="0.8"/><text x="116" y="122" font-size="11.5" fill="#374151">price</text>
  <text x="78" y="502" text-anchor="start" font-size="12" fill="#6b7280">2025-10-10</text><text x="934" y="502" text-anchor="end" font-size="12" fill="#6b7280">2025-10-10</text>
</svg>
