<svg xmlns="http://www.w3.org/2000/svg" width="1100" height="560" font-family="ui-sans-serif, system-ui, sans-serif" viewBox="0 0 1100 560"><rect width="1100" height="560" fill="#fff"/><text x="80" y="28" fill="#111827" font-size="18" font-weight="700">Zone Recovery — WLDUSDC fee-tier comparison (best setting)</text><text x="80" y="48" fill="#6b7280" font-size="12.5">lev 5 · ratio 2 · gap 20% · maxSteps 4 · maxDD 60% · random · equity per fee tier vip 0..9</text><text x="80" y="68" fill="#1d4ed8" font-size="12.5" font-weight="600">USDC margin · BNB −10%</text><line x1="80" x2="932" y1="508" y2="508" stroke="#e5e7eb" stroke-width="1"/><text x="70" y="512" fill="#6b7280" font-size="12" text-anchor="end">0.00</text><line x1="80" x2="932" y1="424" y2="424" stroke="#e5e7eb" stroke-width="1"/><text x="70" y="428" fill="#6b7280" font-size="12" text-anchor="end">26744</text><line x1="80" x2="932" y1="340" y2="340" stroke="#e5e7eb" stroke-width="1"/><text x="70" y="344" fill="#6b7280" font-size="12" text-anchor="end">53487</text><line x1="80" x2="932" y1="256" y2="256" stroke="#e5e7eb" stroke-width="1"/><text x="70" y="260" fill="#6b7280" font-size="12" text-anchor="end">80231</text><line x1="80" x2="932" y1="172" y2="172" stroke="#e5e7eb" stroke-width="1"/><text x="70" y="176" fill="#6b7280" font-size="12" text-anchor="end">106975</text><line x1="80" x2="932" y1="88" y2="88" stroke="#e5e7eb" stroke-width="1"/><text x="70" y="92" fill="#6b7280" font-size="12" text-anchor="end">133718</text><line x1="80" x2="932" y1="476.6" y2="476.6" stroke="#9ca3af" stroke-dasharray="6 4" stroke-width="1.5"/><polyline fill="none" stroke="#2563eb" stroke-linejoin="round" stroke-width="1.8" points="80 476.6 80 472 239.7 474.7 600.9 466.8 730.8 460.8 731.1 464.3 735.1 469.6 754 454.1 754.4 458.1 754.7 464.2 755.5 473.3 757.8 446.7 758.6 451.3 759.5 437.8 759.7 427.5 760.6 415.7 760.8 402.2 761 410.2 761 422.1 761.2 387.3 761.5 369.6 761.7 379.5 761.9 350.6 761.9 360.5 761.9 375.3 761.9 397.5 762.1 332.6 762.2 342.4 762.4 313.6 762.4 323.5 762.5 294.6 762.5 303.7 762.5 317.4 762.6 277.5 762.6 286.6 762.6 260 762.6 269.1 762.6 282.8 762.6 303.3 762.6 334.1 762.7 343.2 762.7 356.8 762.7 377.3 762.7 408.1 763.5 393.5 763.5 402.1 763.7 415 763.8 377.3 764.2 358.2 764.5 368 765.2 382.8 765.3 339.6 765.3 349.5 765.4 364.3 765.5 321.1 765.5 330.9 765.8 302.1 766.3 311.2 766.6 324.9 766.9 285 767.1 294.1 767.1 267.5 767.3 248.3 767.7 229.1 767.9 238.2 768 251.9 768.5 272.4 768.9 212.5 769.2 193.3 769.4 202.5 769.4 216.1 769.4 236.6 769.5 176.8 769.5 186.7 769.6 157.8 769.6 166.9 769.7 180.6 769.7 201.1 769.7 231.9 769.8 212.7 770.4 194.9 770.6 204.8 771 219.6 771 241.8 771.2 176.9 771.2 157.7 771.4 138.5 771.4 148.3 771.4 163.1 771.5 185.3 771.5 218.6 771.5 228.5 771.8 199.7 771.9 180.4 773.2 161.2 773.3 170.4 773.3 184 773.3 204.5 773.3 235.3 773.7 216.1 773.8 225.2 773.8 238.9 774.7 259.4 774.7 290.1 777.1 270.9 778.4 251.7 780.7 260.8 780.8 274.5 781.3 295 782.2 235.2 784.8 244.3 785 258 788.4 218 790 227.1 792.2 200.6 792.2 210.4 793.2 225.2 795 182 796 162.8 796.1 172.7 796.4 187.5 796.5 209.7 797.3 243 797.6 252.8 797.7 267.6 797.9 289.8 797.9 323.1 799.4 333 799.5 347.8 799.6 304.6 799.6 314.4 800.6 285.6 803.6 266.4 803.6 276.2 805.9 291 806.2 313.2 807.2 346.5 825.5 356.4 826.2 327.6 826.7 308.4 828.1 317.5 872.2 290.9 886.2 300 932 273.4" opacity=".9"/><polyline fill="none" stroke="#dc2626" stroke-linejoin="round" stroke-width="1.8" points="80 476.6 80 472 239.7 474.7 600.9 466.8 730.8 460.8 731.1 464.3 735.1 469.6 754 454.1 754.4 458.1 754.7 464.2 755.5 473.3 757.8 446.7 758.6 451.3 759.5 437.8 759.7 427.5 760.6 415.7 760.8 402.2 761 410.2 761 422.1 761.2 387.3 761.5 369.6 761.7 379.5 761.9 350.6 761.9 360.5 761.9 375.3 761.9 397.5 762.1 332.6 762.2 342.4 762.4 313.6 762.4 323.5 762.5 294.6 762.5 303.7 762.5 317.4 762.6 277.5 762.6 286.6 762.6 260 762.6 269.1 762.6 282.8 762.6 303.3 762.6 334.1 762.7 343.2 762.7 356.8 762.7 377.3 762.7 408.1 763.5 393.5 763.5 402.1 763.7 415 763.8 377.3 764.2 358.2 764.5 368 765.2 382.8 765.3 339.6 765.3 349.5 765.4 364.3 765.5 321.1 765.5 330.9 765.8 302.1 766.3 311.2 766.6 324.9 766.9 285 767.1 294.1 767.1 267.5 767.3 248.3 767.7 229.1 767.9 238.2 768 251.9 768.5 272.4 768.9 212.5 769.2 193.3 769.4 202.5 769.4 216.1 769.4 236.6 769.5 176.8 769.5 186.7 769.6 157.8 769.6 166.9 769.7 180.6 769.7 201.1 769.7 231.9 769.8 212.7 770.4 194.9 770.6 204.8 771 219.6 771 241.8 771.2 176.9 771.2 157.7 771.4 138.5 771.4 148.3 771.4 163.1 771.5 185.3 771.5 218.6 771.5 228.5 771.8 199.7 771.9 180.4 773.2 161.2 773.3 170.4 773.3 184 773.3 204.5 773.3 235.3 773.7 216.1 773.8 225.2 773.8 238.9 774.7 259.4 774.7 290.1 777.1 270.9 778.4 251.7 780.7 260.8 780.8 274.5 781.3 295 782.2 235.2 784.8 244.3 785 258 788.4 218 790 227.1 792.2 200.6 792.2 210.4 793.2 225.2 795 182 796 162.8 796.1 172.7 796.4 187.5 796.5 209.7 797.3 243 797.6 252.8 797.7 267.6 797.9 289.8 797.9 323.1 799.4 333 799.5 347.8 799.6 304.6 799.6 314.4 800.6 285.6 803.6 266.4 803.6 276.2 805.9 291 806.2 313.2 807.2 346.5 825.5 356.4 826.2 327.6 826.7 308.4 828.1 317.5 872.2 290.9 886.2 300 932 273.4" opacity=".9"/><polyline fill="none" stroke="#16a34a" stroke-linejoin="round" stroke-width="1.8" points="80 476.6 80 472 239.7 474.7 600.9 466.8 730.8 460.7 731.1 464.3 735.1 469.6 754 454 754.4 458 754.7 464.1 755.5 473.2 757.8 446.4 758.6 451 759.5 437.5 759.7 427.1 760.6 415.3 760.8 401.7 761 409.7 761 421.6 761.2 386.5 761.5 368.7 761.7 378.6 761.9 349.7 761.9 359.5 761.9 374.3 761.9 396.4 762.1 331.4 762.2 341.2 762.4 312.3 762.4 322.2 762.5 293.3 762.5 302.3 762.5 316 762.6 276 762.6 285.1 762.6 258.4 762.6 267.5 762.6 281.1 762.6 301.5 762.6 332.2 762.7 341.3 762.7 354.9 762.7 375.3 762.7 406 763.5 391 763.5 399.8 763.7 412.9 763.8 374.3 764.2 355.1 764.5 364.9 765.2 379.7 765.3 336.4 765.3 346.2 765.4 360.9 765.5 317.6 765.5 327.5 765.8 298.6 766.3 307.7 766.6 321.3 766.9 281.3 767.1 290.4 767.1 263.7 767.3 244.5 767.7 225.2 767.9 234.3 768 247.9 768.5 268.4 768.9 208.4 769.2 189.2 769.4 198.3 769.4 211.9 769.4 232.3 769.5 172.4 769.5 182.2 769.6 153.3 769.6 162.4 769.7 176 769.7 196.5 769.7 227.1 769.8 207.9 770.4 190.1 770.6 199.9 771 214.7 771 236.8 771.2 171.8 771.2 152.5 771.4 133.3 771.4 143.1 771.4 157.9 771.5 180 771.5 213.2 771.5 223 771.8 194.1 771.9 174.9 773.2 155.6 773.3 164.7 773.3 178.3 773.3 198.8 773.3 229.4 773.7 210.2 773.8 219.2 773.8 232.9 774.7 253.3 774.7 283.9 777.1 264.7 778.4 245.5 780.7 254.5 780.8 268.2 781.3 288.6 782.2 228.7 784.8 237.7 785 251.4 788.4 211.4 790 220.4 792.2 193.8 792.2 203.6 793.2 218.4 795 175.1 796 155.8 796.1 165.7 796.4 180.4 796.5 202.5 797.3 235.7 797.6 245.6 797.7 260.3 797.9 282.4 797.9 315.6 799.4 325.4 799.5 340.2 799.6 296.9 799.6 306.7 800.6 277.8 803.6 258.6 803.6 268.4 805.9 283.2 806.2 305.3 807.2 338.5 825.5 348.3 826.2 319.4 826.7 300.2 828.1 309.2 872.2 282.6 886.2 291.7 932 265" opacity=".9"/><polyline fill="none" stroke="#d97706" stroke-linejoin="round" stroke-width="1.8" points="80 476.6 80 472 239.7 474.7 600.9 466.7 730.8 460.7 731.1 464.2 735.1 469.5 754 453.9 754.4 457.9 754.7 464 755.5 473.1 757.8 446.2 758.6 450.8 759.5 437.2 759.7 426.8 760.6 414.9 760.8 401.2 761 409.2 761 421.2 761.2 385.9 761.5 368.1 761.7 377.9 761.9 349 761.9 358.8 761.9 373.5 761.9 395.6 762.1 330.5 762.2 340.3 762.4 311.3 762.4 321.1 762.5 292.2 762.5 301.3 762.5 314.9 762.6 274.8 762.6 283.9 762.6 257.2 762.6 266.2 762.6 279.8 762.6 300.2 762.6 330.7 762.7 339.8 762.7 353.4 762.7 373.7 762.7 404.3 763.5 389.1 763.5 398 763.7 411.3 763.8 372 764.2 352.7 764.5 362.5 765.2 377.2 765.3 333.9 765.3 343.7 765.4 358.4 765.5 315 765.5 324.8 765.8 295.9 766.3 304.9 766.6 318.5 766.9 278.5 767.1 287.5 767.1 260.9 767.3 241.6 767.7 222.3 767.9 231.4 768 244.9 768.5 265.3 768.9 205.3 769.2 186 769.4 195.1 769.4 208.7 769.4 229 769.5 169 769.5 178.8 769.6 149.9 769.6 158.9 769.7 172.5 769.7 192.9 769.7 223.4 769.8 204.2 770.4 186.4 770.6 196.2 771 210.9 771 232.9 771.2 167.8 771.2 148.6 771.4 129.3 771.4 139.1 771.4 153.8 771.5 175.9 771.5 209 771.5 218.8 771.8 189.8 771.9 170.6 773.2 151.3 773.3 160.3 773.3 173.9 773.3 194.3 773.3 224.8 773.7 205.6 773.8 214.6 773.8 228.2 774.7 248.6 774.7 279.1 777.1 259.9 778.4 240.6 780.7 249.6 780.8 263.2 781.3 283.6 782.2 223.6 784.8 232.6 785 246.2 788.4 206.2 790 215.2 792.2 188.5 792.2 198.3 793.2 213 795 169.7 796 150.4 796.1 160.2 796.4 174.9 796.5 197 797.3 230.1 797.6 239.9 797.7 254.6 797.9 276.6 797.9 309.7 799.4 319.5 799.5 334.2 799.6 290.9 799.6 300.7 800.6 271.7 803.6 252.5 803.6 262.3 805.9 277 806.2 299 807.2 332.1 825.5 341.9 826.2 313 826.7 293.7 828.1 302.8 872.2 276.1 886.2 285.1 932 258.5" opacity=".9"/><polyline fill="none" stroke="#7c3aed" stroke-linejoin="round" stroke-width="1.8" points="80 476.6 80 472 239.7 474.6 600.9 466.7 730.8 460.6 731.1 464.1 735.1 469.4 754 453.7 754.4 457.8 754.7 463.8 755.5 472.9 757.8 446 758.6 450.6 759.5 436.9 759.7 426.4 760.6 414.4 760.8 400.6 761 408.6 761 420.6 761.2 385 761.5 367.2 761.7 377 761.9 348 761.9 357.8 761.9 372.4 761.9 394.4 762.1 329.2 762.2 338.9 762.4 309.9 762.4 319.7 762.5 290.7 762.5 299.7 762.5 313.3 762.6 273.1 762.6 282.2 762.6 255.4 762.6 264.4 762.6 278 762.6 298.2 762.6 328.7 762.7 337.7 762.7 351.2 762.7 371.5 762.7 401.9 763.5 386.3 763.5 395.4 763.7 409 763.8 368.7 764.2 349.4 764.5 359.1 765.2 373.8 765.3 330.3 765.3 340.1 765.4 354.7 765.5 311.3 765.5 321 765.8 292.1 766.3 301.1 766.6 314.6 766.9 274.5 767.1 283.5 767.1 256.8 767.3 237.4 767.7 218.1 767.9 227.1 768 240.7 768.5 261 768.9 200.8 769.2 181.5 769.4 190.5 769.4 204 769.4 224.3 769.5 164.1 769.5 173.9 769.6 144.9 769.6 153.9 769.7 167.5 769.7 187.8 769.7 218.2 769.8 198.9 770.4 181 770.6 190.8 771 205.5 771 227.4 771.2 162.2 771.2 142.9 771.4 123.6 771.4 133.3 771.4 148 771.5 170 771.5 202.9 771.5 212.7 771.8 183.7 771.9 164.4 773.2 145.1 773.3 154.1 773.3 167.6 773.3 187.9 773.3 218.3 773.7 199 773.8 208 773.8 221.6 774.7 241.8 774.7 272.3 777.1 253 778.4 233.6 780.7 242.7 780.8 256.2 781.3 276.5 782.2 216.3 784.8 225.3 785 238.9 788.4 198.7 790 207.7 792.2 181 792.2 190.8 793.2 205.4 795 162 796 142.7 796.1 152.4 796.4 167.1 796.5 189 797.3 222 797.6 231.8 797.7 246.4 797.9 268.4 797.9 301.3 799.4 311.1 799.5 325.7 799.6 282.3 799.6 292.1 800.6 263.1 803.6 243.8 803.6 253.5 805.9 268.2 806.2 290.1 807.2 323.1 825.5 332.9 826.2 303.9 826.7 284.6 828.1 293.6 872.2 266.8 886.2 275.9 932 249.1" opacity=".9"/><polyline fill="none" stroke="#0891b2" stroke-linejoin="round" stroke-width="1.8" points="80 476.6 80 472 239.7 474.6 600.9 466.7 730.8 460.6 731.1 464.1 735.1 469.4 754 453.7 754.4 457.8 754.7 463.8 755.5 472.9 757.8 445.9 758.6 450.5 759.5 436.8 759.7 426.3 760.6 414.3 760.8 400.5 761 408.5 761 420.5 761.2 384.9 761.5 367.1 761.7 376.8 761.9 347.8 761.9 357.6 761.9 372.2 761.9 394.2 762.1 328.9 762.2 338.7 762.4 309.7 762.4 319.5 762.5 290.5 762.5 299.5 762.5 313 762.6 272.8 762.6 281.9 762.6 255.1 762.6 264.1 762.6 277.6 762.6 297.9 762.6 328.3 762.7 337.3 762.7 350.8 762.7 371.1 762.7 401.5 763.5 385.8 763.5 394.9 763.7 408.5 763.8 368.1 764.2 348.8 764.5 358.5 765.2 373.2 765.3 329.7 765.3 339.5 765.4 354.1 765.5 310.6 765.5 320.4 765.8 291.4 766.3 300.4 766.6 313.9 766.9 273.8 767.1 282.8 767.1 256 767.3 236.7 767.7 217.4 767.9 226.4 768 239.9 768.5 260.2 768.9 200 769.2 180.7 769.4 189.7 769.4 203.2 769.4 223.5 769.5 163.3 769.5 173.1 769.6 144.1 769.6 153.1 769.7 166.6 769.7 186.9 769.7 217.3 769.8 197.9 770.4 180.1 770.6 189.9 771 204.5 771 226.5 771.2 161.2 771.2 141.9 771.4 122.6 771.4 132.3 771.4 147 771.5 168.9 771.5 201.9 771.5 211.6 771.8 182.6 771.9 163.3 773.2 144 773.3 153 773.3 166.5 773.3 186.8 773.3 217.2 773.7 197.9 773.8 206.9 773.8 220.4 774.7 240.7 774.7 271.1 777.1 251.7 778.4 232.4 780.7 241.4 780.8 255 781.3 275.2 782.2 215 784.8 224 785 237.6 788.4 197.4 790 206.4 792.2 179.7 792.2 189.4 793.2 204.1 795 160.6 796 141.3 796.1 151 796.4 165.7 796.5 187.6 797.3 220.6 797.6 230.3 797.7 245 797.9 266.9 797.9 299.9 799.4 309.6 799.5 324.2 799.6 280.8 799.6 290.5 800.6 261.5 803.6 242.2 803.6 252 805.9 266.6 806.2 288.6 807.2 321.5 825.5 331.3 826.2 302.3 826.7 282.9 828.1 292 872.2 265.2 886.2 274.2 932 247.5" opacity=".9"/><polyline fill="none" stroke="#db2777" stroke-linejoin="round" stroke-width="1.8" points="80 476.6 80 472 239.7 474.6 600.9 466.7 730.8 460.6 731.1 464.1 735.1 469.4 754 453.7 754.4 457.7 754.7 463.8 755.5 472.9 757.8 445.9 758.6 450.5 759.5 436.8 759.7 426.3 760.6 414.2 760.8 400.4 761 408.4 761 420.4 761.2 384.8 761.5 366.9 761.7 376.7 761.9 347.7 761.9 357.4 761.9 372.1 761.9 394 762.1 328.8 762.2 338.5 762.4 309.5 762.4 319.3 762.5 290.3 762.5 299.3 762.5 312.8 762.6 272.6 762.6 281.7 762.6 254.9 762.6 263.9 762.6 277.4 762.6 297.7 762.6 328.1 762.7 337.1 762.7 350.6 762.7 370.8 762.7 401.2 763.5 385.5 763.5 394.6 763.7 408.3 763.8 367.7 764.2 348.4 764.5 358.1 765.2 372.7 765.3 329.3 765.3 339 765.4 353.6 765.5 310.2 765.5 319.9 765.8 290.9 766.3 299.9 766.6 313.4 766.9 273.3 767.1 282.3 767.1 255.5 767.3 236.2 767.7 216.9 767.9 225.9 768 239.4 768.5 259.7 768.9 199.5 769.2 180.1 769.4 189.1 769.4 202.6 769.4 222.9 769.5 162.7 769.5 172.5 769.6 143.5 769.6 152.5 769.7 166 769.7 186.2 769.7 216.6 769.8 197.3 770.4 179.5 770.6 189.2 771 203.8 771 225.8 771.2 160.5 771.2 141.2 771.4 121.9 771.4 131.6 771.4 146.3 771.5 168.2 771.5 201.1 771.5 210.9 771.8 181.9 771.9 162.6 773.2 143.2 773.3 152.2 773.3 165.7 773.3 186 773.3 216.4 773.7 197.1 773.8 206.1 773.8 219.6 774.7 239.8 774.7 270.2 777.1 250.9 778.4 231.6 780.7 240.6 780.8 254.1 781.3 274.4 782.2 214.2 784.8 223.2 785 236.7 788.4 196.5 790 205.5 792.2 178.8 792.2 188.5 793.2 203.2 795 159.7 796 140.3 796.1 150.1 796.4 164.7 796.5 186.7 797.3 219.6 797.6 229.3 797.7 244 797.9 265.9 797.9 298.8 799.4 308.6 799.5 323.2 799.6 279.7 799.6 289.5 800.6 260.5 803.6 241.2 803.6 250.9 805.9 265.6 806.2 287.5 807.2 320.4 825.5 330.2 826.2 301.2 826.7 281.8 828.1 290.8 872.2 264.1 886.2 273.1 932 246.3" opacity=".9"/><polyline fill="none" stroke="#65a30d" stroke-linejoin="round" stroke-width="1.8" points="80 476.6 80 472 239.7 474.6 600.9 466.7 730.8 460.6 731.1 464.1 735.1 469.4 754 453.7 754.4 457.7 754.7 463.8 755.5 472.8 757.8 445.8 758.6 450.4 759.5 436.7 759.7 426.2 760.6 414.1 760.8 400.3 761 408.3 761 420.3 761.2 384.6 761.5 366.8 761.7 376.5 761.9 347.5 761.9 357.3 761.9 371.9 761.9 393.8 762.1 328.5 762.2 338.3 762.4 309.3 762.4 319 762.5 290 762.5 299 762.5 312.5 762.6 272.3 762.6 281.3 762.6 254.6 762.6 263.6 762.6 277.1 762.6 297.3 762.6 327.7 762.7 336.7 762.7 350.2 762.7 370.4 762.7 400.8 763.5 385 763.5 394.1 763.7 407.8 763.8 367.1 764.2 347.7 764.5 357.5 765.2 372.1 765.3 328.6 765.3 338.3 765.4 353 765.5 309.5 765.5 319.2 765.8 290.2 766.3 299.2 766.6 312.7 766.9 272.5 767.1 281.5 767.1 254.8 767.3 235.4 767.7 216.1 767.9 225.1 768 238.6 768.5 258.8 768.9 198.6 769.2 179.3 769.4 188.3 769.4 201.8 769.4 222 769.5 161.8 769.5 171.5 769.6 142.5 769.6 151.5 769.7 165 769.7 185.3 769.7 215.6 769.8 196.3 770.4 178.5 770.6 188.2 771 202.8 771 224.8 771.2 159.5 771.2 140.1 771.4 120.8 771.4 130.6 771.4 145.2 771.5 167.1 771.5 200 771.5 209.7 771.8 180.7 771.9 161.4 773.2 142.1 773.3 151.1 773.3 164.6 773.3 184.8 773.3 215.2 773.7 195.8 773.8 204.8 773.8 218.3 774.7 238.6 774.7 269 777.1 249.6 778.4 230.3 780.7 239.3 780.8 252.8 781.3 273 782.2 212.8 784.8 221.8 785 235.3 788.4 195.1 790 204.1 792.2 177.4 792.2 187.1 793.2 201.7 795 158.2 796 138.9 796.1 148.6 796.4 163.3 796.5 185.2 797.3 218.1 797.6 227.8 797.7 242.4 797.9 264.4 797.9 297.3 799.4 307 799.5 321.6 799.6 278.1 799.6 287.9 800.6 258.9 803.6 239.5 803.6 249.3 805.9 263.9 806.2 285.8 807.2 318.7 825.5 328.5 826.2 299.5 826.7 280.1 828.1 289.1 872.2 262.4 886.2 271.4 932 244.6" opacity=".9"/><polyline fill="none" stroke="#475569" stroke-linejoin="round" stroke-width="1.8" points="80 476.6 80 472 239.7 474.6 600.9 466.7 730.8 460.6 731.1 464.1 735.1 469.4 754 453.7 754.4 457.7 754.7 463.7 755.5 472.8 757.8 445.8 758.6 450.4 759.5 436.7 759.7 426.1 760.6 414.1 760.8 400.2 761 408.2 761 420.2 761.2 384.5 761.5 366.7 761.7 376.4 761.9 347.4 761.9 357.1 761.9 371.7 761.9 393.7 762.1 328.4 762.2 338.1 762.4 309.1 762.4 318.8 762.5 289.8 762.5 298.8 762.5 312.3 762.6 272.1 762.6 281.1 762.6 254.4 762.6 263.3 762.6 276.8 762.6 297.1 762.6 327.4 762.7 336.4 762.7 349.9 762.7 370.1 762.7 400.5 763.5 384.7 763.5 393.8 763.7 407.5 763.8 366.7 764.2 347.3 764.5 357.1 765.2 371.7 765.3 328.2 765.3 337.9 765.4 352.5 765.5 309 765.5 318.7 765.8 289.7 766.3 298.7 766.6 312.2 766.9 272 767.1 281 767.1 254.3 767.3 234.9 767.7 215.6 767.9 224.6 768 238.1 768.5 258.3 768.9 198.1 769.2 178.7 769.4 187.7 769.4 201.2 769.4 221.4 769.5 161.2 769.5 170.9 769.6 141.9 769.6 150.9 769.7 164.4 769.7 184.7 769.7 215 769.8 195.7 770.4 177.8 770.6 187.6 771 202.2 771 224.1 771.2 158.8 771.2 139.5 771.4 120.1 771.4 129.9 771.4 144.5 771.5 166.4 771.5 199.3 771.5 209 771.8 180 771.9 160.7 773.2 141.3 773.3 150.3 773.3 163.8 773.3 184 773.3 214.4 773.7 195.1 773.8 204 773.8 217.5 774.7 237.8 774.7 268.1 777.1 248.8 778.4 229.4 780.7 238.4 780.8 251.9 781.3 272.2 782.2 211.9 784.8 220.9 785 234.4 788.4 194.2 790 203.2 792.2 176.5 792.2 186.2 793.2 200.8 795 157.3 796 138 796.1 147.7 796.4 162.3 796.5 184.2 797.3 217.1 797.6 226.8 797.7 241.5 797.9 263.4 797.9 296.3 799.4 306 799.5 320.6 799.6 277.1 799.6 286.8 800.6 257.8 803.6 238.5 803.6 248.2 805.9 262.8 806.2 284.8 807.2 317.6 825.5 327.4 826.2 298.4 826.7 279 828.1 288 872.2 261.2 886.2 270.2 932 243.5" opacity=".9"/><polyline fill="none" stroke="#ea580c" stroke-linejoin="round" stroke-width="1.8" points="80 476.6 80 472 239.7 474.6 600.9 466.7 730.8 460.6 731.1 464.1 735.1 469.4 754 453.6 754.4 457.7 754.7 463.7 755.5 472.8 757.8 445.7 758.6 450.4 759.5 436.6 759.7 426.1 760.6 414 760.8 400.1 761 408.1 761 420.1 761.2 384.4 761.5 366.5 761.7 376.2 761.9 347.2 761.9 356.9 761.9 371.5 761.9 393.4 762.1 328.1 762.2 337.9 762.4 308.8 762.4 318.6 762.5 289.6 762.5 298.5 762.5 312 762.6 271.8 762.6 280.8 762.6 254 762.6 263 762.6 276.5 762.6 296.7 762.6 327.1 762.7 336 762.7 349.5 762.7 369.8 762.7 400.1 763.5 384.2 763.5 393.4 763.7 407.1 763.8 366.1 764.2 346.7 764.5 356.5 765.2 371.1 765.3 327.5 765.3 337.3 765.4 351.9 765.5 308.3 765.5 318.1 765.8 289.1 766.3 298 766.6 311.5 766.9 271.3 767.1 280.3 767.1 253.5 767.3 234.2 767.7 214.8 767.9 223.8 768 237.3 768.5 257.5 768.9 197.3 769.2 177.9 769.4 186.9 769.4 200.4 769.4 220.6 769.5 160.4 769.5 170.1 769.6 141.1 769.6 150 769.7 163.5 769.7 183.7 769.7 214.1 769.8 194.7 770.4 176.9 770.6 186.6 771 201.2 771 223.1 771.2 157.8 771.2 138.5 771.4 119.1 771.4 128.8 771.4 143.4 771.5 165.3 771.5 198.2 771.5 207.9 771.8 178.9 771.9 159.6 773.2 140.2 773.3 149.2 773.3 162.7 773.3 182.9 773.3 213.2 773.7 193.9 773.8 202.9 773.8 216.4 774.7 236.6 774.7 266.9 777.1 247.6 778.4 228.2 780.7 237.2 780.8 250.7 781.3 270.9 782.2 210.6 784.8 219.6 785 233.1 788.4 192.9 790 201.9 792.2 175.1 792.2 184.9 793.2 199.5 795 155.9 796 136.6 796.1 146.3 796.4 160.9 796.5 182.8 797.3 215.7 797.6 225.4 797.7 240 797.9 261.9 797.9 294.8 799.4 304.5 799.5 319.1 799.6 275.6 799.6 285.3 800.6 256.3 803.6 236.9 803.6 246.7 805.9 261.3 806.2 283.2 807.2 316 825.5 325.8 826.2 296.7 826.7 277.4 828.1 286.4 872.2 259.6 886.2 268.6 932 241.8" opacity=".9"/><line x1="950" x2="972" y1="94" y2="94" stroke="#ea580c" stroke-width="3"/><text x="980" y="98" fill="#374151" font-size="12.5">vip 9 84749</text><line x1="950" x2="972" y1="116" y2="116" stroke="#475569" stroke-width="3"/><text x="980" y="120" fill="#374151" font-size="12.5">vip 8 84224</text><line x1="950" x2="972" y1="138" y2="138" stroke="#65a30d" stroke-width="3"/><text x="980" y="142" fill="#374151" font-size="12.5">vip 7 83864</text><line x1="950" x2="972" y1="160" y2="160" stroke="#db2777" stroke-width="3"/><text x="980" y="164" fill="#374151" font-size="12.5">vip 6 83307</text><line x1="950" x2="972" y1="182" y2="182" stroke="#0891b2" stroke-width="3"/><text x="980" y="186" fill="#374151" font-size="12.5">vip 5 82946</text><line x1="950" x2="972" y1="204" y2="204" stroke="#7c3aed" stroke-width="3"/><text x="980" y="208" fill="#374151" font-size="12.5">vip 4 82422</text><line x1="950" x2="972" y1="226" y2="226" stroke="#d97706" stroke-width="3"/><text x="980" y="230" fill="#374151" font-size="12.5">vip 3 79445</text><line x1="950" x2="972" y1="248" y2="248" stroke="#16a34a" stroke-width="3"/><text x="980" y="252" fill="#374151" font-size="12.5">vip 2 77354</text><line x1="950" x2="972" y1="270" y2="270" stroke="#2563eb" stroke-width="3"/><text x="980" y="274" fill="#374151" font-size="12.5">vip 0 74689</text><line x1="950" x2="972" y1="292" y2="292" stroke="#dc2626" stroke-width="3"/><text x="980" y="296" fill="#374151" font-size="12.5">vip 1 74689</text><text x="80" y="542" fill="#6b7280" font-size="12" text-anchor="start">2025-10-10</text><text x="932" y="542" fill="#6b7280" font-size="12" text-anchor="end">2025-10-10</text></svg>