<?xml version="1.0" encoding="UTF-8"?>
<svg xmlns="http://www.w3.org/2000/svg" width="1000" height="520" viewBox="0 0 1000 520" font-family="ui-sans-serif, system-ui, sans-serif">
  <rect width="1000" height="520" fill="#ffffff"/>
  <text x="78" y="28" font-size="18" font-weight="700" fill="#111827">Zone Recovery — PENGUUSDC best setting (equity / PnL)</text>
  <text x="78" y="48" font-size="12.5" fill="#6b7280">lev 20 · ratio 3 · gap 20% · maxSteps 4 · maxDD 20% · random · vip 9  ·  627 series, 80.9% win · vol $80989509 ($80989759/day) · fees $6852</text>
  <text x="78" y="68" font-size="12.5" font-weight="600" fill="#1d4ed8">USDC · BNB −10% · taker 0.0085%</text>
  <text x="934" y="28" text-anchor="end" font-size="18" font-weight="700" fill="#16a34a">+149995 USDT  (+1499.95%)</text>
  <line x1="78" y1="468.0" x2="934" y2="468.0" stroke="#e5e7eb" stroke-width="1"/><text x="68" y="472.0" text-anchor="end" font-size="12" fill="#6b7280">0.00</text><line x1="78" y1="392.0" x2="934" y2="392.0" stroke="#e5e7eb" stroke-width="1"/><text x="68" y="396.0" text-anchor="end" font-size="12" fill="#6b7280">36277</text><line x1="78" y1="316.0" x2="934" y2="316.0" stroke="#e5e7eb" stroke-width="1"/><text x="68" y="320.0" text-anchor="end" font-size="12" fill="#6b7280">72554</text><line x1="78" y1="240.0" x2="934" y2="240.0" stroke="#e5e7eb" stroke-width="1"/><text x="68" y="244.0" text-anchor="end" font-size="12" fill="#6b7280">108831</text><line x1="78" y1="164.0" x2="934" y2="164.0" stroke="#e5e7eb" stroke-width="1"/><text x="68" y="168.0" text-anchor="end" font-size="12" fill="#6b7280">145109</text><line x1="78" y1="88.0" x2="934" y2="88.0" stroke="#e5e7eb" stroke-width="1"/><text x="68" y="92.0" text-anchor="end" font-size="12" fill="#6b7280">181386</text>
  <line x1="78" y1="447.1" x2="934" y2="447.1" stroke="#9ca3af" stroke-width="1.5" stroke-dasharray="6 4"/><text x="934" y="441.1" text-anchor="end" font-size="11" fill="#6b7280">start 10000</text>
  <polyline points="78.0,134.0 78.9,133.9 79.5,133.4 80.2,132.9 80.9,132.3 81.6,132.9 82.4,133.0 83.4,133.1 84.0,132.6 85.0,133.0 86.5,133.3 87.6,132.6 88.6,131.7 89.7,132.0 91.0,133.0 92.2,133.3 93.6,132.2 94.4,131.8 95.3,131.0 95.6,130.5 96.2,130.7 97.0,131.2 97.4,132.1 98.3,132.0 99.4,132.4 100.1,132.3 101.2,131.4 102.3,131.5 103.5,132.2 104.8,132.5 105.6,133.4 106.7,134.3 108.2,133.9 109.5,133.0 110.9,133.1 113.5,132.9 114.5,132.7 115.6,132.2 116.7,131.8 117.6,131.7 118.7,132.1 120.0,131.5 121.3,131.9 122.9,132.4 124.9,131.6 126.4,131.4 127.8,131.8 129.1,131.5 130.4,131.3 131.7,130.8 132.8,131.7 134.3,131.4 135.7,132.5 137.3,132.7 138.8,133.8 140.7,133.5 142.8,133.0 144.4,133.1 145.2,131.8 146.4,132.6 147.7,132.5 149.7,132.5 150.9,133.5 151.8,133.8 153.5,134.4 154.2,134.8 155.0,134.5 156.2,134.1 157.8,133.0 159.8,133.3 161.6,132.1 162.1,132.2 162.9,133.3 164.4,133.4 166.5,133.6 168.2,134.6 168.9,135.0 169.8,135.8 171.0,135.4 172.5,135.4 174.0,134.7 175.5,135.1 177.2,135.6 178.4,134.7 179.7,134.7 180.6,135.4 181.7,135.7 183.2,135.5 185.0,135.1 186.6,135.8 187.7,136.7 188.1,136.5 189.2,136.3 190.9,136.7 192.0,136.2 193.4,136.0 194.6,135.3 196.1,134.8 197.3,133.0 198.7,132.8 200.0,131.2 200.8,130.9 201.4,131.0 201.9,129.3 202.3,129.2 202.9,128.0 203.2,126.6 203.5,126.7 203.9,126.3 204.2,125.8 204.6,126.2 204.9,125.5 205.3,125.9 205.7,125.2 206.2,124.4 206.4,125.0 207.0,124.9 207.5,124.7 208.0,124.7 208.7,124.6 208.9,125.8 208.9,126.2 209.1,126.2 209.4,125.9 210.0,125.5 210.5,126.1 211.0,126.7 211.4,126.4 211.9,126.2 212.3,126.6 212.4,126.2 212.9,126.1 213.5,126.2 213.9,126.9 214.1,126.7 214.3,126.7 214.8,126.3 215.0,126.6 215.8,127.6 216.5,128.6 217.0,128.6 217.5,129.5 218.0,129.9 218.4,130.4 218.9,129.9 219.4,130.1 219.6,129.1 219.9,129.3 220.5,129.5 220.8,128.4 221.1,128.4 221.4,128.3 221.9,128.3 222.3,128.7 223.1,128.8 223.9,128.1 225.0,127.3 225.5,126.3 226.7,127.5 228.2,127.5 228.8,126.7 229.6,127.5 230.2,127.2 230.8,127.7 231.4,127.7 232.6,128.7 233.6,127.8 234.6,127.5 236.1,128.0 237.0,127.3 238.3,127.3 239.5,127.7 240.5,127.6 240.9,128.6 241.5,128.8 242.3,130.2 242.8,129.9 243.6,129.9 244.2,129.7 245.2,129.4 246.4,129.4 247.0,129.4 248.0,129.5 248.8,129.8 249.8,130.5 251.0,130.4 252.3,129.5 253.7,129.9 255.7,130.0 257.0,130.1 257.7,130.9 258.5,131.3 259.3,132.8 259.7,133.4 260.4,133.4 261.4,132.9 263.1,132.8 264.7,132.6 266.0,132.4 267.1,132.2 268.9,131.9 270.3,131.2 271.2,130.8 272.1,130.2 273.2,130.9 274.2,131.7 275.2,132.2 276.0,133.6 277.3,133.1 278.8,133.3 279.4,133.3 279.9,132.8 281.1,131.6 282.8,131.0 283.8,129.4 285.3,129.0 286.1,128.5 287.5,129.3 288.7,128.3 289.2,127.8 290.2,127.5 291.4,127.4 292.5,126.5 293.3,126.1 294.0,126.8 294.7,127.2 295.9,126.5 297.4,126.4 298.5,127.4 299.5,128.4 300.9,128.8 302.8,128.8 304.5,129.3 306.2,129.3 308.5,129.8 310.0,129.8 311.4,130.6 312.5,129.3 313.6,130.0 314.2,130.4 315.5,130.6 316.6,129.2 317.8,129.4 318.9,130.0 319.9,130.1 321.6,131.2 322.4,132.0 322.6,132.9 323.1,132.4 323.6,132.9 324.1,132.0 325.1,131.7 326.0,131.1 327.9,131.9 328.6,132.7 328.9,132.4 330.0,132.5 331.2,132.3 332.2,132.7 332.8,133.6 333.2,132.9 334.1,131.9 335.8,131.8 337.0,132.2 338.0,133.0 338.6,134.0 339.3,132.9 340.1,131.9 341.4,133.1 342.4,132.9 343.6,132.5 345.0,131.3 346.2,131.5 347.3,132.9 348.1,133.4 348.9,132.5 349.8,132.5 350.9,133.5 352.4,131.9 354.5,132.3 355.1,133.3 355.5,133.6 356.8,133.4 358.1,133.7 358.7,133.4 359.6,133.3 360.5,133.4 361.8,134.6 362.9,134.4 363.6,134.4 364.0,134.4 364.5,133.6 365.1,133.1 365.7,134.1 366.3,134.2 366.7,134.7 367.2,133.5 367.8,134.0 368.3,133.6 369.1,133.4 369.7,132.7 370.3,132.9 371.3,132.8 372.7,131.7 373.5,131.1 374.4,129.9 375.0,132.0 375.0,132.3 375.2,131.8 375.9,131.9 377.0,132.8 378.4,131.8 379.9,132.3 381.2,132.3 382.1,131.9 382.8,133.4 383.6,133.6 384.6,133.6 385.5,133.8 386.2,133.2 387.3,133.0 387.8,133.3 388.8,134.0 389.5,134.2 390.2,133.1 391.3,132.7 392.5,133.0 393.5,131.8 394.4,131.9 395.9,131.5 396.4,130.8 397.4,130.1 398.4,129.7 399.4,129.5 399.9,130.9 400.6,131.1 401.3,130.3 402.4,130.2 403.5,130.0 405.0,130.9 406.6,130.1 408.1,129.8 409.2,130.5 411.6,130.5 413.5,130.2 414.4,129.8 415.4,127.9 416.0,127.4 416.8,127.2 417.5,127.0 417.9,127.1 418.1,127.3 418.2,126.8 418.8,126.4 419.4,126.1 420.0,126.4 420.4,126.0 421.3,126.7 422.2,127.8 423.3,127.3 424.3,127.4 425.0,127.3 425.9,127.4 426.7,127.6 427.6,127.4 428.5,129.0 429.1,129.6 429.6,128.8 430.4,128.4 431.5,127.7 432.2,127.9 433.1,128.8 434.0,128.4 434.9,129.5 435.5,128.1 436.0,128.3 436.9,128.0 437.2,127.2 438.3,127.2 439.9,127.3 441.0,127.6 442.5,127.3 443.6,127.1 444.3,126.9 445.0,127.0 445.8,126.4 446.7,126.0 447.6,125.0 447.8,125.1 447.9,124.3 447.9,124.4 448.0,124.8 448.2,124.1 448.5,125.3 448.8,125.5 449.3,125.1 449.9,125.3 450.6,124.9 450.6,125.4 451.3,125.6 451.8,126.2 452.5,126.1 453.0,125.2 453.4,125.2 453.9,126.4 454.4,125.4 455.2,125.9 456.2,126.3 457.0,125.7 458.1,125.4 459.1,126.0 460.2,125.4 461.4,124.9 462.2,124.6 463.3,125.2 464.1,123.5 464.5,122.7 465.0,121.9 465.6,121.9 466.0,121.8 466.7,121.7 467.4,122.6 468.1,121.2 468.8,120.3 469.2,120.3 469.9,120.8 470.5,120.7 470.9,121.4 471.4,121.7 472.0,121.2 472.4,120.2 472.9,120.8 473.5,119.8 473.9,119.8 474.3,119.9 474.9,120.2 475.7,120.3 476.4,120.7 476.8,120.2 476.9,120.7 477.6,121.2 477.9,121.0 478.7,120.9 479.5,120.4 480.5,120.6 481.4,121.0 482.2,121.8 483.3,121.8 484.2,122.5 485.2,123.2 486.4,123.3 487.3,123.1 488.5,122.3 489.2,121.4 490.2,120.9 491.1,120.5 491.8,119.6 493.0,120.2 493.7,120.6 495.3,120.5 496.6,120.7 497.9,120.8 499.1,120.4 499.7,120.2 500.3,119.3 500.7,118.7 501.2,118.3 501.6,117.5 502.0,117.7 502.6,118.0 503.4,118.6 504.2,118.0 505.0,118.7 506.0,119.7 506.4,119.9 506.7,118.9 507.2,118.9 507.7,119.2 508.5,118.3 509.2,118.2 509.8,118.4 510.2,118.0 510.5,117.7 511.2,117.2 511.7,116.8 512.2,118.3 512.8,118.9 513.2,118.8 513.9,118.5 514.3,119.5 514.9,119.1 515.3,119.6 516.1,119.3 516.3,118.8 516.8,118.7 517.5,118.0 518.3,118.6 518.8,118.4 519.5,118.2 520.5,117.7 521.1,117.7 521.8,117.8 522.7,118.0 523.2,116.6 523.7,116.6 524.2,117.5 524.5,117.8 524.9,117.5 525.3,117.1 525.8,116.7 526.6,116.8 526.9,115.4 527.2,115.2 527.6,115.9 528.1,115.6 528.6,115.9 529.1,116.7 529.6,116.4 530.1,116.4 530.5,117.5 531.0,117.9 531.8,118.3 532.8,118.1 533.7,118.4 534.6,118.9 535.4,118.2 536.5,118.2 537.2,117.5 538.3,118.0 539.6,117.6 541.0,117.5 542.3,117.6 542.9,117.5 543.8,116.9 544.2,116.6 544.8,116.6 545.3,117.5 546.0,116.8 546.4,116.2 547.0,116.1 547.5,117.2 548.1,117.7 548.9,117.6 549.9,117.9 551.1,117.5 551.8,118.5 551.9,117.9 552.9,117.8 553.3,117.2 553.8,117.6 554.4,117.5 555.3,117.9 556.1,118.0 556.5,118.2 556.9,118.0 557.4,118.1 558.3,118.5 558.8,118.7 559.6,118.3 559.7,118.3 560.0,118.3 560.1,118.5 560.2,118.4 560.5,118.1 560.9,118.6 561.1,119.1 561.3,119.1 561.5,119.6 561.6,119.4 561.9,118.6 562.2,117.9 562.4,117.8 562.6,117.4 562.8,118.0 563.1,118.5 563.2,118.8 563.5,119.3 563.6,118.2 563.9,118.6 564.4,117.3 564.8,116.4 565.1,116.5 565.4,116.1 565.7,116.5 566.0,116.8 566.4,116.9 566.8,116.6 567.1,116.0 567.5,116.3 567.8,115.3 568.0,115.8 568.4,115.7 568.7,116.7 569.0,116.0 569.2,116.2 569.6,116.4 569.9,116.3 570.2,115.7 570.4,116.0 570.8,116.6 571.2,117.7 571.5,118.2 572.1,118.2 572.5,118.8 573.0,117.7 573.6,118.4 574.1,118.9 574.7,119.0 575.2,119.1 575.7,118.6 576.4,118.3 576.9,117.9 577.5,117.2 578.0,116.6 578.2,118.7 578.5,118.2 578.8,117.2 579.4,116.4 579.8,116.1 580.3,115.7 580.6,115.6 581.1,116.1 581.8,115.1 581.8,114.8 582.4,115.4 582.7,114.6 583.1,114.2 583.7,115.2 584.1,114.9 584.9,115.0 585.7,116.0 586.3,116.0 586.6,115.5 587.0,116.5 587.2,116.7 587.5,117.5 587.7,117.9 588.0,118.7 588.2,118.0 588.5,118.6 588.8,118.9 589.2,118.9 589.4,120.4 589.6,119.8 590.2,119.1 590.5,119.8 590.8,119.3 591.1,120.2 591.3,121.7 591.5,121.6 591.6,121.9 591.8,121.8 591.9,121.9 592.2,122.0 592.5,121.7 592.9,122.2 593.5,121.2 593.9,122.3 594.6,122.7 595.1,122.5 595.5,122.0 595.7,120.9 596.3,121.0 596.6,121.3 596.8,120.4 597.1,120.9 597.6,120.6 597.9,120.1 598.4,119.7 598.7,120.9 599.1,121.3 599.4,120.7 600.2,121.1 601.1,121.5 601.9,120.8 602.6,121.7 603.1,120.8 603.7,120.8 604.4,120.2 604.8,121.1 605.3,122.1 605.8,121.0 606.2,120.0 606.8,120.3 607.5,120.0 608.3,120.5 609.2,121.2 610.2,121.7 610.6,122.0 611.5,122.6 611.7,122.9 611.8,124.1 611.8,125.2 611.8,125.7 611.9,124.4 611.9,124.8 612.0,125.6 612.0,126.6 612.1,126.2 612.2,127.4 612.3,129.1 612.4,127.5 612.4,128.4 612.5,128.2 612.5,126.9 612.6,127.6 612.6,128.4 612.7,128.2 612.7,127.6 612.8,127.8 612.9,128.1 613.0,128.7 613.1,129.1 613.1,128.7 613.2,128.9 613.2,129.0 613.3,129.7 613.3,129.6 613.4,130.5 613.4,130.2 613.5,130.4 613.6,130.2 613.6,131.4 613.7,130.6 613.7,130.7 613.7,130.8 613.8,131.6 613.8,131.6 613.9,130.9 613.9,132.0 614.0,132.5 614.1,132.2 614.2,132.6 614.3,132.9 614.4,133.5 614.5,133.4 614.6,132.9 614.7,133.2 614.8,132.3 614.9,132.8 614.9,132.4 615.0,131.8 615.1,132.1 615.1,132.5 615.3,132.4 615.4,132.9 615.5,133.2 615.6,134.2 615.7,134.4 615.8,134.3 615.9,133.6 616.0,133.8 616.0,133.6 616.1,134.0 616.2,133.4 616.3,133.5 616.4,133.8 616.4,133.1 616.5,132.8 616.6,132.3 616.6,132.4 616.7,132.9 616.8,133.4 616.8,133.3 616.9,132.6 617.0,131.8 617.1,131.1 617.2,131.7 617.2,132.0 617.3,131.9 617.4,131.8 617.5,131.5 617.6,131.2 617.6,131.6 617.6,131.9 617.7,130.9 617.8,131.0 617.9,131.5 618.0,131.6 618.0,131.6 618.1,131.9 618.2,131.6 618.3,132.1 618.4,132.6 618.4,132.1 618.5,132.0 618.5,131.6 618.6,132.1 618.7,132.7 618.8,132.3 619.0,132.2 619.0,131.4 619.2,130.8 619.2,130.4 619.4,129.9 619.4,129.9 619.6,129.1 619.6,129.2 619.8,128.9 619.9,129.1 620.1,128.8 620.2,129.9 620.2,129.7 620.3,130.4 620.4,130.1 620.6,129.9 620.8,130.1 620.9,129.8 621.1,129.9 621.1,129.5 621.3,129.4 621.4,129.0 621.5,129.5 621.7,129.7 621.8,130.4 622.1,130.8 622.2,130.4 622.5,130.0 622.6,130.9 622.8,131.3 623.0,131.6 623.1,131.6 623.3,132.2 623.5,133.0 623.6,133.6 623.6,133.4 623.7,132.5 623.7,132.5 623.9,133.0 624.0,133.6 624.2,133.6 624.3,133.2 624.3,133.1 624.4,133.2 624.5,134.1 624.8,134.3 624.9,134.3 625.0,134.7 625.0,134.3 625.1,133.9 625.2,134.1 625.2,134.0 625.3,135.1 625.4,134.8 625.6,135.4 625.7,135.5 625.8,135.9 625.9,136.2 625.9,137.5 626.0,138.0 626.0,137.7 626.1,137.5 626.1,137.3 626.2,137.8 626.3,138.1 626.3,137.0 626.4,136.6 626.5,136.6 626.6,136.4 626.6,136.2 626.7,135.9 626.7,136.4 626.8,136.7 626.9,137.3 627.0,137.3 627.1,137.5 627.1,137.9 627.1,138.1 627.2,138.3 627.3,137.9 627.3,137.3 627.3,137.9 627.4,138.2 627.5,138.0 627.5,137.2 627.7,138.2 627.7,138.7 627.8,139.1 627.9,138.5 627.9,138.5 628.0,138.4 628.0,139.2 628.1,139.5 628.1,139.0 628.2,139.7 628.3,139.6 628.3,139.2 628.3,139.0 628.4,138.4 628.4,138.3 628.5,137.3 628.5,137.6 628.6,138.0 628.7,138.5 628.7,139.0 628.8,139.0 628.9,139.3 629.0,139.7 629.1,139.3 629.1,139.2 629.2,138.8 629.3,138.2 629.4,137.9 629.6,137.4 629.6,137.1 629.7,137.5 629.8,137.8 629.8,138.0 630.0,137.9 630.1,138.3 630.2,139.2 630.3,139.5 630.5,139.5 630.6,140.1 630.8,140.8 630.9,141.0 630.9,141.8 630.9,142.5 631.0,141.6 631.1,143.1 631.2,143.4 631.3,145.9 631.3,146.8 631.3,146.0 631.4,146.2 631.4,146.0 631.5,145.3 631.5,144.8 631.6,144.9 631.6,146.1 631.7,147.5 631.7,147.8 631.8,147.2 631.9,147.7 631.9,149.6 631.9,151.3 631.9,150.9 632.0,152.1 632.0,149.6 632.0,148.7 632.1,148.1 632.1,147.5 632.1,147.9 632.2,147.3 632.2,147.6 632.3,148.1 632.3,147.9 632.4,148.0 632.4,147.5 632.5,147.6 632.5,149.0 632.6,149.5 632.7,148.9 632.7,148.9 632.8,148.3 632.8,148.8 632.9,148.8 633.0,148.3 633.0,148.9 633.1,149.0 633.2,149.2 633.2,149.8 633.3,149.7 633.3,150.2 633.3,150.6 633.4,151.0 633.4,151.5 633.4,151.8 633.5,152.4 633.5,150.9 633.6,151.5 633.6,151.1 633.7,152.5 633.7,152.9 633.8,152.5 633.8,151.2 633.8,150.0 633.9,150.3 633.9,150.3 634.0,150.1 634.1,149.6 634.1,149.4 634.2,148.5 634.3,149.3 634.4,149.3 634.4,149.6 634.5,150.2 634.5,149.7 634.5,149.0 634.6,149.0 634.7,149.5 634.8,150.0 634.9,149.7 634.9,148.8 635.0,149.0 635.1,149.7 635.1,149.5 635.2,148.7 635.2,148.5 635.3,148.4 635.3,148.3 635.4,148.0 635.5,147.7 635.5,147.2 635.6,147.1 635.6,146.6 635.7,146.6 635.7,146.9 635.8,146.4 635.8,146.1 635.9,145.5 635.9,146.0 636.0,146.1 636.1,145.8 636.2,146.7 636.3,146.9 636.3,146.2 636.4,145.3 636.4,145.2 636.5,145.1 636.6,145.7 636.7,146.1 636.8,146.3 636.8,146.4 636.9,145.8 636.9,146.7 637.0,147.3 637.1,147.8 637.2,147.1 637.2,148.1 637.3,148.4 637.4,148.4 637.4,147.7 637.5,147.9 637.5,147.5 637.6,147.0 637.6,146.9 637.7,147.0 637.7,147.2 637.9,146.6 637.9,146.1 638.0,146.5 638.1,146.6 638.1,147.3 638.2,147.3 638.3,146.6 638.4,147.1 638.4,146.4 638.5,146.7 638.6,145.9 638.6,145.9 638.7,145.5 638.9,144.8 639.0,145.1 639.1,144.4 639.2,144.3 639.5,143.5 639.7,142.6 639.8,142.8 639.8,143.4 640.0,143.6 640.1,144.1 640.4,144.8 640.4,144.2 640.6,143.4 640.7,143.7 640.8,143.6 641.0,143.9 641.0,143.8 641.2,144.2 641.3,144.5 641.5,144.3 641.6,144.6 641.7,144.1 641.8,144.4 641.9,144.4 642.0,144.1 642.2,144.6 642.2,145.5 642.3,145.7 642.5,145.3 642.5,145.1 642.7,144.8 642.9,144.8 643.0,145.7 643.1,146.0 643.2,145.8 643.3,145.3 643.3,144.7 643.4,145.1 643.6,144.0 643.7,144.7 643.9,145.3 643.9,145.8 644.0,145.4 644.1,145.7 644.2,145.7 644.2,145.6 644.3,145.5 644.4,145.6 644.4,145.5 644.5,145.8 644.6,146.0 644.7,146.1 644.9,145.7 645.1,146.1 645.2,145.8 645.3,146.3 645.3,145.9 645.5,145.5 645.7,146.0 645.8,147.0 645.9,147.0 646.0,147.7 646.1,147.0 646.2,147.4 646.4,148.0 646.5,148.4 646.7,148.3 646.8,147.8 646.9,147.4 647.0,148.5 647.1,148.8 647.2,149.1 647.5,148.9 647.6,149.2 647.7,148.7 647.9,147.9 648.1,147.6 648.3,148.1 648.5,149.3 648.7,149.1 648.7,149.0 648.8,149.4 649.0,150.1 649.1,149.8 649.3,150.5 649.4,150.1 649.6,149.3 649.7,150.1 649.8,150.3 649.9,149.8 650.1,151.0 650.2,150.6 650.3,151.3 650.4,151.5 650.5,151.3 650.7,151.5 650.8,151.6 650.9,151.2 651.1,151.9 651.2,153.0 651.3,152.6 651.5,152.7 651.6,151.8 651.8,151.9 651.9,150.6 652.1,150.3 652.2,150.6 652.3,150.8 652.6,150.5 652.8,150.6 653.0,150.8 653.1,150.7 653.2,150.0 653.3,149.9 653.4,150.0 653.5,150.0 653.6,149.1 653.8,148.6 654.0,147.6 654.2,147.7 654.4,147.3 654.5,147.5 654.6,147.6 654.7,147.6 654.8,147.7 654.9,148.0 655.0,148.6 655.1,148.7 655.2,149.4 655.3,149.3 655.5,148.9 655.6,148.5 655.7,148.4 655.7,147.9 655.8,148.1 656.0,147.7 656.1,149.0 656.3,148.8 656.5,149.0 656.7,148.8 656.9,148.4 657.1,149.1 657.2,148.9 657.5,149.1 657.6,149.9 657.8,149.5 657.9,150.1 658.1,150.7 658.3,151.1 658.4,151.0 658.5,151.7 658.7,151.7 658.8,151.7 659.0,151.8 659.1,151.7 659.3,151.4 659.5,151.8 659.6,151.5 659.8,151.7 660.0,151.5 660.1,150.9 660.2,150.9 660.5,151.4 660.7,151.8 661.0,151.7 661.1,152.0 661.3,152.7 661.4,152.0 661.6,152.1 661.7,152.1 661.9,151.8 662.1,151.8 662.3,151.5 662.5,151.2 662.7,150.3 662.9,150.0 663.1,150.0 663.4,149.5 663.5,149.6 663.7,150.4 663.9,150.5 664.1,151.1 664.3,150.9 664.6,151.2 664.8,150.8 665.0,151.6 665.1,152.0 665.4,151.7 665.7,151.4 665.9,152.1 666.2,152.9 666.3,153.4 666.4,153.2 666.5,153.5 666.6,152.9 666.7,153.4 666.9,153.0 667.1,152.6 667.2,153.3 667.4,153.3 667.5,152.5 667.8,152.1 668.0,151.6 668.2,151.4 668.5,151.2 668.6,150.3 668.7,150.3 668.7,150.4 668.9,150.3 669.1,150.8 669.3,150.9 669.5,150.7 669.7,151.6 669.9,150.6 670.1,150.6 670.2,149.8 670.3,149.3 670.6,148.9 670.7,149.2 670.9,148.5 671.0,148.1 671.2,147.7 671.4,148.1 671.6,148.0 671.9,148.5 672.2,148.1 672.4,147.7 672.6,147.9 672.8,148.6 673.0,149.0 673.3,150.0 673.5,150.2 673.7,150.2 673.9,150.2 674.1,150.3 674.4,150.9 674.6,151.0 674.9,151.2 675.1,150.9 675.4,151.8 675.7,151.4 675.9,151.4 676.2,151.2 676.5,151.4 676.7,150.6 677.1,151.5 677.3,151.9 677.7,152.7 677.9,152.7 678.0,152.5 678.4,153.5 678.6,153.3 678.7,153.0 678.9,153.3 679.0,153.1 679.2,153.1 679.6,153.1 679.9,153.0 680.1,153.2 680.5,153.2 680.8,153.8 680.9,153.1 681.1,153.2 681.4,153.4 681.6,153.5 681.8,154.4 682.0,153.5 682.3,152.9 682.4,153.2 682.7,153.4 683.1,154.1 683.4,154.8 683.6,154.0 684.0,154.5 684.2,153.6 684.5,153.9 684.6,153.4 684.9,152.7 685.1,153.2 685.3,152.9 685.6,152.9 685.8,153.2 686.0,153.8 686.3,154.5 686.5,154.0 686.8,153.8 687.1,154.6 687.2,155.4 687.4,155.5 687.5,155.7 687.6,155.7 687.8,155.9 688.0,155.2 688.3,154.9 688.5,154.4 688.9,155.2 689.1,155.2 689.4,154.6 689.7,154.3 690.2,154.2 690.4,153.9 690.7,154.2 691.1,154.7 691.3,154.0 691.5,153.1 691.7,152.7 692.0,152.9 692.3,153.5 692.7,154.3 693.1,154.2 693.3,153.7 693.4,153.8 693.8,153.7 694.2,152.9 694.6,152.6 694.9,152.7 695.3,152.2 695.8,152.4 696.2,152.0 696.5,153.4 696.8,154.0 697.2,153.5 697.5,153.0 697.9,152.9 698.2,151.1 698.6,151.0 699.0,151.6 699.4,152.2 699.8,152.0 700.2,152.6 700.5,152.3 701.0,151.9 701.3,151.4 701.6,151.5 702.1,152.4 702.4,152.2 702.8,152.4 703.1,152.7 703.4,152.8 703.7,153.1 704.2,152.7 704.6,153.3 704.8,152.6 705.1,153.1 705.4,153.3 705.7,153.7 706.1,154.4 706.3,154.1 706.7,154.1 706.9,154.4 707.1,154.6 707.4,155.0 707.5,155.3 707.9,155.2 708.1,155.1 708.3,155.9 708.5,155.8 708.8,156.0 709.1,155.2 709.4,155.5 709.6,155.5 709.8,155.4 710.0,156.1 710.2,156.4 710.3,156.6 710.7,156.2 711.1,156.5 711.3,156.0 711.5,156.6 711.6,156.7 711.8,157.2 711.9,157.7 712.0,158.6 712.0,159.0 712.0,159.0 712.1,158.5 712.2,158.4 712.3,157.7 712.4,157.6 712.6,157.1 712.7,156.4 713.0,156.3 713.1,155.2 713.3,155.2 713.5,155.4 713.7,156.2 714.0,155.7 714.2,155.9 714.4,155.7 714.6,156.2 714.9,156.3 715.3,156.7 715.8,157.0 716.4,156.6 716.8,156.5 717.2,156.2 717.5,155.3 717.7,155.8 718.2,156.0 718.5,156.2 718.9,156.5 719.4,155.6 720.0,155.6 720.4,156.4 720.7,156.1 720.9,156.0 721.3,155.3 721.5,155.1 721.8,155.4 722.1,155.9 722.7,154.9 723.1,154.6 723.5,154.8 723.8,154.5 724.1,155.1 724.3,155.9 724.5,156.3 724.7,155.0 725.1,154.5 725.8,155.5 726.1,155.7 726.6,155.3 727.2,155.0 727.9,155.7 728.4,155.6 728.9,154.8 729.4,154.6 729.9,154.1 730.2,154.2 730.3,153.7 730.5,154.2 730.8,155.1 731.1,155.2 731.6,155.3 731.9,154.4 732.1,154.0 732.4,153.6 732.7,153.5 733.1,154.0 733.3,153.9 733.7,152.7 734.0,152.5 734.5,152.8 735.0,152.2 735.3,151.7 735.7,152.1 736.2,152.3 736.7,152.2 737.2,152.6 737.9,153.1 738.3,152.6 738.8,153.0 739.4,153.4 739.8,153.4 740.5,153.6 741.5,153.3 742.2,154.4 742.2,154.4 742.6,154.0 743.1,154.5 743.6,154.6 744.0,155.0 744.3,154.1 744.4,153.8 744.7,154.1 745.0,154.1 745.2,153.9 745.6,153.2 745.9,152.8 746.4,152.5 746.7,153.3 747.0,152.5 747.2,152.2 747.6,153.7 747.9,153.0 747.9,153.2 748.1,153.8 748.5,154.4 748.8,155.5 749.0,155.7 749.1,155.9 749.3,155.2 749.6,155.2 749.7,154.7 750.0,155.1 750.5,155.2 750.7,155.3 751.2,155.1 751.6,155.2 751.8,156.2 752.1,156.3 752.6,156.1 753.1,156.1 753.6,155.8 754.1,156.2 754.7,157.0 755.3,157.0 755.7,156.8 756.0,156.2 756.4,156.3 756.7,156.1 757.1,155.7 757.6,156.1 758.1,156.1 758.9,156.9 759.3,156.8 759.8,156.7 760.3,157.0 760.8,158.2 761.1,158.0 761.4,158.0 761.7,158.3 761.9,158.3 762.2,158.4 762.4,158.1 762.7,159.3 762.7,159.4 762.8,159.4 762.9,159.5 763.1,159.8 763.2,159.4 763.5,159.3 763.8,159.0 764.4,159.9 764.7,160.1 764.9,160.4 765.0,160.3 765.1,159.9 765.3,159.6 765.4,159.6 765.6,160.1 765.8,159.8 766.0,159.8 766.4,159.7 766.7,159.9 767.2,160.3 767.6,159.8 767.7,159.6 767.9,160.3 768.0,160.0 768.1,160.1 768.2,159.8 768.4,159.7 768.6,161.2 768.6,161.9 768.7,162.0 768.7,162.2 768.7,161.7 768.8,161.6 768.8,161.6 768.9,161.5 769.0,162.0 769.1,162.2 769.2,161.5 769.3,161.0 769.4,161.2 769.6,161.9 769.8,161.7 770.0,161.4 770.5,160.3 770.7,159.7 770.8,159.9 770.9,159.3 771.0,159.9 771.1,160.7 771.3,160.4 771.5,160.8 771.8,161.0 772.0,162.3 772.3,162.1 772.5,162.7 772.7,163.6 772.8,163.5 772.9,164.4 772.9,163.8 773.0,163.8 773.2,164.5 773.3,165.2 773.3,165.2 773.4,165.6 773.4,166.6 773.5,167.6 773.6,166.1 773.6,166.0 773.7,165.1 773.8,164.6 773.8,164.9 773.9,164.2 774.0,164.2 774.1,163.1 774.2,163.2 774.2,163.3 774.4,163.5 774.5,162.8 774.6,163.0 774.7,163.4 774.9,163.5 775.0,163.1 775.1,163.3 775.3,164.1 775.4,164.9 775.5,165.1 775.5,165.5 775.6,165.7 775.7,165.9 775.7,166.0 775.8,165.8 775.9,165.6 775.9,165.6 776.1,165.4 776.1,166.0 776.2,165.8 776.3,165.1 776.4,164.9 776.5,165.5 776.6,165.3 776.7,165.8 776.7,165.4 776.9,166.3 777.0,165.7 777.1,165.2 777.2,165.3 777.4,165.3 777.6,164.5 777.8,164.5 777.9,164.1 778.1,164.1 778.3,163.9 778.5,164.2 778.8,164.4 778.9,164.8 779.1,165.4 779.3,165.4 779.5,165.1 779.8,164.7 780.1,165.6 780.2,164.8 780.5,164.2 780.6,163.5 780.7,163.3 780.7,163.6 780.9,163.7 781.1,162.8 781.4,162.4 781.7,162.3 782.0,162.3 782.2,161.2 782.5,161.1 782.8,160.5 783.0,160.8 783.2,161.3 783.4,162.0 783.8,161.4 784.1,160.8 784.5,160.1 784.8,159.7 785.1,160.6 785.4,160.3 785.5,161.3 785.7,161.6 785.8,162.0 786.0,162.0 786.1,162.4 786.3,162.4 786.5,162.5 786.7,162.4 787.1,161.8 787.4,161.6 787.6,161.7 788.0,162.3 788.4,162.6 788.6,162.7 789.0,161.9 789.3,162.1 789.6,161.8 789.7,161.1 790.1,161.2 790.2,161.8 790.6,162.2 790.9,162.6 791.2,162.0 791.5,161.6 791.9,161.8 792.2,161.5 792.5,161.8 792.7,162.5 792.9,161.5 793.1,161.3 793.4,161.5 794.0,161.3 794.0,160.6 794.2,160.3 794.4,160.3 794.6,161.1 794.8,160.8 795.0,160.3 795.3,159.8 795.6,160.3 796.0,161.1 796.3,160.7 796.5,161.5 796.8,161.8 797.1,161.8 797.4,161.8 797.6,161.8 798.0,161.3 798.2,161.5 798.6,161.3 798.9,160.5 799.1,160.0 799.4,161.0 799.8,160.4 800.2,160.7 800.5,160.1 801.0,159.8 801.4,159.3 801.6,159.8 802.2,161.0 802.5,160.8 802.8,160.7 803.3,161.1 803.8,160.6 804.2,160.2 804.7,160.1 805.3,159.9 805.7,160.2 806.2,160.4 806.6,160.3 807.0,159.5 807.6,159.3 808.0,159.0 808.5,159.0 809.1,159.1 809.5,159.9 810.1,160.1 810.4,160.3 810.8,160.2 811.2,159.9 811.5,159.5 811.7,159.2 812.2,159.7 812.5,159.7 812.8,159.5 813.1,159.5 813.7,159.3 814.3,158.9 814.9,158.9 815.4,159.2 815.8,159.1 816.6,159.2 817.1,159.5 817.6,159.3 817.7,159.2 818.2,159.0 818.8,159.3 819.3,159.5 819.9,159.2 820.5,159.6 821.0,159.4 821.2,160.8 821.2,161.3 821.3,161.7 821.3,161.7 821.4,162.1 821.4,162.3 821.6,162.1 821.7,162.1 821.7,162.1 821.8,161.9 821.8,162.0 821.9,162.7 821.9,163.2 822.0,163.4 822.1,164.3 822.2,163.7 822.3,163.6 822.4,164.5 822.5,164.4 822.6,165.6 822.7,165.3 822.8,166.5 822.8,166.8 822.8,167.2 822.9,167.2 823.0,166.7 823.0,166.1 823.1,165.8 823.2,166.0 823.2,166.4 823.3,167.5 823.4,168.3 823.4,169.4 823.4,169.5 823.5,170.4 823.5,169.6 823.6,168.5 823.6,169.0 823.7,170.2 823.7,170.9 823.8,170.0 823.8,169.3 823.9,170.7 824.0,169.3 824.1,169.8 824.1,169.8 824.1,169.1 824.2,170.0 824.2,170.1 824.3,170.7 824.3,169.8 824.4,170.3 824.5,170.2 824.5,170.0 824.6,171.4 824.6,172.7 824.6,172.6 824.7,173.6 824.7,174.1 824.8,175.0 824.8,176.4 824.8,177.6 824.9,179.1 824.9,181.1 824.9,182.2 824.9,184.3 825.0,183.7 825.0,178.4 825.0,177.8 825.1,177.8 825.1,178.1 825.2,176.4 825.2,177.8 825.3,178.6 825.3,178.5 825.3,178.1 825.4,177.2 825.4,176.4 825.4,177.0 825.5,178.2 825.5,179.3 825.5,178.1 825.6,177.7 825.6,177.4 825.7,177.6 825.8,178.7 825.8,176.9 825.9,177.0 825.9,177.8 826.0,177.5 826.0,177.9 826.1,179.6 826.1,180.4 826.1,178.7 826.1,178.0 826.2,177.5 826.2,178.1 826.3,179.0 826.4,180.0 826.4,181.0 826.4,182.2 826.5,180.5 826.5,179.7 826.6,180.3 826.6,180.6 826.6,180.5 826.6,182.1 826.7,183.3 826.7,185.5 826.8,185.8 826.8,186.3 826.8,189.4 826.8,192.7 826.9,193.9 826.9,198.8 826.9,197.2 826.9,192.7 827.0,193.7 827.0,191.1 827.1,189.3 827.1,190.6 827.1,190.2 827.2,191.9 827.2,191.2 827.2,187.6 827.3,188.4 827.4,188.8 827.4,191.0 827.4,190.7 827.5,192.0 827.6,193.4 827.6,191.3 827.6,191.0 827.7,191.8 827.7,191.6 827.7,191.9 827.8,190.4 827.8,189.6 827.8,189.4 827.8,189.7 827.9,189.4 827.9,188.7 828.0,187.8 828.1,186.5 828.2,186.7 828.2,187.6 828.2,187.8 828.3,187.4 828.3,186.6 828.4,186.0 828.5,186.0 828.5,186.6 828.6,187.3 828.6,186.3 828.7,185.5 828.8,186.1 828.8,186.2 828.9,186.3 828.9,185.4 829.0,184.3 829.1,184.1 829.1,184.6 829.2,184.9 829.3,185.8 829.3,186.6 829.4,186.1 829.4,186.8 829.5,185.8 829.5,185.1 829.6,185.8 829.7,185.8 829.8,185.4 829.9,184.4 830.0,184.7 830.1,184.8 830.2,185.8 830.3,185.4 830.4,185.5 830.5,186.0 830.6,186.0 830.6,185.8 830.7,186.2 830.8,185.2 830.9,186.4 830.9,186.7 831.0,186.2 831.1,187.1 831.2,186.9 831.3,186.4 831.3,185.3 831.4,184.9 831.5,185.2 831.6,185.3 831.7,186.0 831.8,187.1 831.8,186.6 831.8,186.2 831.9,186.8 832.0,187.5 832.1,187.3 832.2,187.9 832.3,188.2 832.4,187.2 832.4,186.6 832.5,187.2 832.5,186.9 832.6,186.6 832.7,186.1 832.7,185.8 832.8,185.0 832.9,185.6 833.0,185.6 833.1,184.6 833.1,185.1 833.2,185.9 833.3,186.3 833.4,187.1 833.5,186.9 833.5,187.0 833.6,186.8 833.6,187.1 833.7,187.6 833.8,187.8 833.9,188.8 834.0,188.2 834.0,188.6 834.1,189.8 834.2,188.9 834.2,190.1 834.2,189.6 834.3,188.4 834.3,189.1 834.3,189.3 834.4,189.8 834.4,190.9 834.4,191.5 834.5,191.4 834.5,193.1 834.6,192.8 834.7,193.3 834.7,195.4 834.8,196.7 834.8,198.4 834.8,200.4 834.9,203.7 834.9,204.3 834.9,205.2 835.0,206.1 835.0,209.6 835.1,215.4 835.1,215.5 835.1,219.5 835.2,222.3 835.2,220.7 835.2,218.2 835.3,215.4 835.3,214.0 835.4,213.6 835.4,213.5 835.4,212.8 835.5,215.4 835.5,219.0 835.5,221.3 835.6,230.4 835.7,235.4 835.7,234.0 835.7,238.0 835.7,243.2 835.8,238.7 835.8,233.2 835.9,230.5 835.9,227.4 835.9,224.2 836.0,223.0 836.0,223.5 836.0,223.7 836.0,222.9 836.1,224.6 836.1,223.0 836.1,223.6 836.2,223.3 836.2,224.8 836.2,228.0 836.3,231.2 836.3,235.8 836.3,232.8 836.3,228.4 836.3,237.8 836.4,235.7 836.5,232.4 836.5,237.2 836.5,237.8 836.6,241.9 836.6,247.0 836.6,249.0 836.7,251.4 836.7,251.7 836.8,248.8 836.8,247.6 836.9,246.3 836.9,253.7 837.0,260.2 837.0,261.9 837.1,269.5 837.1,272.3 837.2,273.2 837.2,278.4 837.2,278.1 837.3,277.0 837.3,275.9 837.4,277.4 837.4,280.9 837.5,283.3 837.5,273.7 837.6,278.3 837.6,278.1 837.7,281.0 837.8,279.2 837.8,282.7 837.8,284.8 837.9,286.3 837.9,288.3 837.9,289.6 838.0,294.1 838.0,301.3 838.0,315.0 838.1,333.2 838.1,336.7 838.2,350.9 838.3,370.1 838.3,377.6 838.3,374.8 838.4,387.3 838.5,394.7 838.6,411.8 838.8,429.5 838.9,415.0 839.1,415.6 839.2,428.3 839.4,435.1 839.5,434.8 839.7,430.9 839.8,427.1 840.0,426.1 840.1,424.4 840.2,422.4 840.2,419.9 840.3,419.4 840.4,418.3 840.4,418.3 840.5,409.7 840.6,400.8 840.7,408.2 840.7,405.8 840.8,403.3 840.8,398.7 840.8,391.6 840.9,387.3 840.9,392.0 841.1,393.1 841.2,391.6 841.3,391.2 841.3,389.4 841.4,387.1 841.4,385.0 841.4,381.1 841.4,376.4 841.5,374.4 841.6,366.6 841.7,364.4 841.7,372.1 841.8,365.5 841.9,356.6 841.9,354.5 841.9,349.8 842.0,347.2 842.0,348.2 842.1,352.8 842.2,340.5 842.3,347.8 842.3,351.8 842.4,353.0 842.5,346.4 842.5,342.1 842.6,345.6 842.7,349.5 842.8,351.6 842.9,344.8 842.9,346.0 842.9,349.4 843.0,348.9 843.0,348.8 843.0,345.2 843.1,344.6 843.2,343.1 843.2,340.4 843.3,345.4 843.3,343.7 843.3,340.6 843.3,335.9 843.4,335.4 843.4,336.0 843.5,334.9 843.5,335.3 843.6,333.0 843.6,331.1 843.6,345.5 843.7,327.6 843.8,327.9 843.8,327.2 843.9,330.1 843.9,326.9 844.0,326.8 844.0,331.8 844.1,331.8 844.1,330.2 844.2,332.2 844.3,334.0 844.4,332.7 844.5,330.7 844.6,332.1 844.7,324.0 844.8,328.1 844.9,328.3 844.9,327.3 845.0,328.0 845.1,312.2 845.2,321.9 845.3,319.7 845.4,318.8 845.5,318.3 845.6,318.4 845.6,311.4 845.7,321.3 845.8,320.5 845.9,313.1 846.1,312.3 846.2,310.8 846.3,306.6 846.3,309.1 846.5,312.7 846.8,311.8 847.1,317.0 847.3,298.5 847.6,311.9 847.8,299.2 848.1,292.6 848.4,297.3 848.6,297.3 848.9,295.0 849.2,302.3 849.6,295.1 849.9,304.7 850.2,310.5 850.6,309.3 851.0,299.8 851.3,299.5 851.8,294.9 852.1,276.4 852.3,293.7 852.7,277.6 852.9,274.4 853.2,281.8 853.6,272.4 853.9,265.1 854.3,267.1 854.5,267.2 854.8,263.2 855.1,264.0 855.4,261.1 855.8,264.5 856.1,269.4 856.4,272.3 856.7,269.3 856.8,269.4 856.9,265.4 857.0,269.2 857.1,264.4 857.2,258.6 857.4,269.1 857.6,264.2 857.8,271.3 857.9,263.9 858.0,263.0 858.3,262.6 858.6,250.5 859.0,263.0 859.3,261.0 859.6,259.5 859.8,252.4 860.0,256.1 860.3,259.5 860.5,258.4 860.9,257.4 861.0,259.3 861.3,260.3 861.7,255.3 862.2,255.8 862.3,260.1 862.5,255.6 862.8,256.1 863.1,262.1 863.3,259.9 863.4,263.4 863.5,262.9 863.6,265.2 863.7,261.1 863.9,265.0 864.0,263.6 864.0,263.9 864.1,265.7 864.2,264.2 864.3,263.1 864.4,261.4 864.5,264.3 864.5,265.5 864.6,265.4 864.8,266.5 865.1,267.6 865.2,268.8 865.3,269.4 865.4,267.7 865.5,270.8 865.6,267.3 865.7,264.8 865.7,267.2 865.8,268.8 865.9,271.9 865.9,272.8 866.0,277.3 866.2,292.5 866.2,301.8 866.3,299.2 866.3,285.9 866.4,283.9 866.4,277.7 866.4,279.3 866.5,280.3 866.5,279.6 866.6,278.7 866.8,273.4 866.9,275.1 866.9,274.8 867.0,273.7 867.0,272.9 867.1,272.8 867.1,269.2 867.2,267.2 867.3,267.4 867.4,270.5 867.5,269.9 867.5,269.0 867.6,267.7 867.7,266.9 867.7,266.2 867.8,264.6 867.9,265.7 868.0,263.9 868.0,266.6 868.1,266.1 868.2,265.0 868.2,264.0 868.3,262.9 868.3,260.7 868.4,262.8 868.5,260.2 868.6,258.2 868.7,261.4 868.8,262.5 868.8,261.6 868.9,259.0 869.0,259.4 869.2,258.0 869.3,256.9 869.4,258.1 869.5,260.0 869.6,260.4 869.8,258.2 869.8,260.1 869.8,261.9 869.8,258.6 870.0,259.1 870.0,261.4 870.0,262.7 870.1,261.4 870.2,260.8 870.3,257.4 870.3,260.3 870.4,258.6 870.5,259.9 870.6,258.1 870.7,257.6 870.7,256.1 870.7,258.9 870.7,261.3 870.7,259.7 870.8,258.5 871.0,259.0 871.0,257.9 871.0,256.9 871.1,256.2 871.2,257.9 871.3,257.5 871.3,257.5 871.4,258.4 871.6,254.1 871.6,254.3 871.8,253.5 871.9,252.9 872.0,253.4 872.0,253.0 872.2,252.6 872.3,251.4 872.3,250.8 872.4,253.0 872.5,254.6 872.5,254.1 872.6,253.9 872.7,252.3 872.8,253.7 872.8,254.3 872.9,253.8 873.0,252.9 873.1,254.6 873.2,255.9 873.2,255.6 873.2,256.7 873.4,254.5 873.4,253.7 873.5,255.3 873.5,255.6 873.5,255.2 873.5,253.8 873.6,254.7 873.6,252.0 873.6,253.4 873.7,253.4 873.8,252.9 873.9,252.8 874.0,251.6 874.0,252.3 874.1,251.0 874.1,253.9 874.1,252.5 874.3,254.6 874.4,253.7 874.5,253.0 874.6,249.6 874.7,250.0 874.8,248.1 874.9,247.8 875.0,249.6 875.1,250.2 875.2,250.5 875.2,250.5 875.2,252.3 875.2,252.8 875.3,251.7 875.4,253.1 875.5,254.6 875.5,256.5 875.6,253.0 875.7,250.2 875.9,252.2 876.0,256.0 876.2,254.4 876.3,253.8 876.4,252.0 876.5,250.5 876.6,253.3 876.7,253.7 876.9,255.8 877.1,253.8 877.2,250.2 877.2,250.2 877.3,249.3 877.4,250.3 877.5,251.1 877.6,253.2 877.7,252.7 877.8,250.7 878.0,253.8 878.2,255.2 878.3,252.7 878.4,253.9 878.5,255.3 878.7,257.8 878.8,256.6 878.9,257.9 879.0,258.6 879.2,259.1 879.3,259.5 879.3,260.5 879.4,259.5 879.5,258.0 879.5,260.5 879.5,259.6 879.6,260.1 879.6,259.8 879.7,259.8 879.8,259.6 879.8,259.3 879.8,259.4 879.9,258.5 879.9,258.7 880.0,258.7 880.0,258.7 880.1,261.3 880.1,258.7 880.2,257.7 880.2,257.8 880.4,260.7 880.6,260.5 880.7,260.9 880.9,258.8 881.0,259.4 881.3,259.6 881.4,257.9 881.7,255.7 881.9,255.9 882.0,255.4 882.2,257.9 882.3,256.5 882.5,255.5 882.8,255.9 882.9,256.5 883.0,254.3 883.1,252.3 883.2,251.3 883.3,250.7 883.4,251.1 883.5,251.2 883.6,253.1 883.7,252.9 883.9,251.3 884.2,250.0 884.4,249.5 884.5,251.1 884.7,252.2 884.7,251.3 884.9,251.3 885.0,253.4 885.0,253.2 885.2,252.8 885.3,250.2 885.3,246.7 885.3,244.1 885.3,241.7 885.3,250.5 885.4,250.6 885.5,250.7 885.6,248.4 885.7,248.8 885.9,249.3 886.0,247.6 886.1,246.1 886.2,247.4 886.3,247.9 886.4,246.3 886.5,246.4 886.5,246.2 886.6,246.4 886.8,246.2 886.9,246.4 887.1,246.6 887.2,245.2 887.2,246.6 887.4,243.2 887.6,242.5 887.7,241.6 887.8,240.6 888.0,239.7 888.1,236.7 888.1,234.5 888.2,237.2 888.2,237.3 888.3,237.7 888.4,238.3 888.4,238.5 888.4,237.6 888.5,240.0 888.5,239.2 888.6,237.1 888.8,238.1 888.9,237.7 889.0,237.6 889.1,237.1 889.1,237.6 889.3,239.8 889.5,235.4 889.6,235.5 889.7,238.7 889.8,239.5 889.9,238.8 890.1,239.2 890.1,240.7 890.2,241.4 890.4,240.9 890.5,239.8 890.6,240.9 890.7,239.7 890.8,238.7 890.9,239.8 891.0,236.9 891.1,237.0 891.2,236.1 891.2,236.3 891.3,236.9 891.5,235.8 891.6,235.0 891.6,235.4 891.8,235.6 891.9,236.7 892.0,236.4 892.1,237.8 892.2,238.3 892.2,238.8 892.3,237.9 892.3,235.9 892.3,235.8 892.4,237.7 892.5,236.7 892.6,235.1 892.7,236.2 892.8,237.3 893.0,237.0 893.2,237.4 893.4,236.4 893.5,236.3 893.6,236.7 893.7,236.8 893.8,236.9 894.0,237.3 894.2,235.4 894.3,232.4 894.4,235.1 894.6,235.0 894.8,236.2 895.0,235.9 895.2,234.3 895.4,232.1 895.5,232.6 895.8,232.8 895.9,232.6 896.0,232.2 896.1,232.2 896.3,233.1 896.6,233.5 896.8,234.2 897.0,231.5 897.2,230.5 897.3,229.5 897.5,225.4 897.5,222.8 897.7,222.8 897.8,221.1 897.8,223.3 897.8,226.0 897.9,227.8 897.9,226.4 898.0,227.3 898.0,228.0 898.1,226.1 898.1,225.6 898.2,225.9 898.4,227.2 898.4,228.2 898.5,228.7 898.6,228.1 898.7,229.2 899.0,228.1 899.3,229.4 899.5,231.2 899.8,231.4 899.9,231.3 899.9,235.1 900.0,234.3 900.1,233.1 900.1,234.0 900.2,234.5 900.2,235.4 900.3,236.1 900.3,235.4 900.4,235.5 900.4,234.8 900.5,234.8 900.6,234.0 900.7,233.7 901.0,233.7 901.2,234.4 901.4,234.6 901.5,235.3 901.7,234.4 901.9,234.9 901.9,232.8 902.0,232.6 902.2,232.8 902.5,232.4 902.6,231.3 902.7,232.6 902.8,231.6 902.9,232.1 903.1,230.8 903.3,230.7 903.5,230.7 903.7,230.3 903.8,231.3 903.9,231.8 904.0,231.2 904.2,231.3 904.3,230.8 904.4,230.6 904.5,230.1 904.6,229.5 904.9,231.5 905.0,231.7 905.1,231.9 905.2,232.4 905.3,233.7 905.3,233.9 905.5,233.8 905.7,233.5 905.8,233.0 906.0,233.4 906.3,232.5 906.6,231.7 906.7,232.2 906.7,231.8 906.8,230.2 906.9,228.6 907.0,228.5 907.1,228.7 907.2,227.1 907.3,227.7 907.5,228.3 907.6,228.5 907.7,227.9 907.9,225.9 908.0,226.0 908.2,225.6 908.2,226.0 908.2,227.8 908.3,226.5 908.4,223.7 908.6,221.6 908.7,222.5 908.9,222.6 909.0,224.2 909.0,222.8 909.1,222.0 909.2,222.2 909.2,222.4 909.3,220.9 909.4,222.2 909.5,221.6 909.6,221.7 909.8,220.3 910.0,219.3 910.1,218.2 910.3,218.4 910.4,216.4 910.4,216.6 910.5,215.6 910.6,214.6 910.7,215.7 910.8,217.1 910.9,216.8 911.0,217.0 911.1,217.0 911.1,214.9 911.1,217.3 911.2,218.1 911.3,217.6 911.4,217.1 911.5,216.8 911.6,217.5 911.7,217.2 911.8,216.4 912.0,214.5 912.2,212.8 912.4,215.0 912.5,216.0 912.6,213.2 912.7,212.3 912.8,212.2 912.9,212.5 913.0,211.2 913.2,211.3 913.2,212.3 913.3,212.4 913.4,211.9 913.5,211.8 913.6,212.3 913.6,212.3 913.7,211.7 913.7,209.0 913.8,208.7 913.9,207.3 914.0,207.3 914.2,202.7 914.3,206.2 914.3,210.2 914.4,206.8 914.5,206.1 914.5,207.9 914.6,208.0 914.8,208.6 914.8,207.1 914.9,207.2 915.0,204.3 915.1,206.2 915.2,207.1 915.4,207.7 915.5,207.7 915.6,208.0 915.8,206.9 915.9,208.7 916.0,208.2 916.2,207.4 916.3,206.7 916.3,205.5 916.4,207.4 916.5,209.7 916.6,209.1 916.8,208.1 916.9,207.6 917.0,209.8 917.1,209.6 917.4,208.2 917.5,208.4 917.7,208.6 918.0,209.4 918.1,211.0 918.3,209.8 918.5,207.1 918.5,205.9 918.6,207.1 918.7,206.6 918.9,206.1 919.0,205.7 919.2,205.6 919.3,206.1 919.5,207.8 919.6,207.7 919.8,207.5 919.8,206.6 919.9,206.7 920.1,207.0 920.2,206.8 920.3,204.1 920.4,204.7 920.4,202.7 920.5,202.9 920.5,202.7 920.5,202.4 920.6,202.1 920.7,201.6 920.8,201.1 920.9,200.6 921.0,201.0 921.0,200.4 921.0,200.9 921.1,201.3 921.1,199.8 921.2,199.9 921.3,200.5 921.3,200.9 921.3,200.2 921.4,199.9 921.5,199.6 921.5,200.8 921.6,200.3 921.6,200.2 921.6,200.7 921.7,200.1 921.7,200.9 921.8,201.9 921.9,201.0 922.1,201.5 922.2,201.4 922.3,201.3 922.4,200.2 922.6,197.7 922.7,198.1 922.9,198.3 923.0,198.3 923.2,197.9 923.4,199.0 923.5,197.0 923.7,195.8 923.9,197.3 924.0,195.9 924.1,194.6 924.2,194.0 924.3,193.3 924.4,194.5 924.6,195.7 924.7,194.5 924.8,194.7 925.0,195.2 925.1,195.9 925.2,197.8 925.3,197.5 925.6,198.9 925.7,200.6 925.8,200.6 925.9,199.5 925.9,200.0 926.1,201.8 926.3,201.7 926.4,202.8 926.5,202.1 926.6,202.6 926.9,203.2 927.0,203.7 927.0,204.4 927.1,204.6 927.3,205.5 927.5,203.2 927.5,204.6 927.6,205.1 927.7,206.9 927.8,208.5 928.1,208.9 928.1,207.6 928.3,208.9 928.5,208.5 928.7,209.6 928.9,210.5 929.1,209.9 929.3,209.4 929.3,210.1 929.5,212.1 929.7,211.7 930.0,211.2 930.2,211.3 930.4,212.1 930.5,211.2 930.7,212.7 930.9,213.9 931.0,212.5 931.1,213.3 931.3,215.7 931.5,215.7 931.7,215.8 931.8,216.3 932.0,216.2 932.1,216.3 932.3,217.9 932.5,219.0 932.7,215.5 932.8,215.3 933.1,215.0 933.3,213.9 933.5,215.0 933.8,214.9 934.0,215.0" fill="none" stroke="#d97706" stroke-width="1.2" stroke-linejoin="round" opacity="0.6"/><text x="942" y="472.0" text-anchor="start" font-size="11" fill="#d97706">0.00</text><text x="942" y="396.0" text-anchor="start" font-size="11" fill="#d97706">0.01</text><text x="942" y="320.0" text-anchor="start" font-size="11" fill="#d97706">0.02</text><text x="942" y="244.0" text-anchor="start" font-size="11" fill="#d97706">0.02</text><text x="942" y="168.0" text-anchor="start" font-size="11" fill="#d97706">0.03</text><text x="942" y="92.0" text-anchor="start" font-size="11" fill="#d97706">0.03</text><text x="942" y="80.0" text-anchor="start" font-size="11" font-weight="600" fill="#d97706">price</text>
  <polygon points="464.5,468.0 464.5,447.1 464.5,445.7 612.0,446.2 626.1,444.4 631.9,443.1 635.9,443.5 647.2,444.1 763.0,441.8 772.6,442.3 784.3,442.9 822.0,443.7 824.7,440.5 824.8,441.0 826.8,439.2 826.9,437.9 826.9,438.3 828.4,436.6 834.7,435.3 834.9,434.0 835.1,432.7 835.1,433.1 835.2,431.4 835.2,430.0 835.5,430.5 835.6,428.7 835.6,429.2 835.6,429.8 835.6,430.6 835.7,427.4 835.7,427.9 835.7,428.5 835.7,429.2 835.7,430.3 835.7,430.7 835.7,431.3 835.8,432.1 835.8,429.0 835.8,427.7 835.8,428.2 835.9,426.4 836.3,426.9 836.3,425.1 836.3,423.8 836.3,422.4 836.3,422.9 836.3,421.1 836.3,419.8 836.3,420.3 836.3,418.5 836.3,418.9 836.3,419.5 836.3,420.3 836.3,421.4 836.3,421.8 836.3,422.4 836.3,423.2 836.5,424.2 836.6,424.7 836.6,422.9 836.7,423.4 836.7,424.0 836.7,424.8 836.7,425.9 836.8,426.3 836.9,426.9 836.9,427.7 836.9,428.7 836.9,429.2 837.0,427.4 837.1,426.1 837.1,426.6 837.1,427.2 837.1,428.0 837.1,429.1 837.1,429.5 837.1,430.1 837.4,427.8 837.4,428.2 837.4,428.8 837.5,429.6 837.5,430.7 837.5,431.2 837.5,431.8 837.5,432.6 837.5,433.6 837.5,432.3 837.5,432.7 837.5,433.3 837.6,434.1 837.6,435.2 837.6,435.7 837.8,433.9 837.9,434.3 838.0,432.6 838.0,433.0 838.0,433.6 838.0,434.4 838.0,435.5 838.0,436.0 838.0,434.2 838.0,434.6 838.0,432.9 838.0,433.3 838.0,433.9 838.0,431.6 838.0,432.0 838.0,432.6 838.1,433.5 838.1,430.3 838.1,429.0 838.1,429.4 838.1,427.7 838.1,426.3 838.1,426.8 838.1,425.0 838.1,425.5 838.1,423.7 838.1,422.4 838.1,422.9 838.1,421.1 838.1,421.6 838.1,419.8 838.1,420.3 838.2,420.9 838.2,421.7 838.2,418.5 838.2,417.2 838.2,417.6 838.2,418.2 838.2,419.0 838.2,415.9 838.2,414.6 838.2,415.0 838.2,413.2 838.2,411.9 838.2,410.6 838.2,411.0 838.2,409.2 838.2,409.7 838.2,408.0 838.2,406.6 838.2,405.3 838.2,405.8 838.2,404.0 838.2,404.5 838.2,402.8 838.2,403.2 838.2,401.4 838.3,400.1 838.3,400.6 838.3,398.8 838.3,397.5 838.3,397.9 838.3,396.2 838.3,396.6 838.3,397.2 838.3,398.0 838.3,399.1 838.3,397.8 838.4,396.5 838.4,395.2 838.4,395.6 838.4,396.2 838.4,393.9 838.5,392.6 838.5,393.0 838.5,393.6 838.5,394.5 838.5,391.3 838.5,390.0 838.5,390.4 838.5,388.7 838.5,389.2 838.5,387.4 838.5,387.8 838.5,386.1 838.5,384.7 838.5,385.2 838.5,383.5 838.6,382.1 838.6,382.6 838.6,383.2 838.6,384.0 838.6,385.0 838.6,383.7 838.6,384.2 838.6,382.4 838.6,382.9 838.6,383.5 838.6,384.3 838.7,381.1 838.7,381.6 838.7,382.2 838.7,379.8 838.7,380.3 838.7,380.9 838.7,378.5 838.7,377.2 838.7,375.9 838.8,376.3 838.8,374.6 838.8,375.0 838.8,373.3 838.8,373.7 838.8,372.0 838.8,370.6 838.8,371.1 838.8,369.3 838.8,368.0 838.8,368.4 838.8,369.0 838.8,366.7 838.8,367.2 838.8,365.4 838.9,365.8 838.9,364.1 838.9,364.5 838.9,362.7 838.9,361.4 838.9,360.1 838.9,358.8 838.9,359.3 838.9,357.5 838.9,358.0 838.9,358.5 838.9,356.2 838.9,354.9 838.9,355.3 838.9,353.6 838.9,354.0 838.9,354.6 838.9,355.4 838.9,352.3 838.9,352.8 839.0,351.0 839.0,351.4 839.1,352.0 839.1,352.8 839.1,349.7 839.1,350.2 839.1,348.4 839.1,348.9 839.1,347.1 839.1,347.5 839.1,348.1 839.2,348.9 839.2,350.0 839.2,350.5 839.2,351.1 839.2,348.7 839.2,347.4 839.2,346.1 839.2,344.8 839.2,343.5 839.2,342.2 839.2,342.6 839.2,340.9 839.2,341.3 839.2,339.5 839.2,340.0 839.2,340.6 839.2,341.4 839.2,342.5 839.3,341.2 839.3,341.6 839.3,339.9 839.3,340.3 839.3,340.9 839.3,341.7 839.3,342.8 839.3,341.5 839.3,341.9 839.3,340.1 839.4,340.6 839.4,338.9 839.4,337.5 839.4,336.2 839.4,334.9 839.4,335.4 839.4,333.6 839.4,334.0 839.4,334.6 839.4,332.3 839.4,332.7 839.4,331.0 839.4,331.4 839.4,329.7 839.4,330.1 839.4,328.4 839.5,327.0 839.5,327.5 839.5,325.7 839.5,326.2 839.5,326.8 839.5,327.6 839.5,328.7 839.5,329.1 839.6,329.7 839.7,327.4 839.7,327.8 839.7,328.4 839.7,326.1 839.7,324.8 839.7,323.5 839.7,322.1 839.7,322.6 839.7,323.2 839.7,324.0 839.7,325.0 839.8,323.7 839.8,322.3 839.8,321.0 839.8,319.7 839.8,318.4 839.8,317.1 839.8,315.8 839.8,316.2 839.8,314.4 839.8,314.9 839.8,315.5 839.8,313.1 839.8,311.8 839.9,310.5 840.0,309.2 840.0,309.6 840.0,310.2 840.0,311.0 840.0,312.1 840.0,312.5 840.0,313.1 840.0,313.9 840.0,310.8 840.0,311.2 840.0,309.5 840.0,309.9 840.0,308.2 840.0,306.8 840.1,307.3 840.1,305.5 840.1,304.2 840.1,304.7 840.1,302.9 840.1,303.4 840.2,301.6 840.2,302.1 840.3,300.3 840.3,300.8 840.4,299.0 840.4,299.5 840.4,300.1 840.4,297.7 840.4,296.4 840.4,295.1 840.4,295.6 840.4,293.8 840.4,294.3 840.4,292.5 840.4,293.0 840.4,293.6 840.4,291.2 840.5,291.6 840.5,289.9 840.5,290.3 840.5,288.5 840.5,289.0 840.5,289.6 840.5,287.2 840.5,287.7 840.5,285.9 840.5,284.6 840.5,285.1 840.5,285.6 840.5,283.3 840.5,282.0 840.5,282.4 840.5,280.7 840.6,279.4 840.6,279.8 840.6,278.1 840.6,276.7 840.6,277.2 840.6,275.4 840.6,275.9 840.6,276.5 840.6,277.3 840.6,274.1 840.6,272.8 840.6,273.3 840.6,271.5 840.6,270.2 840.6,268.8 840.7,269.3 840.7,267.5 840.7,266.2 840.7,266.7 840.7,264.9 840.7,265.4 840.7,263.6 840.7,264.1 840.7,264.7 840.7,265.5 840.7,266.5 840.7,265.2 840.7,265.7 840.7,266.2 840.8,267.0 840.8,263.9 840.8,264.4 840.8,265.0 840.8,262.6 840.8,263.1 840.8,261.3 840.9,260.0 840.9,260.5 840.9,258.7 841.0,257.4 841.0,257.8 841.0,258.4 841.0,259.2 841.1,260.3 841.1,259.0 841.1,259.5 841.1,257.7 841.2,258.2 841.3,256.4 841.3,256.9 841.3,257.5 841.4,255.1 841.4,253.8 841.4,254.2 841.4,252.5 841.4,252.9 841.5,253.5 841.5,251.2 841.5,249.9 841.5,250.4 841.5,250.9 841.5,251.7 841.5,252.8 841.5,251.5 841.5,251.9 841.5,252.5 841.6,253.4 841.6,250.2 841.7,248.9 841.7,249.3 841.7,247.6 841.7,248.0 841.7,246.2 841.7,244.9 841.7,243.6 841.7,244.1 841.7,242.3 841.8,241.0 841.8,239.7 841.8,238.4 841.8,237.1 841.8,237.5 841.8,238.1 841.8,238.9 841.8,240.0 841.8,238.6 841.8,237.3 841.8,236.0 841.8,234.7 841.8,235.1 841.9,233.4 841.9,233.8 841.9,232.1 841.9,230.7 842.0,229.4 842.0,229.8 842.0,230.4 842.0,228.1 842.0,226.8 842.0,227.2 842.0,225.5 842.0,224.2 842.1,224.6 842.1,225.2 842.1,226.0 842.1,222.9 842.1,223.3 842.1,223.9 842.1,224.7 842.1,225.8 842.1,224.5 842.1,224.9 842.1,225.5 842.1,226.3 842.1,227.4 842.2,227.9 842.2,226.1 842.2,224.8 842.2,225.2 842.2,223.5 842.2,223.9 842.2,224.5 842.2,222.2 842.2,222.6 842.3,223.2 842.3,224.0 842.3,225.1 842.3,223.8 842.3,224.2 842.4,222.5 842.4,222.9 842.4,223.5 842.4,224.3 842.4,225.4 842.4,225.8 842.4,226.4 842.4,227.2 842.4,228.3 842.5,228.7 842.6,229.3 842.6,230.1 842.6,231.2 842.6,229.9 842.7,230.3 842.7,230.9 842.7,228.6 842.7,229.0 842.8,229.6 842.8,230.4 842.8,231.5 842.8,232.0 842.8,232.6 842.8,233.4 842.8,234.5 842.8,234.9 842.8,235.5 842.8,236.3 842.8,237.4 842.9,237.8 842.9,238.5 842.9,239.3 842.9,240.3 842.9,239.0 842.9,237.7 842.9,238.2 842.9,238.8 842.9,236.4 843.0,235.1 843.0,235.5 843.0,233.8 843.0,234.2 843.0,234.8 843.0,235.6 843.0,236.7 843.1,235.4 843.1,234.1 843.1,234.5 843.1,232.8 843.1,231.5 843.2,230.2 843.2,228.8 843.2,229.3 843.2,229.9 843.2,230.7 843.3,231.8 843.3,232.2 843.4,232.8 843.4,233.6 843.4,230.5 843.6,231.0 843.6,231.5 843.6,229.2 843.6,229.7 843.6,227.9 843.6,228.4 843.6,228.9 843.6,226.6 843.6,225.3 843.6,224.0 843.6,222.6 843.6,223.1 843.9,221.3 843.9,221.8 843.9,222.4 843.9,220.1 843.9,218.7 844.0,219.2 844.0,217.4 844.0,217.8 844.0,216.1 844.0,216.6 844.0,214.8 844.0,215.2 844.0,213.5 844.1,213.9 844.1,212.2 844.1,210.9 844.1,211.3 844.2,209.5 844.2,210.0 844.2,208.2 844.2,208.7 844.2,206.9 844.2,205.6 844.3,204.3 844.5,203.0 844.5,203.4 844.5,201.7 844.5,202.1 844.5,200.4 844.5,200.8 844.5,199.1 844.6,199.5 844.6,200.1 844.6,197.8 844.6,196.5 844.6,196.9 844.6,197.5 844.6,195.1 844.6,193.8 844.6,194.3 844.6,194.9 844.6,195.7 844.6,196.8 844.6,197.2 844.6,197.8 844.6,198.6 844.6,199.7 844.7,198.4 844.7,197.1 844.7,197.5 844.8,195.7 844.8,194.4 844.8,194.9 844.8,195.5 844.8,196.3 844.8,197.4 844.8,196.0 844.8,196.5 844.8,197.1 844.8,197.9 844.9,194.7 844.9,195.2 844.9,195.8 844.9,193.4 844.9,193.9 844.9,194.5 844.9,195.3 845.0,192.2 845.0,192.6 845.0,190.9 845.0,189.6 845.1,190.0 845.1,188.3 845.1,188.7 845.1,186.9 845.1,187.4 845.1,188.0 845.1,188.8 845.2,185.7 845.3,184.3 845.3,184.8 845.4,183.0 845.5,183.5 845.5,184.1 845.5,184.8 845.5,185.9 845.6,184.6 845.7,183.2 845.7,181.9 845.7,182.4 845.7,180.6 845.7,179.3 845.7,179.7 845.7,180.3 845.7,181.1 845.8,182.2 845.8,182.7 845.8,180.9 845.8,179.6 846.2,178.2 846.3,178.7 846.3,179.3 846.4,177.0 846.4,177.4 846.5,178.0 846.5,178.8 846.5,175.7 846.5,174.3 846.6,174.8 846.6,175.4 846.6,176.2 846.6,177.2 846.6,177.7 846.6,178.3 846.6,179.0 846.6,176.0 846.6,174.7 846.6,173.3 846.7,173.8 846.7,172.0 846.7,172.4 846.7,173.0 846.7,170.7 846.8,169.4 846.8,168.1 846.8,168.5 846.8,169.1 846.8,166.8 846.8,167.2 846.8,165.4 846.8,165.9 846.9,164.2 846.9,164.6 846.9,165.2 846.9,166.0 846.9,167.0 846.9,167.5 846.9,165.7 846.9,164.4 846.9,164.9 846.9,165.4 846.9,163.1 846.9,163.6 847.0,161.8 847.0,162.3 847.0,162.9 847.0,163.7 847.0,164.7 847.0,163.4 847.0,163.9 847.1,162.1 847.1,162.5 847.1,163.2 847.1,160.8 847.1,161.2 847.1,161.8 847.1,162.6 847.1,159.5 847.2,160.0 847.2,158.2 847.2,156.9 847.2,155.6 847.2,154.3 847.2,154.7 847.2,152.9 847.2,151.6 847.2,152.1 847.2,152.7 847.2,153.5 847.3,150.3 847.3,150.8 847.3,151.4 847.3,149.0 847.3,149.5 847.3,150.0 847.3,150.8 847.3,151.9 847.4,150.6 847.4,151.0 847.4,151.6 847.4,152.5 847.4,149.3 847.4,149.8 847.4,148.0 847.4,148.4 847.4,146.7 847.4,147.1 847.4,147.7 847.4,145.3 847.4,145.8 847.4,146.4 847.4,147.2 847.5,148.3 847.5,147.0 847.5,147.4 847.5,145.6 847.5,146.1 847.5,146.7 847.5,147.5 847.5,148.5 847.6,147.2 847.6,147.6 847.6,145.9 847.6,146.3 847.6,147.0 847.6,144.6 847.6,143.3 847.6,141.9 847.6,142.4 847.6,143.0 847.6,140.7 847.6,141.1 847.6,139.3 847.6,139.8 847.6,140.4 847.6,141.2 847.6,138.1 847.6,136.8 847.7,137.2 847.7,137.8 847.7,138.6 847.7,139.7 847.7,138.4 847.7,138.9 847.7,139.4 847.8,140.2 847.8,141.3 847.8,141.7 847.8,142.4 847.8,143.2 847.8,144.2 847.8,142.9 847.8,141.6 847.9,142.1 847.9,142.7 847.9,143.5 847.9,144.5 847.9,145.0 847.9,145.6 847.9,146.4 847.9,147.4 847.9,147.9 847.9,146.1 848.1,146.6 848.1,144.8 848.1,143.5 848.1,142.2 848.1,142.7 848.1,140.9 848.1,141.3 848.1,141.9 848.2,142.7 848.2,143.8 848.2,144.3 848.2,144.9 848.2,142.5 848.2,141.2 848.2,139.9 848.2,138.6 848.2,137.3 848.2,136.0 848.2,134.7 848.2,133.3 848.3,132.0 848.3,132.5 848.3,133.1 848.3,133.9 848.3,135.0 848.3,133.7 848.3,132.3 848.4,131.0 848.4,131.5 848.4,132.1 848.4,129.7 848.4,128.4 848.4,128.8 848.4,129.4 848.4,130.2 848.5,131.3 848.5,130.0 848.5,130.4 848.5,128.7 848.5,127.4 848.5,127.8 848.5,126.1 848.5,126.5 848.5,124.7 848.6,123.4 848.6,123.9 848.6,124.5 848.6,125.3 848.6,122.2 848.7,122.6 848.7,123.2 848.7,124.0 848.8,125.1 848.8,125.6 848.8,123.8 848.8,124.2 848.8,124.8 848.8,125.6 848.8,126.7 848.8,127.1 848.9,125.4 848.9,124.1 849.0,122.8 849.0,123.2 849.0,123.8 849.0,124.6 849.0,125.7 849.0,124.3 849.0,123.0 849.0,121.7 849.0,122.2 849.1,120.4 849.1,120.8 849.1,121.4 849.1,122.3 849.2,123.3 849.2,123.8 849.2,122.0 849.2,120.7 849.3,119.4 849.4,119.8 849.4,120.4 849.4,121.2 849.4,122.3 849.4,122.8 849.4,121.0 849.6,119.7 849.6,120.1 849.7,120.7 849.7,121.6 849.8,118.4 849.8,118.8 849.8,119.4 849.8,120.2 849.8,121.3 849.8,121.7 849.9,122.3 849.9,123.1 850.0,120.0 850.0,120.4 850.0,121.0 850.0,121.9 850.0,122.9 850.1,123.4 850.2,121.6 850.2,122.1 850.2,122.6 850.2,123.4 850.2,124.5 850.2,123.2 850.3,123.6 850.3,121.9 850.4,122.3 850.4,122.9 850.4,123.7 850.4,124.8 850.4,125.3 850.4,125.9 850.4,126.7 850.4,127.7 850.5,128.2 850.5,126.5 850.6,125.1 850.6,125.6 850.6,126.2 850.6,127.0 850.6,123.9 850.6,124.3 850.6,122.6 850.6,121.2 850.6,121.7 850.6,122.3 850.7,123.1 850.7,124.1 850.7,122.8 850.7,121.5 850.7,120.1 850.8,120.6 850.8,121.2 850.8,122.0 850.8,118.9 850.8,119.3 850.8,119.9 850.8,120.7 850.8,121.8 850.8,120.4 850.9,120.9 850.9,121.5 851.0,122.3 851.0,123.3 851.0,123.8 851.0,122.0 851.1,122.5 851.1,123.1 851.1,123.9 851.1,125.0 851.2,125.4 851.2,126.0 851.2,126.8 851.2,127.9 851.3,126.5 851.3,127.0 851.4,125.2 851.7,125.7 851.7,126.3 851.7,127.1 851.8,128.2 851.8,126.8 851.8,127.3 851.8,127.9 851.8,128.7 851.8,129.8 851.8,130.2 851.8,130.8 851.9,131.6 852.0,132.7 852.0,133.1 852.0,133.7 852.0,134.5 852.0,135.6 852.1,134.3 852.1,134.7 852.1,135.3 852.1,136.1 852.1,133.0 852.1,133.4 852.2,134.0 852.2,134.8 852.2,131.7 852.2,132.2 852.2,130.4 852.2,130.8 852.2,131.4 852.2,132.2 852.2,133.3 852.3,131.9 852.3,130.6 852.3,131.1 852.3,129.3 852.3,129.8 852.3,128.0 852.3,128.5 852.3,126.7 852.3,127.2 852.3,127.8 852.3,125.4 852.3,125.9 852.3,124.2 852.3,122.8 852.3,121.5 852.4,122.0 852.4,120.2 852.4,118.9 852.5,119.3 852.5,119.9 852.5,120.8 852.5,117.6 852.5,118.0 852.5,118.6 852.5,119.4 852.5,120.5 852.5,119.2 852.5,119.6 852.6,120.2 852.6,121.0 852.6,122.0 852.6,122.5 852.6,123.1 852.6,123.9 852.7,120.7 852.7,121.2 852.7,121.8 852.7,122.6 852.7,123.7 852.7,122.4 852.8,121.1 852.8,119.7 852.8,120.2 852.8,120.8 852.8,118.5 852.8,118.9 852.8,119.5 852.8,120.3 852.8,121.3 852.8,121.8 852.8,120.1 852.9,120.5 852.9,121.1 852.9,121.9 853.0,118.8 853.0,119.2 853.1,119.8 853.1,117.5 853.2,116.1 853.2,116.6 853.3,117.2 853.3,118.0 853.3,119.1 853.3,119.5 853.4,120.1 853.5,120.9 853.5,122.0 853.6,122.4 853.6,123.0 854.8,120.7 854.8,119.3 854.8,118.0 854.9,118.5 854.9,119.1 854.9,119.9 854.9,120.9 854.9,121.4 854.9,122.0 854.9,122.7 855.0,123.8 855.0,124.2 855.0,124.8 855.0,125.6 855.0,126.7 855.0,127.1 855.0,127.7 855.1,128.5 855.1,129.6 855.2,130.1 855.2,130.7 855.2,131.5 855.3,132.6 855.3,133.0 855.3,133.6 855.3,134.4 855.3,131.3 855.3,129.9 855.3,128.6 855.3,127.3 855.4,127.8 855.4,128.4 855.5,129.2 855.5,130.2 855.5,128.9 855.6,129.4 855.6,130.0 855.6,130.7 855.6,131.8 855.6,132.3 855.6,132.9 855.6,133.7 855.6,134.7 856.0,133.4 856.0,132.1 856.0,132.6 856.0,133.2 856.0,134.0 856.1,135.1 856.1,133.8 856.2,132.4 856.2,132.9 856.2,133.5 856.3,134.3 856.3,135.3 856.3,135.8 856.3,136.4 856.4,137.2 856.4,138.2 856.4,138.7 856.4,139.2 856.4,140.0 856.5,141.1 856.5,141.5 856.5,142.1 856.6,142.9 856.6,144.0 856.6,142.6 856.6,141.3 856.6,140.0 856.6,140.5 856.7,141.1 856.7,141.9 856.7,142.9 856.7,143.4 856.7,144.0 856.7,141.7 856.7,140.3 856.7,140.8 856.7,139.0 856.7,137.7 856.8,138.1 856.8,138.7 856.8,139.5 856.8,140.6 856.8,141.0 856.8,141.6 856.8,142.4 856.8,143.5 856.8,142.2 856.8,142.7 856.8,143.3 856.8,144.1 856.8,145.1 856.8,145.6 856.8,146.2 856.9,147.0 856.9,143.9 856.9,144.3 856.9,142.6 856.9,143.0 856.9,141.3 856.9,141.7 856.9,142.3 856.9,143.1 856.9,144.2 856.9,144.6 856.9,145.2 856.9,146.0 856.9,147.1 856.9,147.5 856.9,148.1 856.9,148.9 857.0,150.0 857.0,150.4 857.0,148.7 857.0,147.4 857.0,147.8 857.1,148.4 857.1,149.2 857.1,146.1 857.1,146.6 857.1,144.8 857.2,143.5 857.2,142.1 857.2,140.8 857.2,141.3 857.2,141.9 857.2,139.5 857.2,138.2 857.2,136.9 857.2,135.6 857.2,134.3 857.3,132.9 857.3,133.4 857.3,134.0 857.3,134.8 857.3,135.8 857.3,136.3 857.3,136.9 857.4,137.7 857.4,138.8 857.4,139.2 857.4,139.8 857.4,140.6 857.4,141.7 857.4,142.2 857.4,142.8 857.5,143.6 857.5,144.6 857.5,145.1 857.5,145.7 857.6,143.4 857.6,143.8 857.6,142.1 857.6,142.5 857.6,140.7 857.6,139.4 857.6,139.9 857.6,140.5 857.6,141.3 857.6,142.4 857.7,141.0 857.8,141.5 857.8,142.1 857.8,142.9 857.9,144.0 857.9,144.4 857.9,145.0 858.0,142.7 858.0,143.1 858.1,143.7 858.1,144.5 858.5,145.6 858.5,146.1 858.5,146.7 858.5,144.3 858.7,143.0 858.7,143.5 858.9,144.1 859.0,141.7 859.0,142.2 859.0,140.4 859.1,140.8 859.3,141.4 859.4,142.2 859.7,139.1 859.7,139.6 861.3,137.8 861.5,136.5 861.5,136.9 861.5,137.5 861.6,138.3 861.6,139.4 861.6,139.9 861.6,140.5 861.6,141.3 861.8,142.3 862.1,142.8 862.1,143.4 862.2,144.2 862.2,145.2 862.3,145.7 862.4,146.3 862.4,147.1 862.4,148.1 863.1,148.6 863.2,146.8 863.2,145.5 863.3,144.1 863.3,144.6 863.4,145.2 865.2,142.8 865.6,143.3 865.8,143.9 866.0,141.6 866.1,140.3 866.1,140.7 866.1,141.3 866.1,142.1 866.2,139.0 866.2,137.7 866.2,138.1 866.2,136.3 866.2,136.8 866.2,137.4 866.3,135.0 866.3,135.5 866.3,133.7 866.4,132.4 866.4,132.9 866.4,133.4 866.8,134.2 866.9,135.3 866.9,135.7 866.9,136.3 867.1,134.0 867.2,132.7 867.4,131.3 867.7,131.8 868.0,132.4 868.1,133.2 868.3,130.1 868.8,128.8 868.8,129.2 869.5,129.8 869.5,130.6 869.8,131.7 870.0,132.1 870.1,132.7 870.7,130.4 870.7,129.0 870.7,129.5 871.6,127.8 871.6,128.2 872.2,128.8 872.4,129.6 872.7,130.7 874.6,131.1 874.7,131.7 874.8,132.5 875.2,133.6 875.5,134.0 875.6,134.6 876.0,135.4 876.0,136.5 877.2,137.0 877.6,137.6 879.1,135.2 879.5,135.7 879.5,136.3 880.1,137.1 880.3,138.1 881.4,138.6 883.2,136.8 885.0,135.5 885.0,136.0 885.3,134.2 885.3,134.7 886.1,135.3 888.0,132.9 888.1,133.4 888.4,134.0 888.4,134.7 888.4,135.8 888.5,136.3 888.5,136.9 889.0,137.7 889.0,138.7 889.2,139.2 889.4,139.8 890.1,140.6 891.0,141.7 892.3,142.1 892.3,142.7 897.3,140.4 897.8,139.0 897.8,139.5 899.9,137.7 899.9,138.2 901.0,138.8 901.2,139.6 901.9,140.7 905.3,141.1 906.1,141.7 908.4,139.4 909.3,139.8 912.7,138.1 914.2,136.7 918.1,135.4 918.5,134.1 921.1,134.5 926.4,135.1 929.5,132.8 929.5,468.0" fill="#16a34a" fill-opacity="0.08"/>
  <polyline points="464.5,447.1 464.5,445.7 612.0,446.2 626.1,444.4 631.9,443.1 635.9,443.5 647.2,444.1 763.0,441.8 772.6,442.3 784.3,442.9 822.0,443.7 824.7,440.5 824.8,441.0 826.8,439.2 826.9,437.9 826.9,438.3 828.4,436.6 834.7,435.3 834.9,434.0 835.1,432.7 835.1,433.1 835.2,431.4 835.2,430.0 835.5,430.5 835.6,428.7 835.6,429.2 835.6,429.8 835.6,430.6 835.7,427.4 835.7,427.9 835.7,428.5 835.7,429.2 835.7,430.3 835.7,430.7 835.7,431.3 835.8,432.1 835.8,429.0 835.8,427.7 835.8,428.2 835.9,426.4 836.3,426.9 836.3,425.1 836.3,423.8 836.3,422.4 836.3,422.9 836.3,421.1 836.3,419.8 836.3,420.3 836.3,418.5 836.3,418.9 836.3,419.5 836.3,420.3 836.3,421.4 836.3,421.8 836.3,422.4 836.3,423.2 836.5,424.2 836.6,424.7 836.6,422.9 836.7,423.4 836.7,424.0 836.7,424.8 836.7,425.9 836.8,426.3 836.9,426.9 836.9,427.7 836.9,428.7 836.9,429.2 837.0,427.4 837.1,426.1 837.1,426.6 837.1,427.2 837.1,428.0 837.1,429.1 837.1,429.5 837.1,430.1 837.4,427.8 837.4,428.2 837.4,428.8 837.5,429.6 837.5,430.7 837.5,431.2 837.5,431.8 837.5,432.6 837.5,433.6 837.5,432.3 837.5,432.7 837.5,433.3 837.6,434.1 837.6,435.2 837.6,435.7 837.8,433.9 837.9,434.3 838.0,432.6 838.0,433.0 838.0,433.6 838.0,434.4 838.0,435.5 838.0,436.0 838.0,434.2 838.0,434.6 838.0,432.9 838.0,433.3 838.0,433.9 838.0,431.6 838.0,432.0 838.0,432.6 838.1,433.5 838.1,430.3 838.1,429.0 838.1,429.4 838.1,427.7 838.1,426.3 838.1,426.8 838.1,425.0 838.1,425.5 838.1,423.7 838.1,422.4 838.1,422.9 838.1,421.1 838.1,421.6 838.1,419.8 838.1,420.3 838.2,420.9 838.2,421.7 838.2,418.5 838.2,417.2 838.2,417.6 838.2,418.2 838.2,419.0 838.2,415.9 838.2,414.6 838.2,415.0 838.2,413.2 838.2,411.9 838.2,410.6 838.2,411.0 838.2,409.2 838.2,409.7 838.2,408.0 838.2,406.6 838.2,405.3 838.2,405.8 838.2,404.0 838.2,404.5 838.2,402.8 838.2,403.2 838.2,401.4 838.3,400.1 838.3,400.6 838.3,398.8 838.3,397.5 838.3,397.9 838.3,396.2 838.3,396.6 838.3,397.2 838.3,398.0 838.3,399.1 838.3,397.8 838.4,396.5 838.4,395.2 838.4,395.6 838.4,396.2 838.4,393.9 838.5,392.6 838.5,393.0 838.5,393.6 838.5,394.5 838.5,391.3 838.5,390.0 838.5,390.4 838.5,388.7 838.5,389.2 838.5,387.4 838.5,387.8 838.5,386.1 838.5,384.7 838.5,385.2 838.5,383.5 838.6,382.1 838.6,382.6 838.6,383.2 838.6,384.0 838.6,385.0 838.6,383.7 838.6,384.2 838.6,382.4 838.6,382.9 838.6,383.5 838.6,384.3 838.7,381.1 838.7,381.6 838.7,382.2 838.7,379.8 838.7,380.3 838.7,380.9 838.7,378.5 838.7,377.2 838.7,375.9 838.8,376.3 838.8,374.6 838.8,375.0 838.8,373.3 838.8,373.7 838.8,372.0 838.8,370.6 838.8,371.1 838.8,369.3 838.8,368.0 838.8,368.4 838.8,369.0 838.8,366.7 838.8,367.2 838.8,365.4 838.9,365.8 838.9,364.1 838.9,364.5 838.9,362.7 838.9,361.4 838.9,360.1 838.9,358.8 838.9,359.3 838.9,357.5 838.9,358.0 838.9,358.5 838.9,356.2 838.9,354.9 838.9,355.3 838.9,353.6 838.9,354.0 838.9,354.6 838.9,355.4 838.9,352.3 838.9,352.8 839.0,351.0 839.0,351.4 839.1,352.0 839.1,352.8 839.1,349.7 839.1,350.2 839.1,348.4 839.1,348.9 839.1,347.1 839.1,347.5 839.1,348.1 839.2,348.9 839.2,350.0 839.2,350.5 839.2,351.1 839.2,348.7 839.2,347.4 839.2,346.1 839.2,344.8 839.2,343.5 839.2,342.2 839.2,342.6 839.2,340.9 839.2,341.3 839.2,339.5 839.2,340.0 839.2,340.6 839.2,341.4 839.2,342.5 839.3,341.2 839.3,341.6 839.3,339.9 839.3,340.3 839.3,340.9 839.3,341.7 839.3,342.8 839.3,341.5 839.3,341.9 839.3,340.1 839.4,340.6 839.4,338.9 839.4,337.5 839.4,336.2 839.4,334.9 839.4,335.4 839.4,333.6 839.4,334.0 839.4,334.6 839.4,332.3 839.4,332.7 839.4,331.0 839.4,331.4 839.4,329.7 839.4,330.1 839.4,328.4 839.5,327.0 839.5,327.5 839.5,325.7 839.5,326.2 839.5,326.8 839.5,327.6 839.5,328.7 839.5,329.1 839.6,329.7 839.7,327.4 839.7,327.8 839.7,328.4 839.7,326.1 839.7,324.8 839.7,323.5 839.7,322.1 839.7,322.6 839.7,323.2 839.7,324.0 839.7,325.0 839.8,323.7 839.8,322.3 839.8,321.0 839.8,319.7 839.8,318.4 839.8,317.1 839.8,315.8 839.8,316.2 839.8,314.4 839.8,314.9 839.8,315.5 839.8,313.1 839.8,311.8 839.9,310.5 840.0,309.2 840.0,309.6 840.0,310.2 840.0,311.0 840.0,312.1 840.0,312.5 840.0,313.1 840.0,313.9 840.0,310.8 840.0,311.2 840.0,309.5 840.0,309.9 840.0,308.2 840.0,306.8 840.1,307.3 840.1,305.5 840.1,304.2 840.1,304.7 840.1,302.9 840.1,303.4 840.2,301.6 840.2,302.1 840.3,300.3 840.3,300.8 840.4,299.0 840.4,299.5 840.4,300.1 840.4,297.7 840.4,296.4 840.4,295.1 840.4,295.6 840.4,293.8 840.4,294.3 840.4,292.5 840.4,293.0 840.4,293.6 840.4,291.2 840.5,291.6 840.5,289.9 840.5,290.3 840.5,288.5 840.5,289.0 840.5,289.6 840.5,287.2 840.5,287.7 840.5,285.9 840.5,284.6 840.5,285.1 840.5,285.6 840.5,283.3 840.5,282.0 840.5,282.4 840.5,280.7 840.6,279.4 840.6,279.8 840.6,278.1 840.6,276.7 840.6,277.2 840.6,275.4 840.6,275.9 840.6,276.5 840.6,277.3 840.6,274.1 840.6,272.8 840.6,273.3 840.6,271.5 840.6,270.2 840.6,268.8 840.7,269.3 840.7,267.5 840.7,266.2 840.7,266.7 840.7,264.9 840.7,265.4 840.7,263.6 840.7,264.1 840.7,264.7 840.7,265.5 840.7,266.5 840.7,265.2 840.7,265.7 840.7,266.2 840.8,267.0 840.8,263.9 840.8,264.4 840.8,265.0 840.8,262.6 840.8,263.1 840.8,261.3 840.9,260.0 840.9,260.5 840.9,258.7 841.0,257.4 841.0,257.8 841.0,258.4 841.0,259.2 841.1,260.3 841.1,259.0 841.1,259.5 841.1,257.7 841.2,258.2 841.3,256.4 841.3,256.9 841.3,257.5 841.4,255.1 841.4,253.8 841.4,254.2 841.4,252.5 841.4,252.9 841.5,253.5 841.5,251.2 841.5,249.9 841.5,250.4 841.5,250.9 841.5,251.7 841.5,252.8 841.5,251.5 841.5,251.9 841.5,252.5 841.6,253.4 841.6,250.2 841.7,248.9 841.7,249.3 841.7,247.6 841.7,248.0 841.7,246.2 841.7,244.9 841.7,243.6 841.7,244.1 841.7,242.3 841.8,241.0 841.8,239.7 841.8,238.4 841.8,237.1 841.8,237.5 841.8,238.1 841.8,238.9 841.8,240.0 841.8,238.6 841.8,237.3 841.8,236.0 841.8,234.7 841.8,235.1 841.9,233.4 841.9,233.8 841.9,232.1 841.9,230.7 842.0,229.4 842.0,229.8 842.0,230.4 842.0,228.1 842.0,226.8 842.0,227.2 842.0,225.5 842.0,224.2 842.1,224.6 842.1,225.2 842.1,226.0 842.1,222.9 842.1,223.3 842.1,223.9 842.1,224.7 842.1,225.8 842.1,224.5 842.1,224.9 842.1,225.5 842.1,226.3 842.1,227.4 842.2,227.9 842.2,226.1 842.2,224.8 842.2,225.2 842.2,223.5 842.2,223.9 842.2,224.5 842.2,222.2 842.2,222.6 842.3,223.2 842.3,224.0 842.3,225.1 842.3,223.8 842.3,224.2 842.4,222.5 842.4,222.9 842.4,223.5 842.4,224.3 842.4,225.4 842.4,225.8 842.4,226.4 842.4,227.2 842.4,228.3 842.5,228.7 842.6,229.3 842.6,230.1 842.6,231.2 842.6,229.9 842.7,230.3 842.7,230.9 842.7,228.6 842.7,229.0 842.8,229.6 842.8,230.4 842.8,231.5 842.8,232.0 842.8,232.6 842.8,233.4 842.8,234.5 842.8,234.9 842.8,235.5 842.8,236.3 842.8,237.4 842.9,237.8 842.9,238.5 842.9,239.3 842.9,240.3 842.9,239.0 842.9,237.7 842.9,238.2 842.9,238.8 842.9,236.4 843.0,235.1 843.0,235.5 843.0,233.8 843.0,234.2 843.0,234.8 843.0,235.6 843.0,236.7 843.1,235.4 843.1,234.1 843.1,234.5 843.1,232.8 843.1,231.5 843.2,230.2 843.2,228.8 843.2,229.3 843.2,229.9 843.2,230.7 843.3,231.8 843.3,232.2 843.4,232.8 843.4,233.6 843.4,230.5 843.6,231.0 843.6,231.5 843.6,229.2 843.6,229.7 843.6,227.9 843.6,228.4 843.6,228.9 843.6,226.6 843.6,225.3 843.6,224.0 843.6,222.6 843.6,223.1 843.9,221.3 843.9,221.8 843.9,222.4 843.9,220.1 843.9,218.7 844.0,219.2 844.0,217.4 844.0,217.8 844.0,216.1 844.0,216.6 844.0,214.8 844.0,215.2 844.0,213.5 844.1,213.9 844.1,212.2 844.1,210.9 844.1,211.3 844.2,209.5 844.2,210.0 844.2,208.2 844.2,208.7 844.2,206.9 844.2,205.6 844.3,204.3 844.5,203.0 844.5,203.4 844.5,201.7 844.5,202.1 844.5,200.4 844.5,200.8 844.5,199.1 844.6,199.5 844.6,200.1 844.6,197.8 844.6,196.5 844.6,196.9 844.6,197.5 844.6,195.1 844.6,193.8 844.6,194.3 844.6,194.9 844.6,195.7 844.6,196.8 844.6,197.2 844.6,197.8 844.6,198.6 844.6,199.7 844.7,198.4 844.7,197.1 844.7,197.5 844.8,195.7 844.8,194.4 844.8,194.9 844.8,195.5 844.8,196.3 844.8,197.4 844.8,196.0 844.8,196.5 844.8,197.1 844.8,197.9 844.9,194.7 844.9,195.2 844.9,195.8 844.9,193.4 844.9,193.9 844.9,194.5 844.9,195.3 845.0,192.2 845.0,192.6 845.0,190.9 845.0,189.6 845.1,190.0 845.1,188.3 845.1,188.7 845.1,186.9 845.1,187.4 845.1,188.0 845.1,188.8 845.2,185.7 845.3,184.3 845.3,184.8 845.4,183.0 845.5,183.5 845.5,184.1 845.5,184.8 845.5,185.9 845.6,184.6 845.7,183.2 845.7,181.9 845.7,182.4 845.7,180.6 845.7,179.3 845.7,179.7 845.7,180.3 845.7,181.1 845.8,182.2 845.8,182.7 845.8,180.9 845.8,179.6 846.2,178.2 846.3,178.7 846.3,179.3 846.4,177.0 846.4,177.4 846.5,178.0 846.5,178.8 846.5,175.7 846.5,174.3 846.6,174.8 846.6,175.4 846.6,176.2 846.6,177.2 846.6,177.7 846.6,178.3 846.6,179.0 846.6,176.0 846.6,174.7 846.6,173.3 846.7,173.8 846.7,172.0 846.7,172.4 846.7,173.0 846.7,170.7 846.8,169.4 846.8,168.1 846.8,168.5 846.8,169.1 846.8,166.8 846.8,167.2 846.8,165.4 846.8,165.9 846.9,164.2 846.9,164.6 846.9,165.2 846.9,166.0 846.9,167.0 846.9,167.5 846.9,165.7 846.9,164.4 846.9,164.9 846.9,165.4 846.9,163.1 846.9,163.6 847.0,161.8 847.0,162.3 847.0,162.9 847.0,163.7 847.0,164.7 847.0,163.4 847.0,163.9 847.1,162.1 847.1,162.5 847.1,163.2 847.1,160.8 847.1,161.2 847.1,161.8 847.1,162.6 847.1,159.5 847.2,160.0 847.2,158.2 847.2,156.9 847.2,155.6 847.2,154.3 847.2,154.7 847.2,152.9 847.2,151.6 847.2,152.1 847.2,152.7 847.2,153.5 847.3,150.3 847.3,150.8 847.3,151.4 847.3,149.0 847.3,149.5 847.3,150.0 847.3,150.8 847.3,151.9 847.4,150.6 847.4,151.0 847.4,151.6 847.4,152.5 847.4,149.3 847.4,149.8 847.4,148.0 847.4,148.4 847.4,146.7 847.4,147.1 847.4,147.7 847.4,145.3 847.4,145.8 847.4,146.4 847.4,147.2 847.5,148.3 847.5,147.0 847.5,147.4 847.5,145.6 847.5,146.1 847.5,146.7 847.5,147.5 847.5,148.5 847.6,147.2 847.6,147.6 847.6,145.9 847.6,146.3 847.6,147.0 847.6,144.6 847.6,143.3 847.6,141.9 847.6,142.4 847.6,143.0 847.6,140.7 847.6,141.1 847.6,139.3 847.6,139.8 847.6,140.4 847.6,141.2 847.6,138.1 847.6,136.8 847.7,137.2 847.7,137.8 847.7,138.6 847.7,139.7 847.7,138.4 847.7,138.9 847.7,139.4 847.8,140.2 847.8,141.3 847.8,141.7 847.8,142.4 847.8,143.2 847.8,144.2 847.8,142.9 847.8,141.6 847.9,142.1 847.9,142.7 847.9,143.5 847.9,144.5 847.9,145.0 847.9,145.6 847.9,146.4 847.9,147.4 847.9,147.9 847.9,146.1 848.1,146.6 848.1,144.8 848.1,143.5 848.1,142.2 848.1,142.7 848.1,140.9 848.1,141.3 848.1,141.9 848.2,142.7 848.2,143.8 848.2,144.3 848.2,144.9 848.2,142.5 848.2,141.2 848.2,139.9 848.2,138.6 848.2,137.3 848.2,136.0 848.2,134.7 848.2,133.3 848.3,132.0 848.3,132.5 848.3,133.1 848.3,133.9 848.3,135.0 848.3,133.7 848.3,132.3 848.4,131.0 848.4,131.5 848.4,132.1 848.4,129.7 848.4,128.4 848.4,128.8 848.4,129.4 848.4,130.2 848.5,131.3 848.5,130.0 848.5,130.4 848.5,128.7 848.5,127.4 848.5,127.8 848.5,126.1 848.5,126.5 848.5,124.7 848.6,123.4 848.6,123.9 848.6,124.5 848.6,125.3 848.6,122.2 848.7,122.6 848.7,123.2 848.7,124.0 848.8,125.1 848.8,125.6 848.8,123.8 848.8,124.2 848.8,124.8 848.8,125.6 848.8,126.7 848.8,127.1 848.9,125.4 848.9,124.1 849.0,122.8 849.0,123.2 849.0,123.8 849.0,124.6 849.0,125.7 849.0,124.3 849.0,123.0 849.0,121.7 849.0,122.2 849.1,120.4 849.1,120.8 849.1,121.4 849.1,122.3 849.2,123.3 849.2,123.8 849.2,122.0 849.2,120.7 849.3,119.4 849.4,119.8 849.4,120.4 849.4,121.2 849.4,122.3 849.4,122.8 849.4,121.0 849.6,119.7 849.6,120.1 849.7,120.7 849.7,121.6 849.8,118.4 849.8,118.8 849.8,119.4 849.8,120.2 849.8,121.3 849.8,121.7 849.9,122.3 849.9,123.1 850.0,120.0 850.0,120.4 850.0,121.0 850.0,121.9 850.0,122.9 850.1,123.4 850.2,121.6 850.2,122.1 850.2,122.6 850.2,123.4 850.2,124.5 850.2,123.2 850.3,123.6 850.3,121.9 850.4,122.3 850.4,122.9 850.4,123.7 850.4,124.8 850.4,125.3 850.4,125.9 850.4,126.7 850.4,127.7 850.5,128.2 850.5,126.5 850.6,125.1 850.6,125.6 850.6,126.2 850.6,127.0 850.6,123.9 850.6,124.3 850.6,122.6 850.6,121.2 850.6,121.7 850.6,122.3 850.7,123.1 850.7,124.1 850.7,122.8 850.7,121.5 850.7,120.1 850.8,120.6 850.8,121.2 850.8,122.0 850.8,118.9 850.8,119.3 850.8,119.9 850.8,120.7 850.8,121.8 850.8,120.4 850.9,120.9 850.9,121.5 851.0,122.3 851.0,123.3 851.0,123.8 851.0,122.0 851.1,122.5 851.1,123.1 851.1,123.9 851.1,125.0 851.2,125.4 851.2,126.0 851.2,126.8 851.2,127.9 851.3,126.5 851.3,127.0 851.4,125.2 851.7,125.7 851.7,126.3 851.7,127.1 851.8,128.2 851.8,126.8 851.8,127.3 851.8,127.9 851.8,128.7 851.8,129.8 851.8,130.2 851.8,130.8 851.9,131.6 852.0,132.7 852.0,133.1 852.0,133.7 852.0,134.5 852.0,135.6 852.1,134.3 852.1,134.7 852.1,135.3 852.1,136.1 852.1,133.0 852.1,133.4 852.2,134.0 852.2,134.8 852.2,131.7 852.2,132.2 852.2,130.4 852.2,130.8 852.2,131.4 852.2,132.2 852.2,133.3 852.3,131.9 852.3,130.6 852.3,131.1 852.3,129.3 852.3,129.8 852.3,128.0 852.3,128.5 852.3,126.7 852.3,127.2 852.3,127.8 852.3,125.4 852.3,125.9 852.3,124.2 852.3,122.8 852.3,121.5 852.4,122.0 852.4,120.2 852.4,118.9 852.5,119.3 852.5,119.9 852.5,120.8 852.5,117.6 852.5,118.0 852.5,118.6 852.5,119.4 852.5,120.5 852.5,119.2 852.5,119.6 852.6,120.2 852.6,121.0 852.6,122.0 852.6,122.5 852.6,123.1 852.6,123.9 852.7,120.7 852.7,121.2 852.7,121.8 852.7,122.6 852.7,123.7 852.7,122.4 852.8,121.1 852.8,119.7 852.8,120.2 852.8,120.8 852.8,118.5 852.8,118.9 852.8,119.5 852.8,120.3 852.8,121.3 852.8,121.8 852.8,120.1 852.9,120.5 852.9,121.1 852.9,121.9 853.0,118.8 853.0,119.2 853.1,119.8 853.1,117.5 853.2,116.1 853.2,116.6 853.3,117.2 853.3,118.0 853.3,119.1 853.3,119.5 853.4,120.1 853.5,120.9 853.5,122.0 853.6,122.4 853.6,123.0 854.8,120.7 854.8,119.3 854.8,118.0 854.9,118.5 854.9,119.1 854.9,119.9 854.9,120.9 854.9,121.4 854.9,122.0 854.9,122.7 855.0,123.8 855.0,124.2 855.0,124.8 855.0,125.6 855.0,126.7 855.0,127.1 855.0,127.7 855.1,128.5 855.1,129.6 855.2,130.1 855.2,130.7 855.2,131.5 855.3,132.6 855.3,133.0 855.3,133.6 855.3,134.4 855.3,131.3 855.3,129.9 855.3,128.6 855.3,127.3 855.4,127.8 855.4,128.4 855.5,129.2 855.5,130.2 855.5,128.9 855.6,129.4 855.6,130.0 855.6,130.7 855.6,131.8 855.6,132.3 855.6,132.9 855.6,133.7 855.6,134.7 856.0,133.4 856.0,132.1 856.0,132.6 856.0,133.2 856.0,134.0 856.1,135.1 856.1,133.8 856.2,132.4 856.2,132.9 856.2,133.5 856.3,134.3 856.3,135.3 856.3,135.8 856.3,136.4 856.4,137.2 856.4,138.2 856.4,138.7 856.4,139.2 856.4,140.0 856.5,141.1 856.5,141.5 856.5,142.1 856.6,142.9 856.6,144.0 856.6,142.6 856.6,141.3 856.6,140.0 856.6,140.5 856.7,141.1 856.7,141.9 856.7,142.9 856.7,143.4 856.7,144.0 856.7,141.7 856.7,140.3 856.7,140.8 856.7,139.0 856.7,137.7 856.8,138.1 856.8,138.7 856.8,139.5 856.8,140.6 856.8,141.0 856.8,141.6 856.8,142.4 856.8,143.5 856.8,142.2 856.8,142.7 856.8,143.3 856.8,144.1 856.8,145.1 856.8,145.6 856.8,146.2 856.9,147.0 856.9,143.9 856.9,144.3 856.9,142.6 856.9,143.0 856.9,141.3 856.9,141.7 856.9,142.3 856.9,143.1 856.9,144.2 856.9,144.6 856.9,145.2 856.9,146.0 856.9,147.1 856.9,147.5 856.9,148.1 856.9,148.9 857.0,150.0 857.0,150.4 857.0,148.7 857.0,147.4 857.0,147.8 857.1,148.4 857.1,149.2 857.1,146.1 857.1,146.6 857.1,144.8 857.2,143.5 857.2,142.1 857.2,140.8 857.2,141.3 857.2,141.9 857.2,139.5 857.2,138.2 857.2,136.9 857.2,135.6 857.2,134.3 857.3,132.9 857.3,133.4 857.3,134.0 857.3,134.8 857.3,135.8 857.3,136.3 857.3,136.9 857.4,137.7 857.4,138.8 857.4,139.2 857.4,139.8 857.4,140.6 857.4,141.7 857.4,142.2 857.4,142.8 857.5,143.6 857.5,144.6 857.5,145.1 857.5,145.7 857.6,143.4 857.6,143.8 857.6,142.1 857.6,142.5 857.6,140.7 857.6,139.4 857.6,139.9 857.6,140.5 857.6,141.3 857.6,142.4 857.7,141.0 857.8,141.5 857.8,142.1 857.8,142.9 857.9,144.0 857.9,144.4 857.9,145.0 858.0,142.7 858.0,143.1 858.1,143.7 858.1,144.5 858.5,145.6 858.5,146.1 858.5,146.7 858.5,144.3 858.7,143.0 858.7,143.5 858.9,144.1 859.0,141.7 859.0,142.2 859.0,140.4 859.1,140.8 859.3,141.4 859.4,142.2 859.7,139.1 859.7,139.6 861.3,137.8 861.5,136.5 861.5,136.9 861.5,137.5 861.6,138.3 861.6,139.4 861.6,139.9 861.6,140.5 861.6,141.3 861.8,142.3 862.1,142.8 862.1,143.4 862.2,144.2 862.2,145.2 862.3,145.7 862.4,146.3 862.4,147.1 862.4,148.1 863.1,148.6 863.2,146.8 863.2,145.5 863.3,144.1 863.3,144.6 863.4,145.2 865.2,142.8 865.6,143.3 865.8,143.9 866.0,141.6 866.1,140.3 866.1,140.7 866.1,141.3 866.1,142.1 866.2,139.0 866.2,137.7 866.2,138.1 866.2,136.3 866.2,136.8 866.2,137.4 866.3,135.0 866.3,135.5 866.3,133.7 866.4,132.4 866.4,132.9 866.4,133.4 866.8,134.2 866.9,135.3 866.9,135.7 866.9,136.3 867.1,134.0 867.2,132.7 867.4,131.3 867.7,131.8 868.0,132.4 868.1,133.2 868.3,130.1 868.8,128.8 868.8,129.2 869.5,129.8 869.5,130.6 869.8,131.7 870.0,132.1 870.1,132.7 870.7,130.4 870.7,129.0 870.7,129.5 871.6,127.8 871.6,128.2 872.2,128.8 872.4,129.6 872.7,130.7 874.6,131.1 874.7,131.7 874.8,132.5 875.2,133.6 875.5,134.0 875.6,134.6 876.0,135.4 876.0,136.5 877.2,137.0 877.6,137.6 879.1,135.2 879.5,135.7 879.5,136.3 880.1,137.1 880.3,138.1 881.4,138.6 883.2,136.8 885.0,135.5 885.0,136.0 885.3,134.2 885.3,134.7 886.1,135.3 888.0,132.9 888.1,133.4 888.4,134.0 888.4,134.7 888.4,135.8 888.5,136.3 888.5,136.9 889.0,137.7 889.0,138.7 889.2,139.2 889.4,139.8 890.1,140.6 891.0,141.7 892.3,142.1 892.3,142.7 897.3,140.4 897.8,139.0 897.8,139.5 899.9,137.7 899.9,138.2 901.0,138.8 901.2,139.6 901.9,140.7 905.3,141.1 906.1,141.7 908.4,139.4 909.3,139.8 912.7,138.1 914.2,136.7 918.1,135.4 918.5,134.1 921.1,134.5 926.4,135.1 929.5,132.8" fill="none" stroke="#16a34a" stroke-width="2" stroke-linejoin="round"/>
  <line x1="88" y1="102" x2="110" y2="102" stroke="#16a34a" stroke-width="2.5"/><text x="116" y="106" font-size="11.5" fill="#374151">equity</text><line x1="88" y1="118" x2="110" y2="118" stroke="#d97706" stroke-width="2.5" opacity="0.8"/><text x="116" y="122" font-size="11.5" fill="#374151">price</text>
  <text x="78" y="502" text-anchor="start" font-size="12" fill="#6b7280">2025-10-10</text><text x="934" y="502" text-anchor="end" font-size="12" fill="#6b7280">2025-10-10</text>
</svg>
