<svg xmlns="http://www.w3.org/2000/svg" width="1100" height="560" font-family="ui-sans-serif, system-ui, sans-serif" viewBox="0 0 1100 560"><rect width="1100" height="560" fill="#fff"/><text x="80" y="28" fill="#111827" font-size="18" font-weight="700">Zone Recovery — TIAUSDC fee-tier comparison (best setting)</text><text x="80" y="48" fill="#6b7280" font-size="12.5">lev 20 · ratio 4 · gap 20% · maxSteps 4 · maxDD 60% · random · equity per fee tier vip 0..9</text><text x="80" y="68" fill="#1d4ed8" font-size="12.5" font-weight="600">USDC margin · BNB −10%</text><line x1="80" x2="932" y1="508" y2="508" stroke="#e5e7eb" stroke-width="1"/><text x="70" y="512" fill="#6b7280" font-size="12" text-anchor="end">0.00</text><line x1="80" x2="932" y1="424" y2="424" stroke="#e5e7eb" stroke-width="1"/><text x="70" y="428" fill="#6b7280" font-size="12" text-anchor="end">50021</text><line x1="80" x2="932" y1="340" y2="340" stroke="#e5e7eb" stroke-width="1"/><text x="70" y="344" fill="#6b7280" font-size="12" text-anchor="end">100041</text><line x1="80" x2="932" y1="256" y2="256" stroke="#e5e7eb" stroke-width="1"/><text x="70" y="260" fill="#6b7280" font-size="12" text-anchor="end">150062</text><line x1="80" x2="932" y1="172" y2="172" stroke="#e5e7eb" stroke-width="1"/><text x="70" y="176" fill="#6b7280" font-size="12" text-anchor="end">200082</text><line x1="80" x2="932" y1="88" y2="88" stroke="#e5e7eb" stroke-width="1"/><text x="70" y="92" fill="#6b7280" font-size="12" text-anchor="end">250103</text><line x1="80" x2="932" y1="491.2" y2="491.2" stroke="#9ca3af" stroke-dasharray="6 4" stroke-width="1.5"/><polyline fill="none" stroke="#2563eb" stroke-linejoin="round" stroke-width="1.8" points="80 491.2 80 493.1 83.3 495.4 92.5 484.7 97.3 475.2 100 478.8 128 462.1 130.4 467.2 141 473.6 146.8 481.6 165.7 445 168 450.6 169 457.5 174.2 425.6 174.7 431.2 176.5 438.1 180.6 406.2 180.9 411.6 181.1 418.5 189 387.1 189.1 392.6 192.9 399.4 194.3 408 194.7 418.7 196.5 424.2 197.7 431 204.6 439.6 209.7 400.4 211.3 405.9 211.7 412.7 213.5 421.3 214.1 432 229.4 437.5 233.3 444.3 236 413 239.8 392.5 243.2 398.1 251.5 405.1 254.1 413.8 260.5 373.8 269.5 379.4 269.6 386.4 274.8 395.1 275.6 406 277.6 411.6 280.1 418.6 280.7 427.3 287.1 387.3 287.5 392.8 288.6 367.7 315.9 373.2 318 380 379.8 348.7 380 354.1 381.9 361 382 369.5 383.5 330.4 384.6 335.9 385.2 342.7 390.7 311.3 390.8 316.9 394 323.9 395.8 332.6 398.6 343.5 401 349.1 401.8 356.1 402.3 364.8 403.9 375.7 404.5 381.3 413.4 388.3 423.3 356.3 426.4 335.9 429.5 315.4 430.1 321 434 328 439.7 336.7 444.1 347.6 457.4 327.5 458.1 333 466.2 339.9 481.8 308.5 484.6 314.1 494.3 321.1 496.4 329.8 501.1 340.7 504.2 346.3 514.8 353.3 520.5 321.3 520.9 326.8 521.3 333.6 527.4 342.2 530.2 352.9 532.3 358.5 533.1 365.4 544.7 374.2 573.3 334.2 573.8 314.1 574 319.7 574 294.1 574 274 574 279.6 574 286.6 574.1 295.3 574.1 306.2 574.1 311.7 574.1 318.5 574.1 327.1 587.7 337.8 596.2 317.3 597.4 322.9 608.9 297.3 615 302.9 618.4 309.9 618.9 318.6 646.4 329.5 647 335.1 649 309.5 649.4 315.1 649.5 322 651.6 290.1 656.6 295.7 657.6 302.6 664.1 311.4 667.4 322.3 669.7 327.9 701.2 302.3 702.4 307.7 704.6 282.7 704.9 288.3 708 262.7 708.9 268.1 713.7 275 715.5 283.5 743.6 294.2 756.1 299.8 756.9 306.8 758 315.5 760.5 275.5 761.8 281.1 766.4 288.1 772.2 256.1 784.6 261.6 785.2 268.4 786.5 277 787 287.7 792.1 293.2 793.6 300 813.4 308.6 814.5 319.3 816.5 324.8 848.4 299.7 849.4 305.3 852.8 279.7 854.9 285.3 867.2 259.7 867.2 265.2 869.6 272.2 870 281 879.5 241 899.3 220.5 900.6 226.1 912.8 200.5 914.6 206.1 921.6 180.5 921.7 186 922.3 193 922.6 201.7 922.9 212.7 923.4 218.2 923.8 225.2 924.2 233.9 924.9 193.9 924.9 199.5 924.9 206.5 925.5 215.2 925.8 226.1 926.2 231.7 926.2 238.7 926.5 247.4 926.6 207.4 926.6 212.9 926.6 219.8 926.6 228.3 927.1 189.2 928.1 194.6 928.4 201.5 928.5 210 928.6 220.7 929 226.2 932 201.1" opacity=".9"/><polyline fill="none" stroke="#dc2626" stroke-linejoin="round" stroke-width="1.8" points="80 491.2 80 493.1 83.3 495.4 92.5 484.7 97.3 475.2 100 478.8 128 462.1 130.4 467.2 141 473.6 146.8 481.6 165.7 445 168 450.6 169 457.5 174.2 425.6 174.7 431.2 176.5 438.1 180.6 406.2 180.9 411.6 181.1 418.5 189 387.1 189.1 392.6 192.9 399.4 194.3 408 194.7 418.7 196.5 424.2 197.7 431 204.6 439.6 209.7 400.4 211.3 405.9 211.7 412.7 213.5 421.3 214.1 432 229.4 437.5 233.3 444.3 236 413 239.8 392.5 243.2 398.1 251.5 405.1 254.1 413.8 260.5 373.8 269.5 379.4 269.6 386.4 274.8 395.1 275.6 406 277.6 411.6 280.1 418.6 280.7 427.3 287.1 387.3 287.5 392.8 288.6 367.7 315.9 373.2 318 380 379.8 348.7 380 354.1 381.9 361 382 369.5 383.5 330.4 384.6 335.9 385.2 342.7 390.7 311.3 390.8 316.9 394 323.9 395.8 332.6 398.6 343.5 401 349.1 401.8 356.1 402.3 364.8 403.9 375.7 404.5 381.3 413.4 388.3 423.3 356.3 426.4 335.9 429.5 315.4 430.1 321 434 328 439.7 336.7 444.1 347.6 457.4 327.5 458.1 333 466.2 339.9 481.8 308.5 484.6 314.1 494.3 321.1 496.4 329.8 501.1 340.7 504.2 346.3 514.8 353.3 520.5 321.3 520.9 326.8 521.3 333.6 527.4 342.2 530.2 352.9 532.3 358.5 533.1 365.4 544.7 374.2 573.3 334.2 573.8 314.1 574 319.7 574 294.1 574 274 574 279.6 574 286.6 574.1 295.3 574.1 306.2 574.1 311.7 574.1 318.5 574.1 327.1 587.7 337.8 596.2 317.3 597.4 322.9 608.9 297.3 615 302.9 618.4 309.9 618.9 318.6 646.4 329.5 647 335.1 649 309.5 649.4 315.1 649.5 322 651.6 290.1 656.6 295.7 657.6 302.6 664.1 311.4 667.4 322.3 669.7 327.9 701.2 302.3 702.4 307.7 704.6 282.7 704.9 288.3 708 262.7 708.9 268.1 713.7 275 715.5 283.5 743.6 294.2 756.1 299.8 756.9 306.8 758 315.5 760.5 275.5 761.8 281.1 766.4 288.1 772.2 256.1 784.6 261.6 785.2 268.4 786.5 277 787 287.7 792.1 293.2 793.6 300 813.4 308.6 814.5 319.3 816.5 324.8 848.4 299.7 849.4 305.3 852.8 279.7 854.9 285.3 867.2 259.7 867.2 265.2 869.6 272.2 870 281 879.5 241 899.3 220.5 900.6 226.1 912.8 200.5 914.6 206.1 921.6 180.5 921.7 186 922.3 193 922.6 201.7 922.9 212.7 923.4 218.2 923.8 225.2 924.2 233.9 924.9 193.9 924.9 199.5 924.9 206.5 925.5 215.2 925.8 226.1 926.2 231.7 926.2 238.7 926.5 247.4 926.6 207.4 926.6 212.9 926.6 219.8 926.6 228.3 927.1 189.2 928.1 194.6 928.4 201.5 928.5 210 928.6 220.7 929 226.2 932 201.1" opacity=".9"/><polyline fill="none" stroke="#16a34a" stroke-linejoin="round" stroke-width="1.8" points="80 491.2 80 493.1 83.3 495.4 92.5 484.6 97.3 475 100 478.6 128 461.7 130.4 466.8 141 473.2 146.8 481.1 165.7 444.1 168 449.6 169 456.5 174.2 424.4 174.7 429.9 176.5 436.8 180.6 404.7 180.9 410.1 181.1 416.9 189 385.4 189.1 390.8 192.9 397.5 194.3 406 194.7 416.5 196.5 421.9 197.7 428.7 204.6 437.1 209.7 397.8 211.3 403.2 211.7 410 213.5 418.4 214.1 429 229.4 434.4 233.3 441.1 236 409.7 239.8 389.1 243.2 394.6 251.5 401.5 254.1 410.1 260.5 370 269.5 375.5 269.6 382.4 274.8 391 275.6 401.8 277.6 407.3 280.1 414.2 280.7 422.8 287.1 382.6 287.5 388 288.6 362.9 315.9 368.3 318 375 379.8 343.5 380 348.9 381.9 355.7 382 364.1 383.5 324.8 384.6 330.2 385.2 337 390.7 305.5 390.8 311 394 317.9 395.8 326.5 398.6 337.3 401 342.8 401.8 349.7 402.3 358.3 403.9 369.1 404.5 374.6 413.4 381.4 423.3 349.4 426.4 328.8 429.5 308.3 430.1 313.8 434 320.7 439.7 329.3 444.1 340 457.4 319.9 458.1 325.3 466.2 332.1 481.8 300.6 484.6 306.1 494.3 313 496.4 321.6 501.1 332.4 504.2 337.9 514.8 344.8 520.5 312.7 520.9 318.1 521.3 324.8 527.4 333.3 530.2 343.8 532.3 349.3 533.1 356.2 544.7 364.8 573.3 324.7 573.8 304.5 574 310 574 284.4 574 264.2 574 269.7 574 276.6 574.1 285.2 574.1 296 574.1 301.4 574.1 308.1 574.1 316.6 587.7 327.1 596.2 306.6 597.4 312.1 608.9 286.4 615 291.9 618.4 298.8 618.9 307.4 646.4 318.2 647 323.7 649 298 649.4 303.5 649.5 310.4 651.6 278.3 656.6 283.8 657.6 290.7 664.1 299.3 667.4 310.1 669.7 315.6 701.2 289.9 702.4 295.3 704.6 270.1 704.9 275.6 708 250 708.9 255.4 713.7 262.1 715.5 270.6 743.6 281.1 756.1 286.6 756.9 293.5 758 302.1 760.5 262 761.8 267.5 766.4 274.4 772.2 242.3 784.6 247.7 785.2 254.4 786.5 262.9 787 273.4 792.1 278.8 793.6 285.6 813.4 294 814.5 304.6 816.5 310 848.4 284.8 849.4 290.3 852.8 264.7 854.9 270.2 867.2 244.5 867.2 250 869.6 256.9 870 265.5 879.5 225.3 899.3 204.8 900.6 210.3 912.8 184.6 914.6 190.1 921.6 164.4 921.7 169.9 922.3 176.8 922.6 185.4 922.9 196.2 923.4 201.7 923.8 208.6 924.2 217.2 924.9 177.1 924.9 182.6 924.9 189.5 925.5 198.1 925.8 208.8 926.2 214.3 926.2 221.2 926.5 229.8 926.6 189.7 926.6 195.1 926.6 201.8 926.6 210.3 927.1 171 928.1 176.4 928.4 183.1 928.5 191.6 928.6 202.1 929 207.5 932 182.4" opacity=".9"/><polyline fill="none" stroke="#d97706" stroke-linejoin="round" stroke-width="1.8" points="80 491.2 80 493 83.3 495.3 92.5 484.5 97.3 474.9 100 478.5 128 461.4 130.4 466.5 141 472.8 146.8 480.8 165.7 443.4 168 448.8 169 455.6 174.2 423.4 174.7 428.9 176.5 435.7 180.6 403.5 180.9 408.9 181.1 415.5 189 384 189.1 389.3 192.9 396 194.3 404.4 194.7 414.8 196.5 420.1 197.7 426.8 204.6 435.2 209.7 395.7 211.3 401.1 211.7 407.8 213.5 416.1 214.1 426.6 229.4 431.9 233.3 438.6 236 407 239.8 386.4 243.2 391.9 251.5 398.7 254.1 407.2 260.5 366.9 269.5 372.4 269.6 379.2 274.8 387.7 275.6 398.4 277.6 403.8 280.1 410.6 280.7 419.1 287.1 378.9 287.5 384.2 288.6 359 315.9 364.3 318 371 379.8 339.4 380 344.8 381.9 351.5 382 359.8 383.5 320.4 384.6 325.7 385.2 332.4 390.7 300.9 390.8 306.3 394 313.1 395.8 321.6 398.6 332.3 401 337.7 401.8 344.5 402.3 353.1 403.9 363.7 404.5 369.1 413.4 376 423.3 343.8 426.4 323.2 429.5 302.6 430.1 308 434 314.8 439.7 323.4 444.1 334 457.4 313.8 458.1 319.1 466.2 325.8 481.8 294.3 484.6 299.7 494.3 306.5 496.4 315 501.1 325.7 504.2 331.1 514.8 337.9 520.5 305.8 520.9 311.1 521.3 317.8 527.4 326.1 530.2 336.6 532.3 342 533.1 348.8 544.7 357.4 573.3 317.1 573.8 296.9 574 302.3 574 276.6 574 256.4 574 261.8 574 268.6 574.1 277.2 574.1 287.8 574.1 293.1 574.1 299.8 574.1 308.2 587.7 318.6 596.2 298 597.4 303.5 608.9 277.7 615 283.2 618.4 290 618.9 298.5 646.4 309.1 647 314.6 649 288.8 649.4 294.3 649.5 301.1 651.6 268.9 656.6 274.3 657.6 281.1 664.1 289.7 667.4 300.3 669.7 305.8 701.2 280 702.4 285.3 704.6 260.1 704.9 265.6 708 239.8 708.9 245.1 713.7 251.8 715.5 260.2 743.6 270.6 756.1 276.1 756.9 282.9 758 291.4 760.5 251.1 761.8 256.6 766.4 263.4 772.2 231.2 784.6 236.5 785.2 243.2 786.5 251.6 787 262 792.1 267.4 793.6 274 813.4 282.4 814.5 292.8 816.5 298.2 848.4 272.9 849.4 278.4 852.8 252.6 854.9 258.1 867.2 232.3 867.2 237.8 869.6 244.6 870 253.1 879.5 212.8 899.3 192.2 900.6 197.7 912.8 171.9 914.6 177.4 921.6 151.6 921.7 157.1 922.3 163.9 922.6 172.4 922.9 183 923.4 188.5 923.8 195.3 924.2 203.8 924.9 163.5 924.9 169 924.9 175.8 925.5 184.3 925.8 195 926.2 200.4 926.2 207.2 926.5 215.7 926.6 175.5 926.6 180.8 926.6 187.5 926.6 195.9 927.1 156.4 928.1 161.8 928.4 168.5 928.5 176.8 928.6 187.3 929 192.6 932 167.4" opacity=".9"/><polyline fill="none" stroke="#7c3aed" stroke-linejoin="round" stroke-width="1.8" points="80 491.2 80 493 83.3 495.3 92.5 484.4 97.3 474.7 100 478.2 128 461 130.4 466.1 141 472.4 146.8 480.2 165.7 442.3 168 447.7 169 454.4 174.2 422.1 174.7 427.4 176.5 434.2 180.6 401.8 180.9 407.1 181.1 413.7 189 382 189.1 387.2 192.9 393.8 194.3 402 194.7 412.3 196.5 417.6 197.7 424.1 204.6 432.4 209.7 392.8 211.3 398 211.7 404.6 213.5 412.8 214.1 423.1 229.4 428.4 233.3 434.9 236 403.2 239.8 382.5 243.2 387.9 251.5 394.6 254.1 403 260.5 362.6 269.5 367.9 269.6 374.7 274.8 383 275.6 393.5 277.6 398.9 280.1 405.6 280.7 414 287.1 373.6 287.5 378.8 288.6 353.5 315.9 358.7 318 365.3 379.8 333.6 380 338.9 381.9 345.5 382 353.7 383.5 314.1 384.6 319.3 385.2 325.9 390.7 294.2 390.8 299.6 394 306.3 395.8 314.7 398.6 325.1 401 330.5 401.8 337.2 402.3 345.6 403.9 356.1 404.5 361.4 413.4 368.1 423.3 335.8 426.4 315.1 429.5 294.5 430.1 299.8 434 306.5 439.7 314.9 444.1 325.4 457.4 305.1 458.1 310.4 466.2 316.9 481.8 285.3 484.6 290.6 494.3 297.3 496.4 305.7 501.1 316.2 504.2 321.5 514.8 328.3 520.5 295.9 520.9 301.2 521.3 307.8 527.4 316 530.2 326.3 532.3 331.6 533.1 338.3 544.7 346.7 573.3 306.3 573.8 286 574 291.4 574 265.5 574 245.2 574 250.6 574 257.3 574.1 265.7 574.1 276.2 574.1 281.4 574.1 288 574.1 296.2 587.7 306.5 596.2 285.8 597.4 291.2 608.9 265.3 615 270.7 618.4 277.4 618.9 285.8 646.4 296.2 647 301.6 649 275.7 649.4 281.1 649.5 287.8 651.6 255.5 656.6 260.8 657.6 267.6 664.1 275.9 667.4 286.4 669.7 291.8 701.2 265.9 702.4 271.2 704.6 245.8 704.9 251.2 708 225.3 708.9 230.6 713.7 237.2 715.5 245.4 743.6 255.7 756.1 261 756.9 267.7 758 276.1 760.5 235.7 761.8 241.1 766.4 247.8 772.2 215.4 784.6 220.7 785.2 227.3 786.5 235.5 787 245.8 792.1 251 793.6 257.6 813.4 265.8 814.5 276.1 816.5 281.4 848.4 256 849.4 261.4 852.8 235.5 854.9 240.9 867.2 215 867.2 220.4 869.6 227.1 870 235.5 879.5 195 899.3 174.4 900.6 179.7 912.8 153.9 914.6 159.2 921.6 133.4 921.7 138.7 922.3 145.4 922.6 153.8 922.9 164.3 923.4 169.7 923.8 176.4 924.2 184.7 924.9 144.3 924.9 149.7 924.9 156.4 925.5 164.8 925.8 175.3 926.2 180.6 926.2 187.3 926.5 195.7 926.6 155.3 926.6 160.6 926.6 167.1 926.6 175.3 927.1 135.7 928.1 141 928.4 147.6 928.5 155.8 928.6 166.1 929 171.3 932 146" opacity=".9"/><polyline fill="none" stroke="#0891b2" stroke-linejoin="round" stroke-width="1.8" points="80 491.2 80 493 83.3 495.2 92.5 484.4 97.3 474.6 100 478.2 128 461 130.4 466 141 472.3 146.8 480.1 165.7 442.2 168 447.5 169 454.2 174.2 421.8 174.7 427.2 176.5 433.9 180.6 401.5 180.9 406.8 181.1 413.3 189 381.6 189.1 386.9 192.9 393.4 194.3 401.6 194.7 411.9 196.5 417.1 197.7 423.7 204.6 431.9 209.7 392.2 211.3 397.5 211.7 404 213.5 412.2 214.1 422.5 229.4 427.7 233.3 434.3 236 402.6 239.8 381.9 243.2 387.2 251.5 393.9 254.1 402.3 260.5 361.8 269.5 367.2 269.6 373.9 274.8 382.2 275.6 392.7 277.6 398 280.1 404.7 280.7 413.1 287.1 372.6 287.5 377.9 288.6 352.5 315.9 357.7 318 364.3 379.8 332.6 380 337.8 381.9 344.4 382 352.6 383.5 313 384.6 318.2 385.2 324.8 390.7 293 390.8 298.4 394 305.1 395.8 313.4 398.6 323.9 401 329.2 401.8 335.9 402.3 344.3 403.9 354.7 404.5 360.1 413.4 366.8 423.3 334.4 426.4 313.7 429.5 293 430.1 298.4 434 305.1 439.7 313.4 444.1 323.9 457.4 303.6 458.1 308.8 466.2 315.4 481.8 283.7 484.6 289 494.3 295.7 496.4 304.1 501.1 314.5 504.2 319.9 514.8 326.5 520.5 294.2 520.9 299.4 521.3 306 527.4 314.2 530.2 324.4 532.3 329.8 533.1 336.5 544.7 344.8 573.3 304.4 573.8 284.1 574 289.5 574 263.6 574 243.3 574 248.6 574 255.3 574.1 263.7 574.1 274.1 574.1 279.4 574.1 285.9 574.1 294.1 587.7 304.4 596.2 283.7 597.4 289 608.9 263.1 615 268.5 618.4 275.2 618.9 283.5 646.4 294 647 299.3 649 273.4 649.4 278.8 649.5 285.5 651.6 253.1 656.6 258.5 657.6 265.2 664.1 273.5 667.4 284 669.7 289.3 701.2 263.4 702.4 268.7 704.6 243.3 704.9 248.7 708 222.8 708.9 228 713.7 234.6 715.5 242.8 743.6 253 756.1 258.4 756.9 265.1 758 273.4 760.5 233 761.8 238.3 766.4 245 772.2 212.7 784.6 217.9 785.2 224.5 786.5 232.7 787 242.9 792.1 248.2 793.6 254.7 813.4 262.9 814.5 273.2 816.5 278.4 848.4 253 849.4 258.4 852.8 232.5 854.9 237.9 867.2 212 867.2 217.3 869.6 224 870 232.4 879.5 191.9 899.3 171.2 900.6 176.6 912.8 150.7 914.6 156 921.6 130.1 921.7 135.5 922.3 142.2 922.6 150.5 922.9 161 923.4 166.3 923.8 173 924.2 181.4 924.9 140.9 924.9 146.3 924.9 153 925.5 161.3 925.8 171.8 926.2 177.1 926.2 183.8 926.5 192.2 926.6 151.7 926.6 157 926.6 163.5 926.6 171.7 927.1 132.1 928.1 137.4 928.4 143.9 928.5 152.1 928.6 162.4 929 167.6 932 142.2" opacity=".9"/><polyline fill="none" stroke="#db2777" stroke-linejoin="round" stroke-width="1.8" points="80 491.2 80 493 83.3 495.2 92.5 484.4 97.3 474.6 100 478.2 128 460.9 130.4 465.9 141 472.2 146.8 480.1 165.7 442 168 447.4 169 454 174.2 421.7 174.7 427 176.5 433.7 180.6 401.3 180.9 406.6 181.1 413.1 189 381.4 189.1 386.6 192.9 393.2 194.3 401.3 194.7 411.6 196.5 416.8 197.7 423.3 204.6 431.5 209.7 391.9 211.3 397.1 211.7 403.7 213.5 411.8 214.1 422.1 229.4 427.3 233.3 433.8 236 402.1 239.8 381.4 243.2 386.7 251.5 393.4 254.1 401.8 260.5 361.3 269.5 366.6 269.6 373.3 274.8 381.6 275.6 392.1 277.6 397.4 280.1 404.1 280.7 412.4 287.1 372 287.5 377.2 288.6 351.8 315.9 357.1 318 363.6 379.8 331.9 380 337.1 381.9 343.7 382 351.8 383.5 312.2 384.6 317.4 385.2 324 390.7 292.2 390.8 297.6 394 304.3 395.8 312.6 398.6 323 401 328.4 401.8 335 402.3 343.4 403.9 353.8 404.5 359.2 413.4 365.8 423.3 333.5 426.4 312.8 429.5 292 430.1 297.4 434 304.1 439.7 312.4 444.1 322.8 457.4 302.5 458.1 307.8 466.2 314.3 481.8 282.6 484.6 287.9 494.3 294.6 496.4 302.9 501.1 313.4 504.2 318.7 514.8 325.4 520.5 293 520.9 298.2 521.3 304.8 527.4 313 530.2 323.2 532.3 328.5 533.1 335.2 544.7 343.6 573.3 303.1 573.8 282.8 574 288.1 574 262.2 574 241.9 574 247.3 574 253.9 574.1 262.3 574.1 272.7 574.1 277.9 574.1 284.5 574.1 292.7 587.7 302.9 596.2 282.2 597.4 287.5 608.9 261.6 615 267 618.4 273.6 618.9 282 646.4 292.4 647 297.7 649 271.9 649.4 277.2 649.5 283.9 651.6 251.5 656.6 256.8 657.6 263.5 664.1 271.9 667.4 282.3 669.7 287.6 701.2 261.7 702.4 267 704.6 241.6 704.9 246.9 708 221 708.9 226.3 713.7 232.8 715.5 241 743.6 251.2 756.1 256.6 756.9 263.2 758 271.6 760.5 231.1 761.8 236.5 766.4 243.1 772.2 210.8 784.6 216 785.2 222.5 786.5 230.7 787 240.9 792.1 246.2 793.6 252.7 813.4 260.9 814.5 271.1 816.5 276.4 848.4 251 849.4 256.3 852.8 230.4 854.9 235.8 867.2 209.9 867.2 215.2 869.6 221.9 870 230.2 879.5 189.8 899.3 169.1 900.6 174.4 912.8 148.5 914.6 153.8 921.6 127.9 921.7 133.3 922.3 140 922.6 148.3 922.9 158.7 923.4 164.1 923.8 170.7 924.2 179.1 924.9 138.6 924.9 144 924.9 150.6 925.5 159 925.8 169.4 926.2 174.7 926.2 181.4 926.5 189.8 926.6 149.3 926.6 154.5 926.6 161.1 926.6 169.3 927.1 129.6 928.1 134.8 928.4 141.4 928.5 149.6 928.6 159.8 929 165 932 139.7" opacity=".9"/><polyline fill="none" stroke="#65a30d" stroke-linejoin="round" stroke-width="1.8" points="80 491.2 80 493 83.3 495.2 92.5 484.4 97.3 474.6 100 478.1 128 460.8 130.4 465.9 141 472.1 146.8 480 165.7 441.8 168 447.2 169 453.8 174.2 421.4 174.7 426.7 176.5 433.4 180.6 401 180.9 406.2 181.1 412.8 189 381 189.1 386.2 192.9 392.7 194.3 400.9 194.7 411.1 196.5 416.3 197.7 422.8 204.6 431 209.7 391.3 211.3 396.5 211.7 403.1 213.5 411.2 214.1 421.4 229.4 426.6 233.3 433.2 236 401.4 239.8 380.7 243.2 386 251.5 392.7 254.1 401 260.5 360.5 269.5 365.8 269.6 372.5 274.8 380.8 275.6 391.2 277.6 396.5 280.1 403.2 280.7 411.5 287.1 371 287.5 376.2 288.6 350.8 315.9 356 318 362.5 379.8 330.8 380 336 381.9 342.5 382 350.7 383.5 311 384.6 316.2 385.2 322.8 390.7 291 390.8 296.3 394 303 395.8 311.3 398.6 321.7 401 327 401.8 333.7 402.3 342 403.9 352.4 404.5 357.7 413.4 364.4 423.3 332 426.4 311.3 429.5 290.5 430.1 295.8 434 302.5 439.7 310.8 444.1 321.2 457.4 300.9 458.1 306.1 466.2 312.6 481.8 280.9 484.6 286.2 494.3 292.9 496.4 301.2 501.1 311.6 504.2 316.9 514.8 323.6 520.5 291.2 520.9 296.4 521.3 302.9 527.4 311.1 530.2 321.3 532.3 326.6 533.1 333.2 544.7 341.6 573.3 301.1 573.8 280.8 574 286.1 574 260.2 574 239.8 574 245.2 574 251.8 574.1 260.1 574.1 270.5 574.1 275.7 574.1 282.3 574.1 290.4 587.7 300.6 596.2 279.9 597.4 285.2 608.9 259.3 615 264.6 618.4 271.3 618.9 279.6 646.4 290 647 295.3 649 269.4 649.4 274.7 649.5 281.4 651.6 249 656.6 254.3 657.6 261 664.1 269.3 667.4 279.7 669.7 285 701.2 259.1 702.4 264.3 704.6 238.9 704.9 244.2 708 218.3 708.9 223.5 713.7 230.1 715.5 238.2 743.6 248.4 756.1 253.7 756.9 260.4 758 268.7 760.5 228.2 761.8 233.5 766.4 240.2 772.2 207.8 784.6 213 785.2 219.6 786.5 227.7 787 237.9 792.1 243.1 793.6 249.7 813.4 257.8 814.5 268 816.5 273.2 848.4 247.8 849.4 253.2 852.8 227.2 854.9 232.6 867.2 206.6 867.2 212 869.6 218.6 870 226.9 879.5 186.4 899.3 165.7 900.6 171 912.8 145.1 914.6 150.4 921.6 124.5 921.7 129.9 922.3 136.5 922.6 144.8 922.9 155.2 923.4 160.5 923.8 167.2 924.2 175.5 924.9 135 924.9 140.4 924.9 147 925.5 155.3 925.8 165.7 926.2 171 926.2 177.7 926.5 186 926.6 145.5 926.6 150.7 926.6 157.3 926.6 165.4 927.1 125.7 928.1 131 928.4 137.5 928.5 145.6 928.6 155.8 929 161.1 932 135.7" opacity=".9"/><polyline fill="none" stroke="#475569" stroke-linejoin="round" stroke-width="1.8" points="80 491.2 80 493 83.3 495.2 92.5 484.3 97.3 474.6 100 478.1 128 460.8 130.4 465.8 141 472.1 146.8 479.9 165.7 441.7 168 447 169 453.7 174.2 421.3 174.7 426.6 176.5 433.2 180.6 400.8 180.9 406 181.1 412.5 189 380.8 189.1 386 192.9 392.5 194.3 400.6 194.7 410.8 196.5 416 197.7 422.5 204.6 430.7 209.7 391 211.3 396.2 211.7 402.7 213.5 410.8 214.1 421 229.4 426.2 233.3 432.7 236 400.9 239.8 380.2 243.2 385.5 251.5 392.2 254.1 400.5 260.5 360 269.5 365.3 269.6 371.9 274.8 380.2 275.6 390.6 277.6 395.9 280.1 402.5 280.7 410.8 287.1 370.3 287.5 375.5 288.6 350.1 315.9 355.3 318 361.9 379.8 330.1 380 335.3 381.9 341.8 382 349.9 383.5 310.2 384.6 315.5 385.2 322 390.7 290.2 390.8 295.5 394 302.2 395.8 310.5 398.6 320.8 401 326.1 401.8 332.8 402.3 341.1 403.9 351.5 404.5 356.8 413.4 363.4 423.3 331 426.4 310.3 429.5 289.5 430.1 294.9 434 301.5 439.7 309.8 444.1 320.2 457.4 299.8 458.1 305.1 466.2 311.6 481.8 279.8 484.6 285.1 494.3 291.8 496.4 300.1 501.1 310.4 504.2 315.7 514.8 322.4 520.5 290 520.9 295.2 521.3 301.7 527.4 309.8 530.2 320 532.3 325.3 533.1 332 544.7 340.3 573.3 299.8 573.8 279.4 574 284.7 574 258.8 574 238.5 574 243.8 574 250.4 574.1 258.7 574.1 269.1 574.1 274.3 574.1 280.8 574.1 289 587.7 299.2 596.2 278.4 597.4 283.7 608.9 257.8 615 263.1 618.4 269.8 618.9 278.1 646.4 288.4 647 293.8 649 267.8 649.4 273.1 649.5 279.8 651.6 247.4 656.6 252.7 657.6 259.3 664.1 267.6 667.4 278 669.7 283.3 701.2 257.4 702.4 262.6 704.6 237.2 704.9 242.5 708 216.6 708.9 221.8 713.7 228.3 715.5 236.4 743.6 246.6 756.1 251.9 756.9 258.6 758 266.9 760.5 226.4 761.8 231.7 766.4 238.3 772.2 205.9 784.6 211.1 785.2 217.6 786.5 225.8 787 235.9 792.1 241.2 793.6 247.7 813.4 255.8 814.5 266 816.5 271.2 848.4 245.8 849.4 251.1 852.8 225.2 854.9 230.5 867.2 204.5 867.2 209.9 869.6 216.5 870 224.8 879.5 184.3 899.3 163.6 900.6 168.9 912.8 142.9 914.6 148.3 921.6 122.3 921.7 127.6 922.3 134.3 922.6 142.6 922.9 153 923.4 158.3 923.8 164.9 924.2 173.2 924.9 132.7 924.9 138 924.9 144.7 925.5 153 925.8 163.3 926.2 168.7 926.2 175.3 926.5 183.6 926.6 143.1 926.6 148.3 926.6 154.8 926.6 162.9 927.1 123.2 928.1 128.4 928.4 135 928.5 143.1 928.6 153.3 929 158.5 932 133.1" opacity=".9"/><polyline fill="none" stroke="#ea580c" stroke-linejoin="round" stroke-width="1.8" points="80 491.2 80 493 83.3 495.2 92.5 484.3 97.3 474.5 100 478.1 128 460.7 130.4 465.7 141 472 146.8 479.8 165.7 441.5 168 446.8 169 453.4 174.2 421 174.7 426.3 176.5 432.9 180.6 400.5 180.9 405.7 181.1 412.2 189 380.4 189.1 385.6 192.9 392.1 194.3 400.2 194.7 410.4 196.5 415.6 197.7 422 204.6 430.2 209.7 390.4 211.3 395.6 211.7 402.1 213.5 410.2 214.1 420.4 229.4 425.6 233.3 432.1 236 400.3 239.8 379.5 243.2 384.8 251.5 391.4 254.1 399.7 260.5 359.2 269.5 364.5 269.6 371.1 274.8 379.4 275.6 389.7 277.6 395 280.1 401.7 280.7 409.9 287.1 369.4 287.5 374.6 288.6 349.2 315.9 354.4 318 360.8 379.8 329.1 380 334.2 381.9 340.7 382 348.9 383.5 309.1 384.6 314.3 385.2 320.8 390.7 289 390.8 294.3 394 300.9 395.8 309.2 398.6 319.6 401 324.9 401.8 331.5 402.3 339.8 403.9 350.1 404.5 355.4 413.4 362 423.3 329.6 426.4 308.9 429.5 288.1 430.1 293.4 434 300 439.7 308.3 444.1 318.7 457.4 298.3 458.1 303.5 466.2 310 481.8 278.2 484.6 283.5 494.3 290.1 496.4 298.4 501.1 308.8 504.2 314.1 514.8 320.7 520.5 288.3 520.9 293.5 521.3 299.9 527.4 308.1 530.2 318.2 532.3 323.5 533.1 330.1 544.7 338.4 573.3 297.9 573.8 277.5 574 282.8 574 256.9 574 236.5 574 241.8 574 248.4 574.1 256.7 574.1 267.1 574.1 272.3 574.1 278.8 574.1 286.9 587.7 297 596.2 276.3 597.4 281.6 608.9 255.6 615 260.9 618.4 267.5 618.9 275.8 646.4 286.2 647 291.5 649 265.5 649.4 270.8 649.5 277.4 651.6 245 656.6 250.3 657.6 256.9 664.1 265.2 667.4 275.6 669.7 280.9 701.2 254.9 702.4 260.1 704.6 234.7 704.9 240 708 214 708.9 219.2 713.7 225.7 715.5 233.8 743.6 244 756.1 249.3 756.9 255.9 758 264.2 760.5 223.6 761.8 228.9 766.4 235.6 772.2 203.1 784.6 208.3 785.2 214.8 786.5 222.9 787 233.1 792.1 238.3 793.6 244.8 813.4 252.9 814.5 263 816.5 268.2 848.4 242.8 849.4 248.1 852.8 222.2 854.9 227.5 867.2 201.5 867.2 206.8 869.6 213.4 870 221.7 879.5 181.2 899.3 160.4 900.6 165.7 912.8 139.8 914.6 145.1 921.6 119.1 921.7 124.4 922.3 131 922.6 139.3 922.9 149.7 923.4 155 923.8 161.6 924.2 169.9 924.9 129.3 924.9 134.6 924.9 141.2 925.5 149.5 925.8 159.9 926.2 165.2 926.2 171.8 926.5 180.1 926.6 139.5 926.6 144.7 926.6 151.2 926.6 159.3 927.1 119.6 928.1 124.8 928.4 131.3 928.5 139.4 928.6 149.6 929 154.7 932 129.3" opacity=".9"/><line x1="950" x2="972" y1="94" y2="94" stroke="#ea580c" stroke-width="3"/><text x="980" y="98" fill="#374151" font-size="12.5">vip 9 225499</text><line x1="950" x2="972" y1="116" y2="116" stroke="#475569" stroke-width="3"/><text x="980" y="120" fill="#374151" font-size="12.5">vip 8 223260</text><line x1="950" x2="972" y1="138" y2="138" stroke="#65a30d" stroke-width="3"/><text x="980" y="142" fill="#374151" font-size="12.5">vip 7 221722</text><line x1="950" x2="972" y1="160" y2="160" stroke="#db2777" stroke-width="3"/><text x="980" y="164" fill="#374151" font-size="12.5">vip 6 219344</text><line x1="950" x2="972" y1="182" y2="182" stroke="#0891b2" stroke-width="3"/><text x="980" y="186" fill="#374151" font-size="12.5">vip 5 217806</text><line x1="950" x2="972" y1="204" y2="204" stroke="#7c3aed" stroke-width="3"/><text x="980" y="208" fill="#374151" font-size="12.5">vip 4 215568</text><line x1="950" x2="972" y1="226" y2="226" stroke="#d97706" stroke-width="3"/><text x="980" y="230" fill="#374151" font-size="12.5">vip 3 202846</text><line x1="950" x2="972" y1="248" y2="248" stroke="#16a34a" stroke-width="3"/><text x="980" y="252" fill="#374151" font-size="12.5">vip 2 193902</text><line x1="950" x2="972" y1="270" y2="270" stroke="#2563eb" stroke-width="3"/><text x="980" y="274" fill="#374151" font-size="12.5">vip 0 182728</text><line x1="950" x2="972" y1="292" y2="292" stroke="#dc2626" stroke-width="3"/><text x="980" y="296" fill="#374151" font-size="12.5">vip 1 182728</text><text x="80" y="542" fill="#6b7280" font-size="12" text-anchor="start">2026-01-01</text><text x="932" y="542" fill="#6b7280" font-size="12" text-anchor="end">2026-01-31</text></svg>