<?xml version="1.0" encoding="UTF-8"?>
<svg xmlns="http://www.w3.org/2000/svg" width="1000" height="520" viewBox="0 0 1000 520" font-family="ui-sans-serif, system-ui, sans-serif">
  <rect width="1000" height="520" fill="#ffffff"/>
  <text x="78" y="28" font-size="18" font-weight="700" fill="#111827">Zone Recovery — SOLUSDC best setting (equity / PnL)</text>
  <text x="78" y="48" font-size="12.5" fill="#6b7280">lev 20 · ratio 4 · gap 35% · maxSteps 4 · maxDD 60% · random · vip 9  ·  10 series, 100.0% win · vol $30127430 ($971853/day) · fees $2549</text>
  <text x="78" y="68" font-size="12.5" font-weight="600" fill="#1d4ed8">USDC · BNB −10% · taker 0.0085%</text>
  <text x="934" y="28" text-anchor="end" font-size="18" font-weight="700" fill="#16a34a">+284617 USDT  (+2846.17%)</text>
  <line x1="78" y1="468.0" x2="934" y2="468.0" stroke="#e5e7eb" stroke-width="1"/><text x="68" y="472.0" text-anchor="end" font-size="12" fill="#6b7280">0.00</text><line x1="78" y1="392.0" x2="934" y2="392.0" stroke="#e5e7eb" stroke-width="1"/><text x="68" y="396.0" text-anchor="end" font-size="12" fill="#6b7280">63637</text><line x1="78" y1="316.0" x2="934" y2="316.0" stroke="#e5e7eb" stroke-width="1"/><text x="68" y="320.0" text-anchor="end" font-size="12" fill="#6b7280">127275</text><line x1="78" y1="240.0" x2="934" y2="240.0" stroke="#e5e7eb" stroke-width="1"/><text x="68" y="244.0" text-anchor="end" font-size="12" fill="#6b7280">190912</text><line x1="78" y1="164.0" x2="934" y2="164.0" stroke="#e5e7eb" stroke-width="1"/><text x="68" y="168.0" text-anchor="end" font-size="12" fill="#6b7280">254549</text><line x1="78" y1="88.0" x2="934" y2="88.0" stroke="#e5e7eb" stroke-width="1"/><text x="68" y="92.0" text-anchor="end" font-size="12" fill="#6b7280">318187</text>
  <line x1="78" y1="456.1" x2="934" y2="456.1" stroke="#9ca3af" stroke-width="1.5" stroke-dasharray="6 4"/><text x="934" y="450.1" text-anchor="end" font-size="11" fill="#6b7280">start 10000</text>
  <polyline points="78.0,265.1 78.8,262.6 79.5,259.2 80.1,261.0 80.9,263.5 81.9,261.8 83.0,263.3 84.3,262.7 85.7,263.0 86.6,265.7 87.2,268.0 88.2,265.6 89.2,262.7 90.3,262.7 91.6,262.6 92.6,262.4 93.7,263.0 94.6,265.6 95.5,265.3 96.1,263.3 96.4,263.6 96.9,266.8 97.7,266.0 98.1,259.4 98.3,260.7 98.7,261.5 99.3,262.0 100.3,261.4 101.0,258.3 101.7,259.3 102.8,259.8 104.0,260.2 104.5,256.7 104.8,254.7 105.0,251.1 105.3,249.1 105.7,250.4 106.2,252.6 106.6,252.5 107.1,252.4 107.4,254.7 107.7,256.2 108.1,257.1 108.6,256.4 108.9,253.1 109.2,250.1 109.4,248.4 109.6,249.4 109.8,246.0 110.0,246.7 110.2,247.2 110.5,248.9 110.8,249.5 111.5,250.8 112.2,250.3 112.7,248.3 113.3,247.9 113.6,247.7 114.0,247.6 114.4,250.6 114.9,249.5 115.3,246.5 115.7,245.5 116.1,244.9 116.2,237.8 116.4,241.3 116.6,241.6 116.9,238.0 116.9,234.7 117.0,235.0 117.2,235.3 117.3,235.9 117.5,236.3 117.8,238.2 118.2,237.9 118.5,240.8 118.9,241.6 119.2,243.1 119.5,244.0 120.1,242.9 120.3,240.8 120.9,241.8 121.2,241.6 121.6,241.3 122.0,244.5 122.1,247.6 122.2,246.5 122.3,249.9 122.4,251.6 122.5,244.2 122.5,245.6 122.6,241.9 122.6,237.1 122.7,237.1 122.7,235.9 122.8,239.4 122.9,238.2 123.0,242.2 123.1,240.9 123.2,242.4 123.3,242.9 123.3,246.0 123.4,243.4 123.5,239.4 123.6,238.9 123.7,237.4 123.8,234.8 123.9,238.9 124.0,238.4 124.1,238.6 124.3,236.2 124.3,228.8 124.3,228.6 124.4,231.7 124.5,230.1 124.6,228.6 124.6,223.3 124.7,222.7 124.7,223.2 124.8,224.1 124.9,227.1 125.0,227.0 125.0,228.2 125.2,225.9 125.3,223.0 125.3,220.3 125.4,222.3 125.5,218.6 125.6,219.4 125.8,222.5 125.8,223.5 126.0,224.1 126.1,227.0 126.3,223.5 126.4,222.6 126.6,221.3 126.8,220.4 126.9,222.5 127.1,222.9 127.3,224.7 127.4,229.3 127.5,226.6 127.7,225.8 127.9,222.9 128.1,221.2 128.3,221.4 128.6,221.5 128.8,222.2 129.0,219.5 129.3,221.4 129.6,224.5 129.8,224.3 130.1,223.7 130.4,220.5 130.7,220.6 131.0,218.8 131.0,213.2 131.2,215.8 131.4,214.6 131.6,214.9 131.9,213.8 132.2,214.9 132.5,216.3 132.9,217.4 133.2,217.0 133.6,215.9 134.0,215.1 134.4,216.3 134.8,215.9 135.3,214.9 135.6,218.7 136.0,215.4 136.4,213.8 136.8,214.2 137.1,217.1 137.5,213.6 137.9,214.0 138.4,215.8 139.2,216.4 139.7,220.9 140.2,219.4 140.9,221.7 141.2,224.0 141.5,225.3 141.7,228.9 141.8,229.7 141.9,231.1 142.1,229.9 142.3,230.2 142.6,232.7 142.9,229.4 143.1,227.0 143.5,226.8 144.0,227.9 144.4,222.8 144.9,225.0 145.5,224.1 146.4,227.3 147.1,228.0 147.6,226.7 148.1,226.3 148.5,224.5 149.0,224.0 149.5,223.4 149.9,220.4 150.1,219.3 150.5,219.9 151.0,221.5 151.5,221.1 151.9,220.4 152.2,220.6 152.7,219.4 153.2,220.6 153.8,219.6 154.4,218.7 155.0,219.5 155.8,220.5 156.4,223.0 157.0,220.1 157.7,219.0 158.0,213.0 158.4,214.8 158.8,214.7 159.2,211.5 159.3,210.0 159.5,212.3 159.9,211.6 160.2,208.7 160.6,210.5 160.9,204.6 161.0,204.0 161.0,203.8 161.1,204.1 161.2,205.6 161.4,206.8 161.6,206.4 161.9,203.9 162.1,204.2 162.3,203.4 162.6,207.3 162.8,209.8 163.1,206.8 163.5,207.5 163.8,206.9 164.2,208.7 164.5,205.1 164.9,207.1 165.2,204.2 165.5,203.6 165.8,202.3 166.1,202.7 166.5,205.1 166.9,204.1 167.5,204.2 167.9,203.6 168.2,201.0 168.5,205.0 168.6,206.6 168.8,207.5 169.0,207.2 169.4,207.5 169.8,206.5 170.1,210.5 170.4,209.4 170.8,207.0 171.3,207.1 171.6,205.1 172.0,204.8 172.3,204.9 172.6,203.2 173.0,204.1 173.3,201.9 173.7,203.6 174.2,204.0 174.4,204.1 174.8,204.5 175.2,201.7 175.5,204.6 175.8,205.2 176.3,206.1 176.8,204.5 177.1,202.3 177.4,204.6 177.8,203.4 178.1,200.9 178.3,200.0 178.5,199.4 178.8,201.5 179.0,204.2 179.3,200.1 179.4,200.0 179.7,199.3 180.0,199.1 180.4,200.3 180.7,200.3 181.1,199.5 181.5,201.3 181.8,203.6 182.1,205.6 182.3,207.4 182.8,208.5 182.9,211.2 183.0,210.8 183.2,209.4 183.6,210.4 184.0,209.8 184.3,207.7 184.8,207.2 185.1,206.3 185.3,204.3 185.7,205.8 186.1,207.1 186.4,204.8 186.7,205.9 187.1,206.2 187.4,202.9 187.5,203.8 187.7,207.9 187.8,204.6 188.0,206.9 188.2,208.5 188.4,205.8 188.5,204.1 188.6,206.2 188.7,204.1 188.8,202.5 189.0,204.9 189.1,204.6 189.3,202.0 189.4,197.0 189.5,198.2 189.6,196.3 189.7,198.6 189.8,194.1 189.8,194.4 189.9,190.4 190.0,192.7 190.1,192.7 190.3,190.3 190.3,187.3 190.4,183.9 190.4,187.3 190.6,187.0 190.7,189.8 190.9,186.7 191.0,189.3 191.2,189.8 191.3,194.4 191.5,192.4 191.6,190.3 191.8,189.4 192.0,188.6 192.3,188.6 192.6,187.6 192.8,189.8 193.2,190.6 193.4,193.6 193.6,198.0 193.7,197.7 193.9,198.8 194.1,196.7 194.4,195.1 194.9,194.1 195.3,198.3 195.5,198.4 195.9,198.8 196.0,200.1 196.4,196.3 196.8,198.2 197.2,197.7 197.7,197.8 198.1,195.8 198.4,198.4 198.7,198.0 198.9,200.6 199.3,199.9 199.7,197.7 200.0,197.2 200.4,196.1 200.7,197.3 201.1,196.4 201.4,199.0 201.8,198.0 202.3,195.9 202.7,197.6 203.1,200.1 203.4,200.0 203.8,201.5 203.9,204.3 204.1,206.2 204.2,210.3 204.3,208.5 204.5,208.9 204.6,206.0 204.8,210.5 205.0,208.4 205.0,209.8 205.2,208.2 205.2,209.1 205.3,204.7 205.4,205.0 205.4,201.6 205.5,205.1 205.6,200.9 205.6,199.6 205.7,199.7 205.8,202.2 205.9,203.9 206.0,200.2 206.2,203.6 206.3,197.1 206.5,196.0 206.5,191.4 206.7,193.6 206.8,193.7 207.0,194.7 207.1,196.8 207.3,195.8 207.4,196.1 207.6,197.3 207.8,198.8 208.0,198.2 208.3,198.6 208.5,203.4 208.7,201.1 208.8,196.2 209.0,193.9 209.1,189.9 209.2,192.8 209.4,192.9 209.6,194.8 209.8,192.2 210.0,190.8 210.1,187.1 210.3,184.8 210.4,186.0 210.6,185.3 210.7,180.7 210.9,179.8 211.0,176.7 211.1,180.2 211.2,179.9 211.4,179.7 211.5,175.5 211.6,174.2 211.8,175.3 212.0,174.8 212.0,171.2 212.1,176.3 212.3,179.3 212.5,180.6 212.6,181.5 212.8,180.6 213.1,179.9 213.4,178.1 213.8,178.8 214.1,176.0 214.5,175.4 214.8,177.7 215.2,177.6 215.6,177.9 216.0,181.9 216.3,184.7 216.5,184.1 216.7,185.1 216.9,187.8 217.2,183.7 217.3,182.8 217.6,181.5 217.8,179.7 218.0,181.6 218.2,182.6 218.4,182.3 218.6,183.7 218.9,183.4 219.2,184.5 219.6,183.5 220.0,181.9 220.2,178.9 220.6,179.7 221.0,176.6 221.4,175.8 221.9,180.1 222.3,178.2 222.5,176.4 222.8,175.1 222.9,169.1 223.1,172.3 223.4,175.6 223.7,173.6 223.9,173.8 224.3,176.8 224.6,181.5 224.8,182.9 225.0,184.6 225.3,183.8 225.6,182.5 226.0,183.6 226.5,183.4 226.8,180.3 227.3,179.9 227.6,185.2 228.1,182.6 228.7,183.7 229.0,177.0 229.3,177.0 229.6,174.6 229.9,172.5 230.3,173.0 230.7,174.8 231.2,176.6 231.4,175.1 231.9,176.2 232.2,172.2 232.4,168.9 232.4,163.8 232.5,161.0 232.5,157.1 232.5,152.3 232.6,153.3 232.6,152.5 232.6,150.5 232.7,151.8 232.8,154.7 232.8,155.4 232.9,156.7 233.0,156.5 233.1,156.5 233.1,161.6 233.1,156.4 233.2,158.5 233.3,159.8 233.4,158.3 233.5,156.6 233.6,157.9 233.7,153.3 233.8,152.0 233.8,150.9 233.9,152.3 234.0,155.7 234.1,158.7 234.2,159.4 234.3,157.2 234.4,161.5 234.5,158.7 234.6,163.7 234.7,163.7 234.8,165.2 235.0,167.1 235.0,173.0 235.1,171.4 235.2,175.8 235.3,175.8 235.3,180.2 235.4,180.4 235.5,176.9 235.6,176.6 235.8,175.3 235.9,180.1 236.0,181.9 236.1,180.0 236.3,179.8 236.4,181.7 236.5,186.5 236.6,187.3 236.7,186.7 236.7,190.6 236.8,192.7 236.8,187.8 236.9,184.5 237.1,184.7 237.3,186.2 237.4,184.1 237.7,184.1 237.9,184.4 238.2,181.9 238.6,183.2 239.0,185.3 239.2,180.9 239.5,178.6 239.9,175.5 240.2,176.2 240.5,173.4 240.5,165.3 240.6,161.8 240.6,161.9 240.7,163.0 240.9,159.1 241.0,162.0 241.2,166.8 241.5,164.9 241.7,168.5 242.0,169.0 242.3,168.9 242.6,167.0 242.9,163.3 243.2,162.4 243.5,161.6 243.8,164.8 244.1,161.8 244.4,164.0 244.7,167.6 244.9,167.6 245.1,171.7 245.3,170.9 245.5,174.3 245.7,174.5 245.9,175.8 246.1,175.4 246.5,174.6 246.7,174.2 247.0,169.8 247.3,170.8 247.6,168.7 248.0,172.9 248.5,173.7 249.0,175.3 249.5,177.3 249.9,176.4 250.3,179.0 250.7,178.1 251.2,175.7 251.8,176.0 252.5,174.3 253.0,172.9 253.4,174.0 253.8,173.2 254.1,174.3 254.3,176.5 254.5,180.6 254.6,182.2 254.7,186.7 254.8,189.3 255.0,189.6 255.1,188.3 255.3,186.5 255.7,187.5 256.2,184.3 256.8,181.8 257.3,182.7 257.8,184.0 258.3,183.4 258.8,183.9 259.1,181.6 259.4,180.8 259.8,183.9 259.9,186.0 260.1,186.8 260.3,187.6 260.4,188.7 260.5,186.7 260.5,185.3 260.6,184.9 260.8,185.1 260.9,181.9 261.0,189.4 261.1,187.6 261.2,188.6 261.3,194.8 261.3,196.0 261.3,196.7 261.4,197.5 261.5,197.1 261.7,195.7 261.8,196.8 261.9,194.0 262.1,195.3 262.4,192.1 262.6,193.4 262.8,196.8 263.1,196.1 263.3,195.9 263.7,193.9 264.0,193.9 264.3,196.5 264.6,201.5 264.7,200.0 264.9,198.7 265.1,197.0 265.4,199.0 265.7,198.8 265.9,204.2 266.0,202.1 266.3,196.5 266.7,196.2 266.9,196.3 267.2,200.0 267.5,195.9 267.8,196.0 268.2,193.9 269.0,193.9 269.6,192.2 270.0,193.4 270.3,195.3 270.5,190.9 270.7,190.4 271.0,190.9 271.4,192.5 271.8,193.4 272.3,189.0 272.9,188.8 273.3,189.1 273.8,188.6 273.9,183.9 274.1,186.7 274.3,188.1 274.5,186.3 274.7,185.5 274.9,181.5 275.2,185.2 275.6,187.4 275.8,189.3 276.1,191.7 276.4,185.0 276.6,181.9 277.0,184.2 277.4,182.9 277.8,187.2 278.2,190.4 278.4,195.0 278.5,197.9 278.7,200.8 278.8,199.9 279.1,198.8 279.3,201.8 279.4,207.9 279.4,203.3 279.6,200.6 279.8,198.9 280.0,197.0 280.4,196.5 280.8,194.7 281.1,197.5 281.5,199.5 281.8,198.4 282.1,203.3 282.4,204.4 282.8,205.6 283.0,205.5 283.3,202.3 283.8,200.3 284.1,201.6 284.4,204.4 284.7,203.9 285.2,203.6 285.4,206.8 285.7,205.2 286.0,207.0 286.5,206.0 286.9,207.4 287.3,204.6 287.5,207.3 287.8,206.9 288.0,208.7 288.0,207.4 288.1,206.6 288.2,206.7 288.3,214.3 288.3,211.0 288.4,210.3 288.4,204.5 288.5,206.9 288.7,210.3 288.7,204.9 288.8,199.7 288.9,198.7 289.0,198.3 289.1,199.3 289.2,198.5 289.3,198.8 289.4,197.6 289.6,196.0 289.7,191.4 289.8,192.9 289.9,191.4 290.0,190.7 290.2,189.3 290.4,188.0 290.5,188.8 290.6,184.6 290.8,183.7 290.9,178.4 291.0,180.2 291.2,183.1 291.4,185.7 291.6,183.4 291.8,181.6 292.0,177.4 292.2,176.8 292.4,177.4 292.7,178.4 292.9,180.1 293.2,180.9 293.5,186.0 293.9,181.0 294.2,185.2 294.4,188.5 294.7,189.0 295.0,187.3 295.3,186.5 295.5,182.1 296.0,181.4 296.3,176.6 296.5,172.5 296.7,171.7 296.9,170.8 297.2,173.0 297.4,179.4 297.8,176.5 298.2,177.9 298.6,176.9 299.0,179.3 299.5,178.1 300.0,175.8 300.5,178.6 300.6,172.5 300.7,180.6 300.8,182.2 301.1,180.9 301.4,175.8 301.7,173.4 302.1,176.1 302.5,172.3 302.7,170.2 303.0,173.1 303.2,165.7 303.3,164.3 303.5,164.7 303.7,166.4 304.1,167.9 304.5,171.0 305.0,170.2 305.5,172.3 306.1,170.9 306.7,169.6 306.9,166.4 307.5,167.4 307.8,169.4 308.1,172.7 308.2,176.1 308.4,176.5 308.7,178.6 309.0,180.5 309.1,185.8 309.2,187.3 309.3,182.5 309.3,176.6 309.6,179.2 309.8,175.8 310.3,179.2 310.7,176.8 311.3,177.9 311.9,178.9 312.3,181.5 312.9,180.5 313.4,181.2 313.9,183.4 314.1,178.7 314.4,178.3 314.4,178.3 314.5,178.7 314.6,176.5 315.0,178.1 315.2,185.8 315.4,183.9 315.6,184.2 315.7,187.0 315.8,184.4 315.9,187.9 316.0,189.8 316.1,189.4 316.2,187.5 316.2,189.1 316.3,191.9 316.4,188.5 316.6,185.1 316.6,178.8 316.7,174.6 316.7,170.1 316.8,172.2 316.8,169.4 316.8,165.6 316.9,166.5 316.9,170.7 317.0,175.4 317.0,174.5 317.1,175.0 317.2,181.0 317.3,175.8 317.4,174.4 317.6,173.9 317.6,170.6 317.7,170.4 317.9,173.5 318.1,173.5 318.2,170.8 318.4,169.8 318.6,171.9 318.8,179.8 318.9,179.7 319.1,182.7 319.2,184.0 319.4,180.6 319.7,180.4 319.9,187.3 320.1,190.3 320.2,193.7 320.3,193.2 320.4,190.6 320.7,189.4 321.0,193.6 321.2,196.8 321.4,195.3 321.7,193.4 322.0,197.8 322.1,199.6 322.4,195.7 322.7,196.2 323.0,196.1 323.3,195.9 323.7,193.9 324.3,195.6 324.8,195.3 325.5,193.2 326.1,195.3 326.8,195.9 327.6,195.8 328.5,193.6 329.2,192.1 330.0,193.0 330.9,194.5 331.6,196.0 333.0,194.5 334.0,195.0 335.1,194.8 336.1,193.9 337.5,194.0 338.3,191.1 339.1,189.3 340.0,191.1 340.7,188.6 341.3,191.5 342.1,192.6 343.2,192.7 344.3,194.2 345.2,193.2 346.4,191.3 347.3,193.9 348.5,194.0 350.1,194.7 351.4,195.6 352.3,198.5 353.1,197.1 354.4,195.5 355.4,192.4 356.8,192.6 357.9,194.9 359.0,193.1 360.7,193.3 361.5,194.5 362.8,194.0 364.1,192.2 364.7,191.4 365.7,191.6 367.1,191.6 368.4,190.3 369.0,188.3 369.7,187.9 370.4,186.0 370.8,183.4 371.1,181.0 371.4,175.7 371.4,174.5 371.5,178.3 371.6,179.9 371.9,177.3 372.3,181.9 372.5,181.4 372.6,178.1 373.1,175.3 373.1,166.6 373.1,165.9 373.2,161.7 373.2,163.5 373.3,164.0 373.4,162.8 373.5,169.7 373.6,170.0 373.9,170.6 374.1,173.8 374.4,177.0 374.7,172.0 375.3,174.6 375.5,172.1 375.9,170.5 376.3,170.3 376.9,174.8 377.0,170.6 377.2,175.8 377.4,177.8 377.6,181.6 377.9,180.2 378.3,178.7 378.6,180.7 379.3,179.7 379.6,184.0 379.8,184.0 380.3,179.9 380.7,183.8 380.8,180.3 380.9,175.5 381.0,172.3 381.1,175.1 381.5,174.1 381.7,172.7 381.9,176.1 382.1,167.7 382.2,166.8 382.3,163.5 382.4,167.9 382.6,168.2 382.7,167.6 382.8,163.5 382.9,162.4 383.0,160.8 383.0,158.4 383.1,162.8 383.2,163.1 383.4,160.2 383.5,159.5 383.6,163.7 383.7,160.4 384.0,163.0 384.2,159.5 384.3,154.4 384.4,155.9 384.6,156.8 384.8,158.0 385.0,155.1 385.2,155.6 385.3,152.3 385.5,145.4 385.5,144.1 385.5,146.9 385.6,147.7 385.7,147.2 385.9,149.5 386.0,153.2 386.2,153.3 386.4,153.2 386.7,152.6 387.1,151.5 387.7,153.3 388.2,151.3 388.6,152.8 389.0,152.3 389.3,156.3 389.6,156.3 390.0,155.0 390.4,159.0 390.7,160.8 391.0,161.7 391.3,160.5 391.6,163.6 391.7,167.7 391.7,169.6 391.8,172.9 391.9,175.8 392.0,172.0 392.1,171.0 392.2,174.6 392.4,169.9 392.8,170.2 393.1,170.8 393.3,172.7 393.6,173.7 394.1,173.2 394.5,174.7 395.0,171.4 395.5,169.9 396.1,168.6 396.6,171.7 397.0,172.3 397.4,170.5 397.9,171.6 398.2,172.8 398.3,176.0 398.4,175.0 398.5,171.7 398.5,170.7 398.6,166.3 398.7,169.2 398.8,168.4 398.9,169.1 399.1,166.5 399.3,168.2 399.4,162.1 399.5,162.5 399.6,160.7 399.7,156.8 399.8,157.3 399.9,154.7 400.0,153.1 400.2,154.4 400.3,152.4 400.5,152.8 400.6,152.7 400.7,148.2 400.7,143.7 400.8,147.8 400.9,146.6 401.1,151.5 401.3,151.0 401.4,147.2 401.6,150.6 401.8,154.8 401.9,158.7 402.0,161.6 402.1,158.7 402.2,158.2 402.4,157.6 402.6,156.9 402.7,154.7 402.9,153.1 403.1,155.1 403.2,163.6 403.2,162.6 403.3,164.3 403.5,162.5 403.6,164.7 403.8,162.3 404.0,161.0 404.3,164.5 404.8,163.6 405.0,161.6 405.4,167.1 405.7,166.8 405.9,169.9 406.3,169.9 406.6,173.1 406.9,176.7 407.1,175.0 407.4,174.3 407.7,174.0 408.2,174.9 408.5,177.1 408.9,174.6 409.5,175.4 409.8,176.0 410.1,176.5 410.7,173.0 411.1,176.5 411.3,178.4 411.8,177.1 412.4,178.4 412.8,179.4 413.1,182.5 413.5,178.9 414.0,177.6 414.6,178.4 415.2,174.2 415.4,173.1 415.5,167.6 415.7,170.4 416.1,170.4 416.4,168.7 416.8,168.4 417.3,166.1 417.7,168.2 418.3,169.7 418.8,167.3 419.3,164.6 419.6,159.6 419.8,159.3 420.0,158.3 420.1,151.8 420.3,156.1 420.5,159.4 420.7,157.4 421.0,156.8 421.2,156.8 421.6,155.1 422.0,155.8 422.4,157.2 422.8,157.1 423.2,158.0 423.6,157.9 424.1,157.0 424.5,157.1 424.9,153.3 424.9,154.4 424.9,150.0 425.0,155.2 425.0,152.8 425.1,155.2 425.3,152.4 425.4,153.5 425.5,158.7 425.8,155.2 426.0,150.8 426.1,149.2 426.2,148.5 426.2,148.8 426.3,149.3 426.4,150.8 426.5,154.6 426.5,157.9 426.7,158.3 426.7,160.1 426.8,159.0 427.0,161.3 427.1,158.9 427.3,154.7 427.3,149.9 427.4,152.0 427.6,154.4 427.7,148.7 427.8,146.1 427.9,147.5 428.1,150.8 428.2,145.7 428.3,148.6 428.4,145.4 428.6,146.4 428.8,146.8 428.9,148.9 429.1,151.4 429.3,152.0 429.5,151.2 429.7,151.0 430.0,151.6 430.2,149.0 430.4,148.3 430.7,148.5 431.0,145.8 431.3,149.5 431.6,147.0 431.9,146.5 432.2,145.1 432.4,142.9 432.6,142.9 432.9,146.5 433.1,149.3 433.4,148.3 433.6,145.3 434.0,143.5 434.5,146.9 434.8,141.3 434.8,135.3 434.9,132.9 434.9,124.6 434.9,117.6 434.9,120.1 434.9,122.0 434.9,125.6 434.9,128.9 434.9,130.1 435.0,125.2 435.0,127.5 435.0,121.9 435.1,124.5 435.2,124.1 435.3,127.0 435.4,128.3 435.5,124.7 435.7,124.7 435.9,124.3 436.0,126.1 436.2,127.1 436.4,131.4 436.5,136.0 436.6,137.9 436.8,137.8 437.0,134.9 437.1,137.5 437.3,136.0 437.5,139.2 437.7,139.6 438.0,136.5 438.2,134.7 438.5,135.0 438.8,132.4 439.1,135.2 439.5,132.1 439.7,131.6 440.2,132.3 440.5,135.5 440.9,135.7 441.2,131.6 441.6,130.9 441.8,136.9 442.4,137.5 442.8,139.3 443.2,139.7 443.6,140.6 444.0,143.9 444.3,143.9 444.7,141.4 445.2,138.9 445.6,141.9 446.0,139.2 446.5,137.8 447.1,138.9 447.6,134.8 448.3,135.0 448.9,136.6 449.1,138.1 449.5,137.8 449.9,142.9 450.0,144.5 450.4,143.6 450.7,147.0 450.9,143.8 451.4,141.4 452.0,142.4 452.4,140.3 452.7,140.4 453.0,143.4 453.3,137.5 453.4,134.5 453.6,131.3 453.6,132.8 453.7,133.6 453.8,130.2 453.9,130.6 453.9,130.0 454.0,126.6 454.0,127.3 454.1,125.9 454.2,123.7 454.2,128.1 454.3,131.1 454.3,129.4 454.4,127.6 454.5,123.3 454.5,125.4 454.6,126.3 454.8,125.0 454.9,124.3 455.0,129.6 455.2,127.1 455.3,125.7 455.5,124.2 455.6,119.7 455.7,118.4 455.9,120.4 456.0,118.4 456.2,119.9 456.3,120.9 456.4,125.5 456.6,125.8 456.8,124.0 456.9,124.0 457.2,127.0 457.3,130.7 457.5,126.7 457.6,130.8 457.8,128.1 458.0,131.1 458.2,126.0 458.4,132.3 458.5,133.2 458.6,131.2 458.8,129.2 459.0,129.5 459.2,126.7 459.4,126.1 459.5,127.3 459.7,126.8 460.0,128.1 460.1,124.3 460.3,125.3 460.5,126.5 460.8,121.6 461.0,124.0 461.2,123.2 461.5,125.3 462.0,124.8 462.3,126.0 462.8,127.5 463.1,130.9 463.5,128.4 463.9,128.4 464.4,127.0 464.9,129.9 465.3,133.6 465.7,132.8 466.0,131.1 466.3,136.3 466.5,136.6 466.8,137.5 467.3,136.8 467.6,140.6 467.8,140.4 468.1,140.8 468.4,142.6 468.6,145.5 468.7,145.9 468.9,146.7 469.2,148.0 469.4,143.9 469.7,141.9 470.1,142.6 470.5,141.7 471.1,140.8 471.6,140.4 472.1,141.1 472.6,142.9 473.1,139.4 473.5,136.7 473.8,137.9 474.0,143.7 474.3,141.3 474.9,138.8 475.5,136.8 475.7,134.0 475.9,133.5 476.2,135.7 476.8,135.5 477.5,135.5 478.1,138.1 478.6,137.7 479.0,141.6 479.5,138.6 479.9,137.8 480.2,140.4 480.6,136.5 481.0,134.9 481.3,136.1 481.4,140.9 481.4,142.9 481.5,144.6 481.6,146.2 481.6,146.5 481.7,142.5 481.8,142.7 481.9,143.7 482.0,144.6 482.1,147.5 482.2,145.5 482.3,154.0 482.4,153.6 482.5,153.2 482.6,156.1 482.7,152.9 482.8,157.5 482.9,155.6 483.0,152.0 483.0,146.9 483.1,149.2 483.2,149.7 483.4,148.8 483.7,151.1 483.8,147.4 484.1,145.9 484.3,149.7 484.5,149.0 484.8,146.4 485.0,144.4 485.2,151.8 485.4,152.0 485.5,156.2 485.8,155.8 486.0,156.6 486.2,156.8 486.4,159.5 486.5,160.3 486.8,159.9 487.0,161.0 487.2,160.3 487.4,159.7 487.6,158.5 488.0,159.9 488.3,158.7 488.7,160.2 488.9,159.7 489.7,155.1 490.3,155.2 491.0,154.5 491.6,154.0 492.4,154.3 493.1,152.6 493.7,156.0 494.2,154.1 494.8,157.9 495.5,156.3 496.4,157.0 497.2,154.8 497.6,158.4 498.1,159.9 498.8,153.5 498.9,148.8 499.3,151.3 499.7,150.3 500.5,149.2 501.0,152.6 501.8,148.8 502.4,149.2 503.0,151.3 504.0,151.1 504.8,150.1 505.5,148.8 506.0,149.3 506.5,146.2 507.1,147.4 507.7,148.7 508.3,149.7 508.8,148.3 509.0,147.1 509.1,148.9 509.3,149.8 509.5,152.1 509.7,146.9 509.8,156.2 509.9,152.8 510.0,157.1 510.1,162.7 510.2,160.1 510.3,164.1 510.3,164.1 510.4,165.8 510.6,164.3 510.7,162.9 510.9,161.2 511.1,158.9 511.4,158.5 511.8,157.3 512.1,157.2 512.3,154.4 512.6,151.0 512.9,149.9 513.1,150.0 513.6,147.8 513.8,145.8 514.2,147.8 514.6,147.2 514.8,142.1 515.2,143.4 515.6,145.8 515.8,141.3 516.2,140.1 516.4,138.5 516.8,138.7 517.1,136.6 517.5,138.8 517.9,139.6 518.5,139.9 519.0,138.1 519.7,138.6 520.4,141.6 521.2,141.3 522.3,141.9 523.4,141.4 524.8,141.9 525.9,143.9 526.9,144.6 527.9,145.4 529.0,145.9 529.8,143.4 531.0,141.5 532.1,143.7 532.7,146.5 533.5,144.5 534.6,146.2 535.3,146.7 536.2,144.8 536.9,144.7 537.5,146.3 538.1,143.6 538.7,146.5 539.2,146.0 540.0,144.1 541.3,143.3 542.5,142.4 544.1,141.3 545.4,144.9 546.1,146.2 547.0,145.1 547.8,146.7 548.5,149.2 548.8,155.6 548.9,156.2 549.5,152.5 550.2,153.3 550.6,155.4 551.3,154.1 552.3,152.5 553.8,151.6 554.8,152.6 555.9,153.9 556.7,156.6 557.6,154.3 558.9,153.5 560.2,155.4 561.8,154.6 562.8,156.2 563.7,155.5 564.1,153.6 564.7,158.2 565.2,156.6 566.0,156.4 567.0,156.6 567.8,156.2 568.7,154.5 569.0,152.8 569.4,150.6 570.3,155.1 571.0,153.8 572.2,152.6 573.2,153.6 573.9,155.3 574.1,158.2 574.2,161.3 574.3,164.9 574.4,167.7 574.5,172.6 574.5,171.5 574.6,172.0 574.8,173.1 574.8,177.8 574.8,179.1 574.9,177.9 575.0,180.0 575.0,182.2 575.0,191.4 575.1,197.0 575.1,199.1 575.1,215.1 575.1,219.0 575.1,224.1 575.1,223.9 575.1,225.6 575.1,221.1 575.1,210.5 575.1,206.4 575.1,203.5 575.1,203.8 575.2,204.3 575.2,209.1 575.2,204.4 575.2,205.7 575.3,205.1 575.3,210.6 575.3,210.5 575.3,214.2 575.4,212.3 575.4,209.9 575.4,207.8 575.5,210.4 575.5,207.4 575.5,208.6 575.6,207.2 575.6,207.4 575.6,208.9 575.7,205.7 575.7,206.6 575.7,203.3 575.8,206.2 575.9,205.4 576.0,206.7 576.1,208.7 576.2,209.0 576.3,206.2 576.4,204.3 576.6,206.9 576.8,208.5 577.0,206.9 577.2,208.5 577.4,208.1 577.6,209.1 577.9,208.9 578.3,207.9 578.7,206.7 579.1,208.2 579.6,208.5 580.1,209.4 580.5,208.3 581.1,209.8 581.4,208.7 581.7,209.8 582.1,210.6 582.4,213.0 582.8,213.5 583.2,210.8 583.9,210.2 584.5,209.8 584.7,207.1 584.9,208.5 585.2,207.7 585.7,208.0 586.2,208.5 586.9,208.5 587.8,208.9 588.4,206.6 588.8,206.3 589.2,207.2 589.7,205.7 590.3,208.1 590.8,207.1 591.4,210.9 591.8,209.2 592.2,209.5 592.7,209.5 593.1,209.3 593.7,209.2 594.1,207.1 594.5,204.2 595.0,204.9 595.7,205.1 596.3,206.7 597.0,204.3 597.7,202.9 598.6,201.2 599.2,201.9 599.9,205.8 600.6,208.7 601.0,210.0 601.3,210.2 601.6,212.7 601.7,211.6 602.0,210.8 602.4,209.2 602.8,209.5 603.2,211.4 603.6,208.1 604.1,209.2 604.5,206.7 605.0,207.8 605.4,209.8 605.8,206.4 606.5,208.5 606.9,206.2 607.3,205.6 607.6,209.3 608.0,209.3 608.4,213.4 608.6,210.7 608.7,215.3 609.0,212.6 609.4,212.4 609.9,218.2 609.9,222.1 609.9,223.8 610.0,220.2 610.2,220.7 610.3,219.9 610.6,222.9 610.8,223.0 611.1,223.5 611.5,223.3 611.8,223.6 611.9,226.8 612.0,228.3 612.1,233.8 612.1,234.0 612.2,231.5 612.4,230.7 612.5,234.8 612.5,238.0 612.6,239.5 612.7,239.6 612.8,239.5 612.9,239.4 613.1,239.2 613.3,238.3 613.7,238.9 613.9,239.7 614.1,238.5 614.4,237.6 614.6,237.3 614.9,237.4 615.3,238.8 615.6,237.1 615.9,238.3 616.4,238.8 616.7,235.9 617.0,236.0 617.3,236.5 617.8,238.5 618.0,239.4 618.2,239.9 618.4,237.8 618.7,240.6 618.9,238.6 619.1,244.3 619.3,240.1 619.3,238.4 619.4,238.9 619.5,238.9 619.5,235.1 619.6,237.5 619.7,239.1 619.7,240.3 619.8,238.7 619.9,238.5 620.0,241.2 620.0,240.7 620.1,244.7 620.1,247.5 620.1,243.5 620.2,243.2 620.3,246.4 620.4,243.4 620.5,241.7 620.6,244.4 620.7,245.4 620.8,246.7 620.9,245.9 621.1,245.2 621.2,244.8 621.3,241.8 621.5,241.9 621.6,246.7 621.7,250.9 621.9,252.3 621.9,253.5 622.0,253.9 622.1,249.8 622.2,250.1 622.3,245.4 622.5,247.8 622.7,250.0 622.9,252.4 623.0,251.8 623.1,252.8 623.3,250.3 623.4,249.0 623.6,248.6 623.7,248.8 623.9,248.7 624.2,250.1 624.4,250.8 624.6,248.6 624.8,248.7 625.1,251.0 625.2,251.4 625.5,251.1 625.7,250.1 626.0,248.6 626.1,244.9 626.4,246.2 626.7,244.9 626.8,245.9 627.1,246.3 627.5,249.4 628.1,248.6 628.6,258.2 628.6,262.6 628.6,262.8 628.6,258.4 628.7,257.0 628.9,257.1 629.1,256.2 629.3,256.1 629.5,256.8 629.7,254.6 630.1,257.5 630.3,255.5 630.6,256.3 630.9,253.6 631.1,251.0 631.4,248.5 631.7,246.8 632.1,246.8 632.3,249.5 632.7,246.3 633.1,248.5 633.4,250.9 633.7,251.1 634.1,248.6 634.5,246.2 634.8,247.0 634.9,246.4 635.0,246.8 635.2,247.6 635.7,244.7 636.2,244.5 636.7,243.2 636.9,239.9 637.3,242.6 637.8,241.1 638.3,243.2 638.7,243.1 639.1,245.7 639.5,246.9 639.8,247.1 640.2,249.9 640.7,249.0 641.2,246.5 641.5,247.6 641.9,244.9 642.3,246.1 642.8,244.9 643.3,245.9 643.7,248.1 644.0,249.8 644.2,250.6 644.3,253.7 644.4,252.9 644.5,252.4 644.7,253.3 644.8,248.3 645.1,248.8 645.4,248.0 645.7,250.5 646.0,249.3 646.3,249.5 646.5,248.2 646.5,243.7 646.6,241.6 646.6,239.4 646.7,240.8 646.8,239.8 646.8,239.5 646.9,238.6 647.0,238.0 647.0,236.1 647.1,238.1 647.2,238.0 647.3,237.6 647.4,238.6 647.5,233.7 647.6,235.0 647.7,230.5 647.8,232.2 647.8,227.1 647.9,225.7 648.0,229.5 648.1,233.2 648.2,231.8 648.3,232.7 648.5,230.6 648.7,229.7 648.9,234.8 649.0,235.0 649.1,241.9 649.2,238.6 649.4,243.4 649.4,247.2 649.5,249.3 649.5,253.4 649.6,247.9 649.7,250.4 649.8,254.9 649.8,258.3 649.8,255.1 649.9,254.6 650.0,252.1 650.1,255.2 650.1,260.0 650.2,258.3 650.2,257.5 650.3,257.9 650.4,258.1 650.5,257.1 650.6,253.3 650.7,252.1 650.9,252.1 651.0,253.6 651.2,250.6 651.3,249.6 651.5,251.8 651.7,249.6 651.9,247.7 652.0,246.8 652.2,249.0 652.5,246.5 652.7,240.6 652.7,235.6 652.7,236.8 652.7,231.9 652.8,232.2 652.8,228.8 652.9,226.1 652.9,227.4 653.0,225.5 653.0,224.0 653.1,223.1 653.1,224.3 653.2,223.7 653.3,225.3 653.4,228.0 653.5,225.3 653.6,228.6 653.7,228.8 653.9,230.0 654.1,228.3 654.2,226.0 654.4,225.6 654.7,225.8 654.8,220.7 655.0,225.3 655.3,224.3 655.6,225.4 655.8,221.3 656.1,226.1 656.4,227.6 656.9,226.8 657.3,229.6 657.6,234.5 657.8,235.0 658.2,233.2 658.7,231.0 659.3,231.4 659.8,231.3 660.4,229.2 660.9,230.8 661.4,231.6 662.0,232.7 662.7,231.4 663.3,230.0 664.2,230.9 664.9,230.0 665.4,232.2 666.2,231.4 666.9,232.1 667.4,235.0 667.9,233.6 668.5,231.8 669.1,230.4 669.6,230.2 670.2,230.6 670.9,231.1 671.4,232.4 671.9,230.1 672.6,231.6 673.4,228.7 673.5,231.5 673.7,235.0 673.9,236.2 674.2,236.5 674.4,239.3 674.6,238.5 674.7,240.6 674.8,237.4 674.9,242.6 674.9,244.8 675.1,245.2 675.2,243.8 675.3,246.8 675.4,243.2 675.5,243.9 675.6,248.2 675.7,250.5 675.8,249.3 675.9,247.3 676.0,242.9 676.2,246.2 676.3,245.7 676.4,248.2 676.6,249.8 676.7,246.8 676.9,247.2 677.2,245.4 677.4,245.1 677.6,242.1 677.9,243.6 678.2,244.7 678.5,240.3 678.7,241.9 679.1,241.8 679.5,242.2 679.8,247.3 680.1,243.7 680.5,238.7 680.7,236.5 681.0,234.8 681.3,237.5 681.6,241.1 682.0,241.6 682.3,241.4 682.9,241.8 683.5,241.0 684.2,240.8 684.8,241.7 685.5,242.7 686.2,242.7 686.9,241.1 687.5,239.9 688.1,239.5 689.0,243.4 689.7,240.6 690.5,240.1 691.0,236.5 691.7,239.5 692.2,241.1 692.8,237.5 693.1,242.9 693.5,245.7 693.7,246.7 694.2,244.4 694.7,245.7 695.2,246.6 695.4,249.8 695.7,249.8 696.1,249.1 696.5,250.9 697.0,250.3 697.6,249.1 698.0,248.6 698.4,247.2 699.0,246.5 699.6,248.6 700.1,248.9 700.8,248.8 701.4,250.0 701.8,249.8 702.2,250.2 702.3,253.6 702.3,257.7 702.4,259.3 702.5,258.3 702.5,258.7 702.7,256.5 702.8,256.0 703.0,256.7 703.1,254.1 703.3,253.7 703.5,250.4 703.7,247.7 703.8,247.4 703.9,243.4 704.0,242.2 704.1,243.7 704.3,243.4 704.5,246.3 704.6,240.8 704.7,240.8 704.9,238.5 705.0,241.9 705.3,243.9 705.5,239.5 705.6,235.2 705.7,234.5 705.8,231.6 705.9,233.8 706.1,238.9 706.3,239.6 706.5,238.0 706.7,238.6 706.9,235.3 707.2,238.3 707.4,241.4 707.6,239.9 707.7,242.3 707.9,240.1 708.0,244.5 708.2,243.4 708.4,243.9 708.7,244.5 708.9,244.4 709.1,248.8 709.2,251.0 709.4,251.4 709.6,248.8 709.8,249.5 710.2,247.9 710.6,248.8 711.1,247.5 711.6,245.9 712.1,248.1 712.9,248.6 713.5,247.9 714.2,247.8 714.9,248.6 715.6,246.9 716.3,247.2 716.9,245.3 717.5,245.7 718.2,245.7 719.0,246.1 720.4,247.0 721.7,249.1 722.8,249.7 724.3,250.3 725.8,249.3 727.0,249.6 728.7,250.1 729.7,250.9 730.9,249.8 731.8,252.5 732.7,251.0 734.2,249.0 735.7,248.3 737.6,249.3 739.1,247.6 739.8,247.8 741.0,249.1 742.0,248.6 743.1,248.6 744.4,250.7 744.9,253.3 745.9,252.4 747.0,252.4 748.0,253.9 749.0,253.8 750.1,252.8 750.8,254.7 751.3,255.1 752.1,252.5 753.0,250.9 754.3,252.4 755.1,252.0 756.0,251.7 756.8,251.0 757.3,256.3 757.6,257.1 758.1,256.0 758.7,257.2 759.1,259.7 759.2,272.0 759.2,269.0 759.2,270.6 759.2,271.1 759.2,273.5 759.3,276.5 759.3,276.1 759.4,277.2 759.4,278.0 759.4,279.7 759.5,277.0 759.5,278.2 759.6,278.0 759.8,277.9 759.9,277.4 760.1,277.7 760.4,279.4 760.4,281.0 760.6,284.3 760.7,281.6 761.0,280.3 761.4,280.9 761.7,287.5 761.7,282.1 761.9,282.6 762.0,285.2 762.1,286.8 762.3,287.0 762.3,287.2 762.5,284.5 762.8,284.7 763.0,290.1 763.1,290.3 763.1,296.7 763.1,295.0 763.2,296.2 763.2,298.0 763.3,293.6 763.5,295.1 763.6,307.4 763.6,308.6 763.6,310.4 763.6,305.7 763.7,307.8 763.8,307.0 763.9,308.2 763.9,304.1 764.0,306.9 764.1,306.3 764.2,305.1 764.4,307.5 764.5,307.6 764.7,308.8 764.8,304.9 764.9,302.7 765.0,304.1 765.1,306.2 765.3,306.4 765.6,308.3 765.8,302.8 766.0,301.9 766.3,302.9 766.6,304.6 767.0,305.5 767.2,308.0 767.2,304.0 767.3,303.6 767.4,300.4 767.6,300.6 767.8,300.1 768.1,299.0 768.3,301.3 768.4,298.9 768.6,296.8 768.9,300.3 769.2,301.2 769.4,296.3 769.6,291.4 769.6,288.1 769.7,285.8 769.8,285.2 769.9,282.7 770.0,283.6 770.3,283.2 770.4,282.8 770.6,277.6 770.8,282.4 771.1,282.2 771.3,277.8 771.6,280.2 771.9,280.6 772.2,284.5 772.6,284.7 773.0,283.5 773.3,278.6 773.4,274.0 773.6,274.9 773.9,277.9 774.4,277.8 775.0,279.0 775.5,280.4 776.1,278.7 776.5,279.4 776.8,278.5 777.2,277.3 777.7,276.3 778.0,274.1 778.2,275.2 778.7,279.9 779.1,279.9 779.6,280.0 780.0,279.1 780.5,278.8 781.4,277.8 782.2,276.2 782.6,278.4 783.3,277.2 783.7,275.1 784.2,275.4 784.6,272.9 784.7,274.8 785.0,276.4 785.1,270.7 785.1,268.4 785.2,271.7 785.3,272.3 785.4,272.2 785.6,270.4 785.7,271.7 785.8,266.0 785.9,264.0 785.9,262.6 786.0,267.4 786.2,268.8 786.3,270.7 786.4,275.0 786.5,274.3 786.7,271.8 786.8,272.5 787.0,271.1 787.2,266.7 787.4,266.8 787.6,269.9 787.7,264.7 787.9,265.9 788.2,270.0 788.5,273.5 788.6,269.6 788.9,267.2 789.3,267.7 789.5,265.9 789.6,260.5 789.8,263.9 790.0,264.3 790.3,264.4 790.8,267.5 791.2,267.5 791.7,267.9 792.3,269.8 792.6,271.5 793.2,269.0 793.4,265.7 794.0,265.6 794.6,264.9 795.1,267.9 795.7,266.7 796.4,267.2 797.3,269.9 797.9,266.4 798.4,264.6 799.0,262.8 799.5,262.4 800.1,266.4 800.8,262.8 801.5,266.6 802.4,267.2 803.3,265.7 804.3,266.7 804.9,266.1 805.6,265.7 806.2,268.9 806.8,271.3 807.4,270.8 808.2,270.4 809.1,271.2 809.8,268.1 810.6,270.2 811.4,273.4 811.9,274.1 812.3,267.7 812.6,268.4 812.7,270.3 812.8,271.0 813.0,270.9 813.2,271.7 813.4,269.1 813.6,270.4 813.9,270.8 814.1,267.4 814.3,264.0 814.4,260.4 814.5,257.8 814.6,255.3 814.6,253.3 814.7,254.1 814.9,259.4 815.0,254.6 815.2,252.6 815.4,256.2 815.7,258.3 815.8,264.1 815.9,268.9 816.0,268.2 816.2,267.6 816.3,271.2 816.5,269.9 816.7,265.9 817.0,265.9 817.3,265.3 817.6,261.2 817.8,256.3 817.9,260.3 818.3,258.0 818.7,256.0 819.0,257.2 819.3,254.7 819.3,249.5 819.5,249.7 819.7,252.1 819.9,248.4 820.1,248.6 820.3,246.2 820.6,247.8 821.0,249.4 821.5,249.3 822.0,246.8 822.5,248.4 823.1,247.8 823.6,250.8 824.2,252.0 824.7,249.1 825.1,249.5 825.7,250.8 826.2,250.3 826.8,251.3 827.3,252.3 828.1,250.7 828.6,253.7 829.3,251.4 830.1,252.4 830.6,251.0 831.2,250.9 831.8,249.9 832.6,250.3 833.2,249.7 833.8,252.1 834.3,255.0 834.6,248.6 834.9,247.3 835.2,248.3 835.5,247.9 836.3,248.9 837.0,248.0 837.2,244.3 837.4,245.2 837.6,246.9 838.0,249.5 838.5,249.5 838.8,248.7 839.2,247.8 839.4,247.7 839.9,250.3 840.2,251.9 840.3,249.3 840.5,253.1 840.6,253.8 840.8,251.0 841.0,253.3 841.1,258.1 841.2,256.2 841.4,256.3 841.7,255.2 842.0,256.2 842.3,258.0 842.6,253.6 842.8,256.8 843.2,254.9 843.5,255.6 843.8,259.8 844.0,254.7 844.2,253.1 844.4,255.6 844.8,258.0 845.3,256.9 845.4,256.4 845.5,254.7 845.7,256.8 845.9,255.7 846.0,256.0 846.1,257.9 846.2,260.0 846.3,255.6 846.6,257.5 846.8,256.8 847.1,254.9 847.4,257.7 847.7,259.8 847.8,264.1 848.0,260.9 848.4,262.5 848.9,259.7 849.7,258.0 850.2,260.0 850.8,262.7 851.2,262.5 851.7,263.4 852.1,262.9 852.6,263.1 852.9,265.4 853.2,266.6 853.6,266.2 854.0,266.4 854.1,273.1 854.3,271.2 854.4,273.5 854.7,272.8 855.0,275.0 855.2,276.9 855.5,275.6 856.0,277.4 856.4,275.6 857.0,271.0 857.7,271.7 858.3,275.0 859.1,272.5 859.9,270.5 860.5,272.9 861.0,271.5 861.6,273.6 862.4,274.3 863.3,274.6 864.0,274.2 864.5,276.1 864.8,277.1 865.5,276.6 866.0,277.7 866.6,275.9 867.2,276.8 867.8,277.6 867.9,281.4 868.0,285.3 868.1,286.0 868.2,284.7 868.3,288.1 868.4,290.9 868.4,294.2 868.5,295.6 868.5,297.3 868.6,301.1 868.6,303.3 868.6,305.4 868.7,310.6 868.7,306.7 868.7,307.4 868.8,307.0 868.8,304.8 868.9,304.9 868.9,303.1 869.0,304.1 869.1,305.7 869.1,306.4 869.2,312.1 869.2,313.8 869.3,317.4 869.3,313.8 869.4,312.2 869.5,308.7 869.6,310.1 869.7,310.3 869.8,312.0 869.9,305.1 870.0,307.5 870.1,310.8 870.3,307.7 870.4,306.4 870.5,305.6 870.6,305.2 870.7,300.5 870.8,302.0 871.0,298.7 871.1,295.5 871.2,300.4 871.5,301.3 871.6,304.6 871.8,306.9 871.9,307.2 872.1,306.5 872.2,311.3 872.3,312.6 872.4,313.3 872.5,312.9 872.6,313.3 872.8,314.5 872.9,320.5 872.9,319.2 873.0,319.7 873.1,318.9 873.3,319.8 873.4,321.3 873.6,317.7 873.7,315.7 873.9,317.0 874.1,314.1 874.2,313.9 874.5,315.3 874.8,313.7 875.1,312.7 875.3,313.5 875.6,311.5 875.9,311.7 876.4,310.8 877.1,309.1 877.8,310.1 878.3,309.0 878.9,306.8 879.4,308.6 880.0,309.7 880.3,311.0 880.5,310.1 880.7,315.7 880.7,317.7 880.7,320.0 880.7,329.4 880.8,342.2 880.8,337.8 880.8,332.3 880.8,331.5 880.8,335.0 880.8,334.2 880.9,331.2 880.9,328.6 881.0,326.9 881.1,324.4 881.2,326.0 881.3,329.2 881.4,332.0 881.5,334.8 881.6,337.9 881.7,337.7 881.8,335.1 881.9,330.4 882.1,332.9 882.3,333.5 882.5,330.4 882.7,330.2 883.0,329.2 883.3,328.1 883.6,327.0 883.8,322.6 884.0,323.3 884.3,321.5 884.7,321.2 885.1,319.2 885.7,323.8 886.1,327.6 886.3,330.8 886.5,334.5 886.6,332.5 886.8,332.0 887.0,326.9 887.1,320.5 887.4,322.0 887.7,321.7 888.0,322.4 888.3,320.0 888.6,322.6 889.0,323.5 889.3,323.2 889.6,326.9 889.8,321.5 890.0,321.3 890.2,323.8 890.5,324.2 890.7,321.0 891.1,322.0 891.6,320.3 892.2,319.2 892.5,315.2 892.6,314.2 892.7,314.6 893.1,316.6 893.5,318.5 893.8,318.9 894.1,320.0 894.3,322.2 894.4,320.0 894.6,319.8 894.9,320.2 895.1,315.1 895.4,317.2 895.5,317.1 895.6,315.6 895.7,314.6 895.8,310.9 895.9,314.7 896.0,317.2 896.1,316.6 896.2,312.3 896.3,314.9 896.4,318.8 896.5,319.7 896.6,324.5 896.7,326.0 896.7,316.0 896.8,316.6 896.9,313.3 897.0,314.2 897.2,314.8 897.3,311.7 897.5,314.1 897.7,317.0 897.7,309.2 897.9,312.7 897.9,308.8 898.1,310.5 898.3,313.3 898.4,313.5 898.6,313.1 898.7,312.3 898.8,308.5 899.0,313.5 899.2,313.9 899.4,313.7 899.6,315.9 899.8,320.7 899.9,324.5 899.9,328.4 900.0,323.1 900.1,320.5 900.2,321.5 900.3,319.7 900.3,310.5 900.4,309.8 900.5,314.0 900.6,308.0 900.6,306.2 900.7,304.9 900.8,301.7 900.8,304.0 900.9,302.6 901.1,300.3 901.2,303.2 901.3,302.0 901.4,302.2 901.6,302.4 901.7,302.1 901.9,305.6 902.0,305.4 902.1,305.7 902.2,308.7 902.3,309.0 902.4,309.5 902.5,314.3 902.6,311.5 902.8,312.7 902.9,312.6 903.2,310.7 903.4,308.1 903.7,313.1 904.0,310.1 904.4,315.0 904.8,311.6 905.4,311.2 906.1,310.4 906.8,308.9 907.4,308.6 907.8,307.0 908.3,307.4 908.9,308.3 909.5,305.2 910.1,304.3 911.0,304.7 911.6,303.1 912.4,306.3 913.0,303.6 913.8,303.4 914.1,306.3 914.6,305.5 915.1,309.1 915.4,310.7 915.8,313.7 915.9,324.5 915.9,322.0 916.0,318.7 916.2,321.8 916.3,325.3 916.4,328.5 916.4,327.4 916.5,325.6 916.7,321.4 916.9,320.9 917.2,322.8 917.4,316.1 917.8,316.6 918.2,318.7 918.7,314.5 919.2,316.3 919.8,317.0 920.2,319.0 920.5,321.8 920.8,320.4 921.1,324.1 921.4,325.4 921.8,326.6 922.0,329.6 922.1,333.2 922.2,332.3 922.4,332.0 922.7,331.9 922.8,335.3 922.8,335.8 922.9,340.6 922.9,341.1 922.9,346.3 923.0,348.1 923.0,348.5 923.0,354.5 923.0,355.3 923.0,353.0 923.0,352.2 923.1,357.7 923.1,358.2 923.1,359.5 923.1,355.1 923.2,359.3 923.2,361.9 923.2,361.1 923.3,362.2 923.3,363.7 923.4,362.4 923.4,361.9 923.5,364.1 923.6,361.1 923.7,360.1 923.7,360.1 923.8,358.0 923.9,359.1 924.0,362.0 924.1,360.2 924.1,362.3 924.2,359.6 924.4,361.6 924.5,361.6 924.7,363.8 924.8,365.0 924.9,365.3 924.9,369.8 925.0,372.1 925.0,366.0 925.1,371.6 925.1,363.5 925.2,361.3 925.2,360.8 925.3,361.7 925.4,366.8 925.5,369.8 925.6,370.0 925.7,373.5 925.7,380.3 925.7,378.2 925.8,378.7 925.8,379.5 925.9,379.0 925.9,380.2 926.0,378.3 926.1,380.8 926.1,386.1 926.1,385.6 926.2,393.2 926.2,395.3 926.2,398.8 926.2,404.0 926.2,405.4 926.2,415.0 926.2,402.8 926.2,399.8 926.2,396.3 926.2,398.1 926.3,396.3 926.3,392.7 926.3,392.4 926.3,395.3 926.4,396.1 926.5,394.8 926.5,393.7 926.6,395.0 926.6,399.3 926.6,391.5 926.7,396.1 926.8,398.8 926.8,399.6 926.9,402.9 927.0,399.6 927.0,398.0 927.1,398.3 927.2,397.3 927.2,398.8 927.3,395.0 927.4,399.4 927.5,401.3 927.5,400.0 927.6,398.4 927.7,399.8 927.8,403.6 927.8,403.6 927.9,409.9 927.9,407.8 927.9,409.3 927.9,423.3 927.9,431.3 927.9,429.5 927.9,429.5 928.0,429.4 928.0,418.7 928.0,419.3 928.0,410.1 928.0,406.5 928.0,408.5 928.0,406.5 928.0,406.8 928.1,407.2 928.1,408.8 928.1,405.5 928.1,405.9 928.2,409.8 928.2,409.7 928.2,407.3 928.3,405.1 928.3,404.1 928.4,401.4 928.4,400.9 928.5,398.5 928.5,401.2 928.6,397.4 928.6,400.1 928.7,402.9 928.8,401.6 928.9,406.8 928.9,405.7 929.0,407.1 929.1,406.5 929.2,404.9 929.3,406.5 929.4,407.7 929.5,410.4 929.6,411.7 929.7,411.9 929.8,406.2 929.9,410.2 930.0,414.7 930.1,413.4 930.2,413.9 930.2,409.5 930.3,410.3 930.5,407.5 930.6,404.2 930.6,408.2 930.8,406.8 930.9,406.4 931.0,406.6 931.1,401.6 931.2,401.3 931.3,397.8 931.5,398.8 931.6,395.7 931.7,396.3 931.9,397.3 932.0,395.3 932.3,394.3 932.4,396.0 932.8,393.7 933.0,391.8 933.2,389.2 933.3,385.1 933.3,380.4 933.4,382.0 933.5,384.0 933.7,384.7 933.9,384.2 934.0,384.2" fill="none" stroke="#d97706" stroke-width="1.2" stroke-linejoin="round" opacity="0.6"/><text x="942" y="472.0" text-anchor="start" font-size="11" fill="#d97706">91.88</text><text x="942" y="396.0" text-anchor="start" font-size="11" fill="#d97706">104.10</text><text x="942" y="320.0" text-anchor="start" font-size="11" fill="#d97706">116.32</text><text x="942" y="244.0" text-anchor="start" font-size="11" fill="#d97706">128.54</text><text x="942" y="168.0" text-anchor="start" font-size="11" fill="#d97706">140.76</text><text x="942" y="92.0" text-anchor="start" font-size="11" fill="#d97706">152.98</text><text x="942" y="80.0" text-anchor="start" font-size="11" font-weight="600" fill="#d97706">price</text>
  <polygon points="159.2,468.0 159.2,456.1 159.2,451.1 232.5,444.1 288.3,434.1 288.8,437.7 428.5,420.1 486.1,425.2 514.7,431.4 564.6,439.3 575.1,400.5 612.1,407.6 653.2,416.4 657.6,427.5 763.1,372.8 770.5,382.8 868.4,395.3 880.8,333.5 880.8,347.6 922.9,365.3 926.2,278.0 927.9,199.1 927.9,220.3 927.9,246.9 928.0,280.1 933.3,116.1 933.3,468.0" fill="#16a34a" fill-opacity="0.08"/>
  <polyline points="159.2,456.1 159.2,451.1 232.5,444.1 288.3,434.1 288.8,437.7 428.5,420.1 486.1,425.2 514.7,431.4 564.6,439.3 575.1,400.5 612.1,407.6 653.2,416.4 657.6,427.5 763.1,372.8 770.5,382.8 868.4,395.3 880.8,333.5 880.8,347.6 922.9,365.3 926.2,278.0 927.9,199.1 927.9,220.3 927.9,246.9 928.0,280.1 933.3,116.1" fill="none" stroke="#16a34a" stroke-width="2" stroke-linejoin="round"/>
  <line x1="88" y1="102" x2="110" y2="102" stroke="#16a34a" stroke-width="2.5"/><text x="116" y="106" font-size="11.5" fill="#374151">equity</text><line x1="88" y1="118" x2="110" y2="118" stroke="#d97706" stroke-width="2.5" opacity="0.8"/><text x="116" y="122" font-size="11.5" fill="#374151">price</text>
  <text x="78" y="502" text-anchor="start" font-size="12" fill="#6b7280">2026-01-01</text><text x="934" y="502" text-anchor="end" font-size="12" fill="#6b7280">2026-01-31</text>
</svg>
