<?xml version="1.0" encoding="UTF-8"?>
<svg xmlns="http://www.w3.org/2000/svg" width="1100" height="560" viewBox="0 0 1100 560" font-family="ui-sans-serif, system-ui, sans-serif">
  <rect width="1100" height="560" fill="#ffffff"/>
  <text x="80" y="28" font-size="18" font-weight="700" fill="#111827">Zone Recovery — SOLUSDC fee-tier comparison (best setting)</text>
  <text x="80" y="48" font-size="12.5" fill="#6b7280">lev 20 · ratio 4 · gap 35% · maxSteps 4 · maxDD 60% · random  ·  equity per fee tier vip 0..9</text>
  <text x="80" y="68" font-size="12.5" font-weight="600" fill="#1d4ed8">USDC margin · BNB −10%</text>
  <line x1="80" y1="508.0" x2="932" y2="508.0" stroke="#e5e7eb" stroke-width="1"/><text x="70" y="512.0" text-anchor="end" font-size="12" fill="#6b7280">0.00</text><line x1="80" y1="424.0" x2="932" y2="424.0" stroke="#e5e7eb" stroke-width="1"/><text x="70" y="428.0" text-anchor="end" font-size="12" fill="#6b7280">63637</text><line x1="80" y1="340.0" x2="932" y2="340.0" stroke="#e5e7eb" stroke-width="1"/><text x="70" y="344.0" text-anchor="end" font-size="12" fill="#6b7280">127275</text><line x1="80" y1="256.0" x2="932" y2="256.0" stroke="#e5e7eb" stroke-width="1"/><text x="70" y="260.0" text-anchor="end" font-size="12" fill="#6b7280">190912</text><line x1="80" y1="172.0" x2="932" y2="172.0" stroke="#e5e7eb" stroke-width="1"/><text x="70" y="176.0" text-anchor="end" font-size="12" fill="#6b7280">254549</text><line x1="80" y1="88.0" x2="932" y2="88.0" stroke="#e5e7eb" stroke-width="1"/><text x="70" y="92.0" text-anchor="end" font-size="12" fill="#6b7280">318187</text>
  <line x1="80" y1="494.8" x2="932" y2="494.8" stroke="#9ca3af" stroke-width="1.5" stroke-dasharray="6 4"/>
  <polyline points="80.0,494.8 80.0,489.4 160.7,481.7 222.0,470.8 222.6,474.9 376.4,455.7 439.7,461.4 471.3,468.5 526.2,477.3 537.7,435.3 578.5,443.1 623.7,453.0 628.5,465.3 744.6,406.7 752.8,417.7 860.6,431.4 874.2,366.2 874.2,381.6 920.6,400.8 924.1,309.5 926.1,227.7 926.1,251.9 926.1,282.2 926.1,320.0 932.0,140.3" fill="none" stroke="#2563eb" stroke-width="1.8" stroke-linejoin="round" opacity="0.9"/>
  <polyline points="80.0,494.8 80.0,489.4 160.7,481.7 222.0,470.8 222.6,474.9 376.4,455.7 439.7,461.4 471.3,468.5 526.2,477.3 537.7,435.3 578.5,443.1 623.7,453.0 628.5,465.3 744.6,406.7 752.8,417.7 860.6,431.4 874.2,366.2 874.2,381.6 920.6,400.8 924.1,309.5 926.1,227.7 926.1,251.9 926.1,282.2 926.1,320.0 932.0,140.3" fill="none" stroke="#dc2626" stroke-width="1.8" stroke-linejoin="round" opacity="0.9"/>
  <polyline points="80.0,494.8 80.0,489.4 160.7,481.7 222.0,470.8 222.6,474.8 376.4,455.6 439.7,461.2 471.3,468.3 526.2,477.1 537.7,434.8 578.5,442.6 623.7,452.5 628.5,464.8 744.6,405.7 752.8,416.7 860.6,430.4 874.2,364.4 874.2,379.9 920.6,399.2 924.1,306.5 926.1,223.3 926.1,247.4 926.1,277.4 926.1,314.9 932.0,134.9" fill="none" stroke="#16a34a" stroke-width="1.8" stroke-linejoin="round" opacity="0.9"/>
  <polyline points="80.0,494.8 80.0,489.3 160.7,481.6 222.0,470.7 222.6,474.7 376.4,455.4 439.7,461.1 471.3,468.1 526.2,476.8 537.7,434.4 578.5,442.2 623.7,452.1 628.5,464.3 744.6,404.9 752.8,415.9 860.6,429.7 874.2,363.0 874.2,378.5 920.6,397.9 924.1,304.1 926.1,219.8 926.1,243.7 926.1,273.5 926.1,310.8 932.0,130.5" fill="none" stroke="#d97706" stroke-width="1.8" stroke-linejoin="round" opacity="0.9"/>
  <polyline points="80.0,494.8 80.0,489.3 160.7,481.6 222.0,470.6 222.6,474.6 376.4,455.2 439.7,460.8 471.3,467.8 526.2,476.5 537.7,433.8 578.5,441.7 623.7,451.5 628.5,463.7 744.6,403.7 752.8,414.7 860.6,428.5 874.2,360.9 874.2,376.5 920.6,396.0 924.1,300.7 926.1,214.8 926.1,238.4 926.1,268.0 926.1,304.9 932.0,124.1" fill="none" stroke="#7c3aed" stroke-width="1.8" stroke-linejoin="round" opacity="0.9"/>
  <polyline points="80.0,494.8 80.0,489.3 160.7,481.6 222.0,470.6 222.6,474.6 376.4,455.2 439.7,460.8 471.3,467.8 526.2,476.5 537.7,433.7 578.5,441.6 623.7,451.4 628.5,463.6 744.6,403.5 752.8,414.5 860.6,428.3 874.2,360.6 874.2,376.2 920.6,395.6 924.1,300.1 926.1,213.9 926.1,237.5 926.1,267.0 926.1,303.9 932.0,123.0" fill="none" stroke="#0891b2" stroke-width="1.8" stroke-linejoin="round" opacity="0.9"/>
  <polyline points="80.0,494.8 80.0,489.3 160.7,481.6 222.0,470.6 222.6,474.6 376.4,455.2 439.7,460.8 471.3,467.7 526.2,476.4 537.7,433.6 578.5,441.5 623.7,451.3 628.5,463.6 744.6,403.3 752.8,414.4 860.6,428.2 874.2,360.3 874.2,375.9 920.6,395.4 924.1,299.7 926.1,213.3 926.1,236.8 926.1,266.3 926.1,303.2 932.0,122.2" fill="none" stroke="#db2777" stroke-width="1.8" stroke-linejoin="round" opacity="0.9"/>
  <polyline points="80.0,494.8 80.0,489.3 160.7,481.6 222.0,470.6 222.6,474.5 376.4,455.2 439.7,460.7 471.3,467.7 526.2,476.4 537.7,433.5 578.5,441.4 623.7,451.2 628.5,463.4 744.6,403.1 752.8,414.1 860.6,428.0 874.2,359.9 874.2,375.5 920.6,395.0 924.1,299.0 926.1,212.3 926.1,235.8 926.1,265.3 926.1,302.0 932.0,121.0" fill="none" stroke="#65a30d" stroke-width="1.8" stroke-linejoin="round" opacity="0.9"/>
  <polyline points="80.0,494.8 80.0,489.3 160.7,481.6 222.0,470.6 222.6,474.5 376.4,455.1 439.7,460.7 471.3,467.6 526.2,476.3 537.7,433.5 578.5,441.3 623.7,451.1 628.5,463.4 744.6,402.9 752.8,414.0 860.6,427.8 874.2,359.7 874.2,375.3 920.6,394.8 924.1,298.6 926.1,211.7 926.1,235.2 926.1,264.6 926.1,301.3 932.0,120.2" fill="none" stroke="#475569" stroke-width="1.8" stroke-linejoin="round" opacity="0.9"/>
  <polyline points="80.0,494.8 80.0,489.3 160.7,481.6 222.0,470.6 222.6,474.5 376.4,455.1 439.7,460.7 471.3,467.6 526.2,476.3 537.7,433.4 578.5,441.2 623.7,451.0 628.5,463.3 744.6,402.7 752.8,413.8 860.6,427.6 874.2,359.3 874.2,374.9 920.6,394.5 924.1,298.0 926.1,210.8 926.1,234.2 926.1,263.6 926.1,300.3 932.0,119.1" fill="none" stroke="#ea580c" stroke-width="1.8" stroke-linejoin="round" opacity="0.9"/>
  <line x1="950" y1="94" x2="972" y2="94" stroke="#ea580c" stroke-width="3"/><text x="980" y="98" font-size="12.5" fill="#374151">vip 9  294617</text>
  <line x1="950" y1="116" x2="972" y2="116" stroke="#475569" stroke-width="3"/><text x="980" y="120" font-size="12.5" fill="#374151">vip 8  293760</text>
  <line x1="950" y1="138" x2="972" y2="138" stroke="#65a30d" stroke-width="3"/><text x="980" y="142" font-size="12.5" fill="#374151">vip 7  293173</text>
  <line x1="950" y1="160" x2="972" y2="160" stroke="#db2777" stroke-width="3"/><text x="980" y="164" font-size="12.5" fill="#374151">vip 6  292266</text>
  <line x1="950" y1="182" x2="972" y2="182" stroke="#0891b2" stroke-width="3"/><text x="980" y="186" font-size="12.5" fill="#374151">vip 5  291680</text>
  <line x1="950" y1="204" x2="972" y2="204" stroke="#7c3aed" stroke-width="3"/><text x="980" y="208" font-size="12.5" fill="#374151">vip 4  290829</text>
  <line x1="950" y1="226" x2="972" y2="226" stroke="#d97706" stroke-width="3"/><text x="980" y="230" font-size="12.5" fill="#374151">vip 3  286024</text>
  <line x1="950" y1="248" x2="972" y2="248" stroke="#16a34a" stroke-width="3"/><text x="980" y="252" font-size="12.5" fill="#374151">vip 2  282678</text>
  <line x1="950" y1="270" x2="972" y2="270" stroke="#2563eb" stroke-width="3"/><text x="980" y="274" font-size="12.5" fill="#374151">vip 0  278534</text>
  <line x1="950" y1="292" x2="972" y2="292" stroke="#dc2626" stroke-width="3"/><text x="980" y="296" font-size="12.5" fill="#374151">vip 1  278534</text>
  <text x="80" y="542" text-anchor="start" font-size="12" fill="#6b7280">2026-01-03</text><text x="932" y="542" text-anchor="end" font-size="12" fill="#6b7280">2026-01-31</text>
</svg>
