<svg xmlns="http://www.w3.org/2000/svg" width="1000" height="520" font-family="ui-sans-serif, system-ui, sans-serif" viewBox="0 0 1000 520"><rect width="1000" height="520" fill="#fff"/><text x="78" y="28" fill="#111827" font-size="18" font-weight="700">Zone Recovery — MBOXUSDT best setting (equity / PnL)</text><text x="78" y="48" fill="#6b7280" font-size="12.5">lev 3 · ratio 3 · gap 20% · maxSteps 4 · maxDD 20% · random · vip 9 · 1 series, 100.0% win · vol $469587 ($16771/day) · fees $71.85</text><text x="78" y="68" fill="#1d4ed8" font-size="12.5" font-weight="600">USDT · BNB −10% · taker 0.0153%</text><text x="934" y="28" fill="#16a34a" font-size="18" font-weight="700" text-anchor="end">+22529 USDT (+0.02%)</text><line x1="78" x2="934" y1="468" y2="468" stroke="#e5e7eb" stroke-width="1"/><text x="68" y="472" fill="#6b7280" font-size="12" text-anchor="end">0.00</text><line x1="78" x2="934" y1="392" y2="392" stroke="#e5e7eb" stroke-width="1"/><text x="68" y="396" fill="#6b7280" font-size="12" text-anchor="end">21604866</text><line x1="78" x2="934" y1="316" y2="316" stroke="#e5e7eb" stroke-width="1"/><text x="68" y="320" fill="#6b7280" font-size="12" text-anchor="end">43209732</text><line x1="78" x2="934" y1="240" y2="240" stroke="#e5e7eb" stroke-width="1"/><text x="68" y="244" fill="#6b7280" font-size="12" text-anchor="end">64814599</text><line x1="78" x2="934" y1="164" y2="164" stroke="#e5e7eb" stroke-width="1"/><text x="68" y="168" fill="#6b7280" font-size="12" text-anchor="end">86419465</text><line x1="78" x2="934" y1="88" y2="88" stroke="#e5e7eb" stroke-width="1"/><text x="68" y="92" fill="#6b7280" font-size="12" text-anchor="end">108024331</text><line x1="78" x2="934" y1="116.2" y2="116.2" stroke="#9ca3af" stroke-dasharray="6 4" stroke-width="1.5"/><text x="934" y="110.2" fill="#6b7280" font-size="11" text-anchor="end">start 100000000</text><polyline fill="none" stroke="#d97706" stroke-linejoin="round" stroke-width="1.2" points="78 163.4 78 162.6 78.1 161.7 78.1 159.1 78.2 158.2 78.2 157.8 78.3 158.2 78.3 155.6 78.4 156 78.5 156 78.5 157.8 78.6 155.6 78.6 157.8 78.7 158.2 78.7 159.5 78.8 162.6 78.8 161.3 78.9 159.1 79 159.9 79 158.6 79.1 157.8 79.1 158.2 79.2 157.3 79.3 157.8 79.3 158.6 79.4 159.9 79.4 164.7 79.5 164.7 79.8 163.4 80 156 80.3 155.2 80.5 149.1 80.7 148.2 80.9 146 81.3 149.5 81.5 146.4 81.6 142.5 81.8 143.4 82.1 140.8 82.3 140.3 82.6 144.3 83 140.8 83.3 136.9 83.5 131.2 83.8 132.9 84.1 130.8 84.5 130.8 84.8 132.1 85.1 130.8 85.4 133.8 85.7 131.6 86.1 128.1 86.5 132.5 86.9 132.5 87.2 132.5 87.5 132.5 87.8 123.4 88.1 126.4 88.3 126 88.6 124.7 88.9 125.5 89.2 118.6 89.6 123.8 90 129 90.3 122.9 90.7 116.4 91 116.8 91.3 120.7 91.6 131.6 91.8 135.1 92.1 136.4 92.4 135.1 92.7 132.9 92.9 125.5 93.3 128.6 93.5 131.2 93.8 133.4 94.1 129.9 94.4 132.5 94.6 127.3 95 125.1 95.3 123.8 95.6 126.4 95.9 131.2 96.2 135.6 96.4 139.5 96.6 149.1 96.7 150.4 96.8 143.8 96.9 131.6 97.1 138.6 97.4 146.9 97.5 158.2 97.6 154.7 97.7 161.3 97.8 163.4 97.9 164.3 98 159.9 98.1 160.4 98.3 156.5 98.4 159.5 98.5 159.1 98.7 156.9 98.9 165.2 99.1 157.8 99.3 163.9 99.6 159.1 99.7 156.9 100 157.8 100.2 163 100.4 165.2 100.6 163 100.9 157.3 101 149.1 101.2 148.6 101.4 144.7 101.7 152.5 102 153.4 102.1 154.3 102.5 154.3 102.7 151.2 103 153.8 103.2 163.4 103.4 163.9 103.7 160.8 104 158.2 104.2 163.4 104.4 155.2 104.6 160.8 105 166.9 105.2 166.9 105.5 166.9 105.8 168.7 106.1 168.7 106.3 159.1 106.7 163 107 161.3 107.3 169.5 107.5 186.5 107.6 182.2 107.7 173.9 107.8 179.1 107.9 174.3 108.1 163.9 108.4 173.9 108.6 177.8 108.8 170.8 109 162.1 109.3 155.2 109.5 159.9 109.8 161.3 110.1 169.5 110.3 165.2 110.5 158.6 110.9 160.8 111.2 163.4 111.5 165.6 111.8 164.7 112.1 166.5 112.4 171.7 112.7 180 112.8 188.3 112.9 203.5 112.9 200 113.1 203.1 113.2 209.6 113.3 206.1 113.4 190.9 113.5 187 113.7 179.5 113.9 184.3 114.1 187.4 114.2 175.6 114.3 171.3 114.6 174.8 114.8 181.3 115 189.1 115.2 194.4 115.4 198.7 115.6 205.3 115.7 200.9 115.8 200.5 116 194.8 116.2 199.2 116.3 201.8 116.6 193.1 116.8 198.7 117 206.6 117.1 186.5 117.2 187.8 117.4 187.4 117.6 185.6 117.8 183.9 118.1 184.8 118.5 180.4 118.8 183.9 119.1 176.5 119.3 179.1 119.8 172.1 120.1 182.6 120.3 180.9 120.5 178.7 120.7 176.9 120.8 168.7 121 165.6 121.2 167.4 121.4 169.1 121.7 168.7 122.1 171.7 122.6 170.4 122.9 166 123.3 166 123.7 165.2 123.9 162.6 124.2 159.1 124.4 152.1 124.7 160.4 125 164.3 125.2 165.2 125.6 162.6 125.9 160.4 126.4 156 126.6 163.4 126.8 164.3 127.1 153 127.2 153.4 127.5 154.3 127.7 158.2 128 155.6 128.3 151.7 128.5 145.6 128.6 151.2 128.8 150.8 129 151.7 129.3 149.9 129.5 147.3 129.9 146 130.2 150.8 130.5 149.9 130.9 151.2 131.1 155.2 131.5 157.3 131.8 159.9 132.2 155.6 132.7 153.4 133.1 157.8 133.4 161.7 133.9 163 134.1 163.9 134.4 165.2 134.8 168.7 135.3 165.6 135.6 160.4 136.1 159.1 136.8 158.2 137.4 156.9 137.9 159.1 138.3 159.1 138.9 159.1 139.2 162.6 139.6 158.2 140.2 161.3 140.5 159.9 140.8 168.7 141.2 169.5 141.6 166.5 142 174.3 142.3 175.6 142.6 176.5 142.9 180.4 143 184.8 143.2 178.2 143.5 179.1 143.8 173.9 144.2 167.4 144.4 170.8 144.7 169.5 145.1 167.8 145.5 161.7 145.9 165.2 146.2 164.7 146.6 163.4 147 175.2 147.3 168.7 147.6 163.9 148 161.3 148.4 161.3 148.8 157.8 149.1 156.5 149.5 158.6 149.8 159.5 150.1 154.3 150.6 163.4 150.9 170.4 150.9 173.5 151.1 172.6 151.2 175.2 151.3 175.2 151.3 173.5 151.4 169.5 151.5 169.1 151.6 168.2 151.6 169.1 151.7 168.7 151.8 169.5 151.9 169.1 152 168.2 152 168.2 152.1 167.4 152.2 166.9 152.3 167.4 152.3 166.9 152.4 166.9 152.5 167.8 152.6 171.7 152.7 171.7 152.8 173.9 152.9 171.7 153 173.5 153 173.5 153.1 173 153.2 171.7 153.3 170.4 153.4 170.4 153.5 170.4 153.5 170.8 153.6 171.7 153.7 171.3 153.8 172.1 153.9 172.1 154 172.1 154 172.1 154.1 170.8 154.2 169.1 154.3 170.8 154.4 170.4 154.5 171.7 154.5 173 154.6 170.8 154.7 170 154.8 166.5 154.9 166.5 155.1 163.9 155.5 160.4 155.8 162.1 156.3 163.9 156.8 163.9 156.9 162.1 157 160.4 157.3 159.9 157.7 167.4 158 169.5 158.3 174.3 158.6 173.5 158.8 156.5 159 159.1 159.3 159.9 159.5 153.8 159.8 165.2 160.1 170.8 160.4 172.1 160.8 172.1 161.1 180 161.3 178.2 161.6 184.3 161.9 190.4 162 194.8 162.2 196.5 162.3 197.8 162.5 202.2 162.6 210.9 162.6 213.5 162.8 210.9 162.9 211.8 163.1 215.7 163.2 222.2 163.4 221.8 163.5 209.6 163.6 191.7 163.8 184.8 163.9 190 164.1 172.6 164.3 177.4 164.5 180.9 164.7 182.2 165 189.6 165.2 171.7 165.3 154.3 165.3 159.1 165.4 152.5 165.6 146 165.8 154.3 166 149.5 166.1 148.2 166.3 157.8 166.6 157.8 166.9 166.5 167.3 171.3 167.6 174.8 167.9 171.7 168.2 181.7 168.5 183 168.8 177.4 169.1 180 169.5 184.3 169.9 179.1 170.3 178.7 170.8 173.5 171.1 169.1 171.4 167.4 172 173 172.5 170.4 173.1 170.8 173.6 173.5 173.8 165.2 174.3 166 174.9 165.2 175.4 163.4 176.2 166.9 176.7 166.9 177.4 173.5 177.7 172.6 178.3 168.2 178.8 173.9 179.3 169.5 179.7 168.2 180.1 173 180.5 173.9 181 171.3 181.5 176.9 181.9 179.5 182.5 180 183.1 177.8 183.5 179.5 183.8 185.2 183.9 190.9 184.1 191.7 184.5 181.3 185 182.2 185.4 183.9 185.9 187.8 186.4 186.1 187 192.2 187.2 193.9 187.5 198.7 187.7 195.7 188 198.7 188.3 203.5 188.3 194.8 188.6 196.1 188.8 210 188.9 203.9 189.1 198.7 189.3 204.4 189.6 216.1 189.7 209.6 189.8 213.1 190 210.5 190.2 203.9 190.4 207.4 190.6 214.8 190.9 217 191.1 219.6 191.2 214 191.5 214.8 191.7 208.3 191.9 222.2 192 218.8 192.2 226.6 192.5 220.1 192.7 220.5 192.9 217 193.1 221.8 193.3 209.2 193.4 207.4 193.6 197.4 193.9 205.7 194.1 202.2 194.3 204.8 194.7 208.7 194.9 199.6 195.1 192.6 195.3 194.4 195.7 193.9 196.1 198.3 196.5 195.7 196.9 203.9 197.5 210 197.8 212.2 198 220.5 198.3 196.5 198.7 206.1 199.1 213.5 199.4 200.5 199.7 198.3 200.1 201.3 200.5 204.8 200.8 202.6 201.3 205.3 201.7 202.6 202.1 214 202.2 196.1 202.4 203.9 202.6 205.7 202.9 210.5 203.2 210.5 203.5 205.7 203.8 208.3 204.2 210.5 204.5 215.7 204.8 214 205.1 218.8 205.5 221.4 205.7 222.2 206 224.4 206.3 219.2 206.7 225.3 206.9 225.7 207.1 237.1 207.4 226.2 207.7 225.7 208 231 208.3 229.2 208.6 229.6 208.9 227.5 209.1 231.4 209.3 220.9 209.5 224 209.7 223.5 210 225.3 210.4 230.5 210.7 225.7 211.1 220.9 211.5 218.3 211.9 215.7 212.1 214.4 212.2 212.7 212.5 212.2 212.6 210.5 213 211.4 213.2 217 213.6 215.3 214 224.9 214.2 233.6 214.4 227.9 214.6 235.7 214.8 244 214.8 251 214.9 253.2 215 252.7 215.1 245.3 215.3 241 215.6 243.6 215.7 241.4 216 249.2 216.2 243.6 216.5 245.3 216.7 250.1 216.9 249.7 217.2 247.9 217.6 246.6 218 249.7 218.2 241.8 218.5 247.5 218.9 234.9 219 232.7 219.3 239.2 219.4 250.1 219.5 263.6 219.6 265.8 219.6 274.5 219.7 275.8 219.8 270.6 219.9 280.2 219.9 293.7 220 285.8 220 281.9 220.1 291.5 220.1 298 220.2 291.1 220.2 295 220.2 293.2 220.2 284.5 220.3 275 220.4 277.1 220.4 286.7 220.5 268 220.6 277.6 220.7 283.2 220.7 287.1 220.8 285 221 283.2 221.1 281.5 221.2 271 221.3 268.4 221.4 264.1 221.5 275 221.7 280.2 221.8 262.8 222 274.5 222.2 288.9 222.4 295.4 222.5 279.7 222.6 281 222.7 285.8 222.9 283.2 223.1 291.1 223.3 295.9 223.6 289.8 223.7 305 223.8 297.6 224 298.9 224.1 297.6 224.3 297.2 224.5 292.8 224.8 294.1 225 302 225.3 294.6 225.6 306.8 225.8 298.9 226.1 305 226.1 318.5 226.2 320.3 226.2 326.4 226.3 335.5 226.3 346.8 226.3 325 226.4 335.5 226.5 336.8 226.5 329.8 226.5 341.2 226.6 327.7 226.6 321.6 226.7 327.7 226.7 326.4 226.8 332.5 226.9 337.7 227 342.5 227 336.4 227.1 332 227.1 314.6 227.3 333.3 227.4 340.7 227.5 335.9 227.7 326.4 227.9 334.2 228.1 336.8 228.3 335.5 228.5 342 228.6 330.3 228.7 342.9 228.8 342 229 322 229.2 330.3 229.4 328.1 229.6 329.8 229.8 316.8 230.1 327.2 230.3 326.4 230.6 336.8 230.8 340.7 230.9 342.9 231 352.1 231.1 357.3 231.1 360.8 231.2 372.1 231.2 382.1 231.2 383 231.2 385.6 231.2 389.1 231.2 378.6 231.2 391.3 231.3 390 231.3 405.6 231.3 407.8 231.3 409.6 231.3 389.5 231.3 394.3 231.4 384.7 231.4 387.8 231.4 391.7 231.4 385.6 231.5 383 231.5 372.5 231.6 364.3 231.6 349.4 231.7 336.4 231.7 340.7 231.9 332.9 232 335.1 232.1 338.6 232.2 335.5 232.4 328.1 232.5 326.8 232.6 329.4 232.8 332.9 232.9 328.1 233.1 324.2 233.2 318.1 233.3 317.2 233.5 314.6 233.6 320.3 233.8 329.8 234.1 327.2 234.3 323.7 234.6 330.3 234.7 329.8 234.9 326.4 235 332.9 235.3 329 235.5 327.2 235.8 331.6 236.1 327.7 236.4 324.2 236.6 320.7 236.9 325 237.2 321.6 237.4 318.1 237.7 314.2 237.9 307.6 238.3 307.6 238.4 301.5 238.7 299.3 238.9 301.1 239.2 307.2 239.5 314.2 239.8 315.9 240.2 320.7 240.4 317.6 240.7 311.1 241.1 315.5 241.3 311.5 241.5 314.2 241.8 322 241.9 324.2 242.1 326.8 242.2 327.2 242.5 325.9 242.7 328.1 243 315.5 243.1 315.5 243.3 312 243.6 310.7 243.7 311.5 243.9 312 244.1 305 244.5 304.6 244.9 305 245.2 299.8 245.5 302 245.7 296.7 246.1 298 246.4 303.7 246.9 300.7 247.1 298 247.5 296.3 247.8 296.3 248.1 291.1 248.4 288.9 248.7 291.9 249.1 291.9 249.4 288.5 249.5 276.3 249.6 277.6 249.8 272.8 250 272.3 250 277.1 250.1 277.1 250.1 279.7 250.1 279.7 250.2 276.3 250.5 276.3 250.7 271 250.9 266.7 251.2 270.2 251.4 267.5 251.6 262.3 251.8 260.1 252 255.8 252.3 255.8 252.5 257.5 252.7 258 252.9 249.7 253 247.1 253.2 239.2 253.4 244 253.6 249.7 253.8 252.7 254 266.7 254.2 264.9 254.5 266.2 254.6 261 254.7 257.5 255.1 261.4 255.4 268.9 255.6 261.4 256.1 261.9 256.4 258 256.7 265.4 256.8 265.4 257.1 256.7 257.2 257.5 257.6 260.1 258 261.9 258.4 261 258.7 261.4 259 256.7 259.4 258.8 259.7 254.5 260.1 251.9 260.5 259.7 260.8 258 261.2 260.1 261.5 261.4 261.8 261.9 262.1 268.4 262.2 267.5 262.4 268 262.8 268.9 262.9 267.1 263.1 269.7 263.4 268.9 263.8 262.3 264.2 262.8 264.7 260.1 265.2 259.3 265.5 250.6 266 253.2 266.5 254.9 266.9 251.9 267.4 256.7 268 255.8 268.5 259.7 269.1 258.4 269.5 261.4 269.7 258.4 270.3 271.9 270.5 281.5 270.6 285.8 270.7 299.3 270.8 292.8 270.9 291.1 271.1 289.8 271.3 283.7 271.4 290.2 271.6 294.6 271.7 293.7 272 295.4 272.3 288.9 272.6 290.2 272.9 287.1 273.1 286.3 273.5 289.3 273.7 291.1 274 299.8 274.3 293.2 274.6 292.8 274.9 295.4 275.3 295.4 275.7 295 276.1 293.2 276.5 291.1 276.8 287.1 277 281 277.1 271 277.3 273.2 277.4 268 277.5 269.7 277.8 271.5 278 271.9 278.4 274.1 278.8 276.7 279 277.6 279.3 278 279.7 280.2 280.1 286.3 280.3 286.7 280.6 283.2 281 278 281.3 275 281.7 281.5 281.9 282.4 282 268.9 282 272.8 282.1 268.4 282.1 269.3 282.1 261.4 282.1 265.8 282.2 263.2 282.2 277.6 282.3 267.1 282.6 267.5 282.8 268.9 283.1 270.2 283.4 270.2 283.8 268 284.1 264.5 284.4 262.8 284.8 260.6 285 256.2 285.2 251.9 285.5 252.7 285.7 256.7 286.1 257.1 286.4 259.7 286.7 259.3 287 257.5 287.5 259.7 288 256.7 288.2 252.7 288.6 259.3 288.9 254.9 289.3 261 289.8 261.4 290.2 260.6 290.7 263.2 291 263.6 291.4 262.8 291.6 262.8 291.8 260.6 292.2 265.8 292.6 265.4 293.3 265.8 293.8 266.2 294.5 265.4 295.1 265.8 295.6 270.2 296.2 272.3 296.9 273.6 297.4 277.1 298 275.8 298.6 274.1 299.2 275.4 299.8 278.9 300.4 278.4 300.9 279.7 301.3 281 301.6 283.2 301.8 281.9 302.2 280.2 302.7 277.1 302.9 270.6 303.2 276.3 303.4 275.4 303.7 273.6 303.9 275.8 304.3 281 304.8 277.6 305.2 287.1 305.5 284.5 306 283.7 306.1 281.9 306.2 281.5 306.3 280.6 306.4 279.3 306.4 278 306.5 277.1 306.6 278.4 306.6 278.9 306.7 278 306.8 276.3 306.9 276.3 306.9 277.6 307 276.3 307.1 275.4 307.2 275.8 307.3 275 307.3 275.4 307.4 275.8 307.5 277.6 307.6 278.9 307.6 278 307.7 278.4 307.8 278.9 307.9 278.9 308 279.3 308.1 281.9 308.1 281 308.2 283.2 308.3 280.2 308.4 282.4 308.4 280.2 308.7 285 309.2 281.9 309.5 281 309.9 275.4 310.3 276.7 310.7 273.6 311.1 273.2 311.3 264.5 311.5 274.1 311.7 275 312 278.9 312.5 278.4 313 283.7 313.3 291.5 313.5 301.1 313.7 295.4 314.1 293.7 314.7 292.8 315.3 292.8 315.8 286.7 316.3 287.1 316.3 288 316.4 288.9 316.5 289.8 316.6 288 316.7 288.9 316.8 288.9 316.9 288.9 317 288.9 317.1 285.8 317.1 285 317.2 286.7 317.3 283.7 317.4 284.5 317.5 283.7 317.5 290.2 317.6 292.4 317.6 294.1 317.7 290.6 317.8 291.9 317.8 291.1 317.9 289.3 318 291.1 318 292.4 318.1 292.4 318.2 291.1 318.3 289.8 318.3 290.2 318.4 292.4 318.5 293.7 318.6 295.4 319 292.4 319.4 295.4 319.8 298.5 320.4 296.7 321 297.2 321.4 283.2 321.7 294.6 322 300.7 322.2 300.2 322.6 300.7 322.8 299.3 323.1 297.6 323.5 303.3 323.9 299.3 324.3 298.5 324.6 300.7 324.8 302.8 325 298.5 325.5 299.8 325.9 298.9 326.1 293.7 326.5 293.7 327.1 291.9 327.5 287.1 327.7 287.1 328.1 286.3 328.5 291.1 329.1 291.9 329.8 289.3 330.3 295 330.6 295 331.2 294.1 331.7 288.5 332 292.4 332.5 295 332.9 295.4 333.3 302 333.6 304.1 334.1 303.7 334.4 308.1 334.7 308.9 334.8 309.8 334.9 312.4 335 312 335 307.6 335.1 311.1 335.1 314.2 335.2 314.2 335.3 314.2 335.3 314.6 335.4 315 335.4 314.6 335.5 313.7 335.6 312.8 335.7 318.5 335.7 319.8 335.8 318.5 335.9 321.6 335.9 322 336 324.2 336 327.7 336.1 328.1 336.1 326.4 336.2 328.5 336.2 330.3 336.3 329 336.3 329.4 336.4 325.5 336.5 324.2 336.5 322.9 336.6 322.9 336.6 319.8 336.7 319.4 336.8 318.9 336.9 319.4 336.9 320.3 337 319.8 337.1 317.2 337.1 314.6 337.2 315 337.3 315 337.4 312.8 337.4 314.2 337.5 313.7 337.6 314.6 337.7 313.3 337.8 313.3 337.9 313.7 337.9 313.3 338 311.5 338.1 311.1 338.2 310.7 338.3 311.5 338.3 310.7 338.4 311.1 338.5 311.5 338.6 312 338.7 310.2 338.8 307.2 338.8 308.9 338.9 310.2 339 311.1 339.1 312 339.2 312 339.2 312.8 339.3 311.5 339.4 309.4 339.5 310.7 339.5 312.8 339.6 312.4 339.7 311.1 339.8 312.4 339.9 313.7 339.9 308.5 340 308.9 340.1 312 340.2 315.5 340.2 315 340.3 315.9 340.4 317.6 340.4 317.2 340.5 317.6 340.6 319.8 340.6 319.4 340.7 319.8 340.8 320.3 340.8 321.1 340.9 319.4 341 317.6 341 318.9 341.2 317.2 341.4 312.8 341.7 309.4 342 306.8 342.4 312.4 342.7 301.1 343 306.8 343.4 307.2 343.8 306.8 344 298 344.3 296.7 344.6 300.2 345 294.6 345.2 289.8 345.5 290.6 345.9 294.1 346.2 292.4 346.7 293.2 347.1 291.5 347.5 291.9 347.8 291.9 348.1 294.1 348.4 295.4 348.7 298.9 349 295.9 349.4 297.6 350 300.2 350.5 298.9 351 294.6 351.4 296.7 352.1 298 352.9 301.1 353.5 302 354.1 301.5 354.6 302 355.1 299.8 355.7 297.2 356.4 301.5 356.8 304.1 357.1 310.7 357.4 311.5 357.7 319.4 357.9 315.5 358.1 315.5 358.4 310.7 358.7 308.1 359.3 305 359.8 305.4 360.2 311.5 360.5 313.7 360.9 312 361.2 315 361.4 315.9 361.7 320.7 361.9 327.7 362.2 318.9 362.6 318.5 363 320.3 363.4 318.9 363.8 317.2 364.1 319.8 364.4 318.9 364.7 318.1 364.9 317.6 365.3 318.1 365.5 320.7 365.8 320.3 366 317.2 366.4 316.8 366.9 321.1 367.4 318.9 368 318.5 368.6 319.4 369.2 325.9 369.7 325.9 370.3 322.9 370.9 318.9 371.3 313.7 371.8 321.6 372.1 322 372.4 318.1 372.7 315.9 373.1 312 373.4 316.3 373.8 316.8 374.1 315 374.5 315 375.2 316.3 375.7 311.5 376.1 314.2 376.5 316.3 376.7 321.6 377.1 325.5 377.4 322.9 377.8 322 378.1 320.7 378.5 321.1 379 321.6 379.4 322 379.7 319.8 380 318.5 380.4 318.9 380.8 323.7 381.3 320.3 381.9 320.7 382.3 319.4 382.9 320.7 383.7 316.3 384.4 317.2 385.1 316.3 385.7 315 386.1 313.3 386.7 315 387.3 318.9 387.7 319.8 388.1 320.7 388.7 319.4 389.3 323.7 389.4 327.2 389.7 333.8 390 332.5 390.4 330.3 390.8 334.2 391.1 334.6 391.5 338.1 391.7 343.3 391.9 339 392.3 344.2 392.5 352.1 392.8 348.6 393 350.7 393.2 350.3 393.5 351.2 393.8 351.2 394.2 353.8 394.6 353.8 395.1 352.1 395.3 353.4 395.9 349.9 396.4 353.4 396.8 358.2 397.1 355.1 397.5 360.3 397.8 357.7 398 359.5 398.1 361.2 398.2 358.6 398.2 358.6 398.3 358.2 398.3 356.8 398.4 357.7 398.5 357.7 398.6 358.2 398.6 359.5 398.7 359.9 398.8 359.5 398.8 357.3 398.9 356.4 399 357.3 399.2 359 399.4 356.4 399.8 356 400.2 357.3 400.4 356 400.8 359 401 347.7 401.3 346.4 401.6 344.6 401.7 337.7 401.8 326.4 401.9 323.7 402 325.5 402.2 332.9 402.4 345.5 402.6 347.7 402.8 349.4 403.1 352.1 403.2 351.6 403.4 347.7 403.7 343.8 404.1 344.2 404.3 339 404.6 337.2 404.9 346 405.3 346.4 405.6 350.3 405.9 339.9 406.2 335.1 406.6 339.4 407 338.1 407.3 331.1 407.6 323.7 407.8 319.8 408 319.8 408.1 315.5 408.3 320.3 408.6 325 408.9 324.2 409.3 328.1 409.7 328.1 410 326.8 410.4 322.4 410.6 319.8 411 315.9 411.3 313.7 411.6 313.3 411.9 310.2 412.1 307.6 412.4 310.7 412.6 309.8 412.8 315.5 413.2 313.7 413.5 322 413.9 318.9 414.3 318.9 414.6 312.8 415 311.5 415.4 311.5 415.8 309.8 416.1 307.6 416.4 307.2 416.9 310.2 417.3 308.9 417.8 306.3 418.2 307.2 418.8 306.3 419.3 301.1 419.7 300.7 420 298.5 420.5 297.6 420.9 301.1 421.3 297.2 421.9 298.5 422.3 298 422.6 300.2 423 300.2 423.5 302.8 423.9 298.5 424.3 301.1 424.6 299.8 425 302.4 425.2 309.8 425.6 307.6 425.9 304.6 426.2 304.6 426.7 301.5 427.1 300.7 427.6 302.4 428 299.3 428.4 296.7 428.7 297.6 429.1 292.4 429.4 291.9 429.6 291.5 429.8 293.2 430.2 298.5 430.6 303.7 430.9 308.1 431.2 308.1 431.5 306.3 431.8 307.2 432.2 310.2 432.7 313.3 432.9 311.1 433.2 310.2 433.5 318.1 433.7 313.3 434 310.2 434.3 313.7 434.7 319.4 434.9 324.6 435.1 326.4 435.3 329.8 435.6 319.8 435.8 329.4 436.1 326.4 436.4 322.4 436.7 325.5 437.2 330.3 437.6 325.5 437.9 331.1 438.2 332 438.6 326.4 438.9 326.4 439.2 316.8 439.3 312 439.6 312.4 439.9 318.1 440.4 322 440.8 324.6 441.2 323.7 441.8 321.1 442.3 321.1 442.7 320.3 443.2 315.9 443.6 309.4 443.9 310.2 444.4 310.2 444.9 308.1 445.3 314.2 445.7 318.9 446.2 318.1 446.5 314.6 447.1 314.2 447.8 316.3 448.2 318.9 448.8 319.4 449.1 321.6 449.5 320.3 449.9 322 450.4 324.2 450.9 324.6 451.3 324.2 451.7 328.1 452.1 326.8 452.4 330.3 452.8 329.4 453.2 332.5 453.7 326.8 454 324.6 454.5 326.4 455.2 325 455.7 322 456.2 319.4 456.7 322.4 457.2 324.2 457.7 324.2 458 319.8 458.3 319.8 458.6 318.9 459.1 322 459.6 324.2 460.2 325 460.7 328.5 461 329.8 461.4 329.8 461.6 331.1 461.7 328.5 461.8 327.7 462.1 322.9 462.5 325.5 462.9 327.7 463.3 323.3 463.5 319.8 463.8 319.8 464 318.5 464.3 307.2 464.5 303.7 464.7 303.7 465 308.1 465.3 305.9 465.6 302.8 465.9 298.5 466.3 297.2 466.5 296.7 466.7 293.2 466.8 288.5 467 286.7 467.3 287.1 467.5 293.7 467.8 293.2 468.1 296.7 468.6 293.7 469.1 294.1 469.7 292.4 470.1 291.9 470.6 291.5 471.2 293.7 471.8 291.1 472.2 289.8 472.9 288.9 473.5 290.2 474.1 288.9 474.8 287.6 475.2 286.7 475.5 284.5 476.1 288.5 476.6 281.5 477 283.7 477.7 284.1 478.2 281.9 478.8 285.4 479.6 283.2 480.1 281 480.5 281 480.8 282.8 481.4 285.4 481.9 286.3 482.4 288 483.1 292.4 483.5 292.8 484.1 290.2 484.5 287.1 485.1 285 485.6 282.8 485.9 276.7 486.3 279.3 486.7 274.1 486.9 271.5 487.2 271 487.6 273.6 487.9 274.5 488.4 269.7 488.8 274.1 489.5 273.6 489.8 267.1 490.1 261.9 490.3 262.8 490.6 261.9 490.9 262.3 491.1 260.6 491.5 263.2 491.8 271.9 492.1 271 492.5 274.1 492.9 275.4 493.5 271 494.1 264.9 494.6 259.7 495 261.4 495.4 260.1 495.8 259.3 496.3 261.4 496.7 259.3 497.1 255.3 497.5 251.9 497.8 252.3 498.4 255.8 498.8 250.1 499.2 250.1 499.6 249.2 500 252.7 500.6 249.2 501 244.5 501.4 255.3 501.8 253.6 502.1 248.8 502.4 244.5 502.7 243.6 503 256.2 503.4 249.7 503.7 246.2 504.1 247.9 504.4 246.2 504.8 249.7 505.2 252.7 505.6 255.3 506.1 255.3 506.5 261.4 507 261.4 507.5 253.6 508 258.4 508.5 256.7 508.9 260.6 509.5 262.8 510.1 261.9 510.6 267.1 511 261.4 511.4 256.7 511.7 262.8 512.4 263.2 512.9 258 513.5 254 514 259.7 514.7 261.9 515.3 258.8 515.8 255.3 516.3 258 516.6 256.7 516.9 272.3 517.2 270.6 517.5 272.3 517.7 266.7 518 267.1 518.5 271.5 518.9 277.6 519.1 278 519.6 278 520 272.8 520.5 273.2 521.2 275.4 521.6 284.1 521.9 279.3 522.3 283.7 522.4 293.7 522.6 295.9 522.7 298.5 522.9 295.4 523.2 298 523.3 303.7 523.6 304.1 523.7 309.4 523.9 308.5 524.2 305.4 524.6 302 525.2 297.6 525.7 298 526.1 301.1 526.5 303.3 526.7 304.6 527.1 302.8 527.3 304.1 527.5 303.3 527.6 302.8 527.8 301.5 528.2 304.1 528.5 296.3 528.6 304.6 528.7 311.1 528.8 307.2 529.1 310.7 529.4 305 529.7 309.8 529.8 308.9 530.1 311.5 530.3 313.7 530.6 312.4 531 310.7 531.3 312 531.6 312 531.9 309.8 532.3 306.8 532.8 307.6 533.2 306.3 533.7 307.6 534.1 306.3 534.6 304.1 535 302 535.4 307.2 535.8 305.4 536.2 302 536.6 298.9 537 295.4 537.4 295.4 537.8 295.4 538.1 294.6 538.6 295.9 539.1 296.7 539.5 297.6 539.9 298.5 540.3 300.2 540.6 299.8 541 304.1 541.4 302 541.7 297.2 542.1 293.2 542.7 297.2 543 294.1 543.5 304.1 543.9 306.3 544.3 302 544.8 301.1 545.3 298.9 545.8 298.9 546.3 298 546.8 302 547.3 298 547.9 300.2 548.3 297.6 548.8 295 549.3 295.9 549.8 299.3 550.4 298.9 550.9 306.8 551.3 302.4 551.9 297.2 552.3 300.7 552.5 291.9 552.8 287.1 553.1 283.2 553.3 278.4 553.5 278.9 553.7 291.5 554 293.7 554.3 296.7 554.6 292.4 555 294.6 555.2 290.6 555.6 294.6 556 290.2 556.3 295 556.4 308.1 556.6 306.3 557 301.1 557.3 295.4 557.7 297.6 558.1 295.9 558.6 298.9 559 293.7 559.6 291.9 560 288.9 560.4 290.6 560.8 291.5 561.2 292.8 561.6 285 561.8 275.4 561.9 275.4 562 272.8 562.1 275 562.2 282.4 562.5 278.9 562.6 278.9 562.8 278 563.1 273.2 563.3 272.3 563.5 272.3 563.8 268.4 564.2 271 564.5 267.1 564.8 273.6 565.1 275 565.5 273.2 565.8 275.8 566.2 273.6 566.7 275.4 567.2 278 567.6 278 568.1 278 568.6 281.5 569.1 279.7 569.7 284.5 569.9 284.5 570.2 279.7 570.7 280.2 571.1 282.4 571.7 282.8 572.3 286.7 572.8 281 573.3 282.8 573.9 289.3 574.3 294.1 574.9 287.6 575.5 285.8 575.9 286.3 576.5 289.8 577.1 287.6 577.7 288 578.3 293.7 578.8 294.6 579.2 296.7 579.8 295.4 580.2 296.7 580.5 302 580.9 302 581.3 299.3 581.8 293.7 582.2 296.7 582.6 292.4 583.1 289.8 583.4 293.2 583.9 291.5 584.5 291.1 585 289.8 585.4 287.1 585.8 286.7 585.9 301.1 586.1 302.8 586.3 302.4 586.5 295.4 586.9 299.3 587.2 293.2 587.4 285 587.6 277.1 587.8 281 588.2 287.1 588.5 281.5 588.8 286.7 589.1 295 589.5 289.3 589.8 296.3 590.2 293.2 590.6 285.8 591.1 282.4 591.4 282.8 591.7 285 592.2 288 592.8 290.2 593.3 294.6 593.9 291.1 594.6 292.4 595.3 290.6 596 288.9 596.4 292.8 596.6 294.6 597 293.7 597.3 294.6 597.8 295.4 598.3 296.3 598.9 296.7 599.3 299.3 599.7 303.3 600.1 300.7 600.4 296.3 600.9 295.4 601.2 290.2 601.7 291.5 602.3 291.5 602.8 292.4 603.3 294.1 603.9 294.6 604 294.1 604.1 295 604.2 295.9 604.3 295 604.3 294.6 604.4 292.8 604.5 292.8 604.6 293.7 604.7 293.2 604.7 295.9 604.8 295 604.9 295 605.2 294.1 605.7 295.4 606.2 295.9 606.7 295.9 607.3 296.7 607.9 291.5 608.3 292.8 608.9 295 609.5 297.2 610.1 296.3 610.6 299.3 611.1 296.7 611.4 297.6 611.8 296.3 612 305.9 612.2 302.4 612.7 300.7 613.1 303.3 613.4 303.3 613.7 306.3 614 308.5 614.3 310.7 614.5 314.6 614.8 315 615.2 314.6 615.6 317.6 615.9 315.9 616.3 315.9 616.6 321.1 616.9 308.9 617.2 307.6 617.6 305.9 617.7 292.8 617.8 295.9 618 301.1 618.2 309.8 618.5 305 618.9 306.3 619.3 306.8 619.7 305 620.1 305.4 620.6 309.4 621.1 315.9 621.3 317.2 621.5 319.4 621.7 322 622 322 622.3 326.4 622.5 330.7 622.6 335.1 622.8 332.5 623.1 332 623.3 329 623.6 331.6 624 329.8 624.4 329.8 624.8 332.9 625.4 332 625.9 334.2 626.1 337.7 626.5 332 627 331.6 627.6 333.8 628.3 332.5 628.8 333.8 629.5 336.8 629.9 330.3 630.6 329.4 630.9 326.8 631.6 326.8 632.2 327.7 632.9 328.5 633.7 326.8 634.4 328.1 635 329.4 635.6 333.8 636.3 330.7 636.8 328.1 637.3 325.9 638.1 327.2 638.5 330.3 638.8 332 639.1 336.4 639.3 339 639.9 335.9 640.4 332 641 336.8 641.5 337.2 641.9 335.9 642.5 338.6 643.2 336.4 643.8 337.7 644.3 336.8 644.8 343.3 645 348.1 645.3 346.8 645.6 350.7 645.8 354.7 646 351.6 646.3 347.3 646.7 349.4 647.1 349.4 647.5 342.9 648.1 352.9 648.5 352.1 648.8 356.8 649.1 351.6 649.6 347.7 650.2 351.6 650.5 340.7 650.9 346 651.3 347.3 651.7 342.9 652.2 339.4 652.4 335.9 652.6 331.6 652.8 334.6 653.1 331.1 653.4 336.8 653.7 333.3 654.1 335.1 654.6 334.6 655.1 331.6 655.7 333.3 656.4 334.2 657 337.7 657.8 336.4 658.3 332.9 658.9 329.8 659.2 326.8 659.5 322.4 659.7 322.4 660 323.3 660.5 328.5 660.9 322 661.3 319.8 661.4 318.9 661.5 318.9 661.6 315.9 662.1 318.1 662.6 321.6 663.1 321.1 663.5 316.3 663.9 318.1 664.3 322 664.7 322.9 665.2 324.6 665.7 325.9 666.1 321.6 666.6 323.7 667.3 326.4 667.9 325.9 668.6 328.1 669.1 325.5 669.7 326.4 670.1 322 670.7 320.7 671.2 320.7 671.7 319.8 672.1 318.1 672.7 322.4 673.1 326.8 673.6 327.7 674 329.4 674.4 330.3 674.8 332 674.9 331.6 675 331.1 675.1 331.1 675.2 332 675.2 331.6 675.3 331.1 675.4 331.6 675.5 334.6 675.6 335.5 675.9 338.6 676.2 345.1 676.4 344.6 676.8 340.7 677.2 339 677.6 334.2 678 329.8 678 325.9 678.2 329.8 678.5 324.2 678.8 332.5 679.1 325.5 679.4 318.9 679.8 319.4 680.2 326.8 680.5 314.2 680.8 330.3 681.2 327.2 681.5 325 681.7 319.4 682 319.8 682.1 319.8 682.1 319.4 682.5 317.6 682.7 319.4 683.1 319.4 683.5 324.2 683.9 323.7 684.4 324.2 684.8 326.8 685.4 326.4 685.7 329 686.3 329 686.7 328.5 687 328.1 687.6 325 688.2 323.7 688.7 327.2 689.3 326.4 689.6 323.3 690 320.3 690.5 318.9 691 320.7 691.5 316.8 692 315.9 692.5 315.9 692.9 309.8 693.3 308.5 693.6 312.4 694 311.5 694.3 312.4 694.7 315.5 695.1 314.6 695.8 315 696.3 314.2 696.8 315 697.4 314.6 697.8 320.3 698.2 320.3 698.8 319.4 699.5 316.3 700 320.7 700.5 315.5 700.9 311.1 701.2 310.2 701.5 306.3 701.8 306.8 702.3 309.8 702.8 311.1 703.3 311.5 703.8 312 704.3 312.4 704.8 311.5 705.4 315 706 316.3 706.7 315.9 707.2 314.6 707.7 314.6 708.2 313.7 708.7 317.6 708.8 318.5 709.3 322 709.8 320.7 710.1 325.5 710.5 329.4 711 328.1 711.4 325.9 711.7 327.2 712.1 325.5 712.5 325.5 712.9 324.6 713.2 324.6 713.7 323.3 714.1 322.9 714.6 323.7 715 325.5 715.6 325.5 716.1 330.7 716.5 330.3 717.1 329 717.5 329.4 718.1 329.8 718.7 331.6 719.1 332.9 719.7 333.8 720.1 336.8 720.6 339.9 721.1 341.6 721.7 337.2 722.3 339.4 723 341.6 723.5 346.8 724 345.5 724.2 345.1 724.6 345.5 725.2 345.5 725.8 349 726.4 348.6 727 350.7 727.6 354.2 728 354.7 728.3 352.9 729 354.2 729.6 351.6 730.2 351.2 730.9 354.7 731.5 356.4 731.8 349.4 732.2 349.9 732.6 343.8 732.8 336.4 732.8 332.9 732.9 339 733.3 338.6 733.5 337.7 733.8 336.4 734 337.2 734.4 340.7 734.8 342.5 735.1 339.4 735.5 348.6 735.7 350.3 736.1 351.6 736.6 352.9 736.9 355.1 737.4 355.1 737.7 359 738.2 358.6 738.8 359.5 739.3 360.8 739.6 359.9 740.1 356.8 740.5 358.6 740.9 357.7 741.3 359 741.7 356.4 742.2 358.6 742.5 363.4 743 362.1 743.6 360.8 744.3 359.9 744.9 362.5 745.6 362.5 746.1 361.6 746.6 368.2 747.1 368.2 747.6 367.7 748.4 369 749 366.4 749.4 363.4 750 367.3 750.3 369 750.6 365.6 751.1 370.4 751.3 377.3 751.7 372.1 751.9 381.7 751.9 395.2 751.9 386.9 752 398.2 752.1 398.7 752.2 405.2 752.3 407.4 752.4 407.4 752.5 401.7 752.7 399.1 752.8 402.6 752.9 401.7 753.1 407.8 753.2 400.4 753.6 399.5 754.1 399.5 754.6 396.5 755.1 402.6 755.3 394.3 755.7 397.4 755.9 399.5 756.4 399.5 757 396.9 757.7 393 758 395.2 758.5 386.9 758.8 386.5 759.2 383.4 759.5 382.5 759.8 384.3 760.2 384.7 760.7 385.6 761 388.6 761.6 389.1 762 388.6 762.4 388.6 762.9 381.2 763.3 378.2 763.5 377.3 764 379.1 764.7 379.9 765.2 377.8 765.9 379.9 766.4 379.9 766.8 375.6 767.4 378.6 768 383.4 768.4 383.9 768.8 386.5 769.1 387.3 769.5 389.5 769.8 391.7 770.1 386 770.4 394.7 770.8 394.7 771 397.4 771.2 398.2 771.6 391.7 772 398.2 772.4 399.5 772.6 403.9 772.9 407.4 773.2 405.6 773.6 402.2 774.1 400.4 774.6 397.8 775.1 401.7 775.6 404.8 776.2 405.2 776.7 407.8 777.2 404.8 777.7 400 778.2 400 778.7 396.5 779.2 396.1 779.7 395.6 780.3 395.6 781 396.5 781.4 393.4 782 388.6 782.5 388.2 782.8 400.4 782.8 407.4 782.8 404.3 782.9 398.7 783 396.5 783.3 397.8 783.7 399.5 783.9 400.8 784.4 395.6 785 403.5 785.3 408.3 785.8 408.3 786.1 407.8 786.5 409.6 786.7 409.1 787.1 410 787.6 411.7 787.9 413.5 788.2 415.7 788.6 413 789 413.5 789.8 411.3 790.3 412.2 790.8 411.3 791.3 412.2 791.7 412.6 792.3 409.6 792.8 410 793.4 415.2 793.9 411.3 794.4 410.9 794.8 412.6 795.3 412.6 795.6 411.7 796.2 410.4 796.7 408.3 797.3 409.6 797.9 409.1 798.4 416.5 798.8 409.6 799.4 413.5 799.8 410 800.2 402.6 800.6 397.8 801 398.7 801.2 400.4 801.3 399.1 801.3 400.4 801.4 401.3 801.5 400.4 801.5 399.5 801.6 393.4 801.6 393.9 801.7 394.3 801.8 396.1 801.8 394.7 801.9 396.5 802 396.1 802 397.4 802.1 398.2 802.2 399.1 802.4 395.6 802.8 393.4 803.3 394.7 803.9 395.2 804.4 400 805 394.3 805.4 396.5 805.9 400.4 806.5 395.2 806.9 398.7 807.2 403 807.4 406.5 807.5 409.6 807.6 417.4 807.7 411.7 807.9 412.6 808.1 412.6 808.3 413 808.6 413.5 809 417.8 809.4 412.2 809.8 413.9 810.3 414.3 810.7 417.8 811.1 414.3 811.4 415.7 811.7 419.1 812 418.7 812.5 417 812.8 416.5 813.2 407.8 813.3 397.8 813.4 395.6 813.5 393 813.6 395.2 813.7 394.3 814 394.3 814.3 396.5 814.5 393.9 814.8 394.7 815.2 396.5 815.7 398.2 816.1 401.3 816.6 402.6 816.9 406.1 817.1 404.3 817.5 401.3 818 400.8 818.4 400.4 818.8 403 819.1 404.3 819.4 397.8 820 399.1 820.4 397.8 820.7 399.5 821.1 396.5 821.6 393.4 822 393.9 822.4 390 823 387.8 823.3 384.7 823.7 380.4 824.2 384.3 824.6 383.9 825.3 386 825.8 390.8 826.3 388.2 826.7 386 827.1 386 827.4 383 827.7 380.4 828.1 382.1 828.3 379.9 828.6 380.4 829 378.2 829.3 377.8 829.6 380.4 829.9 378.2 830.3 381.7 830.5 378.2 830.8 374.7 830.9 379.1 831.2 377.8 831.5 378.2 831.8 373 832 375.1 832.2 373.8 832.5 370.4 832.7 366.4 832.9 368.2 833.2 371.7 833.5 369.9 833.7 366.4 834 364.7 834.4 362.1 834.6 361.2 835 361.6 835.3 359.5 835.6 356.4 835.9 354.7 836.2 361.6 836.3 355.5 836.4 352.1 836.5 354.2 836.7 354.7 836.8 355.1 836.8 356 836.9 355.5 837 354.2 837.2 351.6 837.4 354.2 837.8 356.4 838 352.9 838.3 354.7 838.6 356 838.9 357.3 839.2 353.4 839.4 352.5 839.7 352.9 840 353.4 840.3 357.3 840.7 361.6 841 365.1 841.2 359.9 841.4 363.4 841.7 369.5 841.9 374.7 842.1 378.6 842.3 371.7 842.4 369.5 842.8 367.7 843.1 371.2 843.4 372.5 843.8 369 844.2 371.7 844.7 373.8 845.1 380.4 845.6 376 846 375.1 846.4 377.8 847.1 378.2 847.5 379.9 847.8 381.7 848.2 376.5 848.6 379.1 848.9 387.3 849.1 387.3 849.5 386.5 849.6 386 850 386 850.5 386 850.9 390 851.3 389.5 851.8 389.1 852.3 388.2 852.7 390.4 853 387.3 853.4 387.8 853.7 389.5 854.1 383.9 854.5 380.8 855 380.8 855.5 386.9 855.9 386.5 856.2 390 856.6 389.1 857 387.8 857.6 386 857.9 384.7 858.4 383.4 858.7 381.7 859.1 386 859.7 385.6 860.2 388.2 860.6 388.2 860.9 387.3 861.1 390.8 861.5 386.5 861.8 391.3 862 390.8 862.3 387.3 862.7 388.2 862.9 395.2 863.4 393.9 863.5 400.4 863.7 403.5 863.8 407.8 863.9 412.6 864.2 403.5 864.6 402.6 865 406.9 865.3 404.8 865.6 402.2 866.1 400 866.5 393.4 866.6 385.2 866.8 389.5 867.1 390.8 867.6 390.4 867.9 389.1 868.4 392.1 869 393.9 869.6 393.9 870.2 395.2 870.6 392.1 871 389.1 871.6 389.5 872.2 389.5 872.9 390.4 873.3 391.3 873.9 391.7 874.4 395.6 874.9 393.9 875.4 389.5 875.8 387.8 876.3 385.6 876.7 384.3 877.4 385.2 877.9 379.5 878.1 376.5 878.4 374.7 878.4 376 878.6 376.9 879 379.1 879.3 376 879.9 379.5 880.3 374.7 880.7 376 881.3 376.5 881.6 376 882.2 376.5 882.6 377.3 883.1 371.2 883.4 370.4 883.9 371.7 884.3 370.8 884.7 369 885.1 370.8 885.5 375.1 885.9 382.1 886.3 378.2 886.5 375.6 886.8 380.4 887 377.8 887.4 377.8 887.7 384.7 888 379.9 888.2 384.7 888.4 382.5 888.8 384.3 889.1 387.3 889.5 383.9 889.9 387.3 890.1 392.1 890.3 390 890.8 387.3 891.2 390.4 891.6 390 892 388.2 892.3 391.3 892.7 392.6 893.1 392.1 893.4 393.4 893.8 393.4 894.2 397.4 894.6 401.3 894.8 397.8 894.9 390 894.9 394.3 895 389.5 895.1 387.3 895.1 384.3 895.2 384.3 895.3 383.9 895.3 380.8 895.3 371.2 895.4 371.2 895.4 376.9 895.5 372.1 895.6 373 895.6 364.7 895.7 361.2 895.7 357.7 895.7 358.6 895.8 368.6 895.8 371.2 895.8 361.6 895.9 357.7 895.9 365.6 895.9 376.5 895.9 379.1 896 382.1 896.1 376.9 896.1 370.4 896.1 371.2 896.2 374.3 896.3 373.8 896.4 363.8 896.4 359.9 896.5 357.7 896.5 359.9 896.6 362.1 896.7 365.6 896.8 358.6 896.8 359.9 896.8 352.1 896.8 342.9 896.8 342.9 896.9 354.7 896.9 347.7 896.9 354.7 896.9 354.7 897 352.9 897 345.1 897 344.2 897.1 342 897.1 344.6 897.1 335.1 897.1 336.8 897.1 343.8 897.1 344.2 897.2 342 897.2 346 897.2 356.8 897.2 361.2 897.2 363.4 897.3 368.2 897.3 369 897.3 369 897.4 367.7 897.4 373 897.5 375.1 897.6 374.3 897.7 378.2 897.8 378.2 898 375.1 898.1 379.5 898.2 373.8 898.3 371.2 898.4 373 898.5 369 898.6 367.3 898.6 363.8 898.7 361.2 898.8 368.2 899 368.6 899.1 371.2 899.3 373.4 899.5 371.7 899.7 373 899.9 374.3 900 373.4 900.2 376.9 900.3 377.3 900.5 374.3 900.7 372.1 900.8 368.6 900.9 361.6 901 361.2 901.1 357.7 901.2 361.6 901.3 361.6 901.4 365.6 901.4 352.5 901.4 349 901.5 343.3 901.5 342.9 901.5 340.3 901.6 332.9 901.6 333.8 901.6 345.5 901.6 336.8 901.6 347.3 901.6 355.1 901.7 351.6 901.7 351.2 901.7 360.8 901.7 359.9 901.8 357.7 901.9 355.5 902 354.7 902.1 349.4 902.2 345.1 902.3 348.1 902.4 348.6 902.5 349 902.5 347.3 902.6 343.8 902.7 341.6 902.8 342.9 902.9 344.6 903 343.8 903.2 347.7 903.3 352.1 903.4 352.5 903.5 354.7 903.6 356.4 903.6 356 903.8 361.6 903.8 362.5 904 361.6 904.2 363.4 904.3 358.2 904.6 360.8 904.8 358.2 904.9 358.2 905.1 357.7 905.3 359.5 905.5 361.2 905.7 362.9 905.9 358.2 906.1 359 906.2 352.5 906.3 353.4 906.4 354.7 906.7 353.4 906.9 354.7 907.1 352.5 907.3 354.2 907.4 350.7 907.7 354.2 907.8 352.9 908 356.4 908.2 356.8 908.4 354.2 908.6 350.7 908.9 353.4 909.2 355.1 909.3 354.7 909.6 355.5 909.8 349.9 910 348.6 910 341.6 910.2 350.3 910.4 356 910.6 359 910.8 360.8 911.1 357.3 911.3 359.5 911.4 366.4 911.5 376 911.5 370.4 911.5 367.7 911.6 372.1 911.7 379.1 911.7 380.8 911.8 387.3 911.8 388.6 911.8 391.7 911.9 400 911.9 400.4 911.9 399.1 912 398.2 912.1 408.3 912.1 406.1 912.2 408.7 912.2 417 912.2 421.3 912.3 419.1 912.3 427.9 912.3 424.4 912.3 424.8 912.4 424.4 912.4 418.3 912.5 417.4 912.5 415.2 912.6 415.7 912.7 417 912.8 420.4 912.9 423.9 913 423.9 913.1 417.8 913.2 412.2 913.3 411.3 913.5 417.4 913.6 423.5 913.7 426.1 913.8 422.6 913.9 426.1 914 434.8 914.1 433.5 914.2 430.9 914.3 440.1 914.4 434.4 914.5 434 914.7 436.1 914.9 436.6 915 436.1 915.1 435.3 915.2 434 915.3 432.2 915.5 431.8 915.7 434.8 915.8 437.9 916 436.6 916.1 434 916.3 437 916.5 434.8 916.6 433.5 916.9 429.6 917 431.8 917.3 435.3 917.5 432.6 917.6 429.6 917.8 427.4 917.9 427 918.2 424.4 918.4 426.5 918.6 421.8 918.8 417.8 918.9 423.1 919.1 421.3 919.3 425.7 919.6 423.9 919.8 424.4 920.1 423.5 920.3 421.8 920.6 425.2 920.9 428.3 921 410.4 921.1 411.7 921.3 406.9 921.4 413.9 921.5 409.6 921.8 410 922 410 922.2 405.2 922.4 414.3 922.5 410 922.7 411.7 923 412.6 923.2 408.3 923.6 410.4 923.9 413.5 924.1 412.6 924.3 405.6 924.5 403 924.8 403.9 925 400 925.2 394.7 925.3 390.8 925.3 384.3 925.3 383 925.3 378.2 925.3 373.8 925.4 362.5 925.4 382.5 925.4 378.2 925.4 371.2 925.4 366 925.4 371.2 925.4 366 925.4 362.1 925.4 356 925.4 362.9 925.4 356.4 925.5 366.9 925.5 381.7 925.5 374.7 925.5 366 925.5 373.8 925.5 376 925.6 387.3 925.6 393.4 925.6 394.3 925.6 393.4 925.7 396.9 925.7 400 925.7 401.3 925.8 397.8 925.9 399.1 926.1 398.2 926.2 393.9 926.3 394.7 926.3 395.6 926.5 391.7 926.7 391.7 926.8 395.2 927.1 393 927.2 389.5 927.5 388.2 927.6 388.2 927.8 390 928 394.3 928.2 393 928.3 390.4 928.4 386 928.5 386.9 928.7 386 928.9 390.4 929.1 390.4 929.2 386 929.4 380.4 929.5 383.9 929.6 386.5 929.8 386 930 380.8 930.2 383.9 930.4 388.2 930.6 391.3 930.9 389.5 931.1 387.3 931.3 389.5 931.6 385.6 931.8 384.3 932.1 383.4 932.2 376.9 932.4 379.1 932.6 378.6 932.7 375.1 932.9 379.1 933 380.4 933.2 377.8 933.3 373 933.4 371.2 933.5 372.5 933.7 373.4 933.9 369.9 934 369.9" opacity=".6"/><text x="942" y="472" fill="#d97706" font-size="11" text-anchor="start">0.02</text><text x="942" y="396" fill="#d97706" font-size="11" text-anchor="start">0.02</text><text x="942" y="320" fill="#d97706" font-size="11" text-anchor="start">0.02</text><text x="942" y="244" fill="#d97706" font-size="11" text-anchor="start">0.02</text><text x="942" y="168" fill="#d97706" font-size="11" text-anchor="start">0.02</text><text x="942" y="92" fill="#d97706" font-size="11" text-anchor="start">0.03</text><text x="942" y="80" fill="#d97706" font-size="11" font-weight="600" text-anchor="start">price</text><polygon fill="#16a34a" fill-opacity=".08" points="207.1 468 207.1 116.2 207.1 116.3 914.3 116.1 914.3 468"/><polyline fill="none" stroke="#16a34a" stroke-linejoin="round" stroke-width="2" points="207.1 116.2 207.1 116.3 914.3 116.1"/><line x1="88" x2="110" y1="102" y2="102" stroke="#16a34a" stroke-width="2.5"/><text x="116" y="106" fill="#374151" font-size="11.5">equity</text><line x1="88" x2="110" y1="118" y2="118" stroke="#d97706" stroke-width="2.5" opacity=".8"/><text x="116" y="122" fill="#374151" font-size="11.5">price</text><text x="78" y="502" fill="#6b7280" font-size="12" text-anchor="start">2026-02-01</text><text x="934" y="502" fill="#6b7280" font-size="12" text-anchor="end">2026-02-28</text></svg>