<svg xmlns="http://www.w3.org/2000/svg" width="1000" height="520" font-family="ui-sans-serif, system-ui, sans-serif" viewBox="0 0 1000 520"><rect width="1000" height="520" fill="#fff"/><text x="78" y="28" fill="#111827" font-size="18" font-weight="700">Zone Recovery — 1000BONKUSDC best setting (equity / PnL)</text><text x="78" y="48" fill="#6b7280" font-size="12.5">lev 5 · ratio 2 · gap 20% · maxSteps 4 · maxDD 60% · random · vip 9 · 20 series, 100.0% win · vol $4591389 ($148109/day) · fees $388.43</text><text x="78" y="68" fill="#1d4ed8" font-size="12.5" font-weight="600">USDC · BNB −10% · taker 0.0085%</text><text x="934" y="28" fill="#16a34a" font-size="18" font-weight="700" text-anchor="end">+88531 USDT (+885.31%)</text><line x1="78" x2="934" y1="468" y2="468" stroke="#e5e7eb" stroke-width="1"/><text x="68" y="472" fill="#6b7280" font-size="12" text-anchor="end">0.00</text><line x1="78" x2="934" y1="392" y2="392" stroke="#e5e7eb" stroke-width="1"/><text x="68" y="396" fill="#6b7280" font-size="12" text-anchor="end">21283</text><line x1="78" x2="934" y1="316" y2="316" stroke="#e5e7eb" stroke-width="1"/><text x="68" y="320" fill="#6b7280" font-size="12" text-anchor="end">42565</text><line x1="78" x2="934" y1="240" y2="240" stroke="#e5e7eb" stroke-width="1"/><text x="68" y="244" fill="#6b7280" font-size="12" text-anchor="end">63848</text><line x1="78" x2="934" y1="164" y2="164" stroke="#e5e7eb" stroke-width="1"/><text x="68" y="168" fill="#6b7280" font-size="12" text-anchor="end">85130</text><line x1="78" x2="934" y1="88" y2="88" stroke="#e5e7eb" stroke-width="1"/><text x="68" y="92" fill="#6b7280" font-size="12" text-anchor="end">106413</text><line x1="78" x2="934" y1="432.3" y2="432.3" stroke="#9ca3af" stroke-dasharray="6 4" stroke-width="1.5"/><text x="934" y="426.3" fill="#6b7280" font-size="11" text-anchor="end">start 10000</text><polyline fill="none" stroke="#d97706" stroke-linejoin="round" stroke-width="1.2" points="78 393.4 79.4 391.4 81.1 392.8 83.8 394 85.8 391.9 88.5 388.8 90.7 386 93 388 94.4 382.3 95.8 381 96.2 375.9 96.4 376.4 97.1 376.1 97.7 374.1 98.1 369.3 98.7 369.8 99.6 371.9 100.8 369.1 101.2 365.3 101.9 366.7 102.7 366.1 103.5 361.1 104.3 359.1 104.6 358.1 105.2 359.7 105.7 358.1 106.2 360.7 106.9 361.9 107.7 363 108.6 362.2 109.1 360 109.5 353.8 109.6 350.9 109.8 351.4 110 348 110.2 348.2 110.6 351.6 111.1 350.4 111.7 350 112.4 350.6 112.7 345.8 113 349.9 113.8 350.7 114.5 356.4 115.1 352.9 115.8 350.3 116.2 342.7 116.7 344.2 116.9 339.6 116.9 338.3 117.1 337.8 117.4 336.1 117.5 337.5 117.8 336.6 118.1 334 118.3 331.9 118.5 335.4 118.8 338.9 119.1 341 119.2 344.1 119.6 342.2 120 339.7 120.1 334.4 120.2 327.9 120.2 332.8 120.3 329.9 120.4 332.1 120.7 329.9 121 329.7 121.3 328.4 121.5 328 121.8 329 122.1 335.2 122.2 336.5 122.4 339.3 122.5 333.4 122.6 334.7 122.7 328.6 122.9 330.8 123.1 331.8 123.3 334.4 123.5 331.5 123.7 330.7 123.9 328.9 124.3 330.2 124.4 326.6 124.6 327.8 124.7 324.4 124.9 324.3 125 322.4 125.1 324.4 125.2 321 125.4 321.5 125.5 322.3 125.8 320.6 126 322.9 126.3 324.3 126.6 318.4 126.9 321.8 127.3 322.7 127.6 323.8 128.2 323.3 128.7 315.8 128.8 316.5 129.2 318.5 129.9 320 130.4 316.5 130.8 312.6 131 306.2 131.2 312.3 131.6 313.6 131.9 307 132.1 310.2 132.4 309.4 132.8 309.9 133.1 309 133.4 309.6 133.7 307.1 134 307.2 134.1 305.5 134.4 309.6 134.7 308.3 135.1 310.7 135.5 312.4 135.8 311.2 136.2 309 136.4 304.9 136.7 306.2 137 308.2 137.4 305.3 137.7 304.7 138.3 308.8 138.9 307.7 139.4 307.7 139.8 311.1 140.3 307.2 140.5 307 140.9 311.9 141.1 320.1 141.2 317.2 141.6 319 141.7 323.9 141.8 325.2 141.9 328.5 142.3 327.4 142.7 327.2 143 327.6 143.1 323.2 143.3 322.8 143.5 322.8 143.9 323.6 144.2 320 144.3 315.1 144.6 315.5 144.8 317.3 145.1 321.9 145.5 322.1 146.2 323.8 146.8 323.9 147.6 322.3 148.3 319.9 148.9 319.9 149.6 318.7 150 316.7 150.6 316.8 151.2 317.2 151.7 316.6 151.9 313.8 152.1 312.3 152.4 312.3 152.9 314.4 153.5 311.9 153.9 312.4 154.2 315.6 154.9 313.5 155.8 314.6 156.4 319.1 157.2 315.7 158 314.4 158.9 312.7 159.2 305.5 159.7 307.3 160 303.6 160.2 302.3 160.5 306 160.9 304.7 161 300 161.2 298.9 161.4 296.8 161.5 295.8 161.7 296.6 161.8 297.8 161.9 290.7 162.1 288.7 162.2 285.8 162.3 284.3 162.5 281.3 162.6 282.4 162.7 276.7 162.8 275.8 162.8 285.1 162.9 286.4 163.1 281.8 163.2 281 163.3 280.2 163.4 275.5 163.5 270.1 163.5 268.7 163.6 265.4 163.7 265.3 163.8 261.7 163.8 258.8 163.9 253.5 163.9 254.7 164 257.2 164.1 254.8 164.1 252.9 164.2 253.7 164.3 251.2 164.3 247 164.3 246.7 164.4 251.7 164.4 246.9 164.5 247.4 164.5 237.7 164.6 239.3 164.6 235.3 164.6 235.6 164.7 235.2 164.7 239.4 164.8 237.2 164.9 238.7 164.9 238.5 165 235.6 165.1 238.3 165.1 239.8 165.2 242.8 165.2 243.8 165.3 240.2 165.4 241.7 165.5 243 165.6 245 165.8 243.6 165.9 240.8 165.9 233.9 165.9 229.1 166 225.2 166 229.7 166 237.6 166.1 235.8 166.2 233.7 166.3 236.3 166.4 235.6 166.5 237.8 166.6 235.9 166.7 233.2 166.7 231.7 166.8 229.6 166.9 229.4 167 232.9 167.1 231.2 167.2 231.6 167.3 235.1 167.4 231.5 167.4 227.4 167.5 227.4 167.5 223.2 167.5 220.8 167.6 218.8 167.6 217.2 167.7 213.7 167.7 212.4 167.8 213.2 167.8 213.7 167.9 214.7 167.9 217.2 168 213.7 168.1 216.4 168.1 215.9 168.2 217.9 168.3 219.2 168.4 216.3 168.5 217.1 168.5 221.7 168.6 222.8 168.6 219.3 168.7 222.7 168.7 222.8 168.8 217.1 168.9 220.4 168.9 222.5 169 220.5 169.1 219.7 169.1 210.7 169.1 213.9 169.2 214.7 169.3 213.4 169.4 218.1 169.5 213.7 169.6 209.9 169.7 210 169.8 207.6 169.9 206 169.9 203.7 170 206.2 170.1 208.4 170.1 213.8 170.2 212.8 170.2 211.6 170.3 211.7 170.4 207.8 170.4 205.3 170.5 204.2 170.6 207.3 170.6 198.7 170.7 196.8 170.7 201.3 170.7 205.5 170.8 200.2 170.8 199.8 170.9 198.8 170.9 199 171 194.6 171 193.8 171.1 191.7 171.1 189.4 171.2 190.2 171.2 190.4 171.3 189.2 171.3 191.5 171.3 194.7 171.4 193.6 171.5 194.4 171.5 194.2 171.6 190.1 171.6 187 171.6 187.2 171.7 191.9 171.7 193.1 171.8 187.8 171.9 193.1 172 192 172 196 172.1 194.9 172.2 189.2 172.2 188.6 172.3 187.4 172.3 189.1 172.4 188.2 172.4 179.5 172.4 179.4 172.4 180.4 172.5 178.4 172.6 179.3 172.6 181.7 172.7 185.7 172.7 186.1 172.8 184.4 172.9 185.1 173 184.5 173 186.3 173.1 192.1 173.1 186.4 173.2 182.3 173.3 184.1 173.4 185.7 173.5 186.2 173.6 187.1 173.6 186.7 173.7 187.6 173.7 183.9 173.8 186.2 173.9 189.3 173.9 190.8 174 188.9 174.1 188 174.1 186.8 174.2 182.6 174.3 184.5 174.4 184.4 174.4 180.5 174.5 185.8 174.5 185.4 174.6 179.8 174.6 179.2 174.7 179.8 174.7 181.5 174.8 183.1 174.9 179 175 177.1 175 176.2 175 172.8 175 174 175.1 175.4 175.1 169.4 175.1 159.8 175.1 161.1 175.1 166.7 175.1 166.3 175.2 164.9 175.2 167.3 175.2 168.2 175.2 160.7 175.2 160.6 175.3 160.3 175.3 161.5 175.3 165.7 175.3 165.9 175.4 166.2 175.5 167.3 175.5 169.3 175.5 166.4 175.6 168.2 175.6 166.9 175.7 170.5 175.8 167.1 175.8 172.3 175.9 167.8 175.9 163.1 175.9 160.6 176 159.7 176 164.5 176.1 162.6 176.1 164.8 176.2 168.8 176.2 172.1 176.2 171.9 176.3 169.1 176.3 168.1 176.4 166.3 176.4 162 176.5 161.8 176.5 163.9 176.6 155.4 176.6 153.4 176.6 153.1 176.6 153.5 176.6 152.2 176.7 152.1 176.7 153.2 176.8 154.4 176.8 155.8 176.8 151.9 176.9 152.2 176.9 152 176.9 144.7 176.9 146.8 177 148.8 177 145.6 177 147.6 177.1 147.8 177.1 144.4 177.1 145.6 177.2 143 177.2 139.8 177.2 138.9 177.2 143.1 177.3 140.7 177.3 143.6 177.3 134.6 177.4 140.1 177.4 143 177.4 146.2 177.5 146.8 177.5 150.1 177.5 152.9 177.5 152.4 177.6 150 177.6 150 177.6 154.6 177.7 150.6 177.7 146.9 177.7 146 177.8 147.5 177.8 152.1 177.9 148.3 177.9 144.4 177.9 141.3 178 143.8 178 143.5 178.1 141.9 178.1 141.1 178.2 144 178.3 145.7 178.3 149.4 178.4 149.6 178.4 152.3 178.5 148.2 178.5 152.9 178.6 151 178.6 150.3 178.7 148.8 178.7 147 178.8 151 178.8 154.5 178.8 157.9 178.8 164.8 178.8 164.8 178.9 165.7 178.9 167.1 178.9 168.3 178.9 172.6 178.9 172.5 179 171.8 179 179.4 179 183.3 179 186.6 179 187.6 179 183.8 179 181.7 179 178.9 179 180.4 179.1 181.1 179.1 178.4 179.1 178.6 179.2 173.4 179.2 172.5 179.2 173.5 179.2 176.8 179.3 177.2 179.3 171.6 179.4 170.6 179.4 169.7 179.5 170.5 179.6 169.7 179.6 172.4 179.6 168.9 179.7 164.9 179.7 163.9 179.7 163 179.8 167.9 179.8 170.2 179.9 168 180 169.6 180 174.1 180.1 176.4 180.1 172 180.2 173.7 180.3 168.4 180.4 167.6 180.4 166.8 180.5 166.1 180.5 168.1 180.6 163.8 180.7 166.1 180.7 161.9 180.8 160.3 180.8 161.8 180.8 159.4 180.9 158.5 180.9 161.5 181 162.4 181.1 164 181.1 162.5 181.2 160.3 181.3 159.5 181.4 161.3 181.5 160.8 181.6 161 181.7 164.4 181.8 168.9 181.8 166.5 181.9 167 181.9 169.1 182 170.7 182.1 169.9 182.2 174.6 182.2 173 182.3 174.7 182.4 171 182.4 168.6 182.5 166.6 182.6 169.3 182.7 172.7 182.8 175.1 182.8 182.2 182.8 180.7 182.9 182.8 182.9 183.4 183 184.2 183 183.8 183.1 182.8 183.1 180.7 183.3 180 183.4 178.9 183.4 177.3 183.5 179.9 183.7 178.1 183.8 173.5 183.9 176.3 183.9 177.1 184.1 173.5 184.2 172.7 184.3 176.8 184.5 175.4 184.6 174 184.8 178.4 184.9 177.1 185 183.7 185.2 178.2 185.3 174.4 185.3 177.2 185.5 177.6 185.6 180.8 185.8 184.7 185.8 186.5 185.8 188 186 184.4 186.1 183.5 186.2 181.5 186.3 177.1 186.4 177.4 186.4 181.5 186.5 184.2 186.7 180.9 186.9 183.5 187.1 181.3 187.2 176.9 187.3 171.1 187.4 172.9 187.5 174.2 187.6 178.8 187.6 178.8 187.7 176.5 187.9 179.8 188 178.3 188.1 180.9 188.2 184.5 188.4 183.1 188.5 176.3 188.5 171.1 188.5 177.8 188.6 181.5 188.7 184.7 188.7 184.6 188.8 188 188.9 186.9 188.9 192.8 188.9 198.4 188.9 200.4 189 196.2 189 192.4 189.1 194.6 189.2 186.8 189.3 187.3 189.3 188 189.4 184.1 189.5 189.4 189.6 189.8 189.6 190.1 189.7 189.7 189.8 183.7 189.8 187.1 189.9 186.1 190.1 188.3 190.1 183.6 190.2 183.1 190.3 182.3 190.4 178.4 190.5 184.9 190.6 186.5 190.7 186.4 190.8 187.5 190.9 189.7 191 189.7 191.1 188.6 191.2 190.4 191.3 193.6 191.4 191.7 191.5 188.9 191.6 188.8 191.7 186.1 191.8 184 191.9 183.9 192.1 186 192.2 189.1 192.3 190.8 192.4 194.2 192.4 197.8 192.5 194.2 192.6 195.4 192.8 193.3 192.9 193.2 193 194.9 193.2 192.9 193.2 195.8 193.3 197.9 193.4 194.9 193.6 200.5 193.7 202.5 193.7 200.3 193.8 203 193.9 200.1 194 195.4 194.1 194.1 194.2 194.7 194.3 194.2 194.4 189.4 194.5 188.2 194.6 183 194.7 180.3 194.8 179.1 194.8 171.5 194.9 177.1 195 178.5 195.1 182.1 195.2 184.4 195.3 184.4 195.4 185.5 195.5 183.6 195.7 187.3 195.8 192.9 195.9 191.5 196 192.7 196.1 190.9 196.3 187.1 196.4 183.3 196.5 185.1 196.6 187.3 196.8 185 196.9 187.5 197 179.3 197.1 174.6 197.1 172.5 197.2 171.7 197.2 164.3 197.2 170 197.2 164.9 197.3 171.1 197.4 176.7 197.5 181.5 197.5 180.5 197.7 181.7 197.8 180.9 198 180.5 198.1 183.1 198.2 183.1 198.3 183 198.4 189.9 198.5 188 198.6 184.6 198.8 185.2 198.9 188.4 198.9 190.6 199 189.7 199.1 192.6 199.2 191.3 199.3 192.8 199.4 194.9 199.5 193.3 199.7 192.6 199.8 193.7 199.9 197.6 200 193.6 200.2 193 200.3 194.4 200.4 197.1 200.5 200.5 200.6 201.1 200.7 201.3 200.7 201 200.9 200.5 201.1 204.5 201.2 202.3 201.3 200 201.5 199.2 201.6 197.3 201.7 199.2 201.8 204.1 202 202.1 202.2 199 202.3 198.8 202.5 198.8 202.7 199.2 202.9 199 203 196.2 203.2 197 203.3 196 203.4 193.6 203.5 190.2 203.6 190.5 203.7 186.2 203.8 190.4 203.9 186.1 204 183.4 204.1 186.7 204.2 189.7 204.3 186.8 204.4 186.2 204.5 187.7 204.6 185.9 204.6 185.9 204.7 185.8 204.8 185.8 204.9 189.3 205 190.2 205 195.2 205.1 191.4 205.2 190 205.3 193.8 205.3 191.4 205.4 190.4 205.5 195.5 205.6 193.4 205.6 188.6 205.7 192.1 205.8 195.4 205.9 199.1 206 195.2 206.1 193.4 206.2 195 206.4 192.3 206.5 190.6 206.6 189.4 206.6 188.4 206.8 190.5 206.9 189.3 207 190.5 207.1 186.3 207.2 185.1 207.3 186.6 207.4 182.7 207.5 183 207.6 182.3 207.6 186.3 207.7 186.5 207.9 184.2 208 185.4 208.2 185.2 208.3 182.8 208.4 185.4 208.5 192.4 208.6 193.1 208.7 186.5 208.8 187.2 208.9 185.5 209 181 209.1 180.4 209.2 183.5 209.3 184.1 209.5 183.7 209.7 184.5 209.9 185.2 210.1 186.3 210.2 184.1 210.3 183.2 210.4 179 210.5 176.7 210.6 178.7 210.7 173.3 210.7 170.1 210.8 173.1 211 170.7 211.1 174.3 211.2 178.3 211.3 175.6 211.5 175.9 211.6 172.7 211.7 169.9 211.8 171.8 211.8 167 211.9 164.7 211.9 158.8 212 152.1 212 146.2 212 144.6 212.1 151.8 212.1 159.3 212.1 167.4 212.2 171.3 212.2 168.9 212.3 172.6 212.3 171.2 212.4 171.2 212.4 173.1 212.5 171.2 212.6 165.6 212.6 160.2 212.7 165.8 212.8 162.5 212.9 159.9 212.9 155.6 213 159.1 213.1 164.3 213.1 168.9 213.2 167.2 213.3 169.7 213.4 166.7 213.6 170.6 213.6 171.1 213.8 176.7 213.8 178 214 173.2 214.1 168.8 214.3 174.1 214.6 171.3 214.9 172.8 215.1 172 215.3 176 215.3 180 215.6 178.5 215.8 173.2 216 174.7 216.2 179.7 216.3 183 216.4 184.4 216.5 185.4 216.7 182.5 216.8 181.7 216.9 180.9 217.1 178.5 217.2 174.1 217.2 167.1 217.3 168.1 217.4 174.8 217.4 170.4 217.5 162.8 217.5 162 217.6 158.8 217.6 156.4 217.7 152.7 217.7 151.4 217.8 149.7 217.8 150.6 217.8 155.8 217.9 161.8 217.9 161.9 218 164.9 218.1 166.2 218.1 160.8 218.2 160.3 218.2 161.5 218.3 162.6 218.4 157.9 218.5 161.6 218.6 161.6 218.8 167.2 218.9 171.1 219 171.2 219.2 169.6 219.3 162.7 219.4 163.7 219.5 164.2 219.6 158.4 219.7 156.5 219.7 150.4 219.8 145.3 219.8 146.3 219.8 148.4 219.9 149.5 220 152.6 220 153.7 220.1 149.3 220.1 143.1 220.2 136.9 220.2 131.3 220.2 127.7 220.2 127 220.2 125 220.2 125.8 220.2 126.5 220.3 126.3 220.3 125.7 220.3 124.8 220.4 123.5 220.4 123.5 220.4 121.2 220.4 118.4 220.5 117 220.5 118.3 220.5 124.6 220.5 125.2 220.6 127.5 220.6 127.6 220.6 128.9 220.7 133.3 220.7 126.5 220.7 127.8 220.8 127.5 220.9 134.8 220.9 142 220.9 138.3 221 136.2 221.1 137.4 221.1 140.1 221.2 146.8 221.2 145.2 221.3 147.6 221.4 143.9 221.5 150.7 221.5 156.6 221.6 150.2 221.6 149 221.7 154.3 221.8 160.2 221.8 161.8 221.9 163.8 221.9 172 221.9 174.1 221.9 171.9 222 168.9 222.1 170.4 222.1 167.7 222.2 167.7 222.3 170.4 222.4 166.6 222.5 164.8 222.6 166.2 222.7 169.4 222.8 169.2 222.9 169.1 223 173.6 223.1 169.3 223.2 167.6 223.4 170.6 223.5 171.4 223.6 170.9 223.8 172.5 223.9 170.2 224 172.6 224.1 174.3 224.2 173.1 224.4 172.1 224.6 172.5 224.7 176.4 224.7 178.9 224.9 180.7 224.9 178.3 225.1 178.4 225.1 182.3 225.2 181.8 225.3 178.9 225.4 180 225.6 181.5 225.7 180.1 225.8 179.9 225.9 181.3 226.1 181.9 226.2 184.8 226.3 183.5 226.4 189.7 226.5 186.4 226.6 182.7 226.8 182.1 227 184.5 227.3 183.1 227.5 183.8 227.7 181.2 227.9 180 228.1 178.5 228.3 177.1 228.4 178.4 228.7 177.7 228.8 173 228.9 171.9 229 168.4 229.1 167.3 229.2 165 229.3 167.9 229.4 167.8 229.6 169.1 229.7 169.4 229.8 173.9 229.9 175 230 178 230 175.6 230.2 174.6 230.4 174.2 230.6 170.7 230.8 173.3 230.9 167.7 231 166.6 231 162 231.1 164.6 231.2 165.4 231.3 167.2 231.4 167.2 231.5 168.4 231.7 165.7 231.8 164.1 232 167.2 232.1 169.3 232.2 167.8 232.3 167.8 232.4 166.4 232.5 166.8 232.6 167.8 232.7 166.5 232.8 171.5 232.9 168.9 233 170.5 233.1 175.1 233.1 172.9 233.2 174.8 233.3 171.6 233.4 167.4 233.5 172.4 233.6 172.7 233.7 169.8 234 174.1 234 177.6 234.1 178.1 234.2 179.4 234.2 185.4 234.3 182.2 234.4 183.5 234.5 183.5 234.6 182.4 234.6 187.9 234.7 188.6 234.8 186.4 234.9 189.4 234.9 189.2 235 191.9 235 194.3 235.1 191.7 235.2 194.6 235.3 195.6 235.3 196 235.4 198.8 235.5 195.3 235.5 189.7 235.6 191.7 235.7 189.1 235.8 185.7 236 187.6 236.1 189.6 236.3 186.7 236.5 191.7 236.6 197.2 236.7 196.9 236.7 202.5 236.7 212.7 236.7 204.5 236.8 206.8 236.8 202.4 236.9 201.9 237 202.2 237.1 201.1 237.2 199.9 237.3 199.4 237.5 200.4 237.7 196.6 238 197.7 238.4 198.7 238.6 200.3 239 200.7 239.4 198.2 239.7 198.2 239.9 193.3 240.1 194.5 240.4 196.9 240.5 184.7 240.6 184 240.7 187.5 240.8 187 241 189 241.3 187.8 241.6 185.4 241.9 188.6 242.4 188.4 242.8 188.2 243.2 184.2 243.5 181.9 243.8 186.7 244 188 244.2 190.5 244.5 192.6 244.8 193.2 245 191.5 245.3 192.3 245.5 196.5 245.8 197 246.1 197.3 246.3 195.6 246.5 194.7 246.7 194.7 247.1 195 247.5 194.6 247.7 190.2 248 193.1 248.4 193.4 248.8 197.3 249.3 198.2 249.8 195.4 250.1 196.6 250.4 198 250.7 194.4 250.9 195.2 251.1 193.8 251.5 192.3 251.9 194.7 252.3 193 252.3 190.2 252.4 186.4 252.5 181.9 252.5 181 252.6 178.1 252.7 173.8 252.7 174.4 252.8 174.9 252.9 179.7 253 171.9 253 169.7 253.1 173.6 253.2 173.7 253.2 169.8 253.3 167.2 253.4 173.4 253.5 174.3 253.6 175 253.7 177.6 253.7 182.2 253.7 182.8 253.7 181.5 253.8 179.7 253.9 177.6 254 179.9 254.1 182.3 254.2 184.5 254.4 187.1 254.5 191 254.7 190.5 254.8 190.6 255 191.6 255.2 192.8 255.3 193.5 255.5 195.8 255.7 196 255.9 194.8 256.1 194.5 256.4 195.5 256.5 192.2 256.9 193.3 257.2 191.3 257.6 193.9 257.9 196.7 258.1 199.6 258.4 199.8 258.6 202.2 258.9 200.7 259 198.6 259.2 196.8 259.6 196.4 259.8 200 259.9 200.5 260 203.3 260.2 204.7 260.2 201.9 260.4 201.9 260.4 199.9 260.5 198.6 260.6 193.8 260.7 194.2 260.7 191.9 260.9 192.5 261 198 261.2 196.6 261.3 197.6 261.3 200.5 261.4 202.9 261.5 203.6 261.6 197.3 261.7 198.4 261.8 198.2 262 199.9 262.3 198 262.4 198.3 262.7 195.8 262.8 201.5 263 195.3 263.1 195 263.2 193.4 263.4 194.8 263.6 196.5 263.9 196.2 264.3 200.2 264.4 202.9 264.7 203.4 264.9 204.4 265.1 201.8 265.5 204.5 265.6 204.6 265.8 210 265.9 208.3 266 210.2 266.1 206.5 266.3 205.7 266.7 206 267.1 208.9 267.3 210.1 267.6 208.4 267.9 206.5 268.2 205.1 268.7 206.4 269.1 209.4 269.6 207.7 270 211.8 270.2 215.5 270.4 213.9 270.7 214.2 271 218.6 271.3 221.2 271.5 220.2 271.8 220.7 272.1 218.2 272.5 215 273 213 273.3 215.7 273.6 215.8 273.9 215 274.1 215.7 274.5 213.6 274.9 216.2 275.4 218.1 275.6 223.8 275.8 222.5 276.1 220.7 276.4 213.9 276.5 212.5 276.8 212.6 277.2 211.2 277.4 214.4 277.6 216.8 277.9 214.3 278.3 218.1 278.5 219.4 278.6 218.7 278.9 219.2 279.2 223 279.3 226.6 279.4 235.1 279.4 229 279.5 226.4 279.6 225.3 279.7 223.4 279.8 223.3 279.9 223.2 280.1 225.3 280.4 221.9 280.8 220.5 281.1 218.1 281.5 223.7 281.7 224.9 282 230.7 282.3 229.6 282.5 232 282.7 234.3 282.8 235.3 282.9 233.2 283.1 233.7 283.3 230.9 283.7 231.5 284 232.6 284.2 236.1 284.3 239.5 284.5 239.7 284.7 241.2 285 238.5 285.3 241.8 285.4 244.4 285.6 242 285.9 245 286.2 243 286.6 243.1 286.9 246.9 287.2 245.5 287.5 244.2 287.9 244.6 288 244.4 288.2 241.3 288.3 239 288.4 239.1 288.4 235.1 288.6 238.2 288.7 234.5 288.9 232.1 288.9 228.2 289 228.1 289.1 226.9 289.2 225.6 289.3 221.7 289.4 221.5 289.5 221.4 289.7 216.6 289.8 221.3 290 224.9 290.1 226.8 290.4 228.8 290.5 227.2 290.7 226.1 290.9 225.9 291 224.5 291.3 228.9 291.5 226.9 291.8 222.6 292 222.8 292.3 226.5 292.7 226.3 293.1 228.9 293.5 231.1 294.1 231.7 294.4 237.1 294.7 236.5 295 236 295.4 236.5 296 233.5 296.4 230.8 296.9 229.2 297.5 230.6 298.3 229.8 299.3 232.4 300.2 233.4 300.6 230 300.8 238.9 301.3 235.6 301.6 233.2 302.1 236.4 302.7 235.8 303.1 235.1 303.4 231 303.6 231 304.2 235.2 305 231.8 305.8 233.1 306.5 231 306.9 231 307.4 230.3 307.8 228.7 308.2 232.8 308.4 231.3 308.8 233.3 309 237.7 309.1 238.3 309.2 242 309.3 236.3 309.5 232.3 309.9 233.9 310.5 237.7 311.1 237.2 311.7 231.3 312.3 232.6 313 235.7 313.4 237.4 314.1 234.4 314.2 229.7 314.4 224.2 314.5 229.5 314.7 227.4 315 225.4 315.3 230.8 315.6 231.5 315.7 231 315.9 232 316 231.6 316.2 231 316.3 233.2 316.4 230.9 316.5 228 316.6 226.1 316.7 221.9 316.7 217.9 316.8 216.2 316.9 215.4 316.9 220.3 317.1 220.2 317.2 227.2 317.3 227.7 317.4 223 317.6 219.8 317.6 216.8 317.7 213.6 317.8 221.6 317.9 220.9 318.1 222.4 318.2 215.6 318.4 216.6 318.5 218.7 318.7 222.9 318.8 229.8 318.9 228.4 319.1 231.8 319.3 230.9 319.4 224.7 319.6 226.8 319.8 231.3 320 235.7 320.1 236.6 320.2 240.1 320.3 235.3 320.6 233.6 320.8 235.2 321.1 240.7 321.4 241.6 321.7 237.3 322.1 240.1 322.5 240.2 323 241.9 323.3 240.3 323.7 236.4 324.2 236.4 324.6 236.4 325 232.7 325.9 234.1 326.8 237.9 327.8 238.1 328.9 239.9 329.6 243.6 330.2 244.2 330.7 247 331.2 248.7 331.8 248.7 332.5 247.6 333 251.1 333.4 253.6 333.8 256.3 334 255.7 334.8 253.9 335.5 254.1 336.2 253.5 337 251.6 337.8 249.6 338.4 246.4 338.9 241.7 339.5 244 340.4 243.3 341 241.6 341.8 240 342.4 238.9 342.9 240.6 343.7 242.2 344.3 244.1 345.2 244.6 346.3 242.9 347.3 248.6 348.5 246.1 350.8 246.7 352.1 247.9 353 252.3 354.1 250.7 355.2 248.8 356.5 250.5 357.7 249.3 358.8 247.7 359.9 251 361 251.2 361.9 251.9 362.2 247.4 363 248.7 364.1 248.7 364.8 243.3 365.3 245.8 365.8 240.3 365.9 236.3 366.5 241.5 367 246 367.8 246.6 368.4 243.5 369.1 242.2 369.8 243.5 370.7 242.5 371.1 241.1 371.5 240.7 371.9 243 372.3 250.3 372.4 252.5 372.8 251.2 373.1 250.2 373.2 243.2 373.5 244.3 374 244.8 374.6 249.8 375.7 249.2 376.3 245.5 377 250 377.3 254.2 377.5 256.5 378 253.8 378.6 252.8 379.3 251.9 379.7 257.5 380.4 255.2 380.7 262.7 380.8 254.7 380.9 251.3 381.1 255.9 381.7 253.1 382 256.3 382.2 251 382.4 250.1 382.6 256.7 382.8 256.9 382.9 249.2 383 245.1 383.1 243.6 383.2 241.6 383.4 242.2 383.5 236 383.6 244.3 383.8 241 384 243.9 384.2 239.9 384.4 237.1 384.6 240.6 384.9 239.7 385 234.5 385.2 236 385.3 238 385.4 234.1 385.7 233.6 385.9 239.5 386.2 240.3 386.5 244.3 386.8 242.9 387 241 387.2 237.8 387.5 236.9 387.7 232.9 387.9 234.2 388.2 234.7 388.6 236.7 389 237.4 389.4 242.9 390 238.3 390.3 241.8 390.6 248.1 390.7 254.3 390.9 252.7 391.1 251.9 391.3 252.2 391.6 255.8 391.6 260 391.7 259.7 391.9 260.8 392.1 256.9 392.3 254.1 392.6 255.9 393 255.7 393.4 254.9 393.8 254.5 394.4 257 394.9 254.8 395.7 254.2 396.1 256 396.8 256.4 397.1 257.3 397.5 259.3 397.9 261.9 398.2 262.7 398.3 265.7 398.4 261.9 398.5 259.3 398.6 256.4 398.8 256.4 399 257.4 399.2 259.9 399.4 254 399.6 250.8 399.7 249.9 399.9 250.5 400.1 249.7 400.3 248.8 400.5 249.4 400.6 249.1 400.7 242.9 400.9 247.8 401.1 247.6 401.3 246.8 401.5 249.4 401.8 257.2 401.9 259.8 402.1 259.4 402.3 259.2 402.7 253.4 403 253.6 403.3 258.6 403.8 257.1 404.1 254 404.5 255.3 404.8 252.1 405.1 253.3 405.5 257.4 406 260.5 406.4 260.1 406.8 261.9 407.1 260.6 407.3 259.3 407.8 263.8 408.7 263.8 409.5 263.2 410.2 264.9 411.1 262.2 411.8 260.2 412.6 264.8 412.8 265.5 413.2 264.2 413.8 263.7 414.4 261.8 415.1 259 415.4 255.5 415.6 253.5 415.8 255 415.9 250.4 416.1 247.2 416.4 250.8 416.7 250.5 417.1 252.1 417.4 249 417.9 250.2 418.4 250.6 418.7 249.1 419.1 252 419.8 248.3 419.9 251.3 420.2 250.5 420.5 253.7 421 249.2 421.7 253.4 422.2 253.9 422.6 252.2 422.9 251.8 423.2 251.9 423.8 250.7 424.5 251.3 424.9 247.9 424.9 246.4 425.1 248.4 425.1 246.1 425.3 246.2 425.4 244.1 425.6 245.3 425.7 243.2 425.9 240.1 426 237.1 426.1 237.7 426.2 230.2 426.3 235.7 426.4 240.5 426.6 243.8 426.7 245.8 426.9 247 427 254 427.1 253.5 427.2 249.5 427.3 247.6 427.4 241.6 427.5 239.7 427.7 241.2 427.8 235.6 427.9 239.1 428.1 240.6 428.2 237.3 428.4 238.5 428.6 240.4 428.7 235.7 428.9 236.2 429.2 240.7 429.4 237.8 429.7 241 429.9 240.8 430.2 238.7 430.5 236.3 430.8 237.6 431.1 237.9 431.3 235 431.6 233.5 431.8 232.2 431.9 227.8 432 229.2 432.1 223.5 432.2 221.6 432.4 222.6 432.5 218.9 432.6 217.5 432.7 220.3 432.9 221 433 226.8 433.2 225.8 433.4 225 433.6 221.8 433.9 219 434 215.8 434.2 217.1 434.4 220.9 434.7 219.6 434.8 211.8 434.9 201.6 434.9 192.6 434.9 199.2 434.9 201 435 200 435 194.7 435.1 195.3 435.2 192.6 435.3 191.6 435.4 192.8 435.6 188.8 435.8 186.2 436 192.3 436.1 192.8 436.3 198.3 436.4 203.9 436.6 209.2 436.8 210.6 437 200.3 437.1 199.7 437.2 195.6 437.3 198.6 437.4 202.3 437.5 202.2 437.7 205.9 437.8 200.9 437.9 199.7 438.1 199.7 438.2 198.1 438.3 195.7 438.5 198.3 438.8 199.7 439 201.9 439.2 204.1 439.4 201.4 439.5 194.9 439.6 194.5 439.7 197 440.1 199.1 440.3 199.3 440.5 197 440.8 195.2 441 197 441.2 193.1 441.4 193.4 441.6 193.7 441.8 198.1 442 197.3 442.1 204.2 442.2 202.8 442.2 205.6 442.3 205.9 442.4 206.8 442.6 209.3 443 210 443.3 212.1 443.7 211.4 444 213.4 444.3 211.3 444.3 206.2 444.4 210.1 444.6 213 444.9 208.7 445.1 205.4 445.4 203.8 445.9 205 446.3 204.2 446.6 201.9 447 206.1 447.6 203.6 448.2 203 448.7 203.9 448.9 206.3 449.2 207.9 449.7 211.6 449.9 213.9 450.2 215.3 450.6 215 450.7 219.2 451 214.9 451.5 215.5 452.1 217.8 452.5 215 452.9 220.4 453.2 218.2 453.4 213.8 453.6 215.3 453.7 213.7 453.8 213 453.9 212.9 454 208.8 454.1 206.6 454.2 210.9 454.3 217.7 454.4 211.2 454.5 207.8 454.7 208.3 455 214.2 455.3 212.9 455.5 211.1 455.6 204.8 455.6 198.9 455.6 193.1 455.7 194.6 455.8 191.7 455.8 183 455.9 191.2 456 186.3 456 184.7 456.1 194.4 456.2 195 456.2 189.5 456.3 178.5 456.3 183 456.4 181.3 456.5 181 456.5 178.5 456.5 181.8 456.6 183.1 456.6 183.8 456.7 175.8 456.7 179.3 456.8 183.7 456.9 186.2 457 190.4 457.1 195.4 457.2 196.9 457.2 202.2 457.3 203.1 457.4 200.5 457.5 205.7 457.6 211 457.7 211.1 457.8 208.2 457.9 208.4 458 214.3 458 216.2 458.2 214.5 458.3 220.2 458.4 221.1 458.5 222.5 458.6 224.2 458.8 219.1 458.9 223.9 459.1 222.5 459.2 217.3 459.4 214.3 459.4 214.4 459.6 211.6 459.8 217.8 460 216.8 460.2 213.8 460.4 216.2 460.6 216.6 460.9 218.1 461.1 218.1 461.4 220.1 461.8 214.5 462.2 218.7 462.4 215 462.8 216.3 463.1 222.8 463.7 220.4 464.2 224.2 464.6 227.8 464.7 232 464.9 227.6 465.2 229.9 465.5 231.5 465.7 232.6 466 232.5 466.4 234.8 466.5 233.3 466.8 234.9 467.2 236.6 467.5 238.5 467.7 237.8 467.9 238.7 468.2 240.2 468.5 241.1 468.6 246 468.7 246.1 468.9 246.4 469.2 247.6 469.5 244.2 469.7 243.5 470.2 242.4 470.6 242 470.9 243.5 471.3 239.5 471.8 240.3 472.2 242.8 472.7 241.7 473.2 240 473.4 236.6 473.6 237 474 238 474.5 239.1 474.9 237 475.5 236.5 475.7 233.9 475.8 231.5 476.2 234.7 476.6 237.6 477.2 237.6 477.9 239.2 478.4 240.3 479.1 242 479.6 239 480.1 238.5 480.5 236.7 481 237.8 481.3 239.9 481.5 242.5 481.6 246.3 481.7 239.8 481.8 242.5 482 241.1 482.2 244 482.3 248.4 482.6 251.2 482.6 251 482.7 254 482.8 254.2 482.9 251.6 483 244.7 483.1 248.9 483.3 247.1 483.5 248.1 483.7 247.8 483.9 244 484.3 246.6 484.6 247.4 485 242.6 485.2 249.5 485.5 249.1 485.6 253.3 485.9 253.7 486.1 257 486.4 254.3 486.5 257.6 486.8 255.4 487.1 256.2 487.4 255.7 487.7 252.7 488 254.8 488.6 257.7 489.1 255.1 489.6 252.7 490.3 248.9 491.1 249.5 492.1 247.6 492.8 245.3 493.6 247.2 494 242.5 494.7 247.7 495.3 247.2 495.8 244.8 496.3 248.9 496.9 249.3 497.5 252 497.7 254.2 498.1 253.9 498.3 252 498.8 247.8 499 245.1 499.2 243.9 499.4 241.5 499.7 242.9 500.2 237.1 500.3 234.4 500.5 235 500.6 234.1 500.7 230.7 500.8 230.9 500.9 232 501 239 501.2 239.7 501.4 235.5 501.6 232.1 501.8 232.2 502 227.4 502 229 502.2 232.4 502.3 231.3 502.7 231.3 503 232.9 503.4 232.1 503.6 234.4 503.9 237.1 504.4 239.1 504.9 238.5 505.3 240.5 505.7 240 505.8 237.8 506.2 235.6 506.5 237.1 506.9 238.3 507.3 238.7 507.7 240.9 507.8 242.9 507.8 245.6 507.9 244 508.1 242.2 508.5 243.6 508.6 242 508.9 239.2 509 241.6 509.1 240.4 509.4 242.4 509.6 244 509.7 243.1 509.8 250.1 509.9 252.8 509.9 253.4 510 253.5 510.1 256.5 510.1 258.6 510.3 258.2 510.3 259.3 510.4 263.6 510.4 262.6 510.6 259.8 510.7 258.8 510.9 256.5 511 254.7 511.2 254.5 511.5 254 511.7 254.8 512 256.8 512.3 255.5 512.5 251.8 512.9 246.8 513 248 513.3 246.8 513.6 246.5 513.9 246.7 514.2 250.1 514.5 249.4 514.7 246.3 514.7 243.3 514.8 240.8 515 241.9 515.3 247.7 515.5 245.1 515.7 241.9 515.9 241.5 516.1 239.2 516.3 238 516.5 237 516.7 237.5 516.9 238.5 517.3 239.2 517.4 240.1 517.6 241.6 517.8 239.8 518.1 241 518.8 237.7 519.4 240.3 520.1 239.8 520.5 238.8 521.1 239.7 521.8 241 522.4 245.3 523.1 243.2 523.9 246 524.8 245.5 525.7 243.3 526.9 245.9 527.9 247.5 529 245.2 530 243 531.2 245.6 532 245.2 532.7 247.8 533.9 247 534.9 248.6 534.9 251 535.3 251.7 535.9 250.7 536.5 250.2 536.8 247.9 537.4 245.8 537.9 244.6 538.2 243.4 538.7 249.2 539.1 249.6 539.7 248.9 540.6 250.6 541.7 249 542.6 248.4 543.8 249.3 544.8 251.6 545.7 254.3 546.4 255 547.5 255.9 548.2 255.3 548.8 258.5 549.2 258.7 549.9 256.2 550.5 260.1 551.7 255.7 552.7 259.3 554.1 257.2 555.4 257.6 556.4 257.9 557.2 258 558.1 257.8 558.9 256.6 560.2 257.8 561.5 259.2 562.5 261.3 563 260.7 563.5 258.4 563.8 259.4 564.1 258.6 564.6 261.9 565.2 260.6 565.9 262.2 566.8 262.1 567.5 262.6 568.4 262 568.8 255.2 569.3 256.6 569.9 261.1 570.5 264.3 571.1 259.9 571.9 262.2 573 261.6 573.9 265.5 574 269.8 574.1 269.8 574.3 277.8 574.4 276.8 574.5 282.2 574.6 282.2 574.7 284.7 574.8 287.8 574.8 290 574.9 289.9 575 291.8 575 300.6 575.1 306 575.1 331.9 575.1 328.6 575.1 331.3 575.1 312.1 575.1 308.1 575.1 307.3 575.2 307.4 575.2 310.6 575.2 307.3 575.2 311.1 575.3 311 575.4 315.3 575.4 309 575.5 312.8 575.6 315.1 575.6 316.5 575.8 312.6 575.9 311.2 575.9 310.5 576 310.7 576.2 312.8 576.3 309.3 576.4 306.9 576.6 309.9 576.8 306.9 577 306.4 577.1 308.8 577.4 309.5 577.6 307.8 578 305.1 578.5 305 579 305.8 579.6 305.4 579.8 303.9 580.3 304.1 580.8 307.1 581.2 308.3 581.5 306.2 582 308.2 582.3 308.3 582.9 309.6 583.4 310.3 583.9 310.9 584.3 308.7 584.7 308.3 585 308.6 585.4 307.8 585.7 311.1 586.5 311 587 312.6 587.7 312.6 588.4 311.6 588.9 312.8 589.5 314.3 590.2 314.8 590.9 314.8 591.5 315.2 591.9 315.3 592.6 315.9 593.3 314.7 593.9 311.9 594.3 309 594.7 307.1 595.2 308.8 595.8 308.9 596.4 309.2 597.2 306.3 597.3 301.6 597.9 304.1 598.5 301.6 599 300.1 599.5 303.4 599.9 302.3 600.3 302.6 600.8 302.4 601.1 306 601.6 306.1 601.9 307.5 602.2 303.8 602.5 307 602.9 308.5 603.1 309.3 603.7 307.5 604.3 306 604.9 309.6 605.3 311.6 605.9 309.3 606.6 313.6 607 309.8 607.8 310.9 608.4 313.3 608.7 311.6 609.2 309.7 609.6 309.2 609.9 313.3 610.2 310.8 610.5 311.2 610.8 312 611.2 312 611.7 313.9 612 315 612.1 316.6 612.4 316 612.6 319 612.7 318.8 613 317.4 613.3 317.2 613.8 319 614.2 318.7 614.6 317.3 615.2 318.9 615.8 317.8 616.5 319.5 617.1 318.3 617.7 321.7 618.1 320.8 618.5 320.5 618.9 319.2 619.3 320 619.4 316.3 619.5 308.6 619.6 312.9 619.8 312.8 620 316.7 620.1 318.1 620.2 315.1 620.4 317.1 620.5 319.2 620.7 318.8 621 319.5 621.2 317.7 621.5 319.4 621.7 321 621.9 323.5 622.2 321.3 622.4 320.3 622.8 323.9 623.1 326.2 623.3 323.3 623.6 323.6 623.9 325.9 624.4 326.9 624.7 324 625.2 325.7 625.8 325.9 626.2 321.5 626.7 321.1 627.2 323.8 628.2 325 628.6 330.2 628.7 331 628.9 328.6 629.2 331.5 629.6 328.6 630 328.4 630.6 329.5 631 322.3 631.2 320.4 631.5 317 631.9 317.7 632.4 318.2 632.9 315.7 633.3 319.9 633.9 317.9 634.5 316.3 635.1 317.5 636.3 316.3 637.1 316.1 638.1 316.6 638.8 313.5 639.5 316.3 640.2 318.4 641 319.8 642 319.6 643.1 323.2 643.9 324.6 644.2 328.3 644.3 331.6 644.5 330.8 644.8 328 645.2 325.5 645.8 327 646.3 328.2 646.5 323.8 646.6 319.7 646.7 317.8 646.8 317.4 646.9 316.5 647.1 316.9 647.3 315.5 647.6 314.6 647.8 313.3 647.9 312 648.2 314.2 648.4 314.1 648.7 311.8 649 314.3 649.2 317.2 649.4 323.4 649.5 326.1 649.7 325.6 649.9 328.6 650 327.6 650.2 328.4 650.4 328.8 650.5 331.9 650.7 327.9 651 326.3 651.3 325.2 651.7 328 651.9 324.6 652.3 325.9 652.7 318.3 652.7 314.9 652.8 313.5 652.9 311 653 307.4 653.1 310.3 653.3 308.6 653.6 309.8 653.8 314.4 654 314.9 654.3 308.5 654.5 303.6 654.8 301.9 654.9 302.4 655.3 301 655.7 301.1 656 303.2 656.7 306.5 657.2 309.6 657.5 313.5 657.9 312 658.2 309.7 658.5 307.7 659.1 308 659.6 304.9 660.4 305 661.4 305.1 662.1 310.3 662.7 309.4 663.5 308.9 664.6 310.5 665.3 315.2 666.2 314.5 666.9 315.3 667.5 316.3 668.1 313.2 668.9 312 669.8 312.5 670.9 315.2 672 316 673.3 315.5 673.6 317 674 319.2 674.4 321.8 674.7 323.9 674.9 325.9 675.1 325.7 675.3 324.9 675.6 324.9 675.7 328.1 676 321.8 676.2 323.8 676.5 322.3 676.8 319.6 677.1 320 677.4 317.5 677.9 317.8 678.3 316.8 678.9 318.6 679.6 318.8 680.2 319.8 680.8 317 681.5 320.2 682.3 319.9 683.3 321.9 684.4 323.8 685.5 321.5 686.2 322.2 687 319 687.8 317.1 688.7 318.3 689.5 314.3 690.8 312.8 691.8 312.8 692.5 311.9 693.3 313.9 694.4 316.2 695.3 317.4 695.9 318.3 696.8 318.7 697.9 319.1 699.2 316.7 700.3 317.2 701.2 318 702 317.2 702.2 321.1 702.3 324.2 702.5 324.5 702.6 323.2 702.8 323.4 703 323.9 703.2 319.6 703.4 318.8 703.7 313.7 703.9 313.6 704.2 313.2 704.5 317.7 704.6 310.4 704.8 309 705.1 313.5 705.4 312.1 705.6 307.3 705.7 304.5 705.8 303.2 705.9 305.9 706.2 310.6 706.5 308.6 706.8 307.5 707.2 309.8 707.5 312.5 707.7 318 707.9 318.9 708.1 319.5 708.4 318.9 708.7 318.6 709 319.8 709.2 324.3 709.6 323.3 709.8 320.4 710.2 319.7 710.8 321.4 711.3 318.2 712.2 318 713.4 319.7 714.6 321.6 715.6 321.2 716.9 318.8 717.8 317.8 719.3 319.9 721.1 319.7 722.4 321.9 724.7 322.4 726.9 321.6 729 322.7 729.9 322.7 731.1 325.4 731.8 327.1 732.8 325.4 734.5 323.9 736.5 324.8 738.6 326.5 740 324.7 741 328.2 741.9 327.8 742.9 329.4 744.5 330.2 744.8 331.3 745.9 328.8 747.4 329.5 748.8 331.9 749.9 332.5 750.8 334.9 751.2 335.1 752 331.8 752.9 329.3 754.4 332.2 755.4 332.7 756.3 331.4 757.3 334.3 757.9 334.5 758.7 333.4 759.1 335.8 759.2 339 759.3 339.9 759.4 342.6 759.4 345 759.5 344.3 759.7 343.2 759.9 343.1 760.2 340.8 760.6 343.6 761 343 761.5 344.5 761.7 347.1 761.9 346.1 762.1 348.8 762.3 350.1 762.5 348.6 762.9 351 763.1 355.3 763.2 354.9 763.4 353.8 763.6 358.4 763.7 357.1 763.9 355.7 764.1 354.3 764.4 356 764.7 352.5 765 349.6 765.4 349.8 766 349.2 766.6 352.4 767.3 350.2 767.8 349 768.4 348.7 768.8 346 769.5 344.8 769.8 340.8 770.2 340.7 770.6 338 771.2 339.5 772.3 341.4 773.1 342.6 773.8 339.2 775 339.6 776.2 336.7 777.2 337.2 778 335 779 340.8 779.8 340.4 781.1 337.9 782.5 336.8 783.6 337 784.5 336.6 785.1 338.3 785.2 332.7 785.5 334.9 785.8 330 785.9 328.7 786.3 333 786.5 337.2 786.9 335.6 787.2 331.9 787.6 335.4 787.9 333.5 788.4 334.6 789.1 334.8 789.6 332.7 790.2 333.5 790.9 334.7 792 337.1 793.1 335.6 793.4 333.4 794.4 335.4 795.9 336.7 797.4 336.5 798 330 798.5 330.2 799.1 332.3 799.9 330.3 800.9 329.6 802.1 333.8 803.4 335.5 804.6 335.7 805.6 335.3 806.9 336.6 808.2 336.3 809.3 335.5 811.2 337.2 812.3 337.3 812.8 340.9 813.2 338.8 813.9 340.8 814.4 335.2 814.5 331.6 814.7 330.1 815 330.3 815.4 332.3 815.8 340 816 338.9 816.3 342 816.7 341.8 817.1 339.8 817.7 337.3 818 335.2 818.7 334.5 819.2 332.5 819.4 330 819.8 330.6 820.1 329.1 820.5 328.3 821 329.4 821.9 328.6 823 327.2 824.1 329.9 824.9 327.8 826 330.5 827 329.8 828.2 330.8 829.5 331.6 830.4 331.3 831 329.8 832.2 330.4 833.3 332.4 834.1 331.8 834.7 329 835.2 330.7 835.7 331 836.4 331.9 837.1 329.2 837.4 327.8 837.8 329.8 838.4 333.2 839.1 331.7 839.9 333 840.3 334 840.5 332.3 840.7 331.7 841.1 337.4 841.3 331 841.7 332.6 842.3 336.1 842.9 335.6 843.7 335.4 844.1 331.5 844.3 334 845.1 334.9 845.5 333 846 334.5 846.3 334.4 846.8 332.7 847.2 331.1 847.7 334.4 847.9 332.7 848.5 332.8 849.2 334.6 850.1 331.2 850.8 333.4 851.4 333.9 852.1 337.1 852.8 339 853.2 338 853.8 340.8 854.1 347.4 854.3 345 854.5 347.3 854.8 345.1 855.2 346.6 855.9 347.2 856.2 350.2 856.9 347.3 858 347.9 859 348.2 860.2 346.3 861 345.5 862.3 346.3 863.5 347.7 864.4 347.8 865.8 349.3 867.4 348.4 867.9 351.8 868.1 354.1 868.3 357.5 868.4 359.7 868.4 364.8 868.5 363.7 868.5 364.8 868.6 367.7 868.7 371.6 868.7 369.1 868.8 370.9 868.9 367.6 869 364 869.2 364.6 869.3 366.6 869.5 362.4 869.7 366.3 869.9 364.2 870.2 364.2 870.4 360.7 870.5 357.1 870.7 356.3 870.9 354.4 871.1 352.4 871.5 359.2 871.8 361.1 872.2 362.2 872.4 364.4 872.6 362.9 872.9 366 873.1 365.8 873.4 365.6 873.6 362.3 874 361.8 874.6 361.5 875.1 359.1 875.4 357.7 875.8 359.2 876.1 357.4 876.7 357.2 877.7 359 878.3 356.5 879 356.9 879.9 356.2 880.6 355.5 880.7 360.2 880.7 361.3 880.8 380.4 880.8 370.3 880.8 368.5 880.8 368 880.9 366 881.1 363.4 881.2 367 881.4 369.5 881.5 370.7 881.7 370.5 881.9 362.8 882.1 365.7 882.5 366.9 883.1 368.8 883.6 367.9 883.9 364.2 884.5 366.8 885.5 366.6 886.2 370.6 886.5 372.3 886.7 372.2 887 369 887.3 365.9 887.9 365.2 888.3 364.9 888.8 368.6 889.5 367.9 890.1 369.7 890.7 365.8 891.5 367.2 892.2 364.8 892.5 360.6 892.9 362.5 893.6 365.4 894.2 367 894.4 366.1 894.9 367.9 895.3 366.7 895.5 365.3 895.7 361.5 896 366.1 896.2 363.4 896.5 368 896.7 364.6 897.1 365 897.5 363.8 897.8 363.9 898 362.6 898.4 366.2 898.7 364.9 899 364.9 899.6 363.7 899.8 370.5 900 372.8 900.1 370.7 900.3 367.1 900.4 361.4 900.6 361.5 900.7 360.1 900.8 361.3 901.1 357.9 901.3 359 901.6 361.3 901.9 364.7 902.2 363.8 902.4 364.2 902.6 366.6 902.8 367.3 903.1 367.9 903.5 367.2 903.9 366.9 904.5 369.6 905.5 369.9 906.5 367.9 907.4 369.5 908.6 368.9 909.3 370.9 910.4 369.3 911.9 370.2 912.9 369.3 913.8 372.5 914.5 371.3 915.2 376.1 915.7 373.6 915.9 376.7 916.2 378.7 916.4 381.7 916.5 379.8 916.8 377.1 917.3 376.4 918 378.1 919 376.2 920.1 378.6 920.9 379.1 921.5 380.9 922 383.2 922.2 384.7 922.6 382.7 922.8 385.8 922.9 390.2 923 392.6 923 392.9 923.1 394.1 923.2 394.2 923.2 398.6 923.3 399.2 923.4 398.3 923.5 400 923.6 397.9 923.8 394.1 923.9 395.7 924.1 398.9 924.4 398.5 924.7 398.3 925 400.7 925.1 398.9 925.2 395.6 925.3 397.4 925.5 398.8 925.7 402.8 925.9 403.4 926.1 404.8 926.1 409.4 926.2 416.2 926.2 419.5 926.2 420.3 926.2 414.8 926.2 414.8 926.3 415.1 926.4 417.4 926.5 420.1 926.5 417.6 926.6 418.7 926.8 419.2 926.9 418.2 927.1 416.3 927.3 417.8 927.5 420.5 927.6 420.6 927.8 423.1 927.9 425.6 927.9 433.7 928 431.6 928 425.9 928 421.2 928 423.4 928.1 420.7 928.2 421.3 928.3 419 928.4 419.6 928.4 415.8 928.6 417.8 928.8 417.6 929 421.7 929.2 419 929.4 418.5 929.6 419.3 929.9 418.5 930.2 420.5 930.5 418.1 930.8 420 931.1 416.1 931.4 412.6 931.7 413.2 932.2 415.1 933 413 933.3 406.9 933.5 405.9 933.9 406.2 934 406.4" opacity=".6"/><text x="942" y="472" fill="#d97706" font-size="11" text-anchor="start">0.01</text><text x="942" y="396" fill="#d97706" font-size="11" text-anchor="start">0.01</text><text x="942" y="320" fill="#d97706" font-size="11" text-anchor="start">0.01</text><text x="942" y="244" fill="#d97706" font-size="11" text-anchor="start">0.01</text><text x="942" y="168" fill="#d97706" font-size="11" text-anchor="start">0.01</text><text x="942" y="92" fill="#d97706" font-size="11" text-anchor="start">0.01</text><text x="942" y="80" fill="#d97706" font-size="11" font-weight="600" text-anchor="start">price</text><polygon fill="#16a34a" fill-opacity=".08" points="101 468 101 432.3 101 427 117.4 421 126.6 424.5 162.2 414.1 163.5 418.1 165.9 406.2 171.1 397.1 176.9 386.6 188.9 374.6 197.1 381.5 199.1 391.9 210.7 407.5 220.2 361.1 221.9 345.3 271.3 327.2 380.7 306.9 431.9 284.9 455.8 262.9 457.5 274 482.6 241 574 252 575.1 219 759.4 198.7 785.8 209 854.1 224.3 880.8 178.6 881.1 188.8 915.9 204.1 926.1 158.4 927.9 138.1 933.3 116.1 933.3 468"/><polyline fill="none" stroke="#16a34a" stroke-linejoin="round" stroke-width="2" points="101 432.3 101 427 117.4 421 126.6 424.5 162.2 414.1 163.5 418.1 165.9 406.2 171.1 397.1 176.9 386.6 188.9 374.6 197.1 381.5 199.1 391.9 210.7 407.5 220.2 361.1 221.9 345.3 271.3 327.2 380.7 306.9 431.9 284.9 455.8 262.9 457.5 274 482.6 241 574 252 575.1 219 759.4 198.7 785.8 209 854.1 224.3 880.8 178.6 881.1 188.8 915.9 204.1 926.1 158.4 927.9 138.1 933.3 116.1"/><line x1="88" x2="110" y1="102" y2="102" stroke="#16a34a" stroke-width="2.5"/><text x="116" y="106" fill="#374151" font-size="11.5">equity</text><line x1="88" x2="110" y1="118" y2="118" stroke="#d97706" stroke-width="2.5" opacity=".8"/><text x="116" y="122" fill="#374151" font-size="11.5">price</text><text x="78" y="502" fill="#6b7280" font-size="12" text-anchor="start">2026-01-01</text><text x="934" y="502" fill="#6b7280" font-size="12" text-anchor="end">2026-01-31</text></svg>