<svg xmlns="http://www.w3.org/2000/svg" width="1100" height="560" font-family="ui-sans-serif, system-ui, sans-serif" viewBox="0 0 1100 560"><rect width="1100" height="560" fill="#fff"/><text x="80" y="28" fill="#111827" font-size="18" font-weight="700">Zone Recovery — 1000BONKUSDC fee-tier comparison (best setting)</text><text x="80" y="48" fill="#6b7280" font-size="12.5">lev 5 · ratio 2 · gap 20% · maxSteps 4 · maxDD 60% · random · equity per fee tier vip 0..9</text><text x="80" y="68" fill="#1d4ed8" font-size="12.5" font-weight="600">USDC margin · BNB −10%</text><line x1="80" x2="932" y1="508" y2="508" stroke="#e5e7eb" stroke-width="1"/><text x="70" y="512" fill="#6b7280" font-size="12" text-anchor="end">0.00</text><line x1="80" x2="932" y1="424" y2="424" stroke="#e5e7eb" stroke-width="1"/><text x="70" y="428" fill="#6b7280" font-size="12" text-anchor="end">21283</text><line x1="80" x2="932" y1="340" y2="340" stroke="#e5e7eb" stroke-width="1"/><text x="70" y="344" fill="#6b7280" font-size="12" text-anchor="end">42565</text><line x1="80" x2="932" y1="256" y2="256" stroke="#e5e7eb" stroke-width="1"/><text x="70" y="260" fill="#6b7280" font-size="12" text-anchor="end">63848</text><line x1="80" x2="932" y1="172" y2="172" stroke="#e5e7eb" stroke-width="1"/><text x="70" y="176" fill="#6b7280" font-size="12" text-anchor="end">85130</text><line x1="80" x2="932" y1="88" y2="88" stroke="#e5e7eb" stroke-width="1"/><text x="70" y="92" fill="#6b7280" font-size="12" text-anchor="end">106413</text><line x1="80" x2="932" y1="468.5" y2="468.5" stroke="#9ca3af" stroke-dasharray="6 4" stroke-width="1.5"/><polyline fill="none" stroke="#2563eb" stroke-linejoin="round" stroke-width="1.8" points="80 468.5 80 462.8 96.7 456.1 106.2 460 142.6 448.7 144 453.1 146.5 440.1 151.8 430.2 157.7 418.8 170 405.7 178.3 413.4 180.4 424.9 192.3 442.3 202 391.8 203.7 374.7 254.3 355.2 366.3 332.9 418.7 308.8 443.2 284.7 444.9 297.1 470.6 260.8 564.2 273.2 565.3 237 754 214.7 781 226.1 850.9 243.3 878.2 193.1 878.5 204.6 914.2 221.8 924.6 171.6 926.5 149.3 932 125.2" opacity=".9"/><polyline fill="none" stroke="#dc2626" stroke-linejoin="round" stroke-width="1.8" points="80 468.5 80 462.8 96.7 456.1 106.2 460 142.6 448.7 144 453.1 146.5 440.1 151.8 430.2 157.7 418.8 170 405.7 178.3 413.4 180.4 424.9 192.3 442.3 202 391.8 203.7 374.7 254.3 355.2 366.3 332.9 418.7 308.8 443.2 284.7 444.9 297.1 470.6 260.8 564.2 273.2 565.3 237 754 214.7 781 226.1 850.9 243.3 878.2 193.1 878.5 204.6 914.2 221.8 924.6 171.6 926.5 149.3 932 125.2" opacity=".9"/><polyline fill="none" stroke="#16a34a" stroke-linejoin="round" stroke-width="1.8" points="80 468.5 80 462.7 96.7 456.1 106.2 460 142.6 448.6 144 453 146.5 440 151.8 430 157.7 418.6 170 405.5 178.3 413.2 180.4 424.7 192.3 442 202 391.3 203.7 374.1 254.3 354.5 366.3 332.2 418.7 308 443.2 283.8 444.9 296.2 470.6 259.9 564.2 272.2 565.3 235.9 754 213.6 781 225 850.9 242.1 878.2 191.8 878.5 203.3 914.2 220.4 924.6 170.1 926.5 147.8 932 123.6" opacity=".9"/><polyline fill="none" stroke="#d97706" stroke-linejoin="round" stroke-width="1.8" points="80 468.5 80 462.7 96.7 456.1 106.2 460 142.6 448.5 144 453 146.5 439.9 151.8 429.9 157.7 418.4 170 405.3 178.3 412.9 180.4 424.5 192.3 441.7 202 390.8 203.7 373.6 254.3 353.9 366.3 331.5 418.7 307.3 443.2 283.1 444.9 295.4 470.6 259.1 564.2 271.4 565.3 235 754 212.7 781 224 850.9 241.1 878.2 190.8 878.5 202.2 914.2 219.2 924.6 168.9 926.5 146.5 932 122.3" opacity=".9"/><polyline fill="none" stroke="#7c3aed" stroke-linejoin="round" stroke-width="1.8" points="80 468.5 80 462.7 96.7 456.1 106.2 459.9 142.6 448.5 144 452.9 146.5 439.8 151.8 429.7 157.7 418.2 170 405 178.3 412.7 180.4 424.2 192.3 441.4 202 390.3 203.7 372.9 254.3 353.1 366.3 330.6 418.7 306.4 443.2 282.1 444.9 294.4 470.6 258 564.2 270.2 565.3 233.8 754 211.4 781 222.7 850.9 239.7 878.2 189.3 878.5 200.6 914.2 217.6 924.6 167.2 926.5 144.8 932 120.5" opacity=".9"/><polyline fill="none" stroke="#0891b2" stroke-linejoin="round" stroke-width="1.8" points="80 468.5 80 462.7 96.7 456.1 106.2 459.9 142.6 448.5 144 452.9 146.5 439.7 151.8 429.7 157.7 418.2 170 404.9 178.3 412.6 180.4 424.1 192.3 441.3 202 390.2 203.7 372.8 254.3 352.9 366.3 330.5 418.7 306.2 443.2 281.9 444.9 294.2 470.6 257.8 564.2 270 565.3 233.6 754 211.2 781 222.5 850.9 239.5 878.2 189 878.5 200.4 914.2 217.3 924.6 166.9 926.5 144.5 932 120.2" opacity=".9"/><polyline fill="none" stroke="#db2777" stroke-linejoin="round" stroke-width="1.8" points="80 468.5 80 462.7 96.7 456.1 106.2 459.9 142.6 448.4 144 452.9 146.5 439.7 151.8 429.7 157.7 418.1 170 404.9 178.3 412.6 180.4 424.1 192.3 441.3 202 390.1 203.7 372.7 254.3 352.8 366.3 330.4 418.7 306.1 443.2 281.8 444.9 294.1 470.6 257.6 564.2 269.9 565.3 233.4 754 211 781 222.3 850.9 239.3 878.2 188.9 878.5 200.2 914.2 217.1 924.6 166.7 926.5 144.3 932 120" opacity=".9"/><polyline fill="none" stroke="#65a30d" stroke-linejoin="round" stroke-width="1.8" points="80 468.5 80 462.7 96.7 456 106.2 459.9 142.6 448.4 144 452.9 146.5 439.7 151.8 429.6 157.7 418.1 170 404.9 178.3 412.5 180.4 424 192.3 441.2 202 390 203.7 372.6 254.3 352.6 366.3 330.2 418.7 305.9 443.2 281.6 444.9 293.9 470.6 257.4 564.2 269.7 565.3 233.2 754 210.8 781 222.1 850.9 239 878.2 188.6 878.5 199.9 914.2 216.8 924.6 166.4 926.5 143.9 932 119.6" opacity=".9"/><polyline fill="none" stroke="#475569" stroke-linejoin="round" stroke-width="1.8" points="80 468.5 80 462.7 96.7 456 106.2 459.9 142.6 448.4 144 452.8 146.5 439.7 151.8 429.6 157.7 418.1 170 404.8 178.3 412.5 180.4 424 192.3 441.2 202 389.9 203.7 372.5 254.3 352.5 366.3 330.1 418.7 305.8 443.2 281.5 444.9 293.7 470.6 257.3 564.2 269.5 565.3 233.1 754 210.6 781 221.9 850.9 238.9 878.2 188.4 878.5 199.7 914.2 216.6 924.6 166.2 926.5 143.7 932 119.4" opacity=".9"/><polyline fill="none" stroke="#ea580c" stroke-linejoin="round" stroke-width="1.8" points="80 468.5 80 462.7 96.7 456 106.2 459.9 142.6 448.4 144 452.8 146.5 439.7 151.8 429.6 157.7 418 170 404.8 178.3 412.4 180.4 423.9 192.3 441.1 202 389.8 203.7 372.4 254.3 352.4 366.3 329.9 418.7 305.6 443.2 281.3 444.9 293.6 470.6 257.1 564.2 269.3 565.3 232.8 754 210.4 781 221.7 850.9 238.6 878.2 188.1 878.5 199.4 914.2 216.4 924.6 165.9 926.5 143.4 932 119.1" opacity=".9"/><line x1="950" x2="972" y1="94" y2="94" stroke="#ea580c" stroke-width="3"/><text x="980" y="98" fill="#374151" font-size="12.5">vip 9 98531</text><line x1="950" x2="972" y1="116" y2="116" stroke="#475569" stroke-width="3"/><text x="980" y="120" fill="#374151" font-size="12.5">vip 8 98450</text><line x1="950" x2="972" y1="138" y2="138" stroke="#65a30d" stroke-width="3"/><text x="980" y="142" fill="#374151" font-size="12.5">vip 7 98394</text><line x1="950" x2="972" y1="160" y2="160" stroke="#db2777" stroke-width="3"/><text x="980" y="164" fill="#374151" font-size="12.5">vip 6 98309</text><line x1="950" x2="972" y1="182" y2="182" stroke="#0891b2" stroke-width="3"/><text x="980" y="186" fill="#374151" font-size="12.5">vip 5 98253</text><line x1="950" x2="972" y1="204" y2="204" stroke="#7c3aed" stroke-width="3"/><text x="980" y="208" fill="#374151" font-size="12.5">vip 4 98173</text><line x1="950" x2="972" y1="226" y2="226" stroke="#d97706" stroke-width="3"/><text x="980" y="230" fill="#374151" font-size="12.5">vip 3 97715</text><line x1="950" x2="972" y1="248" y2="248" stroke="#16a34a" stroke-width="3"/><text x="980" y="252" fill="#374151" font-size="12.5">vip 2 97393</text><line x1="950" x2="972" y1="270" y2="270" stroke="#2563eb" stroke-width="3"/><text x="980" y="274" fill="#374151" font-size="12.5">vip 0 96992</text><line x1="950" x2="972" y1="292" y2="292" stroke="#dc2626" stroke-width="3"/><text x="980" y="296" fill="#374151" font-size="12.5">vip 1 96992</text><text x="80" y="542" fill="#6b7280" font-size="12" text-anchor="start">2026-01-01</text><text x="932" y="542" fill="#6b7280" font-size="12" text-anchor="end">2026-01-31</text></svg>