<?xml version="1.0" encoding="UTF-8"?>
<svg xmlns="http://www.w3.org/2000/svg" width="1000" height="520" viewBox="0 0 1000 520" font-family="ui-sans-serif, system-ui, sans-serif">
  <rect width="1000" height="520" fill="#ffffff"/>
  <text x="78" y="28" font-size="18" font-weight="700" fill="#111827">Zone Recovery — SAMSUNGUSDT best setting (equity / PnL)</text>
  <text x="78" y="48" font-size="12.5" fill="#6b7280">lev 15 · ratio 2 · gap 20% · maxSteps 4 · maxDD 60% · random · vip 9  ·  12 series, 100.0% win · vol $7023988 ($7024655/day) · fees $1075</text>
  <text x="78" y="68" font-size="12.5" font-weight="600" fill="#1d4ed8">USDT · BNB −10% · taker 0.0153%</text>
  <text x="934" y="28" text-anchor="end" font-size="18" font-weight="700" fill="#16a34a">+40133 USDT  (+401.33%)</text>
  <line x1="78" y1="468.0" x2="934" y2="468.0" stroke="#e5e7eb" stroke-width="1"/><text x="68" y="472.0" text-anchor="end" font-size="12" fill="#6b7280">0.00</text><line x1="78" y1="392.0" x2="934" y2="392.0" stroke="#e5e7eb" stroke-width="1"/><text x="68" y="396.0" text-anchor="end" font-size="12" fill="#6b7280">10829</text><line x1="78" y1="316.0" x2="934" y2="316.0" stroke="#e5e7eb" stroke-width="1"/><text x="68" y="320.0" text-anchor="end" font-size="12" fill="#6b7280">21657</text><line x1="78" y1="240.0" x2="934" y2="240.0" stroke="#e5e7eb" stroke-width="1"/><text x="68" y="244.0" text-anchor="end" font-size="12" fill="#6b7280">32486</text><line x1="78" y1="164.0" x2="934" y2="164.0" stroke="#e5e7eb" stroke-width="1"/><text x="68" y="168.0" text-anchor="end" font-size="12" fill="#6b7280">43315</text><line x1="78" y1="88.0" x2="934" y2="88.0" stroke="#e5e7eb" stroke-width="1"/><text x="68" y="92.0" text-anchor="end" font-size="12" fill="#6b7280">54143</text>
  <line x1="78" y1="397.8" x2="934" y2="397.8" stroke="#9ca3af" stroke-width="1.5" stroke-dasharray="6 4"/><text x="934" y="391.8" text-anchor="end" font-size="11" fill="#6b7280">start 10000</text>
  <polyline points="78.0,124.9 78.1,132.7 78.2,137.8 78.2,144.3 78.2,154.9 78.3,153.8 78.3,155.2 78.5,154.4 78.6,153.3 79.1,156.2 79.2,151.9 79.5,152.0 79.9,152.6 80.3,148.2 80.5,152.4 81.0,156.1 81.9,155.8 82.5,156.2 82.6,162.5 82.8,166.9 83.1,170.1 83.1,178.8 83.2,175.0 83.2,176.1 83.2,173.0 83.4,164.9 83.8,160.8 84.0,162.4 84.3,155.9 84.6,161.7 85.1,167.5 85.6,168.7 85.7,170.3 86.0,184.9 86.1,191.1 86.1,198.7 86.1,198.7 86.1,201.3 86.1,206.2 86.2,210.2 86.2,205.9 86.3,207.3 86.3,203.8 86.4,208.2 86.4,210.0 86.4,202.6 86.4,206.7 86.6,205.7 86.6,206.2 86.8,204.9 86.8,202.7 86.9,199.1 87.0,193.4 87.1,185.5 87.2,190.0 87.4,184.0 87.5,175.3 87.5,175.4 87.8,179.7 88.1,181.9 88.2,190.0 88.2,191.5 88.5,191.9 88.7,192.2 88.8,197.3 89.3,199.2 89.5,209.6 89.5,211.1 89.6,214.2 89.8,210.2 90.0,201.9 90.0,198.4 90.2,197.8 90.3,204.1 90.4,202.9 90.5,201.6 90.6,205.6 91.1,209.1 91.2,214.6 91.4,209.2 91.6,214.3 91.7,214.9 91.9,212.4 92.3,205.9 92.6,207.1 92.7,209.3 92.8,205.6 92.8,197.8 92.8,199.3 92.8,197.9 92.9,199.8 92.9,200.6 93.0,202.3 93.2,202.9 93.3,196.7 93.3,187.1 93.3,198.8 93.5,205.3 93.6,198.8 93.9,205.4 94.1,197.9 94.2,194.0 94.4,195.8 94.6,193.7 94.7,187.5 94.7,186.0 94.8,189.2 95.2,185.1 95.2,179.0 95.4,178.0 95.7,167.3 95.7,167.7 95.8,179.0 96.0,187.1 96.1,189.2 96.2,185.1 96.2,184.8 96.4,178.5 96.7,169.5 97.2,171.8 97.3,168.8 97.7,172.6 98.0,162.5 98.4,168.7 98.6,167.4 99.1,168.4 99.2,169.8 99.5,172.4 99.5,171.1 100.0,179.7 100.0,185.4 100.2,178.7 100.3,176.6 100.4,187.8 100.6,185.6 100.8,182.0 101.3,180.2 101.8,177.5 102.0,171.1 102.2,167.8 102.8,170.6 103.5,169.7 103.6,160.2 103.6,158.3 103.7,157.5 104.2,161.8 104.5,160.9 104.8,169.3 105.0,180.9 105.4,179.5 105.6,184.0 105.8,184.6 106.2,179.6 107.1,185.6 107.7,191.5 108.0,198.5 108.3,202.4 108.4,198.8 108.8,190.8 108.9,186.8 108.9,188.5 109.0,197.8 109.1,195.4 109.4,193.3 109.7,202.4 110.1,198.4 110.2,191.2 110.2,180.6 110.2,188.7 110.2,189.6 110.4,185.6 110.7,189.4 110.8,188.1 111.1,197.7 111.6,203.0 111.8,209.6 112.0,209.8 112.3,206.0 112.5,205.9 112.8,207.7 113.2,209.3 113.4,211.5 113.8,207.9 114.1,205.9 114.3,206.4 114.5,206.5 114.8,208.4 114.9,212.5 115.2,218.1 115.5,216.4 115.9,213.7 116.5,219.6 116.7,216.9 116.9,214.9 117.3,214.6 117.8,213.8 118.0,213.6 118.1,210.5 118.3,207.1 118.4,207.8 118.5,208.2 118.7,210.0 119.1,210.4 119.6,206.2 119.8,215.1 119.9,220.5 120.0,221.2 120.3,218.1 121.1,219.7 121.4,217.1 121.7,226.9 121.9,226.9 121.9,233.7 122.0,226.7 122.2,221.6 122.6,219.1 122.9,223.5 123.0,225.2 123.2,231.7 123.5,235.0 123.8,229.6 124.0,221.1 124.3,220.5 124.5,217.4 124.6,228.4 124.9,233.4 125.0,227.4 125.2,230.9 125.4,225.7 125.6,220.1 125.8,216.8 125.8,212.0 125.9,214.1 126.1,211.2 126.2,210.3 126.5,211.1 126.8,212.5 127.3,219.8 127.7,229.8 128.0,228.1 128.4,226.1 128.6,232.9 128.7,228.2 128.9,237.2 129.1,240.7 129.2,239.7 129.4,241.9 129.7,238.7 130.2,235.5 130.4,230.6 130.8,221.8 130.9,222.9 130.9,221.5 131.3,215.3 131.4,212.8 131.8,209.3 132.1,205.2 132.4,204.0 132.6,198.6 132.8,195.8 133.0,193.2 133.1,195.4 133.3,192.8 133.3,191.5 133.7,194.5 134.1,194.6 134.3,198.5 134.7,192.0 134.9,190.7 135.1,188.9 135.3,193.8 135.4,193.5 135.7,190.0 135.9,189.4 136.1,190.6 136.4,189.8 136.7,187.1 137.2,185.6 137.5,186.9 138.3,186.1 138.5,181.6 138.6,171.1 138.7,173.1 138.9,173.6 139.0,166.5 139.2,171.8 139.3,177.6 139.3,169.3 139.8,169.6 140.1,177.5 140.1,177.2 140.2,177.4 140.3,172.0 140.5,174.7 140.7,178.0 141.2,177.4 141.5,173.0 142.1,179.7 142.5,179.6 142.8,187.6 143.2,187.4 143.3,184.6 143.4,187.5 143.7,197.9 143.8,203.6 143.9,199.4 144.0,197.5 144.1,199.8 144.3,199.1 144.6,195.1 144.9,195.3 145.2,183.6 145.2,186.7 145.5,180.7 145.8,176.1 146.1,173.9 146.6,179.5 146.8,171.0 147.0,170.4 147.2,171.5 147.4,169.5 147.6,171.6 148.2,172.8 148.8,175.6 149.6,175.5 149.7,174.1 149.8,168.4 150.0,170.1 150.0,162.2 150.1,171.1 150.4,181.9 150.6,179.9 150.7,178.8 150.9,172.4 151.3,165.2 151.6,171.1 151.6,162.7 151.8,166.3 152.2,169.3 152.8,166.3 153.3,159.5 153.6,154.2 153.6,155.5 153.9,153.5 154.1,154.2 154.5,152.4 154.7,159.8 155.0,158.3 155.3,158.9 155.7,156.1 155.9,152.8 156.2,142.9 156.4,141.7 156.6,143.6 156.7,139.4 156.7,137.0 156.8,132.5 156.8,121.5 156.8,126.9 156.8,123.3 156.8,130.9 156.8,133.9 156.8,139.7 156.9,137.1 157.2,139.7 157.4,133.9 157.6,145.9 157.8,149.1 158.1,149.8 158.3,146.5 158.4,145.3 158.9,139.4 159.2,141.3 159.5,146.9 159.8,145.8 160.0,145.9 160.5,148.9 160.7,150.9 161.3,154.2 161.8,155.5 161.9,155.6 162.2,144.0 162.2,145.1 162.5,139.2 162.8,140.4 163.2,136.8 163.4,134.2 163.5,132.0 163.9,133.9 164.2,134.8 164.4,133.9 164.4,126.3 164.4,124.9 164.4,129.9 164.8,132.7 165.2,127.2 165.6,125.3 166.0,123.4 166.9,127.5 167.2,132.2 167.3,136.3 167.4,129.3 167.5,123.0 167.8,127.2 168.1,129.8 168.6,127.1 169.1,126.5 169.6,130.2 169.9,135.3 170.2,136.0 170.6,133.9 170.7,128.4 171.2,129.3 171.6,134.8 171.8,129.6 172.0,136.8 172.5,135.0 173.0,144.9 173.2,144.9 173.5,150.5 173.7,152.8 173.8,154.2 174.2,155.0 174.4,152.8 174.6,159.6 174.8,154.4 174.9,159.2 175.0,158.1 175.1,165.1 175.2,161.0 175.5,156.1 175.5,155.3 175.6,151.5 176.0,158.3 176.1,157.2 176.4,161.5 176.4,157.4 176.7,162.5 177.0,157.9 177.3,157.0 177.6,159.0 177.9,160.4 178.3,157.1 178.5,156.8 179.0,159.8 179.6,161.4 180.1,164.2 180.5,161.6 181.1,157.1 181.5,166.1 181.8,166.7 182.0,168.1 182.1,167.4 182.5,171.3 182.8,173.3 183.3,173.6 183.8,169.3 184.0,174.6 184.4,170.4 185.2,172.1 185.8,172.6 186.1,171.5 186.7,171.1 187.0,168.8 187.2,171.1 187.3,167.6 187.6,168.1 187.8,162.3 187.8,165.4 187.8,159.7 187.9,159.7 188.1,165.8 188.6,168.0 189.0,168.0 189.1,165.1 189.2,167.1 189.7,173.4 190.5,176.4 191.0,177.2 192.1,172.7 192.6,164.7 193.1,171.5 194.0,171.3 194.6,173.0 194.9,169.7 195.0,161.5 195.0,172.8 195.0,164.8 195.2,159.7 195.4,162.9 195.6,163.4 195.7,162.3 195.8,159.9 196.0,160.8 196.1,161.4 196.2,170.7 196.4,171.3 196.6,167.6 196.9,169.4 197.1,174.4 197.4,175.4 198.2,174.4 198.8,171.4 199.9,170.7 200.8,167.5 201.2,164.2 202.3,172.6 203.1,174.3 203.5,174.8 203.7,164.1 203.9,168.0 204.1,164.5 204.6,166.0 205.2,168.1 205.6,172.1 206.2,170.6 206.5,174.3 207.6,176.2 208.2,176.2 209.1,176.0 210.1,178.1 210.7,176.2 211.4,176.1 212.0,174.9 213.1,176.1 213.7,179.5 214.0,182.3 214.1,189.8 214.3,188.6 214.7,185.5 214.7,181.9 214.9,187.2 215.2,186.3 215.5,187.4 215.6,186.7 215.7,183.6 215.7,182.0 215.8,183.6 215.9,180.1 216.0,184.9 216.2,182.7 216.3,182.5 216.7,183.3 216.9,182.2 217.1,183.3 217.3,182.8 217.7,183.3 218.0,182.9 218.4,183.3 218.9,183.0 219.1,178.6 219.3,182.8 219.9,183.2 220.7,181.9 221.3,182.0 221.6,183.3 221.9,180.0 222.5,177.9 223.3,181.9 223.7,175.9 223.7,181.4 223.9,179.3 224.2,181.6 224.4,181.5 224.4,179.3 224.6,175.5 224.8,176.0 225.1,173.9 225.4,180.9 225.6,181.5 226.0,184.8 226.6,181.8 227.3,182.6 227.9,189.3 228.6,193.4 229.0,197.2 229.1,201.8 229.6,197.9 229.8,199.4 230.9,199.6 231.4,201.7 231.9,201.7 232.3,201.0 233.0,202.0 233.7,201.4 234.9,199.2 235.3,199.4 235.7,198.0 235.8,192.0 236.0,193.8 236.5,192.7 236.8,193.2 237.3,194.6 237.8,201.0 238.5,202.0 238.7,203.0 240.0,204.3 240.5,210.5 240.9,211.8 241.5,208.6 242.0,210.2 242.1,201.8 242.4,198.6 242.7,199.4 243.0,200.1 243.4,197.9 243.8,196.7 244.1,195.5 244.1,188.8 244.2,195.9 244.3,197.4 244.5,193.5 244.7,186.2 244.9,179.0 245.1,177.6 245.5,182.9 246.0,184.7 246.2,190.1 246.3,193.7 246.4,195.2 246.6,200.7 247.4,190.9 248.4,195.5 249.2,189.4 250.1,190.5 251.0,181.9 251.5,184.3 251.9,185.4 252.1,187.8 252.5,186.7 253.3,181.4 254.0,179.2 255.0,181.0 255.3,177.6 255.3,172.9 255.3,175.4 255.7,177.4 255.7,174.1 256.0,176.2 256.3,186.6 256.4,186.7 256.5,185.3 256.6,187.1 256.8,184.8 257.1,181.6 257.6,178.9 257.6,173.5 257.7,169.8 258.1,164.3 258.4,171.3 259.0,169.6 259.0,167.8 259.3,165.6 259.3,164.5 259.3,164.5 259.4,166.2 259.5,166.5 259.6,166.8 259.9,167.4 260.2,163.8 260.3,165.0 260.3,167.8 260.4,165.6 260.5,167.6 260.7,166.8 261.0,174.9 261.9,178.5 262.2,183.5 262.9,173.4 263.9,178.5 264.2,177.0 264.5,178.0 265.3,179.7 266.4,183.5 266.6,182.7 267.4,182.8 268.0,182.5 269.1,176.1 269.6,176.8 269.9,177.9 270.7,176.3 271.5,173.0 272.4,179.9 273.0,181.6 273.7,182.7 274.6,181.5 275.2,173.5 275.5,176.7 276.0,175.7 276.2,169.4 276.2,165.2 276.4,169.4 276.7,178.7 277.5,182.9 277.7,182.2 277.8,179.5 278.3,174.1 278.7,176.8 278.9,174.7 279.3,174.2 279.6,176.9 280.0,171.3 280.2,172.0 280.3,167.0 280.7,169.3 280.9,172.8 281.4,174.1 282.0,174.6 282.6,173.9 283.1,177.0 283.4,176.2 283.6,179.7 283.8,176.1 284.0,179.3 284.3,182.9 284.5,183.9 284.9,182.6 285.4,181.8 285.6,181.8 285.7,181.9 285.9,183.9 286.1,184.2 286.5,183.9 286.7,188.7 287.3,190.8 287.4,189.8 287.5,188.9 287.7,190.8 287.9,191.9 288.5,194.1 288.7,195.9 289.2,193.7 290.8,193.5 291.3,193.7 291.4,197.4 292.2,197.1 292.5,196.7 292.9,192.4 293.2,192.7 293.5,192.4 293.9,196.8 294.4,190.9 294.5,189.1 295.1,194.4 295.3,194.1 295.7,190.5 296.0,191.5 296.5,186.3 297.3,191.3 297.4,190.7 297.6,190.4 297.8,190.2 298.0,195.9 298.6,191.8 299.1,194.8 299.5,201.0 299.8,205.3 300.0,210.9 300.2,207.3 300.7,214.3 300.8,213.0 301.2,212.0 301.9,211.8 302.5,214.5 303.2,214.9 303.5,214.5 303.7,222.3 303.9,222.4 304.2,225.4 304.5,228.3 304.6,228.1 304.7,235.2 304.7,233.6 304.7,232.0 304.9,230.3 305.3,228.0 305.7,228.9 305.9,228.5 306.1,227.5 306.2,237.9 306.2,245.9 306.3,239.3 306.5,244.9 306.5,251.7 306.5,261.0 306.5,271.9 306.5,261.3 306.6,277.2 306.6,291.0 306.6,292.2 306.6,283.5 306.6,276.3 306.6,284.2 306.6,279.0 306.6,282.1 306.6,295.7 306.6,300.8 306.6,298.0 306.7,286.9 306.7,298.3 306.7,291.4 306.7,298.1 306.7,304.6 306.8,299.0 306.8,292.8 306.8,289.4 306.8,292.0 306.9,291.1 306.9,283.1 306.9,277.2 307.0,275.5 307.1,277.8 307.2,277.6 307.2,280.8 307.4,278.4 307.5,271.0 307.6,271.6 307.7,265.8 307.8,266.6 307.9,266.7 308.0,263.8 308.1,257.8 308.2,251.2 308.2,252.8 308.3,238.3 308.6,238.7 308.7,235.6 309.0,234.0 309.1,242.3 309.6,244.9 309.8,240.8 309.9,235.5 310.0,235.9 310.0,246.8 310.0,237.7 310.2,246.7 310.4,244.5 310.4,236.3 310.5,235.4 310.5,228.2 310.7,222.8 310.9,219.8 311.1,225.7 311.3,223.1 311.6,224.7 311.8,222.4 311.9,218.1 312.3,218.6 312.5,226.7 312.6,231.1 313.1,234.4 313.2,238.2 313.5,234.7 314.0,224.9 314.2,231.3 314.6,230.2 314.7,224.0 314.9,223.0 315.2,225.5 315.4,224.5 315.6,222.8 316.1,226.7 316.6,226.8 316.9,222.7 317.2,228.3 317.8,228.2 318.1,227.3 318.3,224.2 318.5,222.5 318.9,228.9 319.2,226.5 319.5,225.4 319.7,225.0 320.0,225.6 320.3,231.6 320.4,229.6 320.5,228.4 320.6,223.2 320.6,226.5 320.7,228.3 321.2,230.3 321.8,233.4 321.9,230.3 322.0,229.6 322.1,228.3 322.3,223.8 322.4,223.7 322.5,229.5 323.3,233.1 324.1,230.9 324.6,231.7 325.3,233.5 325.4,231.7 326.1,232.7 327.2,232.2 327.4,232.6 327.8,232.9 328.4,234.4 328.8,233.9 329.0,235.7 329.1,239.2 329.3,241.5 329.3,250.6 329.3,244.7 329.3,256.1 329.3,264.5 329.3,254.2 329.3,261.4 329.3,261.2 329.4,270.0 329.4,269.6 329.4,272.2 329.4,265.1 329.4,262.5 329.5,260.3 329.5,255.8 329.6,253.0 329.7,247.8 330.0,240.6 330.2,240.2 330.5,242.1 330.8,241.4 331.0,243.9 331.0,246.9 331.3,248.1 331.4,249.5 331.6,245.1 331.9,245.4 332.2,246.6 332.6,253.4 332.6,250.7 333.1,246.8 333.7,248.9 334.1,251.1 334.5,249.5 334.6,255.5 334.7,252.2 334.9,252.1 335.2,248.9 335.5,247.1 335.8,246.0 336.1,252.7 336.3,251.5 336.8,255.7 337.2,257.7 337.5,254.8 337.9,255.8 338.1,254.2 338.6,255.1 339.0,259.4 339.2,256.3 339.3,253.0 339.5,254.4 339.9,255.2 340.3,259.6 340.7,260.6 340.7,264.4 341.0,261.1 341.0,272.0 341.0,282.1 341.0,277.9 341.0,278.5 341.1,275.3 341.3,264.9 341.4,261.7 341.6,262.6 341.8,265.3 341.8,271.2 341.8,263.3 341.9,268.5 341.9,281.1 341.9,270.5 342.0,265.1 342.3,265.9 342.4,270.9 342.6,266.6 343.2,261.7 343.8,263.6 344.4,262.1 344.6,265.9 345.2,262.3 346.0,261.7 346.3,261.4 346.5,259.2 346.7,253.0 347.1,248.1 347.8,246.9 348.1,246.5 348.5,243.6 348.6,236.2 348.6,240.7 348.8,236.4 348.8,242.0 348.8,249.4 349.0,245.4 349.1,245.3 349.2,240.3 349.4,235.5 349.7,240.7 350.1,238.5 350.5,234.0 350.8,232.8 351.0,230.6 351.1,227.5 351.3,223.6 351.4,218.6 351.4,210.3 351.4,214.8 351.5,212.4 351.5,219.1 351.6,220.5 351.7,212.8 351.7,209.6 351.7,209.7 351.8,219.6 352.1,219.6 352.4,223.0 352.8,223.2 353.3,225.6 353.9,226.3 354.1,222.7 354.1,218.1 354.2,218.3 354.6,220.1 354.8,223.5 355.3,225.6 355.7,225.1 356.0,230.6 356.0,238.7 356.0,239.2 356.2,234.9 356.3,233.1 356.4,228.0 357.3,228.2 357.8,233.9 358.3,230.6 358.9,230.0 359.4,231.9 360.0,234.1 360.4,231.5 360.9,232.3 361.1,236.7 361.1,240.8 361.2,239.3 361.6,236.7 361.9,233.6 362.5,234.6 363.0,236.8 363.0,246.9 363.0,247.5 363.0,248.5 363.0,253.2 363.1,243.9 363.3,240.9 363.4,237.9 363.4,237.7 364.0,235.9 364.4,234.8 364.7,236.8 365.3,236.3 365.8,238.1 366.6,239.6 367.4,238.1 368.0,240.2 368.4,239.3 368.8,237.7 369.8,236.9 370.7,236.4 371.7,237.6 372.1,234.8 372.7,234.4 373.5,235.3 374.1,233.7 374.8,234.4 375.1,229.8 376.0,231.3 376.7,230.4 377.8,227.7 379.5,226.4 380.5,224.2 380.9,222.2 381.2,221.6 381.9,221.0 382.4,225.8 382.8,219.8 383.0,224.0 383.6,224.2 384.4,224.8 385.4,223.5 386.7,225.7 387.7,232.2 387.9,232.8 388.1,234.1 389.0,232.2 390.2,233.3 391.8,231.0 394.3,232.4 395.0,233.4 395.9,233.7 396.3,233.3 396.6,234.0 397.3,230.9 397.9,226.3 399.1,223.5 399.4,225.7 400.2,227.3 401.4,225.0 402.0,227.6 403.2,221.1 403.9,225.4 404.8,220.8 405.3,221.4 406.1,217.8 406.5,219.5 406.9,215.3 407.4,211.7 407.4,205.4 407.7,206.5 407.9,206.0 408.1,208.3 408.3,211.1 409.2,211.7 409.7,214.9 410.0,207.7 410.8,205.2 410.9,203.3 411.1,205.4 412.1,215.8 412.9,218.1 413.9,213.6 414.4,221.2 415.1,216.4 415.7,218.4 416.1,212.6 416.4,210.5 416.9,209.1 417.0,207.8 417.6,207.6 418.0,211.0 418.6,208.9 419.2,208.9 419.9,205.4 421.5,211.5 422.6,210.2 423.2,210.7 424.0,208.6 425.8,206.3 426.2,203.8 426.5,203.2 426.9,199.2 427.2,204.9 427.3,211.2 428.0,205.4 428.7,209.7 429.6,204.1 430.2,202.9 430.3,213.2 430.6,211.1 430.7,209.3 431.8,204.7 431.9,193.7 431.9,196.0 432.0,199.9 432.1,199.9 432.6,201.3 433.6,200.1 434.3,200.3 435.3,201.3 435.9,204.4 436.9,206.2 437.3,203.2 438.1,204.5 439.0,207.1 439.4,208.4 440.3,207.2 441.0,202.4 441.2,206.5 441.8,203.7 442.7,207.0 443.7,207.0 443.8,205.8 444.8,205.8 445.8,208.3 446.2,209.0 446.8,205.6 447.8,206.6 448.1,210.3 448.4,207.8 448.6,207.9 449.0,202.6 449.2,202.5 449.6,202.1 449.8,201.7 450.3,203.2 451.0,207.8 451.2,208.6 451.4,207.1 451.9,206.9 452.2,206.0 452.5,201.2 452.7,204.0 453.0,206.5 453.2,207.3 453.6,209.2 453.9,208.4 454.4,207.2 454.7,206.9 455.2,208.4 455.9,207.3 456.5,205.9 456.7,206.2 456.8,204.3 457.0,203.4 457.6,202.7 457.9,203.4 458.5,199.4 459.7,206.7 460.4,201.3 461.0,202.3 461.7,201.2 462.6,197.4 462.7,191.1 462.9,193.7 463.8,197.8 464.1,203.3 464.5,203.0 465.9,204.4 466.8,204.7 467.8,202.3 468.4,204.5 469.0,207.0 469.6,205.8 470.4,206.4 470.9,207.3 471.4,207.9 472.2,206.2 472.8,207.6 473.3,208.7 474.0,204.1 475.3,205.9 475.7,209.9 476.0,209.2 476.4,208.0 477.7,204.1 478.8,202.4 480.2,197.2 480.9,191.8 481.1,188.9 481.5,187.5 481.9,189.4 482.3,188.0 483.4,187.9 484.1,186.0 484.6,187.5 484.8,191.9 485.2,197.2 485.5,194.1 485.8,179.7 485.8,184.3 486.4,185.5 486.6,178.5 487.0,168.8 487.1,159.9 487.2,153.8 487.5,163.8 487.6,168.8 488.0,171.3 488.3,176.7 488.5,176.4 488.7,175.0 488.8,177.6 489.2,175.6 489.3,175.0 489.7,174.3 490.0,170.3 490.6,169.8 490.9,171.8 491.4,174.1 491.6,174.9 491.9,175.9 491.9,180.6 492.1,187.4 492.4,186.3 493.1,189.6 493.2,193.5 493.5,193.7 493.6,192.5 493.9,191.8 494.0,185.5 494.2,186.2 494.8,178.5 494.8,177.4 495.3,170.9 495.6,175.5 495.7,175.2 497.0,176.0 497.7,168.0 497.8,162.3 498.1,167.4 498.5,162.8 498.9,162.2 499.4,165.8 499.8,164.1 500.7,171.6 501.4,174.4 502.1,175.4 503.1,173.5 503.7,170.3 504.2,172.7 505.5,167.6 506.0,167.7 506.6,166.4 506.7,171.7 506.9,173.1 507.6,171.8 508.2,167.6 509.0,160.5 509.2,157.1 509.3,154.5 509.7,164.5 510.1,166.5 510.1,167.0 510.2,159.0 510.2,150.9 510.2,156.9 510.2,156.5 510.6,160.3 510.8,160.5 510.8,168.3 510.8,172.8 510.8,172.8 510.8,184.6 510.8,195.7 510.8,184.8 510.8,191.5 510.8,191.2 510.8,193.9 510.8,199.8 510.8,202.0 510.9,211.7 510.9,222.9 510.9,210.7 510.9,210.4 510.9,221.4 510.9,216.6 510.9,225.5 510.9,222.9 510.9,235.7 510.9,235.4 510.9,232.8 510.9,234.6 510.9,233.0 510.9,231.7 510.9,225.0 510.9,219.8 510.9,216.2 511.0,214.6 511.0,210.6 511.0,211.3 511.0,216.5 511.1,216.4 511.1,222.4 511.1,228.5 511.1,237.0 511.1,240.9 511.1,241.4 511.1,240.9 511.1,236.7 511.2,237.7 511.2,226.2 511.2,237.0 511.3,232.8 511.3,234.8 511.3,243.4 511.3,240.6 511.3,250.2 511.3,247.6 511.4,244.9 511.4,234.6 511.4,238.7 511.4,234.7 511.4,234.0 511.5,239.4 511.5,237.9 511.5,231.5 511.7,227.3 511.8,221.7 512.0,218.6 512.2,217.9 512.6,211.3 512.6,219.7 512.7,211.1 512.9,214.8 513.1,208.3 513.1,218.6 513.2,216.4 513.3,225.1 513.5,229.4 513.6,238.2 513.7,230.9 513.8,221.8 513.9,220.1 514.0,218.6 514.1,220.5 514.2,224.0 514.4,228.5 514.6,225.0 514.8,221.4 514.9,215.1 514.9,206.4 515.1,205.6 515.1,200.7 515.4,195.0 515.5,202.6 515.6,198.7 515.6,201.4 515.9,203.3 516.1,205.0 516.1,202.0 516.2,202.3 516.2,196.8 516.3,202.4 516.4,204.1 516.6,203.9 516.7,200.4 516.8,199.2 516.9,197.9 517.0,200.3 517.1,198.1 517.2,191.3 517.3,187.8 517.4,187.9 517.4,184.7 517.5,184.5 517.7,179.2 517.8,183.5 517.8,191.8 517.8,198.4 517.9,204.9 517.9,203.0 518.0,210.4 518.3,213.8 518.3,215.2 518.6,212.2 518.7,200.4 519.0,201.4 519.5,207.6 519.6,198.4 519.8,195.7 520.0,197.9 520.3,192.4 520.5,195.3 520.9,195.2 521.5,203.7 522.3,209.0 523.3,204.1 523.9,199.9 523.9,206.9 524.5,208.6 524.5,218.5 524.9,215.3 525.4,211.9 525.9,212.9 526.1,217.4 526.2,219.8 526.5,215.7 526.8,219.9 527.5,221.8 527.9,223.5 528.2,228.3 528.6,219.7 529.2,216.3 529.5,215.5 529.7,216.3 530.1,211.7 530.2,210.3 530.4,208.0 530.5,202.6 531.1,206.2 531.6,205.9 532.0,202.5 532.6,207.6 533.2,210.4 534.0,204.1 535.2,205.2 535.9,207.6 536.4,215.2 536.6,221.7 536.7,223.1 536.8,221.5 537.0,222.5 537.1,223.5 537.2,221.6 537.4,224.5 537.9,220.5 538.2,224.2 538.4,230.1 538.4,240.3 538.4,234.9 538.6,227.8 538.8,226.8 539.1,231.9 539.1,233.7 539.9,227.6 541.6,221.1 542.3,220.9 543.0,221.0 543.1,220.2 543.9,218.3 544.2,217.6 544.7,215.8 545.3,215.1 545.4,216.6 545.6,219.6 545.8,217.5 546.5,216.1 547.1,217.2 547.3,218.3 547.8,219.7 548.5,218.3 549.0,214.6 549.7,217.2 550.7,218.6 551.4,219.0 552.4,217.8 553.0,216.1 553.2,213.3 553.9,212.8 554.0,208.4 554.0,202.5 554.3,206.3 555.4,207.6 556.0,211.3 556.2,212.5 557.2,209.3 557.4,219.5 557.5,223.5 557.6,227.3 557.7,230.2 558.0,222.8 558.7,221.5 559.9,225.7 560.1,238.7 560.2,232.0 560.5,227.0 560.5,226.9 560.6,234.0 560.7,215.8 560.9,213.9 561.4,216.6 561.8,216.2 562.1,219.7 562.2,226.5 562.5,230.3 562.9,224.1 563.6,227.7 564.3,234.7 564.4,240.5 564.4,240.8 564.7,239.5 564.9,238.7 565.1,240.0 565.1,240.7 565.3,237.9 565.8,240.8 566.2,241.0 566.5,246.6 566.5,248.7 566.5,240.6 566.6,243.5 566.6,248.5 566.7,249.4 566.7,254.5 566.7,256.4 566.8,250.0 567.0,252.2 567.0,258.7 567.1,253.1 567.3,246.9 567.4,239.6 567.7,241.6 568.3,244.9 568.5,245.2 568.6,248.2 568.8,250.7 569.2,253.2 569.4,255.3 569.4,261.6 569.6,259.6 569.7,253.7 570.0,254.2 570.2,265.3 570.3,265.7 570.5,268.5 570.5,257.1 570.5,249.1 570.9,257.4 571.1,265.1 571.1,263.3 571.2,270.0 571.2,280.2 571.2,266.6 571.3,275.5 571.3,280.2 571.4,275.3 571.5,276.5 571.6,267.2 571.6,268.3 571.8,266.5 572.1,261.0 572.4,263.9 572.6,264.3 572.8,261.8 572.8,256.4 573.2,255.2 573.4,250.8 573.4,241.3 573.6,241.8 573.8,237.2 573.8,234.4 573.9,236.8 574.0,232.0 574.1,228.8 574.1,223.8 574.2,223.2 574.4,222.4 574.4,215.8 574.5,221.5 574.6,217.5 574.7,209.9 574.7,206.6 574.8,214.2 574.9,209.1 575.1,209.9 575.2,210.9 575.3,210.7 575.5,227.6 575.6,234.8 575.9,236.8 576.1,238.0 576.2,238.0 576.3,241.9 576.6,245.5 576.7,241.3 576.8,250.4 577.0,253.1 577.3,251.9 577.4,253.3 577.5,258.1 577.5,247.4 577.7,251.2 577.9,253.0 578.2,253.4 578.2,261.7 578.3,265.3 578.3,266.3 578.4,262.3 578.5,258.4 578.6,250.4 578.6,262.9 578.7,250.4 578.9,254.1 579.1,252.8 579.2,245.2 579.2,243.8 579.4,253.1 579.6,246.0 579.8,241.8 580.0,245.3 580.2,247.1 580.9,247.4 581.0,251.7 581.2,254.1 581.3,264.1 581.4,257.7 581.6,252.8 581.9,245.9 582.1,246.5 582.3,257.5 582.4,253.4 582.7,247.8 582.8,243.2 583.0,248.7 583.3,256.8 583.3,248.8 583.5,257.2 583.9,261.0 583.9,261.8 584.1,260.5 584.5,261.7 584.7,262.5 584.8,261.8 585.0,264.6 585.6,267.0 585.6,273.0 585.7,272.8 585.8,273.7 585.9,277.7 586.0,273.2 586.0,273.8 586.1,271.2 586.2,275.6 586.3,271.6 586.7,269.3 586.7,272.4 586.9,268.4 586.9,259.7 587.0,252.8 587.1,257.2 587.1,246.8 587.2,243.5 587.5,254.6 587.7,252.7 588.1,254.8 588.4,251.2 588.8,252.4 588.8,249.9 588.9,252.1 589.2,251.4 589.3,246.3 589.4,248.0 589.5,245.2 589.6,239.9 589.6,245.2 589.8,246.0 590.0,241.3 590.1,237.3 590.3,245.8 590.4,255.2 590.7,259.0 590.9,262.9 591.1,266.3 591.4,260.5 591.8,259.0 592.1,258.7 592.2,254.5 592.3,258.0 592.5,257.7 592.8,267.9 593.0,266.6 593.1,267.2 593.3,270.4 593.3,272.4 593.4,279.0 593.5,279.0 593.6,278.1 593.7,282.4 593.9,285.1 594.0,284.3 594.1,284.7 594.2,290.2 594.6,290.7 594.8,288.3 594.9,284.8 595.2,284.5 595.3,276.8 595.5,271.9 595.7,279.9 595.7,274.8 595.9,270.5 596.1,272.4 596.4,278.8 596.5,279.7 596.6,287.4 596.7,289.4 596.8,284.2 596.8,286.1 596.8,284.2 597.0,285.0 597.1,283.8 597.2,281.1 597.4,285.4 597.6,280.5 597.6,276.4 597.7,269.5 597.8,266.9 598.0,270.9 598.1,261.4 598.2,266.7 598.4,264.6 598.6,266.0 598.8,266.4 599.1,266.3 599.1,263.3 599.3,267.6 599.5,262.5 599.5,257.0 599.7,262.9 599.9,260.5 600.0,260.1 600.4,269.0 600.7,272.5 601.3,265.6 601.8,267.6 602.1,267.2 602.5,265.9 603.0,265.1 603.4,269.5 603.6,273.8 603.7,270.2 604.0,268.4 604.1,259.8 604.2,261.4 604.3,260.1 604.4,256.1 604.5,252.8 604.7,251.9 605.2,252.1 605.4,264.6 606.2,267.2 606.8,267.0 607.1,269.7 607.8,264.9 608.3,263.7 608.8,261.6 609.0,261.1 610.0,261.8 610.6,263.7 611.2,264.6 611.7,258.1 612.4,264.6 613.3,262.7 613.9,259.8 614.6,262.3 614.8,263.2 615.0,264.0 615.2,262.4 615.4,264.5 616.8,264.9 617.8,261.6 619.2,265.2 621.0,265.6 622.0,264.9 623.2,266.7 623.4,274.6 623.7,264.5 623.8,256.7 623.8,260.8 624.0,267.0 624.7,271.7 624.8,279.0 624.8,282.7 624.9,281.5 624.9,275.9 625.0,281.4 625.1,279.7 625.1,280.1 625.3,281.9 625.5,284.0 625.6,290.6 625.7,295.6 625.9,290.6 626.2,289.0 626.3,294.7 626.3,293.1 626.6,294.1 626.8,299.3 626.8,305.1 626.9,313.7 626.9,312.5 627.0,314.1 627.0,314.1 627.0,308.2 627.1,313.2 627.2,315.0 627.3,310.6 627.3,307.8 627.4,306.0 627.5,313.7 627.6,317.8 627.7,315.1 627.7,310.8 627.9,315.4 627.9,316.8 628.0,316.7 628.1,309.8 628.1,313.3 628.3,316.7 628.5,314.7 628.6,314.0 629.1,315.4 629.2,313.8 629.2,310.9 629.4,309.5 629.7,308.6 629.7,315.5 629.8,312.2 629.8,311.3 629.9,309.4 629.9,315.2 629.9,311.7 630.0,310.5 630.1,307.5 630.2,306.2 630.3,307.2 630.6,306.8 630.7,306.7 630.8,307.8 631.0,304.5 631.1,301.3 631.5,304.7 632.1,303.4 632.4,301.3 632.7,303.2 632.7,299.7 632.9,302.6 633.3,304.9 634.1,300.8 634.3,302.0 634.6,301.6 634.9,302.0 635.1,306.1 635.3,306.3 635.5,310.1 635.6,305.8 636.1,305.3 636.3,307.8 636.4,304.1 636.6,307.9 636.9,305.6 637.2,306.0 637.2,305.1 637.5,302.1 637.6,302.7 638.0,308.5 638.1,310.0 638.2,306.9 638.3,308.9 638.5,310.5 639.1,307.8 639.4,310.4 639.9,310.5 640.4,309.5 640.9,310.4 641.3,307.8 642.2,315.5 642.5,309.9 642.5,301.5 642.5,296.1 642.6,300.8 642.7,293.5 642.8,290.3 642.8,286.5 642.8,284.7 642.9,281.4 642.9,284.9 642.9,279.9 643.1,279.9 643.8,280.8 644.6,284.4 644.6,294.1 645.2,299.3 645.3,298.3 645.4,297.9 645.7,297.3 645.8,295.6 646.1,300.2 646.2,298.1 646.3,295.4 646.6,294.6 647.0,299.4 647.2,295.3 647.2,287.0 647.3,287.7 647.6,289.3 648.7,292.7 648.7,300.1 648.9,299.3 649.1,300.8 649.5,302.1 649.8,309.8 649.9,309.5 650.0,314.5 650.2,313.8 650.5,313.0 651.1,316.7 651.8,316.5 652.3,322.9 652.3,332.0 652.5,330.2 652.5,331.1 652.6,322.0 652.6,321.9 652.8,326.9 652.9,325.3 653.1,326.0 653.3,331.1 653.4,337.4 653.5,341.8 653.5,345.5 653.5,349.6 653.5,351.5 653.6,343.7 653.7,349.1 653.8,350.0 653.8,354.1 654.1,351.4 654.1,358.8 654.2,356.2 654.2,355.5 654.3,357.2 654.4,358.7 654.5,358.3 654.7,358.1 654.8,362.6 655.0,368.2 655.0,372.5 655.0,367.6 655.0,371.8 655.0,375.0 655.0,374.4 655.0,375.8 655.0,376.3 655.1,376.4 655.2,373.4 655.2,372.4 655.3,374.8 655.6,364.8 655.6,368.7 655.6,375.7 655.7,365.9 655.9,372.1 655.9,370.0 655.9,364.9 656.0,372.4 656.0,369.5 656.1,370.8 656.3,373.1 656.4,371.1 656.5,370.7 656.6,368.9 656.8,369.1 656.9,373.4 657.1,370.7 657.1,371.5 657.2,376.5 657.3,377.7 657.4,375.4 657.6,377.8 657.6,377.5 657.7,373.0 657.8,372.7 657.8,365.3 657.9,360.8 658.1,355.4 658.2,357.3 658.3,361.6 658.3,357.4 658.5,353.9 658.9,350.4 659.1,349.7 659.2,355.9 659.4,353.7 659.5,360.6 659.6,351.7 659.6,358.7 659.6,360.9 659.6,361.9 659.7,355.6 659.7,361.4 659.7,368.5 659.7,366.5 659.7,372.0 659.7,377.2 659.7,376.5 659.8,376.6 659.9,375.5 660.0,377.3 660.1,371.1 660.3,372.6 660.4,376.5 660.6,378.0 660.7,376.6 660.8,380.1 660.8,371.8 660.8,378.4 661.0,387.3 661.2,388.2 661.3,377.5 661.5,369.5 661.8,362.9 661.8,355.9 661.9,351.6 662.0,363.2 662.0,359.4 662.0,379.2 662.0,380.4 662.1,376.1 662.2,373.3 662.4,372.7 662.4,375.7 662.5,371.8 662.6,372.7 662.9,378.8 663.0,376.6 663.0,374.7 663.0,373.0 663.4,366.6 663.6,367.2 663.8,372.6 663.8,378.7 663.9,377.4 663.9,373.5 664.2,364.3 664.4,367.8 664.8,365.8 665.3,365.5 665.4,367.1 665.5,364.5 665.7,371.9 665.9,377.7 665.9,374.8 666.1,373.5 666.5,369.8 666.6,370.6 667.1,369.4 667.2,372.2 667.3,371.7 667.5,375.4 667.5,386.4 667.8,386.6 668.0,386.6 668.1,385.2 668.3,387.9 668.7,383.4 668.9,384.2 669.1,385.1 669.6,383.3 669.9,383.3 670.4,388.6 670.6,378.7 670.7,376.7 670.8,379.0 671.0,378.7 671.0,381.0 671.1,386.9 671.2,386.0 671.3,381.3 671.4,377.2 671.4,381.4 671.5,374.8 671.8,373.9 672.0,374.7 672.2,372.4 672.3,368.6 672.5,369.2 672.5,368.4 672.6,370.7 672.6,375.4 672.7,383.3 672.8,385.3 673.1,388.6 673.1,389.7 673.2,391.1 673.4,388.9 673.7,390.6 673.8,388.2 674.3,383.9 674.3,382.3 674.4,381.8 674.9,388.6 675.3,387.8 675.5,391.6 675.5,387.5 675.5,382.7 675.6,390.3 675.8,391.0 675.8,400.5 675.8,399.1 675.9,403.4 676.1,391.7 676.1,391.6 676.3,394.9 676.5,405.0 676.7,408.7 676.8,398.3 676.9,409.6 676.9,399.5 676.9,405.8 677.3,401.2 677.3,396.2 677.3,404.4 677.4,398.6 677.6,404.2 677.7,407.1 677.8,412.8 677.8,421.6 677.8,421.3 677.9,420.0 677.9,416.2 677.9,409.0 678.0,419.9 678.0,423.6 678.0,420.2 678.1,419.0 678.1,417.4 678.2,414.8 678.4,408.4 678.4,399.0 678.5,391.8 678.6,397.7 678.7,390.0 678.9,391.7 679.0,396.3 679.1,400.4 679.2,391.9 679.4,390.5 679.6,391.5 679.6,388.0 679.7,391.6 679.7,390.6 680.2,389.6 680.3,387.1 680.8,387.0 680.9,388.6 681.0,388.7 681.1,390.2 681.4,387.3 681.5,389.9 681.8,391.2 682.0,398.2 682.1,398.1 682.3,397.4 682.3,403.6 682.4,404.3 682.4,412.3 682.4,414.4 682.6,418.3 682.6,419.6 682.7,413.0 683.2,406.8 683.2,404.1 683.4,403.5 683.8,400.3 683.9,394.8 684.4,398.2 684.4,396.9 684.4,395.7 685.0,395.1 685.0,396.5 685.5,400.1 685.7,397.2 686.2,400.9 686.5,394.3 686.8,398.5 687.0,396.9 687.3,392.3 687.4,390.6 687.9,391.1 688.0,390.9 688.3,394.2 688.5,394.8 688.6,397.6 688.9,392.4 689.1,393.1 689.4,397.4 689.4,400.4 689.6,391.5 689.8,389.1 690.4,390.9 690.5,400.7 690.5,405.8 690.7,407.8 690.8,409.6 690.9,409.1 691.1,408.3 691.6,410.2 691.7,413.6 692.0,409.8 692.2,407.7 692.8,407.3 693.0,407.4 693.1,410.9 693.2,408.4 693.3,406.5 693.4,402.2 693.9,401.6 694.5,412.1 694.5,407.8 695.0,406.1 695.2,404.3 695.7,403.0 696.3,407.6 696.3,401.6 696.5,406.2 696.9,401.2 697.6,400.3 697.9,393.3 698.0,388.5 698.1,392.4 698.4,395.7 698.4,395.0 698.5,393.5 698.7,391.3 698.8,390.8 698.8,399.7 698.8,399.4 698.8,403.4 698.9,399.4 699.3,395.0 699.4,395.6 699.5,399.5 699.9,397.7 700.2,399.7 700.6,397.2 701.1,392.2 701.1,390.4 701.4,389.7 701.7,390.9 702.2,397.7 702.3,391.7 702.4,389.5 702.7,387.5 703.0,387.1 703.7,385.1 704.1,391.7 704.6,394.2 704.9,393.1 705.1,393.9 705.8,392.2 705.9,387.8 706.4,388.7 707.4,385.9 707.8,389.6 709.1,386.3 709.4,393.1 709.5,391.7 709.7,391.7 710.0,393.3 710.0,388.4 710.6,393.8 710.7,393.6 711.2,396.3 711.7,394.5 712.8,390.9 713.3,394.6 713.4,394.1 714.1,393.2 714.8,391.8 715.6,392.4 716.5,389.0 716.5,388.2 716.7,383.7 717.2,385.4 717.7,386.7 718.3,387.9 718.5,381.3 719.0,383.7 719.2,379.8 719.3,379.0 719.6,381.9 719.9,385.3 719.9,393.0 719.9,391.1 720.0,393.1 720.1,390.3 720.1,378.3 720.3,378.0 720.5,376.7 720.5,378.3 720.6,377.4 720.7,378.3 721.0,376.6 721.1,376.4 721.7,377.3 722.1,377.8 723.0,375.7 723.4,373.2 723.6,377.2 723.8,375.5 724.2,375.4 724.5,376.0 724.9,375.1 726.0,377.8 726.5,376.8 727.2,376.1 727.6,383.3 727.8,383.7 727.8,389.5 727.9,391.9 728.1,390.5 728.8,391.6 729.0,399.1 729.2,398.4 729.5,399.7 729.8,397.5 730.5,396.1 730.8,392.9 730.9,390.8 731.4,393.2 732.0,394.3 732.0,390.2 732.2,393.6 732.6,390.6 733.1,390.4 733.7,394.1 734.8,398.9 734.9,404.2 735.0,401.0 735.4,399.7 735.5,401.2 735.8,403.5 735.8,408.6 735.8,414.8 735.8,414.8 736.1,411.1 736.2,415.5 736.3,416.0 736.3,414.6 736.4,413.9 736.5,417.7 736.5,416.6 736.7,411.1 737.2,414.2 737.3,414.2 737.4,420.2 737.4,423.9 737.5,427.1 737.6,428.6 737.7,427.2 737.8,426.2 737.9,423.8 738.1,424.7 738.2,425.3 738.3,419.9 738.5,408.9 738.5,404.7 738.6,401.7 738.6,389.5 738.7,394.2 738.7,388.4 738.8,384.2 738.9,382.6 739.0,378.3 739.1,385.2 739.1,377.3 739.2,381.2 739.2,376.4 739.3,368.1 739.4,373.0 739.4,366.7 739.5,366.1 739.6,368.8 739.6,361.3 739.7,373.3 739.7,370.9 739.8,367.2 739.8,361.5 739.9,356.6 740.0,354.1 740.1,350.7 740.1,342.3 740.2,334.8 740.3,332.0 740.3,328.3 740.3,329.5 740.3,329.7 740.3,330.6 740.4,337.9 740.4,334.4 740.5,336.4 740.6,343.0 740.6,358.2 740.6,364.9 740.7,360.3 740.7,362.1 740.7,366.8 740.8,359.5 740.8,363.4 740.9,369.9 740.9,363.8 741.0,365.6 741.1,371.9 741.1,372.6 741.2,377.0 741.2,385.2 741.3,390.2 741.3,389.0 741.4,390.4 741.5,386.3 741.6,387.5 741.9,378.6 742.1,371.8 742.3,373.5 742.6,373.3 742.9,370.7 743.1,370.1 743.2,378.3 743.2,386.2 743.3,392.3 743.3,382.4 743.4,375.4 743.5,379.6 743.5,378.0 743.6,381.8 743.8,382.5 744.0,376.8 744.1,377.7 744.4,381.2 744.5,387.2 745.1,388.6 745.1,399.2 745.1,397.5 745.1,395.8 745.2,398.9 745.3,398.4 745.4,397.4 745.5,407.1 745.5,398.8 745.6,400.4 745.7,399.9 745.9,399.9 746.2,400.7 746.4,401.8 746.6,400.2 746.8,390.5 746.9,400.1 747.0,399.9 747.0,412.9 747.1,416.2 747.1,416.6 747.2,408.4 747.3,414.8 747.3,414.1 747.4,420.2 747.5,422.3 747.6,421.8 747.7,409.3 747.9,412.3 748.1,417.6 748.2,418.3 748.2,428.4 748.2,418.3 748.3,421.5 748.4,424.2 748.4,421.8 748.5,416.9 748.7,418.8 749.0,416.0 749.0,426.5 749.1,421.2 749.2,420.0 749.2,422.8 749.3,415.5 749.4,416.7 749.7,416.4 749.9,414.7 750.4,415.5 750.9,414.2 751.0,424.2 751.3,419.5 751.4,425.9 751.7,424.2 751.9,422.1 752.4,426.2 752.7,418.3 752.8,415.7 752.8,415.5 752.9,415.4 753.1,413.5 753.3,409.8 753.4,407.4 753.7,409.5 753.7,402.7 753.9,402.2 754.1,402.1 754.5,411.5 754.5,421.5 754.6,412.0 755.2,413.5 755.3,415.9 755.3,416.3 755.6,421.8 755.7,421.0 755.7,416.6 755.8,416.7 756.0,415.9 756.6,415.5 757.0,412.3 757.4,410.4 758.0,413.6 758.4,421.2 758.9,424.0 759.3,418.0 759.6,425.9 760.3,416.9 760.6,418.2 760.8,429.3 761.0,423.1 761.2,417.5 761.4,413.0 762.1,425.5 762.3,421.8 762.7,424.1 762.9,414.4 763.1,411.7 763.4,409.6 763.5,410.9 764.1,415.9 764.2,411.3 764.5,414.3 765.3,416.4 765.6,416.9 765.9,412.3 766.0,407.0 766.4,414.8 767.0,411.3 767.1,411.7 767.7,416.1 768.1,422.9 768.5,419.9 768.9,415.6 769.2,417.7 769.3,415.0 769.6,410.3 769.7,407.8 769.8,414.8 770.6,411.4 771.1,409.7 771.4,407.3 771.8,407.4 772.1,407.1 772.4,407.5 772.6,404.0 772.6,407.3 773.1,407.4 773.3,411.3 773.3,421.3 773.4,428.5 773.5,420.9 773.6,417.9 774.0,414.9 774.5,414.3 774.8,418.9 775.4,419.9 775.6,416.7 776.3,413.7 776.7,409.4 777.2,413.9 778.4,407.8 778.9,407.0 779.0,406.8 779.0,399.6 779.4,401.1 779.5,397.1 779.6,393.1 779.6,385.6 779.7,387.0 779.9,392.2 780.1,399.2 780.4,397.5 780.5,401.1 780.8,402.7 781.0,399.7 781.1,403.6 781.3,409.6 781.5,411.9 781.6,410.6 781.8,409.5 781.9,410.2 782.3,409.8 782.5,404.4 782.7,405.5 782.9,402.8 783.0,396.8 783.0,388.6 783.0,384.7 783.1,378.3 783.1,381.7 783.1,383.9 783.3,389.1 783.6,388.9 783.7,384.6 784.3,385.3 784.3,381.7 784.5,378.1 784.6,384.4 784.9,385.3 785.0,382.9 785.3,393.1 785.5,385.2 785.8,388.5 786.0,391.9 786.1,385.0 786.1,385.2 786.4,387.5 786.5,395.2 786.6,394.4 786.7,392.3 786.8,393.7 787.1,400.5 787.3,398.9 787.3,401.9 787.6,403.4 787.9,409.4 788.4,408.8 789.0,409.1 789.6,411.6 790.1,411.9 790.4,407.6 790.8,408.2 791.2,402.7 791.4,404.1 791.9,403.0 792.4,402.4 792.6,411.3 792.9,418.3 793.1,414.2 793.2,417.9 793.3,414.9 793.7,424.3 793.8,424.0 793.9,424.9 794.4,419.9 795.0,422.7 795.5,420.9 795.7,415.3 796.2,422.2 796.7,413.6 796.9,411.6 797.2,412.4 797.4,409.1 797.6,408.2 797.9,414.8 798.5,413.6 799.1,408.1 799.8,398.6 800.4,397.5 800.7,394.9 800.9,398.3 801.1,399.4 801.3,405.4 801.4,406.5 801.8,403.0 802.2,401.9 802.6,406.2 802.9,406.4 803.3,401.4 803.6,400.8 804.0,401.5 805.1,399.5 805.7,399.0 806.3,397.4 806.3,397.9 806.5,393.5 806.7,394.2 806.9,393.7 807.1,400.8 807.5,396.5 807.9,392.4 808.2,392.8 808.7,391.5 809.1,393.6 809.4,397.2 809.8,396.5 810.3,393.0 810.4,394.9 810.6,392.2 811.1,395.0 811.2,398.6 811.2,403.8 811.3,404.1 811.8,401.8 812.0,403.4 812.4,403.4 812.8,400.3 813.7,396.8 814.0,400.9 814.4,397.9 815.3,393.8 815.8,393.7 816.4,395.8 817.0,399.0 817.7,395.2 818.2,390.8 819.3,391.0 820.0,387.8 820.9,388.4 821.8,389.8 822.2,389.7 822.6,388.2 822.9,394.6 823.3,393.6 823.5,396.2 824.1,391.3 825.1,389.6 825.9,384.4 826.6,387.6 827.2,391.6 827.7,392.2 828.4,394.6 828.9,393.8 830.0,388.9 831.0,392.0 831.2,397.4 831.3,395.7 831.4,396.3 831.9,390.4 832.6,388.6 833.6,389.6 834.2,390.6 834.5,389.1 834.7,384.9 835.3,388.2 835.4,385.6 836.0,386.2 837.0,388.2 837.2,394.3 837.8,388.6 838.4,390.2 839.0,388.2 839.9,385.2 841.3,384.3 843.0,383.6 843.1,378.6 844.0,387.0 844.9,387.9 845.4,393.5 845.9,390.4 847.5,390.9 847.9,400.9 847.9,400.9 848.0,403.1 848.3,397.2 848.9,392.6 849.8,390.4 851.1,395.2 851.3,404.3 851.3,402.3 851.4,404.3 851.7,401.2 852.4,395.3 854.0,389.7 854.8,389.8 855.1,388.0 856.1,392.8 858.5,390.6 859.5,394.5 859.5,401.6 859.5,401.8 859.6,402.5 860.1,403.0 860.3,405.1 861.0,404.4 862.2,404.2 863.8,406.0 864.5,406.8 865.0,406.0 865.1,405.0 865.7,404.2 866.3,404.7 866.8,400.9 867.1,399.4 867.7,397.9 868.1,397.2 869.9,398.4 871.0,402.9 871.2,403.7 871.9,406.4 872.9,406.0 873.5,401.7 873.8,400.3 874.3,398.4 874.6,399.1 875.0,395.1 875.5,395.3 875.9,389.6 877.0,385.2 877.4,385.2 878.5,382.4 879.5,385.7 880.6,392.0 881.3,393.1 882.2,392.4 883.0,389.9 884.2,389.2 885.4,397.1 886.4,393.8 887.4,398.4 888.0,395.7 888.5,399.1 888.9,399.2 889.5,400.8 890.1,403.6 891.3,405.0 892.3,405.1 893.5,403.0 894.5,396.3 894.9,395.6 895.8,391.7 896.3,392.5 897.1,388.3 898.3,393.0 898.9,386.7 899.1,385.6 899.8,389.8 900.6,392.2 901.1,392.2 902.0,392.8 902.9,394.2 903.8,399.1 905.0,402.4 905.8,403.7 906.4,405.5 907.9,408.0 908.5,410.7 908.7,410.8 909.3,413.6 909.7,414.6 910.0,417.7 910.4,421.9 910.6,420.5 910.7,421.8 911.3,417.2 911.9,419.4 912.2,421.5 912.5,421.8 912.7,422.0 913.3,423.4 913.7,422.7 913.9,423.6 914.4,423.8 914.5,425.4 915.1,429.4 915.2,428.4 915.7,428.5 916.3,430.7 916.8,431.7 917.0,434.2 917.1,435.1 918.0,435.8 918.1,440.7 918.7,439.4 919.3,439.4 919.9,437.4 920.6,440.9 921.3,440.5 921.8,440.7 922.2,435.4 922.6,433.5 922.9,435.7 923.5,433.9 924.6,432.5 925.7,437.4 925.8,437.0 926.7,435.5 927.5,432.5 928.2,433.8 928.7,431.9 928.9,427.8 929.4,429.8 930.5,431.8 931.2,432.1 931.6,429.5 932.2,432.2 932.4,432.2 933.2,428.9 933.9,428.0 934.0,427.4" fill="none" stroke="#d97706" stroke-width="1.2" stroke-linejoin="round" opacity="0.6"/><text x="942" y="472.0" text-anchor="start" font-size="11" fill="#d97706">193.55</text><text x="942" y="396.0" text-anchor="start" font-size="11" fill="#d97706">199.99</text><text x="942" y="320.0" text-anchor="start" font-size="11" fill="#d97706">206.44</text><text x="942" y="244.0" text-anchor="start" font-size="11" fill="#d97706">212.89</text><text x="942" y="168.0" text-anchor="start" font-size="11" fill="#d97706">219.34</text><text x="942" y="92.0" text-anchor="start" font-size="11" fill="#d97706">225.78</text><text x="942" y="80.0" text-anchor="start" font-size="11" font-weight="600" fill="#d97706">price</text>
  <polygon points="82.6,468.0 82.6,397.8 82.6,403.1 121.9,387.7 150.0,376.0 156.8,383.0 175.0,393.4 304.7,363.2 306.6,347.9 309.0,330.3 329.3,340.7 349.6,356.3 487.0,311.1 510.9,288.2 515.1,301.8 538.4,322.2 626.8,263.1 654.9,233.2 737.4,198.9 738.6,219.2 740.2,160.3 740.9,183.6 917.0,116.1 917.0,468.0" fill="#16a34a" fill-opacity="0.08"/>
  <polyline points="82.6,397.8 82.6,403.1 121.9,387.7 150.0,376.0 156.8,383.0 175.0,393.4 304.7,363.2 306.6,347.9 309.0,330.3 329.3,340.7 349.6,356.3 487.0,311.1 510.9,288.2 515.1,301.8 538.4,322.2 626.8,263.1 654.9,233.2 737.4,198.9 738.6,219.2 740.2,160.3 740.9,183.6 917.0,116.1" fill="none" stroke="#16a34a" stroke-width="2" stroke-linejoin="round"/>
  <line x1="88" y1="102" x2="110" y2="102" stroke="#16a34a" stroke-width="2.5"/><text x="116" y="106" font-size="11.5" fill="#374151">equity</text><line x1="88" y1="118" x2="110" y2="118" stroke="#d97706" stroke-width="2.5" opacity="0.8"/><text x="116" y="122" font-size="11.5" fill="#374151">price</text>
  <text x="78" y="502" text-anchor="start" font-size="12" fill="#6b7280">2026-06-05</text><text x="934" y="502" text-anchor="end" font-size="12" fill="#6b7280">2026-06-05</text>
</svg>
