<?xml version="1.0" encoding="UTF-8"?>
<svg xmlns="http://www.w3.org/2000/svg" width="1100" height="560" viewBox="0 0 1100 560" font-family="ui-sans-serif, system-ui, sans-serif">
  <rect width="1100" height="560" fill="#ffffff"/>
  <text x="80" y="28" font-size="18" font-weight="700" fill="#111827">Zone Recovery — SAMSUNGUSDT fee-tier comparison (best setting)</text>
  <text x="80" y="48" font-size="12.5" fill="#6b7280">lev 15 · ratio 2 · gap 20% · maxSteps 4 · maxDD 60% · random  ·  equity per fee tier vip 0..9</text>
  <text x="80" y="68" font-size="12.5" font-weight="600" fill="#1d4ed8">USDT margin · BNB −10%</text>
  <line x1="80" y1="508.0" x2="932" y2="508.0" stroke="#e5e7eb" stroke-width="1"/><text x="70" y="512.0" text-anchor="end" font-size="12" fill="#6b7280">0.00</text><line x1="80" y1="424.0" x2="932" y2="424.0" stroke="#e5e7eb" stroke-width="1"/><text x="70" y="428.0" text-anchor="end" font-size="12" fill="#6b7280">10829</text><line x1="80" y1="340.0" x2="932" y2="340.0" stroke="#e5e7eb" stroke-width="1"/><text x="70" y="344.0" text-anchor="end" font-size="12" fill="#6b7280">21657</text><line x1="80" y1="256.0" x2="932" y2="256.0" stroke="#e5e7eb" stroke-width="1"/><text x="70" y="260.0" text-anchor="end" font-size="12" fill="#6b7280">32486</text><line x1="80" y1="172.0" x2="932" y2="172.0" stroke="#e5e7eb" stroke-width="1"/><text x="70" y="176.0" text-anchor="end" font-size="12" fill="#6b7280">43315</text><line x1="80" y1="88.0" x2="932" y2="88.0" stroke="#e5e7eb" stroke-width="1"/><text x="70" y="92.0" text-anchor="end" font-size="12" fill="#6b7280">54143</text>
  <line x1="80" y1="430.4" x2="932" y2="430.4" stroke="#9ca3af" stroke-width="1.5" stroke-dasharray="6 4"/>
  <polyline points="80.0,430.4 80.0,436.5 120.1,419.9 148.8,407.4 155.7,415.3 174.4,427.2 306.8,394.9 308.8,378.7 311.2,360.3 332.0,371.9 352.6,389.4 493.0,342.0 517.3,318.3 521.7,333.2 545.4,355.7 635.7,294.7 664.4,264.3 748.7,229.5 749.9,251.4 751.5,191.9 752.2,216.8 932.0,149.0" fill="none" stroke="#2563eb" stroke-width="1.8" stroke-linejoin="round" opacity="0.9"/>
  <polyline points="80.0,430.4 80.0,436.5 120.1,419.9 148.8,407.4 155.7,415.3 174.4,427.2 306.8,394.9 308.8,378.7 311.2,360.3 332.0,371.9 352.6,389.4 493.0,342.0 517.3,318.3 521.7,333.2 545.4,355.7 635.7,294.7 664.4,264.3 748.7,229.5 749.9,251.4 751.5,191.9 752.2,216.8 932.0,149.0" fill="none" stroke="#dc2626" stroke-width="1.8" stroke-linejoin="round" opacity="0.9"/>
  <polyline points="80.0,430.4 80.0,436.5 120.1,419.7 148.8,407.1 155.7,414.9 174.4,426.7 306.8,394.0 308.8,377.7 311.2,358.9 332.0,370.5 352.6,387.9 493.0,339.8 517.3,315.6 521.7,330.6 545.4,353.0 635.7,290.8 664.4,259.6 748.7,223.8 749.9,246.0 751.5,184.8 752.2,209.9 932.0,140.2" fill="none" stroke="#16a34a" stroke-width="1.8" stroke-linejoin="round" opacity="0.9"/>
  <polyline points="80.0,430.4 80.0,436.4 120.1,419.6 148.8,406.8 155.7,414.6 174.4,426.3 306.8,393.4 308.8,376.8 311.2,357.9 332.0,369.4 352.6,386.8 493.0,338.0 517.3,313.4 521.7,328.4 545.4,350.9 635.7,287.6 664.4,255.7 748.7,219.3 749.9,241.5 751.5,179.0 752.2,204.3 932.0,133.0" fill="none" stroke="#d97706" stroke-width="1.8" stroke-linejoin="round" opacity="0.9"/>
  <polyline points="80.0,430.4 80.0,436.4 120.1,419.5 148.8,406.7 155.7,414.5 174.4,426.2 306.8,393.2 308.8,376.6 311.2,357.6 332.0,369.2 352.6,386.5 493.0,337.5 517.3,312.9 521.7,327.9 545.4,350.4 635.7,286.8 664.4,254.8 748.7,218.1 749.9,240.4 751.5,177.5 752.2,202.9 932.0,131.2" fill="none" stroke="#7c3aed" stroke-width="1.8" stroke-linejoin="round" opacity="0.9"/>
  <polyline points="80.0,430.4 80.0,436.4 120.1,419.5 148.8,406.7 155.7,414.4 174.4,426.0 306.8,393.0 308.8,376.3 311.2,357.2 332.0,368.7 352.6,386.0 493.0,336.9 517.3,312.0 521.7,327.0 545.4,349.5 635.7,285.6 664.4,253.3 748.7,216.4 749.9,238.7 751.5,175.3 752.2,200.8 932.0,128.4" fill="none" stroke="#0891b2" stroke-width="1.8" stroke-linejoin="round" opacity="0.9"/>
  <polyline points="80.0,430.4 80.0,436.3 120.1,419.4 148.8,406.6 155.7,414.3 174.4,425.9 306.8,392.8 308.8,376.1 311.2,356.9 332.0,368.5 352.6,385.8 493.0,336.4 517.3,311.5 521.7,326.5 545.4,349.0 635.7,284.8 664.4,252.4 748.7,215.2 749.9,237.6 751.5,173.9 752.2,199.4 932.0,126.6" fill="none" stroke="#db2777" stroke-width="1.8" stroke-linejoin="round" opacity="0.9"/>
  <polyline points="80.0,430.4 80.0,436.3 120.1,419.4 148.8,406.5 155.7,414.2 174.4,425.8 306.8,392.6 308.8,375.8 311.2,356.5 332.0,368.0 352.6,385.3 493.0,335.7 517.3,310.7 521.7,325.7 545.4,348.2 635.7,283.6 664.4,250.9 748.7,213.5 749.9,235.9 751.5,171.6 752.2,197.2 932.0,123.8" fill="none" stroke="#65a30d" stroke-width="1.8" stroke-linejoin="round" opacity="0.9"/>
  <polyline points="80.0,430.4 80.0,436.3 120.1,419.4 148.8,406.4 155.7,414.1 174.4,425.7 306.8,392.4 308.8,375.5 311.2,356.3 332.0,367.8 352.6,385.0 493.0,335.3 517.3,310.1 521.7,325.1 545.4,347.6 635.7,282.8 664.4,249.9 748.7,212.3 749.9,234.8 751.5,170.2 752.2,195.8 932.0,121.9" fill="none" stroke="#475569" stroke-width="1.8" stroke-linejoin="round" opacity="0.9"/>
  <polyline points="80.0,430.4 80.0,436.3 120.1,419.3 148.8,406.3 155.7,414.0 174.4,425.5 306.8,392.1 308.8,375.2 311.2,355.8 332.0,367.3 352.6,384.6 493.0,334.6 517.3,309.3 521.7,324.3 545.4,346.8 635.7,281.5 664.4,248.5 748.7,210.6 749.9,233.0 751.5,167.9 752.2,193.6 932.0,119.1" fill="none" stroke="#ea580c" stroke-width="1.8" stroke-linejoin="round" opacity="0.9"/>
  <line x1="950" y1="94" x2="972" y2="94" stroke="#ea580c" stroke-width="3"/><text x="980" y="98" font-size="12.5" fill="#374151">vip 9  50133</text>
  <line x1="950" y1="116" x2="972" y2="116" stroke="#475569" stroke-width="3"/><text x="980" y="120" font-size="12.5" fill="#374151">vip 8  49771</text>
  <line x1="950" y1="138" x2="972" y2="138" stroke="#65a30d" stroke-width="3"/><text x="980" y="142" font-size="12.5" fill="#374151">vip 7  49531</text>
  <line x1="950" y1="160" x2="972" y2="160" stroke="#db2777" stroke-width="3"/><text x="980" y="164" font-size="12.5" fill="#374151">vip 6  49172</text>
  <line x1="950" y1="182" x2="972" y2="182" stroke="#0891b2" stroke-width="3"/><text x="980" y="186" font-size="12.5" fill="#374151">vip 5  48935</text>
  <line x1="950" y1="204" x2="972" y2="204" stroke="#7c3aed" stroke-width="3"/><text x="980" y="208" font-size="12.5" fill="#374151">vip 4  48580</text>
  <line x1="950" y1="226" x2="972" y2="226" stroke="#d97706" stroke-width="3"/><text x="980" y="230" font-size="12.5" fill="#374151">vip 3  48345</text>
  <line x1="950" y1="248" x2="972" y2="248" stroke="#16a34a" stroke-width="3"/><text x="980" y="252" font-size="12.5" fill="#374151">vip 2  47415</text>
  <line x1="950" y1="270" x2="972" y2="270" stroke="#2563eb" stroke-width="3"/><text x="980" y="274" font-size="12.5" fill="#374151">vip 0  46275</text>
  <line x1="950" y1="292" x2="972" y2="292" stroke="#dc2626" stroke-width="3"/><text x="980" y="296" font-size="12.5" fill="#374151">vip 1  46275</text>
  <text x="80" y="542" text-anchor="start" font-size="12" fill="#6b7280">2026-06-05</text><text x="932" y="542" text-anchor="end" font-size="12" fill="#6b7280">2026-06-05</text>
</svg>
