<svg xmlns="http://www.w3.org/2000/svg" width="1100" height="560" font-family="ui-sans-serif, system-ui, sans-serif" viewBox="0 0 1100 560"><rect width="1100" height="560" fill="#fff"/><text x="80" y="28" fill="#111827" font-size="18" font-weight="700">Zone Recovery — SAMSUNGUSDT fee-tier comparison (best setting)</text><text x="80" y="48" fill="#6b7280" font-size="12.5">lev 15 · ratio 2 · gap 20% · maxSteps 4 · maxDD 60% · random · equity per fee tier vip 0..9</text><text x="80" y="68" fill="#1d4ed8" font-size="12.5" font-weight="600">USDT margin · BNB −10%</text><line x1="80" x2="932" y1="508" y2="508" stroke="#e5e7eb" stroke-width="1"/><text x="70" y="512" fill="#6b7280" font-size="12" text-anchor="end">0.00</text><line x1="80" x2="932" y1="424" y2="424" stroke="#e5e7eb" stroke-width="1"/><text x="70" y="428" fill="#6b7280" font-size="12" text-anchor="end">10829</text><line x1="80" x2="932" y1="340" y2="340" stroke="#e5e7eb" stroke-width="1"/><text x="70" y="344" fill="#6b7280" font-size="12" text-anchor="end">21657</text><line x1="80" x2="932" y1="256" y2="256" stroke="#e5e7eb" stroke-width="1"/><text x="70" y="260" fill="#6b7280" font-size="12" text-anchor="end">32486</text><line x1="80" x2="932" y1="172" y2="172" stroke="#e5e7eb" stroke-width="1"/><text x="70" y="176" fill="#6b7280" font-size="12" text-anchor="end">43315</text><line x1="80" x2="932" y1="88" y2="88" stroke="#e5e7eb" stroke-width="1"/><text x="70" y="92" fill="#6b7280" font-size="12" text-anchor="end">54143</text><line x1="80" x2="932" y1="430.4" y2="430.4" stroke="#9ca3af" stroke-dasharray="6 4" stroke-width="1.5"/><polyline fill="none" stroke="#2563eb" stroke-linejoin="round" stroke-width="1.8" points="80 430.4 80 436.5 120.1 419.9 148.8 407.4 155.7 415.3 174.4 427.2 306.8 394.9 308.8 378.7 311.2 360.3 332 371.9 352.6 389.4 493 342 517.3 318.3 521.7 333.2 545.4 355.7 635.7 294.7 664.4 264.3 748.7 229.5 749.9 251.4 751.5 191.9 752.2 216.8 932 149" opacity=".9"/><polyline fill="none" stroke="#dc2626" stroke-linejoin="round" stroke-width="1.8" points="80 430.4 80 436.5 120.1 419.9 148.8 407.4 155.7 415.3 174.4 427.2 306.8 394.9 308.8 378.7 311.2 360.3 332 371.9 352.6 389.4 493 342 517.3 318.3 521.7 333.2 545.4 355.7 635.7 294.7 664.4 264.3 748.7 229.5 749.9 251.4 751.5 191.9 752.2 216.8 932 149" opacity=".9"/><polyline fill="none" stroke="#16a34a" stroke-linejoin="round" stroke-width="1.8" points="80 430.4 80 436.5 120.1 419.7 148.8 407.1 155.7 414.9 174.4 426.7 306.8 394 308.8 377.7 311.2 358.9 332 370.5 352.6 387.9 493 339.8 517.3 315.6 521.7 330.6 545.4 353 635.7 290.8 664.4 259.6 748.7 223.8 749.9 246 751.5 184.8 752.2 209.9 932 140.2" opacity=".9"/><polyline fill="none" stroke="#d97706" stroke-linejoin="round" stroke-width="1.8" points="80 430.4 80 436.4 120.1 419.6 148.8 406.8 155.7 414.6 174.4 426.3 306.8 393.4 308.8 376.8 311.2 357.9 332 369.4 352.6 386.8 493 338 517.3 313.4 521.7 328.4 545.4 350.9 635.7 287.6 664.4 255.7 748.7 219.3 749.9 241.5 751.5 179 752.2 204.3 932 133" opacity=".9"/><polyline fill="none" stroke="#7c3aed" stroke-linejoin="round" stroke-width="1.8" points="80 430.4 80 436.4 120.1 419.5 148.8 406.7 155.7 414.5 174.4 426.2 306.8 393.2 308.8 376.6 311.2 357.6 332 369.2 352.6 386.5 493 337.5 517.3 312.9 521.7 327.9 545.4 350.4 635.7 286.8 664.4 254.8 748.7 218.1 749.9 240.4 751.5 177.5 752.2 202.9 932 131.2" opacity=".9"/><polyline fill="none" stroke="#0891b2" stroke-linejoin="round" stroke-width="1.8" points="80 430.4 80 436.4 120.1 419.5 148.8 406.7 155.7 414.4 174.4 426 306.8 393 308.8 376.3 311.2 357.2 332 368.7 352.6 386 493 336.9 517.3 312 521.7 327 545.4 349.5 635.7 285.6 664.4 253.3 748.7 216.4 749.9 238.7 751.5 175.3 752.2 200.8 932 128.4" opacity=".9"/><polyline fill="none" stroke="#db2777" stroke-linejoin="round" stroke-width="1.8" points="80 430.4 80 436.3 120.1 419.4 148.8 406.6 155.7 414.3 174.4 425.9 306.8 392.8 308.8 376.1 311.2 356.9 332 368.5 352.6 385.8 493 336.4 517.3 311.5 521.7 326.5 545.4 349 635.7 284.8 664.4 252.4 748.7 215.2 749.9 237.6 751.5 173.9 752.2 199.4 932 126.6" opacity=".9"/><polyline fill="none" stroke="#65a30d" stroke-linejoin="round" stroke-width="1.8" points="80 430.4 80 436.3 120.1 419.4 148.8 406.5 155.7 414.2 174.4 425.8 306.8 392.6 308.8 375.8 311.2 356.5 332 368 352.6 385.3 493 335.7 517.3 310.7 521.7 325.7 545.4 348.2 635.7 283.6 664.4 250.9 748.7 213.5 749.9 235.9 751.5 171.6 752.2 197.2 932 123.8" opacity=".9"/><polyline fill="none" stroke="#475569" stroke-linejoin="round" stroke-width="1.8" points="80 430.4 80 436.3 120.1 419.4 148.8 406.4 155.7 414.1 174.4 425.7 306.8 392.4 308.8 375.5 311.2 356.3 332 367.8 352.6 385 493 335.3 517.3 310.1 521.7 325.1 545.4 347.6 635.7 282.8 664.4 249.9 748.7 212.3 749.9 234.8 751.5 170.2 752.2 195.8 932 121.9" opacity=".9"/><polyline fill="none" stroke="#ea580c" stroke-linejoin="round" stroke-width="1.8" points="80 430.4 80 436.3 120.1 419.3 148.8 406.3 155.7 414 174.4 425.5 306.8 392.1 308.8 375.2 311.2 355.8 332 367.3 352.6 384.6 493 334.6 517.3 309.3 521.7 324.3 545.4 346.8 635.7 281.5 664.4 248.5 748.7 210.6 749.9 233 751.5 167.9 752.2 193.6 932 119.1" opacity=".9"/><line x1="950" x2="972" y1="94" y2="94" stroke="#ea580c" stroke-width="3"/><text x="980" y="98" fill="#374151" font-size="12.5">vip 9 50133</text><line x1="950" x2="972" y1="116" y2="116" stroke="#475569" stroke-width="3"/><text x="980" y="120" fill="#374151" font-size="12.5">vip 8 49771</text><line x1="950" x2="972" y1="138" y2="138" stroke="#65a30d" stroke-width="3"/><text x="980" y="142" fill="#374151" font-size="12.5">vip 7 49531</text><line x1="950" x2="972" y1="160" y2="160" stroke="#db2777" stroke-width="3"/><text x="980" y="164" fill="#374151" font-size="12.5">vip 6 49172</text><line x1="950" x2="972" y1="182" y2="182" stroke="#0891b2" stroke-width="3"/><text x="980" y="186" fill="#374151" font-size="12.5">vip 5 48935</text><line x1="950" x2="972" y1="204" y2="204" stroke="#7c3aed" stroke-width="3"/><text x="980" y="208" fill="#374151" font-size="12.5">vip 4 48580</text><line x1="950" x2="972" y1="226" y2="226" stroke="#d97706" stroke-width="3"/><text x="980" y="230" fill="#374151" font-size="12.5">vip 3 48345</text><line x1="950" x2="972" y1="248" y2="248" stroke="#16a34a" stroke-width="3"/><text x="980" y="252" fill="#374151" font-size="12.5">vip 2 47415</text><line x1="950" x2="972" y1="270" y2="270" stroke="#2563eb" stroke-width="3"/><text x="980" y="274" fill="#374151" font-size="12.5">vip 0 46275</text><line x1="950" x2="972" y1="292" y2="292" stroke="#dc2626" stroke-width="3"/><text x="980" y="296" fill="#374151" font-size="12.5">vip 1 46275</text><text x="80" y="542" fill="#6b7280" font-size="12" text-anchor="start">2026-06-05</text><text x="932" y="542" fill="#6b7280" font-size="12" text-anchor="end">2026-06-05</text></svg>