<?xml version="1.0" encoding="UTF-8"?>
<svg xmlns="http://www.w3.org/2000/svg" width="1100" height="560" viewBox="0 0 1100 560" font-family="ui-sans-serif, system-ui, sans-serif">
  <rect width="1100" height="560" fill="#ffffff"/>
  <text x="80" y="28" font-size="18" font-weight="700" fill="#111827">Zone Recovery — HBARUSDC fee-tier comparison (best setting)</text>
  <text x="80" y="48" font-size="12.5" fill="#6b7280">lev 8 · ratio 4 · gap 20% · maxSteps 4 · maxDD 60% · random  ·  equity per fee tier vip 0..9</text>
  <text x="80" y="68" font-size="12.5" font-weight="600" fill="#1d4ed8">USDC margin · BNB −10%</text>
  <line x1="80" y1="508.0" x2="932" y2="508.0" stroke="#e5e7eb" stroke-width="1"/><text x="70" y="512.0" text-anchor="end" font-size="12" fill="#6b7280">0.00</text><line x1="80" y1="424.0" x2="932" y2="424.0" stroke="#e5e7eb" stroke-width="1"/><text x="70" y="428.0" text-anchor="end" font-size="12" fill="#6b7280">9703</text><line x1="80" y1="340.0" x2="932" y2="340.0" stroke="#e5e7eb" stroke-width="1"/><text x="70" y="344.0" text-anchor="end" font-size="12" fill="#6b7280">19407</text><line x1="80" y1="256.0" x2="932" y2="256.0" stroke="#e5e7eb" stroke-width="1"/><text x="70" y="260.0" text-anchor="end" font-size="12" fill="#6b7280">29110</text><line x1="80" y1="172.0" x2="932" y2="172.0" stroke="#e5e7eb" stroke-width="1"/><text x="70" y="176.0" text-anchor="end" font-size="12" fill="#6b7280">38813</text><line x1="80" y1="88.0" x2="932" y2="88.0" stroke="#e5e7eb" stroke-width="1"/><text x="70" y="92.0" text-anchor="end" font-size="12" fill="#6b7280">48516</text>
  <line x1="80" y1="421.4" x2="932" y2="421.4" stroke="#9ca3af" stroke-width="1.5" stroke-dasharray="6 4"/>
  <polyline points="80.0,421.4 80.0,385.7 150.5,335.1 184.6,353.6 195.6,376.8 200.9,405.7 206.1,441.9 357.6,414.5 421.3,375.9 427.2,390.1 435.6,407.7 437.9,429.8 559.6,323.2 864.8,246.7 867.4,274.7 868.4,309.7 921.4,140.9 923.6,174.3 924.4,216.0 932.0,268.2" fill="none" stroke="#2563eb" stroke-width="1.8" stroke-linejoin="round" opacity="0.9"/>
  <polyline points="80.0,421.4 80.0,385.7 150.5,335.1 184.6,353.6 195.6,376.8 200.9,405.7 206.1,441.9 357.6,414.5 421.3,375.9 427.2,390.1 435.6,407.7 437.9,429.8 559.6,323.2 864.8,246.7 867.4,274.7 868.4,309.7 921.4,140.9 923.6,174.3 924.4,216.0 932.0,268.2" fill="none" stroke="#dc2626" stroke-width="1.8" stroke-linejoin="round" opacity="0.9"/>
  <polyline points="80.0,421.4 80.0,385.6 150.5,335.0 184.6,353.4 195.6,376.4 200.9,405.2 206.1,441.2 357.6,413.6 421.3,374.5 427.2,388.7 435.6,406.5 437.9,428.7 559.6,320.7 864.8,243.2 867.4,271.4 868.4,306.6 921.4,135.3 923.6,168.5 924.4,210.0 932.0,261.8" fill="none" stroke="#16a34a" stroke-width="1.8" stroke-linejoin="round" opacity="0.9"/>
  <polyline points="80.0,421.4 80.0,385.6 150.5,334.9 184.6,353.2 195.6,376.2 200.9,404.8 206.1,440.7 357.6,412.8 421.3,373.3 427.2,387.6 435.6,405.4 437.9,427.7 559.6,318.7 864.8,240.3 867.4,268.7 868.4,304.1 921.4,130.8 923.6,163.8 924.4,205.1 932.0,256.7" fill="none" stroke="#d97706" stroke-width="1.8" stroke-linejoin="round" opacity="0.9"/>
  <polyline points="80.0,421.4 80.0,385.5 150.5,334.7 184.6,352.9 195.6,375.7 200.9,404.3 206.1,439.9 357.6,411.7 421.3,371.7 427.2,386.0 435.6,404.0 437.9,426.4 559.6,315.9 864.8,236.1 867.4,264.8 868.4,300.6 921.4,124.2 923.6,157.1 924.4,198.1 932.0,249.4" fill="none" stroke="#7c3aed" stroke-width="1.8" stroke-linejoin="round" opacity="0.9"/>
  <polyline points="80.0,421.4 80.0,385.5 150.5,334.6 184.6,352.9 195.6,375.7 200.9,404.2 206.1,439.8 357.6,411.5 421.3,371.4 427.2,385.8 435.6,403.7 437.9,426.2 559.6,315.4 864.8,235.4 867.4,264.1 868.4,299.9 921.4,123.1 923.6,155.9 924.4,196.9 932.0,248.1" fill="none" stroke="#0891b2" stroke-width="1.8" stroke-linejoin="round" opacity="0.9"/>
  <polyline points="80.0,421.4 80.0,385.5 150.5,334.6 184.6,352.9 195.6,375.6 200.9,404.1 206.1,439.7 357.6,411.3 421.3,371.2 427.2,385.6 435.6,403.5 437.9,426.0 559.6,315.0 864.8,234.9 867.4,263.6 868.4,299.5 921.4,122.3 923.6,155.1 924.4,196.0 932.0,247.2" fill="none" stroke="#db2777" stroke-width="1.8" stroke-linejoin="round" opacity="0.9"/>
  <polyline points="80.0,421.4 80.0,385.5 150.5,334.6 184.6,352.8 195.6,375.6 200.9,404.0 206.1,439.6 357.6,411.1 421.3,370.9 427.2,385.3 435.6,403.3 437.9,425.8 559.6,314.5 864.8,234.1 867.4,262.9 868.4,298.8 921.4,121.1 923.6,153.8 924.4,194.7 932.0,245.8" fill="none" stroke="#65a30d" stroke-width="1.8" stroke-linejoin="round" opacity="0.9"/>
  <polyline points="80.0,421.4 80.0,385.5 150.5,334.6 184.6,352.8 195.6,375.5 200.9,403.9 206.1,439.5 357.6,411.0 421.3,370.7 427.2,385.1 435.6,403.1 437.9,425.6 559.6,314.2 864.8,233.6 867.4,262.4 868.4,298.4 921.4,120.3 923.6,153.0 924.4,193.8 932.0,244.9" fill="none" stroke="#475569" stroke-width="1.8" stroke-linejoin="round" opacity="0.9"/>
  <polyline points="80.0,421.4 80.0,385.5 150.5,334.5 184.6,352.7 195.6,375.4 200.9,403.8 206.1,439.3 357.6,410.8 421.3,370.4 427.2,384.8 435.6,402.8 437.9,425.4 559.6,313.7 864.8,232.9 867.4,261.7 868.4,297.8 921.4,119.1 923.6,151.8 924.4,192.6 932.0,243.6" fill="none" stroke="#ea580c" stroke-width="1.8" stroke-linejoin="round" opacity="0.9"/>
  <line x1="950" y1="94" x2="972" y2="94" stroke="#ea580c" stroke-width="3"/><text x="980" y="98" font-size="12.5" fill="#374151">vip 9  30542</text>
  <line x1="950" y1="116" x2="972" y2="116" stroke="#475569" stroke-width="3"/><text x="980" y="120" font-size="12.5" fill="#374151">vip 8  30391</text>
  <line x1="950" y1="138" x2="972" y2="138" stroke="#65a30d" stroke-width="3"/><text x="980" y="142" font-size="12.5" fill="#374151">vip 7  30288</text>
  <line x1="950" y1="160" x2="972" y2="160" stroke="#db2777" stroke-width="3"/><text x="980" y="164" font-size="12.5" fill="#374151">vip 6  30128</text>
  <line x1="950" y1="182" x2="972" y2="182" stroke="#0891b2" stroke-width="3"/><text x="980" y="186" font-size="12.5" fill="#374151">vip 5  30025</text>
  <line x1="950" y1="204" x2="972" y2="204" stroke="#7c3aed" stroke-width="3"/><text x="980" y="208" font-size="12.5" fill="#374151">vip 4  29875</text>
  <line x1="950" y1="226" x2="972" y2="226" stroke="#d97706" stroke-width="3"/><text x="980" y="230" font-size="12.5" fill="#374151">vip 3  29027</text>
  <line x1="950" y1="248" x2="972" y2="248" stroke="#16a34a" stroke-width="3"/><text x="980" y="252" font-size="12.5" fill="#374151">vip 2  28435</text>
  <line x1="950" y1="270" x2="972" y2="270" stroke="#2563eb" stroke-width="3"/><text x="980" y="274" font-size="12.5" fill="#374151">vip 0  27701</text>
  <line x1="950" y1="292" x2="972" y2="292" stroke="#dc2626" stroke-width="3"/><text x="980" y="296" font-size="12.5" fill="#374151">vip 1  27701</text>
  <text x="80" y="542" text-anchor="start" font-size="12" fill="#6b7280">2026-01-02</text><text x="932" y="542" text-anchor="end" font-size="12" fill="#6b7280">2026-01-31</text>
</svg>
