<svg xmlns="http://www.w3.org/2000/svg" width="1100" height="560" font-family="ui-sans-serif, system-ui, sans-serif" viewBox="0 0 1100 560"><rect width="1100" height="560" fill="#fff"/><text x="80" y="28" fill="#111827" font-size="18" font-weight="700">Zone Recovery — SUIUSDT fee-tier comparison (best setting)</text><text x="80" y="48" fill="#6b7280" font-size="12.5">lev 4 · ratio 4 · gap 20% · maxSteps 4 · maxDD 20% · random · equity per fee tier vip 0..9</text><text x="80" y="68" fill="#1d4ed8" font-size="12.5" font-weight="600">USDT margin · BNB −10%</text><line x1="80" x2="932" y1="508" y2="508" stroke="#e5e7eb" stroke-width="1"/><text x="70" y="512" fill="#6b7280" font-size="12" text-anchor="end">0.00</text><line x1="80" x2="932" y1="424" y2="424" stroke="#e5e7eb" stroke-width="1"/><text x="70" y="428" fill="#6b7280" font-size="12" text-anchor="end">25602747</text><line x1="80" x2="932" y1="340" y2="340" stroke="#e5e7eb" stroke-width="1"/><text x="70" y="344" fill="#6b7280" font-size="12" text-anchor="end">51205494</text><line x1="80" x2="932" y1="256" y2="256" stroke="#e5e7eb" stroke-width="1"/><text x="70" y="260" fill="#6b7280" font-size="12" text-anchor="end">76808241</text><line x1="80" x2="932" y1="172" y2="172" stroke="#e5e7eb" stroke-width="1"/><text x="70" y="176" fill="#6b7280" font-size="12" text-anchor="end">102410988</text><line x1="80" x2="932" y1="88" y2="88" stroke="#e5e7eb" stroke-width="1"/><text x="70" y="92" fill="#6b7280" font-size="12" text-anchor="end">128013735</text><line x1="80" x2="932" y1="179.9" y2="179.9" stroke="#9ca3af" stroke-dasharray="6 4" stroke-width="1.5"/><polyline fill="none" stroke="#2563eb" stroke-linejoin="round" stroke-width="1.8" points="80 179.9 80 182.2 82.1 171.2 82.2 173.2 82.4 163 82.4 156.9 82.5 152 82.5 153 82.6 148.1 82.6 148.8 82.6 145.2 82.7 145.7 82.7 143 82.7 143.7 82.7 140.2 82.7 141.1 82.7 142.2 82.7 143.6 82.8 136.9 82.8 138 82.8 139.4 82.8 141.1 82.8 143.2 82.8 144.3 82.9 139 82.9 140.3 83.1 142.1 83.4 133.7 84 127.3 84.1 129.2 84.9 131.7 117.1 119.7 186.6 121.9 357.1 124.7 932 128.2" opacity=".9"/><polyline fill="none" stroke="#dc2626" stroke-linejoin="round" stroke-width="1.8" points="80 179.9 80 182.2 82.1 171.2 82.2 173.2 82.4 163 82.4 156.9 82.5 152 82.5 153 82.6 148.1 82.6 148.8 82.6 145.2 82.7 145.7 82.7 143 82.7 143.7 82.7 140.2 82.7 141.1 82.7 142.2 82.7 143.6 82.8 136.9 82.8 138 82.8 139.4 82.8 141.1 82.8 143.2 82.8 144.3 82.9 139 82.9 140.3 83.1 142.1 83.4 133.7 84 127.3 84.1 129.2 84.9 131.7 117.1 119.7 186.6 121.9 357.1 124.7 932 128.2" opacity=".9"/><polyline fill="none" stroke="#16a34a" stroke-linejoin="round" stroke-width="1.8" points="80 179.9 80 182.2 82.1 171.1 82.2 173.2 82.4 163 82.4 156.8 82.5 151.9 82.5 152.9 82.6 148 82.6 148.8 82.6 145.1 82.7 145.7 82.7 142.9 82.7 143.6 82.7 140.2 82.7 141.1 82.7 142.1 82.7 143.5 82.8 136.8 82.8 137.9 82.8 139.3 82.8 141 82.8 143.1 82.8 144.2 82.9 138.9 82.9 140.2 83.1 141.9 83.4 133.6 84 127.1 84.1 129.1 84.9 131.6 117.1 119.5 186.6 121.7 357.1 124.5 932 128" opacity=".9"/><polyline fill="none" stroke="#d97706" stroke-linejoin="round" stroke-width="1.8" points="80 179.9 80 182.1 82.1 171.1 82.2 173.2 82.4 163 82.4 156.8 82.5 151.9 82.5 152.9 82.6 148 82.6 148.7 82.6 145.1 82.7 145.6 82.7 142.9 82.7 143.6 82.7 140.1 82.7 141 82.7 142.1 82.7 143.4 82.8 136.7 82.8 137.8 82.8 139.2 82.8 140.9 82.8 143 82.8 144.1 82.9 138.8 82.9 140.1 83.1 141.8 83.4 133.5 84 127 84.1 129 84.9 131.4 117.1 119.4 186.6 121.6 357.1 124.4 932 127.9" opacity=".9"/><polyline fill="none" stroke="#7c3aed" stroke-linejoin="round" stroke-width="1.8" points="80 179.9 80 182.1 82.1 171.1 82.2 173.2 82.4 163 82.4 156.8 82.5 151.9 82.5 152.9 82.6 148 82.6 148.7 82.6 145.1 82.7 145.6 82.7 142.9 82.7 143.6 82.7 140.1 82.7 141 82.7 142.1 82.7 143.4 82.8 136.7 82.8 137.8 82.8 139.2 82.8 140.9 82.8 143 82.8 144.1 82.9 138.7 82.9 140.1 83.1 141.8 83.4 133.4 84 127 84.1 128.9 84.9 131.4 117.1 119.3 186.6 121.6 357.1 124.4 932 127.8" opacity=".9"/><polyline fill="none" stroke="#0891b2" stroke-linejoin="round" stroke-width="1.8" points="80 179.9 80 182.1 82.1 171.1 82.2 173.2 82.4 162.9 82.4 156.8 82.5 151.9 82.5 152.9 82.6 148 82.6 148.7 82.6 145 82.7 145.6 82.7 142.8 82.7 143.5 82.7 140.1 82.7 141 82.7 142.1 82.7 143.4 82.8 136.7 82.8 137.8 82.8 139.2 82.8 140.9 82.8 143 82.8 144.1 82.9 138.7 82.9 140.1 83.1 141.8 83.4 133.4 84 127 84.1 128.9 84.9 131.3 117.1 119.3 186.6 121.5 357.1 124.3 932 127.8" opacity=".9"/><polyline fill="none" stroke="#db2777" stroke-linejoin="round" stroke-width="1.8" points="80 179.9 80 182.1 82.1 171.1 82.2 173.2 82.4 162.9 82.4 156.8 82.5 151.9 82.5 152.9 82.6 148 82.6 148.7 82.6 145 82.7 145.6 82.7 142.8 82.7 143.5 82.7 140.1 82.7 141 82.7 142 82.7 143.4 82.8 136.7 82.8 137.8 82.8 139.1 82.8 140.8 82.8 143 82.8 144 82.9 138.7 82.9 140 83.1 141.7 83.4 133.4 84 126.9 84.1 128.9 84.9 131.3 117.1 119.2 186.6 121.5 357.1 124.3 932 127.7" opacity=".9"/><polyline fill="none" stroke="#65a30d" stroke-linejoin="round" stroke-width="1.8" points="80 179.9 80 182.1 82.1 171.1 82.2 173.2 82.4 162.9 82.4 156.8 82.5 151.9 82.5 152.9 82.6 147.9 82.6 148.7 82.6 145 82.7 145.6 82.7 142.8 82.7 143.5 82.7 140.1 82.7 140.9 82.7 142 82.7 143.4 82.8 136.7 82.8 137.8 82.8 139.1 82.8 140.8 82.8 142.9 82.8 144 82.9 138.7 82.9 140 83.1 141.7 83.4 133.3 84 126.9 84.1 128.8 84.9 131.3 117.1 119.2 186.6 121.4 357.1 124.2 932 127.7" opacity=".9"/><polyline fill="none" stroke="#475569" stroke-linejoin="round" stroke-width="1.8" points="80 179.9 80 182.1 82.1 171.1 82.2 173.2 82.4 162.9 82.4 156.8 82.5 151.9 82.5 152.8 82.6 147.9 82.6 148.7 82.6 145 82.7 145.6 82.7 142.8 82.7 143.5 82.7 140.1 82.7 140.9 82.7 142 82.7 143.4 82.8 136.6 82.8 137.7 82.8 139.1 82.8 140.8 82.8 142.9 82.8 144 82.9 138.6 82.9 140 83.1 141.7 83.4 133.3 84 126.9 84.1 128.8 84.9 131.2 117.1 119.2 186.6 121.4 357.1 124.2 932 127.6" opacity=".9"/><polyline fill="none" stroke="#ea580c" stroke-linejoin="round" stroke-width="1.8" points="80 179.9 80 182.1 82.1 171.1 82.2 173.2 82.4 162.9 82.4 156.8 82.5 151.8 82.5 152.8 82.6 147.9 82.6 148.7 82.6 145 82.7 145.5 82.7 142.8 82.7 143.5 82.7 140 82.7 140.9 82.7 142 82.7 143.3 82.8 136.6 82.8 137.7 82.8 139.1 82.8 140.8 82.8 142.9 82.8 144 82.9 138.6 82.9 139.9 83.1 141.6 83.4 133.3 84 126.8 84.1 128.8 84.9 131.2 117.1 119.1 186.6 121.3 357.1 124.1 932 127.6" opacity=".9"/><line x1="950" x2="972" y1="94" y2="94" stroke="#ea580c" stroke-width="3"/><text x="980" y="98" fill="#374151" font-size="12.5">vip 9 115947490</text><line x1="950" x2="972" y1="116" y2="116" stroke="#475569" stroke-width="3"/><text x="980" y="120" fill="#374151" font-size="12.5">vip 8 115929425</text><line x1="950" x2="972" y1="138" y2="138" stroke="#65a30d" stroke-width="3"/><text x="980" y="142" fill="#374151" font-size="12.5">vip 7 115917382</text><line x1="950" x2="972" y1="160" y2="160" stroke="#db2777" stroke-width="3"/><text x="980" y="164" fill="#374151" font-size="12.5">vip 6 115899318</text><line x1="950" x2="972" y1="182" y2="182" stroke="#0891b2" stroke-width="3"/><text x="980" y="186" fill="#374151" font-size="12.5">vip 5 115887274</text><line x1="950" x2="972" y1="204" y2="204" stroke="#7c3aed" stroke-width="3"/><text x="980" y="208" fill="#374151" font-size="12.5">vip 4 115869210</text><line x1="950" x2="972" y1="226" y2="226" stroke="#d97706" stroke-width="3"/><text x="980" y="230" fill="#374151" font-size="12.5">vip 3 115857167</text><line x1="950" x2="972" y1="248" y2="248" stroke="#16a34a" stroke-width="3"/><text x="980" y="252" fill="#374151" font-size="12.5">vip 2 115808995</text><line x1="950" x2="972" y1="270" y2="270" stroke="#2563eb" stroke-width="3"/><text x="980" y="274" fill="#374151" font-size="12.5">vip 0 115748780</text><line x1="950" x2="972" y1="292" y2="292" stroke="#dc2626" stroke-width="3"/><text x="980" y="296" fill="#374151" font-size="12.5">vip 1 115748780</text><text x="80" y="542" fill="#6b7280" font-size="12" text-anchor="start">2025-10-10</text><text x="932" y="542" fill="#6b7280" font-size="12" text-anchor="end">2025-10-16</text></svg>