<?xml version="1.0" encoding="UTF-8"?>
<svg xmlns="http://www.w3.org/2000/svg" width="1000" height="520" viewBox="0 0 1000 520" font-family="ui-sans-serif, system-ui, sans-serif">
  <rect width="1000" height="520" fill="#ffffff"/>
  <text x="78" y="28" font-size="18" font-weight="700" fill="#111827">Zone Recovery — DOGEUSDT best setting (equity / PnL)</text>
  <text x="78" y="48" font-size="12.5" fill="#6b7280">lev 10 · ratio 4 · gap 35% · maxSteps 4 · maxDD 20% · random · vip 9  ·  4 series, 100.0% win · vol $52231241 ($1684879/day) · fees $7991</text>
  <text x="78" y="68" font-size="12.5" font-weight="600" fill="#1d4ed8">USDT · BNB −10% · taker 0.0153%</text>
  <text x="934" y="28" text-anchor="end" font-size="18" font-weight="700" fill="#16a34a">+1808577 USDT  (+1.81%)</text>
  <line x1="78" y1="468.0" x2="934" y2="468.0" stroke="#e5e7eb" stroke-width="1"/><text x="68" y="472.0" text-anchor="end" font-size="12" fill="#6b7280">0.00</text><line x1="78" y1="392.0" x2="934" y2="392.0" stroke="#e5e7eb" stroke-width="1"/><text x="68" y="396.0" text-anchor="end" font-size="12" fill="#6b7280">22012675</text><line x1="78" y1="316.0" x2="934" y2="316.0" stroke="#e5e7eb" stroke-width="1"/><text x="68" y="320.0" text-anchor="end" font-size="12" fill="#6b7280">44025350</text><line x1="78" y1="240.0" x2="934" y2="240.0" stroke="#e5e7eb" stroke-width="1"/><text x="68" y="244.0" text-anchor="end" font-size="12" fill="#6b7280">66038025</text><line x1="78" y1="164.0" x2="934" y2="164.0" stroke="#e5e7eb" stroke-width="1"/><text x="68" y="168.0" text-anchor="end" font-size="12" fill="#6b7280">88050700</text><line x1="78" y1="88.0" x2="934" y2="88.0" stroke="#e5e7eb" stroke-width="1"/><text x="68" y="92.0" text-anchor="end" font-size="12" fill="#6b7280">110063375</text>
  <line x1="78" y1="122.7" x2="934" y2="122.7" stroke="#9ca3af" stroke-width="1.5" stroke-dasharray="6 4"/><text x="934" y="116.7" text-anchor="end" font-size="11" fill="#6b7280">start 100000000</text>
  <polyline points="78.0,321.1 78.3,319.5 78.8,319.4 79.3,317.7 79.6,316.9 80.1,316.0 80.5,315.5 80.9,314.3 81.5,315.2 81.7,316.8 82.1,316.0 82.6,317.1 83.0,316.8 83.5,317.6 84.0,316.3 84.6,315.4 85.2,315.3 85.8,316.7 86.3,315.6 86.9,315.1 87.3,315.7 87.7,313.0 88.1,310.4 88.3,307.3 88.4,301.5 88.5,304.6 88.7,304.2 88.9,302.7 89.3,302.6 89.6,305.6 90.0,304.9 90.5,304.1 90.9,303.9 91.4,305.4 91.9,304.0 92.3,304.4 92.8,304.6 93.3,303.2 93.8,302.4 94.2,303.2 94.6,304.0 94.9,305.1 95.4,303.3 95.7,303.0 96.0,300.1 96.1,290.3 96.1,288.4 96.1,286.9 96.2,279.9 96.2,277.3 96.2,269.7 96.2,283.6 96.2,282.5 96.3,284.2 96.5,281.7 96.5,283.5 96.6,282.1 96.7,279.1 96.9,284.6 97.0,281.8 97.2,284.7 97.3,286.5 97.5,284.8 97.7,284.1 98.0,282.0 98.2,281.4 98.4,280.0 98.6,281.9 98.8,281.6 99.1,282.7 99.4,282.7 99.7,282.0 100.0,280.3 100.4,280.0 100.7,277.2 100.9,277.1 101.1,276.2 101.4,276.0 101.7,274.3 101.9,276.2 102.2,275.1 102.5,275.5 102.9,276.4 103.2,275.5 103.5,271.5 103.8,272.2 104.1,273.6 104.3,272.8 104.6,273.4 104.9,270.0 105.2,271.9 105.5,272.1 105.8,273.6 106.0,274.5 106.2,274.0 106.5,274.5 106.9,274.0 107.2,272.1 107.5,272.8 107.8,273.2 108.1,273.4 108.4,273.5 108.7,272.5 108.9,270.8 109.2,272.3 109.4,270.2 109.6,270.1 109.8,267.1 109.9,264.1 109.9,261.3 110.0,260.2 110.1,262.6 110.3,261.1 110.5,261.3 110.7,264.2 110.9,264.2 111.2,263.2 111.5,264.0 111.8,267.4 112.1,266.6 112.4,264.1 112.7,262.8 113.0,261.7 113.3,261.5 113.7,262.1 114.0,262.6 114.3,266.2 114.7,265.8 115.0,262.9 115.2,264.4 115.5,262.2 115.8,261.5 116.1,261.2 116.3,260.2 116.6,259.9 116.8,251.8 116.9,249.0 116.9,246.4 116.9,240.1 116.9,231.3 116.9,232.9 116.9,238.4 117.0,238.9 117.0,238.5 117.1,239.3 117.2,241.1 117.3,236.6 117.4,238.8 117.5,238.5 117.6,243.1 117.8,240.6 117.9,241.3 118.1,239.5 118.3,240.0 118.5,240.4 118.7,241.1 118.9,244.6 119.0,247.5 119.1,254.3 119.1,254.5 119.2,260.5 119.2,260.7 119.4,257.7 119.5,256.8 119.8,256.5 120.0,254.3 120.1,248.8 120.2,248.5 120.3,246.1 120.6,247.5 120.7,245.8 120.9,244.2 121.1,244.7 121.3,243.5 121.6,245.1 121.8,245.4 122.0,249.1 122.1,251.7 122.2,252.9 122.3,250.5 122.4,255.6 122.5,249.9 122.5,243.1 122.5,237.9 122.5,234.0 122.5,235.7 122.5,240.1 122.6,238.2 122.6,237.0 122.7,235.2 122.7,229.3 122.7,230.2 122.7,236.1 122.8,235.6 122.9,231.7 123.0,232.7 123.1,233.0 123.2,236.9 123.3,236.1 123.4,235.8 123.5,234.8 123.6,230.8 123.6,225.1 123.7,228.5 123.7,225.1 123.8,227.0 123.9,227.1 124.0,226.5 124.1,228.3 124.3,226.1 124.3,222.9 124.4,224.0 124.5,214.5 124.5,216.3 124.6,218.0 124.6,214.3 124.7,211.1 124.7,210.8 124.8,214.4 124.9,215.8 125.0,211.3 125.1,212.0 125.2,210.2 125.3,208.9 125.4,209.1 125.4,205.6 125.5,207.2 125.6,206.6 125.8,207.2 125.9,206.9 126.0,205.1 126.1,207.9 126.3,206.6 126.4,208.8 126.6,207.8 126.7,204.0 126.9,205.0 127.0,209.7 127.2,206.9 127.3,213.0 127.5,211.1 127.6,208.7 127.8,205.0 128.0,206.0 128.3,205.8 128.5,205.2 128.7,200.3 128.8,203.1 129.0,203.3 129.2,205.6 129.5,204.4 129.7,203.3 129.9,203.2 130.2,204.1 130.4,199.5 130.6,200.6 130.8,193.1 130.8,193.8 131.0,192.9 131.0,183.7 131.0,186.8 131.1,184.6 131.1,181.2 131.2,185.7 131.3,184.0 131.4,181.8 131.5,183.8 131.6,184.1 131.7,180.6 131.8,180.1 131.9,180.1 132.0,180.2 132.1,179.1 132.1,184.2 132.3,185.6 132.4,186.4 132.5,188.4 132.6,189.3 132.8,188.7 133.0,193.3 133.2,190.0 133.4,187.2 133.6,189.4 133.8,188.1 134.0,190.3 134.2,190.1 134.4,192.0 134.7,189.6 134.9,188.1 135.0,190.3 135.4,189.0 135.6,194.8 135.8,193.6 136.0,187.9 136.2,189.0 136.4,185.6 136.6,182.6 136.8,183.1 137.0,183.1 137.2,185.6 137.5,181.3 137.7,181.1 137.9,181.9 138.1,184.2 138.4,182.7 138.6,184.4 138.8,186.8 139.1,184.9 139.4,185.6 139.7,189.6 139.9,186.5 140.2,186.3 140.4,182.8 140.7,185.7 140.9,190.8 141.1,193.7 141.3,191.3 141.5,192.9 141.6,198.3 141.7,205.2 141.7,201.4 141.9,205.2 142.0,201.4 142.1,201.0 142.4,202.4 142.6,203.7 142.7,201.4 142.9,200.9 143.1,197.4 143.2,194.6 143.5,196.4 143.8,198.8 144.1,196.4 144.3,194.0 144.4,191.8 144.5,188.1 144.7,185.9 144.8,187.8 145.0,188.4 145.3,186.5 145.5,187.3 145.8,187.9 146.1,188.7 146.4,189.3 146.6,189.6 147.0,188.7 147.3,187.7 147.6,186.4 147.8,188.4 148.1,186.4 148.3,185.6 148.6,186.3 148.9,186.1 149.2,186.3 149.4,186.5 149.7,186.4 150.0,187.9 150.3,188.9 150.5,188.5 150.8,189.7 151.1,188.5 151.5,189.3 151.7,194.9 151.8,195.5 152.0,196.2 152.2,193.4 152.5,193.4 152.8,194.5 153.2,195.7 153.6,192.6 154.0,194.2 154.5,191.3 154.8,191.9 155.3,194.0 155.9,192.8 156.3,193.1 156.9,191.8 157.2,188.9 157.6,189.2 157.9,186.9 158.2,189.3 158.6,190.6 158.9,187.3 159.3,185.4 159.7,187.1 160.0,185.7 160.2,184.3 160.6,185.1 160.9,185.3 161.0,182.9 161.1,179.6 161.2,177.0 161.2,173.8 161.3,179.7 161.4,177.2 161.5,168.1 161.5,169.0 161.6,172.3 161.7,171.2 161.8,169.0 161.9,167.7 162.1,168.9 162.3,169.0 162.4,170.4 162.7,170.9 162.9,170.5 163.1,168.7 163.4,168.9 163.5,163.2 163.7,167.1 163.9,164.7 164.1,166.2 164.3,162.4 164.5,161.6 164.5,157.4 164.6,158.2 164.7,154.8 164.8,154.6 164.9,154.5 165.0,150.9 165.1,152.2 165.1,147.7 165.2,142.6 165.2,142.3 165.3,141.2 165.4,143.8 165.5,140.3 165.6,141.1 165.8,135.2 165.8,134.3 165.9,132.9 166.0,134.3 166.1,137.1 166.2,138.0 166.4,138.5 166.6,137.9 166.7,140.4 166.9,138.7 167.1,135.8 167.3,135.7 167.6,134.5 167.8,134.4 168.0,134.6 168.2,134.6 168.2,132.8 168.4,137.7 168.5,139.4 168.6,142.5 168.6,141.9 168.7,148.1 168.8,145.9 169.0,146.0 169.1,142.2 169.3,140.9 169.4,139.5 169.7,141.1 169.9,139.2 170.1,142.9 170.2,140.0 170.4,138.2 170.6,141.3 170.8,139.3 171.0,138.5 171.3,139.1 171.5,141.5 171.7,139.1 171.9,138.3 172.1,139.1 172.3,137.4 172.5,134.3 172.7,137.1 173.0,135.0 173.3,136.3 173.6,140.5 173.7,140.8 173.9,140.6 174.2,139.8 174.5,138.5 174.8,138.3 174.9,136.2 175.0,132.2 175.1,128.7 175.2,128.9 175.3,128.2 175.4,133.3 175.6,133.2 175.8,134.1 176.0,132.3 176.2,137.6 176.3,136.7 176.6,137.7 176.9,137.9 177.1,136.7 177.4,137.8 177.6,144.0 177.7,144.0 177.8,146.1 178.0,141.0 178.2,142.7 178.4,141.7 178.7,142.5 178.9,143.2 179.0,146.0 179.2,141.3 179.4,142.6 179.5,145.5 179.7,143.8 180.0,141.3 180.2,142.2 180.4,137.5 180.6,136.0 180.7,136.9 180.9,137.3 181.2,136.4 181.5,138.2 181.7,139.7 182.0,138.7 182.3,143.0 182.5,141.7 182.8,148.5 182.8,158.0 182.8,157.7 182.8,157.3 182.9,155.0 183.0,153.6 183.1,150.3 183.3,150.1 183.6,150.9 183.9,150.9 184.1,146.7 184.4,145.8 184.7,148.4 185.0,149.9 185.3,148.5 185.6,149.6 185.8,154.6 186.2,152.6 186.4,154.4 186.7,152.8 187.1,153.5 187.4,150.7 187.6,151.4 187.8,150.3 188.1,154.0 188.4,152.4 188.5,147.7 188.6,151.0 188.8,150.6 189.0,152.6 189.2,149.8 189.4,144.7 189.5,146.2 189.7,146.0 189.8,140.6 189.9,143.0 190.0,142.6 190.2,144.1 190.3,139.4 190.4,138.8 190.6,138.1 190.8,139.4 190.9,144.7 191.1,141.4 191.3,143.7 191.5,141.4 191.8,138.8 192.0,138.3 192.3,138.6 192.5,139.7 192.8,140.6 193.1,141.0 193.3,143.5 193.6,151.6 193.6,150.7 193.7,150.3 193.9,149.3 194.1,145.7 194.4,146.6 194.7,144.4 195.0,144.4 195.3,146.0 195.5,146.3 195.8,146.3 196.0,150.8 196.2,147.4 196.5,146.5 196.8,145.9 197.2,148.0 197.5,148.8 197.8,147.6 198.1,146.8 198.4,152.5 198.7,151.2 198.9,157.2 199.0,155.6 199.3,156.4 199.6,154.3 199.7,159.0 199.8,161.9 199.9,163.4 199.9,166.2 200.0,163.2 200.2,161.0 200.4,159.9 200.6,164.8 200.7,171.4 200.7,165.0 200.8,167.1 201.0,164.0 201.3,164.2 201.6,163.6 201.8,163.5 202.1,161.5 202.4,161.1 202.6,163.7 202.9,164.5 203.3,163.5 203.6,162.0 203.8,163.2 204.1,165.0 204.3,166.1 204.6,165.2 204.8,166.8 205.1,166.1 205.2,164.9 205.3,162.1 205.4,158.4 205.5,161.0 205.6,158.1 205.7,159.2 205.8,165.3 205.8,166.7 206.0,166.8 206.1,164.9 206.3,159.1 206.5,158.2 206.6,156.4 206.7,155.2 206.9,154.7 207.0,156.2 207.2,150.6 207.3,152.3 207.4,149.7 207.5,150.0 207.6,146.5 207.7,149.0 207.8,148.0 207.9,145.6 208.1,145.4 208.3,147.9 208.5,154.3 208.6,154.4 208.7,150.0 208.9,145.1 209.0,143.0 209.0,133.4 209.1,131.5 209.1,133.9 209.1,130.9 209.2,134.2 209.2,136.0 209.4,140.2 209.6,140.9 209.8,140.4 209.9,143.7 210.2,139.3 210.4,137.6 210.6,137.1 210.8,137.2 211.0,133.8 211.2,140.0 211.4,140.0 211.6,134.3 211.8,135.2 212.0,132.7 212.0,129.9 212.1,139.1 212.3,141.4 212.5,143.9 212.7,141.2 212.9,134.0 213.0,134.9 213.2,139.5 213.6,139.8 213.9,141.7 214.2,134.7 214.5,134.6 214.8,135.4 215.1,134.7 215.5,139.3 215.9,138.3 216.2,142.2 216.4,144.5 216.6,143.8 216.8,150.2 216.9,151.1 217.1,144.3 217.2,137.8 217.3,127.6 217.3,136.7 217.5,137.0 217.7,134.6 217.9,134.3 218.1,138.7 218.3,141.8 218.5,137.4 218.7,137.7 218.9,136.0 219.1,138.5 219.4,141.6 219.7,140.5 220.0,143.3 220.2,135.5 220.4,136.5 220.7,134.4 221.0,134.9 221.2,138.3 221.5,138.0 221.9,140.2 222.1,141.9 222.2,140.6 222.5,142.4 222.7,142.9 223.0,140.2 223.2,140.6 223.4,143.1 223.7,139.4 223.9,138.5 224.1,143.1 224.3,145.0 224.5,145.7 224.7,149.3 224.9,151.4 225.0,152.1 225.2,151.6 225.5,147.8 225.8,150.6 226.1,149.6 226.4,150.8 226.7,148.0 227.0,146.6 227.4,145.2 227.8,146.2 228.3,145.3 228.8,145.8 229.1,146.5 229.6,146.8 230.0,146.2 230.2,142.4 230.5,142.2 230.9,141.0 231.1,142.1 231.4,140.5 231.8,141.1 232.2,140.4 232.4,137.0 232.4,132.7 232.5,130.0 232.6,126.5 232.6,122.3 232.6,118.9 232.7,116.5 232.7,119.7 232.8,124.6 232.9,125.7 232.9,125.6 233.0,131.7 233.1,134.5 233.1,135.4 233.2,135.9 233.3,134.7 233.5,134.5 233.6,136.5 233.7,133.7 233.9,133.3 234.0,141.7 234.1,145.4 234.1,148.1 234.3,145.9 234.4,150.0 234.4,153.3 234.5,148.6 234.6,157.3 234.6,178.0 234.6,177.5 234.6,175.5 234.6,168.7 234.6,163.1 234.6,161.4 234.6,164.4 234.7,162.9 234.7,162.2 234.8,161.9 234.9,165.9 235.0,167.6 235.0,170.7 235.1,170.3 235.2,171.6 235.3,173.4 235.3,177.4 235.4,177.5 235.4,176.3 235.5,174.9 235.7,174.2 235.8,171.5 236.0,172.1 236.1,169.4 236.3,167.3 236.4,173.2 236.5,177.2 236.6,175.7 236.7,182.1 236.8,181.5 236.9,175.8 237.0,174.2 237.2,173.9 237.5,172.7 237.7,170.1 238.0,173.9 238.3,171.3 238.7,172.2 239.1,169.6 239.3,168.4 239.7,165.9 240.0,164.4 240.4,165.1 240.5,156.0 240.6,149.9 240.7,151.8 240.9,146.1 241.1,146.9 241.3,149.7 241.5,148.5 241.8,150.5 242.2,148.7 242.5,147.9 242.8,146.7 243.2,145.8 243.6,145.8 243.9,149.6 244.3,151.5 244.6,154.3 244.8,157.4 244.9,157.7 245.1,161.2 245.3,160.5 245.6,163.0 245.9,162.4 246.1,160.7 246.4,161.9 246.7,160.7 247.1,157.3 247.4,155.9 247.7,153.5 248.1,156.1 248.5,157.3 249.0,158.7 249.5,158.6 249.8,160.9 250.2,159.2 250.6,161.4 250.9,158.8 251.4,159.8 252.0,158.6 252.5,154.3 252.9,152.4 252.9,145.8 253.0,142.8 253.2,143.3 253.4,146.5 253.7,145.6 253.9,136.1 253.9,131.9 253.9,132.5 253.9,128.7 254.0,130.6 254.0,135.1 254.1,138.6 254.2,142.1 254.3,143.1 254.5,148.4 254.6,146.7 254.7,154.7 254.8,155.4 255.0,157.5 255.1,156.3 255.3,156.0 255.5,157.3 255.8,159.0 256.0,158.0 256.4,156.5 256.7,154.8 257.1,152.2 257.4,154.9 257.7,157.2 258.0,157.6 258.4,158.4 258.8,161.0 259.0,159.9 259.2,156.4 259.6,160.5 259.8,164.1 259.9,165.0 260.0,167.3 260.2,169.0 260.4,170.1 260.4,172.3 260.5,167.0 260.5,163.6 260.6,161.3 260.7,161.5 260.9,161.3 261.0,168.1 261.1,169.7 261.2,171.3 261.3,175.4 261.4,171.9 261.6,171.7 261.7,170.6 261.9,167.4 262.2,166.8 262.4,164.7 262.6,162.7 262.8,167.1 263.0,161.8 263.2,163.2 263.5,162.9 263.7,159.1 264.1,159.7 264.3,165.5 264.7,166.9 264.9,167.8 265.2,165.6 265.6,167.1 265.8,170.7 266.0,172.0 266.3,164.5 266.7,165.9 267.1,171.9 267.5,168.7 268.0,168.4 268.4,166.4 269.0,169.3 269.4,167.1 269.9,167.9 270.2,172.0 270.5,165.9 270.8,166.2 271.2,168.0 271.5,168.0 271.8,170.5 272.2,164.0 272.6,165.7 273.0,163.1 273.4,162.6 273.8,163.5 274.0,166.3 274.3,170.3 274.6,170.2 275.0,169.2 275.5,171.5 275.7,176.1 276.0,173.1 276.3,172.7 276.5,166.4 276.9,164.1 277.2,164.2 277.6,168.1 278.0,171.9 278.3,177.7 278.4,179.2 278.5,185.1 278.6,184.5 278.7,182.2 278.9,179.5 279.2,182.9 279.3,188.2 279.4,193.6 279.4,189.6 279.5,189.1 279.6,186.0 279.8,183.2 280.0,181.0 280.3,182.0 280.5,179.2 280.8,179.6 281.1,178.5 281.4,182.5 281.7,182.2 282.0,183.5 282.2,186.4 282.5,185.6 282.8,189.9 282.9,194.2 283.0,191.9 283.2,191.6 283.5,188.6 283.9,185.9 284.1,189.5 284.3,192.5 284.3,202.0 284.3,201.6 284.3,205.9 284.3,208.1 284.3,206.0 284.4,204.0 284.5,199.3 284.6,199.0 284.8,198.5 285.0,197.3 285.2,203.7 285.3,203.5 285.4,204.0 285.6,202.1 285.9,204.2 286.2,206.1 286.5,201.8 286.8,202.0 287.1,203.4 287.4,204.2 287.6,203.8 287.9,209.2 288.0,205.6 288.1,206.2 288.3,209.8 288.3,204.5 288.5,204.2 288.6,205.4 288.7,202.9 288.8,201.1 289.0,197.1 289.1,196.1 289.2,197.0 289.4,194.9 289.6,195.7 289.8,192.8 290.0,193.4 290.2,195.0 290.4,198.3 290.6,190.0 290.9,188.9 291.0,187.0 291.3,189.1 291.6,190.4 291.8,186.2 292.1,185.8 292.4,188.6 292.8,188.1 293.1,191.9 293.5,191.3 293.9,188.2 294.4,194.7 294.7,193.6 295.2,192.3 295.7,189.7 296.2,186.4 296.7,187.5 297.1,186.8 297.6,189.8 298.1,188.4 298.8,191.2 299.3,190.5 299.8,188.8 300.4,188.2 300.6,183.6 300.8,194.1 301.0,192.2 301.3,186.1 301.7,186.9 302.3,191.5 302.8,189.6 303.3,187.1 303.7,188.7 304.4,190.3 305.1,189.3 305.8,186.9 306.5,187.3 307.1,186.7 307.7,188.1 308.1,192.0 308.3,193.6 308.7,197.3 308.9,199.6 309.0,205.6 309.1,206.1 309.3,198.8 309.6,200.1 310.0,198.1 310.6,197.8 311.0,199.3 311.7,197.5 312.3,199.3 312.8,200.0 313.2,202.2 313.6,201.7 314.1,199.8 314.4,197.3 314.5,198.6 314.7,199.6 315.1,202.7 315.3,206.5 315.5,206.1 315.7,209.6 315.8,204.8 315.9,207.3 316.1,207.0 316.2,207.5 316.4,208.2 316.5,206.2 316.6,199.9 316.7,190.5 316.7,186.8 316.8,184.3 316.8,178.3 316.9,182.2 317.0,185.8 317.0,187.0 317.1,192.2 317.2,196.7 317.4,188.1 317.5,185.3 317.6,180.9 317.7,182.0 317.9,185.6 318.2,184.1 318.4,182.7 318.7,185.5 318.8,193.8 319.1,193.7 319.4,190.9 319.7,189.4 320.0,198.2 320.2,202.8 320.3,202.6 320.5,201.1 320.9,202.3 321.2,206.3 321.5,204.9 322.0,204.0 322.4,203.9 322.8,203.2 323.2,200.3 323.7,199.1 324.3,199.3 324.9,197.1 325.5,197.1 326.3,198.4 327.0,200.1 327.7,200.2 328.3,200.8 329.0,199.2 329.6,202.8 330.2,202.8 330.8,200.7 331.4,203.9 332.0,202.2 332.7,201.0 333.6,201.6 334.1,202.9 334.8,200.6 335.4,201.1 336.2,201.9 336.5,203.4 337.0,202.8 337.6,202.0 338.2,200.5 338.9,200.2 339.4,200.8 340.0,202.4 340.6,201.5 341.4,202.1 342.1,201.5 342.7,201.7 343.3,202.9 343.7,202.8 344.4,202.5 345.2,203.1 346.0,202.0 346.8,201.6 347.4,203.6 347.9,201.6 348.5,202.1 349.3,201.0 349.9,200.5 350.8,202.8 351.5,202.5 352.2,203.4 352.9,205.5 353.3,204.2 354.3,205.2 354.7,206.1 355.3,207.7 355.8,208.5 356.5,206.9 357.2,206.9 357.8,207.6 358.7,206.8 359.3,208.2 360.0,206.9 360.6,206.0 361.1,204.9 361.5,206.9 362.1,203.6 362.9,203.3 363.5,202.8 364.0,202.4 364.6,201.4 365.1,200.7 365.8,201.9 366.6,202.5 367.2,203.8 368.0,203.6 368.6,201.3 368.9,198.7 369.2,197.4 369.7,199.9 370.4,198.4 371.1,199.2 371.5,198.8 371.8,202.3 372.2,204.2 372.3,212.3 372.3,218.0 372.4,214.5 372.5,212.2 372.7,211.2 372.9,210.6 373.1,205.0 373.3,204.5 373.5,208.0 374.0,208.2 374.4,213.4 374.9,210.4 375.4,211.5 375.9,209.8 376.3,210.7 376.9,215.9 377.2,216.4 377.3,219.8 377.5,223.3 377.7,221.3 378.1,219.7 378.4,222.1 378.8,218.7 379.3,215.8 379.6,220.2 380.0,216.6 380.6,219.2 380.8,216.8 381.0,213.3 381.4,215.1 381.8,214.0 382.1,212.3 382.3,209.6 382.6,217.1 382.8,215.1 382.9,209.3 383.0,205.2 383.2,206.9 383.4,206.9 383.7,209.7 384.1,205.8 384.3,202.9 384.4,199.4 384.7,201.2 384.9,196.8 385.0,191.2 385.2,192.4 385.4,193.7 385.6,191.8 385.9,194.9 386.2,198.1 386.4,201.2 386.7,198.1 387.2,197.5 387.6,199.2 388.0,195.0 388.6,196.9 389.0,200.6 389.4,203.3 389.8,204.1 390.1,203.2 390.4,205.2 390.5,211.7 390.7,212.0 391.0,211.6 391.2,210.0 391.6,214.1 391.6,221.2 391.7,224.2 391.7,222.2 391.9,223.9 392.0,219.3 392.2,220.2 392.5,217.9 392.9,219.3 393.3,218.7 393.6,218.1 394.2,219.6 394.6,221.1 394.9,218.7 395.5,219.5 395.9,221.3 396.3,221.7 396.7,222.2 397.0,224.2 397.3,222.5 397.7,223.0 398.1,220.5 398.3,223.8 398.4,224.3 398.5,221.1 398.6,216.9 398.8,219.7 399.0,219.9 399.2,220.2 399.4,213.1 399.5,213.0 399.7,211.1 399.9,210.6 400.1,210.2 400.3,207.5 400.5,209.1 400.7,203.9 400.8,203.8 401.0,204.8 401.3,205.4 401.5,209.3 401.8,210.0 401.9,217.1 402.1,214.6 402.4,212.8 402.7,208.7 403.1,208.8 403.4,211.5 403.8,212.5 404.4,212.3 404.8,209.2 405.2,211.7 405.7,215.6 406.0,219.8 406.5,219.6 406.9,223.6 407.2,219.8 407.7,218.5 408.3,220.2 408.9,219.7 409.5,219.5 410.0,218.6 410.6,217.7 411.1,218.9 411.7,219.7 412.1,216.1 412.7,217.4 413.1,218.6 413.7,217.8 414.2,214.3 414.6,215.8 415.1,211.3 415.4,210.8 415.5,207.1 415.8,209.0 416.2,207.2 416.6,207.5 417.0,206.7 417.4,207.1 417.8,210.2 418.3,209.6 418.8,206.4 419.3,205.3 419.6,203.2 419.9,203.4 420.2,203.0 420.5,205.0 420.8,204.2 421.2,203.2 421.6,203.3 422.1,206.3 422.4,207.1 423.0,206.5 423.5,206.0 424.0,203.8 424.5,205.1 424.9,203.6 424.9,202.5 425.0,201.7 425.2,202.3 425.5,204.8 425.7,202.8 426.0,198.9 426.1,197.2 426.2,194.1 426.3,194.0 426.4,198.7 426.6,200.1 426.7,200.6 426.9,201.3 427.1,202.4 427.3,197.8 427.4,193.9 427.6,195.8 427.7,191.0 427.8,186.0 427.9,189.6 428.1,190.1 428.3,188.4 428.4,185.6 428.6,185.9 428.9,185.7 429.1,187.0 429.3,189.9 429.6,189.0 429.9,189.3 430.2,187.5 430.4,183.5 430.7,185.0 431.1,185.9 431.4,184.0 431.9,182.2 432.1,182.2 432.3,179.5 432.5,175.6 432.8,177.6 433.0,182.7 433.3,181.7 433.7,179.5 434.0,177.5 434.5,177.4 434.8,171.6 434.8,165.3 434.9,159.0 434.9,150.2 434.9,150.4 434.9,148.6 434.9,158.5 434.9,156.3 435.0,153.6 435.1,151.8 435.2,150.0 435.3,155.2 435.5,151.2 435.7,151.5 435.8,148.5 435.9,148.9 436.1,149.1 436.3,154.0 436.5,157.5 436.6,159.0 436.8,160.7 437.0,156.3 437.2,158.1 437.4,155.0 437.7,159.0 437.9,157.9 438.2,159.6 438.5,158.3 438.8,158.8 439.1,163.1 439.3,162.4 439.6,157.5 439.9,157.6 440.3,159.9 440.7,156.7 441.0,154.5 441.4,152.4 441.6,152.0 441.9,154.4 442.3,155.4 442.8,158.0 443.1,158.6 443.3,161.2 443.7,161.1 444.0,165.4 444.3,163.3 444.7,162.6 445.0,159.0 445.4,157.6 445.9,158.3 446.4,157.5 446.9,158.8 447.4,159.6 447.8,157.8 448.3,158.7 448.8,159.0 449.0,162.9 449.4,161.7 449.7,165.0 450.0,167.6 450.4,166.9 450.7,169.7 450.9,169.1 451.2,166.8 451.7,167.1 452.1,168.7 452.5,166.0 452.9,171.8 453.2,169.1 453.4,166.2 453.6,167.4 453.8,166.1 453.9,162.6 454.0,158.6 454.1,154.5 454.2,155.0 454.3,160.0 454.3,160.6 454.5,154.4 454.6,153.9 454.7,151.2 454.9,152.5 455.1,159.9 455.3,155.8 455.5,153.1 455.6,148.6 455.7,148.1 455.9,148.3 456.0,142.6 456.1,150.9 456.2,147.4 456.4,150.4 456.6,148.9 456.8,148.8 457.1,153.1 457.2,159.5 457.4,156.8 457.6,161.3 457.8,156.2 458.0,162.9 458.3,156.4 458.4,166.5 458.5,167.9 458.7,162.2 458.9,161.4 459.2,159.5 459.4,154.9 459.5,157.7 459.9,158.9 460.1,157.6 460.3,158.8 460.6,161.0 460.9,165.3 461.1,164.3 461.5,164.7 462.0,162.8 462.4,164.2 462.9,164.7 463.4,167.5 463.8,160.8 464.4,164.0 464.9,165.2 465.3,168.9 465.6,171.9 466.0,169.4 466.3,173.3 466.4,176.2 466.8,176.5 467.1,178.3 467.5,177.1 467.6,180.1 468.0,181.4 468.3,180.5 468.6,185.9 468.7,185.4 468.9,189.1 469.1,187.5 469.4,185.8 469.7,183.5 470.0,183.5 470.4,183.7 470.8,184.5 471.3,181.7 471.7,183.9 472.1,185.1 472.6,185.0 473.0,183.3 473.4,181.4 473.7,180.4 474.0,182.5 474.4,183.1 474.8,180.1 475.2,183.6 475.6,179.7 475.8,176.9 476.2,178.8 476.6,181.4 477.2,180.8 477.7,180.2 478.1,182.1 478.5,181.3 479.0,181.7 479.5,179.3 480.0,178.3 480.4,177.5 480.8,176.7 481.3,181.0 481.4,184.6 481.5,187.2 481.6,191.3 481.6,185.6 481.8,185.2 481.9,187.9 482.1,187.7 482.3,193.4 482.5,191.7 482.6,195.3 482.7,198.6 482.8,199.1 482.9,195.9 483.0,191.1 483.2,194.6 483.4,192.3 483.6,194.5 483.8,192.8 484.1,193.6 484.4,194.1 484.7,193.3 485.0,191.4 485.3,198.6 485.5,199.2 485.7,199.7 486.1,200.5 486.3,201.9 486.5,204.8 486.8,200.7 487.1,204.2 487.3,205.2 487.6,201.7 488.0,203.4 488.4,205.9 488.7,206.4 489.2,202.8 489.8,204.1 490.3,202.6 490.9,201.2 491.4,201.4 491.9,202.5 492.5,202.6 493.0,200.3 493.5,202.8 494.0,201.1 494.6,204.2 495.0,204.7 495.5,202.5 496.0,202.1 496.6,204.8 497.3,204.2 497.7,206.6 498.0,206.3 498.4,205.7 498.9,202.4 499.4,201.9 500.0,200.3 500.6,200.6 501.3,202.9 501.9,202.1 502.4,201.2 502.9,203.3 503.6,204.6 504.1,206.9 504.7,207.7 505.1,210.7 505.2,212.6 505.3,213.9 505.6,212.0 505.8,213.1 506.1,212.9 506.3,214.3 506.6,214.0 507.1,212.8 507.5,213.3 507.9,215.8 508.3,212.6 508.7,212.2 509.0,211.6 509.2,213.3 509.5,213.3 509.8,215.8 509.9,217.1 510.0,221.2 510.1,225.8 510.2,221.5 510.3,223.7 510.4,225.2 510.6,223.9 510.8,222.7 511.0,220.7 511.3,222.3 511.6,219.7 512.0,223.0 512.4,220.8 512.9,218.6 513.3,217.4 513.8,216.5 514.3,220.5 514.7,216.4 515.3,220.0 515.8,216.8 516.2,214.9 516.5,212.6 516.8,213.3 517.3,213.0 517.9,213.3 518.6,212.3 519.1,212.0 519.6,212.3 520.1,212.3 520.7,212.3 521.4,209.9 522.2,212.3 522.6,215.0 523.3,214.4 523.8,214.2 524.4,215.8 524.9,215.3 525.5,214.1 526.2,214.9 526.8,215.4 527.5,216.0 528.0,218.2 528.6,215.6 529.1,215.6 529.7,215.6 530.3,214.9 531.0,214.5 531.6,215.4 532.2,215.8 532.8,214.5 533.4,214.8 534.0,213.9 534.7,215.2 535.2,215.2 535.8,213.5 536.3,213.3 536.7,210.3 537.1,210.0 537.3,209.3 537.5,209.6 537.7,209.8 538.1,208.8 538.2,204.5 538.4,203.6 538.7,207.7 539.0,209.7 539.4,209.0 539.8,207.2 540.3,208.5 540.8,208.9 541.7,209.0 542.5,208.2 543.3,207.9 544.2,209.9 545.1,209.6 545.7,211.5 546.0,214.1 546.4,213.0 547.2,214.1 547.8,211.4 548.5,214.9 548.9,216.4 549.5,217.7 550.0,216.3 550.5,218.5 551.1,216.7 551.5,215.5 552.1,216.1 552.6,216.3 552.9,216.3 553.3,216.7 553.9,217.2 554.3,216.6 555.0,217.4 555.7,218.1 556.1,218.5 556.8,218.2 557.1,217.0 557.4,215.8 557.7,215.3 557.9,215.9 558.3,216.5 558.9,215.1 559.4,216.5 560.1,216.8 560.9,216.2 561.5,217.1 562.2,215.9 562.6,218.6 563.0,219.9 563.5,217.3 563.8,214.8 564.1,214.1 564.5,217.1 564.8,219.9 565.1,219.1 565.5,218.9 565.9,219.1 566.4,219.3 567.1,219.3 567.7,220.5 568.3,219.4 568.7,215.2 569.1,214.5 569.5,214.3 570.2,218.0 570.8,216.4 571.6,216.1 572.4,217.0 573.1,214.3 573.9,215.1 574.0,222.7 574.1,224.4 574.3,222.8 574.3,231.6 574.3,235.3 574.3,233.1 574.4,233.0 574.5,236.2 574.6,235.7 574.7,238.0 574.8,242.3 574.8,245.8 574.8,244.9 574.9,246.0 575.0,248.8 575.0,255.7 575.1,273.2 575.1,264.7 575.1,274.5 575.1,268.9 575.1,285.0 575.1,294.6 575.1,280.0 575.1,298.7 575.1,287.6 575.1,289.1 575.1,307.5 575.1,291.6 575.1,300.5 575.1,288.4 575.1,280.6 575.1,276.4 575.1,276.2 575.1,272.4 575.1,268.0 575.1,269.9 575.1,269.0 575.2,269.2 575.2,274.3 575.2,270.9 575.2,272.7 575.2,275.8 575.3,272.3 575.3,274.4 575.4,275.7 575.4,273.3 575.4,276.4 575.5,278.8 575.5,275.0 575.6,277.4 575.6,276.8 575.7,271.9 575.7,274.9 575.8,273.4 575.9,272.0 576.0,273.6 576.2,273.6 576.3,272.3 576.4,269.7 576.5,269.6 576.7,272.2 576.9,269.7 577.0,273.6 577.2,273.5 577.4,273.1 577.6,271.5 577.9,270.3 578.2,269.7 578.4,269.6 578.6,269.4 579.0,270.7 579.4,269.3 579.8,270.3 580.1,270.8 580.5,267.9 580.8,269.4 581.1,270.7 581.4,269.6 581.8,270.4 582.2,271.5 582.7,271.7 583.1,271.2 583.5,270.0 584.0,270.3 584.4,268.6 584.7,263.9 585.0,265.1 585.3,265.9 585.6,265.7 586.0,267.5 586.5,266.7 586.8,267.7 587.3,267.2 587.9,266.1 588.4,265.8 588.9,266.4 589.2,268.4 589.6,265.7 589.9,266.6 590.4,266.6 590.8,264.8 591.3,265.2 591.5,261.4 591.8,261.0 592.2,264.1 592.5,264.0 592.9,266.2 593.4,266.4 593.8,265.3 594.1,263.4 594.5,259.8 594.7,260.5 595.2,261.5 595.7,259.7 596.1,258.7 596.6,257.4 597.0,258.9 597.3,255.9 597.7,255.2 598.1,255.6 598.5,253.2 598.9,253.9 599.2,252.1 599.4,254.8 599.9,256.7 600.4,257.5 600.6,260.2 601.1,259.9 601.5,261.2 601.7,259.8 602.1,258.5 602.6,259.4 602.9,260.1 603.4,259.9 603.9,262.0 604.3,260.5 604.8,261.2 605.3,263.8 605.8,261.8 606.3,264.3 606.8,266.1 607.3,265.3 607.8,266.0 608.3,266.9 608.5,265.7 608.7,268.0 609.1,267.3 609.6,265.7 609.9,271.0 610.0,271.2 610.2,270.8 610.5,271.7 610.8,270.9 611.1,269.0 611.6,270.3 612.0,271.1 612.1,275.0 612.4,273.0 612.6,278.4 612.7,277.9 613.0,275.5 613.4,276.4 613.8,278.1 614.3,276.1 614.7,277.7 615.1,278.2 615.6,277.4 616.1,279.5 616.5,279.5 616.9,278.7 617.4,276.6 617.8,280.6 618.0,281.0 618.3,280.3 618.6,281.0 618.9,278.8 619.2,278.9 619.4,280.1 619.5,273.2 619.6,274.5 619.7,275.1 619.9,276.7 620.0,281.1 620.1,282.7 620.1,279.9 620.3,278.8 620.4,279.1 620.6,279.8 620.8,283.1 621.1,279.7 621.3,280.4 621.5,281.4 621.7,288.2 621.8,284.7 622.0,288.2 622.2,287.1 622.5,284.1 622.8,286.1 623.0,287.0 623.2,287.3 623.5,285.7 623.9,287.0 624.2,289.5 624.6,285.7 625.1,288.0 625.4,287.4 625.9,288.3 626.3,285.7 626.7,285.3 627.1,287.5 627.7,288.4 628.3,285.3 628.6,294.0 628.6,295.4 628.6,293.6 628.8,288.8 629.0,288.5 629.3,289.0 629.5,290.0 629.8,290.0 630.1,289.7 630.4,288.3 630.7,289.7 630.9,286.6 631.1,284.1 631.4,280.2 631.6,277.4 632.0,279.3 632.3,278.4 632.6,274.8 632.9,274.3 633.3,277.3 633.7,276.7 634.1,276.9 634.5,278.2 634.9,278.7 635.4,278.1 635.8,278.8 636.3,278.9 636.8,276.1 637.1,274.6 637.3,277.6 637.7,277.2 638.0,279.8 638.4,278.2 639.0,281.5 639.5,281.7 640.0,283.1 640.3,285.9 640.7,284.7 641.2,283.4 641.8,284.2 642.3,283.8 642.9,286.2 643.5,285.0 644.0,288.4 644.1,292.2 644.2,291.6 644.3,296.6 644.5,295.9 644.6,299.2 644.8,294.7 645.2,293.7 645.5,290.2 645.9,291.9 646.2,294.6 646.5,291.6 646.5,286.3 646.6,281.9 646.7,278.2 646.8,279.3 647.0,275.1 647.0,277.2 647.2,278.2 647.3,279.1 647.5,277.1 647.7,277.0 647.9,274.5 648.0,277.6 648.3,279.6 648.5,273.5 648.8,276.2 649.0,280.3 649.2,285.0 649.4,287.0 649.4,293.1 649.5,297.8 649.5,297.3 649.6,296.3 649.8,302.8 649.8,304.5 649.9,299.0 650.0,299.9 650.1,305.0 650.2,299.7 650.3,300.2 650.5,300.8 650.6,296.4 650.9,298.0 651.1,296.6 651.3,293.5 651.6,295.1 651.9,293.0 652.1,289.4 652.3,287.6 652.6,288.5 652.7,278.7 652.7,279.2 652.8,276.3 652.8,273.4 652.9,270.3 653.0,267.7 653.1,264.8 653.1,268.5 653.3,265.0 653.4,268.0 653.6,269.5 653.7,271.9 653.9,271.4 654.1,270.9 654.4,267.5 654.6,266.3 654.9,265.0 655.3,264.5 655.8,263.5 656.0,265.3 656.3,268.8 656.7,269.0 657.1,268.2 657.4,269.7 657.6,272.1 657.8,273.4 658.1,271.7 658.3,271.5 658.5,270.5 658.8,269.5 659.1,269.3 659.4,268.7 659.8,268.6 660.2,266.9 660.5,267.3 660.9,269.2 661.2,270.6 661.5,268.3 661.9,270.5 662.2,271.6 662.5,271.4 662.9,270.1 663.5,268.9 664.0,271.3 664.6,270.3 664.9,270.0 665.3,273.6 666.0,271.7 666.3,275.6 666.8,274.0 667.2,273.7 667.6,275.8 668.1,274.3 668.6,272.2 669.0,270.5 669.5,271.8 670.0,273.2 670.7,273.5 671.1,276.5 671.5,276.5 672.0,276.8 672.5,277.6 673.0,278.6 673.4,275.4 673.7,280.6 674.0,279.1 674.4,280.7 674.6,281.6 674.8,280.2 674.9,285.5 675.1,285.4 675.3,286.0 675.5,285.4 675.7,288.7 675.8,287.4 676.0,282.2 676.3,284.6 676.5,284.3 676.8,283.0 677.1,282.2 677.3,280.5 677.7,279.8 678.0,282.7 678.5,280.8 678.8,282.3 679.3,282.3 679.8,286.6 680.2,283.6 680.7,281.9 681.1,282.8 681.5,285.9 682.0,286.4 682.5,283.9 683.2,286.5 683.8,286.9 684.4,287.3 685.0,285.5 685.6,285.1 686.2,285.9 686.8,284.1 687.3,281.4 687.7,280.7 688.0,280.6 688.6,280.8 689.1,281.0 689.5,277.9 690.0,278.5 690.4,277.3 690.9,277.5 691.4,277.9 691.8,279.1 692.4,279.1 692.9,278.9 693.3,277.8 693.7,280.9 694.4,280.0 695.0,280.7 695.5,283.3 695.9,282.3 696.5,283.4 696.9,282.1 697.4,281.3 697.9,281.4 698.4,279.5 698.9,279.4 699.4,280.2 699.9,281.3 700.5,280.4 700.9,281.5 701.4,283.4 701.8,285.2 702.1,286.2 702.2,292.0 702.3,294.0 702.4,292.5 702.5,296.0 702.6,293.2 702.8,292.0 703.1,294.0 703.3,288.7 703.6,287.8 703.8,284.8 704.0,280.6 704.2,281.9 704.5,283.2 704.7,276.0 704.8,274.7 705.1,278.7 705.3,280.7 705.5,271.6 705.6,270.3 705.8,267.0 705.9,269.8 706.2,274.0 706.4,270.6 706.7,272.5 707.1,272.5 707.4,277.4 707.7,282.3 707.9,282.9 708.2,282.5 708.6,282.7 709.1,284.1 709.2,290.2 709.5,289.0 709.8,285.4 710.4,285.2 711.0,281.9 711.7,281.8 712.2,283.2 712.8,283.1 713.5,283.7 714.3,284.1 715.0,285.7 715.8,284.8 716.7,283.1 717.3,283.4 717.9,282.8 718.7,283.7 719.3,284.5 719.8,284.7 720.4,284.4 721.2,284.3 721.7,286.5 722.5,285.7 723.2,283.5 723.7,283.2 724.4,284.2 725.0,284.7 725.6,283.0 726.1,282.5 726.7,281.8 727.2,284.1 727.8,283.6 728.3,284.2 729.0,283.9 729.3,286.5 729.8,286.4 730.4,285.6 731.1,288.6 731.6,289.3 731.9,290.8 732.4,288.3 733.0,286.5 733.9,286.1 735.0,286.1 735.7,285.5 736.4,284.9 737.0,285.5 737.7,285.7 738.5,284.7 739.1,283.6 739.6,283.4 740.1,284.4 740.8,285.0 741.4,286.0 742.0,285.8 742.6,288.3 743.3,287.4 744.3,287.5 744.8,291.0 745.4,289.7 746.1,289.6 746.9,290.2 747.7,290.0 748.3,290.8 749.1,292.9 749.7,292.2 750.4,291.7 750.8,294.5 751.4,293.2 751.9,290.1 752.4,290.9 752.9,288.9 753.3,289.3 753.9,289.3 754.5,290.4 755.0,291.6 755.6,290.6 756.2,291.9 756.9,291.8 757.3,295.6 757.5,296.8 757.8,297.8 758.1,296.3 758.5,293.7 759.0,296.2 759.2,299.4 759.3,301.7 759.4,302.2 759.4,306.5 759.5,304.7 759.5,306.6 759.7,304.4 759.8,305.9 760.2,304.6 760.4,303.1 760.7,304.1 761.1,303.1 761.5,304.7 761.7,307.9 761.9,304.5 762.1,309.2 762.2,308.1 762.4,307.9 762.7,307.8 763.0,310.2 763.1,313.0 763.1,314.1 763.3,314.0 763.5,313.2 763.6,317.2 763.7,312.9 763.9,312.4 764.2,316.7 764.4,318.8 764.7,317.2 765.0,313.3 765.3,311.6 765.7,312.9 766.0,309.9 766.4,313.0 766.7,311.8 767.2,314.0 767.4,311.1 767.9,312.9 768.3,311.2 768.6,307.9 768.9,306.8 769.3,304.8 769.6,300.2 769.7,295.9 769.9,295.0 770.1,295.6 770.4,295.6 770.6,294.4 770.9,297.9 771.1,295.8 771.5,297.6 771.9,296.5 772.3,298.6 772.8,300.8 773.1,298.5 773.4,293.0 773.8,296.3 774.3,298.1 774.8,298.5 775.3,300.4 775.8,300.2 776.3,299.9 776.7,298.3 777.2,298.1 777.7,299.2 778.0,297.0 778.4,298.1 778.9,300.5 779.4,303.1 779.8,303.7 780.4,300.8 781.0,300.7 781.5,302.1 782.0,303.0 782.4,299.8 783.0,301.3 783.5,299.9 783.9,298.2 784.4,298.7 784.7,300.3 785.1,298.1 785.2,293.6 785.3,293.9 785.5,296.1 785.7,294.8 785.8,289.3 785.9,289.0 786.1,292.0 786.4,294.6 786.5,297.3 786.8,294.7 787.0,293.7 787.2,292.4 787.6,295.8 787.9,293.4 788.2,295.7 788.4,297.8 788.8,295.9 789.2,295.6 789.6,292.7 789.9,293.1 790.2,291.4 790.7,293.8 791.0,293.1 791.5,295.6 792.0,297.8 792.6,298.6 793.1,295.2 793.5,293.8 794.0,293.8 794.5,293.7 795.1,294.8 795.6,294.0 796.1,296.7 796.7,296.2 797.5,295.3 798.0,294.1 798.4,291.9 798.9,292.7 799.4,291.3 799.8,292.7 800.3,292.4 800.8,290.3 801.2,292.8 801.7,292.8 802.2,294.0 802.8,294.1 803.3,294.7 803.8,296.8 804.5,295.6 805.2,295.6 805.8,296.1 806.5,298.0 807.0,296.7 807.6,297.2 808.2,297.6 808.8,298.0 809.2,297.8 809.6,293.9 810.0,294.1 810.4,294.7 810.9,296.3 811.5,298.5 811.9,299.1 812.3,295.5 812.6,295.4 812.9,296.6 813.2,297.4 813.5,295.7 813.9,298.1 814.3,293.4 814.4,288.0 814.5,283.5 814.5,282.5 814.6,281.8 814.8,280.4 815.0,279.1 815.2,280.1 815.5,281.7 815.7,287.4 815.8,292.1 815.9,297.2 816.1,293.0 816.3,297.7 816.6,296.2 816.9,294.5 817.4,295.5 817.7,286.4 817.9,285.6 818.1,284.3 818.5,286.6 818.9,284.3 819.2,281.3 819.4,276.7 819.5,278.6 819.8,280.7 820.1,277.4 820.3,275.9 820.7,278.5 821.1,279.8 821.5,276.4 821.9,275.6 822.2,273.6 822.7,274.9 823.2,273.7 823.6,274.7 824.0,275.2 824.4,278.4 824.8,276.7 825.2,280.2 825.7,280.7 826.1,283.0 826.6,282.3 827.1,281.8 827.6,284.6 828.1,283.3 828.5,285.3 828.9,285.9 829.3,283.0 829.8,284.2 830.2,281.1 830.5,279.0 830.9,280.2 831.3,281.0 831.7,276.9 832.1,277.4 832.6,279.1 833.0,277.4 833.4,278.9 834.0,277.7 834.4,277.4 834.6,270.4 834.8,271.6 835.1,270.6 835.3,268.9 835.6,273.0 835.9,272.2 836.3,273.5 836.7,274.1 837.1,272.8 837.4,270.1 837.6,273.2 838.1,273.6 838.5,274.1 838.9,274.4 839.3,274.4 839.7,276.8 840.0,278.4 840.3,278.3 840.5,278.2 840.7,278.7 841.0,281.7 841.1,283.7 841.3,284.4 841.6,282.9 842.0,283.2 842.4,283.9 842.7,283.2 843.1,283.7 843.5,283.8 843.8,284.4 844.1,278.3 844.3,283.0 844.8,283.3 845.4,283.3 845.5,280.9 845.9,280.9 846.1,282.1 846.5,278.1 846.8,278.6 847.2,278.6 847.7,281.1 847.9,279.2 848.4,281.1 849.0,279.2 849.5,279.8 850.1,280.0 850.8,282.1 851.3,282.3 851.8,284.7 852.3,283.8 852.8,287.7 853.0,288.0 853.4,289.9 853.8,288.0 854.1,295.4 854.1,292.6 854.4,295.9 854.6,295.9 854.9,292.5 855.2,296.1 855.7,295.3 856.0,298.2 856.3,299.2 856.7,297.0 857.2,297.7 857.6,296.3 858.2,298.2 858.6,298.0 859.1,297.5 859.7,296.5 860.3,296.7 860.7,298.9 861.0,298.0 861.6,298.0 862.1,297.8 862.7,299.8 863.2,301.2 863.4,302.4 863.9,302.2 864.2,303.0 864.7,302.0 865.2,302.2 865.7,305.3 866.1,303.5 866.6,302.3 867.1,302.6 867.5,303.7 867.9,305.9 868.0,308.0 868.1,309.8 868.3,311.8 868.4,314.7 868.4,316.1 868.5,318.9 868.5,319.9 868.6,320.7 868.6,323.2 868.7,328.2 868.7,326.9 868.7,328.1 868.8,327.6 868.8,325.8 868.9,324.2 869.0,324.9 869.1,326.5 869.2,330.9 869.3,331.4 869.4,328.3 869.5,327.9 869.6,330.6 869.8,331.0 869.9,326.3 870.0,329.4 870.2,329.5 870.4,326.8 870.6,324.3 870.8,319.7 870.9,318.0 871.1,315.2 871.3,320.9 871.6,323.9 871.8,324.8 872.0,325.2 872.2,330.3 872.4,330.2 872.5,334.3 872.6,329.6 872.8,331.7 872.9,335.3 873.0,335.6 873.3,335.3 873.5,336.3 873.7,329.2 874.0,330.4 874.3,329.8 874.7,329.4 875.0,329.6 875.4,325.2 875.6,325.8 876.0,326.7 876.4,324.9 876.8,324.6 877.1,323.5 877.6,323.1 878.0,324.8 878.4,322.9 878.8,321.1 879.1,322.1 879.5,322.8 879.9,323.4 880.3,323.4 880.6,324.8 880.7,327.4 880.7,332.4 880.7,339.6 880.8,345.7 880.8,344.1 880.8,337.3 880.8,337.4 880.9,338.8 880.9,336.4 881.0,332.8 881.2,334.5 881.3,335.5 881.5,338.4 881.6,340.7 881.7,342.1 881.8,339.2 881.9,334.7 882.1,337.9 882.3,336.6 882.5,334.6 882.9,336.5 883.2,338.6 883.5,336.7 883.8,334.4 884.0,332.2 884.3,333.6 884.8,335.4 885.3,334.1 885.8,337.0 886.1,340.1 886.3,344.1 886.5,344.8 886.6,346.3 886.8,345.8 887.0,340.6 887.2,335.3 887.5,339.2 887.8,337.1 888.1,336.9 888.4,336.8 888.7,340.6 889.1,339.3 889.5,340.0 889.8,340.0 890.1,342.9 890.5,343.3 890.8,340.7 891.2,340.8 891.6,338.3 892.0,339.3 892.3,337.5 892.5,331.0 892.7,332.7 893.0,333.6 893.4,334.2 893.8,335.9 894.1,336.7 894.3,338.8 894.5,336.2 894.9,334.6 895.2,333.4 895.5,332.2 895.7,331.1 895.8,329.7 896.0,331.7 896.2,326.3 896.4,328.4 896.5,335.6 896.7,334.6 896.8,327.6 897.0,329.7 897.2,329.0 897.5,326.6 897.7,330.9 897.8,325.9 898.0,323.3 898.2,327.9 898.5,330.8 898.7,327.1 898.9,324.5 899.2,326.2 899.5,327.1 899.8,330.5 899.9,337.7 900.0,341.9 900.0,333.4 900.2,332.4 900.3,325.3 900.4,323.3 900.5,325.7 900.6,317.5 900.7,319.4 900.8,319.9 901.0,316.0 901.2,318.4 901.5,318.0 901.8,318.1 901.9,323.3 902.2,326.7 902.3,326.2 902.5,330.9 902.6,327.5 902.9,329.6 903.2,328.4 903.5,326.9 903.9,327.9 904.3,327.5 904.8,328.8 905.2,328.2 905.7,330.2 906.2,329.2 906.7,331.4 907.2,331.0 907.7,329.8 908.3,332.3 908.8,332.4 909.2,333.8 909.7,331.7 910.3,331.6 910.9,333.2 911.5,332.5 912.0,335.7 912.5,336.2 913.1,336.0 913.7,337.2 913.9,340.8 914.2,340.5 914.8,341.0 915.1,344.4 915.2,347.9 915.6,345.1 915.9,348.6 916.1,347.9 916.3,351.9 916.3,352.5 916.4,356.1 916.5,356.7 916.7,352.0 917.0,350.5 917.3,352.2 917.5,349.3 917.9,350.5 918.3,350.4 918.8,348.8 919.2,352.3 919.7,350.0 920.2,351.3 920.5,353.0 920.9,352.5 921.2,353.1 921.6,355.4 921.9,356.3 922.0,356.6 922.3,356.6 922.6,357.2 922.7,358.6 922.8,359.9 922.9,362.6 922.9,366.7 923.0,367.6 923.0,375.5 923.0,382.0 923.0,378.8 923.0,376.7 923.1,379.1 923.1,375.8 923.1,375.7 923.2,376.0 923.2,379.3 923.3,378.6 923.3,379.4 923.4,378.3 923.4,377.7 923.6,374.8 923.7,376.2 923.8,370.7 923.9,373.1 924.0,372.4 924.2,376.2 924.3,375.1 924.5,374.8 924.7,376.2 924.9,377.2 925.0,380.9 925.1,380.2 925.2,373.9 925.2,374.3 925.4,376.2 925.5,378.4 925.7,383.5 925.7,383.0 925.8,385.3 925.9,386.0 926.0,385.4 926.1,388.3 926.1,393.0 926.2,395.3 926.2,400.3 926.2,404.4 926.2,410.8 926.2,404.1 926.2,416.5 926.2,410.0 926.2,410.3 926.2,403.8 926.2,398.5 926.2,403.7 926.3,399.9 926.3,399.9 926.4,403.6 926.4,403.5 926.5,402.5 926.5,400.7 926.6,405.6 926.6,401.9 926.7,403.6 926.8,402.2 926.9,404.8 927.1,402.9 927.2,401.0 927.4,400.6 927.5,404.0 927.6,403.7 927.8,405.1 927.8,410.0 927.9,412.7 927.9,413.1 927.9,426.3 927.9,424.2 927.9,439.5 927.9,427.4 928.0,427.2 928.0,417.2 928.0,412.1 928.0,412.9 928.0,408.1 928.0,403.4 928.0,406.5 928.0,407.7 928.1,406.5 928.1,403.7 928.2,407.0 928.3,405.2 928.3,404.9 928.4,406.2 928.5,402.3 928.5,402.5 928.6,400.4 928.7,402.0 928.9,403.6 929.0,404.8 929.1,405.1 929.3,403.6 929.5,405.2 929.7,406.6 929.9,404.0 930.0,409.5 930.2,406.1 930.5,404.1 930.6,405.4 930.9,405.6 931.1,405.4 931.2,403.4 931.4,399.6 931.7,399.7 931.9,401.9 932.1,403.8 932.4,403.0 932.8,400.9 933.1,399.1 933.3,396.1 933.3,389.5 933.5,392.3 933.7,394.5 934.0,391.2" fill="none" stroke="#d97706" stroke-width="1.2" stroke-linejoin="round" opacity="0.6"/><text x="942" y="472.0" text-anchor="start" font-size="11" fill="#d97706">0.09</text><text x="942" y="396.0" text-anchor="start" font-size="11" fill="#d97706">0.10</text><text x="942" y="320.0" text-anchor="start" font-size="11" fill="#d97706">0.12</text><text x="942" y="244.0" text-anchor="start" font-size="11" fill="#d97706">0.13</text><text x="942" y="168.0" text-anchor="start" font-size="11" fill="#d97706">0.15</text><text x="942" y="92.0" text-anchor="start" font-size="11" fill="#d97706">0.16</text><text x="942" y="80.0" text-anchor="start" font-size="11" font-weight="600" fill="#d97706">price</text>
  <polygon points="116.9,468.0 116.9,122.7 116.9,121.3 119.1,121.7 122.5,122.2 165.8,119.7 574.8,117.8 880.7,116.1 922.9,116.5 922.9,468.0" fill="#16a34a" fill-opacity="0.08"/>
  <polyline points="116.9,122.7 116.9,121.3 119.1,121.7 122.5,122.2 165.8,119.7 574.8,117.8 880.7,116.1 922.9,116.5" fill="none" stroke="#16a34a" stroke-width="2" stroke-linejoin="round"/>
  <line x1="88" y1="102" x2="110" y2="102" stroke="#16a34a" stroke-width="2.5"/><text x="116" y="106" font-size="11.5" fill="#374151">equity</text><line x1="88" y1="118" x2="110" y2="118" stroke="#d97706" stroke-width="2.5" opacity="0.8"/><text x="116" y="122" font-size="11.5" fill="#374151">price</text>
  <text x="78" y="502" text-anchor="start" font-size="12" fill="#6b7280">2026-01-01</text><text x="934" y="502" text-anchor="end" font-size="12" fill="#6b7280">2026-01-31</text>
</svg>
