<?xml version="1.0" encoding="UTF-8"?>
<svg xmlns="http://www.w3.org/2000/svg" width="1100" height="560" viewBox="0 0 1100 560" font-family="ui-sans-serif, system-ui, sans-serif">
  <rect width="1100" height="560" fill="#ffffff"/>
  <text x="80" y="28" font-size="18" font-weight="700" fill="#111827">Zone Recovery — LINKUSDC fee-tier comparison (best setting)</text>
  <text x="80" y="48" font-size="12.5" fill="#6b7280">lev 25 · ratio 2 · gap 20% · maxSteps 4 · maxDD 60% · random  ·  equity per fee tier vip 0..9</text>
  <text x="80" y="68" font-size="12.5" font-weight="600" fill="#1d4ed8">USDC margin · BNB −10%</text>
  <line x1="80" y1="508.0" x2="932" y2="508.0" stroke="#e5e7eb" stroke-width="1"/><text x="70" y="512.0" text-anchor="end" font-size="12" fill="#6b7280">0.00</text><line x1="80" y1="424.0" x2="932" y2="424.0" stroke="#e5e7eb" stroke-width="1"/><text x="70" y="428.0" text-anchor="end" font-size="12" fill="#6b7280">10115</text><line x1="80" y1="340.0" x2="932" y2="340.0" stroke="#e5e7eb" stroke-width="1"/><text x="70" y="344.0" text-anchor="end" font-size="12" fill="#6b7280">20230</text><line x1="80" y1="256.0" x2="932" y2="256.0" stroke="#e5e7eb" stroke-width="1"/><text x="70" y="260.0" text-anchor="end" font-size="12" fill="#6b7280">30345</text><line x1="80" y1="172.0" x2="932" y2="172.0" stroke="#e5e7eb" stroke-width="1"/><text x="70" y="176.0" text-anchor="end" font-size="12" fill="#6b7280">40460</text><line x1="80" y1="88.0" x2="932" y2="88.0" stroke="#e5e7eb" stroke-width="1"/><text x="70" y="92.0" text-anchor="end" font-size="12" fill="#6b7280">50574</text>
  <line x1="80" y1="425.0" x2="932" y2="425.0" stroke="#9ca3af" stroke-width="1.5" stroke-dasharray="6 4"/>
  <polyline points="80.0,425.0 80.0,415.5 88.5,406.0 93.4,411.3 94.0,397.4 101.1,402.7 106.5,410.7 106.9,422.6 108.8,391.2 115.6,381.7 117.1,387.1 125.8,372.9 137.6,378.2 152.9,364.3 160.5,369.6 161.2,377.6 164.8,389.5 167.6,407.5 174.4,412.8 175.9,398.8 176.2,404.2 176.5,412.2 179.2,391.2 191.2,396.5 191.4,404.5 191.5,416.5 196.1,385.0 198.1,375.5 202.0,380.9 202.9,366.7 202.9,372.1 203.0,380.2 203.7,358.9 204.3,364.3 209.9,372.4 210.8,384.6 216.2,402.8 218.7,408.2 221.0,416.1 221.7,395.2 222.5,400.5 222.9,408.5 223.2,387.5 223.2,392.8 226.9,378.8 227.0,384.1 231.4,392.1 234.1,404.1 234.5,422.1 241.4,427.5 247.2,413.3 248.1,418.7 250.6,426.8 251.5,438.9 257.6,457.2 262.7,461.3 264.3,467.4 265.3,476.6 266.5,452.4 268.0,444.6 268.7,449.7 275.5,436.2 276.5,426.8 288.2,432.1 288.3,440.1 303.8,419.1 304.3,424.4 304.5,410.4 305.0,415.8 305.2,423.9 306.7,436.1 362.0,454.3 365.8,458.7 373.2,465.1 380.7,474.8 387.6,449.3 388.1,454.0 396.3,461.1 400.1,471.7 414.6,443.8 417.5,434.8 418.3,440.1 419.4,448.1 420.8,460.0 424.7,428.6 424.8,419.1 440.9,409.8 444.1,400.3 444.4,405.7 444.5,413.6 444.7,425.6 448.7,443.6 449.6,434.5 450.9,439.9 456.8,425.7 459.0,431.1 466.3,439.2 471.5,417.9 472.1,423.3 473.3,409.1 473.5,414.5 473.7,422.6 476.3,434.7 483.8,453.0 485.5,457.4 493.1,464.1 495.3,474.0 501.3,447.8 507.8,439.3 528.3,444.6 536.4,452.6 560.9,464.6 566.3,482.6 566.7,484.6 567.1,479.2 567.4,475.2 567.4,477.8 567.4,470.9 567.4,473.9 567.5,466.0 567.5,460.1 567.5,463.9 567.5,453.8 567.5,458.2 567.5,446.7 567.5,451.6 590.0,459.0 593.4,470.1 602.9,440.9 605.1,446.3 613.3,432.1 616.1,437.5 620.1,445.6 620.5,457.8 621.9,425.8 624.4,416.3 630.3,406.8 631.8,412.2 637.8,398.0 640.3,388.6 641.5,379.1 641.6,384.5 643.0,370.3 643.1,375.7 643.8,361.4 643.9,366.8 644.2,374.8 644.4,386.7 646.4,355.3 646.4,360.6 646.7,346.6 647.0,352.0 647.2,359.9 648.5,371.9 650.3,389.9 668.8,380.6 696.8,371.2 699.3,361.8 702.7,367.2 746.2,352.9 754.8,358.3 755.1,344.1 756.0,349.4 756.4,357.4 758.6,336.4 758.8,341.8 759.1,349.9 759.3,362.1 761.0,380.4 762.2,385.8 764.2,393.9 765.4,372.6 765.7,377.9 767.6,385.9 769.3,397.8 781.3,366.4 781.9,371.7 782.3,379.7 811.1,391.7 812.3,409.6 816.0,415.0 820.9,423.0 837.1,402.0 844.3,407.3 844.7,415.3 847.2,427.3 848.6,445.2 851.4,436.4 861.4,441.8 865.8,427.5 866.0,418.2 866.2,408.9 866.8,414.3 867.0,422.4 868.4,401.1 868.9,406.5 870.1,392.3 870.3,397.6 870.5,405.6 871.3,417.6 876.6,386.1 878.4,376.8 878.5,367.4 878.5,358.1 878.5,363.4 878.8,349.5 879.3,354.9 879.6,363.0 884.1,375.1 884.9,393.4 885.3,398.8 890.5,406.9 890.7,419.1 892.3,387.1 893.7,377.6 894.0,383.0 894.1,391.1 894.6,403.3 894.8,421.5 898.0,412.2 898.4,417.5 898.5,403.5 900.3,408.9 913.4,394.7 914.7,385.4 920.5,390.8 921.5,376.6 921.5,382.0 921.7,367.7 922.2,358.3 924.3,348.9 924.7,339.6 924.7,345.0 924.7,330.8 924.7,336.2 924.7,344.3 924.7,356.5 924.7,324.5 924.7,315.0 924.7,305.7 924.7,296.3 924.7,301.7 924.7,287.7 924.8,293.1 924.8,301.2 924.8,313.4 924.8,331.6 924.8,336.9 925.2,344.9 925.2,356.9 925.4,374.9 926.4,380.3 926.5,366.0 926.5,371.4 926.5,357.2 926.5,362.5 926.6,348.6 926.6,339.1 926.6,344.4 926.6,352.4 926.7,364.4 927.1,332.9 928.3,338.3 928.5,346.5 928.5,358.6 929.1,376.9 930.2,367.4 931.1,372.8 931.7,380.9 932.0,359.6" fill="none" stroke="#2563eb" stroke-width="1.8" stroke-linejoin="round" opacity="0.9"/>
  <polyline points="80.0,425.0 80.0,415.5 88.5,406.0 93.4,411.3 94.0,397.4 101.1,402.7 106.5,410.7 106.9,422.6 108.8,391.2 115.6,381.7 117.1,387.1 125.8,372.9 137.6,378.2 152.9,364.3 160.5,369.6 161.2,377.6 164.8,389.5 167.6,407.5 174.4,412.8 175.9,398.8 176.2,404.2 176.5,412.2 179.2,391.2 191.2,396.5 191.4,404.5 191.5,416.5 196.1,385.0 198.1,375.5 202.0,380.9 202.9,366.7 202.9,372.1 203.0,380.2 203.7,358.9 204.3,364.3 209.9,372.4 210.8,384.6 216.2,402.8 218.7,408.2 221.0,416.1 221.7,395.2 222.5,400.5 222.9,408.5 223.2,387.5 223.2,392.8 226.9,378.8 227.0,384.1 231.4,392.1 234.1,404.1 234.5,422.1 241.4,427.5 247.2,413.3 248.1,418.7 250.6,426.8 251.5,438.9 257.6,457.2 262.7,461.3 264.3,467.4 265.3,476.6 266.5,452.4 268.0,444.6 268.7,449.7 275.5,436.2 276.5,426.8 288.2,432.1 288.3,440.1 303.8,419.1 304.3,424.4 304.5,410.4 305.0,415.8 305.2,423.9 306.7,436.1 362.0,454.3 365.8,458.7 373.2,465.1 380.7,474.8 387.6,449.3 388.1,454.0 396.3,461.1 400.1,471.7 414.6,443.8 417.5,434.8 418.3,440.1 419.4,448.1 420.8,460.0 424.7,428.6 424.8,419.1 440.9,409.8 444.1,400.3 444.4,405.7 444.5,413.6 444.7,425.6 448.7,443.6 449.6,434.5 450.9,439.9 456.8,425.7 459.0,431.1 466.3,439.2 471.5,417.9 472.1,423.3 473.3,409.1 473.5,414.5 473.7,422.6 476.3,434.7 483.8,453.0 485.5,457.4 493.1,464.1 495.3,474.0 501.3,447.8 507.8,439.3 528.3,444.6 536.4,452.6 560.9,464.6 566.3,482.6 566.7,484.6 567.1,479.2 567.4,475.2 567.4,477.8 567.4,470.9 567.4,473.9 567.5,466.0 567.5,460.1 567.5,463.9 567.5,453.8 567.5,458.2 567.5,446.7 567.5,451.6 590.0,459.0 593.4,470.1 602.9,440.9 605.1,446.3 613.3,432.1 616.1,437.5 620.1,445.6 620.5,457.8 621.9,425.8 624.4,416.3 630.3,406.8 631.8,412.2 637.8,398.0 640.3,388.6 641.5,379.1 641.6,384.5 643.0,370.3 643.1,375.7 643.8,361.4 643.9,366.8 644.2,374.8 644.4,386.7 646.4,355.3 646.4,360.6 646.7,346.6 647.0,352.0 647.2,359.9 648.5,371.9 650.3,389.9 668.8,380.6 696.8,371.2 699.3,361.8 702.7,367.2 746.2,352.9 754.8,358.3 755.1,344.1 756.0,349.4 756.4,357.4 758.6,336.4 758.8,341.8 759.1,349.9 759.3,362.1 761.0,380.4 762.2,385.8 764.2,393.9 765.4,372.6 765.7,377.9 767.6,385.9 769.3,397.8 781.3,366.4 781.9,371.7 782.3,379.7 811.1,391.7 812.3,409.6 816.0,415.0 820.9,423.0 837.1,402.0 844.3,407.3 844.7,415.3 847.2,427.3 848.6,445.2 851.4,436.4 861.4,441.8 865.8,427.5 866.0,418.2 866.2,408.9 866.8,414.3 867.0,422.4 868.4,401.1 868.9,406.5 870.1,392.3 870.3,397.6 870.5,405.6 871.3,417.6 876.6,386.1 878.4,376.8 878.5,367.4 878.5,358.1 878.5,363.4 878.8,349.5 879.3,354.9 879.6,363.0 884.1,375.1 884.9,393.4 885.3,398.8 890.5,406.9 890.7,419.1 892.3,387.1 893.7,377.6 894.0,383.0 894.1,391.1 894.6,403.3 894.8,421.5 898.0,412.2 898.4,417.5 898.5,403.5 900.3,408.9 913.4,394.7 914.7,385.4 920.5,390.8 921.5,376.6 921.5,382.0 921.7,367.7 922.2,358.3 924.3,348.9 924.7,339.6 924.7,345.0 924.7,330.8 924.7,336.2 924.7,344.3 924.7,356.5 924.7,324.5 924.7,315.0 924.7,305.7 924.7,296.3 924.7,301.7 924.7,287.7 924.8,293.1 924.8,301.2 924.8,313.4 924.8,331.6 924.8,336.9 925.2,344.9 925.2,356.9 925.4,374.9 926.4,380.3 926.5,366.0 926.5,371.4 926.5,357.2 926.5,362.5 926.6,348.6 926.6,339.1 926.6,344.4 926.6,352.4 926.7,364.4 927.1,332.9 928.3,338.3 928.5,346.5 928.5,358.6 929.1,376.9 930.2,367.4 931.1,372.8 931.7,380.9 932.0,359.6" fill="none" stroke="#dc2626" stroke-width="1.8" stroke-linejoin="round" opacity="0.9"/>
  <polyline points="80.0,425.0 80.0,415.4 88.5,405.8 93.4,411.1 94.0,397.0 101.1,402.2 106.5,410.0 106.9,421.8 108.8,390.1 115.6,380.5 117.1,385.8 125.8,371.5 137.6,376.7 152.9,362.6 160.5,367.8 161.2,375.7 164.8,387.5 167.6,405.1 174.4,410.4 175.9,396.3 176.2,401.5 176.5,409.3 179.2,388.2 191.2,393.4 191.4,401.2 191.5,413.0 196.1,381.3 198.1,371.7 202.0,377.0 202.9,362.7 202.9,368.0 203.0,376.0 203.7,354.5 204.3,359.8 209.9,367.7 210.8,379.7 216.2,397.7 218.7,402.9 221.0,410.7 221.7,389.6 222.5,394.8 222.9,402.6 223.2,381.5 223.2,386.7 226.9,372.6 227.0,377.8 231.4,385.7 234.1,397.4 234.5,415.1 241.4,420.4 247.2,406.1 248.1,411.4 250.6,419.4 251.5,431.3 257.6,449.3 262.7,453.9 264.3,460.9 265.3,471.4 266.5,443.1 268.0,433.9 268.7,439.2 275.5,424.8 276.5,415.3 288.2,420.5 288.3,428.4 303.8,407.2 304.3,412.4 304.5,398.3 305.0,403.6 305.2,411.6 306.7,423.6 362.0,441.5 365.8,446.8 373.2,454.7 380.7,466.5 387.6,434.5 388.1,439.8 396.3,447.6 400.1,459.4 414.6,427.6 417.5,418.1 418.3,423.3 419.4,431.2 420.8,443.0 424.7,411.2 424.8,401.6 440.9,392.2 444.1,382.7 444.4,387.9 444.5,395.8 444.7,407.5 448.7,425.2 449.6,415.6 450.9,421.0 456.8,406.6 459.0,411.9 466.3,419.9 471.5,398.4 472.1,403.7 473.3,389.3 473.5,394.7 473.7,402.6 476.3,414.6 483.8,432.5 485.5,437.9 493.1,445.8 495.3,457.8 501.3,425.5 507.8,415.9 528.3,421.2 536.4,429.0 560.9,440.8 566.3,458.5 566.7,462.4 567.1,451.8 567.4,443.8 567.4,448.9 567.4,435.2 567.4,440.5 567.5,426.1 567.5,416.7 567.5,421.9 567.5,407.8 567.5,413.1 567.5,398.9 567.5,404.3 590.0,412.2 593.4,424.2 602.9,391.9 605.1,397.2 613.3,382.9 616.1,388.2 620.1,396.2 620.5,408.1 621.9,375.8 624.4,366.3 630.3,356.7 631.8,362.0 637.8,347.7 640.3,338.1 641.5,328.5 641.6,333.8 643.0,319.5 643.1,324.8 643.8,310.5 643.9,315.7 644.2,323.5 644.4,335.3 646.4,303.6 646.4,308.8 646.7,294.7 647.0,299.9 647.2,307.8 648.5,319.6 650.3,337.2 668.8,327.8 696.8,318.4 699.3,308.8 702.7,314.2 746.2,299.8 754.8,305.1 755.1,290.8 756.0,296.0 756.4,303.8 758.6,282.7 758.8,288.0 759.1,296.0 759.3,307.9 761.0,325.9 762.2,331.2 764.2,339.2 765.4,317.6 765.7,322.9 767.6,330.7 769.3,342.5 781.3,310.8 781.9,316.0 782.3,323.8 811.1,335.6 812.3,353.3 816.0,358.5 820.9,366.4 837.1,345.2 844.3,350.4 844.7,358.3 847.2,370.1 848.6,387.7 851.4,378.3 861.4,383.6 865.8,369.3 866.0,359.9 866.2,350.4 866.8,355.8 867.0,363.7 868.4,342.2 868.9,347.5 870.1,333.2 870.3,338.4 870.5,346.3 871.3,358.0 876.6,326.3 878.4,316.9 878.5,307.5 878.5,298.1 878.5,303.3 878.8,289.2 879.3,294.5 879.6,302.5 884.1,314.4 884.9,332.4 885.3,337.7 890.5,345.7 890.7,357.6 892.3,325.3 893.7,315.8 894.0,321.1 894.1,329.1 894.6,341.0 894.8,359.0 898.0,349.5 898.4,354.8 898.5,340.7 900.3,346.0 913.4,331.6 914.7,322.2 920.5,327.5 921.5,313.2 921.5,318.5 921.7,304.1 922.2,294.6 924.3,285.2 924.7,275.7 924.7,281.1 924.7,266.7 924.7,272.0 924.7,280.0 924.7,292.0 924.7,259.7 924.7,250.1 924.7,240.7 924.7,231.3 924.7,236.5 924.7,222.4 924.8,227.7 924.8,235.7 924.8,247.6 924.8,265.6 924.8,270.8 925.2,278.7 925.2,290.5 925.4,308.1 926.4,313.4 926.5,299.1 926.5,304.4 926.5,290.0 926.5,295.3 926.6,281.2 926.6,271.6 926.6,276.8 926.6,284.7 926.7,296.5 927.1,264.7 928.3,270.0 928.5,278.0 928.5,290.0 929.1,307.9 930.2,298.4 931.1,303.7 931.7,311.7 932.0,290.1" fill="none" stroke="#16a34a" stroke-width="1.8" stroke-linejoin="round" opacity="0.9"/>
  <polyline points="80.0,425.0 80.0,415.3 88.5,405.7 93.4,410.9 94.0,396.6 101.1,401.8 106.5,409.5 106.9,421.2 108.8,389.2 115.6,379.5 117.1,384.8 125.8,370.3 137.6,375.5 152.9,361.3 160.5,366.4 161.2,374.2 164.8,385.8 167.6,403.2 174.4,408.4 175.9,394.2 176.2,399.3 176.5,407.1 179.2,385.7 191.2,390.9 191.4,398.7 191.5,410.3 196.1,378.3 198.1,368.7 202.0,373.9 202.9,359.4 202.9,364.7 203.0,372.6 203.7,350.9 204.3,356.1 209.9,364.0 210.8,375.8 216.2,393.5 218.7,398.7 221.0,406.4 221.7,385.1 222.5,390.2 222.9,398.0 223.2,376.6 223.2,381.8 226.9,367.6 227.0,372.7 231.4,380.5 234.1,392.1 234.5,409.5 241.4,414.8 247.2,400.3 248.1,405.6 250.6,413.4 251.5,425.2 257.6,442.9 262.7,448.0 264.3,455.6 265.3,467.1 266.5,435.6 268.0,425.9 268.7,431.2 275.5,416.7 276.5,407.1 288.2,412.3 288.3,420.0 303.8,398.7 304.3,403.8 304.5,389.6 305.0,394.8 305.2,402.7 306.7,414.5 362.0,432.2 365.8,437.5 373.2,445.3 380.7,457.1 387.6,424.6 388.1,429.8 396.3,437.5 400.1,449.1 414.6,417.1 417.5,407.5 418.3,412.7 419.4,420.4 420.8,432.0 424.7,400.0 424.8,390.4 440.9,380.9 444.1,371.3 444.4,376.5 444.5,384.2 444.7,395.8 448.7,413.3 449.6,403.6 450.9,408.9 456.8,394.4 459.0,399.7 466.3,407.5 471.5,385.8 472.1,391.1 473.3,376.6 473.5,381.9 473.7,389.7 476.3,401.5 483.8,419.3 485.5,424.5 493.1,432.4 495.3,444.2 501.3,411.6 507.8,402.0 528.3,407.2 536.4,414.9 560.9,426.5 566.3,444.0 566.7,449.0 567.1,435.2 567.4,425.7 567.4,430.9 567.4,416.5 567.4,421.7 567.5,407.3 567.5,397.8 567.5,402.9 567.5,388.7 567.5,393.9 567.5,379.7 567.5,384.9 590.0,392.8 593.4,404.6 602.9,372.0 605.1,377.3 613.3,362.8 616.1,368.1 620.1,375.9 620.5,387.7 621.9,355.2 624.4,345.6 630.3,335.9 631.8,341.2 637.8,326.7 640.3,317.1 641.5,307.5 641.6,312.7 643.0,298.2 643.1,303.5 643.8,289.0 643.9,294.2 644.2,301.9 644.4,313.6 646.4,281.6 646.4,286.7 646.7,272.5 647.0,277.7 647.2,285.4 648.5,297.0 650.3,314.5 668.8,305.0 696.8,295.5 699.3,285.9 702.7,291.1 746.2,276.7 754.8,281.9 755.1,267.4 756.0,272.6 756.4,280.4 758.6,259.0 758.8,264.3 759.1,272.1 759.3,283.9 761.0,301.6 762.2,306.9 764.2,314.7 765.4,293.1 765.7,298.2 767.6,306.0 769.3,317.6 781.3,285.6 781.9,290.8 782.3,298.5 811.1,310.1 812.3,327.6 816.0,332.7 820.9,340.5 837.1,319.1 844.3,324.3 844.7,332.0 847.2,343.7 848.6,361.1 851.4,351.6 861.4,356.9 865.8,342.4 866.0,332.9 866.2,323.4 866.8,328.7 867.0,336.5 868.4,314.9 868.9,320.1 870.1,305.6 870.3,310.8 870.5,318.6 871.3,330.2 876.6,298.2 878.4,288.7 878.5,279.2 878.5,269.7 878.5,274.9 878.8,260.7 879.3,265.9 879.6,273.8 884.1,285.6 884.9,303.3 885.3,308.5 890.5,316.4 890.7,328.2 892.3,295.7 893.7,286.0 894.0,291.3 894.1,299.2 894.6,311.0 894.8,328.7 898.0,319.2 898.4,324.3 898.5,310.1 900.3,315.4 913.4,300.9 914.7,291.4 920.5,296.7 921.5,282.2 921.5,287.5 921.7,273.0 922.2,263.4 924.3,253.9 924.7,244.4 924.7,249.6 924.7,235.2 924.7,240.4 924.7,248.3 924.7,260.1 924.7,227.6 924.7,217.9 924.7,208.4 924.7,199.0 924.7,204.1 924.7,189.9 924.8,195.1 924.8,203.0 924.8,214.8 924.8,232.5 924.8,237.7 925.2,245.4 925.2,257.0 925.4,274.5 926.4,279.7 926.5,265.3 926.5,270.5 926.5,256.0 926.5,261.2 926.6,247.0 926.6,237.4 926.6,242.5 926.6,250.3 926.7,261.9 927.1,229.9 928.3,235.1 928.5,243.0 928.5,254.8 929.1,272.5 930.2,262.9 931.1,268.1 931.7,276.0 932.0,254.3" fill="none" stroke="#d97706" stroke-width="1.8" stroke-linejoin="round" opacity="0.9"/>
  <polyline points="80.0,425.0 80.0,415.2 88.5,405.5 93.4,410.5 94.0,396.2 101.1,401.2 106.5,408.8 106.9,420.2 108.8,387.9 115.6,378.2 117.1,383.3 125.8,368.7 137.6,373.8 152.9,359.4 160.5,364.5 161.2,372.0 164.8,383.4 167.6,400.5 174.4,405.6 175.9,391.2 176.2,396.3 176.5,403.9 179.2,382.3 191.2,387.4 191.4,395.0 191.5,406.4 196.1,374.0 198.1,364.3 202.0,369.5 202.9,354.8 202.9,360.0 203.0,367.7 203.7,345.8 204.3,350.9 209.9,358.7 210.8,370.2 216.2,387.6 218.7,392.7 221.0,400.3 221.7,378.7 222.5,383.8 222.9,391.4 223.2,369.8 223.2,374.8 226.9,360.5 227.0,365.5 231.4,373.1 234.1,384.5 234.5,401.6 241.4,406.8 247.2,392.2 248.1,397.3 250.6,405.0 251.5,416.6 257.6,434.0 262.7,439.1 264.3,446.8 265.3,458.4 266.5,425.5 268.0,415.8 268.7,420.9 275.5,406.3 276.5,396.6 288.2,401.6 288.3,409.2 303.8,387.7 304.3,392.7 304.5,378.4 305.0,383.5 305.2,391.2 306.7,402.8 362.0,420.2 365.8,425.3 373.2,433.0 380.7,444.6 387.6,411.7 388.1,416.8 396.3,424.4 400.1,435.8 414.6,403.4 417.5,393.7 418.3,398.8 419.4,406.4 420.8,417.8 424.7,385.4 424.8,375.7 440.9,366.1 444.1,356.4 444.4,361.4 444.5,369.0 444.7,380.4 448.7,397.5 449.6,387.8 450.9,392.9 456.8,378.3 459.0,383.5 466.3,391.2 471.5,369.3 472.1,374.4 473.3,359.8 473.5,365.0 473.7,372.7 476.3,384.2 483.8,401.6 485.5,406.8 493.1,414.5 495.3,426.0 501.3,393.2 507.8,383.4 528.3,388.5 536.4,396.1 560.9,407.5 566.3,424.6 566.7,429.7 567.1,415.1 567.4,405.5 567.4,410.7 567.4,396.1 567.4,401.2 567.5,386.6 567.5,377.0 567.5,382.1 567.5,367.7 567.5,372.8 567.5,358.4 567.5,363.5 590.0,371.3 593.4,382.8 602.9,350.0 605.1,355.1 613.3,340.5 616.1,345.6 620.1,353.4 620.5,364.9 621.9,332.1 624.4,322.3 630.3,312.6 631.8,317.7 637.8,303.1 640.3,293.4 641.5,283.6 641.6,288.8 643.0,274.2 643.1,279.3 643.8,264.7 643.9,269.8 644.2,277.4 644.4,288.8 646.4,256.4 646.4,261.5 646.7,247.1 647.0,252.2 647.2,259.8 648.5,271.2 650.3,288.3 668.8,278.7 696.8,269.1 699.3,259.4 702.7,264.5 746.2,249.9 754.8,255.0 755.1,240.4 756.0,245.5 756.4,253.1 758.6,231.5 758.8,236.7 759.1,244.4 759.3,256.0 761.0,273.3 762.2,278.5 764.2,286.2 765.4,264.3 765.7,269.3 767.6,276.9 769.3,288.3 781.3,256.0 781.9,261.1 782.3,268.7 811.1,280.1 812.3,297.1 816.0,302.2 820.9,309.8 837.1,288.2 844.3,293.3 844.7,300.9 847.2,312.3 848.6,329.4 851.4,319.8 861.4,324.9 865.8,310.3 866.0,300.8 866.2,291.2 866.8,296.3 867.0,304.0 868.4,282.1 868.9,287.3 870.1,272.7 870.3,277.7 870.5,285.3 871.3,296.7 876.6,264.4 878.4,254.8 878.5,245.2 878.5,235.6 878.5,240.7 878.8,226.3 879.3,231.5 879.6,239.2 884.1,250.8 884.9,268.1 885.3,273.3 890.5,281.0 890.7,292.5 892.3,259.7 893.7,249.9 894.0,255.1 894.1,262.8 894.6,274.4 894.8,291.7 898.0,282.2 898.4,287.2 898.5,272.8 900.3,278.0 913.4,263.4 914.7,253.8 920.5,258.9 921.5,244.3 921.5,249.5 921.7,234.9 922.2,225.1 924.3,215.5 924.7,206.0 924.7,211.1 924.7,196.5 924.7,201.6 924.7,209.4 924.7,220.9 924.7,188.1 924.7,178.3 924.7,168.7 924.7,159.1 924.7,164.2 924.7,149.8 924.8,155.0 924.8,162.7 924.8,174.3 924.8,191.6 924.8,196.7 925.2,204.3 925.2,215.7 925.4,232.8 926.4,237.9 926.5,223.3 926.5,228.5 926.5,213.9 926.5,218.9 926.6,204.5 926.6,194.8 926.6,199.9 926.6,207.5 926.7,218.9 927.1,186.5 928.3,191.7 928.5,199.4 928.5,211.0 929.1,228.3 930.2,218.6 931.1,223.7 931.7,231.5 932.0,209.5" fill="none" stroke="#7c3aed" stroke-width="1.8" stroke-linejoin="round" opacity="0.9"/>
  <polyline points="80.0,425.0 80.0,415.2 88.5,405.4 93.4,410.5 94.0,396.1 101.1,401.1 106.5,408.7 106.9,420.1 108.8,387.7 115.6,377.9 117.1,383.0 125.8,368.4 137.6,373.5 152.9,359.1 160.5,364.1 161.2,371.7 164.8,383.0 167.6,400.1 174.4,405.1 175.9,390.7 176.2,395.8 176.5,403.3 179.2,381.7 191.2,386.8 191.4,394.3 191.5,405.7 196.1,373.3 198.1,363.5 202.0,368.7 202.9,354.0 202.9,359.2 203.0,366.9 203.7,344.9 204.3,350.0 209.9,357.7 210.8,369.3 216.2,386.6 218.7,391.6 221.0,399.2 221.7,377.6 222.5,382.6 222.9,390.2 223.2,368.6 223.2,373.6 226.9,359.2 227.0,364.3 231.4,371.8 234.1,383.2 234.5,400.2 241.4,405.4 247.2,390.7 248.1,395.8 250.6,403.5 251.5,415.1 257.6,432.4 262.7,437.5 264.3,445.2 265.3,456.7 266.5,423.8 268.0,414.0 268.7,419.2 275.5,404.5 276.5,394.8 288.2,399.8 288.3,407.4 303.8,385.8 304.3,390.8 304.5,376.4 305.0,381.6 305.2,389.3 306.7,400.8 362.0,418.1 365.8,423.2 373.2,430.9 380.7,442.4 387.6,409.5 388.1,414.6 396.3,422.1 400.1,433.5 414.6,401.1 417.5,391.3 418.3,396.4 419.4,403.9 420.8,415.3 424.7,382.9 424.8,373.2 440.9,363.5 444.1,353.8 444.4,358.8 444.5,366.4 444.7,377.8 448.7,394.8 449.6,385.0 450.9,390.2 456.8,375.5 459.0,380.7 466.3,388.4 471.5,366.4 472.1,371.5 473.3,356.9 473.5,362.0 473.7,369.7 476.3,381.2 483.8,398.5 485.5,403.7 493.1,411.4 495.3,422.9 501.3,390.0 507.8,380.2 528.3,385.3 536.4,392.8 560.9,404.2 566.3,421.2 566.7,426.3 567.1,411.7 567.4,402.1 567.4,407.2 567.4,392.6 567.4,397.7 567.5,383.1 567.5,373.5 567.5,378.5 567.5,364.1 567.5,369.2 567.5,354.8 567.5,359.9 590.0,367.6 593.4,379.1 602.9,346.2 605.1,351.3 613.3,336.7 616.1,341.8 620.1,349.5 620.5,361.0 621.9,328.1 624.4,318.3 630.3,308.6 631.8,313.7 637.8,299.1 640.3,289.3 641.5,279.6 641.6,284.7 643.0,270.1 643.1,275.2 643.8,260.5 643.9,265.6 644.2,273.2 644.4,284.5 646.4,252.1 646.4,257.2 646.7,242.8 647.0,247.8 647.2,255.4 648.5,266.7 650.3,283.8 668.8,274.2 696.8,264.6 699.3,254.8 702.7,259.9 746.2,245.3 754.8,250.4 755.1,235.8 756.0,240.8 756.4,248.4 758.6,226.8 758.8,231.9 759.1,239.6 759.3,251.2 761.0,268.5 762.2,273.6 764.2,281.3 765.4,259.3 765.7,264.4 767.6,272.0 769.3,283.3 781.3,250.9 781.9,256.0 782.3,263.5 811.1,274.9 812.3,291.9 816.0,297.0 820.9,304.5 837.1,282.9 844.3,288.0 844.7,295.5 847.2,306.9 848.6,323.9 851.4,314.3 861.4,319.5 865.8,304.8 866.0,295.2 866.2,285.6 866.8,290.7 867.0,298.4 868.4,276.5 868.9,281.6 870.1,267.0 870.3,272.0 870.5,279.6 871.3,290.9 876.6,258.5 878.4,248.9 878.5,239.3 878.5,229.7 878.5,234.8 878.8,220.4 879.3,225.5 879.6,233.2 884.1,244.7 884.9,262.0 885.3,267.2 890.5,274.9 890.7,286.4 892.3,253.5 893.7,243.7 894.0,248.8 894.1,256.5 894.6,268.1 894.8,285.4 898.0,275.8 898.4,280.8 898.5,266.4 900.3,271.5 913.4,256.9 914.7,247.3 920.5,252.4 921.5,237.8 921.5,242.9 921.7,228.3 922.2,218.5 924.3,208.9 924.7,199.3 924.7,204.4 924.7,189.8 924.7,194.9 924.7,202.6 924.7,214.2 924.7,181.2 924.7,171.5 924.7,161.9 924.7,152.3 924.7,157.3 924.7,142.9 924.8,148.0 924.8,155.7 924.8,167.3 924.8,184.6 924.8,189.6 925.2,197.2 925.2,208.5 925.4,225.6 926.4,230.7 926.5,216.1 926.5,221.2 926.5,206.5 926.5,211.6 926.6,197.2 926.6,187.4 926.6,192.5 926.6,200.1 926.7,211.4 927.1,179.0 928.3,184.1 928.5,191.8 928.5,203.4 929.1,220.7 930.2,210.9 931.1,216.0 931.7,223.7 932.0,201.8" fill="none" stroke="#0891b2" stroke-width="1.8" stroke-linejoin="round" opacity="0.9"/>
  <polyline points="80.0,425.0 80.0,415.2 88.5,405.4 93.4,410.5 94.0,396.0 101.1,401.1 106.5,408.6 106.9,420.0 108.8,387.5 115.6,377.8 117.1,382.9 125.8,368.2 137.6,373.2 152.9,358.8 160.5,363.9 161.2,371.4 164.8,382.7 167.6,399.7 174.4,404.8 175.9,390.4 176.2,395.4 176.5,402.9 179.2,381.3 191.2,386.3 191.4,393.9 191.5,405.2 196.1,372.8 198.1,363.0 202.0,368.1 202.9,353.5 202.9,358.6 203.0,366.3 203.7,344.3 204.3,349.4 209.9,357.1 210.8,368.6 216.2,385.8 218.7,390.9 221.0,398.4 221.7,376.8 222.5,381.8 222.9,389.4 223.2,367.8 223.2,372.8 226.9,358.4 227.0,363.4 231.4,371.0 234.1,382.3 234.5,399.3 241.4,404.4 247.2,389.7 248.1,394.8 250.6,402.5 251.5,414.0 257.6,431.3 262.7,436.4 264.3,444.1 265.3,455.6 266.5,422.6 268.0,412.8 268.7,418.0 275.5,403.3 276.5,393.5 288.2,398.6 288.3,406.1 303.8,384.5 304.3,389.5 304.5,375.1 305.0,380.2 305.2,387.9 306.7,399.4 362.0,416.7 365.8,421.8 373.2,429.4 380.7,441.0 387.6,408.0 388.1,413.0 396.3,420.6 400.1,431.9 414.6,399.5 417.5,389.7 418.3,394.7 419.4,402.3 420.8,413.6 424.7,381.2 424.8,371.4 440.9,361.8 444.1,352.0 444.4,357.1 444.5,364.6 444.7,375.9 448.7,392.9 449.6,383.2 450.9,388.3 456.8,373.6 459.0,378.7 466.3,386.4 471.5,364.4 472.1,369.5 473.3,354.9 473.5,360.0 473.7,367.7 476.3,379.2 483.8,396.4 485.5,401.6 493.1,409.2 495.3,420.7 501.3,387.8 507.8,378.0 528.3,383.0 536.4,390.6 560.9,401.9 566.3,418.9 566.7,424.0 567.1,409.4 567.4,399.7 567.4,404.9 567.4,390.2 567.4,395.3 567.5,380.7 567.5,371.0 567.5,376.1 567.5,361.7 567.5,366.7 567.5,352.3 567.5,357.4 590.0,365.1 593.4,376.6 602.9,343.6 605.1,348.7 613.3,334.1 616.1,339.2 620.1,346.8 620.5,358.4 621.9,325.4 624.4,315.6 630.3,305.8 631.8,311.0 637.8,296.3 640.3,286.5 641.5,276.8 641.6,281.9 643.0,267.2 643.1,272.3 643.8,257.7 643.9,262.7 644.2,270.3 644.4,281.6 646.4,249.2 646.4,254.2 646.7,239.8 647.0,244.8 647.2,252.4 648.5,263.7 650.3,280.7 668.8,271.1 696.8,261.5 699.3,251.7 702.7,256.8 746.2,242.2 754.8,247.3 755.1,232.6 756.0,237.7 756.4,245.2 758.6,223.6 758.8,228.7 759.1,236.4 759.3,247.9 761.0,265.1 762.2,270.2 764.2,277.9 765.4,255.9 765.7,261.0 767.6,268.5 769.3,279.8 781.3,247.4 781.9,252.4 782.3,260.0 811.1,271.3 812.3,288.3 816.0,293.4 820.9,300.9 837.1,279.3 844.3,284.3 844.7,291.9 847.2,303.2 848.6,320.2 851.4,310.6 861.4,315.7 865.8,301.0 866.0,291.4 866.2,281.8 866.8,286.9 867.0,294.6 868.4,272.6 868.9,277.7 870.1,263.1 870.3,268.1 870.5,275.7 871.3,287.0 876.6,254.5 878.4,244.9 878.5,235.3 878.5,225.7 878.5,230.7 878.8,216.3 879.3,221.4 879.6,229.1 884.1,240.6 884.9,257.9 885.3,263.0 890.5,270.7 890.7,282.2 892.3,249.2 893.7,239.4 894.0,244.5 894.1,252.2 894.6,263.7 894.8,281.0 898.0,271.4 898.4,276.4 898.5,262.0 900.3,267.1 913.4,252.4 914.7,242.8 920.5,247.9 921.5,233.3 921.5,238.4 921.7,223.7 922.2,214.0 924.3,204.4 924.7,194.8 924.7,199.9 924.7,185.2 924.7,190.3 924.7,198.0 924.7,209.5 924.7,176.5 924.7,166.8 924.7,157.1 924.7,147.5 924.7,152.6 924.7,138.2 924.8,143.3 924.8,150.9 924.8,162.4 924.8,179.7 924.8,184.7 925.2,192.3 925.2,203.6 925.4,220.6 926.4,225.7 926.5,211.1 926.5,216.2 926.5,201.5 926.5,206.6 926.6,192.1 926.6,182.4 926.6,187.4 926.6,195.0 926.7,206.3 927.1,173.9 928.3,179.0 928.5,186.6 928.5,198.2 929.1,215.4 930.2,205.6 931.1,210.8 931.7,218.4 932.0,196.5" fill="none" stroke="#db2777" stroke-width="1.8" stroke-linejoin="round" opacity="0.9"/>
  <polyline points="80.0,425.0 80.0,415.2 88.5,405.4 93.4,410.4 94.0,396.0 101.1,401.0 106.5,408.5 106.9,419.8 108.8,387.3 115.6,377.5 117.1,382.6 125.8,367.9 137.6,372.9 152.9,358.5 160.5,363.5 161.2,371.0 164.8,382.3 167.6,399.2 174.4,404.2 175.9,389.8 176.2,394.8 176.5,402.3 179.2,380.7 191.2,385.7 191.4,393.2 191.5,404.5 196.1,372.0 198.1,362.2 202.0,367.3 202.9,352.6 202.9,357.7 203.0,365.4 203.7,343.3 204.3,348.4 209.9,356.1 210.8,367.5 216.2,384.7 218.7,389.8 221.0,397.3 221.7,375.6 222.5,380.6 222.9,388.1 223.2,366.5 223.2,371.5 226.9,357.0 227.0,362.1 231.4,369.6 234.1,380.9 234.5,397.8 241.4,402.9 247.2,388.2 248.1,393.3 250.6,400.9 251.5,412.4 257.6,429.6 262.7,434.7 264.3,442.3 265.3,453.8 266.5,420.8 268.0,411.0 268.7,416.1 275.5,401.4 276.5,391.6 288.2,396.6 288.3,404.2 303.8,382.5 304.3,387.5 304.5,373.1 305.0,378.1 305.2,385.8 306.7,397.3 362.0,414.5 365.8,419.5 373.2,427.2 380.7,438.7 387.6,405.6 388.1,410.6 396.3,418.2 400.1,429.4 414.6,396.9 417.5,387.2 418.3,392.2 419.4,399.7 420.8,411.0 424.7,378.5 424.8,368.7 440.9,359.1 444.1,349.3 444.4,354.3 444.5,361.8 444.7,373.1 448.7,390.0 449.6,380.2 450.9,385.3 456.8,370.7 459.0,375.8 466.3,383.4 471.5,361.4 472.1,366.5 473.3,351.8 473.5,356.9 473.7,364.5 476.3,376.0 483.8,393.2 485.5,398.3 493.1,405.9 495.3,417.4 501.3,384.4 507.8,374.6 528.3,379.6 536.4,387.1 560.9,398.4 566.3,415.3 566.7,420.4 567.1,405.7 567.4,396.1 567.4,401.2 567.4,386.5 567.4,391.6 567.5,376.9 567.5,367.3 567.5,372.3 567.5,357.9 567.5,362.9 567.5,348.4 567.5,353.5 590.0,361.2 593.4,372.6 602.9,339.6 605.1,344.7 613.3,330.0 616.1,335.1 620.1,342.8 620.5,354.2 621.9,321.2 624.4,311.4 630.3,301.6 631.8,306.7 637.8,292.0 640.3,282.2 641.5,272.4 641.6,277.5 643.0,262.9 643.1,268.0 643.8,253.3 643.9,258.3 644.2,265.8 644.4,277.1 646.4,244.6 646.4,249.6 646.7,235.2 647.0,240.2 647.2,247.7 648.5,259.0 650.3,275.9 668.8,266.3 696.8,256.7 699.3,246.9 702.7,252.0 746.2,237.3 754.8,242.4 755.1,227.7 756.0,232.7 756.4,240.2 758.6,218.6 758.8,223.7 759.1,231.3 759.3,242.8 761.0,260.0 762.2,265.1 764.2,272.7 765.4,250.7 765.7,255.7 767.6,263.2 769.3,274.5 781.3,242.0 781.9,247.0 782.3,254.5 811.1,265.8 812.3,282.8 816.0,287.8 820.9,295.3 837.1,273.6 844.3,278.6 844.7,286.2 847.2,297.5 848.6,314.4 851.4,304.7 861.4,309.8 865.8,295.2 866.0,285.5 866.2,275.9 866.8,281.0 867.0,288.6 868.4,266.6 868.9,271.7 870.1,257.0 870.3,262.0 870.5,269.6 871.3,280.8 876.6,248.4 878.4,238.7 878.5,229.1 878.5,219.5 878.5,224.5 878.8,210.0 879.3,215.1 879.6,222.8 884.1,234.2 884.9,251.4 885.3,256.5 890.5,264.2 890.7,275.6 892.3,242.6 893.7,232.8 894.0,237.9 894.1,245.5 894.6,257.0 894.8,274.2 898.0,264.6 898.4,269.6 898.5,255.1 900.3,260.2 913.4,245.6 914.7,235.9 920.5,241.0 921.5,226.3 921.5,231.4 921.7,216.7 922.2,207.0 924.3,197.3 924.7,187.7 924.7,192.8 924.7,178.1 924.7,183.2 924.7,190.8 924.7,202.3 924.7,169.3 924.7,159.5 924.7,149.9 924.7,140.2 924.7,145.2 924.7,130.8 924.8,135.9 924.8,143.5 924.8,155.0 924.8,172.2 924.8,177.2 925.2,184.7 925.2,196.0 925.4,212.9 926.4,218.0 926.5,203.4 926.5,208.5 926.5,193.8 926.5,198.8 926.6,184.3 926.6,174.6 926.6,179.6 926.6,187.1 926.7,198.4 927.1,165.9 928.3,171.0 928.5,178.6 928.5,190.1 929.1,207.3 930.2,197.5 931.1,202.6 931.7,210.2 932.0,188.2" fill="none" stroke="#65a30d" stroke-width="1.8" stroke-linejoin="round" opacity="0.9"/>
  <polyline points="80.0,425.0 80.0,415.2 88.5,405.4 93.4,410.4 94.0,395.9 101.1,400.9 106.5,408.4 106.9,419.7 108.8,387.1 115.6,377.3 117.1,382.4 125.8,367.7 137.6,372.7 152.9,358.3 160.5,363.3 161.2,370.8 164.8,382.0 167.6,398.9 174.4,403.9 175.9,389.4 176.2,394.4 176.5,402.0 179.2,380.3 191.2,385.3 191.4,392.8 191.5,404.0 196.1,371.5 198.1,361.7 202.0,366.8 202.9,352.1 202.9,357.1 203.0,364.8 203.7,342.7 204.3,347.8 209.9,355.4 210.8,366.9 216.2,384.0 218.7,389.0 221.0,396.5 221.7,374.8 222.5,379.8 222.9,387.3 223.2,365.6 223.2,370.6 226.9,356.2 227.0,361.2 231.4,368.7 234.1,380.0 234.5,396.8 241.4,401.9 247.2,387.2 248.1,392.3 250.6,399.9 251.5,411.4 257.6,428.5 262.7,433.6 264.3,441.2 265.3,452.7 266.5,419.6 268.0,409.8 268.7,414.9 275.5,400.2 276.5,390.4 288.2,395.4 288.3,402.9 303.8,381.2 304.3,386.2 304.5,371.7 305.0,376.8 305.2,384.4 306.7,395.9 362.0,413.0 365.8,418.1 373.2,425.7 380.7,437.2 387.6,404.1 388.1,409.1 396.3,416.6 400.1,427.9 414.6,395.3 417.5,385.5 418.3,390.5 419.4,398.0 420.8,409.3 424.7,376.7 424.8,366.9 440.9,357.3 444.1,347.5 444.4,352.5 444.5,360.0 444.7,371.3 448.7,388.2 449.6,378.4 450.9,383.4 456.8,368.7 459.0,373.8 466.3,381.4 471.5,359.4 472.1,364.5 473.3,349.8 473.5,354.9 473.7,362.5 476.3,373.9 483.8,391.1 485.5,396.2 493.1,403.8 495.3,415.2 501.3,382.2 507.8,372.4 528.3,377.4 536.4,384.9 560.9,396.1 566.3,413.0 566.7,418.1 567.1,403.4 567.4,393.7 567.4,398.8 567.4,384.1 567.4,389.2 567.5,374.5 567.5,364.9 567.5,369.9 567.5,355.4 567.5,360.4 567.5,345.9 567.5,351.0 590.0,358.7 593.4,370.1 602.9,337.0 605.1,342.1 613.3,327.4 616.1,332.5 620.1,340.1 620.5,351.5 621.9,318.5 624.4,308.7 630.3,298.9 631.8,303.9 637.8,289.2 640.3,279.5 641.5,269.7 641.6,274.7 643.0,260.0 643.1,265.1 643.8,250.4 643.9,255.4 644.2,262.9 644.4,274.2 646.4,241.6 646.4,246.6 646.7,232.2 647.0,237.2 647.2,244.7 648.5,255.9 650.3,272.8 668.8,263.2 696.8,253.5 699.3,243.7 702.7,248.8 746.2,234.1 754.8,239.2 755.1,224.5 756.0,229.5 756.4,237.0 758.6,215.3 758.8,220.4 759.1,228.0 759.3,239.5 761.0,256.6 762.2,261.7 764.2,269.3 765.4,247.3 765.7,252.3 767.6,259.8 769.3,271.1 781.3,238.5 781.9,243.5 782.3,251.0 811.1,262.3 812.3,279.2 816.0,284.2 820.9,291.7 837.1,270.0 844.3,275.0 844.7,282.5 847.2,293.7 848.6,310.6 851.4,301.0 861.4,306.1 865.8,291.4 866.0,281.7 866.2,272.1 866.8,277.2 867.0,284.8 868.4,262.7 868.9,267.8 870.1,253.1 870.3,258.1 870.5,265.6 871.3,276.9 876.6,244.3 878.4,234.7 878.5,225.1 878.5,215.4 878.5,220.4 878.8,206.0 879.3,211.0 879.6,218.7 884.1,230.1 884.9,247.3 885.3,252.3 890.5,260.0 890.7,271.4 892.3,238.3 893.7,228.5 894.0,233.6 894.1,241.2 894.6,252.7 894.8,269.8 898.0,260.2 898.4,265.2 898.5,250.7 900.3,255.8 913.4,241.1 914.7,231.5 920.5,236.5 921.5,221.8 921.5,226.9 921.7,212.2 922.2,202.4 924.3,192.8 924.7,183.1 924.7,188.2 924.7,173.5 924.7,178.6 924.7,186.2 924.7,197.7 924.7,164.6 924.7,154.8 924.7,145.1 924.7,135.5 924.7,140.5 924.7,126.0 924.8,131.1 924.8,138.7 924.8,150.2 924.8,167.3 924.8,172.3 925.2,179.8 925.2,191.1 925.4,208.0 926.4,213.1 926.5,198.4 926.5,203.5 926.5,188.8 926.5,193.8 926.6,179.3 926.6,169.5 926.6,174.5 926.6,182.0 926.7,193.3 927.1,160.7 928.3,165.8 928.5,173.4 928.5,184.9 929.1,202.0 930.2,192.2 931.1,197.3 931.7,204.9 932.0,182.9" fill="none" stroke="#475569" stroke-width="1.8" stroke-linejoin="round" opacity="0.9"/>
  <polyline points="80.0,425.0 80.0,415.1 88.5,405.3 93.4,410.3 94.0,395.8 101.1,400.8 106.5,408.3 106.9,419.5 108.8,386.9 115.6,377.1 117.1,382.2 125.8,367.4 137.6,372.4 152.9,357.9 160.5,362.9 161.2,370.4 164.8,381.6 167.6,398.4 174.4,403.4 175.9,388.9 176.2,393.9 176.5,401.4 179.2,379.7 191.2,384.6 191.4,392.1 191.5,403.3 196.1,370.7 198.1,360.9 202.0,366.0 202.9,351.3 202.9,356.3 203.0,363.9 203.7,341.8 204.3,346.9 209.9,354.5 210.8,365.9 216.2,383.0 218.7,388.0 221.0,395.5 221.7,373.7 222.5,378.7 222.9,386.2 223.2,364.4 223.2,369.4 226.9,354.9 227.0,359.9 231.4,367.4 234.1,378.6 234.5,395.4 241.4,400.5 247.2,385.8 248.1,390.8 250.6,398.4 251.5,409.8 257.6,426.9 262.7,432.0 264.3,439.6 265.3,451.0 266.5,417.9 268.0,408.0 268.7,413.1 275.5,398.4 276.5,388.6 288.2,393.6 288.3,401.0 303.8,379.3 304.3,384.3 304.5,369.8 305.0,374.9 305.2,382.5 306.7,393.9 362.0,410.9 365.8,416.0 373.2,423.6 380.7,435.0 387.6,401.9 388.1,406.9 396.3,414.3 400.1,425.6 414.6,393.0 417.5,383.1 418.3,388.1 419.4,395.6 420.8,406.8 424.7,374.2 424.8,364.4 440.9,354.7 444.1,344.9 444.4,349.9 444.5,357.4 444.7,368.6 448.7,385.4 449.6,375.6 450.9,380.7 456.8,366.0 459.0,371.0 466.3,378.6 471.5,356.5 472.1,361.6 473.3,346.9 473.5,351.9 473.7,359.5 476.3,370.9 483.8,388.0 485.5,393.1 493.1,400.7 495.3,412.1 501.3,378.9 507.8,369.1 528.3,374.1 536.4,381.6 560.9,392.8 566.3,409.6 566.7,414.7 567.1,400.0 567.4,390.3 567.4,395.4 567.4,380.7 567.4,385.7 567.5,371.0 567.5,361.3 567.5,366.3 567.5,351.8 567.5,356.8 567.5,342.3 567.5,347.4 590.0,355.0 593.4,366.4 602.9,333.2 605.1,338.3 613.3,323.6 616.1,328.7 620.1,336.3 620.5,347.6 621.9,314.5 624.4,304.7 630.3,294.9 631.8,299.9 637.8,285.2 640.3,275.4 641.5,265.6 641.6,270.6 643.0,255.9 643.1,261.0 643.8,246.3 643.9,251.2 644.2,258.7 644.4,269.9 646.4,237.3 646.4,242.3 646.7,227.8 647.0,232.8 647.2,240.3 648.5,251.5 650.3,268.3 668.8,258.7 696.8,249.0 699.3,239.2 702.7,244.3 746.2,229.5 754.8,234.6 755.1,219.9 756.0,224.9 756.4,232.3 758.6,210.6 758.8,215.7 759.1,223.3 759.3,234.7 761.0,251.8 762.2,256.8 764.2,264.4 765.4,242.3 765.7,247.3 767.6,254.8 769.3,266.0 781.3,233.4 781.9,238.4 782.3,245.9 811.1,257.1 812.3,273.9 816.0,278.9 820.9,286.4 837.1,264.7 844.3,269.6 844.7,277.1 847.2,288.3 848.6,305.2 851.4,295.5 861.4,300.6 865.8,285.8 866.0,276.2 866.2,266.5 866.8,271.6 867.0,279.2 868.4,257.1 868.9,262.2 870.1,247.4 870.3,252.4 870.5,259.9 871.3,271.1 876.6,238.5 878.4,228.9 878.5,219.2 878.5,209.5 878.5,214.5 878.8,200.0 879.3,205.1 879.6,212.7 884.1,224.1 884.9,241.2 885.3,246.3 890.5,253.8 890.7,265.2 892.3,232.1 893.7,222.3 894.0,227.4 894.1,235.0 894.6,246.4 894.8,263.4 898.0,253.8 898.4,258.8 898.5,244.3 900.3,249.3 913.4,234.6 914.7,225.0 920.5,230.0 921.5,215.3 921.5,220.4 921.7,205.6 922.2,195.8 924.3,186.2 924.7,176.5 924.7,181.6 924.7,166.8 924.7,171.9 924.7,179.5 924.7,190.9 924.7,157.8 924.7,147.9 924.7,138.3 924.7,128.6 924.7,133.6 924.7,119.1 924.8,124.2 924.8,131.8 924.8,143.2 924.8,160.3 924.8,165.3 925.2,172.7 925.2,184.0 925.4,200.8 926.4,205.8 926.5,191.1 926.5,196.2 926.5,181.5 926.5,186.4 926.6,171.9 926.6,162.1 926.6,167.1 926.6,174.6 926.7,185.8 927.1,153.2 928.3,158.3 928.5,165.9 928.5,177.3 929.1,194.4 930.2,184.6 931.1,189.6 931.7,197.2 932.0,175.1" fill="none" stroke="#ea580c" stroke-width="1.8" stroke-linejoin="round" opacity="0.9"/>
  <line x1="950" y1="94" x2="972" y2="94" stroke="#ea580c" stroke-width="3"/><text x="980" y="98" font-size="12.5" fill="#374151">vip 9  40082</text>
  <line x1="950" y1="116" x2="972" y2="116" stroke="#475569" stroke-width="3"/><text x="980" y="120" font-size="12.5" fill="#374151">vip 8  39148</text>
  <line x1="950" y1="138" x2="972" y2="138" stroke="#65a30d" stroke-width="3"/><text x="980" y="142" font-size="12.5" fill="#374151">vip 7  38506</text>
  <line x1="950" y1="160" x2="972" y2="160" stroke="#db2777" stroke-width="3"/><text x="980" y="164" font-size="12.5" fill="#374151">vip 6  37514</text>
  <line x1="950" y1="182" x2="972" y2="182" stroke="#0891b2" stroke-width="3"/><text x="980" y="186" font-size="12.5" fill="#374151">vip 5  36872</text>
  <line x1="950" y1="204" x2="972" y2="204" stroke="#7c3aed" stroke-width="3"/><text x="980" y="208" font-size="12.5" fill="#374151">vip 4  35938</text>
  <line x1="950" y1="226" x2="972" y2="226" stroke="#d97706" stroke-width="3"/><text x="980" y="230" font-size="12.5" fill="#374151">vip 3  30546</text>
  <line x1="950" y1="248" x2="972" y2="248" stroke="#16a34a" stroke-width="3"/><text x="980" y="252" font-size="12.5" fill="#374151">vip 2  26233</text>
  <line x1="950" y1="270" x2="972" y2="270" stroke="#2563eb" stroke-width="3"/><text x="980" y="274" font-size="12.5" fill="#374151">vip 0  17871</text>
  <line x1="950" y1="292" x2="972" y2="292" stroke="#dc2626" stroke-width="3"/><text x="980" y="296" font-size="12.5" fill="#374151">vip 1  17871</text>
  <text x="80" y="542" text-anchor="start" font-size="12" fill="#6b7280">2026-01-01</text><text x="932" y="542" text-anchor="end" font-size="12" fill="#6b7280">2026-01-31</text>
</svg>
