<svg xmlns="http://www.w3.org/2000/svg" width="1000" height="520" font-family="ui-sans-serif, system-ui, sans-serif" viewBox="0 0 1000 520"><rect width="1000" height="520" fill="#fff"/><text x="78" y="28" fill="#111827" font-size="18" font-weight="700">Zone Recovery — AVAXUSDT best setting (equity / PnL)</text><text x="78" y="48" fill="#6b7280" font-size="12.5">lev 5 · ratio 3 · gap 35% · maxSteps 4 · maxDD 20% · random · vip 9 · 9 series, 100.0% win · vol $28239549 ($910954/day) · fees $4321</text><text x="78" y="68" fill="#1d4ed8" font-size="12.5" font-weight="600">USDT · BNB −10% · taker 0.0153%</text><text x="934" y="28" fill="#16a34a" font-size="18" font-weight="700" text-anchor="end">+1255217 USDT (+1.26%)</text><line x1="78" x2="934" y1="468" y2="468" stroke="#e5e7eb" stroke-width="1"/><text x="68" y="472" fill="#6b7280" font-size="12" text-anchor="end">0.00</text><line x1="78" x2="934" y1="392" y2="392" stroke="#e5e7eb" stroke-width="1"/><text x="68" y="396" fill="#6b7280" font-size="12" text-anchor="end">21898617</text><line x1="78" x2="934" y1="316" y2="316" stroke="#e5e7eb" stroke-width="1"/><text x="68" y="320" fill="#6b7280" font-size="12" text-anchor="end">43797235</text><line x1="78" x2="934" y1="240" y2="240" stroke="#e5e7eb" stroke-width="1"/><text x="68" y="244" fill="#6b7280" font-size="12" text-anchor="end">65695852</text><line x1="78" x2="934" y1="164" y2="164" stroke="#e5e7eb" stroke-width="1"/><text x="68" y="168" fill="#6b7280" font-size="12" text-anchor="end">87594470</text><line x1="78" x2="934" y1="88" y2="88" stroke="#e5e7eb" stroke-width="1"/><text x="68" y="92" fill="#6b7280" font-size="12" text-anchor="end">109493087</text><line x1="78" x2="934" y1="120.9" y2="120.9" stroke="#9ca3af" stroke-dasharray="6 4" stroke-width="1.5"/><text x="934" y="114.9" fill="#6b7280" font-size="11" text-anchor="end">start 100000000</text><polyline fill="none" stroke="#d97706" stroke-linejoin="round" stroke-width="1.2" points="78 136.1 78.4 136.4 78.9 138.5 79.4 135.5 79.8 136.3 80.2 133.5 80.7 135.5 81.2 137 81.8 138.2 82.3 140.3 82.6 140.3 83 137.5 83.3 136.9 83.7 137.9 84.1 136.9 84.7 137.4 85.3 139.3 85.7 138.1 86.2 140.4 86.7 136.6 87 136.1 87.4 135.4 87.7 134.6 87.8 129.6 87.9 129 88 127.1 88.1 125.6 88.2 124.8 88.2 125.4 88.3 124.3 88.4 123.7 88.5 122.9 88.6 123 88.8 124.6 88.9 123 89.2 122.3 89.5 121.2 89.7 126 89.9 125.6 90.3 126.1 90.8 124.8 91.3 125.2 91.8 125.5 92.1 128.2 92.2 125.6 92.6 126.9 93 128.6 93.3 127.2 93.6 130.2 93.8 130.2 94 128.5 94.2 126.9 94.4 127.1 94.7 126.6 94.9 125.9 95.1 130.3 95.3 129.5 95.7 129.2 96 127.3 96.3 129.4 96.6 127.9 96.9 127.6 97.3 127.9 97.6 129 98.1 129.1 98.6 129.2 99.1 129 99.7 128.4 100.1 127 100.5 127.1 100.9 126.8 101.3 128.5 102 128.4 102.8 129.1 103.4 128.1 104.1 129.2 104.6 127.7 105 128.3 105.5 126.7 105.8 124.3 106 126.5 106.2 122.5 106.3 118.1 106.3 117.9 106.3 124 106.5 126.7 106.7 128.4 107 128.3 107.3 127.8 107.7 124.5 107.9 122.4 108.1 124.3 108.3 122.3 108.5 118.5 108.7 118.8 108.9 117.8 109.1 118.4 109.3 119.8 109.4 123.9 109.6 123.2 109.8 124.7 110.2 124.2 110.4 127.9 110.8 127.3 111.2 126.1 111.5 125.2 112 123.4 112.3 125.6 112.6 125.8 112.9 126.2 113.2 125.6 113.6 126.1 114.1 126.8 114.6 127.1 115.1 128.3 115.6 127.9 116 130.2 116.3 129.4 116.8 129.4 117.3 129.7 117.8 129.1 118.4 128.4 119 128.4 119.4 129 119.8 128 120.2 127.1 120.4 128 120.8 128.8 120.9 135.3 120.9 140.5 120.9 140.4 120.9 137.5 120.9 135.7 121 131.9 121.1 134.6 121.2 132.7 121.3 133.1 121.4 135.1 121.5 131 121.5 132.8 121.6 130.7 121.8 133.4 121.9 132.3 122.1 134.1 122.3 134.1 122.4 136.4 122.5 137.8 122.6 138.8 122.7 140.1 122.8 139.8 122.9 142.3 123 141.3 123.1 138.8 123.3 138.9 123.5 138.5 123.7 137.8 123.9 136.6 124.1 136.7 124.3 133.6 124.4 133.2 124.6 133.6 124.8 135.3 125.1 133.2 125.4 133.8 125.7 132 126 130.2 126.3 129.2 126.6 127.8 126.8 127 127.2 127.5 127.5 126.6 127.7 124 127.8 122 128 122.5 128.2 121.3 128.3 122.9 128.6 122.2 128.8 119.8 129 120.3 129.2 122 129.4 124.1 129.7 123.6 130.1 122.4 130.5 123.9 131 122.3 131.4 123 131.8 123.7 132.4 123.8 133 123.3 133.4 124.9 133.6 125.4 134 125.3 134.5 125.1 134.8 127.2 135.1 127.4 135.4 129.4 135.8 127.7 136.3 127.3 136.7 124.3 136.9 123.5 137.2 124.3 137.7 124.6 138.2 125 138.7 125.5 139.2 126 139.8 128 140.2 128.2 140.7 128.3 141.1 131.9 141.2 132.9 141.4 133.7 141.7 134.4 142 134.5 142.4 134 142.7 135.6 143 135.2 143.3 133.6 143.7 133 144.1 132.1 144.3 132.9 144.8 131.7 145.3 130.5 145.9 131.3 146.2 134 146.8 134.5 147.3 132.9 147.7 132.9 148.1 133 148.4 134.5 148.7 130.8 148.8 130.6 149 132.8 149.2 131.7 149.4 133.8 149.6 134.4 149.7 135.5 149.9 130.8 150.2 130 150.5 129.5 150.8 130.1 150.9 125.1 151.1 126.6 151.2 124.7 151.3 121.4 151.4 123.3 151.5 120.7 151.6 119 151.7 115.8 151.7 117.5 151.8 117.4 151.9 119.8 152 119 152.2 117.6 152.3 115.3 152.5 115.2 152.6 117.5 152.7 119.1 152.8 122.8 152.8 125 152.8 125 152.9 124 152.9 123.4 153 121.6 153.1 120.7 153.2 120.8 153.4 122.4 153.5 120.4 153.7 121 153.8 123.4 153.9 123.7 154.1 124.9 154.2 120.5 154.4 119 154.6 119.7 154.9 119.5 155.2 119.5 155.5 119.3 155.9 118.5 156.2 118.6 156.5 120.1 157.1 119.2 157.6 118.9 158.2 119.5 158.7 117.2 159.2 115.5 159.8 116.2 160.4 117.2 160.9 116.4 161.3 118.4 161.7 119.1 162.3 119.4 162.9 119.4 163.3 119.3 163.6 120.2 164.1 119.3 164.7 120.4 165.4 118.9 165.9 119.3 166.6 119.2 167.1 119.2 167.8 119.1 168.4 119.8 169.3 121 169.8 124.1 170.2 125.9 170.6 127.6 170.9 128.7 171.3 127.4 171.8 128 172.3 129.4 172.8 127.8 173.2 129.9 173.6 130.5 173.9 132.3 174.3 132.3 174.7 132.5 175.1 132.2 175.5 133.5 175.9 131.2 176.1 129.9 176.5 130.2 176.9 131.3 177.3 132.2 177.9 134.3 177.9 136.5 178.1 137 178.4 137 178.6 137.4 178.9 138.3 179.2 136.7 179.5 137 179.9 136.6 180.2 137.6 180.7 136.6 181.3 137.8 182.1 136.9 182.8 137.2 183.5 136.1 184.2 135.6 185 135.4 185.7 134.3 186.3 134.8 187 133.2 188 134.5 188.7 135.8 189.4 137.7 189.9 137.8 190.5 137.8 191.2 136.7 191.4 132.2 191.5 131.5 191.7 132.6 191.9 126.8 192.1 127.6 192.3 130.4 192.6 127.9 192.9 128.9 193.3 130.6 193.7 129 193.9 125 194 123.8 194 123.2 194.2 124.3 194.3 123.6 194.5 123.4 194.8 122.9 195.2 124.3 195.6 124.9 196 125.8 196.6 126.3 196.9 123.8 197.3 124.2 197.6 121.5 197.8 120.1 198.1 121.8 198.4 122.2 199 123.4 199.4 125.2 199.5 123.7 199.7 126.4 199.8 126.1 200 128.9 200.2 130 200.4 128.7 200.7 130.3 201.2 129.5 201.2 135.5 201.4 134.5 201.7 133 202.1 131.3 202.5 134.2 202.9 132.9 203.2 134.5 203.6 134.3 204 134.4 204.3 134.8 204.8 134.3 205.2 135.5 205.5 135.4 205.9 135.3 206.3 133.1 206.9 133.1 207.3 133.2 207.8 135 208 132.7 208.5 134.7 209 136.7 209.3 137.6 209.5 138.7 210 136.8 210.5 139.9 211 138.9 211.4 140.3 211.7 138.9 212.2 137.7 212.8 139.3 213.6 138.5 214.2 139.1 214.9 138.2 215.6 138.1 216 135 216.2 136.1 216.3 133.9 216.5 131.3 216.6 134.7 216.9 134.2 217.2 136.3 217.5 135.9 217.8 132.9 218.1 133.8 218.6 134.2 219 135.1 219.4 131.9 219.8 133.1 220.5 134.2 221 131.8 221.4 132.6 221.9 132.4 222.4 132.5 222.9 132.6 223.3 133.5 223.6 131.3 223.9 131.4 224.3 132.1 224.7 131.9 225 132.9 225.4 130.6 225.9 130.2 226.4 130.4 226.8 127.9 226.9 128.2 227.3 129.3 227.8 129.4 228.3 131 228.9 129.8 229.4 128.9 229.9 128.1 230.3 127.1 230.9 128.4 231.2 128.1 231.5 128.6 231.7 127.1 231.9 129.7 232.1 128.6 232.2 127.5 232.3 126.1 232.4 126.4 232.6 123.8 232.7 123.1 232.9 124.4 233 126.1 233.3 128.1 233.5 125.9 233.7 124.3 233.9 122.6 234.1 124.2 234.4 123.8 234.6 125.5 234.9 126.2 235.2 126 235.5 126 235.8 125.5 236 123.4 236.2 122.3 236.4 123.7 236.7 123 237 124.2 237.4 125.1 237.6 124.5 237.9 123.2 238.2 124.9 238.6 125.2 238.9 125.1 239.4 124.6 239.9 124.7 240.5 126.9 240.9 127.7 241.6 126.1 242.2 127.9 242.7 127.7 243.2 126.6 243.7 127.7 244.1 127.9 244.4 129.6 245 129.6 245.3 131.3 245.8 130.7 246.5 130.9 247.1 131.6 247.8 131.8 248.5 132.4 248.9 132 249.2 128.1 249.6 130.5 250.2 129.8 250.7 129.8 251.1 133.1 251.4 134.7 251.7 134.1 252.1 134.3 252.5 135.6 253 135.7 253.1 138.5 253.1 142.2 253.2 140.5 253.4 141.1 253.6 140.9 253.9 139.1 254.2 139.3 254.5 139.5 254.9 140.1 255.3 140.2 255.7 139.9 256 138.1 256.5 136.9 256.9 136.2 257.4 136.7 257.7 136.8 258 138 258.3 139.5 258.4 138.9 258.6 136.8 258.9 138.5 259.2 139.4 259.4 142.3 259.4 145.4 259.5 146.3 259.5 148.1 259.5 148 259.6 145.7 259.7 146.3 259.8 146.1 259.9 147.1 260 149.4 260.1 149.7 260.2 151.4 260.3 151.1 260.4 153.1 260.5 151.7 260.6 151.5 260.8 152 261 152.4 261.1 154.2 261.1 154.7 261.1 156.3 261.2 154.7 261.3 153.3 261.5 155.2 261.6 156.3 261.7 157.2 261.8 157.5 262 157.2 262.2 157.9 262.3 159.6 262.5 159.7 262.7 158.4 262.9 155.1 263.1 154.4 263.2 156.8 263.5 156.8 263.8 157.3 264.2 157 264.4 159.5 264.7 160.9 265 159.7 265.4 159.7 265.7 158.9 266.1 161.1 266.3 161.5 266.5 161.2 266.8 162.5 267.1 160.6 267.4 159.3 267.9 161.4 268.2 160.1 268.8 161.9 269.2 161 269.6 160.7 270.2 163 270.4 164 270.7 164.8 271 166.3 271.1 166 271.4 166.1 271.8 165.7 271.9 166.5 272.1 162.3 272.4 161.5 272.7 162.6 273 161 273.4 160.5 273.9 160.5 274.5 161.6 275 163.2 275.3 164.6 275.6 165.7 276 164.4 276.2 162.5 276.7 162.4 277.3 162.7 277.7 164.2 278.2 163.1 278.6 161.9 279.1 162.6 279.5 162.4 279.9 162.7 280.3 162.2 280.7 161.6 281.1 161 281.4 159.1 281.8 160.2 282.3 161.5 282.9 160.3 283.3 160.4 283.7 159.8 284.2 158.3 284.7 160.5 285.3 159.9 285.8 160.5 286.2 158.4 286.5 158.6 286.9 159 287.1 161.1 287.3 159 287.5 155.3 287.6 154.8 287.9 156.9 288.1 158.9 288.3 158 288.6 159.2 288.9 159.2 289.1 159.2 289.4 160.3 289.8 160.9 290.1 160 290.5 160.2 290.8 158.5 290.9 154 291 153.4 291.2 152.6 291.3 149.7 291.5 149.1 291.6 150.7 291.8 152.2 292 151.5 292.2 150.7 292.4 150.7 292.7 152.1 293 150.4 293 145.3 293 142.5 293.1 145 293.2 146.5 293.4 148.5 293.6 147.1 293.9 148.1 294.2 148.3 294.6 147.8 295.2 149.8 295.5 150.9 295.9 151.5 296.4 152.5 296.8 151.8 297.6 152.6 298 153.4 298.2 153 298.7 153.3 299.2 153.7 299.6 154.8 300 156.1 300.3 157.8 300.7 158.1 301.3 158.9 301.8 159.9 302.1 162 302.4 160.9 302.8 158.6 303.5 159.2 304.1 157.6 304.7 157 305.4 157.6 306 158.8 306.7 157.4 307.3 158.6 307.9 158.3 308.3 160.3 308.6 161.3 308.8 162 309 163 309.2 164.7 309.5 163.6 309.7 164 310.1 163.5 310.7 162.9 311.2 162.6 311.7 162.1 312.1 159.4 312.5 159.5 312.9 158 313.4 158.2 313.6 155.6 313.9 155.7 314.2 159.1 314.5 160.1 314.7 161.9 314.9 162.3 315.1 163.3 315.3 161.3 315.5 163 315.7 166.4 315.9 165.1 316.1 163.6 316.3 162.7 316.6 164 316.8 165.9 317.1 165.7 317.4 164.3 317.7 166.2 318 164.7 318.3 166.1 318.4 169.6 318.5 168.4 318.8 166.5 319.1 166 319.4 165.3 319.7 164.5 320.1 163.8 320.5 165.8 321.1 164.7 321.6 163.6 322 163.2 322.6 164.2 323.3 164.6 323.8 163.7 324.6 161.4 325.1 159.1 325.6 160.4 326.1 159.9 326.7 159 327.3 159 327.8 159.5 328.5 160.1 329 159.8 329.5 159.8 330 159.5 330.5 158.5 330.8 157.2 331.2 158.5 331.8 159.9 332.5 159.8 333.1 158.5 333.6 156.6 334.2 160 334.7 160.4 335.2 160.3 335.7 161.6 336.2 159.7 336.8 159.3 337.3 159.8 337.9 163.2 338.3 162.8 338.9 162.7 339.4 161.1 339.8 161.7 340.4 160 341.1 161.4 341.6 159.7 342.1 160.4 342.4 160.2 342.7 159.8 343 161.5 343.3 161.4 343.6 162.5 343.8 166.7 343.8 166.5 343.8 167 343.9 169.5 343.9 168.3 344 167.3 344.1 169.1 344.2 171.3 344.2 172.2 344.2 175.2 344.3 176 344.4 176.6 344.4 178.7 344.4 182.5 344.4 181.4 344.4 180.9 344.4 184 344.5 181.6 344.5 179.8 344.6 180.5 344.6 176.1 344.7 177.9 344.9 178.7 345 180.3 345.1 178.5 345.3 180.8 345.5 178.8 345.7 178.9 346 181.5 346.2 182.8 346.4 181.8 346.6 180 346.9 181.1 347.1 183 347.3 182.9 347.6 184.1 347.9 183.9 348 185.4 348.2 186.8 348.5 186.9 348.6 187 348.8 189.5 348.9 188.7 349 190.3 349 191.2 349.2 188 349.3 185.4 349.5 186.9 349.7 186 350 184.2 350.3 184.5 350.5 187.5 350.5 187.5 350.6 188.7 350.6 190.8 350.6 193.6 350.6 202.9 350.6 197.3 350.6 195.6 350.6 196.4 350.7 197.8 350.7 205.2 350.7 218.5 350.7 206.2 350.7 205.2 350.7 208.3 350.7 209 350.7 205.8 350.7 203.6 350.7 204.9 350.7 202.5 350.8 202.9 350.8 203.8 350.8 204 350.8 204.8 350.9 204.6 350.9 208.2 350.9 207.8 350.9 212 350.9 214.7 350.9 228.4 350.9 232.4 350.9 228.7 350.9 226.1 351 239.3 351 235.9 351 237.2 351 233.3 351 246.8 351 244.9 351 258.3 351 252.7 351 255.6 351 268.6 351 275.7 351 289.3 351 288.2 351 288.9 351 304.1 351 316.8 351 336.7 351 357.3 351.1 366.1 351.1 397.1 351.1 401.8 351.1 413.6 351.1 435.9 351.1 437.6 351.1 422.2 351.1 377.8 351.1 341.3 351.1 306 351.1 309 351.1 302.2 351.2 307.4 351.2 310.7 351.2 310.1 351.2 325.6 351.2 330.4 351.2 319.7 351.2 321.1 351.2 313.4 351.2 305.4 351.3 299.9 351.3 300.5 351.3 299.6 351.3 293.4 351.3 292 351.3 286.1 351.3 285.6 351.4 280 351.4 281.7 351.4 285.7 351.4 291.1 351.4 285.7 351.5 283.8 351.5 269.9 351.5 264.1 351.5 258.2 351.5 259 351.5 254.3 351.5 249.3 351.5 242.5 351.6 242 351.6 243.8 351.6 249.5 351.6 249.7 351.6 248 351.6 250.4 351.6 248 351.7 246.8 351.7 244.3 351.7 246.4 351.7 247.7 351.7 248.3 351.7 249.3 351.8 246.8 351.8 246 351.8 246.3 351.8 248.2 351.8 249.5 351.8 250.7 351.8 254 351.9 257.3 351.9 257 351.9 256.8 351.9 259.7 351.9 262.9 351.9 263.4 351.9 266.1 351.9 271.5 351.9 284.7 352 272.6 352 274.2 352 268 352 266.8 352 269.8 352 269 352 265.7 352 265.3 352 261.8 352.1 260.1 352.1 258.3 352.1 257 352.1 256.7 352.1 258.1 352.1 260.4 352.1 259.5 352.2 257.3 352.2 262.7 352.2 263.8 352.2 264.7 352.2 264.2 352.2 267.2 352.3 266.4 352.3 267.5 352.3 268 352.3 269.9 352.3 272.8 352.4 273.9 352.4 271.3 352.4 271.9 352.4 273.4 352.4 276.7 352.4 276.5 352.5 275.8 352.5 276.3 352.5 270.2 352.5 267.9 352.5 269.2 352.5 271.8 352.6 269.6 352.6 268.6 352.6 270 352.6 269 352.6 271.3 352.6 271.5 352.7 269.9 352.7 270.4 352.7 269.2 352.7 269.7 352.7 270.1 352.7 267.4 352.8 263.7 352.8 265.7 352.8 265.7 352.8 267.9 352.8 267.1 352.9 269.6 352.9 269 352.9 268.9 352.9 267.7 352.9 267.6 353 266.4 353 267.2 353 268.4 353 270.8 353.1 269.1 353.1 267.1 353.1 266.1 353.1 267.8 353.1 266.8 353.2 264.4 353.2 265 353.2 266.2 353.2 267.3 353.2 266.4 353.3 265.8 353.3 264.1 353.3 263.4 353.4 260.7 353.4 262 353.4 262.2 353.4 259.9 353.4 260.2 353.5 258.2 353.5 257.5 353.5 257.8 353.6 255.4 353.6 254.6 353.6 256 353.6 253.9 353.6 255.5 353.6 254 353.7 253.1 353.7 253.3 353.7 252.7 353.7 252.8 353.8 254.3 353.8 254.7 353.8 254.5 353.8 255.6 353.8 256 353.9 258.2 353.9 259.9 353.9 259.5 353.9 261.9 353.9 259.8 354 261.5 354 262.1 354 265 354 264.9 354 270.9 354.1 269.8 354.1 270.2 354.1 269.4 354.1 268.6 354.1 267.9 354.2 266.8 354.2 268.6 354.2 267.1 354.2 264.7 354.2 265.3 354.3 265.7 354.3 264.1 354.3 265.1 354.4 267.1 354.4 266 354.5 269.2 354.5 270.7 354.5 272.2 354.5 271.3 354.6 268.8 354.6 267.9 354.7 265.8 354.7 262.7 354.7 261.7 354.8 261 354.8 263.6 354.8 263.5 354.9 263 355 263.6 355 261.4 355.1 261.7 355.1 259.5 355.2 260.2 355.3 260.7 355.3 260.3 355.4 259.1 355.5 260.1 355.5 258.7 355.6 258.8 355.6 259.2 355.7 260.6 355.8 260.8 355.8 260 355.9 260.9 356 262.9 356.1 263.5 356.1 264.8 356.2 265 356.3 267.4 356.4 267.6 356.4 264.2 356.5 262.6 356.5 259.1 356.6 258 356.6 255.9 356.7 254.8 356.7 252.7 356.8 251.4 356.8 250.1 356.9 247.4 357 244.7 357 246.3 357 243.1 357.1 242.8 357.2 242.7 357.3 241.5 357.4 241.5 357.5 238 357.5 239.9 357.6 240.5 357.7 245 357.7 248.2 357.8 249.5 357.9 249.4 357.9 249.3 358 248.4 358.1 249.5 358.2 251.3 358.3 251.6 358.4 253.4 358.5 250.2 358.6 250.6 358.8 250.9 358.8 251 359 251.2 359.1 251.8 359.2 250.7 359.4 249.9 359.5 251.6 359.7 251.5 359.8 246.7 359.9 246.9 360.1 248.5 360.2 249.6 360.4 249 360.5 252.2 360.6 252.7 360.7 252.8 360.8 250.1 361 249.6 361.2 249.3 361.3 246.4 361.5 243.5 361.6 241.9 361.7 241.7 361.8 242.1 362 243.5 362.2 246.2 362.3 248 362.4 245.9 362.5 245.7 362.7 245 362.8 244.7 363 247.1 363.1 247 363.2 246.3 363.4 247.8 363.5 247 363.6 245.9 363.7 242 363.8 241.5 363.9 241.1 364.1 239.1 364.1 237.6 364.2 236.9 364.3 235.3 364.4 233.5 364.5 232.6 364.6 231.2 364.7 232.1 364.8 235.3 364.9 233.8 365.1 234.7 365.2 235.6 365.4 237.3 365.6 238.7 365.7 237.7 365.9 236 366.1 236.7 366.2 236 366.4 239.1 366.6 240.2 366.8 239.9 367 240 367.1 242.7 367.3 241.3 367.5 241.2 367.7 240.3 367.9 240.8 368.1 240.9 368.3 239.4 368.5 239.4 368.7 242.1 368.9 244.5 369 244.8 369.2 246.6 369.4 245.2 369.5 246.7 369.7 246.2 369.7 248 369.8 247.3 370 244 370 239.7 370 241.3 370.1 239.8 370.2 242 370.3 240.2 370.5 238.6 370.6 240.2 370.8 241.2 371 240.4 371.2 240.6 371.4 239.7 371.5 237 371.7 238.2 371.8 238.8 372 237.6 372.1 239.4 372.4 238.2 372.6 239 372.8 238.7 372.9 237.5 373 236.1 373.2 238.2 373.4 239.9 373.6 236.8 373.8 235.7 373.9 235.6 374.2 236.8 374.4 236.7 374.6 236.5 374.9 236.2 375.2 238.7 375.6 239.8 375.9 240.4 376.1 242.1 376.3 245.5 376.4 247.7 376.5 248.7 376.6 247.9 376.7 248.4 376.9 249.5 377 251.1 377.1 252.5 377.2 251.4 377.2 254.1 377.3 253.9 377.4 254.4 377.6 255.1 377.7 256.8 377.7 258 377.8 259.5 377.9 260.4 377.9 258.9 378 258.4 378.1 258.2 378.2 259.3 378.3 259.4 378.4 261 378.4 263.1 378.5 264.2 378.6 261.8 378.6 260.3 378.7 257.4 378.8 256.1 378.9 258.6 379 258.3 379.3 257.6 379.5 257.9 379.7 257.2 379.9 257.4 380.1 256.1 380.2 255.6 380.5 255.3 380.7 256.1 381 256 381.2 256.6 381.5 256.9 381.8 258 382 259.1 382.2 260.3 382.4 259 382.6 262.1 382.8 264.2 383 264.8 383.1 262.9 383.3 263.7 383.4 264.5 383.6 263.9 383.7 264.5 383.9 264.5 384.1 266.4 384.2 265.8 384.4 264.5 384.6 263.3 384.7 263.8 384.9 264.8 385.1 267.1 385.2 267.3 385.4 264.7 385.4 262.4 385.6 263.6 385.7 261.5 385.9 261.7 386 262.9 386.2 263.7 386.4 262.6 386.6 259.9 386.8 258.2 387 259.1 387.2 259.4 387.5 260 387.7 260.1 387.9 259.2 388.2 258.2 388.5 258.2 388.7 258.6 389 258.2 389.2 256.9 389.5 257.8 389.8 257.2 390.1 258.5 390.4 258.9 390.7 258.9 391 258.6 391.3 258 391.7 259.3 391.9 261.2 392.2 263.7 392.4 263.1 392.7 262.7 393 261.5 393.2 260.4 393.4 261.5 393.7 264 394 262.7 394.3 263.4 394.6 262.2 394.9 263 395.2 263.1 395.5 262.7 395.8 260.9 396 260.2 396.2 260.3 396.5 260.9 396.7 260.1 396.9 258.7 397.1 261.7 397.3 262.8 397.4 264.2 397.6 265.2 397.7 266.8 397.9 265.4 398.1 264.6 398.2 262.5 398.5 262.5 398.6 265.4 398.7 261.2 398.8 260 398.8 256.7 398.8 255.7 398.8 253.9 398.8 255.4 398.8 255.5 398.8 251.6 398.9 250.1 398.9 251.7 398.9 250.6 398.9 248.7 398.9 250.3 399 250.5 399 253.7 399 252.4 399 250.7 399.1 250 399.1 247.4 399.1 246.7 399.2 247.6 399.2 248 399.2 246.9 399.3 245.9 399.3 245.2 399.4 243 399.4 243.4 399.5 244.6 399.5 246 399.6 246.6 399.6 249.3 399.7 250 399.7 249.9 399.8 249.7 399.9 246.6 400 245.1 400.1 244.1 400.2 241.7 400.3 239.9 400.3 238.5 400.3 240 400.4 242 400.5 241.5 400.6 240.8 400.6 241.2 400.7 241.4 400.8 241.3 400.9 244.8 401 243 401 239.4 401 238 401.1 241.1 401.1 241.3 401.1 242.1 401.2 242.8 401.3 241.6 401.4 242.6 401.5 240.2 401.7 239.6 401.8 239.9 401.9 239.8 402 239.8 402.1 237.7 402.3 239 402.3 239.8 402.5 238.5 402.7 235.8 402.8 235.3 403 236.4 403.1 239 403.2 241.2 403.4 242.1 403.6 241.4 403.8 240.9 404 237.5 404.1 238.9 404.3 236.8 404.4 237 404.6 235.8 404.8 234 404.9 236 405.1 237.1 405.2 236.5 405.4 235 405.5 234.1 405.6 234.1 405.7 233 405.8 233.8 405.9 236.9 406 237.4 406.2 235.8 406.3 236.9 406.4 239.9 406.5 240.8 406.6 242.6 406.8 241.1 407.1 237.9 407.2 241 407.3 242.1 407.4 240.8 407.5 240.9 407.6 242.8 407.8 241.8 407.9 241.6 408.1 240.3 408.2 241.6 408.3 243.3 408.4 243.6 408.6 245.1 408.7 243.3 408.8 241.5 409 243.7 409.2 243.4 409.4 244.7 409.5 245.9 409.6 246.1 409.7 244.2 409.8 243.9 409.9 245.8 410 248.7 410.1 250.3 410.1 251.3 410.3 250.5 410.4 248.8 410.5 249.8 410.6 250.8 410.7 248.8 410.8 249.5 410.9 247.8 411.1 247.3 411.2 248 411.5 247.1 411.7 244.7 411.8 247.4 412.1 248.9 412.3 249.2 412.5 248.3 412.8 247.5 413 246.1 413.2 246 413.4 245.4 413.5 246.4 413.8 246.6 414 246 414.2 247.2 414.5 247 414.7 245.7 414.9 245.6 415.1 242.8 415.3 243.9 415.5 245.6 415.8 245.2 416 243.9 416.3 245.4 416.5 244.5 416.7 244.9 416.9 241.1 417 242.2 417.3 242.9 417.4 241.4 417.6 240.3 417.8 239 418 239 418.2 237.6 418.3 241 418.5 240.3 418.7 240.5 418.8 239.7 419 237.6 419.2 237.5 419.4 236.8 419.6 236.7 419.9 238.3 420.1 239.4 420.4 239.3 420.6 237.4 420.9 235.8 421.1 236.9 421.3 239.2 421.5 239.9 421.8 239.2 422.1 242.7 422.1 241.6 422.1 244.7 422.2 244.3 422.4 246.1 422.5 247.3 422.6 250.3 422.6 254 422.6 250.4 422.7 247.7 422.9 247.7 423.1 245.4 423.2 248.1 423.4 244.1 423.6 245.7 423.8 245.2 423.9 242.4 424 241.2 424.2 243.9 424.3 244 424.4 244 424.6 245.8 424.8 246.1 424.9 245.2 424.9 240.9 424.9 239.4 424.9 238.4 425 238.2 425 240.2 425 241.2 425 242.1 425.1 241.5 425.1 242.9 425.2 239.9 425.2 239.5 425.3 241.1 425.3 238.9 425.4 238.5 425.5 237.5 425.5 237.4 425.6 237.9 425.7 238.8 425.7 240.4 425.8 240 425.9 243.6 426 242.8 426.1 243.8 426.1 241.1 426.2 240.2 426.3 241.3 426.5 244.2 426.6 243.5 426.7 241.9 426.8 239.9 427 238.2 427.1 239.5 427.3 239.4 427.5 239.1 427.7 238.4 427.9 237.4 428 238.1 428.2 239.9 428.3 237.9 428.5 238.4 428.7 239 428.9 236.3 429 233.9 429 232.3 429.1 234.4 429.3 235.3 429.5 233.5 429.6 232.7 429.8 234.6 429.9 233.6 430 231.1 430.1 229 430.1 229.8 430.2 229.4 430.4 229.2 430.5 228.2 430.6 228 430.8 226.7 430.9 225.9 431.1 229.3 431.3 227.3 431.5 225.9 431.7 224.6 431.9 223.5 432.1 221.4 432.2 223.1 432.4 223.7 432.5 222.4 432.7 224.4 433 224.9 433.3 223.2 433.6 223 433.9 221.7 434.3 224.5 434.8 223.9 435.2 223.7 435.7 223.7 436.3 223.5 436.8 224.2 437.2 224 437.6 223.1 438.1 223.6 438.4 224.4 438.9 224.1 439.3 224.1 439.6 228.3 439.9 227.8 440.2 230.4 440.5 231 440.6 231.9 440.8 230.5 441.1 231.7 441.4 229.5 441.7 232.5 441.9 232.9 442.2 234.3 442.4 235.7 442.6 236.7 442.7 236.1 442.9 234.1 443.1 232.1 443.4 235.7 443.4 237.1 443.5 239.7 443.6 238.3 443.9 238.2 444.1 237.9 444.3 240 444.5 241.3 444.5 245 444.6 242.4 444.7 244.1 444.8 244.9 444.8 247.9 444.8 246.8 444.9 246.9 444.9 244 445.1 244.8 445.2 246.7 445.3 246.4 445.4 245.7 445.6 246.3 445.8 247.3 445.9 248.4 446 247.6 446.1 247.9 446.2 249.4 446.4 248.3 446.5 249 446.7 245.8 446.9 245.2 447.1 245 447.4 242.7 447.7 241.9 447.9 239.4 448.2 239.9 448.4 242.9 448.6 244.2 448.8 245.5 448.9 246 449 247 449.1 249.1 449.2 248.9 449.3 246.6 449.4 248.1 449.6 245.5 449.8 243.2 450 243.1 450.2 242 450.4 242.7 450.7 243.7 450.9 246.2 451.2 245.9 451.4 247.2 451.7 248.5 451.9 248.1 452.2 248.9 452.4 248.5 452.5 247.3 452.6 248.2 452.7 252.1 452.7 249.7 452.8 250.7 452.8 245.7 452.9 246.5 453 247.1 453.1 247.6 453.2 247.9 453.4 245.1 453.4 242.1 453.5 242.1 453.7 243.8 453.8 246.4 453.9 243.6 454.1 245 454.3 245.5 454.5 246.9 454.7 245.7 454.9 244.2 455 244.6 455.1 240.4 455.2 238.6 455.3 239.2 455.5 239.9 455.6 237.5 455.8 237.4 455.8 234.6 455.8 237.1 455.9 235.9 456 236.9 456.2 237.6 456.4 234.8 456.5 239.5 456.6 242.6 456.6 238 456.7 237.3 456.9 236.5 457 237 457.2 238.1 457.4 237 457.7 237.7 457.9 236.4 458.2 237.3 458.5 239.2 458.8 239 459.2 237.9 459.5 239.3 459.6 241.6 459.6 241.5 459.7 243.6 459.8 242.4 460 241.1 460.2 242 460.6 241.6 461.1 239.7 461.5 240.9 461.8 239.8 462.4 238.8 462.9 239.9 463.4 240.1 464 238.7 464.6 239.4 464.9 241.1 465.2 241.3 465.5 240.6 465.8 241.2 466.2 240.8 466.5 242 466.9 241.2 467.3 239.1 467.6 238.4 468 239.9 468.4 241.3 468.8 242.2 469.2 242.9 469.6 240.7 470.1 240.8 470.5 239 470.9 240 471.4 239.4 471.8 240.9 472.2 241.3 472.4 238.4 472.7 238.5 473.1 237.8 473.6 237.6 474 236.1 474.2 235 474.4 233.2 474.5 232.6 474.7 234.1 475 235 475.4 237.6 475.7 237.2 476.2 238.9 476.6 239.9 477 241 477.5 241.3 477.7 242.5 478.2 241.4 478.6 243.1 479 245.4 479.1 245.7 479.4 244.6 479.7 246.9 480 246.7 480.2 245.7 480.3 246.2 480.5 247.8 480.5 250.7 480.5 247.9 480.7 246.8 480.8 244.5 480.9 243.4 481.1 244.8 481.4 245.8 481.6 247.4 481.7 248.7 481.9 249.8 482 247.2 482.2 250.1 482.3 248.8 482.5 250.3 482.6 251 482.8 252.5 482.9 250.9 483.1 250.3 483.2 251.5 483.5 250.6 483.7 251.5 484 250.2 484.2 252.6 484.4 254.1 484.5 254 484.7 254.2 485 252.1 485.2 250.5 485.5 251 485.8 250.1 486 250.5 486.4 248.9 486.7 250.2 487.2 249.4 487.5 251 487.7 248.8 488.2 251.1 488.2 253.5 488.3 253.4 488.5 251.2 488.7 251.5 488.9 252.7 489.1 252.5 489.4 249.6 489.9 252.1 490.4 251 490.9 253 491.3 250.9 491.8 251 492.3 251.2 492.6 250.7 492.9 251.9 493.4 252.4 493.9 251 494.3 248.3 494.7 248.7 495.2 250.3 495.8 249.6 496.4 250 497 249.3 497.7 250.9 498.1 251.9 498.6 251.4 499 253.7 499.3 251.6 499.8 250.4 500.3 248.9 500.7 252.7 501.3 251.7 501.7 251.8 502.2 253.4 502.7 251.7 503.1 253.4 503.2 263.5 503.2 259 503.2 259.1 503.3 259.3 503.3 258.3 503.4 252.9 503.4 252.2 503.5 251.1 503.5 250.2 503.6 250.2 503.8 249.6 504 247.2 504.1 246.6 504.3 247.6 504.7 247.1 505 247.7 505.4 248.4 505.8 247.3 506.1 244.8 506.4 246.7 506.8 246.5 507.2 248.5 507.6 248.6 507.8 247.7 508 247.4 508.2 249.7 508.4 251.1 508.5 252.3 508.6 253.7 508.8 252.4 508.9 252.9 509.1 249.5 509.2 249.9 509.4 251.3 509.6 253.9 509.8 252.6 510 255.4 510.1 254.5 510.2 257.5 510.3 258.6 510.4 260.7 510.5 260.2 510.5 262.6 510.6 263.1 510.7 264.4 510.7 262.3 510.8 261.9 510.9 262.8 511 264 511.1 264.7 511.2 265.8 511.3 264.7 511.4 262 511.5 262.3 511.6 260.5 511.8 257.6 511.9 259.9 512 259.7 512.1 258.6 512.3 259 512.5 261.6 512.8 261.7 513.1 263.6 513.2 264.6 513.4 264.3 513.6 262.9 513.8 261.8 513.9 262.7 514.1 264.6 514.3 265.1 514.5 267.1 514.6 266.6 514.8 267.6 514.8 268.2 515 268.2 515.1 265.8 515.3 267.1 515.5 267.1 515.7 267.6 515.9 269.3 515.9 268 516.1 267.2 516.3 268 516.6 268.2 516.9 267 517.5 264.8 517.9 266.2 518.5 266.8 518.9 265.9 519.4 265.2 519.9 264.7 520.2 263.6 520.6 262.7 521.1 261.6 521.4 262.5 522 264.3 522.5 265.1 523.1 264.4 523.5 264.4 524.1 265.5 524.6 265.3 525.2 266.1 525.6 267.6 525.9 268.6 526.3 268.7 526.6 269.7 527 269.9 527.1 271.8 527.3 274.1 527.4 274.5 527.4 276.8 527.5 277.3 527.6 276.4 527.7 279.4 527.7 279 527.8 279 527.9 280 528 280.1 528 282.1 528.1 283 528.1 282.2 528.2 281.3 528.3 282.9 528.4 283.5 528.5 284.6 528.6 284.3 528.7 284.9 528.9 284.9 529 286.8 529.1 287.6 529.1 288 529.2 287.7 529.3 290.5 529.4 289.6 529.4 289.3 529.5 288 529.6 288.6 529.7 287.7 529.9 290.3 530.1 290.9 530.2 289.2 530.4 288.6 530.6 287.2 530.8 284.7 530.9 281.1 531.1 283.9 531.3 285.2 531.6 286.1 531.7 287.8 531.8 289 531.9 288.3 532.1 287.4 532.3 286.2 532.5 285.7 532.6 285.6 532.7 281.8 532.8 280.2 532.8 278.8 533 277.9 533.1 279.9 533.3 281.8 533.5 281 533.7 279.4 534 280 534.3 280.1 534.7 280.8 535 281.6 535.3 281.3 535.4 280.4 535.5 278.5 535.6 281.5 535.7 283.9 535.8 280.3 535.9 280.4 536.1 282 536.2 281.7 536.5 283.2 536.6 285.5 536.8 283.3 536.9 281.2 537.1 283.3 537.3 281.5 537.5 282.8 537.7 282.8 537.9 281.8 538.1 280.2 538.3 276.9 538.3 275.4 538.4 276.4 538.6 277 538.7 277.7 538.9 279.1 539.2 280.1 539.5 278.4 539.8 279.2 540.2 278.7 540.5 277.8 540.8 277 541 276.3 541.4 277.4 541.8 277.5 542.1 278.7 542.4 280.4 542.9 279.3 543.4 276.1 544 276.8 544.4 276 545.1 275.1 545.6 276.9 546.3 277.8 547 278.3 547.7 279.1 548.4 277.8 549.1 276.2 549.9 275.7 550.5 277.7 551.5 277.1 552.1 278.8 552.9 279.6 554 278.6 554.6 276.1 555.4 275.8 555.6 272.7 555.8 274.4 556.3 273.5 556.7 275.4 557.2 275.2 557.9 275.1 558.5 274.4 559.2 274.9 560 275.4 560.6 275.4 561.3 275 562 276.1 562.6 277.4 563.1 278.8 563.6 279.3 564 278.9 564.5 277.6 565.2 277.5 565.9 277.8 566.5 280.1 567.1 279.1 567.6 276.9 568.3 276.2 569.3 276.6 570.2 275.6 571 274.1 571.9 276.2 572.9 274.6 574.1 275.7 575.2 276 575.9 277.4 576.6 277.1 577.6 276 578.5 276.3 579.3 274.3 580.1 274.6 581.2 274.4 582.1 275.9 582.8 278 583.5 278.6 584.1 278.9 584.6 275.4 584.7 278.9 584.9 279.2 585.4 280.1 585.9 280.9 586.2 277.7 586.3 275.5 586.4 274.9 586.6 275.6 586.9 275.3 587.1 271.3 587.2 273.1 587.5 272.7 587.8 270.8 588 270.4 588.3 271.2 588.9 272 589.5 272.4 590.1 271.3 590.6 270.5 590.9 269.5 591.1 267.3 591.3 268.5 591.6 266.6 591.8 267.6 592.3 267.3 592.8 267.9 593.5 268.5 594.2 270.2 594.6 269 594.9 267.1 595.3 268 596 267.9 596.9 267.1 597.6 267.4 598.5 268 599.4 267.6 600.3 268.7 601 267.5 601.9 268.6 602.7 270.1 603.1 273.1 603.2 275.2 603.5 273.6 604 273 604.5 273.5 605.2 274.8 605.7 271.7 606.2 271.8 606.9 269.5 607.1 265.7 607.2 263.4 607.3 262.8 607.4 264.2 607.8 263.4 608.3 263.5 608.7 265.4 609.2 265.6 609.6 265 610 263.7 610.3 261.8 610.7 264.2 611.2 263.5 611.8 265.1 612.3 266.6 612.7 266.2 613.3 266.8 613.8 267.5 614.4 267.2 614.9 266.1 615.3 267.9 615.8 268.6 616.3 267.5 616.9 267.5 617.5 269.3 618 269.7 618.4 267.6 618.6 267.1 619 267.9 619.3 267.4 619.8 267.8 620.2 268.5 620.6 268.6 621 268.7 621.1 272.3 621.1 272.7 621.3 271.3 621.5 271.5 621.7 274 622 274 622.2 272.4 622.6 272.6 623 274.2 623.5 272.6 624.1 272.8 624.8 272.9 625.5 269.8 626 270.6 627 269.6 627.7 272.3 628.6 272.4 629.6 272.4 630.5 274 631.1 273.3 631.7 275.2 632.4 276.3 632.8 277.8 633.2 277.6 633.8 278.6 634.5 279 634.9 281.9 635 282.5 635.1 283.1 635.4 282.7 635.6 284.4 635.9 285.3 636.2 284.5 636.6 283.9 637.2 285.1 637.7 283.5 638.3 283.1 639 282 639.6 282.2 640.3 283.6 641 281.3 641.5 280.6 642.2 281.9 642.7 279.3 643.2 279.6 643.8 278.7 644.5 277.1 644.8 276.4 645.2 277.6 645.5 278 645.9 278.8 646.1 279.6 646.4 279.8 646.6 276.5 646.7 274.7 646.8 274.1 647.1 275.3 647.3 273.6 647.5 271 647.5 270.4 647.6 270.8 647.7 268.9 647.8 268.8 648 267 648.1 266.4 648.3 269 648.5 266.9 648.7 266.5 648.9 266.5 649.2 266.5 649.5 268 649.7 269.2 649.8 272.5 649.9 272.1 650 271.8 650.2 274.2 650.3 274 650.5 272.7 650.7 271.2 651.1 271.4 651.4 272.4 651.8 271.9 652.5 270.6 653.1 271.2 653.5 274 653.7 275.2 654.1 275.5 654.7 276.1 654.8 279.1 655.1 277.5 655.7 277.7 656.1 279.6 656.2 280.6 656.4 280.7 656.8 281.4 657.2 280.9 657.4 284.9 657.7 285 658 283.5 658.3 284.1 658.6 285.8 658.7 285.4 659 286.6 659.3 284.5 659.7 285.7 660.2 284.6 660.8 284.4 661.5 286.2 662 287 662.6 284.4 663.3 284.4 664 285.5 664.2 286.6 664.8 286.3 665.6 285.3 666.2 286.8 666.8 285.1 667.4 285 667.9 283.3 668.5 285 669.1 286.6 669.6 285.6 670.2 287.1 670.6 289.8 670.6 287.4 670.8 285 670.9 283.9 671.2 284.2 671.6 284.2 672 282.8 672.5 283.4 673 284.3 673.5 285.7 673.7 285.6 673.9 282.6 674.1 284.7 674.4 287.3 674.5 287.3 674.7 286.8 674.9 287.7 675.1 284.9 675.2 283.3 675.4 285 675.6 286.1 675.9 284.6 676.2 284.7 676.6 285.7 676.9 286.7 676.9 285.6 677.2 284.7 677.5 285.8 678 286.6 678.4 287.6 678.8 287.9 679 288.1 679.3 287.9 679.6 289 679.9 287.2 680.3 287.6 680.8 289.2 680.8 292.5 680.9 291.1 681.1 291.9 681.3 292.6 681.6 291.8 682 293.4 682.1 294.7 682.3 297.4 682.3 298.1 682.3 297.5 682.5 295.9 682.7 297.6 683 296.7 683.3 295 683.6 296.8 683.9 296.3 684.2 296.2 684.5 294.6 684.9 292.1 685.6 292.3 686.2 291.1 686.8 291.4 687.3 290.9 688.1 290.7 688.8 290.8 689.8 291 690.8 290.1 691.7 289.1 692.6 287.6 692.8 285.6 693.3 284.5 693.9 285.2 694.6 284.4 695.2 284.3 696 285.1 696.6 284.7 697.4 283.9 698.2 285.4 699 286.1 699.4 287.7 700 287.6 700.7 288.2 701.1 286.1 701.4 285.9 701.8 287.3 702.1 286.6 702.6 286.3 703 284.4 703.4 284.6 703.8 284.3 704.2 284.1 704.7 284.3 705 282.1 705.2 284 705.7 282.9 706.2 282.4 706.8 284.2 707.5 286.1 708.2 286.4 708.7 287.7 709.5 288.3 709.7 289.4 710.6 290.3 711.4 290.2 712.3 291.6 712.9 290.5 713.4 290.1 713.8 289.7 714.2 289.2 714.9 290.8 715.9 290.5 716.8 289.6 717.9 288.9 718.3 285.3 718.5 283.9 718.9 284.8 719.5 284.2 720.1 283.8 720.9 283.9 721.7 284.3 722.3 285.3 722.9 284.9 723.6 284.1 724.3 283.7 725.2 284.3 726.1 284.9 726.8 285.5 727.4 284.9 727.5 281.1 727.5 280.4 727.5 281.4 727.6 282.6 727.9 283.4 728.3 283.4 728.7 283.3 729 284.8 729.2 283.5 729.5 284.7 729.7 288.3 730 287.8 730.4 287.9 730.7 286.6 731.2 288.8 731.7 288.7 732.2 289.6 732.7 288.2 733.4 288.3 734.3 287.4 735.2 285.1 735.9 284.6 736.5 284.6 737.1 283.9 737.8 284.2 738.8 283.9 739.9 285.3 740.9 285.4 741.7 285.6 742.5 285.1 743.4 286.1 744.4 287.3 745.4 287.4 746.3 287.2 747.3 287.5 748.4 287.9 749.4 286 749.8 287.3 750.8 286.6 751.7 287.2 752.5 288.5 753.5 287.8 754.6 287.3 755.4 285.1 755.8 285.5 756.6 285.6 757.4 284.9 758.1 285.2 759 284.7 759.8 285.1 760.7 284.8 761.8 283.9 762.3 282.4 762.9 281.9 763.4 281.8 764.3 281.6 765 282.5 766.1 282.7 767.1 281.5 768.4 282.2 769.1 281.1 770 283.8 770.7 284.9 771.6 286.5 772.4 286.3 773.3 286.1 774.1 285.8 775 283.1 775.9 283.6 777 282.6 777.6 279.7 777.7 276.6 777.8 277 778.1 279 778.5 277.8 778.8 278.1 779.2 277.4 779.4 278 779.9 277.6 780.6 278.1 781.4 278.6 781.8 276.1 781.9 273.3 782.1 273 782.3 273.8 782.6 274.1 783.1 273.3 783.4 273 783.6 270.9 783.9 270.2 784.1 269.7 784.4 270.4 784.7 269.9 785.1 271.4 785.7 272.1 786 273.3 786.7 272.3 787.3 273.8 788 274.5 789 274.1 790 273.8 790.9 274 791.8 275.8 792.6 275.5 793.4 274.1 793.7 268.1 793.7 269.8 793.8 269.9 794 270.8 794.4 270.5 794.7 267.7 795 268.2 795.3 265.3 795.5 265.7 795.9 266.3 796.2 266.6 796.5 266 796.9 266.3 797.4 267.1 797.8 265.4 798.3 264.2 798.8 264.4 799.3 265.4 799.8 265.9 800.6 266.8 801.4 265.4 801.9 263.4 802.2 262.8 802.7 264.5 803.3 265 803.8 264.1 804.2 264.8 804.7 265.1 804.9 266.8 805.3 265.6 805.7 268.4 806.1 267.8 806.3 270.7 806.6 270 806.9 271 807.3 271 807.8 270.2 808.4 269.5 809 270.4 809.4 270 810 270.8 810.5 272.7 811.2 271.3 811.6 272.2 811.8 273 812.1 271.5 812.4 273.3 812.8 272.2 813.3 272.8 813.6 272.4 814 271.2 814.5 270.5 814.9 269.8 815.3 268.5 815.7 268.3 816.2 268.9 816.8 267.8 817.4 268.5 818 268.9 818.6 269.6 819.1 270.4 819.7 270.7 820.3 270.7 820.8 271.3 821.6 270.9 822.2 273.2 822.7 275.1 823.2 273.2 823.9 272.9 824.4 273.7 825 272.4 825.8 271.7 826.5 273.2 827 273.9 827.5 274.7 828 275.5 828.5 274.2 829.2 272.5 829.8 273.7 830.2 277.3 830.4 277.7 830.8 277.4 831.3 275 831.6 272.3 832 273.2 832.6 272.7 833.2 273.7 833.6 271.1 834.3 272.7 835 273.3 835.7 274.5 836.5 274.4 837 274.5 837.4 273 837.5 275 838.1 274.9 838.6 273.1 839 272.2 839.3 273.4 839.7 272.8 840 272.2 840.3 274.4 840.5 276.1 840.5 279.6 840.6 278.5 840.7 277.4 841 276.2 841.3 277.4 841.5 278.5 841.9 278 842.3 279.1 842.6 276.8 842.9 276.4 843.4 276.5 844 276.7 844.6 276.9 845.1 279.1 845.7 279.8 845.9 281.1 846.1 280.7 846.4 283.7 846.6 283.3 846.7 286.2 846.8 285.7 846.9 286.8 847 287.7 847.1 287.4 847.2 288.2 847.3 286.5 847.6 287 847.8 287.6 847.9 289.2 848.2 288.1 848.4 287.2 849 287 849.5 285.2 850 285 850.9 285.1 851.5 284.8 852.2 286.6 852.9 286.8 853.7 286 854.7 286.1 855.7 285.6 856.5 285 857.3 284.3 858.1 284.6 859.2 284.6 860.1 285 860.9 284.5 861.8 285.9 862.5 285 863.3 283.1 863.9 283.7 864.5 281.6 865.4 282 866.2 282.5 866.7 280.7 867 281.4 867.3 282.7 867.5 283.3 867.9 284.6 868.4 284.3 868.8 283.5 869.1 285.3 869.4 286.3 869.7 286.8 870 284.1 870.6 284.5 871.3 283.7 871.6 280 871.9 278.3 871.9 278.4 872 279.7 872.2 279.6 872.4 278.1 872.6 278.6 872.6 281.2 872.6 280.1 872.6 282 872.6 287 872.7 284.8 872.7 286.3 872.7 285.8 872.7 283.2 872.8 282.8 872.9 280.3 872.9 278.2 873 279.4 873.1 279.2 873.3 276.5 873.4 277.6 873.6 279 873.8 280.8 874 278.8 874.2 278.1 874.4 279.2 874.6 277.1 874.9 276 875.4 276.9 876 276.5 876.6 278.4 877.5 278.4 878.1 280.7 878.4 283.9 878.9 284.2 879.2 282.5 879.6 283 880.1 282.6 880.6 281.5 881.2 281.7 881.7 279.5 882.4 278.6 883 280 883.5 283.2 883.7 286.1 883.9 287.7 883.9 290.1 884 290.1 884.1 289 884.1 285.2 884.2 286.7 884.4 286.5 884.6 288.5 885 288.6 885.3 286.4 885.5 283.7 885.8 282.5 886.1 284.2 886.6 281.8 887 282.1 887.4 280.3 888 280.3 888.3 282 889 282.6 889.5 285.8 889.9 285.8 890.4 285.4 890.9 286.5 891.3 287.6 891.6 288.9 892.1 288.6 892.5 288.4 892.8 289.4 893 291.2 893.1 292.7 893.2 292.1 893.4 294.9 893.4 296.2 893.5 296.2 893.7 295.6 893.8 295.7 894.1 296.1 894.3 296.1 894.4 297.3 894.5 299.8 894.5 299.2 894.6 297.4 894.8 298.3 895 299.5 895.1 299.5 895.3 299.4 895.5 300.7 895.6 299.5 895.9 300 896.1 300.4 896.2 301.5 896.4 302.9 896.6 301.8 896.8 302.6 897 303.8 897.2 304.1 897.3 302.7 897.6 303.6 897.8 303.3 898.1 303.6 898.4 305.3 898.5 305.8 898.7 306.3 898.9 307.4 899.1 308 899.2 304.8 899.5 305.3 900 306.6 900.3 308.4 900.6 307.9 900.8 307.5 901.1 308.5 901.4 310.3 901.5 311.4 901.6 311.8 901.7 312 901.8 312.6 901.9 311.1 902.1 309.1 902.4 309.9 902.5 308.4 902.8 308.1 903.2 307.3 903.7 307.2 904.3 306.7 905 306.4 905.6 306.7 906.1 305.8 906.6 304.3 907.1 304.7 907.5 302.8 907.9 301.4 908.4 301.6 908.9 303.1 909.4 303.2 910 303.5 910.6 302.7 911.1 301.5 911.5 300.5 912 300.4 912.6 301.7 913.4 301.4 914 301.2 914.7 300.4 915.2 301.8 915.7 302 916.3 302.4 916.9 302.2 917.7 302.9 918.6 303 919.4 303.1 920 300.1 920.3 299.6 920.8 298.9 921.2 300.6 921.8 299.7 922.1 301.5 922.4 299.9 922.7 300.8 923.1 302.3 923.4 301.2 923.8 300.2 924.1 299.8 924.5 300.4 924.8 302.7 925.1 303.9 925.5 304 925.8 306.8 926 308.1 926.3 307.8 926.5 308.2 926.8 308 927.1 307.1 927.5 306.7 927.8 306.5 928.1 306.7 928.6 306.4 929 303.8 929.2 302.3 929.6 302.7 930.4 303.9 931 304.9 931.9 303.5 933.1 303.3 934 303.7" opacity=".6"/><text x="942" y="472" fill="#d97706" font-size="11" text-anchor="start">6.58</text><text x="942" y="396" fill="#d97706" font-size="11" text-anchor="start">11.95</text><text x="942" y="320" fill="#d97706" font-size="11" text-anchor="start">17.31</text><text x="942" y="244" fill="#d97706" font-size="11" text-anchor="start">22.68</text><text x="942" y="168" fill="#d97706" font-size="11" text-anchor="start">28.04</text><text x="942" y="92" fill="#d97706" font-size="11" text-anchor="start">33.41</text><text x="942" y="80" fill="#d97706" font-size="11" font-weight="600" text-anchor="start">price</text><polygon fill="#16a34a" fill-opacity=".08" points="271 468 271 120.9 271 121.3 351 120 351 120.2 351 119.4 351.1 118.9 351.1 118.5 351.1 118.6 351.1 118.7 351.1 118.2 351.1 117.9 351.1 118 351.1 117.4 351.3 117.6 364.6 116.9 682.3 116.1 704.9 116.3 895.3 116.6 895.3 468"/><polyline fill="none" stroke="#16a34a" stroke-linejoin="round" stroke-width="2" points="271 120.9 271 121.3 351 120 351 120.2 351 119.4 351.1 118.9 351.1 118.5 351.1 118.6 351.1 118.7 351.1 118.2 351.1 117.9 351.1 118 351.1 117.4 351.3 117.6 364.6 116.9 682.3 116.1 704.9 116.3 895.3 116.6"/><line x1="88" x2="110" y1="102" y2="102" stroke="#16a34a" stroke-width="2.5"/><text x="116" y="106" fill="#374151" font-size="11.5">equity</text><line x1="88" x2="110" y1="118" y2="118" stroke="#d97706" stroke-width="2.5" opacity=".8"/><text x="116" y="122" fill="#374151" font-size="11.5">price</text><text x="78" y="502" fill="#6b7280" font-size="12" text-anchor="start">2025-10-01</text><text x="934" y="502" fill="#6b7280" font-size="12" text-anchor="end">2025-10-31</text></svg>