<?xml version="1.0" encoding="UTF-8"?>
<svg xmlns="http://www.w3.org/2000/svg" width="1100" height="560" viewBox="0 0 1100 560" font-family="ui-sans-serif, system-ui, sans-serif">
  <rect width="1100" height="560" fill="#ffffff"/>
  <text x="80" y="28" font-size="18" font-weight="700" fill="#111827">Zone Recovery — AVAXUSDT fee-tier comparison (best setting)</text>
  <text x="80" y="48" font-size="12.5" fill="#6b7280">lev 5 · ratio 3 · gap 35% · maxSteps 4 · maxDD 20% · random  ·  equity per fee tier vip 0..9</text>
  <text x="80" y="68" font-size="12.5" font-weight="600" fill="#1d4ed8">USDT margin · BNB −10%</text>
  <line x1="80" y1="508.0" x2="932" y2="508.0" stroke="#e5e7eb" stroke-width="1"/><text x="70" y="512.0" text-anchor="end" font-size="12" fill="#6b7280">0.00</text><line x1="80" y1="424.0" x2="932" y2="424.0" stroke="#e5e7eb" stroke-width="1"/><text x="70" y="428.0" text-anchor="end" font-size="12" fill="#6b7280">21898617</text><line x1="80" y1="340.0" x2="932" y2="340.0" stroke="#e5e7eb" stroke-width="1"/><text x="70" y="344.0" text-anchor="end" font-size="12" fill="#6b7280">43797235</text><line x1="80" y1="256.0" x2="932" y2="256.0" stroke="#e5e7eb" stroke-width="1"/><text x="70" y="260.0" text-anchor="end" font-size="12" fill="#6b7280">65695852</text><line x1="80" y1="172.0" x2="932" y2="172.0" stroke="#e5e7eb" stroke-width="1"/><text x="70" y="176.0" text-anchor="end" font-size="12" fill="#6b7280">87594470</text><line x1="80" y1="88.0" x2="932" y2="88.0" stroke="#e5e7eb" stroke-width="1"/><text x="70" y="92.0" text-anchor="end" font-size="12" fill="#6b7280">109493087</text>
  <line x1="80" y1="124.4" x2="932" y2="124.4" stroke="#9ca3af" stroke-width="1.5" stroke-dasharray="6 4"/>
  <polyline points="80.0,124.4 80.0,124.8 189.2,123.4 189.2,123.7 189.3,122.7 189.3,122.1 189.3,121.7 189.3,121.8 189.4,122.0 189.4,121.4 189.4,121.0 189.4,121.2 189.4,120.5 189.7,120.7 207.7,119.9 641.2,119.1 672.2,119.4 932.0,119.6" fill="none" stroke="#2563eb" stroke-width="1.8" stroke-linejoin="round" opacity="0.9"/>
  <polyline points="80.0,124.4 80.0,124.8 189.2,123.4 189.2,123.7 189.3,122.7 189.3,122.1 189.3,121.7 189.3,121.8 189.4,122.0 189.4,121.4 189.4,121.0 189.4,121.2 189.4,120.5 189.7,120.7 207.7,119.9 641.2,119.1 672.2,119.4 932.0,119.6" fill="none" stroke="#dc2626" stroke-width="1.8" stroke-linejoin="round" opacity="0.9"/>
  <polyline points="80.0,124.4 80.0,124.8 189.2,123.4 189.2,123.6 189.3,122.7 189.3,122.1 189.3,121.7 189.3,121.8 189.4,122.0 189.4,121.4 189.4,121.0 189.4,121.2 189.4,120.5 189.7,120.7 207.7,119.9 641.2,119.1 672.2,119.3 932.0,119.6" fill="none" stroke="#16a34a" stroke-width="1.8" stroke-linejoin="round" opacity="0.9"/>
  <polyline points="80.0,124.4 80.0,124.8 189.2,123.4 189.2,123.6 189.3,122.7 189.3,122.1 189.3,121.7 189.3,121.8 189.4,122.0 189.4,121.4 189.4,121.0 189.4,121.2 189.4,120.5 189.7,120.7 207.7,119.9 641.2,119.1 672.2,119.3 932.0,119.6" fill="none" stroke="#d97706" stroke-width="1.8" stroke-linejoin="round" opacity="0.9"/>
  <polyline points="80.0,124.4 80.0,124.8 189.2,123.4 189.2,123.6 189.3,122.7 189.3,122.1 189.3,121.7 189.3,121.8 189.4,122.0 189.4,121.4 189.4,121.0 189.4,121.2 189.4,120.5 189.7,120.7 207.7,119.9 641.2,119.1 672.2,119.3 932.0,119.6" fill="none" stroke="#7c3aed" stroke-width="1.8" stroke-linejoin="round" opacity="0.9"/>
  <polyline points="80.0,124.4 80.0,124.8 189.2,123.4 189.2,123.6 189.3,122.7 189.3,122.1 189.3,121.7 189.3,121.8 189.4,122.0 189.4,121.4 189.4,121.0 189.4,121.2 189.4,120.5 189.7,120.7 207.7,119.9 641.2,119.1 672.2,119.3 932.0,119.6" fill="none" stroke="#0891b2" stroke-width="1.8" stroke-linejoin="round" opacity="0.9"/>
  <polyline points="80.0,124.4 80.0,124.8 189.2,123.4 189.2,123.6 189.3,122.7 189.3,122.1 189.3,121.7 189.3,121.8 189.4,122.0 189.4,121.4 189.4,121.0 189.4,121.2 189.4,120.5 189.7,120.7 207.7,119.9 641.2,119.1 672.2,119.3 932.0,119.6" fill="none" stroke="#db2777" stroke-width="1.8" stroke-linejoin="round" opacity="0.9"/>
  <polyline points="80.0,124.4 80.0,124.8 189.2,123.4 189.2,123.6 189.3,122.7 189.3,122.1 189.3,121.7 189.3,121.8 189.4,122.0 189.4,121.4 189.4,121.0 189.4,121.2 189.4,120.5 189.7,120.7 207.7,119.9 641.2,119.1 672.2,119.3 932.0,119.6" fill="none" stroke="#65a30d" stroke-width="1.8" stroke-linejoin="round" opacity="0.9"/>
  <polyline points="80.0,124.4 80.0,124.8 189.2,123.4 189.2,123.6 189.3,122.7 189.3,122.1 189.3,121.7 189.3,121.8 189.4,122.0 189.4,121.4 189.4,121.0 189.4,121.2 189.4,120.5 189.7,120.7 207.7,119.9 641.2,119.1 672.2,119.3 932.0,119.6" fill="none" stroke="#475569" stroke-width="1.8" stroke-linejoin="round" opacity="0.9"/>
  <polyline points="80.0,124.4 80.0,124.8 189.2,123.4 189.2,123.6 189.3,122.7 189.3,122.1 189.3,121.7 189.3,121.8 189.4,122.0 189.4,121.4 189.4,121.0 189.4,121.2 189.4,120.5 189.7,120.7 207.7,119.9 641.2,119.1 672.2,119.3 932.0,119.6" fill="none" stroke="#ea580c" stroke-width="1.8" stroke-linejoin="round" opacity="0.9"/>
  <line x1="950" y1="94" x2="972" y2="94" stroke="#ea580c" stroke-width="3"/><text x="980" y="98" font-size="12.5" fill="#374151">vip 9  101255217</text>
  <line x1="950" y1="116" x2="972" y2="116" stroke="#475569" stroke-width="3"/><text x="980" y="120" font-size="12.5" fill="#374151">vip 8  101254454</text>
  <line x1="950" y1="138" x2="972" y2="138" stroke="#65a30d" stroke-width="3"/><text x="980" y="142" font-size="12.5" fill="#374151">vip 7  101253946</text>
  <line x1="950" y1="160" x2="972" y2="160" stroke="#db2777" stroke-width="3"/><text x="980" y="164" font-size="12.5" fill="#374151">vip 6  101253183</text>
  <line x1="950" y1="182" x2="972" y2="182" stroke="#0891b2" stroke-width="3"/><text x="980" y="186" font-size="12.5" fill="#374151">vip 5  101252675</text>
  <line x1="950" y1="204" x2="972" y2="204" stroke="#7c3aed" stroke-width="3"/><text x="980" y="208" font-size="12.5" fill="#374151">vip 4  101251913</text>
  <line x1="950" y1="226" x2="972" y2="226" stroke="#d97706" stroke-width="3"/><text x="980" y="230" font-size="12.5" fill="#374151">vip 3  101251404</text>
  <line x1="950" y1="248" x2="972" y2="248" stroke="#16a34a" stroke-width="3"/><text x="980" y="252" font-size="12.5" fill="#374151">vip 2  101249371</text>
  <line x1="950" y1="270" x2="972" y2="270" stroke="#2563eb" stroke-width="3"/><text x="980" y="274" font-size="12.5" fill="#374151">vip 0  101246830</text>
  <line x1="950" y1="292" x2="972" y2="292" stroke="#dc2626" stroke-width="3"/><text x="980" y="296" font-size="12.5" fill="#374151">vip 1  101246830</text>
  <text x="80" y="542" text-anchor="start" font-size="12" fill="#6b7280">2025-10-07</text><text x="932" y="542" text-anchor="end" font-size="12" fill="#6b7280">2025-10-30</text>
</svg>
