<svg xmlns="http://www.w3.org/2000/svg" width="1100" height="560" font-family="ui-sans-serif, system-ui, sans-serif" viewBox="0 0 1100 560"><rect width="1100" height="560" fill="#fff"/><text x="80" y="28" fill="#111827" font-size="18" font-weight="700">Zone Recovery — AVAXUSDT fee-tier comparison (best setting)</text><text x="80" y="48" fill="#6b7280" font-size="12.5">lev 5 · ratio 3 · gap 35% · maxSteps 4 · maxDD 20% · random · equity per fee tier vip 0..9</text><text x="80" y="68" fill="#1d4ed8" font-size="12.5" font-weight="600">USDT margin · BNB −10%</text><line x1="80" x2="932" y1="508" y2="508" stroke="#e5e7eb" stroke-width="1"/><text x="70" y="512" fill="#6b7280" font-size="12" text-anchor="end">0.00</text><line x1="80" x2="932" y1="424" y2="424" stroke="#e5e7eb" stroke-width="1"/><text x="70" y="428" fill="#6b7280" font-size="12" text-anchor="end">21898617</text><line x1="80" x2="932" y1="340" y2="340" stroke="#e5e7eb" stroke-width="1"/><text x="70" y="344" fill="#6b7280" font-size="12" text-anchor="end">43797235</text><line x1="80" x2="932" y1="256" y2="256" stroke="#e5e7eb" stroke-width="1"/><text x="70" y="260" fill="#6b7280" font-size="12" text-anchor="end">65695852</text><line x1="80" x2="932" y1="172" y2="172" stroke="#e5e7eb" stroke-width="1"/><text x="70" y="176" fill="#6b7280" font-size="12" text-anchor="end">87594470</text><line x1="80" x2="932" y1="88" y2="88" stroke="#e5e7eb" stroke-width="1"/><text x="70" y="92" fill="#6b7280" font-size="12" text-anchor="end">109493087</text><line x1="80" x2="932" y1="124.4" y2="124.4" stroke="#9ca3af" stroke-dasharray="6 4" stroke-width="1.5"/><polyline fill="none" stroke="#2563eb" stroke-linejoin="round" stroke-width="1.8" points="80 124.4 80 124.8 189.2 123.4 189.2 123.7 189.3 122.7 189.3 122.1 189.3 121.7 189.3 121.8 189.4 122 189.4 121.4 189.4 121 189.4 121.2 189.4 120.5 189.7 120.7 207.7 119.9 641.2 119.1 672.2 119.4 932 119.6" opacity=".9"/><polyline fill="none" stroke="#dc2626" stroke-linejoin="round" stroke-width="1.8" points="80 124.4 80 124.8 189.2 123.4 189.2 123.7 189.3 122.7 189.3 122.1 189.3 121.7 189.3 121.8 189.4 122 189.4 121.4 189.4 121 189.4 121.2 189.4 120.5 189.7 120.7 207.7 119.9 641.2 119.1 672.2 119.4 932 119.6" opacity=".9"/><polyline fill="none" stroke="#16a34a" stroke-linejoin="round" stroke-width="1.8" points="80 124.4 80 124.8 189.2 123.4 189.2 123.6 189.3 122.7 189.3 122.1 189.3 121.7 189.3 121.8 189.4 122 189.4 121.4 189.4 121 189.4 121.2 189.4 120.5 189.7 120.7 207.7 119.9 641.2 119.1 672.2 119.3 932 119.6" opacity=".9"/><polyline fill="none" stroke="#d97706" stroke-linejoin="round" stroke-width="1.8" points="80 124.4 80 124.8 189.2 123.4 189.2 123.6 189.3 122.7 189.3 122.1 189.3 121.7 189.3 121.8 189.4 122 189.4 121.4 189.4 121 189.4 121.2 189.4 120.5 189.7 120.7 207.7 119.9 641.2 119.1 672.2 119.3 932 119.6" opacity=".9"/><polyline fill="none" stroke="#7c3aed" stroke-linejoin="round" stroke-width="1.8" points="80 124.4 80 124.8 189.2 123.4 189.2 123.6 189.3 122.7 189.3 122.1 189.3 121.7 189.3 121.8 189.4 122 189.4 121.4 189.4 121 189.4 121.2 189.4 120.5 189.7 120.7 207.7 119.9 641.2 119.1 672.2 119.3 932 119.6" opacity=".9"/><polyline fill="none" stroke="#0891b2" stroke-linejoin="round" stroke-width="1.8" points="80 124.4 80 124.8 189.2 123.4 189.2 123.6 189.3 122.7 189.3 122.1 189.3 121.7 189.3 121.8 189.4 122 189.4 121.4 189.4 121 189.4 121.2 189.4 120.5 189.7 120.7 207.7 119.9 641.2 119.1 672.2 119.3 932 119.6" opacity=".9"/><polyline fill="none" stroke="#db2777" stroke-linejoin="round" stroke-width="1.8" points="80 124.4 80 124.8 189.2 123.4 189.2 123.6 189.3 122.7 189.3 122.1 189.3 121.7 189.3 121.8 189.4 122 189.4 121.4 189.4 121 189.4 121.2 189.4 120.5 189.7 120.7 207.7 119.9 641.2 119.1 672.2 119.3 932 119.6" opacity=".9"/><polyline fill="none" stroke="#65a30d" stroke-linejoin="round" stroke-width="1.8" points="80 124.4 80 124.8 189.2 123.4 189.2 123.6 189.3 122.7 189.3 122.1 189.3 121.7 189.3 121.8 189.4 122 189.4 121.4 189.4 121 189.4 121.2 189.4 120.5 189.7 120.7 207.7 119.9 641.2 119.1 672.2 119.3 932 119.6" opacity=".9"/><polyline fill="none" stroke="#475569" stroke-linejoin="round" stroke-width="1.8" points="80 124.4 80 124.8 189.2 123.4 189.2 123.6 189.3 122.7 189.3 122.1 189.3 121.7 189.3 121.8 189.4 122 189.4 121.4 189.4 121 189.4 121.2 189.4 120.5 189.7 120.7 207.7 119.9 641.2 119.1 672.2 119.3 932 119.6" opacity=".9"/><polyline fill="none" stroke="#ea580c" stroke-linejoin="round" stroke-width="1.8" points="80 124.4 80 124.8 189.2 123.4 189.2 123.6 189.3 122.7 189.3 122.1 189.3 121.7 189.3 121.8 189.4 122 189.4 121.4 189.4 121 189.4 121.2 189.4 120.5 189.7 120.7 207.7 119.9 641.2 119.1 672.2 119.3 932 119.6" opacity=".9"/><line x1="950" x2="972" y1="94" y2="94" stroke="#ea580c" stroke-width="3"/><text x="980" y="98" fill="#374151" font-size="12.5">vip 9 101255217</text><line x1="950" x2="972" y1="116" y2="116" stroke="#475569" stroke-width="3"/><text x="980" y="120" fill="#374151" font-size="12.5">vip 8 101254454</text><line x1="950" x2="972" y1="138" y2="138" stroke="#65a30d" stroke-width="3"/><text x="980" y="142" fill="#374151" font-size="12.5">vip 7 101253946</text><line x1="950" x2="972" y1="160" y2="160" stroke="#db2777" stroke-width="3"/><text x="980" y="164" fill="#374151" font-size="12.5">vip 6 101253183</text><line x1="950" x2="972" y1="182" y2="182" stroke="#0891b2" stroke-width="3"/><text x="980" y="186" fill="#374151" font-size="12.5">vip 5 101252675</text><line x1="950" x2="972" y1="204" y2="204" stroke="#7c3aed" stroke-width="3"/><text x="980" y="208" fill="#374151" font-size="12.5">vip 4 101251913</text><line x1="950" x2="972" y1="226" y2="226" stroke="#d97706" stroke-width="3"/><text x="980" y="230" fill="#374151" font-size="12.5">vip 3 101251404</text><line x1="950" x2="972" y1="248" y2="248" stroke="#16a34a" stroke-width="3"/><text x="980" y="252" fill="#374151" font-size="12.5">vip 2 101249371</text><line x1="950" x2="972" y1="270" y2="270" stroke="#2563eb" stroke-width="3"/><text x="980" y="274" fill="#374151" font-size="12.5">vip 0 101246830</text><line x1="950" x2="972" y1="292" y2="292" stroke="#dc2626" stroke-width="3"/><text x="980" y="296" fill="#374151" font-size="12.5">vip 1 101246830</text><text x="80" y="542" fill="#6b7280" font-size="12" text-anchor="start">2025-10-07</text><text x="932" y="542" fill="#6b7280" font-size="12" text-anchor="end">2025-10-30</text></svg>