<?xml version="1.0" encoding="UTF-8"?>
<svg xmlns="http://www.w3.org/2000/svg" width="1000" height="520" viewBox="0 0 1000 520" font-family="ui-sans-serif, system-ui, sans-serif">
  <rect width="1000" height="520" fill="#ffffff"/>
  <text x="78" y="28" font-size="18" font-weight="700" fill="#111827">Zone Recovery — DOGEUSDC best setting (equity / PnL)</text>
  <text x="78" y="48" font-size="12.5" fill="#6b7280">lev 10 · ratio 3 · gap 35% · maxSteps 4 · maxDD 60% · random · vip 9  ·  20 series, 95.0% win · vol $29874038 ($29874226/day) · fees $2527</text>
  <text x="78" y="68" font-size="12.5" font-weight="600" fill="#1d4ed8">USDC · BNB −10% · taker 0.0085%</text>
  <text x="934" y="28" text-anchor="end" font-size="18" font-weight="700" fill="#16a34a">+311223 USDT  (+3112.23%)</text>
  <line x1="78" y1="468.0" x2="934" y2="468.0" stroke="#e5e7eb" stroke-width="1"/><text x="68" y="472.0" text-anchor="end" font-size="12" fill="#6b7280">0.00</text><line x1="78" y1="392.0" x2="934" y2="392.0" stroke="#e5e7eb" stroke-width="1"/><text x="68" y="396.0" text-anchor="end" font-size="12" fill="#6b7280">88616</text><line x1="78" y1="316.0" x2="934" y2="316.0" stroke="#e5e7eb" stroke-width="1"/><text x="68" y="320.0" text-anchor="end" font-size="12" fill="#6b7280">177232</text><line x1="78" y1="240.0" x2="934" y2="240.0" stroke="#e5e7eb" stroke-width="1"/><text x="68" y="244.0" text-anchor="end" font-size="12" fill="#6b7280">265849</text><line x1="78" y1="164.0" x2="934" y2="164.0" stroke="#e5e7eb" stroke-width="1"/><text x="68" y="168.0" text-anchor="end" font-size="12" fill="#6b7280">354465</text><line x1="78" y1="88.0" x2="934" y2="88.0" stroke="#e5e7eb" stroke-width="1"/><text x="68" y="92.0" text-anchor="end" font-size="12" fill="#6b7280">443081</text>
  <line x1="78" y1="459.4" x2="934" y2="459.4" stroke="#9ca3af" stroke-width="1.5" stroke-dasharray="6 4"/><text x="934" y="453.4" text-anchor="end" font-size="11" fill="#6b7280">start 10000</text>
  <polyline points="78.0,124.9 79.8,124.3 81.1,124.4 82.3,124.8 83.8,124.6 85.8,125.1 87.9,124.1 88.9,123.4 91.4,123.5 93.5,122.9 95.0,122.5 96.7,122.7 97.9,123.0 100.0,123.8 101.6,122.9 103.5,124.1 105.6,124.8 107.2,125.6 108.1,125.6 109.9,124.4 112.3,124.7 114.2,123.8 115.7,123.0 117.0,122.5 118.4,123.1 120.1,122.6 121.7,122.6 123.7,122.9 125.6,122.9 127.4,123.1 128.9,123.1 131.4,122.8 133.2,123.9 135.1,124.0 136.9,124.5 138.3,125.3 140.7,125.2 142.9,125.1 144.7,124.5 146.5,124.6 148.9,124.6 150.7,125.3 152.2,125.6 153.5,126.3 154.4,126.7 155.5,126.2 157.7,125.5 159.7,125.3 161.2,123.6 162.0,122.4 162.9,122.4 164.0,122.9 166.0,123.8 168.0,124.3 169.4,125.0 171.4,124.8 173.2,124.3 175.3,124.4 176.9,124.8 178.5,124.0 179.7,123.8 181.1,125.5 182.0,124.7 184.2,125.0 186.3,125.5 187.7,126.2 188.2,126.8 189.3,126.7 191.3,126.7 192.6,125.8 194.0,124.9 195.5,125.2 197.0,123.4 197.9,122.6 198.7,122.7 199.6,122.2 200.3,121.0 200.7,120.4 201.4,121.2 201.9,119.5 202.6,119.3 203.0,118.3 203.3,117.6 203.5,117.8 203.9,118.0 204.3,118.3 204.8,118.3 205.3,118.1 205.7,117.7 206.2,117.2 206.8,117.4 207.3,116.8 208.0,117.5 208.7,116.8 209.4,117.3 210.0,116.9 210.8,117.2 211.9,116.4 212.5,116.4 213.2,115.8 213.8,116.1 214.7,116.6 215.4,117.6 216.2,117.9 217.0,118.3 217.9,119.3 218.5,119.4 219.2,119.6 220.3,119.1 221.0,118.3 221.6,118.0 222.3,118.6 223.1,118.5 224.1,117.7 225.0,116.7 225.9,117.2 226.8,118.4 227.8,118.0 228.8,117.6 229.9,118.3 230.9,118.5 232.3,119.4 233.1,119.1 234.2,119.0 235.5,119.8 236.7,120.0 237.7,119.7 239.3,119.3 240.0,118.4 240.9,120.2 241.9,120.8 242.9,120.8 243.9,121.3 245.4,120.7 247.0,120.9 248.4,120.6 250.2,120.7 252.3,120.1 254.0,120.5 256.5,119.6 258.1,120.6 258.8,122.2 258.9,122.6 259.4,123.0 259.6,123.8 260.1,124.3 260.5,123.4 261.4,123.6 262.4,123.6 263.9,123.8 265.5,123.6 266.9,123.2 268.4,123.4 270.1,122.4 271.1,121.9 272.3,121.3 273.5,122.1 275.1,122.3 276.0,123.4 277.2,123.2 278.7,122.6 280.3,122.1 281.8,120.9 283.2,119.9 284.1,118.6 285.3,119.2 286.5,118.4 288.0,118.2 289.1,117.5 289.9,118.0 292.1,118.0 293.1,118.3 294.3,117.7 295.2,116.7 296.5,117.5 297.9,118.5 298.9,119.1 299.8,118.9 301.4,118.2 302.5,118.7 304.1,119.5 305.6,119.4 307.7,120.1 309.3,121.1 310.3,120.5 311.4,120.7 312.6,119.3 313.5,120.3 314.2,121.2 314.8,122.6 315.6,121.8 316.6,120.5 318.0,121.1 319.3,120.6 320.6,121.6 321.7,122.6 322.4,123.4 323.2,123.3 324.3,122.9 325.9,122.9 327.9,122.6 328.8,124.1 329.3,124.3 330.5,124.9 331.5,125.0 332.1,125.8 332.8,126.9 333.4,126.3 334.4,125.5 335.4,125.8 336.9,126.3 337.6,127.4 338.4,127.9 338.8,127.7 339.7,126.9 340.7,126.2 341.7,127.2 343.2,127.3 344.4,126.0 345.6,126.1 346.8,126.8 348.2,127.0 349.6,125.8 350.9,126.1 352.3,125.2 354.5,125.4 355.1,126.2 356.0,126.4 357.5,126.6 358.8,126.3 360.5,126.1 362.1,127.1 363.7,127.1 364.6,126.3 365.6,126.6 366.6,128.1 367.0,127.4 368.0,127.4 368.8,126.8 369.9,125.8 370.9,126.5 372.1,125.9 372.9,124.6 373.6,124.5 375.0,124.8 376.2,125.0 377.8,124.6 379.1,124.8 380.7,124.4 382.3,124.4 383.4,125.3 384.5,125.5 385.7,126.4 386.6,125.4 387.6,125.8 388.9,126.1 390.1,125.7 391.4,125.4 393.1,125.3 394.0,124.2 395.3,124.1 396.5,124.2 398.0,123.6 399.5,123.6 400.0,124.1 400.8,124.6 402.0,124.8 403.1,124.9 404.5,125.4 406.1,124.5 407.9,125.2 409.6,125.4 411.4,125.7 413.5,125.0 414.8,123.8 415.3,122.4 415.7,121.6 416.4,120.7 417.2,121.7 417.9,121.9 419.0,122.1 420.2,122.3 422.1,122.7 424.1,123.2 425.8,122.6 426.8,122.9 428.2,123.6 428.9,124.7 429.4,124.9 430.5,124.9 431.6,124.6 432.7,124.6 434.1,125.0 435.2,124.9 436.2,123.8 437.3,123.4 438.9,123.1 440.7,122.9 442.6,123.3 444.8,122.7 446.3,122.0 446.8,121.9 448.0,121.6 449.8,121.9 451.7,122.8 452.8,123.2 454.0,123.3 455.2,122.7 456.8,122.8 458.2,121.7 460.0,122.1 461.7,121.6 463.4,122.3 464.2,120.5 464.7,120.6 465.4,120.1 466.4,120.3 467.9,119.9 469.7,120.8 471.5,120.9 472.7,120.2 473.8,120.3 474.7,121.1 475.8,120.3 476.9,120.6 477.9,121.8 479.6,121.6 481.5,121.7 482.6,122.5 483.6,122.3 485.3,122.2 487.4,122.3 488.9,121.6 490.1,120.8 491.7,120.7 493.7,120.6 495.5,121.5 497.8,121.5 500.0,121.7 501.5,120.4 503.0,120.5 504.9,120.7 506.6,120.7 508.2,119.9 509.7,119.9 511.3,119.6 512.1,120.7 513.1,121.6 514.6,121.5 516.2,121.8 518.1,121.1 520.0,120.9 522.2,121.1 524.1,121.6 525.1,121.7 526.3,121.1 528.0,121.2 529.1,122.5 530.3,122.1 531.8,122.5 534.2,122.5 536.5,121.8 538.7,121.0 541.7,120.3 543.1,119.8 543.9,118.7 544.6,118.1 545.6,118.4 546.2,118.6 547.3,119.1 548.3,119.5 550.5,119.6 551.8,120.0 553.0,119.1 553.8,118.0 554.8,118.4 556.3,118.5 557.3,117.4 557.9,117.3 559.3,117.8 559.7,117.9 560.1,117.8 560.6,117.4 561.1,118.5 561.7,118.6 562.3,117.5 562.7,116.8 563.2,117.9 563.6,117.9 564.2,116.8 564.7,115.7 564.9,114.8 565.3,114.4 565.5,114.9 566.0,115.6 566.4,115.2 566.9,115.2 567.4,115.6 567.9,116.3 568.5,116.6 568.8,117.7 569.2,117.4 569.7,118.2 570.3,117.6 570.8,118.0 571.3,119.3 571.8,118.9 572.4,119.8 572.9,119.1 573.6,119.6 574.0,120.4 574.7,120.1 575.6,119.5 576.6,119.0 577.5,117.5 578.0,117.7 578.2,120.0 578.6,119.0 579.2,117.3 579.7,117.6 580.5,116.9 581.1,117.7 582.0,116.1 582.7,117.3 583.7,117.5 584.5,117.3 585.5,118.3 586.3,118.6 586.9,119.2 587.5,120.0 587.9,121.2 588.1,120.7 588.7,120.6 589.1,121.1 589.6,121.0 590.2,120.2 590.8,120.4 591.3,122.0 591.5,122.2 592.0,122.3 592.7,121.7 593.5,121.5 594.6,122.9 595.0,123.0 595.6,121.9 596.1,121.8 596.7,121.9 597.3,122.0 598.0,121.1 598.9,121.7 599.7,121.7 600.8,122.1 601.8,122.0 602.6,123.6 603.1,122.6 604.2,122.6 604.9,123.3 605.9,122.1 606.9,121.3 607.8,121.2 608.8,122.2 610.2,122.4 611.5,122.8 611.8,124.5 611.8,126.6 611.9,124.2 611.9,125.3 612.0,126.2 612.0,126.6 612.0,127.0 612.0,126.1 612.1,126.9 612.2,127.3 612.3,127.9 612.3,127.9 612.4,126.9 612.4,128.1 612.5,126.8 612.6,127.2 612.6,128.1 612.7,127.1 612.8,127.5 612.9,128.2 613.0,128.6 613.1,127.8 613.2,127.3 613.3,128.2 613.4,128.5 613.5,127.8 613.6,129.1 613.7,129.0 613.7,128.5 613.8,130.2 613.8,130.4 613.9,130.0 614.0,130.2 614.1,130.0 614.2,130.3 614.3,130.4 614.4,131.6 614.4,132.3 614.5,131.7 614.6,131.4 614.7,131.4 614.8,130.6 614.8,131.4 614.9,130.9 615.0,130.2 615.1,130.5 615.2,131.3 615.4,131.4 615.4,132.0 615.6,132.5 615.6,133.4 615.7,133.2 615.8,133.2 615.9,132.3 616.0,132.0 616.0,132.0 616.2,132.4 616.3,132.8 616.4,133.0 616.5,131.7 616.6,131.3 616.8,132.1 616.9,131.6 617.1,130.1 617.2,130.3 617.3,131.6 617.4,131.0 617.6,130.6 617.8,130.2 617.9,130.4 618.1,130.8 618.3,131.6 618.5,130.9 618.7,131.9 619.0,131.7 619.1,130.8 619.3,129.9 619.5,129.8 619.7,129.3 619.9,129.6 620.1,129.4 620.3,130.2 620.6,130.2 620.9,130.6 621.2,129.9 621.5,130.1 621.9,130.8 622.2,130.2 622.5,130.0 622.8,131.3 623.0,131.7 623.3,132.5 623.5,133.6 623.6,133.1 623.7,133.0 623.8,133.8 624.0,134.1 624.2,133.9 624.4,133.8 624.7,134.1 625.0,135.0 625.1,134.1 625.3,134.6 625.4,134.7 625.6,135.5 625.7,136.3 625.9,136.0 626.0,137.6 626.0,137.4 626.1,137.1 626.1,137.3 626.2,138.0 626.3,138.0 626.4,137.0 626.5,136.2 626.6,135.9 626.8,136.0 626.9,137.3 627.1,137.8 627.2,137.9 627.3,137.8 627.4,137.7 627.5,137.3 627.7,138.3 627.8,138.8 627.9,138.8 628.1,139.7 628.1,139.5 628.3,139.7 628.4,139.1 628.5,138.2 628.6,138.4 628.8,139.7 629.0,139.2 629.1,139.6 629.3,138.7 629.5,137.9 629.6,137.3 629.8,138.2 630.0,138.7 630.3,139.0 630.5,139.7 630.7,140.9 630.9,141.1 630.9,141.9 631.0,141.8 631.1,142.7 631.2,143.1 631.3,143.7 631.3,144.7 631.4,144.9 631.4,143.8 631.5,143.1 631.6,143.6 631.7,146.0 631.7,147.1 631.7,147.5 631.8,146.7 631.8,146.2 631.9,147.9 631.9,148.1 632.0,147.5 632.0,146.5 632.1,144.9 632.2,145.0 632.2,145.1 632.3,145.2 632.4,145.1 632.4,145.8 632.5,145.6 632.6,146.7 632.7,146.1 632.8,144.9 632.9,145.5 633.0,144.5 633.1,145.5 633.2,145.4 633.3,145.9 633.4,147.5 633.4,148.6 633.5,147.7 633.6,147.8 633.7,148.7 633.7,149.2 633.8,148.5 633.9,147.0 633.9,146.8 634.0,146.6 634.1,145.7 634.2,145.3 634.3,146.5 634.4,146.3 634.5,146.1 634.7,146.1 634.8,146.3 634.9,145.3 635.0,145.3 635.1,145.2 635.3,144.4 635.5,144.0 635.6,143.9 635.8,143.4 635.9,143.8 636.1,144.7 636.2,144.7 636.3,144.2 636.5,143.9 636.6,144.1 636.8,144.6 636.9,144.7 637.1,145.3 637.2,146.2 637.4,146.5 637.5,146.4 637.6,145.8 637.8,145.2 638.0,144.9 638.2,145.4 638.3,145.4 638.5,144.8 638.7,144.0 638.9,143.6 639.2,143.0 639.5,141.9 639.7,141.1 639.9,142.2 640.1,142.4 640.3,143.1 640.5,142.1 640.8,142.6 641.0,142.4 641.3,143.1 641.6,143.6 641.9,143.3 642.2,143.0 642.4,143.4 642.7,143.4 643.0,143.9 643.3,143.7 643.5,143.4 643.8,143.8 644.0,144.2 644.3,145.0 644.6,144.7 645.0,144.8 645.1,144.8 645.4,144.4 645.7,144.7 645.9,145.1 646.1,145.5 646.5,145.6 646.7,146.0 647.0,146.6 647.6,146.4 648.0,144.9 648.5,146.4 648.8,146.4 649.0,147.6 649.2,147.3 649.5,147.1 649.7,147.4 649.9,146.7 650.2,147.3 650.5,148.2 650.7,147.7 651.0,147.7 651.2,148.3 651.5,147.7 651.7,146.8 652.0,145.5 652.2,145.6 652.5,145.4 652.8,145.3 653.2,146.0 653.2,148.8 653.2,146.3 653.2,146.6 653.2,146.3 653.3,146.4 653.4,146.2 653.7,145.2 654.1,144.5 654.4,144.3 654.7,144.9 654.9,146.0 655.3,146.5 655.6,145.9 655.9,146.2 656.3,146.7 656.6,146.9 657.0,146.7 657.6,146.8 657.9,147.1 658.3,147.0 658.5,147.6 658.9,147.9 659.2,147.9 659.7,147.4 660.1,147.2 660.5,147.4 660.9,147.3 661.3,147.7 661.7,146.5 662.2,146.2 662.7,144.5 663.1,144.6 663.5,144.4 664.2,144.8 664.8,144.0 665.4,144.8 666.1,145.5 666.5,145.8 666.9,145.3 667.3,145.7 667.8,144.5 668.3,143.6 668.7,143.4 669.2,143.9 669.7,144.3 670.1,143.7 670.5,142.8 671.0,142.6 671.6,142.7 672.4,142.7 673.0,142.9 673.3,143.8 673.6,144.5 674.2,144.4 674.6,145.0 675.2,145.6 675.7,146.3 676.2,146.4 676.6,146.0 677.2,146.0 677.8,147.1 678.4,147.6 678.8,147.5 679.3,147.0 679.9,146.7 680.6,147.6 680.9,147.7 681.3,147.7 681.8,148.0 682.2,147.7 682.6,147.5 683.3,148.3 683.8,148.6 684.4,148.7 684.8,148.1 685.3,148.6 685.8,148.3 686.2,149.0 686.7,148.8 687.1,149.7 687.3,150.2 687.4,150.2 687.7,150.5 688.1,149.7 688.6,149.5 689.1,150.2 689.8,149.8 690.5,149.9 690.9,149.8 691.3,149.5 691.8,148.4 692.3,149.0 692.8,149.7 693.1,150.0 693.4,149.8 693.8,149.3 694.4,148.6 694.9,148.4 695.7,148.6 696.4,149.5 696.9,149.9 697.4,149.1 697.9,148.1 698.6,147.5 699.3,148.7 700.2,148.6 700.7,148.2 701.5,147.3 702.2,147.4 702.7,147.8 703.3,147.8 703.9,148.3 704.5,148.4 705.1,148.4 705.7,149.4 706.3,150.1 706.7,150.0 707.2,150.7 707.6,151.0 707.8,151.5 708.1,150.7 708.4,151.5 708.8,151.3 709.4,150.8 710.0,150.9 710.7,150.8 711.2,150.6 711.5,151.8 711.7,152.5 712.0,152.8 712.2,152.7 712.4,152.1 712.9,151.4 713.3,150.8 713.9,151.5 714.5,152.0 715.3,151.8 716.0,151.6 716.8,151.4 717.4,150.6 718.0,151.6 718.7,152.2 719.6,151.5 720.4,152.1 721.0,152.4 721.5,151.9 722.0,152.0 722.7,152.3 723.3,151.7 723.9,151.3 724.4,152.6 724.7,151.9 725.3,151.8 726.0,151.9 726.7,151.8 727.5,152.0 728.4,152.5 729.0,151.5 729.8,150.8 730.5,151.5 731.1,152.7 731.9,152.0 732.5,151.0 733.2,151.4 733.8,150.4 734.8,150.1 735.8,149.9 736.9,150.7 737.9,151.2 738.5,151.1 739.4,151.2 740.3,151.5 741.5,151.9 742.2,153.0 742.9,152.1 743.7,153.0 744.0,153.2 744.4,152.5 745.0,152.6 745.8,152.3 746.7,152.8 747.2,151.9 747.9,152.3 748.7,153.7 749.0,153.7 749.3,153.1 749.7,152.5 750.2,152.6 750.9,152.3 751.5,152.6 752.1,153.1 752.8,152.8 753.3,152.5 753.8,152.2 754.6,152.7 755.3,153.1 756.0,152.4 756.4,152.8 756.8,152.4 757.4,152.2 758.1,152.5 758.8,153.1 759.1,153.4 759.5,154.0 759.9,152.9 760.6,153.8 760.9,154.6 761.1,154.8 761.4,154.0 761.7,154.4 762.0,154.4 762.5,154.1 762.7,155.1 762.9,154.9 763.1,154.7 763.5,153.7 764.2,154.2 764.6,155.0 764.9,155.6 765.1,154.8 765.3,154.3 765.6,154.5 765.9,154.4 766.4,154.1 767.0,154.8 767.5,154.4 767.8,155.1 768.1,155.8 768.2,155.4 768.5,156.1 768.7,156.1 768.7,156.3 768.9,156.1 769.0,156.0 769.3,154.9 769.4,155.7 769.8,156.1 770.2,155.6 770.6,153.6 770.8,153.5 771.0,153.3 771.3,153.3 771.8,154.0 772.2,155.3 772.6,156.3 772.8,157.0 772.9,157.5 773.0,157.0 773.2,157.7 773.3,158.5 773.4,158.7 773.4,159.3 773.5,160.5 773.6,159.3 773.7,158.5 773.8,158.5 774.0,158.4 774.1,157.3 774.2,157.9 774.5,157.6 774.6,158.0 774.9,158.0 775.1,157.7 775.4,158.5 775.5,159.2 775.7,159.4 775.9,159.5 776.2,159.3 776.5,158.9 776.7,159.0 777.1,158.3 777.4,159.0 777.7,158.3 778.1,157.8 778.6,157.4 778.9,158.2 779.1,158.7 779.5,158.3 779.8,157.5 780.1,158.7 780.4,157.8 780.6,156.5 780.8,156.5 781.2,156.1 781.6,156.1 782.1,155.6 782.5,155.3 782.9,154.5 783.2,155.5 783.7,155.4 784.2,154.7 784.7,154.8 785.1,154.5 785.4,154.7 785.7,155.4 786.0,156.0 786.5,156.0 786.9,155.9 787.3,156.1 787.7,156.9 788.1,157.5 788.4,157.9 788.9,157.2 789.4,156.9 789.9,156.8 790.5,157.1 791.0,157.7 791.4,157.7 791.9,157.7 792.4,157.1 792.8,157.3 793.3,157.2 793.9,156.5 794.2,155.6 794.6,156.3 795.3,155.3 796.1,156.2 796.8,157.1 797.5,157.1 798.3,156.2 799.0,155.1 799.5,155.3 800.3,155.3 801.0,154.5 801.7,154.5 802.3,155.2 803.4,154.9 804.4,154.0 805.4,153.7 806.2,153.3 807.4,152.8 808.3,152.5 809.3,152.8 810.3,153.4 810.7,154.0 811.3,154.1 811.8,153.5 812.4,153.7 813.4,153.8 814.3,153.9 815.2,153.7 816.0,154.0 817.4,153.8 817.8,153.7 818.7,153.5 819.4,153.7 820.3,154.0 821.1,154.0 821.2,155.6 821.3,156.3 821.3,155.7 821.4,156.8 821.5,156.9 821.5,157.6 821.6,157.2 821.8,156.3 821.8,156.8 821.9,157.9 822.0,158.1 822.1,158.9 822.2,158.0 822.3,158.1 822.4,159.3 822.5,159.1 822.6,159.6 822.7,159.2 822.7,160.6 822.8,161.0 822.8,161.6 822.9,161.4 822.9,161.5 823.0,161.0 823.0,160.0 823.1,159.5 823.2,159.8 823.2,160.5 823.3,161.6 823.4,162.8 823.4,164.0 823.5,164.8 823.5,164.9 823.5,165.3 823.5,163.7 823.6,163.5 823.6,164.0 823.7,165.2 823.7,166.7 823.7,168.2 823.8,167.1 823.8,165.9 823.8,166.3 823.9,165.3 823.9,165.4 824.0,164.8 824.1,164.1 824.1,164.8 824.2,164.0 824.2,165.5 824.3,166.0 824.3,165.7 824.3,164.9 824.4,165.4 824.5,165.4 824.6,167.3 824.6,168.0 824.7,169.8 824.7,168.5 824.7,170.2 824.8,170.8 824.8,172.8 824.8,176.1 824.9,179.6 824.9,179.7 824.9,179.4 825.0,177.9 825.0,176.3 825.0,174.4 825.1,172.4 825.1,172.5 825.1,173.2 825.1,173.6 825.1,171.9 825.2,173.5 825.2,172.8 825.2,171.7 825.2,171.4 825.3,172.5 825.3,172.6 825.4,171.7 825.4,171.3 825.4,171.0 825.5,171.8 825.5,173.0 825.5,176.2 825.5,174.2 825.5,173.1 825.6,172.5 825.6,172.7 825.6,172.2 825.7,173.0 825.7,173.4 825.8,172.4 825.9,171.9 825.9,172.1 825.9,172.3 826.0,172.3 826.0,173.3 826.1,174.0 826.1,174.0 826.1,172.6 826.2,172.6 826.3,173.1 826.3,173.6 826.4,174.8 826.4,175.1 826.4,176.0 826.5,174.2 826.5,174.7 826.5,174.9 826.6,175.2 826.6,176.6 826.6,178.0 826.7,178.7 826.7,180.5 826.8,181.1 826.8,183.4 826.9,186.9 826.9,190.0 826.9,190.3 826.9,186.5 827.0,184.5 827.0,183.8 827.0,182.1 827.1,182.6 827.1,182.4 827.1,183.5 827.1,186.0 827.2,185.7 827.2,182.8 827.3,182.2 827.3,181.6 827.3,182.1 827.3,181.7 827.4,182.3 827.4,183.0 827.4,184.6 827.4,183.9 827.5,186.2 827.5,186.2 827.5,186.1 827.5,188.2 827.6,186.5 827.6,187.1 827.6,186.1 827.7,187.4 827.7,185.6 827.7,186.1 827.8,184.6 827.8,183.6 827.8,184.0 827.9,183.2 827.9,183.0 827.9,182.7 828.0,182.4 828.0,181.5 828.1,181.6 828.1,181.1 828.1,181.1 828.2,180.5 828.2,181.5 828.3,182.5 828.3,181.8 828.3,180.7 828.4,180.4 828.4,180.4 828.4,179.9 828.5,180.2 828.5,181.3 828.6,181.5 828.6,180.3 828.7,179.1 828.7,180.2 828.8,180.7 828.8,180.8 828.9,180.7 828.9,180.2 828.9,179.2 829.0,179.3 829.0,178.8 829.0,178.8 829.1,179.8 829.1,180.2 829.2,179.4 829.2,180.5 829.3,179.8 829.3,180.5 829.4,180.1 829.4,180.9 829.5,180.5 829.5,179.7 829.6,179.9 829.7,181.1 829.7,179.7 829.9,179.4 830.0,178.5 830.0,178.8 830.1,179.5 830.2,180.3 830.2,180.4 830.3,180.5 830.4,181.5 830.5,181.8 830.6,181.5 830.7,182.3 830.7,180.7 830.8,181.9 830.9,182.4 830.9,182.8 831.0,182.5 831.1,183.5 831.1,182.8 831.2,183.5 831.3,183.0 831.3,181.6 831.4,181.4 831.5,182.2 831.7,181.7 831.8,183.2 831.8,183.3 831.9,183.4 831.9,183.8 831.9,183.6 832.0,184.5 832.1,185.0 832.1,184.1 832.2,184.7 832.3,184.9 832.4,184.0 832.4,183.3 832.5,184.0 832.6,183.3 832.6,183.1 832.7,182.5 832.8,181.6 832.9,182.9 833.0,181.9 833.2,183.6 833.3,184.6 833.4,185.2 833.4,185.0 833.5,185.0 833.6,185.3 833.6,185.0 833.7,186.1 833.8,185.6 833.9,186.2 833.9,186.1 834.0,186.7 834.1,186.9 834.2,186.7 834.2,188.8 834.2,187.4 834.3,187.3 834.3,188.0 834.3,188.7 834.4,189.5 834.4,190.9 834.4,192.3 834.4,193.5 834.5,191.7 834.5,193.0 834.5,192.6 834.5,193.9 834.5,193.8 834.5,196.0 834.6,196.2 834.6,194.4 834.6,196.8 834.6,197.5 834.7,198.6 834.7,198.9 834.7,199.9 834.8,201.6 834.8,201.8 834.8,203.7 834.9,206.9 834.9,209.5 835.0,214.2 835.0,216.7 835.0,220.4 835.1,218.6 835.1,214.5 835.1,211.4 835.1,210.4 835.1,207.0 835.2,204.0 835.2,204.7 835.2,204.6 835.2,206.0 835.3,208.8 835.3,208.8 835.3,211.6 835.3,209.9 835.3,208.9 835.4,207.0 835.4,209.9 835.4,210.1 835.4,213.6 835.5,216.3 835.5,219.9 835.5,223.3 835.6,222.1 835.6,225.2 835.6,226.7 835.7,230.7 835.7,227.7 835.7,226.3 835.8,225.5 835.8,223.7 835.8,219.9 835.8,219.1 835.9,220.3 835.9,219.3 835.9,218.5 836.0,219.6 836.0,219.4 836.0,217.7 836.1,218.9 836.1,218.0 836.1,218.5 836.1,218.1 836.2,217.3 836.2,217.9 836.2,218.8 836.3,220.9 836.3,225.1 836.3,228.2 836.3,228.9 836.4,225.2 836.4,226.1 836.4,227.7 836.4,227.3 836.4,228.5 836.5,234.4 836.5,236.6 836.5,240.3 836.5,239.3 836.5,240.9 836.6,245.0 836.6,249.3 836.6,251.1 836.6,251.9 836.7,254.6 836.7,250.2 836.7,245.1 836.7,243.6 836.8,245.4 836.8,244.3 836.8,239.6 836.8,248.0 836.8,247.8 836.9,248.9 836.9,255.5 836.9,260.2 836.9,259.4 836.9,263.7 836.9,263.3 837.0,258.6 837.0,258.0 837.0,258.6 837.0,262.7 837.0,264.3 837.1,268.4 837.1,270.7 837.1,270.9 837.1,273.7 837.1,275.7 837.1,278.0 837.1,281.0 837.2,282.1 837.2,277.8 837.3,275.9 837.3,271.4 837.3,270.0 837.3,271.5 837.4,278.5 837.4,289.0 837.4,291.6 837.4,295.8 837.5,295.9 837.5,296.2 837.5,295.3 837.5,295.7 837.5,299.7 837.5,301.0 837.5,303.5 837.5,305.9 837.6,308.5 837.6,311.7 837.6,312.5 837.6,315.9 837.6,317.0 837.6,318.4 837.6,311.0 837.7,296.0 837.7,288.0 837.7,285.3 837.7,285.4 837.8,294.9 837.8,306.3 837.8,320.3 837.8,321.0 837.9,322.0 837.9,321.2 837.9,326.0 837.9,331.0 838.0,333.9 838.0,330.0 838.0,333.4 838.0,343.9 838.0,343.5 838.1,347.5 838.1,356.4 838.2,359.6 838.2,363.6 838.2,372.5 838.3,377.3 838.3,360.5 838.4,353.8 838.4,357.2 838.4,355.3 838.5,355.6 838.5,360.4 838.5,350.9 838.6,347.3 838.6,358.4 838.6,365.6 838.7,376.5 838.7,385.3 838.7,392.3 838.8,397.6 838.8,401.5 838.8,399.2 838.9,394.8 839.0,413.0 839.0,417.5 839.0,421.2 839.1,427.7 839.1,430.5 839.2,432.6 839.2,428.5 839.3,422.2 839.3,425.2 839.3,430.3 839.4,437.0 839.4,440.5 839.5,437.9 839.5,433.5 839.6,429.4 839.6,425.8 839.7,424.9 839.7,426.7 839.8,418.2 839.8,416.2 839.9,413.6 839.9,406.6 839.9,401.5 840.0,401.5 840.1,398.1 840.1,392.5 840.2,391.7 840.2,384.7 840.3,385.0 840.4,366.5 840.4,363.5 840.5,359.2 840.5,366.8 840.6,363.7 840.7,362.1 840.7,362.3 840.8,357.9 840.8,358.9 840.9,357.9 840.9,357.4 841.0,357.7 841.0,355.7 841.0,353.5 841.0,357.1 841.1,350.6 841.1,355.1 841.2,359.0 841.2,359.7 841.3,356.5 841.3,352.4 841.4,354.1 841.4,350.6 841.5,350.4 841.5,354.0 841.5,346.8 841.6,347.5 841.6,341.9 841.6,345.0 841.7,343.8 841.7,348.4 841.7,351.6 841.7,348.5 841.8,350.0 841.8,345.4 841.8,342.8 841.8,337.2 841.9,342.7 841.9,342.4 841.9,342.5 841.9,339.6 841.9,340.1 842.0,341.1 842.0,339.4 842.0,339.8 842.0,345.9 842.1,343.6 842.1,339.8 842.1,341.2 842.1,338.5 842.1,340.0 842.1,344.6 842.2,343.1 842.2,334.4 842.2,328.1 842.2,330.9 842.3,331.3 842.3,339.8 842.4,335.8 842.4,333.0 842.4,337.2 842.5,332.7 842.6,333.2 842.6,332.3 842.7,333.2 842.7,330.2 842.8,328.6 842.8,325.8 842.8,327.5 842.9,326.5 842.9,321.3 843.0,323.1 843.0,316.6 843.1,319.9 843.1,316.1 843.1,319.3 843.1,314.0 843.2,308.8 843.2,308.4 843.2,311.8 843.2,311.2 843.3,309.8 843.3,307.1 843.3,312.9 843.4,313.7 843.4,311.7 843.4,310.2 843.4,315.1 843.5,311.0 843.5,309.0 843.5,312.9 843.5,314.3 843.5,311.3 843.6,313.5 843.6,320.3 843.6,316.2 843.6,309.4 843.7,310.1 843.7,306.9 843.8,302.3 843.8,307.3 843.8,302.8 843.8,303.0 843.9,300.6 843.9,305.2 844.0,303.1 844.0,304.8 844.1,306.2 844.1,303.3 844.2,301.3 844.2,303.4 844.3,304.1 844.3,303.1 844.4,296.5 844.4,299.5 844.4,295.6 844.4,295.8 844.5,287.5 844.5,288.9 844.5,288.3 844.6,289.0 844.6,294.5 844.7,293.3 844.7,294.8 844.7,290.0 844.8,294.9 844.8,290.0 844.8,286.5 844.8,286.1 844.9,284.8 844.9,285.2 844.9,288.4 845.0,285.8 845.0,288.1 845.0,289.0 845.1,290.1 845.1,287.8 845.1,284.3 845.2,284.2 845.2,283.7 845.2,283.1 845.2,283.7 845.3,283.6 845.3,282.1 845.3,283.4 845.3,282.9 845.3,283.1 845.4,282.9 845.4,280.2 845.4,282.4 845.4,281.4 845.5,283.7 845.5,284.5 845.5,284.0 845.5,284.5 845.5,285.2 845.5,285.7 845.5,284.1 845.5,287.6 845.6,289.1 845.6,291.8 845.6,298.2 845.6,295.8 845.6,293.8 845.6,296.1 845.7,298.2 845.7,303.9 845.7,306.3 845.7,309.0 845.7,308.8 845.7,306.8 845.7,309.9 845.8,309.2 845.8,305.3 845.8,305.2 845.8,302.8 845.8,305.5 845.8,304.7 845.8,305.3 845.9,304.4 845.9,307.8 845.9,307.1 845.9,309.7 846.0,311.8 846.0,314.7 846.0,315.7 846.0,313.0 846.0,312.8 846.0,309.9 846.1,309.8 846.1,309.8 846.1,307.8 846.1,305.0 846.1,297.8 846.1,298.2 846.2,300.2 846.2,296.8 846.2,301.3 846.2,308.9 846.3,304.9 846.3,307.3 846.3,303.8 846.3,305.0 846.3,304.4 846.4,301.0 846.4,301.5 846.4,298.2 846.4,299.8 846.4,299.8 846.4,303.7 846.5,297.9 846.5,295.6 846.5,298.8 846.6,296.1 846.6,295.9 846.6,296.5 846.6,296.2 846.7,296.2 846.7,293.3 846.7,295.3 846.7,293.1 846.7,293.6 846.7,292.0 846.8,294.1 846.8,292.3 846.8,292.6 846.8,295.5 846.8,296.9 846.9,296.5 846.9,302.4 846.9,306.7 846.9,303.8 846.9,301.2 847.0,296.5 847.0,295.6 847.0,298.8 847.1,295.9 847.1,299.4 847.1,293.8 847.1,289.9 847.2,289.5 847.2,289.7 847.2,283.6 847.2,283.8 847.2,285.3 847.2,285.9 847.3,285.7 847.3,284.8 847.3,286.2 847.3,284.6 847.4,286.5 847.4,289.9 847.4,289.3 847.4,286.1 847.5,290.6 847.5,288.0 847.5,289.0 847.6,291.4 847.6,293.1 847.6,291.5 847.6,292.0 847.6,285.3 847.6,288.5 847.6,288.8 847.6,281.5 847.6,287.5 847.7,291.4 847.7,289.7 847.8,289.9 847.8,285.7 847.9,284.4 847.9,284.1 847.9,283.6 848.0,284.1 848.0,284.1 848.1,287.6 848.1,282.2 848.1,280.9 848.1,280.5 848.2,283.1 848.2,277.9 848.2,280.1 848.2,280.2 848.3,280.3 848.3,282.9 848.4,282.3 848.4,280.3 848.4,275.6 848.4,272.7 848.5,272.7 848.5,272.6 848.5,272.9 848.5,272.4 848.5,274.1 848.6,274.1 848.6,274.4 848.6,276.4 848.6,279.2 848.7,284.0 848.7,283.9 848.7,287.3 848.7,291.2 848.8,294.6 848.8,294.3 848.8,291.7 848.9,290.8 848.9,288.9 848.9,288.9 849.0,287.1 849.0,286.7 849.0,284.5 849.0,283.6 849.1,284.3 849.1,282.7 849.1,283.7 849.2,286.4 849.2,285.2 849.2,287.1 849.3,285.7 849.3,284.4 849.3,285.2 849.4,285.5 849.4,287.4 849.5,286.5 849.6,285.0 849.6,284.1 849.6,286.9 849.7,284.7 849.7,283.7 849.7,282.9 849.7,282.3 849.7,281.4 849.8,281.1 849.8,282.3 849.8,284.2 849.9,283.6 849.9,279.7 849.9,273.8 849.9,276.5 850.0,280.7 850.0,281.7 850.1,280.7 850.2,287.0 850.2,289.1 850.3,288.7 850.3,287.8 850.4,288.0 850.5,292.4 850.5,287.1 850.5,286.2 850.6,289.4 850.7,286.0 850.7,289.9 850.7,293.3 850.8,292.9 850.8,292.0 850.8,293.7 850.9,290.6 850.9,289.7 850.9,288.4 851.0,290.2 851.0,285.2 851.1,283.3 851.1,285.2 851.1,285.2 851.1,286.1 851.1,285.8 851.2,284.7 851.2,289.7 851.2,282.0 851.3,284.7 851.3,281.5 851.3,283.4 851.4,282.8 851.4,281.4 851.4,282.7 851.4,282.7 851.5,279.8 851.5,283.2 851.5,282.7 851.6,284.0 851.6,285.3 851.6,277.2 851.6,282.2 851.6,285.2 851.6,279.7 851.7,277.7 851.7,280.5 851.7,277.3 851.7,277.6 851.7,279.0 851.8,276.5 851.8,277.0 851.8,275.9 851.8,275.0 851.8,274.0 851.9,273.1 851.9,272.6 851.9,272.0 852.0,270.0 852.0,268.0 852.0,269.2 852.0,268.4 852.0,269.0 852.0,268.5 852.1,268.5 852.1,268.6 852.1,266.5 852.1,268.3 852.2,267.6 852.2,268.4 852.2,268.9 852.2,267.1 852.3,266.5 852.3,265.5 852.3,262.8 852.3,262.9 852.4,262.6 852.4,262.3 852.4,261.4 852.4,260.5 852.5,253.2 852.5,252.1 852.5,252.2 852.5,255.9 852.5,254.5 852.5,260.3 852.5,257.1 852.6,256.2 852.6,258.4 852.6,259.5 852.7,259.1 852.7,258.0 852.7,255.2 852.8,258.0 852.8,254.1 852.8,253.4 852.8,254.0 852.9,253.5 852.9,251.5 852.9,254.5 852.9,255.8 852.9,253.3 853.0,254.1 853.0,253.9 853.0,254.2 853.0,253.3 853.1,251.4 853.1,250.5 853.1,249.8 853.2,251.0 853.2,251.6 853.2,252.3 853.2,251.9 853.2,251.9 853.2,251.9 853.2,255.6 853.2,256.3 853.2,254.1 853.3,255.0 853.3,254.2 853.3,253.4 853.3,254.2 853.4,254.9 853.4,252.0 853.4,252.4 853.4,252.0 853.4,249.6 853.5,249.1 853.5,246.8 853.5,234.2 853.5,236.9 853.5,244.2 853.5,243.8 853.5,247.2 853.5,245.1 853.6,247.5 853.6,249.1 853.7,249.1 853.7,249.6 853.8,253.1 853.8,252.0 853.9,252.1 853.9,251.4 853.9,251.5 854.0,251.4 854.0,251.6 854.0,249.3 854.1,247.6 854.2,247.4 854.2,252.1 854.2,253.5 854.2,253.1 854.3,251.8 854.3,253.6 854.3,254.7 854.4,256.8 854.4,255.5 854.4,256.2 854.4,258.0 854.5,256.2 854.5,253.3 854.5,253.3 854.5,253.2 854.5,250.2 854.5,253.4 854.5,252.9 854.6,251.0 854.6,252.0 854.6,248.9 854.6,250.5 854.6,250.6 854.6,250.7 854.6,250.3 854.6,250.0 854.7,249.6 854.7,254.4 854.7,256.4 854.7,256.6 854.7,254.3 854.8,253.2 854.8,252.1 854.8,253.0 854.9,256.6 854.9,253.9 854.9,253.3 854.9,255.8 854.9,252.7 854.9,253.7 855.0,253.3 855.0,251.0 855.0,250.1 855.0,252.1 855.1,249.5 855.1,251.1 855.1,249.0 855.1,250.4 855.2,249.1 855.2,249.6 855.3,247.6 855.3,249.8 855.3,250.5 855.4,250.3 855.5,250.5 855.5,252.7 855.5,253.3 855.6,252.4 855.6,249.2 855.7,250.1 855.8,252.2 855.8,256.2 855.9,258.8 855.9,261.0 855.9,259.6 855.9,268.0 855.9,268.9 856.0,272.7 856.0,270.0 856.1,267.6 856.1,269.1 856.2,265.0 856.2,260.4 856.2,261.7 856.3,262.2 856.3,260.3 856.3,263.1 856.3,257.3 856.3,260.3 856.4,260.4 856.4,261.3 856.5,260.6 856.5,260.9 856.6,263.7 856.6,266.1 856.6,264.8 856.7,262.6 856.7,262.4 856.7,263.3 856.8,262.2 856.8,261.6 856.8,260.5 856.9,260.4 856.9,259.8 856.9,258.5 856.9,258.3 857.0,260.2 857.0,257.7 857.1,257.6 857.1,255.8 857.1,256.1 857.1,253.4 857.2,253.4 857.2,252.1 857.2,251.3 857.2,251.7 857.3,251.5 857.3,257.9 857.3,256.1 857.4,254.0 857.4,254.0 857.4,253.4 857.5,253.6 857.5,255.0 857.5,255.8 857.6,256.3 857.6,249.1 857.6,249.8 857.7,251.5 857.7,249.2 857.7,248.6 857.8,250.5 857.8,252.6 857.8,251.6 857.9,253.1 857.9,249.6 857.9,251.0 857.9,250.3 857.9,247.7 858.0,249.1 858.0,250.4 858.0,247.2 858.0,246.6 858.0,244.2 858.0,245.1 858.1,248.9 858.1,243.9 858.1,246.3 858.1,245.5 858.2,249.7 858.2,249.1 858.2,251.4 858.3,249.8 858.3,250.1 858.4,249.7 858.4,251.7 858.5,252.3 858.5,248.9 858.5,249.8 858.6,250.7 858.6,250.0 858.7,252.5 858.7,252.3 858.7,253.6 858.8,252.0 858.8,253.9 858.9,252.5 858.9,251.0 858.9,254.1 859.0,254.4 859.0,253.0 859.1,248.6 859.1,252.2 859.1,251.4 859.1,252.7 859.1,249.5 859.2,249.7 859.2,248.4 859.2,247.7 859.3,249.1 859.3,247.9 859.3,248.6 859.4,253.9 859.4,255.1 859.4,251.4 859.4,249.5 859.5,250.0 859.5,250.9 859.5,249.7 859.5,249.3 859.6,251.6 859.6,250.4 859.6,250.2 859.7,245.5 859.7,249.3 859.7,247.4 859.7,248.1 859.8,247.4 859.8,248.3 859.8,247.1 859.9,248.3 859.9,246.7 860.0,246.2 860.0,244.3 860.0,247.3 860.1,247.5 860.1,248.8 860.2,246.8 860.2,245.5 860.3,245.1 860.3,243.8 860.3,247.2 860.3,246.3 860.4,245.7 860.4,243.4 860.5,242.0 860.5,243.0 860.5,244.8 860.6,241.9 860.6,243.9 860.6,244.1 860.6,242.5 860.7,241.8 860.7,243.0 860.7,243.7 860.7,244.6 860.8,243.0 860.8,241.1 860.8,242.0 860.9,239.4 860.9,240.3 860.9,240.7 861.0,239.6 861.0,237.4 861.1,237.5 861.1,236.5 861.1,233.3 861.1,236.3 861.2,237.7 861.2,236.2 861.2,234.9 861.2,236.5 861.2,236.3 861.2,236.2 861.2,236.7 861.3,237.2 861.3,237.6 861.3,240.8 861.3,247.1 861.4,241.9 861.4,238.4 861.5,240.9 861.5,240.0 861.6,240.2 861.6,239.6 861.6,241.5 861.7,241.7 861.7,240.4 861.8,241.6 861.8,239.5 861.9,242.0 862.0,245.9 862.1,249.2 862.1,246.2 862.2,245.3 862.2,245.3 862.3,243.7 862.3,244.5 862.3,243.7 862.4,245.4 862.5,247.0 862.6,244.4 862.6,251.5 862.7,248.2 862.7,245.3 862.7,246.5 862.8,246.4 862.8,247.9 862.9,248.8 863.0,249.5 863.0,250.5 863.1,250.8 863.1,254.0 863.2,256.5 863.2,254.7 863.3,252.3 863.3,252.2 863.3,249.0 863.4,250.8 863.5,252.9 863.5,252.3 863.6,251.5 863.7,249.1 863.7,251.9 863.8,249.2 863.9,250.0 863.9,249.2 863.9,249.5 864.0,248.7 864.0,249.7 864.1,249.8 864.1,249.9 864.2,249.9 864.3,251.6 864.3,250.7 864.5,250.1 864.5,249.9 864.6,251.6 864.6,253.4 864.7,253.5 864.8,255.0 864.9,256.3 864.9,256.0 865.0,257.0 865.1,260.3 865.1,262.0 865.1,260.1 865.2,259.0 865.2,261.2 865.3,262.3 865.3,262.4 865.4,257.0 865.5,259.7 865.5,261.7 865.6,262.1 865.6,258.4 865.7,260.5 865.7,261.9 865.8,264.9 865.9,268.0 865.9,269.1 865.9,271.6 866.0,273.1 866.0,276.8 866.0,276.8 866.1,278.8 866.1,281.0 866.2,279.0 866.3,273.4 866.3,276.8 866.3,274.3 866.3,272.7 866.4,270.7 866.4,268.2 866.4,269.6 866.5,270.1 866.5,270.5 866.6,269.4 866.6,271.0 866.7,274.3 866.7,269.3 866.8,268.4 866.9,269.4 867.0,265.9 867.0,263.0 867.1,262.1 867.1,259.2 867.2,256.3 867.3,258.5 867.4,263.0 867.5,260.5 867.6,263.7 867.7,260.5 867.8,259.1 867.8,260.1 868.0,257.8 868.0,256.1 868.1,256.0 868.2,254.8 868.3,255.5 868.4,257.9 868.6,255.4 868.7,256.7 868.9,256.7 869.0,256.6 869.1,254.9 869.2,255.8 869.3,256.2 869.4,256.6 869.5,257.3 869.5,259.0 869.6,259.2 869.7,256.2 869.7,256.3 869.8,254.9 869.9,254.4 870.0,255.6 870.1,256.3 870.3,256.7 870.4,255.6 870.5,254.8 870.7,254.1 870.7,250.9 870.8,254.5 871.0,253.8 871.0,253.9 871.1,255.7 871.2,256.8 871.4,255.8 871.6,255.4 871.7,256.7 871.9,255.3 872.1,254.8 872.2,254.5 872.2,254.2 872.3,253.8 872.4,253.7 872.4,252.3 872.5,254.2 872.6,252.1 872.7,250.4 872.8,249.4 872.9,251.9 872.9,252.7 873.1,253.3 873.2,253.6 873.3,254.2 873.4,252.2 873.5,253.1 873.6,251.8 873.7,252.7 873.8,253.2 873.9,253.3 873.9,253.6 873.9,250.7 874.0,251.5 874.1,252.5 874.1,252.6 874.2,252.9 874.3,254.1 874.4,253.8 874.6,252.6 874.6,253.5 874.8,252.6 874.9,253.0 875.0,251.9 875.0,252.6 875.1,254.3 875.2,253.6 875.3,255.8 875.3,252.5 875.5,255.4 875.5,256.9 875.7,255.8 875.8,254.4 875.9,254.0 875.9,253.7 876.0,253.3 876.1,253.2 876.1,254.9 876.2,254.7 876.3,253.7 876.4,253.0 876.4,253.3 876.5,252.1 876.5,253.3 876.6,254.2 876.7,256.1 876.8,255.4 876.9,256.2 876.9,254.4 877.0,254.9 877.1,257.1 877.1,256.8 877.2,256.2 877.3,254.4 877.4,254.0 877.5,256.0 877.6,257.7 877.7,255.4 877.8,256.9 877.9,257.1 878.0,258.1 878.1,257.3 878.2,256.9 878.2,257.7 878.3,257.7 878.4,257.5 878.5,256.8 878.6,258.3 878.7,261.0 878.7,261.4 878.8,259.1 878.8,257.6 878.9,259.4 879.0,258.4 879.1,259.5 879.1,258.9 879.2,259.0 879.3,258.1 879.3,257.4 879.4,257.3 879.5,257.0 879.5,257.6 879.6,256.9 879.7,257.3 879.8,257.9 879.9,257.5 880.0,258.2 880.1,256.3 880.2,255.4 880.3,254.8 880.4,255.3 880.4,256.9 880.5,258.1 880.6,257.3 880.7,257.9 880.8,259.1 880.9,259.2 881.0,260.3 881.1,259.1 881.2,259.5 881.4,259.5 881.5,259.2 881.6,258.0 881.7,258.2 881.8,258.2 881.8,259.1 881.9,257.7 882.0,256.9 882.1,256.7 882.1,258.0 882.2,257.2 882.3,256.4 882.4,255.8 882.5,256.6 882.6,256.6 882.6,257.5 882.7,257.0 882.7,258.1 882.9,258.6 882.9,257.9 883.0,256.9 883.1,254.7 883.1,254.5 883.2,252.0 883.2,251.4 883.3,251.6 883.4,252.4 883.5,250.4 883.6,252.0 883.6,252.5 883.7,252.9 883.8,253.5 883.9,252.4 884.0,252.3 884.2,251.4 884.3,252.1 884.4,251.6 884.5,249.8 884.6,251.2 884.7,249.7 884.7,248.7 884.8,248.4 884.9,247.6 885.0,249.0 885.1,247.0 885.2,248.0 885.3,242.4 885.4,246.3 885.5,245.1 885.6,242.7 885.7,244.8 885.8,244.7 885.9,245.5 886.0,246.2 886.1,243.4 886.1,241.8 886.2,242.8 886.2,243.9 886.3,242.7 886.5,242.1 886.5,241.6 886.6,241.5 886.7,241.2 886.8,240.5 886.9,242.9 887.0,241.3 887.1,241.9 887.3,241.1 887.4,240.8 887.5,239.8 887.6,239.2 887.7,240.6 887.8,240.6 887.9,239.5 888.0,240.3 888.1,239.6 888.2,239.1 888.3,237.4 888.4,238.5 888.5,238.9 888.5,239.7 888.5,237.3 888.6,238.4 888.7,238.9 888.8,237.8 888.9,237.7 889.0,237.7 889.0,237.2 889.1,237.1 889.1,235.9 889.1,236.5 889.2,235.6 889.4,235.5 889.5,234.7 889.6,233.6 889.7,233.5 889.7,232.8 889.7,233.1 889.8,234.2 889.9,233.1 890.0,233.6 890.0,234.4 890.1,234.6 890.1,235.1 890.2,236.9 890.2,236.9 890.3,236.1 890.4,235.1 890.5,234.0 890.6,235.1 890.8,234.5 890.8,233.0 890.9,233.7 891.1,233.3 891.2,232.5 891.3,232.0 891.4,229.6 891.5,230.1 891.7,229.9 891.8,230.0 892.0,230.6 892.1,232.1 892.2,232.7 892.3,231.9 892.5,231.8 892.6,233.1 892.7,234.0 892.8,235.1 892.8,235.2 893.0,235.5 893.1,236.8 893.1,236.7 893.2,236.5 893.3,235.6 893.4,235.6 893.5,234.1 893.7,234.2 893.7,233.0 893.8,233.0 893.9,231.4 894.0,232.1 894.1,232.0 894.1,232.8 894.2,231.8 894.3,232.3 894.4,234.3 894.5,234.3 894.6,234.5 894.8,234.4 894.9,232.7 894.9,232.8 895.0,233.9 895.1,231.8 895.1,232.1 895.3,232.4 895.5,235.5 895.6,234.9 895.7,235.5 895.8,236.0 896.0,234.7 896.2,236.4 896.3,235.6 896.5,236.7 896.6,240.1 896.6,237.8 896.6,238.2 896.8,235.2 897.0,231.8 897.2,232.4 897.4,233.3 897.6,232.6 897.8,232.2 897.9,232.0 898.1,233.0 898.4,232.1 898.5,233.2 898.7,233.6 898.9,232.5 899.1,232.6 899.2,232.1 899.3,234.3 899.4,235.1 899.6,234.7 899.7,235.9 899.8,236.2 899.8,236.2 900.0,236.7 900.1,236.9 900.2,236.4 900.3,236.9 900.4,237.2 900.5,236.4 900.6,235.7 900.7,235.9 900.9,236.5 901.0,235.6 901.2,236.0 901.3,235.4 901.4,235.6 901.5,235.5 901.6,235.0 901.6,234.7 901.7,233.9 901.8,235.2 902.0,233.2 902.1,235.2 902.2,235.4 902.5,235.1 902.7,236.6 902.7,236.5 902.8,235.6 902.9,234.7 903.1,234.4 903.2,235.1 903.5,234.8 903.7,235.4 903.8,236.9 904.0,237.4 904.1,239.4 904.2,238.9 904.4,238.0 904.4,239.5 904.5,238.6 904.7,238.6 904.8,239.1 904.9,238.8 905.1,238.3 905.2,239.9 905.3,240.3 905.4,241.3 905.4,241.4 905.5,241.9 905.5,242.3 905.6,242.6 905.7,242.4 905.8,242.9 905.9,243.2 905.9,242.8 906.1,240.9 906.2,241.9 906.2,241.3 906.4,240.2 906.5,239.4 906.7,238.9 906.8,238.3 906.9,238.4 907.1,238.7 907.3,237.6 907.4,238.0 907.5,236.9 907.6,235.8 907.7,236.1 907.8,235.4 907.9,235.4 908.0,235.5 908.1,234.5 908.3,234.1 908.4,234.8 908.5,234.6 908.6,234.5 908.7,235.0 908.8,235.0 909.0,234.5 909.1,235.5 909.2,234.9 909.3,235.0 909.4,234.5 909.6,233.3 909.7,233.0 909.8,231.9 909.8,232.8 910.0,232.2 910.1,229.9 910.2,230.0 910.3,229.8 910.4,229.8 910.5,230.3 910.6,230.3 910.8,230.8 910.9,231.6 911.0,231.6 911.1,231.3 911.3,231.2 911.4,231.4 911.6,231.5 911.7,231.4 911.8,231.2 912.0,231.6 912.1,231.3 912.2,230.9 912.3,229.9 912.4,231.9 912.5,230.0 912.7,229.2 912.8,228.4 912.9,228.0 913.1,229.0 913.3,227.6 913.5,226.8 913.7,226.4 913.8,226.1 914.0,226.8 914.1,226.7 914.3,226.8 914.4,226.6 914.5,225.8 914.6,225.3 914.7,225.7 914.8,226.6 914.9,226.0 915.0,225.9 915.1,225.7 915.2,225.3 915.3,225.7 915.4,225.3 915.6,224.7 915.7,225.4 915.8,225.6 916.0,225.1 916.2,225.3 916.2,224.9 916.4,224.7 916.4,225.7 916.5,226.5 916.6,225.9 916.8,226.5 916.9,226.3 917.0,226.9 917.2,227.7 917.3,226.7 917.4,226.9 917.5,226.5 917.6,227.0 917.8,227.3 917.9,227.8 918.0,228.2 918.1,228.9 918.2,228.8 918.3,228.9 918.5,228.2 918.7,227.8 918.8,226.5 919.1,224.9 919.2,226.2 919.3,225.9 919.5,226.7 919.6,226.2 919.8,225.7 920.0,225.7 920.1,225.0 920.3,225.6 920.4,225.5 920.5,224.7 920.5,224.9 920.6,225.1 920.8,224.1 920.9,225.5 921.0,225.5 921.2,225.8 921.4,226.0 921.6,225.3 921.7,224.4 921.9,224.9 922.1,224.5 922.1,226.3 922.3,226.6 922.4,225.9 922.6,225.1 922.7,225.5 922.9,226.2 923.1,226.3 923.3,225.8 923.4,225.7 923.6,224.8 923.7,223.3 923.8,222.6 923.9,223.2 924.0,224.0 924.1,224.8 924.3,223.9 924.4,223.0 924.5,223.4 924.7,223.0 924.8,222.6 925.0,222.7 925.2,222.4 925.3,222.3 925.4,222.6 925.6,221.6 925.7,222.6 925.9,223.6 925.9,223.4 926.1,224.6 926.2,223.5 926.3,224.8 926.4,226.2 926.5,225.8 926.6,226.6 926.8,227.7 926.9,227.8 927.1,228.4 927.3,228.3 927.5,227.1 927.6,227.2 927.7,227.7 927.8,228.1 928.0,228.3 928.1,228.8 928.3,227.7 928.4,227.6 928.6,228.8 928.7,229.1 928.8,230.8 928.9,231.5 928.9,232.7 929.0,233.0 929.0,232.0 929.2,231.6 929.3,231.6 929.4,232.3 929.5,232.0 929.7,232.3 929.8,231.9 929.9,231.9 930.0,231.8 930.1,231.5 930.2,232.8 930.5,231.7 930.7,233.7 930.8,235.8 931.0,233.7 931.1,232.7 931.2,233.4 931.3,234.2 931.4,234.9 931.6,234.4 931.7,235.0 931.9,235.6 932.1,235.1 932.2,233.6 932.4,234.6 932.5,234.8 932.6,234.1 932.8,233.0 932.9,233.5 933.0,232.8 933.1,232.5 933.2,231.9 933.4,232.1 933.5,232.1 933.6,232.7 933.7,232.5 933.9,232.2 934.0,232.1" fill="none" stroke="#d97706" stroke-width="1.2" stroke-linejoin="round" opacity="0.6"/><text x="942" y="472.0" text-anchor="start" font-size="11" fill="#d97706">0.07</text><text x="942" y="396.0" text-anchor="start" font-size="11" fill="#d97706">0.11</text><text x="942" y="320.0" text-anchor="start" font-size="11" fill="#d97706">0.15</text><text x="942" y="244.0" text-anchor="start" font-size="11" fill="#d97706">0.19</text><text x="942" y="168.0" text-anchor="start" font-size="11" fill="#d97706">0.23</text><text x="942" y="92.0" text-anchor="start" font-size="11" fill="#d97706">0.27</text><text x="942" y="80.0" text-anchor="start" font-size="11" font-weight="600" fill="#d97706">price</text>
  <polygon points="630.9,468.0 630.9,459.4 630.9,460.2 834.4,457.1 834.9,458.1 836.6,454.0 837.4,450.1 837.8,445.2 837.9,447.3 838.2,438.9 838.2,441.6 838.3,445.2 838.7,450.0 838.7,430.9 838.7,434.3 838.7,438.9 838.7,445.1 838.7,420.7 838.7,407.6 838.7,413.2 838.7,420.7 838.8,430.7 838.8,444.0 838.9,446.2 838.9,449.2 839.0,437.4 839.4,428.9 839.7,418.0 839.7,422.7 839.8,428.9 839.9,404.3 840.3,386.6 841.0,364.0 841.5,373.7 841.7,386.6 841.8,403.8 843.0,335.5 843.2,347.8 843.6,364.2 843.6,386.2 847.2,299.1 852.1,314.8 853.5,252.3 856.0,192.5 861.1,116.1 862.0,148.9 888.4,192.5 888.4,468.0" fill="#16a34a" fill-opacity="0.08"/>
  <polyline points="630.9,459.4 630.9,460.2 834.4,457.1 834.9,458.1 836.6,454.0 837.4,450.1 837.8,445.2 837.9,447.3 838.2,438.9 838.2,441.6 838.3,445.2 838.7,450.0 838.7,430.9 838.7,434.3 838.7,438.9 838.7,445.1 838.7,420.7 838.7,407.6 838.7,413.2 838.7,420.7 838.8,430.7 838.8,444.0 838.9,446.2 838.9,449.2 839.0,437.4 839.4,428.9 839.7,418.0 839.7,422.7 839.8,428.9 839.9,404.3 840.3,386.6 841.0,364.0 841.5,373.7 841.7,386.6 841.8,403.8 843.0,335.5 843.2,347.8 843.6,364.2 843.6,386.2 847.2,299.1 852.1,314.8 853.5,252.3 856.0,192.5 861.1,116.1 862.0,148.9 888.4,192.5" fill="none" stroke="#16a34a" stroke-width="2" stroke-linejoin="round"/>
  <line x1="88" y1="102" x2="110" y2="102" stroke="#16a34a" stroke-width="2.5"/><text x="116" y="106" font-size="11.5" fill="#374151">equity</text><line x1="88" y1="118" x2="110" y2="118" stroke="#d97706" stroke-width="2.5" opacity="0.8"/><text x="116" y="122" font-size="11.5" fill="#374151">price</text>
  <text x="78" y="502" text-anchor="start" font-size="12" fill="#6b7280">2025-10-10</text><text x="934" y="502" text-anchor="end" font-size="12" fill="#6b7280">2025-10-10</text>
</svg>
