<?xml version="1.0" encoding="UTF-8"?>
<svg xmlns="http://www.w3.org/2000/svg" width="1000" height="520" viewBox="0 0 1000 520" font-family="ui-sans-serif, system-ui, sans-serif">
  <rect width="1000" height="520" fill="#ffffff"/>
  <text x="78" y="28" font-size="18" font-weight="700" fill="#111827">Zone Recovery — LTCUSDT best setting (equity / PnL)</text>
  <text x="78" y="48" font-size="12.5" fill="#6b7280">lev 20 · ratio 4 · gap 20% · maxSteps 6 · maxDD 20% · random · vip 9  ·  29 series, 86.2% win · vol $116129897 ($3746128/day) · fees $17768</text>
  <text x="78" y="68" font-size="12.5" font-weight="600" fill="#1d4ed8">USDT · BNB −10% · taker 0.0153%</text>
  <text x="934" y="28" text-anchor="end" font-size="18" font-weight="700" fill="#16a34a">+244742 USDT  (+0.24%)</text>
  <line x1="78" y1="468.0" x2="934" y2="468.0" stroke="#e5e7eb" stroke-width="1"/><text x="68" y="472.0" text-anchor="end" font-size="12" fill="#6b7280">0.00</text><line x1="78" y1="392.0" x2="934" y2="392.0" stroke="#e5e7eb" stroke-width="1"/><text x="68" y="396.0" text-anchor="end" font-size="12" fill="#6b7280">21670250</text><line x1="78" y1="316.0" x2="934" y2="316.0" stroke="#e5e7eb" stroke-width="1"/><text x="68" y="320.0" text-anchor="end" font-size="12" fill="#6b7280">43340499</text><line x1="78" y1="240.0" x2="934" y2="240.0" stroke="#e5e7eb" stroke-width="1"/><text x="68" y="244.0" text-anchor="end" font-size="12" fill="#6b7280">65010749</text><line x1="78" y1="164.0" x2="934" y2="164.0" stroke="#e5e7eb" stroke-width="1"/><text x="68" y="168.0" text-anchor="end" font-size="12" fill="#6b7280">86680999</text><line x1="78" y1="88.0" x2="934" y2="88.0" stroke="#e5e7eb" stroke-width="1"/><text x="68" y="92.0" text-anchor="end" font-size="12" fill="#6b7280">108351249</text>
  <line x1="78" y1="117.3" x2="934" y2="117.3" stroke="#9ca3af" stroke-width="1.5" stroke-dasharray="6 4"/><text x="934" y="111.3" text-anchor="end" font-size="11" fill="#6b7280">start 100000000</text>
  <polyline points="78.0,201.3 78.6,199.2 79.1,199.1 79.6,198.3 80.1,196.7 80.9,198.1 81.7,197.8 82.5,200.6 83.0,202.2 83.7,202.2 84.3,197.0 85.1,198.4 85.9,197.3 86.6,198.3 87.4,197.0 88.2,195.3 88.5,194.5 89.2,194.0 89.8,194.4 90.7,194.5 91.5,192.9 91.9,191.8 92.4,193.5 93.2,191.9 93.8,189.6 94.2,187.4 94.6,189.0 95.1,185.9 95.4,187.0 95.9,182.4 96.1,179.5 96.2,176.7 96.4,178.8 96.7,181.6 97.0,178.8 97.3,180.0 97.7,178.2 98.1,181.8 98.3,176.7 98.7,177.3 99.3,177.8 99.9,176.8 100.4,176.5 100.8,173.1 101.1,173.0 101.6,172.4 102.0,172.3 102.5,173.5 103.2,172.9 103.6,169.8 104.2,171.3 104.6,170.1 105.1,168.6 105.6,167.3 105.8,171.2 106.2,169.7 106.8,170.4 107.3,173.0 107.7,176.2 108.3,174.4 109.0,172.9 109.4,167.8 109.8,166.3 110.0,164.3 110.4,166.7 110.8,170.3 111.4,170.8 112.1,171.2 112.8,169.9 113.4,170.4 114.0,172.4 114.6,173.9 115.2,173.5 115.8,174.0 116.3,170.2 116.8,167.5 116.9,163.5 117.1,164.1 117.4,164.1 117.8,165.2 118.1,165.7 118.6,171.2 119.1,171.8 119.6,170.5 120.1,167.3 120.5,165.4 120.9,165.4 121.4,165.7 122.0,167.1 122.3,166.5 122.5,164.7 122.5,163.7 122.6,157.7 122.7,155.4 122.8,161.6 123.0,166.9 123.2,165.0 123.4,165.1 123.7,159.1 123.9,160.3 124.2,160.8 124.4,159.1 124.6,153.6 124.7,154.0 124.9,156.3 125.0,155.0 125.2,150.8 125.4,152.7 125.6,151.0 125.9,155.4 126.3,153.5 126.7,151.6 127.1,153.9 127.5,154.1 127.9,153.4 128.2,152.8 128.9,152.3 129.6,153.9 130.2,151.8 130.8,148.2 131.0,146.1 131.2,147.0 131.8,144.4 132.2,145.3 132.7,147.4 133.3,146.7 133.7,143.9 134.3,143.7 134.7,141.8 135.2,140.5 135.6,142.1 136.1,140.6 136.5,137.8 137.0,140.6 137.5,141.4 138.0,139.2 138.6,139.8 139.1,138.9 139.7,144.3 140.0,144.4 140.3,137.9 140.9,142.4 141.3,143.0 141.6,148.0 141.7,152.9 141.9,152.9 142.2,152.4 142.6,152.7 143.0,147.6 143.2,151.9 143.4,152.0 143.9,151.9 144.4,150.0 144.8,152.8 145.4,152.6 145.8,150.6 146.4,153.2 147.1,153.1 147.8,152.5 148.3,149.4 148.9,146.8 149.4,148.5 149.9,147.3 150.3,152.7 150.4,158.8 150.7,154.9 151.0,154.2 151.5,152.9 152.1,150.6 152.6,145.6 153.0,145.8 153.5,142.0 154.2,141.9 154.7,140.8 155.7,142.1 156.5,145.6 157.1,141.3 157.9,140.9 158.7,144.5 159.5,141.3 160.4,142.9 160.9,137.2 161.1,139.3 161.4,142.3 161.9,140.7 162.4,144.9 163.1,143.8 163.8,142.5 164.5,141.8 165.1,139.4 165.8,138.4 166.4,139.1 167.1,141.1 167.8,139.8 168.2,138.2 168.6,143.4 169.2,143.7 169.9,141.9 170.3,146.5 170.7,145.3 171.4,145.0 171.9,140.5 172.3,139.5 172.8,140.6 173.3,139.3 173.7,142.7 174.4,141.9 174.8,140.1 175.2,135.9 175.3,137.6 175.7,136.7 176.0,140.4 176.4,141.7 177.0,138.4 177.5,139.4 177.9,139.9 178.1,142.7 178.5,140.8 179.1,140.2 179.4,136.3 179.9,135.3 180.3,135.3 180.8,134.5 181.5,135.9 182.0,141.4 182.4,140.2 182.8,146.4 182.9,147.5 183.2,145.5 183.8,143.8 184.4,143.0 185.1,143.8 185.4,143.0 186.1,146.4 186.7,144.9 187.4,141.8 187.9,144.2 188.5,138.3 188.6,142.2 189.0,142.5 189.4,136.9 189.6,138.4 189.8,133.4 190.1,134.1 190.3,130.3 190.5,130.2 190.8,129.7 190.9,131.9 191.3,136.3 191.6,137.8 191.8,141.0 192.2,141.6 192.7,140.6 193.2,140.0 193.6,146.2 193.7,148.6 193.9,148.6 194.3,147.0 194.8,144.6 195.2,148.4 195.6,146.0 196.0,148.9 196.4,143.5 197.0,142.1 197.6,141.0 198.2,142.2 198.7,142.5 199.0,146.4 199.6,144.6 200.0,146.1 200.6,146.9 201.0,147.6 201.5,148.0 202.1,146.0 202.7,148.1 203.2,144.5 203.6,145.9 204.1,147.8 204.5,146.5 205.1,145.6 205.2,141.1 205.3,137.4 205.4,136.5 205.5,138.5 205.7,137.2 205.8,137.3 206.0,133.8 206.3,134.1 206.4,131.1 206.6,128.6 206.7,129.8 207.0,129.8 207.2,131.5 207.4,134.4 207.7,134.2 208.1,135.9 208.5,141.9 208.6,142.1 209.0,136.7 209.1,132.2 209.4,133.3 209.8,133.0 210.1,127.3 210.3,126.6 210.6,126.4 210.9,123.8 211.1,126.4 211.5,127.4 211.7,122.9 212.0,121.8 212.0,120.3 212.1,122.5 212.4,124.1 212.7,125.1 213.2,128.2 213.7,126.9 214.2,122.2 214.6,121.8 215.1,124.8 215.6,126.3 216.2,127.0 216.4,131.7 216.7,134.0 217.0,132.1 217.3,124.7 217.6,124.4 217.9,124.3 218.2,130.2 218.7,131.2 219.1,129.8 219.6,127.0 220.1,124.2 220.6,125.4 221.1,125.8 221.7,126.8 222.3,128.2 222.8,129.7 223.3,128.3 223.8,125.9 224.2,126.9 224.7,132.3 225.0,134.6 225.3,132.1 225.8,134.0 226.4,134.5 226.9,132.0 227.6,134.7 228.2,132.2 228.8,131.4 229.3,129.3 229.8,126.4 230.2,123.8 230.6,123.0 231.0,122.1 231.4,120.9 231.9,123.6 232.3,123.5 232.5,119.7 232.6,117.9 232.7,115.5 232.8,117.2 233.0,121.2 233.1,125.8 233.3,127.7 233.5,120.8 233.7,119.5 234.0,121.3 234.1,131.6 234.3,129.7 234.5,129.4 234.6,137.0 234.8,134.9 235.0,141.2 235.1,139.5 235.2,140.9 235.3,144.4 235.5,142.2 235.6,139.1 235.9,138.4 236.1,138.4 236.4,137.9 236.5,146.0 236.7,147.2 236.7,153.2 236.8,150.2 236.9,143.9 237.2,143.6 237.5,141.1 237.8,139.5 238.2,137.9 238.8,140.7 239.3,135.9 239.7,135.7 240.1,136.8 240.5,135.3 240.6,126.5 240.7,127.6 240.9,123.9 241.1,123.8 241.5,124.4 242.0,128.1 242.7,125.5 243.2,122.8 243.8,124.7 244.3,129.3 244.8,133.5 245.2,136.3 245.6,134.5 246.1,134.6 246.6,132.1 247.1,128.6 247.7,128.1 248.4,129.4 249.2,131.6 249.7,133.8 250.3,133.6 251.1,133.5 251.8,135.4 252.3,130.9 252.9,129.5 253.2,128.5 253.8,129.2 254.1,125.7 254.4,130.5 254.7,134.8 254.9,138.1 255.1,137.2 255.5,135.0 256.0,136.7 256.5,136.9 257.1,137.0 257.6,139.9 258.0,141.7 258.3,144.7 258.4,138.2 258.9,139.9 259.2,136.8 259.6,139.1 259.9,143.9 260.1,145.2 260.2,148.5 260.4,150.2 260.4,147.5 260.5,145.7 260.6,143.3 260.7,142.7 260.9,143.9 261.0,148.0 261.2,147.5 261.3,151.5 261.5,149.7 261.8,149.4 262.1,151.3 262.4,149.6 262.7,152.3 263.0,149.8 263.5,150.1 263.9,147.0 264.4,151.8 264.9,153.4 265.3,149.9 265.7,151.4 265.9,154.6 266.1,151.5 266.7,151.2 267.1,154.1 267.6,151.9 268.2,150.7 268.9,150.8 269.6,149.3 270.1,150.9 270.5,147.5 270.9,148.8 271.4,148.9 271.9,150.8 272.5,146.7 273.0,143.5 273.6,143.3 274.2,146.0 274.8,146.2 275.6,148.9 275.9,152.6 276.3,152.3 276.8,147.1 277.4,145.7 278.0,147.8 278.4,152.9 278.7,154.5 279.0,153.8 279.3,158.7 279.3,157.5 279.4,162.8 279.5,161.2 279.7,158.0 280.0,153.9 280.4,153.2 280.8,151.0 281.1,154.1 281.5,155.7 281.8,155.3 282.2,160.5 282.5,158.9 282.8,163.8 283.1,160.3 283.4,156.7 283.9,155.1 284.3,159.2 284.5,160.1 284.9,157.7 285.3,161.2 285.8,160.9 286.3,161.8 286.7,158.7 287.1,161.0 287.5,159.6 287.8,160.9 288.0,165.1 288.1,160.9 288.3,166.9 288.4,159.9 288.6,160.8 288.7,158.0 288.9,157.3 289.1,154.2 289.3,153.4 289.7,152.4 289.9,153.8 290.3,155.1 290.6,153.6 290.9,150.9 291.3,152.4 291.7,152.6 292.1,151.4 292.8,151.2 293.3,150.7 293.9,153.2 294.4,160.2 294.6,161.3 294.9,161.1 295.1,157.0 295.3,156.2 296.0,156.0 296.5,152.3 297.0,150.7 297.6,150.9 298.3,151.3 299.0,152.6 299.5,151.3 300.0,148.9 300.3,147.8 300.6,147.1 300.8,154.0 301.3,151.9 301.8,149.4 302.6,151.8 303.4,149.6 304.0,146.2 304.7,149.0 305.6,151.2 306.4,150.2 307.0,148.0 307.8,148.0 308.2,151.3 308.8,151.6 309.0,160.2 309.2,158.6 309.5,154.5 310.1,153.8 310.9,154.4 311.7,153.5 312.2,153.7 312.9,155.1 313.6,156.7 314.2,153.3 314.5,156.2 314.7,156.0 315.1,159.6 315.3,163.3 315.4,166.1 315.6,162.4 315.7,163.1 315.8,159.0 316.0,159.0 316.2,160.4 316.4,161.5 316.6,158.0 316.7,150.0 316.8,149.3 317.0,153.3 317.2,155.1 317.4,149.5 317.7,146.3 318.0,150.7 318.4,148.1 318.8,151.9 319.3,150.2 319.8,147.2 320.2,153.5 320.6,150.4 321.2,156.3 321.6,156.9 321.8,154.9 322.1,156.5 322.9,156.9 323.6,152.5 324.5,151.3 325.3,149.7 326.3,150.8 327.1,152.3 327.9,151.8 328.7,151.4 329.5,153.2 330.2,156.5 331.2,155.1 331.8,158.2 332.7,156.5 333.5,156.1 334.4,154.8 335.2,151.9 335.8,150.2 336.7,152.8 337.5,150.4 338.1,149.4 338.9,149.4 339.6,149.6 340.2,148.1 340.8,148.2 341.4,147.5 341.7,143.1 342.0,144.8 342.4,142.4 342.8,144.8 343.2,143.8 343.4,145.0 343.5,149.5 343.9,149.7 344.7,151.2 345.3,152.0 346.1,149.9 346.8,153.7 347.2,155.2 347.9,153.3 349.0,152.5 349.7,152.4 350.8,152.6 351.8,155.2 352.5,154.5 353.2,154.7 353.9,153.7 354.8,153.2 355.7,153.1 356.6,152.1 357.2,150.6 358.1,150.1 358.8,149.3 359.4,152.4 360.1,150.8 360.9,152.1 361.5,155.1 362.1,151.9 362.8,153.2 363.1,152.8 363.7,154.2 364.4,152.9 365.2,153.8 365.9,152.0 366.8,153.9 367.7,155.0 368.2,155.2 368.9,154.0 369.4,154.1 369.8,157.2 370.3,158.8 370.7,156.5 371.2,155.5 371.5,157.2 372.0,155.4 372.3,162.0 372.6,161.2 373.0,161.0 373.2,156.4 373.6,158.6 374.3,160.4 374.9,161.0 375.3,163.6 375.8,159.3 376.5,159.2 377.1,164.6 377.3,168.4 377.5,168.9 377.6,169.4 378.0,166.7 378.4,173.0 378.6,173.3 379.0,173.2 379.3,174.2 379.5,177.6 379.7,178.8 380.0,177.6 380.4,176.8 380.7,177.0 380.7,179.7 380.9,174.9 381.1,176.4 381.5,178.9 381.7,180.5 381.9,181.7 382.0,184.3 382.2,181.8 382.4,184.6 382.5,188.0 382.6,186.5 382.7,189.1 382.8,187.3 382.9,183.7 383.0,180.3 383.2,182.7 383.4,178.3 383.6,187.3 383.9,181.2 384.1,180.7 384.3,175.9 384.5,181.5 384.8,180.2 385.0,175.2 385.2,177.0 385.4,172.8 385.6,168.4 385.8,170.3 386.1,173.9 386.4,175.3 386.6,173.2 387.0,170.5 387.3,166.9 387.6,166.6 387.8,163.0 388.0,160.3 388.3,165.0 388.7,167.9 389.1,167.7 389.5,167.3 389.7,172.3 390.1,172.3 390.4,178.1 390.6,181.4 390.9,180.9 391.1,178.7 391.4,178.3 391.6,184.7 391.8,186.5 391.9,187.2 392.1,185.8 392.4,187.4 392.8,186.3 393.2,187.4 393.5,189.0 393.8,192.4 394.0,193.0 394.3,196.2 394.5,193.1 394.8,192.3 395.1,190.2 395.5,192.2 395.8,196.1 396.0,198.1 396.2,197.6 396.5,196.7 396.6,202.3 396.6,206.5 396.7,207.3 396.7,207.6 396.8,208.3 396.8,214.5 396.9,210.1 397.0,211.0 397.2,210.2 397.4,207.8 397.6,208.9 397.9,208.5 398.1,205.5 398.2,207.2 398.3,205.8 398.5,202.4 398.6,203.7 398.8,202.4 398.9,200.3 399.1,203.7 399.3,201.0 399.4,200.4 399.6,196.9 399.7,195.7 399.9,198.0 400.2,198.6 400.3,199.0 400.6,197.8 400.8,193.5 400.9,197.5 401.1,199.8 401.4,200.9 401.6,201.7 401.8,204.7 402.0,204.4 402.3,201.6 402.6,201.1 402.8,204.7 403.0,206.8 403.2,209.5 403.5,203.6 403.8,206.0 404.0,209.3 404.3,210.5 404.7,208.9 404.9,204.4 405.2,206.0 405.5,208.9 405.9,210.0 406.2,208.7 406.4,205.1 406.8,209.2 407.1,205.1 407.4,204.4 407.8,207.7 408.2,209.9 408.5,210.8 408.7,209.3 409.1,210.0 409.4,210.5 409.6,209.3 409.8,211.2 410.1,209.9 410.3,211.1 410.6,211.2 410.8,210.5 411.1,211.5 411.4,210.0 411.7,206.1 412.0,204.5 412.3,208.4 412.7,209.7 413.0,209.6 413.3,206.4 413.5,208.0 414.0,208.1 414.2,204.1 414.7,207.0 415.2,204.7 415.5,203.6 415.7,205.2 416.1,204.3 416.5,206.2 416.8,206.4 417.3,203.9 417.6,203.6 418.0,204.2 418.0,200.3 418.4,202.4 418.7,200.5 419.0,205.4 419.2,209.5 419.4,205.2 419.8,203.2 420.0,205.2 420.2,207.3 420.4,209.3 420.7,208.6 420.9,207.5 421.2,211.0 421.4,213.8 421.5,218.0 421.6,215.2 421.8,215.4 422.0,215.2 422.2,212.5 422.5,210.6 422.7,208.3 422.9,207.6 423.2,206.3 423.5,207.7 423.8,206.7 424.1,205.7 424.3,203.1 424.5,202.0 424.8,205.4 424.9,203.9 425.0,202.6 425.0,203.6 425.2,201.4 425.4,205.7 425.5,207.4 425.8,202.3 425.9,200.3 426.0,199.2 426.1,200.0 426.2,195.5 426.3,195.7 426.4,197.2 426.5,203.5 426.6,201.1 426.8,201.1 426.9,204.8 427.1,207.4 427.2,208.7 427.3,203.4 427.5,204.6 427.7,199.6 427.8,196.0 427.9,195.6 428.0,198.4 428.2,196.6 428.4,193.9 428.5,191.9 428.6,191.8 428.8,192.1 429.0,195.4 429.2,198.5 429.3,201.3 429.6,200.0 429.9,197.1 430.1,204.1 430.2,205.1 430.4,202.7 430.6,205.7 430.7,208.5 430.8,210.2 430.9,209.4 431.0,207.7 431.2,207.4 431.3,208.9 431.5,206.2 431.6,204.5 431.7,201.0 431.9,198.3 432.2,198.7 432.4,197.8 432.6,196.3 432.8,195.8 433.1,203.0 433.2,205.9 433.4,202.2 433.6,202.6 433.9,200.1 434.3,201.2 434.6,197.5 434.8,194.4 434.9,189.2 434.9,182.1 434.9,184.6 434.9,192.9 434.9,195.3 435.0,191.9 435.0,187.0 435.1,185.6 435.2,182.9 435.2,182.7 435.3,182.4 435.4,179.7 435.5,181.9 435.6,180.6 435.7,185.7 435.8,180.2 436.0,180.5 436.2,180.1 436.3,186.4 436.4,189.7 436.6,188.6 436.8,189.8 437.0,185.4 437.1,184.0 437.3,191.8 437.4,185.8 437.6,187.3 437.8,183.3 438.0,183.4 438.1,187.2 438.3,182.7 438.5,182.0 438.6,186.1 438.8,185.9 439.0,186.6 439.1,188.5 439.4,189.1 439.6,184.0 439.8,184.2 440.1,182.7 440.3,186.1 440.5,184.6 440.7,186.5 441.0,182.8 441.2,178.3 441.4,177.4 441.5,175.3 441.6,176.6 441.7,182.0 441.9,181.0 442.0,178.2 442.2,178.9 442.4,182.9 442.6,181.2 442.8,184.4 443.1,180.8 443.4,180.4 443.6,183.0 443.9,183.5 444.1,186.3 444.3,182.1 444.6,179.9 444.9,178.1 445.1,175.5 445.4,175.2 445.6,179.2 445.9,175.0 446.2,176.2 446.5,177.5 446.8,180.8 447.1,181.2 447.4,177.9 447.5,173.3 447.7,173.2 447.8,175.3 448.0,176.8 448.2,175.7 448.4,179.1 448.6,180.8 448.8,176.5 449.0,181.2 449.3,180.3 449.6,185.1 449.8,184.5 450.1,185.4 450.5,187.0 450.7,191.4 450.9,186.3 451.2,183.9 451.7,183.2 451.9,180.1 452.0,181.5 452.3,180.5 452.5,177.4 452.7,179.2 452.9,182.7 453.1,182.2 453.3,178.8 453.4,179.1 453.6,181.0 453.7,180.3 453.8,175.0 453.9,173.2 454.0,173.1 454.1,172.7 454.2,174.8 454.3,177.0 454.4,175.8 454.5,171.8 454.6,173.0 454.6,165.9 454.7,160.4 454.7,158.3 454.8,157.4 454.8,161.6 454.9,164.4 455.0,167.2 455.0,169.3 455.1,167.7 455.2,171.1 455.4,169.1 455.5,167.1 455.6,165.6 455.8,166.5 456.0,167.9 456.1,171.3 456.2,168.9 456.3,173.2 456.5,175.3 456.6,178.8 456.7,175.9 456.8,176.3 457.0,176.4 457.2,182.4 457.3,182.2 457.5,182.8 457.6,187.0 457.7,188.6 457.8,185.3 457.9,188.3 458.1,184.2 458.3,183.7 458.4,190.8 458.4,191.8 458.6,190.3 458.7,189.4 458.9,191.5 459.0,192.5 459.1,192.1 459.3,186.7 459.4,183.5 459.5,189.7 459.8,192.4 459.9,194.1 460.1,194.4 460.2,189.4 460.4,191.2 460.5,196.7 460.7,197.8 460.8,195.7 461.0,195.7 461.2,193.0 461.4,192.0 461.7,190.5 461.9,192.5 462.2,195.6 462.4,193.9 462.7,191.2 462.9,196.1 463.1,198.5 463.1,205.1 463.1,203.5 463.3,201.9 463.4,203.0 463.6,200.0 463.8,201.0 463.9,205.7 464.0,209.2 464.1,205.1 464.4,202.2 464.6,203.7 464.8,204.2 465.0,205.6 465.2,206.3 465.4,204.8 465.5,209.6 465.6,208.4 465.8,206.9 465.9,203.1 466.1,204.7 466.3,205.1 466.4,207.5 466.6,205.9 466.8,209.5 466.9,211.2 467.0,209.3 467.2,209.4 467.4,209.2 467.6,214.5 467.6,214.6 467.8,212.5 467.9,214.8 468.1,213.1 468.2,215.1 468.4,216.9 468.6,223.6 468.6,225.3 468.6,232.8 468.6,232.6 468.6,241.3 468.6,234.0 468.6,228.8 468.6,230.2 468.6,231.7 468.6,232.7 468.7,234.0 468.7,233.2 468.8,237.8 468.8,237.7 468.8,236.8 468.9,235.1 469.0,232.7 469.1,231.0 469.2,233.0 469.2,231.3 469.3,231.5 469.4,231.1 469.5,232.5 469.7,227.8 469.8,228.7 469.9,227.5 470.0,226.3 470.1,227.5 470.3,228.7 470.4,226.6 470.6,226.4 470.8,226.7 471.0,227.1 471.2,225.5 471.5,225.3 471.7,226.3 471.9,225.9 472.1,225.4 472.3,229.4 472.4,228.8 472.7,227.9 472.9,228.6 473.1,225.4 473.3,226.1 473.5,224.7 473.7,225.5 473.8,228.4 473.9,223.7 474.0,219.5 474.1,222.6 474.2,220.9 474.4,221.8 474.6,221.8 474.8,218.4 474.9,219.8 475.1,225.3 475.3,223.9 475.5,220.0 475.7,219.6 475.7,214.1 475.8,212.0 475.8,207.8 475.8,205.7 475.8,206.7 475.9,208.6 476.0,208.5 476.1,210.1 476.3,210.8 476.5,210.7 476.7,213.1 476.9,213.2 477.1,213.7 477.3,213.1 477.5,214.6 477.7,212.1 477.9,214.7 478.1,216.2 478.2,216.4 478.4,214.5 478.6,213.7 478.8,217.9 479.1,215.1 479.4,214.0 479.6,214.0 479.8,214.4 480.0,210.7 480.2,214.3 480.4,211.8 480.6,210.8 480.8,214.0 481.0,217.0 481.2,217.7 481.3,220.7 481.4,222.9 481.5,222.9 481.6,224.0 481.6,225.9 481.6,220.5 481.7,219.6 481.9,222.4 482.0,221.0 482.2,221.4 482.3,227.7 482.4,228.1 482.6,229.9 482.6,233.5 482.6,237.4 482.7,233.1 482.7,236.9 482.7,241.6 482.7,245.8 482.7,251.3 482.7,258.6 482.7,264.1 482.7,267.0 482.7,271.0 482.7,280.5 482.7,278.3 482.7,267.3 482.7,269.2 482.7,259.2 482.7,263.3 482.8,254.8 482.8,255.6 482.8,255.4 482.8,254.7 482.8,259.0 482.9,257.7 482.9,257.9 482.9,256.5 483.0,255.5 483.0,254.8 483.0,250.2 483.0,253.6 483.1,255.3 483.1,256.0 483.2,252.2 483.2,245.0 483.2,249.5 483.3,251.8 483.3,254.0 483.4,252.8 483.5,250.5 483.6,252.4 483.7,250.1 483.8,244.7 483.8,246.6 483.9,246.3 484.0,243.4 484.2,242.2 484.3,244.3 484.4,245.0 484.6,242.0 484.7,240.5 484.8,240.9 485.0,240.0 485.2,246.0 485.3,247.6 485.5,247.5 485.6,251.0 485.7,250.4 485.9,251.6 486.1,255.7 486.2,255.3 486.4,256.0 486.5,253.6 486.7,254.5 487.0,255.5 487.2,254.4 487.4,256.1 487.6,254.0 487.8,252.0 488.1,254.6 488.3,252.6 488.5,257.3 488.6,260.9 488.7,257.3 488.9,254.8 489.2,252.7 489.3,251.4 489.5,253.5 489.8,253.5 490.1,251.9 490.3,250.3 490.6,250.0 490.9,250.5 491.2,253.7 491.5,251.3 491.7,253.1 492.0,251.9 492.2,250.5 492.5,251.1 492.7,251.8 492.9,252.0 493.2,252.9 493.4,254.1 493.6,255.6 493.7,254.6 494.0,255.8 494.3,254.4 494.5,255.3 494.7,255.9 495.0,253.6 495.2,250.2 495.4,250.3 495.7,248.5 495.9,248.6 496.2,251.3 496.5,250.2 496.8,250.2 497.0,250.6 497.4,250.3 497.6,252.2 497.8,255.9 497.8,258.8 498.0,256.2 498.2,255.8 498.5,255.5 498.8,252.6 499.0,252.2 499.2,254.4 499.5,253.2 499.9,252.6 500.3,251.4 500.6,252.1 500.9,253.0 501.2,253.4 501.5,250.8 501.7,249.4 502.0,247.5 502.3,247.6 502.5,249.4 502.7,250.8 503.1,251.1 503.5,252.1 503.7,252.1 504.0,254.1 504.4,253.9 504.7,254.5 505.0,250.4 505.2,250.3 505.5,248.6 505.7,249.0 505.9,245.4 506.1,245.8 506.4,246.3 506.6,249.7 507.0,249.5 507.3,249.6 507.6,251.4 507.9,252.7 508.2,248.6 508.4,247.1 508.6,248.3 508.8,245.3 509.0,246.2 509.2,244.9 509.4,246.3 509.6,247.6 509.8,248.2 509.9,249.3 510.1,255.6 510.1,259.5 510.1,264.4 510.1,259.2 510.2,255.6 510.3,256.1 510.3,248.2 510.4,255.5 510.5,253.1 510.6,255.6 510.7,253.3 510.9,254.5 511.0,254.0 511.3,254.6 511.5,254.2 511.7,255.5 512.0,255.5 512.2,257.7 512.5,251.6 512.7,249.5 512.9,249.2 513.0,247.0 513.2,242.7 513.3,240.6 513.3,233.7 513.3,237.4 513.4,235.4 513.5,237.3 513.7,238.4 513.9,239.1 514.0,231.2 514.1,229.6 514.1,230.9 514.2,229.1 514.4,229.8 514.5,230.1 514.6,229.9 514.7,223.7 514.8,231.3 515.0,230.4 515.3,233.0 515.4,233.9 515.6,229.8 515.8,227.5 515.9,225.1 516.1,224.5 516.3,224.9 516.4,226.2 516.6,224.3 516.9,225.6 517.1,223.5 517.3,223.1 517.5,220.2 517.6,222.3 517.8,223.4 518.0,223.6 518.2,225.1 518.5,218.9 518.5,217.6 518.6,215.6 518.7,218.3 518.8,218.5 519.0,214.6 519.1,214.0 519.2,210.8 519.3,217.2 519.5,216.9 519.7,217.4 519.9,218.9 520.0,222.0 520.1,220.8 520.4,219.0 520.6,220.3 520.7,215.1 521.0,217.0 521.1,212.4 521.2,217.7 521.4,215.1 521.7,219.7 521.8,223.6 522.0,224.9 522.2,226.5 522.4,227.2 522.8,227.1 523.2,227.7 523.5,228.1 523.9,229.7 524.3,228.4 524.6,233.8 524.9,231.4 525.3,231.3 525.6,225.3 525.8,224.7 526.1,225.4 526.5,223.6 526.8,224.5 527.0,223.7 527.3,224.9 527.6,227.4 528.1,227.5 528.5,225.9 528.8,224.9 529.1,223.5 529.4,222.6 529.7,221.7 529.9,221.1 530.2,221.5 530.6,221.4 530.9,222.4 531.2,222.5 531.6,223.1 531.9,221.3 532.2,222.7 532.5,223.3 532.7,224.0 533.0,223.3 533.4,226.3 533.7,227.2 534.1,226.7 534.5,229.6 534.8,231.0 535.0,229.8 535.2,227.8 535.6,228.2 536.1,227.9 536.5,227.1 536.7,221.6 537.0,222.5 537.2,221.6 537.5,222.7 537.8,223.4 538.1,223.9 538.4,223.0 538.6,226.5 538.9,227.4 539.3,224.8 539.6,225.0 540.0,225.2 540.4,227.2 540.8,224.6 541.1,222.3 541.4,223.1 541.8,221.5 542.1,222.2 542.4,221.2 542.8,220.3 543.1,220.9 543.4,220.3 543.8,221.2 544.2,222.9 544.6,223.5 545.0,222.6 545.4,220.2 545.7,223.0 546.0,225.1 546.4,222.9 546.8,224.0 547.2,223.5 547.6,223.0 548.0,220.9 548.2,221.7 548.5,221.7 548.7,221.3 548.9,224.3 549.2,225.8 549.4,227.9 549.7,226.9 550.0,224.5 550.4,227.7 550.8,226.5 551.2,224.7 551.6,223.3 552.0,222.7 552.3,224.1 552.6,227.7 553.2,226.0 553.7,223.0 554.1,220.2 554.4,221.4 554.7,221.4 555.1,222.7 555.6,223.1 556.1,223.5 556.6,222.1 557.0,223.3 557.1,215.2 557.3,220.7 557.5,218.4 557.8,217.2 558.0,216.2 558.3,216.9 558.6,216.5 558.9,214.6 559.1,217.4 559.4,216.4 559.7,217.6 560.1,215.4 560.4,214.6 560.7,212.9 561.0,215.1 561.3,216.5 561.6,214.8 561.8,212.1 562.1,215.1 562.3,220.7 562.5,223.9 562.8,222.8 563.1,222.7 563.3,222.4 563.7,224.1 564.0,220.5 564.3,224.3 564.6,225.5 564.9,225.0 565.3,224.7 565.8,223.4 566.1,222.4 566.5,222.8 567.0,222.4 567.6,223.7 567.9,221.1 568.2,221.7 568.7,217.2 568.8,216.4 569.1,217.2 569.5,218.3 569.9,218.3 570.3,220.4 570.8,220.3 571.2,219.8 571.8,221.2 572.5,219.9 573.1,220.2 573.8,219.2 574.0,225.5 574.3,224.3 574.4,230.9 574.4,239.2 574.4,245.9 574.5,241.7 574.5,237.9 574.6,241.1 574.7,242.8 574.8,246.6 574.8,250.2 574.8,251.5 574.9,248.6 575.0,251.7 575.0,251.1 575.0,260.4 575.0,260.7 575.0,264.6 575.1,275.3 575.1,268.9 575.1,275.5 575.1,284.8 575.1,292.5 575.1,288.6 575.1,298.8 575.1,302.9 575.1,284.9 575.1,312.5 575.1,303.1 575.1,302.4 575.1,322.8 575.1,313.2 575.1,311.5 575.1,308.7 575.1,296.8 575.1,296.8 575.1,289.1 575.1,287.6 575.1,284.7 575.1,280.8 575.1,276.9 575.1,276.9 575.1,277.7 575.1,277.9 575.1,277.4 575.2,280.8 575.2,283.0 575.2,281.0 575.2,279.9 575.2,283.6 575.3,282.2 575.3,282.1 575.3,282.6 575.3,284.3 575.4,284.6 575.4,280.1 575.4,278.7 575.4,284.2 575.5,286.4 575.5,282.8 575.5,281.5 575.6,283.4 575.6,286.7 575.6,285.5 575.7,284.8 575.7,285.6 575.8,282.6 575.9,281.7 575.9,281.9 576.0,280.5 576.1,281.6 576.2,282.4 576.2,282.3 576.3,279.0 576.4,276.8 576.5,277.9 576.6,280.3 576.7,281.3 576.8,280.4 576.9,278.4 577.0,280.9 577.1,282.7 577.3,280.9 577.5,277.8 577.7,278.4 577.9,278.7 578.1,277.7 578.3,279.8 578.6,278.2 578.8,277.8 578.9,276.3 579.2,274.6 579.4,273.6 579.6,273.4 579.8,273.4 580.1,276.8 580.4,274.6 580.7,275.5 581.1,276.5 581.4,276.0 581.7,273.8 581.9,273.4 582.2,274.8 582.4,274.5 582.7,275.6 583.1,274.8 583.6,274.0 583.9,273.3 584.2,268.9 584.4,269.0 584.6,264.1 584.8,263.2 585.0,264.2 585.0,269.6 585.1,271.0 585.4,272.1 585.6,275.0 585.9,275.0 586.2,274.1 586.6,275.5 586.9,275.2 587.2,275.9 587.6,275.1 588.0,274.4 588.3,272.8 588.6,272.5 589.0,274.6 589.4,272.7 589.7,270.4 590.0,274.5 590.1,276.9 590.4,277.8 590.8,276.4 591.1,274.7 591.4,273.4 591.6,268.2 591.8,268.7 592.0,269.6 592.3,269.8 592.4,264.7 592.5,264.9 592.7,266.1 592.9,268.5 593.1,267.3 593.4,267.7 593.6,272.3 593.8,271.2 594.1,269.3 594.3,266.8 594.5,264.8 594.7,266.4 594.9,266.0 595.2,264.6 595.5,262.9 595.6,262.9 595.9,264.7 596.1,263.9 596.4,264.2 596.7,259.1 597.0,260.5 597.2,258.4 597.5,258.6 597.8,258.3 598.2,258.7 598.4,259.1 598.8,260.0 599.2,260.4 599.5,262.1 599.8,261.7 600.1,262.6 600.5,261.9 600.7,260.4 601.1,263.4 601.4,265.6 601.6,267.9 601.6,271.0 601.7,269.9 601.8,270.7 602.1,266.9 602.5,266.4 602.7,266.1 603.1,267.0 603.3,266.3 603.6,265.1 603.8,269.3 604.1,267.9 604.3,265.0 604.6,269.4 605.0,270.2 605.2,271.4 605.6,271.1 606.0,271.4 606.3,273.5 606.6,273.8 607.0,273.4 607.3,272.7 607.6,274.9 608.1,273.0 608.4,274.5 608.5,270.4 608.8,272.6 609.1,270.6 609.5,270.1 609.9,272.6 609.9,277.3 610.1,271.2 610.3,273.6 610.5,274.1 610.7,274.3 610.9,271.7 611.3,271.9 611.7,276.4 611.8,279.7 611.9,280.8 612.1,283.9 612.1,283.2 612.3,281.0 612.5,284.9 612.7,285.8 612.9,281.9 613.2,281.1 613.6,281.6 613.9,282.3 614.3,279.6 614.5,277.9 614.9,281.4 615.4,280.3 615.8,278.6 616.4,281.5 616.7,281.6 617.1,281.2 617.5,278.6 617.8,281.7 618.1,281.9 618.4,281.4 618.7,286.0 618.8,283.5 619.1,281.4 619.3,280.2 619.4,278.1 619.5,277.7 619.7,281.2 619.8,281.1 619.9,282.3 620.0,284.6 620.1,287.8 620.2,284.1 620.3,286.5 620.5,284.6 620.7,285.9 620.8,292.6 620.8,292.8 621.0,291.9 621.1,288.1 621.3,286.2 621.5,289.0 621.8,290.0 621.9,296.2 622.0,293.6 622.2,293.2 622.4,288.3 622.6,288.8 622.9,293.4 623.0,294.4 623.1,298.6 623.3,294.1 623.5,294.9 623.7,295.8 623.8,302.9 623.8,303.7 623.9,301.9 624.1,301.6 624.3,301.5 624.5,299.6 624.8,302.9 625.1,303.2 625.4,301.5 625.7,304.0 625.9,303.2 626.2,300.1 626.6,301.5 626.8,304.9 626.9,304.4 627.4,306.0 627.6,307.4 628.0,306.2 628.3,303.9 628.6,309.2 628.6,319.4 628.6,317.2 628.6,314.9 628.7,310.1 628.8,307.6 628.9,307.7 629.1,308.2 629.2,309.7 629.3,307.8 629.5,307.9 629.6,308.0 629.7,306.4 629.9,306.9 630.1,307.4 630.3,307.2 630.4,305.4 630.7,305.5 630.9,304.9 631.0,300.3 631.2,297.0 631.3,296.2 631.5,294.4 631.7,292.9 632.0,294.2 632.2,292.8 632.4,293.1 632.6,290.0 632.8,290.1 633.0,288.9 633.3,290.3 633.6,289.4 633.8,288.8 634.1,288.5 634.4,287.7 634.7,287.6 634.9,287.6 635.2,287.7 635.6,287.9 636.0,287.6 636.3,286.5 636.7,286.4 637.0,282.5 637.3,285.8 637.6,285.1 638.0,286.2 638.3,287.2 638.6,287.0 638.9,286.4 639.3,287.8 639.6,287.9 639.9,289.1 640.2,292.9 640.5,293.0 640.7,294.2 641.0,295.3 641.2,294.2 641.5,291.3 641.8,289.6 642.1,288.5 642.5,289.8 642.8,290.2 643.1,293.4 643.5,291.8 643.9,294.4 644.1,297.0 644.3,298.2 644.4,300.3 644.5,304.5 644.7,305.7 644.8,300.3 645.1,299.0 645.4,297.9 645.7,297.8 646.0,299.2 646.2,301.3 646.5,299.4 646.6,295.8 646.6,290.0 646.8,290.0 646.9,291.8 647.0,289.6 647.2,291.6 647.4,292.1 647.6,290.1 647.7,288.8 647.9,285.8 648.0,287.2 648.2,288.3 648.5,285.1 648.7,285.2 648.9,287.2 649.1,293.9 649.3,295.1 649.4,302.4 649.5,306.9 649.6,299.8 649.8,308.5 649.8,310.4 649.8,309.1 649.9,307.5 650.0,314.9 650.1,316.7 650.2,313.3 650.3,312.7 650.4,313.9 650.5,317.2 650.6,314.5 650.7,314.4 650.8,314.1 650.9,312.5 651.1,311.7 651.2,305.9 651.4,306.8 651.7,307.7 652.0,302.8 652.1,304.4 652.4,304.9 652.7,297.0 652.7,293.7 652.7,292.2 652.8,289.3 652.9,287.6 653.0,286.8 653.1,284.8 653.2,285.6 653.3,285.3 653.5,286.1 653.8,289.8 654.0,290.7 654.4,287.3 654.7,285.8 654.8,282.8 655.2,283.7 655.6,282.3 655.9,282.8 656.3,285.0 656.7,286.7 657.1,287.2 657.5,291.9 657.9,291.8 658.2,289.4 658.5,285.9 658.8,283.7 659.1,282.8 659.3,282.7 659.6,282.1 659.9,282.9 660.0,282.4 660.2,282.0 660.3,281.5 660.5,280.3 660.7,281.0 660.8,284.3 661.0,284.1 661.2,285.9 661.3,286.1 661.5,284.9 661.7,287.2 661.9,286.8 662.0,289.3 662.2,288.6 662.4,290.0 662.7,290.0 663.1,289.0 663.5,288.4 663.9,289.6 664.4,290.4 664.9,290.1 665.2,291.8 665.5,291.6 666.0,290.2 666.3,296.4 666.7,293.1 667.1,292.4 667.4,292.8 667.7,294.3 668.1,289.4 668.4,288.9 668.8,287.9 669.1,287.0 669.5,287.7 669.9,288.1 670.3,288.9 670.6,290.2 671.0,292.1 671.3,292.5 671.7,292.9 672.0,293.0 672.4,292.9 672.8,293.2 673.2,292.5 673.4,290.0 673.7,293.5 674.0,291.7 674.3,289.8 674.6,291.8 674.7,297.5 674.9,296.5 675.0,298.2 675.1,300.4 675.3,300.1 675.5,300.3 675.6,304.0 675.7,304.7 675.9,301.1 676.0,295.6 676.3,295.6 676.5,295.0 676.7,296.7 677.0,297.0 677.3,295.1 677.6,294.9 677.9,298.2 678.3,297.6 678.6,293.8 678.9,294.1 679.2,294.3 679.6,297.5 679.9,296.7 680.2,296.4 680.6,294.2 681.0,294.3 681.5,297.6 681.9,297.3 682.2,294.9 682.7,294.8 683.1,297.3 683.4,297.0 683.8,299.6 684.3,297.2 684.7,297.5 685.1,296.1 685.6,296.1 685.9,293.0 686.2,293.4 686.4,291.2 686.6,290.6 686.9,288.9 687.1,288.4 687.3,285.2 687.5,284.0 687.7,282.6 687.8,283.3 688.1,283.7 688.3,284.6 688.7,284.7 689.0,285.2 689.3,283.3 689.4,282.4 689.7,283.2 690.1,283.5 690.4,282.5 690.7,284.6 691.1,282.3 691.5,284.6 691.8,285.9 692.2,287.6 692.6,285.4 693.0,288.0 693.4,289.0 693.8,289.8 694.3,288.5 694.7,288.9 695.0,289.0 695.4,293.1 695.6,294.5 696.0,293.2 696.3,293.9 696.7,294.1 697.0,292.2 697.3,292.8 697.7,294.2 698.2,294.5 698.5,291.4 698.9,292.3 699.3,291.3 699.7,292.9 700.2,293.0 700.7,293.0 701.1,296.1 701.4,296.9 701.7,298.6 701.9,300.3 702.2,298.5 702.3,302.5 702.3,305.4 702.5,305.7 702.6,303.8 702.8,303.8 703.0,302.6 703.1,302.9 703.3,301.2 703.5,298.7 703.7,296.1 704.0,295.0 704.2,295.1 704.5,298.5 704.6,293.0 704.9,291.1 705.1,296.0 705.5,294.1 705.6,287.1 705.7,284.6 706.0,287.2 706.2,291.1 706.6,288.6 706.9,288.3 707.3,289.9 707.7,295.1 707.9,296.5 708.1,297.5 708.5,298.7 708.8,297.6 709.1,304.5 709.2,308.2 709.5,306.0 709.8,301.7 710.2,300.7 710.7,301.7 711.1,300.7 711.5,297.5 712.0,297.8 712.6,297.2 713.1,296.5 713.5,295.8 713.8,296.3 714.2,297.9 714.6,296.9 715.0,297.8 715.5,295.7 715.9,296.2 716.3,294.7 716.7,293.8 717.0,292.8 717.3,291.2 717.7,290.7 718.0,289.1 718.4,290.7 718.9,291.4 719.4,290.5 720.0,289.9 720.7,290.0 721.2,288.9 721.7,290.3 722.3,291.4 722.5,291.8 723.2,290.4 723.8,291.5 724.4,291.9 725.1,292.3 725.5,292.3 725.9,291.7 726.7,291.7 727.2,291.7 727.8,290.3 728.4,289.9 729.0,287.9 729.3,290.4 729.8,291.3 730.4,288.0 730.8,288.7 731.3,292.4 731.7,296.1 731.9,300.2 732.3,299.3 732.6,299.6 733.0,299.0 733.4,296.3 734.0,297.6 734.5,297.6 735.0,296.4 735.5,297.7 736.1,298.8 736.7,296.6 737.6,298.1 738.3,297.2 739.1,296.3 739.8,295.0 740.7,295.2 741.1,291.7 741.7,292.6 742.2,293.6 742.8,295.1 743.3,293.0 743.7,294.1 744.2,294.3 744.6,296.4 744.9,297.2 745.3,295.7 745.6,296.5 746.2,292.7 746.6,292.3 747.1,291.9 747.4,291.9 747.8,291.9 748.4,293.1 749.0,291.8 749.5,290.9 750.0,289.7 750.5,287.9 750.7,292.1 751.0,290.1 751.5,288.7 751.8,286.0 752.1,284.2 752.4,282.9 752.5,279.2 752.6,279.5 752.8,273.6 752.9,276.6 753.1,276.3 753.4,279.8 753.7,281.4 753.9,274.8 754.3,278.2 754.6,276.0 754.8,277.2 755.0,280.7 755.3,281.3 755.6,278.9 756.0,278.7 756.2,276.3 756.5,275.1 756.7,273.8 756.9,275.0 757.1,279.5 757.2,284.5 757.3,285.0 757.5,286.3 757.7,288.5 757.9,289.2 758.2,284.7 758.5,283.4 758.8,285.1 759.1,281.6 759.2,284.3 759.3,285.4 759.4,287.0 759.4,292.9 759.5,292.3 759.5,294.7 759.6,295.0 759.8,296.1 759.9,295.4 760.2,294.8 760.4,296.4 760.5,298.6 760.7,301.1 760.8,303.1 761.1,301.3 761.4,301.7 761.7,307.4 761.7,300.8 761.9,305.3 762.0,308.0 762.1,309.8 762.3,310.7 762.4,305.7 762.7,306.8 762.9,310.9 763.0,315.8 763.1,318.2 763.2,316.0 763.3,317.7 763.5,315.2 763.6,320.8 763.7,319.7 763.9,317.0 764.1,318.7 764.3,324.4 764.4,326.6 764.5,326.3 764.6,325.9 764.7,319.8 764.9,316.7 765.0,315.7 765.4,313.4 765.7,314.5 766.0,311.1 766.3,311.0 766.5,316.4 766.8,315.9 767.2,315.2 767.4,308.3 767.6,305.4 767.9,309.0 768.2,306.8 768.4,304.5 768.6,303.3 768.8,303.9 769.0,304.5 769.3,305.2 769.4,301.1 769.6,297.5 769.8,297.7 770.0,296.9 770.2,298.0 770.5,296.9 770.7,299.6 771.0,298.1 771.4,298.5 771.8,300.9 772.1,300.2 772.4,305.1 772.8,304.3 773.0,302.9 773.4,298.1 773.7,299.2 774.3,301.2 774.9,301.2 775.5,301.2 776.0,299.3 776.5,299.1 776.8,295.3 777.3,294.4 777.6,292.2 777.8,292.9 778.0,291.5 778.5,292.8 778.8,294.8 779.1,296.5 779.6,297.6 780.1,295.2 780.7,294.9 781.4,294.3 782.1,294.5 782.5,292.1 783.1,293.8 783.7,292.7 784.1,293.9 784.5,291.0 784.8,293.1 785.1,292.6 785.1,284.9 785.2,278.7 785.3,280.4 785.3,280.8 785.5,283.3 785.7,284.2 785.8,279.2 786.0,278.7 786.2,283.4 786.4,287.2 786.5,288.0 786.7,285.0 787.0,285.9 787.2,284.2 787.7,285.0 787.9,281.1 788.2,286.2 788.5,289.4 789.0,283.9 789.4,283.9 789.7,276.9 790.0,279.2 790.4,283.2 790.9,284.8 791.4,284.5 792.0,285.2 792.5,287.2 793.0,286.6 793.3,280.5 793.7,280.3 794.2,282.8 794.7,279.7 795.1,279.4 795.5,276.0 795.8,277.5 796.2,280.2 796.7,280.0 797.1,277.4 797.4,276.2 797.8,277.3 798.2,276.9 798.6,278.4 799.1,278.9 799.5,279.0 800.1,280.3 800.6,279.6 801.1,279.4 801.8,280.8 802.4,279.6 803.1,281.2 803.6,283.2 804.2,283.6 804.8,283.8 805.3,283.0 805.7,284.9 806.2,281.9 806.6,285.2 807.2,282.7 807.6,285.5 808.1,284.3 808.6,282.9 808.9,281.9 809.2,284.2 809.5,286.0 810.0,287.0 810.5,288.3 811.0,288.4 811.6,288.5 812.1,284.6 812.3,279.1 812.6,280.1 812.8,285.8 813.1,283.3 813.4,282.7 813.8,282.5 814.1,276.2 814.4,275.7 814.5,274.1 814.8,276.1 814.9,275.3 815.2,274.9 815.6,274.4 815.8,278.6 816.1,279.2 816.3,284.0 816.7,283.9 817.0,283.3 817.4,284.8 817.8,277.6 818.1,280.0 818.6,280.4 819.1,278.8 819.4,273.9 819.7,275.6 820.0,275.2 820.3,274.1 820.8,276.1 821.3,273.6 821.8,273.6 822.2,273.0 822.8,273.1 823.1,274.6 823.6,275.7 824.0,277.1 824.3,277.0 824.7,274.8 825.0,276.3 825.4,277.4 825.8,277.3 826.2,277.4 826.6,278.1 827.2,277.9 827.5,278.3 827.8,278.8 828.1,280.3 828.3,282.0 828.8,282.0 829.3,283.3 829.9,282.0 830.5,279.2 831.2,277.7 831.9,278.1 832.7,280.5 833.1,279.8 833.7,282.1 834.3,283.6 834.8,278.6 835.3,276.5 836.0,279.7 836.6,280.4 837.1,279.2 837.4,276.5 837.7,277.5 838.2,279.4 838.7,277.8 839.2,275.9 839.7,279.6 840.0,283.4 840.1,288.1 840.3,284.5 840.5,285.5 840.7,287.1 841.0,289.6 841.2,291.1 841.4,288.5 841.8,287.7 842.2,287.3 842.5,285.0 842.8,285.4 843.3,285.0 843.8,284.8 844.2,278.4 844.4,281.5 845.0,283.7 845.4,281.7 845.7,280.9 846.0,281.6 846.2,283.0 846.6,280.1 847.1,277.0 847.6,282.9 847.9,282.5 848.3,283.0 849.0,281.5 849.6,282.0 850.3,279.8 851.1,281.9 851.6,283.5 852.1,286.3 852.4,283.9 852.8,288.9 853.2,287.0 853.5,288.7 853.9,287.5 854.1,295.6 854.2,291.8 854.5,295.4 854.7,292.1 855.0,293.2 855.4,296.6 855.8,297.9 856.0,298.9 856.4,297.6 857.0,296.1 857.5,296.8 858.1,297.2 858.7,293.9 859.3,293.1 860.0,294.9 860.6,297.2 861.1,297.0 861.8,298.0 862.5,296.9 863.0,299.2 863.3,302.1 863.7,302.0 864.1,302.3 864.7,303.2 865.3,302.9 865.8,305.7 866.2,303.2 866.6,303.2 867.3,302.9 867.8,303.1 868.1,305.9 868.2,308.0 868.4,312.6 868.4,315.4 868.5,319.4 868.5,317.7 868.6,322.9 868.6,323.8 868.7,329.2 868.7,328.1 868.7,330.8 868.8,328.9 868.8,327.0 868.9,324.7 869.0,324.2 869.1,325.0 869.2,329.3 869.3,330.9 869.4,331.1 869.5,326.3 869.6,327.1 869.7,328.2 869.9,322.9 870.1,324.3 870.3,324.3 870.5,320.8 870.7,318.2 870.8,315.3 871.1,312.3 871.3,316.5 871.6,320.9 871.9,322.3 872.2,327.8 872.3,328.1 872.5,331.5 872.6,327.9 872.8,328.9 872.9,334.7 873.0,334.9 873.2,335.5 873.5,334.3 873.7,326.9 874.0,327.8 874.4,328.4 874.7,325.6 875.1,323.7 875.4,320.2 875.8,321.6 876.3,317.8 876.8,319.3 877.3,318.2 877.9,321.1 878.5,316.9 879.0,316.2 879.3,318.5 879.7,314.7 880.0,318.1 880.4,318.3 880.7,318.3 880.7,323.0 880.7,328.3 880.7,339.5 880.7,342.0 880.8,351.7 880.8,343.5 880.8,340.2 880.8,340.1 880.8,337.1 880.8,335.8 880.9,336.6 880.9,335.6 881.0,333.9 881.1,332.1 881.2,333.7 881.3,336.5 881.4,338.3 881.5,341.2 881.5,342.6 881.6,346.4 881.7,344.7 881.8,343.3 881.9,336.9 882.0,342.3 882.3,341.0 882.4,338.1 882.7,338.3 883.0,340.3 883.2,342.1 883.5,338.7 883.7,336.5 884.0,334.2 884.3,334.5 884.7,336.2 885.1,333.8 885.5,335.2 885.9,340.9 886.1,342.8 886.3,345.8 886.5,349.0 886.7,346.2 887.0,342.8 887.1,337.3 887.5,338.5 887.9,336.2 888.3,337.4 888.7,342.5 889.2,340.0 889.6,341.0 890.1,340.6 890.4,340.8 890.9,338.3 891.4,337.1 892.0,336.9 892.4,332.2 892.6,329.8 893.0,333.7 893.5,334.5 893.9,337.2 894.3,340.6 894.5,337.4 894.9,336.6 895.4,335.1 895.6,334.5 895.8,332.3 895.9,334.6 896.1,331.1 896.3,329.5 896.5,334.2 896.7,334.5 896.9,330.5 897.2,332.0 897.6,331.7 897.8,330.4 898.0,326.1 898.3,329.5 898.7,329.8 898.8,324.3 899.1,326.3 899.5,327.3 899.8,331.8 899.9,342.4 900.0,342.4 900.1,334.9 900.2,337.1 900.4,327.8 900.4,325.6 900.6,325.3 900.7,321.8 900.9,323.4 901.1,321.5 901.3,320.4 901.5,323.2 901.9,323.1 902.2,325.4 902.3,328.4 902.5,332.5 902.6,329.3 902.9,329.9 903.3,325.7 903.7,328.7 904.2,325.8 904.7,327.9 905.4,326.2 906.0,326.8 906.6,326.0 907.1,326.3 907.5,327.5 907.9,327.3 908.3,328.7 908.8,329.3 909.2,331.0 909.7,328.5 910.3,328.6 910.8,330.2 911.3,328.9 912.0,333.9 912.6,334.2 913.4,336.0 913.9,339.6 914.5,337.6 915.1,341.0 915.2,344.0 915.7,342.4 915.9,349.6 916.1,348.2 916.3,354.1 916.4,353.9 916.4,357.0 916.6,354.9 916.8,351.1 917.2,351.5 917.7,348.6 918.3,348.8 919.0,347.4 919.6,348.4 920.2,351.8 920.5,352.6 920.9,352.4 921.4,354.4 921.8,355.9 922.0,360.3 922.2,359.9 922.5,359.0 922.7,360.6 922.8,365.1 922.8,364.0 922.9,367.7 923.0,371.8 923.0,373.0 923.0,384.2 923.0,384.8 923.0,381.5 923.0,380.4 923.0,381.7 923.1,383.0 923.1,381.9 923.1,386.0 923.1,382.9 923.2,383.1 923.2,383.7 923.2,388.3 923.3,385.0 923.3,386.0 923.4,388.4 923.4,384.5 923.5,385.5 923.6,379.5 923.6,380.9 923.7,381.2 923.8,375.5 923.9,376.8 924.0,377.4 924.1,380.7 924.3,379.5 924.5,379.9 924.8,381.8 924.9,383.1 925.1,381.2 925.1,376.6 925.2,374.0 925.3,374.3 925.5,376.3 925.7,378.6 925.7,381.4 925.8,384.6 925.9,384.2 926.1,385.9 926.1,390.5 926.1,392.5 926.1,396.4 926.2,397.3 926.2,399.3 926.2,406.7 926.2,413.6 926.2,405.9 926.2,418.4 926.2,410.7 926.2,409.2 926.2,403.4 926.2,401.6 926.3,401.8 926.3,401.5 926.3,399.1 926.4,403.8 926.4,403.2 926.4,403.4 926.5,403.9 926.6,402.9 926.6,406.6 926.6,401.3 926.7,404.5 926.8,405.9 926.9,407.4 927.0,403.7 927.1,404.0 927.2,406.4 927.3,402.1 927.4,407.0 927.5,406.6 927.7,404.0 927.8,408.6 927.8,411.5 927.9,415.8 927.9,414.4 927.9,424.4 927.9,424.8 927.9,437.2 927.9,431.5 928.0,421.3 928.0,413.3 928.0,416.0 928.0,409.9 928.0,405.8 928.0,408.5 928.0,408.0 928.1,408.4 928.1,404.5 928.2,409.6 928.2,408.8 928.3,409.6 928.4,409.0 928.4,408.2 928.5,405.3 928.6,400.3 928.7,402.1 928.8,402.1 928.9,405.6 929.1,407.7 929.2,403.8 929.4,402.8 929.6,406.4 929.8,400.8 930.0,407.9 930.2,409.5 930.4,405.4 930.6,400.1 930.7,401.4 930.9,401.4 931.1,399.0 931.3,396.4 931.5,395.8 931.7,397.3 932.0,399.6 932.3,400.6 932.8,400.3 933.1,396.5 933.3,389.8 933.4,388.1 933.6,390.6 933.9,389.6 934.0,389.4" fill="none" stroke="#d97706" stroke-width="1.2" stroke-linejoin="round" opacity="0.6"/><text x="942" y="472.0" text-anchor="start" font-size="11" fill="#d97706">52.24</text><text x="942" y="396.0" text-anchor="start" font-size="11" fill="#d97706">59.25</text><text x="942" y="320.0" text-anchor="start" font-size="11" fill="#d97706">66.25</text><text x="942" y="244.0" text-anchor="start" font-size="11" fill="#d97706">73.26</text><text x="942" y="168.0" text-anchor="start" font-size="11" fill="#d97706">80.26</text><text x="942" y="92.0" text-anchor="start" font-size="11" fill="#d97706">87.27</text><text x="942" y="80.0" text-anchor="start" font-size="11" font-weight="600" fill="#d97706">price</text>
  <polygon points="104.5,468.0 104.5,117.3 104.5,117.2 107.6,117.2 109.4,117.3 179.9,117.1 210.7,117.2 216.5,117.2 217.3,117.2 224.6,117.3 230.0,117.3 234.6,117.4 240.9,117.4 244.8,117.4 377.3,117.3 379.5,117.3 385.5,117.3 386.5,117.4 387.1,117.4 390.3,117.4 396.8,117.2 435.2,117.2 454.1,117.2 456.6,117.2 466.8,117.1 475.8,117.1 476.9,117.1 482.7,117.0 482.7,116.9 482.7,117.0 484.7,116.9 514.0,116.9 574.4,116.9 575.0,116.8 575.1,116.8 575.1,116.9 575.1,116.9 575.1,116.8 575.1,116.7 575.1,116.7 575.1,116.6 575.1,116.6 575.1,116.7 575.1,116.6 575.1,116.6 620.8,116.6 628.6,116.5 628.6,116.5 636.9,116.5 650.0,116.4 651.2,116.4 752.5,116.3 757.2,116.3 763.0,116.3 763.6,116.3 763.9,116.3 764.3,116.3 764.9,116.4 785.1,116.2 854.1,116.2 868.6,116.1 868.8,116.2 868.9,116.2 869.2,116.2 869.5,116.2 872.5,116.3 874.7,116.3 880.7,116.3 898.8,116.4 899.8,116.4 900.5,116.4 902.5,116.4 903.3,116.5 909.0,116.5 922.0,116.4 923.0,116.4 923.0,116.4 923.1,116.4 923.5,116.4 925.9,116.5 926.2,116.3 926.2,116.3 926.2,116.4 927.9,116.4 928.0,116.4 928.0,116.4 928.0,116.5 933.3,116.4 933.3,468.0" fill="#16a34a" fill-opacity="0.08"/>
  <polyline points="104.5,117.3 104.5,117.2 107.6,117.2 109.4,117.3 179.9,117.1 210.7,117.2 216.5,117.2 217.3,117.2 224.6,117.3 230.0,117.3 234.6,117.4 240.9,117.4 244.8,117.4 377.3,117.3 379.5,117.3 385.5,117.3 386.5,117.4 387.1,117.4 390.3,117.4 396.8,117.2 435.2,117.2 454.1,117.2 456.6,117.2 466.8,117.1 475.8,117.1 476.9,117.1 482.7,117.0 482.7,116.9 482.7,117.0 484.7,116.9 514.0,116.9 574.4,116.9 575.0,116.8 575.1,116.8 575.1,116.9 575.1,116.9 575.1,116.8 575.1,116.7 575.1,116.7 575.1,116.6 575.1,116.6 575.1,116.7 575.1,116.6 575.1,116.6 620.8,116.6 628.6,116.5 628.6,116.5 636.9,116.5 650.0,116.4 651.2,116.4 752.5,116.3 757.2,116.3 763.0,116.3 763.6,116.3 763.9,116.3 764.3,116.3 764.9,116.4 785.1,116.2 854.1,116.2 868.6,116.1 868.8,116.2 868.9,116.2 869.2,116.2 869.5,116.2 872.5,116.3 874.7,116.3 880.7,116.3 898.8,116.4 899.8,116.4 900.5,116.4 902.5,116.4 903.3,116.5 909.0,116.5 922.0,116.4 923.0,116.4 923.0,116.4 923.1,116.4 923.5,116.4 925.9,116.5 926.2,116.3 926.2,116.3 926.2,116.4 927.9,116.4 928.0,116.4 928.0,116.4 928.0,116.5 933.3,116.4" fill="none" stroke="#16a34a" stroke-width="2" stroke-linejoin="round"/>
  <line x1="88" y1="102" x2="110" y2="102" stroke="#16a34a" stroke-width="2.5"/><text x="116" y="106" font-size="11.5" fill="#374151">equity</text><line x1="88" y1="118" x2="110" y2="118" stroke="#d97706" stroke-width="2.5" opacity="0.8"/><text x="116" y="122" font-size="11.5" fill="#374151">price</text>
  <text x="78" y="502" text-anchor="start" font-size="12" fill="#6b7280">2026-01-01</text><text x="934" y="502" text-anchor="end" font-size="12" fill="#6b7280">2026-01-31</text>
</svg>
