<?xml version="1.0" encoding="UTF-8"?>
<svg xmlns="http://www.w3.org/2000/svg" width="1000" height="520" viewBox="0 0 1000 520" font-family="ui-sans-serif, system-ui, sans-serif">
  <rect width="1000" height="520" fill="#ffffff"/>
  <text x="78" y="28" font-size="18" font-weight="700" fill="#111827">Zone Recovery — HBARUSDC best setting (equity / PnL)</text>
  <text x="78" y="48" font-size="12.5" fill="#6b7280">lev 2 · ratio 2 · gap 20% · maxSteps 4 · maxDD 60% · random · vip 9  ·  6 series, 100.0% win · vol $347797 ($347831/day) · fees $29.42</text>
  <text x="78" y="68" font-size="12.5" font-weight="600" fill="#1d4ed8">USDC · BNB −10% · taker 0.0085%</text>
  <text x="934" y="28" text-anchor="end" font-size="18" font-weight="700" fill="#16a34a">+12813 USDT  (+128.13%)</text>
  <line x1="78" y1="468.0" x2="934" y2="468.0" stroke="#e5e7eb" stroke-width="1"/><text x="68" y="472.0" text-anchor="end" font-size="12" fill="#6b7280">0.00</text><line x1="78" y1="392.0" x2="934" y2="392.0" stroke="#e5e7eb" stroke-width="1"/><text x="68" y="396.0" text-anchor="end" font-size="12" fill="#6b7280">4928</text><line x1="78" y1="316.0" x2="934" y2="316.0" stroke="#e5e7eb" stroke-width="1"/><text x="68" y="320.0" text-anchor="end" font-size="12" fill="#6b7280">9855</text><line x1="78" y1="240.0" x2="934" y2="240.0" stroke="#e5e7eb" stroke-width="1"/><text x="68" y="244.0" text-anchor="end" font-size="12" fill="#6b7280">14783</text><line x1="78" y1="164.0" x2="934" y2="164.0" stroke="#e5e7eb" stroke-width="1"/><text x="68" y="168.0" text-anchor="end" font-size="12" fill="#6b7280">19710</text><line x1="78" y1="88.0" x2="934" y2="88.0" stroke="#e5e7eb" stroke-width="1"/><text x="68" y="92.0" text-anchor="end" font-size="12" fill="#6b7280">24638</text>
  <line x1="78" y1="313.8" x2="934" y2="313.8" stroke="#9ca3af" stroke-width="1.5" stroke-dasharray="6 4"/><text x="934" y="307.8" text-anchor="end" font-size="11" fill="#6b7280">start 10000</text>
  <polyline points="78.0,122.9 79.7,122.6 81.4,123.0 83.1,123.1 85.9,123.5 88.1,123.1 90.7,122.9 92.9,122.6 94.9,122.0 96.7,122.0 97.7,121.9 100.4,122.6 102.9,121.9 105.1,123.1 107.3,124.2 109.6,122.9 113.4,122.6 115.3,121.3 116.9,120.6 118.5,121.4 120.5,121.1 124.1,121.4 126.5,122.0 128.7,121.8 131.2,121.3 134.1,120.9 137.0,122.3 139.1,122.6 142.0,122.8 144.2,123.2 145.8,122.6 149.0,122.1 151.2,123.3 153.1,124.6 154.2,125.0 156.3,123.8 159.2,123.5 160.8,122.4 162.3,122.7 163.9,123.2 167.6,123.8 168.5,124.8 169.6,125.1 171.1,125.2 174.5,124.2 177.2,125.7 178.8,126.0 180.1,126.1 181.5,126.9 185.3,126.4 186.9,127.5 188.3,127.4 191.6,127.9 194.1,126.7 196.5,125.8 197.9,124.2 198.8,124.1 200.1,123.2 201.2,123.4 201.8,121.7 202.6,121.2 203.1,120.2 203.4,120.2 203.9,119.8 204.3,120.0 204.8,119.6 205.4,119.5 206.2,119.2 207.1,119.4 207.8,119.6 208.2,119.7 208.8,119.3 209.2,119.7 209.9,119.7 210.3,119.5 211.3,119.2 212.3,118.9 212.9,119.2 213.7,119.0 214.2,118.7 214.4,118.3 214.6,118.3 214.9,118.9 215.5,119.0 215.9,119.2 216.3,119.3 216.9,119.2 217.4,119.8 217.7,120.3 217.9,121.1 218.2,120.8 218.7,120.4 219.3,120.4 220.0,120.2 220.7,120.9 221.0,119.9 221.5,119.6 221.8,120.1 222.3,119.4 223.6,119.7 225.6,118.3 227.1,120.0 228.7,119.5 230.6,120.1 232.2,120.4 233.4,119.7 234.9,120.2 236.8,121.2 239.3,120.2 240.6,121.0 242.1,121.8 244.5,121.6 246.8,121.4 249.5,121.6 252.3,120.3 255.1,120.4 257.2,120.6 258.7,122.2 259.5,122.9 260.4,122.5 261.8,122.5 264.2,122.4 265.7,122.0 266.5,121.9 267.2,121.6 268.2,122.0 268.9,121.3 269.5,121.4 270.2,120.4 271.5,120.0 272.9,120.3 274.1,121.0 275.0,121.7 276.1,122.1 277.7,122.5 279.9,121.7 281.9,120.6 284.1,119.3 285.6,119.3 286.7,118.9 288.2,118.7 289.2,118.1 291.0,117.9 292.7,117.7 293.7,117.3 295.0,116.7 296.5,116.6 297.6,117.8 298.8,118.4 300.3,118.8 301.5,118.2 303.6,119.0 304.7,119.6 306.0,119.7 307.7,119.9 309.3,120.4 310.2,120.2 311.0,120.1 312.2,119.9 313.1,119.9 313.7,120.8 314.2,120.9 314.8,121.1 315.7,120.8 316.8,120.2 318.2,120.9 319.7,119.9 321.2,121.1 322.1,121.7 322.5,122.5 323.1,122.4 324.6,121.8 326.8,121.3 328.3,120.6 328.8,121.7 330.2,121.5 331.4,122.0 333.0,122.4 333.8,121.3 335.4,121.1 337.4,122.2 338.4,122.7 339.4,122.0 340.6,121.3 342.1,122.4 343.2,122.4 344.9,121.6 346.4,122.3 347.7,122.9 348.5,122.8 350.1,121.9 352.4,121.8 355.0,122.5 355.3,123.1 356.9,123.2 358.6,123.2 361.7,123.8 363.0,124.5 364.1,123.8 365.2,122.8 366.6,124.9 367.6,124.2 369.1,123.1 371.1,122.9 372.9,121.8 373.5,121.6 375.5,121.4 376.8,121.2 377.7,121.5 379.4,121.4 380.7,120.9 381.7,121.1 382.5,121.6 383.0,122.1 384.5,121.9 386.7,122.2 388.4,123.1 390.1,121.9 393.0,121.5 394.4,121.1 396.1,120.3 397.4,119.2 399.2,119.1 399.9,120.4 400.8,120.6 402.4,119.8 404.0,121.0 405.9,120.6 407.6,120.9 409.3,120.7 410.8,120.9 412.7,120.1 415.0,118.8 415.6,118.0 417.4,118.2 418.3,117.7 419.0,117.2 420.2,117.7 422.3,118.4 423.6,118.6 424.7,117.9 425.8,118.4 426.7,118.6 427.6,118.7 427.9,118.7 428.7,119.1 429.0,120.1 429.1,119.8 429.7,119.6 430.7,120.3 432.3,120.2 434.3,120.7 435.9,120.3 437.9,119.9 440.4,119.2 443.2,120.1 445.8,119.1 447.8,119.0 450.5,119.6 452.9,119.4 454.8,119.1 456.8,120.1 458.9,120.5 461.5,119.3 464.1,118.8 465.4,118.6 466.7,118.5 468.0,118.0 469.6,118.6 471.3,118.2 472.5,118.1 473.8,117.9 475.1,118.2 476.8,118.4 477.8,119.2 480.1,119.7 481.9,119.1 484.1,119.7 487.3,119.8 489.4,118.6 490.5,118.7 491.2,118.6 492.9,118.1 493.9,118.7 495.1,118.3 495.8,119.1 497.4,118.8 499.5,118.6 501.4,117.3 502.6,117.3 503.7,117.0 505.3,117.3 506.3,117.7 507.3,117.6 508.2,116.6 509.5,116.6 510.4,116.8 511.3,116.3 511.9,116.7 512.9,117.9 513.6,117.7 514.9,118.0 515.6,118.3 516.4,117.7 518.4,117.0 521.0,116.9 524.6,117.7 526.1,117.3 528.7,118.3 530.3,117.9 532.8,118.4 535.5,118.2 536.6,117.8 537.6,117.1 538.2,117.1 539.3,116.5 540.8,116.4 542.0,115.5 542.4,115.8 542.8,115.9 544.1,115.4 544.9,115.8 546.2,115.8 547.3,116.7 548.5,117.3 549.8,117.6 550.9,117.2 551.6,117.7 551.9,117.4 552.8,117.5 553.8,116.7 555.7,116.8 557.4,115.9 559.4,115.9 560.0,116.7 560.7,116.5 561.6,117.0 562.5,115.7 563.1,116.4 563.6,116.3 564.3,115.6 565.0,115.0 565.4,114.8 566.0,115.3 566.7,115.4 567.2,114.8 567.9,115.4 568.7,116.1 569.5,115.6 570.3,115.7 570.8,116.5 571.4,117.4 572.1,117.2 572.5,118.0 573.3,116.8 573.9,117.7 574.5,117.7 575.5,117.6 576.3,116.8 576.9,116.5 577.4,115.6 577.8,115.5 578.1,116.6 578.4,117.0 578.9,115.9 579.3,115.4 579.8,115.4 580.0,115.5 580.4,114.9 580.9,114.9 581.4,114.8 582.3,114.9 583.9,115.2 585.2,115.4 586.4,115.6 587.0,116.8 587.5,117.3 587.8,118.0 588.1,117.8 588.7,117.9 589.2,117.5 589.6,117.3 590.5,117.6 591.2,118.1 591.9,118.1 592.9,117.8 594.4,118.2 595.2,118.8 595.5,118.1 595.9,117.9 596.6,118.2 598.3,117.8 599.5,119.0 601.3,119.0 602.4,119.8 603.4,119.3 605.5,119.7 607.4,118.4 609.4,118.5 610.6,119.3 611.7,120.2 611.7,121.1 611.8,122.0 611.8,121.6 611.8,120.7 611.9,121.4 612.0,122.5 612.0,121.7 612.1,122.7 612.2,123.4 612.2,123.7 612.3,123.6 612.4,124.2 612.5,122.7 612.5,123.4 612.6,123.5 612.7,123.1 612.9,123.5 613.0,123.7 613.1,123.3 613.3,124.0 613.5,123.8 613.6,125.1 613.7,124.7 613.7,125.4 613.8,125.4 614.0,126.1 614.2,125.8 614.3,127.2 614.5,127.3 614.6,126.2 614.8,126.5 614.9,125.3 615.0,125.4 615.1,126.1 615.3,126.6 615.4,126.6 615.6,127.6 615.6,128.1 615.8,127.4 616.0,127.1 616.1,127.0 616.4,127.4 616.5,126.3 616.6,126.0 616.7,126.8 616.9,126.5 617.0,125.5 617.1,126.5 617.2,126.9 617.4,126.4 617.6,126.0 618.0,125.9 618.2,126.9 618.5,126.9 619.0,127.4 619.2,126.3 619.4,126.1 619.6,125.6 620.0,125.0 620.3,125.9 620.9,125.9 621.2,125.9 621.7,126.2 622.1,126.3 622.3,126.7 622.5,126.3 622.7,126.9 622.9,127.3 623.1,127.7 623.4,128.3 623.6,128.7 623.7,128.8 624.0,129.3 624.3,129.3 624.5,129.8 624.7,129.6 624.9,130.4 625.0,130.0 625.3,131.1 625.4,130.7 625.6,131.4 625.7,131.4 625.9,132.1 625.9,132.7 626.0,132.9 626.1,132.7 626.2,133.7 626.2,133.1 626.3,132.7 626.3,132.7 626.4,132.7 626.6,131.9 626.8,132.0 626.9,132.5 627.1,133.2 627.3,133.1 627.5,133.1 627.7,133.7 627.9,133.8 628.0,134.5 628.1,135.0 628.2,135.0 628.4,134.4 628.5,133.4 628.5,133.7 628.6,134.8 628.8,135.3 629.0,135.8 629.1,135.5 629.2,134.4 629.4,133.8 629.6,132.9 629.8,133.7 630.0,134.0 630.2,134.7 630.4,135.0 630.7,135.4 630.8,135.8 630.9,135.5 631.0,136.0 631.1,136.8 631.1,137.1 631.2,137.5 631.3,138.3 631.4,138.4 631.4,137.7 631.5,137.2 631.5,137.5 631.6,137.6 631.6,138.6 631.7,139.7 631.8,139.6 631.8,140.4 631.9,141.4 631.9,141.4 631.9,141.4 632.0,139.4 632.0,139.3 632.1,138.6 632.1,138.4 632.2,139.1 632.4,139.5 632.5,139.7 632.6,140.3 632.7,139.3 632.8,139.0 632.9,139.3 633.0,139.7 633.2,140.1 633.3,140.6 633.3,140.7 633.4,142.4 633.4,141.8 633.5,141.3 633.6,141.7 633.7,141.9 633.7,141.3 633.8,140.8 633.8,139.7 633.9,140.0 634.0,140.5 634.2,139.8 634.2,138.0 634.2,138.9 634.2,139.4 634.3,140.2 634.4,140.1 634.5,140.0 634.5,139.7 634.6,139.6 634.7,139.7 634.9,140.3 635.1,138.8 635.2,138.4 635.3,138.0 635.3,137.7 635.3,138.4 635.6,137.9 635.6,137.8 635.7,137.5 635.8,137.1 635.9,138.1 636.0,137.7 636.3,137.8 636.4,136.5 636.4,137.1 636.6,137.1 636.8,137.7 636.9,138.1 637.0,138.6 637.2,139.1 637.3,139.5 637.4,139.6 637.5,138.8 637.6,138.5 637.7,138.1 637.9,137.9 638.0,138.2 638.1,137.8 638.3,137.6 638.3,137.3 638.4,137.3 638.6,136.6 638.7,136.3 638.8,136.7 638.8,137.0 638.8,136.8 638.9,136.4 639.0,135.8 639.1,135.4 639.3,134.5 639.5,134.1 639.6,133.6 639.8,134.1 640.0,134.1 640.2,134.2 640.4,134.5 640.5,133.8 640.7,133.8 640.9,134.3 641.0,135.1 641.1,135.2 641.2,135.0 641.4,135.5 641.7,135.8 641.8,135.5 641.9,135.5 642.1,135.1 642.2,135.7 642.4,136.0 642.6,136.2 642.8,136.1 643.0,136.6 643.2,136.1 643.4,136.2 643.5,135.3 643.8,136.0 644.0,136.1 644.2,136.6 644.4,136.3 644.7,136.7 645.1,136.3 645.3,136.8 645.5,135.8 645.7,136.7 645.9,136.9 646.0,137.1 646.4,137.2 646.7,137.9 646.8,137.8 647.1,138.3 647.2,138.6 647.6,138.4 647.9,137.5 648.2,137.3 648.6,137.9 648.7,138.3 648.8,138.7 649.0,138.8 649.3,138.6 649.5,138.1 649.7,138.9 650.0,139.0 650.2,138.7 650.5,139.6 650.7,138.9 650.9,138.5 651.1,139.3 651.3,139.2 651.5,138.8 651.7,138.1 652.0,137.5 652.2,137.6 652.4,137.4 652.7,136.9 653.0,137.5 653.3,136.6 653.6,136.3 654.0,135.5 654.3,135.5 654.7,135.6 654.9,136.2 655.2,137.3 655.4,137.1 655.6,136.6 655.9,136.2 656.2,136.9 656.6,136.7 656.8,136.6 657.4,137.1 657.8,136.8 658.1,137.4 658.3,136.9 658.5,137.9 658.8,138.2 659.2,138.5 659.4,138.5 659.6,138.3 660.0,138.1 660.1,138.0 660.2,137.7 660.5,138.0 660.8,138.1 661.0,138.1 661.3,138.8 661.4,138.2 661.8,137.7 662.0,137.3 662.4,137.3 662.6,136.4 662.9,135.9 663.2,135.5 663.6,135.8 664.2,135.9 664.5,135.9 664.8,135.3 665.2,135.7 665.4,135.6 666.1,136.5 666.5,136.6 667.0,136.3 667.3,137.0 667.6,136.4 667.8,135.7 668.3,135.3 668.7,134.9 669.2,135.5 669.7,136.0 670.3,135.3 670.7,134.5 671.3,134.8 672.5,135.1 673.0,135.5 673.4,136.2 674.0,136.4 674.4,137.0 675.1,137.4 675.7,138.0 676.1,138.1 676.6,137.7 677.4,138.3 678.4,139.3 678.6,139.0 679.1,138.8 679.6,138.4 680.1,137.9 680.6,138.8 681.0,138.6 681.4,138.7 681.8,139.0 682.3,138.8 682.8,139.1 683.5,139.2 684.2,138.8 684.6,138.3 685.1,138.9 686.0,138.9 686.3,139.6 686.7,139.5 687.1,140.1 687.4,140.7 687.7,140.6 688.1,139.9 688.9,140.3 689.1,140.3 689.8,140.4 690.3,140.7 690.7,141.0 691.1,141.4 691.4,140.3 691.6,139.9 691.8,139.8 692.2,139.8 692.6,141.0 693.1,141.1 693.3,140.7 693.4,140.5 693.7,140.1 694.0,139.9 694.4,139.4 694.7,139.7 695.0,139.1 695.8,139.9 696.5,140.8 697.2,140.9 697.6,140.4 698.1,139.1 698.5,138.7 699.2,139.7 699.6,139.8 700.2,140.0 701.0,139.2 701.7,139.0 702.2,139.0 702.7,139.0 703.4,138.9 703.7,139.5 704.6,139.4 705.4,140.0 706.1,140.7 706.6,140.1 707.1,140.8 707.6,141.3 708.2,141.5 708.4,142.2 709.0,141.1 709.8,141.0 710.5,141.7 711.1,141.3 711.4,142.1 711.8,142.2 712.0,142.7 712.1,143.5 712.2,142.3 712.6,142.2 713.0,141.3 713.5,141.3 714.2,142.3 714.8,142.3 715.9,142.4 716.8,141.9 717.4,141.4 718.7,142.1 719.6,141.5 720.3,142.4 720.8,142.6 721.2,142.4 721.8,142.1 722.9,141.9 723.3,141.4 723.9,140.3 724.1,141.6 724.6,141.8 725.5,141.8 726.5,141.1 728.0,142.5 728.7,141.9 729.7,141.0 730.7,141.9 731.9,142.8 732.5,141.6 733.6,140.9 734.5,141.1 735.2,139.9 736.1,140.4 736.8,141.2 737.9,141.6 738.5,141.6 739.0,141.9 739.4,141.7 740.4,141.7 741.7,142.0 742.2,143.1 742.6,142.9 743.4,142.7 743.7,143.7 743.9,143.7 744.0,143.0 744.4,142.4 744.6,142.5 745.5,142.4 746.5,142.4 747.0,142.0 747.4,142.2 748.0,142.4 748.4,143.1 748.7,143.8 748.8,143.9 749.4,143.7 750.0,144.0 750.4,143.9 750.9,143.4 751.2,143.8 751.6,144.0 752.4,144.3 752.8,143.7 753.5,143.2 754.1,143.3 754.8,143.8 755.7,143.6 756.0,143.1 756.3,143.5 756.8,143.4 757.6,143.8 758.3,144.0 758.8,144.4 759.0,144.7 759.4,145.0 760.0,144.1 760.8,145.5 761.1,144.9 761.5,144.9 761.7,145.6 762.2,145.2 762.4,145.5 762.7,146.2 762.8,145.8 763.1,145.7 763.6,145.1 764.1,145.3 764.7,146.2 764.9,146.4 765.3,145.3 765.7,145.2 766.2,144.6 767.1,145.2 767.8,145.1 767.9,146.0 768.2,145.9 768.5,146.4 768.6,146.9 768.7,146.8 768.8,146.4 769.0,147.1 769.3,146.2 769.8,146.9 770.2,146.4 770.7,145.1 771.0,144.5 771.3,144.3 771.8,144.9 772.4,146.3 772.8,147.2 772.8,147.6 772.9,147.3 773.1,147.4 773.2,148.4 773.3,149.1 773.3,149.5 773.4,148.9 773.5,150.7 773.5,149.8 773.6,149.3 773.8,148.7 774.0,148.6 774.1,147.8 774.2,148.2 774.4,148.4 774.7,148.8 774.9,148.6 775.1,148.8 775.3,149.5 775.4,150.1 775.5,150.8 775.7,151.0 776.0,150.4 776.3,150.2 776.5,150.8 776.7,150.4 777.0,149.7 777.3,149.9 777.8,149.8 778.4,149.0 778.7,148.7 779.2,149.8 779.6,149.2 779.9,149.6 780.1,149.0 780.5,148.0 780.7,147.7 781.1,147.2 781.6,147.0 782.2,146.5 782.6,146.2 782.9,145.5 783.2,146.7 783.8,146.2 784.3,145.1 784.8,144.9 785.3,145.3 785.6,145.9 786.0,146.5 786.5,146.9 787.0,146.4 787.4,146.9 787.8,147.6 788.2,148.2 788.7,148.1 789.5,147.5 790.3,147.6 791.2,147.6 791.8,148.3 792.2,148.1 792.6,148.4 793.1,147.6 793.8,147.1 794.0,146.1 794.3,146.4 794.6,147.0 794.8,146.5 795.1,145.9 795.4,145.6 795.9,146.4 796.4,146.1 796.9,146.9 797.5,147.0 798.5,145.9 798.9,145.3 799.4,145.9 800.1,145.2 800.5,145.3 801.0,144.6 801.5,144.6 801.9,145.5 802.3,146.2 802.8,145.7 803.6,145.8 804.0,145.3 805.2,144.6 806.8,144.3 807.8,143.5 808.4,143.2 809.1,143.3 809.9,144.4 810.6,144.8 811.2,144.7 812.1,144.4 813.5,144.8 815.2,143.8 816.8,143.6 817.6,142.9 818.3,143.6 819.3,143.9 820.2,144.4 821.1,144.7 821.2,145.6 821.2,146.5 821.3,145.8 821.4,147.1 821.6,146.9 821.8,146.9 821.9,147.7 822.0,148.3 822.2,148.2 822.4,148.6 822.4,148.7 822.6,149.9 822.6,149.2 822.7,150.8 822.8,151.4 822.8,151.8 822.9,151.1 823.1,150.2 823.2,151.3 823.3,152.7 823.4,153.4 823.4,154.2 823.5,154.1 823.5,153.0 823.6,153.8 823.7,155.0 823.7,155.3 823.8,154.6 824.0,153.8 824.1,154.3 824.1,153.7 824.2,154.5 824.3,154.8 824.4,154.9 824.5,154.5 824.6,156.4 824.6,157.8 824.7,157.8 824.7,159.2 824.8,160.8 824.8,161.2 824.8,163.8 824.9,166.2 824.9,167.4 824.9,167.9 825.0,166.1 825.0,163.7 825.0,161.7 825.0,158.0 825.1,164.0 825.1,163.0 825.2,161.3 825.2,160.8 825.3,162.4 825.3,162.7 825.3,161.4 825.4,161.0 825.4,161.7 825.5,162.5 825.5,163.1 825.6,162.2 825.7,162.4 825.8,163.1 825.8,161.3 825.9,162.8 825.9,162.3 826.0,163.1 826.0,163.4 826.0,163.8 826.1,164.2 826.1,162.9 826.1,162.8 826.2,162.7 826.3,163.2 826.3,163.6 826.4,165.8 826.4,166.9 826.5,164.8 826.5,164.0 826.5,164.9 826.6,165.5 826.6,166.4 826.6,167.5 826.7,168.1 826.7,170.6 826.8,173.4 826.8,175.5 826.8,178.0 826.8,180.3 826.9,180.8 826.9,183.4 826.9,180.2 826.9,178.9 827.0,176.4 827.0,174.3 827.0,173.1 827.1,174.0 827.1,175.3 827.2,177.0 827.2,173.1 827.2,172.4 827.3,171.4 827.3,172.7 827.3,173.4 827.4,174.6 827.5,175.7 827.5,175.5 827.5,177.2 827.5,178.6 827.6,177.2 827.6,175.6 827.7,177.9 827.7,176.3 827.7,177.3 827.7,176.5 827.7,176.8 827.8,175.8 827.8,174.8 827.8,174.9 827.8,174.9 827.9,173.8 827.9,172.8 828.0,171.6 828.0,171.5 828.1,170.6 828.2,170.2 828.2,171.0 828.2,171.8 828.3,171.6 828.3,170.7 828.3,170.0 828.4,170.4 828.4,169.6 828.5,170.8 828.5,171.4 828.6,171.7 828.6,171.4 828.6,170.0 828.7,170.1 828.7,170.7 828.8,170.9 828.8,169.9 828.9,169.7 828.9,169.1 828.9,168.8 829.0,168.9 829.1,168.7 829.1,169.4 829.1,169.7 829.2,170.0 829.2,170.9 829.3,170.6 829.3,171.4 829.4,171.0 829.4,171.1 829.4,170.9 829.5,170.1 829.6,169.2 829.6,170.3 829.6,170.7 829.7,170.1 829.7,169.9 829.8,170.1 829.8,169.2 829.9,168.7 829.9,168.8 830.0,168.5 830.1,168.4 830.1,169.6 830.1,170.1 830.2,169.5 830.2,169.3 830.3,168.9 830.3,169.1 830.4,170.0 830.5,169.9 830.5,171.0 830.5,170.1 830.6,169.6 830.6,170.3 830.7,169.3 830.7,170.0 830.8,170.7 830.8,170.5 830.9,171.3 830.9,170.8 830.9,170.3 831.0,170.1 831.0,170.2 831.1,170.8 831.2,170.8 831.2,170.0 831.3,169.5 831.3,169.4 831.4,168.9 831.4,168.6 831.5,168.8 831.5,169.7 831.6,169.8 831.6,169.5 831.7,170.1 831.8,171.3 831.8,171.3 831.8,171.0 831.8,170.2 831.9,170.6 832.0,171.3 832.1,172.0 832.1,171.6 832.2,172.3 832.3,172.9 832.3,171.5 832.4,171.5 832.4,170.6 832.4,171.0 832.5,171.3 832.6,171.1 832.7,170.4 832.8,169.7 832.8,169.8 832.8,170.4 832.9,170.7 833.0,169.7 833.1,171.3 833.2,171.2 833.3,172.0 833.5,171.8 833.6,171.7 833.7,172.5 833.7,172.6 833.8,172.4 833.8,173.8 833.9,173.7 834.0,173.4 834.0,173.5 834.1,174.6 834.1,173.7 834.2,175.9 834.2,174.2 834.3,173.4 834.3,174.6 834.3,175.7 834.4,175.2 834.4,177.0 834.4,177.7 834.5,178.2 834.5,180.0 834.6,182.2 834.6,181.3 834.6,182.5 834.7,182.5 834.7,185.8 834.8,186.9 834.8,188.9 834.9,191.7 834.9,194.6 834.9,195.2 835.0,198.3 835.0,201.6 835.0,207.1 835.1,204.4 835.1,198.4 835.1,199.6 835.1,194.5 835.2,191.9 835.2,198.0 835.3,197.4 835.3,197.1 835.4,196.3 835.5,201.2 835.5,206.3 835.5,210.8 835.6,214.2 835.6,216.2 835.7,222.8 835.7,219.8 835.7,226.7 835.7,225.4 835.7,211.6 835.8,222.4 835.8,221.5 835.8,216.2 835.9,210.4 835.9,211.4 836.0,209.4 836.0,209.6 836.1,209.0 836.1,207.4 836.1,208.1 836.1,208.0 836.2,203.8 836.2,207.9 836.2,208.3 836.3,212.2 836.3,212.4 836.3,217.0 836.3,220.6 836.4,214.5 836.4,215.1 836.4,217.2 836.5,223.3 836.5,222.4 836.5,224.6 836.6,230.8 836.6,236.6 836.6,236.1 836.6,237.4 836.7,237.5 836.7,237.0 836.8,238.0 836.8,233.0 836.8,235.5 836.9,242.3 836.9,253.0 837.0,246.4 837.0,240.1 837.1,254.9 837.2,265.6 837.2,260.3 837.2,260.7 837.2,259.7 837.3,256.8 837.4,264.1 837.4,273.5 837.5,278.2 837.6,262.1 837.7,264.7 837.7,269.1 837.8,256.7 837.8,242.7 837.8,273.2 837.8,278.3 837.8,278.7 837.9,286.6 837.9,273.3 837.9,285.8 838.0,295.0 838.0,310.8 838.1,307.9 838.2,321.6 838.2,314.9 838.4,328.5 838.5,345.2 838.7,352.6 838.8,395.0 838.9,378.4 839.0,378.7 839.1,388.9 839.3,414.3 839.4,408.4 839.5,404.5 839.7,425.8 839.8,434.5 839.9,439.9 840.1,413.6 840.3,408.9 840.5,401.2 840.7,405.1 840.8,398.9 840.9,397.1 841.0,391.9 841.2,386.6 841.3,386.2 841.5,383.0 841.6,375.4 841.8,369.1 842.0,371.7 842.1,370.7 842.2,373.4 842.3,378.6 842.4,371.2 842.5,368.6 842.6,363.8 842.7,364.8 842.8,364.3 842.9,361.6 843.0,358.4 843.1,358.0 843.1,354.2 843.2,345.7 843.2,354.2 843.3,355.2 843.4,351.9 843.5,349.8 843.6,350.5 843.7,347.9 843.8,348.2 843.9,344.7 844.0,348.3 844.1,345.7 844.2,348.3 844.2,342.9 844.4,342.1 844.6,341.5 844.7,342.5 844.8,342.5 844.9,337.3 845.0,339.9 845.1,341.4 845.2,337.2 845.3,334.0 845.4,334.0 845.4,330.8 845.5,331.9 845.6,328.7 845.8,329.5 845.8,329.3 845.9,328.4 846.0,342.5 846.0,338.3 846.1,330.8 846.1,331.9 846.2,326.6 846.3,329.8 846.3,331.9 846.3,334.8 846.4,329.8 846.5,329.8 846.6,334.0 846.6,334.0 846.6,325.5 846.7,329.8 846.7,327.6 846.7,330.8 846.8,323.4 846.8,329.8 846.8,332.6 846.9,328.7 846.9,329.8 847.0,327.6 847.0,328.7 847.1,329.8 847.1,330.8 847.1,327.6 847.2,321.3 847.2,323.4 847.2,316.0 847.3,323.3 847.3,313.7 847.3,316.0 847.3,321.3 847.4,321.3 847.4,322.3 847.5,323.4 847.5,320.2 847.6,322.3 847.6,324.2 847.7,308.5 847.8,318.3 847.9,319.1 847.9,321.3 848.0,318.9 848.1,320.2 848.1,317.0 848.2,320.2 848.4,322.3 848.4,322.3 848.5,320.2 848.6,324.5 848.6,326.3 848.8,322.3 848.9,327.6 849.0,328.7 849.0,322.3 849.1,322.1 849.1,325.5 849.2,329.8 849.2,325.5 849.3,327.6 849.3,324.5 849.3,323.4 849.4,324.5 849.5,323.4 849.7,328.9 849.7,324.5 849.7,325.5 849.7,322.3 849.8,316.0 849.9,326.6 850.0,326.6 850.1,324.5 850.2,326.6 850.2,332.9 850.4,324.2 850.4,320.2 850.5,325.5 850.6,324.5 850.7,326.6 850.8,323.9 850.9,320.2 851.0,321.8 851.1,317.0 851.2,318.1 851.2,318.1 851.3,314.9 851.4,314.9 851.6,319.1 851.6,316.0 851.7,313.8 851.8,320.9 851.8,312.8 851.9,297.9 851.9,307.5 852.0,312.8 852.0,314.9 852.1,306.9 852.2,307.4 852.3,302.2 852.3,303.2 852.3,290.5 852.4,301.8 852.4,297.9 852.4,295.8 852.5,294.7 852.5,286.2 852.6,294.4 852.7,292.4 852.7,289.4 852.8,294.9 852.9,301.1 853.0,289.4 853.0,291.5 853.0,304.3 853.0,293.7 853.1,293.7 853.2,290.0 853.2,283.1 853.2,289.4 853.3,287.3 853.3,289.4 853.3,282.0 853.3,279.9 853.4,279.9 853.4,285.2 853.4,289.4 853.4,274.6 853.5,280.6 853.5,276.7 853.5,277.7 853.5,276.8 853.5,278.8 853.6,280.9 853.6,288.4 853.6,285.2 853.7,274.6 853.7,279.9 853.7,278.8 853.7,288.4 853.7,285.2 853.7,283.1 853.8,280.9 853.8,280.9 853.8,282.0 853.8,272.8 853.8,282.0 853.8,281.0 853.9,282.0 853.9,287.9 853.9,274.6 853.9,288.4 853.9,290.5 854.0,275.2 854.0,280.9 854.0,287.3 854.0,274.6 854.1,274.6 854.1,280.9 854.1,278.8 854.1,273.5 854.2,286.2 854.2,287.3 854.2,280.9 854.2,273.5 854.3,269.2 854.3,283.1 854.3,277.7 854.4,270.3 854.4,275.6 854.5,273.8 854.5,274.0 854.5,266.1 854.5,257.6 854.6,261.8 854.6,259.7 854.6,262.9 854.6,266.9 854.7,262.9 854.8,263.9 854.8,268.5 854.8,263.9 854.9,262.8 854.9,259.7 854.9,259.7 855.0,256.5 855.0,260.5 855.1,261.8 855.1,261.8 855.2,261.8 855.2,260.8 855.3,260.8 855.3,257.6 855.3,258.7 855.4,255.4 855.4,259.7 855.5,257.6 855.5,260.2 855.6,260.8 855.6,259.7 855.6,254.4 855.6,262.9 855.6,253.3 855.7,258.6 855.7,260.8 855.7,260.8 855.7,273.5 855.8,274.6 855.8,282.0 855.8,277.7 855.8,270.3 855.9,266.1 855.9,255.1 855.9,265.5 856.0,269.2 856.0,273.5 856.1,270.9 856.1,284.1 856.1,248.0 856.1,245.9 856.1,258.6 856.2,270.3 856.2,278.8 856.2,274.6 856.2,257.4 856.2,279.9 856.2,272.4 856.3,267.7 856.3,265.0 856.3,270.8 856.3,271.4 856.4,257.6 856.4,261.8 856.4,266.1 856.4,265.0 856.5,263.9 856.5,263.9 856.5,268.2 856.5,258.6 856.6,268.2 856.6,269.2 856.6,273.5 856.6,262.9 856.6,273.5 856.7,268.2 856.7,280.9 856.7,265.3 856.7,257.6 856.7,266.1 856.8,275.6 856.8,276.7 856.8,259.7 856.8,275.6 856.8,275.6 856.8,277.7 856.8,270.3 856.9,265.0 856.9,268.1 856.9,261.8 856.9,257.6 856.9,260.8 856.9,251.2 856.9,269.2 856.9,269.2 856.9,269.2 856.9,269.2 857.0,267.3 857.0,268.2 857.0,270.3 857.0,254.4 857.0,263.9 857.1,268.2 857.1,280.9 857.1,285.2 857.2,275.6 857.2,266.1 857.2,269.2 857.2,273.5 857.3,286.8 857.3,279.9 857.3,268.2 857.3,274.6 857.4,274.4 857.4,265.0 857.4,280.6 857.4,268.2 857.4,259.8 857.4,263.9 857.4,263.9 857.4,260.9 857.4,267.1 857.4,268.2 857.4,272.4 857.4,272.4 857.4,261.8 857.4,266.1 857.4,265.0 857.5,267.1 857.5,262.9 857.5,262.9 857.5,267.1 857.5,273.5 857.5,271.4 857.6,267.5 857.6,275.6 857.6,268.2 857.6,265.0 857.6,269.2 857.6,274.6 857.7,262.8 857.7,261.8 857.7,262.9 857.7,267.1 857.7,275.2 857.8,268.2 857.8,278.8 857.8,255.5 857.8,257.3 857.8,271.4 857.9,278.8 857.9,272.4 857.9,272.4 858.0,267.1 858.0,256.5 858.0,255.5 858.1,255.5 858.1,257.6 858.1,261.8 858.1,253.3 858.1,253.3 858.1,252.3 858.1,257.6 858.2,262.9 858.2,246.9 858.2,243.1 858.2,266.1 858.2,262.0 858.3,270.2 858.3,268.1 858.3,266.1 858.4,260.8 858.4,238.5 858.4,257.6 858.4,253.3 858.4,252.3 858.5,259.7 858.5,253.3 858.5,254.4 858.5,255.1 858.5,259.6 858.5,255.5 858.5,254.4 858.6,257.2 858.6,262.9 858.6,262.9 858.6,255.8 858.6,266.1 858.7,250.1 858.7,256.5 858.7,259.7 858.8,255.5 858.8,251.2 858.9,250.1 858.9,252.3 858.9,256.9 858.9,260.5 859.1,259.7 859.1,265.0 859.1,259.7 859.2,261.8 859.2,260.8 859.2,259.7 859.2,265.0 859.3,263.9 859.3,263.6 859.4,264.6 859.4,263.0 859.4,260.8 859.5,265.4 859.5,263.9 859.6,265.8 859.7,262.9 859.7,266.1 859.7,262.9 859.8,265.0 859.8,263.4 859.8,263.7 859.8,264.7 859.9,266.1 859.9,260.4 860.0,261.8 860.0,265.0 860.0,262.9 860.1,259.7 860.1,265.0 860.2,262.4 860.2,260.8 860.2,248.5 860.3,262.5 860.3,259.7 860.4,258.6 860.4,259.9 860.4,258.6 860.4,258.2 860.4,258.6 860.5,258.2 860.5,257.6 860.6,257.6 860.6,255.7 860.7,256.5 860.7,258.6 860.8,258.9 860.9,256.5 860.9,256.5 861.0,255.8 861.0,254.4 861.1,259.0 861.1,259.8 861.1,255.5 861.1,255.5 861.2,253.2 861.2,258.6 861.3,259.9 861.3,260.7 861.4,259.7 861.5,253.3 861.5,248.4 861.5,258.8 861.6,258.8 861.6,259.2 861.7,250.1 861.7,256.8 861.8,255.7 861.9,260.8 861.9,256.5 861.9,258.6 862.0,257.6 862.0,253.3 862.0,256.5 862.0,257.7 862.1,260.7 862.1,258.7 862.1,255.5 862.1,256.6 862.2,255.5 862.2,257.3 862.3,254.4 862.3,250.9 862.3,254.4 862.4,253.7 862.5,255.8 862.5,256.9 862.5,257.8 862.6,262.8 862.6,261.8 862.7,259.7 862.7,257.4 862.8,256.6 862.9,256.7 863.0,258.4 863.0,258.8 863.1,259.1 863.1,259.8 863.1,257.3 863.1,257.6 863.2,260.1 863.2,260.9 863.2,259.7 863.2,264.2 863.3,257.2 863.3,258.3 863.3,258.2 863.3,259.9 863.4,260.5 863.4,261.0 863.4,259.6 863.4,260.8 863.4,262.8 863.5,261.8 863.5,263.5 863.6,261.4 863.6,263.1 863.6,261.9 863.7,262.4 863.7,261.3 863.7,260.0 863.7,261.5 863.7,261.6 863.7,260.3 863.7,257.4 863.7,262.9 863.8,262.9 863.8,263.8 863.8,261.8 863.9,264.4 863.9,261.5 863.9,259.7 863.9,259.7 863.9,259.7 863.9,258.4 863.9,265.0 863.9,262.0 863.9,264.8 864.0,260.6 864.0,258.8 864.0,255.8 864.0,262.9 864.0,262.9 864.0,258.6 864.0,261.1 864.0,262.4 864.1,258.9 864.1,256.7 864.1,255.6 864.1,257.8 864.1,261.0 864.1,261.3 864.1,258.6 864.2,258.6 864.3,261.1 864.4,259.5 864.5,259.4 864.5,260.1 864.6,259.5 864.6,257.5 864.6,256.6 864.6,257.8 864.6,261.5 864.6,260.8 864.7,260.7 864.8,261.4 864.8,260.8 864.9,259.9 864.9,262.7 864.9,260.8 865.0,263.2 865.1,263.9 865.1,265.1 865.1,262.9 865.1,265.7 865.1,266.3 865.1,264.7 865.1,265.0 865.2,264.0 865.2,262.6 865.2,265.6 865.3,264.7 865.3,265.3 865.3,266.2 865.4,266.2 865.4,266.6 865.4,266.9 865.4,268.5 865.4,267.6 865.5,263.0 865.5,264.7 865.5,273.8 865.5,266.1 865.5,269.7 865.5,271.4 865.6,273.1 865.6,270.3 865.6,271.0 865.6,268.0 865.7,270.3 865.7,271.2 865.7,272.3 865.7,269.3 865.7,268.2 865.7,267.0 865.7,263.1 865.7,271.4 865.8,271.5 865.8,271.4 865.8,273.4 865.8,271.1 865.8,273.1 865.8,275.2 865.8,276.7 865.8,271.6 865.8,274.1 865.8,274.3 865.9,275.2 865.9,276.3 865.9,277.8 865.9,275.5 865.9,278.0 865.9,273.8 865.9,272.2 865.9,271.5 865.9,273.5 865.9,275.6 865.9,277.7 865.9,282.4 866.0,279.6 866.0,283.9 866.0,284.7 866.1,287.3 866.1,292.6 866.1,301.4 866.1,295.3 866.1,290.5 866.1,292.0 866.1,289.4 866.1,290.5 866.2,287.6 866.2,286.0 866.2,292.4 866.2,295.7 866.2,298.0 866.2,295.5 866.3,295.2 866.3,294.7 866.3,292.8 866.3,292.7 866.3,290.7 866.3,289.2 866.3,286.0 866.3,283.8 866.4,285.5 866.4,283.0 866.4,281.0 866.4,276.6 866.4,279.6 866.4,283.1 866.5,280.9 866.5,278.6 866.5,276.7 866.5,277.6 866.6,275.5 866.6,274.5 866.6,278.0 866.6,275.6 866.7,277.7 866.7,278.8 866.8,276.7 866.8,279.6 866.8,278.0 866.9,279.0 866.9,280.0 866.9,280.6 866.9,274.9 866.9,276.7 866.9,275.3 866.9,273.1 866.9,274.6 867.0,275.7 867.0,277.6 867.0,277.5 867.0,279.0 867.1,278.8 867.1,279.9 867.1,276.7 867.1,276.5 867.2,274.7 867.2,278.2 867.3,276.7 867.3,282.0 867.4,282.9 867.4,281.3 867.4,279.9 867.5,280.8 867.5,279.6 867.5,280.0 867.5,278.6 867.6,279.9 867.6,278.5 867.6,274.8 867.6,278.3 867.7,278.3 867.7,277.2 867.7,278.5 867.8,277.3 867.8,277.7 867.9,278.8 867.9,277.7 867.9,278.8 868.0,278.8 868.0,275.7 868.1,274.9 868.1,274.6 868.1,273.9 868.1,273.4 868.1,275.1 868.1,275.4 868.1,273.4 868.2,274.8 868.2,276.9 868.2,275.4 868.3,277.7 868.3,275.6 868.3,277.8 868.3,273.5 868.3,274.3 868.4,274.2 868.5,276.1 868.6,274.4 868.6,274.6 868.6,273.0 868.6,270.8 868.6,267.5 868.6,274.4 868.6,273.9 868.6,275.0 868.6,276.2 868.6,277.5 868.7,277.2 868.7,279.2 868.7,274.8 868.8,276.7 868.8,273.7 868.8,276.4 868.8,273.1 868.8,273.8 868.8,273.8 868.8,273.1 868.9,274.0 868.9,274.2 868.9,274.1 869.0,273.4 869.0,272.4 869.1,272.9 869.1,273.7 869.2,271.4 869.2,271.4 869.2,263.1 869.2,271.5 869.2,271.6 869.2,274.7 869.3,272.4 869.3,273.5 869.3,274.6 869.3,273.5 869.4,273.1 869.4,274.6 869.4,275.2 869.4,271.4 869.5,277.6 869.5,273.9 869.5,272.4 869.6,269.6 869.6,272.4 869.7,272.4 869.8,272.9 869.8,273.8 869.8,274.5 869.8,275.5 869.9,272.4 869.9,271.9 869.9,270.7 869.9,269.8 869.9,269.0 869.9,267.8 869.9,265.4 869.9,272.0 870.0,274.2 870.0,274.9 870.0,274.6 870.0,275.5 870.1,274.7 870.2,274.6 870.2,274.4 870.3,274.3 870.4,276.0 870.4,274.6 870.4,273.1 870.4,271.6 870.5,274.9 870.5,276.4 870.5,275.9 870.5,276.1 870.6,276.9 870.6,277.6 870.6,274.7 870.6,272.2 870.6,271.3 870.6,270.4 870.6,268.6 870.6,273.5 870.6,273.2 870.7,273.2 870.7,275.8 870.7,276.8 870.7,276.8 870.8,273.0 870.8,276.2 870.8,274.7 870.8,274.7 870.8,277.7 870.8,278.0 870.8,275.6 870.9,277.8 870.9,274.9 870.9,277.7 871.0,276.4 871.0,275.0 871.0,278.0 871.0,279.0 871.1,278.2 871.1,276.4 871.1,278.8 871.2,279.1 871.2,276.3 871.3,277.7 871.3,274.3 871.3,273.3 871.3,273.5 871.3,277.5 871.4,277.4 871.4,277.7 871.5,279.1 871.5,276.7 871.6,271.7 871.6,276.1 871.6,272.4 871.7,274.7 871.7,274.7 871.8,273.6 871.8,273.5 871.8,270.7 871.8,268.5 871.9,270.6 871.9,271.4 872.0,269.4 872.0,270.3 872.1,272.1 872.1,272.1 872.2,269.8 872.2,270.8 872.3,271.3 872.3,269.7 872.3,269.8 872.4,269.4 872.4,270.3 872.5,268.3 872.5,270.3 872.5,267.1 872.6,265.0 872.6,265.1 872.6,266.0 872.7,266.5 872.7,264.8 872.8,261.3 872.8,261.8 872.8,262.4 872.8,264.2 872.9,265.1 872.9,264.6 872.9,264.0 873.0,262.0 873.0,262.2 873.0,257.3 873.0,252.6 873.1,256.5 873.1,256.5 873.1,258.6 873.1,256.6 873.2,257.6 873.2,257.8 873.2,258.5 873.2,258.9 873.3,259.5 873.3,261.8 873.3,261.8 873.3,261.8 873.4,262.8 873.4,260.3 873.4,262.5 873.5,262.9 873.5,263.4 873.5,262.3 873.5,262.6 873.6,262.2 873.6,262.2 873.6,260.5 873.7,259.7 873.7,260.9 873.7,262.0 873.7,262.2 873.8,264.7 873.8,265.0 873.9,263.0 873.9,262.9 874.0,264.5 874.0,264.0 874.0,263.7 874.0,261.7 874.1,261.9 874.1,262.2 874.1,264.9 874.2,266.3 874.2,265.3 874.2,264.7 874.3,265.3 874.3,265.7 874.3,267.6 874.3,267.2 874.4,267.5 874.4,268.1 874.4,266.4 874.5,267.0 874.5,266.4 874.5,265.1 874.6,265.3 874.6,264.4 874.6,264.6 874.7,265.4 874.7,265.6 874.7,265.7 874.7,264.2 874.8,266.3 874.8,265.1 874.8,265.1 874.9,263.3 874.9,263.6 874.9,265.4 875.0,266.4 875.0,265.6 875.1,266.2 875.1,265.6 875.2,266.3 875.2,266.9 875.2,268.1 875.3,265.9 875.3,265.9 875.3,267.1 875.4,266.4 875.4,266.4 875.4,266.4 875.5,266.8 875.5,265.5 875.5,267.2 875.6,266.1 875.6,268.5 875.7,268.2 875.7,265.3 875.8,265.2 875.8,266.0 875.8,265.8 875.9,265.3 875.9,266.4 876.0,265.5 876.0,265.6 876.0,265.8 876.1,262.1 876.1,264.8 876.2,266.0 876.2,265.3 876.3,264.4 876.3,264.1 876.4,262.7 876.4,262.8 876.4,259.7 876.5,261.8 876.6,262.5 876.7,262.9 876.7,259.7 876.9,258.0 876.9,261.2 876.9,258.8 877.0,257.1 877.0,257.3 877.0,257.0 877.1,257.5 877.2,256.8 877.3,257.4 877.4,257.7 877.5,258.6 877.6,258.1 877.7,256.3 877.9,257.8 878.0,257.1 878.1,257.0 878.2,256.7 878.3,256.5 878.4,256.6 878.5,256.4 878.6,259.6 878.7,260.4 878.7,261.7 878.7,261.8 878.8,261.5 878.8,261.1 878.8,263.3 878.8,263.0 878.9,262.4 879.0,263.3 879.1,266.0 879.2,264.1 879.3,261.8 879.4,261.4 879.4,262.2 879.5,261.3 879.6,262.3 879.7,262.4 879.8,260.8 879.9,261.8 880.1,258.5 880.2,258.3 880.4,258.5 880.5,259.3 880.6,258.7 880.8,261.2 880.9,260.7 881.1,261.9 881.2,261.1 881.3,260.8 881.4,260.6 881.5,258.7 881.7,258.3 881.8,260.1 882.0,259.0 882.1,260.1 882.2,255.5 882.2,258.5 882.3,258.5 882.4,257.5 882.5,259.2 882.6,259.7 882.8,256.8 882.8,257.4 882.8,258.0 882.8,258.5 882.8,257.8 882.8,258.5 882.8,259.2 882.9,258.2 883.1,257.6 883.4,255.0 883.6,252.7 883.6,254.0 883.8,254.7 884.0,253.7 884.1,254.7 884.2,254.0 884.3,252.9 884.5,252.6 884.5,255.6 884.5,255.5 884.5,256.8 884.6,261.7 884.6,258.0 884.7,256.7 884.8,256.1 884.9,257.0 885.1,257.4 885.2,256.7 885.3,255.5 885.4,256.8 885.6,254.5 885.8,252.4 885.9,252.8 886.0,252.6 886.1,251.9 886.1,251.9 886.1,252.2 886.2,252.7 886.3,252.8 886.4,252.4 886.5,251.6 886.6,252.1 886.7,250.5 886.8,250.3 886.9,251.3 887.0,249.2 887.0,250.6 887.1,250.7 887.2,249.9 887.3,249.3 887.4,249.5 887.4,249.9 887.5,250.8 887.6,249.8 887.7,248.8 887.8,249.4 888.0,248.2 888.1,248.9 888.2,247.8 888.4,247.8 888.5,245.0 888.7,245.9 888.9,245.7 889.1,246.7 889.3,246.1 889.4,245.9 889.7,244.3 889.8,244.6 889.9,243.4 890.1,243.3 890.2,244.1 890.3,240.6 890.5,240.4 890.6,239.1 890.7,240.5 890.9,239.1 890.9,237.8 891.0,237.1 891.0,236.2 891.2,237.4 891.3,235.3 891.4,234.3 891.6,235.1 891.7,235.5 891.8,235.5 891.9,235.7 892.1,236.4 892.3,237.2 892.4,237.3 892.5,236.1 892.7,235.5 892.9,236.5 893.1,235.7 893.2,235.3 893.3,235.4 893.5,235.3 893.6,236.1 893.7,235.2 893.7,236.4 893.8,235.5 893.9,235.3 894.0,236.0 894.2,237.2 894.4,238.4 894.6,238.8 894.6,240.0 894.8,240.9 894.8,240.0 894.9,240.9 895.1,240.1 895.1,239.0 895.2,241.0 895.4,240.7 895.4,242.6 895.5,240.6 895.7,242.1 895.8,241.6 896.0,240.0 896.2,239.5 896.4,240.5 896.5,239.9 896.6,240.7 896.8,238.8 897.0,237.8 897.1,237.8 897.2,236.7 897.5,237.1 897.6,236.4 897.7,237.3 897.8,237.5 898.0,238.0 898.1,237.9 898.3,238.8 898.4,239.8 898.6,238.9 898.9,239.5 898.9,239.0 899.2,240.0 899.5,240.7 899.8,240.4 900.1,240.3 900.4,239.6 900.5,240.3 900.7,240.1 901.0,241.6 901.1,241.3 901.3,242.0 901.5,240.6 901.8,240.3 901.9,239.7 902.1,239.6 902.3,241.5 902.4,241.9 902.5,242.5 902.5,241.7 902.5,242.0 902.5,242.9 902.6,243.1 902.6,242.3 902.7,241.0 903.0,239.9 903.1,240.8 903.4,240.4 903.5,239.2 903.7,237.5 903.7,237.5 903.8,236.6 903.9,237.3 904.0,239.2 904.1,240.8 904.3,238.9 904.3,239.8 904.4,239.4 904.5,240.1 904.5,239.8 904.7,239.3 904.9,238.8 905.0,239.2 905.1,239.3 905.1,240.6 905.1,241.3 905.1,240.9 905.1,240.5 905.2,240.7 905.2,241.4 905.3,242.4 905.3,242.2 905.4,242.2 905.5,242.0 905.6,242.5 905.8,242.6 905.9,239.2 905.9,241.3 906.0,242.1 906.0,243.1 906.1,242.7 906.1,242.6 906.1,242.2 906.1,243.1 906.1,243.4 906.2,243.7 906.2,243.3 906.2,244.4 906.3,244.3 906.3,244.3 906.4,244.6 906.4,244.4 906.6,243.1 906.7,242.8 906.7,243.2 906.8,244.1 906.9,243.0 907.0,242.6 907.1,242.3 907.3,241.5 907.5,241.0 907.7,240.8 907.9,241.0 908.0,241.1 908.0,240.9 908.1,241.1 908.2,241.4 908.3,239.9 908.4,239.2 908.6,238.7 908.8,238.3 908.9,239.1 909.0,238.1 909.0,238.8 909.1,237.3 909.1,237.6 909.2,236.8 909.2,236.2 909.3,236.5 909.4,235.9 909.5,235.5 909.5,235.0 909.6,235.4 909.7,235.5 909.8,234.9 909.8,236.2 909.9,235.4 910.0,235.0 910.1,235.1 910.2,234.9 910.2,234.5 910.3,234.6 910.3,235.0 910.3,235.0 910.4,235.4 910.4,235.0 910.4,235.0 910.5,234.8 910.5,233.9 910.6,233.5 910.7,234.0 910.8,234.1 910.9,233.3 911.0,234.3 911.1,233.4 911.3,232.7 911.4,232.4 911.5,232.8 911.6,233.2 911.7,232.7 911.8,231.2 912.0,229.7 912.1,230.4 912.1,229.5 912.2,229.5 912.2,228.7 912.2,228.8 912.3,228.1 912.3,227.6 912.3,228.4 912.3,228.8 912.4,227.8 912.4,228.4 912.4,227.6 912.4,228.5 912.4,229.1 912.5,229.5 912.5,229.4 912.5,229.6 912.6,229.4 912.7,228.9 912.7,227.8 912.8,228.7 913.0,228.7 913.1,228.7 913.2,228.9 913.3,229.2 913.5,228.2 913.6,228.1 913.7,226.3 913.8,226.6 914.0,226.8 914.2,226.7 914.4,228.5 914.4,228.0 914.5,228.0 914.6,226.3 914.8,226.5 915.0,226.3 915.2,226.7 915.3,226.4 915.4,225.6 915.6,224.7 915.7,225.2 915.8,225.4 915.9,225.4 916.1,225.6 916.2,222.0 916.2,224.3 916.3,223.6 916.4,224.1 916.4,223.5 916.5,224.8 916.6,225.0 916.6,224.4 916.7,224.1 916.8,224.6 916.8,223.5 916.8,224.2 916.8,223.9 916.9,223.8 916.9,224.0 917.0,223.8 917.0,224.1 917.2,224.2 917.5,222.9 917.6,223.0 917.7,223.8 917.9,224.6 918.0,225.2 918.2,224.2 918.3,225.0 918.5,224.4 918.6,224.7 918.6,225.0 918.7,224.6 918.7,224.8 918.7,224.9 918.7,224.9 918.8,224.9 918.8,223.9 919.1,222.0 919.1,222.7 919.3,222.7 919.4,221.8 919.5,220.5 919.6,221.5 919.6,224.7 919.6,220.7 919.8,220.3 919.9,220.1 920.0,220.7 920.2,220.8 920.3,218.8 920.4,217.9 920.5,216.0 920.5,217.2 920.5,216.8 920.6,217.6 920.8,217.9 920.9,218.5 921.0,218.2 921.2,217.1 921.3,217.7 921.3,214.2 921.3,217.0 921.4,216.4 921.4,216.8 921.4,217.8 921.5,218.0 921.5,218.0 921.5,218.3 921.6,218.8 921.6,218.8 921.7,218.2 921.7,219.0 921.8,219.3 921.8,219.6 921.9,218.8 921.9,218.5 922.0,218.4 922.0,217.6 922.1,217.8 922.2,219.1 922.2,218.9 922.4,219.1 922.7,220.3 922.7,220.6 922.8,220.3 922.9,220.8 923.0,220.4 923.0,219.8 923.1,219.6 923.1,220.1 923.2,219.6 923.2,220.1 923.3,220.6 923.3,220.8 923.3,220.3 923.4,220.8 923.4,220.5 923.4,220.2 923.4,221.3 923.5,220.8 923.5,220.5 923.6,220.7 923.6,220.3 923.7,221.8 923.7,221.3 923.8,221.3 924.0,220.9 924.0,220.8 924.1,221.1 924.2,221.7 924.4,220.8 924.6,220.8 924.7,220.2 924.7,217.0 924.9,221.2 925.1,221.4 925.2,221.3 925.3,220.6 925.4,221.2 925.5,220.8 925.7,220.9 925.7,221.8 925.8,222.2 925.9,222.3 926.0,223.5 926.1,223.8 926.2,224.2 926.3,224.1 926.4,225.8 926.4,226.6 926.5,225.3 926.6,225.9 926.7,227.8 926.7,227.6 926.7,226.8 926.8,226.7 926.9,226.6 926.9,227.1 927.1,228.1 927.2,228.6 927.3,229.3 927.4,228.7 927.5,228.5 927.6,230.0 927.7,230.8 927.8,231.1 927.8,227.9 927.8,230.9 927.8,231.7 927.9,232.2 927.9,231.8 928.0,231.5 928.1,231.6 928.1,231.6 928.2,231.0 928.3,230.1 928.3,229.9 928.4,228.9 928.5,228.9 928.6,231.0 928.7,229.7 928.7,229.4 928.8,230.6 928.9,231.7 929.0,232.2 929.0,232.6 929.1,231.6 929.2,232.1 929.3,232.3 929.4,232.5 929.4,233.5 929.5,234.9 929.5,234.3 929.5,234.4 929.6,234.6 929.7,233.6 929.8,233.2 929.9,233.3 930.0,233.2 930.1,233.6 930.3,234.6 930.4,234.2 930.5,233.5 930.6,233.5 930.7,234.7 930.8,236.0 930.9,235.1 930.9,234.5 931.0,234.9 931.1,234.6 931.1,235.0 931.2,234.5 931.2,236.0 931.3,236.4 931.3,238.2 931.4,237.5 931.4,237.5 931.4,237.9 931.4,238.3 931.4,237.2 931.5,236.8 931.5,237.2 931.5,237.3 931.5,237.4 931.5,238.5 931.5,239.5 931.6,238.5 931.6,239.5 931.6,237.9 931.6,238.9 931.7,238.4 931.7,238.4 931.7,237.8 931.8,238.5 932.1,238.0 932.3,237.8 932.4,238.7 932.5,238.1 932.6,237.4 932.8,237.4 932.9,237.6 933.1,236.6 933.2,235.5 933.3,235.5 933.4,235.7 933.5,236.0 933.6,236.0 933.7,236.0 933.9,235.5 933.9,235.4 934.0,234.6 934.0,234.2" fill="none" stroke="#d97706" stroke-width="1.2" stroke-linejoin="round" opacity="0.6"/><text x="942" y="472.0" text-anchor="start" font-size="11" fill="#d97706">0.06</text><text x="942" y="396.0" text-anchor="start" font-size="11" fill="#d97706">0.09</text><text x="942" y="320.0" text-anchor="start" font-size="11" fill="#d97706">0.13</text><text x="942" y="244.0" text-anchor="start" font-size="11" fill="#d97706">0.16</text><text x="942" y="168.0" text-anchor="start" font-size="11" fill="#d97706">0.20</text><text x="942" y="92.0" text-anchor="start" font-size="11" fill="#d97706">0.23</text><text x="942" y="80.0" text-anchor="start" font-size="11" font-weight="600" fill="#d97706">price</text>
  <polygon points="826.7,468.0 826.7,313.8 826.7,325.2 837.4,291.0 838.0,304.1 838.7,264.9 839.3,235.0 839.5,252.2 839.5,278.1 841.0,316.9 843.2,200.8 851.9,161.4 858.4,116.1 858.4,468.0" fill="#16a34a" fill-opacity="0.08"/>
  <polyline points="826.7,313.8 826.7,325.2 837.4,291.0 838.0,304.1 838.7,264.9 839.3,235.0 839.5,252.2 839.5,278.1 841.0,316.9 843.2,200.8 851.9,161.4 858.4,116.1" fill="none" stroke="#16a34a" stroke-width="2" stroke-linejoin="round"/>
  <line x1="88" y1="102" x2="110" y2="102" stroke="#16a34a" stroke-width="2.5"/><text x="116" y="106" font-size="11.5" fill="#374151">equity</text><line x1="88" y1="118" x2="110" y2="118" stroke="#d97706" stroke-width="2.5" opacity="0.8"/><text x="116" y="122" font-size="11.5" fill="#374151">price</text>
  <text x="78" y="502" text-anchor="start" font-size="12" fill="#6b7280">2025-10-10</text><text x="934" y="502" text-anchor="end" font-size="12" fill="#6b7280">2025-10-10</text>
</svg>
