<?xml version="1.0" encoding="UTF-8"?>
<svg xmlns="http://www.w3.org/2000/svg" width="1000" height="520" viewBox="0 0 1000 520" font-family="ui-sans-serif, system-ui, sans-serif">
  <rect width="1000" height="520" fill="#ffffff"/>
  <text x="78" y="28" font-size="18" font-weight="700" fill="#111827">Zone Recovery — ETHUSDT best setting (equity / PnL)</text>
  <text x="78" y="48" font-size="12.5" fill="#6b7280">lev 3 · ratio 2 · gap 20% · maxSteps 4 · maxDD 20% · random · vip 9  ·  3 series, 100.0% win · vol $52698413 ($1699950/day) · fees $8063</text>
  <text x="78" y="68" font-size="12.5" font-weight="600" fill="#1d4ed8">USDT · BNB −10% · taker 0.0153%</text>
  <text x="934" y="28" text-anchor="end" font-size="18" font-weight="700" fill="#16a34a">+2425800 USDT  (+2.43%)</text>
  <line x1="78" y1="468.0" x2="934" y2="468.0" stroke="#e5e7eb" stroke-width="1"/><text x="68" y="472.0" text-anchor="end" font-size="12" fill="#6b7280">0.00</text><line x1="78" y1="392.0" x2="934" y2="392.0" stroke="#e5e7eb" stroke-width="1"/><text x="68" y="396.0" text-anchor="end" font-size="12" fill="#6b7280">22123973</text><line x1="78" y1="316.0" x2="934" y2="316.0" stroke="#e5e7eb" stroke-width="1"/><text x="68" y="320.0" text-anchor="end" font-size="12" fill="#6b7280">44247945</text><line x1="78" y1="240.0" x2="934" y2="240.0" stroke="#e5e7eb" stroke-width="1"/><text x="68" y="244.0" text-anchor="end" font-size="12" fill="#6b7280">66371918</text><line x1="78" y1="164.0" x2="934" y2="164.0" stroke="#e5e7eb" stroke-width="1"/><text x="68" y="168.0" text-anchor="end" font-size="12" fill="#6b7280">88495891</text><line x1="78" y1="88.0" x2="934" y2="88.0" stroke="#e5e7eb" stroke-width="1"/><text x="68" y="92.0" text-anchor="end" font-size="12" fill="#6b7280">110619864</text>
  <line x1="78" y1="124.5" x2="934" y2="124.5" stroke="#9ca3af" stroke-width="1.5" stroke-dasharray="6 4"/><text x="934" y="118.5" text-anchor="end" font-size="11" fill="#6b7280">start 100000000</text>
  <polyline points="78.0,232.4 79.0,229.4 79.8,229.5 80.8,229.4 82.3,229.3 83.4,230.3 84.7,229.4 86.3,230.5 88.0,229.8 89.6,228.8 91.1,227.7 92.5,229.0 93.7,228.9 94.7,230.4 95.8,228.8 96.2,227.5 96.9,229.3 98.0,226.9 98.2,224.3 98.5,226.2 99.2,227.6 100.6,226.2 101.8,227.5 103.5,226.3 104.5,224.0 104.9,223.1 105.5,223.8 106.1,224.1 106.8,222.8 107.5,224.9 108.3,225.1 109.1,224.6 109.4,220.2 109.7,220.5 109.9,216.3 110.0,217.3 110.2,218.8 110.7,220.2 111.4,220.9 112.2,221.0 113.1,218.7 113.3,214.7 113.6,216.4 114.2,217.7 114.8,219.6 115.2,217.8 115.9,216.7 116.2,211.5 116.3,213.9 116.7,213.9 116.9,210.6 117.0,211.2 117.3,208.5 117.3,207.8 117.4,206.7 117.5,208.2 117.7,209.0 118.1,208.3 118.5,211.7 118.8,210.0 119.2,211.8 119.8,210.8 120.1,210.3 120.6,211.2 121.2,210.4 121.8,210.3 122.1,214.8 122.1,216.6 122.2,216.2 122.3,213.5 122.4,218.2 122.4,217.7 122.5,210.5 122.5,210.8 122.5,208.7 122.6,210.0 122.6,201.4 122.7,202.3 122.7,198.2 122.7,197.0 122.7,196.8 122.8,200.7 122.8,200.8 122.9,199.6 123.0,203.7 123.0,203.1 123.1,205.0 123.2,205.4 123.3,207.2 123.3,208.3 123.4,205.2 123.5,202.4 123.6,201.4 123.7,199.9 123.8,199.0 123.9,201.7 124.0,201.2 124.1,202.6 124.3,200.4 124.3,194.0 124.4,194.4 124.4,198.2 124.5,196.9 124.6,190.5 124.6,189.7 124.7,186.3 124.7,185.5 124.7,187.7 124.8,187.3 124.9,189.8 124.9,189.7 125.0,192.6 125.2,188.7 125.3,186.2 125.4,188.7 125.5,184.1 125.6,186.2 125.7,188.9 125.8,190.4 126.0,189.7 126.2,192.5 126.4,190.3 126.6,190.7 126.9,190.7 127.1,192.1 127.3,195.8 127.4,195.9 127.6,195.0 127.8,192.0 128.1,190.7 128.4,190.5 128.7,191.3 129.0,190.8 129.4,190.9 129.8,192.4 130.4,190.3 131.0,188.3 131.3,186.8 131.8,186.5 132.5,189.4 133.2,190.9 133.9,189.5 134.8,190.8 135.7,191.8 136.6,190.2 137.6,190.7 138.6,192.5 139.5,193.6 140.1,193.9 140.9,195.4 141.4,197.1 141.7,201.5 141.7,201.3 142.0,200.7 142.2,199.3 142.6,199.9 143.0,197.9 143.6,198.5 144.2,195.0 144.7,196.7 145.6,196.5 146.6,198.7 147.6,197.2 148.2,196.4 149.2,196.3 149.9,194.7 150.6,196.4 151.4,196.0 152.2,196.3 153.0,195.8 154.4,192.3 155.9,193.4 157.4,193.1 158.0,190.1 159.1,191.0 160.0,190.1 160.9,189.5 160.9,181.8 161.0,183.7 161.1,183.7 161.2,186.2 161.5,183.6 161.9,182.2 162.0,182.4 162.4,183.6 162.8,185.2 163.3,185.6 164.0,186.6 164.7,183.8 165.4,183.8 166.0,183.7 166.8,184.3 167.9,182.9 168.2,180.8 168.5,184.8 168.9,185.8 169.5,185.9 170.1,189.8 170.3,188.5 171.0,187.0 171.7,185.6 172.3,185.9 173.0,185.5 173.9,186.3 174.8,187.7 175.5,187.3 176.2,188.2 177.1,186.6 177.7,187.7 178.6,187.5 179.0,190.4 179.3,187.2 179.9,188.5 180.5,186.3 181.4,186.1 182.2,189.1 182.8,189.1 183.0,190.1 183.8,188.3 184.8,186.9 185.3,183.8 186.0,186.9 186.6,186.3 187.4,184.0 187.7,185.4 188.2,187.1 188.5,181.2 188.5,183.7 188.7,182.7 188.9,184.9 189.2,184.0 189.4,180.6 189.4,178.6 189.5,178.7 189.7,179.2 189.7,172.6 189.8,173.1 189.9,172.4 190.0,175.4 190.3,174.4 190.3,167.7 190.4,164.6 190.4,168.2 190.5,167.0 190.7,170.0 190.8,171.3 191.0,172.4 191.3,173.6 191.8,172.1 192.2,173.3 192.6,172.9 193.2,175.7 193.5,176.3 193.6,180.5 193.9,179.8 194.4,179.9 195.0,181.3 195.3,183.9 195.7,182.8 195.9,186.9 196.2,182.9 196.7,182.2 197.5,181.4 198.1,178.8 198.6,180.1 199.0,181.4 199.5,179.6 199.9,178.8 200.3,177.5 200.7,178.3 201.2,177.8 201.7,177.0 202.3,175.5 202.7,177.0 203.2,178.9 203.7,179.1 204.0,181.7 204.2,184.3 204.3,184.7 204.6,181.9 204.9,182.6 205.2,184.7 205.2,186.6 205.3,182.6 205.4,181.8 205.4,178.8 205.5,179.6 205.5,180.9 205.6,179.2 205.7,179.6 205.8,180.6 205.9,181.7 206.1,178.5 206.3,179.7 206.4,175.3 206.5,173.4 206.5,169.5 206.6,173.4 206.8,172.8 207.0,173.1 207.2,173.5 207.3,176.8 207.6,173.8 207.8,175.0 208.2,174.7 208.5,179.5 208.6,178.3 208.8,174.1 209.0,169.0 209.1,166.2 209.1,164.5 209.2,166.3 209.4,168.5 209.6,173.3 209.8,169.5 210.2,168.5 210.3,162.5 210.5,164.2 210.8,163.4 211.1,164.8 211.4,164.6 211.5,159.4 211.6,159.7 211.8,159.3 212.0,156.9 212.0,152.6 212.1,157.6 212.3,159.4 212.6,160.4 212.8,158.7 213.2,160.9 213.7,160.0 214.3,158.2 214.9,159.3 215.4,161.7 215.9,161.9 216.4,166.0 216.7,167.1 217.0,168.7 217.3,164.6 217.6,160.8 217.8,159.6 218.2,165.5 218.5,165.8 219.0,166.2 219.6,165.8 220.1,162.4 220.6,163.9 221.3,162.5 222.1,162.9 222.6,165.0 223.2,164.0 223.7,160.1 223.8,155.8 224.0,158.2 224.5,161.7 224.8,165.4 225.0,165.4 225.3,164.4 225.9,165.1 226.6,163.2 227.3,164.3 228.0,163.2 228.9,160.5 229.3,159.2 229.8,160.0 230.5,159.0 231.1,161.4 231.6,160.8 232.3,158.3 232.4,155.3 232.4,148.0 232.4,150.6 232.5,145.1 232.5,148.4 232.6,144.9 232.6,140.9 232.7,142.4 232.8,144.5 232.8,143.9 232.9,142.8 233.0,143.1 233.1,146.6 233.1,152.0 233.2,148.6 233.3,151.9 233.3,148.1 233.5,145.7 233.5,150.1 233.7,145.2 233.8,144.2 233.9,145.0 234.0,150.1 234.1,153.2 234.2,150.4 234.4,152.1 234.6,149.6 234.7,150.0 234.9,153.8 235.0,156.4 235.1,156.2 235.2,155.8 235.3,157.8 235.4,158.9 235.5,157.0 235.6,156.5 235.9,156.8 236.1,156.0 236.4,154.8 236.5,159.3 236.5,164.5 236.6,165.5 236.7,166.8 236.7,170.2 236.7,171.0 236.8,173.9 236.8,170.1 236.9,169.9 237.0,166.1 237.1,165.4 237.4,164.9 237.6,163.7 237.8,163.5 238.1,164.0 238.5,163.3 239.0,164.1 239.3,161.7 239.7,159.0 240.1,158.3 240.5,155.6 240.5,150.3 240.6,146.7 240.6,148.1 240.8,147.9 240.9,143.9 241.1,146.6 241.4,148.6 241.7,149.2 242.1,151.6 242.6,149.0 242.9,146.4 243.3,145.3 243.5,144.1 243.8,145.6 244.2,146.9 244.5,150.3 244.8,152.9 245.0,151.5 245.2,156.9 245.4,154.9 245.6,156.8 245.9,158.3 246.1,156.7 246.5,156.0 246.9,153.3 247.2,149.8 247.7,149.5 248.2,152.0 248.7,152.4 249.3,154.2 249.9,154.5 250.4,156.4 251.0,156.0 251.8,155.7 252.6,153.8 253.3,153.7 253.9,154.4 254.2,160.4 254.4,161.0 254.5,163.1 254.7,164.1 254.8,166.9 254.9,168.5 255.1,169.8 255.2,170.4 255.4,168.0 255.8,166.1 256.2,165.9 256.7,163.3 257.3,165.0 257.7,164.5 258.3,166.3 258.8,168.6 259.1,164.0 259.5,165.5 259.8,170.2 259.9,170.9 260.0,172.7 260.2,172.1 260.4,170.2 260.4,179.8 260.4,174.1 260.4,173.7 260.5,172.0 260.6,172.3 260.6,172.5 260.7,171.5 260.8,172.3 261.0,174.0 261.0,179.6 261.0,180.5 261.1,176.6 261.1,179.2 261.3,180.0 261.3,182.1 261.3,183.5 261.4,182.5 261.5,183.5 261.6,182.4 261.7,179.9 261.8,180.5 261.9,178.1 262.2,179.1 262.4,177.0 262.6,179.2 262.8,182.9 263.0,179.6 263.3,182.8 263.6,180.1 264.1,180.5 264.4,183.0 264.7,183.2 264.9,186.9 265.0,180.5 265.3,183.6 265.5,184.6 265.8,186.9 265.9,189.6 266.0,188.6 266.3,184.2 266.7,183.8 267.1,186.7 267.4,186.6 267.9,186.1 268.5,184.4 269.3,184.8 270.0,183.0 270.4,183.1 270.5,179.9 270.6,175.8 270.8,178.1 271.3,177.7 271.9,181.9 272.4,177.0 272.9,176.3 273.6,176.8 274.0,176.4 274.3,181.6 274.6,182.3 275.1,180.3 275.6,186.8 275.8,186.3 276.2,184.8 276.7,182.4 277.5,181.0 278.2,185.5 278.3,188.8 278.5,191.4 278.6,191.7 278.8,192.6 279.2,193.1 279.3,195.3 279.4,198.8 279.4,197.5 279.6,195.6 279.8,192.2 280.1,190.4 280.4,189.5 280.9,188.2 281.3,190.5 281.7,193.6 282.1,193.8 282.4,194.2 282.8,195.2 282.9,194.6 283.3,192.2 283.8,191.4 284.1,190.2 284.4,192.7 284.7,193.0 285.1,192.3 285.3,196.6 285.4,196.3 285.7,196.7 285.8,199.4 286.1,198.3 286.6,197.9 287.0,198.6 287.5,200.5 287.5,201.1 287.8,200.7 287.9,206.2 288.0,203.6 288.0,206.1 288.0,203.5 288.1,202.3 288.2,204.7 288.2,205.7 288.3,207.8 288.3,206.5 288.3,203.3 288.4,201.7 288.5,204.8 288.6,205.5 288.7,201.0 288.8,200.9 288.9,200.7 289.0,198.4 289.0,195.5 289.1,197.1 289.2,199.7 289.4,195.8 289.5,199.2 289.7,198.4 289.8,197.0 290.0,198.1 290.2,197.1 290.4,199.3 290.6,193.5 290.7,193.5 290.9,190.4 291.0,190.4 291.2,192.2 291.5,192.6 291.8,190.2 292.0,188.4 292.2,190.5 292.6,189.5 293.0,191.3 293.4,191.0 293.8,192.2 294.2,195.1 294.4,198.8 294.7,197.4 295.0,196.6 295.4,195.3 296.0,195.0 296.7,191.1 297.3,193.3 297.9,191.8 298.7,195.0 299.4,195.9 300.2,192.9 300.6,192.3 300.6,186.1 300.7,190.1 300.7,196.5 300.8,202.8 300.9,196.8 301.3,191.4 301.6,191.4 302.1,193.4 302.7,193.3 303.3,192.1 304.1,191.2 305.0,192.3 306.1,192.1 306.9,190.9 307.8,193.0 308.2,195.7 308.5,193.6 308.9,197.1 309.0,200.5 309.0,203.6 309.1,204.9 309.2,203.6 309.3,199.9 309.5,199.0 309.8,198.1 310.4,200.0 311.1,198.2 311.9,197.8 312.5,199.6 313.0,201.7 313.7,200.8 314.2,198.8 314.4,195.5 314.5,200.0 314.5,196.5 314.7,198.2 315.1,198.3 315.3,202.3 315.6,198.8 315.7,202.7 315.7,201.9 315.8,202.2 315.9,204.0 316.0,207.2 316.0,204.3 316.2,203.0 316.2,204.0 316.3,204.9 316.4,203.5 316.6,201.5 316.6,197.4 316.7,193.3 316.7,189.5 316.7,189.2 316.8,188.8 316.8,186.1 316.9,186.5 317.0,190.6 317.0,193.2 317.1,190.7 317.2,192.8 317.2,197.6 317.3,192.8 317.4,191.2 317.6,191.7 317.6,186.6 317.7,188.4 317.9,190.8 318.1,190.5 318.3,187.6 318.6,188.7 318.8,194.5 319.0,192.7 319.3,195.2 319.6,192.7 319.9,195.5 320.0,199.3 320.2,201.9 320.2,202.1 320.4,200.1 320.8,199.3 321.1,202.6 321.3,204.1 321.6,203.6 321.9,203.3 322.2,201.9 322.7,201.5 323.1,204.5 323.5,201.7 324.0,202.7 324.8,202.0 325.8,200.2 326.9,201.7 328.1,200.7 329.6,201.7 330.9,201.1 332.3,203.0 334.0,200.8 335.7,199.2 337.7,199.4 338.7,198.8 339.9,198.0 341.2,198.1 342.8,199.6 344.1,199.1 346.2,198.3 348.4,199.4 350.8,201.4 352.4,201.4 353.9,200.9 355.4,199.2 357.4,199.1 359.5,198.2 361.3,197.5 362.9,199.4 364.4,196.1 365.6,196.2 367.2,196.2 368.5,194.0 369.2,193.9 370.1,194.3 371.2,193.6 371.4,190.9 371.8,192.1 372.3,193.3 372.8,192.9 373.1,187.5 373.2,185.1 373.3,187.5 373.7,189.1 374.4,189.8 375.3,190.4 376.3,189.6 377.3,193.9 377.5,195.9 378.0,194.8 378.9,193.4 379.5,194.9 380.4,193.1 380.7,199.2 380.9,193.0 381.0,192.5 381.4,192.1 381.8,192.1 382.1,191.9 382.3,191.6 382.5,195.2 382.7,197.2 382.9,189.9 383.0,189.3 383.0,190.1 383.2,190.2 383.5,191.2 383.8,190.3 384.2,187.7 384.3,184.9 384.4,185.4 384.7,185.7 384.9,182.6 385.0,180.0 385.1,180.0 385.4,181.0 385.6,178.6 385.9,181.0 386.3,182.0 386.6,181.2 387.3,180.7 388.1,179.6 388.8,180.3 389.5,181.8 390.3,182.4 390.6,186.0 390.9,187.4 391.3,186.5 391.6,190.8 391.7,194.6 391.8,194.6 391.9,195.0 392.1,192.9 392.4,191.8 392.9,191.3 393.5,193.1 394.2,194.0 394.7,194.2 395.4,192.9 396.3,193.1 397.0,195.5 397.6,194.4 398.2,197.9 398.2,199.9 398.3,202.5 398.3,205.3 398.4,203.8 398.5,200.3 398.5,199.3 398.6,193.9 398.7,197.6 398.8,196.6 398.9,196.4 399.1,197.9 399.3,196.2 399.4,193.2 399.5,193.5 399.7,190.4 399.8,191.0 400.0,189.9 400.2,189.0 400.3,187.9 400.5,190.2 400.7,186.2 400.8,188.3 401.0,188.3 401.2,187.9 401.5,190.6 401.8,193.5 401.9,195.8 402.0,200.3 402.0,197.8 402.2,196.8 402.6,197.2 402.8,194.7 403.1,196.0 403.3,195.9 403.7,196.8 404.2,193.6 404.8,190.9 405.3,194.1 405.8,196.3 406.2,196.2 406.9,200.0 407.3,196.0 408.2,198.0 408.8,197.8 409.6,195.9 410.2,197.3 410.9,195.3 411.4,198.6 412.1,196.9 413.0,195.9 413.4,193.6 414.1,192.3 414.7,193.2 415.3,189.7 415.5,185.3 415.7,186.4 416.1,187.2 416.4,189.6 417.0,188.1 417.7,189.0 418.5,191.3 419.4,188.9 419.8,186.9 420.2,186.4 420.5,188.6 421.0,186.1 421.8,188.0 422.8,188.2 423.7,188.2 424.5,187.2 424.9,182.8 424.9,184.4 424.9,181.1 425.0,183.6 425.1,185.5 425.1,185.6 425.4,185.2 425.6,187.1 425.9,183.9 426.1,182.2 426.2,182.3 426.2,180.9 426.3,181.3 426.4,182.7 426.5,185.1 426.6,185.2 426.7,185.4 426.9,186.1 427.1,185.7 427.3,182.9 427.4,180.7 427.5,180.2 427.7,179.3 427.7,175.5 427.8,175.7 427.8,172.4 427.9,172.6 428.0,174.3 428.1,175.9 428.3,177.3 428.5,172.3 428.7,172.2 429.0,174.0 429.2,176.1 429.5,175.6 429.8,174.0 430.1,175.7 430.3,172.4 430.5,171.1 430.9,171.0 431.0,167.8 431.1,168.9 431.4,172.2 431.8,169.0 431.9,167.2 432.3,166.9 432.5,165.8 432.8,165.8 433.1,171.7 433.3,170.3 433.6,168.4 433.9,166.6 434.3,166.8 434.8,164.2 434.8,159.9 434.8,153.8 434.8,150.1 434.9,146.1 434.9,146.8 434.9,136.2 434.9,123.0 434.9,128.7 434.9,128.4 434.9,129.4 434.9,138.8 434.9,137.8 434.9,135.5 435.0,137.2 435.0,141.9 435.0,135.8 435.1,134.5 435.1,135.9 435.2,139.0 435.4,137.7 435.5,134.2 435.6,132.9 435.7,133.8 435.8,131.9 435.9,132.5 436.0,133.7 436.2,132.9 436.3,136.4 436.5,138.5 436.7,136.5 437.0,135.2 437.1,134.3 437.3,133.9 437.6,137.1 438.0,137.2 438.3,133.9 438.6,133.2 438.8,132.6 439.1,133.9 439.5,130.0 439.6,128.8 439.8,133.0 440.2,135.9 440.5,136.0 441.0,135.6 441.5,130.6 441.6,128.3 441.8,131.0 442.3,130.6 442.8,132.6 443.2,135.0 443.6,133.3 444.1,135.7 444.6,135.8 445.0,133.2 445.4,133.2 446.0,132.6 446.6,132.3 447.3,135.4 448.0,133.2 448.8,133.8 448.9,138.7 449.2,140.3 449.6,139.2 449.8,144.2 450.0,144.2 450.3,145.1 450.6,146.3 450.8,146.4 451.1,144.5 451.6,143.3 452.1,145.4 452.3,141.8 452.5,142.4 452.9,143.3 453.2,140.8 453.4,136.6 453.6,136.4 453.7,139.4 453.8,138.6 453.8,136.1 453.9,136.4 454.0,134.2 454.0,132.4 454.1,130.9 454.1,127.8 454.2,128.8 454.2,130.5 454.3,134.5 454.3,132.9 454.4,131.4 454.5,127.6 454.5,127.1 454.6,129.0 454.7,128.5 454.8,130.6 454.9,130.1 455.1,132.8 455.2,133.4 455.4,129.3 455.6,126.2 455.6,124.6 455.7,125.5 455.8,123.0 456.0,122.0 456.0,118.5 456.0,114.3 456.0,121.7 456.1,119.4 456.2,119.6 456.3,120.2 456.4,123.8 456.5,125.4 456.7,123.2 456.8,122.2 457.0,123.3 457.2,126.9 457.2,131.4 457.3,129.9 457.5,127.6 457.6,130.3 457.8,130.0 458.0,133.5 458.1,132.7 458.3,133.1 458.4,137.1 458.5,136.0 458.6,134.6 458.8,132.7 459.0,131.2 459.2,129.2 459.4,124.4 459.4,116.5 459.4,122.2 459.6,122.6 459.8,122.3 460.0,124.1 460.2,121.2 460.2,120.5 460.5,123.9 460.7,122.7 460.9,122.3 461.1,121.8 461.3,123.4 461.6,123.1 462.2,125.4 462.4,124.6 462.9,129.1 463.3,127.7 463.7,126.3 464.1,128.0 464.7,131.1 465.1,130.8 465.4,134.5 465.7,133.1 466.1,134.0 466.4,137.3 466.7,135.8 467.2,137.5 467.6,139.1 467.6,138.8 468.0,139.7 468.4,140.0 468.6,144.5 468.7,144.3 468.8,148.2 468.9,145.6 469.3,144.9 469.6,143.2 469.9,142.0 470.4,139.2 470.9,140.8 471.3,139.0 471.8,136.6 472.2,139.1 472.8,138.2 473.3,136.1 473.6,135.1 474.1,136.4 474.7,134.7 475.1,133.7 475.5,130.1 475.7,127.2 475.8,124.3 476.0,124.2 476.2,126.7 476.5,122.7 476.8,123.2 477.4,126.2 477.8,126.0 478.2,129.8 478.8,128.9 479.2,127.5 479.4,124.0 479.8,125.5 480.2,126.2 480.4,123.0 480.6,122.6 480.9,121.2 481.2,123.4 481.3,125.9 481.4,127.5 481.4,128.3 481.5,131.8 481.5,132.3 481.6,135.3 481.6,131.3 481.7,129.4 481.7,127.1 481.8,131.2 481.9,130.8 482.0,127.9 482.1,129.2 482.2,130.6 482.3,134.5 482.5,133.2 482.6,137.9 482.7,135.1 482.7,140.5 482.8,142.4 482.8,144.9 482.8,147.2 482.9,143.6 483.0,140.6 483.0,135.2 483.1,137.9 483.1,139.1 483.3,138.0 483.5,136.3 483.7,137.8 483.9,134.6 484.1,134.7 484.3,136.7 484.6,136.7 484.9,134.8 485.1,138.0 485.2,141.9 485.4,142.7 485.5,146.0 485.8,144.8 485.9,143.3 486.1,149.3 486.2,147.0 486.5,147.2 486.6,144.2 486.9,145.1 487.1,144.7 487.3,146.0 487.6,144.1 487.8,143.2 488.1,146.9 488.5,147.3 488.8,145.6 489.4,143.3 490.1,143.2 490.7,139.1 491.2,141.6 491.8,139.2 492.4,136.9 493.1,136.8 493.6,141.5 494.1,138.5 494.6,142.5 494.9,143.3 495.5,142.5 496.2,141.6 497.0,144.0 497.5,147.9 497.6,147.5 498.1,146.3 498.7,143.6 498.8,139.5 499.2,140.1 499.9,138.4 500.8,139.5 501.5,139.2 502.0,138.1 502.8,139.1 503.8,140.9 504.5,143.5 505.1,142.3 505.7,142.8 506.4,140.1 507.1,141.4 507.8,141.8 508.3,139.9 508.8,140.2 508.9,142.7 509.0,145.0 509.1,143.1 509.3,144.3 509.4,144.0 509.5,143.2 509.7,141.1 509.8,146.0 509.9,144.4 510.0,144.3 510.1,149.7 510.1,150.7 510.2,148.5 510.2,154.0 510.3,151.8 510.4,154.6 510.4,155.4 510.5,152.6 510.7,152.3 510.8,151.4 511.0,147.7 511.1,148.0 511.3,148.1 511.6,148.3 512.0,150.4 512.4,148.9 512.8,149.0 513.1,148.0 513.6,146.9 514.2,149.3 514.8,149.6 515.4,152.3 515.8,146.7 516.3,145.1 516.6,145.5 517.5,144.5 518.5,145.2 519.2,143.4 520.4,145.0 521.7,145.4 523.0,145.7 524.7,146.1 526.4,144.8 528.2,145.5 529.7,144.1 531.0,142.2 532.3,143.9 533.4,142.4 534.7,142.1 536.1,142.1 536.8,141.0 537.4,138.5 537.8,136.5 538.1,136.8 538.5,135.5 538.8,138.5 539.3,137.9 540.3,136.7 541.7,138.1 543.7,138.2 545.3,140.0 546.0,142.1 546.9,141.0 548.2,139.8 548.9,142.7 549.9,141.7 551.1,141.4 552.0,138.8 553.3,139.8 554.6,138.0 555.8,140.9 556.9,141.2 557.9,138.9 558.5,136.4 559.3,137.3 560.6,137.5 561.9,136.2 562.9,138.5 563.4,135.9 563.8,131.1 564.0,132.9 564.3,134.6 564.7,135.8 565.3,134.6 566.0,133.1 566.8,133.8 567.8,133.6 568.6,130.9 568.7,125.8 568.8,126.4 569.1,125.0 569.6,128.8 570.3,130.3 571.1,129.0 571.8,132.2 572.9,130.1 573.9,129.6 574.0,135.9 574.2,134.9 574.4,137.3 574.5,140.8 574.6,139.3 574.8,145.0 574.8,145.6 574.8,143.2 574.9,147.7 575.0,147.3 575.1,152.6 575.1,157.8 575.1,162.2 575.1,161.3 575.1,153.7 575.1,154.1 575.2,158.2 575.2,156.0 575.3,160.4 575.3,164.2 575.3,167.2 575.3,165.9 575.4,164.3 575.4,164.6 575.4,172.9 575.4,173.3 575.5,172.7 575.5,169.2 575.5,172.7 575.6,169.6 575.6,174.1 575.6,171.5 575.7,169.6 575.8,167.1 575.8,164.5 575.9,165.7 576.1,165.9 576.2,166.5 576.4,165.8 576.6,165.7 576.8,167.1 577.0,167.4 577.1,171.6 577.3,169.0 577.5,171.0 577.8,166.2 578.2,166.4 578.6,168.6 579.0,169.5 579.4,167.7 579.9,167.5 580.4,166.2 581.0,166.4 581.3,170.4 581.6,169.3 582.1,170.6 582.4,171.4 582.8,171.6 583.5,170.0 584.1,168.2 584.6,167.6 584.7,166.3 585.0,166.2 585.4,167.1 585.8,167.2 586.5,168.3 587.2,167.7 588.0,164.5 588.3,163.0 588.7,164.4 589.3,163.3 589.6,161.1 590.1,164.0 590.6,166.1 591.3,166.8 591.5,166.6 591.9,168.3 592.4,165.4 592.9,167.1 593.5,165.2 594.2,164.9 594.7,164.8 595.5,165.5 596.2,166.6 597.0,165.5 598.0,164.8 598.8,164.7 599.6,166.5 600.6,170.0 600.7,167.7 601.3,171.4 601.6,174.4 601.6,178.4 601.7,175.6 601.8,178.6 602.1,174.0 602.4,172.4 602.7,170.9 603.0,174.4 603.3,173.9 603.8,174.6 604.1,174.3 604.4,170.3 604.9,171.1 605.3,173.0 605.7,172.7 606.1,172.0 606.6,172.9 607.4,173.1 608.1,175.2 608.4,177.9 608.4,179.5 608.5,179.3 608.6,181.9 608.8,180.7 609.1,179.3 609.6,177.8 609.9,184.0 609.9,187.0 609.9,189.8 610.0,186.1 610.2,189.8 610.2,189.0 610.3,190.0 610.5,192.6 610.6,193.7 610.8,192.7 611.0,191.5 611.3,191.1 611.7,189.3 612.0,191.4 612.1,198.5 612.2,194.3 612.4,194.2 612.5,197.9 612.6,200.4 612.7,199.6 612.9,198.4 613.0,197.4 613.4,198.0 613.8,198.7 614.3,199.0 614.6,197.2 615.1,196.8 615.6,194.8 616.3,194.5 616.8,195.5 617.5,195.0 617.9,199.2 618.2,200.3 618.3,203.8 618.4,199.0 618.6,202.3 618.9,200.4 619.1,206.1 619.1,209.3 619.2,206.2 619.3,205.0 619.4,208.6 619.4,207.5 619.5,207.7 619.5,201.7 619.6,207.3 619.6,206.0 619.7,212.0 619.7,213.5 619.7,211.0 619.8,211.7 619.9,212.4 619.9,214.6 620.0,218.9 620.0,219.0 620.0,217.6 620.1,224.0 620.1,223.0 620.1,223.6 620.1,221.1 620.2,220.0 620.2,218.8 620.3,221.9 620.4,216.9 620.5,216.1 620.6,214.8 620.7,216.7 620.9,217.5 621.0,216.9 621.2,216.2 621.4,214.6 621.6,217.6 621.8,219.2 621.9,223.2 622.0,221.9 622.2,221.7 622.4,220.1 622.7,222.6 622.9,225.3 622.9,228.7 623.0,225.6 623.1,226.0 623.2,225.1 623.4,224.7 623.7,222.9 624.0,224.9 624.2,226.5 624.5,226.5 624.8,227.1 625.1,228.4 625.2,227.7 625.5,226.4 625.8,227.7 626.0,223.6 626.3,225.4 626.7,225.1 627.0,223.5 627.7,226.3 628.5,228.5 628.6,244.6 628.6,241.5 628.6,240.2 628.6,241.8 628.6,236.6 628.7,241.7 628.8,238.8 629.0,238.8 629.2,241.1 629.4,239.7 629.5,241.1 629.7,239.5 630.0,241.5 630.3,239.9 630.5,241.5 630.7,245.1 630.8,242.0 631.0,236.7 631.2,235.9 631.4,236.3 631.7,232.7 632.0,233.8 632.4,231.9 632.9,232.3 633.3,235.8 633.7,234.9 634.2,232.9 634.6,230.0 635.1,231.1 635.9,229.3 636.6,228.2 636.9,225.1 637.3,226.8 638.0,229.5 638.5,228.8 639.0,232.9 639.5,233.0 639.8,232.8 640.2,235.3 640.7,233.8 641.3,232.6 641.8,237.3 642.4,234.2 643.2,233.4 643.9,236.7 644.0,239.8 644.2,240.5 644.3,242.4 644.3,246.7 644.4,247.5 644.4,249.3 644.5,248.0 644.5,247.7 644.7,250.6 644.8,247.0 645.0,245.3 645.3,241.5 645.5,240.1 645.7,243.1 645.9,242.5 646.2,245.4 646.4,245.1 646.5,238.9 646.5,238.6 646.6,234.3 646.6,233.3 646.7,233.0 646.7,232.4 646.8,231.5 646.9,233.9 647.0,228.9 647.0,229.0 647.0,227.5 647.1,229.4 647.1,227.5 647.2,231.0 647.3,229.4 647.4,231.5 647.5,228.9 647.6,230.9 647.7,225.9 647.8,227.0 647.8,222.7 647.9,220.4 647.9,221.0 648.0,223.0 648.1,226.9 648.1,226.5 648.3,229.0 648.4,226.8 648.6,223.5 648.8,225.5 648.9,228.3 649.1,231.6 649.1,236.1 649.2,235.6 649.3,236.8 649.4,241.7 649.4,245.4 649.4,248.8 649.5,250.1 649.5,254.6 649.5,254.1 649.6,249.2 649.6,246.8 649.7,248.0 649.7,251.5 649.8,251.9 649.8,250.3 649.9,251.1 650.0,249.2 650.0,252.8 650.1,257.6 650.1,258.3 650.1,258.5 650.2,253.8 650.2,255.1 650.3,255.6 650.4,253.4 650.5,257.2 650.6,256.1 650.6,252.8 650.7,251.3 650.8,251.2 651.0,250.3 651.1,252.9 651.2,249.4 651.4,251.4 651.5,249.9 651.7,250.5 651.9,247.5 652.0,244.5 652.1,244.3 652.3,246.7 652.5,243.4 652.7,237.9 652.7,234.3 652.7,229.4 652.7,229.5 652.7,228.0 652.8,227.0 652.8,223.3 652.8,220.5 652.8,217.2 652.9,215.5 652.9,216.6 653.0,215.3 653.0,212.8 653.1,210.5 653.1,213.0 653.1,210.2 653.2,208.1 653.3,210.0 653.3,214.3 653.4,213.3 653.5,217.3 653.6,218.2 653.7,222.1 653.7,220.4 653.9,223.0 654.0,219.6 654.2,216.6 654.3,216.1 654.6,216.0 654.8,214.5 655.2,214.5 655.7,215.2 656.0,216.7 656.5,220.2 656.9,220.1 657.3,222.6 657.5,228.1 657.7,231.7 657.9,229.6 658.1,226.5 658.4,223.9 658.7,222.6 659.1,219.3 659.4,218.7 659.7,218.5 660.1,215.8 660.4,216.3 660.8,215.8 661.2,219.3 661.6,217.2 662.0,223.0 662.5,221.1 663.1,219.7 663.7,217.7 664.4,219.2 665.0,220.1 665.4,221.3 666.0,219.3 666.5,222.3 667.0,224.2 667.4,226.5 667.7,225.6 668.3,223.1 668.8,222.4 669.4,221.4 669.9,223.1 670.4,224.1 670.9,224.7 671.1,227.5 671.4,230.2 671.7,229.6 672.1,227.5 672.6,227.3 673.2,226.2 673.4,224.6 673.5,229.4 673.6,233.1 673.7,232.9 673.8,231.9 674.0,232.0 674.2,230.7 674.4,234.4 674.6,231.1 674.7,236.3 674.7,237.6 674.7,233.4 674.8,233.1 674.8,236.4 674.9,238.5 674.9,240.9 675.0,238.9 675.1,240.4 675.1,241.5 675.2,240.6 675.3,239.8 675.4,240.2 675.5,241.2 675.6,241.9 675.6,247.3 675.6,249.1 675.7,249.4 675.7,248.0 675.8,247.5 675.9,246.0 676.0,242.3 676.0,236.7 676.0,234.3 676.1,237.3 676.2,240.8 676.3,238.4 676.4,242.2 676.6,241.0 676.7,243.5 676.8,239.6 676.9,241.9 677.0,241.1 677.2,236.8 677.4,239.9 677.6,238.2 677.8,239.1 678.0,240.8 678.3,236.9 678.5,235.6 678.7,236.3 679.0,233.1 679.2,234.3 679.5,238.3 679.7,241.2 679.9,240.4 680.2,238.5 680.5,236.0 680.8,236.8 681.0,238.3 681.4,240.1 681.7,242.6 682.0,241.5 682.3,240.2 682.9,240.6 683.4,236.7 684.1,237.4 684.6,239.5 685.4,237.8 686.1,238.2 686.8,236.9 687.3,235.3 687.8,233.5 688.4,234.9 689.1,236.0 690.0,234.7 690.4,231.9 690.9,230.4 691.4,231.6 691.9,232.0 692.5,232.3 692.9,236.2 693.0,239.4 693.2,238.0 693.5,240.2 693.7,242.0 694.0,238.7 694.6,238.9 695.0,239.7 695.3,243.8 695.5,244.0 695.8,244.8 696.2,245.3 696.5,246.5 696.8,246.2 697.2,246.8 697.7,244.5 698.1,243.6 698.5,241.5 699.0,240.2 699.7,241.8 700.3,242.0 700.8,240.8 701.2,243.6 701.7,243.6 702.1,241.4 702.2,246.6 702.3,247.9 702.3,247.7 702.3,252.3 702.4,253.0 702.4,249.1 702.5,252.0 702.6,250.4 702.6,247.1 702.7,247.7 702.8,246.7 703.0,246.0 703.1,251.7 703.1,245.5 703.2,242.7 703.3,245.0 703.5,243.0 703.6,242.7 703.7,236.3 703.7,237.2 703.8,239.4 703.9,236.6 704.0,237.1 704.2,236.8 704.3,238.4 704.5,241.2 704.6,233.7 704.7,232.4 704.7,232.4 704.9,230.6 705.0,233.6 705.2,235.6 705.4,231.3 705.5,227.0 705.6,226.7 705.6,224.7 705.7,226.4 705.8,220.7 705.9,223.2 706.0,223.7 706.2,228.3 706.3,227.4 706.4,226.4 706.6,225.6 706.8,223.9 707.1,227.0 707.3,227.7 707.5,228.2 707.7,233.5 707.8,233.3 707.9,236.1 708.0,238.7 708.1,237.3 708.4,237.1 708.6,236.8 708.9,235.6 709.1,240.3 709.2,241.1 709.3,241.3 709.6,241.0 709.8,239.2 710.2,238.6 710.8,238.1 711.3,237.4 712.0,236.2 713.2,236.2 714.1,237.9 715.1,236.4 716.2,235.8 717.0,234.1 718.0,234.3 719.3,234.5 720.7,234.9 722.1,235.9 723.7,234.8 725.5,235.2 727.4,235.0 729.2,235.8 729.3,237.7 730.2,235.8 731.0,234.5 731.8,236.5 732.7,236.1 733.8,234.5 735.3,236.1 736.9,236.4 738.4,236.1 739.7,235.7 741.1,236.4 742.5,237.3 744.3,237.5 744.8,241.2 745.5,239.7 746.7,239.0 747.9,242.0 748.7,239.9 750.1,239.8 750.7,245.2 750.9,242.9 751.7,242.0 752.7,240.3 753.4,239.8 754.2,242.6 754.9,240.8 755.5,240.8 756.3,242.0 757.1,241.5 757.4,244.7 757.9,243.5 758.7,243.4 759.2,247.3 759.2,248.2 759.3,249.2 759.3,249.3 759.4,250.4 759.4,254.2 759.5,253.0 759.5,258.0 759.5,255.2 759.6,253.3 759.7,254.1 759.8,255.3 760.0,253.1 760.2,253.0 760.4,255.1 760.6,255.6 760.9,256.3 761.3,254.5 761.6,255.8 761.7,266.4 761.7,260.0 761.7,259.6 761.8,259.4 761.9,262.3 762.0,264.1 762.0,267.4 762.1,266.8 762.1,266.3 762.2,268.2 762.3,270.3 762.3,269.0 762.4,268.0 762.6,266.2 762.7,266.0 762.9,268.3 763.0,270.7 763.1,273.7 763.1,273.6 763.2,274.0 763.2,274.2 763.3,272.1 763.5,273.4 763.6,278.9 763.6,277.3 763.7,274.7 763.9,274.7 764.0,279.1 764.2,281.4 764.3,279.0 764.4,281.3 764.6,280.4 764.8,277.6 764.9,274.0 765.1,275.6 765.4,274.2 765.6,278.1 765.9,274.6 766.2,275.4 766.4,279.3 766.7,278.8 767.0,279.4 767.2,281.0 767.2,278.9 767.3,278.3 767.5,279.5 767.7,278.0 767.9,279.5 768.1,273.6 768.4,275.0 768.5,271.0 768.6,270.6 768.7,270.2 768.9,270.1 769.1,270.5 769.3,267.3 769.5,266.5 769.6,262.2 769.7,261.2 769.8,258.7 769.9,257.9 770.0,259.9 770.1,258.3 770.3,257.3 770.4,255.9 770.5,256.2 770.7,258.1 770.8,260.3 771.1,257.2 771.3,257.3 771.5,260.2 771.9,260.1 772.2,263.6 772.5,266.5 772.9,267.1 773.2,263.9 773.4,259.8 773.8,261.6 774.3,262.1 774.8,261.0 775.4,258.8 775.7,258.1 775.9,257.2 776.2,254.4 776.5,255.5 776.7,251.8 776.8,251.9 777.0,254.5 777.4,250.7 777.7,250.0 777.9,249.4 778.0,243.4 778.0,247.4 778.3,247.9 778.6,248.5 778.9,253.2 779.2,254.2 779.5,254.2 779.9,255.2 780.4,252.4 781.1,252.5 781.7,253.6 782.4,251.4 782.6,250.8 783.3,251.1 783.7,249.9 784.2,249.7 784.6,250.6 784.7,256.6 784.7,254.3 785.0,254.9 785.0,256.7 785.1,251.9 785.1,248.5 785.1,244.4 785.2,247.6 785.2,246.1 785.2,245.6 785.3,245.6 785.4,248.2 785.5,247.5 785.6,245.7 785.7,246.8 785.8,240.5 785.8,240.2 785.9,240.3 785.9,241.1 786.0,242.5 786.1,244.9 786.2,247.3 786.3,247.3 786.4,250.1 786.4,253.7 786.4,254.2 786.5,252.4 786.6,249.8 786.8,252.4 786.9,253.8 787.0,253.0 787.2,250.7 787.2,249.1 787.4,249.2 787.6,251.7 787.7,247.8 787.9,251.1 788.2,251.8 788.3,252.2 788.6,253.0 788.8,250.5 789.1,248.4 789.2,247.5 789.4,246.9 789.7,244.0 789.9,248.3 790.2,243.4 790.4,243.8 790.7,243.6 791.1,243.4 791.5,245.6 792.1,248.3 792.4,252.1 792.8,249.9 793.3,244.3 793.3,240.7 793.5,242.5 793.9,244.3 794.4,243.9 795.0,245.5 795.4,241.8 795.7,242.6 796.3,245.3 796.9,246.8 797.5,244.9 797.8,241.9 798.3,240.9 798.9,241.7 799.3,240.5 799.7,241.7 800.3,240.1 800.8,236.3 801.1,239.3 801.7,240.8 802.4,241.0 803.4,241.8 803.9,244.2 804.8,241.8 805.6,244.5 806.2,245.1 806.6,248.6 807.1,248.2 807.6,248.8 808.2,250.1 808.8,250.3 809.4,247.5 810.0,246.4 810.5,246.0 811.2,248.1 811.7,248.0 812.2,247.0 812.3,240.1 812.5,243.7 812.7,244.6 812.7,245.6 812.8,248.6 812.9,248.1 813.0,247.9 813.2,246.6 813.3,246.0 813.4,241.8 813.5,245.2 813.7,245.4 813.9,246.0 814.1,242.5 814.3,240.7 814.4,238.3 814.5,234.4 814.5,234.0 814.5,229.7 814.6,231.0 814.6,232.1 814.8,232.2 814.9,233.6 815.0,226.7 815.0,228.4 815.1,226.5 815.3,227.5 815.5,227.0 815.7,230.1 815.7,234.5 815.8,238.0 815.8,241.1 815.9,241.9 816.0,241.6 816.0,238.1 816.2,240.5 816.3,243.1 816.4,246.1 816.5,245.7 816.7,243.3 816.7,240.5 816.9,240.9 817.1,239.9 817.3,240.8 817.6,237.8 817.7,232.4 817.8,227.8 817.8,230.7 818.0,232.3 818.2,231.4 818.6,230.4 818.7,228.8 819.0,228.0 819.2,227.1 819.3,222.4 819.4,220.6 819.5,221.6 819.6,220.8 819.8,222.6 819.9,217.5 820.0,219.2 820.2,219.6 820.3,216.7 820.6,219.8 820.9,219.7 821.3,219.9 821.6,223.3 822.0,219.6 822.5,221.3 823.0,218.2 823.2,216.2 823.7,219.3 824.3,219.3 824.7,217.9 825.2,220.4 825.7,220.8 826.2,220.9 826.7,222.5 827.2,222.8 827.5,224.3 828.1,223.1 828.6,225.9 829.2,225.1 829.8,225.0 830.5,222.4 830.9,221.4 831.4,221.0 832.0,222.6 832.8,223.2 833.2,225.1 833.6,226.7 834.1,226.8 834.5,224.9 834.8,222.0 835.1,220.3 835.3,217.6 835.4,218.7 835.9,217.5 836.4,218.8 836.9,219.7 837.2,215.1 837.2,214.6 837.4,213.9 837.6,214.5 837.8,216.7 838.2,216.0 838.6,215.9 838.9,215.5 839.2,213.2 839.5,214.2 839.9,216.4 840.2,219.1 840.3,218.1 840.4,218.2 840.5,219.0 840.6,221.7 840.7,221.2 840.9,220.5 841.0,222.6 841.1,224.9 841.1,226.0 841.2,224.3 841.4,224.5 841.6,223.2 841.8,222.8 842.0,224.5 842.3,224.5 842.5,219.9 842.8,225.1 843.1,224.6 843.4,223.1 843.7,225.6 843.9,221.7 844.1,218.7 844.2,219.4 844.3,223.2 844.6,219.3 844.9,220.8 845.3,221.5 845.4,223.0 845.5,221.0 845.6,221.3 845.7,221.8 846.0,220.3 846.0,220.6 846.1,222.3 846.2,224.4 846.3,221.2 846.5,218.5 846.8,218.4 847.0,218.0 847.2,218.3 847.5,220.5 847.7,222.1 847.8,223.3 848.0,220.4 848.6,219.8 849.2,221.5 850.1,219.8 850.7,221.9 851.3,222.7 851.8,223.0 852.2,223.1 852.7,223.9 852.9,225.9 853.2,225.3 853.5,226.0 854.0,226.0 854.1,233.1 854.1,231.5 854.3,234.4 854.4,235.8 854.4,238.7 854.5,238.0 854.6,237.0 854.8,233.8 855.0,235.4 855.2,238.0 855.6,238.1 856.0,238.0 856.2,241.2 856.7,236.9 857.2,235.9 857.9,237.7 858.5,237.0 859.3,236.2 860.1,235.4 860.6,238.7 860.9,236.8 861.1,236.0 861.7,238.4 862.6,239.7 863.4,239.0 863.9,241.9 864.2,243.1 864.4,244.8 864.8,243.3 865.5,243.1 866.1,242.4 866.9,242.0 867.7,242.7 867.9,246.2 867.9,248.8 868.0,249.9 868.1,249.5 868.2,249.5 868.3,252.4 868.3,253.1 868.4,256.5 868.4,259.3 868.4,260.6 868.5,262.8 868.5,266.0 868.5,264.5 868.6,267.6 868.6,267.6 868.6,271.0 868.6,269.3 868.7,273.0 868.7,273.0 868.7,273.9 868.8,276.5 868.8,274.0 868.8,272.2 868.8,271.1 868.9,270.6 868.9,270.4 869.0,269.7 869.0,271.1 869.1,269.8 869.2,272.6 869.2,279.5 869.2,277.8 869.3,278.2 869.3,276.1 869.4,276.6 869.4,273.3 869.5,270.6 869.6,273.9 869.7,274.4 869.7,277.0 869.8,276.3 869.9,273.5 870.0,275.4 870.1,276.1 870.2,274.9 870.4,274.2 870.5,275.1 870.6,272.9 870.7,269.7 870.8,268.0 870.9,268.5 871.1,265.5 871.1,263.8 871.2,268.1 871.4,266.8 871.6,271.4 871.7,271.7 871.8,272.5 871.9,272.0 872.0,271.0 872.2,274.1 872.3,277.4 872.4,277.3 872.5,280.7 872.5,283.8 872.5,281.7 872.5,284.4 872.6,279.8 872.7,277.5 872.8,281.3 872.9,288.2 872.9,286.6 872.9,290.6 873.0,288.0 873.0,289.5 873.1,288.1 873.2,288.2 873.3,282.8 873.5,286.8 873.6,278.9 873.7,278.7 873.7,278.6 874.0,279.3 874.2,281.3 874.4,281.4 874.7,279.0 875.0,280.8 875.2,277.1 875.4,274.9 875.5,274.2 875.8,276.0 876.1,274.6 876.6,272.7 877.3,274.8 878.0,274.3 878.6,272.2 879.2,275.7 879.5,276.4 880.0,278.3 880.3,277.9 880.4,277.6 880.6,280.3 880.7,286.5 880.7,286.9 880.7,289.8 880.7,296.5 880.7,295.7 880.7,302.5 880.8,303.5 880.8,303.5 880.8,298.1 880.8,300.7 880.8,297.4 880.8,298.5 880.9,298.6 880.9,294.5 880.9,296.5 881.0,293.9 881.0,294.4 881.1,294.4 881.2,295.2 881.2,296.9 881.3,297.6 881.4,297.5 881.4,297.6 881.5,299.8 881.5,300.7 881.6,302.8 881.6,305.5 881.7,301.8 881.7,302.9 881.8,301.2 881.8,297.1 881.9,295.1 882.0,297.4 882.1,298.0 882.3,295.4 882.5,295.3 882.6,295.0 882.9,296.1 883.2,295.9 883.5,293.4 883.7,292.3 883.8,286.6 884.0,289.8 884.2,291.0 884.6,292.6 885.0,292.0 885.5,292.1 885.8,295.4 886.0,297.2 886.2,300.7 886.4,300.6 886.5,303.9 886.6,302.8 886.7,300.5 886.9,300.8 887.0,294.9 887.1,294.5 887.3,294.6 887.5,296.8 887.8,297.3 888.0,295.5 888.3,294.3 888.6,296.5 888.7,299.0 889.0,296.7 889.2,295.5 889.5,298.4 889.7,299.5 890.0,298.7 890.1,302.8 890.2,299.4 890.4,302.6 890.7,301.3 890.9,298.6 891.2,297.9 891.5,296.0 891.9,295.6 892.3,295.2 892.5,290.9 892.5,290.0 892.6,289.2 892.9,291.5 893.1,295.5 893.3,293.6 893.7,295.7 893.9,297.2 894.1,297.0 894.3,299.7 894.4,295.7 894.4,295.7 894.6,296.0 894.8,299.1 895.0,295.8 895.2,295.8 895.5,296.1 895.5,298.8 895.5,293.8 895.6,294.4 895.6,293.9 895.7,294.0 895.7,290.6 895.8,293.2 895.9,292.4 895.9,296.2 896.0,296.3 896.1,296.7 896.1,295.3 896.2,293.7 896.3,293.8 896.4,296.3 896.4,299.2 896.5,299.1 896.5,302.2 896.6,303.3 896.6,305.8 896.7,304.3 896.7,301.2 896.7,295.6 896.8,296.7 896.8,294.5 896.9,296.0 897.0,298.1 897.1,298.7 897.3,298.2 897.3,296.8 897.4,296.8 897.6,298.0 897.6,302.9 897.7,302.4 897.7,297.2 897.8,296.3 897.9,295.0 898.0,296.6 898.1,297.9 898.2,299.1 898.4,301.2 898.5,303.7 898.6,302.7 898.7,301.5 898.8,296.9 898.8,296.7 898.9,297.6 899.0,302.3 899.1,301.1 899.3,300.6 899.4,301.3 899.6,301.4 899.7,304.9 899.7,307.2 899.8,311.1 899.8,313.0 899.8,315.6 899.9,318.5 899.9,320.5 899.9,322.6 899.9,322.1 900.0,317.6 900.0,313.3 900.0,315.8 900.1,314.9 900.1,315.3 900.2,314.6 900.3,313.9 900.3,308.2 900.3,303.5 900.4,303.3 900.4,299.0 900.4,300.7 900.5,299.9 900.5,297.9 900.6,296.1 900.6,295.0 900.7,294.5 900.7,292.9 900.8,294.4 900.9,296.0 901.0,293.8 901.0,291.0 901.1,291.9 901.2,295.2 901.3,291.0 901.4,294.2 901.5,295.2 901.7,291.9 901.8,295.6 901.9,299.1 901.9,299.2 902.0,301.3 902.2,301.5 902.2,307.9 902.2,305.0 902.3,304.7 902.3,310.1 902.3,312.8 902.4,310.1 902.4,309.4 902.5,310.6 902.5,311.9 902.5,316.0 902.6,313.2 902.7,309.8 902.8,311.6 902.9,310.5 903.0,311.9 903.1,308.7 903.3,305.1 903.4,303.3 903.5,307.4 903.7,308.3 903.9,306.5 904.2,306.1 904.5,307.1 905.0,306.3 905.5,306.8 906.1,304.6 906.7,304.2 907.3,304.0 907.9,303.6 908.3,305.9 908.8,308.2 909.2,310.0 909.5,304.3 910.1,306.4 910.7,307.4 911.5,305.6 912.2,308.5 912.8,306.2 913.7,307.1 914.0,309.2 914.6,308.7 915.1,310.7 915.2,314.3 915.7,312.4 915.9,314.4 915.9,316.9 916.1,315.9 916.2,319.7 916.3,321.6 916.3,325.4 916.4,322.5 916.4,328.8 916.4,325.3 916.4,329.4 916.5,325.1 916.5,326.1 916.6,322.7 916.6,321.4 916.8,321.2 917.0,320.5 917.2,323.3 917.3,319.3 917.5,318.8 917.8,320.1 918.1,322.2 918.5,320.2 919.0,318.8 919.4,320.7 920.0,322.5 920.4,321.9 920.6,324.1 920.9,323.4 921.1,322.7 921.3,325.3 921.6,324.6 921.9,325.5 922.0,328.6 922.1,327.3 922.3,326.7 922.6,324.6 922.7,329.1 922.8,333.7 922.8,333.5 922.8,332.4 922.9,333.5 922.9,335.8 922.9,338.9 923.0,339.3 923.0,337.4 923.0,344.4 923.0,348.8 923.0,349.2 923.0,350.6 923.0,350.3 923.0,350.4 923.1,352.0 923.1,353.7 923.1,352.6 923.1,357.0 923.1,354.2 923.1,352.5 923.2,354.3 923.2,351.9 923.2,352.6 923.2,353.3 923.2,355.0 923.3,352.9 923.3,354.0 923.3,355.4 923.4,354.0 923.4,353.0 923.4,353.5 923.5,353.3 923.6,349.9 923.6,350.2 923.7,353.4 923.8,348.1 923.8,348.6 923.8,349.8 923.9,348.4 924.0,348.5 924.1,349.9 924.2,348.8 924.3,348.9 924.5,349.9 924.7,349.6 924.8,352.6 924.9,352.6 925.0,354.9 925.0,354.7 925.1,356.5 925.1,359.5 925.1,352.9 925.2,349.5 925.2,352.6 925.2,348.8 925.3,350.0 925.3,353.6 925.4,353.8 925.5,355.9 925.6,354.4 925.7,358.6 925.7,363.7 925.7,361.2 925.7,360.4 925.8,360.4 925.8,363.5 925.8,363.9 925.9,365.5 925.9,369.0 925.9,365.2 926.0,364.9 926.0,363.2 926.1,368.3 926.1,367.1 926.1,370.6 926.1,372.3 926.1,373.2 926.1,375.0 926.2,375.6 926.2,377.1 926.2,387.6 926.2,384.6 926.2,394.1 926.2,386.8 926.2,381.3 926.2,379.4 926.2,380.7 926.2,383.4 926.3,382.2 926.3,382.1 926.3,381.0 926.3,380.2 926.3,383.6 926.4,384.7 926.4,383.8 926.4,383.4 926.5,384.4 926.5,383.4 926.6,384.0 926.6,389.3 926.6,388.1 926.6,391.4 926.6,386.1 926.7,382.0 926.7,386.2 926.7,389.1 926.8,387.4 926.8,384.9 926.9,388.0 926.9,388.0 927.0,385.7 927.1,388.3 927.1,385.8 927.2,388.1 927.2,387.3 927.3,385.8 927.4,387.6 927.4,392.3 927.5,391.4 927.5,392.7 927.5,389.7 927.6,388.9 927.7,388.2 927.7,391.1 927.8,393.5 927.8,398.3 927.8,400.2 927.9,399.0 927.9,402.8 927.9,407.4 927.9,408.5 927.9,405.8 927.9,403.6 927.9,418.7 927.9,416.2 927.9,426.9 927.9,430.6 927.9,423.2 928.0,411.0 928.0,407.9 928.0,407.1 928.0,400.4 928.0,395.6 928.0,396.4 928.0,399.3 928.0,397.7 928.0,395.9 928.0,399.7 928.1,396.2 928.1,398.3 928.1,394.4 928.1,391.8 928.1,390.9 928.2,395.0 928.2,395.0 928.2,393.1 928.3,393.0 928.3,395.6 928.3,395.3 928.4,393.1 928.4,392.3 928.4,389.3 928.4,387.7 928.4,382.2 928.5,385.4 928.5,387.0 928.5,384.6 928.6,380.1 928.6,384.0 928.6,382.7 928.7,386.6 928.8,385.6 928.8,385.3 928.9,392.0 928.9,392.3 928.9,390.7 929.0,394.6 929.0,394.7 929.1,389.9 929.1,391.2 929.2,389.2 929.2,390.4 929.3,391.4 929.4,391.1 929.5,393.9 929.5,391.6 929.6,395.2 929.7,396.9 929.8,394.6 929.8,388.1 929.9,394.2 930.0,396.6 930.0,399.3 930.1,397.6 930.1,399.6 930.2,396.9 930.3,395.9 930.4,397.6 930.5,395.3 930.6,391.8 930.6,393.1 930.7,392.1 930.8,392.2 930.9,388.7 931.0,391.4 931.1,389.1 931.1,386.1 931.2,388.4 931.3,383.8 931.4,385.1 931.5,384.2 931.6,383.7 931.8,383.2 931.9,383.7 932.1,386.0 932.3,383.9 932.7,385.3 932.9,382.6 933.1,381.6 933.2,376.4 933.3,375.0 933.3,371.2 933.3,369.2 933.4,372.8 933.5,375.6 933.6,373.0 933.7,375.3 933.8,377.2 934.0,374.2" fill="none" stroke="#d97706" stroke-width="1.2" stroke-linejoin="round" opacity="0.6"/><text x="942" y="472.0" text-anchor="start" font-size="11" fill="#d97706">2106</text><text x="942" y="396.0" text-anchor="start" font-size="11" fill="#d97706">2385</text><text x="942" y="320.0" text-anchor="start" font-size="11" fill="#d97706">2664</text><text x="942" y="244.0" text-anchor="start" font-size="11" fill="#d97706">2942</text><text x="942" y="168.0" text-anchor="start" font-size="11" fill="#d97706">3221</text><text x="942" y="92.0" text-anchor="start" font-size="11" fill="#d97706">3500</text><text x="942" y="80.0" text-anchor="start" font-size="11" font-weight="600" fill="#d97706">price</text>
  <polygon points="434.9,468.0 434.9,124.5 434.9,121.6 609.9,123.0 880.7,118.7 927.9,116.1 927.9,468.0" fill="#16a34a" fill-opacity="0.08"/>
  <polyline points="434.9,124.5 434.9,121.6 609.9,123.0 880.7,118.7 927.9,116.1" fill="none" stroke="#16a34a" stroke-width="2" stroke-linejoin="round"/>
  <line x1="88" y1="102" x2="110" y2="102" stroke="#16a34a" stroke-width="2.5"/><text x="116" y="106" font-size="11.5" fill="#374151">equity</text><line x1="88" y1="118" x2="110" y2="118" stroke="#d97706" stroke-width="2.5" opacity="0.8"/><text x="116" y="122" font-size="11.5" fill="#374151">price</text>
  <text x="78" y="502" text-anchor="start" font-size="12" fill="#6b7280">2026-01-01</text><text x="934" y="502" text-anchor="end" font-size="12" fill="#6b7280">2026-01-31</text>
</svg>
