<?xml version="1.0" encoding="UTF-8"?>
<svg xmlns="http://www.w3.org/2000/svg" width="1000" height="520" viewBox="0 0 1000 520" font-family="ui-sans-serif, system-ui, sans-serif">
  <rect width="1000" height="520" fill="#ffffff"/>
  <text x="78" y="28" font-size="18" font-weight="700" fill="#111827">Zone Recovery — ARBUSDC best setting (equity / PnL)</text>
  <text x="78" y="48" font-size="12.5" fill="#6b7280">lev 10 · ratio 3 · gap 35% · maxSteps 4 · maxDD 60% · random · vip 9  ·  27 series, 88.9% win · vol $63616446 ($63618978/day) · fees $5382</text>
  <text x="78" y="68" font-size="12.5" font-weight="600" fill="#1d4ed8">USDC · BNB −10% · taker 0.0085%</text>
  <text x="934" y="28" text-anchor="end" font-size="18" font-weight="700" fill="#16a34a">+451539 USDT  (+4515.39%)</text>
  <line x1="78" y1="468.0" x2="934" y2="468.0" stroke="#e5e7eb" stroke-width="1"/><text x="68" y="472.0" text-anchor="end" font-size="12" fill="#6b7280">0.00</text><line x1="78" y1="392.0" x2="934" y2="392.0" stroke="#e5e7eb" stroke-width="1"/><text x="68" y="396.0" text-anchor="end" font-size="12" fill="#6b7280">119609</text><line x1="78" y1="316.0" x2="934" y2="316.0" stroke="#e5e7eb" stroke-width="1"/><text x="68" y="320.0" text-anchor="end" font-size="12" fill="#6b7280">239217</text><line x1="78" y1="240.0" x2="934" y2="240.0" stroke="#e5e7eb" stroke-width="1"/><text x="68" y="244.0" text-anchor="end" font-size="12" fill="#6b7280">358826</text><line x1="78" y1="164.0" x2="934" y2="164.0" stroke="#e5e7eb" stroke-width="1"/><text x="68" y="168.0" text-anchor="end" font-size="12" fill="#6b7280">478434</text><line x1="78" y1="88.0" x2="934" y2="88.0" stroke="#e5e7eb" stroke-width="1"/><text x="68" y="92.0" text-anchor="end" font-size="12" fill="#6b7280">598043</text>
  <line x1="78" y1="461.6" x2="934" y2="461.6" stroke="#9ca3af" stroke-width="1.5" stroke-dasharray="6 4"/><text x="934" y="455.6" text-anchor="end" font-size="11" fill="#6b7280">start 10000</text>
  <polyline points="78.0,127.5 79.5,127.3 81.0,127.2 82.6,127.6 85.6,127.9 86.4,128.3 88.2,127.2 90.0,126.7 91.9,127.8 94.2,126.7 96.6,126.7 99.3,127.2 101.4,125.8 103.4,126.0 106.0,126.8 108.5,126.8 110.2,126.4 112.6,126.9 114.6,126.4 116.8,125.2 117.9,125.8 119.3,125.6 121.6,125.3 124.4,124.9 126.3,125.0 128.5,125.3 130.8,124.8 132.4,125.2 133.9,124.9 136.4,125.5 138.5,126.4 140.4,126.2 143.0,125.8 144.9,125.2 145.8,125.8 148.2,125.6 149.2,125.3 151.0,126.1 152.6,126.7 154.0,127.8 155.9,127.3 157.7,126.7 159.6,126.3 161.1,124.8 162.6,125.3 164.6,125.6 166.3,125.6 168.2,126.3 169.4,126.7 171.3,126.9 173.1,126.6 175.5,126.6 178.0,126.7 179.3,126.1 180.4,126.6 180.9,127.2 181.9,126.8 184.8,127.0 186.7,127.5 187.9,128.6 189.9,128.8 191.5,128.9 192.7,128.2 194.1,127.6 195.6,127.6 197.1,126.3 198.2,125.4 199.3,125.8 200.2,124.9 200.8,124.3 201.5,123.9 201.8,123.0 202.3,121.9 203.0,121.3 203.3,120.9 203.5,120.6 203.9,120.2 204.3,120.2 204.9,119.7 205.3,120.0 205.6,119.8 206.1,119.5 206.7,119.8 207.4,119.2 208.2,119.6 208.9,120.0 209.4,119.0 210.0,118.7 211.0,118.9 212.2,119.1 212.8,118.6 213.4,117.9 214.1,117.4 215.1,118.2 215.8,118.7 216.3,120.0 216.7,119.6 217.4,120.5 217.9,121.6 218.4,121.8 218.9,121.8 219.7,121.0 220.7,121.8 221.2,120.7 221.7,120.7 222.6,120.5 223.4,120.4 224.8,120.3 225.5,119.1 226.7,120.5 227.6,121.2 228.7,120.5 229.7,120.4 230.8,120.7 231.9,121.2 232.9,121.1 233.9,120.7 234.8,120.4 235.9,121.6 237.6,121.4 238.6,121.6 240.3,121.4 241.2,122.5 242.3,123.1 243.1,122.9 244.1,122.7 245.4,122.6 246.8,122.7 248.5,122.3 250.2,122.4 252.7,122.2 255.1,122.1 256.5,121.9 257.8,122.2 259.1,123.2 259.7,123.6 260.7,123.5 261.9,123.4 263.5,123.7 265.2,123.6 266.4,123.3 267.8,122.8 269.2,122.7 270.2,121.8 271.2,121.1 272.1,120.1 273.3,120.7 274.5,121.0 275.2,121.1 275.9,122.6 276.9,122.4 277.9,122.4 279.2,121.8 280.3,121.3 281.6,120.2 283.2,119.3 284.1,118.6 284.9,118.6 285.7,118.4 287.0,118.4 287.9,118.5 288.9,118.0 289.9,118.5 292.4,117.8 293.2,117.9 293.8,117.3 294.5,117.1 295.6,116.7 296.4,117.2 297.4,117.0 298.4,117.8 299.1,117.8 299.6,117.4 300.9,117.6 301.9,118.2 303.6,118.2 304.6,118.5 305.7,118.5 307.4,118.9 308.2,118.8 309.5,119.5 310.1,118.8 311.0,119.5 311.9,119.6 313.0,118.9 313.7,120.3 314.2,120.4 314.8,121.3 315.5,121.3 316.3,120.6 317.1,120.6 318.4,121.7 319.5,121.1 320.1,120.8 321.5,121.8 322.0,122.0 322.4,122.4 323.0,123.0 323.6,122.9 324.9,122.2 325.9,122.3 327.2,122.4 328.3,121.8 329.0,123.0 330.5,122.9 331.7,123.3 333.0,123.8 334.0,122.4 335.0,122.2 336.0,122.1 337.0,122.8 338.0,123.3 338.9,123.2 339.9,122.2 340.9,122.0 342.1,123.1 343.3,122.9 344.6,122.0 345.7,122.2 346.9,123.1 347.9,123.5 348.7,122.6 349.9,122.4 351.3,122.4 352.9,122.0 354.5,122.4 355.2,123.4 356.2,123.2 357.7,123.1 358.6,123.2 360.1,123.3 361.2,123.1 362.8,124.2 364.2,123.7 365.5,123.0 366.5,123.8 367.1,123.7 368.1,123.8 369.2,123.1 370.4,122.5 371.7,122.2 373.3,120.7 374.1,120.5 375.3,120.7 377.2,121.8 378.9,121.3 380.6,120.8 382.2,121.0 383.0,122.2 384.1,122.6 385.0,122.4 386.6,122.2 387.7,122.6 388.7,123.1 389.7,123.0 390.8,122.5 392.3,122.4 393.4,121.5 394.1,121.4 395.3,121.0 396.5,120.7 397.4,120.1 398.0,120.0 399.1,119.6 399.6,120.2 400.0,120.4 400.5,120.9 401.1,121.3 402.1,121.2 403.3,120.9 404.9,120.9 406.2,120.0 407.3,120.1 409.3,120.8 411.3,121.0 413.2,120.5 414.8,119.8 415.4,118.1 416.5,117.7 417.4,118.3 418.6,117.8 419.4,117.6 420.9,117.9 422.6,118.7 423.8,119.4 425.9,118.9 427.1,119.2 428.5,120.2 429.1,121.2 429.8,120.5 430.7,120.8 431.7,120.5 433.1,121.1 434.5,121.0 435.9,120.5 437.0,120.2 438.1,120.1 439.5,119.8 441.3,120.3 443.0,120.6 445.0,120.3 446.1,119.3 447.8,119.4 449.5,120.0 451.7,120.7 453.7,120.5 454.8,120.0 456.1,120.7 457.3,120.3 458.3,120.8 460.3,120.2 461.9,119.5 463.2,119.2 464.4,118.3 465.2,117.9 466.5,118.2 467.9,117.7 469.7,118.3 471.5,118.4 472.8,117.8 474.1,118.2 474.8,118.4 476.1,118.3 477.4,119.0 479.3,119.3 480.9,119.2 482.1,119.3 483.4,120.0 484.7,120.6 486.1,121.0 487.3,120.9 489.1,120.0 490.4,120.0 491.3,120.2 492.8,119.8 494.2,120.7 496.3,121.1 498.4,120.7 500.6,120.3 501.4,119.6 502.7,119.6 504.5,119.7 506.6,120.4 507.9,119.5 509.5,118.7 510.4,119.0 511.8,118.6 512.9,119.9 514.7,119.8 515.9,120.0 517.6,119.3 519.1,119.1 521.4,118.9 522.9,119.2 524.3,119.4 525.4,119.7 526.5,119.2 527.8,118.9 529.0,120.2 530.1,119.8 531.6,119.9 532.8,119.4 534.4,119.8 535.8,119.0 537.4,118.2 539.1,117.8 541.9,118.0 542.9,118.2 543.9,117.5 545.1,117.9 546.5,117.1 547.6,117.6 548.8,118.1 550.1,117.6 551.6,117.9 552.2,117.5 553.5,116.2 554.2,116.0 555.2,116.4 556.3,116.4 557.2,115.7 558.1,115.5 558.8,115.4 559.5,115.8 560.0,116.1 560.3,116.0 560.8,116.2 561.4,116.7 562.2,115.7 562.7,115.5 563.2,116.1 563.5,116.7 563.9,116.2 564.4,115.6 564.9,114.7 565.2,114.2 565.5,114.9 566.0,115.4 566.4,115.2 567.1,114.9 567.6,115.5 568.4,115.7 569.0,115.7 570.0,116.2 570.3,116.2 571.1,117.2 571.6,117.6 572.3,118.6 572.8,118.2 573.4,117.7 573.9,118.6 574.9,118.6 575.9,118.1 576.8,117.4 577.3,117.6 577.8,117.0 578.2,118.7 578.5,118.4 579.2,117.0 579.9,117.0 580.7,116.6 581.6,116.4 582.5,116.7 583.4,117.1 584.1,117.2 584.7,116.7 585.6,117.7 586.4,117.5 587.0,118.2 587.5,118.7 587.9,119.6 588.1,119.8 588.6,119.3 589.3,120.0 589.9,119.7 590.5,119.9 591.0,119.8 591.6,120.4 592.5,120.3 593.3,119.8 594.0,120.4 594.8,121.2 595.4,120.9 596.0,120.1 596.7,120.2 597.5,120.0 598.2,119.5 598.9,120.2 599.9,120.0 601.2,120.4 602.1,120.7 603.0,121.1 603.9,120.3 605.0,120.8 605.9,120.2 606.6,120.0 607.6,119.2 608.2,119.4 609.0,120.1 610.1,120.4 611.1,120.5 611.8,121.8 611.8,123.8 611.8,124.6 611.8,124.0 611.9,122.8 611.9,123.6 612.0,124.5 612.0,124.6 612.0,124.4 612.1,125.1 612.2,125.1 612.2,125.8 612.3,126.9 612.3,125.8 612.4,126.1 612.5,124.9 612.5,125.0 612.6,125.8 612.7,124.5 612.8,124.9 612.9,126.1 613.0,125.8 613.1,125.2 613.2,125.5 613.3,125.7 613.4,126.2 613.6,126.7 613.6,126.9 613.7,126.6 613.8,127.3 614.0,127.3 614.1,127.5 614.2,128.1 614.2,127.7 614.4,129.2 614.4,129.5 614.5,129.6 614.6,128.2 614.8,128.7 614.8,128.3 614.9,127.8 615.0,127.0 615.2,128.1 615.3,128.2 615.4,128.3 615.5,128.7 615.6,129.4 615.6,130.1 615.8,130.1 615.9,129.1 616.0,129.2 616.1,128.9 616.1,129.2 616.2,129.4 616.3,130.2 616.5,129.3 616.6,128.0 616.7,128.4 616.8,129.2 616.9,129.1 617.0,128.0 617.1,126.9 617.2,127.9 617.3,128.3 617.4,128.0 617.6,127.4 617.8,127.2 618.0,127.2 618.2,127.7 618.3,128.2 618.5,127.4 618.7,128.0 618.7,127.9 618.8,127.7 619.0,127.8 619.1,126.7 619.3,126.1 619.5,126.0 619.8,125.2 620.1,124.8 620.2,126.0 620.2,126.8 620.2,127.0 620.4,127.4 620.7,127.5 621.0,127.2 621.2,127.0 621.5,127.1 622.0,127.4 622.2,127.4 622.5,126.9 622.9,127.7 623.1,128.1 623.5,129.2 623.6,129.8 623.7,128.7 623.9,129.6 624.1,129.9 624.3,129.2 624.5,130.2 624.9,130.2 625.0,130.9 625.1,130.3 625.3,131.2 625.5,131.1 625.7,131.8 625.9,132.2 626.0,132.8 626.0,133.8 626.1,132.7 626.2,133.4 626.2,133.6 626.3,132.6 626.5,132.3 626.7,132.0 626.8,132.5 627.0,133.0 627.1,134.2 627.1,134.7 627.2,134.0 627.3,133.2 627.4,134.4 627.4,134.2 627.6,134.0 627.7,135.4 627.8,134.8 627.9,134.4 628.0,135.2 628.2,135.7 628.3,136.1 628.4,134.7 628.5,134.0 628.6,135.1 628.8,135.5 629.0,136.6 629.2,136.2 629.3,134.9 629.5,134.1 629.7,134.0 629.8,134.7 630.0,135.0 630.2,135.4 630.3,136.1 630.5,136.2 630.8,137.0 630.9,137.3 631.1,137.9 631.2,138.8 631.2,139.4 631.3,139.9 631.4,140.6 631.4,140.0 631.5,139.2 631.6,139.8 631.7,142.2 631.7,142.6 631.8,142.8 631.8,141.9 631.8,143.2 631.9,144.1 631.9,143.8 632.0,144.1 632.0,143.2 632.0,142.2 632.1,140.9 632.1,141.3 632.2,141.2 632.3,141.7 632.4,141.9 632.5,141.4 632.5,142.6 632.6,142.4 632.7,141.7 632.7,142.2 632.8,141.6 632.8,142.0 632.9,141.2 633.1,141.9 633.2,141.7 633.2,142.0 633.3,142.8 633.4,143.6 633.4,144.7 633.5,144.2 633.5,143.8 633.6,143.8 633.7,145.7 633.7,145.6 633.7,145.2 633.8,145.4 633.8,143.7 633.8,142.9 633.9,142.8 634.0,142.8 634.1,142.6 634.2,142.0 634.3,142.5 634.4,143.2 634.5,143.0 634.6,142.5 634.7,142.8 634.8,143.8 634.9,142.8 635.0,143.2 635.1,142.5 635.2,141.9 635.3,141.5 635.4,140.5 635.6,140.7 635.7,141.1 635.9,140.4 636.0,141.5 636.1,141.0 636.2,141.8 636.3,141.0 636.4,139.9 636.6,140.3 636.7,140.7 636.8,141.0 636.9,140.8 637.1,141.8 637.2,143.0 637.4,143.2 637.5,142.9 637.6,142.3 637.7,141.5 638.0,140.9 638.2,141.4 638.3,141.2 638.5,140.0 638.7,139.6 639.0,139.1 639.2,138.6 639.5,137.5 639.8,137.0 639.9,138.4 640.1,138.6 640.4,139.2 640.6,138.5 640.8,138.9 640.9,138.5 640.9,138.6 641.1,139.4 641.3,139.8 641.6,140.2 641.7,140.2 641.9,139.9 642.2,139.7 642.3,140.4 642.6,140.1 642.8,139.9 643.1,140.7 643.3,139.7 643.5,140.6 643.7,140.1 643.9,141.0 644.1,140.8 644.3,140.5 644.5,140.7 644.7,140.8 644.9,140.5 645.2,140.7 645.4,140.8 645.7,141.3 645.8,142.2 646.0,142.4 646.2,142.5 646.4,142.6 646.8,142.6 647.1,142.7 647.6,143.0 648.0,141.5 648.4,142.4 648.7,142.7 648.9,143.5 649.1,143.4 649.4,143.4 649.7,143.6 649.9,143.3 650.2,143.8 650.5,144.5 650.6,144.4 650.9,143.5 651.2,144.2 651.5,143.7 651.7,143.0 652.1,141.7 652.3,141.9 652.7,141.5 652.9,141.3 653.3,141.1 653.5,140.9 653.8,139.7 654.2,139.5 654.6,139.8 655.0,140.1 655.4,140.6 655.7,139.9 655.9,140.0 656.2,140.7 656.6,141.1 657.1,140.8 657.6,141.2 657.8,140.9 658.2,141.7 658.5,141.7 658.8,142.0 659.2,142.3 659.7,142.4 660.0,142.5 660.3,141.4 660.7,141.4 661.2,142.0 661.6,141.0 662.1,140.6 662.6,139.4 663.2,139.3 663.6,139.3 664.1,139.0 664.6,138.9 665.1,138.9 665.6,138.4 666.2,139.3 666.9,139.6 667.3,140.4 667.8,139.3 668.5,138.5 668.8,138.3 669.3,138.4 669.7,138.9 670.3,137.7 671.0,137.3 671.9,138.1 672.5,137.7 673.1,138.8 673.6,139.4 674.2,139.5 674.9,140.3 675.5,141.1 676.1,140.9 676.7,140.5 677.7,141.3 678.5,141.9 678.9,141.9 679.6,141.4 680.2,141.2 680.9,141.4 681.4,141.7 681.7,142.1 682.2,141.9 682.6,141.8 683.4,142.3 684.4,142.7 684.8,142.1 685.4,142.3 686.1,142.7 686.9,142.7 687.4,143.6 687.7,143.6 688.2,142.8 688.9,142.9 689.3,142.9 690.0,143.0 690.7,143.3 691.2,143.4 691.5,142.2 692.0,141.9 692.4,142.7 693.0,143.4 693.4,143.1 693.7,142.7 694.2,142.4 694.7,142.8 695.2,142.6 696.0,142.5 696.8,143.5 697.2,143.0 697.6,142.4 698.4,141.1 699.1,141.5 699.9,141.9 700.7,142.1 701.5,141.2 702.3,141.1 703.0,141.2 703.6,141.8 704.3,141.9 704.9,142.2 705.6,142.5 706.0,143.2 706.5,142.6 707.0,143.5 707.8,144.7 708.2,145.0 708.5,145.5 709.0,144.7 709.5,144.6 710.0,145.0 710.7,144.9 711.1,144.8 711.4,145.3 711.7,146.5 711.9,146.5 712.0,147.5 712.1,147.7 712.1,147.1 712.3,147.0 712.3,146.8 712.4,146.8 712.6,146.9 713.0,145.9 713.4,145.4 713.8,146.2 714.2,146.0 714.6,146.0 715.2,146.0 715.6,146.2 716.3,146.1 716.7,146.1 717.2,146.1 717.5,145.4 718.0,146.1 718.6,146.7 719.2,146.1 720.2,147.0 720.5,146.9 720.9,146.9 721.3,146.6 721.8,146.2 722.1,147.0 722.7,146.1 723.2,145.9 723.8,145.5 724.2,146.2 724.4,146.8 725.1,145.5 725.6,146.7 726.5,146.0 727.2,146.3 728.1,146.8 728.7,145.8 729.4,145.5 730.1,145.0 730.8,146.1 731.7,146.3 732.3,145.5 732.7,145.1 733.6,144.3 734.5,144.7 735.4,143.7 736.4,143.8 737.7,145.1 738.5,144.5 739.2,145.0 740.1,143.8 740.8,144.7 741.6,144.9 742.3,145.3 742.9,144.9 743.7,145.7 744.0,146.1 744.2,145.7 744.6,145.0 745.2,145.3 746.1,144.7 746.9,144.9 747.3,144.6 747.9,144.8 748.6,145.8 749.1,146.6 749.4,145.9 749.9,145.8 750.5,145.5 751.0,145.5 751.7,146.1 752.7,145.8 753.6,145.3 754.5,145.9 755.7,146.4 756.1,145.2 756.6,145.6 757.5,145.5 758.6,145.9 758.9,147.1 759.3,147.1 759.6,147.3 760.3,147.1 760.8,148.0 761.1,148.4 761.4,148.2 761.7,148.3 761.9,148.4 762.4,147.4 762.7,148.9 762.8,148.7 763.0,149.2 763.3,148.4 763.8,148.0 764.4,149.0 764.8,149.8 765.0,149.2 765.1,148.1 765.1,147.9 765.2,147.7 765.3,147.6 765.5,147.4 765.6,147.5 765.7,147.5 765.8,147.7 765.9,147.3 766.0,147.1 766.1,147.1 766.4,146.9 766.7,147.4 767.1,147.0 767.5,147.0 767.8,147.3 768.0,148.2 768.2,148.4 768.5,148.5 768.7,149.0 768.8,148.7 769.0,149.7 769.1,149.6 769.3,149.3 769.5,150.1 769.6,150.1 769.8,150.3 770.0,150.0 770.6,148.9 770.9,147.7 771.3,147.3 771.7,148.6 772.1,149.1 772.4,150.0 772.5,150.4 772.8,151.1 772.9,152.0 772.9,150.8 773.0,151.0 773.2,152.1 773.3,153.1 773.3,153.6 773.3,153.6 773.4,154.7 773.4,154.9 773.4,156.1 773.5,157.4 773.5,157.1 773.5,155.2 773.6,155.3 773.6,154.5 773.7,154.0 773.8,154.0 773.9,153.0 774.0,152.8 774.1,152.1 774.2,152.7 774.3,152.8 774.5,152.0 774.7,153.0 774.9,153.2 775.1,152.8 775.2,153.2 775.4,153.8 775.4,154.3 775.5,154.6 775.7,154.9 775.8,155.5 775.9,154.8 776.1,155.3 776.5,154.5 776.7,154.5 777.0,153.6 777.3,153.4 777.6,152.9 778.0,152.5 778.3,152.2 778.6,151.6 778.8,152.2 779.2,152.6 779.5,152.8 779.6,153.0 779.9,153.1 780.2,153.0 780.5,152.5 780.6,151.4 780.7,151.6 781.0,151.9 781.3,151.6 781.8,151.1 782.1,150.5 782.4,150.6 782.7,149.7 783.1,150.4 783.4,151.0 783.9,150.7 784.3,150.0 784.7,150.1 785.2,150.3 785.6,150.6 785.8,151.4 786.2,152.1 786.4,151.7 786.7,152.1 787.3,152.0 787.7,152.5 788.0,153.0 788.4,153.0 788.6,153.0 788.9,152.8 789.3,153.1 789.6,152.7 789.9,152.1 790.2,152.6 790.7,153.3 791.0,153.5 791.2,153.2 791.5,153.1 791.9,153.5 792.3,153.2 792.7,153.8 793.0,153.4 793.5,153.1 794.0,151.8 794.4,152.5 795.0,151.8 795.7,151.9 796.4,152.6 796.9,153.8 797.4,154.0 797.9,152.9 798.5,152.4 798.9,151.8 799.4,152.3 800.3,152.1 801.0,151.7 801.9,152.6 802.7,152.9 803.4,152.9 804.1,152.1 805.0,151.8 805.5,151.1 806.4,151.9 807.2,151.2 808.2,150.9 809.2,150.9 809.8,151.5 810.5,151.6 811.3,152.2 812.0,151.5 812.9,151.6 814.3,151.2 815.5,151.6 817.1,151.4 817.6,151.1 817.9,151.2 818.7,151.0 819.4,150.8 820.0,150.7 820.6,150.6 821.1,151.8 821.2,153.0 821.2,153.9 821.3,154.1 821.3,153.5 821.4,154.5 821.5,154.5 821.7,154.6 821.7,154.0 821.8,153.9 821.9,154.9 822.1,156.0 822.2,155.4 822.3,155.1 822.4,155.9 822.5,156.0 822.6,157.7 822.6,156.6 822.7,158.4 822.8,159.4 822.8,159.9 822.8,160.6 822.8,160.9 822.9,160.0 822.9,159.9 822.9,159.1 823.0,159.4 823.1,158.6 823.2,159.6 823.3,161.3 823.4,162.5 823.4,163.9 823.4,164.1 823.4,163.9 823.5,162.7 823.5,162.3 823.6,161.9 823.6,162.7 823.7,163.1 823.7,163.7 823.8,162.9 823.8,163.6 823.9,162.1 824.0,163.2 824.0,161.9 824.1,161.9 824.1,161.3 824.2,161.6 824.2,162.7 824.3,163.2 824.4,162.7 824.4,163.0 824.5,162.4 824.6,164.7 824.6,165.4 824.6,166.1 824.7,166.9 824.7,166.9 824.7,167.0 824.8,168.1 824.8,169.1 824.8,170.4 824.9,171.9 824.9,174.3 824.9,174.2 824.9,173.4 825.0,173.0 825.0,174.8 825.0,169.9 825.1,170.4 825.1,170.7 825.1,170.3 825.2,170.4 825.2,169.1 825.2,168.9 825.3,169.9 825.3,170.4 825.3,168.8 825.4,168.6 825.4,168.4 825.4,167.9 825.5,169.3 825.5,170.4 825.5,169.6 825.6,168.9 825.6,169.2 825.7,169.9 825.7,169.8 825.8,169.9 825.8,168.8 825.9,168.8 825.9,169.1 826.0,169.4 826.0,170.5 826.1,171.2 826.1,170.9 826.1,169.9 826.2,169.7 826.3,170.5 826.4,172.0 826.4,172.6 826.4,173.8 826.5,172.0 826.5,171.6 826.5,171.7 826.6,172.5 826.6,173.2 826.6,174.3 826.7,175.6 826.7,177.0 826.7,179.0 826.8,180.4 826.8,181.1 826.8,180.7 826.8,180.5 826.8,183.1 826.8,184.2 826.8,185.9 826.9,187.5 826.9,187.5 826.9,188.4 826.9,189.9 826.9,188.4 826.9,186.0 826.9,184.4 826.9,183.0 826.9,182.3 827.0,183.3 827.0,181.8 827.0,182.2 827.1,181.6 827.1,183.6 827.1,182.9 827.1,184.1 827.2,184.1 827.2,183.9 827.2,182.7 827.2,181.0 827.3,180.6 827.3,181.9 827.3,181.6 827.4,182.1 827.4,183.9 827.4,184.9 827.4,183.9 827.5,185.9 827.5,185.4 827.5,184.8 827.5,186.2 827.5,188.4 827.5,190.7 827.5,189.3 827.6,189.3 827.6,190.9 827.6,189.0 827.6,188.7 827.6,188.9 827.6,188.9 827.6,187.0 827.6,186.9 827.7,187.8 827.7,187.3 827.7,187.1 827.7,186.0 827.8,184.1 827.8,183.3 827.8,183.1 827.9,182.4 827.9,182.4 828.0,182.1 828.0,181.8 828.0,181.2 828.1,180.5 828.1,181.3 828.2,181.0 828.2,182.2 828.3,181.6 828.3,180.2 828.4,179.4 828.4,179.4 828.5,180.0 828.6,181.4 828.6,180.6 828.6,180.2 828.7,179.5 828.8,180.6 828.8,179.7 828.8,180.0 828.9,179.5 829.0,178.7 829.0,179.1 829.1,178.7 829.1,179.5 829.1,179.9 829.2,180.9 829.3,180.7 829.3,181.3 829.4,181.7 829.4,181.5 829.5,180.8 829.5,180.8 829.5,180.5 829.6,180.6 829.6,181.6 829.7,180.8 829.7,180.6 829.8,180.8 829.9,179.2 829.9,179.4 830.0,178.8 830.1,178.4 830.1,179.5 830.2,180.5 830.2,180.5 830.3,179.8 830.4,180.4 830.4,181.1 830.5,181.5 830.5,180.7 830.6,180.2 830.6,180.9 830.7,180.6 830.7,179.3 830.8,180.2 830.9,180.5 830.9,181.4 831.0,180.7 831.0,180.9 831.1,181.6 831.1,181.0 831.2,181.0 831.2,180.7 831.3,180.4 831.3,179.5 831.4,179.1 831.5,178.7 831.5,179.9 831.6,180.6 831.6,179.9 831.7,180.6 831.8,180.8 831.8,181.5 831.8,181.2 831.9,181.0 831.9,181.0 832.0,181.3 832.0,182.0 832.1,182.2 832.2,182.1 832.3,182.0 832.3,182.1 832.4,181.3 832.4,180.2 832.5,180.2 832.5,180.6 832.6,180.0 832.6,180.0 832.7,179.2 832.7,178.9 832.8,178.5 832.9,179.4 833.0,179.0 833.1,179.2 833.2,179.6 833.2,180.2 833.3,180.6 833.4,181.4 833.4,181.4 833.5,181.5 833.6,181.0 833.6,181.3 833.7,182.1 833.8,182.0 833.8,182.6 833.9,182.9 834.0,182.5 834.0,183.2 834.1,183.0 834.1,183.8 834.1,183.7 834.2,184.9 834.2,185.0 834.2,184.2 834.2,183.3 834.3,183.7 834.3,184.2 834.3,184.1 834.3,184.9 834.4,185.3 834.4,186.3 834.4,186.7 834.5,187.5 834.5,187.8 834.5,187.8 834.5,190.6 834.6,190.7 834.6,189.0 834.6,188.5 834.6,190.1 834.7,189.9 834.7,191.0 834.7,191.3 834.7,189.6 834.7,191.5 834.7,194.7 834.8,195.2 834.8,195.7 834.8,197.9 834.8,198.7 834.9,200.5 834.9,199.8 834.9,203.4 834.9,205.5 835.0,206.5 835.0,207.8 835.0,210.3 835.0,213.2 835.1,214.1 835.1,213.7 835.1,213.0 835.1,215.2 835.1,212.5 835.1,215.3 835.1,219.0 835.2,218.7 835.2,213.9 835.2,206.8 835.2,206.9 835.3,207.3 835.3,207.4 835.3,208.8 835.3,207.0 835.3,205.7 835.4,203.8 835.4,203.8 835.4,206.0 835.4,204.7 835.4,207.1 835.5,209.0 835.5,211.8 835.5,215.6 835.5,218.8 835.6,218.1 835.6,220.9 835.6,224.0 835.6,228.1 835.7,231.5 835.7,232.6 835.7,236.0 835.7,232.6 835.7,230.8 835.7,227.7 835.8,225.0 835.8,226.1 835.8,225.8 835.8,224.2 835.8,225.5 835.8,222.6 835.8,221.9 835.9,222.8 835.9,219.8 835.9,220.6 835.9,220.1 835.9,216.5 835.9,219.4 836.0,221.1 836.0,220.4 836.0,221.7 836.0,219.5 836.0,217.7 836.0,216.8 836.0,217.6 836.1,216.9 836.1,218.6 836.1,217.6 836.1,217.6 836.1,218.4 836.2,217.8 836.2,217.6 836.2,219.2 836.2,218.6 836.2,219.8 836.3,222.3 836.3,224.5 836.3,226.1 836.3,229.3 836.3,232.4 836.3,230.7 836.3,230.3 836.3,227.6 836.4,225.9 836.4,225.5 836.4,227.0 836.4,226.3 836.4,228.6 836.4,229.1 836.4,226.3 836.5,228.6 836.5,229.5 836.5,231.6 836.5,232.7 836.5,230.3 836.5,231.9 836.5,233.6 836.6,236.3 836.6,239.2 836.6,240.5 836.6,241.6 836.6,245.8 836.6,247.2 836.7,248.9 836.7,250.3 836.7,246.1 836.7,241.1 836.7,247.3 836.7,248.6 836.7,247.2 836.7,246.1 836.7,244.1 836.7,244.6 836.8,245.0 836.8,245.1 836.8,242.7 836.8,243.5 836.8,244.2 836.8,243.7 836.8,246.0 836.9,248.7 836.9,254.2 836.9,255.8 836.9,258.8 836.9,257.4 836.9,255.6 837.0,256.0 837.0,254.4 837.0,254.0 837.0,256.0 837.0,258.3 837.0,262.4 837.1,262.6 837.1,265.1 837.1,262.9 837.1,267.9 837.1,265.8 837.1,270.5 837.1,270.7 837.1,271.0 837.1,273.7 837.2,273.5 837.2,275.1 837.2,275.3 837.2,275.1 837.2,273.0 837.2,271.2 837.2,268.5 837.2,272.1 837.3,267.4 837.3,270.9 837.3,271.1 837.3,270.0 837.3,274.5 837.3,279.7 837.4,283.3 837.4,284.1 837.4,288.0 837.4,294.0 837.4,293.3 837.4,293.6 837.5,290.4 837.5,292.2 837.5,285.4 837.5,286.8 837.5,282.7 837.6,279.3 837.6,278.9 837.6,283.6 837.6,291.2 837.7,275.6 837.7,280.3 837.7,282.8 837.7,285.5 837.7,287.1 837.8,293.1 837.8,293.9 837.8,296.6 837.8,299.5 837.8,298.7 837.8,301.6 837.8,301.3 837.8,302.4 837.9,304.1 837.9,306.4 837.9,306.2 837.9,307.7 837.9,310.0 837.9,312.8 837.9,313.8 837.9,317.6 838.0,317.5 838.0,315.0 838.0,317.2 838.1,323.2 838.1,327.8 838.1,332.9 838.2,341.6 838.2,345.1 838.2,339.4 838.2,347.9 838.2,345.1 838.3,358.5 838.3,349.9 838.3,353.1 838.4,359.1 838.4,367.9 838.4,371.2 838.5,373.4 838.6,379.0 838.6,389.1 838.6,396.1 838.7,399.2 838.7,410.0 838.8,412.0 838.8,412.2 838.9,414.4 838.9,418.0 838.9,420.9 838.9,425.3 839.0,428.0 839.0,430.5 839.0,433.8 839.0,431.3 839.1,433.8 839.1,434.6 839.1,434.8 839.2,437.4 839.2,439.6 839.2,434.2 839.2,433.3 839.2,436.5 839.3,436.5 839.4,434.6 839.5,433.0 839.6,432.1 839.6,430.0 839.6,427.9 839.7,428.6 839.7,431.3 839.7,425.3 839.8,424.5 839.8,421.5 839.9,421.3 839.9,421.3 840.0,419.4 840.0,415.4 840.0,418.3 840.1,415.1 840.1,413.4 840.1,413.1 840.2,411.6 840.2,409.9 840.2,408.8 840.3,406.3 840.3,404.4 840.3,405.4 840.4,403.4 840.4,404.1 840.5,404.6 840.5,400.4 840.6,400.2 840.6,392.2 840.6,392.4 840.6,393.1 840.7,386.1 840.7,383.8 840.7,382.8 840.7,388.1 840.8,384.6 840.8,384.5 840.8,383.0 840.9,382.9 840.9,381.4 840.9,382.1 841.0,380.6 841.0,380.4 841.0,376.2 841.1,379.1 841.1,376.6 841.2,378.8 841.2,378.2 841.2,378.1 841.3,376.7 841.3,374.6 841.3,373.5 841.3,374.5 841.4,372.4 841.4,370.8 841.5,369.7 841.6,366.6 841.6,367.6 841.6,365.8 841.6,362.7 841.7,363.5 841.7,364.0 841.7,365.3 841.7,360.4 841.7,361.2 841.8,364.3 841.8,362.0 841.9,353.7 841.9,354.5 841.9,355.6 842.0,354.6 842.0,352.0 842.0,335.7 842.0,354.2 842.1,352.0 842.1,352.6 842.1,356.5 842.2,359.2 842.2,360.3 842.2,360.8 842.3,359.5 842.3,359.0 842.3,358.5 842.4,356.4 842.5,354.7 842.5,353.3 842.5,350.8 842.6,352.8 842.6,354.6 842.6,355.2 842.7,353.7 842.7,353.2 842.8,353.8 842.8,356.1 842.9,352.1 842.9,352.6 842.9,352.4 842.9,348.2 842.9,349.7 843.0,351.4 843.0,348.3 843.0,349.7 843.1,350.0 843.1,350.8 843.1,351.6 843.1,348.3 843.2,347.5 843.2,348.3 843.3,346.9 843.3,345.8 843.3,344.1 843.3,344.5 843.4,343.0 843.4,340.8 843.4,344.1 843.5,345.8 843.5,343.9 843.5,341.9 843.5,343.0 843.5,344.5 843.6,341.2 843.6,342.8 843.6,341.6 843.7,341.3 843.7,337.1 843.7,338.3 843.8,340.3 843.8,340.5 843.8,340.5 843.8,335.6 843.9,336.5 843.9,336.8 843.9,335.2 844.0,337.4 844.0,337.8 844.0,333.8 844.1,337.0 844.1,338.5 844.1,335.6 844.1,337.8 844.2,333.6 844.2,338.1 844.2,339.1 844.2,334.8 844.3,335.2 844.3,330.0 844.3,336.1 844.3,331.5 844.4,333.8 844.4,332.8 844.4,331.1 844.5,329.3 844.5,330.1 844.5,330.6 844.5,332.3 844.5,332.2 844.6,330.4 844.6,333.1 844.6,331.3 844.6,323.3 844.7,326.2 844.7,327.1 844.7,333.5 844.7,325.3 844.7,323.7 844.8,325.1 844.8,324.1 844.8,324.9 844.8,326.0 844.8,330.4 844.9,327.9 844.9,325.2 844.9,329.5 844.9,327.5 845.0,327.2 845.0,329.8 845.0,329.1 845.1,331.2 845.1,331.7 845.1,327.2 845.1,325.2 845.1,327.5 845.1,327.7 845.2,326.5 845.2,326.4 845.2,329.0 845.3,327.0 845.3,324.2 845.3,328.1 845.3,323.5 845.4,324.9 845.4,327.1 845.4,325.1 845.4,324.7 845.5,327.2 845.5,320.7 845.5,321.4 845.6,321.6 845.6,320.9 845.6,321.3 845.7,318.9 845.7,318.8 845.7,314.7 845.7,319.6 845.7,321.4 845.8,320.9 845.8,319.0 845.8,318.7 845.9,318.5 845.9,320.0 845.9,320.6 846.0,321.8 846.0,322.9 846.0,325.0 846.0,323.0 846.0,325.1 846.1,322.0 846.1,322.7 846.1,319.3 846.1,315.6 846.2,320.1 846.2,317.1 846.2,316.7 846.3,317.2 846.3,318.3 846.3,313.8 846.4,315.9 846.4,309.2 846.4,314.1 846.4,313.4 846.4,310.6 846.4,311.8 846.5,313.0 846.5,313.6 846.5,315.3 846.5,317.6 846.5,316.1 846.6,317.0 846.6,316.3 846.6,316.9 846.7,318.0 846.7,319.9 846.7,318.1 846.7,316.2 846.8,315.1 846.8,314.2 846.8,314.1 846.9,314.0 846.9,316.4 846.9,316.8 846.9,319.1 846.9,315.6 847.0,314.3 847.0,311.9 847.0,313.9 847.1,314.9 847.2,311.2 847.2,306.8 847.3,303.3 847.3,318.1 847.4,312.7 847.5,313.2 847.6,317.9 847.7,313.7 847.8,314.1 847.8,306.9 847.9,317.5 848.0,312.5 848.1,315.7 848.2,313.2 848.2,319.7 848.3,318.3 848.4,305.4 848.4,306.8 848.5,311.4 848.7,312.3 848.8,316.3 848.8,319.7 848.9,313.5 849.0,309.9 849.1,311.8 849.1,312.8 849.2,316.7 849.3,310.9 849.4,313.1 849.4,310.1 849.5,315.3 849.5,316.3 849.5,319.8 849.6,309.2 849.6,318.4 849.7,317.2 849.7,316.0 849.8,326.7 849.8,316.9 849.9,318.7 850.0,319.9 850.1,322.4 850.2,314.8 850.2,317.8 850.3,320.7 850.4,316.0 850.4,316.2 850.5,316.7 850.6,312.6 850.7,309.6 850.8,312.3 850.9,307.6 851.0,308.5 851.1,308.1 851.1,306.6 851.2,305.5 851.3,306.6 851.4,304.6 851.5,304.2 851.6,304.7 851.7,293.8 851.8,300.2 851.9,293.7 851.9,295.7 852.0,302.2 852.1,295.1 852.2,298.6 852.3,305.8 852.3,312.5 852.3,299.0 852.3,302.8 852.5,295.7 852.6,289.7 852.6,291.9 852.7,288.9 852.8,285.8 852.9,277.9 853.0,279.6 853.2,275.0 853.3,278.6 853.4,273.9 853.5,269.3 853.6,277.9 853.7,271.4 853.8,269.1 853.9,268.9 854.0,262.6 854.2,266.8 854.3,266.6 854.4,259.9 854.4,263.9 854.5,265.0 854.7,263.7 854.8,263.8 854.9,260.3 854.9,261.0 855.0,264.5 855.1,261.8 855.2,263.0 855.3,252.8 855.4,257.9 855.5,258.3 855.6,259.1 855.7,264.4 855.7,262.9 855.8,260.7 855.8,262.9 856.0,265.2 856.0,265.1 856.1,267.2 856.2,265.2 856.3,256.0 856.4,256.0 856.5,258.9 856.6,256.3 856.7,260.7 856.8,252.9 856.8,256.0 856.9,258.4 857.0,259.0 857.1,256.0 857.2,256.0 857.3,253.8 857.4,254.9 857.4,254.8 857.5,253.3 857.6,254.8 857.6,256.4 857.6,255.5 857.7,255.0 857.7,249.0 857.7,251.7 857.8,250.9 857.8,250.3 857.9,249.3 857.9,246.4 857.9,246.5 858.0,246.5 858.0,246.6 858.0,246.2 858.1,247.8 858.2,249.2 858.2,249.0 858.3,251.7 858.3,250.5 858.4,248.3 858.5,249.0 858.5,252.2 858.6,246.6 858.6,251.2 858.7,256.0 858.7,252.5 858.8,255.3 858.8,252.6 858.9,255.5 859.0,258.9 859.1,256.7 859.1,255.0 859.2,253.9 859.2,253.6 859.2,254.0 859.3,255.1 859.3,254.1 859.3,256.5 859.4,257.1 859.4,256.5 859.5,255.8 859.5,256.1 859.6,257.0 859.7,257.4 859.7,256.6 859.7,255.5 859.8,254.3 859.8,253.6 859.8,252.1 859.8,249.0 859.8,248.2 859.9,251.4 859.9,250.4 859.9,251.3 859.9,251.6 859.9,252.0 860.0,252.2 860.0,252.9 860.1,253.4 860.1,254.5 860.2,254.1 860.2,247.3 860.3,253.4 860.3,252.9 860.3,254.3 860.4,253.8 860.4,253.3 860.5,252.2 860.5,252.2 860.5,252.7 860.6,251.9 860.6,249.0 860.6,248.6 860.7,251.6 860.7,252.3 860.8,254.1 860.8,251.3 860.9,252.0 860.9,249.8 860.9,248.2 860.9,250.4 860.9,251.3 861.0,251.7 861.0,252.8 861.0,252.8 861.1,253.7 861.2,252.5 861.2,251.6 861.2,252.6 861.2,254.0 861.3,253.9 861.3,253.8 861.4,253.0 861.4,252.9 861.5,253.1 861.5,250.9 861.5,251.1 861.5,251.0 861.6,250.4 861.6,252.5 861.7,253.3 861.7,253.3 861.8,253.2 861.9,254.2 861.9,255.2 862.0,255.5 862.1,256.6 862.1,255.8 862.2,259.1 862.3,260.8 862.3,263.5 862.3,259.4 862.4,258.7 862.5,259.1 862.6,258.9 862.6,260.9 862.7,259.0 862.7,259.2 862.7,260.9 862.7,260.3 862.8,260.0 862.8,260.3 862.8,260.4 862.9,260.1 862.9,259.9 862.9,259.3 862.9,262.2 862.9,260.1 863.0,261.1 863.0,263.6 863.0,263.8 863.1,266.7 863.1,269.5 863.1,268.7 863.1,270.6 863.1,272.3 863.1,271.3 863.1,270.0 863.1,269.0 863.1,267.4 863.2,263.9 863.2,261.4 863.3,263.3 863.3,263.3 863.3,264.7 863.3,263.2 863.4,264.0 863.4,262.8 863.4,264.1 863.5,262.0 863.5,261.4 863.5,262.6 863.6,262.3 863.6,262.5 863.6,262.7 863.6,261.6 863.7,261.1 863.7,261.5 863.7,263.0 863.7,263.8 863.8,262.8 863.9,261.7 863.9,262.1 863.9,262.3 863.9,263.0 863.9,263.3 864.0,264.6 864.0,265.5 864.1,264.4 864.1,264.1 864.1,262.4 864.2,262.6 864.2,265.0 864.3,264.6 864.3,262.9 864.4,262.7 864.4,263.7 864.5,263.0 864.5,264.3 864.6,265.0 864.6,265.9 864.6,266.8 864.7,267.9 864.8,267.5 864.8,267.1 864.8,270.1 864.8,268.0 864.9,267.5 865.0,267.0 865.1,268.5 865.1,267.8 865.2,268.9 865.2,270.8 865.2,269.8 865.3,270.0 865.3,271.8 865.3,273.3 865.4,271.7 865.4,271.4 865.4,270.5 865.4,272.1 865.5,270.5 865.5,270.8 865.5,270.8 865.6,271.7 865.6,272.4 865.7,272.3 865.7,272.8 865.7,273.7 865.8,274.7 865.8,276.6 865.8,277.7 865.9,278.4 865.9,279.5 865.9,280.4 865.9,284.9 866.0,282.9 866.0,285.4 866.0,286.7 866.0,288.8 866.1,285.1 866.1,288.6 866.2,289.2 866.2,290.6 866.3,288.4 866.3,286.3 866.3,283.4 866.3,282.1 866.3,281.7 866.3,281.3 866.4,281.9 866.4,279.6 866.4,279.3 866.5,281.0 866.5,278.5 866.6,279.2 866.6,280.2 866.7,280.5 866.7,279.1 866.8,278.4 866.8,278.1 866.9,279.5 866.9,281.4 866.9,281.3 866.9,277.6 867.0,279.4 867.0,281.0 867.1,278.1 867.1,279.0 867.1,277.9 867.1,277.4 867.2,276.7 867.2,275.8 867.2,276.3 867.3,278.4 867.4,277.1 867.5,277.0 867.5,276.9 867.5,278.9 867.6,277.9 867.6,274.2 867.7,275.5 867.8,273.8 867.8,274.9 867.9,273.1 867.9,272.7 868.0,271.0 868.0,271.6 868.1,270.9 868.1,270.3 868.1,271.6 868.2,270.2 868.2,270.0 868.3,269.5 868.3,269.0 868.4,269.0 868.4,269.6 868.5,270.3 868.6,268.3 868.6,270.2 868.7,271.3 868.7,269.9 868.8,270.2 869.0,271.2 869.0,271.4 869.1,270.7 869.2,271.3 869.2,270.3 869.3,270.0 869.4,271.1 869.5,273.4 869.5,273.6 869.6,273.3 869.6,273.2 869.7,273.9 869.7,271.7 869.8,272.8 869.8,273.8 869.8,271.5 869.9,272.6 869.9,273.1 870.0,274.1 870.0,274.7 870.1,275.1 870.2,274.6 870.3,274.6 870.4,275.6 870.5,275.4 870.6,274.2 870.7,270.8 870.9,271.7 870.9,272.1 871.0,273.5 871.1,272.1 871.1,271.8 871.2,272.5 871.3,271.4 871.4,273.4 871.6,271.3 871.6,273.2 871.7,272.6 871.8,272.6 871.8,271.8 872.0,273.5 872.2,273.2 872.3,270.0 872.4,270.0 872.6,269.2 872.6,268.1 872.8,269.5 872.8,269.2 872.9,270.0 873.0,270.6 873.1,270.7 873.1,272.6 873.2,272.3 873.2,272.2 873.3,271.9 873.4,270.0 873.4,270.0 873.4,270.6 873.5,271.6 873.6,270.6 873.6,269.6 873.7,269.7 873.7,271.2 873.8,271.0 873.8,271.5 873.8,271.6 873.9,271.3 873.9,270.6 874.0,270.9 874.0,271.2 874.0,271.2 874.1,271.3 874.2,273.4 874.2,273.6 874.2,273.7 874.3,273.6 874.3,274.7 874.3,272.3 874.4,271.5 874.4,270.0 874.5,270.7 874.5,270.0 874.6,269.5 874.6,270.0 874.7,270.9 874.7,270.4 874.7,271.5 874.8,271.9 874.8,270.4 874.9,270.6 874.9,270.4 875.0,271.0 875.0,271.1 875.1,271.5 875.2,271.7 875.2,272.4 875.3,272.5 875.3,271.4 875.4,270.8 875.4,271.1 875.5,270.8 875.5,271.2 875.6,271.2 875.7,271.1 875.7,270.3 875.8,270.5 875.9,270.4 876.0,270.6 876.1,270.3 876.2,270.5 876.3,270.0 876.3,269.9 876.4,269.3 876.4,270.2 876.5,271.2 876.6,272.5 876.6,273.7 876.7,274.4 876.7,274.1 876.7,273.2 876.8,273.1 876.8,274.1 876.9,273.1 877.0,272.4 877.0,274.7 877.1,275.4 877.2,274.1 877.2,273.6 877.3,273.7 877.4,271.9 877.5,273.9 877.5,274.1 877.6,273.6 877.7,273.1 877.7,275.4 877.8,274.7 877.8,274.1 877.9,275.4 878.0,275.6 878.1,274.8 878.2,274.5 878.2,275.0 878.3,274.5 878.4,274.5 878.5,274.8 878.5,275.4 878.6,275.6 878.6,275.7 878.7,278.0 878.7,278.4 878.8,277.4 878.9,277.9 879.0,278.8 879.0,278.4 879.1,279.2 879.2,278.8 879.3,278.3 879.3,277.8 879.4,276.9 879.4,276.4 879.5,275.9 879.6,275.3 879.7,274.9 879.8,274.4 879.9,275.0 879.9,275.1 880.0,275.6 880.1,274.9 880.2,274.7 880.2,274.9 880.3,275.5 880.4,275.4 880.5,276.2 880.5,276.6 880.6,276.8 880.6,276.4 880.7,277.1 880.7,277.3 880.8,276.5 880.8,277.5 880.9,277.0 881.0,277.7 881.0,278.4 881.1,279.4 881.1,278.4 881.2,278.0 881.2,278.1 881.3,277.7 881.4,278.8 881.4,278.1 881.5,278.3 881.5,278.6 881.6,277.5 881.7,278.1 881.8,279.7 881.8,280.1 881.9,278.1 881.9,278.9 882.0,279.3 882.1,279.3 882.1,280.3 882.2,281.6 882.3,281.4 882.3,280.3 882.3,280.4 882.4,280.7 882.5,281.8 882.6,281.6 882.6,282.6 882.7,284.4 882.7,284.4 882.8,285.3 882.9,284.9 882.9,283.1 883.0,283.7 883.0,283.8 883.1,284.1 883.2,283.2 883.3,283.8 883.3,283.3 883.4,283.9 883.4,281.9 883.5,282.2 883.6,281.1 883.6,280.5 883.7,281.6 883.7,282.2 883.8,282.0 883.9,281.9 883.9,282.3 884.0,282.1 884.0,282.4 884.1,281.5 884.1,283.7 884.1,282.1 884.2,282.2 884.2,281.8 884.3,281.4 884.4,279.2 884.4,278.2 884.4,278.7 884.5,277.5 884.5,276.5 884.6,276.2 884.6,276.1 884.7,277.4 884.7,277.3 884.7,276.8 884.8,275.6 884.8,275.5 884.9,276.7 884.9,277.9 885.0,278.5 885.0,278.8 885.1,278.1 885.2,278.9 885.3,278.0 885.3,277.5 885.4,278.8 885.5,277.1 885.6,276.3 885.7,275.9 885.7,277.0 885.8,275.5 885.9,274.5 885.9,272.3 885.9,273.1 886.0,271.0 886.0,271.4 886.1,271.8 886.1,272.2 886.2,273.5 886.3,272.9 886.3,272.8 886.4,273.5 886.5,273.3 886.5,273.8 886.6,275.2 886.6,274.7 886.7,274.8 886.8,275.4 886.8,275.3 886.9,275.9 887.0,275.9 887.1,276.6 887.1,279.3 887.1,278.0 887.2,278.0 887.2,278.6 887.3,277.7 887.4,276.7 887.4,276.9 887.5,277.1 887.6,277.1 887.7,277.2 887.8,278.2 887.9,277.6 888.0,278.2 888.1,278.3 888.2,276.7 888.2,277.7 888.3,275.8 888.3,277.0 888.4,274.2 888.4,274.2 888.5,274.9 888.6,273.7 888.6,274.3 888.7,275.6 888.8,274.7 888.9,274.6 889.0,274.7 889.0,275.0 889.0,273.7 889.0,272.9 889.1,274.4 889.1,274.4 889.2,274.4 889.3,274.0 889.4,273.8 889.4,273.7 889.6,272.6 889.7,272.5 889.8,272.9 889.9,273.8 890.0,273.6 890.1,272.4 890.2,273.5 890.3,272.1 890.4,271.2 890.5,270.8 890.6,273.0 890.6,271.9 890.7,270.4 890.8,269.8 890.9,270.0 891.0,269.3 891.1,268.1 891.2,268.2 891.3,267.0 891.4,265.5 891.5,267.0 891.6,268.0 891.7,267.2 891.8,266.8 891.9,267.1 892.0,266.5 892.1,268.5 892.2,269.0 892.3,268.1 892.4,268.5 892.6,267.9 892.7,269.2 892.9,270.7 893.0,270.6 893.1,270.3 893.2,271.2 893.4,270.7 893.5,270.0 893.6,267.9 893.7,267.4 893.8,266.0 893.9,264.5 893.9,265.2 894.0,266.2 894.1,265.1 894.2,266.5 894.3,266.2 894.4,266.9 894.6,266.0 894.6,266.6 894.7,267.0 894.8,268.0 894.9,266.0 895.0,266.4 895.2,265.8 895.3,265.2 895.4,264.8 895.6,263.5 895.7,264.2 895.8,263.7 896.0,263.3 896.1,265.5 896.3,264.8 896.5,264.8 896.6,266.8 896.8,265.1 896.9,264.5 897.0,265.3 897.1,264.3 897.2,264.2 897.3,264.9 897.3,265.2 897.4,263.8 897.6,263.5 897.7,263.1 897.9,262.7 898.0,263.1 898.2,262.3 898.4,261.8 898.5,262.2 898.7,261.7 898.8,261.2 899.0,262.1 899.1,263.7 899.2,264.2 899.4,264.2 899.5,263.0 899.6,263.3 899.8,262.1 899.9,262.4 900.0,262.5 900.1,263.6 900.2,263.1 900.3,263.1 900.4,264.1 900.5,263.2 900.7,263.7 900.8,263.3 901.0,264.1 901.2,263.5 901.4,263.4 901.6,265.0 901.7,263.6 901.8,264.6 902.0,263.8 902.1,265.5 902.2,265.4 902.3,265.3 902.5,264.5 902.7,264.3 902.8,263.4 903.1,262.2 903.1,262.2 903.2,261.1 903.4,261.9 903.5,260.8 903.6,261.0 903.7,261.3 903.8,261.1 903.9,261.0 904.0,260.4 904.1,261.6 904.2,261.4 904.3,261.2 904.3,261.2 904.4,261.4 904.4,262.3 904.4,263.4 904.5,262.6 904.5,262.0 904.6,262.1 904.7,261.8 904.8,263.1 905.0,263.8 905.1,262.1 905.2,263.2 905.3,263.3 905.4,262.7 905.5,261.9 905.5,261.0 905.5,260.6 905.6,260.6 905.7,260.6 905.7,261.7 905.8,261.6 905.8,261.4 905.8,261.1 905.9,260.9 905.9,261.6 906.0,262.4 906.2,261.5 906.4,260.3 906.6,261.3 906.8,259.5 906.9,259.8 907.2,260.0 907.4,260.7 907.6,261.3 907.7,260.6 907.8,259.2 908.0,259.2 908.2,258.0 908.3,256.6 908.5,255.1 908.7,255.7 908.9,255.0 909.2,253.9 909.4,253.6 909.5,254.3 909.7,254.8 909.8,254.1 909.9,254.1 910.0,253.7 910.1,253.9 910.2,253.5 910.3,251.9 910.3,251.3 910.4,251.7 910.6,252.4 910.8,253.2 910.8,252.3 911.0,252.8 911.2,251.6 911.3,251.2 911.5,251.5 911.6,250.8 911.8,250.5 912.0,250.1 912.1,250.5 912.3,250.4 912.4,250.5 912.7,250.5 912.9,250.7 913.0,250.2 913.2,250.5 913.4,249.3 913.5,247.9 913.7,246.9 913.7,246.0 913.8,246.3 914.0,244.8 914.1,244.8 914.1,244.3 914.3,245.1 914.4,245.3 914.4,245.0 914.5,243.4 914.6,243.2 914.6,243.4 914.6,242.7 914.7,242.6 914.7,243.3 914.8,243.9 914.8,243.2 914.9,244.3 915.0,245.1 915.0,246.1 915.1,244.9 915.2,245.0 915.4,244.6 915.5,244.4 915.6,244.1 915.7,244.6 915.9,243.6 916.1,244.4 916.3,244.3 916.5,245.9 916.6,245.6 916.8,245.4 917.0,246.2 917.2,245.9 917.5,245.1 917.7,244.7 917.9,246.4 918.2,245.0 918.3,246.7 918.6,244.2 918.8,243.6 918.9,242.9 919.0,241.7 919.1,241.3 919.3,241.1 919.4,239.8 919.6,240.2 919.7,240.6 919.9,240.7 920.1,241.0 920.3,242.3 920.5,242.3 920.8,241.0 921.0,241.0 921.1,241.2 921.4,240.9 921.6,241.5 921.8,241.7 921.9,241.4 922.1,240.6 922.3,241.7 922.6,240.8 922.8,240.8 923.1,240.3 923.2,239.1 923.4,240.2 923.7,240.1 923.8,239.6 923.8,238.6 923.9,239.0 924.0,240.6 924.0,238.5 924.1,238.7 924.2,238.5 924.2,237.6 924.3,237.2 924.5,238.2 924.6,238.5 924.7,238.0 924.9,237.6 925.1,237.0 925.2,237.0 925.3,238.0 925.5,238.1 925.7,238.2 925.8,238.3 926.0,238.4 926.1,238.3 926.3,238.8 926.3,240.8 926.4,240.7 926.4,244.1 926.5,242.0 926.7,242.8 926.9,242.8 927.1,242.9 927.2,244.7 927.3,244.5 927.4,243.3 927.5,244.2 927.6,245.0 927.6,245.9 927.7,246.4 927.8,247.0 927.9,247.0 928.1,246.7 928.1,246.1 928.4,245.0 928.6,245.6 928.7,245.9 928.9,246.4 929.0,246.3 929.2,245.1 929.3,245.2 929.4,246.4 929.6,247.1 929.8,246.9 930.0,246.3 930.2,246.4 930.4,247.6 930.5,246.9 930.6,246.9 930.8,248.7 931.0,247.0 931.1,246.8 931.2,247.7 931.3,250.1 931.4,250.0 931.6,250.3 931.7,250.0 931.8,250.9 932.0,250.2 932.1,250.6 932.2,249.9 932.4,251.4 932.5,251.6 932.7,249.6 932.9,249.6 933.1,248.3 933.3,248.4 933.4,247.7 933.5,247.5 933.7,248.6 933.9,247.3 934.0,247.9" fill="none" stroke="#d97706" stroke-width="1.2" stroke-linejoin="round" opacity="0.6"/><text x="942" y="472.0" text-anchor="start" font-size="11" fill="#d97706">0.07</text><text x="942" y="396.0" text-anchor="start" font-size="11" fill="#d97706">0.15</text><text x="942" y="320.0" text-anchor="start" font-size="11" fill="#d97706">0.23</text><text x="942" y="244.0" text-anchor="start" font-size="11" fill="#d97706">0.30</text><text x="942" y="168.0" text-anchor="start" font-size="11" fill="#d97706">0.38</text><text x="942" y="92.0" text-anchor="start" font-size="11" fill="#d97706">0.46</text><text x="942" y="80.0" text-anchor="start" font-size="11" font-weight="600" fill="#d97706">price</text>
  <polygon points="631.7,468.0 631.7,461.6 631.7,462.2 826.8,459.9 834.8,460.6 835.7,457.6 835.8,458.6 836.6,459.9 837.1,454.8 837.8,451.1 837.8,452.7 838.1,446.4 838.2,448.5 838.4,440.5 838.5,432.9 838.6,423.1 838.6,427.3 838.7,432.9 838.7,410.7 838.9,394.8 839.1,374.6 839.2,383.3 839.2,394.8 839.7,348.8 839.7,359.9 839.7,374.7 840.1,315.9 840.4,281.0 840.6,246.0 841.0,256.9 841.7,213.5 842.0,224.4 842.0,181.0 842.0,148.4 842.9,159.4 843.0,173.9 843.0,193.4 844.3,116.1 844.3,127.9 844.5,143.5 844.7,164.3 844.7,192.1 844.8,203.8 844.8,219.5 844.8,240.3 844.8,268.1 847.2,233.2 847.3,244.9 851.2,260.5 852.3,281.4 852.3,309.1 852.3,320.9 852.3,336.5 852.9,274.4 856.8,239.4 857.9,250.4 858.3,264.9 865.9,207.0 867.7,217.9 882.6,232.5 885.9,252.0 913.7,174.7 913.7,468.0" fill="#16a34a" fill-opacity="0.08"/>
  <polyline points="631.7,461.6 631.7,462.2 826.8,459.9 834.8,460.6 835.7,457.6 835.8,458.6 836.6,459.9 837.1,454.8 837.8,451.1 837.8,452.7 838.1,446.4 838.2,448.5 838.4,440.5 838.5,432.9 838.6,423.1 838.6,427.3 838.7,432.9 838.7,410.7 838.9,394.8 839.1,374.6 839.2,383.3 839.2,394.8 839.7,348.8 839.7,359.9 839.7,374.7 840.1,315.9 840.4,281.0 840.6,246.0 841.0,256.9 841.7,213.5 842.0,224.4 842.0,181.0 842.0,148.4 842.9,159.4 843.0,173.9 843.0,193.4 844.3,116.1 844.3,127.9 844.5,143.5 844.7,164.3 844.7,192.1 844.8,203.8 844.8,219.5 844.8,240.3 844.8,268.1 847.2,233.2 847.3,244.9 851.2,260.5 852.3,281.4 852.3,309.1 852.3,320.9 852.3,336.5 852.9,274.4 856.8,239.4 857.9,250.4 858.3,264.9 865.9,207.0 867.7,217.9 882.6,232.5 885.9,252.0 913.7,174.7" fill="none" stroke="#16a34a" stroke-width="2" stroke-linejoin="round"/>
  <line x1="88" y1="102" x2="110" y2="102" stroke="#16a34a" stroke-width="2.5"/><text x="116" y="106" font-size="11.5" fill="#374151">equity</text><line x1="88" y1="118" x2="110" y2="118" stroke="#d97706" stroke-width="2.5" opacity="0.8"/><text x="116" y="122" font-size="11.5" fill="#374151">price</text>
  <text x="78" y="502" text-anchor="start" font-size="12" fill="#6b7280">2025-10-10</text><text x="934" y="502" text-anchor="end" font-size="12" fill="#6b7280">2025-10-10</text>
</svg>
