<svg xmlns="http://www.w3.org/2000/svg" width="1100" height="560" font-family="ui-sans-serif, system-ui, sans-serif" viewBox="0 0 1100 560"><rect width="1100" height="560" fill="#fff"/><text x="80" y="28" fill="#111827" font-size="18" font-weight="700">Zone Recovery — ARBUSDC fee-tier comparison (best setting)</text><text x="80" y="48" fill="#6b7280" font-size="12.5">lev 10 · ratio 3 · gap 35% · maxSteps 4 · maxDD 60% · random · equity per fee tier vip 0..9</text><text x="80" y="68" fill="#1d4ed8" font-size="12.5" font-weight="600">USDC margin · BNB −10%</text><line x1="80" x2="932" y1="508" y2="508" stroke="#e5e7eb" stroke-width="1"/><text x="70" y="512" fill="#6b7280" font-size="12" text-anchor="end">0.00</text><line x1="80" x2="932" y1="424" y2="424" stroke="#e5e7eb" stroke-width="1"/><text x="70" y="428" fill="#6b7280" font-size="12" text-anchor="end">119609</text><line x1="80" x2="932" y1="340" y2="340" stroke="#e5e7eb" stroke-width="1"/><text x="70" y="344" fill="#6b7280" font-size="12" text-anchor="end">239217</text><line x1="80" x2="932" y1="256" y2="256" stroke="#e5e7eb" stroke-width="1"/><text x="70" y="260" fill="#6b7280" font-size="12" text-anchor="end">358826</text><line x1="80" x2="932" y1="172" y2="172" stroke="#e5e7eb" stroke-width="1"/><text x="70" y="176" fill="#6b7280" font-size="12" text-anchor="end">478434</text><line x1="80" x2="932" y1="88" y2="88" stroke="#e5e7eb" stroke-width="1"/><text x="70" y="92" fill="#6b7280" font-size="12" text-anchor="end">598043</text><line x1="80" x2="932" y1="501" y2="501" stroke="#9ca3af" stroke-dasharray="6 4" stroke-width="1.5"/><polyline fill="none" stroke="#2563eb" stroke-linejoin="round" stroke-width="1.8" points="80 501 80 501.6 669.5 499.1 693.6 499.9 696.3 496.6 696.5 497.7 698.9 499.1 700.5 493.5 702.6 489.5 702.7 491.3 703.6 484.5 703.7 486.7 704.3 478.1 704.9 469.8 705.2 459.3 705.2 463.9 705.2 470 705.5 446.1 706.1 429 706.7 407.2 706.8 416.8 706.8 429.5 708.4 380.1 708.5 392.2 708.5 408.3 709.5 345.6 710.5 307.1 711.1 268.7 712.4 281 714.4 233.3 715.3 245.6 715.3 197.8 715.3 162 718.1 174.3 718.2 190.6 718.4 212.5 722.3 127.6 722.3 140.8 722.7 158.3 723.5 181.7 723.5 212.9 723.8 226 723.8 243.6 723.8 266.9 723.8 298.1 731.2 259.7 731.2 272.9 743 290.4 746.4 313.8 746.4 345 746.5 358.1 746.5 375.7 748.3 307.4 759.9 269 763.4 281.3 764.5 297.6 787.6 233.9 793.1 246.2 838 262.6 847.8 284.4 932 199.5" opacity=".9"/><polyline fill="none" stroke="#dc2626" stroke-linejoin="round" stroke-width="1.8" points="80 501 80 501.6 669.5 499.1 693.6 499.9 696.3 496.6 696.5 497.7 698.9 499.1 700.5 493.5 702.6 489.5 702.7 491.3 703.6 484.5 703.7 486.7 704.3 478.1 704.9 469.8 705.2 459.3 705.2 463.9 705.2 470 705.5 446.1 706.1 429 706.7 407.2 706.8 416.8 706.8 429.5 708.4 380.1 708.5 392.2 708.5 408.3 709.5 345.6 710.5 307.1 711.1 268.7 712.4 281 714.4 233.3 715.3 245.6 715.3 197.8 715.3 162 718.1 174.3 718.2 190.6 718.4 212.5 722.3 127.6 722.3 140.8 722.7 158.3 723.5 181.7 723.5 212.9 723.8 226 723.8 243.6 723.8 266.9 723.8 298.1 731.2 259.7 731.2 272.9 743 290.4 746.4 313.8 746.4 345 746.5 358.1 746.5 375.7 748.3 307.4 759.9 269 763.4 281.3 764.5 297.6 787.6 233.9 793.1 246.2 838 262.6 847.8 284.4 932 199.5" opacity=".9"/><polyline fill="none" stroke="#16a34a" stroke-linejoin="round" stroke-width="1.8" points="80 501 80 501.6 669.5 499.1 693.6 499.9 696.3 496.6 696.5 497.7 698.9 499.1 700.5 493.5 702.6 489.5 702.7 491.2 703.6 484.4 703.7 486.6 704.3 477.9 704.9 469.6 705.2 459 705.2 463.6 705.2 469.8 705.5 445.7 706.1 428.5 706.7 406.6 706.8 416.1 706.8 428.9 708.4 379.1 708.5 391.2 708.5 407.4 709.5 344.1 710.5 305.6 711.1 267.2 712.4 279.4 714.4 231.6 715.3 243.8 715.3 196 715.3 160.1 718.1 172.3 718.2 188.6 718.4 210.4 722.3 125.4 722.3 138.5 722.7 156 723.5 179.3 723.5 210.3 723.8 223.4 723.8 240.9 723.8 264.2 723.8 295.3 731.2 256.8 731.2 269.9 743 287.4 746.4 310.7 746.4 341.7 746.5 354.8 746.5 372.3 748.3 303.9 759.9 265.5 763.4 277.7 764.5 294 787.6 230.2 793.1 242.4 838 258.7 847.8 280.4 932 195.5" opacity=".9"/><polyline fill="none" stroke="#d97706" stroke-linejoin="round" stroke-width="1.8" points="80 501 80 501.6 669.5 499 693.6 499.9 696.3 496.6 696.5 497.7 698.9 499.1 700.5 493.5 702.6 489.4 702.7 491.2 703.6 484.3 703.7 486.6 704.3 477.8 704.9 469.5 705.2 458.9 705.2 463.5 705.2 469.6 705.5 445.5 706.1 428.2 706.7 406.1 706.8 415.6 706.8 428.4 708.4 378.3 708.5 390.4 708.5 406.7 709.5 342.9 710.5 304.4 711.1 265.9 712.4 278.1 714.4 230.2 715.3 242.4 715.3 194.5 715.3 158.6 718.1 170.8 718.2 187.1 718.4 208.7 722.3 123.6 722.3 136.7 722.7 154.1 723.5 177.3 723.5 208.3 723.8 221.3 723.8 238.8 723.8 262 723.8 292.9 731.2 254.4 731.2 267.5 743 284.9 746.4 308.1 746.4 339.1 746.5 352.2 746.5 369.6 748.3 301.1 759.9 262.6 763.4 274.8 764.5 291 787.6 227.2 793.1 239.4 838 255.6 847.8 277.3 932 192.2" opacity=".9"/><polyline fill="none" stroke="#7c3aed" stroke-linejoin="round" stroke-width="1.8" points="80 501 80 501.6 669.5 499 693.6 499.9 696.3 496.6 696.5 497.6 698.9 499.1 700.5 493.4 702.6 489.4 702.7 491.1 703.6 484.3 703.7 486.5 704.3 477.7 704.9 469.3 705.2 458.6 705.2 463.2 705.2 469.4 705.5 445 706.1 427.6 706.7 405.3 706.8 414.9 706.8 427.7 708.4 377.1 708.5 389.4 708.5 405.6 709.5 341.2 710.5 302.7 711.1 264.1 712.4 276.2 714.4 228.3 715.3 240.4 715.3 192.4 715.3 156.5 718.1 168.6 718.2 184.8 718.4 206.3 722.3 121.1 722.3 134.1 722.7 151.4 723.5 174.6 723.5 205.4 723.8 218.4 723.8 235.7 723.8 258.8 723.8 289.6 731.2 251.1 731.2 264.1 743 281.4 746.4 304.5 746.4 335.4 746.5 348.4 746.5 365.7 748.3 297.1 759.9 258.6 763.4 270.7 764.5 286.8 787.6 222.9 793.1 235 838 251.2 847.8 272.8 932 187.5" opacity=".9"/><polyline fill="none" stroke="#0891b2" stroke-linejoin="round" stroke-width="1.8" points="80 501 80 501.6 669.5 499 693.6 499.9 696.3 496.6 696.5 497.6 698.9 499.1 700.5 493.4 702.6 489.4 702.7 491.1 703.6 484.2 703.7 486.5 704.3 477.7 704.9 469.3 705.2 458.5 705.2 463.2 705.2 469.3 705.5 445 706.1 427.5 706.7 405.2 706.8 414.8 706.8 427.6 708.4 376.9 708.5 389.2 708.5 405.5 709.5 340.9 710.5 302.3 711.1 263.8 712.4 275.9 714.4 227.9 715.3 240 715.3 192.1 715.3 156.1 718.1 168.2 718.2 184.4 718.4 205.9 722.3 120.6 722.3 133.6 722.7 151 723.5 174.1 723.5 204.9 723.8 217.8 723.8 235.2 723.8 258.3 723.8 289.1 731.2 250.5 731.2 263.5 743 280.8 746.4 303.9 746.4 334.7 746.5 347.7 746.5 365 748.3 296.4 759.9 257.8 763.4 270 764.5 286.1 787.6 222.1 793.1 234.3 838 250.4 847.8 272 932 186.7" opacity=".9"/><polyline fill="none" stroke="#db2777" stroke-linejoin="round" stroke-width="1.8" points="80 501 80 501.6 669.5 499 693.6 499.9 696.3 496.6 696.5 497.6 698.9 499 700.5 493.4 702.6 489.4 702.7 491.1 703.6 484.2 703.7 486.4 704.3 477.7 704.9 469.3 705.2 458.5 705.2 463.1 705.2 469.3 705.5 444.9 706.1 427.4 706.7 405.1 706.8 414.7 706.8 427.5 708.4 376.8 708.5 389 708.5 405.3 709.5 340.7 710.5 302.1 711.1 263.5 712.4 275.6 714.4 227.7 715.3 239.8 715.3 191.8 715.3 155.8 718.1 167.9 718.2 184.1 718.4 205.6 722.3 120.3 722.3 133.3 722.7 150.6 723.5 173.7 723.5 204.5 723.8 217.5 723.8 234.8 723.8 257.9 723.8 288.7 731.2 250.1 731.2 263.1 743 280.4 746.4 303.5 746.4 334.2 746.5 347.2 746.5 364.5 748.3 295.9 759.9 257.3 763.4 269.5 764.5 285.6 787.6 221.6 793.1 233.7 838 249.9 847.8 271.4 932 186.1" opacity=".9"/><polyline fill="none" stroke="#65a30d" stroke-linejoin="round" stroke-width="1.8" points="80 501 80 501.6 669.5 499 693.6 499.9 696.3 496.6 696.5 497.6 698.9 499 700.5 493.4 702.6 489.4 702.7 491.1 703.6 484.2 703.7 486.4 704.3 477.6 704.9 469.2 705.2 458.5 705.2 463.1 705.2 469.2 705.5 444.8 706.1 427.3 706.7 405 706.8 414.5 706.8 427.3 708.4 376.6 708.5 388.8 708.5 405.1 709.5 340.4 710.5 301.8 711.1 263.2 712.4 275.3 714.4 227.3 715.3 239.4 715.3 191.4 715.3 155.4 718.1 167.5 718.2 183.7 718.4 205.2 722.3 119.9 722.3 132.8 722.7 150.1 723.5 173.2 723.5 204 723.8 216.9 723.8 234.2 723.8 257.3 723.8 288 731.2 249.4 731.2 262.4 743 279.7 746.4 302.8 746.4 333.5 746.5 346.5 746.5 363.8 748.3 295.2 759.9 256.6 763.4 268.7 764.5 284.8 787.6 220.8 793.1 232.9 838 249.1 847.8 270.6 932 185.3" opacity=".9"/><polyline fill="none" stroke="#475569" stroke-linejoin="round" stroke-width="1.8" points="80 501 80 501.6 669.5 499 693.6 499.9 696.3 496.6 696.5 497.6 698.9 499 700.5 493.4 702.6 489.4 702.7 491.1 703.6 484.2 703.7 486.4 704.3 477.6 704.9 469.2 705.2 458.4 705.2 463 705.2 469.2 705.5 444.8 706.1 427.2 706.7 404.9 706.8 414.5 706.8 427.3 708.4 376.4 708.5 388.7 708.5 405 709.5 340.2 710.5 301.6 711.1 263 712.4 275.1 714.4 227.1 715.3 239.2 715.3 191.2 715.3 155.2 718.1 167.3 718.2 183.4 718.4 204.9 722.3 119.6 722.3 132.5 722.7 149.8 723.5 172.9 723.5 203.6 723.8 216.6 723.8 233.9 723.8 256.9 723.8 287.6 731.2 249 731.2 262 743 279.3 746.4 302.3 746.4 333.1 746.5 346 746.5 363.3 748.3 294.7 759.9 256.1 763.4 268.2 764.5 284.3 787.6 220.3 793.1 232.4 838 248.5 847.8 270 932 184.7" opacity=".9"/><polyline fill="none" stroke="#ea580c" stroke-linejoin="round" stroke-width="1.8" points="80 501 80 501.6 669.5 499 693.6 499.9 696.3 496.6 696.5 497.6 698.9 499 700.5 493.4 702.6 489.3 702.7 491.1 703.6 484.2 703.7 486.4 704.3 477.6 704.9 469.2 705.2 458.4 705.2 463 705.2 469.2 705.5 444.7 706.1 427.1 706.7 404.7 706.8 414.3 706.8 427.1 708.4 376.2 708.5 388.5 708.5 404.8 709.5 339.9 710.5 301.3 711.1 262.7 712.4 274.7 714.4 226.7 715.3 238.8 715.3 190.8 715.3 154.8 718.1 166.9 718.2 183 718.4 204.5 722.3 119.1 722.3 132.1 722.7 149.3 723.5 172.4 723.5 203.1 723.8 216 723.8 233.3 723.8 256.4 723.8 287.1 731.2 248.4 731.2 261.4 743 278.7 746.4 301.7 746.4 332.4 746.5 345.4 746.5 362.7 748.3 294 759.9 255.4 763.4 267.5 764.5 283.6 787.6 219.5 793.1 231.6 838 247.7 847.8 269.2 932 183.9" opacity=".9"/><line x1="950" x2="972" y1="94" y2="94" stroke="#ea580c" stroke-width="3"/><text x="980" y="98" fill="#374151" font-size="12.5">vip 9 461539</text><line x1="950" x2="972" y1="116" y2="116" stroke="#475569" stroke-width="3"/><text x="980" y="120" fill="#374151" font-size="12.5">vip 8 460365</text><line x1="950" x2="972" y1="138" y2="138" stroke="#65a30d" stroke-width="3"/><text x="980" y="142" fill="#374151" font-size="12.5">vip 7 459559</text><line x1="950" x2="972" y1="160" y2="160" stroke="#db2777" stroke-width="3"/><text x="980" y="164" fill="#374151" font-size="12.5">vip 6 458313</text><line x1="950" x2="972" y1="182" y2="182" stroke="#0891b2" stroke-width="3"/><text x="980" y="186" fill="#374151" font-size="12.5">vip 5 457507</text><line x1="950" x2="972" y1="204" y2="204" stroke="#7c3aed" stroke-width="3"/><text x="980" y="208" fill="#374151" font-size="12.5">vip 4 456336</text><line x1="950" x2="972" y1="226" y2="226" stroke="#d97706" stroke-width="3"/><text x="980" y="230" fill="#374151" font-size="12.5">vip 3 449688</text><line x1="950" x2="972" y1="248" y2="248" stroke="#16a34a" stroke-width="3"/><text x="980" y="252" fill="#374151" font-size="12.5">vip 2 445025</text><line x1="950" x2="972" y1="270" y2="270" stroke="#2563eb" stroke-width="3"/><text x="980" y="274" fill="#374151" font-size="12.5">vip 0 439212</text><line x1="950" x2="972" y1="292" y2="292" stroke="#dc2626" stroke-width="3"/><text x="980" y="296" fill="#374151" font-size="12.5">vip 1 439212</text><text x="80" y="542" fill="#6b7280" font-size="12" text-anchor="start">2025-10-10</text><text x="932" y="542" fill="#6b7280" font-size="12" text-anchor="end">2025-10-10</text></svg>