<svg xmlns="http://www.w3.org/2000/svg" width="1000" height="520" font-family="ui-sans-serif, system-ui, sans-serif" viewBox="0 0 1000 520"><rect width="1000" height="520" fill="#fff"/><text x="78" y="28" fill="#111827" font-size="18" font-weight="700">Zone Recovery — GHSTUSDT best setting (equity / PnL)</text><text x="78" y="48" fill="#6b7280" font-size="12.5">lev 3 · ratio 2 · gap 20% · maxSteps 4 · maxDD 20% · random · vip 9 · 6 series, 100.0% win · vol $1676257 ($311846/day) · fees $256.47</text><text x="78" y="68" fill="#1d4ed8" font-size="12.5" font-weight="600">USDT · BNB −10% · taker 0.0153%</text><text x="934" y="28" fill="#16a34a" font-size="18" font-weight="700" text-anchor="end">+49016 USDT (+0.05%)</text><line x1="78" x2="934" y1="468" y2="468" stroke="#e5e7eb" stroke-width="1"/><text x="68" y="472" fill="#6b7280" font-size="12" text-anchor="end">0.00</text><line x1="78" x2="934" y1="392" y2="392" stroke="#e5e7eb" stroke-width="1"/><text x="68" y="396" fill="#6b7280" font-size="12" text-anchor="end">21613099</text><line x1="78" x2="934" y1="316" y2="316" stroke="#e5e7eb" stroke-width="1"/><text x="68" y="320" fill="#6b7280" font-size="12" text-anchor="end">43226199</text><line x1="78" x2="934" y1="240" y2="240" stroke="#e5e7eb" stroke-width="1"/><text x="68" y="244" fill="#6b7280" font-size="12" text-anchor="end">64839298</text><line x1="78" x2="934" y1="164" y2="164" stroke="#e5e7eb" stroke-width="1"/><text x="68" y="168" fill="#6b7280" font-size="12" text-anchor="end">86452397</text><line x1="78" x2="934" y1="88" y2="88" stroke="#e5e7eb" stroke-width="1"/><text x="68" y="92" fill="#6b7280" font-size="12" text-anchor="end">108065497</text><line x1="78" x2="934" y1="116.4" y2="116.4" stroke="#9ca3af" stroke-dasharray="6 4" stroke-width="1.5"/><text x="934" y="110.4" fill="#6b7280" font-size="11" text-anchor="end">start 100000000</text><polyline fill="none" stroke="#d97706" stroke-linejoin="round" stroke-width="1.2" points="78 144.1 78.2 142 78.3 141.1 78.6 141.5 78.6 140.3 78.9 140.3 79.2 136.9 79.4 138.2 79.7 137.3 79.9 139 80.3 136.5 80.7 139.4 81.3 137.8 81.6 138.6 82.1 140.7 82.4 139.9 83.2 140.7 83.8 139.9 84 137.8 84.5 138.2 84.8 138.6 84.9 139.4 85.1 139.9 85.4 142.8 85.9 142.4 86.4 144.1 86.7 145.3 87.3 144.1 87.9 141.1 88.3 142 88.8 142.4 89.3 142 89.8 141.1 90.3 138.6 90.9 137.3 91.4 136.9 91.6 138.2 92 137.8 92.3 136.5 92.7 136.5 93.2 137.3 93.7 137.8 94.3 140.3 94.6 140.7 95 138.6 95.4 136.5 95.9 136.1 96.5 136.1 96.7 134 96.9 133.6 97.1 134.4 97.3 135.2 97.7 136.5 98.1 135.2 98.3 136.5 98.6 136.9 98.9 135.2 99.3 133.1 99.7 134.8 100 134.8 100.4 134.8 101 135.2 101.4 136.9 101.6 136.1 102 135.2 102.7 135.7 103.3 134.8 104 134.8 104.7 135.2 105 134.8 105.4 132.7 106.1 131.4 106.9 131 107.5 132.7 108 132.7 108.4 132.3 108.8 131.4 109.5 130.2 110.1 130.6 110.6 131.4 111.4 131.9 111.6 131.9 111.9 133.1 112.4 131.4 112.5 131.9 113 131.4 113.4 131.9 113.9 131 114.5 129.8 115.2 130.2 115.6 131.9 116.4 133.1 116.8 133.6 117.5 133.6 118 131.9 118.2 129.8 118.6 131 119.1 130.2 119.6 130.2 120.1 131 120.8 131.4 121.4 131.9 122 134 122.2 132.7 123 134.8 123.3 132.7 123.8 132.3 124.6 132.3 124.8 132.3 125.3 132.3 125.8 133.1 126.2 133.6 126.7 132.3 127.4 133.6 128.1 133.6 128.7 132.3 129 127.7 129.6 128.5 130.1 128.9 130.6 129.3 131.1 131.9 131.4 131 131.9 131.4 132.5 131 133 131.9 133.4 131.4 133.7 131 134.4 132.7 134.8 131 135.3 128.1 135.7 127.2 136.1 120.9 136.3 127.2 136.7 128.1 137.1 128.5 137.8 128.1 138 128.1 138.4 127.2 138.8 128.1 139.3 127.7 139.7 129.8 140.3 130.2 140.8 132.3 141.4 129.3 142.3 128.1 142.9 126.4 143.5 126.4 143.9 124.3 144.4 123.9 144.7 123.5 144.9 124.3 145.4 124.3 145.9 123.9 146.3 124.7 146.9 126.4 147.4 126.8 148 126.8 148.3 132.7 148.7 132.7 149.1 133.6 149.6 135.7 150.1 133.1 150.7 135.7 151.2 133.6 151.4 132.7 151.8 132.7 152.3 131.9 152.8 133.1 153.2 133.1 153.9 133.1 154.4 132.7 154.9 131 155.1 129.3 155.6 129.3 156.2 128.9 156.7 130.2 157.2 129.8 157.7 131 157.9 130.6 158 131 158.4 131.4 158.9 131.9 159.4 131 159.8 128.5 160.4 132.7 161.2 130.6 161.7 127.2 162.3 128.9 162.7 129.8 163.1 129.3 163.6 129.3 164.4 127.7 164.6 124.7 164.7 124.7 165.2 124.7 165.7 123.9 166.1 123.9 166.6 123.9 167.2 124.3 167.7 123 167.9 118.4 168.1 119.7 168.1 119.3 168.4 120.9 168.5 119.3 168.7 118 168.8 120.9 169.3 122.2 169.6 122.6 170.1 126 170.5 124.3 170.9 125.1 171.2 123.9 171.5 124.3 171.9 124.3 172.3 126.4 172.7 127.7 173.3 127.2 173.8 127.7 174.2 131 174.7 130.6 175 133.6 175.3 134.4 175.6 128.9 175.9 127.2 176.2 131.9 176.4 126.8 176.6 122.6 176.9 126.4 177.5 127.7 177.8 129.8 178.1 132.7 178.8 134 179.1 136.5 179.4 138.2 179.5 139.4 179.7 140.3 180 140.3 180.3 141.5 180.5 141.5 180.9 143.6 181.1 144.5 181.3 144.5 181.4 143.6 181.6 145.3 181.8 145.3 182 143.2 182.3 143.2 182.6 144.1 182.9 141.5 182.9 139.9 183.3 139.4 183.8 139.9 184 139.9 184.3 140.3 184.5 143.2 184.7 142.8 184.8 136.1 184.9 139 185.4 140.7 185.8 139 186 138.6 186.4 142.8 186.8 138.2 187.1 136.5 187.3 136.5 187.7 137.8 188 138.6 188.4 139.4 188.9 142.4 189.4 140.7 189.9 140.3 190.4 139.9 190.8 139.9 191.1 140.3 191.5 139.4 191.8 138.6 192.2 139 192.7 139.4 193.1 140.7 193.6 142.4 194.2 142.8 194.4 143.6 194.7 144.1 194.9 144.1 195.1 144.1 195.4 142.8 195.9 144.5 196.1 144.1 196.6 142.8 196.9 140.7 197.3 141.5 197.6 139.9 197.8 135.7 197.9 136.5 198.2 137.3 198.4 133.6 198.7 136.1 199.1 133.6 199.4 134.4 199.7 132.7 199.9 133.6 200.3 136.5 200.8 135.2 201.2 136.1 201.6 138.6 202.1 137.8 202.6 137.3 202.9 137.8 203.2 137.8 203.5 138.2 203.9 138.6 204.2 137.8 204.5 137.3 204.8 140.3 205.4 139 205.8 139.4 206.1 138.6 206.4 137.3 206.8 136.9 206.9 132.7 207.3 135.7 207.8 134 208.2 135.7 208.5 136.5 209.1 136.9 209.4 142.4 209.7 140.7 210.1 141.1 210.7 140.7 211 140.3 211.3 141.1 211.7 142 212 141.1 212.4 144.5 212.6 143.6 212.9 144.1 213.4 144.1 213.7 147 214.2 145.7 214.7 141.1 215 137.3 215.4 137.3 216 139.9 216.5 141.1 217.2 142 217.6 143.2 217.9 144.5 218.3 147.8 218.6 144.5 219.1 145.3 219.6 145.7 220.4 146.2 220.9 144.1 221.3 142.4 221.7 142.8 222.2 142.4 222.6 143.2 223 144.1 223.6 145.7 223.8 145.7 224.2 144.9 224.4 144.1 224.8 145.3 225.2 141.1 225.4 139 225.7 141.1 226 141.1 226.7 147.8 227.1 144.5 227.5 140.3 228 140.3 228.4 140.7 229.2 142 229.6 142.8 230.3 143.2 230.8 145.3 231 145.7 231.3 151.6 231.5 155.4 231.7 158.8 232 155 232.1 146.6 232.4 152.5 232.6 147.4 232.8 152.1 233.2 151.2 233.5 145.7 233.9 147 234.2 148.3 234.4 143.6 234.6 141.1 234.9 142 235.4 143.6 236 147.8 236.5 147.4 236.9 148.7 237.4 149.5 237.6 151.6 237.8 150.4 238.2 146.2 238.6 146.6 238.8 144.1 239.1 144.1 239.3 144.1 239.5 143.6 239.9 143.2 240.3 141.5 240.8 139.9 241.1 143.2 241.6 140.7 242.4 140.7 243.1 142.4 243.9 144.1 244.2 142 244.3 140.7 244.8 144.9 245.3 148.3 245.7 149.5 245.8 144.1 246 141.5 246.5 137.8 246.8 135.7 247.1 134.4 247.4 137.8 247.8 136.9 248.1 137.8 248.6 137.8 249.1 136.9 249.7 136.5 250.4 137.8 250.8 139.4 251.2 141.1 251.7 141.5 252.2 138.6 252.5 141.1 252.7 141.1 253 142 253.6 140.7 254.2 139.4 254.6 143.2 255.1 141.1 255.7 144.9 256.5 144.9 257.1 144.9 257.5 144.9 257.8 147.8 258.1 147 258.6 149.1 259 152.1 259.2 150.8 259.4 153.3 259.7 157.9 259.8 155.4 260.1 157.9 260.3 157.5 260.6 161.3 260.7 161.7 260.9 156.7 261.1 162.1 261.3 162.6 261.6 164.2 261.7 163 262 161.7 262.3 159.6 262.5 155.4 262.6 149.5 262.7 146.2 262.8 149.5 263.1 144.5 263.4 144.1 263.9 146.2 264.1 147 264.4 149.5 264.8 148.7 265.3 152.9 265.7 148.3 265.9 149.1 266 145.7 266.2 149.5 266.4 144.5 266.7 140.7 266.8 140.3 267.3 139.4 267.5 140.7 267.6 140.7 267.9 141.1 268.1 142.4 268.7 144.1 269.2 145.3 269.6 144.9 270.1 148.7 270.6 148.3 270.7 149.1 271.2 149.1 271.7 152.1 272.3 153.3 272.7 154.6 273.3 155 273.4 158.4 273.9 157.5 274 156.3 274.2 157.9 274.5 160.5 274.7 159.6 275.1 157.5 275.6 155 275.9 154.6 276.1 152.5 276.4 153.7 276.8 155.4 277.2 153.3 277.4 154.6 277.5 153.3 277.7 153.7 278.1 150.8 278.5 153.3 278.9 150 279.1 150.4 279.5 149.5 279.9 155 280.5 152.5 280.8 153.3 281.1 158.4 281.3 160.5 281.7 157.1 281.8 144.1 281.9 143.6 282.1 149.5 282.4 147 282.8 147 283.3 147.4 283.6 147.4 283.9 147.8 284 148.3 284.2 146.2 284.5 144.9 284.9 144.9 285.5 146.6 285.7 147 286 145.7 286.6 148.3 287.2 147.4 287.5 147.8 287.9 147.4 288.2 147.8 288.6 145.7 289 144.5 289.5 145.7 289.9 146.2 290.5 146.2 290.8 146.2 291.1 144.9 291.5 143.6 292.1 143.6 292.4 143.2 292.9 144.9 293.4 146.2 293.8 145.3 294.3 144.5 294.8 144.1 295.5 146.2 296.1 146.2 296.8 146.2 297 148.7 297 154.2 297 155.4 297 154.6 297.1 163 297.1 158.8 297.1 160.9 297.1 161.7 297.1 164.2 297.2 162.6 297.2 161.3 297.2 167.2 297.2 173.5 297.2 171.4 297.2 175.2 297.2 180.2 297.2 176.9 297.3 177.3 297.3 183.6 297.3 184.4 297.3 186.1 297.3 184.4 297.3 184 297.3 190.7 297.3 192.4 297.3 195.4 297.3 198.7 297.3 202.1 297.3 204.2 297.3 210.9 297.3 213.4 297.3 213 297.3 209.7 297.4 213 297.4 216 297.4 219.8 297.4 221.4 297.4 220.2 297.4 226.1 297.4 231.5 297.4 237.8 297.4 242.9 297.4 248.8 297.4 249.2 297.4 250.5 297.4 261.8 297.4 251.7 297.4 256.8 297.4 254.7 297.4 254.7 297.4 260.5 297.4 263.9 297.4 269.8 297.4 271.5 297.4 271.1 297.4 267.3 297.4 253.4 297.4 240.8 297.4 239.9 297.4 248.8 297.4 242.5 297.4 242.9 297.4 243.3 297.5 237.4 297.5 240.8 297.5 240.8 297.5 237.4 297.5 231.1 297.5 229 297.5 237.4 297.5 229 297.5 226.1 297.5 229.4 297.5 227.3 297.5 224.4 297.5 226.9 297.5 233.2 297.5 232.8 297.5 232.8 297.6 236.2 297.6 236.6 297.6 235.7 297.6 234.9 297.6 231.5 297.6 235.3 297.6 234.5 297.6 236.6 297.6 228.6 297.7 228.6 297.7 221 297.7 221.9 297.7 227.7 297.7 223.5 297.8 219.3 297.8 218.1 297.8 210.1 297.8 212.6 297.8 207.6 297.9 208 297.9 211.8 297.9 216.8 297.9 215.6 298 207.1 298 200.8 298 206.7 298 201.7 298 198.7 298 198.3 298 197.9 298 210.9 298 207.1 298.1 203.8 298.1 215.6 298.1 218.5 298.1 216 298.1 218.5 298.1 223.1 298.1 224.8 298.2 228.2 298.2 229 298.2 233.2 298.2 233.6 298.3 236.6 298.3 236.6 298.3 238.7 298.3 243.7 298.3 250.5 298.3 257.6 298.3 256.3 298.3 266.9 298.3 268.1 298.4 265.2 298.4 266 298.4 268.1 298.4 271.1 298.4 263.5 298.4 266 298.4 266.9 298.4 271.9 298.4 274 298.4 275.7 298.4 276.9 298.4 276.9 298.5 282 298.5 282.4 298.5 282.8 298.5 284.1 298.5 275.7 298.5 272.3 298.6 266.4 298.6 263.5 298.6 269.4 298.6 258 298.6 273.6 298.6 272.3 298.6 274 298.6 285.4 298.6 288.7 298.7 291.7 298.7 290.4 298.7 283.7 298.7 273.2 298.7 270.2 298.7 265.6 298.8 263.9 298.8 263.1 298.8 261 298.8 264.8 298.8 274.8 298.9 271.5 298.9 272.3 298.9 269.8 299 268.5 299 264.3 299 261.8 299 271.1 299 274 299.1 271.1 299.1 271.5 299.1 280.7 299.1 273.2 299.1 263.9 299.1 261.8 299.1 260.1 299.2 259.3 299.2 270.2 299.2 279.1 299.2 276.5 299.2 271.9 299.3 273.6 299.3 275.3 299.4 274.4 299.4 274.4 299.4 270.2 299.4 282 299.5 284.5 299.5 286.2 299.5 282 299.5 285.8 299.6 283.3 299.6 282 299.6 287 299.7 286.6 299.7 284.9 299.7 281.2 299.8 266.9 299.8 268.5 299.8 269.4 299.8 269 299.9 269 299.9 269 299.9 269.4 300 272.3 300 272.7 300 275.7 300.1 273.6 300.1 275.3 300.2 278.2 300.2 283.3 300.2 289.6 300.2 289.6 300.3 287.9 300.3 279.1 300.3 277.8 300.3 277.8 300.4 280.3 300.4 279.5 300.5 269.8 300.5 263.1 300.5 265.6 300.5 269 300.5 274.4 300.5 275.7 300.6 276.1 300.6 275.3 300.6 276.1 300.7 279.5 300.7 280.3 300.7 286.2 300.8 287.9 300.8 288.3 300.8 291.2 300.8 292.9 300.9 288.3 300.9 287.9 301 290 301 289.6 301.1 288.3 301.1 289.6 301.2 291.2 301.3 296.3 301.3 298.4 301.3 299.2 301.3 304.3 301.3 303.4 301.3 306.4 301.3 303.9 301.3 306 301.4 306.4 301.4 306 301.4 306.8 301.5 307.6 301.6 308.1 301.6 308.1 301.6 303.9 301.6 297.1 301.6 296.7 301.6 296.3 301.7 294.6 301.7 294.6 301.8 301.8 301.8 297.1 301.9 301.8 301.9 300.9 301.9 300.1 302 298.8 302.1 299.2 302.1 299.7 302.2 303 302.3 299.7 302.3 298.8 302.4 300.9 302.4 305.5 302.4 305.1 302.5 305.1 302.5 306 302.6 302.6 302.6 299.7 302.7 298.8 302.7 301.8 302.8 298 302.8 296.7 302.9 292.1 302.9 291.2 303 289.6 303 283.3 303 285.8 303 286.6 303.1 289.1 303.1 287.5 303.2 288.7 303.2 289.1 303.3 290 303.3 287.5 303.4 295 303.4 295.9 303.5 296.3 303.5 297.6 303.5 293.8 303.5 295.5 303.6 294.6 303.6 297.6 303.7 292.9 303.7 288.7 303.8 287.5 303.8 294.2 303.8 296.7 303.8 297.1 303.9 299.2 303.9 297.1 303.9 291.7 303.9 290.8 304 290.8 304 292.5 304 299.2 304.1 300.9 304.1 300.5 304.2 301.8 304.2 303.4 304.3 303 304.3 303.4 304.4 303.4 304.4 305.5 304.4 310.6 304.4 314.4 304.4 312.7 304.5 304.3 304.5 303.9 304.5 301.8 304.6 298.8 304.7 300.1 304.7 301.3 304.8 303 304.9 304.7 304.9 300.1 304.9 302.2 305 303 305 303.4 305.1 308.1 305.1 312.3 305.1 307.6 305.1 308.1 305.2 311.4 305.2 311.9 305.3 316.5 305.3 313.1 305.4 313.5 305.4 310.6 305.5 308.9 305.6 314 305.6 313.1 305.7 317.3 305.7 314 305.8 307.6 305.8 305.5 305.8 300.1 305.8 301.3 305.9 298.8 305.9 298.4 305.9 294.2 305.9 291.7 306 290.4 306.1 288.7 306.1 287.5 306.2 289.1 306.2 284.5 306.3 289.6 306.3 292.1 306.4 293.3 306.4 286.2 306.5 287 306.6 288.3 306.7 284.1 306.7 282.8 306.7 275.3 306.7 276.9 306.8 274.4 306.8 279.9 306.9 279.1 307 279.9 307.1 279.5 307.1 273.6 307.1 268.5 307.2 271.9 307.2 276.5 307.3 273.2 307.3 279.1 307.4 276.1 307.4 276.9 307.5 281.2 307.5 284.1 307.6 284.1 307.6 287 307.7 285.8 307.9 284.5 308 285.8 308.1 279.5 308.1 277.4 308.1 275.3 308.2 276.5 308.3 271.9 308.3 275.3 308.4 271.9 308.4 274.8 308.6 277.4 308.7 277.4 308.8 280.3 308.9 282.4 309 281.6 309.1 278.6 309.1 279.5 309.2 281.6 309.3 290.4 309.3 285.8 309.3 276.1 309.3 280.3 309.4 283.3 309.5 281.2 309.6 282.4 309.8 283.3 310 284.5 310.2 287 310.3 281.6 310.4 284.9 310.5 286.2 310.6 285.8 310.6 287 310.7 287 310.8 285.4 311 285.8 311 283.7 311.1 287 311.3 290.4 311.4 290 311.6 291.7 311.7 287.5 311.8 289.1 312 290.4 312.1 290.8 312.2 288.3 312.3 289.6 312.4 291.2 312.6 293.3 312.8 290 313.1 293.3 313.2 288.7 313.5 290.4 313.8 289.1 313.9 287.5 314.1 287.5 314.2 285.4 314.3 285.8 314.4 282.4 314.6 282.8 314.8 282 314.9 283.3 315 279.5 315.1 280.3 315.3 282.8 315.5 285.8 315.7 281.2 315.8 284.1 316.1 284.1 316.3 284.1 316.3 284.5 316.7 288.3 316.9 286.2 317.1 286.6 317.2 285.4 317.4 283.7 317.5 286.6 317.6 285.4 317.9 284.9 318.1 286.6 318.3 286.6 318.4 282 318.5 281.2 318.7 282.8 318.9 281.6 319 280.7 319.1 283.7 319.3 282.4 319.5 281.2 319.7 281.6 320.1 280.3 320.3 279.9 320.5 280.7 320.7 283.7 320.8 284.9 320.9 287.5 321.1 287.5 321.2 287 321.3 283.7 321.4 284.9 321.7 288.3 321.9 287.9 322.2 289.6 322.3 287 322.4 289.1 322.6 290.4 322.8 289.6 323.1 287.9 323.2 289.1 323.3 284.9 323.4 286.2 323.5 282 323.6 279.1 323.6 277.8 323.7 279.5 323.8 279.9 323.9 278.6 324 281.6 324.1 281.6 324.3 283.3 324.4 283.7 324.8 282 324.9 281.2 325.1 284.1 325.3 282.4 325.5 279.9 325.6 281.6 325.8 282 325.9 282 325.9 284.9 326.1 283.7 326.5 282.8 326.8 282.4 327.1 284.9 327.4 285.4 327.5 287 327.8 284.1 328 282 328.3 281.6 328.5 275.3 328.7 276.5 328.9 277.8 329.2 275.7 329.4 276.9 329.6 274.8 329.7 276.5 329.8 278.2 330 277.4 330.2 275.7 330.4 274.8 330.6 276.1 330.7 277.4 331 277.8 331.3 280.7 331.4 284.1 331.6 279.5 331.8 279.5 332 279.9 332.3 280.7 332.5 280.3 332.7 278.2 333.1 276.9 333.2 274.8 333.5 274.8 333.6 274 333.8 274.8 333.9 277.8 334.1 274.4 334.2 273.2 334.3 273.6 334.4 271.1 334.5 271.9 334.5 267.3 334.5 265.6 334.6 262.7 334.6 263.5 334.7 269.8 334.8 271.9 335 273.2 335.2 275.3 335.4 277.4 335.4 279.1 335.6 276.1 335.7 277.8 335.8 276.1 335.9 274 336.1 275.7 336.4 276.1 336.7 279.1 337 277.8 337.2 278.2 337.3 279.9 337.5 282.4 337.7 282.8 338 283.7 338.2 284.9 338.4 284.9 338.6 285.8 338.9 285.4 339 284.1 339.2 284.1 339.5 282.8 339.7 283.7 340 285.4 340.1 286.2 340.4 284.5 340.6 286.6 340.8 287.5 341 286.2 341.2 285.8 341.4 285.8 341.6 285.8 341.9 284.9 342 284.5 342.2 283.7 342.3 286.6 342.3 303 342.3 293.8 342.3 290 342.4 290.8 342.4 289.6 342.6 290.4 342.7 289.6 342.8 281.2 342.9 283.7 343 281.2 343.2 281.2 343.3 281.6 343.4 281.2 343.5 281.2 343.6 281.2 343.7 282 343.9 289.6 344 286.6 344.2 287.9 344.4 283.7 344.6 283.3 344.7 282 344.9 281.2 345.1 282.8 345.4 283.7 345.6 281.2 345.7 281.2 346 281.6 346.2 280.3 346.2 284.9 346.3 285.8 346.3 287.5 346.3 289.1 346.4 287 346.7 290 346.9 287 347.2 285.8 347.4 286.6 347.5 286.2 347.7 285.4 348 288.7 348.3 288.7 348.6 292.1 348.7 290.4 348.9 292.1 349.1 293.8 349.2 296.7 349.4 295.9 349.5 293.3 349.7 294.6 349.9 292.1 350.1 295 350.2 290 350.3 290 350.6 290.8 350.7 289.1 350.9 292.5 351.3 290.4 351.5 289.6 351.7 287 352 286.2 352.1 287.5 352.3 286.2 352.6 285.4 352.7 284.5 352.8 284.5 353.2 285.4 353.6 284.5 353.9 283.7 354.1 287 354.5 286.2 355 285.4 355.4 282.4 355.7 282.8 356 282.4 356.3 282.4 356.6 284.9 356.8 281.2 357 284.1 357.2 281.2 357.4 279.9 357.6 280.3 357.9 282 358.3 280.3 358.6 281.2 358.9 280.7 359.1 281.6 359.4 279.1 359.7 280.3 360 281.6 360.1 284.1 360.3 280.3 360.5 278.2 360.7 277.8 360.9 276.1 361.1 274.8 361.3 274.4 361.6 271.5 361.9 274.4 362.1 274 362.3 276.5 362.6 273.6 363 274.4 363.3 273.6 363.5 270.2 363.8 271.1 364 271.9 364.1 272.7 364.4 272.7 364.7 273.6 364.9 273.6 365.3 274.8 365.4 273.6 365.6 275.7 365.9 274.8 366.4 276.5 366.8 276.1 367 273.6 367.4 274.8 367.7 274 368.1 272.3 368.5 276.5 368.8 273.6 369.1 274.8 369.5 276.1 369.9 275.3 370 277.4 370.3 277.4 370.5 277.4 370.8 277.4 371 278.6 371.1 281.6 371.5 282.4 371.9 281.6 372.2 282 372.7 281.2 373.3 282 373.5 281.6 374 279.9 374.4 282 374.7 280.3 375 278.2 375.5 279.5 375.7 279.1 376 278.6 376.3 277.4 376.4 277.8 376.7 276.1 377 275.3 377.3 273.6 377.6 271.5 377.7 273.2 377.8 275.7 377.9 273.2 378 271.9 378.2 270.6 378.4 271.1 378.6 270.6 378.9 271.5 379.1 270.2 379.4 271.1 379.7 268.5 379.8 268.1 380 269.8 380.2 268.1 380.6 266.9 380.8 265.6 380.9 264.3 381.1 262.2 381.2 261.8 381.4 263.9 381.5 267.3 381.7 271.1 381.9 267.7 382.2 266.4 382.7 268.5 383.2 267.3 383.5 266 383.7 268.1 383.9 269.8 384.4 267.3 385.1 267.3 385.4 267.7 385.7 267.7 386.2 265.6 386.7 262.7 387.1 263.1 387.4 262.2 387.6 258.4 387.9 262.2 388.3 260.5 388.5 260.5 388.9 261.8 389.3 263.5 389.8 263.1 390.1 262.2 390.4 263.5 390.6 265.2 391 262.2 391.4 261 391.7 261.8 392.1 261 392.5 261.8 392.8 263.9 393.2 261.4 393.7 260.1 393.9 258.4 394.3 260.5 394.7 260.1 395.1 261.4 395.4 261.8 395.8 262.7 396.1 262.7 396.4 261.4 396.6 263.1 396.7 266 396.9 265.6 397.1 266.4 397.3 263.5 397.6 263.9 398.1 263.5 398.4 262.7 398.7 263.5 399 263.5 399.5 265.2 399.9 267.3 400.5 269.8 400.9 270.2 401.1 270.2 401.6 272.7 401.7 270.2 402.1 271.1 402.3 272.3 402.7 274.8 403.1 271.9 403.3 270.6 403.4 273.2 403.5 275.3 403.6 277.4 403.7 279.9 403.9 282 404.1 282.4 404.2 281.2 404.6 281.6 404.9 279.9 405.1 279.5 405.4 279.5 405.7 277.8 406.1 277.8 406.7 279.1 406.9 284.9 407 284.5 407.4 284.1 407.7 284.9 408.2 284.5 408.6 284.1 408.9 282.8 409.5 283.3 409.9 281.2 410.1 281.6 410.5 281.2 410.8 282.4 411 283.3 411.5 284.1 411.9 286.2 412.1 285.8 412.5 285.8 413 287.5 413.4 287 413.7 287 414.3 287.9 415 286.6 415.2 288.3 415.6 285.8 416.4 287.5 416.7 288.7 417 287.9 417.5 287 418 287.5 418.4 288.7 418.7 291.2 419.2 287.9 419.8 286.6 420.3 284.9 420.7 283.7 421.1 281.6 421.6 281.6 422.1 281.6 422.3 277.8 422.6 279.1 422.8 276.9 423 278.2 423.3 280.3 423.5 280.7 423.7 278.2 424.3 277.8 424.8 278.6 425.2 279.9 425.8 281.2 426.7 280.3 427.2 280.7 427.2 282 427.5 279.9 428.1 279.1 428.5 279.9 429.2 279.5 429.6 279.1 429.9 280.3 430.1 280.7 430.3 280.3 430.5 280.7 430.6 282.8 431 282 431.3 282.8 431.7 285.8 431.9 284.9 432.3 283.3 432.7 284.5 433.2 283.3 433.4 280.3 433.6 278.6 433.7 273.2 433.8 274 433.9 274 434 267.7 434.1 266.4 434.3 266 434.4 263.5 434.5 262.7 434.6 266 434.9 267.3 434.9 264.3 435 264.3 435 266 435.1 261 435.1 261 435.2 262.2 435.4 262.7 435.6 262.2 435.8 266.9 436.1 266.4 436.3 269 436.4 269.4 436.6 271.9 436.7 271.1 436.8 270.6 436.8 264.8 436.9 267.3 437 269 437.1 270.6 437.2 271.9 437.3 270.6 437.5 270.2 437.8 272.3 438 276.1 438.1 275.7 438.4 277.8 438.5 275.7 438.8 277.4 438.9 281.2 439.1 282.8 439.3 283.3 439.6 280.3 440 282.4 440.2 284.5 440.5 280.7 440.9 282.4 441.3 285.8 441.6 286.6 441.9 286.2 442.3 284.5 442.7 284.5 443 283.7 443.1 282 443.2 282 443.2 279.1 443.4 282 443.6 283.7 443.9 284.5 444.1 284.5 444.4 285.4 444.7 282 444.7 279.5 444.8 281.2 445 281.6 445.2 281.6 445.5 284.5 445.7 284.9 446 286.2 446.4 286.2 446.5 286.6 446.8 286.2 447 287.5 447.2 284.5 447.7 285.4 448.5 284.1 448.8 285.4 449.3 283.7 449.8 284.9 449.9 282.4 450.2 281.2 450.5 281.6 450.9 282.8 451.4 284.1 451.7 284.5 452.2 285.4 452.4 278.6 452.4 280.7 452.7 281.2 453 280.7 453.4 282.8 453.8 280.7 454.1 283.7 454.2 284.9 454.4 290 454.6 288.7 454.8 290 455 291.7 455.2 291.2 455.6 290 456.1 291.7 456.5 289.6 456.7 287.5 456.8 282.8 456.9 280.3 457.2 281.2 457.2 279.5 457.3 279.9 457.4 280.3 457.5 282.8 457.8 285.8 458 286.2 458.1 286.6 458.2 282.8 458.7 284.1 459.5 284.5 459.9 283.7 460.4 283.7 460.8 285.4 461.5 287.9 461.8 289.6 462.3 289.6 462.7 290.8 463 290 463.1 290 463.2 285.4 463.3 284.9 463.4 282.4 463.8 280.7 464.1 279.9 464.3 279.5 465 280.3 465.5 275.3 465.5 275.3 465.6 279.5 466.1 279.1 466.5 278.2 466.8 279.1 467.3 278.2 467.4 272.7 467.6 275.3 468.1 276.9 468.4 271.9 468.4 271.1 468.6 270.6 468.8 269.8 469.1 269.8 469.2 269.8 469.4 270.2 469.6 270.6 469.8 272.7 470 273.2 470.4 275.7 470.6 276.9 470.9 278.2 471.2 279.5 471.5 280.7 471.6 284.5 471.9 284.9 472.2 286.2 472.6 286.6 473 289.1 473.1 290.8 473.3 292.5 473.5 290.4 473.8 288.3 474.1 292.1 474.4 292.9 474.6 294.2 474.7 293.3 475 292.5 475.2 293.3 475.3 292.9 475.8 292.1 476.2 292.9 476.4 292.1 476.5 292.5 476.9 291.7 477.3 289.6 477.7 289.1 478.2 287 479 287 479.7 285.4 480.2 285.4 480.6 282.8 481 282.4 481.5 281.2 481.9 280.7 482.2 279.9 482.6 280.3 483.1 278.2 483.3 283.3 483.6 282.4 484.2 280.7 484.7 281.2 485.1 281.2 486 280.7 486.4 280.3 486.7 276.9 486.7 273.2 486.9 274 487.1 273.2 487.6 273.2 488.1 272.7 488.4 272.3 488.9 273.6 489.3 275.3 489.5 277.8 489.8 275.3 490.1 274.8 490.5 272.7 491.2 272.7 491.3 267.3 491.3 271.9 491.6 272.7 491.9 269.4 492.2 268.5 492.6 268.1 492.9 270.6 493.2 271.5 493.7 271.9 494 273.6 494.2 275.7 494.3 276.1 494.5 274.4 494.8 274.4 495.1 277.8 495.2 279.9 495.6 283.7 495.8 286.6 495.8 287.5 496.1 287.9 496.3 287.5 496.5 284.9 496.6 285.4 496.9 286.2 497.5 288.7 497.7 290 498 289.6 498.3 288.7 498.7 288.3 499 284.1 499 282.8 499.2 281.2 499.6 283.7 500 283.7 500.3 281.2 500.6 285.4 501.3 284.1 501.5 280.3 501.7 279.5 502.1 280.7 502.5 282.4 502.9 284.1 503.2 284.1 503.5 285.8 504 287.9 504.6 292.9 504.9 290.4 505.5 292.9 506 291.2 506.2 294.6 506.4 292.9 506.7 292.5 507.2 292.9 507.8 293.8 508.2 292.1 509.2 293.3 509.6 293.8 510 294.2 510.2 295.5 510.7 296.3 511.1 297.1 511.3 296.3 511.9 295 512.6 292.9 513.5 294.6 514.2 296.7 514.8 296.3 515.2 295.9 515.7 298.4 515.7 298.8 516.1 297.1 516.5 299.7 516.8 305.5 516.8 326.1 516.8 312.7 516.8 304.7 516.8 315.2 516.8 322.4 516.8 318.2 516.8 312.3 516.8 306.8 516.9 307.2 517.1 307.6 517.3 308.5 517.6 306.4 518 306.8 518.2 309.3 518.4 309.3 518.7 311.4 519.1 311 519.4 309.7 519.8 310.6 520 311 520.4 310.6 520.8 313.5 521.1 313.5 521.2 313.5 521.4 316.1 521.6 316.9 521.7 318.2 521.8 319.8 522.1 316.1 522.3 324.5 522.5 319.8 522.7 319 523 317.3 523.3 314 523.4 315.2 523.7 312.7 523.9 311.4 524.1 308.1 524.3 309.3 524.4 310.2 524.6 308.1 524.8 303.4 524.8 304.3 525.1 306.8 525.6 307.2 526.2 303 526.4 303.9 526.8 305.1 527.4 306 527.9 311.4 528.2 308.5 528.4 311 529 308.5 529.5 307.6 530 309.3 530.5 305.5 531.3 303.4 531.9 303 532.4 298.8 532.7 296.7 532.7 287.9 532.8 295.9 533.2 293.8 533.6 293.3 533.8 293.3 534.3 293.3 534.7 294.6 535.1 294.6 535.7 294.2 536.1 292.5 536.5 291.7 537 290 537.6 289.6 537.9 293.3 538.2 294.2 538.8 293.3 539.4 293.8 540.1 295.5 540.9 293.8 541.5 294.6 542.1 295.5 542.8 294.6 543.5 297.1 543.8 296.3 544.2 300.5 544.8 298.8 545.3 301.8 546.3 301.3 547 301.8 547.7 305.1 548.1 306.4 548.7 306.4 549.3 306.4 549.6 308.9 550.2 306.8 550.8 305.1 551.3 307.2 552 307.2 552.8 308.9 553.3 308.5 554 309.3 554.4 311.4 554.9 309.7 555.6 309.3 555.9 312.3 556.3 311.9 556.6 313.5 557.4 312.7 557.7 313.5 558.3 313.1 559 313.1 559.5 312.7 560.3 312.3 560.9 312.3 561.7 313.5 562.4 314.4 562.7 309.3 563 307.2 563.7 305.1 564.4 303.9 565.1 302.6 566 302.6 566.7 301.3 567.7 303 568.7 303.4 569.2 303.9 570 303.4 570.8 303 571.6 303 572.9 303.4 574.1 303 574.7 303 574.9 298.4 575.4 300.1 576.1 298.4 576.9 297.1 577.8 295.9 578.6 294.6 579.3 296.3 579.9 294.2 580.5 295.5 581.4 295 582.1 294.6 582.7 294.6 584.1 292.9 584.8 292.5 585.8 293.8 586.4 292.5 587.6 293.3 587.9 291.2 588.7 292.5 589.3 292.9 590.2 292.9 591.3 294.2 592.5 294.2 593.8 295.5 594.5 294.6 595.5 297.1 596 296.3 596.9 295.5 597 297.1 597.7 298.8 598.1 299.2 598.4 298.4 599.2 300.5 599.7 298.4 600.2 297.1 601.1 297.6 601.9 300.1 602.3 300.1 602.7 301.8 603.5 301.8 604.3 299.2 605.1 298.8 605.6 300.5 606.6 298 608.2 298.4 608.6 298.8 609.2 300.1 609.8 300.1 610.6 300.5 610.9 298.8 611.7 301.8 612.7 300.9 613.9 300.9 615 301.3 615.9 302.6 616 303.4 616.3 303 616.9 303.4 617.7 303.4 618.9 303 619.5 306 620.6 303.9 620.8 303.9 621 299.7 621.1 299.2 621.5 302.2 622.3 304.3 623 303.9 624.2 302.6 625.3 300.9 626.3 301.3 627.4 300.5 627.7 302.6 628.6 300.5 629 300.1 629.3 300.9 629.8 303 630.2 303 630.7 301.8 631.2 300.9 631.4 300.5 631.8 300.9 632.7 300.1 633.1 302.6 634 304.7 634.1 306 634.5 308.1 634.6 306.4 634.9 306 635.1 307.6 635.6 306.4 635.7 306.4 636.1 304.7 636.3 303.4 636.6 303.9 636.9 303.4 637.2 302.2 637.5 299.2 637.9 298.8 638.6 300.5 639.2 298.4 639.5 297.6 640 297.6 640.5 298.8 641 297.6 641.7 296.7 642.2 298.8 643.5 297.6 644.6 300.1 645.6 300.5 645.9 301.8 647.1 303 647.6 306 648.4 306 649 305.5 649.8 306 650.7 303.9 651 304.3 651.7 306.4 652.3 308.9 652.6 307.2 653 303.9 653.5 303.9 654.1 303.4 654.7 305.5 655.4 309.3 655.8 306.4 656.3 305.5 657 305.5 657.6 306.8 658.2 306 659 309.7 659.4 313.1 659.5 312.7 659.7 311 660.2 309.7 660.9 309.7 661.6 311.4 662.2 310.2 662.6 306 663.1 308.9 663.5 307.6 664 310.6 664.5 310.6 665 311 666 314.4 666.6 315.2 667.4 316.1 668 315.6 668.4 307.2 668.4 295.9 668.4 273.2 668.4 280.3 668.4 283.7 668.4 300.9 668.4 306 668.4 294.2 668.4 306 668.4 311 668.4 319.8 668.4 317.3 668.4 322.8 668.4 325.3 668.4 326.1 668.4 322.4 668.4 321.1 668.4 319.4 668.5 319.8 668.5 318.2 668.5 314 668.5 312.3 668.5 311.9 668.6 311.4 668.8 315.6 668.9 318.2 668.9 317.7 669.3 316.9 669.7 319 670 319.4 670.2 318.6 670.4 321.1 670.8 321.1 671 329.9 671.4 324 671.5 327.4 671.7 327 672 325.3 672.5 323.6 672.6 323.2 673 325.3 673.3 323.2 673.7 321.5 674 322.4 674.6 321.9 675 322.8 675.3 323.6 675.6 324 676.2 324.9 676.6 325.7 677.1 327.4 677.8 327.4 678.3 324.5 678.6 321.9 679.3 321.1 679.6 319.8 679.9 314.4 680.2 315.6 680.6 316.9 681.1 315.6 681.7 317.3 682.2 316.5 682.6 315.2 683 315.6 683.9 315.2 684.2 317.3 685 318.2 685.9 317.7 686.3 316.5 687.1 313.1 687.7 313.1 688.1 309.7 688.4 310.2 688.8 310.6 689.2 312.3 689.9 313.5 690.8 310.6 691.9 311 693.6 311.4 695.4 310.2 695.9 312.3 696.4 310.6 697.4 312.7 698.5 314.8 699.2 316.5 700.3 317.7 700.6 317.3 701.5 317.3 702.1 317.7 702.5 320.7 703.2 321.5 703.7 315.6 704.3 311.4 704.8 308.9 705.5 309.7 706.2 312.7 706.9 318.6 707.5 316.5 708.6 318.6 709.2 316.1 710.3 316.1 710.7 315.6 711.6 312.3 712.4 309.7 712.9 312.3 714.2 313.1 714.9 315.2 715.3 318.2 715.7 317.3 716.4 318.6 717 319 717.3 316.5 717.7 317.7 718.9 318.2 720 317.3 721.3 318.2 722.2 319 723.3 316.5 724 321.1 724.7 317.7 725.3 314 726.1 315.6 726.8 314.8 727.5 317.3 728.7 318.2 729.2 319.4 730 321.5 730.2 319.8 730.5 318.2 730.7 317.3 731.6 316.9 732.3 314.4 733.2 315.6 733.5 319 734.1 319 734.9 321.1 735.6 320.7 736.1 319.8 736.7 323.2 736.9 323.6 737.1 321.9 737.4 321.1 738.2 322.4 739 324 739.2 324.5 739.9 325.7 740.5 324 740.9 325.7 740.9 329.1 741 328.7 741 328.7 741 330.4 741.1 329.5 741.2 329.5 741.6 329.1 741.9 327.4 742.2 328.3 742.4 331.6 742.6 330.4 743 329.9 743.3 332.5 743.5 332 744 331.2 744.5 332.5 744.6 333.7 744.9 332.5 745.5 334.1 745.6 333.3 745.9 332.5 746.2 330.8 746.3 328.3 746.4 327 746.5 327.8 746.7 329.9 746.9 329.1 747.3 329.5 748.3 331.2 748.9 332.5 749.8 329.9 750.3 332.5 750.6 335.4 750.9 337.1 751.1 336.2 751.4 334.6 751.9 335 752.2 334.6 752.5 332.5 752.8 331.2 753.1 326.6 753.2 327.8 753.7 329.5 754.1 331.6 754.5 331.2 755.3 332.5 755.6 332 755.9 335 756.3 334.6 756.9 336.2 757.9 335.4 758.5 327.8 758.5 329.5 758.7 328.7 758.8 326.6 759 330.4 759.4 329.1 759.8 328.3 760.1 326.1 760.3 327.8 761.1 328.3 761.4 331.2 761.5 333.7 761.8 329.9 761.9 332 762.5 331.2 763.5 328.3 763.9 320.3 764 327 764.5 327.4 765.1 327 765.5 325.7 765.9 327.8 766.3 329.5 766.8 328.7 767.7 327.8 767.8 326.1 768.2 327.4 768.4 323.2 768.6 325.3 769 322.8 769.6 321.5 770.2 321.9 770.9 323.6 771.5 324.5 772 324 772.6 323.6 773.1 323.6 773.4 324.9 773.7 326.6 774.2 327 774.5 327.4 774.9 327 775.1 320.7 775.3 325.7 775.7 323.6 776 322.4 776.2 322.8 776.4 322.8 777 321.5 777.8 322.4 778.8 323.6 779.3 324.5 779.6 328.3 779.7 327.8 780 328.3 780.4 326.6 780.9 321.9 781.1 319.8 781.3 320.3 781.4 318.2 781.4 319.8 781.6 317.7 781.9 318.2 781.9 315.2 782 317.3 782.3 315.6 782.4 310.2 782.5 313.5 782.6 314 782.8 310.6 782.9 308.5 783.1 310.2 783.2 309.7 783.5 309.7 783.7 309.3 784 306.4 784.3 308.1 784.8 306.4 785 308.5 785.6 309.7 785.8 311.4 786.3 313.1 786.7 314 787.2 314.8 787.4 312.3 787.5 319.4 787.6 316.9 787.8 316.1 787.9 315.6 788.1 315.2 788.2 314 788.4 311.9 788.7 314.8 789.4 314.8 789.9 316.5 790 321.9 790.2 321.1 790.2 323.2 790.3 323.2 790.3 319.4 790.5 322.8 790.6 324.5 790.8 323.2 791.1 321.5 791.5 320.7 791.9 319 792.3 314.8 792.7 312.7 793.2 315.6 794 319 794.8 320.7 795.4 322.4 796 321.9 796.3 327.8 796.4 326.6 796.7 326.1 797.2 324.5 797.7 324.5 798.3 326.1 798.7 328.7 798.7 325.7 799.3 326.6 800.2 324.5 800.9 325.3 801.2 328.7 801.5 327.8 801.7 328.3 802.2 325.3 803 328.3 803.8 329.1 804.6 329.1 805.1 329.1 805.8 327 806.6 325.7 807.1 325.7 807.7 325.7 808.1 324 808.3 324.9 809 328.3 809.6 329.1 809.8 332 810.2 329.5 810.8 329.5 811.4 329.1 811.8 325.3 812.1 324.5 812.5 320.3 812.7 316.1 812.8 315.2 812.9 315.6 813 316.5 813.2 315.6 813.4 317.7 813.6 318.2 813.9 320.7 814.5 323.2 814.7 323.6 814.9 325.3 815.2 327.4 815.6 329.1 815.8 332.5 816.1 333.3 816.3 330.4 816.5 334.1 816.5 338.8 816.6 339.6 816.6 341.3 816.7 338.8 816.7 338.3 816.9 341.7 817 342.6 817.1 345.5 817.2 346.3 817.3 345.9 817.3 344.7 817.6 347.2 817.8 349.7 818 345.5 818.2 349.3 818.3 351 818.4 355.6 818.4 353.1 818.5 353.9 818.7 352.2 818.8 350.1 818.9 348 819.1 345.5 819.3 343.4 819.5 343.4 819.7 346.3 819.9 343.8 820.2 337.5 820.5 339.6 820.8 345.5 821.2 345.5 821.3 343 821.6 345.5 821.9 345.1 822.3 344.2 822.6 341.3 822.9 336.7 823.2 337.1 823.6 337.1 823.9 333.7 824.2 336.2 824.5 337.9 824.5 337.5 824.5 340 824.6 341.7 824.7 339.2 824.8 338.8 824.8 341.7 824.8 342.6 824.9 344.2 824.9 343 824.9 346.3 825 343.8 825 346.3 825 345.9 825.1 348.9 825.1 349.3 825.2 353.5 825.4 353.1 825.6 354.3 825.7 357.3 826 358.5 826.1 361.9 826.1 362.3 826.2 358.5 826.5 359.4 826.8 358.5 827 353.9 827.4 355.2 827.6 362.7 827.8 364 828 363.2 828.1 364.8 828.3 364 828.6 364.8 828.7 366.9 828.9 366.5 829.1 366.9 829.4 366.5 829.8 367.4 830 368.2 830.1 372 830.3 369 830.5 367.4 830.7 366.9 831.1 364.8 831.3 370.3 831.6 367.4 831.9 367.8 832.3 366.5 832.8 367.8 833.2 369 833.7 367.4 834.1 364 834.1 364.4 834.4 366.5 834.6 364.8 835 363.6 835.5 367.4 836.1 372.8 836.3 373.2 836.8 372.8 837 375.4 837.4 371.6 838.1 374.1 838.3 371.6 838.8 372.8 839.3 374.1 839.9 371.1 840.7 368.2 841.1 366.5 841.5 366.9 842 370.3 842.9 369.9 843.6 372 844.4 373.2 844.9 372.4 845.7 372.4 846.6 374.9 847.2 374.5 847.9 373.2 848.1 373.7 848.6 374.1 849.3 374.5 849.5 378.3 849.7 378.7 849.9 380 850.2 383.8 850.3 386.3 850.4 386.7 850.5 388.8 850.6 389.6 850.7 385.9 851.1 388 851.3 385.9 851.5 384.2 851.6 383.3 851.7 383.8 851.8 384.6 851.8 380.8 852 382.9 852.1 380 852.3 379.6 852.5 378.7 852.6 379.1 852.9 380.4 853.2 383.3 853.6 387.5 853.9 388.4 854.2 384.6 854.4 381.7 854.7 381.2 854.8 377.5 854.9 377 855.3 379.6 855.7 382.9 856.1 383.8 856.6 385 856.9 380.4 857 377.9 857.6 377.9 858 378.7 858.4 381.7 859.3 382.5 859.6 379.6 860.2 382.5 860.6 384.6 861.1 381.7 861.5 381.7 861.9 383.8 862.1 379.1 862.6 380 862.9 384.6 863.2 384.2 863.6 385.9 864.2 381.2 864.4 379.6 864.8 382.1 865.3 383.3 866.3 382.5 866.9 380.4 867.9 379.6 868.4 374.9 869 375.4 869.7 374.9 870.4 377.5 871.3 376.6 872.1 381.7 872.6 382.5 873.1 382.1 873.4 382.9 874.2 384.2 874.4 383.8 874.6 390.1 874.8 387.1 875 389.6 875.3 390.1 875.6 393.9 875.7 398.9 875.8 405.2 875.9 408.6 876.1 410.7 876.2 406.9 876.2 408.2 876.4 409 876.4 420.3 876.4 425.8 876.4 433 876.4 425.4 876.5 425.4 876.6 419.9 876.7 418.2 876.8 415.3 877 413.2 877.2 413.2 877.6 413.2 877.7 409 878 404.8 878.1 397.6 878.3 395.5 878.5 392.6 878.7 389.2 879 391.3 879.2 390.5 879.4 392.6 879.7 393.9 879.9 390.1 880.3 389.6 880.6 392.2 881 391.8 881.3 391.8 881.6 393 881.9 388 882.3 390.5 882.8 388.8 883.2 390.9 883.6 392.6 884.2 393 884.5 391.3 884.8 390.5 885.1 390.9 885.5 388.8 885.8 387.5 886 387.5 886.1 387.5 886.3 386.3 886.7 384.6 887 382.9 887.4 382.5 887.7 380.4 888 379.6 888.4 379.6 888.7 381.2 889.1 383.3 889.4 383.8 889.7 383.8 890.1 385.9 890.5 385 890.9 383.3 891.3 380.8 891.6 379.1 891.8 376.6 892 377 892.2 377.5 892.3 377.5 892.5 377 892.7 377 892.9 377 893 377 893.2 378.7 893.3 378.7 893.5 380.4 893.9 380 894.2 379.1 894.3 380.4 894.4 379.1 894.5 377.9 894.7 377.5 894.8 376.6 895 377.5 895.2 377.5 895.3 379.1 895.5 378.3 895.6 377.9 895.7 379.1 895.8 380 896 379.6 896.1 379.6 896.3 378.3 896.4 377.9 896.6 377 896.8 377 897 377.9 897.1 377 897.3 375.8 897.5 375.8 897.7 375.8 897.8 375.8 898 376.2 898.1 374.1 898.4 375.4 898.5 376.2 898.7 374.1 898.9 374.1 899.1 374.1 899.3 373.2 899.5 376.2 899.6 374.5 899.9 374.5 900 373.7 900.1 372.4 900.3 371.6 900.4 371.6 900.6 371.1 900.8 372.8 900.9 374.9 901.1 374.5 901.2 375.4 901.3 376.2 901.5 375.8 901.7 377 901.9 376.6 902 375.8 902.2 375.4 902.4 374.5 902.5 374.9 902.7 374.1 902.9 373.2 903.1 372.4 903.3 371.6 903.5 372 903.6 371.1 903.8 369.9 903.9 369.9 904.1 369 904.2 369.5 904.5 368.6 904.9 369 905.3 370.3 906 367.4 906.5 366.1 907 366.1 907.4 365.7 907.6 367.8 908 364 908.2 363.2 908.6 361.9 908.8 357.7 909 358.5 909.4 358.5 909.5 358.1 909.7 356.4 910.1 354.7 910.3 354.3 910.6 353.5 910.9 352.2 911.1 356 911.9 358.5 912.6 358.5 913.1 356.8 913.5 355.2 913.6 354.3 913.7 353.1 913.7 346.3 913.8 351.4 914 352.6 914.1 352.2 914.2 351.4 914.2 350.5 914.3 351.4 914.4 354.3 914.5 354.7 914.6 352.2 914.8 351 915 350.1 915.2 347.6 915.5 349.7 915.8 347.2 916.2 347.6 916.4 347.6 916.6 349.3 916.7 350.5 916.8 353.5 916.9 355.2 917 356.8 917.2 358.5 917.4 360.2 917.6 361.1 917.8 362.3 918 366.1 918.1 367.4 918.3 369 918.5 368.2 918.7 368.6 918.9 369 919.1 370.3 919.2 372 919.4 372 919.5 373.2 919.6 374.1 919.7 374.1 919.8 373.2 919.9 375.4 920 376.2 920.1 377 920.2 378.7 920.3 378.3 920.4 379.1 920.5 378.7 920.6 380.4 920.7 380 920.8 379.6 920.9 379.6 921 381.7 921.1 382.5 921.2 383.8 921.3 382.5 921.4 382.5 921.5 383.8 921.6 382.9 921.6 383.8 921.7 385.4 921.8 383.8 921.9 385.9 921.9 393.4 922 389.2 922 391.8 922.1 393 922.1 392.2 922.2 392.6 922.3 394.3 922.4 393.4 922.5 396 922.6 396.8 922.6 392.2 922.7 389.2 922.8 386.3 922.9 386.7 923 385 923.1 383.8 923.3 382.5 923.4 381.2 923.7 381.2 923.9 381.7 924.1 381.2 924.3 380.4 924.7 378.7 925 379.1 925.3 377.5 925.6 379.1 925.7 379.6 925.8 380 926 381.7 926.3 383.8 926.5 383.8 926.7 387.5 927 388.4 927.2 393 927.3 394.3 927.4 391.3 927.4 383.8 927.4 384.2 927.5 383.3 927.5 385 927.6 384.2 927.7 385.9 927.7 387.1 927.8 389.6 927.8 388.8 927.9 387.1 927.9 387.1 928 387.5 928.2 388.4 928.3 390.1 928.4 390.5 928.6 393 928.9 393.4 928.9 390.5 928.9 395.1 928.9 395.5 929.1 396 929.2 397.2 929.2 404.8 929.2 400.2 929.3 402.7 929.4 403.5 929.5 404.8 929.5 405.6 929.6 405.6 929.7 404.4 929.9 407.3 930 410.3 930.2 409 930.3 409 930.5 409 930.6 412.8 930.8 413.6 931.1 418.2 931.4 426.7 931.5 414 932.4 414.9 934 413.9 934 413.9 934 413.9 934 413.9 934 413.9 934 413.9 934 413.9 934 413.9 934 413.9 934 413.9 934 413.9 934 413.9 934 413.9 934 413.9 934 413.9 934 413.9 934 413.9 934 413.9 934 413.9" opacity=".6"/><text x="942" y="472" fill="#d97706" font-size="11" text-anchor="start">0.07</text><text x="942" y="396" fill="#d97706" font-size="11" text-anchor="start">0.09</text><text x="942" y="320" fill="#d97706" font-size="11" text-anchor="start">0.11</text><text x="942" y="244" fill="#d97706" font-size="11" text-anchor="start">0.12</text><text x="942" y="168" fill="#d97706" font-size="11" text-anchor="start">0.14</text><text x="942" y="92" fill="#d97706" font-size="11" text-anchor="start">0.16</text><text x="942" y="80" fill="#d97706" font-size="11" font-weight="600" text-anchor="start">price</text><polygon fill="#16a34a" fill-opacity=".08" points="297.3 468 297.3 116.4 297.3 116.4 297.4 116.3 298 116.3 298.4 116.3 816.6 116.2 830 116.2 876.4 116.2 887.1 116.1 910.1 116.2 920.3 116.2 920.3 468"/><polyline fill="none" stroke="#16a34a" stroke-linejoin="round" stroke-width="2" points="297.3 116.4 297.3 116.4 297.4 116.3 298 116.3 298.4 116.3 816.6 116.2 830 116.2 876.4 116.2 887.1 116.1 910.1 116.2 920.3 116.2"/><line x1="88" x2="110" y1="102" y2="102" stroke="#16a34a" stroke-width="2.5"/><text x="116" y="106" fill="#374151" font-size="11.5">equity</text><line x1="88" x2="110" y1="118" y2="118" stroke="#d97706" stroke-width="2.5" opacity=".8"/><text x="116" y="122" fill="#374151" font-size="11.5">price</text><text x="78" y="502" fill="#6b7280" font-size="12" text-anchor="start">2026-02-01</text><text x="934" y="502" fill="#6b7280" font-size="12" text-anchor="end">2026-02-06</text></svg>