<svg xmlns="http://www.w3.org/2000/svg" width="1100" height="560" font-family="ui-sans-serif, system-ui, sans-serif" viewBox="0 0 1100 560"><rect width="1100" height="560" fill="#fff"/><text x="80" y="28" fill="#111827" font-size="18" font-weight="700">Zone Recovery — GHSTUSDT fee-tier comparison (best setting)</text><text x="80" y="48" fill="#6b7280" font-size="12.5">lev 3 · ratio 2 · gap 20% · maxSteps 4 · maxDD 20% · random · equity per fee tier vip 0..9</text><text x="80" y="68" fill="#1d4ed8" font-size="12.5" font-weight="600">USDT margin · BNB −10%</text><line x1="80" x2="932" y1="508" y2="508" stroke="#e5e7eb" stroke-width="1"/><text x="70" y="512" fill="#6b7280" font-size="12" text-anchor="end">0.00</text><line x1="80" x2="932" y1="424" y2="424" stroke="#e5e7eb" stroke-width="1"/><text x="70" y="428" fill="#6b7280" font-size="12" text-anchor="end">21613099</text><line x1="80" x2="932" y1="340" y2="340" stroke="#e5e7eb" stroke-width="1"/><text x="70" y="344" fill="#6b7280" font-size="12" text-anchor="end">43226199</text><line x1="80" x2="932" y1="256" y2="256" stroke="#e5e7eb" stroke-width="1"/><text x="70" y="260" fill="#6b7280" font-size="12" text-anchor="end">64839298</text><line x1="80" x2="932" y1="172" y2="172" stroke="#e5e7eb" stroke-width="1"/><text x="70" y="176" fill="#6b7280" font-size="12" text-anchor="end">86452397</text><line x1="80" x2="932" y1="88" y2="88" stroke="#e5e7eb" stroke-width="1"/><text x="70" y="92" fill="#6b7280" font-size="12" text-anchor="end">108065497</text><line x1="80" x2="932" y1="119.3" y2="119.3" stroke="#9ca3af" stroke-dasharray="6 4" stroke-width="1.5"/><polyline fill="none" stroke="#2563eb" stroke-linejoin="round" stroke-width="1.8" points="80 119.3 80 119.4 80.2 119.3 80.9 119.3 81.6 119.2 790.2 119.2 808.5 119.2 871.9 119.2 886.6 119.1 917.9 119.1 932 119.2" opacity=".9"/><polyline fill="none" stroke="#dc2626" stroke-linejoin="round" stroke-width="1.8" points="80 119.3 80 119.4 80.2 119.3 80.9 119.3 81.6 119.2 790.2 119.2 808.5 119.2 871.9 119.2 886.6 119.1 917.9 119.1 932 119.2" opacity=".9"/><polyline fill="none" stroke="#16a34a" stroke-linejoin="round" stroke-width="1.8" points="80 119.3 80 119.4 80.2 119.3 80.9 119.3 81.6 119.2 790.2 119.2 808.5 119.2 871.9 119.2 886.6 119.1 917.9 119.1 932 119.2" opacity=".9"/><polyline fill="none" stroke="#d97706" stroke-linejoin="round" stroke-width="1.8" points="80 119.3 80 119.4 80.2 119.3 80.9 119.3 81.6 119.2 790.2 119.2 808.5 119.2 871.9 119.2 886.6 119.1 917.9 119.1 932 119.2" opacity=".9"/><polyline fill="none" stroke="#7c3aed" stroke-linejoin="round" stroke-width="1.8" points="80 119.3 80 119.4 80.2 119.3 80.9 119.3 81.6 119.2 790.2 119.2 808.5 119.2 871.9 119.2 886.6 119.1 917.9 119.1 932 119.2" opacity=".9"/><polyline fill="none" stroke="#0891b2" stroke-linejoin="round" stroke-width="1.8" points="80 119.3 80 119.4 80.2 119.3 80.9 119.3 81.6 119.2 790.2 119.2 808.5 119.2 871.9 119.2 886.6 119.1 917.9 119.1 932 119.2" opacity=".9"/><polyline fill="none" stroke="#db2777" stroke-linejoin="round" stroke-width="1.8" points="80 119.3 80 119.4 80.2 119.3 80.9 119.3 81.6 119.2 790.2 119.2 808.5 119.2 871.9 119.2 886.6 119.1 917.9 119.1 932 119.2" opacity=".9"/><polyline fill="none" stroke="#65a30d" stroke-linejoin="round" stroke-width="1.8" points="80 119.3 80 119.4 80.2 119.3 80.9 119.3 81.6 119.2 790.2 119.2 808.5 119.2 871.9 119.2 886.6 119.1 917.9 119.1 932 119.2" opacity=".9"/><polyline fill="none" stroke="#475569" stroke-linejoin="round" stroke-width="1.8" points="80 119.3 80 119.4 80.2 119.3 80.9 119.3 81.6 119.2 790.2 119.2 808.5 119.2 871.9 119.2 886.6 119.1 917.9 119.1 932 119.2" opacity=".9"/><polyline fill="none" stroke="#ea580c" stroke-linejoin="round" stroke-width="1.8" points="80 119.3 80 119.4 80.2 119.3 80.9 119.3 81.6 119.2 790.2 119.2 808.5 119.2 871.9 119.2 886.6 119.1 917.9 119.1 932 119.2" opacity=".9"/><line x1="950" x2="972" y1="94" y2="94" stroke="#ea580c" stroke-width="3"/><text x="980" y="98" fill="#374151" font-size="12.5">vip 9 100049016</text><line x1="950" x2="972" y1="116" y2="116" stroke="#475569" stroke-width="3"/><text x="980" y="120" fill="#374151" font-size="12.5">vip 8 100048971</text><line x1="950" x2="972" y1="138" y2="138" stroke="#65a30d" stroke-width="3"/><text x="980" y="142" fill="#374151" font-size="12.5">vip 7 100048941</text><line x1="950" x2="972" y1="160" y2="160" stroke="#db2777" stroke-width="3"/><text x="980" y="164" fill="#374151" font-size="12.5">vip 6 100048895</text><line x1="950" x2="972" y1="182" y2="182" stroke="#0891b2" stroke-width="3"/><text x="980" y="186" fill="#374151" font-size="12.5">vip 5 100048865</text><line x1="950" x2="972" y1="204" y2="204" stroke="#7c3aed" stroke-width="3"/><text x="980" y="208" fill="#374151" font-size="12.5">vip 4 100048820</text><line x1="950" x2="972" y1="226" y2="226" stroke="#d97706" stroke-width="3"/><text x="980" y="230" fill="#374151" font-size="12.5">vip 3 100048790</text><line x1="950" x2="972" y1="248" y2="248" stroke="#16a34a" stroke-width="3"/><text x="980" y="252" fill="#374151" font-size="12.5">vip 2 100048669</text><line x1="950" x2="972" y1="270" y2="270" stroke="#2563eb" stroke-width="3"/><text x="980" y="274" fill="#374151" font-size="12.5">vip 0 100048518</text><line x1="950" x2="972" y1="292" y2="292" stroke="#dc2626" stroke-width="3"/><text x="980" y="296" fill="#374151" font-size="12.5">vip 1 100048518</text><text x="80" y="542" fill="#6b7280" font-size="12" text-anchor="start">2026-02-02</text><text x="932" y="542" fill="#6b7280" font-size="12" text-anchor="end">2026-02-06</text></svg>