<?xml version="1.0" encoding="UTF-8"?>
<svg xmlns="http://www.w3.org/2000/svg" width="1000" height="520" viewBox="0 0 1000 520" font-family="ui-sans-serif, system-ui, sans-serif">
  <rect width="1000" height="520" fill="#ffffff"/>
  <text x="78" y="28" font-size="18" font-weight="700" fill="#111827">Zone Recovery — PNUTUSDC best setting (equity / PnL)</text>
  <text x="78" y="48" font-size="12.5" fill="#6b7280">lev 50 · ratio 4 · gap 20% · maxSteps 4 · maxDD 20% · random · vip 9  ·  989 series, 82.0% win · vol $29310500 ($29312126/day) · fees $2480</text>
  <text x="78" y="68" font-size="12.5" font-weight="600" fill="#1d4ed8">USDC · BNB −10% · taker 0.0085%</text>
  <text x="934" y="28" text-anchor="end" font-size="18" font-weight="700" fill="#16a34a">+42923 USDT  (+429.23%)</text>
  <line x1="78" y1="468.0" x2="934" y2="468.0" stroke="#e5e7eb" stroke-width="1"/><text x="68" y="472.0" text-anchor="end" font-size="12" fill="#6b7280">0.00</text><line x1="78" y1="392.0" x2="934" y2="392.0" stroke="#e5e7eb" stroke-width="1"/><text x="68" y="396.0" text-anchor="end" font-size="12" fill="#6b7280">11647</text><line x1="78" y1="316.0" x2="934" y2="316.0" stroke="#e5e7eb" stroke-width="1"/><text x="68" y="320.0" text-anchor="end" font-size="12" fill="#6b7280">23294</text><line x1="78" y1="240.0" x2="934" y2="240.0" stroke="#e5e7eb" stroke-width="1"/><text x="68" y="244.0" text-anchor="end" font-size="12" fill="#6b7280">34941</text><line x1="78" y1="164.0" x2="934" y2="164.0" stroke="#e5e7eb" stroke-width="1"/><text x="68" y="168.0" text-anchor="end" font-size="12" fill="#6b7280">46588</text><line x1="78" y1="88.0" x2="934" y2="88.0" stroke="#e5e7eb" stroke-width="1"/><text x="68" y="92.0" text-anchor="end" font-size="12" fill="#6b7280">58235</text>
  <line x1="78" y1="402.7" x2="934" y2="402.7" stroke="#9ca3af" stroke-width="1.5" stroke-dasharray="6 4"/><text x="934" y="396.7" text-anchor="end" font-size="11" fill="#6b7280">start 10000</text>
  <polyline points="78.0,125.2 79.5,124.6 80.9,124.4 82.5,124.9 84.3,124.3 85.5,125.3 87.2,124.7 88.2,124.3 89.9,124.2 91.0,125.2 92.9,124.7 94.0,123.8 96.0,123.2 97.5,124.1 99.8,124.0 102.4,122.5 103.8,123.1 105.8,124.2 108.0,124.6 110.1,123.3 112.9,123.9 115.1,123.0 116.7,121.7 117.0,122.1 118.1,122.7 120.1,122.1 121.6,122.2 124.3,122.2 125.4,121.6 127.3,121.7 129.8,121.9 132.3,121.9 134.3,121.8 136.4,123.4 138.3,124.0 139.2,123.3 141.3,123.6 143.7,124.0 145.0,122.5 146.4,122.8 148.6,122.5 150.1,122.7 151.2,123.6 152.6,124.4 153.5,124.7 153.8,125.7 154.9,125.9 156.1,124.3 157.5,123.7 159.4,123.6 161.0,122.0 161.6,122.7 162.4,122.8 163.8,123.1 164.6,124.6 164.7,124.1 165.2,124.2 165.9,123.9 166.3,124.0 167.3,123.9 168.5,125.1 169.5,125.4 171.3,125.0 173.1,124.6 174.4,123.8 176.5,124.4 178.3,124.1 180.3,124.7 182.0,124.5 184.5,125.2 184.5,125.5 184.7,125.5 184.9,125.8 185.0,125.2 185.3,125.2 185.6,125.4 186.3,126.7 186.6,126.8 186.7,126.6 187.2,127.1 187.7,127.7 188.0,128.1 188.1,127.8 188.3,128.0 188.4,127.7 188.5,127.4 188.8,127.2 189.2,127.1 189.6,127.5 190.4,127.6 190.7,127.5 190.9,128.4 191.2,127.8 191.3,127.6 191.7,127.8 192.0,127.4 192.3,127.1 192.4,126.6 192.8,126.5 193.2,126.5 193.5,126.4 193.8,126.0 194.1,125.7 194.2,125.9 195.5,125.9 197.1,124.1 198.3,122.7 199.7,122.6 200.2,121.6 201.3,121.8 201.8,119.7 202.5,119.1 203.1,117.6 203.5,117.6 203.9,116.8 204.3,116.6 204.8,116.6 205.1,116.6 205.6,116.6 206.0,115.9 206.9,116.4 207.8,115.8 208.6,116.1 209.3,116.3 210.1,116.0 211.5,116.5 212.6,115.5 213.2,114.6 214.1,114.5 215.2,115.9 216.2,117.3 217.2,118.0 218.0,119.3 218.7,119.1 219.5,119.1 220.7,119.2 221.5,118.3 222.6,118.5 224.6,118.8 226.2,117.6 227.6,119.4 229.0,118.7 230.4,119.9 232.1,120.6 233.4,120.5 234.5,120.3 236.2,121.4 238.3,120.9 240.4,121.1 241.4,121.7 242.4,122.9 244.3,122.2 246.3,122.4 248.3,121.6 249.7,122.3 251.9,122.1 255.1,121.7 256.7,121.3 258.0,121.6 258.8,123.0 259.5,124.3 259.9,124.1 260.6,124.3 262.4,124.0 264.2,123.2 265.7,123.1 267.8,122.9 269.9,122.8 271.1,121.7 272.4,121.0 273.9,121.4 274.5,121.5 275.1,122.3 275.8,122.9 276.7,123.1 277.8,123.6 278.6,123.4 280.0,122.7 280.9,121.6 282.1,120.8 283.0,120.3 283.9,118.2 285.3,118.4 286.7,117.7 287.8,118.3 288.9,117.9 290.1,117.6 291.8,117.6 293.3,117.0 294.6,117.0 295.9,117.3 297.5,117.9 299.0,119.4 300.7,118.5 301.8,118.9 303.8,119.6 304.3,119.8 305.6,120.1 307.2,120.6 308.7,120.7 310.5,120.8 311.4,121.8 312.5,120.6 313.4,121.7 314.1,121.7 314.7,123.3 315.6,122.5 316.5,121.2 317.4,121.2 318.5,122.4 320.2,122.0 321.6,123.1 321.8,123.1 322.4,123.7 322.8,124.3 323.5,124.7 324.7,123.7 326.2,123.4 328.3,123.6 328.8,124.5 330.2,124.0 331.3,125.2 332.0,125.7 332.7,126.2 333.7,124.4 334.9,124.1 336.0,123.7 337.0,125.0 338.0,125.5 338.7,126.4 339.9,124.4 341.1,125.0 342.5,125.2 343.5,125.0 345.1,123.8 346.4,125.1 347.5,125.5 348.6,125.3 350.2,124.4 352.1,124.1 353.9,124.1 355.1,125.6 356.1,125.2 357.1,126.0 357.6,125.8 358.2,126.2 358.7,125.9 359.4,125.9 360.1,125.7 361.7,126.2 363.1,126.6 364.1,126.2 364.6,124.9 365.6,125.6 366.6,126.7 367.2,125.7 368.0,126.8 369.2,125.8 370.8,125.6 372.3,124.8 373.2,122.9 374.3,123.0 376.0,124.3 377.2,125.3 379.5,124.4 381.6,124.5 382.7,125.7 384.6,125.8 385.8,126.2 387.2,125.9 388.2,127.3 389.3,127.3 390.1,126.5 391.1,126.1 392.7,126.6 393.6,125.1 395.2,125.1 397.0,123.6 398.0,123.0 399.4,123.2 399.8,124.4 400.1,124.3 400.4,124.9 401.0,125.0 402.3,125.3 403.8,125.3 405.4,126.1 406.2,124.3 407.4,124.8 408.6,124.8 409.9,125.1 411.9,125.6 413.9,124.8 415.2,122.8 415.9,121.7 417.2,122.7 418.3,121.7 419.3,121.7 421.5,122.6 423.1,123.6 424.5,123.7 426.4,123.4 427.8,124.6 428.8,125.7 429.5,125.9 430.1,125.4 430.7,126.4 431.4,126.0 432.1,125.9 432.9,126.6 434.5,126.2 435.7,124.9 437.0,125.1 439.1,124.8 441.1,125.6 443.5,124.9 445.9,124.3 447.6,124.0 449.2,124.9 451.7,125.2 453.2,125.2 454.3,126.1 456.0,126.1 457.8,125.8 459.7,126.3 461.7,125.0 463.7,125.3 464.9,123.7 466.2,123.9 468.3,123.4 470.9,124.4 472.1,124.5 472.5,124.4 472.6,123.9 472.9,124.0 473.2,124.1 473.4,123.8 473.5,123.7 473.8,124.2 474.0,124.1 474.2,125.0 474.4,125.0 474.5,125.2 474.7,125.5 474.8,125.4 475.1,125.0 476.0,124.5 476.9,125.2 477.6,125.9 479.1,125.8 481.7,125.1 483.2,125.9 485.3,125.6 487.8,125.3 489.3,124.6 490.5,124.0 493.2,123.5 494.8,123.9 497.3,124.7 500.1,124.2 501.6,122.9 503.6,122.9 505.4,123.4 507.3,123.4 509.0,122.5 511.1,122.1 512.4,122.9 513.7,123.2 515.5,124.1 518.1,122.7 519.7,123.5 521.6,123.0 524.6,123.1 525.5,122.9 526.3,123.0 527.3,122.2 528.7,123.5 530.2,123.0 531.4,123.5 533.7,123.4 536.4,122.5 538.4,122.2 541.5,122.0 542.8,121.6 543.6,120.3 544.3,119.8 544.7,120.2 545.4,119.9 546.1,119.6 546.9,118.7 547.4,120.2 547.8,120.2 548.2,120.5 548.8,120.3 549.5,120.5 550.6,120.5 551.3,120.8 551.6,121.3 551.9,120.3 552.9,120.2 553.3,119.3 554.3,119.1 554.9,120.0 555.4,120.0 556.0,120.0 556.8,119.2 557.1,118.7 557.3,118.5 557.7,117.8 558.8,118.6 559.6,118.4 560.0,119.0 560.2,118.7 560.4,118.3 560.9,119.3 561.2,119.5 561.7,118.9 562.2,118.4 562.5,117.9 562.8,118.6 563.2,119.7 563.5,119.9 564.2,119.1 564.5,117.8 564.9,117.1 565.3,116.8 565.7,117.7 566.1,117.8 566.6,118.0 566.9,117.6 567.2,117.4 567.9,118.0 568.3,118.3 568.7,119.2 569.0,118.6 569.6,119.0 569.9,119.1 570.2,118.3 570.3,119.0 570.9,119.6 571.3,120.8 571.6,121.1 572.3,121.4 572.6,121.8 573.3,121.0 573.9,122.3 574.5,122.1 575.4,121.9 576.4,121.0 577.9,119.0 578.3,121.2 578.6,120.6 579.5,120.2 580.0,119.1 580.8,119.4 581.5,119.2 582.3,119.1 583.3,119.6 584.3,120.0 585.3,120.3 586.1,121.3 586.4,120.4 586.8,120.6 587.4,121.7 587.6,122.7 587.9,123.4 588.0,123.9 588.1,123.1 588.7,123.6 589.3,123.3 589.6,123.2 590.3,123.1 590.5,123.9 590.9,124.0 591.2,124.6 591.5,124.8 591.9,124.8 592.7,124.3 593.7,124.4 594.8,125.5 595.6,123.9 596.0,123.8 596.7,124.0 597.5,124.0 598.3,123.0 599.1,124.2 599.3,124.3 600.2,124.5 601.3,124.0 602.5,124.8 603.1,124.0 604.1,124.2 604.8,124.7 605.7,124.4 606.5,123.9 607.8,122.6 608.9,123.8 610.0,124.6 611.5,124.5 611.8,125.8 611.8,126.5 611.8,127.0 611.8,128.5 611.8,129.4 611.9,128.7 611.9,129.1 612.0,130.4 612.0,130.8 612.0,129.6 612.1,130.3 612.2,131.4 612.2,132.2 612.3,132.8 612.3,132.1 612.4,133.0 612.4,132.0 612.5,131.5 612.5,130.4 612.5,131.2 612.6,131.3 612.7,130.6 612.8,131.0 613.0,131.7 613.1,131.6 613.2,131.7 613.3,132.6 613.4,132.9 613.5,132.5 613.6,133.8 613.6,134.2 613.7,133.6 613.7,133.3 613.8,134.3 613.8,134.3 613.9,133.6 614.0,134.3 614.0,134.7 614.1,135.7 614.2,135.4 614.3,135.1 614.3,135.7 614.4,136.0 614.4,136.3 614.5,135.7 614.6,136.4 614.6,135.4 614.6,134.7 614.8,134.5 614.8,134.8 614.8,135.3 614.9,134.6 614.9,135.4 614.9,134.4 614.9,133.8 615.0,133.2 615.0,133.8 615.0,134.6 615.1,134.4 615.1,135.3 615.3,135.6 615.4,134.5 615.4,135.7 615.5,136.0 615.6,136.5 615.6,136.9 615.6,137.8 615.6,138.2 615.6,137.8 615.7,137.6 615.7,137.6 615.8,137.4 615.8,136.4 615.9,136.1 616.0,136.8 616.1,137.2 616.2,136.9 616.2,136.8 616.3,137.4 616.4,137.0 616.4,136.3 616.4,136.7 616.5,136.3 616.6,135.2 616.6,135.6 616.7,136.1 616.7,136.1 616.8,137.0 616.8,136.4 616.9,136.0 617.0,135.5 617.0,135.0 617.0,134.2 617.1,134.8 617.2,135.9 617.3,135.8 617.4,135.3 617.5,134.7 617.7,134.6 617.9,134.0 618.0,134.1 618.0,134.1 618.1,134.5 618.3,135.0 618.3,135.3 618.4,135.8 618.4,135.3 618.4,134.7 618.5,134.4 618.6,134.8 618.7,135.2 618.8,134.7 618.9,134.6 619.0,134.0 619.0,133.8 619.2,133.4 619.2,132.6 619.3,132.7 619.5,132.0 619.7,131.9 620.0,132.3 620.2,132.6 620.3,132.9 620.5,132.6 620.9,132.9 621.1,132.8 621.2,132.3 621.6,132.7 622.0,133.0 622.1,132.7 622.2,132.9 622.5,132.1 622.6,133.2 622.8,133.6 623.0,133.7 623.1,134.0 623.2,134.2 623.2,134.7 623.4,134.9 623.5,135.4 623.5,135.8 623.6,136.2 623.6,135.3 623.6,135.4 623.7,134.7 623.8,135.1 623.9,135.4 624.0,135.5 624.3,135.1 624.4,135.4 624.5,136.2 624.6,136.3 624.9,136.1 625.0,136.7 625.0,137.4 625.0,136.4 625.1,136.0 625.1,136.2 625.2,136.8 625.3,137.4 625.4,137.8 625.4,137.0 625.5,137.5 625.6,137.9 625.7,138.4 625.7,139.0 625.8,138.4 625.9,138.6 625.9,139.2 625.9,139.8 626.0,141.0 626.0,141.6 626.1,141.3 626.1,140.3 626.2,141.1 626.3,140.6 626.3,139.7 626.4,139.4 626.6,139.1 626.7,138.5 626.7,139.0 626.8,139.9 627.0,140.1 627.1,141.0 627.1,141.4 627.2,141.1 627.3,140.7 627.3,140.5 627.3,140.8 627.4,141.2 627.4,140.4 627.5,140.2 627.6,140.7 627.7,141.3 627.7,142.0 627.8,142.7 627.8,141.8 627.9,141.2 628.0,141.3 628.0,142.5 628.1,142.4 628.2,142.5 628.3,142.5 628.4,141.4 628.5,141.3 628.5,140.2 628.6,140.9 628.6,141.7 628.7,142.3 628.9,142.2 629.0,142.9 629.0,143.0 629.1,142.7 629.3,142.2 629.3,141.8 629.3,141.7 629.5,140.7 629.6,140.1 629.8,140.7 629.9,141.1 630.0,141.6 630.2,142.0 630.4,142.2 630.7,142.7 630.9,143.3 630.9,143.7 630.9,143.7 631.0,144.6 631.1,145.3 631.1,146.8 631.2,146.6 631.2,146.0 631.3,148.5 631.3,149.8 631.3,151.0 631.3,151.7 631.3,153.0 631.4,153.8 631.4,154.1 631.4,152.7 631.5,149.9 631.5,149.5 631.6,149.9 631.6,151.7 631.7,153.6 631.8,153.2 631.8,153.4 631.9,155.2 631.9,156.6 631.9,158.6 631.9,159.5 631.9,157.4 632.0,160.4 632.0,155.6 632.0,154.6 632.0,153.7 632.1,153.4 632.1,152.8 632.2,151.3 632.2,153.1 632.3,153.2 632.4,153.8 632.5,154.3 632.5,155.3 632.6,155.6 632.6,154.1 632.7,153.5 632.7,153.8 632.8,153.6 632.8,153.2 632.8,154.0 632.9,153.6 633.0,152.7 633.0,153.6 633.1,153.5 633.1,154.4 633.2,154.3 633.2,154.4 633.3,153.9 633.3,154.4 633.4,155.2 633.4,155.4 633.4,156.3 633.5,156.9 633.5,155.8 633.5,155.1 633.5,155.7 633.6,155.3 633.6,156.6 633.6,157.1 633.7,158.2 633.7,158.9 633.8,158.5 633.8,155.5 633.8,154.4 633.8,154.4 633.9,154.3 633.9,155.2 634.0,153.8 634.1,153.4 634.2,153.0 634.2,153.2 634.3,154.3 634.3,154.2 634.4,154.5 634.5,154.7 634.5,154.5 634.5,153.8 634.6,153.4 634.6,153.9 634.7,154.7 634.8,155.0 634.8,154.2 634.9,153.6 634.9,153.8 635.0,153.2 635.0,153.6 635.1,153.9 635.1,153.4 635.1,152.8 635.2,152.7 635.2,152.8 635.3,153.3 635.3,152.7 635.4,152.4 635.4,152.1 635.5,152.0 635.6,152.0 635.6,151.4 635.6,152.1 635.7,152.3 635.8,151.7 635.8,151.7 635.9,152.0 636.0,152.5 636.0,152.5 636.1,152.5 636.1,152.4 636.2,153.5 636.3,152.7 636.3,152.5 636.4,152.1 636.4,151.8 636.4,151.6 636.5,151.7 636.5,151.1 636.6,151.1 636.6,151.9 636.7,151.9 636.7,151.8 636.8,152.3 636.8,152.7 636.9,152.3 636.9,151.7 636.9,152.0 636.9,152.7 637.0,153.1 637.0,153.6 637.1,153.4 637.2,154.0 637.3,154.5 637.3,155.0 637.4,155.0 637.4,154.7 637.5,154.3 637.5,154.2 637.6,153.7 637.6,153.2 637.6,153.1 637.7,152.6 637.7,152.6 637.8,152.1 637.9,152.6 638.0,152.2 638.1,152.2 638.1,152.7 638.2,152.6 638.2,152.6 638.3,152.4 638.3,151.9 638.4,151.9 638.4,151.3 638.4,151.8 638.5,151.9 638.6,151.4 638.6,151.1 638.7,151.0 638.8,151.0 638.8,151.1 638.9,151.4 638.9,152.2 638.9,152.8 639.1,151.3 639.2,151.1 639.3,150.8 639.4,150.4 639.5,150.2 639.6,150.0 639.7,149.5 639.8,150.0 639.9,150.3 639.9,150.8 640.0,151.2 640.2,151.5 640.4,152.2 640.4,151.8 640.5,151.3 640.6,151.2 640.8,152.1 640.8,152.1 641.0,152.3 641.0,153.0 641.1,153.1 641.3,153.3 641.6,153.6 641.7,153.2 641.8,154.0 641.8,153.3 642.0,153.8 642.1,153.4 642.2,153.9 642.2,153.9 642.3,154.4 642.5,154.5 642.6,154.1 642.7,154.1 642.9,153.9 643.0,154.6 643.1,154.1 643.3,153.7 643.4,153.8 643.4,154.6 643.5,153.5 643.6,153.5 643.9,154.2 643.9,154.9 644.0,154.2 644.1,154.6 644.2,154.8 644.3,154.4 644.4,154.4 644.6,154.5 644.7,154.4 644.8,154.3 645.0,154.6 645.2,154.5 645.2,155.1 645.3,155.6 645.3,154.8 645.4,155.1 645.6,154.9 645.7,155.8 645.8,156.4 645.9,155.9 646.0,156.8 646.1,156.4 646.2,156.0 646.3,156.4 646.4,156.4 646.5,156.8 646.7,156.2 646.8,156.1 646.9,156.2 647.0,156.8 647.3,156.8 647.6,157.0 647.8,156.4 647.9,155.4 648.1,156.1 648.4,156.7 648.6,156.8 648.7,157.1 648.7,157.3 648.8,157.3 648.9,157.7 648.9,157.9 649.0,157.6 649.2,157.4 649.3,158.1 649.4,158.1 649.5,157.7 649.6,157.5 649.6,158.4 649.8,158.6 649.8,158.6 649.9,158.1 650.0,158.3 650.1,158.8 650.2,158.8 650.3,158.9 650.3,159.2 650.5,158.6 650.6,159.1 650.7,158.4 650.7,158.1 650.9,157.7 651.0,157.5 651.1,158.6 651.3,159.2 651.3,158.7 651.3,158.0 651.5,158.3 651.5,157.7 651.7,157.1 651.7,157.1 651.9,156.2 652.1,155.5 652.2,155.8 652.3,156.3 652.4,155.7 652.5,155.2 652.6,155.0 652.8,155.2 652.9,155.1 653.2,155.3 653.4,155.1 653.5,155.0 653.7,154.2 653.8,153.9 654.1,153.3 654.2,153.6 654.4,153.5 654.6,154.0 654.8,154.0 655.0,154.5 655.2,155.1 655.4,155.5 655.6,155.3 655.8,155.1 656.0,155.0 656.1,155.9 656.6,155.6 656.8,155.6 657.1,155.9 657.6,156.2 657.9,155.9 658.1,156.1 658.3,155.9 658.4,156.0 658.5,156.5 658.7,156.0 658.9,156.3 659.0,156.8 659.3,156.5 659.8,156.3 660.1,155.5 660.2,155.6 660.6,156.0 661.0,154.9 661.1,155.5 661.3,155.8 661.4,155.2 661.7,155.1 662.0,154.4 662.4,153.8 662.7,152.8 663.0,152.6 663.2,152.6 663.5,152.5 663.7,152.9 664.2,152.4 664.6,152.7 664.9,152.6 665.4,153.0 665.8,153.0 666.1,153.7 666.5,154.6 666.6,154.0 666.9,154.1 667.0,154.7 667.1,155.3 667.3,155.6 667.5,154.8 667.7,154.4 667.8,153.9 668.0,153.3 668.3,153.4 668.5,152.8 668.7,152.5 668.7,152.8 668.9,152.9 669.2,153.8 669.6,153.6 669.7,154.1 669.9,153.3 670.1,153.3 670.2,152.6 670.3,152.6 670.6,152.1 671.0,152.1 671.4,152.5 671.9,152.4 672.4,151.9 672.7,152.2 673.0,153.0 673.2,153.6 673.5,154.2 674.0,154.0 674.5,154.9 674.9,155.2 675.1,155.3 675.5,155.8 675.8,156.4 676.3,155.7 676.6,155.6 677.0,155.3 677.5,156.4 677.8,157.0 678.5,157.5 678.6,157.3 678.7,157.1 679.1,156.9 679.6,156.5 679.9,155.6 680.3,156.5 680.7,157.3 680.9,157.1 681.2,157.7 681.4,157.7 681.9,157.8 682.2,157.2 682.4,157.3 682.6,158.1 683.2,158.3 683.6,157.5 684.1,157.9 684.5,157.7 684.8,157.3 685.0,157.6 685.5,158.0 686.1,158.4 686.4,158.2 686.6,157.6 686.8,158.0 687.1,158.6 687.3,159.0 687.4,159.6 687.5,159.4 687.8,159.2 687.9,159.5 688.0,159.1 688.2,158.7 688.5,158.5 688.9,159.0 689.1,159.3 689.4,159.3 689.8,159.5 689.9,160.5 690.2,159.7 690.6,160.0 690.9,159.5 691.2,160.0 691.4,158.8 691.7,158.0 692.0,158.3 692.4,159.6 692.8,160.3 693.1,160.5 693.2,160.8 693.4,160.2 693.6,159.8 693.8,159.8 694.2,159.0 694.7,159.0 695.1,158.9 695.3,158.5 695.8,158.8 696.4,159.4 696.8,160.4 697.2,159.7 697.5,158.7 698.1,157.6 698.7,157.5 699.4,158.5 700.2,158.5 700.6,158.3 701.2,157.5 701.8,157.5 702.3,157.0 702.8,157.7 703.1,157.2 703.8,158.0 704.4,158.2 704.9,158.1 705.4,158.5 705.7,159.4 706.1,160.4 706.3,160.3 706.6,160.3 706.8,161.1 706.9,160.9 707.1,161.6 707.3,161.7 707.6,162.0 707.9,162.2 708.1,161.8 708.2,162.6 708.3,163.1 708.4,163.3 708.5,163.9 708.7,163.7 708.8,163.3 708.9,162.6 708.9,162.3 709.0,162.0 709.0,162.5 709.1,162.5 709.2,162.4 709.3,162.4 709.3,162.3 709.4,162.2 709.4,162.7 709.5,162.2 709.6,162.1 709.6,162.0 709.6,162.6 709.7,162.9 709.8,162.6 709.9,162.2 709.9,162.0 710.2,162.8 710.5,162.6 710.7,162.2 710.8,162.5 710.8,162.6 710.9,162.3 711.0,162.1 711.0,162.4 711.1,162.2 711.2,162.2 711.2,162.0 711.2,162.1 711.3,162.1 711.3,162.5 711.3,162.8 711.4,163.1 711.4,163.5 711.5,164.0 711.6,164.0 711.7,164.9 711.7,166.2 711.7,166.1 711.7,166.0 711.7,166.2 711.7,166.4 711.7,166.0 711.7,165.9 711.8,165.5 711.8,165.5 711.9,166.0 711.9,166.3 712.0,166.4 712.0,166.6 712.1,166.5 712.1,165.9 712.1,165.4 712.2,165.7 712.2,165.4 712.3,164.8 712.3,164.9 712.4,164.6 712.5,164.2 712.6,164.0 712.6,164.3 712.7,164.4 712.7,164.3 712.8,164.6 712.9,163.9 713.0,163.6 713.1,163.0 713.2,162.4 713.2,162.8 713.4,163.3 713.6,163.8 713.8,163.9 714.1,163.8 714.4,163.3 714.5,163.9 714.8,164.2 715.2,163.9 715.5,164.6 715.8,164.2 716.2,163.7 716.8,163.7 717.1,163.8 717.3,162.8 717.6,162.5 718.0,163.7 718.5,163.5 718.7,163.7 719.4,163.4 720.1,164.0 720.3,164.5 720.4,164.8 720.6,165.0 720.8,164.4 720.9,164.4 721.3,163.7 721.4,164.1 721.7,163.5 721.9,164.1 722.1,164.5 722.4,164.0 723.0,163.8 723.4,163.9 723.8,163.0 724.1,163.4 724.3,163.9 724.5,164.0 724.5,164.1 724.9,163.1 725.4,163.7 726.1,163.7 726.4,163.3 726.9,163.2 727.6,163.5 728.1,164.1 728.5,163.5 728.6,162.9 729.0,162.9 729.6,162.4 730.0,161.8 730.5,162.3 730.7,162.5 730.8,163.1 731.1,162.9 731.6,163.0 732.0,162.1 732.4,161.7 732.7,161.5 733.2,161.3 733.7,160.3 734.4,160.8 735.2,159.8 736.4,160.1 737.5,161.2 737.9,160.9 738.5,161.2 739.1,161.5 739.5,161.2 740.1,160.1 740.9,160.9 741.9,160.7 742.2,161.5 742.6,161.3 743.5,161.5 743.9,162.6 744.1,162.2 744.4,161.1 745.0,161.1 745.9,160.6 746.9,160.7 747.1,159.9 747.4,160.3 747.9,160.2 748.6,161.3 749.0,161.7 749.2,162.0 749.3,161.2 749.7,160.9 749.7,160.7 750.1,161.1 750.4,160.9 750.7,160.4 751.2,160.6 751.8,160.9 752.4,160.9 753.4,160.6 754.5,160.9 755.7,161.8 755.7,162.4 755.9,161.8 756.2,161.9 756.4,161.9 756.6,161.4 757.0,161.1 757.3,161.6 757.5,161.3 757.9,161.2 758.2,161.1 758.5,161.3 758.8,161.9 758.9,162.3 759.1,161.9 759.4,162.4 759.5,162.3 759.9,161.5 760.1,162.0 760.6,162.9 760.8,163.3 760.9,163.7 761.0,163.8 761.1,163.9 761.1,163.2 761.3,163.1 761.6,163.8 761.8,164.4 761.9,163.9 762.1,164.3 762.3,163.9 762.5,163.9 762.7,164.6 762.7,165.1 762.8,165.6 762.8,165.1 762.9,164.7 763.0,165.4 763.1,165.0 763.4,164.1 763.7,163.8 764.3,164.4 764.6,164.8 764.7,164.8 764.8,165.1 764.9,165.8 765.1,165.3 765.1,164.5 765.2,164.0 765.5,164.3 765.8,164.2 766.1,164.0 766.4,164.1 766.9,164.1 767.4,163.7 767.7,163.6 767.8,164.0 767.9,164.6 768.0,164.4 768.1,164.9 768.2,164.3 768.5,164.4 768.6,165.2 768.7,165.9 768.7,165.2 768.7,165.5 768.8,165.4 768.9,165.3 769.0,165.9 769.1,165.8 769.2,164.7 769.4,165.0 769.5,165.7 769.7,165.6 769.9,165.7 770.1,164.9 770.5,164.9 770.7,163.6 770.8,163.4 770.9,162.4 771.0,162.6 771.2,162.8 771.4,162.8 771.6,163.4 771.9,164.3 772.1,165.1 772.4,165.4 772.6,166.3 772.8,166.9 772.8,167.4 772.9,169.3 772.9,169.3 772.9,168.6 772.9,168.1 772.9,167.6 773.0,167.8 773.2,168.3 773.2,168.6 773.3,169.4 773.3,170.3 773.3,170.1 773.4,170.8 773.4,171.9 773.5,172.3 773.5,173.3 773.5,171.7 773.6,171.6 773.6,170.6 773.6,170.1 773.7,169.8 773.7,170.0 773.8,170.1 774.0,168.8 774.1,168.6 774.1,168.0 774.2,168.0 774.3,168.4 774.5,167.6 774.6,168.0 774.7,168.6 774.9,168.4 775.0,168.0 775.0,167.7 775.1,168.5 775.2,168.7 775.4,169.3 775.5,169.5 775.5,170.3 775.5,170.1 775.6,170.4 775.6,170.6 775.7,170.1 775.8,171.0 775.8,170.4 775.9,170.1 776.1,170.0 776.2,169.6 776.4,169.2 776.6,169.9 776.7,169.9 776.9,169.7 777.1,168.8 777.1,168.6 777.4,168.9 777.7,167.8 777.9,168.3 778.1,167.6 778.4,167.7 778.7,166.9 778.8,167.5 779.1,168.4 779.3,168.6 779.5,167.7 779.6,167.9 779.8,167.5 779.9,168.4 780.1,168.9 780.2,168.3 780.4,167.8 780.5,167.4 780.6,166.7 780.7,166.5 780.7,167.2 780.8,166.9 780.9,167.5 781.1,166.6 781.4,166.5 781.7,166.2 781.9,166.6 782.2,165.5 782.4,165.7 782.6,165.6 782.7,164.8 782.9,164.5 783.0,165.6 783.1,165.8 783.2,166.6 783.5,167.1 783.8,166.5 784.1,166.2 784.6,166.1 784.8,165.3 785.4,166.2 785.5,166.6 785.6,167.1 785.7,167.7 785.9,167.9 786.1,168.6 786.2,168.7 786.5,168.5 786.7,168.6 787.0,168.5 787.1,168.8 787.4,168.1 787.6,168.2 787.9,168.9 788.2,169.1 788.4,169.5 788.7,169.3 789.0,169.2 789.4,168.9 789.7,168.7 789.7,168.1 789.9,168.3 790.1,168.2 790.3,168.9 790.7,168.6 791.0,169.0 791.5,168.7 791.8,169.2 792.1,168.9 792.3,168.8 792.5,169.7 792.7,169.8 792.9,169.6 793.1,168.9 793.2,169.2 793.5,168.8 794.0,167.9 794.1,167.8 794.3,167.7 794.5,168.5 794.9,168.2 795.3,167.1 795.8,168.2 796.4,168.3 796.8,169.3 797.2,169.5 797.5,169.5 798.0,168.7 798.5,168.4 799.0,167.8 799.2,168.3 799.6,168.7 799.9,168.0 800.3,168.6 800.5,167.8 801.0,167.4 801.6,167.7 802.4,168.4 803.4,168.7 803.9,168.0 804.5,167.3 805.1,166.7 805.6,167.1 806.3,167.7 807.4,166.9 808.2,166.5 808.6,166.6 809.6,166.9 809.9,167.8 810.6,167.8 810.7,168.4 811.0,168.1 811.4,167.8 812.1,167.3 812.4,167.6 813.1,167.8 813.6,167.4 814.1,166.6 814.7,166.6 815.4,167.1 815.8,167.4 816.6,167.4 817.2,167.5 817.6,166.7 817.8,167.3 818.3,167.2 818.9,167.6 819.4,167.7 820.2,167.9 821.1,167.4 821.1,168.7 821.2,169.3 821.2,169.7 821.2,170.2 821.2,170.3 821.3,171.0 821.3,171.1 821.3,170.4 821.3,170.5 821.4,170.9 821.4,171.5 821.4,171.5 821.5,171.8 821.6,171.9 821.7,170.8 821.8,171.1 821.8,170.8 821.9,171.5 821.9,172.0 822.0,172.1 822.0,172.4 822.1,173.2 822.1,173.1 822.3,172.4 822.3,172.2 822.4,172.8 822.4,173.4 822.4,173.0 822.5,172.9 822.6,173.9 822.6,175.2 822.6,175.2 822.7,175.3 822.7,177.2 822.8,177.9 822.8,177.9 822.8,179.8 822.9,179.0 822.9,178.3 823.0,177.3 823.0,178.3 823.0,177.4 823.0,176.6 823.0,177.8 823.1,176.7 823.2,177.4 823.3,178.5 823.3,179.5 823.3,180.5 823.4,180.9 823.4,182.7 823.4,183.0 823.5,183.7 823.5,183.3 823.5,182.8 823.5,181.2 823.6,181.0 823.6,181.9 823.7,182.2 823.7,183.5 823.7,184.3 823.7,184.6 823.8,182.0 823.8,183.0 823.8,181.9 823.9,182.0 824.0,181.9 824.0,180.9 824.1,181.9 824.1,181.5 824.1,181.0 824.2,181.8 824.2,182.7 824.2,182.3 824.3,183.5 824.3,182.9 824.3,182.2 824.3,181.9 824.4,182.4 824.5,182.8 824.6,183.7 824.6,185.5 824.6,186.2 824.6,186.4 824.7,187.3 824.7,186.7 824.7,187.3 824.8,188.0 824.8,188.0 824.8,190.0 824.8,192.3 824.9,194.5 824.9,200.3 824.9,204.4 825.0,209.4 825.0,203.3 825.0,196.6 825.0,195.7 825.1,195.7 825.2,198.0 825.2,196.9 825.2,195.3 825.3,196.4 825.3,198.0 825.3,197.4 825.3,199.8 825.3,194.6 825.4,195.2 825.4,193.8 825.5,194.9 825.5,198.0 825.5,196.9 825.6,198.6 825.6,195.6 825.6,196.1 825.6,196.5 825.7,195.7 825.7,196.3 825.8,197.0 825.8,195.8 825.8,194.6 825.8,193.8 825.9,193.7 825.9,194.0 825.9,195.1 825.9,194.2 826.0,194.5 826.0,195.5 826.1,195.7 826.1,195.8 826.1,196.7 826.1,195.4 826.1,194.2 826.1,194.6 826.2,193.8 826.2,194.5 826.3,195.2 826.3,196.1 826.3,197.2 826.4,197.5 826.4,199.1 826.4,200.9 826.4,199.8 826.4,198.6 826.5,197.8 826.5,198.1 826.5,196.5 826.6,197.4 826.6,198.7 826.6,199.7 826.6,199.6 826.6,200.4 826.6,201.0 826.7,200.6 826.7,201.3 826.7,203.8 826.7,205.7 826.8,208.0 826.8,212.7 826.9,220.2 826.9,219.5 827.0,207.5 827.0,205.3 827.0,206.9 827.1,208.1 827.1,207.5 827.1,210.3 827.2,213.4 827.2,208.4 827.3,205.3 827.3,208.0 827.3,208.0 827.4,209.3 827.4,210.8 827.5,211.7 827.5,214.8 827.6,216.8 827.6,216.7 827.6,212.3 827.6,212.1 827.7,213.2 827.7,212.4 827.7,213.3 827.8,209.7 827.8,208.6 827.9,207.6 827.9,207.9 827.9,207.5 828.0,207.0 828.1,207.0 828.1,205.7 828.2,205.1 828.2,207.4 828.3,207.1 828.3,206.4 828.3,205.9 828.4,204.3 828.5,204.7 828.5,204.8 828.5,205.8 828.5,206.9 828.6,206.7 828.6,205.6 828.7,205.0 828.7,204.3 828.7,205.6 828.8,204.3 828.8,206.5 828.8,205.9 828.8,205.8 828.9,205.3 828.9,204.8 829.0,204.2 829.0,203.8 829.0,204.0 829.0,204.3 829.1,205.0 829.1,206.5 829.2,205.9 829.2,206.1 829.2,206.2 829.3,206.6 829.3,207.5 829.4,207.9 829.4,207.7 829.4,208.0 829.4,207.4 829.5,206.4 829.5,206.2 829.6,205.3 829.6,206.0 829.6,206.3 829.7,206.5 829.7,205.3 829.8,205.4 829.9,204.5 830.0,204.1 830.1,204.3 830.1,204.6 830.2,205.6 830.4,204.7 830.4,205.7 830.5,205.9 830.5,205.8 830.6,205.4 830.7,205.8 830.7,204.7 830.8,203.8 830.8,204.7 830.9,205.7 831.0,204.9 831.1,205.6 831.1,205.3 831.2,205.6 831.2,205.1 831.2,204.9 831.3,204.8 831.4,203.4 831.4,203.8 831.5,201.6 831.5,202.7 831.5,203.0 831.6,203.6 831.6,203.5 831.7,204.2 831.8,204.7 831.9,204.7 832.0,205.3 832.2,205.5 832.3,206.6 832.4,204.8 832.5,205.7 832.6,204.8 832.7,203.9 832.8,203.5 832.8,203.2 832.9,204.3 833.0,203.1 833.1,203.6 833.2,204.2 833.3,204.4 833.4,205.4 833.5,205.4 833.6,205.4 833.6,204.9 833.7,205.7 833.8,206.4 833.8,205.7 833.9,207.3 834.0,206.9 834.1,207.4 834.1,209.3 834.2,207.8 834.2,209.6 834.3,206.8 834.3,208.0 834.4,208.9 834.4,210.4 834.5,210.5 834.5,211.2 834.6,214.1 834.6,213.8 834.7,214.9 834.7,217.6 834.8,219.0 834.8,221.2 834.9,224.7 834.9,230.5 835.0,236.5 835.0,239.2 835.0,237.6 835.1,243.1 835.1,237.9 835.2,232.6 835.3,233.6 835.4,231.2 835.4,232.8 835.5,238.2 835.6,244.2 835.6,244.9 835.6,253.2 835.7,260.8 835.8,256.2 835.9,250.5 835.9,245.2 836.0,248.4 836.0,245.9 836.1,244.0 836.1,244.2 836.2,245.1 836.3,247.4 836.3,252.4 836.3,260.5 836.4,253.2 836.5,256.9 836.5,260.1 836.6,263.1 836.6,273.4 836.7,279.0 836.7,281.8 836.8,280.0 836.8,275.0 836.9,273.3 836.9,285.3 836.9,289.5 837.0,288.1 837.1,307.2 837.1,308.4 837.1,307.9 837.2,320.3 837.2,314.6 837.2,312.3 837.3,316.5 837.3,302.1 837.3,320.4 837.3,326.4 837.4,329.4 837.4,350.7 837.5,348.2 837.6,343.8 837.7,338.3 837.7,333.9 837.7,343.3 837.8,350.2 837.8,355.0 837.9,356.6 837.9,362.0 838.0,376.9 838.0,380.3 838.1,403.0 838.2,397.7 838.2,411.5 838.3,411.4 838.4,419.8 838.5,424.3 838.5,423.9 838.5,423.9 838.6,423.9 838.6,426.0 838.7,430.7 838.8,417.9 838.8,432.8 838.9,423.8 839.0,426.5 839.1,429.2 839.2,429.5 839.3,412.1 839.4,430.8 839.6,423.8 839.7,427.2 840.0,427.0 840.1,427.3 840.2,427.2 840.4,426.3 840.5,430.3 840.6,427.6 840.7,426.8 840.7,425.4 840.8,422.8 840.9,420.6 840.9,419.6 841.0,418.0 841.1,417.7 841.1,414.7 841.2,414.8 841.3,412.6 841.3,415.0 841.4,416.0 841.4,416.9 841.4,419.0 841.5,425.4 841.5,424.6 841.6,422.1 841.7,428.1 841.8,426.3 841.8,429.5 841.9,429.1 841.9,425.0 841.9,425.5 842.0,422.9 842.1,423.4 842.2,422.3 842.3,422.4 842.3,422.5 842.4,423.1 842.5,421.3 842.6,420.4 842.6,420.5 842.7,419.7 842.7,420.2 842.7,420.1 842.7,420.9 842.8,421.0 842.9,419.0 843.0,418.1 843.1,416.5 843.1,415.8 843.1,413.7 843.2,413.8 843.3,414.3 843.3,414.1 843.4,414.3 843.4,414.0 843.5,414.3 843.6,414.2 843.7,410.7 843.8,409.7 843.9,408.4 844.0,397.0 844.0,404.4 844.1,401.7 844.3,401.8 844.3,401.3 844.4,400.5 844.5,396.6 844.6,395.1 844.7,396.5 844.8,393.7 844.9,388.4 845.0,381.8 845.1,381.3 845.1,377.2 845.2,371.1 845.3,374.5 845.5,371.5 845.6,376.0 845.7,366.7 845.8,365.2 846.0,369.8 846.1,366.5 846.2,358.9 846.2,368.6 846.3,360.5 846.5,366.1 846.6,368.3 846.8,359.4 846.9,362.0 847.0,371.9 847.1,362.4 847.2,362.0 847.3,352.6 847.3,348.7 847.4,337.6 847.4,344.8 847.5,337.8 847.5,337.5 847.6,333.8 847.7,333.3 847.8,333.8 847.8,339.4 847.9,337.5 848.0,339.1 848.1,340.5 848.3,342.2 848.4,344.9 848.6,348.5 848.7,347.5 848.8,349.4 848.9,350.6 849.1,351.1 849.2,354.5 849.3,355.2 849.5,355.3 849.6,360.7 849.7,359.0 849.8,361.7 849.9,356.3 849.9,344.0 849.9,337.9 850.0,338.9 850.1,339.6 850.2,329.8 850.2,321.4 850.2,332.2 850.3,336.4 850.3,337.5 850.4,341.3 850.5,335.4 850.7,342.5 850.8,344.6 850.9,335.8 850.9,340.3 851.1,343.2 851.3,342.7 851.5,333.7 851.6,335.4 851.7,337.5 851.9,331.5 852.0,328.8 852.1,328.5 852.2,323.8 852.3,326.0 852.3,328.9 852.4,321.3 852.5,318.1 852.6,312.4 852.7,313.3 852.8,309.8 852.8,315.7 852.9,314.0 853.0,313.9 853.1,309.8 853.2,305.4 853.3,308.2 853.4,299.8 853.6,301.3 853.7,300.3 853.8,298.3 853.9,306.0 854.0,298.8 854.1,297.8 854.3,293.8 854.4,288.1 854.4,286.5 854.4,286.1 854.5,275.3 854.5,269.4 854.6,274.0 854.7,280.2 854.8,277.0 855.0,274.7 855.1,278.9 855.2,288.6 855.2,287.1 855.4,285.9 855.5,291.5 855.6,283.1 855.7,295.3 855.8,288.3 855.9,295.5 855.9,292.6 856.0,295.6 856.1,295.1 856.3,289.7 856.4,288.1 856.6,285.2 856.8,285.4 856.9,284.0 856.9,285.5 857.0,285.5 857.1,284.3 857.1,285.6 857.2,286.9 857.3,287.0 857.3,285.4 857.4,283.9 857.4,284.0 857.5,287.8 857.5,289.9 857.6,283.8 857.7,284.4 857.8,282.4 857.9,283.1 857.9,283.7 858.0,283.6 858.1,283.2 858.1,284.3 858.2,281.7 858.2,283.2 858.3,282.8 858.3,282.9 858.3,281.9 858.4,283.7 858.4,284.1 858.5,284.2 858.5,285.1 858.6,285.1 858.6,284.7 858.6,286.0 858.7,286.0 858.7,286.5 858.7,287.0 858.7,287.3 858.7,288.2 858.7,288.8 858.8,287.6 858.8,286.7 858.8,286.1 858.8,285.8 858.8,285.3 858.8,284.9 858.9,285.0 858.9,284.5 859.0,287.5 859.1,288.3 859.2,288.8 859.2,288.0 859.3,287.6 859.3,288.0 859.3,289.3 859.3,289.7 859.3,290.0 859.3,290.1 859.4,290.6 859.4,291.1 859.4,291.8 859.4,292.3 859.4,291.4 859.4,290.8 859.4,288.7 859.5,290.5 859.6,292.2 859.6,291.5 859.7,287.9 859.7,290.5 859.7,289.4 859.7,289.0 859.8,289.0 859.8,287.7 859.8,286.7 859.8,286.0 859.8,285.1 859.9,283.9 859.9,281.6 859.9,282.5 860.0,282.6 860.0,284.0 860.0,284.0 860.1,285.9 860.2,288.2 860.3,289.0 860.3,287.5 860.4,286.7 860.4,286.5 860.5,286.7 860.5,286.2 860.5,284.8 860.5,284.2 860.5,285.1 860.5,284.0 860.5,285.2 860.6,285.7 860.6,287.1 860.6,287.3 860.6,287.7 860.7,288.1 860.8,288.5 860.8,289.1 860.8,285.5 860.9,284.6 860.9,283.7 860.9,282.8 860.9,282.2 860.9,282.4 861.0,282.4 861.0,283.6 861.0,285.5 861.0,285.9 861.1,286.1 861.1,285.7 861.1,287.3 861.2,287.9 861.2,287.1 861.3,287.4 861.4,285.2 861.4,283.7 861.5,282.1 861.5,282.6 861.6,282.2 861.6,278.4 861.7,282.4 861.7,283.5 861.7,284.5 861.7,281.6 861.8,280.0 861.8,277.0 861.9,282.8 862.0,279.1 862.2,283.4 862.2,284.7 862.2,285.6 862.2,286.6 862.3,288.7 862.3,288.2 862.3,289.1 862.3,287.9 862.3,286.2 862.4,285.3 862.4,283.6 862.4,285.3 862.5,281.7 862.5,280.4 862.7,281.8 862.7,281.8 862.8,283.3 862.8,284.0 862.8,284.7 862.9,284.9 863.0,282.6 863.0,285.3 863.1,284.8 863.2,287.1 863.3,285.1 863.3,286.8 863.3,283.0 863.4,287.0 863.4,286.5 863.4,286.4 863.5,287.2 863.5,287.3 863.6,288.0 863.7,289.0 863.8,289.8 863.9,288.4 864.0,291.2 864.0,292.6 864.2,294.4 864.2,296.2 864.3,297.4 864.4,292.6 864.5,293.3 864.5,294.2 864.5,294.6 864.6,297.2 864.6,294.5 864.7,297.6 864.8,299.5 865.0,302.4 865.1,302.5 865.1,304.1 865.2,301.7 865.3,302.7 865.3,304.1 865.4,306.0 865.6,305.7 865.7,307.0 865.8,308.8 865.8,309.6 865.8,308.4 865.9,309.2 865.9,311.3 865.9,315.4 866.0,320.7 866.1,321.9 866.2,333.6 866.2,332.8 866.3,329.2 866.3,326.9 866.3,326.2 866.3,324.1 866.3,318.2 866.3,316.0 866.4,316.1 866.4,314.3 866.4,313.1 866.4,316.8 866.4,313.4 866.4,311.3 866.5,312.8 866.5,310.1 866.5,310.4 866.5,309.3 866.6,307.9 866.6,307.8 866.6,305.6 866.7,308.8 866.8,304.7 866.9,309.0 866.9,309.8 866.9,306.7 867.0,306.5 867.0,305.5 867.0,307.4 867.0,305.1 867.0,304.5 867.1,303.3 867.1,304.7 867.1,304.4 867.2,301.6 867.2,300.0 867.4,303.2 867.4,301.5 867.5,301.5 867.5,301.4 867.6,300.0 867.7,301.5 867.7,300.6 867.7,299.4 867.8,298.5 867.9,298.1 868.0,299.8 868.0,294.9 868.1,294.1 868.1,293.1 868.1,293.7 868.2,292.7 868.2,292.4 868.2,291.4 868.3,291.6 868.4,291.5 868.5,292.7 868.6,292.2 868.7,294.5 868.8,290.7 868.8,289.9 868.9,289.0 869.1,289.5 869.3,295.0 869.3,289.3 869.4,290.7 869.4,293.2 869.5,294.7 869.6,289.2 869.8,294.4 869.9,294.4 870.0,294.7 870.1,292.1 870.3,292.2 870.5,293.3 870.5,297.4 870.6,291.3 870.8,285.2 871.0,292.0 871.2,291.8 871.5,290.1 871.6,289.2 871.9,291.3 872.1,292.9 872.3,290.7 872.4,292.8 872.5,290.5 872.5,289.5 872.6,289.0 872.7,291.6 872.8,290.0 872.9,289.5 873.0,290.2 873.2,292.1 873.3,291.1 873.3,292.7 873.4,288.9 873.5,292.9 873.6,292.3 873.7,291.8 873.7,293.0 873.9,292.1 874.0,291.6 874.1,290.8 874.3,292.7 874.4,297.0 874.6,290.6 874.6,289.2 874.8,292.7 874.9,290.8 875.0,292.7 875.3,295.2 875.4,294.6 875.7,295.3 875.8,294.4 875.8,295.8 876.1,295.8 876.2,297.3 876.4,296.8 876.5,297.0 876.6,298.2 876.7,299.7 876.9,300.3 877.1,299.2 877.1,300.6 877.1,301.6 877.2,301.1 877.3,297.7 877.4,297.5 877.6,298.5 877.8,300.0 877.9,299.0 878.2,299.4 878.3,296.7 878.6,299.8 878.7,301.6 878.8,300.9 878.8,300.9 879.0,302.5 879.0,302.8 879.2,303.0 879.3,302.3 879.4,302.2 879.5,299.1 879.6,300.1 879.7,299.3 879.9,300.0 880.0,301.1 880.0,302.5 880.1,300.0 880.1,299.6 880.2,298.7 880.3,298.6 880.3,299.4 880.4,301.0 880.6,300.5 880.6,300.4 880.7,300.6 880.8,302.0 880.8,301.6 880.9,300.5 881.0,301.8 881.1,302.6 881.2,302.4 881.4,301.5 881.5,301.2 881.6,300.3 881.7,301.0 881.7,300.9 881.8,302.3 881.9,301.4 882.0,301.2 882.1,302.1 882.2,303.8 882.3,302.4 882.4,301.3 882.5,305.1 882.5,303.8 882.5,301.7 882.6,302.1 882.8,303.4 883.0,302.3 883.2,299.6 883.3,299.8 883.4,300.5 883.5,300.1 883.5,300.5 883.7,301.4 884.0,300.5 884.2,300.0 884.3,299.5 884.7,300.1 884.8,300.1 885.0,300.9 885.1,299.4 885.3,298.9 885.4,300.0 885.5,297.3 885.6,297.2 885.7,297.0 886.0,297.0 886.0,297.0 886.1,294.0 886.4,294.1 886.5,293.9 886.6,295.2 886.8,294.8 886.8,293.1 886.9,294.7 887.0,293.4 887.1,294.1 887.2,294.3 887.3,294.4 887.4,293.4 887.5,293.8 887.6,293.5 887.6,294.8 887.6,294.6 887.6,291.5 887.7,290.8 887.7,291.9 887.7,293.2 887.8,293.0 888.0,292.3 888.1,294.3 888.2,292.7 888.2,292.5 888.3,292.5 888.3,292.3 888.4,291.8 888.5,291.6 888.5,291.3 888.6,290.6 888.7,291.0 888.9,291.5 888.9,291.1 889.0,290.9 889.0,289.6 889.1,290.1 889.3,290.6 889.4,290.1 889.5,289.6 889.5,288.7 889.6,289.9 889.7,289.8 889.8,290.2 890.0,289.8 890.0,290.0 890.1,290.1 890.2,291.4 890.3,291.5 890.4,290.5 890.5,290.1 890.6,291.5 890.7,290.4 890.8,291.2 891.0,289.7 891.1,287.9 891.2,289.5 891.2,289.7 891.2,289.2 891.3,289.9 891.4,288.3 891.4,288.9 891.5,289.4 891.5,287.9 891.6,288.6 891.7,287.4 891.7,288.7 891.8,287.2 891.8,288.0 891.9,288.4 891.9,288.7 892.0,287.7 892.1,288.6 892.2,289.2 892.4,288.4 892.4,288.4 892.6,289.3 892.7,290.0 892.8,290.7 892.9,290.7 893.0,290.7 893.1,290.7 893.1,290.6 893.2,290.7 893.3,291.1 893.4,291.1 893.5,290.6 893.5,290.7 893.6,291.4 893.7,291.5 893.8,290.9 893.9,292.2 893.9,290.9 894.0,292.1 894.1,290.9 894.2,291.1 894.3,291.7 894.5,291.3 894.6,290.6 894.7,292.4 894.9,292.5 895.2,292.4 895.4,292.8 895.7,293.0 895.9,292.9 896.1,292.3 896.3,291.5 896.4,291.6 896.6,293.8 896.9,291.8 897.2,292.0 897.3,295.3 897.6,291.9 897.8,291.0 898.2,288.3 898.3,289.6 898.7,291.1 899.0,292.0 899.1,292.0 899.5,293.9 899.6,293.3 899.7,294.0 899.9,295.1 900.1,293.8 900.4,293.0 900.6,294.0 900.8,293.9 901.0,294.8 901.3,295.1 901.4,295.2 901.7,295.5 902.0,295.5 902.1,295.6 902.3,295.8 902.5,294.3 902.7,293.5 903.1,294.1 903.2,294.3 903.6,294.2 903.7,294.1 904.1,294.8 904.3,293.5 904.5,291.6 904.8,292.4 905.0,292.9 905.2,293.9 905.5,293.1 905.8,294.6 906.0,294.1 906.2,291.8 906.4,291.0 906.6,291.1 906.8,290.4 907.1,289.1 907.3,288.3 907.6,286.6 908.0,286.1 908.5,285.2 908.7,285.5 908.9,285.5 909.1,285.3 909.3,285.5 909.7,285.5 910.1,284.5 910.6,285.1 910.9,285.6 911.3,283.4 911.6,282.8 912.0,281.9 912.2,282.6 912.2,280.9 912.6,281.5 912.8,280.7 913.0,280.9 913.2,281.9 913.5,280.8 913.8,277.2 913.9,277.1 914.0,276.2 914.1,274.7 914.2,274.1 914.4,274.0 914.4,271.4 914.5,272.2 914.6,273.8 914.6,274.5 914.6,273.9 914.7,274.0 914.8,274.5 914.9,273.4 915.0,273.7 915.1,274.5 915.2,273.7 915.3,273.5 915.5,273.8 915.5,273.6 915.6,273.2 915.8,272.9 915.9,272.5 916.1,271.5 916.3,271.0 916.5,271.8 916.6,271.6 916.8,271.5 916.9,269.8 917.1,268.6 917.2,270.2 917.4,269.5 917.6,268.4 917.6,268.6 917.8,268.8 917.9,268.7 918.0,268.6 918.1,268.4 918.2,268.2 918.3,269.4 918.5,271.5 918.7,269.5 918.9,269.0 919.1,269.1 919.2,269.9 919.4,269.8 919.6,268.2 919.8,267.8 919.8,268.7 919.9,267.8 920.1,268.4 920.3,267.1 920.3,267.4 920.4,267.4 920.5,267.8 920.7,267.6 920.8,268.2 920.9,268.6 921.0,268.4 921.1,269.5 921.3,269.3 921.3,270.3 921.5,268.8 921.6,268.6 921.8,269.8 922.0,268.6 922.1,269.4 922.2,270.4 922.3,270.6 922.3,269.6 922.4,270.3 922.5,270.6 922.7,271.6 922.8,270.5 922.9,270.6 923.1,269.8 923.2,269.2 923.3,269.2 923.5,269.0 923.5,267.9 923.7,267.0 923.9,266.9 923.9,267.2 924.0,266.6 924.1,266.7 924.2,267.0 924.2,267.8 924.3,266.5 924.5,266.7 924.5,267.2 924.6,266.3 924.7,267.1 924.7,265.9 924.8,265.8 924.9,265.8 925.0,265.2 925.0,265.0 925.1,265.3 925.1,264.7 925.2,264.8 925.2,265.2 925.2,265.0 925.3,265.6 925.3,265.3 925.3,265.9 925.4,266.3 925.5,265.8 925.6,265.5 925.7,266.5 925.7,265.9 925.8,266.2 925.9,266.4 925.9,266.2 926.0,266.7 926.1,266.9 926.1,266.7 926.2,267.0 926.2,266.7 926.3,266.9 926.3,267.1 926.4,268.1 926.4,268.8 926.5,268.2 926.5,269.1 926.6,269.2 926.6,268.8 926.7,268.9 926.8,269.9 926.9,268.8 926.9,268.5 927.0,269.7 927.0,269.6 927.0,270.4 927.1,270.7 927.2,270.2 927.3,270.6 927.4,270.3 927.4,271.0 927.5,270.3 927.6,270.8 927.6,272.2 927.7,272.1 927.7,273.3 927.8,273.7 927.8,273.6 927.9,273.3 928.1,273.7 928.1,273.8 928.2,272.8 928.3,272.5 928.4,272.7 928.7,272.5 928.9,274.8 929.1,273.7 929.4,273.9 929.6,275.0 929.9,275.0 930.1,275.3 930.1,275.3 930.3,276.9 930.6,275.8 930.7,278.2 930.9,278.0 931.2,276.8 931.3,278.7 931.4,280.9 931.6,279.9 931.8,280.1 932.0,280.4 932.1,281.1 932.3,279.8 932.4,281.6 932.6,281.5 932.8,280.4 933.0,279.5 933.1,278.6 933.4,278.5 933.6,280.3 933.8,279.4 934.0,279.1" fill="none" stroke="#d97706" stroke-width="1.2" stroke-linejoin="round" opacity="0.6"/><text x="942" y="472.0" text-anchor="start" font-size="11" fill="#d97706">0.05</text><text x="942" y="396.0" text-anchor="start" font-size="11" fill="#d97706">0.08</text><text x="942" y="320.0" text-anchor="start" font-size="11" fill="#d97706">0.12</text><text x="942" y="244.0" text-anchor="start" font-size="11" fill="#d97706">0.15</text><text x="942" y="168.0" text-anchor="start" font-size="11" fill="#d97706">0.19</text><text x="942" y="92.0" text-anchor="start" font-size="11" fill="#d97706">0.22</text><text x="942" y="80.0" text-anchor="start" font-size="11" font-weight="600" fill="#d97706">price</text>
  <polygon points="186.5,468.0 186.5,402.7 186.5,402.9 196.1,403.1 203.1,402.2 218.2,402.4 225.0,402.5 230.3,402.8 285.3,403.0 331.3,402.5 373.0,402.7 376.5,402.8 397.5,403.0 400.4,403.3 557.3,402.8 563.3,402.9 564.5,403.1 571.0,403.3 611.8,402.3 613.6,401.7 619.2,401.9 623.0,402.1 626.0,401.2 626.1,401.4 627.1,401.6 631.3,400.7 631.9,400.2 632.0,400.3 632.5,400.5 632.7,400.7 633.4,401.0 633.4,401.1 633.5,401.3 633.6,401.5 633.8,401.8 648.5,401.9 652.1,402.1 678.3,402.3 708.5,401.3 711.7,401.4 712.9,401.6 762.7,401.8 766.3,402.1 768.6,402.2 770.6,402.4 772.4,402.6 773.4,401.6 773.6,401.7 821.4,401.9 822.8,401.1 823.1,401.2 823.3,401.4 823.4,400.6 823.5,400.7 823.7,400.9 823.8,401.1 824.6,401.4 824.8,400.9 824.8,401.0 824.9,400.3 824.9,400.5 824.9,399.8 825.0,399.9 825.0,400.1 825.0,399.3 825.0,398.8 825.3,398.9 825.3,399.1 825.3,399.3 825.3,399.6 825.5,399.7 825.5,399.9 825.6,400.1 825.6,400.4 825.6,400.5 825.7,400.7 825.8,400.9 826.1,401.2 826.1,401.3 826.3,401.5 826.4,400.7 826.5,400.1 826.5,400.3 826.5,400.4 826.6,400.7 826.7,399.6 826.8,399.1 826.8,399.2 826.9,398.6 826.9,398.7 826.9,398.9 826.9,399.1 826.9,399.4 826.9,399.5 826.9,399.7 826.9,398.9 826.9,399.0 826.9,399.2 826.9,398.4 826.9,398.5 826.9,398.7 826.9,398.9 826.9,399.2 826.9,398.6 827.0,398.1 827.0,398.2 827.0,398.4 827.0,398.6 827.0,398.9 827.1,399.0 827.1,399.2 827.1,399.4 827.1,399.7 827.1,399.9 827.1,400.0 827.1,400.2 827.2,400.5 827.2,400.7 827.2,400.8 827.4,401.1 827.5,400.0 827.5,400.2 827.6,400.3 827.6,399.5 827.7,399.6 827.7,399.8 827.7,400.0 827.8,400.3 827.8,400.4 828.5,399.8 828.5,399.9 828.7,400.1 828.7,400.3 828.8,400.6 831.5,400.7 831.6,400.9 834.2,400.1 834.4,400.2 834.6,399.6 834.6,399.7 834.6,399.9 834.6,400.1 834.6,400.4 834.6,400.5 834.6,400.7 834.6,400.9 834.6,401.2 834.8,400.6 834.9,400.1 834.9,400.3 834.9,399.6 834.9,399.7 834.9,399.9 835.0,400.1 835.0,400.4 835.0,400.5 835.0,400.7 835.0,400.9 835.0,399.9 835.0,400.0 835.0,400.2 835.1,400.4 835.1,400.7 835.1,400.8 835.1,401.0 835.1,400.2 835.1,400.3 835.1,399.7 835.1,399.1 835.3,399.3 835.3,399.4 835.5,399.7 835.5,398.6 835.5,398.8 835.5,398.9 835.5,399.2 835.6,398.1 835.6,398.3 835.7,397.6 835.7,397.7 835.7,397.9 835.7,397.1 835.7,396.6 835.7,396.7 835.7,396.0 835.7,395.5 835.7,395.6 835.7,395.0 835.7,395.1 835.7,395.3 835.7,394.5 835.7,393.9 835.8,393.4 835.9,393.6 836.1,392.9 836.1,393.0 836.1,393.2 836.2,393.4 836.3,392.4 836.3,392.5 836.3,391.9 836.3,392.0 836.3,391.3 836.3,391.5 836.4,390.8 836.4,391.0 836.4,391.1 836.4,391.4 836.4,390.3 836.4,389.8 836.5,389.3 836.5,389.4 836.5,388.7 836.6,388.2 836.6,388.4 836.6,388.5 836.6,388.7 836.6,389.0 836.6,389.2 836.6,388.5 836.6,388.6 836.6,388.8 836.6,388.0 836.6,387.5 836.6,387.6 836.6,386.9 836.6,387.1 836.6,387.2 836.6,387.5 836.6,387.7 836.6,387.2 836.6,387.3 836.7,387.5 836.7,386.7 836.7,386.2 836.7,386.3 836.7,386.5 836.7,386.7 836.7,387.0 836.7,387.1 836.7,387.3 836.7,387.5 836.7,387.8 836.7,387.9 836.7,388.1 836.7,388.3 836.7,388.6 836.7,388.7 836.8,388.1 836.8,388.2 836.8,388.4 836.8,388.6 836.8,388.9 836.8,388.3 836.8,388.5 836.8,387.8 836.9,388.0 836.9,388.1 836.9,388.3 836.9,387.3 836.9,387.4 836.9,386.8 836.9,386.9 836.9,387.1 836.9,387.3 836.9,387.6 836.9,387.7 836.9,387.9 836.9,387.1 836.9,387.2 836.9,387.4 836.9,387.6 836.9,386.6 837.0,386.7 837.0,386.1 837.0,386.2 837.0,386.4 837.0,386.6 837.0,386.9 837.0,387.0 837.0,387.2 837.0,387.4 837.0,386.4 837.0,386.5 837.0,386.7 837.1,385.8 837.1,385.3 837.1,385.5 837.1,384.8 837.1,384.9 837.1,385.1 837.1,385.3 837.1,385.6 837.1,385.1 837.1,385.2 837.1,384.6 837.1,384.0 837.1,383.5 837.1,383.6 837.1,383.8 837.1,384.0 837.1,384.3 837.1,384.4 837.1,384.6 837.1,383.8 837.1,383.9 837.2,383.3 837.2,383.4 837.2,382.7 837.2,382.9 837.2,382.2 837.2,381.7 837.2,381.8 837.2,382.0 837.2,382.2 837.2,381.2 837.2,381.3 837.2,381.5 837.3,380.7 837.3,380.8 837.3,380.2 837.3,380.3 837.3,379.6 837.3,379.1 837.3,379.2 837.3,379.4 837.3,378.6 837.3,378.1 837.3,378.2 837.3,377.5 837.3,377.7 837.3,377.9 837.3,378.1 837.3,378.4 837.3,377.8 837.3,378.0 837.3,377.3 837.3,377.4 837.3,377.6 837.3,377.8 837.3,376.8 837.3,376.9 837.4,376.3 837.4,375.7 837.4,375.9 837.4,375.2 837.4,374.7 837.4,374.8 837.4,375.0 837.4,374.2 837.4,374.3 837.4,374.5 837.4,374.7 837.4,375.0 837.4,374.5 837.4,373.9 837.4,374.1 837.4,373.4 837.4,373.6 837.5,372.9 837.5,372.4 837.5,372.5 837.5,371.8 837.5,372.0 837.5,371.3 837.5,371.5 837.5,371.6 837.5,370.8 837.5,370.3 837.5,370.4 837.5,369.8 837.5,369.2 837.5,369.4 837.5,369.5 837.5,368.7 837.5,368.2 837.5,367.6 837.5,367.1 837.5,366.6 837.6,366.7 837.6,366.1 837.6,366.2 837.6,365.5 837.6,365.7 837.6,365.0 837.6,364.5 837.6,364.6 837.6,364.0 837.6,363.4 837.6,363.6 837.6,362.9 837.6,363.1 837.6,362.4 837.6,362.5 837.6,361.9 837.6,361.3 837.7,361.5 837.7,361.7 837.7,360.8 837.7,361.0 837.7,360.3 837.7,359.8 837.7,359.9 837.7,359.3 837.7,359.4 837.7,359.6 837.7,359.8 837.7,360.1 837.7,360.2 837.7,360.4 837.7,360.6 837.7,360.9 837.7,361.0 837.7,361.2 837.7,360.4 837.8,359.8 837.8,360.0 837.8,359.3 837.8,358.8 837.8,358.9 837.8,359.1 837.8,359.3 837.8,359.6 837.8,359.7 837.8,359.9 837.8,360.1 837.8,359.1 837.9,359.2 837.9,359.4 837.9,359.6 837.9,359.9 837.9,360.0 837.9,360.2 837.9,359.4 837.9,359.5 837.9,358.8 837.9,359.0 838.0,358.3 838.0,358.5 838.0,357.8 838.0,357.3 838.0,356.7 838.0,356.9 838.0,356.2 838.0,355.7 838.0,355.2 838.0,355.3 838.0,354.6 838.0,354.1 838.0,354.2 838.0,354.4 838.0,353.6 838.1,353.1 838.1,352.5 838.1,352.0 838.1,352.1 838.1,352.3 838.1,352.5 838.1,352.8 838.1,352.9 838.1,353.1 838.1,352.3 838.1,351.8 838.1,351.9 838.1,352.1 838.1,351.3 838.1,350.7 838.1,350.9 838.1,350.2 838.1,350.3 838.1,349.7 838.1,349.1 838.1,349.3 838.1,348.6 838.1,348.1 838.1,348.2 838.1,347.6 838.2,347.7 838.2,347.1 838.2,347.2 838.2,346.5 838.2,346.7 838.2,346.0 838.2,346.1 838.2,345.5 838.2,345.0 838.2,344.4 838.2,344.6 838.2,343.9 838.2,343.4 838.2,343.5 838.2,342.9 838.2,342.3 838.2,342.5 838.2,341.8 838.2,341.9 838.2,341.3 838.2,340.8 838.2,340.2 838.2,339.7 838.2,339.8 838.2,339.2 838.2,338.7 838.2,338.8 838.2,339.0 838.2,338.1 838.2,337.6 838.3,337.1 838.3,337.2 838.3,336.6 838.3,336.7 838.3,336.0 838.3,335.5 838.3,335.6 838.3,335.0 838.3,335.1 838.3,334.5 838.3,334.6 838.4,334.8 838.4,335.0 838.4,334.0 838.4,333.4 838.4,332.9 838.4,333.0 838.4,332.4 838.4,331.9 838.4,332.0 838.4,331.3 838.4,331.5 838.4,330.8 838.6,331.0 838.6,331.1 838.6,331.3 838.6,331.6 838.6,331.8 838.6,331.1 838.6,331.2 838.6,330.6 838.6,330.7 838.6,330.1 838.6,330.2 838.6,330.4 838.6,330.6 838.6,329.6 838.6,329.7 838.6,329.0 838.6,329.2 838.6,328.5 838.6,328.6 838.6,328.0 838.6,327.5 838.6,326.9 838.6,327.1 838.6,326.4 838.6,325.9 838.7,326.0 838.7,325.4 838.7,324.8 838.7,324.3 838.7,324.4 838.7,323.8 838.7,323.2 838.7,323.4 838.7,322.7 838.7,322.2 838.7,322.3 838.7,321.7 838.7,321.1 838.7,321.3 838.7,320.6 838.7,320.1 838.7,320.2 838.7,319.6 838.7,319.0 838.7,319.2 838.7,318.5 838.8,318.7 838.8,318.0 838.8,317.5 838.8,317.6 838.8,316.9 838.8,316.4 838.8,316.6 838.8,315.9 838.8,316.0 838.8,315.4 838.8,314.8 838.8,315.0 838.8,315.2 838.8,315.4 838.8,314.3 838.8,314.5 838.8,313.8 838.8,313.3 838.8,313.4 838.8,312.8 838.8,312.2 838.8,312.4 838.8,311.7 838.8,311.2 838.9,311.3 838.9,310.7 838.9,310.8 838.9,310.1 838.9,310.3 838.9,309.6 838.9,309.8 838.9,309.1 838.9,308.6 838.9,308.0 838.9,307.5 838.9,307.7 838.9,307.0 838.9,306.5 839.0,305.9 839.0,305.4 839.0,304.9 839.0,305.0 839.0,305.2 839.0,305.4 839.0,304.4 839.1,303.8 839.1,303.3 839.1,303.4 839.1,302.8 839.1,302.3 839.1,301.7 839.1,301.9 839.1,302.0 839.1,301.2 839.1,300.7 839.2,300.2 839.2,299.6 839.2,299.1 839.2,299.2 839.2,298.6 839.2,298.1 839.2,297.5 839.2,297.7 839.2,297.0 839.2,297.1 839.2,296.5 839.2,296.0 839.2,295.4 839.2,294.9 839.2,294.4 839.2,293.8 839.3,294.0 839.3,293.3 839.3,292.8 839.3,292.2 839.3,292.4 839.3,292.6 839.3,291.7 839.3,291.2 839.3,291.3 839.3,290.7 839.3,290.8 839.3,290.2 839.3,289.6 839.3,289.8 839.3,289.1 839.4,288.6 839.4,288.7 839.4,288.1 839.4,287.5 839.4,287.0 839.4,287.1 839.4,286.5 839.4,285.9 839.4,285.4 839.4,285.6 839.4,284.9 839.4,284.4 839.5,283.8 839.5,284.0 839.5,283.3 839.5,283.5 839.5,283.6 839.5,283.8 839.6,282.8 839.6,283.0 839.6,283.1 839.6,283.3 839.6,282.3 839.6,282.4 839.6,281.8 839.6,281.9 839.6,282.1 839.6,282.3 839.6,281.3 839.6,281.4 839.7,280.8 839.7,280.2 839.7,280.4 839.7,279.7 839.7,279.8 839.7,279.2 839.7,279.3 839.7,278.7 839.8,278.1 839.8,278.3 839.8,278.4 839.8,278.7 839.9,277.6 839.9,277.8 839.9,277.9 839.9,278.2 839.9,278.4 839.9,278.6 840.0,278.7 840.0,279.0 840.0,279.2 840.0,279.4 840.0,279.6 840.0,279.8 840.0,280.0 840.0,280.2 840.0,279.5 840.0,279.7 840.0,279.0 840.0,278.5 840.1,278.6 840.1,278.8 840.2,279.0 840.2,279.3 840.2,279.4 840.4,278.8 840.4,278.9 840.4,279.1 840.4,279.3 840.5,279.6 840.5,279.7 840.5,279.9 840.5,280.1 840.5,279.1 840.5,278.5 840.5,278.0 840.6,277.5 840.6,276.9 840.6,276.4 840.6,275.9 840.6,276.0 840.6,276.2 840.6,276.4 840.7,276.7 840.7,276.2 840.7,276.3 840.8,275.6 840.8,275.8 841.0,275.1 841.1,274.6 841.1,274.7 841.2,274.9 841.2,275.1 841.2,275.4 841.3,275.5 841.3,275.7 841.3,274.9 841.3,275.0 841.3,274.4 841.3,273.8 841.3,273.3 841.4,272.8 841.4,272.2 841.4,272.4 841.4,272.5 841.4,271.7 841.4,271.9 841.4,272.0 841.4,272.3 841.4,271.2 841.4,271.4 841.4,270.7 841.5,270.8 841.5,270.2 841.5,269.6 841.5,269.8 841.5,269.1 841.6,268.6 841.6,268.7 841.6,268.9 841.6,269.1 841.6,268.1 841.6,268.2 841.6,268.4 841.7,267.6 841.7,267.7 841.7,267.9 841.7,267.1 841.7,266.5 841.7,266.0 841.7,265.5 841.7,265.6 841.7,264.9 841.7,264.4 841.7,263.9 841.7,263.4 841.8,263.5 841.8,262.8 841.8,263.0 841.8,262.3 841.8,262.5 841.8,261.8 841.8,261.9 841.8,262.1 841.8,262.3 841.8,261.3 841.8,261.4 841.8,260.8 841.8,260.9 841.8,260.3 841.8,260.4 841.8,259.7 841.8,259.9 841.8,259.2 841.8,259.3 841.8,258.7 841.8,258.2 841.8,258.3 841.8,257.6 841.8,257.8 841.9,258.0 841.9,257.1 841.9,257.3 841.9,256.6 841.9,256.1 841.9,256.2 841.9,255.6 841.9,255.0 841.9,255.2 842.0,254.5 842.1,254.6 842.1,254.8 842.2,255.0 842.4,255.3 842.4,255.4 842.4,255.6 842.4,255.8 842.6,254.8 842.6,254.9 842.6,255.1 842.7,255.3 842.7,255.6 842.9,255.7 842.9,255.9 842.9,256.1 842.9,256.4 843.0,256.5 843.0,256.7 843.0,256.9 843.1,257.2 843.1,256.7 843.1,256.8 843.1,257.0 843.2,257.2 843.2,257.5 843.5,256.9 843.5,257.1 843.5,256.4 843.5,255.9 843.5,255.4 843.5,255.5 843.5,254.8 843.6,255.0 843.6,254.3 843.6,253.8 843.7,253.3 843.7,253.4 843.7,253.6 843.7,253.8 843.8,254.1 843.8,254.2 843.9,253.5 844.0,253.7 844.0,253.0 844.0,252.5 844.0,252.6 844.0,252.8 844.0,253.0 844.0,252.0 844.0,252.1 844.1,251.5 844.1,251.6 844.1,251.0 844.1,251.1 844.1,250.4 844.1,250.6 844.1,249.9 844.1,249.4 844.1,249.5 844.1,248.9 844.1,248.3 844.1,248.5 844.1,247.8 844.1,247.3 844.2,247.4 844.2,247.6 844.2,247.8 844.2,248.1 844.2,247.6 844.2,247.0 844.2,247.2 844.2,247.3 844.3,247.6 844.3,247.8 844.3,247.3 844.3,246.8 844.3,246.2 844.3,246.4 844.3,245.7 844.3,245.9 844.3,245.2 844.4,245.3 844.4,244.7 844.4,244.1 844.4,244.3 844.4,243.6 844.4,243.8 844.4,243.1 844.4,242.6 844.4,242.7 844.4,242.9 844.4,242.1 844.5,242.2 844.5,242.4 844.5,241.5 844.5,241.7 844.5,241.9 844.5,242.1 844.5,242.4 844.5,241.8 844.6,242.0 844.6,241.3 844.6,241.4 844.6,241.6 844.6,241.8 844.6,242.1 844.6,242.2 844.6,241.6 844.7,241.1 844.7,241.2 844.7,241.4 844.7,240.5 844.7,240.7 844.7,240.0 844.7,239.5 844.7,239.0 844.7,239.1 844.8,239.3 844.8,238.5 844.8,238.6 844.8,237.9 844.8,237.4 844.8,237.5 844.8,237.7 844.8,236.9 844.8,236.4 844.8,235.8 844.8,236.0 844.8,235.3 844.8,234.8 844.9,234.3 844.9,234.4 844.9,234.6 844.9,234.8 844.9,235.1 844.9,234.5 844.9,234.7 845.0,234.8 845.0,234.0 845.0,233.5 845.0,233.6 845.0,233.8 845.0,234.0 845.0,233.0 845.0,232.4 845.0,231.9 845.1,231.4 845.1,231.5 845.1,231.7 845.1,230.9 845.1,231.0 845.1,230.3 845.1,230.5 845.1,230.7 845.1,230.9 845.1,231.1 845.1,230.6 845.1,230.8 845.1,230.1 845.2,229.6 845.2,229.7 845.2,229.0 845.2,229.2 845.2,229.4 845.2,228.5 845.3,228.7 845.3,228.8 845.3,229.1 845.3,229.3 845.3,229.5 845.3,228.8 845.3,229.0 845.3,228.3 845.3,227.8 845.3,227.9 845.3,227.2 845.3,227.4 845.3,227.6 845.3,227.8 845.3,226.7 845.4,226.9 845.4,226.2 845.4,226.4 845.4,225.7 845.4,225.8 845.4,225.2 845.4,224.6 845.4,224.1 845.5,224.3 845.5,223.6 845.5,223.1 845.5,223.2 845.6,222.5 845.6,222.0 845.6,222.2 845.6,221.5 845.6,221.6 845.6,221.0 845.6,221.1 845.6,221.3 845.6,221.5 845.6,220.5 845.6,220.6 845.6,220.0 845.7,220.1 845.7,220.3 845.7,219.4 845.7,218.9 845.7,219.0 845.7,219.2 845.7,218.4 845.8,217.9 845.8,218.0 845.8,217.3 845.8,217.5 845.8,216.8 845.8,216.3 845.8,216.4 845.8,215.8 845.8,215.9 845.8,215.3 845.8,214.7 845.8,214.9 845.8,215.0 845.8,215.3 845.8,214.2 845.8,213.7 845.8,213.2 845.8,213.3 845.9,213.5 845.9,212.7 845.9,212.8 845.9,212.1 845.9,212.3 845.9,211.6 846.0,211.7 846.0,211.1 846.0,211.2 846.0,210.6 846.0,210.7 846.0,210.0 846.0,210.2 846.0,209.5 846.1,209.0 846.1,208.5 846.1,208.6 846.1,207.9 846.1,207.4 846.1,207.5 846.1,206.9 846.1,207.0 846.1,206.4 846.1,206.5 846.1,205.8 846.2,206.0 846.2,205.3 846.2,205.5 846.2,205.6 846.2,204.8 846.2,204.9 846.2,204.3 846.2,204.4 846.2,204.6 846.2,203.8 846.2,203.2 846.2,203.4 846.2,202.7 846.2,202.9 846.2,202.2 846.2,202.3 846.2,201.7 846.2,201.2 846.2,200.6 846.2,200.1 846.2,200.2 846.2,199.6 846.2,199.7 846.2,199.0 846.2,198.5 846.3,198.0 846.3,198.1 846.3,197.5 846.3,197.6 846.3,197.8 846.3,197.0 846.3,197.1 846.4,196.4 846.4,196.6 846.4,195.9 846.4,196.1 846.4,195.4 846.4,195.5 846.4,195.7 846.4,195.9 846.4,194.9 846.5,195.0 846.5,195.2 846.5,194.4 846.5,194.5 846.5,194.7 846.5,193.9 846.5,193.3 846.6,192.8 846.6,193.0 846.6,193.1 846.6,192.3 846.6,192.4 846.6,191.8 846.7,191.2 846.7,190.7 846.7,190.9 846.7,190.2 846.7,190.3 846.7,189.7 846.7,189.8 846.7,189.2 846.7,189.3 846.8,188.6 846.8,188.1 846.8,188.2 846.8,187.6 846.8,187.7 846.8,187.1 846.8,187.2 846.8,186.5 846.8,186.0 846.8,186.1 846.8,185.5 846.8,185.0 846.9,185.1 846.9,185.3 846.9,184.4 846.9,183.9 846.9,183.4 846.9,183.5 846.9,182.9 846.9,182.3 847.0,182.5 847.0,181.8 847.0,181.9 847.0,181.3 847.0,180.7 847.0,180.9 847.0,180.2 847.0,179.7 847.0,179.2 847.0,179.3 847.0,178.6 847.0,178.8 847.0,178.1 847.0,178.3 847.0,178.4 847.0,178.7 847.0,178.9 847.1,179.1 847.1,179.2 847.1,179.5 847.1,179.7 847.1,179.2 847.1,178.7 847.1,178.8 847.1,178.2 847.1,177.6 847.2,177.8 847.2,177.9 847.2,177.1 847.2,177.3 847.2,176.6 847.2,176.7 847.2,176.9 847.2,177.1 847.2,176.1 847.2,176.2 847.2,175.6 847.2,175.0 847.2,175.2 847.2,175.3 847.2,175.6 847.2,174.5 847.2,174.7 847.2,174.0 847.2,174.2 847.2,174.3 847.2,174.5 847.3,174.8 847.3,175.0 847.3,175.1 847.3,174.3 847.3,174.4 847.3,174.6 847.3,174.8 847.3,175.1 847.3,175.2 847.3,174.6 847.3,174.7 847.3,174.1 847.3,174.2 847.3,174.4 847.3,174.6 847.3,173.6 847.3,173.7 847.3,173.9 847.3,173.0 847.3,173.2 847.3,172.5 847.3,172.7 847.3,172.0 847.3,172.1 847.3,172.3 847.3,172.5 847.4,172.8 847.4,172.9 847.4,173.1 847.4,173.3 847.4,172.3 847.4,172.4 847.4,171.8 847.4,171.9 847.4,171.3 847.4,170.7 847.4,170.2 847.5,169.7 847.5,169.1 847.5,169.3 847.5,169.5 847.5,169.7 847.5,170.0 847.5,169.4 847.5,169.6 847.5,168.9 847.5,168.4 847.5,168.5 847.5,167.9 847.5,168.0 847.5,168.2 847.5,167.3 847.5,167.5 847.5,167.7 847.6,167.9 847.6,168.2 847.6,168.3 847.6,168.5 847.6,167.6 847.6,167.1 847.6,167.3 847.6,166.6 847.6,166.1 847.6,165.5 847.6,165.7 847.6,165.0 847.6,165.1 847.6,165.3 847.6,165.5 847.6,165.8 847.6,165.9 847.6,166.1 847.7,165.3 847.7,164.8 847.7,164.9 847.7,165.1 847.7,165.3 847.7,165.6 847.7,165.7 847.7,165.1 847.7,165.2 847.7,164.5 847.7,164.0 847.7,164.1 847.7,164.3 847.7,164.5 847.7,164.8 847.8,164.9 847.8,165.1 847.8,165.3 847.8,164.3 847.8,164.4 847.8,163.8 847.8,163.3 847.8,163.4 847.8,162.7 847.8,162.9 847.8,163.0 847.8,163.3 847.8,163.5 847.8,163.7 847.8,163.8 847.8,164.1 847.8,164.3 847.9,164.5 847.9,164.7 847.9,164.9 847.9,163.8 847.9,164.0 847.9,164.1 847.9,163.3 847.9,162.8 847.9,162.3 847.9,162.4 848.0,162.6 848.0,162.8 848.0,163.1 848.1,163.2 848.1,163.4 848.1,163.6 848.1,163.9 848.2,164.0 848.2,164.2 848.2,164.4 848.2,164.7 848.2,164.8 848.2,165.0 848.4,165.2 848.4,165.5 848.4,164.9 848.4,164.4 848.4,164.6 848.5,164.7 848.6,164.9 848.6,165.2 848.6,165.4 848.6,165.5 848.6,164.7 848.6,164.8 848.7,165.0 848.8,165.2 848.8,165.5 848.9,165.0 848.9,165.1 848.9,164.5 848.9,164.6 848.9,163.9 848.9,164.1 849.0,164.3 849.0,163.4 849.2,163.6 849.2,162.9 849.2,163.0 849.2,163.2 849.4,163.4 849.4,163.7 849.4,163.8 849.6,164.0 849.6,163.2 849.6,162.7 849.6,162.8 849.6,163.0 849.6,163.2 849.6,162.2 849.7,161.6 849.7,161.8 849.7,161.1 849.7,161.3 849.7,161.4 849.7,161.6 849.7,161.9 849.7,162.1 849.7,162.2 849.7,161.4 849.7,161.5 849.7,161.7 849.7,160.9 849.7,161.0 849.7,161.2 849.8,160.4 849.8,159.9 849.8,159.3 849.8,159.5 849.8,158.8 849.8,158.3 849.8,158.4 849.8,158.6 849.8,158.8 849.8,159.1 849.9,158.5 849.9,158.7 849.9,158.0 849.9,158.2 849.9,157.5 849.9,157.6 849.9,157.0 849.9,157.1 849.9,157.3 849.9,156.5 849.9,156.6 849.9,156.0 849.9,155.4 850.0,154.9 850.0,155.0 850.0,155.2 850.0,155.4 850.0,155.7 850.0,155.8 850.1,156.0 850.1,156.2 850.1,156.5 850.1,156.6 850.1,156.8 850.1,157.0 850.1,157.3 850.1,157.4 850.2,157.6 850.2,157.8 850.2,156.8 850.2,156.3 850.2,156.4 850.2,155.8 850.2,155.9 850.2,155.2 850.2,155.4 850.2,154.7 850.2,154.8 850.2,154.2 850.2,154.3 850.2,154.5 850.2,154.7 850.2,153.7 850.2,153.2 850.2,152.6 850.2,152.8 850.2,152.9 850.2,153.2 850.2,152.1 850.2,152.3 850.2,152.4 850.2,152.7 850.2,152.9 850.2,153.1 850.2,152.4 850.2,151.9 850.2,151.3 850.3,151.5 850.3,150.8 850.3,150.3 850.3,150.4 850.3,149.8 850.3,149.2 850.3,149.4 850.3,149.6 850.3,148.7 850.3,148.9 850.3,149.0 850.3,149.3 850.3,148.2 850.3,148.4 850.3,147.7 850.3,147.2 850.3,147.3 850.3,147.5 850.3,146.7 850.3,146.8 850.3,147.0 850.4,147.2 850.4,147.5 850.4,147.6 850.4,147.8 850.5,148.0 850.5,148.3 850.5,147.7 850.5,147.9 850.5,147.2 850.5,146.7 850.5,146.8 850.5,147.0 850.5,147.2 850.5,146.2 850.5,145.6 850.5,145.8 850.7,146.0 850.7,145.1 850.8,144.6 850.9,144.7 850.9,144.1 850.9,144.2 850.9,143.6 850.9,143.7 850.9,143.9 850.9,144.1 850.9,143.1 850.9,143.2 850.9,143.4 850.9,142.6 850.9,142.7 850.9,142.0 850.9,142.2 850.9,141.5 850.9,141.7 850.9,141.0 850.9,141.1 851.0,141.3 851.0,141.5 851.0,141.8 851.0,141.9 851.0,142.1 851.0,142.3 851.0,142.6 851.0,142.7 851.0,142.9 851.1,143.1 851.2,143.4 851.3,143.5 851.3,143.7 851.3,143.9 851.3,144.2 851.4,144.3 851.4,143.7 851.5,143.2 851.5,143.3 851.5,143.5 851.5,143.7 851.5,142.7 851.6,142.8 851.6,143.0 851.6,143.2 851.6,143.5 851.6,143.6 851.6,143.8 851.6,144.0 851.6,144.3 851.6,144.4 851.6,143.7 851.6,143.9 851.7,143.2 851.7,142.7 851.8,142.2 851.8,142.3 851.8,142.5 851.8,142.7 851.9,141.7 851.9,141.8 852.1,141.1 852.1,141.3 852.1,141.5 852.1,141.7 852.1,142.0 852.1,142.1 852.1,142.3 852.1,142.5 852.1,142.8 852.1,142.9 852.1,143.1 852.1,143.3 852.2,143.6 852.2,143.7 852.2,143.9 852.2,144.1 852.2,144.4 852.2,144.5 852.2,144.7 852.2,144.9 852.2,145.2 852.2,145.3 852.2,144.6 852.2,144.8 852.2,144.1 852.3,144.3 852.3,144.4 852.3,143.6 852.3,143.8 852.4,143.1 852.4,143.2 852.4,143.4 852.4,142.6 852.4,142.1 852.4,142.2 852.4,142.4 852.4,141.5 852.4,141.7 852.4,141.0 852.4,141.2 852.4,140.5 852.5,140.6 852.5,140.0 852.6,140.1 852.6,140.3 852.6,140.5 852.6,140.8 852.6,140.9 852.6,141.1 852.6,141.3 852.6,141.6 852.6,141.0 852.6,141.2 852.6,141.4 852.7,141.6 852.7,141.9 852.7,142.0 852.7,142.2 852.7,142.4 852.7,142.7 852.8,142.1 852.8,142.3 852.8,142.4 852.8,142.7 852.8,142.9 852.8,143.1 852.8,142.4 852.8,142.5 852.8,142.7 852.8,142.9 852.8,143.2 852.8,143.3 852.8,142.7 852.8,142.8 852.8,143.0 852.8,143.2 852.8,143.5 852.8,143.6 852.8,143.8 852.9,144.0 852.9,144.3 852.9,144.4 852.9,144.6 852.9,143.8 852.9,143.9 852.9,143.3 852.9,143.4 852.9,143.6 852.9,143.8 852.9,144.1 852.9,144.2 852.9,144.4 852.9,143.6 852.9,143.7 852.9,143.0 852.9,142.5 852.9,142.0 852.9,142.1 852.9,142.3 852.9,141.5 853.0,141.6 853.0,141.8 853.1,140.9 853.1,141.1 853.1,140.4 853.1,140.6 853.1,139.9 853.1,140.0 853.1,139.4 853.1,139.5 853.1,139.7 853.1,139.9 853.1,140.2 853.2,139.6 853.2,139.8 853.2,139.1 853.2,138.6 853.2,138.7 853.2,138.9 853.3,139.1 853.3,139.4 853.4,138.9 853.4,138.3 853.4,137.8 853.4,137.9 853.4,137.3 853.5,136.8 853.5,136.9 853.5,137.1 853.5,137.3 853.5,137.6 853.7,137.7 853.7,137.9 853.7,138.1 853.7,137.1 853.8,137.2 853.8,137.4 853.8,137.6 853.8,136.6 853.8,136.0 853.8,136.2 853.8,136.3 853.9,136.6 853.9,136.8 853.9,137.0 853.9,137.1 853.9,137.4 853.9,137.6 853.9,137.1 853.9,136.6 853.9,136.1 853.9,135.5 853.9,135.7 853.9,135.0 853.9,135.1 853.9,134.5 853.9,134.6 854.0,134.0 854.0,134.1 854.0,134.3 854.0,134.5 854.0,134.8 854.0,134.9 854.1,135.1 854.1,135.3 854.2,135.6 854.2,135.0 854.2,135.2 854.2,134.5 854.3,134.7 854.3,134.8 854.4,135.0 854.4,134.0 854.4,133.5 854.4,133.0 854.4,133.1 854.4,133.3 854.4,132.4 854.4,132.6 854.4,132.8 854.4,133.0 854.4,133.2 854.4,133.4 854.4,133.6 854.4,132.7 854.4,132.9 854.4,133.1 854.4,133.3 854.4,133.5 854.4,133.7 854.4,133.9 854.4,133.0 854.5,133.2 854.5,132.5 854.5,132.6 854.5,132.0 854.5,132.1 854.5,132.3 854.5,132.5 854.5,131.5 854.5,131.6 854.5,131.8 854.5,132.0 854.5,131.0 854.5,131.1 854.5,130.5 854.5,129.9 854.5,130.1 854.5,130.2 854.6,129.4 854.6,129.5 854.6,128.9 854.7,128.4 854.7,128.5 854.7,128.7 854.7,128.9 854.7,129.2 854.7,128.6 854.8,128.1 854.8,128.2 854.8,127.6 854.9,127.7 854.9,127.9 854.9,128.1 855.0,128.4 855.0,128.5 855.0,128.7 855.0,127.9 855.0,127.3 855.1,126.8 855.1,127.0 855.1,127.1 855.1,126.3 855.1,125.8 855.1,125.9 855.1,126.1 855.1,126.3 855.1,126.6 855.1,126.7 855.1,126.9 855.1,126.1 855.2,125.5 855.2,125.0 855.2,125.1 855.2,124.5 855.2,124.6 855.2,124.8 855.3,125.0 855.3,125.3 855.3,125.4 855.3,124.8 855.4,124.9 855.4,125.1 855.4,124.3 855.4,124.4 855.5,124.6 855.5,124.8 855.5,123.8 855.6,123.9 855.6,123.2 855.6,123.4 855.6,123.6 855.6,123.8 855.6,124.0 855.6,124.2 855.6,123.5 855.6,123.7 855.6,123.0 855.6,122.5 855.6,122.6 855.6,121.9 855.6,122.1 855.6,122.3 855.6,122.5 855.7,122.7 855.7,122.2 855.7,122.3 855.7,122.5 855.7,121.7 855.7,121.8 855.7,121.2 855.7,121.3 855.7,121.5 855.7,121.7 855.7,122.0 855.7,121.5 855.7,121.6 855.9,121.8 855.9,120.9 855.9,120.4 855.9,120.6 855.9,120.7 855.9,120.9 855.9,121.2 855.9,121.4 855.9,121.5 855.9,121.7 855.9,122.0 855.9,121.5 855.9,121.6 855.9,121.0 855.9,120.4 855.9,120.6 855.9,119.9 856.0,119.4 856.0,119.5 856.0,119.7 856.0,118.9 856.0,119.0 856.0,118.3 856.0,118.5 856.0,117.8 856.0,118.0 856.0,118.1 856.0,118.4 856.1,118.6 856.1,118.8 856.1,118.9 856.1,119.2 856.1,119.4 856.5,118.9 856.5,119.0 856.9,119.2 856.9,119.4 856.9,119.7 856.9,119.8 856.9,120.0 856.9,120.2 856.9,120.5 857.3,120.7 857.3,120.8 857.3,121.0 857.3,121.3 857.4,121.5 857.4,121.6 857.4,121.8 857.4,122.1 857.5,121.6 857.5,121.7 857.5,121.9 857.5,122.1 857.5,122.4 857.5,122.5 857.5,122.7 857.6,121.9 857.6,122.0 857.6,122.2 857.6,122.4 857.6,122.7 857.6,122.1 857.6,121.6 857.7,121.8 857.7,121.9 857.7,122.2 858.1,122.4 858.5,122.6 858.6,122.7 858.6,123.0 858.7,121.9 858.8,122.1 858.8,122.2 858.8,122.4 859.0,122.7 859.0,122.9 859.1,123.0 859.2,123.2 859.3,123.5 859.4,123.7 859.4,123.8 859.4,124.1 859.4,124.3 859.6,123.8 859.6,123.3 859.7,123.4 859.8,122.7 859.8,122.9 860.1,123.1 860.3,123.3 860.3,123.5 860.4,123.7 860.5,123.9 860.5,124.1 860.5,124.3 860.8,124.5 860.8,124.7 860.9,123.8 861.0,124.0 861.4,124.1 861.6,124.4 861.6,124.6 861.6,124.8 861.7,125.0 861.7,125.2 861.9,125.4 862.0,124.9 862.1,125.0 862.1,125.2 862.2,124.4 862.2,124.5 862.3,124.7 862.5,123.9 862.5,124.0 862.6,124.2 862.6,124.4 862.7,124.7 862.7,124.8 862.8,125.0 863.0,125.2 863.0,125.5 863.1,125.6 863.2,125.8 863.3,126.0 863.3,126.3 863.3,126.4 863.3,126.6 863.3,126.8 863.4,127.1 863.4,127.2 863.9,126.6 864.0,126.7 864.2,126.0 864.3,126.2 864.4,126.4 864.4,126.6 864.4,125.5 864.5,125.7 864.5,125.9 864.5,126.1 864.7,125.0 864.8,125.2 865.3,124.5 865.4,124.0 865.4,124.1 865.4,124.3 865.8,124.5 865.8,124.8 865.9,124.9 865.9,124.3 865.9,124.4 865.9,124.6 865.9,124.8 866.0,123.8 866.0,123.9 866.0,123.2 866.0,123.4 866.0,123.6 866.0,122.7 866.0,122.9 866.0,122.2 866.0,122.3 866.0,122.5 866.0,122.7 866.0,123.0 866.0,122.5 866.0,122.6 866.0,122.0 866.0,122.1 866.0,121.4 866.0,121.6 866.1,121.8 866.1,120.9 866.1,121.1 866.1,121.2 866.1,120.4 866.1,120.6 866.1,119.9 866.2,119.4 866.2,118.8 866.2,119.0 866.2,119.2 866.2,119.4 866.2,119.6 866.2,119.8 866.3,120.0 866.3,120.2 866.3,120.4 866.3,120.6 866.3,119.9 866.3,120.1 866.3,120.2 866.3,119.4 866.3,119.6 866.3,119.7 866.4,118.9 866.4,119.0 866.4,119.2 866.4,118.4 866.4,118.5 866.5,118.7 866.5,118.9 866.5,119.2 866.5,119.3 866.6,119.5 866.6,119.7 866.6,120.0 866.6,120.1 866.6,120.3 866.6,120.5 866.6,120.8 866.7,120.3 866.8,120.4 866.9,119.7 866.9,119.9 867.0,119.2 867.0,119.4 867.0,119.5 867.1,119.7 867.1,120.0 867.1,120.2 867.1,120.3 867.1,120.6 867.4,120.8 867.4,121.0 867.4,120.3 867.5,119.8 867.5,119.9 867.5,120.1 867.5,120.3 867.5,120.6 867.6,120.7 867.7,120.9 867.7,121.1 867.9,120.1 868.0,119.6 868.0,119.7 868.1,119.0 868.2,119.2 868.5,119.3 868.6,119.6 868.7,119.8 868.8,120.0 869.1,119.3 869.3,118.8 869.3,118.9 869.3,119.1 869.3,118.3 869.4,117.7 869.4,117.9 869.4,118.1 869.5,117.2 869.6,117.4 869.6,117.5 869.6,117.8 869.7,118.0 869.7,118.2 869.8,118.3 869.8,118.6 869.9,118.8 870.1,119.0 870.1,119.1 870.1,119.4 870.1,119.6 870.1,119.8 870.4,119.1 870.4,118.6 870.5,118.7 870.5,118.9 870.5,118.1 870.5,117.5 870.6,117.7 870.7,117.0 870.9,117.2 871.0,117.3 871.0,117.6 871.0,116.5 871.1,116.7 871.2,116.8 871.3,117.1 871.4,117.3 871.6,117.5 871.6,117.6 871.7,117.9 871.7,118.1 871.8,118.3 871.8,118.4 871.9,118.7 872.0,118.9 872.2,119.1 872.2,118.4 872.2,118.5 872.2,117.9 872.3,118.0 872.5,118.2 872.5,118.4 872.5,118.7 872.5,118.8 872.7,119.0 872.7,119.2 873.3,118.2 873.3,118.3 873.3,118.5 873.3,117.7 873.4,117.8 873.4,118.0 873.4,118.2 874.4,117.2 874.4,117.3 874.4,117.5 874.5,116.7 874.8,116.8 874.8,117.0 875.0,117.2 876.1,116.1 876.3,116.3 876.4,116.5 876.6,116.7 877.3,117.0 877.4,117.1 877.4,117.3 878.7,116.4 878.8,116.6 878.8,116.8 878.8,117.0 878.8,117.2 879.5,117.4 879.9,117.6 880.1,117.8 880.1,118.0 880.1,118.2 880.4,118.4 880.6,118.6 880.7,118.8 881.6,119.0 881.6,119.2 882.5,118.3 882.5,118.5 882.5,118.7 882.5,118.9 882.5,119.1 882.5,119.3 882.5,119.5 882.5,119.7 882.8,119.9 883.2,119.4 883.2,119.6 883.3,119.7 883.4,119.9 883.4,120.2 883.5,120.4 884.0,120.5 884.0,120.8 884.2,121.0 884.7,121.2 884.7,121.3 884.7,121.6 884.7,121.8 884.8,122.0 884.8,122.1 885.0,122.4 885.1,122.6 885.1,122.8 885.2,123.0 885.3,123.2 885.4,123.4 886.1,122.9 886.2,123.1 886.4,123.2 886.4,123.4 886.5,123.7 887.4,123.9 887.5,124.0 887.6,124.2 887.8,124.5 887.9,124.7 888.0,124.8 888.1,125.0 888.2,125.3 889.0,124.8 889.4,124.9 889.4,125.1 890.1,125.3 890.7,125.6 890.8,125.7 890.9,125.9 892.8,126.1 892.8,126.4 892.8,126.5 897.8,126.7 898.6,126.9 899.9,125.9 901.7,126.0 902.5,126.2 906.5,125.4 907.8,124.9 912.2,124.3 912.9,124.5 913.0,124.6 913.7,124.8 914.1,123.8 916.4,123.3 916.9,123.4 917.2,123.6 917.3,123.8 918.4,124.1 922.7,124.2 922.8,124.4 924.9,123.6 925.7,123.7 927.6,123.1 927.7,123.2 930.7,122.5 931.3,122.7 931.3,468.0" fill="#16a34a" fill-opacity="0.08"/>
  <polyline points="186.5,402.7 186.5,402.9 196.1,403.1 203.1,402.2 218.2,402.4 225.0,402.5 230.3,402.8 285.3,403.0 331.3,402.5 373.0,402.7 376.5,402.8 397.5,403.0 400.4,403.3 557.3,402.8 563.3,402.9 564.5,403.1 571.0,403.3 611.8,402.3 613.6,401.7 619.2,401.9 623.0,402.1 626.0,401.2 626.1,401.4 627.1,401.6 631.3,400.7 631.9,400.2 632.0,400.3 632.5,400.5 632.7,400.7 633.4,401.0 633.4,401.1 633.5,401.3 633.6,401.5 633.8,401.8 648.5,401.9 652.1,402.1 678.3,402.3 708.5,401.3 711.7,401.4 712.9,401.6 762.7,401.8 766.3,402.1 768.6,402.2 770.6,402.4 772.4,402.6 773.4,401.6 773.6,401.7 821.4,401.9 822.8,401.1 823.1,401.2 823.3,401.4 823.4,400.6 823.5,400.7 823.7,400.9 823.8,401.1 824.6,401.4 824.8,400.9 824.8,401.0 824.9,400.3 824.9,400.5 824.9,399.8 825.0,399.9 825.0,400.1 825.0,399.3 825.0,398.8 825.3,398.9 825.3,399.1 825.3,399.3 825.3,399.6 825.5,399.7 825.5,399.9 825.6,400.1 825.6,400.4 825.6,400.5 825.7,400.7 825.8,400.9 826.1,401.2 826.1,401.3 826.3,401.5 826.4,400.7 826.5,400.1 826.5,400.3 826.5,400.4 826.6,400.7 826.7,399.6 826.8,399.1 826.8,399.2 826.9,398.6 826.9,398.7 826.9,398.9 826.9,399.1 826.9,399.4 826.9,399.5 826.9,399.7 826.9,398.9 826.9,399.0 826.9,399.2 826.9,398.4 826.9,398.5 826.9,398.7 826.9,398.9 826.9,399.2 826.9,398.6 827.0,398.1 827.0,398.2 827.0,398.4 827.0,398.6 827.0,398.9 827.1,399.0 827.1,399.2 827.1,399.4 827.1,399.7 827.1,399.9 827.1,400.0 827.1,400.2 827.2,400.5 827.2,400.7 827.2,400.8 827.4,401.1 827.5,400.0 827.5,400.2 827.6,400.3 827.6,399.5 827.7,399.6 827.7,399.8 827.7,400.0 827.8,400.3 827.8,400.4 828.5,399.8 828.5,399.9 828.7,400.1 828.7,400.3 828.8,400.6 831.5,400.7 831.6,400.9 834.2,400.1 834.4,400.2 834.6,399.6 834.6,399.7 834.6,399.9 834.6,400.1 834.6,400.4 834.6,400.5 834.6,400.7 834.6,400.9 834.6,401.2 834.8,400.6 834.9,400.1 834.9,400.3 834.9,399.6 834.9,399.7 834.9,399.9 835.0,400.1 835.0,400.4 835.0,400.5 835.0,400.7 835.0,400.9 835.0,399.9 835.0,400.0 835.0,400.2 835.1,400.4 835.1,400.7 835.1,400.8 835.1,401.0 835.1,400.2 835.1,400.3 835.1,399.7 835.1,399.1 835.3,399.3 835.3,399.4 835.5,399.7 835.5,398.6 835.5,398.8 835.5,398.9 835.5,399.2 835.6,398.1 835.6,398.3 835.7,397.6 835.7,397.7 835.7,397.9 835.7,397.1 835.7,396.6 835.7,396.7 835.7,396.0 835.7,395.5 835.7,395.6 835.7,395.0 835.7,395.1 835.7,395.3 835.7,394.5 835.7,393.9 835.8,393.4 835.9,393.6 836.1,392.9 836.1,393.0 836.1,393.2 836.2,393.4 836.3,392.4 836.3,392.5 836.3,391.9 836.3,392.0 836.3,391.3 836.3,391.5 836.4,390.8 836.4,391.0 836.4,391.1 836.4,391.4 836.4,390.3 836.4,389.8 836.5,389.3 836.5,389.4 836.5,388.7 836.6,388.2 836.6,388.4 836.6,388.5 836.6,388.7 836.6,389.0 836.6,389.2 836.6,388.5 836.6,388.6 836.6,388.8 836.6,388.0 836.6,387.5 836.6,387.6 836.6,386.9 836.6,387.1 836.6,387.2 836.6,387.5 836.6,387.7 836.6,387.2 836.6,387.3 836.7,387.5 836.7,386.7 836.7,386.2 836.7,386.3 836.7,386.5 836.7,386.7 836.7,387.0 836.7,387.1 836.7,387.3 836.7,387.5 836.7,387.8 836.7,387.9 836.7,388.1 836.7,388.3 836.7,388.6 836.7,388.7 836.8,388.1 836.8,388.2 836.8,388.4 836.8,388.6 836.8,388.9 836.8,388.3 836.8,388.5 836.8,387.8 836.9,388.0 836.9,388.1 836.9,388.3 836.9,387.3 836.9,387.4 836.9,386.8 836.9,386.9 836.9,387.1 836.9,387.3 836.9,387.6 836.9,387.7 836.9,387.9 836.9,387.1 836.9,387.2 836.9,387.4 836.9,387.6 836.9,386.6 837.0,386.7 837.0,386.1 837.0,386.2 837.0,386.4 837.0,386.6 837.0,386.9 837.0,387.0 837.0,387.2 837.0,387.4 837.0,386.4 837.0,386.5 837.0,386.7 837.1,385.8 837.1,385.3 837.1,385.5 837.1,384.8 837.1,384.9 837.1,385.1 837.1,385.3 837.1,385.6 837.1,385.1 837.1,385.2 837.1,384.6 837.1,384.0 837.1,383.5 837.1,383.6 837.1,383.8 837.1,384.0 837.1,384.3 837.1,384.4 837.1,384.6 837.1,383.8 837.1,383.9 837.2,383.3 837.2,383.4 837.2,382.7 837.2,382.9 837.2,382.2 837.2,381.7 837.2,381.8 837.2,382.0 837.2,382.2 837.2,381.2 837.2,381.3 837.2,381.5 837.3,380.7 837.3,380.8 837.3,380.2 837.3,380.3 837.3,379.6 837.3,379.1 837.3,379.2 837.3,379.4 837.3,378.6 837.3,378.1 837.3,378.2 837.3,377.5 837.3,377.7 837.3,377.9 837.3,378.1 837.3,378.4 837.3,377.8 837.3,378.0 837.3,377.3 837.3,377.4 837.3,377.6 837.3,377.8 837.3,376.8 837.3,376.9 837.4,376.3 837.4,375.7 837.4,375.9 837.4,375.2 837.4,374.7 837.4,374.8 837.4,375.0 837.4,374.2 837.4,374.3 837.4,374.5 837.4,374.7 837.4,375.0 837.4,374.5 837.4,373.9 837.4,374.1 837.4,373.4 837.4,373.6 837.5,372.9 837.5,372.4 837.5,372.5 837.5,371.8 837.5,372.0 837.5,371.3 837.5,371.5 837.5,371.6 837.5,370.8 837.5,370.3 837.5,370.4 837.5,369.8 837.5,369.2 837.5,369.4 837.5,369.5 837.5,368.7 837.5,368.2 837.5,367.6 837.5,367.1 837.5,366.6 837.6,366.7 837.6,366.1 837.6,366.2 837.6,365.5 837.6,365.7 837.6,365.0 837.6,364.5 837.6,364.6 837.6,364.0 837.6,363.4 837.6,363.6 837.6,362.9 837.6,363.1 837.6,362.4 837.6,362.5 837.6,361.9 837.6,361.3 837.7,361.5 837.7,361.7 837.7,360.8 837.7,361.0 837.7,360.3 837.7,359.8 837.7,359.9 837.7,359.3 837.7,359.4 837.7,359.6 837.7,359.8 837.7,360.1 837.7,360.2 837.7,360.4 837.7,360.6 837.7,360.9 837.7,361.0 837.7,361.2 837.7,360.4 837.8,359.8 837.8,360.0 837.8,359.3 837.8,358.8 837.8,358.9 837.8,359.1 837.8,359.3 837.8,359.6 837.8,359.7 837.8,359.9 837.8,360.1 837.8,359.1 837.9,359.2 837.9,359.4 837.9,359.6 837.9,359.9 837.9,360.0 837.9,360.2 837.9,359.4 837.9,359.5 837.9,358.8 837.9,359.0 838.0,358.3 838.0,358.5 838.0,357.8 838.0,357.3 838.0,356.7 838.0,356.9 838.0,356.2 838.0,355.7 838.0,355.2 838.0,355.3 838.0,354.6 838.0,354.1 838.0,354.2 838.0,354.4 838.0,353.6 838.1,353.1 838.1,352.5 838.1,352.0 838.1,352.1 838.1,352.3 838.1,352.5 838.1,352.8 838.1,352.9 838.1,353.1 838.1,352.3 838.1,351.8 838.1,351.9 838.1,352.1 838.1,351.3 838.1,350.7 838.1,350.9 838.1,350.2 838.1,350.3 838.1,349.7 838.1,349.1 838.1,349.3 838.1,348.6 838.1,348.1 838.1,348.2 838.1,347.6 838.2,347.7 838.2,347.1 838.2,347.2 838.2,346.5 838.2,346.7 838.2,346.0 838.2,346.1 838.2,345.5 838.2,345.0 838.2,344.4 838.2,344.6 838.2,343.9 838.2,343.4 838.2,343.5 838.2,342.9 838.2,342.3 838.2,342.5 838.2,341.8 838.2,341.9 838.2,341.3 838.2,340.8 838.2,340.2 838.2,339.7 838.2,339.8 838.2,339.2 838.2,338.7 838.2,338.8 838.2,339.0 838.2,338.1 838.2,337.6 838.3,337.1 838.3,337.2 838.3,336.6 838.3,336.7 838.3,336.0 838.3,335.5 838.3,335.6 838.3,335.0 838.3,335.1 838.3,334.5 838.3,334.6 838.4,334.8 838.4,335.0 838.4,334.0 838.4,333.4 838.4,332.9 838.4,333.0 838.4,332.4 838.4,331.9 838.4,332.0 838.4,331.3 838.4,331.5 838.4,330.8 838.6,331.0 838.6,331.1 838.6,331.3 838.6,331.6 838.6,331.8 838.6,331.1 838.6,331.2 838.6,330.6 838.6,330.7 838.6,330.1 838.6,330.2 838.6,330.4 838.6,330.6 838.6,329.6 838.6,329.7 838.6,329.0 838.6,329.2 838.6,328.5 838.6,328.6 838.6,328.0 838.6,327.5 838.6,326.9 838.6,327.1 838.6,326.4 838.6,325.9 838.7,326.0 838.7,325.4 838.7,324.8 838.7,324.3 838.7,324.4 838.7,323.8 838.7,323.2 838.7,323.4 838.7,322.7 838.7,322.2 838.7,322.3 838.7,321.7 838.7,321.1 838.7,321.3 838.7,320.6 838.7,320.1 838.7,320.2 838.7,319.6 838.7,319.0 838.7,319.2 838.7,318.5 838.8,318.7 838.8,318.0 838.8,317.5 838.8,317.6 838.8,316.9 838.8,316.4 838.8,316.6 838.8,315.9 838.8,316.0 838.8,315.4 838.8,314.8 838.8,315.0 838.8,315.2 838.8,315.4 838.8,314.3 838.8,314.5 838.8,313.8 838.8,313.3 838.8,313.4 838.8,312.8 838.8,312.2 838.8,312.4 838.8,311.7 838.8,311.2 838.9,311.3 838.9,310.7 838.9,310.8 838.9,310.1 838.9,310.3 838.9,309.6 838.9,309.8 838.9,309.1 838.9,308.6 838.9,308.0 838.9,307.5 838.9,307.7 838.9,307.0 838.9,306.5 839.0,305.9 839.0,305.4 839.0,304.9 839.0,305.0 839.0,305.2 839.0,305.4 839.0,304.4 839.1,303.8 839.1,303.3 839.1,303.4 839.1,302.8 839.1,302.3 839.1,301.7 839.1,301.9 839.1,302.0 839.1,301.2 839.1,300.7 839.2,300.2 839.2,299.6 839.2,299.1 839.2,299.2 839.2,298.6 839.2,298.1 839.2,297.5 839.2,297.7 839.2,297.0 839.2,297.1 839.2,296.5 839.2,296.0 839.2,295.4 839.2,294.9 839.2,294.4 839.2,293.8 839.3,294.0 839.3,293.3 839.3,292.8 839.3,292.2 839.3,292.4 839.3,292.6 839.3,291.7 839.3,291.2 839.3,291.3 839.3,290.7 839.3,290.8 839.3,290.2 839.3,289.6 839.3,289.8 839.3,289.1 839.4,288.6 839.4,288.7 839.4,288.1 839.4,287.5 839.4,287.0 839.4,287.1 839.4,286.5 839.4,285.9 839.4,285.4 839.4,285.6 839.4,284.9 839.4,284.4 839.5,283.8 839.5,284.0 839.5,283.3 839.5,283.5 839.5,283.6 839.5,283.8 839.6,282.8 839.6,283.0 839.6,283.1 839.6,283.3 839.6,282.3 839.6,282.4 839.6,281.8 839.6,281.9 839.6,282.1 839.6,282.3 839.6,281.3 839.6,281.4 839.7,280.8 839.7,280.2 839.7,280.4 839.7,279.7 839.7,279.8 839.7,279.2 839.7,279.3 839.7,278.7 839.8,278.1 839.8,278.3 839.8,278.4 839.8,278.7 839.9,277.6 839.9,277.8 839.9,277.9 839.9,278.2 839.9,278.4 839.9,278.6 840.0,278.7 840.0,279.0 840.0,279.2 840.0,279.4 840.0,279.6 840.0,279.8 840.0,280.0 840.0,280.2 840.0,279.5 840.0,279.7 840.0,279.0 840.0,278.5 840.1,278.6 840.1,278.8 840.2,279.0 840.2,279.3 840.2,279.4 840.4,278.8 840.4,278.9 840.4,279.1 840.4,279.3 840.5,279.6 840.5,279.7 840.5,279.9 840.5,280.1 840.5,279.1 840.5,278.5 840.5,278.0 840.6,277.5 840.6,276.9 840.6,276.4 840.6,275.9 840.6,276.0 840.6,276.2 840.6,276.4 840.7,276.7 840.7,276.2 840.7,276.3 840.8,275.6 840.8,275.8 841.0,275.1 841.1,274.6 841.1,274.7 841.2,274.9 841.2,275.1 841.2,275.4 841.3,275.5 841.3,275.7 841.3,274.9 841.3,275.0 841.3,274.4 841.3,273.8 841.3,273.3 841.4,272.8 841.4,272.2 841.4,272.4 841.4,272.5 841.4,271.7 841.4,271.9 841.4,272.0 841.4,272.3 841.4,271.2 841.4,271.4 841.4,270.7 841.5,270.8 841.5,270.2 841.5,269.6 841.5,269.8 841.5,269.1 841.6,268.6 841.6,268.7 841.6,268.9 841.6,269.1 841.6,268.1 841.6,268.2 841.6,268.4 841.7,267.6 841.7,267.7 841.7,267.9 841.7,267.1 841.7,266.5 841.7,266.0 841.7,265.5 841.7,265.6 841.7,264.9 841.7,264.4 841.7,263.9 841.7,263.4 841.8,263.5 841.8,262.8 841.8,263.0 841.8,262.3 841.8,262.5 841.8,261.8 841.8,261.9 841.8,262.1 841.8,262.3 841.8,261.3 841.8,261.4 841.8,260.8 841.8,260.9 841.8,260.3 841.8,260.4 841.8,259.7 841.8,259.9 841.8,259.2 841.8,259.3 841.8,258.7 841.8,258.2 841.8,258.3 841.8,257.6 841.8,257.8 841.9,258.0 841.9,257.1 841.9,257.3 841.9,256.6 841.9,256.1 841.9,256.2 841.9,255.6 841.9,255.0 841.9,255.2 842.0,254.5 842.1,254.6 842.1,254.8 842.2,255.0 842.4,255.3 842.4,255.4 842.4,255.6 842.4,255.8 842.6,254.8 842.6,254.9 842.6,255.1 842.7,255.3 842.7,255.6 842.9,255.7 842.9,255.9 842.9,256.1 842.9,256.4 843.0,256.5 843.0,256.7 843.0,256.9 843.1,257.2 843.1,256.7 843.1,256.8 843.1,257.0 843.2,257.2 843.2,257.5 843.5,256.9 843.5,257.1 843.5,256.4 843.5,255.9 843.5,255.4 843.5,255.5 843.5,254.8 843.6,255.0 843.6,254.3 843.6,253.8 843.7,253.3 843.7,253.4 843.7,253.6 843.7,253.8 843.8,254.1 843.8,254.2 843.9,253.5 844.0,253.7 844.0,253.0 844.0,252.5 844.0,252.6 844.0,252.8 844.0,253.0 844.0,252.0 844.0,252.1 844.1,251.5 844.1,251.6 844.1,251.0 844.1,251.1 844.1,250.4 844.1,250.6 844.1,249.9 844.1,249.4 844.1,249.5 844.1,248.9 844.1,248.3 844.1,248.5 844.1,247.8 844.1,247.3 844.2,247.4 844.2,247.6 844.2,247.8 844.2,248.1 844.2,247.6 844.2,247.0 844.2,247.2 844.2,247.3 844.3,247.6 844.3,247.8 844.3,247.3 844.3,246.8 844.3,246.2 844.3,246.4 844.3,245.7 844.3,245.9 844.3,245.2 844.4,245.3 844.4,244.7 844.4,244.1 844.4,244.3 844.4,243.6 844.4,243.8 844.4,243.1 844.4,242.6 844.4,242.7 844.4,242.9 844.4,242.1 844.5,242.2 844.5,242.4 844.5,241.5 844.5,241.7 844.5,241.9 844.5,242.1 844.5,242.4 844.5,241.8 844.6,242.0 844.6,241.3 844.6,241.4 844.6,241.6 844.6,241.8 844.6,242.1 844.6,242.2 844.6,241.6 844.7,241.1 844.7,241.2 844.7,241.4 844.7,240.5 844.7,240.7 844.7,240.0 844.7,239.5 844.7,239.0 844.7,239.1 844.8,239.3 844.8,238.5 844.8,238.6 844.8,237.9 844.8,237.4 844.8,237.5 844.8,237.7 844.8,236.9 844.8,236.4 844.8,235.8 844.8,236.0 844.8,235.3 844.8,234.8 844.9,234.3 844.9,234.4 844.9,234.6 844.9,234.8 844.9,235.1 844.9,234.5 844.9,234.7 845.0,234.8 845.0,234.0 845.0,233.5 845.0,233.6 845.0,233.8 845.0,234.0 845.0,233.0 845.0,232.4 845.0,231.9 845.1,231.4 845.1,231.5 845.1,231.7 845.1,230.9 845.1,231.0 845.1,230.3 845.1,230.5 845.1,230.7 845.1,230.9 845.1,231.1 845.1,230.6 845.1,230.8 845.1,230.1 845.2,229.6 845.2,229.7 845.2,229.0 845.2,229.2 845.2,229.4 845.2,228.5 845.3,228.7 845.3,228.8 845.3,229.1 845.3,229.3 845.3,229.5 845.3,228.8 845.3,229.0 845.3,228.3 845.3,227.8 845.3,227.9 845.3,227.2 845.3,227.4 845.3,227.6 845.3,227.8 845.3,226.7 845.4,226.9 845.4,226.2 845.4,226.4 845.4,225.7 845.4,225.8 845.4,225.2 845.4,224.6 845.4,224.1 845.5,224.3 845.5,223.6 845.5,223.1 845.5,223.2 845.6,222.5 845.6,222.0 845.6,222.2 845.6,221.5 845.6,221.6 845.6,221.0 845.6,221.1 845.6,221.3 845.6,221.5 845.6,220.5 845.6,220.6 845.6,220.0 845.7,220.1 845.7,220.3 845.7,219.4 845.7,218.9 845.7,219.0 845.7,219.2 845.7,218.4 845.8,217.9 845.8,218.0 845.8,217.3 845.8,217.5 845.8,216.8 845.8,216.3 845.8,216.4 845.8,215.8 845.8,215.9 845.8,215.3 845.8,214.7 845.8,214.9 845.8,215.0 845.8,215.3 845.8,214.2 845.8,213.7 845.8,213.2 845.8,213.3 845.9,213.5 845.9,212.7 845.9,212.8 845.9,212.1 845.9,212.3 845.9,211.6 846.0,211.7 846.0,211.1 846.0,211.2 846.0,210.6 846.0,210.7 846.0,210.0 846.0,210.2 846.0,209.5 846.1,209.0 846.1,208.5 846.1,208.6 846.1,207.9 846.1,207.4 846.1,207.5 846.1,206.9 846.1,207.0 846.1,206.4 846.1,206.5 846.1,205.8 846.2,206.0 846.2,205.3 846.2,205.5 846.2,205.6 846.2,204.8 846.2,204.9 846.2,204.3 846.2,204.4 846.2,204.6 846.2,203.8 846.2,203.2 846.2,203.4 846.2,202.7 846.2,202.9 846.2,202.2 846.2,202.3 846.2,201.7 846.2,201.2 846.2,200.6 846.2,200.1 846.2,200.2 846.2,199.6 846.2,199.7 846.2,199.0 846.2,198.5 846.3,198.0 846.3,198.1 846.3,197.5 846.3,197.6 846.3,197.8 846.3,197.0 846.3,197.1 846.4,196.4 846.4,196.6 846.4,195.9 846.4,196.1 846.4,195.4 846.4,195.5 846.4,195.7 846.4,195.9 846.4,194.9 846.5,195.0 846.5,195.2 846.5,194.4 846.5,194.5 846.5,194.7 846.5,193.9 846.5,193.3 846.6,192.8 846.6,193.0 846.6,193.1 846.6,192.3 846.6,192.4 846.6,191.8 846.7,191.2 846.7,190.7 846.7,190.9 846.7,190.2 846.7,190.3 846.7,189.7 846.7,189.8 846.7,189.2 846.7,189.3 846.8,188.6 846.8,188.1 846.8,188.2 846.8,187.6 846.8,187.7 846.8,187.1 846.8,187.2 846.8,186.5 846.8,186.0 846.8,186.1 846.8,185.5 846.8,185.0 846.9,185.1 846.9,185.3 846.9,184.4 846.9,183.9 846.9,183.4 846.9,183.5 846.9,182.9 846.9,182.3 847.0,182.5 847.0,181.8 847.0,181.9 847.0,181.3 847.0,180.7 847.0,180.9 847.0,180.2 847.0,179.7 847.0,179.2 847.0,179.3 847.0,178.6 847.0,178.8 847.0,178.1 847.0,178.3 847.0,178.4 847.0,178.7 847.0,178.9 847.1,179.1 847.1,179.2 847.1,179.5 847.1,179.7 847.1,179.2 847.1,178.7 847.1,178.8 847.1,178.2 847.1,177.6 847.2,177.8 847.2,177.9 847.2,177.1 847.2,177.3 847.2,176.6 847.2,176.7 847.2,176.9 847.2,177.1 847.2,176.1 847.2,176.2 847.2,175.6 847.2,175.0 847.2,175.2 847.2,175.3 847.2,175.6 847.2,174.5 847.2,174.7 847.2,174.0 847.2,174.2 847.2,174.3 847.2,174.5 847.3,174.8 847.3,175.0 847.3,175.1 847.3,174.3 847.3,174.4 847.3,174.6 847.3,174.8 847.3,175.1 847.3,175.2 847.3,174.6 847.3,174.7 847.3,174.1 847.3,174.2 847.3,174.4 847.3,174.6 847.3,173.6 847.3,173.7 847.3,173.9 847.3,173.0 847.3,173.2 847.3,172.5 847.3,172.7 847.3,172.0 847.3,172.1 847.3,172.3 847.3,172.5 847.4,172.8 847.4,172.9 847.4,173.1 847.4,173.3 847.4,172.3 847.4,172.4 847.4,171.8 847.4,171.9 847.4,171.3 847.4,170.7 847.4,170.2 847.5,169.7 847.5,169.1 847.5,169.3 847.5,169.5 847.5,169.7 847.5,170.0 847.5,169.4 847.5,169.6 847.5,168.9 847.5,168.4 847.5,168.5 847.5,167.9 847.5,168.0 847.5,168.2 847.5,167.3 847.5,167.5 847.5,167.7 847.6,167.9 847.6,168.2 847.6,168.3 847.6,168.5 847.6,167.6 847.6,167.1 847.6,167.3 847.6,166.6 847.6,166.1 847.6,165.5 847.6,165.7 847.6,165.0 847.6,165.1 847.6,165.3 847.6,165.5 847.6,165.8 847.6,165.9 847.6,166.1 847.7,165.3 847.7,164.8 847.7,164.9 847.7,165.1 847.7,165.3 847.7,165.6 847.7,165.7 847.7,165.1 847.7,165.2 847.7,164.5 847.7,164.0 847.7,164.1 847.7,164.3 847.7,164.5 847.7,164.8 847.8,164.9 847.8,165.1 847.8,165.3 847.8,164.3 847.8,164.4 847.8,163.8 847.8,163.3 847.8,163.4 847.8,162.7 847.8,162.9 847.8,163.0 847.8,163.3 847.8,163.5 847.8,163.7 847.8,163.8 847.8,164.1 847.8,164.3 847.9,164.5 847.9,164.7 847.9,164.9 847.9,163.8 847.9,164.0 847.9,164.1 847.9,163.3 847.9,162.8 847.9,162.3 847.9,162.4 848.0,162.6 848.0,162.8 848.0,163.1 848.1,163.2 848.1,163.4 848.1,163.6 848.1,163.9 848.2,164.0 848.2,164.2 848.2,164.4 848.2,164.7 848.2,164.8 848.2,165.0 848.4,165.2 848.4,165.5 848.4,164.9 848.4,164.4 848.4,164.6 848.5,164.7 848.6,164.9 848.6,165.2 848.6,165.4 848.6,165.5 848.6,164.7 848.6,164.8 848.7,165.0 848.8,165.2 848.8,165.5 848.9,165.0 848.9,165.1 848.9,164.5 848.9,164.6 848.9,163.9 848.9,164.1 849.0,164.3 849.0,163.4 849.2,163.6 849.2,162.9 849.2,163.0 849.2,163.2 849.4,163.4 849.4,163.7 849.4,163.8 849.6,164.0 849.6,163.2 849.6,162.7 849.6,162.8 849.6,163.0 849.6,163.2 849.6,162.2 849.7,161.6 849.7,161.8 849.7,161.1 849.7,161.3 849.7,161.4 849.7,161.6 849.7,161.9 849.7,162.1 849.7,162.2 849.7,161.4 849.7,161.5 849.7,161.7 849.7,160.9 849.7,161.0 849.7,161.2 849.8,160.4 849.8,159.9 849.8,159.3 849.8,159.5 849.8,158.8 849.8,158.3 849.8,158.4 849.8,158.6 849.8,158.8 849.8,159.1 849.9,158.5 849.9,158.7 849.9,158.0 849.9,158.2 849.9,157.5 849.9,157.6 849.9,157.0 849.9,157.1 849.9,157.3 849.9,156.5 849.9,156.6 849.9,156.0 849.9,155.4 850.0,154.9 850.0,155.0 850.0,155.2 850.0,155.4 850.0,155.7 850.0,155.8 850.1,156.0 850.1,156.2 850.1,156.5 850.1,156.6 850.1,156.8 850.1,157.0 850.1,157.3 850.1,157.4 850.2,157.6 850.2,157.8 850.2,156.8 850.2,156.3 850.2,156.4 850.2,155.8 850.2,155.9 850.2,155.2 850.2,155.4 850.2,154.7 850.2,154.8 850.2,154.2 850.2,154.3 850.2,154.5 850.2,154.7 850.2,153.7 850.2,153.2 850.2,152.6 850.2,152.8 850.2,152.9 850.2,153.2 850.2,152.1 850.2,152.3 850.2,152.4 850.2,152.7 850.2,152.9 850.2,153.1 850.2,152.4 850.2,151.9 850.2,151.3 850.3,151.5 850.3,150.8 850.3,150.3 850.3,150.4 850.3,149.8 850.3,149.2 850.3,149.4 850.3,149.6 850.3,148.7 850.3,148.9 850.3,149.0 850.3,149.3 850.3,148.2 850.3,148.4 850.3,147.7 850.3,147.2 850.3,147.3 850.3,147.5 850.3,146.7 850.3,146.8 850.3,147.0 850.4,147.2 850.4,147.5 850.4,147.6 850.4,147.8 850.5,148.0 850.5,148.3 850.5,147.7 850.5,147.9 850.5,147.2 850.5,146.7 850.5,146.8 850.5,147.0 850.5,147.2 850.5,146.2 850.5,145.6 850.5,145.8 850.7,146.0 850.7,145.1 850.8,144.6 850.9,144.7 850.9,144.1 850.9,144.2 850.9,143.6 850.9,143.7 850.9,143.9 850.9,144.1 850.9,143.1 850.9,143.2 850.9,143.4 850.9,142.6 850.9,142.7 850.9,142.0 850.9,142.2 850.9,141.5 850.9,141.7 850.9,141.0 850.9,141.1 851.0,141.3 851.0,141.5 851.0,141.8 851.0,141.9 851.0,142.1 851.0,142.3 851.0,142.6 851.0,142.7 851.0,142.9 851.1,143.1 851.2,143.4 851.3,143.5 851.3,143.7 851.3,143.9 851.3,144.2 851.4,144.3 851.4,143.7 851.5,143.2 851.5,143.3 851.5,143.5 851.5,143.7 851.5,142.7 851.6,142.8 851.6,143.0 851.6,143.2 851.6,143.5 851.6,143.6 851.6,143.8 851.6,144.0 851.6,144.3 851.6,144.4 851.6,143.7 851.6,143.9 851.7,143.2 851.7,142.7 851.8,142.2 851.8,142.3 851.8,142.5 851.8,142.7 851.9,141.7 851.9,141.8 852.1,141.1 852.1,141.3 852.1,141.5 852.1,141.7 852.1,142.0 852.1,142.1 852.1,142.3 852.1,142.5 852.1,142.8 852.1,142.9 852.1,143.1 852.1,143.3 852.2,143.6 852.2,143.7 852.2,143.9 852.2,144.1 852.2,144.4 852.2,144.5 852.2,144.7 852.2,144.9 852.2,145.2 852.2,145.3 852.2,144.6 852.2,144.8 852.2,144.1 852.3,144.3 852.3,144.4 852.3,143.6 852.3,143.8 852.4,143.1 852.4,143.2 852.4,143.4 852.4,142.6 852.4,142.1 852.4,142.2 852.4,142.4 852.4,141.5 852.4,141.7 852.4,141.0 852.4,141.2 852.4,140.5 852.5,140.6 852.5,140.0 852.6,140.1 852.6,140.3 852.6,140.5 852.6,140.8 852.6,140.9 852.6,141.1 852.6,141.3 852.6,141.6 852.6,141.0 852.6,141.2 852.6,141.4 852.7,141.6 852.7,141.9 852.7,142.0 852.7,142.2 852.7,142.4 852.7,142.7 852.8,142.1 852.8,142.3 852.8,142.4 852.8,142.7 852.8,142.9 852.8,143.1 852.8,142.4 852.8,142.5 852.8,142.7 852.8,142.9 852.8,143.2 852.8,143.3 852.8,142.7 852.8,142.8 852.8,143.0 852.8,143.2 852.8,143.5 852.8,143.6 852.8,143.8 852.9,144.0 852.9,144.3 852.9,144.4 852.9,144.6 852.9,143.8 852.9,143.9 852.9,143.3 852.9,143.4 852.9,143.6 852.9,143.8 852.9,144.1 852.9,144.2 852.9,144.4 852.9,143.6 852.9,143.7 852.9,143.0 852.9,142.5 852.9,142.0 852.9,142.1 852.9,142.3 852.9,141.5 853.0,141.6 853.0,141.8 853.1,140.9 853.1,141.1 853.1,140.4 853.1,140.6 853.1,139.9 853.1,140.0 853.1,139.4 853.1,139.5 853.1,139.7 853.1,139.9 853.1,140.2 853.2,139.6 853.2,139.8 853.2,139.1 853.2,138.6 853.2,138.7 853.2,138.9 853.3,139.1 853.3,139.4 853.4,138.9 853.4,138.3 853.4,137.8 853.4,137.9 853.4,137.3 853.5,136.8 853.5,136.9 853.5,137.1 853.5,137.3 853.5,137.6 853.7,137.7 853.7,137.9 853.7,138.1 853.7,137.1 853.8,137.2 853.8,137.4 853.8,137.6 853.8,136.6 853.8,136.0 853.8,136.2 853.8,136.3 853.9,136.6 853.9,136.8 853.9,137.0 853.9,137.1 853.9,137.4 853.9,137.6 853.9,137.1 853.9,136.6 853.9,136.1 853.9,135.5 853.9,135.7 853.9,135.0 853.9,135.1 853.9,134.5 853.9,134.6 854.0,134.0 854.0,134.1 854.0,134.3 854.0,134.5 854.0,134.8 854.0,134.9 854.1,135.1 854.1,135.3 854.2,135.6 854.2,135.0 854.2,135.2 854.2,134.5 854.3,134.7 854.3,134.8 854.4,135.0 854.4,134.0 854.4,133.5 854.4,133.0 854.4,133.1 854.4,133.3 854.4,132.4 854.4,132.6 854.4,132.8 854.4,133.0 854.4,133.2 854.4,133.4 854.4,133.6 854.4,132.7 854.4,132.9 854.4,133.1 854.4,133.3 854.4,133.5 854.4,133.7 854.4,133.9 854.4,133.0 854.5,133.2 854.5,132.5 854.5,132.6 854.5,132.0 854.5,132.1 854.5,132.3 854.5,132.5 854.5,131.5 854.5,131.6 854.5,131.8 854.5,132.0 854.5,131.0 854.5,131.1 854.5,130.5 854.5,129.9 854.5,130.1 854.5,130.2 854.6,129.4 854.6,129.5 854.6,128.9 854.7,128.4 854.7,128.5 854.7,128.7 854.7,128.9 854.7,129.2 854.7,128.6 854.8,128.1 854.8,128.2 854.8,127.6 854.9,127.7 854.9,127.9 854.9,128.1 855.0,128.4 855.0,128.5 855.0,128.7 855.0,127.9 855.0,127.3 855.1,126.8 855.1,127.0 855.1,127.1 855.1,126.3 855.1,125.8 855.1,125.9 855.1,126.1 855.1,126.3 855.1,126.6 855.1,126.7 855.1,126.9 855.1,126.1 855.2,125.5 855.2,125.0 855.2,125.1 855.2,124.5 855.2,124.6 855.2,124.8 855.3,125.0 855.3,125.3 855.3,125.4 855.3,124.8 855.4,124.9 855.4,125.1 855.4,124.3 855.4,124.4 855.5,124.6 855.5,124.8 855.5,123.8 855.6,123.9 855.6,123.2 855.6,123.4 855.6,123.6 855.6,123.8 855.6,124.0 855.6,124.2 855.6,123.5 855.6,123.7 855.6,123.0 855.6,122.5 855.6,122.6 855.6,121.9 855.6,122.1 855.6,122.3 855.6,122.5 855.7,122.7 855.7,122.2 855.7,122.3 855.7,122.5 855.7,121.7 855.7,121.8 855.7,121.2 855.7,121.3 855.7,121.5 855.7,121.7 855.7,122.0 855.7,121.5 855.7,121.6 855.9,121.8 855.9,120.9 855.9,120.4 855.9,120.6 855.9,120.7 855.9,120.9 855.9,121.2 855.9,121.4 855.9,121.5 855.9,121.7 855.9,122.0 855.9,121.5 855.9,121.6 855.9,121.0 855.9,120.4 855.9,120.6 855.9,119.9 856.0,119.4 856.0,119.5 856.0,119.7 856.0,118.9 856.0,119.0 856.0,118.3 856.0,118.5 856.0,117.8 856.0,118.0 856.0,118.1 856.0,118.4 856.1,118.6 856.1,118.8 856.1,118.9 856.1,119.2 856.1,119.4 856.5,118.9 856.5,119.0 856.9,119.2 856.9,119.4 856.9,119.7 856.9,119.8 856.9,120.0 856.9,120.2 856.9,120.5 857.3,120.7 857.3,120.8 857.3,121.0 857.3,121.3 857.4,121.5 857.4,121.6 857.4,121.8 857.4,122.1 857.5,121.6 857.5,121.7 857.5,121.9 857.5,122.1 857.5,122.4 857.5,122.5 857.5,122.7 857.6,121.9 857.6,122.0 857.6,122.2 857.6,122.4 857.6,122.7 857.6,122.1 857.6,121.6 857.7,121.8 857.7,121.9 857.7,122.2 858.1,122.4 858.5,122.6 858.6,122.7 858.6,123.0 858.7,121.9 858.8,122.1 858.8,122.2 858.8,122.4 859.0,122.7 859.0,122.9 859.1,123.0 859.2,123.2 859.3,123.5 859.4,123.7 859.4,123.8 859.4,124.1 859.4,124.3 859.6,123.8 859.6,123.3 859.7,123.4 859.8,122.7 859.8,122.9 860.1,123.1 860.3,123.3 860.3,123.5 860.4,123.7 860.5,123.9 860.5,124.1 860.5,124.3 860.8,124.5 860.8,124.7 860.9,123.8 861.0,124.0 861.4,124.1 861.6,124.4 861.6,124.6 861.6,124.8 861.7,125.0 861.7,125.2 861.9,125.4 862.0,124.9 862.1,125.0 862.1,125.2 862.2,124.4 862.2,124.5 862.3,124.7 862.5,123.9 862.5,124.0 862.6,124.2 862.6,124.4 862.7,124.7 862.7,124.8 862.8,125.0 863.0,125.2 863.0,125.5 863.1,125.6 863.2,125.8 863.3,126.0 863.3,126.3 863.3,126.4 863.3,126.6 863.3,126.8 863.4,127.1 863.4,127.2 863.9,126.6 864.0,126.7 864.2,126.0 864.3,126.2 864.4,126.4 864.4,126.6 864.4,125.5 864.5,125.7 864.5,125.9 864.5,126.1 864.7,125.0 864.8,125.2 865.3,124.5 865.4,124.0 865.4,124.1 865.4,124.3 865.8,124.5 865.8,124.8 865.9,124.9 865.9,124.3 865.9,124.4 865.9,124.6 865.9,124.8 866.0,123.8 866.0,123.9 866.0,123.2 866.0,123.4 866.0,123.6 866.0,122.7 866.0,122.9 866.0,122.2 866.0,122.3 866.0,122.5 866.0,122.7 866.0,123.0 866.0,122.5 866.0,122.6 866.0,122.0 866.0,122.1 866.0,121.4 866.0,121.6 866.1,121.8 866.1,120.9 866.1,121.1 866.1,121.2 866.1,120.4 866.1,120.6 866.1,119.9 866.2,119.4 866.2,118.8 866.2,119.0 866.2,119.2 866.2,119.4 866.2,119.6 866.2,119.8 866.3,120.0 866.3,120.2 866.3,120.4 866.3,120.6 866.3,119.9 866.3,120.1 866.3,120.2 866.3,119.4 866.3,119.6 866.3,119.7 866.4,118.9 866.4,119.0 866.4,119.2 866.4,118.4 866.4,118.5 866.5,118.7 866.5,118.9 866.5,119.2 866.5,119.3 866.6,119.5 866.6,119.7 866.6,120.0 866.6,120.1 866.6,120.3 866.6,120.5 866.6,120.8 866.7,120.3 866.8,120.4 866.9,119.7 866.9,119.9 867.0,119.2 867.0,119.4 867.0,119.5 867.1,119.7 867.1,120.0 867.1,120.2 867.1,120.3 867.1,120.6 867.4,120.8 867.4,121.0 867.4,120.3 867.5,119.8 867.5,119.9 867.5,120.1 867.5,120.3 867.5,120.6 867.6,120.7 867.7,120.9 867.7,121.1 867.9,120.1 868.0,119.6 868.0,119.7 868.1,119.0 868.2,119.2 868.5,119.3 868.6,119.6 868.7,119.8 868.8,120.0 869.1,119.3 869.3,118.8 869.3,118.9 869.3,119.1 869.3,118.3 869.4,117.7 869.4,117.9 869.4,118.1 869.5,117.2 869.6,117.4 869.6,117.5 869.6,117.8 869.7,118.0 869.7,118.2 869.8,118.3 869.8,118.6 869.9,118.8 870.1,119.0 870.1,119.1 870.1,119.4 870.1,119.6 870.1,119.8 870.4,119.1 870.4,118.6 870.5,118.7 870.5,118.9 870.5,118.1 870.5,117.5 870.6,117.7 870.7,117.0 870.9,117.2 871.0,117.3 871.0,117.6 871.0,116.5 871.1,116.7 871.2,116.8 871.3,117.1 871.4,117.3 871.6,117.5 871.6,117.6 871.7,117.9 871.7,118.1 871.8,118.3 871.8,118.4 871.9,118.7 872.0,118.9 872.2,119.1 872.2,118.4 872.2,118.5 872.2,117.9 872.3,118.0 872.5,118.2 872.5,118.4 872.5,118.7 872.5,118.8 872.7,119.0 872.7,119.2 873.3,118.2 873.3,118.3 873.3,118.5 873.3,117.7 873.4,117.8 873.4,118.0 873.4,118.2 874.4,117.2 874.4,117.3 874.4,117.5 874.5,116.7 874.8,116.8 874.8,117.0 875.0,117.2 876.1,116.1 876.3,116.3 876.4,116.5 876.6,116.7 877.3,117.0 877.4,117.1 877.4,117.3 878.7,116.4 878.8,116.6 878.8,116.8 878.8,117.0 878.8,117.2 879.5,117.4 879.9,117.6 880.1,117.8 880.1,118.0 880.1,118.2 880.4,118.4 880.6,118.6 880.7,118.8 881.6,119.0 881.6,119.2 882.5,118.3 882.5,118.5 882.5,118.7 882.5,118.9 882.5,119.1 882.5,119.3 882.5,119.5 882.5,119.7 882.8,119.9 883.2,119.4 883.2,119.6 883.3,119.7 883.4,119.9 883.4,120.2 883.5,120.4 884.0,120.5 884.0,120.8 884.2,121.0 884.7,121.2 884.7,121.3 884.7,121.6 884.7,121.8 884.8,122.0 884.8,122.1 885.0,122.4 885.1,122.6 885.1,122.8 885.2,123.0 885.3,123.2 885.4,123.4 886.1,122.9 886.2,123.1 886.4,123.2 886.4,123.4 886.5,123.7 887.4,123.9 887.5,124.0 887.6,124.2 887.8,124.5 887.9,124.7 888.0,124.8 888.1,125.0 888.2,125.3 889.0,124.8 889.4,124.9 889.4,125.1 890.1,125.3 890.7,125.6 890.8,125.7 890.9,125.9 892.8,126.1 892.8,126.4 892.8,126.5 897.8,126.7 898.6,126.9 899.9,125.9 901.7,126.0 902.5,126.2 906.5,125.4 907.8,124.9 912.2,124.3 912.9,124.5 913.0,124.6 913.7,124.8 914.1,123.8 916.4,123.3 916.9,123.4 917.2,123.6 917.3,123.8 918.4,124.1 922.7,124.2 922.8,124.4 924.9,123.6 925.7,123.7 927.6,123.1 927.7,123.2 930.7,122.5 931.3,122.7" fill="none" stroke="#16a34a" stroke-width="2" stroke-linejoin="round"/>
  <line x1="88" y1="102" x2="110" y2="102" stroke="#16a34a" stroke-width="2.5"/><text x="116" y="106" font-size="11.5" fill="#374151">equity</text><line x1="88" y1="118" x2="110" y2="118" stroke="#d97706" stroke-width="2.5" opacity="0.8"/><text x="116" y="122" font-size="11.5" fill="#374151">price</text>
  <text x="78" y="502" text-anchor="start" font-size="12" fill="#6b7280">2025-10-10</text><text x="934" y="502" text-anchor="end" font-size="12" fill="#6b7280">2025-10-10</text>
</svg>
