<svg xmlns="http://www.w3.org/2000/svg" width="1100" height="560" font-family="ui-sans-serif, system-ui, sans-serif" viewBox="0 0 1100 560"><rect width="1100" height="560" fill="#fff"/><text x="80" y="28" fill="#111827" font-size="18" font-weight="700">Zone Recovery — ENAUSDC fee-tier comparison (best setting)</text><text x="80" y="48" fill="#6b7280" font-size="12.5">lev 20 · ratio 2 · gap 20% · maxSteps 4 · maxDD 60% · random · equity per fee tier vip 0..9</text><text x="80" y="68" fill="#1d4ed8" font-size="12.5" font-weight="600">USDC margin · BNB −10%</text><line x1="80" x2="932" y1="508" y2="508" stroke="#e5e7eb" stroke-width="1"/><text x="70" y="512" fill="#6b7280" font-size="12" text-anchor="end">0.00</text><line x1="80" x2="932" y1="424" y2="424" stroke="#e5e7eb" stroke-width="1"/><text x="70" y="428" fill="#6b7280" font-size="12" text-anchor="end">35319</text><line x1="80" x2="932" y1="340" y2="340" stroke="#e5e7eb" stroke-width="1"/><text x="70" y="344" fill="#6b7280" font-size="12" text-anchor="end">70638</text><line x1="80" x2="932" y1="256" y2="256" stroke="#e5e7eb" stroke-width="1"/><text x="70" y="260" fill="#6b7280" font-size="12" text-anchor="end">105956</text><line x1="80" x2="932" y1="172" y2="172" stroke="#e5e7eb" stroke-width="1"/><text x="70" y="176" fill="#6b7280" font-size="12" text-anchor="end">141275</text><line x1="80" x2="932" y1="88" y2="88" stroke="#e5e7eb" stroke-width="1"/><text x="70" y="92" fill="#6b7280" font-size="12" text-anchor="end">176594</text><line x1="80" x2="932" y1="484.2" y2="484.2" stroke="#9ca3af" stroke-dasharray="6 4" stroke-width="1.5"/><polyline fill="none" stroke="#2563eb" stroke-linejoin="round" stroke-width="1.8" points="80 484.2 80 480.8 87.4 477 89.3 479.4 92.1 472.8 95.8 475.6 101.3 468.1 102.2 471.2 102.4 476 108.7 463.2 110.5 466.7 111.7 472.1 114.2 457.7 115.2 461.7 115.7 467.7 115.8 476.6 119.5 452.5 119.9 456.9 120.1 463.5 122.7 473.4 122.9 488.2 128.3 489.8 132.8 492.1 133.6 485.8 133.8 487.5 138.3 490.2 140.1 494.1 144.5 483.5 152.9 485.4 160.6 488.3 163.6 492.7 167.1 480.9 167.9 483.1 168.9 486.3 171.4 477.6 174.1 480 175.1 473.5 177.3 468.6 178 471.7 178.4 476.4 185.5 483.4 187.6 464.5 189 467.9 191.6 458.6 193.7 451.6 197.9 456 198.2 462.8 198.7 472.8 201.3 445.7 201.5 450.2 204.4 438.1 204.5 442.7 209.2 430.3 209.7 422.1 209.7 426.7 210.2 433.5 210.4 443.8 212.7 459.3 212.9 463.1 217.1 452.7 221.5 444.9 224.9 436.6 225.1 441.1 225.6 447.8 226.7 429.7 227.7 421.6 229.1 426.2 231.8 433 233.1 414.5 234.9 406.3 235.2 410.8 235.6 417.5 237.5 399.3 238.5 403.9 239.4 410.8 243.3 421.1 245.2 436.5 247.5 428.5 250.4 433 252.6 420.7 263.1 412.6 263.5 404.4 268.5 396.3 272.3 400.9 273 407.7 275 418 281 390.2 281.7 382 282.6 373.8 283.5 378.3 283.7 385.2 286.6 395.5 286.9 411 287.3 415.5 302.3 403.2 302.9 394.9 310 386.7 310.9 391.2 311.3 397.9 313.4 379.8 314.4 384.3 315.9 391.2 320.3 401.5 327.2 373.7 328.3 378.2 346.4 384.9 350.6 395 362.6 367.8 370.7 372.4 373.5 360 374.6 364.6 374.7 371.5 376.8 352.9 378.2 357.4 383 364.2 385.5 346 390.8 337.9 394.7 342.4 395.8 349.1 399.7 331 401 335.5 409.3 342.4 410.1 323.9 413.4 328.5 413.7 335.3 415.7 345.6 417 361.1 420.3 352.8 420.9 357.4 422 364.3 422.4 374.6 422.7 390 423.4 394.6 424.8 401.5 429.1 383 429.2 374.7 429.2 366.5 429.2 371.1 429.4 377.9 433.9 359.4 434.4 364 439.1 370.9 439.4 352.3 439.4 356.9 440.8 363.8 441.9 374.1 443.4 346.3 446.5 338.2 447.8 342.7 449 330.6 450.4 335.1 451 341.8 452.5 323.6 452.8 328.1 452.9 334.9 453.9 345 456.8 360.1 460.2 352 462.5 356.6 463.4 344.3 467.8 336 476.2 340.6 477.3 328.2 477.8 332.7 477.9 339.5 478.6 349.6 480.1 364.7 480.3 369.3 504.8 356.9 505 361.5 510.6 368.4 526.8 349.9 541 341.8 558 333.7 559.3 338.2 560.1 344.9 561.4 355 569.5 370.2 569.9 362.1 569.9 366.6 570 373.3 570.4 355.2 570.6 359.7 570.6 347.4 570.6 339.3 570.6 331.2 570.6 335.8 570.6 323.4 570.6 328 570.6 334.9 570.6 345.2 570.6 317.4 570.6 309.3 570.6 313.8 570.7 301.7 570.7 306.2 570.7 294.1 570.7 286 570.7 290.5 570.7 297.2 570.7 279.1 570.7 270.8 570.7 275.4 570.7 282.3 570.7 263.8 570.7 255.5 570.7 247.3 570.7 239.2 570.8 243.7 570.8 250.4 571.6 260.5 584.6 275.7 598 267.5 602.6 259.4 605.8 264 606 270.8 606.6 281.1 608.4 253.3 613.6 257.9 615.5 264.8 616.1 275.1 616.1 290.5 616.3 295.1 620.2 282.7 620.6 287.2 624.5 293.9 627.3 304 628.3 319.2 628.7 323.7 639 330.4 640.4 312.3 642.6 316.8 642.7 323.7 643.2 305.2 644.5 309.8 644.9 316.6 645.2 326.9 645.7 299.1 645.8 303.7 645.8 310.5 646 320.8 646.1 336.3 646.7 328.2 646.9 332.7 648.9 320.6 649 325.1 649.2 313 650.1 317.6 650.5 324.4 653.2 334.7 663.7 306.9 664.5 311.4 670.1 318.2 672.1 300 683.9 291.8 689 283.5 692.4 275.4 699 280 700.4 286.9 702.3 268.4 702.5 272.9 702.6 279.6 704.4 261.4 705.8 266 712.2 272.9 726.1 283.2 747.8 255.4 754.5 259.9 756.4 247.6 756.6 252.1 756.7 259 756.7 269.3 757.1 284.8 760.2 276.7 760.8 268.6 761 273.1 766 261 767.8 252.8 783.2 257.3 783.6 264 785.1 274.1 786 289.2 787.7 281 801.3 272.9 812.4 264.7 813.5 269.3 815.4 276.1 817.1 257.6 818.5 262.2 819.8 269.1 826 279.4 829.5 294.8 835.1 299.3 836 306 841 287.9 847.8 279.6 849.1 284.2 852.1 271.9 852.1 276.4 862 264.1 866.5 256 866.7 247.9 866.8 252.5 867.1 259.4 867.4 269.7 867.7 285.1 868.8 289.6 870.4 296.3 871.1 278.2 873.6 269.9 876.1 274.5 877 281.4 879 291.7 879 263.9 879 255.8 879 260.3 879.3 248.2 879.5 252.8 882.1 259.6 884.4 269.9 885.4 285.4 888 289.9 889 296.8 895 307.1 895.1 322.6 895.2 327 895.7 333.8 896.3 343.9 896.7 359 898.1 363.6 898.4 351.2 898.8 343 898.8 347.5 901 354.2 913.6 336.1 914.5 328 920.4 332.6 921.5 320.2 921.6 324.8 921.7 312.4 921.7 316.9 921.7 323.7 922.2 333.8 924.4 348.9 924.6 353.5 924.6 360.3 924.7 370.6 924.8 342.8 924.8 347.4 924.8 335.1 924.9 339.5 924.9 346.3 924.9 356.4 924.9 371.5 924.9 363.3 924.9 367.8 925.3 374.5 925.3 384.6 925.4 399.8 926.5 404.3 926.6 392 926.6 383.9 926.6 388.5 926.6 395.4 926.6 405.7 926.6 421.1 926.6 412.9 926.7 404.6 926.8 409.1 926.8 415.9 927.1 426 929.3 398.7 929.3 403.3 929.8 410.2 930 391.7 932 396.2" opacity=".9"/><polyline fill="none" stroke="#dc2626" stroke-linejoin="round" stroke-width="1.8" points="80 484.2 80 480.8 87.4 477 89.3 479.4 92.1 472.8 95.8 475.6 101.3 468.1 102.2 471.2 102.4 476 108.7 463.2 110.5 466.7 111.7 472.1 114.2 457.7 115.2 461.7 115.7 467.7 115.8 476.6 119.5 452.5 119.9 456.9 120.1 463.5 122.7 473.4 122.9 488.2 128.3 489.8 132.8 492.1 133.6 485.8 133.8 487.5 138.3 490.2 140.1 494.1 144.5 483.5 152.9 485.4 160.6 488.3 163.6 492.7 167.1 480.9 167.9 483.1 168.9 486.3 171.4 477.6 174.1 480 175.1 473.5 177.3 468.6 178 471.7 178.4 476.4 185.5 483.4 187.6 464.5 189 467.9 191.6 458.6 193.7 451.6 197.9 456 198.2 462.8 198.7 472.8 201.3 445.7 201.5 450.2 204.4 438.1 204.5 442.7 209.2 430.3 209.7 422.1 209.7 426.7 210.2 433.5 210.4 443.8 212.7 459.3 212.9 463.1 217.1 452.7 221.5 444.9 224.9 436.6 225.1 441.1 225.6 447.8 226.7 429.7 227.7 421.6 229.1 426.2 231.8 433 233.1 414.5 234.9 406.3 235.2 410.8 235.6 417.5 237.5 399.3 238.5 403.9 239.4 410.8 243.3 421.1 245.2 436.5 247.5 428.5 250.4 433 252.6 420.7 263.1 412.6 263.5 404.4 268.5 396.3 272.3 400.9 273 407.7 275 418 281 390.2 281.7 382 282.6 373.8 283.5 378.3 283.7 385.2 286.6 395.5 286.9 411 287.3 415.5 302.3 403.2 302.9 394.9 310 386.7 310.9 391.2 311.3 397.9 313.4 379.8 314.4 384.3 315.9 391.2 320.3 401.5 327.2 373.7 328.3 378.2 346.4 384.9 350.6 395 362.6 367.8 370.7 372.4 373.5 360 374.6 364.6 374.7 371.5 376.8 352.9 378.2 357.4 383 364.2 385.5 346 390.8 337.9 394.7 342.4 395.8 349.1 399.7 331 401 335.5 409.3 342.4 410.1 323.9 413.4 328.5 413.7 335.3 415.7 345.6 417 361.1 420.3 352.8 420.9 357.4 422 364.3 422.4 374.6 422.7 390 423.4 394.6 424.8 401.5 429.1 383 429.2 374.7 429.2 366.5 429.2 371.1 429.4 377.9 433.9 359.4 434.4 364 439.1 370.9 439.4 352.3 439.4 356.9 440.8 363.8 441.9 374.1 443.4 346.3 446.5 338.2 447.8 342.7 449 330.6 450.4 335.1 451 341.8 452.5 323.6 452.8 328.1 452.9 334.9 453.9 345 456.8 360.1 460.2 352 462.5 356.6 463.4 344.3 467.8 336 476.2 340.6 477.3 328.2 477.8 332.7 477.9 339.5 478.6 349.6 480.1 364.7 480.3 369.3 504.8 356.9 505 361.5 510.6 368.4 526.8 349.9 541 341.8 558 333.7 559.3 338.2 560.1 344.9 561.4 355 569.5 370.2 569.9 362.1 569.9 366.6 570 373.3 570.4 355.2 570.6 359.7 570.6 347.4 570.6 339.3 570.6 331.2 570.6 335.8 570.6 323.4 570.6 328 570.6 334.9 570.6 345.2 570.6 317.4 570.6 309.3 570.6 313.8 570.7 301.7 570.7 306.2 570.7 294.1 570.7 286 570.7 290.5 570.7 297.2 570.7 279.1 570.7 270.8 570.7 275.4 570.7 282.3 570.7 263.8 570.7 255.5 570.7 247.3 570.7 239.2 570.8 243.7 570.8 250.4 571.6 260.5 584.6 275.7 598 267.5 602.6 259.4 605.8 264 606 270.8 606.6 281.1 608.4 253.3 613.6 257.9 615.5 264.8 616.1 275.1 616.1 290.5 616.3 295.1 620.2 282.7 620.6 287.2 624.5 293.9 627.3 304 628.3 319.2 628.7 323.7 639 330.4 640.4 312.3 642.6 316.8 642.7 323.7 643.2 305.2 644.5 309.8 644.9 316.6 645.2 326.9 645.7 299.1 645.8 303.7 645.8 310.5 646 320.8 646.1 336.3 646.7 328.2 646.9 332.7 648.9 320.6 649 325.1 649.2 313 650.1 317.6 650.5 324.4 653.2 334.7 663.7 306.9 664.5 311.4 670.1 318.2 672.1 300 683.9 291.8 689 283.5 692.4 275.4 699 280 700.4 286.9 702.3 268.4 702.5 272.9 702.6 279.6 704.4 261.4 705.8 266 712.2 272.9 726.1 283.2 747.8 255.4 754.5 259.9 756.4 247.6 756.6 252.1 756.7 259 756.7 269.3 757.1 284.8 760.2 276.7 760.8 268.6 761 273.1 766 261 767.8 252.8 783.2 257.3 783.6 264 785.1 274.1 786 289.2 787.7 281 801.3 272.9 812.4 264.7 813.5 269.3 815.4 276.1 817.1 257.6 818.5 262.2 819.8 269.1 826 279.4 829.5 294.8 835.1 299.3 836 306 841 287.9 847.8 279.6 849.1 284.2 852.1 271.9 852.1 276.4 862 264.1 866.5 256 866.7 247.9 866.8 252.5 867.1 259.4 867.4 269.7 867.7 285.1 868.8 289.6 870.4 296.3 871.1 278.2 873.6 269.9 876.1 274.5 877 281.4 879 291.7 879 263.9 879 255.8 879 260.3 879.3 248.2 879.5 252.8 882.1 259.6 884.4 269.9 885.4 285.4 888 289.9 889 296.8 895 307.1 895.1 322.6 895.2 327 895.7 333.8 896.3 343.9 896.7 359 898.1 363.6 898.4 351.2 898.8 343 898.8 347.5 901 354.2 913.6 336.1 914.5 328 920.4 332.6 921.5 320.2 921.6 324.8 921.7 312.4 921.7 316.9 921.7 323.7 922.2 333.8 924.4 348.9 924.6 353.5 924.6 360.3 924.7 370.6 924.8 342.8 924.8 347.4 924.8 335.1 924.9 339.5 924.9 346.3 924.9 356.4 924.9 371.5 924.9 363.3 924.9 367.8 925.3 374.5 925.3 384.6 925.4 399.8 926.5 404.3 926.6 392 926.6 383.9 926.6 388.5 926.6 395.4 926.6 405.7 926.6 421.1 926.6 412.9 926.7 404.6 926.8 409.1 926.8 415.9 927.1 426 929.3 398.7 929.3 403.3 929.8 410.2 930 391.7 932 396.2" opacity=".9"/><polyline fill="none" stroke="#16a34a" stroke-linejoin="round" stroke-width="1.8" points="80 484.2 80 480.8 87.4 476.9 89.3 479.3 92.1 472.6 95.8 475.4 101.3 467.8 102.2 470.9 102.4 475.7 108.7 462.7 110.5 466.2 111.7 471.5 114.2 456.9 115.2 460.9 115.7 466.9 115.8 475.9 119.5 451.2 119.9 455.6 120.1 462.2 122.7 472.2 122.9 487.1 128.3 488.8 132.8 491.2 133.6 484.5 133.8 486.3 138.3 489.1 140.1 493.2 144.5 481.8 152.9 483.9 160.6 486.9 163.6 491.5 167.1 478.9 167.9 481.1 168.9 484.6 171.4 475.2 174.1 477.7 175.1 470.7 177.3 465.3 178 468.6 178.4 473.6 185.5 481.1 187.6 460.5 189 464.2 191.6 453.9 193.7 446.2 197.9 450.6 198.2 457.3 198.7 467.2 201.3 439.8 201.5 444.2 204.4 432 204.5 436.5 209.2 424.1 209.7 415.8 209.7 420.3 210.2 427.1 210.4 437.3 212.7 452.5 212.9 456.8 217.1 444.9 221.5 436.6 224.9 428.3 225.1 432.7 225.6 439.4 226.7 421.1 227.7 412.9 229.1 417.4 231.8 424.2 233.1 405.6 234.9 397.3 235.2 401.7 235.6 408.3 237.5 390 238.5 394.5 239.4 401.3 243.3 411.5 245.2 426.7 247.5 418.6 250.4 423.1 252.6 410.7 263.1 402.5 263.5 394.2 268.5 386.1 272.3 390.6 273 397.4 275 407.5 281 379.5 281.7 371.2 282.6 362.9 283.5 367.5 283.7 374.2 286.6 384.4 286.9 399.6 287.3 404.1 302.3 391.7 302.9 383.4 310 375.1 310.9 379.5 311.3 386.2 313.4 367.9 314.4 372.4 315.9 379.2 320.3 389.3 327.2 361.3 328.3 365.7 346.4 372.4 350.6 382.3 362.6 354.9 370.7 359.4 373.5 347 374.6 351.5 374.7 358.3 376.8 339.6 378.2 344 383 350.7 385.5 332.4 390.8 324.3 394.7 328.7 395.8 335.3 399.7 317 401 321.5 409.3 328.3 410.1 309.7 413.4 314.2 413.7 320.9 415.7 331.1 417 346.3 420.3 338 420.9 342.6 422 349.3 422.4 359.5 422.7 374.7 423.4 379.3 424.8 386 429.1 367.4 429.2 359.1 429.2 350.8 429.2 355.3 429.4 362.1 433.9 343.4 434.4 347.9 439.1 354.7 439.4 336 439.4 340.6 440.8 347.3 441.9 357.5 443.4 329.5 446.5 321.3 447.8 325.8 449 313.6 450.4 318 451 324.6 452.5 306.3 452.8 310.8 452.9 317.4 453.9 327.4 456.8 342.3 460.2 334.2 462.5 338.7 463.4 326.3 467.8 318 476.2 322.5 477.3 310 477.8 314.5 477.9 321.1 478.6 331.1 480.1 346 480.3 350.5 504.8 338.1 505 342.6 510.6 349.4 526.8 330.7 541 322.6 558 314.4 559.3 318.9 560.1 325.5 561.4 335.5 569.5 350.4 569.9 342.3 569.9 346.7 570 353.4 570.4 335.1 570.6 339.6 570.6 327.1 570.6 319 570.6 310.9 570.6 315.4 570.6 302.9 570.6 307.4 570.6 314.2 570.6 324.4 570.6 296.4 570.6 288.2 570.6 292.7 570.7 280.5 570.7 284.9 570.7 272.7 570.7 264.6 570.7 269 570.7 275.6 570.7 257.3 570.7 249 570.7 253.6 570.7 260.3 570.7 241.7 570.7 233.4 570.7 225.1 570.7 217 570.8 221.4 570.8 228 571.6 238 584.6 252.9 598 244.6 602.6 236.5 605.8 241 606 247.8 606.6 258 608.4 229.9 613.6 234.5 615.5 241.2 616.1 251.4 616.1 266.6 616.3 271.1 620.2 258.7 620.6 263.1 624.5 269.8 627.3 279.7 628.3 294.7 628.7 299.1 639 305.8 640.4 287.4 642.6 292 642.7 298.7 643.2 280.1 644.5 284.6 644.9 291.4 645.2 301.5 645.7 273.5 645.8 278 645.8 284.8 646 295 646.1 310.2 646.7 302.1 646.9 306.5 648.9 294.3 649 298.7 649.2 286.5 650.1 291.1 650.5 297.8 653.2 308 663.7 280 664.5 284.4 670.1 291.1 672.1 272.8 683.9 264.5 689 256.2 692.4 248 699 252.5 700.4 259.3 702.3 240.7 702.5 245.1 702.6 251.7 704.4 233.4 705.8 237.9 712.2 244.7 726.1 254.9 747.8 226.9 754.5 231.4 756.4 218.9 756.6 223.4 756.7 230.2 756.7 240.4 757.1 255.6 760.2 247.5 760.8 239.4 761 243.8 766 231.6 767.8 223.3 783.2 227.7 783.6 234.4 785.1 244.3 786 259.3 787.7 251 801.3 242.9 812.4 234.6 813.5 239.1 815.4 245.8 817.1 227.2 818.5 231.7 819.8 238.5 826 248.6 829.5 263.9 835.1 268.3 836 274.9 841 256.6 847.8 248.4 849.1 252.9 852.1 240.4 852.1 244.9 862 232.5 866.5 224.4 866.7 216.2 866.8 220.7 867.1 227.5 867.4 237.7 867.7 252.9 868.8 257.3 870.4 264 871.1 245.7 873.6 237.4 876.1 241.9 877 248.7 879 258.8 879 230.8 879 222.7 879 227.1 879.3 214.9 879.5 219.4 882.1 226.2 884.4 236.4 885.4 251.6 888 256.1 889 262.9 895 273.1 895.1 288.3 895.2 292.7 895.7 299.4 896.3 309.3 896.7 324.3 898.1 328.8 898.4 316.3 898.8 308.1 898.8 312.5 901 319.1 913.6 300.8 914.5 292.7 920.4 297.2 921.5 284.8 921.6 289.3 921.7 276.8 921.7 281.2 921.7 287.9 922.2 297.9 924.4 312.8 924.6 317.3 924.6 324.1 924.7 334.3 924.8 306.2 924.8 310.8 924.8 298.3 924.9 302.7 924.9 309.4 924.9 319.3 924.9 334.3 924.9 326 924.9 330.4 925.3 337.1 925.3 347 925.4 362 926.5 366.5 926.6 354 926.6 345.9 926.6 350.4 926.6 357.2 926.6 367.4 926.6 382.6 926.6 374.3 926.7 366 926.8 370.4 926.8 377.1 927.1 387 929.3 359.6 929.3 364.1 929.8 370.9 930 352.2 932 356.7" opacity=".9"/><polyline fill="none" stroke="#d97706" stroke-linejoin="round" stroke-width="1.8" points="80 484.2 80 480.8 87.4 476.9 89.3 479.3 92.1 472.5 95.8 475.3 101.3 467.6 102.2 470.7 102.4 475.4 108.7 462.3 110.5 465.8 111.7 471.1 114.2 456.3 115.2 460.3 115.7 466.3 115.8 475.3 119.5 450.1 119.9 454.5 120.1 461 122.7 470.9 122.9 485.7 128.3 487.4 132.8 490 133.6 482.7 133.8 484.7 138.3 487.6 140.1 492 144.5 479.7 152.9 481.9 160.6 485.2 163.6 490.1 167.1 476.3 167.9 478.8 168.9 482.4 171.4 472.1 174.1 474.9 175.1 467.2 177.3 461.3 178 464.9 178.4 470.3 185.5 478.4 187.6 455.6 189 459.7 191.6 448.4 193.7 440.2 197.9 444.6 198.2 451.1 198.7 461 201.3 433.4 201.5 437.8 204.4 425.5 204.5 430 209.2 417.4 209.7 409.1 209.7 413.6 210.2 420.3 210.4 430.3 212.7 445.4 212.9 449.9 217.1 437.3 221.5 429 224.9 420.7 225.1 425 225.6 431.6 226.7 413.2 227.7 405 229.1 409.5 231.8 416.2 233.1 397.4 234.9 389.1 235.2 393.4 235.6 400 237.5 381.6 238.5 386.1 239.4 392.8 243.3 402.8 245.2 417.9 247.5 409.7 250.4 414.2 252.6 401.7 263.1 393.5 263.5 385.1 268.5 377 272.3 381.4 273 388.1 275 398.2 281 370 281.7 361.7 282.6 353.3 283.5 357.8 283.7 364.5 286.6 374.5 286.9 389.6 287.3 394.1 302.3 381.5 302.9 373.2 310 364.9 310.9 369.2 311.3 375.8 313.4 357.4 314.4 361.9 315.9 368.6 320.3 378.6 327.2 350.4 328.3 354.8 346.4 361.4 350.6 371.2 362.6 343.7 370.7 348.1 373.5 335.6 374.6 340.1 374.7 346.8 376.8 328 378.2 332.4 383 338.9 385.5 320.5 390.8 312.3 394.7 316.7 395.8 323.3 399.7 304.9 401 309.4 409.3 316.1 410.1 297.3 413.4 301.8 413.7 308.5 415.7 318.5 417 333.6 420.3 325.2 420.9 329.7 422 336.4 422.4 346.5 422.7 361.5 423.4 366 424.8 372.7 429.1 353.9 429.2 345.6 429.2 337.2 429.2 341.7 429.4 348.4 433.9 329.6 434.4 334.1 439.1 340.8 439.4 322 439.4 326.5 440.8 333.2 441.9 343.2 443.4 315.1 446.5 306.9 447.8 311.3 449 299 450.4 303.4 451 310 452.5 291.5 452.8 295.9 452.9 302.5 453.9 312.3 456.8 327.1 460.2 318.9 462.5 323.4 463.4 310.9 467.8 302.5 476.2 307 477.3 294.5 477.8 298.9 477.9 305.4 478.6 315.3 480.1 330.1 480.3 334.5 504.8 322 505 326.5 510.6 333.2 526.8 314.4 541 306.2 558 298.1 559.3 302.4 560.1 309 561.4 318.9 569.5 333.6 569.9 325.5 569.9 329.8 570 336.4 570.4 318 570.6 322.5 570.6 309.9 570.6 301.8 570.6 293.6 570.6 298.1 570.6 285.5 570.6 290 570.6 296.7 570.6 306.7 570.6 278.6 570.6 270.4 570.6 274.8 570.7 262.5 570.7 266.9 570.7 254.6 570.7 246.4 570.7 250.8 570.7 257.4 570.7 239 570.7 230.6 570.7 235.1 570.7 241.8 570.7 223 570.7 214.7 570.7 206.3 570.7 198.2 570.8 202.5 570.8 209.1 571.6 219 584.6 233.8 598 225.4 602.6 217.2 605.8 221.7 606 228.4 606.6 238.4 608.4 210.3 613.6 214.7 615.5 221.4 616.1 231.5 616.1 246.6 616.3 251 620.2 238.5 620.6 242.9 624.5 249.5 627.3 259.3 628.3 274.1 628.7 278.5 639 285 640.4 266.6 642.6 271.1 642.7 277.8 643.2 259 644.5 263.5 644.9 270.2 645.2 280.2 645.7 252.1 645.8 256.5 645.8 263.2 646 273.3 646.1 288.4 646.7 280.2 646.9 284.6 648.9 272.3 649 276.7 649.2 264.4 650.1 268.9 650.5 275.6 653.2 285.6 663.7 257.5 664.5 261.8 670.1 268.4 672.1 250 683.9 241.6 689 233.3 692.4 225.1 699 229.6 700.4 236.3 702.3 217.5 702.5 221.9 702.6 228.5 704.4 210.1 705.8 214.5 712.2 221.2 726.1 231.3 747.8 203.1 754.5 207.6 756.4 195 756.6 199.5 756.7 206.2 756.7 216.3 757.1 231.3 760.2 223.2 760.8 215 761 219.4 766 207.1 767.8 198.7 783.2 203.1 783.6 209.7 785.1 219.6 786 234.3 787.7 226 801.3 217.8 812.4 209.5 813.5 213.9 815.4 220.6 817.1 201.9 818.5 206.3 819.8 213 826 223.1 829.5 238.2 835.1 242.5 836 249.1 841 230.7 847.8 222.4 849.1 226.8 852.1 214.3 852.1 218.8 862 206.2 866.5 198.1 866.7 189.9 866.8 194.3 867.1 201 867.4 211.1 867.7 226.2 868.8 230.5 870.4 237.1 871.1 218.7 873.6 210.4 876.1 214.8 877 221.5 879 231.6 879 203.4 879 195.2 879 199.6 879.3 187.3 879.5 191.8 882.1 198.5 884.4 208.6 885.4 223.6 888 228.1 889 234.8 895 244.9 895.1 259.9 895.2 264.3 895.7 270.9 896.3 280.7 896.7 295.5 898.1 300 898.4 287.5 898.8 279.1 898.8 283.5 901 290.1 913.6 271.7 914.5 263.5 920.4 267.9 921.5 255.4 921.6 259.9 921.7 247.4 921.7 251.7 921.7 258.3 922.2 268.2 924.4 283 924.6 287.4 924.6 294.1 924.7 304.2 924.8 276 924.8 280.5 924.8 267.9 924.9 272.3 924.9 278.9 924.9 288.7 924.9 303.5 924.9 295.2 924.9 299.6 925.3 306.1 925.3 316 925.4 330.8 926.5 335.2 926.6 322.7 926.6 314.5 926.6 319 926.6 325.7 926.6 335.7 926.6 350.8 926.6 342.5 926.7 334.1 926.8 338.5 926.8 345.1 927.1 354.9 929.3 327.3 929.3 331.8 929.8 338.5 930 319.7 932 324.1" opacity=".9"/><polyline fill="none" stroke="#7c3aed" stroke-linejoin="round" stroke-width="1.8" points="80 484.2 80 480.8 87.4 476.8 89.3 479.2 92.1 472.4 95.8 475.1 101.3 467.3 102.2 470.4 102.4 475 108.7 461.7 110.5 465.2 111.7 470.5 114.2 455.4 115.2 459.4 115.7 465.4 115.8 474.4 119.5 448.5 119.9 452.8 120.1 459.3 122.7 469 122.9 483.6 128.3 485.4 132.8 488.2 133.6 480.2 133.8 482.3 138.3 485.5 140.1 490.2 144.5 476.6 152.9 479 160.6 482.6 163.6 487.9 167.1 472.5 167.9 475.2 168.9 479.3 171.4 467.6 174.1 470.7 175.1 461.9 177.3 455.2 178 459.2 178.4 465.2 185.5 474.3 187.6 448.3 189 452.6 191.6 440.3 193.7 432 197.9 436.3 198.2 442.8 198.7 452.5 201.3 424.7 201.5 429 204.4 416.6 204.5 421 209.2 408.4 209.7 400 209.7 404.4 210.2 411 210.4 420.9 212.7 435.7 212.9 440.1 217.1 427.5 221.5 419.1 224.9 410.6 225.1 415 225.6 421.4 226.7 402.9 227.7 394.6 229.1 399 231.8 405.6 233.1 386.7 234.9 378.3 235.2 382.6 235.6 389 237.5 370.5 238.5 374.9 239.4 381.5 243.3 391.4 245.2 406.2 247.5 398 250.4 402.4 252.6 389.7 263.1 381.5 263.5 373.1 268.5 364.8 272.3 369.2 273 375.8 275 385.7 281 357.3 281.7 348.9 282.6 340.5 283.5 344.9 283.7 351.5 286.6 361.3 286.9 376.2 287.3 380.6 302.3 368 302.9 359.5 310 351.1 310.9 355.4 311.3 361.9 313.4 343.3 314.4 347.7 315.9 354.3 320.3 364.2 327.2 335.8 328.3 340.1 346.4 346.6 350.6 356.3 362.6 328.5 370.7 332.9 373.5 320.2 374.6 324.6 374.7 331.2 376.8 312.3 378.2 316.6 383 323.1 385.5 304.5 390.8 296.3 394.7 300.6 395.8 307.1 399.7 288.5 401 292.9 409.3 299.5 410.1 280.6 413.4 285 413.7 291.5 415.7 301.4 417 316.3 420.3 307.9 420.9 312.3 422 318.9 422.4 328.8 422.7 343.6 423.4 348 424.8 354.6 429.1 335.7 429.2 327.2 429.2 318.8 429.2 323.2 429.4 329.8 433.9 310.9 434.4 315.3 439.1 321.9 439.4 303 439.4 307.3 440.8 313.9 441.9 323.8 443.4 295.4 446.5 287.2 447.8 291.5 449 279.1 450.4 283.4 451 289.9 452.5 271.3 452.8 275.6 452.9 282.1 453.9 291.8 456.8 306.4 460.2 298.1 462.5 302.5 463.4 289.9 467.8 281.5 476.2 285.9 477.3 273.2 477.8 277.6 477.9 284 478.6 293.7 480.1 308.3 480.3 312.7 504.8 300 505 304.4 510.6 311 526.8 292.1 541 283.9 558 275.6 559.3 279.9 560.1 286.4 561.4 296.1 569.5 310.6 569.9 302.4 569.9 306.7 570 313.2 570.4 294.6 570.6 299 570.6 286.4 570.6 278.1 570.6 269.9 570.6 274.3 570.6 261.6 570.6 266 570.6 272.6 570.6 282.5 570.6 254.1 570.6 245.9 570.6 250.2 570.7 237.8 570.7 242.1 570.7 229.8 570.7 221.5 570.7 225.8 570.7 232.3 570.7 213.7 570.7 205.3 570.7 209.7 570.7 216.3 570.7 197.4 570.7 189 570.7 180.5 570.7 172.3 570.8 176.6 570.8 183.1 571.6 192.8 584.6 207.3 598 198.9 602.6 190.7 605.8 195.1 606 201.7 606.6 211.6 608.4 183.1 613.6 187.5 615.5 194.1 616.1 204 616.1 218.9 616.3 223.3 620.2 210.6 620.6 215 624.5 221.4 627.3 231.1 628.3 245.7 628.7 250 639 256.4 640.4 237.9 642.6 242.3 642.7 248.9 643.2 229.9 644.5 234.3 644.9 240.9 645.2 250.8 645.7 222.4 645.8 226.8 645.8 233.4 646 243.3 646.1 258.2 646.7 249.9 646.9 254.2 648.9 241.8 649 246.2 649.2 233.8 650.1 238.2 650.5 244.8 653.2 254.7 663.7 226.3 664.5 230.6 670.1 237 672.1 218.5 683.9 210.1 689 201.7 692.4 193.4 699 197.8 700.4 204.4 702.3 185.5 702.5 189.8 702.6 196.2 704.4 177.7 705.8 182.1 712.2 188.7 726.1 198.6 747.8 170.2 754.5 174.6 756.4 161.9 756.6 166.3 756.7 172.9 756.7 182.8 757.1 197.7 760.2 189.4 760.8 181.2 761 185.5 766 173.1 767.8 164.7 783.2 169 783.6 175.5 785.1 185.2 786 199.7 787.7 191.3 801.3 183.1 812.4 174.6 813.5 179 815.4 185.6 817.1 166.7 818.5 171.1 819.8 177.7 826 187.6 829.5 202.4 835.1 206.7 836 213.2 841 194.6 847.8 186.2 849.1 190.6 852.1 178 852.1 182.4 862 169.8 866.5 161.5 866.7 153.3 866.8 157.7 867.1 164.3 867.4 174.2 867.7 189 868.8 193.3 870.4 199.8 871.1 181.2 873.6 172.8 876.1 177.2 877 183.8 879 193.7 879 165.3 879 157 879 161.3 879.3 149 879.5 153.4 882.1 160 884.4 169.9 885.4 184.7 888 189.1 889 195.7 895 205.6 895.1 220.4 895.2 224.7 895.7 231.2 896.3 240.9 896.7 255.5 898.1 259.9 898.4 247.2 898.8 238.8 898.8 243.1 901 249.6 913.6 231 914.5 222.8 920.4 227.2 921.5 214.6 921.6 218.9 921.7 206.3 921.7 210.6 921.7 217.1 922.2 226.8 924.4 241.4 924.6 245.7 924.6 252.3 924.7 262.2 924.8 233.8 924.8 238.2 924.8 225.6 924.9 229.9 924.9 236.4 924.9 246.1 924.9 260.6 924.9 252.2 924.9 256.5 925.3 263 925.3 272.7 925.4 287.2 926.5 291.6 926.6 279 926.6 270.8 926.6 275.2 926.6 281.8 926.6 291.7 926.6 306.5 926.6 298.1 926.7 289.7 926.8 294 926.8 300.4 927.1 310.1 929.3 282.3 929.3 286.7 929.8 293.3 930 274.4 932 278.7" opacity=".9"/><polyline fill="none" stroke="#0891b2" stroke-linejoin="round" stroke-width="1.8" points="80 484.2 80 480.8 87.4 476.8 89.3 479.1 92.1 472.3 95.8 475 101.3 467.2 102.2 470.3 102.4 475 108.7 461.6 110.5 465.1 111.7 470.4 114.2 455.2 115.2 459.2 115.7 465.2 115.8 474.2 119.5 448.2 119.9 452.5 120.1 459 122.7 468.7 122.9 483.2 128.3 485.1 132.8 487.9 133.6 479.7 133.8 481.9 138.3 485.1 140.1 489.9 144.5 476 152.9 478.5 160.6 482.1 163.6 487.5 167.1 471.8 167.9 474.6 168.9 478.7 171.4 466.8 174.1 469.9 175.1 460.9 177.3 454.1 178 458.2 178.4 464.3 185.5 473.5 187.6 447 189 451.3 191.6 438.9 193.7 430.6 197.9 434.9 198.2 441.4 198.7 451.1 201.3 423.2 201.5 427.5 204.4 415.1 204.5 419.5 209.2 406.8 209.7 398.4 209.7 402.8 210.2 409.4 210.4 419.2 212.7 434 212.9 438.4 217.1 425.8 221.5 417.4 224.9 408.9 225.1 413.2 225.6 419.7 226.7 401.1 227.7 392.8 229.1 397.2 231.8 403.8 233.1 384.8 234.9 376.4 235.2 380.7 235.6 387.2 237.5 368.6 238.5 373 239.4 379.5 243.3 389.4 245.2 404.2 247.5 395.9 250.4 400.3 252.6 387.7 263.1 379.4 263.5 371 268.5 362.7 272.3 367.1 273 373.7 275 383.6 281 355.1 281.7 346.7 282.6 338.3 283.5 342.6 283.7 349.2 286.6 359.1 286.9 373.9 287.3 378.3 302.3 365.6 302.9 357.2 310 348.8 310.9 353.1 311.3 359.5 313.4 340.9 314.4 345.3 315.9 351.9 320.3 361.8 327.2 333.3 328.3 337.6 346.4 344.1 350.6 353.7 362.6 325.9 370.7 330.2 373.5 317.6 374.6 322 374.7 328.6 376.8 309.6 378.2 313.9 383 320.3 385.5 301.8 390.8 293.5 394.7 297.8 395.8 304.2 399.7 285.7 401 290 409.3 296.6 410.1 277.7 413.4 282 413.7 288.6 415.7 298.5 417 313.3 420.3 304.9 420.9 309.2 422 315.8 422.4 325.7 422.7 340.5 423.4 344.9 424.8 351.4 429.1 332.5 429.2 324.1 429.2 315.6 429.2 320 429.4 326.6 433.9 307.6 434.4 312 439.1 318.6 439.4 299.6 439.4 304 440.8 310.6 441.9 320.5 443.4 292 446.5 283.8 447.8 288.1 449 275.7 450.4 280 451 286.4 452.5 267.8 452.8 272.1 452.9 278.6 453.9 288.3 456.8 302.8 460.2 294.5 462.5 298.9 463.4 286.2 467.8 277.8 476.2 282.2 477.3 269.6 477.8 273.9 477.9 280.3 478.6 290 480.1 304.5 480.3 308.9 504.8 296.2 505 300.6 510.6 307.2 526.8 288.2 541 280 558 271.7 559.3 276 560.1 282.5 561.4 292.1 569.5 306.6 569.9 298.4 569.9 302.7 570 309.1 570.4 290.5 570.6 294.9 570.6 282.3 570.6 274 570.6 265.8 570.6 270.1 570.6 257.5 570.6 261.9 570.6 268.5 570.6 278.3 570.6 249.9 570.6 241.6 570.6 245.9 570.7 233.5 570.7 237.8 570.7 225.4 570.7 217.2 570.7 221.5 570.7 227.9 570.7 209.3 570.7 200.9 570.7 205.3 570.7 211.9 570.7 192.9 570.7 184.5 570.7 176.1 570.7 167.8 570.8 172.1 570.8 178.5 571.6 188.2 584.6 202.7 598 194.3 602.6 186 605.8 190.4 606 197 606.6 206.9 608.4 178.4 613.6 182.8 615.5 189.4 616.1 199.2 616.1 214 616.3 218.4 620.2 205.8 620.6 210.1 624.5 216.5 627.3 226.2 628.3 240.7 628.7 245 639 251.5 640.4 232.9 642.6 237.3 642.7 243.8 643.2 224.9 644.5 229.3 644.9 235.8 645.2 245.7 645.7 217.3 645.8 221.6 645.8 228.2 646 238.1 646.1 252.9 646.7 244.6 646.9 248.9 648.9 236.5 649 240.8 649.2 228.5 650.1 232.8 650.5 239.4 653.2 249.3 663.7 220.8 664.5 225.1 670.1 231.6 672.1 213 683.9 204.6 689 196.1 692.4 187.9 699 192.3 700.4 198.8 702.3 179.9 702.5 184.2 702.6 190.6 704.4 172 705.8 176.4 712.2 183 726.1 192.9 747.8 164.4 754.5 168.8 756.4 156.2 756.6 160.5 756.7 167.1 756.7 177 757.1 191.8 760.2 183.5 760.8 175.3 761 179.6 766 167.2 767.8 158.7 783.2 163 783.6 169.5 785.1 179.2 786 193.7 787.7 185.3 801.3 177 812.4 168.6 813.5 172.9 815.4 179.5 817.1 160.6 818.5 165 819.8 171.5 826 181.4 829.5 196.2 835.1 200.5 836 206.9 841 188.4 847.8 179.9 849.1 184.3 852.1 171.7 852.1 176.1 862 163.4 866.5 155.1 866.7 146.9 866.8 151.3 867.1 157.8 867.4 167.7 867.7 182.5 868.8 186.8 870.4 193.3 871.1 174.7 873.6 166.2 876.1 170.6 877 177.2 879 187.1 879 158.6 879 150.4 879 154.7 879.3 142.3 879.5 146.7 882.1 153.2 884.4 163.1 885.4 177.9 888 182.3 889 188.9 895 198.7 895.1 213.5 895.2 217.8 895.7 224.3 896.3 234 896.7 248.5 898.1 252.8 898.4 240.2 898.8 231.8 898.8 236.1 901 242.5 913.6 223.9 914.5 215.7 920.4 220.1 921.5 207.4 921.6 211.8 921.7 199.2 921.7 203.5 921.7 209.9 922.2 219.6 924.4 234.1 924.6 238.5 924.6 245 924.7 254.9 924.8 226.5 924.8 230.8 924.8 218.2 924.9 222.5 924.9 229 924.9 238.6 924.9 253.1 924.9 244.7 924.9 249 925.3 255.5 925.3 265.1 925.4 279.6 926.5 284 926.6 271.4 926.6 263.1 926.6 267.5 926.6 274.1 926.6 283.9 926.6 298.7 926.6 290.3 926.7 281.9 926.8 286.2 926.8 292.6 927.1 302.3 929.3 274.4 929.3 278.8 929.8 285.4 930 266.4 932 270.7" opacity=".9"/><polyline fill="none" stroke="#db2777" stroke-linejoin="round" stroke-width="1.8" points="80 484.2 80 480.7 87.4 476.8 89.3 479.1 92.1 472.3 95.8 475 101.3 467.2 102.2 470.3 102.4 474.9 108.7 461.5 110.5 465 111.7 470.3 114.2 455.1 115.2 459.1 115.7 465.1 115.8 474.1 119.5 448.1 119.9 452.3 120.1 458.8 122.7 468.4 122.9 482.9 128.3 484.8 132.8 487.7 133.6 479.4 133.8 481.6 138.3 484.8 140.1 489.7 144.5 475.6 152.9 478.1 160.6 481.8 163.6 487.3 167.1 471.4 167.9 474.1 168.9 478.3 171.4 466.3 174.1 469.4 175.1 460.3 177.3 453.3 178 457.5 178.4 463.7 185.5 473 187.6 446.1 189 450.3 191.6 437.9 193.7 429.7 197.9 434 198.2 440.4 198.7 450.1 201.3 422.2 201.5 426.4 204.4 414 204.5 418.4 209.2 405.8 209.7 397.3 209.7 401.7 210.2 408.3 210.4 418.1 212.7 432.9 212.9 437.3 217.1 424.6 221.5 416.2 224.9 407.7 225.1 412 225.6 418.5 226.7 399.9 227.7 391.6 229.1 396 231.8 402.5 233.1 383.6 234.9 375.1 235.2 379.4 235.6 385.9 237.5 367.2 238.5 371.6 239.4 378.2 243.3 388 245.2 402.8 247.5 394.5 250.4 398.9 252.6 386.3 263.1 378 263.5 369.5 268.5 361.3 272.3 365.7 273 372.2 275 382.1 281 353.6 281.7 345.2 282.6 336.7 283.5 341.1 283.7 347.7 286.6 357.5 286.9 372.3 287.3 376.7 302.3 364 302.9 355.6 310 347.1 310.9 351.4 311.3 357.9 313.4 339.2 314.4 343.6 315.9 350.2 320.3 360 327.2 331.6 328.3 335.9 346.4 342.3 350.6 351.9 362.6 324 370.7 328.4 373.5 315.8 374.6 320.1 374.7 326.7 376.8 307.7 378.2 312 383 318.5 385.5 299.8 390.8 291.6 394.7 295.9 395.8 302.3 399.7 283.7 401 288.1 409.3 294.6 410.1 275.7 413.4 280 413.7 286.6 415.7 296.4 417 311.2 420.3 302.8 420.9 307.2 422 313.7 422.4 323.6 422.7 338.3 423.4 342.7 424.8 349.3 429.1 330.3 429.2 321.9 429.2 313.4 429.2 317.8 429.4 324.4 433.9 305.4 434.4 309.8 439.1 316.3 439.4 297.4 439.4 301.7 440.8 308.3 441.9 318.1 443.4 289.7 446.5 281.4 447.8 285.7 449 273.3 450.4 277.6 451 284 452.5 265.4 452.8 269.7 452.9 276.1 453.9 285.8 456.8 300.3 460.2 292 462.5 296.4 463.4 283.7 467.8 275.3 476.2 279.7 477.3 267 477.8 271.3 477.9 277.7 478.6 287.4 480.1 301.9 480.3 306.3 504.8 293.6 505 298 510.6 304.5 526.8 285.6 541 277.3 558 269 559.3 273.3 560.1 279.7 561.4 289.4 569.5 303.9 569.9 295.6 569.9 299.9 570 306.3 570.4 287.7 570.6 292.1 570.6 279.5 570.6 271.2 570.6 262.9 570.6 267.3 570.6 254.6 570.6 259 570.6 265.6 570.6 275.4 570.6 246.9 570.6 238.7 570.6 243 570.7 230.6 570.7 234.9 570.7 222.5 570.7 214.2 570.7 218.5 570.7 224.9 570.7 206.3 570.7 197.9 570.7 202.2 570.7 208.8 570.7 189.8 570.7 181.4 570.7 173 570.7 164.7 570.8 169 570.8 175.4 571.6 185.1 584.6 199.6 598 191.1 602.6 182.9 605.8 187.2 606 193.8 606.6 203.6 608.4 175.2 613.6 179.5 615.5 186.1 616.1 196 616.1 210.7 616.3 215.1 620.2 202.4 620.6 206.7 624.5 213.2 627.3 222.8 628.3 237.3 628.7 241.6 639 248 640.4 229.4 642.6 233.8 642.7 240.4 643.2 221.4 644.5 225.8 644.9 232.3 645.2 242.2 645.7 213.7 645.8 218.1 645.8 224.6 646 234.5 646.1 249.3 646.7 241 646.9 245.3 648.9 232.9 649 237.2 649.2 224.8 650.1 229.1 650.5 235.7 653.2 245.6 663.7 217.1 664.5 221.4 670.1 227.8 672.1 209.2 683.9 200.8 689 192.3 692.4 184.1 699 188.4 700.4 195 702.3 176 702.5 180.3 702.6 186.8 704.4 168.1 705.8 172.5 712.2 179.1 726.1 188.9 747.8 160.5 754.5 164.8 756.4 152.2 756.6 156.6 756.7 163.1 756.7 173 757.1 187.7 760.2 179.5 760.8 171.2 761 175.5 766 163.1 767.8 154.7 783.2 158.9 783.6 165.4 785.1 175 786 189.5 787.7 181.1 801.3 172.8 812.4 164.4 813.5 168.8 815.4 175.3 817.1 156.3 818.5 160.7 819.8 167.3 826 177.1 829.5 191.9 835.1 196.2 836 202.6 841 184 847.8 175.6 849.1 180 852.1 167.3 852.1 171.7 862 159 866.5 150.8 866.7 142.5 866.8 146.9 867.1 153.4 867.4 163.3 867.7 178 868.8 182.3 870.4 188.8 871.1 170.2 873.6 161.7 876.1 166.1 877 172.7 879 182.5 879 154 879 145.8 879 150.1 879.3 137.7 879.5 142 882.1 148.6 884.4 158.4 885.4 173.2 888 177.6 889 184.2 895 194 895.1 208.8 895.2 213.1 895.7 219.5 896.3 229.2 896.7 243.6 898.1 248 898.4 235.4 898.8 226.9 898.8 231.2 901 237.7 913.6 219 914.5 210.8 920.4 215.2 921.5 202.5 921.6 206.9 921.7 194.2 921.7 198.5 921.7 204.9 922.2 214.6 924.4 229.1 924.6 233.5 924.6 240 924.7 249.9 924.8 221.4 924.8 225.8 924.8 213.1 924.9 217.4 924.9 223.8 924.9 233.5 924.9 248 924.9 239.5 924.9 243.8 925.3 250.3 925.3 259.9 925.4 274.4 926.5 278.8 926.6 266.1 926.6 257.8 926.6 262.2 926.6 268.8 926.6 278.6 926.6 293.4 926.6 285 926.7 276.5 926.8 280.8 926.8 287.3 927.1 296.9 929.3 269 929.3 273.4 929.8 280 930 261 932 265.3" opacity=".9"/><polyline fill="none" stroke="#65a30d" stroke-linejoin="round" stroke-width="1.8" points="80 484.2 80 480.7 87.4 476.8 89.3 479.1 92.1 472.3 95.8 475 101.3 467.1 102.2 470.2 102.4 474.9 108.7 461.4 110.5 464.9 111.7 470.2 114.2 454.9 115.2 458.9 115.7 464.9 115.8 473.9 119.5 447.8 119.9 452 120.1 458.5 122.7 468.1 122.9 482.5 128.3 484.4 132.8 487.3 133.6 478.9 133.8 481.1 138.3 484.4 140.1 489.4 144.5 475 152.9 477.5 160.6 481.3 163.6 486.9 167.1 470.6 167.9 473.4 168.9 477.7 171.4 465.4 174.1 468.6 175.1 459.2 177.3 452.1 178 456.3 178.4 462.7 185.5 472.1 187.6 444.6 189 448.9 191.6 436.5 193.7 428.2 197.9 432.4 198.2 438.9 198.7 448.5 201.3 420.5 201.5 424.8 204.4 412.4 204.5 416.8 209.2 404.1 209.7 395.6 209.7 400 210.2 406.6 210.4 416.4 212.7 431.1 212.9 435.5 217.1 422.8 221.5 414.3 224.9 405.9 225.1 410.2 225.6 416.6 226.7 398 227.7 389.7 229.1 394 231.8 400.6 233.1 381.6 234.9 373.1 235.2 377.4 235.6 383.8 237.5 365.2 238.5 369.5 239.4 376.1 243.3 385.9 245.2 400.6 247.5 392.4 250.4 396.7 252.6 384 263.1 375.8 263.5 367.3 268.5 359 272.3 363.4 273 369.9 275 379.8 281 351.2 281.7 342.8 282.6 334.3 283.5 338.7 283.7 345.2 286.6 355.1 286.9 369.8 287.3 374.2 302.3 361.5 302.9 353 310 344.6 310.9 348.9 311.3 355.3 313.4 336.6 314.4 341 315.9 347.6 320.3 357.4 327.2 328.8 328.3 333.1 346.4 339.5 350.6 349.2 362.6 321.2 370.7 325.6 373.5 312.9 374.6 317.3 374.7 323.8 376.8 304.8 378.2 309.1 383 315.5 385.5 296.9 390.8 288.6 394.7 292.9 395.8 299.3 399.7 280.6 401 285 409.3 291.6 410.1 272.6 413.4 276.9 413.7 283.5 415.7 293.3 417 308 420.3 299.6 420.9 303.9 422 310.5 422.4 320.3 422.7 335 423.4 339.4 424.8 345.9 429.1 326.9 429.2 318.5 429.2 310 429.2 314.4 429.4 320.9 433.9 301.9 434.4 306.3 439.1 312.8 439.4 293.8 439.4 298.2 440.8 304.7 441.9 314.5 443.4 286 446.5 277.7 447.8 282 449 269.6 450.4 273.9 451 280.3 452.5 261.7 452.8 265.9 452.9 272.4 453.9 282 456.8 296.4 460.2 288.1 462.5 292.5 463.4 279.8 467.8 271.4 476.2 275.7 477.3 263.1 477.8 267.3 477.9 273.8 478.6 283.4 480.1 297.8 480.3 302.2 504.8 289.5 505 293.9 510.6 300.4 526.8 281.4 541 273.1 558 264.8 559.3 269.1 560.1 275.5 561.4 285.2 569.5 299.6 569.9 291.3 569.9 295.6 570 302 570.4 283.4 570.6 287.7 570.6 275.1 570.6 266.8 570.6 258.5 570.6 262.9 570.6 250.2 570.6 254.6 570.6 261.1 570.6 270.9 570.6 242.4 570.6 234.1 570.6 238.4 570.7 226 570.7 230.2 570.7 217.8 570.7 209.5 570.7 213.8 570.7 220.2 570.7 201.6 570.7 193.2 570.7 197.5 570.7 204.1 570.7 185.1 570.7 176.6 570.7 168.2 570.7 159.9 570.8 164.2 570.8 170.6 571.6 180.2 584.6 194.6 598 186.2 602.6 177.9 605.8 182.3 606 188.8 606.6 198.6 608.4 170.1 613.6 174.5 615.5 181 616.1 190.8 616.1 205.6 616.3 209.9 620.2 197.3 620.6 201.5 624.5 207.9 627.3 217.6 628.3 232 628.7 236.3 639 242.7 640.4 224.1 642.6 228.4 642.7 235 643.2 216 644.5 220.3 644.9 226.9 645.2 236.7 645.7 208.2 645.8 212.5 645.8 219.1 646 228.9 646.1 243.6 646.7 235.3 646.9 239.6 648.9 227.2 649 231.5 649.2 219.1 650.1 223.4 650.5 230 653.2 239.8 663.7 211.3 664.5 215.6 670.1 222 672.1 203.3 683.9 194.9 689 186.4 692.4 178.2 699 182.5 700.4 189.1 702.3 170.1 702.5 174.3 702.6 180.8 704.4 162.1 705.8 166.5 712.2 173 726.1 182.8 747.8 154.3 754.5 158.7 756.4 146 756.6 150.4 756.7 156.9 756.7 166.7 757.1 181.5 760.2 173.2 760.8 164.9 761 169.2 766 156.8 767.8 148.3 783.2 152.6 783.6 159 785.1 168.6 786 183.1 787.7 174.6 801.3 166.3 812.4 157.9 813.5 162.3 815.4 168.8 817.1 149.8 818.5 154.2 819.8 160.7 826 170.5 829.5 185.2 835.1 189.5 836 195.9 841 177.3 847.8 168.9 849.1 173.2 852.1 160.5 852.1 164.9 862 152.2 866.5 143.9 866.7 135.7 866.8 140 867.1 146.6 867.4 156.4 867.7 171.1 868.8 175.4 870.4 181.8 871.1 163.2 873.6 154.7 876.1 159.1 877 165.6 879 175.5 879 146.9 879 138.7 879 142.9 879.3 130.5 879.5 134.9 882.1 141.4 884.4 151.2 885.4 166 888 170.3 889 176.9 895 186.7 895.1 201.4 895.2 205.7 895.7 212.1 896.3 221.7 896.7 236.2 898.1 240.5 898.4 227.9 898.8 219.4 898.8 223.7 901 230.1 913.6 211.5 914.5 203.2 920.4 207.6 921.5 194.9 921.6 199.2 921.7 186.6 921.7 190.8 921.7 197.3 922.2 206.9 924.4 221.3 924.6 225.7 924.6 232.2 924.7 242.1 924.8 213.5 924.8 217.9 924.8 205.2 924.9 209.5 924.9 215.9 924.9 225.5 924.9 240 924.9 231.5 924.9 235.8 925.3 242.2 925.3 251.8 925.4 266.3 926.5 270.6 926.6 258 926.6 249.7 926.6 254.1 926.6 260.6 926.6 270.4 926.6 285.1 926.6 276.7 926.7 268.2 926.8 272.5 926.8 278.9 927.1 288.6 929.3 260.6 929.3 265 929.8 271.5 930 252.5 932 256.8" opacity=".9"/><polyline fill="none" stroke="#475569" stroke-linejoin="round" stroke-width="1.8" points="80 484.2 80 480.7 87.4 476.8 89.3 479.1 92.1 472.3 95.8 474.9 101.3 467.1 102.2 470.2 102.4 474.8 108.7 461.4 110.5 464.9 111.7 470.1 114.2 454.8 115.2 458.8 115.7 464.8 115.8 473.8 119.5 447.6 119.9 451.8 120.1 458.2 122.7 467.8 122.9 482.3 128.3 484.2 132.8 487.1 133.6 478.6 133.8 480.8 138.3 484.2 140.1 489.1 144.5 474.7 152.9 477.2 160.6 480.9 163.6 486.6 167.1 470.1 167.9 473 168.9 477.3 171.4 464.8 174.1 468 175.1 458.6 177.3 451.3 178 455.6 178.4 462 185.5 471.6 187.6 443.6 189 447.9 191.6 435.5 193.7 427.2 197.9 431.5 198.2 437.9 198.7 447.5 201.3 419.5 201.5 423.8 204.4 411.3 204.5 415.7 209.2 403 209.7 394.5 209.7 398.9 210.2 405.4 210.4 415.2 212.7 429.9 212.9 434.3 217.1 421.6 221.5 413.1 224.9 404.7 225.1 409 225.6 415.4 226.7 396.7 227.7 388.4 229.1 392.8 231.8 399.3 233.1 380.3 234.9 371.8 235.2 376.1 235.6 382.5 237.5 363.8 238.5 368.2 239.4 374.7 243.3 384.5 245.2 399.2 247.5 390.9 250.4 395.3 252.6 382.6 263.1 374.3 263.5 365.9 268.5 357.6 272.3 361.9 273 368.4 275 378.2 281 349.7 281.7 341.2 282.6 332.8 283.5 337.1 283.7 343.7 286.6 353.5 286.9 368.2 287.3 372.5 302.3 359.8 302.9 351.4 310 342.9 310.9 347.2 311.3 353.6 313.4 334.9 314.4 339.3 315.9 345.8 320.3 355.6 327.2 327.1 328.3 331.4 346.4 337.8 350.6 347.4 362.6 319.4 370.7 323.7 373.5 311.1 374.6 315.4 374.7 321.9 376.8 302.9 378.2 307.2 383 313.6 385.5 294.9 390.8 286.6 394.7 290.9 395.8 297.3 399.7 278.7 401 283 409.3 289.6 410.1 270.5 413.4 274.9 413.7 281.4 415.7 291.2 417 305.9 420.3 297.5 420.9 301.8 422 308.3 422.4 318.1 422.7 332.8 423.4 337.2 424.8 343.7 429.1 324.7 429.2 316.2 429.2 307.8 429.2 312.1 429.4 318.7 433.9 299.6 434.4 304 439.1 310.5 439.4 291.5 439.4 295.9 440.8 302.4 441.9 312.2 443.4 283.6 446.5 275.4 447.8 279.6 449 267.2 450.4 271.5 451 277.9 452.5 259.2 452.8 263.5 452.9 269.9 453.9 279.5 456.8 293.9 460.2 285.6 462.5 290 463.4 277.3 467.8 268.8 476.2 273.2 477.3 260.5 477.8 264.8 477.9 271.2 478.6 280.8 480.1 295.2 480.3 299.5 504.8 286.8 505 291.2 510.6 297.7 526.8 278.7 541 270.4 558 262.1 559.3 266.4 560.1 272.8 561.4 282.4 569.5 296.8 569.9 288.5 569.9 292.8 570 299.2 570.4 280.5 570.6 284.9 570.6 272.2 570.6 263.9 570.6 255.6 570.6 260 570.6 247.3 570.6 251.7 570.6 258.2 570.6 268 570.6 239.4 570.6 231.1 570.6 235.4 570.7 223 570.7 227.3 570.7 214.8 570.7 206.5 570.7 210.8 570.7 217.2 570.7 198.6 570.7 190.1 570.7 194.5 570.7 201 570.7 182 570.7 173.5 570.7 165 570.7 156.8 570.8 161 570.8 167.4 571.6 177 584.6 191.4 598 183 602.6 174.7 605.8 179.1 606 185.6 606.6 195.4 608.4 166.8 613.6 171.2 615.5 177.7 616.1 187.5 616.1 202.2 616.3 206.6 620.2 193.9 620.6 198.2 624.5 204.6 627.3 214.2 628.3 228.6 628.7 232.8 639 239.3 640.4 220.6 642.6 225 642.7 231.5 643.2 212.5 644.5 216.8 644.9 223.3 645.2 233.1 645.7 204.6 645.8 209 645.8 215.5 646 225.3 646.1 240 646.7 231.7 646.9 236 648.9 223.5 649 227.8 649.2 215.4 650.1 219.7 650.5 226.3 653.2 236.1 663.7 207.5 664.5 211.8 670.1 218.2 672.1 199.5 683.9 191.1 689 182.6 692.4 174.3 699 178.7 700.4 185.2 702.3 166.2 702.5 170.5 702.6 176.9 704.4 158.2 705.8 162.6 712.2 169.1 726.1 178.9 747.8 150.3 754.5 154.7 756.4 142 756.6 146.4 756.7 152.9 756.7 162.7 757.1 177.4 760.2 169.1 760.8 160.8 761 165.1 766 152.6 767.8 144.2 783.2 148.5 783.6 154.9 785.1 164.5 786 178.9 787.7 170.4 801.3 162.1 812.4 153.7 813.5 158 815.4 164.6 817.1 145.5 818.5 149.9 819.8 156.4 826 166.2 829.5 180.9 835.1 185.2 836 191.6 841 172.9 847.8 164.5 849.1 168.8 852.1 156.2 852.1 160.5 862 147.8 866.5 139.5 866.7 131.2 866.8 135.6 867.1 142.1 867.4 151.9 867.7 166.6 868.8 170.9 870.4 177.3 871.1 158.6 873.6 150.2 876.1 154.5 877 161.1 879 170.9 879 142.3 879 134 879 138.3 879.3 125.9 879.5 130.2 882.1 136.8 884.4 146.6 885.4 161.3 888 165.6 889 172.1 895 181.9 895.1 196.6 895.2 200.9 895.7 207.3 896.3 216.9 896.7 231.3 898.1 235.7 898.4 223 898.8 214.5 898.8 218.8 901 225.2 913.6 206.6 914.5 198.3 920.4 202.6 921.5 189.9 921.6 194.3 921.7 181.6 921.7 185.9 921.7 192.3 922.2 201.9 924.4 216.3 924.6 220.7 924.6 227.2 924.7 237 924.8 208.4 924.8 212.8 924.8 200.1 924.9 204.4 924.9 210.8 924.9 220.4 924.9 234.8 924.9 226.3 924.9 230.6 925.3 237 925.3 246.6 925.4 261 926.5 265.4 926.6 252.7 926.6 244.4 926.6 248.8 926.6 255.3 926.6 265.1 926.6 279.8 926.6 271.3 926.7 262.9 926.8 267.1 926.8 273.5 927.1 283.2 929.3 255.2 929.3 259.5 929.8 266.1 930 247 932 251.3" opacity=".9"/><polyline fill="none" stroke="#ea580c" stroke-linejoin="round" stroke-width="1.8" points="80 484.2 80 480.7 87.4 476.7 89.3 479.1 92.1 472.2 95.8 474.9 101.3 467.1 102.2 470.1 102.4 474.7 108.7 461.2 110.5 464.8 111.7 470 114.2 454.6 115.2 458.6 115.7 464.6 115.8 473.7 119.5 447.3 119.9 451.5 120.1 457.9 122.7 467.5 122.9 481.9 128.3 483.8 132.8 486.8 133.6 478.2 133.8 480.4 138.3 483.8 140.1 488.8 144.5 474.1 152.9 476.6 160.6 480.4 163.6 486.2 167.1 469.4 167.9 472.3 168.9 476.7 171.4 463.9 174.1 467.3 175.1 457.6 177.3 450.2 178 454.5 178.4 461 185.5 470.8 187.6 442.2 189 446.5 191.6 434 193.7 425.7 197.9 430 198.2 436.4 198.7 446 201.3 417.9 201.5 422.2 204.4 409.8 204.5 414.1 209.2 401.4 209.7 392.9 209.7 397.3 210.2 403.8 210.4 413.6 212.7 428.2 212.9 432.6 217.1 419.8 221.5 411.4 224.9 402.9 225.1 407.2 225.6 413.6 226.7 394.9 227.7 386.6 229.1 390.9 231.8 397.4 233.1 378.4 234.9 369.9 235.2 374.2 235.6 380.5 237.5 361.9 238.5 366.2 239.4 372.7 243.3 382.5 245.2 397.1 247.5 388.8 250.4 393.2 252.6 380.5 263.1 372.2 263.5 363.7 268.5 355.4 272.3 359.8 273 366.3 275 376 281 347.4 281.7 339 282.6 330.5 283.5 334.9 283.7 341.4 286.6 351.1 286.9 365.8 287.3 370.1 302.3 357.4 302.9 349 310 340.5 310.9 344.8 311.3 351.1 313.4 332.5 314.4 336.8 315.9 343.3 320.3 353.1 327.2 324.5 328.3 328.8 346.4 335.1 350.6 344.7 362.6 316.7 370.7 321 373.5 308.3 374.6 312.7 374.7 319.2 376.8 300.1 378.2 304.4 383 310.8 385.5 292.1 390.8 283.8 394.7 288.1 395.8 294.4 399.7 275.8 401 280.1 409.3 286.6 410.1 267.6 413.4 271.9 413.7 278.4 415.7 288.2 417 302.9 420.3 294.4 420.9 298.7 422 305.2 422.4 315 422.7 329.7 423.4 334 424.8 340.5 429.1 321.5 429.2 313 429.2 304.5 429.2 308.9 429.4 315.4 433.9 296.3 434.4 300.7 439.1 307.2 439.4 288.1 439.4 292.5 440.8 299 441.9 308.8 443.4 280.2 446.5 271.9 447.8 276.1 449 263.7 450.4 267.9 451 274.3 452.5 255.6 452.8 259.9 452.9 266.3 453.9 275.9 456.8 290.2 460.2 281.9 462.5 286.3 463.4 273.6 467.8 265.1 476.2 269.4 477.3 256.7 477.8 261 477.9 267.4 478.6 277 480.1 291.3 480.3 295.7 504.8 283 505 287.3 510.6 293.8 526.8 274.8 541 266.5 558 258.2 559.3 262.4 560.1 268.8 561.4 278.4 569.5 292.8 569.9 284.5 569.9 288.7 570 295.1 570.4 276.4 570.6 280.8 570.6 268.1 570.6 259.8 570.6 251.5 570.6 255.8 570.6 243.1 570.6 247.4 570.6 253.9 570.6 263.7 570.6 235.1 570.6 226.8 570.6 231.1 570.7 218.6 570.7 222.9 570.7 210.4 570.7 202.1 570.7 206.4 570.7 212.8 570.7 194.1 570.7 185.6 570.7 190 570.7 196.5 570.7 177.4 570.7 169 570.7 160.5 570.7 152.2 570.8 156.4 570.8 162.8 571.6 172.4 584.6 186.8 598 178.3 602.6 170 605.8 174.4 606 180.9 606.6 190.6 608.4 162.1 613.6 166.4 615.5 172.9 616.1 182.7 616.1 197.3 616.3 201.7 620.2 189 620.6 193.2 624.5 199.6 627.3 209.2 628.3 223.6 628.7 227.8 639 234.2 640.4 215.5 642.6 219.9 642.7 226.4 643.2 207.3 644.5 211.7 644.9 218.2 645.2 228 645.7 199.4 645.8 203.7 645.8 210.2 646 220 646.1 234.7 646.7 226.4 646.9 230.6 648.9 218.2 649 222.4 649.2 210 650.1 214.3 650.5 220.8 653.2 230.6 663.7 202 664.5 206.3 670.1 212.6 672.1 194 683.9 185.5 689 177 692.4 168.7 699 173.1 700.4 179.6 702.3 160.5 702.5 164.8 702.6 171.2 704.4 152.5 705.8 156.8 712.2 163.4 726.1 173.1 747.8 144.5 754.5 148.9 756.4 136.2 756.6 140.5 756.7 147 756.7 156.8 757.1 171.5 760.2 163.2 760.8 154.8 761 159.1 766 146.7 767.8 138.2 783.2 142.4 783.6 148.8 785.1 158.4 786 172.8 787.7 164.3 801.3 156 812.4 147.5 813.5 151.9 815.4 158.4 817.1 139.3 818.5 143.7 819.8 150.2 826 160 829.5 174.6 835.1 178.9 836 185.3 841 166.6 847.8 158.1 849.1 162.5 852.1 149.8 852.1 154.1 862 141.4 866.5 133.1 866.7 124.8 866.8 129.1 867.1 135.6 867.4 145.4 867.7 160.1 868.8 164.3 870.4 170.7 871.1 152 873.6 143.6 876.1 147.9 877 154.4 879 164.2 879 135.6 879 127.3 879 131.6 879.3 119.1 879.5 123.5 882.1 130 884.4 139.7 885.4 154.4 888 158.7 889 165.3 895 175 895.1 189.7 895.2 193.9 895.7 200.3 896.3 209.9 896.7 224.3 898.1 228.6 898.4 215.9 898.8 207.4 898.8 211.7 901 218.1 913.6 199.4 914.5 191.1 920.4 195.4 921.5 182.7 921.6 187.1 921.7 174.4 921.7 178.6 921.7 185 922.2 194.6 924.4 209 924.6 213.3 924.6 219.8 924.7 229.6 924.8 201 924.8 205.3 924.8 192.6 924.9 196.9 924.9 203.3 924.9 212.9 924.9 227.2 924.9 218.8 924.9 223 925.3 229.4 925.3 239 925.4 253.4 926.5 257.7 926.6 245 926.6 236.7 926.6 241 926.6 247.5 926.6 257.3 926.6 272 926.6 263.5 926.7 255 926.8 259.3 926.8 265.7 927.1 275.3 929.3 247.2 929.3 251.6 929.8 258.1 930 239 932 243.3" opacity=".9"/><line x1="950" x2="972" y1="94" y2="94" stroke="#ea580c" stroke-width="3"/><text x="980" y="98" fill="#374151" font-size="12.5">vip 9 111293</text><line x1="950" x2="972" y1="116" y2="116" stroke="#475569" stroke-width="3"/><text x="980" y="120" fill="#374151" font-size="12.5">vip 8 107928</text><line x1="950" x2="972" y1="138" y2="138" stroke="#65a30d" stroke-width="3"/><text x="980" y="142" fill="#374151" font-size="12.5">vip 7 105619</text><line x1="950" x2="972" y1="160" y2="160" stroke="#db2777" stroke-width="3"/><text x="980" y="164" fill="#374151" font-size="12.5">vip 6 102057</text><line x1="950" x2="972" y1="182" y2="182" stroke="#0891b2" stroke-width="3"/><text x="980" y="186" fill="#374151" font-size="12.5">vip 5 99757</text><line x1="950" x2="972" y1="204" y2="204" stroke="#7c3aed" stroke-width="3"/><text x="980" y="208" fill="#374151" font-size="12.5">vip 4 96418</text><line x1="950" x2="972" y1="226" y2="226" stroke="#d97706" stroke-width="3"/><text x="980" y="230" fill="#374151" font-size="12.5">vip 3 77313</text><line x1="950" x2="972" y1="248" y2="248" stroke="#16a34a" stroke-width="3"/><text x="980" y="252" fill="#374151" font-size="12.5">vip 2 63626</text><line x1="950" x2="972" y1="270" y2="270" stroke="#2563eb" stroke-width="3"/><text x="980" y="274" fill="#374151" font-size="12.5">vip 0 47028</text><line x1="950" x2="972" y1="292" y2="292" stroke="#dc2626" stroke-width="3"/><text x="980" y="296" fill="#374151" font-size="12.5">vip 1 47028</text><text x="80" y="542" fill="#6b7280" font-size="12" text-anchor="start">2026-01-01</text><text x="932" y="542" fill="#6b7280" font-size="12" text-anchor="end">2026-01-31</text></svg>