<?xml version="1.0" encoding="UTF-8"?>
<svg xmlns="http://www.w3.org/2000/svg" width="1000" height="520" viewBox="0 0 1000 520" font-family="ui-sans-serif, system-ui, sans-serif">
  <rect width="1000" height="520" fill="#ffffff"/>
  <text x="78" y="28" font-size="18" font-weight="700" fill="#111827">Zone Recovery — ZECUSDC best setting (equity / PnL)</text>
  <text x="78" y="48" font-size="12.5" fill="#6b7280">lev 10 · ratio 4 · gap 20% · maxSteps 4 · maxDD 60% · random · vip 9  ·  22 series, 77.3% win · vol $10143913 ($327223/day) · fees $858.18</text>
  <text x="78" y="68" font-size="12.5" font-weight="600" fill="#1d4ed8">USDC · BNB −10% · taker 0.0085%</text>
  <text x="934" y="28" text-anchor="end" font-size="18" font-weight="700" fill="#16a34a">+42492 USDT  (+424.92%)</text>
  <line x1="78" y1="468.0" x2="934" y2="468.0" stroke="#e5e7eb" stroke-width="1"/><text x="68" y="472.0" text-anchor="end" font-size="12" fill="#6b7280">0.00</text><line x1="78" y1="392.0" x2="934" y2="392.0" stroke="#e5e7eb" stroke-width="1"/><text x="68" y="396.0" text-anchor="end" font-size="12" fill="#6b7280">11338</text><line x1="78" y1="316.0" x2="934" y2="316.0" stroke="#e5e7eb" stroke-width="1"/><text x="68" y="320.0" text-anchor="end" font-size="12" fill="#6b7280">22676</text><line x1="78" y1="240.0" x2="934" y2="240.0" stroke="#e5e7eb" stroke-width="1"/><text x="68" y="244.0" text-anchor="end" font-size="12" fill="#6b7280">34015</text><line x1="78" y1="164.0" x2="934" y2="164.0" stroke="#e5e7eb" stroke-width="1"/><text x="68" y="168.0" text-anchor="end" font-size="12" fill="#6b7280">45353</text><line x1="78" y1="88.0" x2="934" y2="88.0" stroke="#e5e7eb" stroke-width="1"/><text x="68" y="92.0" text-anchor="end" font-size="12" fill="#6b7280">56691</text>
  <line x1="78" y1="401.0" x2="934" y2="401.0" stroke="#9ca3af" stroke-width="1.5" stroke-dasharray="6 4"/><text x="934" y="395.0" text-anchor="end" font-size="11" fill="#6b7280">start 10000</text>
  <polyline points="78.0,145.1 78.6,144.7 79.2,146.5 79.9,149.3 80.4,144.1 81.0,149.1 81.6,150.5 81.9,147.8 82.4,148.2 83.1,149.5 83.6,150.6 84.5,148.7 85.2,148.0 85.8,144.7 86.3,142.1 86.5,140.4 86.8,136.6 87.2,136.4 87.4,136.9 87.8,140.5 88.2,136.7 88.3,131.8 88.4,131.3 88.5,130.9 88.7,131.7 89.0,131.8 89.6,132.4 90.0,129.7 90.5,130.8 90.9,130.6 91.4,128.6 91.6,128.2 91.9,123.0 92.2,124.2 92.4,120.2 92.6,122.4 92.7,115.0 92.9,116.6 93.1,119.1 93.3,123.0 93.7,125.4 93.9,129.0 94.2,128.6 94.5,126.3 94.9,127.1 95.2,125.5 95.6,122.6 95.7,128.8 96.0,128.5 96.1,132.4 96.3,131.1 96.5,136.6 96.6,136.3 96.8,135.1 97.0,136.9 97.4,136.9 97.8,134.3 98.0,131.4 98.2,132.4 98.6,137.1 99.0,134.8 99.6,133.6 100.2,135.7 100.7,131.7 101.0,130.2 101.4,127.2 102.0,131.1 102.6,132.0 103.3,132.5 104.1,132.8 104.7,130.7 105.2,129.9 106.0,128.3 106.3,124.8 106.9,124.5 107.5,128.3 108.2,127.8 108.8,124.5 109.0,121.7 109.4,124.4 109.8,124.7 110.0,119.4 110.3,123.8 110.8,127.0 111.4,125.8 112.2,124.2 112.8,127.0 113.1,128.1 113.6,127.4 114.1,131.1 114.7,133.1 115.1,131.5 115.4,136.5 115.4,138.6 115.5,142.2 115.6,143.7 115.7,139.5 115.8,147.9 116.0,146.0 116.2,142.0 116.4,144.0 116.8,141.6 116.9,142.3 117.0,145.4 117.1,146.5 117.3,148.6 117.4,151.6 117.4,152.1 117.7,149.1 118.2,148.2 118.7,150.5 119.0,154.3 119.1,160.0 119.1,163.1 119.1,166.1 119.2,163.9 119.3,160.3 119.5,156.8 119.9,159.2 120.2,161.4 120.5,164.0 120.8,164.9 121.1,164.0 121.5,167.0 121.7,171.0 121.7,177.5 121.7,176.7 121.8,174.6 122.0,178.0 122.2,175.6 122.4,172.6 122.6,175.8 122.7,170.2 122.9,171.0 122.9,178.3 123.0,180.2 123.2,180.2 123.4,178.2 123.8,178.4 124.1,178.5 124.3,177.3 124.5,173.6 124.6,171.3 124.8,169.1 125.0,173.4 125.3,171.0 125.6,178.1 126.0,179.0 126.4,172.7 126.9,175.3 127.4,173.7 127.8,176.9 128.2,177.8 128.5,178.8 129.0,177.1 129.4,181.8 129.8,180.9 130.5,179.4 131.1,177.7 131.7,177.3 132.2,173.8 132.7,174.0 133.3,171.6 133.6,168.1 134.0,168.1 134.5,167.4 135.0,171.3 135.6,167.1 135.9,163.8 136.4,166.4 137.0,167.9 137.7,161.8 138.0,164.8 138.3,157.7 138.3,152.2 138.4,152.1 138.5,148.4 138.6,145.0 138.6,138.4 138.7,138.9 138.7,139.6 138.8,140.5 139.0,143.7 139.1,138.1 139.3,136.5 139.5,140.1 139.8,139.6 140.2,142.1 140.4,143.2 140.8,140.9 141.1,142.9 141.3,151.0 141.4,149.9 141.6,152.8 141.7,155.4 141.8,156.8 141.9,157.7 142.1,150.6 142.3,150.8 142.7,152.4 142.8,139.7 142.8,144.1 142.9,140.9 143.1,137.6 143.5,143.3 143.9,146.3 144.0,148.3 144.3,149.7 144.8,149.4 145.3,151.8 146.0,149.8 146.7,150.4 147.1,154.9 147.7,150.4 147.9,140.2 148.0,145.0 148.3,141.7 148.7,139.9 149.1,145.0 149.3,148.9 149.7,149.6 150.4,151.4 150.8,151.7 151.5,152.6 152.0,152.5 152.5,154.6 153.0,155.5 153.8,155.8 154.3,149.9 154.7,153.1 155.5,149.7 155.8,146.1 156.3,149.7 157.0,152.6 157.4,151.5 158.1,147.0 158.7,146.8 159.4,146.2 160.2,147.6 160.9,142.9 161.1,142.5 161.5,142.1 161.8,148.2 161.9,149.7 162.4,152.4 162.7,146.8 163.4,147.3 164.1,147.1 164.7,143.0 165.2,142.3 165.8,143.6 166.2,141.8 166.6,142.2 167.1,138.2 167.4,140.4 167.8,144.4 168.3,147.8 168.7,148.1 169.1,153.8 169.5,154.5 169.8,152.3 170.3,149.7 170.8,153.3 171.4,151.7 171.8,150.1 172.4,150.1 172.9,151.0 173.6,151.5 174.3,151.8 174.8,150.9 175.3,153.7 175.3,163.5 175.3,164.0 175.5,162.9 175.6,164.5 176.0,161.8 176.4,159.7 176.9,156.6 177.2,155.7 177.7,154.6 177.9,152.1 178.1,148.7 178.5,151.3 179.0,152.3 179.3,150.3 179.7,153.5 180.2,151.1 181.0,153.2 181.9,153.2 182.6,150.0 183.1,150.5 184.2,151.9 185.3,154.2 186.2,156.9 187.2,158.1 187.8,159.6 188.3,157.0 188.6,155.8 189.0,157.9 189.4,152.9 189.7,153.5 189.9,151.0 190.3,150.1 190.5,149.2 190.9,150.4 191.3,153.1 192.0,151.7 192.8,150.2 193.6,156.5 193.7,160.7 193.9,165.5 194.2,162.0 194.9,157.8 195.3,157.5 195.8,160.6 196.0,164.5 196.2,168.3 196.2,170.0 196.3,170.9 196.7,168.0 197.3,166.6 197.9,165.5 198.3,169.6 198.8,172.1 199.1,170.5 199.5,171.6 199.8,173.3 200.2,172.2 200.6,172.7 201.0,169.5 201.4,168.7 201.7,166.9 202.1,164.5 202.6,165.0 203.1,169.4 203.7,167.1 204.1,171.6 204.3,171.7 204.7,171.9 205.2,168.3 205.4,167.0 205.7,170.9 205.9,172.9 206.3,171.5 206.7,169.6 207.0,173.8 207.3,173.7 207.5,176.0 207.7,175.7 208.1,174.6 208.6,175.1 208.9,173.1 209.1,171.1 209.3,171.9 209.7,171.7 210.2,169.1 210.3,165.6 210.6,166.6 211.0,165.3 211.4,166.7 211.8,165.4 212.0,160.9 212.1,159.5 212.4,163.1 212.8,168.1 213.3,171.4 213.9,170.7 214.4,164.8 214.9,162.6 215.2,161.4 215.6,156.8 215.8,154.1 216.2,154.5 216.4,155.4 216.8,156.6 217.0,156.0 217.3,157.4 217.6,154.3 217.9,155.4 218.3,158.3 218.4,160.0 218.7,159.2 219.1,156.1 219.5,156.9 220.1,155.5 220.5,152.1 220.6,149.2 220.7,149.4 221.0,149.2 221.3,148.1 221.4,147.3 221.5,141.8 221.7,143.4 221.8,147.8 222.0,146.7 222.2,146.7 222.6,151.0 223.1,147.9 223.7,149.1 224.0,151.6 224.6,150.8 224.9,155.2 225.2,155.0 225.6,148.1 226.0,147.4 226.5,147.6 226.8,146.9 227.3,143.8 227.8,143.3 228.0,141.9 228.2,147.2 228.6,146.7 228.9,147.7 229.4,149.5 229.9,146.5 230.3,146.8 230.5,145.7 230.6,141.9 230.6,136.7 230.6,129.7 230.7,129.5 230.7,131.0 230.7,132.6 230.8,133.5 230.8,133.8 230.9,129.9 230.9,130.7 231.0,132.4 231.1,133.2 231.3,135.6 231.5,133.7 231.7,132.8 231.7,124.5 231.8,126.9 232.0,129.9 232.1,134.9 232.3,132.5 232.4,131.7 232.6,130.7 232.6,134.4 232.8,135.4 233.0,135.4 233.1,142.0 233.1,141.5 233.2,142.3 233.4,142.2 233.7,141.5 233.9,139.9 234.1,148.0 234.4,145.0 234.6,145.7 234.9,142.8 235.1,146.5 235.3,147.1 235.4,152.3 235.6,147.8 235.8,149.3 236.0,152.5 236.4,152.3 236.5,162.5 236.5,162.6 236.6,163.9 236.7,168.6 236.9,164.5 237.1,162.0 237.5,162.1 238.0,164.1 238.6,163.6 239.2,161.0 240.1,163.9 240.5,162.0 240.8,158.2 241.2,157.8 241.7,160.5 242.2,160.7 242.9,155.8 243.4,156.2 244.0,156.6 244.2,151.6 244.6,158.2 245.1,157.9 245.3,162.4 245.8,165.0 246.1,165.4 246.7,165.1 247.2,161.0 247.8,163.7 248.6,165.9 249.5,165.0 250.4,165.6 250.8,167.0 251.3,171.1 251.5,169.3 252.2,167.7 252.9,166.3 253.3,166.8 253.9,167.4 254.4,171.4 254.6,174.9 254.9,177.2 254.9,186.3 255.0,182.2 255.1,180.2 255.3,177.8 255.7,177.7 256.2,174.8 256.9,173.8 257.4,171.0 258.1,175.2 258.7,175.9 259.2,174.1 259.7,178.4 259.8,183.9 259.9,182.4 260.2,184.0 260.4,182.1 260.6,180.5 261.0,182.4 261.3,186.4 261.5,183.2 261.8,182.7 262.3,180.8 262.8,183.6 263.0,186.4 263.3,182.0 264.1,180.7 264.9,181.9 265.2,177.8 265.6,181.4 265.8,186.7 265.9,189.8 266.1,188.0 266.7,186.7 267.2,190.1 268.1,188.9 268.9,189.6 269.4,190.5 269.6,181.6 270.0,189.1 270.2,192.2 270.6,188.9 270.8,195.0 270.8,195.5 271.0,197.2 271.4,197.6 271.5,197.7 271.8,196.5 272.1,195.8 272.2,188.4 272.4,186.4 272.8,186.7 272.8,188.5 273.0,184.2 273.2,186.1 273.4,182.8 273.9,186.5 274.3,189.4 274.9,185.9 275.0,182.6 275.4,185.5 275.5,190.2 275.8,196.5 275.8,203.3 275.8,210.9 275.8,203.9 275.9,204.5 276.1,211.4 276.1,215.9 276.1,220.3 276.1,216.4 276.2,216.7 276.4,217.2 276.7,220.1 276.8,216.6 277.1,217.4 277.2,209.5 277.2,202.7 277.2,201.6 277.4,205.3 277.6,208.3 278.0,208.4 278.4,211.6 278.7,210.1 279.0,210.2 279.3,214.9 279.6,214.3 279.9,214.8 280.2,216.2 280.2,226.7 280.2,231.0 280.2,227.7 280.2,228.6 280.3,231.8 280.4,229.0 280.6,228.8 280.9,231.6 280.9,236.3 281.0,239.5 281.1,238.1 281.1,240.9 281.1,241.9 281.2,243.5 281.2,250.0 281.3,252.0 281.3,248.8 281.4,248.9 281.5,256.4 281.6,255.2 281.7,256.0 281.8,253.6 281.9,251.9 282.0,259.5 282.0,262.2 282.1,267.6 282.1,270.8 282.1,270.8 282.2,272.4 282.2,273.5 282.3,276.8 282.3,276.0 282.3,276.5 282.4,280.3 282.4,280.8 282.4,286.0 282.5,283.2 282.5,281.8 282.5,288.3 282.6,279.6 282.6,282.9 282.7,282.8 282.7,293.9 282.7,296.2 282.8,302.3 282.8,300.4 282.8,295.6 282.8,295.0 282.8,300.6 282.8,304.6 282.8,306.5 282.9,305.7 282.9,303.2 282.9,297.8 283.0,300.8 283.0,304.8 283.0,299.2 283.1,289.3 283.1,292.4 283.1,293.6 283.1,284.6 283.1,280.0 283.1,279.5 283.1,276.7 283.2,277.9 283.2,273.1 283.2,271.1 283.2,262.1 283.2,263.2 283.2,269.4 283.2,274.4 283.2,276.8 283.3,273.7 283.3,277.2 283.4,273.1 283.4,278.2 283.5,276.7 283.6,281.0 283.7,282.9 283.7,287.8 283.8,285.3 283.9,289.7 283.9,292.8 284.0,292.3 284.0,288.9 284.0,291.2 284.1,292.2 284.2,289.4 284.3,289.9 284.3,292.7 284.3,291.7 284.4,295.8 284.4,299.0 284.5,297.2 284.5,295.0 284.6,290.4 284.7,289.2 284.7,284.3 284.8,289.7 284.9,288.5 285.1,290.6 285.2,292.4 285.3,293.4 285.4,283.5 285.4,286.7 285.5,284.5 285.5,279.4 285.6,286.7 285.6,284.8 285.7,289.5 285.8,290.1 285.9,289.2 286.0,287.2 286.1,285.1 286.2,287.6 286.3,281.2 286.4,282.2 286.5,279.0 286.6,278.6 286.6,273.5 286.7,277.2 286.8,275.1 286.8,269.6 286.9,267.1 286.9,274.6 287.0,278.2 287.1,279.7 287.2,274.6 287.3,279.2 287.5,274.9 287.6,276.7 287.7,277.3 287.9,275.1 288.0,281.4 288.0,280.0 288.1,274.5 288.2,275.3 288.3,273.7 288.4,272.6 288.4,269.9 288.5,268.7 288.6,267.3 288.7,269.3 288.7,263.3 288.8,264.6 288.8,263.6 288.9,261.4 289.0,260.0 289.0,257.7 289.0,251.7 289.1,251.3 289.1,248.7 289.1,243.7 289.1,249.3 289.2,251.7 289.2,250.2 289.3,253.8 289.4,251.2 289.4,257.0 289.6,256.5 289.7,252.3 289.8,256.1 289.9,257.8 290.0,262.3 290.1,261.8 290.2,258.6 290.3,257.1 290.5,255.1 290.7,252.5 290.8,256.4 290.9,251.2 291.0,252.7 291.1,257.7 291.2,259.4 291.5,258.3 291.8,255.1 292.0,251.8 292.1,246.9 292.1,245.9 292.2,251.6 292.3,251.7 292.5,247.1 292.7,245.1 292.8,246.3 292.9,242.7 293.0,242.2 293.2,241.4 293.4,238.2 293.5,241.0 293.8,238.5 294.0,239.4 294.2,242.7 294.4,246.2 294.5,249.3 294.7,245.3 294.9,245.9 295.2,245.3 295.5,246.2 295.9,242.2 296.3,245.8 296.6,252.0 296.8,254.5 297.0,249.2 297.4,255.3 297.8,257.1 298.1,255.4 298.4,259.8 298.7,255.3 299.0,252.2 299.2,248.6 299.5,246.5 299.6,240.9 299.9,241.7 300.1,241.1 300.5,243.1 300.6,241.6 300.8,244.2 301.1,247.3 301.3,249.2 301.4,243.5 301.5,244.8 301.8,245.7 302.2,247.8 302.5,245.6 302.8,242.9 303.0,244.8 303.2,239.9 303.4,241.1 303.5,236.5 303.5,234.0 303.6,236.0 303.7,239.4 303.8,239.8 304.1,239.9 304.3,242.5 304.7,243.4 305.1,240.6 305.4,239.6 305.8,242.4 306.1,237.3 306.1,233.0 306.2,235.9 306.4,236.7 306.5,226.7 306.5,223.9 306.5,225.6 306.7,227.7 306.9,229.7 307.1,232.0 307.4,227.8 307.6,225.7 307.8,231.1 308.1,233.1 308.3,234.4 308.5,234.7 308.8,235.4 308.9,239.3 309.1,241.6 309.1,244.7 309.3,241.0 309.5,241.6 309.8,240.8 309.9,245.6 310.2,245.3 310.5,243.8 310.9,244.3 311.1,238.7 311.3,246.4 311.6,241.8 312.0,241.4 312.3,239.1 312.5,239.5 312.9,240.2 313.2,239.2 313.7,242.4 314.0,245.4 314.3,240.5 314.5,242.3 314.7,242.6 315.0,244.4 315.2,251.4 315.2,250.9 315.4,248.3 315.6,252.6 315.7,251.2 315.9,251.2 315.9,256.8 316.0,254.9 316.2,254.7 316.4,253.5 316.6,248.2 316.7,245.0 316.7,241.2 316.8,242.0 316.9,242.6 317.0,244.2 317.1,243.2 317.3,246.8 317.4,245.7 317.6,245.7 317.8,250.1 318.0,251.5 318.3,254.7 318.5,254.7 318.7,254.4 318.8,260.9 319.0,259.5 319.2,258.9 319.4,255.4 319.7,252.6 320.0,256.9 320.2,256.6 320.6,253.0 320.9,252.8 321.2,254.2 321.5,252.9 321.9,253.2 322.2,258.8 322.4,262.0 322.6,260.7 322.7,262.7 322.8,264.6 323.0,264.0 323.2,264.4 323.6,261.0 324.1,266.0 324.4,263.9 324.8,263.3 325.7,262.9 326.6,261.6 326.8,266.9 326.8,275.1 326.9,278.9 326.9,286.9 327.0,286.2 327.1,287.1 327.3,285.3 327.5,287.3 327.7,281.2 327.9,286.1 328.2,283.0 328.5,278.9 328.7,285.5 328.9,284.3 329.3,285.8 329.6,286.6 330.1,286.7 330.4,287.8 330.7,293.8 330.8,292.0 330.9,292.7 331.2,295.3 331.2,299.6 331.2,302.4 331.2,305.1 331.2,308.5 331.3,310.5 331.3,314.5 331.3,318.0 331.3,313.1 331.3,309.4 331.4,311.5 331.4,318.1 331.5,310.0 331.5,314.8 331.7,316.4 331.8,312.7 331.9,312.3 332.1,310.7 332.2,306.4 332.3,309.3 332.5,308.1 332.7,307.4 333.0,306.9 333.3,305.3 333.7,307.8 334.1,309.0 334.5,307.1 335.0,306.4 335.2,305.6 335.6,305.0 336.1,305.7 336.6,307.1 337.0,310.5 337.1,313.6 337.3,314.3 337.6,310.1 337.9,308.4 338.3,307.9 338.6,307.5 339.0,306.1 339.6,308.3 340.0,306.3 340.4,306.1 340.7,302.2 340.7,296.2 340.8,300.1 341.0,299.4 341.2,297.7 341.4,301.4 341.8,303.3 342.2,302.0 342.6,300.8 343.0,304.3 343.2,307.5 343.6,309.2 343.7,312.2 343.9,314.0 344.1,310.5 344.5,310.6 344.9,308.7 345.1,304.0 345.5,307.1 346.0,308.5 346.7,308.2 347.0,312.5 347.1,316.7 347.1,324.5 347.1,327.1 347.1,328.9 347.2,325.4 347.2,326.3 347.3,331.3 347.4,327.6 347.5,327.4 347.6,320.9 347.6,318.1 347.6,314.5 347.6,312.2 347.7,316.1 347.9,315.9 348.1,315.3 348.4,314.0 348.7,309.0 349.0,311.5 349.4,311.7 349.8,311.0 350.4,314.0 350.9,316.3 351.2,320.0 351.5,319.0 351.8,316.6 352.0,319.5 352.5,319.3 352.8,322.8 353.1,322.0 353.5,316.3 353.8,313.7 354.1,314.1 354.4,317.9 354.7,313.4 355.1,311.9 355.5,310.0 356.0,312.1 356.5,312.4 356.9,310.4 357.6,311.4 358.2,312.3 358.7,312.6 359.1,316.5 359.6,318.3 359.8,312.8 360.3,312.9 360.7,313.0 361.3,312.2 361.9,311.2 362.7,312.5 363.2,311.9 363.5,310.2 364.0,311.8 364.3,312.9 364.5,310.5 365.0,310.8 365.4,311.0 365.5,306.6 365.7,306.7 365.7,306.0 365.8,303.9 365.9,304.5 366.3,306.4 366.7,305.4 366.9,302.6 367.3,302.5 367.5,302.1 367.6,301.4 367.6,301.1 367.7,301.0 368.0,295.4 368.0,295.0 368.0,290.6 368.2,291.8 368.3,291.7 368.5,293.2 368.8,291.9 368.9,288.3 369.0,286.2 369.2,288.9 369.5,288.4 369.7,292.6 370.0,294.9 370.3,295.2 370.5,294.4 370.7,295.8 371.0,295.7 371.4,294.7 371.6,297.9 371.9,298.5 372.1,299.7 372.2,294.5 372.3,293.5 372.5,294.0 372.6,292.7 372.8,293.7 373.0,293.7 373.2,292.0 373.4,293.0 373.6,292.8 374.0,293.9 374.4,297.0 374.8,299.3 375.4,300.7 376.0,299.1 376.7,297.8 377.2,300.4 377.4,302.7 377.6,302.3 378.1,300.9 378.4,307.2 378.8,304.2 379.3,306.4 379.6,311.6 380.0,308.9 380.5,312.3 380.7,313.3 381.0,308.3 381.4,308.5 381.8,308.5 381.9,309.1 382.2,305.5 382.4,304.9 382.8,306.9 382.9,300.2 383.0,301.5 383.1,298.6 383.2,297.1 383.2,295.8 383.3,295.9 383.3,287.7 383.4,286.3 383.5,285.6 383.5,278.1 383.6,279.8 383.6,274.9 383.7,275.4 383.8,272.9 383.8,268.8 383.9,268.9 384.1,272.6 384.2,267.0 384.4,267.8 384.6,269.3 384.8,268.6 385.0,267.4 385.3,269.6 385.7,268.5 386.2,269.7 386.5,275.7 386.5,274.8 386.5,264.1 386.6,265.4 386.8,274.8 387.1,271.2 387.3,267.1 387.5,266.7 387.8,267.9 388.0,262.8 388.1,262.6 388.3,265.8 388.8,265.8 389.1,268.9 389.4,271.7 389.5,274.8 389.8,272.5 389.9,270.3 390.2,273.7 390.5,277.5 390.6,278.4 390.8,278.7 391.0,280.9 391.2,277.4 391.5,280.3 391.7,282.8 391.8,283.7 392.0,280.0 392.2,287.4 392.3,286.4 392.6,284.1 393.0,286.7 393.3,290.8 393.5,287.0 393.9,288.1 394.2,288.7 394.5,282.3 394.8,285.4 395.0,281.4 395.1,279.0 395.4,279.2 395.7,279.5 396.1,278.6 396.2,274.6 396.6,278.5 396.9,283.0 397.1,284.6 397.4,282.8 397.8,287.4 398.0,286.8 398.3,290.5 398.3,291.1 398.5,285.0 398.6,284.9 398.8,281.9 399.1,282.7 399.3,285.7 399.4,280.2 399.6,282.7 399.9,281.7 400.1,284.0 400.3,285.5 400.6,284.1 400.8,280.9 401.2,281.6 401.4,276.5 401.7,277.7 401.9,284.6 402.0,286.9 402.1,290.1 402.3,287.5 402.6,280.3 402.8,280.2 403.1,280.2 403.7,279.2 404.1,275.2 404.4,275.4 404.6,272.9 404.8,270.3 404.9,267.1 405.1,271.6 405.6,274.6 406.0,274.1 406.4,276.6 406.9,277.5 407.4,279.0 408.1,279.6 408.8,276.1 409.2,276.1 409.6,269.9 409.9,271.4 410.0,277.4 410.3,277.2 410.5,281.9 410.9,284.1 411.2,288.1 411.7,288.4 411.9,286.0 412.6,287.8 413.2,284.5 413.7,285.8 414.2,284.4 414.6,287.9 415.0,286.1 415.5,282.5 415.8,287.8 416.1,287.3 416.7,286.3 417.3,283.5 417.8,285.5 418.3,279.8 418.6,282.6 419.1,281.0 419.6,279.8 419.9,279.5 420.2,277.6 420.4,275.4 420.6,274.4 421.0,272.9 421.2,272.8 421.4,276.2 421.7,279.7 422.0,277.0 422.4,277.0 422.7,275.3 423.0,276.4 423.3,276.3 423.6,273.8 424.1,274.8 424.6,276.7 424.9,273.4 425.0,274.0 425.1,274.1 425.3,270.5 425.5,274.3 425.8,271.8 426.1,272.4 426.3,273.7 426.4,277.0 426.5,282.0 426.6,287.9 426.6,289.4 426.6,292.1 426.7,293.3 426.7,296.5 426.8,294.9 426.9,295.9 426.9,303.3 427.0,303.1 427.1,301.4 427.2,299.7 427.4,297.2 427.5,297.5 427.7,294.1 427.9,294.2 428.1,299.3 428.3,300.2 428.6,299.0 428.9,296.9 429.3,298.9 429.6,297.4 430.0,298.8 430.4,295.9 430.8,297.7 431.2,299.6 431.5,295.4 431.8,290.8 431.9,286.5 432.1,287.6 432.4,286.6 432.8,289.8 433.0,295.1 433.3,297.6 433.6,295.0 434.1,296.0 434.8,292.4 434.9,287.1 435.0,287.9 435.2,278.4 435.3,279.9 435.5,277.0 435.8,274.5 436.0,275.3 436.3,274.4 436.5,276.3 436.8,279.4 437.1,276.8 437.4,279.0 437.7,273.5 437.9,269.3 437.9,271.6 438.0,269.7 438.1,267.7 438.3,264.6 438.3,264.9 438.5,267.2 438.8,270.0 439.1,267.0 439.4,263.8 439.6,267.5 439.9,268.1 440.1,270.4 440.4,268.8 440.5,262.7 440.8,266.4 441.2,263.3 441.5,264.0 441.7,266.9 441.9,260.2 441.9,256.9 442.0,254.3 442.1,254.3 442.3,259.4 442.5,260.9 442.9,262.7 443.2,265.5 443.4,264.6 443.7,265.9 444.0,267.1 444.3,263.7 444.7,266.2 445.0,264.8 445.3,263.6 445.7,266.8 445.9,270.8 446.3,268.6 446.8,265.0 447.3,270.6 447.6,272.6 447.8,272.5 448.2,272.9 448.5,269.0 448.7,266.4 448.9,262.7 449.0,260.5 449.2,264.1 449.4,259.9 449.6,260.6 449.9,262.0 450.1,262.7 450.3,263.7 450.6,265.7 450.8,271.7 450.9,268.2 451.3,265.2 451.7,265.9 452.2,263.3 452.4,262.2 452.8,262.0 453.1,266.8 453.4,263.3 453.6,260.9 453.7,261.4 453.8,257.4 453.9,258.7 454.1,257.0 454.2,258.3 454.4,260.1 454.6,261.5 454.9,260.4 455.1,260.2 455.4,256.6 455.6,255.3 455.7,250.1 455.7,244.0 455.8,241.5 455.9,246.5 456.0,249.6 456.1,250.0 456.3,253.4 456.4,255.6 456.5,259.2 456.7,255.3 456.8,252.3 456.8,247.4 456.9,246.0 456.9,243.6 456.9,245.5 457.0,239.2 457.0,236.2 457.1,237.3 457.1,234.9 457.1,239.4 457.2,241.2 457.2,241.3 457.3,241.7 457.4,239.3 457.5,239.4 457.7,239.4 457.8,234.8 457.8,229.8 457.9,231.6 458.0,232.2 458.1,233.3 458.3,232.7 458.4,237.1 458.6,238.8 458.7,237.2 459.0,233.6 459.2,236.7 459.4,236.5 459.5,242.8 459.7,235.7 459.9,236.7 460.1,236.8 460.3,234.7 460.5,234.6 460.7,231.9 460.9,232.6 461.2,234.7 461.5,232.8 461.6,229.8 461.7,226.4 461.8,229.5 462.1,229.0 462.3,230.5 462.6,227.6 462.9,227.3 463.2,231.6 463.5,228.4 463.7,226.8 463.9,227.8 464.2,224.7 464.4,224.6 464.7,225.5 464.9,227.8 465.0,227.3 465.1,229.9 465.4,228.7 465.5,230.5 465.8,233.0 466.0,232.3 466.1,237.7 466.2,239.1 466.4,243.0 466.5,245.1 466.7,246.7 466.9,247.8 467.2,248.4 467.5,243.4 467.8,246.5 468.0,247.6 468.4,253.7 468.6,253.6 468.7,253.4 468.9,253.5 469.2,252.3 469.5,251.2 469.7,247.4 470.1,246.6 470.4,245.8 470.7,244.3 471.1,244.7 471.5,246.1 471.9,245.9 472.3,246.0 472.7,245.8 473.1,243.1 473.4,240.8 473.4,235.6 473.5,235.6 473.8,235.7 473.9,232.6 474.0,232.2 474.1,226.3 474.3,230.2 474.3,236.4 474.5,236.6 474.6,240.6 474.7,240.8 475.0,242.1 475.1,243.2 475.4,244.0 475.7,241.9 475.8,240.1 476.0,237.9 476.1,235.4 476.3,236.9 476.6,236.9 476.9,237.3 477.1,231.4 477.2,230.1 477.5,232.7 477.7,235.2 478.0,236.5 478.3,235.3 478.6,231.3 479.0,233.5 479.4,229.9 479.8,232.1 480.1,232.9 480.3,236.1 480.6,238.1 480.9,236.0 481.1,238.2 481.3,239.3 481.4,241.0 481.6,243.1 481.6,238.3 481.8,241.2 482.0,241.8 482.3,243.5 482.5,245.5 482.6,250.6 482.6,256.2 482.6,261.0 482.6,265.4 482.6,265.0 482.6,271.6 482.7,267.2 482.7,266.9 482.7,269.8 482.8,265.7 482.8,270.0 482.9,270.1 483.0,266.2 483.0,265.5 483.1,267.6 483.2,264.6 483.3,264.9 483.5,264.3 483.7,265.5 484.0,263.1 484.2,258.6 484.3,259.4 484.4,260.7 484.6,262.4 485.0,256.5 485.2,260.7 485.3,263.9 485.5,265.7 485.8,265.5 486.1,267.8 486.3,267.5 486.5,271.5 486.7,269.0 487.0,266.8 487.2,269.2 487.5,264.5 487.8,262.8 488.1,268.2 488.2,271.5 488.4,273.9 488.5,277.1 488.6,278.2 488.8,275.6 489.1,270.7 489.5,272.5 489.9,273.1 490.3,271.9 491.2,269.7 491.8,268.4 492.3,266.8 492.8,265.9 493.0,269.4 493.3,273.4 493.7,274.7 494.1,273.1 494.6,277.3 494.8,279.7 495.0,278.3 495.2,276.0 495.5,275.8 495.8,272.5 496.1,273.6 496.4,277.0 496.8,279.3 497.1,279.8 497.4,279.0 497.6,280.5 497.8,282.8 498.0,280.9 498.3,280.0 498.6,276.6 498.9,276.1 499.2,276.9 499.5,273.5 499.8,275.4 500.2,274.5 500.6,276.6 501.2,274.0 501.6,272.1 502.0,273.1 502.5,273.6 503.0,272.4 503.3,270.8 503.6,269.8 504.0,270.4 504.5,272.2 504.9,269.1 505.2,270.8 505.6,269.7 505.8,268.4 506.1,267.5 506.6,269.9 506.9,272.2 507.3,275.9 507.8,276.4 508.3,274.2 508.7,278.5 508.9,275.8 509.2,280.3 509.5,278.7 509.7,275.8 509.9,278.6 510.1,283.2 510.2,274.7 510.2,274.7 510.4,276.5 510.6,276.4 510.9,276.7 511.3,272.0 511.7,275.2 512.1,275.3 512.5,275.1 512.9,270.2 513.2,270.7 513.6,269.9 514.2,271.5 514.6,268.8 514.8,266.2 515.1,267.8 515.4,272.1 515.9,269.9 516.3,267.6 516.8,265.6 517.1,266.2 517.6,267.5 518.3,267.2 519.0,269.1 519.7,269.6 520.2,270.8 520.6,274.1 521.0,275.7 521.4,275.5 521.9,274.0 522.9,271.8 523.5,271.9 524.2,277.4 524.5,280.2 525.0,275.8 525.9,277.7 526.6,279.4 527.3,280.2 528.2,279.5 528.7,277.3 529.2,276.4 529.8,280.3 530.3,278.5 531.1,277.7 532.1,278.1 532.6,279.0 533.3,278.2 534.1,280.0 534.2,281.4 534.5,283.6 534.9,284.4 535.0,288.1 535.1,284.8 535.5,281.7 536.0,283.2 536.4,280.7 536.8,278.9 537.4,278.5 537.9,278.9 538.2,278.1 538.7,281.8 539.1,282.3 539.4,285.1 540.0,284.5 540.6,283.3 541.3,280.7 541.9,281.9 542.6,281.4 543.7,280.8 544.8,280.2 545.9,283.6 546.7,284.0 547.5,284.7 548.2,284.8 548.7,287.7 548.7,293.9 548.9,294.9 549.2,292.7 549.8,290.8 550.4,292.6 550.8,294.9 551.4,291.8 551.9,292.7 552.4,292.6 553.3,291.1 553.9,289.7 554.6,289.8 555.5,289.2 556.0,289.3 556.6,290.3 557.4,287.4 557.9,286.2 558.3,283.8 558.8,284.6 559.4,286.1 560.1,287.2 560.9,287.4 561.8,288.4 562.3,292.7 562.3,299.5 562.4,298.6 562.6,295.8 563.0,295.2 563.4,293.6 563.9,290.1 564.3,294.7 564.7,296.5 565.2,294.0 565.6,293.2 566.1,293.7 566.8,297.2 567.4,299.8 567.8,300.5 568.0,300.9 568.3,299.2 568.7,297.1 569.3,296.3 569.9,299.4 570.4,301.1 571.0,298.8 571.7,299.5 572.6,300.5 573.4,299.7 574.0,299.6 574.0,306.2 574.1,303.9 574.3,306.1 574.4,307.8 574.6,307.0 574.8,310.0 574.8,311.8 575.0,312.2 575.0,314.2 575.0,321.5 575.1,332.3 575.1,357.6 575.1,358.0 575.1,355.1 575.1,333.4 575.1,329.7 575.1,329.9 575.2,334.6 575.2,331.0 575.2,332.3 575.3,332.4 575.3,334.5 575.4,336.3 575.4,330.5 575.5,333.8 575.5,332.6 575.6,336.3 575.6,337.7 575.7,336.7 575.8,333.7 575.9,332.6 576.0,332.8 576.1,333.2 576.2,335.8 576.4,332.3 576.5,332.1 576.8,331.9 577.0,335.3 577.1,340.6 577.2,338.3 577.4,338.8 577.6,336.8 577.8,334.1 578.2,332.7 578.3,330.8 578.6,329.5 579.0,330.6 579.2,330.2 579.6,325.0 579.9,327.6 580.2,328.5 580.7,329.2 581.0,328.0 581.4,325.4 581.7,325.0 581.9,323.6 582.2,320.8 582.4,322.7 582.6,323.1 582.8,324.6 583.0,324.2 583.4,321.9 583.5,319.6 583.6,320.5 583.8,321.3 584.3,321.0 584.6,320.3 584.9,320.5 585.2,322.6 585.5,323.2 585.9,323.5 586.0,319.1 586.2,317.7 586.3,319.5 586.6,317.5 586.7,315.0 586.9,314.6 587.0,316.3 587.3,317.8 587.5,317.5 587.8,317.4 588.1,317.9 588.4,316.8 588.7,318.2 589.0,318.6 589.4,320.1 589.8,322.3 590.2,321.3 590.5,322.2 590.9,322.8 591.4,322.6 591.6,317.8 591.7,311.4 591.7,311.6 591.8,314.7 592.0,316.0 592.1,312.7 592.3,313.9 592.6,315.3 592.8,317.7 593.1,318.6 593.4,319.7 593.8,317.2 594.2,315.8 594.6,315.8 595.2,315.0 595.9,318.2 596.6,317.6 597.3,316.0 598.2,317.1 598.7,319.2 599.1,322.7 599.5,324.8 599.9,324.0 600.5,324.5 600.7,325.6 601.5,325.0 601.6,325.3 602.0,324.3 602.4,322.1 603.0,321.4 603.5,322.8 604.1,325.8 604.7,325.5 605.2,330.6 605.6,330.4 605.9,329.7 606.3,329.9 606.8,331.5 607.2,328.6 607.7,328.7 608.3,330.2 608.4,330.9 608.6,330.1 608.8,329.0 609.1,329.8 609.4,331.9 609.8,332.8 609.9,335.1 610.1,331.0 610.3,334.1 610.6,333.6 610.8,334.4 611.1,332.1 611.3,335.1 611.6,338.9 611.7,341.7 611.9,340.2 612.1,343.5 612.1,345.3 612.2,345.9 612.3,345.5 612.5,345.9 612.5,350.8 612.6,349.7 612.9,347.8 613.1,346.9 613.4,345.0 613.6,343.6 613.9,343.5 614.2,342.1 614.5,338.6 614.9,337.4 615.1,332.0 615.1,326.6 615.2,324.2 615.2,326.9 615.3,326.7 615.6,324.6 615.9,323.7 616.1,327.7 616.3,327.6 616.6,324.4 617.0,326.8 617.3,330.7 617.7,329.8 618.0,333.3 618.1,334.8 618.3,335.7 618.6,337.9 618.6,344.9 618.7,345.9 618.7,344.2 618.8,342.5 619.0,340.3 619.2,339.1 619.4,340.1 619.5,335.9 619.6,338.6 619.8,338.4 619.9,338.3 620.1,341.2 620.1,339.8 620.3,340.8 620.5,340.7 620.7,337.6 621.1,337.5 621.4,335.6 621.7,342.0 622.0,341.8 622.4,337.1 622.8,338.0 622.9,344.0 623.1,345.6 623.2,349.4 623.2,349.1 623.4,350.7 623.6,350.8 623.9,352.8 624.1,353.9 624.3,356.1 624.5,355.2 624.7,354.6 625.0,355.0 625.3,351.1 625.6,348.2 625.8,344.2 626.1,340.9 626.4,342.8 626.8,342.9 627.5,342.5 628.2,345.6 628.7,346.1 629.2,345.1 629.6,348.6 629.9,349.5 630.3,346.7 630.7,348.1 631.0,342.3 631.4,342.8 631.9,342.7 632.4,344.6 633.0,341.9 633.8,345.3 634.6,342.5 635.3,342.7 635.8,340.5 636.1,339.5 636.5,337.4 637.0,336.1 637.4,334.8 638.0,337.8 638.7,337.6 639.2,341.2 639.8,342.0 640.4,344.1 640.9,340.9 641.2,339.8 641.5,336.2 641.9,335.6 642.1,333.8 642.5,334.2 643.1,334.6 643.4,330.8 643.6,329.4 644.0,331.9 644.2,332.4 644.4,333.9 644.6,333.0 645.0,335.8 645.4,334.4 645.8,334.4 646.1,338.6 646.4,337.0 646.5,330.0 646.6,328.1 646.7,326.0 646.8,326.3 646.9,327.4 647.0,323.1 647.1,323.6 647.2,321.2 647.3,318.5 647.4,319.4 647.6,318.9 647.7,318.1 647.9,317.3 648.0,318.5 648.1,321.9 648.3,325.0 648.5,323.0 648.8,323.6 649.1,325.8 649.3,325.3 649.4,329.6 649.5,332.6 649.6,329.8 649.8,334.5 649.9,333.2 650.0,337.7 650.1,339.5 650.1,342.3 650.2,337.6 650.3,337.7 650.4,339.2 650.6,341.1 650.7,339.3 650.9,338.6 651.2,335.5 651.5,338.2 651.8,338.5 652.0,334.4 652.3,337.5 652.7,331.6 652.7,328.7 652.8,326.1 652.8,325.7 652.9,323.5 653.0,320.7 653.1,321.1 653.1,321.9 653.3,320.3 653.4,321.7 653.6,324.7 653.8,326.5 654.1,326.3 654.5,325.7 655.0,323.0 655.6,324.0 656.1,326.7 656.8,329.9 657.2,332.9 657.5,337.4 657.8,340.3 658.0,339.5 658.3,337.7 658.7,337.2 659.1,336.9 659.5,340.8 659.9,342.0 660.2,338.1 660.5,335.3 660.8,339.8 661.3,338.1 661.9,339.3 662.4,342.9 662.8,341.2 663.3,339.6 664.0,339.9 664.6,339.5 665.2,341.2 665.7,339.8 666.1,337.4 666.7,339.5 667.0,335.5 667.3,336.9 667.9,338.2 668.4,335.3 668.6,333.8 668.9,329.7 669.1,329.9 669.5,331.4 669.8,329.6 670.1,326.9 670.3,324.6 670.6,328.2 671.0,330.2 671.3,328.2 671.8,328.2 672.4,327.5 672.8,329.7 673.1,332.1 673.4,331.6 673.6,334.5 673.8,332.5 674.1,329.9 674.4,332.7 674.6,333.1 674.7,334.6 674.9,336.8 675.0,338.2 675.1,336.6 675.3,334.7 675.6,336.4 675.7,337.3 676.0,336.7 676.2,335.9 676.4,329.6 676.5,328.5 676.7,329.1 676.9,327.3 677.0,330.0 677.4,331.2 677.7,328.7 678.1,330.4 678.5,328.4 678.8,329.1 679.2,328.8 679.6,331.6 680.0,331.9 680.5,328.5 681.0,328.5 681.3,328.6 681.8,328.0 682.2,326.9 682.8,327.2 683.3,326.9 684.0,329.9 684.7,328.8 685.5,328.4 686.3,327.3 686.6,320.2 686.8,322.5 687.2,324.2 687.6,323.5 688.0,323.8 688.6,326.1 689.5,325.7 690.3,328.4 691.1,329.0 691.9,328.0 692.6,327.3 693.0,332.0 693.3,332.3 693.6,334.1 693.9,333.8 694.5,335.2 694.9,335.9 695.4,339.1 695.8,341.2 696.3,338.1 696.6,334.8 696.8,330.6 697.0,330.2 697.3,331.7 697.7,330.2 698.1,328.5 698.3,327.9 698.7,327.6 699.3,328.6 700.0,330.4 700.6,329.7 701.1,332.8 701.7,330.5 702.2,330.3 702.4,333.8 702.6,333.6 702.9,332.6 703.2,330.9 703.5,328.7 703.7,325.6 703.9,325.9 704.1,326.2 704.3,326.6 704.6,324.7 704.8,320.2 705.0,324.4 705.4,324.0 705.6,320.5 705.7,320.0 705.9,318.5 706.2,320.8 706.5,319.1 706.9,318.9 707.2,319.6 707.5,318.0 707.9,318.0 708.1,320.8 708.4,322.6 708.9,322.2 709.2,326.5 709.4,327.4 709.7,324.6 710.4,323.6 710.9,325.0 711.2,324.3 712.2,323.7 712.9,325.2 713.9,324.3 715.1,326.3 716.3,324.9 716.8,317.2 717.2,317.9 717.3,309.4 717.3,302.1 717.4,307.8 717.5,307.9 717.8,309.7 718.1,315.3 718.5,315.3 719.1,316.1 719.7,315.6 720.3,313.2 720.9,317.9 721.5,320.4 722.2,319.1 723.0,317.3 723.6,318.8 724.5,320.2 725.3,319.8 726.4,320.2 727.5,319.6 728.3,320.4 728.8,323.5 729.2,324.1 729.8,322.3 730.5,323.2 731.1,325.2 731.6,324.5 732.0,328.0 732.2,330.4 732.5,329.6 733.0,330.3 734.0,331.1 734.5,327.5 735.1,327.6 735.8,329.8 737.2,330.2 738.0,333.2 738.9,332.5 739.6,336.7 740.4,335.9 741.3,334.2 742.0,332.0 742.9,333.7 743.7,332.0 744.6,332.0 745.5,333.6 746.4,334.9 747.3,335.8 748.1,337.7 749.0,339.5 749.5,337.7 750.7,340.3 751.2,340.1 752.1,337.8 753.0,336.2 753.5,334.2 754.3,333.9 755.0,334.6 756.0,334.6 756.6,336.4 757.2,337.2 757.8,337.7 758.3,334.6 758.9,334.8 759.2,337.1 759.2,343.5 759.3,342.9 759.4,343.7 759.4,350.3 759.5,348.7 759.5,351.6 759.6,353.1 759.7,350.2 759.8,356.1 759.8,353.7 760.0,354.8 760.3,352.5 760.6,355.5 760.9,355.4 761.3,353.2 761.7,357.9 761.7,356.7 761.8,357.6 762.0,359.6 762.1,362.3 762.3,362.5 762.5,361.2 762.8,362.7 763.0,366.8 763.1,368.0 763.2,366.8 763.3,365.5 763.5,368.5 763.6,371.9 763.6,371.7 763.7,369.9 763.9,370.1 764.0,375.2 764.2,374.9 764.4,377.5 764.6,376.7 764.8,374.5 765.0,375.6 765.3,374.4 765.7,375.5 766.1,375.4 766.5,377.0 767.1,377.3 767.3,374.0 767.5,372.7 767.8,373.7 768.2,372.1 768.5,369.9 768.8,371.2 769.3,370.5 769.6,366.8 769.7,362.7 769.8,357.4 769.8,357.2 770.0,358.3 770.2,354.4 770.5,355.2 770.7,358.2 770.9,360.7 771.3,356.6 771.5,356.9 771.9,355.0 772.2,353.1 772.5,355.3 772.9,354.1 773.1,349.5 773.2,347.5 773.4,344.4 773.5,341.3 773.8,344.7 774.1,346.6 774.5,347.0 775.2,346.9 775.8,348.0 776.1,349.2 776.3,345.6 776.6,344.3 776.9,345.4 777.4,345.0 777.9,346.3 778.2,344.2 778.6,347.0 778.8,351.2 779.1,350.7 779.4,353.4 779.8,351.8 780.4,349.2 780.8,346.6 781.2,345.5 781.6,346.0 782.1,343.3 782.4,341.1 782.8,345.1 783.4,344.4 783.8,342.1 783.9,338.1 784.2,338.7 784.6,338.1 784.8,340.9 785.0,341.9 785.1,336.0 785.1,335.0 785.3,337.3 785.4,336.3 785.6,335.0 785.8,335.0 785.8,331.2 785.9,326.8 786.0,331.7 786.1,329.1 786.2,331.1 786.4,333.1 786.5,333.9 786.6,332.5 786.8,333.3 787.0,336.2 787.2,331.5 787.4,331.5 787.6,331.7 787.8,328.7 788.0,330.1 788.2,333.7 788.4,337.7 788.5,337.9 788.8,334.7 789.2,335.0 789.5,335.6 789.7,330.1 790.0,330.9 790.2,327.3 790.6,330.0 790.8,332.5 791.2,330.0 791.5,329.2 791.8,327.0 792.0,327.9 792.4,330.3 792.7,329.9 793.1,326.7 793.3,323.4 793.4,323.0 793.7,322.5 794.0,323.5 794.4,320.9 795.0,324.4 795.4,324.9 795.7,325.0 796.2,327.0 796.7,328.0 797.3,327.7 797.7,323.6 798.1,323.3 798.5,322.4 799.0,322.3 799.4,320.4 799.6,324.5 800.2,324.7 800.8,321.9 801.3,323.5 802.1,323.6 802.7,321.2 803.1,320.2 803.8,319.9 804.1,314.3 804.1,310.1 804.2,310.2 804.3,310.2 804.4,310.1 804.5,306.5 804.6,307.6 804.8,305.5 805.0,306.3 805.2,304.5 805.4,304.9 805.7,305.3 805.9,309.3 806.2,310.4 806.5,312.3 806.7,312.9 807.0,311.4 807.2,313.4 807.6,313.4 807.8,307.7 808.1,310.6 808.3,309.1 808.5,307.8 808.8,307.5 809.1,305.9 809.4,309.4 809.8,308.0 810.1,305.7 810.6,309.3 811.1,307.6 811.6,309.0 811.9,312.5 812.3,308.5 812.6,306.1 812.8,308.4 813.0,309.6 813.2,310.4 813.4,308.5 813.6,308.9 813.9,307.9 814.2,308.3 814.4,304.2 814.4,300.5 814.4,296.2 814.5,292.8 814.5,292.3 814.6,291.4 814.7,289.8 814.7,293.3 814.9,293.5 815.0,293.0 815.1,288.4 815.2,288.4 815.5,287.1 815.6,288.7 815.7,294.5 815.8,297.7 815.9,300.8 816.1,298.2 816.3,300.8 816.4,301.1 816.6,303.6 816.7,301.6 816.9,304.5 817.1,301.9 817.3,298.8 817.5,294.8 817.6,292.3 817.7,290.1 817.9,292.7 818.0,291.7 818.4,292.3 818.7,293.0 819.0,293.3 819.3,290.9 819.4,288.3 819.5,289.0 819.7,284.9 819.9,285.9 820.1,285.6 820.2,281.7 820.5,286.4 820.8,287.9 821.2,286.0 821.6,285.9 822.1,281.9 822.4,282.6 822.7,286.2 823.0,287.7 823.4,285.3 823.9,286.6 824.3,288.2 824.6,285.1 824.9,286.4 825.3,288.1 825.8,288.0 826.1,289.7 826.4,291.4 826.7,294.6 827.1,295.7 827.4,293.0 827.7,289.9 828.0,291.5 828.5,294.1 829.0,294.4 829.6,296.3 829.9,296.6 830.5,295.7 831.0,293.1 831.6,293.2 832.3,297.6 832.8,297.1 833.2,295.5 833.6,297.8 834.0,297.7 834.3,299.6 834.7,294.7 834.9,292.1 835.3,293.1 835.6,293.9 836.1,291.3 836.4,290.5 836.7,291.0 837.1,290.7 837.4,288.9 837.4,289.3 837.6,288.9 837.8,292.6 838.0,296.4 838.0,297.0 838.1,300.1 838.1,304.1 838.2,302.1 838.4,300.2 838.7,300.9 839.0,302.0 839.2,301.8 839.7,304.0 839.9,306.4 840.1,309.2 840.3,307.3 840.5,307.2 840.7,309.7 840.8,308.9 841.0,312.3 841.2,309.7 841.4,310.0 841.9,310.3 842.2,314.2 842.3,316.3 842.7,313.4 843.2,310.9 843.5,310.0 843.8,310.8 844.1,312.2 844.4,314.0 844.9,315.6 845.4,312.1 845.6,314.6 846.0,313.4 846.2,314.7 846.6,310.4 847.1,308.3 847.5,313.9 847.8,316.1 848.0,314.6 848.6,315.9 848.9,316.4 849.3,317.8 850.1,319.5 850.5,319.2 851.2,321.4 851.6,322.1 852.1,323.6 852.5,319.2 852.9,320.2 853.4,323.7 853.8,325.4 854.1,329.6 854.3,326.8 854.4,328.7 854.6,331.8 854.9,326.4 855.2,328.9 855.7,328.5 856.1,329.6 856.4,327.7 857.0,327.0 857.8,329.6 858.5,328.2 859.3,327.7 860.3,327.7 860.9,328.5 862.0,328.2 862.6,327.8 863.0,326.0 863.3,324.7 863.9,326.6 864.4,329.8 864.7,332.4 865.2,330.7 865.8,332.3 866.4,330.4 867.2,330.4 867.9,331.3 868.1,334.5 868.1,336.7 868.3,335.6 868.4,339.7 868.5,338.7 868.6,337.7 868.7,342.1 868.7,343.7 868.8,344.3 868.8,341.9 868.9,343.4 869.0,343.7 869.1,341.2 869.2,344.7 869.3,346.1 869.5,342.0 869.7,343.4 869.9,341.3 870.0,341.5 870.2,342.6 870.4,340.1 870.6,337.8 870.8,333.1 870.9,331.6 871.1,329.7 871.2,331.7 871.4,331.8 871.6,336.7 871.7,337.5 871.9,336.3 872.2,340.5 872.5,340.6 872.6,336.6 872.8,336.2 872.9,338.6 873.2,343.8 873.5,347.2 873.6,348.9 873.7,346.4 874.0,349.8 874.4,349.6 874.9,350.6 875.3,349.3 875.8,347.8 876.3,344.3 876.8,345.1 877.8,346.7 878.5,345.4 879.1,340.9 879.7,342.0 880.2,340.4 880.6,346.0 880.7,351.1 880.7,359.9 880.8,363.3 880.8,361.6 880.8,359.9 880.9,361.6 881.0,359.7 881.1,361.2 881.3,362.3 881.4,365.3 881.5,366.4 881.6,365.8 881.8,365.3 881.9,363.6 882.1,367.1 882.3,365.8 882.6,362.6 883.1,365.3 883.4,366.3 883.7,364.1 884.0,361.9 884.2,361.2 884.8,364.0 885.1,360.8 885.7,362.8 886.1,367.0 886.3,369.1 886.6,370.4 886.8,369.6 887.0,365.1 887.3,365.6 887.7,367.1 888.1,365.2 888.6,367.2 889.0,367.1 889.4,366.4 889.8,367.9 890.2,368.5 890.6,368.3 891.2,368.7 891.9,367.4 892.4,363.4 892.5,360.8 892.7,361.4 893.1,363.9 893.5,366.2 893.9,369.2 894.2,369.3 894.4,369.8 894.5,370.5 894.7,373.0 894.8,371.7 895.0,368.6 895.2,368.6 895.5,368.9 895.6,368.3 895.7,365.6 895.8,365.1 895.9,368.5 896.0,369.3 896.1,367.5 896.3,365.8 896.4,367.7 896.6,368.6 896.7,362.5 896.8,363.3 897.0,363.2 897.3,365.5 897.5,366.3 897.7,365.3 897.9,365.2 898.1,364.6 898.3,367.2 898.6,368.8 898.8,365.8 898.9,366.3 899.1,366.5 899.5,367.3 899.7,370.1 899.8,374.8 899.9,381.1 899.9,380.4 900.0,384.0 900.0,378.9 900.1,379.4 900.3,377.2 900.3,370.3 900.4,365.8 900.5,365.7 900.5,362.1 900.6,360.8 900.7,357.8 900.8,359.6 901.0,356.9 901.1,354.9 901.2,356.1 901.3,357.8 901.6,359.3 901.8,359.3 902.0,361.8 902.2,362.4 902.4,362.5 902.5,364.3 902.7,361.9 902.9,363.3 903.2,363.3 903.3,359.8 903.7,363.2 904.0,362.6 904.4,364.7 905.2,360.3 905.8,362.6 906.4,359.1 907.0,361.1 907.6,359.7 908.2,360.9 908.8,365.2 909.4,362.1 910.0,362.6 910.6,364.9 911.2,366.0 911.9,369.4 912.5,370.4 913.0,367.5 913.4,369.1 913.8,369.9 914.0,373.2 914.4,374.3 914.9,375.4 915.1,380.7 915.2,380.5 915.6,378.8 915.9,383.1 916.0,378.6 916.2,377.8 916.4,381.2 916.5,380.1 916.8,379.0 917.2,376.9 917.6,378.0 918.1,381.8 918.5,379.7 919.0,382.6 919.1,383.3 919.6,382.6 919.9,385.6 920.2,389.2 920.4,388.7 920.8,387.7 921.2,390.2 921.6,390.0 921.7,394.2 922.0,395.0 922.2,392.6 922.5,392.6 922.7,393.7 922.8,393.8 922.9,397.7 923.0,398.8 923.0,407.0 923.0,402.1 923.1,399.2 923.1,400.4 923.2,400.7 923.2,403.7 923.3,405.7 923.3,404.5 923.4,403.7 923.4,401.9 923.5,402.8 923.6,400.5 923.7,403.3 923.8,397.3 923.8,396.6 924.0,396.5 924.2,393.7 924.3,391.4 924.4,393.4 924.6,392.6 924.8,394.2 925.0,395.5 925.1,395.7 925.2,391.1 925.3,393.9 925.5,396.8 925.7,398.8 925.8,396.7 925.9,399.6 926.0,400.9 926.1,404.4 926.1,405.3 926.2,411.1 926.2,420.0 926.2,411.9 926.2,406.6 926.3,405.5 926.3,401.2 926.3,405.6 926.4,407.3 926.5,406.3 926.6,407.5 926.6,404.4 926.7,409.1 926.8,409.3 926.8,409.1 926.9,409.4 926.9,410.9 927.1,412.7 927.2,416.8 927.3,415.3 927.4,417.1 927.5,419.3 927.6,420.1 927.7,420.0 927.8,424.9 927.9,425.1 927.9,425.0 927.9,434.0 928.0,431.1 928.0,425.7 928.0,419.4 928.0,418.5 928.0,413.4 928.0,417.1 928.1,417.9 928.1,417.9 928.2,421.8 928.3,421.4 928.3,420.1 928.4,422.1 928.4,418.6 928.5,418.9 928.6,420.3 928.7,421.8 928.9,424.4 929.0,425.0 929.1,426.3 929.3,424.0 929.5,425.9 929.8,425.8 930.0,425.6 930.1,426.2 930.3,424.6 930.6,421.2 930.7,421.6 930.9,418.4 931.1,415.6 931.2,414.3 931.4,415.8 931.7,415.8 931.9,414.9 932.6,417.8 933.0,416.3 933.2,413.7 933.3,408.8 933.4,408.7 933.5,406.9 933.7,409.7 933.9,406.0 934.0,406.3" fill="none" stroke="#d97706" stroke-width="1.2" stroke-linejoin="round" opacity="0.6"/><text x="942" y="472.0" text-anchor="start" font-size="11" fill="#d97706">253.17</text><text x="942" y="396.0" text-anchor="start" font-size="11" fill="#d97706">313.87</text><text x="942" y="320.0" text-anchor="start" font-size="11" fill="#d97706">374.58</text><text x="942" y="244.0" text-anchor="start" font-size="11" fill="#d97706">435.29</text><text x="942" y="168.0" text-anchor="start" font-size="11" fill="#d97706">496.00</text><text x="942" y="92.0" text-anchor="start" font-size="11" fill="#d97706">556.70</text><text x="942" y="80.0" text-anchor="start" font-size="11" font-weight="600" fill="#d97706">price</text>
  <polygon points="119.1,468.0 119.1,401.0 119.1,408.0 138.6,416.8 141.8,427.8 142.8,441.5 175.3,444.3 221.3,447.8 236.5,452.1 275.8,430.6 281.5,415.1 282.8,393.1 282.8,401.0 282.9,410.8 289.0,362.2 326.8,371.1 331.3,327.4 340.7,335.9 343.6,346.5 365.8,359.7 379.6,376.3 382.9,384.8 386.5,342.8 426.9,309.2 427.7,317.7 441.9,275.8 455.7,284.2 456.3,294.8 456.9,308.1 468.6,324.7 482.6,333.5 484.2,344.5 485.5,358.3 574.8,290.1 575.0,298.9 575.1,255.2 575.1,264.0 575.1,275.1 575.1,288.9 575.1,306.1 575.1,314.9 575.1,326.0 581.9,271.4 587.0,279.9 589.9,290.5 591.7,303.7 599.1,320.3 717.3,328.8 728.8,339.4 761.7,286.9 769.8,295.4 770.8,306.0 773.1,319.2 804.1,253.7 804.5,262.2 842.3,272.8 880.7,220.3 880.7,229.1 901.0,240.2 902.2,254.0 922.9,185.7 923.0,194.5 923.8,205.6 926.1,219.4 927.9,151.1 933.3,116.1 933.3,468.0" fill="#16a34a" fill-opacity="0.08"/>
  <polyline points="119.1,401.0 119.1,408.0 138.6,416.8 141.8,427.8 142.8,441.5 175.3,444.3 221.3,447.8 236.5,452.1 275.8,430.6 281.5,415.1 282.8,393.1 282.8,401.0 282.9,410.8 289.0,362.2 326.8,371.1 331.3,327.4 340.7,335.9 343.6,346.5 365.8,359.7 379.6,376.3 382.9,384.8 386.5,342.8 426.9,309.2 427.7,317.7 441.9,275.8 455.7,284.2 456.3,294.8 456.9,308.1 468.6,324.7 482.6,333.5 484.2,344.5 485.5,358.3 574.8,290.1 575.0,298.9 575.1,255.2 575.1,264.0 575.1,275.1 575.1,288.9 575.1,306.1 575.1,314.9 575.1,326.0 581.9,271.4 587.0,279.9 589.9,290.5 591.7,303.7 599.1,320.3 717.3,328.8 728.8,339.4 761.7,286.9 769.8,295.4 770.8,306.0 773.1,319.2 804.1,253.7 804.5,262.2 842.3,272.8 880.7,220.3 880.7,229.1 901.0,240.2 902.2,254.0 922.9,185.7 923.0,194.5 923.8,205.6 926.1,219.4 927.9,151.1 933.3,116.1" fill="none" stroke="#16a34a" stroke-width="2" stroke-linejoin="round"/>
  <line x1="88" y1="102" x2="110" y2="102" stroke="#16a34a" stroke-width="2.5"/><text x="116" y="106" font-size="11.5" fill="#374151">equity</text><line x1="88" y1="118" x2="110" y2="118" stroke="#d97706" stroke-width="2.5" opacity="0.8"/><text x="116" y="122" font-size="11.5" fill="#374151">price</text>
  <text x="78" y="502" text-anchor="start" font-size="12" fill="#6b7280">2026-01-01</text><text x="934" y="502" text-anchor="end" font-size="12" fill="#6b7280">2026-01-31</text>
</svg>
