<svg xmlns="http://www.w3.org/2000/svg" width="1100" height="560" font-family="ui-sans-serif, system-ui, sans-serif" viewBox="0 0 1100 560"><rect width="1100" height="560" fill="#fff"/><text x="80" y="28" fill="#111827" font-size="18" font-weight="700">Zone Recovery — ZECUSDC fee-tier comparison (best setting)</text><text x="80" y="48" fill="#6b7280" font-size="12.5">lev 10 · ratio 4 · gap 20% · maxSteps 4 · maxDD 60% · random · equity per fee tier vip 0..9</text><text x="80" y="68" fill="#1d4ed8" font-size="12.5" font-weight="600">USDC margin · BNB −10%</text><line x1="80" x2="932" y1="508" y2="508" stroke="#e5e7eb" stroke-width="1"/><text x="70" y="512" fill="#6b7280" font-size="12" text-anchor="end">0.00</text><line x1="80" x2="932" y1="424" y2="424" stroke="#e5e7eb" stroke-width="1"/><text x="70" y="428" fill="#6b7280" font-size="12" text-anchor="end">11338</text><line x1="80" x2="932" y1="340" y2="340" stroke="#e5e7eb" stroke-width="1"/><text x="70" y="344" fill="#6b7280" font-size="12" text-anchor="end">22676</text><line x1="80" x2="932" y1="256" y2="256" stroke="#e5e7eb" stroke-width="1"/><text x="70" y="260" fill="#6b7280" font-size="12" text-anchor="end">34015</text><line x1="80" x2="932" y1="172" y2="172" stroke="#e5e7eb" stroke-width="1"/><text x="70" y="176" fill="#6b7280" font-size="12" text-anchor="end">45353</text><line x1="80" x2="932" y1="88" y2="88" stroke="#e5e7eb" stroke-width="1"/><text x="70" y="92" fill="#6b7280" font-size="12" text-anchor="end">56691</text><line x1="80" x2="932" y1="433.9" y2="433.9" stroke="#9ca3af" stroke-dasharray="6 4" stroke-width="1.5"/><polyline fill="none" stroke="#2563eb" stroke-linejoin="round" stroke-width="1.8" points="80 433.9 80 441.9 100.4 451.9 103.8 464.4 104.8 480 138.8 483 187 486.8 202.9 491.5 244 468.9 250 452.7 251.3 429.9 251.4 438.3 251.5 448.8 257.8 398.5 297.4 408.5 302 360.6 311.9 370.2 315 382.2 338.2 397.3 352.6 416.1 356.1 425.8 359.9 379.7 402.2 342.8 403 352.5 417.8 306.4 432.3 316.1 432.9 328.1 433.5 343.2 445.8 362 460.4 372 462.1 384.5 463.5 400.2 556.8 325.2 557.1 335.3 557.2 287.3 557.2 297.3 557.2 309.8 557.2 325.5 557.2 345.1 557.2 355.1 557.2 367.6 564.3 307.7 569.6 317.3 572.7 329.4 574.6 344.4 582.3 363.3 706 372.9 718 384.9 752.4 327.3 760.9 337 761.9 349 764.4 364.1 796.8 292.1 797.2 301.8 836.8 313.8 877 256.2 877 266.2 898.2 278.7 899.4 294.4 921.1 219.4 921.2 229.5 922 242 924.5 257.6 926.4 182.7 932 144.3" opacity=".9"/><polyline fill="none" stroke="#dc2626" stroke-linejoin="round" stroke-width="1.8" points="80 433.9 80 441.9 100.4 451.9 103.8 464.4 104.8 480 138.8 483 187 486.8 202.9 491.5 244 468.9 250 452.7 251.3 429.9 251.4 438.3 251.5 448.8 257.8 398.5 297.4 408.5 302 360.6 311.9 370.2 315 382.2 338.2 397.3 352.6 416.1 356.1 425.8 359.9 379.7 402.2 342.8 403 352.5 417.8 306.4 432.3 316.1 432.9 328.1 433.5 343.2 445.8 362 460.4 372 462.1 384.5 463.5 400.2 556.8 325.2 557.1 335.3 557.2 287.3 557.2 297.3 557.2 309.8 557.2 325.5 557.2 345.1 557.2 355.1 557.2 367.6 564.3 307.7 569.6 317.3 572.7 329.4 574.6 344.4 582.3 363.3 706 372.9 718 384.9 752.4 327.3 760.9 337 761.9 349 764.4 364.1 796.8 292.1 797.2 301.8 836.8 313.8 877 256.2 877 266.2 898.2 278.7 899.4 294.4 921.1 219.4 921.2 229.5 922 242 924.5 257.6 926.4 182.7 932 144.3" opacity=".9"/><polyline fill="none" stroke="#16a34a" stroke-linejoin="round" stroke-width="1.8" points="80 433.9 80 441.8 100.4 451.8 103.8 464.1 104.8 479.6 138.8 482.7 187 486.5 202.9 491.2 244 468.3 250 451.9 251.3 428.7 251.4 437.2 251.5 447.8 257.8 396.6 297.4 406.6 302 358.5 311.9 368.1 315 380 338.2 395 352.6 413.7 356.1 423.2 359.9 377.1 402.2 340.2 403 349.7 417.8 303.6 432.3 313.2 432.9 325.1 433.5 340.1 445.8 358.8 460.4 368.7 462.1 381.2 463.5 396.7 556.8 321.6 557.1 331.6 557.2 283.5 557.2 293.5 557.2 305.9 557.2 321.5 557.2 340.9 557.2 350.9 557.2 363.3 564.3 303.3 569.6 312.8 572.7 324.8 574.6 339.7 582.3 358.4 706 368 718 380 752.4 322.3 760.9 331.8 761.9 343.8 764.4 358.7 796.8 286.7 797.2 296.2 836.8 308.2 877 250.5 877 260.4 898.2 272.9 899.4 288.4 921.1 213.3 921.2 223.3 922 235.7 924.5 251.3 926.4 176.2 932 137.8" opacity=".9"/><polyline fill="none" stroke="#d97706" stroke-linejoin="round" stroke-width="1.8" points="80 433.9 80 441.8 100.4 451.7 103.8 464 104.8 479.4 138.8 482.4 187 486.2 202.9 491 244 467.9 250 451.2 251.3 427.7 251.4 436.3 251.5 447 257.8 395.1 297.4 405 302 356.8 311.9 366.4 315 378.2 338.2 393.1 352.6 411.7 356.1 421.2 359.9 375 402.2 338 403 347.5 417.8 301.3 432.3 310.8 432.9 322.7 433.5 337.6 445.8 356.2 460.4 366.1 462.1 378.4 463.5 393.9 556.8 318.7 557.1 328.6 557.2 280.5 557.2 290.4 557.2 302.8 557.2 318.2 557.2 337.6 557.2 347.5 557.2 359.8 564.3 299.7 569.6 309.2 572.7 321.1 574.6 336 582.3 354.6 706 364.1 718 376 752.4 318.2 760.9 327.7 761.9 339.6 764.4 354.5 796.8 282.3 797.2 291.8 836.8 303.7 877 245.9 877 255.8 898.2 268.2 899.4 283.6 921.1 208.4 921.2 218.3 922 230.7 924.5 246.2 926.4 171 932 132.5" opacity=".9"/><polyline fill="none" stroke="#7c3aed" stroke-linejoin="round" stroke-width="1.8" points="80 433.9 80 441.7 100.4 451.5 103.8 463.7 104.8 479 138.8 482.1 187 485.9 202.9 490.7 244 467.2 250 450.3 251.3 426.3 251.4 435 251.5 445.7 257.8 392.8 297.4 402.7 302 354.5 311.9 363.9 315 375.7 338.2 390.4 352.6 408.9 356.1 418.3 359.9 372 402.2 334.9 403 344.4 417.8 298.1 432.3 307.5 432.9 319.3 433.5 334 445.8 352.5 460.4 362.3 462.1 374.6 463.5 389.9 556.8 314.6 557.1 324.4 557.2 276.2 557.2 286 557.2 298.3 557.2 313.6 557.2 332.8 557.2 342.6 557.2 354.9 564.3 294.6 569.6 304.1 572.7 315.9 574.6 330.6 582.3 349.1 706 358.5 718 370.3 752.4 312.4 760.9 321.8 761.9 333.6 764.4 348.4 796.8 276 797.2 285.4 836.8 297.2 877 239.3 877 249.2 898.2 261.4 899.4 276.8 921.1 201.4 921.2 211.3 922 223.5 924.5 238.9 926.4 163.5 932 125" opacity=".9"/><polyline fill="none" stroke="#0891b2" stroke-linejoin="round" stroke-width="1.8" points="80 433.9 80 441.7 100.4 451.5 103.8 463.7 104.8 479 138.8 482 187 485.8 202.9 490.6 244 467.1 250 450.1 251.3 426.1 251.4 434.7 251.5 445.5 257.8 392.5 297.4 402.3 302 354 311.9 363.5 315 375.2 338.2 390 352.6 408.4 356.1 417.8 359.9 371.5 402.2 334.4 403 343.8 417.8 297.5 432.3 306.9 432.9 318.7 433.5 333.4 445.8 351.8 460.4 361.6 462.1 373.9 463.5 389.2 556.8 313.8 557.1 323.7 557.2 275.4 557.2 285.2 557.2 297.5 557.2 312.8 557.2 332 557.2 341.8 557.2 354 564.3 293.7 569.6 303.2 572.7 315 574.6 329.7 582.3 348.1 706 357.5 718 369.3 752.4 311.4 760.9 320.8 761.9 332.6 764.4 347.3 796.8 274.9 797.2 284.3 836.8 296.1 877 238.2 877 248 898.2 260.3 899.4 275.6 921.1 200.2 921.2 210 922 222.3 924.5 237.6 926.4 162.2 932 123.7" opacity=".9"/><polyline fill="none" stroke="#db2777" stroke-linejoin="round" stroke-width="1.8" points="80 433.9 80 441.7 100.4 451.5 103.8 463.7 104.8 478.9 138.8 482 187 485.8 202.9 490.6 244 467 250 450 251.3 425.9 251.4 434.6 251.5 445.4 257.8 392.2 297.4 402 302 353.7 311.9 363.2 315 374.9 338.2 389.6 352.6 408 356.1 417.4 359.9 371.1 402.2 334 403 343.4 417.8 297.1 432.3 306.5 432.9 318.3 433.5 333 445.8 351.4 460.4 361.2 462.1 373.4 463.5 388.7 556.8 313.3 557.1 323.1 557.2 274.9 557.2 284.7 557.2 296.9 557.2 312.2 557.2 331.4 557.2 341.2 557.2 353.4 564.3 293.1 569.6 302.5 572.7 314.3 574.6 329 582.3 347.4 706 356.8 718 368.6 752.4 310.7 760.9 320.1 761.9 331.8 764.4 346.5 796.8 274.2 797.2 283.6 836.8 295.3 877 237.4 877 247.2 898.2 259.4 899.4 274.7 921.1 199.4 921.2 209.2 922 221.4 924.5 236.7 926.4 161.3 932 122.8" opacity=".9"/><polyline fill="none" stroke="#65a30d" stroke-linejoin="round" stroke-width="1.8" points="80 433.9 80 441.7 100.4 451.4 103.8 463.6 104.8 478.8 138.8 481.9 187 485.7 202.9 490.5 244 466.9 250 449.8 251.3 425.7 251.4 434.3 251.5 445.2 257.8 391.8 297.4 401.5 302 353.3 311.9 362.7 315 374.4 338.2 389.1 352.6 407.5 356.1 416.9 359.9 370.5 402.2 333.4 403 342.8 417.8 296.5 432.3 305.9 432.9 317.6 433.5 332.3 445.8 350.7 460.4 360.5 462.1 372.7 463.5 388 556.8 312.6 557.1 322.3 557.2 274.1 557.2 283.9 557.2 296.1 557.2 311.4 557.2 330.5 557.2 340.3 557.2 352.5 564.3 292.2 569.6 301.6 572.7 313.3 574.6 328 582.3 346.4 706 355.8 718 367.5 752.4 309.6 760.9 319 761.9 330.7 764.4 345.4 796.8 273 797.2 282.4 836.8 294.1 877 236.2 877 246 898.2 258.2 899.4 273.5 921.1 198.1 921.2 207.8 922 220.1 924.5 235.3 926.4 159.9 932 121.3" opacity=".9"/><polyline fill="none" stroke="#475569" stroke-linejoin="round" stroke-width="1.8" points="80 433.9 80 441.7 100.4 451.4 103.8 463.6 104.8 478.8 138.8 481.9 187 485.7 202.9 490.5 244 466.8 250 449.7 251.3 425.5 251.4 434.2 251.5 445 257.8 391.5 297.4 401.3 302 353 311.9 362.4 315 374.1 338.2 388.8 352.6 407.1 356.1 416.5 359.9 370.2 402.2 333.1 403 342.5 417.8 296.1 432.3 305.5 432.9 317.2 433.5 331.9 445.8 350.2 460.4 360 462.1 372.2 463.5 387.5 556.8 312.1 557.1 321.8 557.2 273.6 557.2 283.3 557.2 295.6 557.2 310.8 557.2 329.9 557.2 339.7 557.2 351.9 564.3 291.6 569.6 301 572.7 312.7 574.6 327.4 582.3 345.7 706 355.1 718 366.8 752.4 308.9 760.9 318.3 761.9 330 764.4 344.7 796.8 272.2 797.2 281.6 836.8 293.3 877 235.4 877 245.2 898.2 257.4 899.4 272.6 921.1 197.2 921.2 207 922 219.2 924.5 234.5 926.4 159 932 120.4" opacity=".9"/><polyline fill="none" stroke="#ea580c" stroke-linejoin="round" stroke-width="1.8" points="80 433.9 80 441.7 100.4 451.4 103.8 463.6 104.8 478.7 138.8 481.8 187 485.6 202.9 490.4 244 466.7 250 449.5 251.3 425.3 251.4 433.9 251.5 444.8 257.8 391.1 297.4 400.9 302 352.6 311.9 362 315 373.7 338.2 388.3 352.6 406.6 356.1 416 359.9 369.6 402.2 332.5 403 341.9 417.8 295.5 432.3 304.9 432.9 316.6 433.5 331.3 445.8 349.6 460.4 359.3 462.1 371.5 463.5 386.8 556.8 311.3 557.1 321.1 557.2 272.8 557.2 282.6 557.2 294.8 557.2 310 557.2 329.1 557.2 338.8 557.2 351 564.3 290.7 569.6 300 572.7 311.8 574.6 326.4 582.3 344.7 706 354.1 718 365.8 752.4 307.8 760.9 317.2 761.9 328.9 764.4 343.6 796.8 271.1 797.2 280.5 836.8 292.2 877 234.2 877 244 898.2 256.2 899.4 271.4 921.1 196 921.2 205.7 922 217.9 924.5 233.2 926.4 157.7 932 119.1" opacity=".9"/><line x1="950" x2="972" y1="94" y2="94" stroke="#ea580c" stroke-width="3"/><text x="980" y="98" fill="#374151" font-size="12.5">vip 9 52492</text><line x1="950" x2="972" y1="116" y2="116" stroke="#475569" stroke-width="3"/><text x="980" y="120" fill="#374151" font-size="12.5">vip 8 52313</text><line x1="950" x2="972" y1="138" y2="138" stroke="#65a30d" stroke-width="3"/><text x="980" y="142" fill="#374151" font-size="12.5">vip 7 52190</text><line x1="950" x2="972" y1="160" y2="160" stroke="#db2777" stroke-width="3"/><text x="980" y="164" fill="#374151" font-size="12.5">vip 6 52000</text><line x1="950" x2="972" y1="182" y2="182" stroke="#0891b2" stroke-width="3"/><text x="980" y="186" fill="#374151" font-size="12.5">vip 5 51877</text><line x1="950" x2="972" y1="204" y2="204" stroke="#7c3aed" stroke-width="3"/><text x="980" y="208" fill="#374151" font-size="12.5">vip 4 51698</text><line x1="950" x2="972" y1="226" y2="226" stroke="#d97706" stroke-width="3"/><text x="980" y="230" fill="#374151" font-size="12.5">vip 3 50684</text><line x1="950" x2="972" y1="248" y2="248" stroke="#16a34a" stroke-width="3"/><text x="980" y="252" fill="#374151" font-size="12.5">vip 2 49973</text><line x1="950" x2="972" y1="270" y2="270" stroke="#2563eb" stroke-width="3"/><text x="980" y="274" fill="#374151" font-size="12.5">vip 0 49085</text><line x1="950" x2="972" y1="292" y2="292" stroke="#dc2626" stroke-width="3"/><text x="980" y="296" fill="#374151" font-size="12.5">vip 1 49085</text><text x="80" y="542" fill="#6b7280" font-size="12" text-anchor="start">2026-01-02</text><text x="932" y="542" fill="#6b7280" font-size="12" text-anchor="end">2026-01-31</text></svg>