<?xml version="1.0" encoding="UTF-8"?>
<svg xmlns="http://www.w3.org/2000/svg" width="1000" height="520" viewBox="0 0 1000 520" font-family="ui-sans-serif, system-ui, sans-serif">
  <rect width="1000" height="520" fill="#ffffff"/>
  <text x="78" y="28" font-size="18" font-weight="700" fill="#111827">Zone Recovery — TIAUSDC best setting (equity / PnL)</text>
  <text x="78" y="48" font-size="12.5" fill="#6b7280">lev 20 · ratio 2 · gap 20% · maxSteps 4 · maxDD 60% · random · vip 9  ·  1032 series, 87.0% win · vol $1184305926 ($1184312670/day) · fees $100192</text>
  <text x="78" y="68" font-size="12.5" font-weight="600" fill="#1d4ed8">USDC · BNB −10% · taker 0.0085%</text>
  <text x="934" y="28" text-anchor="end" font-size="18" font-weight="700" fill="#16a34a">+1131608 USDT  (+11316.08%)</text>
  <line x1="78" y1="468.0" x2="934" y2="468.0" stroke="#e5e7eb" stroke-width="1"/><text x="68" y="472.0" text-anchor="end" font-size="12" fill="#6b7280">0.00</text><line x1="78" y1="392.0" x2="934" y2="392.0" stroke="#e5e7eb" stroke-width="1"/><text x="68" y="396.0" text-anchor="end" font-size="12" fill="#6b7280">345854</text><line x1="78" y1="316.0" x2="934" y2="316.0" stroke="#e5e7eb" stroke-width="1"/><text x="68" y="320.0" text-anchor="end" font-size="12" fill="#6b7280">691708</text><line x1="78" y1="240.0" x2="934" y2="240.0" stroke="#e5e7eb" stroke-width="1"/><text x="68" y="244.0" text-anchor="end" font-size="12" fill="#6b7280">1037562</text><line x1="78" y1="164.0" x2="934" y2="164.0" stroke="#e5e7eb" stroke-width="1"/><text x="68" y="168.0" text-anchor="end" font-size="12" fill="#6b7280">1383416</text><line x1="78" y1="88.0" x2="934" y2="88.0" stroke="#e5e7eb" stroke-width="1"/><text x="68" y="92.0" text-anchor="end" font-size="12" fill="#6b7280">1729270</text>
  <line x1="78" y1="465.8" x2="934" y2="465.8" stroke="#9ca3af" stroke-width="1.5" stroke-dasharray="6 4"/><text x="934" y="459.8" text-anchor="end" font-size="11" fill="#6b7280">start 10000</text>
  <polyline points="78.0,124.9 78.9,124.7 80.1,124.2 81.4,124.5 82.4,124.5 83.2,124.7 84.5,124.6 87.1,124.6 88.2,124.2 89.8,123.8 92.2,125.3 93.5,124.9 94.6,124.2 96.1,123.9 97.4,124.7 99.4,125.0 100.6,124.9 101.4,123.9 102.9,123.9 104.7,124.8 106.7,125.9 108.0,125.9 108.8,125.5 109.9,125.1 112.2,125.8 113.9,125.7 114.7,125.4 116.1,124.8 117.3,124.7 118.5,125.0 119.7,124.5 120.9,124.1 122.9,124.5 124.3,124.1 125.2,124.1 126.7,124.4 128.5,124.3 130.5,124.3 132.4,124.5 134.1,124.5 135.6,125.1 137.1,125.3 138.2,125.9 139.5,125.4 141.2,125.5 142.9,125.4 144.2,125.9 144.8,125.0 145.6,125.0 146.5,125.3 148.2,125.5 148.9,125.0 150.0,125.2 151.3,125.5 152.2,126.0 152.9,126.6 153.4,126.5 154.3,126.8 155.0,126.4 156.0,126.2 157.0,126.1 157.8,125.6 158.5,124.8 159.6,124.3 160.6,123.9 161.6,124.0 162.7,124.3 163.8,124.0 165.7,124.7 167.3,124.6 168.5,125.8 169.0,125.7 170.0,126.0 171.0,126.1 172.5,126.0 173.6,125.7 175.0,125.5 176.4,125.8 177.6,126.1 178.3,126.0 178.3,126.2 179.2,125.9 179.9,125.9 180.9,126.7 181.6,127.0 182.0,126.9 182.7,126.5 185.0,126.9 185.9,127.0 187.0,127.6 187.7,127.7 188.6,127.7 189.6,128.3 191.0,128.7 192.0,128.3 193.2,127.9 193.9,127.5 195.2,127.4 196.9,126.1 197.9,125.1 198.2,124.6 199.6,124.5 200.1,123.8 201.0,123.5 201.2,122.5 201.5,122.5 202.2,121.9 202.7,121.4 203.1,120.7 203.4,120.8 203.6,120.4 204.1,119.7 204.3,119.8 204.7,119.9 204.9,119.8 205.2,120.4 205.5,120.1 205.9,119.5 206.3,119.7 206.7,120.2 207.1,120.0 207.7,119.9 208.2,120.3 208.3,120.1 209.0,120.7 209.5,120.1 210.0,120.1 210.7,119.9 211.7,119.5 212.5,119.1 213.2,118.7 213.7,118.7 214.3,118.8 215.0,119.3 215.6,119.6 216.0,119.7 216.6,119.9 217.5,120.7 218.0,121.7 218.6,121.8 219.3,121.6 220.1,121.0 220.7,121.5 221.1,120.6 221.4,120.7 222.0,121.0 222.6,120.9 223.1,120.8 223.8,120.8 224.6,121.1 225.6,119.8 226.5,120.7 227.4,120.9 228.1,120.8 228.7,121.0 229.0,120.3 229.9,120.9 230.8,121.1 231.7,121.5 232.5,122.2 232.9,121.7 233.5,121.3 234.1,120.9 235.2,121.3 236.1,122.0 236.9,122.5 237.7,122.2 239.0,121.9 239.8,121.3 240.4,121.6 240.9,122.5 241.7,122.6 242.6,123.4 243.9,123.6 244.7,123.1 245.9,123.3 247.0,122.9 248.0,122.8 248.7,122.7 250.4,122.8 251.6,122.8 252.5,122.6 253.9,122.8 255.7,122.9 256.6,122.7 257.3,122.9 257.9,123.0 258.8,124.0 259.6,124.9 260.4,124.7 261.3,124.2 262.7,124.4 263.7,124.4 264.7,124.3 265.8,124.4 266.5,124.3 267.6,123.9 268.7,124.0 270.2,123.5 271.0,123.2 271.5,121.9 272.0,121.9 272.8,122.2 273.7,122.5 274.5,122.9 275.4,123.0 276.0,124.3 276.7,123.8 277.8,124.0 278.8,123.9 279.0,123.6 280.1,123.2 281.4,122.0 282.4,121.4 283.3,121.1 283.8,120.4 284.2,120.2 284.7,120.7 285.3,120.5 286.0,120.3 286.7,119.7 287.1,120.4 288.0,119.8 288.7,119.6 289.3,119.2 290.0,119.8 290.9,119.5 292.0,119.4 292.6,118.7 293.1,119.3 293.5,118.4 293.8,118.4 294.1,118.9 294.9,118.6 295.7,118.4 296.2,119.0 297.2,118.8 298.0,119.2 299.1,119.8 299.9,119.2 301.0,119.0 301.9,119.4 303.2,119.1 304.4,119.8 305.4,120.1 306.4,120.4 308.1,120.7 309.4,121.5 310.0,120.8 310.6,120.8 311.2,121.2 312.0,121.4 312.7,120.6 313.5,121.3 314.1,122.0 314.4,122.0 314.8,122.8 315.3,122.6 315.7,122.6 316.2,122.2 316.6,121.6 317.4,121.8 317.9,122.2 318.8,122.5 319.4,123.0 319.4,122.4 319.6,122.6 319.9,122.3 320.5,122.8 321.3,123.0 321.7,123.4 321.9,123.4 322.2,123.9 322.5,124.4 322.8,124.7 323.1,124.2 323.5,124.7 324.0,124.0 324.9,123.9 325.6,124.2 326.1,124.0 326.8,123.9 327.2,123.9 328.0,124.0 328.3,124.2 328.7,125.0 328.7,124.9 329.1,124.6 329.6,125.2 330.2,125.0 330.3,124.8 330.5,125.1 331.0,125.2 331.6,125.5 332.0,125.6 332.5,125.4 333.1,125.5 333.5,124.8 333.9,124.9 334.4,124.6 334.7,125.1 335.0,125.0 335.3,125.0 335.9,124.5 336.6,124.6 337.1,125.5 337.5,125.3 338.0,126.0 338.5,126.2 339.0,125.9 339.8,125.5 340.5,124.6 341.0,124.9 341.7,125.7 342.3,126.1 342.9,126.1 343.5,125.8 344.4,125.2 345.1,125.0 345.6,125.5 346.0,125.1 346.5,126.0 347.1,126.1 347.7,126.1 348.4,126.0 348.9,125.9 349.4,125.7 349.9,125.6 350.9,125.8 352.2,125.0 353.7,125.2 354.6,125.3 355.2,126.3 355.5,126.4 355.8,126.7 356.3,126.4 356.9,126.5 357.7,126.2 358.2,126.6 358.6,126.8 359.5,126.4 360.4,126.5 361.4,126.6 362.3,127.0 363.5,127.0 364.1,127.0 364.5,126.3 364.9,126.1 365.7,126.7 366.4,126.8 366.9,127.0 367.3,126.6 367.6,126.9 368.2,126.3 369.1,126.2 369.6,126.0 370.3,125.6 370.7,125.9 371.4,125.6 372.5,125.3 373.3,124.3 373.7,124.1 374.3,123.9 374.9,124.5 375.5,124.7 376.1,124.7 377.1,125.1 378.3,124.6 379.0,124.8 379.8,124.6 381.0,124.5 381.8,124.7 382.5,125.2 383.4,125.6 384.3,125.7 385.0,125.3 385.8,126.0 386.7,125.8 387.6,125.6 388.3,126.1 388.9,126.5 389.6,126.2 390.3,125.4 391.0,125.3 391.8,125.2 392.5,125.3 393.1,125.1 393.7,124.7 394.4,124.4 395.5,124.2 396.2,123.8 397.1,123.0 397.9,122.1 398.8,122.1 399.4,122.0 399.7,122.6 400.0,122.6 400.4,123.1 400.9,123.4 400.9,124.1 401.5,122.9 402.0,123.3 402.6,122.7 403.2,123.1 403.9,123.2 405.0,123.4 406.3,122.5 406.9,122.7 408.1,122.8 409.3,123.4 410.6,123.7 412.3,123.2 413.5,122.9 414.8,121.6 415.3,120.4 416.0,120.0 416.5,119.7 417.0,120.0 417.7,119.7 418.4,119.5 419.4,119.3 420.0,119.5 420.5,119.5 421.1,119.9 421.9,120.3 422.6,120.6 423.5,121.0 424.5,120.7 425.6,121.0 426.5,120.4 427.1,120.7 428.1,121.0 428.9,121.8 429.3,121.9 430.0,121.3 430.5,121.6 431.5,121.3 432.0,121.3 432.7,121.6 433.5,121.5 434.4,121.8 435.3,121.6 436.1,121.2 436.7,120.7 437.7,121.1 438.6,120.5 440.1,120.0 441.7,119.9 443.9,120.2 445.6,119.8 446.3,119.7 447.7,119.3 448.2,119.7 449.6,119.9 450.6,120.4 451.7,120.5 452.7,120.7 453.1,119.8 454.0,120.6 454.6,119.6 455.4,119.6 456.1,119.9 457.0,119.5 457.8,119.2 458.3,119.9 459.2,120.0 460.2,119.6 460.8,119.1 461.6,118.8 462.1,118.4 462.4,118.4 463.1,118.7 463.8,118.2 464.6,117.7 465.0,117.5 465.5,117.8 466.0,118.0 466.6,118.0 467.8,118.0 468.8,117.6 469.6,118.0 470.5,117.7 471.2,117.5 472.0,117.6 472.5,117.4 473.4,117.2 474.1,117.1 474.3,117.2 474.8,117.3 475.5,116.9 475.9,116.8 476.4,117.0 476.9,117.1 477.2,117.7 478.0,117.8 479.0,117.8 479.5,117.6 480.3,117.7 481.1,117.5 481.9,118.0 482.7,118.3 483.4,118.3 484.4,118.8 485.1,118.9 485.5,119.1 486.0,119.4 487.3,119.5 488.6,118.9 489.4,118.4 490.1,118.2 490.4,118.5 490.7,118.6 490.8,119.2 491.2,118.8 491.7,118.8 492.1,118.6 492.9,118.5 493.5,119.0 494.6,119.3 495.3,118.9 496.3,119.6 497.0,119.2 498.3,119.6 499.1,118.7 500.0,118.7 500.6,118.3 501.4,117.6 502.0,117.3 502.7,117.2 503.8,117.1 504.9,117.3 505.1,117.2 505.8,117.4 506.1,117.5 506.6,118.1 507.0,117.3 507.3,117.7 507.6,118.0 508.1,117.3 508.5,117.2 508.9,117.0 509.1,117.7 509.3,117.6 509.4,116.7 509.7,116.7 510.1,116.7 511.0,115.9 511.6,115.3 512.1,115.8 512.9,116.6 513.6,116.7 514.3,117.4 514.9,117.3 515.5,117.9 516.0,117.7 516.6,116.9 518.4,116.9 520.1,117.1 522.0,116.9 523.6,117.5 524.2,117.3 525.0,117.4 525.7,116.6 527.1,116.7 528.6,117.1 529.2,117.8 530.0,117.6 530.6,118.0 531.4,117.6 532.7,117.4 534.1,117.3 535.5,117.2 536.9,116.2 538.0,116.4 540.0,116.4 542.2,116.1 542.9,116.9 543.7,116.0 544.3,115.6 544.8,116.1 545.7,115.7 546.4,115.8 547.1,116.0 547.7,116.5 548.4,117.0 548.9,116.9 549.9,117.0 550.9,116.7 551.7,117.5 551.9,116.7 552.4,117.0 552.6,117.2 552.7,117.5 552.9,116.9 553.2,116.2 553.6,115.8 553.9,115.8 554.7,115.8 555.5,116.0 556.6,115.5 557.4,114.9 558.1,115.0 559.1,115.1 559.6,115.1 559.9,115.1 560.1,115.6 560.2,115.6 560.6,115.2 561.0,116.1 561.2,115.8 561.6,115.9 561.9,115.6 562.3,115.2 562.6,115.0 562.8,115.3 563.1,115.9 563.5,116.2 563.8,116.1 564.4,115.2 564.9,114.3 565.4,114.6 565.7,115.0 566.1,115.4 566.5,115.5 566.8,115.4 567.2,115.5 567.4,115.7 567.9,115.9 568.6,115.8 568.9,116.2 569.2,115.8 569.8,116.2 570.2,115.7 570.6,116.3 570.9,116.6 571.3,117.4 571.6,117.3 572.0,117.0 572.3,117.6 572.6,117.7 573.1,117.3 573.9,117.9 574.2,118.1 574.5,118.0 575.0,117.9 575.7,117.5 576.5,116.7 577.2,116.0 577.6,115.7 578.2,116.6 578.6,116.4 579.2,115.4 579.8,115.8 580.3,115.2 580.8,115.4 581.4,115.2 582.3,114.9 582.8,115.6 583.6,115.7 583.9,115.6 584.6,115.5 585.4,115.9 586.1,116.5 586.6,116.1 586.9,116.6 587.2,117.0 587.5,117.6 587.8,118.1 588.1,118.7 588.2,118.0 588.6,117.8 589.0,118.3 589.3,118.1 589.6,118.2 589.9,118.1 590.4,117.4 590.7,117.8 591.1,118.2 591.4,119.0 591.7,118.2 592.0,118.2 592.5,117.8 593.0,117.9 593.8,118.1 594.2,118.2 594.7,118.7 595.3,118.4 595.5,117.7 595.9,117.5 596.3,117.2 596.7,117.6 597.1,117.8 597.6,117.7 598.1,117.1 598.7,117.5 599.1,118.3 599.4,118.0 600.0,117.9 600.8,118.5 601.5,118.3 602.1,118.5 602.9,119.3 603.1,118.5 603.6,118.0 604.1,118.3 604.8,118.8 605.5,118.6 606.0,117.8 606.7,117.6 608.2,117.4 609.0,117.7 610.2,117.8 611.2,117.9 611.7,118.5 611.8,119.6 611.8,120.9 611.9,121.0 611.9,120.1 611.9,120.1 611.9,120.4 612.0,120.8 612.0,121.2 612.0,121.9 612.0,121.1 612.1,121.0 612.1,121.4 612.2,121.9 612.2,122.7 612.3,123.4 612.3,123.1 612.4,122.9 612.4,122.9 612.5,122.4 612.5,121.4 612.5,121.9 612.6,121.6 612.7,122.1 612.7,121.2 612.8,121.5 613.0,122.2 613.1,122.0 613.2,121.8 613.2,122.4 613.3,122.8 613.4,123.2 613.5,123.1 613.6,124.2 613.6,124.4 613.7,124.1 613.7,123.5 613.8,123.9 613.8,124.8 613.9,124.2 613.9,124.9 614.0,124.9 614.1,125.0 614.1,125.6 614.2,125.2 614.2,125.3 614.3,125.3 614.4,126.4 614.4,126.4 614.5,126.5 614.6,126.7 614.6,126.1 614.6,125.9 614.7,126.0 614.8,125.2 614.8,125.2 614.8,125.9 614.9,125.8 614.9,125.5 614.9,124.6 615.0,124.5 615.0,125.3 615.1,125.4 615.2,126.0 615.3,126.3 615.4,126.2 615.4,126.3 615.5,126.6 615.6,127.4 615.6,127.6 615.7,127.2 615.8,127.6 615.8,126.9 615.9,126.7 616.0,126.6 616.1,126.6 616.2,126.7 616.2,126.5 616.3,127.5 616.4,126.7 616.4,126.5 616.5,125.9 616.6,125.5 616.6,125.8 616.8,126.2 616.8,126.2 616.9,126.0 617.0,125.5 617.1,124.3 617.2,125.4 617.3,125.7 617.4,125.8 617.4,125.3 617.6,125.0 617.7,124.5 617.9,124.4 618.0,124.7 618.0,124.7 618.2,125.2 618.3,125.7 618.4,125.3 618.5,125.3 618.6,125.2 618.7,125.7 618.9,125.7 619.0,124.9 619.1,124.5 619.2,124.0 619.4,124.0 619.6,123.4 619.7,123.5 619.8,123.1 620.0,123.7 620.2,124.1 620.3,124.4 620.6,124.1 620.8,124.0 621.0,123.6 621.2,123.2 621.4,123.2 621.7,123.5 621.9,124.1 622.2,123.6 622.3,123.2 622.6,123.5 622.7,124.0 622.8,124.6 623.0,124.8 623.1,124.7 623.3,125.4 623.5,125.8 623.6,126.5 623.6,126.1 623.7,125.9 623.7,125.4 623.8,126.1 623.9,126.1 624.0,126.5 624.1,126.6 624.3,125.8 624.4,126.0 624.5,126.6 624.9,126.5 625.0,127.1 625.0,127.0 625.1,126.3 625.2,126.5 625.3,127.3 625.3,127.5 625.4,127.5 625.5,127.3 625.6,127.6 625.7,128.2 625.8,128.0 625.9,127.7 625.9,128.6 625.9,129.4 626.0,129.6 626.0,129.8 626.1,130.6 626.1,129.1 626.1,129.2 626.2,130.3 626.2,129.5 626.3,130.0 626.3,129.5 626.4,129.4 626.5,128.8 626.7,128.3 626.8,128.7 626.9,129.3 627.0,129.7 627.1,130.0 627.1,130.4 627.2,130.5 627.2,130.7 627.2,130.4 627.3,130.3 627.4,130.9 627.4,130.1 627.6,130.1 627.7,131.4 627.8,131.6 627.9,131.2 627.9,130.5 628.0,131.2 628.1,131.9 628.2,131.4 628.3,131.5 628.4,131.5 628.4,130.5 628.5,130.0 628.6,130.5 628.7,131.1 628.8,131.4 628.9,131.3 629.0,132.3 629.1,131.8 629.2,131.9 629.3,131.3 629.4,130.5 629.6,129.9 629.7,129.9 629.9,130.6 630.0,130.8 630.2,131.4 630.3,131.6 630.6,132.0 630.7,132.4 630.9,133.0 630.9,133.6 631.0,132.9 631.1,133.7 631.1,134.3 631.1,134.4 631.2,136.2 631.2,135.2 631.2,135.8 631.2,135.9 631.2,135.5 631.3,137.6 631.3,137.6 631.4,138.0 631.4,137.4 631.4,137.1 631.5,136.6 631.5,136.0 631.6,136.7 631.6,137.6 631.7,138.5 631.7,139.6 631.7,139.5 631.8,139.3 631.8,138.0 631.8,138.9 631.9,140.1 631.9,141.1 631.9,140.4 632.0,140.3 632.0,138.6 632.0,138.3 632.1,137.6 632.1,137.2 632.1,137.6 632.2,137.3 632.2,137.5 632.3,137.6 632.4,138.2 632.5,137.8 632.6,138.6 632.6,138.9 632.7,138.4 632.7,138.6 632.7,138.2 632.8,138.1 632.8,138.3 632.9,138.7 632.9,138.3 633.0,138.4 633.1,139.0 633.2,138.5 633.2,139.0 633.3,138.9 633.4,139.8 633.4,140.3 633.5,140.7 633.5,140.0 633.5,139.9 633.6,139.8 633.6,141.2 633.7,141.4 633.7,141.9 633.7,141.1 633.8,140.6 633.8,139.4 633.8,138.7 633.9,139.6 634.0,139.2 634.0,139.1 634.1,139.0 634.2,138.3 634.3,138.2 634.3,139.6 634.4,139.6 634.5,139.0 634.6,138.5 634.7,139.1 634.9,139.1 635.0,138.3 635.1,138.7 635.1,138.4 635.2,137.7 635.3,137.7 635.4,137.0 635.6,136.7 635.7,137.2 635.8,136.2 635.9,136.4 636.1,137.0 636.2,137.3 636.4,136.4 636.5,136.2 636.6,135.7 636.7,136.4 636.8,136.8 636.9,136.9 637.0,137.5 637.2,137.4 637.3,138.4 637.4,138.4 637.5,138.0 637.6,137.3 637.8,136.9 638.0,136.4 638.1,136.7 638.2,137.0 638.3,136.8 638.4,136.4 638.6,136.2 638.8,135.8 638.9,135.6 639.1,135.2 639.5,134.7 639.8,134.4 639.9,135.1 639.9,135.9 640.0,135.7 640.2,136.3 640.4,137.0 640.5,136.2 640.6,135.9 640.8,136.3 641.0,136.9 641.2,136.9 641.5,137.0 641.7,137.0 641.8,137.0 641.9,137.2 642.1,136.7 642.3,137.4 642.5,137.5 642.6,137.3 642.9,137.6 643.1,137.8 643.2,138.0 643.3,137.4 643.4,136.5 643.4,137.6 643.5,137.0 643.7,137.2 643.9,137.9 644.0,137.6 644.2,137.8 644.4,137.5 644.6,137.9 644.6,138.1 644.8,138.2 644.9,137.9 645.1,138.3 645.2,138.2 645.3,137.9 645.6,137.7 645.8,138.8 646.0,139.1 646.2,139.1 646.4,139.2 646.5,139.6 646.7,139.7 646.9,139.1 647.0,139.5 647.3,139.5 647.6,139.7 647.9,138.5 648.4,139.1 648.7,139.3 648.8,139.3 648.9,140.1 649.1,140.2 649.3,140.2 649.4,140.2 649.6,139.6 649.7,140.3 649.9,140.0 650.0,140.3 650.2,140.1 650.4,140.7 650.6,140.3 650.7,140.2 650.8,139.6 651.0,139.8 651.2,140.4 651.3,140.3 651.5,139.9 651.7,139.4 651.8,139.3 652.0,138.9 652.2,138.3 652.3,138.7 652.6,138.0 652.9,138.2 653.1,138.2 653.3,137.8 653.5,137.9 653.7,137.0 654.0,136.6 654.2,136.5 654.4,136.4 654.7,136.8 654.9,137.1 655.2,137.8 655.4,138.0 655.6,137.5 655.7,137.5 656.0,137.6 656.3,138.2 656.6,138.5 656.8,138.2 657.2,138.2 657.6,138.8 657.8,138.8 657.9,139.1 658.2,139.0 658.4,138.9 658.5,139.3 658.8,139.6 659.0,140.0 659.1,139.9 659.3,140.0 659.5,140.1 659.7,139.9 660.0,140.1 660.1,139.5 660.3,139.3 660.6,139.6 660.8,139.7 661.1,139.5 661.2,140.0 661.4,139.6 661.6,139.4 662.0,139.3 662.2,138.8 662.6,138.1 663.0,137.6 663.3,137.1 663.6,137.6 663.9,137.1 664.3,136.8 664.6,137.0 665.0,137.0 665.3,137.2 665.6,137.1 666.0,137.8 666.5,138.6 666.6,138.3 667.1,138.5 667.3,138.9 667.7,138.4 668.1,137.5 668.4,137.3 668.6,136.4 668.7,136.9 669.0,137.0 669.1,137.4 669.5,137.0 669.7,137.6 670.1,137.1 670.2,136.7 670.3,136.4 670.7,135.9 671.0,135.6 671.3,135.9 671.3,136.0 672.0,136.2 672.5,136.3 673.1,137.5 673.4,137.8 673.7,137.9 674.0,137.9 674.6,138.6 675.1,139.1 675.6,139.7 675.8,139.7 676.2,139.2 676.5,139.6 676.8,139.0 677.2,139.6 677.8,140.6 678.4,141.1 678.6,141.3 679.0,140.7 679.3,140.3 679.9,140.0 680.4,140.3 680.8,141.1 681.1,140.8 681.4,140.8 681.9,141.3 682.3,140.8 682.6,141.1 683.3,141.8 683.7,141.6 684.0,142.2 684.4,141.8 684.6,141.3 685.0,141.3 685.2,141.6 685.5,141.4 686.0,141.7 686.2,142.2 686.4,142.3 686.6,142.1 686.8,142.2 687.1,142.6 687.2,143.2 687.3,142.9 687.4,143.1 687.6,143.0 687.8,142.9 688.0,142.5 688.4,142.4 688.7,142.3 689.0,143.1 689.3,142.4 689.7,142.1 690.2,142.7 690.7,142.7 691.1,143.2 691.3,142.2 691.6,141.1 691.8,140.9 692.1,141.4 692.4,141.8 692.8,142.2 693.2,142.4 693.3,142.0 693.5,141.6 693.8,141.7 694.0,141.3 694.3,141.4 694.6,141.5 694.9,141.5 695.4,141.2 695.6,141.5 696.1,140.8 696.5,141.7 697.1,142.3 697.5,141.4 697.9,140.7 698.4,139.9 699.1,140.6 699.5,140.7 699.9,140.4 700.3,140.8 701.0,140.3 701.8,140.1 702.3,139.7 702.9,140.1 703.4,140.4 703.9,140.7 704.6,141.1 705.2,141.0 705.6,141.9 705.9,142.3 706.2,142.6 706.6,142.3 706.9,142.9 707.3,143.8 707.8,144.1 708.1,143.9 708.4,144.7 708.7,144.5 709.0,143.8 709.4,143.7 709.8,143.4 710.5,143.9 710.9,143.6 711.3,143.6 711.4,144.2 711.7,145.0 711.7,146.1 711.7,145.6 711.8,145.2 712.0,146.0 712.1,146.7 712.1,146.6 712.1,146.0 712.3,145.5 712.4,145.4 712.8,145.3 713.1,144.7 713.2,143.5 713.3,144.3 713.6,144.5 714.1,144.5 714.4,144.4 714.8,144.7 715.3,144.6 715.8,145.2 716.2,144.9 716.7,144.9 717.1,145.1 717.3,144.2 717.6,144.3 718.2,145.0 718.4,144.7 718.9,145.2 719.2,144.8 719.8,145.2 720.2,145.8 720.4,145.6 720.6,146.0 720.9,145.6 721.3,145.2 721.5,145.1 721.8,145.3 722.0,145.5 722.5,145.1 723.0,145.0 723.3,144.7 723.8,144.5 724.1,145.1 724.4,145.5 724.6,145.7 724.9,144.7 725.2,145.2 725.8,145.4 726.3,145.2 726.7,145.4 727.4,145.1 728.1,145.9 728.5,144.9 728.9,144.9 729.6,144.7 730.1,144.5 730.4,144.4 730.6,144.6 730.8,145.4 731.2,145.4 731.8,144.9 732.1,144.5 732.5,144.1 732.9,144.0 733.4,143.4 733.7,143.1 734.4,143.4 735.2,143.0 736.1,143.2 736.9,143.9 737.7,144.5 738.0,144.4 738.5,144.3 738.9,144.6 739.3,144.8 739.6,144.5 740.2,144.2 740.8,145.0 741.5,144.8 742.1,145.3 742.5,145.4 742.9,145.1 743.4,145.2 743.9,145.9 744.0,146.2 744.4,145.3 745.0,145.3 745.6,144.7 746.2,144.6 746.6,144.7 746.8,144.5 747.2,143.7 747.5,144.6 747.9,144.9 748.2,145.3 748.6,146.1 749.1,146.5 749.2,146.5 749.3,145.9 749.6,146.0 749.9,145.6 750.5,145.6 750.9,145.2 751.3,145.6 751.9,145.8 752.5,145.9 753.0,145.6 753.7,145.5 754.4,145.5 755.0,145.7 755.7,145.8 756.1,145.3 756.5,146.0 756.9,145.4 757.2,145.3 757.6,145.8 758.1,145.8 758.5,145.7 758.9,146.5 759.0,146.4 759.1,146.2 759.5,147.1 759.7,146.6 760.1,146.3 760.7,146.8 760.8,147.6 761.0,147.5 761.1,147.2 761.3,147.1 761.6,147.6 761.8,148.1 761.8,148.4 762.0,148.0 762.3,147.5 762.5,147.5 762.7,148.6 762.8,148.9 762.9,148.3 763.0,149.0 763.1,148.3 763.4,147.9 763.6,147.5 764.0,147.7 764.2,147.9 764.5,148.1 764.7,148.1 765.0,148.9 765.2,147.8 765.2,147.6 765.4,148.0 765.8,147.8 766.2,147.5 766.7,147.8 767.4,147.1 767.7,147.0 767.9,148.0 768.0,148.1 768.2,148.1 768.4,147.8 768.6,148.9 768.7,148.8 768.7,149.3 768.8,149.0 768.9,148.9 769.0,149.7 769.1,149.5 769.2,148.8 769.3,148.1 769.4,148.6 769.7,148.8 770.0,148.8 770.4,148.6 770.6,147.5 770.8,147.3 771.0,146.9 771.3,146.5 771.5,147.2 771.8,147.3 772.1,148.1 772.4,148.8 772.6,149.7 772.7,150.3 772.8,151.1 772.9,152.2 772.9,152.8 772.9,152.0 772.9,151.3 773.0,151.3 773.1,151.3 773.2,152.1 773.3,152.8 773.3,153.3 773.3,153.8 773.3,154.0 773.3,154.0 773.4,154.0 773.4,154.4 773.4,155.2 773.5,156.1 773.5,156.6 773.5,156.4 773.6,155.2 773.6,154.8 773.6,154.5 773.7,153.7 773.8,153.6 773.9,152.6 774.0,152.2 774.1,151.9 774.2,152.4 774.3,152.3 774.5,151.4 774.7,152.1 774.8,152.4 775.0,152.0 775.1,152.0 775.3,152.4 775.4,153.5 775.4,153.7 775.5,153.6 775.5,153.8 775.6,154.9 775.6,154.6 775.8,154.9 775.9,154.2 775.9,153.8 776.0,153.7 776.1,153.9 776.3,153.0 776.5,152.9 776.6,153.2 776.7,153.2 776.9,152.9 777.1,152.0 777.2,152.0 777.4,152.4 777.7,151.7 777.9,152.0 778.2,151.4 778.3,151.4 778.7,151.0 778.8,151.7 779.1,152.0 779.5,152.1 779.6,152.3 779.8,151.8 780.1,152.4 780.3,152.0 780.6,150.8 780.7,150.4 780.7,150.8 781.0,151.4 781.3,151.0 781.5,150.2 781.8,150.2 782.2,149.6 782.4,149.8 782.6,149.4 782.9,148.9 783.1,149.8 783.2,150.4 783.4,150.5 783.8,150.3 784.0,149.8 784.4,149.4 784.7,149.2 785.0,149.3 785.2,149.8 785.4,149.9 785.6,150.2 785.7,150.9 786.0,151.1 786.2,151.2 786.5,151.2 786.7,151.3 787.1,151.3 787.4,150.8 787.6,150.9 788.0,151.9 788.4,151.7 788.6,151.7 788.9,151.3 789.3,151.8 789.6,151.3 789.8,151.0 790.1,151.0 790.4,151.7 790.9,152.0 791.3,151.5 791.6,151.4 792.1,152.2 792.2,152.2 792.5,152.6 792.9,152.6 793.2,152.0 793.5,152.0 793.9,151.3 794.1,151.0 794.3,151.0 794.5,152.2 794.8,151.4 795.2,150.6 795.6,150.6 795.9,151.4 796.7,151.9 797.1,152.2 797.4,152.0 797.7,151.9 798.2,151.8 798.6,151.2 799.0,150.4 799.2,150.7 799.4,151.3 799.8,150.7 800.3,150.8 800.5,150.6 800.7,150.4 800.9,150.5 801.2,150.3 801.4,150.5 801.6,150.7 802.0,151.7 802.4,151.8 802.7,151.6 803.3,152.3 803.7,151.9 804.0,151.6 804.6,151.1 805.2,150.4 805.7,150.6 806.3,151.3 806.9,150.7 807.4,150.4 807.8,150.2 808.2,150.1 808.6,150.3 809.2,150.3 809.8,151.0 810.7,151.6 811.3,151.5 811.7,151.2 812.3,150.6 812.7,150.9 813.3,150.8 813.7,150.9 814.5,150.2 815.1,150.3 815.6,150.3 816.1,150.4 816.8,150.1 817.3,150.2 817.6,149.6 817.9,150.0 818.3,150.0 818.9,150.1 819.3,151.1 819.4,150.4 819.8,150.2 820.2,150.9 820.6,150.4 821.1,150.8 821.2,152.0 821.2,152.6 821.3,153.4 821.3,153.6 821.3,152.8 821.3,153.2 821.4,153.9 821.6,153.9 821.7,153.9 821.7,153.2 821.8,153.1 821.9,153.8 821.9,154.7 822.0,154.7 822.1,155.5 822.1,155.6 822.2,155.4 822.2,155.2 822.3,154.8 822.4,155.2 822.4,156.2 822.4,156.1 822.5,155.3 822.6,156.6 822.6,157.1 822.6,156.8 822.7,157.0 822.7,158.1 822.7,159.2 822.8,159.1 822.8,160.4 822.8,160.1 822.8,160.1 822.8,160.6 822.8,159.4 822.9,160.1 822.9,159.3 822.9,158.4 823.0,158.8 823.0,158.4 823.0,158.1 823.1,157.8 823.2,158.8 823.3,159.0 823.3,160.7 823.4,161.3 823.4,162.2 823.4,162.3 823.4,163.4 823.4,164.1 823.4,165.1 823.5,165.0 823.5,164.7 823.5,163.7 823.5,163.5 823.5,162.7 823.6,162.9 823.6,163.0 823.6,163.5 823.6,163.3 823.7,163.6 823.7,164.5 823.7,165.0 823.8,164.7 823.8,163.8 823.8,164.1 823.8,163.5 823.9,163.6 823.9,164.2 824.0,163.1 824.0,162.6 824.1,162.8 824.1,163.3 824.1,162.7 824.2,162.7 824.2,163.5 824.2,163.9 824.2,164.0 824.3,164.3 824.3,164.0 824.3,163.8 824.3,163.4 824.4,163.5 824.5,165.0 824.6,166.0 824.6,166.5 824.6,167.4 824.6,167.7 824.6,167.6 824.7,169.1 824.7,168.7 824.7,167.7 824.7,168.7 824.8,170.4 824.8,171.7 824.8,171.5 824.8,173.9 824.8,173.6 824.9,174.9 824.9,176.4 824.9,178.8 824.9,177.4 824.9,179.0 824.9,178.3 824.9,183.0 825.0,177.9 825.0,177.1 825.0,174.2 825.1,172.5 825.1,173.4 825.1,174.1 825.1,174.0 825.1,174.6 825.1,173.5 825.2,173.2 825.2,173.6 825.2,173.3 825.3,174.0 825.3,174.3 825.3,173.8 825.3,174.5 825.3,174.1 825.3,173.5 825.4,173.7 825.4,173.1 825.4,172.0 825.4,172.4 825.5,172.8 825.5,173.9 825.5,174.2 825.5,175.0 825.5,175.3 825.5,174.5 825.6,173.7 825.6,173.6 825.6,173.7 825.6,173.9 825.7,173.1 825.7,173.7 825.7,174.3 825.7,175.1 825.8,174.3 825.8,172.6 825.8,172.6 825.9,172.8 825.9,173.1 825.9,173.7 825.9,173.1 826.0,173.5 826.0,174.0 826.0,174.3 826.1,175.2 826.1,176.1 826.1,175.0 826.1,173.8 826.1,173.8 826.2,173.2 826.2,173.9 826.3,174.0 826.3,174.4 826.3,175.6 826.4,175.8 826.4,177.0 826.4,176.6 826.4,177.7 826.4,177.3 826.5,176.8 826.5,175.3 826.5,176.0 826.6,175.7 826.6,176.0 826.6,176.6 826.6,176.7 826.6,177.4 826.7,177.5 826.7,178.1 826.7,179.9 826.7,180.5 826.7,181.1 826.8,182.8 826.8,182.8 826.8,185.8 826.8,187.9 826.8,185.7 826.8,186.6 826.8,188.0 826.8,189.5 826.8,190.0 826.9,189.8 826.9,191.8 826.9,191.8 826.9,193.8 826.9,187.7 826.9,188.1 827.0,183.7 827.0,185.2 827.0,184.4 827.0,184.3 827.1,184.9 827.1,184.9 827.1,186.0 827.2,187.6 827.2,186.3 827.2,184.6 827.3,183.1 827.3,183.0 827.3,183.8 827.3,183.7 827.4,182.3 827.4,184.6 827.4,185.6 827.4,184.7 827.4,185.5 827.4,185.4 827.4,185.6 827.4,186.8 827.5,185.9 827.5,187.4 827.5,186.8 827.5,187.5 827.5,188.7 827.5,191.0 827.6,190.9 827.6,187.7 827.6,188.4 827.6,189.5 827.6,187.6 827.6,187.8 827.7,188.1 827.7,187.9 827.7,187.9 827.7,187.0 827.7,187.5 827.7,187.3 827.8,186.1 827.8,186.0 827.8,185.0 827.8,184.9 827.9,184.7 827.9,184.7 827.9,184.2 827.9,184.0 828.0,184.0 828.0,182.9 828.1,182.7 828.1,182.6 828.1,182.6 828.2,181.6 828.2,181.6 828.2,182.7 828.2,182.3 828.3,182.8 828.3,182.2 828.3,181.8 828.3,180.7 828.4,179.8 828.4,180.5 828.4,180.0 828.5,180.5 828.5,181.1 828.5,181.6 828.6,181.7 828.6,181.3 828.6,181.2 828.7,180.2 828.7,179.8 828.7,180.1 828.7,180.7 828.8,180.9 828.8,180.3 828.8,180.8 828.9,180.0 828.9,179.7 828.9,179.2 829.0,178.6 829.0,179.0 829.0,178.8 829.1,178.8 829.1,179.2 829.1,179.3 829.1,180.1 829.2,180.0 829.2,180.4 829.3,180.4 829.3,181.0 829.3,181.8 829.4,181.5 829.4,180.9 829.4,181.3 829.4,181.6 829.4,181.3 829.5,180.7 829.5,180.6 829.5,179.9 829.6,179.7 829.6,180.5 829.6,180.7 829.7,181.2 829.7,180.4 829.7,180.1 829.8,179.9 829.8,179.1 829.8,178.8 829.9,178.4 829.9,178.9 830.0,178.3 830.0,178.6 830.0,179.1 830.1,178.7 830.1,179.4 830.1,179.8 830.2,180.3 830.3,180.4 830.3,179.9 830.4,180.0 830.4,180.4 830.5,180.9 830.5,181.2 830.6,180.6 830.6,180.5 830.6,180.9 830.7,180.9 830.7,180.2 830.8,179.8 830.8,180.7 830.9,180.1 830.9,180.8 830.9,180.3 831.0,180.5 831.0,180.8 831.1,181.3 831.1,180.7 831.2,180.8 831.2,180.5 831.3,180.2 831.3,179.9 831.4,179.5 831.5,180.2 831.6,180.7 831.6,180.2 831.7,180.6 831.8,181.7 831.8,181.3 831.8,181.2 831.9,180.9 831.9,181.2 831.9,181.2 832.0,181.6 832.0,181.4 832.1,182.4 832.1,181.6 832.3,182.7 832.3,182.6 832.4,181.9 832.4,181.1 832.4,181.2 832.5,181.5 832.5,180.5 832.6,180.2 832.7,180.0 832.8,179.3 832.8,179.4 832.9,179.9 833.0,179.7 833.0,178.9 833.1,178.6 833.1,179.2 833.1,179.0 833.2,179.8 833.2,179.7 833.3,179.9 833.3,180.0 833.4,180.5 833.4,181.2 833.5,180.6 833.6,180.9 833.6,180.5 833.6,180.2 833.6,180.6 833.7,181.1 833.7,181.9 833.8,181.2 833.8,182.1 833.9,182.4 833.9,181.5 834.0,182.2 834.1,182.6 834.1,183.6 834.1,183.4 834.2,182.3 834.2,180.7 834.2,183.7 834.2,183.7 834.2,184.5 834.2,183.4 834.2,182.8 834.3,182.2 834.3,182.7 834.3,182.6 834.3,183.0 834.4,183.7 834.4,183.7 834.4,184.7 834.4,185.4 834.5,185.6 834.5,186.0 834.5,185.7 834.5,186.0 834.5,187.9 834.5,190.0 834.6,189.0 834.6,189.2 834.6,186.4 834.6,187.6 834.6,187.5 834.6,188.8 834.7,187.7 834.7,188.5 834.7,190.4 834.8,191.9 834.8,193.6 834.8,193.8 834.8,195.1 834.8,195.2 834.9,198.1 834.9,199.9 834.9,202.9 834.9,203.4 834.9,204.9 835.0,204.5 835.0,205.9 835.0,209.8 835.0,211.6 835.1,214.5 835.1,211.8 835.1,209.7 835.2,203.6 835.2,202.1 835.2,202.0 835.2,205.3 835.3,205.2 835.3,206.6 835.3,203.3 835.3,199.9 835.4,203.1 835.4,202.9 835.4,204.2 835.4,203.4 835.4,205.0 835.5,207.2 835.5,211.6 835.5,209.0 835.5,212.1 835.5,215.1 835.6,209.4 835.6,214.2 835.6,217.3 835.6,219.1 835.6,220.9 835.6,221.5 835.7,224.0 835.7,224.1 835.7,225.5 835.7,225.3 835.7,228.6 835.8,222.1 835.8,224.2 835.8,220.6 835.9,219.2 835.9,217.8 835.9,216.1 836.0,218.1 836.0,216.6 836.0,215.2 836.0,215.4 836.1,215.1 836.1,213.9 836.1,214.6 836.1,215.4 836.1,214.8 836.2,217.3 836.2,217.5 836.2,218.0 836.2,216.1 836.2,218.1 836.3,218.3 836.3,220.0 836.3,222.6 836.3,225.6 836.3,227.7 836.3,223.8 836.4,221.0 836.5,222.3 836.5,224.6 836.5,227.4 836.5,225.9 836.5,228.8 836.6,230.5 836.6,231.2 836.6,233.9 836.6,234.8 836.6,232.8 836.6,235.0 836.7,236.0 836.7,238.8 836.7,240.1 836.7,238.9 836.7,239.1 836.7,236.5 836.8,236.8 836.8,236.4 836.8,236.0 836.8,234.7 836.8,237.4 836.8,235.2 836.9,238.9 836.9,245.5 836.9,248.5 836.9,251.7 837.0,249.1 837.0,245.5 837.0,248.2 837.0,249.3 837.0,250.2 837.1,252.6 837.1,250.1 837.1,254.7 837.1,256.4 837.1,257.3 837.2,262.0 837.2,261.6 837.2,262.2 837.2,261.4 837.2,260.1 837.2,261.8 837.3,261.5 837.3,262.7 837.3,264.9 837.3,267.7 837.3,269.3 837.4,272.3 837.4,278.5 837.4,281.1 837.5,281.5 837.5,282.7 837.5,280.9 837.5,280.3 837.5,279.8 837.5,281.9 837.6,279.8 837.6,282.2 837.6,284.3 837.7,281.7 837.7,276.6 837.7,272.3 837.7,272.4 837.7,272.0 837.7,272.5 837.7,273.5 837.7,274.5 837.8,277.8 837.8,282.2 837.8,283.0 837.8,287.3 837.8,288.6 837.8,289.0 837.9,285.0 837.9,289.4 837.9,289.5 837.9,293.5 837.9,297.3 837.9,299.1 837.9,301.0 837.9,303.0 838.0,309.2 838.0,315.8 838.0,324.6 838.1,324.8 838.2,346.7 838.2,354.6 838.2,362.3 838.3,363.4 838.4,363.7 838.4,365.7 838.4,366.7 838.5,370.6 838.5,373.2 838.5,376.6 838.6,376.1 838.6,381.5 838.7,387.9 838.8,398.3 838.8,401.2 838.9,407.7 838.9,405.1 839.0,414.3 839.1,421.2 839.1,421.8 839.2,428.2 839.2,425.8 839.3,429.9 839.4,434.9 839.5,438.7 839.6,436.5 839.6,436.0 839.7,436.9 839.8,435.4 839.8,435.7 839.9,436.0 840.0,435.3 840.0,435.5 840.1,433.4 840.1,432.4 840.2,435.3 840.2,435.5 840.3,433.2 840.3,430.9 840.4,429.0 840.5,429.4 840.5,427.8 840.7,419.4 840.8,421.8 840.8,425.2 840.9,423.0 841.0,422.4 841.1,420.2 841.1,420.8 841.2,418.5 841.3,417.9 841.3,416.7 841.4,415.6 841.4,415.0 841.5,414.6 841.5,414.4 841.6,413.9 841.7,412.9 841.8,410.2 841.8,410.0 841.9,409.5 842.0,407.1 842.2,404.4 842.3,392.3 842.5,389.8 842.5,376.1 842.6,380.3 842.7,374.8 842.8,378.5 843.0,378.5 843.1,364.5 843.2,349.7 843.3,345.6 843.5,359.9 843.7,351.4 843.7,360.9 843.8,360.4 844.0,365.9 844.1,367.2 844.3,358.6 844.4,368.9 844.5,360.2 844.7,359.0 844.8,358.8 844.9,351.9 845.0,358.9 845.2,358.6 845.4,356.3 845.5,350.5 845.7,352.2 845.9,352.7 846.0,356.6 846.2,353.2 846.4,348.6 846.6,349.6 846.8,348.4 846.9,350.1 847.1,348.2 847.2,346.7 847.3,352.0 847.4,339.4 847.5,348.6 847.7,350.0 847.8,344.3 848.0,352.1 848.1,343.8 848.2,352.4 848.3,352.7 848.4,341.5 848.5,350.0 848.7,342.1 848.7,351.2 848.9,352.0 848.9,346.3 849.0,347.7 849.1,346.0 849.3,346.8 849.4,352.7 849.6,349.7 849.7,347.5 849.7,349.5 849.9,342.5 850.0,344.3 850.1,347.5 850.2,347.2 850.5,345.5 850.6,345.5 850.8,345.1 851.0,343.4 851.2,345.9 851.4,345.9 851.5,345.4 851.7,341.3 851.8,342.3 851.9,330.8 852.0,336.4 852.1,321.7 852.2,336.1 852.3,331.5 852.5,319.1 852.6,324.5 852.8,325.6 852.8,321.2 852.9,321.3 853.0,321.2 853.2,308.1 853.3,315.2 853.5,303.2 853.6,313.8 853.8,303.9 853.9,304.9 854.0,304.4 854.1,303.9 854.2,302.0 854.3,303.6 854.4,303.3 854.5,297.2 854.6,293.5 854.7,295.7 854.8,289.7 854.9,279.3 855.0,284.1 855.2,286.7 855.3,284.9 855.5,278.5 855.6,288.7 855.8,299.7 856.0,292.9 856.2,284.9 856.3,291.0 856.4,294.6 856.6,287.1 856.7,288.1 856.8,286.5 857.0,286.4 857.1,274.5 857.3,276.7 857.4,275.9 857.5,271.0 857.6,272.2 857.7,277.4 857.9,276.7 858.0,265.4 858.1,262.8 858.3,269.4 858.4,267.8 858.6,267.1 858.7,275.0 858.8,276.3 859.0,270.4 859.1,273.0 859.2,267.3 859.4,278.7 859.5,273.9 859.7,268.8 859.8,269.0 860.1,271.3 860.3,271.6 860.4,271.6 860.5,270.3 860.6,269.3 860.8,273.7 861.0,270.1 861.2,271.4 861.4,269.9 861.4,268.6 861.5,266.7 861.6,267.3 861.7,267.3 861.8,267.6 861.8,266.2 861.9,269.9 862.1,269.0 862.1,268.0 862.2,269.7 862.3,270.9 862.3,270.2 862.4,269.4 862.4,272.4 862.6,270.1 862.7,272.3 862.7,272.0 862.9,273.3 863.0,274.8 863.0,276.5 863.0,277.0 863.1,280.3 863.3,277.4 863.3,276.6 863.4,277.6 863.4,277.6 863.5,278.1 863.5,277.4 863.6,278.8 863.7,277.0 863.9,282.8 863.9,280.0 864.0,280.3 864.1,281.3 864.1,277.8 864.3,278.9 864.3,274.6 864.4,276.5 864.5,276.5 864.5,278.5 864.6,280.3 864.6,282.1 864.7,279.9 864.7,280.6 864.8,281.1 864.9,278.7 864.9,276.0 865.0,281.7 865.1,280.5 865.2,281.9 865.2,283.0 865.3,283.2 865.3,284.8 865.3,285.1 865.4,285.8 865.6,288.1 865.7,286.8 865.8,288.3 865.8,289.2 865.8,289.8 865.9,290.6 866.0,293.5 866.1,295.3 866.2,304.1 866.2,305.2 866.3,301.9 866.3,306.0 866.3,299.8 866.3,297.1 866.4,295.3 866.4,293.4 866.5,293.7 866.5,292.8 866.6,292.2 866.7,288.1 866.8,288.9 866.9,291.1 866.9,292.9 867.0,289.4 867.0,292.1 867.1,292.2 867.3,292.4 867.3,290.1 867.4,291.4 867.4,288.8 867.5,289.1 867.5,289.8 867.6,290.3 867.7,288.5 867.7,287.7 867.8,288.4 867.9,286.8 868.0,285.4 868.1,285.2 868.1,285.8 868.2,286.7 868.3,284.8 868.3,281.7 868.5,281.7 868.6,280.8 868.7,282.9 868.8,281.7 868.9,281.5 869.0,279.5 869.1,276.5 869.2,279.6 869.2,278.3 869.4,280.3 869.5,285.0 869.6,280.0 869.6,279.7 869.7,282.1 869.7,280.0 869.7,282.9 869.8,278.3 869.8,281.0 869.8,279.1 869.9,277.2 869.9,278.2 870.0,280.2 870.0,280.0 870.1,281.9 870.2,279.2 870.2,277.5 870.4,277.1 870.4,281.9 870.5,278.4 870.5,276.5 870.5,281.5 870.6,277.8 870.6,276.6 870.6,278.3 870.7,275.5 870.7,275.0 871.0,275.4 871.1,276.6 871.3,278.2 871.6,277.5 871.8,278.9 872.0,279.2 872.2,276.6 872.3,275.2 872.5,280.3 872.7,278.1 872.8,278.4 873.0,280.4 873.1,278.0 873.4,280.4 873.6,282.1 873.8,285.1 874.0,283.2 874.1,286.7 874.4,281.7 874.7,280.5 874.9,280.6 875.1,281.1 875.2,278.6 875.5,279.8 875.7,281.7 875.8,278.3 876.1,279.0 876.4,279.2 876.6,279.2 876.7,281.7 877.0,280.8 877.3,281.0 877.6,281.1 877.8,285.1 878.0,284.6 878.2,284.2 878.5,283.7 878.6,288.1 878.7,284.2 878.8,282.8 879.0,287.3 879.1,290.8 879.2,286.2 879.2,290.9 879.2,287.7 879.3,287.9 879.4,286.3 879.6,285.1 879.7,283.5 879.7,280.5 879.9,281.9 880.1,281.1 880.3,280.7 880.5,282.6 880.6,283.5 880.9,284.8 881.2,284.2 881.4,284.8 881.5,284.8 881.7,283.7 881.9,285.5 882.1,283.4 882.2,286.1 882.3,285.2 882.5,285.1 882.7,285.0 882.9,286.5 883.2,284.4 883.4,284.2 883.6,283.5 883.7,282.9 884.0,282.6 884.2,281.6 884.4,277.5 884.4,278.9 884.5,277.4 884.5,285.0 884.8,280.1 884.9,281.4 885.1,281.9 885.3,280.1 885.3,283.2 885.6,282.0 886.0,282.0 886.4,280.8 886.8,279.3 887.0,280.4 887.0,282.6 887.1,281.5 887.2,282.8 887.3,282.9 887.3,283.4 887.4,283.3 887.4,282.5 887.6,283.0 887.7,284.7 887.7,282.3 887.8,284.1 887.8,284.1 888.0,280.8 888.1,282.0 888.3,281.3 888.5,280.0 888.7,283.3 889.0,282.1 889.2,284.0 889.5,281.8 889.7,281.6 890.0,281.9 890.2,280.5 890.5,281.6 890.6,283.6 890.9,283.9 891.2,282.5 891.4,283.2 891.5,283.2 891.5,287.8 891.6,288.7 891.7,283.8 892.0,282.2 892.2,282.8 892.5,278.6 892.7,279.6 893.1,279.3 893.5,278.7 893.6,277.2 893.9,275.8 894.1,272.8 894.2,273.9 894.4,276.4 894.5,276.7 894.6,276.3 894.8,276.5 895.1,274.0 895.3,274.7 895.4,274.4 895.5,273.2 895.7,272.1 895.8,272.8 896.1,272.1 896.2,272.4 896.6,274.5 897.0,269.2 897.1,271.5 897.3,272.8 897.6,270.9 897.8,270.6 897.9,269.9 898.1,271.1 898.4,271.9 898.6,271.8 898.8,271.9 899.0,272.2 899.3,270.5 899.5,270.6 899.7,270.9 899.8,273.6 900.0,274.8 900.2,274.0 900.5,273.4 900.6,272.6 900.8,271.7 901.2,273.5 901.4,272.4 901.8,273.7 902.0,273.6 902.3,274.7 902.5,274.8 902.7,272.6 902.9,272.5 903.1,272.0 903.4,273.1 903.7,271.3 903.8,273.4 903.9,273.1 904.0,273.1 904.3,272.6 904.7,273.9 904.9,273.9 905.2,273.9 905.4,275.4 905.7,273.8 905.9,273.9 906.1,273.4 906.3,273.5 906.6,273.4 907.0,272.2 907.4,272.4 907.7,272.2 908.1,270.8 908.3,270.1 908.5,270.0 909.1,267.7 909.6,267.1 909.8,267.4 910.1,266.6 910.3,266.7 910.4,267.1 910.5,266.9 910.7,267.1 910.9,266.6 911.1,266.5 911.4,265.8 911.6,265.7 911.8,264.4 912.0,262.5 912.0,262.7 912.1,261.1 912.2,262.9 912.3,257.7 912.4,264.1 912.7,259.0 912.8,260.7 913.1,261.1 913.2,261.0 913.5,261.2 913.7,261.6 913.8,257.9 914.1,258.4 914.3,255.4 914.5,256.6 914.6,256.8 914.7,257.5 914.8,257.9 914.9,257.4 915.0,257.2 915.1,257.3 915.2,257.0 915.3,257.4 915.4,257.0 915.6,256.8 915.8,257.5 915.9,257.2 916.1,258.1 916.2,257.7 916.3,257.8 916.4,256.6 916.5,258.0 916.6,258.0 916.7,258.4 916.8,258.2 917.0,257.6 917.3,255.6 917.6,256.8 918.0,257.9 918.3,256.3 918.7,257.0 919.0,255.8 919.2,255.9 919.3,255.3 919.8,254.3 920.0,253.9 920.1,254.1 920.3,254.2 920.6,253.8 920.8,254.6 921.0,255.7 921.3,256.1 921.5,258.3 921.6,257.8 921.7,257.7 921.8,258.7 921.9,258.2 922.0,258.4 922.1,258.2 922.3,256.9 922.5,255.2 922.6,258.0 922.7,257.7 922.8,257.4 923.0,256.4 923.1,255.9 923.2,255.3 923.2,256.4 923.3,255.5 923.5,256.2 923.5,255.9 923.7,255.2 923.9,254.7 924.0,254.7 924.0,254.3 924.1,254.5 924.2,254.9 924.3,254.1 924.5,254.2 924.7,254.1 924.8,254.7 924.9,253.2 925.1,252.9 925.3,252.7 925.4,254.4 925.7,254.2 925.8,254.0 925.9,254.0 925.9,253.6 926.1,254.1 926.2,254.2 926.3,254.3 926.4,255.7 926.5,255.4 926.6,255.7 926.7,256.3 926.8,256.0 926.9,255.6 927.0,255.4 927.1,256.0 927.2,256.1 927.2,255.4 927.4,254.3 927.5,255.4 927.6,256.3 927.7,256.4 927.9,257.1 927.9,257.6 928.0,257.9 928.1,256.1 928.2,256.8 928.3,256.1 928.4,256.2 928.5,256.2 928.6,256.4 928.7,257.4 928.7,257.0 928.8,257.8 928.9,257.8 928.9,257.6 929.0,257.8 929.0,258.0 929.1,257.0 929.2,257.1 929.3,256.6 929.3,256.6 929.4,257.1 929.4,257.3 929.5,257.5 929.5,257.6 929.6,257.6 929.7,257.6 929.8,256.6 929.9,256.5 929.9,257.4 930.0,257.4 930.0,257.6 930.1,257.4 930.1,256.8 930.2,256.8 930.4,257.8 930.5,256.5 930.6,256.9 930.7,256.8 930.8,257.9 930.9,257.0 931.0,256.2 931.2,256.8 931.4,258.8 931.4,260.9 931.5,259.0 931.6,259.2 931.6,259.0 931.7,258.2 931.7,258.8 931.8,258.8 931.9,258.8 931.9,259.7 932.0,259.4 932.1,259.0 932.3,259.8 932.5,260.1 932.8,259.3 933.0,259.5 933.1,258.5 933.3,257.9 933.5,257.7 933.6,257.6 933.9,258.1 934.0,257.3" fill="none" stroke="#d97706" stroke-width="1.2" stroke-linejoin="round" opacity="0.6"/><text x="942" y="472.0" text-anchor="start" font-size="11" fill="#d97706">0.11</text><text x="942" y="396.0" text-anchor="start" font-size="11" fill="#d97706">0.40</text><text x="942" y="320.0" text-anchor="start" font-size="11" fill="#d97706">0.70</text><text x="942" y="244.0" text-anchor="start" font-size="11" fill="#d97706">0.99</text><text x="942" y="168.0" text-anchor="start" font-size="11" fill="#d97706">1.29</text><text x="942" y="92.0" text-anchor="start" font-size="11" fill="#d97706">1.58</text><text x="942" y="80.0" text-anchor="start" font-size="11" font-weight="600" fill="#d97706">price</text>
  <polygon points="190.7,468.0 190.7,465.8 190.7,466.0 198.0,466.2 465.0,465.5 611.8,465.7 625.9,465.1 631.2,464.7 687.2,464.2 712.1,464.5 713.2,464.9 759.5,465.6 773.3,463.7 773.5,464.0 773.7,464.5 822.6,465.2 823.4,463.1 824.8,462.4 824.9,461.6 825.0,462.0 826.4,462.6 826.8,460.9 826.8,460.1 826.8,460.5 826.8,461.1 826.9,462.0 827.5,463.3 827.6,463.7 827.6,464.2 827.6,465.0 827.6,466.2 828.2,465.9 834.2,466.1 834.5,465.6 834.8,465.8 834.9,465.3 834.9,464.9 835.0,464.4 835.1,463.9 835.1,464.2 835.1,463.3 835.1,462.6 835.3,463.0 835.3,463.6 835.5,464.5 835.5,461.8 835.5,461.1 835.5,461.5 835.5,460.3 835.5,459.5 835.6,459.9 835.6,460.5 835.6,461.4 835.6,462.8 835.6,462.0 835.6,461.2 835.7,461.6 835.7,462.2 835.7,463.1 835.7,460.5 835.7,459.7 835.7,458.9 835.7,459.3 835.7,460.0 835.7,460.9 835.7,462.2 835.7,461.4 835.8,460.7 835.8,461.1 835.8,459.9 835.9,459.1 835.9,459.5 836.0,460.1 836.0,461.0 836.3,462.3 836.3,462.7 836.3,461.5 836.4,460.8 836.5,461.2 836.6,460.0 836.6,460.4 836.7,459.2 836.7,459.6 836.7,460.2 836.8,458.5 836.8,458.9 836.8,459.5 836.9,460.4 836.9,457.7 836.9,458.1 836.9,456.9 836.9,457.3 836.9,457.9 836.9,458.8 837.0,460.1 837.0,459.4 837.0,459.8 837.0,460.3 837.0,461.2 837.0,462.6 837.0,463.0 837.1,461.8 837.1,462.2 837.2,461.0 837.2,460.2 837.2,460.6 837.3,461.2 837.3,459.5 837.4,458.7 837.4,459.1 837.4,459.7 837.4,460.6 837.4,458.0 837.4,457.2 837.5,456.4 837.5,456.8 837.5,455.7 837.5,456.1 837.5,456.7 837.5,457.6 837.5,454.9 837.5,454.1 837.5,454.5 837.5,453.4 837.5,452.6 837.5,453.0 837.5,453.6 837.5,454.5 837.6,451.9 837.6,452.3 837.6,452.9 837.7,451.1 837.7,451.5 837.7,450.3 837.7,449.6 837.7,450.0 837.7,450.6 837.7,451.4 837.7,448.9 837.7,448.1 837.8,447.3 837.8,447.7 837.8,446.5 837.8,446.9 837.8,447.5 837.8,448.5 837.9,449.8 837.9,450.2 837.9,450.8 837.9,451.7 837.9,449.1 837.9,449.5 837.9,450.1 837.9,448.3 837.9,448.7 837.9,447.6 837.9,448.0 838.0,446.8 838.0,447.2 838.0,447.8 838.0,446.0 838.0,445.3 838.0,444.5 838.0,443.7 838.0,443.0 838.1,443.4 838.1,442.2 838.1,442.6 838.1,443.2 838.1,444.1 838.1,445.4 838.1,444.6 838.1,445.0 838.1,443.9 838.2,444.3 838.2,443.1 838.2,443.5 838.2,444.1 838.2,442.3 838.2,442.7 838.2,443.3 838.2,441.6 838.2,442.0 838.2,442.6 838.3,440.9 838.3,440.1 838.3,440.5 838.3,441.1 838.3,442.0 838.3,439.4 838.4,439.8 838.4,438.6 838.4,439.0 838.5,437.8 838.5,438.2 838.5,438.8 838.5,439.7 838.5,437.1 838.6,437.5 838.6,438.1 838.6,439.0 838.6,436.4 838.6,435.6 838.6,434.8 838.6,435.2 838.6,434.0 838.6,433.3 838.7,433.7 838.7,432.5 838.7,431.7 838.7,430.9 838.7,430.2 838.7,429.4 838.7,429.8 838.8,428.6 838.8,429.0 838.8,427.9 838.8,428.3 838.8,428.9 838.8,429.8 838.8,431.1 838.8,430.4 838.8,429.6 838.8,430.0 838.8,430.6 838.8,431.5 838.8,428.9 838.8,429.3 838.8,428.1 838.8,428.5 838.8,427.3 838.8,427.7 838.8,426.6 838.8,427.0 838.8,425.8 838.8,425.0 838.8,425.4 838.8,426.0 838.9,426.9 838.9,424.3 838.9,424.7 838.9,423.5 838.9,423.9 838.9,422.8 838.9,422.0 838.9,421.2 838.9,420.4 838.9,420.8 838.9,421.4 838.9,419.7 839.0,420.1 839.0,420.7 839.0,418.9 839.0,418.2 839.0,418.6 839.0,419.1 839.0,417.4 839.0,416.6 839.0,417.0 839.0,415.9 839.0,416.3 839.0,415.1 839.0,415.5 839.0,414.3 839.0,413.5 839.0,412.8 839.1,413.2 839.1,412.0 839.1,411.2 839.1,411.6 839.1,410.5 839.1,410.8 839.1,409.7 839.1,408.9 839.1,408.1 839.1,407.4 839.2,407.8 839.2,406.6 839.2,407.0 839.2,405.8 839.2,406.2 839.2,405.1 839.2,405.5 839.2,404.3 839.2,403.5 839.2,403.9 839.2,404.5 839.2,402.8 839.2,403.2 839.2,402.0 839.2,402.4 839.2,403.0 839.2,403.9 839.2,401.3 839.2,401.7 839.2,402.3 839.2,403.2 839.2,404.5 839.2,404.9 839.3,405.5 839.3,406.4 839.3,407.7 839.3,407.0 839.3,407.4 839.3,408.0 839.3,408.9 839.3,410.2 839.3,410.6 839.3,409.5 839.3,409.9 839.3,408.7 839.3,409.1 839.3,409.7 839.3,407.9 839.3,408.4 839.3,407.2 839.3,406.4 839.3,405.6 839.3,404.9 839.3,404.1 839.3,403.3 839.4,402.5 839.4,402.9 839.4,401.8 839.4,402.2 839.4,401.0 839.4,401.4 839.4,402.0 839.4,400.2 839.4,400.6 839.4,399.5 839.4,398.7 839.4,397.9 839.4,397.2 839.4,396.4 839.4,396.8 839.4,395.6 839.4,394.8 839.5,394.1 839.5,393.3 839.5,393.7 839.5,394.3 839.5,395.2 839.5,392.6 839.5,393.0 839.5,393.6 839.5,391.8 839.6,391.1 839.6,390.3 839.6,389.5 839.6,389.9 839.6,388.8 839.6,389.2 839.6,388.0 839.6,387.2 839.6,387.6 839.7,388.2 839.7,389.1 839.7,390.5 839.7,390.9 839.7,391.5 839.9,389.7 839.9,390.1 839.9,388.9 839.9,389.3 840.0,390.0 840.0,390.9 840.0,388.2 840.0,387.4 840.0,386.7 840.0,385.9 840.0,386.3 840.0,385.1 840.0,384.4 840.0,383.6 840.0,382.8 840.0,383.2 840.0,383.8 840.1,382.0 840.1,382.5 840.1,383.1 840.1,381.3 840.1,380.5 840.1,379.7 840.1,380.1 840.1,379.0 840.2,379.4 840.2,378.2 840.2,377.4 840.2,377.8 840.2,376.6 840.2,377.0 840.2,375.9 840.2,376.3 840.3,375.1 840.3,374.3 840.3,373.6 840.4,372.8 840.4,373.2 840.4,373.8 840.4,374.6 840.5,376.0 840.5,376.4 840.5,375.2 840.5,375.6 840.5,374.4 840.6,373.7 840.6,372.9 840.7,372.1 840.7,372.5 840.7,371.3 840.7,371.7 840.7,370.6 840.7,369.8 840.7,369.1 840.7,368.3 840.8,367.5 840.8,366.7 840.8,367.1 840.8,367.7 840.8,368.6 840.8,366.0 840.8,366.4 840.8,367.0 840.8,365.3 840.8,365.6 840.8,366.2 840.8,367.1 840.8,368.5 840.9,368.8 840.9,369.4 840.9,370.3 840.9,367.7 841.0,367.0 841.0,367.4 841.0,368.0 841.0,368.9 841.1,370.2 841.1,369.4 841.1,369.8 841.1,370.4 841.2,368.7 841.2,369.1 841.2,369.7 841.2,370.6 841.2,371.9 841.2,371.2 841.2,370.4 841.2,370.8 841.2,371.4 841.3,372.3 841.3,369.7 841.3,368.9 841.3,369.3 841.3,369.9 841.4,370.8 841.5,368.2 841.5,367.4 841.5,367.8 841.6,366.7 841.6,367.1 841.6,367.7 841.6,365.9 841.7,365.1 841.7,365.5 841.8,364.4 841.8,364.8 841.8,363.6 841.8,364.0 841.8,362.8 841.9,362.1 841.9,362.5 841.9,363.1 841.9,361.3 841.9,361.7 841.9,360.5 841.9,360.9 841.9,359.8 842.0,359.0 842.0,358.2 842.0,357.5 842.0,356.7 842.0,355.9 842.0,356.3 842.0,356.9 842.0,357.8 842.1,355.2 842.1,354.4 842.1,354.8 842.1,355.4 842.1,353.7 842.1,354.1 842.1,354.7 842.1,355.6 842.1,356.9 842.2,356.2 842.2,356.6 842.2,357.2 842.3,355.4 842.3,354.6 842.3,355.0 842.3,353.9 842.3,354.3 842.3,353.1 842.3,353.5 842.3,352.3 842.3,351.5 842.3,351.9 842.3,350.8 842.3,351.2 842.3,351.8 842.3,350.0 842.3,349.3 842.3,349.7 842.3,348.5 842.3,348.9 842.3,347.7 842.3,346.9 842.4,347.3 842.4,347.9 842.4,346.2 842.5,345.4 842.5,345.8 842.5,344.7 842.5,343.9 842.5,343.1 842.5,343.5 842.5,342.3 842.5,341.5 842.5,341.9 842.5,342.5 842.5,340.8 842.5,340.0 842.5,339.2 842.5,339.6 842.5,338.5 842.6,337.7 842.6,338.1 842.6,336.9 842.6,336.2 842.6,336.6 842.6,337.1 842.6,335.4 842.6,334.6 842.6,333.9 842.6,334.3 842.6,333.1 842.6,333.5 842.6,332.3 842.6,331.6 842.6,332.0 842.6,332.6 842.6,330.8 842.6,331.2 842.6,331.8 842.6,330.1 842.7,329.3 842.7,328.5 842.7,327.7 842.7,328.1 842.7,328.7 842.7,329.6 842.7,330.9 842.7,331.3 842.8,331.9 842.8,332.8 842.9,334.2 842.9,333.4 842.9,332.6 842.9,331.9 842.9,332.3 842.9,332.9 842.9,333.8 842.9,335.1 842.9,335.5 842.9,334.3 842.9,333.6 843.0,334.0 843.0,334.6 843.0,332.8 843.0,332.1 843.0,331.3 843.0,331.7 843.0,330.5 843.0,329.8 843.0,330.1 843.0,329.0 843.1,329.4 843.1,328.2 843.1,327.5 843.1,327.9 843.1,326.7 843.2,325.9 843.2,325.1 843.2,324.3 843.2,324.7 843.2,323.6 843.2,322.8 843.2,323.2 843.2,322.0 843.2,321.2 843.2,320.5 843.2,320.9 843.2,319.7 843.2,318.9 843.2,319.3 843.2,318.1 843.3,317.4 843.4,316.6 843.4,315.8 843.4,316.2 843.4,316.8 843.4,315.1 843.4,314.3 843.5,313.5 843.5,313.9 843.5,314.5 843.5,315.4 843.5,312.8 843.5,313.2 843.5,312.0 843.5,311.3 843.5,311.7 843.5,310.5 843.5,310.9 843.5,309.7 843.5,308.9 843.5,309.3 843.5,310.0 843.6,308.2 843.6,308.6 843.6,307.4 843.6,307.8 843.6,306.6 843.6,307.0 843.6,305.9 843.6,305.1 843.6,304.3 843.6,303.5 843.6,302.8 843.6,303.2 843.6,302.0 843.6,301.2 843.6,300.5 843.6,300.8 843.6,299.7 843.7,298.9 843.7,299.3 843.7,298.1 843.7,298.5 843.7,297.4 843.7,296.6 843.7,297.0 843.7,295.8 843.7,295.1 843.7,295.5 843.7,294.3 843.7,294.7 843.7,293.5 843.7,292.8 843.7,293.2 843.7,292.0 843.7,292.4 843.7,291.2 843.7,291.6 843.7,290.5 843.8,290.9 843.8,289.7 843.8,290.1 843.8,288.9 843.8,288.1 843.8,287.4 843.8,287.8 843.8,286.6 843.8,285.8 843.8,286.2 843.8,285.1 843.8,285.5 843.8,286.1 843.8,284.3 843.8,284.7 843.8,283.5 843.8,283.9 843.9,284.5 843.9,285.4 843.9,282.8 843.9,283.2 843.9,283.8 843.9,282.1 843.9,281.3 843.9,281.7 843.9,282.3 843.9,280.5 843.9,279.7 843.9,279.0 844.0,278.2 844.0,277.4 844.0,277.8 844.0,278.4 844.0,276.7 844.0,277.1 844.0,275.9 844.0,275.1 844.0,274.3 844.0,274.7 844.0,273.6 844.0,272.8 844.0,272.0 844.0,271.2 844.1,271.6 844.1,272.2 844.1,273.1 844.1,274.4 844.1,274.8 844.1,275.4 844.1,276.3 844.1,277.7 844.1,276.9 844.2,276.1 844.2,275.4 844.2,274.6 844.2,275.0 844.2,273.8 844.2,274.2 844.2,273.1 844.2,272.3 844.2,271.5 844.2,270.7 844.3,271.2 844.3,270.0 844.3,269.2 844.3,268.4 844.3,268.8 844.3,267.7 844.3,266.9 844.3,266.1 844.3,265.4 844.3,265.7 844.3,264.6 844.3,265.0 844.3,263.8 844.3,263.0 844.3,262.3 844.3,262.7 844.3,261.5 844.3,260.7 844.4,261.1 844.4,261.7 844.4,262.6 844.4,263.9 844.4,264.3 844.4,263.2 844.4,262.4 844.4,262.8 844.4,263.4 844.4,264.2 844.4,261.7 844.4,262.0 844.4,260.9 844.4,261.3 844.5,261.9 844.5,260.1 844.5,260.5 844.5,259.4 844.5,258.6 844.5,257.8 844.5,258.2 844.5,258.8 844.5,257.1 844.5,257.5 844.5,256.3 844.5,255.5 844.6,255.9 844.6,254.8 844.6,254.0 844.6,253.2 844.6,252.5 844.6,251.7 844.6,250.9 844.8,250.1 844.8,250.5 844.8,249.4 844.8,249.8 844.8,248.6 844.8,247.8 844.8,248.3 844.8,247.1 844.8,247.5 844.8,246.3 844.8,246.7 844.8,245.6 844.8,246.0 844.8,246.5 844.8,247.4 844.8,248.8 844.8,249.2 844.8,249.7 844.8,248.0 844.8,248.4 844.8,247.3 844.8,247.7 844.8,246.5 844.8,246.9 844.8,245.7 844.9,245.0 844.9,244.2 844.9,243.4 844.9,242.6 844.9,243.0 844.9,241.9 844.9,242.3 844.9,242.9 844.9,241.1 844.9,241.5 845.0,240.3 845.0,239.6 845.0,240.0 845.0,240.6 845.1,238.8 845.1,239.2 845.1,239.8 845.1,240.7 845.1,242.1 845.1,241.3 845.1,240.5 845.1,240.9 845.1,239.7 845.2,240.1 845.2,239.0 845.2,239.4 845.2,238.2 845.2,237.4 845.3,237.8 845.3,238.4 845.3,236.7 845.3,235.9 845.3,236.3 845.4,236.9 845.4,237.8 845.4,239.2 845.4,239.6 845.4,240.1 845.4,241.0 845.4,238.4 845.4,238.8 845.4,239.4 845.4,240.3 845.4,241.6 845.5,242.0 845.5,240.9 845.5,241.3 845.5,241.9 845.5,242.7 845.6,240.1 845.6,240.5 845.6,241.2 845.6,239.4 845.6,239.8 845.6,238.6 845.7,239.0 845.7,237.9 845.7,238.3 845.7,238.9 845.7,239.8 845.7,237.1 845.7,237.5 845.7,236.4 845.7,236.8 845.7,235.6 845.8,234.8 845.8,234.1 845.8,234.5 845.8,233.3 845.8,232.5 845.8,232.9 845.9,233.5 845.9,234.4 845.9,231.8 845.9,232.2 845.9,231.0 845.9,231.4 845.9,232.0 845.9,230.3 846.0,230.7 846.0,231.3 846.0,229.5 846.0,228.8 846.0,229.2 846.0,228.0 846.0,227.2 846.0,226.4 846.0,226.8 846.0,225.7 846.0,224.9 846.0,225.3 846.0,225.9 846.0,224.1 846.1,224.5 846.1,225.1 846.1,223.4 846.1,222.6 846.1,223.0 846.1,221.8 846.1,221.1 846.1,220.3 846.1,220.7 846.1,219.5 846.2,219.9 846.2,220.5 846.2,221.4 846.2,218.8 846.2,219.2 846.2,219.8 846.2,220.7 846.2,218.1 846.2,217.3 846.5,217.7 846.5,216.6 846.5,215.8 846.5,216.2 846.7,215.0 846.7,214.3 846.7,214.7 846.7,215.3 846.8,213.5 847.0,213.9 847.0,214.5 847.0,215.4 847.0,212.8 847.0,213.2 847.0,212.0 847.0,212.4 847.1,213.0 847.1,213.9 847.1,215.3 847.1,215.7 847.1,216.2 847.1,217.1 847.1,218.5 847.1,218.9 847.1,219.5 847.2,220.4 847.2,217.7 847.2,216.9 847.2,216.2 847.2,216.6 847.2,217.2 847.2,218.0 847.2,219.4 847.2,219.8 847.2,220.4 847.2,218.6 847.2,217.8 847.2,218.2 847.2,217.1 847.2,216.3 847.2,215.5 847.3,215.9 847.3,214.8 847.3,215.2 847.3,215.8 847.3,216.7 847.3,214.0 847.3,213.3 847.4,213.7 847.4,212.5 847.4,211.7 847.4,210.9 847.4,211.3 847.4,210.2 847.4,209.4 847.4,209.8 847.4,208.7 847.4,209.1 847.4,209.6 847.4,210.5 847.4,207.9 847.4,208.3 847.4,207.2 847.4,206.4 847.5,206.8 847.5,205.6 847.5,206.0 847.6,204.8 847.7,204.1 847.8,204.5 847.8,205.1 847.8,206.0 847.8,207.3 847.8,207.7 847.8,208.3 847.8,209.2 847.8,210.6 847.8,211.0 847.9,209.8 847.9,210.2 847.9,209.1 847.9,208.3 847.9,207.5 847.9,206.7 847.9,206.0 847.9,205.2 847.9,205.6 847.9,206.2 847.9,204.4 847.9,203.7 848.0,204.1 848.0,202.9 848.0,203.3 848.0,203.9 848.0,204.8 848.0,202.2 848.0,202.6 848.0,201.4 848.1,201.8 848.1,202.4 848.1,203.3 848.1,200.7 848.1,199.9 848.1,200.3 848.1,200.9 848.1,199.2 848.1,198.4 848.1,198.8 848.1,199.4 848.1,197.7 848.1,196.9 848.1,197.3 848.2,196.1 848.2,196.5 848.2,197.1 848.2,198.0 848.2,199.4 848.2,198.6 848.2,199.0 848.2,199.6 848.2,197.8 848.2,197.1 848.2,196.3 848.2,196.7 848.2,197.3 848.2,195.5 848.2,195.9 848.3,194.8 848.3,195.2 848.3,194.0 848.3,193.2 848.3,192.5 848.3,191.7 848.3,192.1 848.3,190.9 848.4,191.3 848.4,191.9 848.4,192.8 848.4,194.1 848.4,194.5 848.4,193.4 848.4,192.6 848.4,193.0 848.4,193.6 848.4,194.5 848.4,191.9 848.4,192.3 848.4,192.8 848.4,191.1 848.4,191.5 848.4,190.3 848.5,190.7 848.5,189.6 848.5,190.0 848.5,188.8 848.5,188.0 848.5,187.3 848.5,187.7 848.5,186.5 848.6,186.9 848.6,185.7 848.6,186.1 848.6,185.0 848.6,185.4 848.6,186.0 848.6,186.9 848.7,188.2 848.7,187.5 848.7,187.9 848.7,188.5 848.7,186.7 848.7,185.9 848.7,185.2 848.7,185.6 848.7,184.4 848.7,184.8 848.8,185.4 848.8,186.3 848.8,187.7 848.8,188.1 848.8,188.7 848.8,189.6 848.8,186.9 848.9,187.3 848.9,186.2 848.9,186.6 848.9,187.2 848.9,188.1 848.9,189.4 848.9,189.8 848.9,190.4 848.9,191.3 848.9,192.7 848.9,191.9 849.0,191.1 849.0,190.3 849.0,190.7 849.0,189.6 849.0,188.8 849.0,188.0 849.0,187.2 849.0,187.6 849.0,186.5 849.0,186.9 849.0,187.5 849.0,188.4 849.0,189.7 849.0,190.1 849.0,190.7 849.0,191.6 849.2,189.0 849.2,189.4 849.2,188.2 849.3,188.6 849.3,189.2 849.3,187.5 849.3,187.9 849.3,188.5 849.3,186.7 849.4,187.1 849.4,186.0 849.4,185.2 849.4,185.6 849.4,184.4 849.4,184.8 849.4,183.7 849.4,182.9 849.4,182.1 849.4,182.5 849.4,183.1 849.4,184.0 849.4,185.3 849.5,184.5 849.5,184.9 849.5,183.8 849.5,183.0 849.5,182.2 849.5,181.4 849.6,181.8 849.6,182.4 849.6,180.7 849.6,181.1 849.6,181.7 849.6,182.6 849.6,183.9 849.6,184.3 849.6,183.2 849.6,183.6 849.7,184.2 849.7,185.1 849.7,186.4 849.7,186.8 849.7,185.6 849.7,184.9 849.7,185.3 849.7,185.9 849.7,184.1 849.7,183.3 849.7,183.7 849.7,182.6 849.7,183.0 849.7,181.8 849.7,182.2 849.7,181.0 849.8,180.3 849.8,180.7 849.8,181.2 849.8,182.1 849.8,179.5 849.8,178.8 849.8,179.2 849.8,179.8 849.8,180.6 849.8,182.0 849.8,181.2 849.9,181.6 849.9,180.5 849.9,179.7 849.9,178.9 849.9,179.3 849.9,179.9 850.0,178.1 850.0,177.4 850.0,177.8 850.0,176.6 850.0,177.0 850.0,175.8 850.0,175.0 850.0,175.4 850.1,176.0 850.1,174.3 850.1,174.7 850.1,173.5 850.1,173.9 850.1,174.5 850.1,172.8 850.1,172.0 850.1,171.2 850.1,171.6 850.1,172.2 850.1,170.5 850.1,169.7 850.1,170.1 850.2,170.7 850.2,171.6 850.2,172.9 850.2,173.3 850.2,172.1 850.2,172.5 850.2,171.4 850.2,170.6 850.2,171.0 850.2,171.6 850.3,172.5 850.3,173.8 850.3,173.1 850.5,172.3 850.5,171.5 850.6,171.9 850.6,172.5 850.6,170.8 850.6,170.0 850.6,170.4 850.6,169.2 850.6,169.6 850.6,170.2 850.6,168.5 850.7,168.9 850.7,169.4 850.7,167.7 850.7,168.1 850.8,168.7 850.8,167.0 850.8,167.4 850.8,168.0 850.8,168.9 850.8,170.2 850.8,170.6 850.9,169.5 850.9,169.9 850.9,168.7 850.9,169.1 850.9,167.9 850.9,167.1 850.9,167.6 850.9,166.4 851.0,166.8 851.0,167.4 851.0,168.2 851.0,169.6 851.0,168.8 851.0,169.2 851.0,169.8 851.0,170.7 851.0,168.1 851.0,167.3 851.1,167.7 851.1,166.5 851.1,165.8 851.1,165.0 851.1,165.4 851.1,166.0 851.2,166.9 851.2,168.2 851.2,168.6 851.2,167.4 851.2,167.8 851.2,166.7 851.3,167.1 851.4,165.9 851.4,166.3 851.4,166.9 851.4,165.2 851.4,165.6 851.4,166.1 851.4,164.4 851.4,164.8 851.4,163.7 851.4,164.1 851.4,162.9 851.5,163.3 851.5,162.1 851.5,162.5 851.5,163.1 851.5,164.0 851.5,165.3 851.5,165.7 851.5,166.3 851.5,167.2 851.5,168.5 851.5,168.9 851.5,169.5 851.5,167.8 851.5,168.2 851.6,167.0 851.6,167.4 851.6,166.3 851.7,166.6 851.7,167.2 851.7,168.1 851.7,169.5 851.8,169.8 851.8,168.7 851.8,169.1 851.8,169.7 851.8,170.6 851.8,172.0 851.8,172.3 851.8,171.2 851.8,171.6 851.9,172.2 851.9,173.1 851.9,170.5 851.9,169.7 851.9,168.9 851.9,168.2 851.9,167.4 852.0,166.6 852.0,165.8 852.0,166.2 852.0,166.8 852.0,167.7 852.0,165.1 852.0,165.5 852.0,166.1 852.0,167.0 852.0,168.3 852.0,167.5 852.1,167.9 852.1,166.8 852.1,166.0 852.1,165.2 852.1,165.6 852.1,166.2 852.1,164.5 852.1,164.9 852.1,163.7 852.1,164.1 852.1,162.9 852.2,163.3 852.2,162.2 852.2,162.6 852.2,163.2 852.2,161.4 852.2,160.6 852.2,161.0 852.2,161.6 852.2,162.5 852.2,163.9 852.2,164.3 852.2,163.1 852.2,163.5 852.2,164.1 852.2,165.0 852.2,162.4 852.2,161.6 852.2,160.9 852.3,161.3 852.3,160.1 852.3,160.5 852.4,161.1 852.4,159.3 852.4,158.6 852.4,157.8 852.5,158.2 852.5,157.0 852.6,157.4 852.6,156.3 852.6,156.6 852.6,157.2 852.6,158.1 852.6,155.5 852.6,154.8 852.7,155.2 852.7,155.8 852.7,156.7 852.7,154.0 852.7,153.2 852.7,153.6 852.7,152.5 852.7,152.9 852.7,151.7 852.8,150.9 852.8,151.3 852.8,151.9 852.8,152.8 852.8,154.1 852.9,154.5 852.9,153.4 852.9,153.8 852.9,154.4 852.9,152.6 852.9,151.9 853.0,151.1 853.0,150.3 853.0,150.7 853.0,151.3 853.0,152.2 853.0,153.5 853.0,152.7 853.1,151.9 853.2,152.3 853.2,151.2 853.2,151.6 853.2,150.4 853.2,150.8 853.2,149.6 853.2,150.0 853.2,150.6 853.2,148.9 853.2,149.3 853.2,149.9 853.2,148.1 853.2,147.4 853.2,147.8 853.3,146.6 853.3,147.0 853.3,145.8 853.3,146.2 853.3,146.8 853.5,147.7 853.5,145.1 853.5,145.5 853.5,146.1 853.5,147.0 853.5,148.3 853.5,147.5 853.5,147.9 853.5,146.8 853.5,146.0 853.6,146.4 853.6,145.2 853.6,145.6 853.6,146.2 853.6,147.2 853.6,148.5 853.6,148.9 853.6,149.5 853.6,150.4 853.6,151.8 853.6,152.2 853.6,151.0 853.7,151.4 853.7,150.2 853.7,150.6 853.7,149.5 853.8,149.9 853.8,150.5 853.8,148.7 853.8,149.1 853.8,148.0 853.8,147.2 853.8,146.4 853.8,146.8 853.8,145.7 853.9,144.9 853.9,144.1 854.0,144.5 854.0,145.1 854.0,143.4 854.0,143.8 854.0,142.6 854.0,141.9 854.0,142.3 854.0,142.8 854.0,143.7 854.0,145.1 854.1,145.4 854.1,146.0 854.1,146.9 854.1,144.3 854.1,144.7 854.1,145.3 854.1,143.6 854.1,142.8 854.1,142.0 854.1,141.2 854.1,140.5 854.1,139.7 854.2,138.9 854.2,139.3 854.2,138.2 854.3,138.6 854.3,137.4 854.3,136.6 854.3,137.0 854.3,135.8 854.3,135.1 854.3,134.3 854.3,134.7 854.3,133.6 854.3,132.8 854.4,132.0 854.4,132.4 854.4,133.0 854.4,131.3 854.4,131.7 854.4,132.3 854.4,133.2 854.4,134.5 854.4,134.9 854.4,135.5 854.4,136.4 854.4,133.8 854.4,133.0 854.4,133.4 854.4,132.2 854.4,132.6 854.5,133.2 854.5,131.5 854.5,130.7 854.5,131.1 854.5,131.7 854.5,132.6 854.5,130.0 854.5,130.4 854.5,129.2 854.5,129.6 854.5,128.4 854.5,128.8 854.5,127.7 854.6,128.1 854.6,128.7 854.6,129.6 854.6,130.9 854.7,130.2 854.7,129.4 854.7,129.8 854.7,128.6 854.7,127.8 854.7,128.2 854.7,128.8 854.7,129.7 854.8,131.1 854.8,131.5 854.8,130.3 854.8,130.7 854.8,129.6 854.8,130.0 854.8,130.6 854.8,131.4 854.8,132.8 854.8,132.0 854.9,131.2 854.9,131.6 854.9,132.2 854.9,133.1 854.9,134.4 854.9,134.8 854.9,135.4 854.9,136.3 854.9,133.7 854.9,134.1 854.9,132.9 854.9,132.1 854.9,131.3 855.0,130.6 855.0,131.0 855.0,131.6 855.0,129.8 855.0,129.0 855.0,129.4 855.0,130.0 855.0,130.9 855.0,128.3 855.0,128.7 855.0,129.3 855.0,130.2 855.0,131.5 855.0,131.9 855.1,132.5 855.1,133.4 855.1,134.8 855.1,134.0 855.1,134.4 855.1,135.0 855.1,135.9 855.2,137.3 855.2,136.5 855.2,135.7 855.2,136.1 855.2,136.7 855.2,137.6 855.2,139.0 855.2,138.2 855.3,137.5 855.3,136.7 855.3,137.1 855.3,137.7 855.3,138.6 855.3,139.9 855.4,140.3 855.4,140.9 855.4,139.2 855.4,139.6 855.4,138.4 855.4,138.8 855.5,137.7 855.5,136.9 855.5,137.3 855.5,136.1 855.5,135.3 855.5,134.6 855.5,133.8 855.5,134.2 855.5,134.8 855.5,135.7 855.6,137.0 855.6,136.2 855.6,136.6 855.6,137.2 855.6,138.1 855.6,135.5 855.6,135.9 855.6,134.7 855.6,135.1 855.6,135.7 855.6,136.6 855.6,138.0 855.6,138.4 855.7,137.2 855.7,137.6 855.7,138.2 855.7,136.5 855.7,136.8 855.7,137.4 855.7,138.3 855.7,135.7 855.7,136.1 855.7,136.7 855.7,137.6 855.7,135.0 855.8,135.4 855.8,136.0 855.8,136.9 855.8,138.2 855.8,138.6 855.8,137.4 855.8,137.8 855.8,136.6 855.8,135.9 855.9,136.3 855.9,135.1 855.9,134.3 855.9,134.7 855.9,133.6 855.9,134.0 855.9,134.6 855.9,132.8 856.0,133.2 856.0,132.1 856.0,132.5 856.0,131.3 856.1,131.7 856.1,130.5 856.1,130.9 856.1,129.8 856.1,129.0 856.1,128.2 856.1,127.4 856.1,126.7 856.1,125.9 856.1,125.1 856.2,124.4 856.2,123.6 856.2,122.8 856.2,122.0 856.2,121.3 856.2,121.7 856.2,122.3 856.2,123.2 856.2,124.5 856.2,123.8 856.2,124.2 856.2,124.7 856.2,125.6 856.2,123.0 856.2,123.4 856.2,122.3 856.2,122.7 856.3,121.5 856.3,120.7 856.3,120.0 856.3,119.2 856.3,118.4 856.3,117.6 856.4,118.0 856.4,118.6 856.4,116.9 856.4,117.3 856.4,117.9 856.4,118.8 856.4,120.1 856.4,120.5 856.4,121.1 856.5,119.4 856.5,119.8 856.5,120.4 856.5,121.3 856.5,122.6 856.5,123.0 856.5,121.9 856.6,122.3 856.6,121.1 856.6,121.5 856.6,122.1 856.6,123.0 856.6,124.4 856.6,124.8 856.6,125.4 856.6,126.3 856.7,123.7 856.7,124.1 856.7,124.7 856.7,122.9 856.7,123.3 856.7,122.2 856.7,122.6 856.7,121.4 856.7,121.8 856.7,120.6 856.7,119.8 856.7,119.1 856.8,118.3 856.8,118.7 856.8,119.3 856.8,117.6 856.8,117.9 856.9,116.8 856.9,117.2 856.9,117.8 856.9,118.7 856.9,120.0 857.0,120.4 857.0,119.2 857.0,118.5 857.0,118.9 857.0,117.7 857.0,116.9 857.0,116.1 857.0,116.5 857.0,117.1 857.0,118.0 857.0,119.3 857.0,118.6 857.0,119.0 857.1,117.8 857.1,117.0 857.1,117.4 857.1,118.0 857.1,116.3 857.2,116.7 857.2,117.2 857.2,118.1 857.2,119.5 857.2,119.9 857.3,118.7 857.3,119.1 857.3,119.7 857.3,120.6 857.3,121.9 857.3,122.3 857.3,122.9 857.4,123.8 857.4,125.1 857.4,125.5 857.4,126.1 857.4,127.0 857.4,128.3 857.4,127.6 857.4,128.0 857.4,128.6 857.4,129.5 857.4,130.8 857.4,131.2 857.4,131.8 857.5,132.7 857.5,134.1 857.5,134.5 857.5,133.3 857.5,133.7 857.5,134.3 857.5,135.2 857.5,136.6 857.5,137.0 857.5,137.6 857.5,138.5 857.5,139.9 857.5,139.1 857.5,139.5 857.5,140.1 857.6,141.0 857.6,142.3 857.6,141.6 857.6,142.0 857.7,142.6 857.7,143.5 857.7,140.8 857.8,141.2 857.8,140.1 857.8,140.5 857.8,141.1 857.8,142.0 857.9,143.3 857.9,143.7 857.9,144.3 857.9,145.2 857.9,146.6 857.9,147.0 857.9,147.6 857.9,148.5 857.9,149.9 857.9,149.1 857.9,148.3 858.0,148.7 858.0,149.3 858.0,150.2 858.1,147.6 858.2,146.8 858.2,146.0 858.2,146.4 858.2,147.0 858.2,147.9 858.3,145.3 858.3,145.7 858.4,146.3 858.4,147.2 858.4,148.5 858.5,148.9 858.5,149.5 858.6,150.4 858.6,151.7 858.6,152.1 858.6,152.7 858.6,153.6 858.6,155.0 858.7,155.4 858.7,154.2 858.7,153.4 858.9,152.6 858.9,153.0 858.9,153.6 858.9,154.5 858.9,155.9 858.9,156.3 858.9,156.9 858.9,157.8 858.9,159.2 859.0,159.6 859.1,158.4 859.1,157.6 859.1,158.0 859.1,156.9 859.1,156.1 859.1,156.5 859.1,157.1 859.1,155.3 859.1,154.5 859.1,153.8 859.1,154.2 859.1,154.7 859.1,155.6 859.1,157.0 859.2,157.4 859.2,157.9 859.2,158.8 859.2,156.2 859.2,156.6 859.2,157.2 859.2,158.1 859.2,159.5 859.2,158.7 859.2,158.0 859.2,158.3 859.2,158.9 859.4,157.2 859.5,157.6 859.5,158.2 859.5,159.1 859.5,160.4 859.6,159.6 859.6,158.9 859.6,159.3 859.8,159.9 859.8,160.7 860.1,162.1 860.1,162.5 860.2,163.1 860.2,164.0 860.3,165.3 860.3,165.7 860.3,166.3 860.3,167.2 860.3,168.5 860.8,168.9 860.9,169.5 860.9,167.8 861.2,167.0 861.3,167.4 861.3,168.0 861.4,168.9 861.4,166.3 861.4,166.7 861.9,165.5 862.0,165.9 862.2,166.5 862.4,164.8 862.4,165.2 862.5,165.7 862.6,166.6 862.6,168.0 862.7,168.4 863.0,168.9 863.0,169.8 863.0,171.2 863.1,171.6 863.1,170.4 863.1,169.6 863.1,168.8 863.2,168.1 863.2,167.3 863.7,166.5 863.8,165.7 863.8,166.2 863.8,166.8 863.8,167.7 863.8,169.0 863.8,169.4 863.8,170.0 863.8,170.9 863.9,172.3 864.2,171.5 864.2,171.9 864.3,172.5 864.3,173.4 864.4,174.7 864.5,175.1 864.5,175.8 864.5,176.7 864.9,178.0 864.9,178.4 865.0,177.2 865.3,177.6 865.6,176.5 866.0,176.9 866.0,175.7 866.1,174.9 866.2,175.3 866.2,174.1 866.2,174.5 866.2,175.1 866.2,176.0 866.2,177.3 866.2,177.7 866.3,178.3 866.3,179.2 866.3,176.6 866.3,177.0 866.3,177.6 866.3,178.5 866.4,175.9 866.4,176.3 866.4,176.9 866.7,175.1 866.7,175.5 866.7,176.1 866.9,174.4 867.4,173.6 868.0,172.8 868.0,173.2 868.3,173.8 868.3,172.1 868.3,172.5 868.4,173.1 868.4,174.0 868.5,175.3 868.5,175.7 868.5,176.3 869.1,174.6 869.1,175.0 869.1,175.6 869.1,176.5 869.1,177.8 869.1,178.2 869.2,177.1 869.2,176.3 869.2,176.7 869.3,177.3 869.5,175.5 869.5,175.9 869.5,176.5 869.5,177.4 869.6,174.8 869.6,175.2 869.6,175.8 869.7,176.7 869.7,178.1 869.7,178.5 869.7,177.3 869.7,177.7 869.8,178.3 870.7,176.6 871.0,177.0 871.1,177.6 871.2,178.5 872.2,175.8 872.3,175.0 872.3,175.4 872.3,176.0 872.3,176.9 872.5,174.3 872.6,173.5 872.6,173.9 872.7,174.5 872.7,175.4 872.7,176.7 872.8,177.1 872.8,177.7 872.9,178.6 873.1,180.0 873.1,180.4 873.1,181.0 873.1,181.8 873.2,183.2 873.5,183.6 873.5,184.2 873.5,185.1 873.6,186.4 873.7,186.8 874.6,187.4 875.7,185.7 875.7,184.9 875.7,185.3 875.7,185.9 875.8,186.8 875.8,188.2 875.9,188.6 876.2,189.2 876.6,190.1 877.8,187.4 877.8,187.8 877.8,188.4 878.1,189.3 878.1,190.7 878.5,191.1 878.6,191.7 878.6,189.9 878.6,189.2 878.7,189.5 878.7,190.1 878.8,191.0 878.8,192.4 879.1,191.6 879.1,190.8 879.1,191.2 879.1,191.8 879.1,192.7 879.2,194.1 879.2,193.3 879.2,192.5 879.7,191.7 880.5,192.1 880.6,192.7 880.7,193.6 881.7,195.0 882.2,194.2 882.4,193.4 882.4,193.8 883.5,194.4 883.5,195.3 883.5,196.7 884.4,197.1 884.4,195.9 884.4,196.3 884.4,196.9 884.4,197.8 884.4,199.2 884.4,199.6 884.5,200.2 884.5,198.5 884.6,197.7 885.0,196.9 885.1,196.1 885.1,196.5 885.5,197.1 885.6,198.0 886.5,199.4 887.0,199.8 887.0,200.4 887.0,201.3 887.0,202.6 887.6,203.1 887.6,203.7 890.2,201.9 890.3,201.1 890.6,201.5 890.6,202.1 891.5,203.0 891.6,200.4 891.6,199.6 891.6,200.0 891.6,200.6 891.8,198.8 891.9,199.3 892.3,199.9 893.8,198.1 894.4,198.5 894.5,199.1 895.8,197.3 896.1,196.6 896.3,195.8 897.0,196.2 897.1,196.8 899.6,197.7 899.7,199.0 899.8,199.4 900.5,200.0 900.7,200.9 901.1,202.2 901.1,202.6 901.5,203.2 901.6,204.1 906.4,205.5 908.1,205.9 911.8,204.7 911.8,205.1 911.9,205.7 911.9,206.7 911.9,208.0 912.0,208.4 912.2,209.0 912.3,209.9 912.3,211.2 912.6,211.6 913.7,210.4 913.8,210.8 913.8,211.4 914.2,212.3 914.2,213.6 914.3,214.0 914.3,214.6 914.7,215.5 917.3,216.9 931.4,216.1 931.4,216.5 931.4,217.1 931.4,468.0" fill="#16a34a" fill-opacity="0.08"/>
  <polyline points="190.7,465.8 190.7,466.0 198.0,466.2 465.0,465.5 611.8,465.7 625.9,465.1 631.2,464.7 687.2,464.2 712.1,464.5 713.2,464.9 759.5,465.6 773.3,463.7 773.5,464.0 773.7,464.5 822.6,465.2 823.4,463.1 824.8,462.4 824.9,461.6 825.0,462.0 826.4,462.6 826.8,460.9 826.8,460.1 826.8,460.5 826.8,461.1 826.9,462.0 827.5,463.3 827.6,463.7 827.6,464.2 827.6,465.0 827.6,466.2 828.2,465.9 834.2,466.1 834.5,465.6 834.8,465.8 834.9,465.3 834.9,464.9 835.0,464.4 835.1,463.9 835.1,464.2 835.1,463.3 835.1,462.6 835.3,463.0 835.3,463.6 835.5,464.5 835.5,461.8 835.5,461.1 835.5,461.5 835.5,460.3 835.5,459.5 835.6,459.9 835.6,460.5 835.6,461.4 835.6,462.8 835.6,462.0 835.6,461.2 835.7,461.6 835.7,462.2 835.7,463.1 835.7,460.5 835.7,459.7 835.7,458.9 835.7,459.3 835.7,460.0 835.7,460.9 835.7,462.2 835.7,461.4 835.8,460.7 835.8,461.1 835.8,459.9 835.9,459.1 835.9,459.5 836.0,460.1 836.0,461.0 836.3,462.3 836.3,462.7 836.3,461.5 836.4,460.8 836.5,461.2 836.6,460.0 836.6,460.4 836.7,459.2 836.7,459.6 836.7,460.2 836.8,458.5 836.8,458.9 836.8,459.5 836.9,460.4 836.9,457.7 836.9,458.1 836.9,456.9 836.9,457.3 836.9,457.9 836.9,458.8 837.0,460.1 837.0,459.4 837.0,459.8 837.0,460.3 837.0,461.2 837.0,462.6 837.0,463.0 837.1,461.8 837.1,462.2 837.2,461.0 837.2,460.2 837.2,460.6 837.3,461.2 837.3,459.5 837.4,458.7 837.4,459.1 837.4,459.7 837.4,460.6 837.4,458.0 837.4,457.2 837.5,456.4 837.5,456.8 837.5,455.7 837.5,456.1 837.5,456.7 837.5,457.6 837.5,454.9 837.5,454.1 837.5,454.5 837.5,453.4 837.5,452.6 837.5,453.0 837.5,453.6 837.5,454.5 837.6,451.9 837.6,452.3 837.6,452.9 837.7,451.1 837.7,451.5 837.7,450.3 837.7,449.6 837.7,450.0 837.7,450.6 837.7,451.4 837.7,448.9 837.7,448.1 837.8,447.3 837.8,447.7 837.8,446.5 837.8,446.9 837.8,447.5 837.8,448.5 837.9,449.8 837.9,450.2 837.9,450.8 837.9,451.7 837.9,449.1 837.9,449.5 837.9,450.1 837.9,448.3 837.9,448.7 837.9,447.6 837.9,448.0 838.0,446.8 838.0,447.2 838.0,447.8 838.0,446.0 838.0,445.3 838.0,444.5 838.0,443.7 838.0,443.0 838.1,443.4 838.1,442.2 838.1,442.6 838.1,443.2 838.1,444.1 838.1,445.4 838.1,444.6 838.1,445.0 838.1,443.9 838.2,444.3 838.2,443.1 838.2,443.5 838.2,444.1 838.2,442.3 838.2,442.7 838.2,443.3 838.2,441.6 838.2,442.0 838.2,442.6 838.3,440.9 838.3,440.1 838.3,440.5 838.3,441.1 838.3,442.0 838.3,439.4 838.4,439.8 838.4,438.6 838.4,439.0 838.5,437.8 838.5,438.2 838.5,438.8 838.5,439.7 838.5,437.1 838.6,437.5 838.6,438.1 838.6,439.0 838.6,436.4 838.6,435.6 838.6,434.8 838.6,435.2 838.6,434.0 838.6,433.3 838.7,433.7 838.7,432.5 838.7,431.7 838.7,430.9 838.7,430.2 838.7,429.4 838.7,429.8 838.8,428.6 838.8,429.0 838.8,427.9 838.8,428.3 838.8,428.9 838.8,429.8 838.8,431.1 838.8,430.4 838.8,429.6 838.8,430.0 838.8,430.6 838.8,431.5 838.8,428.9 838.8,429.3 838.8,428.1 838.8,428.5 838.8,427.3 838.8,427.7 838.8,426.6 838.8,427.0 838.8,425.8 838.8,425.0 838.8,425.4 838.8,426.0 838.9,426.9 838.9,424.3 838.9,424.7 838.9,423.5 838.9,423.9 838.9,422.8 838.9,422.0 838.9,421.2 838.9,420.4 838.9,420.8 838.9,421.4 838.9,419.7 839.0,420.1 839.0,420.7 839.0,418.9 839.0,418.2 839.0,418.6 839.0,419.1 839.0,417.4 839.0,416.6 839.0,417.0 839.0,415.9 839.0,416.3 839.0,415.1 839.0,415.5 839.0,414.3 839.0,413.5 839.0,412.8 839.1,413.2 839.1,412.0 839.1,411.2 839.1,411.6 839.1,410.5 839.1,410.8 839.1,409.7 839.1,408.9 839.1,408.1 839.1,407.4 839.2,407.8 839.2,406.6 839.2,407.0 839.2,405.8 839.2,406.2 839.2,405.1 839.2,405.5 839.2,404.3 839.2,403.5 839.2,403.9 839.2,404.5 839.2,402.8 839.2,403.2 839.2,402.0 839.2,402.4 839.2,403.0 839.2,403.9 839.2,401.3 839.2,401.7 839.2,402.3 839.2,403.2 839.2,404.5 839.2,404.9 839.3,405.5 839.3,406.4 839.3,407.7 839.3,407.0 839.3,407.4 839.3,408.0 839.3,408.9 839.3,410.2 839.3,410.6 839.3,409.5 839.3,409.9 839.3,408.7 839.3,409.1 839.3,409.7 839.3,407.9 839.3,408.4 839.3,407.2 839.3,406.4 839.3,405.6 839.3,404.9 839.3,404.1 839.3,403.3 839.4,402.5 839.4,402.9 839.4,401.8 839.4,402.2 839.4,401.0 839.4,401.4 839.4,402.0 839.4,400.2 839.4,400.6 839.4,399.5 839.4,398.7 839.4,397.9 839.4,397.2 839.4,396.4 839.4,396.8 839.4,395.6 839.4,394.8 839.5,394.1 839.5,393.3 839.5,393.7 839.5,394.3 839.5,395.2 839.5,392.6 839.5,393.0 839.5,393.6 839.5,391.8 839.6,391.1 839.6,390.3 839.6,389.5 839.6,389.9 839.6,388.8 839.6,389.2 839.6,388.0 839.6,387.2 839.6,387.6 839.7,388.2 839.7,389.1 839.7,390.5 839.7,390.9 839.7,391.5 839.9,389.7 839.9,390.1 839.9,388.9 839.9,389.3 840.0,390.0 840.0,390.9 840.0,388.2 840.0,387.4 840.0,386.7 840.0,385.9 840.0,386.3 840.0,385.1 840.0,384.4 840.0,383.6 840.0,382.8 840.0,383.2 840.0,383.8 840.1,382.0 840.1,382.5 840.1,383.1 840.1,381.3 840.1,380.5 840.1,379.7 840.1,380.1 840.1,379.0 840.2,379.4 840.2,378.2 840.2,377.4 840.2,377.8 840.2,376.6 840.2,377.0 840.2,375.9 840.2,376.3 840.3,375.1 840.3,374.3 840.3,373.6 840.4,372.8 840.4,373.2 840.4,373.8 840.4,374.6 840.5,376.0 840.5,376.4 840.5,375.2 840.5,375.6 840.5,374.4 840.6,373.7 840.6,372.9 840.7,372.1 840.7,372.5 840.7,371.3 840.7,371.7 840.7,370.6 840.7,369.8 840.7,369.1 840.7,368.3 840.8,367.5 840.8,366.7 840.8,367.1 840.8,367.7 840.8,368.6 840.8,366.0 840.8,366.4 840.8,367.0 840.8,365.3 840.8,365.6 840.8,366.2 840.8,367.1 840.8,368.5 840.9,368.8 840.9,369.4 840.9,370.3 840.9,367.7 841.0,367.0 841.0,367.4 841.0,368.0 841.0,368.9 841.1,370.2 841.1,369.4 841.1,369.8 841.1,370.4 841.2,368.7 841.2,369.1 841.2,369.7 841.2,370.6 841.2,371.9 841.2,371.2 841.2,370.4 841.2,370.8 841.2,371.4 841.3,372.3 841.3,369.7 841.3,368.9 841.3,369.3 841.3,369.9 841.4,370.8 841.5,368.2 841.5,367.4 841.5,367.8 841.6,366.7 841.6,367.1 841.6,367.7 841.6,365.9 841.7,365.1 841.7,365.5 841.8,364.4 841.8,364.8 841.8,363.6 841.8,364.0 841.8,362.8 841.9,362.1 841.9,362.5 841.9,363.1 841.9,361.3 841.9,361.7 841.9,360.5 841.9,360.9 841.9,359.8 842.0,359.0 842.0,358.2 842.0,357.5 842.0,356.7 842.0,355.9 842.0,356.3 842.0,356.9 842.0,357.8 842.1,355.2 842.1,354.4 842.1,354.8 842.1,355.4 842.1,353.7 842.1,354.1 842.1,354.7 842.1,355.6 842.1,356.9 842.2,356.2 842.2,356.6 842.2,357.2 842.3,355.4 842.3,354.6 842.3,355.0 842.3,353.9 842.3,354.3 842.3,353.1 842.3,353.5 842.3,352.3 842.3,351.5 842.3,351.9 842.3,350.8 842.3,351.2 842.3,351.8 842.3,350.0 842.3,349.3 842.3,349.7 842.3,348.5 842.3,348.9 842.3,347.7 842.3,346.9 842.4,347.3 842.4,347.9 842.4,346.2 842.5,345.4 842.5,345.8 842.5,344.7 842.5,343.9 842.5,343.1 842.5,343.5 842.5,342.3 842.5,341.5 842.5,341.9 842.5,342.5 842.5,340.8 842.5,340.0 842.5,339.2 842.5,339.6 842.5,338.5 842.6,337.7 842.6,338.1 842.6,336.9 842.6,336.2 842.6,336.6 842.6,337.1 842.6,335.4 842.6,334.6 842.6,333.9 842.6,334.3 842.6,333.1 842.6,333.5 842.6,332.3 842.6,331.6 842.6,332.0 842.6,332.6 842.6,330.8 842.6,331.2 842.6,331.8 842.6,330.1 842.7,329.3 842.7,328.5 842.7,327.7 842.7,328.1 842.7,328.7 842.7,329.6 842.7,330.9 842.7,331.3 842.8,331.9 842.8,332.8 842.9,334.2 842.9,333.4 842.9,332.6 842.9,331.9 842.9,332.3 842.9,332.9 842.9,333.8 842.9,335.1 842.9,335.5 842.9,334.3 842.9,333.6 843.0,334.0 843.0,334.6 843.0,332.8 843.0,332.1 843.0,331.3 843.0,331.7 843.0,330.5 843.0,329.8 843.0,330.1 843.0,329.0 843.1,329.4 843.1,328.2 843.1,327.5 843.1,327.9 843.1,326.7 843.2,325.9 843.2,325.1 843.2,324.3 843.2,324.7 843.2,323.6 843.2,322.8 843.2,323.2 843.2,322.0 843.2,321.2 843.2,320.5 843.2,320.9 843.2,319.7 843.2,318.9 843.2,319.3 843.2,318.1 843.3,317.4 843.4,316.6 843.4,315.8 843.4,316.2 843.4,316.8 843.4,315.1 843.4,314.3 843.5,313.5 843.5,313.9 843.5,314.5 843.5,315.4 843.5,312.8 843.5,313.2 843.5,312.0 843.5,311.3 843.5,311.7 843.5,310.5 843.5,310.9 843.5,309.7 843.5,308.9 843.5,309.3 843.5,310.0 843.6,308.2 843.6,308.6 843.6,307.4 843.6,307.8 843.6,306.6 843.6,307.0 843.6,305.9 843.6,305.1 843.6,304.3 843.6,303.5 843.6,302.8 843.6,303.2 843.6,302.0 843.6,301.2 843.6,300.5 843.6,300.8 843.6,299.7 843.7,298.9 843.7,299.3 843.7,298.1 843.7,298.5 843.7,297.4 843.7,296.6 843.7,297.0 843.7,295.8 843.7,295.1 843.7,295.5 843.7,294.3 843.7,294.7 843.7,293.5 843.7,292.8 843.7,293.2 843.7,292.0 843.7,292.4 843.7,291.2 843.7,291.6 843.7,290.5 843.8,290.9 843.8,289.7 843.8,290.1 843.8,288.9 843.8,288.1 843.8,287.4 843.8,287.8 843.8,286.6 843.8,285.8 843.8,286.2 843.8,285.1 843.8,285.5 843.8,286.1 843.8,284.3 843.8,284.7 843.8,283.5 843.8,283.9 843.9,284.5 843.9,285.4 843.9,282.8 843.9,283.2 843.9,283.8 843.9,282.1 843.9,281.3 843.9,281.7 843.9,282.3 843.9,280.5 843.9,279.7 843.9,279.0 844.0,278.2 844.0,277.4 844.0,277.8 844.0,278.4 844.0,276.7 844.0,277.1 844.0,275.9 844.0,275.1 844.0,274.3 844.0,274.7 844.0,273.6 844.0,272.8 844.0,272.0 844.0,271.2 844.1,271.6 844.1,272.2 844.1,273.1 844.1,274.4 844.1,274.8 844.1,275.4 844.1,276.3 844.1,277.7 844.1,276.9 844.2,276.1 844.2,275.4 844.2,274.6 844.2,275.0 844.2,273.8 844.2,274.2 844.2,273.1 844.2,272.3 844.2,271.5 844.2,270.7 844.3,271.2 844.3,270.0 844.3,269.2 844.3,268.4 844.3,268.8 844.3,267.7 844.3,266.9 844.3,266.1 844.3,265.4 844.3,265.7 844.3,264.6 844.3,265.0 844.3,263.8 844.3,263.0 844.3,262.3 844.3,262.7 844.3,261.5 844.3,260.7 844.4,261.1 844.4,261.7 844.4,262.6 844.4,263.9 844.4,264.3 844.4,263.2 844.4,262.4 844.4,262.8 844.4,263.4 844.4,264.2 844.4,261.7 844.4,262.0 844.4,260.9 844.4,261.3 844.5,261.9 844.5,260.1 844.5,260.5 844.5,259.4 844.5,258.6 844.5,257.8 844.5,258.2 844.5,258.8 844.5,257.1 844.5,257.5 844.5,256.3 844.5,255.5 844.6,255.9 844.6,254.8 844.6,254.0 844.6,253.2 844.6,252.5 844.6,251.7 844.6,250.9 844.8,250.1 844.8,250.5 844.8,249.4 844.8,249.8 844.8,248.6 844.8,247.8 844.8,248.3 844.8,247.1 844.8,247.5 844.8,246.3 844.8,246.7 844.8,245.6 844.8,246.0 844.8,246.5 844.8,247.4 844.8,248.8 844.8,249.2 844.8,249.7 844.8,248.0 844.8,248.4 844.8,247.3 844.8,247.7 844.8,246.5 844.8,246.9 844.8,245.7 844.9,245.0 844.9,244.2 844.9,243.4 844.9,242.6 844.9,243.0 844.9,241.9 844.9,242.3 844.9,242.9 844.9,241.1 844.9,241.5 845.0,240.3 845.0,239.6 845.0,240.0 845.0,240.6 845.1,238.8 845.1,239.2 845.1,239.8 845.1,240.7 845.1,242.1 845.1,241.3 845.1,240.5 845.1,240.9 845.1,239.7 845.2,240.1 845.2,239.0 845.2,239.4 845.2,238.2 845.2,237.4 845.3,237.8 845.3,238.4 845.3,236.7 845.3,235.9 845.3,236.3 845.4,236.9 845.4,237.8 845.4,239.2 845.4,239.6 845.4,240.1 845.4,241.0 845.4,238.4 845.4,238.8 845.4,239.4 845.4,240.3 845.4,241.6 845.5,242.0 845.5,240.9 845.5,241.3 845.5,241.9 845.5,242.7 845.6,240.1 845.6,240.5 845.6,241.2 845.6,239.4 845.6,239.8 845.6,238.6 845.7,239.0 845.7,237.9 845.7,238.3 845.7,238.9 845.7,239.8 845.7,237.1 845.7,237.5 845.7,236.4 845.7,236.8 845.7,235.6 845.8,234.8 845.8,234.1 845.8,234.5 845.8,233.3 845.8,232.5 845.8,232.9 845.9,233.5 845.9,234.4 845.9,231.8 845.9,232.2 845.9,231.0 845.9,231.4 845.9,232.0 845.9,230.3 846.0,230.7 846.0,231.3 846.0,229.5 846.0,228.8 846.0,229.2 846.0,228.0 846.0,227.2 846.0,226.4 846.0,226.8 846.0,225.7 846.0,224.9 846.0,225.3 846.0,225.9 846.0,224.1 846.1,224.5 846.1,225.1 846.1,223.4 846.1,222.6 846.1,223.0 846.1,221.8 846.1,221.1 846.1,220.3 846.1,220.7 846.1,219.5 846.2,219.9 846.2,220.5 846.2,221.4 846.2,218.8 846.2,219.2 846.2,219.8 846.2,220.7 846.2,218.1 846.2,217.3 846.5,217.7 846.5,216.6 846.5,215.8 846.5,216.2 846.7,215.0 846.7,214.3 846.7,214.7 846.7,215.3 846.8,213.5 847.0,213.9 847.0,214.5 847.0,215.4 847.0,212.8 847.0,213.2 847.0,212.0 847.0,212.4 847.1,213.0 847.1,213.9 847.1,215.3 847.1,215.7 847.1,216.2 847.1,217.1 847.1,218.5 847.1,218.9 847.1,219.5 847.2,220.4 847.2,217.7 847.2,216.9 847.2,216.2 847.2,216.6 847.2,217.2 847.2,218.0 847.2,219.4 847.2,219.8 847.2,220.4 847.2,218.6 847.2,217.8 847.2,218.2 847.2,217.1 847.2,216.3 847.2,215.5 847.3,215.9 847.3,214.8 847.3,215.2 847.3,215.8 847.3,216.7 847.3,214.0 847.3,213.3 847.4,213.7 847.4,212.5 847.4,211.7 847.4,210.9 847.4,211.3 847.4,210.2 847.4,209.4 847.4,209.8 847.4,208.7 847.4,209.1 847.4,209.6 847.4,210.5 847.4,207.9 847.4,208.3 847.4,207.2 847.4,206.4 847.5,206.8 847.5,205.6 847.5,206.0 847.6,204.8 847.7,204.1 847.8,204.5 847.8,205.1 847.8,206.0 847.8,207.3 847.8,207.7 847.8,208.3 847.8,209.2 847.8,210.6 847.8,211.0 847.9,209.8 847.9,210.2 847.9,209.1 847.9,208.3 847.9,207.5 847.9,206.7 847.9,206.0 847.9,205.2 847.9,205.6 847.9,206.2 847.9,204.4 847.9,203.7 848.0,204.1 848.0,202.9 848.0,203.3 848.0,203.9 848.0,204.8 848.0,202.2 848.0,202.6 848.0,201.4 848.1,201.8 848.1,202.4 848.1,203.3 848.1,200.7 848.1,199.9 848.1,200.3 848.1,200.9 848.1,199.2 848.1,198.4 848.1,198.8 848.1,199.4 848.1,197.7 848.1,196.9 848.1,197.3 848.2,196.1 848.2,196.5 848.2,197.1 848.2,198.0 848.2,199.4 848.2,198.6 848.2,199.0 848.2,199.6 848.2,197.8 848.2,197.1 848.2,196.3 848.2,196.7 848.2,197.3 848.2,195.5 848.2,195.9 848.3,194.8 848.3,195.2 848.3,194.0 848.3,193.2 848.3,192.5 848.3,191.7 848.3,192.1 848.3,190.9 848.4,191.3 848.4,191.9 848.4,192.8 848.4,194.1 848.4,194.5 848.4,193.4 848.4,192.6 848.4,193.0 848.4,193.6 848.4,194.5 848.4,191.9 848.4,192.3 848.4,192.8 848.4,191.1 848.4,191.5 848.4,190.3 848.5,190.7 848.5,189.6 848.5,190.0 848.5,188.8 848.5,188.0 848.5,187.3 848.5,187.7 848.5,186.5 848.6,186.9 848.6,185.7 848.6,186.1 848.6,185.0 848.6,185.4 848.6,186.0 848.6,186.9 848.7,188.2 848.7,187.5 848.7,187.9 848.7,188.5 848.7,186.7 848.7,185.9 848.7,185.2 848.7,185.6 848.7,184.4 848.7,184.8 848.8,185.4 848.8,186.3 848.8,187.7 848.8,188.1 848.8,188.7 848.8,189.6 848.8,186.9 848.9,187.3 848.9,186.2 848.9,186.6 848.9,187.2 848.9,188.1 848.9,189.4 848.9,189.8 848.9,190.4 848.9,191.3 848.9,192.7 848.9,191.9 849.0,191.1 849.0,190.3 849.0,190.7 849.0,189.6 849.0,188.8 849.0,188.0 849.0,187.2 849.0,187.6 849.0,186.5 849.0,186.9 849.0,187.5 849.0,188.4 849.0,189.7 849.0,190.1 849.0,190.7 849.0,191.6 849.2,189.0 849.2,189.4 849.2,188.2 849.3,188.6 849.3,189.2 849.3,187.5 849.3,187.9 849.3,188.5 849.3,186.7 849.4,187.1 849.4,186.0 849.4,185.2 849.4,185.6 849.4,184.4 849.4,184.8 849.4,183.7 849.4,182.9 849.4,182.1 849.4,182.5 849.4,183.1 849.4,184.0 849.4,185.3 849.5,184.5 849.5,184.9 849.5,183.8 849.5,183.0 849.5,182.2 849.5,181.4 849.6,181.8 849.6,182.4 849.6,180.7 849.6,181.1 849.6,181.7 849.6,182.6 849.6,183.9 849.6,184.3 849.6,183.2 849.6,183.6 849.7,184.2 849.7,185.1 849.7,186.4 849.7,186.8 849.7,185.6 849.7,184.9 849.7,185.3 849.7,185.9 849.7,184.1 849.7,183.3 849.7,183.7 849.7,182.6 849.7,183.0 849.7,181.8 849.7,182.2 849.7,181.0 849.8,180.3 849.8,180.7 849.8,181.2 849.8,182.1 849.8,179.5 849.8,178.8 849.8,179.2 849.8,179.8 849.8,180.6 849.8,182.0 849.8,181.2 849.9,181.6 849.9,180.5 849.9,179.7 849.9,178.9 849.9,179.3 849.9,179.9 850.0,178.1 850.0,177.4 850.0,177.8 850.0,176.6 850.0,177.0 850.0,175.8 850.0,175.0 850.0,175.4 850.1,176.0 850.1,174.3 850.1,174.7 850.1,173.5 850.1,173.9 850.1,174.5 850.1,172.8 850.1,172.0 850.1,171.2 850.1,171.6 850.1,172.2 850.1,170.5 850.1,169.7 850.1,170.1 850.2,170.7 850.2,171.6 850.2,172.9 850.2,173.3 850.2,172.1 850.2,172.5 850.2,171.4 850.2,170.6 850.2,171.0 850.2,171.6 850.3,172.5 850.3,173.8 850.3,173.1 850.5,172.3 850.5,171.5 850.6,171.9 850.6,172.5 850.6,170.8 850.6,170.0 850.6,170.4 850.6,169.2 850.6,169.6 850.6,170.2 850.6,168.5 850.7,168.9 850.7,169.4 850.7,167.7 850.7,168.1 850.8,168.7 850.8,167.0 850.8,167.4 850.8,168.0 850.8,168.9 850.8,170.2 850.8,170.6 850.9,169.5 850.9,169.9 850.9,168.7 850.9,169.1 850.9,167.9 850.9,167.1 850.9,167.6 850.9,166.4 851.0,166.8 851.0,167.4 851.0,168.2 851.0,169.6 851.0,168.8 851.0,169.2 851.0,169.8 851.0,170.7 851.0,168.1 851.0,167.3 851.1,167.7 851.1,166.5 851.1,165.8 851.1,165.0 851.1,165.4 851.1,166.0 851.2,166.9 851.2,168.2 851.2,168.6 851.2,167.4 851.2,167.8 851.2,166.7 851.3,167.1 851.4,165.9 851.4,166.3 851.4,166.9 851.4,165.2 851.4,165.6 851.4,166.1 851.4,164.4 851.4,164.8 851.4,163.7 851.4,164.1 851.4,162.9 851.5,163.3 851.5,162.1 851.5,162.5 851.5,163.1 851.5,164.0 851.5,165.3 851.5,165.7 851.5,166.3 851.5,167.2 851.5,168.5 851.5,168.9 851.5,169.5 851.5,167.8 851.5,168.2 851.6,167.0 851.6,167.4 851.6,166.3 851.7,166.6 851.7,167.2 851.7,168.1 851.7,169.5 851.8,169.8 851.8,168.7 851.8,169.1 851.8,169.7 851.8,170.6 851.8,172.0 851.8,172.3 851.8,171.2 851.8,171.6 851.9,172.2 851.9,173.1 851.9,170.5 851.9,169.7 851.9,168.9 851.9,168.2 851.9,167.4 852.0,166.6 852.0,165.8 852.0,166.2 852.0,166.8 852.0,167.7 852.0,165.1 852.0,165.5 852.0,166.1 852.0,167.0 852.0,168.3 852.0,167.5 852.1,167.9 852.1,166.8 852.1,166.0 852.1,165.2 852.1,165.6 852.1,166.2 852.1,164.5 852.1,164.9 852.1,163.7 852.1,164.1 852.1,162.9 852.2,163.3 852.2,162.2 852.2,162.6 852.2,163.2 852.2,161.4 852.2,160.6 852.2,161.0 852.2,161.6 852.2,162.5 852.2,163.9 852.2,164.3 852.2,163.1 852.2,163.5 852.2,164.1 852.2,165.0 852.2,162.4 852.2,161.6 852.2,160.9 852.3,161.3 852.3,160.1 852.3,160.5 852.4,161.1 852.4,159.3 852.4,158.6 852.4,157.8 852.5,158.2 852.5,157.0 852.6,157.4 852.6,156.3 852.6,156.6 852.6,157.2 852.6,158.1 852.6,155.5 852.6,154.8 852.7,155.2 852.7,155.8 852.7,156.7 852.7,154.0 852.7,153.2 852.7,153.6 852.7,152.5 852.7,152.9 852.7,151.7 852.8,150.9 852.8,151.3 852.8,151.9 852.8,152.8 852.8,154.1 852.9,154.5 852.9,153.4 852.9,153.8 852.9,154.4 852.9,152.6 852.9,151.9 853.0,151.1 853.0,150.3 853.0,150.7 853.0,151.3 853.0,152.2 853.0,153.5 853.0,152.7 853.1,151.9 853.2,152.3 853.2,151.2 853.2,151.6 853.2,150.4 853.2,150.8 853.2,149.6 853.2,150.0 853.2,150.6 853.2,148.9 853.2,149.3 853.2,149.9 853.2,148.1 853.2,147.4 853.2,147.8 853.3,146.6 853.3,147.0 853.3,145.8 853.3,146.2 853.3,146.8 853.5,147.7 853.5,145.1 853.5,145.5 853.5,146.1 853.5,147.0 853.5,148.3 853.5,147.5 853.5,147.9 853.5,146.8 853.5,146.0 853.6,146.4 853.6,145.2 853.6,145.6 853.6,146.2 853.6,147.2 853.6,148.5 853.6,148.9 853.6,149.5 853.6,150.4 853.6,151.8 853.6,152.2 853.6,151.0 853.7,151.4 853.7,150.2 853.7,150.6 853.7,149.5 853.8,149.9 853.8,150.5 853.8,148.7 853.8,149.1 853.8,148.0 853.8,147.2 853.8,146.4 853.8,146.8 853.8,145.7 853.9,144.9 853.9,144.1 854.0,144.5 854.0,145.1 854.0,143.4 854.0,143.8 854.0,142.6 854.0,141.9 854.0,142.3 854.0,142.8 854.0,143.7 854.0,145.1 854.1,145.4 854.1,146.0 854.1,146.9 854.1,144.3 854.1,144.7 854.1,145.3 854.1,143.6 854.1,142.8 854.1,142.0 854.1,141.2 854.1,140.5 854.1,139.7 854.2,138.9 854.2,139.3 854.2,138.2 854.3,138.6 854.3,137.4 854.3,136.6 854.3,137.0 854.3,135.8 854.3,135.1 854.3,134.3 854.3,134.7 854.3,133.6 854.3,132.8 854.4,132.0 854.4,132.4 854.4,133.0 854.4,131.3 854.4,131.7 854.4,132.3 854.4,133.2 854.4,134.5 854.4,134.9 854.4,135.5 854.4,136.4 854.4,133.8 854.4,133.0 854.4,133.4 854.4,132.2 854.4,132.6 854.5,133.2 854.5,131.5 854.5,130.7 854.5,131.1 854.5,131.7 854.5,132.6 854.5,130.0 854.5,130.4 854.5,129.2 854.5,129.6 854.5,128.4 854.5,128.8 854.5,127.7 854.6,128.1 854.6,128.7 854.6,129.6 854.6,130.9 854.7,130.2 854.7,129.4 854.7,129.8 854.7,128.6 854.7,127.8 854.7,128.2 854.7,128.8 854.7,129.7 854.8,131.1 854.8,131.5 854.8,130.3 854.8,130.7 854.8,129.6 854.8,130.0 854.8,130.6 854.8,131.4 854.8,132.8 854.8,132.0 854.9,131.2 854.9,131.6 854.9,132.2 854.9,133.1 854.9,134.4 854.9,134.8 854.9,135.4 854.9,136.3 854.9,133.7 854.9,134.1 854.9,132.9 854.9,132.1 854.9,131.3 855.0,130.6 855.0,131.0 855.0,131.6 855.0,129.8 855.0,129.0 855.0,129.4 855.0,130.0 855.0,130.9 855.0,128.3 855.0,128.7 855.0,129.3 855.0,130.2 855.0,131.5 855.0,131.9 855.1,132.5 855.1,133.4 855.1,134.8 855.1,134.0 855.1,134.4 855.1,135.0 855.1,135.9 855.2,137.3 855.2,136.5 855.2,135.7 855.2,136.1 855.2,136.7 855.2,137.6 855.2,139.0 855.2,138.2 855.3,137.5 855.3,136.7 855.3,137.1 855.3,137.7 855.3,138.6 855.3,139.9 855.4,140.3 855.4,140.9 855.4,139.2 855.4,139.6 855.4,138.4 855.4,138.8 855.5,137.7 855.5,136.9 855.5,137.3 855.5,136.1 855.5,135.3 855.5,134.6 855.5,133.8 855.5,134.2 855.5,134.8 855.5,135.7 855.6,137.0 855.6,136.2 855.6,136.6 855.6,137.2 855.6,138.1 855.6,135.5 855.6,135.9 855.6,134.7 855.6,135.1 855.6,135.7 855.6,136.6 855.6,138.0 855.6,138.4 855.7,137.2 855.7,137.6 855.7,138.2 855.7,136.5 855.7,136.8 855.7,137.4 855.7,138.3 855.7,135.7 855.7,136.1 855.7,136.7 855.7,137.6 855.7,135.0 855.8,135.4 855.8,136.0 855.8,136.9 855.8,138.2 855.8,138.6 855.8,137.4 855.8,137.8 855.8,136.6 855.8,135.9 855.9,136.3 855.9,135.1 855.9,134.3 855.9,134.7 855.9,133.6 855.9,134.0 855.9,134.6 855.9,132.8 856.0,133.2 856.0,132.1 856.0,132.5 856.0,131.3 856.1,131.7 856.1,130.5 856.1,130.9 856.1,129.8 856.1,129.0 856.1,128.2 856.1,127.4 856.1,126.7 856.1,125.9 856.1,125.1 856.2,124.4 856.2,123.6 856.2,122.8 856.2,122.0 856.2,121.3 856.2,121.7 856.2,122.3 856.2,123.2 856.2,124.5 856.2,123.8 856.2,124.2 856.2,124.7 856.2,125.6 856.2,123.0 856.2,123.4 856.2,122.3 856.2,122.7 856.3,121.5 856.3,120.7 856.3,120.0 856.3,119.2 856.3,118.4 856.3,117.6 856.4,118.0 856.4,118.6 856.4,116.9 856.4,117.3 856.4,117.9 856.4,118.8 856.4,120.1 856.4,120.5 856.4,121.1 856.5,119.4 856.5,119.8 856.5,120.4 856.5,121.3 856.5,122.6 856.5,123.0 856.5,121.9 856.6,122.3 856.6,121.1 856.6,121.5 856.6,122.1 856.6,123.0 856.6,124.4 856.6,124.8 856.6,125.4 856.6,126.3 856.7,123.7 856.7,124.1 856.7,124.7 856.7,122.9 856.7,123.3 856.7,122.2 856.7,122.6 856.7,121.4 856.7,121.8 856.7,120.6 856.7,119.8 856.7,119.1 856.8,118.3 856.8,118.7 856.8,119.3 856.8,117.6 856.8,117.9 856.9,116.8 856.9,117.2 856.9,117.8 856.9,118.7 856.9,120.0 857.0,120.4 857.0,119.2 857.0,118.5 857.0,118.9 857.0,117.7 857.0,116.9 857.0,116.1 857.0,116.5 857.0,117.1 857.0,118.0 857.0,119.3 857.0,118.6 857.0,119.0 857.1,117.8 857.1,117.0 857.1,117.4 857.1,118.0 857.1,116.3 857.2,116.7 857.2,117.2 857.2,118.1 857.2,119.5 857.2,119.9 857.3,118.7 857.3,119.1 857.3,119.7 857.3,120.6 857.3,121.9 857.3,122.3 857.3,122.9 857.4,123.8 857.4,125.1 857.4,125.5 857.4,126.1 857.4,127.0 857.4,128.3 857.4,127.6 857.4,128.0 857.4,128.6 857.4,129.5 857.4,130.8 857.4,131.2 857.4,131.8 857.5,132.7 857.5,134.1 857.5,134.5 857.5,133.3 857.5,133.7 857.5,134.3 857.5,135.2 857.5,136.6 857.5,137.0 857.5,137.6 857.5,138.5 857.5,139.9 857.5,139.1 857.5,139.5 857.5,140.1 857.6,141.0 857.6,142.3 857.6,141.6 857.6,142.0 857.7,142.6 857.7,143.5 857.7,140.8 857.8,141.2 857.8,140.1 857.8,140.5 857.8,141.1 857.8,142.0 857.9,143.3 857.9,143.7 857.9,144.3 857.9,145.2 857.9,146.6 857.9,147.0 857.9,147.6 857.9,148.5 857.9,149.9 857.9,149.1 857.9,148.3 858.0,148.7 858.0,149.3 858.0,150.2 858.1,147.6 858.2,146.8 858.2,146.0 858.2,146.4 858.2,147.0 858.2,147.9 858.3,145.3 858.3,145.7 858.4,146.3 858.4,147.2 858.4,148.5 858.5,148.9 858.5,149.5 858.6,150.4 858.6,151.7 858.6,152.1 858.6,152.7 858.6,153.6 858.6,155.0 858.7,155.4 858.7,154.2 858.7,153.4 858.9,152.6 858.9,153.0 858.9,153.6 858.9,154.5 858.9,155.9 858.9,156.3 858.9,156.9 858.9,157.8 858.9,159.2 859.0,159.6 859.1,158.4 859.1,157.6 859.1,158.0 859.1,156.9 859.1,156.1 859.1,156.5 859.1,157.1 859.1,155.3 859.1,154.5 859.1,153.8 859.1,154.2 859.1,154.7 859.1,155.6 859.1,157.0 859.2,157.4 859.2,157.9 859.2,158.8 859.2,156.2 859.2,156.6 859.2,157.2 859.2,158.1 859.2,159.5 859.2,158.7 859.2,158.0 859.2,158.3 859.2,158.9 859.4,157.2 859.5,157.6 859.5,158.2 859.5,159.1 859.5,160.4 859.6,159.6 859.6,158.9 859.6,159.3 859.8,159.9 859.8,160.7 860.1,162.1 860.1,162.5 860.2,163.1 860.2,164.0 860.3,165.3 860.3,165.7 860.3,166.3 860.3,167.2 860.3,168.5 860.8,168.9 860.9,169.5 860.9,167.8 861.2,167.0 861.3,167.4 861.3,168.0 861.4,168.9 861.4,166.3 861.4,166.7 861.9,165.5 862.0,165.9 862.2,166.5 862.4,164.8 862.4,165.2 862.5,165.7 862.6,166.6 862.6,168.0 862.7,168.4 863.0,168.9 863.0,169.8 863.0,171.2 863.1,171.6 863.1,170.4 863.1,169.6 863.1,168.8 863.2,168.1 863.2,167.3 863.7,166.5 863.8,165.7 863.8,166.2 863.8,166.8 863.8,167.7 863.8,169.0 863.8,169.4 863.8,170.0 863.8,170.9 863.9,172.3 864.2,171.5 864.2,171.9 864.3,172.5 864.3,173.4 864.4,174.7 864.5,175.1 864.5,175.8 864.5,176.7 864.9,178.0 864.9,178.4 865.0,177.2 865.3,177.6 865.6,176.5 866.0,176.9 866.0,175.7 866.1,174.9 866.2,175.3 866.2,174.1 866.2,174.5 866.2,175.1 866.2,176.0 866.2,177.3 866.2,177.7 866.3,178.3 866.3,179.2 866.3,176.6 866.3,177.0 866.3,177.6 866.3,178.5 866.4,175.9 866.4,176.3 866.4,176.9 866.7,175.1 866.7,175.5 866.7,176.1 866.9,174.4 867.4,173.6 868.0,172.8 868.0,173.2 868.3,173.8 868.3,172.1 868.3,172.5 868.4,173.1 868.4,174.0 868.5,175.3 868.5,175.7 868.5,176.3 869.1,174.6 869.1,175.0 869.1,175.6 869.1,176.5 869.1,177.8 869.1,178.2 869.2,177.1 869.2,176.3 869.2,176.7 869.3,177.3 869.5,175.5 869.5,175.9 869.5,176.5 869.5,177.4 869.6,174.8 869.6,175.2 869.6,175.8 869.7,176.7 869.7,178.1 869.7,178.5 869.7,177.3 869.7,177.7 869.8,178.3 870.7,176.6 871.0,177.0 871.1,177.6 871.2,178.5 872.2,175.8 872.3,175.0 872.3,175.4 872.3,176.0 872.3,176.9 872.5,174.3 872.6,173.5 872.6,173.9 872.7,174.5 872.7,175.4 872.7,176.7 872.8,177.1 872.8,177.7 872.9,178.6 873.1,180.0 873.1,180.4 873.1,181.0 873.1,181.8 873.2,183.2 873.5,183.6 873.5,184.2 873.5,185.1 873.6,186.4 873.7,186.8 874.6,187.4 875.7,185.7 875.7,184.9 875.7,185.3 875.7,185.9 875.8,186.8 875.8,188.2 875.9,188.6 876.2,189.2 876.6,190.1 877.8,187.4 877.8,187.8 877.8,188.4 878.1,189.3 878.1,190.7 878.5,191.1 878.6,191.7 878.6,189.9 878.6,189.2 878.7,189.5 878.7,190.1 878.8,191.0 878.8,192.4 879.1,191.6 879.1,190.8 879.1,191.2 879.1,191.8 879.1,192.7 879.2,194.1 879.2,193.3 879.2,192.5 879.7,191.7 880.5,192.1 880.6,192.7 880.7,193.6 881.7,195.0 882.2,194.2 882.4,193.4 882.4,193.8 883.5,194.4 883.5,195.3 883.5,196.7 884.4,197.1 884.4,195.9 884.4,196.3 884.4,196.9 884.4,197.8 884.4,199.2 884.4,199.6 884.5,200.2 884.5,198.5 884.6,197.7 885.0,196.9 885.1,196.1 885.1,196.5 885.5,197.1 885.6,198.0 886.5,199.4 887.0,199.8 887.0,200.4 887.0,201.3 887.0,202.6 887.6,203.1 887.6,203.7 890.2,201.9 890.3,201.1 890.6,201.5 890.6,202.1 891.5,203.0 891.6,200.4 891.6,199.6 891.6,200.0 891.6,200.6 891.8,198.8 891.9,199.3 892.3,199.9 893.8,198.1 894.4,198.5 894.5,199.1 895.8,197.3 896.1,196.6 896.3,195.8 897.0,196.2 897.1,196.8 899.6,197.7 899.7,199.0 899.8,199.4 900.5,200.0 900.7,200.9 901.1,202.2 901.1,202.6 901.5,203.2 901.6,204.1 906.4,205.5 908.1,205.9 911.8,204.7 911.8,205.1 911.9,205.7 911.9,206.7 911.9,208.0 912.0,208.4 912.2,209.0 912.3,209.9 912.3,211.2 912.6,211.6 913.7,210.4 913.8,210.8 913.8,211.4 914.2,212.3 914.2,213.6 914.3,214.0 914.3,214.6 914.7,215.5 917.3,216.9 931.4,216.1 931.4,216.5 931.4,217.1" fill="none" stroke="#16a34a" stroke-width="2" stroke-linejoin="round"/>
  <line x1="88" y1="102" x2="110" y2="102" stroke="#16a34a" stroke-width="2.5"/><text x="116" y="106" font-size="11.5" fill="#374151">equity</text><line x1="88" y1="118" x2="110" y2="118" stroke="#d97706" stroke-width="2.5" opacity="0.8"/><text x="116" y="122" font-size="11.5" fill="#374151">price</text>
  <text x="78" y="502" text-anchor="start" font-size="12" fill="#6b7280">2025-10-10</text><text x="934" y="502" text-anchor="end" font-size="12" fill="#6b7280">2025-10-10</text>
</svg>
