<?xml version="1.0" encoding="UTF-8"?>
<svg xmlns="http://www.w3.org/2000/svg" width="1100" height="560" viewBox="0 0 1100 560" font-family="ui-sans-serif, system-ui, sans-serif">
  <rect width="1100" height="560" fill="#ffffff"/>
  <text x="80" y="28" font-size="18" font-weight="700" fill="#111827">Zone Recovery — FILUSDC fee-tier comparison (best setting)</text>
  <text x="80" y="48" font-size="12.5" fill="#6b7280">lev 10 · ratio 4 · gap 20% · maxSteps 6 · maxDD 60% · random  ·  equity per fee tier vip 0..9</text>
  <text x="80" y="68" font-size="12.5" font-weight="600" fill="#1d4ed8">USDC margin · BNB −10%</text>
  <line x1="80" y1="508.0" x2="932" y2="508.0" stroke="#e5e7eb" stroke-width="1"/><text x="70" y="512.0" text-anchor="end" font-size="12" fill="#6b7280">0.00</text><line x1="80" y1="424.0" x2="932" y2="424.0" stroke="#e5e7eb" stroke-width="1"/><text x="70" y="428.0" text-anchor="end" font-size="12" fill="#6b7280">31684</text><line x1="80" y1="340.0" x2="932" y2="340.0" stroke="#e5e7eb" stroke-width="1"/><text x="70" y="344.0" text-anchor="end" font-size="12" fill="#6b7280">63369</text><line x1="80" y1="256.0" x2="932" y2="256.0" stroke="#e5e7eb" stroke-width="1"/><text x="70" y="260.0" text-anchor="end" font-size="12" fill="#6b7280">95053</text><line x1="80" y1="172.0" x2="932" y2="172.0" stroke="#e5e7eb" stroke-width="1"/><text x="70" y="176.0" text-anchor="end" font-size="12" fill="#6b7280">126738</text><line x1="80" y1="88.0" x2="932" y2="88.0" stroke="#e5e7eb" stroke-width="1"/><text x="70" y="92.0" text-anchor="end" font-size="12" fill="#6b7280">158422</text>
  <line x1="80" y1="481.5" x2="932" y2="481.5" stroke="#9ca3af" stroke-width="1.5" stroke-dasharray="6 4"/>
  <polyline points="80.0,481.5 80.0,475.9 81.0,469.1 83.7,471.3 84.1,473.9 122.2,477.3 126.4,481.5 193.1,486.7 194.8,461.7 225.0,451.9 250.1,455.0 253.9,458.9 258.1,463.7 416.0,469.7 458.3,440.8 459.9,444.5 478.3,426.8 488.0,431.3 503.4,436.9 512.7,443.9 568.9,452.6 569.5,410.7 569.5,390.2 569.5,396.7 576.4,365.6 752.6,335.5 868.3,299.0 880.6,310.6 892.5,325.0 900.1,343.0 900.6,365.5 916.4,393.7 926.6,258.9 926.8,272.7 928.7,206.8 932.0,143.2" fill="none" stroke="#2563eb" stroke-width="1.8" stroke-linejoin="round" opacity="0.9"/>
  <polyline points="80.0,481.5 80.0,475.9 81.0,469.1 83.7,471.3 84.1,473.9 122.2,477.3 126.4,481.5 193.1,486.7 194.8,461.7 225.0,451.9 250.1,455.0 253.9,458.9 258.1,463.7 416.0,469.7 458.3,440.8 459.9,444.5 478.3,426.8 488.0,431.3 503.4,436.9 512.7,443.9 568.9,452.6 569.5,410.7 569.5,390.2 569.5,396.7 576.4,365.6 752.6,335.5 868.3,299.0 880.6,310.6 892.5,325.0 900.1,343.0 900.6,365.5 916.4,393.7 926.6,258.9 926.8,272.7 928.7,206.8 932.0,143.2" fill="none" stroke="#dc2626" stroke-width="1.8" stroke-linejoin="round" opacity="0.9"/>
  <polyline points="80.0,481.5 80.0,475.9 81.0,469.1 83.7,471.2 84.1,473.9 122.2,477.2 126.4,481.4 193.1,486.6 194.8,461.5 225.0,451.6 250.1,454.7 253.9,458.6 258.1,463.4 416.0,469.4 458.3,440.3 459.9,444.0 478.3,426.1 488.0,430.6 503.4,436.2 512.7,443.2 568.9,452.0 569.5,409.7 569.5,388.9 569.5,395.4 576.4,363.9 752.6,333.4 868.3,296.5 880.6,308.1 892.5,322.6 900.1,340.7 900.6,363.3 916.4,391.6 926.6,254.9 926.8,268.8 928.7,201.8 932.0,137.1" fill="none" stroke="#16a34a" stroke-width="1.8" stroke-linejoin="round" opacity="0.9"/>
  <polyline points="80.0,481.5 80.0,475.9 81.0,469.1 83.7,471.2 84.1,473.8 122.2,477.2 126.4,481.3 193.1,486.5 194.8,461.3 225.0,451.4 250.1,454.5 253.9,458.4 258.1,463.2 416.0,469.2 458.3,439.9 459.9,443.6 478.3,425.6 488.0,430.1 503.4,435.7 512.7,442.7 568.9,451.5 569.5,408.9 569.5,387.8 569.5,394.4 576.4,362.6 752.6,331.7 868.3,294.4 880.6,306.0 892.5,320.6 900.1,338.8 900.6,361.5 916.4,389.9 926.6,251.7 926.8,265.7 928.7,197.8 932.0,132.1" fill="none" stroke="#d97706" stroke-width="1.8" stroke-linejoin="round" opacity="0.9"/>
  <polyline points="80.0,481.5 80.0,475.9 81.0,469.0 83.7,471.1 84.1,473.8 122.2,477.1 126.4,481.2 193.1,486.3 194.8,461.1 225.0,451.1 250.1,454.2 253.9,458.0 258.1,462.8 416.0,468.9 458.3,439.4 459.9,443.1 478.3,424.9 488.0,429.3 503.4,435.0 512.7,442.0 568.9,450.8 569.5,407.7 569.5,386.4 569.5,392.9 576.4,360.6 752.6,329.3 868.3,291.4 880.6,303.1 892.5,317.8 900.1,336.1 900.6,358.9 916.4,387.5 926.6,247.1 926.8,261.2 928.7,191.9 932.0,124.8" fill="none" stroke="#7c3aed" stroke-width="1.8" stroke-linejoin="round" opacity="0.9"/>
  <polyline points="80.0,481.5 80.0,475.9 81.0,469.0 83.7,471.1 84.1,473.8 122.2,477.1 126.4,481.2 193.1,486.3 194.8,461.0 225.0,451.1 250.1,454.1 253.9,458.0 258.1,462.8 416.0,468.8 458.3,439.3 459.9,443.0 478.3,424.7 488.0,429.2 503.4,434.8 512.7,441.9 568.9,450.7 569.5,407.5 569.5,386.1 569.5,392.7 576.4,360.3 752.6,328.9 868.3,290.9 880.6,302.6 892.5,317.2 900.1,335.6 900.6,358.5 916.4,387.1 926.6,246.3 926.8,260.4 928.7,190.9 932.0,123.5" fill="none" stroke="#0891b2" stroke-width="1.8" stroke-linejoin="round" opacity="0.9"/>
  <polyline points="80.0,481.5 80.0,475.9 81.0,469.0 83.7,471.1 84.1,473.8 122.2,477.0 126.4,481.2 193.1,486.3 194.8,461.0 225.0,451.0 250.1,454.1 253.9,457.9 258.1,462.7 416.0,468.7 458.3,439.2 459.9,442.9 478.3,424.6 488.0,429.1 503.4,434.7 512.7,441.8 568.9,450.6 569.5,407.3 569.5,385.9 569.5,392.5 576.4,360.1 752.6,328.6 868.3,290.5 880.6,302.2 892.5,316.9 900.1,335.2 900.6,358.2 916.4,386.8 926.6,245.7 926.8,259.9 928.7,190.2 932.0,122.7" fill="none" stroke="#db2777" stroke-width="1.8" stroke-linejoin="round" opacity="0.9"/>
  <polyline points="80.0,481.5 80.0,475.9 81.0,469.0 83.7,471.1 84.1,473.7 122.2,477.0 126.4,481.1 193.1,486.3 194.8,461.0 225.0,451.0 250.1,454.0 253.9,457.9 258.1,462.7 416.0,468.7 458.3,439.1 459.9,442.8 478.3,424.5 488.0,429.0 503.4,434.6 512.7,441.6 568.9,450.4 569.5,407.1 569.5,385.6 569.5,392.2 576.4,359.7 752.6,328.2 868.3,289.9 880.6,301.7 892.5,316.4 900.1,334.7 900.6,357.7 916.4,386.3 926.6,244.8 926.8,259.0 928.7,189.1 932.0,121.3" fill="none" stroke="#65a30d" stroke-width="1.8" stroke-linejoin="round" opacity="0.9"/>
  <polyline points="80.0,481.5 80.0,475.9 81.0,469.0 83.7,471.1 84.1,473.7 122.2,477.0 126.4,481.1 193.1,486.2 194.8,460.9 225.0,450.9 250.1,454.0 253.9,457.8 258.1,462.6 416.0,468.6 458.3,439.0 459.9,442.7 478.3,424.4 488.0,428.9 503.4,434.5 512.7,441.6 568.9,450.3 569.5,406.9 569.5,385.4 569.5,392.0 576.4,359.5 752.6,327.9 868.3,289.6 880.6,301.3 892.5,316.0 900.1,334.4 900.6,357.3 916.4,386.0 926.6,244.3 926.8,258.5 928.7,188.4 932.0,120.4" fill="none" stroke="#475569" stroke-width="1.8" stroke-linejoin="round" opacity="0.9"/>
  <polyline points="80.0,481.5 80.0,475.8 81.0,469.0 83.7,471.1 84.1,473.7 122.2,477.0 126.4,481.1 193.1,486.2 194.8,460.9 225.0,450.9 250.1,454.0 253.9,457.8 258.1,462.6 416.0,468.6 458.3,438.9 459.9,442.6 478.3,424.3 488.0,428.8 503.4,434.4 512.7,441.4 568.9,450.2 569.5,406.7 569.5,385.2 569.5,391.8 576.4,359.1 752.6,327.5 868.3,289.0 880.6,300.8 892.5,315.5 900.1,333.9 900.6,356.9 916.4,385.6 926.6,243.5 926.8,257.7 928.7,187.3 932.0,119.1" fill="none" stroke="#ea580c" stroke-width="1.8" stroke-linejoin="round" opacity="0.9"/>
  <line x1="950" y1="94" x2="972" y2="94" stroke="#ea580c" stroke-width="3"/><text x="980" y="98" font-size="12.5" fill="#374151">vip 9  146687</text>
  <line x1="950" y1="116" x2="972" y2="116" stroke="#475569" stroke-width="3"/><text x="980" y="120" font-size="12.5" fill="#374151">vip 8  146199</text>
  <line x1="950" y1="138" x2="972" y2="138" stroke="#65a30d" stroke-width="3"/><text x="980" y="142" font-size="12.5" fill="#374151">vip 7  145864</text>
  <line x1="950" y1="160" x2="972" y2="160" stroke="#db2777" stroke-width="3"/><text x="980" y="164" font-size="12.5" fill="#374151">vip 6  145348</text>
  <line x1="950" y1="182" x2="972" y2="182" stroke="#0891b2" stroke-width="3"/><text x="980" y="186" font-size="12.5" fill="#374151">vip 5  145014</text>
  <line x1="950" y1="204" x2="972" y2="204" stroke="#7c3aed" stroke-width="3"/><text x="980" y="208" font-size="12.5" fill="#374151">vip 4  144531</text>
  <line x1="950" y1="226" x2="972" y2="226" stroke="#d97706" stroke-width="3"/><text x="980" y="230" font-size="12.5" fill="#374151">vip 3  141806</text>
  <line x1="950" y1="248" x2="972" y2="248" stroke="#16a34a" stroke-width="3"/><text x="980" y="252" font-size="12.5" fill="#374151">vip 2  139916</text>
  <line x1="950" y1="270" x2="972" y2="270" stroke="#2563eb" stroke-width="3"/><text x="980" y="274" font-size="12.5" fill="#374151">vip 0  137584</text>
  <line x1="950" y1="292" x2="972" y2="292" stroke="#dc2626" stroke-width="3"/><text x="980" y="296" font-size="12.5" fill="#374151">vip 1  137584</text>
  <text x="80" y="542" text-anchor="start" font-size="12" fill="#6b7280">2026-01-01</text><text x="932" y="542" text-anchor="end" font-size="12" fill="#6b7280">2026-01-31</text>
</svg>
