<svg xmlns="http://www.w3.org/2000/svg" width="1000" height="520" font-family="ui-sans-serif, system-ui, sans-serif" viewBox="0 0 1000 520"><rect width="1000" height="520" fill="#fff"/><text x="78" y="28" fill="#111827" font-size="18" font-weight="700">Zone Recovery — KAITOUSDC best setting (equity / PnL)</text><text x="78" y="48" fill="#6b7280" font-size="12.5">lev 4 · ratio 4 · gap 20% · maxSteps 4 · maxDD 60% · random · vip 9 · 5 series, 100.0% win · vol $1317512 ($42501/day) · fees $111.46</text><text x="78" y="68" fill="#1d4ed8" font-size="12.5" font-weight="600">USDC · BNB −10% · taker 0.0085%</text><text x="934" y="28" fill="#16a34a" font-size="18" font-weight="700" text-anchor="end">+33498 USDT (+334.98%)</text><line x1="78" x2="934" y1="468" y2="468" stroke="#e5e7eb" stroke-width="1"/><text x="68" y="472" fill="#6b7280" font-size="12" text-anchor="end">0.00</text><line x1="78" x2="934" y1="392" y2="392" stroke="#e5e7eb" stroke-width="1"/><text x="68" y="396" fill="#6b7280" font-size="12" text-anchor="end">12280</text><line x1="78" x2="934" y1="316" y2="316" stroke="#e5e7eb" stroke-width="1"/><text x="68" y="320" fill="#6b7280" font-size="12" text-anchor="end">24561</text><line x1="78" x2="934" y1="240" y2="240" stroke="#e5e7eb" stroke-width="1"/><text x="68" y="244" fill="#6b7280" font-size="12" text-anchor="end">36841</text><line x1="78" x2="934" y1="164" y2="164" stroke="#e5e7eb" stroke-width="1"/><text x="68" y="168" fill="#6b7280" font-size="12" text-anchor="end">49122</text><line x1="78" x2="934" y1="88" y2="88" stroke="#e5e7eb" stroke-width="1"/><text x="68" y="92" fill="#6b7280" font-size="12" text-anchor="end">61402</text><line x1="78" x2="934" y1="406.1" y2="406.1" stroke="#9ca3af" stroke-dasharray="6 4" stroke-width="1.5"/><text x="934" y="400.1" fill="#6b7280" font-size="11" text-anchor="end">start 10000</text><polyline fill="none" stroke="#d97706" stroke-linejoin="round" stroke-width="1.2" points="78 295.3 79.2 297.5 80.6 296.8 82.1 295.1 83.9 296.5 85.6 296.8 87.8 295.2 89.2 293.6 90.7 293.1 92.4 294.9 93.8 291.8 94.4 288.8 95.2 288.3 96 288.3 96.5 290.3 96.8 291.2 97.4 289.6 97.7 289 98.4 288.8 98.9 286.6 99.1 288.3 99.8 288.2 101.1 288 102.6 288.1 104.5 286.2 105.6 286.9 106.8 290.6 108.3 291 109.4 288.3 109.8 285.4 110.2 286 111.2 287.8 112.4 289.4 113.6 289.9 114.4 293.4 115.7 292.2 116.7 292.3 117.1 288.8 117.6 288.1 118.2 288.3 119 291.4 119.8 290.3 120.3 289.8 121.1 289.7 122 289.3 122.4 292.3 122.6 286.9 123 289.3 123.3 290.6 123.7 286.9 124.3 286.8 124.7 284.2 125 282.6 125.4 282.4 125.9 282.5 126.3 282.2 126.8 279.5 127.3 282 127.9 278.1 128.7 278 129.6 278 130.7 277.5 131.1 273.6 131.8 272.2 132.7 274.6 133.3 266.1 133.4 260.5 133.4 264.8 133.4 260.2 133.4 260.2 133.4 261.7 133.5 268.7 133.5 264.2 133.6 263.5 133.7 255.9 133.8 256.7 133.8 247.1 133.9 249.1 133.9 245.8 134 238.5 134 235.1 134 239.5 134.1 244.6 134.1 244.4 134.2 244.9 134.2 243.7 134.3 241.7 134.3 243.2 134.4 242.9 134.4 240.8 134.5 235.6 134.5 235.3 134.6 240.6 134.7 241.3 134.7 239.6 134.8 242.6 134.9 246 135 245.7 135.2 246 135.3 243.2 135.4 242.2 135.5 246.3 135.7 245.1 135.8 244.6 135.9 245.2 136 250 136.2 250.1 136.3 248.4 136.4 249.3 136.5 249.2 136.7 248.8 136.9 247.9 137.2 249.5 137.4 249.4 137.7 246.7 137.8 251.3 137.9 252.3 138.2 251.9 138.7 252.2 139.1 251.9 139.5 252.6 139.9 256.5 140 258.3 140.5 256.6 140.9 260.8 141.1 264.5 141.5 263.2 141.7 268.3 141.9 267.4 142.2 265.7 142.5 263.2 142.7 261 142.9 264.9 143.1 263 143.4 262.7 144 262.9 144.6 259.1 144.7 254.1 144.8 253.1 144.9 253.6 145 253.3 145.1 251.6 145.3 254.3 145.5 253 145.8 250.8 145.9 250.4 146.1 249.2 146.3 250.1 146.5 252.2 146.6 252.4 146.8 256.6 146.9 258.8 147 260.5 147.1 260.8 147.3 260.6 147.7 260.2 148.1 261 148.6 258 149.4 257.4 150.2 255.9 150.8 254.3 151.1 256.2 151.7 257.5 152.1 259.3 152.8 256.9 153.7 256.9 154.7 256.6 155.4 259.1 156.3 259.2 157 259.3 158 257.8 159 256.6 159.8 254.6 160.5 254 160.9 248.2 160.9 257.3 161.1 254.3 161.4 257.8 161.9 259.4 162.5 258.4 163.5 259.2 164.5 257.4 165.4 258.1 166.3 259.5 167.3 259.3 168.2 258.9 168.6 262.1 169.5 261.7 170.3 260.9 171.1 261.1 171.9 261 172.6 259 173.2 258.9 173.9 260.2 174.6 260 175.2 258.2 175.4 259.4 175.9 260.5 176.3 259.7 177.1 260.1 177.6 261.4 178 260.9 178.1 261.1 178.3 262 178.4 262.6 178.5 264.2 178.7 265.3 178.9 265.1 179.1 263.3 179.4 263.9 179.6 266.4 180 263.3 180.8 263.7 181.6 264 181.7 264.1 182.2 268 182.8 267.4 182.9 271.1 183.7 268.8 184.3 268.8 185.3 267.6 185.8 268.8 186.4 268.1 187.5 269.1 188.1 269.1 188.5 267.2 188.9 268.8 189.3 269.9 189.7 268.3 190.2 265.4 190.5 261.7 190.9 262.3 191.3 267.5 192 264 192.6 264.5 193 261.4 193.3 259.9 193.6 264.5 193.7 266.7 194.2 265.6 194.5 265.1 195.1 267.3 195.3 269.1 195.6 268.5 196.2 265.6 196.7 260.5 197.1 262.1 197.7 261.2 198.3 262.9 198.9 266.7 199.1 267.8 199.5 265.4 199.7 264.8 199.8 264.7 200.1 263.6 200.6 262.2 201.2 262.8 202 263.8 202.9 265 203.5 264.2 204.2 267.8 204.9 267.5 205.4 263.4 205.8 263.7 206.4 263.1 206.9 261.1 207.3 264.4 208 262.7 208.5 264.9 209.2 261.4 209.9 260 210.5 259.2 211.5 260 212.3 259.1 213.3 260 214.1 259.3 215.6 257.8 216.4 263.9 216.9 265.1 217.6 260.6 218.2 263.5 218.9 264.2 220 262.5 220.6 261.4 221.7 260.2 222.3 263.9 223.1 264.8 223.8 264.5 224.4 265.1 224.8 266.4 225.3 267.5 225.8 268.1 226.7 266.8 227.3 268.3 227.9 267.9 228.2 268.9 229 265.9 229.3 266.4 229.8 266.5 230.3 265 230.8 262.6 231 260.5 231.4 259.9 231.8 258.7 232.1 262 232.5 258.3 232.8 257.8 233.1 259.4 233.3 261.7 233.6 259.2 234.1 262.4 234.2 265.7 234.5 263.9 234.7 267.5 234.9 267.5 235.1 270.1 235.2 273.5 235.3 275.2 235.5 274.3 235.8 273.2 236.3 273.2 236.5 278 236.7 281.2 236.9 276.8 237.5 276.6 238.1 274.7 238.9 276.4 239.7 272 240.3 267 240.5 264.8 240.9 263.2 241.3 264.2 241.8 263.5 242.7 262.9 243.5 262.6 244.1 263.5 244.6 266.4 245.2 271.8 245.6 273.6 246 271.2 246.5 270.2 246.9 268.2 247.5 266.4 248.6 270.5 249.3 267.9 250.3 267.1 250.8 269.9 251.8 267.8 252.6 262.8 253.2 261.8 253.9 261.7 254.3 258.2 254.6 262.1 254.9 262.6 255.2 262 255.5 263.5 255.9 259.1 256.3 261 256.9 262 257.8 259.9 258.2 255.3 258.4 257.6 258.7 262.6 258.8 261.6 259.1 262.2 259.6 265.6 259.7 264.9 259.8 266.2 260 268.1 260.4 264.8 260.5 259.5 260.7 262 261 263.9 261.2 266.5 261.4 267.8 261.6 269.1 261.9 269.7 262.2 266.4 262.5 265.7 262.9 263.6 263.3 264.3 263.7 259.8 264.2 260.8 264.8 261.1 265 255.4 265.2 254.2 265.3 250.6 265.4 255.3 265.6 251.8 265.8 258.3 265.9 258.9 266.1 259 266.5 257.1 266.9 259.3 267.2 257.4 267.5 258.9 267.6 259.9 268 259.3 268.3 253.5 268.5 252.8 268.8 252.2 269.1 256.7 269.3 254.1 269.7 249.1 270.1 248.4 270.4 245.5 270.6 244.2 270.9 243.4 271.2 242.6 271.3 241.1 271.4 246.6 271.6 248.1 271.7 253.9 271.9 256 272.1 258.6 272.5 253.6 272.6 252.3 272.9 247.3 273.2 241.7 273.4 245.1 273.5 243.1 273.7 248.4 273.9 241.8 274.2 245.6 274.5 246.9 274.8 241.7 275.1 242.5 275.2 244.9 275.3 243.1 275.3 249.9 275.4 250.9 275.4 253.3 275.4 254 275.5 252.2 275.6 253.6 275.6 253.6 275.7 253 275.7 252.3 275.8 252.4 275.9 251.5 276 252.5 276 253.4 276.1 252.8 276.2 251.1 276.3 252.3 276.6 248.3 277 248.5 277.4 248.8 277.6 247.7 278 248.2 278.3 247.2 278.5 246.7 278.8 246 279 246.8 279.3 249.1 279.4 254.6 279.4 252.8 279.6 250.2 279.8 247.2 280.1 250.6 280.4 245.7 280.6 240.5 280.8 238.6 280.9 236.3 281 238.1 281.2 237.9 281.3 241.3 281.5 244.3 281.7 244.4 281.9 244.5 282 249.5 282.2 249.9 282.4 248.8 282.6 245.4 282.9 249.7 283.1 252.2 283.4 250 283.6 249.1 283.8 249.1 284.1 253 284.3 255.3 284.3 258.4 284.4 259.1 284.8 259.8 285.1 257.1 285.3 261.1 285.7 256 286 257.5 286.3 261.3 286.6 261.1 286.7 262.4 286.9 267.2 287.2 264.5 287.5 265 287.7 261 287.9 265.8 288.1 265.6 288.3 263.2 288.5 264.2 288.7 261.1 288.9 260.4 289.1 257.6 289.5 253.8 289.7 250.1 289.9 250.1 290.1 249.8 290.4 251.3 290.7 250.8 290.9 250 291.3 252.5 291.7 255.1 292.1 250.6 292.4 253.7 293 255.2 293.4 248.4 293.8 251.2 294.2 254.3 294.7 259 295 257.3 295.4 260.3 296.2 257.6 296.6 253.6 296.8 249.4 297.2 251.9 297.8 252.4 298.7 249.7 299.1 252 299.5 253.5 300 254.3 300.5 250.4 300.7 251.1 300.9 257.4 301.4 251.9 301.9 256.2 302.5 254.3 303 251.2 303.4 249.4 303.9 251.3 304.6 251.7 304.9 243.7 305.1 243.2 305.3 239.1 305.6 237.6 305.9 237.5 306.2 240.5 306.8 244.3 307.1 243 307.5 245.7 308 245.4 308.4 245.3 308.8 244.3 309 248.8 309.2 243.8 309.4 238.1 309.6 233.2 309.7 231.1 309.8 230 310 229.2 310.1 231.7 310.4 231.7 310.6 234.6 311 234 311.4 231.5 311.7 233.4 311.9 230.6 312.1 230.6 312.4 227.1 312.6 228.2 312.8 225.9 313 226 313.1 233.5 313.3 230.6 313.6 226.6 313.9 226.5 313.9 224 314 224.6 314.2 218 314.2 216.7 314.3 224.6 314.4 225.1 314.5 228 314.6 228.8 314.7 230.9 314.9 236.1 315.1 237.7 315.3 241.4 315.5 240.8 315.6 239.6 315.8 239.5 316 239.4 316.2 237.1 316.4 237.5 316.6 234.2 316.7 229.3 316.8 224.8 316.9 225.6 317.1 223 317.2 226.4 317.3 229.3 317.4 230.6 317.7 227.9 317.9 232.8 318.3 231.9 318.7 231.6 318.9 231.6 319.2 230.2 319.5 230 319.9 234.3 320.1 236.2 320.3 238.3 320.7 237.7 320.9 236.2 321.2 242.3 321.4 245.2 321.9 244.8 322.4 243.1 322.8 244.5 323.3 244 323.9 240.3 324.5 237.7 325 236.2 325.4 237.8 326.2 237.3 326.7 243.2 327.2 245.3 327.6 249.2 328.2 248.3 328.9 246.4 329.5 247.9 330 247.4 330.8 249.5 331.2 253.4 331.5 254.3 332.1 247.9 332.8 250.8 333.8 254.4 334.6 255.6 335.1 251.5 336 253.7 337 253.3 337.8 250.7 338.6 251.1 339.1 247.6 340.1 247.9 340.8 245.1 341.4 237.8 341.6 231.3 341.8 230.3 342 231.5 342.2 227.7 342.4 234.3 342.7 233 343.2 236.2 343.6 232.4 343.9 235.6 344.4 231.3 345 233.4 345.1 230 345.3 233.4 345.8 229.4 346.2 228.7 346.5 226.5 346.8 228.7 347.4 233.4 348 230.6 348.5 229.8 349.1 230.9 349.2 226.7 349.7 228.9 350.3 230.8 351.1 226.9 351.9 228.8 352.4 228.6 353 228.3 353.7 233.1 353.7 238.9 354 233.7 354.3 236.6 354.7 237.7 355.2 238.4 355.7 234.2 356.2 232.4 356.6 230.1 357.1 230.6 357.6 225.9 358 228.1 358.2 229.7 358.9 233.9 359.7 232 360.1 223.6 360.7 226.9 361.2 224.5 361.6 229.4 361.6 233.4 361.9 235.3 362.5 234 363.2 234 363.8 234.9 364.2 234.6 364.5 236.5 365 236.6 365.7 234.5 366.5 236.6 367 230.7 367.3 228.9 367.8 233.6 368.4 236.8 368.9 234.6 369.6 232.5 370.1 233.7 371.1 234.6 371.9 235.5 372.3 238.9 372.8 236.8 373.1 237.1 373.5 237.6 374.1 235.5 374.9 235 375.9 237 377 237.5 377.5 242.2 378 242.6 378.7 242.9 379.5 244.7 380 245.4 380.7 248.6 381 242.4 381.5 244.5 382.1 240.6 382.4 242.9 382.8 247 383 240 383.4 239.3 383.8 238.6 384.2 238 384.6 235.5 385.1 233.4 385.6 236.2 386.1 239.2 386.6 238.6 387 236 387.8 232.8 388 228.3 388.4 230.6 388.7 229.8 389 221.1 389.2 221.7 389.5 220.1 389.7 221.4 389.9 218.9 390.1 215.5 390.3 213.4 390.5 215.8 390.7 218.4 390.8 216.7 391 220.2 391.2 216.5 391.3 215.2 391.4 215.2 391.6 212.2 391.7 217.2 391.9 221.7 391.9 225.7 392.1 220.8 392.3 219.5 392.5 213.9 392.7 212.8 392.9 211.5 393 207.2 393.2 212.6 393.3 212.3 393.5 209.1 393.6 206.3 393.8 204.8 393.9 205.5 394 203 394 200.5 394.1 205.6 394.2 208 394.4 206.3 394.5 205 394.6 203.8 394.8 200.8 394.9 198.9 395.1 198.6 395.2 194.9 395.3 196.6 395.4 198.1 395.5 202.6 395.7 198.3 395.8 198 396 195.8 396.1 194.1 396.2 195.9 396.4 197.7 396.6 199.2 396.7 202.6 396.9 205.3 397 206.3 397.2 209.2 397.3 208.5 397.5 210.7 397.6 212.2 397.8 209.3 397.9 208.4 398 204.5 398.2 207.3 398.4 207 398.5 202.9 398.6 199.4 398.7 194.8 398.8 193.5 398.9 190 399 187.6 399 183.2 399 179.9 399.1 177.6 399.1 185.3 399.1 188.5 399.2 180.7 399.3 182.2 399.3 178.6 399.4 169.7 399.4 167.6 399.5 169.1 399.5 166.4 399.6 165.1 399.6 165.5 399.6 172.4 399.7 170.4 399.7 164.6 399.8 162.8 399.8 162.7 399.9 161.2 399.9 160.8 400 162.4 400.1 160 400.1 160.4 400.2 163.3 400.2 165.9 400.3 167.8 400.3 164.3 400.4 164.8 400.5 159.3 400.5 156.7 400.5 157.7 400.6 158.8 400.6 153.4 400.7 156.1 400.8 153.8 400.9 155.2 400.9 151.3 400.9 154.8 401 152 401.1 155.5 401.2 162.7 401.2 166.1 401.3 164.2 401.3 163 401.4 163.2 401.5 162 401.6 164.2 401.7 168.6 401.8 167.2 401.8 170.3 401.9 171.4 402 172.2 402.1 173.7 402.1 175.3 402.3 175.2 402.4 176.8 402.6 178 402.7 184.4 402.8 185.8 402.9 187.5 402.9 186 403 184.8 403.1 188.8 403.3 188.8 403.4 186.9 403.6 186 403.7 185.9 403.9 185.1 404.1 189 404.2 185 404.4 185.4 404.5 180.4 404.6 180.2 404.8 179.9 404.9 176 405 175 405.1 177.2 405.2 179.8 405.4 180.5 405.5 182 405.7 177.4 405.8 177.7 406 177 406.1 172.6 406.3 176.9 406.5 179.2 406.7 177.8 406.9 178.6 407.2 178.7 407.3 182.5 407.5 183.4 407.6 181.7 407.9 185.5 408 189.9 408.2 198.2 408.3 195.7 408.5 194.9 408.6 198 408.8 197.2 409 196.1 409.3 196.8 409.4 200.8 409.4 201.7 409.5 199.6 409.6 203.9 409.6 197.3 409.7 198 409.8 203.3 409.9 203.6 410 203.5 410.1 199.6 410.1 195.6 410.2 197.6 410.3 199.3 410.4 201.1 410.5 208.4 410.6 206 410.7 202.3 410.9 197.8 411 199.5 411.2 205.3 411.3 206.8 411.5 203.8 411.7 205.1 411.9 205.1 412.2 201.3 412.5 201.4 412.8 203 413 204.5 413.1 200.6 413.4 202.6 413.6 201 413.9 203.7 414 201.3 414.3 199.1 414.4 195.3 414.6 201.8 414.8 199.8 415.1 200.4 415.4 198.8 415.7 197.2 415.9 200.2 416.2 202.4 416.3 191.6 416.3 194.7 416.4 194.9 416.5 195.5 416.6 194.2 416.7 199 416.8 202 417 205.6 417 209 417.1 209.8 417.2 208.4 417.3 208.8 417.4 208.8 417.6 208.8 417.8 209.1 418 207.7 418.4 208.3 418.7 206.4 419.1 206 419.4 205.9 419.6 203.6 419.9 201.1 420.1 200.1 420.4 202.6 420.6 201.1 420.9 201.1 421.3 205.3 421.7 204.5 422.1 204.8 422.5 204.1 423 203.5 423.6 203 424 200.9 424.2 201.5 424.4 203 424.8 200 424.9 198 425 196.1 425.1 192.8 425.1 189 425.2 188.5 425.3 187.1 425.4 184.8 425.5 189.1 425.6 188.4 425.7 192.6 425.9 185.9 426 181.2 426 178 426.1 184.9 426.2 186.7 426.4 183.3 426.4 180.5 426.5 180.5 426.6 179.6 426.7 181.1 426.8 175.8 426.9 174.4 427 172.6 427.1 170.9 427.2 171.3 427.2 178.9 427.3 178.4 427.4 178.1 427.5 175.6 427.7 175 427.8 175.8 427.9 170 427.9 167.3 428 164.8 428 162.1 428.1 161.1 428.1 157.9 428.1 159.9 428.1 161.9 428.2 162.1 428.2 163.1 428.3 167.3 428.3 167.9 428.4 166.6 428.5 165.1 428.6 168.9 428.7 164.6 428.8 165.9 428.9 165 429 160.4 429.1 159 429.2 156.6 429.2 157.9 429.3 155.4 429.4 158.1 429.5 156 429.6 161.5 429.7 153.8 429.8 151.6 429.9 154.3 430 152.2 430.1 153.7 430.2 149.8 430.2 149.8 430.3 147 430.4 145.6 430.6 144.7 430.6 144.6 430.7 139 430.8 141.2 430.9 142.6 430.9 138 431 141.7 431.1 141.9 431.2 146.6 431.3 143.5 431.3 141.6 431.4 131.9 431.4 136.7 431.5 132.7 431.5 133.5 431.6 127.3 431.6 124.1 431.7 120.8 431.7 121.5 431.8 120.1 431.8 122 431.9 118.4 431.9 122.3 431.9 126.1 432 123.4 432 121.8 432.1 116.1 432.1 119.9 432.2 119.9 432.3 118 432.4 123.3 432.5 119.3 432.5 121 432.6 120.6 432.7 123.3 432.8 130.4 432.8 133.8 432.9 133.1 433 134.6 433 136.5 433.1 139.4 433.2 139.9 433.3 138.9 433.4 138.4 433.5 132.9 433.6 130.1 433.7 129.1 433.8 131 433.9 137.6 434.1 139 434.2 137.4 434.3 138.4 434.5 135 434.7 132.3 434.8 131.2 434.9 132.1 435 131.5 435.1 133.2 435.3 134.5 435.5 136.7 435.8 132.2 436 130.3 436.2 134.2 436.4 133.8 436.5 131.9 436.6 131.1 436.7 130.4 436.9 128.5 437 123.8 437.1 125.1 437.1 127.2 437.2 128.6 437.3 134.9 437.4 137.2 437.6 135.6 437.7 127.9 437.8 128.4 437.9 131 438.1 131.7 438.2 129.1 438.3 132.8 438.5 136.5 438.6 133 438.8 136.2 439 138.6 439.1 141 439.3 142.3 439.4 143.1 439.4 134.1 439.5 141 439.6 141 439.8 140.9 440 144.1 440.1 144.2 440.3 147.7 440.6 146 440.7 148.7 440.9 151.3 441.2 151.9 441.6 153.7 441.8 155.9 442.1 153.3 442.4 152.9 442.6 153 442.8 150.8 443.2 154.6 443.3 155.6 443.4 154.7 443.7 158.3 443.9 155.3 444 154.4 444.4 156.4 444.8 158.5 445.2 158.4 445.5 163 446.2 162.2 446.7 160.1 447.3 160.6 447.7 163.2 448.4 160.6 448.7 157.2 448.9 157.8 448.9 160.2 449 158.5 449.1 155.8 449.4 155.7 449.9 157.7 450.3 159 450.7 161.3 451 162.2 451.4 161.1 451.9 159.1 452.2 157 452.6 159.2 453 160.2 453.3 155.9 453.5 157.2 453.8 155.4 453.8 151.5 453.9 155 454.1 154.3 454.2 152.8 454.4 155.4 454.6 154.7 454.8 156.5 455.1 157.6 455.3 159.9 455.5 160.1 455.7 158.7 455.9 160.7 456.1 162.2 456.3 162.6 456.5 164.9 456.6 166.3 456.8 166.6 457.1 166.6 457.3 168.2 457.7 169 457.9 172 458.1 171.7 458.3 174.7 458.4 177.1 458.6 176.5 458.8 175.8 459.1 176.8 459.4 176.9 459.6 175.9 459.8 174.3 460.2 172 460.5 173.8 460.9 173.9 461.4 170.9 461.8 167.9 462.3 172.5 462.8 171 463.4 174.4 464 172.9 464.4 169.7 464.6 173 464.8 171.6 464.9 171.7 465 170.5 465.2 164.3 465.3 161.4 465.4 162.9 465.5 157 465.7 161.3 465.8 167.6 465.9 167 466 157.6 466 155.3 466.1 156.6 466.1 156.3 466.2 151.9 466.2 155.3 466.3 157.7 466.4 163 466.5 161 466.7 161.2 466.8 157.2 466.9 158.5 467 155.5 467.1 160.6 467.2 163.6 467.3 166.4 467.5 166.4 467.7 163.4 467.9 163.9 468.2 162.1 468.3 162.5 468.5 165.3 468.6 164.3 468.8 163.9 468.8 157.9 468.8 163.3 469 164.2 469 162.8 469.1 171 469.2 170.4 469.3 174.4 469.3 179.2 469.4 173.5 469.6 173.7 469.7 171.8 469.9 175 470.1 173.3 470.3 173.8 470.6 172.6 470.8 166 471 174.2 471.1 169.2 471.1 165.8 471.3 166 471.5 166.9 471.6 162.4 471.8 159.9 472 162.9 472.3 166.3 472.5 162.7 472.7 160.2 472.9 158.4 473 149.4 473 154.4 473 150.6 473.1 147 473.1 143.5 473.2 142.2 473.2 147.2 473.3 146.4 473.4 152.3 473.4 152 473.6 152 473.6 153.1 473.6 155.9 473.7 155.9 473.9 154.1 474 159 474.2 161.3 474.4 160.6 474.4 162.5 474.6 162.6 474.9 162.9 475.2 160.8 475.4 163.6 475.5 168.5 475.7 165 476 163.8 476.4 166.8 476.6 164.2 476.8 163.9 477.1 158.6 477.3 157.2 477.5 163.6 477.8 166.7 478 166.2 478.3 165.9 478.6 165.6 478.9 163.5 479.3 165.7 479.6 164.2 480 163.3 480.2 162.3 480.4 159 480.6 156.5 480.8 160.6 481 155.9 481 154.2 481.1 159.6 481.3 159 481.5 156.8 481.6 159.9 481.7 154.1 481.9 158.4 482 160.2 482 156.5 482.2 156.8 482.3 153 482.4 149.7 482.5 149.7 482.5 146.7 482.6 147.7 482.6 154.1 482.6 156.4 482.6 159.7 482.6 170 482.6 171.8 482.6 169.3 482.7 177 482.7 179.1 482.7 187.2 482.7 187.5 482.7 185.7 482.7 188.9 482.7 192.8 482.7 193.4 482.7 199.9 482.7 208 482.7 206.7 482.7 202.9 482.7 200.3 482.7 198.7 482.7 199.9 482.7 199.7 482.7 200.2 482.7 208.3 482.7 211 482.7 206.2 482.7 207.9 482.7 204.1 482.7 205 482.7 201.9 482.7 209.2 482.7 215.6 482.7 222.9 482.7 218.8 482.7 219.6 482.7 224.6 482.7 212.2 482.7 224.9 482.7 224.1 482.7 222 482.7 219.1 482.7 219.1 482.7 226.3 482.7 226.4 482.7 236.2 482.7 238.2 482.7 233.8 482.8 233.8 482.8 230.3 482.8 229.1 482.8 236.5 482.8 236.2 482.8 237.6 482.8 238.1 482.8 232.6 482.8 230.7 482.8 226.6 482.8 225.4 482.8 231.7 482.8 227.6 482.8 233.4 482.8 242.5 482.8 237.5 482.8 243.9 482.8 241.4 482.8 248.9 482.8 246.7 482.8 235.8 482.8 233.4 482.8 235.9 482.8 229.6 482.8 227.5 482.8 230.3 482.9 235.3 482.9 231.5 482.9 229.2 482.9 230.9 482.9 239.5 482.9 240 482.9 241.6 482.9 239.6 482.9 244 482.9 248.8 482.9 247.2 482.9 242 482.9 241.6 482.9 245.4 482.9 247.1 482.9 248.3 482.9 248 482.9 249.4 482.9 248.5 482.9 251.5 482.9 245.8 482.9 240.5 482.9 241 482.9 238.6 482.9 240.8 483 237.7 483 230.3 483 234.9 483 234.4 483 242.7 483 238.9 483 241.7 483 244.2 483 246.3 483 242.5 483 243.9 483 246.1 483 253.4 483 249 483 251.4 483 253.7 483.1 258.8 483.1 257.5 483.1 262.4 483.1 263.8 483.1 264.5 483.1 263.8 483.1 260.6 483.1 264.9 483.1 266.4 483.1 267 483.1 261.6 483.1 262.8 483.1 258.6 483.1 261 483.1 267.5 483.1 270.2 483.1 272.8 483.1 274.7 483.1 267.7 483.1 269.8 483.1 264 483.1 265.9 483.1 264.1 483.1 262.2 483.1 259 483.2 262.5 483.2 260.8 483.2 262.7 483.2 264.2 483.2 266.1 483.2 273.4 483.2 271.9 483.2 272.5 483.2 271.6 483.2 270.3 483.2 259.5 483.2 260.5 483.2 256.6 483.2 258.4 483.2 259.6 483.2 256.2 483.2 256.2 483.2 254 483.2 251.6 483.3 251.2 483.3 256 483.3 261.3 483.3 261 483.3 258.2 483.3 254.2 483.3 252.5 483.3 252.3 483.3 250.1 483.3 257.2 483.3 250.2 483.3 252.6 483.4 247.7 483.4 250.9 483.4 257.3 483.4 260.6 483.4 265.4 483.4 262.8 483.4 262.9 483.4 266.7 483.4 267 483.4 268.7 483.4 271.8 483.4 270.9 483.5 269.9 483.5 273.3 483.5 275 483.5 277.6 483.5 281.1 483.5 273.6 483.5 270.6 483.5 267.6 483.5 262.6 483.5 257.1 483.5 254.8 483.5 256.2 483.5 246 483.5 237.8 483.5 241.9 483.5 244.9 483.5 248.2 483.5 246.5 483.5 238.8 483.5 239.5 483.5 240.1 483.5 234.6 483.5 239.5 483.5 233.6 483.5 234.7 483.5 231.2 483.5 225.9 483.5 225.8 483.5 231.8 483.5 231.9 483.5 227.9 483.5 236.3 483.5 244.7 483.5 239.2 483.5 243.6 483.5 242.2 483.5 244.2 483.5 249.9 483.5 254.1 483.5 255.2 483.5 259.3 483.5 262.7 483.5 252.2 483.5 255.4 483.6 256.3 483.6 260.2 483.6 263.3 483.6 258.3 483.6 254.4 483.6 255.7 483.6 255.6 483.6 264.8 483.6 263.4 483.6 262 483.6 252.8 483.6 258.6 483.6 258.6 483.6 259.2 483.6 259.9 483.6 259.3 483.7 261.2 483.7 262.9 483.7 264 483.7 265.4 483.7 261.4 483.7 260.6 483.7 259.8 483.7 260.1 483.7 255 483.7 252.7 483.7 250.5 483.7 249.1 483.8 254.6 483.8 256.3 483.8 260.4 483.8 259 483.8 254.8 483.8 256.5 483.9 251.6 483.9 254 483.9 252.7 483.9 255.2 483.9 256.5 483.9 251.4 483.9 255.8 484 250.3 484 252.5 484 251.8 484.1 258 484.1 254 484.1 249.9 484.1 249.4 484.1 250 484.2 252.8 484.2 253.1 484.2 254.1 484.3 257.1 484.3 261.4 484.3 258 484.3 262.7 484.3 256.5 484.3 256.2 484.4 255.4 484.4 258.3 484.4 253.8 484.4 251.6 484.5 255.6 484.5 254.6 484.5 256.5 484.6 258.8 484.6 256.8 484.7 258.3 484.7 254.2 484.7 252.2 484.8 252.1 484.8 254.6 484.8 250.1 484.9 254.1 484.9 256.5 484.9 255.2 484.9 246.9 484.9 248.3 484.9 254.6 485 252.2 485 255.8 485 252.4 485.1 251.9 485.2 253.9 485.2 257 485.2 257.4 485.3 255.7 485.3 256.2 485.3 254.3 485.4 250.3 485.4 248 485.4 247.9 485.5 249.7 485.5 251.2 485.6 249.1 485.6 252 485.7 249.9 485.7 252.1 485.8 252 485.9 249.5 485.9 242.6 485.9 247.6 485.9 252.1 486 253.8 486 251 486.1 251.9 486.2 250.8 486.2 250.4 486.3 251.6 486.3 250.3 486.3 249.2 486.4 249.1 486.5 250.8 486.5 250.9 486.6 250.2 486.7 250.4 486.7 250.3 486.8 248.8 486.9 248 487 249.3 487 246.9 487.1 245 487.1 244.5 487.1 246.9 487.2 247.8 487.2 248.2 487.3 246.2 487.3 245.4 487.4 243.9 487.4 242.8 487.5 241.7 487.5 242.2 487.5 240.5 487.5 238 487.5 237.7 487.5 237.2 487.5 236 487.5 236.1 487.5 236.1 487.6 242.3 487.6 240.2 487.6 242.4 487.6 246.1 487.6 247.9 487.6 248.5 487.7 246.4 487.8 245.7 487.8 244.8 487.9 246.5 488.1 248.4 488.2 249 488.3 249.6 488.6 249.5 488.7 250.3 488.9 248.5 489.1 249.7 489.2 253.8 489.3 254.6 489.5 250.9 489.7 251 489.9 251 490 249.4 490.2 253.1 490.3 251.9 490.6 249.4 491 247.7 491.2 252.5 491.3 254 491.6 253.7 491.8 251.6 492.1 251.9 492.2 253.8 492.3 255.5 492.3 260.7 492.4 261.8 492.5 259.4 492.6 257.6 492.7 254.9 492.7 248.1 492.7 257.2 492.8 260.8 492.9 259.5 493 260 493.2 259.2 493.4 259.1 493.5 262.2 493.6 264.4 493.7 263.7 493.8 265.7 493.9 266.8 494.1 267.4 494.1 269.8 494.2 270.7 494.3 270.9 494.4 270 494.5 270.7 494.6 268.9 494.7 266.7 494.8 266.1 494.9 263.8 495.1 265.6 495.3 266.9 495.5 268.3 495.6 266.3 495.7 268.9 495.9 269.7 496 268.3 496.2 267 496.3 271.6 496.5 270.6 496.5 275 496.6 273.5 496.7 273.2 496.9 271.3 497 271.5 497.2 271.2 497.4 270.7 497.6 272.8 497.8 270.2 498 271.3 498.1 271 498.4 272.5 498.5 269.4 498.7 270.2 498.8 269.1 498.9 267.7 499.1 271.5 499.2 273 499.4 271.6 499.6 268.9 499.8 268.8 500 270.6 500.2 269.7 500.4 269.3 500.5 268.9 500.7 265.8 500.8 265.6 501 266.3 501.1 268.5 501.3 266.7 501.4 268.2 501.5 270 501.7 268.2 501.9 268.2 502 269 502.1 269.1 502.2 271.4 502.4 271.2 502.6 270.8 502.7 269.9 503 269.4 503.2 270.6 503.5 268.9 503.8 268.5 504.1 270.3 504.5 268.8 504.7 270.5 505 269 505.2 267.4 505.3 269.7 505.4 266.8 505.4 265.4 505.5 263.7 505.6 265.2 505.7 266.6 505.8 265.8 505.9 266.7 506 268.1 506.2 267.5 506.3 268.1 506.5 268.3 506.7 269.2 506.9 268.6 507 267.9 507.1 268.3 507.2 266 507.2 264.7 507.4 265.2 507.6 264.5 507.8 261.8 507.8 261.2 507.9 259.8 507.9 257.9 508 259.8 508.1 259.2 508.2 258.9 508.4 259.2 508.6 263.2 508.9 261.3 509.2 261.9 509.7 261.4 509.9 257.7 510.1 262 510.3 264.9 510.4 267.1 510.5 269.7 510.6 265.7 510.8 263.7 511 264.5 511.3 264.1 511.7 265.3 512 262.3 512.3 262.9 512.5 263.2 512.8 263.6 513.1 264.9 513.5 261.7 513.8 261.6 514 264.2 514.2 264.8 514.4 269.7 514.4 270.8 514.5 272.2 514.7 270.5 515 269.2 515.2 271 515.5 266.9 515.8 266.3 516.1 265.3 516.5 264.5 516.8 263.5 517.2 263.6 517.6 266.1 518.1 264.5 518.5 265.1 518.9 262.6 519.4 262.8 519.8 264.2 520 269.9 520.3 268.8 520.7 271.9 520.9 273.3 521.2 272.5 521.5 271.8 522.1 272.4 522.6 270.9 523.1 271.2 523.6 270 524.1 271.6 524.6 271.5 525.1 270.6 525.7 270.2 526.3 270.3 527 269.1 527.6 272.8 528 275.7 528.4 275.3 528.9 275.7 529.3 275.6 529.8 275.5 530.2 276.5 530.5 278 531.1 275.6 531.7 274.2 532.2 274 532.7 272.5 533 271.5 533.2 271.2 533.6 273.7 533.9 275.2 534.3 274 534.8 275.4 535.2 278.3 535.6 278 535.9 278.5 536 280.3 536.3 279 536.8 278 537.2 275.8 537.5 275.6 537.9 276.4 538.2 275.6 538.5 277.6 539 281.4 539.6 280.5 540.3 282.7 541.1 280.2 541.8 279 542.8 278.5 543.6 278.5 544.4 280.1 545.3 278.2 545.8 280.1 546.6 278.4 547.4 277.8 547.8 279.1 548.1 279.2 548.4 280.6 548.8 284.5 549.1 285.2 549.7 283.7 549.9 279.9 550.4 282.3 550.7 283.9 551.5 281.5 552 284.7 552.7 285 553.3 282.3 553.7 276.7 553.7 274.6 553.9 275 554.3 276 554.7 276.5 554.8 273.1 555.2 274.9 555.5 271.3 555.8 273.3 556.2 277.1 556.8 276.3 557.3 275.7 557.5 270.4 557.6 270.4 557.8 271.8 558.2 273.3 558.6 273.9 559.1 272.7 559.5 277.4 560 275.8 560.3 274 560.7 278.1 561.2 278.9 561.7 278.9 562.3 280.5 562.8 282.2 563 284.6 563.4 284.1 563.8 282.3 564.2 281.1 564.8 281.3 565.3 283.4 566 282.2 566.5 283.7 566.9 283.5 567.2 282.6 567.6 283.9 568.2 283.2 568.7 281.1 569.2 279.5 569.9 281.4 570.4 282.8 571 282 571.6 282.3 572.5 280.7 573.3 281.4 574.1 282.7 574.4 284.6 574.5 284.3 574.8 287.6 574.8 288.4 575 286.1 575.1 299.9 575.1 318.6 575.1 315.2 575.1 317 575.1 303.8 575.1 298.9 575.2 299.9 575.2 300 575.2 302.4 575.3 299.8 575.3 301.4 575.4 302.7 575.4 302.3 575.4 305.3 575.5 303.5 575.5 303.7 575.6 303.2 575.6 303 575.7 302.4 575.8 300.9 575.8 301.2 575.9 298.7 575.9 299.5 576.1 301 576.3 298.9 576.5 298.5 576.7 297.3 577 297.2 577.1 300.2 577.4 301.3 577.8 300.2 578.3 298.4 578.7 299 579.2 300.6 579.7 301.4 580.3 299.8 580.8 300.1 581.1 303.5 581.6 304.7 582 305.7 582.4 308.4 582.8 308.7 583.5 306.7 583.9 308.8 584.3 310 584.6 308.1 585 308.1 585.4 309 585.7 308.5 585.9 307.5 586.2 307.5 586.6 309.3 587 309.4 587.3 312.1 587.7 310.8 588 310.3 588.3 310.9 588.5 311 588.7 311.6 588.9 313.8 589.2 312.7 589.4 315.4 589.6 315.6 590.1 315.6 590.4 314.6 590.6 315 590.9 315.8 591.3 314.3 591.4 315.5 591.5 314.5 591.7 314 591.9 313.6 591.9 313.8 592.1 312.5 592.4 313 592.6 313.7 592.9 315.2 593.2 315 593.6 312.4 594 310.6 594.4 312.1 594.7 311.4 595.2 311.2 595.4 313.4 595.6 314 595.9 313.6 596.3 314.3 596.7 313.4 597 312.6 597.3 310.9 597.5 312.3 597.7 312.8 597.8 313.1 598.1 312.6 598.4 313.5 598.7 314.6 599.2 314 599.6 315.3 600.1 316.1 600.5 316.7 600.7 317.8 601.1 319.2 601.4 319.9 601.8 320.5 602.2 317.5 602.8 318.4 603.1 320.4 603.4 319.8 603.6 323.5 603.8 324.4 603.9 325.4 604.1 324.8 604.3 323.5 604.5 324.5 604.8 323.5 605 327.5 605.2 326.9 605.5 326 605.8 323.8 606.5 325 606.8 326.1 607.5 325.9 608.1 325.8 608.6 324 609 326.6 609.6 327.3 609.9 330.2 610.3 329.2 610.9 328.1 611.4 328.8 611.9 331.6 612.2 332.1 612.5 333.9 613 333.8 613.3 331.5 613.6 333.7 614.1 334.1 614.6 333.9 615.3 331.6 615.8 330.7 616.2 328.7 616.8 332.1 617.6 334.5 617.9 335.8 618.3 333.8 618.8 336.1 619.3 335.8 619.5 334.2 619.7 335.2 620 335.3 620.3 334.8 620.6 337.5 621.1 338.3 621.5 339.8 621.7 342.3 621.9 345.3 622.1 345.9 622.3 343.8 622.5 343.8 623.1 346.9 623.1 351.1 623.3 349.7 623.6 350.3 624 352.4 624.4 352 624.8 348.4 625.4 348 625.7 347.5 626 344.5 626.6 345.3 627.1 346 627.7 349.5 628.3 351.5 628.7 351.8 629.3 349.8 629.7 351.4 630.3 352 630.8 349.9 631.2 345.4 631.6 345.7 632.2 345.3 632.9 347.9 633.7 349.2 634.3 347.6 635 345.4 635.8 346.2 636.8 345 637.6 344.3 638.5 345.3 639.5 347.8 640.5 349.9 641.6 349.4 642.7 349 643.9 351.6 644.2 355.1 644.4 356.4 644.7 356 645.2 352.5 645.7 352 646.5 352.6 646.7 349 646.9 347.8 647.2 348 647.5 347.5 648 348.3 648.5 348.1 649.1 347.8 649.4 349.4 649.8 352.6 650.1 355.1 650.3 354.2 650.5 355.2 650.6 355.4 650.9 355.5 651.3 354.3 651.6 354.7 652 352.4 652.5 352.4 652.7 346.9 652.8 345.8 652.9 344.1 653.1 342.8 653.4 340.8 653.7 345.7 653.8 349.5 653.9 348.7 654.1 350.3 654.5 348.1 654.9 346.5 655.3 347 656.2 348.1 657 349.7 657.6 351.3 658 351.2 658.6 351.1 659.1 350.5 659.6 351.3 660 351 660.6 351.9 661.2 352.2 661.8 352.2 662.3 352.9 662.7 352 663.3 352.7 664.1 354 664.8 352.9 665.4 354.3 665.9 352.4 666.5 355.1 667 357.1 667.3 358.1 667.5 360.7 668.1 358.1 668.6 359.1 669 358.3 669.7 358.2 670.1 358.9 670.5 359.5 670.8 360.6 671.2 362.3 671.7 363.8 672 362.7 672.6 364 673.3 362.9 673.6 366.3 674 365 674.4 365.9 674.6 367.2 674.9 368.3 675.1 370.7 675.3 371.6 675.5 371.8 675.7 372.6 675.9 367.3 676 362 676 359.1 676.1 360.4 676.2 364.5 676.3 365.4 676.6 365.9 676.7 363.2 677 364.3 677.3 360.5 677.6 362 678 364.7 678.4 364.7 678.9 367.1 679.5 369.6 679.8 371.1 680.4 371.2 680.7 373.1 680.9 373.4 681.3 373.9 681.6 376.4 682.1 374.2 682.5 371.8 683.4 373.3 684.4 373.2 685 374.4 685.2 376.5 685.5 377.1 685.6 372 685.6 370 685.6 372.2 685.7 373.3 685.8 370.7 685.9 371 686 369.3 686.3 366.7 686.4 359.8 686.5 362.8 686.6 362.8 686.7 357.6 686.7 357 686.7 350.5 686.8 346.7 686.8 342.9 686.8 342.9 686.8 346.9 686.8 344.2 686.8 342 686.8 342.3 686.9 344.2 686.9 334 686.9 330.7 686.9 334 686.9 334.3 686.9 333.6 687 339.2 687 340.4 687 343.3 687 343.2 687 341.4 687.1 338.8 687.1 338.8 687.2 342 687.2 343.5 687.3 341.8 687.3 343.2 687.4 347.1 687.4 346.9 687.5 349.7 687.5 351.6 687.6 352.6 687.7 353.9 687.8 354.9 687.9 354.6 688 351.6 688.1 351.2 688.2 347.1 688.3 347.2 688.4 349.1 688.5 350.2 688.6 354.8 688.7 351.6 688.9 353.7 689 347.2 689.1 347.7 689.1 342.2 689.1 344 689.2 343.4 689.3 341.8 689.4 344.2 689.4 348 689.4 352.1 689.4 355.5 689.4 354.5 689.4 353.8 689.4 358.4 689.4 356.7 689.4 354.9 689.5 353.5 689.5 357.1 689.5 360.9 689.5 357 689.6 357.7 689.7 356.7 689.8 354.6 689.9 357.7 690 357.9 690.1 357.2 690.1 358.9 690.3 358.3 690.5 358.9 690.8 360.2 691 362 691.3 360.4 691.5 362.3 691.7 365.8 691.9 367.3 692.1 368.4 692.3 368.1 692.5 370 692.8 368.2 693 370.6 693.3 368.4 693.6 369.6 694 369.2 694.4 366.9 694.5 365.8 694.6 363.3 694.7 364.2 694.9 364 695 363.9 695.2 360.1 695.4 362.5 695.6 363.3 695.9 365.7 696.3 368.1 696.6 367.5 697 369.1 697.4 368.7 697.7 371.8 697.8 373.3 697.8 373.4 698 372.4 698.4 371.2 698.9 370 699.3 371.4 699.5 371.5 699.9 372.1 700.4 370.9 700.8 370.9 701.3 371.8 701.5 372.8 701.7 372.7 701.9 374.4 702 374 702.3 374.6 702.4 375.5 702.7 374.6 702.9 374.1 703.2 373.2 703.6 372.7 703.9 370.6 704 370.8 704.3 368.7 704.5 371 704.6 369 705 370.4 705.4 369.9 705.6 367.7 705.8 366.7 706.2 365.8 706.5 364.5 706.7 361.7 706.9 361.1 707.4 363.2 707.7 366.7 708 368 708.4 367.2 708.8 366.8 709.2 370.7 709.6 368.7 710.2 366.7 710.7 365 711.1 364.5 711.6 362.3 712.3 363.5 712.9 360.8 713.1 364.4 713.3 368.6 713.6 370 714.1 370.1 714.7 369.3 715.3 369.3 715.6 368.1 716 368.4 716.7 365.8 717.3 367.8 717.7 365.3 718.2 364.6 718.9 362.2 719.2 361.1 719.5 359 719.7 361.8 720.1 364.1 720.5 363.7 720.9 363.7 721.5 362.4 721.9 363.9 722.4 360.1 723 362 723.9 363.6 724.8 365.4 726 364.8 726.4 362.2 727 363.2 727.4 359.5 727.7 357.7 727.8 354.6 728.2 353.7 728.5 357.4 728.9 358.9 729.4 356.4 729.7 360 730.4 359.3 731.2 361.5 731.8 361.3 732.7 360.9 732.9 357.9 733.1 355.3 733.3 353.8 733.6 355.8 733.9 354.5 734.6 356.8 735.8 357 736.9 356.1 737.9 359.1 739.2 359.2 740 358.3 740.7 356.8 741.1 360.2 741.4 362 741.9 362.5 742.6 364.7 743 362.7 743.5 362.1 744.4 360.4 744.9 362.3 745.4 363.5 746.1 361.7 746.6 360.2 747.6 362.4 748.5 362.6 749.1 362.4 749.5 360.8 750.2 360.9 750.8 361.9 751.2 359.8 751.3 359.7 751.4 359.1 751.8 361.1 752 359.5 752.3 361.4 752.6 358 753 357.4 753.5 360.8 753.9 361 754.4 358.2 754.7 359.9 755 361.3 755.4 360.1 755.9 360.7 756.7 360.4 757.2 360.7 757.5 363 757.7 366.5 757.8 365.3 758.1 362.6 758.1 363.9 758.2 363.2 758.3 363.2 758.4 363.5 758.5 361.7 758.7 362.4 758.8 364.4 759 363.4 759.2 363.8 759.2 363.8 759.3 365.9 759.4 368.6 759.5 368.1 759.6 368.2 759.7 368.8 760 368.8 760.2 369.1 760.5 370.6 760.8 371.5 761.4 372.1 761.7 372.7 762 373.1 762.2 374.5 762.5 372.7 762.9 373 763.1 376.7 763.3 377.3 763.6 379.8 763.7 381.1 764.1 381.6 764.5 383.7 764.9 379.8 765.3 378.6 766 378.8 766.5 382.4 767.5 380.3 768.1 379 768.6 380 769.2 383 769.6 378.1 770.1 375.5 770.6 373.3 771.1 374 771.8 375.7 772.7 380 773.3 378.8 774 379.4 775.3 380.3 776.2 378.5 776.9 378.1 777.4 376.8 778 377 778.8 381 779.5 382.7 780.3 381.1 781.9 382.6 783.3 381 784.1 378.6 784.5 375.1 784.8 376.1 785.1 373.1 785.2 371.9 785.6 369.4 785.8 367.5 785.9 362.5 786.1 365.3 786.4 371.1 786.7 368.7 787.2 368.4 787.6 367.5 788 368 788.5 370.2 788.9 369.7 789.5 367.5 789.9 366.8 790.5 367.2 791.4 369 792.4 369.7 793.2 365.9 793.7 363.6 794.5 365.9 795.6 366.1 796.3 367.9 797.4 367.3 798 365.9 798.6 367.1 799.6 368.7 800.4 371.4 801.1 370.6 801.7 368.6 802.8 369.3 803.8 370.9 804.7 368.9 805.1 367.6 805.9 366.3 806.5 368.7 807.2 368.4 807.6 368.1 807.8 365.6 807.9 363.8 808.1 365.9 808.3 364.3 808.4 366.5 808.6 367.1 808.9 368 809.3 366.4 810.3 369.4 811.1 368 811.7 370.7 812.4 370.3 813 372.4 813.4 370.6 813.9 371.8 814.4 368.3 814.6 364.7 814.9 365.6 815.3 364 815.7 367.8 816.1 365.7 816.4 367.7 816.9 366.8 817.4 365 817.8 361.3 818.1 360.3 818.4 361.6 819 360.4 819.4 359.5 819.9 359 820.3 359.3 820.9 359.8 821.8 358.7 822.8 354.6 823.6 354.1 824.1 357.7 824.8 358 825.7 357.5 826.5 358.6 827.3 357.7 828.2 357.7 828.9 359.5 830 358.9 830.7 356.5 831.5 358.3 832.3 360.6 833.2 358 834.1 358.6 834.9 357 835.6 357.7 836.8 358.4 837.4 357 838.1 359.5 838.8 357.7 839.4 358.7 840 361.1 840.3 358.8 840.8 359.6 841.1 359.5 841.5 359.7 842 360.7 842.5 360.7 843.3 361.2 844 361.6 844.4 362.9 845.3 364.5 845.9 363.5 846.3 362.2 847 360.8 847.5 362.5 847.9 360.4 848.1 361.5 848.8 360.5 849.8 354.9 850.1 351.5 850.4 350.2 850.6 353.6 850.9 353.9 851.3 357.8 851.6 358.9 852 360.3 852.5 356.3 852.8 355.8 853.1 353.1 853.5 356.5 854 357 854.2 359.9 854.5 363.5 854.8 361.6 855.3 365.6 855.9 365.7 856.4 365.3 857.1 365.7 858 367.7 858.7 366.1 859.4 364.7 860.4 367.5 861.1 368.4 862.3 368.1 863.8 367.5 864.4 369.6 865.1 369.4 865.9 371.3 866.9 369.7 867.7 369.4 868.1 370.2 868.3 369.8 868.5 370.4 868.6 370.7 868.7 381 868.7 382 868.8 384.6 868.9 380.5 869.2 382.2 869.3 383.3 869.5 381.6 869.7 385.1 869.9 383.5 870.1 384.7 870.3 384.7 870.7 380.1 871 377.2 871.3 379.8 871.6 382.1 871.9 382 872.3 384.3 872.5 384.7 872.9 386.3 873 389 873.3 390.4 873.6 387.3 874 385.6 874.3 384.4 874.8 383.2 875.3 381.1 875.6 380.3 876.1 381.5 876.8 380.9 877.9 382.3 878.6 383.6 879.1 382.5 879.6 379.5 880 379.7 880.6 383.1 880.7 388.2 880.8 388.7 880.9 386.7 881.2 390.6 881.5 393.7 881.7 395.1 882 393.5 882.5 392.4 882.8 393.3 883.4 393.9 883.8 391.3 884.1 388.6 884.8 390.9 885.5 390 886.2 392.6 886.6 394.4 887.1 388.4 887.6 392.2 888.1 390 888.6 391 889 393.3 889.7 393.3 890.4 392.3 891.1 390.9 891.6 387.8 892.1 389 892.5 385.9 893 385.6 893.6 388.4 894 387.4 894.4 387.9 894.8 390.9 895.2 388.6 895.6 387.5 895.8 385.9 896.1 385.8 896.5 388.3 896.7 386.3 897 385.3 897.5 385.6 897.7 384 898 382 898.3 383.4 898.7 384.1 899 380.6 899.4 381.4 899.8 384.4 900 389.2 900.2 384.6 900.4 380.7 900.5 381 900.7 378.2 900.8 378.6 901.1 378 901.4 378 901.8 378.6 902.1 379.8 902.4 382.6 902.6 383.8 902.8 382.3 903.1 383.4 903.4 379.6 903.8 380.7 904.2 378.7 904.8 379.8 905.4 379.2 906 381.3 906.6 376.9 907 380.1 907.7 378 908.4 379.8 909.1 382.5 909.7 382 910.7 383.2 911.6 382.9 912.4 384.2 912.9 381.4 913.6 380.7 913.9 383.9 914.3 384.7 915.1 387.8 915.3 386.9 915.9 389 916 389.8 916.3 392.4 916.4 393.3 916.6 393.8 916.9 391.8 917.4 390.7 918.1 393.9 919 391.6 919.7 393.4 920.1 395.5 920.5 396.1 920.9 397.1 921.4 397.1 922 398.4 922.1 399.8 922.5 398.8 922.8 402.3 922.9 403.8 923 406.3 923 411.8 923.1 410.5 923.2 411.5 923.3 413 923.3 413.1 923.4 412.3 923.4 412.3 923.6 412.5 923.8 408.8 923.9 409.6 924.2 411.1 924.6 413.1 924.8 415.2 925 414.2 925.2 412 925.3 411.2 925.4 412.7 925.5 408.7 925.5 411.3 925.7 410.8 925.9 413.1 925.9 407.4 926 410.6 926.1 410.9 926.2 415.1 926.2 422.9 926.2 419.6 926.2 417 926.3 417.6 926.4 421 926.6 420.8 926.7 419.9 926.8 421.3 927 422.3 927.2 421.8 927.4 423.8 927.6 425.2 927.8 424.6 927.9 427.1 927.9 435.4 928 431.2 928 423 928 422.9 928 421.9 928.1 419.7 928.1 420.7 928.2 422.5 928.3 421.9 928.4 419.4 928.6 420.4 928.8 420.1 929.1 424.6 929.3 422.9 929.5 421.9 929.8 420.7 930.1 422.5 930.4 420.8 930.6 418.7 930.9 416 931.2 411.7 931.4 409.4 931.6 408.7 931.9 409.9 932.4 409.4 933 405.3 933.3 405.9 933.5 404.3 933.7 406.3 934 403.9" opacity=".6"/><text x="942" y="472" fill="#d97706" font-size="11" text-anchor="start">0.28</text><text x="942" y="396" fill="#d97706" font-size="11" text-anchor="start">0.38</text><text x="942" y="320" fill="#d97706" font-size="11" text-anchor="start">0.48</text><text x="942" y="244" fill="#d97706" font-size="11" text-anchor="start">0.58</text><text x="942" y="168" fill="#d97706" font-size="11" text-anchor="start">0.68</text><text x="942" y="92" fill="#d97706" font-size="11" text-anchor="start">0.78</text><text x="942" y="80" fill="#d97706" font-size="11" font-weight="600" text-anchor="start">price</text><polygon fill="#16a34a" fill-opacity=".08" points="314.2 468 314.2 406.1 314.2 380.4 315.4 389.5 389.5 401 431.6 344 482.7 292.5 603.7 219.4 621.7 245.4 923 116.1 926.2 152.9 931.1 198.8 931.1 468"/><polyline fill="none" stroke="#16a34a" stroke-linejoin="round" stroke-width="2" points="314.2 406.1 314.2 380.4 315.4 389.5 389.5 401 431.6 344 482.7 292.5 603.7 219.4 621.7 245.4 923 116.1 926.2 152.9 931.1 198.8"/><line x1="88" x2="110" y1="102" y2="102" stroke="#16a34a" stroke-width="2.5"/><text x="116" y="106" fill="#374151" font-size="11.5">equity</text><line x1="88" x2="110" y1="118" y2="118" stroke="#d97706" stroke-width="2.5" opacity=".8"/><text x="116" y="122" fill="#374151" font-size="11.5">price</text><text x="78" y="502" fill="#6b7280" font-size="12" text-anchor="start">2026-01-01</text><text x="934" y="502" fill="#6b7280" font-size="12" text-anchor="end">2026-01-31</text></svg>