<?xml version="1.0" encoding="UTF-8"?>
<svg xmlns="http://www.w3.org/2000/svg" width="1000" height="520" viewBox="0 0 1000 520" font-family="ui-sans-serif, system-ui, sans-serif">
  <rect width="1000" height="520" fill="#ffffff"/>
  <text x="78" y="28" font-size="18" font-weight="700" fill="#111827">Zone Recovery — XRPUSDT best setting (equity / PnL)</text>
  <text x="78" y="48" font-size="12.5" fill="#6b7280">lev 4 · ratio 3 · gap 20% · maxSteps 4 · maxDD 20% · random · vip 9  ·  10 series, 100.0% win · vol $535717621 ($17281216/day) · fees $81965</text>
  <text x="78" y="68" font-size="12.5" font-weight="600" fill="#1d4ed8">USDT · BNB −10% · taker 0.0153%</text>
  <text x="934" y="28" text-anchor="end" font-size="18" font-weight="700" fill="#16a34a">+10282825 USDT  (+10.28%)</text>
  <line x1="78" y1="468.0" x2="934" y2="468.0" stroke="#e5e7eb" stroke-width="1"/><text x="68" y="472.0" text-anchor="end" font-size="12" fill="#6b7280">0.00</text><line x1="78" y1="392.0" x2="934" y2="392.0" stroke="#e5e7eb" stroke-width="1"/><text x="68" y="396.0" text-anchor="end" font-size="12" fill="#6b7280">24075803</text><line x1="78" y1="316.0" x2="934" y2="316.0" stroke="#e5e7eb" stroke-width="1"/><text x="68" y="320.0" text-anchor="end" font-size="12" fill="#6b7280">48151606</text><line x1="78" y1="240.0" x2="934" y2="240.0" stroke="#e5e7eb" stroke-width="1"/><text x="68" y="244.0" text-anchor="end" font-size="12" fill="#6b7280">72227409</text><line x1="78" y1="164.0" x2="934" y2="164.0" stroke="#e5e7eb" stroke-width="1"/><text x="68" y="168.0" text-anchor="end" font-size="12" fill="#6b7280">96303212</text><line x1="78" y1="88.0" x2="934" y2="88.0" stroke="#e5e7eb" stroke-width="1"/><text x="68" y="92.0" text-anchor="end" font-size="12" fill="#6b7280">120379015</text>
  <line x1="78" y1="152.3" x2="934" y2="152.3" stroke="#9ca3af" stroke-width="1.5" stroke-dasharray="6 4"/><text x="934" y="146.3" text-anchor="end" font-size="11" fill="#6b7280">start 100000000</text>
  <polyline points="78.0,157.5 78.5,158.5 79.2,159.0 79.9,158.4 80.4,156.4 81.2,158.0 81.8,159.4 82.2,160.9 82.6,162.1 83.0,159.0 83.5,158.8 83.9,158.6 84.3,157.8 84.8,157.7 85.4,158.7 86.0,160.0 86.7,157.8 87.2,155.8 87.5,155.0 87.8,152.1 87.9,149.9 88.1,147.6 88.2,145.4 88.3,146.4 88.4,146.1 88.7,145.6 88.9,143.2 89.1,141.9 89.3,140.1 89.5,141.2 89.7,144.4 90.0,143.5 90.3,143.2 90.7,142.6 91.1,141.3 91.6,141.5 91.9,142.4 92.2,141.1 92.6,141.8 93.0,140.5 93.3,139.6 93.6,141.0 93.9,142.4 94.2,140.9 94.5,140.9 94.9,138.6 95.1,141.8 95.5,142.4 95.8,141.0 96.3,142.1 96.8,142.0 97.3,141.0 97.8,142.0 98.3,141.5 98.7,144.3 99.2,143.4 99.9,141.7 100.4,140.3 100.8,138.8 101.2,139.6 101.8,141.7 102.5,142.1 103.2,143.4 103.8,143.2 104.5,143.3 104.9,140.9 105.4,140.7 105.7,139.4 106.0,139.4 106.3,140.5 106.8,140.5 107.3,137.1 107.7,136.1 108.0,137.8 108.4,137.3 108.8,134.6 109.2,135.0 109.6,134.3 110.0,136.9 110.5,135.4 110.9,138.3 111.4,136.8 111.9,136.4 112.2,136.5 112.7,137.3 113.2,136.2 113.6,135.1 114.0,134.0 114.7,136.9 115.3,136.3 115.7,133.5 116.1,133.7 116.5,133.1 116.9,134.7 117.4,134.2 117.9,133.0 118.4,132.1 118.8,133.8 119.3,134.1 119.6,134.9 120.1,134.2 120.7,134.6 121.0,135.4 121.3,135.6 121.5,134.6 121.8,132.4 122.1,136.4 122.5,136.0 122.7,140.0 122.9,138.7 123.1,136.5 123.4,135.3 123.7,135.2 124.0,133.2 124.2,130.6 124.3,126.8 124.3,127.1 124.5,126.5 124.7,126.6 124.9,125.0 125.0,121.3 125.2,123.8 125.3,123.7 125.6,124.2 125.9,124.1 126.1,123.9 126.5,123.5 126.8,123.4 127.0,122.1 127.3,121.4 127.5,121.2 127.7,118.6 128.0,118.4 128.2,117.9 128.4,115.7 128.6,114.6 128.7,119.5 128.9,119.9 129.3,121.3 129.5,120.9 129.9,121.5 130.3,122.6 130.5,123.9 130.9,124.5 131.3,125.0 131.5,123.6 132.0,125.7 132.5,125.7 132.9,125.0 133.3,126.9 133.6,126.1 134.0,127.2 134.4,127.4 134.8,128.4 135.1,129.8 135.5,130.1 135.9,127.8 136.2,129.1 136.6,128.0 136.8,126.1 137.1,124.9 137.4,126.1 137.7,127.0 138.0,127.8 138.4,126.7 138.7,127.5 139.1,127.3 139.7,128.4 140.3,126.5 140.8,126.2 141.2,128.1 141.7,126.3 142.2,127.2 142.6,124.3 142.8,124.2 143.0,124.0 143.3,122.1 143.6,122.3 143.9,123.5 144.2,124.5 144.6,124.4 145.1,123.9 145.5,123.4 145.9,123.2 146.3,125.4 146.9,124.2 147.4,125.3 147.9,127.6 148.3,128.7 148.6,127.4 148.9,127.0 149.2,126.5 149.5,127.2 149.7,129.1 150.0,127.1 150.3,124.2 150.6,124.6 150.9,123.0 151.2,122.5 151.4,121.8 151.6,119.2 151.7,117.5 151.9,117.2 152.1,116.7 152.3,116.2 152.5,116.5 152.7,119.1 152.8,123.0 152.8,125.7 152.9,126.7 152.9,125.2 153.1,121.5 153.2,121.9 153.4,123.4 153.7,125.4 153.8,126.8 154.0,126.8 154.3,124.4 154.7,123.0 155.1,123.8 155.4,122.5 155.9,123.3 156.2,125.3 156.5,127.1 156.9,126.0 157.3,125.3 157.6,122.9 158.0,123.0 158.6,122.6 159.2,122.3 159.6,122.8 160.2,123.6 160.6,124.2 160.9,123.3 161.3,124.4 161.7,124.0 162.2,124.7 162.6,126.5 163.0,127.4 163.5,128.0 163.9,127.4 164.4,128.5 164.7,129.0 165.2,127.9 165.8,128.1 166.3,128.1 166.9,127.3 167.5,128.0 168.1,126.5 168.7,126.7 169.1,126.3 169.6,126.9 170.0,128.1 170.4,129.1 170.7,130.4 170.9,131.5 171.2,131.4 171.6,130.4 172.2,131.6 172.5,131.1 172.9,130.6 173.1,133.1 173.4,133.7 173.7,133.2 174.0,133.2 174.5,132.3 174.9,132.5 175.4,132.2 175.8,133.5 176.2,131.6 176.7,131.3 177.1,132.9 177.4,133.7 177.8,134.7 178.0,136.4 178.2,136.7 178.5,138.1 178.6,140.3 178.8,140.6 179.0,138.3 179.4,139.7 179.6,140.3 179.9,139.4 180.3,140.5 180.7,140.0 181.1,140.1 181.5,140.0 182.0,141.0 182.6,141.1 183.2,139.8 183.7,140.4 184.2,139.9 184.6,139.6 185.0,140.1 185.5,137.8 186.1,137.9 186.8,137.0 187.3,136.9 187.9,136.7 188.5,136.9 189.1,135.9 189.7,137.7 190.4,137.3 191.2,137.2 191.4,131.4 191.6,133.1 191.9,129.3 192.2,129.0 192.5,128.8 192.7,127.4 193.0,130.2 193.4,129.1 193.8,128.5 194.0,125.4 194.0,124.4 194.2,125.2 194.4,125.8 194.7,125.5 195.0,126.1 195.3,125.1 195.7,125.1 196.1,125.4 196.4,125.2 196.7,124.4 197.0,122.9 197.3,122.4 197.6,120.3 197.8,120.7 198.0,121.4 198.2,121.7 198.5,122.1 198.9,123.0 199.3,123.5 199.4,124.9 199.6,126.2 199.8,126.1 200.0,128.9 200.2,130.2 200.4,128.0 200.6,129.9 200.9,127.9 201.3,129.3 201.7,128.4 202.1,127.3 202.5,130.2 202.8,129.2 203.2,128.9 203.6,129.3 203.9,130.2 204.3,130.0 204.8,129.5 205.2,132.2 205.5,132.3 205.9,131.8 206.3,130.6 206.7,129.1 207.1,129.4 207.6,130.3 207.8,134.0 208.0,130.0 208.4,130.9 208.9,132.3 209.2,133.0 209.5,135.5 209.8,135.6 210.2,135.1 210.4,137.0 210.6,139.0 211.0,138.9 211.4,139.1 211.7,138.2 212.0,137.8 212.4,136.3 212.8,137.3 213.1,135.2 213.6,135.3 214.0,136.2 214.2,137.8 214.5,138.0 214.9,136.9 215.3,136.2 215.7,136.3 216.2,137.6 216.4,133.9 216.6,136.5 216.9,135.9 217.3,138.2 217.7,134.1 218.1,135.9 218.6,135.9 219.0,137.8 219.4,134.2 220.0,135.2 220.7,135.0 221.2,134.6 221.7,136.2 222.1,137.6 222.5,137.2 223.0,135.0 223.4,133.6 223.7,131.4 224.0,133.4 224.4,132.3 224.8,134.6 225.1,136.4 225.5,134.3 226.1,133.7 226.6,132.3 227.2,133.2 227.8,133.5 228.3,132.8 228.8,133.4 229.3,130.9 229.6,131.5 230.2,130.9 230.7,131.3 231.2,130.6 231.6,132.1 231.8,129.8 232.0,131.4 232.3,128.9 232.5,128.7 232.7,131.1 233.0,131.3 233.3,133.7 233.6,130.3 233.8,126.2 233.9,126.8 234.2,126.3 234.5,124.5 234.7,126.4 235.1,126.9 235.5,126.6 235.9,125.7 236.2,123.9 236.5,124.8 236.9,125.1 237.4,124.3 237.9,123.8 238.1,123.1 238.3,124.4 238.7,126.3 239.0,126.8 239.4,127.4 239.7,128.7 240.0,129.4 240.4,129.6 240.7,130.9 241.1,130.4 241.6,130.7 242.0,131.9 242.4,131.3 242.9,132.9 243.3,132.3 243.9,133.4 244.3,133.5 244.7,132.8 245.1,132.7 245.4,133.1 245.7,132.7 246.2,133.4 246.7,133.4 247.2,134.3 247.7,134.7 248.3,133.8 248.7,135.3 249.1,132.7 249.6,132.6 250.2,132.0 250.6,132.9 251.0,134.7 251.3,135.6 251.6,136.2 251.9,136.5 252.3,136.9 252.8,136.3 253.2,138.2 253.5,138.4 253.9,136.6 254.3,136.1 254.8,136.0 255.4,135.9 255.8,136.0 256.4,135.5 256.8,135.8 257.3,136.6 257.8,136.2 258.4,135.6 258.6,133.4 259.0,135.4 259.2,135.2 259.4,137.9 259.5,141.1 259.5,140.0 259.7,139.9 259.9,143.9 260.0,145.2 260.0,144.5 260.2,143.6 260.3,146.6 260.5,145.0 260.6,145.1 260.9,146.5 261.1,148.7 261.1,150.4 261.1,150.3 261.3,147.5 261.5,148.3 261.7,151.0 261.8,150.2 261.9,152.0 262.2,151.6 262.4,152.0 262.6,152.4 262.8,151.1 263.0,148.4 263.3,149.5 263.6,150.9 264.0,152.2 264.3,151.9 264.7,151.7 265.0,153.3 265.3,154.8 265.6,154.1 265.8,154.0 266.2,154.6 266.6,154.7 266.7,154.5 267.0,152.2 267.3,153.4 267.7,152.4 268.1,152.4 268.5,152.5 269.0,153.6 269.4,153.4 270.0,153.9 270.5,155.0 270.8,156.1 271.2,155.9 271.6,153.6 272.0,153.6 272.5,153.7 273.0,152.8 273.6,153.2 274.2,152.2 274.8,154.5 275.2,156.8 275.4,157.4 275.8,157.6 276.1,160.3 276.4,156.0 277.0,155.1 277.5,156.6 278.0,157.2 278.5,157.1 279.1,155.4 279.7,156.6 280.3,156.2 280.9,155.3 281.3,153.4 281.7,153.5 282.3,154.4 282.8,153.9 283.2,153.6 283.7,152.8 284.1,152.1 284.6,152.7 285.2,152.3 285.6,152.3 286.1,152.5 286.5,153.0 286.8,153.0 287.1,155.5 287.3,153.4 287.5,150.3 287.7,151.6 288.1,153.5 288.4,154.8 288.8,153.3 289.2,154.0 289.7,154.1 290.0,152.7 290.5,153.4 290.9,151.5 291.2,148.8 291.3,145.0 291.5,145.3 291.8,145.4 292.1,146.2 292.4,145.7 292.8,146.9 293.2,147.3 293.5,148.4 293.9,147.4 294.3,147.3 294.8,146.7 295.4,148.7 295.8,148.6 296.2,148.4 296.7,148.7 297.2,149.2 297.9,150.3 298.3,149.5 298.8,152.1 299.1,153.7 299.5,154.0 299.9,153.2 300.3,154.8 300.7,155.7 301.1,155.5 301.5,156.7 301.9,159.0 302.2,161.0 302.4,159.8 302.8,158.2 303.2,158.7 303.6,157.9 304.1,158.1 304.6,157.9 305.0,159.3 305.4,159.7 305.7,160.1 306.1,160.9 306.6,160.2 306.9,161.5 307.3,160.6 307.7,162.1 308.0,161.6 308.3,163.9 308.5,165.5 308.7,166.9 308.9,166.9 309.1,167.6 309.4,165.8 309.7,165.0 310.1,164.5 310.5,163.1 311.0,164.8 311.4,163.0 311.8,162.8 312.1,161.2 312.6,161.6 312.9,159.8 313.4,160.9 313.7,161.0 314.1,161.5 314.5,160.7 314.7,162.1 315.0,162.4 315.2,164.2 315.5,163.9 315.7,166.4 315.8,165.3 316.1,163.2 316.3,161.6 316.6,163.7 316.9,164.5 317.1,166.1 317.3,165.3 317.6,165.1 317.9,166.3 318.2,166.3 318.4,168.1 318.5,168.5 318.7,165.7 319.0,166.6 319.3,166.7 319.6,164.4 320.0,164.0 320.4,167.1 320.8,167.8 321.2,165.6 321.6,168.3 321.9,167.5 322.3,167.8 322.8,166.8 323.3,167.2 323.9,165.2 324.4,164.6 324.9,164.1 325.2,163.3 325.6,164.6 326.1,164.6 326.6,164.5 327.1,163.0 327.6,163.9 328.2,162.4 328.9,164.1 329.4,164.0 329.9,166.2 330.5,163.0 330.7,161.4 331.2,162.4 331.8,163.3 332.4,163.8 333.0,162.5 333.5,160.7 334.0,162.0 334.4,163.5 334.8,163.2 335.3,164.1 335.9,163.9 336.6,162.6 337.3,162.9 337.8,163.2 338.3,162.6 338.9,163.5 339.5,162.1 340.3,162.1 340.9,162.8 341.6,161.3 342.1,161.4 342.4,160.4 342.7,160.5 343.1,161.7 343.5,162.6 343.7,164.7 343.8,165.9 343.9,168.7 343.9,167.2 344.1,167.7 344.2,171.4 344.2,171.3 344.3,174.4 344.4,174.4 344.4,178.6 344.4,176.9 344.4,179.0 344.5,176.7 344.6,176.5 344.7,173.8 344.8,175.6 345.0,176.9 345.1,174.9 345.3,177.0 345.6,174.3 345.8,174.2 346.0,177.9 346.2,179.3 346.4,178.8 346.6,177.8 346.9,179.7 347.2,179.1 347.5,179.3 347.8,178.2 348.1,180.6 348.4,181.1 348.6,182.6 348.7,185.0 348.8,186.8 348.9,183.4 348.9,189.7 349.0,190.3 349.0,187.4 349.1,188.6 349.2,185.3 349.4,185.8 349.6,185.8 349.8,183.9 350.1,183.5 350.4,183.2 350.5,186.9 350.5,188.7 350.6,191.1 350.6,195.6 350.6,206.1 350.6,205.3 350.6,203.4 350.6,204.9 350.6,205.1 350.7,209.3 350.7,222.2 350.7,229.3 350.7,218.0 350.7,222.2 350.7,219.4 350.7,224.0 350.7,218.6 350.7,216.3 350.7,214.1 350.8,213.0 350.8,209.6 350.8,210.0 350.8,209.6 350.9,210.1 350.9,211.1 350.9,212.9 350.9,220.1 350.9,231.9 350.9,247.6 350.9,252.2 350.9,236.9 350.9,243.2 350.9,239.0 351.0,261.0 351.0,269.2 351.0,253.8 351.0,251.2 351.0,250.4 351.0,249.3 351.0,256.6 351.0,267.2 351.0,272.1 351.0,272.2 351.0,274.9 351.0,269.9 351.0,275.2 351.0,280.2 351.0,277.1 351.0,278.5 351.0,287.7 351.0,280.1 351.0,285.7 351.0,303.4 351.0,307.2 351.0,295.3 351.0,312.7 351.0,320.4 351.0,318.3 351.0,323.0 351.0,336.5 351.0,345.5 351.1,356.6 351.1,378.5 351.1,385.9 351.1,382.2 351.1,398.2 351.1,406.6 351.1,420.2 351.1,439.8 351.1,398.9 351.1,366.7 351.1,355.5 351.1,373.2 351.1,375.8 351.1,347.7 351.1,340.3 351.1,318.3 351.1,327.3 351.1,325.4 351.1,322.3 351.2,322.3 351.2,320.4 351.2,332.6 351.2,349.0 351.2,333.0 351.2,338.4 351.2,331.9 351.2,329.0 351.2,341.1 351.2,336.3 351.2,333.5 351.2,323.4 351.2,320.6 351.3,295.5 351.3,297.7 351.3,298.5 351.3,300.4 351.3,296.6 351.3,299.7 351.3,307.1 351.3,297.7 351.3,295.5 351.4,294.6 351.4,297.3 351.4,300.9 351.4,301.3 351.4,307.8 351.4,301.4 351.5,293.1 351.5,281.4 351.5,277.5 351.5,276.1 351.5,268.6 351.5,267.7 351.5,260.8 351.5,265.3 351.5,258.4 351.5,253.5 351.5,251.9 351.5,256.8 351.5,250.6 351.6,249.1 351.6,226.8 351.6,235.2 351.6,237.3 351.6,247.5 351.6,256.2 351.6,257.3 351.6,247.5 351.6,251.1 351.6,247.5 351.7,248.8 351.7,244.0 351.7,241.9 351.7,231.7 351.7,238.3 351.7,247.1 351.7,240.5 351.7,238.8 351.7,244.5 351.7,247.5 351.7,244.1 351.7,244.0 351.8,242.5 351.8,241.8 351.8,246.4 351.8,244.4 351.8,246.1 351.8,252.3 351.8,248.0 351.8,244.8 351.8,249.7 351.9,253.7 351.9,254.1 351.9,254.0 351.9,253.4 351.9,253.2 351.9,250.6 351.9,251.7 351.9,250.5 351.9,253.6 351.9,255.4 351.9,263.0 351.9,264.4 351.9,264.8 351.9,275.8 351.9,281.5 351.9,274.2 351.9,268.9 352.0,270.2 352.0,269.4 352.0,267.9 352.0,264.7 352.0,265.0 352.0,264.1 352.0,262.6 352.0,262.9 352.0,263.7 352.0,263.2 352.0,262.4 352.0,259.5 352.0,256.2 352.1,257.0 352.1,254.2 352.1,255.2 352.1,252.9 352.1,252.5 352.1,250.1 352.1,247.1 352.1,247.8 352.1,251.6 352.1,248.3 352.2,242.6 352.2,243.7 352.2,245.1 352.2,243.0 352.2,245.8 352.2,250.5 352.2,249.0 352.2,250.1 352.2,249.0 352.3,250.4 352.3,253.8 352.3,252.5 352.3,250.2 352.3,254.1 352.3,252.2 352.3,258.0 352.4,257.7 352.4,255.7 352.4,251.9 352.4,248.9 352.4,253.0 352.4,250.9 352.4,251.5 352.5,253.3 352.5,253.5 352.5,253.1 352.5,248.8 352.5,244.9 352.5,247.6 352.5,248.0 352.6,248.3 352.6,251.0 352.6,251.6 352.6,249.6 352.6,246.7 352.6,250.2 352.6,248.4 352.7,249.9 352.7,249.5 352.7,249.4 352.7,250.3 352.7,248.9 352.7,250.5 352.7,251.3 352.7,249.5 352.8,244.5 352.8,244.6 352.8,245.0 352.8,243.7 352.8,243.5 352.8,243.8 352.9,245.6 352.9,245.5 352.9,246.5 352.9,242.8 353.0,243.7 353.0,242.3 353.0,243.6 353.1,246.2 353.1,246.7 353.1,244.6 353.2,246.3 353.2,246.3 353.3,243.3 353.3,241.4 353.3,240.4 353.4,237.8 353.4,241.0 353.4,239.6 353.4,238.4 353.5,236.6 353.5,237.2 353.6,235.6 353.6,233.5 353.6,234.2 353.7,230.3 353.7,229.3 353.8,228.9 353.8,227.7 353.8,227.8 353.9,229.4 353.9,234.6 354.0,235.4 354.0,239.8 354.1,240.7 354.1,243.2 354.1,239.2 354.1,240.6 354.2,239.5 354.2,239.2 354.2,237.3 354.3,236.7 354.3,236.2 354.4,238.1 354.4,238.9 354.5,244.7 354.5,246.0 354.5,250.2 354.5,247.5 354.6,244.0 354.6,242.5 354.7,242.6 354.7,239.5 354.8,240.8 354.9,237.0 354.9,238.8 355.0,237.2 355.1,233.2 355.2,234.8 355.3,236.1 355.3,237.8 355.4,240.0 355.5,240.9 355.6,240.9 355.7,243.2 355.7,244.7 355.8,243.9 355.9,243.5 356.0,242.6 356.1,243.6 356.2,246.0 356.2,246.4 356.3,248.5 356.3,247.7 356.4,245.9 356.5,242.1 356.5,240.1 356.6,238.0 356.7,239.3 356.8,235.5 356.8,235.8 356.9,231.0 357.0,229.1 357.0,228.1 357.1,227.6 357.2,227.2 357.3,225.8 357.4,228.3 357.5,226.1 357.6,228.1 357.7,232.1 357.8,236.5 357.9,236.8 358.0,239.1 358.1,237.8 358.2,239.5 358.3,238.9 358.5,237.8 358.6,236.4 358.8,231.2 358.9,233.1 359.0,232.6 359.2,229.5 359.3,231.9 359.4,232.0 359.6,230.6 359.7,230.9 359.8,226.9 359.9,226.7 360.1,227.4 360.3,227.2 360.4,232.4 360.5,233.8 360.6,233.0 360.8,234.2 360.9,231.7 361.1,230.4 361.3,232.3 361.4,229.5 361.6,227.5 361.7,226.3 361.9,227.7 362.1,229.1 362.2,230.9 362.4,231.3 362.5,230.9 362.7,228.0 362.8,229.9 362.9,231.9 363.1,232.5 363.2,232.1 363.4,232.7 363.5,232.0 363.6,231.8 363.7,223.5 363.7,223.9 363.8,224.0 363.9,226.6 364.1,226.2 364.2,222.6 364.3,220.2 364.5,218.7 364.6,217.4 364.7,216.9 364.8,219.7 364.9,218.5 365.0,217.1 365.2,219.7 365.3,219.2 365.5,222.1 365.7,222.3 365.8,221.6 366.0,221.5 366.2,220.2 366.3,223.2 366.5,224.1 366.7,221.8 366.9,220.8 367.1,222.8 367.2,224.8 367.3,222.3 367.6,223.3 367.8,222.0 368.0,222.2 368.1,221.8 368.3,222.1 368.5,219.8 368.7,223.8 368.9,225.8 369.0,227.0 369.2,226.3 369.3,225.1 369.5,226.8 369.7,230.6 369.8,228.9 369.9,227.0 370.0,226.1 370.1,223.5 370.2,225.0 370.4,224.0 370.5,225.6 370.7,228.1 370.9,226.9 371.2,225.1 371.4,221.9 371.6,221.6 371.7,221.5 371.9,220.4 372.2,221.2 372.4,221.0 372.6,220.4 372.8,218.7 373.0,221.1 373.3,221.9 373.5,220.8 373.7,219.7 374.0,218.6 374.2,219.4 374.4,221.1 374.7,220.4 375.0,221.1 375.2,222.7 375.5,221.9 375.8,221.8 376.1,225.0 376.2,227.6 376.4,230.6 376.5,232.0 376.6,231.2 376.7,231.6 376.9,232.0 377.0,233.7 377.1,234.8 377.1,232.8 377.3,235.0 377.4,235.4 377.5,235.5 377.6,237.2 377.7,238.0 377.8,240.5 377.9,240.5 378.0,238.7 378.2,241.8 378.3,242.2 378.4,244.0 378.5,245.5 378.5,243.6 378.6,239.7 378.7,240.6 378.8,236.8 378.9,240.1 379.1,239.6 379.3,237.4 379.5,234.8 379.7,234.7 379.9,236.5 380.1,235.1 380.3,235.2 380.5,234.5 380.7,235.2 380.9,235.2 381.2,234.5 381.4,236.0 381.6,236.1 381.9,237.8 382.1,238.0 382.4,239.3 382.5,241.0 382.8,242.6 383.0,242.5 383.2,241.7 383.4,244.9 383.6,245.8 383.7,244.6 383.9,245.1 384.1,247.5 384.2,246.7 384.4,245.3 384.6,243.4 384.7,245.6 384.9,246.5 385.1,247.7 385.3,244.2 385.4,242.3 385.6,241.7 385.8,241.1 386.0,241.0 386.2,244.4 386.5,241.7 386.7,239.7 387.0,238.0 387.2,240.2 387.5,240.1 387.8,240.6 388.1,238.4 388.4,237.4 388.8,238.1 389.1,236.7 389.4,235.3 389.7,235.7 390.0,236.1 390.2,234.8 390.6,237.1 390.9,235.6 391.3,234.5 391.6,235.4 391.9,235.7 392.2,237.1 392.5,234.9 392.7,235.0 393.0,234.3 393.3,232.6 393.6,234.5 393.9,235.3 394.3,235.2 394.6,234.6 394.9,234.4 395.2,235.0 395.6,234.0 395.8,231.9 396.1,231.2 396.4,231.5 396.7,232.7 397.0,231.5 397.3,233.9 397.5,236.9 397.7,237.6 398.0,236.1 398.2,236.3 398.5,236.5 398.7,239.7 398.7,234.2 398.8,228.7 398.8,227.9 398.8,229.3 398.8,224.5 398.9,223.1 398.9,223.8 398.9,221.1 399.0,223.4 399.0,226.4 399.0,226.0 399.1,222.8 399.1,220.4 399.2,220.0 399.2,220.5 399.3,219.3 399.3,219.1 399.4,215.9 399.4,216.9 399.5,215.8 399.5,219.9 399.6,221.0 399.7,221.9 399.7,221.2 399.9,220.6 400.0,217.6 400.2,217.9 400.2,214.4 400.3,212.9 400.3,215.6 400.4,215.9 400.5,217.6 400.6,216.7 400.8,216.7 400.9,217.2 401.0,212.3 401.1,210.7 401.1,216.3 401.1,216.7 401.3,214.0 401.4,214.6 401.6,211.7 401.7,212.0 401.8,212.3 402.0,211.0 402.1,209.7 402.3,213.3 402.4,212.7 402.6,212.1 402.8,210.7 403.1,211.1 403.3,214.9 403.6,213.4 403.9,210.3 404.1,210.7 404.5,210.0 404.7,208.5 405.0,208.3 405.3,207.0 405.5,206.9 405.7,204.5 405.8,204.5 405.9,206.8 406.1,208.2 406.3,207.1 406.4,210.1 406.6,214.2 406.8,210.4 407.1,207.5 407.2,209.0 407.4,210.2 407.5,212.8 407.7,210.9 407.9,211.0 408.1,211.0 408.3,213.7 408.5,214.6 408.7,211.6 409.0,212.8 409.3,211.1 409.5,213.3 409.7,211.2 409.8,211.6 410.1,211.3 410.3,213.0 410.4,210.6 410.6,214.4 410.7,212.5 410.9,212.4 411.1,210.7 411.4,210.5 411.7,207.8 411.8,209.5 412.1,210.4 412.4,208.8 412.7,206.2 412.9,205.4 413.1,205.6 413.3,205.2 413.5,205.3 413.8,208.1 414.0,207.1 414.4,207.1 414.6,204.8 414.9,205.1 415.2,205.2 415.4,207.0 415.7,208.6 416.0,209.2 416.3,210.5 416.6,206.6 416.9,202.9 417.0,201.9 417.2,201.1 417.4,197.8 417.6,197.5 417.8,196.2 418.0,194.9 418.2,193.6 418.4,196.9 418.6,196.3 418.8,197.8 419.0,196.1 419.3,195.5 419.5,193.5 419.8,193.6 420.1,195.5 420.4,194.1 420.7,196.6 421.0,197.0 421.2,200.4 421.5,200.9 421.8,199.4 422.1,202.4 422.1,202.5 422.3,202.7 422.5,204.1 422.6,207.1 422.6,207.4 422.7,204.4 422.9,204.6 423.2,205.1 423.3,204.3 423.5,203.9 423.8,202.3 424.0,203.6 424.3,204.8 424.5,206.1 424.7,207.2 424.9,202.2 424.9,199.4 424.9,199.7 425.0,201.7 425.0,202.1 425.1,201.7 425.2,200.1 425.2,200.7 425.3,201.2 425.4,199.1 425.5,199.1 425.7,201.9 425.8,202.9 425.9,205.4 426.1,207.3 426.2,201.6 426.4,204.5 426.6,207.0 426.8,205.5 427.0,202.8 427.3,202.1 427.6,201.6 427.8,201.8 428.1,200.7 428.2,201.1 428.4,203.4 428.7,203.1 429.0,199.4 429.1,199.2 429.4,199.5 429.6,199.9 430.0,200.4 430.1,195.7 430.2,196.7 430.5,196.1 430.7,196.2 431.0,198.1 431.3,197.7 431.6,194.5 431.9,193.9 432.2,193.3 432.4,195.3 432.7,194.6 433.0,194.2 433.4,192.6 433.6,192.7 434.0,195.9 434.5,197.0 435.0,197.0 435.5,197.8 436.1,197.5 436.7,199.1 437.1,200.0 437.6,197.0 438.0,199.3 438.4,199.6 439.0,199.6 439.4,203.5 439.8,203.9 440.2,205.4 440.5,206.2 440.8,205.9 441.1,207.0 441.5,206.3 441.9,207.6 442.2,209.3 442.5,210.9 442.6,213.4 442.8,210.5 443.1,210.6 443.4,214.0 443.5,216.6 443.7,215.8 444.0,214.4 444.3,216.2 444.5,218.6 444.6,220.2 444.7,221.2 444.8,224.7 444.8,228.4 444.8,225.1 444.9,223.2 445.0,222.5 445.2,223.9 445.3,221.0 445.5,222.7 445.8,226.1 445.9,225.5 446.1,226.2 446.2,226.2 446.4,224.3 446.6,224.0 446.8,223.3 447.1,222.1 447.4,221.8 447.7,223.1 448.1,221.8 448.4,223.3 448.7,225.5 448.8,228.5 449.0,228.8 449.1,230.8 449.2,226.3 449.4,229.9 449.6,225.7 449.8,224.9 450.2,224.3 450.5,224.6 450.8,225.8 451.1,226.4 451.3,229.8 451.5,229.6 451.7,231.1 452.0,229.3 452.2,232.7 452.4,232.1 452.5,229.3 452.6,231.7 452.7,233.4 452.8,232.2 452.8,226.7 452.9,228.8 453.1,228.5 453.2,228.5 453.4,225.8 453.4,224.5 453.6,224.4 453.7,227.7 453.9,224.8 454.1,225.5 454.3,223.9 454.5,226.8 454.8,225.4 455.0,224.2 455.1,219.5 455.3,217.1 455.4,218.0 455.6,219.3 455.7,216.5 455.8,212.0 455.8,215.1 455.9,214.9 456.1,215.4 456.3,215.4 456.5,215.4 456.6,220.3 456.7,214.7 456.8,212.7 457.0,214.2 457.2,216.3 457.5,214.3 457.8,215.5 458.0,213.1 458.3,213.7 458.6,215.4 458.9,216.3 459.2,216.2 459.5,215.8 459.6,219.9 459.6,220.7 459.7,219.5 459.9,219.9 460.0,218.1 460.3,219.8 460.6,219.6 461.0,217.9 461.3,218.6 461.7,219.0 462.2,217.2 462.5,215.9 463.1,217.0 463.6,215.8 464.0,214.9 464.5,215.8 464.9,217.3 465.2,217.3 465.5,216.3 465.9,218.1 466.3,218.6 466.8,217.0 467.2,214.7 467.4,212.3 467.8,214.0 468.2,216.1 468.6,217.2 469.1,218.2 469.6,217.7 470.2,217.6 470.6,216.4 471.0,218.1 471.5,217.1 471.8,218.4 472.3,216.4 472.7,216.5 473.2,216.3 473.9,215.0 474.2,212.4 474.4,209.4 474.6,211.7 474.8,212.8 475.1,213.6 475.4,215.4 475.8,216.0 476.3,216.5 476.8,217.7 477.3,217.2 477.6,219.6 477.9,219.1 478.4,218.3 478.8,217.3 479.0,218.1 479.4,216.3 479.7,218.2 480.1,219.9 480.2,217.0 480.4,221.0 480.5,223.0 480.6,220.6 480.8,218.6 480.9,216.2 481.1,216.1 481.5,217.7 481.7,221.1 481.8,222.5 482.0,221.1 482.2,224.1 482.4,221.9 482.5,225.7 482.7,226.8 482.8,228.2 483.0,228.3 483.1,226.1 483.4,227.2 483.6,225.8 483.9,226.9 484.1,228.1 484.3,229.9 484.5,229.5 484.7,230.6 485.0,229.7 485.3,227.8 485.6,228.1 486.0,228.1 486.3,227.3 486.7,228.9 487.1,229.6 487.4,231.9 487.6,232.1 487.9,232.0 488.2,233.9 488.2,235.2 488.4,231.8 488.7,233.5 489.0,236.9 489.1,234.8 489.4,231.2 489.7,233.8 490.1,233.1 490.5,232.0 490.9,233.1 491.3,233.0 491.8,232.1 492.2,232.3 492.6,233.0 492.8,232.0 493.1,232.1 493.5,230.8 493.9,231.9 494.3,229.5 494.7,229.1 495.3,231.1 495.8,229.0 496.3,230.2 496.8,230.6 497.2,228.9 497.8,231.1 498.3,232.8 498.7,230.3 499.1,232.3 499.5,230.8 499.8,230.0 500.2,228.6 500.6,230.2 501.0,232.0 501.5,232.8 501.9,234.0 502.2,235.3 502.7,233.3 503.2,235.4 503.2,239.0 503.3,241.3 503.3,239.1 503.4,231.9 503.4,230.9 503.5,230.2 503.7,229.6 504.0,227.6 504.1,225.9 504.4,227.4 504.7,225.1 505.0,224.5 505.3,226.2 505.6,228.0 506.0,224.7 506.2,224.2 506.6,224.6 507.0,223.8 507.4,225.1 507.8,225.7 508.0,225.8 508.2,227.2 508.4,228.0 508.6,230.2 508.6,233.1 508.7,234.4 508.8,233.7 509.0,234.0 509.1,228.9 509.2,228.7 509.3,231.3 509.5,233.2 509.7,231.0 509.9,232.2 510.1,234.4 510.2,237.5 510.3,236.4 510.4,238.7 510.5,239.5 510.5,243.4 510.6,241.9 510.7,243.0 510.8,240.2 510.9,240.1 511.0,241.7 511.1,239.4 511.3,241.4 511.4,239.8 511.6,237.9 511.7,234.8 511.9,236.7 512.0,236.8 512.2,236.8 512.5,237.4 512.8,239.4 513.0,242.8 513.2,244.5 513.3,244.2 513.5,243.8 513.7,241.1 513.9,242.4 514.1,244.1 514.3,244.1 514.5,245.9 514.6,245.5 514.7,247.2 514.8,249.1 515.0,248.6 515.1,244.4 515.2,245.5 515.4,246.5 515.7,248.4 515.8,250.0 515.9,251.9 516.0,253.1 516.2,251.0 516.5,250.4 516.7,248.9 516.9,250.1 517.4,247.7 517.8,248.9 518.3,248.0 518.6,250.5 519.0,249.2 519.3,246.9 519.7,246.1 520.1,245.2 520.6,244.2 521.0,243.8 521.1,241.2 521.1,237.1 521.1,235.5 521.1,238.6 521.2,237.4 521.4,239.8 521.7,242.2 522.1,241.5 522.5,243.2 522.9,242.3 523.3,240.9 523.6,240.3 524.1,242.1 524.7,241.4 525.3,241.7 525.8,242.5 526.2,242.8 526.6,244.6 527.1,244.9 527.3,247.8 527.4,251.1 527.5,250.0 527.6,251.0 527.7,253.9 527.7,250.7 527.9,251.5 528.0,253.5 528.0,254.7 528.1,253.6 528.2,256.0 528.3,257.5 528.4,258.9 528.5,260.9 528.6,261.3 528.6,261.1 528.7,259.9 528.9,258.5 529.0,259.9 529.1,263.3 529.2,261.8 529.3,262.0 529.3,266.0 529.4,265.2 529.5,266.4 529.6,264.8 529.7,263.6 529.8,264.7 530.0,265.2 530.1,264.9 530.3,263.1 530.4,261.9 530.7,263.4 530.8,259.2 531.0,261.0 531.3,262.2 531.5,262.5 531.7,265.8 531.8,268.0 531.8,267.9 532.0,268.2 532.1,266.3 532.3,264.6 532.5,262.7 532.6,259.6 532.7,257.0 532.8,255.4 532.8,252.6 532.9,253.9 533.0,253.0 533.2,253.4 533.4,254.7 533.6,253.9 533.8,251.3 534.0,251.8 534.2,251.8 534.4,251.2 534.7,254.0 535.0,255.2 535.2,255.2 535.4,253.1 535.5,252.5 535.6,254.9 535.7,257.4 535.8,253.5 535.9,253.4 536.1,255.9 536.2,254.2 536.4,257.2 536.6,259.9 536.7,259.0 536.8,255.0 537.0,257.0 537.2,255.0 537.4,256.6 537.5,255.3 537.7,254.9 537.9,253.1 538.0,252.1 538.2,250.8 538.3,246.7 538.4,247.8 538.5,249.7 538.7,247.9 538.9,252.6 539.2,251.1 539.5,251.8 539.8,253.8 540.1,252.7 540.4,251.9 540.7,250.9 540.9,250.8 541.2,248.5 541.6,250.4 541.9,248.7 542.3,250.7 542.6,251.5 543.0,250.3 543.4,247.8 543.8,248.0 544.2,247.2 544.6,246.1 545.0,246.2 545.3,244.8 545.7,247.3 546.1,248.1 546.6,249.9 547.0,250.1 547.5,251.5 547.9,249.3 548.4,248.6 549.0,246.9 549.7,245.3 550.1,245.8 550.6,247.2 551.3,244.4 551.9,244.5 552.3,245.5 552.9,247.3 553.5,246.3 554.2,245.0 554.7,243.2 555.2,243.1 555.6,240.4 555.7,238.7 556.0,241.0 556.5,239.2 556.8,241.2 557.3,241.8 557.8,242.6 558.2,240.5 558.7,241.6 559.1,241.6 559.5,240.3 560.0,240.0 560.5,240.5 561.1,238.6 561.3,236.6 561.6,236.5 562.0,238.3 562.4,239.5 562.8,239.6 563.2,240.6 563.6,240.4 564.1,241.5 564.5,239.3 564.9,240.8 565.4,243.3 565.9,242.1 566.3,244.2 566.6,244.6 567.0,242.8 567.4,241.6 567.8,240.9 568.3,239.8 568.9,239.6 569.7,239.3 570.5,239.4 571.1,238.8 571.9,241.7 572.9,239.8 574.0,240.8 574.5,240.3 575.1,241.0 575.6,241.8 576.1,242.8 576.7,242.9 577.7,243.1 578.2,243.6 578.9,242.9 579.3,240.5 579.7,240.0 580.4,240.7 581.2,239.5 581.9,241.8 582.8,242.9 583.7,242.3 584.5,242.7 584.7,240.4 584.8,242.4 585.2,245.5 585.5,246.2 585.9,247.0 586.2,243.2 586.3,240.5 586.4,238.4 586.5,239.4 586.7,239.8 587.0,239.2 587.1,235.6 587.2,237.8 587.6,237.1 587.9,234.3 588.1,235.5 588.4,237.1 588.8,237.8 589.3,239.0 589.8,239.5 590.2,239.4 590.6,237.2 591.0,235.2 591.2,233.9 591.4,234.0 591.6,232.1 591.9,231.9 592.3,231.6 592.6,233.3 593.1,233.9 593.7,234.2 594.3,233.1 594.7,232.4 594.9,231.3 595.4,233.9 595.9,234.4 596.6,232.4 597.1,234.0 598.0,233.9 598.7,233.5 599.2,232.7 599.9,235.4 600.5,233.2 600.9,232.7 601.5,234.1 602.1,234.5 602.7,235.6 603.0,237.7 603.1,239.9 603.3,240.4 603.6,238.1 604.0,236.6 604.4,237.1 604.8,238.3 605.3,237.8 605.7,235.6 606.2,236.2 606.7,233.8 607.0,230.6 607.1,228.2 607.2,227.7 607.4,225.9 607.6,227.7 608.0,226.7 608.4,226.5 608.8,225.5 609.2,225.5 609.6,224.0 609.9,222.7 610.3,222.5 610.7,222.9 611.2,221.3 611.7,223.0 612.1,222.9 612.5,221.3 613.0,221.3 613.4,223.1 614.0,222.0 614.5,220.9 615.0,222.4 615.4,223.4 615.9,223.7 616.5,223.8 617.0,224.6 617.6,224.4 618.2,223.9 618.6,223.6 619.0,224.2 619.3,222.7 619.8,221.9 620.1,219.8 620.4,221.6 620.9,220.9 621.1,224.8 621.2,223.0 621.5,224.4 621.8,227.2 622.0,228.5 622.3,224.7 622.7,225.9 623.1,226.2 623.5,223.2 624.0,223.0 624.5,220.5 624.8,219.3 625.2,219.0 625.3,213.8 625.4,211.8 625.5,208.0 625.5,210.2 625.7,213.4 625.8,214.7 625.9,212.2 626.1,213.2 626.5,214.5 626.8,211.8 627.2,214.9 627.6,217.4 628.1,219.1 628.6,217.6 629.2,218.1 629.9,218.5 630.4,219.3 630.9,218.7 631.5,219.7 632.2,221.1 632.6,223.1 633.0,223.5 633.6,224.5 634.1,224.1 634.7,225.2 634.9,226.6 635.1,229.1 635.3,228.5 635.6,229.5 635.9,230.4 636.2,228.7 636.7,229.2 637.2,229.6 637.5,230.0 637.9,228.0 638.4,229.6 638.9,227.8 639.5,230.0 640.0,231.8 640.4,232.8 640.9,232.3 641.6,232.4 642.2,232.4 642.7,230.0 643.0,231.3 643.6,229.6 644.1,228.8 644.5,226.4 644.9,227.0 645.4,229.8 645.6,230.3 646.0,228.8 646.2,231.2 646.5,230.1 646.7,227.0 646.8,224.2 647.0,225.7 647.3,223.2 647.5,219.6 647.6,219.2 647.7,217.4 647.8,217.3 647.9,214.3 648.1,213.2 648.2,215.2 648.4,211.8 648.7,213.5 648.9,213.2 649.2,213.7 649.5,214.5 649.8,217.0 649.8,218.4 650.0,216.4 650.2,219.7 650.3,218.8 650.6,216.5 650.9,217.9 651.3,219.6 651.7,220.1 652.3,218.0 652.8,217.2 653.4,217.1 653.6,221.4 654.0,221.0 654.5,219.1 654.8,224.5 654.9,223.5 655.2,220.7 655.7,221.4 656.0,224.1 656.2,225.6 656.4,226.8 656.7,226.5 657.1,226.7 657.4,229.7 657.6,229.6 657.9,229.3 658.2,228.5 658.5,229.5 658.7,231.6 659.1,231.1 659.4,230.2 659.9,229.5 660.3,229.1 660.8,229.1 661.4,230.3 661.9,230.6 662.3,230.0 662.9,228.9 663.4,228.0 664.0,229.4 664.1,234.3 664.3,234.1 664.6,233.5 665.1,232.8 665.7,232.9 666.1,234.6 666.5,232.9 667.1,231.9 667.5,234.1 668.2,233.7 668.6,235.9 669.1,236.7 669.6,235.9 670.1,236.9 670.6,237.4 670.7,237.8 670.9,234.3 671.1,234.0 671.6,234.6 672.0,231.9 672.5,232.7 673.1,232.7 673.5,234.2 673.7,233.5 674.0,232.1 674.1,234.7 674.4,235.6 674.5,237.4 674.7,236.3 674.9,237.2 675.1,233.0 675.2,233.1 675.4,234.1 675.7,235.6 676.0,234.1 676.3,233.9 676.6,234.8 676.9,236.4 677.0,234.7 677.2,233.5 677.5,235.3 677.9,235.1 678.2,236.0 678.5,237.4 678.8,237.0 679.0,237.3 679.4,237.4 679.7,237.8 679.9,235.2 680.4,235.9 680.8,238.7 680.9,237.6 681.2,239.4 681.7,238.6 682.0,240.1 682.1,241.5 682.3,244.4 682.3,243.5 682.5,242.9 682.8,243.1 683.3,241.9 683.7,244.6 684.1,243.6 684.5,242.5 684.8,240.6 685.1,239.9 685.6,239.5 686.2,238.8 686.9,238.6 687.6,238.8 688.4,238.0 689.1,237.2 689.7,237.1 690.6,236.4 691.4,235.3 692.3,234.7 692.7,231.5 693.0,232.1 693.5,230.8 694.0,233.1 694.7,232.4 695.2,231.5 696.0,231.8 696.6,232.3 697.2,231.9 697.9,231.7 698.3,232.8 698.8,234.0 699.1,234.8 699.4,237.6 699.7,236.1 700.1,236.3 700.7,235.8 701.1,232.7 701.4,233.8 701.8,235.1 702.1,234.4 702.4,233.7 702.9,233.1 703.1,232.6 703.4,231.0 703.7,231.8 704.1,233.0 704.4,234.1 704.9,233.6 705.1,233.1 705.6,233.4 705.9,231.1 706.2,230.2 706.6,232.2 707.2,232.7 707.8,233.3 708.4,232.6 708.8,233.5 709.6,233.7 709.9,236.2 710.6,235.8 711.3,235.9 711.9,234.4 712.7,234.3 713.5,234.9 714.1,233.4 714.6,234.7 715.3,234.4 716.0,234.1 716.7,233.0 717.5,232.8 718.2,231.3 718.4,229.8 718.9,228.7 719.3,227.1 719.8,226.5 720.2,226.5 720.8,226.9 721.4,226.9 722.0,228.4 722.5,226.7 723.0,225.4 723.5,225.1 724.0,223.2 724.5,224.5 725.0,225.6 725.8,225.6 726.3,226.2 726.9,224.0 727.3,223.5 727.5,219.7 727.5,217.4 727.5,218.6 727.6,219.9 727.9,220.0 728.2,219.0 728.5,217.3 728.7,216.8 728.8,216.6 729.0,218.7 729.1,216.8 729.2,215.4 729.4,217.6 729.6,219.7 729.7,221.1 729.9,221.8 730.2,221.3 730.5,221.3 730.8,217.3 731.1,219.7 731.5,219.5 731.9,219.0 732.3,222.8 732.6,221.1 732.9,219.5 733.3,219.0 733.8,221.4 734.2,220.2 734.6,220.7 735.0,218.2 735.1,215.6 735.4,215.8 735.8,216.3 736.1,215.0 736.3,215.5 736.6,215.5 737.0,215.5 737.4,215.0 737.7,216.5 738.2,215.1 738.8,216.5 739.5,214.6 740.0,215.9 740.7,214.7 741.2,214.4 741.5,213.0 741.7,211.4 742.0,212.0 742.2,210.2 742.4,207.4 742.6,208.3 742.8,209.7 743.1,208.0 743.4,209.1 744.0,209.1 744.3,210.2 744.8,210.9 745.3,209.9 745.6,207.4 745.8,205.6 746.1,206.9 746.5,206.9 746.9,206.2 747.4,206.9 747.8,208.1 748.2,207.9 748.5,210.1 749.1,209.2 749.5,209.3 750.2,208.9 750.6,207.7 751.1,209.4 751.5,209.4 752.2,209.9 752.7,211.0 753.1,207.1 753.5,207.5 753.9,205.6 754.3,204.8 754.8,205.9 755.2,203.2 755.4,202.5 755.8,203.1 756.2,203.2 756.5,203.2 756.7,199.8 756.9,199.6 757.1,199.0 757.4,200.1 757.6,196.6 757.8,198.1 758.0,198.6 758.3,198.1 758.7,198.5 759.0,199.7 759.3,199.7 759.6,199.6 760.0,201.3 760.5,200.4 761.0,200.7 761.4,199.8 762.0,198.3 762.3,195.8 762.4,193.6 762.6,191.8 762.7,191.3 762.9,195.1 763.3,196.8 763.7,198.2 764.1,197.3 764.5,198.4 764.9,199.2 765.4,198.8 765.8,200.0 766.2,200.9 766.8,200.5 767.2,200.5 767.6,200.0 768.1,200.3 768.6,198.0 768.9,196.1 769.3,195.8 769.6,195.7 770.0,197.5 770.5,196.3 770.9,197.8 771.3,197.7 771.6,200.1 772.1,199.0 772.5,197.7 772.9,199.3 773.4,198.4 774.0,197.6 774.5,197.6 775.0,196.6 775.5,197.6 776.1,196.2 776.5,195.6 777.0,196.4 777.6,196.0 778.1,194.6 778.5,193.8 778.9,193.0 779.2,189.6 779.3,189.6 779.6,191.2 780.0,193.2 780.4,193.0 780.9,194.2 781.3,194.5 781.7,193.3 781.9,191.8 782.2,191.4 782.4,190.9 782.8,193.1 783.2,192.9 783.5,191.3 784.0,191.4 784.4,192.4 784.9,194.1 785.4,192.6 785.8,192.5 786.3,192.2 786.9,193.3 787.2,194.3 787.6,194.7 788.1,195.3 788.6,195.0 789.1,194.9 789.6,195.3 790.1,195.0 790.4,196.9 790.8,197.4 791.4,196.9 791.8,198.7 792.4,198.0 792.8,196.0 793.3,196.0 793.7,193.5 793.7,190.5 793.8,192.3 794.0,194.3 794.4,192.6 794.7,190.0 795.0,190.1 795.4,189.8 795.7,191.5 796.1,191.1 796.4,190.3 796.8,190.0 797.2,190.9 797.6,188.8 797.9,188.7 798.4,187.8 798.7,187.9 799.0,190.8 799.4,192.2 799.8,191.7 800.1,194.9 800.4,194.0 800.9,192.9 801.4,192.1 801.9,188.8 802.1,187.9 802.5,190.5 802.9,192.9 803.3,191.5 803.8,190.8 804.2,191.5 804.6,192.5 804.9,193.5 805.4,194.1 805.7,196.8 806.1,194.0 806.4,196.5 806.6,198.3 806.9,197.8 807.4,197.2 807.9,196.2 808.4,195.1 808.9,194.1 809.3,194.1 809.8,195.7 810.3,195.5 810.7,194.2 811.1,193.1 811.6,195.9 811.7,197.4 812.0,195.7 812.3,199.1 812.5,196.4 812.9,195.6 813.2,194.1 813.3,190.2 813.5,190.2 813.8,189.4 814.1,189.5 814.4,187.1 814.5,186.0 814.7,186.6 815.0,187.1 815.3,185.3 815.6,184.7 815.9,183.4 816.1,185.4 816.4,185.8 816.7,184.8 817.1,184.3 817.4,183.9 817.9,186.2 818.3,186.4 818.5,188.7 818.8,186.6 819.1,189.6 819.3,190.6 819.6,191.9 819.9,192.2 820.1,195.1 820.4,192.6 820.8,193.2 821.2,192.1 821.7,190.9 822.1,194.0 822.6,193.5 823.0,192.5 823.6,193.9 824.0,191.9 824.5,193.5 825.0,192.1 825.5,192.2 826.1,194.5 826.4,195.1 826.8,197.9 827.2,193.1 827.5,193.4 828.0,194.7 828.5,193.9 829.0,195.1 829.5,194.9 830.0,193.6 830.4,196.2 830.7,195.6 831.1,196.8 831.4,192.1 831.7,190.3 831.9,191.2 832.5,191.5 833.0,193.0 833.5,189.8 833.9,190.1 834.5,191.6 834.9,188.5 835.4,188.9 835.9,190.0 836.3,191.0 836.9,191.1 837.4,192.2 838.0,190.7 838.4,189.3 838.7,186.0 838.9,186.0 839.2,187.4 839.4,187.8 839.7,188.8 840.0,188.1 840.3,192.0 840.4,195.1 840.5,198.2 840.6,195.4 840.8,194.0 841.1,194.5 841.5,193.4 841.8,192.4 842.2,192.4 842.5,190.6 842.9,192.0 843.3,190.1 843.6,188.2 844.1,189.4 844.5,187.3 844.9,188.4 845.3,188.7 845.7,187.9 845.9,192.7 846.1,193.4 846.4,196.2 846.5,196.6 846.7,195.7 846.8,196.3 846.9,199.5 846.9,200.7 847.0,199.1 847.2,200.9 847.3,196.4 847.5,198.9 847.7,200.9 847.9,204.6 847.9,204.6 848.1,203.3 848.4,200.7 848.8,199.3 849.2,201.0 849.6,198.7 850.1,198.8 850.6,197.7 851.1,198.9 851.5,197.9 851.9,196.5 852.3,197.5 852.7,196.5 853.2,197.0 853.7,196.4 854.0,195.3 854.6,197.1 855.0,198.5 855.6,197.8 856.1,197.0 856.6,196.8 857.3,196.9 857.8,195.0 858.3,196.2 859.0,194.7 859.4,194.8 860.1,195.5 860.7,194.0 861.2,195.0 861.8,195.6 862.2,193.2 862.4,190.7 862.6,191.3 863.0,191.1 863.3,190.4 863.8,192.5 864.4,191.4 864.9,191.2 865.4,189.9 866.0,190.0 866.5,190.0 866.8,193.3 867.1,193.0 867.3,195.2 867.6,194.9 868.0,193.6 868.4,192.8 868.7,192.3 869.1,194.0 869.3,196.1 869.5,196.7 869.8,196.5 870.1,194.4 870.5,193.7 870.8,194.0 871.3,194.3 871.5,190.7 871.9,190.0 871.9,191.1 872.0,191.7 872.3,190.5 872.5,189.6 872.6,198.5 872.6,197.0 872.6,199.2 872.6,203.9 872.6,206.1 872.6,203.8 872.7,203.5 872.7,207.0 872.7,205.4 872.7,202.9 872.8,202.6 872.8,200.9 872.9,197.6 873.0,196.9 873.1,198.2 873.2,195.5 873.4,197.3 873.7,199.4 873.8,203.1 874.0,201.4 874.2,202.2 874.3,206.5 874.5,204.6 874.8,199.7 875.1,199.7 875.5,199.9 875.9,198.3 876.3,197.7 876.8,199.0 877.4,199.6 877.9,204.1 878.3,204.4 878.4,209.8 878.7,207.7 878.9,211.0 879.2,207.0 879.5,209.2 880.0,206.7 880.5,206.1 881.0,203.1 881.4,202.8 882.0,202.5 882.6,202.5 883.3,204.1 883.6,207.5 883.7,210.4 883.9,213.1 883.9,215.1 883.9,216.2 884.0,217.2 884.1,214.7 884.1,212.5 884.3,212.6 884.5,215.3 884.7,214.6 885.0,214.1 885.3,209.0 885.5,206.3 885.8,206.2 886.2,206.7 886.6,204.0 887.1,203.7 887.4,202.1 887.9,202.6 888.3,203.1 889.0,202.7 889.5,206.0 890.0,206.8 890.5,206.5 891.0,206.6 891.6,207.0 892.1,207.8 892.6,208.2 892.9,211.0 893.1,213.8 893.3,213.9 893.4,216.8 893.5,216.9 893.7,216.7 894.0,217.1 894.2,219.2 894.4,218.9 894.4,221.3 894.5,222.2 894.6,222.5 894.8,221.7 894.9,222.1 895.1,221.3 895.3,222.4 895.6,221.6 895.9,221.2 896.1,221.7 896.3,222.2 896.5,222.7 896.7,223.7 896.9,224.8 897.1,224.5 897.3,222.2 897.6,224.6 897.8,223.9 898.1,222.4 898.4,225.0 898.7,225.7 898.8,227.2 899.0,227.2 899.2,226.9 899.5,225.2 899.9,226.6 900.2,229.7 900.5,229.4 900.8,231.1 901.0,232.5 901.3,231.5 901.5,233.8 901.6,232.4 901.8,236.9 901.8,234.9 902.0,232.7 902.2,231.7 902.4,233.7 902.6,230.5 902.8,229.8 903.1,229.8 903.4,230.3 903.9,229.5 904.2,228.9 904.6,228.8 905.2,228.0 905.6,228.8 906.0,227.0 906.4,227.2 906.8,226.8 907.3,225.2 907.7,222.2 908.0,221.0 908.5,220.8 908.9,221.9 909.2,221.4 909.7,223.3 910.2,222.6 910.7,223.2 911.1,220.8 911.5,219.5 911.8,218.4 912.3,218.9 912.9,218.4 913.4,219.9 914.0,219.0 914.6,220.8 915.2,220.1 915.7,219.7 916.1,220.4 916.6,218.6 917.1,218.0 917.6,218.8 918.3,216.9 918.8,215.6 919.3,217.0 919.8,218.1 920.2,214.4 920.5,213.1 920.8,212.7 921.2,214.7 921.6,213.5 922.0,216.2 922.2,216.7 922.6,215.4 922.9,217.2 923.3,216.7 923.7,214.9 923.9,211.2 924.0,208.6 924.2,210.7 924.4,209.5 924.5,209.6 924.7,213.3 924.9,211.1 925.2,213.2 925.7,214.6 925.9,216.9 926.1,216.4 926.4,218.7 926.7,217.2 927.1,214.7 927.5,214.5 927.8,213.8 928.2,213.0 928.6,215.5 928.9,211.8 929.1,209.1 929.4,208.2 929.6,210.3 929.9,211.8 930.3,213.1 930.7,214.3 931.1,214.8 931.6,213.6 932.3,215.0 932.9,215.1 933.4,214.8 934.0,215.0" fill="none" stroke="#d97706" stroke-width="1.2" stroke-linejoin="round" opacity="0.6"/><text x="942" y="472.0" text-anchor="start" font-size="11" fill="#d97706">1.03</text><text x="942" y="396.0" text-anchor="start" font-size="11" fill="#d97706">1.47</text><text x="942" y="320.0" text-anchor="start" font-size="11" fill="#d97706">1.92</text><text x="942" y="244.0" text-anchor="start" font-size="11" fill="#d97706">2.36</text><text x="942" y="168.0" text-anchor="start" font-size="11" fill="#d97706">2.81</text><text x="942" y="92.0" text-anchor="start" font-size="11" fill="#d97706">3.25</text><text x="942" y="80.0" text-anchor="start" font-size="11" font-weight="600" fill="#d97706">price</text>
  <polygon points="348.2,468.0 348.2,152.3 348.2,154.1 350.9,147.1 351.0,148.6 351.0,142.6 351.1,138.9 351.1,140.0 351.1,141.4 351.1,135.9 351.1,136.8 351.1,137.9 351.1,133.3 351.1,130.3 351.1,126.8 351.1,127.8 351.1,123.8 351.1,125.0 351.2,126.6 351.2,128.7 351.5,120.3 351.5,121.8 351.9,123.7 352.0,126.2 405.1,116.1 814.5,117.7 872.6,119.9 872.6,468.0" fill="#16a34a" fill-opacity="0.08"/>
  <polyline points="348.2,152.3 348.2,154.1 350.9,147.1 351.0,148.6 351.0,142.6 351.1,138.9 351.1,140.0 351.1,141.4 351.1,135.9 351.1,136.8 351.1,137.9 351.1,133.3 351.1,130.3 351.1,126.8 351.1,127.8 351.1,123.8 351.1,125.0 351.2,126.6 351.2,128.7 351.5,120.3 351.5,121.8 351.9,123.7 352.0,126.2 405.1,116.1 814.5,117.7 872.6,119.9" fill="none" stroke="#16a34a" stroke-width="2" stroke-linejoin="round"/>
  <line x1="88" y1="102" x2="110" y2="102" stroke="#16a34a" stroke-width="2.5"/><text x="116" y="106" font-size="11.5" fill="#374151">equity</text><line x1="88" y1="118" x2="110" y2="118" stroke="#d97706" stroke-width="2.5" opacity="0.8"/><text x="116" y="122" font-size="11.5" fill="#374151">price</text>
  <text x="78" y="502" text-anchor="start" font-size="12" fill="#6b7280">2025-10-01</text><text x="934" y="502" text-anchor="end" font-size="12" fill="#6b7280">2025-10-31</text>
</svg>
