<?xml version="1.0" encoding="UTF-8"?>
<svg xmlns="http://www.w3.org/2000/svg" width="1100" height="560" viewBox="0 0 1100 560" font-family="ui-sans-serif, system-ui, sans-serif">
  <rect width="1100" height="560" fill="#ffffff"/>
  <text x="80" y="28" font-size="18" font-weight="700" fill="#111827">Zone Recovery — XRPUSDT fee-tier comparison (best setting)</text>
  <text x="80" y="48" font-size="12.5" fill="#6b7280">lev 4 · ratio 3 · gap 20% · maxSteps 4 · maxDD 20% · random  ·  equity per fee tier vip 0..9</text>
  <text x="80" y="68" font-size="12.5" font-weight="600" fill="#1d4ed8">USDT margin · BNB −10%</text>
  <line x1="80" y1="508.0" x2="932" y2="508.0" stroke="#e5e7eb" stroke-width="1"/><text x="70" y="512.0" text-anchor="end" font-size="12" fill="#6b7280">0.00</text><line x1="80" y1="424.0" x2="932" y2="424.0" stroke="#e5e7eb" stroke-width="1"/><text x="70" y="428.0" text-anchor="end" font-size="12" fill="#6b7280">24075803</text><line x1="80" y1="340.0" x2="932" y2="340.0" stroke="#e5e7eb" stroke-width="1"/><text x="70" y="344.0" text-anchor="end" font-size="12" fill="#6b7280">48151606</text><line x1="80" y1="256.0" x2="932" y2="256.0" stroke="#e5e7eb" stroke-width="1"/><text x="70" y="260.0" text-anchor="end" font-size="12" fill="#6b7280">72227409</text><line x1="80" y1="172.0" x2="932" y2="172.0" stroke="#e5e7eb" stroke-width="1"/><text x="70" y="176.0" text-anchor="end" font-size="12" fill="#6b7280">96303212</text><line x1="80" y1="88.0" x2="932" y2="88.0" stroke="#e5e7eb" stroke-width="1"/><text x="70" y="92.0" text-anchor="end" font-size="12" fill="#6b7280">120379015</text>
  <line x1="80" y1="159.1" x2="932" y2="159.1" stroke="#9ca3af" stroke-width="1.5" stroke-dasharray="6 4"/>
  <polyline points="80.0,159.1 80.0,161.1 84.5,153.4 84.6,155.1 84.7,148.4 84.7,144.4 84.7,145.6 84.7,147.1 84.7,141.1 84.7,142.1 84.7,143.4 84.8,138.2 84.8,134.9 84.8,131.1 84.8,132.2 84.8,127.9 84.8,129.2 84.9,131.0 85.0,133.4 85.4,124.1 85.4,125.7 86.1,127.9 86.2,130.7 172.5,119.6 837.6,121.4 932.0,123.8" fill="none" stroke="#2563eb" stroke-width="1.8" stroke-linejoin="round" opacity="0.9"/>
  <polyline points="80.0,159.1 80.0,161.1 84.5,153.4 84.6,155.1 84.7,148.4 84.7,144.4 84.7,145.6 84.7,147.1 84.7,141.1 84.7,142.1 84.7,143.4 84.8,138.2 84.8,134.9 84.8,131.1 84.8,132.2 84.8,127.9 84.8,129.2 84.9,131.0 85.0,133.4 85.4,124.1 85.4,125.7 86.1,127.9 86.2,130.7 172.5,119.6 837.6,121.4 932.0,123.8" fill="none" stroke="#dc2626" stroke-width="1.8" stroke-linejoin="round" opacity="0.9"/>
  <polyline points="80.0,159.1 80.0,161.1 84.5,153.4 84.6,155.1 84.7,148.4 84.7,144.4 84.7,145.5 84.7,147.1 84.7,141.0 84.7,142.0 84.7,143.3 84.8,138.2 84.8,134.9 84.8,131.0 84.8,132.1 84.8,127.8 84.8,129.1 84.9,130.9 85.0,133.3 85.4,124.0 85.4,125.6 86.1,127.7 86.2,130.6 172.5,119.5 837.6,121.2 932.0,123.6" fill="none" stroke="#16a34a" stroke-width="1.8" stroke-linejoin="round" opacity="0.9"/>
  <polyline points="80.0,159.1 80.0,161.1 84.5,153.3 84.6,155.0 84.7,148.4 84.7,144.4 84.7,145.5 84.7,147.0 84.7,141.0 84.7,142.0 84.7,143.3 84.8,138.1 84.8,134.8 84.8,131.0 84.8,132.1 84.8,127.7 84.8,129.1 84.9,130.8 85.0,133.2 85.4,123.9 85.4,125.5 86.1,127.6 86.2,130.4 172.5,119.3 837.6,121.1 932.0,123.5" fill="none" stroke="#d97706" stroke-width="1.8" stroke-linejoin="round" opacity="0.9"/>
  <polyline points="80.0,159.1 80.0,161.1 84.5,153.3 84.6,155.0 84.7,148.4 84.7,144.3 84.7,145.5 84.7,147.0 84.7,141.0 84.7,142.0 84.7,143.3 84.8,138.1 84.8,134.8 84.8,131.0 84.8,132.1 84.8,127.7 84.8,129.0 84.9,130.8 85.0,133.2 85.4,123.9 85.4,125.5 86.1,127.6 86.2,130.4 172.5,119.3 837.6,121.1 932.0,123.4" fill="none" stroke="#7c3aed" stroke-width="1.8" stroke-linejoin="round" opacity="0.9"/>
  <polyline points="80.0,159.1 80.0,161.1 84.5,153.3 84.6,155.0 84.7,148.3 84.7,144.3 84.7,145.5 84.7,147.0 84.7,141.0 84.7,141.9 84.7,143.2 84.8,138.1 84.8,134.8 84.8,130.9 84.8,132.0 84.8,127.7 84.8,129.0 84.9,130.8 85.0,133.1 85.4,123.9 85.4,125.4 86.1,127.6 86.2,130.4 172.5,119.3 837.6,121.0 932.0,123.4" fill="none" stroke="#0891b2" stroke-width="1.8" stroke-linejoin="round" opacity="0.9"/>
  <polyline points="80.0,159.1 80.0,161.1 84.5,153.3 84.6,155.0 84.7,148.3 84.7,144.3 84.7,145.5 84.7,147.0 84.7,141.0 84.7,141.9 84.7,143.2 84.8,138.1 84.8,134.8 84.8,130.9 84.8,132.0 84.8,127.7 84.8,129.0 84.9,130.8 85.0,133.1 85.4,123.8 85.4,125.4 86.1,127.5 86.2,130.3 172.5,119.2 837.6,121.0 932.0,123.4" fill="none" stroke="#db2777" stroke-width="1.8" stroke-linejoin="round" opacity="0.9"/>
  <polyline points="80.0,159.1 80.0,161.1 84.5,153.3 84.6,155.0 84.7,148.3 84.7,144.3 84.7,145.5 84.7,147.0 84.7,140.9 84.7,141.9 84.7,143.2 84.8,138.1 84.8,134.7 84.8,130.9 84.8,132.0 84.8,127.7 84.8,129.0 84.9,130.7 85.0,133.1 85.4,123.8 85.4,125.4 86.1,127.5 86.2,130.3 172.5,119.2 837.6,121.0 932.0,123.3" fill="none" stroke="#65a30d" stroke-width="1.8" stroke-linejoin="round" opacity="0.9"/>
  <polyline points="80.0,159.1 80.0,161.1 84.5,153.3 84.6,155.0 84.7,148.3 84.7,144.3 84.7,145.5 84.7,147.0 84.7,140.9 84.7,141.9 84.7,143.2 84.8,138.1 84.8,134.7 84.8,130.9 84.8,132.0 84.8,127.6 84.8,129.0 84.9,130.7 85.0,133.1 85.4,123.8 85.4,125.4 86.1,127.5 86.2,130.3 172.5,119.2 837.6,120.9 932.0,123.3" fill="none" stroke="#475569" stroke-width="1.8" stroke-linejoin="round" opacity="0.9"/>
  <polyline points="80.0,159.1 80.0,161.1 84.5,153.3 84.6,155.0 84.7,148.3 84.7,144.3 84.7,145.4 84.7,147.0 84.7,140.9 84.7,141.9 84.7,143.2 84.8,138.0 84.8,134.7 84.8,130.9 84.8,132.0 84.8,127.6 84.8,128.9 84.9,130.7 85.0,133.0 85.4,123.8 85.4,125.3 86.1,127.4 86.2,130.2 172.5,119.1 837.6,120.9 932.0,123.2" fill="none" stroke="#ea580c" stroke-width="1.8" stroke-linejoin="round" opacity="0.9"/>
  <line x1="950" y1="94" x2="972" y2="94" stroke="#ea580c" stroke-width="3"/><text x="980" y="98" font-size="12.5" fill="#374151">vip 9  110282825</text>
  <line x1="950" y1="116" x2="972" y2="116" stroke="#475569" stroke-width="3"/><text x="980" y="120" font-size="12.5" fill="#374151">vip 8  110268361</text>
  <line x1="950" y1="138" x2="972" y2="138" stroke="#65a30d" stroke-width="3"/><text x="980" y="142" font-size="12.5" fill="#374151">vip 7  110258718</text>
  <line x1="950" y1="160" x2="972" y2="160" stroke="#db2777" stroke-width="3"/><text x="980" y="164" font-size="12.5" fill="#374151">vip 6  110244253</text>
  <line x1="950" y1="182" x2="972" y2="182" stroke="#0891b2" stroke-width="3"/><text x="980" y="186" font-size="12.5" fill="#374151">vip 5  110234610</text>
  <line x1="950" y1="204" x2="972" y2="204" stroke="#7c3aed" stroke-width="3"/><text x="980" y="208" font-size="12.5" fill="#374151">vip 4  110220146</text>
  <line x1="950" y1="226" x2="972" y2="226" stroke="#d97706" stroke-width="3"/><text x="980" y="230" font-size="12.5" fill="#374151">vip 3  110210503</text>
  <line x1="950" y1="248" x2="972" y2="248" stroke="#16a34a" stroke-width="3"/><text x="980" y="252" font-size="12.5" fill="#374151">vip 2  110171931</text>
  <line x1="950" y1="270" x2="972" y2="270" stroke="#2563eb" stroke-width="3"/><text x="980" y="274" font-size="12.5" fill="#374151">vip 0  110123717</text>
  <line x1="950" y1="292" x2="972" y2="292" stroke="#dc2626" stroke-width="3"/><text x="980" y="296" font-size="12.5" fill="#374151">vip 1  110123717</text>
  <text x="80" y="542" text-anchor="start" font-size="12" fill="#6b7280">2025-10-10</text><text x="932" y="542" text-anchor="end" font-size="12" fill="#6b7280">2025-10-29</text>
</svg>
