<?xml version="1.0" encoding="UTF-8"?>
<svg xmlns="http://www.w3.org/2000/svg" width="1000" height="520" viewBox="0 0 1000 520" font-family="ui-sans-serif, system-ui, sans-serif">
  <rect width="1000" height="520" fill="#ffffff"/>
  <text x="78" y="28" font-size="18" font-weight="700" fill="#111827">Zone Recovery — ETHUSD best setting (equity / PnL)</text>
  <text x="78" y="48" font-size="12.5" fill="#6b7280">lev 25 · ratio 4 · gap 20% · maxSteps 6 · maxDD 60% · random · vip 9  ·  852 series, 77.9% win · vol $1189142930 ($2919863/day) · fees $100601</text>
  <text x="78" y="68" font-size="12.5" font-weight="600" fill="#1d4ed8">USDC · BNB −10% · taker 0.0085%</text>
  <text x="934" y="28" text-anchor="end" font-size="18" font-weight="700" fill="#16a34a">+423572 USDT  (+4235.72%)</text>
  <line x1="78" y1="468.0" x2="934" y2="468.0" stroke="#e5e7eb" stroke-width="1"/><text x="68" y="472.0" text-anchor="end" font-size="12" fill="#6b7280">0.00</text><line x1="78" y1="392.0" x2="934" y2="392.0" stroke="#e5e7eb" stroke-width="1"/><text x="68" y="396.0" text-anchor="end" font-size="12" fill="#6b7280">96289</text><line x1="78" y1="316.0" x2="934" y2="316.0" stroke="#e5e7eb" stroke-width="1"/><text x="68" y="320.0" text-anchor="end" font-size="12" fill="#6b7280">192577</text><line x1="78" y1="240.0" x2="934" y2="240.0" stroke="#e5e7eb" stroke-width="1"/><text x="68" y="244.0" text-anchor="end" font-size="12" fill="#6b7280">288866</text><line x1="78" y1="164.0" x2="934" y2="164.0" stroke="#e5e7eb" stroke-width="1"/><text x="68" y="168.0" text-anchor="end" font-size="12" fill="#6b7280">385155</text><line x1="78" y1="88.0" x2="934" y2="88.0" stroke="#e5e7eb" stroke-width="1"/><text x="68" y="92.0" text-anchor="end" font-size="12" fill="#6b7280">481443</text>
  <line x1="78" y1="460.1" x2="934" y2="460.1" stroke="#9ca3af" stroke-width="1.5" stroke-dasharray="6 4"/><text x="934" y="454.1" text-anchor="end" font-size="11" fill="#6b7280">start 10000</text>
  <polyline points="78.0,417.2 78.2,417.9 78.4,419.1 78.7,419.6 78.8,420.5 78.9,425.6 78.9,419.9 78.9,416.4 79.3,420.6 79.6,421.8 79.6,422.8 79.7,424.0 79.7,422.2 79.8,423.9 79.8,423.5 79.9,426.2 80.0,426.1 80.2,424.1 80.4,426.1 80.4,427.5 80.5,430.0 80.5,430.0 80.5,431.2 80.5,431.2 80.6,432.1 80.6,434.3 80.6,435.8 80.7,435.1 80.7,437.3 80.8,439.6 80.8,440.8 80.8,437.6 80.9,438.1 81.0,439.1 81.0,434.4 81.1,435.8 81.3,438.5 81.5,438.5 81.6,437.0 81.7,435.0 81.8,434.4 81.9,435.3 81.9,437.9 82.0,440.0 82.0,439.3 82.1,438.4 82.2,438.4 82.2,430.9 82.2,430.7 82.2,424.8 82.2,426.7 82.2,426.7 82.3,426.8 82.3,428.8 82.4,430.6 82.5,429.1 83.1,428.2 83.5,431.7 83.8,434.8 84.0,432.1 84.1,433.6 84.2,432.7 84.3,429.9 84.4,435.8 84.5,436.5 84.6,433.2 84.9,429.8 85.7,430.7 86.0,427.6 86.2,425.0 86.3,425.1 86.5,425.5 87.0,426.2 87.4,429.6 87.7,429.5 88.1,430.9 88.2,430.2 88.4,432.0 88.6,432.1 88.8,432.8 89.1,432.8 89.4,430.9 89.8,432.2 89.9,436.0 90.2,435.6 90.5,435.2 90.7,435.6 90.8,433.5 90.9,434.3 91.0,433.9 91.3,434.7 91.5,434.4 91.7,433.5 91.9,431.7 92.2,432.3 92.4,430.8 92.6,431.2 92.9,431.0 93.1,432.3 93.5,433.5 93.7,433.9 94.1,432.6 94.4,431.7 94.8,432.4 94.9,435.8 94.9,436.7 95.0,438.1 95.1,437.7 95.3,438.1 95.6,436.6 96.2,437.0 96.7,438.2 96.7,439.2 96.9,439.2 97.1,440.0 97.2,439.1 97.2,438.6 97.5,438.6 98.1,440.0 98.4,439.9 98.8,440.9 99.1,440.4 99.3,438.8 99.6,436.2 100.0,436.3 100.8,436.8 101.3,436.8 101.5,438.7 102.0,438.0 102.5,437.0 102.6,432.3 102.7,432.4 102.9,431.9 103.1,430.4 103.2,426.3 103.2,423.5 103.3,423.2 103.3,425.4 103.4,427.2 103.5,426.2 103.6,426.9 103.8,426.9 104.0,425.9 104.3,427.0 104.5,429.3 104.8,426.0 105.0,425.7 105.1,425.5 105.3,427.6 105.5,426.9 105.6,425.7 105.7,421.6 105.7,420.8 105.7,417.9 105.7,419.7 105.8,415.3 105.9,416.5 105.9,414.8 106.0,414.8 106.1,415.6 106.2,418.1 106.2,416.7 106.3,416.1 106.4,418.6 106.5,418.3 106.6,417.6 106.7,415.4 106.8,415.8 106.8,414.8 106.8,415.8 106.8,415.5 106.8,415.3 106.9,413.8 106.9,413.3 106.9,414.0 106.9,412.1 106.9,411.1 107.0,412.5 107.0,414.4 107.1,414.1 107.1,416.6 107.2,414.4 107.4,414.0 107.5,416.7 107.6,418.8 107.7,421.0 107.7,420.1 108.0,418.3 108.2,418.9 108.3,419.6 108.6,415.4 108.6,413.0 108.6,410.6 108.6,411.1 108.6,408.8 108.7,409.6 108.7,408.5 108.8,409.2 108.9,410.3 108.9,408.9 109.0,408.6 109.0,411.5 109.2,409.1 109.3,409.0 109.3,402.2 109.3,403.0 109.3,401.5 109.3,401.5 109.4,402.0 109.4,402.1 109.4,402.2 109.4,403.7 109.5,405.1 109.6,407.1 109.7,409.1 109.7,407.4 109.7,405.7 109.8,402.9 109.8,402.5 109.9,404.2 110.0,403.9 110.1,399.3 110.1,397.7 110.1,401.6 110.2,403.6 110.3,405.1 110.4,405.4 110.5,405.0 110.6,404.7 110.6,405.4 110.6,402.0 110.7,401.8 110.7,402.4 110.7,402.4 110.8,403.3 110.9,402.8 110.9,401.7 111.0,400.3 111.2,401.8 111.2,402.1 111.3,405.8 111.3,406.0 111.4,405.3 111.4,407.5 111.5,409.7 111.6,409.4 111.7,410.7 111.7,411.5 111.8,411.1 111.9,411.2 112.0,408.8 112.2,411.4 112.6,410.5 112.9,405.2 113.1,408.0 113.4,406.1 113.6,406.1 113.8,402.7 114.0,403.0 114.0,405.8 114.2,399.3 114.2,394.1 114.2,393.2 114.4,389.9 114.5,386.8 114.5,384.6 114.6,388.7 115.0,385.0 115.1,381.9 115.3,385.7 115.5,390.8 115.6,386.9 116.0,387.2 116.0,383.9 116.1,384.7 116.3,382.9 116.3,373.9 116.3,372.5 116.3,369.8 116.4,365.4 116.5,364.9 116.5,363.5 116.6,361.2 116.7,363.4 116.8,366.1 116.9,365.2 117.1,369.4 117.2,368.3 117.4,364.1 117.5,365.4 117.5,359.4 117.5,354.4 117.6,355.0 117.6,354.1 117.6,355.2 117.6,363.3 117.7,365.9 117.7,366.6 117.8,365.3 117.8,367.0 117.9,371.5 117.9,376.8 117.9,377.4 117.9,379.6 118.0,377.4 118.0,375.0 118.1,375.4 118.1,372.6 118.1,371.9 118.3,372.0 118.3,374.5 118.4,386.7 118.4,382.4 118.4,386.0 118.5,383.4 118.5,383.8 118.6,384.9 118.7,388.4 118.7,391.6 118.7,389.9 118.8,387.2 119.0,388.0 119.0,388.0 119.1,388.4 119.1,387.0 119.1,388.9 119.3,387.9 119.5,388.6 119.6,390.7 119.7,393.7 119.7,388.0 119.9,393.0 120.0,388.4 120.0,385.2 120.1,382.4 120.2,385.5 120.3,384.9 120.4,388.6 120.5,379.9 120.6,379.5 120.7,380.2 120.9,381.0 121.1,383.5 121.2,385.9 121.4,387.1 121.7,386.7 121.8,390.7 121.9,388.9 122.1,389.3 122.2,384.6 122.3,387.6 122.4,383.3 122.6,386.1 122.7,387.5 122.9,388.4 123.0,393.2 123.1,393.0 123.2,392.0 123.4,390.0 123.7,390.7 123.9,393.0 124.1,395.1 124.2,398.3 124.2,400.7 124.3,401.3 124.3,403.0 124.3,402.7 124.3,403.8 124.3,403.8 124.4,403.0 124.5,401.3 124.6,403.6 124.7,402.7 125.0,402.9 125.3,399.8 125.7,398.9 125.9,400.6 126.0,391.8 126.0,387.6 126.1,384.9 126.1,381.8 126.1,381.3 126.3,378.7 126.3,376.1 126.4,380.7 126.6,378.7 126.7,376.5 126.8,373.7 126.9,376.1 127.0,378.0 127.2,377.9 127.4,376.6 127.7,380.7 127.9,378.9 128.1,375.2 128.3,381.1 128.5,377.2 128.6,376.5 128.6,369.7 128.7,369.7 128.8,367.9 128.8,377.7 128.9,378.4 128.9,382.1 128.9,381.4 129.1,381.1 129.3,380.2 129.6,381.4 129.7,376.5 129.9,380.2 130.2,375.3 130.6,374.3 130.8,376.3 131.1,377.9 131.4,379.3 132.1,378.3 132.4,379.1 132.6,379.1 132.7,384.9 132.7,383.6 132.8,384.2 132.9,385.2 133.0,385.1 133.2,383.7 133.4,383.7 133.8,380.8 133.9,380.4 134.4,381.4 134.7,381.3 134.8,373.8 135.1,373.3 135.4,374.2 135.6,373.7 135.8,370.3 135.9,367.3 136.1,364.0 136.2,362.9 136.4,359.3 136.5,364.6 136.6,360.2 136.9,362.7 137.1,357.2 137.1,355.7 137.2,355.1 137.4,360.6 137.6,356.8 138.0,360.6 138.2,363.9 138.5,362.9 138.7,365.2 138.8,367.0 139.1,363.3 139.4,366.0 139.7,360.4 139.9,357.1 140.1,359.4 140.4,361.2 140.6,360.4 140.7,365.3 140.9,363.4 141.2,360.9 141.2,358.3 141.3,356.2 141.5,357.6 141.7,351.2 141.7,351.5 141.9,351.5 142.4,356.5 142.8,351.9 143.0,355.0 143.4,355.9 143.5,356.5 143.7,357.5 143.7,360.0 143.7,360.5 143.8,361.7 144.0,360.0 144.4,358.8 144.9,357.8 145.1,355.1 145.1,352.2 145.2,353.0 145.6,355.9 145.8,355.2 146.1,356.4 146.5,359.0 146.5,359.9 147.0,357.4 147.2,359.8 147.4,358.8 147.6,361.2 147.7,361.2 148.0,361.7 148.0,364.2 148.1,363.8 148.7,363.0 148.9,360.3 149.1,360.4 149.3,362.2 149.7,362.8 150.0,358.2 150.3,359.4 150.8,360.5 151.4,361.8 151.8,362.1 152.3,362.0 152.5,373.3 152.5,379.1 152.6,376.0 152.6,377.6 152.7,377.6 152.8,381.8 152.9,383.3 153.1,384.4 153.3,383.3 153.4,391.7 153.4,389.9 153.5,391.1 153.7,391.0 153.7,388.3 153.9,387.7 154.1,389.7 154.2,387.7 154.6,388.3 155.1,393.1 155.4,387.6 155.7,388.9 156.0,390.4 156.4,390.2 156.8,390.1 158.1,391.2 158.8,391.6 159.7,393.6 159.7,396.7 159.7,400.4 159.9,400.7 160.2,402.0 160.5,400.3 160.5,399.5 161.1,399.2 161.7,397.6 161.7,393.4 161.8,390.0 161.8,383.5 161.9,386.8 162.0,384.5 162.1,385.9 162.3,386.3 162.5,385.4 162.9,386.8 162.9,386.6 162.9,386.6 163.0,387.2 163.0,387.4 163.1,387.2 163.1,387.3 163.3,389.8 163.7,386.9 163.8,388.3 163.9,389.1 164.1,389.2 164.3,390.6 164.3,397.1 164.3,399.2 164.4,397.8 164.6,396.4 164.9,396.1 165.1,395.8 165.1,395.5 165.1,395.4 165.3,395.6 165.3,395.5 165.4,393.4 165.4,393.8 165.4,393.5 165.5,393.3 165.6,390.4 165.8,391.2 165.8,394.0 165.9,393.2 166.0,393.4 166.0,394.5 166.1,394.2 166.3,393.7 166.6,393.9 166.9,396.9 167.5,396.1 167.7,395.8 168.1,393.5 168.3,394.2 168.7,394.0 169.0,394.0 169.8,395.8 169.9,397.5 170.3,396.5 170.6,397.4 170.9,397.0 171.8,393.1 171.8,390.7 171.8,390.2 171.9,390.9 172.0,391.2 172.4,391.3 172.7,391.8 173.7,393.2 174.1,398.1 174.2,398.9 174.4,401.3 174.7,400.0 175.0,399.3 175.4,400.2 175.5,401.9 175.8,401.3 176.1,399.2 176.6,400.2 177.2,400.6 177.7,401.0 178.2,404.8 178.2,404.8 178.3,400.0 178.5,399.0 178.6,399.1 178.9,398.4 179.5,398.4 180.0,399.3 180.6,399.5 180.8,399.5 181.1,402.0 181.5,400.7 181.6,401.9 181.9,402.2 182.3,401.9 182.5,400.8 183.0,401.6 183.4,400.5 183.8,400.7 184.4,402.4 184.6,402.5 184.8,402.0 185.0,402.1 185.3,402.9 185.6,402.1 186.2,401.2 186.4,400.5 186.9,401.4 187.3,401.6 187.5,402.0 187.7,403.9 187.9,402.3 188.6,403.8 188.9,404.6 189.0,405.7 189.0,405.7 189.0,405.1 189.0,405.1 189.2,403.9 189.7,405.1 189.8,406.9 190.0,408.6 190.1,410.6 190.3,411.5 190.5,411.5 190.6,413.2 190.8,415.5 191.0,415.6 191.2,417.3 191.2,418.4 191.2,416.4 191.4,415.1 191.7,415.4 191.9,413.1 192.2,414.1 192.4,416.4 192.4,417.1 192.5,416.0 192.6,417.3 192.7,415.5 193.1,414.2 193.3,413.6 193.6,414.1 194.0,414.7 194.5,413.8 195.1,411.1 195.1,411.4 195.3,409.8 195.7,410.5 196.2,408.6 196.8,411.0 197.5,413.8 197.6,413.5 198.3,414.9 198.7,415.1 199.5,412.7 200.3,411.4 201.8,412.4 202.4,409.3 203.2,412.1 204.3,414.2 205.3,411.6 206.2,412.1 207.1,412.9 208.2,412.9 208.7,413.1 208.8,417.3 208.8,417.5 208.9,417.4 209.3,417.3 210.1,418.7 210.1,414.5 210.3,416.7 211.2,415.0 212.4,416.0 213.2,416.2 213.2,416.3 213.7,412.5 214.2,409.9 214.3,409.0 214.4,407.1 214.4,403.4 214.4,399.2 214.4,397.5 214.4,399.7 214.5,399.2 214.6,398.8 214.9,399.6 215.8,399.3 216.8,399.3 217.7,401.7 218.6,399.3 219.2,393.3 219.2,395.5 219.3,396.2 219.7,397.2 220.4,396.0 221.0,396.2 221.5,398.5 222.6,397.3 223.0,393.8 223.7,394.1 224.1,393.5 224.8,396.5 225.3,396.1 226.0,395.4 226.6,396.6 227.3,396.3 228.2,395.1 229.1,396.0 230.7,394.7 232.0,394.4 232.6,393.1 232.8,387.1 232.9,391.5 233.5,389.7 233.7,385.9 233.7,385.0 233.8,384.9 234.0,379.0 234.2,376.8 234.6,376.0 235.1,371.6 235.2,367.3 235.3,371.4 235.4,369.9 235.6,366.4 235.8,370.2 236.1,364.8 236.2,366.2 236.7,365.3 237.3,364.5 237.5,367.1 237.8,367.1 238.1,370.3 238.3,372.2 238.7,372.2 239.0,369.1 239.3,366.2 239.6,366.3 240.1,367.1 240.3,366.8 240.8,363.6 241.0,370.5 241.6,369.4 242.2,369.4 242.7,367.5 243.3,366.3 243.7,366.7 244.3,365.3 245.4,365.0 245.9,361.7 246.0,357.1 246.0,353.0 246.1,354.2 246.3,351.9 246.5,353.0 246.8,350.2 246.9,343.8 247.0,345.8 247.4,347.7 247.8,357.0 247.8,367.5 247.8,374.2 247.8,370.3 247.8,373.3 247.9,373.2 248.0,376.8 248.1,375.7 248.5,373.4 248.6,376.9 248.7,382.1 248.7,379.3 248.9,378.4 249.1,374.5 249.6,378.9 250.1,374.1 250.4,373.9 250.5,377.1 250.8,377.1 251.4,378.3 252.0,377.6 252.5,379.8 253.2,378.9 254.1,375.6 254.6,379.5 254.7,385.8 254.7,389.4 254.7,385.9 254.7,383.8 254.9,380.4 255.4,377.6 256.3,377.4 256.3,376.5 256.4,379.5 256.7,378.6 257.6,380.1 258.5,377.4 259.0,378.3 259.8,380.7 260.6,382.7 261.2,382.4 262.7,384.1 263.3,386.2 263.5,385.7 263.8,388.5 264.1,389.5 264.3,393.0 264.7,390.2 265.2,389.0 265.8,390.1 266.2,388.2 266.4,387.3 266.6,381.9 266.8,380.8 266.9,376.8 267.1,378.0 267.5,378.0 267.6,380.4 268.3,377.0 268.8,378.2 269.2,377.6 269.9,375.7 270.2,376.7 271.0,376.8 271.5,376.9 272.2,378.1 273.1,377.2 273.7,377.1 273.7,384.0 274.4,379.7 275.3,377.8 275.4,378.9 276.4,378.8 277.9,379.0 278.8,381.5 279.1,383.5 279.7,382.2 280.0,381.7 280.4,385.3 280.9,380.9 281.6,381.6 282.2,381.8 283.3,384.0 283.9,383.4 284.8,383.3 285.6,379.4 285.6,380.9 285.6,386.1 285.8,383.4 286.8,382.2 287.5,381.5 287.7,380.5 287.9,377.5 288.1,378.2 288.6,377.9 289.0,372.5 289.0,369.8 289.0,369.8 289.0,368.5 289.1,368.0 289.1,369.3 289.1,371.9 289.5,371.0 290.1,372.9 290.7,375.2 291.9,374.8 292.1,374.1 292.9,373.2 293.3,376.1 293.9,376.5 294.4,376.6 295.1,375.9 295.8,376.2 296.4,375.4 296.6,376.2 297.3,376.8 297.5,376.8 297.5,376.9 297.6,376.9 297.6,377.2 297.9,376.0 298.5,376.4 299.0,375.4 299.8,374.9 300.4,378.1 300.4,381.1 300.8,379.8 301.4,379.3 302.7,377.6 303.9,376.6 305.3,377.7 306.6,378.2 307.0,380.2 307.0,380.1 307.5,378.5 308.2,379.0 309.0,381.0 309.4,382.6 309.8,380.9 310.9,381.9 311.3,381.2 311.8,380.4 312.1,376.8 312.5,377.1 313.0,375.7 313.5,376.8 313.9,375.1 314.9,376.7 315.3,376.5 315.6,376.9 316.4,376.6 316.9,372.4 317.3,372.8 317.7,372.6 318.1,367.4 318.4,371.7 319.5,372.1 321.4,372.1 322.3,374.1 322.6,370.3 323.5,371.2 324.0,373.4 324.7,371.8 324.7,367.6 324.7,364.6 324.8,359.0 324.8,362.2 324.8,360.3 324.8,357.1 324.8,356.5 324.8,363.0 324.9,361.8 324.9,362.8 324.9,361.1 325.1,358.4 325.3,358.4 325.5,352.9 325.5,350.9 325.6,355.0 325.8,355.9 325.9,354.3 326.1,349.6 326.2,351.1 326.4,346.2 326.4,343.3 326.5,338.6 326.5,338.9 326.6,339.6 326.7,335.0 326.7,335.6 326.8,339.4 326.8,343.8 326.9,346.3 327.0,343.0 327.2,343.3 327.5,339.0 327.6,338.7 327.7,339.7 327.8,331.8 327.9,333.5 327.9,330.3 328.0,334.3 328.1,333.1 328.2,328.6 328.2,327.6 328.3,328.2 328.4,332.0 328.4,342.8 328.4,342.5 328.4,350.2 328.4,358.5 328.5,352.7 328.5,354.6 328.5,351.3 328.5,347.1 328.5,349.0 328.6,347.1 328.7,345.8 328.8,347.2 328.9,349.9 329.1,347.4 329.4,348.5 329.7,348.1 330.0,351.0 330.0,354.3 330.1,355.7 330.1,356.8 330.2,355.2 330.3,355.9 330.3,355.2 330.4,351.6 330.9,353.7 331.1,344.5 331.6,343.4 331.8,343.4 331.9,346.6 332.1,345.0 332.4,345.8 332.6,343.2 333.4,345.5 334.1,341.3 334.3,341.5 334.6,341.2 335.1,341.6 335.5,339.3 336.2,341.1 336.6,336.9 336.7,333.4 336.9,334.0 337.0,326.6 337.0,321.2 337.0,321.8 337.1,322.6 337.1,318.9 337.3,323.9 337.5,324.2 337.9,329.3 338.0,330.1 338.1,328.6 338.3,325.9 338.5,330.0 338.6,327.8 338.8,325.4 339.0,327.4 339.3,327.4 339.3,329.9 339.5,330.8 339.6,330.8 339.7,329.4 339.9,329.8 340.1,328.2 340.4,330.5 340.8,330.6 341.2,332.4 341.3,328.5 341.3,326.8 341.7,324.0 342.3,324.9 342.4,326.3 342.8,322.5 342.8,323.5 342.9,329.5 342.9,337.2 343.0,330.6 343.3,330.2 343.5,332.4 343.6,338.9 343.6,337.4 344.0,342.3 344.1,343.7 344.1,342.8 344.2,348.6 344.3,344.6 344.5,345.9 344.7,345.2 344.9,343.6 345.2,347.1 345.5,348.2 345.5,347.3 345.8,345.1 346.1,348.8 346.6,343.9 346.9,342.8 347.7,344.0 348.5,347.0 349.3,346.9 350.2,346.8 351.5,343.2 351.6,341.0 352.3,342.1 353.0,342.9 353.2,351.7 353.2,352.4 353.2,350.2 353.4,352.1 353.7,349.4 354.3,347.4 355.2,345.2 355.5,344.1 356.1,342.5 357.0,342.6 357.4,343.5 357.5,343.0 358.1,341.3 358.1,336.3 358.1,335.3 358.1,334.7 358.2,336.6 358.2,335.9 358.3,335.0 358.4,336.3 358.8,336.9 359.1,336.7 359.5,333.5 359.7,333.0 360.0,334.2 360.2,338.1 360.8,335.9 361.4,335.1 361.8,335.0 362.5,333.3 363.0,332.4 364.0,335.1 364.6,333.9 365.1,340.9 365.8,340.4 366.7,339.5 367.7,336.2 367.9,338.1 368.3,335.7 368.8,334.6 369.1,332.2 369.4,332.9 369.8,333.6 370.2,336.3 370.4,339.7 370.7,341.0 370.7,339.9 371.0,338.8 371.2,345.7 371.4,344.8 371.8,344.9 372.1,348.0 372.3,346.3 372.6,343.8 372.9,345.8 373.6,345.1 374.1,345.6 374.5,344.4 374.6,357.5 374.6,361.7 374.6,364.9 374.6,360.4 374.7,358.9 374.7,358.3 374.7,359.3 374.7,358.7 374.8,362.7 374.9,360.1 375.0,356.2 375.1,358.6 375.3,357.8 375.7,359.4 376.0,358.8 376.2,360.8 376.5,360.8 377.1,357.6 378.2,355.8 378.5,354.4 379.1,354.9 379.9,355.3 380.3,356.6 381.1,358.2 382.0,358.8 382.4,360.8 382.6,356.9 383.0,360.1 383.5,356.3 384.4,353.5 384.6,353.5 385.1,349.7 385.3,348.1 386.3,350.7 386.9,351.1 387.7,352.0 388.6,353.5 389.1,353.2 389.6,350.4 390.1,349.0 390.3,345.1 390.4,343.2 390.6,342.0 390.9,342.8 391.2,343.1 391.8,341.8 392.0,346.5 392.8,348.9 393.4,349.1 394.2,346.7 394.7,349.0 395.3,351.6 395.9,349.4 396.4,351.8 397.0,347.2 397.2,343.6 397.2,336.0 397.3,333.6 397.4,334.0 397.8,335.6 397.9,330.1 398.0,329.3 398.3,330.9 398.8,331.7 399.1,333.6 399.1,340.3 399.2,336.5 399.5,338.5 399.7,338.2 400.0,345.3 400.0,343.6 400.4,341.6 400.7,340.5 401.2,340.5 401.5,341.6 402.0,337.3 402.2,336.7 402.5,337.3 403.2,340.1 403.4,341.4 403.7,344.0 404.1,341.3 404.4,338.1 404.8,333.5 405.5,336.6 405.7,335.5 406.0,333.2 406.1,335.8 406.6,331.7 406.8,330.4 407.0,329.3 407.0,321.2 407.1,321.8 407.2,314.9 407.3,315.1 407.5,315.8 407.7,313.8 407.9,306.9 408.0,307.8 408.2,304.6 408.3,303.9 408.3,298.7 408.4,312.5 408.4,311.4 408.5,318.0 408.6,309.5 408.7,311.2 409.0,304.6 409.1,304.8 409.1,314.2 409.3,309.2 409.4,314.7 409.7,319.6 409.8,322.5 409.9,321.2 410.1,317.8 410.4,318.1 410.7,316.9 410.8,317.6 411.0,315.0 411.5,312.4 411.7,311.4 411.8,308.3 411.8,304.5 411.8,303.7 411.9,301.3 411.9,300.0 411.9,297.3 412.0,298.7 412.0,302.0 412.2,301.6 412.4,301.2 412.5,299.7 412.5,309.5 412.5,312.6 412.6,308.1 412.7,303.6 412.9,300.4 412.9,294.5 412.9,297.5 412.9,293.5 413.0,292.2 413.1,289.5 413.2,291.2 413.3,290.6 413.4,290.5 413.5,295.8 413.7,293.1 413.8,294.3 413.9,297.4 414.0,299.4 414.1,294.9 414.3,298.7 414.4,298.3 414.6,288.3 414.6,283.7 414.7,280.0 414.7,278.9 414.8,277.8 414.9,279.6 415.0,273.6 415.0,273.4 415.0,273.2 415.0,271.7 415.1,270.5 415.3,265.9 415.4,271.8 415.4,268.5 415.6,263.5 415.6,263.8 415.7,265.9 415.8,266.6 415.9,265.3 416.1,265.2 416.1,259.3 416.2,257.7 416.2,255.5 416.3,254.5 416.4,255.5 416.4,255.8 416.5,255.0 416.5,259.6 416.6,256.4 416.7,252.5 416.7,246.4 416.8,243.5 416.9,234.5 416.9,228.6 416.9,228.5 416.9,224.6 416.9,226.3 417.0,229.8 417.0,227.0 417.1,219.4 417.1,223.7 417.2,227.6 417.2,228.7 417.2,236.9 417.2,238.7 417.2,238.9 417.2,239.0 417.3,233.3 417.3,235.7 417.4,225.4 417.6,230.5 417.7,235.2 417.7,247.1 417.7,246.2 417.8,249.8 417.8,241.8 417.9,251.4 418.0,246.3 418.1,234.1 418.2,228.9 418.2,222.7 418.2,217.3 418.2,219.4 418.3,227.7 418.3,225.9 418.4,235.3 418.4,225.7 418.5,233.1 418.5,238.9 418.6,233.3 418.6,240.6 418.8,225.7 418.9,229.5 419.0,237.3 419.1,240.2 419.1,250.4 419.2,259.0 419.2,258.7 419.2,275.3 419.2,263.9 419.2,256.5 419.2,259.5 419.2,254.5 419.3,257.4 419.3,253.6 419.4,262.7 419.6,260.9 419.7,258.0 419.9,269.8 420.0,272.8 420.1,261.3 420.2,265.0 420.3,274.2 420.4,269.7 420.5,272.7 420.6,269.9 420.8,258.7 421.0,252.4 421.2,258.6 421.5,253.6 422.0,259.1 422.3,258.7 422.9,261.8 423.2,253.4 423.3,249.0 423.4,244.4 423.6,242.4 423.8,236.4 424.3,241.0 424.7,237.2 425.0,233.8 425.2,230.7 425.2,242.1 425.3,245.3 425.5,245.5 425.8,244.9 426.1,244.0 426.4,257.6 426.5,249.0 426.9,250.9 427.1,241.4 427.4,241.5 427.7,246.7 428.4,245.6 428.5,243.8 428.9,240.8 429.1,236.2 429.2,234.2 429.3,239.1 429.4,237.9 429.7,238.4 430.2,237.8 430.4,241.7 430.6,242.3 430.8,237.8 431.0,243.5 431.2,247.0 431.2,254.6 431.3,248.6 431.4,257.0 431.5,252.4 431.7,252.2 432.0,260.5 432.2,262.5 432.4,260.9 432.8,254.6 433.0,252.9 433.3,254.5 433.6,248.9 434.0,251.8 434.4,244.9 434.8,244.0 435.1,239.3 435.4,243.0 435.8,246.7 436.3,245.9 436.7,237.1 437.1,243.3 437.4,245.4 437.9,243.6 438.2,248.2 438.5,246.1 438.8,247.1 439.1,245.9 439.5,241.3 439.6,235.6 439.6,229.2 439.6,227.2 439.7,222.8 439.8,226.1 439.9,224.0 440.0,221.6 440.0,220.6 440.2,226.7 440.3,225.2 440.5,225.3 440.9,227.7 441.1,224.1 441.3,218.2 441.4,220.8 441.4,220.8 441.4,225.6 441.6,224.5 441.8,226.5 442.0,219.9 442.1,223.0 442.4,220.8 442.7,222.4 443.1,223.1 443.3,224.4 443.5,223.9 443.6,220.7 443.8,222.8 444.0,221.4 444.3,225.6 444.6,226.8 444.6,232.3 444.7,230.1 444.9,227.3 444.9,225.0 445.1,222.3 445.3,221.8 445.4,219.5 445.6,219.7 445.9,220.5 446.3,221.5 446.5,220.2 446.6,212.2 446.6,206.3 446.6,206.2 446.9,205.5 447.2,205.7 447.5,206.8 447.6,201.7 447.7,216.5 447.7,214.3 447.7,216.4 447.7,221.9 447.7,225.3 447.8,224.2 447.9,222.3 448.0,223.9 448.0,229.7 448.1,228.7 448.1,238.6 448.1,256.1 448.1,252.6 448.1,246.6 448.2,248.8 448.2,241.6 448.3,242.0 448.4,238.8 448.5,241.6 448.7,246.0 448.9,242.8 449.0,240.2 449.3,240.6 449.4,237.8 449.6,232.0 449.7,236.4 449.9,233.8 450.0,232.8 450.1,232.8 450.3,232.9 450.7,222.7 451.0,226.0 451.6,224.8 451.9,229.4 452.5,226.5 453.0,226.0 453.7,223.9 454.0,225.2 454.4,224.8 454.7,225.2 455.1,225.9 455.3,235.5 455.6,230.7 455.8,231.7 455.9,238.0 456.0,235.2 456.3,234.2 456.6,235.5 456.7,246.0 456.7,245.6 456.7,244.9 456.7,255.4 456.8,257.2 456.8,252.6 456.8,249.7 456.9,249.1 457.1,249.7 457.4,252.0 457.9,246.3 458.2,251.1 458.3,258.0 458.4,254.1 458.4,262.6 458.5,261.8 458.7,263.1 458.9,255.6 459.2,254.8 459.6,251.7 460.1,255.5 460.2,257.3 460.5,250.9 460.7,254.0 461.1,249.4 461.5,250.9 462.1,253.6 462.5,255.4 462.6,259.7 462.9,254.8 463.0,247.2 463.4,248.5 463.4,257.6 463.4,251.4 463.6,247.7 464.0,246.2 464.4,247.4 464.5,241.9 464.8,246.3 465.2,246.6 465.8,248.8 466.3,248.9 466.7,253.5 467.2,251.6 467.6,255.8 468.3,259.4 468.7,263.3 468.8,267.2 469.1,266.5 469.4,271.3 469.9,263.9 470.4,255.1 470.6,254.5 470.9,251.9 471.3,252.3 471.6,250.9 472.3,252.5 472.6,257.0 472.9,260.3 473.3,252.7 473.6,252.1 473.8,247.5 474.3,248.5 474.6,246.7 474.8,246.0 474.9,241.2 475.0,238.8 475.1,237.2 475.4,239.2 475.6,231.9 475.7,231.0 476.0,234.6 476.5,235.7 476.8,232.6 477.0,232.7 477.3,233.6 477.5,235.1 477.6,238.3 478.2,240.8 478.9,239.1 479.1,237.7 479.5,238.5 479.7,231.1 479.8,227.7 480.0,229.9 480.5,227.8 481.1,230.0 481.3,223.0 481.5,221.6 481.8,224.0 482.1,224.8 482.4,218.2 482.5,216.6 482.7,222.7 482.9,222.4 483.2,218.1 483.3,218.8 483.5,219.4 483.7,227.8 483.9,224.1 484.1,220.2 484.3,224.0 484.7,223.4 485.1,219.5 485.3,218.8 485.5,222.3 485.8,220.1 486.1,218.3 486.2,220.6 486.4,222.1 486.7,224.5 487.1,225.4 487.4,224.2 487.5,229.1 487.8,228.6 488.1,231.4 488.3,229.8 488.6,227.6 489.1,226.3 489.6,227.9 489.8,226.0 490.0,226.6 490.3,224.0 490.7,222.2 491.1,224.5 491.6,224.3 491.7,223.7 491.9,224.6 492.2,222.9 492.3,218.7 492.6,215.8 492.6,206.6 492.7,209.8 492.8,210.5 493.0,202.3 493.3,200.1 493.6,201.5 493.7,205.9 493.9,201.2 494.0,200.2 494.1,194.2 494.3,196.4 494.5,192.6 494.6,191.5 494.6,188.1 494.7,181.7 494.8,184.6 494.8,182.8 494.9,179.6 494.9,184.1 495.0,182.1 495.3,179.5 495.5,176.4 495.7,173.1 495.8,170.1 495.9,183.5 495.9,187.2 495.9,179.9 496.0,179.1 496.0,181.2 496.0,182.3 496.0,181.7 496.1,178.2 496.2,178.8 496.3,182.2 496.5,184.6 496.7,180.0 496.7,180.0 496.7,180.0 496.7,182.3 496.8,172.1 497.0,174.4 497.4,176.5 498.0,177.8 498.3,175.5 498.6,173.5 498.7,181.9 498.8,189.7 499.0,183.3 499.2,180.2 499.5,180.4 499.8,178.3 500.0,177.3 500.2,175.8 500.5,180.6 500.7,174.1 501.0,176.8 501.3,173.4 501.6,172.5 502.0,177.7 502.0,178.8 502.2,175.9 502.5,177.5 502.7,177.8 502.9,170.9 503.1,166.5 503.2,170.3 503.3,157.2 503.3,154.5 503.4,147.4 503.4,147.0 503.5,155.8 503.6,151.9 503.8,149.4 504.0,149.4 504.1,136.1 504.2,135.4 504.2,134.4 504.3,137.5 504.4,138.8 504.4,131.0 504.5,123.9 504.5,129.1 504.5,130.2 504.5,127.1 504.6,127.9 504.6,127.9 504.7,127.6 504.7,129.0 504.8,122.7 504.8,127.7 504.8,154.5 504.8,143.5 504.8,149.8 504.8,148.3 504.8,160.0 504.8,159.2 504.9,162.6 504.9,160.2 505.0,156.5 505.1,147.8 505.1,142.2 505.2,144.0 505.2,147.3 505.3,154.9 505.4,147.6 505.6,159.2 505.7,163.8 505.9,182.3 505.9,185.9 505.9,182.5 506.0,176.6 506.1,176.5 506.2,177.1 506.2,183.9 506.3,188.6 506.4,180.5 506.5,180.9 506.5,186.1 506.5,195.8 506.5,197.2 506.5,192.5 506.6,199.7 506.6,210.1 506.6,203.9 506.6,207.2 506.6,205.3 506.6,202.0 506.7,195.0 506.8,200.8 506.8,208.9 506.9,218.0 507.0,196.2 507.1,195.7 507.1,192.6 507.2,197.4 507.3,189.3 507.3,190.0 507.5,195.9 507.7,192.1 507.8,187.3 507.9,190.9 507.9,187.9 508.1,183.2 508.3,186.2 508.5,180.0 508.7,180.6 508.8,182.4 508.9,176.5 508.9,176.0 509.1,181.0 509.2,176.8 509.5,185.4 509.5,188.5 509.6,193.0 509.8,188.3 510.2,187.4 510.5,182.8 510.8,179.6 511.0,176.5 511.3,170.7 511.4,163.4 511.9,169.9 512.3,176.5 512.5,185.3 512.6,194.5 512.6,201.3 512.8,194.5 513.1,188.1 513.4,194.0 513.5,194.4 513.5,198.4 513.8,190.0 514.1,195.9 514.5,195.1 514.6,204.7 514.7,202.9 514.8,211.3 514.8,206.2 514.9,202.9 515.1,205.5 515.3,204.7 515.5,200.8 516.3,214.8 516.5,214.1 516.7,212.5 516.8,212.5 516.9,206.3 517.0,201.1 517.2,205.2 517.5,201.4 517.7,195.9 517.9,194.7 518.1,189.7 518.3,191.6 518.6,192.8 518.9,196.2 519.1,194.3 519.2,199.0 519.4,195.7 519.7,187.0 519.9,187.5 520.3,193.2 520.8,194.3 521.2,194.1 521.6,197.2 521.8,199.5 521.8,204.6 522.0,207.5 522.3,205.1 522.6,206.7 522.8,194.4 523.2,199.0 523.5,198.8 523.7,201.0 524.0,198.1 524.5,196.8 525.3,197.0 525.6,193.9 525.9,203.1 526.4,203.2 527.2,194.0 527.6,191.0 527.7,180.7 527.9,180.7 528.1,180.5 528.7,181.5 529.0,180.0 529.0,175.7 529.2,178.9 529.3,180.6 529.6,179.1 529.7,180.2 529.9,176.5 530.1,174.7 530.3,174.6 530.5,168.7 530.8,170.3 531.0,174.6 531.2,174.1 531.2,174.2 531.6,174.4 531.7,176.0 532.0,176.8 532.0,181.6 532.2,179.2 532.5,175.4 532.6,173.1 533.0,179.7 533.5,178.9 533.7,187.1 533.7,189.0 533.7,199.7 533.7,205.7 533.7,208.7 533.8,204.3 533.8,202.7 533.8,199.4 533.9,205.8 534.0,204.6 534.1,205.3 534.2,205.5 534.3,200.1 534.6,208.0 534.9,207.2 534.9,214.1 534.9,228.6 534.9,229.4 534.9,226.2 535.1,222.8 535.3,220.5 535.6,218.5 535.9,219.1 536.1,218.2 536.3,224.6 536.4,228.0 536.8,222.0 537.2,222.4 537.5,215.1 537.8,216.1 538.1,217.0 538.4,214.8 538.9,218.0 539.5,221.5 540.0,222.5 540.4,226.8 540.7,226.8 541.6,227.9 541.7,257.6 541.7,258.8 541.7,255.1 541.8,251.8 541.9,262.1 542.1,258.5 542.2,265.2 542.3,262.2 542.5,264.1 542.7,257.8 542.9,272.4 542.9,274.5 542.9,280.5 542.9,288.0 542.9,287.9 543.0,298.9 543.0,294.1 543.0,287.0 543.0,288.3 543.0,283.8 543.1,284.0 543.2,277.2 543.4,278.9 543.7,274.5 544.0,272.4 544.1,277.0 544.2,272.5 544.2,269.9 544.3,269.6 544.5,268.4 544.5,270.0 544.5,264.5 544.6,266.6 544.8,268.8 544.9,264.3 545.0,267.9 545.4,271.4 545.8,272.3 546.2,282.9 546.2,285.1 546.3,282.9 546.3,283.5 546.4,287.2 546.4,290.2 546.4,294.2 546.5,293.8 546.5,293.4 546.5,306.3 546.5,312.0 546.5,307.9 546.6,305.1 546.6,306.2 546.8,299.2 546.9,299.7 547.0,304.2 547.1,305.0 547.3,302.7 547.3,306.9 547.4,305.1 547.8,299.8 548.1,307.9 548.2,306.4 548.4,294.7 548.5,287.3 548.6,285.1 548.7,283.8 548.9,292.1 549.0,284.9 549.2,291.4 549.5,288.7 549.8,282.2 550.0,287.6 550.3,288.8 550.4,293.0 550.5,282.1 550.5,274.3 550.6,276.1 550.6,274.7 550.8,274.9 551.0,274.9 551.5,276.2 551.9,279.1 552.1,282.9 552.5,282.7 552.5,284.8 552.8,283.3 553.1,281.3 553.7,273.7 554.6,273.6 554.7,271.8 554.7,271.6 554.8,271.5 554.9,263.8 555.2,267.1 555.7,271.3 556.5,274.4 556.9,277.9 557.4,276.8 558.1,275.1 558.5,281.4 558.9,279.3 558.9,286.0 559.1,284.9 559.4,287.6 559.6,285.2 560.1,284.8 560.5,289.8 560.8,289.4 561.1,293.3 561.4,284.4 561.8,291.0 561.8,301.3 561.9,299.6 562.0,297.3 562.4,296.6 563.1,291.4 563.3,293.8 563.5,290.2 564.0,282.8 564.1,277.5 564.8,278.0 565.1,280.1 565.4,279.3 566.1,285.2 567.0,283.5 567.6,282.8 568.1,282.6 568.4,276.8 569.0,287.3 569.1,294.5 569.2,300.1 569.7,293.8 570.2,295.5 571.4,294.6 572.2,302.4 572.2,297.2 572.3,290.0 572.8,289.9 573.7,293.8 573.9,292.3 574.6,293.6 575.4,294.1 575.9,290.0 576.4,291.7 577.4,288.4 577.7,285.2 578.0,285.8 578.7,285.1 579.3,287.8 579.7,288.0 580.2,286.7 580.7,283.8 581.3,281.1 581.6,280.2 582.2,283.2 582.5,284.4 583.1,275.5 583.9,277.6 584.5,278.0 585.3,282.2 586.6,278.6 587.1,273.8 587.3,269.5 587.8,271.2 588.1,264.8 588.5,266.0 588.7,265.0 589.1,266.2 589.7,268.5 590.1,263.9 590.1,271.6 590.5,270.4 590.9,272.8 591.2,273.3 591.8,272.8 592.6,270.8 592.6,276.2 592.7,279.0 593.1,278.5 593.6,273.9 594.4,275.4 594.8,282.0 594.9,286.3 595.3,283.0 596.1,284.4 596.3,290.5 596.4,294.8 596.8,291.4 597.1,295.1 597.5,293.1 597.7,289.4 598.4,289.5 598.6,300.9 598.6,300.4 599.0,299.9 599.7,295.3 600.2,291.5 601.2,288.5 601.8,287.4 602.8,292.3 603.4,290.5 603.9,292.2 604.3,293.4 605.1,293.7 605.2,299.7 605.3,297.9 605.9,293.7 606.3,295.0 607.0,295.8 607.4,301.0 607.4,305.6 607.4,306.6 607.5,317.0 607.5,319.4 607.5,321.9 607.5,319.8 607.6,317.8 607.8,318.8 608.0,318.7 608.1,317.9 608.4,321.3 608.5,328.2 608.6,325.8 608.6,330.8 608.7,330.3 608.8,325.5 609.0,323.0 609.2,325.6 609.4,322.0 609.6,323.1 609.9,318.5 610.1,317.2 610.3,318.0 610.7,327.0 610.8,326.0 610.9,324.6 610.9,322.4 611.4,322.6 611.9,320.2 612.8,321.2 613.9,323.1 614.5,320.9 615.3,315.4 615.8,307.0 616.4,310.3 617.1,307.4 617.5,301.7 617.9,303.4 618.2,305.6 618.6,301.9 619.3,305.9 619.6,308.1 620.2,307.9 620.7,309.9 621.0,312.6 621.1,319.0 621.5,318.3 621.8,326.3 622.0,321.9 622.2,321.0 622.7,321.1 623.0,321.5 623.6,319.8 624.1,313.8 624.3,312.5 624.7,313.4 625.4,314.4 626.0,315.0 626.3,309.3 627.0,311.9 627.7,313.1 628.5,316.2 629.6,317.0 630.5,316.9 631.1,320.5 631.3,312.4 632.1,315.9 632.9,318.9 633.8,319.3 634.8,318.7 635.5,320.1 636.4,320.6 637.0,324.7 637.0,331.8 637.0,335.7 637.0,343.2 637.0,336.2 637.0,337.4 637.1,336.4 637.5,335.3 637.9,338.4 638.5,339.9 638.8,344.8 639.1,339.5 639.5,340.6 640.0,340.9 640.4,340.2 641.1,340.5 642.0,339.4 643.5,341.0 644.0,335.3 644.9,338.5 645.7,338.2 646.6,337.7 647.4,331.5 647.5,329.7 647.7,327.1 648.2,329.3 648.8,333.3 649.3,326.0 649.4,325.3 650.0,328.7 650.4,328.3 651.3,331.4 651.9,330.6 652.5,333.8 653.1,339.1 653.6,335.9 654.2,333.9 654.8,332.0 655.2,332.3 655.6,330.8 655.9,337.3 656.0,337.4 656.1,341.2 656.1,341.6 657.1,338.3 657.8,334.0 657.9,328.3 658.2,328.3 658.8,322.9 659.0,324.4 659.7,327.3 660.3,326.8 660.9,328.4 661.6,323.5 662.0,327.1 662.3,327.0 663.0,323.2 663.7,325.1 664.4,327.9 664.8,325.4 665.3,328.3 666.0,329.9 666.5,331.2 667.7,329.6 668.8,326.6 669.9,327.6 670.7,328.9 671.4,325.7 672.3,323.2 672.6,319.0 673.2,316.0 673.9,317.4 674.7,316.0 675.2,317.1 675.6,310.2 676.1,311.6 676.4,314.4 676.8,315.1 677.2,309.9 677.3,306.6 677.5,305.6 678.1,305.7 678.5,304.0 678.6,302.3 678.8,301.6 678.9,296.0 678.9,292.8 679.1,293.5 679.3,286.5 679.6,292.5 680.0,289.0 680.4,289.0 680.8,286.6 681.0,287.4 681.3,291.2 681.7,295.0 681.9,300.5 682.3,297.4 682.9,294.4 683.1,281.5 683.1,276.7 683.3,280.2 683.5,282.6 683.9,283.7 684.3,283.2 684.7,285.4 685.2,284.6 685.6,285.3 686.1,282.4 686.9,285.0 687.4,285.5 688.0,288.2 688.3,293.3 689.1,289.7 689.7,296.8 690.5,293.1 691.1,292.8 691.3,295.9 691.6,296.5 691.9,303.6 692.3,301.2 692.8,305.5 693.2,307.2 693.3,310.8 693.4,314.0 693.5,314.1 693.7,317.5 693.8,327.0 693.8,335.7 693.8,345.2 693.8,343.0 693.8,339.6 693.8,341.4 693.9,339.9 693.9,348.7 693.9,356.5 693.9,343.6 693.9,347.1 694.0,343.7 694.0,345.5 694.0,345.2 694.1,338.4 694.2,341.0 694.3,339.1 694.4,333.7 694.7,339.8 695.0,346.7 695.3,341.6 695.5,340.8 695.7,341.5 695.8,338.0 696.0,340.1 696.4,338.6 696.8,340.3 697.4,339.2 697.5,344.3 697.6,341.5 697.7,347.3 697.7,351.1 697.8,353.5 697.8,354.5 697.9,350.3 698.0,345.3 698.3,344.8 698.7,343.8 699.1,341.8 699.7,344.5 699.8,345.8 700.2,342.1 700.3,333.8 700.5,335.5 701.0,332.8 701.7,336.0 702.1,332.1 702.6,333.1 703.4,337.7 703.9,344.0 704.3,341.2 705.0,340.8 705.2,342.9 705.6,339.3 705.9,332.8 706.1,327.9 706.4,328.6 706.6,330.1 707.0,327.3 707.1,321.5 707.6,326.6 708.1,326.9 708.4,331.2 708.5,332.6 709.0,330.6 710.0,329.9 710.5,331.1 710.9,327.7 711.6,327.6 712.3,333.4 712.5,335.2 712.9,334.9 713.8,333.7 714.6,331.8 714.8,330.2 716.0,331.5 717.1,332.1 718.6,336.3 719.0,340.7 719.5,338.9 720.2,334.8 720.6,328.9 720.8,328.9 721.0,325.5 721.2,325.2 721.6,326.6 722.0,323.5 722.4,326.1 722.8,328.7 723.2,327.3 723.5,327.2 724.0,325.9 724.5,323.3 724.9,321.9 724.9,314.7 724.9,312.8 725.0,314.7 725.1,311.7 725.3,314.5 725.6,314.0 725.7,310.5 726.1,311.0 726.5,314.7 726.7,315.8 727.1,314.2 727.4,314.5 727.9,313.6 728.3,309.0 728.3,316.8 728.4,317.2 728.4,319.8 728.7,319.6 729.2,321.4 729.3,326.2 729.3,325.0 729.5,326.2 729.8,325.1 730.2,323.1 730.8,322.0 731.6,325.3 731.8,327.0 732.4,324.6 733.5,322.4 733.9,326.3 734.3,324.9 734.7,322.7 735.2,323.3 735.5,324.7 735.6,320.4 735.8,319.2 736.0,319.0 736.3,318.1 736.7,321.2 737.2,322.2 737.5,323.1 737.7,322.7 737.7,329.6 737.8,326.7 738.0,326.9 738.2,328.9 738.6,327.6 739.0,328.4 739.4,331.2 739.5,334.1 739.7,334.8 739.9,334.4 740.2,333.9 740.7,334.1 740.8,335.5 741.0,334.0 741.5,331.0 741.9,329.9 742.3,330.6 743.0,331.7 743.2,334.8 743.4,339.6 743.7,336.0 744.1,335.3 744.5,334.3 745.8,335.1 746.5,338.7 747.2,338.1 748.3,333.4 748.7,332.8 749.4,333.5 749.8,330.8 750.2,331.1 750.3,335.3 750.9,334.0 751.7,333.5 752.1,333.2 752.4,334.4 752.6,335.2 752.8,336.3 753.1,336.9 753.4,339.9 753.4,344.0 753.6,342.5 754.1,342.1 754.2,347.5 754.2,351.8 754.3,350.0 754.3,351.2 754.4,350.4 754.4,351.7 754.4,351.3 754.5,355.7 754.6,350.5 754.9,350.2 755.1,350.1 755.4,350.0 755.5,349.0 755.7,348.8 756.1,348.5 756.5,347.0 756.8,347.7 757.2,348.5 757.8,348.4 758.3,343.4 758.7,339.4 758.7,337.1 758.7,328.8 758.8,327.4 758.8,318.4 758.9,324.4 759.2,325.1 759.5,316.0 759.5,312.3 759.6,305.2 759.6,306.0 759.6,313.9 759.8,317.7 760.1,321.0 760.3,325.8 760.9,326.6 761.5,328.3 762.5,329.0 762.9,320.1 763.3,320.0 763.7,317.9 764.2,323.6 764.6,320.8 765.0,323.7 765.3,324.2 765.5,321.5 765.9,322.4 766.4,319.5 766.7,316.3 766.9,319.9 767.3,318.8 767.5,315.0 767.7,312.3 768.0,313.3 768.3,319.4 768.7,323.9 769.0,324.1 769.2,323.2 769.8,324.1 770.7,325.5 771.0,322.6 771.5,322.8 771.8,325.9 772.0,324.8 772.7,325.8 772.8,324.6 773.2,327.0 773.4,330.1 773.7,325.8 773.9,323.1 775.2,324.7 775.7,321.8 777.2,325.3 778.2,324.2 779.5,319.1 780.0,319.5 780.3,320.5 780.9,318.9 781.3,320.2 781.7,317.0 781.8,314.6 782.1,316.2 782.6,316.8 783.0,313.2 783.4,314.1 783.9,315.1 784.4,315.5 784.9,316.4 785.3,317.3 785.7,320.1 786.3,319.6 787.1,318.0 787.5,322.7 787.9,324.7 788.2,324.1 788.7,320.7 789.6,321.2 790.6,322.4 791.5,316.9 792.4,321.3 792.4,315.9 792.9,315.7 793.5,317.2 794.1,320.0 794.7,320.3 795.8,319.5 796.4,323.3 796.9,320.8 797.6,320.9 798.4,319.6 798.8,316.5 799.2,318.3 799.8,320.6 800.5,321.4 800.8,322.2 801.4,321.8 801.8,324.7 802.2,323.2 802.5,323.5 802.7,329.3 802.9,328.5 803.5,327.3 805.1,324.2 807.0,322.3 808.4,323.7 809.2,325.2 809.4,332.4 809.7,329.5 810.8,331.5 811.4,333.9 811.9,332.6 812.6,331.2 813.3,331.4 813.7,334.3 814.1,333.4 814.8,337.6 815.0,341.3 815.3,343.5 815.4,350.5 815.4,350.6 815.5,349.0 815.6,350.5 815.7,352.2 815.9,351.4 816.1,349.2 816.7,352.5 816.8,355.3 816.9,352.1 817.0,357.3 817.0,362.1 817.1,363.0 817.1,363.9 817.3,365.1 817.4,370.5 817.4,374.6 817.4,370.3 817.5,368.2 817.5,366.0 817.6,365.0 817.7,364.2 817.8,361.1 817.9,359.8 818.0,359.0 818.3,365.0 818.9,361.6 819.7,358.1 820.1,361.0 820.9,362.4 821.6,363.6 821.8,369.5 822.1,368.9 822.5,373.3 822.5,374.9 822.6,377.3 822.7,376.0 822.8,379.2 822.9,380.5 823.0,380.6 823.3,375.2 823.4,366.1 823.5,371.0 823.6,366.0 823.6,363.0 823.7,364.3 823.9,360.8 824.1,362.3 824.4,363.9 824.7,366.6 825.2,364.4 825.6,365.9 826.0,366.3 826.4,363.5 827.0,367.3 827.5,368.3 827.6,370.3 827.7,367.4 827.9,364.1 828.1,362.0 828.2,355.7 828.4,356.9 829.3,360.1 830.0,360.6 830.8,360.6 831.9,356.6 832.3,354.6 833.0,356.8 834.5,360.8 835.3,363.8 835.8,364.7 836.9,361.3 837.7,365.2 838.5,363.2 839.0,363.6 839.6,362.5 840.5,364.5 841.3,364.7 841.7,368.0 842.6,362.9 842.6,361.0 843.2,362.7 843.2,366.3 843.9,366.7 844.4,366.5 845.4,364.4 846.5,365.3 847.2,363.4 848.3,363.2 850.0,364.8 851.4,360.6 852.4,361.6 853.3,362.9 854.0,364.8 855.3,365.9 856.3,366.1 857.5,370.4 858.3,372.0 858.8,370.7 859.7,368.7 861.0,368.4 861.7,367.9 863.0,368.8 864.7,372.2 865.3,369.7 866.8,371.7 867.9,371.8 868.2,380.8 868.2,385.4 868.3,383.5 868.5,383.0 869.1,383.4 869.4,383.9 870.0,387.2 870.1,388.5 870.4,388.6 870.5,394.7 870.7,393.9 870.9,392.5 871.3,392.8 871.9,395.1 872.0,399.1 872.0,393.9 872.2,387.9 872.6,385.2 872.8,383.3 872.9,382.7 873.1,386.4 874.0,387.9 874.5,388.4 874.9,388.2 875.3,388.7 876.3,388.0 876.8,387.1 877.7,388.1 879.0,388.4 880.7,384.8 881.2,382.6 881.7,380.9 882.5,381.9 882.9,385.6 883.3,387.9 884.4,386.4 885.2,387.6 886.0,389.3 887.1,391.6 888.5,390.2 889.1,387.2 889.5,387.8 890.4,391.5 891.2,390.8 891.7,389.0 893.2,387.1 893.9,387.3 895.0,386.5 895.8,379.1 896.5,379.2 897.3,383.5 897.8,384.0 898.1,384.0 898.5,383.9 898.9,382.9 899.4,381.6 899.6,385.2 899.9,386.9 900.4,385.3 900.7,385.0 901.5,382.7 902.2,385.1 902.9,385.9 903.6,386.2 903.9,388.9 904.6,389.3 904.9,385.2 905.2,383.7 905.3,382.1 905.6,382.2 906.0,380.7 906.3,381.4 907.1,380.6 908.2,380.9 909.5,378.2 910.3,376.3 911.0,374.8 911.4,374.5 911.8,371.5 911.8,370.9 912.0,372.5 912.3,371.8 912.7,370.0 912.9,368.7 913.2,369.0 914.2,372.6 914.5,369.7 914.7,367.7 914.8,370.9 914.9,369.9 915.0,368.9 915.0,366.0 915.1,365.0 915.1,366.3 915.2,367.8 915.3,367.3 915.3,367.4 915.4,367.6 915.5,367.7 915.6,367.4 916.0,369.5 916.2,371.0 916.3,371.8 916.4,371.8 916.4,373.7 916.4,374.8 916.5,374.6 916.5,374.7 916.6,374.2 917.0,371.8 917.7,373.4 918.1,375.3 918.6,378.2 918.9,376.2 919.5,377.3 920.1,377.8 920.5,373.6 920.6,370.9 920.8,368.5 920.9,368.8 921.3,369.0 921.9,369.7 922.7,368.3 923.1,366.0 923.6,368.8 924.7,367.8 925.4,366.1 926.4,369.3 926.8,370.0 927.1,369.6 927.7,365.5 927.7,364.9 927.9,362.6 928.3,362.3 928.6,359.8 928.8,354.6 928.9,355.0 929.0,351.1 929.1,346.8 929.2,339.2 929.2,344.9 929.3,344.1 929.4,347.0 929.6,342.1 929.7,340.9 929.8,341.4 930.0,348.6 930.2,349.0 930.4,347.5 930.6,342.6 930.9,342.6 931.0,344.1 931.1,345.9 931.4,345.6 931.7,343.6 931.9,348.5 932.2,349.8 932.6,347.9 933.1,347.4 933.5,346.1 934.0,345.6" fill="none" stroke="#d97706" stroke-width="1.2" stroke-linejoin="round" opacity="0.6"/><text x="942" y="472.0" text-anchor="start" font-size="11" fill="#d97706">58.19</text><text x="942" y="396.0" text-anchor="start" font-size="11" fill="#d97706">123.85</text><text x="942" y="320.0" text-anchor="start" font-size="11" fill="#d97706">189.51</text><text x="942" y="244.0" text-anchor="start" font-size="11" fill="#d97706">255.17</text><text x="942" y="168.0" text-anchor="start" font-size="11" fill="#d97706">320.83</text><text x="942" y="92.0" text-anchor="start" font-size="11" fill="#d97706">386.49</text><text x="942" y="80.0" text-anchor="start" font-size="11" font-weight="600" fill="#d97706">price</text>
  <polygon points="78.4,468.0 78.4,460.1 78.5,461.1 78.8,458.5 78.9,459.6 78.9,457.1 79.1,458.9 79.6,454.1 79.8,451.2 79.8,448.1 80.4,445.0 80.4,446.8 80.4,449.6 80.5,442.9 80.6,439.1 80.6,440.8 80.7,443.6 80.8,433.1 80.8,430.0 80.8,431.8 80.8,434.6 80.9,439.0 80.9,440.8 81.0,443.6 81.0,436.8 81.3,433.7 81.3,436.0 81.6,429.9 81.9,431.7 82.0,427.7 82.0,429.9 82.1,433.4 82.2,424.8 82.2,421.8 82.3,414.8 82.3,411.7 82.4,413.5 82.5,416.3 82.6,420.7 83.1,422.5 83.4,417.7 83.7,419.5 84.0,422.3 84.2,426.7 84.2,428.5 84.2,431.3 84.3,420.6 84.3,422.4 84.4,418.4 84.5,420.7 84.6,414.6 84.6,416.4 84.6,419.2 84.6,423.6 84.6,420.6 84.6,422.4 85.3,417.5 85.6,419.3 85.9,414.6 86.1,412.2 86.2,414.4 86.3,417.9 86.4,421.1 86.5,423.3 86.6,426.8 87.1,418.1 87.8,420.3 88.2,414.4 88.2,412.1 89.9,409.0 91.0,411.2 91.3,414.8 91.3,418.0 92.0,414.1 92.4,415.9 92.9,418.7 94.8,411.2 95.2,413.0 96.7,408.1 97.2,409.9 97.4,412.8 99.1,417.1 101.4,418.9 101.5,421.7 102.6,414.2 103.0,411.9 103.2,405.0 103.2,406.8 103.2,409.6 103.3,414.0 103.6,411.7 104.0,413.9 104.8,417.4 105.0,420.5 105.6,422.8 105.7,413.7 105.7,415.5 105.8,418.3 105.8,411.5 105.9,413.7 106.0,417.2 106.0,420.5 106.1,422.7 106.7,426.2 106.9,425.5 107.0,427.3 107.1,422.5 107.6,424.3 107.7,419.5 108.1,417.2 108.3,419.4 108.6,413.4 108.6,411.0 108.7,413.3 108.8,416.7 108.9,419.9 109.2,422.1 109.2,425.6 109.3,417.0 109.3,414.0 109.3,416.2 109.6,410.2 110.0,412.0 110.1,407.2 110.4,404.1 110.5,405.9 110.7,401.9 110.7,404.1 111.0,407.6 111.0,410.9 111.3,407.1 111.4,408.9 111.5,411.7 111.7,404.1 111.8,405.9 112.9,401.8 113.2,404.0 113.3,407.5 113.5,410.7 113.8,407.6 113.8,409.9 113.8,413.3 113.8,416.5 113.8,413.5 113.8,409.6 114.0,411.4 114.1,414.3 114.1,418.6 114.1,420.4 114.2,423.2 114.2,415.7 114.3,417.5 114.3,420.3 114.4,412.9 114.5,414.6 114.6,417.5 115.0,410.7 115.0,412.9 115.1,416.4 115.2,419.6 115.2,415.8 115.4,417.6 115.9,420.4 116.3,412.9 116.3,409.9 116.3,411.7 116.3,406.9 116.3,408.7 116.3,411.4 116.5,404.0 116.5,405.8 116.6,408.6 116.7,413.0 117.1,409.9 117.2,411.7 117.5,403.7 117.6,405.5 117.6,397.7 117.6,395.3 117.7,397.5 117.9,391.6 117.9,388.5 118.0,390.3 118.1,386.2 118.2,388.5 118.3,392.0 118.4,379.4 118.4,381.2 118.4,384.0 118.5,388.3 118.5,390.1 118.6,392.9 118.7,385.3 118.7,387.1 118.7,390.0 119.0,383.2 119.2,385.4 119.4,380.1 119.7,382.3 119.7,385.8 119.7,389.0 119.7,391.2 119.7,394.6 119.8,397.8 120.0,400.0 120.4,394.8 120.5,397.1 120.5,391.0 120.6,392.8 120.7,395.6 120.7,399.9 120.8,401.7 121.2,396.9 121.4,398.7 121.5,401.5 122.1,405.9 122.3,407.6 122.7,410.4 123.0,403.7 123.3,406.0 123.6,409.5 123.7,412.7 124.2,408.9 124.2,405.8 124.2,407.6 124.3,410.4 124.4,414.8 125.3,416.6 125.9,419.4 126.0,412.6 126.0,409.5 126.1,406.5 126.1,403.5 126.3,405.7 126.3,409.2 126.3,412.4 126.7,414.7 126.8,409.5 127.0,406.4 127.2,408.6 127.3,412.0 127.7,415.2 128.2,417.5 128.2,421.0 128.6,420.3 128.8,418.0 128.8,414.2 128.8,411.1 128.8,412.9 128.9,408.1 129.4,405.7 129.6,407.9 130.6,398.9 130.9,396.6 131.2,392.8 132.9,389.7 133.8,387.3 134.1,389.6 134.3,393.0 134.3,396.2 134.5,398.4 134.7,401.9 135.0,393.3 135.8,389.5 136.1,387.1 136.1,389.3 136.6,384.2 137.3,386.4 138.0,389.9 138.7,381.2 138.8,383.5 139.7,377.4 139.7,379.2 140.2,382.0 140.4,386.3 141.2,380.1 141.6,377.8 142.0,380.0 142.5,383.4 142.9,386.6 143.4,388.9 145.1,379.7 145.8,381.5 146.5,384.2 148.0,377.5 152.5,379.8 152.5,370.6 152.6,372.4 152.8,367.6 153.1,369.4 153.4,365.4 153.7,358.4 154.1,360.2 155.4,363.0 155.5,367.4 155.7,369.1 159.7,365.2 160.2,358.2 161.7,355.9 161.7,352.8 162.3,349.8 163.3,352.1 163.8,355.6 163.8,358.8 164.0,361.0 164.3,351.9 164.3,353.7 164.4,356.4 165.4,349.0 165.4,350.8 165.8,353.5 166.2,357.9 167.6,355.6 169.9,348.7 170.4,350.5 170.5,353.3 171.8,346.5 174.0,342.7 175.5,340.4 178.2,342.7 178.9,336.6 182.4,333.5 185.6,335.3 187.8,338.1 190.0,330.6 190.3,327.5 191.2,324.4 191.8,321.4 192.2,323.2 193.1,326.0 194.4,330.4 195.2,327.3 196.2,329.1 197.4,324.3 198.3,326.1 199.6,328.8 202.4,321.4 204.3,318.3 208.8,320.1 208.8,316.1 208.8,318.3 208.8,321.8 209.8,325.1 210.0,327.3 210.1,321.3 213.7,323.1 214.3,319.0 214.4,312.1 214.4,309.7 216.3,312.0 219.2,306.0 220.2,302.9 220.7,304.6 221.3,307.4 222.2,311.7 222.6,313.5 224.0,308.7 232.7,310.5 232.8,306.5 232.8,308.7 233.7,302.7 233.7,304.5 233.7,307.3 233.7,311.7 233.7,313.4 233.9,316.2 234.0,320.5 235.0,318.2 235.1,315.2 235.3,317.4 235.4,311.4 235.9,308.3 236.1,305.2 236.7,307.0 237.2,309.8 237.4,314.2 238.0,312.0 238.9,314.2 241.0,305.1 244.5,302.8 244.7,305.1 245.9,299.0 246.0,300.8 246.0,296.0 246.3,297.8 246.8,293.0 247.8,286.9 247.8,284.7 247.8,281.6 247.8,283.8 247.8,287.3 247.8,290.5 247.8,292.8 247.8,296.2 247.8,299.4 248.0,296.3 248.0,298.6 248.0,302.1 248.1,305.3 248.7,301.5 248.7,303.3 248.7,306.0 248.9,298.6 250.2,300.4 250.4,303.1 253.6,292.5 254.1,294.3 254.7,286.5 254.9,283.4 256.3,285.2 256.3,281.1 259.5,278.0 259.6,280.3 261.4,283.7 262.5,286.9 263.3,283.8 263.7,286.0 264.3,280.1 266.2,277.0 266.6,278.8 266.6,274.8 266.9,270.9 267.6,272.7 268.5,275.4 268.7,279.7 268.9,281.5 270.8,284.4 272.3,288.7 273.1,290.5 273.7,285.7 274.5,282.7 280.5,276.5 280.9,273.5 285.6,275.3 287.5,278.1 289.0,271.3 289.0,268.3 289.1,270.5 289.1,274.0 289.7,277.3 290.6,279.5 300.4,274.2 301.1,276.5 307.0,280.0 308.4,283.2 316.7,279.3 316.7,281.1 319.5,283.9 320.8,288.2 322.3,290.0 324.7,285.9 324.8,282.9 324.8,285.1 324.8,288.6 325.0,291.9 325.5,288.8 326.0,291.0 326.5,281.9 326.5,283.7 326.5,286.5 326.5,290.9 326.6,292.7 326.7,288.7 326.8,290.9 326.8,285.6 326.8,287.9 326.8,291.4 327.1,294.6 327.5,296.8 327.6,300.3 327.7,303.5 327.8,300.4 327.9,302.7 327.9,306.2 328.0,309.4 328.2,311.7 328.4,315.2 328.4,318.4 328.4,315.3 328.4,312.2 328.4,309.2 328.4,311.4 328.4,306.1 328.4,302.3 328.5,304.1 328.5,306.9 328.5,299.4 328.5,301.2 328.6,304.0 328.8,308.3 328.9,310.1 329.5,312.9 329.5,317.3 329.9,319.1 330.1,314.3 330.1,316.0 330.1,318.8 331.1,311.4 331.8,308.3 333.5,305.2 334.0,302.2 334.1,304.0 334.5,299.9 334.6,296.8 334.9,299.1 336.6,293.0 336.6,294.8 337.0,290.1 337.0,287.0 337.0,288.8 337.1,291.6 337.4,296.0 337.9,292.9 338.1,294.7 338.4,297.4 338.6,301.8 339.6,303.6 339.8,306.4 340.0,310.8 340.3,312.5 342.8,307.8 342.9,304.7 342.9,302.4 342.9,298.5 343.6,292.4 344.1,290.1 344.2,292.4 345.0,295.9 345.5,295.2 346.3,292.2 351.5,294.0 352.9,296.8 353.2,289.3 353.3,291.0 353.8,293.8 355.3,286.4 355.3,288.1 356.0,290.9 358.1,283.5 358.3,285.3 359.3,288.1 359.4,292.5 360.0,294.3 360.8,297.1 361.4,301.4 364.2,303.2 367.7,306.1 368.0,310.4 368.8,312.2 370.7,307.4 372.7,309.2 374.6,304.4 374.6,302.1 374.6,304.4 374.6,307.9 374.8,311.1 376.2,313.3 376.4,316.9 378.4,316.2 380.2,318.0 382.2,313.1 385.1,306.9 385.7,308.7 390.3,303.9 390.4,305.7 391.8,308.5 392.0,301.8 393.4,304.0 393.9,307.4 395.4,310.6 396.6,312.8 397.2,303.7 397.2,305.5 397.9,308.4 398.0,301.5 398.0,303.8 399.1,297.8 399.3,299.6 399.9,302.4 400.0,294.9 400.0,296.7 402.2,292.6 403.7,288.8 404.2,286.5 406.0,288.7 406.5,282.7 406.9,284.4 407.0,279.7 407.1,281.5 407.3,277.4 407.5,279.7 407.9,273.6 408.1,275.4 408.4,271.4 408.4,268.3 408.4,270.5 408.4,274.0 408.4,277.3 408.5,274.2 408.7,271.1 409.0,267.3 409.1,264.2 409.1,265.9 409.2,261.2 409.4,258.9 409.7,255.1 409.8,256.9 409.9,259.7 411.0,252.9 411.8,249.1 411.9,246.0 411.9,247.8 412.5,243.8 412.6,236.8 412.8,234.5 412.9,236.7 413.3,231.5 413.4,227.7 413.5,229.4 413.9,232.2 414.0,236.5 414.0,238.3 414.3,241.1 414.3,245.5 414.4,247.3 414.6,242.5 414.6,240.2 414.6,242.5 414.7,246.0 415.0,245.3 415.3,243.0 415.7,245.2 415.7,248.7 416.1,252.0 416.7,248.9 416.9,242.0 417.0,239.7 417.2,235.9 417.2,237.7 417.3,240.5 417.3,244.9 417.3,246.7 417.4,249.5 417.5,253.8 417.7,250.8 417.7,252.6 417.7,255.4 417.8,259.7 417.8,261.5 417.9,264.3 417.9,257.6 418.0,254.6 418.1,250.7 418.2,244.5 418.2,241.4 418.3,243.2 418.3,246.0 418.4,250.4 418.4,252.2 418.5,247.3 418.6,249.1 418.7,245.1 418.8,247.3 418.9,250.7 419.0,253.9 419.1,250.8 419.1,253.0 419.1,247.1 419.2,244.0 419.2,245.8 419.2,248.5 419.2,252.8 419.2,249.7 419.2,251.5 419.2,254.3 419.2,258.6 419.2,260.4 419.2,263.2 419.2,267.6 419.2,269.4 419.2,264.6 419.2,266.4 419.2,269.1 419.2,273.5 419.2,275.3 419.2,278.1 419.2,282.4 419.3,284.2 419.3,287.0 419.3,291.3 419.6,285.1 419.8,282.0 419.9,283.8 420.0,275.9 420.1,272.9 420.3,266.7 420.3,263.7 420.3,265.5 420.3,268.3 420.8,272.7 421.1,270.4 421.1,272.6 421.6,276.1 422.4,263.5 423.3,260.5 424.0,257.4 425.0,251.3 425.2,253.0 425.2,249.0 425.6,251.2 426.3,245.3 426.4,247.1 427.0,243.0 427.3,245.2 427.6,248.7 427.8,251.9 429.0,248.0 429.2,249.8 429.5,252.5 431.0,245.9 431.2,242.1 431.2,239.7 432.3,232.8 432.7,229.7 433.3,231.5 434.3,227.5 435.8,229.7 438.6,233.1 439.5,236.3 439.5,233.3 439.6,235.5 439.6,238.9 439.6,230.4 439.8,232.6 440.2,236.1 441.1,239.4 441.2,241.6 441.4,232.5 441.4,234.3 442.0,237.1 442.7,241.5 443.1,243.3 443.4,246.1 443.5,250.5 443.7,252.3 444.0,255.1 444.8,248.4 446.5,245.3 446.6,242.3 447.6,244.5 447.7,238.5 447.7,240.3 447.7,236.3 447.7,238.6 448.0,242.1 448.1,229.5 448.1,227.3 448.1,223.4 448.1,221.1 448.1,223.3 448.1,226.7 448.2,218.2 448.2,220.4 448.6,223.9 448.6,227.2 449.0,229.4 449.5,223.4 449.6,225.2 449.8,228.0 449.9,232.4 450.0,234.1 450.3,236.9 450.7,229.5 451.7,226.4 453.2,224.1 454.3,226.3 455.3,220.3 455.3,222.1 456.1,224.9 456.3,229.3 456.7,226.2 456.7,228.0 456.7,230.8 456.7,235.2 456.8,233.0 457.9,229.1 458.3,226.8 458.4,229.1 458.9,232.6 459.0,235.8 460.1,238.1 462.5,241.6 463.0,244.8 463.4,247.0 466.6,238.0 467.0,239.8 467.9,242.6 468.7,235.0 470.3,236.8 470.4,232.0 470.8,233.8 472.9,236.6 474.9,229.8 475.8,226.8 477.1,229.1 477.3,232.6 477.6,235.8 481.3,231.9 481.3,233.7 482.7,236.5 483.3,240.8 483.4,242.6 484.3,245.3 485.2,249.6 485.4,251.4 485.8,254.2 486.2,258.5 490.6,260.3 492.2,263.1 492.6,256.3 493.0,258.5 494.1,253.3 494.1,255.5 494.3,259.0 494.7,258.2 494.8,260.0 494.9,262.8 495.7,255.4 495.9,252.3 495.9,254.0 496.5,256.8 496.8,249.4 497.0,251.2 497.1,254.0 498.5,258.4 498.6,260.2 498.6,263.0 498.6,267.4 498.8,264.3 500.2,261.2 500.7,263.0 500.9,265.8 501.1,270.2 501.3,272.0 502.3,274.8 502.8,279.2 503.3,276.9 503.4,273.8 503.4,276.1 504.1,270.1 504.2,271.8 504.5,274.6 504.5,278.9 504.8,276.6 504.8,273.5 504.8,275.7 504.8,279.2 504.8,282.3 504.8,284.5 504.8,288.0 504.8,279.4 504.8,275.6 504.8,277.4 504.8,280.2 504.8,284.5 504.8,281.5 504.8,275.3 504.8,272.2 504.8,274.0 504.8,270.0 504.8,266.9 504.8,269.1 504.8,260.0 504.8,261.7 504.8,253.9 504.8,250.8 504.8,252.5 504.8,255.3 504.8,247.9 504.8,249.6 504.8,245.6 504.8,247.9 504.8,238.8 504.8,240.5 504.8,236.5 504.8,238.7 504.8,242.2 504.8,245.4 504.9,247.6 504.9,242.3 505.1,235.4 505.1,237.2 505.2,232.4 505.3,234.1 505.5,236.9 505.6,241.2 505.8,238.1 505.9,235.0 505.9,236.8 506.2,239.6 506.3,243.9 506.5,245.6 506.5,241.6 506.6,237.8 506.6,239.6 506.8,242.4 506.8,246.7 506.9,248.5 506.9,251.3 507.3,240.6 507.8,242.4 507.9,245.2 508.3,249.6 508.4,251.4 509.5,243.5 509.5,245.3 509.9,248.1 510.2,252.4 511.0,250.1 511.2,252.4 511.4,246.3 512.0,244.1 512.6,237.1 512.8,234.1 513.5,231.0 513.5,232.8 513.8,228.0 514.6,224.9 515.3,226.7 516.2,229.4 516.3,222.8 516.6,225.0 516.7,228.4 516.8,231.6 517.6,228.6 517.7,230.8 520.1,225.6 521.8,222.5 523.7,224.7 523.9,228.3 524.0,231.5 525.3,233.7 527.1,237.1 528.1,224.7 531.0,226.5 531.2,229.2 532.8,233.5 533.6,235.3 533.7,230.5 533.7,227.4 533.7,229.2 533.8,232.0 533.9,236.4 534.2,238.2 534.3,240.9 534.3,245.3 534.7,247.0 534.9,242.2 534.9,244.0 534.9,240.0 534.9,236.1 535.5,237.9 535.9,240.7 536.3,245.0 536.4,246.8 539.6,238.9 539.9,240.7 540.7,243.5 540.8,247.8 541.7,241.7 541.7,243.5 541.7,246.3 541.7,239.6 541.7,241.8 541.7,245.2 541.7,248.4 541.7,245.4 541.9,242.3 541.9,244.5 542.0,248.0 542.2,247.4 542.9,241.2 542.9,238.2 543.0,235.9 543.0,232.8 543.0,229.8 543.0,232.0 543.0,235.5 543.0,238.7 543.1,240.9 543.4,235.8 544.1,238.0 544.2,232.0 544.3,233.8 544.5,236.6 545.3,241.0 546.1,237.9 546.4,239.6 546.4,231.8 546.5,228.7 546.5,230.5 546.5,233.3 546.5,237.7 546.6,239.5 546.6,242.3 546.8,235.5 546.9,237.7 546.9,241.2 547.0,244.4 547.3,241.3 547.6,237.4 547.8,239.2 548.1,234.4 548.2,236.2 548.2,232.1 548.5,225.1 548.5,226.9 548.6,229.7 548.9,234.1 549.0,235.9 549.1,238.7 549.4,228.1 549.6,229.9 549.8,225.8 549.8,228.1 550.3,222.8 550.3,225.0 550.5,219.0 550.5,220.8 550.5,223.5 551.3,216.1 552.1,213.8 552.5,216.1 553.7,210.0 554.6,211.8 554.7,214.6 554.9,207.8 555.5,204.7 556.3,206.9 557.0,201.0 557.6,198.0 558.9,195.7 560.4,192.6 560.7,194.8 561.1,198.3 561.3,197.5 561.8,194.5 562.6,188.3 563.2,185.2 563.2,187.0 563.7,189.8 564.4,183.0 565.1,185.3 565.4,188.8 566.4,180.1 566.7,182.3 569.0,173.3 569.1,171.0 570.6,173.2 571.3,176.6 572.2,179.8 572.2,176.7 572.2,173.7 572.3,175.9 572.5,170.7 573.2,167.6 573.7,169.8 575.0,173.3 575.8,164.7 578.8,167.0 581.4,160.9 583.2,162.7 587.3,158.0 588.4,159.7 589.2,162.5 590.1,166.8 591.2,164.5 592.0,166.7 593.2,170.2 594.0,173.4 594.9,169.6 596.9,166.5 597.0,168.3 598.6,171.0 599.7,160.4 601.9,158.1 605.2,155.0 605.2,157.3 605.2,160.8 607.2,164.0 607.4,166.3 607.4,161.0 607.5,163.2 607.5,157.9 607.6,160.2 608.0,163.7 608.6,151.1 608.6,152.9 609.0,148.9 609.2,151.1 610.1,145.9 610.3,148.1 610.7,142.8 610.9,145.1 610.9,148.5 611.2,151.7 615.4,148.7 616.1,145.6 618.5,141.8 619.4,139.5 619.9,141.7 620.4,145.3 620.7,148.5 621.1,145.4 621.3,147.6 621.6,151.2 622.8,138.5 622.9,140.3 623.7,143.1 624.3,135.6 624.9,137.4 625.0,140.3 626.1,144.6 626.8,146.4 627.8,141.6 628.4,143.4 630.8,146.1 632.6,150.5 632.8,152.2 633.5,155.0 635.2,159.3 635.3,161.1 635.9,163.9 637.0,156.4 637.0,153.3 637.0,155.0 637.0,157.8 637.1,162.1 639.1,163.9 639.6,166.7 640.4,171.1 644.5,172.9 647.4,168.1 648.8,169.9 649.0,172.7 649.3,165.9 651.3,162.8 654.1,165.0 654.7,168.5 655.9,171.7 656.2,168.6 657.9,165.5 659.5,162.5 659.9,164.8 660.0,168.3 661.6,171.5 661.7,173.7 662.8,177.2 663.4,180.3 665.4,176.5 666.2,178.3 668.9,173.6 673.1,170.5 674.2,172.3 674.6,175.1 676.5,164.5 677.2,161.4 677.7,163.2 678.8,158.4 679.3,155.4 679.3,157.2 679.8,160.0 679.9,164.4 680.6,166.2 680.9,168.9 680.9,173.2 681.2,175.0 682.4,171.0 683.1,168.0 683.1,164.9 684.7,161.1 685.2,162.9 689.4,158.1 691.3,159.9 691.5,162.6 691.9,155.9 692.1,158.1 692.2,161.6 692.9,164.8 693.8,157.8 693.8,155.6 693.8,148.6 693.8,150.4 693.8,153.1 693.8,157.5 693.8,159.2 693.8,162.0 693.8,166.3 693.8,168.1 693.8,170.9 693.8,175.3 693.8,173.0 693.8,175.2 693.8,178.6 693.8,181.8 693.8,178.8 693.8,181.1 693.8,184.6 693.9,183.9 693.9,185.7 693.9,188.5 693.9,192.8 693.9,189.7 693.9,186.7 693.9,184.3 693.9,181.2 693.9,183.4 693.9,186.9 693.9,186.2 693.9,183.1 693.9,180.8 693.9,183.0 693.9,177.0 693.9,174.0 693.9,171.7 693.9,168.7 693.9,161.7 693.9,163.5 693.9,166.3 693.9,170.7 693.9,167.6 693.9,165.3 693.9,162.2 693.9,159.2 693.9,155.3 693.9,152.2 693.9,146.1 693.9,143.7 694.0,145.9 694.0,149.4 694.0,152.6 694.2,154.8 694.4,149.6 694.6,145.8 695.1,147.6 695.3,150.4 695.4,154.8 695.6,156.6 695.6,159.3 695.9,163.6 696.6,165.4 697.5,168.2 697.6,172.5 697.7,169.4 697.8,167.1 697.8,169.4 697.9,163.3 698.0,165.1 698.4,161.1 699.1,163.3 699.9,166.7 701.6,158.2 701.7,160.4 701.9,163.9 702.5,167.2 702.9,169.4 703.8,164.1 704.1,166.3 705.2,169.8 705.6,169.1 705.7,170.8 706.1,166.1 706.2,167.9 707.0,170.6 707.7,174.9 708.2,176.7 708.7,179.5 710.0,183.9 711.6,185.7 712.5,181.7 713.0,183.9 713.8,187.4 714.0,190.6 716.5,192.8 718.3,196.2 718.6,199.4 719.0,201.7 719.9,205.2 720.4,208.4 720.9,205.4 721.2,207.6 721.5,211.0 722.8,214.2 723.4,216.5 724.9,210.4 725.1,208.1 726.6,210.4 727.9,213.9 728.3,217.1 728.4,213.3 728.6,215.1 729.3,211.1 729.8,213.3 731.9,216.7 732.2,219.9 734.0,222.1 737.6,213.1 737.7,214.8 739.5,210.9 740.5,213.1 743.1,216.6 746.5,216.0 748.5,213.7 749.8,215.9 753.4,209.9 753.4,207.7 754.2,203.8 754.3,205.6 754.3,208.4 754.4,212.7 754.5,206.5 755.2,204.2 756.4,206.4 758.0,209.9 758.7,197.4 758.7,199.2 758.7,194.4 758.8,191.4 758.8,188.3 758.8,190.1 759.5,182.1 759.6,183.9 759.6,176.0 759.6,177.8 759.6,180.5 759.7,173.8 760.2,170.0 760.5,171.8 760.6,174.6 760.8,178.9 760.9,180.6 761.7,183.4 762.5,187.7 762.8,184.7 762.9,186.5 763.7,189.3 764.1,193.7 766.1,195.5 766.9,198.3 767.6,191.5 767.8,193.7 768.7,188.4 768.7,190.7 769.0,194.2 770.0,197.4 771.2,199.7 771.5,203.2 773.9,206.4 775.9,208.7 776.8,212.2 779.5,215.4 779.6,217.6 781.5,221.1 781.8,212.5 783.4,214.8 786.5,209.5 791.4,211.7 792.4,215.1 792.4,206.6 795.2,203.5 796.9,205.7 800.5,209.2 801.7,212.4 802.7,214.6 808.7,218.1 809.4,209.4 810.9,211.7 812.4,215.2 814.8,214.5 815.4,211.4 815.4,208.4 815.4,206.0 815.5,208.3 816.6,211.8 816.8,203.1 817.0,196.2 817.0,198.0 817.0,193.2 817.1,195.0 817.2,197.8 817.4,190.2 817.4,192.0 817.4,184.1 817.6,181.0 817.7,182.8 817.8,185.6 817.8,178.9 817.8,175.7 817.9,178.0 818.6,181.4 818.9,184.6 819.6,186.8 819.6,190.3 820.8,193.5 821.3,195.7 821.5,199.2 821.9,190.5 822.5,186.7 822.6,188.5 822.8,184.5 822.9,186.7 823.4,180.7 823.4,177.6 823.4,179.4 823.6,182.3 823.9,175.4 823.9,177.7 824.3,171.7 825.6,173.5 826.0,176.3 826.3,180.7 827.1,182.5 827.7,185.3 828.0,178.5 828.1,180.7 829.7,184.2 830.9,187.3 832.3,184.3 835.2,181.2 837.7,183.5 838.2,187.0 842.1,178.3 842.6,175.2 842.6,177.4 843.2,171.5 848.4,169.2 853.3,171.4 858.2,166.1 859.5,168.4 863.8,171.9 866.7,175.1 868.2,168.2 868.2,170.0 870.4,162.1 870.4,163.9 870.9,166.7 871.9,159.2 872.0,161.0 872.1,156.9 872.2,153.9 872.3,156.1 872.7,150.1 872.8,151.8 873.0,147.8 873.0,150.1 873.4,153.6 879.9,156.8 880.6,159.0 881.4,153.9 881.7,156.1 883.0,150.8 886.1,147.0 886.6,148.8 887.2,151.6 889.4,144.8 890.8,141.7 891.9,137.9 893.9,139.6 895.3,134.9 895.8,136.6 897.0,139.4 903.8,132.7 905.2,128.9 906.1,130.6 906.4,133.4 906.7,137.7 907.5,139.5 908.2,142.2 910.9,134.8 911.0,136.6 911.8,131.8 911.8,133.6 911.8,125.7 913.9,127.5 914.8,130.2 915.0,122.8 916.1,119.7 916.1,121.5 916.2,124.3 916.3,128.7 918.5,125.6 919.1,127.4 919.4,130.1 920.5,122.7 922.8,120.4 922.9,122.6 923.2,126.1 925.5,129.2 927.7,131.5 927.7,134.9 928.4,126.4 928.8,122.5 928.8,124.3 928.9,127.0 929.0,131.3 929.1,128.3 929.1,130.1 929.2,126.0 929.2,122.2 929.4,124.0 929.7,119.2 930.0,116.1 931.0,117.9 931.9,120.7 932.9,125.0 933.3,125.8 933.3,468.0" fill="#16a34a" fill-opacity="0.08"/>
  <polyline points="78.4,460.1 78.5,461.1 78.8,458.5 78.9,459.6 78.9,457.1 79.1,458.9 79.6,454.1 79.8,451.2 79.8,448.1 80.4,445.0 80.4,446.8 80.4,449.6 80.5,442.9 80.6,439.1 80.6,440.8 80.7,443.6 80.8,433.1 80.8,430.0 80.8,431.8 80.8,434.6 80.9,439.0 80.9,440.8 81.0,443.6 81.0,436.8 81.3,433.7 81.3,436.0 81.6,429.9 81.9,431.7 82.0,427.7 82.0,429.9 82.1,433.4 82.2,424.8 82.2,421.8 82.3,414.8 82.3,411.7 82.4,413.5 82.5,416.3 82.6,420.7 83.1,422.5 83.4,417.7 83.7,419.5 84.0,422.3 84.2,426.7 84.2,428.5 84.2,431.3 84.3,420.6 84.3,422.4 84.4,418.4 84.5,420.7 84.6,414.6 84.6,416.4 84.6,419.2 84.6,423.6 84.6,420.6 84.6,422.4 85.3,417.5 85.6,419.3 85.9,414.6 86.1,412.2 86.2,414.4 86.3,417.9 86.4,421.1 86.5,423.3 86.6,426.8 87.1,418.1 87.8,420.3 88.2,414.4 88.2,412.1 89.9,409.0 91.0,411.2 91.3,414.8 91.3,418.0 92.0,414.1 92.4,415.9 92.9,418.7 94.8,411.2 95.2,413.0 96.7,408.1 97.2,409.9 97.4,412.8 99.1,417.1 101.4,418.9 101.5,421.7 102.6,414.2 103.0,411.9 103.2,405.0 103.2,406.8 103.2,409.6 103.3,414.0 103.6,411.7 104.0,413.9 104.8,417.4 105.0,420.5 105.6,422.8 105.7,413.7 105.7,415.5 105.8,418.3 105.8,411.5 105.9,413.7 106.0,417.2 106.0,420.5 106.1,422.7 106.7,426.2 106.9,425.5 107.0,427.3 107.1,422.5 107.6,424.3 107.7,419.5 108.1,417.2 108.3,419.4 108.6,413.4 108.6,411.0 108.7,413.3 108.8,416.7 108.9,419.9 109.2,422.1 109.2,425.6 109.3,417.0 109.3,414.0 109.3,416.2 109.6,410.2 110.0,412.0 110.1,407.2 110.4,404.1 110.5,405.9 110.7,401.9 110.7,404.1 111.0,407.6 111.0,410.9 111.3,407.1 111.4,408.9 111.5,411.7 111.7,404.1 111.8,405.9 112.9,401.8 113.2,404.0 113.3,407.5 113.5,410.7 113.8,407.6 113.8,409.9 113.8,413.3 113.8,416.5 113.8,413.5 113.8,409.6 114.0,411.4 114.1,414.3 114.1,418.6 114.1,420.4 114.2,423.2 114.2,415.7 114.3,417.5 114.3,420.3 114.4,412.9 114.5,414.6 114.6,417.5 115.0,410.7 115.0,412.9 115.1,416.4 115.2,419.6 115.2,415.8 115.4,417.6 115.9,420.4 116.3,412.9 116.3,409.9 116.3,411.7 116.3,406.9 116.3,408.7 116.3,411.4 116.5,404.0 116.5,405.8 116.6,408.6 116.7,413.0 117.1,409.9 117.2,411.7 117.5,403.7 117.6,405.5 117.6,397.7 117.6,395.3 117.7,397.5 117.9,391.6 117.9,388.5 118.0,390.3 118.1,386.2 118.2,388.5 118.3,392.0 118.4,379.4 118.4,381.2 118.4,384.0 118.5,388.3 118.5,390.1 118.6,392.9 118.7,385.3 118.7,387.1 118.7,390.0 119.0,383.2 119.2,385.4 119.4,380.1 119.7,382.3 119.7,385.8 119.7,389.0 119.7,391.2 119.7,394.6 119.8,397.8 120.0,400.0 120.4,394.8 120.5,397.1 120.5,391.0 120.6,392.8 120.7,395.6 120.7,399.9 120.8,401.7 121.2,396.9 121.4,398.7 121.5,401.5 122.1,405.9 122.3,407.6 122.7,410.4 123.0,403.7 123.3,406.0 123.6,409.5 123.7,412.7 124.2,408.9 124.2,405.8 124.2,407.6 124.3,410.4 124.4,414.8 125.3,416.6 125.9,419.4 126.0,412.6 126.0,409.5 126.1,406.5 126.1,403.5 126.3,405.7 126.3,409.2 126.3,412.4 126.7,414.7 126.8,409.5 127.0,406.4 127.2,408.6 127.3,412.0 127.7,415.2 128.2,417.5 128.2,421.0 128.6,420.3 128.8,418.0 128.8,414.2 128.8,411.1 128.8,412.9 128.9,408.1 129.4,405.7 129.6,407.9 130.6,398.9 130.9,396.6 131.2,392.8 132.9,389.7 133.8,387.3 134.1,389.6 134.3,393.0 134.3,396.2 134.5,398.4 134.7,401.9 135.0,393.3 135.8,389.5 136.1,387.1 136.1,389.3 136.6,384.2 137.3,386.4 138.0,389.9 138.7,381.2 138.8,383.5 139.7,377.4 139.7,379.2 140.2,382.0 140.4,386.3 141.2,380.1 141.6,377.8 142.0,380.0 142.5,383.4 142.9,386.6 143.4,388.9 145.1,379.7 145.8,381.5 146.5,384.2 148.0,377.5 152.5,379.8 152.5,370.6 152.6,372.4 152.8,367.6 153.1,369.4 153.4,365.4 153.7,358.4 154.1,360.2 155.4,363.0 155.5,367.4 155.7,369.1 159.7,365.2 160.2,358.2 161.7,355.9 161.7,352.8 162.3,349.8 163.3,352.1 163.8,355.6 163.8,358.8 164.0,361.0 164.3,351.9 164.3,353.7 164.4,356.4 165.4,349.0 165.4,350.8 165.8,353.5 166.2,357.9 167.6,355.6 169.9,348.7 170.4,350.5 170.5,353.3 171.8,346.5 174.0,342.7 175.5,340.4 178.2,342.7 178.9,336.6 182.4,333.5 185.6,335.3 187.8,338.1 190.0,330.6 190.3,327.5 191.2,324.4 191.8,321.4 192.2,323.2 193.1,326.0 194.4,330.4 195.2,327.3 196.2,329.1 197.4,324.3 198.3,326.1 199.6,328.8 202.4,321.4 204.3,318.3 208.8,320.1 208.8,316.1 208.8,318.3 208.8,321.8 209.8,325.1 210.0,327.3 210.1,321.3 213.7,323.1 214.3,319.0 214.4,312.1 214.4,309.7 216.3,312.0 219.2,306.0 220.2,302.9 220.7,304.6 221.3,307.4 222.2,311.7 222.6,313.5 224.0,308.7 232.7,310.5 232.8,306.5 232.8,308.7 233.7,302.7 233.7,304.5 233.7,307.3 233.7,311.7 233.7,313.4 233.9,316.2 234.0,320.5 235.0,318.2 235.1,315.2 235.3,317.4 235.4,311.4 235.9,308.3 236.1,305.2 236.7,307.0 237.2,309.8 237.4,314.2 238.0,312.0 238.9,314.2 241.0,305.1 244.5,302.8 244.7,305.1 245.9,299.0 246.0,300.8 246.0,296.0 246.3,297.8 246.8,293.0 247.8,286.9 247.8,284.7 247.8,281.6 247.8,283.8 247.8,287.3 247.8,290.5 247.8,292.8 247.8,296.2 247.8,299.4 248.0,296.3 248.0,298.6 248.0,302.1 248.1,305.3 248.7,301.5 248.7,303.3 248.7,306.0 248.9,298.6 250.2,300.4 250.4,303.1 253.6,292.5 254.1,294.3 254.7,286.5 254.9,283.4 256.3,285.2 256.3,281.1 259.5,278.0 259.6,280.3 261.4,283.7 262.5,286.9 263.3,283.8 263.7,286.0 264.3,280.1 266.2,277.0 266.6,278.8 266.6,274.8 266.9,270.9 267.6,272.7 268.5,275.4 268.7,279.7 268.9,281.5 270.8,284.4 272.3,288.7 273.1,290.5 273.7,285.7 274.5,282.7 280.5,276.5 280.9,273.5 285.6,275.3 287.5,278.1 289.0,271.3 289.0,268.3 289.1,270.5 289.1,274.0 289.7,277.3 290.6,279.5 300.4,274.2 301.1,276.5 307.0,280.0 308.4,283.2 316.7,279.3 316.7,281.1 319.5,283.9 320.8,288.2 322.3,290.0 324.7,285.9 324.8,282.9 324.8,285.1 324.8,288.6 325.0,291.9 325.5,288.8 326.0,291.0 326.5,281.9 326.5,283.7 326.5,286.5 326.5,290.9 326.6,292.7 326.7,288.7 326.8,290.9 326.8,285.6 326.8,287.9 326.8,291.4 327.1,294.6 327.5,296.8 327.6,300.3 327.7,303.5 327.8,300.4 327.9,302.7 327.9,306.2 328.0,309.4 328.2,311.7 328.4,315.2 328.4,318.4 328.4,315.3 328.4,312.2 328.4,309.2 328.4,311.4 328.4,306.1 328.4,302.3 328.5,304.1 328.5,306.9 328.5,299.4 328.5,301.2 328.6,304.0 328.8,308.3 328.9,310.1 329.5,312.9 329.5,317.3 329.9,319.1 330.1,314.3 330.1,316.0 330.1,318.8 331.1,311.4 331.8,308.3 333.5,305.2 334.0,302.2 334.1,304.0 334.5,299.9 334.6,296.8 334.9,299.1 336.6,293.0 336.6,294.8 337.0,290.1 337.0,287.0 337.0,288.8 337.1,291.6 337.4,296.0 337.9,292.9 338.1,294.7 338.4,297.4 338.6,301.8 339.6,303.6 339.8,306.4 340.0,310.8 340.3,312.5 342.8,307.8 342.9,304.7 342.9,302.4 342.9,298.5 343.6,292.4 344.1,290.1 344.2,292.4 345.0,295.9 345.5,295.2 346.3,292.2 351.5,294.0 352.9,296.8 353.2,289.3 353.3,291.0 353.8,293.8 355.3,286.4 355.3,288.1 356.0,290.9 358.1,283.5 358.3,285.3 359.3,288.1 359.4,292.5 360.0,294.3 360.8,297.1 361.4,301.4 364.2,303.2 367.7,306.1 368.0,310.4 368.8,312.2 370.7,307.4 372.7,309.2 374.6,304.4 374.6,302.1 374.6,304.4 374.6,307.9 374.8,311.1 376.2,313.3 376.4,316.9 378.4,316.2 380.2,318.0 382.2,313.1 385.1,306.9 385.7,308.7 390.3,303.9 390.4,305.7 391.8,308.5 392.0,301.8 393.4,304.0 393.9,307.4 395.4,310.6 396.6,312.8 397.2,303.7 397.2,305.5 397.9,308.4 398.0,301.5 398.0,303.8 399.1,297.8 399.3,299.6 399.9,302.4 400.0,294.9 400.0,296.7 402.2,292.6 403.7,288.8 404.2,286.5 406.0,288.7 406.5,282.7 406.9,284.4 407.0,279.7 407.1,281.5 407.3,277.4 407.5,279.7 407.9,273.6 408.1,275.4 408.4,271.4 408.4,268.3 408.4,270.5 408.4,274.0 408.4,277.3 408.5,274.2 408.7,271.1 409.0,267.3 409.1,264.2 409.1,265.9 409.2,261.2 409.4,258.9 409.7,255.1 409.8,256.9 409.9,259.7 411.0,252.9 411.8,249.1 411.9,246.0 411.9,247.8 412.5,243.8 412.6,236.8 412.8,234.5 412.9,236.7 413.3,231.5 413.4,227.7 413.5,229.4 413.9,232.2 414.0,236.5 414.0,238.3 414.3,241.1 414.3,245.5 414.4,247.3 414.6,242.5 414.6,240.2 414.6,242.5 414.7,246.0 415.0,245.3 415.3,243.0 415.7,245.2 415.7,248.7 416.1,252.0 416.7,248.9 416.9,242.0 417.0,239.7 417.2,235.9 417.2,237.7 417.3,240.5 417.3,244.9 417.3,246.7 417.4,249.5 417.5,253.8 417.7,250.8 417.7,252.6 417.7,255.4 417.8,259.7 417.8,261.5 417.9,264.3 417.9,257.6 418.0,254.6 418.1,250.7 418.2,244.5 418.2,241.4 418.3,243.2 418.3,246.0 418.4,250.4 418.4,252.2 418.5,247.3 418.6,249.1 418.7,245.1 418.8,247.3 418.9,250.7 419.0,253.9 419.1,250.8 419.1,253.0 419.1,247.1 419.2,244.0 419.2,245.8 419.2,248.5 419.2,252.8 419.2,249.7 419.2,251.5 419.2,254.3 419.2,258.6 419.2,260.4 419.2,263.2 419.2,267.6 419.2,269.4 419.2,264.6 419.2,266.4 419.2,269.1 419.2,273.5 419.2,275.3 419.2,278.1 419.2,282.4 419.3,284.2 419.3,287.0 419.3,291.3 419.6,285.1 419.8,282.0 419.9,283.8 420.0,275.9 420.1,272.9 420.3,266.7 420.3,263.7 420.3,265.5 420.3,268.3 420.8,272.7 421.1,270.4 421.1,272.6 421.6,276.1 422.4,263.5 423.3,260.5 424.0,257.4 425.0,251.3 425.2,253.0 425.2,249.0 425.6,251.2 426.3,245.3 426.4,247.1 427.0,243.0 427.3,245.2 427.6,248.7 427.8,251.9 429.0,248.0 429.2,249.8 429.5,252.5 431.0,245.9 431.2,242.1 431.2,239.7 432.3,232.8 432.7,229.7 433.3,231.5 434.3,227.5 435.8,229.7 438.6,233.1 439.5,236.3 439.5,233.3 439.6,235.5 439.6,238.9 439.6,230.4 439.8,232.6 440.2,236.1 441.1,239.4 441.2,241.6 441.4,232.5 441.4,234.3 442.0,237.1 442.7,241.5 443.1,243.3 443.4,246.1 443.5,250.5 443.7,252.3 444.0,255.1 444.8,248.4 446.5,245.3 446.6,242.3 447.6,244.5 447.7,238.5 447.7,240.3 447.7,236.3 447.7,238.6 448.0,242.1 448.1,229.5 448.1,227.3 448.1,223.4 448.1,221.1 448.1,223.3 448.1,226.7 448.2,218.2 448.2,220.4 448.6,223.9 448.6,227.2 449.0,229.4 449.5,223.4 449.6,225.2 449.8,228.0 449.9,232.4 450.0,234.1 450.3,236.9 450.7,229.5 451.7,226.4 453.2,224.1 454.3,226.3 455.3,220.3 455.3,222.1 456.1,224.9 456.3,229.3 456.7,226.2 456.7,228.0 456.7,230.8 456.7,235.2 456.8,233.0 457.9,229.1 458.3,226.8 458.4,229.1 458.9,232.6 459.0,235.8 460.1,238.1 462.5,241.6 463.0,244.8 463.4,247.0 466.6,238.0 467.0,239.8 467.9,242.6 468.7,235.0 470.3,236.8 470.4,232.0 470.8,233.8 472.9,236.6 474.9,229.8 475.8,226.8 477.1,229.1 477.3,232.6 477.6,235.8 481.3,231.9 481.3,233.7 482.7,236.5 483.3,240.8 483.4,242.6 484.3,245.3 485.2,249.6 485.4,251.4 485.8,254.2 486.2,258.5 490.6,260.3 492.2,263.1 492.6,256.3 493.0,258.5 494.1,253.3 494.1,255.5 494.3,259.0 494.7,258.2 494.8,260.0 494.9,262.8 495.7,255.4 495.9,252.3 495.9,254.0 496.5,256.8 496.8,249.4 497.0,251.2 497.1,254.0 498.5,258.4 498.6,260.2 498.6,263.0 498.6,267.4 498.8,264.3 500.2,261.2 500.7,263.0 500.9,265.8 501.1,270.2 501.3,272.0 502.3,274.8 502.8,279.2 503.3,276.9 503.4,273.8 503.4,276.1 504.1,270.1 504.2,271.8 504.5,274.6 504.5,278.9 504.8,276.6 504.8,273.5 504.8,275.7 504.8,279.2 504.8,282.3 504.8,284.5 504.8,288.0 504.8,279.4 504.8,275.6 504.8,277.4 504.8,280.2 504.8,284.5 504.8,281.5 504.8,275.3 504.8,272.2 504.8,274.0 504.8,270.0 504.8,266.9 504.8,269.1 504.8,260.0 504.8,261.7 504.8,253.9 504.8,250.8 504.8,252.5 504.8,255.3 504.8,247.9 504.8,249.6 504.8,245.6 504.8,247.9 504.8,238.8 504.8,240.5 504.8,236.5 504.8,238.7 504.8,242.2 504.8,245.4 504.9,247.6 504.9,242.3 505.1,235.4 505.1,237.2 505.2,232.4 505.3,234.1 505.5,236.9 505.6,241.2 505.8,238.1 505.9,235.0 505.9,236.8 506.2,239.6 506.3,243.9 506.5,245.6 506.5,241.6 506.6,237.8 506.6,239.6 506.8,242.4 506.8,246.7 506.9,248.5 506.9,251.3 507.3,240.6 507.8,242.4 507.9,245.2 508.3,249.6 508.4,251.4 509.5,243.5 509.5,245.3 509.9,248.1 510.2,252.4 511.0,250.1 511.2,252.4 511.4,246.3 512.0,244.1 512.6,237.1 512.8,234.1 513.5,231.0 513.5,232.8 513.8,228.0 514.6,224.9 515.3,226.7 516.2,229.4 516.3,222.8 516.6,225.0 516.7,228.4 516.8,231.6 517.6,228.6 517.7,230.8 520.1,225.6 521.8,222.5 523.7,224.7 523.9,228.3 524.0,231.5 525.3,233.7 527.1,237.1 528.1,224.7 531.0,226.5 531.2,229.2 532.8,233.5 533.6,235.3 533.7,230.5 533.7,227.4 533.7,229.2 533.8,232.0 533.9,236.4 534.2,238.2 534.3,240.9 534.3,245.3 534.7,247.0 534.9,242.2 534.9,244.0 534.9,240.0 534.9,236.1 535.5,237.9 535.9,240.7 536.3,245.0 536.4,246.8 539.6,238.9 539.9,240.7 540.7,243.5 540.8,247.8 541.7,241.7 541.7,243.5 541.7,246.3 541.7,239.6 541.7,241.8 541.7,245.2 541.7,248.4 541.7,245.4 541.9,242.3 541.9,244.5 542.0,248.0 542.2,247.4 542.9,241.2 542.9,238.2 543.0,235.9 543.0,232.8 543.0,229.8 543.0,232.0 543.0,235.5 543.0,238.7 543.1,240.9 543.4,235.8 544.1,238.0 544.2,232.0 544.3,233.8 544.5,236.6 545.3,241.0 546.1,237.9 546.4,239.6 546.4,231.8 546.5,228.7 546.5,230.5 546.5,233.3 546.5,237.7 546.6,239.5 546.6,242.3 546.8,235.5 546.9,237.7 546.9,241.2 547.0,244.4 547.3,241.3 547.6,237.4 547.8,239.2 548.1,234.4 548.2,236.2 548.2,232.1 548.5,225.1 548.5,226.9 548.6,229.7 548.9,234.1 549.0,235.9 549.1,238.7 549.4,228.1 549.6,229.9 549.8,225.8 549.8,228.1 550.3,222.8 550.3,225.0 550.5,219.0 550.5,220.8 550.5,223.5 551.3,216.1 552.1,213.8 552.5,216.1 553.7,210.0 554.6,211.8 554.7,214.6 554.9,207.8 555.5,204.7 556.3,206.9 557.0,201.0 557.6,198.0 558.9,195.7 560.4,192.6 560.7,194.8 561.1,198.3 561.3,197.5 561.8,194.5 562.6,188.3 563.2,185.2 563.2,187.0 563.7,189.8 564.4,183.0 565.1,185.3 565.4,188.8 566.4,180.1 566.7,182.3 569.0,173.3 569.1,171.0 570.6,173.2 571.3,176.6 572.2,179.8 572.2,176.7 572.2,173.7 572.3,175.9 572.5,170.7 573.2,167.6 573.7,169.8 575.0,173.3 575.8,164.7 578.8,167.0 581.4,160.9 583.2,162.7 587.3,158.0 588.4,159.7 589.2,162.5 590.1,166.8 591.2,164.5 592.0,166.7 593.2,170.2 594.0,173.4 594.9,169.6 596.9,166.5 597.0,168.3 598.6,171.0 599.7,160.4 601.9,158.1 605.2,155.0 605.2,157.3 605.2,160.8 607.2,164.0 607.4,166.3 607.4,161.0 607.5,163.2 607.5,157.9 607.6,160.2 608.0,163.7 608.6,151.1 608.6,152.9 609.0,148.9 609.2,151.1 610.1,145.9 610.3,148.1 610.7,142.8 610.9,145.1 610.9,148.5 611.2,151.7 615.4,148.7 616.1,145.6 618.5,141.8 619.4,139.5 619.9,141.7 620.4,145.3 620.7,148.5 621.1,145.4 621.3,147.6 621.6,151.2 622.8,138.5 622.9,140.3 623.7,143.1 624.3,135.6 624.9,137.4 625.0,140.3 626.1,144.6 626.8,146.4 627.8,141.6 628.4,143.4 630.8,146.1 632.6,150.5 632.8,152.2 633.5,155.0 635.2,159.3 635.3,161.1 635.9,163.9 637.0,156.4 637.0,153.3 637.0,155.0 637.0,157.8 637.1,162.1 639.1,163.9 639.6,166.7 640.4,171.1 644.5,172.9 647.4,168.1 648.8,169.9 649.0,172.7 649.3,165.9 651.3,162.8 654.1,165.0 654.7,168.5 655.9,171.7 656.2,168.6 657.9,165.5 659.5,162.5 659.9,164.8 660.0,168.3 661.6,171.5 661.7,173.7 662.8,177.2 663.4,180.3 665.4,176.5 666.2,178.3 668.9,173.6 673.1,170.5 674.2,172.3 674.6,175.1 676.5,164.5 677.2,161.4 677.7,163.2 678.8,158.4 679.3,155.4 679.3,157.2 679.8,160.0 679.9,164.4 680.6,166.2 680.9,168.9 680.9,173.2 681.2,175.0 682.4,171.0 683.1,168.0 683.1,164.9 684.7,161.1 685.2,162.9 689.4,158.1 691.3,159.9 691.5,162.6 691.9,155.9 692.1,158.1 692.2,161.6 692.9,164.8 693.8,157.8 693.8,155.6 693.8,148.6 693.8,150.4 693.8,153.1 693.8,157.5 693.8,159.2 693.8,162.0 693.8,166.3 693.8,168.1 693.8,170.9 693.8,175.3 693.8,173.0 693.8,175.2 693.8,178.6 693.8,181.8 693.8,178.8 693.8,181.1 693.8,184.6 693.9,183.9 693.9,185.7 693.9,188.5 693.9,192.8 693.9,189.7 693.9,186.7 693.9,184.3 693.9,181.2 693.9,183.4 693.9,186.9 693.9,186.2 693.9,183.1 693.9,180.8 693.9,183.0 693.9,177.0 693.9,174.0 693.9,171.7 693.9,168.7 693.9,161.7 693.9,163.5 693.9,166.3 693.9,170.7 693.9,167.6 693.9,165.3 693.9,162.2 693.9,159.2 693.9,155.3 693.9,152.2 693.9,146.1 693.9,143.7 694.0,145.9 694.0,149.4 694.0,152.6 694.2,154.8 694.4,149.6 694.6,145.8 695.1,147.6 695.3,150.4 695.4,154.8 695.6,156.6 695.6,159.3 695.9,163.6 696.6,165.4 697.5,168.2 697.6,172.5 697.7,169.4 697.8,167.1 697.8,169.4 697.9,163.3 698.0,165.1 698.4,161.1 699.1,163.3 699.9,166.7 701.6,158.2 701.7,160.4 701.9,163.9 702.5,167.2 702.9,169.4 703.8,164.1 704.1,166.3 705.2,169.8 705.6,169.1 705.7,170.8 706.1,166.1 706.2,167.9 707.0,170.6 707.7,174.9 708.2,176.7 708.7,179.5 710.0,183.9 711.6,185.7 712.5,181.7 713.0,183.9 713.8,187.4 714.0,190.6 716.5,192.8 718.3,196.2 718.6,199.4 719.0,201.7 719.9,205.2 720.4,208.4 720.9,205.4 721.2,207.6 721.5,211.0 722.8,214.2 723.4,216.5 724.9,210.4 725.1,208.1 726.6,210.4 727.9,213.9 728.3,217.1 728.4,213.3 728.6,215.1 729.3,211.1 729.8,213.3 731.9,216.7 732.2,219.9 734.0,222.1 737.6,213.1 737.7,214.8 739.5,210.9 740.5,213.1 743.1,216.6 746.5,216.0 748.5,213.7 749.8,215.9 753.4,209.9 753.4,207.7 754.2,203.8 754.3,205.6 754.3,208.4 754.4,212.7 754.5,206.5 755.2,204.2 756.4,206.4 758.0,209.9 758.7,197.4 758.7,199.2 758.7,194.4 758.8,191.4 758.8,188.3 758.8,190.1 759.5,182.1 759.6,183.9 759.6,176.0 759.6,177.8 759.6,180.5 759.7,173.8 760.2,170.0 760.5,171.8 760.6,174.6 760.8,178.9 760.9,180.6 761.7,183.4 762.5,187.7 762.8,184.7 762.9,186.5 763.7,189.3 764.1,193.7 766.1,195.5 766.9,198.3 767.6,191.5 767.8,193.7 768.7,188.4 768.7,190.7 769.0,194.2 770.0,197.4 771.2,199.7 771.5,203.2 773.9,206.4 775.9,208.7 776.8,212.2 779.5,215.4 779.6,217.6 781.5,221.1 781.8,212.5 783.4,214.8 786.5,209.5 791.4,211.7 792.4,215.1 792.4,206.6 795.2,203.5 796.9,205.7 800.5,209.2 801.7,212.4 802.7,214.6 808.7,218.1 809.4,209.4 810.9,211.7 812.4,215.2 814.8,214.5 815.4,211.4 815.4,208.4 815.4,206.0 815.5,208.3 816.6,211.8 816.8,203.1 817.0,196.2 817.0,198.0 817.0,193.2 817.1,195.0 817.2,197.8 817.4,190.2 817.4,192.0 817.4,184.1 817.6,181.0 817.7,182.8 817.8,185.6 817.8,178.9 817.8,175.7 817.9,178.0 818.6,181.4 818.9,184.6 819.6,186.8 819.6,190.3 820.8,193.5 821.3,195.7 821.5,199.2 821.9,190.5 822.5,186.7 822.6,188.5 822.8,184.5 822.9,186.7 823.4,180.7 823.4,177.6 823.4,179.4 823.6,182.3 823.9,175.4 823.9,177.7 824.3,171.7 825.6,173.5 826.0,176.3 826.3,180.7 827.1,182.5 827.7,185.3 828.0,178.5 828.1,180.7 829.7,184.2 830.9,187.3 832.3,184.3 835.2,181.2 837.7,183.5 838.2,187.0 842.1,178.3 842.6,175.2 842.6,177.4 843.2,171.5 848.4,169.2 853.3,171.4 858.2,166.1 859.5,168.4 863.8,171.9 866.7,175.1 868.2,168.2 868.2,170.0 870.4,162.1 870.4,163.9 870.9,166.7 871.9,159.2 872.0,161.0 872.1,156.9 872.2,153.9 872.3,156.1 872.7,150.1 872.8,151.8 873.0,147.8 873.0,150.1 873.4,153.6 879.9,156.8 880.6,159.0 881.4,153.9 881.7,156.1 883.0,150.8 886.1,147.0 886.6,148.8 887.2,151.6 889.4,144.8 890.8,141.7 891.9,137.9 893.9,139.6 895.3,134.9 895.8,136.6 897.0,139.4 903.8,132.7 905.2,128.9 906.1,130.6 906.4,133.4 906.7,137.7 907.5,139.5 908.2,142.2 910.9,134.8 911.0,136.6 911.8,131.8 911.8,133.6 911.8,125.7 913.9,127.5 914.8,130.2 915.0,122.8 916.1,119.7 916.1,121.5 916.2,124.3 916.3,128.7 918.5,125.6 919.1,127.4 919.4,130.1 920.5,122.7 922.8,120.4 922.9,122.6 923.2,126.1 925.5,129.2 927.7,131.5 927.7,134.9 928.4,126.4 928.8,122.5 928.8,124.3 928.9,127.0 929.0,131.3 929.1,128.3 929.1,130.1 929.2,126.0 929.2,122.2 929.4,124.0 929.7,119.2 930.0,116.1 931.0,117.9 931.9,120.7 932.9,125.0 933.3,125.8" fill="none" stroke="#16a34a" stroke-width="2" stroke-linejoin="round"/>
  <line x1="88" y1="102" x2="110" y2="102" stroke="#16a34a" stroke-width="2.5"/><text x="116" y="106" font-size="11.5" fill="#374151">equity</text><line x1="88" y1="118" x2="110" y2="118" stroke="#d97706" stroke-width="2.5" opacity="0.8"/><text x="116" y="122" font-size="11.5" fill="#374151">price</text>
  <text x="78" y="502" text-anchor="start" font-size="12" fill="#6b7280">2018-12-05</text><text x="934" y="502" text-anchor="end" font-size="12" fill="#6b7280">2020-01-17</text>
</svg>
