<svg xmlns="http://www.w3.org/2000/svg" width="1000" height="520" font-family="ui-sans-serif, system-ui, sans-serif" viewBox="0 0 1000 520"><rect width="1000" height="520" fill="#fff"/><text x="78" y="28" fill="#111827" font-size="18" font-weight="700">Zone Recovery — KAITOUSDC best setting (equity / PnL)</text><text x="78" y="48" fill="#6b7280" font-size="12.5">lev 20 · ratio 3 · gap 20% · maxSteps 4 · maxDD 40% · random · vip 9 · 206 series, 78.2% win · vol $27834794 ($27836127/day) · fees $2355</text><text x="78" y="68" fill="#1d4ed8" font-size="12.5" font-weight="600">USDC · BNB −10% · taker 0.0085%</text><text x="934" y="28" fill="#16a34a" font-size="18" font-weight="700" text-anchor="end">+37483 USDT (+374.83%)</text><line x1="78" x2="934" y1="468" y2="468" stroke="#e5e7eb" stroke-width="1"/><text x="68" y="472" fill="#6b7280" font-size="12" text-anchor="end">0.00</text><line x1="78" x2="934" y1="392" y2="392" stroke="#e5e7eb" stroke-width="1"/><text x="68" y="396" fill="#6b7280" font-size="12" text-anchor="end">12083</text><line x1="78" x2="934" y1="316" y2="316" stroke="#e5e7eb" stroke-width="1"/><text x="68" y="320" fill="#6b7280" font-size="12" text-anchor="end">24166</text><line x1="78" x2="934" y1="240" y2="240" stroke="#e5e7eb" stroke-width="1"/><text x="68" y="244" fill="#6b7280" font-size="12" text-anchor="end">36250</text><line x1="78" x2="934" y1="164" y2="164" stroke="#e5e7eb" stroke-width="1"/><text x="68" y="168" fill="#6b7280" font-size="12" text-anchor="end">48333</text><line x1="78" x2="934" y1="88" y2="88" stroke="#e5e7eb" stroke-width="1"/><text x="68" y="92" fill="#6b7280" font-size="12" text-anchor="end">60416</text><line x1="78" x2="934" y1="405.1" y2="405.1" stroke="#9ca3af" stroke-dasharray="6 4" stroke-width="1.5"/><text x="934" y="399.1" fill="#6b7280" font-size="11" text-anchor="end">start 10000</text><polyline fill="none" stroke="#d97706" stroke-linejoin="round" stroke-width="1.2" points="78 126.6 78.5 127.8 78.8 128 79.6 126.5 79.9 125.7 80 124 80 122.9 80 122.3 80.2 122.6 80.2 120.1 80.3 118.6 80.3 116.8 80.3 117.5 80.4 117.8 80.4 119.4 80.5 117.6 80.5 114.7 80.6 115.8 80.6 115.2 80.6 118 80.6 117.3 80.6 120.2 80.6 121.7 80.6 122.7 80.6 124.4 80.7 125.4 80.7 126 80.7 125.4 80.7 123.6 80.7 123.8 80.7 124.5 80.9 126.3 81 127.5 81 128.3 81.3 128.1 81.5 128.2 81.7 127.2 82.1 127.9 82.4 127.7 83 128.1 83.4 129 83.9 127.5 84.5 128.1 85 129.5 85.2 130.4 85.4 131.6 85.7 131.3 86.3 131.7 86.8 131.1 86.9 133.4 87.5 132.5 88.1 130.6 88.8 130.2 89.3 129.2 89.7 128.7 89.9 129.3 90.8 130 91.5 129.9 92.1 130.6 92.9 128.6 94 127.9 94.7 128.4 94.9 129.1 96.2 129.5 97.1 130.5 98 129.1 99.5 128.7 100.5 128 100.6 127.7 100.6 125.1 100.7 124.7 100.7 123 100.7 123 100.7 121.9 100.8 122.2 100.8 123.5 101 121 101.1 121.3 101.2 122.9 101.3 123.2 101.5 122.8 101.8 122.2 102.1 122 102.4 123 102.5 124.5 102.7 125.7 103 124.2 103.3 123.5 103.7 123.7 104.2 122.2 104.5 123.6 104.7 125.4 104.9 126.6 105.1 127.8 105.2 127.7 105.3 129.1 105.7 128.9 106.1 129.5 106.5 130 107.2 129.5 107.7 129.4 108.2 127.9 108.8 127.9 109.2 127.6 110.1 127.6 111.1 129.9 111.5 130.2 112.3 131.6 113 132.1 113.9 131.4 114 132.7 114.7 131.7 115.5 130.4 115.8 129.4 116.4 129.2 116.9 128.1 117.5 128.3 118.6 129.5 119.6 129.4 119.7 127.9 119.8 127.8 120.3 128.4 120.8 128.7 121.5 128.8 122.8 129.5 124.1 128.6 125.2 128.4 125.9 126.9 126.3 127 127.1 126.1 128.3 125.9 130.8 125.8 132.2 124.8 132.8 125.8 133.5 126.1 135 127 135.8 126.5 136.4 126.9 137.5 127.4 138.1 128.7 138.7 129.1 140.4 127.9 142.2 128.2 143 128.7 143.9 130.1 143.9 130.1 144.1 129.6 145 128.3 145.6 127.9 146.1 128.9 146.9 129.1 148.1 129.2 149.4 128.7 149.9 128.6 150.4 128.1 151 129.4 151.9 128.8 152.5 129.2 153.5 130.1 154.6 130.5 156.3 128.9 157.2 128.4 158.4 128 160.6 127.3 161.5 125.9 162.5 126.9 163.7 127.5 165.5 127.7 167.7 128 168.9 129 170.4 129.6 172.3 130.6 174 129.5 175.6 129.9 176.7 130.7 178.2 129.9 180.3 130.2 181.2 130.1 183.4 128.9 184.8 129.2 185.8 129.5 186.5 129.5 187.2 129.4 188 130.1 189.3 130.1 191 130.1 192.1 129.1 193.6 127.9 194.4 128.1 195.5 128.3 196.9 127 198 125.7 198.4 125.2 200 124.7 200.9 124.2 201 125.2 201.3 124.5 201.7 123.8 201.9 122.8 202.3 122.5 202.8 121.9 203 121.3 203.2 120.3 203.4 121 203.7 121 204.1 120.2 204.4 120.8 204.7 120.8 204.9 119.8 205.4 119.9 205.9 119.4 206.4 119.6 207 120 207 119.3 207.6 119.5 208.3 120.5 208.7 120.8 209.1 121.2 209.6 120.9 210.4 121.4 211.3 121.3 212.1 121.8 212.7 122 213.4 122.3 213.8 122.5 214.5 122.5 215.3 123.2 215.9 123.6 216.5 123.6 217.3 124.4 217.7 124.4 217.9 123.8 218.2 124.4 218.4 124.1 218.8 123.7 218.9 123 219 122.3 219.5 122.1 220.1 122.1 220.4 120.4 220.4 119 220.5 116.8 220.6 117.8 220.7 120 220.9 118.1 221.1 118.8 221.4 118.6 221.5 118.7 221.9 119.3 222.2 120.3 222.5 118.8 223 119.6 223.4 120 223.9 120.5 224.8 119.3 225.5 119.4 226.4 120 227.1 120.1 227.8 119.2 228.4 118.9 228.7 117.9 229.3 117.7 230 117.8 230.7 118.2 231.1 118.2 232.3 119.5 233 119.2 233.5 118.3 233.8 118.3 234.3 118.9 235.2 119.2 236.2 120.4 237.2 121.4 238.2 120.6 238.6 120.1 238.7 118.1 239.5 117.8 239.6 116 239.8 116.4 240.5 117.4 241.4 118 242.2 119 243.4 119.4 244.3 119.3 245.1 119.4 246.2 120.4 248 120 248.7 119.9 250 121.7 251.9 121.3 253 120 254.3 120.6 256.1 120.6 256.8 119.3 257.5 120.7 258.4 121.5 259.2 122.3 259.7 122.3 260.4 122.7 260.6 122.1 261.7 122.4 262.9 122.7 263.6 122.9 265.3 122.6 265.9 122.3 267.5 121.9 269.3 122 270 121.4 270.6 120.2 271.2 120 272.3 119.4 273.2 119.7 274.8 121.1 275.7 121.9 276.3 122.3 277.4 122.3 278.8 123.2 279.4 123.4 280.7 122.9 281.7 122.2 282.6 122 283.7 121.8 284.3 122 285.4 121.3 286.1 120.6 287.2 119.9 288.1 120.8 289.2 119.6 289.6 119.7 290.1 119.7 291 120 292 120 292.3 119.1 293.1 119 293.3 118.8 294.3 119 295.3 118.7 295.7 118.5 296.5 119.4 296.8 119.4 297.3 119.7 297.8 120.3 298.6 119.9 299.2 119.9 300.8 120.2 301.5 119.6 302 120.8 302.7 121.4 303 121.3 303.5 119.5 304.1 121.6 304.7 121.7 305.7 120.8 307 122.2 307.7 123.2 308.3 122 309.4 122.9 309.9 122.4 310.6 121.6 311.8 122.9 312.8 121.4 313.4 122.6 313.8 123 314.4 122.8 314.7 123.6 315 122.9 315.6 123.1 316 122.7 316.9 121.8 317.9 121.9 318.9 121.5 319.7 120.9 320.6 121.4 321.4 122.5 321.8 122.7 322.5 123.5 322.8 123.5 323.5 123.8 324 122.7 324.7 122.3 325.2 121.7 326.2 121.5 327.3 121.9 328.2 121.5 328.7 121.6 329.6 122.6 330.6 121.8 331.3 122.6 331.9 123.7 332.1 123.4 332.1 122.2 332.1 120.5 332.1 118.1 332.1 118.7 332.1 118.9 332.1 118 332.2 117.4 332.2 117.9 332.2 117.9 332.4 117.5 332.5 119.2 332.8 118.5 333.1 117.9 333.3 116.9 333.6 116.5 334.2 116.1 334.9 117.9 335.6 118.1 336.2 118 336.8 118.8 337.2 119.6 337.7 119.9 338.2 120.1 339 119.7 339.5 119.4 339.6 120.6 340.2 119.6 341 120.4 341.4 122.1 341.9 121.5 342.6 121.7 343.3 122 344.1 120.1 344.8 119.6 345.6 120.4 346.1 121.1 347.3 121.5 348 122.3 348.5 121.8 349.2 121.2 349.9 120.9 350.3 121.6 350.3 122.5 350.6 120.7 351.1 120.7 351.8 119.3 351.8 118.7 351.9 118.5 352.7 119.4 352.7 120.3 353.6 120.3 354.3 120.5 354.4 121.1 355 121.2 355.1 122.4 355.3 122.2 355.9 123.1 356.5 122.5 357 123.5 357.4 123.4 358 123.4 358.4 124.4 358.6 124.1 358.9 123.7 359.4 123.9 360.1 123.1 361.4 123.6 362.2 124.2 362.7 125.2 363.1 125.3 363.7 124.9 364 125.6 364.2 124.6 364.7 124.4 365.2 124.3 365.8 124.9 366.3 124.7 366.8 124.7 367.1 124.2 368.1 123.9 368.4 123.4 369.1 122.1 369.6 122.2 370.2 120.9 371.2 121 372.2 121.8 373 120.5 373.8 119.7 374.9 120.3 376.4 121.9 377.5 121.6 379.1 120.7 380.4 120.5 382.1 121.3 382.5 122.6 383.8 123 384.9 122.6 386 123.9 387.1 123.8 388.4 124.3 389.5 125.1 390.4 124.3 391.6 123.8 392.7 124.3 394.3 122.6 395.5 122.7 395.9 120.6 396.1 121.1 396.7 120.3 397.5 119.6 398 119.7 398.8 119.5 399.4 120.1 400 121.1 400.7 121.4 401.6 120.7 402.6 120.7 403.3 121.4 404.8 121.1 406.2 121 406.8 122.4 408 122.3 409.7 122 411.5 122.6 413 122.7 414 121.1 415.8 119.4 416.8 118.5 417.7 118.6 419 118.8 419.8 118.8 421 119.2 421.9 119.7 423.4 120.4 424.7 120.7 425.9 119.8 427.1 119.7 428.9 120.9 429.2 120.9 429.7 120.9 430.2 120.4 431.4 120.8 432.6 121.6 434.4 121.5 435.4 120.6 436.5 120.2 437.5 119.4 439 119.2 440.9 118.9 442.4 119.6 444 119.7 446 118.7 447.7 117.8 448.9 119.3 449.8 118.7 451.5 118.7 452.6 119.5 453.8 119.2 454.1 120.2 454.9 119.8 456.3 120.7 457 119.6 458.6 119.6 459.6 119.8 460.9 118.9 462.2 119.8 463.1 120.8 464.2 119.5 465.1 119.1 465.9 119.7 467.4 120.4 468.3 120.2 468.5 118.8 469.2 120.1 470.1 119.5 470.9 119.1 471.6 119.4 472.6 118.3 473.8 117.9 474.9 117.4 476.4 118.2 477 118.6 478.1 119.1 479.4 118.2 481.4 118.4 482.6 119.6 483.4 119.9 484.5 120.3 486.2 119.2 487.6 118.6 488.2 117.2 489.5 117.9 490.6 117.1 492 117 493.3 117.5 494.3 119.4 495.9 119.5 497.1 119.9 498.4 120.7 499.9 121.7 500.5 121.1 501.3 120.2 501.9 119.5 503.1 119.2 504.3 119.2 505.7 120.9 506.6 121.4 507.3 120.5 508.2 119.6 508.7 119.3 508.8 119.1 509.4 119.2 510 119.2 510.9 119 511.6 118.8 512.7 120.2 514.1 121.2 515.4 122.1 515.7 122.1 515.9 122.5 516.5 122 517.5 121.1 518.4 120.9 518.9 121.2 519.6 120.3 519.7 118.7 520.1 119.8 521.4 119 522.9 119.2 524.5 119.6 525.1 119.5 526.1 119.2 527.4 119.3 529.2 120.9 530.4 120.9 531.8 121.2 533 120.4 534.1 120.1 536 120 536.7 118.9 537.6 118.6 538.3 119 540.4 119.7 541.3 118.4 542.5 119.2 543.5 118.3 544.3 117.9 544.9 118.5 545.3 118.3 546.1 118.1 546.9 117.8 547.6 118.2 548.8 119.6 550 120 550.9 118.9 551.5 120 551.9 119 553 118.6 553.8 117.6 554.9 118.2 556.4 118.5 557.6 117.3 558.9 117.2 560.1 117.8 560.5 116.4 560.8 116.7 561.4 116.5 561.9 116.2 562.4 115.3 562.9 115.7 563.2 116.3 563.6 116.6 563.8 117.3 564.3 116 564.5 115 564.9 114.5 565.2 114.7 565.4 114.9 565.8 115 566.2 115.3 566.7 116 567.1 115.1 567.9 115.3 568.1 115.8 568.9 116.6 569.5 116.3 570.1 116.6 570.3 116 571 117.6 571.4 118.5 571.8 118.4 572.5 119.7 572.9 119 573.6 119.3 574.1 119.9 574.7 119.9 575.7 119.3 576.8 118.4 577.4 118.2 578 118.7 578.3 120.2 578.6 119.5 579.3 117.9 579.7 118.2 580.3 117.8 580.9 118.9 581.7 119.1 582.7 119.4 583.8 119.6 584.6 119.3 585.2 119.4 585.3 120.1 585.8 120.6 585.9 120.7 586.1 120.8 586.2 121.1 586.4 121.3 586.8 121.6 587.2 122.5 587.5 123 587.5 123.8 587.7 124.2 587.9 125.1 588 125.2 588.2 124.7 588.4 124.6 588.8 125 589.3 124.1 589.6 124.6 589.9 125 590.2 124.5 590.5 124.4 590.7 124.4 591 125.1 591.4 125.5 591.6 126.5 592.3 126.4 592.8 125.2 593.6 125.2 594.2 125.7 595.2 125.6 595.5 124.2 595.8 123.3 596 122.7 596.4 122.9 597.3 122.7 597.6 122.7 597.9 123.1 598.1 122.3 598.2 122.2 598.4 122.2 598.7 123.1 599.1 123 599.3 124 600.1 123.9 600.9 124.2 601.7 123.9 602.6 124.8 603.1 123.4 604 123.9 604.7 124.7 605.8 124.1 606.6 124.2 607.6 123.5 608.3 123.8 609.1 123.8 610.3 123.8 611.3 124.8 611.8 125.7 611.8 126.8 611.8 127.8 611.8 128.7 611.8 130 611.9 129.3 611.9 128 611.9 128.5 612 129.5 612 128.9 612 130.6 612 130.4 612.1 129.3 612.1 129.8 612.2 129.4 612.2 130.8 612.3 131.7 612.3 132.7 612.3 132.4 612.4 132.1 612.4 131.5 612.5 130.5 612.5 130.4 612.5 129.3 612.5 128.7 612.5 128.8 612.6 130.1 612.6 130.9 612.7 130.7 612.7 129.5 612.7 129.8 612.8 130.2 612.9 131.2 613 132.1 613 131 613.1 130 613.2 130.4 613.3 131.2 613.5 130.7 613.6 131.4 613.6 132.4 613.7 132.2 613.7 131.2 613.8 131.7 613.9 131.9 614 131.4 614.1 131.2 614.2 131.6 614.3 131 614.4 132.5 614.5 133.2 614.6 133.2 614.6 131.6 614.8 131.7 614.8 131.5 614.9 132.3 615 130.3 615 129.2 615 129.8 615 130.8 615.2 131.3 615.3 131.3 615.4 130 615.4 131.4 615.6 132.3 615.6 133.1 615.6 133.9 615.7 134.4 615.7 133.2 615.8 132.8 615.9 131.3 616 131.2 616.1 132 616.2 131.8 616.3 132.6 616.4 131.5 616.5 131.2 616.6 130.5 616.6 130.1 616.7 130.9 616.8 131.6 616.8 132 616.9 132 617 131.2 617.1 130.3 617.1 129.2 617.1 129.6 617.2 130.9 617.2 130.8 617.3 131.2 617.3 131.8 617.4 131 617.5 130.3 617.6 129.9 617.7 129.4 617.9 129.5 618 129.6 618 129.2 618.1 130 618.4 130.8 618.4 130.4 618.5 130 618.7 130.7 618.8 130.6 619 130.3 619.1 129.9 619.3 129.2 619.4 129.4 619.6 129.6 619.8 129.5 620 129.8 620.1 129.8 620.2 130.1 620.4 130.1 620.7 130.5 620.9 130.9 621.1 131 621.3 130.6 621.4 130.9 621.6 131 621.7 131.3 621.8 131.7 622 131.3 622.2 131 622.4 131 622.5 130.9 622.7 131.6 622.7 132.1 622.9 132.5 623 132.2 623.1 132.6 623.3 133 623.4 133.5 623.5 133.9 623.6 134.4 623.6 135.2 623.6 134.4 623.7 135 623.7 133.7 623.7 133.2 623.8 133.8 623.9 133.7 624 134.9 624.2 135.1 624.3 134.7 624.4 135.3 624.5 136 624.6 137 624.7 136.9 624.9 137.2 624.9 137.2 625.1 137.7 625.1 136.8 625.2 137.6 625.3 138.4 625.4 139.6 625.4 140.1 625.4 140.8 625.4 140.8 625.4 142.2 625.4 143.3 625.4 144.7 625.4 144.7 625.4 143.6 625.4 142.6 625.4 143.4 625.4 143.6 625.4 144 625.4 145.2 625.5 144.2 625.5 143.5 625.5 142.3 625.5 141.2 625.6 142 625.6 142.1 625.7 142.9 625.8 142.4 625.9 142.8 626 143.6 626 144.4 626 144.9 626.1 146.3 626.1 144.5 626.1 143.7 626.2 144.9 626.3 144.9 626.4 144.3 626.7 142.8 626.9 143.6 627 144.1 627.1 145.4 627.2 146.1 627.2 147.1 627.2 148 627.3 147.2 627.3 146.1 627.3 144.6 627.3 145.7 627.4 145.2 627.6 146.4 627.7 148.3 627.8 149.2 627.8 149.4 627.9 148.7 627.9 147.2 627.9 146.9 628 148 628.1 148 628.2 148.4 628.4 148.1 628.4 146.9 628.5 147.1 628.5 145.1 628.6 146.5 628.7 147.9 628.8 147.7 629 147.6 629.1 148.1 629.1 148.3 629.3 147.2 629.4 146.3 629.6 144.4 629.7 145 629.8 145.6 630 145.7 630 146.4 630.2 147.2 630.3 148 630.4 147.7 630.6 148.7 630.8 149.6 630.9 150.7 631 150.1 631.1 151.1 631.1 151.7 631.2 152.2 631.2 152.1 631.3 153.3 631.3 154.5 631.3 154.5 631.4 156 631.4 156.6 631.5 155.6 631.5 154.2 631.5 153.4 631.6 154.6 631.7 157.1 631.8 157.7 631.8 156.7 631.9 157.5 631.9 159.2 631.9 160.4 632 161.5 632 163 632 163.6 632 161 632 159.6 632.1 159.1 632.1 158.2 632.1 157.4 632.2 156.8 632.3 157.5 632.4 157.7 632.5 157.2 632.5 158 632.6 159.3 632.7 159 632.7 157.6 632.8 156.8 632.8 156.9 633 157.1 633.1 157.9 633.2 158.5 633.3 158.5 633.4 160.1 633.4 160.5 633.5 160.6 633.6 161.3 633.7 162.8 633.7 163.1 633.7 163.5 633.8 164 633.8 163.3 633.8 161.4 633.8 159.9 633.9 158.4 633.9 159.1 633.9 159.3 634 159.6 634.1 158.5 634.2 158.1 634.2 157.4 634.3 157.2 634.4 159.5 634.5 159.4 634.6 158.4 634.7 158.5 634.9 157.2 635 156.3 635.2 156.2 635.2 155.2 635.3 155.4 635.4 156.3 635.6 154.8 635.7 155.1 635.7 154.9 635.9 153.3 636 153.6 636.1 153.3 636.1 153.6 636.2 154.3 636.3 153.7 636.4 152.9 636.5 152.9 636.6 152.8 636.7 152.5 636.7 152.4 636.8 153.4 636.9 152.8 636.9 152.3 637 154.1 637.2 154.1 637.3 155.6 637.4 155.9 637.5 155.2 637.5 154.5 637.6 153.5 637.7 152.6 637.7 152.5 637.7 152.8 637.9 153.3 637.9 153.6 638 153.6 638.1 154.4 638.2 154 638.3 154.1 638.4 154.8 638.4 153.9 638.4 153.2 638.5 153.3 638.5 153.3 638.5 153.6 638.6 152.5 638.6 152.4 638.6 151.7 638.7 151.2 638.8 151.1 638.9 150.6 638.9 150.6 639.1 150.7 639.2 150.6 639.4 149.7 639.6 149.5 639.7 148.2 639.7 147.1 639.8 149.3 639.9 150.2 640 150.6 640.2 151.4 640.3 152.1 640.4 152.2 640.6 150.7 640.8 151.8 640.8 151.9 641 151.7 641.1 152.6 641.4 152.5 641.7 152.5 641.8 152.9 641.9 153.2 642.1 152.8 642.2 153.3 642.3 153.9 642.5 154 642.7 153.3 642.8 153.3 643 154.3 643.3 153.8 643.3 152.9 643.4 153.2 643.6 152.4 643.7 153.2 643.9 153.7 644 154.5 644.1 153.6 644.4 153.8 644.5 154.1 644.9 154.8 645.1 155.1 645.3 154.7 645.4 154.6 645.7 154.5 645.8 156.2 646 155.9 646.2 155.1 646.4 156.2 646.7 155.4 646.8 155.5 647.2 156 647.4 155.6 647.6 156.3 647.8 154.6 648.1 153.8 648.3 154.1 648.7 153.3 648.8 153 649 152.9 649.1 152.8 649.1 153.4 649.3 153.2 649.5 153 649.6 151.9 649.8 151.9 649.9 150.5 650.1 150.5 650.2 149.4 650.4 150 650.6 151 650.7 151.2 650.9 150.9 651.1 152.4 651.3 153.5 651.4 152.5 651.6 152.5 651.7 152 651.7 152.3 652 150.5 652.1 150.7 652.3 150.5 652.3 151.2 652.7 150.1 652.8 150.9 652.9 150.9 653.1 151.2 653.4 150.8 653.5 150 653.6 149.9 653.8 148.6 654 148.7 654.1 148.8 654.5 149.2 654.7 149.3 654.9 150.5 655.1 150.9 655.2 151.8 655.5 152 655.7 151.2 655.8 150.7 656 150.4 656.2 151.2 656.4 151.4 656.7 151.3 657 151.2 657.2 151.3 657.6 151.5 657.7 152.2 657.8 151.4 658 152.8 658 152.5 658.1 152.2 658.2 152 658.3 151.9 658.3 151.6 658.4 152.2 658.6 152.7 658.8 152.1 658.9 151.9 659 151.8 659.2 150.9 659.4 151.2 659.6 151.8 659.9 151.6 660.1 151.2 660.2 150.6 660.3 150.4 660.6 150.5 660.7 150.2 660.9 149.9 661.1 149.8 661.3 150.8 661.4 150.8 661.6 150.1 661.8 150.2 662.1 149.3 662.1 147.6 662.4 148.7 662.6 148.4 662.9 147.7 663.3 147.7 663.4 145.8 663.4 145.6 663.4 146.5 663.4 146.1 663.5 146.4 663.7 146.5 664 145.6 664.1 145.7 664.1 146.2 664.3 146 664.5 146.4 664.7 146.4 664.7 146.6 664.8 146.1 664.9 146.1 665.2 146.1 665.4 146.1 665.9 146.5 666.4 147.4 666.6 147.9 666.8 147.4 667 148.8 667.1 149.4 667.4 149.8 667.7 149.5 668.4 147.9 668.6 147.4 668.7 148.2 668.9 147.5 669.2 148.4 669.7 148.7 670.3 146.6 670.7 146 670.7 146.3 671.3 146.4 672.1 147.3 672.3 147.9 672.5 147.8 672.6 147.3 673 147.8 673.1 148.7 673.1 148.7 673.4 149.2 673.7 149.5 674.1 149.9 674.3 150.1 674.7 150.2 675.1 151.5 675.3 151.6 675.5 152.3 675.5 153.3 675.7 152.9 675.8 153.2 676 153.2 676.2 152.6 676.4 152.6 676.5 153.3 676.6 152.7 676.9 152.2 677 152.3 677 153.4 677.3 153.6 677.6 154.4 677.8 154.2 678 154.1 678.1 154.5 678.5 154.7 678.6 154.9 678.9 154.3 679.1 154.1 679.3 153.2 679.6 153.4 680 153 680.3 154.3 680.7 154.8 680.8 155.2 681 154.5 681.3 155.5 681.4 155 681.7 155.5 681.9 156.4 682.2 155.6 682.5 155.9 682.9 156.3 683.1 157.1 683.8 156.2 684.4 156.5 684.5 155.8 684.7 155.5 684.9 156.4 685.3 155.9 685.5 155.1 685.8 155 685.9 155.4 686.4 155.5 686.9 156.3 687.2 157.1 687.4 157.2 687.7 157.5 688 156.9 688.6 156.2 688.9 156.6 689.3 155.9 689.9 156.3 690.2 156.5 690.5 156.1 690.8 156.2 691.1 157.7 691.3 156.3 691.4 155.6 691.6 155.7 691.9 155.7 692.1 156.1 692.3 157 692.7 158.1 693.1 158.6 693.2 158.7 693.5 158 693.7 157.4 694 157.6 694.3 157 694.7 157.4 695.3 156.8 695.9 157.2 696.2 156.3 696.5 157.9 696.8 158.9 697.2 157.7 697.9 156.5 698.4 155.1 698.9 156 699.7 156.6 700.3 156.8 700.7 156 701.6 155.1 702.2 155 702.7 155.2 703 155.9 703.4 155.6 703.6 156.3 704 156.3 704.4 156.9 704.9 157.4 705.2 157.1 705.6 157.7 705.8 158.3 706.2 159.3 706.6 159.1 706.8 160.1 707 160 707.4 161.2 707.9 161.3 708.2 161.3 708.4 162.2 708.8 162.5 709.1 161.7 709.5 162.1 709.9 162 710 162.8 710.5 162.9 710.7 162.5 711.2 162.4 711.4 162.9 711.5 163.4 711.6 164.2 711.7 165 711.8 164.9 711.9 165.4 712 166.2 712.1 165.8 712.3 164.9 712.4 164.5 712.9 164.2 713.1 163.9 713.2 162.5 713.6 163.7 713.9 163.7 714.2 163.8 714.5 163.6 714.9 163.3 715.4 163.5 715.8 164.2 716.6 163.1 717 163 717.3 162.6 717.6 162.3 718.3 163.5 719.1 163.2 719.6 163.7 720.2 163.3 720.5 163.1 720.8 163.1 721.2 162 721.3 160.8 721.6 160.3 721.9 160.2 722.4 160.8 722.9 160.3 723.3 160.3 723.5 160.3 724.1 160.8 724.5 161.4 724.7 161.3 724.9 160.8 725.4 162 725.9 162.2 726.3 162.1 726.5 162.6 726.8 161.8 727.4 162 728.1 162.1 728.9 161.2 729.7 160.7 730.7 161.3 731.4 161.9 732.2 160.6 733 161.4 734.1 160.4 734.5 161.1 735.5 160 736 159.7 736.7 161.5 737.4 161.9 738 161.8 738.5 161.2 739.2 162.1 740.1 160.9 740.8 161.9 741.7 161.6 742.4 162.2 743.5 163.2 744 164.4 744.1 164.4 744.4 162.6 745.3 163.4 746.6 162.8 747.1 161.6 748 161.7 748.6 163.2 748.8 164 749.1 163.7 749.3 163.4 749.7 162.9 750.3 163.3 751 162.7 752 163.6 752.7 163.2 753.1 163.9 753.7 163.6 754.8 164.1 756 163.4 756.8 164.1 757.3 164 757.6 163.6 758.4 164.3 758.9 165.1 759.2 164.4 759.9 164.2 760.3 165.5 760.8 166.8 761.1 166.7 761.5 166.7 761.7 167.5 761.9 166.9 762.3 167 762.7 167.5 762.8 168.7 762.8 168.2 763 168.7 763.1 168.5 763.3 168.5 763.5 167.4 763.9 166.9 764.3 167.2 764.6 167 764.7 167.9 764.8 168.2 765.1 167.1 765.4 166.5 765.6 166.6 765.6 167.9 765.8 167.4 766.1 166.5 766.5 166.7 766.8 167.2 767.3 166.1 767.7 166.5 767.9 167.4 768 167.4 768.2 167.7 768.4 167.2 768.6 167.9 768.7 169.6 768.7 170 768.7 170.1 768.8 169.5 768.8 169 768.9 168.8 769 170 769.1 169.7 769.2 169.5 769.4 168.3 769.5 169.1 769.7 169.2 769.9 170.4 769.9 171.3 770 170.3 770.2 169.6 770.3 169.7 770.6 169.1 770.8 169.1 771 167.7 771.1 168.3 771.4 167.1 771.6 168.2 771.9 168.8 772.1 170.1 772.4 171 772.6 171.3 772.8 172.2 772.8 172.9 772.9 173.6 772.9 174.6 772.9 174.4 772.9 173.6 772.9 172.6 773 172.2 773.2 172.8 773.3 173.6 773.3 174.6 773.4 174.3 773.4 175.4 773.5 176.7 773.5 178 773.5 179 773.5 179.9 773.6 177.7 773.6 176.2 773.6 175.6 773.7 175 773.8 174.5 773.9 174 774 173.4 774.1 172.7 774.1 171.8 774.3 172.6 774.6 171.8 774.7 172.9 774.9 172.6 775.1 172.5 775.4 172.9 775.5 173.9 775.7 174.2 775.9 173.8 776.1 173.1 776.4 172.5 776.7 173.2 777 172.7 777.1 171.3 777.6 171.5 777.8 171.5 778.1 170.6 778.5 171.1 778.7 170.2 778.8 170.3 779 171.6 779.3 172.5 779.5 172.2 779.8 171.8 780 172.7 780.3 172.2 780.6 171 780.7 170.1 780.8 170.8 781.1 170.7 781.2 170.9 781.2 171.4 781.4 170.6 781.8 170.1 782.1 169.6 782.3 169 782.5 168.9 782.8 168.2 783 168.5 783.1 169.1 783.3 169.9 783.7 169.8 784.1 168.4 784.3 167.8 784.6 168.3 785 167.8 785.3 168.1 785.5 168.2 785.6 169.2 785.7 169.8 786 169.9 786.2 170.5 786.6 171.2 787.1 170 787.4 170.3 787.6 169.9 787.8 170.7 788.1 171.5 788.3 171.7 788.4 172.5 788.7 171.8 789.2 172.8 789.6 172.1 789.8 171.5 790.2 172 790.4 172.6 790.8 172.7 791.1 172.7 791.5 172.5 791.7 171.7 792 171.7 792.3 170.1 792.5 170.7 792.9 171.3 793.2 170.7 793.5 170.2 794 169.9 794.1 169.3 794.5 170.1 795 169.7 795.3 168.8 795.8 170 796.3 170.4 796.6 171 797 172 797.4 172.4 797.9 171.2 798.5 171 799 169.8 799.4 171 799.9 170.5 800.5 170.7 801.1 170.8 801.1 171.8 801.1 171.5 801.2 171 801.6 170.5 802.1 171.4 802.6 171.7 803 171.8 803.4 172.2 803.9 171.7 804.2 171.3 804.6 171.4 805 171.3 805.3 170.1 805.5 170.5 805.7 171.3 806 171.4 806.8 171 807.7 170.6 808.4 170.6 809.3 171.2 810.3 171.9 811 173.1 811.6 172.3 812.6 172.9 813.6 172.9 814.2 173.1 815 173.5 816.3 174.3 817.4 173.9 817.7 173.3 817.8 173.6 818.3 173.1 819.2 174.8 819.8 174.3 820.5 174.6 821.1 174.9 821.2 176.1 821.2 177.1 821.3 177.8 821.3 178.2 821.3 178.1 821.3 177.2 821.4 176.6 821.4 177.6 821.5 177.9 821.6 177.9 821.7 177.2 821.8 176.8 821.8 177.1 821.9 178 822 178.6 822 178.8 822.1 179.6 822.2 179.6 822.2 179.2 822.3 179 822.4 179.2 822.4 180.5 822.5 179.8 822.6 181.1 822.6 181.9 822.7 181.1 822.7 182.5 822.7 183.7 822.7 181.4 822.8 182.5 822.8 183.7 822.8 184.5 822.8 184.3 822.8 184.8 822.8 185.4 822.9 186 822.9 183.9 822.9 184.7 822.9 184.2 822.9 184.6 823 184.6 823 183.3 823 182.9 823.1 182.5 823.2 182.8 823.3 183.4 823.3 184.6 823.4 185.6 823.4 185.7 823.4 187.1 823.4 187.5 823.5 189 823.5 187.8 823.6 187.1 823.6 186.1 823.6 187.5 823.7 187 823.7 189.1 823.8 188.4 823.8 187.5 823.9 187.1 824 188.6 824.1 185.9 824.1 187.5 824.2 185.5 824.2 187.4 824.2 187.2 824.3 188.6 824.4 187.6 824.4 186.2 824.5 186.8 824.6 188.1 824.6 189.4 824.6 190.6 824.6 191.5 824.7 192.1 824.7 192.3 824.7 193.2 824.7 191.8 824.8 194.2 824.8 194.2 824.9 195.2 824.9 198.8 825 201.6 825 201.9 825.1 198.3 825.1 196.2 825.1 193.8 825.2 199.6 825.3 198.3 825.3 198.7 825.4 197.2 825.4 196.5 825.5 196.3 825.5 197.6 825.5 199 825.6 198.5 825.6 198.2 825.7 197.3 825.8 198 825.9 196.6 825.9 197.7 826.1 199.4 826.2 197 826.3 197.8 826.4 200 826.4 201.5 826.4 202.6 826.5 202.6 826.5 200.2 826.6 200.7 826.7 203.1 826.7 204.7 826.7 206.6 826.8 208.2 826.8 209.2 826.8 211.8 826.8 216.8 826.9 218.1 826.9 229.3 826.9 235.8 826.9 226.9 826.9 222.2 826.9 222.4 826.9 223.5 826.9 224.9 826.9 221.3 827 217.3 827 217.8 827 212.2 827.1 213.5 827.1 214.2 827.1 212.8 827.1 213.2 827.2 214.6 827.2 215.5 827.2 216.1 827.2 215.5 827.2 213.8 827.2 213.5 827.3 211.8 827.3 211 827.3 211.7 827.4 211.8 827.4 213.5 827.5 214.4 827.5 215.1 827.5 216.4 827.5 217.4 827.5 215.8 827.6 217.8 827.7 215.6 827.7 217.9 827.7 219.3 827.7 220.4 827.7 220.3 827.7 216.7 827.8 215.9 827.8 216.8 827.8 214.5 827.9 213.8 827.9 213.3 828 212.6 828 211.4 828 211.2 828.1 210.7 828.1 210.2 828.2 210.6 828.3 211 828.3 210 828.3 210.2 828.4 208.2 828.4 207.4 828.5 207.2 828.5 206 828.5 207 828.6 208.3 828.6 207 828.7 206.8 828.8 207 828.8 206.4 828.8 206.6 828.9 207.6 828.9 206.8 828.9 206.4 829 205.9 829 205.5 829.1 206 829.2 206.7 829.3 207.2 829.3 207.5 829.3 207.9 829.4 208.2 829.4 207.8 829.5 207.4 829.6 206.4 829.6 206.7 829.7 207.7 829.8 205.8 829.8 205.5 829.9 204.5 829.9 203.8 829.9 202.9 830 202.7 830.1 203.7 830.2 204 830.2 204 830.3 203.7 830.4 203.7 830.4 203.9 830.5 204.8 830.5 205 830.6 204.4 830.6 204 830.7 204.6 830.8 203.4 830.8 203.7 830.9 204.1 831 204 831 204.9 831.2 204.6 831.3 203.1 831.4 202.3 831.6 202.9 831.6 203.9 831.8 204.4 831.8 205.8 831.8 206 831.8 205.6 831.9 205.9 831.9 207.5 831.9 205.6 832 205.6 832 204.2 832 204.7 832.1 205.2 832.1 205.8 832.1 205.4 832.2 205 832.2 205.7 832.3 206 832.3 206 832.3 206.6 832.4 205.8 832.4 205.1 832.5 204.4 832.6 204.5 832.7 203.3 832.7 203.4 832.8 202.4 832.8 200.7 832.8 201.1 832.9 202.3 833 202.2 833.2 203 833.4 204.6 833.4 206.4 833.5 205.1 833.5 205.9 833.6 204.7 833.8 206.7 833.9 207.3 834.1 208.8 834.2 209.1 834.3 209 834.3 207.2 834.4 209.7 834.5 211.9 834.5 212.1 834.5 212.8 834.6 214.5 834.6 215.7 834.7 216 834.8 219.7 834.8 224.3 834.8 221.3 834.8 228.4 834.9 227 834.9 226.8 834.9 231.7 835 234.6 835.1 240.9 835.1 239.2 835.2 234.9 835.3 236.4 835.3 235.6 835.4 233.9 835.5 238.1 835.5 242.9 835.5 247.3 835.6 254 835.6 256.3 835.6 252.3 835.6 256.2 835.6 256.5 835.6 256.5 835.6 265.1 835.7 269.5 835.7 273.4 835.7 276.3 835.8 265.9 835.8 267.8 835.9 263.3 836 258.4 836 258 836 253.3 836.1 252.9 836.1 251.4 836.1 249.3 836.1 252.7 836.2 254.2 836.2 253.2 836.3 254.4 836.3 257.3 836.3 260.4 836.4 260.2 836.4 251 836.4 249 836.4 247.1 836.4 244.2 836.4 250.4 836.4 256.4 836.4 254.6 836.5 254 836.6 256.1 836.6 257.9 836.6 265.7 836.6 272 836.7 278.3 836.7 280.2 836.7 278 836.8 281 836.8 281.3 836.8 281 836.8 277.5 836.8 279.5 836.9 283.8 836.9 287 837 285.8 837 282.1 837.1 293.5 837.2 293.9 837.2 294.4 837.2 297.3 837.3 288.8 837.3 284.8 837.4 286.2 837.4 303.9 837.5 300.8 837.6 298.9 837.7 305.8 837.7 295.9 837.7 298.9 837.7 299.4 837.8 307.6 837.8 312.4 837.9 310.5 837.9 313.4 837.9 312.4 838 314.5 838 311.2 838 309.8 838 307.6 838 297.6 838 313 838.1 313.8 838.1 330.2 838.2 330.1 838.2 318.6 838.3 336.5 838.3 326.6 838.3 344.9 838.4 337.3 838.5 352.9 838.6 352 838.6 357 838.7 369 838.7 378.9 838.8 385.2 838.8 384.6 838.8 390 838.8 392.3 838.9 385.5 838.9 402.4 839 393.3 839.1 400.4 839.2 393 839.3 391.9 839.4 405.5 839.5 372.2 839.6 394 839.7 397.4 839.7 397.5 839.8 423.1 839.8 397.6 839.9 404.5 839.9 419.8 840 424.2 840 402.1 840.1 422.4 840.2 415.4 840.4 381.4 840.4 359.6 840.5 363.6 840.6 367.6 840.7 387.2 840.8 384.4 840.9 392.2 841 377.2 841.1 395.6 841.2 403.7 841.3 394.1 841.4 394.9 841.5 398.2 841.6 387.7 841.7 387.6 841.8 387.6 841.9 382.8 842 377.7 842.1 386.5 842.2 386.3 842.4 396.8 842.5 380.4 842.5 396.6 842.6 394.1 842.7 397.1 842.7 396 842.8 392 842.9 392.3 843.1 396 843.1 408.7 843.2 398.5 843.3 390.4 843.4 384.3 843.5 396.8 843.7 391 843.8 386.2 843.9 378.6 844 381.3 844.1 378.8 844.2 352.8 844.3 377.6 844.4 369.4 844.5 374 844.6 374.7 844.7 374 844.9 370.1 845.1 355.2 845.2 358.4 845.2 357.2 845.3 335.1 845.5 359.3 845.6 346.3 845.6 344.9 845.7 335.7 845.9 324.2 846 321 846.2 321.2 846.3 323.8 846.4 321.6 846.6 323.8 846.7 327 846.8 328.5 846.9 321.9 847 332.9 847.1 324.1 847.3 312 847.3 304 847.4 306.7 847.4 303.3 847.6 302.5 847.7 299.9 847.8 296.8 847.9 298.6 848 288.4 848.1 282.4 848.2 282.6 848.3 280.4 848.4 276.5 848.5 276.5 848.6 276.7 848.7 292.7 848.9 284.3 849 284.5 849.2 280.7 849.3 269.6 849.4 279.2 849.5 281 849.7 293 849.8 293.1 849.9 297.4 850.1 297.4 850.2 299.5 850.2 300.6 850.4 300.7 850.5 299.9 850.5 300 850.7 292 850.8 300.6 851 297.3 851.1 297.3 851.2 278.9 851.4 281.9 851.5 298.7 851.6 299.2 851.8 292.8 851.9 292.4 852 282.4 852.1 278.2 852.2 272.3 852.2 283.6 852.3 286.3 852.4 284.8 852.5 269.6 852.6 284.8 852.7 278.9 852.8 275.4 852.8 263 852.9 281 853 269.7 853.1 250.4 853.2 269.2 853.3 263.7 853.4 256.6 853.5 261.7 853.6 260 853.8 253.3 853.9 244.4 854 229.9 854 217.2 854.1 234.2 854.2 210.8 854.2 208 854.3 208 854.4 218.3 854.5 218.5 854.7 223.5 854.8 227 854.9 229.1 855 243 855.1 243 855.3 239.6 855.4 243.3 855.6 244.5 855.6 222.3 855.8 222.3 855.9 229.3 856.1 228.6 856.2 235.2 856.3 228.7 856.4 238 856.5 238.5 856.6 237 856.7 239.5 856.8 240 856.9 229.3 857 231.9 857.1 231.9 857.1 235.2 857.1 239.6 857.2 235.1 857.2 236.5 857.3 229.3 857.4 231 857.4 233 857.5 235.2 857.5 235.5 857.5 235.6 857.6 235.3 857.6 230.8 857.7 230.8 857.7 234.4 857.8 232.3 857.8 232 857.9 239.5 858 237.9 858 236.9 858 222.2 858.1 225.1 858.1 228.8 858.1 226.7 858.2 229.3 858.3 233.5 858.4 237.7 858.5 225.2 858.6 222.7 858.6 237.8 858.6 239.4 858.7 246.6 858.7 243.5 858.8 244.2 858.8 244.9 858.9 243 858.9 244.3 858.9 245.2 859 246.4 859 244.9 859.1 245.6 859.1 246.8 859.1 248.6 859.2 249.1 859.2 248 859.2 247.8 859.2 246.4 859.2 245 859.3 244.2 859.3 245 859.3 245.8 859.3 245.3 859.4 246.7 859.4 248 859.4 248.7 859.4 249.7 859.4 245.2 859.4 250.2 859.4 250.3 859.4 248.6 859.4 247.3 859.5 246.1 859.5 246.7 859.5 247.5 859.5 247.1 859.5 249.9 859.5 246.9 859.6 249.4 859.6 250.6 859.6 246.2 859.6 246.4 859.6 246.2 859.7 245 859.7 243 859.7 242.7 859.7 242.6 859.8 240.5 859.8 239.3 859.8 238.9 859.8 238.1 859.8 236.5 859.8 234.5 859.8 233.4 859.8 232 859.9 226.1 859.9 225.4 859.9 231.4 859.9 232.7 860 234.8 860 236 860 232.6 860.1 235 860.1 235.5 860.1 238.6 860.1 240.5 860.1 236.9 860.2 236.2 860.3 243.8 860.3 234.3 860.4 235.8 860.4 236.5 860.4 234.7 860.5 234.3 860.5 233.1 860.5 232.9 860.5 231.6 860.5 232.4 860.5 234 860.5 232.3 860.5 233.9 860.6 232.3 860.6 234.8 860.7 236 860.7 238 860.7 238.9 860.8 239.8 860.8 241.1 860.8 244.4 860.8 239.6 860.8 237.3 860.9 234.4 860.9 236.6 861 233.3 861 234.5 861 236.7 861.1 235.7 861.2 237.3 861.2 235.6 861.3 236.5 861.4 238.5 861.5 235.9 861.5 233.4 861.5 226.8 861.6 226.9 861.6 229.3 861.6 230.4 861.7 231 861.7 231.7 861.7 232.9 861.7 234.9 861.8 232.8 861.9 230.2 862 235.1 862 233.9 862.1 232.4 862.2 235.2 862.2 236 862.2 237.2 862.2 239.2 862.2 240.3 862.2 239.3 862.3 238.1 862.3 240.2 862.3 242.3 862.3 244.6 862.3 246.5 862.4 241.9 862.4 241.8 862.5 242.4 862.6 243.1 862.6 240 862.6 237.4 862.6 236.3 862.7 243 862.7 240 862.7 238.2 862.7 237.3 862.8 236.3 862.8 240.1 862.8 238.8 862.8 235.9 862.8 234.8 862.8 241 862.8 242 862.9 240.1 862.9 239.3 862.9 237.8 862.9 237.7 863 237.6 863 237.9 863 239.4 863 240.7 863.1 241 863.1 242.4 863.1 244.9 863.2 246 863.3 242.1 863.3 241.2 863.4 242.6 863.4 243.5 863.4 245.7 863.4 242.3 863.4 243.8 863.4 245.3 863.4 246.3 863.5 244.8 863.5 244.4 863.5 243.2 863.6 242.6 863.6 245.8 863.6 252.9 863.7 246.1 863.7 246.4 863.9 248.1 863.9 246 864 248.3 864 248.1 864 249.5 864 249.2 864 249.2 864 249.1 864 248.8 864 248.7 864.1 249.5 864.1 249.2 864.1 248 864.1 247.6 864.2 246.3 864.2 246.4 864.2 248.7 864.3 247.9 864.3 247.7 864.4 244.4 864.5 243.5 864.5 244.7 864.5 245.7 864.6 245.9 864.6 246.5 864.6 247.7 864.6 249.6 864.6 252.4 864.7 248.9 864.7 252.4 864.7 250.5 864.7 249.6 864.8 248.5 864.8 251.7 864.9 252.5 865 256.4 865.1 254.4 865.1 253.7 865.1 254.4 865.2 255.7 865.2 255.1 865.2 257 865.2 256.4 865.3 255.1 865.3 255.6 865.3 255.8 865.3 254.5 865.3 256.4 865.3 256.4 865.3 254.1 865.3 257 865.4 256.3 865.5 255.9 865.6 256.5 865.7 256.9 865.7 256 865.7 253.8 865.7 256.5 865.7 256.6 865.8 256.9 865.8 255.2 865.9 259.2 865.9 260.7 865.9 261.6 866 263.6 866 265.5 866.1 270.1 866.2 277.6 866.3 281.6 866.3 279.6 866.3 272.1 866.3 269.6 866.4 264.4 866.4 267.5 866.4 263.5 866.4 262.2 866.5 262.6 866.5 262.4 866.5 262.9 866.6 262.6 866.7 262.7 866.9 262.6 866.9 263.7 867 263.2 867 261.5 867.1 262.1 867.1 263.7 867.2 260.1 867.5 264.1 867.5 261.1 867.7 260.4 867.7 259.7 867.8 259.1 867.8 265.5 867.8 270.5 867.8 259.4 867.8 257.8 867.9 257.4 868 258.3 868.1 256.1 868.1 258 868.1 256.3 868.1 257 868.2 255.6 868.2 256.2 868.2 258.6 868.2 259.8 868.3 258.3 868.6 257.7 868.8 257.5 869 257.4 869 254 869.1 256.9 869.3 253.5 869.4 252.8 869.6 253.2 869.9 250.9 869.9 251.4 869.9 249.3 869.9 248.2 869.9 247 870.1 249 870.2 248 870.3 249.1 870.4 246.8 870.5 249.4 870.5 247.8 870.5 246.5 870.6 247.9 870.6 245.2 870.6 247 870.7 247.7 870.7 247.7 870.7 246 870.8 246 870.8 247.3 870.8 248 870.9 249.3 870.9 249.1 870.9 250.1 871 248.3 871 249.4 871 250.4 871.1 248.1 871.2 249.3 871.2 249.8 871.3 248.1 871.5 250.8 871.7 248.6 871.9 251.8 872.1 249.8 872.3 248.8 872.6 244 872.7 242.4 872.9 247.8 873.2 246.8 873.5 246.8 873.9 243.7 874.2 246.8 874.3 247.2 874.5 247.3 874.8 243 875 242.5 875.2 246.7 875.4 245.2 875.6 247.3 875.9 244.1 876.1 244.5 876.4 244.2 876.6 246 876.7 252.7 877 244.4 877.1 243.7 877.3 237.8 877.6 243 877.9 246.2 878.1 249.1 878.3 250.9 878.6 253.9 878.9 250.7 879.2 251.5 879.5 252.2 879.8 250.2 880.1 250 880.4 254.4 880.8 254.2 881.3 251.3 881.5 251.6 881.8 255.1 882 253.9 882.3 251.3 882.6 250.4 882.8 249.1 883.1 243.7 883.4 241.9 883.5 241.9 883.6 241.9 884 244.1 884.1 246.3 884.3 247.3 884.4 247.1 884.4 244.9 884.5 245.8 884.7 246.6 884.8 246.5 885.2 248.6 885.9 244.3 886.2 242.1 886.6 239.4 886.8 242.7 887 240.9 887.2 239.5 887.2 241.7 887.3 241.7 887.4 241.2 887.5 241.7 887.6 242.1 887.8 244.6 887.9 243.6 888 242.8 888.3 241.9 888.4 242.5 888.4 242.1 888.6 243 888.8 244.2 889.2 241 889.3 240.5 889.4 241.2 889.4 241 889.7 242.1 890 245 890.4 239.1 890.7 238.1 890.8 239.2 891.2 232.8 891.4 230.3 891.8 230.1 891.8 230.4 891.9 232.2 892.1 231.2 892.4 232.3 892.9 233.6 893.3 230.3 893.6 229.3 894 230.7 894.1 230 894.7 232.8 895 232.1 895.2 231.8 895.5 229.6 895.7 229.7 896 230.9 896.2 228.9 896.5 226.6 896.9 226.6 897.4 229 897.6 231.6 898 229.6 898.2 228 898.7 227.9 898.9 228 899.4 229.9 899.8 229.2 900 227.7 900.3 226.7 900.6 225.6 900.7 227.2 900.9 228.6 901.1 229.7 901.2 229.5 901.4 229.5 901.5 228.1 901.7 229.1 902 227.6 902.4 229.7 902.7 228.1 902.9 225.2 903.3 222.3 903.4 222.2 903.6 224 903.9 221 904.2 221.9 904.4 221.3 904.7 219.6 904.9 222.4 905.3 226.4 905.4 226.9 905.9 227.4 906.2 227.6 906.8 224.9 907.3 223.8 907.5 222.8 907.7 221 907.9 222.3 908.2 220.6 908.7 220.6 908.8 218.8 909.2 219.4 909.5 220.6 909.7 218.7 909.9 217.8 910.4 218.7 910.7 218.5 911 220 911.1 220.2 911.5 219.3 911.7 218.7 912.2 217.4 912.5 215.2 912.7 210.8 913 211.5 913.1 210.9 913.3 211.4 913.4 209.6 913.6 208.1 913.7 198.9 913.8 203.9 913.8 204 913.8 193.6 913.8 189.6 913.8 196.9 913.9 190.2 914.2 194.4 914.3 198.3 914.3 198.6 914.4 198.7 914.4 200.7 914.5 197.9 914.5 198.4 914.6 199.2 914.7 199.2 914.8 200.3 914.9 200.6 915.1 201.5 915.2 200.9 915.3 202.5 915.3 200.4 915.4 200.2 915.6 198.6 915.8 198.2 915.9 198.4 916.2 198.3 916.5 197.9 916.7 198.9 916.8 198.2 916.8 198.7 917 199.8 917.2 200.3 917.6 201.3 917.7 202.7 917.8 201.7 918 202.6 918.2 201.3 918.2 201.7 918.4 201.5 918.6 200.2 918.9 199.4 919.2 200 919.3 197.7 919.6 197.3 919.6 197.6 919.7 194.7 919.9 194.7 920 194.6 920.4 190.7 920.5 188.3 920.9 191.3 921.1 190 921.3 192.4 921.6 192.8 921.9 193.8 922.2 193.2 922.3 194.6 922.6 197.9 922.7 197.4 922.7 197.6 922.7 199 922.9 203.2 923 197 923.1 195.4 923.3 195.5 923.4 195.9 923.9 193.9 924.1 193.7 924.2 195.9 924.5 188.3 924.6 195.2 925.2 194.7 925.7 196.1 926 197.2 926.3 197.2 926.5 204.1 926.8 201.5 927.1 201.7 927.3 203.4 927.5 201.2 927.6 203 927.9 204.5 928.2 205.2 928.6 206.1 928.8 207.2 929.1 207.3 929.4 208.6 929.5 209.3 929.6 210.3 929.7 210.1 929.9 208.9 929.9 210.4 930.2 209.6 930.5 211.8 930.7 212.5 930.9 214.3 931.1 212.6 931.2 213.7 931.4 215.8 931.8 216.5 932.3 216.5 932.5 217.8 932.8 215.4 933.1 215.3 933.5 212.8 933.8 213.6 934 214.6" opacity=".6"/><text x="942" y="472" fill="#d97706" font-size="11" text-anchor="start">0.67</text><text x="942" y="396" fill="#d97706" font-size="11" text-anchor="start">0.81</text><text x="942" y="320" fill="#d97706" font-size="11" text-anchor="start">0.95</text><text x="942" y="244" fill="#d97706" font-size="11" text-anchor="start">1.09</text><text x="942" y="168" fill="#d97706" font-size="11" text-anchor="start">1.23</text><text x="942" y="92" fill="#d97706" font-size="11" text-anchor="start">1.37</text><text x="942" y="80" fill="#d97706" font-size="11" font-weight="600" text-anchor="start">price</text><polygon fill="#16a34a" fill-opacity=".08" points="612.3 468 612.3 405.1 612.3 406.5 631.3 401.1 631.9 402.5 635.3 404.3 708 406.7 822.6 397.3 825 393.3 825.1 394.7 826.4 396.5 826.8 389.5 826.9 390.9 826.9 392.7 826.9 395.1 826.9 398.3 826.9 399.7 826.9 401.5 826.9 403.9 826.9 407.2 826.9 408.5 832.8 403.3 834.8 399.3 835 395.4 835.2 396.8 835.2 398.5 835.3 400.9 835.5 404.1 835.6 400.2 835.6 401.5 835.9 403.3 836.4 396.2 836.4 397.6 836.6 392.3 836.6 393.6 836.9 388.3 837.2 389.7 837.3 391.5 837.4 393.9 837.5 397.1 837.7 398.5 837.7 400.3 837.8 393.3 837.8 394.6 837.8 396.4 837.8 398.8 838 401.9 838 403.3 838 405.1 838 407.4 838 398.2 838 399.5 838 394.3 838 395.6 838 397.4 838 399.9 838 403.1 838 404.5 838.1 399.1 838.1 400.5 838.2 402.3 838.2 404.7 838.3 408 838.3 409.3 838.3 404 838.4 405.4 838.6 400 838.7 401.4 838.7 396.1 838.8 392.1 838.8 393.5 838.8 395.3 838.8 397.6 838.8 400.8 838.8 402.2 838.8 404 838.8 406.4 838.8 409.6 838.9 411 838.9 412.8 838.9 415.2 838.9 418.5 838.9 419.8 839 421.6 839.1 414.6 839.1 416 839.1 417.8 839.1 420.2 839.1 423.4 839.1 424.8 839.1 426.6 839.1 428.9 839.2 432.1 839.2 428.1 839.3 424.2 839.3 425.5 839.4 427.4 839.4 429.8 839.5 433 839.5 429.1 839.5 425.1 839.5 426.5 839.5 428.3 839.5 430.7 839.5 433.9 839.5 429.9 839.5 431.3 839.5 426 839.5 427.3 839.7 422 839.8 423.4 839.8 425.2 839.8 427.6 839.8 418.1 839.8 414.1 839.8 415.5 839.8 410.2 839.8 411.6 839.8 413.4 839.8 406.3 839.8 402.4 839.8 403.8 839.8 398.4 839.8 394.4 839.9 395.8 839.9 397.5 839.9 390.6 839.9 391.9 839.9 393.7 839.9 386.7 839.9 382.8 839.9 378.8 839.9 374.8 839.9 376.2 839.9 370.8 839.9 366.8 840 362.8 840 364.2 840 366 840 358.9 840 354.9 840 356.3 840 351 840 352.3 840 347 840 343 840 344.3 840 346.1 840 339.1 840.1 335.2 840.1 336.6 840.1 331.3 840.1 332.7 840.1 334.5 840.1 327.5 840.1 328.8 840.1 330.6 840.1 333 840.2 323.7 840.2 319.7 840.3 315.7 840.3 317.1 840.3 318.9 840.4 311.8 840.4 307.8 840.4 309.2 840.4 311 840.4 303.9 840.4 305.3 840.4 307.1 840.4 309.5 840.4 300 840.5 301.4 840.5 303.2 840.5 305.5 840.5 296.3 840.5 297.6 840.5 292.4 840.5 293.7 840.5 288.5 840.5 289.8 840.5 284.6 840.5 285.9 840.5 287.7 840.5 280.7 840.7 282.1 840.7 276.8 840.7 278.1 840.7 272.9 840.7 269 840.7 270.3 840.8 265 840.8 266.4 840.8 268.2 840.9 270.6 840.9 273.8 841 275.2 841 276.9 841 279.3 841 282.5 841 278.6 841 274.6 841 270.7 841.1 266.8 841.1 262.8 841.1 264.2 841.1 258.8 841.1 260.2 841.1 254.9 841.1 250.9 841.1 247 841.2 243 841.2 239 841.3 235.1 841.3 236.5 841.3 238.3 841.4 240.7 841.4 244 841.6 240 841.6 241.3 841.6 243.1 841.7 245.6 841.7 248.8 841.7 244.9 841.7 246.2 841.7 248 841.7 250.4 841.7 253.5 841.8 254.9 841.8 256.7 841.8 249.6 842.3 251 842.3 252.8 842.3 255.2 842.4 245.7 842.4 247.1 842.4 248.9 842.4 241.8 842.4 243.1 842.4 237.9 842.4 234 842.4 230.1 842.5 231.4 842.5 226.1 842.6 227.4 842.6 229.2 842.6 231.6 842.7 234.8 842.7 236.1 842.7 237.9 842.7 230.8 842.7 226.8 842.8 222.9 842.9 218.9 843.1 215 843.2 211 843.2 212.4 843.2 207 843.2 208.4 843.2 210.2 843.3 203.1 843.3 204.5 843.4 206.2 843.8 208.6 844.1 199.3 844.1 200.7 844.1 202.4 844.2 204.8 844.2 195.5 844.2 191.6 844.2 187.6 844.3 183.7 844.4 179.7 844.4 181 844.4 182.8 844.4 185.2 844.4 188.4 844.6 184.4 844.6 185.7 844.6 180.4 844.7 176.4 844.7 172.5 844.7 173.8 844.8 175.6 844.8 178.1 844.8 181.3 844.8 182.7 844.8 177.3 844.8 178.7 845 180.5 845 182.9 845.1 186.2 845.1 187.5 845.1 182.3 845.1 178.4 845.1 179.7 845.2 174.4 845.2 175.7 845.2 177.5 845.3 179.9 845.3 170.6 845.3 166.6 845.3 168 845.3 162.6 845.3 158.7 845.3 160 845.3 154.8 845.3 150.8 845.3 146.8 845.4 142.9 845.4 138.9 845.4 140.3 845.5 142.1 845.5 144.5 845.5 147.7 845.5 143.8 845.5 139.9 845.5 135.9 845.5 131.9 845.6 128 845.6 129.4 845.6 131.2 845.6 124.1 845.6 120.1 845.6 116.1 845.6 117.5 845.7 119.3 845.7 121.8 845.7 125 845.8 126.3 845.8 121.1 845.8 122.5 845.8 124.3 845.8 126.7 845.9 129.9 845.9 131.3 845.9 133 846 135.4 846 138.6 846 139.9 846.4 141.8 846.6 144.2 846.7 147.4 846.7 148.8 846.7 150.6 846.7 153 847 156.2 847 157.6 847 159.4 847 152.3 847 153.7 847 155.4 847 157.8 847.1 161 847.2 157 847.2 158.3 847.2 160.1 847.2 162.5 847.3 165.6 847.7 161.6 847.9 163 848.9 164.8 848.9 167.1 848.9 157.8 849.2 159.2 849.2 161 849.3 163.3 849.5 166.5 849.5 167.9 849.8 162.5 849.8 163.9 850.2 165.7 850.2 168.1 850.3 171.4 850.3 172.7 850.3 174.5 850.9 167.5 851.1 168.9 851.1 163.6 851.5 159.7 852 161.1 852 162.8 852 165.2 852.4 155.9 852.5 157.3 852.5 159 852.5 161.4 852.5 164.6 852.7 165.9 852.8 167.7 852.8 170.1 852.8 173.2 852.8 169.2 852.8 170.6 852.9 172.4 852.9 174.7 853 177.9 853 179.2 853 181 853 183.4 853.1 174.1 853.2 175.5 853.2 170.1 853.3 166.1 853.8 162.1 853.8 163.5 853.9 165.3 854 167.7 854 171 854 167 854 168.3 854 170.1 854.2 172.5 854.2 175.6 854.2 171.6 854.2 173 854.2 174.8 854.3 177.1 854.3 180.3 854.3 176.3 854.3 172.4 854.7 173.7 854.7 175.6 854.7 178 854.7 181.2 855 177.3 855.1 178.7 855.1 180.5 855.6 173.4 855.6 169.4 855.6 170.7 856.3 165.4 856.3 166.7 856.3 168.5 856.3 170.9 856.3 174.1 856.3 175.4 856.3 177.2 856.4 179.7 856.9 182.9 856.9 184.3 857.3 186.1 857.3 188.5 858 191.7 858.1 193.1 858.1 194.9 858.1 197.3 858.1 200.6 858.2 201.9 858.7 196.6 859.8 197.9 859.9 192.7 859.9 194 859.9 195.8 862.3 188.9 863.6 190.2 863.7 192 864.6 194.5 866 185 866.1 186.3 866.3 188.2 869.3 181 877.3 177.1 878.1 173.1 891.1 169.1 896.2 170.5 913.4 165.2 913.8 161.2 913.8 162.6 920.5 164.4 922.5 166.9 924.5 170.1 930.7 166.2 932.4 167.5 933.4 169.3 933.4 468"/><polyline fill="none" stroke="#16a34a" stroke-linejoin="round" stroke-width="2" points="612.3 405.1 612.3 406.5 631.3 401.1 631.9 402.5 635.3 404.3 708 406.7 822.6 397.3 825 393.3 825.1 394.7 826.4 396.5 826.8 389.5 826.9 390.9 826.9 392.7 826.9 395.1 826.9 398.3 826.9 399.7 826.9 401.5 826.9 403.9 826.9 407.2 826.9 408.5 832.8 403.3 834.8 399.3 835 395.4 835.2 396.8 835.2 398.5 835.3 400.9 835.5 404.1 835.6 400.2 835.6 401.5 835.9 403.3 836.4 396.2 836.4 397.6 836.6 392.3 836.6 393.6 836.9 388.3 837.2 389.7 837.3 391.5 837.4 393.9 837.5 397.1 837.7 398.5 837.7 400.3 837.8 393.3 837.8 394.6 837.8 396.4 837.8 398.8 838 401.9 838 403.3 838 405.1 838 407.4 838 398.2 838 399.5 838 394.3 838 395.6 838 397.4 838 399.9 838 403.1 838 404.5 838.1 399.1 838.1 400.5 838.2 402.3 838.2 404.7 838.3 408 838.3 409.3 838.3 404 838.4 405.4 838.6 400 838.7 401.4 838.7 396.1 838.8 392.1 838.8 393.5 838.8 395.3 838.8 397.6 838.8 400.8 838.8 402.2 838.8 404 838.8 406.4 838.8 409.6 838.9 411 838.9 412.8 838.9 415.2 838.9 418.5 838.9 419.8 839 421.6 839.1 414.6 839.1 416 839.1 417.8 839.1 420.2 839.1 423.4 839.1 424.8 839.1 426.6 839.1 428.9 839.2 432.1 839.2 428.1 839.3 424.2 839.3 425.5 839.4 427.4 839.4 429.8 839.5 433 839.5 429.1 839.5 425.1 839.5 426.5 839.5 428.3 839.5 430.7 839.5 433.9 839.5 429.9 839.5 431.3 839.5 426 839.5 427.3 839.7 422 839.8 423.4 839.8 425.2 839.8 427.6 839.8 418.1 839.8 414.1 839.8 415.5 839.8 410.2 839.8 411.6 839.8 413.4 839.8 406.3 839.8 402.4 839.8 403.8 839.8 398.4 839.8 394.4 839.9 395.8 839.9 397.5 839.9 390.6 839.9 391.9 839.9 393.7 839.9 386.7 839.9 382.8 839.9 378.8 839.9 374.8 839.9 376.2 839.9 370.8 839.9 366.8 840 362.8 840 364.2 840 366 840 358.9 840 354.9 840 356.3 840 351 840 352.3 840 347 840 343 840 344.3 840 346.1 840 339.1 840.1 335.2 840.1 336.6 840.1 331.3 840.1 332.7 840.1 334.5 840.1 327.5 840.1 328.8 840.1 330.6 840.1 333 840.2 323.7 840.2 319.7 840.3 315.7 840.3 317.1 840.3 318.9 840.4 311.8 840.4 307.8 840.4 309.2 840.4 311 840.4 303.9 840.4 305.3 840.4 307.1 840.4 309.5 840.4 300 840.5 301.4 840.5 303.2 840.5 305.5 840.5 296.3 840.5 297.6 840.5 292.4 840.5 293.7 840.5 288.5 840.5 289.8 840.5 284.6 840.5 285.9 840.5 287.7 840.5 280.7 840.7 282.1 840.7 276.8 840.7 278.1 840.7 272.9 840.7 269 840.7 270.3 840.8 265 840.8 266.4 840.8 268.2 840.9 270.6 840.9 273.8 841 275.2 841 276.9 841 279.3 841 282.5 841 278.6 841 274.6 841 270.7 841.1 266.8 841.1 262.8 841.1 264.2 841.1 258.8 841.1 260.2 841.1 254.9 841.1 250.9 841.1 247 841.2 243 841.2 239 841.3 235.1 841.3 236.5 841.3 238.3 841.4 240.7 841.4 244 841.6 240 841.6 241.3 841.6 243.1 841.7 245.6 841.7 248.8 841.7 244.9 841.7 246.2 841.7 248 841.7 250.4 841.7 253.5 841.8 254.9 841.8 256.7 841.8 249.6 842.3 251 842.3 252.8 842.3 255.2 842.4 245.7 842.4 247.1 842.4 248.9 842.4 241.8 842.4 243.1 842.4 237.9 842.4 234 842.4 230.1 842.5 231.4 842.5 226.1 842.6 227.4 842.6 229.2 842.6 231.6 842.7 234.8 842.7 236.1 842.7 237.9 842.7 230.8 842.7 226.8 842.8 222.9 842.9 218.9 843.1 215 843.2 211 843.2 212.4 843.2 207 843.2 208.4 843.2 210.2 843.3 203.1 843.3 204.5 843.4 206.2 843.8 208.6 844.1 199.3 844.1 200.7 844.1 202.4 844.2 204.8 844.2 195.5 844.2 191.6 844.2 187.6 844.3 183.7 844.4 179.7 844.4 181 844.4 182.8 844.4 185.2 844.4 188.4 844.6 184.4 844.6 185.7 844.6 180.4 844.7 176.4 844.7 172.5 844.7 173.8 844.8 175.6 844.8 178.1 844.8 181.3 844.8 182.7 844.8 177.3 844.8 178.7 845 180.5 845 182.9 845.1 186.2 845.1 187.5 845.1 182.3 845.1 178.4 845.1 179.7 845.2 174.4 845.2 175.7 845.2 177.5 845.3 179.9 845.3 170.6 845.3 166.6 845.3 168 845.3 162.6 845.3 158.7 845.3 160 845.3 154.8 845.3 150.8 845.3 146.8 845.4 142.9 845.4 138.9 845.4 140.3 845.5 142.1 845.5 144.5 845.5 147.7 845.5 143.8 845.5 139.9 845.5 135.9 845.5 131.9 845.6 128 845.6 129.4 845.6 131.2 845.6 124.1 845.6 120.1 845.6 116.1 845.6 117.5 845.7 119.3 845.7 121.8 845.7 125 845.8 126.3 845.8 121.1 845.8 122.5 845.8 124.3 845.8 126.7 845.9 129.9 845.9 131.3 845.9 133 846 135.4 846 138.6 846 139.9 846.4 141.8 846.6 144.2 846.7 147.4 846.7 148.8 846.7 150.6 846.7 153 847 156.2 847 157.6 847 159.4 847 152.3 847 153.7 847 155.4 847 157.8 847.1 161 847.2 157 847.2 158.3 847.2 160.1 847.2 162.5 847.3 165.6 847.7 161.6 847.9 163 848.9 164.8 848.9 167.1 848.9 157.8 849.2 159.2 849.2 161 849.3 163.3 849.5 166.5 849.5 167.9 849.8 162.5 849.8 163.9 850.2 165.7 850.2 168.1 850.3 171.4 850.3 172.7 850.3 174.5 850.9 167.5 851.1 168.9 851.1 163.6 851.5 159.7 852 161.1 852 162.8 852 165.2 852.4 155.9 852.5 157.3 852.5 159 852.5 161.4 852.5 164.6 852.7 165.9 852.8 167.7 852.8 170.1 852.8 173.2 852.8 169.2 852.8 170.6 852.9 172.4 852.9 174.7 853 177.9 853 179.2 853 181 853 183.4 853.1 174.1 853.2 175.5 853.2 170.1 853.3 166.1 853.8 162.1 853.8 163.5 853.9 165.3 854 167.7 854 171 854 167 854 168.3 854 170.1 854.2 172.5 854.2 175.6 854.2 171.6 854.2 173 854.2 174.8 854.3 177.1 854.3 180.3 854.3 176.3 854.3 172.4 854.7 173.7 854.7 175.6 854.7 178 854.7 181.2 855 177.3 855.1 178.7 855.1 180.5 855.6 173.4 855.6 169.4 855.6 170.7 856.3 165.4 856.3 166.7 856.3 168.5 856.3 170.9 856.3 174.1 856.3 175.4 856.3 177.2 856.4 179.7 856.9 182.9 856.9 184.3 857.3 186.1 857.3 188.5 858 191.7 858.1 193.1 858.1 194.9 858.1 197.3 858.1 200.6 858.2 201.9 858.7 196.6 859.8 197.9 859.9 192.7 859.9 194 859.9 195.8 862.3 188.9 863.6 190.2 863.7 192 864.6 194.5 866 185 866.1 186.3 866.3 188.2 869.3 181 877.3 177.1 878.1 173.1 891.1 169.1 896.2 170.5 913.4 165.2 913.8 161.2 913.8 162.6 920.5 164.4 922.5 166.9 924.5 170.1 930.7 166.2 932.4 167.5 933.4 169.3"/><line x1="88" x2="110" y1="102" y2="102" stroke="#16a34a" stroke-width="2.5"/><text x="116" y="106" fill="#374151" font-size="11.5">equity</text><line x1="88" x2="110" y1="118" y2="118" stroke="#d97706" stroke-width="2.5" opacity=".8"/><text x="116" y="122" fill="#374151" font-size="11.5">price</text><text x="78" y="502" fill="#6b7280" font-size="12" text-anchor="start">2025-10-10</text><text x="934" y="502" fill="#6b7280" font-size="12" text-anchor="end">2025-10-10</text></svg>