<svg xmlns="http://www.w3.org/2000/svg" width="1000" height="520" font-family="ui-sans-serif, system-ui, sans-serif" viewBox="0 0 1000 520"><rect width="1000" height="520" fill="#fff"/><text x="78" y="28" fill="#111827" font-size="18" font-weight="700">Zone Recovery — TRXUSDT best setting (equity / PnL)</text><text x="78" y="48" fill="#6b7280" font-size="12.5">lev 10 · ratio 3 · gap 20% · maxSteps 4 · maxDD 20% · random · vip 9 · 3 series, 100.0% win · vol $13346483 ($430532/day) · fees $2042</text><text x="78" y="68" fill="#1d4ed8" font-size="12.5" font-weight="600">USDT · BNB −10% · taker 0.0153%</text><text x="934" y="28" fill="#16a34a" font-size="18" font-weight="700" text-anchor="end">+162783 USDT (+0.16%)</text><line x1="78" x2="934" y1="468" y2="468" stroke="#e5e7eb" stroke-width="1"/><text x="68" y="472" fill="#6b7280" font-size="12" text-anchor="end">0.00</text><line x1="78" x2="934" y1="392" y2="392" stroke="#e5e7eb" stroke-width="1"/><text x="68" y="396" fill="#6b7280" font-size="12" text-anchor="end">21647862</text><line x1="78" x2="934" y1="316" y2="316" stroke="#e5e7eb" stroke-width="1"/><text x="68" y="320" fill="#6b7280" font-size="12" text-anchor="end">43295723</text><line x1="78" x2="934" y1="240" y2="240" stroke="#e5e7eb" stroke-width="1"/><text x="68" y="244" fill="#6b7280" font-size="12" text-anchor="end">64943585</text><line x1="78" x2="934" y1="164" y2="164" stroke="#e5e7eb" stroke-width="1"/><text x="68" y="168" fill="#6b7280" font-size="12" text-anchor="end">86591447</text><line x1="78" x2="934" y1="88" y2="88" stroke="#e5e7eb" stroke-width="1"/><text x="68" y="92" fill="#6b7280" font-size="12" text-anchor="end">108239308</text><line x1="78" x2="934" y1="116.9" y2="116.9" stroke="#9ca3af" stroke-dasharray="6 4" stroke-width="1.5"/><text x="934" y="110.9" fill="#6b7280" font-size="11" text-anchor="end">start 100000000</text><polyline fill="none" stroke="#d97706" stroke-linejoin="round" stroke-width="1.2" points="78 424.5 78.3 426.8 78.9 427.8 79.3 429.7 79.8 428.3 80.3 426.8 80.9 427.2 81.5 429.5 82 427.8 82.6 430.8 82.9 431.3 83.4 432.1 83.8 429 84.1 430.8 84.9 431 85.4 426.3 85.9 423.4 86.2 420.9 86.6 416.4 87 415.7 87.3 422 87.7 420.9 88.3 418.4 88.5 417.4 88.9 418.9 89.5 420.2 90 419.8 90.3 417.8 90.6 417.6 90.8 416.3 91.1 415.3 91.5 414 91.7 421.5 91.9 422.6 92.2 425.5 92.5 424.9 93 423.8 93.7 424.9 94.1 425.3 94.5 426.9 94.9 429.5 95.3 429.5 95.4 428.6 95.8 426.4 96.3 424.3 96.7 420.6 97.2 421.8 97.7 421.1 98.1 418 98.5 420.9 99.1 418.1 99.6 416.9 100.2 416.9 101 418.1 101.4 416.9 101.8 421.1 102.6 420.2 103.5 414.1 104 410.4 104.5 410.1 105 408.3 105.6 404.3 105.8 405.1 106.4 403.8 106.9 409.6 107.7 408.2 108.3 408.8 109 409.5 109.7 409.1 110 409.3 110.6 413 111.3 414.7 111.9 415.7 112.6 414.8 113.3 412.9 113.8 411.2 114.3 412.5 114.6 414.6 114.9 415.8 115.3 417.2 115.8 416.8 116.1 422.9 116.5 424.8 116.9 424.2 117.2 421 117.6 419.2 117.9 423.6 118.4 422.1 119 421.1 119.5 420.6 120.1 420.1 120.6 420.1 121.1 420.3 121.6 417.5 122.1 418 122.5 417.3 122.8 412.9 123.1 414.8 123.6 414.4 123.9 412.1 124.1 413.9 124.5 410.2 124.8 408.4 125.2 407.2 125.4 404.4 125.7 402.9 126.1 404.8 126.5 401.5 126.9 403.5 127.4 406.1 127.8 402.9 128.4 404.6 129 402.9 129.7 402.2 130.1 401.4 130.6 398.1 130.9 396.2 131.2 392.9 131.5 397.5 132.1 395.2 132.5 389.5 132.9 388.7 133.3 385 133.5 385.6 133.9 385.6 134.1 383.4 134.3 382.3 134.4 386.4 134.7 387.5 135 387.4 135.4 385.7 135.7 384.4 136 384.8 136.4 385.1 136.9 384.4 137.6 388.8 137.9 388.1 138.3 389.2 138.7 392.4 139.2 391.5 139.9 393 140.2 389 140.8 387.8 141.2 385.9 141.6 389 141.8 393.7 142.3 393.5 142.6 390.9 143.1 388.9 143.4 390.5 143.8 389.6 144.3 391.9 144.8 393 145.3 392.8 145.8 389.5 146.2 389.5 146.7 388.4 147.1 388.2 147.5 387.7 148 386.7 148.3 382.7 148.4 373 148.6 371.6 148.8 371.2 149.1 372.8 149.4 371.6 149.7 371.9 150.1 367.4 150.4 366.3 150.7 370.7 151 367.6 151.1 367.7 151.3 366.7 151.6 363.9 151.8 362.1 152.1 359.4 152.4 361 152.8 357.7 153.1 359.3 153.5 355.9 154 352.8 154.3 352.1 154.7 350.8 155.1 349 155.4 349.5 155.9 346.9 156.3 345.9 156.6 345.5 157 344 157.4 342.3 157.7 341.3 158.1 340.3 158.5 338.9 158.8 339.3 159.2 337.5 159.6 334.2 159.9 334.1 160.3 331.5 160.7 330.7 160.9 327.6 161.1 332 161.2 334.4 161.5 331.5 161.7 331.9 162 331.3 162.2 332.7 162.5 330.4 162.9 329.6 163.2 329.6 163.5 330.3 163.8 333.7 164.2 332.5 164.4 329.7 164.8 333.1 165.2 333.9 165.5 335.3 165.7 334.6 166.1 338.9 166.5 339.3 166.9 336.7 167.4 336.9 167.8 343.3 168.1 344.5 168.6 343.9 169 343.1 169.3 342.7 169.5 341.5 169.7 341.3 170 339.9 170.2 339 170.4 338.8 170.7 345.8 171 342.8 171.4 341 171.8 344.7 172.3 345.1 172.7 345.5 173.2 347.4 173.6 347.1 174.1 344 174.7 345.4 175.1 342.2 175.5 344.2 175.9 341.7 176.2 344.7 176.6 340.5 176.9 341.1 177.2 341.8 177.5 346.1 177.8 346.2 178.1 338.1 178.3 336.4 178.5 338.8 178.8 338.7 179.1 338.9 179.4 338.1 179.5 340.2 179.9 343 180.4 341 180.9 339.3 181.4 337.1 181.8 338.8 182.3 336.5 182.8 340.3 183.2 341.9 183.7 340.8 184.2 343.3 184.6 341.5 185 347.3 185.5 348 186.1 346.3 186.5 345.5 187.1 344.5 187.7 346 188.4 343.5 188.8 345.6 189.1 343.9 189.4 340.2 189.7 338.5 190.1 337.4 190.4 336.5 190.7 338.3 191 339 191.3 343.2 191.7 340.9 192 341.3 192.4 338.7 192.7 338.1 193 337.1 193.4 337.1 193.7 337.6 194 334.8 194.2 334.4 194.6 333.8 194.9 333.5 195.2 339.5 195.6 338.8 195.9 342.2 196.3 340.1 196.6 334.8 196.9 330.9 197.1 329 197.2 338 197.6 336.7 198 337.6 198.3 339.7 198.6 344.5 198.7 349.5 198.8 351.8 199 355.4 199.2 358.5 199.4 359.1 199.7 359.7 200 359.6 200.2 360.3 200.4 361.5 200.6 361.2 201 357.8 201.2 358.5 201.5 359.5 201.9 357.6 202.3 357.6 202.5 359.6 202.9 359.3 203.3 358.6 203.7 358.5 204.1 357.2 204.5 356.3 204.9 358.1 205.3 359 205.7 354.9 205.8 358.3 206 358.8 206.2 358.4 206.6 357.5 206.9 352.8 207.1 354.6 207.5 356.3 207.8 355 208.2 356.4 208.6 360.8 209 359.3 209.3 361.8 209.7 360.7 210.1 358.7 210.4 358.2 210.8 359.7 211.2 361.4 211.6 357.4 212 355.2 212.4 354.8 212.8 355.9 213.3 357 213.8 356.5 214.2 358.1 214.6 355.7 215 358.7 215.5 359.2 216.1 360.6 216.3 361.5 216.6 355 216.9 359.7 217.2 357.8 217.4 355.7 217.7 353 218 353 218.4 354 218.7 353.6 219 355.1 219.6 352.4 220.1 352.5 220.5 351.1 220.8 351.6 221.3 349.6 221.7 355.3 222.1 354.3 222.6 352.9 223.1 353.5 223.5 350.7 224 351.1 224.4 350.2 224.7 354.3 225.2 350.9 225.4 350.2 225.9 352.3 226.4 356.7 226.6 360.7 227.1 362.6 227.3 366.7 227.6 367.3 227.8 367.3 228.2 364.5 228.6 367.4 228.9 364.1 229.3 362.2 229.8 364.4 230.1 362.5 230.4 362.7 230.8 360.9 231.1 363.3 231.5 361 231.9 359.6 232.3 362.4 232.5 355.9 232.7 352.4 233 356.5 233.2 357.2 233.4 358.7 233.6 358.9 233.9 354.7 234.2 360.3 234.5 359.6 234.8 360.4 235 362.6 235.3 361.6 235.7 359.6 236.1 356.7 236.6 362.2 236.8 366.7 236.9 363.8 237.3 361.6 237.8 361.4 238.3 359.3 238.9 360.9 239.4 360.7 239.9 357.6 240.3 355.7 240.7 351.5 241.1 349.6 241.5 349.1 242 349.6 242.4 348 242.6 345.4 243.1 342.8 243.5 343.2 243.8 342.1 244 338.8 244.2 335.6 244.4 336.2 244.7 338.9 244.9 340.8 245.1 340.7 245.4 339.9 245.6 341.1 245.9 343.6 246.2 343.2 246.5 339.9 246.7 339.2 246.9 338.2 247 337.9 247.2 336 247.3 335.5 247.5 335.8 247.7 339.8 247.9 338.2 248.1 338.4 248.2 338.4 248.4 337.4 248.6 337.1 248.8 336.8 248.9 334.7 249.1 336.4 249.3 336.2 249.5 334.7 249.6 334.3 249.8 333.1 250 333.1 250.3 335.7 250.6 334.7 250.9 334.1 251.3 335.8 251.7 336.5 252.1 339.8 252.5 336.8 252.9 335.5 253.2 337.4 253.6 337.8 253.9 335.9 254.2 334.3 254.5 331.9 254.7 332.7 255 336.1 255.3 335.6 255.5 328 255.7 334.2 256 335.6 256.3 337.5 256.6 334.7 257 333.6 257.4 331.9 257.6 333.8 258.1 331.9 258.3 331.3 258.5 325.4 258.7 324.8 258.9 327.5 259.1 325.3 259.3 322.1 259.6 321.6 259.7 319.9 259.8 322.5 259.9 323.2 260.1 328.1 260.3 327.9 260.5 324 260.7 323.6 260.8 320.7 261 325.7 261.1 322.3 261.2 322 261.4 327.2 261.6 326.8 261.8 322.5 262 323.6 262.2 321.2 262.4 318.7 262.6 318.7 262.7 310.2 262.8 309.6 262.9 306.5 262.9 307.5 263 308.7 263.1 308.3 263.3 309.9 263.5 308.3 263.8 307.2 264.1 305.6 264.3 307.7 264.6 309.4 264.9 306.7 265.2 303.3 265.5 304.9 265.7 313.4 265.8 316.2 266 318.4 266.2 321.1 266.4 320.1 266.6 315.3 266.9 313.7 267.1 314.2 267.4 310.8 267.5 310.2 267.8 308.9 268.1 309.6 268.5 305.7 268.7 306.8 269 304.8 269.2 307.4 269.6 309.1 270 308.5 270.3 311 270.5 308.9 271 308 271.2 308 271.4 306.8 271.6 306.4 271.8 311.9 272 314.2 272.3 317.3 272.5 314.7 272.6 309.9 272.9 307.9 273.1 307 273.4 304.8 273.6 304.9 273.8 308.1 274.1 311.9 274.4 315 274.7 311.7 275 308.9 275.3 304.8 275.6 306.8 275.8 307.1 276 307.6 276.4 305.6 276.8 308.7 277.2 303.8 277.8 308.5 278.2 307.4 278.5 314.7 278.8 320 279.2 319.5 279.4 323.2 279.5 328 279.6 323 280 321.3 280.3 323.1 280.6 322.2 280.7 333.9 280.9 333.1 281.1 333.6 281.3 333.3 281.5 333.2 281.6 333.5 281.8 329.4 282.2 332 282.5 328.8 282.8 330.8 283.1 331.8 283.4 323.5 283.8 324 284.1 323.7 284.5 324.5 285 322.2 285.3 327.3 285.8 326.3 286.3 325.5 286.5 321.6 286.7 327.2 287 327.5 287.4 322.3 287.6 323.3 288 325.6 288.2 329 288.4 329.9 288.4 331.7 288.6 333.1 288.7 328.1 289 329.1 289.2 328.5 289.5 327.5 289.8 331 290 332.6 290.4 333.8 290.7 336.6 290.9 336.6 291.4 337.9 291.9 335.8 292.2 339.1 292.7 338.8 293.3 336.8 294.1 336.2 294.6 337 295.1 333.1 295.6 331.9 296.2 330.3 296.7 331.8 297.2 334.5 297.7 333 298.2 335.2 298.8 336.6 299.1 335.3 299.6 336.6 299.9 333 300.2 333.4 300.5 336.4 300.8 338.6 301.1 339.5 301.3 338.5 301.7 340.5 302.2 340.8 302.6 342.4 302.9 344.3 303.3 343.7 303.5 344.8 303.6 347.5 304 347.7 304.5 348.6 304.8 347.9 305.3 347.3 305.9 344.5 306.3 341 306.8 342.9 307.1 341.5 307.6 346.4 308.1 349.7 308.4 349 308.8 350.8 309.2 354.9 309.4 353.6 309.9 355.3 310.3 356.5 310.6 352.6 310.9 350.8 311.3 348.5 311.5 353.2 311.9 349.8 312.3 349.6 312.8 351.9 313.3 348.1 313.8 345 314.1 343 314.5 339.5 314.8 335.1 315.1 337.7 315.5 333.9 315.7 329.3 316.1 330.8 316.3 329.1 316.5 328.8 316.7 321.7 316.8 323.4 317.1 322 317.3 321.4 317.4 317.5 317.6 316.6 317.9 319.2 318.1 316.6 318.4 314.2 318.6 315.4 318.9 318.2 319.3 315.4 319.7 313.4 319.9 312.7 320.1 314.8 320.4 313 320.6 310.7 320.8 310.7 321.1 308.5 321.4 308.5 321.8 307.6 322 305.8 322.3 305.6 322.5 301.2 322.8 302 323.1 301.1 323.3 301.2 323.6 297.1 323.9 298.9 324.1 305.1 324.3 304.3 324.5 313 324.7 313.4 324.9 314.1 325.2 311.9 325.4 312.1 325.6 310.8 326 308.2 326.4 306.8 326.5 304.5 326.6 309.7 326.8 309.7 327.1 310.9 327.4 307.4 327.7 307.4 328.1 305.7 328.5 303.6 328.9 303.1 329.3 303.6 329.7 304.8 330 307.4 330.3 307.7 330.8 306.2 331.1 308.4 331.3 311.4 331.5 315 332 312.6 332.4 310.5 332.8 307.8 333.2 307.3 333.4 307.4 333.8 307 334.2 305 334.5 301.8 334.8 303 335 306.9 335.4 307.8 335.7 310.2 336 310.9 336.4 308 336.6 309.7 336.9 308.3 337.2 306 337.5 313.3 337.8 311 338 309.7 338.3 312.5 338.6 309 339 309.8 339.3 307.4 339.8 308.5 340.2 305.2 340.5 303.8 341 305.4 341.5 308.6 341.6 311 342 311.1 342.4 308.5 342.8 307.7 343.2 304.9 343.6 302.3 343.8 303.6 344.2 302.4 344.5 297.2 344.8 300.5 345.1 298 345.5 300 345.8 298.1 346.2 298.7 346.6 298 347.1 297.9 347.4 295.8 347.7 292.8 348.1 293.9 348.4 300 348.7 299.1 349.1 298.5 349.5 297.8 349.7 294.4 350 294.3 350.4 293.1 350.7 289.8 350.9 287.7 351.3 285.1 351.6 285.9 351.8 291.4 352.1 290.1 352.4 285.8 352.9 282.9 353.1 280.4 353.2 280 353.6 275.9 354 273.1 354.1 274.6 354.2 268.6 354.5 265.1 354.7 268.4 355 268.3 355.1 275.8 355.3 266 355.6 270.1 355.9 265 356.1 269.1 356.5 269.9 356.8 274.6 357 287.9 357.2 284.1 357.3 295.4 357.4 294.8 357.6 294.6 357.7 297.5 357.9 298.4 358.1 297.7 358.3 295.9 358.7 294.2 358.8 296.7 359.1 292.9 359.6 293.3 359.9 285.1 360.1 287.1 360.5 291.4 360.7 290.3 360.9 290 361.2 288.3 361.6 283.9 362 294.8 362.3 293.5 362.7 295.2 362.9 303.3 363.3 301.3 363.6 304 363.9 304.5 364.4 302.7 364.7 302.1 365.1 298.2 365.7 300 365.9 299.9 366.2 299.9 366.5 296.5 366.8 302.8 367.4 301.8 367.8 297.2 368.3 300.3 368.9 301.5 369.3 304.8 369.8 302.7 370.2 294.6 370.6 293 371.1 292.7 371.6 294 372.1 296.2 372.5 299.4 372.8 300 373 293.5 373.3 294 373.7 293.4 374.2 291.2 374.6 284 375 279.8 375.4 275.8 375.6 272.5 375.8 268.9 376 264.1 376.1 264.1 376.3 269.1 376.5 276.6 376.9 272.5 377.2 273.2 377.3 276.7 377.5 281.6 377.6 290 377.7 292.2 377.9 291.9 378.1 294.3 378.3 297.6 378.5 300.5 379 294.7 379.5 294.6 379.9 294.3 380.5 296.3 380.8 294.9 381.4 296.8 381.8 299.2 382.2 301.5 382.4 301.7 382.8 302.2 383 300.8 383.4 300.7 383.8 303.8 384.1 302.4 384.5 303.2 385 296.5 385.3 299.9 385.7 298.3 385.9 297.6 386.3 296.5 386.5 302.1 386.7 300.9 387 300.5 387.5 303.1 387.8 303 388.6 302.6 388.9 310.4 389.3 311.4 389.8 311.1 390.2 313.1 390.5 316.4 391 315.4 391.2 312.4 391.6 309.3 391.9 309.9 392.2 306 392.8 307.6 393.3 308.5 393.7 309.1 394 313.2 394.5 313.1 395 312.4 395.5 314.3 396 312 396.4 312 397 313.4 397.6 313.5 398.1 311.6 398.4 311.7 398.8 310.8 399.1 313.9 399.4 308.5 399.7 308.7 400.1 304.5 400.3 300.9 400.5 298.4 400.8 299.2 401.3 298.7 401.7 301.6 402 305.8 402.5 306.6 402.9 304.5 403.3 301.1 403.7 299.6 404.2 297.5 404.8 295.3 405.2 295.3 405.8 295.2 406.2 294 406.8 293.5 407.2 288.9 407.6 292.9 408.2 293.8 408.8 293.2 409.4 293.7 409.7 294.3 410.1 295.7 410.4 289.6 410.6 288.7 411 292.6 411.3 294.3 411.5 297.7 411.8 300.5 412.2 302.7 412.7 302 413.1 298.4 413.5 292.2 413.7 293.1 414 292.7 414.4 296.3 415 298.5 415.4 301.1 415.9 301.8 416.2 306.5 416.5 304.2 416.8 301.6 417.3 299.6 417.8 295.6 418.1 296.6 418.6 299 419 298.3 419.5 300 419.8 301.8 420.2 299.5 420.7 300 421.1 300.8 421.5 301.7 421.8 303.7 422.2 304.5 422.6 303.4 423.1 305.1 423.3 305.8 423.7 302.3 424.3 302.7 424.8 301.4 425 298.4 425.4 300.4 425.7 298.9 426.2 300 426.5 297.6 426.7 289.9 426.8 281.4 426.9 280.1 427.1 269.8 427.2 272 427.3 282.1 427.4 280 427.7 279.7 427.9 281.4 428.1 283.4 428.4 282.8 428.6 276.3 428.8 275 429 271.5 429.2 274.6 429.4 274.8 429.7 272.2 430 277.1 430.2 272.8 430.4 273.6 430.6 270.3 430.9 266.6 431.1 264.5 431.2 255.6 431.3 260.2 431.5 254.7 431.8 255.5 432 258.9 432.3 254.4 432.4 245.7 432.6 243.8 432.8 243.7 433 245.4 433.2 240.6 433.3 241.4 433.5 239.6 433.7 238.2 434 244.6 434.1 253.8 434.3 255.4 434.5 254.7 434.6 250.5 434.8 250.3 434.9 243.9 434.9 239.7 435 243.1 435.1 248.9 435.2 248 435.4 246.1 435.7 248.6 435.9 248 436.1 246.9 436.3 239.4 436.4 233.6 436.6 232.6 436.8 231.3 436.9 230 437 230.1 437.1 233 437.3 234.9 437.5 232.1 437.8 233.5 438 243.3 438.1 244.6 438.2 247.4 438.4 248.1 438.6 250.8 438.8 252.1 439 254.3 439.3 253.2 439.5 256.1 439.8 257 440.2 255.4 440.5 253.4 440.9 257.4 441.4 257.2 441.7 251 442 252.9 442.4 253.3 442.8 252.9 443.2 259.5 443.6 263.3 443.9 264.9 444 270.9 444.3 269.7 444.5 268.2 445 262 445.3 257.2 445.7 253.8 446 261.2 446.2 267.7 446.3 267.4 446.5 271.7 446.6 274.3 446.8 273.4 447.2 273.3 447.4 278.6 447.6 272.7 447.9 270 448.2 276 448.4 270.3 448.8 272.3 449 271.7 449.3 268.4 449.6 277.5 449.9 273.7 450.1 274.9 450.3 281.7 450.5 280.5 450.7 280.5 450.9 280 451.2 276.4 451.6 272.9 451.8 272.7 452 273.2 452.3 273.2 452.7 273 453.1 269.2 453.3 263.7 453.5 260.2 453.7 265.7 453.9 261.6 454.1 256.6 454.2 264 454.3 272.3 454.3 270.9 454.5 270 454.5 273.5 454.8 268.6 455 272.8 455.2 269.6 455.5 268.1 455.7 265.3 456 261.4 456.2 258.3 456.4 261.2 456.6 257.2 456.8 256.6 457.1 262.8 457.3 264 457.7 264.7 458 269.5 458.3 266.6 458.4 277.3 458.6 279.6 458.9 280 459.1 276.3 459.4 274.2 459.6 270.1 460 268.1 460.1 266.6 460.3 266.5 460.8 268.6 461.2 266.4 461.6 265.1 462 263.9 462.2 263.6 462.3 262.5 462.6 267.7 462.8 269.1 463.1 268.9 463.5 259.6 463.6 258 463.9 259.6 464.3 253.8 464.6 253.4 464.7 258.7 464.9 261.2 465.3 259.7 465.6 259.7 465.9 260.1 466.1 256.6 466.4 261.4 466.7 259.5 466.9 257.7 467.1 252.5 467.3 250.9 467.5 249.3 467.7 247.6 467.9 247 468.1 244.6 468.3 245.3 468.6 252.5 468.7 250.6 468.9 251.9 469.1 253.4 469.2 249.9 469.3 250.7 469.5 251 469.8 249.3 470 243.1 470.2 241.1 470.4 239.9 470.5 237.7 470.5 249.3 470.8 247.5 471 251.3 471.3 250.2 471.5 243.7 471.7 239.1 471.9 239.5 472.2 241.7 472.5 248.8 472.7 245.4 473 243.9 473.3 244.4 473.5 245.6 473.7 246.4 473.8 242.3 474 239 474.1 238.4 474.3 235.8 474.4 234.4 474.6 236 474.7 236.4 474.8 233.8 474.9 235.5 475 238.8 475.1 252.2 475.2 258.9 475.2 267.4 475.3 271.4 475.4 270.4 475.5 269.3 475.6 270.9 475.6 271.2 475.7 263.8 475.8 254.9 475.9 255.1 476 249.7 476.1 252.6 476.2 252.3 476.3 250.8 476.4 248.5 476.7 250 476.8 251 477 254.5 477.1 256.2 477.3 253.6 477.4 253.8 477.6 251.6 477.9 248.1 478.2 245.3 478.4 248.2 478.6 246.2 478.9 245.1 479.2 245.3 479.5 239 479.6 230.4 479.7 232.6 479.9 232.9 480 227.7 480.2 226.4 480.4 220.7 480.5 220 480.6 227.5 480.8 220.8 481 226.1 481.3 233 481.4 232.7 481.6 234.6 481.8 227 481.9 232.2 482 229 482.2 225.6 482.4 227.8 482.6 224.5 482.7 231.6 482.8 234.8 483 222.5 483.1 225.4 483.2 217.8 483.4 216.4 483.6 214.5 483.8 220.3 484.1 214.1 484.2 207.9 484.4 214.8 484.7 212.1 485 211.3 485.3 216.6 485.5 220.7 485.7 219.4 486.1 220.8 486.4 214.3 486.6 216.3 486.9 215 487.1 220.1 487.4 208.4 487.7 211.4 487.9 208.6 488.1 204.7 488.4 205.7 488.7 201.4 488.9 200.7 489.2 199.7 489.4 196.4 489.6 199.4 489.9 191.8 490.1 191 490.3 191.8 490.5 186.9 491 189.3 491.2 193.8 491.5 194.5 491.8 196.2 492.1 189.8 492.3 189.1 492.4 192.5 492.7 193.8 492.9 193.4 493.1 193.8 493.4 196.7 493.8 198 494.3 199.1 494.6 196.7 495 197.7 495.4 198.8 495.7 192.3 496.1 191.4 496.5 188.3 496.8 194.3 497 199 497.3 203 497.5 205.8 497.7 207.4 497.8 210.1 498 210.4 498.1 212.5 498.2 214.9 498.4 211.9 498.7 210.4 498.9 210.5 499.2 205 499.5 209 499.8 208.1 500.3 213.4 500.5 219.3 500.8 219.7 501.2 219.6 501.5 221 501.7 223.2 502 223.8 502.2 223.7 502.6 229.6 502.7 235.8 502.9 233 503.3 229.1 503.7 228.3 503.9 230.8 504.1 229.9 504.4 228.9 504.7 226.1 504.9 230.8 505.2 231.1 505.5 234.1 505.8 223.5 506.1 220.1 506.4 218.1 506.6 215.8 507 217.5 507.2 219.8 507.4 228.7 507.7 229.1 508 228.6 508.3 226.7 508.7 227.7 508.9 230.2 509.3 230.7 509.5 235.5 509.6 234.7 509.9 236.3 510.1 241.7 510.3 243.6 510.5 242.9 510.6 245.8 510.8 246.8 511.1 241.1 511.3 241.1 511.7 236 511.9 228.2 512.1 225.8 512.5 227.4 512.9 227.5 513.4 222.8 513.8 224.1 514 231 514.2 228.6 514.5 224.7 514.8 221.9 515.2 219.7 515.3 218.4 515.5 213.5 515.8 215.6 516 210 516.3 204.5 516.5 204.4 516.8 205.4 517.1 203.3 517.4 203.3 517.7 202.4 518.2 199.5 518.6 199.1 518.9 199.8 519.1 203.7 519.3 209.6 519.6 213.7 519.8 212 519.9 214.2 520.1 215.9 520.4 210.8 520.9 209.8 521.3 206.7 521.6 205.7 522.1 209 522.5 210.6 523.1 207.8 523.3 203.8 523.8 204.7 524.2 204.4 524.6 205.2 524.9 195.8 525.2 194.9 525.5 191.9 525.8 191.2 526.3 195.3 526.7 195.9 527.1 193.3 527.4 191.2 527.7 195.6 528 193.3 528.3 196.7 528.6 197.1 528.9 195.1 529.1 192.5 529.3 195.3 529.5 203.7 529.7 207.6 529.9 212.5 530.2 212.5 530.4 209.1 530.6 208.2 531 205.8 531.2 197.6 531.3 198.6 531.4 198 531.7 193.9 532 189.4 532.3 189.6 532.5 190.4 532.7 191.1 532.9 184 533.1 180.8 533.4 182.6 533.6 184.5 533.8 179.9 534 184.3 534.2 190.8 534.4 186.4 534.6 187 534.8 185.9 535 186.1 535.3 183.6 535.6 182 535.7 178.4 535.9 176.6 536 175.3 536.2 170.5 536.3 168.7 536.4 174.2 536.7 174.6 536.9 172.6 537.2 169.8 537.3 169.3 537.6 166.3 537.9 163 538 170.3 538.2 167.6 538.4 163.8 538.5 160.9 538.6 167.2 538.9 164.9 539.2 167.5 539.4 163 539.7 167 540.1 162.1 540.4 159.3 540.7 157.5 540.9 157.9 541.1 152.2 541.2 157.1 541.5 157.3 541.8 159 542.2 155.8 542.6 154.5 542.9 153.3 543.1 149.7 543.2 144.3 543.4 147.7 543.6 148.5 544 141.5 544.2 139.5 544.4 134.6 544.7 136 545 135.1 545.3 134 545.6 131 545.9 134 546.2 135.4 546.5 134.4 546.9 127.7 547.2 134.3 547.5 130.2 547.6 140 547.7 136.8 547.9 138.4 548.1 143.6 548.2 145 548.4 144.3 548.6 144.6 548.8 146.6 549.1 141.4 549.4 141.6 549.7 138.5 549.9 136 550.1 130.2 550.3 127.8 550.4 135.6 550.8 135.5 551.1 132.8 551.3 128.8 551.5 121.5 551.7 122.8 552.1 119.9 552.2 124.8 552.4 127.6 552.7 129 553 128.2 553.3 124.7 553.6 117.2 553.8 121.2 554 117.1 554.2 114.8 554.4 117.8 554.8 123.3 554.9 126.2 555.3 127.4 555.5 124.3 556 123.6 556.3 128.9 556.5 137 556.6 138.3 556.7 148.5 556.8 152.7 556.9 149.7 557.1 147.9 557.2 158.4 557.3 160.7 557.4 160 557.5 161.7 557.7 159.4 557.8 160.7 557.9 160.5 558 158.6 558.2 156.4 558.5 153.9 558.9 149.5 559.1 149.5 559.3 150 559.6 147.1 559.9 145.4 560.2 146.5 560.4 138.8 560.6 147.4 560.9 143 561.1 147.1 561.3 153.2 561.4 157.5 561.6 156.5 561.8 160.6 562.2 159.4 562.5 157.4 562.8 162 563.1 155.7 563.3 150.7 563.6 148.2 563.9 146.7 564.1 146.2 564.4 139.9 564.6 135.8 564.8 133.9 564.9 132.1 565.1 132.2 565.3 127.1 565.4 125.1 565.6 126.2 565.8 125.6 565.9 131.6 566 124.6 566.2 128.2 566.5 131.3 566.7 135.1 567 132.8 567.3 134.7 567.6 133.8 568 135.1 568.3 131.1 568.5 125.2 568.7 122.3 568.9 125.9 569.3 123.6 569.6 125.7 569.9 129.9 570.2 131.1 570.6 129.9 571 127.1 571.3 120.2 571.5 117.8 571.8 124.2 572.2 122.5 572.6 122.9 572.8 124.4 573.1 124 573.5 119.6 573.8 123 574 122.9 574.3 119.1 574.5 125.7 574.7 136.3 574.8 139.6 574.9 140.8 575 144.8 575.1 157.8 575.1 163.4 575.1 166.5 575.1 159.9 575.2 159.1 575.2 157.3 575.3 160.8 575.4 165.1 575.4 164.4 575.5 164.8 575.5 161.3 575.6 162.2 575.7 159.6 575.8 158.1 575.9 152.4 575.9 153 576 155.1 576.1 156.3 576.2 160.7 576.3 158.8 576.4 155 576.5 148 576.7 144.6 576.8 142.4 577 140.7 577.2 143.7 577.3 144.9 577.5 143.9 577.7 143.7 578.1 144.2 578.3 143.8 578.6 143.1 578.8 134.5 579 137.9 579.3 139.1 579.6 133.3 579.7 128.2 579.8 125.5 579.9 125.3 580.1 122.1 580.2 118.9 580.3 119.3 580.5 118 580.6 123.4 580.7 124.8 580.8 128.9 581 126.9 581.1 128.1 581.4 125.2 581.6 125.4 581.8 124.2 582 120.6 582.2 124.8 582.4 130 582.5 141.1 582.6 138.2 582.8 142.4 583 143.5 583.2 139.3 583.3 140.7 583.5 142.5 583.7 151.8 583.8 149.1 584.2 148.2 584.4 146.5 584.6 153.9 584.9 151 585 153.3 585.2 153.9 585.4 157 585.5 161.7 585.7 162.4 585.9 168.2 585.9 175 586.1 173.3 586.4 170.6 586.6 169.9 586.8 169.2 587 162.8 587.3 157.3 587.6 157 587.8 162.4 588.1 162.9 588.4 159.8 588.7 162.5 588.8 161.8 589 163.7 589.2 167.1 589.4 167.4 589.6 169.6 589.9 167 590.2 168.4 590.4 168 590.6 163.2 590.9 168.3 591.2 176.7 591.3 181.7 591.4 183.4 591.5 188.3 591.7 190 591.8 193.7 591.9 191.8 592.2 191.8 592.3 188.3 592.3 196.1 592.4 196.3 592.5 201.3 592.6 204.7 592.6 216.9 592.7 220.8 592.7 218.3 592.8 213.8 593 203.3 593.2 202.3 593.4 204.1 593.5 208.2 593.6 208.6 593.8 202.4 594 210 594.2 208.1 594.4 206.6 594.6 207.8 594.7 212.2 594.8 212.7 595 216.6 595.1 220.7 595.3 222.1 595.6 222.9 595.8 219.2 596 221 596.4 217.5 596.5 220.3 596.9 214.3 597.1 214.7 597.4 213 597.7 216.1 598 214 598.3 213.6 598.6 212.2 598.8 205.5 599.2 202.8 599.4 205.8 599.8 202.7 600 194.6 600.3 193.3 600.5 198.8 600.7 196.7 601.1 196.1 601.4 193.4 601.6 195.7 601.9 192.8 602.2 188.8 602.7 191.5 602.9 198 603.2 196.1 603.5 200.6 603.8 206.8 604.2 197.9 604.7 197.4 605 202.2 605.4 202.6 605.8 203.1 606.3 203.6 606.8 204.7 607.3 204.1 607.6 199.8 608.1 196.7 608.4 190.4 608.6 184.7 608.8 181.3 609 174.1 609.4 174.4 609.6 183.2 609.9 184 610.1 185 610.5 185.2 610.8 190 610.9 200.5 611 212.1 611.1 220.7 611.3 216.2 611.3 238.9 611.4 230.1 611.6 233.2 611.7 228.2 611.9 237.2 612 234.9 612.2 240.1 612.4 238.3 612.6 242.6 612.8 240.7 613 235.9 613.2 242 613.4 242.8 613.6 245.2 613.8 254.2 613.9 264.6 614 264.2 614.1 268.4 614.2 260.8 614.3 262 614.4 252.5 614.5 252.7 614.8 255.5 614.9 259.3 615.2 257.5 615.4 261 615.6 262.8 615.9 256.8 616.2 256.1 616.5 263.2 616.6 265.8 616.8 267.3 617.1 271.9 617.3 273.7 617.6 275.2 617.7 272.8 618 269.6 618.2 274.8 618.4 276 618.7 275.4 618.8 282.4 619 278 619.1 275.8 619.3 278.9 619.5 273.4 619.7 276 619.9 276.9 620 288.6 620 296.7 620 295 620 304.9 620 305.3 620.1 302.2 620.1 303.1 620.2 302 620.3 303.4 620.4 308.4 620.6 306.3 620.8 310 621 311.6 621.1 311.9 621.3 311.7 621.4 310.2 621.7 306.1 621.9 307.6 622.1 305.4 622.3 304.1 622.6 304 622.9 309.1 623.2 310.7 623.4 307.4 623.7 311 624 315 624.2 318 624.4 317.7 624.6 315.3 624.9 313.4 625.2 317.3 625.6 312.3 625.8 315.9 626 313.7 626.3 315.2 626.6 310 626.9 313.1 627.3 313.8 627.6 311.5 628 308.5 628.2 304.1 628.6 306.1 628.7 313 629 310.8 629.2 311.7 629.5 314.8 629.9 315.4 630.3 320.1 630.4 321.4 630.7 320.2 631 320.4 631.2 320.7 631.5 313 631.8 315.9 632.1 317.3 632.5 314.2 632.9 314.1 633.2 315.2 633.7 311.4 633.9 313.1 634.3 311.9 634.7 311 635 308.3 635.3 305.7 635.8 309.3 636.1 310.3 636.6 311.5 637 309.9 637.4 310 637.8 312.6 638.2 312.7 638.5 317.9 638.9 314 639.4 308.9 639.6 308.6 639.8 310.5 640 321.1 640.3 324.3 640.8 324.7 641.1 324.3 641.6 323.3 641.9 326.7 642.1 327.9 642.4 325.3 642.8 326.2 643.1 320.6 643.6 325.6 643.9 331.7 644.1 331.5 644.3 332.8 644.5 334.1 644.9 334 645.3 329.4 645.6 332.9 646 333.7 646.4 332.9 646.7 325.6 646.9 321.4 647 315.7 647.3 319.9 647.6 318.7 647.8 312.6 647.8 306.2 647.8 304 648.1 303.9 648.4 300.4 648.6 298.1 648.9 298.4 649.1 305.9 649.4 309.6 649.5 312.7 649.8 315.7 649.9 314.2 650.1 317.7 650.3 313.1 650.6 311.2 651 305.2 651.2 307.8 651.5 311.4 651.9 308.4 652.3 313 652.7 310.1 652.8 306.4 653 305.3 653.3 303.2 653.5 304 653.8 302.8 654.1 299.2 654.4 300.4 654.7 297.8 655.1 293.3 655.5 294.8 655.8 289.5 656.1 294.8 656.5 296.6 656.8 297.1 657.3 297.6 657.8 299.6 658.1 301.1 658.4 297.1 658.9 298.6 659.2 296.6 659.8 294.4 660.3 293.4 660.6 290.8 661 290.3 661.5 295.3 661.7 296.5 662.3 298.5 662.7 295 663.4 292.5 663.9 294.7 664.5 287 664.8 283.6 665.1 283 665.6 289.1 665.9 289.6 666.3 290.8 666.6 298.1 666.9 296.4 667.2 293.4 667.4 303.5 667.5 303.2 667.8 299.5 668.2 294.8 668.6 293.2 669.1 291 669.5 290.9 670 291.2 670.4 296.6 670.7 297.7 671.2 295.4 671.7 298.9 672 293.5 672.4 293 672.8 287.5 673.1 286 673.5 285 673.7 289.7 674.1 285.1 674.3 286.7 674.6 293.6 674.8 290.8 675.1 289.5 675.2 293.2 675.4 286.8 675.6 292.6 675.9 292 676.2 288.2 676.4 285.6 676.5 284.4 676.7 289.4 677.1 286.4 677.4 282.3 677.6 277.2 677.8 271.1 678 267.6 678.2 265.8 678.5 272.6 678.7 267.3 679 265.5 679.2 267.6 679.6 264.6 679.8 262.3 679.9 258.7 680.1 260.6 680.4 261.1 680.7 263.7 680.9 254.6 681.1 247.4 681.3 248 681.6 248.9 681.9 242.2 682 235.5 682.2 236 682.4 232.6 682.8 231.5 683.1 231.7 683.4 232.4 683.5 231.1 683.7 229.5 684 233 684.3 234.2 684.5 236.6 684.6 244 684.8 246.4 685.1 248 685.5 249.1 685.7 241.2 685.9 237.2 686.3 236.1 686.5 226.1 686.8 235.5 687.1 231.7 687.5 229.3 687.9 228.4 688.2 228 688.6 224.3 688.9 219.1 689.2 217.6 689.5 215.6 689.9 215.8 690.2 214 690.5 207.4 690.7 207.9 691 220.4 691.1 223.2 691.3 218.5 691.6 215.3 691.9 223.4 692.1 217.8 692.4 210 692.5 204.6 692.6 200.1 692.7 212.7 692.7 214.4 692.9 214.4 693 218.2 693.3 218.6 693.6 219.5 693.9 216.7 694.2 214.1 694.5 211.7 694.7 212.8 695 212 695.3 215.2 695.7 214.1 695.9 218.7 696.2 218.4 696.5 220.1 696.8 221.2 697.1 213 697.4 209.5 697.6 215.1 697.7 221 698 221.7 698.3 219.9 698.6 219.5 698.9 227.1 699 234 699.2 238.9 699.3 237.2 699.5 241.2 699.7 243 700 244.9 700.3 245.7 700.5 252.2 700.6 260 700.8 263.6 701 266.3 701.1 273.1 701.3 270.4 701.3 261.8 701.5 262.2 701.6 268.4 701.8 269 702 264.4 702.2 273.2 702.3 277.6 702.4 281.2 702.5 290 702.5 296.1 702.6 296 702.7 300.7 702.8 305.1 702.9 306.5 703 300.9 703.1 304.4 703.3 303.1 703.4 297.1 703.6 296.9 703.8 297.9 703.9 298.6 704.1 300.5 704.2 300.5 704.4 298.1 704.6 291.9 704.8 292 704.9 292 705.1 296.4 705.2 289.6 705.4 289.7 705.5 288 705.7 295.5 705.8 297.3 706 299.2 706.2 299.2 706.4 298.7 706.7 299.5 706.9 302.4 707.3 301 707.5 305.2 707.7 302.3 708 305.1 708.4 303.6 708.6 301.9 708.8 304.4 709.1 302.1 709.3 302.3 709.7 306.2 709.8 307 710 311.9 710.3 313.9 710.3 322.2 710.4 324.7 710.6 324.7 710.9 319.3 711.1 317.3 711.5 314.8 711.8 316.9 712 318.6 712.1 315.5 712.5 314.1 712.9 313.2 713.1 315.2 713.3 317.1 713.7 313.7 714.1 311.3 714.4 311.4 714.8 312.3 715.2 310.2 715.6 311 716.1 311.4 716.6 316.8 716.9 316.8 717.4 319.4 717.7 319.9 718 320.8 718.4 318.9 718.8 315 719.1 316.3 719.6 316 720 315.8 720.3 319.5 720.7 318.4 721.1 319.2 721.3 320.3 721.8 319.9 722.1 319.7 722.4 315.3 722.6 309.9 722.9 316.6 723.4 316.4 723.7 315.9 724.1 317.8 724.4 320.5 724.8 319.6 725.1 322.5 725.3 325.2 725.5 329.6 725.6 335.3 725.8 336.5 726 336.2 726.3 335.9 726.6 333.2 726.9 334.6 727.1 336.6 727.3 341.6 727.4 343.9 727.7 341.8 727.9 341.1 728.2 341.9 728.5 337.4 728.7 334.9 729.1 331.9 729.3 328.6 729.6 328.6 730 325.9 730.4 324.9 730.7 323.9 731.1 329.7 731.5 325.9 731.7 325.5 732.2 327.4 732.6 326.6 733 327.2 733.4 328.9 733.9 326.7 734.2 326.5 734.6 320.4 735 321.3 735.5 319.4 735.8 315.5 736.1 323.4 736.3 327.6 736.5 334.4 736.9 331.5 737.3 332.4 737.9 327.7 738.4 327 738.9 330 739.3 329.8 739.7 334.2 740.3 331.9 740.7 333.9 741 330 741.5 331.8 741.9 332.5 742.3 331.3 742.7 329.9 743.1 331.5 743.5 329.6 744 330.8 744.4 330.8 744.9 329.1 745.4 328.7 745.8 331.1 746.2 326.8 746.6 325.4 747.1 325.8 747.4 329.7 747.8 331.8 748.2 328 748.7 329 749.2 329.5 749.7 328.6 750.1 328.7 750.4 325.4 750.7 324.6 751.1 326.8 751.3 319.9 751.8 318.4 752.2 315.2 752.5 315 752.8 319.4 753.2 319.9 753.5 317.1 754 315.3 754.5 315.8 754.8 309.6 755 313.2 755.3 310.5 755.6 312.7 755.9 310.5 756.3 309.6 756.6 308.3 756.9 307 757.2 306.2 757.5 303.6 757.7 311.3 758 310.1 758.3 309 758.8 309.9 759.2 310.9 759.3 312.4 759.4 313.7 759.7 314.8 759.8 318.2 760 316.7 760.3 312.3 760.5 316.3 760.8 318.9 761.2 317 761.5 315.5 761.7 315.2 761.9 313.8 762.2 319.2 762.3 321.7 762.6 324.5 762.9 326.6 763 326.8 763.2 329.1 763.4 335.8 763.5 341.9 763.7 337.6 763.9 336.2 764.1 335.6 764.4 337.9 764.8 334.6 765 332.5 765.4 330.7 765.7 334.2 766.1 333.8 766.3 334.6 766.7 336.5 767 331.3 767.3 329.6 767.5 334.1 767.9 332 768.3 330.2 768.5 326.2 768.7 325.9 769.1 327.9 769.4 324.2 769.7 323 769.9 318.8 770.3 320.8 770.6 322 770.9 323.4 771.4 319.9 771.9 320.6 772.4 322.2 772.9 322.1 773.3 318.5 773.7 318.8 774.2 319.3 774.6 318.2 775 316.8 775.5 317.9 776 316.7 776.4 316.5 776.8 321.7 777 325.2 777.6 323.9 777.9 327.5 778.2 325.6 778.6 322.4 778.9 331.2 779.3 330.3 779.6 331.3 779.9 333.7 780.3 331.1 780.8 331.4 781.1 330.2 781.5 332.3 781.9 331.3 782.3 334.7 782.7 335.1 783.1 335.8 783.4 335.1 783.7 336.5 784.2 333.7 784.5 335.9 784.8 336.7 785.1 336.4 785.4 337.1 785.7 336.7 785.9 330.8 786.1 333.5 786.4 336.3 786.8 337.3 787 337.6 787.3 332 787.6 327.9 787.9 324.4 788.1 326 788.4 324.1 788.7 323.6 789.1 323.4 789.4 324.9 789.7 324.5 790.1 325.3 790.4 323 790.7 324.2 790.9 322.6 791.2 322.4 791.6 320.2 792 318.5 792.5 319.6 792.9 320.9 793.3 320.7 793.7 319 794.1 319.2 794.6 319.4 795 320.4 795.5 317.6 795.9 322.4 796.1 321.7 796.6 323.8 797 325.8 797.3 325.3 797.9 323.4 798.3 325.8 798.6 328.3 799 327.4 799.4 326.8 799.7 327.5 800.2 326.2 800.6 328 801 329.5 801.3 327 801.8 328.5 802.1 329.1 802.6 327.7 803 328.4 803.5 330.4 803.9 328.6 804.2 331.2 804.6 333.1 805.1 333.6 805.3 330.2 805.6 330.8 806 336.5 806.2 339.9 806.5 335.8 806.9 338.1 807.3 339.8 807.6 339.3 807.9 343 808.3 339.1 808.7 339.4 809 341.4 809.5 343.7 809.8 344.8 810 343.8 810.4 343 810.8 342.8 811.1 343.9 811.3 346.3 811.7 346.1 812.1 347.1 812.3 346.2 812.6 350.2 812.9 349.3 813 351.9 813.2 352 813.4 348.5 813.7 345.6 814 346.5 814.4 345.5 814.5 339.6 814.7 341.4 814.9 336 815.2 338.8 815.4 335.2 815.6 337.1 815.9 341 816.2 343.6 816.6 345.4 816.9 346.6 817.3 345.6 817.7 340.8 818 340.8 818.5 341.2 819 339.5 819.2 339.5 819.5 336.5 819.8 336.8 820 335.7 820.2 339.3 820.6 340.5 821 339.3 821.4 338.2 821.7 339.5 822.2 337.6 822.5 340.5 822.9 339.9 823.3 339.3 823.6 344.9 823.8 344.6 824.1 342.2 824.4 342.8 824.8 343.4 825.2 344.2 825.6 345.6 825.9 348.2 826.1 346.8 826.4 346.3 826.8 346 827.2 344.8 827.5 344.5 827.9 349.6 828.2 350.6 828.5 352.9 828.8 349.9 829.2 351 829.6 350.4 830.1 348.9 830.5 349.3 830.8 351.3 831.1 350.1 831.5 348 831.8 348.5 832.2 349.4 832.6 350.2 832.9 349.3 833.1 353.3 833.5 353.4 833.7 361.1 833.9 359.1 834.1 359.8 834.2 363.3 834.3 362.3 834.5 359.3 834.7 362.2 835 362.2 835.1 361.3 835.3 358.6 835.6 357.4 835.9 361 836.2 359.8 836.4 360.6 836.7 361.8 837 360.4 837.3 356.5 837.4 352.5 837.6 354 837.9 355.9 838.2 356 838.5 358.1 838.8 356.8 839.1 358.7 839.5 356.9 839.7 356.7 840 358.7 840.3 359.1 840.6 366.6 840.6 373.2 840.6 368 840.8 367.9 841 369.2 841.1 365.6 841.2 363.3 841.5 362.4 841.8 368.1 842.1 368.1 842.3 370.9 842.6 370.9 842.9 370.1 843.2 369.9 843.7 369.3 844 361.2 844.1 352.3 844.2 348.8 844.4 348.5 844.7 349.1 845.1 347.2 845.5 347.5 845.6 343.7 846 346.4 846.2 345.9 846.5 345.7 846.7 342.8 847.1 340.8 847.2 345.7 847.6 348.2 847.9 344.6 848.4 342.5 848.7 339.6 849 337.8 849.3 337.5 849.7 335.3 850 334.2 850.2 335.5 850.5 332.5 850.9 331.8 851.2 330.8 851.4 333.6 851.6 331.1 851.9 331.5 852.2 332.6 852.4 331.5 852.7 331.2 853 336.7 853.4 334.6 853.7 335.9 854.1 339.1 854.4 339.4 854.6 339.2 854.8 339.3 855.2 338.9 855.5 339.5 855.9 339.9 856.1 339.4 856.5 339.6 856.9 337.3 857.2 336.3 857.6 335.1 857.9 334.7 858.2 335.3 858.5 334.8 858.8 335.3 859.2 341.6 859.4 341.4 859.7 338.2 860.1 336.8 860.4 336.2 860.6 337 860.9 341.6 861.3 339.3 861.6 338.8 861.8 335.9 862.2 334.5 862.6 334.5 862.8 338.2 863.1 335.3 863.5 334.2 863.8 333.6 864 333.4 864.3 333.4 864.7 335.5 865 337.2 865.2 334.6 865.5 338.8 865.8 335.9 866.1 335.5 866.4 335.7 866.7 334 867.1 335.8 867.3 334.8 867.5 341.6 867.8 340.8 868 343.9 868.3 346.7 868.4 349 868.5 345.3 868.7 352.5 868.8 354.1 868.9 351.2 869.1 353.6 869.2 361.6 869.3 359.9 869.4 359.5 869.6 363 869.7 364.8 869.8 362.6 870 364.8 870.1 368.2 870.3 368.4 870.5 365.2 870.8 361.6 871 360.2 871.3 359.3 871.5 360.5 871.8 364.3 872.1 362.4 872.3 364.4 872.6 365.7 872.9 369.4 873 374.4 873.1 377.6 873.2 375.1 873.4 374.4 873.7 370 873.8 353 873.9 351.5 874.1 350.4 874.3 348.3 874.6 351.6 875 350.1 875.2 349.3 875.5 349 875.8 345.2 876.1 341.7 876.3 335.1 876.6 335.2 876.8 336.6 877.1 336.4 877.5 336.5 877.7 333.7 877.9 335.9 878.2 336.5 878.5 335.3 878.9 331.9 879.1 332.1 879.4 337 879.8 335.7 880.1 338.8 880.4 337.6 880.7 343 880.8 350 880.8 349.8 881 352.8 881.1 353.3 881.3 355.7 881.5 360.1 881.7 361.9 881.8 361.1 882.2 361.1 882.4 359.1 882.6 355.3 883.1 354.3 883.4 358.7 883.7 356.3 884 354.1 884.4 354.7 884.7 357.1 885.3 357.7 885.7 358.6 886.1 360.5 886.4 367.1 886.5 370.1 886.7 369.2 886.9 369.8 887.1 360.2 887.4 366.9 887.8 368.4 888.1 374.2 888.3 375.9 888.6 381 888.8 380.9 889.1 383.2 889.3 382.7 889.5 383.6 889.7 387 889.9 380.6 890.2 383.7 890.3 383.6 890.6 390.1 890.6 389.8 890.8 389.7 891.2 386.9 891.5 384.1 891.8 383.8 892.1 381 892.4 379 892.6 379.1 892.8 385 893.1 378.1 893.4 377.8 893.7 377.2 894 373.2 894.1 366 894.3 368.2 894.6 361.4 894.9 361.7 895.1 361.6 895.4 356.6 895.6 356.5 895.9 359.1 896 370 896.2 368.6 896.5 369.9 896.6 372.4 896.8 365.4 897.1 362.8 897.2 362.3 897.3 360.6 897.5 359.1 897.6 359.7 897.8 357.5 897.9 356.3 898.2 354.2 898.4 356.5 898.7 356.3 898.9 350.8 899.3 351.7 899.6 349.6 899.8 350.1 899.9 360.2 900.1 359.9 900.3 351.5 900.5 349.9 900.6 344.1 900.7 341.6 900.8 340 901 338.9 901.3 337.3 901.6 337.3 901.8 333.9 901.9 335.5 902.2 332.9 902.3 337.2 902.5 345 902.7 347.4 902.9 352.3 903.2 348.8 903.6 343.3 904 341.7 904.2 346.4 904.7 349.2 905.2 343.9 905.3 340.8 905.7 343.3 906.1 343.9 906.6 340.6 906.8 346.4 907.3 347.9 907.6 349.3 907.9 347 908.4 352.3 908.9 353.2 909.4 353.4 909.8 354.8 910.2 353.1 910.9 353.3 911.3 352.9 911.8 355.6 912.2 357.2 912.6 358.3 913.1 359.2 913.3 363.1 913.7 359.9 914.1 362.7 914.4 364.2 914.6 364.4 915 360.4 915.4 363.6 915.7 364 915.9 366.7 916.2 367.3 916.4 367.3 916.7 367.3 917 369 917.3 369.3 917.6 371.9 917.9 371.6 918.2 371.7 918.7 369.5 919.1 367.9 919.3 367.7 919.6 364.2 920 363.5 920.3 363.1 920.6 366.2 920.9 372.2 921.1 376.4 921.3 381.3 921.5 380.8 921.9 378.7 922.1 383.1 922.3 387.4 922.5 389.1 922.7 387.3 922.9 394 922.9 394.1 923 398 923.1 395.7 923.1 397.4 923.2 404.3 923.3 403.2 923.4 398.8 923.6 400 923.7 406.4 923.8 399.6 924 399.8 924.2 401.5 924.4 396.4 924.7 400.5 924.8 400.6 924.8 402.4 925 403.7 925.1 402.4 925.2 399.8 925.3 398.8 925.4 399.9 925.7 397.6 925.7 402.6 925.9 406.8 926 407.2 926.1 412.8 926.2 416 926.2 423.8 926.2 424.8 926.2 424.1 926.3 422.6 926.4 421.3 926.6 422 926.6 423.6 926.8 425.5 926.9 425.5 927.1 421.6 927.2 425.1 927.4 424.9 927.5 428.3 927.6 427.2 927.7 427.9 927.8 431.8 927.9 434.1 927.9 437.3 928 434.8 928 426.6 928 423.9 928.1 431.1 928.2 428 928.3 427.7 928.4 426.1 928.5 422.3 928.6 425.7 928.7 424.3 928.8 418.7 929 421.2 929.2 413.3 929.4 417.1 929.5 419.5 929.7 420.1 929.9 423.2 930 427.5 930.2 426.4 930.5 424.9 930.7 425.5 930.9 421.6 931.1 420.2 931.4 415.8 931.6 410.8 931.8 414.4 932.1 415.6 932.4 414.5 932.6 412.5 932.9 416.4 933.1 415.3 933.3 413 933.4 407.7 933.8 408.4 934 406.5" opacity=".6"/><text x="942" y="472" fill="#d97706" font-size="11" text-anchor="start">0.28</text><text x="942" y="396" fill="#d97706" font-size="11" text-anchor="start">0.29</text><text x="942" y="320" fill="#d97706" font-size="11" text-anchor="start">0.30</text><text x="942" y="244" fill="#d97706" font-size="11" text-anchor="start">0.31</text><text x="942" y="168" fill="#d97706" font-size="11" text-anchor="start">0.31</text><text x="942" y="92" fill="#d97706" font-size="11" text-anchor="start">0.32</text><text x="942" y="80" fill="#d97706" font-size="11" font-weight="600" text-anchor="start">price</text><polygon fill="#16a34a" fill-opacity=".08" points="353.1 468 353.1 116.9 353.1 116.7 551.4 116.4 620 116.1 681.9 116.2 702.4 116.4 702.4 468"/><polyline fill="none" stroke="#16a34a" stroke-linejoin="round" stroke-width="2" points="353.1 116.9 353.1 116.7 551.4 116.4 620 116.1 681.9 116.2 702.4 116.4"/><line x1="88" x2="110" y1="102" y2="102" stroke="#16a34a" stroke-width="2.5"/><text x="116" y="106" fill="#374151" font-size="11.5">equity</text><line x1="88" x2="110" y1="118" y2="118" stroke="#d97706" stroke-width="2.5" opacity=".8"/><text x="116" y="122" fill="#374151" font-size="11.5">price</text><text x="78" y="502" fill="#6b7280" font-size="12" text-anchor="start">2026-01-01</text><text x="934" y="502" fill="#6b7280" font-size="12" text-anchor="end">2026-01-31</text></svg>