<?xml version="1.0" encoding="UTF-8"?>
<svg xmlns="http://www.w3.org/2000/svg" width="1000" height="520" viewBox="0 0 1000 520" font-family="ui-sans-serif, system-ui, sans-serif">
  <rect width="1000" height="520" fill="#ffffff"/>
  <text x="78" y="28" font-size="18" font-weight="700" fill="#111827">Zone Recovery — ORDIUSDC best setting (equity / PnL)</text>
  <text x="78" y="48" font-size="12.5" fill="#6b7280">lev 10 · ratio 2 · gap 20% · maxSteps 4 · maxDD 60% · random · vip 9  ·  55 series, 89.1% win · vol $13095390 ($422432/day) · fees $1108</text>
  <text x="78" y="68" font-size="12.5" font-weight="600" fill="#1d4ed8">USDC · BNB −10% · taker 0.0085%</text>
  <text x="934" y="28" text-anchor="end" font-size="18" font-weight="700" fill="#16a34a">+32776 USDT  (+327.76%)</text>
  <line x1="78" y1="468.0" x2="934" y2="468.0" stroke="#e5e7eb" stroke-width="1"/><text x="68" y="472.0" text-anchor="end" font-size="12" fill="#6b7280">0.00</text><line x1="78" y1="392.0" x2="934" y2="392.0" stroke="#e5e7eb" stroke-width="1"/><text x="68" y="396.0" text-anchor="end" font-size="12" fill="#6b7280">9651</text><line x1="78" y1="316.0" x2="934" y2="316.0" stroke="#e5e7eb" stroke-width="1"/><text x="68" y="320.0" text-anchor="end" font-size="12" fill="#6b7280">19302</text><line x1="78" y1="240.0" x2="934" y2="240.0" stroke="#e5e7eb" stroke-width="1"/><text x="68" y="244.0" text-anchor="end" font-size="12" fill="#6b7280">28954</text><line x1="78" y1="164.0" x2="934" y2="164.0" stroke="#e5e7eb" stroke-width="1"/><text x="68" y="168.0" text-anchor="end" font-size="12" fill="#6b7280">38605</text><line x1="78" y1="88.0" x2="934" y2="88.0" stroke="#e5e7eb" stroke-width="1"/><text x="68" y="92.0" text-anchor="end" font-size="12" fill="#6b7280">48256</text>
  <line x1="78" y1="389.3" x2="934" y2="389.3" stroke="#9ca3af" stroke-width="1.5" stroke-dasharray="6 4"/><text x="934" y="383.3" text-anchor="end" font-size="11" fill="#6b7280">start 10000</text>
  <polyline points="78.0,289.6 78.6,285.5 79.2,288.8 79.8,288.6 80.7,285.5 81.4,285.5 82.7,287.0 83.7,286.3 83.8,282.2 84.1,280.9 84.7,280.3 85.2,281.0 85.7,281.7 86.2,278.6 86.5,278.8 87.1,278.2 87.6,278.8 88.0,276.9 88.4,273.4 88.6,272.5 89.0,271.8 89.3,271.8 89.5,272.7 90.0,271.7 90.9,273.3 91.2,269.3 91.5,268.7 91.9,268.9 92.4,272.7 93.1,271.8 93.8,267.7 94.1,269.2 94.4,265.5 94.8,267.1 95.2,264.6 95.6,260.9 95.8,262.0 96.1,256.0 96.2,255.7 96.4,253.9 96.5,255.8 96.5,258.0 96.6,259.6 96.9,258.6 97.2,257.9 97.6,256.9 97.9,254.1 98.1,250.9 98.3,248.9 98.6,250.1 99.1,251.1 99.6,252.5 100.5,252.3 101.0,249.9 101.6,253.4 102.1,253.0 102.7,254.8 103.3,253.3 104.0,252.6 104.5,249.2 104.8,249.3 105.4,251.0 105.9,251.3 106.3,253.4 107.2,251.8 107.7,252.3 108.1,250.2 108.5,250.6 109.1,247.6 109.3,250.0 109.6,247.7 110.0,249.0 110.5,249.6 111.1,248.3 111.8,250.8 112.1,250.2 112.6,246.3 113.1,249.2 113.9,252.0 114.3,254.7 114.8,253.9 115.6,255.1 115.9,255.5 116.6,254.8 116.9,248.6 117.2,250.1 117.5,250.4 118.1,250.5 118.8,249.6 119.3,253.0 120.0,250.7 120.1,248.6 120.3,245.0 120.4,246.6 120.8,247.1 121.2,247.8 121.7,250.5 122.1,253.0 122.4,254.1 122.5,252.5 122.7,248.0 122.9,252.0 123.2,252.6 123.4,255.1 123.5,250.8 123.9,250.5 124.2,252.5 124.4,247.1 124.7,246.1 124.7,247.4 124.8,247.2 124.9,248.6 124.9,245.8 125.0,246.0 125.0,245.5 125.1,246.8 125.2,243.9 125.2,244.5 125.3,244.9 125.4,245.9 125.5,246.7 125.5,244.8 125.6,245.7 125.7,246.3 125.7,246.9 125.8,247.0 125.9,248.0 126.0,249.0 126.1,248.6 126.1,250.1 126.2,249.4 126.3,249.3 126.4,249.3 126.5,248.8 126.5,247.7 126.6,247.7 126.7,247.3 126.8,248.5 126.9,248.9 127.0,249.1 127.0,249.9 127.1,248.4 127.3,251.3 127.8,247.6 128.2,249.1 129.2,248.5 130.1,249.6 130.8,245.9 131.1,245.8 131.8,245.4 132.5,243.8 133.0,245.2 133.6,245.6 134.0,245.4 134.5,247.6 135.2,248.2 135.9,245.0 136.4,243.7 136.8,244.2 137.5,243.6 137.9,241.6 138.3,242.3 139.1,242.4 139.7,244.0 140.4,241.0 140.9,244.4 141.1,248.8 141.5,250.0 141.7,254.3 141.9,255.7 142.2,253.6 142.6,256.5 143.1,253.1 143.3,252.5 143.9,254.4 144.4,251.1 145.1,252.9 145.9,251.8 146.9,251.0 147.6,248.4 148.2,245.3 148.7,242.1 149.3,244.9 150.0,247.4 150.9,248.7 151.7,246.7 152.0,242.9 152.1,239.8 152.4,243.2 152.5,245.7 152.6,239.9 152.7,237.8 153.0,241.0 153.7,241.8 154.3,243.6 155.1,241.6 155.8,242.8 156.6,243.8 157.6,242.0 158.2,240.9 158.9,239.5 159.6,237.4 160.1,238.8 160.9,239.9 161.0,235.5 161.2,238.4 161.5,239.4 161.8,240.8 162.3,241.2 162.8,242.5 163.3,242.9 163.9,242.0 164.5,240.3 164.7,239.0 165.2,237.2 165.6,238.2 166.1,238.3 166.7,239.7 167.7,235.5 168.0,237.2 168.5,238.4 168.7,242.4 169.2,239.8 169.7,240.4 170.0,239.8 170.4,240.1 170.9,238.0 171.3,239.8 171.6,235.9 171.8,234.8 172.1,235.4 172.6,233.3 172.9,235.8 173.4,236.9 173.8,236.7 174.2,234.1 174.5,234.1 175.0,231.1 175.1,225.8 175.3,223.3 175.5,227.0 175.7,229.7 175.9,230.6 176.2,234.0 176.6,232.9 176.9,228.7 177.1,229.9 177.4,229.5 177.6,231.6 177.9,228.3 178.1,225.7 178.3,222.2 178.4,219.3 178.6,221.2 178.8,223.1 178.9,221.0 179.1,221.4 179.2,219.3 179.3,220.9 179.5,217.8 179.7,216.0 179.8,212.6 179.9,207.8 180.0,206.9 180.1,209.9 180.2,210.5 180.4,208.3 180.6,210.5 180.7,206.7 180.9,210.9 181.1,211.4 181.3,208.8 181.4,212.0 181.7,209.6 181.9,213.0 182.2,218.3 182.3,218.5 182.6,216.9 182.8,221.1 182.8,224.0 182.9,227.4 183.1,224.7 183.4,225.2 183.7,226.2 184.1,222.8 184.5,224.5 185.0,224.4 185.2,223.4 185.5,224.9 185.8,230.4 186.2,225.3 186.4,226.2 186.8,227.0 187.4,224.7 187.6,224.8 188.0,224.3 188.4,227.3 188.6,226.5 188.8,227.8 189.0,227.7 189.3,225.4 189.5,225.7 189.7,223.8 189.9,221.5 190.2,222.9 190.4,219.2 190.7,220.9 190.9,224.5 191.2,227.0 191.4,225.7 191.8,223.0 192.2,227.1 192.4,228.5 192.7,227.5 193.0,228.3 193.3,230.7 193.6,234.1 193.6,236.8 193.7,236.1 194.0,234.8 194.2,237.3 194.6,234.0 195.0,232.2 195.3,235.4 195.8,235.5 196.0,237.6 196.5,235.8 196.8,232.5 197.2,228.4 197.6,230.4 198.1,232.4 198.4,237.5 198.8,237.0 198.9,244.2 199.0,239.7 199.4,239.9 200.0,239.4 200.4,239.5 200.7,244.3 201.0,241.4 201.5,241.1 202.0,241.0 202.5,239.5 203.0,237.6 203.4,237.4 203.8,239.4 204.0,239.9 204.3,240.4 204.5,238.8 205.0,235.7 205.3,234.8 205.4,231.9 205.6,230.9 205.8,232.4 206.0,232.1 206.3,228.6 206.5,225.5 206.6,226.7 206.8,226.7 207.0,227.7 207.2,225.2 207.4,224.9 207.6,226.2 207.9,228.4 208.2,229.9 208.5,233.4 208.8,229.6 209.0,224.6 209.2,223.5 209.3,225.0 209.6,222.2 209.8,221.0 210.1,221.9 210.4,220.4 210.8,222.4 211.2,224.8 211.5,224.0 211.7,220.5 212.0,217.7 212.3,220.6 212.7,220.3 213.3,221.9 213.8,222.6 214.3,219.5 214.7,217.1 215.2,220.1 215.6,220.2 216.2,220.3 216.5,222.6 216.8,226.7 217.1,224.9 217.3,223.3 217.8,218.3 218.1,223.2 218.4,225.7 218.8,225.5 219.3,226.3 219.8,222.4 220.1,219.9 220.3,218.6 220.6,219.6 221.0,218.7 221.4,220.0 222.0,222.0 222.4,222.3 222.8,223.8 223.3,225.5 223.7,225.1 223.9,222.6 224.4,225.4 224.7,227.8 225.0,229.2 225.3,226.2 225.6,224.8 226.1,227.5 226.5,224.6 227.1,223.1 227.6,224.0 227.9,222.7 228.3,221.3 228.8,221.3 229.1,216.9 229.4,216.1 229.7,215.5 230.0,216.7 230.5,217.2 230.7,211.0 231.0,210.7 231.1,209.6 231.3,207.0 231.6,205.6 231.8,205.5 232.0,208.4 232.2,210.1 232.3,210.1 232.5,208.5 232.6,207.4 232.8,209.8 232.9,210.3 233.0,212.9 233.1,214.1 233.1,216.4 233.3,220.0 233.4,216.6 233.6,217.9 233.8,216.3 234.1,220.9 234.1,225.6 234.3,226.6 234.4,227.7 234.6,227.5 234.6,235.2 234.7,231.9 234.8,231.9 235.0,235.0 235.1,236.8 235.2,238.1 235.3,240.8 235.4,241.6 235.5,237.3 235.6,237.4 235.8,235.7 236.0,237.6 236.3,233.5 236.5,237.8 236.6,242.3 236.7,244.2 236.8,246.7 236.9,244.8 237.0,242.0 237.3,242.1 237.6,240.2 237.9,239.4 238.2,238.1 238.7,239.1 239.1,236.9 239.5,234.3 239.7,232.5 240.1,232.0 240.5,233.4 240.5,223.5 240.6,224.3 240.9,220.7 241.2,220.6 241.4,220.9 241.7,223.1 242.2,224.8 242.8,223.7 243.4,223.5 243.9,223.0 244.3,226.9 244.7,229.5 245.1,232.4 245.3,233.1 245.6,234.2 246.0,235.6 246.3,235.9 246.7,234.0 247.2,233.4 247.7,234.3 248.5,235.9 249.4,236.3 250.0,234.0 250.5,234.1 250.9,234.9 251.8,235.3 252.3,230.9 252.6,226.8 252.9,225.1 253.0,223.1 253.2,224.8 253.4,226.8 253.7,227.5 254.1,226.0 254.4,224.5 254.6,229.8 254.7,231.6 254.9,233.5 255.2,233.1 255.5,231.4 255.9,230.4 256.3,231.9 256.7,230.1 257.4,231.3 258.0,234.8 258.6,236.4 258.9,236.7 259.4,237.7 259.8,239.5 259.9,244.0 260.1,244.3 260.4,243.7 260.5,241.6 260.6,237.6 260.9,238.5 261.0,245.0 261.3,247.2 261.4,247.5 261.6,247.3 261.8,247.4 262.0,246.0 262.3,243.1 262.6,242.4 262.8,246.6 263.1,242.9 263.4,242.0 263.6,239.8 263.9,238.9 264.2,242.0 264.6,238.6 265.0,238.0 265.4,239.8 265.8,243.5 265.9,244.3 266.3,240.9 266.8,242.8 267.3,246.3 267.8,245.5 268.2,244.4 268.8,245.7 269.4,246.1 270.0,249.3 270.4,247.1 270.7,244.1 271.3,245.1 271.8,247.0 272.4,243.6 272.9,243.4 273.4,244.3 273.9,243.7 274.3,247.4 274.7,249.2 275.2,247.2 275.6,252.5 275.8,251.7 276.1,251.0 276.5,247.0 277.1,245.5 277.6,245.4 278.1,247.7 278.4,248.3 278.6,250.8 278.9,249.2 279.2,250.7 279.4,254.1 279.4,254.2 279.6,252.4 279.9,247.9 280.1,248.4 280.5,248.5 280.8,249.4 281.2,252.0 281.6,256.4 282.0,255.5 282.2,259.4 282.5,259.8 282.8,262.6 282.9,265.6 283.0,262.7 283.2,261.0 283.5,258.7 283.9,257.4 284.3,260.3 284.5,261.9 284.8,261.6 285.2,261.2 285.3,262.8 285.7,262.1 286.1,263.9 286.6,262.7 287.0,263.1 287.5,264.0 287.9,264.6 288.0,265.9 288.2,263.1 288.3,262.6 288.5,262.1 288.7,262.2 288.8,259.2 289.0,256.0 289.2,254.3 289.4,253.5 289.6,252.8 289.9,253.8 290.0,254.5 290.4,253.3 290.7,252.5 291.0,251.3 291.3,253.9 291.8,254.8 292.2,257.4 292.8,259.3 293.5,260.7 294.3,260.6 294.7,262.2 295.1,259.3 295.7,256.2 296.2,253.7 296.9,251.7 297.4,256.5 298.5,255.6 299.4,256.4 300.4,255.7 300.6,252.5 300.8,260.0 301.1,256.5 301.7,253.7 302.6,254.3 303.1,252.6 303.6,250.5 304.3,251.1 305.2,251.7 305.8,248.7 306.5,247.8 307.2,249.9 307.9,247.3 308.2,248.5 308.8,249.0 309.0,255.3 309.2,253.5 309.6,251.2 310.2,251.3 311.0,253.0 311.7,251.2 312.3,251.3 313.0,254.7 313.6,254.9 314.1,249.4 314.3,247.7 314.5,247.7 314.8,247.9 315.3,251.1 315.6,251.7 315.8,252.4 316.0,254.5 316.2,253.5 316.5,253.5 316.6,250.1 316.7,243.7 316.8,244.2 316.9,242.5 317.1,244.2 317.3,246.7 317.5,241.5 317.6,240.9 317.8,245.1 318.1,246.6 318.5,243.1 318.8,248.7 319.1,250.2 319.4,249.1 319.8,247.7 320.0,252.5 320.2,255.5 320.4,252.2 320.9,252.4 321.3,254.7 321.9,254.0 322.3,251.7 322.9,252.0 323.5,250.4 324.2,249.0 324.8,249.0 325.7,247.9 326.5,249.6 327.4,253.6 328.4,252.6 329.6,256.2 330.6,255.8 331.3,255.8 332.2,255.4 333.4,256.8 334.0,256.3 334.8,251.6 335.6,250.5 336.2,251.4 337.0,249.7 337.9,251.2 338.7,252.0 339.5,251.7 340.4,247.7 341.4,244.6 342.2,244.4 342.9,247.6 343.8,245.7 344.8,249.5 345.6,249.7 346.7,249.2 347.6,252.5 348.5,249.0 348.9,247.1 349.6,245.5 350.7,247.7 351.9,249.2 352.6,250.9 353.2,253.1 354.3,252.5 355.1,250.9 356.0,250.4 356.9,247.9 358.1,247.3 359.0,248.5 360.2,249.3 361.2,249.4 362.2,250.3 363.4,250.6 364.5,251.3 365.6,250.6 366.5,251.2 367.8,251.7 368.7,250.9 369.6,251.0 370.3,252.7 371.1,252.8 371.6,254.2 372.1,255.3 372.4,259.5 372.8,258.3 373.1,253.0 373.3,253.4 373.8,255.1 374.6,257.7 375.3,258.1 376.1,258.2 377.0,259.7 377.3,265.0 377.5,267.1 377.8,264.3 378.3,264.2 378.8,263.9 379.6,267.0 379.7,270.2 380.2,268.1 380.8,268.2 381.2,267.7 382.0,267.2 382.5,267.8 382.8,267.6 383.0,258.5 383.2,260.2 383.6,261.4 383.9,259.8 384.3,257.5 384.5,256.3 385.0,253.4 385.2,253.6 385.8,254.1 386.3,258.1 386.7,258.2 387.5,259.8 388.3,258.0 389.3,260.0 390.1,260.8 390.5,266.0 390.9,267.6 391.3,267.2 391.6,272.9 391.8,275.2 391.9,274.3 392.2,273.0 392.6,272.8 393.3,273.0 394.1,273.9 394.8,274.4 395.6,271.4 396.4,274.2 396.7,280.1 396.9,280.4 397.1,280.7 397.6,281.0 398.0,280.0 398.3,282.5 398.4,281.2 398.6,275.9 398.9,277.7 399.3,278.3 399.6,276.2 399.9,275.0 400.3,275.2 400.6,274.0 400.9,272.4 401.3,273.1 401.7,277.0 401.9,283.3 402.2,281.9 402.6,279.3 403.1,282.7 403.7,282.4 404.2,277.8 404.8,274.8 405.4,277.7 405.9,279.5 406.4,281.0 406.9,284.2 407.4,281.4 408.3,283.3 409.3,281.8 409.8,279.8 410.3,279.9 410.8,277.7 411.4,280.5 412.1,276.5 412.9,277.9 413.4,275.0 414.0,274.2 414.4,271.5 414.8,273.0 415.4,274.2 415.7,271.8 416.3,272.8 416.9,270.7 417.3,268.4 417.8,270.4 418.5,271.8 419.3,272.6 419.8,271.7 420.2,271.6 420.7,269.6 421.4,270.1 421.8,267.8 422.3,266.7 422.7,262.3 422.9,259.4 423.1,257.3 423.3,256.6 423.5,254.4 423.7,253.9 423.7,261.0 423.8,256.9 424.0,259.2 424.3,256.8 424.5,256.8 424.9,254.1 425.0,255.6 425.2,253.1 425.3,250.4 425.5,246.1 425.5,244.2 425.6,246.5 425.8,241.1 425.8,244.1 426.0,241.8 426.1,236.1 426.2,236.0 426.2,230.3 426.3,231.2 426.3,226.0 426.4,231.4 426.4,229.6 426.5,232.1 426.6,232.9 426.6,228.0 426.7,229.9 426.8,229.4 426.9,227.7 427.0,229.0 427.1,226.7 427.1,223.1 427.2,225.4 427.3,222.6 427.4,222.7 427.5,218.4 427.5,220.2 427.7,220.1 427.7,219.0 427.8,217.1 427.8,217.5 427.9,223.9 428.0,220.3 428.1,212.7 428.1,214.1 428.2,209.4 428.2,210.1 428.3,211.2 428.4,206.3 428.4,204.5 428.4,200.2 428.5,197.5 428.5,200.6 428.6,197.6 428.6,194.4 428.7,193.8 428.7,197.5 428.7,195.1 428.8,191.2 428.8,188.5 428.9,189.3 428.9,187.4 428.9,193.8 429.0,194.5 429.0,192.6 429.0,199.8 429.1,198.1 429.1,200.8 429.2,202.4 429.2,201.1 429.3,197.0 429.3,194.2 429.4,192.0 429.5,199.1 429.5,201.5 429.6,203.3 429.6,201.9 429.7,200.5 429.8,200.9 429.9,199.6 429.9,202.9 430.0,200.2 430.1,202.5 430.2,202.5 430.3,203.4 430.4,202.2 430.5,206.0 430.6,205.6 430.6,208.4 430.8,208.4 430.9,209.0 430.9,211.7 431.0,211.5 431.1,211.8 431.3,209.2 431.4,208.3 431.5,206.4 431.7,207.0 431.8,206.5 432.0,204.9 432.2,201.5 432.3,199.5 432.3,198.4 432.4,198.1 432.5,197.7 432.5,195.4 432.7,196.8 432.8,200.5 432.9,198.2 433.0,198.3 433.1,200.9 433.1,202.5 433.2,200.1 433.2,193.3 433.2,195.8 433.3,198.0 433.4,194.8 433.5,193.0 433.6,191.5 433.6,190.8 433.7,188.3 433.7,182.6 433.8,184.1 433.8,179.6 433.9,179.2 433.9,177.7 434.0,176.1 434.1,180.3 434.1,175.1 434.2,174.3 434.2,172.9 434.2,175.3 434.3,174.3 434.4,174.2 434.5,176.0 434.5,171.7 434.6,170.8 434.6,170.1 434.6,165.5 434.7,165.7 434.7,165.0 434.8,167.5 434.8,161.5 434.8,156.3 434.8,157.5 434.9,150.0 434.9,159.6 434.9,155.3 435.0,154.8 435.0,149.9 435.1,150.3 435.1,149.8 435.2,148.2 435.3,143.7 435.3,146.6 435.4,143.2 435.4,145.5 435.5,139.1 435.5,136.6 435.5,139.0 435.6,142.5 435.6,134.1 435.7,130.4 435.7,132.9 435.7,127.2 435.8,129.2 435.8,127.2 435.9,131.6 435.9,130.9 436.0,128.2 436.0,122.7 436.0,120.5 436.1,120.5 436.1,121.0 436.1,115.6 436.1,116.6 436.2,121.1 436.2,121.0 436.2,128.9 436.2,129.5 436.3,134.4 436.3,137.7 436.3,135.7 436.3,139.8 436.4,138.1 436.4,141.3 436.4,142.9 436.4,144.1 436.5,143.4 436.5,144.4 436.5,142.8 436.6,139.8 436.6,142.1 436.7,141.3 436.8,144.8 436.8,149.4 436.8,146.9 436.9,149.2 436.9,147.7 437.0,143.4 437.0,140.3 437.0,148.6 437.1,153.6 437.1,152.1 437.2,151.8 437.2,148.5 437.3,152.0 437.3,154.1 437.4,152.6 437.5,151.9 437.6,150.2 437.6,145.5 437.7,144.5 437.7,151.5 437.8,154.3 437.9,148.3 438.0,152.3 438.1,148.9 438.1,145.8 438.2,145.8 438.3,144.7 438.3,148.2 438.4,152.6 438.5,154.3 438.5,159.5 438.6,160.0 438.7,159.0 438.8,158.3 438.9,161.1 439.0,160.7 439.1,161.7 439.1,156.9 439.2,154.3 439.3,153.4 439.3,153.1 439.4,154.9 439.5,156.5 439.7,157.2 439.7,162.9 439.7,162.2 439.7,161.8 439.8,160.5 439.9,161.6 440.0,164.0 440.1,160.9 440.2,155.0 440.3,160.9 440.4,164.7 440.5,163.7 440.7,162.1 440.9,160.0 441.1,161.7 441.2,161.3 441.4,163.4 441.6,163.4 441.6,170.8 441.7,172.4 441.8,172.7 442.0,172.2 442.3,173.2 442.4,174.9 442.4,178.9 442.5,177.3 442.6,176.8 442.9,177.2 443.1,176.7 443.2,180.1 443.4,182.4 443.6,183.4 443.8,182.2 444.0,182.0 444.1,185.5 444.3,186.0 444.5,186.5 444.8,184.0 445.0,179.4 445.2,182.4 445.5,185.6 445.6,189.3 445.8,190.0 445.8,185.4 446.0,186.5 446.2,189.0 446.4,184.5 446.6,182.6 446.8,184.4 446.9,183.7 447.1,186.4 447.3,183.9 447.4,182.9 447.5,182.9 447.7,183.9 447.8,185.1 448.0,182.0 448.0,180.8 448.1,185.8 448.3,184.5 448.5,182.9 448.6,180.9 448.7,178.0 448.8,177.8 448.9,182.9 449.0,183.0 449.2,186.4 449.4,185.2 449.7,184.3 449.9,184.7 450.0,184.5 450.3,181.7 450.5,182.9 450.7,186.3 450.8,181.3 450.9,177.9 451.0,177.0 451.0,174.1 451.1,171.2 451.1,173.7 451.1,177.2 451.2,181.0 451.3,181.0 451.4,186.4 451.6,185.9 451.8,183.3 451.9,179.0 452.1,182.2 452.3,181.6 452.4,177.7 452.5,180.7 452.7,181.3 452.9,185.5 453.0,185.7 453.2,189.4 453.3,187.3 453.5,188.8 453.5,194.8 453.5,193.1 453.6,192.3 453.7,193.4 453.8,188.1 453.9,188.0 454.0,186.1 454.1,185.6 454.2,185.9 454.3,189.4 454.5,185.4 454.6,185.6 454.8,188.7 455.0,184.7 455.0,185.8 455.2,186.9 455.5,184.8 455.6,182.9 455.8,184.3 456.0,182.3 456.1,185.5 456.3,186.6 456.4,190.0 456.6,188.1 456.8,187.2 456.9,188.9 457.1,189.5 457.2,194.7 457.4,191.6 457.5,195.3 457.7,200.4 457.7,199.2 457.8,197.1 458.0,197.3 458.0,198.2 458.2,198.3 458.3,203.0 458.5,203.0 458.6,202.3 458.7,198.9 458.9,199.9 459.0,196.1 459.2,193.8 459.4,189.7 459.6,194.4 459.9,193.2 460.2,191.6 460.5,194.6 460.8,194.6 461.1,195.1 461.5,195.5 462.1,194.0 462.4,196.7 462.8,195.8 463.0,199.8 463.4,198.3 463.9,197.3 464.4,195.4 464.7,191.5 464.9,189.4 465.0,191.4 465.2,190.6 465.4,187.7 465.5,190.6 465.5,191.0 465.6,191.0 465.8,193.1 465.9,190.3 466.1,190.0 466.3,187.6 466.5,190.0 466.8,192.4 467.1,195.3 467.3,197.2 467.5,199.7 467.6,202.2 467.7,200.6 467.9,200.8 468.1,200.0 468.3,196.7 468.5,199.3 468.6,205.9 468.6,205.2 468.7,204.7 468.8,206.3 468.9,204.6 469.1,202.7 469.3,197.5 469.4,194.5 469.6,194.7 469.7,190.4 469.8,186.9 469.9,188.1 470.1,187.6 470.3,188.2 470.4,185.7 470.5,180.3 470.6,179.0 470.6,177.7 470.8,178.6 470.9,184.3 471.0,191.1 471.2,191.3 471.4,192.7 471.6,195.3 471.7,198.8 471.9,197.0 472.2,201.0 472.4,201.3 472.6,198.7 473.0,195.7 473.3,193.2 473.5,192.6 473.8,194.7 474.2,192.3 474.5,194.7 474.9,194.6 475.4,196.7 475.7,193.4 475.9,194.1 476.2,192.8 476.5,190.9 476.8,194.3 477.2,190.4 477.4,187.0 477.6,184.5 477.8,187.7 478.0,187.2 478.3,184.2 478.4,181.4 478.4,180.1 478.4,175.5 478.5,173.5 478.5,177.3 478.6,171.4 478.6,171.0 478.6,169.8 478.7,168.8 478.7,167.6 478.8,166.8 478.8,167.1 478.9,172.8 479.0,172.6 479.0,172.2 479.1,170.6 479.3,171.6 479.4,169.1 479.4,162.4 479.5,159.7 479.5,158.8 479.6,157.3 479.6,158.5 479.7,152.3 479.7,153.5 479.7,151.9 479.7,149.9 479.8,147.1 479.8,150.7 479.9,146.5 479.9,145.3 479.9,142.7 480.0,140.2 480.0,137.7 480.1,134.8 480.1,138.3 480.1,135.5 480.2,139.5 480.2,137.5 480.2,139.1 480.3,143.5 480.3,148.5 480.4,149.8 480.4,151.1 480.4,154.9 480.5,154.3 480.5,156.1 480.5,159.0 480.6,161.1 480.7,159.2 480.8,155.2 480.9,152.9 480.9,150.5 480.9,158.3 481.0,165.8 481.0,167.7 481.0,167.2 481.0,172.6 481.1,168.0 481.2,166.8 481.3,163.5 481.3,166.5 481.4,170.3 481.4,168.3 481.5,169.7 481.6,172.1 481.6,176.9 481.6,169.4 481.7,171.6 481.9,170.3 482.0,174.9 482.1,174.8 482.2,172.4 482.2,176.9 482.3,178.9 482.4,178.7 482.6,177.6 482.6,182.5 482.7,179.4 482.7,183.9 482.8,186.1 482.9,186.5 482.9,190.0 482.9,192.5 482.9,189.7 483.0,186.1 483.0,187.3 483.1,192.9 483.2,189.8 483.3,189.9 483.4,185.3 483.5,188.5 483.6,183.5 483.7,185.2 483.8,182.3 483.8,181.0 483.9,185.9 484.0,188.8 484.2,186.5 484.4,186.5 484.6,185.4 484.7,183.5 484.8,181.2 485.0,182.9 485.1,186.3 485.2,190.7 485.3,190.7 485.5,186.5 485.5,192.3 485.6,194.6 485.7,190.7 485.9,189.0 486.0,193.0 486.2,189.3 486.3,191.1 486.5,191.7 486.6,188.9 486.7,189.7 486.9,188.5 487.1,186.6 487.2,190.2 487.4,185.4 487.6,184.2 487.7,183.1 487.7,180.8 487.7,177.7 487.8,178.2 487.8,176.3 487.9,178.4 488.0,178.8 488.1,182.8 488.2,182.2 488.4,182.6 488.6,183.5 488.8,184.4 489.0,183.5 489.2,183.6 489.5,184.8 489.8,184.0 490.1,181.6 490.2,180.6 490.3,183.9 490.6,184.6 491.1,183.3 491.3,184.3 491.7,184.8 492.0,179.9 492.2,180.8 492.4,182.2 492.5,177.5 492.7,177.4 492.8,172.0 492.8,178.6 493.0,180.3 493.1,182.6 493.4,183.8 493.7,180.1 494.0,175.9 494.1,176.5 494.4,182.7 494.6,185.0 494.8,183.9 495.0,183.9 495.2,176.6 495.5,181.1 495.7,180.9 496.1,183.5 496.6,183.5 497.1,183.5 497.4,186.2 497.5,187.9 497.6,191.5 497.8,190.8 498.0,186.8 498.2,182.8 498.3,180.6 498.6,184.2 498.8,182.8 498.9,186.6 499.0,189.1 499.2,186.9 499.2,186.1 499.5,188.3 499.9,182.6 500.0,176.8 500.2,177.8 500.3,178.9 500.4,179.6 500.5,176.3 500.7,178.9 500.8,181.7 501.0,186.1 501.2,186.5 501.3,188.2 501.4,184.7 501.7,185.3 502.1,184.6 502.3,184.1 502.7,185.0 503.1,185.4 503.5,184.3 503.8,182.2 504.1,180.4 504.4,182.2 504.8,182.2 505.1,176.3 505.3,178.9 505.4,176.5 505.6,179.9 505.8,177.5 506.3,177.8 506.6,180.1 506.9,183.1 507.2,178.4 507.5,181.8 507.8,185.6 508.1,183.9 508.3,183.3 508.6,184.7 508.9,181.2 509.1,179.0 509.4,180.1 509.8,184.6 509.9,184.0 510.0,182.9 510.1,189.7 510.1,192.8 510.2,192.2 510.3,193.8 510.4,199.6 510.4,199.7 510.5,194.2 510.7,191.7 510.9,191.1 511.0,189.8 511.2,188.9 511.4,183.7 511.6,182.6 511.7,185.4 511.8,186.6 512.0,190.2 512.2,191.0 512.4,188.3 512.7,189.0 513.0,188.8 513.4,190.5 513.8,189.0 514.1,192.5 514.4,193.1 514.5,194.8 514.7,191.1 515.0,191.4 515.3,192.0 515.6,189.7 515.8,186.1 516.1,187.0 516.4,185.6 516.4,187.9 516.7,187.2 516.8,184.7 517.1,185.6 517.6,186.9 517.9,185.5 518.2,184.2 518.8,184.6 519.3,183.7 519.9,184.2 520.3,183.8 520.7,183.6 521.0,183.5 521.4,183.9 521.9,184.8 522.4,184.8 522.5,185.9 523.0,188.2 523.6,185.9 524.2,187.4 524.6,187.4 525.1,182.2 525.5,181.6 525.9,179.6 526.2,178.9 526.4,179.0 526.7,178.6 527.2,176.6 527.6,179.7 528.1,179.1 528.5,176.0 528.8,175.9 529.1,173.8 529.4,176.7 529.9,177.9 530.2,175.9 530.6,181.7 531.0,179.9 531.6,179.7 531.9,175.4 532.3,179.1 532.7,179.6 533.1,180.3 533.4,182.1 533.8,180.3 534.1,176.5 534.2,175.3 534.5,174.6 534.7,176.6 535.0,176.8 535.2,178.0 535.5,178.2 535.8,181.0 536.1,181.0 536.5,182.7 536.7,177.1 536.9,177.3 537.1,178.3 537.4,179.4 537.6,181.2 537.8,177.3 538.1,178.2 538.5,179.2 538.7,183.1 538.9,185.4 539.1,183.5 539.4,184.5 539.7,183.3 540.0,185.9 540.2,186.9 540.6,185.9 541.0,182.4 541.6,182.3 542.0,181.8 542.3,182.2 542.8,178.9 543.2,178.5 543.7,178.5 544.2,179.0 544.6,179.5 545.2,179.5 545.5,180.5 545.7,181.3 545.9,184.1 546.2,184.6 546.4,184.1 546.8,184.6 547.5,184.2 547.7,183.0 547.9,182.5 548.1,181.9 548.3,185.7 548.6,186.2 548.7,188.6 548.8,191.7 548.9,191.3 549.1,190.9 549.5,190.8 549.8,188.9 550.1,190.7 550.4,193.0 550.7,191.1 551.1,190.3 551.6,191.4 552.1,194.8 552.4,195.7 552.9,192.6 553.4,193.0 553.8,194.3 554.5,193.2 555.3,194.6 555.7,198.1 556.1,195.8 556.5,193.3 556.9,193.8 557.4,190.9 557.8,191.5 558.1,190.0 558.4,191.2 558.9,188.6 559.0,186.9 559.3,185.6 559.7,185.0 560.2,185.4 560.5,184.2 561.0,185.5 561.4,186.0 561.9,185.3 562.3,188.1 562.7,188.0 563.1,187.6 563.2,184.0 563.4,185.0 563.6,186.6 563.8,182.4 564.0,180.4 564.2,182.6 564.4,185.9 564.7,187.3 564.8,189.0 565.1,185.4 565.3,187.4 565.7,186.8 566.0,183.0 566.2,183.3 566.6,184.7 567.0,185.7 567.6,184.3 567.8,185.7 568.1,183.5 568.5,183.9 568.8,180.0 569.1,180.7 569.5,182.1 570.0,180.0 570.5,182.0 570.8,179.7 571.0,178.3 571.2,181.6 571.7,180.3 572.2,179.9 572.6,177.4 572.8,175.7 573.1,178.0 573.5,176.5 574.0,179.9 574.0,182.3 574.3,181.6 574.4,185.9 574.4,188.6 574.5,188.7 574.6,192.4 574.6,194.9 574.8,196.1 574.8,200.5 574.8,207.5 574.8,211.9 574.8,206.9 574.9,209.5 575.0,211.2 575.0,219.6 575.0,227.1 575.1,236.4 575.1,242.4 575.1,269.8 575.1,258.0 575.1,259.7 575.1,241.6 575.1,230.6 575.1,229.1 575.2,236.4 575.2,236.1 575.2,241.1 575.2,242.5 575.3,243.7 575.3,241.6 575.3,245.2 575.4,243.4 575.4,237.1 575.4,243.2 575.5,241.7 575.5,242.6 575.6,238.1 575.6,242.5 575.6,250.6 575.6,251.4 575.7,245.9 575.7,247.3 575.7,245.3 575.8,247.4 575.9,243.9 575.9,243.2 576.0,244.2 576.1,244.1 576.2,247.2 576.3,241.8 576.4,244.5 576.4,245.0 576.6,243.7 576.7,244.9 576.9,243.6 577.0,245.6 577.1,246.7 577.2,247.8 577.3,246.5 577.5,246.5 577.6,245.5 577.8,243.1 577.9,243.2 578.2,242.8 578.4,240.2 578.6,241.5 578.9,242.9 579.1,244.5 579.4,243.9 579.7,243.5 580.0,245.5 580.3,245.4 580.6,247.5 580.8,246.5 581.1,249.7 581.3,250.7 581.4,249.9 581.7,247.8 581.9,247.4 582.2,245.6 582.4,240.3 582.5,242.5 582.6,245.2 582.8,243.3 583.0,244.0 583.3,245.8 583.6,241.8 583.9,241.1 584.2,241.7 584.5,242.6 584.6,238.3 584.7,236.7 584.9,235.5 585.1,235.3 585.3,235.9 585.6,239.4 585.9,242.8 586.2,242.1 586.7,244.8 587.1,247.1 587.3,248.7 587.6,249.6 587.7,252.0 587.8,248.9 587.9,247.8 588.0,250.2 588.3,252.7 588.5,250.7 588.8,251.6 588.9,255.2 589.0,254.5 589.2,253.7 589.4,254.0 589.8,254.5 590.0,252.6 590.2,248.4 590.2,253.1 590.2,254.9 590.3,258.1 590.3,259.4 590.4,259.5 590.5,260.8 590.6,262.2 590.6,263.7 590.7,262.8 590.8,261.5 591.0,262.4 591.2,258.9 591.4,258.2 591.5,255.9 591.7,254.8 591.9,256.6 592.1,253.4 592.3,252.5 592.4,255.7 592.6,256.4 592.8,258.3 592.9,259.5 593.2,260.2 593.6,260.0 593.8,259.9 594.0,258.9 594.4,258.6 594.6,257.7 594.9,257.8 595.4,258.5 595.7,255.4 596.0,257.6 596.4,255.5 596.7,251.1 597.0,251.0 597.2,249.2 597.4,246.8 597.6,248.5 597.9,249.5 598.1,252.2 598.3,254.8 598.6,254.4 599.0,253.9 599.4,255.2 599.6,258.0 600.0,259.0 600.2,262.2 600.4,260.3 600.6,263.7 600.7,261.7 601.1,262.4 601.4,261.7 601.7,262.9 601.8,264.9 602.0,264.6 602.1,261.1 602.3,260.5 602.7,260.8 603.0,261.7 603.2,258.2 603.6,259.4 603.9,261.5 604.2,258.2 604.5,258.8 604.7,259.8 605.0,259.3 605.3,259.5 605.4,260.6 605.7,257.6 606.0,256.6 606.2,260.8 606.4,261.2 606.8,264.9 606.8,268.5 606.9,266.5 607.1,266.3 607.4,265.5 607.8,265.8 608.1,265.5 608.4,267.5 608.5,263.8 608.7,264.0 608.9,264.9 609.1,262.5 609.3,262.1 609.4,261.5 609.7,263.1 609.9,265.4 610.0,265.4 610.1,262.8 610.2,264.3 610.4,264.4 610.7,265.1 610.9,264.3 611.2,265.7 611.4,266.4 611.7,267.2 611.9,267.6 612.1,269.9 612.1,271.1 612.2,269.3 612.3,268.3 612.5,272.5 612.5,276.0 612.6,275.6 612.8,273.0 613.0,271.9 613.2,273.1 613.4,272.7 613.7,275.0 613.9,276.6 614.2,276.5 614.4,274.2 614.7,275.5 615.1,277.9 615.4,276.9 615.7,279.3 616.0,280.5 616.2,280.4 616.7,281.3 616.9,277.8 617.3,279.7 617.7,282.2 617.9,282.7 618.1,281.5 618.3,282.5 618.5,283.6 618.7,286.8 618.7,287.0 619.0,285.4 619.2,283.6 619.4,282.2 619.5,276.2 619.6,274.6 619.7,274.6 619.8,277.0 620.0,281.1 620.1,283.8 620.1,280.8 620.3,282.4 620.4,281.6 620.6,282.1 620.8,281.4 621.1,279.9 621.2,281.4 621.4,278.2 621.6,280.5 621.8,282.7 621.9,287.7 622.2,285.0 622.4,282.2 622.7,285.9 622.9,286.8 623.1,287.0 623.1,291.2 623.2,288.9 623.4,286.7 623.6,287.5 623.8,289.8 624.0,289.5 624.2,290.9 624.5,289.8 624.7,288.5 625.0,291.3 625.3,291.6 625.5,290.6 625.9,291.1 626.1,286.8 626.5,286.0 626.8,286.0 627.1,287.3 627.4,288.1 627.8,289.0 628.2,288.8 628.5,289.8 628.6,301.1 628.6,295.0 628.7,293.2 628.8,291.4 628.8,291.5 628.9,292.1 628.9,291.9 629.0,291.7 629.1,291.6 629.2,294.0 629.2,294.7 629.3,293.8 629.3,292.8 629.4,292.0 629.4,294.3 629.6,294.3 629.8,294.1 630.3,294.8 630.5,293.4 630.9,290.5 631.0,288.5 631.2,284.5 631.5,284.3 631.8,281.3 632.2,281.0 632.6,281.6 633.0,283.1 633.3,281.7 633.8,281.3 634.3,281.3 634.7,283.0 635.1,280.1 635.7,279.9 636.3,281.2 636.8,281.8 637.2,282.2 637.7,282.1 638.3,284.1 638.9,282.9 639.3,281.5 639.5,285.2 640.1,284.8 640.4,286.6 640.9,283.4 641.3,283.0 641.8,284.9 642.3,285.4 642.9,287.5 643.7,288.5 644.1,291.7 644.2,292.6 644.3,294.7 644.5,298.4 644.7,297.4 644.9,293.1 645.2,293.3 645.4,292.0 645.7,293.3 645.9,295.1 646.2,296.6 646.4,296.3 646.5,291.6 646.6,288.8 646.7,286.4 646.8,287.0 647.0,285.2 647.1,287.0 647.4,287.1 647.6,288.0 647.8,286.5 647.9,284.1 648.1,288.5 648.2,289.6 648.5,286.5 648.8,286.7 649.1,290.1 649.4,293.0 649.5,297.0 649.5,298.2 649.7,296.6 649.8,302.0 650.0,297.5 650.1,305.3 650.2,303.7 650.3,302.1 650.5,302.6 650.7,299.9 650.9,299.0 651.2,298.2 651.5,300.6 651.7,299.4 652.0,294.5 652.3,298.3 652.6,295.3 652.7,288.2 652.8,286.6 653.0,284.2 653.0,281.3 653.2,281.4 653.4,283.9 653.5,284.1 653.7,287.5 654.0,288.1 654.2,285.8 654.6,282.7 654.9,285.3 655.3,284.1 655.8,284.7 656.2,289.2 656.7,291.9 657.1,292.6 657.5,295.2 657.8,297.0 658.0,295.0 658.3,294.0 658.6,291.2 659.1,291.7 659.5,290.9 660.0,289.4 660.3,287.2 660.8,288.5 661.3,288.3 661.9,289.0 662.3,291.2 662.7,294.1 663.1,292.6 663.7,292.2 664.4,293.0 664.5,288.6 665.0,291.4 665.4,291.9 666.1,291.8 666.6,292.1 667.2,293.1 667.7,295.0 668.2,293.1 668.8,292.9 669.4,291.2 669.8,292.7 670.3,293.2 670.8,295.1 671.3,295.2 671.8,296.0 672.3,296.5 672.9,296.8 673.4,294.6 673.7,296.6 674.0,296.6 674.3,297.2 674.6,298.9 674.7,298.6 674.9,302.9 675.2,301.8 675.4,302.1 675.6,306.8 675.7,306.1 675.9,302.1 676.1,300.4 676.3,300.7 676.6,302.2 676.9,300.5 677.2,297.7 677.6,299.2 678.0,302.1 678.4,298.5 678.8,299.5 679.3,298.6 679.8,300.3 680.5,298.7 680.9,300.1 681.4,301.4 682.0,300.0 682.7,299.9 683.4,298.8 684.4,300.0 684.9,299.2 685.6,297.2 686.1,298.3 686.4,294.3 686.7,293.8 687.0,292.9 687.5,291.3 687.7,290.4 688.3,290.2 688.8,291.6 689.2,287.6 689.6,287.9 690.3,289.9 690.9,288.0 691.6,289.2 692.0,289.4 692.4,290.5 692.8,288.6 693.1,290.3 693.6,291.2 694.2,289.9 694.7,291.2 695.1,291.3 695.4,293.1 695.7,293.9 696.2,294.1 696.4,295.1 696.5,297.5 696.7,295.7 697.0,294.4 697.4,296.4 697.8,299.6 698.2,297.7 698.8,296.9 699.6,298.4 700.3,298.1 701.1,297.8 701.7,299.4 702.2,299.7 702.3,304.1 702.4,303.5 702.5,308.2 702.7,307.0 702.9,304.2 703.1,305.8 703.3,303.3 703.6,300.6 703.8,297.8 704.0,296.4 704.2,299.0 704.4,301.3 704.6,295.6 704.8,294.1 705.1,297.5 705.3,296.7 705.6,291.9 705.7,291.3 705.9,291.5 706.2,295.2 706.5,294.6 706.8,294.3 707.1,296.6 707.4,299.2 707.6,299.9 707.8,301.9 708.0,304.8 708.2,303.5 708.5,303.4 708.7,303.5 709.1,305.3 709.2,307.7 709.4,307.3 709.7,304.9 710.0,303.0 710.6,304.8 711.1,306.0 711.9,304.4 712.5,306.1 713.3,304.8 713.9,305.5 714.7,307.4 714.9,315.2 714.9,311.2 714.9,311.9 715.1,310.4 715.6,309.1 716.2,310.1 716.9,307.0 717.4,304.4 718.0,304.8 719.1,305.3 719.8,306.5 720.7,305.4 721.1,301.5 721.3,299.8 722.2,303.6 723.1,300.8 723.7,299.6 724.7,300.0 725.8,299.0 726.7,297.3 727.2,296.4 728.3,298.2 729.2,298.8 729.6,298.0 730.4,298.3 731.0,300.8 731.4,302.6 731.8,306.4 732.4,304.8 733.1,302.4 734.1,301.5 735.4,303.2 736.5,301.1 737.8,301.3 739.2,300.9 740.0,299.9 741.0,300.2 741.9,299.0 742.5,302.4 743.2,300.7 744.0,301.8 744.8,304.8 745.6,304.9 746.6,303.5 747.6,301.8 748.3,301.2 749.0,303.9 749.5,303.0 750.4,303.5 750.7,306.3 751.0,306.0 751.9,302.1 752.7,302.3 753.5,305.9 754.2,305.2 754.6,306.6 754.9,311.9 755.2,310.3 755.7,307.5 756.3,308.9 757.0,310.4 757.4,313.7 757.7,313.2 758.2,310.1 758.7,310.1 759.2,312.0 759.2,313.2 759.2,315.9 759.3,315.6 759.4,319.2 759.4,318.4 759.4,322.9 759.5,322.1 759.6,321.6 759.7,319.9 759.8,320.2 760.0,317.7 760.1,317.4 760.4,317.0 760.5,316.0 760.7,316.8 760.7,320.3 761.0,318.5 761.4,319.9 761.7,321.9 761.7,319.6 762.0,323.1 762.1,324.9 762.3,325.9 762.4,324.4 762.8,324.6 763.0,327.9 763.1,329.2 763.1,331.7 763.3,331.1 763.5,330.2 763.6,334.7 763.6,337.5 763.6,337.2 763.7,336.3 763.8,333.7 764.0,333.6 764.2,335.6 764.4,337.5 764.7,335.7 764.9,332.0 765.1,332.2 765.3,331.4 765.7,332.8 766.1,332.5 766.5,334.8 767.0,336.0 767.3,332.2 767.7,331.5 768.2,330.9 768.5,330.6 769.0,330.7 769.3,329.0 769.6,323.8 769.9,322.9 770.2,322.8 770.5,322.0 770.9,324.7 771.3,322.6 771.9,323.1 772.5,326.5 772.9,327.3 773.4,323.0 774.0,324.0 774.8,322.9 775.6,325.2 776.3,323.8 776.8,322.6 777.2,323.7 777.8,323.4 778.0,323.1 778.2,322.9 778.9,324.5 779.6,326.6 780.4,324.9 781.4,325.7 782.3,324.4 783.1,324.9 783.7,322.0 784.1,320.9 784.6,321.9 785.0,322.9 785.1,317.5 785.2,316.1 785.4,319.1 785.7,318.4 785.8,315.4 786.0,314.5 786.3,318.6 786.5,321.9 786.6,319.7 787.0,318.7 787.2,316.7 787.6,318.7 787.9,316.2 788.2,318.7 788.5,321.2 788.9,317.8 789.3,316.7 789.6,313.5 789.9,314.5 790.3,311.5 790.7,314.1 791.3,315.4 791.9,315.8 792.4,317.2 793.2,315.2 793.5,311.8 794.0,311.8 794.9,315.1 795.5,312.9 796.1,315.9 796.9,315.2 797.6,313.9 798.2,314.5 798.7,315.0 799.3,314.4 799.9,314.9 800.6,315.0 801.0,314.5 801.8,315.5 802.8,316.1 803.6,317.9 804.1,318.4 804.8,315.7 805.4,317.5 806.1,317.5 806.8,318.7 807.6,318.5 808.6,318.8 809.6,317.9 810.4,320.7 810.9,320.8 811.8,322.6 812.4,318.2 812.8,322.9 813.2,324.2 813.7,322.5 814.1,320.4 814.4,317.7 814.6,313.4 814.9,313.3 815.1,310.6 815.5,313.1 815.7,319.1 815.9,322.4 816.2,321.4 816.6,322.1 816.9,320.1 817.3,320.7 817.7,316.0 818.0,316.3 818.6,317.2 819.1,315.0 819.4,310.1 819.7,310.4 820.0,309.9 820.3,308.6 820.6,310.0 821.1,311.9 821.9,311.1 822.6,310.1 823.3,309.1 823.9,312.2 824.6,311.2 825.3,313.7 826.2,313.2 826.8,314.2 827.4,314.4 828.2,313.9 828.8,316.2 829.7,316.6 830.3,314.0 830.6,312.2 830.8,312.0 830.9,313.6 831.0,313.5 831.1,313.2 831.4,314.5 831.8,312.2 832.3,313.9 832.4,313.3 832.5,313.4 832.9,314.5 833.2,313.8 833.7,314.9 834.2,315.3 834.6,315.5 834.8,313.6 835.2,313.4 835.4,313.3 835.7,314.0 836.2,315.1 836.8,313.8 837.1,313.3 837.3,311.0 837.6,314.2 838.2,315.7 838.6,315.3 839.1,315.6 839.5,316.1 839.9,319.3 840.3,319.4 840.5,318.0 841.0,319.4 841.1,322.2 841.5,320.7 841.9,320.4 842.3,322.6 842.6,320.6 842.9,321.3 843.2,321.1 843.6,321.8 843.9,321.3 844.1,316.3 844.3,321.1 844.7,319.0 845.1,320.8 845.5,320.6 845.7,318.9 846.0,318.3 846.2,319.3 846.5,316.2 846.7,316.0 846.9,316.6 847.1,315.4 847.3,317.8 847.7,317.8 847.8,320.4 847.9,314.4 848.0,316.6 848.2,316.5 848.5,315.4 848.8,315.1 849.1,315.9 849.4,313.8 849.6,313.8 850.0,312.1 850.2,313.9 850.4,311.2 850.7,316.6 850.9,315.7 851.2,315.4 851.4,317.8 851.6,317.7 851.8,318.4 851.9,319.5 852.1,320.4 852.2,319.2 852.4,318.5 852.5,317.9 852.6,318.6 852.8,319.0 852.8,322.6 852.9,320.2 853.1,321.3 853.3,321.7 853.4,323.4 853.6,322.3 853.8,322.0 854.1,327.1 854.1,326.8 854.2,327.3 854.4,329.6 854.5,330.5 854.7,327.9 854.8,326.6 855.0,327.6 855.4,328.9 855.8,329.0 856.1,330.5 856.3,330.4 856.8,328.0 857.1,328.6 857.3,328.2 857.6,326.0 857.9,327.4 858.3,326.9 858.6,324.6 859.2,324.7 859.4,323.9 860.2,322.9 860.7,325.5 861.0,322.4 861.7,324.4 862.5,323.9 863.1,323.6 863.7,324.4 864.0,325.2 864.3,326.0 864.8,323.4 865.2,320.6 865.6,321.2 865.9,324.7 866.4,321.4 867.2,321.8 867.9,321.6 868.1,326.1 868.3,328.2 868.4,332.5 868.5,333.3 868.5,335.5 868.6,341.0 868.6,341.5 868.7,349.2 868.7,345.9 868.8,350.4 868.8,344.6 868.9,341.2 868.9,337.8 869.1,338.3 869.2,342.9 869.3,346.2 869.4,343.3 869.5,337.1 869.7,341.1 869.8,340.4 870.0,338.1 870.3,338.9 870.5,335.8 870.7,332.4 870.8,327.0 870.9,324.4 871.1,326.4 871.2,326.5 871.5,328.5 871.6,330.2 871.8,332.2 872.0,331.7 872.2,335.1 872.3,337.6 872.4,338.7 872.5,337.0 872.6,336.5 872.8,337.8 872.9,339.0 873.0,341.6 873.1,340.8 873.3,341.4 873.5,341.7 873.7,336.5 874.0,336.4 874.3,338.3 874.8,335.7 875.0,335.8 875.3,332.7 875.7,333.7 876.2,334.4 876.7,335.8 877.6,337.1 878.0,337.2 878.5,336.2 879.2,335.5 879.6,334.4 880.2,334.0 880.6,334.3 880.7,337.5 880.7,346.4 880.8,349.1 880.8,347.8 880.8,348.1 880.8,350.5 880.8,350.3 880.8,348.8 880.9,347.7 881.0,344.5 881.2,347.2 881.3,348.3 881.4,348.2 881.5,352.0 881.7,353.5 881.8,349.8 882.0,347.3 882.3,349.2 882.5,347.0 882.8,348.5 883.1,349.5 883.5,348.7 883.7,348.4 883.9,346.1 884.1,347.8 884.2,346.7 884.5,347.4 884.8,349.0 885.1,348.5 885.5,349.6 885.8,353.5 885.9,353.5 886.1,354.6 886.2,356.1 886.3,357.3 886.4,357.1 886.4,357.7 886.5,359.6 886.6,359.2 886.6,357.7 886.8,357.7 886.9,357.5 887.0,353.8 887.1,351.9 887.3,351.8 887.6,353.6 887.9,350.8 888.1,350.7 888.5,350.3 888.9,351.9 889.2,350.8 889.5,349.5 889.9,347.4 890.2,349.4 890.6,349.3 891.0,347.6 891.4,346.4 891.8,345.5 892.2,342.3 892.5,338.8 892.6,338.3 892.9,337.0 893.1,338.7 893.4,339.8 893.7,340.5 893.9,339.1 894.2,337.7 894.4,337.2 894.5,338.5 894.7,342.1 895.0,340.7 895.1,343.6 895.3,342.5 895.5,341.0 895.7,340.9 895.8,341.1 896.0,342.8 896.2,341.7 896.4,342.8 896.5,346.9 896.6,349.0 896.7,343.0 896.9,342.2 897.2,344.4 897.5,343.2 897.7,346.8 897.9,343.5 898.0,340.0 898.3,342.6 898.5,343.8 898.8,339.8 899.0,341.8 899.2,339.0 899.5,339.1 899.8,342.9 899.9,348.2 900.0,347.4 900.1,343.9 900.2,343.3 900.3,335.6 900.4,334.7 900.5,335.8 900.6,333.3 900.7,333.1 900.9,334.2 901.1,333.4 901.4,335.1 901.7,335.6 901.9,339.4 902.2,337.3 902.3,339.8 902.4,340.0 902.5,343.9 902.7,340.8 902.9,342.5 903.1,342.2 903.3,339.1 903.7,344.0 903.9,341.6 904.3,342.3 904.6,344.9 905.1,342.9 905.7,346.4 906.2,344.5 906.8,345.1 907.4,346.7 907.9,346.1 908.3,348.6 908.9,348.5 909.3,349.7 910.0,349.5 910.6,350.0 911.3,348.2 911.8,350.3 912.2,352.6 912.6,350.5 913.4,349.5 913.8,354.3 914.0,354.7 914.4,353.9 914.9,355.3 915.2,359.4 915.7,356.6 915.9,362.7 916.1,360.6 916.3,363.9 916.3,364.0 916.4,366.3 916.5,366.9 916.7,362.2 916.8,361.6 917.1,362.2 917.3,360.5 917.7,362.3 918.0,363.6 918.5,362.4 919.1,363.9 919.6,363.4 920.1,364.9 920.4,367.0 920.8,366.9 921.1,368.4 921.4,368.5 921.7,369.5 921.8,370.9 922.0,372.0 922.2,370.7 922.5,369.0 922.7,371.9 922.8,371.9 922.9,376.0 922.9,377.8 923.0,380.9 923.0,381.5 923.0,385.7 923.1,387.4 923.1,389.0 923.2,390.6 923.2,396.8 923.3,394.9 923.3,399.5 923.3,398.0 923.4,399.3 923.4,399.2 923.6,395.4 923.7,397.5 923.8,390.4 923.8,388.6 924.0,392.9 924.1,393.8 924.3,394.8 924.3,396.8 924.5,395.3 924.6,397.0 924.7,397.2 924.8,396.8 924.9,395.5 925.0,394.5 925.1,397.0 925.2,392.8 925.3,393.0 925.4,394.6 925.5,394.8 925.7,395.5 925.8,396.5 925.9,398.2 926.1,400.5 926.1,403.7 926.2,407.3 926.2,416.0 926.2,422.4 926.2,416.8 926.2,412.9 926.3,413.9 926.3,412.7 926.3,413.4 926.4,415.1 926.4,415.9 926.4,415.6 926.5,413.9 926.6,411.8 926.8,414.1 926.9,415.7 927.0,416.4 927.1,414.7 927.2,416.8 927.3,417.4 927.4,418.8 927.5,418.3 927.7,416.5 927.8,420.2 927.9,422.2 927.9,433.6 928.0,425.0 928.0,417.8 928.1,419.2 928.2,419.5 928.3,419.7 928.4,417.0 928.6,411.6 928.8,410.9 929.0,415.6 929.1,415.0 929.3,412.7 929.4,411.8 929.5,411.7 929.7,415.8 929.9,416.0 930.0,418.6 930.2,418.0 930.3,416.4 930.5,415.6 930.7,415.7 930.8,416.5 931.0,415.8 931.1,412.5 931.3,408.8 931.4,407.4 931.5,408.8 931.7,408.7 931.8,407.4 932.1,409.6 932.5,411.8 932.9,412.3 933.2,411.1 933.3,406.4 933.5,407.2 933.7,405.1 933.9,404.0 934.0,403.7" fill="none" stroke="#d97706" stroke-width="1.2" stroke-linejoin="round" opacity="0.6"/><text x="942" y="472.0" text-anchor="start" font-size="11" fill="#d97706">2.47</text><text x="942" y="396.0" text-anchor="start" font-size="11" fill="#d97706">3.19</text><text x="942" y="320.0" text-anchor="start" font-size="11" fill="#d97706">3.90</text><text x="942" y="244.0" text-anchor="start" font-size="11" fill="#d97706">4.62</text><text x="942" y="168.0" text-anchor="start" font-size="11" fill="#d97706">5.34</text><text x="942" y="92.0" text-anchor="start" font-size="11" fill="#d97706">6.05</text><text x="942" y="80.0" text-anchor="start" font-size="11" font-weight="600" fill="#d97706">price</text>
  <polygon points="89.0,468.0 89.0,389.3 89.0,377.7 96.4,365.8 120.3,371.6 122.1,380.2 125.0,393.2 141.7,412.7 148.3,416.8 175.1,404.6 179.9,395.3 182.0,400.7 193.6,384.6 206.5,390.4 231.6,373.3 234.3,361.9 236.7,350.6 238.2,356.3 260.4,365.0 260.6,377.9 261.3,397.4 263.9,402.7 269.1,410.6 287.5,387.2 305.8,375.3 333.7,381.3 340.0,390.4 372.3,403.9 391.9,363.8 422.7,352.0 426.0,340.1 426.2,345.9 428.2,328.8 428.4,334.6 430.9,343.2 432.2,356.2 433.8,317.8 434.6,323.6 435.2,306.5 435.5,312.2 436.8,320.9 441.6,295.3 443.2,301.3 451.1,310.3 451.1,323.8 458.3,283.8 470.5,271.9 471.3,277.9 478.3,286.9 479.5,260.2 480.0,248.4 480.3,254.4 481.0,236.6 482.7,242.6 492.7,251.6 493.2,265.1 574.8,225.1 575.0,213.7 575.1,202.3 575.1,208.3 575.1,217.3 575.1,230.8 575.1,251.1 575.1,239.2 575.6,227.8 590.3,233.9 597.2,242.9 600.0,256.4 615.5,216.3 628.6,205.0 635.2,193.1 644.4,181.7 653.3,169.9 672.4,158.5 675.6,164.5 677.2,173.5 702.3,187.0 703.7,207.2 709.1,213.2 725.5,222.2 750.7,235.7 761.7,195.7 763.1,201.7 769.6,210.7 819.9,184.1 828.5,190.1 868.4,172.3 868.6,178.3 870.7,187.3 873.0,200.8 875.2,221.1 880.7,227.1 880.8,209.3 892.2,197.4 893.0,203.2 895.1,211.8 900.3,224.8 902.5,244.3 909.0,250.3 916.3,232.5 922.9,221.1 923.0,227.1 923.4,209.3 923.8,197.5 926.1,186.1 926.2,174.7 926.2,163.3 926.2,151.4 927.8,157.4 927.9,139.7 927.9,145.7 927.9,154.7 928.0,128.0 928.6,116.1 930.0,122.2 931.2,131.2 931.2,468.0" fill="#16a34a" fill-opacity="0.08"/>
  <polyline points="89.0,389.3 89.0,377.7 96.4,365.8 120.3,371.6 122.1,380.2 125.0,393.2 141.7,412.7 148.3,416.8 175.1,404.6 179.9,395.3 182.0,400.7 193.6,384.6 206.5,390.4 231.6,373.3 234.3,361.9 236.7,350.6 238.2,356.3 260.4,365.0 260.6,377.9 261.3,397.4 263.9,402.7 269.1,410.6 287.5,387.2 305.8,375.3 333.7,381.3 340.0,390.4 372.3,403.9 391.9,363.8 422.7,352.0 426.0,340.1 426.2,345.9 428.2,328.8 428.4,334.6 430.9,343.2 432.2,356.2 433.8,317.8 434.6,323.6 435.2,306.5 435.5,312.2 436.8,320.9 441.6,295.3 443.2,301.3 451.1,310.3 451.1,323.8 458.3,283.8 470.5,271.9 471.3,277.9 478.3,286.9 479.5,260.2 480.0,248.4 480.3,254.4 481.0,236.6 482.7,242.6 492.7,251.6 493.2,265.1 574.8,225.1 575.0,213.7 575.1,202.3 575.1,208.3 575.1,217.3 575.1,230.8 575.1,251.1 575.1,239.2 575.6,227.8 590.3,233.9 597.2,242.9 600.0,256.4 615.5,216.3 628.6,205.0 635.2,193.1 644.4,181.7 653.3,169.9 672.4,158.5 675.6,164.5 677.2,173.5 702.3,187.0 703.7,207.2 709.1,213.2 725.5,222.2 750.7,235.7 761.7,195.7 763.1,201.7 769.6,210.7 819.9,184.1 828.5,190.1 868.4,172.3 868.6,178.3 870.7,187.3 873.0,200.8 875.2,221.1 880.7,227.1 880.8,209.3 892.2,197.4 893.0,203.2 895.1,211.8 900.3,224.8 902.5,244.3 909.0,250.3 916.3,232.5 922.9,221.1 923.0,227.1 923.4,209.3 923.8,197.5 926.1,186.1 926.2,174.7 926.2,163.3 926.2,151.4 927.8,157.4 927.9,139.7 927.9,145.7 927.9,154.7 928.0,128.0 928.6,116.1 930.0,122.2 931.2,131.2" fill="none" stroke="#16a34a" stroke-width="2" stroke-linejoin="round"/>
  <line x1="88" y1="102" x2="110" y2="102" stroke="#16a34a" stroke-width="2.5"/><text x="116" y="106" font-size="11.5" fill="#374151">equity</text><line x1="88" y1="118" x2="110" y2="118" stroke="#d97706" stroke-width="2.5" opacity="0.8"/><text x="116" y="122" font-size="11.5" fill="#374151">price</text>
  <text x="78" y="502" text-anchor="start" font-size="12" fill="#6b7280">2026-01-01</text><text x="934" y="502" text-anchor="end" font-size="12" fill="#6b7280">2026-01-31</text>
</svg>
