<?xml version="1.0" encoding="UTF-8"?>
<svg xmlns="http://www.w3.org/2000/svg" width="1100" height="560" viewBox="0 0 1100 560" font-family="ui-sans-serif, system-ui, sans-serif">
  <rect width="1100" height="560" fill="#ffffff"/>
  <text x="80" y="28" font-size="18" font-weight="700" fill="#111827">Zone Recovery — ORDIUSDC fee-tier comparison (best setting)</text>
  <text x="80" y="48" font-size="12.5" fill="#6b7280">lev 10 · ratio 2 · gap 20% · maxSteps 4 · maxDD 60% · random  ·  equity per fee tier vip 0..9</text>
  <text x="80" y="68" font-size="12.5" font-weight="600" fill="#1d4ed8">USDC margin · BNB −10%</text>
  <line x1="80" y1="508.0" x2="932" y2="508.0" stroke="#e5e7eb" stroke-width="1"/><text x="70" y="512.0" text-anchor="end" font-size="12" fill="#6b7280">0.00</text><line x1="80" y1="424.0" x2="932" y2="424.0" stroke="#e5e7eb" stroke-width="1"/><text x="70" y="428.0" text-anchor="end" font-size="12" fill="#6b7280">9651</text><line x1="80" y1="340.0" x2="932" y2="340.0" stroke="#e5e7eb" stroke-width="1"/><text x="70" y="344.0" text-anchor="end" font-size="12" fill="#6b7280">19302</text><line x1="80" y1="256.0" x2="932" y2="256.0" stroke="#e5e7eb" stroke-width="1"/><text x="70" y="260.0" text-anchor="end" font-size="12" fill="#6b7280">28954</text><line x1="80" y1="172.0" x2="932" y2="172.0" stroke="#e5e7eb" stroke-width="1"/><text x="70" y="176.0" text-anchor="end" font-size="12" fill="#6b7280">38605</text><line x1="80" y1="88.0" x2="932" y2="88.0" stroke="#e5e7eb" stroke-width="1"/><text x="70" y="92.0" text-anchor="end" font-size="12" fill="#6b7280">48256</text>
  <line x1="80" y1="421.0" x2="932" y2="421.0" stroke="#9ca3af" stroke-width="1.5" stroke-dasharray="6 4"/>
  <polyline points="80.0,421.0 80.0,408.3 87.5,395.4 111.7,402.0 113.5,411.8 116.4,426.5 133.3,448.7 139.9,453.2 167.1,440.3 172.0,430.5 174.0,436.4 185.8,419.5 198.9,426.1 224.2,407.5 227.0,395.1 229.4,382.6 230.9,389.2 253.4,399.0 253.6,413.7 254.3,435.9 257.0,441.4 262.2,449.7 280.8,426.1 299.3,414.2 327.6,421.1 333.9,431.3 366.6,446.6 386.4,403.0 417.6,390.0 420.9,377.1 421.1,383.7 423.1,365.1 423.4,371.6 425.8,381.4 427.2,396.2 428.8,354.3 429.6,360.9 430.2,342.3 430.5,348.8 431.8,358.6 436.7,330.7 438.3,337.5 446.2,347.7 446.3,363.1 453.6,319.4 465.9,306.5 466.7,313.3 473.8,323.5 475.0,294.5 475.6,281.6 475.8,288.4 476.6,269.0 478.3,275.8 488.4,286.0 488.8,301.3 571.4,257.7 571.7,245.3 571.7,232.9 571.7,239.7 571.7,249.9 571.7,265.2 571.7,288.2 571.8,275.3 572.3,262.9 587.1,269.7 594.1,279.9 597.0,295.3 612.6,251.6 625.9,239.2 632.6,226.3 641.9,213.9 650.8,200.9 670.2,188.5 673.4,195.3 675.0,205.6 700.5,220.9 701.8,243.9 707.3,250.7 723.9,260.9 749.4,276.2 760.5,232.6 761.9,239.4 768.5,249.6 819.4,220.6 828.1,227.4 868.5,208.0 868.7,214.8 870.7,225.0 873.1,240.4 875.3,263.4 880.9,270.2 880.9,250.8 892.5,237.9 893.3,244.4 895.4,254.2 900.8,269.0 902.9,291.1 909.6,297.9 916.9,278.5 923.6,266.1 923.7,272.9 924.1,253.5 924.5,240.6 926.8,228.2 926.9,215.7 926.9,203.3 926.9,190.4 928.6,197.2 928.7,177.8 928.7,184.6 928.7,194.9 928.7,165.8 929.3,152.9 930.7,159.7 932.0,169.9" fill="none" stroke="#2563eb" stroke-width="1.8" stroke-linejoin="round" opacity="0.9"/>
  <polyline points="80.0,421.0 80.0,408.3 87.5,395.4 111.7,402.0 113.5,411.8 116.4,426.5 133.3,448.7 139.9,453.2 167.1,440.3 172.0,430.5 174.0,436.4 185.8,419.5 198.9,426.1 224.2,407.5 227.0,395.1 229.4,382.6 230.9,389.2 253.4,399.0 253.6,413.7 254.3,435.9 257.0,441.4 262.2,449.7 280.8,426.1 299.3,414.2 327.6,421.1 333.9,431.3 366.6,446.6 386.4,403.0 417.6,390.0 420.9,377.1 421.1,383.7 423.1,365.1 423.4,371.6 425.8,381.4 427.2,396.2 428.8,354.3 429.6,360.9 430.2,342.3 430.5,348.8 431.8,358.6 436.7,330.7 438.3,337.5 446.2,347.7 446.3,363.1 453.6,319.4 465.9,306.5 466.7,313.3 473.8,323.5 475.0,294.5 475.6,281.6 475.8,288.4 476.6,269.0 478.3,275.8 488.4,286.0 488.8,301.3 571.4,257.7 571.7,245.3 571.7,232.9 571.7,239.7 571.7,249.9 571.7,265.2 571.7,288.2 571.8,275.3 572.3,262.9 587.1,269.7 594.1,279.9 597.0,295.3 612.6,251.6 625.9,239.2 632.6,226.3 641.9,213.9 650.8,200.9 670.2,188.5 673.4,195.3 675.0,205.6 700.5,220.9 701.8,243.9 707.3,250.7 723.9,260.9 749.4,276.2 760.5,232.6 761.9,239.4 768.5,249.6 819.4,220.6 828.1,227.4 868.5,208.0 868.7,214.8 870.7,225.0 873.1,240.4 875.3,263.4 880.9,270.2 880.9,250.8 892.5,237.9 893.3,244.4 895.4,254.2 900.8,269.0 902.9,291.1 909.6,297.9 916.9,278.5 923.6,266.1 923.7,272.9 924.1,253.5 924.5,240.6 926.8,228.2 926.9,215.7 926.9,203.3 926.9,190.4 928.6,197.2 928.7,177.8 928.7,184.6 928.7,194.9 928.7,165.8 929.3,152.9 930.7,159.7 932.0,169.9" fill="none" stroke="#dc2626" stroke-width="1.8" stroke-linejoin="round" opacity="0.9"/>
  <polyline points="80.0,421.0 80.0,408.3 87.5,395.3 111.7,401.8 113.5,411.6 116.4,426.2 133.3,448.2 139.9,452.7 167.1,439.7 172.0,429.7 174.0,435.7 185.8,418.6 198.9,425.1 224.2,406.4 227.0,393.9 229.4,381.5 230.9,388.0 253.4,397.7 253.6,412.4 254.3,434.3 257.0,439.9 262.2,448.3 280.8,424.2 299.3,412.0 327.6,418.8 333.9,428.9 366.6,444.1 386.4,400.3 417.6,387.4 420.9,374.4 421.1,380.9 423.1,362.2 423.4,368.7 425.8,378.5 427.2,393.1 428.8,351.1 429.6,357.6 430.2,338.9 430.5,345.4 431.8,355.2 436.7,327.2 438.3,333.9 446.2,344.1 446.3,359.3 453.6,315.5 465.9,302.5 466.7,309.3 473.8,319.5 475.0,290.3 475.6,277.3 475.8,284.1 476.6,264.6 478.3,271.4 488.4,281.5 488.8,296.8 571.4,253.0 571.7,240.5 571.7,228.0 571.7,234.8 571.7,245.0 571.7,260.2 571.7,283.0 571.8,270.1 572.3,257.6 587.1,264.4 594.1,274.5 597.0,289.7 612.6,245.9 625.9,233.5 632.6,220.5 641.9,208.1 650.8,195.1 670.2,182.6 673.4,189.4 675.0,199.5 700.5,214.8 701.8,237.6 707.3,244.4 723.9,254.5 749.4,269.7 760.5,225.9 761.9,232.7 768.5,242.9 819.4,213.7 828.1,220.5 868.5,201.0 868.7,207.8 870.7,217.9 873.1,233.1 875.3,256.0 880.9,262.7 880.9,243.3 892.5,230.3 893.3,236.8 895.4,246.6 900.8,261.2 902.9,283.2 909.6,289.9 916.9,270.5 923.6,258.0 923.7,264.8 924.1,245.3 924.5,232.3 926.8,219.9 926.9,207.4 926.9,195.0 926.9,182.0 928.6,188.8 928.7,169.3 928.7,176.1 928.7,186.2 928.7,157.0 929.3,144.1 930.7,150.8 932.0,161.0" fill="none" stroke="#16a34a" stroke-width="1.8" stroke-linejoin="round" opacity="0.9"/>
  <polyline points="80.0,421.0 80.0,408.3 87.5,395.3 111.7,401.7 113.5,411.4 116.4,426.0 133.3,447.8 139.9,452.4 167.1,439.2 172.0,429.1 174.0,435.1 185.8,417.8 198.9,424.3 224.2,405.5 227.0,393.1 229.4,380.6 230.9,387.0 253.4,396.7 253.6,411.3 254.3,433.1 257.0,438.8 262.2,447.3 280.8,422.6 299.3,410.2 327.6,416.9 333.9,427.0 366.6,442.1 386.4,398.2 417.6,385.2 420.9,372.2 421.1,378.7 423.1,360.0 423.4,366.4 425.8,376.1 427.2,390.7 428.8,348.5 429.6,355.0 430.2,336.3 430.5,342.7 431.8,352.4 436.7,324.3 438.3,331.0 446.2,341.1 446.3,356.3 453.6,312.4 465.9,299.4 466.7,306.1 473.8,316.2 475.0,286.9 475.6,273.9 475.8,280.6 476.6,261.1 478.3,267.9 488.4,277.9 488.8,293.1 571.4,249.2 571.7,236.7 571.7,224.2 571.7,230.9 571.7,241.0 571.7,256.1 571.7,278.8 571.8,265.8 572.3,253.3 587.1,260.1 594.1,270.2 597.0,285.3 612.6,241.4 625.9,228.9 632.6,215.9 641.9,203.4 650.8,190.4 670.2,177.9 673.4,184.6 675.0,194.7 700.5,209.8 701.8,232.6 707.3,239.3 723.9,249.4 749.4,264.5 760.5,220.6 761.9,227.3 768.5,237.4 819.4,208.2 828.1,214.9 868.5,195.4 868.7,202.1 870.7,212.2 873.1,227.3 875.3,250.1 880.9,256.8 880.9,237.3 892.5,224.3 893.3,230.7 895.4,240.4 900.8,255.0 902.9,276.8 909.6,283.5 916.9,264.0 923.6,251.5 923.7,258.3 924.1,238.7 924.5,225.7 926.8,213.2 926.9,200.7 926.9,188.2 926.9,175.2 928.6,182.0 928.7,162.4 928.7,169.2 928.7,179.3 928.7,150.0 929.3,137.0 930.7,143.7 932.0,153.8" fill="none" stroke="#d97706" stroke-width="1.8" stroke-linejoin="round" opacity="0.9"/>
  <polyline points="80.0,421.0 80.0,408.2 87.5,395.1 111.7,401.6 113.5,411.2 116.4,425.6 133.3,447.3 139.9,451.8 167.1,438.5 172.0,428.3 174.0,434.3 185.8,416.7 198.9,423.1 224.2,404.3 227.0,391.8 229.4,379.2 230.9,385.6 253.4,395.3 253.6,409.7 254.3,431.4 257.0,437.1 262.2,445.7 280.8,420.4 299.3,407.6 327.6,414.3 333.9,424.3 366.6,439.3 386.4,395.2 417.6,382.2 420.9,369.1 421.1,375.5 423.1,356.7 423.4,363.1 425.8,372.7 427.2,387.2 428.8,344.8 429.6,351.3 430.2,332.4 430.5,338.9 431.8,348.5 436.7,320.2 438.3,326.9 446.2,336.9 446.3,351.9 453.6,307.9 465.9,294.8 466.7,301.5 473.8,311.5 475.0,282.1 475.6,269.1 475.8,275.7 476.6,256.1 478.3,262.8 488.4,272.8 488.8,287.8 571.4,243.7 571.7,231.2 571.7,218.7 571.7,225.3 571.7,235.3 571.7,250.4 571.7,272.9 571.8,259.8 572.3,247.3 587.1,254.0 594.1,264.0 597.0,279.0 612.6,234.9 625.9,222.4 632.6,209.3 641.9,196.7 650.8,183.7 670.2,171.1 673.4,177.8 675.0,187.8 700.5,202.8 701.8,225.4 707.3,232.0 723.9,242.1 749.4,257.1 760.5,213.0 761.9,219.7 768.5,229.7 819.4,200.3 828.1,207.0 868.5,187.4 868.7,194.1 870.7,204.1 873.1,219.1 875.3,241.6 880.9,248.3 880.9,228.7 892.5,215.6 893.3,222.1 895.4,231.7 900.8,246.1 902.9,267.8 909.6,274.4 916.9,254.8 923.6,242.3 923.7,249.0 924.1,229.4 924.5,216.3 926.8,203.8 926.9,191.2 926.9,178.7 926.9,165.6 928.6,172.3 928.7,152.7 928.7,159.4 928.7,169.4 928.7,140.0 929.3,126.9 930.7,133.6 932.0,143.6" fill="none" stroke="#7c3aed" stroke-width="1.8" stroke-linejoin="round" opacity="0.9"/>
  <polyline points="80.0,421.0 80.0,408.2 87.5,395.1 111.7,401.5 113.5,411.1 116.4,425.6 133.3,447.2 139.9,451.7 167.1,438.4 172.0,428.1 174.0,434.1 185.8,416.5 198.9,422.9 224.2,404.1 227.0,391.6 229.4,379.0 230.9,385.4 253.4,395.0 253.6,409.4 254.3,431.0 257.0,436.8 262.2,445.4 280.8,420.0 299.3,407.1 327.6,413.8 333.9,423.8 366.6,438.8 386.4,394.7 417.6,381.6 420.9,368.5 421.1,375.0 423.1,356.1 423.4,362.5 425.8,372.1 427.2,386.6 428.8,344.2 429.6,350.6 430.2,331.8 430.5,338.2 431.8,347.8 436.7,319.5 438.3,326.2 446.2,336.2 446.3,351.2 453.6,307.1 465.9,294.0 466.7,300.7 473.8,310.7 475.0,281.3 475.6,268.2 475.8,274.9 476.6,255.3 478.3,261.9 488.4,271.9 488.8,286.9 571.4,242.8 571.7,230.2 571.7,217.7 571.7,224.3 571.7,234.3 571.7,249.3 571.7,271.8 571.8,258.8 572.3,246.2 587.1,252.9 594.1,262.9 597.0,277.9 612.6,233.8 625.9,221.2 632.6,208.1 641.9,195.6 650.8,182.5 670.2,169.9 673.4,176.6 675.0,186.6 700.5,201.6 701.8,224.1 707.3,230.8 723.9,240.8 749.4,255.8 760.5,211.7 761.9,218.3 768.5,228.3 819.4,198.9 828.1,205.6 868.5,186.0 868.7,192.6 870.7,202.6 873.1,217.6 875.3,240.1 880.9,246.8 880.9,227.2 892.5,214.1 893.3,220.5 895.4,230.1 900.8,244.6 902.9,266.2 909.6,272.8 916.9,253.2 923.6,240.7 923.7,247.3 924.1,227.7 924.5,214.7 926.8,202.1 926.9,189.5 926.9,177.0 926.9,163.9 928.6,170.6 928.7,151.0 928.7,157.6 928.7,167.6 928.7,138.2 929.3,125.2 930.7,131.8 932.0,141.8" fill="none" stroke="#0891b2" stroke-width="1.8" stroke-linejoin="round" opacity="0.9"/>
  <polyline points="80.0,421.0 80.0,408.2 87.5,395.1 111.7,401.5 113.5,411.1 116.4,425.5 133.3,447.1 139.9,451.7 167.1,438.3 172.0,428.0 174.0,434.0 185.8,416.4 198.9,422.8 224.2,404.0 227.0,391.4 229.4,378.8 230.9,385.2 253.4,394.8 253.6,409.2 254.3,430.8 257.0,436.6 262.2,445.3 280.8,419.8 299.3,406.8 327.6,413.5 333.9,423.5 366.6,438.5 386.4,394.3 417.6,381.2 420.9,368.2 421.1,374.6 423.1,355.7 423.4,362.1 425.8,371.7 427.2,386.1 428.8,343.7 429.6,350.1 430.2,331.3 430.5,337.7 431.8,347.3 436.7,319.0 438.3,325.7 446.2,335.7 446.3,350.7 453.6,306.5 465.9,293.4 466.7,300.1 473.8,310.1 475.0,280.7 475.6,267.6 475.8,274.3 476.6,254.6 478.3,261.3 488.4,271.3 488.8,286.3 571.4,242.1 571.7,229.6 571.7,217.0 571.7,223.7 571.7,233.7 571.7,248.6 571.7,271.1 571.8,258.0 572.3,245.5 587.1,252.1 594.1,262.1 597.0,277.1 612.6,233.0 625.9,220.4 632.6,207.3 641.9,194.8 650.8,181.7 670.2,169.1 673.4,175.8 675.0,185.8 700.5,200.8 701.8,223.2 707.3,229.9 723.9,239.9 749.4,254.9 760.5,210.7 761.9,217.4 768.5,227.4 819.4,198.0 828.1,204.6 868.5,185.0 868.7,191.7 870.7,201.7 873.1,216.6 875.3,239.1 880.9,245.8 880.9,226.2 892.5,213.1 893.3,219.5 895.4,229.1 900.8,243.5 902.9,265.1 909.6,271.7 916.9,252.1 923.6,239.6 923.7,246.2 924.1,226.6 924.5,213.5 926.8,201.0 926.9,188.4 926.9,175.8 926.9,162.8 928.6,169.4 928.7,149.8 928.7,156.5 928.7,166.4 928.7,137.0 929.3,124.0 930.7,130.6 932.0,140.6" fill="none" stroke="#db2777" stroke-width="1.8" stroke-linejoin="round" opacity="0.9"/>
  <polyline points="80.0,421.0 80.0,408.2 87.5,395.1 111.7,401.5 113.5,411.1 116.4,425.5 133.3,447.0 139.9,451.6 167.1,438.1 172.0,427.9 174.0,433.9 185.8,416.2 198.9,422.6 224.2,403.7 227.0,391.2 229.4,378.6 230.9,385.0 253.4,394.6 253.6,408.9 254.3,430.5 257.0,436.3 262.2,445.0 280.8,419.4 299.3,406.3 327.6,413.0 333.9,423.0 366.6,437.9 386.4,393.7 417.6,380.7 420.9,367.6 421.1,374.0 423.1,355.1 423.4,361.5 425.8,371.1 427.2,385.5 428.8,343.0 429.6,349.4 430.2,330.6 430.5,337.0 431.8,346.6 436.7,318.3 438.3,324.9 446.2,334.9 446.3,349.9 453.6,305.7 465.9,292.6 466.7,299.2 473.8,309.2 475.0,279.8 475.6,266.7 475.8,273.3 476.6,253.7 478.3,260.4 488.4,270.3 488.8,285.3 571.4,241.1 571.7,228.5 571.7,216.0 571.7,222.6 571.7,232.6 571.7,247.6 571.7,270.0 571.8,256.9 572.3,244.3 587.1,251.0 594.1,261.0 597.0,275.9 612.6,231.8 625.9,219.2 632.6,206.1 641.9,193.5 650.8,180.4 670.2,167.9 673.4,174.5 675.0,184.5 700.5,199.4 701.8,221.9 707.3,228.5 723.9,238.5 749.4,253.5 760.5,209.3 761.9,216.0 768.5,225.9 819.4,196.5 828.1,203.1 868.5,183.5 868.7,190.2 870.7,200.1 873.1,215.1 875.3,237.5 880.9,244.2 880.9,224.5 892.5,211.5 893.3,217.9 895.4,227.4 900.8,241.8 902.9,263.4 909.6,270.0 916.9,250.4 923.6,237.8 923.7,244.5 924.1,224.8 924.5,211.8 926.8,199.2 926.9,186.6 926.9,174.0 926.9,161.0 928.6,167.6 928.7,148.0 928.7,154.6 928.7,164.6 928.7,135.2 929.3,122.1 930.7,128.7 932.0,138.7" fill="none" stroke="#65a30d" stroke-width="1.8" stroke-linejoin="round" opacity="0.9"/>
  <polyline points="80.0,421.0 80.0,408.2 87.5,395.1 111.7,401.5 113.5,411.0 116.4,425.4 133.3,447.0 139.9,451.5 167.1,438.1 172.0,427.8 174.0,433.8 185.8,416.1 198.9,422.4 224.2,403.6 227.0,391.0 229.4,378.4 230.9,384.8 253.4,394.4 253.6,408.7 254.3,430.3 257.0,436.1 262.2,444.8 280.8,419.1 299.3,406.0 327.6,412.7 333.9,422.6 366.6,437.6 386.4,393.4 417.6,380.3 420.9,367.2 421.1,373.6 423.1,354.7 423.4,361.1 425.8,370.7 427.2,385.0 428.8,342.6 429.6,349.0 430.2,330.1 430.5,336.5 431.8,346.1 436.7,317.8 438.3,324.4 446.2,334.4 446.3,349.3 453.6,305.1 465.9,292.0 466.7,298.7 473.8,308.6 475.0,279.2 475.6,266.1 475.8,272.7 476.6,253.1 478.3,259.7 488.4,269.7 488.8,284.7 571.4,240.5 571.7,227.9 571.7,215.3 571.7,221.9 571.7,231.9 571.7,246.9 571.7,269.3 571.8,256.2 572.3,243.6 587.1,250.3 594.1,260.2 597.0,275.2 612.6,231.0 625.9,218.4 632.6,205.3 641.9,192.7 650.8,179.6 670.2,167.0 673.4,173.7 675.0,183.7 700.5,198.6 701.8,221.0 707.3,227.7 723.9,237.6 749.4,252.6 760.5,208.4 761.9,215.0 768.5,225.0 819.4,195.5 828.1,202.2 868.5,182.5 868.7,189.2 870.7,199.1 873.1,214.1 875.3,236.5 880.9,243.2 880.9,223.5 892.5,210.4 893.3,216.8 895.4,226.4 900.8,240.7 902.9,262.3 909.6,268.9 916.9,249.3 923.6,236.7 923.7,243.4 924.1,223.7 924.5,210.6 926.8,198.0 926.9,185.5 926.9,172.9 926.9,159.8 928.6,166.4 928.7,146.8 928.7,153.4 928.7,163.4 928.7,133.9 929.3,120.9 930.7,127.5 932.0,137.5" fill="none" stroke="#475569" stroke-width="1.8" stroke-linejoin="round" opacity="0.9"/>
  <polyline points="80.0,421.0 80.0,408.2 87.5,395.1 111.7,401.4 113.5,411.0 116.4,425.3 133.3,446.9 139.9,451.4 167.1,437.9 172.0,427.6 174.0,433.6 185.8,415.9 198.9,422.2 224.2,403.4 227.0,390.8 229.4,378.2 230.9,384.6 253.4,394.1 253.6,408.5 254.3,430.0 257.0,435.8 262.2,444.5 280.8,418.7 299.3,405.6 327.6,412.2 333.9,422.2 366.6,437.1 386.4,392.9 417.6,379.8 420.9,366.7 421.1,373.1 423.1,354.2 423.4,360.5 425.8,370.1 427.2,384.5 428.8,342.0 429.6,348.4 430.2,329.5 430.5,335.8 431.8,345.4 436.7,317.1 438.3,323.7 446.2,333.7 446.3,348.6 453.6,304.4 465.9,291.3 466.7,297.9 473.8,307.9 475.0,278.4 475.6,265.3 475.8,271.9 476.6,252.3 478.3,258.9 488.4,268.8 488.8,283.8 571.4,239.5 571.7,226.9 571.7,214.4 571.7,221.0 571.7,230.9 571.7,245.9 571.7,268.3 571.8,255.2 572.3,242.6 587.1,249.2 594.1,259.2 597.0,274.1 612.6,229.9 625.9,217.3 632.6,204.2 641.9,191.6 650.8,178.5 670.2,165.9 673.4,172.5 675.0,182.5 700.5,197.4 701.8,219.8 707.3,226.4 723.9,236.4 749.4,251.3 760.5,207.1 761.9,213.7 768.5,223.7 819.4,194.2 828.1,200.8 868.5,181.2 868.7,187.8 870.7,197.7 873.1,212.7 875.3,235.1 880.9,241.7 880.9,222.0 892.5,208.9 893.3,215.3 895.4,224.9 900.8,239.2 902.9,260.7 909.6,267.4 916.9,247.7 923.6,235.1 923.7,241.7 924.1,222.1 924.5,209.0 926.8,196.4 926.9,183.8 926.9,171.2 926.9,158.1 928.6,164.8 928.7,145.1 928.7,151.7 928.7,161.7 928.7,132.2 929.3,119.1 930.7,125.7 932.0,135.7" fill="none" stroke="#ea580c" stroke-width="1.8" stroke-linejoin="round" opacity="0.9"/>
  <line x1="950" y1="94" x2="972" y2="94" stroke="#ea580c" stroke-width="3"/><text x="980" y="98" font-size="12.5" fill="#374151">vip 9  42776</text>
  <line x1="950" y1="116" x2="972" y2="116" stroke="#475569" stroke-width="3"/><text x="980" y="120" font-size="12.5" fill="#374151">vip 8  42573</text>
  <line x1="950" y1="138" x2="972" y2="138" stroke="#65a30d" stroke-width="3"/><text x="980" y="142" font-size="12.5" fill="#374151">vip 7  42431</text>
  <line x1="950" y1="160" x2="972" y2="160" stroke="#db2777" stroke-width="3"/><text x="980" y="164" font-size="12.5" fill="#374151">vip 6  42212</text>
  <line x1="950" y1="182" x2="972" y2="182" stroke="#0891b2" stroke-width="3"/><text x="980" y="186" font-size="12.5" fill="#374151">vip 5  42070</text>
  <line x1="950" y1="204" x2="972" y2="204" stroke="#7c3aed" stroke-width="3"/><text x="980" y="208" font-size="12.5" fill="#374151">vip 4  41864</text>
  <line x1="950" y1="226" x2="972" y2="226" stroke="#d97706" stroke-width="3"/><text x="980" y="230" font-size="12.5" fill="#374151">vip 3  40692</text>
  <line x1="950" y1="248" x2="972" y2="248" stroke="#16a34a" stroke-width="3"/><text x="980" y="252" font-size="12.5" fill="#374151">vip 2  39870</text>
  <line x1="950" y1="270" x2="972" y2="270" stroke="#2563eb" stroke-width="3"/><text x="980" y="274" font-size="12.5" fill="#374151">vip 0  38844</text>
  <line x1="950" y1="292" x2="972" y2="292" stroke="#dc2626" stroke-width="3"/><text x="980" y="296" font-size="12.5" fill="#374151">vip 1  38844</text>
  <text x="80" y="542" text-anchor="start" font-size="12" fill="#6b7280">2026-01-01</text><text x="932" y="542" text-anchor="end" font-size="12" fill="#6b7280">2026-01-31</text>
</svg>
