<svg xmlns="http://www.w3.org/2000/svg" width="1000" height="520" font-family="ui-sans-serif, system-ui, sans-serif" viewBox="0 0 1000 520"><rect width="1000" height="520" fill="#fff"/><text x="78" y="28" fill="#111827" font-size="18" font-weight="700">Zone Recovery — CRVUSDC best setting (equity / PnL)</text><text x="78" y="48" fill="#6b7280" font-size="12.5">lev 10 · ratio 3 · gap 35% · maxSteps 4 · maxDD 60% · random · vip 9 · 8 series, 100.0% win · vol $2497787 ($80574/day) · fees $211.31</text><text x="78" y="68" fill="#1d4ed8" font-size="12.5" font-weight="600">USDC · BNB −10% · taker 0.0085%</text><text x="934" y="28" fill="#16a34a" font-size="18" font-weight="700" text-anchor="end">+51082 USDT (+510.82%)</text><line x1="78" x2="934" y1="468" y2="468" stroke="#e5e7eb" stroke-width="1"/><text x="68" y="472" fill="#6b7280" font-size="12" text-anchor="end">0.00</text><line x1="78" x2="934" y1="392" y2="392" stroke="#e5e7eb" stroke-width="1"/><text x="68" y="396" fill="#6b7280" font-size="12" text-anchor="end">13968</text><line x1="78" x2="934" y1="316" y2="316" stroke="#e5e7eb" stroke-width="1"/><text x="68" y="320" fill="#6b7280" font-size="12" text-anchor="end">27936</text><line x1="78" x2="934" y1="240" y2="240" stroke="#e5e7eb" stroke-width="1"/><text x="68" y="244" fill="#6b7280" font-size="12" text-anchor="end">41904</text><line x1="78" x2="934" y1="164" y2="164" stroke="#e5e7eb" stroke-width="1"/><text x="68" y="168" fill="#6b7280" font-size="12" text-anchor="end">55872</text><line x1="78" x2="934" y1="88" y2="88" stroke="#e5e7eb" stroke-width="1"/><text x="68" y="92" fill="#6b7280" font-size="12" text-anchor="end">69840</text><line x1="78" x2="934" y1="413.6" y2="413.6" stroke="#9ca3af" stroke-dasharray="6 4" stroke-width="1.5"/><text x="934" y="407.6" fill="#6b7280" font-size="11" text-anchor="end">start 10000</text><polyline fill="none" stroke="#d97706" stroke-linejoin="round" stroke-width="1.2" points="78 277.8 78.5 275.8 79 278.2 79.5 277.3 80.1 275.3 80.9 276.6 81.6 276.4 82.3 272.8 83 276.4 83.7 275.4 84.4 270.6 85 267 85.8 267.8 86.7 265.2 87.1 260.9 87.6 262.4 88.3 262.2 88.5 257.1 89.1 257.4 89.8 254.9 90.4 255.6 90.9 253.4 91.7 252 92.2 254.6 92.7 252.8 93.4 249.5 93.9 246.5 94.3 244.8 94.9 249.1 95.2 246.2 95.6 244.3 96 242.4 96.1 241.4 96.2 240.5 96.4 236.2 96.5 239.4 96.7 239.2 97.1 238.2 97.4 236.9 97.7 238.9 98.1 236.9 98.4 238.4 98.9 236.2 99.4 238.2 100.1 239.4 100.7 236.2 101 232.6 101.7 236.2 102.3 234.3 103 236.2 103.7 233.9 104.3 229.3 104.5 225.2 104.9 223 105.2 226.7 105.6 222.7 105.8 223.5 106.1 221.5 106.5 222.7 106.9 220.2 107.6 220.7 107.9 223.7 108.4 225.3 108.9 222.9 109.3 219.5 109.4 214.9 109.6 216.6 109.9 214.7 110 211.9 110.2 212.3 110.4 210.6 110.6 214.4 110.9 217.9 111.2 216.4 111.7 214.9 112.2 216.7 112.8 214.6 113.4 213.3 113.9 214.4 114.4 218.7 114.9 219.9 115.2 217.4 115.8 215.9 116.2 211.1 116.6 214.1 116.9 211.4 116.9 209 117.1 208.1 117.3 204.2 117.5 207.5 117.8 207.3 118.2 207.6 118.7 210.4 119.1 213.9 119.4 213.6 119.9 212.9 120.1 207.6 120.3 204.8 120.5 204.5 120.9 206.5 121.2 206.1 121.8 208.1 122.1 211.4 122.1 214.1 122.3 210.3 122.4 213.9 122.5 207 122.6 208.6 122.7 206 122.7 202.7 122.9 204.8 123 207.5 123.2 210 123.3 212.1 123.5 209 123.7 202.7 123.8 203.8 124 205.5 124.2 206.8 124.4 201.5 124.5 202.7 124.6 195.2 124.7 191.4 124.7 192.1 124.9 195.2 125 190.4 125.1 190.3 125.2 189.6 125.3 189.8 125.5 190.8 125.7 193.4 125.9 193.4 126.2 191.9 126.6 195.4 126.8 198.5 127.1 201.2 127.4 207.6 127.6 203 127.9 202.3 128.2 203 128.6 204.7 128.9 206.1 129.1 207 129.4 210.4 129.7 212.3 130.2 209.3 130.7 206 131 201.2 131.1 200 131.4 198.2 131.7 196.2 132.1 195.9 132.6 198.7 133 202.2 133.4 198.2 133.8 197.9 134.2 196.4 134.7 200.2 135.2 200.7 135.7 203.3 136.3 202 137 202 137.4 197.7 137.9 197.4 138.3 196.4 138.8 199.7 139.2 198.4 139.8 201.4 140.3 197.6 140.7 198 141.1 205.5 141.3 204.2 141.5 207.3 141.7 211.6 141.7 211.8 141.9 212.1 142.1 208.8 142.3 211.9 142.6 215.1 142.8 214.1 143.1 210 143.3 210.9 143.7 213.4 144.1 212.3 144.3 208.8 144.7 211.3 145.2 210.1 145.7 205.3 146.3 208.6 147 206.8 147.6 203.7 148.2 202.7 148.9 203.2 149.7 205 150.1 202.8 150.8 205.2 151.5 203.2 151.8 202 152.1 200.7 152.4 194.7 152.6 189.6 152.7 183.2 152.8 189.3 153.1 192.4 153.3 191.1 153.4 183.5 153.6 181 153.6 179 153.8 179.7 154 180.8 154.2 181 154.3 176.4 154.5 171.9 154.6 172.1 154.8 173.9 155 169.3 155.1 161.7 155.2 164.1 155.3 159 155.3 154.9 155.4 152.9 155.4 152.9 155.5 155.7 155.6 164.6 155.6 169.8 155.7 171.3 155.8 167.6 156 167 156.2 166.5 156.3 164.3 156.4 171.6 156.6 177.4 156.9 172.4 157.2 172.7 157.4 176.2 157.8 172.2 158.1 168.4 158.4 163.8 158.6 163.8 158.8 166.3 159.1 167.8 159.4 164.6 159.9 165.5 160.4 166.1 160.9 168.9 161 163 161.1 161 161.2 164.3 161.5 160.3 161.7 160.2 161.9 155.9 162.1 156.9 162.3 162.7 162.6 162 162.9 162.8 163.2 160.8 163.5 160.3 163.8 160 164 166.3 164.3 165.3 164.5 162 164.8 164.6 165.1 165.3 165.4 166.8 165.7 168.9 166 168 166.4 172.2 166.7 171.8 167.1 173.9 167.6 173.1 168 171.8 168.3 170.9 168.6 175.2 168.8 174.1 169.4 176.4 169.8 173.7 170.1 175.9 170.3 176.2 170.6 176.7 170.9 172.1 171.2 169.1 171.5 170.3 171.8 168.3 172.1 170.6 172.4 168.3 172.8 170.6 173.1 171.3 173.6 174.1 173.8 172.7 174.4 172.1 174.7 169.6 175 168.8 175.3 166.1 175.5 169.3 175.8 174.2 176.2 173.9 176.5 173.1 177 172.7 177.5 175.9 177.8 175.4 178.1 172.2 178.5 171.9 178.9 173.4 179.1 170.8 179.4 166.6 179.6 168.8 179.7 161.8 180 161.3 180.4 162.2 180.6 162.7 180.9 164.3 181.3 163.3 181.8 167.5 182.1 172.9 182.4 174.2 182.8 175.1 182.9 180.8 183.1 177.5 183.4 178.4 183.9 179.7 184.4 177 184.9 177.7 185.4 174.9 186 176.5 186.4 171.9 186.8 174.2 187.4 168.1 187.7 169.1 188 167 188.3 167.1 188.5 161.3 188.6 165.1 188.8 167 189 167.3 189.2 166.3 189.4 158.9 189.5 162.7 189.7 162.3 189.8 160 190 158.7 190.2 157.5 190.4 154.1 190.5 153.9 190.8 156.9 191.1 161.3 191.3 165.1 191.6 163.2 191.8 157 192 160 192.3 163.3 192.6 164 193.1 163.8 193.4 167.3 193.6 173.2 193.8 172.9 194.1 170.9 194.6 170.8 195.1 167.8 195.4 169.6 195.8 172.7 196.1 173.1 196.6 173.1 197.1 170.9 197.5 170.6 197.9 169.6 198.3 169.8 198.7 169.6 198.9 174.2 199.3 172.4 199.7 170.1 200 169.8 200.2 162.2 200.4 166.5 200.6 173.2 200.7 174.1 201 172.4 201.5 174.6 201.9 178.4 202.4 177.2 202.9 177.5 203.3 175.4 203.7 176.4 204 178 204.3 178.5 204.7 178.7 205.1 176.1 205.2 174.2 205.3 169.6 205.4 164.5 205.5 168 205.6 164 205.7 166.3 205.9 169.8 206.1 172.4 206.4 167.6 206.6 165.8 206.9 167 207.1 166.6 207.3 166.6 207.5 165.6 207.7 166 207.9 164.5 208.2 164.8 208.5 169.1 208.7 166.6 208.9 162.3 209.1 160 209.2 158 209.3 159.5 209.6 160.7 209.8 153.6 210 154.4 210.3 152.1 210.5 154.9 210.8 153.7 211.1 153.7 211.5 157.7 211.7 153.9 212 153.1 212.2 156.7 212.5 160.3 212.7 160.8 213.1 160.7 213.5 157.7 213.9 160.3 214.1 156.5 214.5 148.4 214.9 152.1 215.3 155.7 215.9 153.6 216.3 156 216.5 154.7 216.8 160.3 216.9 162.3 217.2 158.4 217.3 160.5 217.6 159.5 217.8 155.2 218.1 160.8 218.4 163.5 218.6 161.7 219 157.9 219.2 158.7 219.5 157.5 219.9 155.4 220.2 152.7 220.6 156.4 220.9 156.5 221.2 156.4 221.7 156.5 222.1 158 222.3 157.9 222.6 158 222.9 157.5 223.3 157.7 223.6 156.7 223.8 153.1 224.1 156.9 224.5 159 224.7 161.3 224.9 166.6 225.1 166.6 225.4 162.5 225.7 163.3 226.1 166 226.5 168.1 226.7 166.1 227.2 166 227.6 167.5 228.1 165.6 228.7 166.3 229.1 162.7 229.5 158.5 229.9 156.9 230.2 153.4 230.6 155.1 230.9 155.1 231.2 156.4 231.6 152.7 232 157.4 232.3 159.7 232.4 152.7 232.5 148.8 232.6 146.1 232.8 149.1 232.8 150.9 233 151.4 233.1 155.7 233.1 158 233.2 161.5 233.4 161 233.5 164.1 233.7 159 233.9 157.9 234 166.1 234.1 173.2 234.2 170.6 234.4 173.2 234.5 168.9 234.6 175.4 234.7 173.2 234.8 168.3 234.9 173.1 235 177 235.1 176.4 235.2 175.7 235.3 178.7 235.4 178.9 235.5 174.6 235.7 175.7 235.9 172.7 236.1 174.2 236.3 174.4 236.4 180.2 236.5 184.3 236.6 189.4 236.6 187.8 236.7 193.6 236.8 194.1 236.9 187.8 237 183.7 237.2 184.2 237.4 183.2 237.7 182.2 237.9 182.2 238.2 179 238.6 180.8 238.8 184.2 239.2 180.7 239.5 177.5 239.7 172.7 239.9 166.5 240.1 168.6 240.4 171.1 240.5 162 240.6 154.7 240.6 161.3 240.8 157.5 240.9 159.2 241.2 157.7 241.3 160.7 241.5 161.5 241.7 164.6 241.9 168 242.3 164.6 242.8 162.8 243.2 161.7 243.5 163.8 243.9 165.1 244.2 165.6 244.5 171.1 244.8 172.2 245.1 173.7 245.3 176.7 245.5 176.1 245.8 178 246.1 176.4 246.4 180.4 246.7 178.4 247.1 175.2 247.5 174.9 247.9 178.7 248.5 178 249.1 181.8 249.6 181.3 250 179.9 250.5 182.2 250.9 182.7 251.3 179.7 251.9 177 252.4 171.1 252.8 170.3 253 167.3 253.4 169.6 253.8 171.1 254.1 170.4 254.3 174.1 254.5 176.9 254.7 181.3 254.9 181.3 255.1 183.2 255.5 178.9 255.8 178.7 256.2 181.7 256.8 179.7 257.4 179.5 258 181.5 258.4 181.3 258.8 184.7 258.9 189.3 259.2 187.3 259.7 190.6 259.9 193.6 260 196.4 260.2 198.9 260.3 200.9 260.4 203.2 260.5 199 260.6 195.1 260.7 193.7 260.8 192.8 261 195.6 261.1 195.9 261.3 199.2 261.3 202.2 261.5 199.2 261.7 198.9 261.8 200.9 262.1 201.4 262.3 198.5 262.6 196.1 262.8 197.2 263 193.1 263.3 196.6 263.5 191.3 263.7 186.6 263.9 186.3 264.2 186.8 264.4 189.1 264.7 188.8 264.9 187 265 178.4 265.1 184.7 265.3 186 265.5 187.8 265.8 188.6 266 187.5 266.1 187 266.4 182.2 266.6 182 266.9 178.9 267.1 180.4 267.3 180.8 267.5 178.7 267.7 174.7 267.9 174.9 268 177 268.2 180.7 268.5 178.5 269 179 269.2 178.5 269.6 177.5 269.8 177.4 270 179.7 270.3 181 270.5 174.7 270.6 172.9 270.9 176.2 271.2 174.9 271.5 174.9 271.7 175.9 272 174.7 272.2 166.8 272.4 167 272.5 161.2 272.7 161.3 272.8 167.8 273 168.3 273.2 167.3 273.5 164.8 273.7 161.5 273.9 160 274.1 163.8 274.3 163.3 274.5 166 274.8 163.3 275 162 275.3 161.8 275.5 162.2 275.6 166.8 275.9 166.3 276.1 170.1 276.4 170.3 276.5 166.6 276.8 165.3 277.1 164.6 277.4 162 277.6 165.1 277.9 170.9 278.1 176.9 278.3 181.3 278.5 180.8 278.6 181 278.8 185.3 279 184.8 279.2 188.3 279.3 192.9 279.4 193.9 279.4 195.7 279.5 193.1 279.7 187.5 279.8 183.2 280 180.8 280.2 186.5 280.5 188.1 280.7 185.3 280.9 184.8 281.2 189.8 281.5 193.3 281.7 193.7 281.9 189.6 282.1 193.1 282.3 192.4 282.6 190.8 282.8 193.7 282.9 196.7 283.1 193.6 283.3 190.4 283.5 186.5 283.7 186.8 284 186.6 284.3 191.9 284.5 191.9 284.8 191.8 285.1 193.4 285.3 197.4 285.5 196.4 285.7 197.9 285.9 200.9 286.2 201.2 286.5 199.7 286.7 207.8 286.7 204.5 286.9 204.2 287.1 200 287.3 198.9 287.5 198.4 287.7 199.4 287.9 203.2 288 204.8 288 203.3 288.1 204.8 288.2 207.3 288.3 201.7 288.4 198.5 288.5 201.2 288.7 197.1 288.8 193.6 288.9 195.2 289 191.8 289.1 188 289.3 190.4 289.4 187.6 289.7 186.3 289.8 186.8 289.9 180.7 290.1 183.3 290.3 183 290.4 187.3 290.6 185.6 290.9 188.6 291 183.2 291.2 185.6 291.4 189.4 291.6 187 291.9 187.3 292.1 188 292.4 192.9 292.7 193.9 293.1 196.6 293.5 199.5 293.8 197.6 294.2 197.4 294.4 204.8 294.7 204.8 294.9 204.2 295.3 204.7 295.6 201.5 296.1 200.5 296.4 198 296.8 195.4 297.2 196.2 297.7 195.6 298.3 194.9 298.9 198.5 299.4 196.4 300.1 194.1 300.5 193.4 300.6 188 300.7 194.6 300.9 195.1 301.3 194.7 301.4 191.6 301.8 192.9 302.3 199.4 302.7 197.7 303.2 197.1 303.6 192.6 304.1 195.1 304.6 198.9 305.2 199.4 305.7 199.7 306.3 200.5 306.8 197.1 307.5 197.4 307.9 197.2 308.2 199.7 308.6 198.5 308.8 205.5 309 206.6 309.1 209.8 309.2 205.8 309.3 199.5 309.6 200.7 309.8 196.2 310.3 199.5 310.7 201 311.1 204.7 311.6 203.3 312.1 204.3 312.6 204 313 207.8 313.5 206.3 313.9 203.7 314.2 200.9 314.4 196.7 314.5 199.5 314.6 197.1 314.8 199.2 315.1 198.2 315.4 200.4 315.6 199.7 315.7 202.3 315.8 200.7 315.9 202.8 316 202.7 316.2 200.5 316.3 203.5 316.4 201 316.6 198 316.6 189.4 316.7 184 316.8 185.5 316.8 177.7 316.9 177 317 182.5 317.1 182.2 317.2 181.7 317.3 181.5 317.4 176.4 317.5 176.9 317.6 173.9 317.7 173.2 317.9 181.3 318.1 185.1 318.2 185.1 318.4 183 318.6 183.5 318.8 188.3 318.9 193.1 319.1 193.3 319.2 193.4 319.4 190.3 319.7 188.8 319.9 195.6 320.1 197.4 320.2 203.3 320.3 198.9 320.5 202 320.8 197.9 321 200.5 321.2 205 321.3 205 321.5 205.3 321.8 201 322.1 202.7 322.3 202.8 322.6 200.4 322.8 204.7 323 205.2 323.3 204.3 323.6 202.5 323.9 201.7 324.3 199.5 324.6 198.9 325.1 198 325.6 195.1 326.2 197.2 326.8 200.2 327.4 200.4 328 194.4 328.8 198.9 329.6 203 330.2 200 331 198.9 331.4 201.8 332 199.7 332.8 200.2 333.7 203 334.6 201 335.1 197.4 335.9 196.7 336.3 197.6 336.9 193.9 337.5 192.8 338.1 191.6 339 192.3 339.9 192.8 340.5 190.6 340.9 187.3 341.4 183.2 342 183.5 342.5 180.5 342.9 185.3 343.3 185.5 343.7 189.6 344.5 188.1 345.4 188.1 346 189.1 346.6 184.8 347.2 189.1 347.8 186.5 348.5 184.7 349 187.5 349.7 185.1 350.8 187.5 351.4 189.9 352.1 191.9 352.7 196.7 353.3 199.7 354.2 198.9 354.9 201.4 355.7 196.9 356.4 195.6 357.4 196.9 358 197.7 359.1 198.4 360.4 198.5 361.1 201 361.5 206.1 361.9 205.8 362.5 203.8 363.4 204.3 364.3 203 364.9 199.7 365.8 198.9 366.8 202 367.8 204.3 368.6 203.8 369.1 202.2 369.7 203.2 370.3 204.8 370.8 201.2 371.2 205 371.5 202.5 371.8 203.8 372.3 207 372.5 206.6 373 206.8 373.1 198.9 373.3 198.9 373.6 202.3 374 203.2 374.5 202.3 375 200.5 375.7 198.2 376.2 194.9 376.8 198.7 377.2 202.5 377.4 205.8 377.5 208.5 377.8 207.6 378.2 206 378.6 207 379.1 206.8 379.5 208.5 379.8 210 380.5 209 380.7 216.6 380.8 214.4 380.9 209.3 381.1 210.4 381.4 213.1 381.7 209.8 381.9 212.8 382.1 206 382.3 207.8 382.4 211.4 382.5 213.1 382.7 215.9 382.9 211.9 382.9 207 383 203.5 383.1 204.3 383.2 202.7 383.4 203.7 383.6 207.6 383.8 204.3 384.1 203.8 384.3 202.8 384.4 196.4 384.6 198.2 384.9 198.2 385 193.7 385.2 196.4 385.5 194.9 385.8 198.2 386 202.7 386.4 204.5 386.6 204.3 387 202.2 387.5 200.7 387.8 200.5 388.3 199 388.7 204.2 389.1 204.2 389.6 207.1 390.1 207.8 390.4 214.4 390.7 216.9 390.8 218.4 391 217.4 391.2 215.4 391.5 214.3 391.6 218.4 391.7 216.7 391.8 219.5 391.9 217.9 392.1 214.9 392.3 214.9 392.7 215.4 393.3 215.7 393.7 214.1 394.5 213.1 395.2 210 396.1 213.8 396.8 214.6 397 219.2 397.6 221 398 219.7 398.3 224.3 398.4 225 398.5 218.7 398.7 219.4 398.9 219.7 399.2 219.2 399.5 214.7 399.8 213.3 400.1 214.1 400.3 214.4 400.6 213.1 400.8 213.3 401.2 215.9 401.7 216.7 401.9 223.3 402 227.3 402.3 224 402.7 221.4 403.1 220.7 403.3 223.3 403.9 220.4 404.7 218.7 405.1 218.2 405.8 224 406.3 224.7 406.8 228.5 407.3 225.3 408 225.8 408.8 224.3 409.6 224 410.3 222.2 411.1 219.7 411.7 218.2 412.3 214.3 413 216.4 413.6 212.3 414.2 208.5 414.7 213.4 415.4 210.8 415.6 206.5 416.2 208.3 416.8 207.6 417.3 199.7 417.7 198.5 418 203.7 418.6 204.7 419.2 208 419.8 201 420.1 199.4 420.4 195.1 420.6 195.9 420.8 195.9 421.1 194.7 421.5 191.9 421.9 195.7 422.4 193.6 422.9 193.4 423.1 190.3 423.4 192.9 424.2 192.3 424.7 194.2 424.9 189.1 425 188 425.2 190.4 425.5 191.3 425.9 189.4 426.1 187.8 426.3 183.3 426.5 185.8 426.7 192.9 427 193.9 427.2 189.3 427.4 183.5 427.7 181.8 427.8 178.4 427.9 177.4 428.2 176.7 428.4 169.3 428.5 168.8 428.6 172.4 428.8 168 429.1 171.4 429.5 171.8 429.7 173.9 430 169.8 430.3 167.8 430.6 168.4 431 170.1 431.3 174.4 431.8 170.4 432.2 166.5 432.5 168 433 172.6 433.2 174.6 433.6 168.8 434.1 167.5 434.6 163.8 434.8 160 434.9 153.7 434.9 144.5 434.9 144.5 434.9 147.6 434.9 153.9 435 151.9 435.1 148.1 435.3 147.1 435.5 146.8 435.8 151.2 435.9 146.6 435.9 146.1 436.2 150.1 436.4 154.4 436.6 153.6 437 154.2 437.2 151.4 437.5 151.6 437.8 152.1 438.2 149.4 438.5 146.6 439 149.3 439.5 148.9 440 150.1 440.5 155.7 441.1 154.1 441.7 155.5 442.3 157.9 442.8 159.7 443.1 163.5 443.5 161.2 444.1 160.7 444.7 160.7 445.2 155.9 445.8 159.4 446.6 155.7 447.3 154.7 447.9 151.9 448.8 152.7 449 157.9 449.4 153.2 449.8 153.9 450.1 152.4 450.6 154.2 450.9 151.1 451.3 147.1 451.8 150.3 452.3 149.8 452.6 149.4 453 153.1 453.3 149.6 453.6 150.1 453.7 152.4 453.9 153.1 454 148.1 454.1 146.1 454.2 150.1 454.4 153.9 454.5 148.9 454.7 148.4 455 154.4 455.2 157.2 455.6 151.6 455.7 146.5 455.9 147.4 456.1 151.1 456.4 150.6 456.6 152.6 456.9 152.1 457.2 157.9 457.3 159.8 457.6 161.5 457.8 157.7 458 161 458.3 164 458.4 168.4 458.6 168.8 458.9 169.6 459.1 165.6 459.3 162.7 459.4 156.9 459.6 159.8 460 160.5 460.1 155.9 460.5 158.9 460.9 159 461.3 155.7 461.9 157.4 462.2 160.5 462.4 162.7 462.9 162.3 463.3 163.5 463.9 163.2 464.5 163 464.9 163.5 465.3 165.3 465.6 166.6 466.1 164.3 466.4 166.3 466.8 165.6 467.3 165.1 467.6 168.3 467.9 168.4 468.3 165.3 468.5 169.4 468.6 174.4 468.8 174.9 468.9 174.7 469.2 176.4 469.5 174.9 469.9 173.6 470.4 173.9 470.9 173.1 471.6 172.2 472 170.4 472.4 173.1 473 170.8 473.4 169.9 473.8 174.2 474.2 174.7 474.4 177 474.6 173.9 475 170.6 475.5 166.6 475.7 163.2 476 159.8 476.5 161.5 477.1 159.8 477.6 159.2 478 161.7 478.4 157.2 478.6 151.2 478.8 156.2 479.1 152.4 479.6 150.9 480.2 152.9 480.4 151.6 480.8 148.3 481.1 156.5 481.3 156.5 481.4 158.5 481.6 162.8 481.7 158.2 481.9 161.3 482.1 161.7 482.3 165.8 482.4 173.1 482.6 175.2 482.7 176.2 482.8 183.5 482.8 183.7 482.9 177.2 483 177.5 483.1 178.9 483.3 174.2 483.5 172.7 483.8 174.6 483.9 168.4 484.2 169.6 484.4 174.1 484.8 173.2 485.1 173.1 485.3 179.7 485.5 182 485.6 185.8 485.9 185 486.1 187.5 486.3 187.8 486.5 187.3 486.6 186.3 486.8 186.3 487 189.9 487.3 185.8 487.6 183.8 488 185 488.3 187.8 488.6 190.8 489.1 189 489.7 185.5 490.1 179.2 490.2 175.4 490.2 173.4 490.3 168.4 490.3 166.3 490.4 160.5 490.5 157.2 490.6 163.3 490.8 161.2 491.1 158 491.3 156.7 491.5 156.2 491.8 159.5 492 153.7 492.1 146.5 492.2 147.1 492.2 143.1 492.3 145 492.3 139.5 492.3 143.6 492.4 152.1 492.5 150.1 492.7 150.4 492.9 152.2 493.3 153.4 493.6 154.9 493.9 153.4 494.1 149.3 494.5 149.8 494.6 154.7 494.8 161.7 494.9 162.8 495.1 157.2 495.3 158 495.5 157.9 495.6 163.7 496.1 162.8 496.5 166.5 497 165.6 497.2 164.5 497.5 167.3 497.9 169.6 498.2 166.1 498.7 163 499 159.4 499.3 169.1 499.6 169.9 500.4 168.8 500.9 169.3 501.5 168.3 502 167.6 502.6 169.3 503.4 167.1 503.7 164.8 504.3 165.8 504.9 163.7 505.3 162.7 505.7 164.5 506.1 162 506.6 165.1 507.1 167.6 507.6 167.8 508 168.9 508.7 170.6 508.9 170.1 509.1 168.4 509.3 169.6 509.5 168.4 509.7 166 509.9 173.1 510 173.7 510.1 175.9 510.2 173.4 510.4 177.9 510.4 181.8 510.5 178.9 510.7 178.7 510.9 178 511 176.1 511.2 174.1 511.5 174.9 511.7 175.9 512 179.7 512.3 179.7 512.6 177 512.9 176.2 513.3 173.7 513.7 174.7 514.1 178.2 514.5 179.5 515 177 515.4 177.4 515.7 172.6 515.9 168.9 516.2 168.6 516.4 165.1 516.6 163.3 517 159.5 517.5 162 517.8 165 518.1 162.2 518.7 166 519.2 165.6 519.9 167.1 520.5 166 521.1 162.7 521.6 162.3 522.3 164.5 522.7 166.8 523.6 163.8 524.2 160.2 524.3 156.9 524.5 155.2 525 152.1 525.4 147.9 525.7 146 526 148.3 526.3 146.5 526.6 144.5 526.8 149.8 526.8 156.9 527.2 157.9 527.7 159 528.3 156.7 528.8 151.2 529 150.1 529.6 149.4 530.1 146.8 530.5 147.1 531.1 147.8 531.7 146 532.2 148.8 532.6 152.1 533.3 155.1 533.8 154.7 534.3 149.3 534.7 152.6 535.1 153.7 535.5 151.7 535.9 151.6 536.3 147.6 536.5 149.1 536.7 141.3 537 140 537.2 138.8 537.4 143.5 537.7 142.2 537.9 135.4 538 133.4 538.1 133.1 538.2 135 538.3 131.6 538.5 132.7 538.6 128.9 538.7 131.9 538.9 139.5 539 139.3 539.3 137.5 539.5 134.9 539.6 128.3 539.7 123 539.8 117.3 539.8 117.2 539.9 115.7 540 119.5 540.1 118.7 540.2 124 540.3 123.6 540.4 126.9 540.5 123.6 540.6 129.3 540.9 125.8 541.3 129.8 541.5 132.1 542 128.9 542.3 133.6 542.5 139.3 542.5 144.3 542.6 148.8 542.7 156.4 542.8 152.9 543 156.9 543.1 160.2 543.3 165.5 543.5 166.1 543.8 166.6 544.2 168.3 544.4 167.8 544.6 171.9 544.7 175.4 545.1 174.2 545.6 174.4 545.8 180.5 546 186.5 546.1 192.1 546.2 185.3 546.5 182.7 546.7 184.5 547.1 180.8 547.5 182.5 547.7 180.7 547.8 178.4 548 183.2 548.3 186 548.6 183.5 548.8 182.8 549 181.7 549.3 181.7 549.6 181.5 549.9 178.9 550.3 180.5 550.7 179.7 551.1 180.7 551.7 180.2 552.2 182.5 552.5 186.6 553 187.3 553.7 186.3 554.3 185.5 554.9 184 555.5 182.7 556.1 183.3 556.7 184.7 557.2 180.8 557.6 178 558 174.7 558.2 175.6 558.6 175.4 559.1 176.2 559.8 176.2 560.4 175.9 561 176.7 561.5 177.5 562 180.4 562.4 180.8 562.8 184.5 563.1 181.2 563.5 179.2 563.8 175.6 564.1 176.2 564.4 178.7 564.7 182.8 565 180.2 565.5 179 565.8 176.1 565.9 173.7 566.2 172.1 566.6 173.9 567.1 175.6 567.5 179.2 567.9 181.2 568.3 178.9 568.7 176.2 568.9 174.6 569.3 175.9 569.6 176.5 570.1 176.2 570.5 180.5 571 177.4 571.5 180.2 571.9 179.2 572.5 179.5 573 179.7 573.5 181.5 574 187.5 574.1 189.4 574.3 186.6 574.4 190.6 574.5 198.4 574.5 194.1 574.6 195.9 574.8 196.7 574.8 202.3 574.8 207.5 574.9 205.7 574.9 206.3 575 209 575 214.1 575.1 231.6 575.1 234.6 575.1 240.2 575.1 259.6 575.1 261.4 575.1 264.9 575.1 270.3 575.1 253.9 575.1 246.2 575.1 236.1 575.1 233.8 575.1 234.9 575.2 232.3 575.2 239.1 575.2 239.7 575.2 237.6 575.2 240.7 575.3 239.2 575.3 241.5 575.3 244.7 575.3 245.2 575.4 241.9 575.4 238.7 575.4 239.2 575.4 240.7 575.5 241 575.5 238.6 575.5 238.9 575.6 237.1 575.6 238.7 575.7 234.3 575.7 233.4 575.7 228 575.8 226.3 575.8 226.7 575.9 223.8 575.9 223.2 576 224.8 576.1 225.2 576.2 224.2 576.3 218.6 576.4 218.4 576.5 219.7 576.7 221.2 576.7 214.6 576.8 214.9 576.9 214.6 577 220.5 577.2 217.9 577.3 217.6 577.5 215.6 577.6 218.2 577.7 218.2 577.9 218.2 578.2 217.6 578.5 217.4 578.8 214.7 579.1 214.3 579.3 213.8 579.6 218.2 579.9 219.5 580.1 222.9 580.4 219.4 580.8 222.4 581.1 222.4 581.3 221 581.4 218.9 581.7 216.7 582 218.2 582.3 221.2 582.6 222.7 582.8 225.8 583.2 227 583.4 227.5 584 227.8 584.4 227.8 584.7 226.2 584.9 226 585.3 225.2 585.6 226.5 585.8 227 586.4 227 587.1 228.1 587.4 228 587.9 227.2 588.4 225.7 588.7 224.7 589.3 225.5 589.8 225.8 590.2 225.5 590.7 227.3 591.2 227.5 591.5 226.7 591.8 225.5 592.2 225.8 592.6 224.2 592.9 224.2 593.5 227 593.8 227.3 594.1 226.2 594.5 223.3 594.8 224.8 595.2 225.8 595.7 225 596.1 225 596.6 222.2 597.2 219.5 597.4 216.2 598 218.2 598.4 215.6 598.7 218.9 599.2 217.9 599.7 222.5 600.1 222.4 600.5 225.5 600.6 232.8 600.7 228.8 601 231.6 601.4 230.5 601.6 232.8 601.7 232.8 601.9 233.6 602.1 230.6 602.3 232.3 602.6 232.6 602.9 231.8 603.1 232.9 603.3 232.3 603.7 233.8 603.9 234.3 604.2 232.3 604.4 231 604.8 232.4 605.2 235.1 605.5 232.6 605.9 231.1 606.4 230.8 606.8 231.6 607.1 232.3 607.4 231 607.8 230.3 608.1 229.1 608.3 227.8 608.4 226.5 608.6 225.3 608.7 229.1 608.8 227.8 609 231 609.3 231 609.5 230.5 609.9 232.3 609.9 237.4 610 231.8 610.2 232.6 610.3 231.3 610.6 231.8 610.8 231.9 610.9 229.6 611.1 228.8 611.3 224.5 611.4 224.5 611.6 226.8 611.8 227.5 612 230.3 612 232.9 612.1 234.9 612.2 236.1 612.3 235.3 612.5 238.2 612.5 242 612.7 241 612.9 240.5 613 240.5 613.3 240.2 613.6 241.9 614 241.5 614.2 239.7 614.5 239.2 614.8 240.7 615.3 242.4 615.6 243.2 615.8 246 616 248.5 616.4 249 616.5 253.9 616.6 251.5 616.8 252.9 617.2 253.1 617.7 251.8 617.9 254.4 618.2 254.6 618.3 252.8 618.6 254.6 618.8 255.1 619.1 253.4 619.2 251.8 619.4 250.6 619.4 249.1 619.5 243.9 619.6 245.2 619.7 248.6 619.8 245.7 619.9 247.2 620 252.5 620.1 252.6 620.1 252.8 620.2 251.1 620.3 252.8 620.4 250.6 620.5 250.5 620.6 247.7 620.8 252.3 620.9 251.3 621.1 250.1 621.3 250.3 621.4 249.1 621.6 254.8 621.7 256.4 621.9 259.9 621.9 264.4 622 266 622.1 261.4 622.3 261.5 622.4 259.2 622.6 258.7 622.9 261.2 623 261.4 623.1 262.7 623.3 260.4 623.4 258.7 623.6 258.9 623.8 263.2 624 264.4 624.2 265.8 624.3 265.5 624.5 266.3 624.7 262 624.9 263.4 625.2 261.9 625.3 260.4 625.6 259.9 625.9 260.6 626 259.2 626.2 257.6 626.5 257.9 626.8 258.6 627.1 260.6 627.5 260.9 627.9 262.5 628.2 260.4 628.6 263.5 628.6 271 628.7 266.2 628.8 263.4 629.1 266 629.4 264.2 629.6 265.3 629.9 265.5 630.1 266.8 630.4 265 630.6 262.9 630.9 262.4 631 260.6 631.2 257.2 631.4 256.1 631.7 257.9 632.1 258.4 632.5 257.9 632.8 256.4 633.4 257.6 634 255.8 634.6 255.3 635.2 255.9 636 254.4 636.6 253.8 637 251.1 637.6 249.3 638.2 251.5 638.9 250.5 639.5 252.3 640 254.4 640.5 256.3 641.1 254.8 641.7 256.1 642.4 257.6 643 259.2 643.6 259.2 644 266.5 644.2 267.5 644.3 269 644.5 269.2 644.7 269 645 265.8 645.5 263.5 645.9 266.7 646.3 265.7 646.5 263.5 646.6 259.4 646.7 256.6 646.8 254.6 647 250.8 647.1 253.3 647.2 252.1 647.3 253.4 647.5 251.3 647.7 249 647.8 248.3 647.9 245.5 648.1 247.8 648.2 251.3 648.4 251.3 648.6 251.3 648.8 251.8 649.1 255.6 649.2 256.4 649.4 260.7 649.5 264.9 649.5 265.5 649.6 265.3 649.8 270.5 649.9 270 650 268.8 650.1 273.8 650.2 271.8 650.3 272.1 650.4 275.9 650.5 275.1 650.6 270.1 650.8 270.8 651 270 651.2 267.8 651.4 271.3 651.6 270.5 651.8 270 652 266.3 652.2 268 652.4 270.6 652.6 264.9 652.7 259.7 652.7 257.4 652.8 253.4 652.9 251.8 653 248.6 653.1 245.3 653.1 249 653.3 246.5 653.4 247.5 653.5 251 653.7 254.3 653.8 255.4 654 255.3 654.2 252.5 654.4 248.6 654.6 248 654.8 246 655 248.3 655.4 248.6 655.8 247.8 656 252.5 656.3 254.6 656.7 258.7 657 259.6 657.3 258.7 657.6 263.5 657.8 261.9 658.1 262.4 658.4 261.2 658.9 256.6 659.1 255.6 659.4 253.8 659.8 253.1 660.3 253.8 660.8 254.8 661.4 255.6 661.8 257.2 662.2 259.6 662.9 258.2 663.5 255.8 664 256.9 664.7 260.4 665 262.4 665.3 265 665.6 263.9 665.9 260.4 666.3 261.7 666.5 264.2 666.9 263.9 667.3 267.3 667.6 265.8 668 267 668.4 263.4 668.9 264.5 669.2 261.9 669.8 263.2 670.2 263.4 670.7 263 671.1 267.2 671.5 266.2 672 266.8 672.5 268.8 673.2 269.5 673.5 269 673.6 272 673.9 271.8 674.2 272.1 674.4 274.9 674.6 273.3 674.7 272 674.9 276.6 675 275.6 675.1 277.4 675.3 277.1 675.4 279.9 675.5 281.9 675.6 285.4 675.7 282.5 675.9 279.7 676 274.8 676.1 274.4 676.3 274.3 676.5 275.8 676.6 268.3 676.6 269.2 676.7 267.5 676.8 269.5 677 271.6 677.2 267 677.5 270.1 677.8 269.8 678 272.1 678.3 272.1 678.5 269.5 678.8 271.5 679.1 270.3 679.4 270 679.6 274.1 679.7 280.6 679.8 281.9 680 279.9 680.2 282.5 680.6 279.7 680.8 281.4 681.1 281.4 681.4 283.4 681.7 285.7 682 281.2 682.4 281.1 682.9 281.4 683.4 279.4 683.7 276.6 684 278.2 684.4 278.7 684.8 274.6 685.2 272 685.6 273.3 685.9 270.6 686.4 272.5 686.8 270.8 687.1 269.2 687.4 266.7 687.8 264 688.2 264.4 688.8 264.4 689.3 263.9 689.7 261.2 690.3 259.9 690.5 255.4 691 254.8 691.4 256.1 691.8 256.6 692.3 256.4 692.7 256.9 693 260.7 693.3 260.7 693.7 262 694.4 262.2 695 259.6 695.3 264.2 695.6 266.2 696 263.9 696.5 264.4 696.9 264.2 697.5 265 698.1 264.7 698.8 262.9 699.4 263.2 700 264.2 700.8 261.5 701.2 266 701.6 268.2 702.1 265.5 702.3 269.5 702.3 272.1 702.5 273 702.6 270.8 702.8 269.2 703 269.6 703.1 265.7 703.3 265.3 703.5 263.2 703.7 260.7 703.8 260.1 704 262 704.3 262.5 704.5 260.4 704.6 256.3 704.8 252.9 705 255.3 705.1 257.7 705.5 254.9 705.6 247.5 705.8 250 706 252.3 706.2 257.9 706.5 256.9 706.8 255.1 707.2 258.9 707.4 262.7 707.7 264.9 707.8 264 708 268.8 708.2 266.8 708.4 269.3 708.7 268.5 709.1 271.1 709.2 275.4 709.4 274.3 709.7 273.5 710 271.5 710.6 271.6 711 271 711.7 271.1 712.4 271.1 713.3 272.6 713.8 275.8 713.8 281.1 714 281.1 714.3 281.7 714.9 284 715.5 283.2 716.2 283.4 717 280.2 717.3 278.4 717.7 280.4 718.5 281.9 719.5 282.4 720.8 282.1 721.9 285.2 722.9 282.4 724.1 281.4 725.7 279.1 726.3 277.4 726.8 274.3 727.5 273.9 728.6 269.6 729.2 275.1 729.5 271.1 730 270.5 730.6 270.1 731.3 274.4 731.8 277.9 732.4 278.4 733.5 277.1 735.3 277.3 736.6 276.9 738.2 276.6 739.4 275.4 740.6 277.6 741.4 278.2 742.4 276.8 743.4 278.2 744.5 281.4 744.8 285 745.1 283.5 745.4 283.5 745.8 283.4 746.4 282.4 747.2 283.4 748 283.9 749.1 285.9 750 284.7 750.7 288.7 751.2 285.4 752 279.1 752.7 277.1 753.7 279.2 754.6 278.9 755.4 278.9 756.3 278.7 756.6 270.6 756.8 272.3 757.1 272.3 757.3 274.4 757.6 275.4 757.7 282.1 758.2 281.9 758.7 283.2 759.2 287.7 759.2 290 759.2 290.2 759.3 293 759.4 293.3 759.4 300.7 759.5 297.9 759.5 304.5 759.6 305.2 759.7 304.7 759.8 304.9 759.9 302.9 760 300.2 760.2 298.4 760.4 299.9 760.7 301.2 760.9 304.2 761.3 302.1 761.5 304.9 761.7 306.7 761.8 307 761.9 308.7 762 310.2 762.1 309 762.3 311.7 762.4 309.5 762.5 307.5 762.8 307.5 763 310.8 763.1 315.5 763.2 314.8 763.3 312.6 763.5 313.1 763.6 318.8 763.7 315.6 763.8 312.6 764 311.7 764.2 312.3 764.4 313.6 764.7 313 764.9 309.8 765 306.5 765.2 303.5 765.5 307.7 765.8 307 766.2 306.9 766.5 310.7 766.8 308.8 767.2 310 767.5 306.7 767.6 302.2 767.9 303.2 768.1 303.1 768.4 303.5 768.6 298.8 768.8 298.9 769.1 301.2 769.3 300.4 769.6 296.4 769.7 291.8 769.9 294.3 770.1 295.4 770.3 292.6 770.5 292.8 770.7 294.3 771.2 291.8 771.6 294 772.1 294 772.6 296.8 773 295.3 773.4 289.7 773.8 292.8 774.4 294.8 775.1 294.6 775.7 293.8 776.2 291.5 776.6 292 776.9 294.6 777.3 296.4 777.7 295.1 778 290 778.4 293.8 779 294.9 779.8 295.3 780.4 292.3 781.4 291.6 782.2 290.2 782.8 292 783.5 291.3 784.2 290.7 784.7 292.8 785 293.5 785.1 287.7 785.2 284 785.4 287 785.6 283.2 785.8 283.2 785.8 279.4 786 281.7 786.2 284 786.4 287.2 786.4 290.8 786.6 290.3 786.9 290 787.1 290 787.3 287.7 787.6 288.2 787.8 284.2 788 286.2 788.3 288.3 788.6 288.2 788.9 285.9 789.4 285.2 789.6 282.2 789.8 283 790.2 282.7 790.5 283.4 791 282.5 791.6 285 792.2 288 792.7 288.3 793.3 284.9 793.4 282.2 793.7 282.5 794.3 282.7 795 285.7 795.5 282.7 796.1 285.9 796.7 284.7 797.5 286.5 797.9 284.7 798.3 284.5 798.9 287.8 799.3 287.7 799.7 289.2 800.3 291 800.7 296.6 800.9 297.1 801.2 298.9 801.7 299.6 802.1 300.1 802.6 296.3 803 297.3 803.1 302.9 803.1 308.2 803.1 306.7 803.1 310.5 803.1 303.5 803.2 299.4 803.2 304.7 803.2 307.2 803.3 302.4 803.3 300.6 803.4 302.2 803.6 300.4 804.3 300.9 804.8 301.9 805.2 303.2 805.4 304.9 805.7 305.9 806.3 305.7 806.9 305 807.3 308.7 807.5 309.2 807.8 310.7 808.3 311.5 808.9 312 809.3 307.4 809.6 305.9 810.3 306 810.9 307.7 811.5 308.7 812.1 306.4 812.4 303.4 812.7 303.5 812.9 306 813.1 305 813.3 303.7 813.5 303.5 813.7 303.4 814.1 303.2 814.3 300.9 814.5 296.9 814.6 295.4 814.7 294.9 814.9 295.8 815 294.1 815.3 294 815.5 299.2 815.7 303.7 815.8 308.2 815.9 310.7 816.1 306.5 816.3 310.3 816.4 315.8 816.6 316.9 816.7 315.1 816.9 315.3 817.1 314 817.4 315.8 817.6 313.1 817.8 307.2 818 310.2 818.2 308.2 818.6 306.9 818.8 305.5 819.2 303.5 819.3 297.6 819.4 296.9 819.7 298.1 819.9 296.1 820 297.1 820.2 297.3 820.4 294.6 820.7 294 820.9 295.9 821.3 297.4 821.6 301.1 822 296.4 822.5 299.6 823 297.8 823.5 299.7 824 300.4 824.3 302.9 824.7 300.7 824.9 301.7 825.2 301.6 825.6 302.4 826 303.4 826.5 303.2 827.1 301.4 827.6 301.9 828.2 302.1 828.6 305.7 829.2 305.9 829.9 304.2 830.3 300.9 830.6 296.4 830.9 297.3 831.3 298.1 831.6 297.1 831.9 300.2 832.2 300.7 832.8 301.7 833.2 300.4 833.7 302.1 834 302.4 834.5 301.9 834.8 296.3 835.1 297.3 835.3 296.4 835.6 294.6 835.8 294.9 836.2 295.4 836.5 296.8 836.8 294 837 293.5 837.2 292.5 837.3 288.3 837.5 291.1 837.7 291.5 838 292 838.3 294.6 838.6 292.8 838.8 291.6 839.1 291.5 839.3 290 839.5 291 839.8 290.8 840 292.8 840.1 297.9 840.3 294.9 840.4 293.5 840.5 293.6 840.6 293.6 840.7 294.6 840.9 293 841.1 297.3 841.1 296.3 841.3 295.3 841.5 294.1 841.9 294.9 842.1 298.3 842.3 298.1 842.5 294.1 842.7 295.1 843 297.6 843.2 295.9 843.5 296.3 843.8 298.6 844 296.4 844.1 292 844.3 293.5 844.4 295.8 844.7 294 845 296.1 845.2 295.6 845.4 294.5 845.5 295.1 845.7 294 846 291.8 846.1 294.5 846.2 295.3 846.4 291.1 846.6 291.3 846.7 288.3 846.9 288.2 847.1 286.2 847.2 288.5 847.4 290.5 847.6 294 847.8 296.1 847.9 292.8 847.9 289.3 848 290.5 848.1 288 848.3 289 848.4 289.8 848.7 287 848.9 286.8 849.2 289.2 849.3 284.9 849.5 284 849.7 283 850.1 282.7 850.3 283.5 850.6 287.7 850.8 287.8 851.2 286.4 851.4 287.3 851.7 288.5 851.9 292.6 852.1 291.8 852.5 291.5 852.8 292.5 852.9 293.1 853.1 293.8 853.4 296.8 853.7 293.8 854 297.4 854.1 304.2 854.2 304.9 854.3 305.4 854.4 307.5 854.5 308.3 854.6 307.8 854.8 305.9 855 307 855.2 310 855.4 310.3 855.7 310 856 313 856.2 313.8 856.4 312.6 856.8 313 857.3 314.8 857.6 313.1 858 317.1 858.4 314.1 859 313.8 859.5 313 859.9 312.8 860.5 315.5 860.8 316 861.1 315 861.5 314.3 862.1 314.3 862.5 312.5 862.8 311.8 863.5 311.8 863.9 312.1 864.2 312.3 864.4 313.6 864.8 313.3 865.3 310.7 865.7 316.3 865.9 316.9 866.2 315.3 866.7 316.6 867.4 314.5 867.8 313.8 867.9 316.9 868 316 868.1 322.4 868.1 327 868.1 325.4 868.2 327.9 868.3 327.4 868.4 327.4 868.4 333.1 868.4 332 868.5 336 868.6 337.1 868.6 339.9 868.6 336.8 868.7 341.3 868.7 341.3 868.7 342.4 868.8 341.1 868.8 336.6 868.9 336.8 869 333.1 869 333.6 869.2 334.5 869.2 338.9 869.3 338.6 869.4 335 869.5 333.5 869.6 336.6 869.8 337 869.9 329 870 333.3 870.2 332 870.4 331.5 870.5 330.5 870.7 327.7 870.8 325.2 871 325.5 871.2 323.4 871.3 325 871.5 326.7 871.7 329.2 871.9 329.8 872 329.3 872.2 332.7 872.4 332.3 872.5 332.2 872.6 329.7 872.7 329.8 872.9 335.1 873 336 873.2 337.9 873.3 337.3 873.5 338.8 873.6 330.5 873.7 329.5 873.9 329.8 874.1 330.7 874.3 330 874.7 328.5 875.1 329.2 875.3 326.9 875.5 325.5 875.7 326.7 875.9 328.5 876.2 327 876.4 325.7 876.8 326.9 877.4 326 878.1 326.7 878.5 326.7 879 327.5 879.4 326.5 879.8 327.4 880.3 326.2 880.4 326.9 880.7 330.5 880.7 332.2 880.7 340.9 880.8 357.5 880.8 348.4 880.8 346.2 880.8 345.2 880.8 343.9 880.9 343.6 880.9 342.1 880.9 341.6 881 340.4 881 339.4 881.1 340.6 881.1 341.1 881.2 343.1 881.2 344.9 881.4 343.1 881.5 345.6 881.6 348.9 881.7 349.4 881.8 347.2 881.8 344.6 881.9 343.4 882.1 345.9 882.3 344.1 882.5 343.7 882.7 344.1 882.9 345.4 883.2 345.6 883.4 344.9 883.7 343.6 883.8 339.9 884 338.8 884.3 338.6 884.7 339.4 885 342.2 885.5 341.4 885.8 344.4 886.1 347.5 886.2 350 886.4 352.3 886.6 354.5 886.8 350.7 887 348.7 887.1 341.6 887.2 342.1 887.6 344.2 887.9 342.6 888.1 342.2 888.3 338.8 888.5 340.3 888.8 342.7 889 343.9 889.2 341.7 889.5 342.6 889.7 343.2 890 343.6 890.2 343.4 890.5 343.9 890.7 339.9 891 341.7 891.6 339.9 892.1 340.4 892.4 337.9 892.5 332.3 892.7 335.6 893.1 334.5 893.4 336.5 893.8 337.4 894.1 336.8 894.3 341.9 894.4 338.6 894.6 338.9 894.9 341.6 895.1 337.4 895.4 340.1 895.5 337.9 895.6 337.6 895.7 335 895.8 337.6 895.9 340.8 896.1 338.6 896.2 336 896.3 339.1 896.4 342.1 896.6 345.1 896.7 347.4 896.7 339.3 896.8 338.1 896.9 339.3 897.1 340.4 897.3 341.6 897.4 339.6 897.6 341.7 897.8 340.4 897.9 338.3 898 336.6 898.2 340.4 898.4 344.4 898.5 344.4 898.7 342.9 898.8 337.4 899 341.1 899.2 341.4 899.4 341.7 899.7 343.1 899.8 348.2 899.9 352.8 899.9 354.8 900 349.2 900.1 348.5 900.2 347.5 900.3 344.4 900.4 339.9 900.4 338.8 900.5 341.6 900.6 337.4 900.7 334.1 900.7 335 900.9 337.3 901 334.8 901.1 333.6 901.3 333.6 901.4 337.4 901.6 337.8 901.8 341.1 901.9 345.6 902.1 342.9 902.2 346.9 902.3 345.7 902.4 345.7 902.5 346.7 902.6 347.5 902.7 346 902.8 348 903 347 903.2 349.5 903.3 345.4 903.5 348.9 903.7 351 903.9 350 904.1 348.9 904.3 349 904.5 351.7 904.8 348.4 905.3 349.9 905.5 349.7 905.9 349.2 906.3 347.2 906.8 348.4 907.3 348.5 907.7 346.5 908.2 349.7 908.6 350.5 909.1 353.2 909.5 350.8 909.8 350.2 910.4 350.8 911 351.7 911.7 351.3 912.4 351.8 913 351.3 913.7 354.2 913.9 359.6 914.1 358.8 914.4 357 914.8 356 915.2 358.3 915.4 357.3 915.8 359.8 915.9 366.7 916 363.2 916 362.9 916.1 363.4 916.1 364.7 916.2 364.4 916.3 365.9 916.3 368.9 916.3 366.1 916.4 367.2 916.4 366.2 916.5 365.4 916.7 362.9 916.9 362.6 917.2 362.1 917.4 359.1 917.7 362.7 918 362.1 918.3 360.6 918.7 359.3 919.1 359.3 919.4 359.6 919.9 359.9 920.3 360.1 920.5 362.6 920.9 363.4 921.2 364.9 921.5 365.9 921.8 367.2 922 367.5 922.2 369 922.5 369.4 922.7 370.7 922.7 373.8 922.8 374.2 922.8 373.5 922.9 377.1 922.9 379.3 923 377.6 923 390.7 923 389.9 923 389.2 923.1 390 923.1 387.6 923.1 390.2 923.1 389.7 923.2 391.2 923.2 395.3 923.2 396.3 923.3 393.2 923.3 394.5 923.4 397.1 923.4 391.4 923.5 391 923.5 389.4 923.6 386.7 923.7 386.6 923.8 383.6 923.8 383.1 923.9 383.9 924 383.4 924.1 385.2 924.2 384.4 924.3 384.9 924.4 383.8 924.5 383.4 924.7 383.9 924.8 380.3 924.9 383.3 925 381.6 925.1 383.8 925.1 378.3 925.2 378.3 925.3 376.3 925.3 381.3 925.4 381.6 925.6 383.3 925.7 386.1 925.7 384.4 925.8 387.4 925.9 388.5 926 386.4 926.1 389.4 926.1 391.7 926.2 396.3 926.2 401.8 926.2 405.9 926.2 412.9 926.2 404.3 926.2 399.1 926.2 401.8 926.3 399.6 926.3 400.5 926.3 399.3 926.4 404.3 926.4 402.1 926.4 401.3 926.5 400.6 926.5 399 926.6 402.6 926.6 404.8 926.6 398.8 926.7 401.6 926.8 400.9 926.9 406.2 927 402.9 927.1 403.3 927.2 403.1 927.2 404.3 927.3 404.1 927.4 408.6 927.5 408.6 927.5 407.1 927.6 409.5 927.7 408.2 927.8 411.7 927.8 413 927.9 415.7 927.9 415 927.9 425.4 927.9 435.7 928 425.4 928 416.8 928 417.3 928 409.7 928 410.9 928 411 928 410.2 928.1 410.2 928.1 406.2 928.2 410.2 928.2 409.7 928.3 409.9 928.3 410.2 928.4 407.7 928.4 407.2 928.5 405.9 928.6 405.6 928.6 404.1 928.7 407.6 928.8 404.9 928.9 409.4 929 409.7 929 411.4 929.1 409.9 929.2 407.4 929.3 409.4 929.4 408.4 929.6 410 929.7 411.4 929.8 409.9 929.9 409.2 930 411.7 930.1 412 930.2 407.2 930.3 407.7 930.5 407.4 930.6 404.1 930.7 407.4 930.8 410 930.8 408.2 930.9 406.1 931.1 406.2 931.1 403.1 931.3 399.6 931.4 398.1 931.5 399.6 931.7 399.8 931.8 399.1 932 401.9 932.1 402.4 932.4 403.1 932.8 401.6 933 399.5 933.2 397.6 933.3 392.3 933.4 394.5 933.6 392.5 933.8 395.8 934 393.8 934 393.7" opacity=".6"/><text x="942" y="472" fill="#d97706" font-size="11" text-anchor="start">0.24</text><text x="942" y="396" fill="#d97706" font-size="11" text-anchor="start">0.29</text><text x="942" y="320" fill="#d97706" font-size="11" text-anchor="start">0.34</text><text x="942" y="244" fill="#d97706" font-size="11" text-anchor="start">0.38</text><text x="942" y="168" fill="#d97706" font-size="11" text-anchor="start">0.43</text><text x="942" y="92" fill="#d97706" font-size="11" text-anchor="start">0.47</text><text x="942" y="80" fill="#d97706" font-size="11" font-weight="600" text-anchor="start">price</text><polygon fill="#16a34a" fill-opacity=".08" points="109.3 468 109.3 413.6 109.3 398.5 232.6 379.2 397.6 354.6 417.3 365.2 538 323.3 542.9 336.7 575.1 283.2 575.1 300.4 575.1 323.3 621.8 353.9 868.1 232.4 923 174.3 927.9 116.1 928 135.6 928 468"/><polyline fill="none" stroke="#16a34a" stroke-linejoin="round" stroke-width="2" points="109.3 413.6 109.3 398.5 232.6 379.2 397.6 354.6 417.3 365.2 538 323.3 542.9 336.7 575.1 283.2 575.1 300.4 575.1 323.3 621.8 353.9 868.1 232.4 923 174.3 927.9 116.1 928 135.6"/><line x1="88" x2="110" y1="102" y2="102" stroke="#16a34a" stroke-width="2.5"/><text x="116" y="106" fill="#374151" font-size="11.5">equity</text><line x1="88" x2="110" y1="118" y2="118" stroke="#d97706" stroke-width="2.5" opacity=".8"/><text x="116" y="122" fill="#374151" font-size="11.5">price</text><text x="78" y="502" fill="#6b7280" font-size="12" text-anchor="start">2026-01-01</text><text x="934" y="502" fill="#6b7280" font-size="12" text-anchor="end">2026-01-31</text></svg>