<?xml version="1.0" encoding="UTF-8"?>
<svg xmlns="http://www.w3.org/2000/svg" width="1100" height="560" viewBox="0 0 1100 560" font-family="ui-sans-serif, system-ui, sans-serif">
  <rect width="1100" height="560" fill="#ffffff"/>
  <text x="80" y="28" font-size="18" font-weight="700" fill="#111827">Zone Recovery — CRVUSDC fee-tier comparison (best setting)</text>
  <text x="80" y="48" font-size="12.5" fill="#6b7280">lev 10 · ratio 3 · gap 35% · maxSteps 4 · maxDD 60% · random  ·  equity per fee tier vip 0..9</text>
  <text x="80" y="68" font-size="12.5" font-weight="600" fill="#1d4ed8">USDC margin · BNB −10%</text>
  <line x1="80" y1="508.0" x2="932" y2="508.0" stroke="#e5e7eb" stroke-width="1"/><text x="70" y="512.0" text-anchor="end" font-size="12" fill="#6b7280">0.00</text><line x1="80" y1="424.0" x2="932" y2="424.0" stroke="#e5e7eb" stroke-width="1"/><text x="70" y="428.0" text-anchor="end" font-size="12" fill="#6b7280">13968</text><line x1="80" y1="340.0" x2="932" y2="340.0" stroke="#e5e7eb" stroke-width="1"/><text x="70" y="344.0" text-anchor="end" font-size="12" fill="#6b7280">27936</text><line x1="80" y1="256.0" x2="932" y2="256.0" stroke="#e5e7eb" stroke-width="1"/><text x="70" y="260.0" text-anchor="end" font-size="12" fill="#6b7280">41904</text><line x1="80" y1="172.0" x2="932" y2="172.0" stroke="#e5e7eb" stroke-width="1"/><text x="70" y="176.0" text-anchor="end" font-size="12" fill="#6b7280">55872</text><line x1="80" y1="88.0" x2="932" y2="88.0" stroke="#e5e7eb" stroke-width="1"/><text x="70" y="92.0" text-anchor="end" font-size="12" fill="#6b7280">69840</text>
  <line x1="80" y1="447.9" x2="932" y2="447.9" stroke="#9ca3af" stroke-width="1.5" stroke-dasharray="6 4"/>
  <polyline points="80.0,447.9 80.0,431.3 208.3,410.1 380.0,383.1 400.5,394.9 526.1,349.0 531.3,364.0 564.7,305.6 564.7,324.7 564.8,350.2 613.4,384.2 869.7,251.7 926.8,187.8 932.0,123.9 932.0,145.8" fill="none" stroke="#2563eb" stroke-width="1.8" stroke-linejoin="round" opacity="0.9"/>
  <polyline points="80.0,447.9 80.0,431.3 208.3,410.1 380.0,383.1 400.5,394.9 526.1,349.0 531.3,364.0 564.7,305.6 564.7,324.7 564.8,350.2 613.4,384.2 869.7,251.7 926.8,187.8 932.0,123.9 932.0,145.8" fill="none" stroke="#dc2626" stroke-width="1.8" stroke-linejoin="round" opacity="0.9"/>
  <polyline points="80.0,447.9 80.0,431.3 208.3,410.1 380.0,383.0 400.5,394.8 526.1,348.8 531.3,363.7 564.7,305.1 564.7,324.2 564.8,349.6 613.4,383.6 869.7,250.6 926.8,186.6 932.0,122.6 932.0,144.4" fill="none" stroke="#16a34a" stroke-width="1.8" stroke-linejoin="round" opacity="0.9"/>
  <polyline points="80.0,447.9 80.0,431.2 208.3,410.0 380.0,382.9 400.5,394.7 526.1,348.6 531.3,363.5 564.7,304.7 564.7,323.8 564.8,349.2 613.4,383.1 869.7,249.8 926.8,185.7 932.0,121.6 932.0,143.4" fill="none" stroke="#d97706" stroke-width="1.8" stroke-linejoin="round" opacity="0.9"/>
  <polyline points="80.0,447.9 80.0,431.2 208.3,409.9 380.0,382.8 400.5,394.5 526.1,348.3 531.3,363.2 564.7,304.2 564.7,323.2 564.8,348.6 613.4,382.4 869.7,248.6 926.8,184.4 932.0,120.2 932.0,141.9" fill="none" stroke="#7c3aed" stroke-width="1.8" stroke-linejoin="round" opacity="0.9"/>
  <polyline points="80.0,447.9 80.0,431.2 208.3,409.9 380.0,382.8 400.5,394.5 526.1,348.2 531.3,363.1 564.7,304.1 564.7,323.1 564.8,348.5 613.4,382.3 869.7,248.3 926.8,184.2 932.0,120.0 932.0,141.6" fill="none" stroke="#0891b2" stroke-width="1.8" stroke-linejoin="round" opacity="0.9"/>
  <polyline points="80.0,447.9 80.0,431.2 208.3,409.9 380.0,382.8 400.5,394.4 526.1,348.2 531.3,363.1 564.7,304.0 564.7,323.0 564.8,348.4 613.4,382.2 869.7,248.2 926.8,184.0 932.0,119.8 932.0,141.4" fill="none" stroke="#db2777" stroke-width="1.8" stroke-linejoin="round" opacity="0.9"/>
  <polyline points="80.0,447.9 80.0,431.2 208.3,409.9 380.0,382.7 400.5,394.4 526.1,348.1 531.3,363.0 564.7,303.9 564.7,322.9 564.8,348.3 613.4,382.1 869.7,248.0 926.8,183.8 932.0,119.5 932.0,141.1" fill="none" stroke="#65a30d" stroke-width="1.8" stroke-linejoin="round" opacity="0.9"/>
  <polyline points="80.0,447.9 80.0,431.2 208.3,409.9 380.0,382.7 400.5,394.4 526.1,348.1 531.3,363.0 564.7,303.9 564.7,322.9 564.8,348.2 613.4,382.0 869.7,247.8 926.8,183.6 932.0,119.4 932.0,140.9" fill="none" stroke="#475569" stroke-width="1.8" stroke-linejoin="round" opacity="0.9"/>
  <polyline points="80.0,447.9 80.0,431.2 208.3,409.9 380.0,382.7 400.5,394.3 526.1,348.0 531.3,362.9 564.7,303.8 564.7,322.8 564.8,348.1 613.4,381.9 869.7,247.6 926.8,183.4 932.0,119.1 932.0,140.7" fill="none" stroke="#ea580c" stroke-width="1.8" stroke-linejoin="round" opacity="0.9"/>
  <line x1="950" y1="94" x2="972" y2="94" stroke="#ea580c" stroke-width="3"/><text x="980" y="98" font-size="12.5" fill="#374151">vip 9  61082</text>
  <line x1="950" y1="116" x2="972" y2="116" stroke="#475569" stroke-width="3"/><text x="980" y="120" font-size="12.5" fill="#374151">vip 8  61038</text>
  <line x1="950" y1="138" x2="972" y2="138" stroke="#65a30d" stroke-width="3"/><text x="980" y="142" font-size="12.5" fill="#374151">vip 7  61007</text>
  <line x1="950" y1="160" x2="972" y2="160" stroke="#db2777" stroke-width="3"/><text x="980" y="164" font-size="12.5" fill="#374151">vip 6  60960</text>
  <line x1="950" y1="182" x2="972" y2="182" stroke="#0891b2" stroke-width="3"/><text x="980" y="186" font-size="12.5" fill="#374151">vip 5  60929</text>
  <line x1="950" y1="204" x2="972" y2="204" stroke="#7c3aed" stroke-width="3"/><text x="980" y="208" font-size="12.5" fill="#374151">vip 4  60885</text>
  <line x1="950" y1="226" x2="972" y2="226" stroke="#d97706" stroke-width="3"/><text x="980" y="230" font-size="12.5" fill="#374151">vip 3  60632</text>
  <line x1="950" y1="248" x2="972" y2="248" stroke="#16a34a" stroke-width="3"/><text x="980" y="252" font-size="12.5" fill="#374151">vip 2  60455</text>
  <line x1="950" y1="270" x2="972" y2="270" stroke="#2563eb" stroke-width="3"/><text x="980" y="274" font-size="12.5" fill="#374151">vip 0  60235</text>
  <line x1="950" y1="292" x2="972" y2="292" stroke="#dc2626" stroke-width="3"/><text x="980" y="296" font-size="12.5" fill="#374151">vip 1  60235</text>
  <text x="80" y="542" text-anchor="start" font-size="12" fill="#6b7280">2026-01-02</text><text x="932" y="542" text-anchor="end" font-size="12" fill="#6b7280">2026-01-31</text>
</svg>
