<svg xmlns="http://www.w3.org/2000/svg" width="1100" height="560" font-family="ui-sans-serif, system-ui, sans-serif" viewBox="0 0 1100 560"><rect width="1100" height="560" fill="#fff"/><text x="80" y="28" fill="#111827" font-size="18" font-weight="700">Zone Recovery — WLDUSDC fee-tier comparison (best setting)</text><text x="80" y="48" fill="#6b7280" font-size="12.5">lev 5 · ratio 4 · gap 20% · maxSteps 4 · maxDD 60% · random · equity per fee tier vip 0..9</text><text x="80" y="68" fill="#1d4ed8" font-size="12.5" font-weight="600">USDC margin · BNB −10%</text><line x1="80" x2="932" y1="508" y2="508" stroke="#e5e7eb" stroke-width="1"/><text x="70" y="512" fill="#6b7280" font-size="12" text-anchor="end">0.00</text><line x1="80" x2="932" y1="424" y2="424" stroke="#e5e7eb" stroke-width="1"/><text x="70" y="428" fill="#6b7280" font-size="12" text-anchor="end">23446</text><line x1="80" x2="932" y1="340" y2="340" stroke="#e5e7eb" stroke-width="1"/><text x="70" y="344" fill="#6b7280" font-size="12" text-anchor="end">46893</text><line x1="80" x2="932" y1="256" y2="256" stroke="#e5e7eb" stroke-width="1"/><text x="70" y="260" fill="#6b7280" font-size="12" text-anchor="end">70339</text><line x1="80" x2="932" y1="172" y2="172" stroke="#e5e7eb" stroke-width="1"/><text x="70" y="176" fill="#6b7280" font-size="12" text-anchor="end">93785</text><line x1="80" x2="932" y1="88" y2="88" stroke="#e5e7eb" stroke-width="1"/><text x="70" y="92" fill="#6b7280" font-size="12" text-anchor="end">117231</text><line x1="80" x2="932" y1="472.2" y2="472.2" stroke="#9ca3af" stroke-dasharray="6 4" stroke-width="1.5"/><polyline fill="none" stroke="#2563eb" stroke-linejoin="round" stroke-width="1.8" points="80 472.2 80 457.3 163.9 436.3 484.8 406.6 513.7 417.4 527 430.8 554.4 365.2 755.4 380.3 770.2 399.2 846.3 306.7 846.4 326.2 846.9 350.5 848.1 231.6 848.4 249.6 848.7 272.1 848.9 300.1 849.2 335.2 854.9 264.9 926.5 194.7 932 124.4 932 142.4" opacity=".9"/><polyline fill="none" stroke="#dc2626" stroke-linejoin="round" stroke-width="1.8" points="80 472.2 80 457.3 163.9 436.3 484.8 406.6 513.7 417.4 527 430.8 554.4 365.2 755.4 380.3 770.2 399.2 846.3 306.7 846.4 326.2 846.9 350.5 848.1 231.6 848.4 249.6 848.7 272.1 848.9 300.1 849.2 335.2 854.9 264.9 926.5 194.7 932 124.4 932 142.4" opacity=".9"/><polyline fill="none" stroke="#16a34a" stroke-linejoin="round" stroke-width="1.8" points="80 472.2 80 457.3 163.9 436.3 484.8 406.6 513.7 417.3 527 430.7 554.4 364.9 755.4 380 770.2 398.9 846.3 306.2 846.4 325.5 846.9 349.8 848.1 230.8 848.4 248.7 848.7 271.1 848.9 299 849.2 334 854.9 263.7 926.5 193.4 932 123 932 140.9" opacity=".9"/><polyline fill="none" stroke="#d97706" stroke-linejoin="round" stroke-width="1.8" points="80 472.2 80 457.3 163.9 436.3 484.8 406.5 513.7 417.2 527 430.5 554.4 364.7 755.4 379.8 770.2 398.6 846.3 305.7 846.4 325 846.9 349.2 848.1 230.1 848.4 248 848.7 270.3 848.9 298.2 849.2 333 854.9 262.7 926.5 192.3 932 121.9 932 139.8" opacity=".9"/><polyline fill="none" stroke="#7c3aed" stroke-linejoin="round" stroke-width="1.8" points="80 472.2 80 457.3 163.9 436.2 484.8 406.4 513.7 417.1 527 430.4 554.4 364.4 755.4 379.5 770.2 398.3 846.3 305.1 846.4 324.3 846.9 348.4 848.1 229.2 848.4 246.9 848.7 269.2 848.9 296.9 849.2 331.6 854.9 261.2 926.5 190.8 932 120.3 932 138.1" opacity=".9"/><polyline fill="none" stroke="#0891b2" stroke-linejoin="round" stroke-width="1.8" points="80 472.2 80 457.3 163.9 436.2 484.8 406.4 513.7 417 527 430.3 554.4 364.3 755.4 379.4 770.2 398.2 846.3 304.9 846.4 324.2 846.9 348.2 848.1 229 848.4 246.8 848.7 269 848.9 296.7 849.2 331.4 854.9 261 926.5 190.5 932 120.1 932 137.8" opacity=".9"/><polyline fill="none" stroke="#db2777" stroke-linejoin="round" stroke-width="1.8" points="80 472.2 80 457.3 163.9 436.2 484.8 406.4 513.7 417 527 430.3 554.4 364.3 755.4 379.4 770.2 398.2 846.3 304.9 846.4 324.1 846.9 348.1 848.1 228.9 848.4 246.6 848.7 268.8 848.9 296.6 849.2 331.2 854.9 260.8 926.5 190.3 932 119.9 932 137.6" opacity=".9"/><polyline fill="none" stroke="#65a30d" stroke-linejoin="round" stroke-width="1.8" points="80 472.2 80 457.3 163.9 436.2 484.8 406.4 513.7 417 527 430.3 554.4 364.3 755.4 379.3 770.2 398.1 846.3 304.7 846.4 323.9 846.9 348 848.1 228.7 848.4 246.4 848.7 268.6 848.9 296.3 849.2 331 854.9 260.5 926.5 190 932 119.6 932 137.3" opacity=".9"/><polyline fill="none" stroke="#475569" stroke-linejoin="round" stroke-width="1.8" points="80 472.2 80 457.3 163.9 436.2 484.8 406.3 513.7 417 527 430.3 554.4 364.2 755.4 379.3 770.2 398 846.3 304.7 846.4 323.9 846.9 347.9 848.1 228.6 848.4 246.3 848.7 268.5 848.9 296.2 849.2 330.8 854.9 260.3 926.5 189.9 932 119.4 932 137.1" opacity=".9"/><polyline fill="none" stroke="#ea580c" stroke-linejoin="round" stroke-width="1.8" points="80 472.2 80 457.3 163.9 436.2 484.8 406.3 513.7 417 527 430.2 554.4 364.2 755.4 379.2 770.2 398 846.3 304.5 846.4 323.7 846.9 347.7 848.1 228.4 848.4 246.1 848.7 268.3 848.9 296 849.2 330.6 854.9 260.1 926.5 189.6 932 119.1 932 136.8" opacity=".9"/><line x1="950" x2="972" y1="94" y2="94" stroke="#ea580c" stroke-width="3"/><text x="980" y="98" fill="#374151" font-size="12.5">vip 9 103603</text><line x1="950" x2="972" y1="116" y2="116" stroke="#475569" stroke-width="3"/><text x="980" y="120" fill="#374151" font-size="12.5">vip 8 103522</text><line x1="950" x2="972" y1="138" y2="138" stroke="#65a30d" stroke-width="3"/><text x="980" y="142" fill="#374151" font-size="12.5">vip 7 103466</text><line x1="950" x2="972" y1="160" y2="160" stroke="#db2777" stroke-width="3"/><text x="980" y="164" fill="#374151" font-size="12.5">vip 6 103379</text><line x1="950" x2="972" y1="182" y2="182" stroke="#0891b2" stroke-width="3"/><text x="980" y="186" fill="#374151" font-size="12.5">vip 5 103324</text><line x1="950" x2="972" y1="204" y2="204" stroke="#7c3aed" stroke-width="3"/><text x="980" y="208" fill="#374151" font-size="12.5">vip 4 103242</text><line x1="950" x2="972" y1="226" y2="226" stroke="#d97706" stroke-width="3"/><text x="980" y="230" fill="#374151" font-size="12.5">vip 3 102780</text><line x1="950" x2="972" y1="248" y2="248" stroke="#16a34a" stroke-width="3"/><text x="980" y="252" fill="#374151" font-size="12.5">vip 2 102455</text><line x1="950" x2="972" y1="270" y2="270" stroke="#2563eb" stroke-width="3"/><text x="980" y="274" fill="#374151" font-size="12.5">vip 0 102049</text><line x1="950" x2="972" y1="292" y2="292" stroke="#dc2626" stroke-width="3"/><text x="980" y="296" fill="#374151" font-size="12.5">vip 1 102049</text><text x="80" y="542" fill="#6b7280" font-size="12" text-anchor="start">2026-01-02</text><text x="932" y="542" fill="#6b7280" font-size="12" text-anchor="end">2026-01-31</text></svg>